<?xml version="1.0" encoding="utf-8" standalone="no"?>
<!DOCTYPE svg PUBLIC "-//W3C//DTD SVG 1.1//EN"
  "http://www.w3.org/Graphics/SVG/1.1/DTD/svg11.dtd">
<svg height="595.44pt" version="1.1" viewBox="0 0 842.4 595.44" width="842.4pt" xmlns="http://www.w3.org/2000/svg" xmlns:xlink="http://www.w3.org/1999/xlink">
 <metadata>
  <rdf:RDF xmlns:cc="http://creativecommons.org/ns#" xmlns:dc="http://purl.org/dc/elements/1.1/" xmlns:rdf="http://www.w3.org/1999/02/22-rdf-syntax-ns#">
   <cc:Work>
    <dc:type rdf:resource="http://purl.org/dc/dcmitype/StillImage"/>
    <dc:date>2021-06-01T00:54:03.215676</dc:date>
    <dc:format>image/svg+xml</dc:format>
    <dc:creator>
     <cc:Agent>
      <dc:title>Matplotlib v3.4.1, https://matplotlib.org/</dc:title>
     </cc:Agent>
    </dc:creator>
   </cc:Work>
  </rdf:RDF>
 </metadata>
 <defs>
  <style type="text/css">*{stroke-linecap:butt;stroke-linejoin:round;}</style>
 </defs>
 <g id="figure_1">
  <g id="patch_1">
   <path d="M 0 595.44 
L 842.4 595.44 
L 842.4 0 
L 0 0 
z
" style="fill:#ffffff;"/>
  </g>
  <g id="axes_1">
   <g id="patch_2">
    <path d="M 105.3 529.9416 
L 758.16 529.9416 
L 758.16 71.4528 
L 105.3 71.4528 
z
" style="fill:#ffffff;"/>
   </g>
   <g id="matplotlib.axis_1">
    <g id="xtick_1">
     <g id="text_1">
      <!-- 0 -->
      <g style="fill:#262626;" transform="translate(131.916939 547.315194)scale(0.11 -0.11)">
       <defs>
        <path d="M 266 2259 
Q 266 3072 433 3567 
Q 600 4063 929 4331 
Q 1259 4600 1759 4600 
Q 2128 4600 2406 4451 
Q 2684 4303 2865 4023 
Q 3047 3744 3150 3342 
Q 3253 2941 3253 2259 
Q 3253 1453 3087 958 
Q 2922 463 2592 192 
Q 2263 -78 1759 -78 
Q 1097 -78 719 397 
Q 266 969 266 2259 
z
M 844 2259 
Q 844 1131 1108 757 
Q 1372 384 1759 384 
Q 2147 384 2411 759 
Q 2675 1134 2675 2259 
Q 2675 3391 2411 3762 
Q 2147 4134 1753 4134 
Q 1366 4134 1134 3806 
Q 844 3388 844 2259 
z
" id="ArialMT-30" transform="scale(0.015625)"/>
       </defs>
       <use xlink:href="#ArialMT-30"/>
      </g>
     </g>
    </g>
    <g id="xtick_2">
     <g id="text_2">
      <!-- 25 -->
      <g style="fill:#262626;" transform="translate(201.950676 547.315194)scale(0.11 -0.11)">
       <defs>
        <path d="M 3222 541 
L 3222 0 
L 194 0 
Q 188 203 259 391 
Q 375 700 629 1000 
Q 884 1300 1366 1694 
Q 2113 2306 2375 2664 
Q 2638 3022 2638 3341 
Q 2638 3675 2398 3904 
Q 2159 4134 1775 4134 
Q 1369 4134 1125 3890 
Q 881 3647 878 3216 
L 300 3275 
Q 359 3922 746 4261 
Q 1134 4600 1788 4600 
Q 2447 4600 2831 4234 
Q 3216 3869 3216 3328 
Q 3216 3053 3103 2787 
Q 2991 2522 2730 2228 
Q 2469 1934 1863 1422 
Q 1356 997 1212 845 
Q 1069 694 975 541 
L 3222 541 
z
" id="ArialMT-32" transform="scale(0.015625)"/>
        <path d="M 266 1200 
L 856 1250 
Q 922 819 1161 601 
Q 1400 384 1738 384 
Q 2144 384 2425 690 
Q 2706 997 2706 1503 
Q 2706 1984 2436 2262 
Q 2166 2541 1728 2541 
Q 1456 2541 1237 2417 
Q 1019 2294 894 2097 
L 366 2166 
L 809 4519 
L 3088 4519 
L 3088 3981 
L 1259 3981 
L 1013 2750 
Q 1425 3038 1878 3038 
Q 2478 3038 2890 2622 
Q 3303 2206 3303 1553 
Q 3303 931 2941 478 
Q 2500 -78 1738 -78 
Q 1113 -78 717 272 
Q 322 622 266 1200 
z
" id="ArialMT-35" transform="scale(0.015625)"/>
       </defs>
       <use xlink:href="#ArialMT-32"/>
       <use x="55.615234" xlink:href="#ArialMT-35"/>
      </g>
     </g>
    </g>
    <g id="xtick_3">
     <g id="text_3">
      <!-- 50 -->
      <g style="fill:#262626;" transform="translate(275.042928 547.315194)scale(0.11 -0.11)">
       <use xlink:href="#ArialMT-35"/>
       <use x="55.615234" xlink:href="#ArialMT-30"/>
      </g>
     </g>
    </g>
    <g id="xtick_4">
     <g id="text_4">
      <!-- 75 -->
      <g style="fill:#262626;" transform="translate(348.135181 547.315194)scale(0.11 -0.11)">
       <defs>
        <path d="M 303 3981 
L 303 4522 
L 3269 4522 
L 3269 4084 
Q 2831 3619 2401 2847 
Q 1972 2075 1738 1259 
Q 1569 684 1522 0 
L 944 0 
Q 953 541 1156 1306 
Q 1359 2072 1739 2783 
Q 2119 3494 2547 3981 
L 303 3981 
z
" id="ArialMT-37" transform="scale(0.015625)"/>
       </defs>
       <use xlink:href="#ArialMT-37"/>
       <use x="55.615234" xlink:href="#ArialMT-35"/>
      </g>
     </g>
    </g>
    <g id="xtick_5">
     <g id="text_5">
      <!-- 100 -->
      <g style="fill:#262626;" transform="translate(418.168918 547.315194)scale(0.11 -0.11)">
       <defs>
        <path d="M 2384 0 
L 1822 0 
L 1822 3584 
Q 1619 3391 1289 3197 
Q 959 3003 697 2906 
L 697 3450 
Q 1169 3672 1522 3987 
Q 1875 4303 2022 4600 
L 2384 4600 
L 2384 0 
z
" id="ArialMT-31" transform="scale(0.015625)"/>
       </defs>
       <use xlink:href="#ArialMT-31"/>
       <use x="55.615234" xlink:href="#ArialMT-30"/>
       <use x="111.230469" xlink:href="#ArialMT-30"/>
      </g>
     </g>
    </g>
    <g id="xtick_6">
     <g id="text_6">
      <!-- 125 -->
      <g style="fill:#262626;" transform="translate(491.261171 547.315194)scale(0.11 -0.11)">
       <use xlink:href="#ArialMT-31"/>
       <use x="55.615234" xlink:href="#ArialMT-32"/>
       <use x="111.230469" xlink:href="#ArialMT-35"/>
      </g>
     </g>
    </g>
    <g id="xtick_7">
     <g id="text_7">
      <!-- 150 -->
      <g style="fill:#262626;" transform="translate(564.353423 547.315194)scale(0.11 -0.11)">
       <use xlink:href="#ArialMT-31"/>
       <use x="55.615234" xlink:href="#ArialMT-35"/>
       <use x="111.230469" xlink:href="#ArialMT-30"/>
      </g>
     </g>
    </g>
    <g id="xtick_8">
     <g id="text_8">
      <!-- 175 -->
      <g style="fill:#262626;" transform="translate(637.445676 547.315194)scale(0.11 -0.11)">
       <use xlink:href="#ArialMT-31"/>
       <use x="55.615234" xlink:href="#ArialMT-37"/>
       <use x="111.230469" xlink:href="#ArialMT-35"/>
      </g>
     </g>
    </g>
    <g id="xtick_9">
     <g id="text_9">
      <!-- 200 -->
      <g style="fill:#262626;" transform="translate(710.537928 547.315194)scale(0.11 -0.11)">
       <use xlink:href="#ArialMT-32"/>
       <use x="55.615234" xlink:href="#ArialMT-30"/>
       <use x="111.230469" xlink:href="#ArialMT-30"/>
      </g>
     </g>
    </g>
   </g>
   <g id="matplotlib.axis_2">
    <g id="ytick_1">
     <g id="text_10">
      <!-- −25 -->
      <g style="fill:#262626;" transform="translate(77.14125 533.878397)scale(0.11 -0.11)">
       <defs>
        <path d="M 3381 1997 
L 356 1997 
L 356 2522 
L 3381 2522 
L 3381 1997 
z
" id="ArialMT-2212" transform="scale(0.015625)"/>
       </defs>
       <use xlink:href="#ArialMT-2212"/>
       <use x="58.398438" xlink:href="#ArialMT-32"/>
       <use x="114.013672" xlink:href="#ArialMT-35"/>
      </g>
     </g>
    </g>
    <g id="ytick_2">
     <g id="text_11">
      <!-- −20 -->
      <g style="fill:#262626;" transform="translate(77.14125 442.180637)scale(0.11 -0.11)">
       <use xlink:href="#ArialMT-2212"/>
       <use x="58.398438" xlink:href="#ArialMT-32"/>
       <use x="114.013672" xlink:href="#ArialMT-30"/>
      </g>
     </g>
    </g>
    <g id="ytick_3">
     <g id="text_12">
      <!-- −15 -->
      <g style="fill:#262626;" transform="translate(77.14125 350.482877)scale(0.11 -0.11)">
       <use xlink:href="#ArialMT-2212"/>
       <use x="58.398438" xlink:href="#ArialMT-31"/>
       <use x="114.013672" xlink:href="#ArialMT-35"/>
      </g>
     </g>
    </g>
    <g id="ytick_4">
     <g id="text_13">
      <!-- −10 -->
      <g style="fill:#262626;" transform="translate(77.14125 258.785117)scale(0.11 -0.11)">
       <use xlink:href="#ArialMT-2212"/>
       <use x="58.398438" xlink:href="#ArialMT-31"/>
       <use x="114.013672" xlink:href="#ArialMT-30"/>
      </g>
     </g>
    </g>
    <g id="ytick_5">
     <g id="text_14">
      <!-- −5 -->
      <g style="fill:#262626;" transform="translate(83.258281 167.087357)scale(0.11 -0.11)">
       <use xlink:href="#ArialMT-2212"/>
       <use x="58.398438" xlink:href="#ArialMT-35"/>
      </g>
     </g>
    </g>
    <g id="ytick_6">
     <g id="text_15">
      <!-- 0 -->
      <g style="fill:#262626;" transform="translate(89.682969 75.389597)scale(0.11 -0.11)">
       <use xlink:href="#ArialMT-30"/>
      </g>
     </g>
    </g>
   </g>
   <g id="line2d_1">
    <path clip-path="url(#p02bfe4355f)" d="M 134.975455 304.404214 
L 137.899145 303.323335 
L 140.822835 304.787315 
L 146.670215 304.314106 
L 149.593905 306.253743 
L 152.517595 306.155449 
L 155.441285 308.672604 
L 158.364975 309.514186 
L 161.288665 311.421763 
L 164.212356 316.06638 
L 167.136046 318.766375 
L 170.059736 333.54198 
L 172.983426 346.939919 
L 175.907116 355.575202 
L 178.830806 372.639071 
L 181.754496 392.418746 
L 184.678186 383.396516 
L 187.601876 319.243693 
L 190.525567 277.065501 
L 193.449257 71.455316 
L 196.372947 71.817373 
L 199.296637 323.836417 
L 202.220327 335.738562 
L 205.144017 342.007331 
L 208.067707 333.803507 
L 210.991397 378.072222 
L 213.915087 71.457603 
L 216.838777 71.510097 
L 219.762468 291.486235 
L 222.686158 370.302797 
L 228.533538 391.699419 
L 231.457228 392.749831 
L 234.380918 318.62231 
L 237.304608 277.023175 
L 240.228298 71.454029 
L 243.151988 263.190244 
L 246.075678 371.122202 
L 248.999369 353.952553 
L 251.923059 412.432647 
L 254.846749 422.779113 
L 257.770439 308.983453 
L 260.694129 105.064069 
L 263.617819 71.453255 
L 266.541509 71.724054 
L 269.465199 207.147927 
L 272.388889 324.423695 
L 275.312579 361.620082 
L 278.23627 368.518087 
L 281.15996 333.191429 
L 284.08365 260.30998 
L 287.00734 257.767464 
L 289.93103 319.122103 
L 292.85472 295.963612 
L 295.77841 325.557534 
L 298.7021 388.873776 
L 301.62579 343.324394 
L 304.549481 338.042269 
L 307.473171 314.254402 
L 310.396861 360.574882 
L 313.320551 306.194487 
L 316.244241 330.807128 
L 319.167931 379.659016 
L 322.091621 370.598133 
L 325.015311 372.991179 
L 327.939001 450.983632 
L 330.862691 354.602987 
L 333.786382 281.76612 
L 336.710072 331.83872 
L 339.633762 387.899726 
L 342.557452 333.474364 
L 345.481142 330.354452 
L 348.404832 372.938744 
L 351.328522 329.940605 
L 354.252212 355.461779 
L 357.175902 446.959542 
L 360.099592 387.058668 
L 363.023283 371.075224 
L 365.946973 313.326035 
L 368.870663 377.425373 
L 371.794353 357.964365 
L 374.718043 403.250418 
L 377.641733 381.300694 
L 380.565423 417.872374 
L 383.489113 370.435266 
L 386.412803 309.088848 
L 389.336494 380.234891 
L 392.260184 440.836831 
L 395.183874 423.214368 
L 398.107564 329.654452 
L 401.031254 286.613357 
L 403.954944 298.269489 
L 406.878634 235.962906 
L 409.802324 71.698913 
L 412.726014 76.50284 
L 415.649704 264.087549 
L 418.573395 269.433197 
L 421.497085 345.877929 
L 424.420775 436.967423 
L 427.344465 295.287573 
L 430.268155 314.490115 
L 433.191845 344.419441 
L 436.115535 338.373284 
L 439.039225 377.192372 
L 441.962915 392.095672 
L 444.886605 365.58649 
L 447.810296 325.763058 
L 450.733986 129.790674 
L 453.657676 71.455773 
L 456.581366 322.531368 
L 459.505056 338.167515 
L 462.428746 283.429608 
L 465.352436 311.23163 
L 468.276126 279.959897 
L 471.199816 334.937906 
L 474.123506 368.32143 
L 477.047197 361.594406 
L 479.970887 269.874434 
L 482.894577 331.363833 
L 485.818267 294.623602 
L 488.741957 353.07858 
L 491.665647 447.262818 
L 494.589337 393.70083 
L 497.513027 403.101789 
L 500.436717 333.548469 
L 503.360408 111.302786 
L 506.284098 71.496604 
L 509.207788 328.709294 
L 512.131478 417.450587 
L 515.055168 411.524673 
L 517.978858 321.462732 
L 520.902548 384.113009 
L 523.826238 383.718366 
L 526.749928 375.113935 
L 529.673618 448.51349 
L 532.597309 367.706553 
L 535.520999 353.422503 
L 538.444689 344.66402 
L 541.368379 447.893401 
L 544.292069 324.984668 
L 547.215759 340.933779 
L 550.139449 422.223946 
L 553.063139 314.869961 
L 555.986829 254.496405 
L 558.910519 71.460122 
L 561.83421 71.611649 
L 564.7579 188.934897 
L 567.68159 228.33153 
L 570.60528 280.384326 
L 573.52897 335.417201 
L 576.45266 374.001784 
L 579.37635 382.487842 
L 582.30004 362.747694 
L 585.22373 71.829448 
L 588.147421 75.865234 
L 591.071111 347.652302 
L 593.994801 331.841659 
L 596.918491 283.746123 
L 599.842181 348.419762 
L 602.765871 381.318254 
L 605.689561 329.750384 
L 608.613251 388.347189 
L 611.536941 377.929924 
L 614.460631 346.099596 
L 617.384322 327.948848 
L 620.308012 220.789492 
L 623.231702 71.453056 
L 626.155392 189.820737 
L 629.079082 342.963769 
L 632.002772 394.798885 
L 634.926462 322.73831 
L 637.850152 344.923816 
L 640.773842 292.347458 
L 643.697532 256.129827 
L 646.621223 269.168592 
L 649.544913 352.39432 
L 652.468603 335.445273 
L 655.392293 414.340522 
L 658.315983 370.467553 
L 661.239673 402.629979 
L 664.163363 358.877009 
L 667.087053 316.916357 
L 670.010743 71.477874 
L 672.934433 71.56757 
L 675.858124 232.308432 
L 678.781814 73.86759 
L 681.705504 71.468886 
L 684.629194 265.93566 
L 687.552884 298.649318 
L 690.476574 408.82153 
L 693.400264 331.342548 
L 696.323954 354.11981 
L 699.247644 355.543772 
L 702.171335 343.712776 
L 705.095025 323.099145 
L 708.018715 315.084948 
L 710.942405 316.113777 
L 716.789785 314.71159 
L 719.713475 315.394555 
L 722.637165 313.638336 
L 725.560855 314.920682 
L 728.484545 314.496498 
L 728.484545 314.496498 
" style="fill:none;stroke:#4c72b0;stroke-linecap:round;stroke-width:1.5;"/>
   </g>
   <g id="line2d_2">
    <path clip-path="url(#p02bfe4355f)" d="M 134.975455 307.276048 
L 137.899145 307.656018 
L 140.822835 307.173732 
L 143.746525 307.654601 
L 149.593905 309.853176 
L 152.517595 308.572911 
L 155.441285 310.835955 
L 158.364975 309.156796 
L 161.288665 308.582234 
L 164.212356 310.153514 
L 167.136046 311.064898 
L 170.059736 317.437942 
L 172.983426 326.005626 
L 175.907116 338.438189 
L 178.830806 361.374208 
L 181.754496 379.232331 
L 184.678186 376.651233 
L 187.601876 273.07424 
L 190.525567 263.60208 
L 193.449257 71.459473 
L 196.372947 71.787805 
L 199.296637 285.880511 
L 202.220327 310.127139 
L 205.144017 364.747461 
L 208.067707 357.063807 
L 210.991397 383.861399 
L 213.915087 71.572851 
L 216.838777 71.479431 
L 219.762468 288.214336 
L 222.686158 364.126428 
L 225.609848 354.771136 
L 228.533538 359.762316 
L 231.457228 367.56261 
L 234.380918 293.228672 
L 237.304608 289.28752 
L 240.228298 71.459526 
L 246.075678 341.380298 
L 248.999369 374.316883 
L 251.923059 422.611139 
L 254.846749 423.204643 
L 257.770439 284.527278 
L 260.694129 93.164219 
L 263.617819 71.453513 
L 266.541509 71.76656 
L 269.465199 190.988551 
L 272.388889 325.078414 
L 275.312579 368.727232 
L 278.23627 374.651326 
L 281.15996 333.429537 
L 284.08365 262.832854 
L 287.00734 265.432806 
L 289.93103 356.947639 
L 292.85472 322.251949 
L 295.77841 321.830546 
L 298.7021 383.888123 
L 301.62579 344.935937 
L 304.549481 343.140942 
L 307.473171 341.863441 
L 310.396861 378.054802 
L 313.320551 336.810854 
L 316.244241 342.299343 
L 319.167931 395.856783 
L 322.091621 327.395484 
L 325.015311 335.828373 
L 327.939001 445.054255 
L 330.862691 382.424843 
L 333.786382 267.367686 
L 336.710072 369.091827 
L 339.633762 390.034025 
L 342.557452 327.794535 
L 345.481142 298.091896 
L 348.404832 290.721749 
L 351.328522 75.493541 
L 354.252212 310.988152 
L 357.175902 257.163728 
L 360.099592 153.367429 
L 363.023283 152.917211 
L 365.946973 223.873339 
L 368.870663 196.539339 
L 371.794353 219.369919 
L 374.718043 207.841823 
L 377.641733 215.366581 
L 380.565423 286.018874 
L 383.489113 221.4886 
L 386.412803 281.018914 
L 389.336494 345.640905 
L 392.260184 440.415393 
L 395.183874 427.460056 
L 398.107564 287.203801 
L 401.031254 239.355854 
L 403.954944 302.252197 
L 406.878634 191.727606 
L 409.802324 74.152592 
L 412.726014 88.463409 
L 415.649704 233.826665 
L 418.573395 229.033454 
L 421.497085 322.614708 
L 424.420775 352.809444 
L 427.344465 181.027004 
L 430.268155 235.097136 
L 433.191845 283.946086 
L 436.115535 320.300402 
L 439.039225 391.687106 
L 441.962915 366.74408 
L 444.886605 296.130397 
L 447.810296 294.185845 
L 450.733986 200.255824 
L 453.657676 71.455554 
L 456.581366 302.857437 
L 459.505056 328.457404 
L 462.428746 262.940784 
L 465.352436 298.044953 
L 468.276126 274.259814 
L 471.199816 330.098574 
L 474.123506 343.10493 
L 477.047197 359.864195 
L 479.970887 244.945872 
L 482.894577 309.651482 
L 485.818267 295.735054 
L 488.741957 348.104103 
L 491.665647 441.608104 
L 494.589337 365.853981 
L 497.513027 398.516166 
L 500.436717 321.92242 
L 503.360408 83.531189 
L 506.284098 71.476451 
L 509.207788 316.938726 
L 512.131478 408.97866 
L 515.055168 427.311356 
L 517.978858 323.417987 
L 520.902548 402.031228 
L 523.826238 399.735741 
L 526.749928 376.111283 
L 529.673618 442.614266 
L 532.597309 369.383595 
L 535.520999 328.102725 
L 538.444689 304.146115 
L 541.368379 374.311601 
L 544.292069 311.541727 
L 547.215759 322.153165 
L 550.139449 384.597901 
L 553.063139 339.930503 
L 555.986829 212.977103 
L 558.910519 133.539236 
L 561.83421 142.338343 
L 567.68159 330.858478 
L 570.60528 299.971647 
L 573.52897 207.559789 
L 576.45266 194.186126 
L 579.37635 244.523297 
L 582.30004 271.106007 
L 585.22373 71.977042 
L 588.147421 71.949875 
L 591.071111 302.931245 
L 593.994801 323.925895 
L 596.918491 246.803586 
L 599.842181 350.270724 
L 602.765871 351.291089 
L 605.689561 288.896619 
L 608.613251 410.406995 
L 611.536941 369.047193 
L 614.460631 332.871363 
L 617.384322 312.485678 
L 620.308012 179.685096 
L 623.231702 71.460409 
L 626.155392 238.271056 
L 629.079082 336.354488 
L 632.002772 391.773122 
L 634.926462 321.11246 
L 637.850152 323.206603 
L 640.773842 310.89278 
L 643.697532 234.981877 
L 646.621223 250.990944 
L 649.544913 345.18718 
L 652.468603 309.874812 
L 655.392293 401.908729 
L 658.315983 351.644193 
L 661.239673 409.908811 
L 664.163363 332.081971 
L 667.087053 288.53386 
L 670.010743 71.456822 
L 672.934433 71.632336 
L 675.858124 231.163067 
L 678.781814 71.853634 
L 681.705504 71.492599 
L 684.629194 260.694689 
L 687.552884 277.099134 
L 690.476574 394.580226 
L 693.400264 342.781331 
L 696.323954 358.629106 
L 699.247644 346.697561 
L 702.171335 327.165561 
L 705.095025 309.37584 
L 708.018715 302.375746 
L 710.942405 302.60476 
L 713.866095 299.53041 
L 716.789785 302.690933 
L 719.713475 302.921905 
L 722.637165 298.761306 
L 725.560855 301.162066 
L 728.484545 295.331001 
L 728.484545 295.331001 
" style="fill:none;stroke:#dd8452;stroke-dasharray:6,2.25;stroke-dashoffset:0;stroke-width:1.5;"/>
   </g>
   <g id="line2d_3">
    <path clip-path="url(#p02bfe4355f)" d="M 134.975455 294.414981 
L 137.899145 295.718193 
L 140.822835 295.600171 
L 143.746525 293.978222 
L 146.670215 300.945278 
L 152.517595 302.134 
L 155.441285 322.169099 
L 158.364975 320.467938 
L 161.288665 313.05697 
L 164.212356 315.741329 
L 167.136046 311.551959 
L 170.059736 310.124603 
L 172.983426 324.408443 
L 175.907116 332.338951 
L 178.830806 347.488824 
L 181.754496 375.994695 
L 184.678186 359.695347 
L 187.601876 311.581377 
L 190.525567 299.990781 
L 193.449257 236.434383 
L 196.372947 231.932555 
L 199.296637 318.481376 
L 202.220327 299.415676 
L 205.144017 330.845291 
L 208.067707 80.300575 
L 210.991397 199.936213 
L 213.915087 169.551999 
L 216.838777 218.947572 
L 219.762468 321.23552 
L 222.686158 312.144099 
L 225.609848 292.922965 
L 228.533538 329.654994 
L 231.457228 335.237352 
L 237.304608 206.143128 
L 240.228298 71.454614 
L 243.151988 254.7484 
L 246.075678 313.840345 
L 248.999369 387.12471 
L 251.923059 352.879037 
L 254.846749 383.707592 
L 257.770439 291.104797 
L 260.694129 74.258315 
L 263.617819 71.454304 
L 269.465199 194.851025 
L 272.388889 215.45055 
L 275.312579 248.85612 
L 278.23627 227.172855 
L 281.15996 176.505045 
L 284.08365 148.414132 
L 287.00734 161.783982 
L 289.93103 219.139332 
L 292.85472 215.511031 
L 295.77841 263.244375 
L 298.7021 343.054437 
L 301.62579 358.924844 
L 304.549481 340.477799 
L 307.473171 345.903481 
L 310.396861 385.697145 
L 313.320551 326.727612 
L 316.244241 333.041557 
L 319.167931 402.517659 
L 322.091621 340.659484 
L 325.015311 361.058636 
L 327.939001 470.195023 
L 330.862691 446.16151 
L 333.786382 286.647183 
L 336.710072 392.330317 
L 339.633762 403.468028 
L 342.557452 357.389977 
L 345.481142 327.974349 
L 348.404832 253.674989 
L 351.328522 72.047355 
L 354.252212 330.388663 
L 357.175902 227.28236 
L 360.099592 143.073083 
L 363.023283 208.716951 
L 365.946973 166.962261 
L 368.870663 233.824514 
L 371.794353 194.205794 
L 374.718043 305.920087 
L 377.641733 294.581346 
L 380.565423 292.355381 
L 383.489113 288.138954 
L 386.412803 298.015867 
L 389.336494 374.03491 
L 392.260184 460.450212 
L 395.183874 444.466803 
L 398.107564 308.506502 
L 401.031254 285.952377 
L 403.954944 290.014385 
L 406.878634 146.461973 
L 409.802324 71.75391 
L 412.726014 73.273883 
L 418.573395 189.869971 
L 421.497085 191.665543 
L 424.420775 154.621878 
L 427.344465 130.708617 
L 430.268155 121.910446 
L 433.191845 150.13866 
L 436.115535 206.589227 
L 439.039225 346.802938 
L 441.962915 320.671853 
L 444.886605 235.879444 
L 447.810296 336.253309 
L 450.733986 164.547737 
L 453.657676 71.493079 
L 456.581366 333.657816 
L 459.505056 360.702051 
L 462.428746 272.645771 
L 465.352436 274.505268 
L 468.276126 277.780473 
L 471.199816 296.354408 
L 474.123506 305.41746 
L 477.047197 276.280412 
L 479.970887 297.674008 
L 482.894577 309.065201 
L 485.818267 323.507203 
L 488.741957 279.497935 
L 491.665647 324.012401 
L 494.589337 264.356632 
L 497.513027 257.776402 
L 500.436717 224.6203 
L 503.360408 216.400684 
L 506.284098 265.495735 
L 509.207788 323.614347 
L 515.055168 263.260361 
L 517.978858 267.414366 
L 520.902548 364.863105 
L 523.826238 368.431092 
L 526.749928 420.177201 
L 529.673618 431.73726 
L 532.597309 375.723251 
L 535.520999 389.645433 
L 538.444689 295.993695 
L 541.368379 311.032332 
L 544.292069 269.676185 
L 547.215759 305.717308 
L 550.139449 298.669047 
L 553.063139 203.673634 
L 555.986829 149.024331 
L 561.83421 170.947523 
L 564.7579 171.000649 
L 567.68159 105.748639 
L 570.60528 158.362447 
L 573.52897 344.095842 
L 576.45266 276.283105 
L 579.37635 296.561192 
L 582.30004 363.967671 
L 585.22373 71.678666 
L 588.147421 73.345144 
L 591.071111 363.77941 
L 593.994801 356.164788 
L 596.918491 275.333803 
L 599.842181 380.578009 
L 602.765871 406.311791 
L 605.689561 321.982831 
L 608.613251 387.570075 
L 611.536941 352.463091 
L 614.460631 365.107754 
L 617.384322 340.754805 
L 620.308012 135.137399 
L 623.231702 71.460168 
L 626.155392 293.107537 
L 629.079082 351.855192 
L 632.002772 382.750506 
L 634.926462 349.978345 
L 637.850152 310.326035 
L 640.773842 263.106799 
L 643.697532 295.563722 
L 646.621223 273.377463 
L 649.544913 384.874102 
L 652.468603 367.652858 
L 655.392293 411.728886 
L 658.315983 363.031014 
L 661.239673 391.039348 
L 664.163363 327.91936 
L 667.087053 293.384788 
L 670.010743 71.462019 
L 672.934433 81.842585 
L 675.858124 243.46442 
L 678.781814 71.853662 
L 681.705504 71.478152 
L 684.629194 283.489091 
L 687.552884 293.964283 
L 690.476574 400.506069 
L 693.400264 347.597017 
L 696.323954 375.797583 
L 699.247644 356.972492 
L 702.171335 336.485978 
L 705.095025 310.848548 
L 708.018715 307.149369 
L 710.942405 311.541937 
L 713.866095 307.083554 
L 716.789785 309.761424 
L 719.713475 309.029714 
L 722.637165 307.719821 
L 725.560855 312.265881 
L 728.484545 309.251452 
L 728.484545 309.251452 
" style="fill:none;stroke:#55a868;stroke-dasharray:1.5,1.5;stroke-dashoffset:0;stroke-width:1.5;"/>
   </g>
   <g id="line2d_4">
    <path clip-path="url(#p02bfe4355f)" d="M 134.975455 307.003135 
L 137.899145 307.28544 
L 140.822835 307.097511 
L 143.746525 307.390345 
L 149.593905 309.765744 
L 152.517595 308.63257 
L 155.441285 311.08725 
L 158.364975 309.393558 
L 161.288665 308.962133 
L 164.212356 310.618152 
L 167.136046 311.660152 
L 170.059736 318.292537 
L 172.983426 326.711784 
L 175.907116 339.179501 
L 178.830806 362.24568 
L 181.754496 380.794639 
L 184.678186 377.454966 
L 187.601876 272.12018 
L 190.525567 263.081176 
L 193.449257 71.458166 
L 196.372947 71.816473 
L 199.296637 289.860613 
L 202.220327 313.527135 
L 205.144017 362.105043 
L 208.067707 359.020619 
L 210.991397 371.100444 
L 213.915087 71.490297 
L 216.838777 71.499805 
L 219.762468 293.632586 
L 222.686158 365.681145 
L 225.609848 354.04964 
L 228.533538 360.297613 
L 231.457228 369.526488 
L 234.380918 293.956132 
L 237.304608 288.806371 
L 240.228298 71.457264 
L 243.151988 213.333636 
L 246.075678 345.387545 
L 248.999369 371.977951 
L 251.923059 422.26963 
L 254.846749 422.056288 
L 257.770439 282.877152 
L 260.694129 90.88742 
L 263.617819 71.453447 
L 266.541509 71.884696 
L 269.465199 196.329626 
L 272.388889 326.118489 
L 275.312579 373.544456 
L 278.23627 375.953104 
L 281.15996 323.709405 
L 284.08365 263.036594 
L 287.00734 275.576931 
L 289.93103 357.587334 
L 292.85472 314.197892 
L 295.77841 324.277094 
L 298.7021 384.367593 
L 301.62579 345.615072 
L 304.549481 341.985975 
L 307.473171 339.217525 
L 310.396861 375.628735 
L 313.320551 334.991303 
L 316.244241 349.384805 
L 319.167931 399.750852 
L 322.091621 375.212544 
L 325.015311 345.268928 
L 327.939001 445.432109 
L 330.862691 394.023415 
L 333.786382 269.010115 
L 336.710072 384.437763 
L 339.633762 419.865355 
L 342.557452 350.43506 
L 345.481142 312.887492 
L 348.404832 268.590426 
L 351.328522 316.378173 
L 354.252212 270.039399 
L 357.175902 296.656792 
L 360.099592 242.489145 
L 363.023283 341.813244 
L 365.946973 277.974332 
L 368.870663 245.478144 
L 371.794353 261.843062 
L 374.718043 261.610795 
L 377.641733 228.484794 
L 380.565423 315.308417 
L 383.489113 237.696791 
L 386.412803 286.932532 
L 389.336494 351.825389 
L 392.260184 443.354406 
L 395.183874 426.550718 
L 398.107564 285.943719 
L 401.031254 239.235488 
L 403.954944 300.188172 
L 406.878634 195.202214 
L 409.802324 73.357559 
L 412.726014 85.625182 
L 415.649704 237.960067 
L 418.573395 230.025327 
L 421.497085 329.141244 
L 424.420775 360.875814 
L 427.344465 188.783583 
L 430.268155 238.319084 
L 433.191845 283.227056 
L 436.115535 319.17473 
L 439.039225 390.439827 
L 441.962915 368.191129 
L 444.886605 293.987614 
L 447.810296 292.759154 
L 450.733986 190.691038 
L 453.657676 71.454206 
L 456.581366 317.579366 
L 459.505056 330.784478 
L 462.428746 262.730485 
L 465.352436 308.405637 
L 468.276126 272.963791 
L 471.199816 324.406939 
L 474.123506 351.255479 
L 477.047197 369.912911 
L 479.970887 252.176834 
L 482.894577 312.742063 
L 485.818267 296.389703 
L 488.741957 348.908309 
L 491.665647 443.415096 
L 494.589337 369.106449 
L 497.513027 400.458601 
L 500.436717 320.837956 
L 503.360408 84.788719 
L 506.284098 71.475313 
L 509.207788 316.739866 
L 512.131478 411.744522 
L 515.055168 428.582281 
L 517.978858 323.961662 
L 520.902548 402.398622 
L 523.826238 398.994237 
L 526.749928 375.175605 
L 529.673618 442.696504 
L 532.597309 370.835576 
L 535.520999 327.67632 
L 538.444689 307.283254 
L 541.368379 379.724813 
L 544.292069 313.542421 
L 547.215759 324.718733 
L 550.139449 387.118589 
L 553.063139 341.015213 
L 555.986829 215.696599 
L 558.910519 131.2814 
L 561.83421 140.02098 
L 567.68159 331.109721 
L 570.60528 303.954163 
L 573.52897 170.770052 
L 576.45266 307.669048 
L 579.37635 288.58187 
L 582.30004 324.575035 
L 585.22373 71.455552 
L 588.147421 89.958572 
L 591.071111 311.254017 
L 593.994801 342.747296 
L 596.918491 294.541609 
L 599.842181 348.922248 
L 602.765871 361.8322 
L 605.689561 299.657719 
L 608.613251 399.386117 
L 611.536941 359.939384 
L 614.460631 335.12274 
L 617.384322 316.013228 
L 620.308012 181.04954 
L 623.231702 71.457952 
L 626.155392 231.73679 
L 629.079082 337.368451 
L 632.002772 397.053096 
L 634.926462 324.785999 
L 637.850152 323.494803 
L 640.773842 309.006138 
L 643.697532 230.785896 
L 646.621223 255.963287 
L 649.544913 337.60969 
L 652.468603 306.640813 
L 655.392293 402.051901 
L 658.315983 350.819052 
L 661.239673 407.622209 
L 664.163363 331.912563 
L 667.087053 288.679149 
L 670.010743 71.456588 
L 672.934433 71.635549 
L 675.858124 229.479711 
L 678.781814 71.867938 
L 681.705504 71.502217 
L 684.629194 262.702973 
L 687.552884 275.516992 
L 690.476574 391.174266 
L 693.400264 340.685212 
L 696.323954 358.432204 
L 699.247644 348.734179 
L 702.171335 326.444607 
L 705.095025 309.345985 
L 708.018715 303.465144 
L 710.942405 304.744062 
L 713.866095 302.058111 
L 716.789785 304.683599 
L 719.713475 304.638283 
L 722.637165 301.674277 
L 725.560855 303.767807 
L 728.484545 299.4045 
L 728.484545 299.4045 
" style="fill:none;stroke:#c44e52;stroke-dasharray:4.5,1.875,2.25,1.875;stroke-dashoffset:0;stroke-width:1.5;"/>
   </g>
   <g id="line2d_5">
    <path clip-path="url(#p02bfe4355f)" d="M 134.975455 307.762304 
L 137.899145 308.205955 
L 140.822835 307.809894 
L 143.746525 308.354584 
L 146.670215 309.238439 
L 149.593905 311.135155 
L 152.517595 310.095185 
L 155.441285 312.777568 
L 158.364975 311.041182 
L 161.288665 310.651628 
L 164.212356 311.875593 
L 167.136046 312.472298 
L 170.059736 319.488395 
L 172.983426 326.999249 
L 175.907116 338.059864 
L 181.754496 383.052593 
L 184.678186 372.40572 
L 187.601876 306.178326 
L 190.525567 275.331476 
L 193.449257 71.45705 
L 196.372947 71.763613 
L 199.296637 307.028723 
L 202.220327 324.798889 
L 205.144017 352.524008 
L 208.067707 350.916034 
L 210.991397 386.104486 
L 213.915087 71.518743 
L 216.838777 71.479263 
L 219.762468 281.913403 
L 222.686158 370.172952 
L 225.609848 370.046779 
L 228.533538 377.720534 
L 231.457228 379.010943 
L 234.380918 297.480866 
L 237.304608 298.328605 
L 240.228298 71.456527 
L 243.151988 213.255526 
L 246.075678 348.339588 
L 248.999369 367.828807 
L 251.923059 424.748587 
L 254.846749 430.19636 
L 257.770439 302.347762 
L 260.694129 91.461301 
L 263.617819 71.453602 
L 266.541509 71.902392 
L 272.388889 331.032503 
L 275.312579 375.692783 
L 278.23627 388.834984 
L 281.15996 355.214961 
L 284.08365 280.072392 
L 287.00734 277.770854 
L 289.93103 358.924477 
L 292.85472 321.446886 
L 295.77841 324.876405 
L 298.7021 378.485335 
L 301.62579 336.518579 
L 304.549481 336.28208 
L 307.473171 326.49636 
L 310.396861 371.710424 
L 313.320551 325.81733 
L 316.244241 329.305842 
L 319.167931 400.776743 
L 322.091621 381.51659 
L 325.015311 354.441625 
L 327.939001 440.210166 
L 330.862691 368.848227 
L 333.786382 290.075582 
L 336.710072 349.052846 
L 339.633762 397.10672 
L 342.557452 350.597577 
L 345.481142 325.991372 
L 348.404832 342.630655 
L 351.328522 336.218941 
L 354.252212 365.598733 
L 357.175902 461.939587 
L 360.099592 417.396962 
L 363.023283 416.505394 
L 365.946973 322.73329 
L 368.870663 337.614955 
L 371.794353 288.06812 
L 374.718043 296.965857 
L 377.641733 327.34102 
L 380.565423 375.406892 
L 383.489113 340.825814 
L 386.412803 309.422101 
L 392.260184 448.345306 
L 395.183874 430.754185 
L 398.107564 283.606641 
L 401.031254 276.706729 
L 403.954944 306.733807 
L 406.878634 203.015285 
L 409.802324 71.905495 
L 412.726014 81.907932 
L 415.649704 272.644721 
L 418.573395 223.416571 
L 421.497085 337.832932 
L 424.420775 376.255435 
L 427.344465 214.440418 
L 430.268155 246.253824 
L 433.191845 283.170144 
L 436.115535 311.453893 
L 439.039225 390.581636 
L 441.962915 378.408239 
L 444.886605 298.584395 
L 447.810296 303.389237 
L 450.733986 202.859056 
L 453.657676 71.454507 
L 456.581366 315.301281 
L 459.505056 308.591643 
L 462.428746 255.160673 
L 465.352436 298.657311 
L 468.276126 273.052657 
L 471.199816 332.276144 
L 474.123506 359.765096 
L 477.047197 370.789858 
L 479.970887 260.631865 
L 482.894577 319.917144 
L 485.818267 303.414195 
L 488.741957 353.137888 
L 491.665647 456.583567 
L 494.589337 372.729669 
L 497.513027 402.80264 
L 500.436717 315.826925 
L 503.360408 94.509339 
L 506.284098 71.470242 
L 509.207788 330.648494 
L 512.131478 419.824849 
L 515.055168 415.390724 
L 517.978858 316.471622 
L 520.902548 394.141053 
L 523.826238 386.074823 
L 526.749928 358.819047 
L 529.673618 439.113336 
L 532.597309 354.747769 
L 535.520999 324.605135 
L 538.444689 298.205703 
L 541.368379 385.968414 
L 544.292069 305.411514 
L 547.215759 310.078727 
L 550.139449 386.053136 
L 553.063139 198.901349 
L 555.986829 152.725766 
L 558.910519 79.29903 
L 561.83421 101.905833 
L 564.7579 147.696834 
L 567.68159 183.00615 
L 570.60528 276.128057 
L 573.52897 295.511619 
L 576.45266 391.369629 
L 579.37635 322.182531 
L 582.30004 327.806008 
L 585.22373 71.494529 
L 588.147421 128.244369 
L 591.071111 326.201269 
L 593.994801 325.331581 
L 596.918491 285.535206 
L 599.842181 332.672204 
L 602.765871 368.104974 
L 605.689561 298.402045 
L 608.613251 391.085906 
L 611.536941 369.048627 
L 614.460631 349.152941 
L 617.384322 325.04562 
L 620.308012 188.033237 
L 623.231702 71.454866 
L 626.155392 221.387509 
L 629.079082 332.500978 
L 632.002772 391.804464 
L 634.926462 320.134055 
L 637.850152 314.198592 
L 640.773842 296.792322 
L 643.697532 215.573382 
L 646.621223 231.528397 
L 649.544913 315.493653 
L 652.468603 281.843198 
L 655.392293 370.478082 
L 658.315983 341.103957 
L 661.239673 382.376046 
L 664.163363 333.370579 
L 667.087053 300.320834 
L 670.010743 71.457063 
L 672.934433 71.508199 
L 675.858124 229.434831 
L 678.781814 73.295654 
L 681.705504 71.467606 
L 684.629194 258.172059 
L 687.552884 267.871134 
L 690.476574 352.221432 
L 693.400264 309.641653 
L 696.323954 333.088273 
L 699.247644 338.866099 
L 702.171335 317.725407 
L 705.095025 308.641962 
L 708.018715 306.743514 
L 710.942405 308.659609 
L 713.866095 307.202783 
L 716.789785 306.805254 
L 719.713475 307.064088 
L 722.637165 304.975034 
L 725.560855 306.920075 
L 728.484545 304.382824 
L 728.484545 304.382824 
" style="fill:none;stroke:#8172b3;stroke-dasharray:7.5,1.5,1.5,1.5;stroke-dashoffset:0;stroke-width:1.5;"/>
   </g>
   <g id="line2d_6"/>
   <g id="line2d_7"/>
   <g id="line2d_8"/>
   <g id="line2d_9"/>
   <g id="line2d_10"/>
   <g id="patch_3">
    <path d="M 105.3 529.9416 
L 105.3 71.4528 
" style="fill:none;stroke:#262626;stroke-linecap:square;stroke-linejoin:miter;stroke-width:1.25;"/>
   </g>
   <g id="patch_4">
    <path d="M 758.16 529.9416 
L 758.16 71.4528 
" style="fill:none;stroke:#262626;stroke-linecap:square;stroke-linejoin:miter;stroke-width:1.25;"/>
   </g>
   <g id="patch_5">
    <path d="M 105.3 529.9416 
L 758.16 529.9416 
" style="fill:none;stroke:#262626;stroke-linecap:square;stroke-linejoin:miter;stroke-width:1.25;"/>
   </g>
   <g id="patch_6">
    <path d="M 105.3 71.4528 
L 758.16 71.4528 
" style="fill:none;stroke:#262626;stroke-linecap:square;stroke-linejoin:miter;stroke-width:1.25;"/>
   </g>
   <g id="text_16">
    <!-- Activations for &gt;E&lt; -->
    <g style="fill:#262626;" transform="translate(381.372187 65.4528)scale(0.12 -0.12)">
     <defs>
      <path d="M -9 0 
L 1750 4581 
L 2403 4581 
L 4278 0 
L 3588 0 
L 3053 1388 
L 1138 1388 
L 634 0 
L -9 0 
z
M 1313 1881 
L 2866 1881 
L 2388 3150 
Q 2169 3728 2063 4100 
Q 1975 3659 1816 3225 
L 1313 1881 
z
" id="ArialMT-41" transform="scale(0.015625)"/>
      <path d="M 2588 1216 
L 3141 1144 
Q 3050 572 2676 248 
Q 2303 -75 1759 -75 
Q 1078 -75 664 370 
Q 250 816 250 1647 
Q 250 2184 428 2587 
Q 606 2991 970 3192 
Q 1334 3394 1763 3394 
Q 2303 3394 2647 3120 
Q 2991 2847 3088 2344 
L 2541 2259 
Q 2463 2594 2264 2762 
Q 2066 2931 1784 2931 
Q 1359 2931 1093 2626 
Q 828 2322 828 1663 
Q 828 994 1084 691 
Q 1341 388 1753 388 
Q 2084 388 2306 591 
Q 2528 794 2588 1216 
z
" id="ArialMT-63" transform="scale(0.015625)"/>
      <path d="M 1650 503 
L 1731 6 
Q 1494 -44 1306 -44 
Q 1000 -44 831 53 
Q 663 150 594 308 
Q 525 466 525 972 
L 525 2881 
L 113 2881 
L 113 3319 
L 525 3319 
L 525 4141 
L 1084 4478 
L 1084 3319 
L 1650 3319 
L 1650 2881 
L 1084 2881 
L 1084 941 
Q 1084 700 1114 631 
Q 1144 563 1211 522 
Q 1278 481 1403 481 
Q 1497 481 1650 503 
z
" id="ArialMT-74" transform="scale(0.015625)"/>
      <path d="M 425 3934 
L 425 4581 
L 988 4581 
L 988 3934 
L 425 3934 
z
M 425 0 
L 425 3319 
L 988 3319 
L 988 0 
L 425 0 
z
" id="ArialMT-69" transform="scale(0.015625)"/>
      <path d="M 1344 0 
L 81 3319 
L 675 3319 
L 1388 1331 
Q 1503 1009 1600 663 
Q 1675 925 1809 1294 
L 2547 3319 
L 3125 3319 
L 1869 0 
L 1344 0 
z
" id="ArialMT-76" transform="scale(0.015625)"/>
      <path d="M 2588 409 
Q 2275 144 1986 34 
Q 1697 -75 1366 -75 
Q 819 -75 525 192 
Q 231 459 231 875 
Q 231 1119 342 1320 
Q 453 1522 633 1644 
Q 813 1766 1038 1828 
Q 1203 1872 1538 1913 
Q 2219 1994 2541 2106 
Q 2544 2222 2544 2253 
Q 2544 2597 2384 2738 
Q 2169 2928 1744 2928 
Q 1347 2928 1158 2789 
Q 969 2650 878 2297 
L 328 2372 
Q 403 2725 575 2942 
Q 747 3159 1072 3276 
Q 1397 3394 1825 3394 
Q 2250 3394 2515 3294 
Q 2781 3194 2906 3042 
Q 3031 2891 3081 2659 
Q 3109 2516 3109 2141 
L 3109 1391 
Q 3109 606 3145 398 
Q 3181 191 3288 0 
L 2700 0 
Q 2613 175 2588 409 
z
M 2541 1666 
Q 2234 1541 1622 1453 
Q 1275 1403 1131 1340 
Q 988 1278 909 1158 
Q 831 1038 831 891 
Q 831 666 1001 516 
Q 1172 366 1500 366 
Q 1825 366 2078 508 
Q 2331 650 2450 897 
Q 2541 1088 2541 1459 
L 2541 1666 
z
" id="ArialMT-61" transform="scale(0.015625)"/>
      <path d="M 213 1659 
Q 213 2581 725 3025 
Q 1153 3394 1769 3394 
Q 2453 3394 2887 2945 
Q 3322 2497 3322 1706 
Q 3322 1066 3130 698 
Q 2938 331 2570 128 
Q 2203 -75 1769 -75 
Q 1072 -75 642 372 
Q 213 819 213 1659 
z
M 791 1659 
Q 791 1022 1069 705 
Q 1347 388 1769 388 
Q 2188 388 2466 706 
Q 2744 1025 2744 1678 
Q 2744 2294 2464 2611 
Q 2184 2928 1769 2928 
Q 1347 2928 1069 2612 
Q 791 2297 791 1659 
z
" id="ArialMT-6f" transform="scale(0.015625)"/>
      <path d="M 422 0 
L 422 3319 
L 928 3319 
L 928 2847 
Q 1294 3394 1984 3394 
Q 2284 3394 2536 3286 
Q 2788 3178 2913 3003 
Q 3038 2828 3088 2588 
Q 3119 2431 3119 2041 
L 3119 0 
L 2556 0 
L 2556 2019 
Q 2556 2363 2490 2533 
Q 2425 2703 2258 2804 
Q 2091 2906 1866 2906 
Q 1506 2906 1245 2678 
Q 984 2450 984 1813 
L 984 0 
L 422 0 
z
" id="ArialMT-6e" transform="scale(0.015625)"/>
      <path d="M 197 991 
L 753 1078 
Q 800 744 1014 566 
Q 1228 388 1613 388 
Q 2000 388 2187 545 
Q 2375 703 2375 916 
Q 2375 1106 2209 1216 
Q 2094 1291 1634 1406 
Q 1016 1563 777 1677 
Q 538 1791 414 1992 
Q 291 2194 291 2438 
Q 291 2659 392 2848 
Q 494 3038 669 3163 
Q 800 3259 1026 3326 
Q 1253 3394 1513 3394 
Q 1903 3394 2198 3281 
Q 2494 3169 2634 2976 
Q 2775 2784 2828 2463 
L 2278 2388 
Q 2241 2644 2061 2787 
Q 1881 2931 1553 2931 
Q 1166 2931 1000 2803 
Q 834 2675 834 2503 
Q 834 2394 903 2306 
Q 972 2216 1119 2156 
Q 1203 2125 1616 2013 
Q 2213 1853 2448 1751 
Q 2684 1650 2818 1456 
Q 2953 1263 2953 975 
Q 2953 694 2789 445 
Q 2625 197 2315 61 
Q 2006 -75 1616 -75 
Q 969 -75 630 194 
Q 291 463 197 991 
z
" id="ArialMT-73" transform="scale(0.015625)"/>
      <path id="ArialMT-20" transform="scale(0.015625)"/>
      <path d="M 556 0 
L 556 2881 
L 59 2881 
L 59 3319 
L 556 3319 
L 556 3672 
Q 556 4006 616 4169 
Q 697 4388 901 4523 
Q 1106 4659 1475 4659 
Q 1713 4659 2000 4603 
L 1916 4113 
Q 1741 4144 1584 4144 
Q 1328 4144 1222 4034 
Q 1116 3925 1116 3625 
L 1116 3319 
L 1763 3319 
L 1763 2881 
L 1116 2881 
L 1116 0 
L 556 0 
z
" id="ArialMT-66" transform="scale(0.015625)"/>
      <path d="M 416 0 
L 416 3319 
L 922 3319 
L 922 2816 
Q 1116 3169 1280 3281 
Q 1444 3394 1641 3394 
Q 1925 3394 2219 3213 
L 2025 2691 
Q 1819 2813 1613 2813 
Q 1428 2813 1281 2702 
Q 1134 2591 1072 2394 
Q 978 2094 978 1738 
L 978 0 
L 416 0 
z
" id="ArialMT-72" transform="scale(0.015625)"/>
      <path d="M 3384 2003 
L 350 706 
L 350 1266 
L 2753 2263 
L 350 3250 
L 350 3809 
L 3384 2528 
L 3384 2003 
z
" id="ArialMT-3e" transform="scale(0.015625)"/>
      <path d="M 506 0 
L 506 4581 
L 3819 4581 
L 3819 4041 
L 1113 4041 
L 1113 2638 
L 3647 2638 
L 3647 2100 
L 1113 2100 
L 1113 541 
L 3925 541 
L 3925 0 
L 506 0 
z
" id="ArialMT-45" transform="scale(0.015625)"/>
      <path d="M 350 2003 
L 350 2528 
L 3384 3809 
L 3384 3250 
L 978 2263 
L 3384 1266 
L 3384 706 
L 350 2003 
z
" id="ArialMT-3c" transform="scale(0.015625)"/>
     </defs>
     <use xlink:href="#ArialMT-41"/>
     <use x="66.699219" xlink:href="#ArialMT-63"/>
     <use x="116.699219" xlink:href="#ArialMT-74"/>
     <use x="144.482422" xlink:href="#ArialMT-69"/>
     <use x="166.699219" xlink:href="#ArialMT-76"/>
     <use x="216.699219" xlink:href="#ArialMT-61"/>
     <use x="272.314453" xlink:href="#ArialMT-74"/>
     <use x="300.097656" xlink:href="#ArialMT-69"/>
     <use x="322.314453" xlink:href="#ArialMT-6f"/>
     <use x="377.929688" xlink:href="#ArialMT-6e"/>
     <use x="433.544922" xlink:href="#ArialMT-73"/>
     <use x="483.544922" xlink:href="#ArialMT-20"/>
     <use x="511.328125" xlink:href="#ArialMT-66"/>
     <use x="539.111328" xlink:href="#ArialMT-6f"/>
     <use x="594.726562" xlink:href="#ArialMT-72"/>
     <use x="628.027344" xlink:href="#ArialMT-20"/>
     <use x="655.810547" xlink:href="#ArialMT-3e"/>
     <use x="714.208984" xlink:href="#ArialMT-45"/>
     <use x="780.908203" xlink:href="#ArialMT-3c"/>
    </g>
   </g>
   <g id="legend_1">
    <g id="patch_7">
     <path d="M 113 524.4416 
L 223.415938 524.4416 
Q 225.615938 524.4416 225.615938 522.2416 
L 225.615938 445.080037 
Q 225.615938 442.880037 223.415938 442.880037 
L 113 442.880037 
Q 110.8 442.880037 110.8 445.080037 
L 110.8 522.2416 
Q 110.8 524.4416 113 524.4416 
z
" style="fill:#ffffff;opacity:0.8;stroke:#cccccc;stroke-linejoin:miter;"/>
    </g>
    <g id="line2d_11">
     <path d="M 115.2 451.303631 
L 137.2 451.303631 
" style="fill:none;stroke:#4c72b0;stroke-linecap:round;stroke-width:1.5;"/>
    </g>
    <g id="line2d_12"/>
    <g id="text_17">
     <!-- regular -->
     <g style="fill:#262626;" transform="translate(146 455.153631)scale(0.11 -0.11)">
      <defs>
       <path d="M 2694 1069 
L 3275 997 
Q 3138 488 2766 206 
Q 2394 -75 1816 -75 
Q 1088 -75 661 373 
Q 234 822 234 1631 
Q 234 2469 665 2931 
Q 1097 3394 1784 3394 
Q 2450 3394 2872 2941 
Q 3294 2488 3294 1666 
Q 3294 1616 3291 1516 
L 816 1516 
Q 847 969 1125 678 
Q 1403 388 1819 388 
Q 2128 388 2347 550 
Q 2566 713 2694 1069 
z
M 847 1978 
L 2700 1978 
Q 2663 2397 2488 2606 
Q 2219 2931 1791 2931 
Q 1403 2931 1139 2672 
Q 875 2413 847 1978 
z
" id="ArialMT-65" transform="scale(0.015625)"/>
       <path d="M 319 -275 
L 866 -356 
Q 900 -609 1056 -725 
Q 1266 -881 1628 -881 
Q 2019 -881 2231 -725 
Q 2444 -569 2519 -288 
Q 2563 -116 2559 434 
Q 2191 0 1641 0 
Q 956 0 581 494 
Q 206 988 206 1678 
Q 206 2153 378 2554 
Q 550 2956 876 3175 
Q 1203 3394 1644 3394 
Q 2231 3394 2613 2919 
L 2613 3319 
L 3131 3319 
L 3131 450 
Q 3131 -325 2973 -648 
Q 2816 -972 2473 -1159 
Q 2131 -1347 1631 -1347 
Q 1038 -1347 672 -1080 
Q 306 -813 319 -275 
z
M 784 1719 
Q 784 1066 1043 766 
Q 1303 466 1694 466 
Q 2081 466 2343 764 
Q 2606 1063 2606 1700 
Q 2606 2309 2336 2618 
Q 2066 2928 1684 2928 
Q 1309 2928 1046 2623 
Q 784 2319 784 1719 
z
" id="ArialMT-67" transform="scale(0.015625)"/>
       <path d="M 2597 0 
L 2597 488 
Q 2209 -75 1544 -75 
Q 1250 -75 995 37 
Q 741 150 617 320 
Q 494 491 444 738 
Q 409 903 409 1263 
L 409 3319 
L 972 3319 
L 972 1478 
Q 972 1038 1006 884 
Q 1059 663 1231 536 
Q 1403 409 1656 409 
Q 1909 409 2131 539 
Q 2353 669 2445 892 
Q 2538 1116 2538 1541 
L 2538 3319 
L 3100 3319 
L 3100 0 
L 2597 0 
z
" id="ArialMT-75" transform="scale(0.015625)"/>
       <path d="M 409 0 
L 409 4581 
L 972 4581 
L 972 0 
L 409 0 
z
" id="ArialMT-6c" transform="scale(0.015625)"/>
      </defs>
      <use xlink:href="#ArialMT-72"/>
      <use x="33.300781" xlink:href="#ArialMT-65"/>
      <use x="88.916016" xlink:href="#ArialMT-67"/>
      <use x="144.53125" xlink:href="#ArialMT-75"/>
      <use x="200.146484" xlink:href="#ArialMT-6c"/>
      <use x="222.363281" xlink:href="#ArialMT-61"/>
      <use x="277.978516" xlink:href="#ArialMT-72"/>
     </g>
    </g>
    <g id="line2d_13">
     <path d="M 115.2 467.025037 
L 137.2 467.025037 
" style="fill:none;stroke:#dd8452;stroke-dasharray:6,2.25;stroke-dashoffset:0;stroke-width:1.5;"/>
    </g>
    <g id="line2d_14"/>
    <g id="text_18">
     <!-- splitted_3s -->
     <g style="fill:#262626;" transform="translate(146 470.875037)scale(0.11 -0.11)">
      <defs>
       <path d="M 422 -1272 
L 422 3319 
L 934 3319 
L 934 2888 
Q 1116 3141 1344 3267 
Q 1572 3394 1897 3394 
Q 2322 3394 2647 3175 
Q 2972 2956 3137 2557 
Q 3303 2159 3303 1684 
Q 3303 1175 3120 767 
Q 2938 359 2589 142 
Q 2241 -75 1856 -75 
Q 1575 -75 1351 44 
Q 1128 163 984 344 
L 984 -1272 
L 422 -1272 
z
M 931 1641 
Q 931 1000 1190 694 
Q 1450 388 1819 388 
Q 2194 388 2461 705 
Q 2728 1022 2728 1688 
Q 2728 2322 2467 2637 
Q 2206 2953 1844 2953 
Q 1484 2953 1207 2617 
Q 931 2281 931 1641 
z
" id="ArialMT-70" transform="scale(0.015625)"/>
       <path d="M 2575 0 
L 2575 419 
Q 2259 -75 1647 -75 
Q 1250 -75 917 144 
Q 584 363 401 755 
Q 219 1147 219 1656 
Q 219 2153 384 2558 
Q 550 2963 881 3178 
Q 1213 3394 1622 3394 
Q 1922 3394 2156 3267 
Q 2391 3141 2538 2938 
L 2538 4581 
L 3097 4581 
L 3097 0 
L 2575 0 
z
M 797 1656 
Q 797 1019 1065 703 
Q 1334 388 1700 388 
Q 2069 388 2326 689 
Q 2584 991 2584 1609 
Q 2584 2291 2321 2609 
Q 2059 2928 1675 2928 
Q 1300 2928 1048 2622 
Q 797 2316 797 1656 
z
" id="ArialMT-64" transform="scale(0.015625)"/>
       <path d="M -97 -1272 
L -97 -866 
L 3631 -866 
L 3631 -1272 
L -97 -1272 
z
" id="ArialMT-5f" transform="scale(0.015625)"/>
       <path d="M 269 1209 
L 831 1284 
Q 928 806 1161 595 
Q 1394 384 1728 384 
Q 2125 384 2398 659 
Q 2672 934 2672 1341 
Q 2672 1728 2419 1979 
Q 2166 2231 1775 2231 
Q 1616 2231 1378 2169 
L 1441 2663 
Q 1497 2656 1531 2656 
Q 1891 2656 2178 2843 
Q 2466 3031 2466 3422 
Q 2466 3731 2256 3934 
Q 2047 4138 1716 4138 
Q 1388 4138 1169 3931 
Q 950 3725 888 3313 
L 325 3413 
Q 428 3978 793 4289 
Q 1159 4600 1703 4600 
Q 2078 4600 2393 4439 
Q 2709 4278 2876 4000 
Q 3044 3722 3044 3409 
Q 3044 3113 2884 2869 
Q 2725 2625 2413 2481 
Q 2819 2388 3044 2092 
Q 3269 1797 3269 1353 
Q 3269 753 2831 336 
Q 2394 -81 1725 -81 
Q 1122 -81 723 278 
Q 325 638 269 1209 
z
" id="ArialMT-33" transform="scale(0.015625)"/>
      </defs>
      <use xlink:href="#ArialMT-73"/>
      <use x="50" xlink:href="#ArialMT-70"/>
      <use x="105.615234" xlink:href="#ArialMT-6c"/>
      <use x="127.832031" xlink:href="#ArialMT-69"/>
      <use x="150.048828" xlink:href="#ArialMT-74"/>
      <use x="177.832031" xlink:href="#ArialMT-74"/>
      <use x="205.615234" xlink:href="#ArialMT-65"/>
      <use x="261.230469" xlink:href="#ArialMT-64"/>
      <use x="316.845703" xlink:href="#ArialMT-5f"/>
      <use x="372.460938" xlink:href="#ArialMT-33"/>
      <use x="428.076172" xlink:href="#ArialMT-73"/>
     </g>
    </g>
    <g id="line2d_15">
     <path d="M 115.2 482.617537 
L 137.2 482.617537 
" style="fill:none;stroke:#55a868;stroke-dasharray:1.5,1.5;stroke-dashoffset:0;stroke-width:1.5;"/>
    </g>
    <g id="line2d_16"/>
    <g id="text_19">
     <!-- splitted_1s -->
     <g style="fill:#262626;" transform="translate(146 486.467537)scale(0.11 -0.11)">
      <use xlink:href="#ArialMT-73"/>
      <use x="50" xlink:href="#ArialMT-70"/>
      <use x="105.615234" xlink:href="#ArialMT-6c"/>
      <use x="127.832031" xlink:href="#ArialMT-69"/>
      <use x="150.048828" xlink:href="#ArialMT-74"/>
      <use x="177.832031" xlink:href="#ArialMT-74"/>
      <use x="205.615234" xlink:href="#ArialMT-65"/>
      <use x="261.230469" xlink:href="#ArialMT-64"/>
      <use x="316.845703" xlink:href="#ArialMT-5f"/>
      <use x="372.460938" xlink:href="#ArialMT-31"/>
      <use x="428.076172" xlink:href="#ArialMT-73"/>
     </g>
    </g>
    <g id="line2d_17">
     <path d="M 115.2 498.311444 
L 137.2 498.311444 
" style="fill:none;stroke:#c44e52;stroke-dasharray:4.5,1.875,2.25,1.875;stroke-dashoffset:0;stroke-width:1.5;"/>
    </g>
    <g id="line2d_18"/>
    <g id="text_20">
     <!-- overlap_1f_3s -->
     <g style="fill:#262626;" transform="translate(146 502.161444)scale(0.11 -0.11)">
      <use xlink:href="#ArialMT-6f"/>
      <use x="55.615234" xlink:href="#ArialMT-76"/>
      <use x="105.615234" xlink:href="#ArialMT-65"/>
      <use x="161.230469" xlink:href="#ArialMT-72"/>
      <use x="194.53125" xlink:href="#ArialMT-6c"/>
      <use x="216.748047" xlink:href="#ArialMT-61"/>
      <use x="272.363281" xlink:href="#ArialMT-70"/>
      <use x="327.978516" xlink:href="#ArialMT-5f"/>
      <use x="383.59375" xlink:href="#ArialMT-31"/>
      <use x="439.208984" xlink:href="#ArialMT-66"/>
      <use x="466.992188" xlink:href="#ArialMT-5f"/>
      <use x="522.607422" xlink:href="#ArialMT-33"/>
      <use x="578.222656" xlink:href="#ArialMT-73"/>
     </g>
    </g>
    <g id="line2d_19">
     <path d="M 115.2 514.00535 
L 137.2 514.00535 
" style="fill:none;stroke:#8172b3;stroke-dasharray:7.5,1.5,1.5,1.5;stroke-dashoffset:0;stroke-width:1.5;"/>
    </g>
    <g id="line2d_20"/>
    <g id="text_21">
     <!-- overlap_10f_3s -->
     <g style="fill:#262626;" transform="translate(146 517.85535)scale(0.11 -0.11)">
      <use xlink:href="#ArialMT-6f"/>
      <use x="55.615234" xlink:href="#ArialMT-76"/>
      <use x="105.615234" xlink:href="#ArialMT-65"/>
      <use x="161.230469" xlink:href="#ArialMT-72"/>
      <use x="194.53125" xlink:href="#ArialMT-6c"/>
      <use x="216.748047" xlink:href="#ArialMT-61"/>
      <use x="272.363281" xlink:href="#ArialMT-70"/>
      <use x="327.978516" xlink:href="#ArialMT-5f"/>
      <use x="383.59375" xlink:href="#ArialMT-31"/>
      <use x="439.208984" xlink:href="#ArialMT-30"/>
      <use x="494.824219" xlink:href="#ArialMT-66"/>
      <use x="522.607422" xlink:href="#ArialMT-5f"/>
      <use x="578.222656" xlink:href="#ArialMT-33"/>
      <use x="633.837891" xlink:href="#ArialMT-73"/>
     </g>
    </g>
   </g>
  </g>
 </g>
 <defs>
  <clipPath id="p02bfe4355f">
   <rect height="458.4888" width="652.86" x="105.3" y="71.4528"/>
  </clipPath>
 </defs>
</svg>
