<?xml version="1.0" encoding="utf-8" standalone="no"?>
<!DOCTYPE svg PUBLIC "-//W3C//DTD SVG 1.1//EN"
  "http://www.w3.org/Graphics/SVG/1.1/DTD/svg11.dtd">
<svg height="595.44pt" version="1.1" viewBox="0 0 842.4 595.44" width="842.4pt" xmlns="http://www.w3.org/2000/svg" xmlns:xlink="http://www.w3.org/1999/xlink">
 <metadata>
  <rdf:RDF xmlns:cc="http://creativecommons.org/ns#" xmlns:dc="http://purl.org/dc/elements/1.1/" xmlns:rdf="http://www.w3.org/1999/02/22-rdf-syntax-ns#">
   <cc:Work>
    <dc:type rdf:resource="http://purl.org/dc/dcmitype/StillImage"/>
    <dc:date>2021-06-01T00:54:09.324526</dc:date>
    <dc:format>image/svg+xml</dc:format>
    <dc:creator>
     <cc:Agent>
      <dc:title>Matplotlib v3.4.1, https://matplotlib.org/</dc:title>
     </cc:Agent>
    </dc:creator>
   </cc:Work>
  </rdf:RDF>
 </metadata>
 <defs>
  <style type="text/css">*{stroke-linecap:butt;stroke-linejoin:round;}</style>
 </defs>
 <g id="figure_1">
  <g id="patch_1">
   <path d="M 0 595.44 
L 842.4 595.44 
L 842.4 0 
L 0 0 
z
" style="fill:#ffffff;"/>
  </g>
  <g id="axes_1">
   <g id="patch_2">
    <path d="M 105.3 529.9416 
L 758.16 529.9416 
L 758.16 71.4528 
L 105.3 71.4528 
z
" style="fill:#ffffff;"/>
   </g>
   <g id="matplotlib.axis_1">
    <g id="xtick_1">
     <g id="text_1">
      <!-- 0 -->
      <g style="fill:#262626;" transform="translate(131.916939 547.315194)scale(0.11 -0.11)">
       <defs>
        <path d="M 266 2259 
Q 266 3072 433 3567 
Q 600 4063 929 4331 
Q 1259 4600 1759 4600 
Q 2128 4600 2406 4451 
Q 2684 4303 2865 4023 
Q 3047 3744 3150 3342 
Q 3253 2941 3253 2259 
Q 3253 1453 3087 958 
Q 2922 463 2592 192 
Q 2263 -78 1759 -78 
Q 1097 -78 719 397 
Q 266 969 266 2259 
z
M 844 2259 
Q 844 1131 1108 757 
Q 1372 384 1759 384 
Q 2147 384 2411 759 
Q 2675 1134 2675 2259 
Q 2675 3391 2411 3762 
Q 2147 4134 1753 4134 
Q 1366 4134 1134 3806 
Q 844 3388 844 2259 
z
" id="ArialMT-30" transform="scale(0.015625)"/>
       </defs>
       <use xlink:href="#ArialMT-30"/>
      </g>
     </g>
    </g>
    <g id="xtick_2">
     <g id="text_2">
      <!-- 25 -->
      <g style="fill:#262626;" transform="translate(201.950676 547.315194)scale(0.11 -0.11)">
       <defs>
        <path d="M 3222 541 
L 3222 0 
L 194 0 
Q 188 203 259 391 
Q 375 700 629 1000 
Q 884 1300 1366 1694 
Q 2113 2306 2375 2664 
Q 2638 3022 2638 3341 
Q 2638 3675 2398 3904 
Q 2159 4134 1775 4134 
Q 1369 4134 1125 3890 
Q 881 3647 878 3216 
L 300 3275 
Q 359 3922 746 4261 
Q 1134 4600 1788 4600 
Q 2447 4600 2831 4234 
Q 3216 3869 3216 3328 
Q 3216 3053 3103 2787 
Q 2991 2522 2730 2228 
Q 2469 1934 1863 1422 
Q 1356 997 1212 845 
Q 1069 694 975 541 
L 3222 541 
z
" id="ArialMT-32" transform="scale(0.015625)"/>
        <path d="M 266 1200 
L 856 1250 
Q 922 819 1161 601 
Q 1400 384 1738 384 
Q 2144 384 2425 690 
Q 2706 997 2706 1503 
Q 2706 1984 2436 2262 
Q 2166 2541 1728 2541 
Q 1456 2541 1237 2417 
Q 1019 2294 894 2097 
L 366 2166 
L 809 4519 
L 3088 4519 
L 3088 3981 
L 1259 3981 
L 1013 2750 
Q 1425 3038 1878 3038 
Q 2478 3038 2890 2622 
Q 3303 2206 3303 1553 
Q 3303 931 2941 478 
Q 2500 -78 1738 -78 
Q 1113 -78 717 272 
Q 322 622 266 1200 
z
" id="ArialMT-35" transform="scale(0.015625)"/>
       </defs>
       <use xlink:href="#ArialMT-32"/>
       <use x="55.615234" xlink:href="#ArialMT-35"/>
      </g>
     </g>
    </g>
    <g id="xtick_3">
     <g id="text_3">
      <!-- 50 -->
      <g style="fill:#262626;" transform="translate(275.042928 547.315194)scale(0.11 -0.11)">
       <use xlink:href="#ArialMT-35"/>
       <use x="55.615234" xlink:href="#ArialMT-30"/>
      </g>
     </g>
    </g>
    <g id="xtick_4">
     <g id="text_4">
      <!-- 75 -->
      <g style="fill:#262626;" transform="translate(348.135181 547.315194)scale(0.11 -0.11)">
       <defs>
        <path d="M 303 3981 
L 303 4522 
L 3269 4522 
L 3269 4084 
Q 2831 3619 2401 2847 
Q 1972 2075 1738 1259 
Q 1569 684 1522 0 
L 944 0 
Q 953 541 1156 1306 
Q 1359 2072 1739 2783 
Q 2119 3494 2547 3981 
L 303 3981 
z
" id="ArialMT-37" transform="scale(0.015625)"/>
       </defs>
       <use xlink:href="#ArialMT-37"/>
       <use x="55.615234" xlink:href="#ArialMT-35"/>
      </g>
     </g>
    </g>
    <g id="xtick_5">
     <g id="text_5">
      <!-- 100 -->
      <g style="fill:#262626;" transform="translate(418.168918 547.315194)scale(0.11 -0.11)">
       <defs>
        <path d="M 2384 0 
L 1822 0 
L 1822 3584 
Q 1619 3391 1289 3197 
Q 959 3003 697 2906 
L 697 3450 
Q 1169 3672 1522 3987 
Q 1875 4303 2022 4600 
L 2384 4600 
L 2384 0 
z
" id="ArialMT-31" transform="scale(0.015625)"/>
       </defs>
       <use xlink:href="#ArialMT-31"/>
       <use x="55.615234" xlink:href="#ArialMT-30"/>
       <use x="111.230469" xlink:href="#ArialMT-30"/>
      </g>
     </g>
    </g>
    <g id="xtick_6">
     <g id="text_6">
      <!-- 125 -->
      <g style="fill:#262626;" transform="translate(491.261171 547.315194)scale(0.11 -0.11)">
       <use xlink:href="#ArialMT-31"/>
       <use x="55.615234" xlink:href="#ArialMT-32"/>
       <use x="111.230469" xlink:href="#ArialMT-35"/>
      </g>
     </g>
    </g>
    <g id="xtick_7">
     <g id="text_7">
      <!-- 150 -->
      <g style="fill:#262626;" transform="translate(564.353423 547.315194)scale(0.11 -0.11)">
       <use xlink:href="#ArialMT-31"/>
       <use x="55.615234" xlink:href="#ArialMT-35"/>
       <use x="111.230469" xlink:href="#ArialMT-30"/>
      </g>
     </g>
    </g>
    <g id="xtick_8">
     <g id="text_8">
      <!-- 175 -->
      <g style="fill:#262626;" transform="translate(637.445676 547.315194)scale(0.11 -0.11)">
       <use xlink:href="#ArialMT-31"/>
       <use x="55.615234" xlink:href="#ArialMT-37"/>
       <use x="111.230469" xlink:href="#ArialMT-35"/>
      </g>
     </g>
    </g>
    <g id="xtick_9">
     <g id="text_9">
      <!-- 200 -->
      <g style="fill:#262626;" transform="translate(710.537928 547.315194)scale(0.11 -0.11)">
       <use xlink:href="#ArialMT-32"/>
       <use x="55.615234" xlink:href="#ArialMT-30"/>
       <use x="111.230469" xlink:href="#ArialMT-30"/>
      </g>
     </g>
    </g>
   </g>
   <g id="matplotlib.axis_2">
    <g id="ytick_1">
     <g id="text_10">
      <!-- −25 -->
      <g style="fill:#262626;" transform="translate(77.14125 533.878397)scale(0.11 -0.11)">
       <defs>
        <path d="M 3381 1997 
L 356 1997 
L 356 2522 
L 3381 2522 
L 3381 1997 
z
" id="ArialMT-2212" transform="scale(0.015625)"/>
       </defs>
       <use xlink:href="#ArialMT-2212"/>
       <use x="58.398438" xlink:href="#ArialMT-32"/>
       <use x="114.013672" xlink:href="#ArialMT-35"/>
      </g>
     </g>
    </g>
    <g id="ytick_2">
     <g id="text_11">
      <!-- −20 -->
      <g style="fill:#262626;" transform="translate(77.14125 442.180637)scale(0.11 -0.11)">
       <use xlink:href="#ArialMT-2212"/>
       <use x="58.398438" xlink:href="#ArialMT-32"/>
       <use x="114.013672" xlink:href="#ArialMT-30"/>
      </g>
     </g>
    </g>
    <g id="ytick_3">
     <g id="text_12">
      <!-- −15 -->
      <g style="fill:#262626;" transform="translate(77.14125 350.482877)scale(0.11 -0.11)">
       <use xlink:href="#ArialMT-2212"/>
       <use x="58.398438" xlink:href="#ArialMT-31"/>
       <use x="114.013672" xlink:href="#ArialMT-35"/>
      </g>
     </g>
    </g>
    <g id="ytick_4">
     <g id="text_13">
      <!-- −10 -->
      <g style="fill:#262626;" transform="translate(77.14125 258.785117)scale(0.11 -0.11)">
       <use xlink:href="#ArialMT-2212"/>
       <use x="58.398438" xlink:href="#ArialMT-31"/>
       <use x="114.013672" xlink:href="#ArialMT-30"/>
      </g>
     </g>
    </g>
    <g id="ytick_5">
     <g id="text_14">
      <!-- −5 -->
      <g style="fill:#262626;" transform="translate(83.258281 167.087357)scale(0.11 -0.11)">
       <use xlink:href="#ArialMT-2212"/>
       <use x="58.398438" xlink:href="#ArialMT-35"/>
      </g>
     </g>
    </g>
    <g id="ytick_6">
     <g id="text_15">
      <!-- 0 -->
      <g style="fill:#262626;" transform="translate(89.682969 75.389597)scale(0.11 -0.11)">
       <use xlink:href="#ArialMT-30"/>
      </g>
     </g>
    </g>
   </g>
   <g id="line2d_1">
    <path clip-path="url(#p04cc9942e2)" d="M 134.975455 277.486204 
L 137.899145 278.556503 
L 140.822835 281.393007 
L 143.746525 281.339068 
L 146.670215 287.934322 
L 149.593905 287.204046 
L 152.517595 289.712823 
L 155.441285 295.281801 
L 158.364975 301.334359 
L 161.288665 303.665543 
L 164.212356 302.49599 
L 167.136046 304.32997 
L 170.059736 322.462685 
L 172.983426 324.52748 
L 175.907116 333.548207 
L 178.830806 356.883766 
L 181.754496 399.259 
L 184.678186 362.968872 
L 187.601876 341.630002 
L 190.525567 446.558287 
L 193.449257 449.998807 
L 196.372947 391.087516 
L 199.296637 365.57785 
L 202.220327 324.833607 
L 205.144017 368.628588 
L 208.067707 450.183501 
L 210.991397 426.273537 
L 213.915087 422.964401 
L 216.838777 401.241452 
L 219.762468 359.708289 
L 222.686158 355.810232 
L 225.609848 383.162745 
L 228.533538 432.045713 
L 231.457228 405.743402 
L 234.380918 356.621906 
L 237.304608 416.994868 
L 240.228298 450.445466 
L 243.151988 372.765279 
L 246.075678 353.173201 
L 248.999369 337.610495 
L 251.923059 393.035337 
L 254.846749 414.151246 
L 257.770439 443.327367 
L 260.694129 382.22182 
L 263.617819 466.504782 
L 266.541509 363.948013 
L 269.465199 379.262239 
L 272.388889 431.160301 
L 275.312579 450.254055 
L 278.23627 456.439729 
L 281.15996 441.289507 
L 284.08365 394.871678 
L 287.00734 396.698225 
L 289.93103 430.519469 
L 292.85472 349.316665 
L 295.77841 295.434314 
L 298.7021 329.25624 
L 301.62579 346.23238 
L 304.549481 365.095791 
L 307.473171 359.20192 
L 310.396861 391.604729 
L 313.320551 288.04687 
L 316.244241 306.382994 
L 319.167931 395.315259 
L 322.091621 438.885162 
L 325.015311 400.248197 
L 327.939001 442.667226 
L 330.862691 465.420999 
L 333.786382 367.028922 
L 336.710072 318.949075 
L 339.633762 417.870975 
L 342.557452 452.930929 
L 345.481142 322.5816 
L 348.404832 374.429623 
L 351.328522 369.468876 
L 354.252212 389.336036 
L 357.175902 425.991529 
L 360.099592 411.325883 
L 363.023283 443.324044 
L 365.946973 368.173884 
L 368.870663 418.635426 
L 371.794353 436.454862 
L 374.718043 467.678952 
L 377.641733 442.475326 
L 380.565423 399.522293 
L 383.489113 304.297543 
L 386.412803 294.494053 
L 389.336494 377.993657 
L 392.260184 436.027058 
L 395.183874 491.165765 
L 398.107564 409.621486 
L 401.031254 356.713378 
L 403.954944 354.821664 
L 406.878634 382.122022 
L 409.802324 340.614588 
L 412.726014 334.305994 
L 415.649704 400.332219 
L 418.573395 372.967952 
L 421.497085 435.756698 
L 424.420775 468.866661 
L 427.344465 337.203276 
L 430.268155 307.987837 
L 433.191845 298.084497 
L 436.115535 300.824999 
L 439.039225 410.20754 
L 441.962915 470.074272 
L 444.886605 390.210569 
L 447.810296 357.565961 
L 450.733986 391.573247 
L 453.657676 415.24178 
L 456.581366 392.29887 
L 459.505056 429.616463 
L 465.352436 330.013993 
L 468.276126 285.611008 
L 474.123506 372.919295 
L 477.047197 402.674789 
L 479.970887 309.092468 
L 482.894577 355.790468 
L 485.818267 358.397487 
L 488.741957 403.478452 
L 491.665647 410.80741 
L 494.589337 375.124254 
L 497.513027 412.152633 
L 500.436717 405.740044 
L 503.360408 336.622434 
L 506.284098 366.285004 
L 509.207788 451.707436 
L 512.131478 500.138709 
L 515.055168 477.898826 
L 517.978858 315.647932 
L 520.902548 314.519585 
L 523.826238 404.411892 
L 526.749928 435.584806 
L 529.673618 500.212097 
L 532.597309 453.408824 
L 535.520999 291.872518 
L 538.444689 266.587266 
L 541.368379 456.638975 
L 544.292069 437.514928 
L 547.215759 401.70644 
L 550.139449 479.146245 
L 553.063139 388.622061 
L 555.986829 475.322729 
L 558.910519 458.169976 
L 561.83421 461.047879 
L 564.7579 457.815315 
L 567.68159 384.256182 
L 570.60528 397.02046 
L 573.52897 417.343023 
L 576.45266 423.877272 
L 579.37635 413.066134 
L 582.30004 390.012862 
L 585.22373 344.453774 
L 588.147421 321.463519 
L 591.071111 279.969184 
L 593.994801 350.307821 
L 596.918491 328.813465 
L 599.842181 356.624337 
L 602.765871 314.666938 
L 605.689561 295.091843 
L 608.613251 403.655136 
L 611.536941 473.514478 
L 614.460631 428.99312 
L 617.384322 350.190043 
L 620.308012 437.970647 
L 623.231702 470.973851 
L 626.155392 496.010588 
L 629.079082 440.442608 
L 632.002772 397.963903 
L 634.926462 372.986736 
L 637.850152 378.212562 
L 640.773842 229.761561 
L 643.697532 203.371696 
L 646.621223 302.304702 
L 649.544913 409.023119 
L 652.468603 458.067065 
L 655.392293 441.028836 
L 658.315983 409.621661 
L 661.239673 449.529411 
L 664.163363 387.863102 
L 667.087053 452.721189 
L 670.010743 415.351092 
L 672.934433 421.247447 
L 675.858124 480.751508 
L 678.781814 431.073971 
L 681.705504 465.220109 
L 684.629194 501.449406 
L 687.552884 420.211936 
L 690.476574 458.470978 
L 693.400264 310.619674 
L 696.323954 312.045176 
L 699.247644 319.375777 
L 702.171335 337.648868 
L 705.095025 340.276891 
L 708.018715 332.624352 
L 710.942405 328.123713 
L 713.866095 326.988317 
L 719.713475 328.774707 
L 722.637165 325.960975 
L 725.560855 331.097618 
L 728.484545 315.406606 
L 728.484545 315.406606 
" style="fill:none;stroke:#4c72b0;stroke-linecap:round;stroke-width:1.5;"/>
   </g>
   <g id="line2d_2">
    <path clip-path="url(#p04cc9942e2)" d="M 134.975455 267.850321 
L 137.899145 271.775663 
L 140.822835 274.987361 
L 143.746525 272.660497 
L 146.670215 280.545478 
L 149.593905 280.095252 
L 152.517595 280.111937 
L 155.441285 284.221501 
L 158.364975 287.874576 
L 161.288665 289.405105 
L 164.212356 288.364802 
L 167.136046 289.097526 
L 170.059736 303.925847 
L 172.983426 305.032856 
L 175.907116 315.259253 
L 178.830806 344.136051 
L 181.754496 379.814677 
L 184.678186 356.09691 
L 187.601876 306.783426 
L 190.525567 430.231619 
L 193.449257 426.99895 
L 196.372947 379.839373 
L 199.296637 352.253596 
L 202.220327 310.357115 
L 208.067707 452.864712 
L 210.991397 441.318085 
L 213.915087 397.000416 
L 216.838777 400.282652 
L 219.762468 345.47963 
L 222.686158 341.710106 
L 225.609848 367.468689 
L 228.533538 408.770285 
L 231.457228 391.603364 
L 234.380918 321.823637 
L 237.304608 384.236139 
L 240.228298 424.370839 
L 243.151988 365.488126 
L 246.075678 345.191203 
L 248.999369 356.482721 
L 251.923059 388.478119 
L 254.846749 411.462899 
L 257.770439 443.402154 
L 260.694129 385.94134 
L 263.617819 466.641133 
L 266.541509 370.2547 
L 269.465199 380.751019 
L 272.388889 445.931762 
L 275.312579 462.567197 
L 278.23627 465.982986 
L 281.15996 463.568182 
L 284.08365 403.479642 
L 287.00734 397.736394 
L 289.93103 435.941637 
L 292.85472 360.383559 
L 295.77841 270.377096 
L 298.7021 313.254344 
L 301.62579 347.997624 
L 304.549481 360.833033 
L 307.473171 361.939903 
L 310.396861 375.832703 
L 313.320551 295.672824 
L 316.244241 306.268714 
L 319.167931 404.833714 
L 322.091621 446.989554 
L 325.015311 411.87874 
L 327.939001 456.40321 
L 330.862691 460.284757 
L 333.786382 364.563729 
L 336.710072 340.383143 
L 339.633762 429.394795 
L 342.557452 426.439167 
L 345.481142 298.771031 
L 348.404832 384.481838 
L 351.328522 413.038115 
L 354.252212 382.120238 
L 357.175902 325.129607 
L 360.099592 253.337835 
L 363.023283 242.506023 
L 365.946973 281.097112 
L 368.870663 294.772738 
L 374.718043 343.630171 
L 377.641733 335.863667 
L 380.565423 360.514104 
L 383.489113 262.542101 
L 386.412803 287.249467 
L 389.336494 347.477665 
L 392.260184 420.292005 
L 395.183874 473.06614 
L 398.107564 376.722487 
L 401.031254 316.857958 
L 403.954944 348.0088 
L 406.878634 342.138855 
L 409.802324 328.644582 
L 412.726014 346.239446 
L 415.649704 381.614604 
L 418.573395 334.336497 
L 421.497085 405.59904 
L 424.420775 428.594174 
L 427.344465 298.826789 
L 430.268155 283.272076 
L 436.115535 283.9917 
L 439.039225 416.103895 
L 441.962915 482.284188 
L 444.886605 374.751893 
L 447.810296 325.247419 
L 450.733986 419.278987 
L 453.657676 417.27079 
L 456.581366 401.068931 
L 459.505056 420.143271 
L 462.428746 361.033713 
L 465.352436 323.903666 
L 468.276126 269.711305 
L 471.199816 333.722861 
L 474.123506 344.571988 
L 477.047197 413.448779 
L 479.970887 298.803142 
L 482.894577 344.652687 
L 485.818267 365.724415 
L 488.741957 408.670067 
L 491.665647 429.755578 
L 494.589337 380.146601 
L 497.513027 424.176805 
L 500.436717 411.577423 
L 503.360408 338.004683 
L 506.284098 375.751409 
L 509.207788 436.237357 
L 512.131478 489.166452 
L 515.055168 471.787204 
L 517.978858 319.996776 
L 520.902548 311.028589 
L 523.826238 397.533755 
L 526.749928 442.374514 
L 529.673618 507.472004 
L 532.597309 450.694697 
L 535.520999 287.147501 
L 538.444689 271.587226 
L 541.368379 411.342848 
L 544.292069 436.681812 
L 547.215759 383.200103 
L 550.139449 460.946192 
L 553.063139 414.086987 
L 555.986829 404.614041 
L 561.83421 288.861832 
L 564.7579 307.185345 
L 567.68159 292.184627 
L 570.60528 413.67244 
L 573.52897 241.437264 
L 576.45266 310.013384 
L 579.37635 319.406979 
L 582.30004 260.635905 
L 585.22373 332.556823 
L 591.071111 272.108164 
L 593.994801 329.596752 
L 596.918491 304.417769 
L 599.842181 389.412922 
L 602.765871 310.092002 
L 605.689561 304.620933 
L 608.613251 441.410782 
L 611.536941 481.432987 
L 614.460631 434.127018 
L 617.384322 413.76853 
L 620.308012 465.299898 
L 623.231702 474.724118 
L 626.155392 513.275522 
L 629.079082 429.223148 
L 632.002772 422.27841 
L 634.926462 391.162443 
L 637.850152 339.630847 
L 640.773842 236.553525 
L 643.697532 203.801581 
L 646.621223 329.975305 
L 649.544913 425.191188 
L 652.468603 455.211515 
L 655.392293 457.516726 
L 658.315983 388.700276 
L 661.239673 447.405955 
L 664.163363 380.205962 
L 667.087053 455.14173 
L 670.010743 424.950421 
L 672.934433 419.49184 
L 675.858124 481.137127 
L 678.781814 445.95163 
L 681.705504 461.33307 
L 684.629194 496.82646 
L 687.552884 392.254271 
L 690.476574 431.720785 
L 693.400264 310.23939 
L 696.323954 313.517883 
L 699.247644 317.35476 
L 702.171335 326.809255 
L 705.095025 327.088535 
L 708.018715 324.120051 
L 710.942405 321.813493 
L 713.866095 322.446192 
L 716.789785 321.022422 
L 719.713475 324.577466 
L 722.637165 319.972815 
L 725.560855 326.045818 
L 728.484545 315.783917 
L 728.484545 315.783917 
" style="fill:none;stroke:#dd8452;stroke-dasharray:6,2.25;stroke-dashoffset:0;stroke-width:1.5;"/>
   </g>
   <g id="line2d_3">
    <path clip-path="url(#p04cc9942e2)" d="M 134.975455 270.699103 
L 137.899145 275.9654 
L 140.822835 280.522881 
L 143.746525 274.863812 
L 146.670215 290.233184 
L 149.593905 291.304287 
L 152.517595 294.297624 
L 155.441285 322.281699 
L 158.364975 322.455427 
L 161.288665 314.058445 
L 164.212356 312.665807 
L 167.136046 303.431755 
L 170.059736 307.134764 
L 175.907116 325.718949 
L 178.830806 343.071857 
L 181.754496 372.834329 
L 184.678186 317.447579 
L 187.601876 300.850482 
L 190.525567 343.150999 
L 193.449257 394.810009 
L 196.372947 361.632325 
L 199.296637 361.158154 
L 202.220327 304.450808 
L 205.144017 300.220161 
L 208.067707 310.422859 
L 210.991397 356.281411 
L 213.915087 370.730077 
L 216.838777 323.041935 
L 219.762468 306.956769 
L 222.686158 329.951186 
L 225.609848 326.735657 
L 228.533538 394.439921 
L 231.457228 362.936463 
L 234.380918 321.718103 
L 237.304608 377.710145 
L 240.228298 441.689747 
L 243.151988 370.345858 
L 246.075678 319.628525 
L 248.999369 382.172953 
L 251.923059 349.103322 
L 254.846749 400.669215 
L 257.770439 434.027605 
L 260.694129 386.174726 
L 263.617819 461.749891 
L 266.541509 402.422339 
L 269.465199 418.992781 
L 272.388889 425.188145 
L 275.312579 398.844942 
L 278.23627 329.748968 
L 281.15996 293.232695 
L 284.08365 269.852974 
L 287.00734 267.05138 
L 289.93103 293.222446 
L 292.85472 259.099412 
L 295.77841 234.520509 
L 301.62579 351.224924 
L 307.473171 364.279955 
L 310.396861 413.249078 
L 313.320551 343.29349 
L 316.244241 325.708857 
L 319.167931 427.773406 
L 322.091621 475.66235 
L 325.015311 441.781009 
L 327.939001 473.230441 
L 330.862691 491.657827 
L 333.786382 388.566967 
L 336.710072 351.902398 
L 339.633762 448.443705 
L 342.557452 465.154452 
L 345.481142 312.673852 
L 348.404832 400.287164 
L 351.328522 437.569007 
L 354.252212 370.149515 
L 357.175902 388.724027 
L 360.099592 322.414133 
L 363.023283 361.10864 
L 365.946973 299.267256 
L 368.870663 356.504321 
L 371.794353 281.854724 
L 374.718043 354.826754 
L 377.641733 304.503907 
L 380.565423 307.136269 
L 383.489113 291.846144 
L 386.412803 297.859192 
L 389.336494 381.835292 
L 392.260184 446.096272 
L 395.183874 483.754919 
L 398.107564 424.210876 
L 401.031254 385.351893 
L 403.954944 373.798935 
L 406.878634 345.069613 
L 409.802324 363.001019 
L 412.726014 353.829162 
L 415.649704 335.015807 
L 418.573395 336.659426 
L 421.497085 301.061079 
L 424.420775 280.582889 
L 427.344465 208.027803 
L 430.268155 210.100328 
L 433.191845 216.207988 
L 436.115535 212.370245 
L 439.039225 348.543031 
L 441.962915 459.112545 
L 444.886605 349.909417 
L 447.810296 373.390615 
L 450.733986 384.400754 
L 453.657676 386.587069 
L 456.581366 429.318993 
L 459.505056 476.468322 
L 462.428746 375.034986 
L 465.352436 324.536365 
L 468.276126 262.844397 
L 471.199816 275.365424 
L 474.123506 313.157887 
L 477.047197 339.148597 
L 479.970887 328.788279 
L 482.894577 355.248332 
L 485.818267 359.00208 
L 488.741957 334.711849 
L 491.665647 355.048859 
L 494.589337 358.009647 
L 497.513027 392.898776 
L 500.436717 250.380335 
L 503.360408 268.214182 
L 506.284098 321.886881 
L 509.207788 340.243486 
L 512.131478 376.291359 
L 515.055168 380.867642 
L 517.978858 323.433203 
L 520.902548 335.68039 
L 523.826238 439.03666 
L 526.749928 490.334747 
L 529.673618 491.168003 
L 532.597309 426.884391 
L 535.520999 314.724463 
L 538.444689 311.41085 
L 541.368379 417.41893 
L 544.292069 417.914735 
L 547.215759 344.804517 
L 550.139449 410.710901 
L 553.063139 395.20864 
L 555.986829 332.76275 
L 561.83421 219.910394 
L 564.7579 213.437211 
L 570.60528 301.623381 
L 573.52897 404.51043 
L 576.45266 390.524794 
L 579.37635 404.399054 
L 582.30004 399.034883 
L 585.22373 400.663968 
L 588.147421 337.286301 
L 591.071111 309.642055 
L 593.994801 338.705401 
L 596.918491 317.130311 
L 599.842181 409.176227 
L 602.765871 335.459352 
L 605.689561 293.214278 
L 608.613251 412.069101 
L 611.536941 461.013914 
L 614.460631 432.080588 
L 617.384322 400.014391 
L 620.308012 422.815772 
L 623.231702 480.825071 
L 626.155392 502.118782 
L 629.079082 405.631956 
L 632.002772 409.498881 
L 634.926462 379.876137 
L 637.850152 261.404466 
L 640.773842 256.404717 
L 643.697532 318.388084 
L 646.621223 314.331708 
L 649.544913 428.912597 
L 652.468603 448.966165 
L 655.392293 452.244553 
L 658.315983 377.549657 
L 661.239673 426.500346 
L 664.163363 373.962466 
L 667.087053 452.966538 
L 670.010743 417.446074 
L 672.934433 416.16476 
L 675.858124 502.152957 
L 678.781814 450.652442 
L 681.705504 463.838542 
L 684.629194 503.404504 
L 687.552884 414.830136 
L 690.476574 415.523158 
L 693.400264 300.722456 
L 696.323954 310.887165 
L 699.247644 308.254332 
L 702.171335 329.643451 
L 705.095025 332.833252 
L 708.018715 329.960019 
L 710.942405 331.467933 
L 713.866095 328.618014 
L 716.789785 330.337889 
L 719.713475 331.177023 
L 722.637165 332.481669 
L 725.560855 337.102691 
L 728.484545 324.060341 
L 728.484545 324.060341 
" style="fill:none;stroke:#55a868;stroke-dasharray:1.5,1.5;stroke-dashoffset:0;stroke-width:1.5;"/>
   </g>
   <g id="line2d_4">
    <path clip-path="url(#p04cc9942e2)" d="M 134.975455 267.300087 
L 137.899145 271.265725 
L 140.822835 274.550235 
L 143.746525 272.105471 
L 146.670215 280.186934 
L 149.593905 279.69774 
L 152.517595 279.883448 
L 155.441285 284.162402 
L 158.364975 288.07704 
L 161.288665 289.680589 
L 164.212356 288.649101 
L 167.136046 289.456315 
L 170.059736 304.473772 
L 172.983426 305.487875 
L 175.907116 315.776134 
L 178.830806 344.809799 
L 181.754496 380.749445 
L 184.678186 356.680392 
L 187.601876 307.503505 
L 190.525567 431.503909 
L 193.449257 429.936459 
L 196.372947 380.390481 
L 199.296637 353.03907 
L 202.220327 313.415269 
L 205.144017 378.601643 
L 208.067707 455.329782 
L 210.991397 436.904249 
L 213.915087 406.711332 
L 216.838777 393.939743 
L 219.762468 346.282069 
L 222.686158 342.866892 
L 225.609848 367.135715 
L 228.533538 409.62278 
L 231.457228 393.002771 
L 234.380918 323.761909 
L 237.304608 388.44069 
L 240.228298 429.103937 
L 243.151988 366.507616 
L 246.075678 346.942717 
L 248.999369 355.422252 
L 251.923059 388.407249 
L 254.846749 409.776027 
L 257.770439 441.326061 
L 260.694129 384.777033 
L 263.617819 466.8819 
L 266.541509 364.098724 
L 269.465199 380.380022 
L 272.388889 443.030632 
L 275.312579 464.89609 
L 278.23627 469.038097 
L 281.15996 459.57491 
L 284.08365 400.370976 
L 287.00734 405.131638 
L 289.93103 438.056558 
L 292.85472 352.256692 
L 295.77841 270.459368 
L 298.7021 313.768321 
L 301.62579 349.372895 
L 304.549481 364.929917 
L 307.473171 362.942515 
L 310.396861 376.706956 
L 313.320551 292.93255 
L 316.244241 305.789087 
L 319.167931 411.268585 
L 322.091621 458.343512 
L 325.015311 410.885031 
L 327.939001 446.524356 
L 330.862691 469.799015 
L 333.786382 361.715787 
L 336.710072 341.499702 
L 339.633762 436.878959 
L 342.557452 437.466376 
L 345.481142 311.231053 
L 348.404832 294.79105 
L 351.328522 397.91654 
L 354.252212 396.075617 
L 357.175902 305.837534 
L 360.099592 267.510858 
L 363.023283 373.359378 
L 365.946973 293.984064 
L 368.870663 318.554851 
L 371.794353 347.675547 
L 374.718043 364.152768 
L 377.641733 340.852783 
L 380.565423 369.717338 
L 383.489113 262.518857 
L 386.412803 289.048782 
L 389.336494 351.366313 
L 392.260184 422.097004 
L 395.183874 476.246584 
L 398.107564 379.349444 
L 401.031254 321.198861 
L 403.954944 349.088456 
L 406.878634 346.64572 
L 409.802324 333.217576 
L 412.726014 348.124514 
L 415.649704 386.004409 
L 418.573395 336.109891 
L 421.497085 412.220179 
L 424.420775 434.798178 
L 427.344465 298.940421 
L 430.268155 281.61868 
L 433.191845 281.658469 
L 436.115535 283.87471 
L 439.039225 415.744826 
L 441.962915 482.406688 
L 444.886605 374.087065 
L 447.810296 327.122203 
L 450.733986 415.840111 
L 453.657676 422.35715 
L 456.581366 402.794 
L 459.505056 418.917959 
L 462.428746 361.2657 
L 465.352436 326.231719 
L 468.276126 269.993541 
L 471.199816 333.1154 
L 474.123506 350.199383 
L 477.047197 420.857316 
L 479.970887 300.652933 
L 482.894577 346.597903 
L 485.818267 365.854226 
L 488.741957 410.068214 
L 491.665647 430.024189 
L 494.589337 381.174591 
L 497.513027 424.980679 
L 500.436717 410.37156 
L 503.360408 337.377126 
L 506.284098 376.203245 
L 509.207788 435.721298 
L 512.131478 490.06729 
L 515.055168 472.157816 
L 517.978858 320.215103 
L 520.902548 312.134287 
L 523.826238 396.486176 
L 526.749928 441.195376 
L 529.673618 507.811449 
L 532.597309 450.374037 
L 535.520999 286.858951 
L 538.444689 272.65943 
L 541.368379 411.010678 
L 544.292069 437.644039 
L 547.215759 383.461089 
L 550.139449 461.363748 
L 553.063139 414.608888 
L 555.986829 407.066972 
L 558.910519 345.858392 
L 561.83421 290.61123 
L 564.7579 308.789717 
L 567.68159 293.477397 
L 570.60528 409.302784 
L 573.52897 220.70519 
L 576.45266 323.120325 
L 579.37635 330.517319 
L 582.30004 310.720171 
L 585.22373 393.049574 
L 588.147421 278.298246 
L 591.071111 249.2572 
L 593.994801 353.171539 
L 596.918491 338.31569 
L 599.842181 371.446571 
L 602.765871 315.066059 
L 605.689561 315.161082 
L 608.613251 434.694672 
L 611.536941 479.244538 
L 614.460631 441.874546 
L 617.384322 413.050078 
L 620.308012 460.715675 
L 623.231702 477.723506 
L 626.155392 510.077343 
L 629.079082 429.284223 
L 632.002772 419.817783 
L 634.926462 395.42534 
L 637.850152 340.924702 
L 640.773842 237.8241 
L 643.697532 206.205882 
L 646.621223 330.305376 
L 649.544913 419.78756 
L 652.468603 454.842371 
L 655.392293 459.070429 
L 658.315983 389.143542 
L 661.239673 447.906763 
L 664.163363 380.920637 
L 667.087053 455.357136 
L 670.010743 427.885586 
L 672.934433 419.825548 
L 675.858124 479.284625 
L 678.781814 445.448094 
L 681.705504 459.219689 
L 684.629194 495.206925 
L 687.552884 390.229248 
L 690.476574 431.427478 
L 693.400264 310.016952 
L 696.323954 311.190459 
L 699.247644 317.423076 
L 702.171335 326.223849 
L 705.095025 327.330368 
L 708.018715 324.742816 
L 710.942405 324.165595 
L 713.866095 324.75742 
L 716.789785 322.857766 
L 719.713475 325.519668 
L 722.637165 320.7787 
L 725.560855 327.294182 
L 728.484545 318.378203 
L 728.484545 318.378203 
" style="fill:none;stroke:#c44e52;stroke-dasharray:4.5,1.875,2.25,1.875;stroke-dashoffset:0;stroke-width:1.5;"/>
   </g>
   <g id="line2d_5">
    <path clip-path="url(#p04cc9942e2)" d="M 134.975455 269.322923 
L 137.899145 273.319204 
L 140.822835 276.882451 
L 143.746525 274.691834 
L 146.670215 282.516999 
L 152.517595 283.585531 
L 155.441285 287.923688 
L 158.364975 291.60494 
L 161.288665 294.056892 
L 164.212356 291.813227 
L 167.136046 292.038743 
L 170.059736 305.36513 
L 172.983426 306.265094 
L 175.907116 315.006611 
L 178.830806 342.832244 
L 181.754496 384.600175 
L 184.678186 350.733141 
L 187.601876 325.635976 
L 190.525567 435.233713 
L 193.449257 437.736981 
L 196.372947 389.647987 
L 199.296637 360.205494 
L 202.220327 321.333131 
L 205.144017 378.932238 
L 208.067707 459.933734 
L 210.991397 443.055818 
L 213.915087 401.573691 
L 216.838777 401.996318 
L 219.762468 348.923578 
L 222.686158 344.684046 
L 225.609848 377.125526 
L 228.533538 417.527158 
L 231.457228 397.273155 
L 234.380918 331.297703 
L 237.304608 390.550609 
L 240.228298 431.172439 
L 243.151988 367.934237 
L 246.075678 346.314583 
L 248.999369 349.494135 
L 251.923059 395.136581 
L 254.846749 417.224931 
L 257.770439 448.507683 
L 260.694129 386.396953 
L 263.617819 466.8734 
L 266.541509 366.576736 
L 269.465199 382.576516 
L 272.388889 444.58521 
L 275.312579 466.195244 
L 278.23627 470.85443 
L 281.15996 468.560551 
L 284.08365 406.647213 
L 287.00734 401.170617 
L 289.93103 438.283962 
L 295.77841 273.151405 
L 298.7021 315.30331 
L 301.62579 349.073624 
L 304.549481 361.891596 
L 307.473171 360.398128 
L 310.396861 387.237486 
L 313.320551 303.194294 
L 316.244241 309.806863 
L 319.167931 417.160113 
L 322.091621 457.587351 
L 325.015311 412.882069 
L 327.939001 441.278558 
L 330.862691 468.33696 
L 333.786382 368.621312 
L 336.710072 323.272558 
L 339.633762 429.230984 
L 342.557452 443.846329 
L 345.481142 325.363535 
L 348.404832 348.710113 
L 351.328522 367.049 
L 354.252212 386.476882 
L 357.175902 433.613828 
L 360.099592 421.182664 
L 363.023283 457.868344 
L 365.946973 355.868229 
L 368.870663 397.242967 
L 371.794353 376.996485 
L 374.718043 411.732699 
L 377.641733 422.617226 
L 380.565423 412.934994 
L 383.489113 288.278664 
L 386.412803 286.416525 
L 389.336494 370.291324 
L 392.260184 441.236722 
L 395.183874 500.339458 
L 398.107564 378.526576 
L 401.031254 352.994138 
L 403.954944 356.796018 
L 406.878634 357.209464 
L 409.802324 350.658442 
L 412.726014 357.40306 
L 415.649704 412.730991 
L 418.573395 345.245194 
L 421.497085 425.331877 
L 424.420775 444.822164 
L 427.344465 310.673106 
L 430.268155 281.833981 
L 433.191845 282.926002 
L 436.115535 283.388839 
L 439.039225 415.475935 
L 441.962915 483.848315 
L 444.886605 379.612493 
L 447.810296 326.725776 
L 450.733986 417.27866 
L 453.657676 409.015039 
L 456.581366 393.146574 
L 459.505056 402.512412 
L 462.428746 350.372831 
L 465.352436 319.472427 
L 468.276126 278.996463 
L 471.199816 337.386885 
L 474.123506 359.337852 
L 477.047197 417.78454 
L 479.970887 302.137166 
L 482.894577 351.47232 
L 485.818267 373.295679 
L 488.741957 413.182547 
L 491.665647 437.445039 
L 494.589337 382.868949 
L 497.513027 423.969759 
L 500.436717 405.969303 
L 503.360408 337.117697 
L 506.284098 378.643199 
L 509.207788 445.176825 
L 512.131478 501.711791 
L 515.055168 475.80031 
L 517.978858 324.769384 
L 520.902548 308.442716 
L 523.826238 382.895498 
L 526.749928 426.056661 
L 529.673618 497.607002 
L 532.597309 424.977845 
L 535.520999 274.722703 
L 538.444689 260.231117 
L 541.368379 412.10478 
L 544.292069 437.457631 
L 547.215759 368.926722 
L 550.139449 451.53474 
L 553.063139 331.671726 
L 555.986829 367.187486 
L 558.910519 292.772027 
L 561.83421 278.354826 
L 564.7579 339.202028 
L 567.68159 299.186977 
L 570.60528 350.167534 
L 573.52897 383.343801 
L 576.45266 470.047723 
L 579.37635 395.978198 
L 582.30004 324.832855 
L 585.22373 353.173166 
L 588.147421 291.824246 
L 591.071111 274.207187 
L 593.994801 341.394955 
L 596.918491 338.959897 
L 599.842181 358.78844 
L 602.765871 316.573973 
L 605.689561 307.664116 
L 608.613251 434.117049 
L 611.536941 469.073742 
L 614.460631 442.111919 
L 617.384322 400.019288 
L 620.308012 448.897744 
L 623.231702 477.127344 
L 626.155392 510.027077 
L 629.079082 433.640063 
L 632.002772 417.440058 
L 634.926462 384.043574 
L 637.850152 328.804842 
L 640.773842 235.346298 
L 643.697532 216.106424 
L 646.621223 323.656183 
L 649.544913 401.424606 
L 652.468603 433.866593 
L 655.392293 437.750308 
L 658.315983 386.154367 
L 661.239673 436.789095 
L 664.163363 372.691086 
L 667.087053 454.802669 
L 670.010743 423.395844 
L 672.934433 417.474163 
L 675.858124 470.589981 
L 678.781814 427.945472 
L 681.705504 456.383727 
L 684.629194 482.627306 
L 687.552884 382.217238 
L 690.476574 414.830486 
L 693.400264 310.079462 
L 696.323954 309.981553 
L 699.247644 319.763705 
L 702.171335 326.065285 
L 705.095025 326.014634 
L 708.018715 323.372146 
L 710.942405 320.936214 
L 713.866095 319.967428 
L 716.789785 318.185848 
L 719.713475 321.400538 
L 722.637165 315.71714 
L 725.560855 322.149055 
L 728.484545 313.824202 
L 728.484545 313.824202 
" style="fill:none;stroke:#8172b3;stroke-dasharray:7.5,1.5,1.5,1.5;stroke-dashoffset:0;stroke-width:1.5;"/>
   </g>
   <g id="line2d_6"/>
   <g id="line2d_7"/>
   <g id="line2d_8"/>
   <g id="line2d_9"/>
   <g id="line2d_10"/>
   <g id="patch_3">
    <path d="M 105.3 529.9416 
L 105.3 71.4528 
" style="fill:none;stroke:#262626;stroke-linecap:square;stroke-linejoin:miter;stroke-width:1.25;"/>
   </g>
   <g id="patch_4">
    <path d="M 758.16 529.9416 
L 758.16 71.4528 
" style="fill:none;stroke:#262626;stroke-linecap:square;stroke-linejoin:miter;stroke-width:1.25;"/>
   </g>
   <g id="patch_5">
    <path d="M 105.3 529.9416 
L 758.16 529.9416 
" style="fill:none;stroke:#262626;stroke-linecap:square;stroke-linejoin:miter;stroke-width:1.25;"/>
   </g>
   <g id="patch_6">
    <path d="M 105.3 71.4528 
L 758.16 71.4528 
" style="fill:none;stroke:#262626;stroke-linecap:square;stroke-linejoin:miter;stroke-width:1.25;"/>
   </g>
   <g id="text_16">
    <!-- Activations for &gt;&lt;NOISE&gt;&lt; -->
    <g style="fill:#262626;" transform="translate(359.694375 65.4528)scale(0.12 -0.12)">
     <defs>
      <path d="M -9 0 
L 1750 4581 
L 2403 4581 
L 4278 0 
L 3588 0 
L 3053 1388 
L 1138 1388 
L 634 0 
L -9 0 
z
M 1313 1881 
L 2866 1881 
L 2388 3150 
Q 2169 3728 2063 4100 
Q 1975 3659 1816 3225 
L 1313 1881 
z
" id="ArialMT-41" transform="scale(0.015625)"/>
      <path d="M 2588 1216 
L 3141 1144 
Q 3050 572 2676 248 
Q 2303 -75 1759 -75 
Q 1078 -75 664 370 
Q 250 816 250 1647 
Q 250 2184 428 2587 
Q 606 2991 970 3192 
Q 1334 3394 1763 3394 
Q 2303 3394 2647 3120 
Q 2991 2847 3088 2344 
L 2541 2259 
Q 2463 2594 2264 2762 
Q 2066 2931 1784 2931 
Q 1359 2931 1093 2626 
Q 828 2322 828 1663 
Q 828 994 1084 691 
Q 1341 388 1753 388 
Q 2084 388 2306 591 
Q 2528 794 2588 1216 
z
" id="ArialMT-63" transform="scale(0.015625)"/>
      <path d="M 1650 503 
L 1731 6 
Q 1494 -44 1306 -44 
Q 1000 -44 831 53 
Q 663 150 594 308 
Q 525 466 525 972 
L 525 2881 
L 113 2881 
L 113 3319 
L 525 3319 
L 525 4141 
L 1084 4478 
L 1084 3319 
L 1650 3319 
L 1650 2881 
L 1084 2881 
L 1084 941 
Q 1084 700 1114 631 
Q 1144 563 1211 522 
Q 1278 481 1403 481 
Q 1497 481 1650 503 
z
" id="ArialMT-74" transform="scale(0.015625)"/>
      <path d="M 425 3934 
L 425 4581 
L 988 4581 
L 988 3934 
L 425 3934 
z
M 425 0 
L 425 3319 
L 988 3319 
L 988 0 
L 425 0 
z
" id="ArialMT-69" transform="scale(0.015625)"/>
      <path d="M 1344 0 
L 81 3319 
L 675 3319 
L 1388 1331 
Q 1503 1009 1600 663 
Q 1675 925 1809 1294 
L 2547 3319 
L 3125 3319 
L 1869 0 
L 1344 0 
z
" id="ArialMT-76" transform="scale(0.015625)"/>
      <path d="M 2588 409 
Q 2275 144 1986 34 
Q 1697 -75 1366 -75 
Q 819 -75 525 192 
Q 231 459 231 875 
Q 231 1119 342 1320 
Q 453 1522 633 1644 
Q 813 1766 1038 1828 
Q 1203 1872 1538 1913 
Q 2219 1994 2541 2106 
Q 2544 2222 2544 2253 
Q 2544 2597 2384 2738 
Q 2169 2928 1744 2928 
Q 1347 2928 1158 2789 
Q 969 2650 878 2297 
L 328 2372 
Q 403 2725 575 2942 
Q 747 3159 1072 3276 
Q 1397 3394 1825 3394 
Q 2250 3394 2515 3294 
Q 2781 3194 2906 3042 
Q 3031 2891 3081 2659 
Q 3109 2516 3109 2141 
L 3109 1391 
Q 3109 606 3145 398 
Q 3181 191 3288 0 
L 2700 0 
Q 2613 175 2588 409 
z
M 2541 1666 
Q 2234 1541 1622 1453 
Q 1275 1403 1131 1340 
Q 988 1278 909 1158 
Q 831 1038 831 891 
Q 831 666 1001 516 
Q 1172 366 1500 366 
Q 1825 366 2078 508 
Q 2331 650 2450 897 
Q 2541 1088 2541 1459 
L 2541 1666 
z
" id="ArialMT-61" transform="scale(0.015625)"/>
      <path d="M 213 1659 
Q 213 2581 725 3025 
Q 1153 3394 1769 3394 
Q 2453 3394 2887 2945 
Q 3322 2497 3322 1706 
Q 3322 1066 3130 698 
Q 2938 331 2570 128 
Q 2203 -75 1769 -75 
Q 1072 -75 642 372 
Q 213 819 213 1659 
z
M 791 1659 
Q 791 1022 1069 705 
Q 1347 388 1769 388 
Q 2188 388 2466 706 
Q 2744 1025 2744 1678 
Q 2744 2294 2464 2611 
Q 2184 2928 1769 2928 
Q 1347 2928 1069 2612 
Q 791 2297 791 1659 
z
" id="ArialMT-6f" transform="scale(0.015625)"/>
      <path d="M 422 0 
L 422 3319 
L 928 3319 
L 928 2847 
Q 1294 3394 1984 3394 
Q 2284 3394 2536 3286 
Q 2788 3178 2913 3003 
Q 3038 2828 3088 2588 
Q 3119 2431 3119 2041 
L 3119 0 
L 2556 0 
L 2556 2019 
Q 2556 2363 2490 2533 
Q 2425 2703 2258 2804 
Q 2091 2906 1866 2906 
Q 1506 2906 1245 2678 
Q 984 2450 984 1813 
L 984 0 
L 422 0 
z
" id="ArialMT-6e" transform="scale(0.015625)"/>
      <path d="M 197 991 
L 753 1078 
Q 800 744 1014 566 
Q 1228 388 1613 388 
Q 2000 388 2187 545 
Q 2375 703 2375 916 
Q 2375 1106 2209 1216 
Q 2094 1291 1634 1406 
Q 1016 1563 777 1677 
Q 538 1791 414 1992 
Q 291 2194 291 2438 
Q 291 2659 392 2848 
Q 494 3038 669 3163 
Q 800 3259 1026 3326 
Q 1253 3394 1513 3394 
Q 1903 3394 2198 3281 
Q 2494 3169 2634 2976 
Q 2775 2784 2828 2463 
L 2278 2388 
Q 2241 2644 2061 2787 
Q 1881 2931 1553 2931 
Q 1166 2931 1000 2803 
Q 834 2675 834 2503 
Q 834 2394 903 2306 
Q 972 2216 1119 2156 
Q 1203 2125 1616 2013 
Q 2213 1853 2448 1751 
Q 2684 1650 2818 1456 
Q 2953 1263 2953 975 
Q 2953 694 2789 445 
Q 2625 197 2315 61 
Q 2006 -75 1616 -75 
Q 969 -75 630 194 
Q 291 463 197 991 
z
" id="ArialMT-73" transform="scale(0.015625)"/>
      <path id="ArialMT-20" transform="scale(0.015625)"/>
      <path d="M 556 0 
L 556 2881 
L 59 2881 
L 59 3319 
L 556 3319 
L 556 3672 
Q 556 4006 616 4169 
Q 697 4388 901 4523 
Q 1106 4659 1475 4659 
Q 1713 4659 2000 4603 
L 1916 4113 
Q 1741 4144 1584 4144 
Q 1328 4144 1222 4034 
Q 1116 3925 1116 3625 
L 1116 3319 
L 1763 3319 
L 1763 2881 
L 1116 2881 
L 1116 0 
L 556 0 
z
" id="ArialMT-66" transform="scale(0.015625)"/>
      <path d="M 416 0 
L 416 3319 
L 922 3319 
L 922 2816 
Q 1116 3169 1280 3281 
Q 1444 3394 1641 3394 
Q 1925 3394 2219 3213 
L 2025 2691 
Q 1819 2813 1613 2813 
Q 1428 2813 1281 2702 
Q 1134 2591 1072 2394 
Q 978 2094 978 1738 
L 978 0 
L 416 0 
z
" id="ArialMT-72" transform="scale(0.015625)"/>
      <path d="M 3384 2003 
L 350 706 
L 350 1266 
L 2753 2263 
L 350 3250 
L 350 3809 
L 3384 2528 
L 3384 2003 
z
" id="ArialMT-3e" transform="scale(0.015625)"/>
      <path d="M 350 2003 
L 350 2528 
L 3384 3809 
L 3384 3250 
L 978 2263 
L 3384 1266 
L 3384 706 
L 350 2003 
z
" id="ArialMT-3c" transform="scale(0.015625)"/>
      <path d="M 488 0 
L 488 4581 
L 1109 4581 
L 3516 984 
L 3516 4581 
L 4097 4581 
L 4097 0 
L 3475 0 
L 1069 3600 
L 1069 0 
L 488 0 
z
" id="ArialMT-4e" transform="scale(0.015625)"/>
      <path d="M 309 2231 
Q 309 3372 921 4017 
Q 1534 4663 2503 4663 
Q 3138 4663 3647 4359 
Q 4156 4056 4423 3514 
Q 4691 2972 4691 2284 
Q 4691 1588 4409 1038 
Q 4128 488 3612 205 
Q 3097 -78 2500 -78 
Q 1853 -78 1343 234 
Q 834 547 571 1087 
Q 309 1628 309 2231 
z
M 934 2222 
Q 934 1394 1379 917 
Q 1825 441 2497 441 
Q 3181 441 3623 922 
Q 4066 1403 4066 2288 
Q 4066 2847 3877 3264 
Q 3688 3681 3323 3911 
Q 2959 4141 2506 4141 
Q 1863 4141 1398 3698 
Q 934 3256 934 2222 
z
" id="ArialMT-4f" transform="scale(0.015625)"/>
      <path d="M 597 0 
L 597 4581 
L 1203 4581 
L 1203 0 
L 597 0 
z
" id="ArialMT-49" transform="scale(0.015625)"/>
      <path d="M 288 1472 
L 859 1522 
Q 900 1178 1048 958 
Q 1197 738 1509 602 
Q 1822 466 2213 466 
Q 2559 466 2825 569 
Q 3091 672 3220 851 
Q 3350 1031 3350 1244 
Q 3350 1459 3225 1620 
Q 3100 1781 2813 1891 
Q 2628 1963 1997 2114 
Q 1366 2266 1113 2400 
Q 784 2572 623 2826 
Q 463 3081 463 3397 
Q 463 3744 659 4045 
Q 856 4347 1234 4503 
Q 1613 4659 2075 4659 
Q 2584 4659 2973 4495 
Q 3363 4331 3572 4012 
Q 3781 3694 3797 3291 
L 3216 3247 
Q 3169 3681 2898 3903 
Q 2628 4125 2100 4125 
Q 1550 4125 1298 3923 
Q 1047 3722 1047 3438 
Q 1047 3191 1225 3031 
Q 1400 2872 2139 2705 
Q 2878 2538 3153 2413 
Q 3553 2228 3743 1945 
Q 3934 1663 3934 1294 
Q 3934 928 3725 604 
Q 3516 281 3123 101 
Q 2731 -78 2241 -78 
Q 1619 -78 1198 103 
Q 778 284 539 648 
Q 300 1013 288 1472 
z
" id="ArialMT-53" transform="scale(0.015625)"/>
      <path d="M 506 0 
L 506 4581 
L 3819 4581 
L 3819 4041 
L 1113 4041 
L 1113 2638 
L 3647 2638 
L 3647 2100 
L 1113 2100 
L 1113 541 
L 3925 541 
L 3925 0 
L 506 0 
z
" id="ArialMT-45" transform="scale(0.015625)"/>
     </defs>
     <use xlink:href="#ArialMT-41"/>
     <use x="66.699219" xlink:href="#ArialMT-63"/>
     <use x="116.699219" xlink:href="#ArialMT-74"/>
     <use x="144.482422" xlink:href="#ArialMT-69"/>
     <use x="166.699219" xlink:href="#ArialMT-76"/>
     <use x="216.699219" xlink:href="#ArialMT-61"/>
     <use x="272.314453" xlink:href="#ArialMT-74"/>
     <use x="300.097656" xlink:href="#ArialMT-69"/>
     <use x="322.314453" xlink:href="#ArialMT-6f"/>
     <use x="377.929688" xlink:href="#ArialMT-6e"/>
     <use x="433.544922" xlink:href="#ArialMT-73"/>
     <use x="483.544922" xlink:href="#ArialMT-20"/>
     <use x="511.328125" xlink:href="#ArialMT-66"/>
     <use x="539.111328" xlink:href="#ArialMT-6f"/>
     <use x="594.726562" xlink:href="#ArialMT-72"/>
     <use x="628.027344" xlink:href="#ArialMT-20"/>
     <use x="655.810547" xlink:href="#ArialMT-3e"/>
     <use x="714.208984" xlink:href="#ArialMT-3c"/>
     <use x="772.607422" xlink:href="#ArialMT-4e"/>
     <use x="844.824219" xlink:href="#ArialMT-4f"/>
     <use x="922.607422" xlink:href="#ArialMT-49"/>
     <use x="950.390625" xlink:href="#ArialMT-53"/>
     <use x="1017.089844" xlink:href="#ArialMT-45"/>
     <use x="1083.789062" xlink:href="#ArialMT-3e"/>
     <use x="1142.1875" xlink:href="#ArialMT-3c"/>
    </g>
   </g>
   <g id="legend_1">
    <g id="patch_7">
     <path d="M 640.044062 158.514363 
L 750.46 158.514363 
Q 752.66 158.514363 752.66 156.314363 
L 752.66 79.1528 
Q 752.66 76.9528 750.46 76.9528 
L 640.044062 76.9528 
Q 637.844062 76.9528 637.844062 79.1528 
L 637.844062 156.314363 
Q 637.844062 158.514363 640.044062 158.514363 
z
" style="fill:#ffffff;opacity:0.8;stroke:#cccccc;stroke-linejoin:miter;"/>
    </g>
    <g id="line2d_11">
     <path d="M 642.244062 85.376394 
L 664.244062 85.376394 
" style="fill:none;stroke:#4c72b0;stroke-linecap:round;stroke-width:1.5;"/>
    </g>
    <g id="line2d_12"/>
    <g id="text_17">
     <!-- regular -->
     <g style="fill:#262626;" transform="translate(673.044062 89.226394)scale(0.11 -0.11)">
      <defs>
       <path d="M 2694 1069 
L 3275 997 
Q 3138 488 2766 206 
Q 2394 -75 1816 -75 
Q 1088 -75 661 373 
Q 234 822 234 1631 
Q 234 2469 665 2931 
Q 1097 3394 1784 3394 
Q 2450 3394 2872 2941 
Q 3294 2488 3294 1666 
Q 3294 1616 3291 1516 
L 816 1516 
Q 847 969 1125 678 
Q 1403 388 1819 388 
Q 2128 388 2347 550 
Q 2566 713 2694 1069 
z
M 847 1978 
L 2700 1978 
Q 2663 2397 2488 2606 
Q 2219 2931 1791 2931 
Q 1403 2931 1139 2672 
Q 875 2413 847 1978 
z
" id="ArialMT-65" transform="scale(0.015625)"/>
       <path d="M 319 -275 
L 866 -356 
Q 900 -609 1056 -725 
Q 1266 -881 1628 -881 
Q 2019 -881 2231 -725 
Q 2444 -569 2519 -288 
Q 2563 -116 2559 434 
Q 2191 0 1641 0 
Q 956 0 581 494 
Q 206 988 206 1678 
Q 206 2153 378 2554 
Q 550 2956 876 3175 
Q 1203 3394 1644 3394 
Q 2231 3394 2613 2919 
L 2613 3319 
L 3131 3319 
L 3131 450 
Q 3131 -325 2973 -648 
Q 2816 -972 2473 -1159 
Q 2131 -1347 1631 -1347 
Q 1038 -1347 672 -1080 
Q 306 -813 319 -275 
z
M 784 1719 
Q 784 1066 1043 766 
Q 1303 466 1694 466 
Q 2081 466 2343 764 
Q 2606 1063 2606 1700 
Q 2606 2309 2336 2618 
Q 2066 2928 1684 2928 
Q 1309 2928 1046 2623 
Q 784 2319 784 1719 
z
" id="ArialMT-67" transform="scale(0.015625)"/>
       <path d="M 2597 0 
L 2597 488 
Q 2209 -75 1544 -75 
Q 1250 -75 995 37 
Q 741 150 617 320 
Q 494 491 444 738 
Q 409 903 409 1263 
L 409 3319 
L 972 3319 
L 972 1478 
Q 972 1038 1006 884 
Q 1059 663 1231 536 
Q 1403 409 1656 409 
Q 1909 409 2131 539 
Q 2353 669 2445 892 
Q 2538 1116 2538 1541 
L 2538 3319 
L 3100 3319 
L 3100 0 
L 2597 0 
z
" id="ArialMT-75" transform="scale(0.015625)"/>
       <path d="M 409 0 
L 409 4581 
L 972 4581 
L 972 0 
L 409 0 
z
" id="ArialMT-6c" transform="scale(0.015625)"/>
      </defs>
      <use xlink:href="#ArialMT-72"/>
      <use x="33.300781" xlink:href="#ArialMT-65"/>
      <use x="88.916016" xlink:href="#ArialMT-67"/>
      <use x="144.53125" xlink:href="#ArialMT-75"/>
      <use x="200.146484" xlink:href="#ArialMT-6c"/>
      <use x="222.363281" xlink:href="#ArialMT-61"/>
      <use x="277.978516" xlink:href="#ArialMT-72"/>
     </g>
    </g>
    <g id="line2d_13">
     <path d="M 642.244062 101.0978 
L 664.244062 101.0978 
" style="fill:none;stroke:#dd8452;stroke-dasharray:6,2.25;stroke-dashoffset:0;stroke-width:1.5;"/>
    </g>
    <g id="line2d_14"/>
    <g id="text_18">
     <!-- splitted_3s -->
     <g style="fill:#262626;" transform="translate(673.044062 104.9478)scale(0.11 -0.11)">
      <defs>
       <path d="M 422 -1272 
L 422 3319 
L 934 3319 
L 934 2888 
Q 1116 3141 1344 3267 
Q 1572 3394 1897 3394 
Q 2322 3394 2647 3175 
Q 2972 2956 3137 2557 
Q 3303 2159 3303 1684 
Q 3303 1175 3120 767 
Q 2938 359 2589 142 
Q 2241 -75 1856 -75 
Q 1575 -75 1351 44 
Q 1128 163 984 344 
L 984 -1272 
L 422 -1272 
z
M 931 1641 
Q 931 1000 1190 694 
Q 1450 388 1819 388 
Q 2194 388 2461 705 
Q 2728 1022 2728 1688 
Q 2728 2322 2467 2637 
Q 2206 2953 1844 2953 
Q 1484 2953 1207 2617 
Q 931 2281 931 1641 
z
" id="ArialMT-70" transform="scale(0.015625)"/>
       <path d="M 2575 0 
L 2575 419 
Q 2259 -75 1647 -75 
Q 1250 -75 917 144 
Q 584 363 401 755 
Q 219 1147 219 1656 
Q 219 2153 384 2558 
Q 550 2963 881 3178 
Q 1213 3394 1622 3394 
Q 1922 3394 2156 3267 
Q 2391 3141 2538 2938 
L 2538 4581 
L 3097 4581 
L 3097 0 
L 2575 0 
z
M 797 1656 
Q 797 1019 1065 703 
Q 1334 388 1700 388 
Q 2069 388 2326 689 
Q 2584 991 2584 1609 
Q 2584 2291 2321 2609 
Q 2059 2928 1675 2928 
Q 1300 2928 1048 2622 
Q 797 2316 797 1656 
z
" id="ArialMT-64" transform="scale(0.015625)"/>
       <path d="M -97 -1272 
L -97 -866 
L 3631 -866 
L 3631 -1272 
L -97 -1272 
z
" id="ArialMT-5f" transform="scale(0.015625)"/>
       <path d="M 269 1209 
L 831 1284 
Q 928 806 1161 595 
Q 1394 384 1728 384 
Q 2125 384 2398 659 
Q 2672 934 2672 1341 
Q 2672 1728 2419 1979 
Q 2166 2231 1775 2231 
Q 1616 2231 1378 2169 
L 1441 2663 
Q 1497 2656 1531 2656 
Q 1891 2656 2178 2843 
Q 2466 3031 2466 3422 
Q 2466 3731 2256 3934 
Q 2047 4138 1716 4138 
Q 1388 4138 1169 3931 
Q 950 3725 888 3313 
L 325 3413 
Q 428 3978 793 4289 
Q 1159 4600 1703 4600 
Q 2078 4600 2393 4439 
Q 2709 4278 2876 4000 
Q 3044 3722 3044 3409 
Q 3044 3113 2884 2869 
Q 2725 2625 2413 2481 
Q 2819 2388 3044 2092 
Q 3269 1797 3269 1353 
Q 3269 753 2831 336 
Q 2394 -81 1725 -81 
Q 1122 -81 723 278 
Q 325 638 269 1209 
z
" id="ArialMT-33" transform="scale(0.015625)"/>
      </defs>
      <use xlink:href="#ArialMT-73"/>
      <use x="50" xlink:href="#ArialMT-70"/>
      <use x="105.615234" xlink:href="#ArialMT-6c"/>
      <use x="127.832031" xlink:href="#ArialMT-69"/>
      <use x="150.048828" xlink:href="#ArialMT-74"/>
      <use x="177.832031" xlink:href="#ArialMT-74"/>
      <use x="205.615234" xlink:href="#ArialMT-65"/>
      <use x="261.230469" xlink:href="#ArialMT-64"/>
      <use x="316.845703" xlink:href="#ArialMT-5f"/>
      <use x="372.460938" xlink:href="#ArialMT-33"/>
      <use x="428.076172" xlink:href="#ArialMT-73"/>
     </g>
    </g>
    <g id="line2d_15">
     <path d="M 642.244062 116.6903 
L 664.244062 116.6903 
" style="fill:none;stroke:#55a868;stroke-dasharray:1.5,1.5;stroke-dashoffset:0;stroke-width:1.5;"/>
    </g>
    <g id="line2d_16"/>
    <g id="text_19">
     <!-- splitted_1s -->
     <g style="fill:#262626;" transform="translate(673.044062 120.5403)scale(0.11 -0.11)">
      <use xlink:href="#ArialMT-73"/>
      <use x="50" xlink:href="#ArialMT-70"/>
      <use x="105.615234" xlink:href="#ArialMT-6c"/>
      <use x="127.832031" xlink:href="#ArialMT-69"/>
      <use x="150.048828" xlink:href="#ArialMT-74"/>
      <use x="177.832031" xlink:href="#ArialMT-74"/>
      <use x="205.615234" xlink:href="#ArialMT-65"/>
      <use x="261.230469" xlink:href="#ArialMT-64"/>
      <use x="316.845703" xlink:href="#ArialMT-5f"/>
      <use x="372.460938" xlink:href="#ArialMT-31"/>
      <use x="428.076172" xlink:href="#ArialMT-73"/>
     </g>
    </g>
    <g id="line2d_17">
     <path d="M 642.244062 132.384206 
L 664.244062 132.384206 
" style="fill:none;stroke:#c44e52;stroke-dasharray:4.5,1.875,2.25,1.875;stroke-dashoffset:0;stroke-width:1.5;"/>
    </g>
    <g id="line2d_18"/>
    <g id="text_20">
     <!-- overlap_1f_3s -->
     <g style="fill:#262626;" transform="translate(673.044062 136.234206)scale(0.11 -0.11)">
      <use xlink:href="#ArialMT-6f"/>
      <use x="55.615234" xlink:href="#ArialMT-76"/>
      <use x="105.615234" xlink:href="#ArialMT-65"/>
      <use x="161.230469" xlink:href="#ArialMT-72"/>
      <use x="194.53125" xlink:href="#ArialMT-6c"/>
      <use x="216.748047" xlink:href="#ArialMT-61"/>
      <use x="272.363281" xlink:href="#ArialMT-70"/>
      <use x="327.978516" xlink:href="#ArialMT-5f"/>
      <use x="383.59375" xlink:href="#ArialMT-31"/>
      <use x="439.208984" xlink:href="#ArialMT-66"/>
      <use x="466.992188" xlink:href="#ArialMT-5f"/>
      <use x="522.607422" xlink:href="#ArialMT-33"/>
      <use x="578.222656" xlink:href="#ArialMT-73"/>
     </g>
    </g>
    <g id="line2d_19">
     <path d="M 642.244062 148.078113 
L 664.244062 148.078113 
" style="fill:none;stroke:#8172b3;stroke-dasharray:7.5,1.5,1.5,1.5;stroke-dashoffset:0;stroke-width:1.5;"/>
    </g>
    <g id="line2d_20"/>
    <g id="text_21">
     <!-- overlap_10f_3s -->
     <g style="fill:#262626;" transform="translate(673.044062 151.928112)scale(0.11 -0.11)">
      <use xlink:href="#ArialMT-6f"/>
      <use x="55.615234" xlink:href="#ArialMT-76"/>
      <use x="105.615234" xlink:href="#ArialMT-65"/>
      <use x="161.230469" xlink:href="#ArialMT-72"/>
      <use x="194.53125" xlink:href="#ArialMT-6c"/>
      <use x="216.748047" xlink:href="#ArialMT-61"/>
      <use x="272.363281" xlink:href="#ArialMT-70"/>
      <use x="327.978516" xlink:href="#ArialMT-5f"/>
      <use x="383.59375" xlink:href="#ArialMT-31"/>
      <use x="439.208984" xlink:href="#ArialMT-30"/>
      <use x="494.824219" xlink:href="#ArialMT-66"/>
      <use x="522.607422" xlink:href="#ArialMT-5f"/>
      <use x="578.222656" xlink:href="#ArialMT-33"/>
      <use x="633.837891" xlink:href="#ArialMT-73"/>
     </g>
    </g>
   </g>
  </g>
 </g>
 <defs>
  <clipPath id="p04cc9942e2">
   <rect height="458.4888" width="652.86" x="105.3" y="71.4528"/>
  </clipPath>
 </defs>
</svg>
