<?xml version="1.0" encoding="utf-8" standalone="no"?>
<!DOCTYPE svg PUBLIC "-//W3C//DTD SVG 1.1//EN"
  "http://www.w3.org/Graphics/SVG/1.1/DTD/svg11.dtd">
<svg height="595.44pt" version="1.1" viewBox="0 0 842.4 595.44" width="842.4pt" xmlns="http://www.w3.org/2000/svg" xmlns:xlink="http://www.w3.org/1999/xlink">
 <metadata>
  <rdf:RDF xmlns:cc="http://creativecommons.org/ns#" xmlns:dc="http://purl.org/dc/elements/1.1/" xmlns:rdf="http://www.w3.org/1999/02/22-rdf-syntax-ns#">
   <cc:Work>
    <dc:type rdf:resource="http://purl.org/dc/dcmitype/StillImage"/>
    <dc:date>2021-06-04T22:03:11.352884</dc:date>
    <dc:format>image/svg+xml</dc:format>
    <dc:creator>
     <cc:Agent>
      <dc:title>Matplotlib v3.4.1, https://matplotlib.org/</dc:title>
     </cc:Agent>
    </dc:creator>
   </cc:Work>
  </rdf:RDF>
 </metadata>
 <defs>
  <style type="text/css">*{stroke-linecap:butt;stroke-linejoin:round;}</style>
 </defs>
 <g id="figure_1">
  <g id="patch_1">
   <path d="M 0 595.44 
L 842.4 595.44 
L 842.4 0 
L 0 0 
z
" style="fill:#ffffff;"/>
  </g>
  <g id="axes_1">
   <g id="patch_2">
    <path d="M 105.3 529.9416 
L 758.16 529.9416 
L 758.16 71.4528 
L 105.3 71.4528 
z
" style="fill:#ffffff;"/>
   </g>
   <g id="matplotlib.axis_1">
    <g id="xtick_1">
     <g id="text_1">
      <!-- 0 -->
      <g style="fill:#262626;" transform="translate(131.916939 547.315194)scale(0.11 -0.11)">
       <defs>
        <path d="M 266 2259 
Q 266 3072 433 3567 
Q 600 4063 929 4331 
Q 1259 4600 1759 4600 
Q 2128 4600 2406 4451 
Q 2684 4303 2865 4023 
Q 3047 3744 3150 3342 
Q 3253 2941 3253 2259 
Q 3253 1453 3087 958 
Q 2922 463 2592 192 
Q 2263 -78 1759 -78 
Q 1097 -78 719 397 
Q 266 969 266 2259 
z
M 844 2259 
Q 844 1131 1108 757 
Q 1372 384 1759 384 
Q 2147 384 2411 759 
Q 2675 1134 2675 2259 
Q 2675 3391 2411 3762 
Q 2147 4134 1753 4134 
Q 1366 4134 1134 3806 
Q 844 3388 844 2259 
z
" id="ArialMT-30" transform="scale(0.015625)"/>
       </defs>
       <use xlink:href="#ArialMT-30"/>
      </g>
     </g>
    </g>
    <g id="xtick_2">
     <g id="text_2">
      <!-- 25 -->
      <g style="fill:#262626;" transform="translate(201.950676 547.315194)scale(0.11 -0.11)">
       <defs>
        <path d="M 3222 541 
L 3222 0 
L 194 0 
Q 188 203 259 391 
Q 375 700 629 1000 
Q 884 1300 1366 1694 
Q 2113 2306 2375 2664 
Q 2638 3022 2638 3341 
Q 2638 3675 2398 3904 
Q 2159 4134 1775 4134 
Q 1369 4134 1125 3890 
Q 881 3647 878 3216 
L 300 3275 
Q 359 3922 746 4261 
Q 1134 4600 1788 4600 
Q 2447 4600 2831 4234 
Q 3216 3869 3216 3328 
Q 3216 3053 3103 2787 
Q 2991 2522 2730 2228 
Q 2469 1934 1863 1422 
Q 1356 997 1212 845 
Q 1069 694 975 541 
L 3222 541 
z
" id="ArialMT-32" transform="scale(0.015625)"/>
        <path d="M 266 1200 
L 856 1250 
Q 922 819 1161 601 
Q 1400 384 1738 384 
Q 2144 384 2425 690 
Q 2706 997 2706 1503 
Q 2706 1984 2436 2262 
Q 2166 2541 1728 2541 
Q 1456 2541 1237 2417 
Q 1019 2294 894 2097 
L 366 2166 
L 809 4519 
L 3088 4519 
L 3088 3981 
L 1259 3981 
L 1013 2750 
Q 1425 3038 1878 3038 
Q 2478 3038 2890 2622 
Q 3303 2206 3303 1553 
Q 3303 931 2941 478 
Q 2500 -78 1738 -78 
Q 1113 -78 717 272 
Q 322 622 266 1200 
z
" id="ArialMT-35" transform="scale(0.015625)"/>
       </defs>
       <use xlink:href="#ArialMT-32"/>
       <use x="55.615234" xlink:href="#ArialMT-35"/>
      </g>
     </g>
    </g>
    <g id="xtick_3">
     <g id="text_3">
      <!-- 50 -->
      <g style="fill:#262626;" transform="translate(275.042928 547.315194)scale(0.11 -0.11)">
       <use xlink:href="#ArialMT-35"/>
       <use x="55.615234" xlink:href="#ArialMT-30"/>
      </g>
     </g>
    </g>
    <g id="xtick_4">
     <g id="text_4">
      <!-- 75 -->
      <g style="fill:#262626;" transform="translate(348.135181 547.315194)scale(0.11 -0.11)">
       <defs>
        <path d="M 303 3981 
L 303 4522 
L 3269 4522 
L 3269 4084 
Q 2831 3619 2401 2847 
Q 1972 2075 1738 1259 
Q 1569 684 1522 0 
L 944 0 
Q 953 541 1156 1306 
Q 1359 2072 1739 2783 
Q 2119 3494 2547 3981 
L 303 3981 
z
" id="ArialMT-37" transform="scale(0.015625)"/>
       </defs>
       <use xlink:href="#ArialMT-37"/>
       <use x="55.615234" xlink:href="#ArialMT-35"/>
      </g>
     </g>
    </g>
    <g id="xtick_5">
     <g id="text_5">
      <!-- 100 -->
      <g style="fill:#262626;" transform="translate(418.168918 547.315194)scale(0.11 -0.11)">
       <defs>
        <path d="M 2384 0 
L 1822 0 
L 1822 3584 
Q 1619 3391 1289 3197 
Q 959 3003 697 2906 
L 697 3450 
Q 1169 3672 1522 3987 
Q 1875 4303 2022 4600 
L 2384 4600 
L 2384 0 
z
" id="ArialMT-31" transform="scale(0.015625)"/>
       </defs>
       <use xlink:href="#ArialMT-31"/>
       <use x="55.615234" xlink:href="#ArialMT-30"/>
       <use x="111.230469" xlink:href="#ArialMT-30"/>
      </g>
     </g>
    </g>
    <g id="xtick_6">
     <g id="text_6">
      <!-- 125 -->
      <g style="fill:#262626;" transform="translate(491.261171 547.315194)scale(0.11 -0.11)">
       <use xlink:href="#ArialMT-31"/>
       <use x="55.615234" xlink:href="#ArialMT-32"/>
       <use x="111.230469" xlink:href="#ArialMT-35"/>
      </g>
     </g>
    </g>
    <g id="xtick_7">
     <g id="text_7">
      <!-- 150 -->
      <g style="fill:#262626;" transform="translate(564.353423 547.315194)scale(0.11 -0.11)">
       <use xlink:href="#ArialMT-31"/>
       <use x="55.615234" xlink:href="#ArialMT-35"/>
       <use x="111.230469" xlink:href="#ArialMT-30"/>
      </g>
     </g>
    </g>
    <g id="xtick_8">
     <g id="text_8">
      <!-- 175 -->
      <g style="fill:#262626;" transform="translate(637.445676 547.315194)scale(0.11 -0.11)">
       <use xlink:href="#ArialMT-31"/>
       <use x="55.615234" xlink:href="#ArialMT-37"/>
       <use x="111.230469" xlink:href="#ArialMT-35"/>
      </g>
     </g>
    </g>
    <g id="xtick_9">
     <g id="text_9">
      <!-- 200 -->
      <g style="fill:#262626;" transform="translate(710.537928 547.315194)scale(0.11 -0.11)">
       <use xlink:href="#ArialMT-32"/>
       <use x="55.615234" xlink:href="#ArialMT-30"/>
       <use x="111.230469" xlink:href="#ArialMT-30"/>
      </g>
     </g>
    </g>
   </g>
   <g id="matplotlib.axis_2">
    <g id="ytick_1">
     <g id="text_10">
      <!-- −25 -->
      <g style="fill:#262626;" transform="translate(77.14125 533.878397)scale(0.11 -0.11)">
       <defs>
        <path d="M 3381 1997 
L 356 1997 
L 356 2522 
L 3381 2522 
L 3381 1997 
z
" id="ArialMT-2212" transform="scale(0.015625)"/>
       </defs>
       <use xlink:href="#ArialMT-2212"/>
       <use x="58.398438" xlink:href="#ArialMT-32"/>
       <use x="114.013672" xlink:href="#ArialMT-35"/>
      </g>
     </g>
    </g>
    <g id="ytick_2">
     <g id="text_11">
      <!-- −20 -->
      <g style="fill:#262626;" transform="translate(77.14125 442.180637)scale(0.11 -0.11)">
       <use xlink:href="#ArialMT-2212"/>
       <use x="58.398438" xlink:href="#ArialMT-32"/>
       <use x="114.013672" xlink:href="#ArialMT-30"/>
      </g>
     </g>
    </g>
    <g id="ytick_3">
     <g id="text_12">
      <!-- −15 -->
      <g style="fill:#262626;" transform="translate(77.14125 350.482877)scale(0.11 -0.11)">
       <use xlink:href="#ArialMT-2212"/>
       <use x="58.398438" xlink:href="#ArialMT-31"/>
       <use x="114.013672" xlink:href="#ArialMT-35"/>
      </g>
     </g>
    </g>
    <g id="ytick_4">
     <g id="text_13">
      <!-- −10 -->
      <g style="fill:#262626;" transform="translate(77.14125 258.785117)scale(0.11 -0.11)">
       <use xlink:href="#ArialMT-2212"/>
       <use x="58.398438" xlink:href="#ArialMT-31"/>
       <use x="114.013672" xlink:href="#ArialMT-30"/>
      </g>
     </g>
    </g>
    <g id="ytick_5">
     <g id="text_14">
      <!-- −5 -->
      <g style="fill:#262626;" transform="translate(83.258281 167.087357)scale(0.11 -0.11)">
       <use xlink:href="#ArialMT-2212"/>
       <use x="58.398438" xlink:href="#ArialMT-35"/>
      </g>
     </g>
    </g>
    <g id="ytick_6">
     <g id="text_15">
      <!-- 0 -->
      <g style="fill:#262626;" transform="translate(89.682969 75.389597)scale(0.11 -0.11)">
       <use xlink:href="#ArialMT-30"/>
      </g>
     </g>
    </g>
   </g>
   <g id="line2d_1">
    <path clip-path="url(#p78e52742ca)" d="M 134.975455 354.913889 
L 137.899145 353.910997 
L 140.822835 353.772442 
L 143.746525 354.630044 
L 146.670215 357.441555 
L 149.593905 355.180926 
L 152.517595 357.188493 
L 155.441285 360.040423 
L 158.364975 360.390712 
L 161.288665 361.782441 
L 164.212356 365.16834 
L 167.136046 369.874538 
L 170.059736 389.233195 
L 172.983426 402.741251 
L 175.907116 406.351773 
L 178.830806 429.432748 
L 181.754496 441.229446 
L 184.678186 387.140486 
L 187.601876 325.986353 
L 190.525567 462.182663 
L 193.449257 404.220621 
L 196.372947 381.379573 
L 199.296637 394.322738 
L 202.220327 204.365904 
L 205.144017 240.341868 
L 208.067707 430.01268 
L 210.991397 363.699271 
L 213.915087 392.034772 
L 216.838777 469.067935 
L 219.762468 498.588469 
L 222.686158 448.583484 
L 225.609848 407.818271 
L 228.533538 387.268128 
L 231.457228 459.698634 
L 234.380918 324.123497 
L 237.304608 420.56282 
L 240.228298 429.279501 
L 243.151988 400.150813 
L 246.075678 289.008013 
L 248.999369 322.704764 
L 251.923059 418.051891 
L 254.846749 390.572541 
L 257.770439 406.378533 
L 260.694129 321.275344 
L 263.617819 448.708118 
L 266.541509 313.512863 
L 269.465199 281.619099 
L 272.388889 341.519938 
L 275.312579 372.608674 
L 278.23627 394.944227 
L 281.15996 387.433898 
L 284.08365 330.486397 
L 287.00734 324.450472 
L 289.93103 387.560245 
L 292.85472 347.137293 
L 295.77841 399.332912 
L 298.7021 455.13204 
L 301.62579 396.009575 
L 304.549481 365.503133 
L 307.473171 325.562833 
L 310.396861 328.481663 
L 313.320551 325.723251 
L 316.244241 401.860211 
L 319.167931 314.653646 
L 322.091621 501.541333 
L 325.015311 425.29207 
L 327.939001 397.985101 
L 330.862691 415.663637 
L 333.786382 440.521418 
L 336.710072 429.797414 
L 339.633762 484.611647 
L 342.557452 406.756666 
L 345.481142 405.035059 
L 348.404832 333.580458 
L 351.328522 378.483621 
L 354.252212 366.939583 
L 357.175902 375.592845 
L 360.099592 353.905942 
L 363.023283 444.443681 
L 365.946973 316.94476 
L 368.870663 345.397112 
L 371.794353 442.716897 
L 374.718043 439.694912 
L 377.641733 438.212008 
L 380.565423 456.394605 
L 383.489113 444.495101 
L 386.412803 319.946947 
L 389.336494 289.841287 
L 392.260184 328.116647 
L 395.183874 412.205593 
L 398.107564 427.832487 
L 401.031254 420.178601 
L 403.954944 407.198252 
L 406.878634 425.508071 
L 412.726014 351.443986 
L 415.649704 412.185934 
L 418.573395 364.48833 
L 421.497085 383.81575 
L 424.420775 443.980897 
L 427.344465 375.747002 
L 430.268155 447.749528 
L 433.191845 442.881303 
L 436.115535 273.249402 
L 439.039225 331.024528 
L 441.962915 434.040023 
L 444.886605 404.130793 
L 447.810296 294.641931 
L 450.733986 336.607918 
L 453.657676 445.797824 
L 456.581366 361.416026 
L 459.505056 413.462946 
L 462.428746 389.49495 
L 465.352436 449.689794 
L 468.276126 407.875044 
L 471.199816 347.718939 
L 474.123506 369.580462 
L 477.047197 417.31406 
L 479.970887 384.066731 
L 482.894577 423.553883 
L 485.818267 347.196409 
L 488.741957 340.879578 
L 491.665647 267.108257 
L 494.589337 271.451154 
L 497.513027 370.190757 
L 500.436717 305.123996 
L 503.360408 310.432724 
L 506.284098 377.946434 
L 509.207788 376.972908 
L 512.131478 456.625403 
L 515.055168 503.197493 
L 517.978858 392.02991 
L 520.902548 444.764447 
L 523.826238 457.220236 
L 526.749928 404.604701 
L 529.673618 420.259719 
L 532.597309 465.603944 
L 535.520999 349.955905 
L 538.444689 160.844238 
L 541.368379 71.452809 
L 544.292069 184.804503 
L 547.215759 279.938052 
L 550.139449 357.410808 
L 553.063139 100.147372 
L 555.986829 71.453902 
L 558.910519 216.987804 
L 561.83421 318.26875 
L 564.7579 303.364716 
L 567.68159 248.561904 
L 570.60528 331.568011 
L 576.45266 432.824576 
L 579.37635 441.580155 
L 582.30004 384.997721 
L 585.22373 334.336462 
L 588.147421 377.729664 
L 591.071111 370.33323 
L 593.994801 391.451027 
L 596.918491 296.520703 
L 602.765871 407.473474 
L 605.689561 263.823013 
L 608.613251 262.130982 
L 611.536941 425.030735 
L 614.460631 446.214504 
L 617.384322 290.513706 
L 620.308012 401.407291 
L 623.231702 485.718901 
L 626.155392 461.737578 
L 629.079082 397.866659 
L 632.002772 350.513363 
L 634.926462 360.668086 
L 637.850152 427.153981 
L 640.773842 362.359645 
L 643.697532 316.886484 
L 646.621223 297.410872 
L 649.544913 308.063166 
L 652.468603 447.30154 
L 655.392293 431.961481 
L 658.315983 420.167442 
L 661.239673 512.797592 
L 664.163363 404.09158 
L 667.087053 374.997557 
L 670.010743 418.807003 
L 672.934433 420.742932 
L 675.858124 444.185249 
L 678.781814 395.090023 
L 681.705504 425.179295 
L 684.629194 429.520268 
L 687.552884 332.148975 
L 690.476574 431.329674 
L 693.400264 417.325638 
L 696.323954 460.543818 
L 699.247644 453.306648 
L 702.171335 417.28821 
L 705.095025 398.313457 
L 708.018715 390.541724 
L 710.942405 389.376893 
L 713.866095 388.971685 
L 716.789785 389.806691 
L 719.713475 389.076135 
L 722.637165 386.930327 
L 725.560855 389.201083 
L 728.484545 389.715323 
L 728.484545 389.715323 
" style="fill:none;stroke:#4c72b0;stroke-linecap:round;stroke-width:1.5;"/>
   </g>
   <g id="line2d_2">
    <path clip-path="url(#p78e52742ca)" d="M 134.975455 344.869562 
L 137.899145 345.626965 
L 140.822835 345.743133 
L 143.746525 346.553898 
L 146.670215 348.08726 
L 149.593905 347.532024 
L 152.517595 347.174652 
L 155.441285 347.691305 
L 158.364975 346.6892 
L 161.288665 346.635594 
L 164.212356 348.292435 
L 167.136046 350.566812 
L 170.059736 369.196837 
L 172.983426 376.876049 
L 175.907116 383.547804 
L 178.830806 410.516062 
L 181.754496 411.75631 
L 184.678186 374.791525 
L 187.601876 304.955376 
L 190.525567 454.412783 
L 193.449257 391.992481 
L 196.372947 379.88768 
L 199.296637 402.03679 
L 202.220327 259.887632 
L 205.144017 277.977585 
L 208.067707 422.981192 
L 210.991397 379.118192 
L 213.915087 368.412552 
L 216.838777 469.855473 
L 219.762468 486.172311 
L 222.686158 439.459252 
L 225.609848 385.04309 
L 228.533538 373.705994 
L 231.457228 446.273026 
L 234.380918 311.778978 
L 237.304608 379.774485 
L 240.228298 409.891426 
L 243.151988 386.175775 
L 246.075678 277.632456 
L 248.999369 327.606168 
L 251.923059 400.911486 
L 254.846749 384.354791 
L 257.770439 409.046101 
L 260.694129 329.569521 
L 263.617819 441.913373 
L 266.541509 329.651548 
L 269.465199 299.673862 
L 272.388889 362.815888 
L 275.312579 394.523978 
L 278.23627 412.275028 
L 281.15996 411.403818 
L 284.08365 349.052391 
L 287.00734 342.684437 
L 289.93103 407.453011 
L 292.85472 362.846845 
L 295.77841 360.418469 
L 298.7021 441.237037 
L 301.62579 391.561354 
L 304.549481 356.752224 
L 307.473171 316.766363 
L 310.396861 307.933426 
L 313.320551 321.354242 
L 316.244241 411.685546 
L 319.167931 343.213631 
L 322.091621 491.088109 
L 325.015311 420.441475 
L 327.939001 419.395225 
L 330.862691 404.395066 
L 333.786382 408.065229 
L 336.710072 470.241511 
L 339.633762 522.469644 
L 342.557452 408.270561 
L 345.481142 380.484053 
L 348.404832 374.697429 
L 351.328522 443.543927 
L 354.252212 326.348307 
L 357.175902 251.058123 
L 360.099592 199.85366 
L 363.023283 236.737292 
L 365.946973 216.112467 
L 368.870663 242.28007 
L 371.794353 323.54736 
L 374.718043 322.283571 
L 377.641733 315.328548 
L 380.565423 402.700849 
L 383.489113 378.878684 
L 386.412803 328.443115 
L 389.336494 285.482404 
L 392.260184 303.563192 
L 395.183874 380.369773 
L 398.107564 396.911987 
L 401.031254 408.664016 
L 403.954944 413.58667 
L 406.878634 415.786172 
L 409.802324 384.861055 
L 412.726014 339.662207 
L 415.649704 396.089049 
L 418.573395 347.6965 
L 421.497085 391.652056 
L 424.420775 426.827619 
L 427.344465 337.651946 
L 430.268155 410.708277 
L 433.191845 407.68902 
L 436.115535 259.744879 
L 439.039225 329.428691 
L 441.962915 429.582322 
L 444.886605 367.674266 
L 447.810296 289.885029 
L 450.733986 366.088976 
L 453.657676 421.270918 
L 456.581366 362.48461 
L 459.505056 408.89233 
L 462.428746 378.620078 
L 465.352436 446.704888 
L 468.276126 390.873613 
L 471.199816 348.135008 
L 474.123506 343.306904 
L 477.047197 435.044367 
L 479.970887 372.864482 
L 482.894577 420.630331 
L 485.818267 360.420918 
L 488.741957 349.449886 
L 491.665647 298.024682 
L 494.589337 260.914135 
L 497.513027 378.955115 
L 500.436717 335.660417 
L 503.360408 345.362534 
L 506.284098 403.629776 
L 509.207788 370.836381 
L 512.131478 454.722635 
L 515.055168 520.301309 
L 517.978858 428.476082 
L 520.902548 456.290995 
L 523.826238 448.028948 
L 526.749928 394.029362 
L 529.673618 410.841096 
L 532.597309 433.781662 
L 535.520999 333.886742 
L 538.444689 121.166327 
L 541.368379 71.452903 
L 544.292069 255.285219 
L 547.215759 331.741669 
L 550.139449 388.83299 
L 553.063139 225.736667 
L 555.986829 131.132836 
L 558.910519 297.815554 
L 561.83421 278.052792 
L 564.7579 286.654039 
L 567.68159 211.689781 
L 570.60528 361.464578 
L 573.52897 223.070392 
L 576.45266 279.594182 
L 579.37635 277.127363 
L 582.30004 250.203319 
L 585.22373 335.939784 
L 588.147421 352.994541 
L 591.071111 365.79553 
L 593.994801 390.638338 
L 596.918491 298.496403 
L 599.842181 379.614067 
L 602.765871 397.999548 
L 605.689561 291.476318 
L 608.613251 284.826076 
L 611.536941 409.023574 
L 614.460631 424.255895 
L 617.384322 347.389673 
L 620.308012 412.467417 
L 623.231702 500.057485 
L 626.155392 470.585539 
L 629.079082 383.024329 
L 632.002772 358.280164 
L 634.926462 363.019051 
L 637.850152 390.757025 
L 640.773842 353.570485 
L 643.697532 298.807707 
L 646.621223 294.908321 
L 649.544913 322.399721 
L 652.468603 448.677685 
L 655.392293 457.727375 
L 658.315983 390.282837 
L 661.239673 500.355584 
L 664.163363 366.827192 
L 667.087053 362.29341 
L 670.010743 421.401638 
L 672.934433 408.268183 
L 675.858124 434.074024 
L 678.781814 407.159179 
L 681.705504 424.703043 
L 684.629194 437.923739 
L 687.552884 345.886394 
L 690.476574 433.44477 
L 693.400264 442.415055 
L 696.323954 470.256588 
L 699.247644 451.177875 
L 702.171335 410.915183 
L 705.095025 394.884691 
L 708.018715 389.0329 
L 710.942405 387.471396 
L 713.866095 383.155189 
L 716.789785 386.78579 
L 719.713475 387.113062 
L 722.637165 381.332351 
L 725.560855 386.098854 
L 728.484545 378.135291 
L 728.484545 378.135291 
" style="fill:none;stroke:#dd8452;stroke-dasharray:6,2.25;stroke-dashoffset:0;stroke-width:1.5;"/>
   </g>
   <g id="line2d_3">
    <path clip-path="url(#p78e52742ca)" d="M 134.975455 341.44571 
L 137.899145 341.028382 
L 140.822835 341.754898 
L 143.746525 340.971925 
L 146.670215 349.526334 
L 149.593905 348.065188 
L 152.517595 349.198502 
L 155.441285 377.428627 
L 158.364975 376.496796 
L 161.288665 366.179539 
L 164.212356 366.013734 
L 167.136046 358.863839 
L 170.059736 360.089535 
L 172.983426 369.717828 
L 175.907116 384.005656 
L 178.830806 399.956044 
L 181.754496 405.401683 
L 184.678186 315.313052 
L 187.601876 279.261016 
L 190.525567 324.207186 
L 193.449257 318.855923 
L 196.372947 306.891549 
L 199.296637 305.098531 
L 202.220327 289.56185 
L 205.144017 255.111859 
L 208.067707 282.267312 
L 210.991397 308.369433 
L 213.915087 336.508242 
L 216.838777 403.252727 
L 219.762468 388.38878 
L 222.686158 363.099627 
L 225.609848 305.508338 
L 228.533538 327.086891 
L 231.457228 392.731047 
L 234.380918 285.823353 
L 237.304608 379.875577 
L 240.228298 423.95122 
L 243.151988 389.682267 
L 246.075678 243.424998 
L 248.999369 342.272286 
L 251.923059 374.882438 
L 254.846749 390.386623 
L 257.770439 409.652618 
L 260.694129 306.222471 
L 263.617819 392.750216 
L 266.541509 303.108296 
L 269.465199 294.099148 
L 272.388889 320.201443 
L 275.312579 383.752961 
L 278.23627 410.29422 
L 281.15996 395.93923 
L 284.08365 378.222846 
L 287.00734 117.438478 
L 289.93103 162.323608 
L 292.85472 229.083948 
L 295.77841 355.071019 
L 298.7021 449.640158 
L 301.62579 426.872708 
L 304.549481 365.379164 
L 307.473171 289.249514 
L 310.396861 316.803232 
L 313.320551 331.654604 
L 316.244241 439.729367 
L 319.167931 355.327719 
L 322.091621 517.016625 
L 325.015311 426.86865 
L 327.939001 415.82395 
L 330.862691 430.225603 
L 333.786382 423.657808 
L 336.710072 460.553123 
L 339.633762 527.399294 
L 342.557452 422.125058 
L 345.481142 414.972819 
L 348.404832 383.64092 
L 351.328522 462.44928 
L 354.252212 410.963071 
L 357.175902 386.34221 
L 360.099592 324.91093 
L 363.023283 218.55034 
L 365.946973 238.105164 
L 368.870663 262.578375 
L 371.794353 248.876793 
L 374.718043 279.448665 
L 377.641733 291.345371 
L 380.565423 296.072505 
L 383.489113 349.073851 
L 386.412803 354.814581 
L 389.336494 296.65597 
L 392.260184 282.764639 
L 395.183874 319.748471 
L 398.107564 417.221153 
L 401.031254 372.544555 
L 403.954944 396.022063 
L 406.878634 414.261292 
L 409.802324 451.785651 
L 412.726014 366.964733 
L 415.649704 444.295086 
L 418.573395 399.759702 
L 421.497085 401.471305 
L 424.420775 422.135272 
L 427.344465 337.454624 
L 430.268155 338.0401 
L 433.191845 261.215487 
L 436.115535 248.887934 
L 439.039225 280.927477 
L 441.962915 345.059119 
L 444.886605 339.952732 
L 447.810296 276.740188 
L 450.733986 263.937572 
L 453.657676 304.099242 
L 456.581366 332.573753 
L 459.505056 428.711007 
L 462.428746 376.387939 
L 465.352436 448.821453 
L 468.276126 375.630834 
L 471.199816 307.611471 
L 474.123506 276.134336 
L 477.047197 395.965745 
L 479.970887 383.468015 
L 482.894577 400.273137 
L 485.818267 339.136878 
L 488.741957 320.296484 
L 491.665647 190.004697 
L 494.589337 212.701916 
L 497.513027 292.319159 
L 500.436717 205.435773 
L 503.360408 297.214057 
L 506.284098 298.161733 
L 509.207788 353.872099 
L 512.131478 396.957426 
L 515.055168 276.87173 
L 517.978858 259.204649 
L 520.902548 311.424195 
L 523.826238 367.97247 
L 526.749928 392.232723 
L 529.673618 317.961347 
L 532.597309 345.258294 
L 535.520999 274.12745 
L 538.444689 71.470076 
L 541.368379 72.424315 
L 544.292069 303.736483 
L 547.215759 315.595183 
L 550.139449 344.935185 
L 553.063139 234.279795 
L 555.986829 152.466748 
L 558.910519 246.023096 
L 561.83421 229.93298 
L 564.7579 255.503319 
L 567.68159 316.731173 
L 570.60528 304.439019 
L 573.52897 320.873827 
L 576.45266 413.936189 
L 579.37635 360.651418 
L 582.30004 320.632833 
L 585.22373 376.085712 
L 588.147421 327.000928 
L 591.071111 151.149903 
L 593.994801 211.760825 
L 596.918491 216.950656 
L 599.842181 296.802361 
L 602.765871 273.301609 
L 605.689561 306.338796 
L 608.613251 301.412959 
L 611.536941 413.222669 
L 614.460631 445.901784 
L 617.384322 314.209628 
L 623.231702 489.189294 
L 626.155392 443.720436 
L 629.079082 374.581331 
L 632.002772 375.656124 
L 634.926462 379.35658 
L 637.850152 398.690436 
L 640.773842 357.474157 
L 643.697532 337.630556 
L 646.621223 342.018437 
L 649.544913 393.756658 
L 652.468603 422.095675 
L 655.392293 473.908142 
L 658.315983 393.167596 
L 661.239673 390.982366 
L 664.163363 272.077295 
L 667.087053 128.221864 
L 670.010743 141.498331 
L 672.934433 290.312309 
L 675.858124 481.745497 
L 678.781814 420.878444 
L 681.705504 325.691157 
L 684.629194 326.085398 
L 687.552884 380.76711 
L 690.476574 346.506728 
L 693.400264 406.745997 
L 696.323954 456.179059 
L 702.171335 400.606881 
L 705.095025 370.138077 
L 708.018715 363.090935 
L 710.942405 363.508787 
L 713.866095 354.448026 
L 716.789785 356.706505 
L 719.713475 358.133091 
L 722.637165 357.633193 
L 725.560855 359.096805 
L 728.484545 356.755617 
L 728.484545 356.755617 
" style="fill:none;stroke:#55a868;stroke-dasharray:1.5,1.5;stroke-dashoffset:0;stroke-width:1.5;"/>
   </g>
   <g id="line2d_4">
    <path clip-path="url(#p78e52742ca)" d="M 134.975455 345.307004 
L 137.899145 346.14612 
L 140.822835 346.266031 
L 143.746525 346.920208 
L 146.670215 348.654949 
L 149.593905 348.126245 
L 152.517595 347.743198 
L 155.441285 348.236625 
L 158.364975 347.385126 
L 161.288665 347.372551 
L 164.212356 348.989602 
L 167.136046 351.318146 
L 170.059736 369.791811 
L 172.983426 377.398719 
L 175.907116 383.96361 
L 178.830806 410.951947 
L 181.754496 412.781117 
L 184.678186 376.154693 
L 187.601876 306.938824 
L 190.525567 456.011295 
L 193.449257 395.097648 
L 196.372947 382.10936 
L 199.296637 405.486615 
L 202.220327 264.597503 
L 205.144017 278.426762 
L 208.067707 428.246159 
L 210.991397 378.795887 
L 213.915087 387.36149 
L 216.838777 467.4824 
L 219.762468 485.873198 
L 222.686158 438.99318 
L 225.609848 384.484391 
L 228.533538 375.399476 
L 231.457228 448.38298 
L 234.380918 312.781136 
L 237.304608 384.690003 
L 240.228298 414.495308 
L 243.151988 389.356814 
L 246.075678 281.867457 
L 248.999369 329.659454 
L 251.923059 400.244944 
L 254.846749 383.283286 
L 257.770439 406.837854 
L 260.694129 331.592951 
L 263.617819 444.870576 
L 266.541509 325.593458 
L 269.465199 302.581883 
L 272.388889 371.688317 
L 275.312579 404.960272 
L 278.23627 417.52268 
L 281.15996 408.361229 
L 284.08365 346.806348 
L 287.00734 350.931093 
L 289.93103 410.623626 
L 292.85472 353.146773 
L 295.77841 360.377175 
L 298.7021 438.799706 
L 301.62579 389.824216 
L 304.549481 362.379076 
L 307.473171 317.915908 
L 310.396861 310.385973 
L 313.320551 320.657039 
L 316.244241 410.536246 
L 319.167931 337.351573 
L 322.091621 509.819926 
L 325.015311 418.255579 
L 327.939001 412.817881 
L 330.862691 420.570306 
L 333.786382 416.374884 
L 336.710072 462.475165 
L 339.633762 527.455717 
L 342.557452 401.341599 
L 345.481142 369.929352 
L 348.404832 313.509837 
L 351.328522 424.510549 
L 354.252212 229.05327 
L 357.175902 330.830512 
L 360.099592 239.934894 
L 363.023283 352.892889 
L 365.946973 224.859808 
L 368.870663 249.102483 
L 371.794353 335.830646 
L 374.718043 342.910547 
L 377.641733 314.745101 
L 380.565423 398.942431 
L 383.489113 371.407148 
L 386.412803 330.686552 
L 389.336494 286.695071 
L 392.260184 304.288973 
L 395.183874 380.973632 
L 398.107564 401.739461 
L 401.031254 412.761423 
L 403.954944 411.268271 
L 406.878634 406.733299 
L 409.802324 386.679976 
L 412.726014 339.145046 
L 415.649704 396.802675 
L 418.573395 347.490905 
L 421.497085 395.941259 
L 424.420775 434.378314 
L 427.344465 341.016559 
L 430.268155 407.824567 
L 433.191845 403.259233 
L 436.115535 257.961008 
L 439.039225 329.245117 
L 441.962915 429.610096 
L 444.886605 368.927527 
L 447.810296 291.386805 
L 453.657676 438.187173 
L 456.581366 372.142811 
L 459.505056 410.823431 
L 462.428746 378.402118 
L 465.352436 457.029281 
L 468.276126 396.158135 
L 471.199816 349.265926 
L 474.123506 344.958499 
L 477.047197 435.123386 
L 479.970887 368.719851 
L 482.894577 416.812168 
L 485.818267 360.280368 
L 488.741957 349.880646 
L 491.665647 299.588616 
L 494.589337 261.322543 
L 497.513027 381.122506 
L 500.436717 335.696411 
L 503.360408 344.974695 
L 506.284098 392.944774 
L 509.207788 369.65399 
L 512.131478 451.719994 
L 515.055168 512.667606 
L 517.978858 397.003634 
L 520.902548 439.690819 
L 523.826238 450.409436 
L 526.749928 393.129293 
L 529.673618 404.000563 
L 532.597309 436.245927 
L 535.520999 351.503154 
L 538.444689 140.223488 
L 541.368379 71.452901 
L 544.292069 237.043384 
L 547.215759 286.199108 
L 550.139449 352.231401 
L 553.063139 119.16743 
L 555.986829 71.611673 
L 558.910519 219.764213 
L 561.83421 207.320124 
L 564.7579 172.965995 
L 567.68159 199.784654 
L 570.60528 312.102857 
L 573.52897 336.063962 
L 576.45266 357.835167 
L 579.37635 320.806386 
L 582.30004 269.9693 
L 585.22373 370.363977 
L 588.147421 369.491158 
L 591.071111 355.481456 
L 593.994801 422.122749 
L 596.918491 319.787946 
L 599.842181 372.365353 
L 602.765871 417.947266 
L 605.689561 278.265627 
L 608.613251 287.599127 
L 611.536941 414.198364 
L 614.460631 436.186426 
L 617.384322 346.734779 
L 620.308012 416.164375 
L 623.231702 504.002276 
L 626.155392 470.127197 
L 629.079082 385.483523 
L 632.002772 360.631672 
L 634.926462 370.242667 
L 637.850152 389.298957 
L 640.773842 354.539586 
L 643.697532 295.58039 
L 646.621223 296.052059 
L 649.544913 323.649082 
L 652.468603 451.063176 
L 655.392293 457.903919 
L 658.315983 390.06876 
L 661.239673 500.526041 
L 664.163363 369.26935 
L 667.087053 365.15106 
L 670.010743 422.521171 
L 672.934433 409.407619 
L 675.858124 434.003889 
L 678.781814 408.745274 
L 681.705504 423.948946 
L 684.629194 439.974821 
L 687.552884 347.845409 
L 690.476574 435.109359 
L 693.400264 443.472568 
L 696.323954 470.842991 
L 699.247644 453.908338 
L 702.171335 412.222943 
L 705.095025 397.196164 
L 708.018715 392.136808 
L 710.942405 391.228345 
L 713.866095 387.141011 
L 716.789785 389.725188 
L 719.713475 389.994043 
L 722.637165 384.926852 
L 725.560855 389.869305 
L 728.484545 382.416693 
L 728.484545 382.416693 
" style="fill:none;stroke:#c44e52;stroke-dasharray:4.5,1.875,2.25,1.875;stroke-dashoffset:0;stroke-width:1.5;"/>
   </g>
   <g id="line2d_5">
    <path clip-path="url(#p78e52742ca)" d="M 134.975455 346.481629 
L 137.899145 347.068155 
L 140.822835 347.398278 
L 143.746525 348.217718 
L 146.670215 350.327199 
L 149.593905 349.537195 
L 152.517595 350.077723 
L 155.441285 350.083617 
L 158.364975 348.998837 
L 164.212356 349.250465 
L 167.136046 350.9585 
L 170.059736 368.5998 
L 172.983426 376.533665 
L 175.907116 382.362544 
L 178.830806 410.297018 
L 181.754496 421.522774 
L 184.678186 376.980884 
L 187.601876 318.749462 
L 190.525567 457.119494 
L 193.449257 401.720152 
L 196.372947 391.900484 
L 199.296637 411.275302 
L 202.220327 254.98831 
L 205.144017 263.07063 
L 208.067707 434.613764 
L 210.991397 377.732567 
L 213.915087 374.764521 
L 216.838777 463.20719 
L 219.762468 487.057653 
L 225.609848 400.416205 
L 228.533538 379.325448 
L 231.457228 454.011354 
L 234.380918 318.283477 
L 237.304608 385.713306 
L 240.228298 411.387867 
L 243.151988 388.835823 
L 246.075678 280.023246 
L 248.999369 326.078944 
L 251.923059 412.335543 
L 254.846749 389.583834 
L 257.770439 411.706009 
L 260.694129 328.469052 
L 263.617819 447.32753 
L 266.541509 322.874924 
L 269.465199 301.922214 
L 272.388889 364.271629 
L 275.312579 399.664067 
L 278.23627 415.269064 
L 281.15996 412.378883 
L 284.08365 351.655177 
L 287.00734 348.046841 
L 289.93103 410.355959 
L 292.85472 360.648462 
L 295.77841 367.367737 
L 298.7021 435.916661 
L 301.62579 386.504412 
L 304.549481 358.192522 
L 307.473171 314.995942 
L 310.396861 319.591866 
L 313.320551 322.569234 
L 316.244241 400.770202 
L 319.167931 328.051357 
L 322.091621 499.728849 
L 325.015311 419.979985 
L 327.939001 365.128218 
L 330.862691 371.641619 
L 333.786382 398.949148 
L 336.710072 423.582846 
L 339.633762 436.239246 
L 342.557452 374.658777 
L 345.481142 419.572748 
L 348.404832 317.370938 
L 351.328522 360.297229 
L 354.252212 390.651491 
L 357.175902 390.386238 
L 360.099592 337.563219 
L 363.023283 441.146684 
L 365.946973 294.363578 
L 368.870663 312.881073 
L 371.794353 377.58887 
L 374.718043 379.212637 
L 377.641733 405.909347 
L 380.565423 439.623973 
L 383.489113 412.125454 
L 386.412803 298.82406 
L 389.336494 275.574394 
L 392.260184 321.896273 
L 395.183874 407.157291 
L 398.107564 399.430506 
L 401.031254 431.813971 
L 403.954944 419.260623 
L 406.878634 422.887445 
L 409.802324 417.067277 
L 412.726014 357.075421 
L 415.649704 427.185183 
L 418.573395 349.59493 
L 421.497085 400.938491 
L 424.420775 435.3092 
L 427.344465 337.371162 
L 430.268155 399.513164 
L 433.191845 413.842373 
L 436.115535 262.710931 
L 439.039225 323.638098 
L 441.962915 436.206365 
L 444.886605 381.177564 
L 447.810296 306.115677 
L 453.657676 429.687227 
L 456.581366 378.654708 
L 459.505056 394.851425 
L 462.428746 372.786896 
L 465.352436 449.64446 
L 468.276126 399.717097 
L 471.199816 357.070716 
L 474.123506 357.022986 
L 477.047197 425.611297 
L 479.970887 375.176374 
L 482.894577 415.891846 
L 485.818267 358.455798 
L 488.741957 291.656203 
L 491.665647 370.764322 
L 494.589337 88.72772 
L 497.513027 71.456888 
L 500.436717 208.640345 
L 503.360408 299.113362 
L 506.284098 337.910937 
L 509.207788 277.648022 
L 512.131478 350.199138 
L 515.055168 349.807748 
L 517.978858 438.189061 
L 520.902548 450.451692 
L 523.826238 378.572225 
L 526.749928 350.472768 
L 529.673618 361.957078 
L 532.597309 308.967153 
L 535.520999 382.708321 
L 538.444689 316.642726 
L 541.368379 294.19529 
L 544.292069 138.665823 
L 547.215759 175.230333 
L 550.139449 219.989239 
L 553.063139 130.007987 
L 555.986829 107.711419 
L 558.910519 121.907919 
L 561.83421 153.764967 
L 564.7579 193.969863 
L 567.68159 259.862901 
L 570.60528 264.209629 
L 573.52897 283.779722 
L 576.45266 348.856189 
L 579.37635 367.015175 
L 582.30004 280.938565 
L 585.22373 344.102628 
L 588.147421 340.191138 
L 591.071111 308.826498 
L 593.994801 378.503175 
L 596.918491 313.965696 
L 599.842181 364.411147 
L 602.765871 417.485392 
L 605.689561 279.908546 
L 608.613251 302.243907 
L 611.536941 420.924757 
L 614.460631 446.377266 
L 617.384322 340.256516 
L 620.308012 419.537663 
L 623.231702 490.681713 
L 626.155392 464.763411 
L 629.079082 383.497363 
L 632.002772 356.494054 
L 634.926462 368.893456 
L 637.850152 383.887599 
L 640.773842 345.108073 
L 643.697532 282.952272 
L 646.621223 292.466355 
L 649.544913 318.299568 
L 652.468603 446.269388 
L 655.392293 443.868926 
L 658.315983 385.867392 
L 661.239673 489.53591 
L 664.163363 372.151941 
L 667.087053 366.258174 
L 670.010743 422.016026 
L 672.934433 417.634861 
L 675.858124 431.506638 
L 678.781814 396.492368 
L 681.705504 423.261766 
L 684.629194 430.652778 
L 687.552884 339.851098 
L 690.476574 423.877832 
L 693.400264 436.630041 
L 696.323954 465.363876 
L 699.247644 451.384921 
L 702.171335 403.054111 
L 705.095025 391.102102 
L 708.018715 386.265813 
L 710.942405 384.202313 
L 713.866095 381.010011 
L 716.789785 383.138154 
L 719.713475 383.085299 
L 722.637165 376.926665 
L 725.560855 382.320918 
L 728.484545 376.013129 
L 728.484545 376.013129 
" style="fill:none;stroke:#8172b3;stroke-dasharray:7.5,1.5,1.5,1.5;stroke-dashoffset:0;stroke-width:1.5;"/>
   </g>
   <g id="line2d_6"/>
   <g id="line2d_7"/>
   <g id="line2d_8"/>
   <g id="line2d_9"/>
   <g id="line2d_10"/>
   <g id="patch_3">
    <path d="M 105.3 529.9416 
L 105.3 71.4528 
" style="fill:none;stroke:#262626;stroke-linecap:square;stroke-linejoin:miter;stroke-width:1.25;"/>
   </g>
   <g id="patch_4">
    <path d="M 758.16 529.9416 
L 758.16 71.4528 
" style="fill:none;stroke:#262626;stroke-linecap:square;stroke-linejoin:miter;stroke-width:1.25;"/>
   </g>
   <g id="patch_5">
    <path d="M 105.3 529.9416 
L 758.16 529.9416 
" style="fill:none;stroke:#262626;stroke-linecap:square;stroke-linejoin:miter;stroke-width:1.25;"/>
   </g>
   <g id="patch_6">
    <path d="M 105.3 71.4528 
L 758.16 71.4528 
" style="fill:none;stroke:#262626;stroke-linecap:square;stroke-linejoin:miter;stroke-width:1.25;"/>
   </g>
   <g id="text_16">
    <!-- Activations for &gt;C&lt; -->
    <g style="fill:#262626;" transform="translate(381.04125 65.4528)scale(0.12 -0.12)">
     <defs>
      <path d="M -9 0 
L 1750 4581 
L 2403 4581 
L 4278 0 
L 3588 0 
L 3053 1388 
L 1138 1388 
L 634 0 
L -9 0 
z
M 1313 1881 
L 2866 1881 
L 2388 3150 
Q 2169 3728 2063 4100 
Q 1975 3659 1816 3225 
L 1313 1881 
z
" id="ArialMT-41" transform="scale(0.015625)"/>
      <path d="M 2588 1216 
L 3141 1144 
Q 3050 572 2676 248 
Q 2303 -75 1759 -75 
Q 1078 -75 664 370 
Q 250 816 250 1647 
Q 250 2184 428 2587 
Q 606 2991 970 3192 
Q 1334 3394 1763 3394 
Q 2303 3394 2647 3120 
Q 2991 2847 3088 2344 
L 2541 2259 
Q 2463 2594 2264 2762 
Q 2066 2931 1784 2931 
Q 1359 2931 1093 2626 
Q 828 2322 828 1663 
Q 828 994 1084 691 
Q 1341 388 1753 388 
Q 2084 388 2306 591 
Q 2528 794 2588 1216 
z
" id="ArialMT-63" transform="scale(0.015625)"/>
      <path d="M 1650 503 
L 1731 6 
Q 1494 -44 1306 -44 
Q 1000 -44 831 53 
Q 663 150 594 308 
Q 525 466 525 972 
L 525 2881 
L 113 2881 
L 113 3319 
L 525 3319 
L 525 4141 
L 1084 4478 
L 1084 3319 
L 1650 3319 
L 1650 2881 
L 1084 2881 
L 1084 941 
Q 1084 700 1114 631 
Q 1144 563 1211 522 
Q 1278 481 1403 481 
Q 1497 481 1650 503 
z
" id="ArialMT-74" transform="scale(0.015625)"/>
      <path d="M 425 3934 
L 425 4581 
L 988 4581 
L 988 3934 
L 425 3934 
z
M 425 0 
L 425 3319 
L 988 3319 
L 988 0 
L 425 0 
z
" id="ArialMT-69" transform="scale(0.015625)"/>
      <path d="M 1344 0 
L 81 3319 
L 675 3319 
L 1388 1331 
Q 1503 1009 1600 663 
Q 1675 925 1809 1294 
L 2547 3319 
L 3125 3319 
L 1869 0 
L 1344 0 
z
" id="ArialMT-76" transform="scale(0.015625)"/>
      <path d="M 2588 409 
Q 2275 144 1986 34 
Q 1697 -75 1366 -75 
Q 819 -75 525 192 
Q 231 459 231 875 
Q 231 1119 342 1320 
Q 453 1522 633 1644 
Q 813 1766 1038 1828 
Q 1203 1872 1538 1913 
Q 2219 1994 2541 2106 
Q 2544 2222 2544 2253 
Q 2544 2597 2384 2738 
Q 2169 2928 1744 2928 
Q 1347 2928 1158 2789 
Q 969 2650 878 2297 
L 328 2372 
Q 403 2725 575 2942 
Q 747 3159 1072 3276 
Q 1397 3394 1825 3394 
Q 2250 3394 2515 3294 
Q 2781 3194 2906 3042 
Q 3031 2891 3081 2659 
Q 3109 2516 3109 2141 
L 3109 1391 
Q 3109 606 3145 398 
Q 3181 191 3288 0 
L 2700 0 
Q 2613 175 2588 409 
z
M 2541 1666 
Q 2234 1541 1622 1453 
Q 1275 1403 1131 1340 
Q 988 1278 909 1158 
Q 831 1038 831 891 
Q 831 666 1001 516 
Q 1172 366 1500 366 
Q 1825 366 2078 508 
Q 2331 650 2450 897 
Q 2541 1088 2541 1459 
L 2541 1666 
z
" id="ArialMT-61" transform="scale(0.015625)"/>
      <path d="M 213 1659 
Q 213 2581 725 3025 
Q 1153 3394 1769 3394 
Q 2453 3394 2887 2945 
Q 3322 2497 3322 1706 
Q 3322 1066 3130 698 
Q 2938 331 2570 128 
Q 2203 -75 1769 -75 
Q 1072 -75 642 372 
Q 213 819 213 1659 
z
M 791 1659 
Q 791 1022 1069 705 
Q 1347 388 1769 388 
Q 2188 388 2466 706 
Q 2744 1025 2744 1678 
Q 2744 2294 2464 2611 
Q 2184 2928 1769 2928 
Q 1347 2928 1069 2612 
Q 791 2297 791 1659 
z
" id="ArialMT-6f" transform="scale(0.015625)"/>
      <path d="M 422 0 
L 422 3319 
L 928 3319 
L 928 2847 
Q 1294 3394 1984 3394 
Q 2284 3394 2536 3286 
Q 2788 3178 2913 3003 
Q 3038 2828 3088 2588 
Q 3119 2431 3119 2041 
L 3119 0 
L 2556 0 
L 2556 2019 
Q 2556 2363 2490 2533 
Q 2425 2703 2258 2804 
Q 2091 2906 1866 2906 
Q 1506 2906 1245 2678 
Q 984 2450 984 1813 
L 984 0 
L 422 0 
z
" id="ArialMT-6e" transform="scale(0.015625)"/>
      <path d="M 197 991 
L 753 1078 
Q 800 744 1014 566 
Q 1228 388 1613 388 
Q 2000 388 2187 545 
Q 2375 703 2375 916 
Q 2375 1106 2209 1216 
Q 2094 1291 1634 1406 
Q 1016 1563 777 1677 
Q 538 1791 414 1992 
Q 291 2194 291 2438 
Q 291 2659 392 2848 
Q 494 3038 669 3163 
Q 800 3259 1026 3326 
Q 1253 3394 1513 3394 
Q 1903 3394 2198 3281 
Q 2494 3169 2634 2976 
Q 2775 2784 2828 2463 
L 2278 2388 
Q 2241 2644 2061 2787 
Q 1881 2931 1553 2931 
Q 1166 2931 1000 2803 
Q 834 2675 834 2503 
Q 834 2394 903 2306 
Q 972 2216 1119 2156 
Q 1203 2125 1616 2013 
Q 2213 1853 2448 1751 
Q 2684 1650 2818 1456 
Q 2953 1263 2953 975 
Q 2953 694 2789 445 
Q 2625 197 2315 61 
Q 2006 -75 1616 -75 
Q 969 -75 630 194 
Q 291 463 197 991 
z
" id="ArialMT-73" transform="scale(0.015625)"/>
      <path id="ArialMT-20" transform="scale(0.015625)"/>
      <path d="M 556 0 
L 556 2881 
L 59 2881 
L 59 3319 
L 556 3319 
L 556 3672 
Q 556 4006 616 4169 
Q 697 4388 901 4523 
Q 1106 4659 1475 4659 
Q 1713 4659 2000 4603 
L 1916 4113 
Q 1741 4144 1584 4144 
Q 1328 4144 1222 4034 
Q 1116 3925 1116 3625 
L 1116 3319 
L 1763 3319 
L 1763 2881 
L 1116 2881 
L 1116 0 
L 556 0 
z
" id="ArialMT-66" transform="scale(0.015625)"/>
      <path d="M 416 0 
L 416 3319 
L 922 3319 
L 922 2816 
Q 1116 3169 1280 3281 
Q 1444 3394 1641 3394 
Q 1925 3394 2219 3213 
L 2025 2691 
Q 1819 2813 1613 2813 
Q 1428 2813 1281 2702 
Q 1134 2591 1072 2394 
Q 978 2094 978 1738 
L 978 0 
L 416 0 
z
" id="ArialMT-72" transform="scale(0.015625)"/>
      <path d="M 3384 2003 
L 350 706 
L 350 1266 
L 2753 2263 
L 350 3250 
L 350 3809 
L 3384 2528 
L 3384 2003 
z
" id="ArialMT-3e" transform="scale(0.015625)"/>
      <path d="M 3763 1606 
L 4369 1453 
Q 4178 706 3683 314 
Q 3188 -78 2472 -78 
Q 1731 -78 1267 223 
Q 803 525 561 1097 
Q 319 1669 319 2325 
Q 319 3041 592 3573 
Q 866 4106 1370 4382 
Q 1875 4659 2481 4659 
Q 3169 4659 3637 4309 
Q 4106 3959 4291 3325 
L 3694 3184 
Q 3534 3684 3231 3912 
Q 2928 4141 2469 4141 
Q 1941 4141 1586 3887 
Q 1231 3634 1087 3207 
Q 944 2781 944 2328 
Q 944 1744 1114 1308 
Q 1284 872 1643 656 
Q 2003 441 2422 441 
Q 2931 441 3284 734 
Q 3638 1028 3763 1606 
z
" id="ArialMT-43" transform="scale(0.015625)"/>
      <path d="M 350 2003 
L 350 2528 
L 3384 3809 
L 3384 3250 
L 978 2263 
L 3384 1266 
L 3384 706 
L 350 2003 
z
" id="ArialMT-3c" transform="scale(0.015625)"/>
     </defs>
     <use xlink:href="#ArialMT-41"/>
     <use x="66.699219" xlink:href="#ArialMT-63"/>
     <use x="116.699219" xlink:href="#ArialMT-74"/>
     <use x="144.482422" xlink:href="#ArialMT-69"/>
     <use x="166.699219" xlink:href="#ArialMT-76"/>
     <use x="216.699219" xlink:href="#ArialMT-61"/>
     <use x="272.314453" xlink:href="#ArialMT-74"/>
     <use x="300.097656" xlink:href="#ArialMT-69"/>
     <use x="322.314453" xlink:href="#ArialMT-6f"/>
     <use x="377.929688" xlink:href="#ArialMT-6e"/>
     <use x="433.544922" xlink:href="#ArialMT-73"/>
     <use x="483.544922" xlink:href="#ArialMT-20"/>
     <use x="511.328125" xlink:href="#ArialMT-66"/>
     <use x="539.111328" xlink:href="#ArialMT-6f"/>
     <use x="594.726562" xlink:href="#ArialMT-72"/>
     <use x="628.027344" xlink:href="#ArialMT-20"/>
     <use x="655.810547" xlink:href="#ArialMT-3e"/>
     <use x="714.208984" xlink:href="#ArialMT-43"/>
     <use x="786.425781" xlink:href="#ArialMT-3c"/>
    </g>
   </g>
   <g id="legend_1">
    <g id="patch_7">
     <path d="M 113 158.514363 
L 223.415938 158.514363 
Q 225.615938 158.514363 225.615938 156.314363 
L 225.615938 79.1528 
Q 225.615938 76.9528 223.415938 76.9528 
L 113 76.9528 
Q 110.8 76.9528 110.8 79.1528 
L 110.8 156.314363 
Q 110.8 158.514363 113 158.514363 
z
" style="fill:#ffffff;opacity:0.8;stroke:#cccccc;stroke-linejoin:miter;"/>
    </g>
    <g id="line2d_11">
     <path d="M 115.2 85.376394 
L 137.2 85.376394 
" style="fill:none;stroke:#4c72b0;stroke-linecap:round;stroke-width:1.5;"/>
    </g>
    <g id="line2d_12"/>
    <g id="text_17">
     <!-- regular -->
     <g style="fill:#262626;" transform="translate(146 89.226394)scale(0.11 -0.11)">
      <defs>
       <path d="M 2694 1069 
L 3275 997 
Q 3138 488 2766 206 
Q 2394 -75 1816 -75 
Q 1088 -75 661 373 
Q 234 822 234 1631 
Q 234 2469 665 2931 
Q 1097 3394 1784 3394 
Q 2450 3394 2872 2941 
Q 3294 2488 3294 1666 
Q 3294 1616 3291 1516 
L 816 1516 
Q 847 969 1125 678 
Q 1403 388 1819 388 
Q 2128 388 2347 550 
Q 2566 713 2694 1069 
z
M 847 1978 
L 2700 1978 
Q 2663 2397 2488 2606 
Q 2219 2931 1791 2931 
Q 1403 2931 1139 2672 
Q 875 2413 847 1978 
z
" id="ArialMT-65" transform="scale(0.015625)"/>
       <path d="M 319 -275 
L 866 -356 
Q 900 -609 1056 -725 
Q 1266 -881 1628 -881 
Q 2019 -881 2231 -725 
Q 2444 -569 2519 -288 
Q 2563 -116 2559 434 
Q 2191 0 1641 0 
Q 956 0 581 494 
Q 206 988 206 1678 
Q 206 2153 378 2554 
Q 550 2956 876 3175 
Q 1203 3394 1644 3394 
Q 2231 3394 2613 2919 
L 2613 3319 
L 3131 3319 
L 3131 450 
Q 3131 -325 2973 -648 
Q 2816 -972 2473 -1159 
Q 2131 -1347 1631 -1347 
Q 1038 -1347 672 -1080 
Q 306 -813 319 -275 
z
M 784 1719 
Q 784 1066 1043 766 
Q 1303 466 1694 466 
Q 2081 466 2343 764 
Q 2606 1063 2606 1700 
Q 2606 2309 2336 2618 
Q 2066 2928 1684 2928 
Q 1309 2928 1046 2623 
Q 784 2319 784 1719 
z
" id="ArialMT-67" transform="scale(0.015625)"/>
       <path d="M 2597 0 
L 2597 488 
Q 2209 -75 1544 -75 
Q 1250 -75 995 37 
Q 741 150 617 320 
Q 494 491 444 738 
Q 409 903 409 1263 
L 409 3319 
L 972 3319 
L 972 1478 
Q 972 1038 1006 884 
Q 1059 663 1231 536 
Q 1403 409 1656 409 
Q 1909 409 2131 539 
Q 2353 669 2445 892 
Q 2538 1116 2538 1541 
L 2538 3319 
L 3100 3319 
L 3100 0 
L 2597 0 
z
" id="ArialMT-75" transform="scale(0.015625)"/>
       <path d="M 409 0 
L 409 4581 
L 972 4581 
L 972 0 
L 409 0 
z
" id="ArialMT-6c" transform="scale(0.015625)"/>
      </defs>
      <use xlink:href="#ArialMT-72"/>
      <use x="33.300781" xlink:href="#ArialMT-65"/>
      <use x="88.916016" xlink:href="#ArialMT-67"/>
      <use x="144.53125" xlink:href="#ArialMT-75"/>
      <use x="200.146484" xlink:href="#ArialMT-6c"/>
      <use x="222.363281" xlink:href="#ArialMT-61"/>
      <use x="277.978516" xlink:href="#ArialMT-72"/>
     </g>
    </g>
    <g id="line2d_13">
     <path d="M 115.2 101.0978 
L 137.2 101.0978 
" style="fill:none;stroke:#dd8452;stroke-dasharray:6,2.25;stroke-dashoffset:0;stroke-width:1.5;"/>
    </g>
    <g id="line2d_14"/>
    <g id="text_18">
     <!-- splitted_3s -->
     <g style="fill:#262626;" transform="translate(146 104.9478)scale(0.11 -0.11)">
      <defs>
       <path d="M 422 -1272 
L 422 3319 
L 934 3319 
L 934 2888 
Q 1116 3141 1344 3267 
Q 1572 3394 1897 3394 
Q 2322 3394 2647 3175 
Q 2972 2956 3137 2557 
Q 3303 2159 3303 1684 
Q 3303 1175 3120 767 
Q 2938 359 2589 142 
Q 2241 -75 1856 -75 
Q 1575 -75 1351 44 
Q 1128 163 984 344 
L 984 -1272 
L 422 -1272 
z
M 931 1641 
Q 931 1000 1190 694 
Q 1450 388 1819 388 
Q 2194 388 2461 705 
Q 2728 1022 2728 1688 
Q 2728 2322 2467 2637 
Q 2206 2953 1844 2953 
Q 1484 2953 1207 2617 
Q 931 2281 931 1641 
z
" id="ArialMT-70" transform="scale(0.015625)"/>
       <path d="M 2575 0 
L 2575 419 
Q 2259 -75 1647 -75 
Q 1250 -75 917 144 
Q 584 363 401 755 
Q 219 1147 219 1656 
Q 219 2153 384 2558 
Q 550 2963 881 3178 
Q 1213 3394 1622 3394 
Q 1922 3394 2156 3267 
Q 2391 3141 2538 2938 
L 2538 4581 
L 3097 4581 
L 3097 0 
L 2575 0 
z
M 797 1656 
Q 797 1019 1065 703 
Q 1334 388 1700 388 
Q 2069 388 2326 689 
Q 2584 991 2584 1609 
Q 2584 2291 2321 2609 
Q 2059 2928 1675 2928 
Q 1300 2928 1048 2622 
Q 797 2316 797 1656 
z
" id="ArialMT-64" transform="scale(0.015625)"/>
       <path d="M -97 -1272 
L -97 -866 
L 3631 -866 
L 3631 -1272 
L -97 -1272 
z
" id="ArialMT-5f" transform="scale(0.015625)"/>
       <path d="M 269 1209 
L 831 1284 
Q 928 806 1161 595 
Q 1394 384 1728 384 
Q 2125 384 2398 659 
Q 2672 934 2672 1341 
Q 2672 1728 2419 1979 
Q 2166 2231 1775 2231 
Q 1616 2231 1378 2169 
L 1441 2663 
Q 1497 2656 1531 2656 
Q 1891 2656 2178 2843 
Q 2466 3031 2466 3422 
Q 2466 3731 2256 3934 
Q 2047 4138 1716 4138 
Q 1388 4138 1169 3931 
Q 950 3725 888 3313 
L 325 3413 
Q 428 3978 793 4289 
Q 1159 4600 1703 4600 
Q 2078 4600 2393 4439 
Q 2709 4278 2876 4000 
Q 3044 3722 3044 3409 
Q 3044 3113 2884 2869 
Q 2725 2625 2413 2481 
Q 2819 2388 3044 2092 
Q 3269 1797 3269 1353 
Q 3269 753 2831 336 
Q 2394 -81 1725 -81 
Q 1122 -81 723 278 
Q 325 638 269 1209 
z
" id="ArialMT-33" transform="scale(0.015625)"/>
      </defs>
      <use xlink:href="#ArialMT-73"/>
      <use x="50" xlink:href="#ArialMT-70"/>
      <use x="105.615234" xlink:href="#ArialMT-6c"/>
      <use x="127.832031" xlink:href="#ArialMT-69"/>
      <use x="150.048828" xlink:href="#ArialMT-74"/>
      <use x="177.832031" xlink:href="#ArialMT-74"/>
      <use x="205.615234" xlink:href="#ArialMT-65"/>
      <use x="261.230469" xlink:href="#ArialMT-64"/>
      <use x="316.845703" xlink:href="#ArialMT-5f"/>
      <use x="372.460938" xlink:href="#ArialMT-33"/>
      <use x="428.076172" xlink:href="#ArialMT-73"/>
     </g>
    </g>
    <g id="line2d_15">
     <path d="M 115.2 116.6903 
L 137.2 116.6903 
" style="fill:none;stroke:#55a868;stroke-dasharray:1.5,1.5;stroke-dashoffset:0;stroke-width:1.5;"/>
    </g>
    <g id="line2d_16"/>
    <g id="text_19">
     <!-- splitted_1s -->
     <g style="fill:#262626;" transform="translate(146 120.5403)scale(0.11 -0.11)">
      <use xlink:href="#ArialMT-73"/>
      <use x="50" xlink:href="#ArialMT-70"/>
      <use x="105.615234" xlink:href="#ArialMT-6c"/>
      <use x="127.832031" xlink:href="#ArialMT-69"/>
      <use x="150.048828" xlink:href="#ArialMT-74"/>
      <use x="177.832031" xlink:href="#ArialMT-74"/>
      <use x="205.615234" xlink:href="#ArialMT-65"/>
      <use x="261.230469" xlink:href="#ArialMT-64"/>
      <use x="316.845703" xlink:href="#ArialMT-5f"/>
      <use x="372.460938" xlink:href="#ArialMT-31"/>
      <use x="428.076172" xlink:href="#ArialMT-73"/>
     </g>
    </g>
    <g id="line2d_17">
     <path d="M 115.2 132.384206 
L 137.2 132.384206 
" style="fill:none;stroke:#c44e52;stroke-dasharray:4.5,1.875,2.25,1.875;stroke-dashoffset:0;stroke-width:1.5;"/>
    </g>
    <g id="line2d_18"/>
    <g id="text_20">
     <!-- overlap_1f_3s -->
     <g style="fill:#262626;" transform="translate(146 136.234206)scale(0.11 -0.11)">
      <use xlink:href="#ArialMT-6f"/>
      <use x="55.615234" xlink:href="#ArialMT-76"/>
      <use x="105.615234" xlink:href="#ArialMT-65"/>
      <use x="161.230469" xlink:href="#ArialMT-72"/>
      <use x="194.53125" xlink:href="#ArialMT-6c"/>
      <use x="216.748047" xlink:href="#ArialMT-61"/>
      <use x="272.363281" xlink:href="#ArialMT-70"/>
      <use x="327.978516" xlink:href="#ArialMT-5f"/>
      <use x="383.59375" xlink:href="#ArialMT-31"/>
      <use x="439.208984" xlink:href="#ArialMT-66"/>
      <use x="466.992188" xlink:href="#ArialMT-5f"/>
      <use x="522.607422" xlink:href="#ArialMT-33"/>
      <use x="578.222656" xlink:href="#ArialMT-73"/>
     </g>
    </g>
    <g id="line2d_19">
     <path d="M 115.2 148.078113 
L 137.2 148.078113 
" style="fill:none;stroke:#8172b3;stroke-dasharray:7.5,1.5,1.5,1.5;stroke-dashoffset:0;stroke-width:1.5;"/>
    </g>
    <g id="line2d_20"/>
    <g id="text_21">
     <!-- overlap_10f_3s -->
     <g style="fill:#262626;" transform="translate(146 151.928112)scale(0.11 -0.11)">
      <use xlink:href="#ArialMT-6f"/>
      <use x="55.615234" xlink:href="#ArialMT-76"/>
      <use x="105.615234" xlink:href="#ArialMT-65"/>
      <use x="161.230469" xlink:href="#ArialMT-72"/>
      <use x="194.53125" xlink:href="#ArialMT-6c"/>
      <use x="216.748047" xlink:href="#ArialMT-61"/>
      <use x="272.363281" xlink:href="#ArialMT-70"/>
      <use x="327.978516" xlink:href="#ArialMT-5f"/>
      <use x="383.59375" xlink:href="#ArialMT-31"/>
      <use x="439.208984" xlink:href="#ArialMT-30"/>
      <use x="494.824219" xlink:href="#ArialMT-66"/>
      <use x="522.607422" xlink:href="#ArialMT-5f"/>
      <use x="578.222656" xlink:href="#ArialMT-33"/>
      <use x="633.837891" xlink:href="#ArialMT-73"/>
     </g>
    </g>
   </g>
  </g>
 </g>
 <defs>
  <clipPath id="p78e52742ca">
   <rect height="458.4888" width="652.86" x="105.3" y="71.4528"/>
  </clipPath>
 </defs>
</svg>
