<?xml version="1.0" encoding="utf-8" standalone="no"?>
<!DOCTYPE svg PUBLIC "-//W3C//DTD SVG 1.1//EN"
  "http://www.w3.org/Graphics/SVG/1.1/DTD/svg11.dtd">
<svg height="595.44pt" version="1.1" viewBox="0 0 842.4 595.44" width="842.4pt" xmlns="http://www.w3.org/2000/svg" xmlns:xlink="http://www.w3.org/1999/xlink">
 <metadata>
  <rdf:RDF xmlns:cc="http://creativecommons.org/ns#" xmlns:dc="http://purl.org/dc/elements/1.1/" xmlns:rdf="http://www.w3.org/1999/02/22-rdf-syntax-ns#">
   <cc:Work>
    <dc:type rdf:resource="http://purl.org/dc/dcmitype/StillImage"/>
    <dc:date>2021-06-01T00:54:14.845451</dc:date>
    <dc:format>image/svg+xml</dc:format>
    <dc:creator>
     <cc:Agent>
      <dc:title>Matplotlib v3.4.1, https://matplotlib.org/</dc:title>
     </cc:Agent>
    </dc:creator>
   </cc:Work>
  </rdf:RDF>
 </metadata>
 <defs>
  <style type="text/css">*{stroke-linecap:butt;stroke-linejoin:round;}</style>
 </defs>
 <g id="figure_1">
  <g id="patch_1">
   <path d="M 0 595.44 
L 842.4 595.44 
L 842.4 0 
L 0 0 
z
" style="fill:#ffffff;"/>
  </g>
  <g id="axes_1">
   <g id="patch_2">
    <path d="M 105.3 529.9416 
L 758.16 529.9416 
L 758.16 71.4528 
L 105.3 71.4528 
z
" style="fill:#ffffff;"/>
   </g>
   <g id="matplotlib.axis_1">
    <g id="xtick_1">
     <g id="text_1">
      <!-- 0 -->
      <g style="fill:#262626;" transform="translate(131.916939 547.315194)scale(0.11 -0.11)">
       <defs>
        <path d="M 266 2259 
Q 266 3072 433 3567 
Q 600 4063 929 4331 
Q 1259 4600 1759 4600 
Q 2128 4600 2406 4451 
Q 2684 4303 2865 4023 
Q 3047 3744 3150 3342 
Q 3253 2941 3253 2259 
Q 3253 1453 3087 958 
Q 2922 463 2592 192 
Q 2263 -78 1759 -78 
Q 1097 -78 719 397 
Q 266 969 266 2259 
z
M 844 2259 
Q 844 1131 1108 757 
Q 1372 384 1759 384 
Q 2147 384 2411 759 
Q 2675 1134 2675 2259 
Q 2675 3391 2411 3762 
Q 2147 4134 1753 4134 
Q 1366 4134 1134 3806 
Q 844 3388 844 2259 
z
" id="ArialMT-30" transform="scale(0.015625)"/>
       </defs>
       <use xlink:href="#ArialMT-30"/>
      </g>
     </g>
    </g>
    <g id="xtick_2">
     <g id="text_2">
      <!-- 25 -->
      <g style="fill:#262626;" transform="translate(201.950676 547.315194)scale(0.11 -0.11)">
       <defs>
        <path d="M 3222 541 
L 3222 0 
L 194 0 
Q 188 203 259 391 
Q 375 700 629 1000 
Q 884 1300 1366 1694 
Q 2113 2306 2375 2664 
Q 2638 3022 2638 3341 
Q 2638 3675 2398 3904 
Q 2159 4134 1775 4134 
Q 1369 4134 1125 3890 
Q 881 3647 878 3216 
L 300 3275 
Q 359 3922 746 4261 
Q 1134 4600 1788 4600 
Q 2447 4600 2831 4234 
Q 3216 3869 3216 3328 
Q 3216 3053 3103 2787 
Q 2991 2522 2730 2228 
Q 2469 1934 1863 1422 
Q 1356 997 1212 845 
Q 1069 694 975 541 
L 3222 541 
z
" id="ArialMT-32" transform="scale(0.015625)"/>
        <path d="M 266 1200 
L 856 1250 
Q 922 819 1161 601 
Q 1400 384 1738 384 
Q 2144 384 2425 690 
Q 2706 997 2706 1503 
Q 2706 1984 2436 2262 
Q 2166 2541 1728 2541 
Q 1456 2541 1237 2417 
Q 1019 2294 894 2097 
L 366 2166 
L 809 4519 
L 3088 4519 
L 3088 3981 
L 1259 3981 
L 1013 2750 
Q 1425 3038 1878 3038 
Q 2478 3038 2890 2622 
Q 3303 2206 3303 1553 
Q 3303 931 2941 478 
Q 2500 -78 1738 -78 
Q 1113 -78 717 272 
Q 322 622 266 1200 
z
" id="ArialMT-35" transform="scale(0.015625)"/>
       </defs>
       <use xlink:href="#ArialMT-32"/>
       <use x="55.615234" xlink:href="#ArialMT-35"/>
      </g>
     </g>
    </g>
    <g id="xtick_3">
     <g id="text_3">
      <!-- 50 -->
      <g style="fill:#262626;" transform="translate(275.042928 547.315194)scale(0.11 -0.11)">
       <use xlink:href="#ArialMT-35"/>
       <use x="55.615234" xlink:href="#ArialMT-30"/>
      </g>
     </g>
    </g>
    <g id="xtick_4">
     <g id="text_4">
      <!-- 75 -->
      <g style="fill:#262626;" transform="translate(348.135181 547.315194)scale(0.11 -0.11)">
       <defs>
        <path d="M 303 3981 
L 303 4522 
L 3269 4522 
L 3269 4084 
Q 2831 3619 2401 2847 
Q 1972 2075 1738 1259 
Q 1569 684 1522 0 
L 944 0 
Q 953 541 1156 1306 
Q 1359 2072 1739 2783 
Q 2119 3494 2547 3981 
L 303 3981 
z
" id="ArialMT-37" transform="scale(0.015625)"/>
       </defs>
       <use xlink:href="#ArialMT-37"/>
       <use x="55.615234" xlink:href="#ArialMT-35"/>
      </g>
     </g>
    </g>
    <g id="xtick_5">
     <g id="text_5">
      <!-- 100 -->
      <g style="fill:#262626;" transform="translate(418.168918 547.315194)scale(0.11 -0.11)">
       <defs>
        <path d="M 2384 0 
L 1822 0 
L 1822 3584 
Q 1619 3391 1289 3197 
Q 959 3003 697 2906 
L 697 3450 
Q 1169 3672 1522 3987 
Q 1875 4303 2022 4600 
L 2384 4600 
L 2384 0 
z
" id="ArialMT-31" transform="scale(0.015625)"/>
       </defs>
       <use xlink:href="#ArialMT-31"/>
       <use x="55.615234" xlink:href="#ArialMT-30"/>
       <use x="111.230469" xlink:href="#ArialMT-30"/>
      </g>
     </g>
    </g>
    <g id="xtick_6">
     <g id="text_6">
      <!-- 125 -->
      <g style="fill:#262626;" transform="translate(491.261171 547.315194)scale(0.11 -0.11)">
       <use xlink:href="#ArialMT-31"/>
       <use x="55.615234" xlink:href="#ArialMT-32"/>
       <use x="111.230469" xlink:href="#ArialMT-35"/>
      </g>
     </g>
    </g>
    <g id="xtick_7">
     <g id="text_7">
      <!-- 150 -->
      <g style="fill:#262626;" transform="translate(564.353423 547.315194)scale(0.11 -0.11)">
       <use xlink:href="#ArialMT-31"/>
       <use x="55.615234" xlink:href="#ArialMT-35"/>
       <use x="111.230469" xlink:href="#ArialMT-30"/>
      </g>
     </g>
    </g>
    <g id="xtick_8">
     <g id="text_8">
      <!-- 175 -->
      <g style="fill:#262626;" transform="translate(637.445676 547.315194)scale(0.11 -0.11)">
       <use xlink:href="#ArialMT-31"/>
       <use x="55.615234" xlink:href="#ArialMT-37"/>
       <use x="111.230469" xlink:href="#ArialMT-35"/>
      </g>
     </g>
    </g>
    <g id="xtick_9">
     <g id="text_9">
      <!-- 200 -->
      <g style="fill:#262626;" transform="translate(710.537928 547.315194)scale(0.11 -0.11)">
       <use xlink:href="#ArialMT-32"/>
       <use x="55.615234" xlink:href="#ArialMT-30"/>
       <use x="111.230469" xlink:href="#ArialMT-30"/>
      </g>
     </g>
    </g>
   </g>
   <g id="matplotlib.axis_2">
    <g id="ytick_1">
     <g id="text_10">
      <!-- −25 -->
      <g style="fill:#262626;" transform="translate(77.14125 533.878397)scale(0.11 -0.11)">
       <defs>
        <path d="M 3381 1997 
L 356 1997 
L 356 2522 
L 3381 2522 
L 3381 1997 
z
" id="ArialMT-2212" transform="scale(0.015625)"/>
       </defs>
       <use xlink:href="#ArialMT-2212"/>
       <use x="58.398438" xlink:href="#ArialMT-32"/>
       <use x="114.013672" xlink:href="#ArialMT-35"/>
      </g>
     </g>
    </g>
    <g id="ytick_2">
     <g id="text_11">
      <!-- −20 -->
      <g style="fill:#262626;" transform="translate(77.14125 442.180637)scale(0.11 -0.11)">
       <use xlink:href="#ArialMT-2212"/>
       <use x="58.398438" xlink:href="#ArialMT-32"/>
       <use x="114.013672" xlink:href="#ArialMT-30"/>
      </g>
     </g>
    </g>
    <g id="ytick_3">
     <g id="text_12">
      <!-- −15 -->
      <g style="fill:#262626;" transform="translate(77.14125 350.482877)scale(0.11 -0.11)">
       <use xlink:href="#ArialMT-2212"/>
       <use x="58.398438" xlink:href="#ArialMT-31"/>
       <use x="114.013672" xlink:href="#ArialMT-35"/>
      </g>
     </g>
    </g>
    <g id="ytick_4">
     <g id="text_13">
      <!-- −10 -->
      <g style="fill:#262626;" transform="translate(77.14125 258.785117)scale(0.11 -0.11)">
       <use xlink:href="#ArialMT-2212"/>
       <use x="58.398438" xlink:href="#ArialMT-31"/>
       <use x="114.013672" xlink:href="#ArialMT-30"/>
      </g>
     </g>
    </g>
    <g id="ytick_5">
     <g id="text_14">
      <!-- −5 -->
      <g style="fill:#262626;" transform="translate(83.258281 167.087357)scale(0.11 -0.11)">
       <use xlink:href="#ArialMT-2212"/>
       <use x="58.398438" xlink:href="#ArialMT-35"/>
      </g>
     </g>
    </g>
    <g id="ytick_6">
     <g id="text_15">
      <!-- 0 -->
      <g style="fill:#262626;" transform="translate(89.682969 75.389597)scale(0.11 -0.11)">
       <use xlink:href="#ArialMT-30"/>
      </g>
     </g>
    </g>
   </g>
   <g id="line2d_1">
    <path clip-path="url(#pe1db8db237)" d="M 134.975455 456.444976 
L 137.899145 457.961391 
L 140.822835 459.216715 
L 143.746525 458.135381 
L 146.670215 459.951853 
L 149.593905 460.699269 
L 152.517595 461.330692 
L 155.441285 463.404231 
L 158.364975 466.514506 
L 161.288665 467.293229 
L 164.212356 469.786807 
L 167.136046 474.785053 
L 170.059736 500.856916 
L 172.983426 519.2538 
L 175.907116 531.924717 
L 178.830806 580.671193 
L 179.6376 596.44 
M 183.411053 596.44 
L 184.678186 564.791569 
L 187.601876 505.159516 
L 190.525567 554.095129 
L 193.449257 501.324423 
L 196.372947 474.364595 
L 199.296637 527.867326 
L 202.220327 474.394362 
L 205.144017 454.089254 
L 208.067707 543.835589 
L 210.991397 463.585183 
L 213.915087 511.235284 
L 216.838777 501.263453 
L 219.762468 501.53049 
L 222.686158 517.394933 
L 225.609848 501.418134 
L 228.533538 511.381605 
L 231.457228 527.902096 
L 234.380918 427.497624 
L 237.304608 474.165209 
L 240.228298 508.726839 
L 243.151988 465.031113 
L 246.075678 394.222136 
L 248.999369 391.340176 
L 251.923059 501.555465 
L 254.846749 558.787616 
L 257.770439 586.527181 
L 260.694129 485.057466 
L 263.617819 541.226297 
L 266.541509 403.130857 
L 269.465199 395.05952 
L 272.388889 423.288875 
L 275.312579 457.66742 
L 278.23627 476.015542 
L 281.15996 468.307017 
L 284.08365 435.347083 
L 287.00734 444.772387 
L 289.93103 491.90489 
L 292.85472 451.794816 
L 295.77841 419.26517 
L 298.7021 495.264921 
L 301.62579 516.577382 
L 304.549481 491.773786 
L 307.473171 451.871702 
L 310.396861 466.257089 
L 313.320551 412.245819 
L 316.244241 418.522196 
L 319.167931 415.401078 
L 322.091621 441.707727 
L 325.015311 407.215987 
L 327.939001 467.663072 
L 330.862691 495.724977 
L 333.786382 482.460557 
L 336.710072 472.359301 
L 339.633762 522.600749 
L 342.557452 531.151311 
L 345.481142 457.172139 
L 348.404832 404.160106 
L 351.328522 375.194039 
L 354.252212 444.077721 
L 357.175902 472.947068 
L 360.099592 457.182948 
L 363.023283 544.398906 
L 365.946973 459.960283 
L 368.870663 435.187574 
L 371.794353 448.504675 
L 374.718043 501.462139 
L 377.641733 543.875186 
L 380.565423 525.276713 
L 383.489113 426.297288 
L 386.412803 376.989838 
L 389.336494 436.140567 
L 392.260184 489.412921 
L 395.183874 549.553512 
L 398.107564 524.335473 
L 401.031254 508.410585 
L 403.954944 511.331863 
L 406.878634 556.744683 
L 409.802324 476.161443 
L 412.726014 429.822494 
L 415.649704 477.772688 
L 418.573395 442.155644 
L 421.497085 480.407201 
L 424.420775 561.324639 
L 427.344465 510.426233 
L 430.268155 533.440222 
L 433.191845 515.650484 
L 436.115535 458.400879 
L 439.039225 476.049192 
L 441.962915 520.801347 
L 444.886605 491.638658 
L 447.810296 377.540143 
L 450.733986 330.503957 
L 453.657676 409.27529 
L 456.581366 409.382118 
L 459.505056 549.659431 
L 462.428746 459.128286 
L 465.352436 465.160048 
L 468.276126 416.00735 
L 471.199816 413.150225 
L 474.123506 497.465928 
L 477.047197 445.805869 
L 479.970887 375.996968 
L 482.894577 473.777631 
L 485.818267 467.881731 
L 488.741957 483.745439 
L 491.665647 444.817931 
L 494.589337 442.0761 
L 497.513027 511.588581 
L 500.436717 402.387779 
L 503.360408 335.786607 
L 506.284098 427.339235 
L 509.207788 524.901588 
L 512.131478 523.359009 
L 515.055168 494.709335 
L 517.978858 417.525339 
L 520.902548 495.818968 
L 523.826238 514.233972 
L 526.749928 456.459773 
L 529.673618 495.313264 
L 532.597309 543.847062 
L 535.520999 464.882658 
L 538.444689 439.722931 
L 541.368379 526.078313 
L 544.292069 533.310796 
L 547.215759 447.545875 
L 550.139449 489.214375 
L 553.063139 406.279644 
L 555.986829 482.702023 
L 558.910519 431.129799 
L 561.83421 406.933699 
L 564.7579 396.395404 
L 567.68159 371.566762 
L 570.60528 397.195954 
L 573.52897 417.557205 
L 576.45266 409.506612 
L 579.37635 447.849676 
L 582.30004 474.197321 
L 585.22373 444.302082 
L 588.147421 411.925228 
L 591.071111 449.203888 
L 593.994801 497.818036 
L 596.918491 416.677635 
L 599.842181 455.4364 
L 602.765871 454.064418 
L 605.689561 427.081643 
L 608.613251 444.607667 
L 611.536941 524.268102 
L 614.460631 509.347837 
L 617.384322 355.202753 
L 620.308012 370.180542 
L 623.231702 411.411863 
L 626.155392 496.803933 
L 629.079082 510.030435 
L 632.002772 495.104748 
L 634.926462 488.413545 
L 637.850152 513.479455 
L 640.773842 435.121882 
L 643.697532 401.167119 
L 646.621223 470.051186 
L 649.544913 478.00471 
L 652.468603 545.113301 
L 658.315983 458.905639 
L 661.239673 529.482209 
L 664.163363 462.12708 
L 667.087053 520.810162 
L 670.010743 497.886387 
L 672.934433 430.56169 
L 675.858124 446.204325 
L 678.781814 408.919334 
L 681.705504 459.889484 
L 684.629194 500.945695 
L 687.552884 467.170414 
L 690.476574 572.573727 
L 693.400264 526.759792 
L 696.323954 545.203339 
L 699.247644 515.458934 
L 702.171335 487.789223 
L 705.095025 476.156371 
L 708.018715 468.945051 
L 710.942405 470.066192 
L 713.866095 469.332593 
L 716.789785 470.883813 
L 719.713475 468.687424 
L 722.637165 467.041898 
L 725.560855 470.596977 
L 728.484545 473.442559 
L 728.484545 473.442559 
" style="fill:none;stroke:#4c72b0;stroke-linecap:round;stroke-width:1.5;"/>
   </g>
   <g id="line2d_2">
    <path clip-path="url(#pe1db8db237)" d="M 134.975455 443.363816 
L 137.899145 446.619397 
L 140.822835 447.80791 
L 143.746525 446.591518 
L 146.670215 448.202413 
L 149.593905 450.009931 
L 152.517595 448.093066 
L 155.441285 449.162297 
L 158.364975 449.804563 
L 161.288665 451.006753 
L 164.212356 451.756513 
L 167.136046 453.729066 
L 170.059736 476.301223 
L 172.983426 486.001784 
L 175.907116 502.203328 
L 180.963427 596.44 
M 182.521995 596.44 
L 184.678186 556.295996 
L 187.601876 469.768758 
L 190.525567 547.219197 
L 193.449257 495.63291 
L 196.372947 478.113637 
L 199.296637 519.997334 
L 202.220327 483.353594 
L 205.144017 478.136899 
L 208.067707 553.479798 
L 210.991397 485.641246 
L 213.915087 489.12682 
L 216.838777 496.224386 
L 219.762468 490.123573 
L 222.686158 514.512972 
L 225.609848 487.395839 
L 228.533538 488.219266 
L 231.457228 521.317896 
L 234.380918 426.318136 
L 237.304608 468.630861 
L 240.228298 507.932375 
L 243.151988 467.653347 
L 246.075678 401.177019 
L 248.999369 422.772536 
L 251.923059 511.976753 
L 254.846749 553.163229 
L 257.770439 584.089606 
L 260.694129 497.561108 
L 263.617819 550.572931 
L 266.541509 419.64012 
L 269.465199 400.193768 
L 272.388889 445.834378 
L 275.312579 482.114046 
L 278.23627 493.541916 
L 281.15996 485.371166 
L 284.08365 438.695046 
L 287.00734 446.375132 
L 289.93103 503.795754 
L 292.85472 467.558342 
L 295.77841 423.901793 
L 298.7021 498.199177 
L 301.62579 523.024321 
L 304.549481 497.713061 
L 307.473171 466.251737 
L 310.396861 454.110661 
L 313.320551 426.213581 
L 316.244241 424.997539 
L 319.167931 431.527521 
L 322.091621 441.350966 
L 325.015311 393.375727 
L 327.939001 476.194639 
L 330.862691 494.327355 
L 333.786382 465.265233 
L 336.710072 505.503999 
L 339.633762 536.506142 
L 342.557452 517.297199 
L 345.481142 434.131076 
L 348.404832 375.608446 
L 351.328522 394.085609 
L 354.252212 487.12394 
L 357.175902 411.075811 
L 360.099592 326.434918 
L 363.023283 324.073685 
L 365.946973 379.885406 
L 368.870663 350.733439 
L 371.794353 370.345088 
L 374.718043 406.320186 
L 377.641733 431.621652 
L 380.565423 465.37458 
L 383.489113 380.021793 
L 386.412803 390.798337 
L 389.336494 427.549989 
L 392.260184 493.300134 
L 395.183874 553.671628 
L 398.107564 522.739409 
L 401.031254 505.425714 
L 403.954944 548.134691 
L 406.878634 562.494892 
L 409.802324 517.404587 
L 412.726014 492.732375 
L 415.649704 499.088542 
L 418.573395 450.894188 
L 421.497085 491.652405 
L 424.420775 541.094737 
L 427.344465 476.388743 
L 430.268155 506.061264 
L 433.191845 496.710292 
L 436.115535 457.785967 
L 439.039225 524.051436 
L 441.962915 552.146363 
L 444.886605 478.555154 
L 447.810296 379.594093 
L 450.733986 379.71278 
L 453.657676 420.047461 
L 456.581366 449.304246 
L 459.505056 563.373273 
L 462.428746 466.893933 
L 465.352436 488.132691 
L 468.276126 413.404284 
L 471.199816 429.008442 
L 474.123506 480.704075 
L 477.047197 478.490441 
L 479.970887 380.588293 
L 482.894577 481.8454 
L 485.818267 487.691804 
L 488.741957 498.699845 
L 491.665647 464.921311 
L 494.589337 450.788059 
L 497.513027 513.277831 
L 500.436717 404.668889 
L 503.360408 335.336258 
L 506.284098 427.910842 
L 509.207788 509.128933 
L 512.131478 495.953536 
L 515.055168 490.398375 
L 517.978858 432.778682 
L 520.902548 491.098638 
L 523.826238 508.306765 
L 526.749928 463.840291 
L 532.597309 531.052982 
L 535.520999 455.788298 
L 538.444689 427.937811 
L 541.368379 470.398047 
L 544.292069 505.684075 
L 547.215759 391.481459 
L 550.139449 449.416007 
L 553.063139 388.474096 
L 555.986829 399.043663 
L 558.910519 353.034803 
L 561.83421 321.728124 
L 564.7579 380.269066 
L 567.68159 390.809075 
L 570.60528 475.999486 
L 573.52897 339.584691 
L 576.45266 345.722688 
L 579.37635 384.189685 
L 582.30004 362.252204 
L 585.22373 438.346296 
L 588.147421 405.075601 
L 591.071111 467.546763 
L 593.994801 510.856591 
L 596.918491 439.769769 
L 599.842181 496.802674 
L 602.765871 447.206675 
L 605.689561 450.760215 
L 608.613251 500.5287 
L 611.536941 536.068578 
L 614.460631 525.690246 
L 617.384322 423.919458 
L 620.308012 402.47271 
L 623.231702 428.555242 
L 626.155392 528.911581 
L 629.079082 514.100804 
L 632.002772 524.098869 
L 634.926462 512.073892 
L 637.850152 498.061181 
L 640.773842 457.446067 
L 643.697532 393.181518 
L 646.621223 469.449321 
L 649.544913 485.518781 
L 652.468603 537.059209 
L 655.392293 506.510511 
L 658.315983 429.957657 
L 661.239673 522.583959 
L 664.163363 454.041226 
L 667.087053 524.218221 
L 670.010743 499.250044 
L 672.934433 425.990059 
L 675.858124 443.462704 
L 678.781814 422.345432 
L 684.629194 494.505857 
L 687.552884 461.314041 
L 690.476574 565.715599 
L 693.400264 547.902669 
L 696.323954 557.659548 
L 699.247644 519.420025 
L 702.171335 473.503284 
L 705.095025 467.035357 
L 708.018715 463.488218 
L 710.942405 463.794432 
L 713.866095 462.0312 
L 716.789785 465.541539 
L 719.713475 464.077 
L 722.637165 461.154113 
L 725.560855 464.238607 
L 728.484545 461.709209 
L 728.484545 461.709209 
" style="fill:none;stroke:#dd8452;stroke-dasharray:6,2.25;stroke-dashoffset:0;stroke-width:1.5;"/>
   </g>
   <g id="line2d_3">
    <path clip-path="url(#pe1db8db237)" d="M 134.975455 445.389363 
L 137.899145 448.308472 
L 140.822835 448.881164 
L 143.746525 446.423929 
L 146.670215 454.209515 
L 149.593905 452.504279 
L 152.517595 454.329181 
L 155.441285 470.045519 
L 158.364975 470.822703 
L 161.288665 462.344935 
L 164.212356 462.996401 
L 167.136046 461.876833 
L 170.059736 473.291341 
L 172.983426 495.993798 
L 175.907116 509.863301 
L 178.830806 547.496832 
L 181.632478 596.44 
M 181.83503 596.44 
L 184.678186 521.186861 
L 187.601876 487.61999 
L 190.525567 505.856596 
L 193.449257 482.956572 
L 196.372947 451.512318 
L 199.296637 481.049642 
L 202.220327 484.728515 
L 205.144017 509.477892 
L 208.067707 375.786529 
L 210.991397 418.237775 
L 213.915087 474.141283 
L 216.838777 444.389777 
L 219.762468 449.596188 
L 222.686158 478.399458 
L 225.609848 431.178176 
L 228.533538 449.20994 
L 231.457228 500.173724 
L 234.380918 442.077114 
L 237.304608 473.668144 
L 240.228298 521.42385 
L 243.151988 487.555837 
L 246.075678 389.396551 
L 248.999369 448.059275 
L 251.923059 467.372039 
L 254.846749 573.930738 
L 257.770439 577.507714 
L 260.694129 491.715334 
L 263.617819 527.656992 
L 266.541509 426.911291 
L 269.465199 444.61907 
L 272.388889 472.350311 
L 275.312579 461.554563 
L 278.23627 439.055829 
L 281.15996 402.931157 
L 284.08365 378.097967 
L 287.00734 378.273357 
L 289.93103 417.605653 
L 292.85472 427.0425 
L 295.77841 443.194793 
L 298.7021 522.068005 
L 301.62579 570.727591 
L 304.549481 511.43313 
L 307.473171 494.020861 
L 310.396861 504.26494 
L 313.320551 468.265216 
L 316.244241 441.985642 
L 319.167931 445.049078 
L 322.091621 452.559582 
L 325.015311 416.313424 
L 327.939001 488.585366 
L 330.862691 534.979198 
L 333.786382 497.668007 
L 336.710072 531.049869 
L 339.633762 567.263145 
L 342.557452 584.800293 
L 348.404832 389.51132 
L 351.328522 435.41351 
L 354.252212 493.335639 
L 357.175902 506.520445 
L 360.099592 402.052706 
L 363.023283 463.120964 
L 365.946973 415.818878 
L 368.870663 453.820223 
L 371.794353 407.875323 
L 374.718043 456.970095 
L 377.641733 476.847189 
L 380.565423 471.154837 
L 383.489113 444.79327 
L 386.412803 415.125576 
L 389.336494 477.914392 
L 392.260184 538.112699 
L 395.183874 570.539294 
L 398.107564 554.550533 
L 401.031254 549.759263 
L 403.954944 554.568268 
L 406.878634 556.133409 
L 409.802324 553.295523 
L 412.726014 496.005202 
L 415.649704 465.954093 
L 418.573395 461.801696 
L 421.497085 414.645337 
L 424.420775 376.187819 
L 427.344465 392.343854 
L 430.268155 419.271396 
L 433.191845 412.377344 
L 436.115535 407.582262 
L 439.039225 493.685998 
L 441.962915 538.150932 
L 444.886605 458.767048 
L 447.810296 446.773553 
L 450.733986 389.927442 
L 453.657676 407.935244 
L 456.581366 466.549206 
L 458.74925 596.44 
M 460.797628 596.44 
L 462.428746 539.294321 
L 465.352436 503.486532 
L 468.276126 456.949912 
L 471.199816 392.497556 
L 474.123506 435.105861 
L 477.047197 406.552173 
L 479.970887 397.649119 
L 482.894577 445.979229 
L 485.818267 465.720986 
L 488.741957 441.643783 
L 491.665647 447.271143 
L 494.589337 370.324275 
L 497.513027 399.724023 
L 500.436717 378.400858 
L 503.360408 391.325519 
L 506.284098 456.938718 
L 509.207788 408.988629 
L 512.131478 408.398973 
L 515.055168 425.508561 
L 517.978858 427.823462 
L 520.902548 515.538933 
L 523.826238 508.650687 
L 526.749928 493.31731 
L 529.673618 489.406275 
L 532.597309 531.284339 
L 535.520999 515.02095 
L 538.444689 474.234504 
L 541.368379 497.989997 
L 544.292069 489.600903 
L 547.215759 360.445054 
L 550.139449 459.517927 
L 553.063139 429.887522 
L 555.986829 365.438035 
L 558.910519 386.179308 
L 561.83421 364.503371 
L 564.7579 362.121589 
L 567.68159 372.462842 
L 570.60528 398.919799 
L 573.52897 487.386114 
L 576.45266 391.652616 
L 579.37635 424.988654 
L 582.30004 451.615999 
L 585.22373 469.888844 
L 588.147421 417.372092 
L 591.071111 495.546895 
L 593.994801 521.401113 
L 596.918491 432.990101 
L 599.842181 515.649225 
L 602.765871 495.558368 
L 605.689561 428.037049 
L 608.613251 458.883881 
L 611.536941 504.413849 
L 614.460631 486.877996 
L 617.384322 369.97486 
L 620.308012 330.435746 
L 623.231702 412.835406 
L 626.155392 515.823914 
L 629.079082 465.841422 
L 632.002772 507.433071 
L 634.926462 517.928376 
L 637.850152 447.112684 
L 640.773842 440.74368 
L 643.697532 470.995014 
L 646.621223 528.867996 
L 649.544913 451.409617 
L 652.468603 532.510735 
L 655.392293 510.411087 
L 658.315983 443.921955 
L 661.239673 519.550745 
L 664.163363 458.691037 
L 667.087053 526.020561 
L 670.010743 497.024796 
L 672.934433 389.134412 
L 675.858124 460.351849 
L 678.781814 439.020604 
L 681.705504 484.169746 
L 684.629194 523.387832 
L 687.552884 490.799875 
L 690.476574 577.134129 
L 693.400264 566.299763 
L 696.323954 575.261059 
L 699.247644 540.065803 
L 702.171335 496.121055 
L 705.095025 479.6849 
L 708.018715 479.317401 
L 710.942405 483.530977 
L 713.866095 481.25305 
L 716.789785 482.723291 
L 719.713475 480.21656 
L 722.637165 479.702145 
L 725.560855 484.166283 
L 728.484545 479.984818 
L 728.484545 479.984818 
" style="fill:none;stroke:#55a868;stroke-dasharray:1.5,1.5;stroke-dashoffset:0;stroke-width:1.5;"/>
   </g>
   <g id="line2d_4">
    <path clip-path="url(#pe1db8db237)" d="M 134.975455 443.244744 
L 137.899145 446.488222 
L 140.822835 447.745296 
L 143.746525 446.313463 
L 149.593905 449.953053 
L 152.517595 448.167328 
L 155.441285 449.428844 
L 158.364975 450.267068 
L 161.288665 451.437181 
L 164.212356 452.082946 
L 167.136046 454.259466 
L 170.059736 476.942824 
L 172.983426 486.59298 
L 175.907116 502.728727 
L 178.830806 558.842184 
L 180.904569 596.44 
M 182.57286 596.44 
L 184.678186 556.797713 
L 187.601876 469.876076 
L 190.525567 547.945555 
L 193.449257 497.82741 
L 196.372947 478.396275 
L 199.296637 520.572299 
L 202.220327 483.777901 
L 205.144017 474.912415 
L 208.067707 554.953292 
L 210.991397 482.042337 
L 213.915087 498.427421 
L 216.838777 491.399081 
L 219.762468 492.707015 
L 222.686158 515.57902 
L 225.609848 486.644085 
L 228.533538 488.672081 
L 231.457228 523.271979 
L 234.380918 426.852839 
L 237.304608 472.409427 
L 240.228298 510.829202 
L 243.151988 469.641081 
L 246.075678 403.257729 
L 248.999369 423.214333 
L 251.923059 512.682193 
L 254.846749 553.928415 
L 257.770439 581.824901 
L 260.694129 496.195108 
L 263.617819 548.453603 
L 266.541509 413.232393 
L 269.465199 400.507713 
L 275.312579 483.603701 
L 278.23627 493.230279 
L 281.15996 482.014178 
L 284.08365 438.34899 
L 287.00734 456.539387 
L 289.93103 508.534659 
L 292.85472 465.850902 
L 295.77841 425.205285 
L 298.7021 499.606909 
L 301.62579 526.024828 
L 304.549481 501.835375 
L 307.473171 466.65558 
L 310.396861 456.39569 
L 313.320551 425.90205 
L 316.244241 425.235263 
L 319.167931 432.750174 
L 322.091621 456.390233 
L 325.015311 391.177309 
L 327.939001 465.750195 
L 330.862691 504.223734 
L 333.786382 461.520003 
L 336.710072 514.169889 
L 339.633762 558.190369 
L 342.557452 528.956006 
L 348.404832 380.555866 
L 351.328522 451.130757 
L 354.252212 489.089322 
L 357.175902 377.384027 
L 360.099592 350.198561 
L 363.023283 483.661802 
L 365.946973 404.787086 
L 368.870663 377.691221 
L 371.794353 400.205136 
L 374.718043 447.828058 
L 377.641733 449.476312 
L 380.565423 481.662875 
L 383.489113 380.84585 
L 386.412803 395.562042 
L 389.336494 430.243268 
L 392.260184 494.417183 
L 395.183874 555.337231 
L 398.107564 525.537138 
L 401.031254 509.742935 
L 403.954944 547.924112 
L 406.878634 568.181578 
L 409.802324 522.60827 
L 412.726014 492.773896 
L 415.649704 502.703401 
L 418.573395 451.393351 
L 421.497085 497.387433 
L 424.420775 550.192175 
L 427.344465 478.40502 
L 430.268155 504.950931 
L 433.191845 493.555068 
L 436.115535 456.245346 
L 439.039225 524.205348 
L 441.962915 553.083265 
L 444.886605 477.192511 
L 447.810296 379.327197 
L 450.733986 375.623453 
L 453.657676 426.901006 
L 456.581366 452.185437 
L 459.505056 562.317579 
L 462.428746 465.633851 
L 465.352436 493.625413 
L 468.276126 413.591952 
L 471.199816 431.132667 
L 474.123506 488.670472 
L 477.047197 486.263994 
L 479.970887 378.526541 
L 482.894577 483.463046 
L 485.818267 487.929318 
L 488.741957 500.98071 
L 491.665647 465.504111 
L 494.589337 451.229226 
L 497.513027 513.748591 
L 500.436717 402.631309 
L 503.360408 332.833304 
L 506.284098 426.931614 
L 509.207788 508.6722 
L 512.131478 496.816911 
L 515.055168 490.977293 
L 517.978858 432.316143 
L 520.902548 490.859201 
L 523.826238 506.496764 
L 526.749928 462.686548 
L 529.673618 497.974256 
L 532.597309 530.72592 
L 535.520999 455.138267 
L 538.444689 430.363564 
L 541.368379 472.959556 
L 544.292069 506.66026 
L 547.215759 391.784071 
L 550.139449 448.823132 
L 553.063139 386.668572 
L 555.986829 400.201673 
L 558.910519 353.858317 
L 561.83421 324.060253 
L 564.7579 381.226082 
L 567.68159 392.850119 
L 570.60528 469.204602 
L 573.52897 330.971393 
L 576.45266 393.08298 
L 579.37635 378.207804 
L 582.30004 386.363128 
L 585.22373 483.010231 
L 588.147421 379.840597 
L 591.071111 437.076175 
L 593.994801 519.058473 
L 596.918491 460.891379 
L 599.842181 484.3621 
L 602.765871 466.454236 
L 605.689561 458.671868 
L 608.613251 493.277677 
L 611.536941 534.456143 
L 614.460631 532.526721 
L 617.384322 418.771079 
L 620.308012 400.084841 
L 623.231702 430.565958 
L 626.155392 523.589177 
L 629.079082 514.731841 
L 632.002772 521.869179 
L 634.926462 512.941744 
L 637.850152 498.308244 
L 640.773842 457.526521 
L 643.697532 393.903014 
L 646.621223 473.497023 
L 649.544913 484.705009 
L 652.468603 538.650096 
L 655.392293 507.066027 
L 658.315983 428.939042 
L 661.239673 521.538514 
L 664.163363 452.615165 
L 667.087053 521.773614 
L 670.010743 499.982034 
L 672.934433 425.781929 
L 675.858124 442.010303 
L 678.781814 421.921265 
L 681.705504 456.05635 
L 684.629194 493.893254 
L 687.552884 462.213725 
L 690.476574 564.189705 
L 693.400264 546.330147 
L 696.323954 556.063065 
L 699.247644 520.354094 
L 702.171335 471.758975 
L 705.095025 466.795814 
L 708.018715 464.089418 
L 710.942405 465.49722 
L 713.866095 463.896259 
L 716.789785 466.709064 
L 719.713475 465.04381 
L 722.637165 463.614846 
L 725.560855 466.440768 
L 728.484545 464.714964 
L 728.484545 464.714964 
" style="fill:none;stroke:#c44e52;stroke-dasharray:4.5,1.875,2.25,1.875;stroke-dashoffset:0;stroke-width:1.5;"/>
   </g>
   <g id="line2d_5">
    <path clip-path="url(#pe1db8db237)" d="M 134.975455 446.641329 
L 137.899145 449.770563 
L 140.822835 450.916085 
L 143.746525 450.039594 
L 146.670215 451.522742 
L 149.593905 453.497848 
L 152.517595 452.545415 
L 155.441285 453.359363 
L 158.364975 454.321555 
L 161.288665 456.143135 
L 164.212356 455.62057 
L 167.136046 457.131178 
L 170.059736 477.538463 
L 172.983426 487.070351 
L 175.907116 501.114473 
L 178.830806 556.452811 
L 180.726333 596.44 
M 182.795316 596.44 
L 184.678186 557.202815 
L 187.601876 492.583046 
L 190.525567 553.06721 
L 193.449257 504.222509 
L 196.372947 485.364555 
L 199.296637 527.700437 
L 202.220327 483.200032 
L 205.144017 475.806397 
L 208.067707 556.771583 
L 210.991397 485.572196 
L 213.915087 492.507734 
L 216.838777 497.29757 
L 219.762468 488.217832 
L 222.686158 513.818131 
L 225.609848 496.940005 
L 228.533538 494.784053 
L 231.457228 525.872281 
L 234.380918 428.416966 
L 237.304608 471.489665 
L 240.228298 510.432215 
L 243.151988 467.993842 
L 246.075678 399.315702 
L 248.999369 414.48303 
L 251.923059 517.937296 
L 254.846749 556.563872 
L 257.770439 588.378109 
L 260.694129 495.219588 
L 263.617819 552.365372 
L 266.541509 415.531063 
L 269.465199 402.831324 
L 272.388889 440.095047 
L 275.312579 481.551814 
L 278.23627 496.291897 
L 281.15996 490.418733 
L 284.08365 446.934566 
L 287.00734 455.763778 
L 289.93103 507.834186 
L 292.85472 464.893117 
L 295.77841 418.114925 
L 298.7021 492.866348 
L 301.62579 523.028728 
L 304.549481 498.226986 
L 307.473171 460.529547 
L 310.396861 465.27975 
L 313.320551 422.076646 
L 316.244241 417.509493 
L 319.167931 431.408589 
L 322.091621 458.903715 
L 325.015311 398.965833 
L 327.939001 462.523682 
L 330.862691 503.998253 
L 333.786382 478.399703 
L 336.710072 489.689647 
L 339.633762 546.788419 
L 342.557452 534.0608 
L 348.404832 409.576712 
L 351.328522 371.365977 
L 354.252212 453.07753 
L 357.175902 497.828705 
L 360.099592 491.613158 
L 363.023283 577.272054 
L 365.946973 467.899781 
L 368.870663 456.100494 
L 371.794353 437.605142 
L 374.718043 495.305743 
L 377.641733 545.015707 
L 380.565423 541.304477 
L 383.489113 441.695239 
L 386.412803 402.90828 
L 389.336494 451.923717 
L 392.260184 525.570684 
L 395.183874 581.834206 
L 398.107564 521.545265 
L 401.031254 536.494004 
L 403.954944 552.537718 
L 406.878634 581.741124 
L 409.802324 534.005917 
L 412.726014 488.593446 
L 415.649704 526.476174 
L 418.573395 453.636579 
L 424.420775 560.669815 
L 427.344465 490.481173 
L 430.268155 506.276915 
L 433.191845 495.60769 
L 436.115535 450.438644 
L 439.039225 519.146692 
L 441.962915 552.954259 
L 444.886605 482.130731 
L 447.810296 380.044775 
L 450.733986 372.584293 
L 453.657676 414.007618 
L 456.581366 437.442975 
L 459.505056 533.984894 
L 462.428746 448.309347 
L 465.352436 480.853579 
L 468.276126 413.802531 
L 471.199816 436.262193 
L 474.123506 497.704421 
L 477.047197 471.861606 
L 479.970887 378.436958 
L 482.894577 488.168965 
L 485.818267 490.211827 
L 488.741957 502.096954 
L 491.665647 468.741013 
L 494.589337 445.755183 
L 497.513027 509.702988 
L 500.436717 397.650238 
L 503.360408 328.176952 
L 506.284098 424.036291 
L 509.207788 512.620278 
L 512.131478 505.731893 
L 515.055168 492.560379 
L 517.978858 437.223511 
L 520.902548 491.716139 
L 523.826238 500.26775 
L 526.749928 453.35597 
L 529.673618 493.142725 
L 532.597309 514.109549 
L 535.520999 439.872505 
L 538.444689 408.726805 
L 541.368379 471.035486 
L 544.292069 511.207544 
L 547.215759 388.451744 
L 550.139449 447.099147 
L 553.063139 371.494528 
L 555.986829 421.800934 
L 558.910519 365.5591 
L 561.83421 352.573995 
L 564.7579 411.58204 
L 567.68159 381.741581 
L 570.60528 393.848516 
L 573.52897 394.958498 
L 576.45266 460.185694 
L 579.37635 430.628781 
L 582.30004 404.175043 
L 585.22373 454.012928 
L 588.147421 394.229097 
L 591.071111 449.049347 
L 593.994801 492.678856 
L 596.918491 440.208242 
L 599.842181 461.191856 
L 602.765871 451.778061 
L 605.689561 437.489673 
L 608.613251 475.767849 
L 611.536941 505.119429 
L 614.460631 517.074831 
L 617.384322 400.529715 
L 620.308012 385.703686 
L 623.231702 419.933636 
L 626.155392 510.233144 
L 629.079082 502.192485 
L 632.002772 506.087569 
L 634.926462 503.740696 
L 637.850152 479.528085 
L 643.697532 386.190921 
L 646.621223 455.595279 
L 649.544913 469.306113 
L 652.468603 511.51995 
L 655.392293 487.166965 
L 658.315983 424.049094 
L 661.239673 500.539963 
L 664.163363 440.833648 
L 667.087053 515.721808 
L 670.010743 492.862291 
L 672.934433 427.464113 
L 675.858124 437.344611 
L 678.781814 406.623357 
L 681.705504 455.525704 
L 684.629194 486.700683 
L 687.552884 456.946309 
L 690.476574 543.29361 
L 693.400264 530.499215 
L 696.323954 545.203409 
L 699.247644 509.590703 
L 702.171335 463.22335 
L 705.095025 459.297554 
L 708.018715 456.422484 
L 710.942405 457.089481 
L 713.866095 455.322191 
L 716.789785 457.611347 
L 719.713475 455.68927 
L 722.637165 453.420648 
L 725.560855 456.163073 
L 728.484545 454.702137 
L 728.484545 454.702137 
" style="fill:none;stroke:#8172b3;stroke-dasharray:7.5,1.5,1.5,1.5;stroke-dashoffset:0;stroke-width:1.5;"/>
   </g>
   <g id="line2d_6"/>
   <g id="line2d_7"/>
   <g id="line2d_8"/>
   <g id="line2d_9"/>
   <g id="line2d_10"/>
   <g id="patch_3">
    <path d="M 105.3 529.9416 
L 105.3 71.4528 
" style="fill:none;stroke:#262626;stroke-linecap:square;stroke-linejoin:miter;stroke-width:1.25;"/>
   </g>
   <g id="patch_4">
    <path d="M 758.16 529.9416 
L 758.16 71.4528 
" style="fill:none;stroke:#262626;stroke-linecap:square;stroke-linejoin:miter;stroke-width:1.25;"/>
   </g>
   <g id="patch_5">
    <path d="M 105.3 529.9416 
L 758.16 529.9416 
" style="fill:none;stroke:#262626;stroke-linecap:square;stroke-linejoin:miter;stroke-width:1.25;"/>
   </g>
   <g id="patch_6">
    <path d="M 105.3 71.4528 
L 758.16 71.4528 
" style="fill:none;stroke:#262626;stroke-linecap:square;stroke-linejoin:miter;stroke-width:1.25;"/>
   </g>
   <g id="text_16">
    <!-- Activations for &gt;_&lt; -->
    <g style="fill:#262626;" transform="translate(382.037813 65.4528)scale(0.12 -0.12)">
     <defs>
      <path d="M -9 0 
L 1750 4581 
L 2403 4581 
L 4278 0 
L 3588 0 
L 3053 1388 
L 1138 1388 
L 634 0 
L -9 0 
z
M 1313 1881 
L 2866 1881 
L 2388 3150 
Q 2169 3728 2063 4100 
Q 1975 3659 1816 3225 
L 1313 1881 
z
" id="ArialMT-41" transform="scale(0.015625)"/>
      <path d="M 2588 1216 
L 3141 1144 
Q 3050 572 2676 248 
Q 2303 -75 1759 -75 
Q 1078 -75 664 370 
Q 250 816 250 1647 
Q 250 2184 428 2587 
Q 606 2991 970 3192 
Q 1334 3394 1763 3394 
Q 2303 3394 2647 3120 
Q 2991 2847 3088 2344 
L 2541 2259 
Q 2463 2594 2264 2762 
Q 2066 2931 1784 2931 
Q 1359 2931 1093 2626 
Q 828 2322 828 1663 
Q 828 994 1084 691 
Q 1341 388 1753 388 
Q 2084 388 2306 591 
Q 2528 794 2588 1216 
z
" id="ArialMT-63" transform="scale(0.015625)"/>
      <path d="M 1650 503 
L 1731 6 
Q 1494 -44 1306 -44 
Q 1000 -44 831 53 
Q 663 150 594 308 
Q 525 466 525 972 
L 525 2881 
L 113 2881 
L 113 3319 
L 525 3319 
L 525 4141 
L 1084 4478 
L 1084 3319 
L 1650 3319 
L 1650 2881 
L 1084 2881 
L 1084 941 
Q 1084 700 1114 631 
Q 1144 563 1211 522 
Q 1278 481 1403 481 
Q 1497 481 1650 503 
z
" id="ArialMT-74" transform="scale(0.015625)"/>
      <path d="M 425 3934 
L 425 4581 
L 988 4581 
L 988 3934 
L 425 3934 
z
M 425 0 
L 425 3319 
L 988 3319 
L 988 0 
L 425 0 
z
" id="ArialMT-69" transform="scale(0.015625)"/>
      <path d="M 1344 0 
L 81 3319 
L 675 3319 
L 1388 1331 
Q 1503 1009 1600 663 
Q 1675 925 1809 1294 
L 2547 3319 
L 3125 3319 
L 1869 0 
L 1344 0 
z
" id="ArialMT-76" transform="scale(0.015625)"/>
      <path d="M 2588 409 
Q 2275 144 1986 34 
Q 1697 -75 1366 -75 
Q 819 -75 525 192 
Q 231 459 231 875 
Q 231 1119 342 1320 
Q 453 1522 633 1644 
Q 813 1766 1038 1828 
Q 1203 1872 1538 1913 
Q 2219 1994 2541 2106 
Q 2544 2222 2544 2253 
Q 2544 2597 2384 2738 
Q 2169 2928 1744 2928 
Q 1347 2928 1158 2789 
Q 969 2650 878 2297 
L 328 2372 
Q 403 2725 575 2942 
Q 747 3159 1072 3276 
Q 1397 3394 1825 3394 
Q 2250 3394 2515 3294 
Q 2781 3194 2906 3042 
Q 3031 2891 3081 2659 
Q 3109 2516 3109 2141 
L 3109 1391 
Q 3109 606 3145 398 
Q 3181 191 3288 0 
L 2700 0 
Q 2613 175 2588 409 
z
M 2541 1666 
Q 2234 1541 1622 1453 
Q 1275 1403 1131 1340 
Q 988 1278 909 1158 
Q 831 1038 831 891 
Q 831 666 1001 516 
Q 1172 366 1500 366 
Q 1825 366 2078 508 
Q 2331 650 2450 897 
Q 2541 1088 2541 1459 
L 2541 1666 
z
" id="ArialMT-61" transform="scale(0.015625)"/>
      <path d="M 213 1659 
Q 213 2581 725 3025 
Q 1153 3394 1769 3394 
Q 2453 3394 2887 2945 
Q 3322 2497 3322 1706 
Q 3322 1066 3130 698 
Q 2938 331 2570 128 
Q 2203 -75 1769 -75 
Q 1072 -75 642 372 
Q 213 819 213 1659 
z
M 791 1659 
Q 791 1022 1069 705 
Q 1347 388 1769 388 
Q 2188 388 2466 706 
Q 2744 1025 2744 1678 
Q 2744 2294 2464 2611 
Q 2184 2928 1769 2928 
Q 1347 2928 1069 2612 
Q 791 2297 791 1659 
z
" id="ArialMT-6f" transform="scale(0.015625)"/>
      <path d="M 422 0 
L 422 3319 
L 928 3319 
L 928 2847 
Q 1294 3394 1984 3394 
Q 2284 3394 2536 3286 
Q 2788 3178 2913 3003 
Q 3038 2828 3088 2588 
Q 3119 2431 3119 2041 
L 3119 0 
L 2556 0 
L 2556 2019 
Q 2556 2363 2490 2533 
Q 2425 2703 2258 2804 
Q 2091 2906 1866 2906 
Q 1506 2906 1245 2678 
Q 984 2450 984 1813 
L 984 0 
L 422 0 
z
" id="ArialMT-6e" transform="scale(0.015625)"/>
      <path d="M 197 991 
L 753 1078 
Q 800 744 1014 566 
Q 1228 388 1613 388 
Q 2000 388 2187 545 
Q 2375 703 2375 916 
Q 2375 1106 2209 1216 
Q 2094 1291 1634 1406 
Q 1016 1563 777 1677 
Q 538 1791 414 1992 
Q 291 2194 291 2438 
Q 291 2659 392 2848 
Q 494 3038 669 3163 
Q 800 3259 1026 3326 
Q 1253 3394 1513 3394 
Q 1903 3394 2198 3281 
Q 2494 3169 2634 2976 
Q 2775 2784 2828 2463 
L 2278 2388 
Q 2241 2644 2061 2787 
Q 1881 2931 1553 2931 
Q 1166 2931 1000 2803 
Q 834 2675 834 2503 
Q 834 2394 903 2306 
Q 972 2216 1119 2156 
Q 1203 2125 1616 2013 
Q 2213 1853 2448 1751 
Q 2684 1650 2818 1456 
Q 2953 1263 2953 975 
Q 2953 694 2789 445 
Q 2625 197 2315 61 
Q 2006 -75 1616 -75 
Q 969 -75 630 194 
Q 291 463 197 991 
z
" id="ArialMT-73" transform="scale(0.015625)"/>
      <path id="ArialMT-20" transform="scale(0.015625)"/>
      <path d="M 556 0 
L 556 2881 
L 59 2881 
L 59 3319 
L 556 3319 
L 556 3672 
Q 556 4006 616 4169 
Q 697 4388 901 4523 
Q 1106 4659 1475 4659 
Q 1713 4659 2000 4603 
L 1916 4113 
Q 1741 4144 1584 4144 
Q 1328 4144 1222 4034 
Q 1116 3925 1116 3625 
L 1116 3319 
L 1763 3319 
L 1763 2881 
L 1116 2881 
L 1116 0 
L 556 0 
z
" id="ArialMT-66" transform="scale(0.015625)"/>
      <path d="M 416 0 
L 416 3319 
L 922 3319 
L 922 2816 
Q 1116 3169 1280 3281 
Q 1444 3394 1641 3394 
Q 1925 3394 2219 3213 
L 2025 2691 
Q 1819 2813 1613 2813 
Q 1428 2813 1281 2702 
Q 1134 2591 1072 2394 
Q 978 2094 978 1738 
L 978 0 
L 416 0 
z
" id="ArialMT-72" transform="scale(0.015625)"/>
      <path d="M 3384 2003 
L 350 706 
L 350 1266 
L 2753 2263 
L 350 3250 
L 350 3809 
L 3384 2528 
L 3384 2003 
z
" id="ArialMT-3e" transform="scale(0.015625)"/>
      <path d="M -97 -1272 
L -97 -866 
L 3631 -866 
L 3631 -1272 
L -97 -1272 
z
" id="ArialMT-5f" transform="scale(0.015625)"/>
      <path d="M 350 2003 
L 350 2528 
L 3384 3809 
L 3384 3250 
L 978 2263 
L 3384 1266 
L 3384 706 
L 350 2003 
z
" id="ArialMT-3c" transform="scale(0.015625)"/>
     </defs>
     <use xlink:href="#ArialMT-41"/>
     <use x="66.699219" xlink:href="#ArialMT-63"/>
     <use x="116.699219" xlink:href="#ArialMT-74"/>
     <use x="144.482422" xlink:href="#ArialMT-69"/>
     <use x="166.699219" xlink:href="#ArialMT-76"/>
     <use x="216.699219" xlink:href="#ArialMT-61"/>
     <use x="272.314453" xlink:href="#ArialMT-74"/>
     <use x="300.097656" xlink:href="#ArialMT-69"/>
     <use x="322.314453" xlink:href="#ArialMT-6f"/>
     <use x="377.929688" xlink:href="#ArialMT-6e"/>
     <use x="433.544922" xlink:href="#ArialMT-73"/>
     <use x="483.544922" xlink:href="#ArialMT-20"/>
     <use x="511.328125" xlink:href="#ArialMT-66"/>
     <use x="539.111328" xlink:href="#ArialMT-6f"/>
     <use x="594.726562" xlink:href="#ArialMT-72"/>
     <use x="628.027344" xlink:href="#ArialMT-20"/>
     <use x="655.810547" xlink:href="#ArialMT-3e"/>
     <use x="714.208984" xlink:href="#ArialMT-5f"/>
     <use x="769.824219" xlink:href="#ArialMT-3c"/>
    </g>
   </g>
   <g id="legend_1">
    <g id="patch_7">
     <path d="M 640.044062 158.514363 
L 750.46 158.514363 
Q 752.66 158.514363 752.66 156.314363 
L 752.66 79.1528 
Q 752.66 76.9528 750.46 76.9528 
L 640.044062 76.9528 
Q 637.844062 76.9528 637.844062 79.1528 
L 637.844062 156.314363 
Q 637.844062 158.514363 640.044062 158.514363 
z
" style="fill:#ffffff;opacity:0.8;stroke:#cccccc;stroke-linejoin:miter;"/>
    </g>
    <g id="line2d_11">
     <path d="M 642.244062 85.376394 
L 664.244062 85.376394 
" style="fill:none;stroke:#4c72b0;stroke-linecap:round;stroke-width:1.5;"/>
    </g>
    <g id="line2d_12"/>
    <g id="text_17">
     <!-- regular -->
     <g style="fill:#262626;" transform="translate(673.044062 89.226394)scale(0.11 -0.11)">
      <defs>
       <path d="M 2694 1069 
L 3275 997 
Q 3138 488 2766 206 
Q 2394 -75 1816 -75 
Q 1088 -75 661 373 
Q 234 822 234 1631 
Q 234 2469 665 2931 
Q 1097 3394 1784 3394 
Q 2450 3394 2872 2941 
Q 3294 2488 3294 1666 
Q 3294 1616 3291 1516 
L 816 1516 
Q 847 969 1125 678 
Q 1403 388 1819 388 
Q 2128 388 2347 550 
Q 2566 713 2694 1069 
z
M 847 1978 
L 2700 1978 
Q 2663 2397 2488 2606 
Q 2219 2931 1791 2931 
Q 1403 2931 1139 2672 
Q 875 2413 847 1978 
z
" id="ArialMT-65" transform="scale(0.015625)"/>
       <path d="M 319 -275 
L 866 -356 
Q 900 -609 1056 -725 
Q 1266 -881 1628 -881 
Q 2019 -881 2231 -725 
Q 2444 -569 2519 -288 
Q 2563 -116 2559 434 
Q 2191 0 1641 0 
Q 956 0 581 494 
Q 206 988 206 1678 
Q 206 2153 378 2554 
Q 550 2956 876 3175 
Q 1203 3394 1644 3394 
Q 2231 3394 2613 2919 
L 2613 3319 
L 3131 3319 
L 3131 450 
Q 3131 -325 2973 -648 
Q 2816 -972 2473 -1159 
Q 2131 -1347 1631 -1347 
Q 1038 -1347 672 -1080 
Q 306 -813 319 -275 
z
M 784 1719 
Q 784 1066 1043 766 
Q 1303 466 1694 466 
Q 2081 466 2343 764 
Q 2606 1063 2606 1700 
Q 2606 2309 2336 2618 
Q 2066 2928 1684 2928 
Q 1309 2928 1046 2623 
Q 784 2319 784 1719 
z
" id="ArialMT-67" transform="scale(0.015625)"/>
       <path d="M 2597 0 
L 2597 488 
Q 2209 -75 1544 -75 
Q 1250 -75 995 37 
Q 741 150 617 320 
Q 494 491 444 738 
Q 409 903 409 1263 
L 409 3319 
L 972 3319 
L 972 1478 
Q 972 1038 1006 884 
Q 1059 663 1231 536 
Q 1403 409 1656 409 
Q 1909 409 2131 539 
Q 2353 669 2445 892 
Q 2538 1116 2538 1541 
L 2538 3319 
L 3100 3319 
L 3100 0 
L 2597 0 
z
" id="ArialMT-75" transform="scale(0.015625)"/>
       <path d="M 409 0 
L 409 4581 
L 972 4581 
L 972 0 
L 409 0 
z
" id="ArialMT-6c" transform="scale(0.015625)"/>
      </defs>
      <use xlink:href="#ArialMT-72"/>
      <use x="33.300781" xlink:href="#ArialMT-65"/>
      <use x="88.916016" xlink:href="#ArialMT-67"/>
      <use x="144.53125" xlink:href="#ArialMT-75"/>
      <use x="200.146484" xlink:href="#ArialMT-6c"/>
      <use x="222.363281" xlink:href="#ArialMT-61"/>
      <use x="277.978516" xlink:href="#ArialMT-72"/>
     </g>
    </g>
    <g id="line2d_13">
     <path d="M 642.244062 101.0978 
L 664.244062 101.0978 
" style="fill:none;stroke:#dd8452;stroke-dasharray:6,2.25;stroke-dashoffset:0;stroke-width:1.5;"/>
    </g>
    <g id="line2d_14"/>
    <g id="text_18">
     <!-- splitted_3s -->
     <g style="fill:#262626;" transform="translate(673.044062 104.9478)scale(0.11 -0.11)">
      <defs>
       <path d="M 422 -1272 
L 422 3319 
L 934 3319 
L 934 2888 
Q 1116 3141 1344 3267 
Q 1572 3394 1897 3394 
Q 2322 3394 2647 3175 
Q 2972 2956 3137 2557 
Q 3303 2159 3303 1684 
Q 3303 1175 3120 767 
Q 2938 359 2589 142 
Q 2241 -75 1856 -75 
Q 1575 -75 1351 44 
Q 1128 163 984 344 
L 984 -1272 
L 422 -1272 
z
M 931 1641 
Q 931 1000 1190 694 
Q 1450 388 1819 388 
Q 2194 388 2461 705 
Q 2728 1022 2728 1688 
Q 2728 2322 2467 2637 
Q 2206 2953 1844 2953 
Q 1484 2953 1207 2617 
Q 931 2281 931 1641 
z
" id="ArialMT-70" transform="scale(0.015625)"/>
       <path d="M 2575 0 
L 2575 419 
Q 2259 -75 1647 -75 
Q 1250 -75 917 144 
Q 584 363 401 755 
Q 219 1147 219 1656 
Q 219 2153 384 2558 
Q 550 2963 881 3178 
Q 1213 3394 1622 3394 
Q 1922 3394 2156 3267 
Q 2391 3141 2538 2938 
L 2538 4581 
L 3097 4581 
L 3097 0 
L 2575 0 
z
M 797 1656 
Q 797 1019 1065 703 
Q 1334 388 1700 388 
Q 2069 388 2326 689 
Q 2584 991 2584 1609 
Q 2584 2291 2321 2609 
Q 2059 2928 1675 2928 
Q 1300 2928 1048 2622 
Q 797 2316 797 1656 
z
" id="ArialMT-64" transform="scale(0.015625)"/>
       <path d="M 269 1209 
L 831 1284 
Q 928 806 1161 595 
Q 1394 384 1728 384 
Q 2125 384 2398 659 
Q 2672 934 2672 1341 
Q 2672 1728 2419 1979 
Q 2166 2231 1775 2231 
Q 1616 2231 1378 2169 
L 1441 2663 
Q 1497 2656 1531 2656 
Q 1891 2656 2178 2843 
Q 2466 3031 2466 3422 
Q 2466 3731 2256 3934 
Q 2047 4138 1716 4138 
Q 1388 4138 1169 3931 
Q 950 3725 888 3313 
L 325 3413 
Q 428 3978 793 4289 
Q 1159 4600 1703 4600 
Q 2078 4600 2393 4439 
Q 2709 4278 2876 4000 
Q 3044 3722 3044 3409 
Q 3044 3113 2884 2869 
Q 2725 2625 2413 2481 
Q 2819 2388 3044 2092 
Q 3269 1797 3269 1353 
Q 3269 753 2831 336 
Q 2394 -81 1725 -81 
Q 1122 -81 723 278 
Q 325 638 269 1209 
z
" id="ArialMT-33" transform="scale(0.015625)"/>
      </defs>
      <use xlink:href="#ArialMT-73"/>
      <use x="50" xlink:href="#ArialMT-70"/>
      <use x="105.615234" xlink:href="#ArialMT-6c"/>
      <use x="127.832031" xlink:href="#ArialMT-69"/>
      <use x="150.048828" xlink:href="#ArialMT-74"/>
      <use x="177.832031" xlink:href="#ArialMT-74"/>
      <use x="205.615234" xlink:href="#ArialMT-65"/>
      <use x="261.230469" xlink:href="#ArialMT-64"/>
      <use x="316.845703" xlink:href="#ArialMT-5f"/>
      <use x="372.460938" xlink:href="#ArialMT-33"/>
      <use x="428.076172" xlink:href="#ArialMT-73"/>
     </g>
    </g>
    <g id="line2d_15">
     <path d="M 642.244062 116.6903 
L 664.244062 116.6903 
" style="fill:none;stroke:#55a868;stroke-dasharray:1.5,1.5;stroke-dashoffset:0;stroke-width:1.5;"/>
    </g>
    <g id="line2d_16"/>
    <g id="text_19">
     <!-- splitted_1s -->
     <g style="fill:#262626;" transform="translate(673.044062 120.5403)scale(0.11 -0.11)">
      <use xlink:href="#ArialMT-73"/>
      <use x="50" xlink:href="#ArialMT-70"/>
      <use x="105.615234" xlink:href="#ArialMT-6c"/>
      <use x="127.832031" xlink:href="#ArialMT-69"/>
      <use x="150.048828" xlink:href="#ArialMT-74"/>
      <use x="177.832031" xlink:href="#ArialMT-74"/>
      <use x="205.615234" xlink:href="#ArialMT-65"/>
      <use x="261.230469" xlink:href="#ArialMT-64"/>
      <use x="316.845703" xlink:href="#ArialMT-5f"/>
      <use x="372.460938" xlink:href="#ArialMT-31"/>
      <use x="428.076172" xlink:href="#ArialMT-73"/>
     </g>
    </g>
    <g id="line2d_17">
     <path d="M 642.244062 132.384206 
L 664.244062 132.384206 
" style="fill:none;stroke:#c44e52;stroke-dasharray:4.5,1.875,2.25,1.875;stroke-dashoffset:0;stroke-width:1.5;"/>
    </g>
    <g id="line2d_18"/>
    <g id="text_20">
     <!-- overlap_1f_3s -->
     <g style="fill:#262626;" transform="translate(673.044062 136.234206)scale(0.11 -0.11)">
      <use xlink:href="#ArialMT-6f"/>
      <use x="55.615234" xlink:href="#ArialMT-76"/>
      <use x="105.615234" xlink:href="#ArialMT-65"/>
      <use x="161.230469" xlink:href="#ArialMT-72"/>
      <use x="194.53125" xlink:href="#ArialMT-6c"/>
      <use x="216.748047" xlink:href="#ArialMT-61"/>
      <use x="272.363281" xlink:href="#ArialMT-70"/>
      <use x="327.978516" xlink:href="#ArialMT-5f"/>
      <use x="383.59375" xlink:href="#ArialMT-31"/>
      <use x="439.208984" xlink:href="#ArialMT-66"/>
      <use x="466.992188" xlink:href="#ArialMT-5f"/>
      <use x="522.607422" xlink:href="#ArialMT-33"/>
      <use x="578.222656" xlink:href="#ArialMT-73"/>
     </g>
    </g>
    <g id="line2d_19">
     <path d="M 642.244062 148.078113 
L 664.244062 148.078113 
" style="fill:none;stroke:#8172b3;stroke-dasharray:7.5,1.5,1.5,1.5;stroke-dashoffset:0;stroke-width:1.5;"/>
    </g>
    <g id="line2d_20"/>
    <g id="text_21">
     <!-- overlap_10f_3s -->
     <g style="fill:#262626;" transform="translate(673.044062 151.928112)scale(0.11 -0.11)">
      <use xlink:href="#ArialMT-6f"/>
      <use x="55.615234" xlink:href="#ArialMT-76"/>
      <use x="105.615234" xlink:href="#ArialMT-65"/>
      <use x="161.230469" xlink:href="#ArialMT-72"/>
      <use x="194.53125" xlink:href="#ArialMT-6c"/>
      <use x="216.748047" xlink:href="#ArialMT-61"/>
      <use x="272.363281" xlink:href="#ArialMT-70"/>
      <use x="327.978516" xlink:href="#ArialMT-5f"/>
      <use x="383.59375" xlink:href="#ArialMT-31"/>
      <use x="439.208984" xlink:href="#ArialMT-30"/>
      <use x="494.824219" xlink:href="#ArialMT-66"/>
      <use x="522.607422" xlink:href="#ArialMT-5f"/>
      <use x="578.222656" xlink:href="#ArialMT-33"/>
      <use x="633.837891" xlink:href="#ArialMT-73"/>
     </g>
    </g>
   </g>
  </g>
 </g>
 <defs>
  <clipPath id="pe1db8db237">
   <rect height="458.4888" width="652.86" x="105.3" y="71.4528"/>
  </clipPath>
 </defs>
</svg>
