<?xml version="1.0" encoding="utf-8" standalone="no"?>
<!DOCTYPE svg PUBLIC "-//W3C//DTD SVG 1.1//EN"
  "http://www.w3.org/Graphics/SVG/1.1/DTD/svg11.dtd">
<svg height="595.44pt" version="1.1" viewBox="0 0 842.4 595.44" width="842.4pt" xmlns="http://www.w3.org/2000/svg" xmlns:xlink="http://www.w3.org/1999/xlink">
 <metadata>
  <rdf:RDF xmlns:cc="http://creativecommons.org/ns#" xmlns:dc="http://purl.org/dc/elements/1.1/" xmlns:rdf="http://www.w3.org/1999/02/22-rdf-syntax-ns#">
   <cc:Work>
    <dc:type rdf:resource="http://purl.org/dc/dcmitype/StillImage"/>
    <dc:date>2021-06-04T22:03:14.115937</dc:date>
    <dc:format>image/svg+xml</dc:format>
    <dc:creator>
     <cc:Agent>
      <dc:title>Matplotlib v3.4.1, https://matplotlib.org/</dc:title>
     </cc:Agent>
    </dc:creator>
   </cc:Work>
  </rdf:RDF>
 </metadata>
 <defs>
  <style type="text/css">*{stroke-linecap:butt;stroke-linejoin:round;}</style>
 </defs>
 <g id="figure_1">
  <g id="patch_1">
   <path d="M 0 595.44 
L 842.4 595.44 
L 842.4 0 
L 0 0 
z
" style="fill:#ffffff;"/>
  </g>
  <g id="axes_1">
   <g id="patch_2">
    <path d="M 105.3 529.9416 
L 758.16 529.9416 
L 758.16 71.4528 
L 105.3 71.4528 
z
" style="fill:#ffffff;"/>
   </g>
   <g id="matplotlib.axis_1">
    <g id="xtick_1">
     <g id="text_1">
      <!-- 0 -->
      <g style="fill:#262626;" transform="translate(131.916939 547.315194)scale(0.11 -0.11)">
       <defs>
        <path d="M 266 2259 
Q 266 3072 433 3567 
Q 600 4063 929 4331 
Q 1259 4600 1759 4600 
Q 2128 4600 2406 4451 
Q 2684 4303 2865 4023 
Q 3047 3744 3150 3342 
Q 3253 2941 3253 2259 
Q 3253 1453 3087 958 
Q 2922 463 2592 192 
Q 2263 -78 1759 -78 
Q 1097 -78 719 397 
Q 266 969 266 2259 
z
M 844 2259 
Q 844 1131 1108 757 
Q 1372 384 1759 384 
Q 2147 384 2411 759 
Q 2675 1134 2675 2259 
Q 2675 3391 2411 3762 
Q 2147 4134 1753 4134 
Q 1366 4134 1134 3806 
Q 844 3388 844 2259 
z
" id="ArialMT-30" transform="scale(0.015625)"/>
       </defs>
       <use xlink:href="#ArialMT-30"/>
      </g>
     </g>
    </g>
    <g id="xtick_2">
     <g id="text_2">
      <!-- 25 -->
      <g style="fill:#262626;" transform="translate(201.950676 547.315194)scale(0.11 -0.11)">
       <defs>
        <path d="M 3222 541 
L 3222 0 
L 194 0 
Q 188 203 259 391 
Q 375 700 629 1000 
Q 884 1300 1366 1694 
Q 2113 2306 2375 2664 
Q 2638 3022 2638 3341 
Q 2638 3675 2398 3904 
Q 2159 4134 1775 4134 
Q 1369 4134 1125 3890 
Q 881 3647 878 3216 
L 300 3275 
Q 359 3922 746 4261 
Q 1134 4600 1788 4600 
Q 2447 4600 2831 4234 
Q 3216 3869 3216 3328 
Q 3216 3053 3103 2787 
Q 2991 2522 2730 2228 
Q 2469 1934 1863 1422 
Q 1356 997 1212 845 
Q 1069 694 975 541 
L 3222 541 
z
" id="ArialMT-32" transform="scale(0.015625)"/>
        <path d="M 266 1200 
L 856 1250 
Q 922 819 1161 601 
Q 1400 384 1738 384 
Q 2144 384 2425 690 
Q 2706 997 2706 1503 
Q 2706 1984 2436 2262 
Q 2166 2541 1728 2541 
Q 1456 2541 1237 2417 
Q 1019 2294 894 2097 
L 366 2166 
L 809 4519 
L 3088 4519 
L 3088 3981 
L 1259 3981 
L 1013 2750 
Q 1425 3038 1878 3038 
Q 2478 3038 2890 2622 
Q 3303 2206 3303 1553 
Q 3303 931 2941 478 
Q 2500 -78 1738 -78 
Q 1113 -78 717 272 
Q 322 622 266 1200 
z
" id="ArialMT-35" transform="scale(0.015625)"/>
       </defs>
       <use xlink:href="#ArialMT-32"/>
       <use x="55.615234" xlink:href="#ArialMT-35"/>
      </g>
     </g>
    </g>
    <g id="xtick_3">
     <g id="text_3">
      <!-- 50 -->
      <g style="fill:#262626;" transform="translate(275.042928 547.315194)scale(0.11 -0.11)">
       <use xlink:href="#ArialMT-35"/>
       <use x="55.615234" xlink:href="#ArialMT-30"/>
      </g>
     </g>
    </g>
    <g id="xtick_4">
     <g id="text_4">
      <!-- 75 -->
      <g style="fill:#262626;" transform="translate(348.135181 547.315194)scale(0.11 -0.11)">
       <defs>
        <path d="M 303 3981 
L 303 4522 
L 3269 4522 
L 3269 4084 
Q 2831 3619 2401 2847 
Q 1972 2075 1738 1259 
Q 1569 684 1522 0 
L 944 0 
Q 953 541 1156 1306 
Q 1359 2072 1739 2783 
Q 2119 3494 2547 3981 
L 303 3981 
z
" id="ArialMT-37" transform="scale(0.015625)"/>
       </defs>
       <use xlink:href="#ArialMT-37"/>
       <use x="55.615234" xlink:href="#ArialMT-35"/>
      </g>
     </g>
    </g>
    <g id="xtick_5">
     <g id="text_5">
      <!-- 100 -->
      <g style="fill:#262626;" transform="translate(418.168918 547.315194)scale(0.11 -0.11)">
       <defs>
        <path d="M 2384 0 
L 1822 0 
L 1822 3584 
Q 1619 3391 1289 3197 
Q 959 3003 697 2906 
L 697 3450 
Q 1169 3672 1522 3987 
Q 1875 4303 2022 4600 
L 2384 4600 
L 2384 0 
z
" id="ArialMT-31" transform="scale(0.015625)"/>
       </defs>
       <use xlink:href="#ArialMT-31"/>
       <use x="55.615234" xlink:href="#ArialMT-30"/>
       <use x="111.230469" xlink:href="#ArialMT-30"/>
      </g>
     </g>
    </g>
    <g id="xtick_6">
     <g id="text_6">
      <!-- 125 -->
      <g style="fill:#262626;" transform="translate(491.261171 547.315194)scale(0.11 -0.11)">
       <use xlink:href="#ArialMT-31"/>
       <use x="55.615234" xlink:href="#ArialMT-32"/>
       <use x="111.230469" xlink:href="#ArialMT-35"/>
      </g>
     </g>
    </g>
    <g id="xtick_7">
     <g id="text_7">
      <!-- 150 -->
      <g style="fill:#262626;" transform="translate(564.353423 547.315194)scale(0.11 -0.11)">
       <use xlink:href="#ArialMT-31"/>
       <use x="55.615234" xlink:href="#ArialMT-35"/>
       <use x="111.230469" xlink:href="#ArialMT-30"/>
      </g>
     </g>
    </g>
    <g id="xtick_8">
     <g id="text_8">
      <!-- 175 -->
      <g style="fill:#262626;" transform="translate(637.445676 547.315194)scale(0.11 -0.11)">
       <use xlink:href="#ArialMT-31"/>
       <use x="55.615234" xlink:href="#ArialMT-37"/>
       <use x="111.230469" xlink:href="#ArialMT-35"/>
      </g>
     </g>
    </g>
    <g id="xtick_9">
     <g id="text_9">
      <!-- 200 -->
      <g style="fill:#262626;" transform="translate(710.537928 547.315194)scale(0.11 -0.11)">
       <use xlink:href="#ArialMT-32"/>
       <use x="55.615234" xlink:href="#ArialMT-30"/>
       <use x="111.230469" xlink:href="#ArialMT-30"/>
      </g>
     </g>
    </g>
   </g>
   <g id="matplotlib.axis_2">
    <g id="ytick_1">
     <g id="text_10">
      <!-- −25 -->
      <g style="fill:#262626;" transform="translate(77.14125 533.878397)scale(0.11 -0.11)">
       <defs>
        <path d="M 3381 1997 
L 356 1997 
L 356 2522 
L 3381 2522 
L 3381 1997 
z
" id="ArialMT-2212" transform="scale(0.015625)"/>
       </defs>
       <use xlink:href="#ArialMT-2212"/>
       <use x="58.398438" xlink:href="#ArialMT-32"/>
       <use x="114.013672" xlink:href="#ArialMT-35"/>
      </g>
     </g>
    </g>
    <g id="ytick_2">
     <g id="text_11">
      <!-- −20 -->
      <g style="fill:#262626;" transform="translate(77.14125 442.180637)scale(0.11 -0.11)">
       <use xlink:href="#ArialMT-2212"/>
       <use x="58.398438" xlink:href="#ArialMT-32"/>
       <use x="114.013672" xlink:href="#ArialMT-30"/>
      </g>
     </g>
    </g>
    <g id="ytick_3">
     <g id="text_12">
      <!-- −15 -->
      <g style="fill:#262626;" transform="translate(77.14125 350.482877)scale(0.11 -0.11)">
       <use xlink:href="#ArialMT-2212"/>
       <use x="58.398438" xlink:href="#ArialMT-31"/>
       <use x="114.013672" xlink:href="#ArialMT-35"/>
      </g>
     </g>
    </g>
    <g id="ytick_4">
     <g id="text_13">
      <!-- −10 -->
      <g style="fill:#262626;" transform="translate(77.14125 258.785117)scale(0.11 -0.11)">
       <use xlink:href="#ArialMT-2212"/>
       <use x="58.398438" xlink:href="#ArialMT-31"/>
       <use x="114.013672" xlink:href="#ArialMT-30"/>
      </g>
     </g>
    </g>
    <g id="ytick_5">
     <g id="text_14">
      <!-- −5 -->
      <g style="fill:#262626;" transform="translate(83.258281 167.087357)scale(0.11 -0.11)">
       <use xlink:href="#ArialMT-2212"/>
       <use x="58.398438" xlink:href="#ArialMT-35"/>
      </g>
     </g>
    </g>
    <g id="ytick_6">
     <g id="text_15">
      <!-- 0 -->
      <g style="fill:#262626;" transform="translate(89.682969 75.389597)scale(0.11 -0.11)">
       <use xlink:href="#ArialMT-30"/>
      </g>
     </g>
    </g>
   </g>
   <g id="line2d_1">
    <path clip-path="url(#pd18f0cb5df)" d="M 134.975455 391.642787 
L 137.899145 391.71551 
L 140.822835 394.653543 
L 143.746525 393.65777 
L 146.670215 395.17296 
L 149.593905 395.845379 
L 152.517595 397.145863 
L 155.441285 400.857057 
L 158.364975 403.642438 
L 161.288665 405.572735 
L 164.212356 408.986286 
L 167.136046 413.567396 
L 170.059736 438.564676 
L 172.983426 448.353212 
L 175.907116 462.486463 
L 178.830806 497.896706 
L 181.754496 539.908358 
L 184.678186 452.925822 
L 187.601876 403.237196 
L 190.525567 520.252722 
L 193.449257 494.766772 
L 196.372947 472.940282 
L 199.296637 539.950229 
L 202.220327 413.927374 
L 205.144017 402.944624 
L 208.067707 540.312412 
L 210.991397 469.872438 
L 213.915087 478.516676 
L 219.762468 488.96196 
L 222.686158 473.655097 
L 225.609848 461.547497 
L 228.533538 465.879585 
L 231.457228 500.725497 
L 234.380918 384.957914 
L 237.304608 443.695635 
L 240.228298 481.813603 
L 243.151988 458.45027 
L 246.075678 271.830109 
L 248.999369 272.623069 
L 251.923059 396.509508 
L 254.846749 399.063847 
L 257.770439 408.962884 
L 260.694129 362.005141 
L 263.617819 480.28708 
L 266.541509 409.904089 
L 269.465199 439.825982 
L 272.388889 515.823215 
L 275.312579 551.157516 
L 278.23627 558.489902 
L 281.15996 531.765978 
L 284.08365 484.488903 
L 287.00734 464.432711 
L 289.93103 492.615822 
L 292.85472 427.157934 
L 295.77841 432.405167 
L 298.7021 480.522599 
L 301.62579 444.633972 
L 304.549481 431.976698 
L 307.473171 409.941307 
L 310.396861 447.355235 
L 313.320551 396.507374 
L 316.244241 439.293797 
L 319.167931 375.225171 
L 322.091621 463.094764 
L 325.015311 426.590035 
L 327.939001 485.476176 
L 330.862691 501.593279 
L 333.786382 464.635525 
L 336.710072 471.427506 
L 339.633762 494.259634 
L 342.557452 479.8067 
L 345.481142 403.964848 
L 348.404832 316.416739 
L 351.328522 275.259645 
L 354.252212 410.116207 
L 357.175902 464.56504 
L 360.099592 470.91491 
L 363.023283 540.483393 
L 365.946973 436.679608 
L 368.870663 422.631952 
L 371.794353 481.884333 
L 374.718043 559.421242 
L 377.641733 553.500086 
L 380.565423 523.421028 
L 383.489113 487.518513 
L 386.412803 409.292115 
L 389.336494 383.644628 
L 392.260184 362.439136 
L 395.183874 403.348572 
L 398.107564 346.711832 
L 401.031254 351.958051 
L 403.954944 349.726035 
L 406.878634 358.612036 
L 409.802324 310.436344 
L 412.726014 311.339386 
L 415.649704 383.360766 
L 418.573395 342.350239 
L 421.497085 409.874391 
L 424.420775 492.045964 
L 427.344465 421.177732 
L 430.268155 462.629881 
L 433.191845 462.493214 
L 436.115535 373.271998 
L 439.039225 394.155185 
L 441.962915 448.510376 
L 444.886605 455.535499 
L 447.810296 428.803284 
L 450.733986 381.851628 
L 453.657676 475.133838 
L 456.581366 451.731747 
L 459.505056 496.161002 
L 462.428746 448.396097 
L 465.352436 457.472442 
L 468.276126 455.890999 
L 471.199816 437.717567 
L 474.123506 443.417685 
L 477.047197 422.199565 
L 479.970887 358.48742 
L 482.894577 436.404946 
L 485.818267 417.769988 
L 488.741957 450.142959 
L 491.665647 408.179789 
L 494.589337 350.696447 
L 497.513027 413.110733 
L 500.436717 359.326011 
L 503.360408 316.842252 
L 509.207788 560.024681 
L 512.131478 587.763897 
L 515.055168 565.322879 
L 517.978858 447.94636 
L 520.902548 492.082204 
L 523.826238 489.66628 
L 526.749928 443.239287 
L 529.673618 483.494004 
L 532.597309 493.075913 
L 535.520999 466.427966 
L 538.444689 459.345092 
L 541.368379 484.182828 
L 544.292069 488.555038 
L 547.215759 452.572245 
L 550.139449 510.313808 
L 553.063139 427.385478 
L 555.986829 556.867498 
L 558.910519 538.384948 
L 561.83421 533.454249 
L 564.7579 491.334823 
L 567.68159 418.525135 
L 570.60528 399.901266 
L 573.52897 419.097476 
L 576.45266 452.967623 
L 579.37635 509.097975 
L 582.30004 509.714671 
L 585.22373 450.025602 
L 588.147421 402.554178 
L 591.071111 392.600047 
L 593.994801 424.271076 
L 596.918491 358.080988 
L 599.842181 404.434629 
L 602.765871 485.180735 
L 605.689561 425.248695 
L 608.613251 409.281516 
L 611.536941 472.118849 
L 614.460631 478.46599 
L 617.384322 366.058963 
L 620.308012 410.510256 
L 626.155392 536.258064 
L 629.079082 522.440366 
L 632.002772 449.138231 
L 634.926462 483.348907 
L 637.850152 521.200468 
L 640.773842 395.022582 
L 643.697532 351.227005 
L 646.621223 352.203802 
L 649.544913 349.654186 
L 652.468603 444.324924 
L 655.392293 386.852602 
L 658.315983 361.599968 
L 661.239673 403.111128 
L 664.163363 304.677268 
L 670.010743 420.856686 
L 672.934433 425.62249 
L 675.858124 459.10429 
L 678.781814 439.952329 
L 681.705504 497.674653 
L 684.629194 528.178332 
L 687.552884 479.875681 
L 690.476574 560.255898 
L 693.400264 468.217608 
L 696.323954 461.134979 
L 699.247644 414.93546 
L 702.171335 383.779756 
L 705.095025 387.749417 
L 708.018715 387.215798 
L 710.942405 391.124314 
L 713.866095 388.941952 
L 716.789785 389.664462 
L 719.713475 386.721427 
L 722.637165 388.620137 
L 725.560855 389.324038 
L 728.484545 394.072947 
L 728.484545 394.072947 
" style="fill:none;stroke:#4c72b0;stroke-linecap:round;stroke-width:1.5;"/>
   </g>
   <g id="line2d_2">
    <path clip-path="url(#pd18f0cb5df)" d="M 134.975455 378.033115 
L 137.899145 379.257797 
L 140.822835 379.520741 
L 143.746525 380.490069 
L 146.670215 381.691384 
L 149.593905 381.740566 
L 152.517595 380.026725 
L 155.441285 380.638104 
L 158.364975 381.756132 
L 161.288665 383.210842 
L 164.212356 385.685287 
L 167.136046 388.000153 
L 170.059736 410.916862 
L 172.983426 415.829757 
L 175.907116 435.859714 
L 178.830806 477.76034 
L 181.754496 512.142173 
L 184.678186 435.703703 
L 187.601876 367.219142 
L 190.525567 505.204256 
L 193.449257 482.731721 
L 196.372947 467.042773 
L 199.296637 521.97244 
L 202.220327 428.770123 
L 205.144017 421.049496 
L 208.067707 542.493514 
L 210.991397 485.934658 
L 213.915087 449.423422 
L 216.838777 480.078949 
L 219.762468 469.665532 
L 222.686158 464.778662 
L 225.609848 440.824414 
L 228.533538 451.729543 
L 231.457228 482.783422 
L 234.380918 384.239147 
L 237.304608 406.456293 
L 240.228298 462.049214 
L 243.151988 441.023344 
L 246.075678 276.750122 
L 248.999369 297.240764 
L 251.923059 392.572168 
L 254.846749 390.440667 
L 257.770439 404.630726 
L 260.694129 367.829787 
L 263.617819 479.648136 
L 266.541509 416.637653 
L 269.465199 434.48154 
L 272.388889 535.802066 
L 275.312579 578.227461 
L 278.23627 578.481835 
L 281.15996 563.94586 
L 284.08365 504.270327 
L 287.00734 475.711496 
L 289.93103 514.204134 
L 292.85472 442.019048 
L 295.77841 405.690023 
L 298.7021 465.535593 
L 301.62579 439.106445 
L 307.473171 418.370069 
L 310.396861 422.596727 
L 313.320551 417.415082 
L 316.244241 460.646729 
L 319.167931 413.170619 
L 322.091621 447.238751 
L 325.015311 423.666483 
L 327.939001 503.730097 
L 330.862691 493.823259 
L 333.786382 446.390278 
L 336.710072 487.790587 
L 339.633762 503.030534 
L 342.557452 471.069731 
L 345.481142 382.970565 
L 348.404832 311.965911 
L 351.328522 380.839379 
L 354.252212 385.497654 
L 357.175902 355.941319 
L 360.099592 325.248346 
L 363.023283 344.902688 
L 365.946973 340.408398 
L 368.870663 287.957443 
L 371.794353 330.464184 
L 374.718043 393.387865 
L 377.641733 415.412237 
L 380.565423 451.676129 
L 383.489113 412.060426 
L 386.412803 419.629766 
L 389.336494 390.563831 
L 392.260184 349.534362 
L 395.183874 377.315432 
L 398.107564 304.150435 
L 401.031254 313.845452 
L 403.954944 356.832712 
L 406.878634 317.867933 
L 409.802324 300.632802 
L 412.726014 314.900307 
L 415.649704 371.239 
L 418.573395 318.222489 
L 421.497085 386.328008 
L 424.420775 438.548515 
L 427.344465 355.226837 
L 430.268155 403.62131 
L 433.191845 402.848009 
L 436.115535 335.111284 
L 439.039225 401.872175 
L 441.962915 448.270344 
L 444.886605 405.071578 
L 447.810296 400.517927 
L 450.733986 399.17092 
L 453.657676 456.581468 
L 456.581366 443.271714 
L 459.505056 478.820197 
L 462.428746 421.308662 
L 465.352436 452.41473 
L 468.276126 435.759146 
L 471.199816 456.673675 
L 474.123506 425.940003 
L 477.047197 430.582258 
L 479.970887 340.994942 
L 482.894577 416.127226 
L 485.818267 405.497633 
L 488.741957 441.196845 
L 491.665647 407.099504 
L 494.589337 332.460838 
L 497.513027 402.257828 
L 500.436717 355.816651 
L 503.360408 315.841861 
L 506.284098 446.7795 
L 509.207788 553.620452 
L 512.131478 565.023486 
L 515.055168 555.641102 
L 517.978858 436.703359 
L 520.902548 482.241793 
L 523.826238 482.600791 
L 526.749928 454.110487 
L 529.673618 496.747056 
L 532.597309 482.774362 
L 535.520999 448.185833 
L 538.444689 438.125083 
L 541.368379 433.072724 
L 544.292069 475.090953 
L 547.215759 402.84703 
L 550.139449 461.211865 
L 553.063139 398.786456 
L 555.986829 400.689049 
L 558.910519 380.930711 
L 561.83421 353.194801 
L 564.7579 336.164565 
L 567.68159 260.572347 
L 570.60528 280.071605 
L 573.52897 295.755639 
L 576.45266 356.479328 
L 579.37635 397.760565 
L 582.30004 334.559528 
L 585.22373 383.142142 
L 588.147421 357.740581 
L 591.071111 387.435297 
L 593.994801 432.618159 
L 596.918491 357.058053 
L 599.842181 414.802152 
L 602.765871 445.320348 
L 605.689561 437.744082 
L 608.613251 441.592328 
L 611.536941 466.600277 
L 614.460631 499.392342 
L 617.384322 451.341336 
L 620.308012 442.926357 
L 623.231702 485.246882 
L 626.155392 564.514808 
L 629.079082 518.586349 
L 632.002772 482.427816 
L 634.926462 498.83777 
L 637.850152 496.631412 
L 640.773842 413.101183 
L 643.697532 333.676985 
L 646.621223 365.986135 
L 649.544913 377.188245 
L 652.468603 444.200326 
L 655.392293 412.271809 
L 658.315983 333.602915 
L 661.239673 388.124891 
L 664.163363 285.537777 
L 667.087053 378.037592 
L 670.010743 442.915548 
L 672.934433 426.400409 
L 675.858124 463.238322 
L 678.781814 455.514511 
L 681.705504 495.358843 
L 684.629194 526.881836 
L 687.552884 468.974958 
L 690.476574 543.882392 
L 693.400264 486.773021 
L 696.323954 469.087594 
L 699.247644 422.141674 
L 702.171335 389.675166 
L 705.095025 396.351189 
L 708.018715 394.339634 
L 710.942405 398.865545 
L 713.866095 395.022547 
L 716.789785 398.507281 
L 719.713475 394.809274 
L 722.637165 395.124933 
L 725.560855 397.658458 
L 728.484545 399.542267 
L 728.484545 399.542267 
" style="fill:none;stroke:#dd8452;stroke-dasharray:6,2.25;stroke-dashoffset:0;stroke-width:1.5;"/>
   </g>
   <g id="line2d_3">
    <path clip-path="url(#pd18f0cb5df)" d="M 134.975455 372.144735 
L 137.899145 371.706052 
L 140.822835 371.659109 
L 143.746525 371.920828 
L 146.670215 376.387519 
L 149.593905 372.704274 
L 152.517595 374.516443 
L 155.441285 378.491561 
L 158.364975 378.852974 
L 161.288665 381.116804 
L 164.212356 382.183237 
L 167.136046 382.40487 
L 170.059736 396.131095 
L 172.983426 411.183899 
L 175.907116 430.30123 
L 178.830806 457.773934 
L 181.754496 482.047444 
L 184.678186 356.432717 
L 187.601876 325.336303 
L 190.525567 367.461903 
L 193.449257 379.953092 
L 196.372947 408.481455 
L 199.296637 419.248939 
L 202.220327 380.560764 
L 205.144017 309.397003 
L 208.067707 260.752406 
L 210.991397 429.540731 
L 213.915087 473.43126 
L 216.838777 427.083567 
L 219.762468 424.753309 
L 222.686158 411.453664 
L 225.609848 364.385454 
L 228.533538 402.547602 
L 231.457228 451.992348 
L 234.380918 350.692215 
L 237.304608 402.787389 
L 240.228298 457.453203 
L 243.151988 453.619369 
L 246.075678 241.703094 
L 248.999369 283.300427 
L 251.923059 349.257374 
L 254.846749 421.453549 
L 257.770439 438.160238 
L 260.694129 384.275071 
L 263.617819 491.071354 
L 266.541509 429.842433 
L 269.465199 475.203308 
L 272.388889 517.673583 
L 275.312579 511.742772 
L 278.23627 500.325047 
L 281.15996 442.994218 
L 284.08365 428.303981 
L 287.00734 365.385915 
L 289.93103 429.130417 
L 292.85472 395.180481 
L 295.77841 453.153856 
L 298.7021 538.522489 
L 301.62579 519.311552 
L 304.549481 490.412297 
L 307.473171 463.967758 
L 310.396861 480.393524 
L 313.320551 474.386632 
L 316.244241 507.501597 
L 319.167931 451.886253 
L 322.091621 500.002182 
L 325.015311 454.593629 
L 327.939001 528.422002 
L 330.862691 546.065034 
L 333.786382 499.291355 
L 336.710072 529.445165 
L 339.633762 555.742404 
L 342.557452 538.428043 
L 345.481142 466.548611 
L 348.404832 391.528298 
L 351.328522 404.012946 
L 354.252212 434.536353 
L 357.175902 468.786172 
L 360.099592 389.493411 
L 363.023283 356.859367 
L 365.946973 337.941562 
L 368.870663 367.865291 
L 371.794353 268.761863 
L 374.718043 377.953465 
L 377.641733 416.038797 
L 380.565423 410.988221 
L 383.489113 398.053976 
L 386.412803 423.708214 
L 389.336494 407.776085 
L 392.260184 355.174647 
L 395.183874 359.100198 
L 398.107564 366.776437 
L 401.031254 318.660928 
L 403.954944 341.241043 
L 406.878634 311.4236 
L 409.802324 350.789162 
L 412.726014 337.169223 
L 415.649704 405.476855 
L 418.573395 351.479893 
L 421.497085 386.798173 
L 424.420775 448.718402 
L 427.344465 383.948988 
L 430.268155 404.14524 
L 433.191845 324.251069 
L 436.115535 272.569165 
L 439.039225 362.95119 
L 441.962915 356.338324 
L 444.886605 415.888943 
L 447.810296 449.469316 
L 450.733986 381.907211 
L 453.657676 413.400472 
L 456.581366 459.131994 
L 459.505056 518.350934 
L 462.428746 430.915652 
L 465.352436 456.667834 
L 468.276126 438.063833 
L 471.199816 408.584576 
L 474.123506 364.307169 
L 477.047197 401.003133 
L 479.970887 322.532907 
L 482.894577 374.263119 
L 485.818267 378.052214 
L 488.741957 442.133187 
L 491.665647 367.802992 
L 494.589337 288.683259 
L 497.513027 361.010609 
L 500.436717 297.359101 
L 503.360408 306.337817 
L 506.284098 353.579248 
L 509.207788 456.401077 
L 512.131478 428.169448 
L 515.055168 362.14123 
L 517.978858 342.079022 
L 520.902548 364.870538 
L 523.826238 405.070983 
L 526.749928 459.535033 
L 529.673618 421.998781 
L 532.597309 374.397232 
L 535.520999 460.625392 
L 538.444689 440.423824 
L 541.368379 421.284561 
L 544.292069 447.865067 
L 547.215759 360.925275 
L 550.139449 401.8189 
L 553.063139 359.068944 
L 555.986829 323.505384 
L 558.910519 428.116873 
L 561.83421 385.550194 
L 564.7579 406.232981 
L 567.68159 423.554233 
L 570.60528 362.75121 
L 573.52897 334.732767 
L 576.45266 403.105776 
L 579.37635 390.707844 
L 582.30004 381.09795 
L 585.22373 402.568135 
L 588.147421 354.183141 
L 591.071111 224.208114 
L 593.994801 267.159275 
L 596.918491 260.706495 
L 599.842181 304.332663 
L 602.765871 346.109706 
L 605.689561 414.365777 
L 608.613251 419.319983 
L 611.536941 447.280412 
L 614.460631 467.647575 
L 617.384322 401.411489 
L 620.308012 420.183253 
L 623.231702 488.654346 
L 626.155392 541.852647 
L 629.079082 520.807329 
L 632.002772 492.562443 
L 634.926462 482.474409 
L 637.850152 476.960384 
L 640.773842 419.257299 
L 643.697532 391.26231 
L 646.621223 355.545556 
L 649.544913 385.81104 
L 652.468603 367.78141 
L 655.392293 427.465233 
L 658.315983 316.970908 
L 661.239673 294.613003 
L 664.163363 251.985354 
L 667.087053 276.295873 
L 670.010743 291.333163 
L 672.934433 321.686918 
L 675.858124 470.734309 
L 678.781814 446.059298 
L 681.705504 378.925172 
L 684.629194 425.61455 
L 687.552884 483.296507 
L 690.476574 462.573703 
L 693.400264 450.805794 
L 696.323954 465.118282 
L 699.247644 405.954226 
L 702.171335 367.505803 
L 705.095025 386.863306 
L 708.018715 390.050046 
L 710.942405 396.076527 
L 713.866095 392.830985 
L 716.789785 397.887157 
L 719.713475 393.070457 
L 722.637165 396.496111 
L 725.560855 398.145309 
L 728.484545 397.011435 
L 728.484545 397.011435 
" style="fill:none;stroke:#55a868;stroke-dasharray:1.5,1.5;stroke-dashoffset:0;stroke-width:1.5;"/>
   </g>
   <g id="line2d_4">
    <path clip-path="url(#pd18f0cb5df)" d="M 134.975455 378.26678 
L 137.899145 379.467956 
L 143.746525 380.617081 
L 146.670215 382.061157 
L 149.593905 382.155043 
L 152.517595 380.59221 
L 155.441285 381.277222 
L 158.364975 382.536709 
L 161.288665 384.042175 
L 167.136046 388.807419 
L 170.059736 411.837289 
L 172.983426 416.653814 
L 175.907116 436.68447 
L 178.830806 478.562675 
L 181.754496 513.330126 
L 184.678186 436.698882 
L 187.601876 367.706902 
L 190.525567 506.482002 
L 193.449257 484.871338 
L 196.372947 467.063096 
L 199.296637 523.672394 
L 202.220327 429.695517 
L 205.144017 419.730263 
L 208.067707 547.838166 
L 210.991397 479.30299 
L 213.915087 460.126823 
L 216.838777 475.179627 
L 219.762468 471.103906 
L 222.686158 465.584775 
L 225.609848 440.134715 
L 228.533538 452.236717 
L 231.457228 484.742367 
L 234.380918 384.078414 
L 237.304608 411.965665 
L 240.228298 466.963053 
L 243.151988 443.929266 
L 246.075678 277.598682 
L 248.999369 297.550476 
L 251.923059 393.647906 
L 254.846749 392.079896 
L 257.770439 404.272217 
L 260.694129 371.381718 
L 263.617819 482.711643 
L 266.541509 412.704196 
L 269.465199 438.868896 
L 272.388889 538.57279 
L 275.312579 585.223795 
L 278.23627 586.803733 
L 281.15996 565.036988 
L 284.08365 508.320512 
L 287.00734 489.521429 
L 289.93103 519.547247 
L 292.85472 439.229574 
L 295.77841 411.84481 
L 298.7021 469.584204 
L 301.62579 443.676851 
L 304.549481 433.775575 
L 307.473171 420.17944 
L 310.396861 426.82475 
L 313.320551 416.905145 
L 316.244241 465.659142 
L 319.167931 418.364192 
L 322.091621 484.133856 
L 325.015311 430.172853 
L 327.939001 502.143478 
L 330.862691 520.614869 
L 333.786382 455.187903 
L 336.710072 503.050927 
L 339.633762 526.408383 
L 342.557452 493.521592 
L 345.481142 425.391903 
L 348.404832 341.693561 
L 351.328522 366.365842 
L 354.252212 398.036172 
L 357.175902 423.307729 
L 360.099592 365.707345 
L 363.023283 506.907813 
L 365.946973 356.113595 
L 368.870663 311.503407 
L 371.794353 373.02462 
L 374.718043 440.546918 
L 377.641733 429.301818 
L 380.565423 466.618466 
L 383.489113 413.62938 
L 386.412803 425.979321 
L 389.336494 391.371238 
L 392.260184 346.185157 
L 395.183874 380.263224 
L 398.107564 305.488382 
L 401.031254 316.907262 
L 403.954944 346.459207 
L 406.878634 302.43537 
L 409.802324 298.314455 
L 412.726014 314.592868 
L 415.649704 372.324147 
L 418.573395 312.113789 
L 421.497085 389.357794 
L 424.420775 446.685719 
L 427.344465 360.784044 
L 430.268155 403.225513 
L 433.191845 399.569027 
L 436.115535 334.762919 
L 439.039225 400.630038 
L 441.962915 447.289647 
L 444.886605 404.641395 
L 447.810296 401.32187 
L 450.733986 398.719644 
L 453.657676 463.710621 
L 456.581366 445.561744 
L 459.505056 480.500317 
L 462.428746 422.523794 
L 465.352436 460.471445 
L 468.276126 438.559884 
L 471.199816 457.935471 
L 474.123506 432.249051 
L 477.047197 439.008746 
L 479.970887 342.537941 
L 482.894577 415.174163 
L 485.818267 406.137416 
L 488.741957 442.273142 
L 491.665647 410.213031 
L 494.589337 335.089159 
L 497.513027 404.776872 
L 500.436717 355.792042 
L 503.360408 316.41889 
L 506.284098 446.147378 
L 509.207788 554.737431 
L 512.131478 563.135165 
L 515.055168 565.364785 
L 517.978858 436.500371 
L 520.902548 486.498429 
L 523.826238 491.474218 
L 526.749928 457.601448 
L 529.673618 489.328339 
L 532.597309 479.145685 
L 535.520999 462.814155 
L 538.444689 444.371342 
L 541.368379 428.535688 
L 544.292069 481.047333 
L 547.215759 412.599781 
L 550.139449 477.844117 
L 553.063139 382.912394 
L 555.986829 438.316528 
L 558.910519 464.161092 
L 561.83421 411.775235 
L 564.7579 366.610807 
L 567.68159 236.65731 
L 570.60528 355.075706 
L 573.52897 342.805677 
L 576.45266 382.02971 
L 579.37635 423.505716 
L 582.30004 379.232331 
L 585.22373 431.682622 
L 588.147421 357.285195 
L 591.071111 370.155182 
L 593.994801 448.733373 
L 596.918491 375.668472 
L 599.842181 415.347104 
L 602.765871 470.707129 
L 605.689561 439.905281 
L 608.613251 443.668631 
L 611.536941 466.465639 
L 614.460631 509.67406 
L 617.384322 449.464349 
L 620.308012 441.282126 
L 623.231702 489.482776 
L 626.155392 562.288371 
L 629.079082 520.986881 
L 632.002772 482.449363 
L 634.926462 501.667611 
L 637.850152 499.111768 
L 643.697532 332.951816 
L 646.621223 369.47888 
L 649.544913 376.688626 
L 652.468603 445.556812 
L 655.392293 413.79459 
L 658.315983 334.521103 
L 661.239673 388.339143 
L 664.163363 285.49846 
L 667.087053 376.298006 
L 670.010743 442.152321 
L 672.934433 426.949489 
L 675.858124 463.687919 
L 678.781814 456.485798 
L 681.705504 493.538977 
L 684.629194 526.44011 
L 687.552884 468.264097 
L 690.476574 544.362492 
L 693.400264 486.78348 
L 696.323954 469.224505 
L 699.247644 423.308604 
L 702.171335 388.992603 
L 705.095025 395.196537 
L 708.018715 394.358593 
L 710.942405 399.306118 
L 713.866095 395.897604 
L 716.789785 399.340258 
L 719.713475 395.647988 
L 722.637165 396.723165 
L 725.560855 398.781034 
L 728.484545 401.744533 
L 728.484545 401.744533 
" style="fill:none;stroke:#c44e52;stroke-dasharray:4.5,1.875,2.25,1.875;stroke-dashoffset:0;stroke-width:1.5;"/>
   </g>
   <g id="line2d_5">
    <path clip-path="url(#pd18f0cb5df)" d="M 134.975455 380.901783 
L 137.899145 382.238226 
L 140.822835 382.868214 
L 143.746525 384.028743 
L 146.670215 384.506359 
L 149.593905 385.489819 
L 152.517595 384.378472 
L 155.441285 384.5915 
L 158.364975 385.917868 
L 161.288665 387.978151 
L 164.212356 389.574389 
L 167.136046 391.580278 
L 170.059736 413.324635 
L 172.983426 418.115975 
L 175.907116 436.351181 
L 181.754496 521.138099 
L 184.678186 439.483144 
L 187.601876 386.065973 
L 190.525567 510.437881 
L 193.449257 491.189621 
L 196.372947 476.545453 
L 199.296637 540.870656 
L 202.220327 434.107849 
L 205.144017 420.892366 
L 208.067707 550.229673 
L 210.991397 483.921423 
L 213.915087 452.141992 
L 216.838777 477.588134 
L 219.762468 467.553584 
L 222.686158 464.923199 
L 225.609848 451.008502 
L 228.533538 457.035298 
L 231.457228 486.759974 
L 234.380918 384.382285 
L 237.304608 411.447997 
L 240.228298 466.990478 
L 243.151988 445.490665 
L 246.075678 277.265569 
L 248.999369 289.192077 
L 251.923059 399.704399 
L 254.846749 396.769059 
L 257.770439 409.562055 
L 260.694129 369.91536 
L 263.617819 478.436362 
L 266.541509 413.780598 
L 269.465199 439.09693 
L 272.388889 533.611553 
L 275.312579 579.878443 
L 278.23627 586.756755 
L 281.15996 572.969105 
L 284.08365 513.124059 
L 287.00734 484.79774 
L 289.93103 517.291147 
L 292.85472 439.64573 
L 295.77841 413.354508 
L 298.7021 469.494026 
L 301.62579 443.742194 
L 304.549481 434.421444 
L 307.473171 418.618951 
L 310.396861 442.735821 
L 313.320551 426.703265 
L 316.244241 465.831593 
L 319.167931 409.423709 
L 322.091621 485.700887 
L 325.015311 438.519097 
L 327.939001 416.233285 
L 330.862691 425.688952 
L 333.786382 384.620918 
L 336.710072 430.253237 
L 339.633762 458.034674 
L 342.557452 458.856107 
L 345.481142 407.090724 
L 348.404832 273.401197 
L 351.328522 253.100531 
L 354.252212 414.524411 
L 357.175902 475.47038 
L 360.099592 486.008255 
L 363.023283 565.157074 
L 365.946973 438.685776 
L 368.870663 411.049681 
L 371.794353 424.141336 
L 374.718043 495.806201 
L 377.641733 512.473083 
L 380.565423 512.801894 
L 383.489113 473.352695 
L 386.412803 414.93672 
L 392.260184 365.475638 
L 395.183874 413.007997 
L 398.107564 317.395722 
L 401.031254 346.748124 
L 403.954944 363.796147 
L 406.878634 337.264246 
L 409.802324 332.256188 
L 412.726014 330.225184 
L 415.649704 408.309669 
L 418.573395 324.501612 
L 421.497085 406.961928 
L 424.420775 461.593811 
L 427.344465 377.017857 
L 430.268155 408.534485 
L 433.191845 409.661538 
L 436.115535 345.364966 
L 439.039225 403.409297 
L 441.962915 447.949124 
L 444.886605 410.55503 
L 447.810296 408.253211 
L 450.733986 392.785511 
L 453.657676 443.959209 
L 456.581366 437.052599 
L 459.505056 459.754392 
L 462.428746 408.417862 
L 465.352436 450.453966 
L 468.276126 443.050151 
L 471.199816 458.698663 
L 474.123506 437.903206 
L 477.047197 431.68577 
L 479.970887 349.88647 
L 482.894577 421.245663 
L 485.818267 410.158603 
L 488.741957 421.061214 
L 491.665647 493.925365 
L 494.589337 414.112313 
L 497.513027 530.825088 
L 500.436717 511.775898 
L 503.360408 482.444711 
L 506.284098 491.6962 
L 509.207788 411.837254 
L 512.131478 399.357713 
L 515.055168 375.682429 
L 517.978858 448.471724 
L 520.902548 487.442607 
L 523.826238 478.037171 
L 526.749928 466.363603 
L 529.673618 390.074882 
L 532.597309 355.742178 
L 535.520999 412.911732 
L 538.444689 357.517917 
L 541.368379 322.718773 
L 544.292069 264.76964 
L 547.215759 288.0815 
L 550.139449 315.920898 
L 553.063139 327.570208 
L 555.986829 331.133927 
L 558.910519 343.504663 
L 561.83421 332.078683 
L 564.7579 289.818165 
L 567.68159 292.105834 
L 570.60528 321.24416 
L 573.52897 317.388638 
L 576.45266 360.104349 
L 579.37635 429.626712 
L 582.30004 369.340675 
L 585.22373 408.976316 
L 588.147421 352.569815 
L 591.071111 347.403403 
L 593.994801 422.808111 
L 596.918491 368.837593 
L 599.842181 393.750397 
L 602.765871 471.785525 
L 605.689561 430.44825 
L 608.613251 433.686481 
L 611.536941 459.644555 
L 614.460631 500.977632 
L 617.384322 431.724527 
L 620.308012 434.668368 
L 623.231702 481.834976 
L 626.155392 550.035885 
L 629.079082 521.721074 
L 632.002772 478.617698 
L 634.926462 490.437902 
L 637.850152 496.143687 
L 640.773842 401.581107 
L 643.697532 322.592618 
L 646.621223 361.745869 
L 649.544913 363.341566 
L 652.468603 433.586893 
L 655.392293 397.330207 
L 658.315983 332.612039 
L 661.239673 379.92182 
L 664.163363 286.824321 
L 667.087053 372.335725 
L 670.010743 440.613834 
L 672.934433 429.794545 
L 675.858124 458.234129 
L 678.781814 441.460139 
L 681.705504 490.314493 
L 684.629194 515.695013 
L 687.552884 459.402878 
L 690.476574 530.003619 
L 693.400264 477.139132 
L 696.323954 463.225414 
L 699.247644 418.953429 
L 702.171335 382.627727 
L 705.095025 390.325443 
L 708.018715 389.092821 
L 710.942405 392.363058 
L 713.866095 389.269609 
L 716.789785 391.662236 
L 719.713475 389.665512 
L 722.637165 386.883174 
L 725.560855 390.038433 
L 728.484545 389.700632 
L 728.484545 389.700632 
" style="fill:none;stroke:#8172b3;stroke-dasharray:7.5,1.5,1.5,1.5;stroke-dashoffset:0;stroke-width:1.5;"/>
   </g>
   <g id="line2d_6"/>
   <g id="line2d_7"/>
   <g id="line2d_8"/>
   <g id="line2d_9"/>
   <g id="line2d_10"/>
   <g id="patch_3">
    <path d="M 105.3 529.9416 
L 105.3 71.4528 
" style="fill:none;stroke:#262626;stroke-linecap:square;stroke-linejoin:miter;stroke-width:1.25;"/>
   </g>
   <g id="patch_4">
    <path d="M 758.16 529.9416 
L 758.16 71.4528 
" style="fill:none;stroke:#262626;stroke-linecap:square;stroke-linejoin:miter;stroke-width:1.25;"/>
   </g>
   <g id="patch_5">
    <path d="M 105.3 529.9416 
L 758.16 529.9416 
" style="fill:none;stroke:#262626;stroke-linecap:square;stroke-linejoin:miter;stroke-width:1.25;"/>
   </g>
   <g id="patch_6">
    <path d="M 105.3 71.4528 
L 758.16 71.4528 
" style="fill:none;stroke:#262626;stroke-linecap:square;stroke-linejoin:miter;stroke-width:1.25;"/>
   </g>
   <g id="text_16">
    <!-- Activations for &gt;J&lt; -->
    <g style="fill:#262626;" transform="translate(382.374375 65.4528)scale(0.12 -0.12)">
     <defs>
      <path d="M -9 0 
L 1750 4581 
L 2403 4581 
L 4278 0 
L 3588 0 
L 3053 1388 
L 1138 1388 
L 634 0 
L -9 0 
z
M 1313 1881 
L 2866 1881 
L 2388 3150 
Q 2169 3728 2063 4100 
Q 1975 3659 1816 3225 
L 1313 1881 
z
" id="ArialMT-41" transform="scale(0.015625)"/>
      <path d="M 2588 1216 
L 3141 1144 
Q 3050 572 2676 248 
Q 2303 -75 1759 -75 
Q 1078 -75 664 370 
Q 250 816 250 1647 
Q 250 2184 428 2587 
Q 606 2991 970 3192 
Q 1334 3394 1763 3394 
Q 2303 3394 2647 3120 
Q 2991 2847 3088 2344 
L 2541 2259 
Q 2463 2594 2264 2762 
Q 2066 2931 1784 2931 
Q 1359 2931 1093 2626 
Q 828 2322 828 1663 
Q 828 994 1084 691 
Q 1341 388 1753 388 
Q 2084 388 2306 591 
Q 2528 794 2588 1216 
z
" id="ArialMT-63" transform="scale(0.015625)"/>
      <path d="M 1650 503 
L 1731 6 
Q 1494 -44 1306 -44 
Q 1000 -44 831 53 
Q 663 150 594 308 
Q 525 466 525 972 
L 525 2881 
L 113 2881 
L 113 3319 
L 525 3319 
L 525 4141 
L 1084 4478 
L 1084 3319 
L 1650 3319 
L 1650 2881 
L 1084 2881 
L 1084 941 
Q 1084 700 1114 631 
Q 1144 563 1211 522 
Q 1278 481 1403 481 
Q 1497 481 1650 503 
z
" id="ArialMT-74" transform="scale(0.015625)"/>
      <path d="M 425 3934 
L 425 4581 
L 988 4581 
L 988 3934 
L 425 3934 
z
M 425 0 
L 425 3319 
L 988 3319 
L 988 0 
L 425 0 
z
" id="ArialMT-69" transform="scale(0.015625)"/>
      <path d="M 1344 0 
L 81 3319 
L 675 3319 
L 1388 1331 
Q 1503 1009 1600 663 
Q 1675 925 1809 1294 
L 2547 3319 
L 3125 3319 
L 1869 0 
L 1344 0 
z
" id="ArialMT-76" transform="scale(0.015625)"/>
      <path d="M 2588 409 
Q 2275 144 1986 34 
Q 1697 -75 1366 -75 
Q 819 -75 525 192 
Q 231 459 231 875 
Q 231 1119 342 1320 
Q 453 1522 633 1644 
Q 813 1766 1038 1828 
Q 1203 1872 1538 1913 
Q 2219 1994 2541 2106 
Q 2544 2222 2544 2253 
Q 2544 2597 2384 2738 
Q 2169 2928 1744 2928 
Q 1347 2928 1158 2789 
Q 969 2650 878 2297 
L 328 2372 
Q 403 2725 575 2942 
Q 747 3159 1072 3276 
Q 1397 3394 1825 3394 
Q 2250 3394 2515 3294 
Q 2781 3194 2906 3042 
Q 3031 2891 3081 2659 
Q 3109 2516 3109 2141 
L 3109 1391 
Q 3109 606 3145 398 
Q 3181 191 3288 0 
L 2700 0 
Q 2613 175 2588 409 
z
M 2541 1666 
Q 2234 1541 1622 1453 
Q 1275 1403 1131 1340 
Q 988 1278 909 1158 
Q 831 1038 831 891 
Q 831 666 1001 516 
Q 1172 366 1500 366 
Q 1825 366 2078 508 
Q 2331 650 2450 897 
Q 2541 1088 2541 1459 
L 2541 1666 
z
" id="ArialMT-61" transform="scale(0.015625)"/>
      <path d="M 213 1659 
Q 213 2581 725 3025 
Q 1153 3394 1769 3394 
Q 2453 3394 2887 2945 
Q 3322 2497 3322 1706 
Q 3322 1066 3130 698 
Q 2938 331 2570 128 
Q 2203 -75 1769 -75 
Q 1072 -75 642 372 
Q 213 819 213 1659 
z
M 791 1659 
Q 791 1022 1069 705 
Q 1347 388 1769 388 
Q 2188 388 2466 706 
Q 2744 1025 2744 1678 
Q 2744 2294 2464 2611 
Q 2184 2928 1769 2928 
Q 1347 2928 1069 2612 
Q 791 2297 791 1659 
z
" id="ArialMT-6f" transform="scale(0.015625)"/>
      <path d="M 422 0 
L 422 3319 
L 928 3319 
L 928 2847 
Q 1294 3394 1984 3394 
Q 2284 3394 2536 3286 
Q 2788 3178 2913 3003 
Q 3038 2828 3088 2588 
Q 3119 2431 3119 2041 
L 3119 0 
L 2556 0 
L 2556 2019 
Q 2556 2363 2490 2533 
Q 2425 2703 2258 2804 
Q 2091 2906 1866 2906 
Q 1506 2906 1245 2678 
Q 984 2450 984 1813 
L 984 0 
L 422 0 
z
" id="ArialMT-6e" transform="scale(0.015625)"/>
      <path d="M 197 991 
L 753 1078 
Q 800 744 1014 566 
Q 1228 388 1613 388 
Q 2000 388 2187 545 
Q 2375 703 2375 916 
Q 2375 1106 2209 1216 
Q 2094 1291 1634 1406 
Q 1016 1563 777 1677 
Q 538 1791 414 1992 
Q 291 2194 291 2438 
Q 291 2659 392 2848 
Q 494 3038 669 3163 
Q 800 3259 1026 3326 
Q 1253 3394 1513 3394 
Q 1903 3394 2198 3281 
Q 2494 3169 2634 2976 
Q 2775 2784 2828 2463 
L 2278 2388 
Q 2241 2644 2061 2787 
Q 1881 2931 1553 2931 
Q 1166 2931 1000 2803 
Q 834 2675 834 2503 
Q 834 2394 903 2306 
Q 972 2216 1119 2156 
Q 1203 2125 1616 2013 
Q 2213 1853 2448 1751 
Q 2684 1650 2818 1456 
Q 2953 1263 2953 975 
Q 2953 694 2789 445 
Q 2625 197 2315 61 
Q 2006 -75 1616 -75 
Q 969 -75 630 194 
Q 291 463 197 991 
z
" id="ArialMT-73" transform="scale(0.015625)"/>
      <path id="ArialMT-20" transform="scale(0.015625)"/>
      <path d="M 556 0 
L 556 2881 
L 59 2881 
L 59 3319 
L 556 3319 
L 556 3672 
Q 556 4006 616 4169 
Q 697 4388 901 4523 
Q 1106 4659 1475 4659 
Q 1713 4659 2000 4603 
L 1916 4113 
Q 1741 4144 1584 4144 
Q 1328 4144 1222 4034 
Q 1116 3925 1116 3625 
L 1116 3319 
L 1763 3319 
L 1763 2881 
L 1116 2881 
L 1116 0 
L 556 0 
z
" id="ArialMT-66" transform="scale(0.015625)"/>
      <path d="M 416 0 
L 416 3319 
L 922 3319 
L 922 2816 
Q 1116 3169 1280 3281 
Q 1444 3394 1641 3394 
Q 1925 3394 2219 3213 
L 2025 2691 
Q 1819 2813 1613 2813 
Q 1428 2813 1281 2702 
Q 1134 2591 1072 2394 
Q 978 2094 978 1738 
L 978 0 
L 416 0 
z
" id="ArialMT-72" transform="scale(0.015625)"/>
      <path d="M 3384 2003 
L 350 706 
L 350 1266 
L 2753 2263 
L 350 3250 
L 350 3809 
L 3384 2528 
L 3384 2003 
z
" id="ArialMT-3e" transform="scale(0.015625)"/>
      <path d="M 184 1300 
L 731 1375 
Q 753 850 928 656 
Q 1103 463 1413 463 
Q 1641 463 1806 567 
Q 1972 672 2034 851 
Q 2097 1031 2097 1425 
L 2097 4581 
L 2703 4581 
L 2703 1459 
Q 2703 884 2564 568 
Q 2425 253 2123 87 
Q 1822 -78 1416 -78 
Q 813 -78 492 269 
Q 172 616 184 1300 
z
" id="ArialMT-4a" transform="scale(0.015625)"/>
      <path d="M 350 2003 
L 350 2528 
L 3384 3809 
L 3384 3250 
L 978 2263 
L 3384 1266 
L 3384 706 
L 350 2003 
z
" id="ArialMT-3c" transform="scale(0.015625)"/>
     </defs>
     <use xlink:href="#ArialMT-41"/>
     <use x="66.699219" xlink:href="#ArialMT-63"/>
     <use x="116.699219" xlink:href="#ArialMT-74"/>
     <use x="144.482422" xlink:href="#ArialMT-69"/>
     <use x="166.699219" xlink:href="#ArialMT-76"/>
     <use x="216.699219" xlink:href="#ArialMT-61"/>
     <use x="272.314453" xlink:href="#ArialMT-74"/>
     <use x="300.097656" xlink:href="#ArialMT-69"/>
     <use x="322.314453" xlink:href="#ArialMT-6f"/>
     <use x="377.929688" xlink:href="#ArialMT-6e"/>
     <use x="433.544922" xlink:href="#ArialMT-73"/>
     <use x="483.544922" xlink:href="#ArialMT-20"/>
     <use x="511.328125" xlink:href="#ArialMT-66"/>
     <use x="539.111328" xlink:href="#ArialMT-6f"/>
     <use x="594.726562" xlink:href="#ArialMT-72"/>
     <use x="628.027344" xlink:href="#ArialMT-20"/>
     <use x="655.810547" xlink:href="#ArialMT-3e"/>
     <use x="714.208984" xlink:href="#ArialMT-4a"/>
     <use x="764.208984" xlink:href="#ArialMT-3c"/>
    </g>
   </g>
   <g id="legend_1">
    <g id="patch_7">
     <path d="M 640.044062 158.514363 
L 750.46 158.514363 
Q 752.66 158.514363 752.66 156.314363 
L 752.66 79.1528 
Q 752.66 76.9528 750.46 76.9528 
L 640.044062 76.9528 
Q 637.844062 76.9528 637.844062 79.1528 
L 637.844062 156.314363 
Q 637.844062 158.514363 640.044062 158.514363 
z
" style="fill:#ffffff;opacity:0.8;stroke:#cccccc;stroke-linejoin:miter;"/>
    </g>
    <g id="line2d_11">
     <path d="M 642.244062 85.376394 
L 664.244062 85.376394 
" style="fill:none;stroke:#4c72b0;stroke-linecap:round;stroke-width:1.5;"/>
    </g>
    <g id="line2d_12"/>
    <g id="text_17">
     <!-- regular -->
     <g style="fill:#262626;" transform="translate(673.044062 89.226394)scale(0.11 -0.11)">
      <defs>
       <path d="M 2694 1069 
L 3275 997 
Q 3138 488 2766 206 
Q 2394 -75 1816 -75 
Q 1088 -75 661 373 
Q 234 822 234 1631 
Q 234 2469 665 2931 
Q 1097 3394 1784 3394 
Q 2450 3394 2872 2941 
Q 3294 2488 3294 1666 
Q 3294 1616 3291 1516 
L 816 1516 
Q 847 969 1125 678 
Q 1403 388 1819 388 
Q 2128 388 2347 550 
Q 2566 713 2694 1069 
z
M 847 1978 
L 2700 1978 
Q 2663 2397 2488 2606 
Q 2219 2931 1791 2931 
Q 1403 2931 1139 2672 
Q 875 2413 847 1978 
z
" id="ArialMT-65" transform="scale(0.015625)"/>
       <path d="M 319 -275 
L 866 -356 
Q 900 -609 1056 -725 
Q 1266 -881 1628 -881 
Q 2019 -881 2231 -725 
Q 2444 -569 2519 -288 
Q 2563 -116 2559 434 
Q 2191 0 1641 0 
Q 956 0 581 494 
Q 206 988 206 1678 
Q 206 2153 378 2554 
Q 550 2956 876 3175 
Q 1203 3394 1644 3394 
Q 2231 3394 2613 2919 
L 2613 3319 
L 3131 3319 
L 3131 450 
Q 3131 -325 2973 -648 
Q 2816 -972 2473 -1159 
Q 2131 -1347 1631 -1347 
Q 1038 -1347 672 -1080 
Q 306 -813 319 -275 
z
M 784 1719 
Q 784 1066 1043 766 
Q 1303 466 1694 466 
Q 2081 466 2343 764 
Q 2606 1063 2606 1700 
Q 2606 2309 2336 2618 
Q 2066 2928 1684 2928 
Q 1309 2928 1046 2623 
Q 784 2319 784 1719 
z
" id="ArialMT-67" transform="scale(0.015625)"/>
       <path d="M 2597 0 
L 2597 488 
Q 2209 -75 1544 -75 
Q 1250 -75 995 37 
Q 741 150 617 320 
Q 494 491 444 738 
Q 409 903 409 1263 
L 409 3319 
L 972 3319 
L 972 1478 
Q 972 1038 1006 884 
Q 1059 663 1231 536 
Q 1403 409 1656 409 
Q 1909 409 2131 539 
Q 2353 669 2445 892 
Q 2538 1116 2538 1541 
L 2538 3319 
L 3100 3319 
L 3100 0 
L 2597 0 
z
" id="ArialMT-75" transform="scale(0.015625)"/>
       <path d="M 409 0 
L 409 4581 
L 972 4581 
L 972 0 
L 409 0 
z
" id="ArialMT-6c" transform="scale(0.015625)"/>
      </defs>
      <use xlink:href="#ArialMT-72"/>
      <use x="33.300781" xlink:href="#ArialMT-65"/>
      <use x="88.916016" xlink:href="#ArialMT-67"/>
      <use x="144.53125" xlink:href="#ArialMT-75"/>
      <use x="200.146484" xlink:href="#ArialMT-6c"/>
      <use x="222.363281" xlink:href="#ArialMT-61"/>
      <use x="277.978516" xlink:href="#ArialMT-72"/>
     </g>
    </g>
    <g id="line2d_13">
     <path d="M 642.244062 101.0978 
L 664.244062 101.0978 
" style="fill:none;stroke:#dd8452;stroke-dasharray:6,2.25;stroke-dashoffset:0;stroke-width:1.5;"/>
    </g>
    <g id="line2d_14"/>
    <g id="text_18">
     <!-- splitted_3s -->
     <g style="fill:#262626;" transform="translate(673.044062 104.9478)scale(0.11 -0.11)">
      <defs>
       <path d="M 422 -1272 
L 422 3319 
L 934 3319 
L 934 2888 
Q 1116 3141 1344 3267 
Q 1572 3394 1897 3394 
Q 2322 3394 2647 3175 
Q 2972 2956 3137 2557 
Q 3303 2159 3303 1684 
Q 3303 1175 3120 767 
Q 2938 359 2589 142 
Q 2241 -75 1856 -75 
Q 1575 -75 1351 44 
Q 1128 163 984 344 
L 984 -1272 
L 422 -1272 
z
M 931 1641 
Q 931 1000 1190 694 
Q 1450 388 1819 388 
Q 2194 388 2461 705 
Q 2728 1022 2728 1688 
Q 2728 2322 2467 2637 
Q 2206 2953 1844 2953 
Q 1484 2953 1207 2617 
Q 931 2281 931 1641 
z
" id="ArialMT-70" transform="scale(0.015625)"/>
       <path d="M 2575 0 
L 2575 419 
Q 2259 -75 1647 -75 
Q 1250 -75 917 144 
Q 584 363 401 755 
Q 219 1147 219 1656 
Q 219 2153 384 2558 
Q 550 2963 881 3178 
Q 1213 3394 1622 3394 
Q 1922 3394 2156 3267 
Q 2391 3141 2538 2938 
L 2538 4581 
L 3097 4581 
L 3097 0 
L 2575 0 
z
M 797 1656 
Q 797 1019 1065 703 
Q 1334 388 1700 388 
Q 2069 388 2326 689 
Q 2584 991 2584 1609 
Q 2584 2291 2321 2609 
Q 2059 2928 1675 2928 
Q 1300 2928 1048 2622 
Q 797 2316 797 1656 
z
" id="ArialMT-64" transform="scale(0.015625)"/>
       <path d="M -97 -1272 
L -97 -866 
L 3631 -866 
L 3631 -1272 
L -97 -1272 
z
" id="ArialMT-5f" transform="scale(0.015625)"/>
       <path d="M 269 1209 
L 831 1284 
Q 928 806 1161 595 
Q 1394 384 1728 384 
Q 2125 384 2398 659 
Q 2672 934 2672 1341 
Q 2672 1728 2419 1979 
Q 2166 2231 1775 2231 
Q 1616 2231 1378 2169 
L 1441 2663 
Q 1497 2656 1531 2656 
Q 1891 2656 2178 2843 
Q 2466 3031 2466 3422 
Q 2466 3731 2256 3934 
Q 2047 4138 1716 4138 
Q 1388 4138 1169 3931 
Q 950 3725 888 3313 
L 325 3413 
Q 428 3978 793 4289 
Q 1159 4600 1703 4600 
Q 2078 4600 2393 4439 
Q 2709 4278 2876 4000 
Q 3044 3722 3044 3409 
Q 3044 3113 2884 2869 
Q 2725 2625 2413 2481 
Q 2819 2388 3044 2092 
Q 3269 1797 3269 1353 
Q 3269 753 2831 336 
Q 2394 -81 1725 -81 
Q 1122 -81 723 278 
Q 325 638 269 1209 
z
" id="ArialMT-33" transform="scale(0.015625)"/>
      </defs>
      <use xlink:href="#ArialMT-73"/>
      <use x="50" xlink:href="#ArialMT-70"/>
      <use x="105.615234" xlink:href="#ArialMT-6c"/>
      <use x="127.832031" xlink:href="#ArialMT-69"/>
      <use x="150.048828" xlink:href="#ArialMT-74"/>
      <use x="177.832031" xlink:href="#ArialMT-74"/>
      <use x="205.615234" xlink:href="#ArialMT-65"/>
      <use x="261.230469" xlink:href="#ArialMT-64"/>
      <use x="316.845703" xlink:href="#ArialMT-5f"/>
      <use x="372.460938" xlink:href="#ArialMT-33"/>
      <use x="428.076172" xlink:href="#ArialMT-73"/>
     </g>
    </g>
    <g id="line2d_15">
     <path d="M 642.244062 116.6903 
L 664.244062 116.6903 
" style="fill:none;stroke:#55a868;stroke-dasharray:1.5,1.5;stroke-dashoffset:0;stroke-width:1.5;"/>
    </g>
    <g id="line2d_16"/>
    <g id="text_19">
     <!-- splitted_1s -->
     <g style="fill:#262626;" transform="translate(673.044062 120.5403)scale(0.11 -0.11)">
      <use xlink:href="#ArialMT-73"/>
      <use x="50" xlink:href="#ArialMT-70"/>
      <use x="105.615234" xlink:href="#ArialMT-6c"/>
      <use x="127.832031" xlink:href="#ArialMT-69"/>
      <use x="150.048828" xlink:href="#ArialMT-74"/>
      <use x="177.832031" xlink:href="#ArialMT-74"/>
      <use x="205.615234" xlink:href="#ArialMT-65"/>
      <use x="261.230469" xlink:href="#ArialMT-64"/>
      <use x="316.845703" xlink:href="#ArialMT-5f"/>
      <use x="372.460938" xlink:href="#ArialMT-31"/>
      <use x="428.076172" xlink:href="#ArialMT-73"/>
     </g>
    </g>
    <g id="line2d_17">
     <path d="M 642.244062 132.384206 
L 664.244062 132.384206 
" style="fill:none;stroke:#c44e52;stroke-dasharray:4.5,1.875,2.25,1.875;stroke-dashoffset:0;stroke-width:1.5;"/>
    </g>
    <g id="line2d_18"/>
    <g id="text_20">
     <!-- overlap_1f_3s -->
     <g style="fill:#262626;" transform="translate(673.044062 136.234206)scale(0.11 -0.11)">
      <use xlink:href="#ArialMT-6f"/>
      <use x="55.615234" xlink:href="#ArialMT-76"/>
      <use x="105.615234" xlink:href="#ArialMT-65"/>
      <use x="161.230469" xlink:href="#ArialMT-72"/>
      <use x="194.53125" xlink:href="#ArialMT-6c"/>
      <use x="216.748047" xlink:href="#ArialMT-61"/>
      <use x="272.363281" xlink:href="#ArialMT-70"/>
      <use x="327.978516" xlink:href="#ArialMT-5f"/>
      <use x="383.59375" xlink:href="#ArialMT-31"/>
      <use x="439.208984" xlink:href="#ArialMT-66"/>
      <use x="466.992188" xlink:href="#ArialMT-5f"/>
      <use x="522.607422" xlink:href="#ArialMT-33"/>
      <use x="578.222656" xlink:href="#ArialMT-73"/>
     </g>
    </g>
    <g id="line2d_19">
     <path d="M 642.244062 148.078113 
L 664.244062 148.078113 
" style="fill:none;stroke:#8172b3;stroke-dasharray:7.5,1.5,1.5,1.5;stroke-dashoffset:0;stroke-width:1.5;"/>
    </g>
    <g id="line2d_20"/>
    <g id="text_21">
     <!-- overlap_10f_3s -->
     <g style="fill:#262626;" transform="translate(673.044062 151.928112)scale(0.11 -0.11)">
      <use xlink:href="#ArialMT-6f"/>
      <use x="55.615234" xlink:href="#ArialMT-76"/>
      <use x="105.615234" xlink:href="#ArialMT-65"/>
      <use x="161.230469" xlink:href="#ArialMT-72"/>
      <use x="194.53125" xlink:href="#ArialMT-6c"/>
      <use x="216.748047" xlink:href="#ArialMT-61"/>
      <use x="272.363281" xlink:href="#ArialMT-70"/>
      <use x="327.978516" xlink:href="#ArialMT-5f"/>
      <use x="383.59375" xlink:href="#ArialMT-31"/>
      <use x="439.208984" xlink:href="#ArialMT-30"/>
      <use x="494.824219" xlink:href="#ArialMT-66"/>
      <use x="522.607422" xlink:href="#ArialMT-5f"/>
      <use x="578.222656" xlink:href="#ArialMT-33"/>
      <use x="633.837891" xlink:href="#ArialMT-73"/>
     </g>
    </g>
   </g>
  </g>
 </g>
 <defs>
  <clipPath id="pd18f0cb5df">
   <rect height="458.4888" width="652.86" x="105.3" y="71.4528"/>
  </clipPath>
 </defs>
</svg>
