<?xml version="1.0" encoding="utf-8" standalone="no"?>
<!DOCTYPE svg PUBLIC "-//W3C//DTD SVG 1.1//EN"
  "http://www.w3.org/Graphics/SVG/1.1/DTD/svg11.dtd">
<svg height="595.44pt" version="1.1" viewBox="0 0 842.4 595.44" width="842.4pt" xmlns="http://www.w3.org/2000/svg" xmlns:xlink="http://www.w3.org/1999/xlink">
 <metadata>
  <rdf:RDF xmlns:cc="http://creativecommons.org/ns#" xmlns:dc="http://purl.org/dc/elements/1.1/" xmlns:rdf="http://www.w3.org/1999/02/22-rdf-syntax-ns#">
   <cc:Work>
    <dc:type rdf:resource="http://purl.org/dc/dcmitype/StillImage"/>
    <dc:date>2021-06-04T22:03:19.987531</dc:date>
    <dc:format>image/svg+xml</dc:format>
    <dc:creator>
     <cc:Agent>
      <dc:title>Matplotlib v3.4.1, https://matplotlib.org/</dc:title>
     </cc:Agent>
    </dc:creator>
   </cc:Work>
  </rdf:RDF>
 </metadata>
 <defs>
  <style type="text/css">*{stroke-linecap:butt;stroke-linejoin:round;}</style>
 </defs>
 <g id="figure_1">
  <g id="patch_1">
   <path d="M 0 595.44 
L 842.4 595.44 
L 842.4 0 
L 0 0 
z
" style="fill:#ffffff;"/>
  </g>
  <g id="axes_1">
   <g id="patch_2">
    <path d="M 105.3 529.9416 
L 758.16 529.9416 
L 758.16 71.4528 
L 105.3 71.4528 
z
" style="fill:#ffffff;"/>
   </g>
   <g id="matplotlib.axis_1">
    <g id="xtick_1">
     <g id="text_1">
      <!-- 0 -->
      <g style="fill:#262626;" transform="translate(131.916939 547.315194)scale(0.11 -0.11)">
       <defs>
        <path d="M 266 2259 
Q 266 3072 433 3567 
Q 600 4063 929 4331 
Q 1259 4600 1759 4600 
Q 2128 4600 2406 4451 
Q 2684 4303 2865 4023 
Q 3047 3744 3150 3342 
Q 3253 2941 3253 2259 
Q 3253 1453 3087 958 
Q 2922 463 2592 192 
Q 2263 -78 1759 -78 
Q 1097 -78 719 397 
Q 266 969 266 2259 
z
M 844 2259 
Q 844 1131 1108 757 
Q 1372 384 1759 384 
Q 2147 384 2411 759 
Q 2675 1134 2675 2259 
Q 2675 3391 2411 3762 
Q 2147 4134 1753 4134 
Q 1366 4134 1134 3806 
Q 844 3388 844 2259 
z
" id="ArialMT-30" transform="scale(0.015625)"/>
       </defs>
       <use xlink:href="#ArialMT-30"/>
      </g>
     </g>
    </g>
    <g id="xtick_2">
     <g id="text_2">
      <!-- 25 -->
      <g style="fill:#262626;" transform="translate(201.950676 547.315194)scale(0.11 -0.11)">
       <defs>
        <path d="M 3222 541 
L 3222 0 
L 194 0 
Q 188 203 259 391 
Q 375 700 629 1000 
Q 884 1300 1366 1694 
Q 2113 2306 2375 2664 
Q 2638 3022 2638 3341 
Q 2638 3675 2398 3904 
Q 2159 4134 1775 4134 
Q 1369 4134 1125 3890 
Q 881 3647 878 3216 
L 300 3275 
Q 359 3922 746 4261 
Q 1134 4600 1788 4600 
Q 2447 4600 2831 4234 
Q 3216 3869 3216 3328 
Q 3216 3053 3103 2787 
Q 2991 2522 2730 2228 
Q 2469 1934 1863 1422 
Q 1356 997 1212 845 
Q 1069 694 975 541 
L 3222 541 
z
" id="ArialMT-32" transform="scale(0.015625)"/>
        <path d="M 266 1200 
L 856 1250 
Q 922 819 1161 601 
Q 1400 384 1738 384 
Q 2144 384 2425 690 
Q 2706 997 2706 1503 
Q 2706 1984 2436 2262 
Q 2166 2541 1728 2541 
Q 1456 2541 1237 2417 
Q 1019 2294 894 2097 
L 366 2166 
L 809 4519 
L 3088 4519 
L 3088 3981 
L 1259 3981 
L 1013 2750 
Q 1425 3038 1878 3038 
Q 2478 3038 2890 2622 
Q 3303 2206 3303 1553 
Q 3303 931 2941 478 
Q 2500 -78 1738 -78 
Q 1113 -78 717 272 
Q 322 622 266 1200 
z
" id="ArialMT-35" transform="scale(0.015625)"/>
       </defs>
       <use xlink:href="#ArialMT-32"/>
       <use x="55.615234" xlink:href="#ArialMT-35"/>
      </g>
     </g>
    </g>
    <g id="xtick_3">
     <g id="text_3">
      <!-- 50 -->
      <g style="fill:#262626;" transform="translate(275.042928 547.315194)scale(0.11 -0.11)">
       <use xlink:href="#ArialMT-35"/>
       <use x="55.615234" xlink:href="#ArialMT-30"/>
      </g>
     </g>
    </g>
    <g id="xtick_4">
     <g id="text_4">
      <!-- 75 -->
      <g style="fill:#262626;" transform="translate(348.135181 547.315194)scale(0.11 -0.11)">
       <defs>
        <path d="M 303 3981 
L 303 4522 
L 3269 4522 
L 3269 4084 
Q 2831 3619 2401 2847 
Q 1972 2075 1738 1259 
Q 1569 684 1522 0 
L 944 0 
Q 953 541 1156 1306 
Q 1359 2072 1739 2783 
Q 2119 3494 2547 3981 
L 303 3981 
z
" id="ArialMT-37" transform="scale(0.015625)"/>
       </defs>
       <use xlink:href="#ArialMT-37"/>
       <use x="55.615234" xlink:href="#ArialMT-35"/>
      </g>
     </g>
    </g>
    <g id="xtick_5">
     <g id="text_5">
      <!-- 100 -->
      <g style="fill:#262626;" transform="translate(418.168918 547.315194)scale(0.11 -0.11)">
       <defs>
        <path d="M 2384 0 
L 1822 0 
L 1822 3584 
Q 1619 3391 1289 3197 
Q 959 3003 697 2906 
L 697 3450 
Q 1169 3672 1522 3987 
Q 1875 4303 2022 4600 
L 2384 4600 
L 2384 0 
z
" id="ArialMT-31" transform="scale(0.015625)"/>
       </defs>
       <use xlink:href="#ArialMT-31"/>
       <use x="55.615234" xlink:href="#ArialMT-30"/>
       <use x="111.230469" xlink:href="#ArialMT-30"/>
      </g>
     </g>
    </g>
    <g id="xtick_6">
     <g id="text_6">
      <!-- 125 -->
      <g style="fill:#262626;" transform="translate(491.261171 547.315194)scale(0.11 -0.11)">
       <use xlink:href="#ArialMT-31"/>
       <use x="55.615234" xlink:href="#ArialMT-32"/>
       <use x="111.230469" xlink:href="#ArialMT-35"/>
      </g>
     </g>
    </g>
    <g id="xtick_7">
     <g id="text_7">
      <!-- 150 -->
      <g style="fill:#262626;" transform="translate(564.353423 547.315194)scale(0.11 -0.11)">
       <use xlink:href="#ArialMT-31"/>
       <use x="55.615234" xlink:href="#ArialMT-35"/>
       <use x="111.230469" xlink:href="#ArialMT-30"/>
      </g>
     </g>
    </g>
    <g id="xtick_8">
     <g id="text_8">
      <!-- 175 -->
      <g style="fill:#262626;" transform="translate(637.445676 547.315194)scale(0.11 -0.11)">
       <use xlink:href="#ArialMT-31"/>
       <use x="55.615234" xlink:href="#ArialMT-37"/>
       <use x="111.230469" xlink:href="#ArialMT-35"/>
      </g>
     </g>
    </g>
    <g id="xtick_9">
     <g id="text_9">
      <!-- 200 -->
      <g style="fill:#262626;" transform="translate(710.537928 547.315194)scale(0.11 -0.11)">
       <use xlink:href="#ArialMT-32"/>
       <use x="55.615234" xlink:href="#ArialMT-30"/>
       <use x="111.230469" xlink:href="#ArialMT-30"/>
      </g>
     </g>
    </g>
   </g>
   <g id="matplotlib.axis_2">
    <g id="ytick_1">
     <g id="text_10">
      <!-- −25 -->
      <g style="fill:#262626;" transform="translate(77.14125 533.878397)scale(0.11 -0.11)">
       <defs>
        <path d="M 3381 1997 
L 356 1997 
L 356 2522 
L 3381 2522 
L 3381 1997 
z
" id="ArialMT-2212" transform="scale(0.015625)"/>
       </defs>
       <use xlink:href="#ArialMT-2212"/>
       <use x="58.398438" xlink:href="#ArialMT-32"/>
       <use x="114.013672" xlink:href="#ArialMT-35"/>
      </g>
     </g>
    </g>
    <g id="ytick_2">
     <g id="text_11">
      <!-- −20 -->
      <g style="fill:#262626;" transform="translate(77.14125 442.180637)scale(0.11 -0.11)">
       <use xlink:href="#ArialMT-2212"/>
       <use x="58.398438" xlink:href="#ArialMT-32"/>
       <use x="114.013672" xlink:href="#ArialMT-30"/>
      </g>
     </g>
    </g>
    <g id="ytick_3">
     <g id="text_12">
      <!-- −15 -->
      <g style="fill:#262626;" transform="translate(77.14125 350.482877)scale(0.11 -0.11)">
       <use xlink:href="#ArialMT-2212"/>
       <use x="58.398438" xlink:href="#ArialMT-31"/>
       <use x="114.013672" xlink:href="#ArialMT-35"/>
      </g>
     </g>
    </g>
    <g id="ytick_4">
     <g id="text_13">
      <!-- −10 -->
      <g style="fill:#262626;" transform="translate(77.14125 258.785117)scale(0.11 -0.11)">
       <use xlink:href="#ArialMT-2212"/>
       <use x="58.398438" xlink:href="#ArialMT-31"/>
       <use x="114.013672" xlink:href="#ArialMT-30"/>
      </g>
     </g>
    </g>
    <g id="ytick_5">
     <g id="text_14">
      <!-- −5 -->
      <g style="fill:#262626;" transform="translate(83.258281 167.087357)scale(0.11 -0.11)">
       <use xlink:href="#ArialMT-2212"/>
       <use x="58.398438" xlink:href="#ArialMT-35"/>
      </g>
     </g>
    </g>
    <g id="ytick_6">
     <g id="text_15">
      <!-- 0 -->
      <g style="fill:#262626;" transform="translate(89.682969 75.389597)scale(0.11 -0.11)">
       <use xlink:href="#ArialMT-30"/>
      </g>
     </g>
    </g>
   </g>
   <g id="line2d_1">
    <path clip-path="url(#pe4a9d5cc63)" d="M 134.975455 458.779396 
L 137.899145 459.576904 
L 140.822835 460.712841 
L 143.746525 460.965816 
L 146.670215 462.342836 
L 149.593905 463.299676 
L 152.517595 463.234299 
L 155.441285 467.001217 
L 158.364975 468.398245 
L 161.288665 470.979588 
L 164.212356 472.458958 
L 167.136046 475.410564 
L 170.059736 496.260695 
L 172.983426 508.4463 
L 175.907116 521.246816 
L 178.830806 561.676817 
L 180.872264 596.44 
M 182.192419 596.44 
L 184.678186 511.164519 
L 187.601876 462.245312 
L 190.525567 529.327807 
L 193.449257 527.77204 
L 196.372947 493.799997 
L 199.296637 512.584179 
L 202.220327 450.196583 
L 205.144017 440.004065 
L 208.067707 532.081007 
L 210.991397 439.227615 
L 213.915087 468.695679 
L 216.838777 491.402859 
L 219.762468 482.691879 
L 222.686158 520.989259 
L 225.609848 524.160784 
L 228.533538 561.747162 
L 231.457228 555.580237 
L 234.380918 465.878571 
L 237.304608 518.038038 
L 240.228298 573.824189 
L 243.151988 529.930651 
L 246.075678 447.426768 
L 248.999369 426.081392 
L 251.923059 481.099698 
L 254.846749 489.174253 
L 257.770439 514.713442 
L 260.694129 444.046309 
L 263.617819 538.344301 
L 266.541509 434.53338 
L 269.465199 430.191428 
L 272.388889 455.416567 
L 275.312579 474.643769 
L 278.23627 479.638902 
L 281.15996 473.225998 
L 284.08365 442.498588 
L 287.00734 449.8025 
L 289.93103 488.10838 
L 292.85472 436.775593 
L 295.77841 400.809415 
L 298.7021 451.731222 
L 301.62579 476.708669 
L 304.549481 487.84589 
L 307.473171 471.668797 
L 310.396861 480.444244 
L 313.320551 462.891846 
L 316.244241 512.416416 
L 319.167931 476.744733 
L 322.091621 434.806153 
L 325.015311 366.657715 
L 327.939001 421.149678 
L 330.862691 432.819749 
L 333.786382 426.593918 
L 336.710072 450.015842 
L 339.633762 520.573313 
L 342.557452 507.240962 
L 345.481142 419.581983 
L 348.404832 432.257447 
L 351.328522 405.263093 
L 354.252212 472.117659 
L 357.175902 493.515051 
L 360.099592 479.752167 
L 363.023283 552.617648 
L 365.946973 450.218656 
L 368.870663 429.935794 
L 371.794353 436.895784 
L 374.718043 485.098777 
L 377.641733 529.072454 
L 380.565423 531.696438 
L 383.489113 474.115048 
L 386.412803 439.348401 
L 389.336494 476.221643 
L 392.260184 464.283382 
L 395.183874 497.181121 
L 398.107564 448.833836 
L 401.031254 413.028705 
L 403.954944 400.852125 
L 406.878634 455.434581 
L 409.802324 425.966798 
L 412.726014 411.654169 
L 415.649704 495.865946 
L 418.573395 445.873485 
L 421.497085 492.580003 
L 424.420775 577.075502 
L 427.344465 495.9648 
L 430.268155 492.765501 
L 433.191845 494.166447 
L 436.115535 437.286615 
L 439.039225 420.967398 
L 441.962915 472.299695 
L 444.886605 467.529518 
L 447.810296 391.89034 
L 450.733986 354.492486 
L 453.657676 398.165073 
L 456.581366 371.350131 
L 459.505056 510.268858 
L 462.428746 443.39173 
L 465.352436 470.930896 
L 468.276126 475.740984 
L 471.199816 466.685313 
L 474.123506 512.994564 
L 477.047197 432.235409 
L 479.970887 343.901948 
L 482.894577 470.138286 
L 488.741957 480.611029 
L 491.665647 449.414782 
L 494.589337 474.72034 
L 497.513027 562.584756 
L 503.360408 400.186667 
L 506.284098 458.308567 
L 509.207788 552.078957 
L 512.131478 538.586817 
L 515.055168 519.601816 
L 517.978858 441.218952 
L 520.902548 485.219143 
L 523.826238 495.560187 
L 526.749928 439.446205 
L 529.673618 485.650761 
L 532.597309 522.043554 
L 535.520999 447.753516 
L 538.444689 470.027819 
L 541.368379 542.365383 
L 544.292069 521.882926 
L 547.215759 458.207335 
L 550.139449 522.497069 
L 553.063139 453.90414 
L 555.986829 507.93986 
L 558.910519 473.165518 
L 561.83421 474.41619 
L 564.7579 510.906787 
L 567.68159 448.049306 
L 570.60528 409.795021 
L 573.52897 400.645988 
L 576.45266 416.940404 
L 579.37635 427.021267 
L 582.30004 427.980382 
L 585.22373 423.746902 
L 588.147421 418.822814 
L 591.071111 442.378012 
L 593.994801 509.128338 
L 596.918491 444.381032 
L 599.842181 468.193892 
L 602.765871 449.152888 
L 605.689561 457.302089 
L 608.613251 445.362009 
L 611.536941 508.404184 
L 614.460631 527.243739 
L 617.384322 434.58515 
L 620.308012 494.123387 
L 623.231702 472.129692 
L 626.155392 508.450147 
L 629.079082 482.552834 
L 632.002772 433.930886 
L 634.926462 435.650324 
L 637.850152 494.756803 
L 640.773842 451.519944 
L 643.697532 413.364477 
L 646.621223 455.589578 
L 649.544913 460.004848 
L 652.468603 509.863861 
L 655.392293 462.017418 
L 658.315983 405.324832 
L 661.239673 475.390381 
L 664.163363 432.906429 
L 667.087053 510.81528 
L 670.010743 502.665413 
L 672.934433 490.408205 
L 675.858124 519.735929 
L 678.781814 474.551317 
L 681.705504 517.036458 
L 684.629194 562.047884 
L 687.552884 489.973439 
L 690.476574 579.063971 
L 693.400264 513.863465 
L 696.323954 538.047217 
L 699.247644 515.661048 
L 702.171335 496.684197 
L 705.095025 497.029029 
L 708.018715 490.24121 
L 710.942405 493.915886 
L 713.866095 493.958107 
L 716.789785 494.540732 
L 719.713475 492.606273 
L 722.637165 491.125713 
L 725.560855 494.919845 
L 728.484545 495.728405 
L 728.484545 495.728405 
" style="fill:none;stroke:#4c72b0;stroke-linecap:round;stroke-width:1.5;"/>
   </g>
   <g id="line2d_2">
    <path clip-path="url(#pe4a9d5cc63)" d="M 134.975455 448.987537 
L 137.899145 454.25254 
L 140.822835 453.115343 
L 143.746525 453.184148 
L 146.670215 457.239965 
L 149.593905 456.522982 
L 152.517595 453.689643 
L 155.441285 454.781122 
L 158.364975 452.64091 
L 161.288665 453.719691 
L 164.212356 452.886644 
L 167.136046 453.358558 
L 170.059736 472.375356 
L 172.983426 480.074926 
L 175.907116 496.542878 
L 181.754496 589.640989 
L 184.678186 502.219874 
L 187.601876 435.885389 
L 190.525567 528.323184 
L 193.449257 520.586955 
L 196.372947 491.666292 
L 199.296637 496.606226 
L 202.220327 454.364266 
L 205.144017 464.405287 
L 208.067707 544.81828 
L 210.991397 452.268899 
L 213.915087 440.298106 
L 216.838777 484.002542 
L 219.762468 466.017931 
L 222.686158 514.113781 
L 225.609848 512.707309 
L 228.533538 544.968589 
L 231.457228 542.350656 
L 234.380918 452.975738 
L 237.304608 504.107076 
L 240.228298 552.392412 
L 243.151988 515.026687 
L 246.075678 451.929978 
L 248.999369 455.923671 
L 251.923059 475.836375 
L 254.846749 485.023746 
L 257.770439 510.480907 
L 260.694129 448.062703 
L 263.617819 531.864516 
L 266.541509 445.107495 
L 269.465199 432.998916 
L 272.388889 475.997842 
L 275.312579 498.20355 
L 278.23627 500.082916 
L 281.15996 493.507355 
L 284.08365 450.083213 
L 287.00734 455.509648 
L 289.93103 507.981731 
L 292.85472 461.356402 
L 295.77841 399.404271 
L 298.7021 452.60579 
L 301.62579 481.650072 
L 304.549481 490.08499 
L 307.473171 476.247319 
L 310.396861 458.820778 
L 313.320551 468.244403 
L 316.244241 514.776546 
L 319.167931 490.481627 
L 322.091621 434.558111 
L 325.015311 353.900503 
L 327.939001 434.010815 
L 330.862691 433.992311 
L 333.786382 402.84717 
L 336.710072 467.114517 
L 339.633762 518.860416 
L 342.557452 487.060206 
L 345.481142 387.843268 
L 348.404832 404.18008 
L 351.328522 434.498785 
L 354.252212 473.032664 
L 357.175902 462.383308 
L 360.099592 381.081684 
L 363.023283 395.446993 
L 365.946973 394.725287 
L 368.870663 379.674162 
L 371.794353 394.779751 
L 374.718043 419.237816 
L 377.641733 429.657214 
L 380.565423 481.988573 
L 383.489113 425.567642 
L 386.412803 448.839118 
L 389.336494 486.955197 
L 392.260184 489.081031 
L 395.183874 510.479053 
L 398.107564 468.743252 
L 401.031254 432.267521 
L 403.954944 450.13271 
L 406.878634 466.972568 
L 409.802324 474.493775 
L 412.726014 477.325785 
L 415.649704 517.885736 
L 418.573395 460.791966 
L 421.497085 502.63638 
L 424.420775 558.542616 
L 427.344465 487.271555 
L 430.268155 484.621441 
L 433.191845 486.440642 
L 436.115535 443.184229 
L 439.039225 480.565275 
L 441.962915 516.312759 
L 444.886605 470.176414 
L 447.810296 389.92132 
L 450.733986 407.115804 
L 453.657676 409.839586 
L 456.581366 410.052439 
L 459.505056 523.294681 
L 462.428746 451.879153 
L 465.352436 491.124278 
L 468.276126 470.552553 
L 471.199816 475.341794 
L 474.123506 491.651076 
L 477.047197 467.296167 
L 479.970887 354.221444 
L 482.894577 473.029901 
L 485.818267 500.407145 
L 488.741957 497.567545 
L 491.665647 472.535215 
L 494.589337 491.760423 
L 497.513027 574.160206 
L 500.436717 490.830867 
L 503.360408 404.041909 
L 506.284098 464.619049 
L 509.207788 541.870382 
L 512.131478 521.715687 
L 515.055168 511.943767 
L 517.978858 445.316885 
L 520.902548 477.597928 
L 523.826238 474.066706 
L 526.749928 433.123829 
L 529.673618 478.597724 
L 532.597309 499.37069 
L 535.520999 428.7668 
L 538.444689 465.249877 
L 541.368379 495.374094 
L 544.292069 495.025764 
L 547.215759 395.650541 
L 550.139449 472.094223 
L 553.063139 431.250969 
L 555.986829 412.300003 
L 558.910519 377.068159 
L 561.83421 352.87414 
L 564.7579 434.764387 
L 567.68159 386.435326 
L 570.60528 481.470555 
L 573.52897 349.063882 
L 576.45266 379.624666 
L 579.37635 405.692192 
L 582.30004 353.515654 
L 585.22373 421.369842 
L 588.147421 400.846878 
L 591.071111 460.590062 
L 593.994801 535.590087 
L 596.918491 459.826485 
L 599.842181 508.259857 
L 602.765871 456.262521 
L 608.613251 515.001152 
L 611.536941 540.460377 
L 614.460631 570.201948 
L 617.384322 530.718539 
L 620.308012 534.231153 
L 623.231702 474.908882 
L 626.155392 526.805056 
L 629.079082 475.585359 
L 632.002772 450.36886 
L 634.926462 454.262719 
L 637.850152 495.836878 
L 640.773842 454.982081 
L 643.697532 396.497335 
L 646.621223 453.430512 
L 649.544913 479.0228 
L 652.468603 508.033991 
L 655.392293 473.617074 
L 658.315983 375.519842 
L 661.239673 474.112879 
L 664.163363 423.529537 
L 667.087053 510.207329 
L 670.010743 507.098243 
L 672.934433 481.897695 
L 675.858124 514.314986 
L 678.781814 494.375662 
L 681.705504 523.681279 
L 684.629194 564.344736 
L 687.552884 485.686825 
L 690.476574 568.407793 
L 693.400264 526.151421 
L 696.323954 536.975222 
L 699.247644 507.147145 
L 702.171335 481.694742 
L 705.095025 486.742484 
L 708.018715 485.161147 
L 710.942405 488.023903 
L 713.866095 486.608896 
L 716.789785 488.069937 
L 719.713475 485.949384 
L 722.637165 482.405743 
L 725.560855 486.789252 
L 728.484545 482.504352 
L 728.484545 482.504352 
" style="fill:none;stroke:#dd8452;stroke-dasharray:6,2.25;stroke-dashoffset:0;stroke-width:1.5;"/>
   </g>
   <g id="line2d_3">
    <path clip-path="url(#pe4a9d5cc63)" d="M 134.975455 451.426128 
L 137.899145 456.334405 
L 140.822835 456.02004 
L 143.746525 454.241801 
L 146.670215 463.557548 
L 149.593905 460.991177 
L 152.517595 460.371507 
L 155.441285 478.842794 
L 158.364975 478.64068 
L 161.288665 465.397632 
L 164.212356 465.506385 
L 167.136046 459.245189 
L 170.059736 461.276788 
L 172.983426 477.269817 
L 175.907116 494.727035 
L 178.830806 526.204765 
L 181.754496 580.264901 
L 184.678186 449.495866 
L 187.601876 431.61616 
L 190.525567 433.656363 
L 196.372947 462.510879 
L 199.296637 473.807609 
L 202.220327 481.828435 
L 205.144017 442.351952 
L 208.067707 405.001723 
L 210.991397 454.466722 
L 213.915087 483.532482 
L 216.838777 472.553824 
L 219.762468 442.119055 
L 222.686158 482.407527 
L 225.609848 458.594283 
L 228.533538 508.525354 
L 231.457228 526.811142 
L 234.380918 416.734128 
L 237.304608 488.8835 
L 240.228298 541.384231 
L 243.151988 521.756404 
L 246.075678 432.493526 
L 248.999369 462.286133 
L 251.923059 436.739319 
L 254.846749 496.555855 
L 257.770439 536.131751 
L 260.694129 453.379371 
L 263.617819 527.732338 
L 266.541509 440.29926 
L 269.465199 468.480028 
L 272.388889 493.294153 
L 275.312579 475.57399 
L 278.23627 485.391384 
L 281.15996 454.035175 
L 284.08365 449.652891 
L 287.00734 340.459294 
L 289.93103 411.181031 
L 292.85472 376.994211 
L 295.77841 387.426587 
L 298.7021 461.786795 
L 301.62579 501.993449 
L 304.549481 493.790798 
L 307.473171 475.833331 
L 310.396861 501.184993 
L 316.244241 558.355998 
L 319.167931 553.595196 
L 322.091621 477.353419 
L 325.015311 383.906208 
L 327.939001 450.964777 
L 330.862691 466.178314 
L 333.786382 422.329166 
L 336.710072 490.057076 
L 339.633762 569.144155 
L 342.557452 570.54734 
L 345.481142 459.590266 
L 348.404832 483.118774 
L 351.328522 457.557548 
L 354.252212 440.105366 
L 357.175902 520.834368 
L 360.099592 390.970543 
L 363.023283 415.71156 
L 365.946973 399.791464 
L 368.870663 440.312762 
L 371.794353 336.038777 
L 374.718043 428.543908 
L 377.641733 447.708147 
L 380.565423 438.9051 
L 383.489113 399.556084 
L 386.412803 453.628009 
L 389.336494 495.585058 
L 392.260184 495.660964 
L 395.183874 494.625663 
L 398.107564 509.436931 
L 401.031254 418.848559 
L 403.954944 457.226358 
L 406.878634 488.675544 
L 409.802324 476.529747 
L 412.726014 443.530285 
L 415.649704 542.931148 
L 418.573395 509.274939 
L 421.497085 518.067666 
L 424.420775 557.620895 
L 427.344465 476.656829 
L 430.268155 485.354201 
L 433.191845 424.13434 
L 436.115535 365.548117 
L 439.039225 447.617689 
L 441.962915 437.526507 
L 444.886605 457.408498 
L 447.810296 414.42199 
L 450.733986 373.806421 
L 453.657676 357.422369 
L 456.581366 428.595014 
L 459.505056 554.866891 
L 462.428746 449.900478 
L 465.352436 497.75007 
L 468.276126 487.679211 
L 471.199816 436.017648 
L 474.123506 436.137979 
L 477.047197 450.824508 
L 479.970887 363.588769 
L 482.894577 446.96185 
L 485.818267 479.728905 
L 488.741957 501.761217 
L 491.665647 447.863213 
L 494.589337 467.725686 
L 497.513027 529.683938 
L 500.436717 447.651375 
L 503.360408 443.299453 
L 506.284098 417.568994 
L 509.207788 517.24249 
L 512.131478 454.694092 
L 515.055168 398.977411 
L 517.978858 378.724668 
L 520.902548 410.942083 
L 523.826238 428.702822 
L 526.749928 464.045378 
L 529.673618 453.142452 
L 532.597309 433.989337 
L 535.520999 444.180457 
L 538.444689 485.736636 
L 541.368379 475.006301 
L 544.292069 457.219817 
L 547.215759 390.178457 
L 550.139449 482.42841 
L 553.063139 410.069299 
L 555.986829 365.11489 
L 558.910519 453.710666 
L 561.83421 423.011169 
L 564.7579 440.745009 
L 567.68159 455.048438 
L 570.60528 449.841502 
L 573.52897 381.44712 
L 576.45266 436.246417 
L 579.37635 425.584117 
L 582.30004 423.956327 
L 585.22373 507.828694 
L 588.147421 455.820725 
L 591.071111 306.264289 
L 593.994801 319.185224 
L 596.918491 345.850155 
L 599.842181 399.669839 
L 602.765871 386.99448 
L 605.689561 500.659735 
L 608.613251 461.248909 
L 611.536941 501.834745 
L 614.460631 528.311256 
L 617.384322 473.551136 
L 620.308012 511.12877 
L 623.231702 473.853153 
L 626.155392 509.413494 
L 629.079082 471.151864 
L 632.002772 463.387301 
L 634.926462 439.6118 
L 637.850152 484.044658 
L 640.773842 462.390338 
L 643.697532 433.547961 
L 646.621223 482.728328 
L 649.544913 505.411652 
L 652.468603 468.85865 
L 655.392293 536.118389 
L 658.315983 448.098663 
L 661.239673 413.316065 
L 664.163363 384.375883 
L 667.087053 440.492489 
L 670.010743 366.046895 
L 672.934433 424.440659 
L 675.858124 555.952738 
L 678.781814 509.800197 
L 681.705504 467.191962 
L 684.629194 511.532648 
L 687.552884 551.876423 
L 690.476574 553.897178 
L 693.400264 512.973821 
L 696.323954 539.891463 
L 699.247644 498.788204 
L 702.171335 482.704402 
L 705.095025 486.474643 
L 708.018715 487.243816 
L 710.942405 496.693606 
L 713.866095 493.723951 
L 716.789785 494.399553 
L 719.713475 490.72068 
L 722.637165 492.394574 
L 725.560855 494.320639 
L 728.484545 491.248737 
L 728.484545 491.248737 
" style="fill:none;stroke:#55a868;stroke-dasharray:1.5,1.5;stroke-dashoffset:0;stroke-width:1.5;"/>
   </g>
   <g id="line2d_4">
    <path clip-path="url(#pe4a9d5cc63)" d="M 134.975455 449.196263 
L 137.899145 454.477531 
L 140.822835 453.390705 
L 143.746525 453.236373 
L 146.670215 457.593542 
L 149.593905 456.881316 
L 152.517595 454.086875 
L 155.441285 455.290114 
L 158.364975 453.262433 
L 161.288665 454.317008 
L 164.212356 453.415401 
L 167.136046 454.077536 
L 170.059736 473.151281 
L 172.983426 480.833641 
L 175.907116 497.325309 
L 181.754496 591.213476 
L 184.678186 503.325449 
L 187.601876 436.230886 
L 190.525567 528.918332 
L 193.449257 522.700722 
L 196.372947 491.38229 
L 199.296637 496.597342 
L 202.220327 454.06092 
L 205.144017 458.768203 
L 208.067707 544.255173 
L 210.991397 448.18153 
L 213.915087 448.781856 
L 216.838777 479.024305 
L 219.762468 467.828387 
L 222.686158 515.987026 
L 225.609848 512.89683 
L 228.533538 546.043417 
L 231.457228 544.786168 
L 234.380918 453.805147 
L 237.304608 507.882039 
L 240.228298 557.032813 
L 243.151988 517.089628 
L 246.075678 452.507567 
L 248.999369 455.871586 
L 251.923059 477.889591 
L 254.846749 486.302891 
L 257.770439 508.735479 
L 260.694129 447.881158 
L 263.617819 532.012551 
L 266.541509 440.457789 
L 269.465199 433.360433 
L 272.388889 471.02709 
L 275.312579 500.213741 
L 278.23627 501.176423 
L 281.15996 492.361343 
L 284.08365 450.354518 
L 287.00734 464.613522 
L 289.93103 510.429276 
L 295.77841 398.989969 
L 298.7021 452.751167 
L 301.62579 483.365697 
L 304.549481 492.990212 
L 310.396861 460.768704 
L 313.320551 469.619533 
L 316.244241 519.082364 
L 319.167931 498.537328 
L 322.091621 443.060225 
L 325.015311 350.932982 
L 327.939001 422.50571 
L 330.862691 443.195283 
L 333.786382 399.626289 
L 336.710072 475.821053 
L 339.633762 541.115341 
L 342.557452 506.061089 
L 345.481142 395.835935 
L 348.404832 368.614596 
L 351.328522 437.322959 
L 354.252212 452.836763 
L 357.175902 486.183645 
L 360.099592 400.256697 
L 363.023283 525.698886 
L 365.946973 399.634544 
L 368.870663 385.693437 
L 371.794353 410.056881 
L 374.718043 450.240693 
L 377.641733 440.361769 
L 380.565423 494.315182 
L 383.489113 423.013198 
L 386.412803 452.453978 
L 389.336494 487.242977 
L 392.260184 487.689495 
L 395.183874 511.626464 
L 398.107564 471.701468 
L 401.031254 435.46493 
L 403.954944 442.169112 
L 406.878634 457.331787 
L 409.802324 475.759349 
L 412.726014 475.008575 
L 415.649704 519.211545 
L 418.573395 457.949463 
L 421.497085 505.966363 
L 424.420775 566.178523 
L 427.344465 493.358411 
L 430.268155 483.978406 
L 433.191845 484.557428 
L 436.115535 443.424016 
L 441.962915 517.528276 
L 444.886605 472.093208 
L 447.810296 391.542779 
L 450.733986 402.852242 
L 453.657676 415.500631 
L 456.581366 410.474786 
L 459.505056 522.53761 
L 462.428746 450.056314 
L 465.352436 494.008933 
L 468.276126 471.969484 
L 471.199816 479.387186 
L 474.123506 498.642757 
L 477.047197 473.349197 
L 479.970887 355.029288 
L 482.894577 476.156126 
L 485.818267 501.372276 
L 488.741957 498.103472 
L 491.665647 474.221597 
L 494.589337 492.761968 
L 497.513027 574.218552 
L 503.360408 401.870076 
L 506.284098 460.690699 
L 509.207788 542.408828 
L 512.131478 518.150604 
L 515.055168 516.182948 
L 517.978858 440.773868 
L 520.902548 476.330221 
L 523.826238 480.50497 
L 526.749928 434.711253 
L 529.673618 473.106542 
L 532.597309 501.333623 
L 535.520999 436.512089 
L 538.444689 470.752673 
L 541.368379 496.337896 
L 544.292069 497.85466 
L 547.215759 387.784537 
L 550.139449 475.646714 
L 553.063139 394.348868 
L 555.986829 413.547737 
L 558.910519 396.134069 
L 561.83421 372.552881 
L 564.7579 379.459176 
L 567.68159 275.985146 
L 570.60528 433.770573 
L 573.52897 401.112795 
L 576.45266 418.914356 
L 579.37635 416.699463 
L 582.30004 384.323728 
L 585.22373 472.330757 
L 588.147421 400.880739 
L 591.071111 460.750585 
L 593.994801 548.448636 
L 596.918491 472.248414 
L 599.842181 506.040556 
L 602.765871 475.485106 
L 608.613251 514.584926 
L 611.536941 536.248794 
L 614.460631 578.070191 
L 617.384322 529.486196 
L 620.308012 534.68918 
L 623.231702 479.839861 
L 626.155392 525.450668 
L 629.079082 476.057308 
L 632.002772 449.132144 
L 634.926462 457.456806 
L 637.850152 497.679026 
L 640.773842 457.796111 
L 643.697532 397.274414 
L 646.621223 457.164094 
L 649.544913 478.571035 
L 652.468603 509.11606 
L 655.392293 474.377362 
L 658.315983 375.898815 
L 661.239673 475.358549 
L 664.163363 424.296926 
L 667.087053 509.450503 
L 670.010743 507.969733 
L 672.934433 482.24655 
L 675.858124 514.867983 
L 678.781814 495.394312 
L 681.705504 521.70201 
L 684.629194 563.80531 
L 687.552884 486.298414 
L 690.476574 569.72818 
L 693.400264 527.57171 
L 696.323954 537.680767 
L 702.171335 482.471086 
L 705.095025 487.093822 
L 708.018715 485.665417 
L 710.942405 488.950556 
L 713.866095 487.65588 
L 716.789785 488.268973 
L 719.713475 486.516584 
L 722.637165 483.196779 
L 725.560855 487.398497 
L 728.484545 483.894979 
L 728.484545 483.894979 
" style="fill:none;stroke:#c44e52;stroke-dasharray:4.5,1.875,2.25,1.875;stroke-dashoffset:0;stroke-width:1.5;"/>
   </g>
   <g id="line2d_5">
    <path clip-path="url(#pe4a9d5cc63)" d="M 134.975455 451.212575 
L 137.899145 456.509864 
L 140.822835 455.971943 
L 143.746525 456.148801 
L 146.670215 459.987288 
L 149.593905 460.409076 
L 152.517595 458.377582 
L 155.441285 459.807666 
L 158.364975 457.98871 
L 161.288665 459.961228 
L 164.212356 457.723842 
L 167.136046 457.898847 
L 170.059736 474.871034 
L 172.983426 482.369084 
L 175.907116 495.957454 
L 178.830806 541.733576 
L 181.690544 596.44 
M 181.793082 596.44 
L 184.678186 504.964783 
L 187.601876 454.318057 
L 190.525567 531.66667 
L 193.449257 528.960378 
L 196.372947 500.797485 
L 199.296637 509.055825 
L 202.220327 454.156975 
L 205.144017 458.573609 
L 208.067707 545.52281 
L 210.991397 455.217391 
L 213.915087 439.744129 
L 216.838777 482.866464 
L 219.762468 466.430589 
L 222.686158 516.483496 
L 225.609848 522.05912 
L 228.533538 550.723555 
L 231.457228 548.615595 
L 234.380918 458.447017 
L 240.228298 557.976536 
L 243.151988 517.855233 
L 246.075678 449.425871 
L 248.999369 447.499667 
L 251.923059 483.269293 
L 254.846749 487.139891 
L 257.770439 513.490614 
L 260.694129 445.80356 
L 263.617819 533.346196 
L 266.541509 440.675119 
L 269.465199 433.539321 
L 272.388889 469.671164 
L 275.312579 499.76187 
L 278.23627 504.442288 
L 281.15996 501.48554 
L 284.08365 459.328651 
L 287.00734 466.186674 
L 289.93103 511.994138 
L 295.77841 395.857063 
L 298.7021 448.381475 
L 301.62579 481.808881 
L 304.549481 490.85112 
L 307.473171 474.446343 
L 310.396861 472.843808 
L 313.320551 478.418487 
L 316.244241 520.092864 
L 319.167931 499.077313 
L 322.091621 452.086269 
L 325.015311 359.628255 
L 327.939001 436.359961 
L 330.862691 428.346027 
L 333.786382 437.680348 
L 336.710072 464.902806 
L 339.633762 525.190837 
L 342.557452 497.588847 
L 345.481142 453.699892 
L 348.404832 439.593505 
L 351.328522 432.177482 
L 354.252212 538.203542 
L 357.175902 557.541911 
L 360.099592 529.085956 
L 362.65291 596.44 
M 363.247767 596.44 
L 365.946973 478.964419 
L 368.870663 461.532981 
L 371.794353 423.900254 
L 374.718043 470.860341 
L 377.641733 515.696972 
L 380.565423 544.511786 
L 383.489113 478.467179 
L 386.412803 457.710725 
L 389.336494 498.22097 
L 392.260184 502.307149 
L 395.183874 529.676487 
L 398.107564 453.601179 
L 401.031254 436.244038 
L 403.954944 442.387771 
L 406.878634 475.37457 
L 409.802324 495.749358 
L 412.726014 471.785315 
L 415.649704 547.526705 
L 418.573395 471.495856 
L 424.420775 584.931468 
L 427.344465 503.896042 
L 430.268155 482.389758 
L 433.191845 484.490687 
L 436.115535 444.277246 
L 441.962915 512.788532 
L 444.886605 471.729802 
L 447.810296 386.815068 
L 450.733986 394.487948 
L 453.657676 393.541602 
L 456.581366 394.071338 
L 459.505056 492.82927 
L 462.428746 435.524956 
L 465.352436 480.784284 
L 468.276126 471.360204 
L 471.199816 479.343391 
L 474.123506 500.469619 
L 477.047197 452.517221 
L 479.970887 350.232019 
L 482.894577 478.037031 
L 485.818267 497.806178 
L 488.741957 410.591549 
L 491.665647 498.771484 
L 494.589337 431.548299 
L 497.513027 486.12264 
L 500.436717 455.259822 
L 503.360408 447.371955 
L 506.284098 522.906614 
L 509.207788 436.439471 
L 512.131478 421.950124 
L 515.055168 364.579295 
L 517.978858 405.301221 
L 520.902548 409.65811 
L 523.826238 401.597617 
L 526.749928 443.059281 
L 529.673618 405.507428 
L 532.597309 396.065018 
L 535.520999 459.35723 
L 538.444689 423.622828 
L 541.368379 383.838662 
L 544.292069 359.449613 
L 547.215759 337.890631 
L 550.139449 355.266994 
L 553.063139 339.855051 
L 555.986829 342.9655 
L 558.910519 360.989551 
L 561.83421 362.438892 
L 564.7579 373.858016 
L 567.68159 360.340709 
L 570.60528 398.390238 
L 573.52897 395.753242 
L 576.45266 429.897072 
L 579.37635 418.536118 
L 582.30004 356.562213 
L 585.22373 446.180469 
L 588.147421 381.698555 
L 591.071111 426.243174 
L 593.994801 511.572525 
L 596.918491 459.388921 
L 599.842181 478.872002 
L 602.765871 462.257345 
L 605.689561 482.42869 
L 608.613251 495.937725 
L 611.536941 523.107153 
L 614.460631 565.622202 
L 617.384322 515.302958 
L 620.308012 537.613781 
L 623.231702 477.864161 
L 626.155392 515.497972 
L 629.079082 471.978159 
L 632.002772 444.956312 
L 634.926462 450.14079 
L 637.850152 487.029914 
L 640.773842 440.624993 
L 643.697532 384.560403 
L 646.621223 440.756028 
L 649.544913 461.400617 
L 652.468603 498.505566 
L 655.392293 463.113828 
L 658.315983 373.224285 
L 661.239673 457.254167 
L 664.163363 415.081152 
L 667.087053 498.91637 
L 670.010743 499.818957 
L 672.934433 480.612673 
L 675.858124 507.472634 
L 678.781814 478.446366 
L 684.629194 551.266024 
L 687.552884 476.316789 
L 690.476574 552.751586 
L 693.400264 514.766052 
L 696.323954 529.463494 
L 699.247644 504.573463 
L 702.171335 475.875097 
L 705.095025 484.551342 
L 708.018715 483.624059 
L 710.942405 487.413784 
L 713.866095 486.360538 
L 716.789785 486.65262 
L 719.713475 484.683076 
L 722.637165 481.189876 
L 725.560855 486.625231 
L 728.484545 482.700064 
L 728.484545 482.700064 
" style="fill:none;stroke:#8172b3;stroke-dasharray:7.5,1.5,1.5,1.5;stroke-dashoffset:0;stroke-width:1.5;"/>
   </g>
   <g id="line2d_6"/>
   <g id="line2d_7"/>
   <g id="line2d_8"/>
   <g id="line2d_9"/>
   <g id="line2d_10"/>
   <g id="patch_3">
    <path d="M 105.3 529.9416 
L 105.3 71.4528 
" style="fill:none;stroke:#262626;stroke-linecap:square;stroke-linejoin:miter;stroke-width:1.25;"/>
   </g>
   <g id="patch_4">
    <path d="M 758.16 529.9416 
L 758.16 71.4528 
" style="fill:none;stroke:#262626;stroke-linecap:square;stroke-linejoin:miter;stroke-width:1.25;"/>
   </g>
   <g id="patch_5">
    <path d="M 105.3 529.9416 
L 758.16 529.9416 
" style="fill:none;stroke:#262626;stroke-linecap:square;stroke-linejoin:miter;stroke-width:1.25;"/>
   </g>
   <g id="patch_6">
    <path d="M 105.3 71.4528 
L 758.16 71.4528 
" style="fill:none;stroke:#262626;stroke-linecap:square;stroke-linejoin:miter;stroke-width:1.25;"/>
   </g>
   <g id="text_16">
    <!-- Activations for &gt;`&lt; -->
    <g style="fill:#262626;" transform="translate(383.376563 65.4528)scale(0.12 -0.12)">
     <defs>
      <path d="M -9 0 
L 1750 4581 
L 2403 4581 
L 4278 0 
L 3588 0 
L 3053 1388 
L 1138 1388 
L 634 0 
L -9 0 
z
M 1313 1881 
L 2866 1881 
L 2388 3150 
Q 2169 3728 2063 4100 
Q 1975 3659 1816 3225 
L 1313 1881 
z
" id="ArialMT-41" transform="scale(0.015625)"/>
      <path d="M 2588 1216 
L 3141 1144 
Q 3050 572 2676 248 
Q 2303 -75 1759 -75 
Q 1078 -75 664 370 
Q 250 816 250 1647 
Q 250 2184 428 2587 
Q 606 2991 970 3192 
Q 1334 3394 1763 3394 
Q 2303 3394 2647 3120 
Q 2991 2847 3088 2344 
L 2541 2259 
Q 2463 2594 2264 2762 
Q 2066 2931 1784 2931 
Q 1359 2931 1093 2626 
Q 828 2322 828 1663 
Q 828 994 1084 691 
Q 1341 388 1753 388 
Q 2084 388 2306 591 
Q 2528 794 2588 1216 
z
" id="ArialMT-63" transform="scale(0.015625)"/>
      <path d="M 1650 503 
L 1731 6 
Q 1494 -44 1306 -44 
Q 1000 -44 831 53 
Q 663 150 594 308 
Q 525 466 525 972 
L 525 2881 
L 113 2881 
L 113 3319 
L 525 3319 
L 525 4141 
L 1084 4478 
L 1084 3319 
L 1650 3319 
L 1650 2881 
L 1084 2881 
L 1084 941 
Q 1084 700 1114 631 
Q 1144 563 1211 522 
Q 1278 481 1403 481 
Q 1497 481 1650 503 
z
" id="ArialMT-74" transform="scale(0.015625)"/>
      <path d="M 425 3934 
L 425 4581 
L 988 4581 
L 988 3934 
L 425 3934 
z
M 425 0 
L 425 3319 
L 988 3319 
L 988 0 
L 425 0 
z
" id="ArialMT-69" transform="scale(0.015625)"/>
      <path d="M 1344 0 
L 81 3319 
L 675 3319 
L 1388 1331 
Q 1503 1009 1600 663 
Q 1675 925 1809 1294 
L 2547 3319 
L 3125 3319 
L 1869 0 
L 1344 0 
z
" id="ArialMT-76" transform="scale(0.015625)"/>
      <path d="M 2588 409 
Q 2275 144 1986 34 
Q 1697 -75 1366 -75 
Q 819 -75 525 192 
Q 231 459 231 875 
Q 231 1119 342 1320 
Q 453 1522 633 1644 
Q 813 1766 1038 1828 
Q 1203 1872 1538 1913 
Q 2219 1994 2541 2106 
Q 2544 2222 2544 2253 
Q 2544 2597 2384 2738 
Q 2169 2928 1744 2928 
Q 1347 2928 1158 2789 
Q 969 2650 878 2297 
L 328 2372 
Q 403 2725 575 2942 
Q 747 3159 1072 3276 
Q 1397 3394 1825 3394 
Q 2250 3394 2515 3294 
Q 2781 3194 2906 3042 
Q 3031 2891 3081 2659 
Q 3109 2516 3109 2141 
L 3109 1391 
Q 3109 606 3145 398 
Q 3181 191 3288 0 
L 2700 0 
Q 2613 175 2588 409 
z
M 2541 1666 
Q 2234 1541 1622 1453 
Q 1275 1403 1131 1340 
Q 988 1278 909 1158 
Q 831 1038 831 891 
Q 831 666 1001 516 
Q 1172 366 1500 366 
Q 1825 366 2078 508 
Q 2331 650 2450 897 
Q 2541 1088 2541 1459 
L 2541 1666 
z
" id="ArialMT-61" transform="scale(0.015625)"/>
      <path d="M 213 1659 
Q 213 2581 725 3025 
Q 1153 3394 1769 3394 
Q 2453 3394 2887 2945 
Q 3322 2497 3322 1706 
Q 3322 1066 3130 698 
Q 2938 331 2570 128 
Q 2203 -75 1769 -75 
Q 1072 -75 642 372 
Q 213 819 213 1659 
z
M 791 1659 
Q 791 1022 1069 705 
Q 1347 388 1769 388 
Q 2188 388 2466 706 
Q 2744 1025 2744 1678 
Q 2744 2294 2464 2611 
Q 2184 2928 1769 2928 
Q 1347 2928 1069 2612 
Q 791 2297 791 1659 
z
" id="ArialMT-6f" transform="scale(0.015625)"/>
      <path d="M 422 0 
L 422 3319 
L 928 3319 
L 928 2847 
Q 1294 3394 1984 3394 
Q 2284 3394 2536 3286 
Q 2788 3178 2913 3003 
Q 3038 2828 3088 2588 
Q 3119 2431 3119 2041 
L 3119 0 
L 2556 0 
L 2556 2019 
Q 2556 2363 2490 2533 
Q 2425 2703 2258 2804 
Q 2091 2906 1866 2906 
Q 1506 2906 1245 2678 
Q 984 2450 984 1813 
L 984 0 
L 422 0 
z
" id="ArialMT-6e" transform="scale(0.015625)"/>
      <path d="M 197 991 
L 753 1078 
Q 800 744 1014 566 
Q 1228 388 1613 388 
Q 2000 388 2187 545 
Q 2375 703 2375 916 
Q 2375 1106 2209 1216 
Q 2094 1291 1634 1406 
Q 1016 1563 777 1677 
Q 538 1791 414 1992 
Q 291 2194 291 2438 
Q 291 2659 392 2848 
Q 494 3038 669 3163 
Q 800 3259 1026 3326 
Q 1253 3394 1513 3394 
Q 1903 3394 2198 3281 
Q 2494 3169 2634 2976 
Q 2775 2784 2828 2463 
L 2278 2388 
Q 2241 2644 2061 2787 
Q 1881 2931 1553 2931 
Q 1166 2931 1000 2803 
Q 834 2675 834 2503 
Q 834 2394 903 2306 
Q 972 2216 1119 2156 
Q 1203 2125 1616 2013 
Q 2213 1853 2448 1751 
Q 2684 1650 2818 1456 
Q 2953 1263 2953 975 
Q 2953 694 2789 445 
Q 2625 197 2315 61 
Q 2006 -75 1616 -75 
Q 969 -75 630 194 
Q 291 463 197 991 
z
" id="ArialMT-73" transform="scale(0.015625)"/>
      <path id="ArialMT-20" transform="scale(0.015625)"/>
      <path d="M 556 0 
L 556 2881 
L 59 2881 
L 59 3319 
L 556 3319 
L 556 3672 
Q 556 4006 616 4169 
Q 697 4388 901 4523 
Q 1106 4659 1475 4659 
Q 1713 4659 2000 4603 
L 1916 4113 
Q 1741 4144 1584 4144 
Q 1328 4144 1222 4034 
Q 1116 3925 1116 3625 
L 1116 3319 
L 1763 3319 
L 1763 2881 
L 1116 2881 
L 1116 0 
L 556 0 
z
" id="ArialMT-66" transform="scale(0.015625)"/>
      <path d="M 416 0 
L 416 3319 
L 922 3319 
L 922 2816 
Q 1116 3169 1280 3281 
Q 1444 3394 1641 3394 
Q 1925 3394 2219 3213 
L 2025 2691 
Q 1819 2813 1613 2813 
Q 1428 2813 1281 2702 
Q 1134 2591 1072 2394 
Q 978 2094 978 1738 
L 978 0 
L 416 0 
z
" id="ArialMT-72" transform="scale(0.015625)"/>
      <path d="M 3384 2003 
L 350 706 
L 350 1266 
L 2753 2263 
L 350 3250 
L 350 3809 
L 3384 2528 
L 3384 2003 
z
" id="ArialMT-3e" transform="scale(0.015625)"/>
      <path d="M 1453 3731 
L 1000 3731 
L 278 4606 
L 1031 4606 
L 1453 3731 
z
" id="ArialMT-60" transform="scale(0.015625)"/>
      <path d="M 350 2003 
L 350 2528 
L 3384 3809 
L 3384 3250 
L 978 2263 
L 3384 1266 
L 3384 706 
L 350 2003 
z
" id="ArialMT-3c" transform="scale(0.015625)"/>
     </defs>
     <use xlink:href="#ArialMT-41"/>
     <use x="66.699219" xlink:href="#ArialMT-63"/>
     <use x="116.699219" xlink:href="#ArialMT-74"/>
     <use x="144.482422" xlink:href="#ArialMT-69"/>
     <use x="166.699219" xlink:href="#ArialMT-76"/>
     <use x="216.699219" xlink:href="#ArialMT-61"/>
     <use x="272.314453" xlink:href="#ArialMT-74"/>
     <use x="300.097656" xlink:href="#ArialMT-69"/>
     <use x="322.314453" xlink:href="#ArialMT-6f"/>
     <use x="377.929688" xlink:href="#ArialMT-6e"/>
     <use x="433.544922" xlink:href="#ArialMT-73"/>
     <use x="483.544922" xlink:href="#ArialMT-20"/>
     <use x="511.328125" xlink:href="#ArialMT-66"/>
     <use x="539.111328" xlink:href="#ArialMT-6f"/>
     <use x="594.726562" xlink:href="#ArialMT-72"/>
     <use x="628.027344" xlink:href="#ArialMT-20"/>
     <use x="655.810547" xlink:href="#ArialMT-3e"/>
     <use x="714.208984" xlink:href="#ArialMT-60"/>
     <use x="747.509766" xlink:href="#ArialMT-3c"/>
    </g>
   </g>
   <g id="legend_1">
    <g id="patch_7">
     <path d="M 640.044062 158.514363 
L 750.46 158.514363 
Q 752.66 158.514363 752.66 156.314363 
L 752.66 79.1528 
Q 752.66 76.9528 750.46 76.9528 
L 640.044062 76.9528 
Q 637.844062 76.9528 637.844062 79.1528 
L 637.844062 156.314363 
Q 637.844062 158.514363 640.044062 158.514363 
z
" style="fill:#ffffff;opacity:0.8;stroke:#cccccc;stroke-linejoin:miter;"/>
    </g>
    <g id="line2d_11">
     <path d="M 642.244062 85.376394 
L 664.244062 85.376394 
" style="fill:none;stroke:#4c72b0;stroke-linecap:round;stroke-width:1.5;"/>
    </g>
    <g id="line2d_12"/>
    <g id="text_17">
     <!-- regular -->
     <g style="fill:#262626;" transform="translate(673.044062 89.226394)scale(0.11 -0.11)">
      <defs>
       <path d="M 2694 1069 
L 3275 997 
Q 3138 488 2766 206 
Q 2394 -75 1816 -75 
Q 1088 -75 661 373 
Q 234 822 234 1631 
Q 234 2469 665 2931 
Q 1097 3394 1784 3394 
Q 2450 3394 2872 2941 
Q 3294 2488 3294 1666 
Q 3294 1616 3291 1516 
L 816 1516 
Q 847 969 1125 678 
Q 1403 388 1819 388 
Q 2128 388 2347 550 
Q 2566 713 2694 1069 
z
M 847 1978 
L 2700 1978 
Q 2663 2397 2488 2606 
Q 2219 2931 1791 2931 
Q 1403 2931 1139 2672 
Q 875 2413 847 1978 
z
" id="ArialMT-65" transform="scale(0.015625)"/>
       <path d="M 319 -275 
L 866 -356 
Q 900 -609 1056 -725 
Q 1266 -881 1628 -881 
Q 2019 -881 2231 -725 
Q 2444 -569 2519 -288 
Q 2563 -116 2559 434 
Q 2191 0 1641 0 
Q 956 0 581 494 
Q 206 988 206 1678 
Q 206 2153 378 2554 
Q 550 2956 876 3175 
Q 1203 3394 1644 3394 
Q 2231 3394 2613 2919 
L 2613 3319 
L 3131 3319 
L 3131 450 
Q 3131 -325 2973 -648 
Q 2816 -972 2473 -1159 
Q 2131 -1347 1631 -1347 
Q 1038 -1347 672 -1080 
Q 306 -813 319 -275 
z
M 784 1719 
Q 784 1066 1043 766 
Q 1303 466 1694 466 
Q 2081 466 2343 764 
Q 2606 1063 2606 1700 
Q 2606 2309 2336 2618 
Q 2066 2928 1684 2928 
Q 1309 2928 1046 2623 
Q 784 2319 784 1719 
z
" id="ArialMT-67" transform="scale(0.015625)"/>
       <path d="M 2597 0 
L 2597 488 
Q 2209 -75 1544 -75 
Q 1250 -75 995 37 
Q 741 150 617 320 
Q 494 491 444 738 
Q 409 903 409 1263 
L 409 3319 
L 972 3319 
L 972 1478 
Q 972 1038 1006 884 
Q 1059 663 1231 536 
Q 1403 409 1656 409 
Q 1909 409 2131 539 
Q 2353 669 2445 892 
Q 2538 1116 2538 1541 
L 2538 3319 
L 3100 3319 
L 3100 0 
L 2597 0 
z
" id="ArialMT-75" transform="scale(0.015625)"/>
       <path d="M 409 0 
L 409 4581 
L 972 4581 
L 972 0 
L 409 0 
z
" id="ArialMT-6c" transform="scale(0.015625)"/>
      </defs>
      <use xlink:href="#ArialMT-72"/>
      <use x="33.300781" xlink:href="#ArialMT-65"/>
      <use x="88.916016" xlink:href="#ArialMT-67"/>
      <use x="144.53125" xlink:href="#ArialMT-75"/>
      <use x="200.146484" xlink:href="#ArialMT-6c"/>
      <use x="222.363281" xlink:href="#ArialMT-61"/>
      <use x="277.978516" xlink:href="#ArialMT-72"/>
     </g>
    </g>
    <g id="line2d_13">
     <path d="M 642.244062 101.0978 
L 664.244062 101.0978 
" style="fill:none;stroke:#dd8452;stroke-dasharray:6,2.25;stroke-dashoffset:0;stroke-width:1.5;"/>
    </g>
    <g id="line2d_14"/>
    <g id="text_18">
     <!-- splitted_3s -->
     <g style="fill:#262626;" transform="translate(673.044062 104.9478)scale(0.11 -0.11)">
      <defs>
       <path d="M 422 -1272 
L 422 3319 
L 934 3319 
L 934 2888 
Q 1116 3141 1344 3267 
Q 1572 3394 1897 3394 
Q 2322 3394 2647 3175 
Q 2972 2956 3137 2557 
Q 3303 2159 3303 1684 
Q 3303 1175 3120 767 
Q 2938 359 2589 142 
Q 2241 -75 1856 -75 
Q 1575 -75 1351 44 
Q 1128 163 984 344 
L 984 -1272 
L 422 -1272 
z
M 931 1641 
Q 931 1000 1190 694 
Q 1450 388 1819 388 
Q 2194 388 2461 705 
Q 2728 1022 2728 1688 
Q 2728 2322 2467 2637 
Q 2206 2953 1844 2953 
Q 1484 2953 1207 2617 
Q 931 2281 931 1641 
z
" id="ArialMT-70" transform="scale(0.015625)"/>
       <path d="M 2575 0 
L 2575 419 
Q 2259 -75 1647 -75 
Q 1250 -75 917 144 
Q 584 363 401 755 
Q 219 1147 219 1656 
Q 219 2153 384 2558 
Q 550 2963 881 3178 
Q 1213 3394 1622 3394 
Q 1922 3394 2156 3267 
Q 2391 3141 2538 2938 
L 2538 4581 
L 3097 4581 
L 3097 0 
L 2575 0 
z
M 797 1656 
Q 797 1019 1065 703 
Q 1334 388 1700 388 
Q 2069 388 2326 689 
Q 2584 991 2584 1609 
Q 2584 2291 2321 2609 
Q 2059 2928 1675 2928 
Q 1300 2928 1048 2622 
Q 797 2316 797 1656 
z
" id="ArialMT-64" transform="scale(0.015625)"/>
       <path d="M -97 -1272 
L -97 -866 
L 3631 -866 
L 3631 -1272 
L -97 -1272 
z
" id="ArialMT-5f" transform="scale(0.015625)"/>
       <path d="M 269 1209 
L 831 1284 
Q 928 806 1161 595 
Q 1394 384 1728 384 
Q 2125 384 2398 659 
Q 2672 934 2672 1341 
Q 2672 1728 2419 1979 
Q 2166 2231 1775 2231 
Q 1616 2231 1378 2169 
L 1441 2663 
Q 1497 2656 1531 2656 
Q 1891 2656 2178 2843 
Q 2466 3031 2466 3422 
Q 2466 3731 2256 3934 
Q 2047 4138 1716 4138 
Q 1388 4138 1169 3931 
Q 950 3725 888 3313 
L 325 3413 
Q 428 3978 793 4289 
Q 1159 4600 1703 4600 
Q 2078 4600 2393 4439 
Q 2709 4278 2876 4000 
Q 3044 3722 3044 3409 
Q 3044 3113 2884 2869 
Q 2725 2625 2413 2481 
Q 2819 2388 3044 2092 
Q 3269 1797 3269 1353 
Q 3269 753 2831 336 
Q 2394 -81 1725 -81 
Q 1122 -81 723 278 
Q 325 638 269 1209 
z
" id="ArialMT-33" transform="scale(0.015625)"/>
      </defs>
      <use xlink:href="#ArialMT-73"/>
      <use x="50" xlink:href="#ArialMT-70"/>
      <use x="105.615234" xlink:href="#ArialMT-6c"/>
      <use x="127.832031" xlink:href="#ArialMT-69"/>
      <use x="150.048828" xlink:href="#ArialMT-74"/>
      <use x="177.832031" xlink:href="#ArialMT-74"/>
      <use x="205.615234" xlink:href="#ArialMT-65"/>
      <use x="261.230469" xlink:href="#ArialMT-64"/>
      <use x="316.845703" xlink:href="#ArialMT-5f"/>
      <use x="372.460938" xlink:href="#ArialMT-33"/>
      <use x="428.076172" xlink:href="#ArialMT-73"/>
     </g>
    </g>
    <g id="line2d_15">
     <path d="M 642.244062 116.6903 
L 664.244062 116.6903 
" style="fill:none;stroke:#55a868;stroke-dasharray:1.5,1.5;stroke-dashoffset:0;stroke-width:1.5;"/>
    </g>
    <g id="line2d_16"/>
    <g id="text_19">
     <!-- splitted_1s -->
     <g style="fill:#262626;" transform="translate(673.044062 120.5403)scale(0.11 -0.11)">
      <use xlink:href="#ArialMT-73"/>
      <use x="50" xlink:href="#ArialMT-70"/>
      <use x="105.615234" xlink:href="#ArialMT-6c"/>
      <use x="127.832031" xlink:href="#ArialMT-69"/>
      <use x="150.048828" xlink:href="#ArialMT-74"/>
      <use x="177.832031" xlink:href="#ArialMT-74"/>
      <use x="205.615234" xlink:href="#ArialMT-65"/>
      <use x="261.230469" xlink:href="#ArialMT-64"/>
      <use x="316.845703" xlink:href="#ArialMT-5f"/>
      <use x="372.460938" xlink:href="#ArialMT-31"/>
      <use x="428.076172" xlink:href="#ArialMT-73"/>
     </g>
    </g>
    <g id="line2d_17">
     <path d="M 642.244062 132.384206 
L 664.244062 132.384206 
" style="fill:none;stroke:#c44e52;stroke-dasharray:4.5,1.875,2.25,1.875;stroke-dashoffset:0;stroke-width:1.5;"/>
    </g>
    <g id="line2d_18"/>
    <g id="text_20">
     <!-- overlap_1f_3s -->
     <g style="fill:#262626;" transform="translate(673.044062 136.234206)scale(0.11 -0.11)">
      <use xlink:href="#ArialMT-6f"/>
      <use x="55.615234" xlink:href="#ArialMT-76"/>
      <use x="105.615234" xlink:href="#ArialMT-65"/>
      <use x="161.230469" xlink:href="#ArialMT-72"/>
      <use x="194.53125" xlink:href="#ArialMT-6c"/>
      <use x="216.748047" xlink:href="#ArialMT-61"/>
      <use x="272.363281" xlink:href="#ArialMT-70"/>
      <use x="327.978516" xlink:href="#ArialMT-5f"/>
      <use x="383.59375" xlink:href="#ArialMT-31"/>
      <use x="439.208984" xlink:href="#ArialMT-66"/>
      <use x="466.992188" xlink:href="#ArialMT-5f"/>
      <use x="522.607422" xlink:href="#ArialMT-33"/>
      <use x="578.222656" xlink:href="#ArialMT-73"/>
     </g>
    </g>
    <g id="line2d_19">
     <path d="M 642.244062 148.078113 
L 664.244062 148.078113 
" style="fill:none;stroke:#8172b3;stroke-dasharray:7.5,1.5,1.5,1.5;stroke-dashoffset:0;stroke-width:1.5;"/>
    </g>
    <g id="line2d_20"/>
    <g id="text_21">
     <!-- overlap_10f_3s -->
     <g style="fill:#262626;" transform="translate(673.044062 151.928112)scale(0.11 -0.11)">
      <use xlink:href="#ArialMT-6f"/>
      <use x="55.615234" xlink:href="#ArialMT-76"/>
      <use x="105.615234" xlink:href="#ArialMT-65"/>
      <use x="161.230469" xlink:href="#ArialMT-72"/>
      <use x="194.53125" xlink:href="#ArialMT-6c"/>
      <use x="216.748047" xlink:href="#ArialMT-61"/>
      <use x="272.363281" xlink:href="#ArialMT-70"/>
      <use x="327.978516" xlink:href="#ArialMT-5f"/>
      <use x="383.59375" xlink:href="#ArialMT-31"/>
      <use x="439.208984" xlink:href="#ArialMT-30"/>
      <use x="494.824219" xlink:href="#ArialMT-66"/>
      <use x="522.607422" xlink:href="#ArialMT-5f"/>
      <use x="578.222656" xlink:href="#ArialMT-33"/>
      <use x="633.837891" xlink:href="#ArialMT-73"/>
     </g>
    </g>
   </g>
  </g>
 </g>
 <defs>
  <clipPath id="pe4a9d5cc63">
   <rect height="458.4888" width="652.86" x="105.3" y="71.4528"/>
  </clipPath>
 </defs>
</svg>
