<?xml version="1.0" encoding="utf-8" standalone="no"?>
<!DOCTYPE svg PUBLIC "-//W3C//DTD SVG 1.1//EN"
  "http://www.w3.org/Graphics/SVG/1.1/DTD/svg11.dtd">
<svg height="595.44pt" version="1.1" viewBox="0 0 842.4 595.44" width="842.4pt" xmlns="http://www.w3.org/2000/svg" xmlns:xlink="http://www.w3.org/1999/xlink">
 <metadata>
  <rdf:RDF xmlns:cc="http://creativecommons.org/ns#" xmlns:dc="http://purl.org/dc/elements/1.1/" xmlns:rdf="http://www.w3.org/1999/02/22-rdf-syntax-ns#">
   <cc:Work>
    <dc:type rdf:resource="http://purl.org/dc/dcmitype/StillImage"/>
    <dc:date>2021-06-01T00:54:15.587206</dc:date>
    <dc:format>image/svg+xml</dc:format>
    <dc:creator>
     <cc:Agent>
      <dc:title>Matplotlib v3.4.1, https://matplotlib.org/</dc:title>
     </cc:Agent>
    </dc:creator>
   </cc:Work>
  </rdf:RDF>
 </metadata>
 <defs>
  <style type="text/css">*{stroke-linecap:butt;stroke-linejoin:round;}</style>
 </defs>
 <g id="figure_1">
  <g id="patch_1">
   <path d="M 0 595.44 
L 842.4 595.44 
L 842.4 0 
L 0 0 
z
" style="fill:#ffffff;"/>
  </g>
  <g id="axes_1">
   <g id="patch_2">
    <path d="M 105.3 529.9416 
L 758.16 529.9416 
L 758.16 71.4528 
L 105.3 71.4528 
z
" style="fill:#ffffff;"/>
   </g>
   <g id="matplotlib.axis_1">
    <g id="xtick_1">
     <g id="text_1">
      <!-- 0 -->
      <g style="fill:#262626;" transform="translate(131.916939 547.315194)scale(0.11 -0.11)">
       <defs>
        <path d="M 266 2259 
Q 266 3072 433 3567 
Q 600 4063 929 4331 
Q 1259 4600 1759 4600 
Q 2128 4600 2406 4451 
Q 2684 4303 2865 4023 
Q 3047 3744 3150 3342 
Q 3253 2941 3253 2259 
Q 3253 1453 3087 958 
Q 2922 463 2592 192 
Q 2263 -78 1759 -78 
Q 1097 -78 719 397 
Q 266 969 266 2259 
z
M 844 2259 
Q 844 1131 1108 757 
Q 1372 384 1759 384 
Q 2147 384 2411 759 
Q 2675 1134 2675 2259 
Q 2675 3391 2411 3762 
Q 2147 4134 1753 4134 
Q 1366 4134 1134 3806 
Q 844 3388 844 2259 
z
" id="ArialMT-30" transform="scale(0.015625)"/>
       </defs>
       <use xlink:href="#ArialMT-30"/>
      </g>
     </g>
    </g>
    <g id="xtick_2">
     <g id="text_2">
      <!-- 25 -->
      <g style="fill:#262626;" transform="translate(201.950676 547.315194)scale(0.11 -0.11)">
       <defs>
        <path d="M 3222 541 
L 3222 0 
L 194 0 
Q 188 203 259 391 
Q 375 700 629 1000 
Q 884 1300 1366 1694 
Q 2113 2306 2375 2664 
Q 2638 3022 2638 3341 
Q 2638 3675 2398 3904 
Q 2159 4134 1775 4134 
Q 1369 4134 1125 3890 
Q 881 3647 878 3216 
L 300 3275 
Q 359 3922 746 4261 
Q 1134 4600 1788 4600 
Q 2447 4600 2831 4234 
Q 3216 3869 3216 3328 
Q 3216 3053 3103 2787 
Q 2991 2522 2730 2228 
Q 2469 1934 1863 1422 
Q 1356 997 1212 845 
Q 1069 694 975 541 
L 3222 541 
z
" id="ArialMT-32" transform="scale(0.015625)"/>
        <path d="M 266 1200 
L 856 1250 
Q 922 819 1161 601 
Q 1400 384 1738 384 
Q 2144 384 2425 690 
Q 2706 997 2706 1503 
Q 2706 1984 2436 2262 
Q 2166 2541 1728 2541 
Q 1456 2541 1237 2417 
Q 1019 2294 894 2097 
L 366 2166 
L 809 4519 
L 3088 4519 
L 3088 3981 
L 1259 3981 
L 1013 2750 
Q 1425 3038 1878 3038 
Q 2478 3038 2890 2622 
Q 3303 2206 3303 1553 
Q 3303 931 2941 478 
Q 2500 -78 1738 -78 
Q 1113 -78 717 272 
Q 322 622 266 1200 
z
" id="ArialMT-35" transform="scale(0.015625)"/>
       </defs>
       <use xlink:href="#ArialMT-32"/>
       <use x="55.615234" xlink:href="#ArialMT-35"/>
      </g>
     </g>
    </g>
    <g id="xtick_3">
     <g id="text_3">
      <!-- 50 -->
      <g style="fill:#262626;" transform="translate(275.042928 547.315194)scale(0.11 -0.11)">
       <use xlink:href="#ArialMT-35"/>
       <use x="55.615234" xlink:href="#ArialMT-30"/>
      </g>
     </g>
    </g>
    <g id="xtick_4">
     <g id="text_4">
      <!-- 75 -->
      <g style="fill:#262626;" transform="translate(348.135181 547.315194)scale(0.11 -0.11)">
       <defs>
        <path d="M 303 3981 
L 303 4522 
L 3269 4522 
L 3269 4084 
Q 2831 3619 2401 2847 
Q 1972 2075 1738 1259 
Q 1569 684 1522 0 
L 944 0 
Q 953 541 1156 1306 
Q 1359 2072 1739 2783 
Q 2119 3494 2547 3981 
L 303 3981 
z
" id="ArialMT-37" transform="scale(0.015625)"/>
       </defs>
       <use xlink:href="#ArialMT-37"/>
       <use x="55.615234" xlink:href="#ArialMT-35"/>
      </g>
     </g>
    </g>
    <g id="xtick_5">
     <g id="text_5">
      <!-- 100 -->
      <g style="fill:#262626;" transform="translate(418.168918 547.315194)scale(0.11 -0.11)">
       <defs>
        <path d="M 2384 0 
L 1822 0 
L 1822 3584 
Q 1619 3391 1289 3197 
Q 959 3003 697 2906 
L 697 3450 
Q 1169 3672 1522 3987 
Q 1875 4303 2022 4600 
L 2384 4600 
L 2384 0 
z
" id="ArialMT-31" transform="scale(0.015625)"/>
       </defs>
       <use xlink:href="#ArialMT-31"/>
       <use x="55.615234" xlink:href="#ArialMT-30"/>
       <use x="111.230469" xlink:href="#ArialMT-30"/>
      </g>
     </g>
    </g>
    <g id="xtick_6">
     <g id="text_6">
      <!-- 125 -->
      <g style="fill:#262626;" transform="translate(491.261171 547.315194)scale(0.11 -0.11)">
       <use xlink:href="#ArialMT-31"/>
       <use x="55.615234" xlink:href="#ArialMT-32"/>
       <use x="111.230469" xlink:href="#ArialMT-35"/>
      </g>
     </g>
    </g>
    <g id="xtick_7">
     <g id="text_7">
      <!-- 150 -->
      <g style="fill:#262626;" transform="translate(564.353423 547.315194)scale(0.11 -0.11)">
       <use xlink:href="#ArialMT-31"/>
       <use x="55.615234" xlink:href="#ArialMT-35"/>
       <use x="111.230469" xlink:href="#ArialMT-30"/>
      </g>
     </g>
    </g>
    <g id="xtick_8">
     <g id="text_8">
      <!-- 175 -->
      <g style="fill:#262626;" transform="translate(637.445676 547.315194)scale(0.11 -0.11)">
       <use xlink:href="#ArialMT-31"/>
       <use x="55.615234" xlink:href="#ArialMT-37"/>
       <use x="111.230469" xlink:href="#ArialMT-35"/>
      </g>
     </g>
    </g>
    <g id="xtick_9">
     <g id="text_9">
      <!-- 200 -->
      <g style="fill:#262626;" transform="translate(710.537928 547.315194)scale(0.11 -0.11)">
       <use xlink:href="#ArialMT-32"/>
       <use x="55.615234" xlink:href="#ArialMT-30"/>
       <use x="111.230469" xlink:href="#ArialMT-30"/>
      </g>
     </g>
    </g>
   </g>
   <g id="matplotlib.axis_2">
    <g id="ytick_1">
     <g id="text_10">
      <!-- −25 -->
      <g style="fill:#262626;" transform="translate(77.14125 533.878397)scale(0.11 -0.11)">
       <defs>
        <path d="M 3381 1997 
L 356 1997 
L 356 2522 
L 3381 2522 
L 3381 1997 
z
" id="ArialMT-2212" transform="scale(0.015625)"/>
       </defs>
       <use xlink:href="#ArialMT-2212"/>
       <use x="58.398438" xlink:href="#ArialMT-32"/>
       <use x="114.013672" xlink:href="#ArialMT-35"/>
      </g>
     </g>
    </g>
    <g id="ytick_2">
     <g id="text_11">
      <!-- −20 -->
      <g style="fill:#262626;" transform="translate(77.14125 442.180637)scale(0.11 -0.11)">
       <use xlink:href="#ArialMT-2212"/>
       <use x="58.398438" xlink:href="#ArialMT-32"/>
       <use x="114.013672" xlink:href="#ArialMT-30"/>
      </g>
     </g>
    </g>
    <g id="ytick_3">
     <g id="text_12">
      <!-- −15 -->
      <g style="fill:#262626;" transform="translate(77.14125 350.482877)scale(0.11 -0.11)">
       <use xlink:href="#ArialMT-2212"/>
       <use x="58.398438" xlink:href="#ArialMT-31"/>
       <use x="114.013672" xlink:href="#ArialMT-35"/>
      </g>
     </g>
    </g>
    <g id="ytick_4">
     <g id="text_13">
      <!-- −10 -->
      <g style="fill:#262626;" transform="translate(77.14125 258.785117)scale(0.11 -0.11)">
       <use xlink:href="#ArialMT-2212"/>
       <use x="58.398438" xlink:href="#ArialMT-31"/>
       <use x="114.013672" xlink:href="#ArialMT-30"/>
      </g>
     </g>
    </g>
    <g id="ytick_5">
     <g id="text_14">
      <!-- −5 -->
      <g style="fill:#262626;" transform="translate(83.258281 167.087357)scale(0.11 -0.11)">
       <use xlink:href="#ArialMT-2212"/>
       <use x="58.398438" xlink:href="#ArialMT-35"/>
      </g>
     </g>
    </g>
    <g id="ytick_6">
     <g id="text_15">
      <!-- 0 -->
      <g style="fill:#262626;" transform="translate(89.682969 75.389597)scale(0.11 -0.11)">
       <use xlink:href="#ArialMT-30"/>
      </g>
     </g>
    </g>
   </g>
   <g id="line2d_1">
    <path clip-path="url(#p2e8d138bbd)" d="M 134.975455 564.717866 
L 140.822835 566.407606 
L 143.746525 566.441362 
L 146.670215 567.291199 
L 149.593905 569.364914 
L 152.517595 569.883526 
L 158.364975 575.080702 
L 161.288665 576.090888 
L 164.212356 578.852587 
L 167.136046 582.770163 
L 168.955879 596.44 
M 185.444684 596.44 
L 187.601876 544.506994 
L 189.851793 596.44 
M 201.694973 596.44 
L 202.220327 583.762299 
L 205.144017 569.375548 
L 206.046995 596.44 
M 209.837063 596.44 
L 210.991397 556.926754 
L 213.915087 582.30626 
L 215.332551 596.44 
M 221.392859 596.44 
L 225.609848 566.44528 
L 227.918809 596.44 
M 232.165081 596.44 
L 234.380918 519.334254 
L 237.876408 596.44 
M 243.410627 596.44 
L 246.075678 497.201025 
L 248.999369 485.663213 
L 251.923059 577.036255 
L 254.846749 568.819612 
L 257.563732 596.44 
M 257.85513 596.44 
L 260.694129 525.998559 
L 262.475614 596.44 
M 265.013022 596.44 
L 266.541509 546.961709 
L 269.465199 536.076938 
L 272.388889 553.896443 
L 275.312579 570.838688 
L 278.23627 574.882051 
L 281.15996 562.1339 
L 284.08365 532.994368 
L 287.00734 545.71569 
L 289.93103 588.897141 
L 292.85472 542.295808 
L 295.77841 523.655673 
L 298.7021 581.114039 
L 301.62579 584.851923 
L 304.549481 552.018581 
L 307.473171 526.528679 
L 310.396861 548.114718 
L 313.320551 515.227087 
L 316.244241 549.611858 
L 319.167931 522.757809 
L 322.091621 540.485107 
L 325.015311 506.361916 
L 327.939001 544.28718 
L 330.862691 579.166672 
L 333.786382 552.67498 
L 336.710072 513.729072 
L 339.633762 575.176687 
L 342.218898 596.44 
M 342.668016 596.44 
L 345.481142 525.587999 
L 348.404832 493.135064 
L 351.328522 477.241343 
L 354.252212 548.960287 
L 357.175902 536.461577 
L 360.099592 522.865722 
L 362.782073 596.44 
M 363.252919 596.44 
L 365.946973 518.824492 
L 368.870663 518.1314 
L 371.794353 535.21094 
L 374.845768 596.44 
M 382.1502 596.44 
L 383.489113 555.326737 
L 386.412803 534.16665 
L 389.336494 574.029836 
L 392.260184 550.744648 
L 395.183874 567.539277 
L 398.107564 514.983277 
L 401.031254 489.691221 
L 403.954944 493.310873 
L 406.878634 541.49942 
L 409.802324 497.182241 
L 412.726014 477.549166 
L 415.649704 562.991992 
L 418.573395 540.997808 
L 421.497085 582.594144 
L 422.043794 596.44 
M 432.799676 596.44 
L 433.191845 593.42746 
L 436.115535 523.896265 
L 439.039225 540.87279 
L 441.962915 593.852047 
L 444.886605 585.525182 
L 447.810296 502.8358 
L 450.733986 465.024082 
L 453.657676 533.382994 
L 456.581366 517.125132 
L 458.210412 596.44 
M 461.088543 596.44 
L 462.428746 543.090832 
L 465.352436 553.516457 
L 468.276126 535.212339 
L 471.199816 534.834766 
L 473.484456 596.44 
M 474.793438 596.44 
L 477.047197 538.468795 
L 479.970887 456.755458 
L 482.894577 576.096764 
L 485.818267 581.313005 
L 488.741957 583.728963 
L 491.665647 537.384522 
L 494.589337 537.312009 
L 496.454119 596.44 
M 498.516803 596.44 
L 500.436717 532.220262 
L 503.360408 461.697141 
L 506.284098 548.310045 
L 507.75699 596.44 
M 515.935417 596.44 
L 517.978858 528.937676 
L 520.902548 576.610549 
L 523.826238 590.007893 
L 526.749928 544.668846 
L 529.547955 596.44 
M 534.077118 596.44 
L 535.520999 547.977526 
L 538.444689 526.067539 
L 541.368379 590.911774 
L 542.562891 596.44 
M 544.6268 596.44 
L 547.215759 534.543663 
L 550.139449 572.86427 
L 553.063139 481.049012 
L 555.986829 555.891068 
L 558.910519 533.335107 
L 561.83421 535.824348 
L 564.7579 550.764307 
L 567.68159 513.741665 
L 570.60528 518.446814 
L 573.52897 509.570274 
L 576.45266 487.39423 
L 579.37635 525.301094 
L 582.30004 540.123695 
L 585.22373 534.882514 
L 588.147421 522.181725 
L 591.071111 516.504414 
L 593.994801 540.852886 
L 596.918491 472.546128 
L 599.842181 529.686666 
L 602.765871 521.727475 
L 605.689561 526.285149 
L 608.613251 517.67019 
L 611.403059 596.44 
M 614.650583 596.44 
L 617.384322 455.736318 
L 620.308012 490.451195 
L 625.415263 596.44 
M 628.397607 596.44 
L 629.079082 591.847487 
L 632.002772 569.297367 
L 634.926462 541.942266 
L 637.850152 577.032967 
L 640.773842 507.412398 
L 643.697532 449.779343 
L 646.621223 494.682296 
L 649.544913 509.939452 
L 652.468603 579.425908 
L 655.392293 541.140806 
L 658.315983 508.735933 
L 661.239673 573.437801 
L 664.163363 509.41164 
L 667.087053 563.930049 
L 670.010743 569.605086 
L 672.934433 554.073162 
L 675.858124 562.274834 
L 678.781814 528.978218 
L 681.705504 587.508228 
L 682.345724 596.44 
M 686.072581 596.44 
L 687.552884 563.768371 
L 688.477249 596.44 
M 698.979942 596.44 
L 699.247644 594.022049 
L 702.171335 586.109241 
L 705.095025 590.301235 
L 708.018715 584.833209 
L 710.942405 586.978248 
L 713.866095 585.869769 
L 716.789785 586.830492 
L 719.713475 585.585662 
L 722.637165 583.21063 
L 725.560855 586.895415 
L 728.484545 587.743014 
L 728.484545 587.743014 
" style="fill:none;stroke:#4c72b0;stroke-linecap:round;stroke-width:1.5;"/>
   </g>
   <g id="line2d_2">
    <path clip-path="url(#p2e8d138bbd)" d="M 134.975455 556.203894 
L 137.899145 559.82589 
L 140.822835 560.519227 
L 143.746525 560.721376 
L 146.670215 562.275428 
L 149.593905 564.504804 
L 152.517595 563.12551 
L 155.441285 564.916447 
L 158.364975 564.966888 
L 161.288665 566.083622 
L 164.212356 566.946682 
L 167.136046 567.573032 
L 170.059736 586.327306 
L 172.983426 592.298728 
L 173.676843 596.44 
M 185.014282 596.44 
L 187.601876 519.329567 
L 190.065466 596.44 
M 202.108908 596.44 
L 202.220327 594.645041 
L 203.883385 596.44 
M 210.516111 596.44 
L 210.991397 582.05311 
L 213.915087 566.913941 
L 215.759518 596.44 
M 220.510594 596.44 
L 222.686158 586.520046 
L 225.609848 560.552143 
L 229.480617 596.44 
M 231.989842 596.44 
L 234.380918 513.721971 
L 237.304608 571.084946 
L 238.462623 596.44 
M 243.270239 596.44 
L 246.075678 507.022477 
L 248.999369 513.639383 
L 251.923059 574.32727 
L 254.846749 567.790502 
L 257.281271 596.44 
M 258.047461 596.44 
L 260.694129 541.442088 
L 262.190528 596.44 
M 265.481823 596.44 
L 266.541509 566.617696 
L 269.465199 551.721567 
L 272.388889 585.088073 
L 274.264443 596.44 
M 279.413371 596.44 
L 281.15996 589.704757 
L 284.08365 547.168301 
L 287.00734 560.713155 
L 288.878356 596.44 
M 291.419551 596.44 
L 292.85472 577.059761 
L 295.77841 541.344564 
L 298.402636 596.44 
M 302.578606 596.44 
L 304.549481 566.465953 
L 307.473171 543.327821 
L 310.396861 540.96895 
L 313.320551 533.171821 
L 316.244241 566.847339 
L 319.167931 555.936892 
L 322.091621 552.183582 
L 325.015311 503.588848 
L 327.939001 572.85535 
L 330.862691 579.363994 
L 333.786382 543.645753 
L 336.710072 549.970052 
L 339.633762 591.456552 
L 342.557452 590.149002 
L 345.481142 522.943622 
L 348.404832 503.461416 
L 351.328522 557.268578 
L 354.252212 595.877524 
L 357.175902 520.480686 
L 360.099592 441.32634 
L 363.023283 443.119376 
L 365.946973 480.936377 
L 368.870663 468.832031 
L 371.794353 479.338564 
L 374.718043 531.633824 
L 380.565423 595.178415 
L 383.489113 520.672236 
L 389.336494 579.045187 
L 392.260184 557.381283 
L 395.183874 575.908537 
L 398.107564 519.087331 
L 401.031254 486.936727 
L 403.954944 527.487864 
L 406.878634 539.234575 
L 409.802324 536.087537 
L 412.726014 540.753963 
L 415.649704 584.492365 
L 418.573395 543.525352 
L 422.290943 596.44 
M 425.913829 596.44 
L 427.344465 566.395014 
L 430.268155 575.575878 
L 433.191845 559.813227 
L 436.115535 512.543253 
L 439.039225 576.127826 
L 440.570465 596.44 
M 442.958617 596.44 
L 444.886605 560.674188 
L 447.810296 484.663103 
L 450.733986 501.564 
L 453.657676 539.325103 
L 456.581366 555.345452 
L 457.716526 596.44 
M 461.123316 596.44 
L 462.428746 544.20893 
L 465.352436 569.308141 
L 468.276126 524.971863 
L 471.199816 539.644575 
L 474.123506 586.481358 
L 477.047197 571.020653 
L 479.970887 462.168076 
L 482.894577 569.706283 
L 485.679939 596.44 
M 488.834446 596.44 
L 491.665647 556.398137 
L 494.589337 545.286696 
L 496.351877 596.44 
M 498.539555 596.44 
L 500.436717 534.158744 
L 503.360408 461.526264 
L 506.284098 553.40536 
L 507.841978 596.44 
M 516.435436 596.44 
L 517.978858 557.902379 
L 520.902548 586.214531 
L 523.826238 586.081502 
L 526.749928 557.494408 
L 529.029741 596.44 
M 533.851349 596.44 
L 535.520999 544.990171 
L 538.444689 525.959766 
L 544.268337 596.44 
M 544.300798 596.44 
L 547.215759 500.81494 
L 550.139449 546.728813 
L 553.063139 493.122262 
L 555.986829 490.505134 
L 561.83421 430.231829 
L 564.7579 505.387446 
L 567.68159 477.050178 
L 570.60528 571.667572 
L 573.52897 456.855676 
L 576.45266 454.164111 
L 579.37635 500.999809 
L 582.30004 463.640521 
L 585.22373 546.187219 
L 588.147421 515.293234 
L 591.071111 537.769196 
L 593.994801 566.883333 
L 596.918491 497.599062 
L 599.842181 583.366221 
L 602.765871 542.380319 
L 608.160036 596.44 
M 616.337463 596.44 
L 617.384322 561.365496 
L 620.308012 548.669499 
L 623.231702 581.283692 
L 623.837903 596.44 
M 634.074131 596.44 
L 634.926462 589.510024 
L 637.850152 590.917126 
L 640.773842 539.188612 
L 643.697532 451.335495 
L 646.621223 516.594767 
L 649.544913 542.935591 
L 652.468603 586.605187 
L 655.392293 570.300661 
L 658.315983 487.181622 
L 661.239673 575.707962 
L 664.163363 505.514213 
L 667.087053 573.799878 
L 670.010743 584.66506 
L 672.934433 556.212849 
L 675.858124 566.815402 
L 678.781814 554.761322 
L 681.745653 596.44 
M 686.131298 596.44 
L 687.552884 562.447705 
L 688.562951 596.44 
M 700.195192 596.44 
L 702.171335 576.23511 
L 705.095025 581.212682 
L 708.018715 580.466806 
L 710.942405 582.733015 
L 713.866095 580.679868 
L 716.789785 582.133564 
L 719.713475 581.760608 
L 722.637165 577.85538 
L 725.560855 582.13136 
L 728.484545 577.980993 
L 728.484545 577.980993 
" style="fill:none;stroke:#dd8452;stroke-dasharray:6,2.25;stroke-dashoffset:0;stroke-width:1.5;"/>
   </g>
   <g id="line2d_3">
    <path clip-path="url(#p2e8d138bbd)" d="M 134.975455 557.203375 
L 137.899145 560.685696 
L 140.822835 562.652407 
L 143.746525 560.146725 
L 146.670215 568.913078 
L 149.593905 569.878209 
L 152.517595 571.375 
L 155.441285 591.076075 
L 158.364975 592.631352 
L 161.288665 583.274889 
L 164.212356 584.837407 
L 167.136046 577.451466 
L 170.059736 580.806041 
L 172.384288 596.44 
M 184.242717 596.44 
L 184.678186 580.025464 
L 187.601876 530.065884 
L 190.525567 566.336387 
L 193.449257 592.336751 
L 196.372947 586.102175 
L 197.533058 596.44 
M 201.075417 596.44 
L 202.220327 586.324823 
L 205.144017 594.174841 
L 208.067707 496.329535 
L 210.991397 560.681743 
L 213.915087 588.931002 
L 216.838777 567.665799 
L 219.762468 551.313421 
L 222.686158 545.072444 
L 225.609848 495.995162 
L 228.533538 545.135758 
L 231.457228 588.478991 
L 234.380918 525.070541 
L 237.304608 573.358711 
L 238.112712 596.44 
M 243.725483 596.44 
L 246.075678 497.51406 
L 248.999369 535.464405 
L 251.923059 531.218227 
L 254.846749 593.14143 
L 255.542457 596.44 
M 258.179865 596.44 
L 260.694129 531.569775 
L 262.89633 596.44 
M 264.750744 596.44 
L 266.541509 562.846476 
L 269.465199 577.70717 
L 272.388889 591.866411 
L 278.23627 552.027816 
L 281.15996 492.498639 
L 284.08365 473.826149 
L 287.00734 463.573989 
L 289.93103 499.919769 
L 292.85472 508.143199 
L 295.77841 533.419478 
L 298.077431 596.44 
M 303.961138 596.44 
L 304.549481 582.438239 
L 307.473171 568.58689 
L 310.396861 594.629755 
L 313.320551 591.445358 
L 316.108668 596.44 
M 316.310646 596.44 
L 319.167931 585.98989 
L 322.091621 571.393574 
L 325.015311 527.667276 
L 327.939001 586.420773 
L 328.970827 596.44 
M 331.951467 596.44 
L 333.786382 565.480394 
L 336.710072 561.271959 
L 338.687472 596.44 
M 344.147963 596.44 
L 345.481142 555.664049 
L 348.404832 519.321172 
L 351.209381 596.44 
M 351.473631 596.44 
L 354.252212 533.708168 
L 357.175902 590.299066 
L 360.099592 496.148129 
L 363.023283 562.267278 
L 365.946973 490.945706 
L 368.870663 537.051269 
L 371.794353 473.183148 
L 374.718043 578.576945 
L 377.254525 596.44 
M 378.048539 596.44 
L 380.565423 579.568871 
L 383.489113 565.153296 
L 386.412803 578.489496 
L 387.775599 596.44 
M 391.715715 596.44 
L 392.260184 591.735027 
L 395.183874 593.286386 
L 398.107564 541.902983 
L 401.031254 525.77815 
L 403.954944 537.267759 
L 406.878634 552.085673 
L 409.802324 582.250572 
L 412.726014 558.374293 
L 415.649704 566.754817 
L 418.437568 596.44 
M 418.636747 596.44 
L 421.497085 531.140572 
L 424.420775 479.044068 
L 427.344465 450.528263 
L 430.268155 468.511545 
L 433.191845 476.045205 
L 436.115535 458.143741 
L 439.039225 541.29094 
L 441.801158 596.44 
M 442.124335 596.44 
L 444.886605 541.168545 
L 447.810296 562.469812 
L 450.733986 506.41638 
L 453.657676 522.377927 
L 456.581366 572.561868 
L 456.999343 596.44 
M 463.161479 596.44 
L 465.352436 567.626307 
L 468.276126 563.656296 
L 471.199816 496.253664 
L 474.123506 555.0342 
L 477.047197 522.75536 
L 479.970887 504.136913 
L 482.894577 569.152061 
L 484.674542 596.44 
M 487.860561 596.44 
L 488.741957 588.87283 
L 491.665647 576.341134 
L 494.589337 483.075889 
L 497.513027 536.13504 
L 500.436717 484.560751 
L 503.360408 500.788915 
L 506.284098 572.630114 
L 509.207788 531.268458 
L 512.131478 544.337901 
L 515.055168 567.525005 
L 517.978858 559.703775 
L 519.922736 596.44 
M 536.770647 596.44 
L 538.444689 578.258628 
L 541.147174 596.44 
M 544.373429 596.44 
L 547.215759 489.45745 
L 550.139449 577.118842 
L 553.063139 525.349331 
L 555.986829 485.237753 
L 558.910519 501.556305 
L 561.83421 474.210298 
L 564.7579 469.635869 
L 567.68159 467.594791 
L 570.60528 513.032727 
L 573.52897 547.653682 
L 576.45266 466.380358 
L 579.37635 522.730944 
L 582.30004 545.850572 
L 585.22373 586.351372 
L 588.147421 554.449581 
L 591.071111 572.870811 
L 593.994801 566.53126 
L 596.918491 482.878707 
L 599.842181 596.423665 
L 602.765871 586.658846 
L 605.689561 556.465509 
L 608.613251 566.968299 
L 610.373493 596.44 
M 615.251477 596.44 
L 617.384322 510.775018 
L 620.308012 481.858098 
L 623.231702 566.9329 
L 624.398831 596.44 
M 627.893904 596.44 
L 629.079082 566.16551 
L 631.199378 596.44 
M 635.051528 596.44 
L 637.850152 518.763382 
L 640.773842 501.383819 
L 643.697532 519.320892 
L 646.621223 579.930563 
L 649.544913 519.409391 
L 652.468603 589.090195 
L 655.392293 566.464064 
L 658.315983 493.865515 
L 661.239673 559.515653 
L 664.163363 504.206279 
L 667.087053 571.895571 
L 670.010743 579.058724 
L 672.934433 525.605104 
L 675.858124 580.117216 
L 678.781814 568.072231 
L 680.617434 596.44 
M 686.972797 596.44 
L 687.552884 582.628669 
L 688.092102 596.44 
M 701.76769 596.44 
L 702.171335 592.65325 
L 705.095025 588.313151 
L 708.018715 587.964331 
L 710.942405 594.256729 
L 713.866095 590.415479 
L 716.789785 591.04211 
L 719.713475 588.798393 
L 722.637165 588.622514 
L 725.560855 589.85622 
L 728.484545 580.285854 
L 728.484545 580.285854 
" style="fill:none;stroke:#55a868;stroke-dasharray:1.5,1.5;stroke-dashoffset:0;stroke-width:1.5;"/>
   </g>
   <g id="line2d_4">
    <path clip-path="url(#p2e8d138bbd)" d="M 134.975455 556.121481 
L 137.899145 559.728156 
L 140.822835 560.475642 
L 143.746525 560.544097 
L 146.670215 562.282984 
L 149.593905 564.49333 
L 152.517595 563.214394 
L 155.441285 565.150428 
L 158.364975 565.380036 
L 161.288665 566.548785 
L 167.136046 568.137818 
L 170.059736 586.995248 
L 172.983426 592.946556 
L 173.569077 596.44 
M 185.046347 596.44 
L 187.601876 519.814948 
L 190.035396 596.44 
M 202.128946 596.44 
L 202.220327 594.961785 
L 205.144017 593.953278 
L 205.237881 596.44 
M 210.387722 596.44 
L 210.991397 576.932644 
L 213.915087 574.884115 
L 215.749237 596.44 
M 220.83825 596.44 
L 222.686158 587.490948 
L 225.609848 559.994913 
L 229.314886 596.44 
M 232.049749 596.44 
L 234.380918 514.503947 
L 238.274569 596.44 
M 243.334962 596.44 
L 246.075678 507.583975 
L 248.999369 513.515904 
L 251.923059 574.688508 
L 254.846749 568.353224 
L 257.449784 596.44 
M 257.943194 596.44 
L 260.694129 541.345473 
L 262.18483 596.44 
M 265.397548 596.44 
L 266.541509 562.397753 
L 269.465199 551.407622 
L 272.388889 581.134397 
L 274.285228 596.44 
M 279.057132 596.44 
L 281.15996 586.951558 
L 284.08365 546.755258 
L 287.00734 569.907767 
L 288.576505 596.44 
M 291.32416 596.44 
L 292.85472 571.277651 
L 295.77841 541.191947 
L 298.393117 596.44 
M 302.688322 596.44 
L 304.549481 569.547754 
L 307.473171 543.558268 
L 310.396861 543.016989 
L 313.320551 532.260664 
L 316.244241 568.654017 
L 319.167931 558.467444 
L 322.091621 562.590528 
L 325.015311 499.521768 
L 327.939001 560.544937 
L 330.862691 590.937065 
L 333.786382 540.552164 
L 336.710072 556.024727 
L 338.913317 596.44 
M 342.899801 596.44 
L 345.481142 528.679699 
L 348.404832 477.859613 
L 351.328522 541.506451 
L 354.252212 576.143043 
L 357.175902 497.232822 
L 360.099592 459.726548 
L 363.023283 585.141242 
L 365.946973 491.161497 
L 368.870663 486.519242 
L 371.794353 503.551839 
L 374.718043 558.141257 
L 377.641733 574.961876 
L 379.571084 596.44 
M 380.936721 596.44 
L 383.489113 520.346993 
L 386.412803 553.278628 
L 389.336494 579.901215 
L 392.260184 556.62005 
L 395.183874 576.19121 
L 398.107564 518.407881 
L 401.031254 488.358241 
L 403.954944 525.373397 
L 406.878634 541.938733 
L 409.802324 539.454634 
L 412.726014 539.458657 
L 415.649704 587.615267 
L 418.573395 545.050267 
L 421.940783 596.44 
M 426.081491 596.44 
L 427.344465 568.001676 
L 430.268155 574.491955 
L 433.191845 556.492898 
L 436.115535 510.809333 
L 439.039225 575.884786 
L 440.552953 596.44 
M 442.960964 596.44 
L 444.886605 559.499282 
L 447.810296 483.936919 
L 450.733986 495.765519 
L 453.657676 545.035435 
L 456.581366 556.258602 
L 457.720479 596.44 
M 461.073159 596.44 
L 462.428746 542.02153 
L 465.352436 572.092018 
L 468.276126 524.361953 
L 471.199816 546.056954 
L 474.123506 594.981653 
L 477.047197 576.881504 
L 479.970887 458.786427 
L 482.894577 570.408365 
L 485.713387 596.44 
M 488.961697 596.44 
L 491.665647 556.660032 
L 494.589337 545.927038 
L 496.315561 596.44 
M 498.550992 596.44 
L 500.436717 532.78029 
L 503.360408 459.571027 
L 506.284098 552.798284 
L 507.868064 596.44 
M 516.429682 596.44 
L 517.978858 557.462436 
L 520.902548 586.427209 
L 523.826238 584.794836 
L 526.749928 556.435741 
L 529.057517 596.44 
M 533.830107 596.44 
L 535.520999 544.288474 
L 538.444689 528.354421 
L 544.203911 596.44 
M 544.323148 596.44 
L 547.215759 500.713918 
L 550.139449 545.96709 
L 553.063139 491.444904 
L 555.986829 491.767559 
L 558.910519 459.828934 
L 561.83421 431.934932 
L 564.7579 506.192194 
L 567.68159 477.3077 
L 570.60528 566.768004 
L 573.52897 451.304642 
L 576.45266 510.661333 
L 579.37635 487.210725 
L 582.30004 477.240434 
L 585.22373 595.303818 
L 588.147421 501.552667 
L 591.071111 509.27361 
L 593.994801 574.42315 
L 596.918491 520.301449 
L 599.842181 571.125838 
L 602.765871 561.011954 
L 605.689561 575.738745 
L 608.613251 589.435692 
L 609.020194 596.44 
M 616.271675 596.44 
L 617.384322 553.579036 
L 620.308012 544.231317 
L 623.231702 582.942474 
L 623.83659 596.44 
M 634.250892 596.44 
L 634.926462 592.227404 
L 637.850152 590.721064 
L 640.773842 539.008395 
L 643.697532 450.79404 
L 646.621223 517.134122 
L 649.544913 539.74063 
L 652.468603 586.885761 
L 655.392293 570.074796 
L 658.315983 486.907834 
L 661.239673 576.204467 
L 664.163363 505.422251 
L 667.087053 571.932545 
L 670.010743 585.421571 
L 672.934433 555.219034 
L 675.858124 565.242775 
L 678.781814 553.995612 
L 681.960342 596.44 
M 686.090327 596.44 
L 687.552884 562.300299 
L 688.569572 596.44 
M 700.243856 596.44 
L 702.171335 575.037397 
L 705.095025 580.59847 
L 708.018715 579.957638 
L 710.942405 583.032128 
L 713.866095 580.964955 
L 716.789785 582.222168 
L 719.713475 581.940894 
L 722.637165 577.682614 
L 725.560855 582.501273 
L 728.484545 578.026886 
L 728.484545 578.026886 
" style="fill:none;stroke:#c44e52;stroke-dasharray:4.5,1.875,2.25,1.875;stroke-dashoffset:0;stroke-width:1.5;"/>
   </g>
   <g id="line2d_5">
    <path clip-path="url(#p2e8d138bbd)" d="M 134.975455 558.720699 
L 137.899145 562.384741 
L 140.822835 563.149542 
L 143.746525 563.640625 
L 146.670215 564.989311 
L 149.593905 567.792426 
L 152.517595 567.041338 
L 155.441285 568.681371 
L 158.364975 568.992063 
L 161.288665 570.911621 
L 164.212356 570.375484 
L 167.136046 570.537231 
L 170.059736 586.912031 
L 172.983426 592.778128 
L 173.704446 596.44 
M 185.222562 596.44 
L 187.601876 538.765005 
L 189.793072 596.44 
M 202.144376 596.44 
L 202.220327 594.926525 
L 205.144017 593.229089 
L 205.259545 596.44 
M 210.469771 596.44 
L 210.991397 579.491181 
L 213.915087 564.854883 
L 215.935684 596.44 
M 220.415357 596.44 
L 222.686158 586.336261 
L 225.609848 567.004014 
L 229.019104 596.44 
M 232.134415 596.44 
L 234.380918 518.408546 
L 237.304608 573.371269 
L 238.314081 596.44 
M 243.341149 596.44 
L 246.075678 503.625612 
L 248.999369 503.993741 
L 251.923059 581.587877 
L 254.846749 569.704814 
L 257.134931 596.44 
M 258.096569 596.44 
L 260.694129 537.299101 
L 262.258254 596.44 
M 265.356924 596.44 
L 266.541509 561.424787 
L 269.465199 550.136452 
L 272.388889 578.435312 
L 274.59807 596.44 
M 280.235989 596.44 
L 281.15996 593.60187 
L 284.08365 553.627168 
L 287.00734 568.071286 
L 288.69731 596.44 
M 291.222358 596.44 
L 292.85472 570.260749 
L 295.77841 536.825019 
L 298.615738 596.44 
M 302.47502 596.44 
L 304.549481 566.527657 
L 307.473171 541.267223 
L 310.396861 557.142195 
L 313.320551 536.620736 
L 316.244241 566.203743 
L 319.167931 557.189103 
L 322.091621 565.830892 
L 325.015311 509.71642 
L 327.939001 557.400732 
L 330.862691 593.405318 
L 333.786382 555.725543 
L 336.710072 526.577581 
L 339.535666 596.44 
M 342.908703 596.44 
L 345.481142 540.607712 
L 348.404832 490.39862 
L 351.328522 472.280246 
L 354.252212 549.924893 
L 357.175902 559.419388 
L 360.099592 562.38558 
L 361.269652 596.44 
M 364.393214 596.44 
L 365.946973 538.552012 
L 368.870663 541.867794 
L 371.794353 519.92454 
L 375.039468 596.44 
M 382.605624 596.44 
L 383.489113 569.497592 
L 386.412803 552.834523 
L 389.336494 584.113462 
L 392.260184 572.640713 
L 395.183874 587.668471 
L 398.107564 501.577887 
L 401.031254 502.946722 
L 403.954944 521.95523 
L 406.878634 550.815482 
L 409.802324 547.834319 
L 412.726014 532.582374 
L 415.193893 596.44 
M 416.226795 596.44 
L 418.573395 548.481062 
L 421.255582 596.44 
M 426.544866 596.44 
L 427.344465 578.071031 
L 430.268155 577.897705 
L 433.191845 562.578704 
L 436.115535 508.470471 
L 439.039225 575.051704 
L 440.527582 596.44 
M 443.119349 596.44 
L 444.886605 564.918931 
L 447.810296 483.722597 
L 450.733986 491.825171 
L 453.657676 530.562773 
L 456.581366 543.905969 
L 458.276404 596.44 
M 460.56056 596.44 
L 462.428746 529.041462 
L 465.352436 565.621608 
L 468.276126 529.521981 
L 471.199816 556.15013 
L 473.50484 596.44 
M 474.823714 596.44 
L 477.047197 562.101298 
L 479.970887 461.208752 
L 482.894577 579.815479 
L 485.006268 596.44 
M 489.082816 596.44 
L 491.665647 562.22051 
L 494.589337 544.735412 
L 496.318232 596.44 
M 498.543791 596.44 
L 500.436717 530.821135 
L 503.360408 455.316 
L 507.78373 596.44 
M 516.504288 596.44 
L 517.978858 561.164991 
L 520.902548 586.580666 
L 523.826238 580.391144 
L 526.749928 545.648248 
L 529.474221 596.44 
M 533.264523 596.44 
L 535.520999 526.64873 
L 538.444689 504.781838 
L 541.368379 556.041272 
L 544.112892 596.44 
M 544.364716 596.44 
L 547.215759 492.93337 
L 550.139449 541.469617 
L 553.063139 450.546348 
L 555.986829 524.583131 
L 558.910519 481.939496 
L 561.83421 467.640265 
L 564.7579 537.471412 
L 567.68159 511.270963 
L 570.60528 516.019977 
L 573.52897 501.956965 
L 576.45266 551.0014 
L 579.37635 522.645698 
L 582.30004 485.441651 
L 585.22373 567.888411 
L 588.147421 513.885047 
L 591.071111 525.614374 
L 593.994801 547.23074 
L 596.918491 503.1332 
L 599.842181 545.278056 
L 602.765871 534.120336 
L 605.689561 555.278535 
L 608.613251 572.919503 
L 610.617747 596.44 
M 615.687514 596.44 
L 617.384322 529.770898 
L 620.308012 526.634878 
L 623.231702 571.440342 
L 624.384122 596.44 
M 632.219529 596.44 
L 634.926462 582.095855 
L 637.850152 575.21492 
L 640.773842 518.572112 
L 643.697532 443.977783 
L 646.621223 501.205981 
L 649.544913 526.990799 
L 652.468603 565.963047 
L 655.392293 554.394453 
L 658.315983 486.574056 
L 661.239673 561.428844 
L 664.163363 498.434837 
L 667.087053 568.320833 
L 670.010743 580.777392 
L 672.934433 561.133474 
L 675.858124 563.225203 
L 678.781814 537.386411 
L 681.705504 591.754651 
L 682.178049 596.44 
M 685.681112 596.44 
L 687.552884 553.194676 
L 689.038645 596.44 
M 699.632965 596.44 
L 702.171335 571.855379 
L 705.095025 576.541744 
L 708.018715 575.721535 
L 710.942405 577.729802 
L 713.866095 575.541178 
L 719.713475 576.351908 
L 722.637165 571.597157 
L 725.560855 576.274707 
L 728.484545 572.604019 
L 728.484545 572.604019 
" style="fill:none;stroke:#8172b3;stroke-dasharray:7.5,1.5,1.5,1.5;stroke-dashoffset:0;stroke-width:1.5;"/>
   </g>
   <g id="line2d_6"/>
   <g id="line2d_7"/>
   <g id="line2d_8"/>
   <g id="line2d_9"/>
   <g id="line2d_10"/>
   <g id="patch_3">
    <path d="M 105.3 529.9416 
L 105.3 71.4528 
" style="fill:none;stroke:#262626;stroke-linecap:square;stroke-linejoin:miter;stroke-width:1.25;"/>
   </g>
   <g id="patch_4">
    <path d="M 758.16 529.9416 
L 758.16 71.4528 
" style="fill:none;stroke:#262626;stroke-linecap:square;stroke-linejoin:miter;stroke-width:1.25;"/>
   </g>
   <g id="patch_5">
    <path d="M 105.3 529.9416 
L 758.16 529.9416 
" style="fill:none;stroke:#262626;stroke-linecap:square;stroke-linejoin:miter;stroke-width:1.25;"/>
   </g>
   <g id="patch_6">
    <path d="M 105.3 71.4528 
L 758.16 71.4528 
" style="fill:none;stroke:#262626;stroke-linecap:square;stroke-linejoin:miter;stroke-width:1.25;"/>
   </g>
   <g id="text_16">
    <!-- Activations for &gt;^&lt; -->
    <g style="fill:#262626;" transform="translate(382.559063 65.4528)scale(0.12 -0.12)">
     <defs>
      <path d="M -9 0 
L 1750 4581 
L 2403 4581 
L 4278 0 
L 3588 0 
L 3053 1388 
L 1138 1388 
L 634 0 
L -9 0 
z
M 1313 1881 
L 2866 1881 
L 2388 3150 
Q 2169 3728 2063 4100 
Q 1975 3659 1816 3225 
L 1313 1881 
z
" id="ArialMT-41" transform="scale(0.015625)"/>
      <path d="M 2588 1216 
L 3141 1144 
Q 3050 572 2676 248 
Q 2303 -75 1759 -75 
Q 1078 -75 664 370 
Q 250 816 250 1647 
Q 250 2184 428 2587 
Q 606 2991 970 3192 
Q 1334 3394 1763 3394 
Q 2303 3394 2647 3120 
Q 2991 2847 3088 2344 
L 2541 2259 
Q 2463 2594 2264 2762 
Q 2066 2931 1784 2931 
Q 1359 2931 1093 2626 
Q 828 2322 828 1663 
Q 828 994 1084 691 
Q 1341 388 1753 388 
Q 2084 388 2306 591 
Q 2528 794 2588 1216 
z
" id="ArialMT-63" transform="scale(0.015625)"/>
      <path d="M 1650 503 
L 1731 6 
Q 1494 -44 1306 -44 
Q 1000 -44 831 53 
Q 663 150 594 308 
Q 525 466 525 972 
L 525 2881 
L 113 2881 
L 113 3319 
L 525 3319 
L 525 4141 
L 1084 4478 
L 1084 3319 
L 1650 3319 
L 1650 2881 
L 1084 2881 
L 1084 941 
Q 1084 700 1114 631 
Q 1144 563 1211 522 
Q 1278 481 1403 481 
Q 1497 481 1650 503 
z
" id="ArialMT-74" transform="scale(0.015625)"/>
      <path d="M 425 3934 
L 425 4581 
L 988 4581 
L 988 3934 
L 425 3934 
z
M 425 0 
L 425 3319 
L 988 3319 
L 988 0 
L 425 0 
z
" id="ArialMT-69" transform="scale(0.015625)"/>
      <path d="M 1344 0 
L 81 3319 
L 675 3319 
L 1388 1331 
Q 1503 1009 1600 663 
Q 1675 925 1809 1294 
L 2547 3319 
L 3125 3319 
L 1869 0 
L 1344 0 
z
" id="ArialMT-76" transform="scale(0.015625)"/>
      <path d="M 2588 409 
Q 2275 144 1986 34 
Q 1697 -75 1366 -75 
Q 819 -75 525 192 
Q 231 459 231 875 
Q 231 1119 342 1320 
Q 453 1522 633 1644 
Q 813 1766 1038 1828 
Q 1203 1872 1538 1913 
Q 2219 1994 2541 2106 
Q 2544 2222 2544 2253 
Q 2544 2597 2384 2738 
Q 2169 2928 1744 2928 
Q 1347 2928 1158 2789 
Q 969 2650 878 2297 
L 328 2372 
Q 403 2725 575 2942 
Q 747 3159 1072 3276 
Q 1397 3394 1825 3394 
Q 2250 3394 2515 3294 
Q 2781 3194 2906 3042 
Q 3031 2891 3081 2659 
Q 3109 2516 3109 2141 
L 3109 1391 
Q 3109 606 3145 398 
Q 3181 191 3288 0 
L 2700 0 
Q 2613 175 2588 409 
z
M 2541 1666 
Q 2234 1541 1622 1453 
Q 1275 1403 1131 1340 
Q 988 1278 909 1158 
Q 831 1038 831 891 
Q 831 666 1001 516 
Q 1172 366 1500 366 
Q 1825 366 2078 508 
Q 2331 650 2450 897 
Q 2541 1088 2541 1459 
L 2541 1666 
z
" id="ArialMT-61" transform="scale(0.015625)"/>
      <path d="M 213 1659 
Q 213 2581 725 3025 
Q 1153 3394 1769 3394 
Q 2453 3394 2887 2945 
Q 3322 2497 3322 1706 
Q 3322 1066 3130 698 
Q 2938 331 2570 128 
Q 2203 -75 1769 -75 
Q 1072 -75 642 372 
Q 213 819 213 1659 
z
M 791 1659 
Q 791 1022 1069 705 
Q 1347 388 1769 388 
Q 2188 388 2466 706 
Q 2744 1025 2744 1678 
Q 2744 2294 2464 2611 
Q 2184 2928 1769 2928 
Q 1347 2928 1069 2612 
Q 791 2297 791 1659 
z
" id="ArialMT-6f" transform="scale(0.015625)"/>
      <path d="M 422 0 
L 422 3319 
L 928 3319 
L 928 2847 
Q 1294 3394 1984 3394 
Q 2284 3394 2536 3286 
Q 2788 3178 2913 3003 
Q 3038 2828 3088 2588 
Q 3119 2431 3119 2041 
L 3119 0 
L 2556 0 
L 2556 2019 
Q 2556 2363 2490 2533 
Q 2425 2703 2258 2804 
Q 2091 2906 1866 2906 
Q 1506 2906 1245 2678 
Q 984 2450 984 1813 
L 984 0 
L 422 0 
z
" id="ArialMT-6e" transform="scale(0.015625)"/>
      <path d="M 197 991 
L 753 1078 
Q 800 744 1014 566 
Q 1228 388 1613 388 
Q 2000 388 2187 545 
Q 2375 703 2375 916 
Q 2375 1106 2209 1216 
Q 2094 1291 1634 1406 
Q 1016 1563 777 1677 
Q 538 1791 414 1992 
Q 291 2194 291 2438 
Q 291 2659 392 2848 
Q 494 3038 669 3163 
Q 800 3259 1026 3326 
Q 1253 3394 1513 3394 
Q 1903 3394 2198 3281 
Q 2494 3169 2634 2976 
Q 2775 2784 2828 2463 
L 2278 2388 
Q 2241 2644 2061 2787 
Q 1881 2931 1553 2931 
Q 1166 2931 1000 2803 
Q 834 2675 834 2503 
Q 834 2394 903 2306 
Q 972 2216 1119 2156 
Q 1203 2125 1616 2013 
Q 2213 1853 2448 1751 
Q 2684 1650 2818 1456 
Q 2953 1263 2953 975 
Q 2953 694 2789 445 
Q 2625 197 2315 61 
Q 2006 -75 1616 -75 
Q 969 -75 630 194 
Q 291 463 197 991 
z
" id="ArialMT-73" transform="scale(0.015625)"/>
      <path id="ArialMT-20" transform="scale(0.015625)"/>
      <path d="M 556 0 
L 556 2881 
L 59 2881 
L 59 3319 
L 556 3319 
L 556 3672 
Q 556 4006 616 4169 
Q 697 4388 901 4523 
Q 1106 4659 1475 4659 
Q 1713 4659 2000 4603 
L 1916 4113 
Q 1741 4144 1584 4144 
Q 1328 4144 1222 4034 
Q 1116 3925 1116 3625 
L 1116 3319 
L 1763 3319 
L 1763 2881 
L 1116 2881 
L 1116 0 
L 556 0 
z
" id="ArialMT-66" transform="scale(0.015625)"/>
      <path d="M 416 0 
L 416 3319 
L 922 3319 
L 922 2816 
Q 1116 3169 1280 3281 
Q 1444 3394 1641 3394 
Q 1925 3394 2219 3213 
L 2025 2691 
Q 1819 2813 1613 2813 
Q 1428 2813 1281 2702 
Q 1134 2591 1072 2394 
Q 978 2094 978 1738 
L 978 0 
L 416 0 
z
" id="ArialMT-72" transform="scale(0.015625)"/>
      <path d="M 3384 2003 
L 350 706 
L 350 1266 
L 2753 2263 
L 350 3250 
L 350 3809 
L 3384 2528 
L 3384 2003 
z
" id="ArialMT-3e" transform="scale(0.015625)"/>
      <path d="M 747 2156 
L 169 2156 
L 1272 4659 
L 1725 4659 
L 2834 2156 
L 2269 2156 
L 1497 4022 
L 747 2156 
z
" id="ArialMT-5e" transform="scale(0.015625)"/>
      <path d="M 350 2003 
L 350 2528 
L 3384 3809 
L 3384 3250 
L 978 2263 
L 3384 1266 
L 3384 706 
L 350 2003 
z
" id="ArialMT-3c" transform="scale(0.015625)"/>
     </defs>
     <use xlink:href="#ArialMT-41"/>
     <use x="66.699219" xlink:href="#ArialMT-63"/>
     <use x="116.699219" xlink:href="#ArialMT-74"/>
     <use x="144.482422" xlink:href="#ArialMT-69"/>
     <use x="166.699219" xlink:href="#ArialMT-76"/>
     <use x="216.699219" xlink:href="#ArialMT-61"/>
     <use x="272.314453" xlink:href="#ArialMT-74"/>
     <use x="300.097656" xlink:href="#ArialMT-69"/>
     <use x="322.314453" xlink:href="#ArialMT-6f"/>
     <use x="377.929688" xlink:href="#ArialMT-6e"/>
     <use x="433.544922" xlink:href="#ArialMT-73"/>
     <use x="483.544922" xlink:href="#ArialMT-20"/>
     <use x="511.328125" xlink:href="#ArialMT-66"/>
     <use x="539.111328" xlink:href="#ArialMT-6f"/>
     <use x="594.726562" xlink:href="#ArialMT-72"/>
     <use x="628.027344" xlink:href="#ArialMT-20"/>
     <use x="655.810547" xlink:href="#ArialMT-3e"/>
     <use x="714.208984" xlink:href="#ArialMT-5e"/>
     <use x="761.132812" xlink:href="#ArialMT-3c"/>
    </g>
   </g>
   <g id="legend_1">
    <g id="patch_7">
     <path d="M 640.044062 158.514363 
L 750.46 158.514363 
Q 752.66 158.514363 752.66 156.314363 
L 752.66 79.1528 
Q 752.66 76.9528 750.46 76.9528 
L 640.044062 76.9528 
Q 637.844062 76.9528 637.844062 79.1528 
L 637.844062 156.314363 
Q 637.844062 158.514363 640.044062 158.514363 
z
" style="fill:#ffffff;opacity:0.8;stroke:#cccccc;stroke-linejoin:miter;"/>
    </g>
    <g id="line2d_11">
     <path d="M 642.244062 85.376394 
L 664.244062 85.376394 
" style="fill:none;stroke:#4c72b0;stroke-linecap:round;stroke-width:1.5;"/>
    </g>
    <g id="line2d_12"/>
    <g id="text_17">
     <!-- regular -->
     <g style="fill:#262626;" transform="translate(673.044062 89.226394)scale(0.11 -0.11)">
      <defs>
       <path d="M 2694 1069 
L 3275 997 
Q 3138 488 2766 206 
Q 2394 -75 1816 -75 
Q 1088 -75 661 373 
Q 234 822 234 1631 
Q 234 2469 665 2931 
Q 1097 3394 1784 3394 
Q 2450 3394 2872 2941 
Q 3294 2488 3294 1666 
Q 3294 1616 3291 1516 
L 816 1516 
Q 847 969 1125 678 
Q 1403 388 1819 388 
Q 2128 388 2347 550 
Q 2566 713 2694 1069 
z
M 847 1978 
L 2700 1978 
Q 2663 2397 2488 2606 
Q 2219 2931 1791 2931 
Q 1403 2931 1139 2672 
Q 875 2413 847 1978 
z
" id="ArialMT-65" transform="scale(0.015625)"/>
       <path d="M 319 -275 
L 866 -356 
Q 900 -609 1056 -725 
Q 1266 -881 1628 -881 
Q 2019 -881 2231 -725 
Q 2444 -569 2519 -288 
Q 2563 -116 2559 434 
Q 2191 0 1641 0 
Q 956 0 581 494 
Q 206 988 206 1678 
Q 206 2153 378 2554 
Q 550 2956 876 3175 
Q 1203 3394 1644 3394 
Q 2231 3394 2613 2919 
L 2613 3319 
L 3131 3319 
L 3131 450 
Q 3131 -325 2973 -648 
Q 2816 -972 2473 -1159 
Q 2131 -1347 1631 -1347 
Q 1038 -1347 672 -1080 
Q 306 -813 319 -275 
z
M 784 1719 
Q 784 1066 1043 766 
Q 1303 466 1694 466 
Q 2081 466 2343 764 
Q 2606 1063 2606 1700 
Q 2606 2309 2336 2618 
Q 2066 2928 1684 2928 
Q 1309 2928 1046 2623 
Q 784 2319 784 1719 
z
" id="ArialMT-67" transform="scale(0.015625)"/>
       <path d="M 2597 0 
L 2597 488 
Q 2209 -75 1544 -75 
Q 1250 -75 995 37 
Q 741 150 617 320 
Q 494 491 444 738 
Q 409 903 409 1263 
L 409 3319 
L 972 3319 
L 972 1478 
Q 972 1038 1006 884 
Q 1059 663 1231 536 
Q 1403 409 1656 409 
Q 1909 409 2131 539 
Q 2353 669 2445 892 
Q 2538 1116 2538 1541 
L 2538 3319 
L 3100 3319 
L 3100 0 
L 2597 0 
z
" id="ArialMT-75" transform="scale(0.015625)"/>
       <path d="M 409 0 
L 409 4581 
L 972 4581 
L 972 0 
L 409 0 
z
" id="ArialMT-6c" transform="scale(0.015625)"/>
      </defs>
      <use xlink:href="#ArialMT-72"/>
      <use x="33.300781" xlink:href="#ArialMT-65"/>
      <use x="88.916016" xlink:href="#ArialMT-67"/>
      <use x="144.53125" xlink:href="#ArialMT-75"/>
      <use x="200.146484" xlink:href="#ArialMT-6c"/>
      <use x="222.363281" xlink:href="#ArialMT-61"/>
      <use x="277.978516" xlink:href="#ArialMT-72"/>
     </g>
    </g>
    <g id="line2d_13">
     <path d="M 642.244062 101.0978 
L 664.244062 101.0978 
" style="fill:none;stroke:#dd8452;stroke-dasharray:6,2.25;stroke-dashoffset:0;stroke-width:1.5;"/>
    </g>
    <g id="line2d_14"/>
    <g id="text_18">
     <!-- splitted_3s -->
     <g style="fill:#262626;" transform="translate(673.044062 104.9478)scale(0.11 -0.11)">
      <defs>
       <path d="M 422 -1272 
L 422 3319 
L 934 3319 
L 934 2888 
Q 1116 3141 1344 3267 
Q 1572 3394 1897 3394 
Q 2322 3394 2647 3175 
Q 2972 2956 3137 2557 
Q 3303 2159 3303 1684 
Q 3303 1175 3120 767 
Q 2938 359 2589 142 
Q 2241 -75 1856 -75 
Q 1575 -75 1351 44 
Q 1128 163 984 344 
L 984 -1272 
L 422 -1272 
z
M 931 1641 
Q 931 1000 1190 694 
Q 1450 388 1819 388 
Q 2194 388 2461 705 
Q 2728 1022 2728 1688 
Q 2728 2322 2467 2637 
Q 2206 2953 1844 2953 
Q 1484 2953 1207 2617 
Q 931 2281 931 1641 
z
" id="ArialMT-70" transform="scale(0.015625)"/>
       <path d="M 2575 0 
L 2575 419 
Q 2259 -75 1647 -75 
Q 1250 -75 917 144 
Q 584 363 401 755 
Q 219 1147 219 1656 
Q 219 2153 384 2558 
Q 550 2963 881 3178 
Q 1213 3394 1622 3394 
Q 1922 3394 2156 3267 
Q 2391 3141 2538 2938 
L 2538 4581 
L 3097 4581 
L 3097 0 
L 2575 0 
z
M 797 1656 
Q 797 1019 1065 703 
Q 1334 388 1700 388 
Q 2069 388 2326 689 
Q 2584 991 2584 1609 
Q 2584 2291 2321 2609 
Q 2059 2928 1675 2928 
Q 1300 2928 1048 2622 
Q 797 2316 797 1656 
z
" id="ArialMT-64" transform="scale(0.015625)"/>
       <path d="M -97 -1272 
L -97 -866 
L 3631 -866 
L 3631 -1272 
L -97 -1272 
z
" id="ArialMT-5f" transform="scale(0.015625)"/>
       <path d="M 269 1209 
L 831 1284 
Q 928 806 1161 595 
Q 1394 384 1728 384 
Q 2125 384 2398 659 
Q 2672 934 2672 1341 
Q 2672 1728 2419 1979 
Q 2166 2231 1775 2231 
Q 1616 2231 1378 2169 
L 1441 2663 
Q 1497 2656 1531 2656 
Q 1891 2656 2178 2843 
Q 2466 3031 2466 3422 
Q 2466 3731 2256 3934 
Q 2047 4138 1716 4138 
Q 1388 4138 1169 3931 
Q 950 3725 888 3313 
L 325 3413 
Q 428 3978 793 4289 
Q 1159 4600 1703 4600 
Q 2078 4600 2393 4439 
Q 2709 4278 2876 4000 
Q 3044 3722 3044 3409 
Q 3044 3113 2884 2869 
Q 2725 2625 2413 2481 
Q 2819 2388 3044 2092 
Q 3269 1797 3269 1353 
Q 3269 753 2831 336 
Q 2394 -81 1725 -81 
Q 1122 -81 723 278 
Q 325 638 269 1209 
z
" id="ArialMT-33" transform="scale(0.015625)"/>
      </defs>
      <use xlink:href="#ArialMT-73"/>
      <use x="50" xlink:href="#ArialMT-70"/>
      <use x="105.615234" xlink:href="#ArialMT-6c"/>
      <use x="127.832031" xlink:href="#ArialMT-69"/>
      <use x="150.048828" xlink:href="#ArialMT-74"/>
      <use x="177.832031" xlink:href="#ArialMT-74"/>
      <use x="205.615234" xlink:href="#ArialMT-65"/>
      <use x="261.230469" xlink:href="#ArialMT-64"/>
      <use x="316.845703" xlink:href="#ArialMT-5f"/>
      <use x="372.460938" xlink:href="#ArialMT-33"/>
      <use x="428.076172" xlink:href="#ArialMT-73"/>
     </g>
    </g>
    <g id="line2d_15">
     <path d="M 642.244062 116.6903 
L 664.244062 116.6903 
" style="fill:none;stroke:#55a868;stroke-dasharray:1.5,1.5;stroke-dashoffset:0;stroke-width:1.5;"/>
    </g>
    <g id="line2d_16"/>
    <g id="text_19">
     <!-- splitted_1s -->
     <g style="fill:#262626;" transform="translate(673.044062 120.5403)scale(0.11 -0.11)">
      <use xlink:href="#ArialMT-73"/>
      <use x="50" xlink:href="#ArialMT-70"/>
      <use x="105.615234" xlink:href="#ArialMT-6c"/>
      <use x="127.832031" xlink:href="#ArialMT-69"/>
      <use x="150.048828" xlink:href="#ArialMT-74"/>
      <use x="177.832031" xlink:href="#ArialMT-74"/>
      <use x="205.615234" xlink:href="#ArialMT-65"/>
      <use x="261.230469" xlink:href="#ArialMT-64"/>
      <use x="316.845703" xlink:href="#ArialMT-5f"/>
      <use x="372.460938" xlink:href="#ArialMT-31"/>
      <use x="428.076172" xlink:href="#ArialMT-73"/>
     </g>
    </g>
    <g id="line2d_17">
     <path d="M 642.244062 132.384206 
L 664.244062 132.384206 
" style="fill:none;stroke:#c44e52;stroke-dasharray:4.5,1.875,2.25,1.875;stroke-dashoffset:0;stroke-width:1.5;"/>
    </g>
    <g id="line2d_18"/>
    <g id="text_20">
     <!-- overlap_1f_3s -->
     <g style="fill:#262626;" transform="translate(673.044062 136.234206)scale(0.11 -0.11)">
      <use xlink:href="#ArialMT-6f"/>
      <use x="55.615234" xlink:href="#ArialMT-76"/>
      <use x="105.615234" xlink:href="#ArialMT-65"/>
      <use x="161.230469" xlink:href="#ArialMT-72"/>
      <use x="194.53125" xlink:href="#ArialMT-6c"/>
      <use x="216.748047" xlink:href="#ArialMT-61"/>
      <use x="272.363281" xlink:href="#ArialMT-70"/>
      <use x="327.978516" xlink:href="#ArialMT-5f"/>
      <use x="383.59375" xlink:href="#ArialMT-31"/>
      <use x="439.208984" xlink:href="#ArialMT-66"/>
      <use x="466.992188" xlink:href="#ArialMT-5f"/>
      <use x="522.607422" xlink:href="#ArialMT-33"/>
      <use x="578.222656" xlink:href="#ArialMT-73"/>
     </g>
    </g>
    <g id="line2d_19">
     <path d="M 642.244062 148.078113 
L 664.244062 148.078113 
" style="fill:none;stroke:#8172b3;stroke-dasharray:7.5,1.5,1.5,1.5;stroke-dashoffset:0;stroke-width:1.5;"/>
    </g>
    <g id="line2d_20"/>
    <g id="text_21">
     <!-- overlap_10f_3s -->
     <g style="fill:#262626;" transform="translate(673.044062 151.928112)scale(0.11 -0.11)">
      <use xlink:href="#ArialMT-6f"/>
      <use x="55.615234" xlink:href="#ArialMT-76"/>
      <use x="105.615234" xlink:href="#ArialMT-65"/>
      <use x="161.230469" xlink:href="#ArialMT-72"/>
      <use x="194.53125" xlink:href="#ArialMT-6c"/>
      <use x="216.748047" xlink:href="#ArialMT-61"/>
      <use x="272.363281" xlink:href="#ArialMT-70"/>
      <use x="327.978516" xlink:href="#ArialMT-5f"/>
      <use x="383.59375" xlink:href="#ArialMT-31"/>
      <use x="439.208984" xlink:href="#ArialMT-30"/>
      <use x="494.824219" xlink:href="#ArialMT-66"/>
      <use x="522.607422" xlink:href="#ArialMT-5f"/>
      <use x="578.222656" xlink:href="#ArialMT-33"/>
      <use x="633.837891" xlink:href="#ArialMT-73"/>
     </g>
    </g>
   </g>
  </g>
 </g>
 <defs>
  <clipPath id="p2e8d138bbd">
   <rect height="458.4888" width="652.86" x="105.3" y="71.4528"/>
  </clipPath>
 </defs>
</svg>
