<?xml version="1.0" encoding="utf-8" standalone="no"?>
<!DOCTYPE svg PUBLIC "-//W3C//DTD SVG 1.1//EN"
  "http://www.w3.org/Graphics/SVG/1.1/DTD/svg11.dtd">
<svg height="595.44pt" version="1.1" viewBox="0 0 842.4 595.44" width="842.4pt" xmlns="http://www.w3.org/2000/svg" xmlns:xlink="http://www.w3.org/1999/xlink">
 <metadata>
  <rdf:RDF xmlns:cc="http://creativecommons.org/ns#" xmlns:dc="http://purl.org/dc/elements/1.1/" xmlns:rdf="http://www.w3.org/1999/02/22-rdf-syntax-ns#">
   <cc:Work>
    <dc:type rdf:resource="http://purl.org/dc/dcmitype/StillImage"/>
    <dc:date>2021-06-04T22:03:11.054484</dc:date>
    <dc:format>image/svg+xml</dc:format>
    <dc:creator>
     <cc:Agent>
      <dc:title>Matplotlib v3.4.1, https://matplotlib.org/</dc:title>
     </cc:Agent>
    </dc:creator>
   </cc:Work>
  </rdf:RDF>
 </metadata>
 <defs>
  <style type="text/css">*{stroke-linecap:butt;stroke-linejoin:round;}</style>
 </defs>
 <g id="figure_1">
  <g id="patch_1">
   <path d="M 0 595.44 
L 842.4 595.44 
L 842.4 0 
L 0 0 
z
" style="fill:#ffffff;"/>
  </g>
  <g id="axes_1">
   <g id="patch_2">
    <path d="M 105.3 529.9416 
L 758.16 529.9416 
L 758.16 71.4528 
L 105.3 71.4528 
z
" style="fill:#ffffff;"/>
   </g>
   <g id="matplotlib.axis_1">
    <g id="xtick_1">
     <g id="text_1">
      <!-- 0 -->
      <g style="fill:#262626;" transform="translate(131.916939 547.315194)scale(0.11 -0.11)">
       <defs>
        <path d="M 266 2259 
Q 266 3072 433 3567 
Q 600 4063 929 4331 
Q 1259 4600 1759 4600 
Q 2128 4600 2406 4451 
Q 2684 4303 2865 4023 
Q 3047 3744 3150 3342 
Q 3253 2941 3253 2259 
Q 3253 1453 3087 958 
Q 2922 463 2592 192 
Q 2263 -78 1759 -78 
Q 1097 -78 719 397 
Q 266 969 266 2259 
z
M 844 2259 
Q 844 1131 1108 757 
Q 1372 384 1759 384 
Q 2147 384 2411 759 
Q 2675 1134 2675 2259 
Q 2675 3391 2411 3762 
Q 2147 4134 1753 4134 
Q 1366 4134 1134 3806 
Q 844 3388 844 2259 
z
" id="ArialMT-30" transform="scale(0.015625)"/>
       </defs>
       <use xlink:href="#ArialMT-30"/>
      </g>
     </g>
    </g>
    <g id="xtick_2">
     <g id="text_2">
      <!-- 25 -->
      <g style="fill:#262626;" transform="translate(201.950676 547.315194)scale(0.11 -0.11)">
       <defs>
        <path d="M 3222 541 
L 3222 0 
L 194 0 
Q 188 203 259 391 
Q 375 700 629 1000 
Q 884 1300 1366 1694 
Q 2113 2306 2375 2664 
Q 2638 3022 2638 3341 
Q 2638 3675 2398 3904 
Q 2159 4134 1775 4134 
Q 1369 4134 1125 3890 
Q 881 3647 878 3216 
L 300 3275 
Q 359 3922 746 4261 
Q 1134 4600 1788 4600 
Q 2447 4600 2831 4234 
Q 3216 3869 3216 3328 
Q 3216 3053 3103 2787 
Q 2991 2522 2730 2228 
Q 2469 1934 1863 1422 
Q 1356 997 1212 845 
Q 1069 694 975 541 
L 3222 541 
z
" id="ArialMT-32" transform="scale(0.015625)"/>
        <path d="M 266 1200 
L 856 1250 
Q 922 819 1161 601 
Q 1400 384 1738 384 
Q 2144 384 2425 690 
Q 2706 997 2706 1503 
Q 2706 1984 2436 2262 
Q 2166 2541 1728 2541 
Q 1456 2541 1237 2417 
Q 1019 2294 894 2097 
L 366 2166 
L 809 4519 
L 3088 4519 
L 3088 3981 
L 1259 3981 
L 1013 2750 
Q 1425 3038 1878 3038 
Q 2478 3038 2890 2622 
Q 3303 2206 3303 1553 
Q 3303 931 2941 478 
Q 2500 -78 1738 -78 
Q 1113 -78 717 272 
Q 322 622 266 1200 
z
" id="ArialMT-35" transform="scale(0.015625)"/>
       </defs>
       <use xlink:href="#ArialMT-32"/>
       <use x="55.615234" xlink:href="#ArialMT-35"/>
      </g>
     </g>
    </g>
    <g id="xtick_3">
     <g id="text_3">
      <!-- 50 -->
      <g style="fill:#262626;" transform="translate(275.042928 547.315194)scale(0.11 -0.11)">
       <use xlink:href="#ArialMT-35"/>
       <use x="55.615234" xlink:href="#ArialMT-30"/>
      </g>
     </g>
    </g>
    <g id="xtick_4">
     <g id="text_4">
      <!-- 75 -->
      <g style="fill:#262626;" transform="translate(348.135181 547.315194)scale(0.11 -0.11)">
       <defs>
        <path d="M 303 3981 
L 303 4522 
L 3269 4522 
L 3269 4084 
Q 2831 3619 2401 2847 
Q 1972 2075 1738 1259 
Q 1569 684 1522 0 
L 944 0 
Q 953 541 1156 1306 
Q 1359 2072 1739 2783 
Q 2119 3494 2547 3981 
L 303 3981 
z
" id="ArialMT-37" transform="scale(0.015625)"/>
       </defs>
       <use xlink:href="#ArialMT-37"/>
       <use x="55.615234" xlink:href="#ArialMT-35"/>
      </g>
     </g>
    </g>
    <g id="xtick_5">
     <g id="text_5">
      <!-- 100 -->
      <g style="fill:#262626;" transform="translate(418.168918 547.315194)scale(0.11 -0.11)">
       <defs>
        <path d="M 2384 0 
L 1822 0 
L 1822 3584 
Q 1619 3391 1289 3197 
Q 959 3003 697 2906 
L 697 3450 
Q 1169 3672 1522 3987 
Q 1875 4303 2022 4600 
L 2384 4600 
L 2384 0 
z
" id="ArialMT-31" transform="scale(0.015625)"/>
       </defs>
       <use xlink:href="#ArialMT-31"/>
       <use x="55.615234" xlink:href="#ArialMT-30"/>
       <use x="111.230469" xlink:href="#ArialMT-30"/>
      </g>
     </g>
    </g>
    <g id="xtick_6">
     <g id="text_6">
      <!-- 125 -->
      <g style="fill:#262626;" transform="translate(491.261171 547.315194)scale(0.11 -0.11)">
       <use xlink:href="#ArialMT-31"/>
       <use x="55.615234" xlink:href="#ArialMT-32"/>
       <use x="111.230469" xlink:href="#ArialMT-35"/>
      </g>
     </g>
    </g>
    <g id="xtick_7">
     <g id="text_7">
      <!-- 150 -->
      <g style="fill:#262626;" transform="translate(564.353423 547.315194)scale(0.11 -0.11)">
       <use xlink:href="#ArialMT-31"/>
       <use x="55.615234" xlink:href="#ArialMT-35"/>
       <use x="111.230469" xlink:href="#ArialMT-30"/>
      </g>
     </g>
    </g>
    <g id="xtick_8">
     <g id="text_8">
      <!-- 175 -->
      <g style="fill:#262626;" transform="translate(637.445676 547.315194)scale(0.11 -0.11)">
       <use xlink:href="#ArialMT-31"/>
       <use x="55.615234" xlink:href="#ArialMT-37"/>
       <use x="111.230469" xlink:href="#ArialMT-35"/>
      </g>
     </g>
    </g>
    <g id="xtick_9">
     <g id="text_9">
      <!-- 200 -->
      <g style="fill:#262626;" transform="translate(710.537928 547.315194)scale(0.11 -0.11)">
       <use xlink:href="#ArialMT-32"/>
       <use x="55.615234" xlink:href="#ArialMT-30"/>
       <use x="111.230469" xlink:href="#ArialMT-30"/>
      </g>
     </g>
    </g>
   </g>
   <g id="matplotlib.axis_2">
    <g id="ytick_1">
     <g id="text_10">
      <!-- −25 -->
      <g style="fill:#262626;" transform="translate(77.14125 533.878397)scale(0.11 -0.11)">
       <defs>
        <path d="M 3381 1997 
L 356 1997 
L 356 2522 
L 3381 2522 
L 3381 1997 
z
" id="ArialMT-2212" transform="scale(0.015625)"/>
       </defs>
       <use xlink:href="#ArialMT-2212"/>
       <use x="58.398438" xlink:href="#ArialMT-32"/>
       <use x="114.013672" xlink:href="#ArialMT-35"/>
      </g>
     </g>
    </g>
    <g id="ytick_2">
     <g id="text_11">
      <!-- −20 -->
      <g style="fill:#262626;" transform="translate(77.14125 442.180637)scale(0.11 -0.11)">
       <use xlink:href="#ArialMT-2212"/>
       <use x="58.398438" xlink:href="#ArialMT-32"/>
       <use x="114.013672" xlink:href="#ArialMT-30"/>
      </g>
     </g>
    </g>
    <g id="ytick_3">
     <g id="text_12">
      <!-- −15 -->
      <g style="fill:#262626;" transform="translate(77.14125 350.482877)scale(0.11 -0.11)">
       <use xlink:href="#ArialMT-2212"/>
       <use x="58.398438" xlink:href="#ArialMT-31"/>
       <use x="114.013672" xlink:href="#ArialMT-35"/>
      </g>
     </g>
    </g>
    <g id="ytick_4">
     <g id="text_13">
      <!-- −10 -->
      <g style="fill:#262626;" transform="translate(77.14125 258.785117)scale(0.11 -0.11)">
       <use xlink:href="#ArialMT-2212"/>
       <use x="58.398438" xlink:href="#ArialMT-31"/>
       <use x="114.013672" xlink:href="#ArialMT-30"/>
      </g>
     </g>
    </g>
    <g id="ytick_5">
     <g id="text_14">
      <!-- −5 -->
      <g style="fill:#262626;" transform="translate(83.258281 167.087357)scale(0.11 -0.11)">
       <use xlink:href="#ArialMT-2212"/>
       <use x="58.398438" xlink:href="#ArialMT-35"/>
      </g>
     </g>
    </g>
    <g id="ytick_6">
     <g id="text_15">
      <!-- 0 -->
      <g style="fill:#262626;" transform="translate(89.682969 75.389597)scale(0.11 -0.11)">
       <use xlink:href="#ArialMT-30"/>
      </g>
     </g>
    </g>
   </g>
   <g id="line2d_1">
    <path clip-path="url(#p4c1e2f983d)" d="M 134.975455 354.44124 
L 137.899145 351.417926 
L 140.822835 351.107217 
L 143.746525 351.334446 
L 146.670215 353.657078 
L 149.593905 352.066698 
L 152.517595 352.295065 
L 155.441285 354.136128 
L 158.364975 354.076627 
L 161.288665 352.652822 
L 164.212356 354.436588 
L 167.136046 355.359271 
L 170.059736 362.866696 
L 172.983426 368.815836 
L 175.907116 368.832346 
L 178.830806 384.427444 
L 181.754496 392.86453 
L 184.678186 333.920131 
L 187.601876 301.710621 
L 190.525567 413.101603 
L 193.449257 392.552789 
L 196.372947 383.425269 
L 199.296637 420.365218 
L 202.220327 317.493281 
L 205.144017 325.102567 
L 208.067707 458.670364 
L 210.991397 393.398709 
L 213.915087 420.612911 
L 216.838777 426.060334 
L 219.762468 407.531331 
L 222.686158 402.06215 
L 225.609848 413.421599 
L 228.533538 387.156262 
L 231.457228 390.652225 
L 234.380918 328.216217 
L 237.304608 383.150782 
L 240.228298 421.507698 
L 243.151988 435.9104 
L 246.075678 302.204275 
L 248.999369 344.510109 
L 251.923059 404.183193 
L 254.846749 361.203593 
L 257.770439 351.483775 
L 260.694129 315.527094 
L 263.617819 410.183543 
L 266.541509 320.79075 
L 269.465199 350.62236 
L 272.388889 419.118394 
L 275.312579 422.786319 
L 278.23627 425.362939 
L 281.15996 390.762867 
L 284.08365 345.235995 
L 287.00734 323.222851 
L 289.93103 381.701179 
L 292.85472 375.222548 
L 295.77841 385.416746 
L 298.7021 416.954396 
L 301.62579 356.873516 
L 304.549481 383.497293 
L 307.473171 364.269093 
L 310.396861 371.399243 
L 313.320551 341.689206 
L 316.244241 382.557103 
L 319.167931 340.491738 
L 322.091621 479.987407 
L 325.015311 345.252103 
L 327.939001 314.184845 
L 330.862691 303.232859 
L 333.786382 295.08448 
L 336.710072 371.374267 
L 339.633762 441.212026 
L 342.557452 402.937628 
L 345.481142 378.105978 
L 348.404832 375.377579 
L 351.328522 368.686935 
L 354.252212 410.270888 
L 357.175902 424.410856 
L 360.099592 393.739378 
L 363.023283 357.226901 
L 365.946973 128.429676 
L 368.870663 71.482037 
L 371.794353 230.937481 
L 374.718043 412.866993 
L 377.641733 456.744684 
L 380.565423 433.138626 
L 383.489113 385.88831 
L 386.412803 309.806985 
L 389.336494 305.651878 
L 392.260184 292.441502 
L 395.183874 349.779851 
L 398.107564 372.430731 
L 401.031254 337.860304 
L 403.954944 290.216342 
L 406.878634 250.802438 
L 409.802324 197.782123 
L 412.726014 211.342474 
L 415.649704 312.845534 
L 418.573395 314.522506 
L 421.497085 399.823401 
L 424.420775 460.53168 
L 427.344465 357.890085 
L 430.268155 391.023782 
L 433.191845 369.607851 
L 436.115535 281.352395 
L 439.039225 351.312286 
L 441.962915 425.573204 
L 444.886605 383.379585 
L 447.810296 371.176071 
L 450.733986 376.999633 
L 453.657676 444.879915 
L 456.581366 399.277924 
L 459.505056 437.246073 
L 462.428746 323.843972 
L 465.352436 350.34733 
L 468.276126 416.502281 
L 471.199816 354.890715 
L 474.123506 374.819474 
L 477.047197 415.291836 
L 479.970887 391.293197 
L 482.894577 434.78555 
L 485.818267 409.249475 
L 488.741957 395.372836 
L 491.665647 342.10328 
L 494.589337 318.821783 
L 497.513027 395.570157 
L 500.436717 377.936185 
L 503.360408 289.407518 
L 506.284098 339.92279 
L 509.207788 424.356497 
L 512.131478 430.600518 
L 515.055168 485.007655 
L 517.978858 388.012291 
L 520.902548 402.762868 
L 523.826238 429.103972 
L 526.749928 338.591979 
L 529.673618 242.256546 
L 532.597309 71.456431 
L 535.520999 174.03569 
L 538.444689 314.222973 
L 541.368379 397.906676 
L 544.292069 405.490777 
L 547.215759 378.945461 
L 550.139449 443.680139 
L 553.063139 345.198968 
L 555.986829 379.372041 
L 558.910519 341.196566 
L 561.83421 282.438696 
L 564.7579 267.718412 
L 567.68159 255.071579 
L 570.60528 333.81241 
L 573.52897 351.469591 
L 576.45266 390.69721 
L 579.37635 385.811494 
L 582.30004 342.994359 
L 585.22373 336.284283 
L 588.147421 331.296759 
L 591.071111 304.552214 
L 593.994801 376.55084 
L 596.918491 306.728718 
L 599.842181 248.461022 
L 602.765871 323.082669 
L 605.689561 300.593852 
L 608.613251 332.209612 
L 611.536941 387.645526 
L 614.460631 375.319512 
L 617.384322 299.210501 
L 620.308012 386.658148 
L 623.231702 430.99796 
L 626.155392 453.105583 
L 629.079082 414.717745 
L 632.002772 346.433812 
L 634.926462 338.960737 
L 637.850152 401.173066 
L 640.773842 325.692381 
L 643.697532 270.471926 
L 646.621223 183.320191 
L 649.544913 377.63109 
L 652.468603 471.170823 
L 655.392293 392.195749 
L 658.315983 353.728682 
L 661.239673 432.603608 
L 664.163363 351.522935 
L 667.087053 363.428613 
L 670.010743 357.119478 
L 672.934433 344.096349 
L 675.858124 376.563258 
L 678.781814 366.889806 
L 681.705504 426.008074 
L 684.629194 424.297241 
L 687.552884 329.285326 
L 690.476574 418.521497 
L 693.400264 318.892915 
L 696.323954 360.80811 
L 699.247644 377.043323 
L 702.171335 353.825051 
L 705.095025 352.920698 
L 708.018715 352.505154 
L 710.942405 355.800472 
L 713.866095 356.006854 
L 716.789785 353.422083 
L 719.713475 354.832631 
L 722.637165 355.781758 
L 725.560855 355.336674 
L 728.484545 360.093943 
L 728.484545 360.093943 
" style="fill:none;stroke:#4c72b0;stroke-linecap:round;stroke-width:1.5;"/>
   </g>
   <g id="line2d_2">
    <path clip-path="url(#p4c1e2f983d)" d="M 134.975455 337.453872 
L 137.899145 336.18132 
L 140.822835 337.244097 
L 143.746525 337.733676 
L 146.670215 338.41108 
L 149.593905 338.56814 
L 152.517595 337.903399 
L 155.441285 338.624562 
L 161.288665 337.894916 
L 164.212356 337.1698 
L 167.136046 334.984587 
L 170.059736 340.226608 
L 172.983426 344.528386 
L 175.907116 347.974415 
L 178.830806 364.775463 
L 181.754496 365.990683 
L 184.678186 312.109836 
L 187.601876 264.533193 
L 190.525567 399.77163 
L 193.449257 377.207414 
L 196.372947 371.321273 
L 199.296637 388.267924 
L 202.220327 314.668442 
L 205.144017 335.43142 
L 208.067707 455.085762 
L 210.991397 395.076451 
L 213.915087 383.073301 
L 216.838777 406.596492 
L 219.762468 365.890605 
L 222.686158 377.795216 
L 225.609848 378.800784 
L 228.533538 356.774821 
L 231.457228 350.229273 
L 234.380918 306.413094 
L 237.304608 349.200234 
L 240.228298 388.755684 
L 243.151988 415.700296 
L 246.075678 297.698214 
L 248.999369 362.963188 
L 251.923059 404.303839 
L 254.846749 365.145603 
L 257.770439 349.891629 
L 260.694129 308.634598 
L 263.617819 405.9126 
L 266.541509 322.750902 
L 269.465199 344.584091 
L 272.388889 422.975035 
L 275.312579 419.15187 
L 278.23627 427.924029 
L 281.15996 409.290926 
L 284.08365 331.492122 
L 287.00734 303.429971 
L 289.93103 374.406327 
L 292.85472 378.130254 
L 295.77841 358.895163 
L 298.7021 408.493314 
L 301.62579 351.178401 
L 304.549481 381.299469 
L 307.473171 375.569514 
L 310.396861 367.818034 
L 313.320551 353.828987 
L 316.244241 394.808504 
L 319.167931 379.099932 
L 322.091621 467.700815 
L 325.015311 344.646286 
L 330.862691 293.379278 
L 333.786382 269.044675 
L 336.710072 382.973993 
L 339.633762 453.351737 
L 342.557452 392.43015 
L 345.481142 314.684655 
L 348.404832 381.90784 
L 351.328522 402.437765 
L 354.252212 350.314956 
L 357.175902 332.925739 
L 360.099592 253.889433 
L 363.023283 207.849676 
L 365.946973 87.675678 
L 368.870663 80.301679 
L 371.794353 139.746152 
L 374.718043 292.393562 
L 377.641733 355.475876 
L 380.565423 392.973843 
L 383.489113 311.366548 
L 386.412803 291.042532 
L 389.336494 306.979139 
L 392.260184 261.295049 
L 395.183874 319.447486 
L 398.107564 365.782797 
L 401.031254 344.557961 
L 403.954944 284.569463 
L 406.878634 157.914355 
L 409.802324 150.075941 
L 412.726014 212.392755 
L 415.649704 308.302674 
L 418.573395 318.88835 
L 421.497085 394.824945 
L 424.420775 423.521317 
L 427.344465 308.916047 
L 430.268155 337.691473 
L 433.191845 325.540324 
L 436.115535 265.057839 
L 441.962915 429.787095 
L 444.886605 332.36676 
L 447.810296 328.984831 
L 450.733986 405.869505 
L 453.657676 441.113383 
L 456.581366 395.479699 
L 459.505056 416.47853 
L 462.428746 299.768973 
L 465.352436 349.511905 
L 468.276126 407.417996 
L 471.199816 384.497264 
L 474.123506 365.721337 
L 477.047197 433.334093 
L 479.970887 382.367791 
L 482.894577 445.380268 
L 485.818267 422.222687 
L 488.741957 404.015674 
L 491.665647 357.786895 
L 494.589337 305.074255 
L 497.513027 387.862927 
L 500.436717 387.589104 
L 503.360408 308.655237 
L 506.284098 359.694157 
L 509.207788 423.340575 
L 512.131478 410.621667 
L 515.055168 502.285042 
L 517.978858 409.529034 
L 520.902548 414.865675 
L 523.826238 432.689623 
L 526.749928 340.379802 
L 529.673618 227.028283 
L 532.597309 71.458855 
L 535.520999 172.364043 
L 538.444689 287.795609 
L 541.368379 353.580734 
L 544.292069 396.216306 
L 547.215759 350.558137 
L 550.139449 438.642751 
L 553.063139 384.663418 
L 555.986829 335.922556 
L 558.910519 244.901203 
L 561.83421 194.411659 
L 564.7579 196.284301 
L 567.68159 168.806227 
L 570.60528 353.110219 
L 573.52897 179.792729 
L 576.45266 199.584175 
L 579.37635 208.298565 
L 582.30004 152.752219 
L 585.22373 245.085145 
L 588.147421 278.843723 
L 591.071111 298.018945 
L 593.994801 370.563083 
L 596.918491 299.209731 
L 599.842181 297.930813 
L 602.765871 301.582962 
L 605.689561 279.506505 
L 608.613251 346.844301 
L 611.536941 366.507931 
L 614.460631 356.199611 
L 617.384322 339.097456 
L 620.308012 390.06145 
L 623.231702 436.241275 
L 626.155392 465.957696 
L 629.079082 389.999185 
L 632.002772 359.165331 
L 634.926462 366.155228 
L 637.850152 379.658457 
L 640.773842 320.626397 
L 643.697532 239.898689 
L 646.621223 145.588104 
L 649.544913 370.718499 
L 652.468603 454.268316 
L 655.392293 402.186294 
L 658.315983 332.789545 
L 661.239673 437.679334 
L 664.163363 346.44226 
L 667.087053 385.397227 
L 670.010743 375.16756 
L 672.934433 332.640023 
L 675.858124 363.334762 
L 678.781814 367.165798 
L 681.705504 409.852248 
L 684.629194 411.1818 
L 687.552884 294.253916 
L 690.476574 387.572104 
L 693.400264 335.646512 
L 696.323954 370.390807 
L 699.247644 374.559049 
L 702.171335 327.565154 
L 705.095025 326.940867 
L 708.018715 328.511098 
L 710.942405 332.070515 
L 713.866095 328.122874 
L 716.789785 327.199893 
L 719.713475 327.233841 
L 722.637165 328.550416 
L 725.560855 330.1795 
L 728.484545 329.568489 
L 728.484545 329.568489 
" style="fill:none;stroke:#dd8452;stroke-dasharray:6,2.25;stroke-dashoffset:0;stroke-width:1.5;"/>
   </g>
   <g id="line2d_3">
    <path clip-path="url(#p4c1e2f983d)" d="M 134.975455 332.630229 
L 137.899145 328.872756 
L 140.822835 331.183879 
L 143.746525 331.490233 
L 146.670215 333.21567 
L 149.593905 332.898017 
L 152.517595 333.571048 
L 155.441285 335.67161 
L 158.364975 336.388121 
L 161.288665 339.782713 
L 164.212356 339.993082 
L 167.136046 333.958801 
L 170.059736 330.809506 
L 172.983426 336.550183 
L 175.907116 343.070877 
L 178.830806 351.600294 
L 181.754496 352.810022 
L 184.678186 252.995416 
L 187.601876 205.264179 
L 190.525567 208.567342 
L 193.449257 255.139493 
L 196.372947 310.092596 
L 199.296637 324.429186 
L 202.220327 313.414237 
L 205.144017 251.186237 
L 208.067707 220.974501 
L 210.991397 307.960553 
L 213.915087 309.226056 
L 216.838777 235.359992 
L 219.762468 236.67996 
L 222.686158 309.690065 
L 225.609848 296.280006 
L 228.533538 317.900167 
L 231.457228 320.597661 
L 234.380918 285.363298 
L 237.304608 337.083732 
L 240.228298 380.898914 
L 243.151988 409.37138 
L 246.075678 261.085275 
L 248.999369 347.941359 
L 251.923059 381.794645 
L 254.846749 387.780199 
L 257.770439 366.784972 
L 260.694129 330.004321 
L 263.617819 425.616509 
L 266.541509 355.082894 
L 269.465199 379.889919 
L 272.388889 376.751485 
L 275.312579 326.434375 
L 278.23627 309.810448 
L 281.15996 238.347033 
L 284.08365 230.235679 
L 287.00734 144.00692 
L 289.93103 245.793838 
L 292.85472 262.70481 
L 295.77841 328.813307 
L 298.7021 410.712615 
L 304.549481 382.989874 
L 307.473171 374.962507 
L 310.396861 357.782994 
L 313.320551 344.185128 
L 316.244241 401.010339 
L 319.167931 404.981784 
L 322.091621 490.856297 
L 325.015311 349.568065 
L 327.939001 315.375719 
L 330.862691 348.593245 
L 333.786382 279.586504 
L 336.710072 417.473708 
L 339.633762 489.252468 
L 342.557452 457.61397 
L 345.481142 385.146666 
L 348.404832 413.77731 
L 351.328522 402.189267 
L 354.252212 402.572892 
L 357.175902 396.850982 
L 360.099592 218.183138 
L 363.023283 247.168461 
L 365.946973 209.856282 
L 368.870663 180.532694 
L 371.794353 126.085404 
L 374.718043 195.068879 
L 377.641733 245.486557 
L 380.565423 238.112195 
L 383.489113 263.767622 
L 386.412803 261.931859 
L 389.336494 304.746091 
L 392.260184 293.971803 
L 395.183874 290.893693 
L 398.107564 373.378512 
L 401.031254 336.591495 
L 403.954944 320.319745 
L 406.878634 242.952209 
L 409.802324 307.966342 
L 412.726014 269.385782 
L 415.649704 373.977403 
L 418.573395 388.04951 
L 421.497085 431.177407 
L 424.420775 448.145011 
L 427.344465 337.616686 
L 430.268155 323.69564 
L 433.191845 236.03897 
L 436.115535 212.968944 
L 439.039225 351.57196 
L 441.962915 307.901489 
L 444.886605 288.528036 
L 447.810296 278.425031 
L 450.733986 313.67022 
L 453.657676 338.070428 
L 456.581366 371.242568 
L 459.505056 439.691414 
L 462.428746 319.292927 
L 465.352436 360.118586 
L 468.276126 385.987163 
L 471.199816 345.348438 
L 474.123506 314.766386 
L 477.047197 380.195643 
L 479.970887 369.838684 
L 482.894577 398.50053 
L 485.818267 378.108216 
L 488.741957 361.862632 
L 491.665647 319.210445 
L 494.589337 270.525585 
L 497.513027 309.699545 
L 500.436717 259.771621 
L 503.360408 218.562565 
L 506.284098 221.830844 
L 509.207788 288.693421 
L 512.131478 315.857585 
L 515.055168 288.421837 
L 517.978858 288.058098 
L 520.902548 225.625413 
L 523.826238 270.523889 
L 526.749928 336.045301 
L 529.673618 148.170147 
L 532.597309 72.603115 
L 535.520999 249.267099 
L 538.444689 325.597131 
L 541.368379 342.995093 
L 544.292069 382.082005 
L 547.215759 302.239814 
L 550.139449 301.810034 
L 553.063139 226.873986 
L 555.986829 155.974438 
L 558.910519 252.371234 
L 561.83421 224.74322 
L 564.7579 212.404447 
L 567.68159 265.901187 
L 570.60528 348.248343 
L 573.52897 322.078326 
L 576.45266 385.623617 
L 579.37635 225.371634 
L 582.30004 71.496924 
L 585.22373 145.103904 
L 588.147421 211.488384 
L 591.071111 168.088081 
L 593.994801 263.490301 
L 596.918491 218.092872 
L 599.842181 181.550138 
L 602.765871 204.049467 
L 605.689561 277.699914 
L 608.613251 322.551849 
L 611.536941 341.839952 
L 614.460631 342.186235 
L 617.384322 304.502403 
L 623.231702 420.709771 
L 626.155392 436.453987 
L 629.079082 393.381779 
L 632.002772 367.518186 
L 634.926462 346.610216 
L 637.850152 352.369747 
L 640.773842 311.622408 
L 643.697532 282.334089 
L 646.621223 172.374835 
L 649.544913 287.549298 
L 652.468603 299.076475 
L 655.392293 330.058697 
L 658.315983 248.483531 
L 661.239673 225.048734 
L 664.163363 107.749176 
L 667.087053 144.534557 
L 670.010743 171.083743 
L 672.934433 184.496802 
L 675.858124 376.265964 
L 678.781814 362.432053 
L 681.705504 359.185007 
L 684.629194 317.801279 
L 687.552884 306.736955 
L 690.476574 278.332019 
L 693.400264 283.764208 
L 696.323954 386.888666 
L 699.247644 387.713248 
L 702.171335 349.453121 
L 705.095025 329.371552 
L 708.018715 329.127602 
L 710.942405 328.600664 
L 713.866095 322.20261 
L 716.789785 325.110053 
L 719.713475 325.370006 
L 722.637165 326.731565 
L 725.560855 328.354511 
L 728.484545 326.370659 
L 728.484545 326.370659 
" style="fill:none;stroke:#55a868;stroke-dasharray:1.5,1.5;stroke-dashoffset:0;stroke-width:1.5;"/>
   </g>
   <g id="line2d_4">
    <path clip-path="url(#p4c1e2f983d)" d="M 134.975455 338.526374 
L 137.899145 337.177985 
L 140.822835 338.314081 
L 143.746525 338.514428 
L 146.670215 339.628504 
L 149.593905 339.495178 
L 152.517595 338.934397 
L 155.441285 339.79604 
L 158.364975 339.418642 
L 161.288665 339.201206 
L 164.212356 338.452339 
L 167.136046 336.142195 
L 170.059736 341.157843 
L 172.983426 345.324144 
L 175.907116 348.566765 
L 178.830806 365.530592 
L 181.754496 367.741358 
L 184.678186 314.030653 
L 187.601876 265.192459 
L 190.525567 400.72242 
L 193.449257 379.872499 
L 196.372947 372.219102 
L 199.296637 391.417271 
L 202.220327 317.021157 
L 205.144017 334.278465 
L 208.067707 460.856014 
L 210.991397 391.034066 
L 213.915087 397.596439 
L 216.838777 401.834816 
L 219.762468 366.987156 
L 222.686158 378.092266 
L 225.609848 378.425659 
L 228.533538 357.398408 
L 231.457228 353.480219 
L 234.380918 307.943413 
L 237.304608 354.54618 
L 240.228298 395.391795 
L 243.151988 419.889352 
L 246.075678 298.428437 
L 248.999369 361.039887 
L 251.923059 403.964708 
L 254.846749 365.247814 
L 257.770439 347.370627 
L 260.694129 308.843673 
L 263.617819 408.2565 
L 266.541509 321.077515 
L 269.465199 351.6801 
L 272.388889 427.629533 
L 275.312579 425.958158 
L 278.23627 433.245524 
L 281.15996 407.212629 
L 284.08365 333.76865 
L 287.00734 314.52394 
L 289.93103 379.623547 
L 292.85472 372.187655 
L 295.77841 359.255509 
L 298.7021 404.627053 
L 301.62579 350.306002 
L 304.549481 382.458284 
L 307.473171 373.783194 
L 310.396861 367.177411 
L 313.320551 351.215112 
L 316.244241 398.046316 
L 319.167931 379.849762 
L 322.091621 481.492733 
L 325.015311 340.78389 
L 327.939001 314.798935 
L 330.862691 333.593855 
L 333.786382 290.029776 
L 336.710072 397.378444 
L 339.633762 475.548595 
L 342.557452 418.623498 
L 345.481142 323.645129 
L 348.404832 327.236692 
L 351.328522 405.900042 
L 354.252212 362.499092 
L 357.175902 392.509239 
L 360.099592 287.213438 
L 363.023283 370.352784 
L 365.946973 101.979916 
L 368.870663 74.213634 
L 371.794353 173.000556 
L 374.718043 320.662881 
L 377.641733 355.139702 
L 380.565423 399.291006 
L 383.489113 313.984987 
L 386.412803 297.918133 
L 389.336494 308.028361 
L 392.260184 258.548566 
L 395.183874 320.300594 
L 398.107564 369.640942 
L 401.031254 348.804034 
L 403.954944 277.45098 
L 406.878634 145.668654 
L 409.802324 148.486506 
L 412.726014 209.035522 
L 415.649704 308.693277 
L 418.573395 316.114407 
L 421.497085 395.815157 
L 424.420775 428.240493 
L 427.344465 313.177178 
L 430.268155 332.586888 
L 433.191845 315.729978 
L 436.115535 258.900499 
L 439.039225 341.565097 
L 441.962915 427.719467 
L 444.886605 329.355793 
L 447.810296 325.476992 
L 450.733986 401.529896 
L 453.657676 444.338496 
L 456.581366 397.140931 
L 459.505056 416.544467 
L 462.428746 298.630394 
L 465.352436 355.530235 
L 468.276126 407.887846 
L 471.199816 391.281164 
L 474.123506 365.960495 
L 477.047197 432.28564 
L 479.970887 378.915413 
L 482.894577 442.337225 
L 485.818267 421.574544 
L 488.741957 403.592802 
L 491.665647 359.030553 
L 494.589337 309.147124 
L 497.513027 390.636589 
L 500.436717 387.70118 
L 503.360408 307.345623 
L 506.284098 359.438681 
L 509.207788 428.999487 
L 512.131478 407.275488 
L 515.055168 501.267616 
L 517.978858 386.858933 
L 520.902548 405.880034 
L 523.826238 433.734229 
L 526.749928 338.554952 
L 529.673618 219.841851 
L 532.597309 71.459666 
L 538.444689 282.754513 
L 541.368379 349.019825 
L 544.292069 399.647801 
L 547.215759 346.709261 
L 550.139449 448.759084 
L 553.063139 366.567991 
L 555.986829 354.314298 
L 558.910519 320.563835 
L 561.83421 235.196304 
L 564.7579 251.027096 
L 567.68159 205.993887 
L 570.60528 315.214986 
L 573.52897 254.306778 
L 576.45266 237.322751 
L 579.37635 203.224955 
L 582.30004 71.563655 
L 585.22373 260.88003 
L 588.147421 291.912728 
L 591.071111 297.595373 
L 593.994801 397.572933 
L 596.918491 320.133128 
L 599.842181 301.803108 
L 602.765871 328.412892 
L 605.689561 289.909883 
L 608.613251 353.771655 
L 611.536941 369.537507 
L 614.460631 370.648504 
L 617.384322 341.720215 
L 620.308012 391.879531 
L 623.231702 438.741429 
L 626.155392 464.901547 
L 629.079082 390.577823 
L 632.002772 358.974061 
L 634.926462 368.980696 
L 637.850152 380.406467 
L 640.773842 323.520146 
L 643.697532 238.757137 
L 646.621223 149.514898 
L 649.544913 372.292315 
L 652.468603 458.003682 
L 655.392293 404.312374 
L 658.315983 332.935183 
L 661.239673 437.880469 
L 664.163363 345.537207 
L 667.087053 384.125637 
L 670.010743 375.0275 
L 672.934433 331.587337 
L 675.858124 363.531437 
L 678.781814 368.746016 
L 681.705504 409.18679 
L 684.629194 411.372686 
L 687.552884 292.529809 
L 690.476574 387.484584 
L 693.400264 333.821347 
L 696.323954 368.709042 
L 699.247644 373.872393 
L 702.171335 327.330071 
L 705.095025 327.509606 
L 708.018715 330.340793 
L 710.942405 334.639772 
L 713.866095 331.52621 
L 716.789785 329.982686 
L 719.713475 329.77069 
L 722.637165 331.674105 
L 725.560855 332.978768 
L 728.484545 333.327728 
L 728.484545 333.327728 
" style="fill:none;stroke:#c44e52;stroke-dasharray:4.5,1.875,2.25,1.875;stroke-dashoffset:0;stroke-width:1.5;"/>
   </g>
   <g id="line2d_5">
    <path clip-path="url(#p4c1e2f983d)" d="M 134.975455 337.704381 
L 137.899145 336.124985 
L 140.822835 337.078328 
L 143.746525 337.683568 
L 146.670215 338.424285 
L 152.517595 338.430197 
L 155.441285 339.636846 
L 158.364975 339.367483 
L 161.288665 339.724104 
L 164.212356 339.191972 
L 167.136046 337.568798 
L 170.059736 344.088758 
L 172.983426 348.040265 
L 175.907116 350.684012 
L 178.830806 366.845137 
L 181.754496 375.300133 
L 184.678186 314.761069 
L 187.601876 285.983229 
L 190.525567 408.041968 
L 193.449257 388.233644 
L 196.372947 383.800429 
L 199.296637 411.677046 
L 202.220327 324.721933 
L 205.144017 341.243614 
L 208.067707 471.78563 
L 210.991397 404.094694 
L 213.915087 391.093287 
L 216.838777 415.010842 
L 219.762468 373.172935 
L 222.686158 385.503636 
L 225.609848 396.649603 
L 228.533538 372.025348 
L 231.457228 362.671648 
L 234.380918 313.057652 
L 237.304608 359.895257 
L 240.228298 394.333442 
L 243.151988 421.457152 
L 246.075678 300.899769 
L 251.923059 414.117175 
L 254.846749 377.24033 
L 257.770439 357.133365 
L 260.694129 314.001795 
L 263.617819 407.148371 
L 266.541509 320.765127 
L 269.465199 353.748113 
L 272.388889 428.75963 
L 275.312579 423.658998 
L 278.23627 436.581035 
L 281.15996 418.509079 
L 284.08365 345.096057 
L 287.00734 315.885166 
L 289.93103 386.33238 
L 292.85472 385.689519 
L 295.77841 369.302616 
L 298.7021 404.793313 
L 301.62579 348.289304 
L 304.549481 382.653822 
L 307.473171 367.583108 
L 310.396861 368.529735 
L 313.320551 352.02397 
L 316.244241 392.548102 
L 319.167931 376.244486 
L 322.091621 473.498282 
L 325.015311 347.081168 
L 327.939001 323.367161 
L 330.862691 142.045386 
L 333.786382 114.795146 
L 336.710072 307.594838 
L 339.633762 399.529324 
L 342.557452 400.581136 
L 345.481142 377.687198 
L 348.404832 361.893222 
L 351.328522 369.273723 
L 354.252212 475.19953 
L 357.175902 474.585423 
L 360.099592 398.919729 
L 363.023283 361.184512 
L 365.946973 108.096793 
L 368.870663 71.460061 
L 371.794353 206.642336 
L 374.718043 384.212387 
L 377.641733 430.827223 
L 380.565423 423.883709 
L 383.489113 374.292957 
L 386.412803 298.581982 
L 389.336494 303.576135 
L 392.260184 288.280675 
L 395.183874 360.848949 
L 398.107564 367.977472 
L 401.031254 367.374663 
L 403.954944 288.72471 
L 406.878634 185.035729 
L 409.802324 208.115156 
L 412.726014 225.512935 
L 415.649704 339.823447 
L 418.573395 321.638733 
L 421.497085 402.187204 
L 424.420775 446.290761 
L 427.344465 335.520742 
L 430.268155 337.319304 
L 433.191845 322.032415 
L 436.115535 254.679454 
L 439.039225 338.843187 
L 441.962915 427.522005 
L 444.886605 339.30807 
L 447.810296 340.001792 
L 450.733986 403.011785 
L 453.657676 424.004284 
L 456.581366 386.259447 
L 459.505056 395.603423 
L 462.428746 284.592235 
L 468.276126 410.532888 
L 471.199816 395.118951 
L 474.123506 368.346545 
L 477.047197 426.577232 
L 479.970887 380.095216 
L 482.894577 441.21353 
L 485.818267 417.42764 
L 488.741957 357.136513 
L 491.665647 440.09064 
L 494.589337 318.563421 
L 497.513027 363.731679 
L 500.436717 313.677146 
L 503.360408 236.654879 
L 506.284098 294.288651 
L 509.207788 246.499313 
L 512.131478 346.01059 
L 515.055168 322.778974 
L 517.978858 391.10602 
L 520.902548 369.853235 
L 523.826238 282.604694 
L 526.749928 307.94413 
L 529.673618 296.340993 
L 532.597309 272.250707 
L 535.520999 356.988076 
L 538.444689 297.863004 
L 541.368379 223.994037 
L 544.292069 197.276314 
L 547.215759 184.05372 
L 550.139449 173.685384 
L 553.063139 143.322236 
L 555.986829 166.470076 
L 558.910519 160.788104 
L 561.83421 125.635279 
L 564.7579 101.417922 
L 567.68159 84.138846 
L 570.60528 206.334976 
L 573.52897 277.083481 
L 576.45266 292.361065 
L 579.37635 262.042937 
L 582.30004 121.203257 
L 585.22373 279.91612 
L 588.147421 298.034651 
L 591.071111 280.470097 
L 593.994801 371.947378 
L 596.918491 323.109726 
L 599.842181 277.054133 
L 602.765871 340.530443 
L 605.689561 294.11746 
L 608.613251 349.895635 
L 611.536941 369.964541 
L 614.460631 372.681432 
L 617.384322 334.338788 
L 620.308012 398.010112 
L 623.231702 430.662012 
L 626.155392 450.876628 
L 629.079082 392.881216 
L 632.002772 357.534147 
L 634.926462 347.34301 
L 637.850152 373.203052 
L 640.773842 324.716529 
L 643.697532 237.310997 
L 646.621223 143.78966 
L 649.544913 358.668913 
L 652.468603 447.079593 
L 655.392293 387.694428 
L 658.315983 323.947635 
L 661.239673 422.319267 
L 664.163363 340.92367 
L 667.087053 375.848374 
L 670.010743 368.426474 
L 672.934433 332.028434 
L 675.858124 356.341279 
L 678.781814 359.312526 
L 681.705504 413.4386 
L 684.629194 406.168198 
L 687.552884 287.898695 
L 690.476574 365.69993 
L 693.400264 317.113678 
L 696.323954 353.624284 
L 699.247644 367.962711 
L 702.171335 321.927265 
L 705.095025 324.372554 
L 708.018715 326.645584 
L 710.942405 329.439483 
L 713.866095 326.30077 
L 716.789785 326.253179 
L 719.713475 326.802504 
L 722.637165 324.808229 
L 725.560855 327.024557 
L 728.484545 325.18965 
L 728.484545 325.18965 
" style="fill:none;stroke:#8172b3;stroke-dasharray:7.5,1.5,1.5,1.5;stroke-dashoffset:0;stroke-width:1.5;"/>
   </g>
   <g id="line2d_6"/>
   <g id="line2d_7"/>
   <g id="line2d_8"/>
   <g id="line2d_9"/>
   <g id="line2d_10"/>
   <g id="patch_3">
    <path d="M 105.3 529.9416 
L 105.3 71.4528 
" style="fill:none;stroke:#262626;stroke-linecap:square;stroke-linejoin:miter;stroke-width:1.25;"/>
   </g>
   <g id="patch_4">
    <path d="M 758.16 529.9416 
L 758.16 71.4528 
" style="fill:none;stroke:#262626;stroke-linecap:square;stroke-linejoin:miter;stroke-width:1.25;"/>
   </g>
   <g id="patch_5">
    <path d="M 105.3 529.9416 
L 758.16 529.9416 
" style="fill:none;stroke:#262626;stroke-linecap:square;stroke-linejoin:miter;stroke-width:1.25;"/>
   </g>
   <g id="patch_6">
    <path d="M 105.3 71.4528 
L 758.16 71.4528 
" style="fill:none;stroke:#262626;stroke-linecap:square;stroke-linejoin:miter;stroke-width:1.25;"/>
   </g>
   <g id="text_16">
    <!-- Activations for &gt;D&lt; -->
    <g style="fill:#262626;" transform="translate(381.04125 65.4528)scale(0.12 -0.12)">
     <defs>
      <path d="M -9 0 
L 1750 4581 
L 2403 4581 
L 4278 0 
L 3588 0 
L 3053 1388 
L 1138 1388 
L 634 0 
L -9 0 
z
M 1313 1881 
L 2866 1881 
L 2388 3150 
Q 2169 3728 2063 4100 
Q 1975 3659 1816 3225 
L 1313 1881 
z
" id="ArialMT-41" transform="scale(0.015625)"/>
      <path d="M 2588 1216 
L 3141 1144 
Q 3050 572 2676 248 
Q 2303 -75 1759 -75 
Q 1078 -75 664 370 
Q 250 816 250 1647 
Q 250 2184 428 2587 
Q 606 2991 970 3192 
Q 1334 3394 1763 3394 
Q 2303 3394 2647 3120 
Q 2991 2847 3088 2344 
L 2541 2259 
Q 2463 2594 2264 2762 
Q 2066 2931 1784 2931 
Q 1359 2931 1093 2626 
Q 828 2322 828 1663 
Q 828 994 1084 691 
Q 1341 388 1753 388 
Q 2084 388 2306 591 
Q 2528 794 2588 1216 
z
" id="ArialMT-63" transform="scale(0.015625)"/>
      <path d="M 1650 503 
L 1731 6 
Q 1494 -44 1306 -44 
Q 1000 -44 831 53 
Q 663 150 594 308 
Q 525 466 525 972 
L 525 2881 
L 113 2881 
L 113 3319 
L 525 3319 
L 525 4141 
L 1084 4478 
L 1084 3319 
L 1650 3319 
L 1650 2881 
L 1084 2881 
L 1084 941 
Q 1084 700 1114 631 
Q 1144 563 1211 522 
Q 1278 481 1403 481 
Q 1497 481 1650 503 
z
" id="ArialMT-74" transform="scale(0.015625)"/>
      <path d="M 425 3934 
L 425 4581 
L 988 4581 
L 988 3934 
L 425 3934 
z
M 425 0 
L 425 3319 
L 988 3319 
L 988 0 
L 425 0 
z
" id="ArialMT-69" transform="scale(0.015625)"/>
      <path d="M 1344 0 
L 81 3319 
L 675 3319 
L 1388 1331 
Q 1503 1009 1600 663 
Q 1675 925 1809 1294 
L 2547 3319 
L 3125 3319 
L 1869 0 
L 1344 0 
z
" id="ArialMT-76" transform="scale(0.015625)"/>
      <path d="M 2588 409 
Q 2275 144 1986 34 
Q 1697 -75 1366 -75 
Q 819 -75 525 192 
Q 231 459 231 875 
Q 231 1119 342 1320 
Q 453 1522 633 1644 
Q 813 1766 1038 1828 
Q 1203 1872 1538 1913 
Q 2219 1994 2541 2106 
Q 2544 2222 2544 2253 
Q 2544 2597 2384 2738 
Q 2169 2928 1744 2928 
Q 1347 2928 1158 2789 
Q 969 2650 878 2297 
L 328 2372 
Q 403 2725 575 2942 
Q 747 3159 1072 3276 
Q 1397 3394 1825 3394 
Q 2250 3394 2515 3294 
Q 2781 3194 2906 3042 
Q 3031 2891 3081 2659 
Q 3109 2516 3109 2141 
L 3109 1391 
Q 3109 606 3145 398 
Q 3181 191 3288 0 
L 2700 0 
Q 2613 175 2588 409 
z
M 2541 1666 
Q 2234 1541 1622 1453 
Q 1275 1403 1131 1340 
Q 988 1278 909 1158 
Q 831 1038 831 891 
Q 831 666 1001 516 
Q 1172 366 1500 366 
Q 1825 366 2078 508 
Q 2331 650 2450 897 
Q 2541 1088 2541 1459 
L 2541 1666 
z
" id="ArialMT-61" transform="scale(0.015625)"/>
      <path d="M 213 1659 
Q 213 2581 725 3025 
Q 1153 3394 1769 3394 
Q 2453 3394 2887 2945 
Q 3322 2497 3322 1706 
Q 3322 1066 3130 698 
Q 2938 331 2570 128 
Q 2203 -75 1769 -75 
Q 1072 -75 642 372 
Q 213 819 213 1659 
z
M 791 1659 
Q 791 1022 1069 705 
Q 1347 388 1769 388 
Q 2188 388 2466 706 
Q 2744 1025 2744 1678 
Q 2744 2294 2464 2611 
Q 2184 2928 1769 2928 
Q 1347 2928 1069 2612 
Q 791 2297 791 1659 
z
" id="ArialMT-6f" transform="scale(0.015625)"/>
      <path d="M 422 0 
L 422 3319 
L 928 3319 
L 928 2847 
Q 1294 3394 1984 3394 
Q 2284 3394 2536 3286 
Q 2788 3178 2913 3003 
Q 3038 2828 3088 2588 
Q 3119 2431 3119 2041 
L 3119 0 
L 2556 0 
L 2556 2019 
Q 2556 2363 2490 2533 
Q 2425 2703 2258 2804 
Q 2091 2906 1866 2906 
Q 1506 2906 1245 2678 
Q 984 2450 984 1813 
L 984 0 
L 422 0 
z
" id="ArialMT-6e" transform="scale(0.015625)"/>
      <path d="M 197 991 
L 753 1078 
Q 800 744 1014 566 
Q 1228 388 1613 388 
Q 2000 388 2187 545 
Q 2375 703 2375 916 
Q 2375 1106 2209 1216 
Q 2094 1291 1634 1406 
Q 1016 1563 777 1677 
Q 538 1791 414 1992 
Q 291 2194 291 2438 
Q 291 2659 392 2848 
Q 494 3038 669 3163 
Q 800 3259 1026 3326 
Q 1253 3394 1513 3394 
Q 1903 3394 2198 3281 
Q 2494 3169 2634 2976 
Q 2775 2784 2828 2463 
L 2278 2388 
Q 2241 2644 2061 2787 
Q 1881 2931 1553 2931 
Q 1166 2931 1000 2803 
Q 834 2675 834 2503 
Q 834 2394 903 2306 
Q 972 2216 1119 2156 
Q 1203 2125 1616 2013 
Q 2213 1853 2448 1751 
Q 2684 1650 2818 1456 
Q 2953 1263 2953 975 
Q 2953 694 2789 445 
Q 2625 197 2315 61 
Q 2006 -75 1616 -75 
Q 969 -75 630 194 
Q 291 463 197 991 
z
" id="ArialMT-73" transform="scale(0.015625)"/>
      <path id="ArialMT-20" transform="scale(0.015625)"/>
      <path d="M 556 0 
L 556 2881 
L 59 2881 
L 59 3319 
L 556 3319 
L 556 3672 
Q 556 4006 616 4169 
Q 697 4388 901 4523 
Q 1106 4659 1475 4659 
Q 1713 4659 2000 4603 
L 1916 4113 
Q 1741 4144 1584 4144 
Q 1328 4144 1222 4034 
Q 1116 3925 1116 3625 
L 1116 3319 
L 1763 3319 
L 1763 2881 
L 1116 2881 
L 1116 0 
L 556 0 
z
" id="ArialMT-66" transform="scale(0.015625)"/>
      <path d="M 416 0 
L 416 3319 
L 922 3319 
L 922 2816 
Q 1116 3169 1280 3281 
Q 1444 3394 1641 3394 
Q 1925 3394 2219 3213 
L 2025 2691 
Q 1819 2813 1613 2813 
Q 1428 2813 1281 2702 
Q 1134 2591 1072 2394 
Q 978 2094 978 1738 
L 978 0 
L 416 0 
z
" id="ArialMT-72" transform="scale(0.015625)"/>
      <path d="M 3384 2003 
L 350 706 
L 350 1266 
L 2753 2263 
L 350 3250 
L 350 3809 
L 3384 2528 
L 3384 2003 
z
" id="ArialMT-3e" transform="scale(0.015625)"/>
      <path d="M 494 0 
L 494 4581 
L 2072 4581 
Q 2606 4581 2888 4516 
Q 3281 4425 3559 4188 
Q 3922 3881 4101 3404 
Q 4281 2928 4281 2316 
Q 4281 1794 4159 1391 
Q 4038 988 3847 723 
Q 3656 459 3429 307 
Q 3203 156 2883 78 
Q 2563 0 2147 0 
L 494 0 
z
M 1100 541 
L 2078 541 
Q 2531 541 2789 625 
Q 3047 709 3200 863 
Q 3416 1078 3536 1442 
Q 3656 1806 3656 2325 
Q 3656 3044 3420 3430 
Q 3184 3816 2847 3947 
Q 2603 4041 2063 4041 
L 1100 4041 
L 1100 541 
z
" id="ArialMT-44" transform="scale(0.015625)"/>
      <path d="M 350 2003 
L 350 2528 
L 3384 3809 
L 3384 3250 
L 978 2263 
L 3384 1266 
L 3384 706 
L 350 2003 
z
" id="ArialMT-3c" transform="scale(0.015625)"/>
     </defs>
     <use xlink:href="#ArialMT-41"/>
     <use x="66.699219" xlink:href="#ArialMT-63"/>
     <use x="116.699219" xlink:href="#ArialMT-74"/>
     <use x="144.482422" xlink:href="#ArialMT-69"/>
     <use x="166.699219" xlink:href="#ArialMT-76"/>
     <use x="216.699219" xlink:href="#ArialMT-61"/>
     <use x="272.314453" xlink:href="#ArialMT-74"/>
     <use x="300.097656" xlink:href="#ArialMT-69"/>
     <use x="322.314453" xlink:href="#ArialMT-6f"/>
     <use x="377.929688" xlink:href="#ArialMT-6e"/>
     <use x="433.544922" xlink:href="#ArialMT-73"/>
     <use x="483.544922" xlink:href="#ArialMT-20"/>
     <use x="511.328125" xlink:href="#ArialMT-66"/>
     <use x="539.111328" xlink:href="#ArialMT-6f"/>
     <use x="594.726562" xlink:href="#ArialMT-72"/>
     <use x="628.027344" xlink:href="#ArialMT-20"/>
     <use x="655.810547" xlink:href="#ArialMT-3e"/>
     <use x="714.208984" xlink:href="#ArialMT-44"/>
     <use x="786.425781" xlink:href="#ArialMT-3c"/>
    </g>
   </g>
   <g id="legend_1">
    <g id="patch_7">
     <path d="M 113 158.514363 
L 223.415938 158.514363 
Q 225.615938 158.514363 225.615938 156.314363 
L 225.615938 79.1528 
Q 225.615938 76.9528 223.415938 76.9528 
L 113 76.9528 
Q 110.8 76.9528 110.8 79.1528 
L 110.8 156.314363 
Q 110.8 158.514363 113 158.514363 
z
" style="fill:#ffffff;opacity:0.8;stroke:#cccccc;stroke-linejoin:miter;"/>
    </g>
    <g id="line2d_11">
     <path d="M 115.2 85.376394 
L 137.2 85.376394 
" style="fill:none;stroke:#4c72b0;stroke-linecap:round;stroke-width:1.5;"/>
    </g>
    <g id="line2d_12"/>
    <g id="text_17">
     <!-- regular -->
     <g style="fill:#262626;" transform="translate(146 89.226394)scale(0.11 -0.11)">
      <defs>
       <path d="M 2694 1069 
L 3275 997 
Q 3138 488 2766 206 
Q 2394 -75 1816 -75 
Q 1088 -75 661 373 
Q 234 822 234 1631 
Q 234 2469 665 2931 
Q 1097 3394 1784 3394 
Q 2450 3394 2872 2941 
Q 3294 2488 3294 1666 
Q 3294 1616 3291 1516 
L 816 1516 
Q 847 969 1125 678 
Q 1403 388 1819 388 
Q 2128 388 2347 550 
Q 2566 713 2694 1069 
z
M 847 1978 
L 2700 1978 
Q 2663 2397 2488 2606 
Q 2219 2931 1791 2931 
Q 1403 2931 1139 2672 
Q 875 2413 847 1978 
z
" id="ArialMT-65" transform="scale(0.015625)"/>
       <path d="M 319 -275 
L 866 -356 
Q 900 -609 1056 -725 
Q 1266 -881 1628 -881 
Q 2019 -881 2231 -725 
Q 2444 -569 2519 -288 
Q 2563 -116 2559 434 
Q 2191 0 1641 0 
Q 956 0 581 494 
Q 206 988 206 1678 
Q 206 2153 378 2554 
Q 550 2956 876 3175 
Q 1203 3394 1644 3394 
Q 2231 3394 2613 2919 
L 2613 3319 
L 3131 3319 
L 3131 450 
Q 3131 -325 2973 -648 
Q 2816 -972 2473 -1159 
Q 2131 -1347 1631 -1347 
Q 1038 -1347 672 -1080 
Q 306 -813 319 -275 
z
M 784 1719 
Q 784 1066 1043 766 
Q 1303 466 1694 466 
Q 2081 466 2343 764 
Q 2606 1063 2606 1700 
Q 2606 2309 2336 2618 
Q 2066 2928 1684 2928 
Q 1309 2928 1046 2623 
Q 784 2319 784 1719 
z
" id="ArialMT-67" transform="scale(0.015625)"/>
       <path d="M 2597 0 
L 2597 488 
Q 2209 -75 1544 -75 
Q 1250 -75 995 37 
Q 741 150 617 320 
Q 494 491 444 738 
Q 409 903 409 1263 
L 409 3319 
L 972 3319 
L 972 1478 
Q 972 1038 1006 884 
Q 1059 663 1231 536 
Q 1403 409 1656 409 
Q 1909 409 2131 539 
Q 2353 669 2445 892 
Q 2538 1116 2538 1541 
L 2538 3319 
L 3100 3319 
L 3100 0 
L 2597 0 
z
" id="ArialMT-75" transform="scale(0.015625)"/>
       <path d="M 409 0 
L 409 4581 
L 972 4581 
L 972 0 
L 409 0 
z
" id="ArialMT-6c" transform="scale(0.015625)"/>
      </defs>
      <use xlink:href="#ArialMT-72"/>
      <use x="33.300781" xlink:href="#ArialMT-65"/>
      <use x="88.916016" xlink:href="#ArialMT-67"/>
      <use x="144.53125" xlink:href="#ArialMT-75"/>
      <use x="200.146484" xlink:href="#ArialMT-6c"/>
      <use x="222.363281" xlink:href="#ArialMT-61"/>
      <use x="277.978516" xlink:href="#ArialMT-72"/>
     </g>
    </g>
    <g id="line2d_13">
     <path d="M 115.2 101.0978 
L 137.2 101.0978 
" style="fill:none;stroke:#dd8452;stroke-dasharray:6,2.25;stroke-dashoffset:0;stroke-width:1.5;"/>
    </g>
    <g id="line2d_14"/>
    <g id="text_18">
     <!-- splitted_3s -->
     <g style="fill:#262626;" transform="translate(146 104.9478)scale(0.11 -0.11)">
      <defs>
       <path d="M 422 -1272 
L 422 3319 
L 934 3319 
L 934 2888 
Q 1116 3141 1344 3267 
Q 1572 3394 1897 3394 
Q 2322 3394 2647 3175 
Q 2972 2956 3137 2557 
Q 3303 2159 3303 1684 
Q 3303 1175 3120 767 
Q 2938 359 2589 142 
Q 2241 -75 1856 -75 
Q 1575 -75 1351 44 
Q 1128 163 984 344 
L 984 -1272 
L 422 -1272 
z
M 931 1641 
Q 931 1000 1190 694 
Q 1450 388 1819 388 
Q 2194 388 2461 705 
Q 2728 1022 2728 1688 
Q 2728 2322 2467 2637 
Q 2206 2953 1844 2953 
Q 1484 2953 1207 2617 
Q 931 2281 931 1641 
z
" id="ArialMT-70" transform="scale(0.015625)"/>
       <path d="M 2575 0 
L 2575 419 
Q 2259 -75 1647 -75 
Q 1250 -75 917 144 
Q 584 363 401 755 
Q 219 1147 219 1656 
Q 219 2153 384 2558 
Q 550 2963 881 3178 
Q 1213 3394 1622 3394 
Q 1922 3394 2156 3267 
Q 2391 3141 2538 2938 
L 2538 4581 
L 3097 4581 
L 3097 0 
L 2575 0 
z
M 797 1656 
Q 797 1019 1065 703 
Q 1334 388 1700 388 
Q 2069 388 2326 689 
Q 2584 991 2584 1609 
Q 2584 2291 2321 2609 
Q 2059 2928 1675 2928 
Q 1300 2928 1048 2622 
Q 797 2316 797 1656 
z
" id="ArialMT-64" transform="scale(0.015625)"/>
       <path d="M -97 -1272 
L -97 -866 
L 3631 -866 
L 3631 -1272 
L -97 -1272 
z
" id="ArialMT-5f" transform="scale(0.015625)"/>
       <path d="M 269 1209 
L 831 1284 
Q 928 806 1161 595 
Q 1394 384 1728 384 
Q 2125 384 2398 659 
Q 2672 934 2672 1341 
Q 2672 1728 2419 1979 
Q 2166 2231 1775 2231 
Q 1616 2231 1378 2169 
L 1441 2663 
Q 1497 2656 1531 2656 
Q 1891 2656 2178 2843 
Q 2466 3031 2466 3422 
Q 2466 3731 2256 3934 
Q 2047 4138 1716 4138 
Q 1388 4138 1169 3931 
Q 950 3725 888 3313 
L 325 3413 
Q 428 3978 793 4289 
Q 1159 4600 1703 4600 
Q 2078 4600 2393 4439 
Q 2709 4278 2876 4000 
Q 3044 3722 3044 3409 
Q 3044 3113 2884 2869 
Q 2725 2625 2413 2481 
Q 2819 2388 3044 2092 
Q 3269 1797 3269 1353 
Q 3269 753 2831 336 
Q 2394 -81 1725 -81 
Q 1122 -81 723 278 
Q 325 638 269 1209 
z
" id="ArialMT-33" transform="scale(0.015625)"/>
      </defs>
      <use xlink:href="#ArialMT-73"/>
      <use x="50" xlink:href="#ArialMT-70"/>
      <use x="105.615234" xlink:href="#ArialMT-6c"/>
      <use x="127.832031" xlink:href="#ArialMT-69"/>
      <use x="150.048828" xlink:href="#ArialMT-74"/>
      <use x="177.832031" xlink:href="#ArialMT-74"/>
      <use x="205.615234" xlink:href="#ArialMT-65"/>
      <use x="261.230469" xlink:href="#ArialMT-64"/>
      <use x="316.845703" xlink:href="#ArialMT-5f"/>
      <use x="372.460938" xlink:href="#ArialMT-33"/>
      <use x="428.076172" xlink:href="#ArialMT-73"/>
     </g>
    </g>
    <g id="line2d_15">
     <path d="M 115.2 116.6903 
L 137.2 116.6903 
" style="fill:none;stroke:#55a868;stroke-dasharray:1.5,1.5;stroke-dashoffset:0;stroke-width:1.5;"/>
    </g>
    <g id="line2d_16"/>
    <g id="text_19">
     <!-- splitted_1s -->
     <g style="fill:#262626;" transform="translate(146 120.5403)scale(0.11 -0.11)">
      <use xlink:href="#ArialMT-73"/>
      <use x="50" xlink:href="#ArialMT-70"/>
      <use x="105.615234" xlink:href="#ArialMT-6c"/>
      <use x="127.832031" xlink:href="#ArialMT-69"/>
      <use x="150.048828" xlink:href="#ArialMT-74"/>
      <use x="177.832031" xlink:href="#ArialMT-74"/>
      <use x="205.615234" xlink:href="#ArialMT-65"/>
      <use x="261.230469" xlink:href="#ArialMT-64"/>
      <use x="316.845703" xlink:href="#ArialMT-5f"/>
      <use x="372.460938" xlink:href="#ArialMT-31"/>
      <use x="428.076172" xlink:href="#ArialMT-73"/>
     </g>
    </g>
    <g id="line2d_17">
     <path d="M 115.2 132.384206 
L 137.2 132.384206 
" style="fill:none;stroke:#c44e52;stroke-dasharray:4.5,1.875,2.25,1.875;stroke-dashoffset:0;stroke-width:1.5;"/>
    </g>
    <g id="line2d_18"/>
    <g id="text_20">
     <!-- overlap_1f_3s -->
     <g style="fill:#262626;" transform="translate(146 136.234206)scale(0.11 -0.11)">
      <use xlink:href="#ArialMT-6f"/>
      <use x="55.615234" xlink:href="#ArialMT-76"/>
      <use x="105.615234" xlink:href="#ArialMT-65"/>
      <use x="161.230469" xlink:href="#ArialMT-72"/>
      <use x="194.53125" xlink:href="#ArialMT-6c"/>
      <use x="216.748047" xlink:href="#ArialMT-61"/>
      <use x="272.363281" xlink:href="#ArialMT-70"/>
      <use x="327.978516" xlink:href="#ArialMT-5f"/>
      <use x="383.59375" xlink:href="#ArialMT-31"/>
      <use x="439.208984" xlink:href="#ArialMT-66"/>
      <use x="466.992188" xlink:href="#ArialMT-5f"/>
      <use x="522.607422" xlink:href="#ArialMT-33"/>
      <use x="578.222656" xlink:href="#ArialMT-73"/>
     </g>
    </g>
    <g id="line2d_19">
     <path d="M 115.2 148.078113 
L 137.2 148.078113 
" style="fill:none;stroke:#8172b3;stroke-dasharray:7.5,1.5,1.5,1.5;stroke-dashoffset:0;stroke-width:1.5;"/>
    </g>
    <g id="line2d_20"/>
    <g id="text_21">
     <!-- overlap_10f_3s -->
     <g style="fill:#262626;" transform="translate(146 151.928112)scale(0.11 -0.11)">
      <use xlink:href="#ArialMT-6f"/>
      <use x="55.615234" xlink:href="#ArialMT-76"/>
      <use x="105.615234" xlink:href="#ArialMT-65"/>
      <use x="161.230469" xlink:href="#ArialMT-72"/>
      <use x="194.53125" xlink:href="#ArialMT-6c"/>
      <use x="216.748047" xlink:href="#ArialMT-61"/>
      <use x="272.363281" xlink:href="#ArialMT-70"/>
      <use x="327.978516" xlink:href="#ArialMT-5f"/>
      <use x="383.59375" xlink:href="#ArialMT-31"/>
      <use x="439.208984" xlink:href="#ArialMT-30"/>
      <use x="494.824219" xlink:href="#ArialMT-66"/>
      <use x="522.607422" xlink:href="#ArialMT-5f"/>
      <use x="578.222656" xlink:href="#ArialMT-33"/>
      <use x="633.837891" xlink:href="#ArialMT-73"/>
     </g>
    </g>
   </g>
  </g>
 </g>
 <defs>
  <clipPath id="p4c1e2f983d">
   <rect height="458.4888" width="652.86" x="105.3" y="71.4528"/>
  </clipPath>
 </defs>
</svg>
