<?xml version="1.0" encoding="utf-8" standalone="no"?>
<!DOCTYPE svg PUBLIC "-//W3C//DTD SVG 1.1//EN"
  "http://www.w3.org/Graphics/SVG/1.1/DTD/svg11.dtd">
<svg height="595.44pt" version="1.1" viewBox="0 0 842.4 595.44" width="842.4pt" xmlns="http://www.w3.org/2000/svg" xmlns:xlink="http://www.w3.org/1999/xlink">
 <metadata>
  <rdf:RDF xmlns:cc="http://creativecommons.org/ns#" xmlns:dc="http://purl.org/dc/elements/1.1/" xmlns:rdf="http://www.w3.org/1999/02/22-rdf-syntax-ns#">
   <cc:Work>
    <dc:type rdf:resource="http://purl.org/dc/dcmitype/StillImage"/>
    <dc:date>2021-06-01T00:54:06.042285</dc:date>
    <dc:format>image/svg+xml</dc:format>
    <dc:creator>
     <cc:Agent>
      <dc:title>Matplotlib v3.4.1, https://matplotlib.org/</dc:title>
     </cc:Agent>
    </dc:creator>
   </cc:Work>
  </rdf:RDF>
 </metadata>
 <defs>
  <style type="text/css">*{stroke-linecap:butt;stroke-linejoin:round;}</style>
 </defs>
 <g id="figure_1">
  <g id="patch_1">
   <path d="M 0 595.44 
L 842.4 595.44 
L 842.4 0 
L 0 0 
z
" style="fill:#ffffff;"/>
  </g>
  <g id="axes_1">
   <g id="patch_2">
    <path d="M 105.3 529.9416 
L 758.16 529.9416 
L 758.16 71.4528 
L 105.3 71.4528 
z
" style="fill:#ffffff;"/>
   </g>
   <g id="matplotlib.axis_1">
    <g id="xtick_1">
     <g id="text_1">
      <!-- 0 -->
      <g style="fill:#262626;" transform="translate(131.916939 547.315194)scale(0.11 -0.11)">
       <defs>
        <path d="M 266 2259 
Q 266 3072 433 3567 
Q 600 4063 929 4331 
Q 1259 4600 1759 4600 
Q 2128 4600 2406 4451 
Q 2684 4303 2865 4023 
Q 3047 3744 3150 3342 
Q 3253 2941 3253 2259 
Q 3253 1453 3087 958 
Q 2922 463 2592 192 
Q 2263 -78 1759 -78 
Q 1097 -78 719 397 
Q 266 969 266 2259 
z
M 844 2259 
Q 844 1131 1108 757 
Q 1372 384 1759 384 
Q 2147 384 2411 759 
Q 2675 1134 2675 2259 
Q 2675 3391 2411 3762 
Q 2147 4134 1753 4134 
Q 1366 4134 1134 3806 
Q 844 3388 844 2259 
z
" id="ArialMT-30" transform="scale(0.015625)"/>
       </defs>
       <use xlink:href="#ArialMT-30"/>
      </g>
     </g>
    </g>
    <g id="xtick_2">
     <g id="text_2">
      <!-- 25 -->
      <g style="fill:#262626;" transform="translate(201.950676 547.315194)scale(0.11 -0.11)">
       <defs>
        <path d="M 3222 541 
L 3222 0 
L 194 0 
Q 188 203 259 391 
Q 375 700 629 1000 
Q 884 1300 1366 1694 
Q 2113 2306 2375 2664 
Q 2638 3022 2638 3341 
Q 2638 3675 2398 3904 
Q 2159 4134 1775 4134 
Q 1369 4134 1125 3890 
Q 881 3647 878 3216 
L 300 3275 
Q 359 3922 746 4261 
Q 1134 4600 1788 4600 
Q 2447 4600 2831 4234 
Q 3216 3869 3216 3328 
Q 3216 3053 3103 2787 
Q 2991 2522 2730 2228 
Q 2469 1934 1863 1422 
Q 1356 997 1212 845 
Q 1069 694 975 541 
L 3222 541 
z
" id="ArialMT-32" transform="scale(0.015625)"/>
        <path d="M 266 1200 
L 856 1250 
Q 922 819 1161 601 
Q 1400 384 1738 384 
Q 2144 384 2425 690 
Q 2706 997 2706 1503 
Q 2706 1984 2436 2262 
Q 2166 2541 1728 2541 
Q 1456 2541 1237 2417 
Q 1019 2294 894 2097 
L 366 2166 
L 809 4519 
L 3088 4519 
L 3088 3981 
L 1259 3981 
L 1013 2750 
Q 1425 3038 1878 3038 
Q 2478 3038 2890 2622 
Q 3303 2206 3303 1553 
Q 3303 931 2941 478 
Q 2500 -78 1738 -78 
Q 1113 -78 717 272 
Q 322 622 266 1200 
z
" id="ArialMT-35" transform="scale(0.015625)"/>
       </defs>
       <use xlink:href="#ArialMT-32"/>
       <use x="55.615234" xlink:href="#ArialMT-35"/>
      </g>
     </g>
    </g>
    <g id="xtick_3">
     <g id="text_3">
      <!-- 50 -->
      <g style="fill:#262626;" transform="translate(275.042928 547.315194)scale(0.11 -0.11)">
       <use xlink:href="#ArialMT-35"/>
       <use x="55.615234" xlink:href="#ArialMT-30"/>
      </g>
     </g>
    </g>
    <g id="xtick_4">
     <g id="text_4">
      <!-- 75 -->
      <g style="fill:#262626;" transform="translate(348.135181 547.315194)scale(0.11 -0.11)">
       <defs>
        <path d="M 303 3981 
L 303 4522 
L 3269 4522 
L 3269 4084 
Q 2831 3619 2401 2847 
Q 1972 2075 1738 1259 
Q 1569 684 1522 0 
L 944 0 
Q 953 541 1156 1306 
Q 1359 2072 1739 2783 
Q 2119 3494 2547 3981 
L 303 3981 
z
" id="ArialMT-37" transform="scale(0.015625)"/>
       </defs>
       <use xlink:href="#ArialMT-37"/>
       <use x="55.615234" xlink:href="#ArialMT-35"/>
      </g>
     </g>
    </g>
    <g id="xtick_5">
     <g id="text_5">
      <!-- 100 -->
      <g style="fill:#262626;" transform="translate(418.168918 547.315194)scale(0.11 -0.11)">
       <defs>
        <path d="M 2384 0 
L 1822 0 
L 1822 3584 
Q 1619 3391 1289 3197 
Q 959 3003 697 2906 
L 697 3450 
Q 1169 3672 1522 3987 
Q 1875 4303 2022 4600 
L 2384 4600 
L 2384 0 
z
" id="ArialMT-31" transform="scale(0.015625)"/>
       </defs>
       <use xlink:href="#ArialMT-31"/>
       <use x="55.615234" xlink:href="#ArialMT-30"/>
       <use x="111.230469" xlink:href="#ArialMT-30"/>
      </g>
     </g>
    </g>
    <g id="xtick_6">
     <g id="text_6">
      <!-- 125 -->
      <g style="fill:#262626;" transform="translate(491.261171 547.315194)scale(0.11 -0.11)">
       <use xlink:href="#ArialMT-31"/>
       <use x="55.615234" xlink:href="#ArialMT-32"/>
       <use x="111.230469" xlink:href="#ArialMT-35"/>
      </g>
     </g>
    </g>
    <g id="xtick_7">
     <g id="text_7">
      <!-- 150 -->
      <g style="fill:#262626;" transform="translate(564.353423 547.315194)scale(0.11 -0.11)">
       <use xlink:href="#ArialMT-31"/>
       <use x="55.615234" xlink:href="#ArialMT-35"/>
       <use x="111.230469" xlink:href="#ArialMT-30"/>
      </g>
     </g>
    </g>
    <g id="xtick_8">
     <g id="text_8">
      <!-- 175 -->
      <g style="fill:#262626;" transform="translate(637.445676 547.315194)scale(0.11 -0.11)">
       <use xlink:href="#ArialMT-31"/>
       <use x="55.615234" xlink:href="#ArialMT-37"/>
       <use x="111.230469" xlink:href="#ArialMT-35"/>
      </g>
     </g>
    </g>
    <g id="xtick_9">
     <g id="text_9">
      <!-- 200 -->
      <g style="fill:#262626;" transform="translate(710.537928 547.315194)scale(0.11 -0.11)">
       <use xlink:href="#ArialMT-32"/>
       <use x="55.615234" xlink:href="#ArialMT-30"/>
       <use x="111.230469" xlink:href="#ArialMT-30"/>
      </g>
     </g>
    </g>
   </g>
   <g id="matplotlib.axis_2">
    <g id="ytick_1">
     <g id="text_10">
      <!-- −25 -->
      <g style="fill:#262626;" transform="translate(77.14125 533.878397)scale(0.11 -0.11)">
       <defs>
        <path d="M 3381 1997 
L 356 1997 
L 356 2522 
L 3381 2522 
L 3381 1997 
z
" id="ArialMT-2212" transform="scale(0.015625)"/>
       </defs>
       <use xlink:href="#ArialMT-2212"/>
       <use x="58.398438" xlink:href="#ArialMT-32"/>
       <use x="114.013672" xlink:href="#ArialMT-35"/>
      </g>
     </g>
    </g>
    <g id="ytick_2">
     <g id="text_11">
      <!-- −20 -->
      <g style="fill:#262626;" transform="translate(77.14125 442.180637)scale(0.11 -0.11)">
       <use xlink:href="#ArialMT-2212"/>
       <use x="58.398438" xlink:href="#ArialMT-32"/>
       <use x="114.013672" xlink:href="#ArialMT-30"/>
      </g>
     </g>
    </g>
    <g id="ytick_3">
     <g id="text_12">
      <!-- −15 -->
      <g style="fill:#262626;" transform="translate(77.14125 350.482877)scale(0.11 -0.11)">
       <use xlink:href="#ArialMT-2212"/>
       <use x="58.398438" xlink:href="#ArialMT-31"/>
       <use x="114.013672" xlink:href="#ArialMT-35"/>
      </g>
     </g>
    </g>
    <g id="ytick_4">
     <g id="text_13">
      <!-- −10 -->
      <g style="fill:#262626;" transform="translate(77.14125 258.785117)scale(0.11 -0.11)">
       <use xlink:href="#ArialMT-2212"/>
       <use x="58.398438" xlink:href="#ArialMT-31"/>
       <use x="114.013672" xlink:href="#ArialMT-30"/>
      </g>
     </g>
    </g>
    <g id="ytick_5">
     <g id="text_14">
      <!-- −5 -->
      <g style="fill:#262626;" transform="translate(83.258281 167.087357)scale(0.11 -0.11)">
       <use xlink:href="#ArialMT-2212"/>
       <use x="58.398438" xlink:href="#ArialMT-35"/>
      </g>
     </g>
    </g>
    <g id="ytick_6">
     <g id="text_15">
      <!-- 0 -->
      <g style="fill:#262626;" transform="translate(89.682969 75.389597)scale(0.11 -0.11)">
       <use xlink:href="#ArialMT-30"/>
      </g>
     </g>
    </g>
   </g>
   <g id="line2d_1">
    <path clip-path="url(#pc44a03b4ed)" d="M 134.975455 364.611599 
L 137.899145 365.104222 
L 140.822835 368.380651 
L 143.746525 367.044733 
L 146.670215 367.921154 
L 149.593905 369.424906 
L 152.517595 369.742349 
L 155.441285 373.655133 
L 158.364975 375.963738 
L 161.288665 379.366619 
L 164.212356 382.010716 
L 167.136046 382.525726 
L 170.059736 405.07623 
L 172.983426 421.768893 
L 175.907116 431.945181 
L 178.830806 453.66876 
L 181.754496 487.202155 
L 184.678186 431.529794 
L 187.601876 371.688422 
L 190.525567 495.141128 
L 193.449257 457.964329 
L 196.372947 424.738933 
L 199.296637 445.278966 
L 202.220327 354.804891 
L 205.144017 352.484271 
L 208.067707 446.223284 
L 210.991397 266.822664 
L 213.915087 357.962739 
L 216.838777 407.239179 
L 219.762468 466.653796 
L 222.686158 445.962019 
L 225.609848 414.815864 
L 228.533538 373.363225 
L 231.457228 423.148116 
L 234.380918 321.230867 
L 237.304608 410.99137 
L 240.228298 446.515961 
L 243.151988 411.875102 
L 246.075678 325.698503 
L 248.999369 268.673958 
L 251.923059 348.858183 
L 254.846749 362.048498 
L 257.770439 411.73074 
L 260.694129 376.90085 
L 263.617819 450.198752 
L 266.541509 335.399536 
L 269.465199 345.276309 
L 272.388889 372.479493 
L 275.312579 364.488557 
L 278.23627 361.479672 
L 281.15996 327.455177 
L 284.08365 286.307143 
L 287.00734 290.784311 
L 289.93103 366.933391 
L 292.85472 348.412311 
L 295.77841 371.441009 
L 298.7021 448.761077 
L 301.62579 400.841036 
L 304.549481 382.934886 
L 307.473171 372.020451 
L 310.396861 366.547633 
L 313.320551 297.359259 
L 316.244241 330.843507 
L 319.167931 257.32259 
L 322.091621 404.47566 
L 325.015311 410.611558 
L 327.939001 417.518972 
L 330.862691 416.384154 
L 333.786382 393.923617 
L 336.710072 404.480557 
L 339.633762 448.042345 
L 342.557452 380.795689 
L 345.481142 373.767628 
L 348.404832 320.499385 
L 351.328522 277.158583 
L 354.252212 330.204231 
L 357.175902 351.735946 
L 360.099592 335.722803 
L 363.023283 465.527303 
L 365.946973 364.735218 
L 368.870663 369.15731 
L 371.794353 442.203637 
L 374.718043 448.411943 
L 377.641733 439.304291 
L 380.565423 432.935497 
L 383.489113 434.686242 
L 386.412803 382.041079 
L 389.336494 378.541233 
L 392.260184 365.663271 
L 395.183874 376.548777 
L 398.107564 366.898936 
L 401.031254 358.798724 
L 403.954944 371.206259 
L 406.878634 413.73439 
L 409.802324 423.322561 
L 412.726014 406.511561 
L 415.649704 426.760492 
L 418.573395 341.204174 
L 421.497085 368.634115 
L 424.420775 442.109506 
L 427.344465 383.501385 
L 430.268155 462.233593 
L 433.191845 485.09521 
L 436.115535 368.193193 
L 439.039225 409.843713 
L 441.962915 433.169863 
L 444.886605 405.347604 
L 447.810296 329.30133 
L 450.733986 340.310367 
L 453.657676 428.900459 
L 456.581366 328.692347 
L 459.505056 426.959388 
L 462.428746 356.507994 
L 465.352436 406.235465 
L 468.276126 442.759992 
L 471.199816 418.21182 
L 474.123506 411.924739 
L 477.047197 358.449029 
L 479.970887 299.318204 
L 482.894577 403.739438 
L 485.818267 391.382326 
L 488.741957 400.02415 
L 491.665647 342.464098 
L 494.589337 362.265986 
L 497.513027 459.270619 
L 500.436717 367.66748 
L 503.360408 310.824027 
L 506.284098 400.335507 
L 509.207788 423.112331 
L 512.131478 457.601832 
L 515.055168 446.933482 
L 517.978858 380.682739 
L 520.902548 460.335793 
L 523.826238 438.242686 
L 526.749928 373.878969 
L 529.673618 420.839196 
L 532.597309 454.54959 
L 535.520999 414.374487 
L 538.444689 361.660606 
L 541.368379 414.23957 
L 544.292069 431.949693 
L 547.215759 309.177714 
L 550.139449 346.347936 
L 553.063139 297.490189 
L 555.986829 386.325454 
L 561.83421 297.154923 
L 564.7579 267.120448 
L 567.68159 262.466754 
L 570.60528 297.439205 
L 573.52897 308.883306 
L 576.45266 350.825313 
L 579.37635 430.599223 
L 582.30004 466.055464 
L 585.22373 421.270464 
L 588.147421 387.846101 
L 591.071111 345.423469 
L 593.994801 364.143183 
L 596.918491 286.740807 
L 599.842181 275.943153 
L 602.765871 364.503844 
L 605.689561 331.899218 
L 608.613251 325.140136 
L 611.536941 376.151964 
L 614.460631 351.116364 
L 617.384322 233.785791 
L 620.308012 358.624734 
L 623.231702 435.869998 
L 626.155392 486.434276 
L 629.079082 458.397556 
L 632.002772 415.549848 
L 634.926462 370.077562 
L 637.850152 422.717688 
L 640.773842 348.750794 
L 643.697532 240.444411 
L 646.621223 87.187654 
L 649.544913 71.772815 
L 652.468603 304.708715 
L 655.392293 329.587675 
L 658.315983 326.867427 
L 661.239673 446.983958 
L 664.163363 380.860506 
L 667.087053 413.894983 
L 670.010743 357.900457 
L 672.934433 165.272092 
L 675.858124 71.455817 
L 678.781814 109.832002 
L 681.705504 331.057794 
L 684.629194 399.228847 
L 687.552884 390.542843 
L 690.476574 490.417334 
L 693.400264 407.466443 
L 696.323954 417.468636 
L 699.247644 389.626649 
L 702.171335 393.494379 
L 705.095025 405.821267 
L 708.018715 401.111641 
L 710.942405 400.298113 
L 713.866095 397.266578 
L 716.789785 398.312933 
L 719.713475 397.928468 
L 722.637165 396.486946 
L 725.560855 401.29588 
L 728.484545 396.295711 
L 728.484545 396.295711 
" style="fill:none;stroke:#4c72b0;stroke-linecap:round;stroke-width:1.5;"/>
   </g>
   <g id="line2d_2">
    <path clip-path="url(#pc44a03b4ed)" d="M 134.975455 370.259072 
L 137.899145 372.470573 
L 140.822835 372.698712 
L 143.746525 371.76947 
L 146.670215 375.050412 
L 149.593905 374.690119 
L 152.517595 372.012861 
L 155.441285 373.832236 
L 158.364975 374.239088 
L 161.288665 373.970197 
L 164.212356 374.589167 
L 167.136046 373.724148 
L 170.059736 391.076287 
L 172.983426 402.092198 
L 175.907116 416.115438 
L 178.830806 442.434889 
L 181.754496 460.386479 
L 184.678186 421.300232 
L 187.601876 341.268852 
L 190.525567 484.611647 
L 193.449257 442.185377 
L 196.372947 416.001159 
L 199.296637 424.461542 
L 202.220327 359.020531 
L 205.144017 364.41071 
L 208.067707 436.547629 
L 210.991397 288.818352 
L 213.915087 326.299475 
L 216.838777 403.157826 
L 219.762468 449.255484 
L 222.686158 418.517719 
L 225.609848 378.684371 
L 228.533538 341.394063 
L 231.457228 392.781523 
L 234.380918 303.45033 
L 237.304608 377.129828 
L 240.228298 424.102683 
L 243.151988 400.456292 
L 246.075678 315.558716 
L 248.999369 280.727042 
L 251.923059 341.147944 
L 254.846749 351.183245 
L 257.770439 418.837261 
L 260.694129 391.926054 
L 263.617819 470.054089 
L 266.541509 351.523723 
L 269.465199 351.640695 
L 272.388889 404.128204 
L 275.312579 397.692039 
L 278.23627 387.071751 
L 281.15996 354.616367 
L 284.08365 301.586932 
L 287.00734 311.208578 
L 289.93103 388.54528 
L 292.85472 382.49106 
L 295.77841 365.648684 
L 298.7021 440.919804 
L 301.62579 385.746047 
L 304.549481 384.60892 
L 307.473171 384.395192 
L 310.396861 346.959735 
L 313.320551 300.494054 
L 316.244241 353.897232 
L 319.167931 281.133036 
L 322.091621 397.086467 
L 327.939001 420.808274 
L 330.862691 390.307253 
L 333.786382 373.030147 
L 336.710072 428.237274 
L 339.633762 448.782905 
L 342.557452 370.862546 
L 345.481142 315.537903 
L 348.404832 292.378748 
L 351.328522 405.062273 
L 354.252212 296.510646 
L 357.175902 276.342851 
L 360.099592 243.122509 
L 363.023283 279.11466 
L 365.946973 255.835786 
L 368.870663 220.646984 
L 371.794353 273.367581 
L 374.718043 300.620297 
L 377.641733 302.83958 
L 380.565423 347.616885 
L 383.489113 349.605389 
L 386.412803 396.926853 
L 389.336494 394.264427 
L 392.260184 357.750008 
L 395.183874 363.196819 
L 398.107564 322.208784 
L 401.031254 312.853299 
L 403.954944 347.035572 
L 406.878634 376.784786 
L 409.802324 391.672555 
L 412.726014 418.367585 
L 415.649704 431.270278 
L 418.573395 316.124849 
L 421.497085 357.498503 
L 424.420775 407.760519 
L 427.344465 338.830629 
L 430.268155 421.562371 
L 433.191845 449.032976 
L 436.115535 351.979581 
L 439.039225 417.860656 
L 441.962915 427.862604 
L 444.886605 347.380019 
L 447.810296 295.018962 
L 450.733986 361.631083 
L 453.657676 421.592664 
L 456.581366 336.734073 
L 459.505056 422.033131 
L 462.428746 346.150247 
L 465.352436 404.636288 
L 468.276126 429.684079 
L 471.199816 420.120044 
L 474.123506 398.057334 
L 477.047197 392.062021 
L 479.970887 294.294371 
L 482.894577 395.630218 
L 485.818267 401.733199 
L 488.741957 424.23043 
L 491.665647 361.328367 
L 494.589337 352.814447 
L 497.513027 445.274524 
L 500.436717 370.238329 
L 503.360408 322.056708 
L 506.284098 430.010546 
L 509.207788 441.775693 
L 512.131478 446.12688 
L 515.055168 464.526807 
L 517.978858 390.049591 
L 520.902548 449.794699 
L 523.826238 431.915658 
L 526.749928 394.761317 
L 529.673618 438.061035 
L 532.597309 453.691042 
L 535.520999 403.187664 
L 538.444689 340.691054 
L 541.368379 377.819597 
L 544.292069 449.70578 
L 547.215759 281.854077 
L 550.139449 334.989449 
L 553.063139 337.092477 
L 555.986829 380.099238 
L 558.910519 307.779374 
L 561.83421 244.928907 
L 564.7579 258.240008 
L 567.68159 222.937574 
L 570.60528 352.446161 
L 573.52897 220.421608 
L 576.45266 244.122567 
L 579.37635 313.344522 
L 582.30004 303.492201 
L 585.22373 333.003569 
L 588.147421 292.91562 
L 591.071111 349.22465 
L 593.994801 363.519579 
L 596.918491 282.932718 
L 599.842181 255.502252 
L 602.765871 312.318421 
L 605.689561 349.384928 
L 608.613251 379.787043 
L 611.536941 355.442033 
L 614.460631 321.157637 
L 617.384322 280.752087 
L 620.308012 385.239538 
L 623.231702 440.659064 
L 626.155392 482.238015 
L 629.079082 430.478193 
L 632.002772 410.497348 
L 634.926462 373.392783 
L 637.850152 414.040324 
L 640.773842 364.158872 
L 646.621223 82.859282 
L 649.544913 71.615177 
L 652.468603 276.58026 
L 655.392293 343.134086 
L 658.315983 304.780826 
L 661.239673 427.361517 
L 664.163363 350.823757 
L 667.087053 409.645377 
L 670.010743 342.818637 
L 672.934433 156.964973 
L 675.858124 71.456129 
L 678.781814 141.788201 
L 681.705504 327.447674 
L 684.629194 389.702066 
L 687.552884 381.051602 
L 690.476574 477.134829 
L 693.400264 419.492085 
L 696.323954 420.273606 
L 699.247644 382.516596 
L 702.171335 378.135746 
L 705.095025 388.569101 
L 708.018715 384.476905 
L 710.942405 384.856508 
L 713.866095 378.099576 
L 716.789785 382.828687 
L 719.713475 381.400946 
L 722.637165 377.848875 
L 725.560855 382.736899 
L 728.484545 375.315455 
L 728.484545 375.315455 
" style="fill:none;stroke:#dd8452;stroke-dasharray:6,2.25;stroke-dashoffset:0;stroke-width:1.5;"/>
   </g>
   <g id="line2d_3">
    <path clip-path="url(#pc44a03b4ed)" d="M 134.975455 372.770211 
L 137.899145 374.724539 
L 140.822835 375.805418 
L 143.746525 372.627213 
L 146.670215 385.132604 
L 149.593905 384.61623 
L 152.517595 386.323041 
L 155.441285 417.898574 
L 158.364975 417.803079 
L 161.288665 404.673122 
L 164.212356 407.433492 
L 167.136046 396.423842 
L 170.059736 397.645341 
L 172.983426 412.250857 
L 175.907116 422.34844 
L 178.830806 437.819953 
L 181.754496 437.824151 
L 184.678186 367.147818 
L 187.601876 325.148461 
L 190.525567 402.273219 
L 193.449257 455.680036 
L 196.372947 439.726639 
L 199.296637 397.431579 
L 202.220327 349.091796 
L 205.144017 348.218802 
L 208.067707 293.461726 
L 210.991397 318.016125 
L 213.915087 302.178635 
L 216.838777 306.947919 
L 219.762468 400.271284 
L 222.686158 393.365373 
L 225.609848 315.370489 
L 228.533538 327.008886 
L 231.457228 346.104109 
L 234.380918 293.58601 
L 237.304608 356.500036 
L 240.228298 407.835446 
L 243.151988 407.240333 
L 246.075678 289.297524 
L 248.999369 298.205021 
L 251.923059 289.140657 
L 254.846749 351.99798 
L 257.770439 409.164788 
L 260.694129 368.089583 
L 263.617819 443.255798 
L 266.541509 369.792755 
L 269.465199 391.036725 
L 272.388889 345.824759 
L 275.312579 289.476604 
L 278.23627 299.390228 
L 281.15996 302.554406 
L 284.08365 265.838468 
L 287.00734 281.876307 
L 289.93103 337.99802 
L 292.85472 312.524383 
L 295.77841 376.498371 
L 298.7021 428.694917 
L 301.62579 417.37517 
L 304.549481 394.682472 
L 307.473171 401.920552 
L 310.396861 379.163666 
L 313.320551 332.649695 
L 316.244241 383.912924 
L 319.167931 306.0836 
L 322.091621 413.33436 
L 325.015311 434.410426 
L 327.939001 434.15049 
L 330.862691 409.084054 
L 333.786382 374.206171 
L 336.710072 438.231037 
L 339.633762 449.308478 
L 342.557452 400.069799 
L 345.481142 360.19479 
L 348.404832 277.943514 
L 351.328522 425.40467 
L 354.252212 327.350499 
L 357.175902 380.444071 
L 360.099592 325.762691 
L 363.023283 450.269691 
L 365.946973 338.158385 
L 368.870663 301.4942 
L 371.794353 325.897329 
L 374.718043 390.615427 
L 377.641733 360.123483 
L 380.565423 353.191075 
L 383.489113 394.965284 
L 386.412803 393.804896 
L 389.336494 402.610985 
L 392.260184 371.983967 
L 395.183874 369.832562 
L 398.107564 324.217995 
L 401.031254 333.619636 
L 403.954944 338.355829 
L 406.878634 364.555019 
L 409.802324 441.704543 
L 415.649704 414.436017 
L 418.573395 354.870916 
L 421.497085 292.434069 
L 424.420775 274.548451 
L 427.344465 308.082825 
L 430.268155 302.562784 
L 433.191845 300.760916 
L 436.115535 302.096432 
L 439.039225 380.567655 
L 441.962915 402.987649 
L 444.886605 301.6291 
L 447.810296 370.557941 
L 450.733986 363.449566 
L 453.657676 385.841752 
L 456.581366 318.935013 
L 459.505056 438.122844 
L 462.428746 355.085518 
L 465.352436 354.30697 
L 468.276126 407.687306 
L 471.199816 356.781379 
L 474.123506 367.556909 
L 477.047197 388.413511 
L 479.970887 347.789669 
L 482.894577 332.94141 
L 485.818267 340.871288 
L 488.741957 322.652644 
L 491.665647 344.34315 
L 494.589337 332.401232 
L 497.513027 377.111604 
L 500.436717 318.549797 
L 503.360408 350.121535 
L 506.284098 417.611704 
L 509.207788 328.79956 
L 512.131478 348.638719 
L 515.055168 370.103936 
L 517.978858 386.599347 
L 520.902548 433.303731 
L 523.826238 421.996297 
L 526.749928 411.50435 
L 529.673618 437.341778 
L 532.597309 430.123147 
L 535.520999 435.884549 
L 538.444689 321.308768 
L 541.368379 358.333543 
L 544.292069 412.095056 
L 547.215759 228.553792 
L 553.063139 308.674493 
L 555.986829 256.520308 
L 558.910519 220.541659 
L 561.83421 197.918326 
L 564.7579 204.451648 
L 567.68159 219.718144 
L 570.60528 268.811499 
L 573.52897 293.371828 
L 576.45266 282.163037 
L 579.37635 410.607325 
L 582.30004 411.713285 
L 585.22373 420.647331 
L 588.147421 369.224716 
L 591.071111 376.402316 
L 593.994801 354.449495 
L 596.918491 282.049527 
L 599.842181 304.189193 
L 602.765871 399.217199 
L 605.689561 354.481957 
L 608.613251 377.841355 
L 611.536941 370.126149 
L 614.460631 316.003433 
L 617.384322 250.583498 
L 620.308012 350.841317 
L 623.231702 443.935353 
L 626.155392 472.985721 
L 629.079082 396.903417 
L 632.002772 401.568864 
L 634.926462 389.977428 
L 637.850152 324.456086 
L 640.773842 247.755634 
L 643.697532 227.902099 
L 646.621223 90.788598 
L 649.544913 71.557293 
L 652.468603 307.329095 
L 655.392293 309.638225 
L 658.315983 299.99643 
L 661.239673 413.575721 
L 664.163363 363.434577 
L 667.087053 412.92415 
L 670.010743 336.445891 
L 672.934433 86.860419 
L 675.858124 71.454612 
L 678.781814 141.79211 
L 681.705504 331.292666 
L 684.629194 393.106766 
L 687.552884 382.402946 
L 690.476574 466.779549 
L 693.400264 401.284302 
L 696.323954 410.312969 
L 699.247644 374.310971 
L 702.171335 371.991523 
L 705.095025 372.369096 
L 708.018715 369.254764 
L 710.942405 373.286864 
L 713.866095 363.911424 
L 716.789785 369.114669 
L 719.713475 366.843038 
L 722.637165 367.974814 
L 725.560855 368.792364 
L 728.484545 355.338475 
L 728.484545 355.338475 
" style="fill:none;stroke:#55a868;stroke-dasharray:1.5,1.5;stroke-dashoffset:0;stroke-width:1.5;"/>
   </g>
   <g id="line2d_4">
    <path clip-path="url(#pc44a03b4ed)" d="M 134.975455 369.862225 
L 137.899145 372.094399 
L 140.822835 372.498487 
L 143.746525 371.425093 
L 146.670215 374.725413 
L 149.593905 374.552578 
L 152.517595 371.932442 
L 155.441285 373.86029 
L 158.364975 374.384114 
L 161.288665 374.184414 
L 164.212356 374.778793 
L 167.136046 373.972925 
L 170.059736 391.652616 
L 172.983426 402.573382 
L 175.907116 416.579936 
L 178.830806 442.886865 
L 181.754496 461.147222 
L 184.678186 422.036559 
L 187.601876 341.555285 
L 190.525567 485.378442 
L 193.449257 443.783155 
L 196.372947 415.76431 
L 199.296637 425.779026 
L 202.220327 359.626559 
L 205.144017 361.587428 
L 208.067707 440.149791 
L 210.991397 277.069104 
L 213.915087 332.254107 
L 216.838777 397.521127 
L 219.762468 451.148842 
L 222.686158 419.398268 
L 225.609848 378.809739 
L 228.533538 341.317841 
L 231.457228 395.362237 
L 234.380918 303.936883 
L 237.304608 382.449679 
L 240.228298 428.261061 
L 243.151988 402.870047 
L 246.075678 317.98592 
L 248.999369 281.116403 
L 251.923059 340.97656 
L 254.846749 351.650385 
L 257.770439 416.753332 
L 260.694129 392.530017 
L 263.617819 469.323638 
L 266.541509 344.337973 
L 269.465199 350.979925 
L 272.388889 398.644193 
L 275.312579 395.517582 
L 278.23627 387.084938 
L 281.15996 346.975896 
L 284.08365 296.057324 
L 287.00734 313.195368 
L 289.93103 387.227901 
L 292.85472 374.921721 
L 295.77841 367.968692 
L 298.7021 440.670012 
L 301.62579 387.497946 
L 304.549481 388.673481 
L 307.473171 385.454594 
L 310.396861 351.643074 
L 313.320551 298.238357 
L 316.244241 351.025416 
L 319.167931 284.794909 
L 322.091621 439.334129 
L 325.015311 414.941757 
L 327.939001 416.045793 
L 330.862691 413.613394 
L 333.786382 371.792207 
L 336.710072 424.981588 
L 339.633762 471.068122 
L 342.557452 380.952993 
L 345.481142 309.605484 
L 348.404832 326.29554 
L 351.328522 372.312673 
L 354.252212 381.911163 
L 357.175902 224.854071 
L 360.099592 268.554309 
L 363.023283 430.916107 
L 365.946973 259.231881 
L 368.870663 237.243941 
L 371.794353 324.129374 
L 374.718043 352.805597 
L 377.641733 316.787211 
L 380.565423 363.627037 
L 383.489113 351.859687 
L 386.412803 404.7626 
L 389.336494 395.5746 
L 392.260184 357.858901 
L 395.183874 364.821269 
L 398.107564 321.769506 
L 401.031254 314.632185 
L 406.878634 380.909199 
L 409.802324 395.198496 
L 412.726014 420.695359 
L 415.649704 436.64043 
L 418.573395 318.54371 
L 421.497085 366.275909 
L 424.420775 418.294442 
L 427.344465 342.909952 
L 430.268155 419.852833 
L 433.191845 445.670077 
L 436.115535 350.691078 
L 439.039225 416.924663 
L 441.962915 429.519638 
L 444.886605 347.882173 
L 447.810296 294.442913 
L 450.733986 356.364891 
L 453.657676 430.467314 
L 456.581366 336.559698 
L 459.505056 421.001783 
L 462.428746 343.766611 
L 465.352436 415.442809 
L 468.276126 431.177302 
L 471.199816 430.685414 
L 474.123506 405.370306 
L 477.047197 394.797486 
L 479.970887 291.234205 
L 482.894577 396.625571 
L 485.818267 401.13123 
L 488.741957 424.284019 
L 491.665647 359.936008 
L 494.589337 353.862532 
L 497.513027 446.308146 
L 500.436717 368.109067 
L 503.360408 318.693337 
L 506.284098 428.886222 
L 509.207788 440.969475 
L 512.131478 446.6931 
L 515.055168 464.232031 
L 517.978858 390.31306 
L 520.902548 450.024272 
L 523.826238 430.041853 
L 526.749928 394.2844 
L 529.673618 438.214212 
L 532.597309 453.419213 
L 535.520999 403.606164 
L 538.444689 346.106767 
L 541.368379 380.746402 
L 544.292069 450.282949 
L 547.215759 282.577095 
L 550.139449 334.491038 
L 553.063139 334.409465 
L 555.986829 380.635935 
L 558.910519 307.955673 
L 561.83421 246.213037 
L 564.7579 256.343974 
L 567.68159 227.18975 
L 570.60528 348.464274 
L 573.52897 263.193602 
L 576.45266 344.402318 
L 579.37635 330.916055 
L 582.30004 342.18167 
L 585.22373 419.055745 
L 588.147421 316.933619 
L 591.071111 307.23311 
L 593.994801 368.144396 
L 596.918491 295.498362 
L 599.842181 249.637571 
L 602.765871 349.658803 
L 605.689561 358.104582 
L 608.613251 374.566535 
L 611.536941 356.909808 
L 614.460631 333.498762 
L 617.384322 277.041225 
L 620.308012 382.35261 
L 623.231702 442.541368 
L 626.155392 479.953301 
L 629.079082 434.046634 
L 632.002772 407.98537 
L 634.926462 374.813108 
L 637.850152 411.972941 
L 640.773842 360.677408 
L 643.697532 226.113313 
L 646.621223 81.466728 
L 649.544913 71.674456 
L 652.468603 279.070865 
L 655.392293 345.131195 
L 658.315983 304.846938 
L 661.239673 428.089729 
L 664.163363 348.86245 
L 667.087053 405.433375 
L 670.010743 341.91166 
L 672.934433 156.585704 
L 675.858124 71.456448 
L 678.781814 141.152261 
L 681.705504 325.983956 
L 684.629194 392.188543 
L 687.552884 384.911916 
L 690.476574 476.023342 
L 693.400264 419.414779 
L 696.323954 421.000873 
L 699.247644 385.903282 
L 702.171335 379.160797 
L 705.095025 388.757363 
L 708.018715 385.516124 
L 710.942405 386.579933 
L 713.866095 380.296105 
L 716.789785 384.591045 
L 719.713475 383.270098 
L 722.637165 380.315904 
L 725.560855 385.034415 
L 728.484545 377.981309 
L 728.484545 377.981309 
" style="fill:none;stroke:#c44e52;stroke-dasharray:4.5,1.875,2.25,1.875;stroke-dashoffset:0;stroke-width:1.5;"/>
   </g>
   <g id="line2d_5">
    <path clip-path="url(#pc44a03b4ed)" d="M 134.975455 371.169914 
L 137.899145 373.750908 
L 140.822835 373.736566 
L 143.746525 372.871478 
L 146.670215 376.163263 
L 149.593905 376.155917 
L 152.517595 373.814781 
L 155.441285 375.159724 
L 161.288665 375.572312 
L 164.212356 375.108304 
L 167.136046 373.78984 
L 170.059736 390.525633 
L 172.983426 401.757126 
L 175.907116 414.440075 
L 178.830806 441.699331 
L 181.754496 471.014708 
L 184.678186 421.319506 
L 187.601876 356.804606 
L 190.525567 488.47448 
L 193.449257 452.705623 
L 196.372947 425.071837 
L 199.296637 436.24117 
L 202.220327 360.147794 
L 205.144017 369.755571 
L 208.067707 448.379517 
L 210.991397 273.4448 
L 213.915087 318.754254 
L 216.838777 397.866309 
L 219.762468 447.416205 
L 222.686158 427.682808 
L 225.609848 401.875183 
L 228.533538 353.599798 
L 231.457228 400.852335 
L 234.380918 303.625019 
L 237.304608 379.768608 
L 240.228298 430.457275 
L 243.151988 403.318139 
L 246.075678 317.504999 
L 248.999369 279.870051 
L 251.923059 351.275173 
L 254.846749 358.396332 
L 257.770439 422.620899 
L 260.694129 384.065472 
L 263.617819 461.656285 
L 266.541509 341.969954 
L 269.465199 345.895034 
L 272.388889 396.029199 
L 275.312579 393.871322 
L 278.23627 387.786356 
L 281.15996 355.061819 
L 284.08365 301.456754 
L 287.00734 311.442646 
L 289.93103 385.698754 
L 292.85472 376.196669 
L 295.77841 364.708704 
L 298.7021 435.469233 
L 301.62579 385.188327 
L 304.549481 386.089305 
L 307.473171 381.89969 
L 310.396861 360.457034 
L 313.320551 305.074745 
L 316.244241 341.712835 
L 319.167931 279.277806 
L 322.091621 417.342534 
L 325.015311 408.44679 
L 327.939001 402.778364 
L 330.862691 410.588401 
L 333.786382 391.257483 
L 336.710072 402.347692 
L 339.633762 463.524143 
L 342.557452 386.251367 
L 345.481142 351.261828 
L 348.404832 292.846499 
L 351.328522 266.529025 
L 354.252212 322.600873 
L 357.175902 350.685184 
L 360.099592 343.434791 
L 363.023283 465.200031 
L 365.946973 324.885674 
L 368.870663 343.278518 
L 371.794353 397.018431 
L 374.718043 405.287369 
L 377.641733 402.000796 
L 380.565423 413.087716 
L 383.489113 412.421594 
L 386.412803 387.635452 
L 389.336494 388.834109 
L 392.260184 373.535781 
L 395.183874 384.638967 
L 398.107564 319.152238 
L 401.031254 354.404057 
L 403.954944 370.585085 
L 406.878634 398.018332 
L 409.802324 430.914218 
L 412.726014 434.415148 
L 415.649704 466.645681 
L 418.573395 329.515966 
L 421.497085 385.370258 
L 424.420775 431.090586 
L 427.344465 352.512622 
L 430.268155 424.888472 
L 433.191845 455.760559 
L 436.115535 355.1117 
L 439.039225 419.342231 
L 441.962915 439.861591 
L 444.886605 362.160801 
L 447.810296 307.574217 
L 450.733986 360.434367 
L 453.657676 429.574802 
L 456.581366 338.392471 
L 459.505056 403.28239 
L 462.428746 343.735916 
L 465.352436 416.463523 
L 468.276126 430.841215 
L 471.199816 437.906284 
L 474.123506 419.258104 
L 477.047197 386.414128 
L 479.970887 303.555742 
L 482.894577 404.403356 
L 485.818267 402.985725 
L 488.741957 412.211819 
L 491.665647 355.966767 
L 494.589337 348.177001 
L 497.513027 447.751102 
L 500.436717 365.073824 
L 503.360408 309.186634 
L 506.284098 426.480443 
L 509.207788 438.625051 
L 512.131478 455.057078 
L 515.055168 458.39794 
L 517.978858 389.901521 
L 520.902548 457.567377 
L 523.826238 428.933899 
L 526.749928 383.987047 
L 529.673618 430.376366 
L 532.597309 429.345543 
L 535.520999 393.987806 
L 538.444689 333.429345 
L 541.368379 380.41801 
L 544.292069 448.618219 
L 547.215759 279.761316 
L 550.139449 333.061024 
L 553.063139 243.424211 
L 555.986829 274.965517 
L 558.910519 216.502143 
L 561.83421 194.391318 
L 564.7579 266.328467 
L 567.68159 293.492089 
L 570.60528 317.597328 
L 573.52897 291.893944 
L 576.45266 390.137461 
L 579.37635 404.350817 
L 582.30004 403.597419 
L 585.22373 436.832925 
L 588.147421 362.596529 
L 591.071111 319.14505 
L 593.994801 353.607704 
L 596.918491 300.224097 
L 599.842181 272.30755 
L 602.765871 342.144837 
L 605.689561 344.347767 
L 608.613251 358.017325 
L 611.536941 347.831382 
L 614.460631 351.155559 
L 617.384322 288.217327 
L 620.308012 383.276535 
L 623.231702 443.808551 
L 626.155392 479.283156 
L 629.079082 432.737266 
L 632.002772 401.536962 
L 634.926462 377.489002 
L 637.850152 409.401497 
L 640.773842 353.429009 
L 643.697532 207.603776 
L 646.621223 77.929843 
L 649.544913 71.686905 
L 652.468603 265.777708 
L 655.392293 326.204942 
L 658.315983 295.761866 
L 661.239673 414.908141 
L 664.163363 342.628294 
L 667.087053 402.308584 
L 670.010743 338.305965 
L 672.934433 179.544643 
L 675.858124 71.456499 
L 678.781814 114.511428 
L 681.705504 325.12352 
L 684.629194 385.353222 
L 687.552884 380.972092 
L 690.476574 457.014799 
L 693.400264 409.124491 
L 696.323954 418.182996 
L 699.247644 387.433303 
L 702.171335 382.267049 
L 705.095025 392.50784 
L 708.018715 392.950091 
L 710.942405 392.435397 
L 713.866095 388.13605 
L 716.789785 390.239637 
L 719.713475 389.971481 
L 722.637165 387.264455 
L 725.560855 392.288411 
L 728.484545 386.624882 
L 728.484545 386.624882 
" style="fill:none;stroke:#8172b3;stroke-dasharray:7.5,1.5,1.5,1.5;stroke-dashoffset:0;stroke-width:1.5;"/>
   </g>
   <g id="line2d_6"/>
   <g id="line2d_7"/>
   <g id="line2d_8"/>
   <g id="line2d_9"/>
   <g id="line2d_10"/>
   <g id="patch_3">
    <path d="M 105.3 529.9416 
L 105.3 71.4528 
" style="fill:none;stroke:#262626;stroke-linecap:square;stroke-linejoin:miter;stroke-width:1.25;"/>
   </g>
   <g id="patch_4">
    <path d="M 758.16 529.9416 
L 758.16 71.4528 
" style="fill:none;stroke:#262626;stroke-linecap:square;stroke-linejoin:miter;stroke-width:1.25;"/>
   </g>
   <g id="patch_5">
    <path d="M 105.3 529.9416 
L 758.16 529.9416 
" style="fill:none;stroke:#262626;stroke-linecap:square;stroke-linejoin:miter;stroke-width:1.25;"/>
   </g>
   <g id="patch_6">
    <path d="M 105.3 71.4528 
L 758.16 71.4528 
" style="fill:none;stroke:#262626;stroke-linecap:square;stroke-linejoin:miter;stroke-width:1.25;"/>
   </g>
   <g id="text_16">
    <!-- Activations for &gt;M&lt; -->
    <g style="fill:#262626;" transform="translate(380.376563 65.4528)scale(0.12 -0.12)">
     <defs>
      <path d="M -9 0 
L 1750 4581 
L 2403 4581 
L 4278 0 
L 3588 0 
L 3053 1388 
L 1138 1388 
L 634 0 
L -9 0 
z
M 1313 1881 
L 2866 1881 
L 2388 3150 
Q 2169 3728 2063 4100 
Q 1975 3659 1816 3225 
L 1313 1881 
z
" id="ArialMT-41" transform="scale(0.015625)"/>
      <path d="M 2588 1216 
L 3141 1144 
Q 3050 572 2676 248 
Q 2303 -75 1759 -75 
Q 1078 -75 664 370 
Q 250 816 250 1647 
Q 250 2184 428 2587 
Q 606 2991 970 3192 
Q 1334 3394 1763 3394 
Q 2303 3394 2647 3120 
Q 2991 2847 3088 2344 
L 2541 2259 
Q 2463 2594 2264 2762 
Q 2066 2931 1784 2931 
Q 1359 2931 1093 2626 
Q 828 2322 828 1663 
Q 828 994 1084 691 
Q 1341 388 1753 388 
Q 2084 388 2306 591 
Q 2528 794 2588 1216 
z
" id="ArialMT-63" transform="scale(0.015625)"/>
      <path d="M 1650 503 
L 1731 6 
Q 1494 -44 1306 -44 
Q 1000 -44 831 53 
Q 663 150 594 308 
Q 525 466 525 972 
L 525 2881 
L 113 2881 
L 113 3319 
L 525 3319 
L 525 4141 
L 1084 4478 
L 1084 3319 
L 1650 3319 
L 1650 2881 
L 1084 2881 
L 1084 941 
Q 1084 700 1114 631 
Q 1144 563 1211 522 
Q 1278 481 1403 481 
Q 1497 481 1650 503 
z
" id="ArialMT-74" transform="scale(0.015625)"/>
      <path d="M 425 3934 
L 425 4581 
L 988 4581 
L 988 3934 
L 425 3934 
z
M 425 0 
L 425 3319 
L 988 3319 
L 988 0 
L 425 0 
z
" id="ArialMT-69" transform="scale(0.015625)"/>
      <path d="M 1344 0 
L 81 3319 
L 675 3319 
L 1388 1331 
Q 1503 1009 1600 663 
Q 1675 925 1809 1294 
L 2547 3319 
L 3125 3319 
L 1869 0 
L 1344 0 
z
" id="ArialMT-76" transform="scale(0.015625)"/>
      <path d="M 2588 409 
Q 2275 144 1986 34 
Q 1697 -75 1366 -75 
Q 819 -75 525 192 
Q 231 459 231 875 
Q 231 1119 342 1320 
Q 453 1522 633 1644 
Q 813 1766 1038 1828 
Q 1203 1872 1538 1913 
Q 2219 1994 2541 2106 
Q 2544 2222 2544 2253 
Q 2544 2597 2384 2738 
Q 2169 2928 1744 2928 
Q 1347 2928 1158 2789 
Q 969 2650 878 2297 
L 328 2372 
Q 403 2725 575 2942 
Q 747 3159 1072 3276 
Q 1397 3394 1825 3394 
Q 2250 3394 2515 3294 
Q 2781 3194 2906 3042 
Q 3031 2891 3081 2659 
Q 3109 2516 3109 2141 
L 3109 1391 
Q 3109 606 3145 398 
Q 3181 191 3288 0 
L 2700 0 
Q 2613 175 2588 409 
z
M 2541 1666 
Q 2234 1541 1622 1453 
Q 1275 1403 1131 1340 
Q 988 1278 909 1158 
Q 831 1038 831 891 
Q 831 666 1001 516 
Q 1172 366 1500 366 
Q 1825 366 2078 508 
Q 2331 650 2450 897 
Q 2541 1088 2541 1459 
L 2541 1666 
z
" id="ArialMT-61" transform="scale(0.015625)"/>
      <path d="M 213 1659 
Q 213 2581 725 3025 
Q 1153 3394 1769 3394 
Q 2453 3394 2887 2945 
Q 3322 2497 3322 1706 
Q 3322 1066 3130 698 
Q 2938 331 2570 128 
Q 2203 -75 1769 -75 
Q 1072 -75 642 372 
Q 213 819 213 1659 
z
M 791 1659 
Q 791 1022 1069 705 
Q 1347 388 1769 388 
Q 2188 388 2466 706 
Q 2744 1025 2744 1678 
Q 2744 2294 2464 2611 
Q 2184 2928 1769 2928 
Q 1347 2928 1069 2612 
Q 791 2297 791 1659 
z
" id="ArialMT-6f" transform="scale(0.015625)"/>
      <path d="M 422 0 
L 422 3319 
L 928 3319 
L 928 2847 
Q 1294 3394 1984 3394 
Q 2284 3394 2536 3286 
Q 2788 3178 2913 3003 
Q 3038 2828 3088 2588 
Q 3119 2431 3119 2041 
L 3119 0 
L 2556 0 
L 2556 2019 
Q 2556 2363 2490 2533 
Q 2425 2703 2258 2804 
Q 2091 2906 1866 2906 
Q 1506 2906 1245 2678 
Q 984 2450 984 1813 
L 984 0 
L 422 0 
z
" id="ArialMT-6e" transform="scale(0.015625)"/>
      <path d="M 197 991 
L 753 1078 
Q 800 744 1014 566 
Q 1228 388 1613 388 
Q 2000 388 2187 545 
Q 2375 703 2375 916 
Q 2375 1106 2209 1216 
Q 2094 1291 1634 1406 
Q 1016 1563 777 1677 
Q 538 1791 414 1992 
Q 291 2194 291 2438 
Q 291 2659 392 2848 
Q 494 3038 669 3163 
Q 800 3259 1026 3326 
Q 1253 3394 1513 3394 
Q 1903 3394 2198 3281 
Q 2494 3169 2634 2976 
Q 2775 2784 2828 2463 
L 2278 2388 
Q 2241 2644 2061 2787 
Q 1881 2931 1553 2931 
Q 1166 2931 1000 2803 
Q 834 2675 834 2503 
Q 834 2394 903 2306 
Q 972 2216 1119 2156 
Q 1203 2125 1616 2013 
Q 2213 1853 2448 1751 
Q 2684 1650 2818 1456 
Q 2953 1263 2953 975 
Q 2953 694 2789 445 
Q 2625 197 2315 61 
Q 2006 -75 1616 -75 
Q 969 -75 630 194 
Q 291 463 197 991 
z
" id="ArialMT-73" transform="scale(0.015625)"/>
      <path id="ArialMT-20" transform="scale(0.015625)"/>
      <path d="M 556 0 
L 556 2881 
L 59 2881 
L 59 3319 
L 556 3319 
L 556 3672 
Q 556 4006 616 4169 
Q 697 4388 901 4523 
Q 1106 4659 1475 4659 
Q 1713 4659 2000 4603 
L 1916 4113 
Q 1741 4144 1584 4144 
Q 1328 4144 1222 4034 
Q 1116 3925 1116 3625 
L 1116 3319 
L 1763 3319 
L 1763 2881 
L 1116 2881 
L 1116 0 
L 556 0 
z
" id="ArialMT-66" transform="scale(0.015625)"/>
      <path d="M 416 0 
L 416 3319 
L 922 3319 
L 922 2816 
Q 1116 3169 1280 3281 
Q 1444 3394 1641 3394 
Q 1925 3394 2219 3213 
L 2025 2691 
Q 1819 2813 1613 2813 
Q 1428 2813 1281 2702 
Q 1134 2591 1072 2394 
Q 978 2094 978 1738 
L 978 0 
L 416 0 
z
" id="ArialMT-72" transform="scale(0.015625)"/>
      <path d="M 3384 2003 
L 350 706 
L 350 1266 
L 2753 2263 
L 350 3250 
L 350 3809 
L 3384 2528 
L 3384 2003 
z
" id="ArialMT-3e" transform="scale(0.015625)"/>
      <path d="M 475 0 
L 475 4581 
L 1388 4581 
L 2472 1338 
Q 2622 884 2691 659 
Q 2769 909 2934 1394 
L 4031 4581 
L 4847 4581 
L 4847 0 
L 4263 0 
L 4263 3834 
L 2931 0 
L 2384 0 
L 1059 3900 
L 1059 0 
L 475 0 
z
" id="ArialMT-4d" transform="scale(0.015625)"/>
      <path d="M 350 2003 
L 350 2528 
L 3384 3809 
L 3384 3250 
L 978 2263 
L 3384 1266 
L 3384 706 
L 350 2003 
z
" id="ArialMT-3c" transform="scale(0.015625)"/>
     </defs>
     <use xlink:href="#ArialMT-41"/>
     <use x="66.699219" xlink:href="#ArialMT-63"/>
     <use x="116.699219" xlink:href="#ArialMT-74"/>
     <use x="144.482422" xlink:href="#ArialMT-69"/>
     <use x="166.699219" xlink:href="#ArialMT-76"/>
     <use x="216.699219" xlink:href="#ArialMT-61"/>
     <use x="272.314453" xlink:href="#ArialMT-74"/>
     <use x="300.097656" xlink:href="#ArialMT-69"/>
     <use x="322.314453" xlink:href="#ArialMT-6f"/>
     <use x="377.929688" xlink:href="#ArialMT-6e"/>
     <use x="433.544922" xlink:href="#ArialMT-73"/>
     <use x="483.544922" xlink:href="#ArialMT-20"/>
     <use x="511.328125" xlink:href="#ArialMT-66"/>
     <use x="539.111328" xlink:href="#ArialMT-6f"/>
     <use x="594.726562" xlink:href="#ArialMT-72"/>
     <use x="628.027344" xlink:href="#ArialMT-20"/>
     <use x="655.810547" xlink:href="#ArialMT-3e"/>
     <use x="714.208984" xlink:href="#ArialMT-4d"/>
     <use x="797.509766" xlink:href="#ArialMT-3c"/>
    </g>
   </g>
   <g id="legend_1">
    <g id="patch_7">
     <path d="M 113 158.514363 
L 223.415938 158.514363 
Q 225.615938 158.514363 225.615938 156.314363 
L 225.615938 79.1528 
Q 225.615938 76.9528 223.415938 76.9528 
L 113 76.9528 
Q 110.8 76.9528 110.8 79.1528 
L 110.8 156.314363 
Q 110.8 158.514363 113 158.514363 
z
" style="fill:#ffffff;opacity:0.8;stroke:#cccccc;stroke-linejoin:miter;"/>
    </g>
    <g id="line2d_11">
     <path d="M 115.2 85.376394 
L 137.2 85.376394 
" style="fill:none;stroke:#4c72b0;stroke-linecap:round;stroke-width:1.5;"/>
    </g>
    <g id="line2d_12"/>
    <g id="text_17">
     <!-- regular -->
     <g style="fill:#262626;" transform="translate(146 89.226394)scale(0.11 -0.11)">
      <defs>
       <path d="M 2694 1069 
L 3275 997 
Q 3138 488 2766 206 
Q 2394 -75 1816 -75 
Q 1088 -75 661 373 
Q 234 822 234 1631 
Q 234 2469 665 2931 
Q 1097 3394 1784 3394 
Q 2450 3394 2872 2941 
Q 3294 2488 3294 1666 
Q 3294 1616 3291 1516 
L 816 1516 
Q 847 969 1125 678 
Q 1403 388 1819 388 
Q 2128 388 2347 550 
Q 2566 713 2694 1069 
z
M 847 1978 
L 2700 1978 
Q 2663 2397 2488 2606 
Q 2219 2931 1791 2931 
Q 1403 2931 1139 2672 
Q 875 2413 847 1978 
z
" id="ArialMT-65" transform="scale(0.015625)"/>
       <path d="M 319 -275 
L 866 -356 
Q 900 -609 1056 -725 
Q 1266 -881 1628 -881 
Q 2019 -881 2231 -725 
Q 2444 -569 2519 -288 
Q 2563 -116 2559 434 
Q 2191 0 1641 0 
Q 956 0 581 494 
Q 206 988 206 1678 
Q 206 2153 378 2554 
Q 550 2956 876 3175 
Q 1203 3394 1644 3394 
Q 2231 3394 2613 2919 
L 2613 3319 
L 3131 3319 
L 3131 450 
Q 3131 -325 2973 -648 
Q 2816 -972 2473 -1159 
Q 2131 -1347 1631 -1347 
Q 1038 -1347 672 -1080 
Q 306 -813 319 -275 
z
M 784 1719 
Q 784 1066 1043 766 
Q 1303 466 1694 466 
Q 2081 466 2343 764 
Q 2606 1063 2606 1700 
Q 2606 2309 2336 2618 
Q 2066 2928 1684 2928 
Q 1309 2928 1046 2623 
Q 784 2319 784 1719 
z
" id="ArialMT-67" transform="scale(0.015625)"/>
       <path d="M 2597 0 
L 2597 488 
Q 2209 -75 1544 -75 
Q 1250 -75 995 37 
Q 741 150 617 320 
Q 494 491 444 738 
Q 409 903 409 1263 
L 409 3319 
L 972 3319 
L 972 1478 
Q 972 1038 1006 884 
Q 1059 663 1231 536 
Q 1403 409 1656 409 
Q 1909 409 2131 539 
Q 2353 669 2445 892 
Q 2538 1116 2538 1541 
L 2538 3319 
L 3100 3319 
L 3100 0 
L 2597 0 
z
" id="ArialMT-75" transform="scale(0.015625)"/>
       <path d="M 409 0 
L 409 4581 
L 972 4581 
L 972 0 
L 409 0 
z
" id="ArialMT-6c" transform="scale(0.015625)"/>
      </defs>
      <use xlink:href="#ArialMT-72"/>
      <use x="33.300781" xlink:href="#ArialMT-65"/>
      <use x="88.916016" xlink:href="#ArialMT-67"/>
      <use x="144.53125" xlink:href="#ArialMT-75"/>
      <use x="200.146484" xlink:href="#ArialMT-6c"/>
      <use x="222.363281" xlink:href="#ArialMT-61"/>
      <use x="277.978516" xlink:href="#ArialMT-72"/>
     </g>
    </g>
    <g id="line2d_13">
     <path d="M 115.2 101.0978 
L 137.2 101.0978 
" style="fill:none;stroke:#dd8452;stroke-dasharray:6,2.25;stroke-dashoffset:0;stroke-width:1.5;"/>
    </g>
    <g id="line2d_14"/>
    <g id="text_18">
     <!-- splitted_3s -->
     <g style="fill:#262626;" transform="translate(146 104.9478)scale(0.11 -0.11)">
      <defs>
       <path d="M 422 -1272 
L 422 3319 
L 934 3319 
L 934 2888 
Q 1116 3141 1344 3267 
Q 1572 3394 1897 3394 
Q 2322 3394 2647 3175 
Q 2972 2956 3137 2557 
Q 3303 2159 3303 1684 
Q 3303 1175 3120 767 
Q 2938 359 2589 142 
Q 2241 -75 1856 -75 
Q 1575 -75 1351 44 
Q 1128 163 984 344 
L 984 -1272 
L 422 -1272 
z
M 931 1641 
Q 931 1000 1190 694 
Q 1450 388 1819 388 
Q 2194 388 2461 705 
Q 2728 1022 2728 1688 
Q 2728 2322 2467 2637 
Q 2206 2953 1844 2953 
Q 1484 2953 1207 2617 
Q 931 2281 931 1641 
z
" id="ArialMT-70" transform="scale(0.015625)"/>
       <path d="M 2575 0 
L 2575 419 
Q 2259 -75 1647 -75 
Q 1250 -75 917 144 
Q 584 363 401 755 
Q 219 1147 219 1656 
Q 219 2153 384 2558 
Q 550 2963 881 3178 
Q 1213 3394 1622 3394 
Q 1922 3394 2156 3267 
Q 2391 3141 2538 2938 
L 2538 4581 
L 3097 4581 
L 3097 0 
L 2575 0 
z
M 797 1656 
Q 797 1019 1065 703 
Q 1334 388 1700 388 
Q 2069 388 2326 689 
Q 2584 991 2584 1609 
Q 2584 2291 2321 2609 
Q 2059 2928 1675 2928 
Q 1300 2928 1048 2622 
Q 797 2316 797 1656 
z
" id="ArialMT-64" transform="scale(0.015625)"/>
       <path d="M -97 -1272 
L -97 -866 
L 3631 -866 
L 3631 -1272 
L -97 -1272 
z
" id="ArialMT-5f" transform="scale(0.015625)"/>
       <path d="M 269 1209 
L 831 1284 
Q 928 806 1161 595 
Q 1394 384 1728 384 
Q 2125 384 2398 659 
Q 2672 934 2672 1341 
Q 2672 1728 2419 1979 
Q 2166 2231 1775 2231 
Q 1616 2231 1378 2169 
L 1441 2663 
Q 1497 2656 1531 2656 
Q 1891 2656 2178 2843 
Q 2466 3031 2466 3422 
Q 2466 3731 2256 3934 
Q 2047 4138 1716 4138 
Q 1388 4138 1169 3931 
Q 950 3725 888 3313 
L 325 3413 
Q 428 3978 793 4289 
Q 1159 4600 1703 4600 
Q 2078 4600 2393 4439 
Q 2709 4278 2876 4000 
Q 3044 3722 3044 3409 
Q 3044 3113 2884 2869 
Q 2725 2625 2413 2481 
Q 2819 2388 3044 2092 
Q 3269 1797 3269 1353 
Q 3269 753 2831 336 
Q 2394 -81 1725 -81 
Q 1122 -81 723 278 
Q 325 638 269 1209 
z
" id="ArialMT-33" transform="scale(0.015625)"/>
      </defs>
      <use xlink:href="#ArialMT-73"/>
      <use x="50" xlink:href="#ArialMT-70"/>
      <use x="105.615234" xlink:href="#ArialMT-6c"/>
      <use x="127.832031" xlink:href="#ArialMT-69"/>
      <use x="150.048828" xlink:href="#ArialMT-74"/>
      <use x="177.832031" xlink:href="#ArialMT-74"/>
      <use x="205.615234" xlink:href="#ArialMT-65"/>
      <use x="261.230469" xlink:href="#ArialMT-64"/>
      <use x="316.845703" xlink:href="#ArialMT-5f"/>
      <use x="372.460938" xlink:href="#ArialMT-33"/>
      <use x="428.076172" xlink:href="#ArialMT-73"/>
     </g>
    </g>
    <g id="line2d_15">
     <path d="M 115.2 116.6903 
L 137.2 116.6903 
" style="fill:none;stroke:#55a868;stroke-dasharray:1.5,1.5;stroke-dashoffset:0;stroke-width:1.5;"/>
    </g>
    <g id="line2d_16"/>
    <g id="text_19">
     <!-- splitted_1s -->
     <g style="fill:#262626;" transform="translate(146 120.5403)scale(0.11 -0.11)">
      <use xlink:href="#ArialMT-73"/>
      <use x="50" xlink:href="#ArialMT-70"/>
      <use x="105.615234" xlink:href="#ArialMT-6c"/>
      <use x="127.832031" xlink:href="#ArialMT-69"/>
      <use x="150.048828" xlink:href="#ArialMT-74"/>
      <use x="177.832031" xlink:href="#ArialMT-74"/>
      <use x="205.615234" xlink:href="#ArialMT-65"/>
      <use x="261.230469" xlink:href="#ArialMT-64"/>
      <use x="316.845703" xlink:href="#ArialMT-5f"/>
      <use x="372.460938" xlink:href="#ArialMT-31"/>
      <use x="428.076172" xlink:href="#ArialMT-73"/>
     </g>
    </g>
    <g id="line2d_17">
     <path d="M 115.2 132.384206 
L 137.2 132.384206 
" style="fill:none;stroke:#c44e52;stroke-dasharray:4.5,1.875,2.25,1.875;stroke-dashoffset:0;stroke-width:1.5;"/>
    </g>
    <g id="line2d_18"/>
    <g id="text_20">
     <!-- overlap_1f_3s -->
     <g style="fill:#262626;" transform="translate(146 136.234206)scale(0.11 -0.11)">
      <use xlink:href="#ArialMT-6f"/>
      <use x="55.615234" xlink:href="#ArialMT-76"/>
      <use x="105.615234" xlink:href="#ArialMT-65"/>
      <use x="161.230469" xlink:href="#ArialMT-72"/>
      <use x="194.53125" xlink:href="#ArialMT-6c"/>
      <use x="216.748047" xlink:href="#ArialMT-61"/>
      <use x="272.363281" xlink:href="#ArialMT-70"/>
      <use x="327.978516" xlink:href="#ArialMT-5f"/>
      <use x="383.59375" xlink:href="#ArialMT-31"/>
      <use x="439.208984" xlink:href="#ArialMT-66"/>
      <use x="466.992188" xlink:href="#ArialMT-5f"/>
      <use x="522.607422" xlink:href="#ArialMT-33"/>
      <use x="578.222656" xlink:href="#ArialMT-73"/>
     </g>
    </g>
    <g id="line2d_19">
     <path d="M 115.2 148.078113 
L 137.2 148.078113 
" style="fill:none;stroke:#8172b3;stroke-dasharray:7.5,1.5,1.5,1.5;stroke-dashoffset:0;stroke-width:1.5;"/>
    </g>
    <g id="line2d_20"/>
    <g id="text_21">
     <!-- overlap_10f_3s -->
     <g style="fill:#262626;" transform="translate(146 151.928112)scale(0.11 -0.11)">
      <use xlink:href="#ArialMT-6f"/>
      <use x="55.615234" xlink:href="#ArialMT-76"/>
      <use x="105.615234" xlink:href="#ArialMT-65"/>
      <use x="161.230469" xlink:href="#ArialMT-72"/>
      <use x="194.53125" xlink:href="#ArialMT-6c"/>
      <use x="216.748047" xlink:href="#ArialMT-61"/>
      <use x="272.363281" xlink:href="#ArialMT-70"/>
      <use x="327.978516" xlink:href="#ArialMT-5f"/>
      <use x="383.59375" xlink:href="#ArialMT-31"/>
      <use x="439.208984" xlink:href="#ArialMT-30"/>
      <use x="494.824219" xlink:href="#ArialMT-66"/>
      <use x="522.607422" xlink:href="#ArialMT-5f"/>
      <use x="578.222656" xlink:href="#ArialMT-33"/>
      <use x="633.837891" xlink:href="#ArialMT-73"/>
     </g>
    </g>
   </g>
  </g>
 </g>
 <defs>
  <clipPath id="pc44a03b4ed">
   <rect height="458.4888" width="652.86" x="105.3" y="71.4528"/>
  </clipPath>
 </defs>
</svg>
