<?xml version="1.0" encoding="utf-8" standalone="no"?>
<!DOCTYPE svg PUBLIC "-//W3C//DTD SVG 1.1//EN"
  "http://www.w3.org/Graphics/SVG/1.1/DTD/svg11.dtd">
<svg height="595.44pt" version="1.1" viewBox="0 0 842.4 595.44" width="842.4pt" xmlns="http://www.w3.org/2000/svg" xmlns:xlink="http://www.w3.org/1999/xlink">
 <metadata>
  <rdf:RDF xmlns:cc="http://creativecommons.org/ns#" xmlns:dc="http://purl.org/dc/elements/1.1/" xmlns:rdf="http://www.w3.org/1999/02/22-rdf-syntax-ns#">
   <cc:Work>
    <dc:type rdf:resource="http://purl.org/dc/dcmitype/StillImage"/>
    <dc:date>2021-06-01T00:54:04.018318</dc:date>
    <dc:format>image/svg+xml</dc:format>
    <dc:creator>
     <cc:Agent>
      <dc:title>Matplotlib v3.4.1, https://matplotlib.org/</dc:title>
     </cc:Agent>
    </dc:creator>
   </cc:Work>
  </rdf:RDF>
 </metadata>
 <defs>
  <style type="text/css">*{stroke-linecap:butt;stroke-linejoin:round;}</style>
 </defs>
 <g id="figure_1">
  <g id="patch_1">
   <path d="M 0 595.44 
L 842.4 595.44 
L 842.4 0 
L 0 0 
z
" style="fill:#ffffff;"/>
  </g>
  <g id="axes_1">
   <g id="patch_2">
    <path d="M 105.3 529.9416 
L 758.16 529.9416 
L 758.16 71.4528 
L 105.3 71.4528 
z
" style="fill:#ffffff;"/>
   </g>
   <g id="matplotlib.axis_1">
    <g id="xtick_1">
     <g id="text_1">
      <!-- 0 -->
      <g style="fill:#262626;" transform="translate(131.916939 547.315194)scale(0.11 -0.11)">
       <defs>
        <path d="M 266 2259 
Q 266 3072 433 3567 
Q 600 4063 929 4331 
Q 1259 4600 1759 4600 
Q 2128 4600 2406 4451 
Q 2684 4303 2865 4023 
Q 3047 3744 3150 3342 
Q 3253 2941 3253 2259 
Q 3253 1453 3087 958 
Q 2922 463 2592 192 
Q 2263 -78 1759 -78 
Q 1097 -78 719 397 
Q 266 969 266 2259 
z
M 844 2259 
Q 844 1131 1108 757 
Q 1372 384 1759 384 
Q 2147 384 2411 759 
Q 2675 1134 2675 2259 
Q 2675 3391 2411 3762 
Q 2147 4134 1753 4134 
Q 1366 4134 1134 3806 
Q 844 3388 844 2259 
z
" id="ArialMT-30" transform="scale(0.015625)"/>
       </defs>
       <use xlink:href="#ArialMT-30"/>
      </g>
     </g>
    </g>
    <g id="xtick_2">
     <g id="text_2">
      <!-- 25 -->
      <g style="fill:#262626;" transform="translate(201.950676 547.315194)scale(0.11 -0.11)">
       <defs>
        <path d="M 3222 541 
L 3222 0 
L 194 0 
Q 188 203 259 391 
Q 375 700 629 1000 
Q 884 1300 1366 1694 
Q 2113 2306 2375 2664 
Q 2638 3022 2638 3341 
Q 2638 3675 2398 3904 
Q 2159 4134 1775 4134 
Q 1369 4134 1125 3890 
Q 881 3647 878 3216 
L 300 3275 
Q 359 3922 746 4261 
Q 1134 4600 1788 4600 
Q 2447 4600 2831 4234 
Q 3216 3869 3216 3328 
Q 3216 3053 3103 2787 
Q 2991 2522 2730 2228 
Q 2469 1934 1863 1422 
Q 1356 997 1212 845 
Q 1069 694 975 541 
L 3222 541 
z
" id="ArialMT-32" transform="scale(0.015625)"/>
        <path d="M 266 1200 
L 856 1250 
Q 922 819 1161 601 
Q 1400 384 1738 384 
Q 2144 384 2425 690 
Q 2706 997 2706 1503 
Q 2706 1984 2436 2262 
Q 2166 2541 1728 2541 
Q 1456 2541 1237 2417 
Q 1019 2294 894 2097 
L 366 2166 
L 809 4519 
L 3088 4519 
L 3088 3981 
L 1259 3981 
L 1013 2750 
Q 1425 3038 1878 3038 
Q 2478 3038 2890 2622 
Q 3303 2206 3303 1553 
Q 3303 931 2941 478 
Q 2500 -78 1738 -78 
Q 1113 -78 717 272 
Q 322 622 266 1200 
z
" id="ArialMT-35" transform="scale(0.015625)"/>
       </defs>
       <use xlink:href="#ArialMT-32"/>
       <use x="55.615234" xlink:href="#ArialMT-35"/>
      </g>
     </g>
    </g>
    <g id="xtick_3">
     <g id="text_3">
      <!-- 50 -->
      <g style="fill:#262626;" transform="translate(275.042928 547.315194)scale(0.11 -0.11)">
       <use xlink:href="#ArialMT-35"/>
       <use x="55.615234" xlink:href="#ArialMT-30"/>
      </g>
     </g>
    </g>
    <g id="xtick_4">
     <g id="text_4">
      <!-- 75 -->
      <g style="fill:#262626;" transform="translate(348.135181 547.315194)scale(0.11 -0.11)">
       <defs>
        <path d="M 303 3981 
L 303 4522 
L 3269 4522 
L 3269 4084 
Q 2831 3619 2401 2847 
Q 1972 2075 1738 1259 
Q 1569 684 1522 0 
L 944 0 
Q 953 541 1156 1306 
Q 1359 2072 1739 2783 
Q 2119 3494 2547 3981 
L 303 3981 
z
" id="ArialMT-37" transform="scale(0.015625)"/>
       </defs>
       <use xlink:href="#ArialMT-37"/>
       <use x="55.615234" xlink:href="#ArialMT-35"/>
      </g>
     </g>
    </g>
    <g id="xtick_5">
     <g id="text_5">
      <!-- 100 -->
      <g style="fill:#262626;" transform="translate(418.168918 547.315194)scale(0.11 -0.11)">
       <defs>
        <path d="M 2384 0 
L 1822 0 
L 1822 3584 
Q 1619 3391 1289 3197 
Q 959 3003 697 2906 
L 697 3450 
Q 1169 3672 1522 3987 
Q 1875 4303 2022 4600 
L 2384 4600 
L 2384 0 
z
" id="ArialMT-31" transform="scale(0.015625)"/>
       </defs>
       <use xlink:href="#ArialMT-31"/>
       <use x="55.615234" xlink:href="#ArialMT-30"/>
       <use x="111.230469" xlink:href="#ArialMT-30"/>
      </g>
     </g>
    </g>
    <g id="xtick_6">
     <g id="text_6">
      <!-- 125 -->
      <g style="fill:#262626;" transform="translate(491.261171 547.315194)scale(0.11 -0.11)">
       <use xlink:href="#ArialMT-31"/>
       <use x="55.615234" xlink:href="#ArialMT-32"/>
       <use x="111.230469" xlink:href="#ArialMT-35"/>
      </g>
     </g>
    </g>
    <g id="xtick_7">
     <g id="text_7">
      <!-- 150 -->
      <g style="fill:#262626;" transform="translate(564.353423 547.315194)scale(0.11 -0.11)">
       <use xlink:href="#ArialMT-31"/>
       <use x="55.615234" xlink:href="#ArialMT-35"/>
       <use x="111.230469" xlink:href="#ArialMT-30"/>
      </g>
     </g>
    </g>
    <g id="xtick_8">
     <g id="text_8">
      <!-- 175 -->
      <g style="fill:#262626;" transform="translate(637.445676 547.315194)scale(0.11 -0.11)">
       <use xlink:href="#ArialMT-31"/>
       <use x="55.615234" xlink:href="#ArialMT-37"/>
       <use x="111.230469" xlink:href="#ArialMT-35"/>
      </g>
     </g>
    </g>
    <g id="xtick_9">
     <g id="text_9">
      <!-- 200 -->
      <g style="fill:#262626;" transform="translate(710.537928 547.315194)scale(0.11 -0.11)">
       <use xlink:href="#ArialMT-32"/>
       <use x="55.615234" xlink:href="#ArialMT-30"/>
       <use x="111.230469" xlink:href="#ArialMT-30"/>
      </g>
     </g>
    </g>
   </g>
   <g id="matplotlib.axis_2">
    <g id="ytick_1">
     <g id="text_10">
      <!-- −25 -->
      <g style="fill:#262626;" transform="translate(77.14125 533.878397)scale(0.11 -0.11)">
       <defs>
        <path d="M 3381 1997 
L 356 1997 
L 356 2522 
L 3381 2522 
L 3381 1997 
z
" id="ArialMT-2212" transform="scale(0.015625)"/>
       </defs>
       <use xlink:href="#ArialMT-2212"/>
       <use x="58.398438" xlink:href="#ArialMT-32"/>
       <use x="114.013672" xlink:href="#ArialMT-35"/>
      </g>
     </g>
    </g>
    <g id="ytick_2">
     <g id="text_11">
      <!-- −20 -->
      <g style="fill:#262626;" transform="translate(77.14125 442.180637)scale(0.11 -0.11)">
       <use xlink:href="#ArialMT-2212"/>
       <use x="58.398438" xlink:href="#ArialMT-32"/>
       <use x="114.013672" xlink:href="#ArialMT-30"/>
      </g>
     </g>
    </g>
    <g id="ytick_3">
     <g id="text_12">
      <!-- −15 -->
      <g style="fill:#262626;" transform="translate(77.14125 350.482877)scale(0.11 -0.11)">
       <use xlink:href="#ArialMT-2212"/>
       <use x="58.398438" xlink:href="#ArialMT-31"/>
       <use x="114.013672" xlink:href="#ArialMT-35"/>
      </g>
     </g>
    </g>
    <g id="ytick_4">
     <g id="text_13">
      <!-- −10 -->
      <g style="fill:#262626;" transform="translate(77.14125 258.785117)scale(0.11 -0.11)">
       <use xlink:href="#ArialMT-2212"/>
       <use x="58.398438" xlink:href="#ArialMT-31"/>
       <use x="114.013672" xlink:href="#ArialMT-30"/>
      </g>
     </g>
    </g>
    <g id="ytick_5">
     <g id="text_14">
      <!-- −5 -->
      <g style="fill:#262626;" transform="translate(83.258281 167.087357)scale(0.11 -0.11)">
       <use xlink:href="#ArialMT-2212"/>
       <use x="58.398438" xlink:href="#ArialMT-35"/>
      </g>
     </g>
    </g>
    <g id="ytick_6">
     <g id="text_15">
      <!-- 0 -->
      <g style="fill:#262626;" transform="translate(89.682969 75.389597)scale(0.11 -0.11)">
       <use xlink:href="#ArialMT-30"/>
      </g>
     </g>
    </g>
   </g>
   <g id="line2d_1">
    <path clip-path="url(#p96e2e74fa2)" d="M 134.975455 317.513237 
L 137.899145 317.012517 
L 140.822835 318.343083 
L 143.746525 317.105126 
L 146.670215 318.178904 
L 149.593905 320.219353 
L 152.517595 318.655488 
L 155.441285 321.384797 
L 158.364975 321.751124 
L 161.288665 321.710495 
L 164.212356 326.653455 
L 167.136046 326.028311 
L 170.059736 341.695152 
L 172.983426 354.837615 
L 175.907116 367.381589 
L 178.830806 394.785103 
L 181.754496 424.893579 
L 184.678186 370.205063 
L 187.601876 325.778222 
L 190.525567 363.758229 
L 193.449257 300.58383 
L 196.372947 321.94472 
L 199.296637 395.048292 
L 202.220327 335.103816 
L 205.144017 302.723132 
L 208.067707 310.410372 
L 210.991397 417.844286 
L 213.915087 387.24805 
L 216.838777 377.219761 
L 219.762468 409.901325 
L 222.686158 284.573136 
L 225.609848 305.19651 
L 228.533538 381.707825 
L 231.457228 418.119123 
L 234.380918 320.802538 
L 237.304608 398.296212 
L 240.228298 344.306875 
L 243.151988 322.458365 
L 246.075678 358.874403 
L 248.999369 301.470379 
L 251.923059 307.579604 
L 254.846749 368.664758 
L 257.770439 450.235376 
L 260.694129 343.278099 
L 263.617819 365.933525 
L 266.541509 286.80991 
L 269.465199 281.223004 
L 272.388889 336.039284 
L 275.312579 378.42468 
L 278.23627 411.055873 
L 281.15996 413.975402 
L 284.08365 368.672418 
L 287.00734 366.442833 
L 289.93103 383.672997 
L 292.85472 325.083398 
L 295.77841 335.227505 
L 298.7021 343.755557 
L 301.62579 228.903679 
L 304.549481 71.463833 
L 307.473171 71.494294 
L 310.396861 260.747281 
L 313.320551 296.112714 
L 316.244241 360.873838 
L 319.167931 434.169694 
L 325.015311 309.7634 
L 327.939001 351.252348 
L 330.862691 405.139614 
L 333.786382 305.918618 
L 336.710072 294.705839 
L 339.633762 377.164913 
L 342.557452 435.871222 
L 345.481142 369.310382 
L 348.404832 369.24322 
L 351.328522 280.702486 
L 354.252212 375.579693 
L 357.175902 435.859049 
L 360.099592 241.618495 
L 363.023283 71.45311 
L 365.946973 72.306512 
L 368.870663 370.256764 
L 371.794353 357.572415 
L 374.718043 421.505459 
L 377.641733 375.574761 
L 380.565423 380.20194 
L 383.489113 361.907634 
L 386.412803 330.544236 
L 389.336494 381.679002 
L 392.260184 385.332339 
L 395.183874 400.94846 
L 398.107564 322.434457 
L 401.031254 258.268919 
L 403.954944 303.61916 
L 406.878634 322.555277 
L 409.802324 297.745857 
L 412.726014 314.430631 
L 415.649704 387.585781 
L 418.573395 302.697054 
L 421.497085 353.01392 
L 424.420775 449.657508 
L 427.344465 416.151432 
L 430.268155 425.339468 
L 433.191845 409.867325 
L 436.115535 322.06764 
L 439.039225 331.170009 
L 441.962915 359.715565 
L 444.886605 365.616013 
L 447.810296 365.814139 
L 450.733986 322.394492 
L 453.657676 322.983781 
L 456.581366 426.756539 
L 459.505056 396.106854 
L 462.428746 359.15718 
L 465.352436 331.676536 
L 468.276126 218.402532 
L 471.199816 185.983335 
L 474.123506 317.605619 
L 477.047197 394.38941 
L 479.970887 333.567288 
L 482.894577 365.057174 
L 485.818267 318.383642 
L 488.741957 383.774823 
L 491.665647 488.657634 
L 494.589337 456.399852 
L 497.513027 438.382465 
L 500.436717 404.473911 
L 503.360408 277.960707 
L 506.284098 239.594224 
L 509.207788 307.125425 
L 512.131478 430.941467 
L 515.055168 477.497571 
L 517.978858 342.680064 
L 520.902548 359.201133 
L 523.826238 291.038037 
L 526.749928 344.945189 
L 529.673618 462.012101 
L 532.597309 417.457862 
L 535.520999 328.971434 
L 538.444689 315.791752 
L 541.368379 495.200453 
L 544.292069 332.190636 
L 547.215759 323.256415 
L 550.139449 403.06485 
L 553.063139 328.21097 
L 555.986829 392.022809 
L 558.910519 297.553152 
L 561.83421 357.103632 
L 564.7579 437.613782 
L 567.68159 383.537904 
L 570.60528 337.566192 
L 573.52897 351.949446 
L 576.45266 353.216943 
L 579.37635 366.22099 
L 582.30004 321.710302 
L 585.22373 242.022933 
L 588.147421 290.563815 
L 591.071111 329.677224 
L 593.994801 276.794809 
L 596.918491 283.701891 
L 599.842181 373.92203 
L 602.765871 369.350084 
L 605.689561 342.741891 
L 608.613251 420.655027 
L 611.536941 404.853723 
L 614.460631 375.802235 
L 617.384322 419.843388 
L 620.308012 454.945247 
L 623.231702 412.230953 
L 626.155392 397.526514 
L 629.079082 372.535531 
L 632.002772 324.618918 
L 634.926462 296.140243 
L 637.850152 371.147527 
L 640.773842 278.410514 
L 643.697532 191.357667 
L 646.621223 285.606338 
L 649.544913 371.671946 
L 652.468603 317.652229 
L 655.392293 406.71371 
L 658.315983 376.037685 
L 661.239673 393.118205 
L 664.163363 379.86956 
L 667.087053 417.951324 
L 670.010743 354.872595 
L 672.934433 374.428644 
L 675.858124 456.748322 
L 678.781814 363.384364 
L 681.705504 352.624576 
L 684.629194 405.770092 
L 687.552884 362.633275 
L 690.476574 436.185552 
L 693.400264 327.596898 
L 696.323954 342.803386 
L 699.247644 353.507766 
L 702.171335 340.819675 
L 705.095025 323.674355 
L 708.018715 319.520769 
L 710.942405 323.045206 
L 713.866095 322.101832 
L 716.789785 324.062999 
L 719.713475 322.133437 
L 722.637165 321.742869 
L 725.560855 321.95845 
L 728.484545 327.379375 
L 728.484545 327.379375 
" style="fill:none;stroke:#4c72b0;stroke-linecap:round;stroke-width:1.5;"/>
   </g>
   <g id="line2d_2">
    <path clip-path="url(#p96e2e74fa2)" d="M 134.975455 313.749205 
L 137.899145 315.121799 
L 140.822835 314.374348 
L 143.746525 312.874567 
L 146.670215 315.175056 
L 149.593905 316.074792 
L 152.517595 312.057943 
L 155.441285 314.17164 
L 158.364975 312.109626 
L 161.288665 311.905081 
L 164.212356 314.745888 
L 167.136046 312.32965 
L 172.983426 332.271894 
L 175.907116 343.45034 
L 178.830806 374.978283 
L 181.754496 396.480755 
L 184.678186 368.256122 
L 187.601876 288.588761 
L 190.525567 349.780463 
L 193.449257 277.356272 
L 196.372947 300.524766 
L 199.296637 374.664059 
L 202.220327 305.020421 
L 205.144017 328.101816 
L 208.067707 332.708584 
L 210.991397 438.207181 
L 213.915087 371.975467 
L 216.838777 372.804981 
L 219.762468 388.587151 
L 222.686158 278.805769 
L 225.609848 291.12958 
L 228.533538 354.735369 
L 231.457228 405.569937 
L 234.380918 290.335151 
L 237.304608 378.561241 
L 240.228298 327.859527 
L 243.151988 291.014933 
L 246.075678 330.978424 
L 248.999369 317.597993 
L 251.923059 323.668531 
L 254.846749 368.385163 
L 257.770439 437.60717 
L 260.694129 340.721906 
L 263.617819 365.75184 
L 266.541509 304.038989 
L 269.465199 297.899261 
L 272.388889 336.779477 
L 275.312579 385.058237 
L 278.23627 414.236142 
L 281.15996 424.911349 
L 284.08365 378.480613 
L 287.00734 370.68957 
L 289.93103 407.677967 
L 292.85472 355.606998 
L 295.77841 320.973433 
L 298.7021 344.280623 
L 301.62579 242.492171 
L 304.549481 71.48064 
L 307.473171 71.467044 
L 310.396861 220.377411 
L 313.320551 293.229529 
L 316.244241 375.982277 
L 319.167931 441.421031 
L 322.091621 370.706186 
L 325.015311 318.075451 
L 327.939001 375.268057 
L 330.862691 403.602246 
L 333.786382 291.96978 
L 336.710072 316.308231 
L 339.633762 366.202206 
L 342.557452 426.774414 
L 345.481142 353.564556 
L 348.404832 398.483495 
L 351.328522 261.034764 
L 354.252212 360.528778 
L 357.175902 274.507297 
L 360.099592 175.53388 
L 363.023283 86.251926 
L 365.946973 96.496162 
L 368.870663 203.51674 
L 371.794353 219.582352 
L 374.718043 269.865077 
L 377.641733 242.604544 
L 380.565423 270.389164 
L 383.489113 290.211759 
L 386.412803 332.014879 
L 389.336494 381.201491 
L 392.260184 390.099403 
L 395.183874 388.515057 
L 398.107564 266.68862 
L 401.031254 157.660322 
L 403.954944 265.994287 
L 406.878634 293.922901 
L 409.802324 299.117542 
L 412.726014 334.392237 
L 415.649704 321.298921 
L 418.573395 212.931961 
L 421.497085 326.779854 
L 424.420775 383.358003 
L 427.344465 321.308453 
L 430.268155 358.988437 
L 433.191845 369.278585 
L 436.115535 296.508932 
L 439.039225 327.6681 
L 441.962915 330.142019 
L 444.886605 311.286863 
L 447.810296 338.991467 
L 450.733986 373.931229 
L 453.657676 311.026665 
L 456.581366 417.481299 
L 459.505056 391.175245 
L 462.428746 341.740469 
L 465.352436 305.893345 
L 468.276126 187.614169 
L 471.199816 184.684312 
L 474.123506 276.848346 
L 477.047197 406.750124 
L 479.970887 311.491513 
L 482.894577 363.328134 
L 485.818267 319.408938 
L 488.741957 378.786127 
L 491.665647 492.432702 
L 494.589337 432.382815 
L 497.513027 434.565946 
L 500.436717 401.96781 
L 503.360408 289.619042 
L 506.284098 283.073547 
L 509.207788 321.636057 
L 512.131478 433.691868 
L 515.055168 471.383186 
L 517.978858 348.423015 
L 520.902548 353.116796 
L 523.826238 279.160536 
L 526.749928 343.036982 
L 529.673618 462.581749 
L 532.597309 418.888121 
L 535.520999 335.683241 
L 538.444689 311.915208 
L 541.368379 416.926412 
L 544.292069 317.549441 
L 547.215759 297.030203 
L 550.139449 367.147294 
L 553.063139 321.425846 
L 555.986829 256.652882 
L 558.910519 73.47045 
L 561.83421 116.436583 
L 564.7579 257.550571 
L 567.68159 351.510693 
L 570.60528 334.994731 
L 573.52897 249.470385 
L 576.45266 229.891564 
L 579.37635 199.814456 
L 582.30004 130.184929 
L 585.22373 239.18412 
L 588.147421 249.954105 
L 591.071111 272.799263 
L 593.994801 257.760993 
L 596.918491 195.381443 
L 599.842181 326.109989 
L 602.765871 324.350761 
L 605.689561 329.454437 
L 608.613251 449.626691 
L 611.536941 392.031763 
L 614.460631 377.765518 
L 617.384322 461.570514 
L 620.308012 430.5612 
L 623.231702 379.89555 
L 626.155392 398.522777 
L 629.079082 346.861791 
L 632.002772 325.742158 
L 634.926462 267.512765 
L 637.850152 324.721828 
L 640.773842 257.551586 
L 643.697532 177.913975 
L 646.621223 267.175978 
L 649.544913 378.793123 
L 652.468603 311.087076 
L 655.392293 411.240916 
L 658.315983 341.405099 
L 661.239673 383.306617 
L 664.163363 363.89542 
L 667.087053 409.752206 
L 670.010743 361.259106 
L 672.934433 367.881697 
L 675.858124 457.151781 
L 678.781814 371.059133 
L 681.705504 346.352833 
L 684.629194 401.447273 
L 687.552884 333.619618 
L 690.476574 408.427866 
L 693.400264 337.865008 
L 696.323954 344.21152 
L 699.247644 342.737169 
L 702.171335 329.188187 
L 705.095025 316.611314 
L 708.018715 315.598646 
L 710.942405 319.720784 
L 713.866095 318.295318 
L 716.789785 320.567841 
L 719.713475 318.730118 
L 722.637165 318.789934 
L 725.560855 319.286316 
L 728.484545 317.040238 
L 728.484545 317.040238 
" style="fill:none;stroke:#dd8452;stroke-dasharray:6,2.25;stroke-dashoffset:0;stroke-width:1.5;"/>
   </g>
   <g id="line2d_3">
    <path clip-path="url(#p96e2e74fa2)" d="M 134.975455 308.250869 
L 137.899145 308.651616 
L 140.822835 307.899688 
L 143.746525 305.613155 
L 146.670215 313.271607 
L 149.593905 312.361324 
L 152.517595 311.747846 
L 155.441285 335.03223 
L 158.364975 333.179658 
L 161.288665 319.635136 
L 164.212356 322.734602 
L 167.136046 314.597328 
L 170.059736 313.209972 
L 172.983426 330.453918 
L 175.907116 341.727893 
L 178.830806 364.224704 
L 181.754496 398.990879 
L 184.678186 351.740755 
L 187.601876 306.40239 
L 190.525567 209.933701 
L 193.449257 71.456293 
L 196.372947 71.802598 
L 199.296637 266.600349 
L 202.220327 257.572171 
L 205.144017 203.511528 
L 208.067707 137.709936 
L 210.991397 197.5444 
L 213.915087 280.401501 
L 216.838777 290.400493 
L 219.762468 321.111149 
L 222.686158 240.844966 
L 225.609848 230.382 
L 228.533538 316.007054 
L 231.457228 337.230875 
L 234.380918 293.000866 
L 237.304608 352.142325 
L 240.228298 331.127089 
L 243.151988 313.644615 
L 246.075678 320.792184 
L 248.999369 342.840115 
L 251.923059 260.114617 
L 254.846749 303.269588 
L 257.770439 368.037498 
L 260.694129 314.076285 
L 263.617819 368.944422 
L 266.541509 337.908471 
L 272.388889 351.073286 
L 275.312579 342.458152 
L 278.23627 281.116036 
L 281.15996 275.800032 
L 284.08365 263.614935 
L 287.00734 245.999345 
L 289.93103 267.142555 
L 292.85472 261.027908 
L 295.77841 273.534243 
L 298.7021 287.097217 
L 301.62579 260.555101 
L 304.549481 71.556091 
L 307.473171 71.458945 
L 310.396861 202.702766 
L 313.320551 313.260483 
L 319.167931 474.421577 
L 322.091621 408.434337 
L 325.015311 323.412985 
L 327.939001 369.903641 
L 330.862691 436.899142 
L 333.786382 291.39917 
L 336.710072 322.082594 
L 342.557452 455.133264 
L 345.481142 389.021881 
L 348.404832 408.248804 
L 351.328522 286.471654 
L 354.252212 321.827135 
L 357.175902 267.252304 
L 360.099592 115.594809 
L 363.023283 71.498593 
L 365.946973 87.72669 
L 368.870663 222.795468 
L 371.794353 216.63874 
L 374.718043 336.814509 
L 377.641733 288.553554 
L 380.565423 273.824174 
L 383.489113 317.754476 
L 386.412803 337.491231 
L 389.336494 405.227378 
L 392.260184 384.875607 
L 395.183874 380.788203 
L 398.107564 313.929194 
L 401.031254 264.299055 
L 403.954944 319.810595 
L 406.878634 310.122924 
L 409.802324 358.544892 
L 412.726014 365.409946 
L 415.649704 276.933452 
L 418.573395 194.829503 
L 421.497085 125.022798 
L 424.420775 167.780231 
L 427.344465 144.568151 
L 430.268155 143.588438 
L 433.191845 163.485466 
L 436.115535 191.60362 
L 439.039225 276.707691 
L 441.962915 285.572967 
L 444.886605 260.412453 
L 447.810296 375.893078 
L 450.733986 320.492966 
L 453.657676 273.693262 
L 456.581366 443.873823 
L 459.505056 431.837338 
L 462.428746 354.117921 
L 465.352436 279.533824 
L 468.276126 194.990393 
L 471.199816 149.781418 
L 474.123506 234.979796 
L 477.047197 326.559918 
L 479.970887 306.522441 
L 482.894577 326.701814 
L 485.818267 303.107789 
L 488.741957 299.593706 
L 491.665647 367.411602 
L 494.589337 349.983259 
L 497.513027 409.168286 
L 500.436717 186.648155 
L 503.360408 72.966616 
L 506.284098 71.517301 
L 509.207788 144.508532 
L 512.131478 321.820629 
L 515.055168 380.237514 
L 517.978858 330.459899 
L 520.902548 386.181652 
L 523.826238 379.567124 
L 526.749928 464.708003 
L 529.673618 471.764502 
L 532.597309 400.2079 
L 535.520999 370.765966 
L 538.444689 301.630219 
L 541.368379 347.480131 
L 544.292069 260.633894 
L 547.215759 286.840832 
L 550.139449 282.382081 
L 553.063139 201.190479 
L 555.986829 156.340626 
L 558.910519 160.176961 
L 561.83421 161.027218 
L 564.7579 220.840982 
L 567.68159 181.857996 
L 570.60528 236.180114 
L 573.52897 377.857131 
L 576.45266 290.490164 
L 579.37635 278.532629 
L 582.30004 281.290253 
L 585.22373 315.942446 
L 588.147421 303.828025 
L 591.071111 326.959739 
L 593.994801 293.921047 
L 596.918491 254.120563 
L 599.842181 410.031241 
L 602.765871 386.996334 
L 605.689561 368.809365 
L 608.613251 431.474001 
L 611.536941 390.154321 
L 614.460631 389.949794 
L 617.384322 454.634836 
L 620.308012 397.625542 
L 623.231702 377.104153 
L 626.155392 418.085157 
L 629.079082 340.002369 
L 632.002772 312.425687 
L 634.926462 267.125537 
L 637.850152 189.193049 
L 640.773842 76.276459 
L 643.697532 93.604608 
L 646.621223 321.704426 
L 649.544913 405.120165 
L 652.468603 340.812696 
L 655.392293 441.461853 
L 658.315983 337.57882 
L 661.239673 371.801337 
L 664.163363 356.763697 
L 667.087053 417.163401 
L 670.010743 374.078775 
L 672.934433 363.210269 
L 675.858124 474.675356 
L 678.781814 381.23794 
L 681.705504 359.563385 
L 684.629194 427.174514 
L 687.552884 368.623516 
L 690.476574 411.470524 
L 693.400264 335.432907 
L 696.323954 337.474213 
L 699.247644 327.295459 
L 702.171335 319.500568 
L 705.095025 318.568353 
L 708.018715 322.018213 
L 710.942405 327.871403 
L 713.866095 323.816461 
L 716.789785 324.386791 
L 719.713475 322.867473 
L 722.637165 325.39806 
L 725.560855 325.780373 
L 728.484545 318.875722 
L 728.484545 318.875722 
" style="fill:none;stroke:#55a868;stroke-dasharray:1.5,1.5;stroke-dashoffset:0;stroke-width:1.5;"/>
   </g>
   <g id="line2d_4">
    <path clip-path="url(#p96e2e74fa2)" d="M 134.975455 313.166299 
L 137.899145 314.729465 
L 140.822835 313.915954 
L 143.746525 312.352527 
L 146.670215 314.647856 
L 149.593905 315.910911 
L 152.517595 311.73688 
L 155.441285 313.95716 
L 158.364975 311.828265 
L 161.288665 311.599374 
L 164.212356 314.387781 
L 167.136046 312.00654 
L 170.059736 322.422301 
L 172.983426 332.150549 
L 175.907116 343.507882 
L 178.830806 375.529567 
L 181.754496 397.809432 
L 184.678186 368.72982 
L 187.601876 288.593221 
L 190.525567 350.700208 
L 193.449257 279.983054 
L 196.372947 302.534275 
L 199.296637 377.625389 
L 202.220327 311.080552 
L 205.144017 325.682447 
L 208.067707 336.409459 
L 210.991397 431.472847 
L 213.915087 375.548526 
L 216.838777 367.804182 
L 219.762468 389.992469 
L 222.686158 280.152077 
L 225.609848 291.567983 
L 228.533538 355.816738 
L 231.457228 407.920587 
L 234.380918 292.594119 
L 237.304608 381.386884 
L 240.228298 331.369447 
L 243.151988 295.818008 
L 246.075678 332.985607 
L 248.999369 316.53233 
L 251.923059 322.536178 
L 254.846749 367.512659 
L 257.770439 435.424773 
L 260.694129 341.078334 
L 263.617819 367.724742 
L 266.541509 295.739461 
L 269.465199 296.846226 
L 272.388889 332.818683 
L 275.312579 384.119725 
L 278.23627 417.363766 
L 281.15996 425.384522 
L 284.08365 372.670098 
L 287.00734 376.382622 
L 289.93103 406.50474 
L 292.85472 345.128641 
L 295.77841 321.830283 
L 298.7021 343.959262 
L 301.62579 238.811444 
L 304.549481 71.473516 
L 307.473171 71.468696 
L 310.396861 223.767787 
L 313.320551 294.524713 
L 316.244241 377.989285 
L 319.167931 444.298025 
L 322.091621 389.511775 
L 325.015311 311.529537 
L 327.939001 366.355628 
L 330.862691 410.778867 
L 333.786382 290.244938 
L 336.710072 322.469017 
L 342.557452 425.756708 
L 345.481142 354.048468 
L 348.404832 315.89099 
L 351.328522 353.528299 
L 354.252212 331.289483 
L 357.175902 244.290139 
L 360.099592 93.200771 
L 363.023283 71.453207 
L 365.946973 81.044424 
L 368.870663 225.214679 
L 371.794353 245.601886 
L 374.718043 282.902268 
L 377.641733 227.209479 
L 380.565423 273.808748 
L 383.489113 294.078177 
L 386.412803 339.076153 
L 389.336494 387.132826 
L 392.260184 392.424833 
L 395.183874 390.551623 
L 398.107564 265.51333 
L 401.031254 158.344914 
L 403.954944 265.383817 
L 406.878634 296.662669 
L 409.802324 302.436769 
L 412.726014 335.850742 
L 415.649704 328.228845 
L 418.573395 219.815808 
L 421.497085 335.455014 
L 424.420775 390.924334 
L 427.344465 326.982248 
L 430.268155 360.56381 
L 433.191845 368.60781 
L 436.115535 295.90747 
L 439.039225 329.009754 
L 441.962915 333.774404 
L 444.886605 314.514688 
L 447.810296 344.276828 
L 450.733986 371.698636 
L 453.657676 320.976493 
L 456.581366 427.87107 
L 459.505056 394.715668 
L 462.428746 348.169673 
L 465.352436 321.010844 
L 468.276126 197.145961 
L 471.199816 184.601987 
L 474.123506 283.199982 
L 477.047197 412.283738 
L 479.970887 309.073369 
L 482.894577 363.258226 
L 485.818267 321.287238 
L 488.741957 381.505186 
L 491.665647 494.291011 
L 494.589337 435.381643 
L 497.513027 436.337959 
L 500.436717 400.620033 
L 503.360408 289.281206 
L 506.284098 284.101642 
L 509.207788 319.149947 
L 512.131478 433.048203 
L 515.055168 470.620379 
L 517.978858 347.998149 
L 520.902548 353.499179 
L 523.826238 277.341982 
L 526.749928 340.50977 
L 529.673618 461.512937 
L 532.597309 416.977833 
L 535.520999 334.889931 
L 538.444689 313.76589 
L 541.368379 420.794002 
L 544.292069 318.7878 
L 547.215759 298.462963 
L 550.139449 369.169973 
L 553.063139 323.557294 
L 555.986829 261.290992 
L 558.910519 73.596197 
L 561.83421 115.610532 
L 564.7579 253.287866 
L 567.68159 347.228521 
L 570.60528 339.736049 
L 573.52897 265.989932 
L 576.45266 337.148532 
L 579.37635 236.80643 
L 582.30004 229.312367 
L 585.22373 295.148423 
L 588.147421 241.380876 
L 591.071111 259.043164 
L 593.994801 259.205489 
L 596.918491 272.379713 
L 599.842181 330.643054 
L 602.765871 347.850061 
L 605.689561 352.065229 
L 608.613251 435.303358 
L 611.536941 383.649805 
L 614.460631 377.374128 
L 617.384322 460.423592 
L 620.308012 422.26977 
L 623.231702 379.994229 
L 626.155392 395.343977 
L 629.079082 347.612023 
L 632.002772 330.092925 
L 634.926462 277.643299 
L 637.850152 324.782938 
L 640.773842 251.9828 
L 643.697532 171.802301 
L 646.621223 266.927463 
L 649.544913 369.476152 
L 652.468603 307.776069 
L 655.392293 410.611698 
L 658.315983 340.851664 
L 661.239673 381.223073 
L 664.163363 364.475772 
L 667.087053 408.040848 
L 670.010743 361.025965 
L 672.934433 366.409567 
L 675.858124 455.701268 
L 678.781814 368.877715 
L 681.705504 344.161044 
L 684.629194 400.660995 
L 687.552884 332.358644 
L 690.476574 407.594889 
L 693.400264 336.877438 
L 696.323954 345.765538 
L 699.247644 345.179292 
L 702.171335 328.459678 
L 705.095025 316.297177 
L 708.018715 315.622939 
L 710.942405 320.131396 
L 713.866095 319.281454 
L 716.789785 321.124406 
L 719.713475 319.434561 
L 722.637165 319.238026 
L 725.560855 320.071248 
L 728.484545 317.823176 
L 728.484545 317.823176 
" style="fill:none;stroke:#c44e52;stroke-dasharray:4.5,1.875,2.25,1.875;stroke-dashoffset:0;stroke-width:1.5;"/>
   </g>
   <g id="line2d_5">
    <path clip-path="url(#p96e2e74fa2)" d="M 134.975455 314.300506 
L 137.899145 315.738985 
L 143.746525 313.756463 
L 146.670215 315.841109 
L 149.593905 317.360095 
L 152.517595 313.935123 
L 155.441285 315.884064 
L 158.364975 313.132964 
L 161.288665 313.242731 
L 164.212356 314.975933 
L 167.136046 312.828026 
L 172.983426 331.096481 
L 175.907116 341.080677 
L 178.830806 371.959411 
L 181.754496 404.70198 
L 184.678186 362.294704 
L 187.601876 314.156651 
L 190.525567 359.840513 
L 193.449257 291.941114 
L 196.372947 316.408833 
L 199.296637 393.007388 
L 202.220327 320.270371 
L 205.144017 312.85099 
L 208.067707 322.404251 
L 210.991397 431.341777 
L 213.915087 369.223807 
L 216.838777 370.068432 
L 219.762468 391.433187 
L 222.686158 283.139886 
L 225.609848 296.975949 
L 228.533538 366.582753 
L 231.457228 415.894365 
L 234.380918 302.351838 
L 237.304608 385.299948 
L 240.228298 332.780572 
L 243.151988 300.101072 
L 246.075678 340.300853 
L 248.999369 317.143761 
L 251.923059 322.28978 
L 254.846749 365.484698 
L 257.770439 443.059211 
L 260.694129 339.824531 
L 263.617819 361.868964 
L 266.541509 297.616553 
L 269.465199 297.14798 
L 272.388889 333.852409 
L 275.312579 384.131339 
L 278.23627 415.116936 
L 281.15996 430.214899 
L 284.08365 374.341019 
L 287.00734 367.516087 
L 289.93103 405.492351 
L 292.85472 350.327514 
L 295.77841 327.379498 
L 298.7021 340.875485 
L 301.62579 231.377161 
L 304.549481 71.47594 
L 307.473171 71.479983 
L 310.396861 233.527202 
L 313.320551 300.068803 
L 316.244241 380.271689 
L 319.167931 451.178575 
L 325.015311 320.255645 
L 327.939001 371.738373 
L 330.862691 410.062163 
L 333.786382 304.678317 
L 336.710072 293.513636 
L 339.633762 372.565683 
L 342.557452 424.241448 
L 345.481142 350.921508 
L 348.404832 324.947781 
L 351.328522 274.200208 
L 354.252212 365.935239 
L 357.175902 423.327808 
L 360.099592 221.67709 
L 363.023283 71.452936 
L 365.946973 76.411597 
L 368.870663 308.094543 
L 371.794353 269.67636 
L 374.718043 335.247409 
L 377.641733 313.945949 
L 380.565423 324.763559 
L 383.489113 340.380624 
L 386.412803 334.950079 
L 389.336494 388.487038 
L 392.260184 394.104604 
L 395.183874 409.425843 
L 398.107564 288.181105 
L 401.031254 227.66922 
L 403.954944 300.18819 
L 406.878634 317.259842 
L 409.802324 317.585085 
L 412.726014 349.585485 
L 415.649704 377.298082 
L 418.573395 233.787488 
L 421.497085 365.883959 
L 424.420775 419.672721 
L 427.344465 351.900211 
L 430.268155 374.80905 
L 433.191845 378.830587 
L 436.115535 295.907942 
L 439.039225 337.1181 
L 441.962915 346.277224 
L 444.886605 328.645596 
L 447.810296 349.324622 
L 450.733986 372.474176 
L 453.657676 308.048318 
L 456.581366 417.71493 
L 459.505056 382.721438 
L 462.428746 338.620907 
L 465.352436 321.77428 
L 468.276126 215.635288 
L 471.199816 204.677321 
L 474.123506 300.587153 
L 477.047197 412.759744 
L 479.970887 316.477499 
L 482.894577 363.319738 
L 485.818267 329.378845 
L 488.741957 389.460704 
L 491.665647 504.198828 
L 494.589337 439.729752 
L 497.513027 437.831672 
L 500.436717 395.953922 
L 503.360408 285.6551 
L 506.284098 284.927535 
L 509.207788 310.17417 
L 512.131478 436.345935 
L 515.055168 469.918087 
L 517.978858 343.886644 
L 520.902548 347.658179 
L 523.826238 252.654309 
L 526.749928 303.701048 
L 529.673618 443.988592 
L 532.597309 391.875998 
L 535.520999 321.767722 
L 538.444689 300.269903 
L 541.368379 413.00282 
L 544.292069 307.559228 
L 547.215759 282.217151 
L 550.139449 361.851929 
L 553.063139 188.847229 
L 555.986829 227.797281 
L 558.910519 220.708408 
L 561.83421 234.647382 
L 564.7579 340.790362 
L 567.68159 327.185692 
L 570.60528 342.271761 
L 573.52897 342.146218 
L 576.45266 400.762297 
L 582.30004 206.7901 
L 585.22373 223.591943 
L 588.147421 269.192431 
L 591.071111 270.785364 
L 593.994801 227.196991 
L 596.918491 261.985588 
L 599.842181 348.345132 
L 602.765871 352.243382 
L 605.689561 337.244202 
L 608.613251 437.66814 
L 611.536941 386.824303 
L 614.460631 376.409801 
L 617.384322 444.768994 
L 620.308012 413.919364 
L 623.231702 374.137086 
L 626.155392 393.36135 
L 629.079082 348.473648 
L 632.002772 327.346547 
L 634.926462 281.91935 
L 637.850152 316.905041 
L 640.773842 232.672223 
L 643.697532 166.644468 
L 646.621223 241.991013 
L 649.544913 350.014374 
L 652.468603 282.65872 
L 655.392293 379.945852 
L 658.315983 325.408624 
L 661.239673 366.57887 
L 664.163363 357.94322 
L 667.087053 412.804554 
L 670.010743 357.136023 
L 672.934433 368.73825 
L 675.858124 447.962206 
L 678.781814 354.402832 
L 681.705504 342.213572 
L 684.629194 390.999296 
L 687.552884 326.218829 
L 690.476574 389.177822 
L 693.400264 327.961039 
L 696.323954 342.227861 
L 699.247644 348.743396 
L 702.171335 323.830942 
L 705.095025 316.210217 
L 708.018715 315.941939 
L 710.942405 319.788715 
L 713.866095 318.167518 
L 716.789785 320.339509 
L 719.713475 318.340214 
L 722.637165 317.547534 
L 725.560855 318.562144 
L 728.484545 317.018061 
L 728.484545 317.018061 
" style="fill:none;stroke:#8172b3;stroke-dasharray:7.5,1.5,1.5,1.5;stroke-dashoffset:0;stroke-width:1.5;"/>
   </g>
   <g id="line2d_6"/>
   <g id="line2d_7"/>
   <g id="line2d_8"/>
   <g id="line2d_9"/>
   <g id="line2d_10"/>
   <g id="patch_3">
    <path d="M 105.3 529.9416 
L 105.3 71.4528 
" style="fill:none;stroke:#262626;stroke-linecap:square;stroke-linejoin:miter;stroke-width:1.25;"/>
   </g>
   <g id="patch_4">
    <path d="M 758.16 529.9416 
L 758.16 71.4528 
" style="fill:none;stroke:#262626;stroke-linecap:square;stroke-linejoin:miter;stroke-width:1.25;"/>
   </g>
   <g id="patch_5">
    <path d="M 105.3 529.9416 
L 758.16 529.9416 
" style="fill:none;stroke:#262626;stroke-linecap:square;stroke-linejoin:miter;stroke-width:1.25;"/>
   </g>
   <g id="patch_6">
    <path d="M 105.3 71.4528 
L 758.16 71.4528 
" style="fill:none;stroke:#262626;stroke-linecap:square;stroke-linejoin:miter;stroke-width:1.25;"/>
   </g>
   <g id="text_16">
    <!-- Activations for &gt;I&lt; -->
    <g style="fill:#262626;" transform="translate(383.7075 65.4528)scale(0.12 -0.12)">
     <defs>
      <path d="M -9 0 
L 1750 4581 
L 2403 4581 
L 4278 0 
L 3588 0 
L 3053 1388 
L 1138 1388 
L 634 0 
L -9 0 
z
M 1313 1881 
L 2866 1881 
L 2388 3150 
Q 2169 3728 2063 4100 
Q 1975 3659 1816 3225 
L 1313 1881 
z
" id="ArialMT-41" transform="scale(0.015625)"/>
      <path d="M 2588 1216 
L 3141 1144 
Q 3050 572 2676 248 
Q 2303 -75 1759 -75 
Q 1078 -75 664 370 
Q 250 816 250 1647 
Q 250 2184 428 2587 
Q 606 2991 970 3192 
Q 1334 3394 1763 3394 
Q 2303 3394 2647 3120 
Q 2991 2847 3088 2344 
L 2541 2259 
Q 2463 2594 2264 2762 
Q 2066 2931 1784 2931 
Q 1359 2931 1093 2626 
Q 828 2322 828 1663 
Q 828 994 1084 691 
Q 1341 388 1753 388 
Q 2084 388 2306 591 
Q 2528 794 2588 1216 
z
" id="ArialMT-63" transform="scale(0.015625)"/>
      <path d="M 1650 503 
L 1731 6 
Q 1494 -44 1306 -44 
Q 1000 -44 831 53 
Q 663 150 594 308 
Q 525 466 525 972 
L 525 2881 
L 113 2881 
L 113 3319 
L 525 3319 
L 525 4141 
L 1084 4478 
L 1084 3319 
L 1650 3319 
L 1650 2881 
L 1084 2881 
L 1084 941 
Q 1084 700 1114 631 
Q 1144 563 1211 522 
Q 1278 481 1403 481 
Q 1497 481 1650 503 
z
" id="ArialMT-74" transform="scale(0.015625)"/>
      <path d="M 425 3934 
L 425 4581 
L 988 4581 
L 988 3934 
L 425 3934 
z
M 425 0 
L 425 3319 
L 988 3319 
L 988 0 
L 425 0 
z
" id="ArialMT-69" transform="scale(0.015625)"/>
      <path d="M 1344 0 
L 81 3319 
L 675 3319 
L 1388 1331 
Q 1503 1009 1600 663 
Q 1675 925 1809 1294 
L 2547 3319 
L 3125 3319 
L 1869 0 
L 1344 0 
z
" id="ArialMT-76" transform="scale(0.015625)"/>
      <path d="M 2588 409 
Q 2275 144 1986 34 
Q 1697 -75 1366 -75 
Q 819 -75 525 192 
Q 231 459 231 875 
Q 231 1119 342 1320 
Q 453 1522 633 1644 
Q 813 1766 1038 1828 
Q 1203 1872 1538 1913 
Q 2219 1994 2541 2106 
Q 2544 2222 2544 2253 
Q 2544 2597 2384 2738 
Q 2169 2928 1744 2928 
Q 1347 2928 1158 2789 
Q 969 2650 878 2297 
L 328 2372 
Q 403 2725 575 2942 
Q 747 3159 1072 3276 
Q 1397 3394 1825 3394 
Q 2250 3394 2515 3294 
Q 2781 3194 2906 3042 
Q 3031 2891 3081 2659 
Q 3109 2516 3109 2141 
L 3109 1391 
Q 3109 606 3145 398 
Q 3181 191 3288 0 
L 2700 0 
Q 2613 175 2588 409 
z
M 2541 1666 
Q 2234 1541 1622 1453 
Q 1275 1403 1131 1340 
Q 988 1278 909 1158 
Q 831 1038 831 891 
Q 831 666 1001 516 
Q 1172 366 1500 366 
Q 1825 366 2078 508 
Q 2331 650 2450 897 
Q 2541 1088 2541 1459 
L 2541 1666 
z
" id="ArialMT-61" transform="scale(0.015625)"/>
      <path d="M 213 1659 
Q 213 2581 725 3025 
Q 1153 3394 1769 3394 
Q 2453 3394 2887 2945 
Q 3322 2497 3322 1706 
Q 3322 1066 3130 698 
Q 2938 331 2570 128 
Q 2203 -75 1769 -75 
Q 1072 -75 642 372 
Q 213 819 213 1659 
z
M 791 1659 
Q 791 1022 1069 705 
Q 1347 388 1769 388 
Q 2188 388 2466 706 
Q 2744 1025 2744 1678 
Q 2744 2294 2464 2611 
Q 2184 2928 1769 2928 
Q 1347 2928 1069 2612 
Q 791 2297 791 1659 
z
" id="ArialMT-6f" transform="scale(0.015625)"/>
      <path d="M 422 0 
L 422 3319 
L 928 3319 
L 928 2847 
Q 1294 3394 1984 3394 
Q 2284 3394 2536 3286 
Q 2788 3178 2913 3003 
Q 3038 2828 3088 2588 
Q 3119 2431 3119 2041 
L 3119 0 
L 2556 0 
L 2556 2019 
Q 2556 2363 2490 2533 
Q 2425 2703 2258 2804 
Q 2091 2906 1866 2906 
Q 1506 2906 1245 2678 
Q 984 2450 984 1813 
L 984 0 
L 422 0 
z
" id="ArialMT-6e" transform="scale(0.015625)"/>
      <path d="M 197 991 
L 753 1078 
Q 800 744 1014 566 
Q 1228 388 1613 388 
Q 2000 388 2187 545 
Q 2375 703 2375 916 
Q 2375 1106 2209 1216 
Q 2094 1291 1634 1406 
Q 1016 1563 777 1677 
Q 538 1791 414 1992 
Q 291 2194 291 2438 
Q 291 2659 392 2848 
Q 494 3038 669 3163 
Q 800 3259 1026 3326 
Q 1253 3394 1513 3394 
Q 1903 3394 2198 3281 
Q 2494 3169 2634 2976 
Q 2775 2784 2828 2463 
L 2278 2388 
Q 2241 2644 2061 2787 
Q 1881 2931 1553 2931 
Q 1166 2931 1000 2803 
Q 834 2675 834 2503 
Q 834 2394 903 2306 
Q 972 2216 1119 2156 
Q 1203 2125 1616 2013 
Q 2213 1853 2448 1751 
Q 2684 1650 2818 1456 
Q 2953 1263 2953 975 
Q 2953 694 2789 445 
Q 2625 197 2315 61 
Q 2006 -75 1616 -75 
Q 969 -75 630 194 
Q 291 463 197 991 
z
" id="ArialMT-73" transform="scale(0.015625)"/>
      <path id="ArialMT-20" transform="scale(0.015625)"/>
      <path d="M 556 0 
L 556 2881 
L 59 2881 
L 59 3319 
L 556 3319 
L 556 3672 
Q 556 4006 616 4169 
Q 697 4388 901 4523 
Q 1106 4659 1475 4659 
Q 1713 4659 2000 4603 
L 1916 4113 
Q 1741 4144 1584 4144 
Q 1328 4144 1222 4034 
Q 1116 3925 1116 3625 
L 1116 3319 
L 1763 3319 
L 1763 2881 
L 1116 2881 
L 1116 0 
L 556 0 
z
" id="ArialMT-66" transform="scale(0.015625)"/>
      <path d="M 416 0 
L 416 3319 
L 922 3319 
L 922 2816 
Q 1116 3169 1280 3281 
Q 1444 3394 1641 3394 
Q 1925 3394 2219 3213 
L 2025 2691 
Q 1819 2813 1613 2813 
Q 1428 2813 1281 2702 
Q 1134 2591 1072 2394 
Q 978 2094 978 1738 
L 978 0 
L 416 0 
z
" id="ArialMT-72" transform="scale(0.015625)"/>
      <path d="M 3384 2003 
L 350 706 
L 350 1266 
L 2753 2263 
L 350 3250 
L 350 3809 
L 3384 2528 
L 3384 2003 
z
" id="ArialMT-3e" transform="scale(0.015625)"/>
      <path d="M 597 0 
L 597 4581 
L 1203 4581 
L 1203 0 
L 597 0 
z
" id="ArialMT-49" transform="scale(0.015625)"/>
      <path d="M 350 2003 
L 350 2528 
L 3384 3809 
L 3384 3250 
L 978 2263 
L 3384 1266 
L 3384 706 
L 350 2003 
z
" id="ArialMT-3c" transform="scale(0.015625)"/>
     </defs>
     <use xlink:href="#ArialMT-41"/>
     <use x="66.699219" xlink:href="#ArialMT-63"/>
     <use x="116.699219" xlink:href="#ArialMT-74"/>
     <use x="144.482422" xlink:href="#ArialMT-69"/>
     <use x="166.699219" xlink:href="#ArialMT-76"/>
     <use x="216.699219" xlink:href="#ArialMT-61"/>
     <use x="272.314453" xlink:href="#ArialMT-74"/>
     <use x="300.097656" xlink:href="#ArialMT-69"/>
     <use x="322.314453" xlink:href="#ArialMT-6f"/>
     <use x="377.929688" xlink:href="#ArialMT-6e"/>
     <use x="433.544922" xlink:href="#ArialMT-73"/>
     <use x="483.544922" xlink:href="#ArialMT-20"/>
     <use x="511.328125" xlink:href="#ArialMT-66"/>
     <use x="539.111328" xlink:href="#ArialMT-6f"/>
     <use x="594.726562" xlink:href="#ArialMT-72"/>
     <use x="628.027344" xlink:href="#ArialMT-20"/>
     <use x="655.810547" xlink:href="#ArialMT-3e"/>
     <use x="714.208984" xlink:href="#ArialMT-49"/>
     <use x="741.992188" xlink:href="#ArialMT-3c"/>
    </g>
   </g>
   <g id="legend_1">
    <g id="patch_7">
     <path d="M 113 524.4416 
L 223.415938 524.4416 
Q 225.615938 524.4416 225.615938 522.2416 
L 225.615938 445.080037 
Q 225.615938 442.880037 223.415938 442.880037 
L 113 442.880037 
Q 110.8 442.880037 110.8 445.080037 
L 110.8 522.2416 
Q 110.8 524.4416 113 524.4416 
z
" style="fill:#ffffff;opacity:0.8;stroke:#cccccc;stroke-linejoin:miter;"/>
    </g>
    <g id="line2d_11">
     <path d="M 115.2 451.303631 
L 137.2 451.303631 
" style="fill:none;stroke:#4c72b0;stroke-linecap:round;stroke-width:1.5;"/>
    </g>
    <g id="line2d_12"/>
    <g id="text_17">
     <!-- regular -->
     <g style="fill:#262626;" transform="translate(146 455.153631)scale(0.11 -0.11)">
      <defs>
       <path d="M 2694 1069 
L 3275 997 
Q 3138 488 2766 206 
Q 2394 -75 1816 -75 
Q 1088 -75 661 373 
Q 234 822 234 1631 
Q 234 2469 665 2931 
Q 1097 3394 1784 3394 
Q 2450 3394 2872 2941 
Q 3294 2488 3294 1666 
Q 3294 1616 3291 1516 
L 816 1516 
Q 847 969 1125 678 
Q 1403 388 1819 388 
Q 2128 388 2347 550 
Q 2566 713 2694 1069 
z
M 847 1978 
L 2700 1978 
Q 2663 2397 2488 2606 
Q 2219 2931 1791 2931 
Q 1403 2931 1139 2672 
Q 875 2413 847 1978 
z
" id="ArialMT-65" transform="scale(0.015625)"/>
       <path d="M 319 -275 
L 866 -356 
Q 900 -609 1056 -725 
Q 1266 -881 1628 -881 
Q 2019 -881 2231 -725 
Q 2444 -569 2519 -288 
Q 2563 -116 2559 434 
Q 2191 0 1641 0 
Q 956 0 581 494 
Q 206 988 206 1678 
Q 206 2153 378 2554 
Q 550 2956 876 3175 
Q 1203 3394 1644 3394 
Q 2231 3394 2613 2919 
L 2613 3319 
L 3131 3319 
L 3131 450 
Q 3131 -325 2973 -648 
Q 2816 -972 2473 -1159 
Q 2131 -1347 1631 -1347 
Q 1038 -1347 672 -1080 
Q 306 -813 319 -275 
z
M 784 1719 
Q 784 1066 1043 766 
Q 1303 466 1694 466 
Q 2081 466 2343 764 
Q 2606 1063 2606 1700 
Q 2606 2309 2336 2618 
Q 2066 2928 1684 2928 
Q 1309 2928 1046 2623 
Q 784 2319 784 1719 
z
" id="ArialMT-67" transform="scale(0.015625)"/>
       <path d="M 2597 0 
L 2597 488 
Q 2209 -75 1544 -75 
Q 1250 -75 995 37 
Q 741 150 617 320 
Q 494 491 444 738 
Q 409 903 409 1263 
L 409 3319 
L 972 3319 
L 972 1478 
Q 972 1038 1006 884 
Q 1059 663 1231 536 
Q 1403 409 1656 409 
Q 1909 409 2131 539 
Q 2353 669 2445 892 
Q 2538 1116 2538 1541 
L 2538 3319 
L 3100 3319 
L 3100 0 
L 2597 0 
z
" id="ArialMT-75" transform="scale(0.015625)"/>
       <path d="M 409 0 
L 409 4581 
L 972 4581 
L 972 0 
L 409 0 
z
" id="ArialMT-6c" transform="scale(0.015625)"/>
      </defs>
      <use xlink:href="#ArialMT-72"/>
      <use x="33.300781" xlink:href="#ArialMT-65"/>
      <use x="88.916016" xlink:href="#ArialMT-67"/>
      <use x="144.53125" xlink:href="#ArialMT-75"/>
      <use x="200.146484" xlink:href="#ArialMT-6c"/>
      <use x="222.363281" xlink:href="#ArialMT-61"/>
      <use x="277.978516" xlink:href="#ArialMT-72"/>
     </g>
    </g>
    <g id="line2d_13">
     <path d="M 115.2 467.025037 
L 137.2 467.025037 
" style="fill:none;stroke:#dd8452;stroke-dasharray:6,2.25;stroke-dashoffset:0;stroke-width:1.5;"/>
    </g>
    <g id="line2d_14"/>
    <g id="text_18">
     <!-- splitted_3s -->
     <g style="fill:#262626;" transform="translate(146 470.875037)scale(0.11 -0.11)">
      <defs>
       <path d="M 422 -1272 
L 422 3319 
L 934 3319 
L 934 2888 
Q 1116 3141 1344 3267 
Q 1572 3394 1897 3394 
Q 2322 3394 2647 3175 
Q 2972 2956 3137 2557 
Q 3303 2159 3303 1684 
Q 3303 1175 3120 767 
Q 2938 359 2589 142 
Q 2241 -75 1856 -75 
Q 1575 -75 1351 44 
Q 1128 163 984 344 
L 984 -1272 
L 422 -1272 
z
M 931 1641 
Q 931 1000 1190 694 
Q 1450 388 1819 388 
Q 2194 388 2461 705 
Q 2728 1022 2728 1688 
Q 2728 2322 2467 2637 
Q 2206 2953 1844 2953 
Q 1484 2953 1207 2617 
Q 931 2281 931 1641 
z
" id="ArialMT-70" transform="scale(0.015625)"/>
       <path d="M 2575 0 
L 2575 419 
Q 2259 -75 1647 -75 
Q 1250 -75 917 144 
Q 584 363 401 755 
Q 219 1147 219 1656 
Q 219 2153 384 2558 
Q 550 2963 881 3178 
Q 1213 3394 1622 3394 
Q 1922 3394 2156 3267 
Q 2391 3141 2538 2938 
L 2538 4581 
L 3097 4581 
L 3097 0 
L 2575 0 
z
M 797 1656 
Q 797 1019 1065 703 
Q 1334 388 1700 388 
Q 2069 388 2326 689 
Q 2584 991 2584 1609 
Q 2584 2291 2321 2609 
Q 2059 2928 1675 2928 
Q 1300 2928 1048 2622 
Q 797 2316 797 1656 
z
" id="ArialMT-64" transform="scale(0.015625)"/>
       <path d="M -97 -1272 
L -97 -866 
L 3631 -866 
L 3631 -1272 
L -97 -1272 
z
" id="ArialMT-5f" transform="scale(0.015625)"/>
       <path d="M 269 1209 
L 831 1284 
Q 928 806 1161 595 
Q 1394 384 1728 384 
Q 2125 384 2398 659 
Q 2672 934 2672 1341 
Q 2672 1728 2419 1979 
Q 2166 2231 1775 2231 
Q 1616 2231 1378 2169 
L 1441 2663 
Q 1497 2656 1531 2656 
Q 1891 2656 2178 2843 
Q 2466 3031 2466 3422 
Q 2466 3731 2256 3934 
Q 2047 4138 1716 4138 
Q 1388 4138 1169 3931 
Q 950 3725 888 3313 
L 325 3413 
Q 428 3978 793 4289 
Q 1159 4600 1703 4600 
Q 2078 4600 2393 4439 
Q 2709 4278 2876 4000 
Q 3044 3722 3044 3409 
Q 3044 3113 2884 2869 
Q 2725 2625 2413 2481 
Q 2819 2388 3044 2092 
Q 3269 1797 3269 1353 
Q 3269 753 2831 336 
Q 2394 -81 1725 -81 
Q 1122 -81 723 278 
Q 325 638 269 1209 
z
" id="ArialMT-33" transform="scale(0.015625)"/>
      </defs>
      <use xlink:href="#ArialMT-73"/>
      <use x="50" xlink:href="#ArialMT-70"/>
      <use x="105.615234" xlink:href="#ArialMT-6c"/>
      <use x="127.832031" xlink:href="#ArialMT-69"/>
      <use x="150.048828" xlink:href="#ArialMT-74"/>
      <use x="177.832031" xlink:href="#ArialMT-74"/>
      <use x="205.615234" xlink:href="#ArialMT-65"/>
      <use x="261.230469" xlink:href="#ArialMT-64"/>
      <use x="316.845703" xlink:href="#ArialMT-5f"/>
      <use x="372.460938" xlink:href="#ArialMT-33"/>
      <use x="428.076172" xlink:href="#ArialMT-73"/>
     </g>
    </g>
    <g id="line2d_15">
     <path d="M 115.2 482.617537 
L 137.2 482.617537 
" style="fill:none;stroke:#55a868;stroke-dasharray:1.5,1.5;stroke-dashoffset:0;stroke-width:1.5;"/>
    </g>
    <g id="line2d_16"/>
    <g id="text_19">
     <!-- splitted_1s -->
     <g style="fill:#262626;" transform="translate(146 486.467537)scale(0.11 -0.11)">
      <use xlink:href="#ArialMT-73"/>
      <use x="50" xlink:href="#ArialMT-70"/>
      <use x="105.615234" xlink:href="#ArialMT-6c"/>
      <use x="127.832031" xlink:href="#ArialMT-69"/>
      <use x="150.048828" xlink:href="#ArialMT-74"/>
      <use x="177.832031" xlink:href="#ArialMT-74"/>
      <use x="205.615234" xlink:href="#ArialMT-65"/>
      <use x="261.230469" xlink:href="#ArialMT-64"/>
      <use x="316.845703" xlink:href="#ArialMT-5f"/>
      <use x="372.460938" xlink:href="#ArialMT-31"/>
      <use x="428.076172" xlink:href="#ArialMT-73"/>
     </g>
    </g>
    <g id="line2d_17">
     <path d="M 115.2 498.311444 
L 137.2 498.311444 
" style="fill:none;stroke:#c44e52;stroke-dasharray:4.5,1.875,2.25,1.875;stroke-dashoffset:0;stroke-width:1.5;"/>
    </g>
    <g id="line2d_18"/>
    <g id="text_20">
     <!-- overlap_1f_3s -->
     <g style="fill:#262626;" transform="translate(146 502.161444)scale(0.11 -0.11)">
      <use xlink:href="#ArialMT-6f"/>
      <use x="55.615234" xlink:href="#ArialMT-76"/>
      <use x="105.615234" xlink:href="#ArialMT-65"/>
      <use x="161.230469" xlink:href="#ArialMT-72"/>
      <use x="194.53125" xlink:href="#ArialMT-6c"/>
      <use x="216.748047" xlink:href="#ArialMT-61"/>
      <use x="272.363281" xlink:href="#ArialMT-70"/>
      <use x="327.978516" xlink:href="#ArialMT-5f"/>
      <use x="383.59375" xlink:href="#ArialMT-31"/>
      <use x="439.208984" xlink:href="#ArialMT-66"/>
      <use x="466.992188" xlink:href="#ArialMT-5f"/>
      <use x="522.607422" xlink:href="#ArialMT-33"/>
      <use x="578.222656" xlink:href="#ArialMT-73"/>
     </g>
    </g>
    <g id="line2d_19">
     <path d="M 115.2 514.00535 
L 137.2 514.00535 
" style="fill:none;stroke:#8172b3;stroke-dasharray:7.5,1.5,1.5,1.5;stroke-dashoffset:0;stroke-width:1.5;"/>
    </g>
    <g id="line2d_20"/>
    <g id="text_21">
     <!-- overlap_10f_3s -->
     <g style="fill:#262626;" transform="translate(146 517.85535)scale(0.11 -0.11)">
      <use xlink:href="#ArialMT-6f"/>
      <use x="55.615234" xlink:href="#ArialMT-76"/>
      <use x="105.615234" xlink:href="#ArialMT-65"/>
      <use x="161.230469" xlink:href="#ArialMT-72"/>
      <use x="194.53125" xlink:href="#ArialMT-6c"/>
      <use x="216.748047" xlink:href="#ArialMT-61"/>
      <use x="272.363281" xlink:href="#ArialMT-70"/>
      <use x="327.978516" xlink:href="#ArialMT-5f"/>
      <use x="383.59375" xlink:href="#ArialMT-31"/>
      <use x="439.208984" xlink:href="#ArialMT-30"/>
      <use x="494.824219" xlink:href="#ArialMT-66"/>
      <use x="522.607422" xlink:href="#ArialMT-5f"/>
      <use x="578.222656" xlink:href="#ArialMT-33"/>
      <use x="633.837891" xlink:href="#ArialMT-73"/>
     </g>
    </g>
   </g>
  </g>
 </g>
 <defs>
  <clipPath id="p96e2e74fa2">
   <rect height="458.4888" width="652.86" x="105.3" y="71.4528"/>
  </clipPath>
 </defs>
</svg>
