<?xml version="1.0" encoding="utf-8" standalone="no"?>
<!DOCTYPE svg PUBLIC "-//W3C//DTD SVG 1.1//EN"
  "http://www.w3.org/Graphics/SVG/1.1/DTD/svg11.dtd">
<svg height="595.44pt" version="1.1" viewBox="0 0 842.4 595.44" width="842.4pt" xmlns="http://www.w3.org/2000/svg" xmlns:xlink="http://www.w3.org/1999/xlink">
 <metadata>
  <rdf:RDF xmlns:cc="http://creativecommons.org/ns#" xmlns:dc="http://purl.org/dc/elements/1.1/" xmlns:rdf="http://www.w3.org/1999/02/22-rdf-syntax-ns#">
   <cc:Work>
    <dc:type rdf:resource="http://purl.org/dc/dcmitype/StillImage"/>
    <dc:date>2021-06-01T00:54:13.213953</dc:date>
    <dc:format>image/svg+xml</dc:format>
    <dc:creator>
     <cc:Agent>
      <dc:title>Matplotlib v3.4.1, https://matplotlib.org/</dc:title>
     </cc:Agent>
    </dc:creator>
   </cc:Work>
  </rdf:RDF>
 </metadata>
 <defs>
  <style type="text/css">*{stroke-linecap:butt;stroke-linejoin:round;}</style>
 </defs>
 <g id="figure_1">
  <g id="patch_1">
   <path d="M 0 595.44 
L 842.4 595.44 
L 842.4 0 
L 0 0 
z
" style="fill:#ffffff;"/>
  </g>
  <g id="axes_1">
   <g id="patch_2">
    <path d="M 105.3 529.9416 
L 758.16 529.9416 
L 758.16 71.4528 
L 105.3 71.4528 
z
" style="fill:#ffffff;"/>
   </g>
   <g id="matplotlib.axis_1">
    <g id="xtick_1">
     <g id="text_1">
      <!-- 0 -->
      <g style="fill:#262626;" transform="translate(131.916939 547.315194)scale(0.11 -0.11)">
       <defs>
        <path d="M 266 2259 
Q 266 3072 433 3567 
Q 600 4063 929 4331 
Q 1259 4600 1759 4600 
Q 2128 4600 2406 4451 
Q 2684 4303 2865 4023 
Q 3047 3744 3150 3342 
Q 3253 2941 3253 2259 
Q 3253 1453 3087 958 
Q 2922 463 2592 192 
Q 2263 -78 1759 -78 
Q 1097 -78 719 397 
Q 266 969 266 2259 
z
M 844 2259 
Q 844 1131 1108 757 
Q 1372 384 1759 384 
Q 2147 384 2411 759 
Q 2675 1134 2675 2259 
Q 2675 3391 2411 3762 
Q 2147 4134 1753 4134 
Q 1366 4134 1134 3806 
Q 844 3388 844 2259 
z
" id="ArialMT-30" transform="scale(0.015625)"/>
       </defs>
       <use xlink:href="#ArialMT-30"/>
      </g>
     </g>
    </g>
    <g id="xtick_2">
     <g id="text_2">
      <!-- 25 -->
      <g style="fill:#262626;" transform="translate(201.950676 547.315194)scale(0.11 -0.11)">
       <defs>
        <path d="M 3222 541 
L 3222 0 
L 194 0 
Q 188 203 259 391 
Q 375 700 629 1000 
Q 884 1300 1366 1694 
Q 2113 2306 2375 2664 
Q 2638 3022 2638 3341 
Q 2638 3675 2398 3904 
Q 2159 4134 1775 4134 
Q 1369 4134 1125 3890 
Q 881 3647 878 3216 
L 300 3275 
Q 359 3922 746 4261 
Q 1134 4600 1788 4600 
Q 2447 4600 2831 4234 
Q 3216 3869 3216 3328 
Q 3216 3053 3103 2787 
Q 2991 2522 2730 2228 
Q 2469 1934 1863 1422 
Q 1356 997 1212 845 
Q 1069 694 975 541 
L 3222 541 
z
" id="ArialMT-32" transform="scale(0.015625)"/>
        <path d="M 266 1200 
L 856 1250 
Q 922 819 1161 601 
Q 1400 384 1738 384 
Q 2144 384 2425 690 
Q 2706 997 2706 1503 
Q 2706 1984 2436 2262 
Q 2166 2541 1728 2541 
Q 1456 2541 1237 2417 
Q 1019 2294 894 2097 
L 366 2166 
L 809 4519 
L 3088 4519 
L 3088 3981 
L 1259 3981 
L 1013 2750 
Q 1425 3038 1878 3038 
Q 2478 3038 2890 2622 
Q 3303 2206 3303 1553 
Q 3303 931 2941 478 
Q 2500 -78 1738 -78 
Q 1113 -78 717 272 
Q 322 622 266 1200 
z
" id="ArialMT-35" transform="scale(0.015625)"/>
       </defs>
       <use xlink:href="#ArialMT-32"/>
       <use x="55.615234" xlink:href="#ArialMT-35"/>
      </g>
     </g>
    </g>
    <g id="xtick_3">
     <g id="text_3">
      <!-- 50 -->
      <g style="fill:#262626;" transform="translate(275.042928 547.315194)scale(0.11 -0.11)">
       <use xlink:href="#ArialMT-35"/>
       <use x="55.615234" xlink:href="#ArialMT-30"/>
      </g>
     </g>
    </g>
    <g id="xtick_4">
     <g id="text_4">
      <!-- 75 -->
      <g style="fill:#262626;" transform="translate(348.135181 547.315194)scale(0.11 -0.11)">
       <defs>
        <path d="M 303 3981 
L 303 4522 
L 3269 4522 
L 3269 4084 
Q 2831 3619 2401 2847 
Q 1972 2075 1738 1259 
Q 1569 684 1522 0 
L 944 0 
Q 953 541 1156 1306 
Q 1359 2072 1739 2783 
Q 2119 3494 2547 3981 
L 303 3981 
z
" id="ArialMT-37" transform="scale(0.015625)"/>
       </defs>
       <use xlink:href="#ArialMT-37"/>
       <use x="55.615234" xlink:href="#ArialMT-35"/>
      </g>
     </g>
    </g>
    <g id="xtick_5">
     <g id="text_5">
      <!-- 100 -->
      <g style="fill:#262626;" transform="translate(418.168918 547.315194)scale(0.11 -0.11)">
       <defs>
        <path d="M 2384 0 
L 1822 0 
L 1822 3584 
Q 1619 3391 1289 3197 
Q 959 3003 697 2906 
L 697 3450 
Q 1169 3672 1522 3987 
Q 1875 4303 2022 4600 
L 2384 4600 
L 2384 0 
z
" id="ArialMT-31" transform="scale(0.015625)"/>
       </defs>
       <use xlink:href="#ArialMT-31"/>
       <use x="55.615234" xlink:href="#ArialMT-30"/>
       <use x="111.230469" xlink:href="#ArialMT-30"/>
      </g>
     </g>
    </g>
    <g id="xtick_6">
     <g id="text_6">
      <!-- 125 -->
      <g style="fill:#262626;" transform="translate(491.261171 547.315194)scale(0.11 -0.11)">
       <use xlink:href="#ArialMT-31"/>
       <use x="55.615234" xlink:href="#ArialMT-32"/>
       <use x="111.230469" xlink:href="#ArialMT-35"/>
      </g>
     </g>
    </g>
    <g id="xtick_7">
     <g id="text_7">
      <!-- 150 -->
      <g style="fill:#262626;" transform="translate(564.353423 547.315194)scale(0.11 -0.11)">
       <use xlink:href="#ArialMT-31"/>
       <use x="55.615234" xlink:href="#ArialMT-35"/>
       <use x="111.230469" xlink:href="#ArialMT-30"/>
      </g>
     </g>
    </g>
    <g id="xtick_8">
     <g id="text_8">
      <!-- 175 -->
      <g style="fill:#262626;" transform="translate(637.445676 547.315194)scale(0.11 -0.11)">
       <use xlink:href="#ArialMT-31"/>
       <use x="55.615234" xlink:href="#ArialMT-37"/>
       <use x="111.230469" xlink:href="#ArialMT-35"/>
      </g>
     </g>
    </g>
    <g id="xtick_9">
     <g id="text_9">
      <!-- 200 -->
      <g style="fill:#262626;" transform="translate(710.537928 547.315194)scale(0.11 -0.11)">
       <use xlink:href="#ArialMT-32"/>
       <use x="55.615234" xlink:href="#ArialMT-30"/>
       <use x="111.230469" xlink:href="#ArialMT-30"/>
      </g>
     </g>
    </g>
   </g>
   <g id="matplotlib.axis_2">
    <g id="ytick_1">
     <g id="text_10">
      <!-- −25 -->
      <g style="fill:#262626;" transform="translate(77.14125 533.878397)scale(0.11 -0.11)">
       <defs>
        <path d="M 3381 1997 
L 356 1997 
L 356 2522 
L 3381 2522 
L 3381 1997 
z
" id="ArialMT-2212" transform="scale(0.015625)"/>
       </defs>
       <use xlink:href="#ArialMT-2212"/>
       <use x="58.398438" xlink:href="#ArialMT-32"/>
       <use x="114.013672" xlink:href="#ArialMT-35"/>
      </g>
     </g>
    </g>
    <g id="ytick_2">
     <g id="text_11">
      <!-- −20 -->
      <g style="fill:#262626;" transform="translate(77.14125 442.180637)scale(0.11 -0.11)">
       <use xlink:href="#ArialMT-2212"/>
       <use x="58.398438" xlink:href="#ArialMT-32"/>
       <use x="114.013672" xlink:href="#ArialMT-30"/>
      </g>
     </g>
    </g>
    <g id="ytick_3">
     <g id="text_12">
      <!-- −15 -->
      <g style="fill:#262626;" transform="translate(77.14125 350.482877)scale(0.11 -0.11)">
       <use xlink:href="#ArialMT-2212"/>
       <use x="58.398438" xlink:href="#ArialMT-31"/>
       <use x="114.013672" xlink:href="#ArialMT-35"/>
      </g>
     </g>
    </g>
    <g id="ytick_4">
     <g id="text_13">
      <!-- −10 -->
      <g style="fill:#262626;" transform="translate(77.14125 258.785117)scale(0.11 -0.11)">
       <use xlink:href="#ArialMT-2212"/>
       <use x="58.398438" xlink:href="#ArialMT-31"/>
       <use x="114.013672" xlink:href="#ArialMT-30"/>
      </g>
     </g>
    </g>
    <g id="ytick_5">
     <g id="text_14">
      <!-- −5 -->
      <g style="fill:#262626;" transform="translate(83.258281 167.087357)scale(0.11 -0.11)">
       <use xlink:href="#ArialMT-2212"/>
       <use x="58.398438" xlink:href="#ArialMT-35"/>
      </g>
     </g>
    </g>
    <g id="ytick_6">
     <g id="text_15">
      <!-- 0 -->
      <g style="fill:#262626;" transform="translate(89.682969 75.389597)scale(0.11 -0.11)">
       <use xlink:href="#ArialMT-30"/>
      </g>
     </g>
    </g>
   </g>
   <g id="line2d_1">
    <path clip-path="url(#pf9e479c193)" d="M 134.975455 563.653008 
L 137.899145 564.436348 
L 140.822835 565.554376 
L 143.746525 565.357124 
L 146.670215 566.107269 
L 149.593905 568.50906 
L 152.517595 569.113548 
L 155.441285 571.662115 
L 158.364975 573.971139 
L 161.288665 575.461459 
L 164.212356 578.662891 
L 167.136046 582.633182 
L 168.906206 596.44 
M 185.641781 596.44 
L 187.601876 547.244697 
L 189.825681 596.44 
M 201.885121 596.44 
L 202.220327 588.906166 
L 205.144017 575.92029 
L 205.825275 596.44 
M 209.984735 596.44 
L 210.991397 560.972217 
L 213.915087 583.542065 
L 215.132057 596.44 
M 222.009506 596.44 
L 222.686158 591.114203 
L 225.609848 570.792934 
L 227.604945 596.44 
M 232.159723 596.44 
L 234.380918 519.450912 
L 237.919889 596.44 
M 243.368976 596.44 
L 246.075678 497.62869 
L 248.999369 487.906126 
L 251.923059 580.463937 
L 254.846749 571.612758 
L 257.404564 596.44 
M 257.916184 596.44 
L 260.694129 528.750324 
L 262.414517 596.44 
M 265.077003 596.44 
L 266.541509 548.922684 
L 269.465199 536.557632 
L 272.388889 555.028394 
L 275.312579 574.391738 
L 278.23627 579.764654 
L 281.15996 567.775111 
L 284.08365 538.793409 
L 287.00734 551.290789 
L 289.93103 592.396147 
L 292.85472 545.363897 
L 295.77841 526.773434 
L 298.7021 583.42873 
L 301.62579 587.491823 
L 304.549481 554.273737 
L 307.473171 529.149655 
L 310.396861 549.714664 
L 313.320551 515.697882 
L 316.244241 549.855073 
L 319.167931 524.708989 
L 322.091621 544.346925 
L 325.015311 509.978385 
L 327.939001 547.658999 
L 330.862691 583.256069 
L 333.786382 556.285747 
L 336.710072 517.239027 
L 339.633762 574.055371 
L 342.235894 596.44 
M 342.665564 596.44 
L 345.481142 524.400046 
L 348.404832 492.258992 
L 351.328522 478.140327 
L 354.252212 553.984313 
L 357.175902 540.461006 
L 360.099592 525.225852 
L 362.802803 596.44 
M 363.234248 596.44 
L 365.946973 521.752311 
L 368.870663 521.884955 
L 371.794353 540.379573 
L 374.567761 596.44 
M 382.273646 596.44 
L 383.489113 556.953129 
L 386.412803 535.598623 
L 389.336494 575.174379 
L 392.260184 549.57324 
L 395.183874 568.356548 
L 398.107564 516.573429 
L 401.031254 491.448018 
L 403.954944 495.228752 
L 406.878634 541.962379 
L 409.802324 500.331868 
L 412.726014 483.084389 
L 415.649704 566.101252 
L 418.573395 542.011491 
L 421.497085 584.321837 
L 421.972839 596.44 
M 433.305018 596.44 
L 436.115535 530.194855 
L 439.039225 542.269188 
L 441.962915 591.893311 
L 444.886605 586.180496 
L 447.810296 508.185874 
L 450.733986 471.287376 
L 453.657676 539.020883 
L 456.581366 522.113304 
L 458.104612 596.44 
M 461.261875 596.44 
L 462.428746 551.052506 
L 465.352436 560.143787 
L 468.276126 539.580946 
L 471.199816 536.745999 
L 473.43202 596.44 
M 474.862531 596.44 
L 477.047197 541.775342 
L 479.970887 457.82399 
L 482.894577 581.411578 
L 485.818267 587.057127 
L 488.741957 587.921866 
L 491.665647 543.203887 
L 494.589337 539.910667 
L 496.391228 596.44 
M 498.594743 596.44 
L 500.436717 536.511808 
L 503.360408 468.852984 
L 507.568561 596.44 
M 516.050505 596.44 
L 517.978858 531.284059 
L 520.902548 578.058158 
L 523.826238 593.534044 
L 526.749928 550.894852 
L 529.234543 596.44 
M 534.163286 596.44 
L 535.520999 551.289985 
L 538.444689 527.684626 
L 541.478482 596.44 
M 544.873592 596.44 
L 547.215759 541.878882 
L 550.139449 579.15205 
L 553.063139 486.590076 
L 555.986829 561.569883 
L 558.910519 538.35532 
L 561.83421 539.442811 
L 564.7579 552.162349 
L 567.68159 512.416206 
L 570.60528 518.424706 
L 573.52897 510.649265 
L 576.45266 490.474002 
L 579.37635 529.176239 
L 582.30004 543.02409 
L 585.22373 539.271724 
L 588.147421 527.580106 
L 591.071111 521.500631 
L 593.994801 541.587779 
L 596.918491 473.115776 
L 599.842181 531.468194 
L 602.765871 521.873447 
L 605.689561 530.214548 
L 608.613251 523.332669 
L 611.223042 596.44 
M 614.754669 596.44 
L 617.384322 458.606316 
L 620.308012 489.633714 
L 623.231702 552.834173 
L 625.456419 596.44 
M 628.022788 596.44 
L 629.079082 588.69041 
L 632.002772 568.872991 
L 634.926462 546.354703 
L 637.850152 580.733772 
L 640.773842 510.925326 
L 643.697532 451.85757 
L 646.621223 496.599056 
L 649.544913 514.47348 
L 652.468603 584.73586 
L 655.392293 549.030807 
L 658.315983 516.406295 
L 661.239673 577.211504 
L 664.163363 511.044678 
L 667.087053 568.158876 
L 670.010743 575.740913 
L 672.934433 561.188567 
L 675.858124 565.610554 
L 678.781814 531.027587 
L 681.705504 589.65701 
L 682.178132 596.44 
M 686.261406 596.44 
L 687.552884 568.606584 
L 688.330197 596.44 
M 700.533147 596.44 
L 702.171335 586.894401 
L 705.095025 588.913652 
L 708.018715 583.052556 
L 710.942405 585.011956 
L 713.866095 583.773807 
L 716.789785 584.776891 
L 719.713475 583.345478 
L 722.637165 581.012947 
L 725.560855 584.874905 
L 728.484545 585.809953 
L 728.484545 585.809953 
" style="fill:none;stroke:#4c72b0;stroke-linecap:round;stroke-width:1.5;"/>
   </g>
   <g id="line2d_2">
    <path clip-path="url(#pf9e479c193)" d="M 134.975455 555.11364 
L 137.899145 558.726156 
L 140.822835 559.478714 
L 143.746525 559.560007 
L 146.670215 560.942274 
L 149.593905 563.52617 
L 152.517595 562.092763 
L 155.441285 563.989584 
L 158.364975 563.593227 
L 161.288665 565.167673 
L 164.212356 566.561028 
L 167.136046 567.143444 
L 170.059736 586.699458 
L 172.983426 592.741154 
L 173.574132 596.44 
M 185.181898 596.44 
L 187.601876 521.139708 
L 190.072157 596.44 
M 210.656602 596.44 
L 210.991397 585.892961 
L 213.915087 567.744189 
L 215.650045 596.44 
M 221.546544 596.44 
L 222.686158 590.865951 
L 225.609848 565.741484 
L 229.09714 596.44 
M 231.990508 596.44 
L 234.380918 513.617136 
L 238.525885 596.44 
M 243.206161 596.44 
L 246.075678 506.941044 
L 248.999369 515.378795 
L 251.923059 577.72459 
L 254.846749 570.8864 
L 257.10488 596.44 
M 258.134846 596.44 
L 260.694129 543.544241 
L 262.142017 596.44 
M 265.517139 596.44 
L 266.541509 567.361474 
L 269.465199 551.174061 
L 272.388889 584.17842 
L 274.107027 596.44 
M 280.677564 596.44 
L 281.15996 594.832429 
L 284.08365 552.764074 
L 287.00734 566.373956 
L 288.643477 596.44 
M 291.660876 596.44 
L 292.85472 580.11092 
L 295.77841 544.99248 
L 298.246417 596.44 
M 302.780474 596.44 
L 304.549481 568.628656 
L 307.473171 545.746367 
L 310.396861 542.456471 
L 313.320551 534.03474 
L 316.244241 567.252231 
L 319.167931 558.307516 
L 322.091621 556.277876 
L 325.015311 507.205702 
L 327.939001 576.086795 
L 330.862691 583.541925 
L 333.786382 546.618766 
L 336.710072 552.764878 
L 339.633762 588.848939 
L 342.557452 589.017962 
L 345.481142 521.194067 
L 348.404832 501.520031 
L 351.328522 559.835089 
L 353.919893 596.44 
M 354.427055 596.44 
L 360.099592 441.626188 
L 363.023283 442.266286 
L 365.946973 488.568506 
L 368.870663 474.756265 
L 371.794353 484.634384 
L 374.718043 538.462988 
L 377.641733 570.306888 
L 380.225888 596.44 
M 380.693882 596.44 
L 383.489113 521.724152 
L 386.412803 550.128022 
L 389.336494 579.974288 
L 392.260184 556.841543 
L 395.183874 577.637909 
L 398.107564 521.140093 
L 401.031254 489.965114 
L 403.954944 528.512111 
L 406.878634 539.355536 
L 409.802324 539.47856 
L 412.726014 547.014144 
L 415.649704 587.54076 
L 418.573395 546.398952 
L 422.138514 596.44 
M 426.063838 596.44 
L 427.344465 570.54685 
L 430.268155 580.286834 
L 433.191845 565.858876 
L 436.115535 519.407222 
L 439.039225 578.929893 
L 440.530259 596.44 
M 442.894831 596.44 
L 444.886605 560.481099 
L 447.810296 488.393361 
L 450.733986 507.446154 
L 453.657676 544.080029 
L 456.581366 561.063199 
L 457.55748 596.44 
M 461.302897 596.44 
L 462.428746 552.238011 
L 465.352436 576.31343 
L 468.276126 528.80087 
L 471.199816 541.684709 
L 474.123506 587.149684 
L 477.047197 573.619102 
L 479.970887 463.125406 
L 482.894577 574.116481 
L 485.169962 596.44 
M 489.120173 596.44 
L 491.665647 561.712392 
L 494.589337 548.09345 
L 496.283008 596.44 
M 498.619973 596.44 
L 500.436717 538.814362 
L 503.360408 468.699352 
L 506.284098 560.258976 
L 507.617689 596.44 
M 516.565629 596.44 
L 517.978858 560.342963 
L 520.902548 587.617366 
L 523.826238 589.004529 
L 526.749928 563.1168 
L 528.71382 596.44 
M 533.941861 596.44 
L 535.520999 548.306757 
L 538.444689 527.079298 
L 543.761469 596.44 
M 544.502892 596.44 
L 547.215759 508.743279 
L 550.139449 553.022785 
L 553.063139 497.190251 
L 555.986829 494.585996 
L 558.910519 462.68333 
L 561.83421 432.035044 
L 564.7579 507.615037 
L 567.68159 479.204381 
L 570.60528 576.845195 
L 573.52897 460.609686 
L 576.45266 458.714509 
L 579.37635 503.922312 
L 582.30004 465.121431 
L 585.22373 549.002333 
L 588.147421 520.724111 
L 591.071111 540.952789 
L 593.994801 567.711448 
L 596.918491 497.284697 
L 599.842181 585.782144 
L 602.765871 542.557808 
L 605.689561 575.901996 
L 607.626081 596.44 
M 616.44186 596.44 
L 617.384322 563.798279 
L 620.308012 547.780729 
L 623.231702 581.978078 
L 623.82772 596.44 
M 634.795147 596.44 
L 634.926462 595.59611 
L 637.850152 595.868534 
L 640.773842 543.518426 
L 643.697532 454.196432 
L 646.621223 518.632522 
L 649.544913 547.04713 
L 652.468603 592.223207 
L 655.392293 578.740442 
L 658.315983 494.585751 
L 661.239673 579.653732 
L 664.163363 507.162327 
L 667.087053 578.249149 
L 670.010743 590.894075 
L 672.934433 563.782258 
L 675.858124 570.545136 
L 678.781814 557.208342 
L 681.563735 596.44 
M 686.296444 596.44 
L 687.552884 567.104092 
L 688.4075 596.44 
M 700.707291 596.44 
L 702.171335 577.302487 
L 705.095025 579.589299 
L 708.018715 578.42884 
L 710.942405 580.35487 
L 713.866095 578.336878 
L 716.789785 579.79701 
L 719.713475 579.469318 
L 722.637165 575.417769 
L 725.560855 579.67528 
L 728.484545 575.483846 
L 728.484545 575.483846 
" style="fill:none;stroke:#dd8452;stroke-dasharray:6,2.25;stroke-dashoffset:0;stroke-width:1.5;"/>
   </g>
   <g id="line2d_3">
    <path clip-path="url(#pf9e479c193)" d="M 134.975455 556.301383 
L 137.899145 559.78986 
L 140.822835 561.752129 
L 143.746525 559.003092 
L 146.670215 567.73443 
L 149.593905 568.974678 
L 152.517595 570.400669 
L 155.441285 591.693681 
L 158.364975 592.564331 
L 161.288665 582.634861 
L 164.212356 584.677828 
L 167.136046 577.261001 
L 170.059736 580.690117 
L 172.348119 596.44 
M 184.379278 596.44 
L 184.678186 585.255731 
L 187.601876 532.492371 
L 190.525567 567.676083 
L 193.449257 590.631305 
L 196.372947 585.209733 
L 197.44966 596.44 
M 201.694296 596.44 
L 202.220327 592.213552 
L 203.594009 596.44 
M 205.281816 596.44 
L 208.067707 500.025549 
L 210.991397 563.674905 
L 213.915087 593.230873 
L 216.838777 574.158912 
L 219.762468 559.853139 
L 222.686158 554.39851 
L 225.609848 503.222643 
L 228.533538 549.806346 
L 231.457228 588.728328 
L 234.380918 525.188284 
L 237.304608 572.939582 
L 238.153815 596.44 
M 243.714586 596.44 
L 246.075678 498.863726 
L 248.999369 538.518082 
L 251.923059 537.13669 
L 254.775757 596.44 
M 258.30649 596.44 
L 260.694129 533.517107 
L 262.86654 596.44 
M 264.771369 596.44 
L 266.541509 563.04824 
L 272.388889 593.431763 
L 275.312579 578.141445 
L 278.23627 560.516463 
L 281.15996 497.039768 
L 284.08365 476.92509 
L 287.00734 467.802362 
L 289.93103 503.304636 
L 292.85472 514.75199 
L 295.77841 540.149335 
L 297.882967 596.44 
M 304.134247 596.44 
L 304.549481 586.361517 
L 307.473171 572.186814 
L 310.232141 596.44 
M 311.509214 596.44 
L 313.320551 594.08211 
L 314.921346 596.44 
M 316.902145 596.44 
L 319.167931 589.729278 
L 322.091621 577.122795 
L 325.015311 532.317576 
L 327.939001 589.963084 
L 328.58947 596.44 
M 332.209479 596.44 
L 333.786382 569.93736 
L 336.710072 565.299477 
L 338.66899 596.44 
M 344.106473 596.44 
L 345.481142 553.700906 
L 348.404832 517.088299 
L 351.137007 596.44 
M 351.604795 596.44 
L 354.252212 543.139034 
L 357.175902 595.098801 
L 360.099592 499.782823 
L 363.023283 564.762081 
L 365.946973 498.620825 
L 368.870663 544.572056 
L 371.794353 481.030438 
L 374.718043 585.296168 
L 376.249324 596.44 
M 378.98739 596.44 
L 380.565423 584.556938 
L 383.489113 566.133084 
L 386.412803 579.993597 
L 387.678662 596.44 
M 391.759154 596.44 
L 392.260184 591.985518 
L 395.183874 595.822256 
L 398.107564 543.165269 
L 401.031254 527.082761 
L 403.954944 538.6169 
L 406.878634 551.286941 
L 409.802324 584.818412 
L 412.726014 563.721638 
L 415.649704 569.381949 
L 418.33106 596.44 
M 418.680039 596.44 
L 421.497085 531.842479 
L 424.420775 480.072723 
L 427.344465 452.825674 
L 430.268155 471.42908 
L 433.191845 480.484436 
L 436.115535 460.878961 
L 439.039225 543.25828 
L 441.808581 596.44 
M 442.117294 596.44 
L 444.886605 543.274266 
L 447.810296 568.205364 
L 450.733986 513.89806 
L 453.657676 529.957586 
L 456.581366 579.891246 
L 456.87117 596.44 
M 463.917817 596.44 
L 465.352436 576.967309 
L 468.276126 568.829861 
L 471.199816 496.233585 
L 474.123506 555.697629 
L 477.047197 524.749391 
L 479.970887 504.55251 
L 482.894577 572.408551 
L 484.491379 596.44 
M 487.940209 596.44 
L 488.741957 588.894867 
L 491.665647 579.303233 
L 494.589337 486.179937 
L 497.513027 541.167076 
L 500.436717 486.412134 
L 503.360408 503.696481 
L 506.284098 575.051879 
L 509.207788 532.821602 
L 512.131478 546.993716 
L 515.055168 570.25092 
L 517.978858 562.188573 
L 519.856004 596.44 
M 536.862895 596.44 
L 538.444689 577.785665 
L 540.831892 596.44 
M 544.499567 596.44 
L 547.215759 496.438253 
L 550.139449 584.287837 
L 553.063139 529.365306 
L 555.986829 487.469576 
L 558.910519 506.589496 
L 561.83421 480.047677 
L 564.7579 476.649133 
L 567.68159 472.563024 
L 570.60528 518.890534 
L 573.52897 548.840446 
L 576.45266 470.787968 
L 579.37635 527.120889 
L 582.30004 548.616749 
L 585.22373 592.819929 
L 588.147421 561.179508 
L 591.071111 578.327119 
L 593.994801 568.327899 
L 596.918491 482.955348 
L 599.826792 596.44 
M 600.0095 596.44 
L 602.765871 586.547505 
L 605.689561 560.935488 
L 608.613251 574.660279 
L 609.965677 596.44 
M 615.376228 596.44 
L 617.384322 513.597128 
L 620.308012 482.33337 
L 623.231702 569.329444 
L 624.346213 596.44 
M 627.868083 596.44 
L 629.079082 565.322809 
L 631.183883 596.44 
M 635.246083 596.44 
L 637.850152 524.332115 
L 640.773842 506.610518 
L 643.697532 523.099073 
L 646.621223 583.145253 
L 649.544913 524.640148 
L 652.437635 596.44 
M 652.580129 596.44 
L 655.392293 577.058222 
L 658.315983 503.85508 
L 661.239673 566.116189 
L 664.163363 507.533639 
L 667.087053 577.555882 
L 670.010743 585.98188 
L 672.934433 533.153351 
L 675.858124 584.251773 
L 678.781814 571.112965 
L 680.422456 596.44 
M 687.17332 596.44 
L 687.552884 587.62674 
L 687.889575 596.44 
M 701.978168 596.44 
L 702.171335 594.132341 
L 705.095025 586.926897 
L 708.018715 586.475726 
L 710.942405 592.870965 
L 713.866095 588.918199 
L 716.789785 589.546298 
L 719.713475 586.971357 
L 722.637165 586.918362 
L 725.560855 588.34075 
L 728.484545 579.463162 
L 728.484545 579.463162 
" style="fill:none;stroke:#55a868;stroke-dasharray:1.5,1.5;stroke-dashoffset:0;stroke-width:1.5;"/>
   </g>
   <g id="line2d_4">
    <path clip-path="url(#pf9e479c193)" d="M 134.975455 554.988272 
L 137.899145 558.576337 
L 140.822835 559.404067 
L 143.746525 559.344531 
L 146.670215 560.903061 
L 149.593905 563.477933 
L 152.517595 562.152474 
L 155.441285 564.208104 
L 158.364975 563.992453 
L 161.288665 565.61804 
L 164.212356 566.947277 
L 167.136046 567.697876 
L 170.059736 587.371632 
L 172.983426 593.394859 
L 173.469981 596.44 
M 185.210555 596.44 
L 187.601876 521.596406 
L 190.041804 596.44 
M 210.520156 596.44 
L 210.991397 580.627713 
L 213.915087 575.727061 
L 215.600484 596.44 
M 221.796486 596.44 
L 222.686158 591.825555 
L 225.609848 565.1647 
L 228.920759 596.44 
M 232.051494 596.44 
L 234.380918 514.520982 
L 238.329828 596.44 
M 243.276531 596.44 
L 246.075678 507.634835 
L 248.999369 515.367461 
L 251.923059 578.192306 
L 254.846749 571.307279 
L 257.268481 596.44 
M 258.032395 596.44 
L 260.694129 543.508107 
L 262.133557 596.44 
M 265.440262 596.44 
L 266.541509 563.458624 
L 269.465199 551.188368 
L 272.388889 580.664267 
L 274.114696 596.44 
M 280.124567 596.44 
L 281.15996 592.352387 
L 284.08365 552.497002 
L 287.00734 575.683092 
L 288.29226 596.44 
M 291.525129 596.44 
L 292.85472 574.359591 
L 295.77841 544.752623 
L 298.239284 596.44 
M 302.89798 596.44 
L 304.549481 571.821693 
L 307.473171 546.148146 
L 310.396861 544.764096 
L 313.320551 533.301456 
L 316.244241 569.259519 
L 319.167931 560.601989 
L 322.091621 567.079011 
L 325.015311 503.247794 
L 327.939001 563.697012 
L 330.862691 594.906096 
L 333.786382 543.661599 
L 336.710072 559.22371 
L 338.9197 596.44 
M 342.877002 596.44 
L 345.481142 526.374523 
L 348.404832 473.33594 
L 351.328522 537.376302 
L 354.252212 578.880326 
L 357.175902 498.298345 
L 360.099592 461.159325 
L 363.023283 584.732817 
L 365.946973 497.437909 
L 368.870663 490.658766 
L 371.794353 508.46365 
L 374.718043 564.318151 
L 377.641733 581.927077 
L 379.022696 596.44 
M 381.084349 596.44 
L 383.489113 521.307227 
L 386.412803 553.777337 
L 389.336494 580.744126 
L 392.260184 556.118963 
L 395.183874 577.792381 
L 398.107564 520.375781 
L 401.031254 491.291727 
L 403.954944 526.37977 
L 406.878634 542.086488 
L 409.802324 542.843768 
L 412.726014 545.624917 
L 415.649704 590.405685 
L 418.573395 547.679357 
L 421.796204 596.44 
M 426.223491 596.44 
L 427.344465 572.14106 
L 430.268155 579.196929 
L 433.191845 562.417272 
L 436.115535 517.563921 
L 439.039225 578.651103 
L 440.514111 596.44 
M 442.898457 596.44 
L 444.886605 559.304759 
L 447.810296 487.678267 
L 450.733986 501.463188 
L 453.657676 549.572261 
L 456.581366 561.667442 
L 457.565065 596.44 
M 461.246548 596.44 
L 462.428746 549.887535 
L 465.352436 578.950181 
L 468.276126 527.988671 
L 471.199816 547.585087 
L 474.123506 595.775662 
L 477.047197 579.653732 
L 479.970887 459.686531 
L 482.894577 574.826538 
L 485.180377 596.44 
M 489.244503 596.44 
L 491.665647 562.023013 
L 494.589337 548.760447 
L 496.245868 596.44 
M 498.629878 596.44 
L 500.436717 537.435068 
L 503.360408 466.738133 
L 506.284098 559.663968 
L 507.643558 596.44 
M 516.558953 596.44 
L 517.978858 559.872553 
L 520.902548 587.822138 
L 523.826238 587.707334 
L 526.749928 562.04666 
L 528.745426 596.44 
M 533.9206 596.44 
L 535.520999 547.646406 
L 538.444689 529.541045 
L 543.681208 596.44 
M 544.525096 596.44 
L 547.215759 508.712007 
L 550.139449 552.270647 
L 553.063139 495.52958 
L 555.986829 495.886794 
L 558.910519 462.694699 
L 561.83421 433.813983 
L 564.7579 508.412509 
L 567.68159 479.392923 
L 570.60528 572.095656 
L 573.52897 447.42453 
L 576.45266 505.182568 
L 579.37635 489.650295 
L 582.30004 480.048202 
L 585.15148 596.44 
M 585.31682 596.44 
L 588.147421 506.76408 
L 591.071111 512.405432 
L 593.994801 575.68617 
L 596.918491 520.603885 
L 599.842181 572.95046 
L 602.765871 561.187728 
L 605.689561 579.98006 
L 608.613251 594.993581 
L 608.698926 596.44 
M 616.355196 596.44 
L 617.384322 555.663769 
L 620.308012 543.278044 
L 623.231702 583.701783 
L 623.824268 596.44 
M 636.99062 596.44 
L 637.850152 595.644802 
L 640.773842 543.212981 
L 643.697532 453.771881 
L 646.621223 519.219975 
L 649.544913 543.93787 
L 652.468603 592.498569 
L 655.392293 578.498625 
L 658.315983 494.223429 
L 661.239673 580.040855 
L 664.163363 507.044654 
L 667.087053 576.302201 
L 670.010743 591.448227 
L 672.934433 562.681126 
L 675.858124 568.930148 
L 678.781814 556.424057 
L 681.768149 596.44 
M 686.256369 596.44 
L 687.552884 566.908484 
L 688.414932 596.44 
M 700.696627 596.44 
L 702.171335 575.783519 
L 705.095025 578.976171 
L 708.018715 577.947062 
L 710.942405 580.718626 
L 713.866095 578.632494 
L 716.789785 579.885054 
L 719.713475 579.634563 
L 722.637165 575.290197 
L 725.560855 580.076639 
L 728.484545 575.666441 
L 728.484545 575.666441 
" style="fill:none;stroke:#c44e52;stroke-dasharray:4.5,1.875,2.25,1.875;stroke-dashoffset:0;stroke-width:1.5;"/>
   </g>
   <g id="line2d_5">
    <path clip-path="url(#pf9e479c193)" d="M 134.975455 557.565102 
L 137.899145 561.229984 
L 140.822835 562.047709 
L 143.746525 562.395969 
L 146.670215 563.634118 
L 149.593905 566.74128 
L 152.517595 565.903651 
L 155.441285 567.664085 
L 158.364975 567.53263 
L 161.288665 569.863098 
L 164.212356 569.828328 
L 167.136046 569.908537 
L 170.059736 587.153567 
L 172.983426 593.066852 
L 173.609937 596.44 
M 185.414813 596.44 
L 187.601876 540.787124 
L 189.784717 596.44 
M 210.60466 596.44 
L 210.991397 583.424498 
L 213.915087 565.571306 
L 215.836877 596.44 
M 221.460132 596.44 
L 222.686158 590.578976 
L 225.609848 571.876857 
L 228.608079 596.44 
M 232.128418 596.44 
L 234.380918 518.321166 
L 237.304608 573.074009 
L 238.367501 596.44 
M 243.284924 596.44 
L 246.075678 503.603994 
L 248.999369 505.669943 
L 251.923059 584.911809 
L 254.846749 572.513351 
L 256.96352 596.44 
M 258.174621 596.44 
L 260.694129 539.583885 
L 262.206112 596.44 
M 265.399972 596.44 
L 266.541509 562.436756 
L 269.465199 549.972396 
L 272.388889 578.418137 
L 274.356033 596.44 
M 281.352006 596.44 
L 284.08365 559.400429 
L 287.00734 574.002971 
L 288.40307 596.44 
M 291.435655 596.44 
L 292.85472 573.27406 
L 295.77841 540.113831 
L 298.47254 596.44 
M 302.683838 596.44 
L 304.549481 568.897127 
L 307.473171 544.027524 
L 310.396861 558.797025 
L 313.320551 537.03105 
L 316.244241 566.521501 
L 319.167931 559.98183 
L 322.091621 571.018834 
L 325.015311 513.957596 
L 327.939001 561.38484 
L 330.763442 596.44 
M 330.956449 596.44 
L 333.786382 559.259215 
L 336.710072 530.295317 
L 339.569891 596.44 
M 342.891067 596.44 
L 345.481142 538.907758 
L 348.404832 488.68275 
L 351.328522 472.610561 
L 354.252212 554.488723 
L 357.175902 563.597669 
L 360.099592 566.283672 
L 361.170274 596.44 
M 364.46411 596.44 
L 365.946973 542.726306 
L 368.870663 546.605754 
L 371.794353 527.102175 
L 374.712765 596.44 
M 382.678655 596.44 
L 383.489113 570.138914 
L 386.412803 553.061333 
L 389.336494 584.546968 
L 392.260184 571.500438 
L 395.183874 588.551854 
L 398.107564 502.766785 
L 401.031254 504.796075 
L 403.954944 522.742033 
L 406.878634 550.985729 
L 409.802324 550.881489 
L 412.726014 538.423671 
L 415.083339 596.44 
M 416.322808 596.44 
L 418.573395 549.834016 
L 421.16435 596.44 
M 426.688944 596.44 
L 427.344465 581.980527 
L 430.268155 582.5415 
L 433.191845 568.09028 
L 436.115535 514.96033 
L 439.039225 577.504356 
L 440.517847 596.44 
M 443.033018 596.44 
L 444.886605 564.384753 
L 447.810296 487.327313 
L 450.733986 497.291343 
L 453.657676 535.204749 
L 456.581366 548.957629 
L 458.110387 596.44 
M 460.732055 596.44 
L 462.428746 536.550776 
L 465.352436 572.211265 
L 468.276126 532.987511 
L 471.199816 557.726115 
L 473.450413 596.44 
M 474.912261 596.44 
L 477.047197 565.100861 
L 479.970887 462.399853 
L 482.894577 584.434368 
L 484.373533 596.44 
M 489.407976 596.44 
L 491.665647 567.43836 
L 494.589337 547.416868 
L 496.250232 596.44 
M 498.622673 596.44 
L 500.436717 535.506625 
L 503.360408 462.536065 
L 506.284098 557.920324 
L 507.578289 596.44 
M 516.656281 596.44 
L 517.978858 564.036003 
L 520.902548 588.000501 
L 523.826238 583.182821 
L 526.749928 551.057333 
L 529.193587 596.44 
M 533.335347 596.44 
L 535.520999 529.763762 
L 538.444689 506.09439 
L 541.368379 560.399211 
L 543.700141 596.44 
M 544.548145 596.44 
L 547.215759 501.131369 
L 550.139449 548.13574 
L 553.063139 456.480096 
L 555.986829 530.174531 
L 558.910519 488.233748 
L 561.83421 470.797412 
L 564.7579 539.472369 
L 567.68159 509.802086 
L 570.60528 515.301839 
L 573.52897 503.857529 
L 576.45266 555.642676 
L 579.37635 526.613121 
L 582.30004 487.368904 
L 585.22373 571.223362 
L 588.147421 517.457372 
L 591.071111 528.114529 
L 593.994801 547.144025 
L 596.918491 502.728167 
L 599.842181 546.608657 
L 602.765871 533.994828 
L 605.689561 559.054512 
L 608.613251 578.798543 
L 610.164398 596.44 
M 615.79067 596.44 
L 617.384322 532.318975 
L 620.308012 525.715501 
L 623.231702 572.467003 
L 624.391741 596.44 
M 632.482639 596.44 
L 634.926462 587.839978 
L 637.850152 579.817193 
L 640.773842 521.971775 
L 643.697532 447.10198 
L 646.621223 503.501153 
L 649.544913 530.619511 
L 652.468603 570.639792 
L 655.392293 562.64653 
L 658.315983 494.384267 
L 661.239673 565.069799 
L 664.163363 499.934146 
L 667.087053 572.371438 
L 670.010743 586.719606 
L 672.934433 568.431405 
L 675.858124 566.941365 
L 678.781814 539.633941 
L 681.941917 596.44 
M 685.843133 596.44 
L 687.552884 558.016169 
L 688.8344 596.44 
M 700.272412 596.44 
L 702.171335 572.074773 
L 705.095025 574.944246 
L 708.018715 573.881031 
L 710.942405 575.735247 
L 713.866095 573.427307 
L 716.789785 573.896003 
L 719.713475 574.149257 
L 722.637165 569.507597 
L 725.560855 574.217993 
L 728.484545 570.579941 
L 728.484545 570.579941 
" style="fill:none;stroke:#8172b3;stroke-dasharray:7.5,1.5,1.5,1.5;stroke-dashoffset:0;stroke-width:1.5;"/>
   </g>
   <g id="line2d_6"/>
   <g id="line2d_7"/>
   <g id="line2d_8"/>
   <g id="line2d_9"/>
   <g id="line2d_10"/>
   <g id="patch_3">
    <path d="M 105.3 529.9416 
L 105.3 71.4528 
" style="fill:none;stroke:#262626;stroke-linecap:square;stroke-linejoin:miter;stroke-width:1.25;"/>
   </g>
   <g id="patch_4">
    <path d="M 758.16 529.9416 
L 758.16 71.4528 
" style="fill:none;stroke:#262626;stroke-linecap:square;stroke-linejoin:miter;stroke-width:1.25;"/>
   </g>
   <g id="patch_5">
    <path d="M 105.3 529.9416 
L 758.16 529.9416 
" style="fill:none;stroke:#262626;stroke-linecap:square;stroke-linejoin:miter;stroke-width:1.25;"/>
   </g>
   <g id="patch_6">
    <path d="M 105.3 71.4528 
L 758.16 71.4528 
" style="fill:none;stroke:#262626;stroke-linecap:square;stroke-linejoin:miter;stroke-width:1.25;"/>
   </g>
   <g id="text_16">
    <!-- Activations for &gt;9&lt; -->
    <g style="fill:#262626;" transform="translate(382.037813 65.4528)scale(0.12 -0.12)">
     <defs>
      <path d="M -9 0 
L 1750 4581 
L 2403 4581 
L 4278 0 
L 3588 0 
L 3053 1388 
L 1138 1388 
L 634 0 
L -9 0 
z
M 1313 1881 
L 2866 1881 
L 2388 3150 
Q 2169 3728 2063 4100 
Q 1975 3659 1816 3225 
L 1313 1881 
z
" id="ArialMT-41" transform="scale(0.015625)"/>
      <path d="M 2588 1216 
L 3141 1144 
Q 3050 572 2676 248 
Q 2303 -75 1759 -75 
Q 1078 -75 664 370 
Q 250 816 250 1647 
Q 250 2184 428 2587 
Q 606 2991 970 3192 
Q 1334 3394 1763 3394 
Q 2303 3394 2647 3120 
Q 2991 2847 3088 2344 
L 2541 2259 
Q 2463 2594 2264 2762 
Q 2066 2931 1784 2931 
Q 1359 2931 1093 2626 
Q 828 2322 828 1663 
Q 828 994 1084 691 
Q 1341 388 1753 388 
Q 2084 388 2306 591 
Q 2528 794 2588 1216 
z
" id="ArialMT-63" transform="scale(0.015625)"/>
      <path d="M 1650 503 
L 1731 6 
Q 1494 -44 1306 -44 
Q 1000 -44 831 53 
Q 663 150 594 308 
Q 525 466 525 972 
L 525 2881 
L 113 2881 
L 113 3319 
L 525 3319 
L 525 4141 
L 1084 4478 
L 1084 3319 
L 1650 3319 
L 1650 2881 
L 1084 2881 
L 1084 941 
Q 1084 700 1114 631 
Q 1144 563 1211 522 
Q 1278 481 1403 481 
Q 1497 481 1650 503 
z
" id="ArialMT-74" transform="scale(0.015625)"/>
      <path d="M 425 3934 
L 425 4581 
L 988 4581 
L 988 3934 
L 425 3934 
z
M 425 0 
L 425 3319 
L 988 3319 
L 988 0 
L 425 0 
z
" id="ArialMT-69" transform="scale(0.015625)"/>
      <path d="M 1344 0 
L 81 3319 
L 675 3319 
L 1388 1331 
Q 1503 1009 1600 663 
Q 1675 925 1809 1294 
L 2547 3319 
L 3125 3319 
L 1869 0 
L 1344 0 
z
" id="ArialMT-76" transform="scale(0.015625)"/>
      <path d="M 2588 409 
Q 2275 144 1986 34 
Q 1697 -75 1366 -75 
Q 819 -75 525 192 
Q 231 459 231 875 
Q 231 1119 342 1320 
Q 453 1522 633 1644 
Q 813 1766 1038 1828 
Q 1203 1872 1538 1913 
Q 2219 1994 2541 2106 
Q 2544 2222 2544 2253 
Q 2544 2597 2384 2738 
Q 2169 2928 1744 2928 
Q 1347 2928 1158 2789 
Q 969 2650 878 2297 
L 328 2372 
Q 403 2725 575 2942 
Q 747 3159 1072 3276 
Q 1397 3394 1825 3394 
Q 2250 3394 2515 3294 
Q 2781 3194 2906 3042 
Q 3031 2891 3081 2659 
Q 3109 2516 3109 2141 
L 3109 1391 
Q 3109 606 3145 398 
Q 3181 191 3288 0 
L 2700 0 
Q 2613 175 2588 409 
z
M 2541 1666 
Q 2234 1541 1622 1453 
Q 1275 1403 1131 1340 
Q 988 1278 909 1158 
Q 831 1038 831 891 
Q 831 666 1001 516 
Q 1172 366 1500 366 
Q 1825 366 2078 508 
Q 2331 650 2450 897 
Q 2541 1088 2541 1459 
L 2541 1666 
z
" id="ArialMT-61" transform="scale(0.015625)"/>
      <path d="M 213 1659 
Q 213 2581 725 3025 
Q 1153 3394 1769 3394 
Q 2453 3394 2887 2945 
Q 3322 2497 3322 1706 
Q 3322 1066 3130 698 
Q 2938 331 2570 128 
Q 2203 -75 1769 -75 
Q 1072 -75 642 372 
Q 213 819 213 1659 
z
M 791 1659 
Q 791 1022 1069 705 
Q 1347 388 1769 388 
Q 2188 388 2466 706 
Q 2744 1025 2744 1678 
Q 2744 2294 2464 2611 
Q 2184 2928 1769 2928 
Q 1347 2928 1069 2612 
Q 791 2297 791 1659 
z
" id="ArialMT-6f" transform="scale(0.015625)"/>
      <path d="M 422 0 
L 422 3319 
L 928 3319 
L 928 2847 
Q 1294 3394 1984 3394 
Q 2284 3394 2536 3286 
Q 2788 3178 2913 3003 
Q 3038 2828 3088 2588 
Q 3119 2431 3119 2041 
L 3119 0 
L 2556 0 
L 2556 2019 
Q 2556 2363 2490 2533 
Q 2425 2703 2258 2804 
Q 2091 2906 1866 2906 
Q 1506 2906 1245 2678 
Q 984 2450 984 1813 
L 984 0 
L 422 0 
z
" id="ArialMT-6e" transform="scale(0.015625)"/>
      <path d="M 197 991 
L 753 1078 
Q 800 744 1014 566 
Q 1228 388 1613 388 
Q 2000 388 2187 545 
Q 2375 703 2375 916 
Q 2375 1106 2209 1216 
Q 2094 1291 1634 1406 
Q 1016 1563 777 1677 
Q 538 1791 414 1992 
Q 291 2194 291 2438 
Q 291 2659 392 2848 
Q 494 3038 669 3163 
Q 800 3259 1026 3326 
Q 1253 3394 1513 3394 
Q 1903 3394 2198 3281 
Q 2494 3169 2634 2976 
Q 2775 2784 2828 2463 
L 2278 2388 
Q 2241 2644 2061 2787 
Q 1881 2931 1553 2931 
Q 1166 2931 1000 2803 
Q 834 2675 834 2503 
Q 834 2394 903 2306 
Q 972 2216 1119 2156 
Q 1203 2125 1616 2013 
Q 2213 1853 2448 1751 
Q 2684 1650 2818 1456 
Q 2953 1263 2953 975 
Q 2953 694 2789 445 
Q 2625 197 2315 61 
Q 2006 -75 1616 -75 
Q 969 -75 630 194 
Q 291 463 197 991 
z
" id="ArialMT-73" transform="scale(0.015625)"/>
      <path id="ArialMT-20" transform="scale(0.015625)"/>
      <path d="M 556 0 
L 556 2881 
L 59 2881 
L 59 3319 
L 556 3319 
L 556 3672 
Q 556 4006 616 4169 
Q 697 4388 901 4523 
Q 1106 4659 1475 4659 
Q 1713 4659 2000 4603 
L 1916 4113 
Q 1741 4144 1584 4144 
Q 1328 4144 1222 4034 
Q 1116 3925 1116 3625 
L 1116 3319 
L 1763 3319 
L 1763 2881 
L 1116 2881 
L 1116 0 
L 556 0 
z
" id="ArialMT-66" transform="scale(0.015625)"/>
      <path d="M 416 0 
L 416 3319 
L 922 3319 
L 922 2816 
Q 1116 3169 1280 3281 
Q 1444 3394 1641 3394 
Q 1925 3394 2219 3213 
L 2025 2691 
Q 1819 2813 1613 2813 
Q 1428 2813 1281 2702 
Q 1134 2591 1072 2394 
Q 978 2094 978 1738 
L 978 0 
L 416 0 
z
" id="ArialMT-72" transform="scale(0.015625)"/>
      <path d="M 3384 2003 
L 350 706 
L 350 1266 
L 2753 2263 
L 350 3250 
L 350 3809 
L 3384 2528 
L 3384 2003 
z
" id="ArialMT-3e" transform="scale(0.015625)"/>
      <path d="M 350 1059 
L 891 1109 
Q 959 728 1153 556 
Q 1347 384 1650 384 
Q 1909 384 2104 503 
Q 2300 622 2425 820 
Q 2550 1019 2634 1356 
Q 2719 1694 2719 2044 
Q 2719 2081 2716 2156 
Q 2547 1888 2255 1720 
Q 1963 1553 1622 1553 
Q 1053 1553 659 1965 
Q 266 2378 266 3053 
Q 266 3750 677 4175 
Q 1088 4600 1706 4600 
Q 2153 4600 2523 4359 
Q 2894 4119 3086 3673 
Q 3278 3228 3278 2384 
Q 3278 1506 3087 986 
Q 2897 466 2520 194 
Q 2144 -78 1638 -78 
Q 1100 -78 759 220 
Q 419 519 350 1059 
z
M 2653 3081 
Q 2653 3566 2395 3850 
Q 2138 4134 1775 4134 
Q 1400 4134 1122 3828 
Q 844 3522 844 3034 
Q 844 2597 1108 2323 
Q 1372 2050 1759 2050 
Q 2150 2050 2401 2323 
Q 2653 2597 2653 3081 
z
" id="ArialMT-39" transform="scale(0.015625)"/>
      <path d="M 350 2003 
L 350 2528 
L 3384 3809 
L 3384 3250 
L 978 2263 
L 3384 1266 
L 3384 706 
L 350 2003 
z
" id="ArialMT-3c" transform="scale(0.015625)"/>
     </defs>
     <use xlink:href="#ArialMT-41"/>
     <use x="66.699219" xlink:href="#ArialMT-63"/>
     <use x="116.699219" xlink:href="#ArialMT-74"/>
     <use x="144.482422" xlink:href="#ArialMT-69"/>
     <use x="166.699219" xlink:href="#ArialMT-76"/>
     <use x="216.699219" xlink:href="#ArialMT-61"/>
     <use x="272.314453" xlink:href="#ArialMT-74"/>
     <use x="300.097656" xlink:href="#ArialMT-69"/>
     <use x="322.314453" xlink:href="#ArialMT-6f"/>
     <use x="377.929688" xlink:href="#ArialMT-6e"/>
     <use x="433.544922" xlink:href="#ArialMT-73"/>
     <use x="483.544922" xlink:href="#ArialMT-20"/>
     <use x="511.328125" xlink:href="#ArialMT-66"/>
     <use x="539.111328" xlink:href="#ArialMT-6f"/>
     <use x="594.726562" xlink:href="#ArialMT-72"/>
     <use x="628.027344" xlink:href="#ArialMT-20"/>
     <use x="655.810547" xlink:href="#ArialMT-3e"/>
     <use x="714.208984" xlink:href="#ArialMT-39"/>
     <use x="769.824219" xlink:href="#ArialMT-3c"/>
    </g>
   </g>
   <g id="legend_1">
    <g id="patch_7">
     <path d="M 640.044062 158.514363 
L 750.46 158.514363 
Q 752.66 158.514363 752.66 156.314363 
L 752.66 79.1528 
Q 752.66 76.9528 750.46 76.9528 
L 640.044062 76.9528 
Q 637.844062 76.9528 637.844062 79.1528 
L 637.844062 156.314363 
Q 637.844062 158.514363 640.044062 158.514363 
z
" style="fill:#ffffff;opacity:0.8;stroke:#cccccc;stroke-linejoin:miter;"/>
    </g>
    <g id="line2d_11">
     <path d="M 642.244062 85.376394 
L 664.244062 85.376394 
" style="fill:none;stroke:#4c72b0;stroke-linecap:round;stroke-width:1.5;"/>
    </g>
    <g id="line2d_12"/>
    <g id="text_17">
     <!-- regular -->
     <g style="fill:#262626;" transform="translate(673.044062 89.226394)scale(0.11 -0.11)">
      <defs>
       <path d="M 2694 1069 
L 3275 997 
Q 3138 488 2766 206 
Q 2394 -75 1816 -75 
Q 1088 -75 661 373 
Q 234 822 234 1631 
Q 234 2469 665 2931 
Q 1097 3394 1784 3394 
Q 2450 3394 2872 2941 
Q 3294 2488 3294 1666 
Q 3294 1616 3291 1516 
L 816 1516 
Q 847 969 1125 678 
Q 1403 388 1819 388 
Q 2128 388 2347 550 
Q 2566 713 2694 1069 
z
M 847 1978 
L 2700 1978 
Q 2663 2397 2488 2606 
Q 2219 2931 1791 2931 
Q 1403 2931 1139 2672 
Q 875 2413 847 1978 
z
" id="ArialMT-65" transform="scale(0.015625)"/>
       <path d="M 319 -275 
L 866 -356 
Q 900 -609 1056 -725 
Q 1266 -881 1628 -881 
Q 2019 -881 2231 -725 
Q 2444 -569 2519 -288 
Q 2563 -116 2559 434 
Q 2191 0 1641 0 
Q 956 0 581 494 
Q 206 988 206 1678 
Q 206 2153 378 2554 
Q 550 2956 876 3175 
Q 1203 3394 1644 3394 
Q 2231 3394 2613 2919 
L 2613 3319 
L 3131 3319 
L 3131 450 
Q 3131 -325 2973 -648 
Q 2816 -972 2473 -1159 
Q 2131 -1347 1631 -1347 
Q 1038 -1347 672 -1080 
Q 306 -813 319 -275 
z
M 784 1719 
Q 784 1066 1043 766 
Q 1303 466 1694 466 
Q 2081 466 2343 764 
Q 2606 1063 2606 1700 
Q 2606 2309 2336 2618 
Q 2066 2928 1684 2928 
Q 1309 2928 1046 2623 
Q 784 2319 784 1719 
z
" id="ArialMT-67" transform="scale(0.015625)"/>
       <path d="M 2597 0 
L 2597 488 
Q 2209 -75 1544 -75 
Q 1250 -75 995 37 
Q 741 150 617 320 
Q 494 491 444 738 
Q 409 903 409 1263 
L 409 3319 
L 972 3319 
L 972 1478 
Q 972 1038 1006 884 
Q 1059 663 1231 536 
Q 1403 409 1656 409 
Q 1909 409 2131 539 
Q 2353 669 2445 892 
Q 2538 1116 2538 1541 
L 2538 3319 
L 3100 3319 
L 3100 0 
L 2597 0 
z
" id="ArialMT-75" transform="scale(0.015625)"/>
       <path d="M 409 0 
L 409 4581 
L 972 4581 
L 972 0 
L 409 0 
z
" id="ArialMT-6c" transform="scale(0.015625)"/>
      </defs>
      <use xlink:href="#ArialMT-72"/>
      <use x="33.300781" xlink:href="#ArialMT-65"/>
      <use x="88.916016" xlink:href="#ArialMT-67"/>
      <use x="144.53125" xlink:href="#ArialMT-75"/>
      <use x="200.146484" xlink:href="#ArialMT-6c"/>
      <use x="222.363281" xlink:href="#ArialMT-61"/>
      <use x="277.978516" xlink:href="#ArialMT-72"/>
     </g>
    </g>
    <g id="line2d_13">
     <path d="M 642.244062 101.0978 
L 664.244062 101.0978 
" style="fill:none;stroke:#dd8452;stroke-dasharray:6,2.25;stroke-dashoffset:0;stroke-width:1.5;"/>
    </g>
    <g id="line2d_14"/>
    <g id="text_18">
     <!-- splitted_3s -->
     <g style="fill:#262626;" transform="translate(673.044062 104.9478)scale(0.11 -0.11)">
      <defs>
       <path d="M 422 -1272 
L 422 3319 
L 934 3319 
L 934 2888 
Q 1116 3141 1344 3267 
Q 1572 3394 1897 3394 
Q 2322 3394 2647 3175 
Q 2972 2956 3137 2557 
Q 3303 2159 3303 1684 
Q 3303 1175 3120 767 
Q 2938 359 2589 142 
Q 2241 -75 1856 -75 
Q 1575 -75 1351 44 
Q 1128 163 984 344 
L 984 -1272 
L 422 -1272 
z
M 931 1641 
Q 931 1000 1190 694 
Q 1450 388 1819 388 
Q 2194 388 2461 705 
Q 2728 1022 2728 1688 
Q 2728 2322 2467 2637 
Q 2206 2953 1844 2953 
Q 1484 2953 1207 2617 
Q 931 2281 931 1641 
z
" id="ArialMT-70" transform="scale(0.015625)"/>
       <path d="M 2575 0 
L 2575 419 
Q 2259 -75 1647 -75 
Q 1250 -75 917 144 
Q 584 363 401 755 
Q 219 1147 219 1656 
Q 219 2153 384 2558 
Q 550 2963 881 3178 
Q 1213 3394 1622 3394 
Q 1922 3394 2156 3267 
Q 2391 3141 2538 2938 
L 2538 4581 
L 3097 4581 
L 3097 0 
L 2575 0 
z
M 797 1656 
Q 797 1019 1065 703 
Q 1334 388 1700 388 
Q 2069 388 2326 689 
Q 2584 991 2584 1609 
Q 2584 2291 2321 2609 
Q 2059 2928 1675 2928 
Q 1300 2928 1048 2622 
Q 797 2316 797 1656 
z
" id="ArialMT-64" transform="scale(0.015625)"/>
       <path d="M -97 -1272 
L -97 -866 
L 3631 -866 
L 3631 -1272 
L -97 -1272 
z
" id="ArialMT-5f" transform="scale(0.015625)"/>
       <path d="M 269 1209 
L 831 1284 
Q 928 806 1161 595 
Q 1394 384 1728 384 
Q 2125 384 2398 659 
Q 2672 934 2672 1341 
Q 2672 1728 2419 1979 
Q 2166 2231 1775 2231 
Q 1616 2231 1378 2169 
L 1441 2663 
Q 1497 2656 1531 2656 
Q 1891 2656 2178 2843 
Q 2466 3031 2466 3422 
Q 2466 3731 2256 3934 
Q 2047 4138 1716 4138 
Q 1388 4138 1169 3931 
Q 950 3725 888 3313 
L 325 3413 
Q 428 3978 793 4289 
Q 1159 4600 1703 4600 
Q 2078 4600 2393 4439 
Q 2709 4278 2876 4000 
Q 3044 3722 3044 3409 
Q 3044 3113 2884 2869 
Q 2725 2625 2413 2481 
Q 2819 2388 3044 2092 
Q 3269 1797 3269 1353 
Q 3269 753 2831 336 
Q 2394 -81 1725 -81 
Q 1122 -81 723 278 
Q 325 638 269 1209 
z
" id="ArialMT-33" transform="scale(0.015625)"/>
      </defs>
      <use xlink:href="#ArialMT-73"/>
      <use x="50" xlink:href="#ArialMT-70"/>
      <use x="105.615234" xlink:href="#ArialMT-6c"/>
      <use x="127.832031" xlink:href="#ArialMT-69"/>
      <use x="150.048828" xlink:href="#ArialMT-74"/>
      <use x="177.832031" xlink:href="#ArialMT-74"/>
      <use x="205.615234" xlink:href="#ArialMT-65"/>
      <use x="261.230469" xlink:href="#ArialMT-64"/>
      <use x="316.845703" xlink:href="#ArialMT-5f"/>
      <use x="372.460938" xlink:href="#ArialMT-33"/>
      <use x="428.076172" xlink:href="#ArialMT-73"/>
     </g>
    </g>
    <g id="line2d_15">
     <path d="M 642.244062 116.6903 
L 664.244062 116.6903 
" style="fill:none;stroke:#55a868;stroke-dasharray:1.5,1.5;stroke-dashoffset:0;stroke-width:1.5;"/>
    </g>
    <g id="line2d_16"/>
    <g id="text_19">
     <!-- splitted_1s -->
     <g style="fill:#262626;" transform="translate(673.044062 120.5403)scale(0.11 -0.11)">
      <use xlink:href="#ArialMT-73"/>
      <use x="50" xlink:href="#ArialMT-70"/>
      <use x="105.615234" xlink:href="#ArialMT-6c"/>
      <use x="127.832031" xlink:href="#ArialMT-69"/>
      <use x="150.048828" xlink:href="#ArialMT-74"/>
      <use x="177.832031" xlink:href="#ArialMT-74"/>
      <use x="205.615234" xlink:href="#ArialMT-65"/>
      <use x="261.230469" xlink:href="#ArialMT-64"/>
      <use x="316.845703" xlink:href="#ArialMT-5f"/>
      <use x="372.460938" xlink:href="#ArialMT-31"/>
      <use x="428.076172" xlink:href="#ArialMT-73"/>
     </g>
    </g>
    <g id="line2d_17">
     <path d="M 642.244062 132.384206 
L 664.244062 132.384206 
" style="fill:none;stroke:#c44e52;stroke-dasharray:4.5,1.875,2.25,1.875;stroke-dashoffset:0;stroke-width:1.5;"/>
    </g>
    <g id="line2d_18"/>
    <g id="text_20">
     <!-- overlap_1f_3s -->
     <g style="fill:#262626;" transform="translate(673.044062 136.234206)scale(0.11 -0.11)">
      <use xlink:href="#ArialMT-6f"/>
      <use x="55.615234" xlink:href="#ArialMT-76"/>
      <use x="105.615234" xlink:href="#ArialMT-65"/>
      <use x="161.230469" xlink:href="#ArialMT-72"/>
      <use x="194.53125" xlink:href="#ArialMT-6c"/>
      <use x="216.748047" xlink:href="#ArialMT-61"/>
      <use x="272.363281" xlink:href="#ArialMT-70"/>
      <use x="327.978516" xlink:href="#ArialMT-5f"/>
      <use x="383.59375" xlink:href="#ArialMT-31"/>
      <use x="439.208984" xlink:href="#ArialMT-66"/>
      <use x="466.992188" xlink:href="#ArialMT-5f"/>
      <use x="522.607422" xlink:href="#ArialMT-33"/>
      <use x="578.222656" xlink:href="#ArialMT-73"/>
     </g>
    </g>
    <g id="line2d_19">
     <path d="M 642.244062 148.078113 
L 664.244062 148.078113 
" style="fill:none;stroke:#8172b3;stroke-dasharray:7.5,1.5,1.5,1.5;stroke-dashoffset:0;stroke-width:1.5;"/>
    </g>
    <g id="line2d_20"/>
    <g id="text_21">
     <!-- overlap_10f_3s -->
     <g style="fill:#262626;" transform="translate(673.044062 151.928112)scale(0.11 -0.11)">
      <use xlink:href="#ArialMT-6f"/>
      <use x="55.615234" xlink:href="#ArialMT-76"/>
      <use x="105.615234" xlink:href="#ArialMT-65"/>
      <use x="161.230469" xlink:href="#ArialMT-72"/>
      <use x="194.53125" xlink:href="#ArialMT-6c"/>
      <use x="216.748047" xlink:href="#ArialMT-61"/>
      <use x="272.363281" xlink:href="#ArialMT-70"/>
      <use x="327.978516" xlink:href="#ArialMT-5f"/>
      <use x="383.59375" xlink:href="#ArialMT-31"/>
      <use x="439.208984" xlink:href="#ArialMT-30"/>
      <use x="494.824219" xlink:href="#ArialMT-66"/>
      <use x="522.607422" xlink:href="#ArialMT-5f"/>
      <use x="578.222656" xlink:href="#ArialMT-33"/>
      <use x="633.837891" xlink:href="#ArialMT-73"/>
     </g>
    </g>
   </g>
  </g>
 </g>
 <defs>
  <clipPath id="pf9e479c193">
   <rect height="458.4888" width="652.86" x="105.3" y="71.4528"/>
  </clipPath>
 </defs>
</svg>
