<?xml version="1.0" encoding="utf-8" standalone="no"?>
<!DOCTYPE svg PUBLIC "-//W3C//DTD SVG 1.1//EN"
  "http://www.w3.org/Graphics/SVG/1.1/DTD/svg11.dtd">
<svg height="595.44pt" version="1.1" viewBox="0 0 842.4 595.44" width="842.4pt" xmlns="http://www.w3.org/2000/svg" xmlns:xlink="http://www.w3.org/1999/xlink">
 <metadata>
  <rdf:RDF xmlns:cc="http://creativecommons.org/ns#" xmlns:dc="http://purl.org/dc/elements/1.1/" xmlns:rdf="http://www.w3.org/1999/02/22-rdf-syntax-ns#">
   <cc:Work>
    <dc:type rdf:resource="http://purl.org/dc/dcmitype/StillImage"/>
    <dc:date>2021-06-04T22:03:08.994825</dc:date>
    <dc:format>image/svg+xml</dc:format>
    <dc:creator>
     <cc:Agent>
      <dc:title>Matplotlib v3.4.1, https://matplotlib.org/</dc:title>
     </cc:Agent>
    </dc:creator>
   </cc:Work>
  </rdf:RDF>
 </metadata>
 <defs>
  <style type="text/css">*{stroke-linecap:butt;stroke-linejoin:round;}</style>
 </defs>
 <g id="figure_1">
  <g id="patch_1">
   <path d="M 0 595.44 
L 842.4 595.44 
L 842.4 0 
L 0 0 
z
" style="fill:#ffffff;"/>
  </g>
  <g id="axes_1">
   <g id="patch_2">
    <path d="M 105.3 529.9416 
L 758.16 529.9416 
L 758.16 71.4528 
L 105.3 71.4528 
z
" style="fill:#ffffff;"/>
   </g>
   <g id="matplotlib.axis_1">
    <g id="xtick_1">
     <g id="text_1">
      <!-- 0 -->
      <g style="fill:#262626;" transform="translate(131.916939 547.315194)scale(0.11 -0.11)">
       <defs>
        <path d="M 266 2259 
Q 266 3072 433 3567 
Q 600 4063 929 4331 
Q 1259 4600 1759 4600 
Q 2128 4600 2406 4451 
Q 2684 4303 2865 4023 
Q 3047 3744 3150 3342 
Q 3253 2941 3253 2259 
Q 3253 1453 3087 958 
Q 2922 463 2592 192 
Q 2263 -78 1759 -78 
Q 1097 -78 719 397 
Q 266 969 266 2259 
z
M 844 2259 
Q 844 1131 1108 757 
Q 1372 384 1759 384 
Q 2147 384 2411 759 
Q 2675 1134 2675 2259 
Q 2675 3391 2411 3762 
Q 2147 4134 1753 4134 
Q 1366 4134 1134 3806 
Q 844 3388 844 2259 
z
" id="ArialMT-30" transform="scale(0.015625)"/>
       </defs>
       <use xlink:href="#ArialMT-30"/>
      </g>
     </g>
    </g>
    <g id="xtick_2">
     <g id="text_2">
      <!-- 25 -->
      <g style="fill:#262626;" transform="translate(201.950676 547.315194)scale(0.11 -0.11)">
       <defs>
        <path d="M 3222 541 
L 3222 0 
L 194 0 
Q 188 203 259 391 
Q 375 700 629 1000 
Q 884 1300 1366 1694 
Q 2113 2306 2375 2664 
Q 2638 3022 2638 3341 
Q 2638 3675 2398 3904 
Q 2159 4134 1775 4134 
Q 1369 4134 1125 3890 
Q 881 3647 878 3216 
L 300 3275 
Q 359 3922 746 4261 
Q 1134 4600 1788 4600 
Q 2447 4600 2831 4234 
Q 3216 3869 3216 3328 
Q 3216 3053 3103 2787 
Q 2991 2522 2730 2228 
Q 2469 1934 1863 1422 
Q 1356 997 1212 845 
Q 1069 694 975 541 
L 3222 541 
z
" id="ArialMT-32" transform="scale(0.015625)"/>
        <path d="M 266 1200 
L 856 1250 
Q 922 819 1161 601 
Q 1400 384 1738 384 
Q 2144 384 2425 690 
Q 2706 997 2706 1503 
Q 2706 1984 2436 2262 
Q 2166 2541 1728 2541 
Q 1456 2541 1237 2417 
Q 1019 2294 894 2097 
L 366 2166 
L 809 4519 
L 3088 4519 
L 3088 3981 
L 1259 3981 
L 1013 2750 
Q 1425 3038 1878 3038 
Q 2478 3038 2890 2622 
Q 3303 2206 3303 1553 
Q 3303 931 2941 478 
Q 2500 -78 1738 -78 
Q 1113 -78 717 272 
Q 322 622 266 1200 
z
" id="ArialMT-35" transform="scale(0.015625)"/>
       </defs>
       <use xlink:href="#ArialMT-32"/>
       <use x="55.615234" xlink:href="#ArialMT-35"/>
      </g>
     </g>
    </g>
    <g id="xtick_3">
     <g id="text_3">
      <!-- 50 -->
      <g style="fill:#262626;" transform="translate(275.042928 547.315194)scale(0.11 -0.11)">
       <use xlink:href="#ArialMT-35"/>
       <use x="55.615234" xlink:href="#ArialMT-30"/>
      </g>
     </g>
    </g>
    <g id="xtick_4">
     <g id="text_4">
      <!-- 75 -->
      <g style="fill:#262626;" transform="translate(348.135181 547.315194)scale(0.11 -0.11)">
       <defs>
        <path d="M 303 3981 
L 303 4522 
L 3269 4522 
L 3269 4084 
Q 2831 3619 2401 2847 
Q 1972 2075 1738 1259 
Q 1569 684 1522 0 
L 944 0 
Q 953 541 1156 1306 
Q 1359 2072 1739 2783 
Q 2119 3494 2547 3981 
L 303 3981 
z
" id="ArialMT-37" transform="scale(0.015625)"/>
       </defs>
       <use xlink:href="#ArialMT-37"/>
       <use x="55.615234" xlink:href="#ArialMT-35"/>
      </g>
     </g>
    </g>
    <g id="xtick_5">
     <g id="text_5">
      <!-- 100 -->
      <g style="fill:#262626;" transform="translate(418.168918 547.315194)scale(0.11 -0.11)">
       <defs>
        <path d="M 2384 0 
L 1822 0 
L 1822 3584 
Q 1619 3391 1289 3197 
Q 959 3003 697 2906 
L 697 3450 
Q 1169 3672 1522 3987 
Q 1875 4303 2022 4600 
L 2384 4600 
L 2384 0 
z
" id="ArialMT-31" transform="scale(0.015625)"/>
       </defs>
       <use xlink:href="#ArialMT-31"/>
       <use x="55.615234" xlink:href="#ArialMT-30"/>
       <use x="111.230469" xlink:href="#ArialMT-30"/>
      </g>
     </g>
    </g>
    <g id="xtick_6">
     <g id="text_6">
      <!-- 125 -->
      <g style="fill:#262626;" transform="translate(491.261171 547.315194)scale(0.11 -0.11)">
       <use xlink:href="#ArialMT-31"/>
       <use x="55.615234" xlink:href="#ArialMT-32"/>
       <use x="111.230469" xlink:href="#ArialMT-35"/>
      </g>
     </g>
    </g>
    <g id="xtick_7">
     <g id="text_7">
      <!-- 150 -->
      <g style="fill:#262626;" transform="translate(564.353423 547.315194)scale(0.11 -0.11)">
       <use xlink:href="#ArialMT-31"/>
       <use x="55.615234" xlink:href="#ArialMT-35"/>
       <use x="111.230469" xlink:href="#ArialMT-30"/>
      </g>
     </g>
    </g>
    <g id="xtick_8">
     <g id="text_8">
      <!-- 175 -->
      <g style="fill:#262626;" transform="translate(637.445676 547.315194)scale(0.11 -0.11)">
       <use xlink:href="#ArialMT-31"/>
       <use x="55.615234" xlink:href="#ArialMT-37"/>
       <use x="111.230469" xlink:href="#ArialMT-35"/>
      </g>
     </g>
    </g>
    <g id="xtick_9">
     <g id="text_9">
      <!-- 200 -->
      <g style="fill:#262626;" transform="translate(710.537928 547.315194)scale(0.11 -0.11)">
       <use xlink:href="#ArialMT-32"/>
       <use x="55.615234" xlink:href="#ArialMT-30"/>
       <use x="111.230469" xlink:href="#ArialMT-30"/>
      </g>
     </g>
    </g>
   </g>
   <g id="matplotlib.axis_2">
    <g id="ytick_1">
     <g id="text_10">
      <!-- −25 -->
      <g style="fill:#262626;" transform="translate(77.14125 533.878397)scale(0.11 -0.11)">
       <defs>
        <path d="M 3381 1997 
L 356 1997 
L 356 2522 
L 3381 2522 
L 3381 1997 
z
" id="ArialMT-2212" transform="scale(0.015625)"/>
       </defs>
       <use xlink:href="#ArialMT-2212"/>
       <use x="58.398438" xlink:href="#ArialMT-32"/>
       <use x="114.013672" xlink:href="#ArialMT-35"/>
      </g>
     </g>
    </g>
    <g id="ytick_2">
     <g id="text_11">
      <!-- −20 -->
      <g style="fill:#262626;" transform="translate(77.14125 442.180637)scale(0.11 -0.11)">
       <use xlink:href="#ArialMT-2212"/>
       <use x="58.398438" xlink:href="#ArialMT-32"/>
       <use x="114.013672" xlink:href="#ArialMT-30"/>
      </g>
     </g>
    </g>
    <g id="ytick_3">
     <g id="text_12">
      <!-- −15 -->
      <g style="fill:#262626;" transform="translate(77.14125 350.482877)scale(0.11 -0.11)">
       <use xlink:href="#ArialMT-2212"/>
       <use x="58.398438" xlink:href="#ArialMT-31"/>
       <use x="114.013672" xlink:href="#ArialMT-35"/>
      </g>
     </g>
    </g>
    <g id="ytick_4">
     <g id="text_13">
      <!-- −10 -->
      <g style="fill:#262626;" transform="translate(77.14125 258.785117)scale(0.11 -0.11)">
       <use xlink:href="#ArialMT-2212"/>
       <use x="58.398438" xlink:href="#ArialMT-31"/>
       <use x="114.013672" xlink:href="#ArialMT-30"/>
      </g>
     </g>
    </g>
    <g id="ytick_5">
     <g id="text_14">
      <!-- −5 -->
      <g style="fill:#262626;" transform="translate(83.258281 167.087357)scale(0.11 -0.11)">
       <use xlink:href="#ArialMT-2212"/>
       <use x="58.398438" xlink:href="#ArialMT-35"/>
      </g>
     </g>
    </g>
    <g id="ytick_6">
     <g id="text_15">
      <!-- 0 -->
      <g style="fill:#262626;" transform="translate(89.682969 75.389597)scale(0.11 -0.11)">
       <use xlink:href="#ArialMT-30"/>
      </g>
     </g>
    </g>
   </g>
   <g id="line2d_1">
    <path clip-path="url(#p456634a7e7)" d="M 134.975455 304.404214 
L 137.899145 303.323335 
L 140.822835 304.787315 
L 146.670215 304.314106 
L 149.593905 306.253743 
L 152.517595 306.155449 
L 155.441285 308.672604 
L 158.364975 309.514186 
L 161.288665 311.421763 
L 164.212356 316.06638 
L 167.136046 318.766375 
L 170.059736 333.54198 
L 172.983426 346.939919 
L 175.907116 355.575202 
L 178.830806 372.639071 
L 181.754496 392.418746 
L 184.678186 383.396516 
L 187.601876 319.243693 
L 190.525567 277.065501 
L 193.449257 71.455316 
L 196.372947 71.817373 
L 199.296637 323.836417 
L 202.220327 335.738562 
L 205.144017 342.007331 
L 208.067707 333.803507 
L 210.991397 378.072222 
L 213.915087 71.457603 
L 216.838777 71.510097 
L 219.762468 291.486235 
L 222.686158 370.302797 
L 228.533538 391.699419 
L 231.457228 392.749831 
L 234.380918 318.62231 
L 237.304608 277.023175 
L 240.228298 71.454029 
L 243.151988 263.190244 
L 246.075678 371.122202 
L 248.999369 353.952553 
L 251.923059 412.432647 
L 254.846749 422.779113 
L 257.770439 308.983453 
L 260.694129 105.064069 
L 263.617819 71.453255 
L 266.541509 71.724054 
L 269.465199 207.147927 
L 272.388889 324.423695 
L 275.312579 361.620082 
L 278.23627 368.518087 
L 281.15996 333.191429 
L 284.08365 260.30998 
L 287.00734 257.767464 
L 289.93103 319.122103 
L 292.85472 295.963612 
L 295.77841 325.557534 
L 298.7021 388.873776 
L 301.62579 343.324394 
L 304.549481 338.042269 
L 307.473171 314.254402 
L 310.396861 360.574882 
L 313.320551 306.194487 
L 316.244241 330.807128 
L 319.167931 379.659016 
L 322.091621 370.598133 
L 325.015311 372.991179 
L 327.939001 450.983632 
L 330.862691 354.602987 
L 333.786382 281.76612 
L 336.710072 331.83872 
L 339.633762 387.899726 
L 342.557452 333.474364 
L 345.481142 330.354452 
L 348.404832 372.938744 
L 351.328522 329.940605 
L 354.252212 355.461779 
L 357.175902 446.959542 
L 360.099592 387.058668 
L 363.023283 371.075224 
L 365.946973 313.326035 
L 368.870663 377.425373 
L 371.794353 357.964365 
L 374.718043 403.250418 
L 377.641733 381.300694 
L 380.565423 417.872374 
L 383.489113 370.435266 
L 386.412803 309.088848 
L 389.336494 380.234891 
L 392.260184 440.836831 
L 395.183874 423.214368 
L 398.107564 329.654452 
L 401.031254 286.613357 
L 403.954944 298.269489 
L 406.878634 235.962906 
L 409.802324 71.698913 
L 412.726014 76.50284 
L 415.649704 264.087549 
L 418.573395 269.433197 
L 421.497085 345.877929 
L 424.420775 436.967423 
L 427.344465 295.287573 
L 430.268155 314.490115 
L 433.191845 344.419441 
L 436.115535 338.373284 
L 439.039225 377.192372 
L 441.962915 392.095672 
L 444.886605 365.58649 
L 447.810296 325.763058 
L 450.733986 129.790674 
L 453.657676 71.455773 
L 456.581366 322.531368 
L 459.505056 338.167515 
L 462.428746 283.429608 
L 465.352436 311.23163 
L 468.276126 279.959897 
L 471.199816 334.937906 
L 474.123506 368.32143 
L 477.047197 361.594406 
L 479.970887 269.874434 
L 482.894577 331.363833 
L 485.818267 294.623602 
L 488.741957 353.07858 
L 491.665647 447.262818 
L 494.589337 393.70083 
L 497.513027 403.101789 
L 500.436717 333.548469 
L 503.360408 111.302786 
L 506.284098 71.496604 
L 509.207788 328.709294 
L 512.131478 417.450587 
L 515.055168 411.524673 
L 517.978858 321.462732 
L 520.902548 384.113009 
L 523.826238 383.718366 
L 526.749928 375.113935 
L 529.673618 448.51349 
L 532.597309 367.706553 
L 535.520999 353.422503 
L 538.444689 344.66402 
L 541.368379 447.893401 
L 544.292069 324.984668 
L 547.215759 340.933779 
L 550.139449 422.223946 
L 553.063139 314.869961 
L 555.986829 254.496405 
L 558.910519 71.460122 
L 561.83421 71.611649 
L 564.7579 188.934897 
L 567.68159 228.33153 
L 570.60528 280.384326 
L 573.52897 335.417201 
L 576.45266 374.001784 
L 579.37635 382.487842 
L 582.30004 362.747694 
L 585.22373 71.829448 
L 588.147421 75.865234 
L 591.071111 347.652302 
L 593.994801 331.841659 
L 596.918491 283.746123 
L 599.842181 348.419762 
L 602.765871 381.318254 
L 605.689561 329.750384 
L 608.613251 388.347189 
L 611.536941 377.929924 
L 614.460631 346.099596 
L 617.384322 327.948848 
L 620.308012 220.789492 
L 623.231702 71.453056 
L 626.155392 189.820737 
L 629.079082 342.963769 
L 632.002772 394.798885 
L 634.926462 322.73831 
L 637.850152 344.923816 
L 640.773842 292.347458 
L 643.697532 256.129827 
L 646.621223 269.168592 
L 649.544913 352.39432 
L 652.468603 335.445273 
L 655.392293 414.340522 
L 658.315983 370.467553 
L 661.239673 402.629979 
L 664.163363 358.877009 
L 667.087053 316.916357 
L 670.010743 71.477874 
L 672.934433 71.56757 
L 675.858124 232.308432 
L 678.781814 73.86759 
L 681.705504 71.468886 
L 684.629194 265.93566 
L 687.552884 298.649318 
L 690.476574 408.82153 
L 693.400264 331.342548 
L 696.323954 354.11981 
L 699.247644 355.543772 
L 702.171335 343.712776 
L 705.095025 323.099145 
L 708.018715 315.084948 
L 710.942405 316.113777 
L 716.789785 314.71159 
L 719.713475 315.394555 
L 722.637165 313.638336 
L 725.560855 314.920682 
L 728.484545 314.496498 
L 728.484545 314.496498 
" style="fill:none;stroke:#4c72b0;stroke-linecap:round;stroke-width:1.5;"/>
   </g>
   <g id="line2d_2">
    <path clip-path="url(#p456634a7e7)" d="M 134.975455 307.276083 
L 137.899145 307.656018 
L 140.822835 307.173715 
L 143.746525 307.654566 
L 149.593905 309.853176 
L 152.517595 308.572929 
L 155.441285 310.83599 
L 158.364975 309.156761 
L 161.288665 308.582268 
L 164.212356 310.153531 
L 167.136046 311.064898 
L 170.059736 317.437977 
L 172.983426 326.005644 
L 175.907116 338.438172 
L 178.830806 361.37426 
L 181.754496 379.232226 
L 184.678186 376.651268 
L 187.601876 273.07417 
L 190.525567 263.601992 
L 193.449257 71.459473 
L 196.372947 71.787803 
L 199.296637 285.880546 
L 202.220327 310.127157 
L 205.144017 364.747461 
L 208.067707 357.063755 
L 210.991397 383.861434 
L 213.915087 71.572851 
L 216.838777 71.479431 
L 219.762468 288.214318 
L 222.686158 364.126445 
L 225.609848 354.771101 
L 228.533538 359.762246 
L 231.457228 367.562575 
L 234.380918 293.228602 
L 237.304608 289.287555 
L 240.228298 71.459526 
L 246.075678 341.38028 
L 248.999369 374.316953 
L 251.923059 422.611104 
L 254.846749 423.204748 
L 257.770439 284.527295 
L 260.694129 93.164145 
L 263.617819 71.453513 
L 266.541509 71.76656 
L 269.465199 190.988516 
L 272.388889 325.078396 
L 275.312579 368.727162 
L 278.23627 374.651326 
L 281.15996 333.429572 
L 284.08365 262.832976 
L 287.00734 265.432789 
L 289.93103 356.947639 
L 292.85472 322.251844 
L 295.77841 321.830581 
L 298.7021 383.888123 
L 301.62579 344.935884 
L 304.549481 343.14089 
L 307.473171 341.863563 
L 310.396861 378.054732 
L 313.320551 336.810906 
L 316.244241 342.299308 
L 319.167931 395.856818 
L 322.091621 327.395536 
L 325.015311 335.828373 
L 327.939001 445.05415 
L 330.862691 382.424843 
L 333.786382 267.367756 
L 336.710072 369.091757 
L 339.633762 390.03399 
L 342.557452 327.794604 
L 345.481142 298.091913 
L 348.404832 290.721836 
L 351.328522 75.493527 
L 354.252212 310.98803 
L 357.175902 257.163623 
L 360.099592 153.367376 
L 363.023283 152.917263 
L 365.946973 223.873479 
L 368.870663 196.539357 
L 371.794353 219.369814 
L 374.718043 207.841902 
L 377.641733 215.366564 
L 380.565423 286.018821 
L 383.489113 221.488583 
L 386.412803 281.018879 
L 389.336494 345.640835 
L 392.260184 440.415428 
L 395.183874 427.460125 
L 398.107564 287.203766 
L 401.031254 239.355906 
L 403.954944 302.252162 
L 406.878634 191.727641 
L 409.802324 74.152588 
L 412.726014 88.463346 
L 415.649704 233.8267 
L 418.573395 229.033349 
L 421.497085 322.614813 
L 424.420775 352.809427 
L 427.344465 181.027057 
L 430.268155 235.097206 
L 433.191845 283.946051 
L 436.115535 320.300367 
L 439.039225 391.687106 
L 441.962915 366.74408 
L 444.886605 296.130379 
L 447.810296 294.185863 
L 450.733986 200.255868 
L 453.657676 71.455554 
L 456.581366 302.857612 
L 459.505056 328.457456 
L 462.428746 262.940819 
L 465.352436 298.04497 
L 468.276126 274.259849 
L 471.199816 330.098557 
L 474.123506 343.104913 
L 477.047197 359.864055 
L 479.970887 244.945802 
L 482.894577 309.651447 
L 485.818267 295.735089 
L 488.741957 348.104068 
L 491.665647 441.607999 
L 494.589337 365.853946 
L 497.513027 398.516131 
L 500.436717 321.922403 
L 503.360408 83.531189 
L 506.284098 71.476451 
L 509.207788 316.938586 
L 512.131478 408.978765 
L 515.055168 427.311356 
L 517.978858 323.417917 
L 520.902548 402.031228 
L 523.826238 399.735706 
L 526.749928 376.111178 
L 529.673618 442.614301 
L 532.597309 369.38356 
L 535.520999 328.102743 
L 538.444689 304.146255 
L 541.368379 374.311671 
L 544.292069 311.541832 
L 547.215759 322.153288 
L 550.139449 384.598006 
L 553.063139 339.930503 
L 555.986829 212.977129 
L 558.910519 133.53921 
L 561.83421 142.3384 
L 567.68159 330.858618 
L 570.60528 299.971681 
L 573.52897 207.559789 
L 576.45266 194.186126 
L 579.37635 244.523297 
L 582.30004 271.106007 
L 585.22373 71.977042 
L 588.147421 71.949875 
L 591.071111 302.931245 
L 593.994801 323.925895 
L 596.918491 246.803586 
L 599.842181 350.270724 
L 602.765871 351.291089 
L 605.689561 288.896619 
L 608.613251 410.406995 
L 611.536941 369.047193 
L 614.460631 332.871363 
L 617.384322 312.485678 
L 620.308012 179.685096 
L 623.231702 71.460409 
L 626.155392 238.271056 
L 629.079082 336.354488 
L 632.002772 391.773122 
L 634.926462 321.11246 
L 637.850152 323.206603 
L 640.773842 310.89278 
L 643.697532 234.981877 
L 646.621223 250.990944 
L 649.544913 345.18718 
L 652.468603 309.874812 
L 655.392293 401.908729 
L 658.315983 351.644193 
L 661.239673 409.908811 
L 664.163363 332.081971 
L 667.087053 288.53386 
L 670.010743 71.456822 
L 672.934433 71.632336 
L 675.858124 231.163067 
L 678.781814 71.853634 
L 681.705504 71.492599 
L 684.629194 260.694689 
L 687.552884 277.099134 
L 690.476574 394.580226 
L 693.400264 342.781331 
L 696.323954 358.629106 
L 699.247644 346.697561 
L 702.171335 327.165561 
L 705.095025 309.37584 
L 708.018715 302.375746 
L 710.942405 302.60476 
L 713.866095 299.53041 
L 716.789785 302.690933 
L 719.713475 302.921905 
L 722.637165 298.761306 
L 725.560855 301.162066 
L 728.484545 295.331001 
L 728.484545 295.331001 
" style="fill:none;stroke:#dd8452;stroke-dasharray:6,2.25;stroke-dashoffset:0;stroke-width:1.5;"/>
   </g>
   <g id="line2d_3">
    <path clip-path="url(#p456634a7e7)" d="M 134.975455 295.849385 
L 137.899145 296.933903 
L 140.822835 296.51215 
L 143.746525 295.620582 
L 146.670215 301.246944 
L 149.593905 302.031089 
L 152.517595 301.334202 
L 155.441285 321.976377 
L 158.364975 320.045328 
L 161.288665 313.437691 
L 164.212356 316.252893 
L 167.136046 313.411106 
L 170.059736 312.001993 
L 172.983426 324.705021 
L 175.907116 334.091707 
L 178.830806 347.392612 
L 181.754496 374.657307 
L 184.678186 334.675749 
L 187.601876 312.352579 
L 190.525567 254.945354 
L 193.449257 81.581102 
L 196.372947 82.371844 
L 199.296637 236.859669 
L 202.220327 312.818407 
L 205.144017 326.550456 
L 208.067707 241.620681 
L 210.991397 190.769192 
L 213.915087 179.367294 
L 216.838777 254.55706 
L 219.762468 304.136198 
L 222.686158 286.839328 
L 225.609848 278.994259 
L 228.533538 308.983366 
L 231.457228 351.999379 
L 234.380918 249.866917 
L 237.304608 229.932543 
L 240.228298 71.455443 
L 243.151988 222.497509 
L 246.075678 307.058106 
L 248.999369 398.411751 
L 251.923059 364.878286 
L 254.846749 423.839809 
L 257.770439 312.752714 
L 260.694129 87.925621 
L 263.617819 71.453578 
L 266.541509 80.072917 
L 269.465199 191.650607 
L 272.388889 215.720053 
L 275.312579 229.606355 
L 278.23627 236.399088 
L 281.15996 214.699068 
L 284.08365 232.152106 
L 287.00734 87.999108 
L 289.93103 72.146038 
L 292.85472 110.769381 
L 295.77841 269.638145 
L 298.7021 374.517458 
L 301.62579 363.204165 
L 304.549481 329.597172 
L 307.473171 327.439943 
L 310.396861 382.030515 
L 313.320551 324.713363 
L 316.244241 350.430705 
L 319.167931 409.923048 
L 322.091621 358.210554 
L 325.015311 351.135725 
L 327.939001 469.404547 
L 330.862691 430.747608 
L 333.786382 327.80627 
L 336.710072 399.81567 
L 339.633762 435.719479 
L 342.557452 392.594905 
L 345.481142 341.785698 
L 348.404832 347.916593 
L 351.328522 257.046511 
L 354.252212 227.971429 
L 357.175902 308.569536 
L 360.099592 170.185407 
L 363.023283 153.797157 
L 365.946973 165.678288 
L 368.870663 231.712444 
L 371.794353 107.01266 
L 374.718043 278.22498 
L 377.641733 265.397739 
L 380.565423 285.166116 
L 383.489113 213.181132 
L 386.412803 215.513007 
L 389.336494 297.271302 
L 392.260184 389.564035 
L 395.183874 407.055779 
L 398.107564 378.100906 
L 401.031254 273.953198 
L 403.954944 290.540903 
L 406.878634 151.362056 
L 409.802324 71.486075 
L 412.726014 78.14159 
L 415.649704 292.570892 
L 418.573395 340.696668 
L 421.497085 358.620449 
L 424.420775 401.606677 
L 427.344465 206.996796 
L 430.268155 205.660729 
L 433.191845 166.495497 
L 436.115535 167.353546 
L 439.039225 350.505492 
L 441.962915 284.547531 
L 444.886605 276.519762 
L 447.810296 233.752193 
L 450.733986 98.200969 
L 453.657676 73.4522 
L 456.581366 355.71297 
L 459.505056 334.772364 
L 462.428746 234.66809 
L 465.352436 294.681353 
L 468.276126 282.898228 
L 471.199816 292.84538 
L 474.123506 272.723549 
L 477.047197 318.848927 
L 479.970887 255.041654 
L 482.894577 281.090011 
L 485.818267 277.801986 
L 488.741957 358.339385 
L 491.665647 387.571719 
L 494.589337 307.4432 
L 497.513027 323.510981 
L 500.436717 221.59459 
L 503.360408 71.784999 
L 506.284098 71.927505 
L 509.207788 270.677048 
L 512.131478 259.405242 
L 515.055168 251.073882 
L 517.978858 241.640654 
L 520.902548 235.667396 
L 523.826238 190.445339 
L 526.749928 319.583663 
L 529.673618 325.224018 
L 532.597309 237.919053 
L 535.520999 320.818402 
L 538.444689 292.759802 
L 541.368379 255.506712 
L 544.292069 297.401235 
L 550.139449 313.514612 
L 553.063139 186.731424 
L 555.986829 114.008736 
L 558.910519 272.690737 
L 561.83421 228.004922 
L 564.7579 172.504934 
L 567.68159 231.788105 
L 570.60528 330.464972 
L 573.52897 310.721116 
L 576.45266 348.696575 
L 579.37635 285.175123 
L 582.30004 245.081139 
L 585.22373 71.792048 
L 588.147421 124.243205 
L 591.071111 218.130423 
L 593.994801 199.811439 
L 596.918491 210.202128 
L 599.842181 231.48887 
L 602.765871 244.107998 
L 605.689561 291.82101 
L 608.613251 335.532967 
L 611.536941 360.328955 
L 614.460631 350.833604 
L 617.384322 316.577996 
L 620.308012 185.686907 
L 623.231702 71.456671 
L 626.155392 207.313819 
L 629.079082 349.46024 
L 632.002772 410.872368 
L 634.926462 319.399161 
L 637.850152 302.429738 
L 640.773842 324.51793 
L 643.697532 312.773545 
L 646.621223 266.895929 
L 649.544913 199.870634 
L 652.468603 109.334286 
L 655.392293 345.809928 
L 658.315983 234.398464 
L 661.239673 149.616707 
L 664.163363 133.817606 
L 667.087053 269.22484 
L 670.010743 178.040742 
L 672.934433 91.682109 
L 675.858124 243.061871 
L 678.781814 74.62167 
L 681.705504 72.111285 
L 684.629194 183.892445 
L 687.552884 313.452715 
L 690.476574 348.507946 
L 693.400264 304.596079 
L 696.323954 335.151721 
L 699.247644 329.482351 
L 702.171335 324.349677 
L 705.095025 306.747537 
L 708.018715 303.889223 
L 710.942405 306.350672 
L 713.866095 301.781333 
L 716.789785 305.482925 
L 719.713475 303.42357 
L 722.637165 302.774815 
L 725.560855 306.127168 
L 728.484545 305.838391 
L 728.484545 305.838391 
" style="fill:none;stroke:#55a868;stroke-dasharray:1.5,1.5;stroke-dashoffset:0;stroke-width:1.5;"/>
   </g>
   <g id="line2d_4">
    <path clip-path="url(#p456634a7e7)" d="M 134.975455 307.003118 
L 137.899145 307.285405 
L 140.822835 307.097511 
L 143.746525 307.390345 
L 149.593905 309.765744 
L 152.517595 308.632535 
L 155.441285 311.087216 
L 158.364975 309.393488 
L 161.288665 308.962133 
L 164.212356 310.618187 
L 167.136046 311.660099 
L 170.059736 318.292502 
L 172.983426 326.711766 
L 175.907116 339.179554 
L 178.830806 362.245715 
L 181.754496 380.794674 
L 184.678186 377.455001 
L 187.601876 272.120162 
L 190.525567 263.081176 
L 193.449257 71.458166 
L 196.372947 71.816473 
L 199.296637 289.860508 
L 202.220327 313.527187 
L 205.144017 362.104991 
L 208.067707 359.020654 
L 210.991397 371.100549 
L 213.915087 71.490297 
L 216.838777 71.499803 
L 219.762468 293.632708 
L 222.686158 365.681145 
L 225.609848 354.049588 
L 228.533538 360.297666 
L 231.457228 369.526488 
L 234.380918 293.956202 
L 237.304608 288.806424 
L 240.228298 71.457264 
L 243.151988 213.333548 
L 246.075678 345.387598 
L 248.999369 371.977916 
L 251.923059 422.269665 
L 254.846749 422.056288 
L 257.770439 282.877152 
L 260.694129 90.887366 
L 263.617819 71.453447 
L 266.541509 71.884698 
L 269.465199 196.329626 
L 272.388889 326.118332 
L 275.312579 373.544421 
L 278.23627 375.953069 
L 281.15996 323.709492 
L 284.08365 263.036612 
L 287.00734 275.576966 
L 289.93103 357.587299 
L 292.85472 314.197962 
L 295.77841 324.277129 
L 298.7021 384.367593 
L 301.62579 345.615054 
L 304.549481 341.985923 
L 307.473171 339.21749 
L 310.396861 375.6287 
L 313.320551 334.991321 
L 316.244241 349.38484 
L 319.167931 399.750712 
L 322.091621 375.212474 
L 325.015311 345.268981 
L 327.939001 445.432143 
L 330.862691 394.023415 
L 333.786382 269.010115 
L 336.710072 384.437798 
L 339.633762 419.865355 
L 342.557452 350.43506 
L 345.481142 312.88744 
L 348.404832 268.590461 
L 351.328522 316.378296 
L 354.252212 343.057375 
L 357.175902 374.361307 
L 360.099592 243.974025 
L 363.023283 340.094419 
L 365.946973 278.419889 
L 368.870663 243.990623 
L 371.794353 258.438274 
L 374.718043 260.471237 
L 377.641733 226.337412 
L 380.565423 311.951394 
L 383.489113 233.927617 
L 386.412803 285.296678 
L 389.336494 349.225839 
L 392.260184 442.052209 
L 395.183874 425.650439 
L 398.107564 290.606088 
L 401.031254 241.510109 
L 403.954944 295.347354 
L 406.878634 187.129199 
L 409.802324 73.724847 
L 412.726014 86.37364 
L 415.649704 236.79263 
L 418.573395 228.789417 
L 421.497085 327.450717 
L 424.420775 360.659708 
L 427.344465 192.505586 
L 433.191845 283.145308 
L 436.115535 320.251395 
L 439.039225 389.06767 
L 441.962915 365.788744 
L 444.886605 292.34034 
L 447.810296 292.925659 
L 450.733986 195.307084 
L 453.657676 71.454278 
L 456.581366 314.244398 
L 459.505056 333.401833 
L 462.428746 264.066246 
L 465.352436 308.707094 
L 468.276126 276.317123 
L 471.199816 325.564285 
L 474.123506 349.5111 
L 477.047197 368.135861 
L 479.970887 252.936632 
L 482.894577 311.755962 
L 485.818267 297.61316 
L 488.741957 348.129254 
L 491.665647 443.238553 
L 494.589337 372.254117 
L 497.513027 403.822305 
L 500.436717 323.983682 
L 503.360408 82.693996 
L 506.284098 71.479001 
L 509.207788 321.740088 
L 512.131478 409.474046 
L 515.055168 425.878648 
L 517.978858 316.150559 
L 520.902548 391.499754 
L 523.826238 398.356972 
L 526.749928 377.290036 
L 529.673618 434.584696 
L 532.597309 365.631334 
L 535.520999 343.989275 
L 538.444689 318.697971 
L 541.368379 388.505683 
L 544.292069 307.338348 
L 547.215759 310.780407 
L 550.139449 386.787014 
L 553.063139 301.19848 
L 555.986829 167.189132 
L 558.910519 71.502029 
L 561.83421 163.525239 
L 564.7579 276.056715 
L 567.68159 115.329302 
L 570.60528 349.122858 
L 573.52897 299.762956 
L 576.45266 254.589101 
L 579.37635 286.365245 
L 582.30004 323.064725 
L 585.22373 71.461971 
L 588.147421 79.526929 
L 591.071111 328.3897 
L 593.994801 341.610116 
L 596.918491 279.364486 
L 599.842181 348.845468 
L 602.765871 367.645548 
L 605.689561 298.2329 
L 608.613251 411.328296 
L 611.536941 365.351215 
L 614.460631 339.77395 
L 617.384322 320.866779 
L 620.308012 182.551193 
L 623.231702 71.457312 
L 626.155392 235.539702 
L 629.079082 340.474178 
L 632.002772 396.527278 
L 634.926462 325.257738 
L 637.850152 324.421578 
L 640.773842 308.807697 
L 643.697532 227.987275 
L 646.621223 254.255323 
L 649.544913 341.878097 
L 652.468603 308.27901 
L 655.392293 403.616028 
L 658.315983 351.13562 
L 661.239673 408.312502 
L 664.163363 332.433379 
L 667.087053 289.074982 
L 670.010743 71.457205 
L 672.934433 71.640464 
L 675.858124 230.490176 
L 678.781814 71.806793 
L 681.705504 71.501347 
L 684.629194 262.305129 
L 687.552884 275.350733 
L 690.476574 393.855721 
L 693.400264 342.321643 
L 696.323954 358.504805 
L 699.247644 347.991748 
L 702.171335 327.405873 
L 705.095025 310.426812 
L 708.018715 304.4039 
L 710.942405 305.389214 
L 713.866095 302.801662 
L 716.789785 305.044469 
L 719.713475 305.150773 
L 722.637165 302.194201 
L 725.560855 304.142792 
L 728.484545 299.885124 
L 728.484545 299.885124 
" style="fill:none;stroke:#c44e52;stroke-dasharray:4.5,1.875,2.25,1.875;stroke-dashoffset:0;stroke-width:1.5;"/>
   </g>
   <g id="line2d_5">
    <path clip-path="url(#p456634a7e7)" d="M 134.975455 307.762269 
L 137.899145 308.205937 
L 140.822835 307.809912 
L 143.746525 308.354549 
L 146.670215 309.238439 
L 149.593905 311.135121 
L 152.517595 310.095185 
L 155.441285 312.77755 
L 158.364975 311.041164 
L 161.288665 310.651628 
L 164.212356 311.875575 
L 167.136046 312.472298 
L 170.059736 319.488325 
L 172.983426 326.999231 
L 175.907116 338.059847 
L 181.754496 383.052523 
L 184.678186 372.40572 
L 187.601876 306.178326 
L 190.525567 275.331546 
L 193.449257 71.45705 
L 196.372947 71.763613 
L 199.296637 307.028723 
L 202.220327 324.798959 
L 205.144017 352.523851 
L 208.067707 350.915999 
L 210.991397 386.104521 
L 213.915087 71.518743 
L 216.838777 71.479263 
L 219.762468 281.913368 
L 222.686158 370.172917 
L 225.609848 370.046709 
L 228.533538 377.720499 
L 231.457228 379.010838 
L 234.380918 297.480866 
L 237.304608 298.32857 
L 240.228298 71.456527 
L 243.151988 213.255342 
L 246.075678 348.339605 
L 248.999369 367.828842 
L 251.923059 424.748517 
L 254.846749 430.196325 
L 257.770439 302.347885 
L 260.694129 91.461384 
L 263.617819 71.453602 
L 266.541509 71.902392 
L 272.388889 331.032521 
L 275.312579 375.692643 
L 278.23627 388.834879 
L 281.15996 355.215066 
L 284.08365 280.072305 
L 287.00734 277.770889 
L 289.93103 358.924407 
L 292.85472 321.446781 
L 295.77841 324.876247 
L 298.7021 378.485335 
L 301.62579 336.518596 
L 304.549481 336.282097 
L 307.473171 326.496342 
L 310.396861 371.710494 
L 313.320551 325.817434 
L 316.244241 329.305859 
L 319.167931 400.776813 
L 322.091621 381.516625 
L 325.015311 354.441695 
L 327.939001 272.615338 
L 330.862691 378.368187 
L 333.786382 254.208765 
L 339.633762 385.294491 
L 342.557452 334.942069 
L 345.481142 342.997979 
L 348.404832 348.222545 
L 351.328522 376.615693 
L 354.252212 388.000153 
L 357.175902 463.447607 
L 360.099592 416.198515 
L 363.023283 413.2021 
L 365.946973 325.593895 
L 368.870663 340.929529 
L 371.794353 284.223494 
L 374.718043 286.316955 
L 377.641733 314.555684 
L 380.565423 370.649798 
L 383.489113 334.121755 
L 386.412803 307.655266 
L 389.336494 374.885551 
L 392.260184 449.712986 
L 395.183874 428.947821 
L 398.107564 295.383033 
L 401.031254 279.386576 
L 403.954944 312.878765 
L 406.878634 201.865041 
L 409.802324 71.615021 
L 412.726014 83.613234 
L 415.649704 283.479786 
L 418.573395 243.343145 
L 421.497085 346.313901 
L 424.420775 386.347911 
L 427.344465 230.765345 
L 430.268155 250.141824 
L 433.191845 286.084374 
L 436.115535 315.170859 
L 439.039225 387.36992 
L 441.962915 373.38159 
L 444.886605 299.602224 
L 447.810296 303.521269 
L 450.733986 206.807939 
L 453.657676 71.454945 
L 456.581366 312.122359 
L 459.505056 306.965899 
L 462.428746 253.528073 
L 465.352436 295.415075 
L 468.276126 273.157107 
L 471.199816 329.007061 
L 474.123506 354.559385 
L 477.047197 366.671882 
L 479.970887 256.46873 
L 482.894577 315.792732 
L 485.818267 304.879417 
L 488.741957 317.128248 
L 491.665647 404.731993 
L 494.589337 281.766033 
L 497.513027 228.76138 
L 500.436717 71.468567 
L 503.360408 79.195916 
L 506.284098 204.416493 
L 509.207788 230.168045 
L 512.131478 315.436496 
L 515.055168 321.153072 
L 517.978858 380.67966 
L 520.902548 362.964832 
L 523.826238 364.016136 
L 526.749928 71.514739 
L 529.673618 96.198198 
L 532.597309 306.216507 
L 535.520999 300.201989 
L 538.444689 252.139073 
L 541.368379 266.771908 
L 544.292069 196.499654 
L 547.215759 199.159064 
L 553.063139 113.202169 
L 555.986829 92.161603 
L 558.910519 126.359529 
L 561.83421 139.937964 
L 564.7579 117.895875 
L 567.68159 94.168392 
L 570.60528 201.599604 
L 573.52897 290.130711 
L 576.45266 325.895824 
L 579.37635 282.430581 
L 582.30004 290.407892 
L 585.22373 71.521333 
L 588.147421 120.881722 
L 591.071111 311.008581 
L 593.994801 330.306478 
L 596.918491 283.174674 
L 599.842181 339.437513 
L 602.765871 373.412232 
L 605.689561 296.805282 
L 608.613251 391.270356 
L 611.536941 367.906848 
L 614.460631 341.406708 
L 617.384322 323.139214 
L 620.308012 193.622014 
L 623.231702 71.455141 
L 626.155392 217.59774 
L 629.079082 332.059584 
L 632.002772 396.325898 
L 634.926462 313.937904 
L 637.850152 319.55846 
L 640.773842 293.616792 
L 643.697532 215.957025 
L 646.621223 242.700441 
L 649.544913 324.861153 
L 652.468603 296.788841 
L 655.392293 384.631132 
L 658.315983 345.692902 
L 661.239673 390.359898 
L 664.163363 329.889377 
L 667.087053 292.106412 
L 670.010743 71.457248 
L 672.934433 71.541835 
L 675.858124 228.327332 
L 678.781814 72.821822 
L 681.705504 71.476536 
L 684.629194 256.413724 
L 687.552884 269.875711 
L 690.476574 374.023716 
L 693.400264 326.903806 
L 696.323954 348.769474 
L 699.247644 344.445361 
L 702.171335 319.669871 
L 705.095025 307.365282 
L 708.018715 302.301012 
L 710.942405 303.285627 
L 713.866095 299.718987 
L 716.789785 302.247685 
L 719.713475 301.836024 
L 722.637165 297.536135 
L 725.560855 300.903739 
L 728.484545 295.801585 
L 728.484545 295.801585 
" style="fill:none;stroke:#8172b3;stroke-dasharray:7.5,1.5,1.5,1.5;stroke-dashoffset:0;stroke-width:1.5;"/>
   </g>
   <g id="line2d_6"/>
   <g id="line2d_7"/>
   <g id="line2d_8"/>
   <g id="line2d_9"/>
   <g id="line2d_10"/>
   <g id="patch_3">
    <path d="M 105.3 529.9416 
L 105.3 71.4528 
" style="fill:none;stroke:#262626;stroke-linecap:square;stroke-linejoin:miter;stroke-width:1.25;"/>
   </g>
   <g id="patch_4">
    <path d="M 758.16 529.9416 
L 758.16 71.4528 
" style="fill:none;stroke:#262626;stroke-linecap:square;stroke-linejoin:miter;stroke-width:1.25;"/>
   </g>
   <g id="patch_5">
    <path d="M 105.3 529.9416 
L 758.16 529.9416 
" style="fill:none;stroke:#262626;stroke-linecap:square;stroke-linejoin:miter;stroke-width:1.25;"/>
   </g>
   <g id="patch_6">
    <path d="M 105.3 71.4528 
L 758.16 71.4528 
" style="fill:none;stroke:#262626;stroke-linecap:square;stroke-linejoin:miter;stroke-width:1.25;"/>
   </g>
   <g id="text_16">
    <!-- Activations for &gt;E&lt; -->
    <g style="fill:#262626;" transform="translate(381.372187 65.4528)scale(0.12 -0.12)">
     <defs>
      <path d="M -9 0 
L 1750 4581 
L 2403 4581 
L 4278 0 
L 3588 0 
L 3053 1388 
L 1138 1388 
L 634 0 
L -9 0 
z
M 1313 1881 
L 2866 1881 
L 2388 3150 
Q 2169 3728 2063 4100 
Q 1975 3659 1816 3225 
L 1313 1881 
z
" id="ArialMT-41" transform="scale(0.015625)"/>
      <path d="M 2588 1216 
L 3141 1144 
Q 3050 572 2676 248 
Q 2303 -75 1759 -75 
Q 1078 -75 664 370 
Q 250 816 250 1647 
Q 250 2184 428 2587 
Q 606 2991 970 3192 
Q 1334 3394 1763 3394 
Q 2303 3394 2647 3120 
Q 2991 2847 3088 2344 
L 2541 2259 
Q 2463 2594 2264 2762 
Q 2066 2931 1784 2931 
Q 1359 2931 1093 2626 
Q 828 2322 828 1663 
Q 828 994 1084 691 
Q 1341 388 1753 388 
Q 2084 388 2306 591 
Q 2528 794 2588 1216 
z
" id="ArialMT-63" transform="scale(0.015625)"/>
      <path d="M 1650 503 
L 1731 6 
Q 1494 -44 1306 -44 
Q 1000 -44 831 53 
Q 663 150 594 308 
Q 525 466 525 972 
L 525 2881 
L 113 2881 
L 113 3319 
L 525 3319 
L 525 4141 
L 1084 4478 
L 1084 3319 
L 1650 3319 
L 1650 2881 
L 1084 2881 
L 1084 941 
Q 1084 700 1114 631 
Q 1144 563 1211 522 
Q 1278 481 1403 481 
Q 1497 481 1650 503 
z
" id="ArialMT-74" transform="scale(0.015625)"/>
      <path d="M 425 3934 
L 425 4581 
L 988 4581 
L 988 3934 
L 425 3934 
z
M 425 0 
L 425 3319 
L 988 3319 
L 988 0 
L 425 0 
z
" id="ArialMT-69" transform="scale(0.015625)"/>
      <path d="M 1344 0 
L 81 3319 
L 675 3319 
L 1388 1331 
Q 1503 1009 1600 663 
Q 1675 925 1809 1294 
L 2547 3319 
L 3125 3319 
L 1869 0 
L 1344 0 
z
" id="ArialMT-76" transform="scale(0.015625)"/>
      <path d="M 2588 409 
Q 2275 144 1986 34 
Q 1697 -75 1366 -75 
Q 819 -75 525 192 
Q 231 459 231 875 
Q 231 1119 342 1320 
Q 453 1522 633 1644 
Q 813 1766 1038 1828 
Q 1203 1872 1538 1913 
Q 2219 1994 2541 2106 
Q 2544 2222 2544 2253 
Q 2544 2597 2384 2738 
Q 2169 2928 1744 2928 
Q 1347 2928 1158 2789 
Q 969 2650 878 2297 
L 328 2372 
Q 403 2725 575 2942 
Q 747 3159 1072 3276 
Q 1397 3394 1825 3394 
Q 2250 3394 2515 3294 
Q 2781 3194 2906 3042 
Q 3031 2891 3081 2659 
Q 3109 2516 3109 2141 
L 3109 1391 
Q 3109 606 3145 398 
Q 3181 191 3288 0 
L 2700 0 
Q 2613 175 2588 409 
z
M 2541 1666 
Q 2234 1541 1622 1453 
Q 1275 1403 1131 1340 
Q 988 1278 909 1158 
Q 831 1038 831 891 
Q 831 666 1001 516 
Q 1172 366 1500 366 
Q 1825 366 2078 508 
Q 2331 650 2450 897 
Q 2541 1088 2541 1459 
L 2541 1666 
z
" id="ArialMT-61" transform="scale(0.015625)"/>
      <path d="M 213 1659 
Q 213 2581 725 3025 
Q 1153 3394 1769 3394 
Q 2453 3394 2887 2945 
Q 3322 2497 3322 1706 
Q 3322 1066 3130 698 
Q 2938 331 2570 128 
Q 2203 -75 1769 -75 
Q 1072 -75 642 372 
Q 213 819 213 1659 
z
M 791 1659 
Q 791 1022 1069 705 
Q 1347 388 1769 388 
Q 2188 388 2466 706 
Q 2744 1025 2744 1678 
Q 2744 2294 2464 2611 
Q 2184 2928 1769 2928 
Q 1347 2928 1069 2612 
Q 791 2297 791 1659 
z
" id="ArialMT-6f" transform="scale(0.015625)"/>
      <path d="M 422 0 
L 422 3319 
L 928 3319 
L 928 2847 
Q 1294 3394 1984 3394 
Q 2284 3394 2536 3286 
Q 2788 3178 2913 3003 
Q 3038 2828 3088 2588 
Q 3119 2431 3119 2041 
L 3119 0 
L 2556 0 
L 2556 2019 
Q 2556 2363 2490 2533 
Q 2425 2703 2258 2804 
Q 2091 2906 1866 2906 
Q 1506 2906 1245 2678 
Q 984 2450 984 1813 
L 984 0 
L 422 0 
z
" id="ArialMT-6e" transform="scale(0.015625)"/>
      <path d="M 197 991 
L 753 1078 
Q 800 744 1014 566 
Q 1228 388 1613 388 
Q 2000 388 2187 545 
Q 2375 703 2375 916 
Q 2375 1106 2209 1216 
Q 2094 1291 1634 1406 
Q 1016 1563 777 1677 
Q 538 1791 414 1992 
Q 291 2194 291 2438 
Q 291 2659 392 2848 
Q 494 3038 669 3163 
Q 800 3259 1026 3326 
Q 1253 3394 1513 3394 
Q 1903 3394 2198 3281 
Q 2494 3169 2634 2976 
Q 2775 2784 2828 2463 
L 2278 2388 
Q 2241 2644 2061 2787 
Q 1881 2931 1553 2931 
Q 1166 2931 1000 2803 
Q 834 2675 834 2503 
Q 834 2394 903 2306 
Q 972 2216 1119 2156 
Q 1203 2125 1616 2013 
Q 2213 1853 2448 1751 
Q 2684 1650 2818 1456 
Q 2953 1263 2953 975 
Q 2953 694 2789 445 
Q 2625 197 2315 61 
Q 2006 -75 1616 -75 
Q 969 -75 630 194 
Q 291 463 197 991 
z
" id="ArialMT-73" transform="scale(0.015625)"/>
      <path id="ArialMT-20" transform="scale(0.015625)"/>
      <path d="M 556 0 
L 556 2881 
L 59 2881 
L 59 3319 
L 556 3319 
L 556 3672 
Q 556 4006 616 4169 
Q 697 4388 901 4523 
Q 1106 4659 1475 4659 
Q 1713 4659 2000 4603 
L 1916 4113 
Q 1741 4144 1584 4144 
Q 1328 4144 1222 4034 
Q 1116 3925 1116 3625 
L 1116 3319 
L 1763 3319 
L 1763 2881 
L 1116 2881 
L 1116 0 
L 556 0 
z
" id="ArialMT-66" transform="scale(0.015625)"/>
      <path d="M 416 0 
L 416 3319 
L 922 3319 
L 922 2816 
Q 1116 3169 1280 3281 
Q 1444 3394 1641 3394 
Q 1925 3394 2219 3213 
L 2025 2691 
Q 1819 2813 1613 2813 
Q 1428 2813 1281 2702 
Q 1134 2591 1072 2394 
Q 978 2094 978 1738 
L 978 0 
L 416 0 
z
" id="ArialMT-72" transform="scale(0.015625)"/>
      <path d="M 3384 2003 
L 350 706 
L 350 1266 
L 2753 2263 
L 350 3250 
L 350 3809 
L 3384 2528 
L 3384 2003 
z
" id="ArialMT-3e" transform="scale(0.015625)"/>
      <path d="M 506 0 
L 506 4581 
L 3819 4581 
L 3819 4041 
L 1113 4041 
L 1113 2638 
L 3647 2638 
L 3647 2100 
L 1113 2100 
L 1113 541 
L 3925 541 
L 3925 0 
L 506 0 
z
" id="ArialMT-45" transform="scale(0.015625)"/>
      <path d="M 350 2003 
L 350 2528 
L 3384 3809 
L 3384 3250 
L 978 2263 
L 3384 1266 
L 3384 706 
L 350 2003 
z
" id="ArialMT-3c" transform="scale(0.015625)"/>
     </defs>
     <use xlink:href="#ArialMT-41"/>
     <use x="66.699219" xlink:href="#ArialMT-63"/>
     <use x="116.699219" xlink:href="#ArialMT-74"/>
     <use x="144.482422" xlink:href="#ArialMT-69"/>
     <use x="166.699219" xlink:href="#ArialMT-76"/>
     <use x="216.699219" xlink:href="#ArialMT-61"/>
     <use x="272.314453" xlink:href="#ArialMT-74"/>
     <use x="300.097656" xlink:href="#ArialMT-69"/>
     <use x="322.314453" xlink:href="#ArialMT-6f"/>
     <use x="377.929688" xlink:href="#ArialMT-6e"/>
     <use x="433.544922" xlink:href="#ArialMT-73"/>
     <use x="483.544922" xlink:href="#ArialMT-20"/>
     <use x="511.328125" xlink:href="#ArialMT-66"/>
     <use x="539.111328" xlink:href="#ArialMT-6f"/>
     <use x="594.726562" xlink:href="#ArialMT-72"/>
     <use x="628.027344" xlink:href="#ArialMT-20"/>
     <use x="655.810547" xlink:href="#ArialMT-3e"/>
     <use x="714.208984" xlink:href="#ArialMT-45"/>
     <use x="780.908203" xlink:href="#ArialMT-3c"/>
    </g>
   </g>
   <g id="legend_1">
    <g id="patch_7">
     <path d="M 113 524.4416 
L 223.415938 524.4416 
Q 225.615938 524.4416 225.615938 522.2416 
L 225.615938 445.080037 
Q 225.615938 442.880037 223.415938 442.880037 
L 113 442.880037 
Q 110.8 442.880037 110.8 445.080037 
L 110.8 522.2416 
Q 110.8 524.4416 113 524.4416 
z
" style="fill:#ffffff;opacity:0.8;stroke:#cccccc;stroke-linejoin:miter;"/>
    </g>
    <g id="line2d_11">
     <path d="M 115.2 451.303631 
L 137.2 451.303631 
" style="fill:none;stroke:#4c72b0;stroke-linecap:round;stroke-width:1.5;"/>
    </g>
    <g id="line2d_12"/>
    <g id="text_17">
     <!-- regular -->
     <g style="fill:#262626;" transform="translate(146 455.153631)scale(0.11 -0.11)">
      <defs>
       <path d="M 2694 1069 
L 3275 997 
Q 3138 488 2766 206 
Q 2394 -75 1816 -75 
Q 1088 -75 661 373 
Q 234 822 234 1631 
Q 234 2469 665 2931 
Q 1097 3394 1784 3394 
Q 2450 3394 2872 2941 
Q 3294 2488 3294 1666 
Q 3294 1616 3291 1516 
L 816 1516 
Q 847 969 1125 678 
Q 1403 388 1819 388 
Q 2128 388 2347 550 
Q 2566 713 2694 1069 
z
M 847 1978 
L 2700 1978 
Q 2663 2397 2488 2606 
Q 2219 2931 1791 2931 
Q 1403 2931 1139 2672 
Q 875 2413 847 1978 
z
" id="ArialMT-65" transform="scale(0.015625)"/>
       <path d="M 319 -275 
L 866 -356 
Q 900 -609 1056 -725 
Q 1266 -881 1628 -881 
Q 2019 -881 2231 -725 
Q 2444 -569 2519 -288 
Q 2563 -116 2559 434 
Q 2191 0 1641 0 
Q 956 0 581 494 
Q 206 988 206 1678 
Q 206 2153 378 2554 
Q 550 2956 876 3175 
Q 1203 3394 1644 3394 
Q 2231 3394 2613 2919 
L 2613 3319 
L 3131 3319 
L 3131 450 
Q 3131 -325 2973 -648 
Q 2816 -972 2473 -1159 
Q 2131 -1347 1631 -1347 
Q 1038 -1347 672 -1080 
Q 306 -813 319 -275 
z
M 784 1719 
Q 784 1066 1043 766 
Q 1303 466 1694 466 
Q 2081 466 2343 764 
Q 2606 1063 2606 1700 
Q 2606 2309 2336 2618 
Q 2066 2928 1684 2928 
Q 1309 2928 1046 2623 
Q 784 2319 784 1719 
z
" id="ArialMT-67" transform="scale(0.015625)"/>
       <path d="M 2597 0 
L 2597 488 
Q 2209 -75 1544 -75 
Q 1250 -75 995 37 
Q 741 150 617 320 
Q 494 491 444 738 
Q 409 903 409 1263 
L 409 3319 
L 972 3319 
L 972 1478 
Q 972 1038 1006 884 
Q 1059 663 1231 536 
Q 1403 409 1656 409 
Q 1909 409 2131 539 
Q 2353 669 2445 892 
Q 2538 1116 2538 1541 
L 2538 3319 
L 3100 3319 
L 3100 0 
L 2597 0 
z
" id="ArialMT-75" transform="scale(0.015625)"/>
       <path d="M 409 0 
L 409 4581 
L 972 4581 
L 972 0 
L 409 0 
z
" id="ArialMT-6c" transform="scale(0.015625)"/>
      </defs>
      <use xlink:href="#ArialMT-72"/>
      <use x="33.300781" xlink:href="#ArialMT-65"/>
      <use x="88.916016" xlink:href="#ArialMT-67"/>
      <use x="144.53125" xlink:href="#ArialMT-75"/>
      <use x="200.146484" xlink:href="#ArialMT-6c"/>
      <use x="222.363281" xlink:href="#ArialMT-61"/>
      <use x="277.978516" xlink:href="#ArialMT-72"/>
     </g>
    </g>
    <g id="line2d_13">
     <path d="M 115.2 467.025037 
L 137.2 467.025037 
" style="fill:none;stroke:#dd8452;stroke-dasharray:6,2.25;stroke-dashoffset:0;stroke-width:1.5;"/>
    </g>
    <g id="line2d_14"/>
    <g id="text_18">
     <!-- splitted_3s -->
     <g style="fill:#262626;" transform="translate(146 470.875037)scale(0.11 -0.11)">
      <defs>
       <path d="M 422 -1272 
L 422 3319 
L 934 3319 
L 934 2888 
Q 1116 3141 1344 3267 
Q 1572 3394 1897 3394 
Q 2322 3394 2647 3175 
Q 2972 2956 3137 2557 
Q 3303 2159 3303 1684 
Q 3303 1175 3120 767 
Q 2938 359 2589 142 
Q 2241 -75 1856 -75 
Q 1575 -75 1351 44 
Q 1128 163 984 344 
L 984 -1272 
L 422 -1272 
z
M 931 1641 
Q 931 1000 1190 694 
Q 1450 388 1819 388 
Q 2194 388 2461 705 
Q 2728 1022 2728 1688 
Q 2728 2322 2467 2637 
Q 2206 2953 1844 2953 
Q 1484 2953 1207 2617 
Q 931 2281 931 1641 
z
" id="ArialMT-70" transform="scale(0.015625)"/>
       <path d="M 2575 0 
L 2575 419 
Q 2259 -75 1647 -75 
Q 1250 -75 917 144 
Q 584 363 401 755 
Q 219 1147 219 1656 
Q 219 2153 384 2558 
Q 550 2963 881 3178 
Q 1213 3394 1622 3394 
Q 1922 3394 2156 3267 
Q 2391 3141 2538 2938 
L 2538 4581 
L 3097 4581 
L 3097 0 
L 2575 0 
z
M 797 1656 
Q 797 1019 1065 703 
Q 1334 388 1700 388 
Q 2069 388 2326 689 
Q 2584 991 2584 1609 
Q 2584 2291 2321 2609 
Q 2059 2928 1675 2928 
Q 1300 2928 1048 2622 
Q 797 2316 797 1656 
z
" id="ArialMT-64" transform="scale(0.015625)"/>
       <path d="M -97 -1272 
L -97 -866 
L 3631 -866 
L 3631 -1272 
L -97 -1272 
z
" id="ArialMT-5f" transform="scale(0.015625)"/>
       <path d="M 269 1209 
L 831 1284 
Q 928 806 1161 595 
Q 1394 384 1728 384 
Q 2125 384 2398 659 
Q 2672 934 2672 1341 
Q 2672 1728 2419 1979 
Q 2166 2231 1775 2231 
Q 1616 2231 1378 2169 
L 1441 2663 
Q 1497 2656 1531 2656 
Q 1891 2656 2178 2843 
Q 2466 3031 2466 3422 
Q 2466 3731 2256 3934 
Q 2047 4138 1716 4138 
Q 1388 4138 1169 3931 
Q 950 3725 888 3313 
L 325 3413 
Q 428 3978 793 4289 
Q 1159 4600 1703 4600 
Q 2078 4600 2393 4439 
Q 2709 4278 2876 4000 
Q 3044 3722 3044 3409 
Q 3044 3113 2884 2869 
Q 2725 2625 2413 2481 
Q 2819 2388 3044 2092 
Q 3269 1797 3269 1353 
Q 3269 753 2831 336 
Q 2394 -81 1725 -81 
Q 1122 -81 723 278 
Q 325 638 269 1209 
z
" id="ArialMT-33" transform="scale(0.015625)"/>
      </defs>
      <use xlink:href="#ArialMT-73"/>
      <use x="50" xlink:href="#ArialMT-70"/>
      <use x="105.615234" xlink:href="#ArialMT-6c"/>
      <use x="127.832031" xlink:href="#ArialMT-69"/>
      <use x="150.048828" xlink:href="#ArialMT-74"/>
      <use x="177.832031" xlink:href="#ArialMT-74"/>
      <use x="205.615234" xlink:href="#ArialMT-65"/>
      <use x="261.230469" xlink:href="#ArialMT-64"/>
      <use x="316.845703" xlink:href="#ArialMT-5f"/>
      <use x="372.460938" xlink:href="#ArialMT-33"/>
      <use x="428.076172" xlink:href="#ArialMT-73"/>
     </g>
    </g>
    <g id="line2d_15">
     <path d="M 115.2 482.617537 
L 137.2 482.617537 
" style="fill:none;stroke:#55a868;stroke-dasharray:1.5,1.5;stroke-dashoffset:0;stroke-width:1.5;"/>
    </g>
    <g id="line2d_16"/>
    <g id="text_19">
     <!-- splitted_1s -->
     <g style="fill:#262626;" transform="translate(146 486.467537)scale(0.11 -0.11)">
      <use xlink:href="#ArialMT-73"/>
      <use x="50" xlink:href="#ArialMT-70"/>
      <use x="105.615234" xlink:href="#ArialMT-6c"/>
      <use x="127.832031" xlink:href="#ArialMT-69"/>
      <use x="150.048828" xlink:href="#ArialMT-74"/>
      <use x="177.832031" xlink:href="#ArialMT-74"/>
      <use x="205.615234" xlink:href="#ArialMT-65"/>
      <use x="261.230469" xlink:href="#ArialMT-64"/>
      <use x="316.845703" xlink:href="#ArialMT-5f"/>
      <use x="372.460938" xlink:href="#ArialMT-31"/>
      <use x="428.076172" xlink:href="#ArialMT-73"/>
     </g>
    </g>
    <g id="line2d_17">
     <path d="M 115.2 498.311444 
L 137.2 498.311444 
" style="fill:none;stroke:#c44e52;stroke-dasharray:4.5,1.875,2.25,1.875;stroke-dashoffset:0;stroke-width:1.5;"/>
    </g>
    <g id="line2d_18"/>
    <g id="text_20">
     <!-- overlap_1f_3s -->
     <g style="fill:#262626;" transform="translate(146 502.161444)scale(0.11 -0.11)">
      <use xlink:href="#ArialMT-6f"/>
      <use x="55.615234" xlink:href="#ArialMT-76"/>
      <use x="105.615234" xlink:href="#ArialMT-65"/>
      <use x="161.230469" xlink:href="#ArialMT-72"/>
      <use x="194.53125" xlink:href="#ArialMT-6c"/>
      <use x="216.748047" xlink:href="#ArialMT-61"/>
      <use x="272.363281" xlink:href="#ArialMT-70"/>
      <use x="327.978516" xlink:href="#ArialMT-5f"/>
      <use x="383.59375" xlink:href="#ArialMT-31"/>
      <use x="439.208984" xlink:href="#ArialMT-66"/>
      <use x="466.992188" xlink:href="#ArialMT-5f"/>
      <use x="522.607422" xlink:href="#ArialMT-33"/>
      <use x="578.222656" xlink:href="#ArialMT-73"/>
     </g>
    </g>
    <g id="line2d_19">
     <path d="M 115.2 514.00535 
L 137.2 514.00535 
" style="fill:none;stroke:#8172b3;stroke-dasharray:7.5,1.5,1.5,1.5;stroke-dashoffset:0;stroke-width:1.5;"/>
    </g>
    <g id="line2d_20"/>
    <g id="text_21">
     <!-- overlap_10f_3s -->
     <g style="fill:#262626;" transform="translate(146 517.85535)scale(0.11 -0.11)">
      <use xlink:href="#ArialMT-6f"/>
      <use x="55.615234" xlink:href="#ArialMT-76"/>
      <use x="105.615234" xlink:href="#ArialMT-65"/>
      <use x="161.230469" xlink:href="#ArialMT-72"/>
      <use x="194.53125" xlink:href="#ArialMT-6c"/>
      <use x="216.748047" xlink:href="#ArialMT-61"/>
      <use x="272.363281" xlink:href="#ArialMT-70"/>
      <use x="327.978516" xlink:href="#ArialMT-5f"/>
      <use x="383.59375" xlink:href="#ArialMT-31"/>
      <use x="439.208984" xlink:href="#ArialMT-30"/>
      <use x="494.824219" xlink:href="#ArialMT-66"/>
      <use x="522.607422" xlink:href="#ArialMT-5f"/>
      <use x="578.222656" xlink:href="#ArialMT-33"/>
      <use x="633.837891" xlink:href="#ArialMT-73"/>
     </g>
    </g>
   </g>
  </g>
 </g>
 <defs>
  <clipPath id="p456634a7e7">
   <rect height="458.4888" width="652.86" x="105.3" y="71.4528"/>
  </clipPath>
 </defs>
</svg>
