<?xml version="1.0" encoding="utf-8" standalone="no"?>
<!DOCTYPE svg PUBLIC "-//W3C//DTD SVG 1.1//EN"
  "http://www.w3.org/Graphics/SVG/1.1/DTD/svg11.dtd">
<svg height="595.44pt" version="1.1" viewBox="0 0 842.4 595.44" width="842.4pt" xmlns="http://www.w3.org/2000/svg" xmlns:xlink="http://www.w3.org/1999/xlink">
 <metadata>
  <rdf:RDF xmlns:cc="http://creativecommons.org/ns#" xmlns:dc="http://purl.org/dc/elements/1.1/" xmlns:rdf="http://www.w3.org/1999/02/22-rdf-syntax-ns#">
   <cc:Work>
    <dc:type rdf:resource="http://purl.org/dc/dcmitype/StillImage"/>
    <dc:date>2021-06-01T00:54:11.368621</dc:date>
    <dc:format>image/svg+xml</dc:format>
    <dc:creator>
     <cc:Agent>
      <dc:title>Matplotlib v3.4.1, https://matplotlib.org/</dc:title>
     </cc:Agent>
    </dc:creator>
   </cc:Work>
  </rdf:RDF>
 </metadata>
 <defs>
  <style type="text/css">*{stroke-linecap:butt;stroke-linejoin:round;}</style>
 </defs>
 <g id="figure_1">
  <g id="patch_1">
   <path d="M 0 595.44 
L 842.4 595.44 
L 842.4 0 
L 0 0 
z
" style="fill:#ffffff;"/>
  </g>
  <g id="axes_1">
   <g id="patch_2">
    <path d="M 105.3 529.9416 
L 758.16 529.9416 
L 758.16 71.4528 
L 105.3 71.4528 
z
" style="fill:#ffffff;"/>
   </g>
   <g id="matplotlib.axis_1">
    <g id="xtick_1">
     <g id="text_1">
      <!-- 0 -->
      <g style="fill:#262626;" transform="translate(131.916939 547.315194)scale(0.11 -0.11)">
       <defs>
        <path d="M 266 2259 
Q 266 3072 433 3567 
Q 600 4063 929 4331 
Q 1259 4600 1759 4600 
Q 2128 4600 2406 4451 
Q 2684 4303 2865 4023 
Q 3047 3744 3150 3342 
Q 3253 2941 3253 2259 
Q 3253 1453 3087 958 
Q 2922 463 2592 192 
Q 2263 -78 1759 -78 
Q 1097 -78 719 397 
Q 266 969 266 2259 
z
M 844 2259 
Q 844 1131 1108 757 
Q 1372 384 1759 384 
Q 2147 384 2411 759 
Q 2675 1134 2675 2259 
Q 2675 3391 2411 3762 
Q 2147 4134 1753 4134 
Q 1366 4134 1134 3806 
Q 844 3388 844 2259 
z
" id="ArialMT-30" transform="scale(0.015625)"/>
       </defs>
       <use xlink:href="#ArialMT-30"/>
      </g>
     </g>
    </g>
    <g id="xtick_2">
     <g id="text_2">
      <!-- 25 -->
      <g style="fill:#262626;" transform="translate(201.950676 547.315194)scale(0.11 -0.11)">
       <defs>
        <path d="M 3222 541 
L 3222 0 
L 194 0 
Q 188 203 259 391 
Q 375 700 629 1000 
Q 884 1300 1366 1694 
Q 2113 2306 2375 2664 
Q 2638 3022 2638 3341 
Q 2638 3675 2398 3904 
Q 2159 4134 1775 4134 
Q 1369 4134 1125 3890 
Q 881 3647 878 3216 
L 300 3275 
Q 359 3922 746 4261 
Q 1134 4600 1788 4600 
Q 2447 4600 2831 4234 
Q 3216 3869 3216 3328 
Q 3216 3053 3103 2787 
Q 2991 2522 2730 2228 
Q 2469 1934 1863 1422 
Q 1356 997 1212 845 
Q 1069 694 975 541 
L 3222 541 
z
" id="ArialMT-32" transform="scale(0.015625)"/>
        <path d="M 266 1200 
L 856 1250 
Q 922 819 1161 601 
Q 1400 384 1738 384 
Q 2144 384 2425 690 
Q 2706 997 2706 1503 
Q 2706 1984 2436 2262 
Q 2166 2541 1728 2541 
Q 1456 2541 1237 2417 
Q 1019 2294 894 2097 
L 366 2166 
L 809 4519 
L 3088 4519 
L 3088 3981 
L 1259 3981 
L 1013 2750 
Q 1425 3038 1878 3038 
Q 2478 3038 2890 2622 
Q 3303 2206 3303 1553 
Q 3303 931 2941 478 
Q 2500 -78 1738 -78 
Q 1113 -78 717 272 
Q 322 622 266 1200 
z
" id="ArialMT-35" transform="scale(0.015625)"/>
       </defs>
       <use xlink:href="#ArialMT-32"/>
       <use x="55.615234" xlink:href="#ArialMT-35"/>
      </g>
     </g>
    </g>
    <g id="xtick_3">
     <g id="text_3">
      <!-- 50 -->
      <g style="fill:#262626;" transform="translate(275.042928 547.315194)scale(0.11 -0.11)">
       <use xlink:href="#ArialMT-35"/>
       <use x="55.615234" xlink:href="#ArialMT-30"/>
      </g>
     </g>
    </g>
    <g id="xtick_4">
     <g id="text_4">
      <!-- 75 -->
      <g style="fill:#262626;" transform="translate(348.135181 547.315194)scale(0.11 -0.11)">
       <defs>
        <path d="M 303 3981 
L 303 4522 
L 3269 4522 
L 3269 4084 
Q 2831 3619 2401 2847 
Q 1972 2075 1738 1259 
Q 1569 684 1522 0 
L 944 0 
Q 953 541 1156 1306 
Q 1359 2072 1739 2783 
Q 2119 3494 2547 3981 
L 303 3981 
z
" id="ArialMT-37" transform="scale(0.015625)"/>
       </defs>
       <use xlink:href="#ArialMT-37"/>
       <use x="55.615234" xlink:href="#ArialMT-35"/>
      </g>
     </g>
    </g>
    <g id="xtick_5">
     <g id="text_5">
      <!-- 100 -->
      <g style="fill:#262626;" transform="translate(418.168918 547.315194)scale(0.11 -0.11)">
       <defs>
        <path d="M 2384 0 
L 1822 0 
L 1822 3584 
Q 1619 3391 1289 3197 
Q 959 3003 697 2906 
L 697 3450 
Q 1169 3672 1522 3987 
Q 1875 4303 2022 4600 
L 2384 4600 
L 2384 0 
z
" id="ArialMT-31" transform="scale(0.015625)"/>
       </defs>
       <use xlink:href="#ArialMT-31"/>
       <use x="55.615234" xlink:href="#ArialMT-30"/>
       <use x="111.230469" xlink:href="#ArialMT-30"/>
      </g>
     </g>
    </g>
    <g id="xtick_6">
     <g id="text_6">
      <!-- 125 -->
      <g style="fill:#262626;" transform="translate(491.261171 547.315194)scale(0.11 -0.11)">
       <use xlink:href="#ArialMT-31"/>
       <use x="55.615234" xlink:href="#ArialMT-32"/>
       <use x="111.230469" xlink:href="#ArialMT-35"/>
      </g>
     </g>
    </g>
    <g id="xtick_7">
     <g id="text_7">
      <!-- 150 -->
      <g style="fill:#262626;" transform="translate(564.353423 547.315194)scale(0.11 -0.11)">
       <use xlink:href="#ArialMT-31"/>
       <use x="55.615234" xlink:href="#ArialMT-35"/>
       <use x="111.230469" xlink:href="#ArialMT-30"/>
      </g>
     </g>
    </g>
    <g id="xtick_8">
     <g id="text_8">
      <!-- 175 -->
      <g style="fill:#262626;" transform="translate(637.445676 547.315194)scale(0.11 -0.11)">
       <use xlink:href="#ArialMT-31"/>
       <use x="55.615234" xlink:href="#ArialMT-37"/>
       <use x="111.230469" xlink:href="#ArialMT-35"/>
      </g>
     </g>
    </g>
    <g id="xtick_9">
     <g id="text_9">
      <!-- 200 -->
      <g style="fill:#262626;" transform="translate(710.537928 547.315194)scale(0.11 -0.11)">
       <use xlink:href="#ArialMT-32"/>
       <use x="55.615234" xlink:href="#ArialMT-30"/>
       <use x="111.230469" xlink:href="#ArialMT-30"/>
      </g>
     </g>
    </g>
   </g>
   <g id="matplotlib.axis_2">
    <g id="ytick_1">
     <g id="text_10">
      <!-- −25 -->
      <g style="fill:#262626;" transform="translate(77.14125 533.878397)scale(0.11 -0.11)">
       <defs>
        <path d="M 3381 1997 
L 356 1997 
L 356 2522 
L 3381 2522 
L 3381 1997 
z
" id="ArialMT-2212" transform="scale(0.015625)"/>
       </defs>
       <use xlink:href="#ArialMT-2212"/>
       <use x="58.398438" xlink:href="#ArialMT-32"/>
       <use x="114.013672" xlink:href="#ArialMT-35"/>
      </g>
     </g>
    </g>
    <g id="ytick_2">
     <g id="text_11">
      <!-- −20 -->
      <g style="fill:#262626;" transform="translate(77.14125 442.180637)scale(0.11 -0.11)">
       <use xlink:href="#ArialMT-2212"/>
       <use x="58.398438" xlink:href="#ArialMT-32"/>
       <use x="114.013672" xlink:href="#ArialMT-30"/>
      </g>
     </g>
    </g>
    <g id="ytick_3">
     <g id="text_12">
      <!-- −15 -->
      <g style="fill:#262626;" transform="translate(77.14125 350.482877)scale(0.11 -0.11)">
       <use xlink:href="#ArialMT-2212"/>
       <use x="58.398438" xlink:href="#ArialMT-31"/>
       <use x="114.013672" xlink:href="#ArialMT-35"/>
      </g>
     </g>
    </g>
    <g id="ytick_4">
     <g id="text_13">
      <!-- −10 -->
      <g style="fill:#262626;" transform="translate(77.14125 258.785117)scale(0.11 -0.11)">
       <use xlink:href="#ArialMT-2212"/>
       <use x="58.398438" xlink:href="#ArialMT-31"/>
       <use x="114.013672" xlink:href="#ArialMT-30"/>
      </g>
     </g>
    </g>
    <g id="ytick_5">
     <g id="text_14">
      <!-- −5 -->
      <g style="fill:#262626;" transform="translate(83.258281 167.087357)scale(0.11 -0.11)">
       <use xlink:href="#ArialMT-2212"/>
       <use x="58.398438" xlink:href="#ArialMT-35"/>
      </g>
     </g>
    </g>
    <g id="ytick_6">
     <g id="text_15">
      <!-- 0 -->
      <g style="fill:#262626;" transform="translate(89.682969 75.389597)scale(0.11 -0.11)">
       <use xlink:href="#ArialMT-30"/>
      </g>
     </g>
    </g>
   </g>
   <g id="line2d_1">
    <path clip-path="url(#pe0df430267)" d="M 134.975455 462.211346 
L 137.899145 464.524079 
L 140.822835 461.404429 
L 143.746525 459.416556 
L 146.670215 466.848459 
L 149.593905 457.295653 
L 152.517595 461.241003 
L 155.441285 458.401858 
L 158.364975 460.804944 
L 161.288665 455.835591 
L 164.212356 452.61576 
L 167.136046 452.687958 
L 170.059736 462.531762 
L 172.983426 462.866205 
L 175.907116 470.368733 
L 178.830806 494.138113 
L 181.754496 519.399072 
L 184.678186 463.613097 
L 187.601876 434.867928 
L 190.525567 532.269234 
L 193.449257 503.075098 
L 196.372947 461.091849 
L 199.296637 482.804689 
L 202.220327 454.576524 
L 205.144017 476.383566 
L 208.067707 562.068977 
L 210.991397 465.622343 
L 213.915087 494.894274 
L 216.838777 531.982328 
L 219.762468 522.27666 
L 222.686158 500.876575 
L 225.609848 509.218691 
L 228.533538 551.634887 
L 231.457228 495.557214 
L 234.380918 396.04382 
L 237.304608 480.286345 
L 240.228298 548.910826 
L 243.151988 497.377114 
L 246.075678 417.670191 
L 248.999369 440.758197 
L 251.923059 505.781319 
L 254.846749 493.474649 
L 257.770439 520.600527 
L 260.694129 460.510727 
L 263.617819 594.324136 
L 266.541509 506.012502 
L 269.465199 493.214014 
L 272.388889 512.502921 
L 275.312579 521.417798 
L 278.23627 511.139299 
L 281.15996 490.060049 
L 284.08365 453.038597 
L 287.00734 455.437345 
L 289.93103 503.620435 
L 292.85472 432.03361 
L 295.77841 404.078778 
L 298.7021 470.429179 
L 301.62579 443.019858 
L 304.549481 463.435573 
L 307.473171 476.175785 
L 310.396861 501.79088 
L 313.320551 411.938801 
L 316.244241 423.569134 
L 319.167931 455.996534 
L 322.091621 493.953734 
L 325.015311 466.169044 
L 327.939001 512.253584 
L 330.862691 494.945135 
L 333.786382 472.450703 
L 336.710072 437.421882 
L 339.633762 502.695496 
L 342.557452 516.57175 
L 345.481142 415.117356 
L 348.404832 418.648964 
L 351.328522 442.168412 
L 354.252212 519.230959 
L 357.175902 507.856573 
L 360.099592 463.669869 
L 363.023283 522.835464 
L 365.946973 443.47764 
L 368.870663 417.516209 
L 371.794353 419.216723 
L 374.718043 478.849615 
L 377.641733 519.168764 
L 380.565423 504.828781 
L 383.489113 460.656349 
L 386.412803 478.991913 
L 389.336494 533.680149 
L 392.260184 503.917065 
L 395.183874 511.355824 
L 398.107564 482.456394 
L 401.031254 469.877161 
L 403.954944 484.505238 
L 406.878634 531.481206 
L 409.802324 505.353935 
L 412.726014 468.602912 
L 415.649704 494.307661 
L 418.573395 430.121048 
L 421.497085 480.168358 
L 424.420775 548.003901 
L 427.344465 487.198622 
L 430.268155 503.963903 
L 433.191845 478.551096 
L 436.115535 384.862069 
L 439.039225 461.338422 
L 441.962915 491.164435 
L 444.886605 455.528083 
L 447.810296 397.781238 
L 450.733986 461.068832 
L 453.657676 541.965563 
L 456.581366 480.588956 
L 459.505056 510.973004 
L 462.428746 446.316401 
L 465.352436 438.364696 
L 468.276126 461.828631 
L 471.199816 480.116727 
L 474.123506 473.935566 
L 477.047197 392.559925 
L 479.970887 264.806876 
L 485.818267 396.302112 
L 488.741957 521.567197 
L 491.665647 548.02412 
L 494.589337 519.773147 
L 497.513027 519.576945 
L 500.436717 428.764527 
L 503.360408 389.947975 
L 506.284098 477.071061 
L 509.207788 574.32685 
L 512.131478 566.612239 
L 515.055168 535.034816 
L 517.978858 445.366241 
L 520.902548 479.394322 
L 523.826238 498.13268 
L 526.749928 505.527995 
L 529.673618 570.786113 
L 532.597309 531.539273 
L 535.520999 392.515361 
L 538.444689 379.954247 
L 541.368379 511.652244 
L 544.292069 490.849371 
L 547.215759 419.06463 
L 550.139449 460.964872 
L 553.063139 375.711917 
L 555.986829 503.277282 
L 558.910519 509.695083 
L 561.83421 501.371156 
L 564.7579 502.205952 
L 567.68159 428.976225 
L 570.60528 401.738761 
L 573.52897 399.685475 
L 576.45266 411.008999 
L 579.37635 463.530334 
L 582.30004 467.26549 
L 585.22373 446.329099 
L 588.147421 423.502602 
L 591.071111 368.333358 
L 593.994801 453.813332 
L 596.918491 446.620586 
L 599.842181 462.414405 
L 602.765871 396.01811 
L 605.689561 391.932665 
L 608.613251 449.330481 
L 611.536941 534.343893 
L 614.460631 514.06292 
L 617.384322 422.998087 
L 620.308012 500.532478 
L 623.231702 536.050458 
L 626.155392 537.350207 
L 629.079082 469.201523 
L 632.002772 435.443068 
L 634.926462 430.09212 
L 637.850152 470.217585 
L 640.773842 337.936315 
L 643.697532 330.558333 
L 649.544913 386.586964 
L 652.468603 485.04225 
L 655.392293 505.691946 
L 658.315983 451.257804 
L 661.239673 467.574992 
L 664.163363 371.721863 
L 667.087053 468.229921 
L 670.010743 484.227742 
L 672.934433 454.065188 
L 675.858124 500.346175 
L 678.781814 503.021369 
L 681.705504 575.765854 
L 683.362675 596.44 
M 685.392531 596.44 
L 687.552884 551.722232 
L 690.109103 596.44 
M 690.622302 596.44 
L 693.400264 473.897123 
L 696.323954 474.329894 
L 699.247644 450.578039 
L 702.171335 480.001189 
L 705.095025 491.990521 
L 708.018715 497.665069 
L 710.942405 500.863003 
L 713.866095 498.173607 
L 716.789785 499.028726 
L 719.713475 494.725041 
L 722.637165 498.59536 
L 725.560855 497.892998 
L 728.484545 497.641422 
L 728.484545 497.641422 
" style="fill:none;stroke:#4c72b0;stroke-linecap:round;stroke-width:1.5;"/>
   </g>
   <g id="line2d_2">
    <path clip-path="url(#pe0df430267)" d="M 134.975455 458.281352 
L 137.899145 463.790515 
L 143.746525 461.621235 
L 146.670215 465.293497 
L 149.593905 460.023807 
L 152.517595 460.816242 
L 155.441285 456.859139 
L 158.364975 458.645318 
L 161.288665 455.215572 
L 164.212356 449.204378 
L 167.136046 448.067006 
L 170.059736 460.534829 
L 172.983426 460.056093 
L 175.907116 468.566113 
L 178.830806 498.141285 
L 181.754496 519.866194 
L 184.678186 479.819958 
L 187.601876 428.369743 
L 190.525567 532.54512 
L 193.449257 498.038619 
L 196.372947 470.489344 
L 199.296637 484.752966 
L 202.220327 465.498059 
L 205.144017 497.17577 
L 208.067707 564.402697 
L 210.991397 494.822635 
L 213.915087 474.028787 
L 216.838777 537.854373 
L 219.762468 519.443636 
L 222.686158 512.188661 
L 225.609848 507.832367 
L 228.533538 540.937573 
L 231.457228 497.946202 
L 234.380918 396.53284 
L 237.304608 464.201424 
L 240.228298 543.558163 
L 243.151988 509.773088 
L 246.075678 423.899764 
L 248.999369 475.858062 
L 251.923059 503.915281 
L 254.846749 495.421946 
L 257.770439 524.408266 
L 260.694129 486.396043 
L 263.340746 596.44 
M 264.035686 596.44 
L 266.541509 527.355185 
L 269.465199 500.078018 
L 272.388889 548.148053 
L 275.312579 556.741605 
L 278.23627 540.440123 
L 281.15996 527.946275 
L 284.08365 474.101196 
L 287.00734 479.037282 
L 289.93103 537.738904 
L 295.77841 390.535427 
L 298.7021 466.07131 
L 301.62579 440.361384 
L 304.549481 459.313575 
L 307.473171 476.491688 
L 310.396861 477.820226 
L 313.320551 431.161456 
L 316.244241 441.880143 
L 319.167931 477.230289 
L 322.091621 508.458018 
L 325.015311 472.235437 
L 327.939001 535.410291 
L 330.862691 498.987799 
L 333.786382 459.22546 
L 336.710072 467.170274 
L 339.633762 523.981232 
L 342.557452 517.697929 
L 345.481142 414.39635 
L 348.404832 403.791593 
L 351.328522 541.26523 
L 354.252212 484.897153 
L 357.175902 394.210733 
L 360.099592 336.399577 
L 363.023283 341.065146 
L 365.946973 388.403541 
L 368.870663 343.312939 
L 371.794353 337.349247 
L 374.718043 402.972783 
L 377.641733 447.185477 
L 380.565423 477.982393 
L 383.489113 428.742699 
L 389.336494 510.982659 
L 392.260184 500.686284 
L 395.183874 498.637371 
L 398.107564 466.819041 
L 401.031254 460.826946 
L 403.954944 516.816085 
L 406.878634 525.950111 
L 409.802324 533.598856 
L 412.726014 519.880536 
L 415.649704 513.502752 
L 418.573395 437.804947 
L 421.497085 466.35087 
L 424.420775 515.641634 
L 427.344465 448.53962 
L 430.268155 458.364604 
L 433.191845 434.009731 
L 436.115535 354.359055 
L 439.039225 487.24588 
L 441.962915 518.098449 
L 444.886605 431.94595 
L 447.810296 368.91238 
L 450.733986 473.974813 
L 453.657676 533.823077 
L 456.581366 489.837227 
L 459.505056 520.601892 
L 462.428746 440.231679 
L 465.352436 447.541013 
L 468.276126 440.145139 
L 471.199816 494.147978 
L 477.047197 409.706802 
L 479.970887 251.175953 
L 482.894577 321.069418 
L 485.818267 393.983258 
L 488.741957 520.295747 
L 491.665647 560.628854 
L 494.589337 520.402856 
L 497.513027 519.866754 
L 500.436717 430.56963 
L 503.360408 383.705074 
L 509.207788 561.952529 
L 512.131478 545.447149 
L 515.055168 528.304645 
L 517.978858 462.127115 
L 520.902548 483.957837 
L 523.826238 494.805006 
L 526.749928 512.84408 
L 529.673618 569.285229 
L 532.597309 516.254692 
L 535.520999 386.275643 
L 538.444689 374.936027 
L 541.368379 468.940608 
L 544.292069 478.166422 
L 547.215759 386.186724 
L 550.139449 439.631633 
L 553.063139 392.428401 
L 555.986829 418.287796 
L 558.910519 408.125989 
L 561.83421 375.195194 
L 564.7579 441.351701 
L 567.68159 381.456354 
L 570.60528 446.019107 
L 573.52897 356.812949 
L 576.45266 403.117005 
L 579.37635 436.219587 
L 582.30004 380.548451 
L 585.22373 450.95201 
L 588.147421 429.795875 
L 591.071111 391.217116 
L 593.994801 471.611185 
L 596.918491 454.591635 
L 599.842181 491.552782 
L 602.765871 398.374847 
L 605.689561 407.782662 
L 608.613251 517.641226 
L 611.536941 556.481075 
L 614.460631 544.172236 
L 617.384322 514.741321 
L 620.308012 535.778699 
L 623.231702 540.272709 
L 626.155392 561.204868 
L 629.079082 464.497669 
L 632.002772 470.342533 
L 634.926462 470.679425 
L 637.850152 469.659446 
L 640.773842 370.165501 
L 643.697532 330.908569 
L 649.544913 419.510344 
L 652.468603 492.529282 
L 655.392293 550.953828 
L 658.315983 421.091821 
L 661.239673 460.843771 
L 664.163363 359.480797 
L 667.087053 473.086568 
L 670.010743 491.604763 
L 672.934433 451.561045 
L 675.858124 498.639854 
L 678.781814 533.055827 
L 681.705504 583.85601 
L 682.793972 596.44 
M 685.531482 596.44 
L 687.552884 548.906593 
L 690.476574 592.562337 
L 693.400264 498.064924 
L 696.323954 487.989098 
L 699.247644 456.775607 
L 705.095025 489.724872 
L 708.018715 495.446117 
L 710.942405 498.441273 
L 713.866095 493.319688 
L 716.789785 496.189056 
L 719.713475 493.409132 
L 722.637165 493.506341 
L 725.560855 495.426074 
L 728.484545 490.198255 
L 728.484545 490.198255 
" style="fill:none;stroke:#dd8452;stroke-dasharray:6,2.25;stroke-dashoffset:0;stroke-width:1.5;"/>
   </g>
   <g id="line2d_3">
    <path clip-path="url(#pe0df430267)" d="M 134.975455 460.226621 
L 137.899145 465.008061 
L 140.822835 460.772762 
L 143.746525 459.064378 
L 146.670215 471.060321 
L 149.593905 459.384969 
L 152.517595 464.994069 
L 155.441285 480.41696 
L 158.364975 483.73519 
L 161.288665 473.64044 
L 164.212356 466.358356 
L 167.136046 455.919333 
L 170.059736 454.160193 
L 172.983426 460.487816 
L 175.907116 469.47706 
L 178.830806 497.631068 
L 181.754496 518.404033 
L 184.678186 473.3889 
L 187.601876 475.924734 
L 190.525567 531.695633 
L 193.449257 537.826424 
L 196.372947 489.115697 
L 199.296637 504.624359 
L 202.220327 493.419906 
L 205.144017 524.114365 
L 208.067707 388.893785 
L 210.991397 481.039078 
L 213.915087 513.528532 
L 216.838777 500.955315 
L 219.762468 511.59897 
L 222.686158 527.596966 
L 225.609848 468.91126 
L 228.533538 501.048676 
L 231.457228 464.890528 
L 234.380918 398.130303 
L 237.304608 449.622388 
L 240.228298 549.361892 
L 243.151988 518.336627 
L 246.075678 404.612187 
L 248.999369 477.344744 
L 251.923059 466.562393 
L 254.846749 512.615941 
L 257.770439 510.755359 
L 260.694129 486.586963 
L 263.617819 581.674662 
L 266.541509 513.755727 
L 269.465199 521.348993 
L 272.388889 525.685243 
L 275.312579 513.288045 
L 278.23627 489.649315 
L 281.15996 408.801347 
L 284.08365 382.317595 
L 287.00734 362.983459 
L 289.93103 388.592678 
L 292.85472 371.243862 
L 295.77841 383.25845 
L 298.7021 464.579767 
L 301.62579 456.182172 
L 304.549481 429.235496 
L 307.473171 464.232276 
L 310.396861 517.125657 
L 313.320551 466.740231 
L 316.244241 456.154608 
L 319.167931 490.562186 
L 322.091621 515.69253 
L 325.015311 473.409153 
L 327.939001 520.935495 
L 330.862691 513.299623 
L 333.786382 486.549884 
L 336.710072 478.276014 
L 339.633762 547.078088 
L 342.557452 558.85873 
L 345.481142 431.912615 
L 348.404832 436.845763 
L 351.328522 573.754859 
L 354.252212 526.929934 
L 357.175902 556.137642 
L 360.099592 472.071906 
L 363.023283 541.761385 
L 365.946973 444.342554 
L 368.870663 443.63589 
L 371.794353 353.748271 
L 374.718043 447.637732 
L 377.641733 480.218799 
L 380.565423 465.06973 
L 383.489113 492.884363 
L 386.412803 508.356296 
L 389.336494 563.30849 
L 392.260184 539.85344 
L 395.183874 521.024554 
L 398.107564 486.873414 
L 401.031254 491.258741 
L 403.954944 531.515277 
L 406.878634 553.986482 
L 409.802324 595.651554 
L 412.726014 548.905019 
L 415.649704 481.041282 
L 418.573395 467.751116 
L 421.497085 403.729188 
L 424.420775 368.55632 
L 427.344465 359.648054 
L 430.268155 353.707431 
L 433.191845 339.501177 
L 436.115535 310.564213 
L 439.039225 420.399639 
L 441.962915 496.457807 
L 444.886605 421.278089 
L 447.810296 448.65166 
L 450.733986 465.077706 
L 453.657676 497.44431 
L 456.581366 523.062204 
L 459.505056 584.961515 
L 462.428746 500.136435 
L 465.352436 453.729695 
L 468.276126 443.2006 
L 471.199816 420.700326 
L 474.123506 431.896594 
L 477.047197 358.238293 
L 479.970887 262.748867 
L 482.894577 280.773582 
L 485.818267 319.830009 
L 488.741957 416.747315 
L 491.665647 506.471053 
L 494.589337 450.735414 
L 497.513027 442.922299 
L 500.436717 390.145401 
L 503.360408 464.221467 
L 506.284098 546.770404 
L 509.207788 498.793311 
L 515.055168 443.872249 
L 517.978858 442.419183 
L 520.902548 502.364236 
L 523.826238 521.306772 
L 526.749928 557.591652 
L 529.673618 568.941167 
L 532.597309 504.553454 
L 535.520999 417.084522 
L 538.444689 398.257839 
L 541.368379 517.243644 
L 544.292069 517.683797 
L 547.215759 417.978573 
L 550.139449 462.223799 
L 553.063139 423.115025 
L 555.986829 377.18737 
L 558.910519 414.722957 
L 561.83421 385.012833 
L 564.7579 377.473576 
L 567.68159 352.839964 
L 570.60528 354.684858 
L 573.52897 447.934432 
L 576.45266 372.062322 
L 579.37635 441.538669 
L 582.30004 463.333887 
L 585.22373 478.921743 
L 588.147421 447.787691 
L 591.071111 433.938267 
L 593.994801 474.479993 
L 596.918491 454.070225 
L 599.842181 532.171745 
L 602.765871 433.676092 
L 605.689561 380.528407 
L 608.613251 473.384597 
L 611.536941 520.692979 
L 614.460631 508.269546 
L 617.384322 468.825174 
L 620.308012 485.74797 
L 623.231702 546.41116 
L 626.155392 570.940129 
L 629.079082 434.731366 
L 632.002772 480.432281 
L 634.926462 481.086021 
L 637.850152 384.699518 
L 640.773842 347.480708 
L 643.697532 405.163715 
L 646.621223 420.074535 
L 649.544913 413.083938 
L 652.468603 503.543409 
L 655.392293 540.69023 
L 658.315983 428.44509 
L 661.239673 471.527408 
L 664.163363 374.59987 
L 667.087053 470.952163 
L 670.010743 490.963406 
L 672.934433 432.684621 
L 675.858124 512.706679 
L 678.781814 541.934081 
L 682.071063 596.44 
M 686.544094 596.44 
L 687.552884 575.976398 
L 690.476574 590.923353 
L 693.400264 493.442188 
L 696.323954 482.336763 
L 699.247644 449.399426 
L 702.171335 478.43993 
L 705.095025 486.329056 
L 708.018715 489.236027 
L 710.942405 495.141267 
L 713.866095 487.761414 
L 716.789785 489.997925 
L 719.713475 487.17662 
L 722.637165 488.816513 
L 725.560855 489.444823 
L 728.484545 479.11966 
L 728.484545 479.11966 
" style="fill:none;stroke:#55a868;stroke-dasharray:1.5,1.5;stroke-dashoffset:0;stroke-width:1.5;"/>
   </g>
   <g id="line2d_4">
    <path clip-path="url(#pe0df430267)" d="M 134.975455 459.423726 
L 137.899145 464.885316 
L 140.822835 463.861454 
L 143.746525 462.46565 
L 146.670215 466.504187 
L 149.593905 461.075898 
L 152.517595 461.955293 
L 155.441285 458.049261 
L 158.364975 459.86206 
L 161.288665 456.339477 
L 164.212356 450.180318 
L 167.136046 449.239183 
L 170.059736 461.559845 
L 172.983426 461.012654 
L 175.907116 469.36376 
L 178.830806 499.112328 
L 181.754496 520.974498 
L 184.678186 481.055728 
L 187.601876 429.358626 
L 190.525567 534.057232 
L 193.449257 501.527516 
L 196.372947 471.571448 
L 199.296637 486.071184 
L 202.220327 466.58534 
L 205.144017 493.14206 
L 208.067707 563.868169 
L 210.991397 486.836545 
L 213.915087 479.568697 
L 216.838777 532.478554 
L 219.762468 518.87948 
L 222.686158 511.959158 
L 225.609848 507.170162 
L 228.533538 541.628531 
L 231.457228 499.401157 
L 234.380918 396.885927 
L 237.304608 467.97999 
L 240.228298 548.024749 
L 243.151988 511.471083 
L 246.075678 424.804135 
L 248.999369 476.359499 
L 251.923059 502.965611 
L 254.846749 496.549104 
L 257.770439 521.925602 
L 260.694129 484.591359 
L 263.359561 596.44 
M 263.986528 596.44 
L 266.541509 521.343291 
L 269.465199 498.305236 
L 272.388889 545.063034 
L 275.312579 560.790881 
L 278.23627 542.691466 
L 281.15996 525.673245 
L 284.08365 475.061604 
L 287.00734 489.85825 
L 289.93103 539.613443 
L 292.85472 456.318664 
L 295.77841 391.96747 
L 298.7021 469.988082 
L 301.62579 445.122641 
L 304.549481 466.508384 
L 307.473171 479.299771 
L 310.396861 480.482198 
L 313.320551 428.300903 
L 316.244241 438.709213 
L 319.167931 478.30991 
L 322.091621 521.940713 
L 325.015311 472.627282 
L 327.939001 527.823461 
L 330.862691 502.845875 
L 333.786382 456.793551 
L 336.710072 469.423436 
L 339.633762 535.356946 
L 342.557452 539.908254 
L 345.481142 422.699358 
L 348.404832 360.17347 
L 351.328522 472.762934 
L 354.252212 550.55866 
L 357.175902 417.916309 
L 360.099592 349.225594 
L 363.023283 485.740974 
L 365.946973 395.023841 
L 368.870663 357.224925 
L 371.794353 372.68416 
L 374.718043 442.209024 
L 377.641733 463.216424 
L 380.565423 493.225977 
L 383.489113 430.672926 
L 386.412803 473.052008 
L 389.336494 513.411524 
L 392.260184 502.397082 
L 395.183874 498.990318 
L 398.107564 465.969204 
L 401.031254 461.452807 
L 403.954944 514.205149 
L 406.878634 530.112652 
L 409.802324 538.374454 
L 412.726014 520.915661 
L 415.649704 516.512284 
L 418.573395 439.726744 
L 421.497085 474.822377 
L 424.420775 526.540782 
L 427.344465 450.858403 
L 430.268155 457.115611 
L 433.191845 431.692626 
L 436.115535 353.538898 
L 439.039225 487.379328 
L 441.962915 519.419745 
L 444.886605 434.641608 
L 447.810296 371.793816 
L 450.733986 472.67426 
L 453.657676 541.143709 
L 456.581366 493.55227 
L 459.505056 519.036575 
L 462.428746 439.187213 
L 465.352436 450.548866 
L 468.276126 438.305545 
L 471.199816 498.285997 
L 477.047197 414.530393 
L 479.970887 245.952489 
L 485.818267 394.222696 
L 488.741957 521.602142 
L 491.665647 560.850277 
L 494.589337 520.791867 
L 497.513027 521.057575 
L 500.436717 428.958106 
L 503.360408 382.676699 
L 509.207788 561.247509 
L 512.131478 545.799257 
L 515.055168 528.575039 
L 517.978858 460.512022 
L 520.902548 482.404799 
L 523.826238 491.88824 
L 526.749928 511.083121 
L 529.673618 569.348473 
L 532.597309 514.73401 
L 535.520999 385.322685 
L 538.444689 375.623418 
L 541.368379 468.332342 
L 544.292069 478.198254 
L 547.215759 387.337248 
L 550.139449 440.937958 
L 553.063139 392.14279 
L 555.986829 419.205074 
L 558.910519 407.685068 
L 561.83421 376.309619 
L 564.7579 441.869649 
L 567.68159 381.643007 
L 570.60528 440.121247 
L 573.52897 368.648177 
L 576.45266 404.035123 
L 579.37635 413.472006 
L 582.30004 390.034095 
L 585.22373 495.082466 
L 588.147421 410.7909 
L 591.071111 359.456171 
L 593.994801 494.744245 
L 596.918491 487.617297 
L 599.842181 473.775323 
L 602.765871 409.801877 
L 605.689561 411.464858 
L 608.613251 510.815315 
L 611.536941 551.543064 
L 614.460631 547.934081 
L 617.384322 508.789488 
L 620.308012 531.869833 
L 623.231702 541.665785 
L 626.155392 554.113914 
L 629.079082 462.251433 
L 632.002772 466.85647 
L 634.926462 473.252373 
L 637.850152 470.556051 
L 640.773842 373.520845 
L 643.697532 335.031408 
L 646.621223 381.504382 
L 649.544913 417.608731 
L 652.468603 494.755404 
L 655.392293 552.40399 
L 658.315983 422.164201 
L 661.239673 462.66717 
L 664.163363 358.984834 
L 667.087053 470.518203 
L 670.010743 492.154192 
L 672.934433 451.538448 
L 675.858124 498.229365 
L 678.781814 533.073142 
L 681.705504 581.79118 
L 682.932307 596.44 
M 685.487163 596.44 
L 687.552884 547.655676 
L 690.476574 590.208748 
L 693.400264 497.500243 
L 696.323954 488.089666 
L 699.247644 458.204536 
L 705.095025 488.182082 
L 708.018715 493.845681 
L 710.942405 497.283473 
L 713.866095 492.140445 
L 716.789785 495.260094 
L 719.713475 492.612464 
L 722.637165 492.303277 
L 725.560855 494.607929 
L 728.484545 488.678867 
L 728.484545 488.678867 
" style="fill:none;stroke:#c44e52;stroke-dasharray:4.5,1.875,2.25,1.875;stroke-dashoffset:0;stroke-width:1.5;"/>
   </g>
   <g id="line2d_5">
    <path clip-path="url(#pe0df430267)" d="M 134.975455 460.319667 
L 137.899145 465.650887 
L 140.822835 464.954821 
L 143.746525 463.731818 
L 146.670215 467.514337 
L 149.593905 462.839446 
L 152.517595 464.440861 
L 155.441285 460.399072 
L 158.364975 461.998074 
L 161.288665 458.644374 
L 164.212356 451.320908 
L 167.136046 449.95029 
L 170.059736 460.420899 
L 172.983426 460.005478 
L 175.907116 466.831354 
L 178.830806 495.90411 
L 181.754496 523.304965 
L 184.678186 475.689459 
L 187.601876 444.284802 
L 190.525567 536.381368 
L 193.449257 508.636485 
L 196.372947 479.486424 
L 199.296637 494.804236 
L 202.220327 469.592074 
L 205.144017 502.078205 
L 208.067707 575.003467 
L 210.991397 491.938051 
L 213.915087 470.093476 
L 216.838777 531.70938 
L 219.762468 514.265419 
L 222.686158 505.334381 
L 225.609848 512.455768 
L 228.533538 545.449038 
L 231.457228 501.466826 
L 234.380918 397.103432 
L 237.304608 466.781927 
L 240.228298 548.170056 
L 243.151988 509.176715 
L 246.075678 418.99516 
L 251.923059 512.71427 
L 254.846749 500.739314 
L 257.770439 526.739608 
L 260.694129 482.161828 
L 263.389945 596.44 
M 263.944468 596.44 
L 266.541509 519.639209 
L 269.465199 499.290026 
L 272.388889 542.82348 
L 275.312579 556.677837 
L 278.23627 543.373819 
L 281.15996 531.947244 
L 284.08365 481.716499 
L 287.00734 485.461134 
L 289.93103 535.632728 
L 292.85472 456.254056 
L 295.77841 393.811227 
L 298.7021 470.157839 
L 301.62579 448.650156 
L 304.549481 467.343565 
L 307.473171 481.607222 
L 310.396861 498.972653 
L 313.320551 437.02514 
L 316.244241 442.584463 
L 319.167931 490.106678 
L 322.091621 530.270551 
L 325.015311 482.179913 
L 327.939001 531.770035 
L 330.862691 510.411856 
L 333.786382 476.589667 
L 336.710072 455.460677 
L 339.633762 520.199203 
L 342.557452 520.810337 
L 345.481142 437.961272 
L 348.404832 437.821213 
L 351.328522 454.944793 
L 354.252212 537.500446 
L 357.175902 539.604173 
L 360.099592 482.870592 
L 363.023283 552.576476 
L 365.946973 457.040684 
L 368.870663 420.70197 
L 371.794353 393.769356 
L 374.718043 460.613498 
L 377.641733 518.457657 
L 380.565423 521.886704 
L 383.489113 458.988961 
L 386.412803 474.123478 
L 389.336494 530.682195 
L 392.260184 513.724245 
L 395.183874 508.265628 
L 398.107564 452.420117 
L 401.031254 477.448529 
L 403.954944 514.013214 
L 406.878634 548.096318 
L 409.802324 550.2713 
L 412.726014 517.762222 
L 415.649704 532.661988 
L 418.573395 438.667622 
L 424.420775 536.946049 
L 427.344465 457.502699 
L 430.268155 458.212232 
L 433.191845 441.589809 
L 436.115535 356.234381 
L 439.039225 486.431058 
L 441.962915 520.179964 
L 444.886605 438.991956 
L 447.810296 370.685233 
L 450.733986 465.430723 
L 453.657676 514.234532 
L 456.581366 474.209808 
L 459.505056 491.642331 
L 462.428746 420.193537 
L 465.352436 438.261855 
L 468.276126 445.406503 
L 471.199816 500.496623 
L 474.123506 463.812377 
L 477.047197 402.295571 
L 479.970887 245.966656 
L 485.818267 401.002469 
L 488.741957 524.002499 
L 491.665647 565.371291 
L 494.589337 522.317272 
L 497.513027 523.466817 
L 500.436717 426.116092 
L 503.360408 383.575473 
L 506.284098 473.623195 
L 509.207788 570.62594 
L 512.131478 557.603895 
L 515.055168 533.211348 
L 517.978858 466.960885 
L 520.902548 486.593644 
L 523.826238 484.49338 
L 526.749928 496.785079 
L 529.673618 562.175421 
L 532.597309 492.884923 
L 535.520999 369.928302 
L 538.444689 353.121518 
L 541.368379 452.344071 
L 544.292069 478.31834 
L 547.215759 377.101459 
L 550.139449 433.4185 
L 553.063139 319.344768 
L 555.986829 413.07306 
L 558.910519 384.858361 
L 561.83421 390.154076 
L 564.7579 466.91688 
L 567.68159 414.384212 
L 570.60528 390.190211 
L 573.52897 378.673352 
L 576.45266 467.031544 
L 579.37635 465.066792 
L 582.30004 420.532492 
L 585.22373 471.040243 
L 588.147421 409.112878 
L 591.071111 352.801452 
L 593.994801 463.416754 
L 596.918491 467.928919 
L 599.842181 464.588896 
L 602.765871 399.610093 
L 605.689561 415.386352 
L 608.613251 501.414216 
L 611.536941 540.537053 
L 614.460631 544.990731 
L 617.384322 492.181022 
L 620.308012 522.254378 
L 623.231702 542.082291 
L 626.155392 548.039581 
L 629.079082 455.640368 
L 632.002772 455.904747 
L 634.926462 467.991148 
L 637.850152 454.334253 
L 640.773842 358.302569 
L 643.697532 344.824019 
L 646.621223 381.632024 
L 649.544913 404.148913 
L 652.468603 479.411497 
L 655.392293 542.48302 
L 658.315983 436.566378 
L 661.239673 459.351633 
L 664.163363 356.258639 
L 667.087053 463.312864 
L 670.010743 489.088657 
L 672.934433 455.321002 
L 675.858124 495.969802 
L 678.781814 515.70019 
L 681.705504 580.178326 
L 683.315355 596.44 
M 685.19673 596.44 
L 687.552884 541.342465 
L 690.476574 567.999927 
L 693.400264 481.523515 
L 696.323954 481.003503 
L 699.247644 455.125394 
L 702.171335 470.912706 
L 705.095025 485.105564 
L 708.018715 490.559003 
L 710.942405 492.945438 
L 713.866095 489.436322 
L 716.789785 491.090068 
L 719.713475 488.011555 
L 722.637165 488.673305 
L 725.560855 488.929568 
L 728.484545 485.715194 
L 728.484545 485.715194 
" style="fill:none;stroke:#8172b3;stroke-dasharray:7.5,1.5,1.5,1.5;stroke-dashoffset:0;stroke-width:1.5;"/>
   </g>
   <g id="line2d_6"/>
   <g id="line2d_7"/>
   <g id="line2d_8"/>
   <g id="line2d_9"/>
   <g id="line2d_10"/>
   <g id="patch_3">
    <path d="M 105.3 529.9416 
L 105.3 71.4528 
" style="fill:none;stroke:#262626;stroke-linecap:square;stroke-linejoin:miter;stroke-width:1.25;"/>
   </g>
   <g id="patch_4">
    <path d="M 758.16 529.9416 
L 758.16 71.4528 
" style="fill:none;stroke:#262626;stroke-linecap:square;stroke-linejoin:miter;stroke-width:1.25;"/>
   </g>
   <g id="patch_5">
    <path d="M 105.3 529.9416 
L 758.16 529.9416 
" style="fill:none;stroke:#262626;stroke-linecap:square;stroke-linejoin:miter;stroke-width:1.25;"/>
   </g>
   <g id="patch_6">
    <path d="M 105.3 71.4528 
L 758.16 71.4528 
" style="fill:none;stroke:#262626;stroke-linecap:square;stroke-linejoin:miter;stroke-width:1.25;"/>
   </g>
   <g id="text_16">
    <!-- Activations for &gt;&amp;&lt; -->
    <g style="fill:#262626;" transform="translate(381.372187 65.4528)scale(0.12 -0.12)">
     <defs>
      <path d="M -9 0 
L 1750 4581 
L 2403 4581 
L 4278 0 
L 3588 0 
L 3053 1388 
L 1138 1388 
L 634 0 
L -9 0 
z
M 1313 1881 
L 2866 1881 
L 2388 3150 
Q 2169 3728 2063 4100 
Q 1975 3659 1816 3225 
L 1313 1881 
z
" id="ArialMT-41" transform="scale(0.015625)"/>
      <path d="M 2588 1216 
L 3141 1144 
Q 3050 572 2676 248 
Q 2303 -75 1759 -75 
Q 1078 -75 664 370 
Q 250 816 250 1647 
Q 250 2184 428 2587 
Q 606 2991 970 3192 
Q 1334 3394 1763 3394 
Q 2303 3394 2647 3120 
Q 2991 2847 3088 2344 
L 2541 2259 
Q 2463 2594 2264 2762 
Q 2066 2931 1784 2931 
Q 1359 2931 1093 2626 
Q 828 2322 828 1663 
Q 828 994 1084 691 
Q 1341 388 1753 388 
Q 2084 388 2306 591 
Q 2528 794 2588 1216 
z
" id="ArialMT-63" transform="scale(0.015625)"/>
      <path d="M 1650 503 
L 1731 6 
Q 1494 -44 1306 -44 
Q 1000 -44 831 53 
Q 663 150 594 308 
Q 525 466 525 972 
L 525 2881 
L 113 2881 
L 113 3319 
L 525 3319 
L 525 4141 
L 1084 4478 
L 1084 3319 
L 1650 3319 
L 1650 2881 
L 1084 2881 
L 1084 941 
Q 1084 700 1114 631 
Q 1144 563 1211 522 
Q 1278 481 1403 481 
Q 1497 481 1650 503 
z
" id="ArialMT-74" transform="scale(0.015625)"/>
      <path d="M 425 3934 
L 425 4581 
L 988 4581 
L 988 3934 
L 425 3934 
z
M 425 0 
L 425 3319 
L 988 3319 
L 988 0 
L 425 0 
z
" id="ArialMT-69" transform="scale(0.015625)"/>
      <path d="M 1344 0 
L 81 3319 
L 675 3319 
L 1388 1331 
Q 1503 1009 1600 663 
Q 1675 925 1809 1294 
L 2547 3319 
L 3125 3319 
L 1869 0 
L 1344 0 
z
" id="ArialMT-76" transform="scale(0.015625)"/>
      <path d="M 2588 409 
Q 2275 144 1986 34 
Q 1697 -75 1366 -75 
Q 819 -75 525 192 
Q 231 459 231 875 
Q 231 1119 342 1320 
Q 453 1522 633 1644 
Q 813 1766 1038 1828 
Q 1203 1872 1538 1913 
Q 2219 1994 2541 2106 
Q 2544 2222 2544 2253 
Q 2544 2597 2384 2738 
Q 2169 2928 1744 2928 
Q 1347 2928 1158 2789 
Q 969 2650 878 2297 
L 328 2372 
Q 403 2725 575 2942 
Q 747 3159 1072 3276 
Q 1397 3394 1825 3394 
Q 2250 3394 2515 3294 
Q 2781 3194 2906 3042 
Q 3031 2891 3081 2659 
Q 3109 2516 3109 2141 
L 3109 1391 
Q 3109 606 3145 398 
Q 3181 191 3288 0 
L 2700 0 
Q 2613 175 2588 409 
z
M 2541 1666 
Q 2234 1541 1622 1453 
Q 1275 1403 1131 1340 
Q 988 1278 909 1158 
Q 831 1038 831 891 
Q 831 666 1001 516 
Q 1172 366 1500 366 
Q 1825 366 2078 508 
Q 2331 650 2450 897 
Q 2541 1088 2541 1459 
L 2541 1666 
z
" id="ArialMT-61" transform="scale(0.015625)"/>
      <path d="M 213 1659 
Q 213 2581 725 3025 
Q 1153 3394 1769 3394 
Q 2453 3394 2887 2945 
Q 3322 2497 3322 1706 
Q 3322 1066 3130 698 
Q 2938 331 2570 128 
Q 2203 -75 1769 -75 
Q 1072 -75 642 372 
Q 213 819 213 1659 
z
M 791 1659 
Q 791 1022 1069 705 
Q 1347 388 1769 388 
Q 2188 388 2466 706 
Q 2744 1025 2744 1678 
Q 2744 2294 2464 2611 
Q 2184 2928 1769 2928 
Q 1347 2928 1069 2612 
Q 791 2297 791 1659 
z
" id="ArialMT-6f" transform="scale(0.015625)"/>
      <path d="M 422 0 
L 422 3319 
L 928 3319 
L 928 2847 
Q 1294 3394 1984 3394 
Q 2284 3394 2536 3286 
Q 2788 3178 2913 3003 
Q 3038 2828 3088 2588 
Q 3119 2431 3119 2041 
L 3119 0 
L 2556 0 
L 2556 2019 
Q 2556 2363 2490 2533 
Q 2425 2703 2258 2804 
Q 2091 2906 1866 2906 
Q 1506 2906 1245 2678 
Q 984 2450 984 1813 
L 984 0 
L 422 0 
z
" id="ArialMT-6e" transform="scale(0.015625)"/>
      <path d="M 197 991 
L 753 1078 
Q 800 744 1014 566 
Q 1228 388 1613 388 
Q 2000 388 2187 545 
Q 2375 703 2375 916 
Q 2375 1106 2209 1216 
Q 2094 1291 1634 1406 
Q 1016 1563 777 1677 
Q 538 1791 414 1992 
Q 291 2194 291 2438 
Q 291 2659 392 2848 
Q 494 3038 669 3163 
Q 800 3259 1026 3326 
Q 1253 3394 1513 3394 
Q 1903 3394 2198 3281 
Q 2494 3169 2634 2976 
Q 2775 2784 2828 2463 
L 2278 2388 
Q 2241 2644 2061 2787 
Q 1881 2931 1553 2931 
Q 1166 2931 1000 2803 
Q 834 2675 834 2503 
Q 834 2394 903 2306 
Q 972 2216 1119 2156 
Q 1203 2125 1616 2013 
Q 2213 1853 2448 1751 
Q 2684 1650 2818 1456 
Q 2953 1263 2953 975 
Q 2953 694 2789 445 
Q 2625 197 2315 61 
Q 2006 -75 1616 -75 
Q 969 -75 630 194 
Q 291 463 197 991 
z
" id="ArialMT-73" transform="scale(0.015625)"/>
      <path id="ArialMT-20" transform="scale(0.015625)"/>
      <path d="M 556 0 
L 556 2881 
L 59 2881 
L 59 3319 
L 556 3319 
L 556 3672 
Q 556 4006 616 4169 
Q 697 4388 901 4523 
Q 1106 4659 1475 4659 
Q 1713 4659 2000 4603 
L 1916 4113 
Q 1741 4144 1584 4144 
Q 1328 4144 1222 4034 
Q 1116 3925 1116 3625 
L 1116 3319 
L 1763 3319 
L 1763 2881 
L 1116 2881 
L 1116 0 
L 556 0 
z
" id="ArialMT-66" transform="scale(0.015625)"/>
      <path d="M 416 0 
L 416 3319 
L 922 3319 
L 922 2816 
Q 1116 3169 1280 3281 
Q 1444 3394 1641 3394 
Q 1925 3394 2219 3213 
L 2025 2691 
Q 1819 2813 1613 2813 
Q 1428 2813 1281 2702 
Q 1134 2591 1072 2394 
Q 978 2094 978 1738 
L 978 0 
L 416 0 
z
" id="ArialMT-72" transform="scale(0.015625)"/>
      <path d="M 3384 2003 
L 350 706 
L 350 1266 
L 2753 2263 
L 350 3250 
L 350 3809 
L 3384 2528 
L 3384 2003 
z
" id="ArialMT-3e" transform="scale(0.015625)"/>
      <path d="M 3041 541 
Q 2763 231 2434 76 
Q 2106 -78 1725 -78 
Q 1022 -78 609 397 
Q 275 784 275 1263 
Q 275 1688 548 2030 
Q 822 2372 1366 2631 
Q 1056 2988 953 3209 
Q 850 3431 850 3638 
Q 850 4050 1173 4354 
Q 1497 4659 1988 4659 
Q 2456 4659 2754 4371 
Q 3053 4084 3053 3681 
Q 3053 3028 2188 2566 
L 3009 1519 
Q 3150 1794 3228 2156 
L 3813 2031 
Q 3663 1431 3406 1044 
Q 3722 625 4122 341 
L 3744 -106 
Q 3403 113 3041 541 
z
M 1897 2928 
Q 2263 3144 2370 3306 
Q 2478 3469 2478 3666 
Q 2478 3900 2329 4048 
Q 2181 4197 1959 4197 
Q 1731 4197 1579 4050 
Q 1428 3903 1428 3691 
Q 1428 3584 1483 3467 
Q 1538 3350 1647 3219 
L 1897 2928 
z
M 2688 984 
L 1656 2263 
Q 1200 1991 1040 1758 
Q 881 1525 881 1297 
Q 881 1019 1103 719 
Q 1325 419 1731 419 
Q 1984 419 2254 576 
Q 2525 734 2688 984 
z
" id="ArialMT-26" transform="scale(0.015625)"/>
      <path d="M 350 2003 
L 350 2528 
L 3384 3809 
L 3384 3250 
L 978 2263 
L 3384 1266 
L 3384 706 
L 350 2003 
z
" id="ArialMT-3c" transform="scale(0.015625)"/>
     </defs>
     <use xlink:href="#ArialMT-41"/>
     <use x="66.699219" xlink:href="#ArialMT-63"/>
     <use x="116.699219" xlink:href="#ArialMT-74"/>
     <use x="144.482422" xlink:href="#ArialMT-69"/>
     <use x="166.699219" xlink:href="#ArialMT-76"/>
     <use x="216.699219" xlink:href="#ArialMT-61"/>
     <use x="272.314453" xlink:href="#ArialMT-74"/>
     <use x="300.097656" xlink:href="#ArialMT-69"/>
     <use x="322.314453" xlink:href="#ArialMT-6f"/>
     <use x="377.929688" xlink:href="#ArialMT-6e"/>
     <use x="433.544922" xlink:href="#ArialMT-73"/>
     <use x="483.544922" xlink:href="#ArialMT-20"/>
     <use x="511.328125" xlink:href="#ArialMT-66"/>
     <use x="539.111328" xlink:href="#ArialMT-6f"/>
     <use x="594.726562" xlink:href="#ArialMT-72"/>
     <use x="628.027344" xlink:href="#ArialMT-20"/>
     <use x="655.810547" xlink:href="#ArialMT-3e"/>
     <use x="714.208984" xlink:href="#ArialMT-26"/>
     <use x="780.908203" xlink:href="#ArialMT-3c"/>
    </g>
   </g>
   <g id="legend_1">
    <g id="patch_7">
     <path d="M 640.044062 158.514363 
L 750.46 158.514363 
Q 752.66 158.514363 752.66 156.314363 
L 752.66 79.1528 
Q 752.66 76.9528 750.46 76.9528 
L 640.044062 76.9528 
Q 637.844062 76.9528 637.844062 79.1528 
L 637.844062 156.314363 
Q 637.844062 158.514363 640.044062 158.514363 
z
" style="fill:#ffffff;opacity:0.8;stroke:#cccccc;stroke-linejoin:miter;"/>
    </g>
    <g id="line2d_11">
     <path d="M 642.244062 85.376394 
L 664.244062 85.376394 
" style="fill:none;stroke:#4c72b0;stroke-linecap:round;stroke-width:1.5;"/>
    </g>
    <g id="line2d_12"/>
    <g id="text_17">
     <!-- regular -->
     <g style="fill:#262626;" transform="translate(673.044062 89.226394)scale(0.11 -0.11)">
      <defs>
       <path d="M 2694 1069 
L 3275 997 
Q 3138 488 2766 206 
Q 2394 -75 1816 -75 
Q 1088 -75 661 373 
Q 234 822 234 1631 
Q 234 2469 665 2931 
Q 1097 3394 1784 3394 
Q 2450 3394 2872 2941 
Q 3294 2488 3294 1666 
Q 3294 1616 3291 1516 
L 816 1516 
Q 847 969 1125 678 
Q 1403 388 1819 388 
Q 2128 388 2347 550 
Q 2566 713 2694 1069 
z
M 847 1978 
L 2700 1978 
Q 2663 2397 2488 2606 
Q 2219 2931 1791 2931 
Q 1403 2931 1139 2672 
Q 875 2413 847 1978 
z
" id="ArialMT-65" transform="scale(0.015625)"/>
       <path d="M 319 -275 
L 866 -356 
Q 900 -609 1056 -725 
Q 1266 -881 1628 -881 
Q 2019 -881 2231 -725 
Q 2444 -569 2519 -288 
Q 2563 -116 2559 434 
Q 2191 0 1641 0 
Q 956 0 581 494 
Q 206 988 206 1678 
Q 206 2153 378 2554 
Q 550 2956 876 3175 
Q 1203 3394 1644 3394 
Q 2231 3394 2613 2919 
L 2613 3319 
L 3131 3319 
L 3131 450 
Q 3131 -325 2973 -648 
Q 2816 -972 2473 -1159 
Q 2131 -1347 1631 -1347 
Q 1038 -1347 672 -1080 
Q 306 -813 319 -275 
z
M 784 1719 
Q 784 1066 1043 766 
Q 1303 466 1694 466 
Q 2081 466 2343 764 
Q 2606 1063 2606 1700 
Q 2606 2309 2336 2618 
Q 2066 2928 1684 2928 
Q 1309 2928 1046 2623 
Q 784 2319 784 1719 
z
" id="ArialMT-67" transform="scale(0.015625)"/>
       <path d="M 2597 0 
L 2597 488 
Q 2209 -75 1544 -75 
Q 1250 -75 995 37 
Q 741 150 617 320 
Q 494 491 444 738 
Q 409 903 409 1263 
L 409 3319 
L 972 3319 
L 972 1478 
Q 972 1038 1006 884 
Q 1059 663 1231 536 
Q 1403 409 1656 409 
Q 1909 409 2131 539 
Q 2353 669 2445 892 
Q 2538 1116 2538 1541 
L 2538 3319 
L 3100 3319 
L 3100 0 
L 2597 0 
z
" id="ArialMT-75" transform="scale(0.015625)"/>
       <path d="M 409 0 
L 409 4581 
L 972 4581 
L 972 0 
L 409 0 
z
" id="ArialMT-6c" transform="scale(0.015625)"/>
      </defs>
      <use xlink:href="#ArialMT-72"/>
      <use x="33.300781" xlink:href="#ArialMT-65"/>
      <use x="88.916016" xlink:href="#ArialMT-67"/>
      <use x="144.53125" xlink:href="#ArialMT-75"/>
      <use x="200.146484" xlink:href="#ArialMT-6c"/>
      <use x="222.363281" xlink:href="#ArialMT-61"/>
      <use x="277.978516" xlink:href="#ArialMT-72"/>
     </g>
    </g>
    <g id="line2d_13">
     <path d="M 642.244062 101.0978 
L 664.244062 101.0978 
" style="fill:none;stroke:#dd8452;stroke-dasharray:6,2.25;stroke-dashoffset:0;stroke-width:1.5;"/>
    </g>
    <g id="line2d_14"/>
    <g id="text_18">
     <!-- splitted_3s -->
     <g style="fill:#262626;" transform="translate(673.044062 104.9478)scale(0.11 -0.11)">
      <defs>
       <path d="M 422 -1272 
L 422 3319 
L 934 3319 
L 934 2888 
Q 1116 3141 1344 3267 
Q 1572 3394 1897 3394 
Q 2322 3394 2647 3175 
Q 2972 2956 3137 2557 
Q 3303 2159 3303 1684 
Q 3303 1175 3120 767 
Q 2938 359 2589 142 
Q 2241 -75 1856 -75 
Q 1575 -75 1351 44 
Q 1128 163 984 344 
L 984 -1272 
L 422 -1272 
z
M 931 1641 
Q 931 1000 1190 694 
Q 1450 388 1819 388 
Q 2194 388 2461 705 
Q 2728 1022 2728 1688 
Q 2728 2322 2467 2637 
Q 2206 2953 1844 2953 
Q 1484 2953 1207 2617 
Q 931 2281 931 1641 
z
" id="ArialMT-70" transform="scale(0.015625)"/>
       <path d="M 2575 0 
L 2575 419 
Q 2259 -75 1647 -75 
Q 1250 -75 917 144 
Q 584 363 401 755 
Q 219 1147 219 1656 
Q 219 2153 384 2558 
Q 550 2963 881 3178 
Q 1213 3394 1622 3394 
Q 1922 3394 2156 3267 
Q 2391 3141 2538 2938 
L 2538 4581 
L 3097 4581 
L 3097 0 
L 2575 0 
z
M 797 1656 
Q 797 1019 1065 703 
Q 1334 388 1700 388 
Q 2069 388 2326 689 
Q 2584 991 2584 1609 
Q 2584 2291 2321 2609 
Q 2059 2928 1675 2928 
Q 1300 2928 1048 2622 
Q 797 2316 797 1656 
z
" id="ArialMT-64" transform="scale(0.015625)"/>
       <path d="M -97 -1272 
L -97 -866 
L 3631 -866 
L 3631 -1272 
L -97 -1272 
z
" id="ArialMT-5f" transform="scale(0.015625)"/>
       <path d="M 269 1209 
L 831 1284 
Q 928 806 1161 595 
Q 1394 384 1728 384 
Q 2125 384 2398 659 
Q 2672 934 2672 1341 
Q 2672 1728 2419 1979 
Q 2166 2231 1775 2231 
Q 1616 2231 1378 2169 
L 1441 2663 
Q 1497 2656 1531 2656 
Q 1891 2656 2178 2843 
Q 2466 3031 2466 3422 
Q 2466 3731 2256 3934 
Q 2047 4138 1716 4138 
Q 1388 4138 1169 3931 
Q 950 3725 888 3313 
L 325 3413 
Q 428 3978 793 4289 
Q 1159 4600 1703 4600 
Q 2078 4600 2393 4439 
Q 2709 4278 2876 4000 
Q 3044 3722 3044 3409 
Q 3044 3113 2884 2869 
Q 2725 2625 2413 2481 
Q 2819 2388 3044 2092 
Q 3269 1797 3269 1353 
Q 3269 753 2831 336 
Q 2394 -81 1725 -81 
Q 1122 -81 723 278 
Q 325 638 269 1209 
z
" id="ArialMT-33" transform="scale(0.015625)"/>
      </defs>
      <use xlink:href="#ArialMT-73"/>
      <use x="50" xlink:href="#ArialMT-70"/>
      <use x="105.615234" xlink:href="#ArialMT-6c"/>
      <use x="127.832031" xlink:href="#ArialMT-69"/>
      <use x="150.048828" xlink:href="#ArialMT-74"/>
      <use x="177.832031" xlink:href="#ArialMT-74"/>
      <use x="205.615234" xlink:href="#ArialMT-65"/>
      <use x="261.230469" xlink:href="#ArialMT-64"/>
      <use x="316.845703" xlink:href="#ArialMT-5f"/>
      <use x="372.460938" xlink:href="#ArialMT-33"/>
      <use x="428.076172" xlink:href="#ArialMT-73"/>
     </g>
    </g>
    <g id="line2d_15">
     <path d="M 642.244062 116.6903 
L 664.244062 116.6903 
" style="fill:none;stroke:#55a868;stroke-dasharray:1.5,1.5;stroke-dashoffset:0;stroke-width:1.5;"/>
    </g>
    <g id="line2d_16"/>
    <g id="text_19">
     <!-- splitted_1s -->
     <g style="fill:#262626;" transform="translate(673.044062 120.5403)scale(0.11 -0.11)">
      <use xlink:href="#ArialMT-73"/>
      <use x="50" xlink:href="#ArialMT-70"/>
      <use x="105.615234" xlink:href="#ArialMT-6c"/>
      <use x="127.832031" xlink:href="#ArialMT-69"/>
      <use x="150.048828" xlink:href="#ArialMT-74"/>
      <use x="177.832031" xlink:href="#ArialMT-74"/>
      <use x="205.615234" xlink:href="#ArialMT-65"/>
      <use x="261.230469" xlink:href="#ArialMT-64"/>
      <use x="316.845703" xlink:href="#ArialMT-5f"/>
      <use x="372.460938" xlink:href="#ArialMT-31"/>
      <use x="428.076172" xlink:href="#ArialMT-73"/>
     </g>
    </g>
    <g id="line2d_17">
     <path d="M 642.244062 132.384206 
L 664.244062 132.384206 
" style="fill:none;stroke:#c44e52;stroke-dasharray:4.5,1.875,2.25,1.875;stroke-dashoffset:0;stroke-width:1.5;"/>
    </g>
    <g id="line2d_18"/>
    <g id="text_20">
     <!-- overlap_1f_3s -->
     <g style="fill:#262626;" transform="translate(673.044062 136.234206)scale(0.11 -0.11)">
      <use xlink:href="#ArialMT-6f"/>
      <use x="55.615234" xlink:href="#ArialMT-76"/>
      <use x="105.615234" xlink:href="#ArialMT-65"/>
      <use x="161.230469" xlink:href="#ArialMT-72"/>
      <use x="194.53125" xlink:href="#ArialMT-6c"/>
      <use x="216.748047" xlink:href="#ArialMT-61"/>
      <use x="272.363281" xlink:href="#ArialMT-70"/>
      <use x="327.978516" xlink:href="#ArialMT-5f"/>
      <use x="383.59375" xlink:href="#ArialMT-31"/>
      <use x="439.208984" xlink:href="#ArialMT-66"/>
      <use x="466.992188" xlink:href="#ArialMT-5f"/>
      <use x="522.607422" xlink:href="#ArialMT-33"/>
      <use x="578.222656" xlink:href="#ArialMT-73"/>
     </g>
    </g>
    <g id="line2d_19">
     <path d="M 642.244062 148.078113 
L 664.244062 148.078113 
" style="fill:none;stroke:#8172b3;stroke-dasharray:7.5,1.5,1.5,1.5;stroke-dashoffset:0;stroke-width:1.5;"/>
    </g>
    <g id="line2d_20"/>
    <g id="text_21">
     <!-- overlap_10f_3s -->
     <g style="fill:#262626;" transform="translate(673.044062 151.928112)scale(0.11 -0.11)">
      <use xlink:href="#ArialMT-6f"/>
      <use x="55.615234" xlink:href="#ArialMT-76"/>
      <use x="105.615234" xlink:href="#ArialMT-65"/>
      <use x="161.230469" xlink:href="#ArialMT-72"/>
      <use x="194.53125" xlink:href="#ArialMT-6c"/>
      <use x="216.748047" xlink:href="#ArialMT-61"/>
      <use x="272.363281" xlink:href="#ArialMT-70"/>
      <use x="327.978516" xlink:href="#ArialMT-5f"/>
      <use x="383.59375" xlink:href="#ArialMT-31"/>
      <use x="439.208984" xlink:href="#ArialMT-30"/>
      <use x="494.824219" xlink:href="#ArialMT-66"/>
      <use x="522.607422" xlink:href="#ArialMT-5f"/>
      <use x="578.222656" xlink:href="#ArialMT-33"/>
      <use x="633.837891" xlink:href="#ArialMT-73"/>
     </g>
    </g>
   </g>
  </g>
 </g>
 <defs>
  <clipPath id="pe0df430267">
   <rect height="458.4888" width="652.86" x="105.3" y="71.4528"/>
  </clipPath>
 </defs>
</svg>
