<?xml version="1.0" encoding="utf-8" standalone="no"?>
<!DOCTYPE svg PUBLIC "-//W3C//DTD SVG 1.1//EN"
  "http://www.w3.org/Graphics/SVG/1.1/DTD/svg11.dtd">
<svg height="595.44pt" version="1.1" viewBox="0 0 842.4 595.44" width="842.4pt" xmlns="http://www.w3.org/2000/svg" xmlns:xlink="http://www.w3.org/1999/xlink">
 <metadata>
  <rdf:RDF xmlns:cc="http://creativecommons.org/ns#" xmlns:dc="http://purl.org/dc/elements/1.1/" xmlns:rdf="http://www.w3.org/1999/02/22-rdf-syntax-ns#">
   <cc:Work>
    <dc:type rdf:resource="http://purl.org/dc/dcmitype/StillImage"/>
    <dc:date>2021-06-01T00:54:05.399935</dc:date>
    <dc:format>image/svg+xml</dc:format>
    <dc:creator>
     <cc:Agent>
      <dc:title>Matplotlib v3.4.1, https://matplotlib.org/</dc:title>
     </cc:Agent>
    </dc:creator>
   </cc:Work>
  </rdf:RDF>
 </metadata>
 <defs>
  <style type="text/css">*{stroke-linecap:butt;stroke-linejoin:round;}</style>
 </defs>
 <g id="figure_1">
  <g id="patch_1">
   <path d="M 0 595.44 
L 842.4 595.44 
L 842.4 0 
L 0 0 
z
" style="fill:#ffffff;"/>
  </g>
  <g id="axes_1">
   <g id="patch_2">
    <path d="M 105.3 529.9416 
L 758.16 529.9416 
L 758.16 71.4528 
L 105.3 71.4528 
z
" style="fill:#ffffff;"/>
   </g>
   <g id="matplotlib.axis_1">
    <g id="xtick_1">
     <g id="text_1">
      <!-- 0 -->
      <g style="fill:#262626;" transform="translate(131.916939 547.315194)scale(0.11 -0.11)">
       <defs>
        <path d="M 266 2259 
Q 266 3072 433 3567 
Q 600 4063 929 4331 
Q 1259 4600 1759 4600 
Q 2128 4600 2406 4451 
Q 2684 4303 2865 4023 
Q 3047 3744 3150 3342 
Q 3253 2941 3253 2259 
Q 3253 1453 3087 958 
Q 2922 463 2592 192 
Q 2263 -78 1759 -78 
Q 1097 -78 719 397 
Q 266 969 266 2259 
z
M 844 2259 
Q 844 1131 1108 757 
Q 1372 384 1759 384 
Q 2147 384 2411 759 
Q 2675 1134 2675 2259 
Q 2675 3391 2411 3762 
Q 2147 4134 1753 4134 
Q 1366 4134 1134 3806 
Q 844 3388 844 2259 
z
" id="ArialMT-30" transform="scale(0.015625)"/>
       </defs>
       <use xlink:href="#ArialMT-30"/>
      </g>
     </g>
    </g>
    <g id="xtick_2">
     <g id="text_2">
      <!-- 25 -->
      <g style="fill:#262626;" transform="translate(201.950676 547.315194)scale(0.11 -0.11)">
       <defs>
        <path d="M 3222 541 
L 3222 0 
L 194 0 
Q 188 203 259 391 
Q 375 700 629 1000 
Q 884 1300 1366 1694 
Q 2113 2306 2375 2664 
Q 2638 3022 2638 3341 
Q 2638 3675 2398 3904 
Q 2159 4134 1775 4134 
Q 1369 4134 1125 3890 
Q 881 3647 878 3216 
L 300 3275 
Q 359 3922 746 4261 
Q 1134 4600 1788 4600 
Q 2447 4600 2831 4234 
Q 3216 3869 3216 3328 
Q 3216 3053 3103 2787 
Q 2991 2522 2730 2228 
Q 2469 1934 1863 1422 
Q 1356 997 1212 845 
Q 1069 694 975 541 
L 3222 541 
z
" id="ArialMT-32" transform="scale(0.015625)"/>
        <path d="M 266 1200 
L 856 1250 
Q 922 819 1161 601 
Q 1400 384 1738 384 
Q 2144 384 2425 690 
Q 2706 997 2706 1503 
Q 2706 1984 2436 2262 
Q 2166 2541 1728 2541 
Q 1456 2541 1237 2417 
Q 1019 2294 894 2097 
L 366 2166 
L 809 4519 
L 3088 4519 
L 3088 3981 
L 1259 3981 
L 1013 2750 
Q 1425 3038 1878 3038 
Q 2478 3038 2890 2622 
Q 3303 2206 3303 1553 
Q 3303 931 2941 478 
Q 2500 -78 1738 -78 
Q 1113 -78 717 272 
Q 322 622 266 1200 
z
" id="ArialMT-35" transform="scale(0.015625)"/>
       </defs>
       <use xlink:href="#ArialMT-32"/>
       <use x="55.615234" xlink:href="#ArialMT-35"/>
      </g>
     </g>
    </g>
    <g id="xtick_3">
     <g id="text_3">
      <!-- 50 -->
      <g style="fill:#262626;" transform="translate(275.042928 547.315194)scale(0.11 -0.11)">
       <use xlink:href="#ArialMT-35"/>
       <use x="55.615234" xlink:href="#ArialMT-30"/>
      </g>
     </g>
    </g>
    <g id="xtick_4">
     <g id="text_4">
      <!-- 75 -->
      <g style="fill:#262626;" transform="translate(348.135181 547.315194)scale(0.11 -0.11)">
       <defs>
        <path d="M 303 3981 
L 303 4522 
L 3269 4522 
L 3269 4084 
Q 2831 3619 2401 2847 
Q 1972 2075 1738 1259 
Q 1569 684 1522 0 
L 944 0 
Q 953 541 1156 1306 
Q 1359 2072 1739 2783 
Q 2119 3494 2547 3981 
L 303 3981 
z
" id="ArialMT-37" transform="scale(0.015625)"/>
       </defs>
       <use xlink:href="#ArialMT-37"/>
       <use x="55.615234" xlink:href="#ArialMT-35"/>
      </g>
     </g>
    </g>
    <g id="xtick_5">
     <g id="text_5">
      <!-- 100 -->
      <g style="fill:#262626;" transform="translate(418.168918 547.315194)scale(0.11 -0.11)">
       <defs>
        <path d="M 2384 0 
L 1822 0 
L 1822 3584 
Q 1619 3391 1289 3197 
Q 959 3003 697 2906 
L 697 3450 
Q 1169 3672 1522 3987 
Q 1875 4303 2022 4600 
L 2384 4600 
L 2384 0 
z
" id="ArialMT-31" transform="scale(0.015625)"/>
       </defs>
       <use xlink:href="#ArialMT-31"/>
       <use x="55.615234" xlink:href="#ArialMT-30"/>
       <use x="111.230469" xlink:href="#ArialMT-30"/>
      </g>
     </g>
    </g>
    <g id="xtick_6">
     <g id="text_6">
      <!-- 125 -->
      <g style="fill:#262626;" transform="translate(491.261171 547.315194)scale(0.11 -0.11)">
       <use xlink:href="#ArialMT-31"/>
       <use x="55.615234" xlink:href="#ArialMT-32"/>
       <use x="111.230469" xlink:href="#ArialMT-35"/>
      </g>
     </g>
    </g>
    <g id="xtick_7">
     <g id="text_7">
      <!-- 150 -->
      <g style="fill:#262626;" transform="translate(564.353423 547.315194)scale(0.11 -0.11)">
       <use xlink:href="#ArialMT-31"/>
       <use x="55.615234" xlink:href="#ArialMT-35"/>
       <use x="111.230469" xlink:href="#ArialMT-30"/>
      </g>
     </g>
    </g>
    <g id="xtick_8">
     <g id="text_8">
      <!-- 175 -->
      <g style="fill:#262626;" transform="translate(637.445676 547.315194)scale(0.11 -0.11)">
       <use xlink:href="#ArialMT-31"/>
       <use x="55.615234" xlink:href="#ArialMT-37"/>
       <use x="111.230469" xlink:href="#ArialMT-35"/>
      </g>
     </g>
    </g>
    <g id="xtick_9">
     <g id="text_9">
      <!-- 200 -->
      <g style="fill:#262626;" transform="translate(710.537928 547.315194)scale(0.11 -0.11)">
       <use xlink:href="#ArialMT-32"/>
       <use x="55.615234" xlink:href="#ArialMT-30"/>
       <use x="111.230469" xlink:href="#ArialMT-30"/>
      </g>
     </g>
    </g>
   </g>
   <g id="matplotlib.axis_2">
    <g id="ytick_1">
     <g id="text_10">
      <!-- −25 -->
      <g style="fill:#262626;" transform="translate(77.14125 533.878397)scale(0.11 -0.11)">
       <defs>
        <path d="M 3381 1997 
L 356 1997 
L 356 2522 
L 3381 2522 
L 3381 1997 
z
" id="ArialMT-2212" transform="scale(0.015625)"/>
       </defs>
       <use xlink:href="#ArialMT-2212"/>
       <use x="58.398438" xlink:href="#ArialMT-32"/>
       <use x="114.013672" xlink:href="#ArialMT-35"/>
      </g>
     </g>
    </g>
    <g id="ytick_2">
     <g id="text_11">
      <!-- −20 -->
      <g style="fill:#262626;" transform="translate(77.14125 442.180637)scale(0.11 -0.11)">
       <use xlink:href="#ArialMT-2212"/>
       <use x="58.398438" xlink:href="#ArialMT-32"/>
       <use x="114.013672" xlink:href="#ArialMT-30"/>
      </g>
     </g>
    </g>
    <g id="ytick_3">
     <g id="text_12">
      <!-- −15 -->
      <g style="fill:#262626;" transform="translate(77.14125 350.482877)scale(0.11 -0.11)">
       <use xlink:href="#ArialMT-2212"/>
       <use x="58.398438" xlink:href="#ArialMT-31"/>
       <use x="114.013672" xlink:href="#ArialMT-35"/>
      </g>
     </g>
    </g>
    <g id="ytick_4">
     <g id="text_13">
      <!-- −10 -->
      <g style="fill:#262626;" transform="translate(77.14125 258.785117)scale(0.11 -0.11)">
       <use xlink:href="#ArialMT-2212"/>
       <use x="58.398438" xlink:href="#ArialMT-31"/>
       <use x="114.013672" xlink:href="#ArialMT-30"/>
      </g>
     </g>
    </g>
    <g id="ytick_5">
     <g id="text_14">
      <!-- −5 -->
      <g style="fill:#262626;" transform="translate(83.258281 167.087357)scale(0.11 -0.11)">
       <use xlink:href="#ArialMT-2212"/>
       <use x="58.398438" xlink:href="#ArialMT-35"/>
      </g>
     </g>
    </g>
    <g id="ytick_6">
     <g id="text_15">
      <!-- 0 -->
      <g style="fill:#262626;" transform="translate(89.682969 75.389597)scale(0.11 -0.11)">
       <use xlink:href="#ArialMT-30"/>
      </g>
     </g>
    </g>
   </g>
   <g id="line2d_1">
    <path clip-path="url(#pb77a4fff3c)" d="M 134.975455 354.44124 
L 137.899145 351.417926 
L 140.822835 351.107217 
L 143.746525 351.334446 
L 146.670215 353.657078 
L 149.593905 352.066698 
L 152.517595 352.295065 
L 155.441285 354.136128 
L 158.364975 354.076627 
L 161.288665 352.652822 
L 164.212356 354.436588 
L 167.136046 355.359271 
L 170.059736 362.866696 
L 172.983426 368.815836 
L 175.907116 368.832346 
L 178.830806 384.427444 
L 181.754496 392.86453 
L 184.678186 333.920131 
L 187.601876 301.710621 
L 190.525567 413.101603 
L 193.449257 392.552789 
L 196.372947 383.425269 
L 199.296637 420.365218 
L 202.220327 317.493281 
L 205.144017 325.102567 
L 208.067707 458.670364 
L 210.991397 393.398709 
L 213.915087 420.612911 
L 216.838777 426.060334 
L 219.762468 407.531331 
L 222.686158 402.06215 
L 225.609848 413.421599 
L 228.533538 387.156262 
L 231.457228 390.652225 
L 234.380918 328.216217 
L 237.304608 383.150782 
L 240.228298 421.507698 
L 243.151988 435.9104 
L 246.075678 302.204275 
L 248.999369 344.510109 
L 251.923059 404.183193 
L 254.846749 361.203593 
L 257.770439 351.483775 
L 260.694129 315.527094 
L 263.617819 410.183543 
L 266.541509 320.79075 
L 269.465199 350.62236 
L 272.388889 419.118394 
L 275.312579 422.786319 
L 278.23627 425.362939 
L 281.15996 390.762867 
L 284.08365 345.235995 
L 287.00734 323.222851 
L 289.93103 381.701179 
L 292.85472 375.222548 
L 295.77841 385.416746 
L 298.7021 416.954396 
L 301.62579 356.873516 
L 304.549481 383.497293 
L 307.473171 364.269093 
L 310.396861 371.399243 
L 313.320551 341.689206 
L 316.244241 382.557103 
L 319.167931 340.491738 
L 322.091621 479.987407 
L 325.015311 345.252103 
L 327.939001 314.184845 
L 330.862691 303.232859 
L 333.786382 295.08448 
L 336.710072 371.374267 
L 339.633762 441.212026 
L 342.557452 402.937628 
L 345.481142 378.105978 
L 348.404832 375.377579 
L 351.328522 368.686935 
L 354.252212 410.270888 
L 357.175902 424.410856 
L 360.099592 393.739378 
L 363.023283 357.226901 
L 365.946973 128.429676 
L 368.870663 71.482037 
L 371.794353 230.937481 
L 374.718043 412.866993 
L 377.641733 456.744684 
L 380.565423 433.138626 
L 383.489113 385.88831 
L 386.412803 309.806985 
L 389.336494 305.651878 
L 392.260184 292.441502 
L 395.183874 349.779851 
L 398.107564 372.430731 
L 401.031254 337.860304 
L 403.954944 290.216342 
L 406.878634 250.802438 
L 409.802324 197.782123 
L 412.726014 211.342474 
L 415.649704 312.845534 
L 418.573395 314.522506 
L 421.497085 399.823401 
L 424.420775 460.53168 
L 427.344465 357.890085 
L 430.268155 391.023782 
L 433.191845 369.607851 
L 436.115535 281.352395 
L 439.039225 351.312286 
L 441.962915 425.573204 
L 444.886605 383.379585 
L 447.810296 371.176071 
L 450.733986 376.999633 
L 453.657676 444.879915 
L 456.581366 399.277924 
L 459.505056 437.246073 
L 462.428746 323.843972 
L 465.352436 350.34733 
L 468.276126 416.502281 
L 471.199816 354.890715 
L 474.123506 374.819474 
L 477.047197 415.291836 
L 479.970887 391.293197 
L 482.894577 434.78555 
L 485.818267 409.249475 
L 488.741957 395.372836 
L 491.665647 342.10328 
L 494.589337 318.821783 
L 497.513027 395.570157 
L 500.436717 377.936185 
L 503.360408 289.407518 
L 506.284098 339.92279 
L 509.207788 424.356497 
L 512.131478 430.600518 
L 515.055168 485.007655 
L 517.978858 388.012291 
L 520.902548 402.762868 
L 523.826238 429.103972 
L 526.749928 338.591979 
L 529.673618 242.256546 
L 532.597309 71.456431 
L 535.520999 174.03569 
L 538.444689 314.222973 
L 541.368379 397.906676 
L 544.292069 405.490777 
L 547.215759 378.945461 
L 550.139449 443.680139 
L 553.063139 345.198968 
L 555.986829 379.372041 
L 558.910519 341.196566 
L 561.83421 282.438696 
L 564.7579 267.718412 
L 567.68159 255.071579 
L 570.60528 333.81241 
L 573.52897 351.469591 
L 576.45266 390.69721 
L 579.37635 385.811494 
L 582.30004 342.994359 
L 585.22373 336.284283 
L 588.147421 331.296759 
L 591.071111 304.552214 
L 593.994801 376.55084 
L 596.918491 306.728718 
L 599.842181 248.461022 
L 602.765871 323.082669 
L 605.689561 300.593852 
L 608.613251 332.209612 
L 611.536941 387.645526 
L 614.460631 375.319512 
L 617.384322 299.210501 
L 620.308012 386.658148 
L 623.231702 430.99796 
L 626.155392 453.105583 
L 629.079082 414.717745 
L 632.002772 346.433812 
L 634.926462 338.960737 
L 637.850152 401.173066 
L 640.773842 325.692381 
L 643.697532 270.471926 
L 646.621223 183.320191 
L 649.544913 377.63109 
L 652.468603 471.170823 
L 655.392293 392.195749 
L 658.315983 353.728682 
L 661.239673 432.603608 
L 664.163363 351.522935 
L 667.087053 363.428613 
L 670.010743 357.119478 
L 672.934433 344.096349 
L 675.858124 376.563258 
L 678.781814 366.889806 
L 681.705504 426.008074 
L 684.629194 424.297241 
L 687.552884 329.285326 
L 690.476574 418.521497 
L 693.400264 318.892915 
L 696.323954 360.80811 
L 699.247644 377.043323 
L 702.171335 353.825051 
L 705.095025 352.920698 
L 708.018715 352.505154 
L 710.942405 355.800472 
L 713.866095 356.006854 
L 716.789785 353.422083 
L 719.713475 354.832631 
L 722.637165 355.781758 
L 725.560855 355.336674 
L 728.484545 360.093943 
L 728.484545 360.093943 
" style="fill:none;stroke:#4c72b0;stroke-linecap:round;stroke-width:1.5;"/>
   </g>
   <g id="line2d_2">
    <path clip-path="url(#pb77a4fff3c)" d="M 134.975455 337.453837 
L 137.899145 336.18132 
L 140.822835 337.244115 
L 143.746525 337.733711 
L 146.670215 338.41108 
L 149.593905 338.568157 
L 152.517595 337.903416 
L 155.441285 338.624545 
L 161.288665 337.894934 
L 164.212356 337.169765 
L 167.136046 334.984604 
L 170.059736 340.226608 
L 172.983426 344.528386 
L 175.907116 347.974433 
L 178.830806 364.77541 
L 181.754496 365.990823 
L 184.678186 312.109801 
L 187.601876 264.533158 
L 190.525567 399.7717 
L 193.449257 377.207344 
L 196.372947 371.321203 
L 199.296637 388.267924 
L 202.220327 314.668442 
L 205.144017 335.431455 
L 208.067707 455.085797 
L 210.991397 395.076416 
L 213.915087 383.073336 
L 216.838777 406.596562 
L 219.762468 365.890605 
L 222.686158 377.795356 
L 225.609848 378.800784 
L 228.533538 356.774891 
L 231.457228 350.229361 
L 234.380918 306.413164 
L 237.304608 349.200181 
L 240.228298 388.755719 
L 243.151988 415.700401 
L 246.075678 297.698249 
L 248.999369 362.963153 
L 251.923059 404.303909 
L 254.846749 365.145568 
L 257.770439 349.891594 
L 260.694129 308.634581 
L 263.617819 405.912635 
L 266.541509 322.750867 
L 269.465199 344.584161 
L 272.388889 422.975035 
L 275.312579 419.151905 
L 278.23627 427.924064 
L 281.15996 409.290856 
L 284.08365 331.492104 
L 287.00734 303.429971 
L 289.93103 374.406257 
L 292.85472 378.130254 
L 295.77841 358.895146 
L 298.7021 408.493384 
L 301.62579 351.178383 
L 304.549481 381.299504 
L 307.473171 375.569409 
L 310.396861 367.818104 
L 313.320551 353.828969 
L 316.244241 394.808504 
L 319.167931 379.099897 
L 322.091621 467.70085 
L 325.015311 344.646286 
L 330.862691 293.379278 
L 333.786382 269.04464 
L 336.710072 382.974028 
L 339.633762 453.351807 
L 342.557452 392.43008 
L 345.481142 314.68462 
L 348.404832 381.907805 
L 351.328522 402.437695 
L 354.252212 350.314956 
L 357.175902 332.925791 
L 360.099592 253.889328 
L 363.023283 207.84958 
L 365.946973 87.675618 
L 368.870663 80.301683 
L 371.794353 139.746165 
L 374.718043 292.393544 
L 377.641733 355.475999 
L 380.565423 392.973948 
L 383.489113 311.3666 
L 386.412803 291.042602 
L 389.336494 306.979156 
L 392.260184 261.295067 
L 395.183874 319.447294 
L 398.107564 365.782867 
L 401.031254 344.557961 
L 403.954944 284.569516 
L 406.878634 157.914154 
L 409.802324 150.075801 
L 412.726014 212.392685 
L 415.649704 308.302604 
L 418.573395 318.88835 
L 421.497085 394.82484 
L 424.420775 423.521387 
L 427.344465 308.915959 
L 430.268155 337.691333 
L 433.191845 325.540341 
L 436.115535 265.057839 
L 441.962915 429.78713 
L 444.886605 332.366795 
L 447.810296 328.984814 
L 450.733986 405.86947 
L 453.657676 441.113313 
L 456.581366 395.479594 
L 459.505056 416.47853 
L 462.428746 299.768973 
L 465.352436 349.511817 
L 468.276126 407.417891 
L 471.199816 384.497194 
L 474.123506 365.721407 
L 477.047197 433.334198 
L 479.970887 382.367861 
L 482.894577 445.380233 
L 485.818267 422.222617 
L 488.741957 404.015674 
L 491.665647 357.786895 
L 494.589337 305.074202 
L 497.513027 387.862962 
L 500.436717 387.589104 
L 503.360408 308.655272 
L 506.284098 359.694175 
L 509.207788 423.34075 
L 512.131478 410.621562 
L 515.055168 502.285007 
L 517.978858 409.529069 
L 520.902548 414.865745 
L 523.826238 432.689588 
L 526.749928 340.379907 
L 529.673618 227.028143 
L 532.597309 71.458855 
L 535.520999 172.364131 
L 538.444689 287.795539 
L 541.368379 353.580734 
L 544.292069 396.216166 
L 547.215759 350.557997 
L 550.139449 438.642716 
L 553.063139 384.663348 
L 555.986829 335.922521 
L 558.910519 244.90115 
L 561.83421 194.411668 
L 564.7579 196.284266 
L 567.68159 168.806087 
L 570.60528 353.110079 
L 573.52897 179.792729 
L 576.45266 199.584175 
L 579.37635 208.298565 
L 582.30004 152.752219 
L 585.22373 245.085145 
L 588.147421 278.843723 
L 591.071111 298.018945 
L 593.994801 370.563083 
L 596.918491 299.209731 
L 599.842181 297.930813 
L 602.765871 301.582962 
L 605.689561 279.506505 
L 608.613251 346.844301 
L 611.536941 366.507931 
L 614.460631 356.199611 
L 617.384322 339.097456 
L 620.308012 390.06145 
L 623.231702 436.241275 
L 626.155392 465.957696 
L 629.079082 389.999185 
L 632.002772 359.165331 
L 634.926462 366.155228 
L 637.850152 379.658457 
L 640.773842 320.626397 
L 643.697532 239.898689 
L 646.621223 145.588104 
L 649.544913 370.718499 
L 652.468603 454.268316 
L 655.392293 402.186294 
L 658.315983 332.789545 
L 661.239673 437.679334 
L 664.163363 346.44226 
L 667.087053 385.397227 
L 670.010743 375.16756 
L 672.934433 332.640023 
L 675.858124 363.334762 
L 678.781814 367.165798 
L 681.705504 409.852248 
L 684.629194 411.1818 
L 687.552884 294.253916 
L 690.476574 387.572104 
L 693.400264 335.646512 
L 696.323954 370.390807 
L 699.247644 374.559049 
L 702.171335 327.565154 
L 705.095025 326.940867 
L 708.018715 328.511098 
L 710.942405 332.070515 
L 713.866095 328.122874 
L 716.789785 327.199893 
L 719.713475 327.233841 
L 722.637165 328.550416 
L 725.560855 330.1795 
L 728.484545 329.568489 
L 728.484545 329.568489 
" style="fill:none;stroke:#dd8452;stroke-dasharray:6,2.25;stroke-dashoffset:0;stroke-width:1.5;"/>
   </g>
   <g id="line2d_3">
    <path clip-path="url(#pb77a4fff3c)" d="M 134.975455 332.742654 
L 137.899145 329.084891 
L 140.822835 331.414484 
L 143.746525 331.676484 
L 146.670215 333.325035 
L 149.593905 333.072637 
L 152.517595 334.0781 
L 155.441285 334.888165 
L 158.364975 336.426162 
L 161.288665 340.20513 
L 164.212356 340.426273 
L 167.136046 334.30379 
L 170.059736 331.712425 
L 172.983426 338.847577 
L 175.907116 342.866577 
L 178.830806 352.794753 
L 181.754496 351.589975 
L 184.678186 284.576197 
L 187.601876 230.734982 
L 190.525567 283.719766 
L 193.449257 350.828549 
L 196.372947 365.031358 
L 199.296637 361.9147 
L 202.220327 297.54913 
L 205.144017 283.798821 
L 208.067707 275.788734 
L 210.991397 316.783451 
L 213.915087 308.010749 
L 216.838777 259.464235 
L 219.762468 266.868907 
L 222.686158 334.173962 
L 225.609848 318.481253 
L 228.533538 343.565039 
L 231.457228 320.001551 
L 234.380918 299.73945 
L 237.304608 317.959143 
L 240.228298 399.416654 
L 243.151988 425.081316 
L 246.075678 268.078967 
L 248.999369 337.322155 
L 251.923059 348.25805 
L 254.846749 360.384713 
L 257.770439 324.774438 
L 260.694129 322.543349 
L 263.617819 438.601859 
L 266.541509 374.502346 
L 269.465199 395.707418 
L 272.388889 354.76302 
L 275.312579 299.185036 
L 278.23627 240.448644 
L 281.15996 249.358886 
L 284.08365 224.98717 
L 287.00734 208.473368 
L 289.93103 246.15518 
L 292.85472 264.42521 
L 295.77841 307.424853 
L 298.7021 375.40245 
L 301.62579 379.140509 
L 304.549481 375.257493 
L 307.473171 374.030537 
L 310.396861 347.846896 
L 313.320551 350.898352 
L 316.244241 394.403192 
L 319.167931 389.548784 
L 322.091621 469.491892 
L 325.015311 344.5032 
L 327.939001 308.201302 
L 330.862691 333.26779 
L 333.786382 315.584584 
L 336.710072 415.387226 
L 339.633762 468.975308 
L 342.557452 426.845074 
L 345.481142 355.574135 
L 348.404832 379.57412 
L 351.328522 425.38753 
L 354.252212 311.292967 
L 357.175902 395.686291 
L 360.099592 361.946409 
L 363.023283 402.407297 
L 365.946973 181.638348 
L 368.870663 163.660655 
L 371.794353 155.168291 
L 374.718043 304.493063 
L 377.641733 344.404662 
L 380.565423 320.754109 
L 383.489113 346.465311 
L 386.412803 307.833243 
L 389.336494 302.145736 
L 392.260184 272.623366 
L 395.183874 304.846588 
L 398.107564 392.086332 
L 401.031254 402.127388 
L 403.954944 328.599422 
L 406.878634 230.609702 
L 409.802324 250.44907 
L 412.726014 223.653123 
L 415.649704 231.211601 
L 418.573395 273.482963 
L 421.497085 248.930819 
L 424.420775 161.464598 
L 427.344465 140.423276 
L 430.268155 137.953558 
L 433.191845 123.532093 
L 436.115535 142.57406 
L 439.039225 273.283682 
L 441.962915 364.970808 
L 444.886605 248.409094 
L 447.810296 340.065997 
L 450.733986 384.856892 
L 453.657676 410.511585 
L 456.581366 418.430689 
L 459.505056 464.459331 
L 462.428746 324.216019 
L 465.352436 336.578587 
L 468.276126 386.745738 
L 471.199816 353.803854 
L 474.123506 347.960231 
L 477.047197 364.664804 
L 479.970887 430.478753 
L 482.894577 425.654147 
L 485.818267 402.07156 
L 488.741957 363.109911 
L 491.665647 346.024442 
L 494.589337 289.429328 
L 497.513027 298.744201 
L 500.436717 277.350692 
L 503.360408 306.567443 
L 506.284098 381.864955 
L 509.207788 337.132162 
L 512.131478 324.301755 
L 515.055168 370.595334 
L 517.978858 360.140309 
L 520.902548 362.208531 
L 523.826238 425.890716 
L 526.749928 364.103953 
L 529.673618 199.594083 
L 532.597309 71.464565 
L 535.520999 258.79444 
L 538.444689 314.474723 
L 541.368379 357.917527 
L 544.292069 387.552095 
L 547.215759 270.146525 
L 550.139449 298.449898 
L 553.063139 267.474339 
L 555.986829 209.938415 
L 558.910519 276.3046 
L 561.83421 238.605202 
L 564.7579 195.819295 
L 567.68159 171.013434 
L 570.60528 215.511337 
L 573.52897 288.599098 
L 576.45266 223.169036 
L 579.37635 212.14201 
L 582.30004 71.453838 
L 585.22373 152.350143 
L 588.147421 298.550255 
L 591.071111 319.238096 
L 593.994801 358.094176 
L 596.918491 298.034948 
L 599.842181 330.440905 
L 602.765871 354.53259 
L 605.689561 270.068398 
L 608.613251 321.36498 
L 611.536941 352.810721 
L 614.460631 360.175009 
L 617.384322 316.526208 
L 620.308012 344.461224 
L 623.231702 422.297369 
L 626.155392 450.383096 
L 629.079082 358.829139 
L 632.002772 373.665032 
L 634.926462 420.879703 
L 637.850152 337.73184 
L 640.773842 308.717658 
L 643.697532 283.376893 
L 646.621223 219.982837 
L 649.544913 355.257654 
L 652.468603 446.414555 
L 655.392293 397.801281 
L 658.315983 323.021559 
L 661.239673 412.278071 
L 664.163363 321.885097 
L 667.087053 362.925934 
L 670.010743 365.049233 
L 672.934433 292.275942 
L 675.858124 362.796491 
L 678.781814 376.187469 
L 681.705504 424.599887 
L 684.629194 409.317231 
L 687.552884 295.672282 
L 690.476574 361.725441 
L 693.400264 337.069058 
L 696.323954 386.136318 
L 699.247644 388.411272 
L 702.171335 349.564252 
L 705.095025 335.610255 
L 710.942405 337.585816 
L 713.866095 332.609765 
L 716.789785 333.961844 
L 719.713475 334.127911 
L 722.637165 334.116683 
L 725.560855 335.290451 
L 728.484545 328.560682 
L 728.484545 328.560682 
" style="fill:none;stroke:#55a868;stroke-dasharray:1.5,1.5;stroke-dashoffset:0;stroke-width:1.5;"/>
   </g>
   <g id="line2d_4">
    <path clip-path="url(#pb77a4fff3c)" d="M 134.975455 338.526391 
L 137.899145 337.178003 
L 140.822835 338.314081 
L 143.746525 338.514446 
L 146.670215 339.628521 
L 149.593905 339.495178 
L 152.517595 338.934415 
L 155.441285 339.79604 
L 158.364975 339.418729 
L 161.288665 339.201189 
L 164.212356 338.452286 
L 167.136046 336.142247 
L 170.059736 341.157843 
L 172.983426 345.324161 
L 175.907116 348.56673 
L 178.830806 365.530557 
L 181.754496 367.741323 
L 184.678186 314.030618 
L 187.601876 265.192494 
L 190.525567 400.72242 
L 193.449257 379.872499 
L 196.372947 372.219137 
L 199.296637 391.417411 
L 202.220327 317.021122 
L 205.144017 334.278482 
L 208.067707 460.855909 
L 210.991397 391.033996 
L 213.915087 397.596439 
L 216.838777 401.834501 
L 219.762468 366.987086 
L 222.686158 378.092231 
L 225.609848 378.425659 
L 228.533538 357.398338 
L 231.457228 353.480219 
L 234.380918 307.94336 
L 237.304608 354.546093 
L 240.228298 395.39169 
L 243.151988 419.889457 
L 246.075678 298.428367 
L 248.999369 361.03987 
L 251.923059 403.964603 
L 254.846749 365.247849 
L 257.770439 347.370627 
L 260.694129 308.843673 
L 263.617819 408.256465 
L 266.541509 321.077603 
L 269.465199 351.680083 
L 272.388889 427.629638 
L 275.312579 425.958228 
L 278.23627 433.245629 
L 281.15996 407.212594 
L 284.08365 333.76858 
L 287.00734 314.523905 
L 289.93103 379.623582 
L 292.85472 372.18769 
L 295.77841 359.255474 
L 298.7021 404.626983 
L 301.62579 350.306054 
L 304.549481 382.458389 
L 307.473171 373.783194 
L 310.396861 367.177411 
L 313.320551 351.215077 
L 316.244241 398.046281 
L 319.167931 379.849902 
L 322.091621 481.492768 
L 325.015311 340.78382 
L 327.939001 314.798935 
L 330.862691 333.593908 
L 333.786382 290.029794 
L 336.710072 397.378409 
L 339.633762 475.54863 
L 342.557452 418.623463 
L 345.481142 323.645216 
L 348.404832 327.236745 
L 351.328522 405.900042 
L 354.252212 448.260025 
L 357.175902 306.049005 
L 360.099592 287.03567 
L 363.023283 373.578387 
L 365.946973 100.761626 
L 368.870663 73.516198 
L 371.794353 175.843487 
L 374.718043 323.147592 
L 377.641733 358.174595 
L 380.565423 400.667431 
L 383.489113 316.942207 
L 386.412803 298.388176 
L 389.336494 308.751134 
L 392.260184 258.999055 
L 395.183874 321.913501 
L 398.107564 367.15303 
L 401.031254 349.904275 
L 403.954944 284.633039 
L 406.878634 163.528212 
L 409.802324 154.827211 
L 412.726014 214.466408 
L 415.649704 312.195659 
L 418.573395 322.278761 
L 421.497085 400.115238 
L 424.420775 429.030514 
L 427.344465 311.28912 
L 430.268155 333.321904 
L 433.191845 318.864493 
L 436.115535 260.393424 
L 439.039225 342.351201 
L 441.962915 429.941776 
L 444.886605 331.280318 
L 447.810296 327.313683 
L 450.733986 401.974036 
L 453.657676 446.377371 
L 456.581366 397.895342 
L 459.505056 415.183258 
L 462.428746 299.110353 
L 465.352436 356.218745 
L 468.276126 406.736867 
L 471.199816 392.013154 
L 474.123506 365.629375 
L 477.047197 430.814945 
L 479.970887 376.354778 
L 482.894577 442.565889 
L 485.818267 420.678009 
L 488.741957 404.540443 
L 491.665647 356.747466 
L 494.589337 306.570538 
L 497.513027 390.159743 
L 500.436717 387.006024 
L 503.360408 308.799074 
L 506.284098 359.608369 
L 509.207788 424.064905 
L 512.131478 410.281767 
L 515.055168 503.14922 
L 517.978858 410.815735 
L 520.902548 415.367777 
L 523.826238 431.398655 
L 526.749928 339.720956 
L 529.673618 227.938373 
L 532.597309 71.459095 
L 535.520999 170.854494 
L 538.444689 290.069758 
L 541.368379 354.631181 
L 544.292069 397.341925 
L 547.215759 350.646619 
L 550.139449 439.606903 
L 553.063139 386.378904 
L 555.986829 339.858444 
L 558.910519 244.904421 
L 561.83421 193.76523 
L 564.7579 195.260517 
L 567.68159 171.246208 
L 570.60528 344.187839 
L 573.52897 256.733755 
L 576.45266 288.902618 
L 579.37635 170.557558 
L 582.30004 71.642896 
L 585.22373 288.650938 
L 588.147421 291.761859 
L 591.071111 277.533025 
L 593.994801 396.34916 
L 596.918491 326.952061 
L 599.842181 291.953497 
L 602.765871 327.099274 
L 605.689561 291.05969 
L 608.613251 346.335798 
L 611.536941 369.035685 
L 614.460631 374.429553 
L 617.384322 337.181011 
L 620.308012 389.088693 
L 623.231702 437.144631 
L 626.155392 458.255992 
L 629.079082 387.031034 
L 632.002772 353.847491 
L 637.850152 380.609036 
L 640.773842 328.424803 
L 643.697532 242.178226 
L 646.621223 148.315104 
L 649.544913 366.813305 
L 652.468603 455.207982 
L 655.392293 402.935949 
L 658.315983 333.55041 
L 661.239673 438.229218 
L 664.163363 344.772511 
L 667.087053 383.638926 
L 670.010743 374.693512 
L 672.934433 331.425048 
L 675.858124 362.926634 
L 678.781814 367.070023 
L 681.705504 407.963578 
L 684.629194 410.498747 
L 687.552884 291.695642 
L 690.476574 386.610436 
L 693.400264 334.039342 
L 696.323954 367.79771 
L 699.247644 373.66839 
L 702.171335 327.091368 
L 705.095025 326.179284 
L 708.018715 328.255535 
L 710.942405 332.36718 
L 713.866095 329.287582 
L 716.789785 328.127998 
L 719.713475 328.080408 
L 725.560855 330.762126 
L 728.484545 330.49724 
L 728.484545 330.49724 
" style="fill:none;stroke:#c44e52;stroke-dasharray:4.5,1.875,2.25,1.875;stroke-dashoffset:0;stroke-width:1.5;"/>
   </g>
   <g id="line2d_5">
    <path clip-path="url(#pb77a4fff3c)" d="M 134.975455 337.704416 
L 137.899145 336.12502 
L 140.822835 337.07831 
L 143.746525 337.683585 
L 146.670215 338.424285 
L 152.517595 338.430231 
L 155.441285 339.636881 
L 158.364975 339.367518 
L 161.288665 339.724121 
L 164.212356 339.191989 
L 167.136046 337.568781 
L 170.059736 344.088828 
L 172.983426 348.040282 
L 175.907116 350.68403 
L 178.830806 366.845172 
L 181.754496 375.300168 
L 184.678186 314.761121 
L 187.601876 285.983282 
L 190.525567 408.041863 
L 193.449257 388.233714 
L 196.372947 383.800464 
L 199.296637 411.676976 
L 202.220327 324.721881 
L 205.144017 341.243684 
L 208.067707 471.7857 
L 210.991397 404.094694 
L 213.915087 391.093252 
L 216.838777 415.010842 
L 219.762468 373.172935 
L 222.686158 385.503601 
L 225.609848 396.649673 
L 228.533538 372.025383 
L 231.457228 362.671735 
L 234.380918 313.057652 
L 237.304608 359.895327 
L 240.228298 394.333477 
L 243.151988 421.457291 
L 246.075678 300.899751 
L 251.923059 414.11721 
L 254.846749 377.240295 
L 257.770439 357.133277 
L 260.694129 314.00169 
L 263.617819 407.148371 
L 266.541509 320.76511 
L 269.465199 353.748113 
L 272.388889 428.759664 
L 275.312579 423.659137 
L 278.23627 436.581139 
L 281.15996 418.509044 
L 284.08365 345.09611 
L 287.00734 315.885184 
L 289.93103 386.332415 
L 292.85472 385.689624 
L 295.77841 369.302721 
L 298.7021 404.793313 
L 301.62579 348.289322 
L 304.549481 382.653857 
L 307.473171 367.583143 
L 310.396861 368.529665 
L 313.320551 352.0239 
L 316.244241 392.548137 
L 319.167931 376.244451 
L 322.091621 473.498247 
L 325.015311 347.08108 
L 327.939001 295.849805 
L 330.862691 310.919837 
L 333.786382 311.741777 
L 336.710072 378.148478 
L 339.633762 462.028996 
L 342.557452 405.953771 
L 345.481142 365.354608 
L 348.404832 320.931597 
L 351.328522 350.577393 
L 354.252212 420.427867 
L 357.175902 439.968735 
L 360.099592 393.476014 
L 363.023283 357.911948 
L 365.946973 97.978204 
L 368.870663 71.460632 
L 371.794353 209.233867 
L 374.718043 388.705418 
L 377.641733 437.523673 
L 380.565423 425.383613 
L 383.489113 376.898751 
L 386.412803 299.040254 
L 389.336494 302.21769 
L 392.260184 285.651812 
L 395.183874 362.724625 
L 398.107564 368.093116 
L 401.031254 380.61904 
L 406.878634 185.212605 
L 409.802324 176.727334 
L 412.726014 219.443132 
L 415.649704 332.509111 
L 418.573395 317.226454 
L 421.497085 396.557361 
L 424.420775 429.738613 
L 427.344465 319.291004 
L 430.268155 328.214818 
L 433.191845 322.852799 
L 436.115535 254.34314 
L 441.962915 432.822512 
L 444.886605 340.911287 
L 447.810296 336.978442 
L 450.733986 402.273219 
L 453.657676 429.200272 
L 456.581366 387.812695 
L 459.505056 397.984786 
L 462.428746 288.453931 
L 465.352436 353.969344 
L 468.276126 415.479433 
L 471.199816 398.827487 
L 474.123506 373.271333 
L 477.047197 427.773546 
L 479.970887 381.2208 
L 482.894577 444.820065 
L 488.741957 394.360202 
L 491.665647 354.302317 
L 494.589337 304.610911 
L 497.513027 389.196816 
L 500.436717 373.737091 
L 503.360408 298.478564 
L 506.284098 356.067177 
L 509.207788 424.627382 
L 512.131478 422.953558 
L 515.055168 503.953059 
L 517.978858 417.042266 
L 520.902548 422.561293 
L 523.826238 429.288561 
L 526.749928 338.482649 
L 529.673618 225.319479 
L 532.597309 71.470293 
L 535.520999 187.122299 
L 538.444689 283.727602 
L 541.368379 359.911435 
L 544.292069 405.11107 
L 547.215759 339.545286 
L 550.139449 433.787608 
L 553.063139 232.927244 
L 555.986829 265.732969 
L 558.910519 213.483944 
L 561.83421 190.612823 
L 564.7579 189.403864 
L 567.68159 214.423689 
L 570.60528 334.415726 
L 573.52897 348.309033 
L 576.45266 413.349121 
L 579.37635 305.744033 
L 582.30004 173.181026 
L 585.22373 291.763906 
L 588.147421 321.256105 
L 591.071111 289.056163 
L 593.994801 370.571443 
L 596.918491 329.085119 
L 599.842181 270.176993 
L 602.765871 324.337189 
L 605.689561 289.561588 
L 608.613251 342.505987 
L 611.536941 363.33011 
L 614.460631 372.274126 
L 617.384322 328.745673 
L 620.308012 387.917181 
L 623.231702 430.548782 
L 626.155392 449.381446 
L 629.079082 391.952604 
L 632.002772 354.99924 
L 634.926462 355.353482 
L 637.850152 369.917179 
L 640.773842 330.022476 
L 643.697532 245.377209 
L 646.621223 135.524701 
L 649.544913 351.715517 
L 652.468603 439.469746 
L 655.392293 381.766381 
L 658.315983 313.436712 
L 661.239673 416.554996 
L 664.163363 338.576745 
L 667.087053 377.742082 
L 670.010743 367.389145 
L 672.934433 333.34688 
L 675.858124 361.475457 
L 678.781814 360.292209 
L 681.705504 416.883422 
L 684.629194 402.639669 
L 687.552884 281.270262 
L 690.476574 345.27484 
L 693.400264 297.82785 
L 696.323954 338.299109 
L 699.247644 363.591935 
L 702.171335 328.763356 
L 705.095025 328.266239 
L 708.018715 331.099332 
L 710.942405 335.049037 
L 713.866095 332.711749 
L 716.789785 331.653537 
L 719.713475 331.623944 
L 722.637165 331.827422 
L 725.560855 333.598158 
L 728.484545 333.265919 
L 728.484545 333.265919 
" style="fill:none;stroke:#8172b3;stroke-dasharray:7.5,1.5,1.5,1.5;stroke-dashoffset:0;stroke-width:1.5;"/>
   </g>
   <g id="line2d_6"/>
   <g id="line2d_7"/>
   <g id="line2d_8"/>
   <g id="line2d_9"/>
   <g id="line2d_10"/>
   <g id="patch_3">
    <path d="M 105.3 529.9416 
L 105.3 71.4528 
" style="fill:none;stroke:#262626;stroke-linecap:square;stroke-linejoin:miter;stroke-width:1.25;"/>
   </g>
   <g id="patch_4">
    <path d="M 758.16 529.9416 
L 758.16 71.4528 
" style="fill:none;stroke:#262626;stroke-linecap:square;stroke-linejoin:miter;stroke-width:1.25;"/>
   </g>
   <g id="patch_5">
    <path d="M 105.3 529.9416 
L 758.16 529.9416 
" style="fill:none;stroke:#262626;stroke-linecap:square;stroke-linejoin:miter;stroke-width:1.25;"/>
   </g>
   <g id="patch_6">
    <path d="M 105.3 71.4528 
L 758.16 71.4528 
" style="fill:none;stroke:#262626;stroke-linecap:square;stroke-linejoin:miter;stroke-width:1.25;"/>
   </g>
   <g id="text_16">
    <!-- Activations for &gt;D&lt; -->
    <g style="fill:#262626;" transform="translate(381.04125 65.4528)scale(0.12 -0.12)">
     <defs>
      <path d="M -9 0 
L 1750 4581 
L 2403 4581 
L 4278 0 
L 3588 0 
L 3053 1388 
L 1138 1388 
L 634 0 
L -9 0 
z
M 1313 1881 
L 2866 1881 
L 2388 3150 
Q 2169 3728 2063 4100 
Q 1975 3659 1816 3225 
L 1313 1881 
z
" id="ArialMT-41" transform="scale(0.015625)"/>
      <path d="M 2588 1216 
L 3141 1144 
Q 3050 572 2676 248 
Q 2303 -75 1759 -75 
Q 1078 -75 664 370 
Q 250 816 250 1647 
Q 250 2184 428 2587 
Q 606 2991 970 3192 
Q 1334 3394 1763 3394 
Q 2303 3394 2647 3120 
Q 2991 2847 3088 2344 
L 2541 2259 
Q 2463 2594 2264 2762 
Q 2066 2931 1784 2931 
Q 1359 2931 1093 2626 
Q 828 2322 828 1663 
Q 828 994 1084 691 
Q 1341 388 1753 388 
Q 2084 388 2306 591 
Q 2528 794 2588 1216 
z
" id="ArialMT-63" transform="scale(0.015625)"/>
      <path d="M 1650 503 
L 1731 6 
Q 1494 -44 1306 -44 
Q 1000 -44 831 53 
Q 663 150 594 308 
Q 525 466 525 972 
L 525 2881 
L 113 2881 
L 113 3319 
L 525 3319 
L 525 4141 
L 1084 4478 
L 1084 3319 
L 1650 3319 
L 1650 2881 
L 1084 2881 
L 1084 941 
Q 1084 700 1114 631 
Q 1144 563 1211 522 
Q 1278 481 1403 481 
Q 1497 481 1650 503 
z
" id="ArialMT-74" transform="scale(0.015625)"/>
      <path d="M 425 3934 
L 425 4581 
L 988 4581 
L 988 3934 
L 425 3934 
z
M 425 0 
L 425 3319 
L 988 3319 
L 988 0 
L 425 0 
z
" id="ArialMT-69" transform="scale(0.015625)"/>
      <path d="M 1344 0 
L 81 3319 
L 675 3319 
L 1388 1331 
Q 1503 1009 1600 663 
Q 1675 925 1809 1294 
L 2547 3319 
L 3125 3319 
L 1869 0 
L 1344 0 
z
" id="ArialMT-76" transform="scale(0.015625)"/>
      <path d="M 2588 409 
Q 2275 144 1986 34 
Q 1697 -75 1366 -75 
Q 819 -75 525 192 
Q 231 459 231 875 
Q 231 1119 342 1320 
Q 453 1522 633 1644 
Q 813 1766 1038 1828 
Q 1203 1872 1538 1913 
Q 2219 1994 2541 2106 
Q 2544 2222 2544 2253 
Q 2544 2597 2384 2738 
Q 2169 2928 1744 2928 
Q 1347 2928 1158 2789 
Q 969 2650 878 2297 
L 328 2372 
Q 403 2725 575 2942 
Q 747 3159 1072 3276 
Q 1397 3394 1825 3394 
Q 2250 3394 2515 3294 
Q 2781 3194 2906 3042 
Q 3031 2891 3081 2659 
Q 3109 2516 3109 2141 
L 3109 1391 
Q 3109 606 3145 398 
Q 3181 191 3288 0 
L 2700 0 
Q 2613 175 2588 409 
z
M 2541 1666 
Q 2234 1541 1622 1453 
Q 1275 1403 1131 1340 
Q 988 1278 909 1158 
Q 831 1038 831 891 
Q 831 666 1001 516 
Q 1172 366 1500 366 
Q 1825 366 2078 508 
Q 2331 650 2450 897 
Q 2541 1088 2541 1459 
L 2541 1666 
z
" id="ArialMT-61" transform="scale(0.015625)"/>
      <path d="M 213 1659 
Q 213 2581 725 3025 
Q 1153 3394 1769 3394 
Q 2453 3394 2887 2945 
Q 3322 2497 3322 1706 
Q 3322 1066 3130 698 
Q 2938 331 2570 128 
Q 2203 -75 1769 -75 
Q 1072 -75 642 372 
Q 213 819 213 1659 
z
M 791 1659 
Q 791 1022 1069 705 
Q 1347 388 1769 388 
Q 2188 388 2466 706 
Q 2744 1025 2744 1678 
Q 2744 2294 2464 2611 
Q 2184 2928 1769 2928 
Q 1347 2928 1069 2612 
Q 791 2297 791 1659 
z
" id="ArialMT-6f" transform="scale(0.015625)"/>
      <path d="M 422 0 
L 422 3319 
L 928 3319 
L 928 2847 
Q 1294 3394 1984 3394 
Q 2284 3394 2536 3286 
Q 2788 3178 2913 3003 
Q 3038 2828 3088 2588 
Q 3119 2431 3119 2041 
L 3119 0 
L 2556 0 
L 2556 2019 
Q 2556 2363 2490 2533 
Q 2425 2703 2258 2804 
Q 2091 2906 1866 2906 
Q 1506 2906 1245 2678 
Q 984 2450 984 1813 
L 984 0 
L 422 0 
z
" id="ArialMT-6e" transform="scale(0.015625)"/>
      <path d="M 197 991 
L 753 1078 
Q 800 744 1014 566 
Q 1228 388 1613 388 
Q 2000 388 2187 545 
Q 2375 703 2375 916 
Q 2375 1106 2209 1216 
Q 2094 1291 1634 1406 
Q 1016 1563 777 1677 
Q 538 1791 414 1992 
Q 291 2194 291 2438 
Q 291 2659 392 2848 
Q 494 3038 669 3163 
Q 800 3259 1026 3326 
Q 1253 3394 1513 3394 
Q 1903 3394 2198 3281 
Q 2494 3169 2634 2976 
Q 2775 2784 2828 2463 
L 2278 2388 
Q 2241 2644 2061 2787 
Q 1881 2931 1553 2931 
Q 1166 2931 1000 2803 
Q 834 2675 834 2503 
Q 834 2394 903 2306 
Q 972 2216 1119 2156 
Q 1203 2125 1616 2013 
Q 2213 1853 2448 1751 
Q 2684 1650 2818 1456 
Q 2953 1263 2953 975 
Q 2953 694 2789 445 
Q 2625 197 2315 61 
Q 2006 -75 1616 -75 
Q 969 -75 630 194 
Q 291 463 197 991 
z
" id="ArialMT-73" transform="scale(0.015625)"/>
      <path id="ArialMT-20" transform="scale(0.015625)"/>
      <path d="M 556 0 
L 556 2881 
L 59 2881 
L 59 3319 
L 556 3319 
L 556 3672 
Q 556 4006 616 4169 
Q 697 4388 901 4523 
Q 1106 4659 1475 4659 
Q 1713 4659 2000 4603 
L 1916 4113 
Q 1741 4144 1584 4144 
Q 1328 4144 1222 4034 
Q 1116 3925 1116 3625 
L 1116 3319 
L 1763 3319 
L 1763 2881 
L 1116 2881 
L 1116 0 
L 556 0 
z
" id="ArialMT-66" transform="scale(0.015625)"/>
      <path d="M 416 0 
L 416 3319 
L 922 3319 
L 922 2816 
Q 1116 3169 1280 3281 
Q 1444 3394 1641 3394 
Q 1925 3394 2219 3213 
L 2025 2691 
Q 1819 2813 1613 2813 
Q 1428 2813 1281 2702 
Q 1134 2591 1072 2394 
Q 978 2094 978 1738 
L 978 0 
L 416 0 
z
" id="ArialMT-72" transform="scale(0.015625)"/>
      <path d="M 3384 2003 
L 350 706 
L 350 1266 
L 2753 2263 
L 350 3250 
L 350 3809 
L 3384 2528 
L 3384 2003 
z
" id="ArialMT-3e" transform="scale(0.015625)"/>
      <path d="M 494 0 
L 494 4581 
L 2072 4581 
Q 2606 4581 2888 4516 
Q 3281 4425 3559 4188 
Q 3922 3881 4101 3404 
Q 4281 2928 4281 2316 
Q 4281 1794 4159 1391 
Q 4038 988 3847 723 
Q 3656 459 3429 307 
Q 3203 156 2883 78 
Q 2563 0 2147 0 
L 494 0 
z
M 1100 541 
L 2078 541 
Q 2531 541 2789 625 
Q 3047 709 3200 863 
Q 3416 1078 3536 1442 
Q 3656 1806 3656 2325 
Q 3656 3044 3420 3430 
Q 3184 3816 2847 3947 
Q 2603 4041 2063 4041 
L 1100 4041 
L 1100 541 
z
" id="ArialMT-44" transform="scale(0.015625)"/>
      <path d="M 350 2003 
L 350 2528 
L 3384 3809 
L 3384 3250 
L 978 2263 
L 3384 1266 
L 3384 706 
L 350 2003 
z
" id="ArialMT-3c" transform="scale(0.015625)"/>
     </defs>
     <use xlink:href="#ArialMT-41"/>
     <use x="66.699219" xlink:href="#ArialMT-63"/>
     <use x="116.699219" xlink:href="#ArialMT-74"/>
     <use x="144.482422" xlink:href="#ArialMT-69"/>
     <use x="166.699219" xlink:href="#ArialMT-76"/>
     <use x="216.699219" xlink:href="#ArialMT-61"/>
     <use x="272.314453" xlink:href="#ArialMT-74"/>
     <use x="300.097656" xlink:href="#ArialMT-69"/>
     <use x="322.314453" xlink:href="#ArialMT-6f"/>
     <use x="377.929688" xlink:href="#ArialMT-6e"/>
     <use x="433.544922" xlink:href="#ArialMT-73"/>
     <use x="483.544922" xlink:href="#ArialMT-20"/>
     <use x="511.328125" xlink:href="#ArialMT-66"/>
     <use x="539.111328" xlink:href="#ArialMT-6f"/>
     <use x="594.726562" xlink:href="#ArialMT-72"/>
     <use x="628.027344" xlink:href="#ArialMT-20"/>
     <use x="655.810547" xlink:href="#ArialMT-3e"/>
     <use x="714.208984" xlink:href="#ArialMT-44"/>
     <use x="786.425781" xlink:href="#ArialMT-3c"/>
    </g>
   </g>
   <g id="legend_1">
    <g id="patch_7">
     <path d="M 113 158.514363 
L 223.415938 158.514363 
Q 225.615938 158.514363 225.615938 156.314363 
L 225.615938 79.1528 
Q 225.615938 76.9528 223.415938 76.9528 
L 113 76.9528 
Q 110.8 76.9528 110.8 79.1528 
L 110.8 156.314363 
Q 110.8 158.514363 113 158.514363 
z
" style="fill:#ffffff;opacity:0.8;stroke:#cccccc;stroke-linejoin:miter;"/>
    </g>
    <g id="line2d_11">
     <path d="M 115.2 85.376394 
L 137.2 85.376394 
" style="fill:none;stroke:#4c72b0;stroke-linecap:round;stroke-width:1.5;"/>
    </g>
    <g id="line2d_12"/>
    <g id="text_17">
     <!-- regular -->
     <g style="fill:#262626;" transform="translate(146 89.226394)scale(0.11 -0.11)">
      <defs>
       <path d="M 2694 1069 
L 3275 997 
Q 3138 488 2766 206 
Q 2394 -75 1816 -75 
Q 1088 -75 661 373 
Q 234 822 234 1631 
Q 234 2469 665 2931 
Q 1097 3394 1784 3394 
Q 2450 3394 2872 2941 
Q 3294 2488 3294 1666 
Q 3294 1616 3291 1516 
L 816 1516 
Q 847 969 1125 678 
Q 1403 388 1819 388 
Q 2128 388 2347 550 
Q 2566 713 2694 1069 
z
M 847 1978 
L 2700 1978 
Q 2663 2397 2488 2606 
Q 2219 2931 1791 2931 
Q 1403 2931 1139 2672 
Q 875 2413 847 1978 
z
" id="ArialMT-65" transform="scale(0.015625)"/>
       <path d="M 319 -275 
L 866 -356 
Q 900 -609 1056 -725 
Q 1266 -881 1628 -881 
Q 2019 -881 2231 -725 
Q 2444 -569 2519 -288 
Q 2563 -116 2559 434 
Q 2191 0 1641 0 
Q 956 0 581 494 
Q 206 988 206 1678 
Q 206 2153 378 2554 
Q 550 2956 876 3175 
Q 1203 3394 1644 3394 
Q 2231 3394 2613 2919 
L 2613 3319 
L 3131 3319 
L 3131 450 
Q 3131 -325 2973 -648 
Q 2816 -972 2473 -1159 
Q 2131 -1347 1631 -1347 
Q 1038 -1347 672 -1080 
Q 306 -813 319 -275 
z
M 784 1719 
Q 784 1066 1043 766 
Q 1303 466 1694 466 
Q 2081 466 2343 764 
Q 2606 1063 2606 1700 
Q 2606 2309 2336 2618 
Q 2066 2928 1684 2928 
Q 1309 2928 1046 2623 
Q 784 2319 784 1719 
z
" id="ArialMT-67" transform="scale(0.015625)"/>
       <path d="M 2597 0 
L 2597 488 
Q 2209 -75 1544 -75 
Q 1250 -75 995 37 
Q 741 150 617 320 
Q 494 491 444 738 
Q 409 903 409 1263 
L 409 3319 
L 972 3319 
L 972 1478 
Q 972 1038 1006 884 
Q 1059 663 1231 536 
Q 1403 409 1656 409 
Q 1909 409 2131 539 
Q 2353 669 2445 892 
Q 2538 1116 2538 1541 
L 2538 3319 
L 3100 3319 
L 3100 0 
L 2597 0 
z
" id="ArialMT-75" transform="scale(0.015625)"/>
       <path d="M 409 0 
L 409 4581 
L 972 4581 
L 972 0 
L 409 0 
z
" id="ArialMT-6c" transform="scale(0.015625)"/>
      </defs>
      <use xlink:href="#ArialMT-72"/>
      <use x="33.300781" xlink:href="#ArialMT-65"/>
      <use x="88.916016" xlink:href="#ArialMT-67"/>
      <use x="144.53125" xlink:href="#ArialMT-75"/>
      <use x="200.146484" xlink:href="#ArialMT-6c"/>
      <use x="222.363281" xlink:href="#ArialMT-61"/>
      <use x="277.978516" xlink:href="#ArialMT-72"/>
     </g>
    </g>
    <g id="line2d_13">
     <path d="M 115.2 101.0978 
L 137.2 101.0978 
" style="fill:none;stroke:#dd8452;stroke-dasharray:6,2.25;stroke-dashoffset:0;stroke-width:1.5;"/>
    </g>
    <g id="line2d_14"/>
    <g id="text_18">
     <!-- splitted_3s -->
     <g style="fill:#262626;" transform="translate(146 104.9478)scale(0.11 -0.11)">
      <defs>
       <path d="M 422 -1272 
L 422 3319 
L 934 3319 
L 934 2888 
Q 1116 3141 1344 3267 
Q 1572 3394 1897 3394 
Q 2322 3394 2647 3175 
Q 2972 2956 3137 2557 
Q 3303 2159 3303 1684 
Q 3303 1175 3120 767 
Q 2938 359 2589 142 
Q 2241 -75 1856 -75 
Q 1575 -75 1351 44 
Q 1128 163 984 344 
L 984 -1272 
L 422 -1272 
z
M 931 1641 
Q 931 1000 1190 694 
Q 1450 388 1819 388 
Q 2194 388 2461 705 
Q 2728 1022 2728 1688 
Q 2728 2322 2467 2637 
Q 2206 2953 1844 2953 
Q 1484 2953 1207 2617 
Q 931 2281 931 1641 
z
" id="ArialMT-70" transform="scale(0.015625)"/>
       <path d="M 2575 0 
L 2575 419 
Q 2259 -75 1647 -75 
Q 1250 -75 917 144 
Q 584 363 401 755 
Q 219 1147 219 1656 
Q 219 2153 384 2558 
Q 550 2963 881 3178 
Q 1213 3394 1622 3394 
Q 1922 3394 2156 3267 
Q 2391 3141 2538 2938 
L 2538 4581 
L 3097 4581 
L 3097 0 
L 2575 0 
z
M 797 1656 
Q 797 1019 1065 703 
Q 1334 388 1700 388 
Q 2069 388 2326 689 
Q 2584 991 2584 1609 
Q 2584 2291 2321 2609 
Q 2059 2928 1675 2928 
Q 1300 2928 1048 2622 
Q 797 2316 797 1656 
z
" id="ArialMT-64" transform="scale(0.015625)"/>
       <path d="M -97 -1272 
L -97 -866 
L 3631 -866 
L 3631 -1272 
L -97 -1272 
z
" id="ArialMT-5f" transform="scale(0.015625)"/>
       <path d="M 269 1209 
L 831 1284 
Q 928 806 1161 595 
Q 1394 384 1728 384 
Q 2125 384 2398 659 
Q 2672 934 2672 1341 
Q 2672 1728 2419 1979 
Q 2166 2231 1775 2231 
Q 1616 2231 1378 2169 
L 1441 2663 
Q 1497 2656 1531 2656 
Q 1891 2656 2178 2843 
Q 2466 3031 2466 3422 
Q 2466 3731 2256 3934 
Q 2047 4138 1716 4138 
Q 1388 4138 1169 3931 
Q 950 3725 888 3313 
L 325 3413 
Q 428 3978 793 4289 
Q 1159 4600 1703 4600 
Q 2078 4600 2393 4439 
Q 2709 4278 2876 4000 
Q 3044 3722 3044 3409 
Q 3044 3113 2884 2869 
Q 2725 2625 2413 2481 
Q 2819 2388 3044 2092 
Q 3269 1797 3269 1353 
Q 3269 753 2831 336 
Q 2394 -81 1725 -81 
Q 1122 -81 723 278 
Q 325 638 269 1209 
z
" id="ArialMT-33" transform="scale(0.015625)"/>
      </defs>
      <use xlink:href="#ArialMT-73"/>
      <use x="50" xlink:href="#ArialMT-70"/>
      <use x="105.615234" xlink:href="#ArialMT-6c"/>
      <use x="127.832031" xlink:href="#ArialMT-69"/>
      <use x="150.048828" xlink:href="#ArialMT-74"/>
      <use x="177.832031" xlink:href="#ArialMT-74"/>
      <use x="205.615234" xlink:href="#ArialMT-65"/>
      <use x="261.230469" xlink:href="#ArialMT-64"/>
      <use x="316.845703" xlink:href="#ArialMT-5f"/>
      <use x="372.460938" xlink:href="#ArialMT-33"/>
      <use x="428.076172" xlink:href="#ArialMT-73"/>
     </g>
    </g>
    <g id="line2d_15">
     <path d="M 115.2 116.6903 
L 137.2 116.6903 
" style="fill:none;stroke:#55a868;stroke-dasharray:1.5,1.5;stroke-dashoffset:0;stroke-width:1.5;"/>
    </g>
    <g id="line2d_16"/>
    <g id="text_19">
     <!-- splitted_1s -->
     <g style="fill:#262626;" transform="translate(146 120.5403)scale(0.11 -0.11)">
      <use xlink:href="#ArialMT-73"/>
      <use x="50" xlink:href="#ArialMT-70"/>
      <use x="105.615234" xlink:href="#ArialMT-6c"/>
      <use x="127.832031" xlink:href="#ArialMT-69"/>
      <use x="150.048828" xlink:href="#ArialMT-74"/>
      <use x="177.832031" xlink:href="#ArialMT-74"/>
      <use x="205.615234" xlink:href="#ArialMT-65"/>
      <use x="261.230469" xlink:href="#ArialMT-64"/>
      <use x="316.845703" xlink:href="#ArialMT-5f"/>
      <use x="372.460938" xlink:href="#ArialMT-31"/>
      <use x="428.076172" xlink:href="#ArialMT-73"/>
     </g>
    </g>
    <g id="line2d_17">
     <path d="M 115.2 132.384206 
L 137.2 132.384206 
" style="fill:none;stroke:#c44e52;stroke-dasharray:4.5,1.875,2.25,1.875;stroke-dashoffset:0;stroke-width:1.5;"/>
    </g>
    <g id="line2d_18"/>
    <g id="text_20">
     <!-- overlap_1f_3s -->
     <g style="fill:#262626;" transform="translate(146 136.234206)scale(0.11 -0.11)">
      <use xlink:href="#ArialMT-6f"/>
      <use x="55.615234" xlink:href="#ArialMT-76"/>
      <use x="105.615234" xlink:href="#ArialMT-65"/>
      <use x="161.230469" xlink:href="#ArialMT-72"/>
      <use x="194.53125" xlink:href="#ArialMT-6c"/>
      <use x="216.748047" xlink:href="#ArialMT-61"/>
      <use x="272.363281" xlink:href="#ArialMT-70"/>
      <use x="327.978516" xlink:href="#ArialMT-5f"/>
      <use x="383.59375" xlink:href="#ArialMT-31"/>
      <use x="439.208984" xlink:href="#ArialMT-66"/>
      <use x="466.992188" xlink:href="#ArialMT-5f"/>
      <use x="522.607422" xlink:href="#ArialMT-33"/>
      <use x="578.222656" xlink:href="#ArialMT-73"/>
     </g>
    </g>
    <g id="line2d_19">
     <path d="M 115.2 148.078113 
L 137.2 148.078113 
" style="fill:none;stroke:#8172b3;stroke-dasharray:7.5,1.5,1.5,1.5;stroke-dashoffset:0;stroke-width:1.5;"/>
    </g>
    <g id="line2d_20"/>
    <g id="text_21">
     <!-- overlap_10f_3s -->
     <g style="fill:#262626;" transform="translate(146 151.928112)scale(0.11 -0.11)">
      <use xlink:href="#ArialMT-6f"/>
      <use x="55.615234" xlink:href="#ArialMT-76"/>
      <use x="105.615234" xlink:href="#ArialMT-65"/>
      <use x="161.230469" xlink:href="#ArialMT-72"/>
      <use x="194.53125" xlink:href="#ArialMT-6c"/>
      <use x="216.748047" xlink:href="#ArialMT-61"/>
      <use x="272.363281" xlink:href="#ArialMT-70"/>
      <use x="327.978516" xlink:href="#ArialMT-5f"/>
      <use x="383.59375" xlink:href="#ArialMT-31"/>
      <use x="439.208984" xlink:href="#ArialMT-30"/>
      <use x="494.824219" xlink:href="#ArialMT-66"/>
      <use x="522.607422" xlink:href="#ArialMT-5f"/>
      <use x="578.222656" xlink:href="#ArialMT-33"/>
      <use x="633.837891" xlink:href="#ArialMT-73"/>
     </g>
    </g>
   </g>
  </g>
 </g>
 <defs>
  <clipPath id="pb77a4fff3c">
   <rect height="458.4888" width="652.86" x="105.3" y="71.4528"/>
  </clipPath>
 </defs>
</svg>
