<?xml version="1.0" encoding="utf-8" standalone="no"?>
<!DOCTYPE svg PUBLIC "-//W3C//DTD SVG 1.1//EN"
  "http://www.w3.org/Graphics/SVG/1.1/DTD/svg11.dtd">
<svg height="595.44pt" version="1.1" viewBox="0 0 842.4 595.44" width="842.4pt" xmlns="http://www.w3.org/2000/svg" xmlns:xlink="http://www.w3.org/1999/xlink">
 <metadata>
  <rdf:RDF xmlns:cc="http://creativecommons.org/ns#" xmlns:dc="http://purl.org/dc/elements/1.1/" xmlns:rdf="http://www.w3.org/1999/02/22-rdf-syntax-ns#">
   <cc:Work>
    <dc:type rdf:resource="http://purl.org/dc/dcmitype/StillImage"/>
    <dc:date>2021-06-04T22:03:10.037359</dc:date>
    <dc:format>image/svg+xml</dc:format>
    <dc:creator>
     <cc:Agent>
      <dc:title>Matplotlib v3.4.1, https://matplotlib.org/</dc:title>
     </cc:Agent>
    </dc:creator>
   </cc:Work>
  </rdf:RDF>
 </metadata>
 <defs>
  <style type="text/css">*{stroke-linecap:butt;stroke-linejoin:round;}</style>
 </defs>
 <g id="figure_1">
  <g id="patch_1">
   <path d="M 0 595.44 
L 842.4 595.44 
L 842.4 0 
L 0 0 
z
" style="fill:#ffffff;"/>
  </g>
  <g id="axes_1">
   <g id="patch_2">
    <path d="M 105.3 529.9416 
L 758.16 529.9416 
L 758.16 71.4528 
L 105.3 71.4528 
z
" style="fill:#ffffff;"/>
   </g>
   <g id="matplotlib.axis_1">
    <g id="xtick_1">
     <g id="text_1">
      <!-- 0 -->
      <g style="fill:#262626;" transform="translate(131.916939 547.315194)scale(0.11 -0.11)">
       <defs>
        <path d="M 266 2259 
Q 266 3072 433 3567 
Q 600 4063 929 4331 
Q 1259 4600 1759 4600 
Q 2128 4600 2406 4451 
Q 2684 4303 2865 4023 
Q 3047 3744 3150 3342 
Q 3253 2941 3253 2259 
Q 3253 1453 3087 958 
Q 2922 463 2592 192 
Q 2263 -78 1759 -78 
Q 1097 -78 719 397 
Q 266 969 266 2259 
z
M 844 2259 
Q 844 1131 1108 757 
Q 1372 384 1759 384 
Q 2147 384 2411 759 
Q 2675 1134 2675 2259 
Q 2675 3391 2411 3762 
Q 2147 4134 1753 4134 
Q 1366 4134 1134 3806 
Q 844 3388 844 2259 
z
" id="ArialMT-30" transform="scale(0.015625)"/>
       </defs>
       <use xlink:href="#ArialMT-30"/>
      </g>
     </g>
    </g>
    <g id="xtick_2">
     <g id="text_2">
      <!-- 25 -->
      <g style="fill:#262626;" transform="translate(201.950676 547.315194)scale(0.11 -0.11)">
       <defs>
        <path d="M 3222 541 
L 3222 0 
L 194 0 
Q 188 203 259 391 
Q 375 700 629 1000 
Q 884 1300 1366 1694 
Q 2113 2306 2375 2664 
Q 2638 3022 2638 3341 
Q 2638 3675 2398 3904 
Q 2159 4134 1775 4134 
Q 1369 4134 1125 3890 
Q 881 3647 878 3216 
L 300 3275 
Q 359 3922 746 4261 
Q 1134 4600 1788 4600 
Q 2447 4600 2831 4234 
Q 3216 3869 3216 3328 
Q 3216 3053 3103 2787 
Q 2991 2522 2730 2228 
Q 2469 1934 1863 1422 
Q 1356 997 1212 845 
Q 1069 694 975 541 
L 3222 541 
z
" id="ArialMT-32" transform="scale(0.015625)"/>
        <path d="M 266 1200 
L 856 1250 
Q 922 819 1161 601 
Q 1400 384 1738 384 
Q 2144 384 2425 690 
Q 2706 997 2706 1503 
Q 2706 1984 2436 2262 
Q 2166 2541 1728 2541 
Q 1456 2541 1237 2417 
Q 1019 2294 894 2097 
L 366 2166 
L 809 4519 
L 3088 4519 
L 3088 3981 
L 1259 3981 
L 1013 2750 
Q 1425 3038 1878 3038 
Q 2478 3038 2890 2622 
Q 3303 2206 3303 1553 
Q 3303 931 2941 478 
Q 2500 -78 1738 -78 
Q 1113 -78 717 272 
Q 322 622 266 1200 
z
" id="ArialMT-35" transform="scale(0.015625)"/>
       </defs>
       <use xlink:href="#ArialMT-32"/>
       <use x="55.615234" xlink:href="#ArialMT-35"/>
      </g>
     </g>
    </g>
    <g id="xtick_3">
     <g id="text_3">
      <!-- 50 -->
      <g style="fill:#262626;" transform="translate(275.042928 547.315194)scale(0.11 -0.11)">
       <use xlink:href="#ArialMT-35"/>
       <use x="55.615234" xlink:href="#ArialMT-30"/>
      </g>
     </g>
    </g>
    <g id="xtick_4">
     <g id="text_4">
      <!-- 75 -->
      <g style="fill:#262626;" transform="translate(348.135181 547.315194)scale(0.11 -0.11)">
       <defs>
        <path d="M 303 3981 
L 303 4522 
L 3269 4522 
L 3269 4084 
Q 2831 3619 2401 2847 
Q 1972 2075 1738 1259 
Q 1569 684 1522 0 
L 944 0 
Q 953 541 1156 1306 
Q 1359 2072 1739 2783 
Q 2119 3494 2547 3981 
L 303 3981 
z
" id="ArialMT-37" transform="scale(0.015625)"/>
       </defs>
       <use xlink:href="#ArialMT-37"/>
       <use x="55.615234" xlink:href="#ArialMT-35"/>
      </g>
     </g>
    </g>
    <g id="xtick_5">
     <g id="text_5">
      <!-- 100 -->
      <g style="fill:#262626;" transform="translate(418.168918 547.315194)scale(0.11 -0.11)">
       <defs>
        <path d="M 2384 0 
L 1822 0 
L 1822 3584 
Q 1619 3391 1289 3197 
Q 959 3003 697 2906 
L 697 3450 
Q 1169 3672 1522 3987 
Q 1875 4303 2022 4600 
L 2384 4600 
L 2384 0 
z
" id="ArialMT-31" transform="scale(0.015625)"/>
       </defs>
       <use xlink:href="#ArialMT-31"/>
       <use x="55.615234" xlink:href="#ArialMT-30"/>
       <use x="111.230469" xlink:href="#ArialMT-30"/>
      </g>
     </g>
    </g>
    <g id="xtick_6">
     <g id="text_6">
      <!-- 125 -->
      <g style="fill:#262626;" transform="translate(491.261171 547.315194)scale(0.11 -0.11)">
       <use xlink:href="#ArialMT-31"/>
       <use x="55.615234" xlink:href="#ArialMT-32"/>
       <use x="111.230469" xlink:href="#ArialMT-35"/>
      </g>
     </g>
    </g>
    <g id="xtick_7">
     <g id="text_7">
      <!-- 150 -->
      <g style="fill:#262626;" transform="translate(564.353423 547.315194)scale(0.11 -0.11)">
       <use xlink:href="#ArialMT-31"/>
       <use x="55.615234" xlink:href="#ArialMT-35"/>
       <use x="111.230469" xlink:href="#ArialMT-30"/>
      </g>
     </g>
    </g>
    <g id="xtick_8">
     <g id="text_8">
      <!-- 175 -->
      <g style="fill:#262626;" transform="translate(637.445676 547.315194)scale(0.11 -0.11)">
       <use xlink:href="#ArialMT-31"/>
       <use x="55.615234" xlink:href="#ArialMT-37"/>
       <use x="111.230469" xlink:href="#ArialMT-35"/>
      </g>
     </g>
    </g>
    <g id="xtick_9">
     <g id="text_9">
      <!-- 200 -->
      <g style="fill:#262626;" transform="translate(710.537928 547.315194)scale(0.11 -0.11)">
       <use xlink:href="#ArialMT-32"/>
       <use x="55.615234" xlink:href="#ArialMT-30"/>
       <use x="111.230469" xlink:href="#ArialMT-30"/>
      </g>
     </g>
    </g>
   </g>
   <g id="matplotlib.axis_2">
    <g id="ytick_1">
     <g id="text_10">
      <!-- −25 -->
      <g style="fill:#262626;" transform="translate(77.14125 533.878397)scale(0.11 -0.11)">
       <defs>
        <path d="M 3381 1997 
L 356 1997 
L 356 2522 
L 3381 2522 
L 3381 1997 
z
" id="ArialMT-2212" transform="scale(0.015625)"/>
       </defs>
       <use xlink:href="#ArialMT-2212"/>
       <use x="58.398438" xlink:href="#ArialMT-32"/>
       <use x="114.013672" xlink:href="#ArialMT-35"/>
      </g>
     </g>
    </g>
    <g id="ytick_2">
     <g id="text_11">
      <!-- −20 -->
      <g style="fill:#262626;" transform="translate(77.14125 442.180637)scale(0.11 -0.11)">
       <use xlink:href="#ArialMT-2212"/>
       <use x="58.398438" xlink:href="#ArialMT-32"/>
       <use x="114.013672" xlink:href="#ArialMT-30"/>
      </g>
     </g>
    </g>
    <g id="ytick_3">
     <g id="text_12">
      <!-- −15 -->
      <g style="fill:#262626;" transform="translate(77.14125 350.482877)scale(0.11 -0.11)">
       <use xlink:href="#ArialMT-2212"/>
       <use x="58.398438" xlink:href="#ArialMT-31"/>
       <use x="114.013672" xlink:href="#ArialMT-35"/>
      </g>
     </g>
    </g>
    <g id="ytick_4">
     <g id="text_13">
      <!-- −10 -->
      <g style="fill:#262626;" transform="translate(77.14125 258.785117)scale(0.11 -0.11)">
       <use xlink:href="#ArialMT-2212"/>
       <use x="58.398438" xlink:href="#ArialMT-31"/>
       <use x="114.013672" xlink:href="#ArialMT-30"/>
      </g>
     </g>
    </g>
    <g id="ytick_5">
     <g id="text_14">
      <!-- −5 -->
      <g style="fill:#262626;" transform="translate(83.258281 167.087357)scale(0.11 -0.11)">
       <use xlink:href="#ArialMT-2212"/>
       <use x="58.398438" xlink:href="#ArialMT-35"/>
      </g>
     </g>
    </g>
    <g id="ytick_6">
     <g id="text_15">
      <!-- 0 -->
      <g style="fill:#262626;" transform="translate(89.682969 75.389597)scale(0.11 -0.11)">
       <use xlink:href="#ArialMT-30"/>
      </g>
     </g>
    </g>
   </g>
   <g id="line2d_1">
    <path clip-path="url(#p367f70128e)" d="M 134.975455 329.753462 
L 137.899145 328.827142 
L 140.822835 333.230414 
L 143.746525 332.580749 
L 146.670215 333.669412 
L 149.593905 335.85968 
L 152.517595 338.814836 
L 155.441285 342.441099 
L 158.364975 346.74585 
L 161.288665 349.666254 
L 167.136046 354.42891 
L 170.059736 363.395295 
L 172.983426 370.984416 
L 175.907116 380.409615 
L 178.830806 400.468955 
L 181.754496 435.182852 
L 184.678186 419.471202 
L 187.601876 362.596511 
L 190.525567 385.669686 
L 193.449257 339.866507 
L 196.372947 336.880674 
L 199.296637 411.491617 
L 202.220327 373.56352 
L 205.144017 316.009415 
L 208.067707 330.447552 
L 210.991397 439.560064 
L 213.915087 382.778945 
L 216.838777 379.916538 
L 219.762468 332.651916 
L 222.686158 71.459524 
L 225.609848 71.473121 
L 228.533538 283.904233 
L 231.457228 382.634688 
L 234.380918 284.479128 
L 237.304608 338.144498 
L 240.228298 345.66205 
L 243.151988 360.808617 
L 246.075678 350.881089 
L 248.999369 117.716594 
L 251.923059 71.457471 
L 254.846749 252.27852 
L 257.770439 363.845469 
L 260.694129 313.586828 
L 263.617819 408.05547 
L 266.541509 376.143115 
L 269.465199 391.193295 
L 272.388889 388.433904 
L 275.312579 381.313112 
L 278.23627 378.299137 
L 281.15996 367.337479 
L 284.08365 335.295593 
L 287.00734 365.953184 
L 289.93103 444.768889 
L 292.85472 383.012331 
L 295.77841 364.96731 
L 298.7021 390.586253 
L 301.62579 362.339619 
L 304.549481 345.786124 
L 307.473171 346.482364 
L 310.396861 431.387146 
L 313.320551 346.524655 
L 316.244241 366.800048 
L 319.167931 403.054041 
L 322.091621 300.804466 
L 325.015311 311.793845 
L 327.939001 363.378785 
L 330.862691 400.42628 
L 333.786382 340.586691 
L 336.710072 129.181084 
L 339.633762 71.454171 
L 342.557452 342.958784 
L 345.481142 352.614239 
L 348.404832 322.74548 
L 351.328522 86.936782 
L 354.252212 71.492922 
L 357.175902 306.325626 
L 360.099592 329.306402 
L 363.023283 339.69166 
L 365.946973 266.934494 
L 368.870663 367.445532 
L 374.718043 464.842606 
L 377.641733 441.767787 
L 380.565423 435.664106 
L 383.489113 349.629245 
L 386.412803 299.938625 
L 389.336494 378.565089 
L 392.260184 419.124201 
L 395.183874 427.70502 
L 401.031254 214.123535 
L 403.954944 289.59237 
L 406.878634 320.789491 
L 409.802324 288.56814 
L 412.726014 259.467961 
L 415.649704 348.271412 
L 418.573395 365.813369 
L 421.497085 374.833187 
L 424.420775 447.958218 
L 427.344465 420.198154 
L 430.268155 460.047069 
L 433.191845 394.742707 
L 436.115535 265.440397 
L 439.039225 151.10763 
L 441.962915 71.453134 
L 444.886605 194.953804 
L 447.810296 409.923852 
L 450.733986 333.799712 
L 453.657676 270.179949 
L 456.581366 353.314992 
L 459.505056 366.306516 
L 462.428746 309.879062 
L 465.352436 241.991573 
L 468.276126 71.695834 
L 471.199816 196.898364 
L 474.123506 356.315884 
L 477.047197 386.951875 
L 479.970887 321.865858 
L 482.894577 395.682967 
L 485.818267 339.893511 
L 488.741957 374.633591 
L 491.665647 476.74148 
L 494.589337 474.745911 
L 497.513027 501.084251 
L 500.436717 429.233223 
L 503.360408 280.368935 
L 506.284098 313.874066 
L 509.207788 469.098018 
L 512.131478 479.832795 
L 515.055168 503.289525 
L 517.978858 364.963357 
L 520.902548 377.486693 
L 523.826238 375.588578 
L 526.749928 406.880599 
L 529.673618 540.390452 
L 532.597309 497.771932 
L 535.520999 390.53102 
L 538.444689 347.632346 
L 541.368379 386.919029 
L 544.292069 71.491619 
L 547.215759 79.685367 
L 550.139449 274.828203 
L 553.063139 238.189711 
L 555.986829 369.014697 
L 558.910519 324.730976 
L 561.83421 296.767836 
L 564.7579 359.996156 
L 567.68159 290.607522 
L 570.60528 306.822779 
L 573.52897 267.29435 
L 576.45266 275.252772 
L 579.37635 329.731862 
L 582.30004 375.021903 
L 585.22373 281.883828 
L 588.147421 262.78229 
L 591.071111 181.736161 
L 593.994801 71.455021 
L 596.918491 180.429844 
L 599.842181 365.279226 
L 602.765871 351.4627 
L 605.689561 317.766876 
L 608.613251 349.31565 
L 611.536941 242.961549 
L 614.460631 71.477191 
L 617.384322 95.59305 
L 620.308012 297.978438 
L 623.231702 384.761537 
L 626.155392 430.100095 
L 629.079082 422.302266 
L 632.002772 415.848996 
L 634.926462 362.10618 
L 637.850152 380.678401 
L 640.773842 276.786239 
L 643.697532 203.195274 
L 646.621223 269.618748 
L 649.544913 374.694841 
L 652.468603 344.401356 
L 655.392293 430.547383 
L 658.315983 391.909404 
L 661.239673 374.703236 
L 664.163363 344.203073 
L 667.087053 420.472957 
L 670.010743 381.081335 
L 672.934433 380.356341 
L 675.858124 434.96811 
L 678.781814 331.598566 
L 681.705504 329.869333 
L 684.629194 440.428581 
L 687.552884 390.306344 
L 690.476574 459.061719 
L 693.400264 389.110695 
L 696.323954 396.591256 
L 699.247644 397.378269 
L 702.171335 370.153923 
L 705.095025 338.812929 
L 708.018715 329.529818 
L 710.942405 329.759741 
L 713.866095 329.414839 
L 716.789785 330.699232 
L 719.713475 328.921448 
L 722.637165 329.227592 
L 725.560855 328.52467 
L 728.484545 334.816631 
L 728.484545 334.816631 
" style="fill:none;stroke:#4c72b0;stroke-linecap:round;stroke-width:1.5;"/>
   </g>
   <g id="line2d_2">
    <path clip-path="url(#p367f70128e)" d="M 134.975455 318.846951 
L 137.899145 319.676622 
L 140.822835 321.032601 
L 143.746525 320.245728 
L 146.670215 322.060871 
L 152.517595 323.517767 
L 155.441285 326.59656 
L 158.364975 328.653309 
L 161.288665 331.703471 
L 164.212356 335.01063 
L 167.136046 337.102936 
L 170.059736 346.186451 
L 172.983426 353.33911 
L 175.907116 363.029195 
L 178.830806 387.93502 
L 181.754496 417.525933 
L 184.678186 406.089878 
L 187.601876 323.36891 
L 190.525567 368.933054 
L 193.449257 321.357267 
L 196.372947 326.020913 
L 199.296637 391.554183 
L 202.220327 357.713822 
L 205.144017 332.527003 
L 208.067707 337.57457 
L 210.991397 461.278222 
L 213.915087 379.239992 
L 216.838777 376.357646 
L 219.762468 307.78233 
L 222.686158 71.462622 
L 225.609848 71.540784 
L 228.533538 243.480126 
L 231.457228 357.147409 
L 234.380918 247.117495 
L 237.304608 316.392497 
L 240.228298 322.034793 
L 243.151988 332.220771 
L 246.075678 335.365151 
L 248.999369 141.064702 
L 251.923059 71.457417 
L 254.846749 259.825753 
L 257.770439 359.560237 
L 260.694129 326.625471 
L 263.617819 415.977372 
L 266.541509 394.815291 
L 269.465199 404.233074 
L 272.388889 425.025453 
L 275.312579 417.718078 
L 278.23627 403.63894 
L 281.15996 391.728313 
L 284.08365 348.836583 
L 287.00734 368.999096 
L 289.93103 468.333567 
L 292.85472 415.83322 
L 295.77841 339.638385 
L 298.7021 379.933993 
L 301.62579 367.664961 
L 304.549481 349.854201 
L 307.473171 360.855928 
L 310.396861 413.632598 
L 313.320551 365.644696 
L 316.244241 391.019585 
L 319.167931 429.199187 
L 322.091621 376.197963 
L 325.015311 363.5696 
L 327.939001 394.991939 
L 330.862691 394.514358 
L 333.786382 324.446694 
L 336.710072 182.49533 
L 339.633762 71.45311 
L 342.557452 304.460917 
L 345.481142 330.860175 
L 348.404832 349.386817 
L 351.328522 260.99242 
L 354.252212 291.26852 
L 357.175902 175.803925 
L 360.099592 149.407754 
L 363.023283 142.196167 
L 365.946973 196.19943 
L 368.870663 237.89037 
L 371.794353 265.505809 
L 374.718043 334.864413 
L 377.641733 350.596125 
L 380.565423 381.691105 
L 383.489113 266.933532 
L 386.412803 292.916232 
L 389.336494 375.471955 
L 392.260184 436.466195 
L 395.183874 438.39135 
L 398.107564 302.041251 
L 401.031254 179.152054 
L 403.954944 297.286605 
L 406.878634 323.058813 
L 409.802324 337.635103 
L 412.726014 299.895775 
L 415.649704 321.873151 
L 418.573395 354.01125 
L 421.497085 359.216366 
L 424.420775 407.676707 
L 427.344465 368.115258 
L 430.268155 401.231622 
L 433.191845 367.243943 
L 436.115535 259.952817 
L 439.039225 207.733281 
L 441.962915 71.453023 
L 444.886605 147.266983 
L 447.810296 355.534065 
L 450.733986 371.675934 
L 453.657676 267.76873 
L 456.581366 339.814177 
L 459.505056 331.617018 
L 462.428746 282.403104 
L 465.352436 242.479106 
L 468.276126 71.720661 
L 471.199816 197.101781 
L 474.123506 313.552111 
L 477.047197 392.925745 
L 479.970887 306.879219 
L 482.894577 376.626887 
L 485.818267 344.525675 
L 488.741957 371.689576 
L 491.665647 476.397837 
L 494.589337 453.277965 
L 497.513027 499.354809 
L 500.436717 427.688929 
L 503.360408 275.829765 
L 506.284098 318.919972 
L 509.207788 441.032999 
L 512.131478 467.916011 
L 515.055168 513.818411 
L 517.978858 366.007893 
L 520.902548 374.242341 
L 523.826238 384.413347 
L 526.749928 415.979086 
L 529.673618 547.239065 
L 532.597309 476.790382 
L 535.520999 361.572019 
L 538.444689 328.396329 
L 541.368379 344.128565 
L 544.292069 71.455533 
L 547.215759 111.575179 
L 550.139449 284.503369 
L 553.063139 298.372767 
L 555.986829 314.895427 
L 558.910519 172.584076 
L 561.83421 87.999795 
L 564.7579 149.823298 
L 567.68159 199.905728 
L 570.60528 410.274281 
L 573.52897 205.135899 
L 576.45266 227.692779 
L 579.37635 259.316777 
L 582.30004 260.532749 
L 585.22373 292.9276 
L 588.147421 242.154579 
L 591.071111 211.643826 
L 593.994801 71.455452 
L 596.918491 105.040044 
L 599.842181 350.45248 
L 602.765871 318.356078 
L 605.689561 303.638137 
L 608.613251 407.475013 
L 611.536941 231.856631 
L 614.460631 71.520194 
L 617.384322 177.9253 
L 620.308012 318.420353 
L 623.231702 391.721562 
L 626.155392 441.165118 
L 629.079082 395.198251 
L 632.002772 415.516057 
L 634.926462 373.10308 
L 637.850152 352.063025 
L 640.773842 264.980918 
L 643.697532 171.240777 
L 646.621223 253.889905 
L 649.544913 378.255902 
L 652.468603 345.091685 
L 655.392293 436.544935 
L 658.315983 354.103457 
L 661.239673 367.334856 
L 664.163363 328.742403 
L 667.087053 407.233967 
L 670.010743 371.041958 
L 672.934433 371.363808 
L 675.858124 426.876521 
L 678.781814 349.312887 
L 681.705504 337.212913 
L 684.629194 447.335576 
L 687.552884 368.836999 
L 690.476574 437.710151 
L 693.400264 398.65703 
L 696.323954 395.988167 
L 699.247644 388.186526 
L 702.171335 365.390462 
L 705.095025 330.878731 
L 708.018715 325.4283 
L 710.942405 325.702228 
L 713.866095 323.29923 
L 716.789785 326.709335 
L 719.713475 324.998555 
L 722.637165 324.324142 
L 725.560855 326.002863 
L 728.484545 321.092015 
L 728.484545 321.092015 
" style="fill:none;stroke:#dd8452;stroke-dasharray:6,2.25;stroke-dashoffset:0;stroke-width:1.5;"/>
   </g>
   <g id="line2d_3">
    <path clip-path="url(#p367f70128e)" d="M 134.975455 318.9698 
L 137.899145 319.657716 
L 140.822835 322.95919 
L 143.746525 320.746448 
L 146.670215 326.781621 
L 149.593905 330.727583 
L 152.517595 332.014215 
L 155.441285 349.810598 
L 158.364975 351.925502 
L 161.288665 351.998085 
L 164.212356 352.699415 
L 167.136046 348.610245 
L 170.059736 343.257181 
L 172.983426 352.538892 
L 175.907116 360.28663 
L 178.830806 370.052481 
L 181.754496 401.706055 
L 184.678186 355.82293 
L 187.601876 351.800221 
L 190.525567 300.640777 
L 193.449257 256.512997 
L 196.372947 265.741347 
L 199.296637 338.031898 
L 202.220327 342.499061 
L 205.144017 306.409631 
L 208.067707 195.048259 
L 210.991397 355.484079 
L 213.915087 360.84323 
L 216.838777 263.024736 
L 219.762468 231.038678 
L 222.686158 71.483901 
L 225.609848 79.428888 
L 228.533538 229.622918 
L 231.457228 300.87077 
L 234.380918 233.545129 
L 237.304608 311.437924 
L 240.228298 344.503025 
L 243.151988 349.270194 
L 246.075678 325.972396 
L 248.999369 210.383482 
L 251.923059 71.557354 
L 254.846749 257.741474 
L 257.770439 345.581299 
L 260.694129 285.395584 
L 263.617819 381.671236 
L 266.541509 376.198698 
L 269.465199 409.166222 
L 272.388889 412.048148 
L 275.312579 349.763096 
L 278.23627 339.754169 
L 281.15996 287.169363 
L 284.08365 255.2055 
L 287.00734 268.173466 
L 289.93103 321.255668 
L 292.85472 314.250852 
L 295.77841 335.497183 
L 298.7021 390.891873 
L 301.62579 381.493818 
L 304.549481 361.353675 
L 307.473171 372.042349 
L 310.396861 446.12618 
L 313.320551 417.658367 
L 316.244241 410.864812 
L 319.167931 485.227818 
L 322.091621 404.063177 
L 325.015311 405.133247 
L 327.939001 434.16798 
L 330.862691 421.672243 
L 333.786382 352.355632 
L 336.710072 238.158823 
L 339.633762 71.45306 
L 342.557452 334.974006 
L 345.481142 374.446099 
L 348.404832 374.710232 
L 351.328522 75.939209 
L 354.252212 71.926604 
L 357.175902 307.949779 
L 360.099592 143.2787 
L 363.023283 131.93155 
L 365.946973 132.722958 
L 368.870663 260.468176 
L 371.794353 206.348802 
L 374.718043 317.174806 
L 377.641733 316.882129 
L 380.565423 292.850732 
L 383.489113 232.028977 
L 386.412803 246.272416 
L 389.336494 309.257189 
L 392.260184 377.533147 
L 395.183874 404.053557 
L 398.107564 322.085707 
L 401.031254 158.467282 
L 403.954944 309.108401 
L 406.878634 293.040778 
L 409.802324 268.28395 
L 412.726014 233.895173 
L 415.649704 366.43017 
L 418.573395 433.257697 
L 421.497085 386.47265 
L 424.420775 413.09814 
L 427.344465 332.044105 
L 430.268155 336.129742 
L 433.191845 266.831758 
L 436.115535 156.648213 
L 439.039225 273.036969 
L 441.962915 71.521085 
L 444.886605 192.719444 
L 447.810296 346.001705 
L 450.733986 278.502319 
L 453.657676 227.511111 
L 456.581366 366.46641 
L 459.505056 369.98497 
L 462.428746 283.241783 
L 465.352436 277.065641 
L 468.276126 74.641711 
L 471.199816 108.964702 
L 474.123506 188.584748 
L 477.047197 298.482341 
L 479.970887 273.355426 
L 482.894577 341.514236 
L 485.818267 307.441154 
L 488.741957 369.912736 
L 491.665647 404.746894 
L 494.589337 396.502127 
L 497.513027 422.264768 
L 500.436717 345.542051 
L 503.360408 262.755338 
L 506.284098 282.477944 
L 509.207788 344.842103 
L 512.131478 326.949665 
L 515.055168 296.343179 
L 517.978858 275.164972 
L 520.902548 165.026105 
L 523.826238 155.307205 
L 526.749928 354.298872 
L 529.673618 428.823363 
L 532.597309 338.416135 
L 535.520999 350.791226 
L 538.444689 340.408941 
L 541.368379 273.660416 
L 544.292069 202.65877 
L 547.215759 222.344786 
L 550.139449 326.210679 
L 553.063139 298.643302 
L 555.986829 232.443979 
L 558.910519 184.107756 
L 561.83421 99.103602 
L 564.7579 169.076779 
L 567.68159 314.995539 
L 570.60528 342.775717 
L 573.52897 276.308815 
L 576.45266 314.344651 
L 579.37635 324.509395 
L 582.30004 358.8577 
L 585.22373 330.929995 
L 588.147421 211.655177 
L 591.071111 168.958346 
L 593.994801 118.579571 
L 596.918491 177.695718 
L 599.842181 311.704296 
L 602.765871 285.684606 
L 605.689561 343.753651 
L 608.613251 326.875122 
L 611.536941 219.580638 
L 614.460631 71.455688 
L 617.384322 140.445593 
L 620.308012 298.43755 
L 623.231702 402.383756 
L 626.155392 455.20221 
L 629.079082 418.897951 
L 632.002772 440.410531 
L 634.926462 346.289765 
L 637.850152 318.551825 
L 640.773842 271.785947 
L 643.697532 229.002567 
L 646.621223 271.789987 
L 649.544913 294.443035 
L 652.468603 198.861665 
L 655.392293 394.715703 
L 658.315983 283.506633 
L 661.239673 163.128628 
L 667.087053 231.059246 
L 670.010743 180.283593 
L 672.934433 254.260517 
L 675.858124 390.981981 
L 678.781814 341.687369 
L 681.705504 240.187571 
L 684.629194 372.661388 
L 687.552884 404.3618 
L 690.476574 381.096306 
L 693.400264 336.766919 
L 696.323954 369.638529 
L 699.247644 370.43782 
L 702.171335 368.426509 
L 705.095025 332.725007 
L 708.018715 333.344186 
L 710.942405 334.665535 
L 713.866095 331.703068 
L 716.789785 336.781418 
L 719.713475 333.24521 
L 722.637165 334.936647 
L 725.560855 336.069472 
L 728.484545 332.62848 
L 728.484545 332.62848 
" style="fill:none;stroke:#55a868;stroke-dasharray:1.5,1.5;stroke-dashoffset:0;stroke-width:1.5;"/>
   </g>
   <g id="line2d_4">
    <path clip-path="url(#p367f70128e)" d="M 134.975455 318.265847 
L 137.899145 319.050849 
L 140.822835 320.518187 
L 143.746525 319.592093 
L 146.670215 321.510672 
L 152.517595 323.152122 
L 155.441285 326.428061 
L 158.364975 328.491807 
L 164.212356 335.029973 
L 167.136046 337.254819 
L 170.059736 346.62454 
L 172.983426 353.642876 
L 175.907116 363.365877 
L 178.830806 388.807874 
L 181.754496 419.009991 
L 184.678186 407.058507 
L 187.601876 323.458704 
L 190.525567 368.935187 
L 193.449257 322.41882 
L 196.372947 324.78425 
L 199.296637 393.271837 
L 202.220327 359.370628 
L 205.144017 327.632473 
L 208.067707 337.832127 
L 210.991397 455.765946 
L 213.915087 380.66322 
L 216.838777 370.776705 
L 219.762468 306.967281 
L 222.686158 71.461908 
L 225.609848 71.557817 
L 228.533538 246.534205 
L 231.457228 360.682427 
L 234.380918 249.230737 
L 237.304608 318.633976 
L 240.228298 325.550328 
L 243.151988 335.909946 
L 246.075678 337.464628 
L 248.999369 140.302652 
L 251.923059 71.457187 
L 254.846749 254.750446 
L 257.770439 356.090893 
L 260.694129 323.949105 
L 263.617819 415.456801 
L 266.541509 389.613742 
L 269.465199 400.759078 
L 272.388889 416.663573 
L 275.312579 410.273337 
L 278.23627 401.221303 
L 281.15996 384.432061 
L 284.08365 347.59637 
L 287.00734 382.933032 
L 289.93103 474.043969 
L 292.85472 408.472501 
L 295.77841 339.993082 
L 298.7021 379.258391 
L 301.62579 366.687378 
L 304.549481 349.848954 
L 307.473171 358.876834 
L 310.396861 413.758141 
L 313.320551 363.369113 
L 316.244241 387.717025 
L 319.167931 431.298367 
L 322.091621 395.317917 
L 325.015311 367.277699 
L 327.939001 388.494104 
L 330.862691 402.522766 
L 333.786382 329.961418 
L 339.633762 71.452894 
L 342.557452 308.458282 
L 345.481142 324.508084 
L 348.404832 288.897109 
L 351.328522 308.296622 
L 354.252212 194.491553 
L 357.175902 277.226653 
L 360.099592 186.681744 
L 363.023283 286.610349 
L 365.946973 222.1992 
L 368.870663 286.160577 
L 371.794353 311.32382 
L 374.718043 360.230102 
L 377.641733 350.628289 
L 380.565423 386.647339 
L 383.489113 271.820472 
L 386.412803 295.379308 
L 389.336494 377.70168 
L 392.260184 437.069844 
L 395.183874 438.222992 
L 398.107564 302.844372 
L 401.031254 181.552105 
L 403.954944 294.666085 
L 406.878634 308.255329 
L 409.802324 332.273923 
L 412.726014 299.104687 
L 415.649704 323.496692 
L 418.573395 355.318746 
L 421.497085 363.621615 
L 424.420775 416.236434 
L 427.344465 375.056988 
L 430.268155 402.768045 
L 433.191845 365.769714 
L 436.115535 259.487672 
L 439.039225 207.847971 
L 441.962915 71.453023 
L 444.886605 149.296002 
L 447.810296 358.397329 
L 450.733986 370.810146 
L 453.657676 276.757503 
L 456.581366 352.029917 
L 459.505056 333.023858 
L 462.428746 286.309767 
L 465.352436 249.029918 
L 468.276126 71.740427 
L 471.199816 196.777421 
L 474.123506 315.565887 
L 477.047197 392.182457 
L 479.970887 307.824201 
L 482.894577 378.00597 
L 485.818267 345.570035 
L 488.741957 370.192016 
L 491.665647 476.973257 
L 494.589337 454.271079 
L 497.513027 500.620207 
L 500.436717 429.478152 
L 503.360408 275.413032 
L 506.284098 312.027073 
L 509.207788 439.025047 
L 512.131478 464.246863 
L 515.055168 505.752076 
L 517.978858 352.300487 
L 523.826238 383.634309 
L 526.749928 415.948934 
L 529.673618 538.967678 
L 532.597309 477.138992 
L 535.520999 368.951943 
L 538.444689 336.732061 
L 541.368379 341.01509 
L 544.292069 71.459008 
L 547.215759 86.889517 
L 550.139449 261.32842 
L 553.063139 249.048335 
L 555.986829 311.729972 
L 558.910519 348.665758 
L 561.83421 320.834965 
L 564.7579 320.598763 
L 567.68159 166.856438 
L 570.60528 351.725994 
L 573.52897 279.134283 
L 576.45266 265.798696 
L 579.37635 312.363126 
L 582.30004 339.9347 
L 585.22373 321.908568 
L 588.147421 246.106296 
L 591.071111 178.385627 
L 593.994801 71.454208 
L 596.918491 159.18528 
L 599.842181 368.350428 
L 602.765871 346.548686 
L 605.689561 315.428503 
L 608.613251 392.561989 
L 611.536941 214.026693 
L 614.460631 71.471011 
L 617.384322 181.75484 
L 620.308012 319.220799 
L 623.231702 393.800453 
L 626.155392 443.780532 
L 629.079082 397.859453 
L 632.002772 417.494102 
L 634.926462 376.032753 
L 637.850152 353.967507 
L 640.773842 266.945251 
L 643.697532 169.394161 
L 646.621223 255.297235 
L 649.544913 374.494791 
L 652.468603 343.387288 
L 655.392293 436.76342 
L 658.315983 353.773054 
L 661.239673 365.191391 
L 664.163363 328.378559 
L 667.087053 406.058606 
L 670.010743 370.21038 
L 672.934433 369.685472 
L 675.858124 426.443609 
L 678.781814 349.124222 
L 681.705504 336.353299 
L 684.629194 448.447168 
L 687.552884 368.348714 
L 690.476574 438.186193 
L 693.400264 400.045768 
L 696.323954 396.233726 
L 699.247644 391.261401 
L 702.171335 365.529647 
L 705.095025 331.718285 
L 708.018715 327.267649 
L 710.942405 327.515867 
L 713.866095 325.913594 
L 716.789785 328.583891 
L 719.713475 327.171874 
L 722.637165 326.638168 
L 725.560855 328.197958 
L 728.484545 323.242073 
L 728.484545 323.242073 
" style="fill:none;stroke:#c44e52;stroke-dasharray:4.5,1.875,2.25,1.875;stroke-dashoffset:0;stroke-width:1.5;"/>
   </g>
   <g id="line2d_5">
    <path clip-path="url(#p367f70128e)" d="M 134.975455 316.844228 
L 137.899145 317.908247 
L 140.822835 319.409376 
L 143.746525 318.800253 
L 146.670215 320.827951 
L 149.593905 321.74815 
L 152.517595 322.793823 
L 155.441285 325.696649 
L 158.364975 327.410612 
L 161.288665 331.214259 
L 164.212356 334.097899 
L 167.136046 336.472108 
L 170.059736 347.330575 
L 172.983426 354.077519 
L 175.907116 361.788685 
L 178.830806 385.285326 
L 181.754496 421.097698 
L 184.678186 399.591029 
L 187.601876 346.055102 
L 190.525567 370.953109 
L 193.449257 327.548678 
L 196.372947 328.450146 
L 199.296637 403.806144 
L 202.220327 365.871786 
L 205.144017 314.880333 
L 208.067707 332.06985 
L 210.991397 453.682822 
L 213.915087 371.754954 
L 216.838777 374.823322 
L 219.762468 314.994875 
L 222.686158 71.464038 
L 225.609848 71.484853 
L 228.533538 259.480134 
L 231.457228 370.233327 
L 234.380918 257.266604 
L 237.304608 321.393909 
L 240.228298 327.852706 
L 243.151988 340.013563 
L 246.075678 340.410095 
L 248.999369 133.945672 
L 251.923059 71.456956 
L 254.846749 265.298903 
L 257.770439 369.171337 
L 260.694129 323.1474 
L 263.617819 413.630884 
L 266.541509 392.175251 
L 269.465199 406.048147 
L 272.388889 421.866592 
L 275.312579 413.175271 
L 278.23627 405.665432 
L 281.15996 395.167538 
L 284.08365 356.458952 
L 287.00734 382.539648 
L 289.93103 473.522033 
L 292.85472 409.925182 
L 295.77841 342.521413 
L 298.7021 377.91016 
L 301.62579 361.342394 
L 304.549481 346.133125 
L 307.473171 358.417145 
L 310.396861 426.670874 
L 313.320551 371.794481 
L 316.244241 386.42032 
L 319.167931 435.080151 
L 322.091621 356.760269 
L 325.015311 355.242805 
L 327.939001 302.53111 
L 330.862691 349.925035 
L 333.786382 311.475755 
L 336.710072 207.672643 
L 339.633762 71.453528 
L 342.557452 284.468389 
L 345.481142 355.67458 
L 348.404832 307.971467 
L 351.328522 109.17184 
L 354.252212 71.454389 
L 357.175902 325.133262 
L 360.099592 333.978949 
L 363.023283 374.050091 
L 365.946973 285.447424 
L 368.870663 350.237319 
L 371.794353 360.143929 
L 374.718043 412.088934 
L 377.641733 420.352136 
L 380.565423 436.657256 
L 383.489113 330.433979 
L 386.412803 309.211855 
L 389.336494 387.6478 
L 392.260184 440.744554 
L 395.183874 437.836044 
L 398.107564 305.718008 
L 401.031254 219.070054 
L 403.954944 326.472398 
L 406.878634 333.158128 
L 409.802324 341.283858 
L 412.726014 300.931618 
L 415.649704 367.757973 
L 418.573395 364.768607 
L 421.497085 374.030222 
L 424.420775 417.130835 
L 427.344465 389.437338 
L 430.268155 412.813578 
L 433.191845 377.52671 
L 436.115535 260.064613 
L 439.039225 223.486863 
L 441.962915 71.452966 
L 444.886605 154.019052 
L 447.810296 367.788196 
L 450.733986 378.564739 
L 453.657676 264.298145 
L 456.581366 345.52332 
L 459.505056 320.717974 
L 462.428746 281.805035 
L 465.352436 227.955391 
L 468.276126 71.556328 
L 471.199816 215.043139 
L 474.123506 332.696515 
L 477.047197 398.349697 
L 479.970887 313.37443 
L 482.894577 379.432206 
L 485.818267 352.139282 
L 488.741957 87.530602 
L 491.665647 266.69852 
L 494.589337 229.391106 
L 497.513027 344.373705 
L 500.436717 298.336475 
L 503.360408 270.170749 
L 506.284098 335.488245 
L 509.207788 265.763699 
L 512.131478 358.872514 
L 515.055168 282.281287 
L 517.978858 310.350451 
L 520.902548 329.238646 
L 523.826238 353.335158 
L 526.749928 295.106639 
L 529.673618 265.319314 
L 532.597309 156.198082 
L 535.520999 71.456169 
L 538.444689 223.233102 
L 541.368379 314.887574 
L 544.292069 79.62555 
L 547.215759 90.458317 
L 550.139449 129.248516 
L 553.063139 173.259389 
L 555.986829 154.842007 
L 558.910519 126.825803 
L 561.83421 126.400333 
L 564.7579 174.519847 
L 567.68159 203.628676 
L 570.60528 259.887055 
L 573.52897 297.217957 
L 576.45266 291.532653 
L 579.37635 266.324095 
L 582.30004 279.768207 
L 585.22373 262.997434 
L 588.147421 222.066241 
L 591.071111 151.955176 
L 593.994801 71.460994 
L 596.918491 180.958986 
L 599.842181 345.879013 
L 602.765871 336.375179 
L 605.689561 311.828737 
L 608.613251 373.898628 
L 614.460631 71.472712 
L 617.384322 157.290916 
L 620.308012 302.698279 
L 623.231702 387.895948 
L 626.155392 441.078473 
L 629.079082 401.225501 
L 632.002772 418.406063 
L 634.926462 370.260367 
L 637.850152 347.774312 
L 640.773842 251.079496 
L 643.697532 159.952468 
L 646.621223 244.843591 
L 649.544913 362.024729 
L 652.468603 340.70153 
L 655.392293 422.098858 
L 658.315983 344.058955 
L 661.239673 348.013575 
L 664.163363 324.203793 
L 667.087053 401.938811 
L 670.010743 370.619575 
L 672.934433 368.08598 
L 675.858124 422.795168 
L 678.781814 337.73644 
L 681.705504 332.914965 
L 684.629194 440.079376 
L 687.552884 364.816494 
L 690.476574 421.293935 
L 693.400264 388.580959 
L 696.323954 390.779342 
L 699.247644 389.105973 
L 702.171335 355.826218 
L 705.095025 329.606075 
L 708.018715 325.382564 
L 710.942405 324.860506 
L 713.866095 322.784396 
L 716.789785 325.04597 
L 719.713475 324.746297 
L 722.637165 320.706518 
L 725.560855 323.772998 
L 728.484545 317.784174 
L 728.484545 317.784174 
" style="fill:none;stroke:#8172b3;stroke-dasharray:7.5,1.5,1.5,1.5;stroke-dashoffset:0;stroke-width:1.5;"/>
   </g>
   <g id="line2d_6"/>
   <g id="line2d_7"/>
   <g id="line2d_8"/>
   <g id="line2d_9"/>
   <g id="line2d_10"/>
   <g id="patch_3">
    <path d="M 105.3 529.9416 
L 105.3 71.4528 
" style="fill:none;stroke:#262626;stroke-linecap:square;stroke-linejoin:miter;stroke-width:1.25;"/>
   </g>
   <g id="patch_4">
    <path d="M 758.16 529.9416 
L 758.16 71.4528 
" style="fill:none;stroke:#262626;stroke-linecap:square;stroke-linejoin:miter;stroke-width:1.25;"/>
   </g>
   <g id="patch_5">
    <path d="M 105.3 529.9416 
L 758.16 529.9416 
" style="fill:none;stroke:#262626;stroke-linecap:square;stroke-linejoin:miter;stroke-width:1.25;"/>
   </g>
   <g id="patch_6">
    <path d="M 105.3 71.4528 
L 758.16 71.4528 
" style="fill:none;stroke:#262626;stroke-linecap:square;stroke-linejoin:miter;stroke-width:1.25;"/>
   </g>
   <g id="text_16">
    <!-- Activations for &gt;O&lt; -->
    <g style="fill:#262626;" transform="translate(380.7075 65.4528)scale(0.12 -0.12)">
     <defs>
      <path d="M -9 0 
L 1750 4581 
L 2403 4581 
L 4278 0 
L 3588 0 
L 3053 1388 
L 1138 1388 
L 634 0 
L -9 0 
z
M 1313 1881 
L 2866 1881 
L 2388 3150 
Q 2169 3728 2063 4100 
Q 1975 3659 1816 3225 
L 1313 1881 
z
" id="ArialMT-41" transform="scale(0.015625)"/>
      <path d="M 2588 1216 
L 3141 1144 
Q 3050 572 2676 248 
Q 2303 -75 1759 -75 
Q 1078 -75 664 370 
Q 250 816 250 1647 
Q 250 2184 428 2587 
Q 606 2991 970 3192 
Q 1334 3394 1763 3394 
Q 2303 3394 2647 3120 
Q 2991 2847 3088 2344 
L 2541 2259 
Q 2463 2594 2264 2762 
Q 2066 2931 1784 2931 
Q 1359 2931 1093 2626 
Q 828 2322 828 1663 
Q 828 994 1084 691 
Q 1341 388 1753 388 
Q 2084 388 2306 591 
Q 2528 794 2588 1216 
z
" id="ArialMT-63" transform="scale(0.015625)"/>
      <path d="M 1650 503 
L 1731 6 
Q 1494 -44 1306 -44 
Q 1000 -44 831 53 
Q 663 150 594 308 
Q 525 466 525 972 
L 525 2881 
L 113 2881 
L 113 3319 
L 525 3319 
L 525 4141 
L 1084 4478 
L 1084 3319 
L 1650 3319 
L 1650 2881 
L 1084 2881 
L 1084 941 
Q 1084 700 1114 631 
Q 1144 563 1211 522 
Q 1278 481 1403 481 
Q 1497 481 1650 503 
z
" id="ArialMT-74" transform="scale(0.015625)"/>
      <path d="M 425 3934 
L 425 4581 
L 988 4581 
L 988 3934 
L 425 3934 
z
M 425 0 
L 425 3319 
L 988 3319 
L 988 0 
L 425 0 
z
" id="ArialMT-69" transform="scale(0.015625)"/>
      <path d="M 1344 0 
L 81 3319 
L 675 3319 
L 1388 1331 
Q 1503 1009 1600 663 
Q 1675 925 1809 1294 
L 2547 3319 
L 3125 3319 
L 1869 0 
L 1344 0 
z
" id="ArialMT-76" transform="scale(0.015625)"/>
      <path d="M 2588 409 
Q 2275 144 1986 34 
Q 1697 -75 1366 -75 
Q 819 -75 525 192 
Q 231 459 231 875 
Q 231 1119 342 1320 
Q 453 1522 633 1644 
Q 813 1766 1038 1828 
Q 1203 1872 1538 1913 
Q 2219 1994 2541 2106 
Q 2544 2222 2544 2253 
Q 2544 2597 2384 2738 
Q 2169 2928 1744 2928 
Q 1347 2928 1158 2789 
Q 969 2650 878 2297 
L 328 2372 
Q 403 2725 575 2942 
Q 747 3159 1072 3276 
Q 1397 3394 1825 3394 
Q 2250 3394 2515 3294 
Q 2781 3194 2906 3042 
Q 3031 2891 3081 2659 
Q 3109 2516 3109 2141 
L 3109 1391 
Q 3109 606 3145 398 
Q 3181 191 3288 0 
L 2700 0 
Q 2613 175 2588 409 
z
M 2541 1666 
Q 2234 1541 1622 1453 
Q 1275 1403 1131 1340 
Q 988 1278 909 1158 
Q 831 1038 831 891 
Q 831 666 1001 516 
Q 1172 366 1500 366 
Q 1825 366 2078 508 
Q 2331 650 2450 897 
Q 2541 1088 2541 1459 
L 2541 1666 
z
" id="ArialMT-61" transform="scale(0.015625)"/>
      <path d="M 213 1659 
Q 213 2581 725 3025 
Q 1153 3394 1769 3394 
Q 2453 3394 2887 2945 
Q 3322 2497 3322 1706 
Q 3322 1066 3130 698 
Q 2938 331 2570 128 
Q 2203 -75 1769 -75 
Q 1072 -75 642 372 
Q 213 819 213 1659 
z
M 791 1659 
Q 791 1022 1069 705 
Q 1347 388 1769 388 
Q 2188 388 2466 706 
Q 2744 1025 2744 1678 
Q 2744 2294 2464 2611 
Q 2184 2928 1769 2928 
Q 1347 2928 1069 2612 
Q 791 2297 791 1659 
z
" id="ArialMT-6f" transform="scale(0.015625)"/>
      <path d="M 422 0 
L 422 3319 
L 928 3319 
L 928 2847 
Q 1294 3394 1984 3394 
Q 2284 3394 2536 3286 
Q 2788 3178 2913 3003 
Q 3038 2828 3088 2588 
Q 3119 2431 3119 2041 
L 3119 0 
L 2556 0 
L 2556 2019 
Q 2556 2363 2490 2533 
Q 2425 2703 2258 2804 
Q 2091 2906 1866 2906 
Q 1506 2906 1245 2678 
Q 984 2450 984 1813 
L 984 0 
L 422 0 
z
" id="ArialMT-6e" transform="scale(0.015625)"/>
      <path d="M 197 991 
L 753 1078 
Q 800 744 1014 566 
Q 1228 388 1613 388 
Q 2000 388 2187 545 
Q 2375 703 2375 916 
Q 2375 1106 2209 1216 
Q 2094 1291 1634 1406 
Q 1016 1563 777 1677 
Q 538 1791 414 1992 
Q 291 2194 291 2438 
Q 291 2659 392 2848 
Q 494 3038 669 3163 
Q 800 3259 1026 3326 
Q 1253 3394 1513 3394 
Q 1903 3394 2198 3281 
Q 2494 3169 2634 2976 
Q 2775 2784 2828 2463 
L 2278 2388 
Q 2241 2644 2061 2787 
Q 1881 2931 1553 2931 
Q 1166 2931 1000 2803 
Q 834 2675 834 2503 
Q 834 2394 903 2306 
Q 972 2216 1119 2156 
Q 1203 2125 1616 2013 
Q 2213 1853 2448 1751 
Q 2684 1650 2818 1456 
Q 2953 1263 2953 975 
Q 2953 694 2789 445 
Q 2625 197 2315 61 
Q 2006 -75 1616 -75 
Q 969 -75 630 194 
Q 291 463 197 991 
z
" id="ArialMT-73" transform="scale(0.015625)"/>
      <path id="ArialMT-20" transform="scale(0.015625)"/>
      <path d="M 556 0 
L 556 2881 
L 59 2881 
L 59 3319 
L 556 3319 
L 556 3672 
Q 556 4006 616 4169 
Q 697 4388 901 4523 
Q 1106 4659 1475 4659 
Q 1713 4659 2000 4603 
L 1916 4113 
Q 1741 4144 1584 4144 
Q 1328 4144 1222 4034 
Q 1116 3925 1116 3625 
L 1116 3319 
L 1763 3319 
L 1763 2881 
L 1116 2881 
L 1116 0 
L 556 0 
z
" id="ArialMT-66" transform="scale(0.015625)"/>
      <path d="M 416 0 
L 416 3319 
L 922 3319 
L 922 2816 
Q 1116 3169 1280 3281 
Q 1444 3394 1641 3394 
Q 1925 3394 2219 3213 
L 2025 2691 
Q 1819 2813 1613 2813 
Q 1428 2813 1281 2702 
Q 1134 2591 1072 2394 
Q 978 2094 978 1738 
L 978 0 
L 416 0 
z
" id="ArialMT-72" transform="scale(0.015625)"/>
      <path d="M 3384 2003 
L 350 706 
L 350 1266 
L 2753 2263 
L 350 3250 
L 350 3809 
L 3384 2528 
L 3384 2003 
z
" id="ArialMT-3e" transform="scale(0.015625)"/>
      <path d="M 309 2231 
Q 309 3372 921 4017 
Q 1534 4663 2503 4663 
Q 3138 4663 3647 4359 
Q 4156 4056 4423 3514 
Q 4691 2972 4691 2284 
Q 4691 1588 4409 1038 
Q 4128 488 3612 205 
Q 3097 -78 2500 -78 
Q 1853 -78 1343 234 
Q 834 547 571 1087 
Q 309 1628 309 2231 
z
M 934 2222 
Q 934 1394 1379 917 
Q 1825 441 2497 441 
Q 3181 441 3623 922 
Q 4066 1403 4066 2288 
Q 4066 2847 3877 3264 
Q 3688 3681 3323 3911 
Q 2959 4141 2506 4141 
Q 1863 4141 1398 3698 
Q 934 3256 934 2222 
z
" id="ArialMT-4f" transform="scale(0.015625)"/>
      <path d="M 350 2003 
L 350 2528 
L 3384 3809 
L 3384 3250 
L 978 2263 
L 3384 1266 
L 3384 706 
L 350 2003 
z
" id="ArialMT-3c" transform="scale(0.015625)"/>
     </defs>
     <use xlink:href="#ArialMT-41"/>
     <use x="66.699219" xlink:href="#ArialMT-63"/>
     <use x="116.699219" xlink:href="#ArialMT-74"/>
     <use x="144.482422" xlink:href="#ArialMT-69"/>
     <use x="166.699219" xlink:href="#ArialMT-76"/>
     <use x="216.699219" xlink:href="#ArialMT-61"/>
     <use x="272.314453" xlink:href="#ArialMT-74"/>
     <use x="300.097656" xlink:href="#ArialMT-69"/>
     <use x="322.314453" xlink:href="#ArialMT-6f"/>
     <use x="377.929688" xlink:href="#ArialMT-6e"/>
     <use x="433.544922" xlink:href="#ArialMT-73"/>
     <use x="483.544922" xlink:href="#ArialMT-20"/>
     <use x="511.328125" xlink:href="#ArialMT-66"/>
     <use x="539.111328" xlink:href="#ArialMT-6f"/>
     <use x="594.726562" xlink:href="#ArialMT-72"/>
     <use x="628.027344" xlink:href="#ArialMT-20"/>
     <use x="655.810547" xlink:href="#ArialMT-3e"/>
     <use x="714.208984" xlink:href="#ArialMT-4f"/>
     <use x="791.992188" xlink:href="#ArialMT-3c"/>
    </g>
   </g>
   <g id="legend_1">
    <g id="patch_7">
     <path d="M 640.044062 158.514363 
L 750.46 158.514363 
Q 752.66 158.514363 752.66 156.314363 
L 752.66 79.1528 
Q 752.66 76.9528 750.46 76.9528 
L 640.044062 76.9528 
Q 637.844062 76.9528 637.844062 79.1528 
L 637.844062 156.314363 
Q 637.844062 158.514363 640.044062 158.514363 
z
" style="fill:#ffffff;opacity:0.8;stroke:#cccccc;stroke-linejoin:miter;"/>
    </g>
    <g id="line2d_11">
     <path d="M 642.244062 85.376394 
L 664.244062 85.376394 
" style="fill:none;stroke:#4c72b0;stroke-linecap:round;stroke-width:1.5;"/>
    </g>
    <g id="line2d_12"/>
    <g id="text_17">
     <!-- regular -->
     <g style="fill:#262626;" transform="translate(673.044062 89.226394)scale(0.11 -0.11)">
      <defs>
       <path d="M 2694 1069 
L 3275 997 
Q 3138 488 2766 206 
Q 2394 -75 1816 -75 
Q 1088 -75 661 373 
Q 234 822 234 1631 
Q 234 2469 665 2931 
Q 1097 3394 1784 3394 
Q 2450 3394 2872 2941 
Q 3294 2488 3294 1666 
Q 3294 1616 3291 1516 
L 816 1516 
Q 847 969 1125 678 
Q 1403 388 1819 388 
Q 2128 388 2347 550 
Q 2566 713 2694 1069 
z
M 847 1978 
L 2700 1978 
Q 2663 2397 2488 2606 
Q 2219 2931 1791 2931 
Q 1403 2931 1139 2672 
Q 875 2413 847 1978 
z
" id="ArialMT-65" transform="scale(0.015625)"/>
       <path d="M 319 -275 
L 866 -356 
Q 900 -609 1056 -725 
Q 1266 -881 1628 -881 
Q 2019 -881 2231 -725 
Q 2444 -569 2519 -288 
Q 2563 -116 2559 434 
Q 2191 0 1641 0 
Q 956 0 581 494 
Q 206 988 206 1678 
Q 206 2153 378 2554 
Q 550 2956 876 3175 
Q 1203 3394 1644 3394 
Q 2231 3394 2613 2919 
L 2613 3319 
L 3131 3319 
L 3131 450 
Q 3131 -325 2973 -648 
Q 2816 -972 2473 -1159 
Q 2131 -1347 1631 -1347 
Q 1038 -1347 672 -1080 
Q 306 -813 319 -275 
z
M 784 1719 
Q 784 1066 1043 766 
Q 1303 466 1694 466 
Q 2081 466 2343 764 
Q 2606 1063 2606 1700 
Q 2606 2309 2336 2618 
Q 2066 2928 1684 2928 
Q 1309 2928 1046 2623 
Q 784 2319 784 1719 
z
" id="ArialMT-67" transform="scale(0.015625)"/>
       <path d="M 2597 0 
L 2597 488 
Q 2209 -75 1544 -75 
Q 1250 -75 995 37 
Q 741 150 617 320 
Q 494 491 444 738 
Q 409 903 409 1263 
L 409 3319 
L 972 3319 
L 972 1478 
Q 972 1038 1006 884 
Q 1059 663 1231 536 
Q 1403 409 1656 409 
Q 1909 409 2131 539 
Q 2353 669 2445 892 
Q 2538 1116 2538 1541 
L 2538 3319 
L 3100 3319 
L 3100 0 
L 2597 0 
z
" id="ArialMT-75" transform="scale(0.015625)"/>
       <path d="M 409 0 
L 409 4581 
L 972 4581 
L 972 0 
L 409 0 
z
" id="ArialMT-6c" transform="scale(0.015625)"/>
      </defs>
      <use xlink:href="#ArialMT-72"/>
      <use x="33.300781" xlink:href="#ArialMT-65"/>
      <use x="88.916016" xlink:href="#ArialMT-67"/>
      <use x="144.53125" xlink:href="#ArialMT-75"/>
      <use x="200.146484" xlink:href="#ArialMT-6c"/>
      <use x="222.363281" xlink:href="#ArialMT-61"/>
      <use x="277.978516" xlink:href="#ArialMT-72"/>
     </g>
    </g>
    <g id="line2d_13">
     <path d="M 642.244062 101.0978 
L 664.244062 101.0978 
" style="fill:none;stroke:#dd8452;stroke-dasharray:6,2.25;stroke-dashoffset:0;stroke-width:1.5;"/>
    </g>
    <g id="line2d_14"/>
    <g id="text_18">
     <!-- splitted_3s -->
     <g style="fill:#262626;" transform="translate(673.044062 104.9478)scale(0.11 -0.11)">
      <defs>
       <path d="M 422 -1272 
L 422 3319 
L 934 3319 
L 934 2888 
Q 1116 3141 1344 3267 
Q 1572 3394 1897 3394 
Q 2322 3394 2647 3175 
Q 2972 2956 3137 2557 
Q 3303 2159 3303 1684 
Q 3303 1175 3120 767 
Q 2938 359 2589 142 
Q 2241 -75 1856 -75 
Q 1575 -75 1351 44 
Q 1128 163 984 344 
L 984 -1272 
L 422 -1272 
z
M 931 1641 
Q 931 1000 1190 694 
Q 1450 388 1819 388 
Q 2194 388 2461 705 
Q 2728 1022 2728 1688 
Q 2728 2322 2467 2637 
Q 2206 2953 1844 2953 
Q 1484 2953 1207 2617 
Q 931 2281 931 1641 
z
" id="ArialMT-70" transform="scale(0.015625)"/>
       <path d="M 2575 0 
L 2575 419 
Q 2259 -75 1647 -75 
Q 1250 -75 917 144 
Q 584 363 401 755 
Q 219 1147 219 1656 
Q 219 2153 384 2558 
Q 550 2963 881 3178 
Q 1213 3394 1622 3394 
Q 1922 3394 2156 3267 
Q 2391 3141 2538 2938 
L 2538 4581 
L 3097 4581 
L 3097 0 
L 2575 0 
z
M 797 1656 
Q 797 1019 1065 703 
Q 1334 388 1700 388 
Q 2069 388 2326 689 
Q 2584 991 2584 1609 
Q 2584 2291 2321 2609 
Q 2059 2928 1675 2928 
Q 1300 2928 1048 2622 
Q 797 2316 797 1656 
z
" id="ArialMT-64" transform="scale(0.015625)"/>
       <path d="M -97 -1272 
L -97 -866 
L 3631 -866 
L 3631 -1272 
L -97 -1272 
z
" id="ArialMT-5f" transform="scale(0.015625)"/>
       <path d="M 269 1209 
L 831 1284 
Q 928 806 1161 595 
Q 1394 384 1728 384 
Q 2125 384 2398 659 
Q 2672 934 2672 1341 
Q 2672 1728 2419 1979 
Q 2166 2231 1775 2231 
Q 1616 2231 1378 2169 
L 1441 2663 
Q 1497 2656 1531 2656 
Q 1891 2656 2178 2843 
Q 2466 3031 2466 3422 
Q 2466 3731 2256 3934 
Q 2047 4138 1716 4138 
Q 1388 4138 1169 3931 
Q 950 3725 888 3313 
L 325 3413 
Q 428 3978 793 4289 
Q 1159 4600 1703 4600 
Q 2078 4600 2393 4439 
Q 2709 4278 2876 4000 
Q 3044 3722 3044 3409 
Q 3044 3113 2884 2869 
Q 2725 2625 2413 2481 
Q 2819 2388 3044 2092 
Q 3269 1797 3269 1353 
Q 3269 753 2831 336 
Q 2394 -81 1725 -81 
Q 1122 -81 723 278 
Q 325 638 269 1209 
z
" id="ArialMT-33" transform="scale(0.015625)"/>
      </defs>
      <use xlink:href="#ArialMT-73"/>
      <use x="50" xlink:href="#ArialMT-70"/>
      <use x="105.615234" xlink:href="#ArialMT-6c"/>
      <use x="127.832031" xlink:href="#ArialMT-69"/>
      <use x="150.048828" xlink:href="#ArialMT-74"/>
      <use x="177.832031" xlink:href="#ArialMT-74"/>
      <use x="205.615234" xlink:href="#ArialMT-65"/>
      <use x="261.230469" xlink:href="#ArialMT-64"/>
      <use x="316.845703" xlink:href="#ArialMT-5f"/>
      <use x="372.460938" xlink:href="#ArialMT-33"/>
      <use x="428.076172" xlink:href="#ArialMT-73"/>
     </g>
    </g>
    <g id="line2d_15">
     <path d="M 642.244062 116.6903 
L 664.244062 116.6903 
" style="fill:none;stroke:#55a868;stroke-dasharray:1.5,1.5;stroke-dashoffset:0;stroke-width:1.5;"/>
    </g>
    <g id="line2d_16"/>
    <g id="text_19">
     <!-- splitted_1s -->
     <g style="fill:#262626;" transform="translate(673.044062 120.5403)scale(0.11 -0.11)">
      <use xlink:href="#ArialMT-73"/>
      <use x="50" xlink:href="#ArialMT-70"/>
      <use x="105.615234" xlink:href="#ArialMT-6c"/>
      <use x="127.832031" xlink:href="#ArialMT-69"/>
      <use x="150.048828" xlink:href="#ArialMT-74"/>
      <use x="177.832031" xlink:href="#ArialMT-74"/>
      <use x="205.615234" xlink:href="#ArialMT-65"/>
      <use x="261.230469" xlink:href="#ArialMT-64"/>
      <use x="316.845703" xlink:href="#ArialMT-5f"/>
      <use x="372.460938" xlink:href="#ArialMT-31"/>
      <use x="428.076172" xlink:href="#ArialMT-73"/>
     </g>
    </g>
    <g id="line2d_17">
     <path d="M 642.244062 132.384206 
L 664.244062 132.384206 
" style="fill:none;stroke:#c44e52;stroke-dasharray:4.5,1.875,2.25,1.875;stroke-dashoffset:0;stroke-width:1.5;"/>
    </g>
    <g id="line2d_18"/>
    <g id="text_20">
     <!-- overlap_1f_3s -->
     <g style="fill:#262626;" transform="translate(673.044062 136.234206)scale(0.11 -0.11)">
      <use xlink:href="#ArialMT-6f"/>
      <use x="55.615234" xlink:href="#ArialMT-76"/>
      <use x="105.615234" xlink:href="#ArialMT-65"/>
      <use x="161.230469" xlink:href="#ArialMT-72"/>
      <use x="194.53125" xlink:href="#ArialMT-6c"/>
      <use x="216.748047" xlink:href="#ArialMT-61"/>
      <use x="272.363281" xlink:href="#ArialMT-70"/>
      <use x="327.978516" xlink:href="#ArialMT-5f"/>
      <use x="383.59375" xlink:href="#ArialMT-31"/>
      <use x="439.208984" xlink:href="#ArialMT-66"/>
      <use x="466.992188" xlink:href="#ArialMT-5f"/>
      <use x="522.607422" xlink:href="#ArialMT-33"/>
      <use x="578.222656" xlink:href="#ArialMT-73"/>
     </g>
    </g>
    <g id="line2d_19">
     <path d="M 642.244062 148.078113 
L 664.244062 148.078113 
" style="fill:none;stroke:#8172b3;stroke-dasharray:7.5,1.5,1.5,1.5;stroke-dashoffset:0;stroke-width:1.5;"/>
    </g>
    <g id="line2d_20"/>
    <g id="text_21">
     <!-- overlap_10f_3s -->
     <g style="fill:#262626;" transform="translate(673.044062 151.928112)scale(0.11 -0.11)">
      <use xlink:href="#ArialMT-6f"/>
      <use x="55.615234" xlink:href="#ArialMT-76"/>
      <use x="105.615234" xlink:href="#ArialMT-65"/>
      <use x="161.230469" xlink:href="#ArialMT-72"/>
      <use x="194.53125" xlink:href="#ArialMT-6c"/>
      <use x="216.748047" xlink:href="#ArialMT-61"/>
      <use x="272.363281" xlink:href="#ArialMT-70"/>
      <use x="327.978516" xlink:href="#ArialMT-5f"/>
      <use x="383.59375" xlink:href="#ArialMT-31"/>
      <use x="439.208984" xlink:href="#ArialMT-30"/>
      <use x="494.824219" xlink:href="#ArialMT-66"/>
      <use x="522.607422" xlink:href="#ArialMT-5f"/>
      <use x="578.222656" xlink:href="#ArialMT-33"/>
      <use x="633.837891" xlink:href="#ArialMT-73"/>
     </g>
    </g>
   </g>
  </g>
 </g>
 <defs>
  <clipPath id="p367f70128e">
   <rect height="458.4888" width="652.86" x="105.3" y="71.4528"/>
  </clipPath>
 </defs>
</svg>
