<?xml version="1.0" encoding="utf-8" standalone="no"?>
<!DOCTYPE svg PUBLIC "-//W3C//DTD SVG 1.1//EN"
  "http://www.w3.org/Graphics/SVG/1.1/DTD/svg11.dtd">
<svg height="595.44pt" version="1.1" viewBox="0 0 842.4 595.44" width="842.4pt" xmlns="http://www.w3.org/2000/svg" xmlns:xlink="http://www.w3.org/1999/xlink">
 <metadata>
  <rdf:RDF xmlns:cc="http://creativecommons.org/ns#" xmlns:dc="http://purl.org/dc/elements/1.1/" xmlns:rdf="http://www.w3.org/1999/02/22-rdf-syntax-ns#">
   <cc:Work>
    <dc:type rdf:resource="http://purl.org/dc/dcmitype/StillImage"/>
    <dc:date>2021-06-01T00:54:06.249779</dc:date>
    <dc:format>image/svg+xml</dc:format>
    <dc:creator>
     <cc:Agent>
      <dc:title>Matplotlib v3.4.1, https://matplotlib.org/</dc:title>
     </cc:Agent>
    </dc:creator>
   </cc:Work>
  </rdf:RDF>
 </metadata>
 <defs>
  <style type="text/css">*{stroke-linecap:butt;stroke-linejoin:round;}</style>
 </defs>
 <g id="figure_1">
  <g id="patch_1">
   <path d="M 0 595.44 
L 842.4 595.44 
L 842.4 0 
L 0 0 
z
" style="fill:#ffffff;"/>
  </g>
  <g id="axes_1">
   <g id="patch_2">
    <path d="M 105.3 529.9416 
L 758.16 529.9416 
L 758.16 71.4528 
L 105.3 71.4528 
z
" style="fill:#ffffff;"/>
   </g>
   <g id="matplotlib.axis_1">
    <g id="xtick_1">
     <g id="text_1">
      <!-- 0 -->
      <g style="fill:#262626;" transform="translate(131.916939 547.315194)scale(0.11 -0.11)">
       <defs>
        <path d="M 266 2259 
Q 266 3072 433 3567 
Q 600 4063 929 4331 
Q 1259 4600 1759 4600 
Q 2128 4600 2406 4451 
Q 2684 4303 2865 4023 
Q 3047 3744 3150 3342 
Q 3253 2941 3253 2259 
Q 3253 1453 3087 958 
Q 2922 463 2592 192 
Q 2263 -78 1759 -78 
Q 1097 -78 719 397 
Q 266 969 266 2259 
z
M 844 2259 
Q 844 1131 1108 757 
Q 1372 384 1759 384 
Q 2147 384 2411 759 
Q 2675 1134 2675 2259 
Q 2675 3391 2411 3762 
Q 2147 4134 1753 4134 
Q 1366 4134 1134 3806 
Q 844 3388 844 2259 
z
" id="ArialMT-30" transform="scale(0.015625)"/>
       </defs>
       <use xlink:href="#ArialMT-30"/>
      </g>
     </g>
    </g>
    <g id="xtick_2">
     <g id="text_2">
      <!-- 25 -->
      <g style="fill:#262626;" transform="translate(201.950676 547.315194)scale(0.11 -0.11)">
       <defs>
        <path d="M 3222 541 
L 3222 0 
L 194 0 
Q 188 203 259 391 
Q 375 700 629 1000 
Q 884 1300 1366 1694 
Q 2113 2306 2375 2664 
Q 2638 3022 2638 3341 
Q 2638 3675 2398 3904 
Q 2159 4134 1775 4134 
Q 1369 4134 1125 3890 
Q 881 3647 878 3216 
L 300 3275 
Q 359 3922 746 4261 
Q 1134 4600 1788 4600 
Q 2447 4600 2831 4234 
Q 3216 3869 3216 3328 
Q 3216 3053 3103 2787 
Q 2991 2522 2730 2228 
Q 2469 1934 1863 1422 
Q 1356 997 1212 845 
Q 1069 694 975 541 
L 3222 541 
z
" id="ArialMT-32" transform="scale(0.015625)"/>
        <path d="M 266 1200 
L 856 1250 
Q 922 819 1161 601 
Q 1400 384 1738 384 
Q 2144 384 2425 690 
Q 2706 997 2706 1503 
Q 2706 1984 2436 2262 
Q 2166 2541 1728 2541 
Q 1456 2541 1237 2417 
Q 1019 2294 894 2097 
L 366 2166 
L 809 4519 
L 3088 4519 
L 3088 3981 
L 1259 3981 
L 1013 2750 
Q 1425 3038 1878 3038 
Q 2478 3038 2890 2622 
Q 3303 2206 3303 1553 
Q 3303 931 2941 478 
Q 2500 -78 1738 -78 
Q 1113 -78 717 272 
Q 322 622 266 1200 
z
" id="ArialMT-35" transform="scale(0.015625)"/>
       </defs>
       <use xlink:href="#ArialMT-32"/>
       <use x="55.615234" xlink:href="#ArialMT-35"/>
      </g>
     </g>
    </g>
    <g id="xtick_3">
     <g id="text_3">
      <!-- 50 -->
      <g style="fill:#262626;" transform="translate(275.042928 547.315194)scale(0.11 -0.11)">
       <use xlink:href="#ArialMT-35"/>
       <use x="55.615234" xlink:href="#ArialMT-30"/>
      </g>
     </g>
    </g>
    <g id="xtick_4">
     <g id="text_4">
      <!-- 75 -->
      <g style="fill:#262626;" transform="translate(348.135181 547.315194)scale(0.11 -0.11)">
       <defs>
        <path d="M 303 3981 
L 303 4522 
L 3269 4522 
L 3269 4084 
Q 2831 3619 2401 2847 
Q 1972 2075 1738 1259 
Q 1569 684 1522 0 
L 944 0 
Q 953 541 1156 1306 
Q 1359 2072 1739 2783 
Q 2119 3494 2547 3981 
L 303 3981 
z
" id="ArialMT-37" transform="scale(0.015625)"/>
       </defs>
       <use xlink:href="#ArialMT-37"/>
       <use x="55.615234" xlink:href="#ArialMT-35"/>
      </g>
     </g>
    </g>
    <g id="xtick_5">
     <g id="text_5">
      <!-- 100 -->
      <g style="fill:#262626;" transform="translate(418.168918 547.315194)scale(0.11 -0.11)">
       <defs>
        <path d="M 2384 0 
L 1822 0 
L 1822 3584 
Q 1619 3391 1289 3197 
Q 959 3003 697 2906 
L 697 3450 
Q 1169 3672 1522 3987 
Q 1875 4303 2022 4600 
L 2384 4600 
L 2384 0 
z
" id="ArialMT-31" transform="scale(0.015625)"/>
       </defs>
       <use xlink:href="#ArialMT-31"/>
       <use x="55.615234" xlink:href="#ArialMT-30"/>
       <use x="111.230469" xlink:href="#ArialMT-30"/>
      </g>
     </g>
    </g>
    <g id="xtick_6">
     <g id="text_6">
      <!-- 125 -->
      <g style="fill:#262626;" transform="translate(491.261171 547.315194)scale(0.11 -0.11)">
       <use xlink:href="#ArialMT-31"/>
       <use x="55.615234" xlink:href="#ArialMT-32"/>
       <use x="111.230469" xlink:href="#ArialMT-35"/>
      </g>
     </g>
    </g>
    <g id="xtick_7">
     <g id="text_7">
      <!-- 150 -->
      <g style="fill:#262626;" transform="translate(564.353423 547.315194)scale(0.11 -0.11)">
       <use xlink:href="#ArialMT-31"/>
       <use x="55.615234" xlink:href="#ArialMT-35"/>
       <use x="111.230469" xlink:href="#ArialMT-30"/>
      </g>
     </g>
    </g>
    <g id="xtick_8">
     <g id="text_8">
      <!-- 175 -->
      <g style="fill:#262626;" transform="translate(637.445676 547.315194)scale(0.11 -0.11)">
       <use xlink:href="#ArialMT-31"/>
       <use x="55.615234" xlink:href="#ArialMT-37"/>
       <use x="111.230469" xlink:href="#ArialMT-35"/>
      </g>
     </g>
    </g>
    <g id="xtick_9">
     <g id="text_9">
      <!-- 200 -->
      <g style="fill:#262626;" transform="translate(710.537928 547.315194)scale(0.11 -0.11)">
       <use xlink:href="#ArialMT-32"/>
       <use x="55.615234" xlink:href="#ArialMT-30"/>
       <use x="111.230469" xlink:href="#ArialMT-30"/>
      </g>
     </g>
    </g>
   </g>
   <g id="matplotlib.axis_2">
    <g id="ytick_1">
     <g id="text_10">
      <!-- −25 -->
      <g style="fill:#262626;" transform="translate(77.14125 533.878397)scale(0.11 -0.11)">
       <defs>
        <path d="M 3381 1997 
L 356 1997 
L 356 2522 
L 3381 2522 
L 3381 1997 
z
" id="ArialMT-2212" transform="scale(0.015625)"/>
       </defs>
       <use xlink:href="#ArialMT-2212"/>
       <use x="58.398438" xlink:href="#ArialMT-32"/>
       <use x="114.013672" xlink:href="#ArialMT-35"/>
      </g>
     </g>
    </g>
    <g id="ytick_2">
     <g id="text_11">
      <!-- −20 -->
      <g style="fill:#262626;" transform="translate(77.14125 442.180637)scale(0.11 -0.11)">
       <use xlink:href="#ArialMT-2212"/>
       <use x="58.398438" xlink:href="#ArialMT-32"/>
       <use x="114.013672" xlink:href="#ArialMT-30"/>
      </g>
     </g>
    </g>
    <g id="ytick_3">
     <g id="text_12">
      <!-- −15 -->
      <g style="fill:#262626;" transform="translate(77.14125 350.482877)scale(0.11 -0.11)">
       <use xlink:href="#ArialMT-2212"/>
       <use x="58.398438" xlink:href="#ArialMT-31"/>
       <use x="114.013672" xlink:href="#ArialMT-35"/>
      </g>
     </g>
    </g>
    <g id="ytick_4">
     <g id="text_13">
      <!-- −10 -->
      <g style="fill:#262626;" transform="translate(77.14125 258.785117)scale(0.11 -0.11)">
       <use xlink:href="#ArialMT-2212"/>
       <use x="58.398438" xlink:href="#ArialMT-31"/>
       <use x="114.013672" xlink:href="#ArialMT-30"/>
      </g>
     </g>
    </g>
    <g id="ytick_5">
     <g id="text_14">
      <!-- −5 -->
      <g style="fill:#262626;" transform="translate(83.258281 167.087357)scale(0.11 -0.11)">
       <use xlink:href="#ArialMT-2212"/>
       <use x="58.398438" xlink:href="#ArialMT-35"/>
      </g>
     </g>
    </g>
    <g id="ytick_6">
     <g id="text_15">
      <!-- 0 -->
      <g style="fill:#262626;" transform="translate(89.682969 75.389597)scale(0.11 -0.11)">
       <use xlink:href="#ArialMT-30"/>
      </g>
     </g>
    </g>
   </g>
   <g id="line2d_1">
    <path clip-path="url(#p9706c9ebf7)" d="M 134.975455 383.778916 
L 137.899145 383.749078 
L 140.822835 387.234372 
L 143.746525 385.143273 
L 146.670215 387.637691 
L 149.593905 392.45516 
L 152.517595 391.014827 
L 155.441285 396.368154 
L 158.364975 398.146044 
L 161.288665 397.587974 
L 164.212356 399.436243 
L 167.136046 399.262078 
L 170.059736 410.419448 
L 172.983426 424.321867 
L 175.907116 425.235053 
L 178.830806 447.925617 
L 181.754496 461.920313 
L 184.678186 364.250537 
L 187.601876 345.880605 
L 190.525567 485.796277 
L 193.449257 457.720344 
L 196.372947 435.373388 
L 199.296637 467.006953 
L 202.220327 315.031359 
L 205.144017 326.512328 
L 208.067707 449.23495 
L 210.991397 365.43821 
L 213.915087 430.169285 
L 216.838777 488.982913 
L 219.762468 499.124921 
L 222.686158 481.946387 
L 225.609848 412.884868 
L 228.533538 366.663451 
L 231.457228 420.376552 
L 234.380918 312.387734 
L 237.304608 398.68316 
L 240.228298 458.431626 
L 243.151988 419.1433 
L 246.075678 308.683046 
L 248.999369 274.193842 
L 251.923059 348.498099 
L 254.846749 319.781772 
L 257.770439 347.16874 
L 260.694129 286.284249 
L 263.617819 430.621016 
L 266.541509 355.779939 
L 269.465199 363.433406 
L 272.388889 374.960094 
L 275.312579 388.740993 
L 278.23627 403.991258 
L 281.15996 383.444438 
L 284.08365 342.665198 
L 287.00734 334.236699 
L 289.93103 385.546451 
L 292.85472 359.018905 
L 295.77841 383.867765 
L 298.7021 448.050286 
L 301.62579 413.259328 
L 304.549481 400.715109 
L 307.473171 380.630339 
L 310.396861 361.665503 
L 313.320551 282.217991 
L 316.244241 258.676942 
L 319.167931 71.454162 
L 322.091621 293.903715 
L 327.939001 450.264409 
L 330.862691 401.076591 
L 333.786382 431.167122 
L 336.710072 429.963813 
L 339.633762 460.609931 
L 342.557452 335.356144 
L 345.481142 350.579125 
L 348.404832 249.151683 
L 351.328522 297.304515 
L 354.252212 386.176755 
L 357.175902 417.699224 
L 360.099592 419.384207 
L 363.023283 517.605861 
L 365.946973 390.992405 
L 368.870663 389.733688 
L 371.794353 449.761223 
L 374.718043 498.364702 
L 377.641733 514.955363 
L 380.565423 521.173498 
L 383.489113 461.629735 
L 386.412803 398.332067 
L 389.336494 389.986173 
L 392.260184 351.581614 
L 395.183874 400.361637 
L 398.107564 407.108703 
L 401.031254 441.940168 
L 403.954944 434.924386 
L 406.878634 458.181345 
L 409.802324 427.020113 
L 412.726014 425.011286 
L 415.649704 482.823369 
L 418.573395 415.927876 
L 421.497085 468.450714 
L 424.420775 524.678276 
L 427.344465 447.893855 
L 430.268155 481.650702 
L 433.191845 473.058549 
L 436.115535 331.816211 
L 439.039225 366.846361 
L 441.962915 465.744423 
L 444.886605 435.101454 
L 447.810296 302.443398 
L 450.733986 322.797286 
L 453.657676 452.111454 
L 456.581366 356.75385 
L 459.505056 421.512525 
L 462.428746 343.709313 
L 465.352436 384.68668 
L 468.276126 368.573915 
L 471.199816 323.676646 
L 474.123506 356.458585 
L 477.047197 314.474339 
L 479.970887 312.266249 
L 482.894577 396.232712 
L 485.818267 408.088876 
L 488.741957 424.967037 
L 491.665647 346.551292 
L 494.589337 325.380133 
L 497.513027 393.909451 
L 500.436717 297.592085 
L 503.360408 255.576217 
L 506.284098 335.296975 
L 509.207788 364.66183 
L 512.131478 421.515918 
L 515.055168 461.862072 
L 517.978858 400.947445 
L 520.902548 452.066505 
L 523.826238 485.199834 
L 526.749928 462.702744 
L 529.673618 478.57859 
L 532.597309 511.234549 
L 535.520999 473.966733 
L 538.444689 345.671827 
L 541.368379 401.186183 
L 544.292069 516.367397 
L 547.215759 481.057337 
L 550.139449 518.633152 
L 553.063139 364.875243 
L 555.986829 436.062107 
L 558.910519 408.775776 
L 561.83421 375.183475 
L 564.7579 311.24849 
L 567.68159 259.050405 
L 570.60528 350.238088 
L 573.52897 413.816733 
L 576.45266 441.91981 
L 579.37635 438.524764 
L 582.30004 408.077088 
L 585.22373 405.943592 
L 588.147421 425.222915 
L 591.071111 414.876379 
L 593.994801 428.823573 
L 596.918491 305.20842 
L 599.842181 300.705245 
L 602.765871 315.979927 
L 605.689561 77.015573 
L 608.613251 71.503296 
L 611.536941 301.962546 
L 614.460631 358.089926 
L 617.384322 77.189466 
L 620.308012 71.458488 
L 623.231702 323.916311 
L 626.155392 488.976966 
L 629.079082 492.560204 
L 632.002772 416.589451 
L 634.926462 376.928029 
L 637.850152 445.512842 
L 640.773842 425.925521 
L 643.697532 375.034076 
L 646.621223 328.700794 
L 649.544913 338.620977 
L 652.468603 502.431363 
L 655.392293 460.663345 
L 658.315983 362.58077 
L 661.239673 432.890268 
L 664.163363 348.059679 
L 667.087053 398.921513 
L 670.010743 452.260399 
L 672.934433 446.876534 
L 675.858124 443.642396 
L 678.781814 388.74491 
L 681.705504 455.612629 
L 684.629194 453.115063 
L 687.552884 359.739001 
L 690.476574 430.593662 
L 693.400264 393.492105 
L 696.323954 394.639062 
L 699.247644 369.209255 
L 702.171335 406.551019 
L 705.095025 424.531921 
L 708.018715 420.913144 
L 710.942405 422.081578 
L 713.866095 421.258571 
L 716.789785 422.285441 
L 719.713475 421.271758 
L 722.637165 418.362828 
L 725.560855 422.473143 
L 728.484545 419.699446 
L 728.484545 419.699446 
" style="fill:none;stroke:#4c72b0;stroke-linecap:round;stroke-width:1.5;"/>
   </g>
   <g id="line2d_2">
    <path clip-path="url(#p9706c9ebf7)" d="M 134.975455 378.186746 
L 137.899145 380.130091 
L 140.822835 382.237561 
L 143.746525 379.829928 
L 146.670215 383.996141 
L 149.593905 386.586999 
L 152.517595 384.221167 
L 155.441285 387.515856 
L 158.364975 387.176061 
L 161.288665 386.620335 
L 164.212356 387.975107 
L 167.136046 386.300479 
L 170.059736 392.968526 
L 172.983426 402.482749 
L 175.907116 404.214255 
L 178.830806 430.10933 
L 181.754496 427.404472 
L 184.678186 348.420199 
L 187.601876 317.546135 
L 190.525567 481.612959 
L 193.449257 444.564991 
L 196.372947 421.089653 
L 199.296637 450.421959 
L 202.220327 335.348221 
L 205.144017 329.538966 
L 208.067707 426.257831 
L 210.991397 368.248566 
L 213.915087 390.402154 
L 216.838777 489.525906 
L 219.762468 480.65227 
L 222.686158 458.061783 
L 225.609848 369.628244 
L 228.533538 327.765729 
L 231.457228 383.084285 
L 234.380918 283.681778 
L 237.304608 353.7011 
L 240.228298 432.813487 
L 243.151988 405.003927 
L 246.075678 288.048619 
L 248.999369 279.368159 
L 251.923059 324.903322 
L 254.846749 301.333992 
L 257.770439 346.996656 
L 260.694129 286.415791 
L 263.617819 432.430947 
L 266.541509 367.349583 
L 269.465199 369.288904 
L 272.388889 399.441105 
L 275.312579 396.745727 
L 278.23627 411.686456 
L 281.15996 408.544139 
L 284.08365 349.86884 
L 287.00734 342.978863 
L 289.93103 409.08374 
L 292.85472 381.443132 
L 295.77841 371.112442 
L 298.7021 440.565037 
L 301.62579 406.47095 
L 304.549481 400.612653 
L 307.473171 390.219594 
L 310.396861 355.463668 
L 313.320551 291.457604 
L 316.244241 273.246726 
L 319.167931 71.453403 
L 322.091621 260.262337 
L 325.015311 372.782279 
L 327.939001 459.968154 
L 330.862691 388.86748 
L 333.786382 391.237929 
L 336.710072 452.245322 
L 339.633762 474.980206 
L 342.557452 325.274669 
L 345.481142 306.780278 
L 348.404832 279.075657 
L 351.328522 419.960536 
L 354.252212 374.188052 
L 357.175902 325.610931 
L 360.099592 299.403555 
L 363.023283 303.095773 
L 365.946973 312.146897 
L 368.870663 257.902382 
L 371.794353 308.267991 
L 377.641733 386.400206 
L 380.565423 455.714841 
L 383.489113 411.553287 
L 386.412803 402.073904 
L 389.336494 381.155702 
L 392.260184 312.539529 
L 395.183874 367.864172 
L 398.107564 350.286168 
L 401.031254 396.337827 
L 403.954944 418.956682 
L 406.878634 425.58849 
L 409.802324 413.335654 
L 412.726014 417.001444 
L 415.649704 477.363773 
L 418.573395 391.764622 
L 421.497085 447.956819 
L 424.420775 483.66572 
L 427.344465 395.983795 
L 430.268155 439.958206 
L 433.191845 438.048127 
L 436.115535 315.820261 
L 441.962915 458.740709 
L 444.886605 373.05932 
L 447.810296 271.039265 
L 450.733986 318.188874 
L 453.657676 428.631813 
L 456.581366 353.661643 
L 459.505056 401.343243 
L 462.428746 316.563969 
L 465.352436 375.614463 
L 468.276126 352.022571 
L 471.199816 310.856261 
L 474.123506 325.781895 
L 477.047197 329.271824 
L 479.970887 296.535044 
L 482.894577 392.335004 
L 485.818267 417.415432 
L 488.741957 444.090314 
L 491.665647 374.797507 
L 494.589337 325.942785 
L 497.513027 383.314768 
L 500.436717 293.443537 
L 503.360408 259.179691 
L 506.284098 332.457952 
L 509.207788 349.168192 
L 512.131478 411.638813 
L 515.055168 482.326409 
L 517.978858 439.900594 
L 523.826238 487.748296 
L 526.749928 475.074722 
L 529.673618 489.330928 
L 532.597309 513.057667 
L 535.520999 468.148803 
L 538.444689 316.415094 
L 541.368379 369.013962 
L 544.292069 514.444866 
L 547.215759 435.7008 
L 550.139449 485.925878 
L 553.063139 364.169418 
L 555.986829 377.810887 
L 558.910519 323.35128 
L 561.83421 259.644784 
L 564.7579 255.070967 
L 567.68159 272.822892 
L 570.60528 429.844707 
L 573.52897 223.32662 
L 576.45266 262.161484 
L 579.37635 281.151156 
L 582.30004 244.580699 
L 585.22373 329.91967 
L 588.147421 351.2099 
L 591.071111 374.958624 
L 593.994801 416.478215 
L 596.918491 319.397203 
L 599.842181 357.87382 
L 602.765871 304.125407 
L 605.689561 96.051956 
L 608.613251 71.453661 
L 611.536941 267.325063 
L 614.460631 315.719536 
L 617.384322 71.508809 
L 620.308012 71.503154 
L 623.231702 347.969256 
L 626.155392 494.818018 
L 629.079082 461.619661 
L 632.002772 419.403376 
L 634.926462 391.382571 
L 637.850152 436.495684 
L 640.773842 444.168284 
L 643.697532 368.066461 
L 646.621223 340.953088 
L 649.544913 346.377179 
L 652.468603 497.546347 
L 655.392293 469.219293 
L 658.315983 326.889482 
L 661.239673 420.686194 
L 664.163363 325.903817 
L 667.087053 400.03335 
L 670.010743 465.764886 
L 672.934433 439.742415 
L 675.858124 442.85965 
L 678.781814 398.380234 
L 681.705504 445.110048 
L 684.629194 444.69753 
L 687.552884 347.770185 
L 690.476574 414.102204 
L 693.400264 406.014916 
L 696.323954 404.924103 
L 699.247644 376.426557 
L 702.171335 391.753883 
L 705.095025 410.107042 
L 708.018715 410.472372 
L 710.942405 411.731999 
L 713.866095 408.126934 
L 716.789785 410.463593 
L 719.713475 409.538688 
L 722.637165 405.763411 
L 725.560855 411.303495 
L 728.484545 405.745291 
L 728.484545 405.745291 
" style="fill:none;stroke:#dd8452;stroke-dasharray:6,2.25;stroke-dashoffset:0;stroke-width:1.5;"/>
   </g>
   <g id="line2d_3">
    <path clip-path="url(#p9706c9ebf7)" d="M 134.975455 369.60201 
L 137.899145 371.610661 
L 140.822835 375.301218 
L 143.746525 370.04482 
L 146.670215 381.634437 
L 149.593905 384.671149 
L 152.517595 385.588777 
L 155.441285 407.659637 
L 158.364975 405.347674 
L 161.288665 398.659829 
L 164.212356 402.371443 
L 167.136046 396.777454 
L 170.059736 396.019334 
L 172.983426 409.952886 
L 175.907116 410.86908 
L 178.830806 422.847918 
L 181.754496 411.821163 
L 184.678186 296.380521 
L 187.601876 260.778816 
L 190.525567 369.541144 
L 193.449257 449.256533 
L 196.372947 430.808159 
L 199.296637 431.648026 
L 202.220327 380.61911 
L 205.144017 374.977479 
L 208.067707 295.187216 
L 210.991397 340.080584 
L 213.915087 321.541979 
L 216.838777 372.817154 
L 219.762468 389.334532 
L 222.686158 384.160512 
L 225.609848 276.902827 
L 228.533538 285.283054 
L 231.457228 332.622708 
L 234.380918 289.948395 
L 237.304608 337.899674 
L 240.228298 451.773863 
L 243.151988 427.019903 
L 246.075678 251.491857 
L 248.999369 325.162873 
L 251.923059 297.825541 
L 254.846749 319.403429 
L 257.770439 323.577828 
L 260.694129 292.516236 
L 263.617819 428.660566 
L 266.541509 368.060025 
L 269.465199 383.421386 
L 272.388889 349.844197 
L 275.312579 305.883568 
L 278.23627 293.95148 
L 281.15996 358.706919 
L 284.08365 324.156116 
L 287.00734 283.192444 
L 289.93103 301.217177 
L 292.85472 326.02985 
L 295.77841 369.547931 
L 298.7021 455.495377 
L 301.62579 464.976894 
L 304.549481 434.05524 
L 307.473171 432.945187 
L 310.396861 410.663888 
L 313.320551 318.131244 
L 316.244241 286.465515 
L 319.167931 71.452975 
L 322.091621 268.453707 
L 325.015311 408.371758 
L 327.939001 483.966303 
L 330.862691 417.823997 
L 333.786382 415.208654 
L 336.710072 464.46944 
L 339.633762 490.470119 
L 342.557452 354.823693 
L 345.481142 331.73086 
L 348.404832 285.584126 
L 351.328522 467.10913 
L 354.252212 345.940315 
L 357.175902 429.173407 
L 360.099592 379.012762 
L 363.023283 444.691234 
L 365.946973 316.310697 
L 368.870663 315.071586 
L 371.794353 309.925602 
L 374.718043 388.769501 
L 377.641733 378.922024 
L 380.565423 405.359008 
L 383.489113 426.828843 
L 386.412803 399.378001 
L 389.336494 405.26005 
L 392.260184 351.934072 
L 395.183874 381.561644 
L 398.107564 388.690342 
L 401.031254 449.414327 
L 403.954944 436.534371 
L 406.878634 427.66063 
L 409.802324 445.136738 
L 412.726014 443.15537 
L 415.649704 451.693654 
L 418.573395 414.337444 
L 421.497085 367.188745 
L 424.420775 323.282562 
L 427.344465 285.232175 
L 430.268155 314.699207 
L 433.191845 314.286759 
L 436.115535 274.968297 
L 439.039225 336.372503 
L 441.962915 421.697604 
L 444.886605 323.875857 
L 447.810296 316.255271 
L 450.733986 340.710398 
L 453.657676 399.570286 
L 456.581366 346.909504 
L 459.505056 430.23858 
L 462.428746 315.103033 
L 465.352436 356.903564 
L 468.276126 341.657741 
L 471.199816 257.989202 
L 474.123506 270.358923 
L 477.047197 264.916031 
L 479.970887 357.081035 
L 482.894577 396.560229 
L 485.818267 392.949811 
L 488.741957 374.502032 
L 491.665647 373.161881 
L 494.589337 292.755639 
L 497.513027 277.242884 
L 500.436717 312.982305 
L 503.360408 332.194449 
L 506.284098 360.3083 
L 509.207788 257.65224 
L 512.131478 280.914761 
L 515.055168 391.156601 
L 517.978858 426.125292 
L 520.902548 450.107315 
L 523.826238 475.500323 
L 526.749928 472.485963 
L 529.673618 452.052478 
L 532.597309 484.292036 
L 535.520999 481.259871 
L 538.444689 298.216442 
L 541.368379 361.41809 
L 544.292069 487.133979 
L 547.215759 352.766367 
L 550.139449 406.108173 
L 553.063139 340.241824 
L 555.986829 315.958362 
L 558.910519 329.003773 
L 561.83421 310.528639 
L 564.7579 254.665358 
L 567.68159 228.840855 
L 570.60528 243.926645 
L 573.52897 308.129506 
L 576.45266 339.867399 
L 579.37635 377.478018 
L 582.30004 375.27967 
L 585.22373 410.68533 
L 588.147421 429.20286 
L 591.071111 474.944387 
L 593.994801 439.463205 
L 596.918491 343.619083 
L 599.842181 371.719869 
L 602.765871 352.525145 
L 605.689561 78.756392 
L 608.613251 71.461676 
L 611.536941 288.881385 
L 614.460631 325.605194 
L 617.384322 71.566384 
L 620.308012 72.032716 
L 623.231702 362.504881 
L 626.155392 513.750969 
L 629.079082 451.165212 
L 632.002772 436.004635 
L 634.926462 455.361928 
L 637.850152 374.033301 
L 640.773842 379.340454 
L 643.697532 414.433673 
L 646.621223 328.420553 
L 649.544913 326.443645 
L 652.468603 497.233731 
L 655.392293 446.753895 
L 658.315983 327.923191 
L 661.239673 412.059656 
L 664.163363 330.887022 
L 667.087053 389.313229 
L 670.010743 443.328521 
L 672.934433 387.548772 
L 675.858124 445.313317 
L 678.781814 402.599617 
L 681.705504 443.981386 
L 684.629194 452.710835 
L 687.552884 360.873225 
L 690.476574 401.272549 
L 693.400264 396.452211 
L 696.323954 403.477263 
L 699.247644 381.033587 
L 702.171335 403.036551 
L 705.095025 414.269967 
L 708.018715 408.906042 
L 710.942405 411.585259 
L 713.866095 407.237569 
L 716.789785 410.109281 
L 719.713475 407.372032 
L 722.637165 409.096018 
L 725.560855 408.791168 
L 728.484545 399.81581 
L 728.484545 399.81581 
" style="fill:none;stroke:#55a868;stroke-dasharray:1.5,1.5;stroke-dashoffset:0;stroke-width:1.5;"/>
   </g>
   <g id="line2d_4">
    <path clip-path="url(#p9706c9ebf7)" d="M 134.975455 378.05043 
L 137.899145 379.908423 
L 140.822835 382.298006 
L 143.746525 379.700118 
L 146.670215 383.944266 
L 149.593905 386.751929 
L 152.517595 384.455848 
L 155.441285 387.985146 
L 158.364975 387.835957 
L 161.288665 387.398533 
L 164.212356 388.662498 
L 167.136046 386.987869 
L 170.059736 393.808918 
L 172.983426 403.266334 
L 175.907116 404.88454 
L 178.830806 430.987186 
L 181.754496 428.792825 
L 184.678186 349.489273 
L 187.601876 318.293341 
L 190.525567 482.502078 
L 193.449257 447.20629 
L 196.372947 422.394194 
L 199.296637 452.965489 
L 202.220327 337.516748 
L 205.144017 328.503263 
L 208.067707 430.381893 
L 210.991397 366.511744 
L 213.915087 410.387581 
L 216.838777 484.408694 
L 219.762468 481.465903 
L 222.686158 458.912915 
L 225.609848 369.425711 
L 228.533538 329.066632 
L 231.457228 385.14782 
L 234.380918 284.8457 
L 237.304608 359.862918 
L 240.228298 438.35777 
L 243.151988 407.683179 
L 246.075678 291.868688 
L 248.999369 282.242092 
L 251.923059 327.463187 
L 254.846749 301.318408 
L 257.770439 343.006357 
L 260.694129 289.258487 
L 263.617819 432.809045 
L 266.541509 361.829751 
L 269.465199 372.725996 
L 272.388889 403.51805 
L 275.312579 403.401741 
L 278.23627 418.462311 
L 281.15996 407.028984 
L 284.08365 347.582745 
L 287.00734 348.78371 
L 289.93103 410.65976 
L 292.85472 376.408157 
L 295.77841 371.294478 
L 298.7021 439.25364 
L 301.62579 407.615772 
L 304.549481 406.282478 
L 307.473171 391.670841 
L 310.396861 358.012445 
L 313.320551 289.85255 
L 316.244241 270.322509 
L 319.167931 71.453368 
L 322.091621 306.718696 
L 327.939001 445.844032 
L 330.862691 401.630428 
L 333.786382 395.473123 
L 336.710072 460.316974 
L 339.633762 499.916376 
L 342.557452 338.134231 
L 345.481142 319.652434 
L 348.404832 229.25841 
L 351.328522 353.485187 
L 354.252212 441.649065 
L 357.175902 239.320594 
L 363.023283 469.452155 
L 365.946973 311.456446 
L 368.870663 262.526325 
L 371.794353 326.263971 
L 374.718043 370.543774 
L 377.641733 395.626615 
L 380.565423 464.027189 
L 383.489113 412.790282 
L 386.412803 409.765079 
L 389.336494 383.777377 
L 392.260184 315.839325 
L 395.183874 370.895917 
L 398.107564 353.349167 
L 401.031254 400.426489 
L 403.954944 419.464381 
L 406.878634 430.255756 
L 409.802324 418.143294 
L 412.726014 420.872707 
L 415.649704 481.884543 
L 418.573395 393.61478 
L 421.497085 457.556848 
L 424.420775 492.388628 
L 427.344465 396.75825 
L 430.268155 437.1468 
L 433.191845 433.881739 
L 436.115535 313.35652 
L 441.962915 460.195943 
L 444.886605 372.016114 
L 447.810296 271.342227 
L 450.733986 316.759804 
L 453.657676 435.594181 
L 456.581366 355.438693 
L 459.505056 400.253654 
L 462.428746 315.03853 
L 465.352436 387.813815 
L 468.276126 360.76519 
L 471.199816 316.317151 
L 474.123506 335.876995 
L 477.047197 339.613287 
L 479.970887 296.860393 
L 482.894577 390.62739 
L 485.818267 416.212297 
L 488.741957 444.219984 
L 491.665647 375.168399 
L 494.589337 327.343486 
L 497.513027 384.499747 
L 500.436717 292.171317 
L 503.360408 256.952415 
L 506.284098 332.352995 
L 509.207788 348.801463 
L 512.131478 411.405882 
L 515.055168 482.818926 
L 517.978858 440.041843 
L 520.902548 464.310876 
L 523.826238 485.698403 
L 526.749928 474.771761 
L 529.673618 490.257441 
L 532.597309 513.140045 
L 535.520999 468.608929 
L 538.444689 321.50964 
L 541.368379 368.679869 
L 544.292069 515.224918 
L 547.215759 436.15295 
L 550.139449 487.119323 
L 553.063139 363.313774 
L 555.986829 379.140124 
L 558.910519 322.8284 
L 561.83421 261.760649 
L 564.7579 255.072174 
L 567.68159 275.759998 
L 570.60528 419.153304 
L 573.52897 271.698392 
L 576.45266 348.235645 
L 579.37635 295.951737 
L 582.30004 269.9608 
L 585.22373 410.857012 
L 588.147421 369.690859 
L 591.071111 356.525764 
L 593.994801 444.142014 
L 596.918491 339.561412 
L 599.842181 345.399263 
L 602.765871 314.233782 
L 605.689561 75.422364 
L 608.613251 71.457533 
L 611.536941 279.197894 
L 614.460631 336.441221 
L 617.384322 71.494809 
L 620.308012 71.499587 
L 623.231702 347.794286 
L 626.155392 490.715188 
L 629.079082 465.01873 
L 632.002772 418.443177 
L 634.926462 393.617368 
L 637.850152 433.325733 
L 640.773842 446.189389 
L 643.697532 368.990246 
L 646.621223 340.363292 
L 649.544913 344.549409 
L 652.468603 498.587804 
L 655.392293 467.419961 
L 658.315983 326.969043 
L 661.239673 420.173668 
L 664.163363 324.969591 
L 667.087053 399.433794 
L 670.010743 466.959416 
L 672.934433 442.064452 
L 675.858124 442.065326 
L 678.781814 398.04852 
L 681.705504 442.574704 
L 684.629194 444.454979 
L 687.552884 349.354198 
L 690.476574 414.70092 
L 693.400264 407.930067 
L 696.323954 405.471993 
L 699.247644 379.389356 
L 702.171335 394.053393 
L 705.095025 412.072039 
L 708.018715 413.466933 
L 710.942405 416.356869 
L 713.866095 413.362134 
L 716.789785 415.137854 
L 719.713475 413.747962 
L 722.637165 410.595782 
L 725.560855 416.282362 
L 728.484545 411.793914 
L 728.484545 411.793914 
" style="fill:none;stroke:#c44e52;stroke-dasharray:4.5,1.875,2.25,1.875;stroke-dashoffset:0;stroke-width:1.5;"/>
   </g>
   <g id="line2d_5">
    <path clip-path="url(#p9706c9ebf7)" d="M 134.975455 381.038065 
L 137.899145 382.794022 
L 140.822835 385.08692 
L 143.746525 382.992812 
L 146.670215 387.105611 
L 149.593905 390.440177 
L 152.517595 388.799829 
L 155.441285 392.47251 
L 158.364975 392.333116 
L 161.288665 392.311533 
L 164.212356 392.086892 
L 167.136046 390.526927 
L 170.059736 394.461784 
L 172.983426 404.026588 
L 175.907116 404.254342 
L 178.830806 430.921354 
L 181.754496 438.851896 
L 184.678186 349.632271 
L 187.601876 330.199754 
L 190.525567 485.50311 
L 193.449257 454.046298 
L 196.372947 431.365284 
L 199.296637 466.165546 
L 202.220327 337.293069 
L 205.144017 333.232688 
L 208.067707 443.366264 
L 210.991397 370.224792 
L 213.915087 400.052099 
L 216.838777 483.017997 
L 219.762468 478.804736 
L 222.686158 464.598726 
L 225.609848 389.709901 
L 228.533538 339.282237 
L 231.457228 395.695525 
L 234.380918 292.538501 
L 237.304608 359.508449 
L 240.228298 438.721456 
L 243.151988 407.850872 
L 246.075678 291.860188 
L 248.999369 278.853989 
L 251.923059 340.047266 
L 254.846749 308.997393 
L 257.770439 349.841468 
L 260.694129 287.822683 
L 263.617819 436.260758 
L 266.541509 364.153013 
L 269.465199 372.331982 
L 272.388889 398.260953 
L 275.312579 400.772196 
L 278.23627 415.326676 
L 281.15996 410.719051 
L 284.08365 354.066098 
L 287.00734 348.376054 
L 289.93103 409.761266 
L 292.85472 379.901462 
L 295.77841 370.153853 
L 298.7021 433.335738 
L 301.62579 404.319335 
L 304.549481 400.868006 
L 307.473171 385.118472 
L 310.396861 364.682504 
L 313.320551 289.268736 
L 316.244241 261.357016 
L 319.167931 71.453353 
L 322.091621 284.09106 
L 325.015311 366.363499 
L 327.939001 422.588087 
L 330.862691 395.066411 
L 333.786382 419.600697 
L 336.710072 435.164313 
L 339.633762 481.312936 
L 342.557452 346.921904 
L 345.481142 364.595911 
L 348.404832 230.499952 
L 351.328522 285.268257 
L 354.252212 370.043386 
L 357.175902 429.463495 
L 360.099592 428.832703 
L 363.023283 512.299757 
L 365.946973 351.056251 
L 368.870663 359.013903 
L 371.794353 372.310715 
L 374.718043 423.781567 
L 377.641733 488.785556 
L 380.565423 508.348706 
L 383.489113 456.174897 
L 386.412803 398.666475 
L 389.336494 387.20352 
L 392.260184 346.264911 
L 395.183874 411.258791 
L 398.107564 359.931356 
L 401.031254 439.457958 
L 403.954944 431.23257 
L 406.878634 437.872703 
L 409.802324 441.157877 
L 412.726014 436.446642 
L 415.649704 501.476935 
L 418.573395 402.875329 
L 421.497085 461.702004 
L 424.420775 484.220816 
L 427.344465 398.142091 
L 430.268155 436.810468 
L 433.191845 442.256002 
L 436.115535 315.036711 
L 439.039225 382.390003 
L 441.962915 464.969268 
L 444.886605 390.653765 
L 447.810296 280.413184 
L 450.733986 319.371632 
L 453.657676 438.615257 
L 456.581366 362.490452 
L 459.505056 394.4855 
L 462.428746 319.904919 
L 465.352436 392.971219 
L 468.276126 366.534445 
L 471.199816 329.945747 
L 474.123506 358.07422 
L 477.047197 338.085102 
L 479.970887 306.097068 
L 482.894577 398.811047 
L 488.741957 439.08927 
L 491.665647 376.668233 
L 494.589337 326.019828 
L 497.513027 383.48449 
L 500.436717 283.556008 
L 503.360408 244.686024 
L 506.284098 332.589512 
L 509.207788 352.123348 
L 512.131478 415.733387 
L 515.055168 482.577565 
L 517.978858 443.789242 
L 520.902548 466.677023 
L 523.826238 475.592145 
L 526.749928 465.321481 
L 529.673618 483.335894 
L 532.597309 484.803757 
L 535.520999 453.74708 
L 538.444689 302.671467 
L 541.368379 363.925398 
L 544.292069 521.746365 
L 547.215759 438.065337 
L 550.139449 487.997354 
L 553.063139 296.644164 
L 555.986829 380.490209 
L 558.910519 315.096317 
L 561.83421 312.5814 
L 564.7579 348.420934 
L 567.68159 323.446775 
L 570.60528 327.471477 
L 573.52897 340.177793 
L 576.45266 441.2837 
L 579.37635 379.240167 
L 582.30004 308.703037 
L 585.22373 406.283807 
L 588.147421 394.52954 
L 591.071111 370.851877 
L 593.994801 406.017575 
L 596.918491 306.577797 
L 599.842181 297.728402 
L 602.765871 297.881666 
L 605.689561 86.009369 
L 608.613251 71.455742 
L 611.536941 261.951727 
L 614.460631 340.297967 
L 617.384322 71.855067 
L 620.308012 71.484916 
L 623.231702 328.574307 
L 626.155392 492.890869 
L 629.079082 476.543599 
L 632.002772 425.548823 
L 634.926462 394.723678 
L 637.850152 415.672837 
L 640.773842 442.463608 
L 643.697532 361.542479 
L 646.621223 335.877397 
L 649.544913 338.798255 
L 652.468603 472.362659 
L 655.392293 441.647246 
L 658.315983 325.909921 
L 661.239673 408.469877 
L 664.163363 320.475371 
L 667.087053 400.953287 
L 670.010743 466.039828 
L 672.934433 459.265722 
L 675.858124 446.367786 
L 678.781814 385.249822 
L 681.705504 447.104359 
L 684.629194 433.27851 
L 687.552884 340.781914 
L 690.476574 398.982553 
L 693.400264 393.315107 
L 696.323954 394.30168 
L 699.247644 370.301153 
L 702.171335 392.51711 
L 705.095025 409.854382 
L 710.942405 412.548396 
L 713.866095 411.101137 
L 716.789785 411.117507 
L 719.713475 411.360827 
L 722.637165 407.805713 
L 725.560855 412.654875 
L 728.484545 409.228836 
L 728.484545 409.228836 
" style="fill:none;stroke:#8172b3;stroke-dasharray:7.5,1.5,1.5,1.5;stroke-dashoffset:0;stroke-width:1.5;"/>
   </g>
   <g id="line2d_6"/>
   <g id="line2d_7"/>
   <g id="line2d_8"/>
   <g id="line2d_9"/>
   <g id="line2d_10"/>
   <g id="patch_3">
    <path d="M 105.3 529.9416 
L 105.3 71.4528 
" style="fill:none;stroke:#262626;stroke-linecap:square;stroke-linejoin:miter;stroke-width:1.25;"/>
   </g>
   <g id="patch_4">
    <path d="M 758.16 529.9416 
L 758.16 71.4528 
" style="fill:none;stroke:#262626;stroke-linecap:square;stroke-linejoin:miter;stroke-width:1.25;"/>
   </g>
   <g id="patch_5">
    <path d="M 105.3 529.9416 
L 758.16 529.9416 
" style="fill:none;stroke:#262626;stroke-linecap:square;stroke-linejoin:miter;stroke-width:1.25;"/>
   </g>
   <g id="patch_6">
    <path d="M 105.3 71.4528 
L 758.16 71.4528 
" style="fill:none;stroke:#262626;stroke-linecap:square;stroke-linejoin:miter;stroke-width:1.25;"/>
   </g>
   <g id="text_16">
    <!-- Activations for &gt;P&lt; -->
    <g style="fill:#262626;" transform="translate(381.372187 65.4528)scale(0.12 -0.12)">
     <defs>
      <path d="M -9 0 
L 1750 4581 
L 2403 4581 
L 4278 0 
L 3588 0 
L 3053 1388 
L 1138 1388 
L 634 0 
L -9 0 
z
M 1313 1881 
L 2866 1881 
L 2388 3150 
Q 2169 3728 2063 4100 
Q 1975 3659 1816 3225 
L 1313 1881 
z
" id="ArialMT-41" transform="scale(0.015625)"/>
      <path d="M 2588 1216 
L 3141 1144 
Q 3050 572 2676 248 
Q 2303 -75 1759 -75 
Q 1078 -75 664 370 
Q 250 816 250 1647 
Q 250 2184 428 2587 
Q 606 2991 970 3192 
Q 1334 3394 1763 3394 
Q 2303 3394 2647 3120 
Q 2991 2847 3088 2344 
L 2541 2259 
Q 2463 2594 2264 2762 
Q 2066 2931 1784 2931 
Q 1359 2931 1093 2626 
Q 828 2322 828 1663 
Q 828 994 1084 691 
Q 1341 388 1753 388 
Q 2084 388 2306 591 
Q 2528 794 2588 1216 
z
" id="ArialMT-63" transform="scale(0.015625)"/>
      <path d="M 1650 503 
L 1731 6 
Q 1494 -44 1306 -44 
Q 1000 -44 831 53 
Q 663 150 594 308 
Q 525 466 525 972 
L 525 2881 
L 113 2881 
L 113 3319 
L 525 3319 
L 525 4141 
L 1084 4478 
L 1084 3319 
L 1650 3319 
L 1650 2881 
L 1084 2881 
L 1084 941 
Q 1084 700 1114 631 
Q 1144 563 1211 522 
Q 1278 481 1403 481 
Q 1497 481 1650 503 
z
" id="ArialMT-74" transform="scale(0.015625)"/>
      <path d="M 425 3934 
L 425 4581 
L 988 4581 
L 988 3934 
L 425 3934 
z
M 425 0 
L 425 3319 
L 988 3319 
L 988 0 
L 425 0 
z
" id="ArialMT-69" transform="scale(0.015625)"/>
      <path d="M 1344 0 
L 81 3319 
L 675 3319 
L 1388 1331 
Q 1503 1009 1600 663 
Q 1675 925 1809 1294 
L 2547 3319 
L 3125 3319 
L 1869 0 
L 1344 0 
z
" id="ArialMT-76" transform="scale(0.015625)"/>
      <path d="M 2588 409 
Q 2275 144 1986 34 
Q 1697 -75 1366 -75 
Q 819 -75 525 192 
Q 231 459 231 875 
Q 231 1119 342 1320 
Q 453 1522 633 1644 
Q 813 1766 1038 1828 
Q 1203 1872 1538 1913 
Q 2219 1994 2541 2106 
Q 2544 2222 2544 2253 
Q 2544 2597 2384 2738 
Q 2169 2928 1744 2928 
Q 1347 2928 1158 2789 
Q 969 2650 878 2297 
L 328 2372 
Q 403 2725 575 2942 
Q 747 3159 1072 3276 
Q 1397 3394 1825 3394 
Q 2250 3394 2515 3294 
Q 2781 3194 2906 3042 
Q 3031 2891 3081 2659 
Q 3109 2516 3109 2141 
L 3109 1391 
Q 3109 606 3145 398 
Q 3181 191 3288 0 
L 2700 0 
Q 2613 175 2588 409 
z
M 2541 1666 
Q 2234 1541 1622 1453 
Q 1275 1403 1131 1340 
Q 988 1278 909 1158 
Q 831 1038 831 891 
Q 831 666 1001 516 
Q 1172 366 1500 366 
Q 1825 366 2078 508 
Q 2331 650 2450 897 
Q 2541 1088 2541 1459 
L 2541 1666 
z
" id="ArialMT-61" transform="scale(0.015625)"/>
      <path d="M 213 1659 
Q 213 2581 725 3025 
Q 1153 3394 1769 3394 
Q 2453 3394 2887 2945 
Q 3322 2497 3322 1706 
Q 3322 1066 3130 698 
Q 2938 331 2570 128 
Q 2203 -75 1769 -75 
Q 1072 -75 642 372 
Q 213 819 213 1659 
z
M 791 1659 
Q 791 1022 1069 705 
Q 1347 388 1769 388 
Q 2188 388 2466 706 
Q 2744 1025 2744 1678 
Q 2744 2294 2464 2611 
Q 2184 2928 1769 2928 
Q 1347 2928 1069 2612 
Q 791 2297 791 1659 
z
" id="ArialMT-6f" transform="scale(0.015625)"/>
      <path d="M 422 0 
L 422 3319 
L 928 3319 
L 928 2847 
Q 1294 3394 1984 3394 
Q 2284 3394 2536 3286 
Q 2788 3178 2913 3003 
Q 3038 2828 3088 2588 
Q 3119 2431 3119 2041 
L 3119 0 
L 2556 0 
L 2556 2019 
Q 2556 2363 2490 2533 
Q 2425 2703 2258 2804 
Q 2091 2906 1866 2906 
Q 1506 2906 1245 2678 
Q 984 2450 984 1813 
L 984 0 
L 422 0 
z
" id="ArialMT-6e" transform="scale(0.015625)"/>
      <path d="M 197 991 
L 753 1078 
Q 800 744 1014 566 
Q 1228 388 1613 388 
Q 2000 388 2187 545 
Q 2375 703 2375 916 
Q 2375 1106 2209 1216 
Q 2094 1291 1634 1406 
Q 1016 1563 777 1677 
Q 538 1791 414 1992 
Q 291 2194 291 2438 
Q 291 2659 392 2848 
Q 494 3038 669 3163 
Q 800 3259 1026 3326 
Q 1253 3394 1513 3394 
Q 1903 3394 2198 3281 
Q 2494 3169 2634 2976 
Q 2775 2784 2828 2463 
L 2278 2388 
Q 2241 2644 2061 2787 
Q 1881 2931 1553 2931 
Q 1166 2931 1000 2803 
Q 834 2675 834 2503 
Q 834 2394 903 2306 
Q 972 2216 1119 2156 
Q 1203 2125 1616 2013 
Q 2213 1853 2448 1751 
Q 2684 1650 2818 1456 
Q 2953 1263 2953 975 
Q 2953 694 2789 445 
Q 2625 197 2315 61 
Q 2006 -75 1616 -75 
Q 969 -75 630 194 
Q 291 463 197 991 
z
" id="ArialMT-73" transform="scale(0.015625)"/>
      <path id="ArialMT-20" transform="scale(0.015625)"/>
      <path d="M 556 0 
L 556 2881 
L 59 2881 
L 59 3319 
L 556 3319 
L 556 3672 
Q 556 4006 616 4169 
Q 697 4388 901 4523 
Q 1106 4659 1475 4659 
Q 1713 4659 2000 4603 
L 1916 4113 
Q 1741 4144 1584 4144 
Q 1328 4144 1222 4034 
Q 1116 3925 1116 3625 
L 1116 3319 
L 1763 3319 
L 1763 2881 
L 1116 2881 
L 1116 0 
L 556 0 
z
" id="ArialMT-66" transform="scale(0.015625)"/>
      <path d="M 416 0 
L 416 3319 
L 922 3319 
L 922 2816 
Q 1116 3169 1280 3281 
Q 1444 3394 1641 3394 
Q 1925 3394 2219 3213 
L 2025 2691 
Q 1819 2813 1613 2813 
Q 1428 2813 1281 2702 
Q 1134 2591 1072 2394 
Q 978 2094 978 1738 
L 978 0 
L 416 0 
z
" id="ArialMT-72" transform="scale(0.015625)"/>
      <path d="M 3384 2003 
L 350 706 
L 350 1266 
L 2753 2263 
L 350 3250 
L 350 3809 
L 3384 2528 
L 3384 2003 
z
" id="ArialMT-3e" transform="scale(0.015625)"/>
      <path d="M 494 0 
L 494 4581 
L 2222 4581 
Q 2678 4581 2919 4538 
Q 3256 4481 3484 4323 
Q 3713 4166 3852 3881 
Q 3991 3597 3991 3256 
Q 3991 2672 3619 2267 
Q 3247 1863 2275 1863 
L 1100 1863 
L 1100 0 
L 494 0 
z
M 1100 2403 
L 2284 2403 
Q 2872 2403 3119 2622 
Q 3366 2841 3366 3238 
Q 3366 3525 3220 3729 
Q 3075 3934 2838 4000 
Q 2684 4041 2272 4041 
L 1100 4041 
L 1100 2403 
z
" id="ArialMT-50" transform="scale(0.015625)"/>
      <path d="M 350 2003 
L 350 2528 
L 3384 3809 
L 3384 3250 
L 978 2263 
L 3384 1266 
L 3384 706 
L 350 2003 
z
" id="ArialMT-3c" transform="scale(0.015625)"/>
     </defs>
     <use xlink:href="#ArialMT-41"/>
     <use x="66.699219" xlink:href="#ArialMT-63"/>
     <use x="116.699219" xlink:href="#ArialMT-74"/>
     <use x="144.482422" xlink:href="#ArialMT-69"/>
     <use x="166.699219" xlink:href="#ArialMT-76"/>
     <use x="216.699219" xlink:href="#ArialMT-61"/>
     <use x="272.314453" xlink:href="#ArialMT-74"/>
     <use x="300.097656" xlink:href="#ArialMT-69"/>
     <use x="322.314453" xlink:href="#ArialMT-6f"/>
     <use x="377.929688" xlink:href="#ArialMT-6e"/>
     <use x="433.544922" xlink:href="#ArialMT-73"/>
     <use x="483.544922" xlink:href="#ArialMT-20"/>
     <use x="511.328125" xlink:href="#ArialMT-66"/>
     <use x="539.111328" xlink:href="#ArialMT-6f"/>
     <use x="594.726562" xlink:href="#ArialMT-72"/>
     <use x="628.027344" xlink:href="#ArialMT-20"/>
     <use x="655.810547" xlink:href="#ArialMT-3e"/>
     <use x="714.208984" xlink:href="#ArialMT-50"/>
     <use x="780.908203" xlink:href="#ArialMT-3c"/>
    </g>
   </g>
   <g id="legend_1">
    <g id="patch_7">
     <path d="M 640.044062 158.514363 
L 750.46 158.514363 
Q 752.66 158.514363 752.66 156.314363 
L 752.66 79.1528 
Q 752.66 76.9528 750.46 76.9528 
L 640.044062 76.9528 
Q 637.844062 76.9528 637.844062 79.1528 
L 637.844062 156.314363 
Q 637.844062 158.514363 640.044062 158.514363 
z
" style="fill:#ffffff;opacity:0.8;stroke:#cccccc;stroke-linejoin:miter;"/>
    </g>
    <g id="line2d_11">
     <path d="M 642.244062 85.376394 
L 664.244062 85.376394 
" style="fill:none;stroke:#4c72b0;stroke-linecap:round;stroke-width:1.5;"/>
    </g>
    <g id="line2d_12"/>
    <g id="text_17">
     <!-- regular -->
     <g style="fill:#262626;" transform="translate(673.044062 89.226394)scale(0.11 -0.11)">
      <defs>
       <path d="M 2694 1069 
L 3275 997 
Q 3138 488 2766 206 
Q 2394 -75 1816 -75 
Q 1088 -75 661 373 
Q 234 822 234 1631 
Q 234 2469 665 2931 
Q 1097 3394 1784 3394 
Q 2450 3394 2872 2941 
Q 3294 2488 3294 1666 
Q 3294 1616 3291 1516 
L 816 1516 
Q 847 969 1125 678 
Q 1403 388 1819 388 
Q 2128 388 2347 550 
Q 2566 713 2694 1069 
z
M 847 1978 
L 2700 1978 
Q 2663 2397 2488 2606 
Q 2219 2931 1791 2931 
Q 1403 2931 1139 2672 
Q 875 2413 847 1978 
z
" id="ArialMT-65" transform="scale(0.015625)"/>
       <path d="M 319 -275 
L 866 -356 
Q 900 -609 1056 -725 
Q 1266 -881 1628 -881 
Q 2019 -881 2231 -725 
Q 2444 -569 2519 -288 
Q 2563 -116 2559 434 
Q 2191 0 1641 0 
Q 956 0 581 494 
Q 206 988 206 1678 
Q 206 2153 378 2554 
Q 550 2956 876 3175 
Q 1203 3394 1644 3394 
Q 2231 3394 2613 2919 
L 2613 3319 
L 3131 3319 
L 3131 450 
Q 3131 -325 2973 -648 
Q 2816 -972 2473 -1159 
Q 2131 -1347 1631 -1347 
Q 1038 -1347 672 -1080 
Q 306 -813 319 -275 
z
M 784 1719 
Q 784 1066 1043 766 
Q 1303 466 1694 466 
Q 2081 466 2343 764 
Q 2606 1063 2606 1700 
Q 2606 2309 2336 2618 
Q 2066 2928 1684 2928 
Q 1309 2928 1046 2623 
Q 784 2319 784 1719 
z
" id="ArialMT-67" transform="scale(0.015625)"/>
       <path d="M 2597 0 
L 2597 488 
Q 2209 -75 1544 -75 
Q 1250 -75 995 37 
Q 741 150 617 320 
Q 494 491 444 738 
Q 409 903 409 1263 
L 409 3319 
L 972 3319 
L 972 1478 
Q 972 1038 1006 884 
Q 1059 663 1231 536 
Q 1403 409 1656 409 
Q 1909 409 2131 539 
Q 2353 669 2445 892 
Q 2538 1116 2538 1541 
L 2538 3319 
L 3100 3319 
L 3100 0 
L 2597 0 
z
" id="ArialMT-75" transform="scale(0.015625)"/>
       <path d="M 409 0 
L 409 4581 
L 972 4581 
L 972 0 
L 409 0 
z
" id="ArialMT-6c" transform="scale(0.015625)"/>
      </defs>
      <use xlink:href="#ArialMT-72"/>
      <use x="33.300781" xlink:href="#ArialMT-65"/>
      <use x="88.916016" xlink:href="#ArialMT-67"/>
      <use x="144.53125" xlink:href="#ArialMT-75"/>
      <use x="200.146484" xlink:href="#ArialMT-6c"/>
      <use x="222.363281" xlink:href="#ArialMT-61"/>
      <use x="277.978516" xlink:href="#ArialMT-72"/>
     </g>
    </g>
    <g id="line2d_13">
     <path d="M 642.244062 101.0978 
L 664.244062 101.0978 
" style="fill:none;stroke:#dd8452;stroke-dasharray:6,2.25;stroke-dashoffset:0;stroke-width:1.5;"/>
    </g>
    <g id="line2d_14"/>
    <g id="text_18">
     <!-- splitted_3s -->
     <g style="fill:#262626;" transform="translate(673.044062 104.9478)scale(0.11 -0.11)">
      <defs>
       <path d="M 422 -1272 
L 422 3319 
L 934 3319 
L 934 2888 
Q 1116 3141 1344 3267 
Q 1572 3394 1897 3394 
Q 2322 3394 2647 3175 
Q 2972 2956 3137 2557 
Q 3303 2159 3303 1684 
Q 3303 1175 3120 767 
Q 2938 359 2589 142 
Q 2241 -75 1856 -75 
Q 1575 -75 1351 44 
Q 1128 163 984 344 
L 984 -1272 
L 422 -1272 
z
M 931 1641 
Q 931 1000 1190 694 
Q 1450 388 1819 388 
Q 2194 388 2461 705 
Q 2728 1022 2728 1688 
Q 2728 2322 2467 2637 
Q 2206 2953 1844 2953 
Q 1484 2953 1207 2617 
Q 931 2281 931 1641 
z
" id="ArialMT-70" transform="scale(0.015625)"/>
       <path d="M 2575 0 
L 2575 419 
Q 2259 -75 1647 -75 
Q 1250 -75 917 144 
Q 584 363 401 755 
Q 219 1147 219 1656 
Q 219 2153 384 2558 
Q 550 2963 881 3178 
Q 1213 3394 1622 3394 
Q 1922 3394 2156 3267 
Q 2391 3141 2538 2938 
L 2538 4581 
L 3097 4581 
L 3097 0 
L 2575 0 
z
M 797 1656 
Q 797 1019 1065 703 
Q 1334 388 1700 388 
Q 2069 388 2326 689 
Q 2584 991 2584 1609 
Q 2584 2291 2321 2609 
Q 2059 2928 1675 2928 
Q 1300 2928 1048 2622 
Q 797 2316 797 1656 
z
" id="ArialMT-64" transform="scale(0.015625)"/>
       <path d="M -97 -1272 
L -97 -866 
L 3631 -866 
L 3631 -1272 
L -97 -1272 
z
" id="ArialMT-5f" transform="scale(0.015625)"/>
       <path d="M 269 1209 
L 831 1284 
Q 928 806 1161 595 
Q 1394 384 1728 384 
Q 2125 384 2398 659 
Q 2672 934 2672 1341 
Q 2672 1728 2419 1979 
Q 2166 2231 1775 2231 
Q 1616 2231 1378 2169 
L 1441 2663 
Q 1497 2656 1531 2656 
Q 1891 2656 2178 2843 
Q 2466 3031 2466 3422 
Q 2466 3731 2256 3934 
Q 2047 4138 1716 4138 
Q 1388 4138 1169 3931 
Q 950 3725 888 3313 
L 325 3413 
Q 428 3978 793 4289 
Q 1159 4600 1703 4600 
Q 2078 4600 2393 4439 
Q 2709 4278 2876 4000 
Q 3044 3722 3044 3409 
Q 3044 3113 2884 2869 
Q 2725 2625 2413 2481 
Q 2819 2388 3044 2092 
Q 3269 1797 3269 1353 
Q 3269 753 2831 336 
Q 2394 -81 1725 -81 
Q 1122 -81 723 278 
Q 325 638 269 1209 
z
" id="ArialMT-33" transform="scale(0.015625)"/>
      </defs>
      <use xlink:href="#ArialMT-73"/>
      <use x="50" xlink:href="#ArialMT-70"/>
      <use x="105.615234" xlink:href="#ArialMT-6c"/>
      <use x="127.832031" xlink:href="#ArialMT-69"/>
      <use x="150.048828" xlink:href="#ArialMT-74"/>
      <use x="177.832031" xlink:href="#ArialMT-74"/>
      <use x="205.615234" xlink:href="#ArialMT-65"/>
      <use x="261.230469" xlink:href="#ArialMT-64"/>
      <use x="316.845703" xlink:href="#ArialMT-5f"/>
      <use x="372.460938" xlink:href="#ArialMT-33"/>
      <use x="428.076172" xlink:href="#ArialMT-73"/>
     </g>
    </g>
    <g id="line2d_15">
     <path d="M 642.244062 116.6903 
L 664.244062 116.6903 
" style="fill:none;stroke:#55a868;stroke-dasharray:1.5,1.5;stroke-dashoffset:0;stroke-width:1.5;"/>
    </g>
    <g id="line2d_16"/>
    <g id="text_19">
     <!-- splitted_1s -->
     <g style="fill:#262626;" transform="translate(673.044062 120.5403)scale(0.11 -0.11)">
      <use xlink:href="#ArialMT-73"/>
      <use x="50" xlink:href="#ArialMT-70"/>
      <use x="105.615234" xlink:href="#ArialMT-6c"/>
      <use x="127.832031" xlink:href="#ArialMT-69"/>
      <use x="150.048828" xlink:href="#ArialMT-74"/>
      <use x="177.832031" xlink:href="#ArialMT-74"/>
      <use x="205.615234" xlink:href="#ArialMT-65"/>
      <use x="261.230469" xlink:href="#ArialMT-64"/>
      <use x="316.845703" xlink:href="#ArialMT-5f"/>
      <use x="372.460938" xlink:href="#ArialMT-31"/>
      <use x="428.076172" xlink:href="#ArialMT-73"/>
     </g>
    </g>
    <g id="line2d_17">
     <path d="M 642.244062 132.384206 
L 664.244062 132.384206 
" style="fill:none;stroke:#c44e52;stroke-dasharray:4.5,1.875,2.25,1.875;stroke-dashoffset:0;stroke-width:1.5;"/>
    </g>
    <g id="line2d_18"/>
    <g id="text_20">
     <!-- overlap_1f_3s -->
     <g style="fill:#262626;" transform="translate(673.044062 136.234206)scale(0.11 -0.11)">
      <use xlink:href="#ArialMT-6f"/>
      <use x="55.615234" xlink:href="#ArialMT-76"/>
      <use x="105.615234" xlink:href="#ArialMT-65"/>
      <use x="161.230469" xlink:href="#ArialMT-72"/>
      <use x="194.53125" xlink:href="#ArialMT-6c"/>
      <use x="216.748047" xlink:href="#ArialMT-61"/>
      <use x="272.363281" xlink:href="#ArialMT-70"/>
      <use x="327.978516" xlink:href="#ArialMT-5f"/>
      <use x="383.59375" xlink:href="#ArialMT-31"/>
      <use x="439.208984" xlink:href="#ArialMT-66"/>
      <use x="466.992188" xlink:href="#ArialMT-5f"/>
      <use x="522.607422" xlink:href="#ArialMT-33"/>
      <use x="578.222656" xlink:href="#ArialMT-73"/>
     </g>
    </g>
    <g id="line2d_19">
     <path d="M 642.244062 148.078113 
L 664.244062 148.078113 
" style="fill:none;stroke:#8172b3;stroke-dasharray:7.5,1.5,1.5,1.5;stroke-dashoffset:0;stroke-width:1.5;"/>
    </g>
    <g id="line2d_20"/>
    <g id="text_21">
     <!-- overlap_10f_3s -->
     <g style="fill:#262626;" transform="translate(673.044062 151.928112)scale(0.11 -0.11)">
      <use xlink:href="#ArialMT-6f"/>
      <use x="55.615234" xlink:href="#ArialMT-76"/>
      <use x="105.615234" xlink:href="#ArialMT-65"/>
      <use x="161.230469" xlink:href="#ArialMT-72"/>
      <use x="194.53125" xlink:href="#ArialMT-6c"/>
      <use x="216.748047" xlink:href="#ArialMT-61"/>
      <use x="272.363281" xlink:href="#ArialMT-70"/>
      <use x="327.978516" xlink:href="#ArialMT-5f"/>
      <use x="383.59375" xlink:href="#ArialMT-31"/>
      <use x="439.208984" xlink:href="#ArialMT-30"/>
      <use x="494.824219" xlink:href="#ArialMT-66"/>
      <use x="522.607422" xlink:href="#ArialMT-5f"/>
      <use x="578.222656" xlink:href="#ArialMT-33"/>
      <use x="633.837891" xlink:href="#ArialMT-73"/>
     </g>
    </g>
   </g>
  </g>
 </g>
 <defs>
  <clipPath id="p9706c9ebf7">
   <rect height="458.4888" width="652.86" x="105.3" y="71.4528"/>
  </clipPath>
 </defs>
</svg>
