<?xml version="1.0" encoding="utf-8" standalone="no"?>
<!DOCTYPE svg PUBLIC "-//W3C//DTD SVG 1.1//EN"
  "http://www.w3.org/Graphics/SVG/1.1/DTD/svg11.dtd">
<svg height="595.44pt" version="1.1" viewBox="0 0 842.4 595.44" width="842.4pt" xmlns="http://www.w3.org/2000/svg" xmlns:xlink="http://www.w3.org/1999/xlink">
 <metadata>
  <rdf:RDF xmlns:cc="http://creativecommons.org/ns#" xmlns:dc="http://purl.org/dc/elements/1.1/" xmlns:rdf="http://www.w3.org/1999/02/22-rdf-syntax-ns#">
   <cc:Work>
    <dc:type rdf:resource="http://purl.org/dc/dcmitype/StillImage"/>
    <dc:date>2021-06-01T00:54:11.932272</dc:date>
    <dc:format>image/svg+xml</dc:format>
    <dc:creator>
     <cc:Agent>
      <dc:title>Matplotlib v3.4.1, https://matplotlib.org/</dc:title>
     </cc:Agent>
    </dc:creator>
   </cc:Work>
  </rdf:RDF>
 </metadata>
 <defs>
  <style type="text/css">*{stroke-linecap:butt;stroke-linejoin:round;}</style>
 </defs>
 <g id="figure_1">
  <g id="patch_1">
   <path d="M 0 595.44 
L 842.4 595.44 
L 842.4 0 
L 0 0 
z
" style="fill:#ffffff;"/>
  </g>
  <g id="axes_1">
   <g id="patch_2">
    <path d="M 105.3 529.9416 
L 758.16 529.9416 
L 758.16 71.4528 
L 105.3 71.4528 
z
" style="fill:#ffffff;"/>
   </g>
   <g id="matplotlib.axis_1">
    <g id="xtick_1">
     <g id="text_1">
      <!-- 0 -->
      <g style="fill:#262626;" transform="translate(131.916939 547.315194)scale(0.11 -0.11)">
       <defs>
        <path d="M 266 2259 
Q 266 3072 433 3567 
Q 600 4063 929 4331 
Q 1259 4600 1759 4600 
Q 2128 4600 2406 4451 
Q 2684 4303 2865 4023 
Q 3047 3744 3150 3342 
Q 3253 2941 3253 2259 
Q 3253 1453 3087 958 
Q 2922 463 2592 192 
Q 2263 -78 1759 -78 
Q 1097 -78 719 397 
Q 266 969 266 2259 
z
M 844 2259 
Q 844 1131 1108 757 
Q 1372 384 1759 384 
Q 2147 384 2411 759 
Q 2675 1134 2675 2259 
Q 2675 3391 2411 3762 
Q 2147 4134 1753 4134 
Q 1366 4134 1134 3806 
Q 844 3388 844 2259 
z
" id="ArialMT-30" transform="scale(0.015625)"/>
       </defs>
       <use xlink:href="#ArialMT-30"/>
      </g>
     </g>
    </g>
    <g id="xtick_2">
     <g id="text_2">
      <!-- 25 -->
      <g style="fill:#262626;" transform="translate(201.950676 547.315194)scale(0.11 -0.11)">
       <defs>
        <path d="M 3222 541 
L 3222 0 
L 194 0 
Q 188 203 259 391 
Q 375 700 629 1000 
Q 884 1300 1366 1694 
Q 2113 2306 2375 2664 
Q 2638 3022 2638 3341 
Q 2638 3675 2398 3904 
Q 2159 4134 1775 4134 
Q 1369 4134 1125 3890 
Q 881 3647 878 3216 
L 300 3275 
Q 359 3922 746 4261 
Q 1134 4600 1788 4600 
Q 2447 4600 2831 4234 
Q 3216 3869 3216 3328 
Q 3216 3053 3103 2787 
Q 2991 2522 2730 2228 
Q 2469 1934 1863 1422 
Q 1356 997 1212 845 
Q 1069 694 975 541 
L 3222 541 
z
" id="ArialMT-32" transform="scale(0.015625)"/>
        <path d="M 266 1200 
L 856 1250 
Q 922 819 1161 601 
Q 1400 384 1738 384 
Q 2144 384 2425 690 
Q 2706 997 2706 1503 
Q 2706 1984 2436 2262 
Q 2166 2541 1728 2541 
Q 1456 2541 1237 2417 
Q 1019 2294 894 2097 
L 366 2166 
L 809 4519 
L 3088 4519 
L 3088 3981 
L 1259 3981 
L 1013 2750 
Q 1425 3038 1878 3038 
Q 2478 3038 2890 2622 
Q 3303 2206 3303 1553 
Q 3303 931 2941 478 
Q 2500 -78 1738 -78 
Q 1113 -78 717 272 
Q 322 622 266 1200 
z
" id="ArialMT-35" transform="scale(0.015625)"/>
       </defs>
       <use xlink:href="#ArialMT-32"/>
       <use x="55.615234" xlink:href="#ArialMT-35"/>
      </g>
     </g>
    </g>
    <g id="xtick_3">
     <g id="text_3">
      <!-- 50 -->
      <g style="fill:#262626;" transform="translate(275.042928 547.315194)scale(0.11 -0.11)">
       <use xlink:href="#ArialMT-35"/>
       <use x="55.615234" xlink:href="#ArialMT-30"/>
      </g>
     </g>
    </g>
    <g id="xtick_4">
     <g id="text_4">
      <!-- 75 -->
      <g style="fill:#262626;" transform="translate(348.135181 547.315194)scale(0.11 -0.11)">
       <defs>
        <path d="M 303 3981 
L 303 4522 
L 3269 4522 
L 3269 4084 
Q 2831 3619 2401 2847 
Q 1972 2075 1738 1259 
Q 1569 684 1522 0 
L 944 0 
Q 953 541 1156 1306 
Q 1359 2072 1739 2783 
Q 2119 3494 2547 3981 
L 303 3981 
z
" id="ArialMT-37" transform="scale(0.015625)"/>
       </defs>
       <use xlink:href="#ArialMT-37"/>
       <use x="55.615234" xlink:href="#ArialMT-35"/>
      </g>
     </g>
    </g>
    <g id="xtick_5">
     <g id="text_5">
      <!-- 100 -->
      <g style="fill:#262626;" transform="translate(418.168918 547.315194)scale(0.11 -0.11)">
       <defs>
        <path d="M 2384 0 
L 1822 0 
L 1822 3584 
Q 1619 3391 1289 3197 
Q 959 3003 697 2906 
L 697 3450 
Q 1169 3672 1522 3987 
Q 1875 4303 2022 4600 
L 2384 4600 
L 2384 0 
z
" id="ArialMT-31" transform="scale(0.015625)"/>
       </defs>
       <use xlink:href="#ArialMT-31"/>
       <use x="55.615234" xlink:href="#ArialMT-30"/>
       <use x="111.230469" xlink:href="#ArialMT-30"/>
      </g>
     </g>
    </g>
    <g id="xtick_6">
     <g id="text_6">
      <!-- 125 -->
      <g style="fill:#262626;" transform="translate(491.261171 547.315194)scale(0.11 -0.11)">
       <use xlink:href="#ArialMT-31"/>
       <use x="55.615234" xlink:href="#ArialMT-32"/>
       <use x="111.230469" xlink:href="#ArialMT-35"/>
      </g>
     </g>
    </g>
    <g id="xtick_7">
     <g id="text_7">
      <!-- 150 -->
      <g style="fill:#262626;" transform="translate(564.353423 547.315194)scale(0.11 -0.11)">
       <use xlink:href="#ArialMT-31"/>
       <use x="55.615234" xlink:href="#ArialMT-35"/>
       <use x="111.230469" xlink:href="#ArialMT-30"/>
      </g>
     </g>
    </g>
    <g id="xtick_8">
     <g id="text_8">
      <!-- 175 -->
      <g style="fill:#262626;" transform="translate(637.445676 547.315194)scale(0.11 -0.11)">
       <use xlink:href="#ArialMT-31"/>
       <use x="55.615234" xlink:href="#ArialMT-37"/>
       <use x="111.230469" xlink:href="#ArialMT-35"/>
      </g>
     </g>
    </g>
    <g id="xtick_9">
     <g id="text_9">
      <!-- 200 -->
      <g style="fill:#262626;" transform="translate(710.537928 547.315194)scale(0.11 -0.11)">
       <use xlink:href="#ArialMT-32"/>
       <use x="55.615234" xlink:href="#ArialMT-30"/>
       <use x="111.230469" xlink:href="#ArialMT-30"/>
      </g>
     </g>
    </g>
   </g>
   <g id="matplotlib.axis_2">
    <g id="ytick_1">
     <g id="text_10">
      <!-- −25 -->
      <g style="fill:#262626;" transform="translate(77.14125 533.878397)scale(0.11 -0.11)">
       <defs>
        <path d="M 3381 1997 
L 356 1997 
L 356 2522 
L 3381 2522 
L 3381 1997 
z
" id="ArialMT-2212" transform="scale(0.015625)"/>
       </defs>
       <use xlink:href="#ArialMT-2212"/>
       <use x="58.398438" xlink:href="#ArialMT-32"/>
       <use x="114.013672" xlink:href="#ArialMT-35"/>
      </g>
     </g>
    </g>
    <g id="ytick_2">
     <g id="text_11">
      <!-- −20 -->
      <g style="fill:#262626;" transform="translate(77.14125 442.180637)scale(0.11 -0.11)">
       <use xlink:href="#ArialMT-2212"/>
       <use x="58.398438" xlink:href="#ArialMT-32"/>
       <use x="114.013672" xlink:href="#ArialMT-30"/>
      </g>
     </g>
    </g>
    <g id="ytick_3">
     <g id="text_12">
      <!-- −15 -->
      <g style="fill:#262626;" transform="translate(77.14125 350.482877)scale(0.11 -0.11)">
       <use xlink:href="#ArialMT-2212"/>
       <use x="58.398438" xlink:href="#ArialMT-31"/>
       <use x="114.013672" xlink:href="#ArialMT-35"/>
      </g>
     </g>
    </g>
    <g id="ytick_4">
     <g id="text_13">
      <!-- −10 -->
      <g style="fill:#262626;" transform="translate(77.14125 258.785117)scale(0.11 -0.11)">
       <use xlink:href="#ArialMT-2212"/>
       <use x="58.398438" xlink:href="#ArialMT-31"/>
       <use x="114.013672" xlink:href="#ArialMT-30"/>
      </g>
     </g>
    </g>
    <g id="ytick_5">
     <g id="text_14">
      <!-- −5 -->
      <g style="fill:#262626;" transform="translate(83.258281 167.087357)scale(0.11 -0.11)">
       <use xlink:href="#ArialMT-2212"/>
       <use x="58.398438" xlink:href="#ArialMT-35"/>
      </g>
     </g>
    </g>
    <g id="ytick_6">
     <g id="text_15">
      <!-- 0 -->
      <g style="fill:#262626;" transform="translate(89.682969 75.389597)scale(0.11 -0.11)">
       <use xlink:href="#ArialMT-30"/>
      </g>
     </g>
    </g>
   </g>
   <g id="line2d_1">
    <path clip-path="url(#p5bdc936345)" d="M 134.975455 572.007017 
L 137.899145 572.943954 
L 140.822835 574.141492 
L 143.746525 573.751361 
L 146.670215 575.717232 
L 149.593905 576.841207 
L 152.517595 578.166561 
L 155.441285 580.725937 
L 158.364975 583.836456 
L 161.288665 585.262483 
L 164.212356 587.300553 
L 167.136046 591.411323 
L 167.812488 596.44 
M 185.794833 596.44 
L 187.601876 552.366667 
L 189.615437 596.44 
M 201.665443 596.44 
L 202.220327 583.099149 
L 205.144017 574.460683 
L 205.875778 596.44 
M 209.93693 596.44 
L 210.991397 559.299862 
L 214.852648 596.44 
M 222.430448 596.44 
L 222.686158 594.503583 
L 225.609848 573.707811 
L 227.420538 596.44 
M 232.296894 596.44 
L 234.380918 524.951854 
L 237.884503 596.44 
M 243.427383 596.44 
L 246.075678 497.350739 
L 248.999369 487.395979 
L 251.923059 579.094613 
L 254.846749 569.107112 
L 257.742195 596.44 
M 257.781149 596.44 
L 260.694129 523.924039 
L 262.479197 596.44 
M 265.066668 596.44 
L 266.541509 549.355245 
L 269.465199 540.810526 
L 272.388889 558.699851 
L 275.312579 573.030494 
L 278.23627 574.948408 
L 281.15996 559.657951 
L 284.08365 530.125594 
L 287.00734 542.098766 
L 289.93103 587.333189 
L 292.85472 547.578335 
L 295.77841 531.48278 
L 298.7021 587.159688 
L 301.62579 587.993015 
L 304.549481 551.003254 
L 307.473171 527.318456 
L 310.396861 555.970683 
L 313.320551 529.507009 
L 316.244241 557.756338 
L 319.167931 532.916502 
L 322.091621 544.59091 
L 325.015311 504.582208 
L 327.939001 544.252375 
L 330.862691 580.8689 
L 333.786382 557.33364 
L 336.710072 523.526038 
L 339.633762 579.836502 
L 341.818804 596.44 
M 342.778596 596.44 
L 345.481142 527.847877 
L 348.404832 496.2438 
L 351.328522 480.237898 
L 354.252212 552.173612 
L 357.175902 541.561719 
L 360.099592 529.356176 
L 362.585445 596.44 
M 363.436098 596.44 
L 365.946973 524.573791 
L 368.870663 524.017961 
L 371.794353 539.05198 
L 374.746179 596.44 
M 382.289647 596.44 
L 383.489113 559.803433 
L 386.412803 543.271853 
L 389.336494 586.103085 
L 392.260184 560.561203 
L 395.183874 576.489309 
L 398.107564 525.186675 
L 401.031254 503.133829 
L 403.954944 507.039582 
L 406.878634 552.949187 
L 409.802324 507.143018 
L 412.726014 487.712197 
L 415.649704 574.122008 
L 418.573395 549.368328 
L 421.497085 589.159176 
L 421.783759 596.44 
M 433.212694 596.44 
L 436.115535 525.294448 
L 439.039225 539.811114 
L 441.962915 586.072268 
L 444.886605 581.768163 
L 447.810296 504.142265 
L 450.733986 470.432257 
L 453.657676 536.107161 
L 456.581366 517.578262 
L 458.110417 596.44 
M 461.372895 596.44 
L 462.428746 555.779832 
L 465.352436 562.678887 
L 468.276126 541.666974 
L 471.199816 544.162441 
L 473.118065 596.44 
M 475.215878 596.44 
L 477.047197 550.503251 
L 479.970887 464.535657 
L 482.894577 578.598878 
L 485.818267 582.840018 
L 488.741957 585.742757 
L 491.665647 542.69213 
L 494.589337 545.515675 
L 496.150221 596.44 
M 498.844044 596.44 
L 500.436717 543.237502 
L 503.360408 468.612951 
L 506.284098 553.798115 
L 507.573541 596.44 
M 516.082114 596.44 
L 517.978858 536.110029 
L 520.902548 583.045385 
L 523.826238 591.95575 
L 526.749928 544.6792 
L 529.551575 596.44 
M 534.286503 596.44 
L 535.520999 556.769939 
L 538.444689 532.468305 
L 541.163142 596.44 
M 545.034597 596.44 
L 547.215759 545.302507 
L 550.139449 583.862446 
L 553.063139 490.920835 
L 555.986829 566.469766 
L 558.910519 540.905706 
L 561.83421 540.913402 
L 564.7579 554.539234 
L 567.68159 518.277301 
L 570.60528 525.902574 
L 573.52897 516.472407 
L 576.45266 493.476923 
L 579.37635 532.738035 
L 582.30004 544.340349 
L 585.22373 538.661534 
L 588.147421 529.099284 
L 591.071111 523.547376 
L 593.994801 548.546195 
L 596.918491 482.802276 
L 599.842181 536.878118 
L 602.765871 524.996699 
L 605.689561 532.513673 
L 608.613251 522.484931 
L 611.312814 596.44 
M 614.712566 596.44 
L 617.384322 460.664534 
L 620.308012 494.599324 
L 625.300636 596.44 
M 628.493992 596.44 
L 632.002772 570.30402 
L 634.926462 543.92951 
L 637.850152 580.565729 
L 640.773842 508.752724 
L 643.697532 451.779565 
L 646.621223 500.569486 
L 649.544913 516.474506 
L 652.468603 582.439148 
L 655.392293 547.544895 
L 658.315983 521.930044 
L 661.239673 586.021582 
L 664.163363 520.28319 
L 667.087053 574.353015 
L 670.010743 579.825973 
L 672.934433 559.939539 
L 675.858124 566.538221 
L 678.781814 535.963358 
L 681.599993 596.44 
M 686.616881 596.44 
L 687.552884 575.324862 
L 688.180255 596.44 
M 698.672373 596.44 
L 699.247644 590.565543 
L 702.171335 591.72107 
L 703.607512 596.44 
M 720.622198 596.44 
L 722.637165 595.067984 
L 723.718992 596.44 
L 723.718992 596.44 
" style="fill:none;stroke:#4c72b0;stroke-linecap:round;stroke-width:1.5;"/>
   </g>
   <g id="line2d_2">
    <path clip-path="url(#p5bdc936345)" d="M 134.975455 561.853676 
L 137.899145 565.631122 
L 140.822835 566.585339 
L 143.746525 566.437409 
L 146.670215 569.211037 
L 149.593905 570.45076 
L 152.517595 570.028937 
L 155.441285 571.815677 
L 158.364975 572.530456 
L 161.288665 574.154119 
L 164.212356 574.482126 
L 167.136046 575.593963 
L 170.059736 594.416587 
L 170.967323 596.44 
M 185.283681 596.44 
L 187.601876 526.424054 
L 189.906524 596.44 
M 202.108068 596.44 
L 202.220327 594.662391 
L 202.840683 596.44 
M 210.626955 596.44 
L 210.991397 584.942136 
L 213.915087 572.072744 
L 215.472661 596.44 
M 222.69746 596.44 
L 225.609848 570.516872 
L 228.674413 596.44 
M 232.12295 596.44 
L 234.380918 518.281324 
L 237.304608 573.297741 
L 238.366287 596.44 
M 243.354439 596.44 
L 246.075678 508.452561 
L 248.999369 516.690612 
L 251.923059 575.660495 
L 254.846749 569.058035 
L 257.370238 596.44 
M 257.978621 596.44 
L 260.694129 539.796703 
L 262.195538 596.44 
M 265.550956 596.44 
L 266.541509 568.945225 
L 269.465199 554.705494 
L 272.388889 588.6194 
L 273.818629 596.44 
M 279.338849 596.44 
L 281.15996 587.624641 
L 284.08365 543.606995 
L 287.00734 557.584481 
L 288.972349 596.44 
M 291.625159 596.44 
L 295.77841 549.039796 
L 298.081345 596.44 
M 302.739781 596.44 
L 304.549481 566.217595 
L 307.473171 545.754762 
L 310.396861 550.123684 
L 313.320551 548.759362 
L 316.244241 574.800268 
L 319.167931 566.728057 
L 322.091621 556.20977 
L 325.015311 502.130045 
L 327.939001 574.680707 
L 330.862691 580.996926 
L 333.786382 548.846882 
L 336.710072 561.044345 
L 339.459414 596.44 
M 342.615763 596.44 
L 345.481142 531.81488 
L 348.404832 509.544914 
L 351.328522 563.037116 
L 354.062316 596.44 
M 354.347237 596.44 
L 357.175902 527.371276 
L 360.099592 449.70578 
L 363.023283 448.59069 
L 365.946973 491.805337 
L 368.870663 475.241576 
L 371.794353 484.775178 
L 374.718043 534.001859 
L 380.563006 596.44 
M 380.566445 596.44 
L 383.489113 522.169447 
L 389.336494 588.570079 
L 392.260184 565.284681 
L 395.183874 584.70081 
L 398.107564 531.35178 
L 401.031254 503.659507 
L 403.954944 543.57212 
L 406.878634 552.820286 
L 409.802324 545.444945 
L 412.726014 549.108147 
L 415.649704 594.548777 
L 418.573395 550.234955 
L 421.883827 596.44 
M 426.325762 596.44 
L 427.344465 575.916758 
L 430.268155 583.135843 
L 433.191845 564.620587 
L 436.115535 515.069363 
L 439.039225 576.682363 
L 440.904787 596.44 
M 442.597368 596.44 
L 444.886605 556.005138 
L 447.810296 484.024019 
L 450.733986 504.626912 
L 453.657676 540.160144 
L 456.581366 555.87148 
L 457.616322 596.44 
M 461.405304 596.44 
L 462.428746 556.565936 
L 465.352436 578.383297 
L 468.276126 530.136158 
L 471.199816 548.30193 
L 474.123506 595.056125 
L 477.047197 580.785857 
L 479.970887 470.351838 
L 482.894577 571.884342 
L 485.589952 596.44 
M 488.89442 596.44 
L 491.665647 560.37434 
L 494.589337 552.300275 
L 496.066238 596.44 
M 498.827825 596.44 
L 500.436717 543.528325 
L 503.360408 466.59482 
L 507.664153 596.44 
M 516.614 596.44 
L 517.978858 564.481787 
L 520.902548 593.279985 
L 523.826238 588.044925 
L 526.749928 557.627402 
L 529.041022 596.44 
M 534.083738 596.44 
L 535.520999 554.684996 
L 538.444689 533.896255 
L 541.368379 572.050007 
L 543.563361 596.44 
M 544.541522 596.44 
L 547.215759 509.634812 
L 550.139449 557.999308 
L 553.063139 503.333844 
L 555.986829 500.662148 
L 558.910519 469.942783 
L 561.83421 435.260123 
L 564.7579 510.876879 
L 567.68159 480.572726 
L 570.60528 579.730093 
L 573.52897 460.655055 
L 576.45266 465.824177 
L 579.37635 510.809158 
L 582.30004 467.205324 
L 585.22373 545.363372 
L 588.147421 518.463849 
L 591.071111 537.748069 
L 593.994801 571.866433 
L 596.918491 505.055276 
L 599.842181 588.323645 
L 602.765871 543.173944 
L 605.689561 577.041502 
L 607.640086 596.44 
M 616.461101 596.44 
L 617.384322 565.880704 
L 620.308012 553.625559 
L 623.231702 582.980043 
L 623.770391 596.44 
M 634.216992 596.44 
L 634.926462 590.890157 
L 637.850152 593.865829 
L 640.773842 540.547022 
L 643.697532 453.621607 
L 646.621223 523.584734 
L 649.544913 549.145611 
L 652.468603 590.389769 
L 655.392293 578.965432 
L 658.315983 501.062144 
L 661.239673 587.719787 
L 664.163363 516.592038 
L 667.087053 585.186821 
L 670.010743 595.367482 
L 672.934433 562.983037 
L 675.858124 572.354857 
L 678.781814 563.775962 
L 680.888061 596.44 
M 686.68214 596.44 
L 687.552884 575.157903 
L 688.221874 596.44 
M 700.203702 596.44 
L 702.171335 582.661271 
L 705.095025 593.232028 
L 708.018715 593.154582 
L 710.942405 594.920648 
L 713.866095 592.535927 
L 716.789785 594.22906 
L 719.713475 594.023693 
L 722.637165 589.827187 
L 725.560855 594.177255 
L 728.484545 589.017647 
L 728.484545 589.017647 
" style="fill:none;stroke:#dd8452;stroke-dasharray:6,2.25;stroke-dashoffset:0;stroke-width:1.5;"/>
   </g>
   <g id="line2d_3">
    <path clip-path="url(#p5bdc936345)" d="M 134.975455 562.68214 
L 137.899145 566.40166 
L 140.822835 568.472226 
L 143.746525 565.628639 
L 146.670215 576.307273 
L 149.593905 576.100787 
L 152.517595 578.750446 
L 155.023519 596.44 
M 160.099341 596.44 
L 161.288665 592.990526 
L 164.212356 593.801151 
L 167.136046 586.139534 
L 170.059736 589.29119 
L 171.067776 596.44 
M 184.425967 596.44 
L 184.678186 586.787572 
L 187.601876 534.693797 
L 190.525567 568.549357 
L 193.449257 592.902447 
L 196.372947 589.082989 
L 197.177926 596.44 
M 201.451563 596.44 
L 202.220327 589.532062 
L 205.144017 594.997219 
L 208.067707 495.315747 
L 210.991397 567.148481 
L 213.553878 596.44 
M 214.351684 596.44 
L 216.838777 572.919153 
L 219.762468 557.585916 
L 222.686158 553.603137 
L 225.609848 504.861732 
L 228.533538 552.531492 
L 231.457228 593.494622 
L 234.380918 530.728718 
L 237.304608 575.502176 
L 238.039234 596.44 
M 243.780483 596.44 
L 246.075678 499.293279 
L 248.999369 538.401039 
L 251.923059 534.64458 
L 254.945087 596.44 
M 258.196708 596.44 
L 260.694129 527.896779 
L 262.92315 596.44 
M 264.782641 596.44 
L 266.541509 564.184632 
L 269.465199 580.174583 
L 272.175387 596.44 
M 272.5797 596.44 
L 275.312579 578.087856 
L 278.23627 557.267808 
L 281.15996 488.97917 
L 284.08365 470.519182 
L 287.00734 463.762391 
L 289.93103 502.765071 
L 292.85472 514.747617 
L 295.77841 541.593306 
L 297.849679 596.44 
M 304.044877 596.44 
L 304.549481 584.136654 
L 307.473171 573.451723 
L 309.459651 596.44 
M 319.30318 596.44 
L 322.091621 574.635653 
L 325.015311 524.425407 
L 327.939001 585.283086 
L 329.01615 596.44 
M 332.135718 596.44 
L 333.786382 571.640183 
L 336.710072 573.84843 
L 338.12351 596.44 
M 344.416447 596.44 
L 345.481142 563.529773 
L 348.404832 526.445112 
L 350.982462 596.44 
M 351.789377 596.44 
L 354.252212 546.22094 
L 356.818709 596.44 
M 357.395462 596.44 
L 360.099592 510.359072 
L 363.023283 577.850238 
L 365.946973 503.605289 
L 368.870663 545.669027 
L 371.794353 480.455298 
L 374.718043 584.461827 
L 376.45636 596.44 
M 378.82764 596.44 
L 380.565423 584.470887 
L 383.489113 570.700832 
L 386.412803 586.923154 
L 387.07364 596.44 
M 395.582975 596.44 
L 398.107564 554.408934 
L 401.031254 544.886736 
L 406.878634 567.562119 
L 409.802324 594.17659 
L 412.726014 567.718794 
L 415.649704 573.278992 
L 418.112831 596.44 
M 418.762074 596.44 
L 421.497085 533.663813 
L 424.420775 479.456167 
L 427.344465 457.359631 
L 430.268155 473.208893 
L 433.191845 477.620071 
L 436.115535 456.690745 
L 439.039225 539.135127 
L 441.962915 591.020282 
L 444.886605 535.826132 
L 447.810296 566.816277 
L 450.733986 512.427889 
L 453.657676 524.688561 
L 456.581366 574.119035 
L 456.954759 596.44 
M 464.1855 596.44 
L 465.352436 580.011472 
L 468.276126 571.002708 
L 471.199816 504.86628 
L 474.123506 564.227308 
L 477.047197 530.256454 
L 479.970887 509.548832 
L 482.894577 571.442196 
L 484.717266 596.44 
M 487.609404 596.44 
L 488.741957 586.892127 
L 491.665647 583.074209 
L 494.589337 495.077009 
L 497.513027 548.171035 
L 500.436717 491.485166 
L 503.360408 506.565674 
L 506.284098 578.582507 
L 509.207788 538.284696 
L 512.131478 549.108287 
L 515.055168 573.030145 
L 517.978858 569.206035 
L 519.42559 596.44 
M 537.534322 596.44 
L 538.444689 585.765424 
L 539.912476 596.44 
M 544.463077 596.44 
L 547.215759 489.501315 
L 550.139449 582.028694 
L 553.063139 532.989156 
L 555.986829 493.55206 
L 558.910519 513.359299 
L 561.83421 482.613664 
L 564.7579 477.834183 
L 567.68159 476.124679 
L 570.60528 522.841621 
L 573.52897 550.922661 
L 576.45266 477.448774 
L 579.37635 531.72659 
L 582.30004 551.172942 
L 585.22373 591.497618 
L 588.147421 562.825243 
L 591.071111 580.808175 
L 593.994801 574.974049 
L 596.918491 492.748571 
L 599.655532 596.44 
M 601.264645 596.44 
L 602.765871 588.977385 
L 605.689561 560.228124 
L 608.613251 570.010538 
L 610.239746 596.44 
M 615.337182 596.44 
L 617.384322 516.280682 
L 620.308012 486.560518 
L 623.231702 571.038003 
L 624.256961 596.44 
M 627.917489 596.44 
L 629.079082 565.433451 
L 631.272642 596.44 
M 635.030104 596.44 
L 637.850152 520.365462 
L 640.773842 502.703017 
L 643.697532 521.88478 
L 646.621223 589.193421 
L 649.544913 525.696367 
L 652.468603 592.492342 
L 655.392293 576.498124 
L 658.315983 508.660272 
L 661.239673 575.225939 
L 664.163363 518.72375 
L 667.087053 584.735965 
L 670.010743 590.184087 
L 672.934433 531.586776 
L 675.858124 586.82626 
L 678.781814 577.728158 
L 679.891147 596.44 
M 687.526736 596.44 
L 687.552884 595.803296 
L 687.580185 596.44 
M 727.046327 596.44 
L 728.484545 591.245378 
L 728.484545 591.245378 
" style="fill:none;stroke:#55a868;stroke-dasharray:1.5,1.5;stroke-dashoffset:0;stroke-width:1.5;"/>
   </g>
   <g id="line2d_4">
    <path clip-path="url(#p5bdc936345)" d="M 134.975455 561.75811 
L 137.899145 565.511945 
L 140.822835 566.535213 
L 143.746525 566.251281 
L 146.670215 569.203586 
L 149.593905 570.426484 
L 152.517595 570.108517 
L 155.441285 572.044236 
L 158.364975 572.946158 
L 161.288665 574.632645 
L 164.212356 574.898422 
L 167.136046 576.177918 
L 170.059736 595.114717 
L 170.655436 596.44 
M 185.317007 596.44 
L 187.601876 526.939343 
L 189.875786 596.44 
M 202.134675 596.44 
L 202.220327 595.080087 
L 203.204484 596.44 
M 210.490779 596.44 
L 210.991397 579.640545 
L 213.915087 580.146774 
L 215.355346 596.44 
M 222.78599 596.44 
L 225.609848 569.835953 
L 228.541302 596.44 
M 232.18071 596.44 
L 234.380918 519.212979 
L 238.176651 596.44 
M 243.418325 596.44 
L 246.075678 508.940286 
L 248.999369 516.614496 
L 251.923059 576.029988 
L 254.846749 569.805451 
L 257.544212 596.44 
M 257.881275 596.44 
L 260.694129 539.750984 
L 262.189786 596.44 
M 265.458448 596.44 
L 266.541509 564.591274 
L 269.465199 554.688284 
L 272.388889 584.976767 
L 273.929312 596.44 
M 278.977062 596.44 
L 281.15996 584.320368 
L 284.08365 543.124272 
L 287.00734 566.598597 
L 288.699913 596.44 
M 291.470029 596.44 
L 292.85472 576.910747 
L 295.77841 548.959657 
L 298.063465 596.44 
M 302.853586 596.44 
L 304.549481 569.335985 
L 307.473171 546.05503 
L 310.396861 552.384332 
L 313.320551 547.742986 
L 316.244241 576.687785 
L 319.167931 569.296213 
L 322.091621 565.967454 
L 325.015311 498.296386 
L 327.939001 562.618197 
L 330.862691 593.40182 
L 333.786382 546.224578 
L 336.710072 566.971727 
L 338.419399 596.44 
M 343.205084 596.44 
L 345.481142 536.261947 
L 348.404832 483.191672 
L 351.328522 545.527533 
L 354.252212 576.457407 
L 357.175902 495.101041 
L 360.099592 465.760654 
L 363.023283 590.941822 
L 365.946973 499.169415 
L 368.870663 489.536435 
L 371.794353 506.53811 
L 374.718043 559.49372 
L 377.641733 575.710516 
L 379.488571 596.44 
M 380.970716 596.44 
L 383.489113 521.334651 
L 386.412803 558.486613 
L 389.336494 589.501454 
L 392.260184 564.587531 
L 395.183874 585.051694 
L 398.107564 530.677333 
L 401.031254 504.957612 
L 403.954944 541.200342 
L 406.878634 555.469805 
L 409.802324 548.795252 
L 412.726014 547.647876 
L 415.586764 596.44 
M 415.718239 596.44 
L 418.573395 551.717999 
L 421.574208 596.44 
M 426.454041 596.44 
L 427.344465 577.181247 
L 430.268155 581.872648 
L 433.191845 561.135783 
L 436.115535 513.133329 
L 439.039225 576.378178 
L 440.879154 596.44 
M 442.611087 596.44 
L 444.886605 554.954761 
L 447.810296 483.234383 
L 450.733986 499.063566 
L 453.657676 545.847039 
L 456.581366 556.662865 
L 457.620537 596.44 
M 461.347634 596.44 
L 462.428746 554.115488 
L 465.352436 580.933752 
L 468.276126 528.853725 
L 471.199816 554.108737 
L 473.714663 596.44 
M 475.341479 596.44 
L 477.047197 586.802229 
L 479.970887 467.155898 
L 482.894577 572.779933 
L 485.595892 596.44 
M 489.043604 596.44 
L 491.665647 560.736662 
L 494.589337 553.091031 
L 496.028856 596.44 
M 498.834031 596.44 
L 500.436717 542.216194 
L 503.360408 464.713145 
L 506.284098 556.157021 
L 507.688142 596.44 
M 516.606138 596.44 
L 517.978858 564.018443 
L 520.902548 593.483778 
L 523.826238 586.741608 
L 526.749928 556.566776 
L 529.068603 596.44 
M 534.06241 596.44 
L 535.520999 554.000719 
L 538.444689 536.246276 
L 541.368379 573.98807 
L 543.452794 596.44 
M 544.568334 596.44 
L 547.215759 509.809327 
L 550.139449 557.36862 
L 553.063139 501.767199 
L 555.986829 501.950074 
L 561.83421 436.970746 
L 564.7579 511.696004 
L 567.68159 480.884327 
L 570.60528 574.750912 
L 573.52897 449.451126 
L 576.45266 512.86227 
L 579.37635 493.807868 
L 582.30004 477.736589 
L 585.22373 594.938733 
L 588.147421 505.752706 
L 591.071111 510.253467 
L 593.994801 580.466875 
L 596.918491 529.030793 
L 599.842181 575.917317 
L 602.765871 563.10099 
L 605.689561 581.876391 
L 608.613251 594.588654 
L 608.725404 596.44 
M 616.388104 596.44 
L 617.384322 558.564164 
L 620.308012 549.414781 
L 623.231702 584.729109 
L 623.759264 596.44 
M 634.473036 596.44 
L 634.926462 593.742489 
L 637.850152 593.713841 
L 640.773842 540.550065 
L 643.697532 453.348099 
L 646.621223 524.434851 
L 649.544913 546.126249 
L 652.468603 590.739358 
L 655.392293 578.797319 
L 658.315983 500.81655 
L 661.239673 588.524395 
L 664.163363 516.614321 
L 667.087053 583.088306 
L 670.010743 595.970396 
L 672.934433 562.08902 
L 675.858124 570.840647 
L 678.781814 563.098541 
L 681.032368 596.44 
M 686.651128 596.44 
L 687.552884 574.852074 
L 688.232506 596.44 
M 700.296992 596.44 
L 702.171335 581.678405 
L 705.095025 592.480134 
L 708.018715 592.51277 
L 710.942405 595.311584 
L 713.866095 592.860856 
L 716.789785 594.354568 
L 719.713475 594.112227 
L 722.637165 589.463921 
L 725.560855 594.404205 
L 728.484545 589.107615 
L 728.484545 589.107615 
" style="fill:none;stroke:#c44e52;stroke-dasharray:4.5,1.875,2.25,1.875;stroke-dashoffset:0;stroke-width:1.5;"/>
   </g>
   <g id="line2d_5">
    <path clip-path="url(#p5bdc936345)" d="M 134.975455 564.299611 
L 137.899145 568.119174 
L 140.822835 569.144435 
L 143.746525 569.342282 
L 146.670215 571.844955 
L 149.593905 573.702564 
L 152.517595 573.865675 
L 155.441285 575.485175 
L 158.364975 576.508828 
L 161.288665 579.002931 
L 164.212356 577.852406 
L 167.136046 578.470292 
L 170.059736 594.837186 
L 170.789535 596.44 
M 185.567704 596.44 
L 187.601876 546.265539 
L 189.579899 596.44 
M 202.144586 596.44 
L 202.220327 594.950801 
L 203.417823 596.44 
M 210.583966 596.44 
L 210.991397 582.789927 
L 213.915087 569.906648 
L 215.649748 596.44 
M 222.44462 596.44 
L 222.686158 595.301125 
L 225.609848 576.020508 
L 228.1926 596.44 
M 232.278525 596.44 
L 234.380918 523.353097 
L 237.304608 575.173224 
L 238.238017 596.44 
M 243.424799 596.44 
L 246.075678 505.364254 
L 248.999369 507.067531 
L 251.923059 583.361289 
L 254.846749 571.074417 
L 257.180546 596.44 
M 258.050173 596.44 
L 260.694129 535.841208 
L 262.252491 596.44 
M 265.433021 596.44 
L 266.541509 564.018093 
L 269.465199 553.440375 
L 272.388889 582.538071 
L 274.221997 596.44 
M 279.896864 596.44 
L 281.15996 591.161461 
L 284.08365 550.003668 
L 287.00734 565.006731 
L 288.815732 596.44 
M 291.345542 596.44 
L 292.85472 575.756619 
L 295.77841 544.606302 
L 298.278652 596.44 
M 302.676734 596.44 
L 304.549481 566.437059 
L 307.473171 543.298787 
L 310.396861 565.613562 
L 313.320551 551.862781 
L 316.244241 573.892749 
L 319.167931 567.729952 
L 322.091621 570.81658 
L 325.015311 508.695427 
L 327.939001 559.043529 
L 330.862691 595.934786 
L 333.786382 561.311487 
L 336.710072 537.203781 
L 339.263654 596.44 
M 343.13991 596.44 
L 345.481142 544.487825 
L 348.404832 495.934647 
L 351.328522 476.215942 
L 354.252212 554.275836 
L 357.175902 563.716006 
L 360.099592 571.285241 
L 360.99177 596.44 
M 364.574532 596.44 
L 365.946973 545.764207 
L 368.870663 546.512812 
L 371.794353 524.089529 
L 375.003878 596.44 
M 382.695491 596.44 
L 383.489113 572.348806 
L 386.412803 559.986937 
L 389.336494 595.463816 
L 392.260184 581.329026 
L 395.183874 596.216759 
L 398.107564 512.963781 
L 401.031254 518.363561 
L 403.954944 536.288846 
L 406.878634 563.993852 
L 409.802324 557.505357 
L 412.726014 541.45545 
L 414.8125 596.44 
M 416.669472 596.44 
L 418.573395 555.248767 
L 420.924543 596.44 
M 426.875013 596.44 
L 427.344465 585.956204 
L 430.268155 584.250478 
L 433.191845 566.262859 
L 436.115535 510.480767 
L 439.039225 575.246402 
L 440.838846 596.44 
M 442.757943 596.44 
L 444.886605 560.996073 
L 447.810296 483.329843 
L 450.733986 495.534092 
L 453.657676 532.269898 
L 456.581366 544.559463 
L 458.110059 596.44 
M 460.848237 596.44 
L 462.428746 540.731751 
L 465.352436 574.282076 
L 468.276126 534.694497 
L 471.199816 564.745955 
L 473.0142 596.44 
M 475.442083 596.44 
L 477.047197 572.851467 
L 479.970887 470.518832 
L 482.894577 582.623842 
L 484.760266 596.44 
M 489.227447 596.44 
L 491.665647 566.704831 
L 494.589337 552.444777 
L 496.023005 596.44 
M 498.83259 596.44 
L 500.436717 540.854915 
L 503.360408 461.336533 
L 507.60901 596.44 
M 516.714913 596.44 
L 517.978858 568.140197 
L 520.902548 593.329936 
L 523.826238 581.9828 
L 526.749928 546.024143 
L 529.486023 596.44 
M 533.452073 596.44 
L 535.520999 535.911238 
L 538.444689 512.19034 
L 541.368379 566.43615 
L 543.553028 596.44 
M 544.576089 596.44 
L 547.215759 502.106749 
L 550.139449 552.84848 
L 553.063139 457.84907 
L 555.986829 535.406898 
L 558.910519 490.463368 
L 561.83421 474.258605 
L 564.7579 543.87718 
L 567.68159 516.089307 
L 570.60528 521.503079 
L 573.52897 510.07458 
L 576.45266 561.36609 
L 579.37635 532.883481 
L 582.30004 489.947729 
L 585.22373 571.119576 
L 588.147421 521.712959 
L 591.071111 531.234808 
L 593.994801 554.74761 
L 596.918491 513.49761 
L 599.842181 553.090541 
L 602.765871 538.307922 
L 605.689561 562.716385 
L 608.613251 580.043374 
L 610.150774 596.44 
M 615.816087 596.44 
L 617.384322 535.86489 
L 620.308012 533.076395 
L 623.231702 575.092701 
L 624.233811 596.44 
M 632.504509 596.44 
L 634.926462 585.169226 
L 637.850152 578.722252 
L 640.773842 519.656944 
L 643.697532 447.143641 
L 646.621223 509.188259 
L 649.544913 533.199035 
L 652.468603 569.200018 
L 655.392293 562.767841 
L 658.315983 500.818508 
L 661.239673 574.206659 
L 664.163363 509.758117 
L 667.087053 578.958296 
L 670.010743 591.310161 
L 672.934433 567.98681 
L 675.858124 569.174938 
L 678.781814 546.738223 
L 681.296172 596.44 
M 686.257417 596.44 
L 687.552884 565.740504 
L 688.679613 596.44 
M 699.487223 596.44 
L 702.171335 579.287073 
L 705.095025 588.14927 
L 708.018715 587.990182 
L 710.942405 589.745754 
L 713.866095 587.117048 
L 716.789785 587.951774 
L 719.713475 588.224407 
L 722.637165 583.210071 
L 725.560855 588.015962 
L 728.484545 583.742815 
L 728.484545 583.742815 
" style="fill:none;stroke:#8172b3;stroke-dasharray:7.5,1.5,1.5,1.5;stroke-dashoffset:0;stroke-width:1.5;"/>
   </g>
   <g id="line2d_6"/>
   <g id="line2d_7"/>
   <g id="line2d_8"/>
   <g id="line2d_9"/>
   <g id="line2d_10"/>
   <g id="patch_3">
    <path d="M 105.3 529.9416 
L 105.3 71.4528 
" style="fill:none;stroke:#262626;stroke-linecap:square;stroke-linejoin:miter;stroke-width:1.25;"/>
   </g>
   <g id="patch_4">
    <path d="M 758.16 529.9416 
L 758.16 71.4528 
" style="fill:none;stroke:#262626;stroke-linecap:square;stroke-linejoin:miter;stroke-width:1.25;"/>
   </g>
   <g id="patch_5">
    <path d="M 105.3 529.9416 
L 758.16 529.9416 
" style="fill:none;stroke:#262626;stroke-linecap:square;stroke-linejoin:miter;stroke-width:1.25;"/>
   </g>
   <g id="patch_6">
    <path d="M 105.3 71.4528 
L 758.16 71.4528 
" style="fill:none;stroke:#262626;stroke-linecap:square;stroke-linejoin:miter;stroke-width:1.25;"/>
   </g>
   <g id="text_16">
    <!-- Activations for &gt;2&lt; -->
    <g style="fill:#262626;" transform="translate(382.037813 65.4528)scale(0.12 -0.12)">
     <defs>
      <path d="M -9 0 
L 1750 4581 
L 2403 4581 
L 4278 0 
L 3588 0 
L 3053 1388 
L 1138 1388 
L 634 0 
L -9 0 
z
M 1313 1881 
L 2866 1881 
L 2388 3150 
Q 2169 3728 2063 4100 
Q 1975 3659 1816 3225 
L 1313 1881 
z
" id="ArialMT-41" transform="scale(0.015625)"/>
      <path d="M 2588 1216 
L 3141 1144 
Q 3050 572 2676 248 
Q 2303 -75 1759 -75 
Q 1078 -75 664 370 
Q 250 816 250 1647 
Q 250 2184 428 2587 
Q 606 2991 970 3192 
Q 1334 3394 1763 3394 
Q 2303 3394 2647 3120 
Q 2991 2847 3088 2344 
L 2541 2259 
Q 2463 2594 2264 2762 
Q 2066 2931 1784 2931 
Q 1359 2931 1093 2626 
Q 828 2322 828 1663 
Q 828 994 1084 691 
Q 1341 388 1753 388 
Q 2084 388 2306 591 
Q 2528 794 2588 1216 
z
" id="ArialMT-63" transform="scale(0.015625)"/>
      <path d="M 1650 503 
L 1731 6 
Q 1494 -44 1306 -44 
Q 1000 -44 831 53 
Q 663 150 594 308 
Q 525 466 525 972 
L 525 2881 
L 113 2881 
L 113 3319 
L 525 3319 
L 525 4141 
L 1084 4478 
L 1084 3319 
L 1650 3319 
L 1650 2881 
L 1084 2881 
L 1084 941 
Q 1084 700 1114 631 
Q 1144 563 1211 522 
Q 1278 481 1403 481 
Q 1497 481 1650 503 
z
" id="ArialMT-74" transform="scale(0.015625)"/>
      <path d="M 425 3934 
L 425 4581 
L 988 4581 
L 988 3934 
L 425 3934 
z
M 425 0 
L 425 3319 
L 988 3319 
L 988 0 
L 425 0 
z
" id="ArialMT-69" transform="scale(0.015625)"/>
      <path d="M 1344 0 
L 81 3319 
L 675 3319 
L 1388 1331 
Q 1503 1009 1600 663 
Q 1675 925 1809 1294 
L 2547 3319 
L 3125 3319 
L 1869 0 
L 1344 0 
z
" id="ArialMT-76" transform="scale(0.015625)"/>
      <path d="M 2588 409 
Q 2275 144 1986 34 
Q 1697 -75 1366 -75 
Q 819 -75 525 192 
Q 231 459 231 875 
Q 231 1119 342 1320 
Q 453 1522 633 1644 
Q 813 1766 1038 1828 
Q 1203 1872 1538 1913 
Q 2219 1994 2541 2106 
Q 2544 2222 2544 2253 
Q 2544 2597 2384 2738 
Q 2169 2928 1744 2928 
Q 1347 2928 1158 2789 
Q 969 2650 878 2297 
L 328 2372 
Q 403 2725 575 2942 
Q 747 3159 1072 3276 
Q 1397 3394 1825 3394 
Q 2250 3394 2515 3294 
Q 2781 3194 2906 3042 
Q 3031 2891 3081 2659 
Q 3109 2516 3109 2141 
L 3109 1391 
Q 3109 606 3145 398 
Q 3181 191 3288 0 
L 2700 0 
Q 2613 175 2588 409 
z
M 2541 1666 
Q 2234 1541 1622 1453 
Q 1275 1403 1131 1340 
Q 988 1278 909 1158 
Q 831 1038 831 891 
Q 831 666 1001 516 
Q 1172 366 1500 366 
Q 1825 366 2078 508 
Q 2331 650 2450 897 
Q 2541 1088 2541 1459 
L 2541 1666 
z
" id="ArialMT-61" transform="scale(0.015625)"/>
      <path d="M 213 1659 
Q 213 2581 725 3025 
Q 1153 3394 1769 3394 
Q 2453 3394 2887 2945 
Q 3322 2497 3322 1706 
Q 3322 1066 3130 698 
Q 2938 331 2570 128 
Q 2203 -75 1769 -75 
Q 1072 -75 642 372 
Q 213 819 213 1659 
z
M 791 1659 
Q 791 1022 1069 705 
Q 1347 388 1769 388 
Q 2188 388 2466 706 
Q 2744 1025 2744 1678 
Q 2744 2294 2464 2611 
Q 2184 2928 1769 2928 
Q 1347 2928 1069 2612 
Q 791 2297 791 1659 
z
" id="ArialMT-6f" transform="scale(0.015625)"/>
      <path d="M 422 0 
L 422 3319 
L 928 3319 
L 928 2847 
Q 1294 3394 1984 3394 
Q 2284 3394 2536 3286 
Q 2788 3178 2913 3003 
Q 3038 2828 3088 2588 
Q 3119 2431 3119 2041 
L 3119 0 
L 2556 0 
L 2556 2019 
Q 2556 2363 2490 2533 
Q 2425 2703 2258 2804 
Q 2091 2906 1866 2906 
Q 1506 2906 1245 2678 
Q 984 2450 984 1813 
L 984 0 
L 422 0 
z
" id="ArialMT-6e" transform="scale(0.015625)"/>
      <path d="M 197 991 
L 753 1078 
Q 800 744 1014 566 
Q 1228 388 1613 388 
Q 2000 388 2187 545 
Q 2375 703 2375 916 
Q 2375 1106 2209 1216 
Q 2094 1291 1634 1406 
Q 1016 1563 777 1677 
Q 538 1791 414 1992 
Q 291 2194 291 2438 
Q 291 2659 392 2848 
Q 494 3038 669 3163 
Q 800 3259 1026 3326 
Q 1253 3394 1513 3394 
Q 1903 3394 2198 3281 
Q 2494 3169 2634 2976 
Q 2775 2784 2828 2463 
L 2278 2388 
Q 2241 2644 2061 2787 
Q 1881 2931 1553 2931 
Q 1166 2931 1000 2803 
Q 834 2675 834 2503 
Q 834 2394 903 2306 
Q 972 2216 1119 2156 
Q 1203 2125 1616 2013 
Q 2213 1853 2448 1751 
Q 2684 1650 2818 1456 
Q 2953 1263 2953 975 
Q 2953 694 2789 445 
Q 2625 197 2315 61 
Q 2006 -75 1616 -75 
Q 969 -75 630 194 
Q 291 463 197 991 
z
" id="ArialMT-73" transform="scale(0.015625)"/>
      <path id="ArialMT-20" transform="scale(0.015625)"/>
      <path d="M 556 0 
L 556 2881 
L 59 2881 
L 59 3319 
L 556 3319 
L 556 3672 
Q 556 4006 616 4169 
Q 697 4388 901 4523 
Q 1106 4659 1475 4659 
Q 1713 4659 2000 4603 
L 1916 4113 
Q 1741 4144 1584 4144 
Q 1328 4144 1222 4034 
Q 1116 3925 1116 3625 
L 1116 3319 
L 1763 3319 
L 1763 2881 
L 1116 2881 
L 1116 0 
L 556 0 
z
" id="ArialMT-66" transform="scale(0.015625)"/>
      <path d="M 416 0 
L 416 3319 
L 922 3319 
L 922 2816 
Q 1116 3169 1280 3281 
Q 1444 3394 1641 3394 
Q 1925 3394 2219 3213 
L 2025 2691 
Q 1819 2813 1613 2813 
Q 1428 2813 1281 2702 
Q 1134 2591 1072 2394 
Q 978 2094 978 1738 
L 978 0 
L 416 0 
z
" id="ArialMT-72" transform="scale(0.015625)"/>
      <path d="M 3384 2003 
L 350 706 
L 350 1266 
L 2753 2263 
L 350 3250 
L 350 3809 
L 3384 2528 
L 3384 2003 
z
" id="ArialMT-3e" transform="scale(0.015625)"/>
      <path d="M 350 2003 
L 350 2528 
L 3384 3809 
L 3384 3250 
L 978 2263 
L 3384 1266 
L 3384 706 
L 350 2003 
z
" id="ArialMT-3c" transform="scale(0.015625)"/>
     </defs>
     <use xlink:href="#ArialMT-41"/>
     <use x="66.699219" xlink:href="#ArialMT-63"/>
     <use x="116.699219" xlink:href="#ArialMT-74"/>
     <use x="144.482422" xlink:href="#ArialMT-69"/>
     <use x="166.699219" xlink:href="#ArialMT-76"/>
     <use x="216.699219" xlink:href="#ArialMT-61"/>
     <use x="272.314453" xlink:href="#ArialMT-74"/>
     <use x="300.097656" xlink:href="#ArialMT-69"/>
     <use x="322.314453" xlink:href="#ArialMT-6f"/>
     <use x="377.929688" xlink:href="#ArialMT-6e"/>
     <use x="433.544922" xlink:href="#ArialMT-73"/>
     <use x="483.544922" xlink:href="#ArialMT-20"/>
     <use x="511.328125" xlink:href="#ArialMT-66"/>
     <use x="539.111328" xlink:href="#ArialMT-6f"/>
     <use x="594.726562" xlink:href="#ArialMT-72"/>
     <use x="628.027344" xlink:href="#ArialMT-20"/>
     <use x="655.810547" xlink:href="#ArialMT-3e"/>
     <use x="714.208984" xlink:href="#ArialMT-32"/>
     <use x="769.824219" xlink:href="#ArialMT-3c"/>
    </g>
   </g>
   <g id="legend_1">
    <g id="patch_7">
     <path d="M 640.044062 158.514363 
L 750.46 158.514363 
Q 752.66 158.514363 752.66 156.314363 
L 752.66 79.1528 
Q 752.66 76.9528 750.46 76.9528 
L 640.044062 76.9528 
Q 637.844062 76.9528 637.844062 79.1528 
L 637.844062 156.314363 
Q 637.844062 158.514363 640.044062 158.514363 
z
" style="fill:#ffffff;opacity:0.8;stroke:#cccccc;stroke-linejoin:miter;"/>
    </g>
    <g id="line2d_11">
     <path d="M 642.244062 85.376394 
L 664.244062 85.376394 
" style="fill:none;stroke:#4c72b0;stroke-linecap:round;stroke-width:1.5;"/>
    </g>
    <g id="line2d_12"/>
    <g id="text_17">
     <!-- regular -->
     <g style="fill:#262626;" transform="translate(673.044062 89.226394)scale(0.11 -0.11)">
      <defs>
       <path d="M 2694 1069 
L 3275 997 
Q 3138 488 2766 206 
Q 2394 -75 1816 -75 
Q 1088 -75 661 373 
Q 234 822 234 1631 
Q 234 2469 665 2931 
Q 1097 3394 1784 3394 
Q 2450 3394 2872 2941 
Q 3294 2488 3294 1666 
Q 3294 1616 3291 1516 
L 816 1516 
Q 847 969 1125 678 
Q 1403 388 1819 388 
Q 2128 388 2347 550 
Q 2566 713 2694 1069 
z
M 847 1978 
L 2700 1978 
Q 2663 2397 2488 2606 
Q 2219 2931 1791 2931 
Q 1403 2931 1139 2672 
Q 875 2413 847 1978 
z
" id="ArialMT-65" transform="scale(0.015625)"/>
       <path d="M 319 -275 
L 866 -356 
Q 900 -609 1056 -725 
Q 1266 -881 1628 -881 
Q 2019 -881 2231 -725 
Q 2444 -569 2519 -288 
Q 2563 -116 2559 434 
Q 2191 0 1641 0 
Q 956 0 581 494 
Q 206 988 206 1678 
Q 206 2153 378 2554 
Q 550 2956 876 3175 
Q 1203 3394 1644 3394 
Q 2231 3394 2613 2919 
L 2613 3319 
L 3131 3319 
L 3131 450 
Q 3131 -325 2973 -648 
Q 2816 -972 2473 -1159 
Q 2131 -1347 1631 -1347 
Q 1038 -1347 672 -1080 
Q 306 -813 319 -275 
z
M 784 1719 
Q 784 1066 1043 766 
Q 1303 466 1694 466 
Q 2081 466 2343 764 
Q 2606 1063 2606 1700 
Q 2606 2309 2336 2618 
Q 2066 2928 1684 2928 
Q 1309 2928 1046 2623 
Q 784 2319 784 1719 
z
" id="ArialMT-67" transform="scale(0.015625)"/>
       <path d="M 2597 0 
L 2597 488 
Q 2209 -75 1544 -75 
Q 1250 -75 995 37 
Q 741 150 617 320 
Q 494 491 444 738 
Q 409 903 409 1263 
L 409 3319 
L 972 3319 
L 972 1478 
Q 972 1038 1006 884 
Q 1059 663 1231 536 
Q 1403 409 1656 409 
Q 1909 409 2131 539 
Q 2353 669 2445 892 
Q 2538 1116 2538 1541 
L 2538 3319 
L 3100 3319 
L 3100 0 
L 2597 0 
z
" id="ArialMT-75" transform="scale(0.015625)"/>
       <path d="M 409 0 
L 409 4581 
L 972 4581 
L 972 0 
L 409 0 
z
" id="ArialMT-6c" transform="scale(0.015625)"/>
      </defs>
      <use xlink:href="#ArialMT-72"/>
      <use x="33.300781" xlink:href="#ArialMT-65"/>
      <use x="88.916016" xlink:href="#ArialMT-67"/>
      <use x="144.53125" xlink:href="#ArialMT-75"/>
      <use x="200.146484" xlink:href="#ArialMT-6c"/>
      <use x="222.363281" xlink:href="#ArialMT-61"/>
      <use x="277.978516" xlink:href="#ArialMT-72"/>
     </g>
    </g>
    <g id="line2d_13">
     <path d="M 642.244062 101.0978 
L 664.244062 101.0978 
" style="fill:none;stroke:#dd8452;stroke-dasharray:6,2.25;stroke-dashoffset:0;stroke-width:1.5;"/>
    </g>
    <g id="line2d_14"/>
    <g id="text_18">
     <!-- splitted_3s -->
     <g style="fill:#262626;" transform="translate(673.044062 104.9478)scale(0.11 -0.11)">
      <defs>
       <path d="M 422 -1272 
L 422 3319 
L 934 3319 
L 934 2888 
Q 1116 3141 1344 3267 
Q 1572 3394 1897 3394 
Q 2322 3394 2647 3175 
Q 2972 2956 3137 2557 
Q 3303 2159 3303 1684 
Q 3303 1175 3120 767 
Q 2938 359 2589 142 
Q 2241 -75 1856 -75 
Q 1575 -75 1351 44 
Q 1128 163 984 344 
L 984 -1272 
L 422 -1272 
z
M 931 1641 
Q 931 1000 1190 694 
Q 1450 388 1819 388 
Q 2194 388 2461 705 
Q 2728 1022 2728 1688 
Q 2728 2322 2467 2637 
Q 2206 2953 1844 2953 
Q 1484 2953 1207 2617 
Q 931 2281 931 1641 
z
" id="ArialMT-70" transform="scale(0.015625)"/>
       <path d="M 2575 0 
L 2575 419 
Q 2259 -75 1647 -75 
Q 1250 -75 917 144 
Q 584 363 401 755 
Q 219 1147 219 1656 
Q 219 2153 384 2558 
Q 550 2963 881 3178 
Q 1213 3394 1622 3394 
Q 1922 3394 2156 3267 
Q 2391 3141 2538 2938 
L 2538 4581 
L 3097 4581 
L 3097 0 
L 2575 0 
z
M 797 1656 
Q 797 1019 1065 703 
Q 1334 388 1700 388 
Q 2069 388 2326 689 
Q 2584 991 2584 1609 
Q 2584 2291 2321 2609 
Q 2059 2928 1675 2928 
Q 1300 2928 1048 2622 
Q 797 2316 797 1656 
z
" id="ArialMT-64" transform="scale(0.015625)"/>
       <path d="M -97 -1272 
L -97 -866 
L 3631 -866 
L 3631 -1272 
L -97 -1272 
z
" id="ArialMT-5f" transform="scale(0.015625)"/>
       <path d="M 269 1209 
L 831 1284 
Q 928 806 1161 595 
Q 1394 384 1728 384 
Q 2125 384 2398 659 
Q 2672 934 2672 1341 
Q 2672 1728 2419 1979 
Q 2166 2231 1775 2231 
Q 1616 2231 1378 2169 
L 1441 2663 
Q 1497 2656 1531 2656 
Q 1891 2656 2178 2843 
Q 2466 3031 2466 3422 
Q 2466 3731 2256 3934 
Q 2047 4138 1716 4138 
Q 1388 4138 1169 3931 
Q 950 3725 888 3313 
L 325 3413 
Q 428 3978 793 4289 
Q 1159 4600 1703 4600 
Q 2078 4600 2393 4439 
Q 2709 4278 2876 4000 
Q 3044 3722 3044 3409 
Q 3044 3113 2884 2869 
Q 2725 2625 2413 2481 
Q 2819 2388 3044 2092 
Q 3269 1797 3269 1353 
Q 3269 753 2831 336 
Q 2394 -81 1725 -81 
Q 1122 -81 723 278 
Q 325 638 269 1209 
z
" id="ArialMT-33" transform="scale(0.015625)"/>
      </defs>
      <use xlink:href="#ArialMT-73"/>
      <use x="50" xlink:href="#ArialMT-70"/>
      <use x="105.615234" xlink:href="#ArialMT-6c"/>
      <use x="127.832031" xlink:href="#ArialMT-69"/>
      <use x="150.048828" xlink:href="#ArialMT-74"/>
      <use x="177.832031" xlink:href="#ArialMT-74"/>
      <use x="205.615234" xlink:href="#ArialMT-65"/>
      <use x="261.230469" xlink:href="#ArialMT-64"/>
      <use x="316.845703" xlink:href="#ArialMT-5f"/>
      <use x="372.460938" xlink:href="#ArialMT-33"/>
      <use x="428.076172" xlink:href="#ArialMT-73"/>
     </g>
    </g>
    <g id="line2d_15">
     <path d="M 642.244062 116.6903 
L 664.244062 116.6903 
" style="fill:none;stroke:#55a868;stroke-dasharray:1.5,1.5;stroke-dashoffset:0;stroke-width:1.5;"/>
    </g>
    <g id="line2d_16"/>
    <g id="text_19">
     <!-- splitted_1s -->
     <g style="fill:#262626;" transform="translate(673.044062 120.5403)scale(0.11 -0.11)">
      <use xlink:href="#ArialMT-73"/>
      <use x="50" xlink:href="#ArialMT-70"/>
      <use x="105.615234" xlink:href="#ArialMT-6c"/>
      <use x="127.832031" xlink:href="#ArialMT-69"/>
      <use x="150.048828" xlink:href="#ArialMT-74"/>
      <use x="177.832031" xlink:href="#ArialMT-74"/>
      <use x="205.615234" xlink:href="#ArialMT-65"/>
      <use x="261.230469" xlink:href="#ArialMT-64"/>
      <use x="316.845703" xlink:href="#ArialMT-5f"/>
      <use x="372.460938" xlink:href="#ArialMT-31"/>
      <use x="428.076172" xlink:href="#ArialMT-73"/>
     </g>
    </g>
    <g id="line2d_17">
     <path d="M 642.244062 132.384206 
L 664.244062 132.384206 
" style="fill:none;stroke:#c44e52;stroke-dasharray:4.5,1.875,2.25,1.875;stroke-dashoffset:0;stroke-width:1.5;"/>
    </g>
    <g id="line2d_18"/>
    <g id="text_20">
     <!-- overlap_1f_3s -->
     <g style="fill:#262626;" transform="translate(673.044062 136.234206)scale(0.11 -0.11)">
      <use xlink:href="#ArialMT-6f"/>
      <use x="55.615234" xlink:href="#ArialMT-76"/>
      <use x="105.615234" xlink:href="#ArialMT-65"/>
      <use x="161.230469" xlink:href="#ArialMT-72"/>
      <use x="194.53125" xlink:href="#ArialMT-6c"/>
      <use x="216.748047" xlink:href="#ArialMT-61"/>
      <use x="272.363281" xlink:href="#ArialMT-70"/>
      <use x="327.978516" xlink:href="#ArialMT-5f"/>
      <use x="383.59375" xlink:href="#ArialMT-31"/>
      <use x="439.208984" xlink:href="#ArialMT-66"/>
      <use x="466.992188" xlink:href="#ArialMT-5f"/>
      <use x="522.607422" xlink:href="#ArialMT-33"/>
      <use x="578.222656" xlink:href="#ArialMT-73"/>
     </g>
    </g>
    <g id="line2d_19">
     <path d="M 642.244062 148.078113 
L 664.244062 148.078113 
" style="fill:none;stroke:#8172b3;stroke-dasharray:7.5,1.5,1.5,1.5;stroke-dashoffset:0;stroke-width:1.5;"/>
    </g>
    <g id="line2d_20"/>
    <g id="text_21">
     <!-- overlap_10f_3s -->
     <g style="fill:#262626;" transform="translate(673.044062 151.928112)scale(0.11 -0.11)">
      <use xlink:href="#ArialMT-6f"/>
      <use x="55.615234" xlink:href="#ArialMT-76"/>
      <use x="105.615234" xlink:href="#ArialMT-65"/>
      <use x="161.230469" xlink:href="#ArialMT-72"/>
      <use x="194.53125" xlink:href="#ArialMT-6c"/>
      <use x="216.748047" xlink:href="#ArialMT-61"/>
      <use x="272.363281" xlink:href="#ArialMT-70"/>
      <use x="327.978516" xlink:href="#ArialMT-5f"/>
      <use x="383.59375" xlink:href="#ArialMT-31"/>
      <use x="439.208984" xlink:href="#ArialMT-30"/>
      <use x="494.824219" xlink:href="#ArialMT-66"/>
      <use x="522.607422" xlink:href="#ArialMT-5f"/>
      <use x="578.222656" xlink:href="#ArialMT-33"/>
      <use x="633.837891" xlink:href="#ArialMT-73"/>
     </g>
    </g>
   </g>
  </g>
 </g>
 <defs>
  <clipPath id="p5bdc936345">
   <rect height="458.4888" width="652.86" x="105.3" y="71.4528"/>
  </clipPath>
 </defs>
</svg>
