<?xml version="1.0" encoding="utf-8" standalone="no"?>
<!DOCTYPE svg PUBLIC "-//W3C//DTD SVG 1.1//EN"
  "http://www.w3.org/Graphics/SVG/1.1/DTD/svg11.dtd">
<svg height="595.44pt" version="1.1" viewBox="0 0 842.4 595.44" width="842.4pt" xmlns="http://www.w3.org/2000/svg" xmlns:xlink="http://www.w3.org/1999/xlink">
 <metadata>
  <rdf:RDF xmlns:cc="http://creativecommons.org/ns#" xmlns:dc="http://purl.org/dc/elements/1.1/" xmlns:rdf="http://www.w3.org/1999/02/22-rdf-syntax-ns#">
   <cc:Work>
    <dc:type rdf:resource="http://purl.org/dc/dcmitype/StillImage"/>
    <dc:date>2021-06-04T22:03:20.748110</dc:date>
    <dc:format>image/svg+xml</dc:format>
    <dc:creator>
     <cc:Agent>
      <dc:title>Matplotlib v3.4.1, https://matplotlib.org/</dc:title>
     </cc:Agent>
    </dc:creator>
   </cc:Work>
  </rdf:RDF>
 </metadata>
 <defs>
  <style type="text/css">*{stroke-linecap:butt;stroke-linejoin:round;}</style>
 </defs>
 <g id="figure_1">
  <g id="patch_1">
   <path d="M 0 595.44 
L 842.4 595.44 
L 842.4 0 
L 0 0 
z
" style="fill:#ffffff;"/>
  </g>
  <g id="axes_1">
   <g id="patch_2">
    <path d="M 105.3 529.9416 
L 758.16 529.9416 
L 758.16 71.4528 
L 105.3 71.4528 
z
" style="fill:#ffffff;"/>
   </g>
   <g id="matplotlib.axis_1">
    <g id="xtick_1">
     <g id="text_1">
      <!-- 0 -->
      <g style="fill:#262626;" transform="translate(131.916939 547.315194)scale(0.11 -0.11)">
       <defs>
        <path d="M 266 2259 
Q 266 3072 433 3567 
Q 600 4063 929 4331 
Q 1259 4600 1759 4600 
Q 2128 4600 2406 4451 
Q 2684 4303 2865 4023 
Q 3047 3744 3150 3342 
Q 3253 2941 3253 2259 
Q 3253 1453 3087 958 
Q 2922 463 2592 192 
Q 2263 -78 1759 -78 
Q 1097 -78 719 397 
Q 266 969 266 2259 
z
M 844 2259 
Q 844 1131 1108 757 
Q 1372 384 1759 384 
Q 2147 384 2411 759 
Q 2675 1134 2675 2259 
Q 2675 3391 2411 3762 
Q 2147 4134 1753 4134 
Q 1366 4134 1134 3806 
Q 844 3388 844 2259 
z
" id="ArialMT-30" transform="scale(0.015625)"/>
       </defs>
       <use xlink:href="#ArialMT-30"/>
      </g>
     </g>
    </g>
    <g id="xtick_2">
     <g id="text_2">
      <!-- 25 -->
      <g style="fill:#262626;" transform="translate(201.950676 547.315194)scale(0.11 -0.11)">
       <defs>
        <path d="M 3222 541 
L 3222 0 
L 194 0 
Q 188 203 259 391 
Q 375 700 629 1000 
Q 884 1300 1366 1694 
Q 2113 2306 2375 2664 
Q 2638 3022 2638 3341 
Q 2638 3675 2398 3904 
Q 2159 4134 1775 4134 
Q 1369 4134 1125 3890 
Q 881 3647 878 3216 
L 300 3275 
Q 359 3922 746 4261 
Q 1134 4600 1788 4600 
Q 2447 4600 2831 4234 
Q 3216 3869 3216 3328 
Q 3216 3053 3103 2787 
Q 2991 2522 2730 2228 
Q 2469 1934 1863 1422 
Q 1356 997 1212 845 
Q 1069 694 975 541 
L 3222 541 
z
" id="ArialMT-32" transform="scale(0.015625)"/>
        <path d="M 266 1200 
L 856 1250 
Q 922 819 1161 601 
Q 1400 384 1738 384 
Q 2144 384 2425 690 
Q 2706 997 2706 1503 
Q 2706 1984 2436 2262 
Q 2166 2541 1728 2541 
Q 1456 2541 1237 2417 
Q 1019 2294 894 2097 
L 366 2166 
L 809 4519 
L 3088 4519 
L 3088 3981 
L 1259 3981 
L 1013 2750 
Q 1425 3038 1878 3038 
Q 2478 3038 2890 2622 
Q 3303 2206 3303 1553 
Q 3303 931 2941 478 
Q 2500 -78 1738 -78 
Q 1113 -78 717 272 
Q 322 622 266 1200 
z
" id="ArialMT-35" transform="scale(0.015625)"/>
       </defs>
       <use xlink:href="#ArialMT-32"/>
       <use x="55.615234" xlink:href="#ArialMT-35"/>
      </g>
     </g>
    </g>
    <g id="xtick_3">
     <g id="text_3">
      <!-- 50 -->
      <g style="fill:#262626;" transform="translate(275.042928 547.315194)scale(0.11 -0.11)">
       <use xlink:href="#ArialMT-35"/>
       <use x="55.615234" xlink:href="#ArialMT-30"/>
      </g>
     </g>
    </g>
    <g id="xtick_4">
     <g id="text_4">
      <!-- 75 -->
      <g style="fill:#262626;" transform="translate(348.135181 547.315194)scale(0.11 -0.11)">
       <defs>
        <path d="M 303 3981 
L 303 4522 
L 3269 4522 
L 3269 4084 
Q 2831 3619 2401 2847 
Q 1972 2075 1738 1259 
Q 1569 684 1522 0 
L 944 0 
Q 953 541 1156 1306 
Q 1359 2072 1739 2783 
Q 2119 3494 2547 3981 
L 303 3981 
z
" id="ArialMT-37" transform="scale(0.015625)"/>
       </defs>
       <use xlink:href="#ArialMT-37"/>
       <use x="55.615234" xlink:href="#ArialMT-35"/>
      </g>
     </g>
    </g>
    <g id="xtick_5">
     <g id="text_5">
      <!-- 100 -->
      <g style="fill:#262626;" transform="translate(418.168918 547.315194)scale(0.11 -0.11)">
       <defs>
        <path d="M 2384 0 
L 1822 0 
L 1822 3584 
Q 1619 3391 1289 3197 
Q 959 3003 697 2906 
L 697 3450 
Q 1169 3672 1522 3987 
Q 1875 4303 2022 4600 
L 2384 4600 
L 2384 0 
z
" id="ArialMT-31" transform="scale(0.015625)"/>
       </defs>
       <use xlink:href="#ArialMT-31"/>
       <use x="55.615234" xlink:href="#ArialMT-30"/>
       <use x="111.230469" xlink:href="#ArialMT-30"/>
      </g>
     </g>
    </g>
    <g id="xtick_6">
     <g id="text_6">
      <!-- 125 -->
      <g style="fill:#262626;" transform="translate(491.261171 547.315194)scale(0.11 -0.11)">
       <use xlink:href="#ArialMT-31"/>
       <use x="55.615234" xlink:href="#ArialMT-32"/>
       <use x="111.230469" xlink:href="#ArialMT-35"/>
      </g>
     </g>
    </g>
    <g id="xtick_7">
     <g id="text_7">
      <!-- 150 -->
      <g style="fill:#262626;" transform="translate(564.353423 547.315194)scale(0.11 -0.11)">
       <use xlink:href="#ArialMT-31"/>
       <use x="55.615234" xlink:href="#ArialMT-35"/>
       <use x="111.230469" xlink:href="#ArialMT-30"/>
      </g>
     </g>
    </g>
    <g id="xtick_8">
     <g id="text_8">
      <!-- 175 -->
      <g style="fill:#262626;" transform="translate(637.445676 547.315194)scale(0.11 -0.11)">
       <use xlink:href="#ArialMT-31"/>
       <use x="55.615234" xlink:href="#ArialMT-37"/>
       <use x="111.230469" xlink:href="#ArialMT-35"/>
      </g>
     </g>
    </g>
    <g id="xtick_9">
     <g id="text_9">
      <!-- 200 -->
      <g style="fill:#262626;" transform="translate(710.537928 547.315194)scale(0.11 -0.11)">
       <use xlink:href="#ArialMT-32"/>
       <use x="55.615234" xlink:href="#ArialMT-30"/>
       <use x="111.230469" xlink:href="#ArialMT-30"/>
      </g>
     </g>
    </g>
   </g>
   <g id="matplotlib.axis_2">
    <g id="ytick_1">
     <g id="text_10">
      <!-- −25 -->
      <g style="fill:#262626;" transform="translate(77.14125 533.878397)scale(0.11 -0.11)">
       <defs>
        <path d="M 3381 1997 
L 356 1997 
L 356 2522 
L 3381 2522 
L 3381 1997 
z
" id="ArialMT-2212" transform="scale(0.015625)"/>
       </defs>
       <use xlink:href="#ArialMT-2212"/>
       <use x="58.398438" xlink:href="#ArialMT-32"/>
       <use x="114.013672" xlink:href="#ArialMT-35"/>
      </g>
     </g>
    </g>
    <g id="ytick_2">
     <g id="text_11">
      <!-- −20 -->
      <g style="fill:#262626;" transform="translate(77.14125 442.180637)scale(0.11 -0.11)">
       <use xlink:href="#ArialMT-2212"/>
       <use x="58.398438" xlink:href="#ArialMT-32"/>
       <use x="114.013672" xlink:href="#ArialMT-30"/>
      </g>
     </g>
    </g>
    <g id="ytick_3">
     <g id="text_12">
      <!-- −15 -->
      <g style="fill:#262626;" transform="translate(77.14125 350.482877)scale(0.11 -0.11)">
       <use xlink:href="#ArialMT-2212"/>
       <use x="58.398438" xlink:href="#ArialMT-31"/>
       <use x="114.013672" xlink:href="#ArialMT-35"/>
      </g>
     </g>
    </g>
    <g id="ytick_4">
     <g id="text_13">
      <!-- −10 -->
      <g style="fill:#262626;" transform="translate(77.14125 258.785117)scale(0.11 -0.11)">
       <use xlink:href="#ArialMT-2212"/>
       <use x="58.398438" xlink:href="#ArialMT-31"/>
       <use x="114.013672" xlink:href="#ArialMT-30"/>
      </g>
     </g>
    </g>
    <g id="ytick_5">
     <g id="text_14">
      <!-- −5 -->
      <g style="fill:#262626;" transform="translate(83.258281 167.087357)scale(0.11 -0.11)">
       <use xlink:href="#ArialMT-2212"/>
       <use x="58.398438" xlink:href="#ArialMT-35"/>
      </g>
     </g>
    </g>
    <g id="ytick_6">
     <g id="text_15">
      <!-- 0 -->
      <g style="fill:#262626;" transform="translate(89.682969 75.389597)scale(0.11 -0.11)">
       <use xlink:href="#ArialMT-30"/>
      </g>
     </g>
    </g>
   </g>
   <g id="line2d_1">
    <path clip-path="url(#pa486fae8b9)" d="M 134.975455 559.316302 
L 137.899145 560.02538 
L 140.822835 560.891203 
L 143.746525 560.98411 
L 146.670215 561.793895 
L 149.593905 564.201073 
L 152.517595 564.834734 
L 155.441285 567.295607 
L 158.364975 569.589065 
L 161.288665 570.913999 
L 164.212356 574.040295 
L 167.136046 578.272025 
L 169.553701 596.44 
M 185.335225 596.44 
L 187.601876 539.656013 
L 190.005563 596.44 
M 201.903477 596.44 
L 202.220327 589.188804 
L 205.144017 572.190312 
L 205.977051 596.44 
M 209.742452 596.44 
L 210.991397 551.054115 
L 213.915087 572.934894 
L 216.014594 596.44 
M 221.526673 596.44 
L 222.686158 588.469511 
L 225.609848 565.627519 
L 228.690207 596.44 
M 231.903178 596.44 
L 234.380918 512.088584 
L 237.977956 596.44 
M 243.31439 596.44 
L 246.075678 495.181005 
L 248.999369 487.255954 
L 251.923059 584.396729 
L 254.846749 570.862299 
L 257.620095 596.44 
M 257.826355 596.44 
L 260.694129 525.326839 
L 262.553653 596.44 
M 264.844554 596.44 
L 266.541509 540.144018 
L 269.465199 528.53135 
L 275.312579 563.968422 
L 278.23627 568.81307 
L 281.15996 556.439239 
L 284.08365 528.829413 
L 287.00734 542.914148 
L 289.93103 584.058229 
L 292.85472 539.343538 
L 295.77841 523.2618 
L 298.7021 580.185742 
L 301.62579 584.519789 
L 304.549481 549.195562 
L 307.473171 523.351593 
L 310.396861 543.402398 
L 313.320551 508.060821 
L 316.244241 543.42405 
L 319.167931 518.983651 
L 322.091621 537.771155 
L 325.015311 506.611428 
L 327.939001 543.793193 
L 330.862691 578.297106 
L 333.786382 553.136155 
L 336.710072 517.969967 
L 339.633762 571.521531 
L 342.557452 590.099926 
L 345.481142 518.353137 
L 348.404832 490.446473 
L 351.328522 475.263474 
L 354.252212 551.005773 
L 357.175902 538.603048 
L 360.099592 524.688945 
L 362.817367 596.44 
M 363.215542 596.44 
L 365.946973 519.206473 
L 368.870663 514.99468 
L 371.794353 533.104554 
L 374.857262 596.44 
M 382.070752 596.44 
L 383.489113 550.956696 
L 386.412803 530.608982 
L 389.336494 569.119075 
L 392.260184 539.988462 
L 395.183874 561.873369 
L 398.107564 514.335939 
L 401.031254 490.675626 
L 403.954944 494.723852 
L 406.878634 540.802865 
L 409.802324 495.426459 
L 412.726014 477.1243 
L 415.649704 558.012566 
L 418.573395 535.828091 
L 421.497085 578.199302 
L 422.196029 596.44 
M 433.092832 596.44 
L 433.191845 595.736765 
L 436.115535 525.924471 
L 439.039225 539.021722 
L 441.962915 588.851912 
L 444.886605 582.432397 
L 447.810296 504.777151 
L 450.733986 463.980456 
L 453.657676 529.3064 
L 456.581366 514.746638 
L 458.250994 596.44 
M 461.039763 596.44 
L 462.428746 540.906231 
L 465.352436 554.322884 
L 468.276126 534.445265 
L 471.199816 528.851171 
L 473.686208 596.44 
M 474.594303 596.44 
L 477.047197 534.50613 
L 479.970887 454.492292 
L 482.894577 578.392112 
L 485.818267 582.023937 
L 488.741957 581.000879 
L 491.665647 534.110052 
L 494.589337 530.39403 
L 496.679436 596.44 
M 498.306023 596.44 
L 500.436717 525.66443 
L 503.360408 457.371595 
L 507.759455 596.44 
M 515.962417 596.44 
L 517.978858 530.959446 
L 520.902548 578.02003 
L 523.826238 589.938423 
L 526.749928 544.81786 
L 529.541806 596.44 
M 534.070234 596.44 
L 535.520999 550.580592 
L 538.444689 527.831366 
L 541.368379 591.214736 
L 542.62728 596.44 
M 544.595612 596.44 
L 547.215759 536.793991 
L 550.139449 575.810139 
L 553.063139 481.132614 
L 555.986829 552.135484 
L 558.910519 528.223876 
L 561.83421 532.317891 
L 564.7579 548.309311 
L 567.68159 508.762203 
L 570.60528 515.339617 
L 573.52897 504.962929 
L 576.45266 480.075871 
L 579.37635 518.317423 
L 582.30004 535.370414 
L 585.22373 531.529059 
L 588.147421 520.010486 
L 591.071111 515.366902 
L 593.994801 532.855077 
L 596.918491 460.030138 
L 599.842181 518.038773 
L 602.765871 513.928702 
L 605.689561 523.170642 
L 608.613251 516.139363 
L 611.533272 596.44 
M 614.579286 596.44 
L 617.384322 450.700854 
L 620.308012 483.659424 
L 623.231702 549.748769 
L 625.495575 596.44 
M 627.914919 596.44 
L 629.079082 587.43624 
L 632.002772 563.792158 
L 634.926462 542.18849 
L 637.850152 579.273221 
L 640.773842 507.314209 
L 643.697532 447.176487 
L 646.621223 490.47736 
L 649.544913 508.695007 
L 652.468603 579.77966 
L 658.315983 514.768325 
L 661.239673 576.455658 
L 664.163363 509.008742 
L 667.087053 560.566974 
L 670.010743 567.483554 
L 672.934433 553.401618 
L 675.858124 559.546995 
L 678.781814 526.888763 
L 681.705504 586.026864 
L 682.406776 596.44 
M 686.167784 596.44 
L 687.552884 566.731625 
L 688.417511 596.44 
M 699.644826 596.44 
L 702.171335 584.286928 
L 705.095025 586.883767 
L 708.018715 580.869774 
L 710.942405 582.942964 
L 713.866095 581.385798 
L 716.789785 582.676347 
L 719.713475 581.230242 
L 722.637165 578.681151 
L 725.560855 582.752463 
L 728.484545 583.386474 
L 728.484545 583.386474 
" style="fill:none;stroke:#4c72b0;stroke-linecap:round;stroke-width:1.5;"/>
   </g>
   <g id="line2d_2">
    <path clip-path="url(#pa486fae8b9)" d="M 134.975455 550.986989 
L 137.899145 554.574914 
L 140.822835 555.170202 
L 143.746525 555.450321 
L 146.670215 556.988354 
L 149.593905 559.602333 
L 152.517595 558.140382 
L 155.441285 559.96518 
L 158.364975 559.380875 
L 164.212356 562.165871 
L 167.136046 562.836052 
L 170.059736 581.503121 
L 172.983426 587.735913 
L 174.483463 596.44 
M 184.920694 596.44 
L 187.601876 514.003874 
L 190.196923 596.44 
M 210.376951 596.44 
L 210.991397 576.542338 
L 213.915087 556.825137 
L 216.231074 596.44 
M 220.514256 596.44 
L 222.686158 588.042022 
L 225.609848 558.770126 
L 228.533538 578.317604 
L 230.439626 596.44 
M 231.739833 596.44 
L 234.380918 506.022541 
L 238.568618 596.44 
M 243.012944 596.44 
L 243.151988 594.615343 
L 246.075678 503.780048 
L 248.999369 513.669431 
L 251.923059 581.250321 
L 254.846749 570.70356 
L 257.279918 596.44 
M 258.018061 596.44 
L 260.694129 540.368589 
L 262.282223 596.44 
M 265.228302 596.44 
L 266.541509 557.98815 
L 269.465199 542.940873 
L 272.388889 575.529705 
L 275.312579 595.418832 
L 278.23627 594.503058 
L 281.15996 583.441778 
L 284.08365 542.99782 
L 287.00734 558.130868 
L 289.076976 596.44 
M 291.138961 596.44 
L 292.85472 573.985271 
L 295.77841 541.414699 
L 298.390825 596.44 
M 302.52358 596.44 
L 304.549481 563.12628 
L 307.473171 539.877191 
L 310.396861 536.051473 
L 313.320551 526.161495 
L 316.244241 560.761498 
L 319.167931 553.488508 
L 322.091621 551.429625 
L 325.015311 504.968281 
L 327.939001 573.683954 
L 330.862691 579.114097 
L 333.786382 543.984883 
L 336.710072 554.19832 
L 339.633762 586.653389 
L 342.557452 579.497232 
L 345.481142 511.047371 
L 348.404832 501.465392 
L 351.328522 557.809332 
L 354.252212 595.366047 
L 357.175902 520.344334 
L 360.099592 439.490734 
L 363.023283 440.126144 
L 365.946973 481.180187 
L 368.870663 464.265297 
L 371.794353 477.668413 
L 374.718043 532.947739 
L 377.641733 565.140284 
L 380.565423 594.896547 
L 383.489113 518.843241 
L 389.336494 575.823816 
L 392.260184 547.371604 
L 395.183874 570.110301 
L 398.107564 517.917533 
L 401.031254 489.705423 
L 403.954944 528.753227 
L 406.878634 538.255557 
L 409.802324 536.067808 
L 412.726014 543.256846 
L 415.649704 581.244059 
L 418.573395 540.588718 
L 422.517874 596.44 
M 425.846989 596.44 
L 427.344465 565.93097 
L 430.268155 576.02558 
L 433.191845 561.986389 
L 436.115535 514.779134 
L 439.039225 575.989866 
L 440.758938 596.44 
M 442.741586 596.44 
L 444.886605 557.000072 
L 447.810296 484.787526 
L 450.733986 500.265861 
L 453.657676 535.485183 
L 456.581366 554.650541 
L 457.739344 596.44 
M 461.087559 596.44 
L 462.428746 542.435343 
L 465.352436 570.355055 
L 468.276126 523.822423 
L 471.199816 533.378657 
L 474.123506 581.34767 
L 477.047197 566.620774 
L 479.970887 459.083722 
L 482.894577 571.537167 
L 485.66988 596.44 
M 487.10502 596.44 
L 488.741957 594.746168 
L 491.665647 552.305802 
L 494.589337 536.864861 
L 496.644166 596.44 
M 498.292038 596.44 
L 500.436717 527.087973 
L 503.360408 457.384992 
L 506.284098 554.004916 
L 507.823368 596.44 
M 516.443829 596.44 
L 517.978858 559.135106 
L 520.902548 587.324479 
L 523.826238 586.047152 
L 526.749928 556.519588 
L 529.087578 596.44 
M 533.820577 596.44 
L 535.520999 547.682646 
L 538.444689 527.148943 
L 544.292069 595.476339 
L 547.215759 503.770289 
L 550.139449 550.926334 
L 553.063139 494.504108 
L 555.986829 485.593079 
L 561.83421 429.56819 
L 564.7579 507.01765 
L 567.68159 471.842892 
L 570.60528 570.876046 
L 573.52897 451.442218 
L 576.45266 447.614331 
L 579.37635 495.777342 
L 582.30004 461.544384 
L 585.22373 543.436048 
L 588.147421 512.557839 
L 591.071111 534.704326 
L 593.994801 560.494111 
L 596.918491 484.944411 
L 599.842181 574.10158 
L 602.765871 535.998443 
L 605.689561 568.781484 
L 608.420974 596.44 
M 616.138215 596.44 
L 617.384322 553.573369 
L 620.308012 540.700479 
L 623.231702 579.445672 
L 623.902519 596.44 
M 634.004558 596.44 
L 634.926462 590.59776 
L 637.850152 591.943332 
L 640.773842 537.607449 
L 643.697532 448.57306 
L 646.621223 512.207061 
L 649.544913 541.989349 
L 652.468603 588.534539 
L 655.392293 577.354432 
L 658.315983 492.648074 
L 661.239673 576.916484 
L 664.163363 504.410631 
L 667.087053 569.939984 
L 670.010743 582.009105 
L 672.934433 555.314844 
L 675.858124 563.853338 
L 678.781814 552.977521 
L 681.792221 596.44 
M 686.210346 596.44 
L 687.552884 564.673057 
L 688.518314 596.44 
M 700.439585 596.44 
L 702.171335 575.392234 
L 705.095025 578.461861 
L 708.018715 577.009985 
L 710.942405 578.929368 
L 713.866095 576.447613 
L 716.789785 578.381198 
L 719.713475 578.005548 
L 722.637165 573.470087 
L 725.560855 577.989528 
L 728.484545 573.628791 
L 728.484545 573.628791 
" style="fill:none;stroke:#dd8452;stroke-dasharray:6,2.25;stroke-dashoffset:0;stroke-width:1.5;"/>
   </g>
   <g id="line2d_3">
    <path clip-path="url(#pa486fae8b9)" d="M 134.975455 553.657636 
L 137.899145 556.978209 
L 140.822835 558.353095 
L 143.746525 556.605079 
L 146.670215 564.32805 
L 149.593905 566.141094 
L 152.517595 566.050391 
L 155.441285 588.273834 
L 158.364975 588.878497 
L 161.288665 577.886197 
L 164.212356 580.382994 
L 167.136046 573.815059 
L 170.059736 573.854132 
L 174.029103 596.44 
M 183.728784 596.44 
L 184.678186 553.569346 
L 187.601876 516.639611 
L 190.525567 526.58769 
L 193.449257 551.970169 
L 197.784497 596.44 
M 203.464537 596.44 
L 208.067707 512.707728 
L 213.915087 588.324625 
L 216.838777 580.107702 
L 219.762468 542.301195 
L 222.686158 544.972506 
L 225.609848 504.826613 
L 231.457228 591.935147 
L 234.380918 486.826506 
L 237.304608 581.900353 
L 237.994262 596.44 
M 243.414265 596.44 
L 246.075678 489.357793 
L 248.999369 527.184937 
L 251.923059 534.956041 
L 254.696417 596.44 
M 258.781511 596.44 
L 260.694129 534.224471 
L 262.612194 596.44 
M 264.705118 596.44 
L 266.541509 541.348097 
L 269.465199 561.991426 
L 272.388889 583.442687 
L 275.312579 576.945692 
L 278.23627 589.233438 
L 281.15996 554.980821 
L 284.08365 554.095374 
L 287.00734 407.046369 
L 289.93103 502.786933 
L 292.85472 513.302912 
L 295.77841 550.015421 
L 297.558222 596.44 
M 303.748125 596.44 
L 304.549481 577.500543 
L 307.473171 553.924462 
L 310.396861 586.444489 
L 313.320551 581.929491 
L 316.244241 592.550549 
L 319.167931 589.165437 
L 322.091621 584.547458 
L 325.015311 525.929368 
L 327.939001 584.322677 
L 329.01657 596.44 
M 332.218317 596.44 
L 333.786382 572.427021 
L 336.710072 574.217993 
L 337.913969 596.44 
M 344.655118 596.44 
L 345.481142 572.527833 
L 348.404832 564.996341 
L 351.328522 567.421499 
L 354.252212 559.548149 
L 356.386985 596.44 
M 357.444348 596.44 
L 360.099592 461.587794 
L 363.023283 497.953198 
L 365.946973 505.811682 
L 368.870663 559.872028 
L 371.794353 452.967623 
L 374.718043 533.689139 
L 377.641733 574.403001 
L 380.565423 554.999115 
L 383.489113 492.76711 
L 386.412803 558.078468 
L 389.336494 594.013549 
L 392.260184 569.255671 
L 395.183874 560.726727 
L 398.107564 563.739968 
L 401.031254 481.335323 
L 403.954944 541.310529 
L 406.878634 565.436809 
L 409.802324 547.057764 
L 412.726014 515.882926 
L 415.042345 596.44 
M 427.092826 596.44 
L 427.344465 590.826738 
L 430.268155 586.500807 
L 433.191845 497.360044 
L 436.115535 443.201999 
L 439.039225 588.677817 
L 441.962915 572.800257 
L 444.886605 577.725079 
L 447.810296 545.630689 
L 450.733986 492.476077 
L 453.657676 510.805625 
L 456.581366 582.755647 
L 456.891696 596.44 
M 461.881247 596.44 
L 462.428746 569.887759 
L 465.352436 584.907611 
L 468.276126 553.017853 
L 471.199816 506.721125 
L 474.123506 524.221823 
L 477.047197 561.850527 
L 479.970887 469.431726 
L 482.894577 543.279268 
L 485.818267 573.587864 
L 488.399007 596.44 
M 488.881219 596.44 
L 491.665647 535.721927 
L 494.589337 516.35421 
L 497.513027 574.798484 
L 500.436717 491.86991 
L 503.360408 503.772073 
L 506.284098 505.843829 
L 508.578372 596.44 
M 510.727767 596.44 
L 512.131478 573.486877 
L 515.055168 502.050116 
L 517.978858 520.101819 
L 520.902548 519.391376 
L 523.826238 529.962063 
L 526.749928 590.651629 
L 529.673618 577.173201 
L 532.597309 565.51268 
L 535.520999 573.356297 
L 538.444689 561.169433 
L 541.368379 554.341598 
L 544.292069 582.612124 
L 547.215759 519.833488 
L 550.115271 596.44 
M 550.153304 596.44 
L 553.063139 462.27382 
L 555.986829 448.607271 
L 558.910519 526.184372 
L 561.83421 468.859735 
L 564.7579 480.649751 
L 567.68159 526.327545 
L 570.60528 540.690859 
L 573.52897 497.20935 
L 576.45266 514.79435 
L 579.37635 481.931591 
L 582.30004 501.362901 
L 585.22373 583.973752 
L 588.147421 538.252794 
L 591.071111 408.276473 
L 593.994801 404.177421 
L 596.918491 415.123023 
L 599.842181 484.112903 
L 602.765871 497.115954 
L 605.571587 596.44 
M 606.044149 596.44 
L 608.613251 566.180936 
L 611.10535 596.44 
M 614.960131 596.44 
L 617.384322 507.572011 
L 620.308012 516.182983 
L 624.409145 596.44 
M 634.319118 596.44 
L 634.926462 587.535792 
L 637.850152 578.780564 
L 640.773842 537.721204 
L 643.697532 483.384901 
L 646.621223 514.887782 
L 649.544913 535.175086 
L 652.468603 523.606981 
L 654.835395 596.44 
M 655.92045 596.44 
L 658.315983 518.711087 
L 661.239673 487.65441 
L 664.163363 463.896154 
L 667.087053 512.827465 
L 670.010743 451.971744 
L 672.934433 502.103985 
L 675.31644 596.44 
M 677.080498 596.44 
L 678.781814 566.581981 
L 681.705504 530.619546 
L 684.629194 585.556559 
L 685.621558 596.44 
M 700.706153 596.44 
L 702.171335 578.980544 
L 705.095025 577.536608 
L 708.018715 575.113164 
L 710.942405 581.448972 
L 713.866095 576.250396 
L 716.789785 578.861192 
L 719.713475 576.378038 
L 722.637165 576.205097 
L 725.560855 578.590133 
L 728.484545 576.385139 
L 728.484545 576.385139 
" style="fill:none;stroke:#55a868;stroke-dasharray:1.5,1.5;stroke-dashoffset:0;stroke-width:1.5;"/>
   </g>
   <g id="line2d_4">
    <path clip-path="url(#pa486fae8b9)" d="M 134.975455 550.907374 
L 137.899145 554.477145 
L 140.822835 555.133998 
L 143.746525 555.277206 
L 146.670215 557.008222 
L 149.593905 559.601878 
L 152.517595 558.250429 
L 155.441285 560.221408 
L 158.364975 559.811723 
L 164.212356 562.56947 
L 167.136046 563.406924 
L 170.059736 582.164766 
L 172.983426 588.37545 
L 174.373342 596.44 
M 184.951333 596.44 
L 187.601876 514.450848 
L 190.16762 596.44 
M 210.256251 596.44 
L 210.991397 571.064168 
L 213.915087 564.756694 
L 216.36397 596.44 
M 220.896761 596.44 
L 222.686158 588.938242 
L 225.609848 558.217478 
L 228.533538 579.580904 
L 230.225455 596.44 
M 231.809829 596.44 
L 234.380918 506.940764 
L 238.381966 596.44 
M 243.163511 596.44 
L 246.075678 504.540372 
L 248.999369 513.739216 
L 251.923059 581.572136 
L 254.846749 571.082428 
L 257.480543 596.44 
M 257.908486 596.44 
L 260.694129 540.119497 
L 262.277678 596.44 
M 265.160333 596.44 
L 266.541509 553.761841 
L 269.465199 542.760516 
L 272.388889 571.825331 
L 275.168022 596.44 
M 276.234644 596.44 
L 278.23627 593.660636 
L 281.15996 580.907308 
L 284.08365 542.6497 
L 287.00734 567.369414 
L 288.787515 596.44 
M 291.097631 596.44 
L 292.85472 568.314222 
L 295.77841 541.241233 
L 298.385504 596.44 
M 302.618324 596.44 
L 304.549481 566.309628 
L 307.473171 540.230384 
L 310.396861 538.323383 
L 313.320551 525.258733 
L 316.244241 562.537568 
L 319.167931 555.850737 
L 322.091621 561.161948 
L 325.015311 500.722978 
L 327.939001 560.654039 
L 330.862691 589.898721 
L 333.786382 540.577944 
L 336.710072 560.06872 
L 339.021905 596.44 
M 342.573685 596.44 
L 345.481142 518.794619 
L 348.404832 472.738868 
L 351.328522 536.167256 
L 354.252212 519.322991 
L 357.175902 539.564471 
L 360.099592 460.753978 
L 363.023283 580.777007 
L 365.946973 490.824955 
L 368.870663 477.728159 
L 371.794353 498.531801 
L 374.718043 557.47426 
L 377.641733 573.789524 
L 379.785803 596.44 
M 380.832434 596.44 
L 383.489113 514.493418 
L 386.412803 549.553302 
L 389.336494 574.947149 
L 392.260184 545.486396 
L 395.183874 570.297653 
L 398.107564 519.570614 
L 401.031254 492.717544 
L 403.954944 521.192038 
L 406.878634 528.026974 
L 409.802324 536.04647 
L 412.726014 539.654649 
L 415.649704 582.310072 
L 418.573395 540.562833 
L 422.241478 596.44 
M 426.157632 596.44 
L 427.344465 571.694751 
L 430.268155 575.107182 
L 433.191845 557.875444 
L 436.115535 513.581282 
L 439.039225 575.440086 
L 440.820675 596.44 
M 442.689119 596.44 
L 444.886605 555.695426 
L 447.810296 484.069353 
L 450.733986 493.609567 
L 453.657676 538.593393 
L 456.581366 552.39549 
L 457.780377 596.44 
M 461.0433 596.44 
L 462.428746 539.378728 
L 465.352436 572.407187 
L 468.276126 524.906695 
L 471.199816 541.488087 
L 474.123506 590.045287 
L 477.047197 571.7411 
L 479.970887 457.207784 
L 482.894577 572.521746 
L 485.662384 596.44 
M 487.545235 596.44 
L 488.741957 595.506527 
L 491.665647 554.567883 
L 494.589337 538.440356 
L 496.598042 596.44 
M 498.318216 596.44 
L 500.436717 526.928884 
L 503.360408 456.538863 
L 506.284098 551.103227 
L 507.856776 596.44 
M 516.318219 596.44 
L 517.978858 547.904278 
L 520.902548 584.882111 
L 523.826238 591.795612 
L 526.749928 557.408218 
L 529.327891 596.44 
M 533.938973 596.44 
L 535.520999 553.324697 
L 538.444689 533.853929 
L 541.368379 563.035507 
L 543.836635 596.44 
M 544.471478 596.44 
L 547.215759 502.159254 
L 550.139449 554.685765 
L 553.063139 456.769555 
L 555.986829 508.417966 
L 558.910519 526.605075 
L 561.83421 504.513787 
L 564.7579 502.676467 
L 567.68159 434.817837 
L 570.60528 516.614076 
L 573.52897 496.099263 
L 576.45266 466.078306 
L 579.37635 494.641055 
L 582.30004 472.77864 
L 585.22373 582.010819 
L 588.147421 505.325181 
L 591.071111 522.927392 
L 593.994801 570.753791 
L 596.918491 500.87717 
L 599.842181 567.827616 
L 602.765871 557.624918 
L 605.689561 573.93483 
L 608.649951 596.44 
M 616.139155 596.44 
L 617.384322 549.696929 
L 620.308012 539.308803 
L 623.231702 582.365795 
L 623.837881 596.44 
M 634.236707 596.44 
L 634.926462 592.907029 
L 637.850152 592.387472 
L 640.773842 537.980475 
L 643.697532 447.268239 
L 646.621223 515.412376 
L 649.544913 541.842118 
L 652.468603 589.271846 
L 655.392293 577.559939 
L 658.315983 492.752209 
L 661.239673 577.688036 
L 664.163363 504.862117 
L 667.087053 568.802751 
L 670.010743 582.127792 
L 672.934433 555.232676 
L 675.858124 563.559506 
L 678.781814 553.773769 
L 681.909925 596.44 
M 686.214313 596.44 
L 687.552884 565.370767 
L 688.488297 596.44 
M 700.511239 596.44 
L 702.171335 575.209289 
L 705.095025 578.405509 
L 708.018715 577.482599 
L 710.942405 579.998354 
L 713.866095 577.715775 
L 716.789785 578.925031 
L 719.713475 578.612065 
L 722.637165 574.471982 
L 725.560855 578.942031 
L 728.484545 575.18001 
L 728.484545 575.18001 
" style="fill:none;stroke:#c44e52;stroke-dasharray:4.5,1.875,2.25,1.875;stroke-dashoffset:0;stroke-width:1.5;"/>
   </g>
   <g id="line2d_5">
    <path clip-path="url(#pa486fae8b9)" d="M 134.975455 553.693665 
L 137.899145 557.36939 
L 140.822835 558.038451 
L 143.746525 558.575392 
L 146.670215 560.017195 
L 149.593905 563.121278 
L 152.517595 562.305301 
L 155.441285 563.993292 
L 158.364975 563.68456 
L 161.288665 565.797906 
L 164.212356 565.734768 
L 167.136046 565.923624 
L 170.059736 582.213948 
L 172.983426 588.306155 
L 174.637975 596.44 
M 185.099476 596.44 
L 187.601876 533.177243 
L 189.95349 596.44 
M 210.339321 596.44 
L 210.991397 573.844302 
L 213.915087 554.549693 
L 216.415028 596.44 
M 220.392536 596.44 
L 222.686158 587.972762 
L 225.609848 565.505614 
L 228.533538 582.325114 
L 229.986872 596.44 
M 231.87493 596.44 
L 234.380918 510.766343 
L 237.304608 570.748544 
L 238.418405 596.44 
M 243.177665 596.44 
L 246.075678 500.64116 
L 248.999369 503.98531 
L 251.923059 588.294997 
L 254.846749 572.016951 
L 257.159243 596.44 
M 258.054358 596.44 
L 260.694129 536.423379 
L 262.344692 596.44 
M 265.127024 596.44 
L 266.541509 553.052868 
L 269.465199 541.582497 
L 272.388889 569.436238 
L 275.312579 595.409667 
L 278.23627 596.118361 
L 281.15996 587.307933 
L 284.08365 549.4605 
L 287.00734 565.543672 
L 288.911945 596.44 
M 290.985434 596.44 
L 292.85472 567.13232 
L 295.77841 536.694159 
L 298.61019 596.44 
M 302.433565 596.44 
L 304.549481 563.637197 
L 307.473171 538.464282 
L 310.396861 553.134371 
L 313.320551 529.838829 
L 316.244241 560.396727 
L 319.167931 554.866821 
L 322.091621 564.799405 
L 325.015311 510.985072 
L 327.939001 554.503065 
L 330.862691 544.780222 
L 333.786382 563.929174 
L 336.710072 545.665773 
L 339.633762 588.668407 
L 342.557452 587.040582 
L 345.481142 546.088226 
L 348.404832 488.667009 
L 351.328522 492.374461 
L 354.094676 596.44 
M 355.322813 596.44 
L 357.175902 586.18158 
L 360.099592 563.788485 
L 361.298094 596.44 
M 364.348808 596.44 
L 365.946973 539.772461 
L 368.870663 534.570843 
L 371.794353 515.695293 
L 375.289786 596.44 
M 382.41871 596.44 
L 383.489113 561.929897 
L 386.412803 542.095583 
L 389.336494 575.007489 
L 392.260184 558.976437 
L 395.183874 581.58298 
L 398.107564 502.582021 
L 401.031254 499.086653 
L 403.954944 527.717332 
L 406.878634 549.509122 
L 409.802324 552.530093 
L 412.726014 529.55801 
L 415.183803 596.44 
M 416.281646 596.44 
L 418.573395 550.46215 
L 421.372575 596.44 
M 426.712119 596.44 
L 427.344465 582.237559 
L 430.268155 578.277937 
L 433.191845 562.312857 
L 436.115535 515.383867 
L 439.039225 572.287171 
L 440.983334 596.44 
M 442.70873 596.44 
L 444.886605 560.902222 
L 447.810296 484.376722 
L 450.733986 487.96895 
L 453.657676 519.148056 
L 456.581366 540.26302 
L 458.369773 596.44 
M 460.467319 596.44 
L 462.428746 523.750084 
L 465.352436 561.797288 
L 468.276126 527.526691 
L 471.199816 546.633318 
L 474.123506 595.769471 
L 477.047197 551.61995 
L 479.970887 457.56185 
L 482.894577 576.563396 
L 485.683819 596.44 
M 485.85473 596.44 
L 488.741957 520.576496 
L 491.665647 573.791797 
L 494.589337 484.408484 
L 497.513027 546.643952 
L 500.436717 529.02768 
L 503.360408 520.201127 
L 506.284098 578.296546 
L 509.207788 511.575568 
L 512.131478 540.821264 
L 515.055168 483.169705 
L 517.978858 486.171891 
L 520.902548 511.235843 
L 523.826238 516.878384 
L 526.749928 562.166816 
L 532.597309 483.052067 
L 535.520999 511.937715 
L 538.444689 470.448278 
L 541.368379 433.458517 
L 544.292069 426.445078 
L 547.215759 460.34034 
L 550.139449 469.1458 
L 553.063139 423.896651 
L 555.986829 433.30618 
L 558.910519 426.267835 
L 561.83421 430.634938 
L 564.7579 454.765695 
L 567.68159 442.384833 
L 570.60528 492.383031 
L 573.52897 497.040992 
L 576.45266 481.415987 
L 579.37635 492.405348 
L 582.30004 454.835271 
L 585.22373 557.710374 
L 588.147421 495.955495 
L 591.071111 509.807893 
L 593.994801 549.540639 
L 596.918491 496.560823 
L 599.842181 546.772433 
L 602.765871 549.071663 
L 605.689561 571.106144 
L 608.613251 581.741544 
L 609.807262 596.44 
M 615.750143 596.44 
L 617.384322 534.765996 
L 620.308012 535.401651 
L 623.231702 573.742196 
L 624.259777 596.44 
M 633.542424 596.44 
L 634.926462 587.711951 
L 637.850152 583.152844 
L 640.773842 519.874064 
L 643.697532 439.69827 
L 646.621223 503.196583 
L 649.544913 529.93317 
L 652.468603 578.28948 
L 655.392293 564.295624 
L 658.315983 491.73132 
L 661.239673 563.702119 
L 664.163363 497.620574 
L 667.087053 560.46067 
L 670.010743 576.114359 
L 672.934433 555.008735 
L 675.858124 556.98566 
L 678.781814 536.720743 
L 681.705504 589.382662 
L 682.324202 596.44 
M 685.801255 596.44 
L 687.552884 557.146323 
L 688.812711 596.44 
M 700.143235 596.44 
L 702.171335 569.725382 
L 705.095025 575.557619 
L 708.018715 573.748807 
L 710.942405 575.897798 
L 713.866095 573.554529 
L 716.789785 574.625264 
L 719.713475 575.071468 
L 722.637165 569.705933 
L 725.560855 575.388736 
L 728.484545 571.266142 
L 728.484545 571.266142 
" style="fill:none;stroke:#8172b3;stroke-dasharray:7.5,1.5,1.5,1.5;stroke-dashoffset:0;stroke-width:1.5;"/>
   </g>
   <g id="line2d_6"/>
   <g id="line2d_7"/>
   <g id="line2d_8"/>
   <g id="line2d_9"/>
   <g id="line2d_10"/>
   <g id="patch_3">
    <path d="M 105.3 529.9416 
L 105.3 71.4528 
" style="fill:none;stroke:#262626;stroke-linecap:square;stroke-linejoin:miter;stroke-width:1.25;"/>
   </g>
   <g id="patch_4">
    <path d="M 758.16 529.9416 
L 758.16 71.4528 
" style="fill:none;stroke:#262626;stroke-linecap:square;stroke-linejoin:miter;stroke-width:1.25;"/>
   </g>
   <g id="patch_5">
    <path d="M 105.3 529.9416 
L 758.16 529.9416 
" style="fill:none;stroke:#262626;stroke-linecap:square;stroke-linejoin:miter;stroke-width:1.25;"/>
   </g>
   <g id="patch_6">
    <path d="M 105.3 71.4528 
L 758.16 71.4528 
" style="fill:none;stroke:#262626;stroke-linecap:square;stroke-linejoin:miter;stroke-width:1.25;"/>
   </g>
   <g id="text_16">
    <!-- Activations for &gt;\&lt; -->
    <g style="fill:#262626;" transform="translate(383.7075 65.4528)scale(0.12 -0.12)">
     <defs>
      <path d="M -9 0 
L 1750 4581 
L 2403 4581 
L 4278 0 
L 3588 0 
L 3053 1388 
L 1138 1388 
L 634 0 
L -9 0 
z
M 1313 1881 
L 2866 1881 
L 2388 3150 
Q 2169 3728 2063 4100 
Q 1975 3659 1816 3225 
L 1313 1881 
z
" id="ArialMT-41" transform="scale(0.015625)"/>
      <path d="M 2588 1216 
L 3141 1144 
Q 3050 572 2676 248 
Q 2303 -75 1759 -75 
Q 1078 -75 664 370 
Q 250 816 250 1647 
Q 250 2184 428 2587 
Q 606 2991 970 3192 
Q 1334 3394 1763 3394 
Q 2303 3394 2647 3120 
Q 2991 2847 3088 2344 
L 2541 2259 
Q 2463 2594 2264 2762 
Q 2066 2931 1784 2931 
Q 1359 2931 1093 2626 
Q 828 2322 828 1663 
Q 828 994 1084 691 
Q 1341 388 1753 388 
Q 2084 388 2306 591 
Q 2528 794 2588 1216 
z
" id="ArialMT-63" transform="scale(0.015625)"/>
      <path d="M 1650 503 
L 1731 6 
Q 1494 -44 1306 -44 
Q 1000 -44 831 53 
Q 663 150 594 308 
Q 525 466 525 972 
L 525 2881 
L 113 2881 
L 113 3319 
L 525 3319 
L 525 4141 
L 1084 4478 
L 1084 3319 
L 1650 3319 
L 1650 2881 
L 1084 2881 
L 1084 941 
Q 1084 700 1114 631 
Q 1144 563 1211 522 
Q 1278 481 1403 481 
Q 1497 481 1650 503 
z
" id="ArialMT-74" transform="scale(0.015625)"/>
      <path d="M 425 3934 
L 425 4581 
L 988 4581 
L 988 3934 
L 425 3934 
z
M 425 0 
L 425 3319 
L 988 3319 
L 988 0 
L 425 0 
z
" id="ArialMT-69" transform="scale(0.015625)"/>
      <path d="M 1344 0 
L 81 3319 
L 675 3319 
L 1388 1331 
Q 1503 1009 1600 663 
Q 1675 925 1809 1294 
L 2547 3319 
L 3125 3319 
L 1869 0 
L 1344 0 
z
" id="ArialMT-76" transform="scale(0.015625)"/>
      <path d="M 2588 409 
Q 2275 144 1986 34 
Q 1697 -75 1366 -75 
Q 819 -75 525 192 
Q 231 459 231 875 
Q 231 1119 342 1320 
Q 453 1522 633 1644 
Q 813 1766 1038 1828 
Q 1203 1872 1538 1913 
Q 2219 1994 2541 2106 
Q 2544 2222 2544 2253 
Q 2544 2597 2384 2738 
Q 2169 2928 1744 2928 
Q 1347 2928 1158 2789 
Q 969 2650 878 2297 
L 328 2372 
Q 403 2725 575 2942 
Q 747 3159 1072 3276 
Q 1397 3394 1825 3394 
Q 2250 3394 2515 3294 
Q 2781 3194 2906 3042 
Q 3031 2891 3081 2659 
Q 3109 2516 3109 2141 
L 3109 1391 
Q 3109 606 3145 398 
Q 3181 191 3288 0 
L 2700 0 
Q 2613 175 2588 409 
z
M 2541 1666 
Q 2234 1541 1622 1453 
Q 1275 1403 1131 1340 
Q 988 1278 909 1158 
Q 831 1038 831 891 
Q 831 666 1001 516 
Q 1172 366 1500 366 
Q 1825 366 2078 508 
Q 2331 650 2450 897 
Q 2541 1088 2541 1459 
L 2541 1666 
z
" id="ArialMT-61" transform="scale(0.015625)"/>
      <path d="M 213 1659 
Q 213 2581 725 3025 
Q 1153 3394 1769 3394 
Q 2453 3394 2887 2945 
Q 3322 2497 3322 1706 
Q 3322 1066 3130 698 
Q 2938 331 2570 128 
Q 2203 -75 1769 -75 
Q 1072 -75 642 372 
Q 213 819 213 1659 
z
M 791 1659 
Q 791 1022 1069 705 
Q 1347 388 1769 388 
Q 2188 388 2466 706 
Q 2744 1025 2744 1678 
Q 2744 2294 2464 2611 
Q 2184 2928 1769 2928 
Q 1347 2928 1069 2612 
Q 791 2297 791 1659 
z
" id="ArialMT-6f" transform="scale(0.015625)"/>
      <path d="M 422 0 
L 422 3319 
L 928 3319 
L 928 2847 
Q 1294 3394 1984 3394 
Q 2284 3394 2536 3286 
Q 2788 3178 2913 3003 
Q 3038 2828 3088 2588 
Q 3119 2431 3119 2041 
L 3119 0 
L 2556 0 
L 2556 2019 
Q 2556 2363 2490 2533 
Q 2425 2703 2258 2804 
Q 2091 2906 1866 2906 
Q 1506 2906 1245 2678 
Q 984 2450 984 1813 
L 984 0 
L 422 0 
z
" id="ArialMT-6e" transform="scale(0.015625)"/>
      <path d="M 197 991 
L 753 1078 
Q 800 744 1014 566 
Q 1228 388 1613 388 
Q 2000 388 2187 545 
Q 2375 703 2375 916 
Q 2375 1106 2209 1216 
Q 2094 1291 1634 1406 
Q 1016 1563 777 1677 
Q 538 1791 414 1992 
Q 291 2194 291 2438 
Q 291 2659 392 2848 
Q 494 3038 669 3163 
Q 800 3259 1026 3326 
Q 1253 3394 1513 3394 
Q 1903 3394 2198 3281 
Q 2494 3169 2634 2976 
Q 2775 2784 2828 2463 
L 2278 2388 
Q 2241 2644 2061 2787 
Q 1881 2931 1553 2931 
Q 1166 2931 1000 2803 
Q 834 2675 834 2503 
Q 834 2394 903 2306 
Q 972 2216 1119 2156 
Q 1203 2125 1616 2013 
Q 2213 1853 2448 1751 
Q 2684 1650 2818 1456 
Q 2953 1263 2953 975 
Q 2953 694 2789 445 
Q 2625 197 2315 61 
Q 2006 -75 1616 -75 
Q 969 -75 630 194 
Q 291 463 197 991 
z
" id="ArialMT-73" transform="scale(0.015625)"/>
      <path id="ArialMT-20" transform="scale(0.015625)"/>
      <path d="M 556 0 
L 556 2881 
L 59 2881 
L 59 3319 
L 556 3319 
L 556 3672 
Q 556 4006 616 4169 
Q 697 4388 901 4523 
Q 1106 4659 1475 4659 
Q 1713 4659 2000 4603 
L 1916 4113 
Q 1741 4144 1584 4144 
Q 1328 4144 1222 4034 
Q 1116 3925 1116 3625 
L 1116 3319 
L 1763 3319 
L 1763 2881 
L 1116 2881 
L 1116 0 
L 556 0 
z
" id="ArialMT-66" transform="scale(0.015625)"/>
      <path d="M 416 0 
L 416 3319 
L 922 3319 
L 922 2816 
Q 1116 3169 1280 3281 
Q 1444 3394 1641 3394 
Q 1925 3394 2219 3213 
L 2025 2691 
Q 1819 2813 1613 2813 
Q 1428 2813 1281 2702 
Q 1134 2591 1072 2394 
Q 978 2094 978 1738 
L 978 0 
L 416 0 
z
" id="ArialMT-72" transform="scale(0.015625)"/>
      <path d="M 3384 2003 
L 350 706 
L 350 1266 
L 2753 2263 
L 350 3250 
L 350 3809 
L 3384 2528 
L 3384 2003 
z
" id="ArialMT-3e" transform="scale(0.015625)"/>
      <path d="M 1328 -78 
L 0 4659 
L 453 4659 
L 1778 -78 
L 1328 -78 
z
" id="ArialMT-5c" transform="scale(0.015625)"/>
      <path d="M 350 2003 
L 350 2528 
L 3384 3809 
L 3384 3250 
L 978 2263 
L 3384 1266 
L 3384 706 
L 350 2003 
z
" id="ArialMT-3c" transform="scale(0.015625)"/>
     </defs>
     <use xlink:href="#ArialMT-41"/>
     <use x="66.699219" xlink:href="#ArialMT-63"/>
     <use x="116.699219" xlink:href="#ArialMT-74"/>
     <use x="144.482422" xlink:href="#ArialMT-69"/>
     <use x="166.699219" xlink:href="#ArialMT-76"/>
     <use x="216.699219" xlink:href="#ArialMT-61"/>
     <use x="272.314453" xlink:href="#ArialMT-74"/>
     <use x="300.097656" xlink:href="#ArialMT-69"/>
     <use x="322.314453" xlink:href="#ArialMT-6f"/>
     <use x="377.929688" xlink:href="#ArialMT-6e"/>
     <use x="433.544922" xlink:href="#ArialMT-73"/>
     <use x="483.544922" xlink:href="#ArialMT-20"/>
     <use x="511.328125" xlink:href="#ArialMT-66"/>
     <use x="539.111328" xlink:href="#ArialMT-6f"/>
     <use x="594.726562" xlink:href="#ArialMT-72"/>
     <use x="628.027344" xlink:href="#ArialMT-20"/>
     <use x="655.810547" xlink:href="#ArialMT-3e"/>
     <use x="714.208984" xlink:href="#ArialMT-5c"/>
     <use x="741.992188" xlink:href="#ArialMT-3c"/>
    </g>
   </g>
   <g id="legend_1">
    <g id="patch_7">
     <path d="M 640.044062 158.514363 
L 750.46 158.514363 
Q 752.66 158.514363 752.66 156.314363 
L 752.66 79.1528 
Q 752.66 76.9528 750.46 76.9528 
L 640.044062 76.9528 
Q 637.844062 76.9528 637.844062 79.1528 
L 637.844062 156.314363 
Q 637.844062 158.514363 640.044062 158.514363 
z
" style="fill:#ffffff;opacity:0.8;stroke:#cccccc;stroke-linejoin:miter;"/>
    </g>
    <g id="line2d_11">
     <path d="M 642.244062 85.376394 
L 664.244062 85.376394 
" style="fill:none;stroke:#4c72b0;stroke-linecap:round;stroke-width:1.5;"/>
    </g>
    <g id="line2d_12"/>
    <g id="text_17">
     <!-- regular -->
     <g style="fill:#262626;" transform="translate(673.044062 89.226394)scale(0.11 -0.11)">
      <defs>
       <path d="M 2694 1069 
L 3275 997 
Q 3138 488 2766 206 
Q 2394 -75 1816 -75 
Q 1088 -75 661 373 
Q 234 822 234 1631 
Q 234 2469 665 2931 
Q 1097 3394 1784 3394 
Q 2450 3394 2872 2941 
Q 3294 2488 3294 1666 
Q 3294 1616 3291 1516 
L 816 1516 
Q 847 969 1125 678 
Q 1403 388 1819 388 
Q 2128 388 2347 550 
Q 2566 713 2694 1069 
z
M 847 1978 
L 2700 1978 
Q 2663 2397 2488 2606 
Q 2219 2931 1791 2931 
Q 1403 2931 1139 2672 
Q 875 2413 847 1978 
z
" id="ArialMT-65" transform="scale(0.015625)"/>
       <path d="M 319 -275 
L 866 -356 
Q 900 -609 1056 -725 
Q 1266 -881 1628 -881 
Q 2019 -881 2231 -725 
Q 2444 -569 2519 -288 
Q 2563 -116 2559 434 
Q 2191 0 1641 0 
Q 956 0 581 494 
Q 206 988 206 1678 
Q 206 2153 378 2554 
Q 550 2956 876 3175 
Q 1203 3394 1644 3394 
Q 2231 3394 2613 2919 
L 2613 3319 
L 3131 3319 
L 3131 450 
Q 3131 -325 2973 -648 
Q 2816 -972 2473 -1159 
Q 2131 -1347 1631 -1347 
Q 1038 -1347 672 -1080 
Q 306 -813 319 -275 
z
M 784 1719 
Q 784 1066 1043 766 
Q 1303 466 1694 466 
Q 2081 466 2343 764 
Q 2606 1063 2606 1700 
Q 2606 2309 2336 2618 
Q 2066 2928 1684 2928 
Q 1309 2928 1046 2623 
Q 784 2319 784 1719 
z
" id="ArialMT-67" transform="scale(0.015625)"/>
       <path d="M 2597 0 
L 2597 488 
Q 2209 -75 1544 -75 
Q 1250 -75 995 37 
Q 741 150 617 320 
Q 494 491 444 738 
Q 409 903 409 1263 
L 409 3319 
L 972 3319 
L 972 1478 
Q 972 1038 1006 884 
Q 1059 663 1231 536 
Q 1403 409 1656 409 
Q 1909 409 2131 539 
Q 2353 669 2445 892 
Q 2538 1116 2538 1541 
L 2538 3319 
L 3100 3319 
L 3100 0 
L 2597 0 
z
" id="ArialMT-75" transform="scale(0.015625)"/>
       <path d="M 409 0 
L 409 4581 
L 972 4581 
L 972 0 
L 409 0 
z
" id="ArialMT-6c" transform="scale(0.015625)"/>
      </defs>
      <use xlink:href="#ArialMT-72"/>
      <use x="33.300781" xlink:href="#ArialMT-65"/>
      <use x="88.916016" xlink:href="#ArialMT-67"/>
      <use x="144.53125" xlink:href="#ArialMT-75"/>
      <use x="200.146484" xlink:href="#ArialMT-6c"/>
      <use x="222.363281" xlink:href="#ArialMT-61"/>
      <use x="277.978516" xlink:href="#ArialMT-72"/>
     </g>
    </g>
    <g id="line2d_13">
     <path d="M 642.244062 101.0978 
L 664.244062 101.0978 
" style="fill:none;stroke:#dd8452;stroke-dasharray:6,2.25;stroke-dashoffset:0;stroke-width:1.5;"/>
    </g>
    <g id="line2d_14"/>
    <g id="text_18">
     <!-- splitted_3s -->
     <g style="fill:#262626;" transform="translate(673.044062 104.9478)scale(0.11 -0.11)">
      <defs>
       <path d="M 422 -1272 
L 422 3319 
L 934 3319 
L 934 2888 
Q 1116 3141 1344 3267 
Q 1572 3394 1897 3394 
Q 2322 3394 2647 3175 
Q 2972 2956 3137 2557 
Q 3303 2159 3303 1684 
Q 3303 1175 3120 767 
Q 2938 359 2589 142 
Q 2241 -75 1856 -75 
Q 1575 -75 1351 44 
Q 1128 163 984 344 
L 984 -1272 
L 422 -1272 
z
M 931 1641 
Q 931 1000 1190 694 
Q 1450 388 1819 388 
Q 2194 388 2461 705 
Q 2728 1022 2728 1688 
Q 2728 2322 2467 2637 
Q 2206 2953 1844 2953 
Q 1484 2953 1207 2617 
Q 931 2281 931 1641 
z
" id="ArialMT-70" transform="scale(0.015625)"/>
       <path d="M 2575 0 
L 2575 419 
Q 2259 -75 1647 -75 
Q 1250 -75 917 144 
Q 584 363 401 755 
Q 219 1147 219 1656 
Q 219 2153 384 2558 
Q 550 2963 881 3178 
Q 1213 3394 1622 3394 
Q 1922 3394 2156 3267 
Q 2391 3141 2538 2938 
L 2538 4581 
L 3097 4581 
L 3097 0 
L 2575 0 
z
M 797 1656 
Q 797 1019 1065 703 
Q 1334 388 1700 388 
Q 2069 388 2326 689 
Q 2584 991 2584 1609 
Q 2584 2291 2321 2609 
Q 2059 2928 1675 2928 
Q 1300 2928 1048 2622 
Q 797 2316 797 1656 
z
" id="ArialMT-64" transform="scale(0.015625)"/>
       <path d="M -97 -1272 
L -97 -866 
L 3631 -866 
L 3631 -1272 
L -97 -1272 
z
" id="ArialMT-5f" transform="scale(0.015625)"/>
       <path d="M 269 1209 
L 831 1284 
Q 928 806 1161 595 
Q 1394 384 1728 384 
Q 2125 384 2398 659 
Q 2672 934 2672 1341 
Q 2672 1728 2419 1979 
Q 2166 2231 1775 2231 
Q 1616 2231 1378 2169 
L 1441 2663 
Q 1497 2656 1531 2656 
Q 1891 2656 2178 2843 
Q 2466 3031 2466 3422 
Q 2466 3731 2256 3934 
Q 2047 4138 1716 4138 
Q 1388 4138 1169 3931 
Q 950 3725 888 3313 
L 325 3413 
Q 428 3978 793 4289 
Q 1159 4600 1703 4600 
Q 2078 4600 2393 4439 
Q 2709 4278 2876 4000 
Q 3044 3722 3044 3409 
Q 3044 3113 2884 2869 
Q 2725 2625 2413 2481 
Q 2819 2388 3044 2092 
Q 3269 1797 3269 1353 
Q 3269 753 2831 336 
Q 2394 -81 1725 -81 
Q 1122 -81 723 278 
Q 325 638 269 1209 
z
" id="ArialMT-33" transform="scale(0.015625)"/>
      </defs>
      <use xlink:href="#ArialMT-73"/>
      <use x="50" xlink:href="#ArialMT-70"/>
      <use x="105.615234" xlink:href="#ArialMT-6c"/>
      <use x="127.832031" xlink:href="#ArialMT-69"/>
      <use x="150.048828" xlink:href="#ArialMT-74"/>
      <use x="177.832031" xlink:href="#ArialMT-74"/>
      <use x="205.615234" xlink:href="#ArialMT-65"/>
      <use x="261.230469" xlink:href="#ArialMT-64"/>
      <use x="316.845703" xlink:href="#ArialMT-5f"/>
      <use x="372.460938" xlink:href="#ArialMT-33"/>
      <use x="428.076172" xlink:href="#ArialMT-73"/>
     </g>
    </g>
    <g id="line2d_15">
     <path d="M 642.244062 116.6903 
L 664.244062 116.6903 
" style="fill:none;stroke:#55a868;stroke-dasharray:1.5,1.5;stroke-dashoffset:0;stroke-width:1.5;"/>
    </g>
    <g id="line2d_16"/>
    <g id="text_19">
     <!-- splitted_1s -->
     <g style="fill:#262626;" transform="translate(673.044062 120.5403)scale(0.11 -0.11)">
      <use xlink:href="#ArialMT-73"/>
      <use x="50" xlink:href="#ArialMT-70"/>
      <use x="105.615234" xlink:href="#ArialMT-6c"/>
      <use x="127.832031" xlink:href="#ArialMT-69"/>
      <use x="150.048828" xlink:href="#ArialMT-74"/>
      <use x="177.832031" xlink:href="#ArialMT-74"/>
      <use x="205.615234" xlink:href="#ArialMT-65"/>
      <use x="261.230469" xlink:href="#ArialMT-64"/>
      <use x="316.845703" xlink:href="#ArialMT-5f"/>
      <use x="372.460938" xlink:href="#ArialMT-31"/>
      <use x="428.076172" xlink:href="#ArialMT-73"/>
     </g>
    </g>
    <g id="line2d_17">
     <path d="M 642.244062 132.384206 
L 664.244062 132.384206 
" style="fill:none;stroke:#c44e52;stroke-dasharray:4.5,1.875,2.25,1.875;stroke-dashoffset:0;stroke-width:1.5;"/>
    </g>
    <g id="line2d_18"/>
    <g id="text_20">
     <!-- overlap_1f_3s -->
     <g style="fill:#262626;" transform="translate(673.044062 136.234206)scale(0.11 -0.11)">
      <use xlink:href="#ArialMT-6f"/>
      <use x="55.615234" xlink:href="#ArialMT-76"/>
      <use x="105.615234" xlink:href="#ArialMT-65"/>
      <use x="161.230469" xlink:href="#ArialMT-72"/>
      <use x="194.53125" xlink:href="#ArialMT-6c"/>
      <use x="216.748047" xlink:href="#ArialMT-61"/>
      <use x="272.363281" xlink:href="#ArialMT-70"/>
      <use x="327.978516" xlink:href="#ArialMT-5f"/>
      <use x="383.59375" xlink:href="#ArialMT-31"/>
      <use x="439.208984" xlink:href="#ArialMT-66"/>
      <use x="466.992188" xlink:href="#ArialMT-5f"/>
      <use x="522.607422" xlink:href="#ArialMT-33"/>
      <use x="578.222656" xlink:href="#ArialMT-73"/>
     </g>
    </g>
    <g id="line2d_19">
     <path d="M 642.244062 148.078113 
L 664.244062 148.078113 
" style="fill:none;stroke:#8172b3;stroke-dasharray:7.5,1.5,1.5,1.5;stroke-dashoffset:0;stroke-width:1.5;"/>
    </g>
    <g id="line2d_20"/>
    <g id="text_21">
     <!-- overlap_10f_3s -->
     <g style="fill:#262626;" transform="translate(673.044062 151.928112)scale(0.11 -0.11)">
      <use xlink:href="#ArialMT-6f"/>
      <use x="55.615234" xlink:href="#ArialMT-76"/>
      <use x="105.615234" xlink:href="#ArialMT-65"/>
      <use x="161.230469" xlink:href="#ArialMT-72"/>
      <use x="194.53125" xlink:href="#ArialMT-6c"/>
      <use x="216.748047" xlink:href="#ArialMT-61"/>
      <use x="272.363281" xlink:href="#ArialMT-70"/>
      <use x="327.978516" xlink:href="#ArialMT-5f"/>
      <use x="383.59375" xlink:href="#ArialMT-31"/>
      <use x="439.208984" xlink:href="#ArialMT-30"/>
      <use x="494.824219" xlink:href="#ArialMT-66"/>
      <use x="522.607422" xlink:href="#ArialMT-5f"/>
      <use x="578.222656" xlink:href="#ArialMT-33"/>
      <use x="633.837891" xlink:href="#ArialMT-73"/>
     </g>
    </g>
   </g>
  </g>
 </g>
 <defs>
  <clipPath id="pa486fae8b9">
   <rect height="458.4888" width="652.86" x="105.3" y="71.4528"/>
  </clipPath>
 </defs>
</svg>
