<?xml version="1.0" encoding="utf-8" standalone="no"?>
<!DOCTYPE svg PUBLIC "-//W3C//DTD SVG 1.1//EN"
  "http://www.w3.org/Graphics/SVG/1.1/DTD/svg11.dtd">
<svg height="595.44pt" version="1.1" viewBox="0 0 842.4 595.44" width="842.4pt" xmlns="http://www.w3.org/2000/svg" xmlns:xlink="http://www.w3.org/1999/xlink">
 <metadata>
  <rdf:RDF xmlns:cc="http://creativecommons.org/ns#" xmlns:dc="http://purl.org/dc/elements/1.1/" xmlns:rdf="http://www.w3.org/1999/02/22-rdf-syntax-ns#">
   <cc:Work>
    <dc:type rdf:resource="http://purl.org/dc/dcmitype/StillImage"/>
    <dc:date>2021-06-01T00:54:04.592334</dc:date>
    <dc:format>image/svg+xml</dc:format>
    <dc:creator>
     <cc:Agent>
      <dc:title>Matplotlib v3.4.1, https://matplotlib.org/</dc:title>
     </cc:Agent>
    </dc:creator>
   </cc:Work>
  </rdf:RDF>
 </metadata>
 <defs>
  <style type="text/css">*{stroke-linecap:butt;stroke-linejoin:round;}</style>
 </defs>
 <g id="figure_1">
  <g id="patch_1">
   <path d="M 0 595.44 
L 842.4 595.44 
L 842.4 0 
L 0 0 
z
" style="fill:#ffffff;"/>
  </g>
  <g id="axes_1">
   <g id="patch_2">
    <path d="M 105.3 529.9416 
L 758.16 529.9416 
L 758.16 71.4528 
L 105.3 71.4528 
z
" style="fill:#ffffff;"/>
   </g>
   <g id="matplotlib.axis_1">
    <g id="xtick_1">
     <g id="text_1">
      <!-- 0 -->
      <g style="fill:#262626;" transform="translate(131.916939 547.315194)scale(0.11 -0.11)">
       <defs>
        <path d="M 266 2259 
Q 266 3072 433 3567 
Q 600 4063 929 4331 
Q 1259 4600 1759 4600 
Q 2128 4600 2406 4451 
Q 2684 4303 2865 4023 
Q 3047 3744 3150 3342 
Q 3253 2941 3253 2259 
Q 3253 1453 3087 958 
Q 2922 463 2592 192 
Q 2263 -78 1759 -78 
Q 1097 -78 719 397 
Q 266 969 266 2259 
z
M 844 2259 
Q 844 1131 1108 757 
Q 1372 384 1759 384 
Q 2147 384 2411 759 
Q 2675 1134 2675 2259 
Q 2675 3391 2411 3762 
Q 2147 4134 1753 4134 
Q 1366 4134 1134 3806 
Q 844 3388 844 2259 
z
" id="ArialMT-30" transform="scale(0.015625)"/>
       </defs>
       <use xlink:href="#ArialMT-30"/>
      </g>
     </g>
    </g>
    <g id="xtick_2">
     <g id="text_2">
      <!-- 25 -->
      <g style="fill:#262626;" transform="translate(201.950676 547.315194)scale(0.11 -0.11)">
       <defs>
        <path d="M 3222 541 
L 3222 0 
L 194 0 
Q 188 203 259 391 
Q 375 700 629 1000 
Q 884 1300 1366 1694 
Q 2113 2306 2375 2664 
Q 2638 3022 2638 3341 
Q 2638 3675 2398 3904 
Q 2159 4134 1775 4134 
Q 1369 4134 1125 3890 
Q 881 3647 878 3216 
L 300 3275 
Q 359 3922 746 4261 
Q 1134 4600 1788 4600 
Q 2447 4600 2831 4234 
Q 3216 3869 3216 3328 
Q 3216 3053 3103 2787 
Q 2991 2522 2730 2228 
Q 2469 1934 1863 1422 
Q 1356 997 1212 845 
Q 1069 694 975 541 
L 3222 541 
z
" id="ArialMT-32" transform="scale(0.015625)"/>
        <path d="M 266 1200 
L 856 1250 
Q 922 819 1161 601 
Q 1400 384 1738 384 
Q 2144 384 2425 690 
Q 2706 997 2706 1503 
Q 2706 1984 2436 2262 
Q 2166 2541 1728 2541 
Q 1456 2541 1237 2417 
Q 1019 2294 894 2097 
L 366 2166 
L 809 4519 
L 3088 4519 
L 3088 3981 
L 1259 3981 
L 1013 2750 
Q 1425 3038 1878 3038 
Q 2478 3038 2890 2622 
Q 3303 2206 3303 1553 
Q 3303 931 2941 478 
Q 2500 -78 1738 -78 
Q 1113 -78 717 272 
Q 322 622 266 1200 
z
" id="ArialMT-35" transform="scale(0.015625)"/>
       </defs>
       <use xlink:href="#ArialMT-32"/>
       <use x="55.615234" xlink:href="#ArialMT-35"/>
      </g>
     </g>
    </g>
    <g id="xtick_3">
     <g id="text_3">
      <!-- 50 -->
      <g style="fill:#262626;" transform="translate(275.042928 547.315194)scale(0.11 -0.11)">
       <use xlink:href="#ArialMT-35"/>
       <use x="55.615234" xlink:href="#ArialMT-30"/>
      </g>
     </g>
    </g>
    <g id="xtick_4">
     <g id="text_4">
      <!-- 75 -->
      <g style="fill:#262626;" transform="translate(348.135181 547.315194)scale(0.11 -0.11)">
       <defs>
        <path d="M 303 3981 
L 303 4522 
L 3269 4522 
L 3269 4084 
Q 2831 3619 2401 2847 
Q 1972 2075 1738 1259 
Q 1569 684 1522 0 
L 944 0 
Q 953 541 1156 1306 
Q 1359 2072 1739 2783 
Q 2119 3494 2547 3981 
L 303 3981 
z
" id="ArialMT-37" transform="scale(0.015625)"/>
       </defs>
       <use xlink:href="#ArialMT-37"/>
       <use x="55.615234" xlink:href="#ArialMT-35"/>
      </g>
     </g>
    </g>
    <g id="xtick_5">
     <g id="text_5">
      <!-- 100 -->
      <g style="fill:#262626;" transform="translate(418.168918 547.315194)scale(0.11 -0.11)">
       <defs>
        <path d="M 2384 0 
L 1822 0 
L 1822 3584 
Q 1619 3391 1289 3197 
Q 959 3003 697 2906 
L 697 3450 
Q 1169 3672 1522 3987 
Q 1875 4303 2022 4600 
L 2384 4600 
L 2384 0 
z
" id="ArialMT-31" transform="scale(0.015625)"/>
       </defs>
       <use xlink:href="#ArialMT-31"/>
       <use x="55.615234" xlink:href="#ArialMT-30"/>
       <use x="111.230469" xlink:href="#ArialMT-30"/>
      </g>
     </g>
    </g>
    <g id="xtick_6">
     <g id="text_6">
      <!-- 125 -->
      <g style="fill:#262626;" transform="translate(491.261171 547.315194)scale(0.11 -0.11)">
       <use xlink:href="#ArialMT-31"/>
       <use x="55.615234" xlink:href="#ArialMT-32"/>
       <use x="111.230469" xlink:href="#ArialMT-35"/>
      </g>
     </g>
    </g>
    <g id="xtick_7">
     <g id="text_7">
      <!-- 150 -->
      <g style="fill:#262626;" transform="translate(564.353423 547.315194)scale(0.11 -0.11)">
       <use xlink:href="#ArialMT-31"/>
       <use x="55.615234" xlink:href="#ArialMT-35"/>
       <use x="111.230469" xlink:href="#ArialMT-30"/>
      </g>
     </g>
    </g>
    <g id="xtick_8">
     <g id="text_8">
      <!-- 175 -->
      <g style="fill:#262626;" transform="translate(637.445676 547.315194)scale(0.11 -0.11)">
       <use xlink:href="#ArialMT-31"/>
       <use x="55.615234" xlink:href="#ArialMT-37"/>
       <use x="111.230469" xlink:href="#ArialMT-35"/>
      </g>
     </g>
    </g>
    <g id="xtick_9">
     <g id="text_9">
      <!-- 200 -->
      <g style="fill:#262626;" transform="translate(710.537928 547.315194)scale(0.11 -0.11)">
       <use xlink:href="#ArialMT-32"/>
       <use x="55.615234" xlink:href="#ArialMT-30"/>
       <use x="111.230469" xlink:href="#ArialMT-30"/>
      </g>
     </g>
    </g>
   </g>
   <g id="matplotlib.axis_2">
    <g id="ytick_1">
     <g id="text_10">
      <!-- −25 -->
      <g style="fill:#262626;" transform="translate(77.14125 533.878397)scale(0.11 -0.11)">
       <defs>
        <path d="M 3381 1997 
L 356 1997 
L 356 2522 
L 3381 2522 
L 3381 1997 
z
" id="ArialMT-2212" transform="scale(0.015625)"/>
       </defs>
       <use xlink:href="#ArialMT-2212"/>
       <use x="58.398438" xlink:href="#ArialMT-32"/>
       <use x="114.013672" xlink:href="#ArialMT-35"/>
      </g>
     </g>
    </g>
    <g id="ytick_2">
     <g id="text_11">
      <!-- −20 -->
      <g style="fill:#262626;" transform="translate(77.14125 442.180637)scale(0.11 -0.11)">
       <use xlink:href="#ArialMT-2212"/>
       <use x="58.398438" xlink:href="#ArialMT-32"/>
       <use x="114.013672" xlink:href="#ArialMT-30"/>
      </g>
     </g>
    </g>
    <g id="ytick_3">
     <g id="text_12">
      <!-- −15 -->
      <g style="fill:#262626;" transform="translate(77.14125 350.482877)scale(0.11 -0.11)">
       <use xlink:href="#ArialMT-2212"/>
       <use x="58.398438" xlink:href="#ArialMT-31"/>
       <use x="114.013672" xlink:href="#ArialMT-35"/>
      </g>
     </g>
    </g>
    <g id="ytick_4">
     <g id="text_13">
      <!-- −10 -->
      <g style="fill:#262626;" transform="translate(77.14125 258.785117)scale(0.11 -0.11)">
       <use xlink:href="#ArialMT-2212"/>
       <use x="58.398438" xlink:href="#ArialMT-31"/>
       <use x="114.013672" xlink:href="#ArialMT-30"/>
      </g>
     </g>
    </g>
    <g id="ytick_5">
     <g id="text_14">
      <!-- −5 -->
      <g style="fill:#262626;" transform="translate(83.258281 167.087357)scale(0.11 -0.11)">
       <use xlink:href="#ArialMT-2212"/>
       <use x="58.398438" xlink:href="#ArialMT-35"/>
      </g>
     </g>
    </g>
    <g id="ytick_6">
     <g id="text_15">
      <!-- 0 -->
      <g style="fill:#262626;" transform="translate(89.682969 75.389597)scale(0.11 -0.11)">
       <use xlink:href="#ArialMT-30"/>
      </g>
     </g>
    </g>
   </g>
   <g id="line2d_1">
    <path clip-path="url(#p6bd50d168b)" d="M 134.975455 304.382877 
L 137.899145 304.640854 
L 140.822835 307.572171 
L 143.746525 306.304324 
L 146.670215 310.676656 
L 149.593905 309.929695 
L 152.517595 311.216886 
L 155.441285 316.414762 
L 158.364975 316.381077 
L 161.288665 318.056405 
L 164.212356 321.948411 
L 167.136046 321.864091 
L 170.059736 345.83193 
L 172.983426 351.866596 
L 175.907116 362.862114 
L 178.830806 385.498494 
L 181.754496 413.197553 
L 184.678186 380.687461 
L 187.601876 353.794234 
L 190.525567 433.526553 
L 193.449257 339.355765 
L 196.372947 291.704807 
L 199.296637 324.534528 
L 202.220327 71.857905 
L 205.144017 71.492699 
L 208.067707 398.709885 
L 210.991397 388.125626 
L 213.915087 391.459597 
L 216.838777 319.535338 
L 219.762468 362.533477 
L 222.686158 418.183556 
L 225.609848 394.354465 
L 228.533538 311.305175 
L 231.457228 400.057171 
L 234.380918 326.150006 
L 237.304608 377.43947 
L 240.228298 390.124169 
L 243.151988 381.125549 
L 246.075678 321.095023 
L 248.999369 292.386758 
L 251.923059 325.1854 
L 254.846749 350.164403 
L 257.770439 344.605954 
L 260.694129 318.438805 
L 263.617819 411.082003 
L 266.541509 326.003283 
L 269.465199 348.889472 
L 272.388889 385.679095 
L 275.312579 379.821463 
L 278.23627 351.948921 
L 281.15996 279.684413 
L 284.08365 148.212945 
L 287.00734 72.887276 
L 289.93103 71.45614 
L 292.85472 71.487574 
L 298.7021 327.785335 
L 301.62579 327.926496 
L 304.549481 303.220494 
L 307.473171 183.472888 
L 310.396861 71.454 
L 313.320551 82.183145 
L 316.244241 297.782026 
L 319.167931 311.548618 
L 322.091621 444.858718 
L 325.015311 394.054932 
L 327.939001 432.524868 
L 330.862691 379.903456 
L 333.786382 297.430285 
L 336.710072 355.057586 
L 339.633762 473.667655 
L 342.557452 364.883113 
L 345.481142 404.549887 
L 348.404832 391.60151 
L 351.328522 369.419414 
L 354.252212 338.662008 
L 357.175902 329.812509 
L 360.099592 315.286555 
L 363.023283 424.389063 
L 365.946973 336.305569 
L 368.870663 439.686412 
L 371.794353 490.485685 
L 374.718043 363.294151 
L 377.641733 174.344502 
L 380.565423 71.470469 
L 383.489113 153.741766 
L 386.412803 79.242313 
L 389.336494 71.4934 
L 392.260184 273.631697 
L 395.183874 392.982763 
L 398.107564 395.503835 
L 401.031254 392.262036 
L 403.954944 368.4943 
L 406.878634 376.964758 
L 409.802324 322.352761 
L 412.726014 301.428578 
L 415.649704 375.382021 
L 418.573395 345.577818 
L 421.497085 391.050157 
L 424.420775 448.066901 
L 427.344465 349.138949 
L 430.268155 399.907143 
L 433.191845 401.97533 
L 436.115535 322.728498 
L 439.039225 358.856546 
L 441.962915 397.166536 
L 444.886605 310.250391 
L 447.810296 71.900909 
L 450.733986 72.232059 
L 453.657676 283.277567 
L 456.581366 299.711868 
L 459.505056 390.926118 
L 462.428746 296.541883 
L 465.352436 354.98948 
L 468.276126 366.121612 
L 471.199816 351.230783 
L 474.123506 362.531466 
L 477.047197 291.948337 
L 479.970887 248.243849 
L 482.894577 365.988444 
L 485.818267 298.07612 
L 488.741957 222.599965 
L 491.665647 71.453915 
L 494.589337 71.626221 
L 497.513027 211.811318 
L 500.436717 71.499618 
L 503.360408 73.690769 
L 506.284098 286.480766 
L 509.207788 390.991741 
L 515.055168 71.453065 
L 517.978858 83.654641 
L 520.902548 327.983514 
L 523.826238 405.256447 
L 526.749928 356.167762 
L 529.673618 374.551248 
L 532.597309 378.317117 
L 535.520999 343.808569 
L 538.444689 336.282639 
L 541.368379 416.872578 
L 544.292069 431.397395 
L 547.215759 303.183625 
L 550.139449 292.965151 
L 553.063139 189.343943 
L 555.986829 356.185129 
L 558.910519 411.041426 
L 561.83421 407.182756 
L 564.7579 324.198284 
L 567.68159 252.693207 
L 570.60528 270.95304 
L 573.52897 320.489993 
L 576.45266 334.573538 
L 579.37635 388.774538 
L 582.30004 413.170514 
L 585.22373 348.843858 
L 588.147421 262.06814 
L 591.071111 318.733738 
L 593.994801 407.619655 
L 596.918491 345.540285 
L 599.842181 326.280429 
L 602.765871 388.811862 
L 605.689561 289.591408 
L 608.613251 350.920162 
L 611.536941 451.250528 
L 614.460631 390.059106 
L 617.384322 278.74849 
L 620.308012 413.864445 
L 623.231702 460.127452 
L 626.155392 447.227733 
L 629.079082 404.451349 
L 632.002772 351.529827 
L 634.926462 337.660026 
L 637.850152 370.962973 
L 640.773842 304.659026 
L 643.697532 261.036862 
L 646.621223 257.378418 
L 649.544913 326.888327 
L 652.468603 455.202944 
L 655.392293 348.460793 
L 658.315983 262.548817 
L 661.239673 365.514326 
L 664.163363 339.68309 
L 667.087053 425.975228 
L 670.010743 404.630621 
L 672.934433 337.050064 
L 675.858124 360.697399 
L 678.781814 340.830956 
L 681.705504 377.37014 
L 684.629194 362.497081 
L 687.552884 326.919529 
L 690.476574 426.57188 
L 693.400264 335.144218 
L 696.323954 346.884476 
L 699.247644 361.563939 
L 702.171335 366.599053 
L 705.095025 343.156438 
L 708.018715 334.537386 
L 710.942405 330.921442 
L 713.866095 332.257045 
L 716.789785 331.281578 
L 719.713475 331.079901 
L 722.637165 330.451872 
L 725.560855 332.808976 
L 728.484545 333.081382 
L 728.484545 333.081382 
" style="fill:none;stroke:#4c72b0;stroke-linecap:round;stroke-width:1.5;"/>
   </g>
   <g id="line2d_2">
    <path clip-path="url(#p6bd50d168b)" d="M 134.975455 304.297771 
L 137.899145 307.322449 
L 143.746525 304.674172 
L 146.670215 309.760742 
L 149.593905 308.516506 
L 152.517595 305.974271 
L 155.441285 306.539301 
L 158.364975 305.128823 
L 161.288665 303.98115 
L 164.212356 305.555089 
L 167.136046 303.979173 
L 170.059736 328.486 
L 172.983426 329.588077 
L 175.907116 343.150474 
L 181.754496 392.712683 
L 184.678186 372.105767 
L 187.601876 309.548571 
L 190.525567 418.380598 
L 193.449257 316.061955 
L 196.372947 275.771839 
L 199.296637 295.671373 
L 202.220327 75.400685 
L 205.144017 71.470314 
L 208.067707 362.645868 
L 210.991397 401.397077 
L 213.915087 373.705994 
L 216.838777 303.917836 
L 219.762468 350.760845 
L 222.686158 407.925764 
L 225.609848 368.856762 
L 228.533538 308.395843 
L 231.457228 369.2442 
L 234.380918 296.592167 
L 237.304608 341.366376 
L 240.228298 371.705702 
L 243.151988 365.480885 
L 246.075678 310.763494 
L 248.999369 314.272767 
L 251.923059 350.135824 
L 254.846749 367.821986 
L 257.770439 343.216184 
L 260.694129 312.698898 
L 263.617819 417.94968 
L 266.541509 334.611946 
L 269.465199 354.997806 
L 272.388889 414.059878 
L 275.312579 411.707094 
L 278.23627 391.809501 
L 281.15996 329.284049 
L 284.08365 158.528366 
L 287.00734 73.670319 
L 289.93103 71.460219 
L 292.85472 71.489743 
L 295.77841 169.138475 
L 298.7021 312.126277 
L 301.62579 316.936925 
L 304.549481 314.70741 
L 307.473171 203.495323 
L 310.396861 71.459585 
L 313.320551 72.866369 
L 316.244241 291.249001 
L 319.167931 325.316767 
L 322.091621 424.504602 
L 325.015311 394.972805 
L 327.939001 426.734992 
L 330.862691 367.183883 
L 333.786382 279.037372 
L 336.710072 371.571274 
L 339.633762 478.900336 
L 342.557452 348.630743 
L 345.481142 348.055499 
L 348.404832 378.462458 
L 351.328522 430.453007 
L 354.252212 375.809406 
L 357.175902 246.946811 
L 360.099592 184.99566 
L 363.023283 218.236605 
L 365.946973 246.847048 
L 368.870663 265.908988 
L 371.794353 328.61686 
L 374.718043 249.079029 
L 377.641733 112.605407 
L 380.565423 71.466693 
L 383.489113 131.707849 
L 386.412803 129.480083 
L 389.336494 71.472732 
L 392.260184 256.994058 
L 395.183874 370.128457 
L 398.107564 371.878678 
L 401.031254 390.529971 
L 403.954944 375.942505 
L 406.878634 323.84016 
L 409.802324 292.246734 
L 412.726014 315.336331 
L 415.649704 376.479167 
L 418.573395 328.483604 
L 421.497085 381.109494 
L 424.420775 394.674007 
L 427.344465 297.084929 
L 430.268155 356.775765 
L 433.191845 359.519957 
L 436.115535 294.971897 
L 439.039225 370.956607 
L 441.962915 382.140981 
L 444.886605 263.48007 
L 447.810296 76.008175 
L 450.733986 71.469574 
L 453.657676 260.910253 
L 456.581366 304.186797 
L 459.505056 373.879459 
L 462.428746 263.405755 
L 465.352436 344.38217 
L 468.276126 347.070814 
L 471.199816 334.841344 
L 474.123506 332.99827 
L 477.047197 328.309929 
L 479.970887 244.072476 
L 482.894577 348.644368 
L 485.818267 290.304106 
L 488.741957 208.288709 
L 491.665647 71.453303 
L 494.589337 73.052225 
L 497.513027 201.349778 
L 500.436717 71.494396 
L 503.360408 84.856631 
L 506.284098 279.584405 
L 509.207788 373.985623 
L 512.131478 194.237092 
L 515.055168 71.453119 
L 517.978858 77.945674 
L 520.902548 301.638317 
L 523.826238 397.057573 
L 526.749928 370.03583 
L 529.673618 392.40318 
L 532.597309 374.43452 
L 535.520999 343.630451 
L 538.444689 337.601295 
L 544.292069 397.076567 
L 547.215759 227.898881 
L 550.139449 228.602432 
L 553.063139 73.433861 
L 555.986829 72.279247 
L 558.910519 165.030827 
L 561.83421 174.391357 
L 564.7579 165.880734 
L 567.68159 200.762071 
L 570.60528 415.535471 
L 573.52897 210.968862 
L 576.45266 253.809189 
L 579.37635 301.131686 
L 582.30004 259.469762 
L 585.22373 278.62251 
L 588.147421 211.974045 
L 591.071111 296.143724 
L 593.994801 396.243101 
L 596.918491 323.651513 
L 599.842181 327.306757 
L 602.765871 340.481821 
L 605.689561 307.486138 
L 608.613251 378.999645 
L 611.536941 440.701179 
L 614.460631 382.516981 
L 617.384322 341.108591 
L 620.308012 422.616911 
L 623.231702 462.066389 
L 626.155392 448.809 
L 629.079082 388.07508 
L 632.002772 360.774897 
L 634.926462 317.189532 
L 637.850152 331.462371 
L 640.773842 305.529396 
L 643.697532 234.865499 
L 646.621223 241.175107 
L 649.544913 323.609222 
L 652.468603 433.700053 
L 658.315983 220.020423 
L 661.239673 347.135737 
L 664.163363 319.583593 
L 667.087053 429.272225 
L 670.010743 405.047966 
L 672.934433 328.491265 
L 675.858124 354.014713 
L 678.781814 345.790794 
L 681.705504 364.478606 
L 684.629194 353.656343 
L 687.552884 294.54731 
L 690.476574 388.403996 
L 693.400264 328.910306 
L 696.323954 341.034294 
L 699.247644 346.924598 
L 702.171335 346.543317 
L 705.095025 327.930169 
L 708.018715 326.165957 
L 710.942405 323.403698 
L 713.866095 323.125607 
L 716.789785 323.690131 
L 719.713475 323.017257 
L 722.637165 321.219377 
L 725.560855 324.825981 
L 728.484545 320.42437 
L 728.484545 320.42437 
" style="fill:none;stroke:#dd8452;stroke-dasharray:6,2.25;stroke-dashoffset:0;stroke-width:1.5;"/>
   </g>
   <g id="line2d_3">
    <path clip-path="url(#p6bd50d168b)" d="M 134.975455 295.547264 
L 137.899145 297.259251 
L 140.822835 296.517012 
L 143.746525 294.195045 
L 146.670215 302.439113 
L 149.593905 302.149689 
L 152.517595 301.985633 
L 155.441285 323.771721 
L 158.364975 323.064357 
L 161.288665 315.458394 
L 164.212356 317.121182 
L 167.136046 312.708307 
L 170.059736 325.649321 
L 172.983426 334.152485 
L 175.907116 345.718682 
L 178.830806 356.630511 
L 181.754496 371.35132 
L 184.678186 338.737722 
L 187.601876 322.700444 
L 190.525567 359.829984 
L 193.449257 284.001057 
L 196.372947 145.53483 
L 199.296637 71.495919 
L 202.220327 83.018473 
L 205.144017 138.429263 
L 208.067707 316.80554 
L 210.991397 355.911411 
L 213.915087 331.239427 
L 216.838777 172.550451 
L 219.762468 266.834434 
L 222.686158 374.237478 
L 225.609848 318.748185 
L 228.533538 294.786958 
L 231.457228 340.015277 
L 234.380918 306.396688 
L 237.304608 313.90135 
L 240.228298 376.84852 
L 243.151988 381.765612 
L 246.075678 263.626216 
L 248.999369 330.271165 
L 251.923059 299.274514 
L 254.846749 388.436492 
L 257.770439 340.437012 
L 260.694129 320.163 
L 263.617819 430.106496 
L 266.541509 363.625603 
L 269.465199 390.441891 
L 272.388889 337.957793 
L 275.312579 246.548005 
L 278.23627 177.989182 
L 281.15996 283.75632 
L 284.08365 187.336708 
L 287.00734 80.451449 
L 289.93103 71.5929 
L 292.85472 73.755395 
L 295.77841 182.121298 
L 298.7021 301.949936 
L 301.62579 332.669686 
L 304.549481 325.305556 
L 307.473171 221.356709 
L 310.396861 71.467641 
L 313.320551 71.860666 
L 316.244241 307.188634 
L 319.167931 322.336075 
L 322.091621 441.663337 
L 325.015311 412.316059 
L 327.939001 432.445429 
L 330.862691 396.504541 
L 333.786382 286.549257 
L 336.710072 366.286123 
L 339.633762 469.156644 
L 342.557452 361.327632 
L 345.481142 389.923839 
L 348.404832 359.294826 
L 351.328522 456.399468 
L 354.252212 332.189569 
L 357.175902 337.341027 
L 360.099592 243.871254 
L 363.023283 340.548493 
L 365.946973 272.900057 
L 368.870663 327.586964 
L 371.794353 315.100532 
L 374.718043 299.221135 
L 377.641733 147.018547 
L 380.565423 72.937216 
L 383.489113 157.887779 
L 386.412803 80.802621 
L 389.336494 71.459108 
L 392.260184 261.595107 
L 395.183874 357.48096 
L 398.107564 381.476468 
L 401.031254 412.888505 
L 403.954944 359.161466 
L 406.878634 332.342186 
L 409.802324 326.971684 
L 412.726014 285.264532 
L 415.649704 340.064983 
L 418.573395 326.683432 
L 421.497085 275.343877 
L 424.420775 246.814779 
L 427.344465 262.28603 
L 430.268155 247.570223 
L 433.191845 241.855204 
L 436.115535 233.236449 
L 439.039225 355.125692 
L 441.962915 330.766586 
L 444.886605 178.91691 
L 447.810296 71.681808 
L 450.733986 71.568956 
L 453.657676 243.393428 
L 456.581366 312.934138 
L 459.505056 425.244288 
L 462.428746 261.228902 
L 465.352436 304.77425 
L 468.276126 330.075103 
L 474.123506 322.25048 
L 477.047197 333.038199 
L 479.970887 307.776961 
L 482.894577 317.353553 
L 485.818267 277.797876 
L 488.741957 181.426265 
L 491.665647 71.572914 
L 494.589337 72.154337 
L 497.513027 184.478342 
L 500.436717 94.369739 
L 503.360408 166.039945 
L 506.284098 305.381868 
L 509.207788 296.131621 
L 512.131478 189.596061 
L 515.055168 71.510951 
L 517.978858 74.569868 
L 520.902548 311.278993 
L 523.826238 399.37132 
L 526.749928 404.834274 
L 529.673618 406.256243 
L 532.597309 370.636541 
L 535.520999 386.215233 
L 538.444689 339.854999 
L 541.368379 331.055747 
L 544.292069 331.156874 
L 547.215759 85.381119 
L 550.139449 92.937471 
L 553.063139 85.812676 
L 555.986829 83.370793 
L 558.910519 153.526841 
L 561.83421 167.398539 
L 564.7579 141.192576 
L 567.68159 122.07201 
L 570.60528 244.569296 
L 573.52897 321.119771 
L 576.45266 285.530642 
L 579.37635 363.926308 
L 582.30004 402.674649 
L 585.22373 366.711339 
L 588.147421 202.061234 
L 591.071111 308.589737 
L 593.994801 392.668958 
L 596.918491 348.716462 
L 599.842181 377.61416 
L 602.765871 399.986127 
L 605.689561 282.530571 
L 608.613251 357.21081 
L 611.536941 428.108373 
L 614.460631 383.453183 
L 617.384322 319.88052 
L 620.308012 384.514929 
L 623.231702 443.130815 
L 626.155392 414.241319 
L 629.079082 317.705014 
L 632.002772 319.953208 
L 634.926462 285.27667 
L 637.850152 254.104332 
L 640.773842 279.681632 
L 643.697532 315.734053 
L 646.621223 278.814375 
L 649.544913 316.865443 
L 652.468603 414.63194 
L 655.392293 322.756954 
L 658.315983 216.008498 
L 661.239673 320.809045 
L 664.163363 308.288157 
L 667.087053 408.004049 
L 670.010743 386.813564 
L 672.934433 268.838469 
L 675.858124 338.042916 
L 678.781814 339.987485 
L 681.705504 379.903281 
L 684.629194 360.576053 
L 687.552884 299.315161 
L 690.476574 378.037277 
L 693.400264 324.905928 
L 696.323954 343.04961 
L 699.247644 346.011587 
L 702.171335 359.328285 
L 705.095025 336.270764 
L 708.018715 334.859849 
L 710.942405 334.467077 
L 713.866095 333.913397 
L 716.789785 334.952161 
L 719.713475 333.605259 
L 722.637165 332.870628 
L 725.560855 339.488811 
L 728.484545 336.454006 
L 728.484545 336.454006 
" style="fill:none;stroke:#55a868;stroke-dasharray:1.5,1.5;stroke-dashoffset:0;stroke-width:1.5;"/>
   </g>
   <g id="line2d_4">
    <path clip-path="url(#p6bd50d168b)" d="M 134.975455 303.886337 
L 137.899145 306.957923 
L 140.822835 305.722275 
L 143.746525 304.341251 
L 146.670215 309.410698 
L 149.593905 308.381221 
L 152.517595 305.959736 
L 155.441285 306.794217 
L 158.364975 305.39677 
L 161.288665 304.45978 
L 164.212356 306.014253 
L 167.136046 304.512128 
L 170.059736 329.236792 
L 172.983426 330.311305 
L 175.907116 343.951392 
L 181.754496 394.549268 
L 184.678186 373.00657 
L 187.601876 310.962914 
L 190.525567 420.057535 
L 193.449257 318.428136 
L 196.372947 276.491673 
L 199.296637 296.988944 
L 202.220327 74.347253 
L 205.144017 71.477326 
L 208.067707 371.76926 
L 210.991397 398.10802 
L 213.915087 382.011206 
L 216.838777 298.870304 
L 222.686158 408.775007 
L 225.609848 367.681542 
L 228.533538 307.673105 
L 231.457228 373.010173 
L 234.380918 298.410685 
L 237.304608 345.300025 
L 240.228298 376.009911 
L 243.151988 368.252484 
L 246.075678 313.154022 
L 248.999369 315.047624 
L 251.923059 349.847222 
L 254.846749 365.275238 
L 257.770439 338.159225 
L 260.694129 308.659189 
L 263.617819 415.664792 
L 266.541509 328.127473 
L 269.465199 355.355248 
L 272.388889 407.729142 
L 275.312579 409.724817 
L 278.23627 385.300193 
L 281.15996 312.468153 
L 284.08365 146.614966 
L 287.00734 72.73019 
L 289.93103 71.457968 
L 292.85472 71.500599 
L 295.77841 173.175446 
L 298.7021 313.419362 
L 301.62579 319.634716 
L 304.549481 316.507179 
L 307.473171 201.392138 
L 310.396861 71.458588 
L 313.320551 73.342391 
L 316.244241 296.355632 
L 319.167931 327.264694 
L 322.091621 456.234642 
L 325.015311 399.306642 
L 327.939001 421.455438 
L 330.862691 374.684137 
L 333.786382 282.764167 
L 336.710072 381.257109 
L 339.633762 503.143729 
L 342.557452 350.780242 
L 345.481142 332.197562 
L 348.404832 338.873794 
L 351.328522 395.368638 
L 354.252212 393.470453 
L 357.175902 273.933976 
L 360.099592 259.13782 
L 363.023283 418.230604 
L 365.946973 282.213163 
L 368.870663 298.775123 
L 371.794353 364.837849 
L 374.718043 287.822421 
L 377.641733 117.58991 
L 380.565423 71.461882 
L 383.489113 121.49976 
L 386.412803 134.394889 
L 389.336494 71.469906 
L 392.260184 255.255574 
L 395.183874 370.160359 
L 398.107564 372.133052 
L 401.031254 392.797754 
L 403.954944 375.641433 
L 406.878634 329.534348 
L 409.802324 298.370843 
L 412.726014 315.905245 
L 415.649704 378.310225 
L 418.573395 327.352791 
L 421.497085 387.550486 
L 424.420775 404.59802 
L 427.344465 297.416136 
L 430.268155 353.951714 
L 433.191845 356.824842 
L 436.115535 292.935628 
L 439.039225 371.702834 
L 441.962915 384.908383 
L 444.886605 264.912952 
L 447.810296 75.014015 
L 450.733986 71.480891 
L 453.657676 271.385899 
L 456.581366 313.235315 
L 459.505056 376.460767 
L 462.428746 265.630181 
L 465.352436 356.864876 
L 468.276126 347.562824 
L 471.199816 329.5351 
L 474.123506 337.008683 
L 477.047197 335.413931 
L 479.970887 242.250005 
L 482.894577 349.070021 
L 485.818267 290.451966 
L 488.741957 211.745224 
L 491.665647 71.453285 
L 494.589337 73.013964 
L 497.513027 203.135765 
L 500.436717 71.501576 
L 503.360408 83.596726 
L 506.284098 280.921023 
L 509.207788 374.963312 
L 512.131478 196.73597 
L 515.055168 71.453115 
L 517.978858 78.030443 
L 520.902548 301.387214 
L 523.826238 394.38885 
L 526.749928 368.699563 
L 529.673618 392.589308 
L 532.597309 374.564296 
L 535.520999 343.789592 
L 538.444689 339.970327 
L 541.368379 369.292647 
L 544.292069 397.245171 
L 547.215759 228.495935 
L 550.139449 231.786024 
L 553.063139 73.736338 
L 555.986829 72.281148 
L 558.910519 165.546842 
L 561.83421 177.378555 
L 564.7579 168.430814 
L 567.68159 201.074127 
L 570.60528 406.581661 
L 573.52897 207.824412 
L 576.45266 304.285965 
L 579.37635 313.342791 
L 582.30004 312.84737 
L 585.22373 349.638882 
L 588.147421 175.751709 
L 591.071111 294.714165 
L 593.994801 408.526579 
L 596.918491 345.91513 
L 599.842181 310.214134 
L 602.765871 360.953207 
L 605.689561 306.51053 
L 608.613251 379.610429 
L 611.536941 446.231225 
L 614.460631 397.226212 
L 617.384322 337.278588 
L 620.308012 421.996122 
L 623.231702 466.956617 
L 626.155392 447.096418 
L 629.079082 393.51904 
L 632.002772 362.017698 
L 634.926462 322.769914 
L 637.850152 334.876919 
L 640.773842 307.726887 
L 643.697532 235.928084 
L 646.621223 240.245673 
L 649.544913 319.573501 
L 652.468603 433.403564 
L 658.315983 221.917524 
L 661.239673 349.100489 
L 664.163363 318.568633 
L 667.087053 428.686067 
L 670.010743 405.078294 
L 672.934433 329.224933 
L 675.858124 352.683254 
L 678.781814 345.973826 
L 681.705504 362.206712 
L 684.629194 353.596265 
L 687.552884 296.221344 
L 690.476574 386.543134 
L 693.400264 325.846503 
L 696.323954 340.054874 
L 699.247644 347.675284 
L 702.171335 346.909102 
L 705.095025 327.925482 
L 708.018715 327.42429 
L 710.942405 325.798213 
L 713.866095 326.403541 
L 719.713475 325.673457 
L 722.637165 324.341772 
L 725.560855 327.875163 
L 728.484545 323.96056 
L 728.484545 323.96056 
" style="fill:none;stroke:#c44e52;stroke-dasharray:4.5,1.875,2.25,1.875;stroke-dashoffset:0;stroke-width:1.5;"/>
   </g>
   <g id="line2d_5">
    <path clip-path="url(#p6bd50d168b)" d="M 134.975455 301.356537 
L 137.899145 304.950968 
L 140.822835 304.062233 
L 143.746525 303.051733 
L 146.670215 307.557602 
L 149.593905 308.502462 
L 152.517595 305.714212 
L 155.441285 308.042021 
L 158.364975 306.454038 
L 161.288665 306.080819 
L 164.212356 306.438332 
L 167.136046 304.404774 
L 170.059736 328.374659 
L 172.983426 329.805338 
L 175.907116 343.644653 
L 178.830806 370.232068 
L 181.754496 400.165189 
L 184.678186 370.522891 
L 187.601876 332.16566 
L 190.525567 425.983973 
L 193.449257 328.837723 
L 196.372947 290.346012 
L 199.296637 312.683647 
L 202.220327 72.658906 
L 205.144017 71.469792 
L 208.067707 385.472189 
L 210.991397 406.145951 
L 213.915087 376.171973 
L 216.838777 315.040733 
L 219.762468 347.086065 
L 222.686158 410.349488 
L 225.609848 388.453073 
L 228.533538 314.649256 
L 231.457228 375.25445 
L 234.380918 304.05863 
L 237.304608 352.179526 
L 240.228298 378.952387 
L 243.151988 370.882519 
L 246.075678 312.211925 
L 248.999369 311.512851 
L 251.923059 354.112237 
L 254.846749 368.722929 
L 257.770439 350.486288 
L 260.694129 313.912316 
L 263.617819 411.778733 
L 266.541509 330.562635 
L 269.465199 355.211341 
L 272.388889 406.686251 
L 275.312579 407.895752 
L 278.23627 388.12692 
L 281.15996 322.471833 
L 284.08365 159.341579 
L 287.00734 72.931021 
L 289.93103 71.457469 
L 292.85472 71.482579 
L 295.77841 173.569434 
L 298.7021 306.222751 
L 301.62579 314.151544 
L 304.549481 311.837622 
L 310.396861 71.456236 
L 313.320551 72.479884 
L 316.244241 295.024489 
L 319.167931 327.794185 
L 322.091621 446.255921 
L 325.015311 399.446562 
L 327.939001 416.388421 
L 330.862691 374.549639 
L 333.786382 293.278974 
L 336.710072 356.347174 
L 339.633762 489.472562 
L 342.557452 363.569355 
L 345.481142 389.142492 
L 348.404832 367.234674 
L 351.328522 352.048509 
L 354.252212 335.523033 
L 357.175902 328.004099 
L 360.099592 339.566327 
L 363.023283 446.089346 
L 365.946973 303.435183 
L 368.870663 414.106856 
L 371.794353 412.671455 
L 377.641733 152.268395 
L 380.565423 71.456853 
L 383.489113 155.404502 
L 386.412803 103.060047 
L 389.336494 71.468412 
L 392.260184 281.941125 
L 395.183874 404.538799 
L 398.107564 370.28027 
L 401.031254 419.387879 
L 403.954944 381.947752 
L 406.878634 348.626371 
L 409.802324 319.186833 
L 412.726014 307.889089 
L 415.649704 383.715428 
L 418.573395 323.413335 
L 421.497085 394.240186 
L 424.420775 412.126853 
L 427.344465 305.301799 
L 430.268155 354.695684 
L 433.191845 365.848944 
L 436.115535 289.708748 
L 439.039225 370.914421 
L 441.962915 390.772696 
L 444.886605 269.403709 
L 447.810296 79.236255 
L 450.733986 71.467348 
L 453.657676 261.98111 
L 456.581366 311.57132 
L 459.505056 365.634657 
L 462.428746 268.578586 
L 465.352436 354.929245 
L 468.276126 351.470955 
L 471.199816 338.690237 
L 474.123506 347.837958 
L 477.047197 321.857515 
L 479.970887 245.632073 
L 482.894577 352.890843 
L 485.818267 293.167737 
L 488.741957 210.339748 
L 491.665647 71.45315 
L 494.589337 73.183431 
L 497.513027 206.726113 
L 500.436717 71.537938 
L 503.360408 77.619897 
L 506.284098 282.920283 
L 509.207788 378.174538 
L 512.131478 212.966801 
L 515.055168 71.453185 
L 517.978858 74.455947 
L 520.902548 306.967386 
L 523.826238 387.739832 
L 526.749928 358.163646 
L 529.673618 388.790384 
L 532.597309 362.181282 
L 535.520999 338.260946 
L 538.444689 329.978628 
L 541.368379 383.791299 
L 544.292069 407.903027 
L 547.215759 227.376298 
L 550.139449 236.179345 
L 553.063139 107.376989 
L 555.986829 243.580291 
L 558.910519 232.331938 
L 561.83421 216.212999 
L 564.7579 242.975331 
L 567.68159 214.634434 
L 570.60528 279.014355 
L 573.52897 298.749973 
L 576.45266 359.790072 
L 582.30004 329.765915 
L 585.22373 348.099346 
L 588.147421 210.517988 
L 591.071111 283.134797 
L 593.994801 374.75714 
L 596.918491 319.260676 
L 599.842181 306.930429 
L 602.765871 364.800666 
L 605.689561 304.313581 
L 608.613251 364.60644 
L 611.536941 430.001662 
L 614.460631 392.559191 
L 617.384322 323.885074 
L 620.308012 410.66756 
L 623.231702 461.046795 
L 626.155392 444.350984 
L 629.079082 394.065181 
L 632.002772 365.273489 
L 634.926462 322.171827 
L 637.850152 334.164343 
L 640.773842 308.595159 
L 643.697532 237.527313 
L 646.621223 239.693725 
L 649.544913 312.915074 
L 652.468603 416.176933 
L 658.315983 219.432446 
L 661.239673 338.173426 
L 664.163363 307.808723 
L 667.087053 425.962985 
L 670.010743 402.430104 
L 672.934433 337.073535 
L 675.858124 351.299676 
L 678.781814 332.573106 
L 681.705504 371.939123 
L 684.629194 348.212803 
L 687.552884 302.728589 
L 690.476574 385.335383 
L 693.400264 325.074129 
L 696.323954 341.370574 
L 699.247644 354.20266 
L 702.171335 344.244699 
L 705.095025 327.214795 
L 708.018715 327.280137 
L 710.942405 324.792873 
L 713.866095 325.703173 
L 716.789785 323.746169 
L 719.713475 323.89137 
L 722.637165 322.146817 
L 725.560855 325.719386 
L 728.484545 322.270191 
L 728.484545 322.270191 
" style="fill:none;stroke:#8172b3;stroke-dasharray:7.5,1.5,1.5,1.5;stroke-dashoffset:0;stroke-width:1.5;"/>
   </g>
   <g id="line2d_6"/>
   <g id="line2d_7"/>
   <g id="line2d_8"/>
   <g id="line2d_9"/>
   <g id="line2d_10"/>
   <g id="patch_3">
    <path d="M 105.3 529.9416 
L 105.3 71.4528 
" style="fill:none;stroke:#262626;stroke-linecap:square;stroke-linejoin:miter;stroke-width:1.25;"/>
   </g>
   <g id="patch_4">
    <path d="M 758.16 529.9416 
L 758.16 71.4528 
" style="fill:none;stroke:#262626;stroke-linecap:square;stroke-linejoin:miter;stroke-width:1.25;"/>
   </g>
   <g id="patch_5">
    <path d="M 105.3 529.9416 
L 758.16 529.9416 
" style="fill:none;stroke:#262626;stroke-linecap:square;stroke-linejoin:miter;stroke-width:1.25;"/>
   </g>
   <g id="patch_6">
    <path d="M 105.3 71.4528 
L 758.16 71.4528 
" style="fill:none;stroke:#262626;stroke-linecap:square;stroke-linejoin:miter;stroke-width:1.25;"/>
   </g>
   <g id="text_16">
    <!-- Activations for &gt;S&lt; -->
    <g style="fill:#262626;" transform="translate(381.372187 65.4528)scale(0.12 -0.12)">
     <defs>
      <path d="M -9 0 
L 1750 4581 
L 2403 4581 
L 4278 0 
L 3588 0 
L 3053 1388 
L 1138 1388 
L 634 0 
L -9 0 
z
M 1313 1881 
L 2866 1881 
L 2388 3150 
Q 2169 3728 2063 4100 
Q 1975 3659 1816 3225 
L 1313 1881 
z
" id="ArialMT-41" transform="scale(0.015625)"/>
      <path d="M 2588 1216 
L 3141 1144 
Q 3050 572 2676 248 
Q 2303 -75 1759 -75 
Q 1078 -75 664 370 
Q 250 816 250 1647 
Q 250 2184 428 2587 
Q 606 2991 970 3192 
Q 1334 3394 1763 3394 
Q 2303 3394 2647 3120 
Q 2991 2847 3088 2344 
L 2541 2259 
Q 2463 2594 2264 2762 
Q 2066 2931 1784 2931 
Q 1359 2931 1093 2626 
Q 828 2322 828 1663 
Q 828 994 1084 691 
Q 1341 388 1753 388 
Q 2084 388 2306 591 
Q 2528 794 2588 1216 
z
" id="ArialMT-63" transform="scale(0.015625)"/>
      <path d="M 1650 503 
L 1731 6 
Q 1494 -44 1306 -44 
Q 1000 -44 831 53 
Q 663 150 594 308 
Q 525 466 525 972 
L 525 2881 
L 113 2881 
L 113 3319 
L 525 3319 
L 525 4141 
L 1084 4478 
L 1084 3319 
L 1650 3319 
L 1650 2881 
L 1084 2881 
L 1084 941 
Q 1084 700 1114 631 
Q 1144 563 1211 522 
Q 1278 481 1403 481 
Q 1497 481 1650 503 
z
" id="ArialMT-74" transform="scale(0.015625)"/>
      <path d="M 425 3934 
L 425 4581 
L 988 4581 
L 988 3934 
L 425 3934 
z
M 425 0 
L 425 3319 
L 988 3319 
L 988 0 
L 425 0 
z
" id="ArialMT-69" transform="scale(0.015625)"/>
      <path d="M 1344 0 
L 81 3319 
L 675 3319 
L 1388 1331 
Q 1503 1009 1600 663 
Q 1675 925 1809 1294 
L 2547 3319 
L 3125 3319 
L 1869 0 
L 1344 0 
z
" id="ArialMT-76" transform="scale(0.015625)"/>
      <path d="M 2588 409 
Q 2275 144 1986 34 
Q 1697 -75 1366 -75 
Q 819 -75 525 192 
Q 231 459 231 875 
Q 231 1119 342 1320 
Q 453 1522 633 1644 
Q 813 1766 1038 1828 
Q 1203 1872 1538 1913 
Q 2219 1994 2541 2106 
Q 2544 2222 2544 2253 
Q 2544 2597 2384 2738 
Q 2169 2928 1744 2928 
Q 1347 2928 1158 2789 
Q 969 2650 878 2297 
L 328 2372 
Q 403 2725 575 2942 
Q 747 3159 1072 3276 
Q 1397 3394 1825 3394 
Q 2250 3394 2515 3294 
Q 2781 3194 2906 3042 
Q 3031 2891 3081 2659 
Q 3109 2516 3109 2141 
L 3109 1391 
Q 3109 606 3145 398 
Q 3181 191 3288 0 
L 2700 0 
Q 2613 175 2588 409 
z
M 2541 1666 
Q 2234 1541 1622 1453 
Q 1275 1403 1131 1340 
Q 988 1278 909 1158 
Q 831 1038 831 891 
Q 831 666 1001 516 
Q 1172 366 1500 366 
Q 1825 366 2078 508 
Q 2331 650 2450 897 
Q 2541 1088 2541 1459 
L 2541 1666 
z
" id="ArialMT-61" transform="scale(0.015625)"/>
      <path d="M 213 1659 
Q 213 2581 725 3025 
Q 1153 3394 1769 3394 
Q 2453 3394 2887 2945 
Q 3322 2497 3322 1706 
Q 3322 1066 3130 698 
Q 2938 331 2570 128 
Q 2203 -75 1769 -75 
Q 1072 -75 642 372 
Q 213 819 213 1659 
z
M 791 1659 
Q 791 1022 1069 705 
Q 1347 388 1769 388 
Q 2188 388 2466 706 
Q 2744 1025 2744 1678 
Q 2744 2294 2464 2611 
Q 2184 2928 1769 2928 
Q 1347 2928 1069 2612 
Q 791 2297 791 1659 
z
" id="ArialMT-6f" transform="scale(0.015625)"/>
      <path d="M 422 0 
L 422 3319 
L 928 3319 
L 928 2847 
Q 1294 3394 1984 3394 
Q 2284 3394 2536 3286 
Q 2788 3178 2913 3003 
Q 3038 2828 3088 2588 
Q 3119 2431 3119 2041 
L 3119 0 
L 2556 0 
L 2556 2019 
Q 2556 2363 2490 2533 
Q 2425 2703 2258 2804 
Q 2091 2906 1866 2906 
Q 1506 2906 1245 2678 
Q 984 2450 984 1813 
L 984 0 
L 422 0 
z
" id="ArialMT-6e" transform="scale(0.015625)"/>
      <path d="M 197 991 
L 753 1078 
Q 800 744 1014 566 
Q 1228 388 1613 388 
Q 2000 388 2187 545 
Q 2375 703 2375 916 
Q 2375 1106 2209 1216 
Q 2094 1291 1634 1406 
Q 1016 1563 777 1677 
Q 538 1791 414 1992 
Q 291 2194 291 2438 
Q 291 2659 392 2848 
Q 494 3038 669 3163 
Q 800 3259 1026 3326 
Q 1253 3394 1513 3394 
Q 1903 3394 2198 3281 
Q 2494 3169 2634 2976 
Q 2775 2784 2828 2463 
L 2278 2388 
Q 2241 2644 2061 2787 
Q 1881 2931 1553 2931 
Q 1166 2931 1000 2803 
Q 834 2675 834 2503 
Q 834 2394 903 2306 
Q 972 2216 1119 2156 
Q 1203 2125 1616 2013 
Q 2213 1853 2448 1751 
Q 2684 1650 2818 1456 
Q 2953 1263 2953 975 
Q 2953 694 2789 445 
Q 2625 197 2315 61 
Q 2006 -75 1616 -75 
Q 969 -75 630 194 
Q 291 463 197 991 
z
" id="ArialMT-73" transform="scale(0.015625)"/>
      <path id="ArialMT-20" transform="scale(0.015625)"/>
      <path d="M 556 0 
L 556 2881 
L 59 2881 
L 59 3319 
L 556 3319 
L 556 3672 
Q 556 4006 616 4169 
Q 697 4388 901 4523 
Q 1106 4659 1475 4659 
Q 1713 4659 2000 4603 
L 1916 4113 
Q 1741 4144 1584 4144 
Q 1328 4144 1222 4034 
Q 1116 3925 1116 3625 
L 1116 3319 
L 1763 3319 
L 1763 2881 
L 1116 2881 
L 1116 0 
L 556 0 
z
" id="ArialMT-66" transform="scale(0.015625)"/>
      <path d="M 416 0 
L 416 3319 
L 922 3319 
L 922 2816 
Q 1116 3169 1280 3281 
Q 1444 3394 1641 3394 
Q 1925 3394 2219 3213 
L 2025 2691 
Q 1819 2813 1613 2813 
Q 1428 2813 1281 2702 
Q 1134 2591 1072 2394 
Q 978 2094 978 1738 
L 978 0 
L 416 0 
z
" id="ArialMT-72" transform="scale(0.015625)"/>
      <path d="M 3384 2003 
L 350 706 
L 350 1266 
L 2753 2263 
L 350 3250 
L 350 3809 
L 3384 2528 
L 3384 2003 
z
" id="ArialMT-3e" transform="scale(0.015625)"/>
      <path d="M 288 1472 
L 859 1522 
Q 900 1178 1048 958 
Q 1197 738 1509 602 
Q 1822 466 2213 466 
Q 2559 466 2825 569 
Q 3091 672 3220 851 
Q 3350 1031 3350 1244 
Q 3350 1459 3225 1620 
Q 3100 1781 2813 1891 
Q 2628 1963 1997 2114 
Q 1366 2266 1113 2400 
Q 784 2572 623 2826 
Q 463 3081 463 3397 
Q 463 3744 659 4045 
Q 856 4347 1234 4503 
Q 1613 4659 2075 4659 
Q 2584 4659 2973 4495 
Q 3363 4331 3572 4012 
Q 3781 3694 3797 3291 
L 3216 3247 
Q 3169 3681 2898 3903 
Q 2628 4125 2100 4125 
Q 1550 4125 1298 3923 
Q 1047 3722 1047 3438 
Q 1047 3191 1225 3031 
Q 1400 2872 2139 2705 
Q 2878 2538 3153 2413 
Q 3553 2228 3743 1945 
Q 3934 1663 3934 1294 
Q 3934 928 3725 604 
Q 3516 281 3123 101 
Q 2731 -78 2241 -78 
Q 1619 -78 1198 103 
Q 778 284 539 648 
Q 300 1013 288 1472 
z
" id="ArialMT-53" transform="scale(0.015625)"/>
      <path d="M 350 2003 
L 350 2528 
L 3384 3809 
L 3384 3250 
L 978 2263 
L 3384 1266 
L 3384 706 
L 350 2003 
z
" id="ArialMT-3c" transform="scale(0.015625)"/>
     </defs>
     <use xlink:href="#ArialMT-41"/>
     <use x="66.699219" xlink:href="#ArialMT-63"/>
     <use x="116.699219" xlink:href="#ArialMT-74"/>
     <use x="144.482422" xlink:href="#ArialMT-69"/>
     <use x="166.699219" xlink:href="#ArialMT-76"/>
     <use x="216.699219" xlink:href="#ArialMT-61"/>
     <use x="272.314453" xlink:href="#ArialMT-74"/>
     <use x="300.097656" xlink:href="#ArialMT-69"/>
     <use x="322.314453" xlink:href="#ArialMT-6f"/>
     <use x="377.929688" xlink:href="#ArialMT-6e"/>
     <use x="433.544922" xlink:href="#ArialMT-73"/>
     <use x="483.544922" xlink:href="#ArialMT-20"/>
     <use x="511.328125" xlink:href="#ArialMT-66"/>
     <use x="539.111328" xlink:href="#ArialMT-6f"/>
     <use x="594.726562" xlink:href="#ArialMT-72"/>
     <use x="628.027344" xlink:href="#ArialMT-20"/>
     <use x="655.810547" xlink:href="#ArialMT-3e"/>
     <use x="714.208984" xlink:href="#ArialMT-53"/>
     <use x="780.908203" xlink:href="#ArialMT-3c"/>
    </g>
   </g>
   <g id="legend_1">
    <g id="patch_7">
     <path d="M 640.044062 158.514363 
L 750.46 158.514363 
Q 752.66 158.514363 752.66 156.314363 
L 752.66 79.1528 
Q 752.66 76.9528 750.46 76.9528 
L 640.044062 76.9528 
Q 637.844062 76.9528 637.844062 79.1528 
L 637.844062 156.314363 
Q 637.844062 158.514363 640.044062 158.514363 
z
" style="fill:#ffffff;opacity:0.8;stroke:#cccccc;stroke-linejoin:miter;"/>
    </g>
    <g id="line2d_11">
     <path d="M 642.244062 85.376394 
L 664.244062 85.376394 
" style="fill:none;stroke:#4c72b0;stroke-linecap:round;stroke-width:1.5;"/>
    </g>
    <g id="line2d_12"/>
    <g id="text_17">
     <!-- regular -->
     <g style="fill:#262626;" transform="translate(673.044062 89.226394)scale(0.11 -0.11)">
      <defs>
       <path d="M 2694 1069 
L 3275 997 
Q 3138 488 2766 206 
Q 2394 -75 1816 -75 
Q 1088 -75 661 373 
Q 234 822 234 1631 
Q 234 2469 665 2931 
Q 1097 3394 1784 3394 
Q 2450 3394 2872 2941 
Q 3294 2488 3294 1666 
Q 3294 1616 3291 1516 
L 816 1516 
Q 847 969 1125 678 
Q 1403 388 1819 388 
Q 2128 388 2347 550 
Q 2566 713 2694 1069 
z
M 847 1978 
L 2700 1978 
Q 2663 2397 2488 2606 
Q 2219 2931 1791 2931 
Q 1403 2931 1139 2672 
Q 875 2413 847 1978 
z
" id="ArialMT-65" transform="scale(0.015625)"/>
       <path d="M 319 -275 
L 866 -356 
Q 900 -609 1056 -725 
Q 1266 -881 1628 -881 
Q 2019 -881 2231 -725 
Q 2444 -569 2519 -288 
Q 2563 -116 2559 434 
Q 2191 0 1641 0 
Q 956 0 581 494 
Q 206 988 206 1678 
Q 206 2153 378 2554 
Q 550 2956 876 3175 
Q 1203 3394 1644 3394 
Q 2231 3394 2613 2919 
L 2613 3319 
L 3131 3319 
L 3131 450 
Q 3131 -325 2973 -648 
Q 2816 -972 2473 -1159 
Q 2131 -1347 1631 -1347 
Q 1038 -1347 672 -1080 
Q 306 -813 319 -275 
z
M 784 1719 
Q 784 1066 1043 766 
Q 1303 466 1694 466 
Q 2081 466 2343 764 
Q 2606 1063 2606 1700 
Q 2606 2309 2336 2618 
Q 2066 2928 1684 2928 
Q 1309 2928 1046 2623 
Q 784 2319 784 1719 
z
" id="ArialMT-67" transform="scale(0.015625)"/>
       <path d="M 2597 0 
L 2597 488 
Q 2209 -75 1544 -75 
Q 1250 -75 995 37 
Q 741 150 617 320 
Q 494 491 444 738 
Q 409 903 409 1263 
L 409 3319 
L 972 3319 
L 972 1478 
Q 972 1038 1006 884 
Q 1059 663 1231 536 
Q 1403 409 1656 409 
Q 1909 409 2131 539 
Q 2353 669 2445 892 
Q 2538 1116 2538 1541 
L 2538 3319 
L 3100 3319 
L 3100 0 
L 2597 0 
z
" id="ArialMT-75" transform="scale(0.015625)"/>
       <path d="M 409 0 
L 409 4581 
L 972 4581 
L 972 0 
L 409 0 
z
" id="ArialMT-6c" transform="scale(0.015625)"/>
      </defs>
      <use xlink:href="#ArialMT-72"/>
      <use x="33.300781" xlink:href="#ArialMT-65"/>
      <use x="88.916016" xlink:href="#ArialMT-67"/>
      <use x="144.53125" xlink:href="#ArialMT-75"/>
      <use x="200.146484" xlink:href="#ArialMT-6c"/>
      <use x="222.363281" xlink:href="#ArialMT-61"/>
      <use x="277.978516" xlink:href="#ArialMT-72"/>
     </g>
    </g>
    <g id="line2d_13">
     <path d="M 642.244062 101.0978 
L 664.244062 101.0978 
" style="fill:none;stroke:#dd8452;stroke-dasharray:6,2.25;stroke-dashoffset:0;stroke-width:1.5;"/>
    </g>
    <g id="line2d_14"/>
    <g id="text_18">
     <!-- splitted_3s -->
     <g style="fill:#262626;" transform="translate(673.044062 104.9478)scale(0.11 -0.11)">
      <defs>
       <path d="M 422 -1272 
L 422 3319 
L 934 3319 
L 934 2888 
Q 1116 3141 1344 3267 
Q 1572 3394 1897 3394 
Q 2322 3394 2647 3175 
Q 2972 2956 3137 2557 
Q 3303 2159 3303 1684 
Q 3303 1175 3120 767 
Q 2938 359 2589 142 
Q 2241 -75 1856 -75 
Q 1575 -75 1351 44 
Q 1128 163 984 344 
L 984 -1272 
L 422 -1272 
z
M 931 1641 
Q 931 1000 1190 694 
Q 1450 388 1819 388 
Q 2194 388 2461 705 
Q 2728 1022 2728 1688 
Q 2728 2322 2467 2637 
Q 2206 2953 1844 2953 
Q 1484 2953 1207 2617 
Q 931 2281 931 1641 
z
" id="ArialMT-70" transform="scale(0.015625)"/>
       <path d="M 2575 0 
L 2575 419 
Q 2259 -75 1647 -75 
Q 1250 -75 917 144 
Q 584 363 401 755 
Q 219 1147 219 1656 
Q 219 2153 384 2558 
Q 550 2963 881 3178 
Q 1213 3394 1622 3394 
Q 1922 3394 2156 3267 
Q 2391 3141 2538 2938 
L 2538 4581 
L 3097 4581 
L 3097 0 
L 2575 0 
z
M 797 1656 
Q 797 1019 1065 703 
Q 1334 388 1700 388 
Q 2069 388 2326 689 
Q 2584 991 2584 1609 
Q 2584 2291 2321 2609 
Q 2059 2928 1675 2928 
Q 1300 2928 1048 2622 
Q 797 2316 797 1656 
z
" id="ArialMT-64" transform="scale(0.015625)"/>
       <path d="M -97 -1272 
L -97 -866 
L 3631 -866 
L 3631 -1272 
L -97 -1272 
z
" id="ArialMT-5f" transform="scale(0.015625)"/>
       <path d="M 269 1209 
L 831 1284 
Q 928 806 1161 595 
Q 1394 384 1728 384 
Q 2125 384 2398 659 
Q 2672 934 2672 1341 
Q 2672 1728 2419 1979 
Q 2166 2231 1775 2231 
Q 1616 2231 1378 2169 
L 1441 2663 
Q 1497 2656 1531 2656 
Q 1891 2656 2178 2843 
Q 2466 3031 2466 3422 
Q 2466 3731 2256 3934 
Q 2047 4138 1716 4138 
Q 1388 4138 1169 3931 
Q 950 3725 888 3313 
L 325 3413 
Q 428 3978 793 4289 
Q 1159 4600 1703 4600 
Q 2078 4600 2393 4439 
Q 2709 4278 2876 4000 
Q 3044 3722 3044 3409 
Q 3044 3113 2884 2869 
Q 2725 2625 2413 2481 
Q 2819 2388 3044 2092 
Q 3269 1797 3269 1353 
Q 3269 753 2831 336 
Q 2394 -81 1725 -81 
Q 1122 -81 723 278 
Q 325 638 269 1209 
z
" id="ArialMT-33" transform="scale(0.015625)"/>
      </defs>
      <use xlink:href="#ArialMT-73"/>
      <use x="50" xlink:href="#ArialMT-70"/>
      <use x="105.615234" xlink:href="#ArialMT-6c"/>
      <use x="127.832031" xlink:href="#ArialMT-69"/>
      <use x="150.048828" xlink:href="#ArialMT-74"/>
      <use x="177.832031" xlink:href="#ArialMT-74"/>
      <use x="205.615234" xlink:href="#ArialMT-65"/>
      <use x="261.230469" xlink:href="#ArialMT-64"/>
      <use x="316.845703" xlink:href="#ArialMT-5f"/>
      <use x="372.460938" xlink:href="#ArialMT-33"/>
      <use x="428.076172" xlink:href="#ArialMT-73"/>
     </g>
    </g>
    <g id="line2d_15">
     <path d="M 642.244062 116.6903 
L 664.244062 116.6903 
" style="fill:none;stroke:#55a868;stroke-dasharray:1.5,1.5;stroke-dashoffset:0;stroke-width:1.5;"/>
    </g>
    <g id="line2d_16"/>
    <g id="text_19">
     <!-- splitted_1s -->
     <g style="fill:#262626;" transform="translate(673.044062 120.5403)scale(0.11 -0.11)">
      <use xlink:href="#ArialMT-73"/>
      <use x="50" xlink:href="#ArialMT-70"/>
      <use x="105.615234" xlink:href="#ArialMT-6c"/>
      <use x="127.832031" xlink:href="#ArialMT-69"/>
      <use x="150.048828" xlink:href="#ArialMT-74"/>
      <use x="177.832031" xlink:href="#ArialMT-74"/>
      <use x="205.615234" xlink:href="#ArialMT-65"/>
      <use x="261.230469" xlink:href="#ArialMT-64"/>
      <use x="316.845703" xlink:href="#ArialMT-5f"/>
      <use x="372.460938" xlink:href="#ArialMT-31"/>
      <use x="428.076172" xlink:href="#ArialMT-73"/>
     </g>
    </g>
    <g id="line2d_17">
     <path d="M 642.244062 132.384206 
L 664.244062 132.384206 
" style="fill:none;stroke:#c44e52;stroke-dasharray:4.5,1.875,2.25,1.875;stroke-dashoffset:0;stroke-width:1.5;"/>
    </g>
    <g id="line2d_18"/>
    <g id="text_20">
     <!-- overlap_1f_3s -->
     <g style="fill:#262626;" transform="translate(673.044062 136.234206)scale(0.11 -0.11)">
      <use xlink:href="#ArialMT-6f"/>
      <use x="55.615234" xlink:href="#ArialMT-76"/>
      <use x="105.615234" xlink:href="#ArialMT-65"/>
      <use x="161.230469" xlink:href="#ArialMT-72"/>
      <use x="194.53125" xlink:href="#ArialMT-6c"/>
      <use x="216.748047" xlink:href="#ArialMT-61"/>
      <use x="272.363281" xlink:href="#ArialMT-70"/>
      <use x="327.978516" xlink:href="#ArialMT-5f"/>
      <use x="383.59375" xlink:href="#ArialMT-31"/>
      <use x="439.208984" xlink:href="#ArialMT-66"/>
      <use x="466.992188" xlink:href="#ArialMT-5f"/>
      <use x="522.607422" xlink:href="#ArialMT-33"/>
      <use x="578.222656" xlink:href="#ArialMT-73"/>
     </g>
    </g>
    <g id="line2d_19">
     <path d="M 642.244062 148.078113 
L 664.244062 148.078113 
" style="fill:none;stroke:#8172b3;stroke-dasharray:7.5,1.5,1.5,1.5;stroke-dashoffset:0;stroke-width:1.5;"/>
    </g>
    <g id="line2d_20"/>
    <g id="text_21">
     <!-- overlap_10f_3s -->
     <g style="fill:#262626;" transform="translate(673.044062 151.928112)scale(0.11 -0.11)">
      <use xlink:href="#ArialMT-6f"/>
      <use x="55.615234" xlink:href="#ArialMT-76"/>
      <use x="105.615234" xlink:href="#ArialMT-65"/>
      <use x="161.230469" xlink:href="#ArialMT-72"/>
      <use x="194.53125" xlink:href="#ArialMT-6c"/>
      <use x="216.748047" xlink:href="#ArialMT-61"/>
      <use x="272.363281" xlink:href="#ArialMT-70"/>
      <use x="327.978516" xlink:href="#ArialMT-5f"/>
      <use x="383.59375" xlink:href="#ArialMT-31"/>
      <use x="439.208984" xlink:href="#ArialMT-30"/>
      <use x="494.824219" xlink:href="#ArialMT-66"/>
      <use x="522.607422" xlink:href="#ArialMT-5f"/>
      <use x="578.222656" xlink:href="#ArialMT-33"/>
      <use x="633.837891" xlink:href="#ArialMT-73"/>
     </g>
    </g>
   </g>
  </g>
 </g>
 <defs>
  <clipPath id="p6bd50d168b">
   <rect height="458.4888" width="652.86" x="105.3" y="71.4528"/>
  </clipPath>
 </defs>
</svg>
