<?xml version="1.0" encoding="utf-8" standalone="no"?>
<!DOCTYPE svg PUBLIC "-//W3C//DTD SVG 1.1//EN"
  "http://www.w3.org/Graphics/SVG/1.1/DTD/svg11.dtd">
<svg height="595.44pt" version="1.1" viewBox="0 0 842.4 595.44" width="842.4pt" xmlns="http://www.w3.org/2000/svg" xmlns:xlink="http://www.w3.org/1999/xlink">
 <metadata>
  <rdf:RDF xmlns:cc="http://creativecommons.org/ns#" xmlns:dc="http://purl.org/dc/elements/1.1/" xmlns:rdf="http://www.w3.org/1999/02/22-rdf-syntax-ns#">
   <cc:Work>
    <dc:type rdf:resource="http://purl.org/dc/dcmitype/StillImage"/>
    <dc:date>2021-06-01T00:54:08.459484</dc:date>
    <dc:format>image/svg+xml</dc:format>
    <dc:creator>
     <cc:Agent>
      <dc:title>Matplotlib v3.4.1, https://matplotlib.org/</dc:title>
     </cc:Agent>
    </dc:creator>
   </cc:Work>
  </rdf:RDF>
 </metadata>
 <defs>
  <style type="text/css">*{stroke-linecap:butt;stroke-linejoin:round;}</style>
 </defs>
 <g id="figure_1">
  <g id="patch_1">
   <path d="M 0 595.44 
L 842.4 595.44 
L 842.4 0 
L 0 0 
z
" style="fill:#ffffff;"/>
  </g>
  <g id="axes_1">
   <g id="patch_2">
    <path d="M 105.3 529.9416 
L 758.16 529.9416 
L 758.16 71.4528 
L 105.3 71.4528 
z
" style="fill:#ffffff;"/>
   </g>
   <g id="matplotlib.axis_1">
    <g id="xtick_1">
     <g id="text_1">
      <!-- 0 -->
      <g style="fill:#262626;" transform="translate(131.916939 547.315194)scale(0.11 -0.11)">
       <defs>
        <path d="M 266 2259 
Q 266 3072 433 3567 
Q 600 4063 929 4331 
Q 1259 4600 1759 4600 
Q 2128 4600 2406 4451 
Q 2684 4303 2865 4023 
Q 3047 3744 3150 3342 
Q 3253 2941 3253 2259 
Q 3253 1453 3087 958 
Q 2922 463 2592 192 
Q 2263 -78 1759 -78 
Q 1097 -78 719 397 
Q 266 969 266 2259 
z
M 844 2259 
Q 844 1131 1108 757 
Q 1372 384 1759 384 
Q 2147 384 2411 759 
Q 2675 1134 2675 2259 
Q 2675 3391 2411 3762 
Q 2147 4134 1753 4134 
Q 1366 4134 1134 3806 
Q 844 3388 844 2259 
z
" id="ArialMT-30" transform="scale(0.015625)"/>
       </defs>
       <use xlink:href="#ArialMT-30"/>
      </g>
     </g>
    </g>
    <g id="xtick_2">
     <g id="text_2">
      <!-- 25 -->
      <g style="fill:#262626;" transform="translate(201.950676 547.315194)scale(0.11 -0.11)">
       <defs>
        <path d="M 3222 541 
L 3222 0 
L 194 0 
Q 188 203 259 391 
Q 375 700 629 1000 
Q 884 1300 1366 1694 
Q 2113 2306 2375 2664 
Q 2638 3022 2638 3341 
Q 2638 3675 2398 3904 
Q 2159 4134 1775 4134 
Q 1369 4134 1125 3890 
Q 881 3647 878 3216 
L 300 3275 
Q 359 3922 746 4261 
Q 1134 4600 1788 4600 
Q 2447 4600 2831 4234 
Q 3216 3869 3216 3328 
Q 3216 3053 3103 2787 
Q 2991 2522 2730 2228 
Q 2469 1934 1863 1422 
Q 1356 997 1212 845 
Q 1069 694 975 541 
L 3222 541 
z
" id="ArialMT-32" transform="scale(0.015625)"/>
        <path d="M 266 1200 
L 856 1250 
Q 922 819 1161 601 
Q 1400 384 1738 384 
Q 2144 384 2425 690 
Q 2706 997 2706 1503 
Q 2706 1984 2436 2262 
Q 2166 2541 1728 2541 
Q 1456 2541 1237 2417 
Q 1019 2294 894 2097 
L 366 2166 
L 809 4519 
L 3088 4519 
L 3088 3981 
L 1259 3981 
L 1013 2750 
Q 1425 3038 1878 3038 
Q 2478 3038 2890 2622 
Q 3303 2206 3303 1553 
Q 3303 931 2941 478 
Q 2500 -78 1738 -78 
Q 1113 -78 717 272 
Q 322 622 266 1200 
z
" id="ArialMT-35" transform="scale(0.015625)"/>
       </defs>
       <use xlink:href="#ArialMT-32"/>
       <use x="55.615234" xlink:href="#ArialMT-35"/>
      </g>
     </g>
    </g>
    <g id="xtick_3">
     <g id="text_3">
      <!-- 50 -->
      <g style="fill:#262626;" transform="translate(275.042928 547.315194)scale(0.11 -0.11)">
       <use xlink:href="#ArialMT-35"/>
       <use x="55.615234" xlink:href="#ArialMT-30"/>
      </g>
     </g>
    </g>
    <g id="xtick_4">
     <g id="text_4">
      <!-- 75 -->
      <g style="fill:#262626;" transform="translate(348.135181 547.315194)scale(0.11 -0.11)">
       <defs>
        <path d="M 303 3981 
L 303 4522 
L 3269 4522 
L 3269 4084 
Q 2831 3619 2401 2847 
Q 1972 2075 1738 1259 
Q 1569 684 1522 0 
L 944 0 
Q 953 541 1156 1306 
Q 1359 2072 1739 2783 
Q 2119 3494 2547 3981 
L 303 3981 
z
" id="ArialMT-37" transform="scale(0.015625)"/>
       </defs>
       <use xlink:href="#ArialMT-37"/>
       <use x="55.615234" xlink:href="#ArialMT-35"/>
      </g>
     </g>
    </g>
    <g id="xtick_5">
     <g id="text_5">
      <!-- 100 -->
      <g style="fill:#262626;" transform="translate(418.168918 547.315194)scale(0.11 -0.11)">
       <defs>
        <path d="M 2384 0 
L 1822 0 
L 1822 3584 
Q 1619 3391 1289 3197 
Q 959 3003 697 2906 
L 697 3450 
Q 1169 3672 1522 3987 
Q 1875 4303 2022 4600 
L 2384 4600 
L 2384 0 
z
" id="ArialMT-31" transform="scale(0.015625)"/>
       </defs>
       <use xlink:href="#ArialMT-31"/>
       <use x="55.615234" xlink:href="#ArialMT-30"/>
       <use x="111.230469" xlink:href="#ArialMT-30"/>
      </g>
     </g>
    </g>
    <g id="xtick_6">
     <g id="text_6">
      <!-- 125 -->
      <g style="fill:#262626;" transform="translate(491.261171 547.315194)scale(0.11 -0.11)">
       <use xlink:href="#ArialMT-31"/>
       <use x="55.615234" xlink:href="#ArialMT-32"/>
       <use x="111.230469" xlink:href="#ArialMT-35"/>
      </g>
     </g>
    </g>
    <g id="xtick_7">
     <g id="text_7">
      <!-- 150 -->
      <g style="fill:#262626;" transform="translate(564.353423 547.315194)scale(0.11 -0.11)">
       <use xlink:href="#ArialMT-31"/>
       <use x="55.615234" xlink:href="#ArialMT-35"/>
       <use x="111.230469" xlink:href="#ArialMT-30"/>
      </g>
     </g>
    </g>
    <g id="xtick_8">
     <g id="text_8">
      <!-- 175 -->
      <g style="fill:#262626;" transform="translate(637.445676 547.315194)scale(0.11 -0.11)">
       <use xlink:href="#ArialMT-31"/>
       <use x="55.615234" xlink:href="#ArialMT-37"/>
       <use x="111.230469" xlink:href="#ArialMT-35"/>
      </g>
     </g>
    </g>
    <g id="xtick_9">
     <g id="text_9">
      <!-- 200 -->
      <g style="fill:#262626;" transform="translate(710.537928 547.315194)scale(0.11 -0.11)">
       <use xlink:href="#ArialMT-32"/>
       <use x="55.615234" xlink:href="#ArialMT-30"/>
       <use x="111.230469" xlink:href="#ArialMT-30"/>
      </g>
     </g>
    </g>
   </g>
   <g id="matplotlib.axis_2">
    <g id="ytick_1">
     <g id="text_10">
      <!-- −25 -->
      <g style="fill:#262626;" transform="translate(77.14125 533.878397)scale(0.11 -0.11)">
       <defs>
        <path d="M 3381 1997 
L 356 1997 
L 356 2522 
L 3381 2522 
L 3381 1997 
z
" id="ArialMT-2212" transform="scale(0.015625)"/>
       </defs>
       <use xlink:href="#ArialMT-2212"/>
       <use x="58.398438" xlink:href="#ArialMT-32"/>
       <use x="114.013672" xlink:href="#ArialMT-35"/>
      </g>
     </g>
    </g>
    <g id="ytick_2">
     <g id="text_11">
      <!-- −20 -->
      <g style="fill:#262626;" transform="translate(77.14125 442.180637)scale(0.11 -0.11)">
       <use xlink:href="#ArialMT-2212"/>
       <use x="58.398438" xlink:href="#ArialMT-32"/>
       <use x="114.013672" xlink:href="#ArialMT-30"/>
      </g>
     </g>
    </g>
    <g id="ytick_3">
     <g id="text_12">
      <!-- −15 -->
      <g style="fill:#262626;" transform="translate(77.14125 350.482877)scale(0.11 -0.11)">
       <use xlink:href="#ArialMT-2212"/>
       <use x="58.398438" xlink:href="#ArialMT-31"/>
       <use x="114.013672" xlink:href="#ArialMT-35"/>
      </g>
     </g>
    </g>
    <g id="ytick_4">
     <g id="text_13">
      <!-- −10 -->
      <g style="fill:#262626;" transform="translate(77.14125 258.785117)scale(0.11 -0.11)">
       <use xlink:href="#ArialMT-2212"/>
       <use x="58.398438" xlink:href="#ArialMT-31"/>
       <use x="114.013672" xlink:href="#ArialMT-30"/>
      </g>
     </g>
    </g>
    <g id="ytick_5">
     <g id="text_14">
      <!-- −5 -->
      <g style="fill:#262626;" transform="translate(83.258281 167.087357)scale(0.11 -0.11)">
       <use xlink:href="#ArialMT-2212"/>
       <use x="58.398438" xlink:href="#ArialMT-35"/>
      </g>
     </g>
    </g>
    <g id="ytick_6">
     <g id="text_15">
      <!-- 0 -->
      <g style="fill:#262626;" transform="translate(89.682969 75.389597)scale(0.11 -0.11)">
       <use xlink:href="#ArialMT-30"/>
      </g>
     </g>
    </g>
   </g>
   <g id="line2d_1">
    <path clip-path="url(#p3d47d5f7d1)" d="M 134.975455 353.338708 
L 137.899145 352.639617 
L 140.822835 356.174548 
L 143.746525 356.533844 
L 146.670215 354.346235 
L 149.593905 357.961987 
L 152.517595 358.773871 
L 155.441285 361.437976 
L 158.364975 360.434892 
L 161.288665 364.013688 
L 164.212356 368.872084 
L 167.136046 371.328269 
L 170.059736 397.790438 
L 172.983426 416.192254 
L 175.907116 428.242871 
L 181.754496 504.909725 
L 184.678186 446.8836 
L 187.601876 370.973747 
L 190.525567 410.069929 
L 193.449257 385.680984 
L 196.372947 390.808551 
L 199.296637 403.768436 
L 202.220327 303.10945 
L 205.144017 337.03901 
L 208.067707 446.131777 
L 210.991397 501.538745 
L 213.915087 462.833954 
L 216.838777 464.097778 
L 219.762468 464.456532 
L 222.686158 449.249292 
L 225.609848 431.5115 
L 228.533538 450.897686 
L 231.457228 462.1176 
L 234.380918 345.116031 
L 237.304608 418.26338 
L 240.228298 442.420023 
L 243.151988 390.530355 
L 246.075678 375.205548 
L 248.999369 391.752484 
L 251.923059 419.453922 
L 254.846749 386.553628 
L 257.770439 428.887936 
L 260.694129 416.308142 
L 263.617819 519.25527 
L 266.541509 433.929312 
L 269.465199 424.62983 
L 272.388889 434.342635 
L 275.312579 431.819673 
L 278.23627 389.954901 
L 281.15996 338.530134 
L 284.08365 259.540999 
L 287.00734 237.46358 
L 289.93103 264.698578 
L 292.85472 230.745354 
L 295.77841 297.567057 
L 298.7021 336.135146 
L 301.62579 315.503116 
L 304.549481 344.70472 
L 307.473171 307.803458 
L 310.396861 297.663864 
L 313.320551 267.1676 
L 316.244241 414.534765 
L 319.167931 442.052139 
L 322.091621 505.378211 
L 325.015311 455.290744 
L 327.939001 473.559357 
L 330.862691 408.065544 
L 333.786382 412.159734 
L 336.710072 424.863216 
L 339.633762 438.257797 
L 342.557452 381.621914 
L 345.481142 383.854823 
L 348.404832 403.813805 
L 351.328522 409.895694 
L 354.252212 471.045175 
L 357.175902 485.815481 
L 360.099592 424.034927 
L 363.023283 472.08233 
L 365.946973 396.536373 
L 368.870663 404.395871 
L 371.794353 385.91465 
L 374.718043 181.052959 
L 377.641733 71.532153 
L 380.565423 205.95686 
L 383.489113 268.221528 
L 386.412803 308.944013 
L 392.260184 411.674387 
L 395.183874 443.019858 
L 398.107564 389.398405 
L 401.031254 387.880661 
L 403.954944 410.643529 
L 406.878634 440.616318 
L 409.802324 442.568372 
L 412.726014 417.414312 
L 415.649704 451.65689 
L 418.573395 404.128974 
L 421.497085 451.725346 
L 424.420775 516.383523 
L 427.344465 389.986977 
L 430.268155 428.333399 
L 433.191845 479.495589 
L 436.115535 393.986721 
L 439.039225 378.089642 
L 441.962915 461.279516 
L 444.886605 444.424267 
L 447.810296 365.287901 
L 450.733986 342.802931 
L 453.657676 397.42133 
L 456.581366 408.410481 
L 459.505056 471.119263 
L 462.428746 481.03474 
L 465.352436 484.726836 
L 468.276126 421.952852 
L 471.199816 363.96671 
L 474.123506 406.373321 
L 477.047197 396.54001 
L 479.970887 337.442748 
L 482.894577 393.460483 
L 485.818267 418.156411 
L 488.741957 470.06119 
L 491.665647 464.445759 
L 494.589337 453.978647 
L 497.513027 463.528865 
L 500.436717 399.85929 
L 503.360408 321.321378 
L 506.284098 350.42705 
L 509.207788 416.593893 
L 512.131478 415.230061 
L 515.055168 374.991121 
L 517.978858 321.166522 
L 520.902548 394.191774 
L 523.826238 420.529729 
L 526.749928 399.703559 
L 529.673618 447.941603 
L 532.597309 435.375347 
L 535.520999 360.988187 
L 538.444689 336.755445 
L 541.368379 518.470775 
L 544.292069 486.852286 
L 547.215759 389.737326 
L 550.139449 432.125013 
L 553.063139 357.507335 
L 555.986829 474.962401 
L 558.910519 466.217177 
L 561.83421 444.791381 
L 564.7579 427.044599 
L 567.68159 350.858055 
L 573.52897 408.986985 
L 576.45266 433.994899 
L 579.37635 428.974301 
L 585.22373 361.24361 
L 588.147421 399.574868 
L 591.071111 429.022469 
L 593.994801 431.239496 
L 596.918491 318.702012 
L 599.842181 336.241835 
L 602.765871 422.796533 
L 605.689561 356.735905 
L 608.613251 424.79609 
L 611.536941 514.067713 
L 614.460631 498.189593 
L 617.384322 422.191345 
L 620.308012 435.755438 
L 623.231702 458.458141 
L 626.155392 509.372848 
L 629.079082 441.518205 
L 632.002772 367.681542 
L 634.926462 309.581365 
L 637.850152 264.462009 
L 640.773842 258.417671 
L 643.697532 259.896097 
L 646.621223 351.613131 
L 649.544913 437.052179 
L 652.468603 544.353502 
L 655.392293 462.869249 
L 658.315983 356.46607 
L 661.239673 433.376734 
L 664.163363 401.505025 
L 667.087053 476.394899 
L 670.010743 473.774868 
L 672.934433 499.224159 
L 675.858124 530.336313 
L 678.781814 474.45988 
L 681.705504 472.738028 
L 684.629194 514.974917 
L 687.552884 439.243496 
L 690.476574 487.026136 
L 693.400264 412.08862 
L 696.323954 426.480023 
L 699.247644 405.467551 
L 702.171335 372.349927 
L 705.095025 363.847218 
L 708.018715 358.110074 
L 710.942405 357.8001 
L 713.866095 356.751839 
L 716.789785 358.38241 
L 719.713475 358.485286 
L 722.637165 355.671869 
L 725.560855 359.253585 
L 728.484545 359.011559 
L 728.484545 359.011559 
" style="fill:none;stroke:#4c72b0;stroke-linecap:round;stroke-width:1.5;"/>
   </g>
   <g id="line2d_2">
    <path clip-path="url(#p3d47d5f7d1)" d="M 134.975455 349.073432 
L 137.899145 350.489454 
L 140.822835 350.346823 
L 143.746525 351.282379 
L 146.670215 349.904992 
L 149.593905 354.420182 
L 152.517595 350.698931 
L 155.441285 352.222202 
L 158.364975 348.888388 
L 161.288665 350.90603 
L 164.212356 353.986239 
L 167.136046 353.944525 
L 170.059736 380.383555 
L 172.983426 389.966759 
L 175.907116 404.410807 
L 178.830806 445.258258 
L 181.754496 474.988391 
L 184.678186 438.65272 
L 187.601876 333.751265 
L 190.525567 398.658709 
L 193.449257 360.799558 
L 196.372947 364.426101 
L 199.296637 364.810915 
L 202.220327 287.248033 
L 205.144017 354.649231 
L 208.067707 451.038235 
L 210.991397 505.073256 
L 213.915087 445.083254 
L 216.838777 452.238991 
L 219.762468 457.375722 
L 222.686158 448.649282 
L 225.609848 407.238584 
L 228.533538 422.168433 
L 231.457228 457.368341 
L 234.380918 323.809884 
L 237.304608 393.070282 
L 240.228298 421.516792 
L 243.151988 361.799406 
L 246.075678 349.991025 
L 248.999369 407.212524 
L 251.923059 407.094152 
L 254.846749 375.125129 
L 257.770439 420.330064 
L 260.694129 424.473085 
L 263.617819 525.483619 
L 266.541509 449.306939 
L 269.465199 434.100888 
L 272.388889 457.082381 
L 275.312579 452.832425 
L 278.23627 433.419305 
L 281.15996 393.981054 
L 284.08365 296.181555 
L 287.00734 257.000022 
L 289.93103 299.666884 
L 292.85472 256.863706 
L 295.77841 283.255618 
L 298.7021 346.838949 
L 301.62579 338.441268 
L 304.549481 364.947896 
L 307.473171 317.40256 
L 310.396861 283.616453 
L 313.320551 273.168703 
L 316.244241 423.248298 
L 319.167931 441.052063 
L 322.091621 522.515398 
L 325.015311 461.040778 
L 327.939001 473.986007 
L 330.862691 379.647578 
L 333.786382 370.983996 
L 336.710072 441.293529 
L 339.633762 428.283133 
L 342.557452 352.896527 
L 345.481142 314.664559 
L 351.328522 436.8678 
L 354.252212 442.577957 
L 357.175902 415.629882 
L 360.099592 336.541246 
L 363.023283 298.416632 
L 365.946973 280.003814 
L 371.794353 312.959865 
L 374.718043 186.467274 
L 377.641733 73.847377 
L 380.565423 220.20468 
L 383.489113 260.430555 
L 386.412803 295.46277 
L 389.336494 338.139916 
L 392.260184 395.679994 
L 395.183874 411.752148 
L 398.107564 343.583666 
L 401.031254 332.775483 
L 403.954944 399.331198 
L 406.878634 405.89616 
L 409.802324 449.966975 
L 412.726014 431.491211 
L 415.649704 430.165927 
L 418.573395 366.729563 
L 421.497085 420.828737 
L 424.420775 462.77148 
L 427.344465 363.659428 
L 430.268155 431.056866 
L 433.191845 469.46814 
L 436.115535 372.247436 
L 439.039225 402.670836 
L 441.962915 452.517046 
L 444.886605 383.482636 
L 447.810296 322.869344 
L 453.657676 355.797097 
L 456.581366 391.682979 
L 459.505056 440.432219 
L 462.428746 443.096814 
L 465.352436 461.511503 
L 468.276126 380.369563 
L 471.199816 340.332947 
L 474.123506 349.229285 
L 477.047197 399.936211 
L 479.970887 321.065377 
L 485.818267 428.925364 
L 488.741957 476.845405 
L 491.665647 476.799337 
L 494.589337 444.404259 
L 497.513027 468.160626 
L 500.436717 410.674661 
L 503.360408 336.42931 
L 506.284098 373.590875 
L 509.207788 426.067855 
L 512.131478 429.01995 
L 515.055168 383.897323 
L 517.978858 334.311049 
L 520.902548 404.764944 
L 523.826238 405.731229 
L 526.749928 386.24626 
L 529.673618 441.938489 
L 532.597309 418.640603 
L 535.520999 356.594761 
L 538.444689 334.680367 
L 541.368379 460.091353 
L 544.292069 457.715867 
L 547.215759 319.544625 
L 550.139449 374.550549 
L 553.063139 316.517481 
L 555.986829 327.178013 
L 558.910519 298.598755 
L 561.83421 260.314265 
L 564.7579 270.949577 
L 567.68159 292.316256 
L 570.60528 484.352376 
L 573.52897 310.754819 
L 576.45266 359.114942 
L 579.37635 379.524064 
L 582.30004 350.658617 
L 585.22373 350.991363 
L 588.147421 331.348162 
L 591.071111 370.794195 
L 593.994801 398.627227 
L 596.918491 274.116886 
L 599.842181 319.59713 
L 602.765871 403.006678 
L 605.689561 352.207195 
L 608.613251 422.635065 
L 611.536941 487.117958 
L 614.460631 501.275941 
L 617.384322 463.071957 
L 620.308012 432.115918 
L 623.231702 460.408026 
L 626.155392 512.819804 
L 629.079082 418.863006 
L 632.002772 386.137822 
L 634.926462 325.299924 
L 637.850152 257.633998 
L 640.773842 269.749363 
L 643.697532 253.23711 
L 646.621223 342.838156 
L 649.544913 447.210453 
L 652.468603 532.570796 
L 655.392293 474.323598 
L 658.315983 334.139472 
L 661.239673 435.588409 
L 664.163363 397.422624 
L 667.087053 481.189527 
L 670.010743 492.055094 
L 672.934433 499.49235 
L 675.858124 536.663726 
L 678.781814 491.988842 
L 681.705504 484.105628 
L 684.629194 517.641226 
L 687.552884 425.450424 
L 690.476574 457.416019 
L 693.400264 408.777141 
L 696.323954 418.901029 
L 699.247644 389.907503 
L 702.171335 352.2866 
L 705.095025 343.176289 
L 708.018715 343.51061 
L 710.942405 345.525593 
L 713.866095 345.566887 
L 716.789785 346.572612 
L 719.713475 346.497405 
L 722.637165 344.975324 
L 725.560855 348.273388 
L 728.484545 346.232572 
L 728.484545 346.232572 
" style="fill:none;stroke:#dd8452;stroke-dasharray:6,2.25;stroke-dashoffset:0;stroke-width:1.5;"/>
   </g>
   <g id="line2d_3">
    <path clip-path="url(#p3d47d5f7d1)" d="M 134.975455 340.875135 
L 137.899145 339.738096 
L 140.822835 339.624184 
L 143.746525 339.351148 
L 146.670215 340.407961 
L 149.593905 344.097398 
L 152.517595 343.34052 
L 155.441285 362.052836 
L 158.364975 358.189793 
L 161.288665 347.867901 
L 164.212356 350.576519 
L 167.136046 350.338935 
L 170.059736 366.382598 
L 172.983426 388.068224 
L 175.907116 400.034015 
L 178.830806 427.39996 
L 181.754496 465.162777 
L 184.678186 409.342346 
L 187.601876 370.861636 
L 190.525567 350.647178 
L 193.449257 336.674887 
L 196.372947 292.923543 
L 199.296637 259.310988 
L 202.220327 244.404645 
L 205.144017 309.651237 
L 208.067707 329.834616 
L 210.991397 407.374166 
L 213.915087 396.665379 
L 216.838777 415.250105 
L 219.762468 438.211239 
L 222.686158 430.799833 
L 225.609848 378.261953 
L 228.533538 388.867585 
L 231.457228 436.453323 
L 234.380918 325.620707 
L 237.304608 361.793232 
L 240.228298 432.145231 
L 243.151988 394.082391 
L 246.075678 341.477892 
L 248.999369 445.582627 
L 251.923059 383.362025 
L 254.846749 373.214806 
L 257.770439 406.920581 
L 260.694129 434.732905 
L 263.617819 488.028031 
L 266.541509 439.076537 
L 269.465199 447.795107 
L 272.388889 415.502415 
L 275.312579 410.377192 
L 278.23627 381.688481 
L 281.15996 346.230666 
L 284.08365 270.665522 
L 287.00734 200.2392 
L 289.93103 253.644713 
L 292.85472 303.393365 
L 295.77841 328.327908 
L 298.7021 344.078369 
L 301.62579 361.410027 
L 304.549481 377.377136 
L 307.473171 346.776003 
L 310.396861 330.529947 
L 313.320551 294.026792 
L 316.244241 428.868732 
L 319.167931 463.506093 
L 322.091621 548.686219 
L 325.015311 486.075767 
L 327.939001 481.867228 
L 330.862691 376.376955 
L 333.786382 371.09943 
L 336.710072 430.158337 
L 339.633762 427.222997 
L 342.557452 357.64736 
L 345.481142 328.487714 
L 348.404832 385.550964 
L 351.328522 456.044736 
L 354.252212 404.759522 
L 357.175902 444.208546 
L 360.099592 351.050094 
L 363.023283 351.391673 
L 365.946973 267.362299 
L 368.870663 311.907687 
L 371.794353 270.314761 
L 374.718043 232.226124 
L 377.641733 130.75288 
L 380.565423 259.501734 
L 383.489113 322.726976 
L 386.412803 320.161182 
L 389.336494 372.078238 
L 392.260184 417.303671 
L 395.183874 409.467749 
L 398.107564 342.168028 
L 401.031254 361.983138 
L 403.954944 405.217339 
L 406.878634 395.116433 
L 409.802324 471.936219 
L 412.726014 474.686934 
L 415.649704 409.140337 
L 418.573395 391.387993 
L 421.497085 321.698514 
L 424.420775 313.90616 
L 427.344465 328.973655 
L 430.268155 312.575016 
L 433.191845 313.962303 
L 436.115535 234.111052 
L 439.039225 330.496069 
L 441.962915 435.409102 
L 444.886605 368.543342 
L 447.810296 342.62693 
L 450.733986 304.42041 
L 453.657676 305.123437 
L 456.581366 411.958809 
L 459.505056 487.022393 
L 462.428746 443.22603 
L 465.352436 444.375365 
L 471.199816 303.800618 
L 474.123506 356.254844 
L 477.047197 366.644912 
L 479.970887 380.117148 
L 485.818267 399.25914 
L 488.741957 383.583518 
L 491.665647 410.648391 
L 494.589337 362.062455 
L 497.513027 399.06633 
L 500.436717 335.964689 
L 503.360408 366.751216 
L 506.284098 424.674849 
L 509.207788 357.867453 
L 512.131478 349.437782 
L 515.055168 330.677667 
L 517.978858 351.759067 
L 520.902548 447.53706 
L 523.826238 435.573858 
L 526.749928 448.839747 
L 529.673618 455.276052 
L 532.597309 410.628488 
L 535.520999 373.224705 
L 538.444689 312.293988 
L 541.368379 433.342908 
L 544.292069 406.241271 
L 547.215759 276.184951 
L 550.139449 335.752746 
L 553.063139 359.678486 
L 555.986829 305.573698 
L 558.910519 292.808074 
L 561.83421 252.911569 
L 564.7579 173.166972 
L 567.68159 139.039636 
L 570.60528 310.367539 
L 573.52897 446.859849 
L 576.45266 416.927287 
L 579.37635 458.308742 
L 582.30004 501.720885 
L 585.22373 447.574139 
L 588.147421 402.431398 
L 591.071111 458.794997 
L 593.994801 427.418639 
L 596.918491 284.57137 
L 599.842181 360.564038 
L 602.765871 465.086661 
L 605.689561 367.315477 
L 611.536941 502.06918 
L 614.460631 528.162276 
L 617.384322 473.339333 
L 620.308012 407.530876 
L 623.231702 468.090421 
L 626.155392 515.251573 
L 629.079082 405.144231 
L 632.002772 369.586688 
L 634.926462 332.518433 
L 637.850152 278.986965 
L 640.773842 335.094004 
L 643.697532 343.072714 
L 646.621223 362.836981 
L 649.544913 484.382074 
L 652.468603 544.598501 
L 655.392293 474.722579 
L 658.315983 340.664277 
L 661.239673 419.363568 
L 664.163363 383.944721 
L 667.087053 449.63575 
L 670.010743 473.160935 
L 672.934433 483.773738 
L 675.858124 528.515119 
L 678.781814 489.235118 
L 681.705504 486.80076 
L 684.629194 527.809994 
L 687.552884 437.43395 
L 690.476574 442.266846 
L 693.400264 389.768633 
L 696.323954 407.612939 
L 699.247644 378.426918 
L 702.171335 359.616589 
L 705.095025 344.691182 
L 708.018715 346.930492 
L 710.942405 354.114283 
L 713.866095 357.292576 
L 716.789785 356.701328 
L 719.713475 353.333793 
L 722.637165 356.529786 
L 725.560855 354.734459 
L 728.484545 352.013546 
L 728.484545 352.013546 
" style="fill:none;stroke:#55a868;stroke-dasharray:1.5,1.5;stroke-dashoffset:0;stroke-width:1.5;"/>
   </g>
   <g id="line2d_4">
    <path clip-path="url(#p3d47d5f7d1)" d="M 134.975455 349.056606 
L 137.899145 350.499248 
L 140.822835 350.356862 
L 143.746525 351.1674 
L 146.670215 349.890388 
L 149.593905 354.698028 
L 152.517595 350.942216 
L 155.441285 352.635524 
L 158.364975 349.411303 
L 161.288665 351.42842 
L 164.212356 354.459097 
L 167.136046 354.5236 
L 170.059736 381.125899 
L 172.983426 390.755451 
L 175.907116 405.365059 
L 178.830806 446.642239 
L 181.754496 477.165926 
L 184.678186 439.89846 
L 187.601876 334.025228 
L 190.525567 399.507392 
L 193.449257 365.435761 
L 196.372947 367.574958 
L 199.296637 367.142921 
L 202.220327 290.502425 
L 205.144017 351.847409 
L 208.067707 453.185967 
L 210.991397 502.59283 
L 213.915087 451.707156 
L 216.838777 448.923839 
L 219.762468 459.202409 
L 222.686158 451.005284 
L 225.609848 408.59535 
L 228.533538 424.052906 
L 231.457228 461.144424 
L 234.380918 326.216678 
L 237.304608 395.964836 
L 240.228298 426.945466 
L 243.151988 366.093524 
L 246.075678 353.396233 
L 248.999369 407.591251 
L 251.923059 409.173603 
L 254.846749 377.084879 
L 257.770439 418.486132 
L 260.694129 424.590793 
L 263.617819 526.276404 
L 266.541509 443.871514 
L 269.465199 432.241601 
L 272.388889 453.249036 
L 275.312579 455.93357 
L 278.23627 433.002659 
L 281.15996 388.304758 
L 284.08365 298.981103 
L 287.00734 273.907339 
L 289.93103 309.24526 
L 292.85472 254.615861 
L 295.77841 283.116223 
L 298.7021 345.781541 
L 301.62579 339.946803 
L 304.549481 368.926023 
L 307.473171 318.859649 
L 310.396861 285.867131 
L 313.320551 276.622078 
L 316.244241 426.259929 
L 319.167931 451.927705 
L 322.091621 534.94156 
L 325.015311 459.167429 
L 327.939001 461.954978 
L 330.862691 390.040846 
L 333.786382 363.105119 
L 336.710072 452.856701 
L 339.633762 457.110644 
L 342.557452 381.199252 
L 345.481142 269.628473 
L 348.404832 275.307655 
L 351.328522 377.442269 
L 354.252212 460.334674 
L 357.175902 424.408023 
L 360.099592 344.927647 
L 363.023283 435.333721 
L 365.946973 318.028333 
L 368.870663 323.868616 
L 371.794353 323.709055 
L 374.718043 187.187475 
L 377.641733 73.269583 
L 380.565423 227.413307 
L 383.489113 254.720906 
L 386.412803 298.148213 
L 389.336494 339.378082 
L 392.260184 396.928288 
L 395.183874 412.806548 
L 398.107564 345.604508 
L 401.031254 336.153703 
L 403.954944 399.736231 
L 406.878634 411.375974 
L 409.802324 455.804809 
L 412.726014 435.745014 
L 415.649704 433.974646 
L 418.573395 369.657698 
L 421.497085 426.56324 
L 424.420775 469.262703 
L 427.344465 362.661539 
L 430.268155 427.967754 
L 433.191845 468.027632 
L 436.115535 370.435196 
L 439.039225 404.09319 
L 441.962915 455.554003 
L 444.886605 385.112561 
L 447.810296 326.46612 
L 450.733986 335.802575 
L 453.657676 361.110144 
L 456.581366 395.389731 
L 459.505056 436.82439 
L 462.428746 441.57935 
L 465.352436 467.516751 
L 468.276126 385.771932 
L 471.199816 342.181128 
L 474.123506 354.011215 
L 477.047197 408.128963 
L 479.970887 318.886863 
L 482.894577 378.795817 
L 488.741957 478.017722 
L 491.665647 475.648707 
L 494.589337 443.844265 
L 497.513027 468.777287 
L 500.436717 409.538549 
L 503.360408 335.779978 
L 506.284098 373.369452 
L 509.207788 424.240749 
L 512.131478 429.217027 
L 515.055168 383.452833 
L 517.978858 333.236518 
L 520.902548 404.485174 
L 523.826238 403.793237 
L 526.749928 385.240867 
L 529.673618 441.637837 
L 532.597309 417.222867 
L 535.520999 356.882524 
L 538.444689 337.559022 
L 541.368379 460.325054 
L 544.292069 461.281405 
L 547.215759 323.126062 
L 550.139449 376.349566 
L 553.063139 315.860645 
L 555.986829 328.4389 
L 558.910519 298.480662 
L 561.83421 258.866463 
L 564.7579 269.338017 
L 567.68159 290.924947 
L 570.60528 477.096246 
L 573.52897 328.258526 
L 576.45266 348.107496 
L 579.37635 401.452066 
L 582.30004 416.201803 
L 585.22373 408.86613 
L 588.147421 329.637329 
L 591.071111 343.993858 
L 593.994801 412.67107 
L 596.918491 306.756649 
L 599.842181 316.633701 
L 602.765871 420.066175 
L 605.689561 356.58906 
L 608.613251 423.529152 
L 611.536941 486.632437 
L 614.460631 514.929128 
L 617.384322 460.355417 
L 620.308012 433.257802 
L 623.231702 462.607599 
L 626.155392 505.697158 
L 629.079082 416.242555 
L 632.002772 380.707015 
L 634.926462 327.551109 
L 637.850152 259.232686 
L 640.773842 271.130406 
L 643.697532 251.564702 
L 646.621223 344.834635 
L 649.544913 442.043254 
L 652.468603 530.575366 
L 655.392293 475.041421 
L 658.315983 335.505718 
L 661.239673 435.791118 
L 664.163363 398.566327 
L 667.087053 481.30538 
L 670.010743 492.383101 
L 672.934433 500.252079 
L 675.858124 536.096667 
L 678.781814 492.673259 
L 681.705504 482.415678 
L 684.629194 516.259239 
L 687.552884 425.368011 
L 690.476574 456.773963 
L 693.400264 408.946199 
L 696.323954 418.134339 
L 699.247644 390.291827 
L 702.171335 349.738907 
L 705.095025 342.884242 
L 708.018715 344.201568 
L 710.942405 347.818037 
L 713.866095 348.601727 
L 716.789785 348.246891 
L 719.713475 348.309138 
L 722.637165 347.788549 
L 725.560855 350.524399 
L 728.484545 349.954856 
L 728.484545 349.954856 
" style="fill:none;stroke:#c44e52;stroke-dasharray:4.5,1.875,2.25,1.875;stroke-dashoffset:0;stroke-width:1.5;"/>
   </g>
   <g id="line2d_5">
    <path clip-path="url(#p3d47d5f7d1)" d="M 134.975455 344.700365 
L 137.899145 346.453121 
L 140.822835 346.68906 
L 143.746525 347.896462 
L 146.670215 345.615544 
L 149.593905 352.40359 
L 152.517595 348.635518 
L 155.441285 351.353318 
L 158.364975 347.830473 
L 161.288665 350.53972 
L 164.212356 353.490626 
L 167.136046 352.488504 
L 170.059736 378.535496 
L 172.983426 387.742211 
L 175.907116 401.576035 
L 178.830806 443.636274 
L 181.754496 482.854501 
L 184.678186 437.383614 
L 187.601876 354.915953 
L 190.525567 403.793202 
L 193.449257 381.369219 
L 196.372947 388.30182 
L 199.296637 386.42896 
L 202.220327 301.644421 
L 205.144017 358.219841 
L 208.067707 460.748346 
L 210.991397 507.766605 
L 213.915087 437.889843 
L 216.838777 451.288796 
L 219.762468 453.947235 
L 222.686158 444.204243 
L 225.609848 422.414307 
L 228.533538 434.420605 
L 231.457228 463.831896 
L 234.380918 328.825025 
L 237.304608 396.831708 
L 240.228298 431.753631 
L 243.151988 373.577792 
L 246.075678 357.56932 
L 248.999369 403.690256 
L 251.923059 417.580397 
L 254.846749 380.612744 
L 257.770439 426.548724 
L 260.694129 423.073853 
L 263.617819 526.033469 
L 266.541509 442.38165 
L 269.465199 431.812747 
L 272.388889 452.308146 
L 275.312579 456.957152 
L 278.23627 430.477493 
L 281.15996 388.86741 
L 284.08365 305.212688 
L 287.00734 272.600349 
L 289.93103 309.469394 
L 292.85472 257.526418 
L 295.77841 288.001501 
L 298.7021 343.167684 
L 301.62579 334.993402 
L 304.549481 362.37166 
L 307.473171 317.070426 
L 310.396861 297.917871 
L 313.320551 287.487068 
L 316.244241 438.614277 
L 319.167931 470.984905 
L 322.091621 543.810578 
L 325.015311 467.205954 
L 327.939001 465.299234 
L 330.862691 399.746865 
L 333.786382 390.142673 
L 336.710072 430.916037 
L 339.633762 446.016203 
L 342.557452 379.724219 
L 345.481142 360.378032 
L 348.404832 388.45734 
L 351.328522 403.672836 
L 354.252212 453.669635 
L 357.175902 479.732018 
L 360.099592 456.041763 
L 363.023283 514.473934 
L 365.946973 400.223606 
L 368.870663 406.650746 
L 371.794353 304.375898 
L 374.718043 110.271193 
L 377.641733 71.684388 
L 380.565423 231.003471 
L 383.489113 252.334068 
L 386.412803 278.139385 
L 389.336494 348.956966 
L 392.260184 412.405223 
L 395.183874 433.510112 
L 398.107564 344.282704 
L 401.031254 371.970395 
L 403.954944 413.206088 
L 406.878634 426.205431 
L 409.802324 465.473853 
L 412.726014 445.185185 
L 415.649704 462.191897 
L 418.573395 380.366415 
L 421.497085 450.970619 
L 424.420775 482.007637 
L 427.344465 366.870218 
L 433.191845 466.275803 
L 436.115535 363.916636 
L 439.039225 405.811578 
L 441.962915 457.315872 
L 444.886605 402.311872 
L 447.810296 331.77434 
L 450.733986 337.906495 
L 453.657676 356.498129 
L 456.581366 401.018525 
L 459.505056 430.022405 
L 462.428746 447.440865 
L 465.352436 466.661946 
L 468.276126 397.335489 
L 471.199816 360.257789 
L 474.123506 367.072612 
L 477.047197 395.824601 
L 479.970887 323.454086 
L 482.894577 382.94524 
L 485.818267 433.668606 
L 488.741957 479.184163 
L 491.665647 481.190926 
L 494.589337 444.507869 
L 497.513027 467.266399 
L 500.436717 402.727364 
L 503.360408 329.254107 
L 506.284098 366.890121 
L 509.207788 423.956397 
L 512.131478 435.387205 
L 515.055168 372.753106 
L 517.978858 324.935888 
L 520.902548 401.373641 
L 523.826238 393.16987 
L 526.749928 369.251861 
L 529.673618 431.643409 
L 532.597309 394.492286 
L 535.520999 344.629408 
L 538.444689 320.609781 
L 541.368379 453.756105 
L 544.292069 465.127727 
L 547.215759 321.780822 
L 550.139449 377.226443 
L 553.063139 270.842276 
L 555.986829 369.022672 
L 558.910519 287.294556 
L 561.83421 234.176744 
L 564.7579 299.735602 
L 567.68159 263.69399 
L 570.60528 313.143598 
L 573.52897 347.007028 
L 576.45266 465.191041 
L 582.30004 363.95298 
L 585.22373 373.409854 
L 588.147421 349.972398 
L 591.071111 374.757945 
L 593.994801 405.58155 
L 596.918491 310.001351 
L 599.842181 322.318725 
L 602.765871 402.155022 
L 605.689561 346.866618 
L 608.613251 433.545337 
L 611.536941 487.550905 
L 614.460631 513.629204 
L 617.384322 454.501212 
L 620.308012 431.78144 
L 623.231702 460.099434 
L 626.155392 504.523232 
L 629.079082 421.624251 
L 632.002772 373.618229 
L 634.926462 308.978713 
L 637.850152 251.724176 
L 640.773842 279.450187 
L 643.697532 260.552373 
L 646.621223 333.755655 
L 649.544913 422.326263 
L 652.468603 507.418625 
L 655.392293 460.311867 
L 658.315983 335.125171 
L 661.239673 427.255738 
L 664.163363 393.591693 
L 667.087053 478.967007 
L 670.010743 485.277525 
L 672.934433 497.624422 
L 675.858124 532.915383 
L 678.781814 481.427075 
L 681.705504 480.072653 
L 684.629194 500.166902 
L 687.552884 414.362419 
L 690.476574 442.516182 
L 693.400264 403.047395 
L 696.323954 416.284426 
L 699.247644 391.797363 
L 702.171335 346.170448 
L 705.095025 341.610956 
L 708.018715 339.80057 
L 710.942405 342.827977 
L 713.866095 341.593151 
L 716.789785 342.916476 
L 719.713475 342.473123 
L 722.637165 340.333646 
L 725.560855 343.193622 
L 728.484545 341.246832 
L 728.484545 341.246832 
" style="fill:none;stroke:#8172b3;stroke-dasharray:7.5,1.5,1.5,1.5;stroke-dashoffset:0;stroke-width:1.5;"/>
   </g>
   <g id="line2d_6"/>
   <g id="line2d_7"/>
   <g id="line2d_8"/>
   <g id="line2d_9"/>
   <g id="line2d_10"/>
   <g id="patch_3">
    <path d="M 105.3 529.9416 
L 105.3 71.4528 
" style="fill:none;stroke:#262626;stroke-linecap:square;stroke-linejoin:miter;stroke-width:1.25;"/>
   </g>
   <g id="patch_4">
    <path d="M 758.16 529.9416 
L 758.16 71.4528 
" style="fill:none;stroke:#262626;stroke-linecap:square;stroke-linejoin:miter;stroke-width:1.25;"/>
   </g>
   <g id="patch_5">
    <path d="M 105.3 529.9416 
L 758.16 529.9416 
" style="fill:none;stroke:#262626;stroke-linecap:square;stroke-linejoin:miter;stroke-width:1.25;"/>
   </g>
   <g id="patch_6">
    <path d="M 105.3 71.4528 
L 758.16 71.4528 
" style="fill:none;stroke:#262626;stroke-linecap:square;stroke-linejoin:miter;stroke-width:1.25;"/>
   </g>
   <g id="text_16">
    <!-- Activations for &gt;'&lt; -->
    <g style="fill:#262626;" transform="translate(384.22875 65.4528)scale(0.12 -0.12)">
     <defs>
      <path d="M -9 0 
L 1750 4581 
L 2403 4581 
L 4278 0 
L 3588 0 
L 3053 1388 
L 1138 1388 
L 634 0 
L -9 0 
z
M 1313 1881 
L 2866 1881 
L 2388 3150 
Q 2169 3728 2063 4100 
Q 1975 3659 1816 3225 
L 1313 1881 
z
" id="ArialMT-41" transform="scale(0.015625)"/>
      <path d="M 2588 1216 
L 3141 1144 
Q 3050 572 2676 248 
Q 2303 -75 1759 -75 
Q 1078 -75 664 370 
Q 250 816 250 1647 
Q 250 2184 428 2587 
Q 606 2991 970 3192 
Q 1334 3394 1763 3394 
Q 2303 3394 2647 3120 
Q 2991 2847 3088 2344 
L 2541 2259 
Q 2463 2594 2264 2762 
Q 2066 2931 1784 2931 
Q 1359 2931 1093 2626 
Q 828 2322 828 1663 
Q 828 994 1084 691 
Q 1341 388 1753 388 
Q 2084 388 2306 591 
Q 2528 794 2588 1216 
z
" id="ArialMT-63" transform="scale(0.015625)"/>
      <path d="M 1650 503 
L 1731 6 
Q 1494 -44 1306 -44 
Q 1000 -44 831 53 
Q 663 150 594 308 
Q 525 466 525 972 
L 525 2881 
L 113 2881 
L 113 3319 
L 525 3319 
L 525 4141 
L 1084 4478 
L 1084 3319 
L 1650 3319 
L 1650 2881 
L 1084 2881 
L 1084 941 
Q 1084 700 1114 631 
Q 1144 563 1211 522 
Q 1278 481 1403 481 
Q 1497 481 1650 503 
z
" id="ArialMT-74" transform="scale(0.015625)"/>
      <path d="M 425 3934 
L 425 4581 
L 988 4581 
L 988 3934 
L 425 3934 
z
M 425 0 
L 425 3319 
L 988 3319 
L 988 0 
L 425 0 
z
" id="ArialMT-69" transform="scale(0.015625)"/>
      <path d="M 1344 0 
L 81 3319 
L 675 3319 
L 1388 1331 
Q 1503 1009 1600 663 
Q 1675 925 1809 1294 
L 2547 3319 
L 3125 3319 
L 1869 0 
L 1344 0 
z
" id="ArialMT-76" transform="scale(0.015625)"/>
      <path d="M 2588 409 
Q 2275 144 1986 34 
Q 1697 -75 1366 -75 
Q 819 -75 525 192 
Q 231 459 231 875 
Q 231 1119 342 1320 
Q 453 1522 633 1644 
Q 813 1766 1038 1828 
Q 1203 1872 1538 1913 
Q 2219 1994 2541 2106 
Q 2544 2222 2544 2253 
Q 2544 2597 2384 2738 
Q 2169 2928 1744 2928 
Q 1347 2928 1158 2789 
Q 969 2650 878 2297 
L 328 2372 
Q 403 2725 575 2942 
Q 747 3159 1072 3276 
Q 1397 3394 1825 3394 
Q 2250 3394 2515 3294 
Q 2781 3194 2906 3042 
Q 3031 2891 3081 2659 
Q 3109 2516 3109 2141 
L 3109 1391 
Q 3109 606 3145 398 
Q 3181 191 3288 0 
L 2700 0 
Q 2613 175 2588 409 
z
M 2541 1666 
Q 2234 1541 1622 1453 
Q 1275 1403 1131 1340 
Q 988 1278 909 1158 
Q 831 1038 831 891 
Q 831 666 1001 516 
Q 1172 366 1500 366 
Q 1825 366 2078 508 
Q 2331 650 2450 897 
Q 2541 1088 2541 1459 
L 2541 1666 
z
" id="ArialMT-61" transform="scale(0.015625)"/>
      <path d="M 213 1659 
Q 213 2581 725 3025 
Q 1153 3394 1769 3394 
Q 2453 3394 2887 2945 
Q 3322 2497 3322 1706 
Q 3322 1066 3130 698 
Q 2938 331 2570 128 
Q 2203 -75 1769 -75 
Q 1072 -75 642 372 
Q 213 819 213 1659 
z
M 791 1659 
Q 791 1022 1069 705 
Q 1347 388 1769 388 
Q 2188 388 2466 706 
Q 2744 1025 2744 1678 
Q 2744 2294 2464 2611 
Q 2184 2928 1769 2928 
Q 1347 2928 1069 2612 
Q 791 2297 791 1659 
z
" id="ArialMT-6f" transform="scale(0.015625)"/>
      <path d="M 422 0 
L 422 3319 
L 928 3319 
L 928 2847 
Q 1294 3394 1984 3394 
Q 2284 3394 2536 3286 
Q 2788 3178 2913 3003 
Q 3038 2828 3088 2588 
Q 3119 2431 3119 2041 
L 3119 0 
L 2556 0 
L 2556 2019 
Q 2556 2363 2490 2533 
Q 2425 2703 2258 2804 
Q 2091 2906 1866 2906 
Q 1506 2906 1245 2678 
Q 984 2450 984 1813 
L 984 0 
L 422 0 
z
" id="ArialMT-6e" transform="scale(0.015625)"/>
      <path d="M 197 991 
L 753 1078 
Q 800 744 1014 566 
Q 1228 388 1613 388 
Q 2000 388 2187 545 
Q 2375 703 2375 916 
Q 2375 1106 2209 1216 
Q 2094 1291 1634 1406 
Q 1016 1563 777 1677 
Q 538 1791 414 1992 
Q 291 2194 291 2438 
Q 291 2659 392 2848 
Q 494 3038 669 3163 
Q 800 3259 1026 3326 
Q 1253 3394 1513 3394 
Q 1903 3394 2198 3281 
Q 2494 3169 2634 2976 
Q 2775 2784 2828 2463 
L 2278 2388 
Q 2241 2644 2061 2787 
Q 1881 2931 1553 2931 
Q 1166 2931 1000 2803 
Q 834 2675 834 2503 
Q 834 2394 903 2306 
Q 972 2216 1119 2156 
Q 1203 2125 1616 2013 
Q 2213 1853 2448 1751 
Q 2684 1650 2818 1456 
Q 2953 1263 2953 975 
Q 2953 694 2789 445 
Q 2625 197 2315 61 
Q 2006 -75 1616 -75 
Q 969 -75 630 194 
Q 291 463 197 991 
z
" id="ArialMT-73" transform="scale(0.015625)"/>
      <path id="ArialMT-20" transform="scale(0.015625)"/>
      <path d="M 556 0 
L 556 2881 
L 59 2881 
L 59 3319 
L 556 3319 
L 556 3672 
Q 556 4006 616 4169 
Q 697 4388 901 4523 
Q 1106 4659 1475 4659 
Q 1713 4659 2000 4603 
L 1916 4113 
Q 1741 4144 1584 4144 
Q 1328 4144 1222 4034 
Q 1116 3925 1116 3625 
L 1116 3319 
L 1763 3319 
L 1763 2881 
L 1116 2881 
L 1116 0 
L 556 0 
z
" id="ArialMT-66" transform="scale(0.015625)"/>
      <path d="M 416 0 
L 416 3319 
L 922 3319 
L 922 2816 
Q 1116 3169 1280 3281 
Q 1444 3394 1641 3394 
Q 1925 3394 2219 3213 
L 2025 2691 
Q 1819 2813 1613 2813 
Q 1428 2813 1281 2702 
Q 1134 2591 1072 2394 
Q 978 2094 978 1738 
L 978 0 
L 416 0 
z
" id="ArialMT-72" transform="scale(0.015625)"/>
      <path d="M 3384 2003 
L 350 706 
L 350 1266 
L 2753 2263 
L 350 3250 
L 350 3809 
L 3384 2528 
L 3384 2003 
z
" id="ArialMT-3e" transform="scale(0.015625)"/>
      <path d="M 425 2959 
L 281 3816 
L 281 4581 
L 922 4581 
L 922 3816 
L 772 2959 
L 425 2959 
z
" id="ArialMT-27" transform="scale(0.015625)"/>
      <path d="M 350 2003 
L 350 2528 
L 3384 3809 
L 3384 3250 
L 978 2263 
L 3384 1266 
L 3384 706 
L 350 2003 
z
" id="ArialMT-3c" transform="scale(0.015625)"/>
     </defs>
     <use xlink:href="#ArialMT-41"/>
     <use x="66.699219" xlink:href="#ArialMT-63"/>
     <use x="116.699219" xlink:href="#ArialMT-74"/>
     <use x="144.482422" xlink:href="#ArialMT-69"/>
     <use x="166.699219" xlink:href="#ArialMT-76"/>
     <use x="216.699219" xlink:href="#ArialMT-61"/>
     <use x="272.314453" xlink:href="#ArialMT-74"/>
     <use x="300.097656" xlink:href="#ArialMT-69"/>
     <use x="322.314453" xlink:href="#ArialMT-6f"/>
     <use x="377.929688" xlink:href="#ArialMT-6e"/>
     <use x="433.544922" xlink:href="#ArialMT-73"/>
     <use x="483.544922" xlink:href="#ArialMT-20"/>
     <use x="511.328125" xlink:href="#ArialMT-66"/>
     <use x="539.111328" xlink:href="#ArialMT-6f"/>
     <use x="594.726562" xlink:href="#ArialMT-72"/>
     <use x="628.027344" xlink:href="#ArialMT-20"/>
     <use x="655.810547" xlink:href="#ArialMT-3e"/>
     <use x="714.208984" xlink:href="#ArialMT-27"/>
     <use x="733.300781" xlink:href="#ArialMT-3c"/>
    </g>
   </g>
   <g id="legend_1">
    <g id="patch_7">
     <path d="M 640.044062 158.514363 
L 750.46 158.514363 
Q 752.66 158.514363 752.66 156.314363 
L 752.66 79.1528 
Q 752.66 76.9528 750.46 76.9528 
L 640.044062 76.9528 
Q 637.844062 76.9528 637.844062 79.1528 
L 637.844062 156.314363 
Q 637.844062 158.514363 640.044062 158.514363 
z
" style="fill:#ffffff;opacity:0.8;stroke:#cccccc;stroke-linejoin:miter;"/>
    </g>
    <g id="line2d_11">
     <path d="M 642.244062 85.376394 
L 664.244062 85.376394 
" style="fill:none;stroke:#4c72b0;stroke-linecap:round;stroke-width:1.5;"/>
    </g>
    <g id="line2d_12"/>
    <g id="text_17">
     <!-- regular -->
     <g style="fill:#262626;" transform="translate(673.044062 89.226394)scale(0.11 -0.11)">
      <defs>
       <path d="M 2694 1069 
L 3275 997 
Q 3138 488 2766 206 
Q 2394 -75 1816 -75 
Q 1088 -75 661 373 
Q 234 822 234 1631 
Q 234 2469 665 2931 
Q 1097 3394 1784 3394 
Q 2450 3394 2872 2941 
Q 3294 2488 3294 1666 
Q 3294 1616 3291 1516 
L 816 1516 
Q 847 969 1125 678 
Q 1403 388 1819 388 
Q 2128 388 2347 550 
Q 2566 713 2694 1069 
z
M 847 1978 
L 2700 1978 
Q 2663 2397 2488 2606 
Q 2219 2931 1791 2931 
Q 1403 2931 1139 2672 
Q 875 2413 847 1978 
z
" id="ArialMT-65" transform="scale(0.015625)"/>
       <path d="M 319 -275 
L 866 -356 
Q 900 -609 1056 -725 
Q 1266 -881 1628 -881 
Q 2019 -881 2231 -725 
Q 2444 -569 2519 -288 
Q 2563 -116 2559 434 
Q 2191 0 1641 0 
Q 956 0 581 494 
Q 206 988 206 1678 
Q 206 2153 378 2554 
Q 550 2956 876 3175 
Q 1203 3394 1644 3394 
Q 2231 3394 2613 2919 
L 2613 3319 
L 3131 3319 
L 3131 450 
Q 3131 -325 2973 -648 
Q 2816 -972 2473 -1159 
Q 2131 -1347 1631 -1347 
Q 1038 -1347 672 -1080 
Q 306 -813 319 -275 
z
M 784 1719 
Q 784 1066 1043 766 
Q 1303 466 1694 466 
Q 2081 466 2343 764 
Q 2606 1063 2606 1700 
Q 2606 2309 2336 2618 
Q 2066 2928 1684 2928 
Q 1309 2928 1046 2623 
Q 784 2319 784 1719 
z
" id="ArialMT-67" transform="scale(0.015625)"/>
       <path d="M 2597 0 
L 2597 488 
Q 2209 -75 1544 -75 
Q 1250 -75 995 37 
Q 741 150 617 320 
Q 494 491 444 738 
Q 409 903 409 1263 
L 409 3319 
L 972 3319 
L 972 1478 
Q 972 1038 1006 884 
Q 1059 663 1231 536 
Q 1403 409 1656 409 
Q 1909 409 2131 539 
Q 2353 669 2445 892 
Q 2538 1116 2538 1541 
L 2538 3319 
L 3100 3319 
L 3100 0 
L 2597 0 
z
" id="ArialMT-75" transform="scale(0.015625)"/>
       <path d="M 409 0 
L 409 4581 
L 972 4581 
L 972 0 
L 409 0 
z
" id="ArialMT-6c" transform="scale(0.015625)"/>
      </defs>
      <use xlink:href="#ArialMT-72"/>
      <use x="33.300781" xlink:href="#ArialMT-65"/>
      <use x="88.916016" xlink:href="#ArialMT-67"/>
      <use x="144.53125" xlink:href="#ArialMT-75"/>
      <use x="200.146484" xlink:href="#ArialMT-6c"/>
      <use x="222.363281" xlink:href="#ArialMT-61"/>
      <use x="277.978516" xlink:href="#ArialMT-72"/>
     </g>
    </g>
    <g id="line2d_13">
     <path d="M 642.244062 101.0978 
L 664.244062 101.0978 
" style="fill:none;stroke:#dd8452;stroke-dasharray:6,2.25;stroke-dashoffset:0;stroke-width:1.5;"/>
    </g>
    <g id="line2d_14"/>
    <g id="text_18">
     <!-- splitted_3s -->
     <g style="fill:#262626;" transform="translate(673.044062 104.9478)scale(0.11 -0.11)">
      <defs>
       <path d="M 422 -1272 
L 422 3319 
L 934 3319 
L 934 2888 
Q 1116 3141 1344 3267 
Q 1572 3394 1897 3394 
Q 2322 3394 2647 3175 
Q 2972 2956 3137 2557 
Q 3303 2159 3303 1684 
Q 3303 1175 3120 767 
Q 2938 359 2589 142 
Q 2241 -75 1856 -75 
Q 1575 -75 1351 44 
Q 1128 163 984 344 
L 984 -1272 
L 422 -1272 
z
M 931 1641 
Q 931 1000 1190 694 
Q 1450 388 1819 388 
Q 2194 388 2461 705 
Q 2728 1022 2728 1688 
Q 2728 2322 2467 2637 
Q 2206 2953 1844 2953 
Q 1484 2953 1207 2617 
Q 931 2281 931 1641 
z
" id="ArialMT-70" transform="scale(0.015625)"/>
       <path d="M 2575 0 
L 2575 419 
Q 2259 -75 1647 -75 
Q 1250 -75 917 144 
Q 584 363 401 755 
Q 219 1147 219 1656 
Q 219 2153 384 2558 
Q 550 2963 881 3178 
Q 1213 3394 1622 3394 
Q 1922 3394 2156 3267 
Q 2391 3141 2538 2938 
L 2538 4581 
L 3097 4581 
L 3097 0 
L 2575 0 
z
M 797 1656 
Q 797 1019 1065 703 
Q 1334 388 1700 388 
Q 2069 388 2326 689 
Q 2584 991 2584 1609 
Q 2584 2291 2321 2609 
Q 2059 2928 1675 2928 
Q 1300 2928 1048 2622 
Q 797 2316 797 1656 
z
" id="ArialMT-64" transform="scale(0.015625)"/>
       <path d="M -97 -1272 
L -97 -866 
L 3631 -866 
L 3631 -1272 
L -97 -1272 
z
" id="ArialMT-5f" transform="scale(0.015625)"/>
       <path d="M 269 1209 
L 831 1284 
Q 928 806 1161 595 
Q 1394 384 1728 384 
Q 2125 384 2398 659 
Q 2672 934 2672 1341 
Q 2672 1728 2419 1979 
Q 2166 2231 1775 2231 
Q 1616 2231 1378 2169 
L 1441 2663 
Q 1497 2656 1531 2656 
Q 1891 2656 2178 2843 
Q 2466 3031 2466 3422 
Q 2466 3731 2256 3934 
Q 2047 4138 1716 4138 
Q 1388 4138 1169 3931 
Q 950 3725 888 3313 
L 325 3413 
Q 428 3978 793 4289 
Q 1159 4600 1703 4600 
Q 2078 4600 2393 4439 
Q 2709 4278 2876 4000 
Q 3044 3722 3044 3409 
Q 3044 3113 2884 2869 
Q 2725 2625 2413 2481 
Q 2819 2388 3044 2092 
Q 3269 1797 3269 1353 
Q 3269 753 2831 336 
Q 2394 -81 1725 -81 
Q 1122 -81 723 278 
Q 325 638 269 1209 
z
" id="ArialMT-33" transform="scale(0.015625)"/>
      </defs>
      <use xlink:href="#ArialMT-73"/>
      <use x="50" xlink:href="#ArialMT-70"/>
      <use x="105.615234" xlink:href="#ArialMT-6c"/>
      <use x="127.832031" xlink:href="#ArialMT-69"/>
      <use x="150.048828" xlink:href="#ArialMT-74"/>
      <use x="177.832031" xlink:href="#ArialMT-74"/>
      <use x="205.615234" xlink:href="#ArialMT-65"/>
      <use x="261.230469" xlink:href="#ArialMT-64"/>
      <use x="316.845703" xlink:href="#ArialMT-5f"/>
      <use x="372.460938" xlink:href="#ArialMT-33"/>
      <use x="428.076172" xlink:href="#ArialMT-73"/>
     </g>
    </g>
    <g id="line2d_15">
     <path d="M 642.244062 116.6903 
L 664.244062 116.6903 
" style="fill:none;stroke:#55a868;stroke-dasharray:1.5,1.5;stroke-dashoffset:0;stroke-width:1.5;"/>
    </g>
    <g id="line2d_16"/>
    <g id="text_19">
     <!-- splitted_1s -->
     <g style="fill:#262626;" transform="translate(673.044062 120.5403)scale(0.11 -0.11)">
      <use xlink:href="#ArialMT-73"/>
      <use x="50" xlink:href="#ArialMT-70"/>
      <use x="105.615234" xlink:href="#ArialMT-6c"/>
      <use x="127.832031" xlink:href="#ArialMT-69"/>
      <use x="150.048828" xlink:href="#ArialMT-74"/>
      <use x="177.832031" xlink:href="#ArialMT-74"/>
      <use x="205.615234" xlink:href="#ArialMT-65"/>
      <use x="261.230469" xlink:href="#ArialMT-64"/>
      <use x="316.845703" xlink:href="#ArialMT-5f"/>
      <use x="372.460938" xlink:href="#ArialMT-31"/>
      <use x="428.076172" xlink:href="#ArialMT-73"/>
     </g>
    </g>
    <g id="line2d_17">
     <path d="M 642.244062 132.384206 
L 664.244062 132.384206 
" style="fill:none;stroke:#c44e52;stroke-dasharray:4.5,1.875,2.25,1.875;stroke-dashoffset:0;stroke-width:1.5;"/>
    </g>
    <g id="line2d_18"/>
    <g id="text_20">
     <!-- overlap_1f_3s -->
     <g style="fill:#262626;" transform="translate(673.044062 136.234206)scale(0.11 -0.11)">
      <use xlink:href="#ArialMT-6f"/>
      <use x="55.615234" xlink:href="#ArialMT-76"/>
      <use x="105.615234" xlink:href="#ArialMT-65"/>
      <use x="161.230469" xlink:href="#ArialMT-72"/>
      <use x="194.53125" xlink:href="#ArialMT-6c"/>
      <use x="216.748047" xlink:href="#ArialMT-61"/>
      <use x="272.363281" xlink:href="#ArialMT-70"/>
      <use x="327.978516" xlink:href="#ArialMT-5f"/>
      <use x="383.59375" xlink:href="#ArialMT-31"/>
      <use x="439.208984" xlink:href="#ArialMT-66"/>
      <use x="466.992188" xlink:href="#ArialMT-5f"/>
      <use x="522.607422" xlink:href="#ArialMT-33"/>
      <use x="578.222656" xlink:href="#ArialMT-73"/>
     </g>
    </g>
    <g id="line2d_19">
     <path d="M 642.244062 148.078113 
L 664.244062 148.078113 
" style="fill:none;stroke:#8172b3;stroke-dasharray:7.5,1.5,1.5,1.5;stroke-dashoffset:0;stroke-width:1.5;"/>
    </g>
    <g id="line2d_20"/>
    <g id="text_21">
     <!-- overlap_10f_3s -->
     <g style="fill:#262626;" transform="translate(673.044062 151.928112)scale(0.11 -0.11)">
      <use xlink:href="#ArialMT-6f"/>
      <use x="55.615234" xlink:href="#ArialMT-76"/>
      <use x="105.615234" xlink:href="#ArialMT-65"/>
      <use x="161.230469" xlink:href="#ArialMT-72"/>
      <use x="194.53125" xlink:href="#ArialMT-6c"/>
      <use x="216.748047" xlink:href="#ArialMT-61"/>
      <use x="272.363281" xlink:href="#ArialMT-70"/>
      <use x="327.978516" xlink:href="#ArialMT-5f"/>
      <use x="383.59375" xlink:href="#ArialMT-31"/>
      <use x="439.208984" xlink:href="#ArialMT-30"/>
      <use x="494.824219" xlink:href="#ArialMT-66"/>
      <use x="522.607422" xlink:href="#ArialMT-5f"/>
      <use x="578.222656" xlink:href="#ArialMT-33"/>
      <use x="633.837891" xlink:href="#ArialMT-73"/>
     </g>
    </g>
   </g>
  </g>
 </g>
 <defs>
  <clipPath id="p3d47d5f7d1">
   <rect height="458.4888" width="652.86" x="105.3" y="71.4528"/>
  </clipPath>
 </defs>
</svg>
