<?xml version="1.0" encoding="utf-8" standalone="no"?>
<!DOCTYPE svg PUBLIC "-//W3C//DTD SVG 1.1//EN"
  "http://www.w3.org/Graphics/SVG/1.1/DTD/svg11.dtd">
<svg height="595.44pt" version="1.1" viewBox="0 0 842.4 595.44" width="842.4pt" xmlns="http://www.w3.org/2000/svg" xmlns:xlink="http://www.w3.org/1999/xlink">
 <metadata>
  <rdf:RDF xmlns:cc="http://creativecommons.org/ns#" xmlns:dc="http://purl.org/dc/elements/1.1/" xmlns:rdf="http://www.w3.org/1999/02/22-rdf-syntax-ns#">
   <cc:Work>
    <dc:type rdf:resource="http://purl.org/dc/dcmitype/StillImage"/>
    <dc:date>2021-06-01T00:54:11.749265</dc:date>
    <dc:format>image/svg+xml</dc:format>
    <dc:creator>
     <cc:Agent>
      <dc:title>Matplotlib v3.4.1, https://matplotlib.org/</dc:title>
     </cc:Agent>
    </dc:creator>
   </cc:Work>
  </rdf:RDF>
 </metadata>
 <defs>
  <style type="text/css">*{stroke-linecap:butt;stroke-linejoin:round;}</style>
 </defs>
 <g id="figure_1">
  <g id="patch_1">
   <path d="M 0 595.44 
L 842.4 595.44 
L 842.4 0 
L 0 0 
z
" style="fill:#ffffff;"/>
  </g>
  <g id="axes_1">
   <g id="patch_2">
    <path d="M 105.3 529.9416 
L 758.16 529.9416 
L 758.16 71.4528 
L 105.3 71.4528 
z
" style="fill:#ffffff;"/>
   </g>
   <g id="matplotlib.axis_1">
    <g id="xtick_1">
     <g id="text_1">
      <!-- 0 -->
      <g style="fill:#262626;" transform="translate(131.916939 547.315194)scale(0.11 -0.11)">
       <defs>
        <path d="M 266 2259 
Q 266 3072 433 3567 
Q 600 4063 929 4331 
Q 1259 4600 1759 4600 
Q 2128 4600 2406 4451 
Q 2684 4303 2865 4023 
Q 3047 3744 3150 3342 
Q 3253 2941 3253 2259 
Q 3253 1453 3087 958 
Q 2922 463 2592 192 
Q 2263 -78 1759 -78 
Q 1097 -78 719 397 
Q 266 969 266 2259 
z
M 844 2259 
Q 844 1131 1108 757 
Q 1372 384 1759 384 
Q 2147 384 2411 759 
Q 2675 1134 2675 2259 
Q 2675 3391 2411 3762 
Q 2147 4134 1753 4134 
Q 1366 4134 1134 3806 
Q 844 3388 844 2259 
z
" id="ArialMT-30" transform="scale(0.015625)"/>
       </defs>
       <use xlink:href="#ArialMT-30"/>
      </g>
     </g>
    </g>
    <g id="xtick_2">
     <g id="text_2">
      <!-- 25 -->
      <g style="fill:#262626;" transform="translate(201.950676 547.315194)scale(0.11 -0.11)">
       <defs>
        <path d="M 3222 541 
L 3222 0 
L 194 0 
Q 188 203 259 391 
Q 375 700 629 1000 
Q 884 1300 1366 1694 
Q 2113 2306 2375 2664 
Q 2638 3022 2638 3341 
Q 2638 3675 2398 3904 
Q 2159 4134 1775 4134 
Q 1369 4134 1125 3890 
Q 881 3647 878 3216 
L 300 3275 
Q 359 3922 746 4261 
Q 1134 4600 1788 4600 
Q 2447 4600 2831 4234 
Q 3216 3869 3216 3328 
Q 3216 3053 3103 2787 
Q 2991 2522 2730 2228 
Q 2469 1934 1863 1422 
Q 1356 997 1212 845 
Q 1069 694 975 541 
L 3222 541 
z
" id="ArialMT-32" transform="scale(0.015625)"/>
        <path d="M 266 1200 
L 856 1250 
Q 922 819 1161 601 
Q 1400 384 1738 384 
Q 2144 384 2425 690 
Q 2706 997 2706 1503 
Q 2706 1984 2436 2262 
Q 2166 2541 1728 2541 
Q 1456 2541 1237 2417 
Q 1019 2294 894 2097 
L 366 2166 
L 809 4519 
L 3088 4519 
L 3088 3981 
L 1259 3981 
L 1013 2750 
Q 1425 3038 1878 3038 
Q 2478 3038 2890 2622 
Q 3303 2206 3303 1553 
Q 3303 931 2941 478 
Q 2500 -78 1738 -78 
Q 1113 -78 717 272 
Q 322 622 266 1200 
z
" id="ArialMT-35" transform="scale(0.015625)"/>
       </defs>
       <use xlink:href="#ArialMT-32"/>
       <use x="55.615234" xlink:href="#ArialMT-35"/>
      </g>
     </g>
    </g>
    <g id="xtick_3">
     <g id="text_3">
      <!-- 50 -->
      <g style="fill:#262626;" transform="translate(275.042928 547.315194)scale(0.11 -0.11)">
       <use xlink:href="#ArialMT-35"/>
       <use x="55.615234" xlink:href="#ArialMT-30"/>
      </g>
     </g>
    </g>
    <g id="xtick_4">
     <g id="text_4">
      <!-- 75 -->
      <g style="fill:#262626;" transform="translate(348.135181 547.315194)scale(0.11 -0.11)">
       <defs>
        <path d="M 303 3981 
L 303 4522 
L 3269 4522 
L 3269 4084 
Q 2831 3619 2401 2847 
Q 1972 2075 1738 1259 
Q 1569 684 1522 0 
L 944 0 
Q 953 541 1156 1306 
Q 1359 2072 1739 2783 
Q 2119 3494 2547 3981 
L 303 3981 
z
" id="ArialMT-37" transform="scale(0.015625)"/>
       </defs>
       <use xlink:href="#ArialMT-37"/>
       <use x="55.615234" xlink:href="#ArialMT-35"/>
      </g>
     </g>
    </g>
    <g id="xtick_5">
     <g id="text_5">
      <!-- 100 -->
      <g style="fill:#262626;" transform="translate(418.168918 547.315194)scale(0.11 -0.11)">
       <defs>
        <path d="M 2384 0 
L 1822 0 
L 1822 3584 
Q 1619 3391 1289 3197 
Q 959 3003 697 2906 
L 697 3450 
Q 1169 3672 1522 3987 
Q 1875 4303 2022 4600 
L 2384 4600 
L 2384 0 
z
" id="ArialMT-31" transform="scale(0.015625)"/>
       </defs>
       <use xlink:href="#ArialMT-31"/>
       <use x="55.615234" xlink:href="#ArialMT-30"/>
       <use x="111.230469" xlink:href="#ArialMT-30"/>
      </g>
     </g>
    </g>
    <g id="xtick_6">
     <g id="text_6">
      <!-- 125 -->
      <g style="fill:#262626;" transform="translate(491.261171 547.315194)scale(0.11 -0.11)">
       <use xlink:href="#ArialMT-31"/>
       <use x="55.615234" xlink:href="#ArialMT-32"/>
       <use x="111.230469" xlink:href="#ArialMT-35"/>
      </g>
     </g>
    </g>
    <g id="xtick_7">
     <g id="text_7">
      <!-- 150 -->
      <g style="fill:#262626;" transform="translate(564.353423 547.315194)scale(0.11 -0.11)">
       <use xlink:href="#ArialMT-31"/>
       <use x="55.615234" xlink:href="#ArialMT-35"/>
       <use x="111.230469" xlink:href="#ArialMT-30"/>
      </g>
     </g>
    </g>
    <g id="xtick_8">
     <g id="text_8">
      <!-- 175 -->
      <g style="fill:#262626;" transform="translate(637.445676 547.315194)scale(0.11 -0.11)">
       <use xlink:href="#ArialMT-31"/>
       <use x="55.615234" xlink:href="#ArialMT-37"/>
       <use x="111.230469" xlink:href="#ArialMT-35"/>
      </g>
     </g>
    </g>
    <g id="xtick_9">
     <g id="text_9">
      <!-- 200 -->
      <g style="fill:#262626;" transform="translate(710.537928 547.315194)scale(0.11 -0.11)">
       <use xlink:href="#ArialMT-32"/>
       <use x="55.615234" xlink:href="#ArialMT-30"/>
       <use x="111.230469" xlink:href="#ArialMT-30"/>
      </g>
     </g>
    </g>
   </g>
   <g id="matplotlib.axis_2">
    <g id="ytick_1">
     <g id="text_10">
      <!-- −25 -->
      <g style="fill:#262626;" transform="translate(77.14125 533.878397)scale(0.11 -0.11)">
       <defs>
        <path d="M 3381 1997 
L 356 1997 
L 356 2522 
L 3381 2522 
L 3381 1997 
z
" id="ArialMT-2212" transform="scale(0.015625)"/>
       </defs>
       <use xlink:href="#ArialMT-2212"/>
       <use x="58.398438" xlink:href="#ArialMT-32"/>
       <use x="114.013672" xlink:href="#ArialMT-35"/>
      </g>
     </g>
    </g>
    <g id="ytick_2">
     <g id="text_11">
      <!-- −20 -->
      <g style="fill:#262626;" transform="translate(77.14125 442.180637)scale(0.11 -0.11)">
       <use xlink:href="#ArialMT-2212"/>
       <use x="58.398438" xlink:href="#ArialMT-32"/>
       <use x="114.013672" xlink:href="#ArialMT-30"/>
      </g>
     </g>
    </g>
    <g id="ytick_3">
     <g id="text_12">
      <!-- −15 -->
      <g style="fill:#262626;" transform="translate(77.14125 350.482877)scale(0.11 -0.11)">
       <use xlink:href="#ArialMT-2212"/>
       <use x="58.398438" xlink:href="#ArialMT-31"/>
       <use x="114.013672" xlink:href="#ArialMT-35"/>
      </g>
     </g>
    </g>
    <g id="ytick_4">
     <g id="text_13">
      <!-- −10 -->
      <g style="fill:#262626;" transform="translate(77.14125 258.785117)scale(0.11 -0.11)">
       <use xlink:href="#ArialMT-2212"/>
       <use x="58.398438" xlink:href="#ArialMT-31"/>
       <use x="114.013672" xlink:href="#ArialMT-30"/>
      </g>
     </g>
    </g>
    <g id="ytick_5">
     <g id="text_14">
      <!-- −5 -->
      <g style="fill:#262626;" transform="translate(83.258281 167.087357)scale(0.11 -0.11)">
       <use xlink:href="#ArialMT-2212"/>
       <use x="58.398438" xlink:href="#ArialMT-35"/>
      </g>
     </g>
    </g>
    <g id="ytick_6">
     <g id="text_15">
      <!-- 0 -->
      <g style="fill:#262626;" transform="translate(89.682969 75.389597)scale(0.11 -0.11)">
       <use xlink:href="#ArialMT-30"/>
      </g>
     </g>
    </g>
   </g>
   <g id="line2d_1">
    <path clip-path="url(#pf1c5a30efd)" d="M 134.975455 558.112258 
L 137.899145 558.995012 
L 140.822835 560.021637 
L 143.746525 560.000125 
L 146.670215 560.86119 
L 149.593905 562.79614 
L 152.517595 563.423714 
L 158.364975 568.236252 
L 161.288665 569.445367 
L 164.212356 572.06204 
L 167.136046 575.940754 
L 169.828093 596.44 
M 185.421993 596.44 
L 187.601876 544.083212 
L 189.965271 596.44 
M 201.585934 596.44 
L 202.220327 581.858342 
L 205.144017 568.107805 
L 206.095841 596.44 
M 209.710193 596.44 
L 210.991397 550.655624 
L 213.915087 575.17207 
L 215.887417 596.44 
M 221.189597 596.44 
L 222.686158 585.381554 
L 225.609848 566.176284 
L 228.114854 596.44 
M 232.022316 596.44 
L 234.380918 514.465994 
L 238.101908 596.44 
M 243.276723 596.44 
L 246.075678 491.737441 
L 248.999369 481.684947 
L 251.923059 573.773188 
L 254.846749 565.04185 
L 257.770439 594.424038 
L 260.694129 524.26338 
L 262.510121 596.44 
M 264.981278 596.44 
L 266.541509 546.060872 
L 269.465199 533.333743 
L 272.388889 550.47023 
L 275.312579 568.69211 
L 278.23627 573.600107 
L 281.15996 561.057987 
L 284.08365 530.898721 
L 287.00734 542.57925 
L 289.93103 582.927538 
L 292.85472 534.491718 
L 295.77841 517.569797 
L 298.7021 575.648322 
L 301.62579 578.663905 
L 304.549481 546.346832 
L 307.473171 522.451595 
L 310.396861 545.255739 
L 313.320551 511.192188 
L 316.244241 547.46612 
L 319.167931 524.191006 
L 322.091621 542.914393 
L 325.015311 509.426682 
L 327.939001 545.507524 
L 330.862691 578.360804 
L 333.786382 548.40617 
L 336.710072 512.812213 
L 339.633762 570.672043 
L 342.557452 592.155276 
L 345.481142 521.190953 
L 348.404832 489.226618 
L 351.328522 475.215936 
L 354.252212 552.40441 
L 357.175902 540.534849 
L 360.099592 526.818663 
L 362.726235 596.44 
M 363.29749 596.44 
L 365.946973 520.363678 
L 368.870663 517.470909 
L 371.794353 535.518763 
L 374.904002 596.44 
M 382.008837 596.44 
L 383.489113 550.585209 
L 386.412803 534.272044 
L 389.336494 575.098822 
L 392.260184 547.399448 
L 395.183874 563.853792 
L 398.107564 514.007092 
L 401.031254 489.743271 
L 403.954944 493.78667 
L 406.878634 541.822949 
L 409.802324 500.507292 
L 412.726014 484.327575 
L 415.649704 567.884598 
L 418.573395 543.66842 
L 421.497085 583.277407 
L 422.022677 596.44 
M 432.778599 596.44 
L 433.191845 593.436835 
L 436.115535 523.888815 
L 439.039225 538.651845 
L 441.962915 589.950351 
L 444.886605 583.694088 
L 447.810296 503.278856 
L 450.733986 465.51415 
L 453.657676 533.007695 
L 456.581366 515.967507 
L 458.258509 596.44 
M 461.021784 596.44 
L 462.428746 540.956847 
L 465.352436 554.852025 
L 468.276126 534.867402 
L 471.199816 531.823974 
L 473.671118 596.44 
M 474.598581 596.44 
L 477.047197 535.474409 
L 479.970887 456.305756 
L 482.894577 579.242718 
L 485.818267 583.867203 
L 488.741957 584.737259 
L 491.665647 540.584066 
L 494.589337 535.953109 
L 496.584335 596.44 
M 498.360956 596.44 
L 500.436717 527.509866 
L 503.360408 458.071473 
L 506.284098 547.873881 
L 507.743213 596.44 
M 515.838008 596.44 
L 517.978858 524.128252 
L 520.902548 574.850919 
L 523.826238 589.849364 
L 526.749928 547.017048 
L 529.397764 596.44 
M 534.127376 596.44 
L 535.520999 551.015252 
L 538.444689 528.804578 
L 541.368379 592.802684 
L 542.183397 596.44 
M 544.717829 596.44 
L 547.215759 541.227416 
L 550.139449 581.418504 
L 553.063139 486.027879 
L 555.986829 554.188316 
L 558.910519 529.780657 
L 561.83421 533.231776 
L 564.7579 548.384133 
L 567.68159 509.021334 
L 570.60528 514.953439 
L 573.52897 504.731957 
L 576.45266 484.743451 
L 579.37635 523.746446 
L 582.30004 537.786372 
L 585.22373 532.454872 
L 588.147421 522.348019 
L 591.071111 518.269745 
L 593.994801 538.423706 
L 596.918491 469.341478 
L 599.842181 526.152155 
L 602.765871 519.288815 
L 605.689561 527.19809 
L 608.613251 516.38961 
L 611.536941 596.053403 
L 611.758127 596.44 
M 614.553172 596.44 
L 617.384322 451.930363 
L 620.308012 486.486081 
L 623.231702 551.103297 
L 625.490093 596.44 
M 628.03652 596.44 
L 629.079082 589.03797 
L 632.002772 565.013552 
L 634.926462 538.655518 
L 637.850152 574.454982 
L 640.773842 504.939528 
L 643.697532 447.702655 
L 646.621223 492.110572 
L 649.544913 510.375687 
L 652.468603 579.219072 
L 655.392293 542.188594 
L 658.315983 507.940875 
L 661.239673 571.818685 
L 664.163363 508.743594 
L 667.087053 565.685621 
L 670.010743 572.438984 
L 672.934433 557.646186 
L 675.858124 564.63283 
L 678.781814 529.979029 
L 681.705504 586.8788 
L 682.380853 596.44 
M 686.143551 596.44 
L 687.552884 566.816801 
L 688.401401 596.44 
M 699.708703 596.44 
L 702.171335 582.246199 
L 705.095025 583.241832 
L 708.018715 577.391161 
L 710.942405 579.611861 
L 713.866095 578.306795 
L 716.789785 579.373963 
L 719.713475 577.789967 
L 722.637165 575.673857 
L 725.560855 579.402017 
L 728.484545 580.47681 
L 728.484545 580.47681 
" style="fill:none;stroke:#4c72b0;stroke-linecap:round;stroke-width:1.5;"/>
   </g>
   <g id="line2d_2">
    <path clip-path="url(#pf1c5a30efd)" d="M 134.975455 548.913274 
L 137.899145 552.562379 
L 140.822835 553.140178 
L 143.746525 553.367827 
L 146.670215 554.831981 
L 149.593905 556.979434 
L 152.517595 555.475752 
L 155.441285 557.163813 
L 158.364975 556.878342 
L 161.288665 558.23063 
L 164.212356 559.281742 
L 167.136046 559.951677 
L 170.059736 579.339473 
L 172.983426 585.417304 
L 174.748464 596.44 
M 184.991057 596.44 
L 187.601876 518.237494 
L 190.159276 596.44 
M 201.942545 596.44 
L 202.220327 592.239472 
L 204.922836 596.44 
M 210.337718 596.44 
L 210.991397 575.707158 
L 213.915087 559.175088 
L 216.076999 596.44 
M 220.225053 596.44 
L 222.686158 585.302954 
L 225.609848 560.544167 
L 229.836023 596.44 
M 231.861235 596.44 
L 234.380918 508.998912 
L 237.304608 566.694547 
L 238.682049 596.44 
M 242.95503 596.44 
L 243.151988 594.028101 
L 246.075678 500.234274 
L 248.999369 508.625991 
L 251.923059 570.645494 
L 254.846749 563.756968 
L 257.679872 596.44 
M 257.822232 596.44 
L 260.694129 538.507483 
L 262.26271 596.44 
M 265.401222 596.44 
L 266.541509 564.439671 
L 269.465199 548.497958 
L 272.388889 581.001054 
L 274.672171 596.44 
M 279.27089 596.44 
L 281.15996 589.4217 
L 284.08365 545.754972 
L 287.00734 558.30164 
L 289.118532 596.44 
M 290.969737 596.44 
L 292.85472 569.803877 
L 295.77841 534.943274 
L 298.649421 596.44 
M 302.212079 596.44 
L 304.549481 561.135993 
L 307.473171 540.057268 
L 310.396861 539.015986 
L 313.320551 530.116115 
L 316.244241 565.005331 
L 319.167931 557.064715 
L 322.091621 553.878394 
L 325.015311 506.928591 
L 327.939001 573.395545 
L 330.862691 577.012364 
L 333.786382 538.143027 
L 336.710072 548.769891 
L 339.633762 586.475166 
L 342.557452 582.582496 
L 345.481142 516.587981 
L 348.404832 499.166442 
L 351.328522 557.666824 
L 353.923768 596.44 
M 354.436642 596.44 
L 357.175902 523.558709 
L 360.099592 442.625914 
L 363.023283 442.861574 
L 365.946973 482.955383 
L 368.870663 465.649138 
L 371.794353 478.025033 
L 374.718043 529.899659 
L 377.641733 561.519128 
L 380.565423 591.4427 
L 383.489113 517.274427 
L 389.336494 580.808279 
L 392.260184 554.896344 
L 395.183874 571.529296 
L 398.107564 517.387412 
L 401.031254 487.19285 
L 403.954944 526.613226 
L 406.878634 538.719811 
L 409.802324 539.6699 
L 412.726014 548.034649 
L 415.649704 589.558506 
L 418.573395 546.658783 
L 422.302356 596.44 
M 425.859678 596.44 
L 427.344465 565.100827 
L 430.268155 574.334231 
L 433.191845 559.543882 
L 436.115535 512.324348 
L 439.039225 574.089127 
L 440.834199 596.44 
M 442.729636 596.44 
L 444.886605 556.900764 
L 447.810296 483.040594 
L 450.733986 501.197026 
L 453.657676 537.587336 
L 456.581366 553.648856 
L 457.783604 596.44 
M 461.0485 596.44 
L 462.428746 541.647175 
L 465.352436 569.198304 
L 468.276126 523.675892 
L 471.199816 536.764468 
L 474.123506 580.893106 
L 477.047197 566.395538 
L 479.970887 460.696786 
L 482.894577 571.410015 
L 485.564966 596.44 
M 488.828811 596.44 
L 491.665647 558.216848 
L 494.589337 541.95332 
L 496.554937 596.44 
M 498.33398 596.44 
L 500.436717 528.414971 
L 503.360408 457.148633 
L 506.284098 551.903533 
L 507.853242 596.44 
M 516.28475 596.44 
L 517.978858 553.32767 
L 520.902548 584.38669 
L 523.826238 585.828108 
L 526.749928 559.254668 
L 528.89136 596.44 
M 533.904124 596.44 
L 535.520999 548.200069 
L 538.444689 527.985978 
L 541.368379 562.152859 
L 544.153735 596.44 
M 544.347578 596.44 
L 547.215759 508.452456 
L 550.139449 555.56642 
L 553.063139 497.630893 
L 555.986829 487.02729 
L 561.83421 429.027331 
L 564.7579 505.796536 
L 567.68159 475.282293 
L 570.60528 573.321282 
L 573.52897 455.512797 
L 576.45266 451.97017 
L 579.37635 498.152444 
L 582.30004 460.756426 
L 585.22373 542.794517 
L 588.147421 514.277802 
L 591.071111 538.221557 
L 593.994801 564.290027 
L 596.918491 492.484018 
L 599.842181 579.032314 
L 602.765871 540.490214 
L 605.689561 572.906211 
L 608.26656 596.44 
M 616.19713 596.44 
L 617.384322 557.185256 
L 620.308012 544.538126 
L 623.231702 579.935775 
L 623.897309 596.44 
M 633.695271 596.44 
L 634.926462 587.092107 
L 637.850152 588.970284 
L 640.773842 537.85042 
L 643.697532 449.504506 
L 646.621223 514.828351 
L 649.544913 543.922794 
L 652.468603 587.643461 
L 655.392293 571.961683 
L 658.315983 487.070875 
L 661.239673 574.822865 
L 664.163363 506.144201 
L 667.087053 576.407421 
L 670.010743 587.903466 
L 672.934433 559.806371 
L 675.858124 569.377332 
L 678.781814 556.30621 
L 681.717808 596.44 
M 686.214206 596.44 
L 687.552884 565.604887 
L 688.479481 596.44 
M 700.380891 596.44 
L 702.171335 573.065894 
L 705.095025 574.355149 
L 708.018715 573.196754 
L 710.942405 575.320735 
L 713.866095 573.23859 
L 716.789785 574.852948 
L 719.713475 574.256925 
L 722.637165 570.513409 
L 725.560855 574.457045 
L 728.484545 570.58162 
L 728.484545 570.58162 
" style="fill:none;stroke:#dd8452;stroke-dasharray:6,2.25;stroke-dashoffset:0;stroke-width:1.5;"/>
   </g>
   <g id="line2d_3">
    <path clip-path="url(#pf1c5a30efd)" d="M 134.975455 549.760768 
L 137.899145 553.179145 
L 140.822835 554.888579 
L 143.746525 552.510259 
L 146.670215 561.169538 
L 149.593905 561.855355 
L 152.517595 563.356203 
L 155.441285 584.372244 
L 158.364975 585.37963 
L 161.288665 575.397131 
L 164.212356 577.116499 
L 167.136046 569.736226 
L 170.059736 573.315021 
L 172.983426 592.996018 
L 173.635179 596.44 
M 184.22318 596.44 
L 184.678186 579.880997 
L 187.601876 530.029435 
L 190.525567 565.284156 
L 193.449257 589.634483 
L 196.372947 582.254279 
L 197.988634 596.44 
M 200.612018 596.44 
L 202.220327 582.398257 
L 205.144017 591.208824 
L 208.067707 494.685794 
L 210.991397 556.347906 
L 213.915087 587.376844 
L 216.838777 566.509083 
L 219.762468 551.212889 
L 222.686158 545.434766 
L 225.609848 497.711592 
L 228.533538 544.581466 
L 231.457228 584.154843 
L 234.380918 520.253317 
L 237.304608 569.287643 
L 238.266244 596.44 
M 243.596842 596.44 
L 246.075678 491.233486 
L 248.999369 530.675234 
L 251.923059 527.709182 
L 254.846749 590.538469 
L 256.074363 596.44 
M 258.0821 596.44 
L 260.694129 528.105084 
L 262.989103 596.44 
M 264.605619 596.44 
L 266.541509 559.751417 
L 272.388889 589.30742 
L 275.312579 568.450189 
L 278.23627 550.384949 
L 281.15996 492.91602 
L 284.08365 472.713332 
L 287.00734 464.915609 
L 289.93103 498.510848 
L 292.85472 505.322663 
L 295.77841 530.848314 
L 298.1403 596.44 
M 303.891952 596.44 
L 304.549481 580.882402 
L 307.473171 568.020111 
L 310.396861 594.266943 
L 313.320551 588.701498 
L 316.244241 595.244212 
L 319.167931 587.878316 
L 322.091621 572.940806 
L 325.015311 529.543249 
L 327.939001 585.320899 
L 329.172328 596.44 
M 331.729519 596.44 
L 333.786382 560.278705 
L 336.710072 560.41719 
L 338.922681 596.44 
M 343.891456 596.44 
L 345.481142 548.787486 
L 348.404832 513.072814 
L 351.235116 596.44 
M 351.459196 596.44 
L 354.252212 537.633369 
L 357.175902 593.045095 
L 360.099592 501.470814 
L 363.023283 567.645161 
L 365.946973 494.099146 
L 368.870663 536.382418 
L 371.794353 476.415082 
L 374.718043 577.661451 
L 377.641733 595.628187 
L 380.565423 575.743887 
L 383.489113 560.263104 
L 386.412803 577.999077 
L 387.753088 596.44 
M 391.534263 596.44 
L 392.260184 589.244107 
L 395.183874 589.968121 
L 398.107564 540.180817 
L 401.031254 526.200253 
L 403.954944 536.905962 
L 406.878634 550.43651 
L 409.802324 584.920029 
L 412.726014 565.63427 
L 415.649704 571.994214 
L 418.081874 596.44 
M 418.785802 596.44 
L 421.497085 533.379566 
L 424.420775 482.073714 
L 427.344465 449.829714 
L 430.268155 467.698401 
L 433.191845 476.538492 
L 436.115535 457.0219 
L 439.039225 538.860885 
L 441.962915 594.916066 
L 444.886605 538.085975 
L 447.810296 560.355136 
L 450.733986 505.803742 
L 453.657676 521.115782 
L 456.581366 570.995538 
L 457.030881 596.44 
M 463.092755 596.44 
L 465.352436 569.567587 
L 468.276126 563.784287 
L 471.199816 492.570768 
L 474.123506 550.232507 
L 477.047197 519.039688 
L 479.970887 501.36388 
L 482.894577 568.407688 
L 484.792408 596.44 
M 487.395435 596.44 
L 488.741957 583.503272 
L 491.665647 575.348963 
L 494.589337 479.656742 
L 497.513027 532.943647 
L 500.436717 483.115556 
L 503.360408 497.371272 
L 506.284098 573.723517 
L 509.207788 531.43017 
L 512.131478 541.862687 
L 515.055168 561.417441 
L 517.978858 553.34579 
L 520.139084 596.44 
M 536.916353 596.44 
L 538.444689 579.263251 
L 541.368379 594.783702 
L 542.643059 596.44 
M 544.35298 596.44 
L 547.215759 495.734107 
L 550.139449 584.981559 
L 553.063139 528.451001 
L 555.986829 481.744588 
L 558.910519 499.920924 
L 561.83421 475.213172 
L 564.7579 471.320782 
L 567.68159 463.747629 
L 570.60528 514.453296 
L 573.52897 542.935521 
L 576.45266 461.357067 
L 579.37635 518.397842 
L 582.30004 540.844246 
L 585.22373 583.636791 
L 588.147421 554.52178 
L 591.071111 575.524038 
L 593.994801 564.699572 
L 596.918491 479.347939 
L 599.842181 591.715438 
L 602.765871 583.928208 
L 605.689561 557.434802 
L 608.613251 566.134763 
L 610.581742 596.44 
M 615.143563 596.44 
L 617.384322 506.838867 
L 620.308012 477.851183 
L 623.231702 565.50495 
L 624.476238 596.44 
M 627.793281 596.44 
L 629.079082 563.674031 
L 631.540048 596.44 
M 634.840912 596.44 
L 634.926462 596.254293 
L 637.850152 517.295135 
L 640.773842 499.208173 
L 643.697532 514.530532 
L 646.621223 581.048417 
L 649.544913 521.436477 
L 652.468603 590.464206 
L 655.392293 567.605004 
L 658.315983 494.571619 
L 661.239673 559.33827 
L 664.163363 505.634334 
L 667.087053 575.641955 
L 670.010743 582.715665 
L 672.934433 528.886291 
L 675.858124 582.726648 
L 678.781814 569.544955 
L 680.565558 596.44 
M 687.072049 596.44 
L 687.552884 585.409013 
L 687.99313 596.44 
M 701.560953 596.44 
L 702.171335 589.265969 
L 705.095025 581.482517 
L 708.018715 580.976463 
L 710.942405 587.417875 
L 713.866095 583.431738 
L 716.789785 584.324111 
L 719.713475 581.520331 
L 722.637165 581.749274 
L 725.560855 582.893048 
L 728.484545 574.204945 
L 728.484545 574.204945 
" style="fill:none;stroke:#55a868;stroke-dasharray:1.5,1.5;stroke-dashoffset:0;stroke-width:1.5;"/>
   </g>
   <g id="line2d_4">
    <path clip-path="url(#pf1c5a30efd)" d="M 134.975455 548.803087 
L 137.899145 552.430365 
L 140.822835 553.087078 
L 143.746525 553.178586 
L 146.670215 554.806481 
L 149.593905 556.957536 
L 152.517595 555.564706 
L 155.441285 557.412625 
L 158.364975 557.301284 
L 161.288665 558.711185 
L 164.212356 559.698178 
L 167.136046 560.532974 
L 170.059736 580.025884 
L 172.983426 586.083356 
L 174.642589 596.44 
M 185.021634 596.44 
L 187.601876 518.677471 
L 190.128837 596.44 
M 201.969452 596.44 
L 202.220327 592.628694 
L 205.144017 592.94946 
L 205.277465 596.44 
M 210.222726 596.44 
L 210.991397 570.407665 
L 213.915087 567.318938 
L 216.165815 596.44 
M 220.571553 596.44 
L 222.686158 586.24318 
L 225.609848 559.983579 
L 229.641156 596.44 
M 231.924437 596.44 
L 234.380918 509.797399 
L 238.491894 596.44 
M 243.138449 596.44 
L 243.151988 596.264437 
L 246.075678 500.915753 
L 248.999369 508.603884 
L 251.923059 571.126572 
L 254.846749 564.291076 
L 257.770439 595.241869 
L 260.694129 538.401109 
L 262.255108 596.44 
M 265.32477 596.44 
L 266.541509 560.323794 
L 269.465199 548.327291 
L 272.388889 577.047134 
L 274.607781 596.44 
M 278.909407 596.44 
L 281.15996 586.70453 
L 284.08365 545.366345 
L 287.00734 567.510208 
L 288.824706 596.44 
M 290.966328 596.44 
L 292.85472 564.317276 
L 295.77841 534.913261 
L 298.640869 596.44 
M 302.300903 596.44 
L 304.549481 564.281527 
L 307.473171 540.447399 
L 310.396861 541.305212 
L 313.320551 529.284607 
L 316.244241 567.088665 
L 319.167931 559.428168 
L 322.091621 564.090956 
L 325.015311 502.831043 
L 327.939001 561.031682 
L 330.862691 588.467832 
L 333.786382 535.302832 
L 336.710072 554.815471 
L 339.120211 596.44 
M 342.627221 596.44 
L 345.481142 521.374353 
L 348.404832 471.27174 
L 351.328522 534.648008 
L 354.252212 575.823431 
L 357.175902 499.933202 
L 360.099592 461.056169 
L 363.023283 584.925031 
L 365.946973 493.146992 
L 368.870663 482.113031 
L 371.794353 501.167678 
L 374.718043 555.083137 
L 377.641733 572.175585 
L 379.917101 596.44 
M 380.79808 596.44 
L 383.489113 516.472792 
L 386.412803 553.025339 
L 389.336494 581.384853 
L 392.260184 553.914983 
L 395.183874 571.69692 
L 398.107564 516.631461 
L 401.031254 488.487387 
L 403.954944 524.383536 
L 406.878634 541.274779 
L 409.802324 543.022201 
L 412.726014 546.704117 
L 415.649704 592.440257 
L 418.573395 548.003971 
L 421.960439 596.44 
M 426.018005 596.44 
L 427.344465 566.531785 
L 430.268155 573.208122 
L 433.191845 556.194309 
L 436.115535 510.510814 
L 439.039225 573.823524 
L 440.808844 596.44 
M 442.741394 596.44 
L 444.886605 555.795538 
L 447.810296 482.310353 
L 450.733986 495.231376 
L 453.657676 543.100696 
L 456.581366 554.263768 
L 457.796776 596.44 
M 460.992982 596.44 
L 462.428746 539.238738 
L 465.352436 571.947061 
L 468.276126 523.173265 
L 471.199816 542.624514 
L 474.123506 589.53451 
L 477.047197 572.457768 
L 479.970887 457.323217 
L 482.894577 572.180237 
L 485.581236 596.44 
M 488.974177 596.44 
L 491.665647 558.643114 
L 494.589337 542.698952 
L 496.51293 596.44 
M 498.352665 596.44 
L 500.436717 527.089197 
L 503.360408 455.230229 
L 506.284098 551.370019 
L 507.877648 596.44 
M 516.280105 596.44 
L 517.978858 552.864536 
L 520.902548 584.619377 
L 523.826238 584.585551 
L 526.749928 558.23077 
L 528.918373 596.44 
M 533.883851 596.44 
L 535.520999 547.55245 
L 538.444689 530.466579 
L 544.083388 596.44 
M 544.372104 596.44 
L 547.215759 508.473269 
L 550.139449 554.906664 
L 553.063139 496.042525 
L 555.986829 488.394201 
L 558.910519 457.712159 
L 561.83421 430.763909 
L 564.7579 506.574384 
L 567.68159 475.53887 
L 570.60528 568.582623 
L 573.52897 445.653741 
L 576.45266 504.30758 
L 579.37635 483.098066 
L 582.30004 472.921953 
L 585.22373 591.220297 
L 588.147421 500.44961 
L 591.071111 508.235825 
L 593.994801 571.895326 
L 596.918491 516.025469 
L 599.842181 566.406067 
L 602.765871 559.084105 
L 605.689561 576.813153 
L 608.613251 587.680819 
L 609.159715 596.44 
M 616.143342 596.44 
L 617.384322 549.134067 
L 620.308012 539.895836 
L 623.231702 581.569268 
L 623.905326 596.44 
M 633.76554 596.44 
L 634.926462 589.891445 
L 637.850152 588.81102 
L 640.773842 537.611927 
L 643.697532 449.060576 
L 646.621223 515.369665 
L 649.544913 540.865164 
L 652.468603 588.002145 
L 655.392293 571.779997 
L 658.315983 486.656608 
L 661.239673 575.257701 
L 664.163363 505.995047 
L 667.087053 574.491501 
L 670.010743 588.57578 
L 672.934433 558.949888 
L 675.858124 567.787459 
L 678.781814 555.585799 
L 681.925955 596.44 
M 686.174017 596.44 
L 687.552884 565.409559 
L 688.486939 596.44 
M 700.395223 596.44 
L 702.171335 571.556685 
L 705.095025 573.730932 
L 708.018715 572.675133 
L 710.942405 575.63398 
L 713.866095 573.536409 
L 716.789785 574.935466 
L 719.713475 574.443228 
L 722.637165 570.406091 
L 725.560855 574.853613 
L 728.484545 570.725178 
L 728.484545 570.725178 
" style="fill:none;stroke:#c44e52;stroke-dasharray:4.5,1.875,2.25,1.875;stroke-dashoffset:0;stroke-width:1.5;"/>
   </g>
   <g id="line2d_5">
    <path clip-path="url(#pf1c5a30efd)" d="M 134.975455 551.422769 
L 137.899145 555.134558 
L 140.822835 555.802254 
L 143.746525 556.298864 
L 146.670215 557.586055 
L 149.593905 560.302736 
L 152.517595 559.400499 
L 155.441285 560.989077 
L 158.364975 560.962982 
L 161.288665 563.072866 
L 164.212356 562.69963 
L 167.136046 562.879112 
L 170.059736 579.855846 
L 172.983426 585.785467 
L 174.962528 596.44 
M 185.186903 596.44 
L 187.601876 537.717216 
L 189.903973 596.44 
M 202.004623 596.44 
L 202.220327 592.345007 
L 205.144017 591.916433 
L 205.308024 596.44 
M 210.315554 596.44 
L 210.991397 573.554703 
L 213.915087 557.59536 
L 216.2685 596.44 
M 220.072241 596.44 
L 222.686158 585.002617 
L 225.609848 566.998242 
L 228.533538 589.150815 
L 229.347867 596.44 
M 231.998866 596.44 
L 234.380918 513.402989 
L 237.304608 568.719254 
L 238.529926 596.44 
M 243.162908 596.44 
L 246.075678 497.031198 
L 248.999369 498.918189 
L 251.923059 577.9068 
L 254.846749 565.665088 
L 257.526993 596.44 
M 257.896802 596.44 
L 260.694129 534.560454 
L 262.321488 596.44 
M 265.288015 596.44 
L 266.541509 559.445693 
L 269.465199 547.099355 
L 272.388889 574.648176 
L 274.893208 596.44 
M 279.948981 596.44 
L 281.15996 592.910002 
L 284.08365 551.876773 
L 287.00734 565.387907 
L 288.96934 596.44 
M 290.841108 596.44 
L 292.85472 562.763713 
L 295.77841 530.245436 
L 298.7021 592.908708 
L 299.75558 596.44 
M 302.066209 596.44 
L 304.549481 561.092687 
L 307.473171 537.98072 
L 310.396861 555.666882 
L 313.320551 533.569472 
L 316.244241 564.759143 
L 319.167931 558.669488 
L 322.091621 567.574781 
L 325.015311 513.199511 
L 327.939001 558.568292 
L 330.862691 591.036898 
L 333.786382 550.446444 
L 336.710072 525.171213 
L 339.633762 594.087252 
L 342.189017 596.44 
M 342.573609 596.44 
L 345.481142 535.392206 
L 348.404832 485.77438 
L 351.328522 470.185544 
L 354.252212 553.471997 
L 357.175902 563.793837 
L 360.099592 565.517857 
L 361.201541 596.44 
M 364.396419 596.44 
L 365.946973 538.714389 
L 368.870663 538.557364 
L 371.794353 519.241627 
L 375.13585 596.44 
M 382.443039 596.44 
L 383.489113 564.24032 
L 386.412803 551.617642 
L 389.336494 584.949482 
L 392.260184 568.973488 
L 395.183874 583.326799 
L 398.107564 499.980355 
L 401.031254 502.709068 
L 403.954944 520.650409 
L 406.878634 549.910587 
L 409.802324 550.895061 
L 412.726014 538.856827 
L 415.032012 596.44 
M 416.385508 596.44 
L 418.573395 550.57601 
L 421.259797 596.44 
M 426.463269 596.44 
L 427.344465 576.012428 
L 430.268155 576.253859 
L 433.191845 561.863645 
L 436.115535 508.037944 
L 439.039225 573.104512 
L 440.765953 596.44 
M 442.884736 596.44 
L 444.886605 561.311277 
L 447.810296 482.510089 
L 450.733986 491.279414 
L 453.657676 528.622892 
L 456.581366 541.446391 
L 458.385452 596.44 
M 460.459476 596.44 
L 462.428746 526.02182 
L 465.352436 565.324698 
L 468.276126 527.989231 
L 471.199816 552.534885 
L 473.807515 596.44 
M 474.479368 596.44 
L 477.047197 558.049959 
L 479.970887 460.062915 
L 482.894577 581.80066 
L 484.809258 596.44 
M 489.108117 596.44 
L 491.665647 564.239341 
L 494.589337 541.607368 
L 496.504819 596.44 
M 498.357113 596.44 
L 500.436717 525.334185 
L 503.360408 451.130337 
L 506.284098 549.887675 
L 507.783401 596.44 
M 516.356404 596.44 
L 517.978858 556.676787 
L 520.902548 584.913033 
L 523.826238 580.292571 
L 526.749928 547.56228 
L 529.330052 596.44 
M 533.296616 596.44 
L 535.520999 530.197548 
L 538.444689 507.699129 
L 541.368379 557.648879 
L 543.977378 596.44 
M 544.429019 596.44 
L 547.215759 501.231551 
L 550.139449 550.873794 
L 553.063139 457.119704 
L 555.986829 522.390555 
L 558.910519 479.364484 
L 561.83421 464.80815 
L 564.7579 535.005118 
L 567.68159 505.723952 
L 570.60528 510.894299 
L 573.52897 497.459876 
L 576.45266 547.280726 
L 579.37635 519.456089 
L 582.30004 481.803389 
L 585.22373 564.158432 
L 588.147421 512.376678 
L 591.071111 523.679635 
L 593.994801 544.026824 
L 596.918491 498.876493 
L 599.842181 541.29958 
L 602.765871 531.828732 
L 605.689561 556.646985 
L 608.613251 572.014852 
L 610.923803 596.44 
M 615.559919 596.44 
L 617.384322 525.496842 
L 620.308012 522.690228 
L 623.231702 570.806401 
L 624.434408 596.44 
M 629.839968 596.44 
L 632.002772 594.057659 
L 634.926462 579.961206 
L 637.850152 573.610881 
L 640.773842 516.89486 
L 643.697532 442.407675 
L 646.621223 499.595366 
L 649.544913 528.270889 
L 652.468603 566.820404 
L 655.392293 556.167969 
L 658.315983 487.040443 
L 661.239673 560.701542 
L 664.163363 499.110894 
L 667.087053 570.948455 
L 670.010743 584.116051 
L 672.934433 565.483437 
L 675.858124 566.06984 
L 678.781814 539.243985 
L 681.705504 592.273823 
L 682.121539 596.44 
M 685.762452 596.44 
L 687.552884 556.766126 
L 688.926804 596.44 
M 699.931291 596.44 
L 702.171335 567.627846 
L 705.095025 569.683651 
L 708.018715 568.655591 
L 710.942405 570.678969 
L 713.866095 568.399398 
L 716.789785 568.975062 
L 719.713475 569.055621 
L 722.637165 564.628038 
L 725.560855 569.045092 
L 728.484545 565.546611 
L 728.484545 565.546611 
" style="fill:none;stroke:#8172b3;stroke-dasharray:7.5,1.5,1.5,1.5;stroke-dashoffset:0;stroke-width:1.5;"/>
   </g>
   <g id="line2d_6"/>
   <g id="line2d_7"/>
   <g id="line2d_8"/>
   <g id="line2d_9"/>
   <g id="line2d_10"/>
   <g id="patch_3">
    <path d="M 105.3 529.9416 
L 105.3 71.4528 
" style="fill:none;stroke:#262626;stroke-linecap:square;stroke-linejoin:miter;stroke-width:1.25;"/>
   </g>
   <g id="patch_4">
    <path d="M 758.16 529.9416 
L 758.16 71.4528 
" style="fill:none;stroke:#262626;stroke-linecap:square;stroke-linejoin:miter;stroke-width:1.25;"/>
   </g>
   <g id="patch_5">
    <path d="M 105.3 529.9416 
L 758.16 529.9416 
" style="fill:none;stroke:#262626;stroke-linecap:square;stroke-linejoin:miter;stroke-width:1.25;"/>
   </g>
   <g id="patch_6">
    <path d="M 105.3 71.4528 
L 758.16 71.4528 
" style="fill:none;stroke:#262626;stroke-linecap:square;stroke-linejoin:miter;stroke-width:1.25;"/>
   </g>
   <g id="text_16">
    <!-- Activations for &gt;1&lt; -->
    <g style="fill:#262626;" transform="translate(382.037813 65.4528)scale(0.12 -0.12)">
     <defs>
      <path d="M -9 0 
L 1750 4581 
L 2403 4581 
L 4278 0 
L 3588 0 
L 3053 1388 
L 1138 1388 
L 634 0 
L -9 0 
z
M 1313 1881 
L 2866 1881 
L 2388 3150 
Q 2169 3728 2063 4100 
Q 1975 3659 1816 3225 
L 1313 1881 
z
" id="ArialMT-41" transform="scale(0.015625)"/>
      <path d="M 2588 1216 
L 3141 1144 
Q 3050 572 2676 248 
Q 2303 -75 1759 -75 
Q 1078 -75 664 370 
Q 250 816 250 1647 
Q 250 2184 428 2587 
Q 606 2991 970 3192 
Q 1334 3394 1763 3394 
Q 2303 3394 2647 3120 
Q 2991 2847 3088 2344 
L 2541 2259 
Q 2463 2594 2264 2762 
Q 2066 2931 1784 2931 
Q 1359 2931 1093 2626 
Q 828 2322 828 1663 
Q 828 994 1084 691 
Q 1341 388 1753 388 
Q 2084 388 2306 591 
Q 2528 794 2588 1216 
z
" id="ArialMT-63" transform="scale(0.015625)"/>
      <path d="M 1650 503 
L 1731 6 
Q 1494 -44 1306 -44 
Q 1000 -44 831 53 
Q 663 150 594 308 
Q 525 466 525 972 
L 525 2881 
L 113 2881 
L 113 3319 
L 525 3319 
L 525 4141 
L 1084 4478 
L 1084 3319 
L 1650 3319 
L 1650 2881 
L 1084 2881 
L 1084 941 
Q 1084 700 1114 631 
Q 1144 563 1211 522 
Q 1278 481 1403 481 
Q 1497 481 1650 503 
z
" id="ArialMT-74" transform="scale(0.015625)"/>
      <path d="M 425 3934 
L 425 4581 
L 988 4581 
L 988 3934 
L 425 3934 
z
M 425 0 
L 425 3319 
L 988 3319 
L 988 0 
L 425 0 
z
" id="ArialMT-69" transform="scale(0.015625)"/>
      <path d="M 1344 0 
L 81 3319 
L 675 3319 
L 1388 1331 
Q 1503 1009 1600 663 
Q 1675 925 1809 1294 
L 2547 3319 
L 3125 3319 
L 1869 0 
L 1344 0 
z
" id="ArialMT-76" transform="scale(0.015625)"/>
      <path d="M 2588 409 
Q 2275 144 1986 34 
Q 1697 -75 1366 -75 
Q 819 -75 525 192 
Q 231 459 231 875 
Q 231 1119 342 1320 
Q 453 1522 633 1644 
Q 813 1766 1038 1828 
Q 1203 1872 1538 1913 
Q 2219 1994 2541 2106 
Q 2544 2222 2544 2253 
Q 2544 2597 2384 2738 
Q 2169 2928 1744 2928 
Q 1347 2928 1158 2789 
Q 969 2650 878 2297 
L 328 2372 
Q 403 2725 575 2942 
Q 747 3159 1072 3276 
Q 1397 3394 1825 3394 
Q 2250 3394 2515 3294 
Q 2781 3194 2906 3042 
Q 3031 2891 3081 2659 
Q 3109 2516 3109 2141 
L 3109 1391 
Q 3109 606 3145 398 
Q 3181 191 3288 0 
L 2700 0 
Q 2613 175 2588 409 
z
M 2541 1666 
Q 2234 1541 1622 1453 
Q 1275 1403 1131 1340 
Q 988 1278 909 1158 
Q 831 1038 831 891 
Q 831 666 1001 516 
Q 1172 366 1500 366 
Q 1825 366 2078 508 
Q 2331 650 2450 897 
Q 2541 1088 2541 1459 
L 2541 1666 
z
" id="ArialMT-61" transform="scale(0.015625)"/>
      <path d="M 213 1659 
Q 213 2581 725 3025 
Q 1153 3394 1769 3394 
Q 2453 3394 2887 2945 
Q 3322 2497 3322 1706 
Q 3322 1066 3130 698 
Q 2938 331 2570 128 
Q 2203 -75 1769 -75 
Q 1072 -75 642 372 
Q 213 819 213 1659 
z
M 791 1659 
Q 791 1022 1069 705 
Q 1347 388 1769 388 
Q 2188 388 2466 706 
Q 2744 1025 2744 1678 
Q 2744 2294 2464 2611 
Q 2184 2928 1769 2928 
Q 1347 2928 1069 2612 
Q 791 2297 791 1659 
z
" id="ArialMT-6f" transform="scale(0.015625)"/>
      <path d="M 422 0 
L 422 3319 
L 928 3319 
L 928 2847 
Q 1294 3394 1984 3394 
Q 2284 3394 2536 3286 
Q 2788 3178 2913 3003 
Q 3038 2828 3088 2588 
Q 3119 2431 3119 2041 
L 3119 0 
L 2556 0 
L 2556 2019 
Q 2556 2363 2490 2533 
Q 2425 2703 2258 2804 
Q 2091 2906 1866 2906 
Q 1506 2906 1245 2678 
Q 984 2450 984 1813 
L 984 0 
L 422 0 
z
" id="ArialMT-6e" transform="scale(0.015625)"/>
      <path d="M 197 991 
L 753 1078 
Q 800 744 1014 566 
Q 1228 388 1613 388 
Q 2000 388 2187 545 
Q 2375 703 2375 916 
Q 2375 1106 2209 1216 
Q 2094 1291 1634 1406 
Q 1016 1563 777 1677 
Q 538 1791 414 1992 
Q 291 2194 291 2438 
Q 291 2659 392 2848 
Q 494 3038 669 3163 
Q 800 3259 1026 3326 
Q 1253 3394 1513 3394 
Q 1903 3394 2198 3281 
Q 2494 3169 2634 2976 
Q 2775 2784 2828 2463 
L 2278 2388 
Q 2241 2644 2061 2787 
Q 1881 2931 1553 2931 
Q 1166 2931 1000 2803 
Q 834 2675 834 2503 
Q 834 2394 903 2306 
Q 972 2216 1119 2156 
Q 1203 2125 1616 2013 
Q 2213 1853 2448 1751 
Q 2684 1650 2818 1456 
Q 2953 1263 2953 975 
Q 2953 694 2789 445 
Q 2625 197 2315 61 
Q 2006 -75 1616 -75 
Q 969 -75 630 194 
Q 291 463 197 991 
z
" id="ArialMT-73" transform="scale(0.015625)"/>
      <path id="ArialMT-20" transform="scale(0.015625)"/>
      <path d="M 556 0 
L 556 2881 
L 59 2881 
L 59 3319 
L 556 3319 
L 556 3672 
Q 556 4006 616 4169 
Q 697 4388 901 4523 
Q 1106 4659 1475 4659 
Q 1713 4659 2000 4603 
L 1916 4113 
Q 1741 4144 1584 4144 
Q 1328 4144 1222 4034 
Q 1116 3925 1116 3625 
L 1116 3319 
L 1763 3319 
L 1763 2881 
L 1116 2881 
L 1116 0 
L 556 0 
z
" id="ArialMT-66" transform="scale(0.015625)"/>
      <path d="M 416 0 
L 416 3319 
L 922 3319 
L 922 2816 
Q 1116 3169 1280 3281 
Q 1444 3394 1641 3394 
Q 1925 3394 2219 3213 
L 2025 2691 
Q 1819 2813 1613 2813 
Q 1428 2813 1281 2702 
Q 1134 2591 1072 2394 
Q 978 2094 978 1738 
L 978 0 
L 416 0 
z
" id="ArialMT-72" transform="scale(0.015625)"/>
      <path d="M 3384 2003 
L 350 706 
L 350 1266 
L 2753 2263 
L 350 3250 
L 350 3809 
L 3384 2528 
L 3384 2003 
z
" id="ArialMT-3e" transform="scale(0.015625)"/>
      <path d="M 350 2003 
L 350 2528 
L 3384 3809 
L 3384 3250 
L 978 2263 
L 3384 1266 
L 3384 706 
L 350 2003 
z
" id="ArialMT-3c" transform="scale(0.015625)"/>
     </defs>
     <use xlink:href="#ArialMT-41"/>
     <use x="66.699219" xlink:href="#ArialMT-63"/>
     <use x="116.699219" xlink:href="#ArialMT-74"/>
     <use x="144.482422" xlink:href="#ArialMT-69"/>
     <use x="166.699219" xlink:href="#ArialMT-76"/>
     <use x="216.699219" xlink:href="#ArialMT-61"/>
     <use x="272.314453" xlink:href="#ArialMT-74"/>
     <use x="300.097656" xlink:href="#ArialMT-69"/>
     <use x="322.314453" xlink:href="#ArialMT-6f"/>
     <use x="377.929688" xlink:href="#ArialMT-6e"/>
     <use x="433.544922" xlink:href="#ArialMT-73"/>
     <use x="483.544922" xlink:href="#ArialMT-20"/>
     <use x="511.328125" xlink:href="#ArialMT-66"/>
     <use x="539.111328" xlink:href="#ArialMT-6f"/>
     <use x="594.726562" xlink:href="#ArialMT-72"/>
     <use x="628.027344" xlink:href="#ArialMT-20"/>
     <use x="655.810547" xlink:href="#ArialMT-3e"/>
     <use x="714.208984" xlink:href="#ArialMT-31"/>
     <use x="769.824219" xlink:href="#ArialMT-3c"/>
    </g>
   </g>
   <g id="legend_1">
    <g id="patch_7">
     <path d="M 640.044062 158.514363 
L 750.46 158.514363 
Q 752.66 158.514363 752.66 156.314363 
L 752.66 79.1528 
Q 752.66 76.9528 750.46 76.9528 
L 640.044062 76.9528 
Q 637.844062 76.9528 637.844062 79.1528 
L 637.844062 156.314363 
Q 637.844062 158.514363 640.044062 158.514363 
z
" style="fill:#ffffff;opacity:0.8;stroke:#cccccc;stroke-linejoin:miter;"/>
    </g>
    <g id="line2d_11">
     <path d="M 642.244062 85.376394 
L 664.244062 85.376394 
" style="fill:none;stroke:#4c72b0;stroke-linecap:round;stroke-width:1.5;"/>
    </g>
    <g id="line2d_12"/>
    <g id="text_17">
     <!-- regular -->
     <g style="fill:#262626;" transform="translate(673.044062 89.226394)scale(0.11 -0.11)">
      <defs>
       <path d="M 2694 1069 
L 3275 997 
Q 3138 488 2766 206 
Q 2394 -75 1816 -75 
Q 1088 -75 661 373 
Q 234 822 234 1631 
Q 234 2469 665 2931 
Q 1097 3394 1784 3394 
Q 2450 3394 2872 2941 
Q 3294 2488 3294 1666 
Q 3294 1616 3291 1516 
L 816 1516 
Q 847 969 1125 678 
Q 1403 388 1819 388 
Q 2128 388 2347 550 
Q 2566 713 2694 1069 
z
M 847 1978 
L 2700 1978 
Q 2663 2397 2488 2606 
Q 2219 2931 1791 2931 
Q 1403 2931 1139 2672 
Q 875 2413 847 1978 
z
" id="ArialMT-65" transform="scale(0.015625)"/>
       <path d="M 319 -275 
L 866 -356 
Q 900 -609 1056 -725 
Q 1266 -881 1628 -881 
Q 2019 -881 2231 -725 
Q 2444 -569 2519 -288 
Q 2563 -116 2559 434 
Q 2191 0 1641 0 
Q 956 0 581 494 
Q 206 988 206 1678 
Q 206 2153 378 2554 
Q 550 2956 876 3175 
Q 1203 3394 1644 3394 
Q 2231 3394 2613 2919 
L 2613 3319 
L 3131 3319 
L 3131 450 
Q 3131 -325 2973 -648 
Q 2816 -972 2473 -1159 
Q 2131 -1347 1631 -1347 
Q 1038 -1347 672 -1080 
Q 306 -813 319 -275 
z
M 784 1719 
Q 784 1066 1043 766 
Q 1303 466 1694 466 
Q 2081 466 2343 764 
Q 2606 1063 2606 1700 
Q 2606 2309 2336 2618 
Q 2066 2928 1684 2928 
Q 1309 2928 1046 2623 
Q 784 2319 784 1719 
z
" id="ArialMT-67" transform="scale(0.015625)"/>
       <path d="M 2597 0 
L 2597 488 
Q 2209 -75 1544 -75 
Q 1250 -75 995 37 
Q 741 150 617 320 
Q 494 491 444 738 
Q 409 903 409 1263 
L 409 3319 
L 972 3319 
L 972 1478 
Q 972 1038 1006 884 
Q 1059 663 1231 536 
Q 1403 409 1656 409 
Q 1909 409 2131 539 
Q 2353 669 2445 892 
Q 2538 1116 2538 1541 
L 2538 3319 
L 3100 3319 
L 3100 0 
L 2597 0 
z
" id="ArialMT-75" transform="scale(0.015625)"/>
       <path d="M 409 0 
L 409 4581 
L 972 4581 
L 972 0 
L 409 0 
z
" id="ArialMT-6c" transform="scale(0.015625)"/>
      </defs>
      <use xlink:href="#ArialMT-72"/>
      <use x="33.300781" xlink:href="#ArialMT-65"/>
      <use x="88.916016" xlink:href="#ArialMT-67"/>
      <use x="144.53125" xlink:href="#ArialMT-75"/>
      <use x="200.146484" xlink:href="#ArialMT-6c"/>
      <use x="222.363281" xlink:href="#ArialMT-61"/>
      <use x="277.978516" xlink:href="#ArialMT-72"/>
     </g>
    </g>
    <g id="line2d_13">
     <path d="M 642.244062 101.0978 
L 664.244062 101.0978 
" style="fill:none;stroke:#dd8452;stroke-dasharray:6,2.25;stroke-dashoffset:0;stroke-width:1.5;"/>
    </g>
    <g id="line2d_14"/>
    <g id="text_18">
     <!-- splitted_3s -->
     <g style="fill:#262626;" transform="translate(673.044062 104.9478)scale(0.11 -0.11)">
      <defs>
       <path d="M 422 -1272 
L 422 3319 
L 934 3319 
L 934 2888 
Q 1116 3141 1344 3267 
Q 1572 3394 1897 3394 
Q 2322 3394 2647 3175 
Q 2972 2956 3137 2557 
Q 3303 2159 3303 1684 
Q 3303 1175 3120 767 
Q 2938 359 2589 142 
Q 2241 -75 1856 -75 
Q 1575 -75 1351 44 
Q 1128 163 984 344 
L 984 -1272 
L 422 -1272 
z
M 931 1641 
Q 931 1000 1190 694 
Q 1450 388 1819 388 
Q 2194 388 2461 705 
Q 2728 1022 2728 1688 
Q 2728 2322 2467 2637 
Q 2206 2953 1844 2953 
Q 1484 2953 1207 2617 
Q 931 2281 931 1641 
z
" id="ArialMT-70" transform="scale(0.015625)"/>
       <path d="M 2575 0 
L 2575 419 
Q 2259 -75 1647 -75 
Q 1250 -75 917 144 
Q 584 363 401 755 
Q 219 1147 219 1656 
Q 219 2153 384 2558 
Q 550 2963 881 3178 
Q 1213 3394 1622 3394 
Q 1922 3394 2156 3267 
Q 2391 3141 2538 2938 
L 2538 4581 
L 3097 4581 
L 3097 0 
L 2575 0 
z
M 797 1656 
Q 797 1019 1065 703 
Q 1334 388 1700 388 
Q 2069 388 2326 689 
Q 2584 991 2584 1609 
Q 2584 2291 2321 2609 
Q 2059 2928 1675 2928 
Q 1300 2928 1048 2622 
Q 797 2316 797 1656 
z
" id="ArialMT-64" transform="scale(0.015625)"/>
       <path d="M -97 -1272 
L -97 -866 
L 3631 -866 
L 3631 -1272 
L -97 -1272 
z
" id="ArialMT-5f" transform="scale(0.015625)"/>
       <path d="M 269 1209 
L 831 1284 
Q 928 806 1161 595 
Q 1394 384 1728 384 
Q 2125 384 2398 659 
Q 2672 934 2672 1341 
Q 2672 1728 2419 1979 
Q 2166 2231 1775 2231 
Q 1616 2231 1378 2169 
L 1441 2663 
Q 1497 2656 1531 2656 
Q 1891 2656 2178 2843 
Q 2466 3031 2466 3422 
Q 2466 3731 2256 3934 
Q 2047 4138 1716 4138 
Q 1388 4138 1169 3931 
Q 950 3725 888 3313 
L 325 3413 
Q 428 3978 793 4289 
Q 1159 4600 1703 4600 
Q 2078 4600 2393 4439 
Q 2709 4278 2876 4000 
Q 3044 3722 3044 3409 
Q 3044 3113 2884 2869 
Q 2725 2625 2413 2481 
Q 2819 2388 3044 2092 
Q 3269 1797 3269 1353 
Q 3269 753 2831 336 
Q 2394 -81 1725 -81 
Q 1122 -81 723 278 
Q 325 638 269 1209 
z
" id="ArialMT-33" transform="scale(0.015625)"/>
      </defs>
      <use xlink:href="#ArialMT-73"/>
      <use x="50" xlink:href="#ArialMT-70"/>
      <use x="105.615234" xlink:href="#ArialMT-6c"/>
      <use x="127.832031" xlink:href="#ArialMT-69"/>
      <use x="150.048828" xlink:href="#ArialMT-74"/>
      <use x="177.832031" xlink:href="#ArialMT-74"/>
      <use x="205.615234" xlink:href="#ArialMT-65"/>
      <use x="261.230469" xlink:href="#ArialMT-64"/>
      <use x="316.845703" xlink:href="#ArialMT-5f"/>
      <use x="372.460938" xlink:href="#ArialMT-33"/>
      <use x="428.076172" xlink:href="#ArialMT-73"/>
     </g>
    </g>
    <g id="line2d_15">
     <path d="M 642.244062 116.6903 
L 664.244062 116.6903 
" style="fill:none;stroke:#55a868;stroke-dasharray:1.5,1.5;stroke-dashoffset:0;stroke-width:1.5;"/>
    </g>
    <g id="line2d_16"/>
    <g id="text_19">
     <!-- splitted_1s -->
     <g style="fill:#262626;" transform="translate(673.044062 120.5403)scale(0.11 -0.11)">
      <use xlink:href="#ArialMT-73"/>
      <use x="50" xlink:href="#ArialMT-70"/>
      <use x="105.615234" xlink:href="#ArialMT-6c"/>
      <use x="127.832031" xlink:href="#ArialMT-69"/>
      <use x="150.048828" xlink:href="#ArialMT-74"/>
      <use x="177.832031" xlink:href="#ArialMT-74"/>
      <use x="205.615234" xlink:href="#ArialMT-65"/>
      <use x="261.230469" xlink:href="#ArialMT-64"/>
      <use x="316.845703" xlink:href="#ArialMT-5f"/>
      <use x="372.460938" xlink:href="#ArialMT-31"/>
      <use x="428.076172" xlink:href="#ArialMT-73"/>
     </g>
    </g>
    <g id="line2d_17">
     <path d="M 642.244062 132.384206 
L 664.244062 132.384206 
" style="fill:none;stroke:#c44e52;stroke-dasharray:4.5,1.875,2.25,1.875;stroke-dashoffset:0;stroke-width:1.5;"/>
    </g>
    <g id="line2d_18"/>
    <g id="text_20">
     <!-- overlap_1f_3s -->
     <g style="fill:#262626;" transform="translate(673.044062 136.234206)scale(0.11 -0.11)">
      <use xlink:href="#ArialMT-6f"/>
      <use x="55.615234" xlink:href="#ArialMT-76"/>
      <use x="105.615234" xlink:href="#ArialMT-65"/>
      <use x="161.230469" xlink:href="#ArialMT-72"/>
      <use x="194.53125" xlink:href="#ArialMT-6c"/>
      <use x="216.748047" xlink:href="#ArialMT-61"/>
      <use x="272.363281" xlink:href="#ArialMT-70"/>
      <use x="327.978516" xlink:href="#ArialMT-5f"/>
      <use x="383.59375" xlink:href="#ArialMT-31"/>
      <use x="439.208984" xlink:href="#ArialMT-66"/>
      <use x="466.992188" xlink:href="#ArialMT-5f"/>
      <use x="522.607422" xlink:href="#ArialMT-33"/>
      <use x="578.222656" xlink:href="#ArialMT-73"/>
     </g>
    </g>
    <g id="line2d_19">
     <path d="M 642.244062 148.078113 
L 664.244062 148.078113 
" style="fill:none;stroke:#8172b3;stroke-dasharray:7.5,1.5,1.5,1.5;stroke-dashoffset:0;stroke-width:1.5;"/>
    </g>
    <g id="line2d_20"/>
    <g id="text_21">
     <!-- overlap_10f_3s -->
     <g style="fill:#262626;" transform="translate(673.044062 151.928112)scale(0.11 -0.11)">
      <use xlink:href="#ArialMT-6f"/>
      <use x="55.615234" xlink:href="#ArialMT-76"/>
      <use x="105.615234" xlink:href="#ArialMT-65"/>
      <use x="161.230469" xlink:href="#ArialMT-72"/>
      <use x="194.53125" xlink:href="#ArialMT-6c"/>
      <use x="216.748047" xlink:href="#ArialMT-61"/>
      <use x="272.363281" xlink:href="#ArialMT-70"/>
      <use x="327.978516" xlink:href="#ArialMT-5f"/>
      <use x="383.59375" xlink:href="#ArialMT-31"/>
      <use x="439.208984" xlink:href="#ArialMT-30"/>
      <use x="494.824219" xlink:href="#ArialMT-66"/>
      <use x="522.607422" xlink:href="#ArialMT-5f"/>
      <use x="578.222656" xlink:href="#ArialMT-33"/>
      <use x="633.837891" xlink:href="#ArialMT-73"/>
     </g>
    </g>
   </g>
  </g>
 </g>
 <defs>
  <clipPath id="pf1c5a30efd">
   <rect height="458.4888" width="652.86" x="105.3" y="71.4528"/>
  </clipPath>
 </defs>
</svg>
