<?xml version="1.0" encoding="utf-8" standalone="no"?>
<!DOCTYPE svg PUBLIC "-//W3C//DTD SVG 1.1//EN"
  "http://www.w3.org/Graphics/SVG/1.1/DTD/svg11.dtd">
<svg height="595.44pt" version="1.1" viewBox="0 0 842.4 595.44" width="842.4pt" xmlns="http://www.w3.org/2000/svg" xmlns:xlink="http://www.w3.org/1999/xlink">
 <metadata>
  <rdf:RDF xmlns:cc="http://creativecommons.org/ns#" xmlns:dc="http://purl.org/dc/elements/1.1/" xmlns:rdf="http://www.w3.org/1999/02/22-rdf-syntax-ns#">
   <cc:Work>
    <dc:type rdf:resource="http://purl.org/dc/dcmitype/StillImage"/>
    <dc:date>2021-06-04T22:03:16.108579</dc:date>
    <dc:format>image/svg+xml</dc:format>
    <dc:creator>
     <cc:Agent>
      <dc:title>Matplotlib v3.4.1, https://matplotlib.org/</dc:title>
     </cc:Agent>
    </dc:creator>
   </cc:Work>
  </rdf:RDF>
 </metadata>
 <defs>
  <style type="text/css">*{stroke-linecap:butt;stroke-linejoin:round;}</style>
 </defs>
 <g id="figure_1">
  <g id="patch_1">
   <path d="M 0 595.44 
L 842.4 595.44 
L 842.4 0 
L 0 0 
z
" style="fill:#ffffff;"/>
  </g>
  <g id="axes_1">
   <g id="patch_2">
    <path d="M 105.3 529.9416 
L 758.16 529.9416 
L 758.16 71.4528 
L 105.3 71.4528 
z
" style="fill:#ffffff;"/>
   </g>
   <g id="matplotlib.axis_1">
    <g id="xtick_1">
     <g id="text_1">
      <!-- 0 -->
      <g style="fill:#262626;" transform="translate(131.916939 547.315194)scale(0.11 -0.11)">
       <defs>
        <path d="M 266 2259 
Q 266 3072 433 3567 
Q 600 4063 929 4331 
Q 1259 4600 1759 4600 
Q 2128 4600 2406 4451 
Q 2684 4303 2865 4023 
Q 3047 3744 3150 3342 
Q 3253 2941 3253 2259 
Q 3253 1453 3087 958 
Q 2922 463 2592 192 
Q 2263 -78 1759 -78 
Q 1097 -78 719 397 
Q 266 969 266 2259 
z
M 844 2259 
Q 844 1131 1108 757 
Q 1372 384 1759 384 
Q 2147 384 2411 759 
Q 2675 1134 2675 2259 
Q 2675 3391 2411 3762 
Q 2147 4134 1753 4134 
Q 1366 4134 1134 3806 
Q 844 3388 844 2259 
z
" id="ArialMT-30" transform="scale(0.015625)"/>
       </defs>
       <use xlink:href="#ArialMT-30"/>
      </g>
     </g>
    </g>
    <g id="xtick_2">
     <g id="text_2">
      <!-- 25 -->
      <g style="fill:#262626;" transform="translate(201.950676 547.315194)scale(0.11 -0.11)">
       <defs>
        <path d="M 3222 541 
L 3222 0 
L 194 0 
Q 188 203 259 391 
Q 375 700 629 1000 
Q 884 1300 1366 1694 
Q 2113 2306 2375 2664 
Q 2638 3022 2638 3341 
Q 2638 3675 2398 3904 
Q 2159 4134 1775 4134 
Q 1369 4134 1125 3890 
Q 881 3647 878 3216 
L 300 3275 
Q 359 3922 746 4261 
Q 1134 4600 1788 4600 
Q 2447 4600 2831 4234 
Q 3216 3869 3216 3328 
Q 3216 3053 3103 2787 
Q 2991 2522 2730 2228 
Q 2469 1934 1863 1422 
Q 1356 997 1212 845 
Q 1069 694 975 541 
L 3222 541 
z
" id="ArialMT-32" transform="scale(0.015625)"/>
        <path d="M 266 1200 
L 856 1250 
Q 922 819 1161 601 
Q 1400 384 1738 384 
Q 2144 384 2425 690 
Q 2706 997 2706 1503 
Q 2706 1984 2436 2262 
Q 2166 2541 1728 2541 
Q 1456 2541 1237 2417 
Q 1019 2294 894 2097 
L 366 2166 
L 809 4519 
L 3088 4519 
L 3088 3981 
L 1259 3981 
L 1013 2750 
Q 1425 3038 1878 3038 
Q 2478 3038 2890 2622 
Q 3303 2206 3303 1553 
Q 3303 931 2941 478 
Q 2500 -78 1738 -78 
Q 1113 -78 717 272 
Q 322 622 266 1200 
z
" id="ArialMT-35" transform="scale(0.015625)"/>
       </defs>
       <use xlink:href="#ArialMT-32"/>
       <use x="55.615234" xlink:href="#ArialMT-35"/>
      </g>
     </g>
    </g>
    <g id="xtick_3">
     <g id="text_3">
      <!-- 50 -->
      <g style="fill:#262626;" transform="translate(275.042928 547.315194)scale(0.11 -0.11)">
       <use xlink:href="#ArialMT-35"/>
       <use x="55.615234" xlink:href="#ArialMT-30"/>
      </g>
     </g>
    </g>
    <g id="xtick_4">
     <g id="text_4">
      <!-- 75 -->
      <g style="fill:#262626;" transform="translate(348.135181 547.315194)scale(0.11 -0.11)">
       <defs>
        <path d="M 303 3981 
L 303 4522 
L 3269 4522 
L 3269 4084 
Q 2831 3619 2401 2847 
Q 1972 2075 1738 1259 
Q 1569 684 1522 0 
L 944 0 
Q 953 541 1156 1306 
Q 1359 2072 1739 2783 
Q 2119 3494 2547 3981 
L 303 3981 
z
" id="ArialMT-37" transform="scale(0.015625)"/>
       </defs>
       <use xlink:href="#ArialMT-37"/>
       <use x="55.615234" xlink:href="#ArialMT-35"/>
      </g>
     </g>
    </g>
    <g id="xtick_5">
     <g id="text_5">
      <!-- 100 -->
      <g style="fill:#262626;" transform="translate(418.168918 547.315194)scale(0.11 -0.11)">
       <defs>
        <path d="M 2384 0 
L 1822 0 
L 1822 3584 
Q 1619 3391 1289 3197 
Q 959 3003 697 2906 
L 697 3450 
Q 1169 3672 1522 3987 
Q 1875 4303 2022 4600 
L 2384 4600 
L 2384 0 
z
" id="ArialMT-31" transform="scale(0.015625)"/>
       </defs>
       <use xlink:href="#ArialMT-31"/>
       <use x="55.615234" xlink:href="#ArialMT-30"/>
       <use x="111.230469" xlink:href="#ArialMT-30"/>
      </g>
     </g>
    </g>
    <g id="xtick_6">
     <g id="text_6">
      <!-- 125 -->
      <g style="fill:#262626;" transform="translate(491.261171 547.315194)scale(0.11 -0.11)">
       <use xlink:href="#ArialMT-31"/>
       <use x="55.615234" xlink:href="#ArialMT-32"/>
       <use x="111.230469" xlink:href="#ArialMT-35"/>
      </g>
     </g>
    </g>
    <g id="xtick_7">
     <g id="text_7">
      <!-- 150 -->
      <g style="fill:#262626;" transform="translate(564.353423 547.315194)scale(0.11 -0.11)">
       <use xlink:href="#ArialMT-31"/>
       <use x="55.615234" xlink:href="#ArialMT-35"/>
       <use x="111.230469" xlink:href="#ArialMT-30"/>
      </g>
     </g>
    </g>
    <g id="xtick_8">
     <g id="text_8">
      <!-- 175 -->
      <g style="fill:#262626;" transform="translate(637.445676 547.315194)scale(0.11 -0.11)">
       <use xlink:href="#ArialMT-31"/>
       <use x="55.615234" xlink:href="#ArialMT-37"/>
       <use x="111.230469" xlink:href="#ArialMT-35"/>
      </g>
     </g>
    </g>
    <g id="xtick_9">
     <g id="text_9">
      <!-- 200 -->
      <g style="fill:#262626;" transform="translate(710.537928 547.315194)scale(0.11 -0.11)">
       <use xlink:href="#ArialMT-32"/>
       <use x="55.615234" xlink:href="#ArialMT-30"/>
       <use x="111.230469" xlink:href="#ArialMT-30"/>
      </g>
     </g>
    </g>
   </g>
   <g id="matplotlib.axis_2">
    <g id="ytick_1">
     <g id="text_10">
      <!-- −25 -->
      <g style="fill:#262626;" transform="translate(77.14125 533.878397)scale(0.11 -0.11)">
       <defs>
        <path d="M 3381 1997 
L 356 1997 
L 356 2522 
L 3381 2522 
L 3381 1997 
z
" id="ArialMT-2212" transform="scale(0.015625)"/>
       </defs>
       <use xlink:href="#ArialMT-2212"/>
       <use x="58.398438" xlink:href="#ArialMT-32"/>
       <use x="114.013672" xlink:href="#ArialMT-35"/>
      </g>
     </g>
    </g>
    <g id="ytick_2">
     <g id="text_11">
      <!-- −20 -->
      <g style="fill:#262626;" transform="translate(77.14125 442.180637)scale(0.11 -0.11)">
       <use xlink:href="#ArialMT-2212"/>
       <use x="58.398438" xlink:href="#ArialMT-32"/>
       <use x="114.013672" xlink:href="#ArialMT-30"/>
      </g>
     </g>
    </g>
    <g id="ytick_3">
     <g id="text_12">
      <!-- −15 -->
      <g style="fill:#262626;" transform="translate(77.14125 350.482877)scale(0.11 -0.11)">
       <use xlink:href="#ArialMT-2212"/>
       <use x="58.398438" xlink:href="#ArialMT-31"/>
       <use x="114.013672" xlink:href="#ArialMT-35"/>
      </g>
     </g>
    </g>
    <g id="ytick_4">
     <g id="text_13">
      <!-- −10 -->
      <g style="fill:#262626;" transform="translate(77.14125 258.785117)scale(0.11 -0.11)">
       <use xlink:href="#ArialMT-2212"/>
       <use x="58.398438" xlink:href="#ArialMT-31"/>
       <use x="114.013672" xlink:href="#ArialMT-30"/>
      </g>
     </g>
    </g>
    <g id="ytick_5">
     <g id="text_14">
      <!-- −5 -->
      <g style="fill:#262626;" transform="translate(83.258281 167.087357)scale(0.11 -0.11)">
       <use xlink:href="#ArialMT-2212"/>
       <use x="58.398438" xlink:href="#ArialMT-35"/>
      </g>
     </g>
    </g>
    <g id="ytick_6">
     <g id="text_15">
      <!-- 0 -->
      <g style="fill:#262626;" transform="translate(89.682969 75.389597)scale(0.11 -0.11)">
       <use xlink:href="#ArialMT-30"/>
      </g>
     </g>
    </g>
   </g>
   <g id="line2d_1">
    <path clip-path="url(#p18ec64e016)" d="M 134.975455 399.828718 
L 137.899145 402.252966 
L 140.822835 399.949573 
L 143.746525 399.440545 
L 146.670215 405.120305 
L 149.593905 400.516738 
L 152.517595 402.447244 
L 155.441285 401.68811 
L 158.364975 405.132513 
L 161.288665 402.491704 
L 167.136046 406.642246 
L 170.059736 418.34177 
L 172.983426 427.42658 
L 175.907116 433.574685 
L 178.830806 461.866759 
L 181.754496 478.447451 
L 184.678186 433.40986 
L 187.601876 426.929095 
L 190.525567 518.646409 
L 193.449257 465.707974 
L 196.372947 424.192266 
L 199.296637 455.579433 
L 202.220327 390.324673 
L 205.144017 401.77633 
L 208.067707 545.45383 
L 210.991397 465.352263 
L 213.915087 415.844973 
L 216.838777 441.347608 
L 219.762468 443.57401 
L 222.686158 449.623053 
L 225.609848 477.22938 
L 228.533538 509.652757 
L 231.457228 470.168578 
L 234.380918 379.394428 
L 237.304608 482.582357 
L 240.228298 477.886863 
L 243.151988 428.75057 
L 246.075678 408.485233 
L 248.999369 443.054698 
L 251.923059 523.560703 
L 254.846749 541.751206 
L 257.770439 546.38587 
L 260.694129 447.356809 
L 263.617819 486.959464 
L 266.541509 342.696837 
L 269.465199 333.189645 
L 272.388889 410.477375 
L 275.312579 461.7685 
L 278.23627 495.19811 
L 281.15996 475.323919 
L 284.08365 409.116831 
L 287.00734 405.574764 
L 289.93103 477.07246 
L 292.85472 461.537318 
L 295.77841 425.461653 
L 298.7021 487.623593 
L 301.62579 449.07943 
L 304.549481 476.991062 
L 307.473171 480.220583 
L 310.396861 511.067905 
L 313.320551 461.484324 
L 316.244241 476.239133 
L 319.167931 467.350071 
L 322.091621 485.305579 
L 325.015311 377.611991 
L 327.939001 413.626477 
L 330.862691 424.486867 
L 333.786382 423.449363 
L 336.710072 416.984969 
L 339.633762 512.115728 
L 342.557452 525.200562 
L 345.481142 414.67409 
L 348.404832 462.992133 
L 351.328522 461.161879 
L 354.252212 475.248397 
L 357.175902 488.29909 
L 360.099592 438.7925 
L 363.023283 488.900255 
L 365.946973 420.633409 
L 368.870663 486.378343 
L 371.794353 483.911314 
L 374.718043 496.116543 
L 377.641733 517.178407 
L 380.565423 529.901688 
L 383.489113 455.127178 
L 386.412803 348.522288 
L 389.336494 390.926958 
L 392.260184 456.045506 
L 395.183874 475.457157 
L 398.107564 472.172998 
L 401.031254 444.338216 
L 403.954944 415.142472 
L 406.878634 432.277175 
L 409.802324 368.769173 
L 412.726014 347.533336 
L 415.649704 435.517225 
L 418.573395 444.660137 
L 421.497085 451.176161 
L 424.420775 532.933433 
L 427.344465 454.152742 
L 430.268155 488.837711 
L 433.191845 490.696439 
L 436.115535 391.814748 
L 439.039225 409.349832 
L 441.962915 457.171265 
L 444.886605 435.20447 
L 447.810296 395.496559 
L 450.733986 387.786426 
L 453.657676 430.428347 
L 456.581366 408.584611 
L 459.505056 493.172073 
L 462.428746 431.003521 
L 465.352436 429.822215 
L 468.276126 448.111745 
L 471.199816 493.256724 
L 474.123506 506.22525 
L 477.047197 440.810876 
L 479.970887 279.458635 
L 482.894577 362.066181 
L 485.818267 402.96862 
L 488.741957 451.689456 
L 491.665647 429.036391 
L 494.589337 361.810477 
L 497.513027 404.079163 
L 503.360408 320.98732 
L 506.284098 372.64124 
L 509.207788 499.258824 
L 512.131478 524.731551 
L 515.055168 528.020433 
L 517.978858 414.412091 
L 520.902548 450.937388 
L 523.826238 462.435183 
L 526.749928 423.725844 
L 529.673618 479.830557 
L 532.597309 487.507075 
L 535.520999 386.225237 
L 538.444689 379.656183 
L 541.368379 449.607522 
L 544.292069 432.978348 
L 547.215759 406.572076 
L 550.139449 464.395877 
L 553.063139 333.96821 
L 555.986829 401.885887 
L 558.910519 377.885254 
L 561.83421 391.036865 
L 564.7579 464.099212 
L 567.68159 398.298136 
L 570.60528 359.772512 
L 573.52897 314.164242 
L 576.45266 336.236326 
L 579.37635 379.472608 
L 582.30004 358.047443 
L 585.22373 322.767238 
L 588.147421 329.141996 
L 591.071111 317.790855 
L 593.994801 366.087787 
L 596.918491 335.734119 
L 599.842181 404.51998 
L 602.765871 397.968136 
L 605.689561 372.106852 
L 608.613251 381.552164 
L 611.536941 431.184228 
L 614.460631 413.100239 
L 617.384322 336.248971 
L 620.308012 424.89134 
L 623.231702 420.675106 
L 626.155392 411.391715 
L 629.079082 392.555623 
L 632.002772 350.752188 
L 634.926462 354.82567 
L 637.850152 415.526586 
L 640.773842 391.797503 
L 643.697532 398.599593 
L 646.621223 421.969153 
L 649.544913 449.245095 
L 652.468603 513.678456 
L 655.392293 460.449093 
L 658.315983 401.036329 
L 661.239673 480.500667 
L 664.163363 450.658563 
L 667.087053 520.392012 
L 670.010743 476.150494 
L 672.934433 451.193581 
L 675.858124 522.933653 
L 678.781814 495.411837 
L 681.705504 508.913596 
L 684.629194 528.18288 
L 687.552884 435.10023 
L 690.476574 516.032255 
L 693.400264 381.582352 
L 696.323954 363.923754 
L 699.247644 352.283574 
L 702.171335 381.229789 
L 705.095025 400.709722 
L 708.018715 408.650688 
L 710.942405 412.116744 
L 713.866095 411.156405 
L 716.789785 409.889957 
L 719.713475 408.254331 
L 722.637165 411.093791 
L 725.560855 410.78985 
L 728.484545 418.079421 
L 728.484545 418.079421 
" style="fill:none;stroke:#4c72b0;stroke-linecap:round;stroke-width:1.5;"/>
   </g>
   <g id="line2d_2">
    <path clip-path="url(#p18ec64e016)" d="M 134.975455 391.135228 
L 137.899145 395.467491 
L 140.822835 395.72281 
L 143.746525 395.001349 
L 146.670215 398.458239 
L 149.593905 396.036754 
L 152.517595 397.583951 
L 155.441285 394.711435 
L 158.364975 395.402708 
L 161.288665 393.448205 
L 164.212356 394.708042 
L 167.136046 393.818328 
L 170.059736 401.341144 
L 172.983426 407.496351 
L 175.907116 417.129051 
L 178.830806 448.157324 
L 181.754496 470.865378 
L 184.678186 441.93618 
L 187.601876 402.630574 
L 190.525567 506.823721 
L 193.449257 446.163119 
L 196.372947 418.01971 
L 199.296637 434.867473 
L 202.220327 388.858 
L 205.144017 424.833483 
L 208.067707 551.091893 
L 210.991397 479.945186 
L 213.915087 401.377488 
L 216.838777 440.367821 
L 219.762468 439.479855 
L 222.686158 458.3808 
L 225.609848 470.728362 
L 228.533538 490.358533 
L 231.457228 469.880379 
L 234.380918 374.73115 
L 237.304608 464.007355 
L 240.228298 470.987528 
L 243.151988 421.757944 
L 246.075678 408.863471 
L 248.999369 474.31216 
L 251.923059 527.186407 
L 254.846749 536.207343 
L 257.770439 548.638227 
L 260.694129 454.327782 
L 263.617819 483.599188 
L 266.541509 345.079302 
L 269.465199 328.702753 
L 272.388889 416.573325 
L 275.312579 474.265566 
L 278.23627 497.942424 
L 281.15996 485.66129 
L 284.08365 401.6624 
L 287.00734 397.482999 
L 289.93103 479.147539 
L 292.85472 465.610975 
L 295.77841 410.194702 
L 298.7021 473.150791 
L 301.62579 437.037348 
L 304.549481 481.838054 
L 307.473171 491.712501 
L 310.396861 492.704776 
L 313.320551 480.8611 
L 316.244241 481.616352 
L 319.167931 492.016371 
L 322.091621 492.503397 
L 325.015311 355.859029 
L 327.939001 399.943347 
L 330.862691 409.019377 
L 333.786382 390.398901 
L 336.710072 428.373976 
L 339.633762 509.982932 
L 342.557452 502.780392 
L 345.481142 395.891448 
L 348.404832 411.895181 
L 351.328522 412.860452 
L 354.252212 455.005658 
L 357.175902 323.766055 
L 360.099592 217.765268 
L 363.023283 211.894955 
L 365.946973 281.424244 
L 368.870663 337.185873 
L 371.794353 357.104139 
L 374.718043 340.30101 
L 377.641733 356.498427 
L 380.565423 439.655979 
L 383.489113 343.219175 
L 386.412803 325.85656 
L 389.336494 347.964271 
L 392.260184 427.196202 
L 395.183874 452.477379 
L 398.107564 436.616014 
L 401.031254 411.805247 
L 403.954944 424.243897 
L 409.802324 366.025033 
L 412.726014 368.166678 
L 415.649704 401.579602 
L 418.573395 409.731638 
L 421.497085 426.382744 
L 424.420775 493.651473 
L 427.344465 413.835062 
L 430.268155 446.752076 
L 433.191845 456.426787 
L 436.115535 378.106747 
L 441.962915 479.411008 
L 444.886605 412.241412 
L 447.810296 362.649943 
L 450.733986 404.234928 
L 453.657676 408.221974 
L 456.581366 410.350048 
L 459.505056 499.651263 
L 462.428746 427.968559 
L 465.352436 441.198909 
L 468.276126 434.511727 
L 471.199816 498.28904 
L 474.123506 486.517738 
L 477.047197 454.459166 
L 479.970887 271.554887 
L 482.894577 364.957621 
L 485.818267 415.390059 
L 488.741957 457.668539 
L 491.665647 436.66649 
L 494.589337 339.351987 
L 497.513027 400.054198 
L 500.436717 365.667573 
L 503.360408 316.127682 
L 506.284098 381.329132 
L 509.207788 475.731365 
L 512.131478 504.868239 
L 515.055168 519.551899 
L 517.978858 415.549953 
L 520.902548 451.951106 
L 523.826238 468.316007 
L 526.749928 433.909163 
L 529.673618 483.906102 
L 532.597309 488.087112 
L 535.520999 390.952388 
L 538.444689 384.497718 
L 541.368379 437.130674 
L 544.292069 451.258819 
L 547.215759 392.19533 
L 550.139449 445.207363 
L 553.063139 346.352868 
L 555.986829 359.076464 
L 558.910519 308.273029 
L 561.83421 290.620307 
L 564.7579 374.968734 
L 567.68159 343.662231 
L 570.60528 437.476276 
L 573.52897 132.624262 
L 576.45266 252.670925 
L 579.37635 330.551407 
L 582.30004 279.048215 
L 585.22373 289.500548 
L 588.147421 295.086648 
L 591.071111 307.014871 
L 593.994801 357.857641 
L 596.918491 303.894365 
L 599.842181 452.420292 
L 602.765871 404.08378 
L 605.689561 383.078723 
L 608.613251 416.865757 
L 611.536941 448.329355 
L 614.460631 449.676082 
L 617.384322 437.022131 
L 620.308012 467.541202 
L 623.231702 427.626 
L 626.155392 449.789662 
L 629.079082 403.669688 
L 632.002772 380.581577 
L 634.926462 379.665557 
L 637.850152 406.864019 
L 640.773842 408.004259 
L 643.697532 393.873491 
L 646.621223 423.383426 
L 649.544913 455.565686 
L 652.468603 505.794122 
L 655.392293 465.42691 
L 658.315983 396.922026 
L 661.239673 496.585099 
L 664.163363 452.999419 
L 667.087053 517.191769 
L 670.010743 479.534522 
L 672.934433 447.910786 
L 675.858124 522.8079 
L 678.781814 505.360441 
L 681.705504 511.485915 
L 684.629194 533.043269 
L 687.552884 429.308569 
L 690.476574 497.921192 
L 693.400264 405.900217 
L 696.323954 379.729326 
L 699.247644 350.332639 
L 702.171335 376.549231 
L 705.095025 398.670043 
L 708.018715 408.448399 
L 710.942405 412.738652 
L 713.866095 410.217054 
L 716.789785 410.841306 
L 719.713475 407.957141 
L 722.637165 410.45107 
L 725.560855 411.617685 
L 728.484545 412.632662 
L 728.484545 412.632662 
" style="fill:none;stroke:#dd8452;stroke-dasharray:6,2.25;stroke-dashoffset:0;stroke-width:1.5;"/>
   </g>
   <g id="line2d_3">
    <path clip-path="url(#p18ec64e016)" d="M 134.975455 402.800612 
L 137.899145 407.545533 
L 140.822835 405.804897 
L 143.746525 403.281585 
L 146.670215 411.79164 
L 149.593905 405.248646 
L 152.517595 406.862725 
L 155.441285 404.537784 
L 158.364975 408.915311 
L 161.288665 405.078049 
L 164.212356 406.736167 
L 167.136046 399.928096 
L 170.059736 396.582091 
L 175.907116 419.04693 
L 178.830806 437.959138 
L 181.754496 466.093698 
L 184.678186 376.088826 
L 187.601876 390.308058 
L 190.525567 411.6357 
L 193.449257 392.107145 
L 196.372947 381.130831 
L 199.296637 386.336893 
L 202.220327 390.259611 
L 205.144017 362.981203 
L 208.067707 330.548434 
L 210.991397 338.653946 
L 213.915087 384.708123 
L 216.838777 447.059444 
L 219.762468 455.999717 
L 222.686158 451.757247 
L 225.609848 430.460913 
L 228.533538 451.566012 
L 231.457228 463.884646 
L 234.380918 392.69988 
L 237.304608 485.251745 
L 240.228298 482.566336 
L 243.151988 429.306715 
L 246.075678 384.59923 
L 248.999369 476.901303 
L 251.923059 514.880821 
L 254.846749 564.832461 
L 257.770439 562.845951 
L 260.694129 452.644163 
L 263.617819 482.715316 
L 266.541509 340.419067 
L 269.465199 351.128187 
L 272.388889 374.799151 
L 275.312579 430.000087 
L 278.23627 448.805257 
L 281.15996 399.721084 
L 284.08365 393.341237 
L 287.00734 277.530454 
L 289.93103 342.712893 
L 292.85472 315.884641 
L 295.77841 353.818213 
L 298.7021 440.303003 
L 301.62579 423.621044 
L 304.549481 432.175279 
L 307.473171 444.797853 
L 310.396861 515.281866 
L 313.320551 500.829142 
L 316.244241 491.939171 
L 319.167931 513.722146 
L 322.091621 524.738302 
L 325.015311 384.949169 
L 327.939001 404.111344 
L 330.862691 433.491153 
L 333.786382 440.300834 
L 336.710072 446.498261 
L 339.633762 550.176959 
L 342.557452 578.684124 
L 345.481142 449.899324 
L 348.404832 500.565848 
L 351.328522 539.973806 
L 354.252212 508.968025 
L 357.175902 516.670184 
L 360.099592 309.462083 
L 363.023283 289.623275 
L 365.946973 346.652961 
L 368.870663 393.07357 
L 371.794353 280.180148 
L 374.718043 363.751251 
L 377.641733 369.554402 
L 380.565423 381.398428 
L 383.489113 315.979437 
L 386.412803 317.557276 
L 389.336494 346.843025 
L 392.260184 418.880356 
L 395.183874 440.252667 
L 398.107564 487.80297 
L 401.031254 429.815603 
L 403.954944 426.16377 
L 406.878634 398.166892 
L 409.802324 406.985049 
L 412.726014 368.077829 
L 415.649704 459.522999 
L 418.573395 479.165274 
L 421.497085 453.52027 
L 424.420775 504.004724 
L 427.344465 420.141977 
L 430.268155 424.862377 
L 436.115535 316.738134 
L 439.039225 338.939137 
L 441.962915 366.996006 
L 444.886605 386.655595 
L 447.810296 372.042209 
L 450.733986 326.854694 
L 453.657676 329.516981 
L 456.581366 411.122194 
L 459.505056 525.654041 
L 462.428746 427.433856 
L 465.352436 466.921113 
L 468.276126 433.875233 
L 471.199816 471.856709 
L 474.123506 442.630182 
L 477.047197 436.015059 
L 479.970887 297.807054 
L 482.894577 365.947727 
L 485.818267 398.798664 
L 488.741957 447.608244 
L 491.665647 371.537169 
L 494.589337 288.674654 
L 497.513027 318.382662 
L 500.436717 270.623267 
L 503.360408 281.299505 
L 506.284098 292.567902 
L 509.207788 404.424274 
L 512.131478 363.319074 
L 515.055168 337.914592 
L 517.978858 316.298909 
L 520.902548 314.631538 
L 523.826238 352.468443 
L 526.749928 450.126029 
L 529.673618 431.079043 
L 532.597309 424.357547 
L 535.520999 389.257856 
L 538.444689 418.604224 
L 541.368379 461.740237 
L 544.292069 488.243787 
L 547.215759 414.661952 
L 550.139449 396.98513 
L 555.986829 259.158983 
L 558.910519 344.709774 
L 561.83421 347.911609 
L 564.7579 406.742709 
L 567.68159 402.875084 
L 570.60528 346.440668 
L 573.52897 306.806863 
L 576.45266 367.794562 
L 579.37635 346.575026 
L 582.30004 320.258163 
L 585.22373 366.80512 
L 588.147421 275.319583 
L 591.071111 202.390168 
L 593.994801 207.416791 
L 596.918491 204.977501 
L 599.842181 291.051137 
L 602.765871 252.65375 
L 605.689561 333.726254 
L 608.613251 333.632071 
L 611.536941 393.098511 
L 614.460631 405.413402 
L 617.384322 367.028117 
L 620.308012 426.224355 
L 623.231702 418.924885 
L 626.155392 431.454308 
L 629.079082 393.872477 
L 632.002772 397.718239 
L 634.926462 369.816401 
L 640.773842 402.057953 
L 643.697532 429.921173 
L 646.621223 422.506969 
L 649.544913 442.275835 
L 652.468603 423.647524 
L 655.392293 504.16822 
L 658.315983 383.901801 
L 661.239673 378.65107 
L 664.163363 329.883693 
L 667.087053 364.464701 
L 670.010743 335.542307 
L 672.934433 376.811511 
L 675.858124 534.503331 
L 678.781814 457.248745 
L 681.705504 390.106574 
L 684.629194 438.435495 
L 687.552884 496.131549 
L 690.476574 457.058629 
L 693.400264 409.792608 
L 696.323954 380.569648 
L 699.247644 348.599471 
L 702.171335 359.329369 
L 705.095025 390.292177 
L 708.018715 405.397975 
L 710.942405 410.961252 
L 713.866095 408.118294 
L 716.789785 408.593531 
L 719.713475 405.95587 
L 722.637165 407.770384 
L 725.560855 409.886179 
L 728.484545 406.01677 
L 728.484545 406.01677 
" style="fill:none;stroke:#55a868;stroke-dasharray:1.5,1.5;stroke-dashoffset:0;stroke-width:1.5;"/>
   </g>
   <g id="line2d_4">
    <path clip-path="url(#p18ec64e016)" d="M 134.975455 391.721946 
L 137.899145 396.148026 
L 140.822835 396.332964 
L 143.746525 395.402708 
L 146.670215 399.189949 
L 149.593905 396.609061 
L 152.517595 398.205824 
L 155.441285 395.457102 
L 158.364975 396.267762 
L 161.288665 394.353206 
L 164.212356 395.40813 
L 167.136046 394.628743 
L 170.059736 402.194235 
L 172.983426 408.278327 
L 175.907116 417.609605 
L 178.830806 448.819844 
L 181.754496 471.546612 
L 184.678186 442.114088 
L 187.601876 403.058239 
L 190.525567 508.468442 
L 193.449257 448.714904 
L 196.372947 417.847469 
L 199.296637 436.591773 
L 202.220327 391.256993 
L 205.144017 424.338273 
L 208.067707 554.631477 
L 210.991397 473.79834 
L 213.915087 407.827506 
L 216.838777 435.375242 
L 219.762468 442.804627 
L 222.686158 459.972002 
L 225.609848 470.550804 
L 228.533538 491.885686 
L 231.457228 470.829139 
L 234.380918 375.781667 
L 237.304608 469.923474 
L 240.228298 474.923434 
L 243.151988 424.693389 
L 246.075678 411.676311 
L 248.999369 474.288093 
L 251.923059 528.042715 
L 254.846749 536.871997 
L 257.770439 547.724062 
L 260.694129 452.312799 
L 263.617819 481.465378 
L 266.541509 339.182317 
L 269.465199 327.242551 
L 272.388889 412.018205 
L 275.312579 478.809913 
L 278.23627 499.887868 
L 281.15996 481.581407 
L 284.08365 402.695987 
L 287.00734 409.100635 
L 289.93103 484.5278 
L 292.85472 460.946682 
L 295.77841 411.145561 
L 298.7021 472.972953 
L 301.62579 439.506125 
L 304.549481 486.578813 
L 307.473171 491.963062 
L 310.396861 492.954603 
L 313.320551 477.975012 
L 316.244241 482.334944 
L 319.167931 493.447855 
L 322.091621 500.586836 
L 325.015311 353.562282 
L 327.939001 393.795311 
L 330.862691 419.672721 
L 333.786382 396.435281 
L 336.710072 438.949525 
L 339.633762 524.906765 
L 342.557452 517.490673 
L 345.481142 411.850791 
L 348.404832 386.693758 
L 351.328522 535.30605 
L 354.252212 355.73541 
L 357.175902 358.267431 
L 360.099592 239.902782 
L 363.023283 359.509568 
L 365.946973 294.538688 
L 368.870663 368.218204 
L 371.794353 380.763472 
L 374.718043 378.047526 
L 377.641733 367.577057 
L 380.565423 454.700703 
L 383.489113 347.087779 
L 386.412803 330.165841 
L 389.336494 351.301268 
L 392.260184 427.428434 
L 395.183874 452.040515 
L 398.107564 445.250493 
L 401.031254 420.070897 
L 403.954944 418.118318 
L 406.878634 384.918002 
L 409.802324 367.156913 
L 412.726014 369.750289 
L 415.649704 407.076557 
L 418.573395 408.338842 
L 421.497085 431.1461 
L 424.420775 504.087172 
L 427.344465 416.300587 
L 430.268155 442.943147 
L 433.191845 451.74504 
L 436.115535 375.348895 
L 441.962915 479.454488 
L 444.886605 412.572007 
L 447.810296 364.282246 
L 450.733986 403.262032 
L 453.657676 417.387588 
L 456.581366 415.292081 
L 459.505056 500.84107 
L 462.428746 429.531601 
L 465.352436 446.11698 
L 468.276126 431.540463 
L 471.199816 494.713778 
L 474.123506 491.796138 
L 477.047197 462.110394 
L 479.970887 275.380431 
L 482.894577 367.803027 
L 485.818267 417.547271 
L 488.741957 458.238712 
L 491.665647 437.745271 
L 494.589337 340.744555 
L 497.513027 401.788922 
L 500.436717 366.214414 
L 503.360408 315.68265 
L 506.284098 377.409458 
L 509.207788 478.468124 
L 512.131478 503.990942 
L 515.055168 522.45177 
L 517.978858 410.77264 
L 520.902548 446.609218 
L 523.826238 469.255602 
L 526.749928 432.089753 
L 529.673618 475.010953 
L 532.597309 491.06852 
L 535.520999 406.301822 
L 538.444689 397.209106 
L 541.368379 447.076934 
L 544.292069 460.020484 
L 547.215759 386.208656 
L 550.139449 439.839344 
L 553.063139 303.090596 
L 555.986829 365.403615 
L 558.910519 368.284071 
L 561.83421 344.641878 
L 564.7579 367.534032 
L 567.68159 236.344065 
L 570.60528 291.109134 
L 573.52897 251.460917 
L 576.45266 306.914776 
L 579.37635 339.803386 
L 582.30004 298.533167 
L 585.22373 323.553359 
L 588.147421 290.035006 
L 591.071111 307.952857 
L 593.994801 388.340857 
L 596.918491 332.372549 
L 599.842181 451.930958 
L 602.765871 419.784482 
L 605.689561 391.368649 
L 608.613251 421.648002 
L 611.536941 446.364848 
L 614.460631 453.278104 
L 617.384322 435.97081 
L 620.308012 468.012101 
L 623.231702 432.070269 
L 626.155392 448.989251 
L 629.079082 405.123348 
L 632.002772 378.146729 
L 634.926462 381.926065 
L 637.850152 407.977465 
L 640.773842 412.328022 
L 643.697532 396.643726 
L 646.621223 429.576446 
L 649.544913 455.430699 
L 652.468603 507.446993 
L 655.392293 467.439305 
L 658.315983 395.436989 
L 661.239673 494.577496 
L 664.163363 451.820736 
L 667.087053 516.961426 
L 670.010743 481.665603 
L 672.934433 449.686436 
L 675.858124 523.404798 
L 678.781814 506.730954 
L 681.705504 510.470203 
L 684.629194 533.715199 
L 687.552884 429.160115 
L 690.476574 498.416892 
L 693.400264 404.709606 
L 699.247644 351.510867 
L 702.171335 376.676209 
L 705.095025 398.427107 
L 708.018715 408.605844 
L 710.942405 413.423943 
L 713.866095 411.365375 
L 716.789785 411.305209 
L 719.713475 408.604165 
L 722.637165 411.230317 
L 725.560855 412.354292 
L 728.484545 413.307495 
L 728.484545 413.307495 
" style="fill:none;stroke:#c44e52;stroke-dasharray:4.5,1.875,2.25,1.875;stroke-dashoffset:0;stroke-width:1.5;"/>
   </g>
   <g id="line2d_5">
    <path clip-path="url(#p18ec64e016)" d="M 134.975455 392.838925 
L 137.899145 397.19403 
L 140.822835 397.68207 
L 143.746525 396.344403 
L 146.670215 400.838133 
L 149.593905 398.136389 
L 152.517595 400.31277 
L 155.441285 397.592696 
L 158.364975 398.519734 
L 161.288665 396.810685 
L 164.212356 396.870116 
L 167.136046 395.78378 
L 170.059736 403.820416 
L 172.983426 409.213235 
L 175.907116 417.149794 
L 178.830806 447.210697 
L 181.754496 473.986671 
L 184.678186 433.121416 
L 187.601876 419.499605 
L 190.525567 513.642462 
L 193.449257 455.515035 
L 196.372947 424.438805 
L 199.296637 446.209712 
L 202.220327 393.99683 
L 205.144017 419.543085 
L 208.067707 559.645953 
L 210.991397 485.853049 
L 213.915087 404.718316 
L 216.838777 444.084892 
L 219.762468 439.292468 
L 222.686158 457.777467 
L 225.609848 478.678528 
L 228.533538 497.636175 
L 231.457228 473.925002 
L 234.380918 374.515779 
L 237.304608 471.391721 
L 240.228298 474.287114 
L 243.151988 422.255009 
L 246.075678 406.634271 
L 248.999369 464.491232 
L 251.923059 531.1879 
L 254.846749 540.926134 
L 257.770439 553.314622 
L 260.694129 455.382496 
L 263.617819 486.424237 
L 266.541509 342.186987 
L 269.465199 330.099834 
L 272.388889 414.319464 
L 275.312579 478.41387 
L 278.23627 507.702277 
L 281.15996 497.661081 
L 284.08365 417.520232 
L 287.00734 413.302563 
L 289.93103 485.588986 
L 292.85472 462.623305 
L 295.77841 410.361031 
L 298.7021 466.143964 
L 301.62579 437.970962 
L 304.549481 482.526179 
L 307.473171 486.797822 
L 310.396861 501.987887 
L 313.320551 477.544619 
L 316.244241 470.071824 
L 319.167931 493.39423 
L 322.091621 511.213596 
L 325.015311 368.787817 
L 327.939001 357.083256 
L 330.862691 348.368884 
L 333.786382 355.067083 
L 336.710072 380.324299 
L 339.633762 444.236985 
L 342.557452 460.103876 
L 345.481142 389.790775 
L 348.404832 429.410816 
L 351.328522 457.001157 
L 354.252212 510.564439 
L 357.175902 505.143006 
L 360.099592 444.402964 
L 363.023283 501.497888 
L 365.946973 404.779635 
L 368.870663 457.073076 
L 371.794353 416.4857 
L 374.718043 428.348196 
L 377.641733 474.563525 
L 380.565423 533.122919 
L 383.489113 445.048624 
L 386.412803 349.668388 
L 389.336494 383.229696 
L 392.260184 461.089715 
L 395.183874 481.225626 
L 398.107564 450.913462 
L 401.031254 450.330452 
L 403.954944 430.387875 
L 406.878634 409.670458 
L 409.802324 399.174348 
L 412.726014 377.949058 
L 415.649704 456.996855 
L 418.573395 436.991874 
L 421.497085 456.225617 
L 424.420775 528.820599 
L 427.344465 432.395337 
L 430.268155 445.535404 
L 433.191845 456.11697 
L 436.115535 377.844083 
L 439.039225 427.189381 
L 441.962915 478.671357 
L 444.886605 418.592191 
L 447.810296 375.15808 
L 450.733986 409.811427 
L 453.657676 407.316799 
L 456.581366 410.286804 
L 459.505056 474.73031 
L 462.428746 416.244899 
L 465.352436 434.860162 
L 468.276126 435.03877 
L 471.199816 499.150876 
L 474.123506 495.792034 
L 477.047197 454.394139 
L 479.970887 276.102486 
L 482.894577 369.300308 
L 485.818267 420.672692 
L 488.741957 393.162314 
L 491.665647 455.894113 
L 494.589337 315.576398 
L 497.513027 381.659868 
L 500.436717 357.369619 
L 503.360408 358.935723 
L 506.284098 469.106798 
L 509.207788 381.105226 
L 512.131478 369.16574 
L 515.055168 283.493481 
L 517.978858 329.833776 
L 520.902548 365.364507 
L 523.826238 340.315124 
L 526.749928 341.924568 
L 529.673618 321.950597 
L 532.597309 312.273892 
L 535.520999 377.480082 
L 541.368379 318.11218 
L 544.292069 240.32004 
L 547.215759 248.37177 
L 550.139449 226.604798 
L 553.063139 183.442647 
L 555.986829 189.267337 
L 558.910519 202.845676 
L 561.83421 263.817066 
L 564.7579 300.120241 
L 567.68159 254.961288 
L 570.60528 261.652631 
L 573.52897 285.367128 
L 576.45266 323.701219 
L 579.37635 346.892626 
L 582.30004 267.688609 
L 585.22373 296.60705 
L 588.147421 286.433333 
L 591.071111 291.564608 
L 593.994801 371.145988 
L 596.918491 344.074416 
L 599.842181 424.438875 
L 602.765871 420.260209 
L 605.689561 395.530665 
L 608.613251 407.235716 
L 611.536941 438.387677 
L 614.460631 442.101845 
L 617.384322 418.242882 
L 620.308012 464.28583 
L 623.231702 429.948457 
L 626.155392 436.498552 
L 629.079082 400.08533 
L 632.002772 374.758609 
L 634.926462 377.755094 
L 637.850152 400.123598 
L 640.773842 389.613182 
L 643.697532 384.196122 
L 646.621223 413.399702 
L 649.544913 431.23285 
L 652.468603 493.881396 
L 655.392293 453.934258 
L 658.315983 385.257867 
L 661.239673 477.740017 
L 664.163363 439.162553 
L 667.087053 511.279743 
L 670.010743 480.136736 
L 672.934433 450.671226 
L 675.858124 513.742609 
L 678.781814 494.235323 
L 681.705504 506.524153 
L 684.629194 521.229781 
L 687.552884 417.062694 
L 690.476574 476.086096 
L 693.400264 390.581426 
L 696.323954 370.272749 
L 699.247644 350.911556 
L 702.171335 379.801559 
L 705.095025 402.72523 
L 708.018715 409.646462 
L 710.942405 413.348596 
L 713.866095 412.033561 
L 716.789785 412.307629 
L 719.713475 410.25952 
L 722.637165 410.85967 
L 725.560855 412.951015 
L 728.484545 412.882104 
L 728.484545 412.882104 
" style="fill:none;stroke:#8172b3;stroke-dasharray:7.5,1.5,1.5,1.5;stroke-dashoffset:0;stroke-width:1.5;"/>
   </g>
   <g id="line2d_6"/>
   <g id="line2d_7"/>
   <g id="line2d_8"/>
   <g id="line2d_9"/>
   <g id="line2d_10"/>
   <g id="patch_3">
    <path d="M 105.3 529.9416 
L 105.3 71.4528 
" style="fill:none;stroke:#262626;stroke-linecap:square;stroke-linejoin:miter;stroke-width:1.25;"/>
   </g>
   <g id="patch_4">
    <path d="M 758.16 529.9416 
L 758.16 71.4528 
" style="fill:none;stroke:#262626;stroke-linecap:square;stroke-linejoin:miter;stroke-width:1.25;"/>
   </g>
   <g id="patch_5">
    <path d="M 105.3 529.9416 
L 758.16 529.9416 
" style="fill:none;stroke:#262626;stroke-linecap:square;stroke-linejoin:miter;stroke-width:1.25;"/>
   </g>
   <g id="patch_6">
    <path d="M 105.3 71.4528 
L 758.16 71.4528 
" style="fill:none;stroke:#262626;stroke-linecap:square;stroke-linejoin:miter;stroke-width:1.25;"/>
   </g>
   <g id="text_16">
    <!-- Activations for &gt;)&lt; -->
    <g style="fill:#262626;" transform="translate(383.376563 65.4528)scale(0.12 -0.12)">
     <defs>
      <path d="M -9 0 
L 1750 4581 
L 2403 4581 
L 4278 0 
L 3588 0 
L 3053 1388 
L 1138 1388 
L 634 0 
L -9 0 
z
M 1313 1881 
L 2866 1881 
L 2388 3150 
Q 2169 3728 2063 4100 
Q 1975 3659 1816 3225 
L 1313 1881 
z
" id="ArialMT-41" transform="scale(0.015625)"/>
      <path d="M 2588 1216 
L 3141 1144 
Q 3050 572 2676 248 
Q 2303 -75 1759 -75 
Q 1078 -75 664 370 
Q 250 816 250 1647 
Q 250 2184 428 2587 
Q 606 2991 970 3192 
Q 1334 3394 1763 3394 
Q 2303 3394 2647 3120 
Q 2991 2847 3088 2344 
L 2541 2259 
Q 2463 2594 2264 2762 
Q 2066 2931 1784 2931 
Q 1359 2931 1093 2626 
Q 828 2322 828 1663 
Q 828 994 1084 691 
Q 1341 388 1753 388 
Q 2084 388 2306 591 
Q 2528 794 2588 1216 
z
" id="ArialMT-63" transform="scale(0.015625)"/>
      <path d="M 1650 503 
L 1731 6 
Q 1494 -44 1306 -44 
Q 1000 -44 831 53 
Q 663 150 594 308 
Q 525 466 525 972 
L 525 2881 
L 113 2881 
L 113 3319 
L 525 3319 
L 525 4141 
L 1084 4478 
L 1084 3319 
L 1650 3319 
L 1650 2881 
L 1084 2881 
L 1084 941 
Q 1084 700 1114 631 
Q 1144 563 1211 522 
Q 1278 481 1403 481 
Q 1497 481 1650 503 
z
" id="ArialMT-74" transform="scale(0.015625)"/>
      <path d="M 425 3934 
L 425 4581 
L 988 4581 
L 988 3934 
L 425 3934 
z
M 425 0 
L 425 3319 
L 988 3319 
L 988 0 
L 425 0 
z
" id="ArialMT-69" transform="scale(0.015625)"/>
      <path d="M 1344 0 
L 81 3319 
L 675 3319 
L 1388 1331 
Q 1503 1009 1600 663 
Q 1675 925 1809 1294 
L 2547 3319 
L 3125 3319 
L 1869 0 
L 1344 0 
z
" id="ArialMT-76" transform="scale(0.015625)"/>
      <path d="M 2588 409 
Q 2275 144 1986 34 
Q 1697 -75 1366 -75 
Q 819 -75 525 192 
Q 231 459 231 875 
Q 231 1119 342 1320 
Q 453 1522 633 1644 
Q 813 1766 1038 1828 
Q 1203 1872 1538 1913 
Q 2219 1994 2541 2106 
Q 2544 2222 2544 2253 
Q 2544 2597 2384 2738 
Q 2169 2928 1744 2928 
Q 1347 2928 1158 2789 
Q 969 2650 878 2297 
L 328 2372 
Q 403 2725 575 2942 
Q 747 3159 1072 3276 
Q 1397 3394 1825 3394 
Q 2250 3394 2515 3294 
Q 2781 3194 2906 3042 
Q 3031 2891 3081 2659 
Q 3109 2516 3109 2141 
L 3109 1391 
Q 3109 606 3145 398 
Q 3181 191 3288 0 
L 2700 0 
Q 2613 175 2588 409 
z
M 2541 1666 
Q 2234 1541 1622 1453 
Q 1275 1403 1131 1340 
Q 988 1278 909 1158 
Q 831 1038 831 891 
Q 831 666 1001 516 
Q 1172 366 1500 366 
Q 1825 366 2078 508 
Q 2331 650 2450 897 
Q 2541 1088 2541 1459 
L 2541 1666 
z
" id="ArialMT-61" transform="scale(0.015625)"/>
      <path d="M 213 1659 
Q 213 2581 725 3025 
Q 1153 3394 1769 3394 
Q 2453 3394 2887 2945 
Q 3322 2497 3322 1706 
Q 3322 1066 3130 698 
Q 2938 331 2570 128 
Q 2203 -75 1769 -75 
Q 1072 -75 642 372 
Q 213 819 213 1659 
z
M 791 1659 
Q 791 1022 1069 705 
Q 1347 388 1769 388 
Q 2188 388 2466 706 
Q 2744 1025 2744 1678 
Q 2744 2294 2464 2611 
Q 2184 2928 1769 2928 
Q 1347 2928 1069 2612 
Q 791 2297 791 1659 
z
" id="ArialMT-6f" transform="scale(0.015625)"/>
      <path d="M 422 0 
L 422 3319 
L 928 3319 
L 928 2847 
Q 1294 3394 1984 3394 
Q 2284 3394 2536 3286 
Q 2788 3178 2913 3003 
Q 3038 2828 3088 2588 
Q 3119 2431 3119 2041 
L 3119 0 
L 2556 0 
L 2556 2019 
Q 2556 2363 2490 2533 
Q 2425 2703 2258 2804 
Q 2091 2906 1866 2906 
Q 1506 2906 1245 2678 
Q 984 2450 984 1813 
L 984 0 
L 422 0 
z
" id="ArialMT-6e" transform="scale(0.015625)"/>
      <path d="M 197 991 
L 753 1078 
Q 800 744 1014 566 
Q 1228 388 1613 388 
Q 2000 388 2187 545 
Q 2375 703 2375 916 
Q 2375 1106 2209 1216 
Q 2094 1291 1634 1406 
Q 1016 1563 777 1677 
Q 538 1791 414 1992 
Q 291 2194 291 2438 
Q 291 2659 392 2848 
Q 494 3038 669 3163 
Q 800 3259 1026 3326 
Q 1253 3394 1513 3394 
Q 1903 3394 2198 3281 
Q 2494 3169 2634 2976 
Q 2775 2784 2828 2463 
L 2278 2388 
Q 2241 2644 2061 2787 
Q 1881 2931 1553 2931 
Q 1166 2931 1000 2803 
Q 834 2675 834 2503 
Q 834 2394 903 2306 
Q 972 2216 1119 2156 
Q 1203 2125 1616 2013 
Q 2213 1853 2448 1751 
Q 2684 1650 2818 1456 
Q 2953 1263 2953 975 
Q 2953 694 2789 445 
Q 2625 197 2315 61 
Q 2006 -75 1616 -75 
Q 969 -75 630 194 
Q 291 463 197 991 
z
" id="ArialMT-73" transform="scale(0.015625)"/>
      <path id="ArialMT-20" transform="scale(0.015625)"/>
      <path d="M 556 0 
L 556 2881 
L 59 2881 
L 59 3319 
L 556 3319 
L 556 3672 
Q 556 4006 616 4169 
Q 697 4388 901 4523 
Q 1106 4659 1475 4659 
Q 1713 4659 2000 4603 
L 1916 4113 
Q 1741 4144 1584 4144 
Q 1328 4144 1222 4034 
Q 1116 3925 1116 3625 
L 1116 3319 
L 1763 3319 
L 1763 2881 
L 1116 2881 
L 1116 0 
L 556 0 
z
" id="ArialMT-66" transform="scale(0.015625)"/>
      <path d="M 416 0 
L 416 3319 
L 922 3319 
L 922 2816 
Q 1116 3169 1280 3281 
Q 1444 3394 1641 3394 
Q 1925 3394 2219 3213 
L 2025 2691 
Q 1819 2813 1613 2813 
Q 1428 2813 1281 2702 
Q 1134 2591 1072 2394 
Q 978 2094 978 1738 
L 978 0 
L 416 0 
z
" id="ArialMT-72" transform="scale(0.015625)"/>
      <path d="M 3384 2003 
L 350 706 
L 350 1266 
L 2753 2263 
L 350 3250 
L 350 3809 
L 3384 2528 
L 3384 2003 
z
" id="ArialMT-3e" transform="scale(0.015625)"/>
      <path d="M 791 -1347 
L 388 -1347 
Q 1322 153 1322 1656 
Q 1322 2244 1188 2822 
Q 1081 3291 891 3722 
Q 769 4003 388 4659 
L 791 4659 
Q 1378 3875 1659 3084 
Q 1900 2403 1900 1659 
Q 1900 816 1576 28 
Q 1253 -759 791 -1347 
z
" id="ArialMT-29" transform="scale(0.015625)"/>
      <path d="M 350 2003 
L 350 2528 
L 3384 3809 
L 3384 3250 
L 978 2263 
L 3384 1266 
L 3384 706 
L 350 2003 
z
" id="ArialMT-3c" transform="scale(0.015625)"/>
     </defs>
     <use xlink:href="#ArialMT-41"/>
     <use x="66.699219" xlink:href="#ArialMT-63"/>
     <use x="116.699219" xlink:href="#ArialMT-74"/>
     <use x="144.482422" xlink:href="#ArialMT-69"/>
     <use x="166.699219" xlink:href="#ArialMT-76"/>
     <use x="216.699219" xlink:href="#ArialMT-61"/>
     <use x="272.314453" xlink:href="#ArialMT-74"/>
     <use x="300.097656" xlink:href="#ArialMT-69"/>
     <use x="322.314453" xlink:href="#ArialMT-6f"/>
     <use x="377.929688" xlink:href="#ArialMT-6e"/>
     <use x="433.544922" xlink:href="#ArialMT-73"/>
     <use x="483.544922" xlink:href="#ArialMT-20"/>
     <use x="511.328125" xlink:href="#ArialMT-66"/>
     <use x="539.111328" xlink:href="#ArialMT-6f"/>
     <use x="594.726562" xlink:href="#ArialMT-72"/>
     <use x="628.027344" xlink:href="#ArialMT-20"/>
     <use x="655.810547" xlink:href="#ArialMT-3e"/>
     <use x="714.208984" xlink:href="#ArialMT-29"/>
     <use x="747.509766" xlink:href="#ArialMT-3c"/>
    </g>
   </g>
   <g id="legend_1">
    <g id="patch_7">
     <path d="M 640.044062 158.514363 
L 750.46 158.514363 
Q 752.66 158.514363 752.66 156.314363 
L 752.66 79.1528 
Q 752.66 76.9528 750.46 76.9528 
L 640.044062 76.9528 
Q 637.844062 76.9528 637.844062 79.1528 
L 637.844062 156.314363 
Q 637.844062 158.514363 640.044062 158.514363 
z
" style="fill:#ffffff;opacity:0.8;stroke:#cccccc;stroke-linejoin:miter;"/>
    </g>
    <g id="line2d_11">
     <path d="M 642.244062 85.376394 
L 664.244062 85.376394 
" style="fill:none;stroke:#4c72b0;stroke-linecap:round;stroke-width:1.5;"/>
    </g>
    <g id="line2d_12"/>
    <g id="text_17">
     <!-- regular -->
     <g style="fill:#262626;" transform="translate(673.044062 89.226394)scale(0.11 -0.11)">
      <defs>
       <path d="M 2694 1069 
L 3275 997 
Q 3138 488 2766 206 
Q 2394 -75 1816 -75 
Q 1088 -75 661 373 
Q 234 822 234 1631 
Q 234 2469 665 2931 
Q 1097 3394 1784 3394 
Q 2450 3394 2872 2941 
Q 3294 2488 3294 1666 
Q 3294 1616 3291 1516 
L 816 1516 
Q 847 969 1125 678 
Q 1403 388 1819 388 
Q 2128 388 2347 550 
Q 2566 713 2694 1069 
z
M 847 1978 
L 2700 1978 
Q 2663 2397 2488 2606 
Q 2219 2931 1791 2931 
Q 1403 2931 1139 2672 
Q 875 2413 847 1978 
z
" id="ArialMT-65" transform="scale(0.015625)"/>
       <path d="M 319 -275 
L 866 -356 
Q 900 -609 1056 -725 
Q 1266 -881 1628 -881 
Q 2019 -881 2231 -725 
Q 2444 -569 2519 -288 
Q 2563 -116 2559 434 
Q 2191 0 1641 0 
Q 956 0 581 494 
Q 206 988 206 1678 
Q 206 2153 378 2554 
Q 550 2956 876 3175 
Q 1203 3394 1644 3394 
Q 2231 3394 2613 2919 
L 2613 3319 
L 3131 3319 
L 3131 450 
Q 3131 -325 2973 -648 
Q 2816 -972 2473 -1159 
Q 2131 -1347 1631 -1347 
Q 1038 -1347 672 -1080 
Q 306 -813 319 -275 
z
M 784 1719 
Q 784 1066 1043 766 
Q 1303 466 1694 466 
Q 2081 466 2343 764 
Q 2606 1063 2606 1700 
Q 2606 2309 2336 2618 
Q 2066 2928 1684 2928 
Q 1309 2928 1046 2623 
Q 784 2319 784 1719 
z
" id="ArialMT-67" transform="scale(0.015625)"/>
       <path d="M 2597 0 
L 2597 488 
Q 2209 -75 1544 -75 
Q 1250 -75 995 37 
Q 741 150 617 320 
Q 494 491 444 738 
Q 409 903 409 1263 
L 409 3319 
L 972 3319 
L 972 1478 
Q 972 1038 1006 884 
Q 1059 663 1231 536 
Q 1403 409 1656 409 
Q 1909 409 2131 539 
Q 2353 669 2445 892 
Q 2538 1116 2538 1541 
L 2538 3319 
L 3100 3319 
L 3100 0 
L 2597 0 
z
" id="ArialMT-75" transform="scale(0.015625)"/>
       <path d="M 409 0 
L 409 4581 
L 972 4581 
L 972 0 
L 409 0 
z
" id="ArialMT-6c" transform="scale(0.015625)"/>
      </defs>
      <use xlink:href="#ArialMT-72"/>
      <use x="33.300781" xlink:href="#ArialMT-65"/>
      <use x="88.916016" xlink:href="#ArialMT-67"/>
      <use x="144.53125" xlink:href="#ArialMT-75"/>
      <use x="200.146484" xlink:href="#ArialMT-6c"/>
      <use x="222.363281" xlink:href="#ArialMT-61"/>
      <use x="277.978516" xlink:href="#ArialMT-72"/>
     </g>
    </g>
    <g id="line2d_13">
     <path d="M 642.244062 101.0978 
L 664.244062 101.0978 
" style="fill:none;stroke:#dd8452;stroke-dasharray:6,2.25;stroke-dashoffset:0;stroke-width:1.5;"/>
    </g>
    <g id="line2d_14"/>
    <g id="text_18">
     <!-- splitted_3s -->
     <g style="fill:#262626;" transform="translate(673.044062 104.9478)scale(0.11 -0.11)">
      <defs>
       <path d="M 422 -1272 
L 422 3319 
L 934 3319 
L 934 2888 
Q 1116 3141 1344 3267 
Q 1572 3394 1897 3394 
Q 2322 3394 2647 3175 
Q 2972 2956 3137 2557 
Q 3303 2159 3303 1684 
Q 3303 1175 3120 767 
Q 2938 359 2589 142 
Q 2241 -75 1856 -75 
Q 1575 -75 1351 44 
Q 1128 163 984 344 
L 984 -1272 
L 422 -1272 
z
M 931 1641 
Q 931 1000 1190 694 
Q 1450 388 1819 388 
Q 2194 388 2461 705 
Q 2728 1022 2728 1688 
Q 2728 2322 2467 2637 
Q 2206 2953 1844 2953 
Q 1484 2953 1207 2617 
Q 931 2281 931 1641 
z
" id="ArialMT-70" transform="scale(0.015625)"/>
       <path d="M 2575 0 
L 2575 419 
Q 2259 -75 1647 -75 
Q 1250 -75 917 144 
Q 584 363 401 755 
Q 219 1147 219 1656 
Q 219 2153 384 2558 
Q 550 2963 881 3178 
Q 1213 3394 1622 3394 
Q 1922 3394 2156 3267 
Q 2391 3141 2538 2938 
L 2538 4581 
L 3097 4581 
L 3097 0 
L 2575 0 
z
M 797 1656 
Q 797 1019 1065 703 
Q 1334 388 1700 388 
Q 2069 388 2326 689 
Q 2584 991 2584 1609 
Q 2584 2291 2321 2609 
Q 2059 2928 1675 2928 
Q 1300 2928 1048 2622 
Q 797 2316 797 1656 
z
" id="ArialMT-64" transform="scale(0.015625)"/>
       <path d="M -97 -1272 
L -97 -866 
L 3631 -866 
L 3631 -1272 
L -97 -1272 
z
" id="ArialMT-5f" transform="scale(0.015625)"/>
       <path d="M 269 1209 
L 831 1284 
Q 928 806 1161 595 
Q 1394 384 1728 384 
Q 2125 384 2398 659 
Q 2672 934 2672 1341 
Q 2672 1728 2419 1979 
Q 2166 2231 1775 2231 
Q 1616 2231 1378 2169 
L 1441 2663 
Q 1497 2656 1531 2656 
Q 1891 2656 2178 2843 
Q 2466 3031 2466 3422 
Q 2466 3731 2256 3934 
Q 2047 4138 1716 4138 
Q 1388 4138 1169 3931 
Q 950 3725 888 3313 
L 325 3413 
Q 428 3978 793 4289 
Q 1159 4600 1703 4600 
Q 2078 4600 2393 4439 
Q 2709 4278 2876 4000 
Q 3044 3722 3044 3409 
Q 3044 3113 2884 2869 
Q 2725 2625 2413 2481 
Q 2819 2388 3044 2092 
Q 3269 1797 3269 1353 
Q 3269 753 2831 336 
Q 2394 -81 1725 -81 
Q 1122 -81 723 278 
Q 325 638 269 1209 
z
" id="ArialMT-33" transform="scale(0.015625)"/>
      </defs>
      <use xlink:href="#ArialMT-73"/>
      <use x="50" xlink:href="#ArialMT-70"/>
      <use x="105.615234" xlink:href="#ArialMT-6c"/>
      <use x="127.832031" xlink:href="#ArialMT-69"/>
      <use x="150.048828" xlink:href="#ArialMT-74"/>
      <use x="177.832031" xlink:href="#ArialMT-74"/>
      <use x="205.615234" xlink:href="#ArialMT-65"/>
      <use x="261.230469" xlink:href="#ArialMT-64"/>
      <use x="316.845703" xlink:href="#ArialMT-5f"/>
      <use x="372.460938" xlink:href="#ArialMT-33"/>
      <use x="428.076172" xlink:href="#ArialMT-73"/>
     </g>
    </g>
    <g id="line2d_15">
     <path d="M 642.244062 116.6903 
L 664.244062 116.6903 
" style="fill:none;stroke:#55a868;stroke-dasharray:1.5,1.5;stroke-dashoffset:0;stroke-width:1.5;"/>
    </g>
    <g id="line2d_16"/>
    <g id="text_19">
     <!-- splitted_1s -->
     <g style="fill:#262626;" transform="translate(673.044062 120.5403)scale(0.11 -0.11)">
      <use xlink:href="#ArialMT-73"/>
      <use x="50" xlink:href="#ArialMT-70"/>
      <use x="105.615234" xlink:href="#ArialMT-6c"/>
      <use x="127.832031" xlink:href="#ArialMT-69"/>
      <use x="150.048828" xlink:href="#ArialMT-74"/>
      <use x="177.832031" xlink:href="#ArialMT-74"/>
      <use x="205.615234" xlink:href="#ArialMT-65"/>
      <use x="261.230469" xlink:href="#ArialMT-64"/>
      <use x="316.845703" xlink:href="#ArialMT-5f"/>
      <use x="372.460938" xlink:href="#ArialMT-31"/>
      <use x="428.076172" xlink:href="#ArialMT-73"/>
     </g>
    </g>
    <g id="line2d_17">
     <path d="M 642.244062 132.384206 
L 664.244062 132.384206 
" style="fill:none;stroke:#c44e52;stroke-dasharray:4.5,1.875,2.25,1.875;stroke-dashoffset:0;stroke-width:1.5;"/>
    </g>
    <g id="line2d_18"/>
    <g id="text_20">
     <!-- overlap_1f_3s -->
     <g style="fill:#262626;" transform="translate(673.044062 136.234206)scale(0.11 -0.11)">
      <use xlink:href="#ArialMT-6f"/>
      <use x="55.615234" xlink:href="#ArialMT-76"/>
      <use x="105.615234" xlink:href="#ArialMT-65"/>
      <use x="161.230469" xlink:href="#ArialMT-72"/>
      <use x="194.53125" xlink:href="#ArialMT-6c"/>
      <use x="216.748047" xlink:href="#ArialMT-61"/>
      <use x="272.363281" xlink:href="#ArialMT-70"/>
      <use x="327.978516" xlink:href="#ArialMT-5f"/>
      <use x="383.59375" xlink:href="#ArialMT-31"/>
      <use x="439.208984" xlink:href="#ArialMT-66"/>
      <use x="466.992188" xlink:href="#ArialMT-5f"/>
      <use x="522.607422" xlink:href="#ArialMT-33"/>
      <use x="578.222656" xlink:href="#ArialMT-73"/>
     </g>
    </g>
    <g id="line2d_19">
     <path d="M 642.244062 148.078113 
L 664.244062 148.078113 
" style="fill:none;stroke:#8172b3;stroke-dasharray:7.5,1.5,1.5,1.5;stroke-dashoffset:0;stroke-width:1.5;"/>
    </g>
    <g id="line2d_20"/>
    <g id="text_21">
     <!-- overlap_10f_3s -->
     <g style="fill:#262626;" transform="translate(673.044062 151.928112)scale(0.11 -0.11)">
      <use xlink:href="#ArialMT-6f"/>
      <use x="55.615234" xlink:href="#ArialMT-76"/>
      <use x="105.615234" xlink:href="#ArialMT-65"/>
      <use x="161.230469" xlink:href="#ArialMT-72"/>
      <use x="194.53125" xlink:href="#ArialMT-6c"/>
      <use x="216.748047" xlink:href="#ArialMT-61"/>
      <use x="272.363281" xlink:href="#ArialMT-70"/>
      <use x="327.978516" xlink:href="#ArialMT-5f"/>
      <use x="383.59375" xlink:href="#ArialMT-31"/>
      <use x="439.208984" xlink:href="#ArialMT-30"/>
      <use x="494.824219" xlink:href="#ArialMT-66"/>
      <use x="522.607422" xlink:href="#ArialMT-5f"/>
      <use x="578.222656" xlink:href="#ArialMT-33"/>
      <use x="633.837891" xlink:href="#ArialMT-73"/>
     </g>
    </g>
   </g>
  </g>
 </g>
 <defs>
  <clipPath id="p18ec64e016">
   <rect height="458.4888" width="652.86" x="105.3" y="71.4528"/>
  </clipPath>
 </defs>
</svg>
