<?xml version="1.0" encoding="utf-8" standalone="no"?>
<!DOCTYPE svg PUBLIC "-//W3C//DTD SVG 1.1//EN"
  "http://www.w3.org/Graphics/SVG/1.1/DTD/svg11.dtd">
<svg height="595.44pt" version="1.1" viewBox="0 0 842.4 595.44" width="842.4pt" xmlns="http://www.w3.org/2000/svg" xmlns:xlink="http://www.w3.org/1999/xlink">
 <metadata>
  <rdf:RDF xmlns:cc="http://creativecommons.org/ns#" xmlns:dc="http://purl.org/dc/elements/1.1/" xmlns:rdf="http://www.w3.org/1999/02/22-rdf-syntax-ns#">
   <cc:Work>
    <dc:type rdf:resource="http://purl.org/dc/dcmitype/StillImage"/>
    <dc:date>2021-06-01T00:54:08.873271</dc:date>
    <dc:format>image/svg+xml</dc:format>
    <dc:creator>
     <cc:Agent>
      <dc:title>Matplotlib v3.4.1, https://matplotlib.org/</dc:title>
     </cc:Agent>
    </dc:creator>
   </cc:Work>
  </rdf:RDF>
 </metadata>
 <defs>
  <style type="text/css">*{stroke-linecap:butt;stroke-linejoin:round;}</style>
 </defs>
 <g id="figure_1">
  <g id="patch_1">
   <path d="M 0 595.44 
L 842.4 595.44 
L 842.4 0 
L 0 0 
z
" style="fill:#ffffff;"/>
  </g>
  <g id="axes_1">
   <g id="patch_2">
    <path d="M 105.3 529.9416 
L 758.16 529.9416 
L 758.16 71.4528 
L 105.3 71.4528 
z
" style="fill:#ffffff;"/>
   </g>
   <g id="matplotlib.axis_1">
    <g id="xtick_1">
     <g id="text_1">
      <!-- 0 -->
      <g style="fill:#262626;" transform="translate(131.916939 547.315194)scale(0.11 -0.11)">
       <defs>
        <path d="M 266 2259 
Q 266 3072 433 3567 
Q 600 4063 929 4331 
Q 1259 4600 1759 4600 
Q 2128 4600 2406 4451 
Q 2684 4303 2865 4023 
Q 3047 3744 3150 3342 
Q 3253 2941 3253 2259 
Q 3253 1453 3087 958 
Q 2922 463 2592 192 
Q 2263 -78 1759 -78 
Q 1097 -78 719 397 
Q 266 969 266 2259 
z
M 844 2259 
Q 844 1131 1108 757 
Q 1372 384 1759 384 
Q 2147 384 2411 759 
Q 2675 1134 2675 2259 
Q 2675 3391 2411 3762 
Q 2147 4134 1753 4134 
Q 1366 4134 1134 3806 
Q 844 3388 844 2259 
z
" id="ArialMT-30" transform="scale(0.015625)"/>
       </defs>
       <use xlink:href="#ArialMT-30"/>
      </g>
     </g>
    </g>
    <g id="xtick_2">
     <g id="text_2">
      <!-- 25 -->
      <g style="fill:#262626;" transform="translate(201.950676 547.315194)scale(0.11 -0.11)">
       <defs>
        <path d="M 3222 541 
L 3222 0 
L 194 0 
Q 188 203 259 391 
Q 375 700 629 1000 
Q 884 1300 1366 1694 
Q 2113 2306 2375 2664 
Q 2638 3022 2638 3341 
Q 2638 3675 2398 3904 
Q 2159 4134 1775 4134 
Q 1369 4134 1125 3890 
Q 881 3647 878 3216 
L 300 3275 
Q 359 3922 746 4261 
Q 1134 4600 1788 4600 
Q 2447 4600 2831 4234 
Q 3216 3869 3216 3328 
Q 3216 3053 3103 2787 
Q 2991 2522 2730 2228 
Q 2469 1934 1863 1422 
Q 1356 997 1212 845 
Q 1069 694 975 541 
L 3222 541 
z
" id="ArialMT-32" transform="scale(0.015625)"/>
        <path d="M 266 1200 
L 856 1250 
Q 922 819 1161 601 
Q 1400 384 1738 384 
Q 2144 384 2425 690 
Q 2706 997 2706 1503 
Q 2706 1984 2436 2262 
Q 2166 2541 1728 2541 
Q 1456 2541 1237 2417 
Q 1019 2294 894 2097 
L 366 2166 
L 809 4519 
L 3088 4519 
L 3088 3981 
L 1259 3981 
L 1013 2750 
Q 1425 3038 1878 3038 
Q 2478 3038 2890 2622 
Q 3303 2206 3303 1553 
Q 3303 931 2941 478 
Q 2500 -78 1738 -78 
Q 1113 -78 717 272 
Q 322 622 266 1200 
z
" id="ArialMT-35" transform="scale(0.015625)"/>
       </defs>
       <use xlink:href="#ArialMT-32"/>
       <use x="55.615234" xlink:href="#ArialMT-35"/>
      </g>
     </g>
    </g>
    <g id="xtick_3">
     <g id="text_3">
      <!-- 50 -->
      <g style="fill:#262626;" transform="translate(275.042928 547.315194)scale(0.11 -0.11)">
       <use xlink:href="#ArialMT-35"/>
       <use x="55.615234" xlink:href="#ArialMT-30"/>
      </g>
     </g>
    </g>
    <g id="xtick_4">
     <g id="text_4">
      <!-- 75 -->
      <g style="fill:#262626;" transform="translate(348.135181 547.315194)scale(0.11 -0.11)">
       <defs>
        <path d="M 303 3981 
L 303 4522 
L 3269 4522 
L 3269 4084 
Q 2831 3619 2401 2847 
Q 1972 2075 1738 1259 
Q 1569 684 1522 0 
L 944 0 
Q 953 541 1156 1306 
Q 1359 2072 1739 2783 
Q 2119 3494 2547 3981 
L 303 3981 
z
" id="ArialMT-37" transform="scale(0.015625)"/>
       </defs>
       <use xlink:href="#ArialMT-37"/>
       <use x="55.615234" xlink:href="#ArialMT-35"/>
      </g>
     </g>
    </g>
    <g id="xtick_5">
     <g id="text_5">
      <!-- 100 -->
      <g style="fill:#262626;" transform="translate(418.168918 547.315194)scale(0.11 -0.11)">
       <defs>
        <path d="M 2384 0 
L 1822 0 
L 1822 3584 
Q 1619 3391 1289 3197 
Q 959 3003 697 2906 
L 697 3450 
Q 1169 3672 1522 3987 
Q 1875 4303 2022 4600 
L 2384 4600 
L 2384 0 
z
" id="ArialMT-31" transform="scale(0.015625)"/>
       </defs>
       <use xlink:href="#ArialMT-31"/>
       <use x="55.615234" xlink:href="#ArialMT-30"/>
       <use x="111.230469" xlink:href="#ArialMT-30"/>
      </g>
     </g>
    </g>
    <g id="xtick_6">
     <g id="text_6">
      <!-- 125 -->
      <g style="fill:#262626;" transform="translate(491.261171 547.315194)scale(0.11 -0.11)">
       <use xlink:href="#ArialMT-31"/>
       <use x="55.615234" xlink:href="#ArialMT-32"/>
       <use x="111.230469" xlink:href="#ArialMT-35"/>
      </g>
     </g>
    </g>
    <g id="xtick_7">
     <g id="text_7">
      <!-- 150 -->
      <g style="fill:#262626;" transform="translate(564.353423 547.315194)scale(0.11 -0.11)">
       <use xlink:href="#ArialMT-31"/>
       <use x="55.615234" xlink:href="#ArialMT-35"/>
       <use x="111.230469" xlink:href="#ArialMT-30"/>
      </g>
     </g>
    </g>
    <g id="xtick_8">
     <g id="text_8">
      <!-- 175 -->
      <g style="fill:#262626;" transform="translate(637.445676 547.315194)scale(0.11 -0.11)">
       <use xlink:href="#ArialMT-31"/>
       <use x="55.615234" xlink:href="#ArialMT-37"/>
       <use x="111.230469" xlink:href="#ArialMT-35"/>
      </g>
     </g>
    </g>
    <g id="xtick_9">
     <g id="text_9">
      <!-- 200 -->
      <g style="fill:#262626;" transform="translate(710.537928 547.315194)scale(0.11 -0.11)">
       <use xlink:href="#ArialMT-32"/>
       <use x="55.615234" xlink:href="#ArialMT-30"/>
       <use x="111.230469" xlink:href="#ArialMT-30"/>
      </g>
     </g>
    </g>
   </g>
   <g id="matplotlib.axis_2">
    <g id="ytick_1">
     <g id="text_10">
      <!-- −25 -->
      <g style="fill:#262626;" transform="translate(77.14125 533.878397)scale(0.11 -0.11)">
       <defs>
        <path d="M 3381 1997 
L 356 1997 
L 356 2522 
L 3381 2522 
L 3381 1997 
z
" id="ArialMT-2212" transform="scale(0.015625)"/>
       </defs>
       <use xlink:href="#ArialMT-2212"/>
       <use x="58.398438" xlink:href="#ArialMT-32"/>
       <use x="114.013672" xlink:href="#ArialMT-35"/>
      </g>
     </g>
    </g>
    <g id="ytick_2">
     <g id="text_11">
      <!-- −20 -->
      <g style="fill:#262626;" transform="translate(77.14125 442.180637)scale(0.11 -0.11)">
       <use xlink:href="#ArialMT-2212"/>
       <use x="58.398438" xlink:href="#ArialMT-32"/>
       <use x="114.013672" xlink:href="#ArialMT-30"/>
      </g>
     </g>
    </g>
    <g id="ytick_3">
     <g id="text_12">
      <!-- −15 -->
      <g style="fill:#262626;" transform="translate(77.14125 350.482877)scale(0.11 -0.11)">
       <use xlink:href="#ArialMT-2212"/>
       <use x="58.398438" xlink:href="#ArialMT-31"/>
       <use x="114.013672" xlink:href="#ArialMT-35"/>
      </g>
     </g>
    </g>
    <g id="ytick_4">
     <g id="text_13">
      <!-- −10 -->
      <g style="fill:#262626;" transform="translate(77.14125 258.785117)scale(0.11 -0.11)">
       <use xlink:href="#ArialMT-2212"/>
       <use x="58.398438" xlink:href="#ArialMT-31"/>
       <use x="114.013672" xlink:href="#ArialMT-30"/>
      </g>
     </g>
    </g>
    <g id="ytick_5">
     <g id="text_14">
      <!-- −5 -->
      <g style="fill:#262626;" transform="translate(83.258281 167.087357)scale(0.11 -0.11)">
       <use xlink:href="#ArialMT-2212"/>
       <use x="58.398438" xlink:href="#ArialMT-35"/>
      </g>
     </g>
    </g>
    <g id="ytick_6">
     <g id="text_15">
      <!-- 0 -->
      <g style="fill:#262626;" transform="translate(89.682969 75.389597)scale(0.11 -0.11)">
       <use xlink:href="#ArialMT-30"/>
      </g>
     </g>
    </g>
   </g>
   <g id="line2d_1">
    <path clip-path="url(#pc933dbfbd4)" d="M 134.975455 410.296109 
L 137.899145 410.768862 
L 140.822835 418.265934 
L 143.746525 417.28807 
L 146.670215 411.794019 
L 149.593905 425.278533 
L 152.517595 422.063843 
L 155.441285 430.543465 
L 158.364975 434.105261 
L 161.288665 440.732871 
L 164.212356 451.118549 
L 167.136046 453.958394 
L 170.059736 484.142986 
L 172.983426 500.242354 
L 175.907116 513.850592 
L 178.830806 544.419859 
L 181.754496 568.644992 
L 184.678186 482.35929 
L 187.601876 423.072559 
L 190.525567 515.724816 
L 193.449257 498.337068 
L 196.372947 486.840742 
L 199.296637 527.422591 
L 202.220327 413.659078 
L 205.144017 433.050616 
L 208.067707 587.883948 
L 210.991397 457.294429 
L 213.915087 484.834049 
L 216.838777 498.529772 
L 219.762468 496.00786 
L 222.686158 521.694105 
L 225.609848 500.523383 
L 228.533538 527.399015 
L 231.457228 563.305902 
L 234.380918 414.965718 
L 237.304608 424.361115 
L 240.228298 447.59775 
L 243.151988 410.021551 
L 246.075678 313.782611 
L 248.999369 376.589633 
L 251.923059 545.262525 
L 254.846749 520.148412 
L 257.770439 512.680269 
L 260.694129 464.212373 
L 263.431312 596.44 
M 263.887309 596.44 
L 266.541509 507.703081 
L 269.465199 497.82003 
L 272.388889 494.054581 
L 275.312579 512.27709 
L 278.23627 517.188901 
L 281.15996 499.055695 
L 284.08365 468.44991 
L 287.00734 464.320006 
L 289.93103 509.177415 
L 292.85472 451.303243 
L 295.77841 429.451602 
L 298.7021 453.211992 
L 301.62579 427.706069 
L 304.549481 459.419669 
L 307.473171 464.224336 
L 310.396861 482.143114 
L 313.320551 423.081024 
L 316.244241 412.637595 
L 319.167931 315.345146 
L 322.091621 501.540774 
L 325.015311 470.424282 
L 327.939001 471.615278 
L 330.862691 453.72973 
L 333.786382 444.285712 
L 336.710072 429.998968 
L 339.633762 499.040409 
L 345.481142 434.51589 
L 348.404832 374.519032 
L 351.328522 427.566954 
L 354.252212 449.184824 
L 357.175902 430.939893 
L 360.099592 445.643387 
L 363.023283 529.086761 
L 365.946973 422.514175 
L 368.870663 393.364463 
L 371.794353 465.867832 
L 374.718043 520.169225 
L 377.641733 503.912272 
L 380.565423 508.556451 
L 383.489113 470.073223 
L 386.412803 383.129094 
L 389.336494 403.66563 
L 392.260184 407.972707 
L 395.183874 497.954353 
L 398.107564 469.322764 
L 401.031254 399.438482 
L 403.954944 351.805521 
L 406.878634 366.173768 
L 409.802324 339.468873 
L 412.726014 367.313973 
L 415.649704 440.947473 
L 418.573395 422.56549 
L 421.497085 504.270362 
L 424.420775 550.537497 
L 427.344465 407.28014 
L 430.268155 453.654943 
L 433.191845 488.718779 
L 436.115535 426.422306 
L 439.039225 487.342984 
L 441.962915 555.72222 
L 444.886605 546.529568 
L 447.810296 449.406597 
L 450.733986 439.109173 
L 453.657676 515.494334 
L 456.581366 405.484761 
L 459.505056 474.446028 
L 462.428746 470.542059 
L 465.352436 499.107081 
L 468.276126 465.173131 
L 471.199816 392.374077 
L 474.123506 406.955107 
L 477.047197 408.933396 
L 479.970887 389.803263 
L 482.894577 484.085374 
L 485.818267 498.87261 
L 488.741957 523.665643 
L 491.665647 445.36806 
L 494.589337 371.169879 
L 497.513027 382.242493 
L 500.436717 363.034425 
L 503.360408 381.53443 
L 506.284098 488.016767 
L 509.207788 525.442588 
L 512.131478 541.799058 
L 515.055168 540.377929 
L 517.978858 442.682442 
L 520.902548 492.099344 
L 523.826238 500.164489 
L 526.749928 470.183934 
L 529.673618 491.509302 
L 532.597309 501.917088 
L 535.520999 438.925039 
L 538.444689 344.519571 
L 541.368379 418.731621 
L 544.292069 558.171409 
L 547.215759 496.476136 
L 550.139449 517.328855 
L 553.063139 352.170396 
L 555.986829 466.480331 
L 558.910519 514.068727 
L 561.83421 509.935745 
L 564.7579 453.113069 
L 567.68159 392.051982 
L 570.60528 395.571906 
L 576.45266 482.276807 
L 579.37635 490.580725 
L 582.30004 441.122897 
L 585.22373 436.428347 
L 588.147421 447.038456 
L 591.071111 444.186683 
L 593.994801 514.647015 
L 596.918491 435.720074 
L 599.842181 470.62664 
L 602.765871 513.419675 
L 605.689561 388.130698 
L 608.613251 420.5369 
L 611.536941 594.846141 
L 614.460631 563.730243 
L 617.384322 349.792234 
L 620.308012 373.643729 
L 623.231702 496.706339 
L 626.155392 542.305532 
L 629.079082 483.689087 
L 632.002772 430.226547 
L 634.926462 406.163406 
L 637.850152 468.582029 
L 640.773842 395.613602 
L 643.697532 396.779938 
L 646.621223 436.160681 
L 649.544913 460.397008 
L 652.468603 557.948727 
L 655.392293 467.397084 
L 658.315983 416.905564 
L 661.239673 501.746456 
L 664.163363 426.373999 
L 667.087053 475.892308 
L 670.010743 511.567733 
L 672.934433 507.120491 
L 675.858124 519.496526 
L 678.781814 473.226278 
L 681.705504 500.361741 
L 684.629194 504.558561 
L 687.552884 452.143531 
L 690.476574 522.145346 
L 693.400264 449.690494 
L 696.323954 449.337651 
L 699.247644 426.66853 
L 702.171335 414.255626 
L 705.095025 420.828842 
L 708.018715 411.326792 
L 710.942405 409.337344 
L 713.866095 407.125914 
L 716.789785 407.675518 
L 719.713475 409.012031 
L 722.637165 404.036032 
L 725.560855 410.952927 
L 728.484545 409.604276 
L 728.484545 409.604276 
" style="fill:none;stroke:#4c72b0;stroke-linecap:round;stroke-width:1.5;"/>
   </g>
   <g id="line2d_2">
    <path clip-path="url(#pc933dbfbd4)" d="M 134.975455 400.525553 
L 137.899145 401.152498 
L 140.822835 407.681185 
L 143.746525 407.509189 
L 146.670215 404.047821 
L 149.593905 413.038324 
L 152.517595 410.889333 
L 155.441285 418.125699 
L 158.364975 419.852133 
L 164.212356 431.442065 
L 167.136046 431.438951 
L 170.059736 459.090053 
L 172.983426 468.217538 
L 175.907116 486.117812 
L 178.830806 522.701071 
L 181.754496 538.662828 
L 184.678186 470.776879 
L 187.601876 397.370679 
L 190.525567 507.620808 
L 193.449257 482.077982 
L 196.372947 479.221102 
L 199.296637 504.302194 
L 202.220327 415.619528 
L 205.144017 445.787085 
L 208.067707 589.419461 
L 210.991397 481.334763 
L 213.915087 473.003246 
L 216.838777 495.816345 
L 219.762468 487.49025 
L 222.686158 518.736447 
L 225.609848 488.485253 
L 228.533538 509.403455 
L 231.457228 553.466435 
L 234.380918 409.095073 
L 237.304608 389.8168 
L 240.228298 429.621954 
L 243.151988 407.415967 
L 246.075678 312.817585 
L 248.999369 395.84391 
L 251.923059 533.691517 
L 254.846749 511.682712 
L 257.770439 516.854878 
L 260.694129 475.784779 
L 263.277857 596.44 
M 264.14721 596.44 
L 266.541509 524.638714 
L 269.465199 509.68284 
L 272.388889 512.950244 
L 275.312579 523.725668 
L 278.23627 531.960221 
L 281.15996 532.139143 
L 284.08365 492.404229 
L 287.00734 482.450133 
L 289.93103 530.493233 
L 292.85472 464.709192 
L 295.77841 417.121216 
L 298.7021 448.52087 
L 301.62579 419.871267 
L 304.549481 463.267775 
L 307.473171 478.660478 
L 310.396861 480.080103 
L 313.320551 429.40305 
L 316.244241 433.776694 
L 319.167931 349.65151 
L 322.091621 499.713878 
L 325.015311 477.451782 
L 327.939001 490.153446 
L 330.862691 448.981311 
L 333.786382 433.815627 
L 336.710072 472.898446 
L 339.633762 516.995077 
L 345.481142 442.105133 
L 348.404832 407.782032 
L 351.328522 494.473956 
L 354.252212 395.068895 
L 357.175902 353.190411 
L 360.099592 296.003577 
L 363.023283 298.700021 
L 365.946973 335.172534 
L 368.870663 330.161905 
L 371.794353 359.00507 
L 374.718043 398.279177 
L 377.641733 397.517384 
L 380.565423 468.679063 
L 383.489113 450.535189 
L 386.412803 419.837231 
L 389.336494 405.508582 
L 392.260184 380.588887 
L 395.183874 478.7877 
L 398.107564 430.294059 
L 401.031254 376.5089 
L 403.954944 342.746684 
L 406.878634 331.422722 
L 409.802324 326.576779 
L 412.726014 377.132487 
L 415.649704 448.378712 
L 418.573395 422.335427 
L 421.497085 496.944657 
L 424.420775 517.755401 
L 427.344465 360.318654 
L 430.268155 418.731096 
L 433.191845 454.38368 
L 436.115535 411.830398 
L 439.039225 491.236739 
L 441.962915 554.980296 
L 444.886605 486.643351 
L 447.810296 410.980036 
L 450.733986 446.359041 
L 453.657676 501.719066 
L 456.581366 412.143818 
L 459.505056 475.642096 
L 462.428746 476.803884 
L 465.352436 507.341284 
L 468.276126 435.717031 
L 471.199816 374.398281 
L 474.123506 371.350026 
L 477.047197 425.514437 
L 479.970887 373.410728 
L 482.894577 483.610452 
L 485.818267 516.621806 
L 488.741957 545.431478 
L 491.665647 485.390755 
L 494.589337 378.13753 
L 497.513027 385.580487 
L 500.436717 370.990013 
L 503.360408 395.093731 
L 506.284098 489.968787 
L 509.207788 513.585444 
L 512.131478 526.336185 
L 515.055168 545.754587 
L 517.978858 469.641046 
L 520.902548 494.122932 
L 523.826238 490.18178 
L 526.749928 477.904387 
L 529.673618 491.132254 
L 532.597309 497.727473 
L 535.520999 427.122394 
L 538.444689 314.914473 
L 541.368379 373.441685 
L 544.292069 548.631931 
L 547.215759 452.335396 
L 550.139449 476.958915 
L 553.063139 359.164141 
L 555.986829 345.380706 
L 558.910519 348.114265 
L 561.83421 330.915303 
L 564.7579 367.500031 
L 567.68159 322.495444 
L 570.60528 436.037272 
L 573.52897 314.839494 
L 576.45266 384.713125 
L 579.37635 382.393991 
L 582.30004 300.246571 
L 585.22373 401.126717 
L 588.147421 384.543227 
L 591.071111 423.182116 
L 593.994801 492.947887 
L 596.918491 441.873881 
L 599.842181 499.498681 
L 602.765871 496.09552 
L 605.689561 400.844045 
L 608.613251 423.828475 
L 611.536941 571.756666 
L 614.460631 558.809373 
L 617.384322 380.36659 
L 620.308012 377.213745 
L 623.231702 514.08097 
L 626.155392 551.681865 
L 629.079082 454.965466 
L 632.002772 443.159008 
L 634.926462 428.491963 
L 637.850152 452.133876 
L 640.773842 404.879433 
L 643.697532 390.761188 
L 649.544913 455.879596 
L 652.468603 545.260286 
L 655.392293 462.238071 
L 658.315983 373.301836 
L 661.239673 479.588356 
L 664.163363 397.639989 
L 667.087053 478.294414 
L 670.010743 533.299008 
L 672.934433 511.391679 
L 675.858124 512.500437 
L 678.781814 474.602528 
L 681.705504 489.714343 
L 684.629194 499.324516 
L 687.552884 444.768225 
L 690.476574 511.89448 
L 693.400264 475.55643 
L 696.323954 460.055569 
L 699.247644 431.230401 
L 702.171335 408.080236 
L 705.095025 420.390229 
L 708.018715 414.750277 
L 710.942405 415.634639 
L 713.866095 409.447776 
L 716.789785 412.214757 
L 719.713475 413.442937 
L 722.637165 405.51271 
L 725.560855 415.361586 
L 728.484545 409.399748 
L 728.484545 409.399748 
" style="fill:none;stroke:#dd8452;stroke-dasharray:6,2.25;stroke-dashoffset:0;stroke-width:1.5;"/>
   </g>
   <g id="line2d_3">
    <path clip-path="url(#pc933dbfbd4)" d="M 134.975455 404.751791 
L 137.899145 406.00047 
L 140.822835 415.883101 
L 143.746525 410.985353 
L 146.670215 413.358985 
L 149.593905 424.437686 
L 152.517595 423.373771 
L 155.441285 439.761864 
L 161.288665 442.891132 
L 164.212356 448.836109 
L 167.136046 442.791439 
L 170.059736 454.347056 
L 172.983426 472.273425 
L 175.907116 482.980673 
L 178.830806 504.945719 
L 181.754496 505.526316 
L 184.678186 418.205138 
L 187.601876 378.002927 
L 190.525567 414.816284 
L 193.449257 438.589651 
L 196.372947 398.608933 
L 199.296637 417.165185 
L 202.220327 404.944496 
L 205.144017 426.614591 
L 208.067707 470.038698 
L 210.991397 519.878297 
L 213.915087 500.080362 
L 216.838777 466.986665 
L 219.762468 474.361166 
L 222.686158 506.856112 
L 225.609848 460.388543 
L 228.533538 485.811004 
L 231.457228 528.700058 
L 234.380918 409.788375 
L 237.304608 377.915652 
L 240.228298 453.698248 
L 243.151988 435.152175 
L 246.075678 290.968585 
L 248.999369 405.328086 
L 254.846749 525.628541 
L 257.770439 493.041773 
L 260.694129 498.129287 
L 263.606165 596.44 
M 263.637712 596.44 
L 266.541509 539.00794 
L 269.465199 528.23493 
L 272.388889 474.14618 
L 275.312579 473.668179 
L 278.23627 447.185722 
L 281.15996 329.586818 
L 284.08365 360.854773 
L 287.00734 380.171927 
L 289.93103 428.054434 
L 292.85472 416.751338 
L 295.77841 442.04969 
L 298.7021 481.980248 
L 301.62579 490.343632 
L 304.549481 487.304821 
L 307.473171 529.919912 
L 310.396861 535.684043 
L 313.320551 472.783782 
L 316.244241 471.844361 
L 319.167931 361.458562 
L 322.091621 525.232253 
L 325.015311 502.45375 
L 327.939001 500.115307 
L 330.862691 465.015232 
L 333.786382 457.177141 
L 336.710072 472.091984 
L 339.633762 536.00404 
L 342.557452 523.702966 
L 345.481142 476.98592 
L 348.404832 422.953208 
L 351.328522 525.974003 
L 354.252212 351.393475 
L 357.175902 449.633826 
L 360.099592 363.443515 
L 363.023283 433.927633 
L 365.946973 334.40476 
L 368.870663 370.098375 
L 371.794353 345.768616 
L 374.718043 436.73645 
L 377.641733 422.351133 
L 383.489113 474.108262 
L 386.412803 413.502228 
L 389.336494 442.88669 
L 392.260184 414.685704 
L 395.183874 495.254777 
L 398.107564 483.400223 
L 401.031254 438.621028 
L 403.954944 365.721687 
L 406.878634 323.123124 
L 409.802324 368.846793 
L 412.726014 361.873004 
L 415.649704 374.344832 
L 418.573395 361.243383 
L 421.497085 313.672721 
L 424.420775 268.034893 
L 427.344465 230.84753 
L 430.268155 281.376129 
L 433.191845 324.14494 
L 436.115535 344.353591 
L 439.039225 455.483099 
L 441.962915 539.396917 
L 444.886605 444.352558 
L 447.810296 486.246469 
L 450.733986 434.452471 
L 453.657676 477.109504 
L 456.581366 425.262022 
L 459.505056 512.058781 
L 462.428746 504.290195 
L 465.352436 499.993577 
L 468.276126 450.597628 
L 471.199816 345.273983 
L 474.123506 377.017018 
L 477.047197 387.461567 
L 479.970887 426.557783 
L 482.894577 478.464521 
L 485.818267 499.685894 
L 488.741957 478.932587 
L 491.665647 453.517017 
L 494.589337 344.517472 
L 497.513027 372.460289 
L 500.436717 357.960622 
L 503.360408 429.783702 
L 506.284098 515.388624 
L 509.207788 456.36949 
L 512.131478 472.896732 
L 515.055168 511.200479 
L 517.978858 508.902927 
L 520.902548 520.113117 
L 523.826238 527.655662 
L 526.749928 510.064016 
L 529.673618 468.428362 
L 532.597309 486.484507 
L 535.520999 471.537727 
L 538.444689 329.424914 
L 541.368379 410.881358 
L 544.292069 512.914704 
L 547.215759 311.982264 
L 550.139449 352.507743 
L 553.063139 406.96616 
L 555.986829 368.466107 
L 558.910519 399.560317 
L 561.83421 335.018832 
L 564.7579 305.77569 
L 567.68159 317.170958 
L 570.60528 320.545646 
L 573.52897 473.863297 
L 576.45266 460.799172 
L 579.37635 454.497539 
L 582.30004 445.977061 
L 585.22373 482.851877 
L 588.147421 462.120503 
L 591.071111 479.440636 
L 593.994801 499.948103 
L 596.918491 441.569626 
L 599.842181 535.391891 
L 602.765871 574.387296 
L 605.689561 418.844746 
L 608.613251 459.245434 
L 611.444188 596.44 
M 611.854095 596.44 
L 614.460631 559.497218 
L 617.384322 375.909169 
L 620.308012 354.848441 
L 623.231702 528.606451 
L 626.155392 580.865507 
L 629.079082 447.209438 
L 632.002772 472.836497 
L 634.926462 474.344446 
L 637.850152 375.789607 
L 640.773842 347.43387 
L 643.697532 445.32451 
L 646.621223 459.434745 
L 649.544913 439.365576 
L 652.468603 523.85338 
L 655.392293 443.363396 
L 658.315983 383.251314 
L 661.239673 481.559579 
L 664.163363 399.898607 
L 667.087053 476.714126 
L 670.010743 517.642031 
L 672.934433 472.936015 
L 675.858124 530.171663 
L 678.781814 483.990579 
L 681.705504 501.574494 
L 684.629194 515.374737 
L 687.552884 469.126387 
L 690.476574 503.006397 
L 693.400264 466.892149 
L 696.323954 463.997666 
L 699.247644 437.756605 
L 702.171335 425.811767 
L 705.095025 436.23106 
L 708.018715 434.483184 
L 710.942405 436.372274 
L 713.866095 430.72802 
L 716.789785 433.136072 
L 719.713475 430.31858 
L 722.637165 427.077585 
L 725.560855 436.084425 
L 728.484545 427.252834 
L 728.484545 427.252834 
" style="fill:none;stroke:#55a868;stroke-dasharray:1.5,1.5;stroke-dashoffset:0;stroke-width:1.5;"/>
   </g>
   <g id="line2d_4">
    <path clip-path="url(#pc933dbfbd4)" d="M 134.975455 400.549059 
L 137.899145 401.186498 
L 140.822835 407.790462 
L 143.746525 407.500024 
L 146.670215 404.185641 
L 149.593905 413.260657 
L 152.517595 411.172321 
L 155.441285 418.503342 
L 158.364975 420.407369 
L 161.288665 426.47635 
L 164.212356 432.086884 
L 167.136046 432.243105 
L 170.059736 459.916244 
L 172.983426 469.108547 
L 175.907116 486.997977 
L 178.830806 523.745467 
L 181.754496 540.191136 
L 184.678186 471.70773 
L 187.601876 397.842943 
L 190.525567 508.933815 
L 193.449257 484.289132 
L 196.372947 480.537956 
L 199.296637 506.044229 
L 202.220327 418.539092 
L 205.144017 446.871007 
L 208.067707 592.937357 
L 210.991397 480.877821 
L 213.915087 487.405423 
L 216.838777 490.182024 
L 219.762468 489.809068 
L 222.686158 520.558412 
L 225.609848 488.365167 
L 228.533538 511.130239 
L 231.457228 555.676607 
L 234.380918 410.035473 
L 237.304608 394.748584 
L 240.228298 433.750914 
L 243.151988 408.354898 
L 246.075678 314.32006 
L 248.999369 393.65784 
L 251.923059 531.653202 
L 254.846749 511.911585 
L 257.770439 514.615393 
L 260.694129 477.213534 
L 263.240903 596.44 
M 264.164556 596.44 
L 266.541509 519.726799 
L 269.465199 511.766419 
L 272.388889 514.442872 
L 275.312579 534.893113 
L 278.23627 540.210305 
L 281.15996 533.026514 
L 284.08365 490.561766 
L 287.00734 490.558128 
L 289.93103 534.869781 
L 292.85472 459.675267 
L 295.77841 419.484039 
L 298.7021 448.907433 
L 301.62579 422.47825 
L 304.549481 470.169733 
L 307.473171 480.169512 
L 310.396861 483.390463 
L 313.320551 427.858827 
L 316.244241 432.358049 
L 319.167931 352.898766 
L 322.091621 526.974883 
L 325.015311 474.884851 
L 327.939001 482.936494 
L 330.862691 460.634137 
L 333.786382 433.842841 
L 336.710072 477.435552 
L 339.633762 541.414699 
L 342.557452 497.304531 
L 345.481142 436.905823 
L 348.404832 363.077485 
L 351.328522 436.346669 
L 354.252212 481.91564 
L 357.175902 378.080512 
L 360.099592 366.568201 
L 363.023283 489.262018 
L 365.946973 356.677961 
L 368.870663 328.236383 
L 371.794353 380.496331 
L 374.718043 435.022119 
L 377.641733 414.146348 
L 380.565423 482.35086 
L 386.412803 424.739003 
L 389.336494 407.343139 
L 392.260184 381.479301 
L 395.183874 479.742757 
L 398.107564 434.575671 
L 401.031254 381.843337 
L 403.954944 343.047458 
L 406.878634 336.428576 
L 409.802324 331.332159 
L 412.726014 380.62768 
L 415.649704 452.744171 
L 418.573395 422.40056 
L 421.497085 500.407005 
L 424.420775 520.645546 
L 427.344465 357.545796 
L 430.268155 415.010317 
L 433.191845 450.15856 
L 436.115535 410.673192 
L 439.039225 493.012495 
L 441.962915 558.91008 
L 444.886605 489.261633 
L 447.810296 414.328314 
L 450.733986 448.231272 
L 453.657676 517.66113 
L 456.581366 420.477329 
L 459.505056 475.67001 
L 462.428746 475.852465 
L 465.352436 517.989766 
L 468.276126 436.120629 
L 471.199816 382.437016 
L 474.123506 380.743534 
L 477.047197 432.373055 
L 479.970887 373.758778 
L 482.894577 484.274371 
L 488.741957 546.641818 
L 491.665647 484.808514 
L 494.589337 377.937794 
L 497.513027 386.275083 
L 500.436717 368.800235 
L 503.360408 392.714397 
L 506.284098 489.480957 
L 509.207788 513.511987 
L 512.131478 528.164585 
L 515.055168 546.040408 
L 517.978858 469.554681 
L 520.902548 495.814351 
L 523.826238 489.688458 
L 526.749928 478.037486 
L 529.673618 492.111832 
L 532.597309 498.008152 
L 535.520999 426.922379 
L 538.444689 319.032449 
L 541.368379 373.112209 
L 544.292069 549.388931 
L 547.215759 453.39826 
L 550.139449 479.94767 
L 553.063139 359.175737 
L 555.986829 346.656162 
L 558.910519 347.570992 
L 561.83421 333.117569 
L 564.7579 367.500311 
L 567.68159 321.533146 
L 570.60528 425.516711 
L 573.52897 357.103107 
L 576.45266 345.637022 
L 579.37635 378.828313 
L 582.30004 342.233441 
L 585.22373 477.905577 
L 588.147421 388.876435 
L 591.071111 399.661863 
L 593.994801 524.503622 
L 596.918491 463.106203 
L 599.842181 487.436311 
L 602.765871 509.782113 
L 605.689561 386.895452 
L 608.613251 425.88393 
L 611.536941 581.206001 
L 614.460631 573.87379 
L 617.384322 378.77238 
L 620.308012 376.355827 
L 623.231702 512.248232 
L 626.155392 546.284848 
L 629.079082 456.49066 
L 632.002772 441.243263 
L 634.926462 431.997091 
L 637.850152 450.208477 
L 640.773842 400.784229 
L 643.697532 389.121294 
L 646.621223 425.645332 
L 649.544913 452.41543 
L 652.468603 546.103932 
L 655.392293 462.917801 
L 658.315983 373.692596 
L 661.239673 481.830254 
L 664.163363 398.814755 
L 667.087053 478.322293 
L 670.010743 535.402735 
L 672.934433 511.71972 
L 675.858124 512.031601 
L 678.781814 474.234189 
L 681.705504 486.794674 
L 684.629194 497.697985 
L 687.552884 445.892654 
L 690.476574 512.494351 
L 693.400264 476.002529 
L 696.323954 460.963263 
L 699.247644 433.968349 
L 702.171335 409.972509 
L 705.095025 422.579902 
L 708.018715 417.759459 
L 710.942405 420.535151 
L 713.866095 414.869208 
L 716.789785 418.094112 
L 719.713475 418.48043 
L 722.637165 411.788107 
L 725.560855 421.286589 
L 728.484545 416.466671 
L 728.484545 416.466671 
" style="fill:none;stroke:#c44e52;stroke-dasharray:4.5,1.875,2.25,1.875;stroke-dashoffset:0;stroke-width:1.5;"/>
   </g>
   <g id="line2d_5">
    <path clip-path="url(#pc933dbfbd4)" d="M 134.975455 399.742912 
L 137.899145 400.429113 
L 140.822835 406.792975 
L 143.746525 406.900503 
L 146.670215 402.886662 
L 149.593905 412.947377 
L 152.517595 410.808949 
L 155.441285 417.300348 
L 158.364975 418.843732 
L 161.288665 426.184198 
L 164.212356 431.469174 
L 167.136046 430.842404 
L 170.059736 458.563955 
L 172.983426 467.615184 
L 175.907116 484.507617 
L 178.830806 522.500392 
L 181.754496 549.052319 
L 184.678186 474.569192 
L 187.601876 413.40404 
L 190.525567 514.226067 
L 193.449257 495.551722 
L 196.372947 491.131974 
L 199.296637 516.966533 
L 202.220327 422.366699 
L 205.144017 449.327192 
L 207.950816 596.44 
M 208.219573 596.44 
L 210.991397 484.618643 
L 213.915087 479.321494 
L 216.838777 491.530255 
L 219.762468 483.599993 
L 222.686158 518.10569 
L 225.609848 498.057963 
L 228.533538 516.261548 
L 231.457228 559.201288 
L 234.380918 412.055739 
L 237.304608 398.487063 
L 240.228298 437.090167 
L 243.151988 411.092182 
L 246.075678 317.118348 
L 248.999369 392.301424 
L 251.923059 544.585908 
L 254.846749 514.720123 
L 257.770439 519.03619 
L 260.694129 476.526039 
L 263.205924 596.44 
M 264.226088 596.44 
L 266.541509 521.587451 
L 269.465199 512.043635 
L 272.388889 515.117145 
L 275.312579 533.923889 
L 278.23627 541.979659 
L 281.15996 540.575426 
L 284.08365 500.972875 
L 287.00734 493.950096 
L 289.93103 536.284649 
L 292.85472 462.008183 
L 295.77841 416.19897 
L 298.7021 442.305533 
L 301.62579 419.560575 
L 304.549481 463.08532 
L 307.473171 471.908934 
L 310.396861 490.0321 
L 313.320551 435.536219 
L 316.244241 436.053048 
L 319.167931 351.541282 
L 322.091621 532.236458 
L 325.015311 483.487008 
L 327.939001 474.574999 
L 330.862691 457.558072 
L 333.786382 446.015224 
L 336.710072 447.751242 
L 339.633762 526.014964 
L 342.557452 482.021699 
L 345.481142 448.033775 
L 348.404832 374.371836 
L 351.328522 420.743176 
L 354.252212 443.843985 
L 357.175902 443.729881 
L 360.099592 454.658692 
L 363.023283 543.676325 
L 365.946973 401.532554 
L 368.870663 400.100302 
L 371.794353 435.224163 
L 374.718043 478.246806 
L 377.641733 498.087381 
L 380.565423 524.394554 
L 383.489113 482.787724 
L 386.412803 403.34385 
L 389.336494 406.707973 
L 392.260184 409.055826 
L 395.183874 516.52904 
L 398.107564 439.034631 
L 401.031254 409.665281 
L 403.954944 351.061305 
L 406.878634 336.543834 
L 409.802324 344.287339 
L 412.726014 384.444374 
L 415.649704 461.982228 
L 418.573395 422.967305 
L 421.497085 513.991142 
L 424.420775 520.252967 
L 427.344465 355.970545 
L 430.268155 409.898667 
L 433.191845 452.709436 
L 436.115535 408.328068 
L 439.039225 490.396032 
L 441.962915 563.538728 
L 444.886605 499.164658 
L 447.810296 421.358263 
L 450.733986 452.754945 
L 453.657676 523.875627 
L 456.581366 424.598418 
L 459.505056 463.667525 
L 462.428746 464.911796 
L 465.352436 514.053231 
L 468.276126 450.908005 
L 471.199816 395.049096 
L 474.123506 397.996959 
L 477.047197 429.501064 
L 479.970887 382.042933 
L 482.894577 489.676495 
L 485.818267 521.821012 
L 488.741957 548.804102 
L 491.665647 484.7721 
L 494.589337 373.66024 
L 497.513027 384.851645 
L 500.436717 363.286717 
L 503.360408 385.109307 
L 506.284098 484.503139 
L 509.207788 512.927402 
L 512.131478 535.691564 
L 515.055168 541.313817 
L 517.978858 463.011932 
L 520.902548 491.540994 
L 523.826238 479.042144 
L 526.749928 470.468006 
L 529.673618 489.639206 
L 532.597309 473.421536 
L 535.520999 409.852948 
L 538.444689 299.831412 
L 541.368379 374.815347 
L 544.292069 556.888591 
L 547.215759 448.76601 
L 550.139449 479.605881 
L 553.063139 299.011675 
L 555.986829 400.73001 
L 558.910519 411.997987 
L 561.83421 404.527815 
L 564.7579 453.815151 
L 567.68159 399.742282 
L 570.60528 352.616758 
L 573.52897 383.247256 
L 576.45266 509.915981 
L 579.37635 462.546349 
L 582.30004 373.508322 
L 585.22373 464.981966 
L 588.147421 424.724871 
L 591.071111 427.709917 
L 593.994801 492.211594 
L 596.918491 441.91925 
L 599.842181 459.649242 
L 602.765871 501.340724 
L 605.689561 401.395363 
L 608.613251 429.094632 
L 611.536941 564.797656 
L 614.460631 572.199686 
L 617.384322 381.334904 
L 620.308012 378.066241 
L 623.231702 497.925564 
L 626.155392 537.852379 
L 629.079082 457.684245 
L 632.002772 434.774252 
L 634.926462 421.64293 
L 637.850152 434.398462 
L 640.773842 384.99111 
L 643.697532 377.569701 
L 646.621223 421.361726 
L 649.544913 445.223278 
L 652.468603 529.675893 
L 655.392293 453.122129 
L 658.315983 365.446605 
L 661.239673 456.969675 
L 664.163363 386.878347 
L 667.087053 473.740238 
L 670.010743 531.869203 
L 672.934433 524.666768 
L 675.858124 509.562789 
L 678.781814 459.08645 
L 681.705504 491.828774 
L 684.629194 486.712436 
L 687.552884 436.205175 
L 690.476574 484.515872 
L 693.400264 462.152615 
L 696.323954 452.278728 
L 699.247644 428.083957 
L 702.171335 407.255549 
L 705.095025 418.591736 
L 708.018715 413.135499 
L 710.942405 412.883573 
L 713.866095 408.248384 
L 716.789785 409.625823 
L 719.713475 411.490323 
L 722.637165 403.802401 
L 725.560855 412.689575 
L 728.484545 406.501802 
L 728.484545 406.501802 
" style="fill:none;stroke:#8172b3;stroke-dasharray:7.5,1.5,1.5,1.5;stroke-dashoffset:0;stroke-width:1.5;"/>
   </g>
   <g id="line2d_6"/>
   <g id="line2d_7"/>
   <g id="line2d_8"/>
   <g id="line2d_9"/>
   <g id="line2d_10"/>
   <g id="patch_3">
    <path d="M 105.3 529.9416 
L 105.3 71.4528 
" style="fill:none;stroke:#262626;stroke-linecap:square;stroke-linejoin:miter;stroke-width:1.25;"/>
   </g>
   <g id="patch_4">
    <path d="M 758.16 529.9416 
L 758.16 71.4528 
" style="fill:none;stroke:#262626;stroke-linecap:square;stroke-linejoin:miter;stroke-width:1.25;"/>
   </g>
   <g id="patch_5">
    <path d="M 105.3 529.9416 
L 758.16 529.9416 
" style="fill:none;stroke:#262626;stroke-linecap:square;stroke-linejoin:miter;stroke-width:1.25;"/>
   </g>
   <g id="patch_6">
    <path d="M 105.3 71.4528 
L 758.16 71.4528 
" style="fill:none;stroke:#262626;stroke-linecap:square;stroke-linejoin:miter;stroke-width:1.25;"/>
   </g>
   <g id="text_16">
    <!-- Activations for &gt;Q&lt; -->
    <g style="fill:#262626;" transform="translate(380.7075 65.4528)scale(0.12 -0.12)">
     <defs>
      <path d="M -9 0 
L 1750 4581 
L 2403 4581 
L 4278 0 
L 3588 0 
L 3053 1388 
L 1138 1388 
L 634 0 
L -9 0 
z
M 1313 1881 
L 2866 1881 
L 2388 3150 
Q 2169 3728 2063 4100 
Q 1975 3659 1816 3225 
L 1313 1881 
z
" id="ArialMT-41" transform="scale(0.015625)"/>
      <path d="M 2588 1216 
L 3141 1144 
Q 3050 572 2676 248 
Q 2303 -75 1759 -75 
Q 1078 -75 664 370 
Q 250 816 250 1647 
Q 250 2184 428 2587 
Q 606 2991 970 3192 
Q 1334 3394 1763 3394 
Q 2303 3394 2647 3120 
Q 2991 2847 3088 2344 
L 2541 2259 
Q 2463 2594 2264 2762 
Q 2066 2931 1784 2931 
Q 1359 2931 1093 2626 
Q 828 2322 828 1663 
Q 828 994 1084 691 
Q 1341 388 1753 388 
Q 2084 388 2306 591 
Q 2528 794 2588 1216 
z
" id="ArialMT-63" transform="scale(0.015625)"/>
      <path d="M 1650 503 
L 1731 6 
Q 1494 -44 1306 -44 
Q 1000 -44 831 53 
Q 663 150 594 308 
Q 525 466 525 972 
L 525 2881 
L 113 2881 
L 113 3319 
L 525 3319 
L 525 4141 
L 1084 4478 
L 1084 3319 
L 1650 3319 
L 1650 2881 
L 1084 2881 
L 1084 941 
Q 1084 700 1114 631 
Q 1144 563 1211 522 
Q 1278 481 1403 481 
Q 1497 481 1650 503 
z
" id="ArialMT-74" transform="scale(0.015625)"/>
      <path d="M 425 3934 
L 425 4581 
L 988 4581 
L 988 3934 
L 425 3934 
z
M 425 0 
L 425 3319 
L 988 3319 
L 988 0 
L 425 0 
z
" id="ArialMT-69" transform="scale(0.015625)"/>
      <path d="M 1344 0 
L 81 3319 
L 675 3319 
L 1388 1331 
Q 1503 1009 1600 663 
Q 1675 925 1809 1294 
L 2547 3319 
L 3125 3319 
L 1869 0 
L 1344 0 
z
" id="ArialMT-76" transform="scale(0.015625)"/>
      <path d="M 2588 409 
Q 2275 144 1986 34 
Q 1697 -75 1366 -75 
Q 819 -75 525 192 
Q 231 459 231 875 
Q 231 1119 342 1320 
Q 453 1522 633 1644 
Q 813 1766 1038 1828 
Q 1203 1872 1538 1913 
Q 2219 1994 2541 2106 
Q 2544 2222 2544 2253 
Q 2544 2597 2384 2738 
Q 2169 2928 1744 2928 
Q 1347 2928 1158 2789 
Q 969 2650 878 2297 
L 328 2372 
Q 403 2725 575 2942 
Q 747 3159 1072 3276 
Q 1397 3394 1825 3394 
Q 2250 3394 2515 3294 
Q 2781 3194 2906 3042 
Q 3031 2891 3081 2659 
Q 3109 2516 3109 2141 
L 3109 1391 
Q 3109 606 3145 398 
Q 3181 191 3288 0 
L 2700 0 
Q 2613 175 2588 409 
z
M 2541 1666 
Q 2234 1541 1622 1453 
Q 1275 1403 1131 1340 
Q 988 1278 909 1158 
Q 831 1038 831 891 
Q 831 666 1001 516 
Q 1172 366 1500 366 
Q 1825 366 2078 508 
Q 2331 650 2450 897 
Q 2541 1088 2541 1459 
L 2541 1666 
z
" id="ArialMT-61" transform="scale(0.015625)"/>
      <path d="M 213 1659 
Q 213 2581 725 3025 
Q 1153 3394 1769 3394 
Q 2453 3394 2887 2945 
Q 3322 2497 3322 1706 
Q 3322 1066 3130 698 
Q 2938 331 2570 128 
Q 2203 -75 1769 -75 
Q 1072 -75 642 372 
Q 213 819 213 1659 
z
M 791 1659 
Q 791 1022 1069 705 
Q 1347 388 1769 388 
Q 2188 388 2466 706 
Q 2744 1025 2744 1678 
Q 2744 2294 2464 2611 
Q 2184 2928 1769 2928 
Q 1347 2928 1069 2612 
Q 791 2297 791 1659 
z
" id="ArialMT-6f" transform="scale(0.015625)"/>
      <path d="M 422 0 
L 422 3319 
L 928 3319 
L 928 2847 
Q 1294 3394 1984 3394 
Q 2284 3394 2536 3286 
Q 2788 3178 2913 3003 
Q 3038 2828 3088 2588 
Q 3119 2431 3119 2041 
L 3119 0 
L 2556 0 
L 2556 2019 
Q 2556 2363 2490 2533 
Q 2425 2703 2258 2804 
Q 2091 2906 1866 2906 
Q 1506 2906 1245 2678 
Q 984 2450 984 1813 
L 984 0 
L 422 0 
z
" id="ArialMT-6e" transform="scale(0.015625)"/>
      <path d="M 197 991 
L 753 1078 
Q 800 744 1014 566 
Q 1228 388 1613 388 
Q 2000 388 2187 545 
Q 2375 703 2375 916 
Q 2375 1106 2209 1216 
Q 2094 1291 1634 1406 
Q 1016 1563 777 1677 
Q 538 1791 414 1992 
Q 291 2194 291 2438 
Q 291 2659 392 2848 
Q 494 3038 669 3163 
Q 800 3259 1026 3326 
Q 1253 3394 1513 3394 
Q 1903 3394 2198 3281 
Q 2494 3169 2634 2976 
Q 2775 2784 2828 2463 
L 2278 2388 
Q 2241 2644 2061 2787 
Q 1881 2931 1553 2931 
Q 1166 2931 1000 2803 
Q 834 2675 834 2503 
Q 834 2394 903 2306 
Q 972 2216 1119 2156 
Q 1203 2125 1616 2013 
Q 2213 1853 2448 1751 
Q 2684 1650 2818 1456 
Q 2953 1263 2953 975 
Q 2953 694 2789 445 
Q 2625 197 2315 61 
Q 2006 -75 1616 -75 
Q 969 -75 630 194 
Q 291 463 197 991 
z
" id="ArialMT-73" transform="scale(0.015625)"/>
      <path id="ArialMT-20" transform="scale(0.015625)"/>
      <path d="M 556 0 
L 556 2881 
L 59 2881 
L 59 3319 
L 556 3319 
L 556 3672 
Q 556 4006 616 4169 
Q 697 4388 901 4523 
Q 1106 4659 1475 4659 
Q 1713 4659 2000 4603 
L 1916 4113 
Q 1741 4144 1584 4144 
Q 1328 4144 1222 4034 
Q 1116 3925 1116 3625 
L 1116 3319 
L 1763 3319 
L 1763 2881 
L 1116 2881 
L 1116 0 
L 556 0 
z
" id="ArialMT-66" transform="scale(0.015625)"/>
      <path d="M 416 0 
L 416 3319 
L 922 3319 
L 922 2816 
Q 1116 3169 1280 3281 
Q 1444 3394 1641 3394 
Q 1925 3394 2219 3213 
L 2025 2691 
Q 1819 2813 1613 2813 
Q 1428 2813 1281 2702 
Q 1134 2591 1072 2394 
Q 978 2094 978 1738 
L 978 0 
L 416 0 
z
" id="ArialMT-72" transform="scale(0.015625)"/>
      <path d="M 3384 2003 
L 350 706 
L 350 1266 
L 2753 2263 
L 350 3250 
L 350 3809 
L 3384 2528 
L 3384 2003 
z
" id="ArialMT-3e" transform="scale(0.015625)"/>
      <path d="M 3966 491 
Q 4388 200 4744 66 
L 4566 -356 
Q 4072 -178 3581 206 
Q 3072 -78 2456 -78 
Q 1834 -78 1328 222 
Q 822 522 548 1065 
Q 275 1609 275 2291 
Q 275 2969 550 3525 
Q 825 4081 1333 4372 
Q 1841 4663 2469 4663 
Q 3103 4663 3612 4361 
Q 4122 4059 4389 3517 
Q 4656 2975 4656 2294 
Q 4656 1728 4484 1276 
Q 4313 825 3966 491 
z
M 2631 1266 
Q 3156 1119 3497 828 
Q 4031 1316 4031 2294 
Q 4031 2850 3842 3265 
Q 3653 3681 3289 3911 
Q 2925 4141 2472 4141 
Q 1794 4141 1347 3677 
Q 900 3213 900 2291 
Q 900 1397 1342 919 
Q 1784 441 2472 441 
Q 2797 441 3084 563 
Q 2800 747 2484 825 
L 2631 1266 
z
" id="ArialMT-51" transform="scale(0.015625)"/>
      <path d="M 350 2003 
L 350 2528 
L 3384 3809 
L 3384 3250 
L 978 2263 
L 3384 1266 
L 3384 706 
L 350 2003 
z
" id="ArialMT-3c" transform="scale(0.015625)"/>
     </defs>
     <use xlink:href="#ArialMT-41"/>
     <use x="66.699219" xlink:href="#ArialMT-63"/>
     <use x="116.699219" xlink:href="#ArialMT-74"/>
     <use x="144.482422" xlink:href="#ArialMT-69"/>
     <use x="166.699219" xlink:href="#ArialMT-76"/>
     <use x="216.699219" xlink:href="#ArialMT-61"/>
     <use x="272.314453" xlink:href="#ArialMT-74"/>
     <use x="300.097656" xlink:href="#ArialMT-69"/>
     <use x="322.314453" xlink:href="#ArialMT-6f"/>
     <use x="377.929688" xlink:href="#ArialMT-6e"/>
     <use x="433.544922" xlink:href="#ArialMT-73"/>
     <use x="483.544922" xlink:href="#ArialMT-20"/>
     <use x="511.328125" xlink:href="#ArialMT-66"/>
     <use x="539.111328" xlink:href="#ArialMT-6f"/>
     <use x="594.726562" xlink:href="#ArialMT-72"/>
     <use x="628.027344" xlink:href="#ArialMT-20"/>
     <use x="655.810547" xlink:href="#ArialMT-3e"/>
     <use x="714.208984" xlink:href="#ArialMT-51"/>
     <use x="791.992188" xlink:href="#ArialMT-3c"/>
    </g>
   </g>
   <g id="legend_1">
    <g id="patch_7">
     <path d="M 640.044062 158.514363 
L 750.46 158.514363 
Q 752.66 158.514363 752.66 156.314363 
L 752.66 79.1528 
Q 752.66 76.9528 750.46 76.9528 
L 640.044062 76.9528 
Q 637.844062 76.9528 637.844062 79.1528 
L 637.844062 156.314363 
Q 637.844062 158.514363 640.044062 158.514363 
z
" style="fill:#ffffff;opacity:0.8;stroke:#cccccc;stroke-linejoin:miter;"/>
    </g>
    <g id="line2d_11">
     <path d="M 642.244062 85.376394 
L 664.244062 85.376394 
" style="fill:none;stroke:#4c72b0;stroke-linecap:round;stroke-width:1.5;"/>
    </g>
    <g id="line2d_12"/>
    <g id="text_17">
     <!-- regular -->
     <g style="fill:#262626;" transform="translate(673.044062 89.226394)scale(0.11 -0.11)">
      <defs>
       <path d="M 2694 1069 
L 3275 997 
Q 3138 488 2766 206 
Q 2394 -75 1816 -75 
Q 1088 -75 661 373 
Q 234 822 234 1631 
Q 234 2469 665 2931 
Q 1097 3394 1784 3394 
Q 2450 3394 2872 2941 
Q 3294 2488 3294 1666 
Q 3294 1616 3291 1516 
L 816 1516 
Q 847 969 1125 678 
Q 1403 388 1819 388 
Q 2128 388 2347 550 
Q 2566 713 2694 1069 
z
M 847 1978 
L 2700 1978 
Q 2663 2397 2488 2606 
Q 2219 2931 1791 2931 
Q 1403 2931 1139 2672 
Q 875 2413 847 1978 
z
" id="ArialMT-65" transform="scale(0.015625)"/>
       <path d="M 319 -275 
L 866 -356 
Q 900 -609 1056 -725 
Q 1266 -881 1628 -881 
Q 2019 -881 2231 -725 
Q 2444 -569 2519 -288 
Q 2563 -116 2559 434 
Q 2191 0 1641 0 
Q 956 0 581 494 
Q 206 988 206 1678 
Q 206 2153 378 2554 
Q 550 2956 876 3175 
Q 1203 3394 1644 3394 
Q 2231 3394 2613 2919 
L 2613 3319 
L 3131 3319 
L 3131 450 
Q 3131 -325 2973 -648 
Q 2816 -972 2473 -1159 
Q 2131 -1347 1631 -1347 
Q 1038 -1347 672 -1080 
Q 306 -813 319 -275 
z
M 784 1719 
Q 784 1066 1043 766 
Q 1303 466 1694 466 
Q 2081 466 2343 764 
Q 2606 1063 2606 1700 
Q 2606 2309 2336 2618 
Q 2066 2928 1684 2928 
Q 1309 2928 1046 2623 
Q 784 2319 784 1719 
z
" id="ArialMT-67" transform="scale(0.015625)"/>
       <path d="M 2597 0 
L 2597 488 
Q 2209 -75 1544 -75 
Q 1250 -75 995 37 
Q 741 150 617 320 
Q 494 491 444 738 
Q 409 903 409 1263 
L 409 3319 
L 972 3319 
L 972 1478 
Q 972 1038 1006 884 
Q 1059 663 1231 536 
Q 1403 409 1656 409 
Q 1909 409 2131 539 
Q 2353 669 2445 892 
Q 2538 1116 2538 1541 
L 2538 3319 
L 3100 3319 
L 3100 0 
L 2597 0 
z
" id="ArialMT-75" transform="scale(0.015625)"/>
       <path d="M 409 0 
L 409 4581 
L 972 4581 
L 972 0 
L 409 0 
z
" id="ArialMT-6c" transform="scale(0.015625)"/>
      </defs>
      <use xlink:href="#ArialMT-72"/>
      <use x="33.300781" xlink:href="#ArialMT-65"/>
      <use x="88.916016" xlink:href="#ArialMT-67"/>
      <use x="144.53125" xlink:href="#ArialMT-75"/>
      <use x="200.146484" xlink:href="#ArialMT-6c"/>
      <use x="222.363281" xlink:href="#ArialMT-61"/>
      <use x="277.978516" xlink:href="#ArialMT-72"/>
     </g>
    </g>
    <g id="line2d_13">
     <path d="M 642.244062 101.0978 
L 664.244062 101.0978 
" style="fill:none;stroke:#dd8452;stroke-dasharray:6,2.25;stroke-dashoffset:0;stroke-width:1.5;"/>
    </g>
    <g id="line2d_14"/>
    <g id="text_18">
     <!-- splitted_3s -->
     <g style="fill:#262626;" transform="translate(673.044062 104.9478)scale(0.11 -0.11)">
      <defs>
       <path d="M 422 -1272 
L 422 3319 
L 934 3319 
L 934 2888 
Q 1116 3141 1344 3267 
Q 1572 3394 1897 3394 
Q 2322 3394 2647 3175 
Q 2972 2956 3137 2557 
Q 3303 2159 3303 1684 
Q 3303 1175 3120 767 
Q 2938 359 2589 142 
Q 2241 -75 1856 -75 
Q 1575 -75 1351 44 
Q 1128 163 984 344 
L 984 -1272 
L 422 -1272 
z
M 931 1641 
Q 931 1000 1190 694 
Q 1450 388 1819 388 
Q 2194 388 2461 705 
Q 2728 1022 2728 1688 
Q 2728 2322 2467 2637 
Q 2206 2953 1844 2953 
Q 1484 2953 1207 2617 
Q 931 2281 931 1641 
z
" id="ArialMT-70" transform="scale(0.015625)"/>
       <path d="M 2575 0 
L 2575 419 
Q 2259 -75 1647 -75 
Q 1250 -75 917 144 
Q 584 363 401 755 
Q 219 1147 219 1656 
Q 219 2153 384 2558 
Q 550 2963 881 3178 
Q 1213 3394 1622 3394 
Q 1922 3394 2156 3267 
Q 2391 3141 2538 2938 
L 2538 4581 
L 3097 4581 
L 3097 0 
L 2575 0 
z
M 797 1656 
Q 797 1019 1065 703 
Q 1334 388 1700 388 
Q 2069 388 2326 689 
Q 2584 991 2584 1609 
Q 2584 2291 2321 2609 
Q 2059 2928 1675 2928 
Q 1300 2928 1048 2622 
Q 797 2316 797 1656 
z
" id="ArialMT-64" transform="scale(0.015625)"/>
       <path d="M -97 -1272 
L -97 -866 
L 3631 -866 
L 3631 -1272 
L -97 -1272 
z
" id="ArialMT-5f" transform="scale(0.015625)"/>
       <path d="M 269 1209 
L 831 1284 
Q 928 806 1161 595 
Q 1394 384 1728 384 
Q 2125 384 2398 659 
Q 2672 934 2672 1341 
Q 2672 1728 2419 1979 
Q 2166 2231 1775 2231 
Q 1616 2231 1378 2169 
L 1441 2663 
Q 1497 2656 1531 2656 
Q 1891 2656 2178 2843 
Q 2466 3031 2466 3422 
Q 2466 3731 2256 3934 
Q 2047 4138 1716 4138 
Q 1388 4138 1169 3931 
Q 950 3725 888 3313 
L 325 3413 
Q 428 3978 793 4289 
Q 1159 4600 1703 4600 
Q 2078 4600 2393 4439 
Q 2709 4278 2876 4000 
Q 3044 3722 3044 3409 
Q 3044 3113 2884 2869 
Q 2725 2625 2413 2481 
Q 2819 2388 3044 2092 
Q 3269 1797 3269 1353 
Q 3269 753 2831 336 
Q 2394 -81 1725 -81 
Q 1122 -81 723 278 
Q 325 638 269 1209 
z
" id="ArialMT-33" transform="scale(0.015625)"/>
      </defs>
      <use xlink:href="#ArialMT-73"/>
      <use x="50" xlink:href="#ArialMT-70"/>
      <use x="105.615234" xlink:href="#ArialMT-6c"/>
      <use x="127.832031" xlink:href="#ArialMT-69"/>
      <use x="150.048828" xlink:href="#ArialMT-74"/>
      <use x="177.832031" xlink:href="#ArialMT-74"/>
      <use x="205.615234" xlink:href="#ArialMT-65"/>
      <use x="261.230469" xlink:href="#ArialMT-64"/>
      <use x="316.845703" xlink:href="#ArialMT-5f"/>
      <use x="372.460938" xlink:href="#ArialMT-33"/>
      <use x="428.076172" xlink:href="#ArialMT-73"/>
     </g>
    </g>
    <g id="line2d_15">
     <path d="M 642.244062 116.6903 
L 664.244062 116.6903 
" style="fill:none;stroke:#55a868;stroke-dasharray:1.5,1.5;stroke-dashoffset:0;stroke-width:1.5;"/>
    </g>
    <g id="line2d_16"/>
    <g id="text_19">
     <!-- splitted_1s -->
     <g style="fill:#262626;" transform="translate(673.044062 120.5403)scale(0.11 -0.11)">
      <use xlink:href="#ArialMT-73"/>
      <use x="50" xlink:href="#ArialMT-70"/>
      <use x="105.615234" xlink:href="#ArialMT-6c"/>
      <use x="127.832031" xlink:href="#ArialMT-69"/>
      <use x="150.048828" xlink:href="#ArialMT-74"/>
      <use x="177.832031" xlink:href="#ArialMT-74"/>
      <use x="205.615234" xlink:href="#ArialMT-65"/>
      <use x="261.230469" xlink:href="#ArialMT-64"/>
      <use x="316.845703" xlink:href="#ArialMT-5f"/>
      <use x="372.460938" xlink:href="#ArialMT-31"/>
      <use x="428.076172" xlink:href="#ArialMT-73"/>
     </g>
    </g>
    <g id="line2d_17">
     <path d="M 642.244062 132.384206 
L 664.244062 132.384206 
" style="fill:none;stroke:#c44e52;stroke-dasharray:4.5,1.875,2.25,1.875;stroke-dashoffset:0;stroke-width:1.5;"/>
    </g>
    <g id="line2d_18"/>
    <g id="text_20">
     <!-- overlap_1f_3s -->
     <g style="fill:#262626;" transform="translate(673.044062 136.234206)scale(0.11 -0.11)">
      <use xlink:href="#ArialMT-6f"/>
      <use x="55.615234" xlink:href="#ArialMT-76"/>
      <use x="105.615234" xlink:href="#ArialMT-65"/>
      <use x="161.230469" xlink:href="#ArialMT-72"/>
      <use x="194.53125" xlink:href="#ArialMT-6c"/>
      <use x="216.748047" xlink:href="#ArialMT-61"/>
      <use x="272.363281" xlink:href="#ArialMT-70"/>
      <use x="327.978516" xlink:href="#ArialMT-5f"/>
      <use x="383.59375" xlink:href="#ArialMT-31"/>
      <use x="439.208984" xlink:href="#ArialMT-66"/>
      <use x="466.992188" xlink:href="#ArialMT-5f"/>
      <use x="522.607422" xlink:href="#ArialMT-33"/>
      <use x="578.222656" xlink:href="#ArialMT-73"/>
     </g>
    </g>
    <g id="line2d_19">
     <path d="M 642.244062 148.078113 
L 664.244062 148.078113 
" style="fill:none;stroke:#8172b3;stroke-dasharray:7.5,1.5,1.5,1.5;stroke-dashoffset:0;stroke-width:1.5;"/>
    </g>
    <g id="line2d_20"/>
    <g id="text_21">
     <!-- overlap_10f_3s -->
     <g style="fill:#262626;" transform="translate(673.044062 151.928112)scale(0.11 -0.11)">
      <use xlink:href="#ArialMT-6f"/>
      <use x="55.615234" xlink:href="#ArialMT-76"/>
      <use x="105.615234" xlink:href="#ArialMT-65"/>
      <use x="161.230469" xlink:href="#ArialMT-72"/>
      <use x="194.53125" xlink:href="#ArialMT-6c"/>
      <use x="216.748047" xlink:href="#ArialMT-61"/>
      <use x="272.363281" xlink:href="#ArialMT-70"/>
      <use x="327.978516" xlink:href="#ArialMT-5f"/>
      <use x="383.59375" xlink:href="#ArialMT-31"/>
      <use x="439.208984" xlink:href="#ArialMT-30"/>
      <use x="494.824219" xlink:href="#ArialMT-66"/>
      <use x="522.607422" xlink:href="#ArialMT-5f"/>
      <use x="578.222656" xlink:href="#ArialMT-33"/>
      <use x="633.837891" xlink:href="#ArialMT-73"/>
     </g>
    </g>
   </g>
  </g>
 </g>
 <defs>
  <clipPath id="pc933dbfbd4">
   <rect height="458.4888" width="652.86" x="105.3" y="71.4528"/>
  </clipPath>
 </defs>
</svg>
