<?xml version="1.0" encoding="utf-8" standalone="no"?>
<!DOCTYPE svg PUBLIC "-//W3C//DTD SVG 1.1//EN"
  "http://www.w3.org/Graphics/SVG/1.1/DTD/svg11.dtd">
<svg height="595.44pt" version="1.1" viewBox="0 0 842.4 595.44" width="842.4pt" xmlns="http://www.w3.org/2000/svg" xmlns:xlink="http://www.w3.org/1999/xlink">
 <metadata>
  <rdf:RDF xmlns:cc="http://creativecommons.org/ns#" xmlns:dc="http://purl.org/dc/elements/1.1/" xmlns:rdf="http://www.w3.org/1999/02/22-rdf-syntax-ns#">
   <cc:Work>
    <dc:type rdf:resource="http://purl.org/dc/dcmitype/StillImage"/>
    <dc:date>2021-06-04T22:03:08.581898</dc:date>
    <dc:format>image/svg+xml</dc:format>
    <dc:creator>
     <cc:Agent>
      <dc:title>Matplotlib v3.4.1, https://matplotlib.org/</dc:title>
     </cc:Agent>
    </dc:creator>
   </cc:Work>
  </rdf:RDF>
 </metadata>
 <defs>
  <style type="text/css">*{stroke-linecap:butt;stroke-linejoin:round;}</style>
 </defs>
 <g id="figure_1">
  <g id="patch_1">
   <path d="M 0 595.44 
L 842.4 595.44 
L 842.4 0 
L 0 0 
z
" style="fill:#ffffff;"/>
  </g>
  <g id="axes_1">
   <g id="patch_2">
    <path d="M 105.3 529.9416 
L 758.16 529.9416 
L 758.16 71.4528 
L 105.3 71.4528 
z
" style="fill:#ffffff;"/>
   </g>
   <g id="matplotlib.axis_1">
    <g id="xtick_1">
     <g id="text_1">
      <!-- 0 -->
      <g style="fill:#262626;" transform="translate(131.916939 547.315194)scale(0.11 -0.11)">
       <defs>
        <path d="M 266 2259 
Q 266 3072 433 3567 
Q 600 4063 929 4331 
Q 1259 4600 1759 4600 
Q 2128 4600 2406 4451 
Q 2684 4303 2865 4023 
Q 3047 3744 3150 3342 
Q 3253 2941 3253 2259 
Q 3253 1453 3087 958 
Q 2922 463 2592 192 
Q 2263 -78 1759 -78 
Q 1097 -78 719 397 
Q 266 969 266 2259 
z
M 844 2259 
Q 844 1131 1108 757 
Q 1372 384 1759 384 
Q 2147 384 2411 759 
Q 2675 1134 2675 2259 
Q 2675 3391 2411 3762 
Q 2147 4134 1753 4134 
Q 1366 4134 1134 3806 
Q 844 3388 844 2259 
z
" id="ArialMT-30" transform="scale(0.015625)"/>
       </defs>
       <use xlink:href="#ArialMT-30"/>
      </g>
     </g>
    </g>
    <g id="xtick_2">
     <g id="text_2">
      <!-- 25 -->
      <g style="fill:#262626;" transform="translate(201.950676 547.315194)scale(0.11 -0.11)">
       <defs>
        <path d="M 3222 541 
L 3222 0 
L 194 0 
Q 188 203 259 391 
Q 375 700 629 1000 
Q 884 1300 1366 1694 
Q 2113 2306 2375 2664 
Q 2638 3022 2638 3341 
Q 2638 3675 2398 3904 
Q 2159 4134 1775 4134 
Q 1369 4134 1125 3890 
Q 881 3647 878 3216 
L 300 3275 
Q 359 3922 746 4261 
Q 1134 4600 1788 4600 
Q 2447 4600 2831 4234 
Q 3216 3869 3216 3328 
Q 3216 3053 3103 2787 
Q 2991 2522 2730 2228 
Q 2469 1934 1863 1422 
Q 1356 997 1212 845 
Q 1069 694 975 541 
L 3222 541 
z
" id="ArialMT-32" transform="scale(0.015625)"/>
        <path d="M 266 1200 
L 856 1250 
Q 922 819 1161 601 
Q 1400 384 1738 384 
Q 2144 384 2425 690 
Q 2706 997 2706 1503 
Q 2706 1984 2436 2262 
Q 2166 2541 1728 2541 
Q 1456 2541 1237 2417 
Q 1019 2294 894 2097 
L 366 2166 
L 809 4519 
L 3088 4519 
L 3088 3981 
L 1259 3981 
L 1013 2750 
Q 1425 3038 1878 3038 
Q 2478 3038 2890 2622 
Q 3303 2206 3303 1553 
Q 3303 931 2941 478 
Q 2500 -78 1738 -78 
Q 1113 -78 717 272 
Q 322 622 266 1200 
z
" id="ArialMT-35" transform="scale(0.015625)"/>
       </defs>
       <use xlink:href="#ArialMT-32"/>
       <use x="55.615234" xlink:href="#ArialMT-35"/>
      </g>
     </g>
    </g>
    <g id="xtick_3">
     <g id="text_3">
      <!-- 50 -->
      <g style="fill:#262626;" transform="translate(275.042928 547.315194)scale(0.11 -0.11)">
       <use xlink:href="#ArialMT-35"/>
       <use x="55.615234" xlink:href="#ArialMT-30"/>
      </g>
     </g>
    </g>
    <g id="xtick_4">
     <g id="text_4">
      <!-- 75 -->
      <g style="fill:#262626;" transform="translate(348.135181 547.315194)scale(0.11 -0.11)">
       <defs>
        <path d="M 303 3981 
L 303 4522 
L 3269 4522 
L 3269 4084 
Q 2831 3619 2401 2847 
Q 1972 2075 1738 1259 
Q 1569 684 1522 0 
L 944 0 
Q 953 541 1156 1306 
Q 1359 2072 1739 2783 
Q 2119 3494 2547 3981 
L 303 3981 
z
" id="ArialMT-37" transform="scale(0.015625)"/>
       </defs>
       <use xlink:href="#ArialMT-37"/>
       <use x="55.615234" xlink:href="#ArialMT-35"/>
      </g>
     </g>
    </g>
    <g id="xtick_5">
     <g id="text_5">
      <!-- 100 -->
      <g style="fill:#262626;" transform="translate(418.168918 547.315194)scale(0.11 -0.11)">
       <defs>
        <path d="M 2384 0 
L 1822 0 
L 1822 3584 
Q 1619 3391 1289 3197 
Q 959 3003 697 2906 
L 697 3450 
Q 1169 3672 1522 3987 
Q 1875 4303 2022 4600 
L 2384 4600 
L 2384 0 
z
" id="ArialMT-31" transform="scale(0.015625)"/>
       </defs>
       <use xlink:href="#ArialMT-31"/>
       <use x="55.615234" xlink:href="#ArialMT-30"/>
       <use x="111.230469" xlink:href="#ArialMT-30"/>
      </g>
     </g>
    </g>
    <g id="xtick_6">
     <g id="text_6">
      <!-- 125 -->
      <g style="fill:#262626;" transform="translate(491.261171 547.315194)scale(0.11 -0.11)">
       <use xlink:href="#ArialMT-31"/>
       <use x="55.615234" xlink:href="#ArialMT-32"/>
       <use x="111.230469" xlink:href="#ArialMT-35"/>
      </g>
     </g>
    </g>
    <g id="xtick_7">
     <g id="text_7">
      <!-- 150 -->
      <g style="fill:#262626;" transform="translate(564.353423 547.315194)scale(0.11 -0.11)">
       <use xlink:href="#ArialMT-31"/>
       <use x="55.615234" xlink:href="#ArialMT-35"/>
       <use x="111.230469" xlink:href="#ArialMT-30"/>
      </g>
     </g>
    </g>
    <g id="xtick_8">
     <g id="text_8">
      <!-- 175 -->
      <g style="fill:#262626;" transform="translate(637.445676 547.315194)scale(0.11 -0.11)">
       <use xlink:href="#ArialMT-31"/>
       <use x="55.615234" xlink:href="#ArialMT-37"/>
       <use x="111.230469" xlink:href="#ArialMT-35"/>
      </g>
     </g>
    </g>
    <g id="xtick_9">
     <g id="text_9">
      <!-- 200 -->
      <g style="fill:#262626;" transform="translate(710.537928 547.315194)scale(0.11 -0.11)">
       <use xlink:href="#ArialMT-32"/>
       <use x="55.615234" xlink:href="#ArialMT-30"/>
       <use x="111.230469" xlink:href="#ArialMT-30"/>
      </g>
     </g>
    </g>
   </g>
   <g id="matplotlib.axis_2">
    <g id="ytick_1">
     <g id="text_10">
      <!-- −25 -->
      <g style="fill:#262626;" transform="translate(77.14125 533.878397)scale(0.11 -0.11)">
       <defs>
        <path d="M 3381 1997 
L 356 1997 
L 356 2522 
L 3381 2522 
L 3381 1997 
z
" id="ArialMT-2212" transform="scale(0.015625)"/>
       </defs>
       <use xlink:href="#ArialMT-2212"/>
       <use x="58.398438" xlink:href="#ArialMT-32"/>
       <use x="114.013672" xlink:href="#ArialMT-35"/>
      </g>
     </g>
    </g>
    <g id="ytick_2">
     <g id="text_11">
      <!-- −20 -->
      <g style="fill:#262626;" transform="translate(77.14125 442.180637)scale(0.11 -0.11)">
       <use xlink:href="#ArialMT-2212"/>
       <use x="58.398438" xlink:href="#ArialMT-32"/>
       <use x="114.013672" xlink:href="#ArialMT-30"/>
      </g>
     </g>
    </g>
    <g id="ytick_3">
     <g id="text_12">
      <!-- −15 -->
      <g style="fill:#262626;" transform="translate(77.14125 350.482877)scale(0.11 -0.11)">
       <use xlink:href="#ArialMT-2212"/>
       <use x="58.398438" xlink:href="#ArialMT-31"/>
       <use x="114.013672" xlink:href="#ArialMT-35"/>
      </g>
     </g>
    </g>
    <g id="ytick_4">
     <g id="text_13">
      <!-- −10 -->
      <g style="fill:#262626;" transform="translate(77.14125 258.785117)scale(0.11 -0.11)">
       <use xlink:href="#ArialMT-2212"/>
       <use x="58.398438" xlink:href="#ArialMT-31"/>
       <use x="114.013672" xlink:href="#ArialMT-30"/>
      </g>
     </g>
    </g>
    <g id="ytick_5">
     <g id="text_14">
      <!-- −5 -->
      <g style="fill:#262626;" transform="translate(83.258281 167.087357)scale(0.11 -0.11)">
       <use xlink:href="#ArialMT-2212"/>
       <use x="58.398438" xlink:href="#ArialMT-35"/>
      </g>
     </g>
    </g>
    <g id="ytick_6">
     <g id="text_15">
      <!-- 0 -->
      <g style="fill:#262626;" transform="translate(89.682969 75.389597)scale(0.11 -0.11)">
       <use xlink:href="#ArialMT-30"/>
      </g>
     </g>
    </g>
   </g>
   <g id="line2d_1">
    <path clip-path="url(#pe11741b118)" d="M 134.975455 557.171613 
L 137.899145 558.14409 
L 140.822835 558.925122 
L 143.746525 558.901825 
L 146.670215 559.948704 
L 149.593905 561.544103 
L 152.517595 562.471771 
L 158.364975 567.382881 
L 161.288665 568.873306 
L 164.212356 571.733929 
L 167.136046 575.86044 
L 169.7151 596.44 
M 185.381786 596.44 
L 187.601876 542.664811 
L 189.948072 596.44 
M 201.567893 596.44 
L 202.220327 580.940609 
L 205.144017 572.407782 
L 205.909915 596.44 
M 210.032895 596.44 
L 210.991397 563.416648 
L 213.915087 584.914117 
L 215.076895 596.44 
M 221.461128 596.44 
L 222.686158 586.384848 
L 225.609848 568.969116 
L 227.600215 596.44 
M 232.156495 596.44 
L 234.380918 515.701485 
L 237.958182 596.44 
M 243.363282 596.44 
L 246.075678 495.605031 
L 248.999369 484.825689 
L 251.923059 577.796264 
L 254.846749 572.338697 
L 257.525681 596.44 
M 257.862017 596.44 
L 260.694129 528.342318 
L 262.376095 596.44 
M 265.126547 596.44 
L 266.541509 549.290847 
L 269.465199 533.844974 
L 272.388889 550.735238 
L 275.312579 569.849525 
L 278.23627 574.929274 
L 281.15996 562.931372 
L 284.08365 534.449322 
L 287.00734 547.338758 
L 289.93103 591.141243 
L 292.85472 542.81463 
L 295.77841 522.454183 
L 298.7021 577.268556 
L 301.62579 579.623265 
L 304.549481 545.172591 
L 307.473171 522.865827 
L 310.396861 547.511804 
L 313.320551 514.164152 
L 316.244241 547.620696 
L 319.167931 518.17488 
L 322.091621 540.49763 
L 325.015311 506.582884 
L 330.862691 579.720439 
L 333.786382 554.998276 
L 336.710072 515.300195 
L 339.633762 574.71852 
L 341.941038 596.44 
M 342.77905 596.44 
L 345.481142 525.678632 
L 348.404832 489.932688 
L 351.328522 475.933199 
L 354.252212 549.51255 
L 357.175902 536.320888 
L 360.099592 521.4851 
L 362.951356 596.44 
M 363.089522 596.44 
L 365.946973 514.887117 
L 368.870663 517.05052 
L 371.794353 537.326631 
L 374.728519 596.44 
M 382.188128 596.44 
L 383.489113 554.512055 
L 386.412803 530.46462 
L 389.336494 571.528981 
L 392.260184 547.627028 
L 395.183874 565.380981 
L 398.107564 514.36889 
L 401.031254 487.954958 
L 403.954944 489.438386 
L 406.878634 536.75212 
L 409.802324 500.042199 
L 412.726014 484.663522 
L 415.649704 570.25099 
L 418.573395 545.626806 
L 421.497085 587.566155 
L 421.84551 596.44 
M 433.257258 596.44 
L 436.115535 525.39582 
L 439.039225 540.36796 
L 441.962915 590.557463 
L 444.886605 584.837546 
L 447.810296 503.608717 
L 450.733986 468.14478 
L 453.657676 539.271969 
L 456.581366 517.228953 
L 458.238299 596.44 
M 461.059319 596.44 
L 462.428746 543.083381 
L 465.352436 556.242931 
L 468.276126 539.455718 
L 471.199816 536.930273 
L 473.454302 596.44 
M 474.805207 596.44 
L 477.047197 538.344966 
L 479.970887 453.818299 
L 482.894577 572.608252 
L 485.818267 576.629683 
L 488.741957 580.173954 
L 491.665647 538.486705 
L 494.589337 539.46992 
L 496.407124 596.44 
M 498.568142 596.44 
L 500.436717 535.059232 
L 503.360408 469.072238 
L 507.621759 596.44 
M 516.039585 596.44 
L 517.978858 531.66639 
L 520.902548 577.189957 
L 523.826238 591.303375 
L 526.749928 548.949898 
L 529.385094 596.44 
M 534.059019 596.44 
L 535.520999 546.59519 
L 538.444689 521.843119 
L 541.368379 589.429465 
L 542.655395 596.44 
M 544.69728 596.44 
L 547.215759 541.030269 
L 550.139449 579.62253 
L 553.063139 487.267323 
L 555.986829 558.780445 
L 558.910519 536.491205 
L 561.83421 539.628274 
L 564.7579 553.776917 
L 567.68159 514.225577 
L 570.60528 517.361877 
L 573.52897 509.447075 
L 576.45266 489.779161 
L 579.37635 526.585067 
L 582.30004 541.845896 
L 585.22373 539.459076 
L 588.147421 524.498725 
L 591.071111 515.88457 
L 593.994801 537.560261 
L 596.918491 472.894633 
L 599.842181 536.015023 
L 602.765871 523.792725 
L 605.689561 525.267653 
L 608.613251 516.686764 
L 611.370731 596.44 
M 614.673862 596.44 
L 617.384322 454.488899 
L 620.308012 490.015835 
L 623.231702 552.749207 
L 625.443652 596.44 
M 627.995125 596.44 
L 632.002772 566.162117 
L 634.926462 544.73954 
L 637.850152 580.644853 
L 640.773842 512.364121 
L 643.697532 453.156025 
L 646.621223 495.152496 
L 649.544913 513.174395 
L 652.468603 586.852635 
L 658.315983 513.863955 
L 661.239673 574.279487 
L 664.163363 507.1476 
L 667.087053 564.945236 
L 670.010743 572.058263 
L 672.934433 558.28359 
L 675.858124 565.312385 
L 678.781814 531.242293 
L 681.705504 588.461536 
L 682.293149 596.44 
M 686.102557 596.44 
L 687.552884 565.219373 
L 688.405304 596.44 
M 700.320324 596.44 
L 702.171335 585.562435 
L 705.095025 585.897893 
L 708.018715 579.44924 
L 710.942405 581.261095 
L 713.866095 579.91825 
L 716.789785 581.356765 
L 719.713475 579.536235 
L 722.637165 577.155851 
L 725.560855 581.121315 
L 728.484545 581.149753 
L 728.484545 581.149753 
" style="fill:none;stroke:#4c72b0;stroke-linecap:round;stroke-width:1.5;"/>
   </g>
   <g id="line2d_2">
    <path clip-path="url(#pe11741b118)" d="M 134.975455 548.471723 
L 137.899145 552.270017 
L 143.746525 552.924911 
L 146.670215 554.393228 
L 149.593905 556.336083 
L 152.517595 555.097619 
L 155.441285 556.994615 
L 158.364975 556.757661 
L 161.288665 558.263896 
L 164.212356 559.22504 
L 167.136046 560.036504 
L 170.059736 580.069084 
L 172.983426 586.323039 
L 174.645242 596.44 
M 184.928206 596.44 
L 187.601876 516.626599 
L 190.146304 596.44 
M 201.849219 596.44 
L 202.220327 590.569741 
L 204.028473 596.44 
M 210.695035 596.44 
L 210.991397 587.350854 
L 213.915087 569.06664 
L 215.630179 596.44 
M 220.563305 596.44 
L 222.686158 584.972394 
L 225.609848 562.354728 
L 228.533538 591.256746 
L 229.193852 596.44 
M 231.953723 596.44 
L 234.380918 509.584301 
L 238.633004 596.44 
M 243.16902 596.44 
L 246.075678 503.970549 
L 248.999369 510.678613 
L 251.923059 574.57066 
L 254.846749 570.093021 
L 257.301587 596.44 
M 258.026432 596.44 
L 260.694129 544.001184 
L 262.091691 596.44 
M 265.580948 596.44 
L 266.541509 568.42126 
L 269.465199 548.950947 
L 272.388889 580.211032 
L 274.820438 596.44 
M 278.93941 596.44 
L 281.15996 588.728433 
L 284.08365 546.957722 
L 287.00734 560.89638 
L 288.829616 596.44 
M 291.427352 596.44 
L 292.85472 575.94684 
L 295.77841 538.165204 
L 298.6502 596.44 
M 302.117241 596.44 
L 304.549481 558.038171 
L 307.473171 538.268605 
L 310.396861 539.239437 
L 313.320551 530.677682 
L 316.244241 564.065141 
L 319.167931 550.410345 
L 322.091621 549.069669 
L 325.015311 500.861883 
L 327.939001 569.681482 
L 330.862691 576.473148 
L 333.786382 542.316411 
L 336.710072 549.583035 
L 339.633762 587.977414 
L 342.557452 590.661668 
L 345.481142 519.383786 
L 348.404832 496.768708 
L 351.328522 556.824648 
L 354.252212 592.627924 
L 360.099592 436.472737 
L 363.023283 436.669709 
L 365.946973 479.351017 
L 368.870663 467.514197 
L 371.794353 480.401779 
L 374.718043 533.081293 
L 377.641733 565.533878 
L 380.565423 594.902599 
L 383.489113 516.733287 
L 386.412803 544.21722 
L 389.336494 575.30335 
L 392.260184 553.328125 
L 395.183874 572.390782 
L 398.107564 517.497494 
L 401.031254 486.083847 
L 403.954944 521.698267 
L 406.878634 536.17866 
L 409.802324 539.922246 
L 412.726014 548.122063 
L 415.649704 590.410547 
L 418.573395 548.724138 
L 421.977441 596.44 
M 426.107815 596.44 
L 427.344465 570.875452 
L 430.268155 579.417023 
L 433.191845 563.503049 
L 436.115535 512.023661 
L 439.039225 574.402477 
L 440.830958 596.44 
M 442.745974 596.44 
L 444.886605 558.38017 
L 447.810296 483.271391 
L 450.733986 502.637884 
L 453.657676 543.001668 
L 456.581366 554.030696 
L 457.779937 596.44 
M 461.066278 596.44 
L 462.428746 543.170586 
L 465.352436 570.952162 
L 468.276126 528.485421 
L 471.199816 541.572003 
L 474.123506 586.54775 
L 477.047197 569.972655 
L 479.970887 458.705064 
L 482.894577 564.349703 
L 485.818267 591.67794 
L 488.741957 593.076052 
L 491.665647 556.845111 
L 494.589337 547.517995 
L 496.300303 596.44 
M 498.588313 596.44 
L 500.436717 536.832924 
L 503.360408 469.321505 
L 506.284098 560.656768 
L 507.658651 596.44 
M 516.550994 596.44 
L 517.978858 560.824846 
L 520.902548 586.350568 
L 523.826238 586.984474 
L 526.749928 560.966795 
L 528.890875 596.44 
M 533.791341 596.44 
L 535.520999 541.667499 
L 538.444689 518.16603 
L 541.368379 555.085621 
L 544.292069 595.14375 
L 547.215759 505.799684 
L 550.139449 552.589419 
L 553.063139 497.266472 
L 555.986829 491.052605 
L 558.910519 457.096827 
L 561.83421 425.56201 
L 564.7579 502.284727 
L 567.68159 476.422918 
L 570.60528 574.247761 
L 573.52897 453.296644 
L 576.45266 451.765013 
L 579.37635 496.687835 
L 582.30004 461.25503 
L 585.22373 546.826022 
L 588.147421 515.410941 
L 591.071111 534.532365 
L 593.994801 562.004719 
L 596.918491 494.386436 
L 599.842181 588.146437 
L 602.765871 541.939607 
L 605.689561 569.054782 
L 608.333234 596.44 
M 616.305193 596.44 
L 617.384322 559.689678 
L 620.308012 548.153755 
L 623.231702 581.396607 
L 623.847165 596.44 
M 634.468155 596.44 
L 634.926462 593.67148 
L 637.783267 596.44 
M 637.853814 596.44 
L 640.773842 544.74916 
L 643.697532 454.376579 
L 646.621223 516.31944 
L 649.544913 546.471081 
L 652.468603 593.899514 
L 655.392293 579.383827 
L 658.315983 492.554607 
L 661.239673 577.295561 
L 664.163363 503.292673 
L 667.087053 575.721779 
L 670.010743 587.786459 
L 672.934433 560.314979 
L 675.858124 570.827984 
L 678.781814 557.174132 
L 681.732181 596.44 
M 686.125459 596.44 
L 687.552884 563.114947 
L 688.501992 596.44 
M 700.519245 596.44 
L 702.171335 574.978771 
L 705.095025 575.357394 
L 708.018715 573.732192 
L 710.942405 575.969787 
L 713.866095 573.55159 
L 716.789785 575.861979 
L 719.713475 574.801808 
L 722.637165 570.935022 
L 725.560855 575.088223 
L 728.484545 570.52072 
L 728.484545 570.52072 
" style="fill:none;stroke:#dd8452;stroke-dasharray:6,2.25;stroke-dashoffset:0;stroke-width:1.5;"/>
   </g>
   <g id="line2d_3">
    <path clip-path="url(#pe11741b118)" d="M 134.975455 551.482689 
L 137.899145 554.798576 
L 140.822835 555.771332 
L 143.746525 554.32103 
L 146.670215 561.78557 
L 149.593905 563.338363 
L 152.517595 563.142021 
L 155.441285 586.783759 
L 158.364975 587.114564 
L 161.288665 575.479823 
L 164.212356 577.982392 
L 167.136046 571.552698 
L 170.059736 572.110592 
L 174.167547 596.44 
M 183.717942 596.44 
L 184.678186 553.159941 
L 187.601876 517.79122 
L 190.525567 527.45075 
L 193.449257 548.219377 
L 196.372947 581.369357 
L 198.043343 596.44 
M 203.318085 596.44 
L 205.144017 566.309663 
L 208.067707 515.576571 
L 210.991397 553.983578 
L 213.915087 589.823654 
L 216.838777 580.52809 
L 219.762468 542.817708 
L 222.686158 542.332607 
L 225.609848 507.859162 
L 228.533538 559.20734 
L 231.305981 596.44 
M 231.511235 596.44 
L 234.380918 488.512118 
L 237.304608 577.978089 
L 238.191463 596.44 
M 243.40306 596.44 
L 246.075678 486.711772 
L 248.999369 523.046743 
L 251.923059 527.291626 
L 254.872862 596.44 
M 258.707723 596.44 
L 260.694129 532.13687 
L 262.564354 596.44 
M 264.861646 596.44 
L 266.541509 547.521563 
L 269.465199 566.100658 
L 272.388889 586.295684 
L 275.312579 578.815648 
L 278.23627 590.034863 
L 281.15996 558.057585 
L 284.08365 557.659059 
L 287.00734 402.49814 
L 289.93103 500.2929 
L 292.85472 510.821891 
L 295.77841 545.808352 
L 297.768031 596.44 
M 303.563514 596.44 
L 304.549481 573.236596 
L 307.473171 551.467823 
L 310.396861 589.234662 
L 313.320551 585.598989 
L 316.244241 594.014109 
L 319.167931 585.772595 
L 322.091621 583.005998 
L 325.015311 523.01652 
L 327.939001 583.273384 
L 329.078046 596.44 
M 332.260726 596.44 
L 333.786382 573.927484 
L 336.710072 571.376084 
L 337.953259 596.44 
M 344.898832 596.44 
L 345.481142 578.823239 
L 348.404832 561.545572 
L 351.328522 565.178587 
L 354.252212 554.060219 
L 356.609823 596.44 
M 357.377556 596.44 
L 360.099592 459.082357 
L 363.023283 487.769844 
L 365.946973 504.515186 
L 368.870663 563.137194 
L 371.794353 457.024384 
L 374.718043 539.166574 
L 377.641733 580.470199 
L 380.565423 557.695787 
L 383.489113 490.924368 
L 386.412803 554.032795 
L 389.336494 592.329441 
L 392.260184 572.913487 
L 395.183874 560.731835 
L 398.107564 560.647393 
L 401.031254 477.553959 
L 403.954944 535.526389 
L 406.878634 561.307534 
L 409.802324 549.151068 
L 412.726014 521.32783 
L 414.800076 596.44 
M 427.249901 596.44 
L 427.344465 594.353764 
L 430.268155 591.505594 
L 433.191845 500.20629 
L 436.115535 446.568571 
L 439.039225 586.487129 
L 441.962915 569.46779 
L 444.886605 576.704365 
L 447.810296 542.320679 
L 450.733986 495.487779 
L 453.657676 514.574921 
L 456.581366 580.646357 
L 456.942781 596.44 
M 461.835857 596.44 
L 462.428746 567.958056 
L 465.352436 582.781112 
L 468.276126 553.848626 
L 471.199816 513.530071 
L 474.123506 529.915155 
L 477.047197 565.185093 
L 479.970887 466.662191 
L 482.894577 534.264488 
L 485.818267 565.133078 
L 488.62173 596.44 
M 488.807284 596.44 
L 491.665647 537.695144 
L 494.589337 524.570713 
L 497.513027 582.42799 
L 500.436717 502.778398 
L 503.360408 516.011966 
L 506.284098 508.634317 
L 508.5443 596.44 
M 510.84997 596.44 
L 512.131478 576.325568 
L 515.055168 494.7015 
L 517.978858 516.032779 
L 520.902548 515.367951 
L 523.826238 529.88042 
L 526.749928 589.583552 
L 529.673618 571.543323 
L 532.597309 562.558731 
L 535.520999 561.242017 
L 538.444689 547.958008 
L 541.368379 550.271859 
L 544.292069 583.430584 
L 547.215759 520.906672 
L 550.139449 595.876265 
L 553.063139 467.773013 
L 555.986829 452.513828 
L 558.910519 523.826935 
L 561.83421 463.297648 
L 564.7579 482.108029 
L 567.68159 532.002162 
L 570.60528 539.600815 
L 573.52897 499.994347 
L 576.45266 523.449047 
L 579.37635 488.233503 
L 582.30004 504.534775 
L 585.22373 588.689185 
L 588.147421 541.871117 
L 591.071111 403.935955 
L 593.994801 402.076807 
L 596.918491 418.816797 
L 599.842181 491.150933 
L 602.765871 498.217332 
L 605.64558 596.44 
M 605.823624 596.44 
L 608.613251 565.22497 
L 610.89418 596.44 
M 615.05678 596.44 
L 617.384322 511.570951 
L 620.308012 523.603204 
L 623.231702 574.647056 
L 624.364698 596.44 
M 634.522765 596.44 
L 634.926462 590.598599 
L 637.850152 581.649826 
L 640.773842 543.056761 
L 643.697532 488.922887 
L 646.621223 520.781304 
L 649.544913 544.341713 
L 652.468603 534.00952 
L 654.650441 596.44 
M 656.006243 596.44 
L 658.315983 516.581405 
L 661.239673 486.441866 
L 664.163363 464.864048 
L 667.087053 507.603528 
L 670.010743 450.610781 
L 672.934433 507.813128 
L 675.154311 596.44 
M 677.369284 596.44 
L 678.781814 570.174804 
L 681.705504 531.352655 
L 684.629194 580.115642 
L 686.121055 596.44 
M 700.787179 596.44 
L 702.171335 579.259474 
L 705.095025 573.133335 
L 708.018715 570.146575 
L 710.942405 576.044959 
L 713.866095 570.742738 
L 716.789785 573.513847 
L 719.713475 571.065008 
L 722.637165 570.962831 
L 725.560855 573.059318 
L 728.484545 570.807835 
L 728.484545 570.807835 
" style="fill:none;stroke:#55a868;stroke-dasharray:1.5,1.5;stroke-dashoffset:0;stroke-width:1.5;"/>
   </g>
   <g id="line2d_4">
    <path clip-path="url(#pe11741b118)" d="M 134.975455 548.361326 
L 137.899145 552.140137 
L 140.822835 552.503403 
L 143.746525 552.728779 
L 146.670215 554.359892 
L 149.593905 556.298305 
L 152.517595 555.160688 
L 155.441285 557.215583 
L 158.364975 557.153319 
L 161.288665 558.71881 
L 167.136046 560.589501 
L 170.059736 580.733877 
L 172.983426 586.963871 
L 174.540952 596.44 
M 184.961088 596.44 
L 187.601876 517.108517 
L 190.115963 596.44 
M 201.872767 596.44 
L 202.220327 590.91146 
L 205.147153 596.44 
M 210.560403 596.44 
L 210.991397 582.338231 
L 213.915087 577.067877 
L 215.569844 596.44 
M 220.844094 596.44 
L 222.686158 585.943611 
L 225.609848 561.894287 
L 229.004254 596.44 
M 232.01144 596.44 
L 234.380918 510.263996 
L 238.438727 596.44 
M 243.23878 596.44 
L 246.075678 504.616418 
L 248.999369 510.672107 
L 251.923059 575.016899 
L 254.846749 570.496094 
L 257.501655 596.44 
M 257.909708 596.44 
L 260.694129 543.926782 
L 262.08451 596.44 
M 265.499737 596.44 
L 266.541509 564.381954 
L 269.465199 548.913974 
L 272.388889 576.781041 
L 274.639573 596.44 
M 278.757452 596.44 
L 281.15996 586.748674 
L 284.08365 547.298216 
L 287.00734 570.766979 
L 288.497593 596.44 
M 291.355787 596.44 
L 292.85472 570.4601 
L 295.77841 538.151492 
L 298.641878 596.44 
M 302.194431 596.44 
L 304.549481 561.203084 
L 307.473171 538.615186 
L 310.396861 541.428271 
L 313.320551 529.963602 
L 316.244241 565.734068 
L 319.167931 552.905567 
L 322.091621 560.244634 
L 325.015311 497.254614 
L 327.939001 557.972479 
L 330.862691 588.997568 
L 333.786382 540.223702 
L 336.710072 556.582726 
L 338.968301 596.44 
M 342.97019 596.44 
L 345.481142 528.342563 
L 348.404832 471.298185 
L 351.328522 534.69761 
L 354.252212 517.231996 
L 357.175902 537.436083 
L 360.099592 458.572 
L 363.023283 577.598172 
L 365.946973 490.663698 
L 368.870663 484.531333 
L 371.794353 502.935738 
L 374.718043 558.902175 
L 377.641733 574.705088 
L 379.729468 596.44 
M 380.84125 596.44 
L 383.489113 512.894206 
L 386.412803 547.063326 
L 389.336494 574.743671 
L 392.260184 551.841548 
L 395.183874 572.729072 
L 398.107564 519.425832 
L 401.031254 489.524157 
L 403.954944 514.582372 
L 406.878634 525.973233 
L 409.802324 539.928262 
L 412.726014 544.566984 
L 415.649704 591.711066 
L 418.573395 548.385637 
L 421.720045 596.44 
M 426.425453 596.44 
L 427.344465 576.967764 
L 430.268155 578.64799 
L 433.191845 559.500052 
L 436.115535 510.915322 
L 439.039225 574.155134 
L 440.862522 596.44 
M 442.708092 596.44 
L 444.886605 557.121067 
L 447.810296 482.754178 
L 450.733986 496.708158 
L 453.657676 547.217623 
L 456.581366 552.561295 
L 457.804005 596.44 
M 461.030982 596.44 
L 462.428746 540.519248 
L 465.352436 572.957281 
L 468.276126 529.280515 
L 471.199816 548.738899 
L 474.123506 595.052767 
L 477.047197 575.24105 
L 479.970887 456.990348 
L 482.894577 565.292307 
L 485.818267 591.658736 
L 488.741957 593.662665 
L 491.665647 558.84152 
L 494.589337 548.874656 
L 496.255046 596.44 
M 498.611869 596.44 
L 500.436717 536.783567 
L 503.360408 468.451239 
L 506.284098 557.625723 
L 507.702828 596.44 
M 516.375408 596.44 
L 517.978858 548.342577 
L 520.902548 583.211925 
L 523.826238 592.732374 
L 526.749928 561.797393 
L 529.0969 596.44 
M 533.914229 596.44 
L 535.520999 547.871082 
L 538.444689 525.674505 
L 541.368379 558.506902 
L 543.872992 596.44 
M 544.480861 596.44 
L 547.215759 504.495003 
L 550.139449 556.997308 
L 553.063139 460.537277 
L 555.986829 511.805211 
L 558.910519 529.725949 
L 561.83421 500.781605 
L 564.7579 498.117219 
L 567.68159 436.565748 
L 570.60528 519.530212 
L 573.52897 499.947858 
L 576.45266 474.264027 
L 579.37635 496.175134 
L 582.30004 473.175627 
L 585.22373 585.568347 
L 588.147421 508.320162 
L 591.071111 522.05961 
L 593.994801 572.830584 
L 596.918491 511.301885 
L 599.842181 582.745852 
L 602.765871 564.304159 
L 605.689561 574.512768 
L 608.585903 596.44 
M 616.297363 596.44 
L 617.384322 555.987753 
L 620.308012 546.923162 
L 623.231702 584.34321 
L 623.773417 596.44 
M 634.850596 596.44 
L 634.926462 596.07635 
L 636.244871 596.44 
M 637.875204 596.44 
L 640.773842 545.207956 
L 643.697532 452.967623 
L 646.621223 519.371333 
L 649.544913 546.295762 
L 652.468603 594.627307 
L 655.392293 579.464246 
L 658.315983 492.504901 
L 661.239673 577.935134 
L 664.163363 503.701798 
L 667.087053 574.682806 
L 670.010743 587.927043 
L 672.934433 560.25282 
L 675.858124 570.548774 
L 678.781814 558.012915 
L 681.861145 596.44 
M 686.128367 596.44 
L 687.552884 563.793557 
L 688.475988 596.44 
M 700.581227 596.44 
L 702.171335 574.858615 
L 705.095025 575.489128 
L 708.018715 574.389079 
L 710.942405 577.199856 
L 713.866095 574.984333 
L 716.789785 576.614292 
L 719.713475 575.585743 
L 722.637165 572.068127 
L 725.560855 576.23511 
L 728.484545 572.123955 
L 728.484545 572.123955 
" style="fill:none;stroke:#c44e52;stroke-dasharray:4.5,1.875,2.25,1.875;stroke-dashoffset:0;stroke-width:1.5;"/>
   </g>
   <g id="line2d_5">
    <path clip-path="url(#pe11741b118)" d="M 134.975455 550.900308 
L 137.899145 554.742363 
L 140.822835 555.097514 
L 143.746525 555.749575 
L 146.670215 557.013119 
L 149.593905 559.557943 
L 152.517595 558.848586 
L 155.441285 560.644805 
L 158.364975 560.642356 
L 161.288665 562.877783 
L 164.212356 562.414404 
L 167.136046 562.688891 
L 170.059736 580.434589 
L 172.983426 586.592629 
L 174.871899 596.44 
M 185.111424 596.44 
L 187.601876 535.912987 
L 189.897126 596.44 
M 201.915086 596.44 
L 202.220327 590.38907 
L 205.144017 594.766667 
L 205.200863 596.44 
M 210.63704 596.44 
L 210.991397 584.801132 
L 213.915087 567.069321 
L 215.829419 596.44 
M 220.513107 596.44 
L 225.609848 569.015919 
L 228.634337 596.44 
M 232.097445 596.44 
L 234.380918 514.274689 
L 237.304608 570.832461 
L 238.460488 596.44 
M 243.254599 596.44 
L 246.075678 500.559482 
L 248.999369 501.131509 
L 251.923059 581.906614 
L 254.846749 572.226656 
L 257.123599 596.44 
M 258.085419 596.44 
L 260.694129 539.468276 
L 262.168444 596.44 
M 265.449559 596.44 
L 266.541509 563.052123 
L 269.465199 547.513728 
L 274.941978 596.44 
M 279.915389 596.44 
L 281.15996 593.205548 
L 284.08365 554.186497 
L 287.00734 569.186446 
L 288.592687 596.44 
M 291.284258 596.44 
L 292.85472 569.739269 
L 295.77841 533.780961 
L 298.7021 592.76655 
L 299.902095 596.44 
M 301.980672 596.44 
L 304.549481 558.245182 
L 307.473171 536.681496 
L 310.396861 555.30533 
L 313.320551 533.639397 
L 316.244241 563.076958 
L 319.167931 550.925564 
L 322.091621 562.884499 
L 325.015311 507.805363 
L 327.939001 549.447243 
L 330.862691 540.480385 
L 333.786382 562.678432 
L 336.710072 541.702758 
L 339.633762 587.704815 
L 341.946046 596.44 
M 342.707704 596.44 
L 345.481142 553.80595 
L 348.404832 488.133006 
L 351.328522 492.213168 
L 354.147722 596.44 
M 354.909449 596.44 
L 357.175902 583.118458 
L 360.099592 559.920161 
L 361.433201 596.44 
M 364.254989 596.44 
L 365.946973 536.625108 
L 368.870663 537.700076 
L 371.794353 517.846768 
L 375.264043 596.44 
M 382.476778 596.44 
L 383.489113 563.621596 
L 386.412803 540.826092 
L 389.336494 576.100612 
L 392.260184 566.164461 
L 395.183874 584.125495 
L 398.107564 503.181717 
L 401.031254 497.309953 
L 403.954944 523.176169 
L 406.878634 547.470492 
L 409.802324 557.204669 
L 412.726014 535.879127 
L 414.845512 596.44 
M 416.753864 596.44 
L 418.573395 558.574203 
L 420.858633 596.44 
M 427.033665 596.44 
L 427.344465 589.510584 
L 430.268155 583.198562 
L 433.191845 565.035274 
L 436.115535 513.458782 
L 439.039225 571.007571 
L 441.008772 596.44 
M 442.73646 596.44 
L 444.886605 562.193401 
L 447.810296 482.929043 
L 450.733986 491.089194 
L 453.657676 527.936901 
L 456.581366 540.683933 
L 458.396794 596.44 
M 460.457408 596.44 
L 462.428746 525.983762 
L 465.352436 562.968136 
L 468.276126 532.558623 
L 471.199816 553.886229 
L 473.884635 596.44 
M 474.365463 596.44 
L 477.047197 554.477075 
L 479.970887 456.726355 
L 482.894577 569.143211 
L 485.818267 591.437173 
L 488.741957 522.450196 
L 491.665647 576.298283 
L 494.589337 489.192442 
L 497.513027 552.972134 
L 500.436717 537.100485 
L 503.360408 525.698781 
L 506.284098 583.989598 
L 509.207788 518.009425 
L 512.131478 543.561172 
L 515.055168 488.419911 
L 517.978858 496.410934 
L 520.902548 519.800362 
L 523.826238 522.309751 
L 526.749928 568.861273 
L 529.673618 526.459034 
L 532.597309 479.412896 
L 535.520999 512.956191 
L 538.444689 477.885918 
L 541.368379 449.050746 
L 544.292069 423.4714 
L 547.215759 453.87843 
L 550.139449 462.568106 
L 553.063139 417.943908 
L 555.986829 432.602873 
L 558.910519 427.475167 
L 561.83421 428.912212 
L 564.7579 449.632707 
L 567.68159 440.437816 
L 570.60528 490.464032 
L 573.52897 498.805274 
L 576.45266 488.242178 
L 579.37635 496.076036 
L 582.30004 456.766197 
L 585.22373 561.106295 
L 588.147421 497.271999 
L 591.071111 509.699525 
L 593.994801 552.595295 
L 596.918491 507.133153 
L 599.842181 562.052571 
L 602.765871 555.741914 
L 605.689561 570.880489 
L 608.613251 581.477935 
L 609.704838 596.44 
M 615.875615 596.44 
L 617.384322 539.80111 
L 620.308012 542.813056 
L 623.231702 575.298243 
L 624.210078 596.44 
M 633.845733 596.44 
L 634.926462 590.152081 
L 637.850152 587.868731 
L 640.773842 526.599374 
L 643.697532 444.499684 
L 646.621223 506.760967 
L 649.544913 533.640097 
L 652.468603 582.821409 
L 655.392293 565.7914 
L 658.315983 491.018429 
L 661.239673 563.403461 
L 664.163363 496.150228 
L 667.087053 566.186988 
L 670.010743 581.885451 
L 672.934433 560.176948 
L 675.858124 563.873451 
L 678.781814 540.687781 
L 681.705504 589.96102 
L 682.332199 596.44 
M 685.699006 596.44 
L 687.552884 555.288714 
L 688.79072 596.44 
M 700.193057 596.44 
L 702.171335 568.503533 
L 705.095025 572.200491 
L 708.018715 570.464822 
L 710.942405 572.676917 
L 713.866095 570.44303 
L 716.789785 571.952133 
L 719.713475 571.732984 
L 722.637165 566.782801 
L 725.560855 572.037205 
L 728.484545 567.80376 
L 728.484545 567.80376 
" style="fill:none;stroke:#8172b3;stroke-dasharray:7.5,1.5,1.5,1.5;stroke-dashoffset:0;stroke-width:1.5;"/>
   </g>
   <g id="line2d_6"/>
   <g id="line2d_7"/>
   <g id="line2d_8"/>
   <g id="line2d_9"/>
   <g id="line2d_10"/>
   <g id="patch_3">
    <path d="M 105.3 529.9416 
L 105.3 71.4528 
" style="fill:none;stroke:#262626;stroke-linecap:square;stroke-linejoin:miter;stroke-width:1.25;"/>
   </g>
   <g id="patch_4">
    <path d="M 758.16 529.9416 
L 758.16 71.4528 
" style="fill:none;stroke:#262626;stroke-linecap:square;stroke-linejoin:miter;stroke-width:1.25;"/>
   </g>
   <g id="patch_5">
    <path d="M 105.3 529.9416 
L 758.16 529.9416 
" style="fill:none;stroke:#262626;stroke-linecap:square;stroke-linejoin:miter;stroke-width:1.25;"/>
   </g>
   <g id="patch_6">
    <path d="M 105.3 71.4528 
L 758.16 71.4528 
" style="fill:none;stroke:#262626;stroke-linecap:square;stroke-linejoin:miter;stroke-width:1.25;"/>
   </g>
   <g id="text_16">
    <!-- Activations for &gt;&lt;unk&gt;&lt; -->
    <g style="fill:#262626;" transform="translate(368.6925 65.4528)scale(0.12 -0.12)">
     <defs>
      <path d="M -9 0 
L 1750 4581 
L 2403 4581 
L 4278 0 
L 3588 0 
L 3053 1388 
L 1138 1388 
L 634 0 
L -9 0 
z
M 1313 1881 
L 2866 1881 
L 2388 3150 
Q 2169 3728 2063 4100 
Q 1975 3659 1816 3225 
L 1313 1881 
z
" id="ArialMT-41" transform="scale(0.015625)"/>
      <path d="M 2588 1216 
L 3141 1144 
Q 3050 572 2676 248 
Q 2303 -75 1759 -75 
Q 1078 -75 664 370 
Q 250 816 250 1647 
Q 250 2184 428 2587 
Q 606 2991 970 3192 
Q 1334 3394 1763 3394 
Q 2303 3394 2647 3120 
Q 2991 2847 3088 2344 
L 2541 2259 
Q 2463 2594 2264 2762 
Q 2066 2931 1784 2931 
Q 1359 2931 1093 2626 
Q 828 2322 828 1663 
Q 828 994 1084 691 
Q 1341 388 1753 388 
Q 2084 388 2306 591 
Q 2528 794 2588 1216 
z
" id="ArialMT-63" transform="scale(0.015625)"/>
      <path d="M 1650 503 
L 1731 6 
Q 1494 -44 1306 -44 
Q 1000 -44 831 53 
Q 663 150 594 308 
Q 525 466 525 972 
L 525 2881 
L 113 2881 
L 113 3319 
L 525 3319 
L 525 4141 
L 1084 4478 
L 1084 3319 
L 1650 3319 
L 1650 2881 
L 1084 2881 
L 1084 941 
Q 1084 700 1114 631 
Q 1144 563 1211 522 
Q 1278 481 1403 481 
Q 1497 481 1650 503 
z
" id="ArialMT-74" transform="scale(0.015625)"/>
      <path d="M 425 3934 
L 425 4581 
L 988 4581 
L 988 3934 
L 425 3934 
z
M 425 0 
L 425 3319 
L 988 3319 
L 988 0 
L 425 0 
z
" id="ArialMT-69" transform="scale(0.015625)"/>
      <path d="M 1344 0 
L 81 3319 
L 675 3319 
L 1388 1331 
Q 1503 1009 1600 663 
Q 1675 925 1809 1294 
L 2547 3319 
L 3125 3319 
L 1869 0 
L 1344 0 
z
" id="ArialMT-76" transform="scale(0.015625)"/>
      <path d="M 2588 409 
Q 2275 144 1986 34 
Q 1697 -75 1366 -75 
Q 819 -75 525 192 
Q 231 459 231 875 
Q 231 1119 342 1320 
Q 453 1522 633 1644 
Q 813 1766 1038 1828 
Q 1203 1872 1538 1913 
Q 2219 1994 2541 2106 
Q 2544 2222 2544 2253 
Q 2544 2597 2384 2738 
Q 2169 2928 1744 2928 
Q 1347 2928 1158 2789 
Q 969 2650 878 2297 
L 328 2372 
Q 403 2725 575 2942 
Q 747 3159 1072 3276 
Q 1397 3394 1825 3394 
Q 2250 3394 2515 3294 
Q 2781 3194 2906 3042 
Q 3031 2891 3081 2659 
Q 3109 2516 3109 2141 
L 3109 1391 
Q 3109 606 3145 398 
Q 3181 191 3288 0 
L 2700 0 
Q 2613 175 2588 409 
z
M 2541 1666 
Q 2234 1541 1622 1453 
Q 1275 1403 1131 1340 
Q 988 1278 909 1158 
Q 831 1038 831 891 
Q 831 666 1001 516 
Q 1172 366 1500 366 
Q 1825 366 2078 508 
Q 2331 650 2450 897 
Q 2541 1088 2541 1459 
L 2541 1666 
z
" id="ArialMT-61" transform="scale(0.015625)"/>
      <path d="M 213 1659 
Q 213 2581 725 3025 
Q 1153 3394 1769 3394 
Q 2453 3394 2887 2945 
Q 3322 2497 3322 1706 
Q 3322 1066 3130 698 
Q 2938 331 2570 128 
Q 2203 -75 1769 -75 
Q 1072 -75 642 372 
Q 213 819 213 1659 
z
M 791 1659 
Q 791 1022 1069 705 
Q 1347 388 1769 388 
Q 2188 388 2466 706 
Q 2744 1025 2744 1678 
Q 2744 2294 2464 2611 
Q 2184 2928 1769 2928 
Q 1347 2928 1069 2612 
Q 791 2297 791 1659 
z
" id="ArialMT-6f" transform="scale(0.015625)"/>
      <path d="M 422 0 
L 422 3319 
L 928 3319 
L 928 2847 
Q 1294 3394 1984 3394 
Q 2284 3394 2536 3286 
Q 2788 3178 2913 3003 
Q 3038 2828 3088 2588 
Q 3119 2431 3119 2041 
L 3119 0 
L 2556 0 
L 2556 2019 
Q 2556 2363 2490 2533 
Q 2425 2703 2258 2804 
Q 2091 2906 1866 2906 
Q 1506 2906 1245 2678 
Q 984 2450 984 1813 
L 984 0 
L 422 0 
z
" id="ArialMT-6e" transform="scale(0.015625)"/>
      <path d="M 197 991 
L 753 1078 
Q 800 744 1014 566 
Q 1228 388 1613 388 
Q 2000 388 2187 545 
Q 2375 703 2375 916 
Q 2375 1106 2209 1216 
Q 2094 1291 1634 1406 
Q 1016 1563 777 1677 
Q 538 1791 414 1992 
Q 291 2194 291 2438 
Q 291 2659 392 2848 
Q 494 3038 669 3163 
Q 800 3259 1026 3326 
Q 1253 3394 1513 3394 
Q 1903 3394 2198 3281 
Q 2494 3169 2634 2976 
Q 2775 2784 2828 2463 
L 2278 2388 
Q 2241 2644 2061 2787 
Q 1881 2931 1553 2931 
Q 1166 2931 1000 2803 
Q 834 2675 834 2503 
Q 834 2394 903 2306 
Q 972 2216 1119 2156 
Q 1203 2125 1616 2013 
Q 2213 1853 2448 1751 
Q 2684 1650 2818 1456 
Q 2953 1263 2953 975 
Q 2953 694 2789 445 
Q 2625 197 2315 61 
Q 2006 -75 1616 -75 
Q 969 -75 630 194 
Q 291 463 197 991 
z
" id="ArialMT-73" transform="scale(0.015625)"/>
      <path id="ArialMT-20" transform="scale(0.015625)"/>
      <path d="M 556 0 
L 556 2881 
L 59 2881 
L 59 3319 
L 556 3319 
L 556 3672 
Q 556 4006 616 4169 
Q 697 4388 901 4523 
Q 1106 4659 1475 4659 
Q 1713 4659 2000 4603 
L 1916 4113 
Q 1741 4144 1584 4144 
Q 1328 4144 1222 4034 
Q 1116 3925 1116 3625 
L 1116 3319 
L 1763 3319 
L 1763 2881 
L 1116 2881 
L 1116 0 
L 556 0 
z
" id="ArialMT-66" transform="scale(0.015625)"/>
      <path d="M 416 0 
L 416 3319 
L 922 3319 
L 922 2816 
Q 1116 3169 1280 3281 
Q 1444 3394 1641 3394 
Q 1925 3394 2219 3213 
L 2025 2691 
Q 1819 2813 1613 2813 
Q 1428 2813 1281 2702 
Q 1134 2591 1072 2394 
Q 978 2094 978 1738 
L 978 0 
L 416 0 
z
" id="ArialMT-72" transform="scale(0.015625)"/>
      <path d="M 3384 2003 
L 350 706 
L 350 1266 
L 2753 2263 
L 350 3250 
L 350 3809 
L 3384 2528 
L 3384 2003 
z
" id="ArialMT-3e" transform="scale(0.015625)"/>
      <path d="M 350 2003 
L 350 2528 
L 3384 3809 
L 3384 3250 
L 978 2263 
L 3384 1266 
L 3384 706 
L 350 2003 
z
" id="ArialMT-3c" transform="scale(0.015625)"/>
      <path d="M 2597 0 
L 2597 488 
Q 2209 -75 1544 -75 
Q 1250 -75 995 37 
Q 741 150 617 320 
Q 494 491 444 738 
Q 409 903 409 1263 
L 409 3319 
L 972 3319 
L 972 1478 
Q 972 1038 1006 884 
Q 1059 663 1231 536 
Q 1403 409 1656 409 
Q 1909 409 2131 539 
Q 2353 669 2445 892 
Q 2538 1116 2538 1541 
L 2538 3319 
L 3100 3319 
L 3100 0 
L 2597 0 
z
" id="ArialMT-75" transform="scale(0.015625)"/>
      <path d="M 425 0 
L 425 4581 
L 988 4581 
L 988 1969 
L 2319 3319 
L 3047 3319 
L 1778 2088 
L 3175 0 
L 2481 0 
L 1384 1697 
L 988 1316 
L 988 0 
L 425 0 
z
" id="ArialMT-6b" transform="scale(0.015625)"/>
     </defs>
     <use xlink:href="#ArialMT-41"/>
     <use x="66.699219" xlink:href="#ArialMT-63"/>
     <use x="116.699219" xlink:href="#ArialMT-74"/>
     <use x="144.482422" xlink:href="#ArialMT-69"/>
     <use x="166.699219" xlink:href="#ArialMT-76"/>
     <use x="216.699219" xlink:href="#ArialMT-61"/>
     <use x="272.314453" xlink:href="#ArialMT-74"/>
     <use x="300.097656" xlink:href="#ArialMT-69"/>
     <use x="322.314453" xlink:href="#ArialMT-6f"/>
     <use x="377.929688" xlink:href="#ArialMT-6e"/>
     <use x="433.544922" xlink:href="#ArialMT-73"/>
     <use x="483.544922" xlink:href="#ArialMT-20"/>
     <use x="511.328125" xlink:href="#ArialMT-66"/>
     <use x="539.111328" xlink:href="#ArialMT-6f"/>
     <use x="594.726562" xlink:href="#ArialMT-72"/>
     <use x="628.027344" xlink:href="#ArialMT-20"/>
     <use x="655.810547" xlink:href="#ArialMT-3e"/>
     <use x="714.208984" xlink:href="#ArialMT-3c"/>
     <use x="772.607422" xlink:href="#ArialMT-75"/>
     <use x="828.222656" xlink:href="#ArialMT-6e"/>
     <use x="883.837891" xlink:href="#ArialMT-6b"/>
     <use x="933.837891" xlink:href="#ArialMT-3e"/>
     <use x="992.236328" xlink:href="#ArialMT-3c"/>
    </g>
   </g>
   <g id="legend_1">
    <g id="patch_7">
     <path d="M 640.044062 158.514363 
L 750.46 158.514363 
Q 752.66 158.514363 752.66 156.314363 
L 752.66 79.1528 
Q 752.66 76.9528 750.46 76.9528 
L 640.044062 76.9528 
Q 637.844062 76.9528 637.844062 79.1528 
L 637.844062 156.314363 
Q 637.844062 158.514363 640.044062 158.514363 
z
" style="fill:#ffffff;opacity:0.8;stroke:#cccccc;stroke-linejoin:miter;"/>
    </g>
    <g id="line2d_11">
     <path d="M 642.244062 85.376394 
L 664.244062 85.376394 
" style="fill:none;stroke:#4c72b0;stroke-linecap:round;stroke-width:1.5;"/>
    </g>
    <g id="line2d_12"/>
    <g id="text_17">
     <!-- regular -->
     <g style="fill:#262626;" transform="translate(673.044062 89.226394)scale(0.11 -0.11)">
      <defs>
       <path d="M 2694 1069 
L 3275 997 
Q 3138 488 2766 206 
Q 2394 -75 1816 -75 
Q 1088 -75 661 373 
Q 234 822 234 1631 
Q 234 2469 665 2931 
Q 1097 3394 1784 3394 
Q 2450 3394 2872 2941 
Q 3294 2488 3294 1666 
Q 3294 1616 3291 1516 
L 816 1516 
Q 847 969 1125 678 
Q 1403 388 1819 388 
Q 2128 388 2347 550 
Q 2566 713 2694 1069 
z
M 847 1978 
L 2700 1978 
Q 2663 2397 2488 2606 
Q 2219 2931 1791 2931 
Q 1403 2931 1139 2672 
Q 875 2413 847 1978 
z
" id="ArialMT-65" transform="scale(0.015625)"/>
       <path d="M 319 -275 
L 866 -356 
Q 900 -609 1056 -725 
Q 1266 -881 1628 -881 
Q 2019 -881 2231 -725 
Q 2444 -569 2519 -288 
Q 2563 -116 2559 434 
Q 2191 0 1641 0 
Q 956 0 581 494 
Q 206 988 206 1678 
Q 206 2153 378 2554 
Q 550 2956 876 3175 
Q 1203 3394 1644 3394 
Q 2231 3394 2613 2919 
L 2613 3319 
L 3131 3319 
L 3131 450 
Q 3131 -325 2973 -648 
Q 2816 -972 2473 -1159 
Q 2131 -1347 1631 -1347 
Q 1038 -1347 672 -1080 
Q 306 -813 319 -275 
z
M 784 1719 
Q 784 1066 1043 766 
Q 1303 466 1694 466 
Q 2081 466 2343 764 
Q 2606 1063 2606 1700 
Q 2606 2309 2336 2618 
Q 2066 2928 1684 2928 
Q 1309 2928 1046 2623 
Q 784 2319 784 1719 
z
" id="ArialMT-67" transform="scale(0.015625)"/>
       <path d="M 409 0 
L 409 4581 
L 972 4581 
L 972 0 
L 409 0 
z
" id="ArialMT-6c" transform="scale(0.015625)"/>
      </defs>
      <use xlink:href="#ArialMT-72"/>
      <use x="33.300781" xlink:href="#ArialMT-65"/>
      <use x="88.916016" xlink:href="#ArialMT-67"/>
      <use x="144.53125" xlink:href="#ArialMT-75"/>
      <use x="200.146484" xlink:href="#ArialMT-6c"/>
      <use x="222.363281" xlink:href="#ArialMT-61"/>
      <use x="277.978516" xlink:href="#ArialMT-72"/>
     </g>
    </g>
    <g id="line2d_13">
     <path d="M 642.244062 101.0978 
L 664.244062 101.0978 
" style="fill:none;stroke:#dd8452;stroke-dasharray:6,2.25;stroke-dashoffset:0;stroke-width:1.5;"/>
    </g>
    <g id="line2d_14"/>
    <g id="text_18">
     <!-- splitted_3s -->
     <g style="fill:#262626;" transform="translate(673.044062 104.9478)scale(0.11 -0.11)">
      <defs>
       <path d="M 422 -1272 
L 422 3319 
L 934 3319 
L 934 2888 
Q 1116 3141 1344 3267 
Q 1572 3394 1897 3394 
Q 2322 3394 2647 3175 
Q 2972 2956 3137 2557 
Q 3303 2159 3303 1684 
Q 3303 1175 3120 767 
Q 2938 359 2589 142 
Q 2241 -75 1856 -75 
Q 1575 -75 1351 44 
Q 1128 163 984 344 
L 984 -1272 
L 422 -1272 
z
M 931 1641 
Q 931 1000 1190 694 
Q 1450 388 1819 388 
Q 2194 388 2461 705 
Q 2728 1022 2728 1688 
Q 2728 2322 2467 2637 
Q 2206 2953 1844 2953 
Q 1484 2953 1207 2617 
Q 931 2281 931 1641 
z
" id="ArialMT-70" transform="scale(0.015625)"/>
       <path d="M 2575 0 
L 2575 419 
Q 2259 -75 1647 -75 
Q 1250 -75 917 144 
Q 584 363 401 755 
Q 219 1147 219 1656 
Q 219 2153 384 2558 
Q 550 2963 881 3178 
Q 1213 3394 1622 3394 
Q 1922 3394 2156 3267 
Q 2391 3141 2538 2938 
L 2538 4581 
L 3097 4581 
L 3097 0 
L 2575 0 
z
M 797 1656 
Q 797 1019 1065 703 
Q 1334 388 1700 388 
Q 2069 388 2326 689 
Q 2584 991 2584 1609 
Q 2584 2291 2321 2609 
Q 2059 2928 1675 2928 
Q 1300 2928 1048 2622 
Q 797 2316 797 1656 
z
" id="ArialMT-64" transform="scale(0.015625)"/>
       <path d="M -97 -1272 
L -97 -866 
L 3631 -866 
L 3631 -1272 
L -97 -1272 
z
" id="ArialMT-5f" transform="scale(0.015625)"/>
       <path d="M 269 1209 
L 831 1284 
Q 928 806 1161 595 
Q 1394 384 1728 384 
Q 2125 384 2398 659 
Q 2672 934 2672 1341 
Q 2672 1728 2419 1979 
Q 2166 2231 1775 2231 
Q 1616 2231 1378 2169 
L 1441 2663 
Q 1497 2656 1531 2656 
Q 1891 2656 2178 2843 
Q 2466 3031 2466 3422 
Q 2466 3731 2256 3934 
Q 2047 4138 1716 4138 
Q 1388 4138 1169 3931 
Q 950 3725 888 3313 
L 325 3413 
Q 428 3978 793 4289 
Q 1159 4600 1703 4600 
Q 2078 4600 2393 4439 
Q 2709 4278 2876 4000 
Q 3044 3722 3044 3409 
Q 3044 3113 2884 2869 
Q 2725 2625 2413 2481 
Q 2819 2388 3044 2092 
Q 3269 1797 3269 1353 
Q 3269 753 2831 336 
Q 2394 -81 1725 -81 
Q 1122 -81 723 278 
Q 325 638 269 1209 
z
" id="ArialMT-33" transform="scale(0.015625)"/>
      </defs>
      <use xlink:href="#ArialMT-73"/>
      <use x="50" xlink:href="#ArialMT-70"/>
      <use x="105.615234" xlink:href="#ArialMT-6c"/>
      <use x="127.832031" xlink:href="#ArialMT-69"/>
      <use x="150.048828" xlink:href="#ArialMT-74"/>
      <use x="177.832031" xlink:href="#ArialMT-74"/>
      <use x="205.615234" xlink:href="#ArialMT-65"/>
      <use x="261.230469" xlink:href="#ArialMT-64"/>
      <use x="316.845703" xlink:href="#ArialMT-5f"/>
      <use x="372.460938" xlink:href="#ArialMT-33"/>
      <use x="428.076172" xlink:href="#ArialMT-73"/>
     </g>
    </g>
    <g id="line2d_15">
     <path d="M 642.244062 116.6903 
L 664.244062 116.6903 
" style="fill:none;stroke:#55a868;stroke-dasharray:1.5,1.5;stroke-dashoffset:0;stroke-width:1.5;"/>
    </g>
    <g id="line2d_16"/>
    <g id="text_19">
     <!-- splitted_1s -->
     <g style="fill:#262626;" transform="translate(673.044062 120.5403)scale(0.11 -0.11)">
      <use xlink:href="#ArialMT-73"/>
      <use x="50" xlink:href="#ArialMT-70"/>
      <use x="105.615234" xlink:href="#ArialMT-6c"/>
      <use x="127.832031" xlink:href="#ArialMT-69"/>
      <use x="150.048828" xlink:href="#ArialMT-74"/>
      <use x="177.832031" xlink:href="#ArialMT-74"/>
      <use x="205.615234" xlink:href="#ArialMT-65"/>
      <use x="261.230469" xlink:href="#ArialMT-64"/>
      <use x="316.845703" xlink:href="#ArialMT-5f"/>
      <use x="372.460938" xlink:href="#ArialMT-31"/>
      <use x="428.076172" xlink:href="#ArialMT-73"/>
     </g>
    </g>
    <g id="line2d_17">
     <path d="M 642.244062 132.384206 
L 664.244062 132.384206 
" style="fill:none;stroke:#c44e52;stroke-dasharray:4.5,1.875,2.25,1.875;stroke-dashoffset:0;stroke-width:1.5;"/>
    </g>
    <g id="line2d_18"/>
    <g id="text_20">
     <!-- overlap_1f_3s -->
     <g style="fill:#262626;" transform="translate(673.044062 136.234206)scale(0.11 -0.11)">
      <use xlink:href="#ArialMT-6f"/>
      <use x="55.615234" xlink:href="#ArialMT-76"/>
      <use x="105.615234" xlink:href="#ArialMT-65"/>
      <use x="161.230469" xlink:href="#ArialMT-72"/>
      <use x="194.53125" xlink:href="#ArialMT-6c"/>
      <use x="216.748047" xlink:href="#ArialMT-61"/>
      <use x="272.363281" xlink:href="#ArialMT-70"/>
      <use x="327.978516" xlink:href="#ArialMT-5f"/>
      <use x="383.59375" xlink:href="#ArialMT-31"/>
      <use x="439.208984" xlink:href="#ArialMT-66"/>
      <use x="466.992188" xlink:href="#ArialMT-5f"/>
      <use x="522.607422" xlink:href="#ArialMT-33"/>
      <use x="578.222656" xlink:href="#ArialMT-73"/>
     </g>
    </g>
    <g id="line2d_19">
     <path d="M 642.244062 148.078113 
L 664.244062 148.078113 
" style="fill:none;stroke:#8172b3;stroke-dasharray:7.5,1.5,1.5,1.5;stroke-dashoffset:0;stroke-width:1.5;"/>
    </g>
    <g id="line2d_20"/>
    <g id="text_21">
     <!-- overlap_10f_3s -->
     <g style="fill:#262626;" transform="translate(673.044062 151.928112)scale(0.11 -0.11)">
      <use xlink:href="#ArialMT-6f"/>
      <use x="55.615234" xlink:href="#ArialMT-76"/>
      <use x="105.615234" xlink:href="#ArialMT-65"/>
      <use x="161.230469" xlink:href="#ArialMT-72"/>
      <use x="194.53125" xlink:href="#ArialMT-6c"/>
      <use x="216.748047" xlink:href="#ArialMT-61"/>
      <use x="272.363281" xlink:href="#ArialMT-70"/>
      <use x="327.978516" xlink:href="#ArialMT-5f"/>
      <use x="383.59375" xlink:href="#ArialMT-31"/>
      <use x="439.208984" xlink:href="#ArialMT-30"/>
      <use x="494.824219" xlink:href="#ArialMT-66"/>
      <use x="522.607422" xlink:href="#ArialMT-5f"/>
      <use x="578.222656" xlink:href="#ArialMT-33"/>
      <use x="633.837891" xlink:href="#ArialMT-73"/>
     </g>
    </g>
   </g>
  </g>
 </g>
 <defs>
  <clipPath id="pe11741b118">
   <rect height="458.4888" width="652.86" x="105.3" y="71.4528"/>
  </clipPath>
 </defs>
</svg>
