<?xml version="1.0" encoding="utf-8" standalone="no"?>
<!DOCTYPE svg PUBLIC "-//W3C//DTD SVG 1.1//EN"
  "http://www.w3.org/Graphics/SVG/1.1/DTD/svg11.dtd">
<svg height="595.44pt" version="1.1" viewBox="0 0 842.4 595.44" width="842.4pt" xmlns="http://www.w3.org/2000/svg" xmlns:xlink="http://www.w3.org/1999/xlink">
 <metadata>
  <rdf:RDF xmlns:cc="http://creativecommons.org/ns#" xmlns:dc="http://purl.org/dc/elements/1.1/" xmlns:rdf="http://www.w3.org/1999/02/22-rdf-syntax-ns#">
   <cc:Work>
    <dc:type rdf:resource="http://purl.org/dc/dcmitype/StillImage"/>
    <dc:date>2021-06-01T00:54:15.409687</dc:date>
    <dc:format>image/svg+xml</dc:format>
    <dc:creator>
     <cc:Agent>
      <dc:title>Matplotlib v3.4.1, https://matplotlib.org/</dc:title>
     </cc:Agent>
    </dc:creator>
   </cc:Work>
  </rdf:RDF>
 </metadata>
 <defs>
  <style type="text/css">*{stroke-linecap:butt;stroke-linejoin:round;}</style>
 </defs>
 <g id="figure_1">
  <g id="patch_1">
   <path d="M 0 595.44 
L 842.4 595.44 
L 842.4 0 
L 0 0 
z
" style="fill:#ffffff;"/>
  </g>
  <g id="axes_1">
   <g id="patch_2">
    <path d="M 105.3 529.9416 
L 758.16 529.9416 
L 758.16 71.4528 
L 105.3 71.4528 
z
" style="fill:#ffffff;"/>
   </g>
   <g id="matplotlib.axis_1">
    <g id="xtick_1">
     <g id="text_1">
      <!-- 0 -->
      <g style="fill:#262626;" transform="translate(131.916939 547.315194)scale(0.11 -0.11)">
       <defs>
        <path d="M 266 2259 
Q 266 3072 433 3567 
Q 600 4063 929 4331 
Q 1259 4600 1759 4600 
Q 2128 4600 2406 4451 
Q 2684 4303 2865 4023 
Q 3047 3744 3150 3342 
Q 3253 2941 3253 2259 
Q 3253 1453 3087 958 
Q 2922 463 2592 192 
Q 2263 -78 1759 -78 
Q 1097 -78 719 397 
Q 266 969 266 2259 
z
M 844 2259 
Q 844 1131 1108 757 
Q 1372 384 1759 384 
Q 2147 384 2411 759 
Q 2675 1134 2675 2259 
Q 2675 3391 2411 3762 
Q 2147 4134 1753 4134 
Q 1366 4134 1134 3806 
Q 844 3388 844 2259 
z
" id="ArialMT-30" transform="scale(0.015625)"/>
       </defs>
       <use xlink:href="#ArialMT-30"/>
      </g>
     </g>
    </g>
    <g id="xtick_2">
     <g id="text_2">
      <!-- 25 -->
      <g style="fill:#262626;" transform="translate(201.950676 547.315194)scale(0.11 -0.11)">
       <defs>
        <path d="M 3222 541 
L 3222 0 
L 194 0 
Q 188 203 259 391 
Q 375 700 629 1000 
Q 884 1300 1366 1694 
Q 2113 2306 2375 2664 
Q 2638 3022 2638 3341 
Q 2638 3675 2398 3904 
Q 2159 4134 1775 4134 
Q 1369 4134 1125 3890 
Q 881 3647 878 3216 
L 300 3275 
Q 359 3922 746 4261 
Q 1134 4600 1788 4600 
Q 2447 4600 2831 4234 
Q 3216 3869 3216 3328 
Q 3216 3053 3103 2787 
Q 2991 2522 2730 2228 
Q 2469 1934 1863 1422 
Q 1356 997 1212 845 
Q 1069 694 975 541 
L 3222 541 
z
" id="ArialMT-32" transform="scale(0.015625)"/>
        <path d="M 266 1200 
L 856 1250 
Q 922 819 1161 601 
Q 1400 384 1738 384 
Q 2144 384 2425 690 
Q 2706 997 2706 1503 
Q 2706 1984 2436 2262 
Q 2166 2541 1728 2541 
Q 1456 2541 1237 2417 
Q 1019 2294 894 2097 
L 366 2166 
L 809 4519 
L 3088 4519 
L 3088 3981 
L 1259 3981 
L 1013 2750 
Q 1425 3038 1878 3038 
Q 2478 3038 2890 2622 
Q 3303 2206 3303 1553 
Q 3303 931 2941 478 
Q 2500 -78 1738 -78 
Q 1113 -78 717 272 
Q 322 622 266 1200 
z
" id="ArialMT-35" transform="scale(0.015625)"/>
       </defs>
       <use xlink:href="#ArialMT-32"/>
       <use x="55.615234" xlink:href="#ArialMT-35"/>
      </g>
     </g>
    </g>
    <g id="xtick_3">
     <g id="text_3">
      <!-- 50 -->
      <g style="fill:#262626;" transform="translate(275.042928 547.315194)scale(0.11 -0.11)">
       <use xlink:href="#ArialMT-35"/>
       <use x="55.615234" xlink:href="#ArialMT-30"/>
      </g>
     </g>
    </g>
    <g id="xtick_4">
     <g id="text_4">
      <!-- 75 -->
      <g style="fill:#262626;" transform="translate(348.135181 547.315194)scale(0.11 -0.11)">
       <defs>
        <path d="M 303 3981 
L 303 4522 
L 3269 4522 
L 3269 4084 
Q 2831 3619 2401 2847 
Q 1972 2075 1738 1259 
Q 1569 684 1522 0 
L 944 0 
Q 953 541 1156 1306 
Q 1359 2072 1739 2783 
Q 2119 3494 2547 3981 
L 303 3981 
z
" id="ArialMT-37" transform="scale(0.015625)"/>
       </defs>
       <use xlink:href="#ArialMT-37"/>
       <use x="55.615234" xlink:href="#ArialMT-35"/>
      </g>
     </g>
    </g>
    <g id="xtick_5">
     <g id="text_5">
      <!-- 100 -->
      <g style="fill:#262626;" transform="translate(418.168918 547.315194)scale(0.11 -0.11)">
       <defs>
        <path d="M 2384 0 
L 1822 0 
L 1822 3584 
Q 1619 3391 1289 3197 
Q 959 3003 697 2906 
L 697 3450 
Q 1169 3672 1522 3987 
Q 1875 4303 2022 4600 
L 2384 4600 
L 2384 0 
z
" id="ArialMT-31" transform="scale(0.015625)"/>
       </defs>
       <use xlink:href="#ArialMT-31"/>
       <use x="55.615234" xlink:href="#ArialMT-30"/>
       <use x="111.230469" xlink:href="#ArialMT-30"/>
      </g>
     </g>
    </g>
    <g id="xtick_6">
     <g id="text_6">
      <!-- 125 -->
      <g style="fill:#262626;" transform="translate(491.261171 547.315194)scale(0.11 -0.11)">
       <use xlink:href="#ArialMT-31"/>
       <use x="55.615234" xlink:href="#ArialMT-32"/>
       <use x="111.230469" xlink:href="#ArialMT-35"/>
      </g>
     </g>
    </g>
    <g id="xtick_7">
     <g id="text_7">
      <!-- 150 -->
      <g style="fill:#262626;" transform="translate(564.353423 547.315194)scale(0.11 -0.11)">
       <use xlink:href="#ArialMT-31"/>
       <use x="55.615234" xlink:href="#ArialMT-35"/>
       <use x="111.230469" xlink:href="#ArialMT-30"/>
      </g>
     </g>
    </g>
    <g id="xtick_8">
     <g id="text_8">
      <!-- 175 -->
      <g style="fill:#262626;" transform="translate(637.445676 547.315194)scale(0.11 -0.11)">
       <use xlink:href="#ArialMT-31"/>
       <use x="55.615234" xlink:href="#ArialMT-37"/>
       <use x="111.230469" xlink:href="#ArialMT-35"/>
      </g>
     </g>
    </g>
    <g id="xtick_9">
     <g id="text_9">
      <!-- 200 -->
      <g style="fill:#262626;" transform="translate(710.537928 547.315194)scale(0.11 -0.11)">
       <use xlink:href="#ArialMT-32"/>
       <use x="55.615234" xlink:href="#ArialMT-30"/>
       <use x="111.230469" xlink:href="#ArialMT-30"/>
      </g>
     </g>
    </g>
   </g>
   <g id="matplotlib.axis_2">
    <g id="ytick_1">
     <g id="text_10">
      <!-- −25 -->
      <g style="fill:#262626;" transform="translate(77.14125 533.878397)scale(0.11 -0.11)">
       <defs>
        <path d="M 3381 1997 
L 356 1997 
L 356 2522 
L 3381 2522 
L 3381 1997 
z
" id="ArialMT-2212" transform="scale(0.015625)"/>
       </defs>
       <use xlink:href="#ArialMT-2212"/>
       <use x="58.398438" xlink:href="#ArialMT-32"/>
       <use x="114.013672" xlink:href="#ArialMT-35"/>
      </g>
     </g>
    </g>
    <g id="ytick_2">
     <g id="text_11">
      <!-- −20 -->
      <g style="fill:#262626;" transform="translate(77.14125 442.180637)scale(0.11 -0.11)">
       <use xlink:href="#ArialMT-2212"/>
       <use x="58.398438" xlink:href="#ArialMT-32"/>
       <use x="114.013672" xlink:href="#ArialMT-30"/>
      </g>
     </g>
    </g>
    <g id="ytick_3">
     <g id="text_12">
      <!-- −15 -->
      <g style="fill:#262626;" transform="translate(77.14125 350.482877)scale(0.11 -0.11)">
       <use xlink:href="#ArialMT-2212"/>
       <use x="58.398438" xlink:href="#ArialMT-31"/>
       <use x="114.013672" xlink:href="#ArialMT-35"/>
      </g>
     </g>
    </g>
    <g id="ytick_4">
     <g id="text_13">
      <!-- −10 -->
      <g style="fill:#262626;" transform="translate(77.14125 258.785117)scale(0.11 -0.11)">
       <use xlink:href="#ArialMT-2212"/>
       <use x="58.398438" xlink:href="#ArialMT-31"/>
       <use x="114.013672" xlink:href="#ArialMT-30"/>
      </g>
     </g>
    </g>
    <g id="ytick_5">
     <g id="text_14">
      <!-- −5 -->
      <g style="fill:#262626;" transform="translate(83.258281 167.087357)scale(0.11 -0.11)">
       <use xlink:href="#ArialMT-2212"/>
       <use x="58.398438" xlink:href="#ArialMT-35"/>
      </g>
     </g>
    </g>
    <g id="ytick_6">
     <g id="text_15">
      <!-- 0 -->
      <g style="fill:#262626;" transform="translate(89.682969 75.389597)scale(0.11 -0.11)">
       <use xlink:href="#ArialMT-30"/>
      </g>
     </g>
    </g>
   </g>
   <g id="line2d_1">
    <path clip-path="url(#pe21e56ccc4)" d="M 134.975455 559.316302 
L 137.899145 560.02538 
L 140.822835 560.891203 
L 143.746525 560.98411 
L 146.670215 561.793895 
L 149.593905 564.201073 
L 152.517595 564.834734 
L 155.441285 567.295607 
L 158.364975 569.589065 
L 161.288665 570.913999 
L 164.212356 574.040295 
L 167.136046 578.272025 
L 169.553701 596.44 
M 185.335225 596.44 
L 187.601876 539.656013 
L 190.005563 596.44 
M 201.903477 596.44 
L 202.220327 589.188804 
L 205.144017 572.190312 
L 205.977051 596.44 
M 209.742452 596.44 
L 210.991397 551.054115 
L 213.915087 572.934894 
L 216.014594 596.44 
M 221.526673 596.44 
L 222.686158 588.469511 
L 225.609848 565.627519 
L 228.690207 596.44 
M 231.903178 596.44 
L 234.380918 512.088584 
L 237.977956 596.44 
M 243.31439 596.44 
L 246.075678 495.181005 
L 248.999369 487.255954 
L 251.923059 584.396729 
L 254.846749 570.862299 
L 257.620095 596.44 
M 257.826355 596.44 
L 260.694129 525.326839 
L 262.553653 596.44 
M 264.844554 596.44 
L 266.541509 540.144018 
L 269.465199 528.53135 
L 275.312579 563.968422 
L 278.23627 568.81307 
L 281.15996 556.439239 
L 284.08365 528.829413 
L 287.00734 542.914148 
L 289.93103 584.058229 
L 292.85472 539.343538 
L 295.77841 523.2618 
L 298.7021 580.185742 
L 301.62579 584.519789 
L 304.549481 549.195562 
L 307.473171 523.351593 
L 310.396861 543.402398 
L 313.320551 508.060821 
L 316.244241 543.42405 
L 319.167931 518.983651 
L 322.091621 537.771155 
L 325.015311 506.611428 
L 327.939001 543.793193 
L 330.862691 578.297106 
L 333.786382 553.136155 
L 336.710072 517.969967 
L 339.633762 571.521531 
L 342.557452 590.099926 
L 345.481142 518.353137 
L 348.404832 490.446473 
L 351.328522 475.263474 
L 354.252212 551.005773 
L 357.175902 538.603048 
L 360.099592 524.688945 
L 362.817367 596.44 
M 363.215542 596.44 
L 365.946973 519.206473 
L 368.870663 514.99468 
L 371.794353 533.104554 
L 374.857262 596.44 
M 382.070752 596.44 
L 383.489113 550.956696 
L 386.412803 530.608982 
L 389.336494 569.119075 
L 392.260184 539.988462 
L 395.183874 561.873369 
L 398.107564 514.335939 
L 401.031254 490.675626 
L 403.954944 494.723852 
L 406.878634 540.802865 
L 409.802324 495.426459 
L 412.726014 477.1243 
L 415.649704 558.012566 
L 418.573395 535.828091 
L 421.497085 578.199302 
L 422.196029 596.44 
M 433.092832 596.44 
L 433.191845 595.736765 
L 436.115535 525.924471 
L 439.039225 539.021722 
L 441.962915 588.851912 
L 444.886605 582.432397 
L 447.810296 504.777151 
L 450.733986 463.980456 
L 453.657676 529.3064 
L 456.581366 514.746638 
L 458.250994 596.44 
M 461.039763 596.44 
L 462.428746 540.906231 
L 465.352436 554.322884 
L 468.276126 534.445265 
L 471.199816 528.851171 
L 473.686208 596.44 
M 474.594303 596.44 
L 477.047197 534.50613 
L 479.970887 454.492292 
L 482.894577 578.392112 
L 485.818267 582.023937 
L 488.741957 581.000879 
L 491.665647 534.110052 
L 494.589337 530.39403 
L 496.679436 596.44 
M 498.306023 596.44 
L 500.436717 525.66443 
L 503.360408 457.371595 
L 507.759455 596.44 
M 515.962417 596.44 
L 517.978858 530.959446 
L 520.902548 578.02003 
L 523.826238 589.938423 
L 526.749928 544.81786 
L 529.541806 596.44 
M 534.070234 596.44 
L 535.520999 550.580592 
L 538.444689 527.831366 
L 541.368379 591.214736 
L 542.62728 596.44 
M 544.595612 596.44 
L 547.215759 536.793991 
L 550.139449 575.810139 
L 553.063139 481.132614 
L 555.986829 552.135484 
L 558.910519 528.223876 
L 561.83421 532.317891 
L 564.7579 548.309311 
L 567.68159 508.762203 
L 570.60528 515.339617 
L 573.52897 504.962929 
L 576.45266 480.075871 
L 579.37635 518.317423 
L 582.30004 535.370414 
L 585.22373 531.529059 
L 588.147421 520.010486 
L 591.071111 515.366902 
L 593.994801 532.855077 
L 596.918491 460.030138 
L 599.842181 518.038773 
L 602.765871 513.928702 
L 605.689561 523.170642 
L 608.613251 516.139363 
L 611.533272 596.44 
M 614.579286 596.44 
L 617.384322 450.700854 
L 620.308012 483.659424 
L 623.231702 549.748769 
L 625.495575 596.44 
M 627.914919 596.44 
L 629.079082 587.43624 
L 632.002772 563.792158 
L 634.926462 542.18849 
L 637.850152 579.273221 
L 640.773842 507.314209 
L 643.697532 447.176487 
L 646.621223 490.47736 
L 649.544913 508.695007 
L 652.468603 579.77966 
L 658.315983 514.768325 
L 661.239673 576.455658 
L 664.163363 509.008742 
L 667.087053 560.566974 
L 670.010743 567.483554 
L 672.934433 553.401618 
L 675.858124 559.546995 
L 678.781814 526.888763 
L 681.705504 586.026864 
L 682.406776 596.44 
M 686.167784 596.44 
L 687.552884 566.731625 
L 688.417511 596.44 
M 699.644826 596.44 
L 702.171335 584.286928 
L 705.095025 586.883767 
L 708.018715 580.869774 
L 710.942405 582.942964 
L 713.866095 581.385798 
L 716.789785 582.676347 
L 719.713475 581.230242 
L 722.637165 578.681151 
L 725.560855 582.752463 
L 728.484545 583.386474 
L 728.484545 583.386474 
" style="fill:none;stroke:#4c72b0;stroke-linecap:round;stroke-width:1.5;"/>
   </g>
   <g id="line2d_2">
    <path clip-path="url(#pe21e56ccc4)" d="M 134.975455 550.986954 
L 137.899145 554.574879 
L 140.822835 555.170237 
L 143.746525 555.450391 
L 146.670215 556.988354 
L 149.593905 559.602368 
L 152.517595 558.140312 
L 155.441285 559.965145 
L 158.364975 559.380875 
L 164.212356 562.165836 
L 167.136046 562.836052 
L 170.059736 581.503051 
L 172.983426 587.735878 
L 174.483469 596.44 
M 184.920695 596.44 
L 187.601876 514.003909 
L 190.196921 596.44 
M 210.376949 596.44 
L 210.991397 576.542268 
L 213.915087 556.825137 
L 216.231074 596.44 
M 220.51425 596.44 
L 222.686158 588.042022 
L 225.609848 558.770161 
L 228.533538 578.317639 
L 230.43962 596.44 
M 231.739835 596.44 
L 234.380918 506.022611 
L 238.568615 596.44 
M 243.01295 596.44 
L 243.151988 594.615413 
L 246.075678 503.780048 
L 248.999369 513.669431 
L 251.923059 581.250356 
L 254.846749 570.70363 
L 257.279917 596.44 
M 258.018061 596.44 
L 260.694129 540.368624 
L 262.282223 596.44 
M 265.228302 596.44 
L 266.541509 557.98815 
L 269.465199 542.940908 
L 272.388889 575.52974 
L 275.312579 595.418902 
L 278.23627 594.503058 
L 281.15996 583.441743 
L 284.08365 542.997715 
L 287.00734 558.130868 
L 289.076974 596.44 
M 291.138964 596.44 
L 292.85472 573.985306 
L 295.77841 541.414664 
L 298.390822 596.44 
M 302.523577 596.44 
L 304.549481 563.12628 
L 307.473171 539.877121 
L 310.396861 536.051543 
L 313.320551 526.161495 
L 316.244241 560.761533 
L 319.167931 553.488578 
L 322.091621 551.42966 
L 325.015311 504.968316 
L 327.939001 573.684024 
L 330.862691 579.114097 
L 333.786382 543.984883 
L 336.710072 554.198355 
L 339.633762 586.653459 
L 342.557452 579.497127 
L 345.481142 511.047441 
L 348.404832 501.465357 
L 351.328522 557.809262 
L 354.252212 595.366082 
L 357.175902 520.344369 
L 360.099592 439.490839 
L 363.023283 440.126109 
L 365.946973 481.180257 
L 368.870663 464.265367 
L 371.794353 477.668518 
L 374.718043 532.947809 
L 377.641733 565.140284 
L 380.565423 594.896547 
L 383.489113 518.843276 
L 389.336494 575.823851 
L 392.260184 547.371639 
L 395.183874 570.110231 
L 398.107564 517.917568 
L 401.031254 489.705423 
L 403.954944 528.753227 
L 406.878634 538.255487 
L 409.802324 536.067808 
L 412.726014 543.256846 
L 415.649704 581.244024 
L 418.573395 540.588683 
L 422.517878 596.44 
M 425.84699 596.44 
L 427.344465 565.93097 
L 430.268155 576.02551 
L 433.191845 561.986459 
L 436.115535 514.779099 
L 439.039225 575.989831 
L 440.758941 596.44 
M 442.741584 596.44 
L 444.886605 557.000072 
L 447.810296 484.787561 
L 450.733986 500.265826 
L 453.657676 535.485183 
L 456.581366 554.650401 
L 457.739346 596.44 
M 461.087558 596.44 
L 462.428746 542.435308 
L 465.352436 570.354985 
L 468.276126 523.822388 
L 471.199816 533.378692 
L 474.123506 581.347775 
L 477.047197 566.620949 
L 479.970887 459.083687 
L 482.894577 571.537202 
L 485.669898 596.44 
M 487.104911 596.44 
L 488.741957 594.746133 
L 491.665647 552.305802 
L 494.589337 536.864861 
L 496.644164 596.44 
M 498.292039 596.44 
L 500.436717 527.087973 
L 503.360408 457.385027 
L 506.284098 554.004846 
L 507.823367 596.44 
M 516.44383 596.44 
L 517.978858 559.135141 
L 520.902548 587.324514 
L 523.826238 586.047152 
L 526.749928 556.519728 
L 529.087574 596.44 
M 533.820575 596.44 
L 535.520999 547.682646 
L 538.444689 527.148838 
L 544.292069 595.476234 
L 547.215759 503.770184 
L 550.139449 550.926264 
L 553.063139 494.504073 
L 555.986829 485.593044 
L 561.83421 429.56805 
L 564.7579 507.017615 
L 567.68159 471.842822 
L 570.60528 570.875906 
L 573.52897 451.442218 
L 576.45266 447.614331 
L 579.37635 495.777342 
L 582.30004 461.544384 
L 585.22373 543.436048 
L 588.147421 512.557839 
L 591.071111 534.704326 
L 593.994801 560.494111 
L 596.918491 484.944411 
L 599.842181 574.10158 
L 602.765871 535.998443 
L 605.689561 568.781484 
L 608.420974 596.44 
M 616.138215 596.44 
L 617.384322 553.573369 
L 620.308012 540.700479 
L 623.231702 579.445672 
L 623.902519 596.44 
M 634.004558 596.44 
L 634.926462 590.59776 
L 637.850152 591.943332 
L 640.773842 537.607449 
L 643.697532 448.57306 
L 646.621223 512.207061 
L 649.544913 541.989349 
L 652.468603 588.534539 
L 655.392293 577.354432 
L 658.315983 492.648074 
L 661.239673 576.916484 
L 664.163363 504.410631 
L 667.087053 569.939984 
L 670.010743 582.009105 
L 672.934433 555.314844 
L 675.858124 563.853338 
L 678.781814 552.977521 
L 681.792221 596.44 
M 686.210346 596.44 
L 687.552884 564.673057 
L 688.518314 596.44 
M 700.439585 596.44 
L 702.171335 575.392234 
L 705.095025 578.461861 
L 708.018715 577.009985 
L 710.942405 578.929368 
L 713.866095 576.447613 
L 716.789785 578.381198 
L 719.713475 578.005548 
L 722.637165 573.470087 
L 725.560855 577.989528 
L 728.484545 573.628791 
L 728.484545 573.628791 
" style="fill:none;stroke:#dd8452;stroke-dasharray:6,2.25;stroke-dashoffset:0;stroke-width:1.5;"/>
   </g>
   <g id="line2d_3">
    <path clip-path="url(#pe21e56ccc4)" d="M 134.975455 551.546562 
L 137.899145 555.038538 
L 140.822835 556.894537 
L 143.746525 554.276745 
L 146.670215 563.364703 
L 149.593905 564.45814 
L 152.517595 566.072394 
L 155.441285 587.502632 
L 158.364975 588.450377 
L 161.288665 578.558091 
L 164.212356 580.425389 
L 167.136046 572.802705 
L 170.059736 575.559962 
L 173.255001 596.44 
M 184.126616 596.44 
L 184.678186 575.835394 
L 187.601876 524.117548 
L 190.525567 561.183076 
L 193.449257 586.872748 
L 196.372947 580.014375 
L 198.03828 596.44 
M 200.804153 596.44 
L 202.220327 584.780529 
L 205.144017 591.548059 
L 208.067707 491.98377 
L 210.991397 555.956586 
L 213.915087 585.651039 
L 219.762468 550.786344 
L 222.686158 546.318079 
L 225.609848 492.772008 
L 231.457228 580.315028 
L 234.380918 519.018351 
L 237.304608 572.89897 
L 238.146667 596.44 
M 243.629576 596.44 
L 246.075678 495.3197 
L 248.999369 536.322672 
L 251.923059 539.966565 
L 254.690712 596.44 
M 258.209464 596.44 
L 260.694129 531.423524 
L 263.021919 596.44 
M 264.463249 596.44 
L 266.541509 555.525668 
L 269.465199 571.39994 
L 272.388889 584.214344 
L 275.312579 566.396728 
L 278.23627 549.290218 
L 281.15996 494.507501 
L 284.08365 474.112739 
L 287.00734 464.48735 
L 289.93103 498.951525 
L 292.85472 510.50952 
L 295.77841 537.019052 
L 297.977131 596.44 
M 303.87971 596.44 
L 304.549481 579.815165 
L 307.473171 566.235365 
L 310.396861 590.271117 
L 313.320551 585.400373 
L 316.244241 591.683746 
L 319.167931 584.505202 
L 322.091621 571.706085 
L 325.015311 529.12286 
L 327.939001 586.980101 
L 328.954339 596.44 
M 331.950609 596.44 
L 333.786382 566.437479 
L 336.710072 566.834291 
L 338.730967 596.44 
M 343.803258 596.44 
L 345.481142 544.090348 
L 348.404832 517.181625 
L 351.198357 596.44 
M 351.505388 596.44 
L 354.252212 539.084616 
L 357.175902 593.639893 
L 360.099592 497.644221 
L 363.023283 560.366329 
L 365.946973 489.028701 
L 368.870663 533.510986 
L 371.794353 474.195676 
L 374.718043 577.887631 
L 377.210253 596.44 
M 378.133899 596.44 
L 380.565423 580.571256 
L 383.489113 562.48188 
L 386.412803 575.63391 
L 388.049005 596.44 
M 390.862828 596.44 
L 392.260184 581.45163 
L 395.183874 587.85355 
L 398.107564 541.513377 
L 401.031254 526.186646 
L 403.954944 537.988556 
L 406.878634 550.911607 
L 409.802324 580.793448 
L 412.726014 558.80682 
L 415.649704 562.60326 
L 418.573395 594.634512 
L 421.497085 529.323645 
L 424.420775 478.626688 
L 427.344465 450.816148 
L 430.268155 469.252209 
L 433.191845 479.656112 
L 436.115535 459.462064 
L 439.039225 543.096603 
L 441.894109 596.44 
M 442.027576 596.44 
L 444.886605 539.593539 
L 447.810296 564.210343 
L 450.733986 505.729654 
L 453.657676 520.850634 
L 456.581366 573.63939 
L 456.981657 596.44 
M 463.273267 596.44 
L 465.352436 571.971827 
L 468.276126 565.47011 
L 471.199816 489.041574 
L 474.123506 549.518287 
L 477.047197 519.560225 
L 479.970887 502.216061 
L 482.894577 570.399934 
L 484.610658 596.44 
M 487.651021 596.44 
L 488.741957 585.532493 
L 491.665647 571.857688 
L 494.589337 476.322456 
L 497.513027 532.001497 
L 500.436717 484.865077 
L 503.360408 502.093911 
L 506.284098 577.152773 
L 509.207788 531.270417 
L 512.131478 542.465146 
L 515.055168 566.552003 
L 517.978858 560.23393 
L 519.881601 596.44 
M 537.030865 596.44 
L 538.444689 579.521928 
L 541.368379 593.365756 
L 544.292069 595.090371 
L 547.215759 489.849086 
L 550.139449 579.605775 
L 553.063139 524.437475 
L 555.986829 484.538889 
L 558.910519 505.346099 
L 561.83421 480.0078 
L 564.7579 472.784622 
L 567.68159 468.201832 
L 570.60528 514.792462 
L 573.52897 546.066468 
L 576.45266 462.661013 
L 579.37635 519.849788 
L 582.30004 543.561102 
L 585.22373 584.670307 
L 588.147421 553.421381 
L 591.071111 573.204624 
L 593.994801 559.41666 
L 596.918491 470.297444 
L 599.842181 585.042949 
L 602.765871 579.462917 
L 605.689561 554.133957 
L 608.613251 566.177508 
L 610.568866 596.44 
M 615.13013 596.44 
L 617.384322 504.220201 
L 620.308012 476.020334 
L 623.231702 564.980356 
L 624.469857 596.44 
M 627.800202 596.44 
L 629.079082 563.141042 
L 631.453517 596.44 
M 635.05795 596.44 
L 637.850152 518.359644 
L 640.773842 497.377079 
L 643.697532 512.87056 
L 646.621223 578.855001 
L 649.544913 517.832531 
L 652.468603 591.182869 
L 655.392293 572.418801 
L 658.315983 499.115896 
L 661.239673 560.231552 
L 664.163363 503.502378 
L 667.087053 568.701729 
L 670.010743 576.342043 
L 672.934433 523.492597 
L 675.858124 576.207546 
L 678.781814 565.37332 
L 680.730333 596.44 
M 687.050516 596.44 
L 687.552884 584.685349 
L 688.028599 596.44 
M 701.735577 596.44 
L 702.171335 591.615955 
L 705.095025 585.514128 
L 708.018715 584.578975 
L 710.942405 591.297148 
L 713.866095 586.772251 
L 716.789785 588.051257 
L 719.713475 585.183113 
L 722.637165 584.914222 
L 725.560855 586.584828 
L 728.484545 577.853316 
L 728.484545 577.853316 
" style="fill:none;stroke:#55a868;stroke-dasharray:1.5,1.5;stroke-dashoffset:0;stroke-width:1.5;"/>
   </g>
   <g id="line2d_4">
    <path clip-path="url(#pe21e56ccc4)" d="M 134.975455 550.907374 
L 137.899145 554.47718 
L 140.822835 555.133963 
L 143.746525 555.277241 
L 146.670215 557.008257 
L 149.593905 559.601808 
L 152.517595 558.250534 
L 155.441285 560.221443 
L 158.364975 559.811828 
L 164.212356 562.56933 
L 167.136046 563.407029 
L 170.059736 582.164801 
L 172.983426 588.37545 
L 174.373348 596.44 
M 184.951335 596.44 
L 187.601876 514.450918 
L 190.167622 596.44 
M 210.256247 596.44 
L 210.991397 571.064063 
L 213.915087 564.756729 
L 216.363983 596.44 
M 220.896741 596.44 
L 222.686158 588.938242 
L 225.609848 558.217478 
L 228.533538 579.580834 
L 230.225458 596.44 
M 231.809829 596.44 
L 234.380918 506.940694 
L 238.381969 596.44 
M 243.163513 596.44 
L 246.075678 504.540302 
L 248.999369 513.739216 
L 251.923059 581.572066 
L 254.846749 571.082358 
L 257.480547 596.44 
M 257.908484 596.44 
L 260.694129 540.119532 
L 262.277678 596.44 
M 265.160333 596.44 
L 266.541509 553.761911 
L 269.465199 542.760481 
L 272.388889 571.825436 
L 275.168018 596.44 
M 276.234677 596.44 
L 278.23627 593.660706 
L 281.15996 580.907238 
L 284.08365 542.649665 
L 287.00734 567.369379 
L 288.787512 596.44 
M 291.097633 596.44 
L 292.85472 568.314152 
L 295.77841 541.241198 
L 298.385503 596.44 
M 302.618329 596.44 
L 304.549481 566.309663 
L 307.473171 540.230419 
L 310.396861 538.323383 
L 313.320551 525.258698 
L 316.244241 562.537498 
L 319.167931 555.850877 
L 322.091621 561.162018 
L 325.015311 500.723013 
L 327.939001 560.654109 
L 330.862691 589.898686 
L 333.786382 540.577944 
L 336.710072 560.06872 
L 339.021904 596.44 
M 342.573685 596.44 
L 345.481142 518.794724 
L 348.404832 472.738938 
L 351.328522 536.167186 
L 354.252212 575.440576 
L 357.175902 495.470044 
L 360.099592 458.971856 
L 363.023283 582.917219 
L 365.946973 491.020563 
L 368.870663 479.893101 
L 371.794353 501.20787 
L 374.718043 558.459819 
L 377.641733 576.388147 
L 379.527969 596.44 
M 380.927659 596.44 
L 383.489113 518.452865 
L 386.412803 550.622918 
L 389.336494 576.511871 
L 392.260184 546.430504 
L 395.183874 570.332178 
L 398.107564 517.092916 
L 401.031254 490.85168 
L 403.954944 526.67605 
L 406.878634 541.010436 
L 409.802324 539.404648 
L 412.726014 541.879687 
L 415.649704 584.167856 
L 418.573395 542.193876 
L 422.17938 596.44 
M 426.0175 596.44 
L 427.344465 567.50727 
L 430.268155 574.996261 
L 433.191845 558.697472 
L 436.115535 513.008661 
L 439.039225 575.697293 
L 440.74246 596.44 
M 442.744794 596.44 
L 444.886605 555.725019 
L 447.810296 483.943216 
L 450.733986 494.04881 
L 453.657676 540.470941 
L 456.581366 554.824846 
L 457.760792 596.44 
M 461.029873 596.44 
L 462.428746 539.978318 
L 465.352436 573.033538 
L 468.276126 523.248472 
L 471.199816 539.813458 
L 474.123506 590.135955 
L 477.047197 572.668627 
L 479.970887 455.75101 
L 482.894577 572.368779 
L 485.688157 596.44 
M 488.775997 596.44 
L 491.665647 552.81315 
L 494.589337 537.660619 
L 496.601922 596.44 
M 498.312032 596.44 
L 500.436717 525.680591 
L 503.360408 455.323975 
L 506.284098 553.286848 
L 507.853051 596.44 
M 516.436498 596.44 
L 517.978858 558.655252 
L 520.902548 587.549295 
L 523.826238 584.775142 
L 526.749928 555.460431 
L 529.114423 596.44 
M 533.798557 596.44 
L 535.520999 547.004105 
L 538.444689 529.552099 
L 544.292069 596.20651 
L 547.215759 503.686302 
L 550.139449 550.184934 
L 553.063139 492.902378 
L 555.986829 486.968034 
L 558.910519 457.440995 
L 561.83421 431.205146 
L 564.7579 507.744742 
L 567.68159 472.119548 
L 570.60528 566.359649 
L 573.52897 441.620871 
L 576.45266 499.70989 
L 579.37635 481.596168 
L 582.30004 475.186133 
L 585.22373 592.906085 
L 588.147421 500.208389 
L 591.071111 507.105134 
L 593.994801 567.610811 
L 596.918491 507.405227 
L 599.842181 561.162927 
L 602.765871 554.488968 
L 605.689561 572.754538 
L 608.613251 587.096305 
L 609.184705 596.44 
M 616.095475 596.44 
L 617.384322 545.53194 
L 620.308012 536.127519 
L 623.231702 581.28649 
L 623.903216 596.44 
M 634.239045 596.44 
L 634.926462 593.366385 
L 637.850152 591.656812 
L 640.773842 537.313198 
L 643.697532 448.235434 
L 646.621223 512.745332 
L 649.544913 538.872358 
L 652.468603 588.852821 
L 655.392293 577.216366 
L 658.315983 492.382121 
L 661.239673 577.373356 
L 664.163363 504.305831 
L 667.087053 567.976246 
L 670.010743 582.684917 
L 672.934433 554.387107 
L 675.858124 562.294388 
L 678.781814 552.191627 
L 681.994347 596.44 
M 686.165405 596.44 
L 687.552884 564.368452 
L 688.527374 596.44 
M 700.456493 596.44 
L 702.171335 573.977436 
L 705.095025 577.820924 
L 708.018715 576.500572 
L 710.942405 579.216378 
L 713.866095 576.653679 
L 716.789785 578.323201 
L 719.713475 578.032938 
L 722.637165 573.260382 
L 725.560855 578.285982 
L 728.484545 573.776476 
L 728.484545 573.776476 
" style="fill:none;stroke:#c44e52;stroke-dasharray:4.5,1.875,2.25,1.875;stroke-dashoffset:0;stroke-width:1.5;"/>
   </g>
   <g id="line2d_5">
    <path clip-path="url(#pe21e56ccc4)" d="M 134.975455 553.6937 
L 137.899145 557.36939 
L 140.822835 558.038451 
L 143.746525 558.575392 
L 146.670215 560.01723 
L 149.593905 563.121278 
L 152.517595 562.305336 
L 155.441285 563.993222 
L 158.364975 563.684629 
L 161.288665 565.797871 
L 164.212356 565.734838 
L 167.136046 565.923624 
L 170.059736 582.214052 
L 172.983426 588.306085 
L 174.637981 596.44 
M 185.099474 596.44 
L 187.601876 533.177313 
L 189.95349 596.44 
M 210.33932 596.44 
L 210.991397 573.844232 
L 213.915087 554.549624 
L 216.415025 596.44 
M 220.392517 596.44 
L 222.686158 587.972692 
L 225.609848 565.505684 
L 228.533538 582.325184 
L 229.986865 596.44 
M 231.874931 596.44 
L 234.380918 510.766343 
L 237.304608 570.748509 
L 238.418405 596.44 
M 243.17767 596.44 
L 246.075678 500.641125 
L 248.999369 503.98531 
L 251.923059 588.294997 
L 254.846749 572.016846 
L 257.159255 596.44 
M 258.054352 596.44 
L 260.694129 536.423344 
L 262.344693 596.44 
M 265.127024 596.44 
L 266.541509 553.052903 
L 269.465199 541.582532 
L 272.388889 569.436238 
L 275.312579 595.409737 
L 278.23627 596.118431 
L 281.15996 587.308003 
L 284.08365 549.46057 
L 287.00734 565.543602 
L 288.911946 596.44 
M 290.985435 596.44 
L 292.85472 567.132355 
L 295.77841 536.694334 
L 298.61019 596.44 
M 302.433569 596.44 
L 304.549481 563.637197 
L 307.473171 538.464282 
L 310.396861 553.134266 
L 313.320551 529.838724 
L 316.244241 560.396727 
L 319.167931 554.866716 
L 322.091621 564.799405 
L 325.015311 510.985002 
L 327.939001 557.331052 
L 330.862691 591.789246 
L 333.786382 555.333069 
L 336.710072 530.95161 
L 339.633762 595.083725 
L 342.557452 595.664251 
L 345.481142 533.097733 
L 348.404832 486.915355 
L 351.328522 469.91235 
L 354.252212 551.990598 
L 357.175902 561.990762 
L 360.099592 563.514872 
L 361.268539 596.44 
M 364.363851 596.44 
L 365.946973 538.072367 
L 368.870663 537.355839 
L 371.794353 519.634802 
L 374.972265 596.44 
M 382.513607 596.44 
L 383.489113 565.532199 
L 386.412803 549.228303 
L 389.336494 579.365253 
L 392.260184 561.2268 
L 395.183874 581.998681 
L 398.107564 500.077319 
L 401.031254 504.18641 
L 403.954944 522.440156 
L 406.878634 549.863853 
L 409.802324 546.681101 
L 412.726014 533.990666 
L 415.342964 596.44 
M 416.011577 596.44 
L 418.573395 544.620189 
L 421.452727 596.44 
M 426.48162 596.44 
L 427.344465 576.973991 
L 430.268155 577.917119 
L 433.191845 564.373174 
L 436.115535 510.388665 
L 439.039225 574.650764 
L 440.729344 596.44 
M 442.87385 596.44 
L 444.886605 561.300713 
L 447.810296 484.175692 
L 450.733986 490.055467 
L 453.657676 525.71718 
L 456.581366 541.934011 
L 458.33694 596.44 
M 460.499507 596.44 
L 462.428746 526.081951 
L 465.352436 566.075227 
L 468.276126 527.773789 
L 471.199816 549.936857 
L 473.778825 596.44 
M 474.536574 596.44 
L 477.047197 558.664696 
L 479.970887 458.882762 
L 482.894577 582.194324 
L 484.878742 596.44 
M 488.902285 596.44 
L 491.665647 558.783383 
L 494.589337 536.787975 
L 496.589721 596.44 
M 498.317878 596.44 
L 500.436717 523.956326 
L 503.360408 450.837241 
L 506.284098 551.417766 
L 507.771577 596.44 
M 516.517606 596.44 
L 517.978858 562.535329 
L 520.902548 588.078506 
L 523.826238 580.3987 
L 526.749928 544.741814 
L 529.529814 596.44 
M 533.193435 596.44 
L 535.520999 529.488855 
L 538.444689 506.142662 
L 541.368379 555.560858 
L 544.195516 596.44 
M 544.332293 596.44 
L 547.215759 496.359128 
L 550.139449 545.977584 
L 553.063139 453.354501 
L 555.986829 522.579761 
L 558.910519 479.831711 
L 561.83421 465.271145 
L 564.7579 534.446629 
L 567.68159 505.91148 
L 570.60528 510.864916 
L 573.52897 495.966409 
L 576.45266 542.325436 
L 579.37635 514.130886 
L 582.30004 480.371381 
L 585.22373 564.19845 
L 588.147421 510.634958 
L 591.071111 521.728175 
L 593.994801 538.572126 
L 596.918491 489.335056 
L 599.842181 533.330734 
L 602.765871 526.652683 
L 605.689561 552.137828 
L 608.613251 570.656337 
L 611.002258 596.44 
M 615.555096 596.44 
L 617.384322 523.476996 
L 620.308012 519.3161 
L 623.231702 570.513724 
L 624.435 596.44 
M 629.442734 596.44 
L 632.002772 594.133845 
L 634.926462 583.335579 
L 637.850152 575.881813 
L 640.773842 516.486119 
L 643.697532 441.805985 
L 646.621223 497.346542 
L 649.544913 526.467289 
L 652.468603 568.125435 
L 655.392293 562.289735 
L 658.315983 493.179978 
L 661.239673 563.363374 
L 664.163363 497.304985 
L 667.087053 564.357608 
L 670.010743 578.209062 
L 672.934433 560.330125 
L 675.858124 560.457347 
L 678.781814 535.787794 
L 681.705504 591.133687 
L 682.207327 596.44 
M 685.751228 596.44 
L 687.552884 555.319462 
L 688.977056 596.44 
M 700.015041 596.44 
L 702.171335 570.657981 
L 705.095025 574.003461 
L 708.018715 572.638999 
L 710.942405 574.444907 
L 713.866095 571.855134 
L 716.789785 572.616157 
L 719.713475 572.850313 
L 722.637165 567.929303 
L 725.560855 572.774861 
L 728.484545 569.001577 
L 728.484545 569.001577 
" style="fill:none;stroke:#8172b3;stroke-dasharray:7.5,1.5,1.5,1.5;stroke-dashoffset:0;stroke-width:1.5;"/>
   </g>
   <g id="line2d_6"/>
   <g id="line2d_7"/>
   <g id="line2d_8"/>
   <g id="line2d_9"/>
   <g id="line2d_10"/>
   <g id="patch_3">
    <path d="M 105.3 529.9416 
L 105.3 71.4528 
" style="fill:none;stroke:#262626;stroke-linecap:square;stroke-linejoin:miter;stroke-width:1.25;"/>
   </g>
   <g id="patch_4">
    <path d="M 758.16 529.9416 
L 758.16 71.4528 
" style="fill:none;stroke:#262626;stroke-linecap:square;stroke-linejoin:miter;stroke-width:1.25;"/>
   </g>
   <g id="patch_5">
    <path d="M 105.3 529.9416 
L 758.16 529.9416 
" style="fill:none;stroke:#262626;stroke-linecap:square;stroke-linejoin:miter;stroke-width:1.25;"/>
   </g>
   <g id="patch_6">
    <path d="M 105.3 71.4528 
L 758.16 71.4528 
" style="fill:none;stroke:#262626;stroke-linecap:square;stroke-linejoin:miter;stroke-width:1.25;"/>
   </g>
   <g id="text_16">
    <!-- Activations for &gt;\&lt; -->
    <g style="fill:#262626;" transform="translate(383.7075 65.4528)scale(0.12 -0.12)">
     <defs>
      <path d="M -9 0 
L 1750 4581 
L 2403 4581 
L 4278 0 
L 3588 0 
L 3053 1388 
L 1138 1388 
L 634 0 
L -9 0 
z
M 1313 1881 
L 2866 1881 
L 2388 3150 
Q 2169 3728 2063 4100 
Q 1975 3659 1816 3225 
L 1313 1881 
z
" id="ArialMT-41" transform="scale(0.015625)"/>
      <path d="M 2588 1216 
L 3141 1144 
Q 3050 572 2676 248 
Q 2303 -75 1759 -75 
Q 1078 -75 664 370 
Q 250 816 250 1647 
Q 250 2184 428 2587 
Q 606 2991 970 3192 
Q 1334 3394 1763 3394 
Q 2303 3394 2647 3120 
Q 2991 2847 3088 2344 
L 2541 2259 
Q 2463 2594 2264 2762 
Q 2066 2931 1784 2931 
Q 1359 2931 1093 2626 
Q 828 2322 828 1663 
Q 828 994 1084 691 
Q 1341 388 1753 388 
Q 2084 388 2306 591 
Q 2528 794 2588 1216 
z
" id="ArialMT-63" transform="scale(0.015625)"/>
      <path d="M 1650 503 
L 1731 6 
Q 1494 -44 1306 -44 
Q 1000 -44 831 53 
Q 663 150 594 308 
Q 525 466 525 972 
L 525 2881 
L 113 2881 
L 113 3319 
L 525 3319 
L 525 4141 
L 1084 4478 
L 1084 3319 
L 1650 3319 
L 1650 2881 
L 1084 2881 
L 1084 941 
Q 1084 700 1114 631 
Q 1144 563 1211 522 
Q 1278 481 1403 481 
Q 1497 481 1650 503 
z
" id="ArialMT-74" transform="scale(0.015625)"/>
      <path d="M 425 3934 
L 425 4581 
L 988 4581 
L 988 3934 
L 425 3934 
z
M 425 0 
L 425 3319 
L 988 3319 
L 988 0 
L 425 0 
z
" id="ArialMT-69" transform="scale(0.015625)"/>
      <path d="M 1344 0 
L 81 3319 
L 675 3319 
L 1388 1331 
Q 1503 1009 1600 663 
Q 1675 925 1809 1294 
L 2547 3319 
L 3125 3319 
L 1869 0 
L 1344 0 
z
" id="ArialMT-76" transform="scale(0.015625)"/>
      <path d="M 2588 409 
Q 2275 144 1986 34 
Q 1697 -75 1366 -75 
Q 819 -75 525 192 
Q 231 459 231 875 
Q 231 1119 342 1320 
Q 453 1522 633 1644 
Q 813 1766 1038 1828 
Q 1203 1872 1538 1913 
Q 2219 1994 2541 2106 
Q 2544 2222 2544 2253 
Q 2544 2597 2384 2738 
Q 2169 2928 1744 2928 
Q 1347 2928 1158 2789 
Q 969 2650 878 2297 
L 328 2372 
Q 403 2725 575 2942 
Q 747 3159 1072 3276 
Q 1397 3394 1825 3394 
Q 2250 3394 2515 3294 
Q 2781 3194 2906 3042 
Q 3031 2891 3081 2659 
Q 3109 2516 3109 2141 
L 3109 1391 
Q 3109 606 3145 398 
Q 3181 191 3288 0 
L 2700 0 
Q 2613 175 2588 409 
z
M 2541 1666 
Q 2234 1541 1622 1453 
Q 1275 1403 1131 1340 
Q 988 1278 909 1158 
Q 831 1038 831 891 
Q 831 666 1001 516 
Q 1172 366 1500 366 
Q 1825 366 2078 508 
Q 2331 650 2450 897 
Q 2541 1088 2541 1459 
L 2541 1666 
z
" id="ArialMT-61" transform="scale(0.015625)"/>
      <path d="M 213 1659 
Q 213 2581 725 3025 
Q 1153 3394 1769 3394 
Q 2453 3394 2887 2945 
Q 3322 2497 3322 1706 
Q 3322 1066 3130 698 
Q 2938 331 2570 128 
Q 2203 -75 1769 -75 
Q 1072 -75 642 372 
Q 213 819 213 1659 
z
M 791 1659 
Q 791 1022 1069 705 
Q 1347 388 1769 388 
Q 2188 388 2466 706 
Q 2744 1025 2744 1678 
Q 2744 2294 2464 2611 
Q 2184 2928 1769 2928 
Q 1347 2928 1069 2612 
Q 791 2297 791 1659 
z
" id="ArialMT-6f" transform="scale(0.015625)"/>
      <path d="M 422 0 
L 422 3319 
L 928 3319 
L 928 2847 
Q 1294 3394 1984 3394 
Q 2284 3394 2536 3286 
Q 2788 3178 2913 3003 
Q 3038 2828 3088 2588 
Q 3119 2431 3119 2041 
L 3119 0 
L 2556 0 
L 2556 2019 
Q 2556 2363 2490 2533 
Q 2425 2703 2258 2804 
Q 2091 2906 1866 2906 
Q 1506 2906 1245 2678 
Q 984 2450 984 1813 
L 984 0 
L 422 0 
z
" id="ArialMT-6e" transform="scale(0.015625)"/>
      <path d="M 197 991 
L 753 1078 
Q 800 744 1014 566 
Q 1228 388 1613 388 
Q 2000 388 2187 545 
Q 2375 703 2375 916 
Q 2375 1106 2209 1216 
Q 2094 1291 1634 1406 
Q 1016 1563 777 1677 
Q 538 1791 414 1992 
Q 291 2194 291 2438 
Q 291 2659 392 2848 
Q 494 3038 669 3163 
Q 800 3259 1026 3326 
Q 1253 3394 1513 3394 
Q 1903 3394 2198 3281 
Q 2494 3169 2634 2976 
Q 2775 2784 2828 2463 
L 2278 2388 
Q 2241 2644 2061 2787 
Q 1881 2931 1553 2931 
Q 1166 2931 1000 2803 
Q 834 2675 834 2503 
Q 834 2394 903 2306 
Q 972 2216 1119 2156 
Q 1203 2125 1616 2013 
Q 2213 1853 2448 1751 
Q 2684 1650 2818 1456 
Q 2953 1263 2953 975 
Q 2953 694 2789 445 
Q 2625 197 2315 61 
Q 2006 -75 1616 -75 
Q 969 -75 630 194 
Q 291 463 197 991 
z
" id="ArialMT-73" transform="scale(0.015625)"/>
      <path id="ArialMT-20" transform="scale(0.015625)"/>
      <path d="M 556 0 
L 556 2881 
L 59 2881 
L 59 3319 
L 556 3319 
L 556 3672 
Q 556 4006 616 4169 
Q 697 4388 901 4523 
Q 1106 4659 1475 4659 
Q 1713 4659 2000 4603 
L 1916 4113 
Q 1741 4144 1584 4144 
Q 1328 4144 1222 4034 
Q 1116 3925 1116 3625 
L 1116 3319 
L 1763 3319 
L 1763 2881 
L 1116 2881 
L 1116 0 
L 556 0 
z
" id="ArialMT-66" transform="scale(0.015625)"/>
      <path d="M 416 0 
L 416 3319 
L 922 3319 
L 922 2816 
Q 1116 3169 1280 3281 
Q 1444 3394 1641 3394 
Q 1925 3394 2219 3213 
L 2025 2691 
Q 1819 2813 1613 2813 
Q 1428 2813 1281 2702 
Q 1134 2591 1072 2394 
Q 978 2094 978 1738 
L 978 0 
L 416 0 
z
" id="ArialMT-72" transform="scale(0.015625)"/>
      <path d="M 3384 2003 
L 350 706 
L 350 1266 
L 2753 2263 
L 350 3250 
L 350 3809 
L 3384 2528 
L 3384 2003 
z
" id="ArialMT-3e" transform="scale(0.015625)"/>
      <path d="M 1328 -78 
L 0 4659 
L 453 4659 
L 1778 -78 
L 1328 -78 
z
" id="ArialMT-5c" transform="scale(0.015625)"/>
      <path d="M 350 2003 
L 350 2528 
L 3384 3809 
L 3384 3250 
L 978 2263 
L 3384 1266 
L 3384 706 
L 350 2003 
z
" id="ArialMT-3c" transform="scale(0.015625)"/>
     </defs>
     <use xlink:href="#ArialMT-41"/>
     <use x="66.699219" xlink:href="#ArialMT-63"/>
     <use x="116.699219" xlink:href="#ArialMT-74"/>
     <use x="144.482422" xlink:href="#ArialMT-69"/>
     <use x="166.699219" xlink:href="#ArialMT-76"/>
     <use x="216.699219" xlink:href="#ArialMT-61"/>
     <use x="272.314453" xlink:href="#ArialMT-74"/>
     <use x="300.097656" xlink:href="#ArialMT-69"/>
     <use x="322.314453" xlink:href="#ArialMT-6f"/>
     <use x="377.929688" xlink:href="#ArialMT-6e"/>
     <use x="433.544922" xlink:href="#ArialMT-73"/>
     <use x="483.544922" xlink:href="#ArialMT-20"/>
     <use x="511.328125" xlink:href="#ArialMT-66"/>
     <use x="539.111328" xlink:href="#ArialMT-6f"/>
     <use x="594.726562" xlink:href="#ArialMT-72"/>
     <use x="628.027344" xlink:href="#ArialMT-20"/>
     <use x="655.810547" xlink:href="#ArialMT-3e"/>
     <use x="714.208984" xlink:href="#ArialMT-5c"/>
     <use x="741.992188" xlink:href="#ArialMT-3c"/>
    </g>
   </g>
   <g id="legend_1">
    <g id="patch_7">
     <path d="M 640.044062 158.514363 
L 750.46 158.514363 
Q 752.66 158.514363 752.66 156.314363 
L 752.66 79.1528 
Q 752.66 76.9528 750.46 76.9528 
L 640.044062 76.9528 
Q 637.844062 76.9528 637.844062 79.1528 
L 637.844062 156.314363 
Q 637.844062 158.514363 640.044062 158.514363 
z
" style="fill:#ffffff;opacity:0.8;stroke:#cccccc;stroke-linejoin:miter;"/>
    </g>
    <g id="line2d_11">
     <path d="M 642.244062 85.376394 
L 664.244062 85.376394 
" style="fill:none;stroke:#4c72b0;stroke-linecap:round;stroke-width:1.5;"/>
    </g>
    <g id="line2d_12"/>
    <g id="text_17">
     <!-- regular -->
     <g style="fill:#262626;" transform="translate(673.044062 89.226394)scale(0.11 -0.11)">
      <defs>
       <path d="M 2694 1069 
L 3275 997 
Q 3138 488 2766 206 
Q 2394 -75 1816 -75 
Q 1088 -75 661 373 
Q 234 822 234 1631 
Q 234 2469 665 2931 
Q 1097 3394 1784 3394 
Q 2450 3394 2872 2941 
Q 3294 2488 3294 1666 
Q 3294 1616 3291 1516 
L 816 1516 
Q 847 969 1125 678 
Q 1403 388 1819 388 
Q 2128 388 2347 550 
Q 2566 713 2694 1069 
z
M 847 1978 
L 2700 1978 
Q 2663 2397 2488 2606 
Q 2219 2931 1791 2931 
Q 1403 2931 1139 2672 
Q 875 2413 847 1978 
z
" id="ArialMT-65" transform="scale(0.015625)"/>
       <path d="M 319 -275 
L 866 -356 
Q 900 -609 1056 -725 
Q 1266 -881 1628 -881 
Q 2019 -881 2231 -725 
Q 2444 -569 2519 -288 
Q 2563 -116 2559 434 
Q 2191 0 1641 0 
Q 956 0 581 494 
Q 206 988 206 1678 
Q 206 2153 378 2554 
Q 550 2956 876 3175 
Q 1203 3394 1644 3394 
Q 2231 3394 2613 2919 
L 2613 3319 
L 3131 3319 
L 3131 450 
Q 3131 -325 2973 -648 
Q 2816 -972 2473 -1159 
Q 2131 -1347 1631 -1347 
Q 1038 -1347 672 -1080 
Q 306 -813 319 -275 
z
M 784 1719 
Q 784 1066 1043 766 
Q 1303 466 1694 466 
Q 2081 466 2343 764 
Q 2606 1063 2606 1700 
Q 2606 2309 2336 2618 
Q 2066 2928 1684 2928 
Q 1309 2928 1046 2623 
Q 784 2319 784 1719 
z
" id="ArialMT-67" transform="scale(0.015625)"/>
       <path d="M 2597 0 
L 2597 488 
Q 2209 -75 1544 -75 
Q 1250 -75 995 37 
Q 741 150 617 320 
Q 494 491 444 738 
Q 409 903 409 1263 
L 409 3319 
L 972 3319 
L 972 1478 
Q 972 1038 1006 884 
Q 1059 663 1231 536 
Q 1403 409 1656 409 
Q 1909 409 2131 539 
Q 2353 669 2445 892 
Q 2538 1116 2538 1541 
L 2538 3319 
L 3100 3319 
L 3100 0 
L 2597 0 
z
" id="ArialMT-75" transform="scale(0.015625)"/>
       <path d="M 409 0 
L 409 4581 
L 972 4581 
L 972 0 
L 409 0 
z
" id="ArialMT-6c" transform="scale(0.015625)"/>
      </defs>
      <use xlink:href="#ArialMT-72"/>
      <use x="33.300781" xlink:href="#ArialMT-65"/>
      <use x="88.916016" xlink:href="#ArialMT-67"/>
      <use x="144.53125" xlink:href="#ArialMT-75"/>
      <use x="200.146484" xlink:href="#ArialMT-6c"/>
      <use x="222.363281" xlink:href="#ArialMT-61"/>
      <use x="277.978516" xlink:href="#ArialMT-72"/>
     </g>
    </g>
    <g id="line2d_13">
     <path d="M 642.244062 101.0978 
L 664.244062 101.0978 
" style="fill:none;stroke:#dd8452;stroke-dasharray:6,2.25;stroke-dashoffset:0;stroke-width:1.5;"/>
    </g>
    <g id="line2d_14"/>
    <g id="text_18">
     <!-- splitted_3s -->
     <g style="fill:#262626;" transform="translate(673.044062 104.9478)scale(0.11 -0.11)">
      <defs>
       <path d="M 422 -1272 
L 422 3319 
L 934 3319 
L 934 2888 
Q 1116 3141 1344 3267 
Q 1572 3394 1897 3394 
Q 2322 3394 2647 3175 
Q 2972 2956 3137 2557 
Q 3303 2159 3303 1684 
Q 3303 1175 3120 767 
Q 2938 359 2589 142 
Q 2241 -75 1856 -75 
Q 1575 -75 1351 44 
Q 1128 163 984 344 
L 984 -1272 
L 422 -1272 
z
M 931 1641 
Q 931 1000 1190 694 
Q 1450 388 1819 388 
Q 2194 388 2461 705 
Q 2728 1022 2728 1688 
Q 2728 2322 2467 2637 
Q 2206 2953 1844 2953 
Q 1484 2953 1207 2617 
Q 931 2281 931 1641 
z
" id="ArialMT-70" transform="scale(0.015625)"/>
       <path d="M 2575 0 
L 2575 419 
Q 2259 -75 1647 -75 
Q 1250 -75 917 144 
Q 584 363 401 755 
Q 219 1147 219 1656 
Q 219 2153 384 2558 
Q 550 2963 881 3178 
Q 1213 3394 1622 3394 
Q 1922 3394 2156 3267 
Q 2391 3141 2538 2938 
L 2538 4581 
L 3097 4581 
L 3097 0 
L 2575 0 
z
M 797 1656 
Q 797 1019 1065 703 
Q 1334 388 1700 388 
Q 2069 388 2326 689 
Q 2584 991 2584 1609 
Q 2584 2291 2321 2609 
Q 2059 2928 1675 2928 
Q 1300 2928 1048 2622 
Q 797 2316 797 1656 
z
" id="ArialMT-64" transform="scale(0.015625)"/>
       <path d="M -97 -1272 
L -97 -866 
L 3631 -866 
L 3631 -1272 
L -97 -1272 
z
" id="ArialMT-5f" transform="scale(0.015625)"/>
       <path d="M 269 1209 
L 831 1284 
Q 928 806 1161 595 
Q 1394 384 1728 384 
Q 2125 384 2398 659 
Q 2672 934 2672 1341 
Q 2672 1728 2419 1979 
Q 2166 2231 1775 2231 
Q 1616 2231 1378 2169 
L 1441 2663 
Q 1497 2656 1531 2656 
Q 1891 2656 2178 2843 
Q 2466 3031 2466 3422 
Q 2466 3731 2256 3934 
Q 2047 4138 1716 4138 
Q 1388 4138 1169 3931 
Q 950 3725 888 3313 
L 325 3413 
Q 428 3978 793 4289 
Q 1159 4600 1703 4600 
Q 2078 4600 2393 4439 
Q 2709 4278 2876 4000 
Q 3044 3722 3044 3409 
Q 3044 3113 2884 2869 
Q 2725 2625 2413 2481 
Q 2819 2388 3044 2092 
Q 3269 1797 3269 1353 
Q 3269 753 2831 336 
Q 2394 -81 1725 -81 
Q 1122 -81 723 278 
Q 325 638 269 1209 
z
" id="ArialMT-33" transform="scale(0.015625)"/>
      </defs>
      <use xlink:href="#ArialMT-73"/>
      <use x="50" xlink:href="#ArialMT-70"/>
      <use x="105.615234" xlink:href="#ArialMT-6c"/>
      <use x="127.832031" xlink:href="#ArialMT-69"/>
      <use x="150.048828" xlink:href="#ArialMT-74"/>
      <use x="177.832031" xlink:href="#ArialMT-74"/>
      <use x="205.615234" xlink:href="#ArialMT-65"/>
      <use x="261.230469" xlink:href="#ArialMT-64"/>
      <use x="316.845703" xlink:href="#ArialMT-5f"/>
      <use x="372.460938" xlink:href="#ArialMT-33"/>
      <use x="428.076172" xlink:href="#ArialMT-73"/>
     </g>
    </g>
    <g id="line2d_15">
     <path d="M 642.244062 116.6903 
L 664.244062 116.6903 
" style="fill:none;stroke:#55a868;stroke-dasharray:1.5,1.5;stroke-dashoffset:0;stroke-width:1.5;"/>
    </g>
    <g id="line2d_16"/>
    <g id="text_19">
     <!-- splitted_1s -->
     <g style="fill:#262626;" transform="translate(673.044062 120.5403)scale(0.11 -0.11)">
      <use xlink:href="#ArialMT-73"/>
      <use x="50" xlink:href="#ArialMT-70"/>
      <use x="105.615234" xlink:href="#ArialMT-6c"/>
      <use x="127.832031" xlink:href="#ArialMT-69"/>
      <use x="150.048828" xlink:href="#ArialMT-74"/>
      <use x="177.832031" xlink:href="#ArialMT-74"/>
      <use x="205.615234" xlink:href="#ArialMT-65"/>
      <use x="261.230469" xlink:href="#ArialMT-64"/>
      <use x="316.845703" xlink:href="#ArialMT-5f"/>
      <use x="372.460938" xlink:href="#ArialMT-31"/>
      <use x="428.076172" xlink:href="#ArialMT-73"/>
     </g>
    </g>
    <g id="line2d_17">
     <path d="M 642.244062 132.384206 
L 664.244062 132.384206 
" style="fill:none;stroke:#c44e52;stroke-dasharray:4.5,1.875,2.25,1.875;stroke-dashoffset:0;stroke-width:1.5;"/>
    </g>
    <g id="line2d_18"/>
    <g id="text_20">
     <!-- overlap_1f_3s -->
     <g style="fill:#262626;" transform="translate(673.044062 136.234206)scale(0.11 -0.11)">
      <use xlink:href="#ArialMT-6f"/>
      <use x="55.615234" xlink:href="#ArialMT-76"/>
      <use x="105.615234" xlink:href="#ArialMT-65"/>
      <use x="161.230469" xlink:href="#ArialMT-72"/>
      <use x="194.53125" xlink:href="#ArialMT-6c"/>
      <use x="216.748047" xlink:href="#ArialMT-61"/>
      <use x="272.363281" xlink:href="#ArialMT-70"/>
      <use x="327.978516" xlink:href="#ArialMT-5f"/>
      <use x="383.59375" xlink:href="#ArialMT-31"/>
      <use x="439.208984" xlink:href="#ArialMT-66"/>
      <use x="466.992188" xlink:href="#ArialMT-5f"/>
      <use x="522.607422" xlink:href="#ArialMT-33"/>
      <use x="578.222656" xlink:href="#ArialMT-73"/>
     </g>
    </g>
    <g id="line2d_19">
     <path d="M 642.244062 148.078113 
L 664.244062 148.078113 
" style="fill:none;stroke:#8172b3;stroke-dasharray:7.5,1.5,1.5,1.5;stroke-dashoffset:0;stroke-width:1.5;"/>
    </g>
    <g id="line2d_20"/>
    <g id="text_21">
     <!-- overlap_10f_3s -->
     <g style="fill:#262626;" transform="translate(673.044062 151.928112)scale(0.11 -0.11)">
      <use xlink:href="#ArialMT-6f"/>
      <use x="55.615234" xlink:href="#ArialMT-76"/>
      <use x="105.615234" xlink:href="#ArialMT-65"/>
      <use x="161.230469" xlink:href="#ArialMT-72"/>
      <use x="194.53125" xlink:href="#ArialMT-6c"/>
      <use x="216.748047" xlink:href="#ArialMT-61"/>
      <use x="272.363281" xlink:href="#ArialMT-70"/>
      <use x="327.978516" xlink:href="#ArialMT-5f"/>
      <use x="383.59375" xlink:href="#ArialMT-31"/>
      <use x="439.208984" xlink:href="#ArialMT-30"/>
      <use x="494.824219" xlink:href="#ArialMT-66"/>
      <use x="522.607422" xlink:href="#ArialMT-5f"/>
      <use x="578.222656" xlink:href="#ArialMT-33"/>
      <use x="633.837891" xlink:href="#ArialMT-73"/>
     </g>
    </g>
   </g>
  </g>
 </g>
 <defs>
  <clipPath id="pe21e56ccc4">
   <rect height="458.4888" width="652.86" x="105.3" y="71.4528"/>
  </clipPath>
 </defs>
</svg>
