<?xml version="1.0" encoding="utf-8" standalone="no"?>
<!DOCTYPE svg PUBLIC "-//W3C//DTD SVG 1.1//EN"
  "http://www.w3.org/Graphics/SVG/1.1/DTD/svg11.dtd">
<svg height="595.44pt" version="1.1" viewBox="0 0 842.4 595.44" width="842.4pt" xmlns="http://www.w3.org/2000/svg" xmlns:xlink="http://www.w3.org/1999/xlink">
 <metadata>
  <rdf:RDF xmlns:cc="http://creativecommons.org/ns#" xmlns:dc="http://purl.org/dc/elements/1.1/" xmlns:rdf="http://www.w3.org/1999/02/22-rdf-syntax-ns#">
   <cc:Work>
    <dc:type rdf:resource="http://purl.org/dc/dcmitype/StillImage"/>
    <dc:date>2021-06-01T00:54:04.807234</dc:date>
    <dc:format>image/svg+xml</dc:format>
    <dc:creator>
     <cc:Agent>
      <dc:title>Matplotlib v3.4.1, https://matplotlib.org/</dc:title>
     </cc:Agent>
    </dc:creator>
   </cc:Work>
  </rdf:RDF>
 </metadata>
 <defs>
  <style type="text/css">*{stroke-linecap:butt;stroke-linejoin:round;}</style>
 </defs>
 <g id="figure_1">
  <g id="patch_1">
   <path d="M 0 595.44 
L 842.4 595.44 
L 842.4 0 
L 0 0 
z
" style="fill:#ffffff;"/>
  </g>
  <g id="axes_1">
   <g id="patch_2">
    <path d="M 105.3 529.9416 
L 758.16 529.9416 
L 758.16 71.4528 
L 105.3 71.4528 
z
" style="fill:#ffffff;"/>
   </g>
   <g id="matplotlib.axis_1">
    <g id="xtick_1">
     <g id="text_1">
      <!-- 0 -->
      <g style="fill:#262626;" transform="translate(131.916939 547.315194)scale(0.11 -0.11)">
       <defs>
        <path d="M 266 2259 
Q 266 3072 433 3567 
Q 600 4063 929 4331 
Q 1259 4600 1759 4600 
Q 2128 4600 2406 4451 
Q 2684 4303 2865 4023 
Q 3047 3744 3150 3342 
Q 3253 2941 3253 2259 
Q 3253 1453 3087 958 
Q 2922 463 2592 192 
Q 2263 -78 1759 -78 
Q 1097 -78 719 397 
Q 266 969 266 2259 
z
M 844 2259 
Q 844 1131 1108 757 
Q 1372 384 1759 384 
Q 2147 384 2411 759 
Q 2675 1134 2675 2259 
Q 2675 3391 2411 3762 
Q 2147 4134 1753 4134 
Q 1366 4134 1134 3806 
Q 844 3388 844 2259 
z
" id="ArialMT-30" transform="scale(0.015625)"/>
       </defs>
       <use xlink:href="#ArialMT-30"/>
      </g>
     </g>
    </g>
    <g id="xtick_2">
     <g id="text_2">
      <!-- 25 -->
      <g style="fill:#262626;" transform="translate(201.950676 547.315194)scale(0.11 -0.11)">
       <defs>
        <path d="M 3222 541 
L 3222 0 
L 194 0 
Q 188 203 259 391 
Q 375 700 629 1000 
Q 884 1300 1366 1694 
Q 2113 2306 2375 2664 
Q 2638 3022 2638 3341 
Q 2638 3675 2398 3904 
Q 2159 4134 1775 4134 
Q 1369 4134 1125 3890 
Q 881 3647 878 3216 
L 300 3275 
Q 359 3922 746 4261 
Q 1134 4600 1788 4600 
Q 2447 4600 2831 4234 
Q 3216 3869 3216 3328 
Q 3216 3053 3103 2787 
Q 2991 2522 2730 2228 
Q 2469 1934 1863 1422 
Q 1356 997 1212 845 
Q 1069 694 975 541 
L 3222 541 
z
" id="ArialMT-32" transform="scale(0.015625)"/>
        <path d="M 266 1200 
L 856 1250 
Q 922 819 1161 601 
Q 1400 384 1738 384 
Q 2144 384 2425 690 
Q 2706 997 2706 1503 
Q 2706 1984 2436 2262 
Q 2166 2541 1728 2541 
Q 1456 2541 1237 2417 
Q 1019 2294 894 2097 
L 366 2166 
L 809 4519 
L 3088 4519 
L 3088 3981 
L 1259 3981 
L 1013 2750 
Q 1425 3038 1878 3038 
Q 2478 3038 2890 2622 
Q 3303 2206 3303 1553 
Q 3303 931 2941 478 
Q 2500 -78 1738 -78 
Q 1113 -78 717 272 
Q 322 622 266 1200 
z
" id="ArialMT-35" transform="scale(0.015625)"/>
       </defs>
       <use xlink:href="#ArialMT-32"/>
       <use x="55.615234" xlink:href="#ArialMT-35"/>
      </g>
     </g>
    </g>
    <g id="xtick_3">
     <g id="text_3">
      <!-- 50 -->
      <g style="fill:#262626;" transform="translate(275.042928 547.315194)scale(0.11 -0.11)">
       <use xlink:href="#ArialMT-35"/>
       <use x="55.615234" xlink:href="#ArialMT-30"/>
      </g>
     </g>
    </g>
    <g id="xtick_4">
     <g id="text_4">
      <!-- 75 -->
      <g style="fill:#262626;" transform="translate(348.135181 547.315194)scale(0.11 -0.11)">
       <defs>
        <path d="M 303 3981 
L 303 4522 
L 3269 4522 
L 3269 4084 
Q 2831 3619 2401 2847 
Q 1972 2075 1738 1259 
Q 1569 684 1522 0 
L 944 0 
Q 953 541 1156 1306 
Q 1359 2072 1739 2783 
Q 2119 3494 2547 3981 
L 303 3981 
z
" id="ArialMT-37" transform="scale(0.015625)"/>
       </defs>
       <use xlink:href="#ArialMT-37"/>
       <use x="55.615234" xlink:href="#ArialMT-35"/>
      </g>
     </g>
    </g>
    <g id="xtick_5">
     <g id="text_5">
      <!-- 100 -->
      <g style="fill:#262626;" transform="translate(418.168918 547.315194)scale(0.11 -0.11)">
       <defs>
        <path d="M 2384 0 
L 1822 0 
L 1822 3584 
Q 1619 3391 1289 3197 
Q 959 3003 697 2906 
L 697 3450 
Q 1169 3672 1522 3987 
Q 1875 4303 2022 4600 
L 2384 4600 
L 2384 0 
z
" id="ArialMT-31" transform="scale(0.015625)"/>
       </defs>
       <use xlink:href="#ArialMT-31"/>
       <use x="55.615234" xlink:href="#ArialMT-30"/>
       <use x="111.230469" xlink:href="#ArialMT-30"/>
      </g>
     </g>
    </g>
    <g id="xtick_6">
     <g id="text_6">
      <!-- 125 -->
      <g style="fill:#262626;" transform="translate(491.261171 547.315194)scale(0.11 -0.11)">
       <use xlink:href="#ArialMT-31"/>
       <use x="55.615234" xlink:href="#ArialMT-32"/>
       <use x="111.230469" xlink:href="#ArialMT-35"/>
      </g>
     </g>
    </g>
    <g id="xtick_7">
     <g id="text_7">
      <!-- 150 -->
      <g style="fill:#262626;" transform="translate(564.353423 547.315194)scale(0.11 -0.11)">
       <use xlink:href="#ArialMT-31"/>
       <use x="55.615234" xlink:href="#ArialMT-35"/>
       <use x="111.230469" xlink:href="#ArialMT-30"/>
      </g>
     </g>
    </g>
    <g id="xtick_8">
     <g id="text_8">
      <!-- 175 -->
      <g style="fill:#262626;" transform="translate(637.445676 547.315194)scale(0.11 -0.11)">
       <use xlink:href="#ArialMT-31"/>
       <use x="55.615234" xlink:href="#ArialMT-37"/>
       <use x="111.230469" xlink:href="#ArialMT-35"/>
      </g>
     </g>
    </g>
    <g id="xtick_9">
     <g id="text_9">
      <!-- 200 -->
      <g style="fill:#262626;" transform="translate(710.537928 547.315194)scale(0.11 -0.11)">
       <use xlink:href="#ArialMT-32"/>
       <use x="55.615234" xlink:href="#ArialMT-30"/>
       <use x="111.230469" xlink:href="#ArialMT-30"/>
      </g>
     </g>
    </g>
   </g>
   <g id="matplotlib.axis_2">
    <g id="ytick_1">
     <g id="text_10">
      <!-- −25 -->
      <g style="fill:#262626;" transform="translate(77.14125 533.878397)scale(0.11 -0.11)">
       <defs>
        <path d="M 3381 1997 
L 356 1997 
L 356 2522 
L 3381 2522 
L 3381 1997 
z
" id="ArialMT-2212" transform="scale(0.015625)"/>
       </defs>
       <use xlink:href="#ArialMT-2212"/>
       <use x="58.398438" xlink:href="#ArialMT-32"/>
       <use x="114.013672" xlink:href="#ArialMT-35"/>
      </g>
     </g>
    </g>
    <g id="ytick_2">
     <g id="text_11">
      <!-- −20 -->
      <g style="fill:#262626;" transform="translate(77.14125 442.180637)scale(0.11 -0.11)">
       <use xlink:href="#ArialMT-2212"/>
       <use x="58.398438" xlink:href="#ArialMT-32"/>
       <use x="114.013672" xlink:href="#ArialMT-30"/>
      </g>
     </g>
    </g>
    <g id="ytick_3">
     <g id="text_12">
      <!-- −15 -->
      <g style="fill:#262626;" transform="translate(77.14125 350.482877)scale(0.11 -0.11)">
       <use xlink:href="#ArialMT-2212"/>
       <use x="58.398438" xlink:href="#ArialMT-31"/>
       <use x="114.013672" xlink:href="#ArialMT-35"/>
      </g>
     </g>
    </g>
    <g id="ytick_4">
     <g id="text_13">
      <!-- −10 -->
      <g style="fill:#262626;" transform="translate(77.14125 258.785117)scale(0.11 -0.11)">
       <use xlink:href="#ArialMT-2212"/>
       <use x="58.398438" xlink:href="#ArialMT-31"/>
       <use x="114.013672" xlink:href="#ArialMT-30"/>
      </g>
     </g>
    </g>
    <g id="ytick_5">
     <g id="text_14">
      <!-- −5 -->
      <g style="fill:#262626;" transform="translate(83.258281 167.087357)scale(0.11 -0.11)">
       <use xlink:href="#ArialMT-2212"/>
       <use x="58.398438" xlink:href="#ArialMT-35"/>
      </g>
     </g>
    </g>
    <g id="ytick_6">
     <g id="text_15">
      <!-- 0 -->
      <g style="fill:#262626;" transform="translate(89.682969 75.389597)scale(0.11 -0.11)">
       <use xlink:href="#ArialMT-30"/>
      </g>
     </g>
    </g>
   </g>
   <g id="line2d_1">
    <path clip-path="url(#p9061b70caa)" d="M 134.975455 339.550428 
L 137.899145 339.396569 
L 140.822835 342.181286 
L 143.746525 341.893366 
L 146.670215 340.010519 
L 149.593905 344.436826 
L 152.517595 343.331023 
L 155.441285 348.037571 
L 158.364975 348.346794 
L 161.288665 351.758893 
L 164.212356 357.317884 
L 167.136046 359.413408 
L 170.059736 375.787334 
L 172.983426 387.224193 
L 175.907116 393.58029 
L 178.830806 413.671776 
L 181.754496 429.077037 
L 184.678186 395.995618 
L 187.601876 352.837883 
L 190.525567 392.6309 
L 193.449257 316.779708 
L 196.372947 303.273803 
L 199.296637 370.197088 
L 202.220327 367.475335 
L 205.144017 359.396688 
L 208.067707 429.003719 
L 210.991397 336.759276 
L 213.915087 376.958496 
L 216.838777 455.528083 
L 219.762468 469.4085 
L 222.686158 408.684059 
L 225.609848 397.370854 
L 228.533538 389.640326 
L 231.457228 353.367287 
L 234.380918 286.326382 
L 237.304608 394.338164 
L 240.228298 409.269168 
L 243.151988 352.59103 
L 246.075678 310.19493 
L 248.999369 289.294463 
L 251.923059 384.286755 
L 254.846749 416.667841 
L 257.770439 440.092669 
L 260.694129 374.287045 
L 263.617819 441.316196 
L 266.541509 265.537869 
L 269.465199 252.364064 
L 272.388889 280.349538 
L 275.312579 312.758031 
L 278.23627 339.713068 
L 281.15996 312.298728 
L 284.08365 266.198972 
L 287.00734 291.486602 
L 289.93103 365.394485 
L 292.85472 365.094042 
L 295.77841 396.73233 
L 298.7021 435.562314 
L 301.62579 361.858942 
L 304.549481 344.941761 
L 307.473171 341.032772 
L 310.396861 402.849444 
L 313.320551 299.870852 
L 316.244241 338.832658 
L 319.167931 380.012104 
L 322.091621 332.801735 
L 325.015311 92.317006 
L 327.939001 71.457705 
L 330.862691 245.531034 
L 333.786382 364.352328 
L 336.710072 379.844235 
L 339.633762 430.396445 
L 342.557452 406.534648 
L 345.481142 373.347519 
L 348.404832 410.158568 
L 351.328522 371.878852 
L 354.252212 368.923539 
L 357.175902 353.17056 
L 360.099592 327.885622 
L 363.023283 419.078587 
L 365.946973 303.171225 
L 368.870663 358.40945 
L 371.794353 343.579643 
L 374.718043 351.203149 
L 377.641733 379.071493 
L 380.565423 399.07476 
L 383.489113 364.379717 
L 386.412803 356.128637 
L 389.336494 384.678775 
L 392.260184 259.682143 
L 395.183874 71.464132 
L 398.107564 71.475938 
L 401.031254 222.223266 
L 403.954944 289.738568 
L 406.878634 344.447949 
L 409.802324 308.81499 
L 412.726014 256.84312 
L 415.649704 347.754007 
L 418.573395 338.784421 
L 421.497085 312.088953 
L 424.420775 393.055206 
L 427.344465 368.328391 
L 430.268155 449.53263 
L 433.191845 453.457272 
L 436.115535 370.712342 
L 439.039225 365.963188 
L 441.962915 330.996894 
L 444.886605 380.685432 
L 447.810296 345.901977 
L 450.733986 324.152006 
L 453.657676 374.11358 
L 456.581366 299.867651 
L 459.505056 385.267941 
L 462.428746 315.00675 
L 465.352436 376.039224 
L 468.276126 387.73539 
L 471.199816 375.448168 
L 474.123506 421.520395 
L 477.047197 373.722714 
L 479.970887 269.152309 
L 482.894577 369.02596 
L 485.818267 353.178588 
L 488.741957 386.799047 
L 491.665647 374.628344 
L 494.589337 363.469907 
L 497.513027 444.899015 
L 500.436717 384.871934 
L 503.360408 295.207819 
L 506.284098 301.345028 
L 509.207788 312.748779 
L 512.131478 422.867542 
L 515.055168 458.580396 
L 517.978858 367.779416 
L 520.902548 426.090347 
L 523.826238 399.216639 
L 526.749928 346.560194 
L 529.673618 392.705897 
L 532.597309 416.691347 
L 535.520999 391.152543 
L 538.444689 355.981686 
L 541.368379 445.91721 
L 544.292069 363.428351 
L 547.215759 317.216135 
L 550.139449 387.71692 
L 553.063139 338.688348 
L 555.986829 415.159087 
L 558.910519 321.252975 
L 561.83421 277.605731 
L 564.7579 327.743219 
L 567.68159 300.213235 
L 570.60528 208.409469 
L 573.52897 71.620971 
L 576.45266 75.510304 
L 579.37635 249.899029 
L 582.30004 387.522467 
L 585.22373 407.47134 
L 588.147421 394.142067 
L 591.071111 338.094459 
L 593.994801 334.396854 
L 596.918491 297.661258 
L 599.842181 279.198786 
L 602.765871 336.873765 
L 605.689561 319.945548 
L 608.613251 179.90393 
L 611.536941 71.454492 
L 614.460631 193.004881 
L 617.384322 290.765719 
L 620.308012 439.939701 
L 623.231702 279.491009 
L 626.155392 71.481695 
L 629.079082 71.453268 
L 632.002772 228.557045 
L 634.926462 290.331845 
L 637.850152 372.21396 
L 640.773842 318.228471 
L 643.697532 281.88855 
L 646.621223 257.49184 
L 649.544913 325.545483 
L 652.468603 413.517549 
L 655.392293 412.11419 
L 658.315983 377.630496 
L 661.239673 393.783418 
L 664.163363 310.794678 
L 667.087053 354.679996 
L 670.010743 336.455615 
L 672.934433 302.204415 
L 675.858124 371.010721 
L 678.781814 368.993289 
L 681.705504 411.185683 
L 684.629194 423.321651 
L 687.552884 383.644663 
L 690.476574 444.330311 
L 693.400264 374.258536 
L 696.323954 397.912378 
L 699.247644 390.087999 
L 702.171335 352.706394 
L 705.095025 344.037757 
L 708.018715 338.229377 
L 710.942405 339.730995 
L 713.866095 340.512586 
L 716.789785 340.794979 
L 719.713475 339.526345 
L 722.637165 340.824205 
L 725.560855 340.62809 
L 728.484545 348.178978 
L 728.484545 348.178978 
" style="fill:none;stroke:#4c72b0;stroke-linecap:round;stroke-width:1.5;"/>
   </g>
   <g id="line2d_2">
    <path clip-path="url(#p9061b70caa)" d="M 134.975455 334.999488 
L 137.899145 335.887121 
L 140.822835 336.287519 
L 143.746525 337.226712 
L 146.670215 335.619577 
L 149.593905 339.702294 
L 152.517595 337.060523 
L 155.441285 340.217968 
L 158.364975 338.626644 
L 161.288665 340.355666 
L 164.212356 344.222137 
L 167.136046 343.690669 
L 170.059736 357.723424 
L 172.983426 367.25804 
L 175.907116 380.51487 
L 178.830806 407.145992 
L 181.754496 420.340558 
L 184.678186 397.407582 
L 187.601876 320.421852 
L 190.525567 378.745795 
L 193.449257 296.9958 
L 196.372947 285.353958 
L 199.296637 340.260993 
L 202.220327 354.801691 
L 205.144017 382.16984 
L 208.067707 430.372099 
L 210.991397 344.091417 
L 213.915087 356.674865 
L 216.838777 468.054602 
L 219.762468 451.864881 
L 222.686158 404.490491 
L 225.609848 374.909548 
L 228.533538 358.049017 
L 231.457228 324.482828 
L 234.380918 265.150973 
L 237.304608 375.48063 
L 240.228298 375.922671 
L 243.151988 325.956794 
L 246.075678 289.008835 
L 248.999369 312.158126 
L 251.923059 390.694306 
L 254.846749 423.241197 
L 257.770439 431.206895 
L 260.694129 374.734753 
L 263.617819 428.983046 
L 266.541509 268.118022 
L 269.465199 266.806275 
L 272.388889 285.491412 
L 275.312579 319.421758 
L 278.23627 336.551477 
L 281.15996 307.892307 
L 284.08365 233.232951 
L 287.00734 259.802036 
L 289.93103 356.076307 
L 292.85472 374.081958 
L 295.77841 384.998071 
L 298.7021 431.524862 
L 301.62579 364.956746 
L 304.549481 361.426485 
L 307.473171 372.503979 
L 310.396861 400.082077 
L 313.320551 314.124732 
L 316.244241 347.637716 
L 319.167931 372.136899 
L 322.091621 330.749201 
L 325.015311 79.801796 
L 327.939001 71.454713 
L 330.862691 208.729649 
L 333.786382 309.44664 
L 336.710072 383.472912 
L 339.633762 436.308296 
L 342.557452 392.887442 
L 345.481142 328.539012 
L 348.404832 350.533021 
L 351.328522 310.828819 
L 354.252212 321.558332 
L 357.175902 256.775049 
L 360.099592 185.843066 
L 363.023283 196.185753 
L 365.946973 194.853071 
L 368.870663 251.512985 
L 371.794353 304.758771 
L 374.718043 279.60973 
L 377.641733 282.243544 
L 380.565423 315.254566 
L 383.489113 281.848883 
L 386.412803 349.295274 
L 389.336494 408.541551 
L 392.260184 317.446845 
L 395.183874 71.496874 
L 398.107564 71.57208 
L 401.031254 229.677697 
L 403.954944 329.152472 
L 406.878634 338.235009 
L 409.802324 315.844345 
L 412.726014 273.280429 
L 415.649704 342.663694 
L 418.573395 307.5427 
L 421.497085 304.756742 
L 424.420775 371.579494 
L 427.344465 336.251787 
L 430.268155 404.398249 
L 433.191845 419.729808 
L 436.115535 352.980899 
L 439.039225 407.850033 
L 441.962915 328.85161 
L 444.886605 320.867898 
L 447.810296 295.789815 
L 450.733986 339.527044 
L 453.657676 377.656591 
L 456.581366 306.997223 
L 459.505056 374.249022 
L 462.428746 303.494229 
L 465.352436 362.595339 
L 468.276126 376.253931 
L 471.199816 383.540878 
L 474.123506 408.248734 
L 477.047197 401.625951 
L 479.970887 274.342787 
L 482.894577 362.301473 
L 485.818267 354.285912 
L 488.741957 387.884894 
L 491.665647 362.830632 
L 494.589337 363.1996 
L 497.513027 446.416758 
L 500.436717 388.77125 
L 503.360408 305.068116 
L 506.284098 327.903514 
L 509.207788 305.028798 
L 512.131478 386.53299 
L 515.055168 449.104021 
L 517.978858 376.720598 
L 520.902548 430.093939 
L 523.826238 403.466664 
L 526.749928 360.124847 
L 529.673618 392.231709 
L 532.597309 409.284629 
L 535.520999 378.554385 
L 538.444689 328.352674 
L 541.368379 394.303499 
L 544.292069 370.383041 
L 547.215759 318.359261 
L 550.139449 383.941538 
L 553.063139 332.38731 
L 555.986829 367.697773 
L 558.910519 219.780566 
L 561.83421 142.526741 
L 564.7579 178.253306 
L 567.68159 245.905074 
L 570.60528 284.641417 
L 573.52897 84.941666 
L 576.45266 71.774841 
L 579.37635 210.35458 
L 582.30004 275.320475 
L 585.22373 315.171681 
L 588.147421 298.931396 
L 593.994801 324.552193 
L 596.918491 266.255761 
L 599.842181 301.352636 
L 602.765871 315.583045 
L 605.689561 312.973508 
L 608.613251 260.259801 
L 611.536941 71.456182 
L 614.460631 174.356054 
L 617.384322 359.411782 
L 620.308012 444.641073 
L 623.231702 214.371166 
L 626.155392 71.454862 
L 629.079082 71.456169 
L 632.002772 250.468694 
L 634.926462 287.047808 
L 637.850152 360.284426 
L 640.773842 325.553651 
L 643.697532 254.621195 
L 646.621223 259.963311 
L 649.544913 345.476272 
L 652.468603 409.9277 
L 655.392293 427.267666 
L 658.315983 345.181968 
L 661.239673 387.919139 
L 664.163363 305.300575 
L 667.087053 357.979704 
L 670.010743 335.330678 
L 672.934433 299.631694 
L 675.858124 370.196843 
L 678.781814 377.809593 
L 681.705504 393.645842 
L 684.629194 413.696437 
L 687.552884 357.508944 
L 690.476574 414.394076 
L 693.400264 377.745195 
L 696.323954 400.063118 
L 699.247644 377.255231 
L 702.171335 336.266216 
L 705.095025 324.851044 
L 708.018715 322.470731 
L 710.942405 324.012558 
L 713.866095 322.268494 
L 716.789785 325.034951 
L 719.713475 322.024282 
L 722.637165 324.053659 
L 725.560855 325.016184 
L 728.484545 323.871502 
L 728.484545 323.871502 
" style="fill:none;stroke:#dd8452;stroke-dasharray:6,2.25;stroke-dashoffset:0;stroke-width:1.5;"/>
   </g>
   <g id="line2d_3">
    <path clip-path="url(#p9061b70caa)" d="M 134.975455 335.269166 
L 137.899145 335.755772 
L 140.822835 336.977306 
L 143.746525 335.591961 
L 146.670215 338.484678 
L 149.593905 342.233336 
L 152.517595 341.769922 
L 155.441285 354.067375 
L 158.364975 354.230049 
L 161.288665 351.461721 
L 164.212356 353.487915 
L 167.136046 350.230655 
L 170.059736 352.440739 
L 172.983426 367.916222 
L 175.907116 380.388592 
L 181.754496 413.373397 
L 184.678186 394.391229 
L 187.601876 333.039144 
L 190.525567 328.951828 
L 193.449257 336.409372 
L 196.372947 306.346072 
L 199.296637 355.697387 
L 202.220327 328.588456 
L 205.144017 329.342064 
L 208.067707 187.435439 
L 210.991397 233.509887 
L 213.915087 263.886152 
L 216.838777 259.627434 
L 219.762468 322.391868 
L 222.686158 336.9648 
L 225.609848 284.718618 
L 228.533538 302.685284 
L 231.457228 293.133982 
L 234.380918 265.829006 
L 237.304608 330.267125 
L 240.228298 374.488145 
L 243.151988 346.580273 
L 246.075678 260.22587 
L 248.999369 301.178314 
L 251.923059 322.909886 
L 254.846749 404.388385 
L 257.770439 429.522437 
L 260.694129 341.924253 
L 263.617819 360.201978 
L 266.541509 238.904823 
L 269.465199 252.012341 
L 272.388889 234.829697 
L 275.312579 225.51402 
L 278.23627 228.676974 
L 281.15996 284.842394 
L 284.08365 259.779404 
L 287.00734 276.555231 
L 289.93103 327.655437 
L 292.85472 321.452413 
L 295.77841 364.625381 
L 298.7021 401.998662 
L 301.62579 385.973556 
L 304.549481 364.968779 
L 307.473171 391.060476 
L 310.396861 439.501823 
L 313.320551 340.971435 
L 316.244241 364.604953 
L 319.167931 395.482008 
L 322.091621 340.353795 
L 325.015311 74.260553 
L 327.939001 71.455766 
L 330.862691 256.078441 
L 333.786382 323.206358 
L 336.710072 405.656302 
L 339.633762 449.380047 
L 342.557452 436.0315 
L 345.481142 361.131465 
L 348.404832 336.243479 
L 351.328522 360.027761 
L 354.252212 367.104583 
L 357.175902 312.509656 
L 360.099592 248.29025 
L 363.023283 305.952968 
L 365.946973 203.92855 
L 368.870663 257.907786 
L 371.794353 261.437068 
L 374.718043 316.086563 
L 377.641733 311.800439 
L 380.565423 325.747265 
L 383.489113 333.385795 
L 386.412803 361.817753 
L 389.336494 430.023664 
L 392.260184 322.49004 
L 395.183874 71.553362 
L 398.107564 71.610966 
L 401.031254 251.533028 
L 403.954944 333.578167 
L 406.878634 321.665563 
L 409.802324 348.421144 
L 412.726014 283.052069 
L 415.649704 287.655059 
L 418.573395 303.302557 
L 421.497085 158.225335 
L 424.420775 163.252483 
L 427.344465 242.164671 
L 430.268155 241.971704 
L 433.191845 253.250787 
L 436.115535 245.867383 
L 439.039225 387.084204 
L 441.962915 366.520908 
L 444.886605 302.542706 
L 447.810296 347.233051 
L 450.733986 331.990393 
L 453.657676 334.920416 
L 456.581366 304.397306 
L 459.505056 430.502049 
L 462.428746 317.509546 
L 465.352436 316.581774 
L 468.276126 351.710533 
L 471.199816 323.120238 
L 474.123506 363.49483 
L 477.047197 336.467806 
L 479.970887 276.130645 
L 482.894577 282.192298 
L 485.818267 261.240883 
L 488.741957 248.699043 
L 491.665647 316.849842 
L 494.589337 291.552854 
L 497.513027 331.785114 
L 500.436717 319.708401 
L 503.360408 303.620594 
L 506.284098 328.183214 
L 509.207788 278.255273 
L 512.131478 304.260395 
L 515.055168 369.285476 
L 517.978858 359.858458 
L 520.902548 423.952409 
L 523.826238 394.8693 
L 526.749928 383.089987 
L 529.673618 378.692661 
L 532.597309 410.190224 
L 535.520999 419.368361 
L 538.444689 306.098117 
L 541.368379 335.857126 
L 544.292069 317.092621 
L 547.215759 240.796799 
L 550.139449 283.488794 
L 553.063139 252.625941 
L 555.986829 287.618645 
L 558.910519 247.502327 
L 561.83421 216.360964 
L 564.7579 213.557769 
L 567.68159 238.516843 
L 570.60528 254.345256 
L 573.52897 137.67151 
L 576.45266 73.929582 
L 579.37635 283.72169 
L 582.30004 398.080211 
L 585.22373 415.281272 
L 588.147421 370.117998 
L 591.071111 375.037959 
L 593.994801 336.254131 
L 596.918491 304.845556 
L 599.842181 348.108266 
L 602.765871 362.33766 
L 605.689561 324.371784 
L 608.613251 213.505282 
L 611.536941 71.499059 
L 614.460631 230.311481 
L 617.384322 344.495592 
L 620.308012 380.344343 
L 623.231702 214.959765 
L 626.155392 71.452942 
L 629.079082 71.649109 
L 632.002772 298.983131 
L 634.926462 338.369244 
L 637.850152 322.881028 
L 640.773842 287.7416 
L 643.697532 309.485485 
L 646.621223 301.583784 
L 649.544913 352.959403 
L 652.468603 370.916205 
L 655.392293 412.283528 
L 658.315983 361.427797 
L 661.239673 392.416473 
L 664.163363 309.822884 
L 667.087053 355.506309 
L 670.010743 314.6888 
L 672.934433 255.978591 
L 675.858124 366.740722 
L 678.781814 360.970574 
L 681.705504 397.752834 
L 684.629194 411.071613 
L 687.552884 362.861869 
L 690.476574 408.930842 
L 693.400264 375.440508 
L 696.323954 399.056921 
L 699.247644 370.343794 
L 702.171335 333.455667 
L 705.095025 322.501548 
L 708.018715 321.13574 
L 710.942405 324.581209 
L 713.866095 321.537187 
L 716.789785 324.414495 
L 719.713475 320.649659 
L 722.637165 324.014674 
L 725.560855 322.938552 
L 728.484545 311.246042 
L 728.484545 311.246042 
" style="fill:none;stroke:#55a868;stroke-dasharray:1.5,1.5;stroke-dashoffset:0;stroke-width:1.5;"/>
   </g>
   <g id="line2d_4">
    <path clip-path="url(#p9061b70caa)" d="M 134.975455 335.651147 
L 137.899145 336.547472 
L 143.746525 337.706619 
L 146.670215 336.398388 
L 149.593905 340.444323 
L 152.517595 337.874208 
L 155.441285 340.969196 
L 158.364975 339.453464 
L 161.288665 341.178674 
L 164.212356 344.920791 
L 167.136046 344.36398 
L 170.059736 358.284327 
L 172.983426 367.78141 
L 175.907116 380.901363 
L 178.830806 407.717984 
L 181.754496 421.365224 
L 184.678186 398.21387 
L 187.601876 320.244294 
L 190.525567 378.698468 
L 193.449257 299.240234 
L 196.372947 285.485797 
L 199.296637 342.801829 
L 202.220327 356.441182 
L 205.144017 378.5724 
L 208.067707 429.68275 
L 210.991397 343.23642 
L 213.915087 369.84533 
L 216.838777 462.260178 
L 219.762468 454.338556 
L 222.686158 405.648782 
L 225.609848 374.469465 
L 228.533538 357.954448 
L 231.457228 327.487796 
L 234.380918 265.481953 
L 237.304608 378.091286 
L 240.228298 380.915285 
L 243.151988 329.646826 
L 246.075678 291.605744 
L 248.999369 309.480116 
L 251.923059 389.676845 
L 254.846749 424.236341 
L 257.770439 429.649309 
L 260.694129 371.76181 
L 263.617819 427.57479 
L 266.541509 261.898995 
L 269.465199 265.153754 
L 272.388889 284.059281 
L 275.312579 327.866401 
L 278.23627 343.502722 
L 281.15996 307.779095 
L 284.08365 232.925967 
L 287.00734 272.890298 
L 289.93103 362.911435 
L 292.85472 375.285652 
L 295.77841 386.943444 
L 298.7021 427.902307 
L 301.62579 360.370599 
L 304.549481 362.51917 
L 307.473171 370.757781 
L 310.396861 403.91738 
L 313.320551 313.260675 
L 316.244241 349.823296 
L 319.167931 376.828686 
L 322.091621 336.178137 
L 325.015311 76.137225 
L 327.939001 71.457347 
L 330.862691 252.080901 
L 333.786382 329.102399 
L 336.710072 401.666563 
L 339.633762 465.970393 
L 342.557452 413.624903 
L 345.481142 310.789274 
L 348.404832 298.404966 
L 351.328522 374.6012 
L 354.252212 361.046796 
L 357.175902 289.787505 
L 360.099592 240.197768 
L 363.023283 352.774919 
L 365.946973 208.539096 
L 368.870663 274.342787 
L 371.794353 313.642184 
L 374.718043 299.922465 
L 377.641733 279.438101 
L 380.565423 322.78179 
L 383.489113 283.679102 
L 386.412803 354.264434 
L 389.336494 411.145141 
L 392.260184 316.709031 
L 395.183874 71.493714 
L 398.107564 71.566149 
L 401.031254 228.807851 
L 403.954944 329.38843 
L 406.878634 340.813238 
L 409.802324 319.464871 
L 412.726014 273.673656 
L 415.649704 347.529313 
L 418.573395 308.661131 
L 421.497085 308.825274 
L 424.420775 376.766527 
L 427.344465 339.194665 
L 430.268155 402.782947 
L 433.191845 417.203488 
L 436.115535 351.450737 
L 439.039225 407.952314 
L 441.962915 330.79485 
L 444.886605 320.485305 
L 447.810296 295.438564 
L 450.733986 333.381125 
L 453.657676 387.114147 
L 456.581366 308.38388 
L 459.505056 373.792849 
L 462.428746 300.245294 
L 465.352436 370.234656 
L 468.276126 382.374822 
L 471.199816 383.653583 
L 474.123506 412.542414 
L 477.047197 406.321865 
L 479.970887 270.995698 
L 482.894577 364.602592 
L 485.818267 355.740045 
L 488.741957 390.126232 
L 491.665647 365.059342 
L 494.589337 365.069067 
L 497.513027 448.527272 
L 500.436717 387.838196 
L 503.360408 303.649942 
L 506.284098 327.53271 
L 509.207788 303.945873 
L 512.131478 386.388523 
L 515.055168 450.130436 
L 517.978858 376.245921 
L 520.902548 429.792656 
L 523.826238 401.451961 
L 526.749928 358.994279 
L 529.673618 391.741045 
L 532.597309 409.528055 
L 535.520999 378.630886 
L 538.444689 332.287513 
L 541.368379 399.877829 
L 544.292069 374.049287 
L 547.215759 319.839454 
L 550.139449 384.744852 
L 553.063139 331.509315 
L 555.986829 366.217982 
L 558.910519 218.143523 
L 561.83421 143.581481 
L 564.7579 179.584476 
L 567.68159 247.732915 
L 570.60528 282.128407 
L 573.52897 237.452894 
L 576.45266 228.048979 
L 579.37635 255.757256 
L 582.30004 334.167334 
L 585.22373 397.352069 
L 588.147421 296.548074 
L 591.071111 280.430202 
L 593.994801 338.36746 
L 596.918491 302.416026 
L 599.842181 285.37283 
L 602.765871 336.906611 
L 605.689561 317.129577 
L 608.613251 224.013993 
L 611.536941 71.462334 
L 614.460631 200.871786 
L 617.384322 362.611238 
L 620.308012 438.271054 
L 623.231702 221.54985 
L 626.155392 71.455742 
L 629.079082 71.455401 
L 632.002772 247.44552 
L 634.926462 289.262404 
L 637.850152 359.11914 
L 640.773842 327.094551 
L 643.697532 256.213062 
L 646.621223 261.183253 
L 649.544913 340.961658 
L 652.468603 409.752416 
L 655.392293 426.223061 
L 658.315983 345.897832 
L 661.239673 385.51385 
L 664.163363 302.226837 
L 667.087053 355.194848 
L 670.010743 335.09682 
L 672.934433 299.522487 
L 675.858124 368.678365 
L 678.781814 377.234453 
L 681.705504 391.037214 
L 684.629194 412.420544 
L 687.552884 355.271156 
L 690.476574 412.070185 
L 693.400264 377.400818 
L 696.323954 399.607015 
L 699.247644 379.236879 
L 702.171335 334.924649 
L 705.095025 325.132755 
L 708.018715 324.17985 
L 710.942405 326.812351 
L 713.866095 325.895929 
L 716.789785 327.613688 
L 719.713475 324.881634 
L 722.637165 327.187178 
L 725.560855 328.123363 
L 728.484545 327.057997 
L 728.484545 327.057997 
" style="fill:none;stroke:#c44e52;stroke-dasharray:4.5,1.875,2.25,1.875;stroke-dashoffset:0;stroke-width:1.5;"/>
   </g>
   <g id="line2d_5">
    <path clip-path="url(#p9061b70caa)" d="M 134.975455 338.090349 
L 137.899145 339.329565 
L 140.822835 339.528339 
L 143.746525 340.201422 
L 146.670215 339.52185 
L 149.593905 343.125953 
L 152.517595 340.806767 
L 155.441285 343.561873 
L 158.364975 341.564817 
L 161.288665 343.357503 
L 164.212356 346.490462 
L 167.136046 345.378363 
L 170.059736 360.216302 
L 172.983426 369.556711 
L 175.907116 381.178754 
L 178.830806 405.983399 
L 181.754496 425.720749 
L 184.678186 390.228234 
L 187.601876 345.085004 
L 190.525567 384.903206 
L 193.449257 308.574888 
L 196.372947 300.352508 
L 199.296637 359.328372 
L 202.220327 361.790259 
L 205.144017 381.195649 
L 208.067707 435.711364 
L 210.991397 344.926055 
L 213.915087 366.956233 
L 216.838777 464.93051 
L 219.762468 452.557098 
L 222.686158 413.178139 
L 225.609848 392.670007 
L 228.533538 372.95375 
L 231.457228 337.712793 
L 234.380918 273.482263 
L 237.304608 383.024994 
L 240.228298 384.343352 
L 243.151988 335.945905 
L 246.075678 296.903103 
L 248.999369 307.219696 
L 251.923059 393.949712 
L 254.846749 425.713473 
L 257.770439 436.691536 
L 260.694129 373.217919 
L 263.617819 430.471757 
L 266.541509 263.282818 
L 269.465199 266.492383 
L 272.388889 285.83021 
L 275.312579 326.364171 
L 278.23627 349.326039 
L 281.15996 323.424546 
L 284.08365 251.623871 
L 287.00734 278.759281 
L 289.93103 363.170724 
L 292.85472 376.152839 
L 295.77841 387.09949 
L 298.7021 422.753577 
L 301.62579 355.180366 
L 304.549481 355.662004 
L 307.473171 365.02027 
L 310.396861 412.230568 
L 313.320551 316.642691 
L 316.244241 344.426962 
L 319.167931 402.686017 
L 322.091621 341.220107 
L 325.015311 77.047824 
L 327.939001 71.465839 
L 330.862691 249.82321 
L 333.786382 345.521536 
L 336.710072 372.240125 
L 339.633762 441.545735 
L 342.557452 402.680386 
L 345.481142 350.000522 
L 348.404832 408.111438 
L 351.328522 361.02705 
L 354.252212 370.726159 
L 357.175902 350.589636 
L 360.099592 337.644915 
L 363.023283 423.896371 
L 365.946973 294.702097 
L 368.870663 349.841118 
L 371.794353 298.862171 
L 374.718043 317.573 
L 377.641733 364.278923 
L 380.565423 388.058115 
L 383.489113 357.509871 
L 386.412803 358.301344 
L 389.336494 413.826702 
L 392.260184 289.141619 
L 395.183874 71.458861 
L 398.107564 71.726115 
L 401.031254 257.189701 
L 403.954944 346.315615 
L 406.878634 363.732834 
L 409.802324 347.572146 
L 412.726014 285.772388 
L 415.649704 383.903759 
L 418.573395 314.740326 
L 421.497085 321.20075 
L 424.420775 391.681405 
L 427.344465 348.643179 
L 430.268155 409.439905 
L 433.191845 429.166901 
L 436.115535 351.221024 
L 439.039225 415.554465 
L 441.962915 340.935056 
L 444.886605 331.366334 
L 447.810296 305.821706 
L 450.733986 344.570502 
L 453.657676 385.580032 
L 456.581366 309.265671 
L 459.505056 361.189391 
L 462.428746 297.934066 
L 465.352436 374.775889 
L 468.276126 388.103204 
L 471.199816 395.60832 
L 474.123506 426.077579 
L 477.047197 399.778067 
L 479.970887 281.702981 
L 482.894577 372.418872 
L 485.818267 364.116808 
L 488.741957 390.572506 
L 491.665647 374.551808 
L 494.589337 362.737095 
L 497.513027 447.366078 
L 500.436717 382.118105 
L 503.360408 298.291771 
L 506.284098 329.986236 
L 509.207788 309.41208 
L 512.131478 395.533393 
L 515.055168 446.503019 
L 517.978858 373.93791 
L 520.902548 429.645636 
L 523.826238 394.995122 
L 526.749928 352.622739 
L 529.673618 393.026173 
L 532.597309 389.296089 
L 535.520999 371.074174 
L 538.444689 322.783976 
L 541.368379 399.122088 
L 544.292069 369.402414 
L 547.215759 299.391172 
L 550.139449 373.229497 
L 553.063139 275.662439 
L 555.986829 358.355948 
L 558.910519 256.257836 
L 561.83421 211.518886 
L 564.7579 288.398068 
L 567.68159 290.228725 
L 570.60528 257.020083 
L 573.52897 80.508424 
L 576.45266 71.456645 
L 579.37635 220.680284 
L 582.30004 363.277693 
L 585.22373 427.344027 
L 588.147421 328.207735 
L 591.071111 278.158501 
L 593.994801 309.122358 
L 596.918491 283.481763 
L 599.842181 267.170294 
L 602.765871 319.349647 
L 605.689561 312.221457 
L 608.613251 232.987235 
L 611.536941 71.457821 
L 614.460631 192.293144 
L 617.384322 334.734061 
L 620.308012 417.841137 
L 623.231702 238.651533 
L 626.155392 71.457972 
L 629.079082 71.454671 
L 632.002772 245.222668 
L 634.926462 306.968417 
L 637.850152 362.459215 
L 640.773842 324.320276 
L 643.697532 252.112418 
L 646.621223 235.527406 
L 649.544913 332.033698 
L 652.468603 402.648344 
L 655.392293 411.288314 
L 658.315983 348.429416 
L 661.239673 380.654265 
L 664.163363 292.607481 
L 667.087053 348.065013 
L 670.010743 336.723719 
L 672.934433 308.379193 
L 675.858124 371.997784 
L 678.781814 364.467097 
L 681.705504 392.116555 
L 684.629194 402.697701 
L 687.552884 353.168164 
L 690.476574 394.470354 
L 693.400264 366.143125 
L 696.323954 392.662137 
L 699.247644 378.970786 
L 702.171335 335.669424 
L 705.095025 331.178614 
L 708.018715 330.141127 
L 710.942405 332.375925 
L 713.866095 332.09988 
L 716.789785 333.2595 
L 719.713475 331.166249 
L 722.637165 332.339668 
L 725.560855 333.898181 
L 728.484545 333.715148 
L 728.484545 333.715148 
" style="fill:none;stroke:#8172b3;stroke-dasharray:7.5,1.5,1.5,1.5;stroke-dashoffset:0;stroke-width:1.5;"/>
   </g>
   <g id="line2d_6"/>
   <g id="line2d_7"/>
   <g id="line2d_8"/>
   <g id="line2d_9"/>
   <g id="line2d_10"/>
   <g id="patch_3">
    <path d="M 105.3 529.9416 
L 105.3 71.4528 
" style="fill:none;stroke:#262626;stroke-linecap:square;stroke-linejoin:miter;stroke-width:1.25;"/>
   </g>
   <g id="patch_4">
    <path d="M 758.16 529.9416 
L 758.16 71.4528 
" style="fill:none;stroke:#262626;stroke-linecap:square;stroke-linejoin:miter;stroke-width:1.25;"/>
   </g>
   <g id="patch_5">
    <path d="M 105.3 529.9416 
L 758.16 529.9416 
" style="fill:none;stroke:#262626;stroke-linecap:square;stroke-linejoin:miter;stroke-width:1.25;"/>
   </g>
   <g id="patch_6">
    <path d="M 105.3 71.4528 
L 758.16 71.4528 
" style="fill:none;stroke:#262626;stroke-linecap:square;stroke-linejoin:miter;stroke-width:1.25;"/>
   </g>
   <g id="text_16">
    <!-- Activations for &gt;R&lt; -->
    <g style="fill:#262626;" transform="translate(381.04125 65.4528)scale(0.12 -0.12)">
     <defs>
      <path d="M -9 0 
L 1750 4581 
L 2403 4581 
L 4278 0 
L 3588 0 
L 3053 1388 
L 1138 1388 
L 634 0 
L -9 0 
z
M 1313 1881 
L 2866 1881 
L 2388 3150 
Q 2169 3728 2063 4100 
Q 1975 3659 1816 3225 
L 1313 1881 
z
" id="ArialMT-41" transform="scale(0.015625)"/>
      <path d="M 2588 1216 
L 3141 1144 
Q 3050 572 2676 248 
Q 2303 -75 1759 -75 
Q 1078 -75 664 370 
Q 250 816 250 1647 
Q 250 2184 428 2587 
Q 606 2991 970 3192 
Q 1334 3394 1763 3394 
Q 2303 3394 2647 3120 
Q 2991 2847 3088 2344 
L 2541 2259 
Q 2463 2594 2264 2762 
Q 2066 2931 1784 2931 
Q 1359 2931 1093 2626 
Q 828 2322 828 1663 
Q 828 994 1084 691 
Q 1341 388 1753 388 
Q 2084 388 2306 591 
Q 2528 794 2588 1216 
z
" id="ArialMT-63" transform="scale(0.015625)"/>
      <path d="M 1650 503 
L 1731 6 
Q 1494 -44 1306 -44 
Q 1000 -44 831 53 
Q 663 150 594 308 
Q 525 466 525 972 
L 525 2881 
L 113 2881 
L 113 3319 
L 525 3319 
L 525 4141 
L 1084 4478 
L 1084 3319 
L 1650 3319 
L 1650 2881 
L 1084 2881 
L 1084 941 
Q 1084 700 1114 631 
Q 1144 563 1211 522 
Q 1278 481 1403 481 
Q 1497 481 1650 503 
z
" id="ArialMT-74" transform="scale(0.015625)"/>
      <path d="M 425 3934 
L 425 4581 
L 988 4581 
L 988 3934 
L 425 3934 
z
M 425 0 
L 425 3319 
L 988 3319 
L 988 0 
L 425 0 
z
" id="ArialMT-69" transform="scale(0.015625)"/>
      <path d="M 1344 0 
L 81 3319 
L 675 3319 
L 1388 1331 
Q 1503 1009 1600 663 
Q 1675 925 1809 1294 
L 2547 3319 
L 3125 3319 
L 1869 0 
L 1344 0 
z
" id="ArialMT-76" transform="scale(0.015625)"/>
      <path d="M 2588 409 
Q 2275 144 1986 34 
Q 1697 -75 1366 -75 
Q 819 -75 525 192 
Q 231 459 231 875 
Q 231 1119 342 1320 
Q 453 1522 633 1644 
Q 813 1766 1038 1828 
Q 1203 1872 1538 1913 
Q 2219 1994 2541 2106 
Q 2544 2222 2544 2253 
Q 2544 2597 2384 2738 
Q 2169 2928 1744 2928 
Q 1347 2928 1158 2789 
Q 969 2650 878 2297 
L 328 2372 
Q 403 2725 575 2942 
Q 747 3159 1072 3276 
Q 1397 3394 1825 3394 
Q 2250 3394 2515 3294 
Q 2781 3194 2906 3042 
Q 3031 2891 3081 2659 
Q 3109 2516 3109 2141 
L 3109 1391 
Q 3109 606 3145 398 
Q 3181 191 3288 0 
L 2700 0 
Q 2613 175 2588 409 
z
M 2541 1666 
Q 2234 1541 1622 1453 
Q 1275 1403 1131 1340 
Q 988 1278 909 1158 
Q 831 1038 831 891 
Q 831 666 1001 516 
Q 1172 366 1500 366 
Q 1825 366 2078 508 
Q 2331 650 2450 897 
Q 2541 1088 2541 1459 
L 2541 1666 
z
" id="ArialMT-61" transform="scale(0.015625)"/>
      <path d="M 213 1659 
Q 213 2581 725 3025 
Q 1153 3394 1769 3394 
Q 2453 3394 2887 2945 
Q 3322 2497 3322 1706 
Q 3322 1066 3130 698 
Q 2938 331 2570 128 
Q 2203 -75 1769 -75 
Q 1072 -75 642 372 
Q 213 819 213 1659 
z
M 791 1659 
Q 791 1022 1069 705 
Q 1347 388 1769 388 
Q 2188 388 2466 706 
Q 2744 1025 2744 1678 
Q 2744 2294 2464 2611 
Q 2184 2928 1769 2928 
Q 1347 2928 1069 2612 
Q 791 2297 791 1659 
z
" id="ArialMT-6f" transform="scale(0.015625)"/>
      <path d="M 422 0 
L 422 3319 
L 928 3319 
L 928 2847 
Q 1294 3394 1984 3394 
Q 2284 3394 2536 3286 
Q 2788 3178 2913 3003 
Q 3038 2828 3088 2588 
Q 3119 2431 3119 2041 
L 3119 0 
L 2556 0 
L 2556 2019 
Q 2556 2363 2490 2533 
Q 2425 2703 2258 2804 
Q 2091 2906 1866 2906 
Q 1506 2906 1245 2678 
Q 984 2450 984 1813 
L 984 0 
L 422 0 
z
" id="ArialMT-6e" transform="scale(0.015625)"/>
      <path d="M 197 991 
L 753 1078 
Q 800 744 1014 566 
Q 1228 388 1613 388 
Q 2000 388 2187 545 
Q 2375 703 2375 916 
Q 2375 1106 2209 1216 
Q 2094 1291 1634 1406 
Q 1016 1563 777 1677 
Q 538 1791 414 1992 
Q 291 2194 291 2438 
Q 291 2659 392 2848 
Q 494 3038 669 3163 
Q 800 3259 1026 3326 
Q 1253 3394 1513 3394 
Q 1903 3394 2198 3281 
Q 2494 3169 2634 2976 
Q 2775 2784 2828 2463 
L 2278 2388 
Q 2241 2644 2061 2787 
Q 1881 2931 1553 2931 
Q 1166 2931 1000 2803 
Q 834 2675 834 2503 
Q 834 2394 903 2306 
Q 972 2216 1119 2156 
Q 1203 2125 1616 2013 
Q 2213 1853 2448 1751 
Q 2684 1650 2818 1456 
Q 2953 1263 2953 975 
Q 2953 694 2789 445 
Q 2625 197 2315 61 
Q 2006 -75 1616 -75 
Q 969 -75 630 194 
Q 291 463 197 991 
z
" id="ArialMT-73" transform="scale(0.015625)"/>
      <path id="ArialMT-20" transform="scale(0.015625)"/>
      <path d="M 556 0 
L 556 2881 
L 59 2881 
L 59 3319 
L 556 3319 
L 556 3672 
Q 556 4006 616 4169 
Q 697 4388 901 4523 
Q 1106 4659 1475 4659 
Q 1713 4659 2000 4603 
L 1916 4113 
Q 1741 4144 1584 4144 
Q 1328 4144 1222 4034 
Q 1116 3925 1116 3625 
L 1116 3319 
L 1763 3319 
L 1763 2881 
L 1116 2881 
L 1116 0 
L 556 0 
z
" id="ArialMT-66" transform="scale(0.015625)"/>
      <path d="M 416 0 
L 416 3319 
L 922 3319 
L 922 2816 
Q 1116 3169 1280 3281 
Q 1444 3394 1641 3394 
Q 1925 3394 2219 3213 
L 2025 2691 
Q 1819 2813 1613 2813 
Q 1428 2813 1281 2702 
Q 1134 2591 1072 2394 
Q 978 2094 978 1738 
L 978 0 
L 416 0 
z
" id="ArialMT-72" transform="scale(0.015625)"/>
      <path d="M 3384 2003 
L 350 706 
L 350 1266 
L 2753 2263 
L 350 3250 
L 350 3809 
L 3384 2528 
L 3384 2003 
z
" id="ArialMT-3e" transform="scale(0.015625)"/>
      <path d="M 503 0 
L 503 4581 
L 2534 4581 
Q 3147 4581 3465 4457 
Q 3784 4334 3975 4021 
Q 4166 3709 4166 3331 
Q 4166 2844 3850 2509 
Q 3534 2175 2875 2084 
Q 3116 1969 3241 1856 
Q 3506 1613 3744 1247 
L 4541 0 
L 3778 0 
L 3172 953 
Q 2906 1366 2734 1584 
Q 2563 1803 2427 1890 
Q 2291 1978 2150 2013 
Q 2047 2034 1813 2034 
L 1109 2034 
L 1109 0 
L 503 0 
z
M 1109 2559 
L 2413 2559 
Q 2828 2559 3062 2645 
Q 3297 2731 3419 2920 
Q 3541 3109 3541 3331 
Q 3541 3656 3305 3865 
Q 3069 4075 2559 4075 
L 1109 4075 
L 1109 2559 
z
" id="ArialMT-52" transform="scale(0.015625)"/>
      <path d="M 350 2003 
L 350 2528 
L 3384 3809 
L 3384 3250 
L 978 2263 
L 3384 1266 
L 3384 706 
L 350 2003 
z
" id="ArialMT-3c" transform="scale(0.015625)"/>
     </defs>
     <use xlink:href="#ArialMT-41"/>
     <use x="66.699219" xlink:href="#ArialMT-63"/>
     <use x="116.699219" xlink:href="#ArialMT-74"/>
     <use x="144.482422" xlink:href="#ArialMT-69"/>
     <use x="166.699219" xlink:href="#ArialMT-76"/>
     <use x="216.699219" xlink:href="#ArialMT-61"/>
     <use x="272.314453" xlink:href="#ArialMT-74"/>
     <use x="300.097656" xlink:href="#ArialMT-69"/>
     <use x="322.314453" xlink:href="#ArialMT-6f"/>
     <use x="377.929688" xlink:href="#ArialMT-6e"/>
     <use x="433.544922" xlink:href="#ArialMT-73"/>
     <use x="483.544922" xlink:href="#ArialMT-20"/>
     <use x="511.328125" xlink:href="#ArialMT-66"/>
     <use x="539.111328" xlink:href="#ArialMT-6f"/>
     <use x="594.726562" xlink:href="#ArialMT-72"/>
     <use x="628.027344" xlink:href="#ArialMT-20"/>
     <use x="655.810547" xlink:href="#ArialMT-3e"/>
     <use x="714.208984" xlink:href="#ArialMT-52"/>
     <use x="786.425781" xlink:href="#ArialMT-3c"/>
    </g>
   </g>
   <g id="legend_1">
    <g id="patch_7">
     <path d="M 640.044062 158.514363 
L 750.46 158.514363 
Q 752.66 158.514363 752.66 156.314363 
L 752.66 79.1528 
Q 752.66 76.9528 750.46 76.9528 
L 640.044062 76.9528 
Q 637.844062 76.9528 637.844062 79.1528 
L 637.844062 156.314363 
Q 637.844062 158.514363 640.044062 158.514363 
z
" style="fill:#ffffff;opacity:0.8;stroke:#cccccc;stroke-linejoin:miter;"/>
    </g>
    <g id="line2d_11">
     <path d="M 642.244062 85.376394 
L 664.244062 85.376394 
" style="fill:none;stroke:#4c72b0;stroke-linecap:round;stroke-width:1.5;"/>
    </g>
    <g id="line2d_12"/>
    <g id="text_17">
     <!-- regular -->
     <g style="fill:#262626;" transform="translate(673.044062 89.226394)scale(0.11 -0.11)">
      <defs>
       <path d="M 2694 1069 
L 3275 997 
Q 3138 488 2766 206 
Q 2394 -75 1816 -75 
Q 1088 -75 661 373 
Q 234 822 234 1631 
Q 234 2469 665 2931 
Q 1097 3394 1784 3394 
Q 2450 3394 2872 2941 
Q 3294 2488 3294 1666 
Q 3294 1616 3291 1516 
L 816 1516 
Q 847 969 1125 678 
Q 1403 388 1819 388 
Q 2128 388 2347 550 
Q 2566 713 2694 1069 
z
M 847 1978 
L 2700 1978 
Q 2663 2397 2488 2606 
Q 2219 2931 1791 2931 
Q 1403 2931 1139 2672 
Q 875 2413 847 1978 
z
" id="ArialMT-65" transform="scale(0.015625)"/>
       <path d="M 319 -275 
L 866 -356 
Q 900 -609 1056 -725 
Q 1266 -881 1628 -881 
Q 2019 -881 2231 -725 
Q 2444 -569 2519 -288 
Q 2563 -116 2559 434 
Q 2191 0 1641 0 
Q 956 0 581 494 
Q 206 988 206 1678 
Q 206 2153 378 2554 
Q 550 2956 876 3175 
Q 1203 3394 1644 3394 
Q 2231 3394 2613 2919 
L 2613 3319 
L 3131 3319 
L 3131 450 
Q 3131 -325 2973 -648 
Q 2816 -972 2473 -1159 
Q 2131 -1347 1631 -1347 
Q 1038 -1347 672 -1080 
Q 306 -813 319 -275 
z
M 784 1719 
Q 784 1066 1043 766 
Q 1303 466 1694 466 
Q 2081 466 2343 764 
Q 2606 1063 2606 1700 
Q 2606 2309 2336 2618 
Q 2066 2928 1684 2928 
Q 1309 2928 1046 2623 
Q 784 2319 784 1719 
z
" id="ArialMT-67" transform="scale(0.015625)"/>
       <path d="M 2597 0 
L 2597 488 
Q 2209 -75 1544 -75 
Q 1250 -75 995 37 
Q 741 150 617 320 
Q 494 491 444 738 
Q 409 903 409 1263 
L 409 3319 
L 972 3319 
L 972 1478 
Q 972 1038 1006 884 
Q 1059 663 1231 536 
Q 1403 409 1656 409 
Q 1909 409 2131 539 
Q 2353 669 2445 892 
Q 2538 1116 2538 1541 
L 2538 3319 
L 3100 3319 
L 3100 0 
L 2597 0 
z
" id="ArialMT-75" transform="scale(0.015625)"/>
       <path d="M 409 0 
L 409 4581 
L 972 4581 
L 972 0 
L 409 0 
z
" id="ArialMT-6c" transform="scale(0.015625)"/>
      </defs>
      <use xlink:href="#ArialMT-72"/>
      <use x="33.300781" xlink:href="#ArialMT-65"/>
      <use x="88.916016" xlink:href="#ArialMT-67"/>
      <use x="144.53125" xlink:href="#ArialMT-75"/>
      <use x="200.146484" xlink:href="#ArialMT-6c"/>
      <use x="222.363281" xlink:href="#ArialMT-61"/>
      <use x="277.978516" xlink:href="#ArialMT-72"/>
     </g>
    </g>
    <g id="line2d_13">
     <path d="M 642.244062 101.0978 
L 664.244062 101.0978 
" style="fill:none;stroke:#dd8452;stroke-dasharray:6,2.25;stroke-dashoffset:0;stroke-width:1.5;"/>
    </g>
    <g id="line2d_14"/>
    <g id="text_18">
     <!-- splitted_3s -->
     <g style="fill:#262626;" transform="translate(673.044062 104.9478)scale(0.11 -0.11)">
      <defs>
       <path d="M 422 -1272 
L 422 3319 
L 934 3319 
L 934 2888 
Q 1116 3141 1344 3267 
Q 1572 3394 1897 3394 
Q 2322 3394 2647 3175 
Q 2972 2956 3137 2557 
Q 3303 2159 3303 1684 
Q 3303 1175 3120 767 
Q 2938 359 2589 142 
Q 2241 -75 1856 -75 
Q 1575 -75 1351 44 
Q 1128 163 984 344 
L 984 -1272 
L 422 -1272 
z
M 931 1641 
Q 931 1000 1190 694 
Q 1450 388 1819 388 
Q 2194 388 2461 705 
Q 2728 1022 2728 1688 
Q 2728 2322 2467 2637 
Q 2206 2953 1844 2953 
Q 1484 2953 1207 2617 
Q 931 2281 931 1641 
z
" id="ArialMT-70" transform="scale(0.015625)"/>
       <path d="M 2575 0 
L 2575 419 
Q 2259 -75 1647 -75 
Q 1250 -75 917 144 
Q 584 363 401 755 
Q 219 1147 219 1656 
Q 219 2153 384 2558 
Q 550 2963 881 3178 
Q 1213 3394 1622 3394 
Q 1922 3394 2156 3267 
Q 2391 3141 2538 2938 
L 2538 4581 
L 3097 4581 
L 3097 0 
L 2575 0 
z
M 797 1656 
Q 797 1019 1065 703 
Q 1334 388 1700 388 
Q 2069 388 2326 689 
Q 2584 991 2584 1609 
Q 2584 2291 2321 2609 
Q 2059 2928 1675 2928 
Q 1300 2928 1048 2622 
Q 797 2316 797 1656 
z
" id="ArialMT-64" transform="scale(0.015625)"/>
       <path d="M -97 -1272 
L -97 -866 
L 3631 -866 
L 3631 -1272 
L -97 -1272 
z
" id="ArialMT-5f" transform="scale(0.015625)"/>
       <path d="M 269 1209 
L 831 1284 
Q 928 806 1161 595 
Q 1394 384 1728 384 
Q 2125 384 2398 659 
Q 2672 934 2672 1341 
Q 2672 1728 2419 1979 
Q 2166 2231 1775 2231 
Q 1616 2231 1378 2169 
L 1441 2663 
Q 1497 2656 1531 2656 
Q 1891 2656 2178 2843 
Q 2466 3031 2466 3422 
Q 2466 3731 2256 3934 
Q 2047 4138 1716 4138 
Q 1388 4138 1169 3931 
Q 950 3725 888 3313 
L 325 3413 
Q 428 3978 793 4289 
Q 1159 4600 1703 4600 
Q 2078 4600 2393 4439 
Q 2709 4278 2876 4000 
Q 3044 3722 3044 3409 
Q 3044 3113 2884 2869 
Q 2725 2625 2413 2481 
Q 2819 2388 3044 2092 
Q 3269 1797 3269 1353 
Q 3269 753 2831 336 
Q 2394 -81 1725 -81 
Q 1122 -81 723 278 
Q 325 638 269 1209 
z
" id="ArialMT-33" transform="scale(0.015625)"/>
      </defs>
      <use xlink:href="#ArialMT-73"/>
      <use x="50" xlink:href="#ArialMT-70"/>
      <use x="105.615234" xlink:href="#ArialMT-6c"/>
      <use x="127.832031" xlink:href="#ArialMT-69"/>
      <use x="150.048828" xlink:href="#ArialMT-74"/>
      <use x="177.832031" xlink:href="#ArialMT-74"/>
      <use x="205.615234" xlink:href="#ArialMT-65"/>
      <use x="261.230469" xlink:href="#ArialMT-64"/>
      <use x="316.845703" xlink:href="#ArialMT-5f"/>
      <use x="372.460938" xlink:href="#ArialMT-33"/>
      <use x="428.076172" xlink:href="#ArialMT-73"/>
     </g>
    </g>
    <g id="line2d_15">
     <path d="M 642.244062 116.6903 
L 664.244062 116.6903 
" style="fill:none;stroke:#55a868;stroke-dasharray:1.5,1.5;stroke-dashoffset:0;stroke-width:1.5;"/>
    </g>
    <g id="line2d_16"/>
    <g id="text_19">
     <!-- splitted_1s -->
     <g style="fill:#262626;" transform="translate(673.044062 120.5403)scale(0.11 -0.11)">
      <use xlink:href="#ArialMT-73"/>
      <use x="50" xlink:href="#ArialMT-70"/>
      <use x="105.615234" xlink:href="#ArialMT-6c"/>
      <use x="127.832031" xlink:href="#ArialMT-69"/>
      <use x="150.048828" xlink:href="#ArialMT-74"/>
      <use x="177.832031" xlink:href="#ArialMT-74"/>
      <use x="205.615234" xlink:href="#ArialMT-65"/>
      <use x="261.230469" xlink:href="#ArialMT-64"/>
      <use x="316.845703" xlink:href="#ArialMT-5f"/>
      <use x="372.460938" xlink:href="#ArialMT-31"/>
      <use x="428.076172" xlink:href="#ArialMT-73"/>
     </g>
    </g>
    <g id="line2d_17">
     <path d="M 642.244062 132.384206 
L 664.244062 132.384206 
" style="fill:none;stroke:#c44e52;stroke-dasharray:4.5,1.875,2.25,1.875;stroke-dashoffset:0;stroke-width:1.5;"/>
    </g>
    <g id="line2d_18"/>
    <g id="text_20">
     <!-- overlap_1f_3s -->
     <g style="fill:#262626;" transform="translate(673.044062 136.234206)scale(0.11 -0.11)">
      <use xlink:href="#ArialMT-6f"/>
      <use x="55.615234" xlink:href="#ArialMT-76"/>
      <use x="105.615234" xlink:href="#ArialMT-65"/>
      <use x="161.230469" xlink:href="#ArialMT-72"/>
      <use x="194.53125" xlink:href="#ArialMT-6c"/>
      <use x="216.748047" xlink:href="#ArialMT-61"/>
      <use x="272.363281" xlink:href="#ArialMT-70"/>
      <use x="327.978516" xlink:href="#ArialMT-5f"/>
      <use x="383.59375" xlink:href="#ArialMT-31"/>
      <use x="439.208984" xlink:href="#ArialMT-66"/>
      <use x="466.992188" xlink:href="#ArialMT-5f"/>
      <use x="522.607422" xlink:href="#ArialMT-33"/>
      <use x="578.222656" xlink:href="#ArialMT-73"/>
     </g>
    </g>
    <g id="line2d_19">
     <path d="M 642.244062 148.078113 
L 664.244062 148.078113 
" style="fill:none;stroke:#8172b3;stroke-dasharray:7.5,1.5,1.5,1.5;stroke-dashoffset:0;stroke-width:1.5;"/>
    </g>
    <g id="line2d_20"/>
    <g id="text_21">
     <!-- overlap_10f_3s -->
     <g style="fill:#262626;" transform="translate(673.044062 151.928112)scale(0.11 -0.11)">
      <use xlink:href="#ArialMT-6f"/>
      <use x="55.615234" xlink:href="#ArialMT-76"/>
      <use x="105.615234" xlink:href="#ArialMT-65"/>
      <use x="161.230469" xlink:href="#ArialMT-72"/>
      <use x="194.53125" xlink:href="#ArialMT-6c"/>
      <use x="216.748047" xlink:href="#ArialMT-61"/>
      <use x="272.363281" xlink:href="#ArialMT-70"/>
      <use x="327.978516" xlink:href="#ArialMT-5f"/>
      <use x="383.59375" xlink:href="#ArialMT-31"/>
      <use x="439.208984" xlink:href="#ArialMT-30"/>
      <use x="494.824219" xlink:href="#ArialMT-66"/>
      <use x="522.607422" xlink:href="#ArialMT-5f"/>
      <use x="578.222656" xlink:href="#ArialMT-33"/>
      <use x="633.837891" xlink:href="#ArialMT-73"/>
     </g>
    </g>
   </g>
  </g>
 </g>
 <defs>
  <clipPath id="p9061b70caa">
   <rect height="458.4888" width="652.86" x="105.3" y="71.4528"/>
  </clipPath>
 </defs>
</svg>
