<?xml version="1.0" encoding="utf-8" standalone="no"?>
<!DOCTYPE svg PUBLIC "-//W3C//DTD SVG 1.1//EN"
  "http://www.w3.org/Graphics/SVG/1.1/DTD/svg11.dtd">
<svg height="595.44pt" version="1.1" viewBox="0 0 842.4 595.44" width="842.4pt" xmlns="http://www.w3.org/2000/svg" xmlns:xlink="http://www.w3.org/1999/xlink">
 <metadata>
  <rdf:RDF xmlns:cc="http://creativecommons.org/ns#" xmlns:dc="http://purl.org/dc/elements/1.1/" xmlns:rdf="http://www.w3.org/1999/02/22-rdf-syntax-ns#">
   <cc:Work>
    <dc:type rdf:resource="http://purl.org/dc/dcmitype/StillImage"/>
    <dc:date>2021-06-04T22:03:17.636955</dc:date>
    <dc:format>image/svg+xml</dc:format>
    <dc:creator>
     <cc:Agent>
      <dc:title>Matplotlib v3.4.1, https://matplotlib.org/</dc:title>
     </cc:Agent>
    </dc:creator>
   </cc:Work>
  </rdf:RDF>
 </metadata>
 <defs>
  <style type="text/css">*{stroke-linecap:butt;stroke-linejoin:round;}</style>
 </defs>
 <g id="figure_1">
  <g id="patch_1">
   <path d="M 0 595.44 
L 842.4 595.44 
L 842.4 0 
L 0 0 
z
" style="fill:#ffffff;"/>
  </g>
  <g id="axes_1">
   <g id="patch_2">
    <path d="M 105.3 529.9416 
L 758.16 529.9416 
L 758.16 71.4528 
L 105.3 71.4528 
z
" style="fill:#ffffff;"/>
   </g>
   <g id="matplotlib.axis_1">
    <g id="xtick_1">
     <g id="text_1">
      <!-- 0 -->
      <g style="fill:#262626;" transform="translate(131.916939 547.315194)scale(0.11 -0.11)">
       <defs>
        <path d="M 266 2259 
Q 266 3072 433 3567 
Q 600 4063 929 4331 
Q 1259 4600 1759 4600 
Q 2128 4600 2406 4451 
Q 2684 4303 2865 4023 
Q 3047 3744 3150 3342 
Q 3253 2941 3253 2259 
Q 3253 1453 3087 958 
Q 2922 463 2592 192 
Q 2263 -78 1759 -78 
Q 1097 -78 719 397 
Q 266 969 266 2259 
z
M 844 2259 
Q 844 1131 1108 757 
Q 1372 384 1759 384 
Q 2147 384 2411 759 
Q 2675 1134 2675 2259 
Q 2675 3391 2411 3762 
Q 2147 4134 1753 4134 
Q 1366 4134 1134 3806 
Q 844 3388 844 2259 
z
" id="ArialMT-30" transform="scale(0.015625)"/>
       </defs>
       <use xlink:href="#ArialMT-30"/>
      </g>
     </g>
    </g>
    <g id="xtick_2">
     <g id="text_2">
      <!-- 25 -->
      <g style="fill:#262626;" transform="translate(201.950676 547.315194)scale(0.11 -0.11)">
       <defs>
        <path d="M 3222 541 
L 3222 0 
L 194 0 
Q 188 203 259 391 
Q 375 700 629 1000 
Q 884 1300 1366 1694 
Q 2113 2306 2375 2664 
Q 2638 3022 2638 3341 
Q 2638 3675 2398 3904 
Q 2159 4134 1775 4134 
Q 1369 4134 1125 3890 
Q 881 3647 878 3216 
L 300 3275 
Q 359 3922 746 4261 
Q 1134 4600 1788 4600 
Q 2447 4600 2831 4234 
Q 3216 3869 3216 3328 
Q 3216 3053 3103 2787 
Q 2991 2522 2730 2228 
Q 2469 1934 1863 1422 
Q 1356 997 1212 845 
Q 1069 694 975 541 
L 3222 541 
z
" id="ArialMT-32" transform="scale(0.015625)"/>
        <path d="M 266 1200 
L 856 1250 
Q 922 819 1161 601 
Q 1400 384 1738 384 
Q 2144 384 2425 690 
Q 2706 997 2706 1503 
Q 2706 1984 2436 2262 
Q 2166 2541 1728 2541 
Q 1456 2541 1237 2417 
Q 1019 2294 894 2097 
L 366 2166 
L 809 4519 
L 3088 4519 
L 3088 3981 
L 1259 3981 
L 1013 2750 
Q 1425 3038 1878 3038 
Q 2478 3038 2890 2622 
Q 3303 2206 3303 1553 
Q 3303 931 2941 478 
Q 2500 -78 1738 -78 
Q 1113 -78 717 272 
Q 322 622 266 1200 
z
" id="ArialMT-35" transform="scale(0.015625)"/>
       </defs>
       <use xlink:href="#ArialMT-32"/>
       <use x="55.615234" xlink:href="#ArialMT-35"/>
      </g>
     </g>
    </g>
    <g id="xtick_3">
     <g id="text_3">
      <!-- 50 -->
      <g style="fill:#262626;" transform="translate(275.042928 547.315194)scale(0.11 -0.11)">
       <use xlink:href="#ArialMT-35"/>
       <use x="55.615234" xlink:href="#ArialMT-30"/>
      </g>
     </g>
    </g>
    <g id="xtick_4">
     <g id="text_4">
      <!-- 75 -->
      <g style="fill:#262626;" transform="translate(348.135181 547.315194)scale(0.11 -0.11)">
       <defs>
        <path d="M 303 3981 
L 303 4522 
L 3269 4522 
L 3269 4084 
Q 2831 3619 2401 2847 
Q 1972 2075 1738 1259 
Q 1569 684 1522 0 
L 944 0 
Q 953 541 1156 1306 
Q 1359 2072 1739 2783 
Q 2119 3494 2547 3981 
L 303 3981 
z
" id="ArialMT-37" transform="scale(0.015625)"/>
       </defs>
       <use xlink:href="#ArialMT-37"/>
       <use x="55.615234" xlink:href="#ArialMT-35"/>
      </g>
     </g>
    </g>
    <g id="xtick_5">
     <g id="text_5">
      <!-- 100 -->
      <g style="fill:#262626;" transform="translate(418.168918 547.315194)scale(0.11 -0.11)">
       <defs>
        <path d="M 2384 0 
L 1822 0 
L 1822 3584 
Q 1619 3391 1289 3197 
Q 959 3003 697 2906 
L 697 3450 
Q 1169 3672 1522 3987 
Q 1875 4303 2022 4600 
L 2384 4600 
L 2384 0 
z
" id="ArialMT-31" transform="scale(0.015625)"/>
       </defs>
       <use xlink:href="#ArialMT-31"/>
       <use x="55.615234" xlink:href="#ArialMT-30"/>
       <use x="111.230469" xlink:href="#ArialMT-30"/>
      </g>
     </g>
    </g>
    <g id="xtick_6">
     <g id="text_6">
      <!-- 125 -->
      <g style="fill:#262626;" transform="translate(491.261171 547.315194)scale(0.11 -0.11)">
       <use xlink:href="#ArialMT-31"/>
       <use x="55.615234" xlink:href="#ArialMT-32"/>
       <use x="111.230469" xlink:href="#ArialMT-35"/>
      </g>
     </g>
    </g>
    <g id="xtick_7">
     <g id="text_7">
      <!-- 150 -->
      <g style="fill:#262626;" transform="translate(564.353423 547.315194)scale(0.11 -0.11)">
       <use xlink:href="#ArialMT-31"/>
       <use x="55.615234" xlink:href="#ArialMT-35"/>
       <use x="111.230469" xlink:href="#ArialMT-30"/>
      </g>
     </g>
    </g>
    <g id="xtick_8">
     <g id="text_8">
      <!-- 175 -->
      <g style="fill:#262626;" transform="translate(637.445676 547.315194)scale(0.11 -0.11)">
       <use xlink:href="#ArialMT-31"/>
       <use x="55.615234" xlink:href="#ArialMT-37"/>
       <use x="111.230469" xlink:href="#ArialMT-35"/>
      </g>
     </g>
    </g>
    <g id="xtick_9">
     <g id="text_9">
      <!-- 200 -->
      <g style="fill:#262626;" transform="translate(710.537928 547.315194)scale(0.11 -0.11)">
       <use xlink:href="#ArialMT-32"/>
       <use x="55.615234" xlink:href="#ArialMT-30"/>
       <use x="111.230469" xlink:href="#ArialMT-30"/>
      </g>
     </g>
    </g>
   </g>
   <g id="matplotlib.axis_2">
    <g id="ytick_1">
     <g id="text_10">
      <!-- −25 -->
      <g style="fill:#262626;" transform="translate(77.14125 533.878397)scale(0.11 -0.11)">
       <defs>
        <path d="M 3381 1997 
L 356 1997 
L 356 2522 
L 3381 2522 
L 3381 1997 
z
" id="ArialMT-2212" transform="scale(0.015625)"/>
       </defs>
       <use xlink:href="#ArialMT-2212"/>
       <use x="58.398438" xlink:href="#ArialMT-32"/>
       <use x="114.013672" xlink:href="#ArialMT-35"/>
      </g>
     </g>
    </g>
    <g id="ytick_2">
     <g id="text_11">
      <!-- −20 -->
      <g style="fill:#262626;" transform="translate(77.14125 442.180637)scale(0.11 -0.11)">
       <use xlink:href="#ArialMT-2212"/>
       <use x="58.398438" xlink:href="#ArialMT-32"/>
       <use x="114.013672" xlink:href="#ArialMT-30"/>
      </g>
     </g>
    </g>
    <g id="ytick_3">
     <g id="text_12">
      <!-- −15 -->
      <g style="fill:#262626;" transform="translate(77.14125 350.482877)scale(0.11 -0.11)">
       <use xlink:href="#ArialMT-2212"/>
       <use x="58.398438" xlink:href="#ArialMT-31"/>
       <use x="114.013672" xlink:href="#ArialMT-35"/>
      </g>
     </g>
    </g>
    <g id="ytick_4">
     <g id="text_13">
      <!-- −10 -->
      <g style="fill:#262626;" transform="translate(77.14125 258.785117)scale(0.11 -0.11)">
       <use xlink:href="#ArialMT-2212"/>
       <use x="58.398438" xlink:href="#ArialMT-31"/>
       <use x="114.013672" xlink:href="#ArialMT-30"/>
      </g>
     </g>
    </g>
    <g id="ytick_5">
     <g id="text_14">
      <!-- −5 -->
      <g style="fill:#262626;" transform="translate(83.258281 167.087357)scale(0.11 -0.11)">
       <use xlink:href="#ArialMT-2212"/>
       <use x="58.398438" xlink:href="#ArialMT-35"/>
      </g>
     </g>
    </g>
    <g id="ytick_6">
     <g id="text_15">
      <!-- 0 -->
      <g style="fill:#262626;" transform="translate(89.682969 75.389597)scale(0.11 -0.11)">
       <use xlink:href="#ArialMT-30"/>
      </g>
     </g>
    </g>
   </g>
   <g id="line2d_1">
    <path clip-path="url(#p1c90cf6a54)" d="M 134.975455 458.303809 
L 137.899145 459.626785 
L 140.822835 460.240018 
L 143.746525 460.235086 
L 146.670215 464.800455 
L 149.593905 463.419483 
L 152.517595 463.827838 
L 155.441285 465.671455 
L 158.364975 466.395085 
L 161.288665 468.619003 
L 164.212356 466.421494 
L 167.136046 466.740301 
L 170.059736 463.758228 
L 172.983426 465.643751 
L 175.907116 463.425919 
L 178.830806 479.556944 
L 181.754496 481.339451 
L 184.678186 432.032316 
L 187.601876 439.814998 
L 190.525567 560.127766 
L 193.449257 544.354131 
L 196.372947 496.738975 
L 199.296637 464.950274 
L 202.220327 352.622792 
L 205.144017 412.095336 
L 208.067707 552.168505 
L 210.991397 501.872348 
L 213.915087 546.456285 
L 216.838777 534.431902 
L 219.762468 513.459412 
L 222.686158 472.346603 
L 225.609848 468.828568 
L 228.533538 494.397105 
L 231.457228 493.355193 
L 234.380918 388.149657 
L 237.304608 505.248715 
L 240.228298 595.320189 
L 243.151988 545.590846 
L 246.075678 437.33849 
L 248.999369 399.447821 
L 251.923059 443.111436 
L 254.846749 468.974049 
L 257.770439 498.465304 
L 260.694129 422.624187 
L 263.617819 535.13297 
L 266.541509 445.628906 
L 269.465199 480.438368 
L 272.388889 535.649518 
L 275.312579 537.185382 
L 278.23627 520.962674 
L 281.15996 496.759928 
L 284.08365 441.443103 
L 287.00734 427.466772 
L 289.93103 450.998323 
L 292.85472 394.5726 
L 295.77841 367.393307 
L 298.7021 460.235051 
L 301.62579 478.006074 
L 304.549481 452.369991 
L 307.473171 422.891993 
L 310.396861 440.19516 
L 313.320551 379.796942 
L 316.244241 434.656789 
L 319.167931 498.785196 
L 322.091621 539.001994 
L 325.015311 429.299545 
L 327.939001 463.591059 
L 330.862691 490.341008 
L 333.786382 445.446345 
L 336.710072 405.796327 
L 339.633762 486.227649 
L 342.557452 507.204442 
L 345.481142 438.798132 
L 348.404832 426.252269 
L 351.328522 401.293782 
L 354.252212 479.611373 
L 357.175902 575.338959 
L 360.099592 565.739875 
L 363.023283 579.870958 
L 365.946973 493.797059 
L 368.870663 544.378792 
L 371.794353 514.791622 
L 374.718043 454.673733 
L 377.641733 444.275288 
L 380.565423 410.834694 
L 383.489113 307.697679 
L 386.412803 290.059072 
L 389.336494 406.221508 
L 395.183874 518.405013 
L 398.107564 460.972043 
L 401.031254 436.290491 
L 403.954944 456.378375 
L 406.878634 510.642759 
L 409.802324 468.674551 
L 412.726014 479.571286 
L 415.649704 561.644531 
L 418.573395 523.744837 
L 421.497085 544.218269 
L 424.420775 583.406133 
L 427.344465 483.881546 
L 430.268155 474.534562 
L 433.191845 436.523143 
L 436.115535 364.732472 
L 439.039225 424.214863 
L 441.962915 475.374605 
L 444.886605 419.300884 
L 447.810296 313.479002 
L 450.733986 353.222417 
L 453.657676 444.781272 
L 456.581366 441.810498 
L 459.505056 573.382462 
L 462.428746 505.067029 
L 465.352436 461.709909 
L 468.276126 400.714549 
L 471.199816 425.708786 
L 474.123506 498.023088 
L 477.047197 462.192982 
L 479.970887 394.184638 
L 482.894577 464.452195 
L 485.818267 437.737086 
L 488.741957 432.586713 
L 491.665647 415.254547 
L 494.589337 430.051788 
L 497.513027 483.846531 
L 500.436717 424.896727 
L 503.360408 356.893647 
L 506.284098 432.953617 
L 509.207788 529.846944 
L 512.131478 486.437634 
L 515.055168 420.95393 
L 517.978858 336.035401 
L 520.902548 447.084455 
L 523.826238 495.146095 
L 526.749928 443.074637 
L 529.673618 514.162928 
L 532.597309 517.309267 
L 535.520999 386.066883 
L 538.444689 364.733819 
L 541.368379 537.01475 
L 544.292069 527.249091 
L 547.215759 416.28551 
L 550.139449 484.944236 
L 553.063139 412.13238 
L 555.986829 487.078991 
L 558.910519 480.781801 
L 561.83421 469.105539 
L 564.7579 484.641975 
L 567.68159 442.650645 
L 570.60528 457.833539 
L 573.52897 455.533365 
L 576.45266 463.148983 
L 582.30004 424.102158 
L 585.22373 435.196809 
L 588.147421 426.71278 
L 591.071111 410.586792 
L 593.994801 412.008481 
L 596.918491 358.820569 
L 599.842181 417.166725 
L 605.689561 405.948 
L 608.613251 481.476642 
L 611.536941 529.499139 
L 614.460631 440.982873 
L 617.384322 317.728398 
L 620.308012 431.124552 
L 623.231702 532.366653 
L 626.155392 574.498392 
L 629.079082 565.223571 
L 632.002772 538.652509 
L 634.926462 505.91092 
L 637.850152 535.662076 
L 640.773842 376.098935 
L 643.697532 323.487824 
L 646.621223 375.269946 
L 649.544913 423.129332 
L 652.468603 465.239628 
L 655.392293 499.724791 
L 658.315983 482.715735 
L 661.239673 521.307297 
L 664.163363 435.209822 
L 667.087053 515.561075 
L 670.010743 517.16459 
L 672.934433 499.84904 
L 675.858124 517.532544 
L 678.781814 460.056758 
L 681.705504 494.965423 
L 684.629194 552.770545 
L 687.552884 534.558285 
L 689.368628 596.44 
M 691.734217 596.44 
L 693.400264 546.418576 
L 696.323954 534.043205 
L 699.247644 500.236058 
L 702.171335 484.883826 
L 705.095025 489.220846 
L 708.018715 481.384085 
L 710.942405 483.834218 
L 713.866095 484.38879 
L 716.789785 484.773989 
L 719.713475 482.013793 
L 722.637165 483.058434 
L 728.484545 485.849761 
L 728.484545 485.849761 
" style="fill:none;stroke:#4c72b0;stroke-linecap:round;stroke-width:1.5;"/>
   </g>
   <g id="line2d_2">
    <path clip-path="url(#p1c90cf6a54)" d="M 134.975455 433.865823 
L 137.899145 437.964595 
L 140.822835 437.763776 
L 143.746525 436.791963 
L 146.670215 442.92968 
L 149.593905 440.049993 
L 152.517595 438.914755 
L 155.441285 437.495095 
L 158.364975 437.871759 
L 161.288665 439.16738 
L 164.212356 434.469647 
L 167.136046 433.41906 
L 170.059736 428.449428 
L 172.983426 431.758983 
L 175.907116 425.409463 
L 178.830806 444.190042 
L 181.754496 444.199941 
L 184.678186 414.641139 
L 187.601876 400.261804 
L 190.525567 534.294186 
L 193.449257 516.337804 
L 196.372947 476.081584 
L 199.296637 433.813004 
L 202.220327 340.806627 
L 205.144017 414.26626 
L 208.067707 535.622234 
L 210.991397 504.870128 
L 213.915087 517.665257 
L 216.838777 528.180536 
L 219.762468 501.604822 
L 222.686158 466.015797 
L 225.609848 458.675226 
L 228.533538 471.475218 
L 231.457228 471.248898 
L 234.380918 377.392492 
L 237.304608 480.813457 
L 240.228298 572.503102 
L 243.151988 538.961837 
L 246.075678 430.493584 
L 248.999369 405.291392 
L 251.923059 427.650521 
L 257.770439 500.862723 
L 260.694129 430.955949 
L 263.617819 539.630688 
L 266.541509 455.129452 
L 269.465199 482.278451 
L 272.388889 556.937598 
L 275.312579 556.967051 
L 278.23627 540.96909 
L 281.15996 523.30451 
L 284.08365 439.398912 
L 287.00734 420.631311 
L 289.93103 456.010141 
L 292.85472 399.45069 
L 295.77841 349.737665 
L 298.7021 451.913188 
L 301.62579 479.29316 
L 304.549481 447.207829 
L 307.473171 417.423617 
L 310.396861 409.164403 
L 313.320551 373.078699 
L 316.244241 416.072728 
L 319.167931 496.377633 
L 322.091621 540.766626 
L 325.015311 431.138614 
L 327.939001 480.137715 
L 330.862691 473.179475 
L 333.786382 424.592752 
L 336.710072 419.919994 
L 339.633762 480.310936 
L 342.557452 473.224949 
L 345.481142 416.94782 
L 348.404832 464.291532 
L 351.328522 488.877763 
L 354.252212 479.419997 
L 357.175902 499.885559 
L 360.099592 432.009229 
L 363.023283 372.481696 
L 365.946973 414.827268 
L 368.870663 463.718106 
L 371.794353 430.757053 
L 374.718043 420.93686 
L 377.641733 390.354371 
L 380.565423 400.879654 
L 383.489113 300.846284 
L 386.412803 308.8623 
L 392.260184 444.295646 
L 395.183874 507.177193 
L 398.107564 447.156654 
L 401.031254 419.850209 
L 403.954944 470.187642 
L 406.878634 499.364498 
L 409.802324 503.817232 
L 412.726014 529.921137 
L 415.649704 573.096257 
L 418.573395 525.185485 
L 421.497085 554.176108 
L 424.420775 578.001456 
L 427.344465 462.5963 
L 433.191845 406.369753 
L 436.115535 349.422654 
L 439.039225 455.87274 
L 441.962915 499.819902 
L 444.886605 407.781542 
L 447.810296 290.022133 
L 450.733986 362.940311 
L 453.657676 429.458808 
L 456.581366 472.758841 
L 459.505056 579.508671 
L 462.428746 501.245263 
L 465.352436 471.167745 
L 468.276126 400.625875 
L 471.199816 439.503887 
L 474.123506 467.186645 
L 477.047197 489.22347 
L 479.970887 387.141116 
L 482.894577 460.163377 
L 485.818267 454.010724 
L 488.741957 440.08207 
L 491.665647 434.625307 
L 494.589337 435.112333 
L 497.513027 487.108234 
L 500.436717 425.329429 
L 503.360408 360.317954 
L 506.284098 433.125858 
L 509.207788 515.716421 
L 512.131478 469.319056 
L 515.055168 419.04742 
L 517.978858 350.948565 
L 520.902548 456.310164 
L 523.826238 497.071459 
L 526.749928 456.242723 
L 529.673618 523.067241 
L 532.597309 508.461236 
L 535.520999 394.084735 
L 538.444689 390.473863 
L 541.368379 491.81856 
L 544.292069 504.363408 
L 547.215759 350.83217 
L 550.139449 434.192116 
L 553.063139 387.322242 
L 555.986829 375.060171 
L 558.910519 359.148156 
L 561.83421 315.162236 
L 564.7579 403.13341 
L 567.68159 393.631045 
L 570.60528 580.292151 
L 573.52897 307.498328 
L 576.45266 367.548338 
L 579.37635 380.840918 
L 582.30004 330.099396 
L 585.22373 437.115843 
L 588.147421 431.441505 
L 591.071111 422.937047 
L 593.994801 417.111211 
L 596.918491 345.703466 
L 599.842181 448.427229 
L 602.765871 414.11749 
L 605.689561 440.995256 
L 608.613251 530.673065 
L 611.536941 547.020406 
L 614.460631 470.239867 
L 617.384322 418.430479 
L 623.231702 552.464471 
L 625.801966 596.44 
M 626.749827 596.44 
L 629.079082 572.745723 
L 632.002772 573.749821 
L 634.926462 541.196074 
L 637.850152 519.940876 
L 640.773842 380.9496 
L 643.697532 311.279972 
L 646.621223 381.403045 
L 649.544913 436.654457 
L 652.468603 463.945021 
L 655.392293 527.600464 
L 658.315983 457.790864 
L 661.239673 514.819746 
L 664.163363 422.057722 
L 667.087053 516.363585 
L 670.010743 520.312713 
L 672.934433 486.403039 
L 675.858124 508.686926 
L 678.781814 475.997352 
L 681.705504 492.578744 
L 684.629194 542.621611 
L 687.552884 505.766103 
L 690.06108 596.44 
M 691.162417 596.44 
L 693.400264 547.429181 
L 696.323954 527.177487 
L 699.247644 493.705727 
L 702.171335 457.972235 
L 705.095025 463.013016 
L 708.018715 459.746766 
L 710.942405 461.778994 
L 713.866095 462.330698 
L 716.789785 462.45687 
L 719.713475 461.598218 
L 722.637165 463.350852 
L 725.560855 464.034605 
L 728.484545 462.078737 
L 728.484545 462.078737 
" style="fill:none;stroke:#dd8452;stroke-dasharray:6,2.25;stroke-dashoffset:0;stroke-width:1.5;"/>
   </g>
   <g id="line2d_3">
    <path clip-path="url(#p1c90cf6a54)" d="M 134.975455 427.264588 
L 137.899145 430.436252 
L 140.822835 428.255639 
L 143.746525 428.007911 
L 146.670215 437.325127 
L 149.593905 432.418389 
L 152.517595 433.952294 
L 155.441285 448.289933 
L 158.364975 449.172826 
L 161.288665 437.446158 
L 164.212356 432.32041 
L 167.136046 423.23623 
L 170.059736 403.781658 
L 172.983426 406.279539 
L 175.907116 400.050105 
L 178.830806 410.214885 
L 181.754496 411.67813 
L 184.678186 340.606332 
L 187.601876 383.383328 
L 190.525567 423.111037 
L 193.449257 430.550287 
L 196.372947 428.952474 
L 199.296637 410.320315 
L 202.220327 402.313691 
L 205.144017 376.943735 
L 208.067707 317.026386 
L 210.991397 506.89557 
L 213.915087 561.545607 
L 216.838777 429.368805 
L 219.762468 408.371758 
L 222.686158 427.889889 
L 225.609848 427.236324 
L 228.533538 468.748743 
L 231.457228 478.091075 
L 234.380918 360.927654 
L 237.304608 491.874213 
L 240.228298 570.081407 
L 243.151988 545.621384 
L 246.075678 411.937297 
L 248.999369 429.204014 
L 251.923059 387.199043 
L 254.846749 491.405062 
L 257.770439 534.146431 
L 260.694129 434.00242 
L 263.617819 531.394631 
L 266.541509 476.374191 
L 269.465199 515.933367 
L 272.388889 562.561249 
L 278.23627 519.504781 
L 281.15996 450.152439 
L 284.08365 412.962523 
L 287.00734 347.764011 
L 289.93103 435.337743 
L 292.85472 371.882071 
L 295.77841 379.698858 
L 298.7021 489.382313 
L 301.62579 529.316894 
L 304.549481 478.096357 
L 307.473171 446.640315 
L 310.396861 453.6512 
L 313.320551 411.518972 
L 316.244241 431.695284 
L 319.167931 519.285142 
L 322.091621 562.529278 
L 325.015311 453.392279 
L 327.939001 485.99993 
L 330.862691 497.050821 
L 333.786382 457.947749 
L 336.710072 451.814055 
L 339.633762 522.292401 
L 342.557452 544.33839 
L 345.481142 465.938771 
L 348.404832 483.618707 
L 351.328522 469.265432 
L 354.252212 525.117904 
L 356.6691 596.44 
M 357.519058 596.44 
L 360.099592 483.973194 
L 363.023283 350.015126 
L 365.946973 382.534471 
L 368.870663 488.733541 
L 371.794353 380.153667 
L 374.718043 381.330112 
L 380.565423 327.985682 
L 383.489113 279.980518 
L 386.412803 331.29856 
L 389.336494 392.724996 
L 392.260184 447.650745 
L 395.183874 481.647134 
L 398.107564 490.132633 
L 401.031254 431.316906 
L 403.954944 495.984319 
L 406.878634 509.436056 
L 409.802324 512.010299 
L 412.726014 509.47345 
L 415.184289 596.44 
M 419.759344 596.44 
L 421.497085 583.899245 
L 424.420775 592.722545 
L 427.344465 488.041848 
L 430.268155 459.262959 
L 433.191845 369.835081 
L 436.115535 339.34291 
L 439.039225 392.955828 
L 441.962915 420.028257 
L 444.886605 404.017073 
L 447.810296 364.71054 
L 450.733986 382.647875 
L 453.657676 425.078658 
L 456.581366 500.140108 
L 458.914938 596.44 
M 460.161669 596.44 
L 462.428746 512.358524 
L 465.352436 483.647705 
L 468.276126 411.261519 
L 471.199816 383.749638 
L 474.123506 386.919623 
L 477.047197 450.6034 
L 479.970887 389.647812 
L 482.894577 448.491802 
L 485.818267 440.623384 
L 488.741957 447.508097 
L 491.665647 410.094834 
L 494.589337 409.427767 
L 497.513027 428.519737 
L 500.436717 345.19108 
L 503.360408 348.743081 
L 506.284098 314.209051 
L 509.207788 461.636661 
L 512.131478 449.295116 
L 515.055168 382.682541 
L 517.978858 331.948365 
L 520.902548 417.21762 
L 523.826238 440.678163 
L 526.749928 490.933358 
L 529.673618 491.789946 
L 532.597309 420.071037 
L 535.520999 383.847687 
L 538.444689 398.063701 
L 541.368379 499.036806 
L 544.292069 504.998679 
L 547.215759 389.961512 
L 550.139449 471.473889 
L 553.063139 405.935862 
L 555.986829 328.867054 
L 558.910519 403.948443 
L 561.83421 322.154617 
L 564.7579 358.949155 
L 567.68159 434.63727 
L 570.60528 431.785008 
L 573.52897 419.095167 
L 576.45266 476.500224 
L 579.37635 377.317146 
L 582.30004 366.78798 
L 585.22373 454.746736 
L 588.147421 361.67598 
L 591.071111 301.288938 
L 593.994801 283.123726 
L 596.918491 293.621829 
L 599.842181 347.920983 
L 602.765871 349.775234 
L 605.689561 452.419417 
L 608.613251 500.221086 
L 611.536941 520.50031 
L 614.460631 436.17978 
L 617.384322 364.262027 
L 620.308012 452.330079 
L 623.231702 551.63849 
L 626.155392 583.015827 
L 629.079082 575.144926 
L 632.002772 593.535198 
L 634.926462 544.214387 
L 637.850152 522.188756 
L 640.773842 386.683369 
L 643.697532 327.403599 
L 646.621223 374.612708 
L 649.544913 409.189449 
L 652.468603 360.918384 
L 655.392293 506.876226 
L 658.315983 485.470649 
L 661.239673 442.890188 
L 664.163363 420.857211 
L 667.087053 458.070144 
L 670.010743 395.127242 
L 672.934433 428.504311 
L 675.858124 562.936024 
L 678.781814 499.035337 
L 681.705504 475.550099 
L 684.629194 479.789875 
L 687.552884 526.95421 
L 690.476574 571.741484 
L 693.400264 541.120308 
L 696.323954 538.126971 
L 699.247644 499.724616 
L 702.171335 467.770565 
L 705.095025 465.40099 
L 708.018715 464.544087 
L 710.942405 471.354992 
L 713.866095 470.289224 
L 716.789785 472.410301 
L 719.713475 467.428251 
L 722.637165 474.505074 
L 725.560855 473.280497 
L 728.484545 469.146115 
L 728.484545 469.146115 
" style="fill:none;stroke:#55a868;stroke-dasharray:1.5,1.5;stroke-dashoffset:0;stroke-width:1.5;"/>
   </g>
   <g id="line2d_4">
    <path clip-path="url(#p1c90cf6a54)" d="M 134.975455 434.731996 
L 137.899145 438.891108 
L 140.822835 438.734258 
L 143.746525 437.592864 
L 146.670215 443.959314 
L 149.593905 441.12699 
L 152.517595 440.089101 
L 155.441285 438.778753 
L 158.364975 439.342699 
L 161.288665 440.524916 
L 164.212356 435.779295 
L 167.136046 434.87328 
L 170.059736 429.676488 
L 172.983426 432.971422 
L 175.907116 426.438292 
L 178.830806 445.464885 
L 181.754496 445.911508 
L 184.678186 415.921894 
L 187.601876 401.864864 
L 190.525567 536.104642 
L 193.449257 519.420235 
L 199.296637 435.121742 
L 202.220327 342.987835 
L 205.144017 414.414854 
L 208.067707 541.158541 
L 210.991397 502.83685 
L 213.915087 524.878187 
L 216.838777 523.581131 
L 219.762468 503.204839 
L 222.686158 466.688181 
L 225.609848 458.627514 
L 228.533538 472.493064 
L 231.457228 473.147363 
L 234.380918 378.242294 
L 237.304608 485.353711 
L 240.228298 576.996238 
L 243.151988 540.970629 
L 246.075678 432.210224 
L 248.999369 406.236969 
L 251.923059 429.324555 
L 257.770439 499.099 
L 260.694129 431.627388 
L 263.617819 540.136078 
L 266.541509 451.233108 
L 269.465199 485.22453 
L 272.388889 553.533177 
L 275.312579 557.480206 
L 278.23627 539.735803 
L 281.15996 517.641296 
L 284.08365 438.567859 
L 287.00734 430.755968 
L 289.93103 460.26279 
L 292.85472 398.494653 
L 295.77841 351.910985 
L 298.7021 453.739839 
L 301.62579 482.21157 
L 304.549481 452.346169 
L 307.473171 420.376972 
L 310.396861 412.908199 
L 313.320551 372.574008 
L 316.244241 415.70229 
L 319.167931 499.598619 
L 322.091621 542.372764 
L 325.015311 430.283215 
L 327.939001 466.542595 
L 330.862691 484.169256 
L 333.786382 421.600639 
L 336.710072 427.327657 
L 339.633762 497.340875 
L 342.557452 482.683274 
L 345.481142 414.291235 
L 348.404832 385.02686 
L 351.328522 486.912801 
L 354.252212 468.002132 
L 357.175902 571.264953 
L 360.099592 467.980409 
L 363.023283 513.439893 
L 365.946973 427.973526 
L 368.870663 484.23264 
L 371.794353 450.824508 
L 374.718043 424.627557 
L 377.641733 390.471484 
L 380.565423 405.350438 
L 383.489113 294.47763 
L 386.412803 311.524552 
L 392.260184 442.193668 
L 395.183874 507.941364 
L 398.107564 454.281329 
L 401.031254 427.672384 
L 403.954944 467.072121 
L 406.878634 493.300029 
L 409.802324 504.544464 
L 412.726014 526.197244 
L 415.649704 572.005828 
L 418.573395 524.82834 
L 421.497085 556.328947 
L 424.420775 582.79311 
L 427.344465 465.585579 
L 433.191845 402.892224 
L 436.115535 349.609149 
L 439.039225 456.611726 
L 441.962915 499.537754 
L 444.886605 409.878973 
L 447.810296 292.740038 
L 450.733986 361.358852 
L 453.657676 436.091735 
L 456.581366 474.814751 
L 459.505056 579.459349 
L 462.428746 499.315386 
L 465.352436 473.700221 
L 468.276126 403.003705 
L 471.199816 447.322563 
L 474.123506 475.928022 
L 477.047197 496.559948 
L 479.970887 386.267772 
L 482.894577 461.12487 
L 485.818267 454.845275 
L 488.741957 443.131129 
L 491.665647 438.072648 
L 494.589337 437.474806 
L 497.513027 488.482385 
L 503.360408 361.510507 
L 506.284098 432.040256 
L 509.207788 517.421552 
L 512.131478 467.452982 
L 515.055168 429.278347 
L 517.978858 352.132216 
L 520.902548 462.839621 
L 523.826238 504.57892 
L 526.749928 454.749675 
L 529.673618 514.618681 
L 532.597309 505.742981 
L 535.520999 391.394429 
L 538.444689 381.695337 
L 541.368379 495.034719 
L 544.292069 513.601255 
L 547.215759 352.702791 
L 550.139449 442.603387 
L 553.063139 360.505604 
L 555.986829 420.474286 
L 558.910519 442.358213 
L 561.83421 389.246103 
L 564.7579 396.946162 
L 567.68159 342.306916 
L 570.60528 379.670315 
L 573.52897 409.75364 
L 576.45266 421.035014 
L 579.37635 398.04761 
L 582.30004 355.180034 
L 585.22373 467.744855 
L 588.147421 409.057505 
L 591.071111 397.923571 
L 593.994801 431.70228 
L 596.918491 368.269659 
L 599.842181 439.327028 
L 602.765871 427.610469 
L 605.689561 445.826542 
L 608.613251 532.494714 
L 611.536941 542.125106 
L 614.460631 475.098928 
L 617.384322 416.809719 
L 623.231702 553.796891 
L 625.946457 596.44 
M 626.516457 596.44 
L 629.079082 573.146873 
L 632.002772 570.803428 
L 634.926462 543.69539 
L 637.850152 522.689633 
L 640.773842 384.509367 
L 643.697532 312.556232 
L 646.621223 385.587728 
L 649.544913 437.346185 
L 652.468603 465.207341 
L 655.392293 529.492073 
L 658.315983 457.869429 
L 661.239673 514.495832 
L 664.163363 421.836089 
L 667.087053 516.254377 
L 670.010743 521.153175 
L 672.934433 487.706216 
L 675.858124 509.453966 
L 678.781814 477.352299 
L 681.705504 491.897405 
L 684.629194 543.220397 
L 687.552884 506.478119 
L 690.041621 596.44 
M 691.17539 596.44 
L 693.400264 546.383037 
L 696.323954 526.377461 
L 699.247644 494.918725 
L 702.171335 458.229302 
L 705.095025 463.281312 
L 708.018715 460.134414 
L 710.942405 462.366972 
L 713.866095 463.333082 
L 716.789785 462.172868 
L 719.713475 461.951166 
L 722.637165 463.178506 
L 725.560855 463.908642 
L 728.484545 462.096717 
L 728.484545 462.096717 
" style="fill:none;stroke:#c44e52;stroke-dasharray:4.5,1.875,2.25,1.875;stroke-dashoffset:0;stroke-width:1.5;"/>
   </g>
   <g id="line2d_5">
    <path clip-path="url(#p1c90cf6a54)" d="M 134.975455 437.560402 
L 137.899145 441.909141 
L 140.822835 442.332818 
L 143.746525 441.436807 
L 146.670215 447.213811 
L 149.593905 446.151366 
L 152.517595 445.289006 
L 155.441285 444.948336 
L 158.364975 446.252248 
L 161.288665 448.104819 
L 164.212356 442.216824 
L 167.136046 441.147523 
L 170.059736 433.458867 
L 172.983426 437.023321 
L 175.907116 428.491229 
L 178.830806 445.807933 
L 181.754496 451.160875 
L 184.678186 411.492422 
L 187.601876 414.85812 
L 190.525567 540.122541 
L 193.449257 530.521602 
L 199.296637 450.692599 
L 202.220327 349.920558 
L 205.144017 413.870672 
L 208.067707 549.929336 
L 210.991397 505.967588 
L 213.915087 512.994214 
L 216.838777 528.688934 
L 219.762468 502.887501 
L 222.686158 466.740826 
L 225.609848 466.160159 
L 228.533538 476.345472 
L 231.457228 479.567718 
L 234.380918 381.11537 
L 237.304608 484.845838 
L 240.228298 577.688071 
L 243.151988 542.548538 
L 246.075678 430.416244 
L 248.999369 399.762291 
L 251.923059 437.713439 
L 254.846749 469.263718 
L 257.770439 502.703646 
L 260.694129 427.651536 
L 263.617819 536.440729 
L 266.541509 450.047989 
L 269.465199 481.512566 
L 272.388889 550.754232 
L 275.312579 555.576529 
L 281.15996 521.809818 
L 284.08365 446.280442 
L 287.00734 428.888006 
L 289.93103 459.660261 
L 292.85472 399.618488 
L 295.77841 353.112196 
L 298.7021 454.100377 
L 301.62579 482.321547 
L 307.473171 419.827787 
L 310.396861 426.428183 
L 313.320551 380.897375 
L 316.244241 426.887714 
L 319.167931 502.656039 
L 322.091621 534.944043 
L 325.015311 427.692427 
L 327.939001 475.208065 
L 330.862691 460.126403 
L 333.786382 447.660329 
L 336.710072 412.952519 
L 339.633762 471.078196 
L 342.557452 488.483994 
L 345.481142 462.290156 
L 348.404832 401.725819 
L 351.328522 401.45364 
L 354.252212 522.740284 
L 356.401882 596.44 
M 363.554092 596.44 
L 365.946973 506.57358 
L 368.870663 549.524758 
L 371.794353 456.616378 
L 374.718043 429.082459 
L 377.641733 442.767898 
L 380.565423 428.05307 
L 383.489113 318.794743 
L 386.412803 296.056641 
L 389.336494 392.066429 
L 392.260184 461.399078 
L 395.183874 525.250513 
L 398.107564 436.940873 
L 401.031254 444.122425 
L 403.954944 487.347567 
L 406.878634 519.41149 
L 409.802324 528.360228 
L 412.726014 523.552798 
L 415.649704 595.639695 
L 418.573395 535.570114 
L 421.497085 566.345587 
L 424.420775 585.032699 
L 427.344465 468.79866 
L 433.191845 408.631554 
L 436.115535 355.516943 
L 439.039225 453.430757 
L 441.962915 497.764482 
L 444.886605 414.023779 
L 447.810296 296.607523 
L 450.733986 360.947523 
L 453.657676 416.218594 
L 456.581366 461.805824 
L 459.505056 555.861755 
L 462.428746 485.148974 
L 465.352436 457.437846 
L 468.276126 396.676607 
L 471.199816 452.589105 
L 474.123506 486.848158 
L 477.047197 482.169734 
L 479.970887 387.295342 
L 482.894577 461.863716 
L 485.818267 453.903091 
L 488.741957 383.730959 
L 491.665647 470.970703 
L 494.589337 395.653619 
L 497.513027 469.723354 
L 500.436717 472.332506 
L 503.360408 439.938162 
L 506.284098 501.529825 
L 509.207788 442.083201 
L 512.131478 465.899104 
L 515.055168 426.130644 
L 517.978858 473.743386 
L 520.902548 438.868441 
L 523.826238 398.832979 
L 526.749928 455.954698 
L 529.673618 415.081082 
L 532.597309 377.438771 
L 535.520999 379.033855 
L 538.444689 344.656622 
L 541.368379 325.137232 
L 544.292069 350.003163 
L 547.215759 349.283626 
L 550.139449 353.217992 
L 553.063139 338.596788 
L 555.986829 330.080472 
L 558.910519 326.681491 
L 561.83421 318.475394 
L 564.7579 367.85868 
L 567.68159 385.94022 
L 570.60528 374.684557 
L 573.52897 394.697023 
L 576.45266 446.822525 
L 579.37635 420.10175 
L 582.30004 335.654278 
L 585.22373 438.264513 
L 588.147421 380.492937 
L 591.071111 381.75225 
L 593.994801 413.128538 
L 596.918491 374.585564 
L 599.842181 419.6312 
L 602.765871 417.481894 
L 605.689561 440.643602 
L 608.613251 527.526027 
L 611.536941 531.159881 
L 617.384322 396.196648 
L 620.308012 476.453246 
L 623.231702 546.395489 
L 626.155392 591.993214 
L 629.079082 571.540315 
L 632.002772 568.705542 
L 634.926462 537.65796 
L 637.850152 525.279721 
L 640.773842 386.600082 
L 643.697532 316.825916 
L 646.621223 383.91985 
L 649.544913 426.032 
L 652.468603 455.387918 
L 655.392293 519.242187 
L 658.315983 463.821822 
L 661.239673 503.047569 
L 664.163363 416.130619 
L 667.087053 508.79358 
L 670.010743 517.612613 
L 672.934433 487.75162 
L 675.858124 500.740258 
L 678.781814 462.880022 
L 681.705504 489.970291 
L 684.629194 534.851416 
L 687.552884 501.532868 
L 690.3518 596.44 
M 690.674819 596.44 
L 693.400264 538.274167 
L 696.323954 522.696069 
L 699.247644 491.828249 
L 702.171335 454.362447 
L 705.095025 462.318175 
L 708.018715 459.69671 
L 710.942405 463.717477 
L 713.866095 464.998301 
L 716.789785 464.121635 
L 719.713475 463.609144 
L 722.637165 464.401684 
L 725.560855 465.82792 
L 728.484545 464.575149 
L 728.484545 464.575149 
" style="fill:none;stroke:#8172b3;stroke-dasharray:7.5,1.5,1.5,1.5;stroke-dashoffset:0;stroke-width:1.5;"/>
   </g>
   <g id="line2d_6"/>
   <g id="line2d_7"/>
   <g id="line2d_8"/>
   <g id="line2d_9"/>
   <g id="line2d_10"/>
   <g id="patch_3">
    <path d="M 105.3 529.9416 
L 105.3 71.4528 
" style="fill:none;stroke:#262626;stroke-linecap:square;stroke-linejoin:miter;stroke-width:1.25;"/>
   </g>
   <g id="patch_4">
    <path d="M 758.16 529.9416 
L 758.16 71.4528 
" style="fill:none;stroke:#262626;stroke-linecap:square;stroke-linejoin:miter;stroke-width:1.25;"/>
   </g>
   <g id="patch_5">
    <path d="M 105.3 529.9416 
L 758.16 529.9416 
" style="fill:none;stroke:#262626;stroke-linecap:square;stroke-linejoin:miter;stroke-width:1.25;"/>
   </g>
   <g id="patch_6">
    <path d="M 105.3 71.4528 
L 758.16 71.4528 
" style="fill:none;stroke:#262626;stroke-linecap:square;stroke-linejoin:miter;stroke-width:1.25;"/>
   </g>
   <g id="text_16">
    <!-- Activations for &gt;/&lt; -->
    <g style="fill:#262626;" transform="translate(383.7075 65.4528)scale(0.12 -0.12)">
     <defs>
      <path d="M -9 0 
L 1750 4581 
L 2403 4581 
L 4278 0 
L 3588 0 
L 3053 1388 
L 1138 1388 
L 634 0 
L -9 0 
z
M 1313 1881 
L 2866 1881 
L 2388 3150 
Q 2169 3728 2063 4100 
Q 1975 3659 1816 3225 
L 1313 1881 
z
" id="ArialMT-41" transform="scale(0.015625)"/>
      <path d="M 2588 1216 
L 3141 1144 
Q 3050 572 2676 248 
Q 2303 -75 1759 -75 
Q 1078 -75 664 370 
Q 250 816 250 1647 
Q 250 2184 428 2587 
Q 606 2991 970 3192 
Q 1334 3394 1763 3394 
Q 2303 3394 2647 3120 
Q 2991 2847 3088 2344 
L 2541 2259 
Q 2463 2594 2264 2762 
Q 2066 2931 1784 2931 
Q 1359 2931 1093 2626 
Q 828 2322 828 1663 
Q 828 994 1084 691 
Q 1341 388 1753 388 
Q 2084 388 2306 591 
Q 2528 794 2588 1216 
z
" id="ArialMT-63" transform="scale(0.015625)"/>
      <path d="M 1650 503 
L 1731 6 
Q 1494 -44 1306 -44 
Q 1000 -44 831 53 
Q 663 150 594 308 
Q 525 466 525 972 
L 525 2881 
L 113 2881 
L 113 3319 
L 525 3319 
L 525 4141 
L 1084 4478 
L 1084 3319 
L 1650 3319 
L 1650 2881 
L 1084 2881 
L 1084 941 
Q 1084 700 1114 631 
Q 1144 563 1211 522 
Q 1278 481 1403 481 
Q 1497 481 1650 503 
z
" id="ArialMT-74" transform="scale(0.015625)"/>
      <path d="M 425 3934 
L 425 4581 
L 988 4581 
L 988 3934 
L 425 3934 
z
M 425 0 
L 425 3319 
L 988 3319 
L 988 0 
L 425 0 
z
" id="ArialMT-69" transform="scale(0.015625)"/>
      <path d="M 1344 0 
L 81 3319 
L 675 3319 
L 1388 1331 
Q 1503 1009 1600 663 
Q 1675 925 1809 1294 
L 2547 3319 
L 3125 3319 
L 1869 0 
L 1344 0 
z
" id="ArialMT-76" transform="scale(0.015625)"/>
      <path d="M 2588 409 
Q 2275 144 1986 34 
Q 1697 -75 1366 -75 
Q 819 -75 525 192 
Q 231 459 231 875 
Q 231 1119 342 1320 
Q 453 1522 633 1644 
Q 813 1766 1038 1828 
Q 1203 1872 1538 1913 
Q 2219 1994 2541 2106 
Q 2544 2222 2544 2253 
Q 2544 2597 2384 2738 
Q 2169 2928 1744 2928 
Q 1347 2928 1158 2789 
Q 969 2650 878 2297 
L 328 2372 
Q 403 2725 575 2942 
Q 747 3159 1072 3276 
Q 1397 3394 1825 3394 
Q 2250 3394 2515 3294 
Q 2781 3194 2906 3042 
Q 3031 2891 3081 2659 
Q 3109 2516 3109 2141 
L 3109 1391 
Q 3109 606 3145 398 
Q 3181 191 3288 0 
L 2700 0 
Q 2613 175 2588 409 
z
M 2541 1666 
Q 2234 1541 1622 1453 
Q 1275 1403 1131 1340 
Q 988 1278 909 1158 
Q 831 1038 831 891 
Q 831 666 1001 516 
Q 1172 366 1500 366 
Q 1825 366 2078 508 
Q 2331 650 2450 897 
Q 2541 1088 2541 1459 
L 2541 1666 
z
" id="ArialMT-61" transform="scale(0.015625)"/>
      <path d="M 213 1659 
Q 213 2581 725 3025 
Q 1153 3394 1769 3394 
Q 2453 3394 2887 2945 
Q 3322 2497 3322 1706 
Q 3322 1066 3130 698 
Q 2938 331 2570 128 
Q 2203 -75 1769 -75 
Q 1072 -75 642 372 
Q 213 819 213 1659 
z
M 791 1659 
Q 791 1022 1069 705 
Q 1347 388 1769 388 
Q 2188 388 2466 706 
Q 2744 1025 2744 1678 
Q 2744 2294 2464 2611 
Q 2184 2928 1769 2928 
Q 1347 2928 1069 2612 
Q 791 2297 791 1659 
z
" id="ArialMT-6f" transform="scale(0.015625)"/>
      <path d="M 422 0 
L 422 3319 
L 928 3319 
L 928 2847 
Q 1294 3394 1984 3394 
Q 2284 3394 2536 3286 
Q 2788 3178 2913 3003 
Q 3038 2828 3088 2588 
Q 3119 2431 3119 2041 
L 3119 0 
L 2556 0 
L 2556 2019 
Q 2556 2363 2490 2533 
Q 2425 2703 2258 2804 
Q 2091 2906 1866 2906 
Q 1506 2906 1245 2678 
Q 984 2450 984 1813 
L 984 0 
L 422 0 
z
" id="ArialMT-6e" transform="scale(0.015625)"/>
      <path d="M 197 991 
L 753 1078 
Q 800 744 1014 566 
Q 1228 388 1613 388 
Q 2000 388 2187 545 
Q 2375 703 2375 916 
Q 2375 1106 2209 1216 
Q 2094 1291 1634 1406 
Q 1016 1563 777 1677 
Q 538 1791 414 1992 
Q 291 2194 291 2438 
Q 291 2659 392 2848 
Q 494 3038 669 3163 
Q 800 3259 1026 3326 
Q 1253 3394 1513 3394 
Q 1903 3394 2198 3281 
Q 2494 3169 2634 2976 
Q 2775 2784 2828 2463 
L 2278 2388 
Q 2241 2644 2061 2787 
Q 1881 2931 1553 2931 
Q 1166 2931 1000 2803 
Q 834 2675 834 2503 
Q 834 2394 903 2306 
Q 972 2216 1119 2156 
Q 1203 2125 1616 2013 
Q 2213 1853 2448 1751 
Q 2684 1650 2818 1456 
Q 2953 1263 2953 975 
Q 2953 694 2789 445 
Q 2625 197 2315 61 
Q 2006 -75 1616 -75 
Q 969 -75 630 194 
Q 291 463 197 991 
z
" id="ArialMT-73" transform="scale(0.015625)"/>
      <path id="ArialMT-20" transform="scale(0.015625)"/>
      <path d="M 556 0 
L 556 2881 
L 59 2881 
L 59 3319 
L 556 3319 
L 556 3672 
Q 556 4006 616 4169 
Q 697 4388 901 4523 
Q 1106 4659 1475 4659 
Q 1713 4659 2000 4603 
L 1916 4113 
Q 1741 4144 1584 4144 
Q 1328 4144 1222 4034 
Q 1116 3925 1116 3625 
L 1116 3319 
L 1763 3319 
L 1763 2881 
L 1116 2881 
L 1116 0 
L 556 0 
z
" id="ArialMT-66" transform="scale(0.015625)"/>
      <path d="M 416 0 
L 416 3319 
L 922 3319 
L 922 2816 
Q 1116 3169 1280 3281 
Q 1444 3394 1641 3394 
Q 1925 3394 2219 3213 
L 2025 2691 
Q 1819 2813 1613 2813 
Q 1428 2813 1281 2702 
Q 1134 2591 1072 2394 
Q 978 2094 978 1738 
L 978 0 
L 416 0 
z
" id="ArialMT-72" transform="scale(0.015625)"/>
      <path d="M 3384 2003 
L 350 706 
L 350 1266 
L 2753 2263 
L 350 3250 
L 350 3809 
L 3384 2528 
L 3384 2003 
z
" id="ArialMT-3e" transform="scale(0.015625)"/>
      <path d="M 0 -78 
L 1328 4659 
L 1778 4659 
L 453 -78 
L 0 -78 
z
" id="ArialMT-2f" transform="scale(0.015625)"/>
      <path d="M 350 2003 
L 350 2528 
L 3384 3809 
L 3384 3250 
L 978 2263 
L 3384 1266 
L 3384 706 
L 350 2003 
z
" id="ArialMT-3c" transform="scale(0.015625)"/>
     </defs>
     <use xlink:href="#ArialMT-41"/>
     <use x="66.699219" xlink:href="#ArialMT-63"/>
     <use x="116.699219" xlink:href="#ArialMT-74"/>
     <use x="144.482422" xlink:href="#ArialMT-69"/>
     <use x="166.699219" xlink:href="#ArialMT-76"/>
     <use x="216.699219" xlink:href="#ArialMT-61"/>
     <use x="272.314453" xlink:href="#ArialMT-74"/>
     <use x="300.097656" xlink:href="#ArialMT-69"/>
     <use x="322.314453" xlink:href="#ArialMT-6f"/>
     <use x="377.929688" xlink:href="#ArialMT-6e"/>
     <use x="433.544922" xlink:href="#ArialMT-73"/>
     <use x="483.544922" xlink:href="#ArialMT-20"/>
     <use x="511.328125" xlink:href="#ArialMT-66"/>
     <use x="539.111328" xlink:href="#ArialMT-6f"/>
     <use x="594.726562" xlink:href="#ArialMT-72"/>
     <use x="628.027344" xlink:href="#ArialMT-20"/>
     <use x="655.810547" xlink:href="#ArialMT-3e"/>
     <use x="714.208984" xlink:href="#ArialMT-2f"/>
     <use x="741.992188" xlink:href="#ArialMT-3c"/>
    </g>
   </g>
   <g id="legend_1">
    <g id="patch_7">
     <path d="M 640.044062 158.514363 
L 750.46 158.514363 
Q 752.66 158.514363 752.66 156.314363 
L 752.66 79.1528 
Q 752.66 76.9528 750.46 76.9528 
L 640.044062 76.9528 
Q 637.844062 76.9528 637.844062 79.1528 
L 637.844062 156.314363 
Q 637.844062 158.514363 640.044062 158.514363 
z
" style="fill:#ffffff;opacity:0.8;stroke:#cccccc;stroke-linejoin:miter;"/>
    </g>
    <g id="line2d_11">
     <path d="M 642.244062 85.376394 
L 664.244062 85.376394 
" style="fill:none;stroke:#4c72b0;stroke-linecap:round;stroke-width:1.5;"/>
    </g>
    <g id="line2d_12"/>
    <g id="text_17">
     <!-- regular -->
     <g style="fill:#262626;" transform="translate(673.044062 89.226394)scale(0.11 -0.11)">
      <defs>
       <path d="M 2694 1069 
L 3275 997 
Q 3138 488 2766 206 
Q 2394 -75 1816 -75 
Q 1088 -75 661 373 
Q 234 822 234 1631 
Q 234 2469 665 2931 
Q 1097 3394 1784 3394 
Q 2450 3394 2872 2941 
Q 3294 2488 3294 1666 
Q 3294 1616 3291 1516 
L 816 1516 
Q 847 969 1125 678 
Q 1403 388 1819 388 
Q 2128 388 2347 550 
Q 2566 713 2694 1069 
z
M 847 1978 
L 2700 1978 
Q 2663 2397 2488 2606 
Q 2219 2931 1791 2931 
Q 1403 2931 1139 2672 
Q 875 2413 847 1978 
z
" id="ArialMT-65" transform="scale(0.015625)"/>
       <path d="M 319 -275 
L 866 -356 
Q 900 -609 1056 -725 
Q 1266 -881 1628 -881 
Q 2019 -881 2231 -725 
Q 2444 -569 2519 -288 
Q 2563 -116 2559 434 
Q 2191 0 1641 0 
Q 956 0 581 494 
Q 206 988 206 1678 
Q 206 2153 378 2554 
Q 550 2956 876 3175 
Q 1203 3394 1644 3394 
Q 2231 3394 2613 2919 
L 2613 3319 
L 3131 3319 
L 3131 450 
Q 3131 -325 2973 -648 
Q 2816 -972 2473 -1159 
Q 2131 -1347 1631 -1347 
Q 1038 -1347 672 -1080 
Q 306 -813 319 -275 
z
M 784 1719 
Q 784 1066 1043 766 
Q 1303 466 1694 466 
Q 2081 466 2343 764 
Q 2606 1063 2606 1700 
Q 2606 2309 2336 2618 
Q 2066 2928 1684 2928 
Q 1309 2928 1046 2623 
Q 784 2319 784 1719 
z
" id="ArialMT-67" transform="scale(0.015625)"/>
       <path d="M 2597 0 
L 2597 488 
Q 2209 -75 1544 -75 
Q 1250 -75 995 37 
Q 741 150 617 320 
Q 494 491 444 738 
Q 409 903 409 1263 
L 409 3319 
L 972 3319 
L 972 1478 
Q 972 1038 1006 884 
Q 1059 663 1231 536 
Q 1403 409 1656 409 
Q 1909 409 2131 539 
Q 2353 669 2445 892 
Q 2538 1116 2538 1541 
L 2538 3319 
L 3100 3319 
L 3100 0 
L 2597 0 
z
" id="ArialMT-75" transform="scale(0.015625)"/>
       <path d="M 409 0 
L 409 4581 
L 972 4581 
L 972 0 
L 409 0 
z
" id="ArialMT-6c" transform="scale(0.015625)"/>
      </defs>
      <use xlink:href="#ArialMT-72"/>
      <use x="33.300781" xlink:href="#ArialMT-65"/>
      <use x="88.916016" xlink:href="#ArialMT-67"/>
      <use x="144.53125" xlink:href="#ArialMT-75"/>
      <use x="200.146484" xlink:href="#ArialMT-6c"/>
      <use x="222.363281" xlink:href="#ArialMT-61"/>
      <use x="277.978516" xlink:href="#ArialMT-72"/>
     </g>
    </g>
    <g id="line2d_13">
     <path d="M 642.244062 101.0978 
L 664.244062 101.0978 
" style="fill:none;stroke:#dd8452;stroke-dasharray:6,2.25;stroke-dashoffset:0;stroke-width:1.5;"/>
    </g>
    <g id="line2d_14"/>
    <g id="text_18">
     <!-- splitted_3s -->
     <g style="fill:#262626;" transform="translate(673.044062 104.9478)scale(0.11 -0.11)">
      <defs>
       <path d="M 422 -1272 
L 422 3319 
L 934 3319 
L 934 2888 
Q 1116 3141 1344 3267 
Q 1572 3394 1897 3394 
Q 2322 3394 2647 3175 
Q 2972 2956 3137 2557 
Q 3303 2159 3303 1684 
Q 3303 1175 3120 767 
Q 2938 359 2589 142 
Q 2241 -75 1856 -75 
Q 1575 -75 1351 44 
Q 1128 163 984 344 
L 984 -1272 
L 422 -1272 
z
M 931 1641 
Q 931 1000 1190 694 
Q 1450 388 1819 388 
Q 2194 388 2461 705 
Q 2728 1022 2728 1688 
Q 2728 2322 2467 2637 
Q 2206 2953 1844 2953 
Q 1484 2953 1207 2617 
Q 931 2281 931 1641 
z
" id="ArialMT-70" transform="scale(0.015625)"/>
       <path d="M 2575 0 
L 2575 419 
Q 2259 -75 1647 -75 
Q 1250 -75 917 144 
Q 584 363 401 755 
Q 219 1147 219 1656 
Q 219 2153 384 2558 
Q 550 2963 881 3178 
Q 1213 3394 1622 3394 
Q 1922 3394 2156 3267 
Q 2391 3141 2538 2938 
L 2538 4581 
L 3097 4581 
L 3097 0 
L 2575 0 
z
M 797 1656 
Q 797 1019 1065 703 
Q 1334 388 1700 388 
Q 2069 388 2326 689 
Q 2584 991 2584 1609 
Q 2584 2291 2321 2609 
Q 2059 2928 1675 2928 
Q 1300 2928 1048 2622 
Q 797 2316 797 1656 
z
" id="ArialMT-64" transform="scale(0.015625)"/>
       <path d="M -97 -1272 
L -97 -866 
L 3631 -866 
L 3631 -1272 
L -97 -1272 
z
" id="ArialMT-5f" transform="scale(0.015625)"/>
       <path d="M 269 1209 
L 831 1284 
Q 928 806 1161 595 
Q 1394 384 1728 384 
Q 2125 384 2398 659 
Q 2672 934 2672 1341 
Q 2672 1728 2419 1979 
Q 2166 2231 1775 2231 
Q 1616 2231 1378 2169 
L 1441 2663 
Q 1497 2656 1531 2656 
Q 1891 2656 2178 2843 
Q 2466 3031 2466 3422 
Q 2466 3731 2256 3934 
Q 2047 4138 1716 4138 
Q 1388 4138 1169 3931 
Q 950 3725 888 3313 
L 325 3413 
Q 428 3978 793 4289 
Q 1159 4600 1703 4600 
Q 2078 4600 2393 4439 
Q 2709 4278 2876 4000 
Q 3044 3722 3044 3409 
Q 3044 3113 2884 2869 
Q 2725 2625 2413 2481 
Q 2819 2388 3044 2092 
Q 3269 1797 3269 1353 
Q 3269 753 2831 336 
Q 2394 -81 1725 -81 
Q 1122 -81 723 278 
Q 325 638 269 1209 
z
" id="ArialMT-33" transform="scale(0.015625)"/>
      </defs>
      <use xlink:href="#ArialMT-73"/>
      <use x="50" xlink:href="#ArialMT-70"/>
      <use x="105.615234" xlink:href="#ArialMT-6c"/>
      <use x="127.832031" xlink:href="#ArialMT-69"/>
      <use x="150.048828" xlink:href="#ArialMT-74"/>
      <use x="177.832031" xlink:href="#ArialMT-74"/>
      <use x="205.615234" xlink:href="#ArialMT-65"/>
      <use x="261.230469" xlink:href="#ArialMT-64"/>
      <use x="316.845703" xlink:href="#ArialMT-5f"/>
      <use x="372.460938" xlink:href="#ArialMT-33"/>
      <use x="428.076172" xlink:href="#ArialMT-73"/>
     </g>
    </g>
    <g id="line2d_15">
     <path d="M 642.244062 116.6903 
L 664.244062 116.6903 
" style="fill:none;stroke:#55a868;stroke-dasharray:1.5,1.5;stroke-dashoffset:0;stroke-width:1.5;"/>
    </g>
    <g id="line2d_16"/>
    <g id="text_19">
     <!-- splitted_1s -->
     <g style="fill:#262626;" transform="translate(673.044062 120.5403)scale(0.11 -0.11)">
      <use xlink:href="#ArialMT-73"/>
      <use x="50" xlink:href="#ArialMT-70"/>
      <use x="105.615234" xlink:href="#ArialMT-6c"/>
      <use x="127.832031" xlink:href="#ArialMT-69"/>
      <use x="150.048828" xlink:href="#ArialMT-74"/>
      <use x="177.832031" xlink:href="#ArialMT-74"/>
      <use x="205.615234" xlink:href="#ArialMT-65"/>
      <use x="261.230469" xlink:href="#ArialMT-64"/>
      <use x="316.845703" xlink:href="#ArialMT-5f"/>
      <use x="372.460938" xlink:href="#ArialMT-31"/>
      <use x="428.076172" xlink:href="#ArialMT-73"/>
     </g>
    </g>
    <g id="line2d_17">
     <path d="M 642.244062 132.384206 
L 664.244062 132.384206 
" style="fill:none;stroke:#c44e52;stroke-dasharray:4.5,1.875,2.25,1.875;stroke-dashoffset:0;stroke-width:1.5;"/>
    </g>
    <g id="line2d_18"/>
    <g id="text_20">
     <!-- overlap_1f_3s -->
     <g style="fill:#262626;" transform="translate(673.044062 136.234206)scale(0.11 -0.11)">
      <use xlink:href="#ArialMT-6f"/>
      <use x="55.615234" xlink:href="#ArialMT-76"/>
      <use x="105.615234" xlink:href="#ArialMT-65"/>
      <use x="161.230469" xlink:href="#ArialMT-72"/>
      <use x="194.53125" xlink:href="#ArialMT-6c"/>
      <use x="216.748047" xlink:href="#ArialMT-61"/>
      <use x="272.363281" xlink:href="#ArialMT-70"/>
      <use x="327.978516" xlink:href="#ArialMT-5f"/>
      <use x="383.59375" xlink:href="#ArialMT-31"/>
      <use x="439.208984" xlink:href="#ArialMT-66"/>
      <use x="466.992188" xlink:href="#ArialMT-5f"/>
      <use x="522.607422" xlink:href="#ArialMT-33"/>
      <use x="578.222656" xlink:href="#ArialMT-73"/>
     </g>
    </g>
    <g id="line2d_19">
     <path d="M 642.244062 148.078113 
L 664.244062 148.078113 
" style="fill:none;stroke:#8172b3;stroke-dasharray:7.5,1.5,1.5,1.5;stroke-dashoffset:0;stroke-width:1.5;"/>
    </g>
    <g id="line2d_20"/>
    <g id="text_21">
     <!-- overlap_10f_3s -->
     <g style="fill:#262626;" transform="translate(673.044062 151.928112)scale(0.11 -0.11)">
      <use xlink:href="#ArialMT-6f"/>
      <use x="55.615234" xlink:href="#ArialMT-76"/>
      <use x="105.615234" xlink:href="#ArialMT-65"/>
      <use x="161.230469" xlink:href="#ArialMT-72"/>
      <use x="194.53125" xlink:href="#ArialMT-6c"/>
      <use x="216.748047" xlink:href="#ArialMT-61"/>
      <use x="272.363281" xlink:href="#ArialMT-70"/>
      <use x="327.978516" xlink:href="#ArialMT-5f"/>
      <use x="383.59375" xlink:href="#ArialMT-31"/>
      <use x="439.208984" xlink:href="#ArialMT-30"/>
      <use x="494.824219" xlink:href="#ArialMT-66"/>
      <use x="522.607422" xlink:href="#ArialMT-5f"/>
      <use x="578.222656" xlink:href="#ArialMT-33"/>
      <use x="633.837891" xlink:href="#ArialMT-73"/>
     </g>
    </g>
   </g>
  </g>
 </g>
 <defs>
  <clipPath id="p1c90cf6a54">
   <rect height="458.4888" width="652.86" x="105.3" y="71.4528"/>
  </clipPath>
 </defs>
</svg>
