<?xml version="1.0" encoding="utf-8" standalone="no"?>
<!DOCTYPE svg PUBLIC "-//W3C//DTD SVG 1.1//EN"
  "http://www.w3.org/Graphics/SVG/1.1/DTD/svg11.dtd">
<svg height="595.44pt" version="1.1" viewBox="0 0 842.4 595.44" width="842.4pt" xmlns="http://www.w3.org/2000/svg" xmlns:xlink="http://www.w3.org/1999/xlink">
 <metadata>
  <rdf:RDF xmlns:cc="http://creativecommons.org/ns#" xmlns:dc="http://purl.org/dc/elements/1.1/" xmlns:rdf="http://www.w3.org/1999/02/22-rdf-syntax-ns#">
   <cc:Work>
    <dc:type rdf:resource="http://purl.org/dc/dcmitype/StillImage"/>
    <dc:date>2021-06-01T00:54:10.457961</dc:date>
    <dc:format>image/svg+xml</dc:format>
    <dc:creator>
     <cc:Agent>
      <dc:title>Matplotlib v3.4.1, https://matplotlib.org/</dc:title>
     </cc:Agent>
    </dc:creator>
   </cc:Work>
  </rdf:RDF>
 </metadata>
 <defs>
  <style type="text/css">*{stroke-linecap:butt;stroke-linejoin:round;}</style>
 </defs>
 <g id="figure_1">
  <g id="patch_1">
   <path d="M 0 595.44 
L 842.4 595.44 
L 842.4 0 
L 0 0 
z
" style="fill:#ffffff;"/>
  </g>
  <g id="axes_1">
   <g id="patch_2">
    <path d="M 105.3 529.9416 
L 758.16 529.9416 
L 758.16 71.4528 
L 105.3 71.4528 
z
" style="fill:#ffffff;"/>
   </g>
   <g id="matplotlib.axis_1">
    <g id="xtick_1">
     <g id="text_1">
      <!-- 0 -->
      <g style="fill:#262626;" transform="translate(131.916939 547.315194)scale(0.11 -0.11)">
       <defs>
        <path d="M 266 2259 
Q 266 3072 433 3567 
Q 600 4063 929 4331 
Q 1259 4600 1759 4600 
Q 2128 4600 2406 4451 
Q 2684 4303 2865 4023 
Q 3047 3744 3150 3342 
Q 3253 2941 3253 2259 
Q 3253 1453 3087 958 
Q 2922 463 2592 192 
Q 2263 -78 1759 -78 
Q 1097 -78 719 397 
Q 266 969 266 2259 
z
M 844 2259 
Q 844 1131 1108 757 
Q 1372 384 1759 384 
Q 2147 384 2411 759 
Q 2675 1134 2675 2259 
Q 2675 3391 2411 3762 
Q 2147 4134 1753 4134 
Q 1366 4134 1134 3806 
Q 844 3388 844 2259 
z
" id="ArialMT-30" transform="scale(0.015625)"/>
       </defs>
       <use xlink:href="#ArialMT-30"/>
      </g>
     </g>
    </g>
    <g id="xtick_2">
     <g id="text_2">
      <!-- 25 -->
      <g style="fill:#262626;" transform="translate(201.950676 547.315194)scale(0.11 -0.11)">
       <defs>
        <path d="M 3222 541 
L 3222 0 
L 194 0 
Q 188 203 259 391 
Q 375 700 629 1000 
Q 884 1300 1366 1694 
Q 2113 2306 2375 2664 
Q 2638 3022 2638 3341 
Q 2638 3675 2398 3904 
Q 2159 4134 1775 4134 
Q 1369 4134 1125 3890 
Q 881 3647 878 3216 
L 300 3275 
Q 359 3922 746 4261 
Q 1134 4600 1788 4600 
Q 2447 4600 2831 4234 
Q 3216 3869 3216 3328 
Q 3216 3053 3103 2787 
Q 2991 2522 2730 2228 
Q 2469 1934 1863 1422 
Q 1356 997 1212 845 
Q 1069 694 975 541 
L 3222 541 
z
" id="ArialMT-32" transform="scale(0.015625)"/>
        <path d="M 266 1200 
L 856 1250 
Q 922 819 1161 601 
Q 1400 384 1738 384 
Q 2144 384 2425 690 
Q 2706 997 2706 1503 
Q 2706 1984 2436 2262 
Q 2166 2541 1728 2541 
Q 1456 2541 1237 2417 
Q 1019 2294 894 2097 
L 366 2166 
L 809 4519 
L 3088 4519 
L 3088 3981 
L 1259 3981 
L 1013 2750 
Q 1425 3038 1878 3038 
Q 2478 3038 2890 2622 
Q 3303 2206 3303 1553 
Q 3303 931 2941 478 
Q 2500 -78 1738 -78 
Q 1113 -78 717 272 
Q 322 622 266 1200 
z
" id="ArialMT-35" transform="scale(0.015625)"/>
       </defs>
       <use xlink:href="#ArialMT-32"/>
       <use x="55.615234" xlink:href="#ArialMT-35"/>
      </g>
     </g>
    </g>
    <g id="xtick_3">
     <g id="text_3">
      <!-- 50 -->
      <g style="fill:#262626;" transform="translate(275.042928 547.315194)scale(0.11 -0.11)">
       <use xlink:href="#ArialMT-35"/>
       <use x="55.615234" xlink:href="#ArialMT-30"/>
      </g>
     </g>
    </g>
    <g id="xtick_4">
     <g id="text_4">
      <!-- 75 -->
      <g style="fill:#262626;" transform="translate(348.135181 547.315194)scale(0.11 -0.11)">
       <defs>
        <path d="M 303 3981 
L 303 4522 
L 3269 4522 
L 3269 4084 
Q 2831 3619 2401 2847 
Q 1972 2075 1738 1259 
Q 1569 684 1522 0 
L 944 0 
Q 953 541 1156 1306 
Q 1359 2072 1739 2783 
Q 2119 3494 2547 3981 
L 303 3981 
z
" id="ArialMT-37" transform="scale(0.015625)"/>
       </defs>
       <use xlink:href="#ArialMT-37"/>
       <use x="55.615234" xlink:href="#ArialMT-35"/>
      </g>
     </g>
    </g>
    <g id="xtick_5">
     <g id="text_5">
      <!-- 100 -->
      <g style="fill:#262626;" transform="translate(418.168918 547.315194)scale(0.11 -0.11)">
       <defs>
        <path d="M 2384 0 
L 1822 0 
L 1822 3584 
Q 1619 3391 1289 3197 
Q 959 3003 697 2906 
L 697 3450 
Q 1169 3672 1522 3987 
Q 1875 4303 2022 4600 
L 2384 4600 
L 2384 0 
z
" id="ArialMT-31" transform="scale(0.015625)"/>
       </defs>
       <use xlink:href="#ArialMT-31"/>
       <use x="55.615234" xlink:href="#ArialMT-30"/>
       <use x="111.230469" xlink:href="#ArialMT-30"/>
      </g>
     </g>
    </g>
    <g id="xtick_6">
     <g id="text_6">
      <!-- 125 -->
      <g style="fill:#262626;" transform="translate(491.261171 547.315194)scale(0.11 -0.11)">
       <use xlink:href="#ArialMT-31"/>
       <use x="55.615234" xlink:href="#ArialMT-32"/>
       <use x="111.230469" xlink:href="#ArialMT-35"/>
      </g>
     </g>
    </g>
    <g id="xtick_7">
     <g id="text_7">
      <!-- 150 -->
      <g style="fill:#262626;" transform="translate(564.353423 547.315194)scale(0.11 -0.11)">
       <use xlink:href="#ArialMT-31"/>
       <use x="55.615234" xlink:href="#ArialMT-35"/>
       <use x="111.230469" xlink:href="#ArialMT-30"/>
      </g>
     </g>
    </g>
    <g id="xtick_8">
     <g id="text_8">
      <!-- 175 -->
      <g style="fill:#262626;" transform="translate(637.445676 547.315194)scale(0.11 -0.11)">
       <use xlink:href="#ArialMT-31"/>
       <use x="55.615234" xlink:href="#ArialMT-37"/>
       <use x="111.230469" xlink:href="#ArialMT-35"/>
      </g>
     </g>
    </g>
    <g id="xtick_9">
     <g id="text_9">
      <!-- 200 -->
      <g style="fill:#262626;" transform="translate(710.537928 547.315194)scale(0.11 -0.11)">
       <use xlink:href="#ArialMT-32"/>
       <use x="55.615234" xlink:href="#ArialMT-30"/>
       <use x="111.230469" xlink:href="#ArialMT-30"/>
      </g>
     </g>
    </g>
   </g>
   <g id="matplotlib.axis_2">
    <g id="ytick_1">
     <g id="text_10">
      <!-- −25 -->
      <g style="fill:#262626;" transform="translate(77.14125 533.878397)scale(0.11 -0.11)">
       <defs>
        <path d="M 3381 1997 
L 356 1997 
L 356 2522 
L 3381 2522 
L 3381 1997 
z
" id="ArialMT-2212" transform="scale(0.015625)"/>
       </defs>
       <use xlink:href="#ArialMT-2212"/>
       <use x="58.398438" xlink:href="#ArialMT-32"/>
       <use x="114.013672" xlink:href="#ArialMT-35"/>
      </g>
     </g>
    </g>
    <g id="ytick_2">
     <g id="text_11">
      <!-- −20 -->
      <g style="fill:#262626;" transform="translate(77.14125 442.180637)scale(0.11 -0.11)">
       <use xlink:href="#ArialMT-2212"/>
       <use x="58.398438" xlink:href="#ArialMT-32"/>
       <use x="114.013672" xlink:href="#ArialMT-30"/>
      </g>
     </g>
    </g>
    <g id="ytick_3">
     <g id="text_12">
      <!-- −15 -->
      <g style="fill:#262626;" transform="translate(77.14125 350.482877)scale(0.11 -0.11)">
       <use xlink:href="#ArialMT-2212"/>
       <use x="58.398438" xlink:href="#ArialMT-31"/>
       <use x="114.013672" xlink:href="#ArialMT-35"/>
      </g>
     </g>
    </g>
    <g id="ytick_4">
     <g id="text_13">
      <!-- −10 -->
      <g style="fill:#262626;" transform="translate(77.14125 258.785117)scale(0.11 -0.11)">
       <use xlink:href="#ArialMT-2212"/>
       <use x="58.398438" xlink:href="#ArialMT-31"/>
       <use x="114.013672" xlink:href="#ArialMT-30"/>
      </g>
     </g>
    </g>
    <g id="ytick_5">
     <g id="text_14">
      <!-- −5 -->
      <g style="fill:#262626;" transform="translate(83.258281 167.087357)scale(0.11 -0.11)">
       <use xlink:href="#ArialMT-2212"/>
       <use x="58.398438" xlink:href="#ArialMT-35"/>
      </g>
     </g>
    </g>
    <g id="ytick_6">
     <g id="text_15">
      <!-- 0 -->
      <g style="fill:#262626;" transform="translate(89.682969 75.389597)scale(0.11 -0.11)">
       <use xlink:href="#ArialMT-30"/>
      </g>
     </g>
    </g>
   </g>
   <g id="line2d_1">
    <path clip-path="url(#pc1ebf4c790)" d="M 134.975455 400.427364 
L 137.899145 398.807234 
L 140.822835 397.704457 
L 143.746525 398.805975 
L 146.670215 398.359211 
L 149.593905 395.122799 
L 152.517595 397.232508 
L 155.441285 397.96985 
L 158.364975 399.716152 
L 161.288665 395.357689 
L 164.212356 392.77806 
L 167.136046 396.395753 
L 170.059736 412.09719 
L 172.983426 430.208253 
L 175.907116 436.334531 
L 178.830806 468.132152 
L 181.754496 528.828959 
L 184.678186 477.57855 
L 187.601876 437.962322 
L 190.525567 525.376231 
L 193.449257 469.471918 
L 196.372947 419.892255 
L 199.296637 444.464004 
L 202.220327 328.971329 
L 205.144017 274.747364 
L 208.067707 413.075963 
L 210.991397 426.384738 
L 213.915087 460.551619 
L 216.838777 521.698372 
L 219.762468 526.200812 
L 222.686158 453.53762 
L 225.609848 440.652312 
L 228.533538 464.001129 
L 231.457228 538.401598 
L 234.380918 449.815932 
L 237.304608 473.628547 
L 240.228298 484.23271 
L 243.151988 414.84927 
L 246.075678 327.793363 
L 248.999369 246.287859 
L 251.923059 318.561637 
L 254.846749 372.675975 
L 257.770439 437.22456 
L 260.694129 409.567932 
L 263.617819 506.062593 
L 266.541509 395.438178 
L 272.388889 426.389635 
L 275.312579 415.717541 
L 278.23627 401.748975 
L 281.15996 367.773784 
L 284.08365 312.383869 
L 287.00734 320.580573 
L 289.93103 382.529363 
L 292.85472 330.847267 
L 295.77841 368.839132 
L 298.7021 478.259224 
L 301.62579 477.003235 
L 304.549481 468.434694 
L 307.473171 419.74338 
L 310.396861 441.151686 
L 313.320551 429.063185 
L 316.244241 504.484929 
L 319.167931 454.568444 
L 322.091621 390.039622 
L 325.015311 370.409171 
L 327.939001 456.538828 
L 330.862691 479.414785 
L 333.786382 477.457519 
L 336.710072 456.799183 
L 339.633762 467.617563 
L 342.557452 481.320841 
L 345.481142 429.601456 
L 348.404832 409.7797 
L 351.328522 315.684381 
L 354.252212 350.507119 
L 357.175902 393.652033 
L 360.099592 372.990654 
L 363.023283 469.273442 
L 365.946973 360.828311 
L 368.870663 418.161938 
L 371.794353 478.400228 
L 374.718043 498.763228 
L 377.641733 471.657464 
L 380.565423 484.442274 
L 383.489113 471.510373 
L 386.412803 378.036648 
L 389.336494 398.250319 
L 392.260184 434.855335 
L 395.183874 415.152966 
L 398.107564 365.58677 
L 401.031254 320.511558 
L 403.954944 340.890771 
L 406.878634 378.862663 
L 409.802324 367.991359 
L 412.726014 363.180343 
L 415.649704 473.911395 
L 418.573395 469.275226 
L 421.497085 503.217571 
L 424.420775 563.538938 
L 427.344465 414.741986 
L 430.268155 464.475491 
L 433.191845 494.869369 
L 436.115535 430.335265 
L 439.039225 464.287999 
L 441.962915 492.747102 
L 444.886605 462.907552 
L 447.810296 420.076319 
L 450.733986 364.382044 
L 453.657676 425.075824 
L 456.581366 441.120694 
L 459.505056 493.644931 
L 462.428746 450.115045 
L 465.352436 452.026908 
L 468.276126 393.395351 
L 471.199816 349.346957 
L 474.123506 379.420103 
L 477.047197 438.581676 
L 479.970887 390.974495 
L 482.894577 432.497549 
L 485.818267 360.250355 
L 488.741957 367.183813 
L 491.665647 384.885996 
L 494.589337 398.118619 
L 497.513027 413.28962 
L 500.436717 376.56938 
L 503.360408 331.118641 
L 506.284098 391.741745 
L 509.207788 445.47377 
L 512.131478 439.304501 
L 515.055168 434.792196 
L 517.978858 356.003846 
L 520.902548 437.61693 
L 523.826238 455.859867 
L 526.749928 412.299199 
L 529.673618 439.691589 
L 532.597309 471.021459 
L 535.520999 376.468043 
L 538.444689 346.525424 
L 541.368379 439.725974 
L 544.292069 377.277793 
L 547.215759 304.486085 
L 550.139449 363.15939 
L 553.063139 241.874285 
L 555.986829 375.503227 
L 558.910519 406.677576 
L 561.83421 414.285708 
L 564.7579 433.656049 
L 567.68159 360.037747 
L 570.60528 406.981062 
L 573.52897 401.721586 
L 576.45266 400.754566 
L 579.37635 409.264446 
L 582.30004 418.356357 
L 585.22373 385.373406 
L 588.147421 407.764437 
L 591.071111 463.980631 
L 593.994801 473.16251 
L 596.918491 410.03264 
L 599.842181 438.663039 
L 602.765871 451.287887 
L 605.689561 433.47013 
L 608.613251 384.806976 
L 611.536941 403.619946 
L 614.460631 346.564217 
L 617.384322 250.190936 
L 620.308012 370.2547 
L 623.231702 426.064007 
L 626.155392 491.273573 
L 629.079082 470.407386 
L 632.002772 383.72036 
L 634.926462 408.240129 
L 637.850152 478.421636 
L 640.773842 423.051956 
L 643.697532 411.491617 
L 646.621223 448.295705 
L 649.544913 419.315436 
L 652.468603 483.235887 
L 655.392293 467.728939 
L 658.315983 363.452994 
L 661.239673 441.754215 
L 664.163363 358.560983 
L 667.087053 420.200533 
L 670.010743 457.671862 
L 672.934433 459.307383 
L 675.858124 504.113232 
L 678.781814 500.110655 
L 681.705504 553.77188 
L 684.629194 583.713642 
L 687.552884 440.799753 
L 690.476574 470.802344 
L 693.400264 399.26645 
L 696.323954 460.187408 
L 699.247644 456.22037 
L 702.171335 441.651164 
L 705.095025 426.483066 
L 708.018715 414.725371 
L 710.942405 419.777171 
L 713.866095 416.802129 
L 716.789785 419.18692 
L 719.713475 420.11868 
L 722.637165 420.606475 
L 725.560855 421.233385 
L 728.484545 423.442647 
L 728.484545 423.442647 
" style="fill:none;stroke:#4c72b0;stroke-linecap:round;stroke-width:1.5;"/>
   </g>
   <g id="line2d_2">
    <path clip-path="url(#pc1ebf4c790)" d="M 134.975455 403.204 
L 137.899145 405.299332 
L 140.822835 401.886516 
L 143.746525 403.994511 
L 146.670215 406.26079 
L 149.593905 403.172343 
L 152.517595 401.159843 
L 155.441285 401.714835 
L 158.364975 399.960242 
L 161.288665 393.223529 
L 164.212356 389.215075 
L 167.136046 389.300322 
L 170.059736 397.896147 
L 172.983426 409.508361 
L 175.907116 416.920291 
L 178.830806 452.456426 
L 181.754496 506.079453 
L 184.678186 460.450037 
L 187.601876 397.432733 
L 190.525567 508.221554 
L 193.449257 441.664806 
L 196.372947 398.564193 
L 199.296637 412.031882 
L 202.220327 331.148951 
L 205.144017 293.510121 
L 208.067707 405.205586 
L 210.991397 438.866867 
L 213.915087 433.291383 
L 216.838777 517.781985 
L 219.762468 519.277237 
L 222.686158 458.849671 
L 225.609848 441.948948 
L 228.533538 449.537002 
L 231.457228 522.525018 
L 234.380918 422.27075 
L 237.304608 438.02623 
L 240.228298 450.494717 
L 243.151988 402.18549 
L 246.075678 331.311293 
L 248.999369 274.614161 
L 251.923059 329.43929 
L 254.846749 371.185481 
L 257.770439 436.359332 
L 260.694129 410.978952 
L 263.617819 507.334813 
L 266.541509 393.103933 
L 269.465199 403.181578 
L 272.388889 444.153418 
L 275.312579 430.284859 
L 278.23627 415.350602 
L 281.15996 389.977708 
L 284.08365 317.036863 
L 287.00734 317.284136 
L 289.93103 385.402439 
L 292.85472 344.374457 
L 295.77841 348.850994 
L 298.7021 462.206869 
L 301.62579 456.63999 
L 304.549481 455.984746 
L 307.473171 411.623806 
L 310.396861 408.483834 
L 313.320551 430.80606 
L 316.244241 508.875433 
L 319.167931 469.864253 
L 322.091621 398.702679 
L 325.015311 355.131849 
L 327.939001 452.751237 
L 330.862691 460.356046 
L 333.786382 459.401304 
L 336.710072 508.612314 
L 339.633762 499.703279 
L 342.557452 486.801565 
L 345.481142 441.169491 
L 348.404832 441.374648 
L 351.328522 376.755718 
L 354.252212 431.794627 
L 357.175902 312.736116 
L 360.099592 257.76227 
L 363.023283 278.868961 
L 365.946973 325.039026 
L 368.870663 340.062517 
L 371.794353 435.721053 
L 374.718043 420.856686 
L 377.641733 375.42816 
L 380.565423 454.34814 
L 383.489113 419.705427 
L 386.412803 409.808594 
L 389.336494 414.542846 
L 392.260184 477.158721 
L 395.183874 445.245561 
L 398.107564 358.768484 
L 401.031254 312.196639 
L 403.954944 373.019198 
L 406.878634 371.376156 
L 409.802324 388.382099 
L 412.726014 376.466889 
L 415.649704 427.132748 
L 418.573395 420.605565 
L 421.497085 473.341817 
L 424.420775 520.242333 
L 427.344465 383.881092 
L 430.268155 431.128575 
L 433.191845 455.983242 
L 436.115535 416.273967 
L 439.039225 495.322463 
L 441.962915 504.59613 
L 444.886605 414.726385 
L 447.810296 376.977561 
L 450.733986 394.23347 
L 453.657676 414.086952 
L 456.581366 438.504196 
L 459.505056 472.387425 
L 462.428746 426.440811 
L 465.352436 445.477512 
L 468.276126 371.890116 
L 471.199816 355.978153 
L 474.123506 366.727185 
L 477.047197 454.336807 
L 479.970887 380.933195 
L 482.894577 427.528301 
L 485.818267 381.572208 
L 488.741957 376.957727 
L 491.665647 400.542763 
L 494.589337 387.771069 
L 497.513027 417.535343 
L 500.436717 370.950765 
L 503.360408 320.882118 
L 506.284098 403.219986 
L 509.207788 449.959909 
L 512.131478 431.265416 
L 515.055168 433.789882 
L 517.978858 363.450861 
L 520.902548 442.123953 
L 523.826238 454.344677 
L 526.749928 414.220996 
L 529.673618 433.407691 
L 532.597309 473.000692 
L 535.520999 390.582615 
L 538.444689 383.996806 
L 541.368379 426.741883 
L 544.292069 392.139467 
L 547.215759 286.133695 
L 550.139449 350.863721 
L 553.063139 268.602547 
L 555.986829 329.521581 
L 558.910519 321.247378 
L 561.83421 289.956056 
L 564.7579 305.900288 
L 567.68159 267.974692 
L 570.60528 482.252601 
L 573.52897 331.084134 
L 576.45266 373.204766 
L 579.37635 400.366464 
L 582.30004 384.176078 
L 585.22373 373.093425 
L 588.147421 358.170187 
L 591.071111 439.235381 
L 593.994801 439.361938 
L 596.918491 363.719454 
L 599.842181 452.680892 
L 602.765871 431.657331 
L 605.689561 444.953233 
L 608.613251 435.330153 
L 611.536941 410.316572 
L 614.460631 353.628919 
L 617.384322 310.651628 
L 620.308012 395.015726 
L 623.231702 440.497981 
L 626.155392 513.462525 
L 629.079082 459.33876 
L 632.002772 386.359665 
L 634.926462 421.80765 
L 637.850152 437.513879 
L 640.773842 412.248268 
L 643.697532 376.879897 
L 646.621223 412.771078 
L 649.544913 405.174734 
L 652.468603 462.454492 
L 655.392293 465.939086 
L 658.315983 330.916352 
L 661.239673 442.737955 
L 664.163363 354.926761 
L 667.087053 417.780272 
L 670.010743 449.740655 
L 672.934433 440.266274 
L 675.858124 487.1323 
L 678.781814 495.384588 
L 681.705504 533.972931 
L 684.629194 567.054525 
L 687.552884 402.391801 
L 690.476574 439.775366 
L 693.400264 392.719644 
L 696.323954 447.687229 
L 699.247644 442.789795 
L 702.171335 414.052008 
L 705.095025 399.083156 
L 708.018715 392.067653 
L 710.942405 396.27098 
L 713.866095 388.834144 
L 716.789785 393.906757 
L 719.713475 391.930427 
L 722.637165 392.946244 
L 725.560855 395.267476 
L 728.484545 390.484637 
L 728.484545 390.484637 
" style="fill:none;stroke:#dd8452;stroke-dasharray:6,2.25;stroke-dashoffset:0;stroke-width:1.5;"/>
   </g>
   <g id="line2d_3">
    <path clip-path="url(#pc1ebf4c790)" d="M 134.975455 401.537207 
L 137.899145 403.925776 
L 140.822835 398.559436 
L 143.746525 399.738749 
L 146.670215 405.816895 
L 149.593905 396.669156 
L 152.517595 396.264544 
L 155.441285 420.527735 
L 158.364975 414.700185 
L 161.288665 384.978448 
L 164.212356 386.406433 
L 167.136046 383.140603 
L 170.059736 383.390604 
L 172.983426 404.755324 
L 175.907116 411.14668 
L 178.830806 439.726079 
L 181.754496 470.267536 
L 184.678186 390.279759 
L 187.601876 351.721814 
L 190.525567 367.98076 
L 193.449257 380.524734 
L 196.372947 339.659146 
L 199.296637 320.082844 
L 202.220327 315.771884 
L 205.144017 363.537611 
L 208.067707 382.360655 
L 210.991397 483.495263 
L 213.915087 461.556697 
L 216.838777 448.071134 
L 219.762468 488.506346 
L 222.686158 479.024479 
L 225.609848 419.296162 
L 228.533538 449.234146 
L 231.457228 502.376059 
L 234.380918 436.247466 
L 237.304608 457.756059 
L 240.228298 477.657534 
L 243.151988 435.709055 
L 246.075678 316.266937 
L 248.999369 316.925504 
L 251.923059 300.365223 
L 254.846749 393.601452 
L 257.770439 458.185612 
L 260.694129 418.841773 
L 263.617819 496.92311 
L 266.541509 425.989919 
L 269.465199 431.224909 
L 272.388889 407.783921 
L 275.312579 406.348695 
L 278.23627 383.294199 
L 281.15996 238.863529 
L 284.08365 221.590969 
L 287.00734 242.024157 
L 289.93103 274.141355 
L 292.85472 219.821055 
L 295.77841 292.831615 
L 298.7021 434.380378 
L 301.62579 467.965648 
L 304.549481 452.852679 
L 307.473171 430.912679 
L 310.396861 468.299076 
L 313.320551 488.161584 
L 316.244241 537.979181 
L 319.167931 495.046297 
L 322.091621 416.529076 
L 325.015311 407.223787 
L 327.939001 470.591416 
L 330.862691 488.332321 
L 333.786382 475.158919 
L 336.710072 520.141871 
L 339.633762 490.187656 
L 342.557452 516.713524 
L 345.481142 475.067691 
L 348.404832 453.304025 
L 354.252212 395.97421 
L 357.175902 429.548742 
L 360.099592 354.034214 
L 363.023283 393.907807 
L 365.946973 321.5396 
L 368.870663 401.454304 
L 371.794353 415.65031 
L 374.718043 432.990066 
L 377.641733 361.546047 
L 380.565423 415.327725 
L 383.489113 446.561365 
L 386.412803 384.508702 
L 389.336494 435.755369 
L 392.260184 480.84368 
L 395.183874 438.803938 
L 398.107564 355.174209 
L 401.031254 314.228447 
L 403.954944 367.247546 
L 406.878634 365.916525 
L 409.802324 427.313874 
L 412.726014 410.732238 
L 415.649704 395.320296 
L 418.573395 407.134694 
L 421.497085 331.619029 
L 424.420775 297.031112 
L 427.344465 254.8139 
L 430.268155 287.274425 
L 433.191845 310.76547 
L 436.115535 318.402094 
L 439.039225 430.315047 
L 441.962915 474.210508 
L 444.886605 380.077621 
L 447.810296 390.523674 
L 450.733986 357.236643 
L 453.657676 403.116305 
L 456.581366 468.883311 
L 459.505056 527.06688 
L 462.428746 442.70406 
L 465.352436 473.365218 
L 468.276126 414.122212 
L 471.199816 361.952478 
L 474.123506 379.953512 
L 477.047197 428.801815 
L 479.970887 407.015272 
L 482.894577 419.698361 
L 485.818267 385.024971 
L 488.741957 299.709297 
L 491.665647 353.576012 
L 494.589337 346.793475 
L 497.513027 386.064399 
L 500.436717 192.847917 
L 503.360408 214.519805 
L 506.284098 370.032892 
L 509.207788 361.720544 
L 512.131478 351.791914 
L 515.055168 346.518883 
L 517.978858 338.295296 
L 520.902548 438.621553 
L 523.826238 452.094034 
L 526.749928 455.235266 
L 529.673618 442.935347 
L 532.597309 492.849068 
L 535.520999 439.483913 
L 538.444689 409.536974 
L 541.368379 415.739614 
L 544.292069 398.31818 
L 547.215759 323.328841 
L 550.139449 366.58674 
L 553.063139 281.142725 
L 555.986829 258.281844 
L 558.910519 310.981978 
L 561.83421 304.557392 
L 564.7579 275.317519 
L 567.68159 273.355653 
L 570.60528 392.522427 
L 573.52897 458.377617 
L 576.45266 318.05595 
L 579.37635 380.399961 
L 582.30004 430.272511 
L 585.22373 416.038832 
L 588.147421 396.050921 
L 591.071111 512.988267 
L 593.994801 494.443593 
L 596.918491 405.352047 
L 599.842181 504.114176 
L 602.765871 492.717719 
L 605.689561 451.140272 
L 608.613251 413.429295 
L 611.536941 383.421981 
L 614.460631 336.614214 
L 617.384322 277.315065 
L 620.308012 328.8528 
L 623.231702 432.440566 
L 626.155392 496.653344 
L 629.079082 403.695573 
L 632.002772 378.631481 
L 634.926462 452.199149 
L 637.850152 423.320182 
L 640.773842 377.469133 
L 643.697532 383.541158 
L 646.621223 388.756734 
L 649.544913 408.295677 
L 652.468603 462.109904 
L 655.392293 427.212678 
L 658.315983 326.500627 
L 661.239673 432.465472 
L 664.163363 358.350176 
L 667.087053 429.231369 
L 670.010743 459.100477 
L 672.934433 418.572672 
L 675.858124 500.882172 
L 678.781814 487.954573 
L 681.705504 535.705276 
L 684.629194 568.164997 
L 687.552884 427.194348 
L 690.476574 423.824802 
L 693.400264 377.813266 
L 696.323954 433.681724 
L 699.247644 415.197705 
L 702.171335 385.933469 
L 705.095025 378.247052 
L 708.018715 372.541337 
L 710.942405 377.038286 
L 713.866095 369.561748 
L 716.789785 370.934849 
L 719.713475 371.732531 
L 722.637165 374.833676 
L 725.560855 367.496358 
L 728.484545 356.402459 
L 728.484545 356.402459 
" style="fill:none;stroke:#55a868;stroke-dasharray:1.5,1.5;stroke-dashoffset:0;stroke-width:1.5;"/>
   </g>
   <g id="line2d_4">
    <path clip-path="url(#pc1ebf4c790)" d="M 134.975455 403.339477 
L 137.899145 405.412807 
L 140.822835 402.039903 
L 143.746525 404.087103 
L 146.670215 406.4437 
L 149.593905 403.405204 
L 152.517595 401.319002 
L 155.441285 402.230964 
L 158.364975 400.667326 
L 161.288665 393.935126 
L 164.212356 389.812952 
L 167.136046 390.026225 
L 170.059736 398.569336 
L 172.983426 410.098052 
L 175.907116 417.360338 
L 178.830806 453.267925 
L 181.754496 507.190171 
L 184.678186 461.013809 
L 187.601876 398.185921 
L 190.525567 509.713797 
L 193.449257 445.775751 
L 196.372947 400.897634 
L 199.296637 415.854523 
L 202.220327 334.5568 
L 205.144017 291.798466 
L 208.067707 408.89163 
L 210.991397 436.31907 
L 213.915087 442.834045 
L 216.838777 514.872775 
L 219.762468 521.051733 
L 222.686158 459.41694 
L 225.609848 441.023554 
L 228.533538 449.712741 
L 231.457228 525.349331 
L 234.380918 423.722976 
L 237.304608 441.784752 
L 240.228298 454.711022 
L 243.151988 401.555956 
L 246.075678 331.161334 
L 248.999369 272.867876 
L 251.923059 327.130038 
L 254.846749 370.232558 
L 257.770439 435.097396 
L 260.694129 409.503324 
L 263.617819 506.343342 
L 266.541509 389.009638 
L 269.465199 400.798361 
L 272.388889 436.262123 
L 275.312579 430.547068 
L 278.23627 416.066011 
L 281.15996 384.592619 
L 284.08365 313.93131 
L 287.00734 324.92438 
L 289.93103 390.470925 
L 292.85472 340.281631 
L 295.77841 351.698115 
L 298.7021 465.460631 
L 301.62579 461.148831 
L 304.549481 461.120218 
L 307.473171 413.752509 
L 310.396861 410.941558 
L 313.320551 430.025973 
L 316.244241 511.826339 
L 319.167931 478.236172 
L 322.091621 407.5335 
L 325.015311 361.075899 
L 327.939001 446.091025 
L 330.862691 471.37682 
L 333.786382 462.114312 
L 336.710072 524.046259 
L 339.633762 505.023689 
L 342.557452 477.958956 
L 345.481142 421.058101 
L 348.404832 393.007528 
L 351.328522 404.027322 
L 354.252212 315.134357 
L 357.175902 293.783209 
L 360.099592 320.562541 
L 363.023283 457.979825 
L 365.946973 344.334177 
L 368.870663 365.369579 
L 371.794353 445.727654 
L 374.718043 439.673784 
L 377.641733 381.103932 
L 380.565423 461.861827 
L 383.489113 423.793285 
L 386.412803 415.7726 
L 389.336494 417.653435 
L 392.260184 475.331579 
L 395.183874 443.377983 
L 398.107564 359.517246 
L 401.031254 313.250968 
L 403.954944 368.951838 
L 406.878634 372.591708 
L 409.802324 391.669581 
L 412.726014 378.230366 
L 415.649704 432.627639 
L 418.573395 421.439277 
L 421.497085 479.841226 
L 424.420775 529.831028 
L 427.344465 383.319175 
L 430.268155 428.754802 
L 433.191845 453.682157 
L 436.115535 414.998459 
L 439.039225 495.924188 
L 441.962915 506.457376 
L 444.886605 414.544525 
L 447.810296 380.857638 
L 450.733986 390.448712 
L 453.657676 419.442903 
L 456.581366 444.787534 
L 459.505056 471.532865 
L 462.428746 428.184595 
L 465.352436 452.605336 
L 468.276126 371.054376 
L 471.199816 349.356717 
L 474.123506 369.695651 
L 477.047197 457.11012 
L 479.970887 380.916544 
L 482.894577 431.097372 
L 485.818267 382.033733 
L 488.741957 378.284935 
L 491.665647 399.774219 
L 494.589337 386.982237 
L 497.513027 417.794404 
L 503.360408 320.4636 
L 506.284098 404.048835 
L 509.207788 450.17591 
L 512.131478 432.469635 
L 515.055168 434.846765 
L 517.978858 363.758002 
L 520.902548 442.304554 
L 523.826238 453.276565 
L 526.749928 413.70011 
L 529.673618 434.009206 
L 532.597309 473.248245 
L 535.520999 391.252901 
L 538.444689 386.819756 
L 541.368379 429.57669 
L 544.292069 391.570099 
L 547.215759 286.317532 
L 550.139449 351.173241 
L 553.063139 268.436427 
L 555.986829 329.712501 
L 558.910519 320.641981 
L 561.83421 289.752613 
L 564.7579 306.11008 
L 567.68159 268.299866 
L 570.60528 471.0981 
L 573.52897 307.815596 
L 576.45266 418.64606 
L 579.37635 371.56984 
L 582.30004 388.481197 
L 585.22373 419.746424 
L 588.147421 347.008445 
L 591.071111 409.690571 
L 593.994801 452.201562 
L 596.918491 397.667973 
L 599.842181 434.578224 
L 602.765871 433.735138 
L 605.689561 440.957197 
L 608.613251 408.957777 
L 611.536941 393.217758 
L 617.384322 302.266889 
L 620.308012 389.644034 
L 623.231702 441.738579 
L 626.155392 509.058378 
L 629.079082 460.748871 
L 632.002772 384.697664 
L 634.926462 426.00699 
L 637.850152 440.450198 
L 640.773842 414.920909 
L 643.697532 376.137903 
L 646.621223 418.763488 
L 649.544913 404.084934 
L 652.468603 464.519706 
L 655.392293 469.687325 
L 658.315983 333.240418 
L 661.239673 443.891558 
L 664.163363 356.036797 
L 667.087053 418.749321 
L 670.010743 453.339669 
L 672.934433 440.396819 
L 675.858124 487.401121 
L 678.781814 496.746181 
L 681.705504 533.567304 
L 684.629194 567.788124 
L 687.552884 402.986005 
L 690.476574 439.941171 
L 693.400264 392.275678 
L 696.323954 443.42545 
L 699.247644 440.844947 
L 702.171335 413.303122 
L 705.095025 400.559763 
L 708.018715 393.315631 
L 710.942405 397.424793 
L 713.866095 390.377493 
L 716.789785 394.858701 
L 719.713475 392.989584 
L 722.637165 395.093311 
L 725.560855 396.986599 
L 728.484545 391.598817 
L 728.484545 391.598817 
" style="fill:none;stroke:#c44e52;stroke-dasharray:4.5,1.875,2.25,1.875;stroke-dashoffset:0;stroke-width:1.5;"/>
   </g>
   <g id="line2d_5">
    <path clip-path="url(#pc1ebf4c790)" d="M 134.975455 408.691195 
L 137.899145 410.706143 
L 140.822835 407.952909 
L 146.670215 412.206362 
L 149.593905 410.072727 
L 152.517595 408.307535 
L 155.441285 409.093954 
L 158.364975 407.555257 
L 161.288665 400.962592 
L 164.212356 395.383469 
L 167.136046 395.057596 
L 170.059736 401.753733 
L 172.983426 412.835756 
L 175.907116 417.037684 
L 178.830806 451.834693 
L 181.754496 512.898824 
L 184.678186 460.04469 
L 187.601876 417.288769 
L 190.525567 513.651137 
L 193.449257 453.051959 
L 196.372947 412.155256 
L 199.296637 427.287989 
L 202.220327 341.141368 
L 205.144017 292.107706 
L 208.067707 419.72624 
L 210.991397 454.350274 
L 213.915087 448.985719 
L 216.838777 525.379624 
L 219.762468 518.034086 
L 222.686158 461.468723 
L 225.609848 450.484783 
L 228.533538 459.912431 
L 231.457228 528.108058 
L 234.380918 427.248847 
L 237.304608 450.860957 
L 240.228298 461.387219 
L 243.151988 406.905995 
L 246.075678 332.878743 
L 248.999369 265.175984 
L 251.923059 325.002682 
L 254.846749 370.835891 
L 257.770439 438.552258 
L 260.694129 408.691895 
L 263.617819 502.047178 
L 266.541509 389.737605 
L 269.465199 401.465883 
L 272.388889 437.035564 
L 275.312579 428.295691 
L 278.23627 420.2487 
L 281.15996 396.433741 
L 284.08365 326.95673 
L 287.00734 331.387182 
L 289.93103 395.667366 
L 292.85472 343.892101 
L 295.77841 354.009675 
L 298.7021 465.06095 
L 301.62579 466.468088 
L 304.549481 461.939377 
L 307.473171 416.23346 
L 310.396861 434.994031 
L 313.320551 443.472778 
L 316.244241 503.520847 
L 319.167931 472.781263 
L 322.091621 400.00757 
L 325.015311 372.184052 
L 327.939001 452.51883 
L 330.862691 484.131688 
L 333.786382 481.637514 
L 336.710072 481.009205 
L 339.633762 483.844118 
L 342.557452 474.318876 
L 345.481142 416.817555 
L 348.404832 379.522944 
L 351.328522 304.793838 
L 354.252212 347.241708 
L 357.175902 421.01651 
L 360.099592 405.297198 
L 363.023283 507.713715 
L 365.946973 387.976611 
L 368.870663 424.875249 
L 371.794353 454.449652 
L 374.718043 435.375242 
L 377.641733 439.754938 
L 380.565423 492.157235 
L 383.489113 472.094643 
L 386.412803 403.689136 
L 389.336494 409.701555 
L 392.260184 471.180233 
L 395.183874 440.487872 
L 398.107564 336.933563 
L 401.031254 316.597567 
L 403.954944 348.075385 
L 406.878634 363.511656 
L 409.802324 391.29757 
L 412.726014 379.787427 
L 415.649704 466.732571 
L 418.573395 424.882455 
L 421.497085 492.937428 
L 424.420775 537.661983 
L 427.344465 383.298747 
L 430.268155 422.222687 
L 433.191845 457.508821 
L 436.115535 411.773206 
L 439.039225 495.385567 
L 441.962915 508.139316 
L 444.886605 423.466958 
L 447.810296 390.569323 
L 450.733986 399.64161 
L 453.657676 417.564201 
L 456.581366 439.13247 
L 459.505056 455.634282 
L 462.428746 421.664932 
L 465.352436 441.300665 
L 468.276126 373.467675 
L 471.199816 352.810651 
L 474.123506 373.113819 
L 477.047197 451.716706 
L 479.970887 385.715719 
L 482.894577 433.010634 
L 485.818267 379.858647 
L 488.741957 372.036577 
L 491.665647 401.103596 
L 494.589337 384.649741 
L 497.513027 416.670464 
L 500.436717 363.655231 
L 503.360408 317.338914 
L 506.284098 400.350338 
L 509.207788 450.746992 
L 512.131478 432.216625 
L 515.055168 432.589371 
L 517.978858 364.33134 
L 520.902548 438.144392 
L 523.826238 441.454682 
L 526.749928 401.334008 
L 532.597309 455.1326 
L 535.520999 376.598028 
L 538.444689 370.464859 
L 541.368379 428.264769 
L 544.292069 392.753504 
L 547.215759 277.139221 
L 550.139449 341.740381 
L 553.063139 198.679516 
L 555.986829 286.502926 
L 558.910519 304.104821 
L 561.83421 352.137865 
L 564.7579 392.171823 
L 567.68159 340.94959 
L 570.60528 436.514188 
L 573.52897 410.410843 
L 576.45266 462.69232 
L 579.37635 397.500209 
L 582.30004 369.820214 
L 585.22373 397.666539 
L 588.147421 372.938009 
L 591.071111 441.74484 
L 593.994801 463.704989 
L 596.918491 411.067451 
L 602.765871 433.673049 
L 605.689561 427.862849 
L 608.613251 399.384438 
L 611.536941 364.764409 
L 614.460631 345.446696 
L 617.384322 283.933388 
L 620.308012 380.447079 
L 623.231702 435.298321 
L 626.155392 501.925763 
L 629.079082 450.200676 
L 632.002772 375.596903 
L 634.926462 421.964046 
L 637.850152 445.601096 
L 640.773842 432.412268 
L 643.697532 369.733954 
L 646.621223 410.386287 
L 649.544913 399.623665 
L 652.468603 459.032861 
L 655.392293 459.364051 
L 658.315983 331.726068 
L 661.239673 421.820348 
L 664.163363 339.241031 
L 667.087053 417.60226 
L 670.010743 451.983183 
L 672.934433 445.771764 
L 675.858124 482.533175 
L 678.781814 481.814233 
L 681.705504 531.432689 
L 684.629194 553.449225 
L 687.552884 393.451528 
L 690.476574 423.81165 
L 693.400264 384.619204 
L 696.323954 438.611794 
L 699.247644 442.544971 
L 702.171335 413.262336 
L 705.095025 401.404283 
L 708.018715 394.533387 
L 710.942405 396.879561 
L 713.866095 392.66546 
L 716.789785 396.726139 
L 719.713475 394.952867 
L 722.637165 396.734394 
L 725.560855 396.997793 
L 728.484545 394.584318 
L 728.484545 394.584318 
" style="fill:none;stroke:#8172b3;stroke-dasharray:7.5,1.5,1.5,1.5;stroke-dashoffset:0;stroke-width:1.5;"/>
   </g>
   <g id="line2d_6"/>
   <g id="line2d_7"/>
   <g id="line2d_8"/>
   <g id="line2d_9"/>
   <g id="line2d_10"/>
   <g id="patch_3">
    <path d="M 105.3 529.9416 
L 105.3 71.4528 
" style="fill:none;stroke:#262626;stroke-linecap:square;stroke-linejoin:miter;stroke-width:1.25;"/>
   </g>
   <g id="patch_4">
    <path d="M 758.16 529.9416 
L 758.16 71.4528 
" style="fill:none;stroke:#262626;stroke-linecap:square;stroke-linejoin:miter;stroke-width:1.25;"/>
   </g>
   <g id="patch_5">
    <path d="M 105.3 529.9416 
L 758.16 529.9416 
" style="fill:none;stroke:#262626;stroke-linecap:square;stroke-linejoin:miter;stroke-width:1.25;"/>
   </g>
   <g id="patch_6">
    <path d="M 105.3 71.4528 
L 758.16 71.4528 
" style="fill:none;stroke:#262626;stroke-linecap:square;stroke-linejoin:miter;stroke-width:1.25;"/>
   </g>
   <g id="text_16">
    <!-- Activations for &gt;:&lt; -->
    <g style="fill:#262626;" transform="translate(383.7075 65.4528)scale(0.12 -0.12)">
     <defs>
      <path d="M -9 0 
L 1750 4581 
L 2403 4581 
L 4278 0 
L 3588 0 
L 3053 1388 
L 1138 1388 
L 634 0 
L -9 0 
z
M 1313 1881 
L 2866 1881 
L 2388 3150 
Q 2169 3728 2063 4100 
Q 1975 3659 1816 3225 
L 1313 1881 
z
" id="ArialMT-41" transform="scale(0.015625)"/>
      <path d="M 2588 1216 
L 3141 1144 
Q 3050 572 2676 248 
Q 2303 -75 1759 -75 
Q 1078 -75 664 370 
Q 250 816 250 1647 
Q 250 2184 428 2587 
Q 606 2991 970 3192 
Q 1334 3394 1763 3394 
Q 2303 3394 2647 3120 
Q 2991 2847 3088 2344 
L 2541 2259 
Q 2463 2594 2264 2762 
Q 2066 2931 1784 2931 
Q 1359 2931 1093 2626 
Q 828 2322 828 1663 
Q 828 994 1084 691 
Q 1341 388 1753 388 
Q 2084 388 2306 591 
Q 2528 794 2588 1216 
z
" id="ArialMT-63" transform="scale(0.015625)"/>
      <path d="M 1650 503 
L 1731 6 
Q 1494 -44 1306 -44 
Q 1000 -44 831 53 
Q 663 150 594 308 
Q 525 466 525 972 
L 525 2881 
L 113 2881 
L 113 3319 
L 525 3319 
L 525 4141 
L 1084 4478 
L 1084 3319 
L 1650 3319 
L 1650 2881 
L 1084 2881 
L 1084 941 
Q 1084 700 1114 631 
Q 1144 563 1211 522 
Q 1278 481 1403 481 
Q 1497 481 1650 503 
z
" id="ArialMT-74" transform="scale(0.015625)"/>
      <path d="M 425 3934 
L 425 4581 
L 988 4581 
L 988 3934 
L 425 3934 
z
M 425 0 
L 425 3319 
L 988 3319 
L 988 0 
L 425 0 
z
" id="ArialMT-69" transform="scale(0.015625)"/>
      <path d="M 1344 0 
L 81 3319 
L 675 3319 
L 1388 1331 
Q 1503 1009 1600 663 
Q 1675 925 1809 1294 
L 2547 3319 
L 3125 3319 
L 1869 0 
L 1344 0 
z
" id="ArialMT-76" transform="scale(0.015625)"/>
      <path d="M 2588 409 
Q 2275 144 1986 34 
Q 1697 -75 1366 -75 
Q 819 -75 525 192 
Q 231 459 231 875 
Q 231 1119 342 1320 
Q 453 1522 633 1644 
Q 813 1766 1038 1828 
Q 1203 1872 1538 1913 
Q 2219 1994 2541 2106 
Q 2544 2222 2544 2253 
Q 2544 2597 2384 2738 
Q 2169 2928 1744 2928 
Q 1347 2928 1158 2789 
Q 969 2650 878 2297 
L 328 2372 
Q 403 2725 575 2942 
Q 747 3159 1072 3276 
Q 1397 3394 1825 3394 
Q 2250 3394 2515 3294 
Q 2781 3194 2906 3042 
Q 3031 2891 3081 2659 
Q 3109 2516 3109 2141 
L 3109 1391 
Q 3109 606 3145 398 
Q 3181 191 3288 0 
L 2700 0 
Q 2613 175 2588 409 
z
M 2541 1666 
Q 2234 1541 1622 1453 
Q 1275 1403 1131 1340 
Q 988 1278 909 1158 
Q 831 1038 831 891 
Q 831 666 1001 516 
Q 1172 366 1500 366 
Q 1825 366 2078 508 
Q 2331 650 2450 897 
Q 2541 1088 2541 1459 
L 2541 1666 
z
" id="ArialMT-61" transform="scale(0.015625)"/>
      <path d="M 213 1659 
Q 213 2581 725 3025 
Q 1153 3394 1769 3394 
Q 2453 3394 2887 2945 
Q 3322 2497 3322 1706 
Q 3322 1066 3130 698 
Q 2938 331 2570 128 
Q 2203 -75 1769 -75 
Q 1072 -75 642 372 
Q 213 819 213 1659 
z
M 791 1659 
Q 791 1022 1069 705 
Q 1347 388 1769 388 
Q 2188 388 2466 706 
Q 2744 1025 2744 1678 
Q 2744 2294 2464 2611 
Q 2184 2928 1769 2928 
Q 1347 2928 1069 2612 
Q 791 2297 791 1659 
z
" id="ArialMT-6f" transform="scale(0.015625)"/>
      <path d="M 422 0 
L 422 3319 
L 928 3319 
L 928 2847 
Q 1294 3394 1984 3394 
Q 2284 3394 2536 3286 
Q 2788 3178 2913 3003 
Q 3038 2828 3088 2588 
Q 3119 2431 3119 2041 
L 3119 0 
L 2556 0 
L 2556 2019 
Q 2556 2363 2490 2533 
Q 2425 2703 2258 2804 
Q 2091 2906 1866 2906 
Q 1506 2906 1245 2678 
Q 984 2450 984 1813 
L 984 0 
L 422 0 
z
" id="ArialMT-6e" transform="scale(0.015625)"/>
      <path d="M 197 991 
L 753 1078 
Q 800 744 1014 566 
Q 1228 388 1613 388 
Q 2000 388 2187 545 
Q 2375 703 2375 916 
Q 2375 1106 2209 1216 
Q 2094 1291 1634 1406 
Q 1016 1563 777 1677 
Q 538 1791 414 1992 
Q 291 2194 291 2438 
Q 291 2659 392 2848 
Q 494 3038 669 3163 
Q 800 3259 1026 3326 
Q 1253 3394 1513 3394 
Q 1903 3394 2198 3281 
Q 2494 3169 2634 2976 
Q 2775 2784 2828 2463 
L 2278 2388 
Q 2241 2644 2061 2787 
Q 1881 2931 1553 2931 
Q 1166 2931 1000 2803 
Q 834 2675 834 2503 
Q 834 2394 903 2306 
Q 972 2216 1119 2156 
Q 1203 2125 1616 2013 
Q 2213 1853 2448 1751 
Q 2684 1650 2818 1456 
Q 2953 1263 2953 975 
Q 2953 694 2789 445 
Q 2625 197 2315 61 
Q 2006 -75 1616 -75 
Q 969 -75 630 194 
Q 291 463 197 991 
z
" id="ArialMT-73" transform="scale(0.015625)"/>
      <path id="ArialMT-20" transform="scale(0.015625)"/>
      <path d="M 556 0 
L 556 2881 
L 59 2881 
L 59 3319 
L 556 3319 
L 556 3672 
Q 556 4006 616 4169 
Q 697 4388 901 4523 
Q 1106 4659 1475 4659 
Q 1713 4659 2000 4603 
L 1916 4113 
Q 1741 4144 1584 4144 
Q 1328 4144 1222 4034 
Q 1116 3925 1116 3625 
L 1116 3319 
L 1763 3319 
L 1763 2881 
L 1116 2881 
L 1116 0 
L 556 0 
z
" id="ArialMT-66" transform="scale(0.015625)"/>
      <path d="M 416 0 
L 416 3319 
L 922 3319 
L 922 2816 
Q 1116 3169 1280 3281 
Q 1444 3394 1641 3394 
Q 1925 3394 2219 3213 
L 2025 2691 
Q 1819 2813 1613 2813 
Q 1428 2813 1281 2702 
Q 1134 2591 1072 2394 
Q 978 2094 978 1738 
L 978 0 
L 416 0 
z
" id="ArialMT-72" transform="scale(0.015625)"/>
      <path d="M 3384 2003 
L 350 706 
L 350 1266 
L 2753 2263 
L 350 3250 
L 350 3809 
L 3384 2528 
L 3384 2003 
z
" id="ArialMT-3e" transform="scale(0.015625)"/>
      <path d="M 578 2678 
L 578 3319 
L 1219 3319 
L 1219 2678 
L 578 2678 
z
M 578 0 
L 578 641 
L 1219 641 
L 1219 0 
L 578 0 
z
" id="ArialMT-3a" transform="scale(0.015625)"/>
      <path d="M 350 2003 
L 350 2528 
L 3384 3809 
L 3384 3250 
L 978 2263 
L 3384 1266 
L 3384 706 
L 350 2003 
z
" id="ArialMT-3c" transform="scale(0.015625)"/>
     </defs>
     <use xlink:href="#ArialMT-41"/>
     <use x="66.699219" xlink:href="#ArialMT-63"/>
     <use x="116.699219" xlink:href="#ArialMT-74"/>
     <use x="144.482422" xlink:href="#ArialMT-69"/>
     <use x="166.699219" xlink:href="#ArialMT-76"/>
     <use x="216.699219" xlink:href="#ArialMT-61"/>
     <use x="272.314453" xlink:href="#ArialMT-74"/>
     <use x="300.097656" xlink:href="#ArialMT-69"/>
     <use x="322.314453" xlink:href="#ArialMT-6f"/>
     <use x="377.929688" xlink:href="#ArialMT-6e"/>
     <use x="433.544922" xlink:href="#ArialMT-73"/>
     <use x="483.544922" xlink:href="#ArialMT-20"/>
     <use x="511.328125" xlink:href="#ArialMT-66"/>
     <use x="539.111328" xlink:href="#ArialMT-6f"/>
     <use x="594.726562" xlink:href="#ArialMT-72"/>
     <use x="628.027344" xlink:href="#ArialMT-20"/>
     <use x="655.810547" xlink:href="#ArialMT-3e"/>
     <use x="714.208984" xlink:href="#ArialMT-3a"/>
     <use x="741.992188" xlink:href="#ArialMT-3c"/>
    </g>
   </g>
   <g id="legend_1">
    <g id="patch_7">
     <path d="M 640.044062 158.514363 
L 750.46 158.514363 
Q 752.66 158.514363 752.66 156.314363 
L 752.66 79.1528 
Q 752.66 76.9528 750.46 76.9528 
L 640.044062 76.9528 
Q 637.844062 76.9528 637.844062 79.1528 
L 637.844062 156.314363 
Q 637.844062 158.514363 640.044062 158.514363 
z
" style="fill:#ffffff;opacity:0.8;stroke:#cccccc;stroke-linejoin:miter;"/>
    </g>
    <g id="line2d_11">
     <path d="M 642.244062 85.376394 
L 664.244062 85.376394 
" style="fill:none;stroke:#4c72b0;stroke-linecap:round;stroke-width:1.5;"/>
    </g>
    <g id="line2d_12"/>
    <g id="text_17">
     <!-- regular -->
     <g style="fill:#262626;" transform="translate(673.044062 89.226394)scale(0.11 -0.11)">
      <defs>
       <path d="M 2694 1069 
L 3275 997 
Q 3138 488 2766 206 
Q 2394 -75 1816 -75 
Q 1088 -75 661 373 
Q 234 822 234 1631 
Q 234 2469 665 2931 
Q 1097 3394 1784 3394 
Q 2450 3394 2872 2941 
Q 3294 2488 3294 1666 
Q 3294 1616 3291 1516 
L 816 1516 
Q 847 969 1125 678 
Q 1403 388 1819 388 
Q 2128 388 2347 550 
Q 2566 713 2694 1069 
z
M 847 1978 
L 2700 1978 
Q 2663 2397 2488 2606 
Q 2219 2931 1791 2931 
Q 1403 2931 1139 2672 
Q 875 2413 847 1978 
z
" id="ArialMT-65" transform="scale(0.015625)"/>
       <path d="M 319 -275 
L 866 -356 
Q 900 -609 1056 -725 
Q 1266 -881 1628 -881 
Q 2019 -881 2231 -725 
Q 2444 -569 2519 -288 
Q 2563 -116 2559 434 
Q 2191 0 1641 0 
Q 956 0 581 494 
Q 206 988 206 1678 
Q 206 2153 378 2554 
Q 550 2956 876 3175 
Q 1203 3394 1644 3394 
Q 2231 3394 2613 2919 
L 2613 3319 
L 3131 3319 
L 3131 450 
Q 3131 -325 2973 -648 
Q 2816 -972 2473 -1159 
Q 2131 -1347 1631 -1347 
Q 1038 -1347 672 -1080 
Q 306 -813 319 -275 
z
M 784 1719 
Q 784 1066 1043 766 
Q 1303 466 1694 466 
Q 2081 466 2343 764 
Q 2606 1063 2606 1700 
Q 2606 2309 2336 2618 
Q 2066 2928 1684 2928 
Q 1309 2928 1046 2623 
Q 784 2319 784 1719 
z
" id="ArialMT-67" transform="scale(0.015625)"/>
       <path d="M 2597 0 
L 2597 488 
Q 2209 -75 1544 -75 
Q 1250 -75 995 37 
Q 741 150 617 320 
Q 494 491 444 738 
Q 409 903 409 1263 
L 409 3319 
L 972 3319 
L 972 1478 
Q 972 1038 1006 884 
Q 1059 663 1231 536 
Q 1403 409 1656 409 
Q 1909 409 2131 539 
Q 2353 669 2445 892 
Q 2538 1116 2538 1541 
L 2538 3319 
L 3100 3319 
L 3100 0 
L 2597 0 
z
" id="ArialMT-75" transform="scale(0.015625)"/>
       <path d="M 409 0 
L 409 4581 
L 972 4581 
L 972 0 
L 409 0 
z
" id="ArialMT-6c" transform="scale(0.015625)"/>
      </defs>
      <use xlink:href="#ArialMT-72"/>
      <use x="33.300781" xlink:href="#ArialMT-65"/>
      <use x="88.916016" xlink:href="#ArialMT-67"/>
      <use x="144.53125" xlink:href="#ArialMT-75"/>
      <use x="200.146484" xlink:href="#ArialMT-6c"/>
      <use x="222.363281" xlink:href="#ArialMT-61"/>
      <use x="277.978516" xlink:href="#ArialMT-72"/>
     </g>
    </g>
    <g id="line2d_13">
     <path d="M 642.244062 101.0978 
L 664.244062 101.0978 
" style="fill:none;stroke:#dd8452;stroke-dasharray:6,2.25;stroke-dashoffset:0;stroke-width:1.5;"/>
    </g>
    <g id="line2d_14"/>
    <g id="text_18">
     <!-- splitted_3s -->
     <g style="fill:#262626;" transform="translate(673.044062 104.9478)scale(0.11 -0.11)">
      <defs>
       <path d="M 422 -1272 
L 422 3319 
L 934 3319 
L 934 2888 
Q 1116 3141 1344 3267 
Q 1572 3394 1897 3394 
Q 2322 3394 2647 3175 
Q 2972 2956 3137 2557 
Q 3303 2159 3303 1684 
Q 3303 1175 3120 767 
Q 2938 359 2589 142 
Q 2241 -75 1856 -75 
Q 1575 -75 1351 44 
Q 1128 163 984 344 
L 984 -1272 
L 422 -1272 
z
M 931 1641 
Q 931 1000 1190 694 
Q 1450 388 1819 388 
Q 2194 388 2461 705 
Q 2728 1022 2728 1688 
Q 2728 2322 2467 2637 
Q 2206 2953 1844 2953 
Q 1484 2953 1207 2617 
Q 931 2281 931 1641 
z
" id="ArialMT-70" transform="scale(0.015625)"/>
       <path d="M 2575 0 
L 2575 419 
Q 2259 -75 1647 -75 
Q 1250 -75 917 144 
Q 584 363 401 755 
Q 219 1147 219 1656 
Q 219 2153 384 2558 
Q 550 2963 881 3178 
Q 1213 3394 1622 3394 
Q 1922 3394 2156 3267 
Q 2391 3141 2538 2938 
L 2538 4581 
L 3097 4581 
L 3097 0 
L 2575 0 
z
M 797 1656 
Q 797 1019 1065 703 
Q 1334 388 1700 388 
Q 2069 388 2326 689 
Q 2584 991 2584 1609 
Q 2584 2291 2321 2609 
Q 2059 2928 1675 2928 
Q 1300 2928 1048 2622 
Q 797 2316 797 1656 
z
" id="ArialMT-64" transform="scale(0.015625)"/>
       <path d="M -97 -1272 
L -97 -866 
L 3631 -866 
L 3631 -1272 
L -97 -1272 
z
" id="ArialMT-5f" transform="scale(0.015625)"/>
       <path d="M 269 1209 
L 831 1284 
Q 928 806 1161 595 
Q 1394 384 1728 384 
Q 2125 384 2398 659 
Q 2672 934 2672 1341 
Q 2672 1728 2419 1979 
Q 2166 2231 1775 2231 
Q 1616 2231 1378 2169 
L 1441 2663 
Q 1497 2656 1531 2656 
Q 1891 2656 2178 2843 
Q 2466 3031 2466 3422 
Q 2466 3731 2256 3934 
Q 2047 4138 1716 4138 
Q 1388 4138 1169 3931 
Q 950 3725 888 3313 
L 325 3413 
Q 428 3978 793 4289 
Q 1159 4600 1703 4600 
Q 2078 4600 2393 4439 
Q 2709 4278 2876 4000 
Q 3044 3722 3044 3409 
Q 3044 3113 2884 2869 
Q 2725 2625 2413 2481 
Q 2819 2388 3044 2092 
Q 3269 1797 3269 1353 
Q 3269 753 2831 336 
Q 2394 -81 1725 -81 
Q 1122 -81 723 278 
Q 325 638 269 1209 
z
" id="ArialMT-33" transform="scale(0.015625)"/>
      </defs>
      <use xlink:href="#ArialMT-73"/>
      <use x="50" xlink:href="#ArialMT-70"/>
      <use x="105.615234" xlink:href="#ArialMT-6c"/>
      <use x="127.832031" xlink:href="#ArialMT-69"/>
      <use x="150.048828" xlink:href="#ArialMT-74"/>
      <use x="177.832031" xlink:href="#ArialMT-74"/>
      <use x="205.615234" xlink:href="#ArialMT-65"/>
      <use x="261.230469" xlink:href="#ArialMT-64"/>
      <use x="316.845703" xlink:href="#ArialMT-5f"/>
      <use x="372.460938" xlink:href="#ArialMT-33"/>
      <use x="428.076172" xlink:href="#ArialMT-73"/>
     </g>
    </g>
    <g id="line2d_15">
     <path d="M 642.244062 116.6903 
L 664.244062 116.6903 
" style="fill:none;stroke:#55a868;stroke-dasharray:1.5,1.5;stroke-dashoffset:0;stroke-width:1.5;"/>
    </g>
    <g id="line2d_16"/>
    <g id="text_19">
     <!-- splitted_1s -->
     <g style="fill:#262626;" transform="translate(673.044062 120.5403)scale(0.11 -0.11)">
      <use xlink:href="#ArialMT-73"/>
      <use x="50" xlink:href="#ArialMT-70"/>
      <use x="105.615234" xlink:href="#ArialMT-6c"/>
      <use x="127.832031" xlink:href="#ArialMT-69"/>
      <use x="150.048828" xlink:href="#ArialMT-74"/>
      <use x="177.832031" xlink:href="#ArialMT-74"/>
      <use x="205.615234" xlink:href="#ArialMT-65"/>
      <use x="261.230469" xlink:href="#ArialMT-64"/>
      <use x="316.845703" xlink:href="#ArialMT-5f"/>
      <use x="372.460938" xlink:href="#ArialMT-31"/>
      <use x="428.076172" xlink:href="#ArialMT-73"/>
     </g>
    </g>
    <g id="line2d_17">
     <path d="M 642.244062 132.384206 
L 664.244062 132.384206 
" style="fill:none;stroke:#c44e52;stroke-dasharray:4.5,1.875,2.25,1.875;stroke-dashoffset:0;stroke-width:1.5;"/>
    </g>
    <g id="line2d_18"/>
    <g id="text_20">
     <!-- overlap_1f_3s -->
     <g style="fill:#262626;" transform="translate(673.044062 136.234206)scale(0.11 -0.11)">
      <use xlink:href="#ArialMT-6f"/>
      <use x="55.615234" xlink:href="#ArialMT-76"/>
      <use x="105.615234" xlink:href="#ArialMT-65"/>
      <use x="161.230469" xlink:href="#ArialMT-72"/>
      <use x="194.53125" xlink:href="#ArialMT-6c"/>
      <use x="216.748047" xlink:href="#ArialMT-61"/>
      <use x="272.363281" xlink:href="#ArialMT-70"/>
      <use x="327.978516" xlink:href="#ArialMT-5f"/>
      <use x="383.59375" xlink:href="#ArialMT-31"/>
      <use x="439.208984" xlink:href="#ArialMT-66"/>
      <use x="466.992188" xlink:href="#ArialMT-5f"/>
      <use x="522.607422" xlink:href="#ArialMT-33"/>
      <use x="578.222656" xlink:href="#ArialMT-73"/>
     </g>
    </g>
    <g id="line2d_19">
     <path d="M 642.244062 148.078113 
L 664.244062 148.078113 
" style="fill:none;stroke:#8172b3;stroke-dasharray:7.5,1.5,1.5,1.5;stroke-dashoffset:0;stroke-width:1.5;"/>
    </g>
    <g id="line2d_20"/>
    <g id="text_21">
     <!-- overlap_10f_3s -->
     <g style="fill:#262626;" transform="translate(673.044062 151.928112)scale(0.11 -0.11)">
      <use xlink:href="#ArialMT-6f"/>
      <use x="55.615234" xlink:href="#ArialMT-76"/>
      <use x="105.615234" xlink:href="#ArialMT-65"/>
      <use x="161.230469" xlink:href="#ArialMT-72"/>
      <use x="194.53125" xlink:href="#ArialMT-6c"/>
      <use x="216.748047" xlink:href="#ArialMT-61"/>
      <use x="272.363281" xlink:href="#ArialMT-70"/>
      <use x="327.978516" xlink:href="#ArialMT-5f"/>
      <use x="383.59375" xlink:href="#ArialMT-31"/>
      <use x="439.208984" xlink:href="#ArialMT-30"/>
      <use x="494.824219" xlink:href="#ArialMT-66"/>
      <use x="522.607422" xlink:href="#ArialMT-5f"/>
      <use x="578.222656" xlink:href="#ArialMT-33"/>
      <use x="633.837891" xlink:href="#ArialMT-73"/>
     </g>
    </g>
   </g>
  </g>
 </g>
 <defs>
  <clipPath id="pc1ebf4c790">
   <rect height="458.4888" width="652.86" x="105.3" y="71.4528"/>
  </clipPath>
 </defs>
</svg>
