<?xml version="1.0" encoding="utf-8" standalone="no"?>
<!DOCTYPE svg PUBLIC "-//W3C//DTD SVG 1.1//EN"
  "http://www.w3.org/Graphics/SVG/1.1/DTD/svg11.dtd">
<svg height="595.44pt" version="1.1" viewBox="0 0 842.4 595.44" width="842.4pt" xmlns="http://www.w3.org/2000/svg" xmlns:xlink="http://www.w3.org/1999/xlink">
 <metadata>
  <rdf:RDF xmlns:cc="http://creativecommons.org/ns#" xmlns:dc="http://purl.org/dc/elements/1.1/" xmlns:rdf="http://www.w3.org/1999/02/22-rdf-syntax-ns#">
   <cc:Work>
    <dc:type rdf:resource="http://purl.org/dc/dcmitype/StillImage"/>
    <dc:date>2021-06-04T22:03:13.734825</dc:date>
    <dc:format>image/svg+xml</dc:format>
    <dc:creator>
     <cc:Agent>
      <dc:title>Matplotlib v3.4.1, https://matplotlib.org/</dc:title>
     </cc:Agent>
    </dc:creator>
   </cc:Work>
  </rdf:RDF>
 </metadata>
 <defs>
  <style type="text/css">*{stroke-linecap:butt;stroke-linejoin:round;}</style>
 </defs>
 <g id="figure_1">
  <g id="patch_1">
   <path d="M 0 595.44 
L 842.4 595.44 
L 842.4 0 
L 0 0 
z
" style="fill:#ffffff;"/>
  </g>
  <g id="axes_1">
   <g id="patch_2">
    <path d="M 105.3 529.9416 
L 758.16 529.9416 
L 758.16 71.4528 
L 105.3 71.4528 
z
" style="fill:#ffffff;"/>
   </g>
   <g id="matplotlib.axis_1">
    <g id="xtick_1">
     <g id="text_1">
      <!-- 0 -->
      <g style="fill:#262626;" transform="translate(131.916939 547.315194)scale(0.11 -0.11)">
       <defs>
        <path d="M 266 2259 
Q 266 3072 433 3567 
Q 600 4063 929 4331 
Q 1259 4600 1759 4600 
Q 2128 4600 2406 4451 
Q 2684 4303 2865 4023 
Q 3047 3744 3150 3342 
Q 3253 2941 3253 2259 
Q 3253 1453 3087 958 
Q 2922 463 2592 192 
Q 2263 -78 1759 -78 
Q 1097 -78 719 397 
Q 266 969 266 2259 
z
M 844 2259 
Q 844 1131 1108 757 
Q 1372 384 1759 384 
Q 2147 384 2411 759 
Q 2675 1134 2675 2259 
Q 2675 3391 2411 3762 
Q 2147 4134 1753 4134 
Q 1366 4134 1134 3806 
Q 844 3388 844 2259 
z
" id="ArialMT-30" transform="scale(0.015625)"/>
       </defs>
       <use xlink:href="#ArialMT-30"/>
      </g>
     </g>
    </g>
    <g id="xtick_2">
     <g id="text_2">
      <!-- 25 -->
      <g style="fill:#262626;" transform="translate(201.950676 547.315194)scale(0.11 -0.11)">
       <defs>
        <path d="M 3222 541 
L 3222 0 
L 194 0 
Q 188 203 259 391 
Q 375 700 629 1000 
Q 884 1300 1366 1694 
Q 2113 2306 2375 2664 
Q 2638 3022 2638 3341 
Q 2638 3675 2398 3904 
Q 2159 4134 1775 4134 
Q 1369 4134 1125 3890 
Q 881 3647 878 3216 
L 300 3275 
Q 359 3922 746 4261 
Q 1134 4600 1788 4600 
Q 2447 4600 2831 4234 
Q 3216 3869 3216 3328 
Q 3216 3053 3103 2787 
Q 2991 2522 2730 2228 
Q 2469 1934 1863 1422 
Q 1356 997 1212 845 
Q 1069 694 975 541 
L 3222 541 
z
" id="ArialMT-32" transform="scale(0.015625)"/>
        <path d="M 266 1200 
L 856 1250 
Q 922 819 1161 601 
Q 1400 384 1738 384 
Q 2144 384 2425 690 
Q 2706 997 2706 1503 
Q 2706 1984 2436 2262 
Q 2166 2541 1728 2541 
Q 1456 2541 1237 2417 
Q 1019 2294 894 2097 
L 366 2166 
L 809 4519 
L 3088 4519 
L 3088 3981 
L 1259 3981 
L 1013 2750 
Q 1425 3038 1878 3038 
Q 2478 3038 2890 2622 
Q 3303 2206 3303 1553 
Q 3303 931 2941 478 
Q 2500 -78 1738 -78 
Q 1113 -78 717 272 
Q 322 622 266 1200 
z
" id="ArialMT-35" transform="scale(0.015625)"/>
       </defs>
       <use xlink:href="#ArialMT-32"/>
       <use x="55.615234" xlink:href="#ArialMT-35"/>
      </g>
     </g>
    </g>
    <g id="xtick_3">
     <g id="text_3">
      <!-- 50 -->
      <g style="fill:#262626;" transform="translate(275.042928 547.315194)scale(0.11 -0.11)">
       <use xlink:href="#ArialMT-35"/>
       <use x="55.615234" xlink:href="#ArialMT-30"/>
      </g>
     </g>
    </g>
    <g id="xtick_4">
     <g id="text_4">
      <!-- 75 -->
      <g style="fill:#262626;" transform="translate(348.135181 547.315194)scale(0.11 -0.11)">
       <defs>
        <path d="M 303 3981 
L 303 4522 
L 3269 4522 
L 3269 4084 
Q 2831 3619 2401 2847 
Q 1972 2075 1738 1259 
Q 1569 684 1522 0 
L 944 0 
Q 953 541 1156 1306 
Q 1359 2072 1739 2783 
Q 2119 3494 2547 3981 
L 303 3981 
z
" id="ArialMT-37" transform="scale(0.015625)"/>
       </defs>
       <use xlink:href="#ArialMT-37"/>
       <use x="55.615234" xlink:href="#ArialMT-35"/>
      </g>
     </g>
    </g>
    <g id="xtick_5">
     <g id="text_5">
      <!-- 100 -->
      <g style="fill:#262626;" transform="translate(418.168918 547.315194)scale(0.11 -0.11)">
       <defs>
        <path d="M 2384 0 
L 1822 0 
L 1822 3584 
Q 1619 3391 1289 3197 
Q 959 3003 697 2906 
L 697 3450 
Q 1169 3672 1522 3987 
Q 1875 4303 2022 4600 
L 2384 4600 
L 2384 0 
z
" id="ArialMT-31" transform="scale(0.015625)"/>
       </defs>
       <use xlink:href="#ArialMT-31"/>
       <use x="55.615234" xlink:href="#ArialMT-30"/>
       <use x="111.230469" xlink:href="#ArialMT-30"/>
      </g>
     </g>
    </g>
    <g id="xtick_6">
     <g id="text_6">
      <!-- 125 -->
      <g style="fill:#262626;" transform="translate(491.261171 547.315194)scale(0.11 -0.11)">
       <use xlink:href="#ArialMT-31"/>
       <use x="55.615234" xlink:href="#ArialMT-32"/>
       <use x="111.230469" xlink:href="#ArialMT-35"/>
      </g>
     </g>
    </g>
    <g id="xtick_7">
     <g id="text_7">
      <!-- 150 -->
      <g style="fill:#262626;" transform="translate(564.353423 547.315194)scale(0.11 -0.11)">
       <use xlink:href="#ArialMT-31"/>
       <use x="55.615234" xlink:href="#ArialMT-35"/>
       <use x="111.230469" xlink:href="#ArialMT-30"/>
      </g>
     </g>
    </g>
    <g id="xtick_8">
     <g id="text_8">
      <!-- 175 -->
      <g style="fill:#262626;" transform="translate(637.445676 547.315194)scale(0.11 -0.11)">
       <use xlink:href="#ArialMT-31"/>
       <use x="55.615234" xlink:href="#ArialMT-37"/>
       <use x="111.230469" xlink:href="#ArialMT-35"/>
      </g>
     </g>
    </g>
    <g id="xtick_9">
     <g id="text_9">
      <!-- 200 -->
      <g style="fill:#262626;" transform="translate(710.537928 547.315194)scale(0.11 -0.11)">
       <use xlink:href="#ArialMT-32"/>
       <use x="55.615234" xlink:href="#ArialMT-30"/>
       <use x="111.230469" xlink:href="#ArialMT-30"/>
      </g>
     </g>
    </g>
   </g>
   <g id="matplotlib.axis_2">
    <g id="ytick_1">
     <g id="text_10">
      <!-- −25 -->
      <g style="fill:#262626;" transform="translate(77.14125 533.878397)scale(0.11 -0.11)">
       <defs>
        <path d="M 3381 1997 
L 356 1997 
L 356 2522 
L 3381 2522 
L 3381 1997 
z
" id="ArialMT-2212" transform="scale(0.015625)"/>
       </defs>
       <use xlink:href="#ArialMT-2212"/>
       <use x="58.398438" xlink:href="#ArialMT-32"/>
       <use x="114.013672" xlink:href="#ArialMT-35"/>
      </g>
     </g>
    </g>
    <g id="ytick_2">
     <g id="text_11">
      <!-- −20 -->
      <g style="fill:#262626;" transform="translate(77.14125 442.180637)scale(0.11 -0.11)">
       <use xlink:href="#ArialMT-2212"/>
       <use x="58.398438" xlink:href="#ArialMT-32"/>
       <use x="114.013672" xlink:href="#ArialMT-30"/>
      </g>
     </g>
    </g>
    <g id="ytick_3">
     <g id="text_12">
      <!-- −15 -->
      <g style="fill:#262626;" transform="translate(77.14125 350.482877)scale(0.11 -0.11)">
       <use xlink:href="#ArialMT-2212"/>
       <use x="58.398438" xlink:href="#ArialMT-31"/>
       <use x="114.013672" xlink:href="#ArialMT-35"/>
      </g>
     </g>
    </g>
    <g id="ytick_4">
     <g id="text_13">
      <!-- −10 -->
      <g style="fill:#262626;" transform="translate(77.14125 258.785117)scale(0.11 -0.11)">
       <use xlink:href="#ArialMT-2212"/>
       <use x="58.398438" xlink:href="#ArialMT-31"/>
       <use x="114.013672" xlink:href="#ArialMT-30"/>
      </g>
     </g>
    </g>
    <g id="ytick_5">
     <g id="text_14">
      <!-- −5 -->
      <g style="fill:#262626;" transform="translate(83.258281 167.087357)scale(0.11 -0.11)">
       <use xlink:href="#ArialMT-2212"/>
       <use x="58.398438" xlink:href="#ArialMT-35"/>
      </g>
     </g>
    </g>
    <g id="ytick_6">
     <g id="text_15">
      <!-- 0 -->
      <g style="fill:#262626;" transform="translate(89.682969 75.389597)scale(0.11 -0.11)">
       <use xlink:href="#ArialMT-30"/>
      </g>
     </g>
    </g>
   </g>
   <g id="line2d_1">
    <path clip-path="url(#pc6cd1acfb7)" d="M 134.975455 379.386243 
L 137.899145 377.733547 
L 140.822835 376.913547 
L 143.746525 374.999831 
L 149.593905 379.741674 
L 152.517595 376.161304 
L 155.441285 378.451649 
L 158.364975 380.159579 
L 161.288665 375.745113 
L 164.212356 381.788909 
L 167.136046 383.643334 
L 170.059736 408.040603 
L 172.983426 415.557228 
L 175.907116 430.512403 
L 178.830806 465.206817 
L 181.754496 521.277774 
L 184.678186 440.328538 
L 187.601876 381.032853 
L 190.525567 476.240917 
L 193.449257 442.4769 
L 196.372947 422.54062 
L 199.296637 461.848604 
L 202.220327 348.996336 
L 205.144017 365.371468 
L 208.067707 537.431186 
L 210.991397 515.484224 
L 213.915087 484.034199 
L 216.838777 462.018187 
L 219.762468 490.35591 
L 222.686158 456.427661 
L 225.609848 402.843077 
L 228.533538 386.092453 
L 231.457228 481.58424 
L 234.380918 379.058761 
L 237.304608 475.760013 
L 240.228298 469.67732 
L 243.151988 461.675279 
L 246.075678 412.032477 
L 248.999369 392.380478 
L 251.923059 460.229979 
L 254.846749 452.30115 
L 257.770439 445.722932 
L 260.694129 403.412585 
L 263.617819 513.118323 
L 266.541509 413.136618 
L 269.465199 420.139283 
L 272.388889 425.529304 
L 275.312579 438.113925 
L 278.23627 453.445798 
L 281.15996 434.117784 
L 284.08365 390.636415 
L 287.00734 395.012123 
L 289.93103 454.001699 
L 292.85472 409.907587 
L 295.77841 387.129118 
L 298.7021 448.458956 
L 301.62579 424.248514 
L 304.549481 397.905452 
L 307.473171 374.297539 
L 310.396861 357.514576 
L 313.320551 326.186735 
L 316.244241 452.409098 
L 319.167931 451.379254 
L 322.091621 503.677837 
L 325.015311 428.546357 
L 327.939001 442.607515 
L 330.862691 463.228038 
L 333.786382 432.235969 
L 336.710072 439.779284 
L 339.633762 494.199328 
L 342.557452 478.349752 
L 345.481142 412.91509 
L 348.404832 393.00459 
L 351.328522 403.950227 
L 354.252212 459.966125 
L 357.175902 429.895602 
L 360.099592 422.611174 
L 363.023283 519.051931 
L 365.946973 453.730989 
L 368.870663 410.104419 
L 371.794353 442.935976 
L 374.718043 527.975903 
L 377.641733 576.830923 
L 380.565423 527.703375 
L 383.489113 459.949789 
L 386.412803 366.181323 
L 389.336494 379.166289 
L 392.260184 428.661126 
L 395.183874 486.081608 
L 398.107564 484.251809 
L 401.031254 468.351826 
L 403.954944 461.342095 
L 406.878634 446.980215 
L 409.802324 402.892889 
L 412.726014 383.712559 
L 415.649704 449.756116 
L 418.573395 427.729856 
L 421.497085 472.483724 
L 424.420775 556.882539 
L 427.344465 482.319203 
L 430.268155 514.179264 
L 433.191845 502.552078 
L 436.115535 409.104972 
L 439.039225 450.338952 
L 441.962915 528.387862 
L 444.886605 515.830805 
L 447.810296 431.251214 
L 450.733986 389.939335 
L 453.657676 485.649956 
L 456.581366 431.342827 
L 459.505056 451.239335 
L 462.428746 385.740765 
L 465.352436 425.629242 
L 468.276126 446.860723 
L 471.199816 398.624359 
L 474.123506 389.932654 
L 477.047197 375.804824 
L 479.970887 353.657865 
L 482.894577 462.717471 
L 485.818267 451.400522 
L 488.741957 453.61685 
L 491.665647 407.474803 
L 494.589337 342.565068 
L 497.513027 431.618084 
L 500.436717 385.402649 
L 503.360408 370.835471 
L 506.284098 457.054152 
L 509.207788 473.469738 
L 512.131478 473.210397 
L 515.055168 460.781962 
L 517.978858 379.5737 
L 520.902548 431.062428 
L 523.826238 471.994985 
L 526.749928 445.620545 
L 529.673618 484.386516 
L 532.597309 500.280972 
L 535.520999 442.819004 
L 538.444689 427.15671 
L 541.368379 492.272284 
L 544.292069 504.096826 
L 547.215759 403.835457 
L 550.139449 413.154843 
L 553.063139 327.443301 
L 555.986829 461.164257 
L 558.910519 464.816511 
L 561.83421 469.049781 
L 564.7579 455.534344 
L 567.68159 382.356388 
L 570.60528 405.305069 
L 573.52897 452.038696 
L 576.45266 490.528151 
L 579.37635 526.333946 
L 582.30004 522.116872 
L 585.22373 476.302972 
L 588.147421 451.06447 
L 591.071111 423.389512 
L 593.994801 409.895903 
L 596.918491 341.33248 
L 599.842181 380.246364 
L 602.765871 443.346711 
L 605.689561 424.262016 
L 608.613251 474.594622 
L 611.536941 567.075618 
L 614.460631 550.403069 
L 617.384322 433.387508 
L 620.308012 447.261243 
L 623.231702 466.179223 
L 626.155392 487.351659 
L 629.079082 464.351628 
L 632.002772 393.769986 
L 634.926462 436.108736 
L 637.850152 520.208297 
L 640.773842 456.538373 
L 643.697532 351.355679 
L 646.621223 347.386805 
L 649.544913 416.763126 
L 652.468603 545.816082 
L 655.392293 511.99078 
L 658.315983 433.87107 
L 661.239673 537.748978 
L 664.163363 489.01366 
L 667.087053 529.281144 
L 670.010743 502.651526 
L 672.934433 453.454228 
L 675.858124 480.308977 
L 678.781814 437.258945 
L 681.705504 482.587044 
L 684.629194 512.488929 
L 687.552884 462.129178 
L 690.476574 557.98766 
L 693.400264 469.665427 
L 696.323954 458.44198 
L 699.247644 436.476689 
L 702.171335 410.143981 
L 705.095025 404.607254 
L 708.018715 399.966643 
L 710.942405 397.494752 
L 713.866095 398.61411 
L 716.789785 395.195138 
L 719.713475 397.94267 
L 722.637165 394.243894 
L 725.560855 399.490986 
L 728.484545 396.213333 
L 728.484545 396.213333 
" style="fill:none;stroke:#4c72b0;stroke-linecap:round;stroke-width:1.5;"/>
   </g>
   <g id="line2d_2">
    <path clip-path="url(#pc6cd1acfb7)" d="M 134.975455 381.127438 
L 137.899145 382.356178 
L 140.822835 383.019012 
L 143.746525 381.149336 
L 146.670215 383.204406 
L 149.593905 386.564682 
L 152.517595 382.326025 
L 155.441285 382.807559 
L 158.364975 382.501484 
L 161.288665 377.355554 
L 164.212356 379.048267 
L 167.136046 375.573641 
L 170.059736 389.319945 
L 172.983426 389.69493 
L 175.907116 407.47204 
L 178.830806 447.36272 
L 181.754496 490.089607 
L 184.678186 424.07267 
L 187.601876 338.393975 
L 190.525567 456.779035 
L 193.449257 419.260797 
L 196.372947 405.358483 
L 199.296637 433.551214 
L 202.220327 352.710836 
L 205.144017 386.282989 
L 208.067707 541.690935 
L 210.991397 543.322539 
L 213.915087 473.269268 
L 216.838777 475.317273 
L 219.762468 484.18937 
L 222.686158 456.340771 
L 225.609848 391.331815 
L 228.533538 365.626542 
L 231.457228 452.926801 
L 234.380918 342.597652 
L 237.304608 443.007615 
L 240.228298 447.88644 
L 243.151988 445.133205 
L 246.075678 403.486463 
L 248.999369 413.594225 
L 251.923059 458.761592 
L 254.846749 449.753598 
L 257.770439 442.934892 
L 260.694129 405.394233 
L 263.617819 513.403024 
L 266.541509 414.629176 
L 269.465199 422.524319 
L 272.388889 437.926117 
L 275.312579 446.654552 
L 278.23627 450.22023 
L 281.15996 438.481983 
L 284.08365 382.023484 
L 287.00734 392.625792 
L 289.93103 465.721546 
L 292.85472 421.815486 
L 295.77841 373.541098 
L 298.7021 443.866897 
L 301.62579 417.512641 
L 304.549481 393.645947 
L 307.473171 380.874988 
L 310.396861 339.318844 
L 313.320551 329.4402 
L 316.244241 454.881759 
L 319.167931 480.388032 
L 322.091621 513.771118 
L 325.015311 434.607433 
L 327.939001 443.664433 
L 330.862691 438.202319 
L 333.786382 399.012706 
L 339.633762 501.402778 
L 342.557452 483.003585 
L 345.481142 434.259557 
L 348.404832 423.031598 
L 351.328522 473.805475 
L 354.252212 436.428137 
L 357.175902 371.688912 
L 360.099592 317.822477 
L 363.023283 349.147834 
L 365.946973 356.772634 
L 368.870663 288.081062 
L 371.794353 306.706855 
L 377.641733 452.934777 
L 380.565423 467.729289 
L 383.489113 379.885686 
L 386.412803 374.901992 
L 389.336494 380.269381 
L 392.260184 413.807918 
L 395.183874 470.485182 
L 398.107564 449.169818 
L 401.031254 437.767973 
L 403.954944 464.236544 
L 406.878634 409.663357 
L 409.802324 388.959267 
L 412.726014 405.692821 
L 415.649704 450.651567 
L 418.573395 434.22059 
L 421.497085 484.878299 
L 424.420775 523.368174 
L 427.344465 424.575297 
L 430.268155 451.663641 
L 433.191845 445.922457 
L 436.115535 377.965778 
L 439.039225 454.977674 
L 441.962915 523.274462 
L 444.886605 466.142075 
L 447.810296 398.21296 
L 450.733986 430.424849 
L 453.657676 490.764825 
L 456.581366 456.428501 
L 459.505056 446.808079 
L 462.428746 383.898408 
L 465.352436 424.856535 
L 468.276126 432.168807 
L 471.199816 411.445549 
L 474.123506 379.423671 
L 477.047197 397.783861 
L 479.970887 334.563726 
L 482.894577 449.10549 
L 485.818267 463.035718 
L 488.741957 460.563127 
L 491.665647 414.793722 
L 494.589337 338.765392 
L 497.513027 424.661837 
L 500.436717 384.884456 
L 503.360408 369.991756 
L 506.284098 467.118154 
L 509.207788 485.504684 
L 512.131478 463.778237 
L 515.055168 462.847071 
L 517.978858 381.735354 
L 520.902548 439.038024 
L 523.826238 475.967514 
L 526.749928 457.961636 
L 529.673618 497.675807 
L 532.597309 497.600461 
L 535.520999 437.580831 
L 538.444689 410.868905 
L 541.368379 432.63397 
L 544.292069 497.822653 
L 547.215759 370.570569 
L 550.139449 379.761088 
L 553.063139 296.958931 
L 555.986829 324.231218 
L 558.910519 286.962649 
L 561.83421 278.145191 
L 564.7579 338.776148 
L 567.68159 327.367797 
L 570.60528 426.391314 
L 573.52897 349.21601 
L 576.45266 383.28528 
L 579.37635 406.055983 
L 582.30004 339.903778 
L 585.22373 424.9783 
L 588.147421 378.87788 
L 591.071111 382.961575 
L 593.994801 385.844026 
L 596.918491 296.075793 
L 599.842181 387.862052 
L 602.765871 415.117986 
L 605.689561 434.009521 
L 608.613251 518.680899 
L 611.536941 559.452374 
L 614.460631 554.601953 
L 617.384322 481.318672 
L 620.308012 454.941819 
L 623.231702 449.187867 
L 626.155392 498.382227 
L 629.079082 449.461271 
L 632.002772 409.177906 
L 634.926462 454.667017 
L 637.850152 510.810977 
L 640.773842 466.511812 
L 643.697532 313.354911 
L 646.621223 328.562921 
L 649.544913 419.03042 
L 652.468603 529.23567 
L 655.392293 493.812135 
L 658.315983 403.132921 
L 661.239673 521.031025 
L 664.163363 462.117705 
L 667.087053 516.259869 
L 670.010743 496.281613 
L 672.934433 444.200955 
L 675.858124 478.066414 
L 678.781814 440.972693 
L 681.705504 471.772792 
L 684.629194 501.106603 
L 687.552884 430.374582 
L 690.476574 528.532644 
L 693.400264 476.517434 
L 696.323954 460.087645 
L 699.247644 431.185697 
L 702.171335 394.845198 
L 705.095025 388.43114 
L 708.018715 388.490082 
L 710.942405 385.520706 
L 713.866095 383.933213 
L 716.789785 382.00463 
L 719.713475 384.918282 
L 722.637165 378.967813 
L 725.560855 385.381486 
L 728.484545 381.357816 
L 728.484545 381.357816 
" style="fill:none;stroke:#dd8452;stroke-dasharray:6,2.25;stroke-dashoffset:0;stroke-width:1.5;"/>
   </g>
   <g id="line2d_3">
    <path clip-path="url(#pc6cd1acfb7)" d="M 134.975455 388.750157 
L 137.899145 389.825545 
L 140.822835 389.697064 
L 143.746525 386.149051 
L 146.670215 391.455959 
L 149.593905 395.840202 
L 152.517595 390.340519 
L 155.441285 410.080248 
L 158.364975 412.622308 
L 161.288665 395.016425 
L 164.212356 399.918791 
L 167.136046 393.876185 
L 170.059736 395.739775 
L 172.983426 403.668218 
L 175.907116 421.384044 
L 178.830806 448.814772 
L 181.754496 490.681782 
L 184.678186 362.105585 
L 187.601876 331.030334 
L 190.525567 341.77314 
L 193.449257 331.98784 
L 196.372947 326.101297 
L 199.296637 374.197811 
L 202.220327 396.3054 
L 205.144017 385.545682 
L 208.067707 367.775673 
L 210.991397 393.033274 
L 213.915087 434.751865 
L 216.838777 420.507202 
L 219.762468 445.160419 
L 222.686158 377.498307 
L 225.609848 293.143776 
L 228.533538 312.475236 
L 231.457228 419.942311 
L 234.380918 314.862668 
L 237.304608 436.070468 
L 240.228298 463.156049 
L 243.151988 456.760285 
L 246.075678 374.180321 
L 248.999369 421.656327 
L 251.923059 394.441075 
L 254.846749 476.6364 
L 257.770439 479.340208 
L 260.694129 423.145317 
L 263.617819 517.048806 
L 266.541509 409.389114 
L 269.465199 461.319078 
L 272.388889 468.472717 
L 275.312579 417.140874 
L 278.23627 427.268191 
L 281.15996 399.954121 
L 284.08365 400.242845 
L 287.00734 279.745068 
L 289.93103 372.143685 
L 292.85472 368.649296 
L 295.77841 433.029698 
L 298.7021 501.413062 
L 301.62579 479.100736 
L 304.549481 416.891153 
L 307.473171 379.85347 
L 310.396861 373.134247 
L 313.320551 381.442537 
L 316.244241 500.878324 
L 319.167931 510.890731 
L 322.091621 558.537299 
L 325.015311 469.439317 
L 327.939001 471.182926 
L 330.862691 489.668939 
L 333.786382 445.123516 
L 336.710072 476.420434 
L 339.633762 539.682703 
L 342.557452 527.167378 
L 345.481142 451.359421 
L 348.404832 440.175676 
L 351.328522 483.261212 
L 354.252212 460.503906 
L 357.175902 395.170896 
L 360.099592 319.369061 
L 363.023283 364.003631 
L 365.946973 333.195591 
L 368.870663 366.501215 
L 371.794353 277.426634 
L 374.718043 396.824502 
L 377.641733 463.278898 
L 380.565423 440.440299 
L 383.489113 351.124444 
L 386.412803 345.204565 
L 389.336494 377.168376 
L 392.260184 413.572153 
L 398.107564 527.539249 
L 401.031254 453.1987 
L 403.954944 486.775645 
L 406.878634 469.901052 
L 409.802324 460.115804 
L 412.726014 409.763644 
L 415.649704 481.64486 
L 418.573395 475.419624 
L 421.497085 498.009971 
L 424.420775 542.985297 
L 427.344465 470.149374 
L 430.268155 472.234737 
L 433.191845 371.755373 
L 436.115535 323.044384 
L 439.039225 439.669587 
L 441.962915 465.280624 
L 444.886605 434.773902 
L 447.810296 422.52166 
L 450.733986 380.842947 
L 453.657676 437.119515 
L 456.581366 460.197063 
L 459.505056 489.17901 
L 462.428746 399.254032 
L 465.352436 430.051508 
L 468.276126 444.16734 
L 471.199816 397.547432 
L 474.123506 356.438629 
L 477.047197 407.518388 
L 479.970887 337.834139 
L 482.894577 415.826189 
L 485.818267 423.801576 
L 488.741957 460.049517 
L 491.665647 381.489515 
L 494.589337 315.6476 
L 497.513027 381.668438 
L 500.436717 332.67168 
L 503.360408 397.79516 
L 506.284098 414.912409 
L 509.207788 481.841972 
L 512.131478 471.146967 
L 515.055168 338.340473 
L 517.978858 306.275273 
L 520.902548 290.77219 
L 523.826238 375.570073 
L 526.749928 454.949725 
L 529.673618 424.779579 
L 532.597309 429.493928 
L 535.520999 438.20851 
L 538.444689 424.171838 
L 541.368379 417.474723 
L 544.292069 472.137353 
L 547.215759 381.087211 
L 550.139449 414.490411 
L 553.063139 333.37754 
L 555.986829 342.067164 
L 558.910519 442.378362 
L 561.83421 374.511511 
L 564.7579 386.25504 
L 567.68159 407.203079 
L 570.60528 408.479741 
L 573.52897 406.32274 
L 576.45266 485.185528 
L 579.37635 435.668443 
L 582.30004 429.359815 
L 585.22373 491.317752 
L 588.147421 426.600319 
L 591.071111 241.162654 
L 593.994801 259.753029 
L 596.918491 277.606238 
L 599.842181 309.608614 
L 602.765871 308.826761 
L 605.689561 436.222805 
L 608.613251 477.49061 
L 611.536941 542.138223 
L 614.460631 543.64201 
L 617.384322 455.788193 
L 620.308012 439.947362 
L 623.231702 449.851821 
L 626.155392 479.677974 
L 629.079082 456.210576 
L 632.002772 430.905123 
L 634.926462 446.722972 
L 637.850152 495.876231 
L 640.773842 488.985921 
L 643.697532 387.592952 
L 646.621223 357.29443 
L 649.544913 405.074936 
L 652.468603 416.836024 
L 655.392293 511.071298 
L 658.315983 416.447258 
L 661.239673 398.510569 
L 664.163363 340.635506 
L 667.087053 292.568234 
L 670.010743 266.053298 
L 672.934433 319.728427 
L 675.858124 464.413892 
L 681.705504 319.575443 
L 684.629194 361.909645 
L 687.552884 442.312354 
L 690.476574 466.087786 
L 693.400264 448.178767 
L 696.323954 453.620838 
L 699.247644 432.940604 
L 702.171335 391.058202 
L 705.095025 380.679415 
L 708.018715 382.094178 
L 710.942405 384.832301 
L 713.866095 381.661162 
L 716.789785 379.534138 
L 719.713475 380.409266 
L 722.637165 377.069663 
L 725.560855 382.013585 
L 728.484545 378.470783 
L 728.484545 378.470783 
" style="fill:none;stroke:#55a868;stroke-dasharray:1.5,1.5;stroke-dashoffset:0;stroke-width:1.5;"/>
   </g>
   <g id="line2d_4">
    <path clip-path="url(#pc6cd1acfb7)" d="M 134.975455 381.226431 
L 137.899145 382.362894 
L 140.822835 383.165263 
L 143.746525 381.187219 
L 146.670215 383.449475 
L 149.593905 386.746717 
L 152.517595 382.589354 
L 155.441285 383.240155 
L 158.364975 383.059484 
L 161.288665 377.997505 
L 164.212356 379.716558 
L 167.136046 376.330747 
L 170.059736 390.091812 
L 172.983426 390.358989 
L 175.907116 408.119448 
L 178.830806 448.089918 
L 181.754496 491.603818 
L 184.678186 425.565508 
L 187.601876 339.798471 
L 190.525567 458.30227 
L 193.449257 421.300022 
L 196.372947 404.821961 
L 199.296637 434.206633 
L 202.220327 353.259863 
L 205.144017 385.589337 
L 208.067707 548.000263 
L 210.991397 534.586164 
L 213.915087 480.594413 
L 216.838777 468.857181 
L 219.762468 486.322515 
L 222.686158 457.061882 
L 225.609848 389.411103 
L 228.533538 365.672121 
L 231.457228 455.495586 
L 234.380918 344.026109 
L 237.304608 447.874686 
L 240.228298 451.302683 
L 243.151988 447.429462 
L 246.075678 404.348508 
L 248.999369 412.223572 
L 251.923059 457.070347 
L 257.770439 437.818379 
L 260.694129 401.275172 
L 263.617819 510.564124 
L 266.541509 407.119092 
L 269.465199 422.003993 
L 275.312579 449.86221 
L 278.23627 450.67343 
L 281.15996 430.817218 
L 284.08365 376.435792 
L 287.00734 393.99753 
L 289.93103 466.163727 
L 292.85472 415.702465 
L 295.77841 376.39448 
L 298.7021 445.031099 
L 301.62579 418.585265 
L 304.549481 396.872984 
L 307.473171 381.44607 
L 310.396861 342.856171 
L 313.320551 329.203753 
L 316.244241 460.075192 
L 319.167931 484.32796 
L 322.091621 535.706466 
L 325.015311 434.525649 
L 327.939001 442.902081 
L 330.862691 461.399357 
L 333.786382 412.682054 
L 336.710072 465.843206 
L 339.633762 527.670249 
L 342.557452 483.429011 
L 345.481142 416.442011 
L 348.404832 365.127693 
L 351.328522 465.300108 
L 354.252212 378.564215 
L 357.175902 415.564015 
L 360.099592 360.80003 
L 363.023283 494.33526 
L 365.946973 367.916012 
L 368.870663 303.921719 
L 371.794353 331.65149 
L 374.718043 419.635432 
L 377.641733 470.411479 
L 380.565423 478.239845 
L 383.489113 381.625902 
L 386.412803 382.28237 
L 389.336494 384.166494 
L 392.260184 413.242642 
L 395.183874 473.753985 
L 398.107564 454.659741 
L 401.031254 444.786589 
L 403.954944 459.455138 
L 406.878634 400.74694 
L 409.802324 388.723188 
L 412.726014 405.681768 
L 415.649704 453.048706 
L 418.573395 432.624351 
L 421.497085 488.759636 
L 424.420775 531.504188 
L 427.344465 432.568558 
L 430.268155 451.938548 
L 433.191845 443.02577 
L 436.115535 379.933294 
L 439.039225 455.427481 
L 441.962915 524.547207 
L 444.886605 465.232037 
L 447.810296 395.94899 
L 450.733986 425.959662 
L 453.657676 491.176573 
L 456.581366 453.105863 
L 459.505056 445.775331 
L 462.428746 382.381888 
L 465.352436 431.216479 
L 468.276126 433.913711 
L 471.199816 410.306743 
L 474.123506 383.287763 
L 477.047197 404.404791 
L 479.970887 334.116438 
L 482.894577 446.284464 
L 485.818267 461.484498 
L 488.741957 459.526672 
L 491.665647 414.86578 
L 494.589337 338.955263 
L 497.513027 425.752056 
L 500.436717 384.880364 
L 503.360408 368.284316 
L 506.284098 464.883322 
L 509.207788 486.510217 
L 512.131478 461.100769 
L 515.055168 471.718818 
L 517.978858 382.644657 
L 520.902548 439.28981 
L 523.826238 480.537046 
L 526.749928 454.96697 
L 529.673618 487.083713 
L 532.597309 492.686727 
L 535.520999 444.86414 
L 538.444689 418.115345 
L 541.368379 434.050237 
L 544.292069 496.343702 
L 547.215759 365.049233 
L 550.139449 387.404095 
L 553.063139 287.004993 
L 555.986829 376.070531 
L 558.910519 435.808433 
L 561.83421 393.359251 
L 564.7579 365.319383 
L 567.68159 316.617576 
L 570.60528 418.242077 
L 573.52897 407.633647 
L 576.45266 424.782483 
L 579.37635 426.9214 
L 582.30004 375.971013 
L 585.22373 467.633199 
L 588.147421 372.941822 
L 591.071111 369.372576 
L 593.994801 393.749313 
L 596.918491 310.865145 
L 599.842181 375.858868 
L 602.765871 435.562629 
L 605.689561 442.136545 
L 608.613251 515.848715 
L 611.536941 553.774259 
L 614.460631 560.415581 
L 617.384322 479.52819 
L 620.308012 455.806523 
L 623.231702 454.1136 
L 626.155392 494.429426 
L 629.079082 449.173736 
L 632.002772 408.074639 
L 634.926462 456.817058 
L 637.850152 510.530858 
L 640.773842 466.918314 
L 643.697532 309.595917 
L 646.621223 329.856828 
L 649.544913 417.313185 
L 652.468603 529.375835 
L 655.392293 494.294019 
L 658.315983 402.048753 
L 661.239673 520.835068 
L 664.163363 463.881148 
L 667.087053 516.361626 
L 670.010743 497.106614 
L 672.934433 444.881455 
L 675.858124 477.445836 
L 678.781814 441.595686 
L 681.705504 470.813048 
L 684.629194 501.668171 
L 687.552884 430.974593 
L 690.476574 529.547061 
L 693.400264 476.19247 
L 696.323954 460.217876 
L 699.247644 432.366584 
L 702.171335 395.875567 
L 705.095025 389.777273 
L 708.018715 389.988796 
L 710.942405 387.068288 
L 713.866095 385.591261 
L 716.789785 382.904313 
L 719.713475 386.244056 
L 722.637165 380.505006 
L 725.560855 386.873904 
L 728.484545 383.17156 
L 728.484545 383.17156 
" style="fill:none;stroke:#c44e52;stroke-dasharray:4.5,1.875,2.25,1.875;stroke-dashoffset:0;stroke-width:1.5;"/>
   </g>
   <g id="line2d_5">
    <path clip-path="url(#pc6cd1acfb7)" d="M 134.975455 383.578761 
L 137.899145 385.161148 
L 140.822835 385.593814 
L 143.746525 383.647077 
L 146.670215 386.261931 
L 149.593905 390.092966 
L 152.517595 386.352074 
L 155.441285 387.186835 
L 158.364975 387.088331 
L 161.288665 382.066439 
L 164.212356 383.435343 
L 167.136046 379.690778 
L 170.059736 392.55146 
L 172.983426 392.136528 
L 175.907116 408.755103 
L 178.830806 448.367658 
L 181.754496 500.078123 
L 184.678186 426.425489 
L 187.601876 360.044708 
L 190.525567 466.280071 
L 193.449257 431.770211 
L 196.372947 416.592704 
L 199.296637 449.326773 
L 202.220327 354.885118 
L 205.144017 377.89246 
L 208.067707 551.396184 
L 210.991397 539.803873 
L 213.915087 472.873715 
L 216.838777 464.653749 
L 219.762468 482.789718 
L 222.686158 458.89511 
L 225.609848 404.395871 
L 228.533538 373.04085 
L 231.457228 458.976123 
L 234.380918 353.191757 
L 237.304608 450.956172 
L 240.228298 451.980279 
L 243.151988 448.999396 
L 246.075678 405.616705 
L 248.999369 408.151385 
L 251.923059 464.167318 
L 254.846749 452.573014 
L 257.770439 446.567172 
L 260.694129 405.573715 
L 263.617819 513.463644 
L 266.541509 415.022595 
L 272.388889 439.120717 
L 275.312579 452.626743 
L 278.23627 460.368499 
L 281.15996 451.537364 
L 284.08365 392.574302 
L 287.00734 401.521501 
L 289.93103 472.76164 
L 292.85472 424.496907 
L 295.77841 379.802329 
L 298.7021 444.033996 
L 301.62579 417.785204 
L 307.473171 377.236867 
L 310.396861 351.275855 
L 313.320551 331.258246 
L 316.244241 458.557729 
L 319.167931 472.947838 
L 322.091621 521.718486 
L 325.015311 442.117446 
L 327.939001 485.53844 
L 330.862691 421.260844 
L 333.786382 360.312375 
L 336.710072 427.212503 
L 339.633762 474.93949 
L 342.557452 471.382906 
L 345.481142 422.1309 
L 348.404832 378.237292 
L 351.328522 414.016118 
L 354.252212 517.642136 
L 357.175902 483.691395 
L 360.099592 461.86529 
L 363.023283 545.237094 
L 365.946973 445.398038 
L 368.870663 381.999068 
L 371.794353 392.138102 
L 374.718043 486.834131 
L 377.641733 555.240967 
L 380.565423 523.039117 
L 383.489113 445.492414 
L 386.412803 372.321453 
L 389.336494 379.970547 
L 392.260184 430.764119 
L 395.183874 500.969377 
L 398.107564 468.498182 
L 401.031254 475.745532 
L 403.954944 482.197263 
L 406.878634 430.135705 
L 409.802324 411.769498 
L 412.726014 399.594037 
L 415.649704 476.660152 
L 418.573395 435.65662 
L 421.497085 491.854239 
L 424.420775 544.138235 
L 427.344465 451.123866 
L 430.268155 461.985201 
L 433.191845 452.253613 
L 436.115535 388.625419 
L 439.039225 456.997904 
L 441.962915 529.335013 
L 444.886605 468.690887 
L 447.810296 403.820206 
L 450.733986 421.595217 
L 453.657676 474.601863 
L 456.581366 443.587058 
L 459.505056 419.673281 
L 462.428746 364.168736 
L 465.352436 422.246229 
L 468.276126 430.594746 
L 474.123506 379.816006 
L 477.047197 389.022301 
L 479.970887 332.44048 
L 482.894577 447.104498 
L 485.818267 458.108971 
L 488.741957 379.736252 
L 491.665647 409.908811 
L 494.589337 328.168103 
L 497.513027 449.484252 
L 500.436717 447.045942 
L 503.360408 430.075014 
L 506.284098 466.997579 
L 509.207788 387.728324 
L 512.131478 427.741189 
L 515.055168 433.124844 
L 517.978858 504.104557 
L 520.902548 515.559256 
L 523.826238 495.604402 
L 526.749928 501.127346 
L 529.673618 447.150987 
L 532.597309 380.458902 
L 535.520999 384.926852 
L 538.444689 321.149434 
L 541.368379 319.813621 
L 544.292069 272.489673 
L 547.215759 264.973398 
L 550.139449 238.556125 
L 553.063139 261.284975 
L 555.986829 268.839658 
L 558.910519 286.201941 
L 561.83421 266.63316 
L 564.7579 287.542319 
L 567.68159 270.880684 
L 570.60528 318.672821 
L 573.52897 383.942377 
L 576.45266 431.091706 
L 579.37635 442.31169 
L 582.30004 368.890973 
L 585.22373 446.565528 
L 588.147421 388.088197 
L 591.071111 358.234445 
L 593.994801 386.017421 
L 596.918491 322.686137 
L 599.842181 376.794231 
L 602.765871 451.442638 
L 605.689561 452.294119 
L 608.613251 517.345856 
L 611.536941 558.160251 
L 614.460631 563.214604 
L 617.384322 479.292601 
L 620.308012 462.985242 
L 623.231702 459.438348 
L 626.155392 493.119988 
L 629.079082 454.396482 
L 632.002772 414.134595 
L 634.926462 451.862362 
L 637.850152 500.241585 
L 640.773842 453.209229 
L 643.697532 300.607214 
L 646.621223 312.651675 
L 649.544913 402.869207 
L 652.468603 519.963333 
L 655.392293 479.514583 
L 658.315983 393.197714 
L 661.239673 505.689672 
L 664.163363 457.21443 
L 667.087053 511.201003 
L 670.010743 494.701325 
L 672.934433 451.973004 
L 675.858124 475.694636 
L 678.781814 427.46992 
L 681.705504 470.500433 
L 684.629194 497.031687 
L 687.552884 427.270674 
L 690.476574 513.817011 
L 693.400264 463.669484 
L 696.323954 450.866939 
L 699.247644 426.789176 
L 702.171335 389.423171 
L 705.095025 385.870331 
L 708.018715 387.019981 
L 710.942405 384.768918 
L 713.866095 383.480188 
L 716.789785 380.964782 
L 719.713475 383.600029 
L 722.637165 377.564803 
L 725.560855 384.656912 
L 728.484545 380.186443 
L 728.484545 380.186443 
" style="fill:none;stroke:#8172b3;stroke-dasharray:7.5,1.5,1.5,1.5;stroke-dashoffset:0;stroke-width:1.5;"/>
   </g>
   <g id="line2d_6"/>
   <g id="line2d_7"/>
   <g id="line2d_8"/>
   <g id="line2d_9"/>
   <g id="line2d_10"/>
   <g id="patch_3">
    <path d="M 105.3 529.9416 
L 105.3 71.4528 
" style="fill:none;stroke:#262626;stroke-linecap:square;stroke-linejoin:miter;stroke-width:1.25;"/>
   </g>
   <g id="patch_4">
    <path d="M 758.16 529.9416 
L 758.16 71.4528 
" style="fill:none;stroke:#262626;stroke-linecap:square;stroke-linejoin:miter;stroke-width:1.25;"/>
   </g>
   <g id="patch_5">
    <path d="M 105.3 529.9416 
L 758.16 529.9416 
" style="fill:none;stroke:#262626;stroke-linecap:square;stroke-linejoin:miter;stroke-width:1.25;"/>
   </g>
   <g id="patch_6">
    <path d="M 105.3 71.4528 
L 758.16 71.4528 
" style="fill:none;stroke:#262626;stroke-linecap:square;stroke-linejoin:miter;stroke-width:1.25;"/>
   </g>
   <g id="text_16">
    <!-- Activations for &gt;X&lt; -->
    <g style="fill:#262626;" transform="translate(381.372187 65.4528)scale(0.12 -0.12)">
     <defs>
      <path d="M -9 0 
L 1750 4581 
L 2403 4581 
L 4278 0 
L 3588 0 
L 3053 1388 
L 1138 1388 
L 634 0 
L -9 0 
z
M 1313 1881 
L 2866 1881 
L 2388 3150 
Q 2169 3728 2063 4100 
Q 1975 3659 1816 3225 
L 1313 1881 
z
" id="ArialMT-41" transform="scale(0.015625)"/>
      <path d="M 2588 1216 
L 3141 1144 
Q 3050 572 2676 248 
Q 2303 -75 1759 -75 
Q 1078 -75 664 370 
Q 250 816 250 1647 
Q 250 2184 428 2587 
Q 606 2991 970 3192 
Q 1334 3394 1763 3394 
Q 2303 3394 2647 3120 
Q 2991 2847 3088 2344 
L 2541 2259 
Q 2463 2594 2264 2762 
Q 2066 2931 1784 2931 
Q 1359 2931 1093 2626 
Q 828 2322 828 1663 
Q 828 994 1084 691 
Q 1341 388 1753 388 
Q 2084 388 2306 591 
Q 2528 794 2588 1216 
z
" id="ArialMT-63" transform="scale(0.015625)"/>
      <path d="M 1650 503 
L 1731 6 
Q 1494 -44 1306 -44 
Q 1000 -44 831 53 
Q 663 150 594 308 
Q 525 466 525 972 
L 525 2881 
L 113 2881 
L 113 3319 
L 525 3319 
L 525 4141 
L 1084 4478 
L 1084 3319 
L 1650 3319 
L 1650 2881 
L 1084 2881 
L 1084 941 
Q 1084 700 1114 631 
Q 1144 563 1211 522 
Q 1278 481 1403 481 
Q 1497 481 1650 503 
z
" id="ArialMT-74" transform="scale(0.015625)"/>
      <path d="M 425 3934 
L 425 4581 
L 988 4581 
L 988 3934 
L 425 3934 
z
M 425 0 
L 425 3319 
L 988 3319 
L 988 0 
L 425 0 
z
" id="ArialMT-69" transform="scale(0.015625)"/>
      <path d="M 1344 0 
L 81 3319 
L 675 3319 
L 1388 1331 
Q 1503 1009 1600 663 
Q 1675 925 1809 1294 
L 2547 3319 
L 3125 3319 
L 1869 0 
L 1344 0 
z
" id="ArialMT-76" transform="scale(0.015625)"/>
      <path d="M 2588 409 
Q 2275 144 1986 34 
Q 1697 -75 1366 -75 
Q 819 -75 525 192 
Q 231 459 231 875 
Q 231 1119 342 1320 
Q 453 1522 633 1644 
Q 813 1766 1038 1828 
Q 1203 1872 1538 1913 
Q 2219 1994 2541 2106 
Q 2544 2222 2544 2253 
Q 2544 2597 2384 2738 
Q 2169 2928 1744 2928 
Q 1347 2928 1158 2789 
Q 969 2650 878 2297 
L 328 2372 
Q 403 2725 575 2942 
Q 747 3159 1072 3276 
Q 1397 3394 1825 3394 
Q 2250 3394 2515 3294 
Q 2781 3194 2906 3042 
Q 3031 2891 3081 2659 
Q 3109 2516 3109 2141 
L 3109 1391 
Q 3109 606 3145 398 
Q 3181 191 3288 0 
L 2700 0 
Q 2613 175 2588 409 
z
M 2541 1666 
Q 2234 1541 1622 1453 
Q 1275 1403 1131 1340 
Q 988 1278 909 1158 
Q 831 1038 831 891 
Q 831 666 1001 516 
Q 1172 366 1500 366 
Q 1825 366 2078 508 
Q 2331 650 2450 897 
Q 2541 1088 2541 1459 
L 2541 1666 
z
" id="ArialMT-61" transform="scale(0.015625)"/>
      <path d="M 213 1659 
Q 213 2581 725 3025 
Q 1153 3394 1769 3394 
Q 2453 3394 2887 2945 
Q 3322 2497 3322 1706 
Q 3322 1066 3130 698 
Q 2938 331 2570 128 
Q 2203 -75 1769 -75 
Q 1072 -75 642 372 
Q 213 819 213 1659 
z
M 791 1659 
Q 791 1022 1069 705 
Q 1347 388 1769 388 
Q 2188 388 2466 706 
Q 2744 1025 2744 1678 
Q 2744 2294 2464 2611 
Q 2184 2928 1769 2928 
Q 1347 2928 1069 2612 
Q 791 2297 791 1659 
z
" id="ArialMT-6f" transform="scale(0.015625)"/>
      <path d="M 422 0 
L 422 3319 
L 928 3319 
L 928 2847 
Q 1294 3394 1984 3394 
Q 2284 3394 2536 3286 
Q 2788 3178 2913 3003 
Q 3038 2828 3088 2588 
Q 3119 2431 3119 2041 
L 3119 0 
L 2556 0 
L 2556 2019 
Q 2556 2363 2490 2533 
Q 2425 2703 2258 2804 
Q 2091 2906 1866 2906 
Q 1506 2906 1245 2678 
Q 984 2450 984 1813 
L 984 0 
L 422 0 
z
" id="ArialMT-6e" transform="scale(0.015625)"/>
      <path d="M 197 991 
L 753 1078 
Q 800 744 1014 566 
Q 1228 388 1613 388 
Q 2000 388 2187 545 
Q 2375 703 2375 916 
Q 2375 1106 2209 1216 
Q 2094 1291 1634 1406 
Q 1016 1563 777 1677 
Q 538 1791 414 1992 
Q 291 2194 291 2438 
Q 291 2659 392 2848 
Q 494 3038 669 3163 
Q 800 3259 1026 3326 
Q 1253 3394 1513 3394 
Q 1903 3394 2198 3281 
Q 2494 3169 2634 2976 
Q 2775 2784 2828 2463 
L 2278 2388 
Q 2241 2644 2061 2787 
Q 1881 2931 1553 2931 
Q 1166 2931 1000 2803 
Q 834 2675 834 2503 
Q 834 2394 903 2306 
Q 972 2216 1119 2156 
Q 1203 2125 1616 2013 
Q 2213 1853 2448 1751 
Q 2684 1650 2818 1456 
Q 2953 1263 2953 975 
Q 2953 694 2789 445 
Q 2625 197 2315 61 
Q 2006 -75 1616 -75 
Q 969 -75 630 194 
Q 291 463 197 991 
z
" id="ArialMT-73" transform="scale(0.015625)"/>
      <path id="ArialMT-20" transform="scale(0.015625)"/>
      <path d="M 556 0 
L 556 2881 
L 59 2881 
L 59 3319 
L 556 3319 
L 556 3672 
Q 556 4006 616 4169 
Q 697 4388 901 4523 
Q 1106 4659 1475 4659 
Q 1713 4659 2000 4603 
L 1916 4113 
Q 1741 4144 1584 4144 
Q 1328 4144 1222 4034 
Q 1116 3925 1116 3625 
L 1116 3319 
L 1763 3319 
L 1763 2881 
L 1116 2881 
L 1116 0 
L 556 0 
z
" id="ArialMT-66" transform="scale(0.015625)"/>
      <path d="M 416 0 
L 416 3319 
L 922 3319 
L 922 2816 
Q 1116 3169 1280 3281 
Q 1444 3394 1641 3394 
Q 1925 3394 2219 3213 
L 2025 2691 
Q 1819 2813 1613 2813 
Q 1428 2813 1281 2702 
Q 1134 2591 1072 2394 
Q 978 2094 978 1738 
L 978 0 
L 416 0 
z
" id="ArialMT-72" transform="scale(0.015625)"/>
      <path d="M 3384 2003 
L 350 706 
L 350 1266 
L 2753 2263 
L 350 3250 
L 350 3809 
L 3384 2528 
L 3384 2003 
z
" id="ArialMT-3e" transform="scale(0.015625)"/>
      <path d="M 28 0 
L 1800 2388 
L 238 4581 
L 959 4581 
L 1791 3406 
Q 2050 3041 2159 2844 
Q 2313 3094 2522 3366 
L 3444 4581 
L 4103 4581 
L 2494 2422 
L 4228 0 
L 3478 0 
L 2325 1634 
Q 2228 1775 2125 1941 
Q 1972 1691 1906 1597 
L 756 0 
L 28 0 
z
" id="ArialMT-58" transform="scale(0.015625)"/>
      <path d="M 350 2003 
L 350 2528 
L 3384 3809 
L 3384 3250 
L 978 2263 
L 3384 1266 
L 3384 706 
L 350 2003 
z
" id="ArialMT-3c" transform="scale(0.015625)"/>
     </defs>
     <use xlink:href="#ArialMT-41"/>
     <use x="66.699219" xlink:href="#ArialMT-63"/>
     <use x="116.699219" xlink:href="#ArialMT-74"/>
     <use x="144.482422" xlink:href="#ArialMT-69"/>
     <use x="166.699219" xlink:href="#ArialMT-76"/>
     <use x="216.699219" xlink:href="#ArialMT-61"/>
     <use x="272.314453" xlink:href="#ArialMT-74"/>
     <use x="300.097656" xlink:href="#ArialMT-69"/>
     <use x="322.314453" xlink:href="#ArialMT-6f"/>
     <use x="377.929688" xlink:href="#ArialMT-6e"/>
     <use x="433.544922" xlink:href="#ArialMT-73"/>
     <use x="483.544922" xlink:href="#ArialMT-20"/>
     <use x="511.328125" xlink:href="#ArialMT-66"/>
     <use x="539.111328" xlink:href="#ArialMT-6f"/>
     <use x="594.726562" xlink:href="#ArialMT-72"/>
     <use x="628.027344" xlink:href="#ArialMT-20"/>
     <use x="655.810547" xlink:href="#ArialMT-3e"/>
     <use x="714.208984" xlink:href="#ArialMT-58"/>
     <use x="780.908203" xlink:href="#ArialMT-3c"/>
    </g>
   </g>
   <g id="legend_1">
    <g id="patch_7">
     <path d="M 640.044062 158.514363 
L 750.46 158.514363 
Q 752.66 158.514363 752.66 156.314363 
L 752.66 79.1528 
Q 752.66 76.9528 750.46 76.9528 
L 640.044062 76.9528 
Q 637.844062 76.9528 637.844062 79.1528 
L 637.844062 156.314363 
Q 637.844062 158.514363 640.044062 158.514363 
z
" style="fill:#ffffff;opacity:0.8;stroke:#cccccc;stroke-linejoin:miter;"/>
    </g>
    <g id="line2d_11">
     <path d="M 642.244062 85.376394 
L 664.244062 85.376394 
" style="fill:none;stroke:#4c72b0;stroke-linecap:round;stroke-width:1.5;"/>
    </g>
    <g id="line2d_12"/>
    <g id="text_17">
     <!-- regular -->
     <g style="fill:#262626;" transform="translate(673.044062 89.226394)scale(0.11 -0.11)">
      <defs>
       <path d="M 2694 1069 
L 3275 997 
Q 3138 488 2766 206 
Q 2394 -75 1816 -75 
Q 1088 -75 661 373 
Q 234 822 234 1631 
Q 234 2469 665 2931 
Q 1097 3394 1784 3394 
Q 2450 3394 2872 2941 
Q 3294 2488 3294 1666 
Q 3294 1616 3291 1516 
L 816 1516 
Q 847 969 1125 678 
Q 1403 388 1819 388 
Q 2128 388 2347 550 
Q 2566 713 2694 1069 
z
M 847 1978 
L 2700 1978 
Q 2663 2397 2488 2606 
Q 2219 2931 1791 2931 
Q 1403 2931 1139 2672 
Q 875 2413 847 1978 
z
" id="ArialMT-65" transform="scale(0.015625)"/>
       <path d="M 319 -275 
L 866 -356 
Q 900 -609 1056 -725 
Q 1266 -881 1628 -881 
Q 2019 -881 2231 -725 
Q 2444 -569 2519 -288 
Q 2563 -116 2559 434 
Q 2191 0 1641 0 
Q 956 0 581 494 
Q 206 988 206 1678 
Q 206 2153 378 2554 
Q 550 2956 876 3175 
Q 1203 3394 1644 3394 
Q 2231 3394 2613 2919 
L 2613 3319 
L 3131 3319 
L 3131 450 
Q 3131 -325 2973 -648 
Q 2816 -972 2473 -1159 
Q 2131 -1347 1631 -1347 
Q 1038 -1347 672 -1080 
Q 306 -813 319 -275 
z
M 784 1719 
Q 784 1066 1043 766 
Q 1303 466 1694 466 
Q 2081 466 2343 764 
Q 2606 1063 2606 1700 
Q 2606 2309 2336 2618 
Q 2066 2928 1684 2928 
Q 1309 2928 1046 2623 
Q 784 2319 784 1719 
z
" id="ArialMT-67" transform="scale(0.015625)"/>
       <path d="M 2597 0 
L 2597 488 
Q 2209 -75 1544 -75 
Q 1250 -75 995 37 
Q 741 150 617 320 
Q 494 491 444 738 
Q 409 903 409 1263 
L 409 3319 
L 972 3319 
L 972 1478 
Q 972 1038 1006 884 
Q 1059 663 1231 536 
Q 1403 409 1656 409 
Q 1909 409 2131 539 
Q 2353 669 2445 892 
Q 2538 1116 2538 1541 
L 2538 3319 
L 3100 3319 
L 3100 0 
L 2597 0 
z
" id="ArialMT-75" transform="scale(0.015625)"/>
       <path d="M 409 0 
L 409 4581 
L 972 4581 
L 972 0 
L 409 0 
z
" id="ArialMT-6c" transform="scale(0.015625)"/>
      </defs>
      <use xlink:href="#ArialMT-72"/>
      <use x="33.300781" xlink:href="#ArialMT-65"/>
      <use x="88.916016" xlink:href="#ArialMT-67"/>
      <use x="144.53125" xlink:href="#ArialMT-75"/>
      <use x="200.146484" xlink:href="#ArialMT-6c"/>
      <use x="222.363281" xlink:href="#ArialMT-61"/>
      <use x="277.978516" xlink:href="#ArialMT-72"/>
     </g>
    </g>
    <g id="line2d_13">
     <path d="M 642.244062 101.0978 
L 664.244062 101.0978 
" style="fill:none;stroke:#dd8452;stroke-dasharray:6,2.25;stroke-dashoffset:0;stroke-width:1.5;"/>
    </g>
    <g id="line2d_14"/>
    <g id="text_18">
     <!-- splitted_3s -->
     <g style="fill:#262626;" transform="translate(673.044062 104.9478)scale(0.11 -0.11)">
      <defs>
       <path d="M 422 -1272 
L 422 3319 
L 934 3319 
L 934 2888 
Q 1116 3141 1344 3267 
Q 1572 3394 1897 3394 
Q 2322 3394 2647 3175 
Q 2972 2956 3137 2557 
Q 3303 2159 3303 1684 
Q 3303 1175 3120 767 
Q 2938 359 2589 142 
Q 2241 -75 1856 -75 
Q 1575 -75 1351 44 
Q 1128 163 984 344 
L 984 -1272 
L 422 -1272 
z
M 931 1641 
Q 931 1000 1190 694 
Q 1450 388 1819 388 
Q 2194 388 2461 705 
Q 2728 1022 2728 1688 
Q 2728 2322 2467 2637 
Q 2206 2953 1844 2953 
Q 1484 2953 1207 2617 
Q 931 2281 931 1641 
z
" id="ArialMT-70" transform="scale(0.015625)"/>
       <path d="M 2575 0 
L 2575 419 
Q 2259 -75 1647 -75 
Q 1250 -75 917 144 
Q 584 363 401 755 
Q 219 1147 219 1656 
Q 219 2153 384 2558 
Q 550 2963 881 3178 
Q 1213 3394 1622 3394 
Q 1922 3394 2156 3267 
Q 2391 3141 2538 2938 
L 2538 4581 
L 3097 4581 
L 3097 0 
L 2575 0 
z
M 797 1656 
Q 797 1019 1065 703 
Q 1334 388 1700 388 
Q 2069 388 2326 689 
Q 2584 991 2584 1609 
Q 2584 2291 2321 2609 
Q 2059 2928 1675 2928 
Q 1300 2928 1048 2622 
Q 797 2316 797 1656 
z
" id="ArialMT-64" transform="scale(0.015625)"/>
       <path d="M -97 -1272 
L -97 -866 
L 3631 -866 
L 3631 -1272 
L -97 -1272 
z
" id="ArialMT-5f" transform="scale(0.015625)"/>
       <path d="M 269 1209 
L 831 1284 
Q 928 806 1161 595 
Q 1394 384 1728 384 
Q 2125 384 2398 659 
Q 2672 934 2672 1341 
Q 2672 1728 2419 1979 
Q 2166 2231 1775 2231 
Q 1616 2231 1378 2169 
L 1441 2663 
Q 1497 2656 1531 2656 
Q 1891 2656 2178 2843 
Q 2466 3031 2466 3422 
Q 2466 3731 2256 3934 
Q 2047 4138 1716 4138 
Q 1388 4138 1169 3931 
Q 950 3725 888 3313 
L 325 3413 
Q 428 3978 793 4289 
Q 1159 4600 1703 4600 
Q 2078 4600 2393 4439 
Q 2709 4278 2876 4000 
Q 3044 3722 3044 3409 
Q 3044 3113 2884 2869 
Q 2725 2625 2413 2481 
Q 2819 2388 3044 2092 
Q 3269 1797 3269 1353 
Q 3269 753 2831 336 
Q 2394 -81 1725 -81 
Q 1122 -81 723 278 
Q 325 638 269 1209 
z
" id="ArialMT-33" transform="scale(0.015625)"/>
      </defs>
      <use xlink:href="#ArialMT-73"/>
      <use x="50" xlink:href="#ArialMT-70"/>
      <use x="105.615234" xlink:href="#ArialMT-6c"/>
      <use x="127.832031" xlink:href="#ArialMT-69"/>
      <use x="150.048828" xlink:href="#ArialMT-74"/>
      <use x="177.832031" xlink:href="#ArialMT-74"/>
      <use x="205.615234" xlink:href="#ArialMT-65"/>
      <use x="261.230469" xlink:href="#ArialMT-64"/>
      <use x="316.845703" xlink:href="#ArialMT-5f"/>
      <use x="372.460938" xlink:href="#ArialMT-33"/>
      <use x="428.076172" xlink:href="#ArialMT-73"/>
     </g>
    </g>
    <g id="line2d_15">
     <path d="M 642.244062 116.6903 
L 664.244062 116.6903 
" style="fill:none;stroke:#55a868;stroke-dasharray:1.5,1.5;stroke-dashoffset:0;stroke-width:1.5;"/>
    </g>
    <g id="line2d_16"/>
    <g id="text_19">
     <!-- splitted_1s -->
     <g style="fill:#262626;" transform="translate(673.044062 120.5403)scale(0.11 -0.11)">
      <use xlink:href="#ArialMT-73"/>
      <use x="50" xlink:href="#ArialMT-70"/>
      <use x="105.615234" xlink:href="#ArialMT-6c"/>
      <use x="127.832031" xlink:href="#ArialMT-69"/>
      <use x="150.048828" xlink:href="#ArialMT-74"/>
      <use x="177.832031" xlink:href="#ArialMT-74"/>
      <use x="205.615234" xlink:href="#ArialMT-65"/>
      <use x="261.230469" xlink:href="#ArialMT-64"/>
      <use x="316.845703" xlink:href="#ArialMT-5f"/>
      <use x="372.460938" xlink:href="#ArialMT-31"/>
      <use x="428.076172" xlink:href="#ArialMT-73"/>
     </g>
    </g>
    <g id="line2d_17">
     <path d="M 642.244062 132.384206 
L 664.244062 132.384206 
" style="fill:none;stroke:#c44e52;stroke-dasharray:4.5,1.875,2.25,1.875;stroke-dashoffset:0;stroke-width:1.5;"/>
    </g>
    <g id="line2d_18"/>
    <g id="text_20">
     <!-- overlap_1f_3s -->
     <g style="fill:#262626;" transform="translate(673.044062 136.234206)scale(0.11 -0.11)">
      <use xlink:href="#ArialMT-6f"/>
      <use x="55.615234" xlink:href="#ArialMT-76"/>
      <use x="105.615234" xlink:href="#ArialMT-65"/>
      <use x="161.230469" xlink:href="#ArialMT-72"/>
      <use x="194.53125" xlink:href="#ArialMT-6c"/>
      <use x="216.748047" xlink:href="#ArialMT-61"/>
      <use x="272.363281" xlink:href="#ArialMT-70"/>
      <use x="327.978516" xlink:href="#ArialMT-5f"/>
      <use x="383.59375" xlink:href="#ArialMT-31"/>
      <use x="439.208984" xlink:href="#ArialMT-66"/>
      <use x="466.992188" xlink:href="#ArialMT-5f"/>
      <use x="522.607422" xlink:href="#ArialMT-33"/>
      <use x="578.222656" xlink:href="#ArialMT-73"/>
     </g>
    </g>
    <g id="line2d_19">
     <path d="M 642.244062 148.078113 
L 664.244062 148.078113 
" style="fill:none;stroke:#8172b3;stroke-dasharray:7.5,1.5,1.5,1.5;stroke-dashoffset:0;stroke-width:1.5;"/>
    </g>
    <g id="line2d_20"/>
    <g id="text_21">
     <!-- overlap_10f_3s -->
     <g style="fill:#262626;" transform="translate(673.044062 151.928112)scale(0.11 -0.11)">
      <use xlink:href="#ArialMT-6f"/>
      <use x="55.615234" xlink:href="#ArialMT-76"/>
      <use x="105.615234" xlink:href="#ArialMT-65"/>
      <use x="161.230469" xlink:href="#ArialMT-72"/>
      <use x="194.53125" xlink:href="#ArialMT-6c"/>
      <use x="216.748047" xlink:href="#ArialMT-61"/>
      <use x="272.363281" xlink:href="#ArialMT-70"/>
      <use x="327.978516" xlink:href="#ArialMT-5f"/>
      <use x="383.59375" xlink:href="#ArialMT-31"/>
      <use x="439.208984" xlink:href="#ArialMT-30"/>
      <use x="494.824219" xlink:href="#ArialMT-66"/>
      <use x="522.607422" xlink:href="#ArialMT-5f"/>
      <use x="578.222656" xlink:href="#ArialMT-33"/>
      <use x="633.837891" xlink:href="#ArialMT-73"/>
     </g>
    </g>
   </g>
  </g>
 </g>
 <defs>
  <clipPath id="pc6cd1acfb7">
   <rect height="458.4888" width="652.86" x="105.3" y="71.4528"/>
  </clipPath>
 </defs>
</svg>
