<?xml version="1.0" encoding="utf-8" standalone="no"?>
<!DOCTYPE svg PUBLIC "-//W3C//DTD SVG 1.1//EN"
  "http://www.w3.org/Graphics/SVG/1.1/DTD/svg11.dtd">
<svg height="595.44pt" version="1.1" viewBox="0 0 842.4 595.44" width="842.4pt" xmlns="http://www.w3.org/2000/svg" xmlns:xlink="http://www.w3.org/1999/xlink">
 <metadata>
  <rdf:RDF xmlns:cc="http://creativecommons.org/ns#" xmlns:dc="http://purl.org/dc/elements/1.1/" xmlns:rdf="http://www.w3.org/1999/02/22-rdf-syntax-ns#">
   <cc:Work>
    <dc:type rdf:resource="http://purl.org/dc/dcmitype/StillImage"/>
    <dc:date>2021-06-04T22:03:15.355662</dc:date>
    <dc:format>image/svg+xml</dc:format>
    <dc:creator>
     <cc:Agent>
      <dc:title>Matplotlib v3.4.1, https://matplotlib.org/</dc:title>
     </cc:Agent>
    </dc:creator>
   </cc:Work>
  </rdf:RDF>
 </metadata>
 <defs>
  <style type="text/css">*{stroke-linecap:butt;stroke-linejoin:round;}</style>
 </defs>
 <g id="figure_1">
  <g id="patch_1">
   <path d="M 0 595.44 
L 842.4 595.44 
L 842.4 0 
L 0 0 
z
" style="fill:#ffffff;"/>
  </g>
  <g id="axes_1">
   <g id="patch_2">
    <path d="M 105.3 529.9416 
L 758.16 529.9416 
L 758.16 71.4528 
L 105.3 71.4528 
z
" style="fill:#ffffff;"/>
   </g>
   <g id="matplotlib.axis_1">
    <g id="xtick_1">
     <g id="text_1">
      <!-- 0 -->
      <g style="fill:#262626;" transform="translate(131.916939 547.315194)scale(0.11 -0.11)">
       <defs>
        <path d="M 266 2259 
Q 266 3072 433 3567 
Q 600 4063 929 4331 
Q 1259 4600 1759 4600 
Q 2128 4600 2406 4451 
Q 2684 4303 2865 4023 
Q 3047 3744 3150 3342 
Q 3253 2941 3253 2259 
Q 3253 1453 3087 958 
Q 2922 463 2592 192 
Q 2263 -78 1759 -78 
Q 1097 -78 719 397 
Q 266 969 266 2259 
z
M 844 2259 
Q 844 1131 1108 757 
Q 1372 384 1759 384 
Q 2147 384 2411 759 
Q 2675 1134 2675 2259 
Q 2675 3391 2411 3762 
Q 2147 4134 1753 4134 
Q 1366 4134 1134 3806 
Q 844 3388 844 2259 
z
" id="ArialMT-30" transform="scale(0.015625)"/>
       </defs>
       <use xlink:href="#ArialMT-30"/>
      </g>
     </g>
    </g>
    <g id="xtick_2">
     <g id="text_2">
      <!-- 25 -->
      <g style="fill:#262626;" transform="translate(201.950676 547.315194)scale(0.11 -0.11)">
       <defs>
        <path d="M 3222 541 
L 3222 0 
L 194 0 
Q 188 203 259 391 
Q 375 700 629 1000 
Q 884 1300 1366 1694 
Q 2113 2306 2375 2664 
Q 2638 3022 2638 3341 
Q 2638 3675 2398 3904 
Q 2159 4134 1775 4134 
Q 1369 4134 1125 3890 
Q 881 3647 878 3216 
L 300 3275 
Q 359 3922 746 4261 
Q 1134 4600 1788 4600 
Q 2447 4600 2831 4234 
Q 3216 3869 3216 3328 
Q 3216 3053 3103 2787 
Q 2991 2522 2730 2228 
Q 2469 1934 1863 1422 
Q 1356 997 1212 845 
Q 1069 694 975 541 
L 3222 541 
z
" id="ArialMT-32" transform="scale(0.015625)"/>
        <path d="M 266 1200 
L 856 1250 
Q 922 819 1161 601 
Q 1400 384 1738 384 
Q 2144 384 2425 690 
Q 2706 997 2706 1503 
Q 2706 1984 2436 2262 
Q 2166 2541 1728 2541 
Q 1456 2541 1237 2417 
Q 1019 2294 894 2097 
L 366 2166 
L 809 4519 
L 3088 4519 
L 3088 3981 
L 1259 3981 
L 1013 2750 
Q 1425 3038 1878 3038 
Q 2478 3038 2890 2622 
Q 3303 2206 3303 1553 
Q 3303 931 2941 478 
Q 2500 -78 1738 -78 
Q 1113 -78 717 272 
Q 322 622 266 1200 
z
" id="ArialMT-35" transform="scale(0.015625)"/>
       </defs>
       <use xlink:href="#ArialMT-32"/>
       <use x="55.615234" xlink:href="#ArialMT-35"/>
      </g>
     </g>
    </g>
    <g id="xtick_3">
     <g id="text_3">
      <!-- 50 -->
      <g style="fill:#262626;" transform="translate(275.042928 547.315194)scale(0.11 -0.11)">
       <use xlink:href="#ArialMT-35"/>
       <use x="55.615234" xlink:href="#ArialMT-30"/>
      </g>
     </g>
    </g>
    <g id="xtick_4">
     <g id="text_4">
      <!-- 75 -->
      <g style="fill:#262626;" transform="translate(348.135181 547.315194)scale(0.11 -0.11)">
       <defs>
        <path d="M 303 3981 
L 303 4522 
L 3269 4522 
L 3269 4084 
Q 2831 3619 2401 2847 
Q 1972 2075 1738 1259 
Q 1569 684 1522 0 
L 944 0 
Q 953 541 1156 1306 
Q 1359 2072 1739 2783 
Q 2119 3494 2547 3981 
L 303 3981 
z
" id="ArialMT-37" transform="scale(0.015625)"/>
       </defs>
       <use xlink:href="#ArialMT-37"/>
       <use x="55.615234" xlink:href="#ArialMT-35"/>
      </g>
     </g>
    </g>
    <g id="xtick_5">
     <g id="text_5">
      <!-- 100 -->
      <g style="fill:#262626;" transform="translate(418.168918 547.315194)scale(0.11 -0.11)">
       <defs>
        <path d="M 2384 0 
L 1822 0 
L 1822 3584 
Q 1619 3391 1289 3197 
Q 959 3003 697 2906 
L 697 3450 
Q 1169 3672 1522 3987 
Q 1875 4303 2022 4600 
L 2384 4600 
L 2384 0 
z
" id="ArialMT-31" transform="scale(0.015625)"/>
       </defs>
       <use xlink:href="#ArialMT-31"/>
       <use x="55.615234" xlink:href="#ArialMT-30"/>
       <use x="111.230469" xlink:href="#ArialMT-30"/>
      </g>
     </g>
    </g>
    <g id="xtick_6">
     <g id="text_6">
      <!-- 125 -->
      <g style="fill:#262626;" transform="translate(491.261171 547.315194)scale(0.11 -0.11)">
       <use xlink:href="#ArialMT-31"/>
       <use x="55.615234" xlink:href="#ArialMT-32"/>
       <use x="111.230469" xlink:href="#ArialMT-35"/>
      </g>
     </g>
    </g>
    <g id="xtick_7">
     <g id="text_7">
      <!-- 150 -->
      <g style="fill:#262626;" transform="translate(564.353423 547.315194)scale(0.11 -0.11)">
       <use xlink:href="#ArialMT-31"/>
       <use x="55.615234" xlink:href="#ArialMT-35"/>
       <use x="111.230469" xlink:href="#ArialMT-30"/>
      </g>
     </g>
    </g>
    <g id="xtick_8">
     <g id="text_8">
      <!-- 175 -->
      <g style="fill:#262626;" transform="translate(637.445676 547.315194)scale(0.11 -0.11)">
       <use xlink:href="#ArialMT-31"/>
       <use x="55.615234" xlink:href="#ArialMT-37"/>
       <use x="111.230469" xlink:href="#ArialMT-35"/>
      </g>
     </g>
    </g>
    <g id="xtick_9">
     <g id="text_9">
      <!-- 200 -->
      <g style="fill:#262626;" transform="translate(710.537928 547.315194)scale(0.11 -0.11)">
       <use xlink:href="#ArialMT-32"/>
       <use x="55.615234" xlink:href="#ArialMT-30"/>
       <use x="111.230469" xlink:href="#ArialMT-30"/>
      </g>
     </g>
    </g>
   </g>
   <g id="matplotlib.axis_2">
    <g id="ytick_1">
     <g id="text_10">
      <!-- −25 -->
      <g style="fill:#262626;" transform="translate(77.14125 533.878397)scale(0.11 -0.11)">
       <defs>
        <path d="M 3381 1997 
L 356 1997 
L 356 2522 
L 3381 2522 
L 3381 1997 
z
" id="ArialMT-2212" transform="scale(0.015625)"/>
       </defs>
       <use xlink:href="#ArialMT-2212"/>
       <use x="58.398438" xlink:href="#ArialMT-32"/>
       <use x="114.013672" xlink:href="#ArialMT-35"/>
      </g>
     </g>
    </g>
    <g id="ytick_2">
     <g id="text_11">
      <!-- −20 -->
      <g style="fill:#262626;" transform="translate(77.14125 442.180637)scale(0.11 -0.11)">
       <use xlink:href="#ArialMT-2212"/>
       <use x="58.398438" xlink:href="#ArialMT-32"/>
       <use x="114.013672" xlink:href="#ArialMT-30"/>
      </g>
     </g>
    </g>
    <g id="ytick_3">
     <g id="text_12">
      <!-- −15 -->
      <g style="fill:#262626;" transform="translate(77.14125 350.482877)scale(0.11 -0.11)">
       <use xlink:href="#ArialMT-2212"/>
       <use x="58.398438" xlink:href="#ArialMT-31"/>
       <use x="114.013672" xlink:href="#ArialMT-35"/>
      </g>
     </g>
    </g>
    <g id="ytick_4">
     <g id="text_13">
      <!-- −10 -->
      <g style="fill:#262626;" transform="translate(77.14125 258.785117)scale(0.11 -0.11)">
       <use xlink:href="#ArialMT-2212"/>
       <use x="58.398438" xlink:href="#ArialMT-31"/>
       <use x="114.013672" xlink:href="#ArialMT-30"/>
      </g>
     </g>
    </g>
    <g id="ytick_5">
     <g id="text_14">
      <!-- −5 -->
      <g style="fill:#262626;" transform="translate(83.258281 167.087357)scale(0.11 -0.11)">
       <use xlink:href="#ArialMT-2212"/>
       <use x="58.398438" xlink:href="#ArialMT-35"/>
      </g>
     </g>
    </g>
    <g id="ytick_6">
     <g id="text_15">
      <!-- 0 -->
      <g style="fill:#262626;" transform="translate(89.682969 75.389597)scale(0.11 -0.11)">
       <use xlink:href="#ArialMT-30"/>
      </g>
     </g>
    </g>
   </g>
   <g id="line2d_1">
    <path clip-path="url(#p7dc6a41df4)" d="M 134.975455 379.473308 
L 137.899145 380.438194 
L 140.822835 383.533182 
L 143.746525 383.470113 
L 146.670215 388.072841 
L 149.593905 387.527854 
L 152.517595 391.634462 
L 155.441285 397.156287 
L 161.288665 405.735182 
L 164.212356 407.475993 
L 167.136046 411.98417 
L 170.059736 449.323415 
L 172.983426 459.305145 
L 175.907116 475.154476 
L 178.830806 506.95563 
L 181.754496 514.409256 
L 184.678186 399.264456 
L 187.601876 378.552566 
L 190.525567 539.359628 
L 193.449257 546.489725 
L 196.372947 479.784453 
L 199.296637 458.255082 
L 202.220327 371.148822 
L 205.144017 417.40102 
L 208.067707 521.210857 
L 210.991397 443.016395 
L 213.915087 447.18845 
L 216.838777 475.754207 
L 219.762468 442.623816 
L 222.686158 419.346603 
L 225.609848 468.191968 
L 228.533538 540.412279 
L 231.457228 498.755987 
L 234.380918 353.7135 
L 237.304608 493.093228 
L 240.228298 476.726858 
L 243.151988 410.989865 
L 246.075678 390.086215 
L 248.999369 444.478311 
L 251.923059 522.589451 
L 254.846749 459.282617 
L 257.770439 435.138568 
L 260.694129 365.843592 
L 263.617819 481.574411 
L 266.541509 381.532821 
L 269.465199 377.635428 
L 272.388889 421.708727 
L 275.312579 459.318647 
L 278.23627 479.440041 
L 281.15996 463.429032 
L 284.08365 423.21937 
L 287.00734 426.036513 
L 289.93103 482.917745 
L 292.85472 439.537887 
L 295.77841 423.182851 
L 298.7021 433.308558 
L 301.62579 377.193037 
L 304.549481 370.072245 
L 307.473171 391.171922 
L 310.396861 487.206562 
L 313.320551 429.812735 
L 316.244241 412.095441 
L 319.167931 424.522932 
L 322.091621 518.428589 
L 325.015311 449.657403 
L 327.939001 444.534489 
L 330.862691 426.620642 
L 333.786382 370.274009 
L 336.710072 372.715887 
L 339.633762 509.647895 
L 342.557452 555.711307 
L 345.481142 404.914343 
L 348.404832 412.417746 
L 351.328522 475.081893 
L 354.252212 517.091062 
L 357.175902 491.976074 
L 360.099592 488.075289 
L 363.023283 514.100524 
L 365.946973 410.578292 
L 368.870663 439.840953 
L 371.794353 477.208672 
L 374.718043 504.745879 
L 377.641733 516.279878 
L 380.565423 536.174882 
L 383.489113 459.920476 
L 386.412803 370.31511 
L 389.336494 391.378514 
L 392.260184 447.113768 
L 395.183874 491.571427 
L 398.107564 420.160236 
L 401.031254 386.171892 
L 403.954944 392.57703 
L 406.878634 419.144944 
L 409.802324 412.391721 
L 412.726014 394.803292 
L 415.649704 468.557578 
L 418.573395 427.362636 
L 421.497085 510.045861 
L 424.420775 570.68719 
L 427.344465 449.807817 
L 430.268155 467.449624 
L 433.191845 421.976219 
L 436.115535 296.658768 
L 439.039225 434.082594 
L 441.962915 550.46229 
L 444.886605 485.241111 
L 447.810296 339.591582 
L 450.733986 343.96311 
L 453.657676 420.847032 
L 456.581366 376.476228 
L 459.505056 429.813959 
L 462.428746 397.82052 
L 465.352436 420.888693 
L 468.276126 415.94596 
L 471.199816 422.951564 
L 474.123506 456.532846 
L 477.047197 494.591033 
L 479.970887 376.57746 
L 482.894577 386.769664 
L 485.818267 406.85384 
L 488.741957 447.006869 
L 491.665647 417.217865 
L 494.589337 382.778805 
L 497.513027 441.4756 
L 500.436717 389.215425 
L 503.360408 366.294168 
L 509.207788 549.771122 
L 512.131478 529.007076 
L 515.055168 499.28303 
L 517.978858 383.633295 
L 520.902548 367.800789 
L 523.826238 383.639696 
L 526.749928 430.633189 
L 529.673618 521.837802 
L 532.597309 550.660556 
L 535.520999 442.37252 
L 538.444689 377.930448 
L 541.368379 521.279907 
L 544.292069 562.260947 
L 547.215759 519.699515 
L 550.139449 551.56769 
L 553.063139 422.576439 
L 555.986829 510.6139 
L 558.910519 498.28152 
L 561.83421 523.931875 
L 564.7579 562.568 
L 567.68159 473.07394 
L 570.60528 474.131523 
L 573.52897 481.408606 
L 576.45266 473.430666 
L 579.37635 472.156557 
L 582.30004 458.559478 
L 585.22373 402.338212 
L 588.147421 393.523832 
L 591.071111 335.512871 
L 593.994801 403.755353 
L 596.918491 391.815238 
L 599.842181 474.304639 
L 605.689561 347.851845 
L 608.613251 431.205181 
L 611.536941 557.293658 
L 614.460631 537.246736 
L 617.384322 424.663621 
L 620.308012 472.928459 
L 623.231702 518.908409 
L 626.155392 547.923587 
L 629.079082 497.372462 
L 632.002772 428.23703 
L 634.926462 448.691712 
L 637.850152 495.351917 
L 640.773842 423.066543 
L 643.697532 383.151971 
L 646.621223 392.065729 
L 649.544913 429.022049 
L 652.468603 457.622191 
L 655.392293 416.394788 
L 658.315983 384.747335 
L 661.239673 469.636639 
L 664.163363 397.633693 
L 667.087053 459.102226 
L 670.010743 482.875034 
L 672.934433 502.898205 
L 675.858124 525.375951 
L 678.781814 461.933011 
L 681.705504 497.167864 
L 684.629194 540.110402 
L 687.552884 457.081051 
L 690.476574 506.789021 
L 693.400264 400.254178 
L 696.323954 428.657803 
L 699.247644 423.991936 
L 702.171335 411.826585 
L 705.095025 417.071929 
L 708.018715 412.721022 
L 710.942405 414.50038 
L 713.866095 412.892283 
L 716.789785 412.568824 
L 719.713475 412.60223 
L 722.637165 410.776523 
L 725.560855 413.291894 
L 728.484545 408.116825 
L 728.484545 408.116825 
" style="fill:none;stroke:#4c72b0;stroke-linecap:round;stroke-width:1.5;"/>
   </g>
   <g id="line2d_2">
    <path clip-path="url(#p7dc6a41df4)" d="M 134.975455 365.50691 
L 137.899145 368.930255 
L 140.822835 370.426066 
L 143.746525 371.327779 
L 146.670215 373.788091 
L 149.593905 375.804684 
L 152.517595 377.318055 
L 155.441285 383.465006 
L 161.288665 393.252808 
L 164.212356 392.924556 
L 167.136046 395.996772 
L 170.059736 432.242965 
L 172.983426 433.831718 
L 175.907116 452.57123 
L 178.830806 487.840608 
L 181.754496 489.506982 
L 184.678186 396.157925 
L 187.601876 356.467924 
L 190.525567 529.598832 
L 193.449257 528.257842 
L 196.372947 475.213032 
L 199.296637 445.417662 
L 202.220327 369.087735 
L 205.144017 428.609845 
L 208.067707 525.398548 
L 210.991397 461.732401 
L 213.915087 424.573827 
L 216.838777 469.985214 
L 219.762468 419.887078 
L 222.686158 405.935967 
L 225.609848 448.814667 
L 228.533538 521.194346 
L 231.457228 492.289285 
L 234.380918 333.85206 
L 237.304608 462.455576 
L 240.228298 458.504069 
L 243.151988 386.020919 
L 246.075678 368.283441 
L 248.999369 460.018315 
L 251.923059 517.027993 
L 254.846749 459.127726 
L 257.770439 436.465636 
L 260.694129 372.408099 
L 263.617819 479.372215 
L 266.541509 387.680366 
L 269.465199 381.794505 
L 272.388889 444.631698 
L 275.312579 482.904942 
L 278.23627 499.106591 
L 281.15996 494.393292 
L 284.08365 444.597068 
L 287.00734 441.245257 
L 289.93103 504.286523 
L 292.85472 452.99043 
L 295.77841 407.924715 
L 298.7021 427.980487 
L 301.62579 374.386773 
L 304.549481 376.127129 
L 307.473171 406.680025 
L 310.396861 473.214385 
L 313.320551 457.180184 
L 316.244241 429.994176 
L 319.167931 467.193746 
L 322.091621 516.975348 
L 325.015311 440.804825 
L 327.939001 457.599559 
L 330.862691 422.013927 
L 333.786382 364.72009 
L 336.710072 398.777151 
L 339.633762 517.935407 
L 342.557452 537.788086 
L 345.481142 409.588255 
L 348.404832 398.618797 
L 351.328522 473.900481 
L 354.252212 434.293033 
L 357.175902 403.234467 
L 360.099592 310.496824 
L 363.023283 284.008823 
L 365.946973 318.000647 
L 368.870663 317.604744 
L 371.794353 381.494203 
L 374.718043 388.102784 
L 377.641733 403.957992 
L 380.565423 483.738024 
L 383.489113 403.669548 
L 386.412803 372.225259 
L 389.336494 366.404635 
L 392.260184 445.119108 
L 395.183874 495.623711 
L 398.107564 407.287101 
L 401.031254 371.481026 
L 403.954944 423.351139 
L 406.878634 405.463878 
L 409.802324 414.344894 
L 412.726014 414.211831 
L 415.649704 459.989037 
L 418.573395 398.691276 
L 421.497085 486.126592 
L 424.420775 521.827693 
L 427.344465 400.590755 
L 430.268155 410.592179 
L 433.191845 387.652173 
L 436.115535 279.080204 
L 439.039225 443.028428 
L 441.962915 569.750672 
L 444.886605 459.319696 
L 447.810296 312.700349 
L 450.733986 369.135342 
L 453.657676 416.918507 
L 456.581366 385.519377 
L 459.505056 419.829081 
L 462.428746 371.811796 
L 465.352436 415.496223 
L 468.276126 396.295326 
L 471.199816 427.967334 
L 474.123506 442.683876 
L 477.047197 515.963589 
L 479.970887 376.956153 
L 482.894577 380.212364 
L 488.741957 445.468802 
L 491.665647 429.419036 
L 494.589337 382.595196 
L 497.513027 441.616814 
L 500.436717 386.935364 
L 503.360408 366.146343 
L 506.284098 464.340749 
L 509.207788 536.471337 
L 512.131478 509.125365 
L 515.055168 496.671359 
L 517.978858 407.247889 
L 520.902548 367.230861 
L 523.826238 371.186495 
L 526.749928 430.709305 
L 529.673618 522.040441 
L 532.597309 542.482146 
L 535.520999 439.257873 
L 538.444689 389.940279 
L 541.368379 509.481985 
L 544.292069 567.524445 
L 547.215759 464.577143 
L 550.139449 492.427665 
L 553.063139 403.677558 
L 555.986829 394.221856 
L 558.910519 337.260416 
L 561.83421 333.864652 
L 564.7579 404.183508 
L 567.68159 388.486759 
L 570.60528 500.553396 
L 573.52897 323.42577 
L 576.45266 387.197364 
L 579.37635 415.149782 
L 582.30004 374.517213 
L 585.22373 385.142608 
L 588.147421 360.928144 
L 591.071111 310.571786 
L 593.994801 379.200534 
L 596.918491 360.192551 
L 599.842181 496.901737 
L 602.765871 398.09938 
L 605.689561 354.117484 
L 608.613251 462.639046 
L 611.536941 559.074171 
L 614.460631 560.180796 
L 617.384322 492.861311 
L 620.308012 498.373937 
L 623.231702 519.568515 
L 626.155392 560.284931 
L 629.079082 472.718859 
L 632.002772 444.332655 
L 634.926462 467.729988 
L 637.850152 483.301124 
L 640.773842 425.741527 
L 643.697532 379.258461 
L 646.621223 406.433346 
L 649.544913 462.765393 
L 652.468603 465.786889 
L 655.392293 432.004052 
L 658.315983 342.130705 
L 661.239673 452.838232 
L 664.163363 386.014938 
L 667.087053 469.284881 
L 670.010743 493.253471 
L 672.934433 492.690749 
L 675.858124 517.666517 
L 678.781814 470.490044 
L 681.705504 498.099379 
L 684.629194 539.235695 
L 687.552884 442.435904 
L 690.476574 486.321466 
L 693.400264 419.950951 
L 696.323954 440.849074 
L 699.247644 429.121602 
L 702.171335 398.917736 
L 705.095025 400.126886 
L 708.018715 397.694628 
L 710.942405 400.140319 
L 713.866095 398.040019 
L 716.789785 399.213281 
L 719.713475 399.842989 
L 722.637165 396.600106 
L 725.560855 400.675826 
L 728.484545 394.215455 
L 728.484545 394.215455 
" style="fill:none;stroke:#dd8452;stroke-dasharray:6,2.25;stroke-dashoffset:0;stroke-width:1.5;"/>
   </g>
   <g id="line2d_3">
    <path clip-path="url(#p7dc6a41df4)" d="M 134.975455 371.938703 
L 137.899145 375.420324 
L 140.822835 378.298787 
L 143.746525 375.896611 
L 146.670215 384.468475 
L 149.593905 388.665226 
L 152.517595 389.620248 
L 155.441285 413.224173 
L 158.364975 414.567192 
L 161.288665 412.493897 
L 164.212356 413.346742 
L 167.136046 410.369916 
L 170.059736 428.145732 
L 172.983426 442.344011 
L 175.907116 459.715564 
L 178.830806 479.549878 
L 181.754496 476.656584 
L 184.678186 347.766494 
L 187.601876 358.392012 
L 190.525567 453.576238 
L 193.449257 471.981727 
L 196.372947 419.515486 
L 199.296637 407.701333 
L 202.220327 400.383429 
L 205.144017 360.897484 
L 208.067707 343.095661 
L 210.991397 376.750611 
L 213.915087 407.368045 
L 216.838777 415.408529 
L 219.762468 378.809214 
L 222.686158 376.522752 
L 225.609848 377.922963 
L 228.533538 471.048638 
L 231.457228 466.163902 
L 234.380918 309.226389 
L 237.304608 448.567289 
L 240.228298 459.493791 
L 243.151988 371.601252 
L 246.075678 324.424692 
L 248.999369 477.161344 
L 251.923059 465.405223 
L 254.846749 456.154153 
L 257.770439 438.615502 
L 260.694129 378.253628 
L 263.617819 468.701555 
L 266.541509 361.129891 
L 269.465199 386.621734 
L 272.388889 395.909987 
L 275.312579 435.878393 
L 278.23627 444.159469 
L 281.15996 402.978414 
L 284.08365 383.223225 
L 287.00734 337.884702 
L 289.93103 424.578655 
L 292.85472 402.81992 
L 295.77841 420.403976 
L 298.7021 462.643558 
L 301.62579 429.561334 
L 304.549481 406.678695 
L 307.473171 434.430434 
L 310.396861 532.648871 
L 313.320551 505.086688 
L 316.244241 443.672514 
L 319.167931 497.032457 
L 322.091621 539.68795 
L 325.015311 448.520241 
L 327.939001 438.158489 
L 330.862691 435.362369 
L 333.786382 400.817915 
L 336.710072 414.862702 
L 339.633762 553.696813 
L 342.557452 592.240522 
L 345.481142 446.298001 
L 348.404832 443.198291 
L 351.328522 536.505897 
L 354.252212 517.33795 
L 357.175902 449.516889 
L 360.099592 324.762702 
L 363.023283 366.415724 
L 365.946973 395.428803 
L 368.870663 410.020012 
L 371.794353 353.942444 
L 374.718043 408.365392 
L 377.641733 400.650851 
L 380.565423 438.787498 
L 383.489113 395.189961 
L 386.412803 394.463113 
L 389.336494 383.112304 
L 392.260184 428.613029 
L 395.183874 459.791505 
L 398.107564 428.290864 
L 401.031254 334.445616 
L 403.954944 400.969833 
L 406.878634 396.397083 
L 409.802324 466.235436 
L 412.726014 434.152519 
L 415.649704 515.062332 
L 418.573395 485.327546 
L 421.497085 523.631397 
L 424.420775 548.119055 
L 427.344465 441.7447 
L 430.268155 447.7631 
L 433.191845 361.003158 
L 436.115535 294.909825 
L 439.039225 377.931883 
L 441.962915 474.083216 
L 444.886605 461.828001 
L 447.810296 383.72816 
L 450.733986 342.909707 
L 453.657676 361.964022 
L 456.581366 407.789937 
L 459.505056 463.474366 
L 462.428746 376.294892 
L 465.352436 398.926201 
L 468.276126 385.859767 
L 471.199816 389.076905 
L 474.123506 397.420245 
L 477.047197 507.570297 
L 479.970887 383.706753 
L 482.894577 360.568953 
L 485.818267 382.632974 
L 488.741957 450.779804 
L 491.665647 399.99949 
L 494.589337 375.792931 
L 497.513027 400.633361 
L 500.436717 336.940559 
L 503.360408 358.460153 
L 506.284098 381.571928 
L 509.207788 450.190812 
L 512.131478 413.798858 
L 515.055168 323.475511 
L 517.978858 315.433558 
L 520.902548 259.716773 
L 523.826238 270.103063 
L 526.749928 382.616114 
L 529.673618 408.635332 
L 532.597309 432.105564 
L 535.520999 436.039021 
L 538.444689 405.079448 
L 544.292069 515.720934 
L 547.215759 420.306732 
L 550.139449 423.834107 
L 553.063139 346.215362 
L 555.986829 333.380285 
L 558.910519 400.853209 
L 561.83421 373.000624 
L 564.7579 424.430795 
L 567.68159 436.906803 
L 570.60528 413.200701 
L 573.52897 419.494218 
L 576.45266 462.256051 
L 579.37635 385.562647 
L 582.30004 383.544796 
L 585.22373 442.241415 
L 588.147421 388.155499 
L 591.071111 187.837113 
L 593.994801 227.663361 
L 596.918491 278.725316 
L 599.842181 398.342071 
L 602.765871 325.889546 
L 605.689561 386.344938 
L 608.613251 465.268906 
L 611.536941 553.041254 
L 614.460631 542.50999 
L 617.384322 463.599175 
L 620.308012 493.120513 
L 623.231702 511.653818 
L 626.155392 537.834959 
L 629.079082 475.360648 
L 632.002772 457.13548 
L 634.926462 434.697436 
L 637.850152 466.386025 
L 640.773842 417.376254 
L 643.697532 393.15203 
L 646.621223 393.869294 
L 649.544913 449.884318 
L 652.468603 386.367185 
L 655.392293 437.051864 
L 658.315983 308.306609 
L 661.239673 323.291587 
L 664.163363 323.825573 
L 667.087053 366.513213 
L 670.010743 343.56378 
L 672.934433 412.35765 
L 675.858124 527.199734 
L 678.781814 466.748032 
L 681.705504 429.798253 
L 684.629194 476.082878 
L 687.552884 514.063935 
L 690.476574 463.774144 
L 693.400264 427.03414 
L 696.323954 471.795774 
L 699.247644 438.120221 
L 702.171335 398.594311 
L 705.095025 398.133556 
L 708.018715 394.556229 
L 710.942405 396.452421 
L 713.866095 391.872255 
L 716.789785 393.765333 
L 719.713475 396.504681 
L 722.637165 396.254295 
L 725.560855 400.369542 
L 728.484545 396.950185 
L 728.484545 396.950185 
" style="fill:none;stroke:#55a868;stroke-dasharray:1.5,1.5;stroke-dashoffset:0;stroke-width:1.5;"/>
   </g>
   <g id="line2d_4">
    <path clip-path="url(#p7dc6a41df4)" d="M 134.975455 365.06249 
L 137.899145 368.482792 
L 140.822835 370.052796 
L 143.746525 370.85471 
L 146.670215 373.461904 
L 149.593905 375.383246 
L 152.517595 377.059973 
L 155.441285 383.339149 
L 161.288665 393.566997 
L 164.212356 393.22192 
L 167.136046 396.456618 
L 170.059736 432.750454 
L 172.983426 434.212474 
L 175.907116 452.950098 
L 178.830806 488.407983 
L 181.754496 490.407575 
L 184.678186 396.629804 
L 187.601876 356.84039 
L 190.525567 530.627486 
L 193.449257 530.497676 
L 196.372947 475.134573 
L 199.296637 445.684209 
L 202.220327 370.940971 
L 205.144017 427.227369 
L 208.067707 529.527053 
L 210.991397 458.040061 
L 213.915087 435.207513 
L 216.838777 464.874577 
L 219.762468 421.213307 
L 222.686158 407.015307 
L 225.609848 449.50657 
L 228.533538 523.311891 
L 231.457228 492.98507 
L 234.380918 334.282313 
L 237.304608 466.812255 
L 240.228298 462.548413 
L 243.151988 388.052273 
L 246.075678 370.397663 
L 248.999369 460.138926 
L 251.923059 518.202094 
L 254.846749 459.735852 
L 257.770439 435.508061 
L 260.694129 375.004693 
L 263.617819 481.633352 
L 266.541509 384.071663 
L 269.465199 383.178311 
L 272.388889 441.719165 
L 275.312579 487.312657 
L 278.23627 500.688138 
L 281.15996 490.668035 
L 284.08365 442.178871 
L 287.00734 449.525739 
L 289.93103 508.029829 
L 292.85472 446.980949 
L 295.77841 408.322227 
L 298.7021 428.063739 
L 301.62579 375.488081 
L 304.549481 380.390866 
L 307.473171 407.620005 
L 310.396861 476.34054 
L 313.320551 455.250342 
L 316.244241 427.432247 
L 319.167931 471.142209 
L 322.091621 527.954321 
L 325.015311 436.857446 
L 327.939001 444.919548 
L 330.862691 428.060976 
L 333.786382 357.338505 
L 336.710072 392.794361 
L 339.633762 520.15128 
L 342.557452 545.556986 
L 345.481142 410.314018 
L 348.404832 321.962717 
L 351.328522 450.761264 
L 354.252212 431.438077 
L 357.175902 445.668013 
L 360.099592 333.340863 
L 363.023283 428.073708 
L 365.946973 322.108898 
L 368.870663 328.892274 
L 371.794353 397.962644 
L 374.718043 411.284606 
L 377.641733 411.884442 
L 380.565423 495.225114 
L 383.489113 404.445682 
L 386.412803 378.027728 
L 389.336494 368.526727 
L 392.260184 443.502651 
L 395.183874 495.222316 
L 398.107564 411.096624 
L 401.031254 376.766247 
L 403.954944 418.276777 
L 406.878634 395.920061 
L 409.802324 414.714562 
L 412.726014 413.724106 
L 415.649704 464.637623 
L 418.573395 401.571207 
L 421.497085 495.151796 
L 424.420775 534.407731 
L 427.344465 406.657497 
L 430.268155 409.876769 
L 433.191845 384.706549 
L 436.115535 277.971831 
L 439.039225 442.05011 
L 441.962915 570.629613 
L 444.886605 457.63279 
L 447.810296 314.618333 
L 450.733986 366.018876 
L 453.657676 421.031621 
L 456.581366 387.611351 
L 459.505056 421.479609 
L 462.428746 372.240545 
L 465.352436 419.356607 
L 468.276126 395.297664 
L 471.199816 429.770514 
L 474.123506 449.354232 
L 477.047197 524.511597 
L 479.970887 379.909857 
L 482.894577 379.820763 
L 485.818267 411.357469 
L 488.741957 444.917344 
L 491.665647 430.02996 
L 494.589337 381.106765 
L 497.513027 440.415638 
L 500.436717 384.695285 
L 503.360408 364.491985 
L 506.284098 463.174833 
L 509.207788 538.475686 
L 512.131478 507.578728 
L 515.055168 512.362441 
L 517.978858 403.033508 
L 520.902548 370.595229 
L 523.826238 377.20472 
L 526.749928 431.873997 
L 529.673618 514.889601 
L 532.597309 540.5508 
L 535.520999 444.497935 
L 538.444689 390.803059 
L 541.368379 507.779547 
L 544.292069 575.700826 
L 547.215759 470.988683 
L 550.139449 508.652681 
L 553.063139 374.852565 
L 555.986829 409.097242 
L 558.910519 412.687476 
L 561.83421 392.436236 
L 564.7579 428.21055 
L 567.68159 373.368402 
L 570.60528 372.085164 
L 573.52897 393.792932 
L 576.45266 395.010688 
L 579.37635 409.907902 
L 582.30004 383.234908 
L 585.22373 420.887853 
L 588.147421 353.561967 
L 591.071111 301.578711 
L 593.994801 404.545585 
L 596.918491 395.123918 
L 599.842181 497.29631 
L 602.765871 416.022217 
L 605.689561 362.635741 
L 608.613251 469.658886 
L 611.536941 560.424116 
L 614.460631 572.214763 
L 617.384322 497.145897 
L 620.308012 502.812224 
L 623.231702 524.260616 
L 626.155392 559.190724 
L 629.079082 475.267006 
L 632.002772 444.67168 
L 634.926462 472.245441 
L 637.850152 485.504684 
L 640.773842 426.458441 
L 643.697532 376.440689 
L 646.621223 409.955474 
L 649.544913 462.0652 
L 652.468603 466.913102 
L 655.392293 434.058737 
L 658.315983 344.475479 
L 661.239673 453.992499 
L 664.163363 386.144328 
L 667.087053 468.273926 
L 670.010743 493.119848 
L 672.934433 494.440655 
L 675.858124 518.463954 
L 678.781814 472.022724 
L 681.705504 497.726773 
L 684.629194 539.480624 
L 687.552884 443.101327 
L 690.476574 487.862541 
L 693.400264 420.007584 
L 696.323954 440.000287 
L 699.247644 430.16075 
L 702.171335 398.266095 
L 705.095025 399.97203 
L 708.018715 398.684909 
L 710.942405 401.820614 
L 713.866095 400.164945 
L 716.789785 400.71287 
L 719.713475 401.101532 
L 722.637165 398.323707 
L 725.560855 402.378124 
L 728.484545 396.230438 
L 728.484545 396.230438 
" style="fill:none;stroke:#c44e52;stroke-dasharray:4.5,1.875,2.25,1.875;stroke-dashoffset:0;stroke-width:1.5;"/>
   </g>
   <g id="line2d_5">
    <path clip-path="url(#p7dc6a41df4)" d="M 134.975455 366.249149 
L 137.899145 369.664729 
L 140.822835 371.262506 
L 143.746525 372.11787 
L 149.593905 377.142736 
L 152.517595 378.872073 
L 155.441285 384.734183 
L 158.364975 389.315713 
L 161.288665 395.370597 
L 164.212356 394.657426 
L 167.136046 396.751149 
L 170.059736 433.16584 
L 172.983426 434.394825 
L 175.907116 452.381114 
L 178.830806 488.684814 
L 181.754496 498.112987 
L 184.678186 393.126355 
L 187.601876 369.332 
L 190.525567 533.360887 
L 193.449257 540.946038 
L 196.372947 484.306132 
L 199.296637 455.222498 
L 202.220327 376.008407 
L 205.144017 426.712045 
L 208.067707 534.032467 
L 210.991397 452.000218 
L 213.915087 415.041624 
L 216.838777 467.584262 
L 219.762468 422.860196 
L 222.686158 407.974981 
L 225.609848 456.809222 
L 228.533538 527.537185 
L 231.457228 497.766405 
L 234.380918 340.437554 
L 237.304608 468.354904 
L 240.228298 464.898084 
L 243.151988 391.572652 
L 246.075678 371.569595 
L 248.999369 454.076591 
L 251.923059 528.271064 
L 254.846749 467.149706 
L 257.770439 443.593844 
L 260.694129 372.71893 
L 263.617819 479.175418 
L 266.541509 383.192163 
L 269.465199 381.736404 
L 272.388889 436.439086 
L 275.312579 481.094346 
L 278.23627 498.835007 
L 281.15996 497.306629 
L 284.08365 446.559861 
L 287.00734 444.42766 
L 289.93103 505.12758 
L 292.85472 451.901295 
L 295.77841 410.782644 
L 298.7021 428.259662 
L 301.62579 380.563842 
L 304.549481 382.013305 
L 307.473171 407.474139 
L 310.396861 495.322079 
L 313.320551 467.619137 
L 316.244241 433.33217 
L 319.167931 466.102408 
L 322.091621 539.074682 
L 325.015311 442.887284 
L 327.939001 418.01957 
L 330.862691 383.929155 
L 333.786382 387.207928 
L 336.710072 401.899494 
L 339.633762 476.783421 
L 342.557452 531.65677 
L 345.481142 421.31181 
L 348.404832 388.293809 
L 351.328522 494.57991 
L 354.252212 553.91918 
L 357.175902 510.401432 
L 360.099592 496.183004 
L 363.023283 521.976917 
L 365.946973 392.345778 
L 368.870663 424.407498 
L 371.794353 434.825847 
L 374.718043 449.371932 
L 377.641733 494.053777 
L 380.565423 545.408216 
L 383.489113 455.331181 
L 386.412803 374.707259 
L 389.336494 385.586888 
L 392.260184 458.299892 
L 395.183874 502.616861 
L 398.107564 402.344613 
L 401.031254 389.035139 
L 403.954944 432.397856 
L 406.878634 421.397161 
L 409.802324 448.851361 
L 412.726014 422.258017 
L 415.649704 496.718827 
L 418.573395 425.213855 
L 421.497085 515.186126 
L 424.420775 553.272472 
L 427.344465 419.954344 
L 430.268155 416.955411 
L 433.191845 393.965978 
L 436.115535 283.632124 
L 439.039225 436.378676 
L 441.962915 569.31839 
L 444.886605 466.604439 
L 447.810296 317.495642 
L 450.733986 359.191111 
L 453.657676 397.400482 
L 456.581366 372.016708 
L 459.505056 397.990173 
L 462.428746 358.449204 
L 465.352436 408.483239 
L 468.276126 404.807689 
L 471.199816 438.004228 
L 474.123506 456.501679 
L 477.047197 513.120666 
L 479.970887 376.598623 
L 482.894577 377.787206 
L 485.818267 416.942958 
L 488.741957 483.24715 
L 491.665647 528.67928 
L 494.589337 404.461493 
L 497.513027 496.639178 
L 500.436717 486.643701 
L 503.360408 504.783902 
L 506.284098 587.200335 
L 509.207788 464.004207 
L 512.131478 465.909598 
L 515.055168 441.192053 
L 517.978858 482.153608 
L 520.902548 460.736558 
L 523.826238 435.345754 
L 526.749928 421.391529 
L 529.673618 386.116659 
L 532.597309 333.717072 
L 535.520999 425.840135 
L 538.444689 414.413315 
L 541.368379 406.491448 
L 544.292069 341.307382 
L 547.215759 327.813983 
L 550.139449 275.277048 
L 553.063139 248.851468 
L 555.986829 286.262107 
L 558.910519 284.335972 
L 561.83421 337.006794 
L 564.7579 366.660128 
L 567.68159 338.306368 
L 570.60528 371.687337 
L 573.52897 410.238287 
L 576.45266 424.955948 
L 579.37635 411.653889 
L 582.30004 355.503388 
L 585.22373 391.882924 
L 588.147421 340.601295 
L 591.071111 286.410824 
L 593.994801 381.861212 
L 596.918491 389.214341 
L 599.842181 472.469487 
L 602.765871 408.99517 
L 605.689561 361.330588 
L 608.613251 463.185852 
L 611.536941 557.575247 
L 614.460631 566.655299 
L 617.384322 489.982044 
L 620.308012 504.592282 
L 623.231702 515.405869 
L 626.155392 555.240197 
L 629.079082 481.469646 
L 632.002772 447.963675 
L 634.926462 461.116825 
L 637.850152 483.531572 
L 640.773842 416.62513 
L 643.697532 370.189217 
L 646.621223 399.055067 
L 649.544913 442.793328 
L 652.468603 448.612658 
L 655.392293 417.151753 
L 658.315983 344.738038 
L 661.239673 443.306519 
L 664.163363 374.418465 
L 667.087053 455.072259 
L 670.010743 487.613799 
L 672.934433 494.889132 
L 675.858124 511.870729 
L 678.781814 460.79438 
L 681.705504 496.084746 
L 684.629194 529.175295 
L 687.552884 430.583483 
L 690.476574 473.345035 
L 693.400264 411.227764 
L 696.323954 436.260618 
L 699.247644 426.674826 
L 702.171335 393.076229 
L 705.095025 394.149868 
L 708.018715 390.524444 
L 710.942405 390.868506 
L 713.866095 388.151651 
L 716.789785 389.393193 
L 719.713475 390.176289 
L 722.637165 384.36371 
L 725.560855 389.419848 
L 728.484545 382.295942 
L 728.484545 382.295942 
" style="fill:none;stroke:#8172b3;stroke-dasharray:7.5,1.5,1.5,1.5;stroke-dashoffset:0;stroke-width:1.5;"/>
   </g>
   <g id="line2d_6"/>
   <g id="line2d_7"/>
   <g id="line2d_8"/>
   <g id="line2d_9"/>
   <g id="line2d_10"/>
   <g id="patch_3">
    <path d="M 105.3 529.9416 
L 105.3 71.4528 
" style="fill:none;stroke:#262626;stroke-linecap:square;stroke-linejoin:miter;stroke-width:1.25;"/>
   </g>
   <g id="patch_4">
    <path d="M 758.16 529.9416 
L 758.16 71.4528 
" style="fill:none;stroke:#262626;stroke-linecap:square;stroke-linejoin:miter;stroke-width:1.25;"/>
   </g>
   <g id="patch_5">
    <path d="M 105.3 529.9416 
L 758.16 529.9416 
" style="fill:none;stroke:#262626;stroke-linecap:square;stroke-linejoin:miter;stroke-width:1.25;"/>
   </g>
   <g id="patch_6">
    <path d="M 105.3 71.4528 
L 758.16 71.4528 
" style="fill:none;stroke:#262626;stroke-linecap:square;stroke-linejoin:miter;stroke-width:1.25;"/>
   </g>
   <g id="text_16">
    <!-- Activations for &gt;"&lt; -->
    <g style="fill:#262626;" transform="translate(383.244375 65.4528)scale(0.12 -0.12)">
     <defs>
      <path d="M -9 0 
L 1750 4581 
L 2403 4581 
L 4278 0 
L 3588 0 
L 3053 1388 
L 1138 1388 
L 634 0 
L -9 0 
z
M 1313 1881 
L 2866 1881 
L 2388 3150 
Q 2169 3728 2063 4100 
Q 1975 3659 1816 3225 
L 1313 1881 
z
" id="ArialMT-41" transform="scale(0.015625)"/>
      <path d="M 2588 1216 
L 3141 1144 
Q 3050 572 2676 248 
Q 2303 -75 1759 -75 
Q 1078 -75 664 370 
Q 250 816 250 1647 
Q 250 2184 428 2587 
Q 606 2991 970 3192 
Q 1334 3394 1763 3394 
Q 2303 3394 2647 3120 
Q 2991 2847 3088 2344 
L 2541 2259 
Q 2463 2594 2264 2762 
Q 2066 2931 1784 2931 
Q 1359 2931 1093 2626 
Q 828 2322 828 1663 
Q 828 994 1084 691 
Q 1341 388 1753 388 
Q 2084 388 2306 591 
Q 2528 794 2588 1216 
z
" id="ArialMT-63" transform="scale(0.015625)"/>
      <path d="M 1650 503 
L 1731 6 
Q 1494 -44 1306 -44 
Q 1000 -44 831 53 
Q 663 150 594 308 
Q 525 466 525 972 
L 525 2881 
L 113 2881 
L 113 3319 
L 525 3319 
L 525 4141 
L 1084 4478 
L 1084 3319 
L 1650 3319 
L 1650 2881 
L 1084 2881 
L 1084 941 
Q 1084 700 1114 631 
Q 1144 563 1211 522 
Q 1278 481 1403 481 
Q 1497 481 1650 503 
z
" id="ArialMT-74" transform="scale(0.015625)"/>
      <path d="M 425 3934 
L 425 4581 
L 988 4581 
L 988 3934 
L 425 3934 
z
M 425 0 
L 425 3319 
L 988 3319 
L 988 0 
L 425 0 
z
" id="ArialMT-69" transform="scale(0.015625)"/>
      <path d="M 1344 0 
L 81 3319 
L 675 3319 
L 1388 1331 
Q 1503 1009 1600 663 
Q 1675 925 1809 1294 
L 2547 3319 
L 3125 3319 
L 1869 0 
L 1344 0 
z
" id="ArialMT-76" transform="scale(0.015625)"/>
      <path d="M 2588 409 
Q 2275 144 1986 34 
Q 1697 -75 1366 -75 
Q 819 -75 525 192 
Q 231 459 231 875 
Q 231 1119 342 1320 
Q 453 1522 633 1644 
Q 813 1766 1038 1828 
Q 1203 1872 1538 1913 
Q 2219 1994 2541 2106 
Q 2544 2222 2544 2253 
Q 2544 2597 2384 2738 
Q 2169 2928 1744 2928 
Q 1347 2928 1158 2789 
Q 969 2650 878 2297 
L 328 2372 
Q 403 2725 575 2942 
Q 747 3159 1072 3276 
Q 1397 3394 1825 3394 
Q 2250 3394 2515 3294 
Q 2781 3194 2906 3042 
Q 3031 2891 3081 2659 
Q 3109 2516 3109 2141 
L 3109 1391 
Q 3109 606 3145 398 
Q 3181 191 3288 0 
L 2700 0 
Q 2613 175 2588 409 
z
M 2541 1666 
Q 2234 1541 1622 1453 
Q 1275 1403 1131 1340 
Q 988 1278 909 1158 
Q 831 1038 831 891 
Q 831 666 1001 516 
Q 1172 366 1500 366 
Q 1825 366 2078 508 
Q 2331 650 2450 897 
Q 2541 1088 2541 1459 
L 2541 1666 
z
" id="ArialMT-61" transform="scale(0.015625)"/>
      <path d="M 213 1659 
Q 213 2581 725 3025 
Q 1153 3394 1769 3394 
Q 2453 3394 2887 2945 
Q 3322 2497 3322 1706 
Q 3322 1066 3130 698 
Q 2938 331 2570 128 
Q 2203 -75 1769 -75 
Q 1072 -75 642 372 
Q 213 819 213 1659 
z
M 791 1659 
Q 791 1022 1069 705 
Q 1347 388 1769 388 
Q 2188 388 2466 706 
Q 2744 1025 2744 1678 
Q 2744 2294 2464 2611 
Q 2184 2928 1769 2928 
Q 1347 2928 1069 2612 
Q 791 2297 791 1659 
z
" id="ArialMT-6f" transform="scale(0.015625)"/>
      <path d="M 422 0 
L 422 3319 
L 928 3319 
L 928 2847 
Q 1294 3394 1984 3394 
Q 2284 3394 2536 3286 
Q 2788 3178 2913 3003 
Q 3038 2828 3088 2588 
Q 3119 2431 3119 2041 
L 3119 0 
L 2556 0 
L 2556 2019 
Q 2556 2363 2490 2533 
Q 2425 2703 2258 2804 
Q 2091 2906 1866 2906 
Q 1506 2906 1245 2678 
Q 984 2450 984 1813 
L 984 0 
L 422 0 
z
" id="ArialMT-6e" transform="scale(0.015625)"/>
      <path d="M 197 991 
L 753 1078 
Q 800 744 1014 566 
Q 1228 388 1613 388 
Q 2000 388 2187 545 
Q 2375 703 2375 916 
Q 2375 1106 2209 1216 
Q 2094 1291 1634 1406 
Q 1016 1563 777 1677 
Q 538 1791 414 1992 
Q 291 2194 291 2438 
Q 291 2659 392 2848 
Q 494 3038 669 3163 
Q 800 3259 1026 3326 
Q 1253 3394 1513 3394 
Q 1903 3394 2198 3281 
Q 2494 3169 2634 2976 
Q 2775 2784 2828 2463 
L 2278 2388 
Q 2241 2644 2061 2787 
Q 1881 2931 1553 2931 
Q 1166 2931 1000 2803 
Q 834 2675 834 2503 
Q 834 2394 903 2306 
Q 972 2216 1119 2156 
Q 1203 2125 1616 2013 
Q 2213 1853 2448 1751 
Q 2684 1650 2818 1456 
Q 2953 1263 2953 975 
Q 2953 694 2789 445 
Q 2625 197 2315 61 
Q 2006 -75 1616 -75 
Q 969 -75 630 194 
Q 291 463 197 991 
z
" id="ArialMT-73" transform="scale(0.015625)"/>
      <path id="ArialMT-20" transform="scale(0.015625)"/>
      <path d="M 556 0 
L 556 2881 
L 59 2881 
L 59 3319 
L 556 3319 
L 556 3672 
Q 556 4006 616 4169 
Q 697 4388 901 4523 
Q 1106 4659 1475 4659 
Q 1713 4659 2000 4603 
L 1916 4113 
Q 1741 4144 1584 4144 
Q 1328 4144 1222 4034 
Q 1116 3925 1116 3625 
L 1116 3319 
L 1763 3319 
L 1763 2881 
L 1116 2881 
L 1116 0 
L 556 0 
z
" id="ArialMT-66" transform="scale(0.015625)"/>
      <path d="M 416 0 
L 416 3319 
L 922 3319 
L 922 2816 
Q 1116 3169 1280 3281 
Q 1444 3394 1641 3394 
Q 1925 3394 2219 3213 
L 2025 2691 
Q 1819 2813 1613 2813 
Q 1428 2813 1281 2702 
Q 1134 2591 1072 2394 
Q 978 2094 978 1738 
L 978 0 
L 416 0 
z
" id="ArialMT-72" transform="scale(0.015625)"/>
      <path d="M 3384 2003 
L 350 706 
L 350 1266 
L 2753 2263 
L 350 3250 
L 350 3809 
L 3384 2528 
L 3384 2003 
z
" id="ArialMT-3e" transform="scale(0.015625)"/>
      <path d="M 450 2959 
L 294 3831 
L 294 4581 
L 934 4581 
L 934 3831 
L 794 2959 
L 450 2959 
z
M 1484 2959 
L 1331 3831 
L 1331 4581 
L 1972 4581 
L 1972 3831 
L 1822 2959 
L 1484 2959 
z
" id="ArialMT-22" transform="scale(0.015625)"/>
      <path d="M 350 2003 
L 350 2528 
L 3384 3809 
L 3384 3250 
L 978 2263 
L 3384 1266 
L 3384 706 
L 350 2003 
z
" id="ArialMT-3c" transform="scale(0.015625)"/>
     </defs>
     <use xlink:href="#ArialMT-41"/>
     <use x="66.699219" xlink:href="#ArialMT-63"/>
     <use x="116.699219" xlink:href="#ArialMT-74"/>
     <use x="144.482422" xlink:href="#ArialMT-69"/>
     <use x="166.699219" xlink:href="#ArialMT-76"/>
     <use x="216.699219" xlink:href="#ArialMT-61"/>
     <use x="272.314453" xlink:href="#ArialMT-74"/>
     <use x="300.097656" xlink:href="#ArialMT-69"/>
     <use x="322.314453" xlink:href="#ArialMT-6f"/>
     <use x="377.929688" xlink:href="#ArialMT-6e"/>
     <use x="433.544922" xlink:href="#ArialMT-73"/>
     <use x="483.544922" xlink:href="#ArialMT-20"/>
     <use x="511.328125" xlink:href="#ArialMT-66"/>
     <use x="539.111328" xlink:href="#ArialMT-6f"/>
     <use x="594.726562" xlink:href="#ArialMT-72"/>
     <use x="628.027344" xlink:href="#ArialMT-20"/>
     <use x="655.810547" xlink:href="#ArialMT-3e"/>
     <use x="714.208984" xlink:href="#ArialMT-22"/>
     <use x="749.707031" xlink:href="#ArialMT-3c"/>
    </g>
   </g>
   <g id="legend_1">
    <g id="patch_7">
     <path d="M 640.044062 158.514363 
L 750.46 158.514363 
Q 752.66 158.514363 752.66 156.314363 
L 752.66 79.1528 
Q 752.66 76.9528 750.46 76.9528 
L 640.044062 76.9528 
Q 637.844062 76.9528 637.844062 79.1528 
L 637.844062 156.314363 
Q 637.844062 158.514363 640.044062 158.514363 
z
" style="fill:#ffffff;opacity:0.8;stroke:#cccccc;stroke-linejoin:miter;"/>
    </g>
    <g id="line2d_11">
     <path d="M 642.244062 85.376394 
L 664.244062 85.376394 
" style="fill:none;stroke:#4c72b0;stroke-linecap:round;stroke-width:1.5;"/>
    </g>
    <g id="line2d_12"/>
    <g id="text_17">
     <!-- regular -->
     <g style="fill:#262626;" transform="translate(673.044062 89.226394)scale(0.11 -0.11)">
      <defs>
       <path d="M 2694 1069 
L 3275 997 
Q 3138 488 2766 206 
Q 2394 -75 1816 -75 
Q 1088 -75 661 373 
Q 234 822 234 1631 
Q 234 2469 665 2931 
Q 1097 3394 1784 3394 
Q 2450 3394 2872 2941 
Q 3294 2488 3294 1666 
Q 3294 1616 3291 1516 
L 816 1516 
Q 847 969 1125 678 
Q 1403 388 1819 388 
Q 2128 388 2347 550 
Q 2566 713 2694 1069 
z
M 847 1978 
L 2700 1978 
Q 2663 2397 2488 2606 
Q 2219 2931 1791 2931 
Q 1403 2931 1139 2672 
Q 875 2413 847 1978 
z
" id="ArialMT-65" transform="scale(0.015625)"/>
       <path d="M 319 -275 
L 866 -356 
Q 900 -609 1056 -725 
Q 1266 -881 1628 -881 
Q 2019 -881 2231 -725 
Q 2444 -569 2519 -288 
Q 2563 -116 2559 434 
Q 2191 0 1641 0 
Q 956 0 581 494 
Q 206 988 206 1678 
Q 206 2153 378 2554 
Q 550 2956 876 3175 
Q 1203 3394 1644 3394 
Q 2231 3394 2613 2919 
L 2613 3319 
L 3131 3319 
L 3131 450 
Q 3131 -325 2973 -648 
Q 2816 -972 2473 -1159 
Q 2131 -1347 1631 -1347 
Q 1038 -1347 672 -1080 
Q 306 -813 319 -275 
z
M 784 1719 
Q 784 1066 1043 766 
Q 1303 466 1694 466 
Q 2081 466 2343 764 
Q 2606 1063 2606 1700 
Q 2606 2309 2336 2618 
Q 2066 2928 1684 2928 
Q 1309 2928 1046 2623 
Q 784 2319 784 1719 
z
" id="ArialMT-67" transform="scale(0.015625)"/>
       <path d="M 2597 0 
L 2597 488 
Q 2209 -75 1544 -75 
Q 1250 -75 995 37 
Q 741 150 617 320 
Q 494 491 444 738 
Q 409 903 409 1263 
L 409 3319 
L 972 3319 
L 972 1478 
Q 972 1038 1006 884 
Q 1059 663 1231 536 
Q 1403 409 1656 409 
Q 1909 409 2131 539 
Q 2353 669 2445 892 
Q 2538 1116 2538 1541 
L 2538 3319 
L 3100 3319 
L 3100 0 
L 2597 0 
z
" id="ArialMT-75" transform="scale(0.015625)"/>
       <path d="M 409 0 
L 409 4581 
L 972 4581 
L 972 0 
L 409 0 
z
" id="ArialMT-6c" transform="scale(0.015625)"/>
      </defs>
      <use xlink:href="#ArialMT-72"/>
      <use x="33.300781" xlink:href="#ArialMT-65"/>
      <use x="88.916016" xlink:href="#ArialMT-67"/>
      <use x="144.53125" xlink:href="#ArialMT-75"/>
      <use x="200.146484" xlink:href="#ArialMT-6c"/>
      <use x="222.363281" xlink:href="#ArialMT-61"/>
      <use x="277.978516" xlink:href="#ArialMT-72"/>
     </g>
    </g>
    <g id="line2d_13">
     <path d="M 642.244062 101.0978 
L 664.244062 101.0978 
" style="fill:none;stroke:#dd8452;stroke-dasharray:6,2.25;stroke-dashoffset:0;stroke-width:1.5;"/>
    </g>
    <g id="line2d_14"/>
    <g id="text_18">
     <!-- splitted_3s -->
     <g style="fill:#262626;" transform="translate(673.044062 104.9478)scale(0.11 -0.11)">
      <defs>
       <path d="M 422 -1272 
L 422 3319 
L 934 3319 
L 934 2888 
Q 1116 3141 1344 3267 
Q 1572 3394 1897 3394 
Q 2322 3394 2647 3175 
Q 2972 2956 3137 2557 
Q 3303 2159 3303 1684 
Q 3303 1175 3120 767 
Q 2938 359 2589 142 
Q 2241 -75 1856 -75 
Q 1575 -75 1351 44 
Q 1128 163 984 344 
L 984 -1272 
L 422 -1272 
z
M 931 1641 
Q 931 1000 1190 694 
Q 1450 388 1819 388 
Q 2194 388 2461 705 
Q 2728 1022 2728 1688 
Q 2728 2322 2467 2637 
Q 2206 2953 1844 2953 
Q 1484 2953 1207 2617 
Q 931 2281 931 1641 
z
" id="ArialMT-70" transform="scale(0.015625)"/>
       <path d="M 2575 0 
L 2575 419 
Q 2259 -75 1647 -75 
Q 1250 -75 917 144 
Q 584 363 401 755 
Q 219 1147 219 1656 
Q 219 2153 384 2558 
Q 550 2963 881 3178 
Q 1213 3394 1622 3394 
Q 1922 3394 2156 3267 
Q 2391 3141 2538 2938 
L 2538 4581 
L 3097 4581 
L 3097 0 
L 2575 0 
z
M 797 1656 
Q 797 1019 1065 703 
Q 1334 388 1700 388 
Q 2069 388 2326 689 
Q 2584 991 2584 1609 
Q 2584 2291 2321 2609 
Q 2059 2928 1675 2928 
Q 1300 2928 1048 2622 
Q 797 2316 797 1656 
z
" id="ArialMT-64" transform="scale(0.015625)"/>
       <path d="M -97 -1272 
L -97 -866 
L 3631 -866 
L 3631 -1272 
L -97 -1272 
z
" id="ArialMT-5f" transform="scale(0.015625)"/>
       <path d="M 269 1209 
L 831 1284 
Q 928 806 1161 595 
Q 1394 384 1728 384 
Q 2125 384 2398 659 
Q 2672 934 2672 1341 
Q 2672 1728 2419 1979 
Q 2166 2231 1775 2231 
Q 1616 2231 1378 2169 
L 1441 2663 
Q 1497 2656 1531 2656 
Q 1891 2656 2178 2843 
Q 2466 3031 2466 3422 
Q 2466 3731 2256 3934 
Q 2047 4138 1716 4138 
Q 1388 4138 1169 3931 
Q 950 3725 888 3313 
L 325 3413 
Q 428 3978 793 4289 
Q 1159 4600 1703 4600 
Q 2078 4600 2393 4439 
Q 2709 4278 2876 4000 
Q 3044 3722 3044 3409 
Q 3044 3113 2884 2869 
Q 2725 2625 2413 2481 
Q 2819 2388 3044 2092 
Q 3269 1797 3269 1353 
Q 3269 753 2831 336 
Q 2394 -81 1725 -81 
Q 1122 -81 723 278 
Q 325 638 269 1209 
z
" id="ArialMT-33" transform="scale(0.015625)"/>
      </defs>
      <use xlink:href="#ArialMT-73"/>
      <use x="50" xlink:href="#ArialMT-70"/>
      <use x="105.615234" xlink:href="#ArialMT-6c"/>
      <use x="127.832031" xlink:href="#ArialMT-69"/>
      <use x="150.048828" xlink:href="#ArialMT-74"/>
      <use x="177.832031" xlink:href="#ArialMT-74"/>
      <use x="205.615234" xlink:href="#ArialMT-65"/>
      <use x="261.230469" xlink:href="#ArialMT-64"/>
      <use x="316.845703" xlink:href="#ArialMT-5f"/>
      <use x="372.460938" xlink:href="#ArialMT-33"/>
      <use x="428.076172" xlink:href="#ArialMT-73"/>
     </g>
    </g>
    <g id="line2d_15">
     <path d="M 642.244062 116.6903 
L 664.244062 116.6903 
" style="fill:none;stroke:#55a868;stroke-dasharray:1.5,1.5;stroke-dashoffset:0;stroke-width:1.5;"/>
    </g>
    <g id="line2d_16"/>
    <g id="text_19">
     <!-- splitted_1s -->
     <g style="fill:#262626;" transform="translate(673.044062 120.5403)scale(0.11 -0.11)">
      <use xlink:href="#ArialMT-73"/>
      <use x="50" xlink:href="#ArialMT-70"/>
      <use x="105.615234" xlink:href="#ArialMT-6c"/>
      <use x="127.832031" xlink:href="#ArialMT-69"/>
      <use x="150.048828" xlink:href="#ArialMT-74"/>
      <use x="177.832031" xlink:href="#ArialMT-74"/>
      <use x="205.615234" xlink:href="#ArialMT-65"/>
      <use x="261.230469" xlink:href="#ArialMT-64"/>
      <use x="316.845703" xlink:href="#ArialMT-5f"/>
      <use x="372.460938" xlink:href="#ArialMT-31"/>
      <use x="428.076172" xlink:href="#ArialMT-73"/>
     </g>
    </g>
    <g id="line2d_17">
     <path d="M 642.244062 132.384206 
L 664.244062 132.384206 
" style="fill:none;stroke:#c44e52;stroke-dasharray:4.5,1.875,2.25,1.875;stroke-dashoffset:0;stroke-width:1.5;"/>
    </g>
    <g id="line2d_18"/>
    <g id="text_20">
     <!-- overlap_1f_3s -->
     <g style="fill:#262626;" transform="translate(673.044062 136.234206)scale(0.11 -0.11)">
      <use xlink:href="#ArialMT-6f"/>
      <use x="55.615234" xlink:href="#ArialMT-76"/>
      <use x="105.615234" xlink:href="#ArialMT-65"/>
      <use x="161.230469" xlink:href="#ArialMT-72"/>
      <use x="194.53125" xlink:href="#ArialMT-6c"/>
      <use x="216.748047" xlink:href="#ArialMT-61"/>
      <use x="272.363281" xlink:href="#ArialMT-70"/>
      <use x="327.978516" xlink:href="#ArialMT-5f"/>
      <use x="383.59375" xlink:href="#ArialMT-31"/>
      <use x="439.208984" xlink:href="#ArialMT-66"/>
      <use x="466.992188" xlink:href="#ArialMT-5f"/>
      <use x="522.607422" xlink:href="#ArialMT-33"/>
      <use x="578.222656" xlink:href="#ArialMT-73"/>
     </g>
    </g>
    <g id="line2d_19">
     <path d="M 642.244062 148.078113 
L 664.244062 148.078113 
" style="fill:none;stroke:#8172b3;stroke-dasharray:7.5,1.5,1.5,1.5;stroke-dashoffset:0;stroke-width:1.5;"/>
    </g>
    <g id="line2d_20"/>
    <g id="text_21">
     <!-- overlap_10f_3s -->
     <g style="fill:#262626;" transform="translate(673.044062 151.928112)scale(0.11 -0.11)">
      <use xlink:href="#ArialMT-6f"/>
      <use x="55.615234" xlink:href="#ArialMT-76"/>
      <use x="105.615234" xlink:href="#ArialMT-65"/>
      <use x="161.230469" xlink:href="#ArialMT-72"/>
      <use x="194.53125" xlink:href="#ArialMT-6c"/>
      <use x="216.748047" xlink:href="#ArialMT-61"/>
      <use x="272.363281" xlink:href="#ArialMT-70"/>
      <use x="327.978516" xlink:href="#ArialMT-5f"/>
      <use x="383.59375" xlink:href="#ArialMT-31"/>
      <use x="439.208984" xlink:href="#ArialMT-30"/>
      <use x="494.824219" xlink:href="#ArialMT-66"/>
      <use x="522.607422" xlink:href="#ArialMT-5f"/>
      <use x="578.222656" xlink:href="#ArialMT-33"/>
      <use x="633.837891" xlink:href="#ArialMT-73"/>
     </g>
    </g>
   </g>
  </g>
 </g>
 <defs>
  <clipPath id="p7dc6a41df4">
   <rect height="458.4888" width="652.86" x="105.3" y="71.4528"/>
  </clipPath>
 </defs>
</svg>
