<?xml version="1.0" encoding="utf-8" standalone="no"?>
<!DOCTYPE svg PUBLIC "-//W3C//DTD SVG 1.1//EN"
  "http://www.w3.org/Graphics/SVG/1.1/DTD/svg11.dtd">
<svg height="595.44pt" version="1.1" viewBox="0 0 842.4 595.44" width="842.4pt" xmlns="http://www.w3.org/2000/svg" xmlns:xlink="http://www.w3.org/1999/xlink">
 <metadata>
  <rdf:RDF xmlns:cc="http://creativecommons.org/ns#" xmlns:dc="http://purl.org/dc/elements/1.1/" xmlns:rdf="http://www.w3.org/1999/02/22-rdf-syntax-ns#">
   <cc:Work>
    <dc:type rdf:resource="http://purl.org/dc/dcmitype/StillImage"/>
    <dc:date>2021-06-04T22:03:19.432386</dc:date>
    <dc:format>image/svg+xml</dc:format>
    <dc:creator>
     <cc:Agent>
      <dc:title>Matplotlib v3.4.1, https://matplotlib.org/</dc:title>
     </cc:Agent>
    </dc:creator>
   </cc:Work>
  </rdf:RDF>
 </metadata>
 <defs>
  <style type="text/css">*{stroke-linecap:butt;stroke-linejoin:round;}</style>
 </defs>
 <g id="figure_1">
  <g id="patch_1">
   <path d="M 0 595.44 
L 842.4 595.44 
L 842.4 0 
L 0 0 
z
" style="fill:#ffffff;"/>
  </g>
  <g id="axes_1">
   <g id="patch_2">
    <path d="M 105.3 529.9416 
L 758.16 529.9416 
L 758.16 71.4528 
L 105.3 71.4528 
z
" style="fill:#ffffff;"/>
   </g>
   <g id="matplotlib.axis_1">
    <g id="xtick_1">
     <g id="text_1">
      <!-- 0 -->
      <g style="fill:#262626;" transform="translate(131.916939 547.315194)scale(0.11 -0.11)">
       <defs>
        <path d="M 266 2259 
Q 266 3072 433 3567 
Q 600 4063 929 4331 
Q 1259 4600 1759 4600 
Q 2128 4600 2406 4451 
Q 2684 4303 2865 4023 
Q 3047 3744 3150 3342 
Q 3253 2941 3253 2259 
Q 3253 1453 3087 958 
Q 2922 463 2592 192 
Q 2263 -78 1759 -78 
Q 1097 -78 719 397 
Q 266 969 266 2259 
z
M 844 2259 
Q 844 1131 1108 757 
Q 1372 384 1759 384 
Q 2147 384 2411 759 
Q 2675 1134 2675 2259 
Q 2675 3391 2411 3762 
Q 2147 4134 1753 4134 
Q 1366 4134 1134 3806 
Q 844 3388 844 2259 
z
" id="ArialMT-30" transform="scale(0.015625)"/>
       </defs>
       <use xlink:href="#ArialMT-30"/>
      </g>
     </g>
    </g>
    <g id="xtick_2">
     <g id="text_2">
      <!-- 25 -->
      <g style="fill:#262626;" transform="translate(201.950676 547.315194)scale(0.11 -0.11)">
       <defs>
        <path d="M 3222 541 
L 3222 0 
L 194 0 
Q 188 203 259 391 
Q 375 700 629 1000 
Q 884 1300 1366 1694 
Q 2113 2306 2375 2664 
Q 2638 3022 2638 3341 
Q 2638 3675 2398 3904 
Q 2159 4134 1775 4134 
Q 1369 4134 1125 3890 
Q 881 3647 878 3216 
L 300 3275 
Q 359 3922 746 4261 
Q 1134 4600 1788 4600 
Q 2447 4600 2831 4234 
Q 3216 3869 3216 3328 
Q 3216 3053 3103 2787 
Q 2991 2522 2730 2228 
Q 2469 1934 1863 1422 
Q 1356 997 1212 845 
Q 1069 694 975 541 
L 3222 541 
z
" id="ArialMT-32" transform="scale(0.015625)"/>
        <path d="M 266 1200 
L 856 1250 
Q 922 819 1161 601 
Q 1400 384 1738 384 
Q 2144 384 2425 690 
Q 2706 997 2706 1503 
Q 2706 1984 2436 2262 
Q 2166 2541 1728 2541 
Q 1456 2541 1237 2417 
Q 1019 2294 894 2097 
L 366 2166 
L 809 4519 
L 3088 4519 
L 3088 3981 
L 1259 3981 
L 1013 2750 
Q 1425 3038 1878 3038 
Q 2478 3038 2890 2622 
Q 3303 2206 3303 1553 
Q 3303 931 2941 478 
Q 2500 -78 1738 -78 
Q 1113 -78 717 272 
Q 322 622 266 1200 
z
" id="ArialMT-35" transform="scale(0.015625)"/>
       </defs>
       <use xlink:href="#ArialMT-32"/>
       <use x="55.615234" xlink:href="#ArialMT-35"/>
      </g>
     </g>
    </g>
    <g id="xtick_3">
     <g id="text_3">
      <!-- 50 -->
      <g style="fill:#262626;" transform="translate(275.042928 547.315194)scale(0.11 -0.11)">
       <use xlink:href="#ArialMT-35"/>
       <use x="55.615234" xlink:href="#ArialMT-30"/>
      </g>
     </g>
    </g>
    <g id="xtick_4">
     <g id="text_4">
      <!-- 75 -->
      <g style="fill:#262626;" transform="translate(348.135181 547.315194)scale(0.11 -0.11)">
       <defs>
        <path d="M 303 3981 
L 303 4522 
L 3269 4522 
L 3269 4084 
Q 2831 3619 2401 2847 
Q 1972 2075 1738 1259 
Q 1569 684 1522 0 
L 944 0 
Q 953 541 1156 1306 
Q 1359 2072 1739 2783 
Q 2119 3494 2547 3981 
L 303 3981 
z
" id="ArialMT-37" transform="scale(0.015625)"/>
       </defs>
       <use xlink:href="#ArialMT-37"/>
       <use x="55.615234" xlink:href="#ArialMT-35"/>
      </g>
     </g>
    </g>
    <g id="xtick_5">
     <g id="text_5">
      <!-- 100 -->
      <g style="fill:#262626;" transform="translate(418.168918 547.315194)scale(0.11 -0.11)">
       <defs>
        <path d="M 2384 0 
L 1822 0 
L 1822 3584 
Q 1619 3391 1289 3197 
Q 959 3003 697 2906 
L 697 3450 
Q 1169 3672 1522 3987 
Q 1875 4303 2022 4600 
L 2384 4600 
L 2384 0 
z
" id="ArialMT-31" transform="scale(0.015625)"/>
       </defs>
       <use xlink:href="#ArialMT-31"/>
       <use x="55.615234" xlink:href="#ArialMT-30"/>
       <use x="111.230469" xlink:href="#ArialMT-30"/>
      </g>
     </g>
    </g>
    <g id="xtick_6">
     <g id="text_6">
      <!-- 125 -->
      <g style="fill:#262626;" transform="translate(491.261171 547.315194)scale(0.11 -0.11)">
       <use xlink:href="#ArialMT-31"/>
       <use x="55.615234" xlink:href="#ArialMT-32"/>
       <use x="111.230469" xlink:href="#ArialMT-35"/>
      </g>
     </g>
    </g>
    <g id="xtick_7">
     <g id="text_7">
      <!-- 150 -->
      <g style="fill:#262626;" transform="translate(564.353423 547.315194)scale(0.11 -0.11)">
       <use xlink:href="#ArialMT-31"/>
       <use x="55.615234" xlink:href="#ArialMT-35"/>
       <use x="111.230469" xlink:href="#ArialMT-30"/>
      </g>
     </g>
    </g>
    <g id="xtick_8">
     <g id="text_8">
      <!-- 175 -->
      <g style="fill:#262626;" transform="translate(637.445676 547.315194)scale(0.11 -0.11)">
       <use xlink:href="#ArialMT-31"/>
       <use x="55.615234" xlink:href="#ArialMT-37"/>
       <use x="111.230469" xlink:href="#ArialMT-35"/>
      </g>
     </g>
    </g>
    <g id="xtick_9">
     <g id="text_9">
      <!-- 200 -->
      <g style="fill:#262626;" transform="translate(710.537928 547.315194)scale(0.11 -0.11)">
       <use xlink:href="#ArialMT-32"/>
       <use x="55.615234" xlink:href="#ArialMT-30"/>
       <use x="111.230469" xlink:href="#ArialMT-30"/>
      </g>
     </g>
    </g>
   </g>
   <g id="matplotlib.axis_2">
    <g id="ytick_1">
     <g id="text_10">
      <!-- −25 -->
      <g style="fill:#262626;" transform="translate(77.14125 533.878397)scale(0.11 -0.11)">
       <defs>
        <path d="M 3381 1997 
L 356 1997 
L 356 2522 
L 3381 2522 
L 3381 1997 
z
" id="ArialMT-2212" transform="scale(0.015625)"/>
       </defs>
       <use xlink:href="#ArialMT-2212"/>
       <use x="58.398438" xlink:href="#ArialMT-32"/>
       <use x="114.013672" xlink:href="#ArialMT-35"/>
      </g>
     </g>
    </g>
    <g id="ytick_2">
     <g id="text_11">
      <!-- −20 -->
      <g style="fill:#262626;" transform="translate(77.14125 442.180637)scale(0.11 -0.11)">
       <use xlink:href="#ArialMT-2212"/>
       <use x="58.398438" xlink:href="#ArialMT-32"/>
       <use x="114.013672" xlink:href="#ArialMT-30"/>
      </g>
     </g>
    </g>
    <g id="ytick_3">
     <g id="text_12">
      <!-- −15 -->
      <g style="fill:#262626;" transform="translate(77.14125 350.482877)scale(0.11 -0.11)">
       <use xlink:href="#ArialMT-2212"/>
       <use x="58.398438" xlink:href="#ArialMT-31"/>
       <use x="114.013672" xlink:href="#ArialMT-35"/>
      </g>
     </g>
    </g>
    <g id="ytick_4">
     <g id="text_13">
      <!-- −10 -->
      <g style="fill:#262626;" transform="translate(77.14125 258.785117)scale(0.11 -0.11)">
       <use xlink:href="#ArialMT-2212"/>
       <use x="58.398438" xlink:href="#ArialMT-31"/>
       <use x="114.013672" xlink:href="#ArialMT-30"/>
      </g>
     </g>
    </g>
    <g id="ytick_5">
     <g id="text_14">
      <!-- −5 -->
      <g style="fill:#262626;" transform="translate(83.258281 167.087357)scale(0.11 -0.11)">
       <use xlink:href="#ArialMT-2212"/>
       <use x="58.398438" xlink:href="#ArialMT-35"/>
      </g>
     </g>
    </g>
    <g id="ytick_6">
     <g id="text_15">
      <!-- 0 -->
      <g style="fill:#262626;" transform="translate(89.682969 75.389597)scale(0.11 -0.11)">
       <use xlink:href="#ArialMT-30"/>
      </g>
     </g>
    </g>
   </g>
   <g id="line2d_1">
    <path clip-path="url(#p678e6ec730)" d="M 134.975455 558.754035 
L 137.899145 559.759253 
L 140.822835 560.521465 
L 143.746525 560.555046 
L 146.670215 561.470191 
L 149.593905 563.484265 
L 152.517595 564.086164 
L 155.441285 566.562952 
L 158.364975 569.313073 
L 161.288665 570.652524 
L 164.212356 573.705187 
L 167.136046 577.926074 
L 169.392252 596.44 
M 185.544923 596.44 
L 187.601876 546.295972 
L 189.803167 596.44 
M 201.687005 596.44 
L 202.220327 583.791822 
L 205.144017 575.447152 
L 205.815287 596.44 
M 210.139734 596.44 
L 210.991397 567.486807 
L 213.915087 588.994945 
L 214.742213 596.44 
M 221.759734 596.44 
L 222.686158 588.880456 
L 225.609848 571.282758 
L 227.484504 596.44 
M 232.238982 596.44 
L 234.380918 519.288501 
L 237.782465 596.44 
M 243.3664 596.44 
L 246.075678 494.791468 
L 248.999369 484.431326 
L 251.923059 575.855753 
L 254.846749 569.619323 
L 257.606409 596.44 
M 257.837098 596.44 
L 260.694129 528.113305 
L 262.374409 596.44 
M 265.153849 596.44 
L 266.541509 550.762033 
L 269.465199 537.707107 
L 272.388889 556.487896 
L 275.312579 574.427942 
L 278.23627 578.680136 
L 281.15996 566.064173 
L 284.08365 536.891061 
L 287.00734 549.598706 
L 289.93103 592.874498 
L 292.85472 544.601754 
L 295.77841 525.250268 
L 298.7021 581.406331 
L 301.62579 583.84786 
L 304.549481 550.396703 
L 307.473171 525.371928 
L 310.396861 548.017718 
L 313.320551 514.113431 
L 316.244241 548.147529 
L 319.167931 519.781997 
L 322.091621 544.158349 
L 325.015311 510.52757 
L 330.862691 583.691849 
L 333.786382 557.04621 
L 336.710072 516.633035 
L 339.633762 576.519986 
L 342.035291 596.44 
M 342.724227 596.44 
L 345.481142 524.842472 
L 348.404832 489.543921 
L 351.328522 475.030053 
L 354.252212 548.85115 
L 357.175902 535.600721 
L 360.099592 520.173038 
L 362.947673 596.44 
M 363.096961 596.44 
L 365.946973 518.120521 
L 368.870663 519.492888 
L 371.794353 537.787141 
L 374.83907 596.44 
M 382.165019 596.44 
L 383.489113 554.974839 
L 386.412803 534.833927 
L 389.336494 576.330885 
L 392.260184 550.866238 
L 395.183874 567.555997 
L 398.107564 515.261157 
L 401.031254 489.594886 
L 403.954944 492.329931 
L 406.878634 540.20163 
L 409.802324 500.526776 
L 412.726014 484.85864 
L 415.649704 571.169493 
L 418.573395 548.431321 
L 421.497085 589.614544 
L 421.771524 596.44 
M 433.222973 596.44 
L 436.115535 525.742541 
L 439.039225 538.4257 
L 441.962915 589.286293 
L 444.886605 585.021856 
L 447.810296 506.049336 
L 450.733986 469.700092 
L 453.657676 541.209716 
L 456.581366 520.618822 
L 458.165008 596.44 
M 461.135103 596.44 
L 462.428746 545.522391 
L 465.352436 555.593319 
L 468.276126 540.425991 
L 471.199816 541.041183 
L 473.295219 596.44 
M 474.95049 596.44 
L 477.047197 540.919348 
L 479.970887 455.118993 
L 482.894577 575.048871 
L 485.818267 580.38051 
L 488.741957 584.855736 
L 491.665647 541.492564 
L 494.589337 541.901164 
L 496.334629 596.44 
M 498.637139 596.44 
L 500.436717 537.489007 
L 503.360408 468.907762 
L 506.284098 553.344565 
L 507.633029 596.44 
M 515.984318 596.44 
L 517.978858 529.32249 
L 520.902548 576.695411 
L 523.826238 590.844788 
L 526.749928 546.801361 
L 529.502112 596.44 
M 534.079247 596.44 
L 535.520999 547.41421 
L 538.444689 523.339875 
L 541.368379 592.942569 
L 542.032646 596.44 
M 544.805638 596.44 
L 547.215759 540.613099 
L 550.139449 579.127354 
L 553.063139 488.331447 
L 555.986829 560.60937 
L 558.910519 538.700117 
L 561.83421 541.514392 
L 564.7579 553.857371 
L 567.68159 516.7888 
L 570.60528 520.573873 
L 573.52897 514.808307 
L 576.45266 494.36146 
L 579.37635 531.678773 
L 582.30004 543.856682 
L 585.22373 540.941945 
L 588.147421 526.75311 
L 591.071111 518.719762 
L 593.994801 541.242213 
L 596.918491 474.975694 
L 599.842181 535.326479 
L 602.765871 524.318298 
L 605.689561 523.998652 
L 608.613251 516.105363 
L 611.386712 596.44 
M 614.666214 596.44 
L 617.384322 455.485407 
L 620.308012 491.083072 
L 623.231702 552.205374 
L 625.490966 596.44 
M 628.048482 596.44 
L 629.079082 589.357931 
L 632.002772 566.781752 
L 634.926462 543.306448 
L 637.850152 579.660763 
L 640.773842 508.643866 
L 643.697532 450.187803 
L 646.621223 494.648575 
L 649.544913 513.006947 
L 652.468603 587.324689 
L 655.392293 546.736754 
L 658.315983 510.256755 
L 661.239673 572.731416 
L 664.163363 509.131171 
L 667.087053 568.260003 
L 670.010743 573.984362 
L 672.934433 558.859674 
L 675.858124 566.347091 
L 678.781814 532.278189 
L 681.705504 590.487538 
L 682.132283 596.44 
M 686.244763 596.44 
L 687.552884 568.241988 
L 688.322766 596.44 
M 700.336605 596.44 
L 702.171335 586.814786 
L 705.095025 587.178158 
L 708.018715 580.724118 
L 710.942405 582.450132 
L 713.866095 581.424696 
L 716.789785 582.527822 
L 719.713475 580.958413 
L 722.637165 578.523251 
L 725.560855 582.379508 
L 728.484545 582.610655 
L 728.484545 582.610655 
" style="fill:none;stroke:#4c72b0;stroke-linecap:round;stroke-width:1.5;"/>
   </g>
   <g id="line2d_2">
    <path clip-path="url(#p678e6ec730)" d="M 134.975455 550.407721 
L 137.899145 554.201608 
L 140.822835 554.720745 
L 143.746525 555.039797 
L 146.670215 556.379038 
L 149.593905 558.666515 
L 152.517595 557.329478 
L 155.441285 559.220667 
L 158.364975 559.26768 
L 161.288665 560.787663 
L 164.212356 561.823628 
L 167.136046 562.672171 
L 170.059736 583.283319 
L 172.983426 589.312423 
L 174.106508 596.44 
M 185.079841 596.44 
L 187.601876 520.34416 
L 190.043912 596.44 
M 202.06429 596.44 
L 202.220327 593.983781 
L 203.030235 596.44 
M 210.82156 596.44 
L 210.991397 591.300856 
L 213.915087 573.015943 
L 215.468932 596.44 
M 221.059918 596.44 
L 222.686158 587.567414 
L 225.609848 565.12129 
L 228.917576 596.44 
M 232.047582 596.44 
L 234.380918 513.411629 
L 238.435123 596.44 
M 243.207986 596.44 
L 246.075678 503.943195 
L 248.999369 511.484131 
L 251.923059 573.573837 
L 254.846749 567.82947 
L 257.371821 596.44 
M 258.000122 596.44 
L 260.694129 543.463997 
L 262.090862 596.44 
M 265.626365 596.44 
L 266.541509 570.052409 
L 269.465199 552.716536 
L 272.388889 586.672978 
L 273.927584 596.44 
M 280.102432 596.44 
L 281.15996 592.529911 
L 284.08365 549.691297 
L 287.00734 563.586126 
L 288.699417 596.44 
M 291.598224 596.44 
L 292.85472 578.417472 
L 295.77841 541.841069 
L 298.431383 596.44 
M 302.447953 596.44 
L 304.549481 564.090781 
L 307.473171 541.561265 
L 310.396861 540.283903 
L 313.320551 530.924291 
L 316.244241 564.660954 
L 319.167931 552.219576 
L 322.091621 552.776491 
L 325.015311 505.215065 
L 327.939001 573.808973 
L 330.862691 581.339799 
L 333.786382 545.55877 
L 336.710072 551.348611 
L 339.633762 590.004745 
L 342.557452 589.973228 
L 345.481142 521.003566 
L 348.404832 498.219325 
L 351.328522 558.042578 
L 354.252212 596.199549 
L 360.099592 437.605561 
L 363.023283 437.741843 
L 365.946973 481.9594 
L 368.870663 469.204986 
L 371.794353 479.63348 
L 374.718043 531.55302 
L 377.641733 564.053528 
L 380.565423 593.571298 
L 383.489113 518.090648 
L 389.336494 579.538858 
L 392.260184 555.428039 
L 395.183874 573.5702 
L 398.107564 517.635035 
L 401.031254 486.797997 
L 403.954944 524.694507 
L 406.878634 538.263043 
L 409.802324 539.159823 
L 412.726014 547.846457 
L 415.649704 592.030257 
L 418.573395 551.826577 
L 421.745656 596.44 
M 426.197676 596.44 
L 427.344465 572.366016 
L 430.268155 580.047361 
L 433.191845 562.899995 
L 436.115535 512.659806 
L 439.039225 573.112417 
L 440.931014 596.44 
M 442.699404 596.44 
L 444.886605 558.651649 
L 447.810296 486.223592 
L 450.733986 503.848434 
L 453.657676 544.51385 
L 456.581366 557.128308 
L 457.692944 596.44 
M 461.131255 596.44 
L 462.428746 545.307474 
L 465.352436 570.121494 
L 468.276126 529.646894 
L 471.199816 545.911962 
L 474.123506 590.888478 
L 477.047197 572.660267 
L 479.970887 459.87119 
L 482.894577 567.362838 
L 485.818267 596.2056 
L 486.076458 596.44 
M 488.928609 596.44 
L 491.665647 560.955181 
L 494.589337 550.31408 
L 496.212165 596.44 
M 498.670846 596.44 
L 500.436717 540.047334 
L 503.360408 469.211178 
L 506.284098 559.12045 
L 507.676574 596.44 
M 516.484287 596.44 
L 517.978858 558.575043 
L 520.902548 585.9377 
L 523.826238 586.135162 
L 526.749928 559.297273 
L 529.005057 596.44 
M 533.804113 596.44 
L 535.520999 542.295108 
L 538.444689 519.570089 
L 544.185821 596.44 
M 544.337577 596.44 
L 547.215759 505.228952 
L 550.139449 551.697711 
L 553.063139 497.482473 
L 555.986829 492.938407 
L 558.910519 459.672888 
L 561.83421 428.510083 
L 564.7579 504.161574 
L 567.68159 480.639432 
L 570.60528 575.008609 
L 573.52897 456.689766 
L 576.45266 457.09179 
L 579.37635 500.964025 
L 582.30004 462.975413 
L 585.22373 549.091637 
L 588.147421 518.476896 
L 591.071111 537.468089 
L 593.994801 566.170093 
L 596.918491 496.650441 
L 599.842181 586.109416 
L 602.765871 542.93699 
L 605.689561 567.292074 
L 608.405291 596.44 
M 616.290088 596.44 
L 617.384322 559.504004 
L 620.308012 548.471478 
L 623.231702 580.891777 
L 623.866328 596.44 
M 634.289212 596.44 
L 634.926462 592.120646 
L 637.850152 595.199368 
L 640.773842 541.032123 
L 643.697532 450.819821 
L 646.621223 515.8222 
L 649.544913 545.838644 
L 652.468603 593.851592 
L 655.392293 575.449811 
L 658.315983 489.022755 
L 661.239673 575.968633 
L 664.163363 504.943375 
L 667.087053 578.609022 
L 670.010743 588.610935 
L 672.934433 560.823132 
L 675.858124 571.387732 
L 678.781814 558.566193 
L 681.562464 596.44 
M 686.251961 596.44 
L 687.552884 565.929851 
L 688.421656 596.44 
M 700.552801 596.44 
L 702.171335 576.644165 
L 705.095025 576.800875 
L 708.018715 575.065066 
L 710.942405 577.157285 
L 713.866095 574.977092 
L 716.789785 576.989592 
L 719.713475 576.194078 
L 722.637165 572.225711 
L 725.560855 576.535902 
L 728.484545 572.06232 
L 728.484545 572.06232 
" style="fill:none;stroke:#dd8452;stroke-dasharray:6,2.25;stroke-dashoffset:0;stroke-width:1.5;"/>
   </g>
   <g id="line2d_3">
    <path clip-path="url(#p678e6ec730)" d="M 134.975455 553.72875 
L 137.899145 557.076713 
L 140.822835 558.203521 
L 143.746525 556.733665 
L 146.670215 564.042684 
L 149.593905 565.803188 
L 152.517595 565.509182 
L 155.441285 588.145947 
L 158.364975 588.720982 
L 161.288665 577.81113 
L 164.212356 580.306248 
L 167.136046 574.076604 
L 170.059736 575.617609 
L 173.558118 596.44 
M 183.861715 596.44 
L 184.678186 559.236058 
L 187.601876 522.26774 
L 190.525567 530.213394 
L 193.449257 553.917047 
L 196.372947 587.282503 
L 197.404417 596.44 
M 203.621879 596.44 
L 205.144017 570.605616 
L 208.067707 518.699893 
L 210.991397 559.722034 
L 213.871492 596.44 
M 214.031411 596.44 
L 216.838777 583.026286 
L 219.762468 545.523265 
L 222.686158 545.653216 
L 225.609848 511.905989 
L 228.533538 561.97642 
L 231.077664 596.44 
M 231.595063 596.44 
L 234.380918 492.518263 
L 237.304608 581.534952 
L 238.020902 596.44 
M 243.406383 596.44 
L 246.075678 486.462295 
L 248.999369 522.730525 
L 251.923059 525.104052 
L 254.846749 592.929031 
L 255.163873 596.44 
M 258.650819 596.44 
L 260.694129 529.462305 
L 262.61958 596.44 
M 264.840117 596.44 
L 266.541509 548.105273 
L 269.465199 567.644951 
L 272.388889 590.248625 
L 275.312579 585.655167 
L 278.23627 594.412985 
L 281.15996 561.378578 
L 284.08365 560.421283 
L 287.00734 405.738715 
L 289.93103 503.797328 
L 292.85472 512.632626 
L 295.77841 549.344786 
L 297.589746 596.44 
M 303.788001 596.44 
L 304.549481 578.682585 
L 307.473171 554.594888 
L 310.396861 589.094708 
L 313.320551 584.80561 
L 316.244241 594.472136 
L 319.167931 586.932214 
L 322.091621 586.987062 
L 325.015311 525.94329 
L 327.939001 588.20251 
L 328.668845 596.44 
M 332.503193 596.44 
L 333.786382 577.072004 
L 336.710072 572.050917 
L 337.902241 596.44 
M 344.890319 596.44 
L 345.481142 578.859828 
L 348.404832 562.799952 
L 351.328522 565.862794 
L 354.252212 555.695531 
L 356.552155 596.44 
M 357.391606 596.44 
L 360.099592 457.716497 
L 363.023283 489.482251 
L 365.946973 505.175432 
L 368.870663 564.716257 
L 371.794353 456.797189 
L 374.718043 537.211547 
L 377.641733 580.333462 
L 380.565423 558.561191 
L 383.489113 494.722768 
L 386.412803 559.58208 
L 389.299173 596.44 
M 389.402547 596.44 
L 392.260184 575.822382 
L 395.183874 562.704352 
L 398.107564 561.835731 
L 401.031254 481.676762 
L 403.954944 541.082005 
L 406.878634 565.737846 
L 409.802324 551.962369 
L 412.726014 523.286705 
L 414.741275 596.44 
M 427.201023 596.44 
L 427.344465 593.266588 
L 430.268155 591.273747 
L 433.191845 498.568985 
L 436.115535 448.068825 
L 439.039225 582.97686 
L 441.962915 567.636311 
L 444.886605 575.728915 
L 447.810296 545.072269 
L 450.733986 496.090308 
L 453.657676 516.73815 
L 456.581366 583.783706 
L 456.868887 596.44 
M 461.900171 596.44 
L 462.428746 570.831097 
L 465.352436 581.96552 
L 468.276126 554.438317 
L 471.199816 517.055382 
L 474.123506 532.550542 
L 477.047197 567.357976 
L 479.970887 467.010976 
L 482.894577 537.439651 
L 488.168918 596.44 
M 489.051419 596.44 
L 491.665647 541.331027 
L 494.589337 527.282706 
L 497.513027 583.438525 
L 500.436717 502.883618 
L 503.360408 513.589117 
L 506.284098 504.545374 
L 508.602057 596.44 
M 510.773778 596.44 
L 512.131478 575.620093 
L 515.055168 496.728236 
L 517.978858 517.191629 
L 520.902548 516.880483 
L 523.826238 530.363318 
L 526.749928 588.874369 
L 529.673618 571.243685 
L 532.597309 563.798909 
L 535.520999 562.37743 
L 538.444689 551.026936 
L 541.368379 554.473647 
L 544.292069 586.754726 
L 547.215759 520.658454 
L 550.109415 596.44 
M 550.15771 596.44 
L 553.063139 471.293323 
L 555.986829 454.965746 
L 558.910519 524.533005 
L 561.83421 464.02467 
L 564.7579 482.245116 
L 567.68159 531.768811 
L 570.60528 540.965522 
L 573.52897 504.135129 
L 576.45266 528.496894 
L 579.37635 493.840364 
L 582.30004 508.21998 
L 585.22373 591.243594 
L 588.147421 540.200546 
L 591.071111 405.603028 
L 593.994801 406.254599 
L 596.918491 420.068309 
L 599.842181 489.6235 
L 602.765871 498.604 
L 605.689561 595.398579 
L 608.613251 563.213625 
L 610.994536 596.44 
M 615.034102 596.44 
L 617.384322 511.525057 
L 620.308012 523.34827 
L 623.231702 573.886243 
L 624.418221 596.44 
M 634.412835 596.44 
L 634.926462 588.615728 
L 637.850152 579.837097 
L 640.773842 538.702776 
L 643.697532 484.983344 
L 646.621223 519.606048 
L 649.544913 542.724802 
L 652.468603 534.353512 
L 654.771144 596.44 
M 655.867948 596.44 
L 658.315983 510.239335 
L 661.239673 480.461839 
L 664.163363 459.306998 
L 667.087053 512.141858 
L 670.010743 451.759241 
L 672.934433 509.563383 
L 675.088531 596.44 
M 677.496305 596.44 
L 678.781814 572.083693 
L 681.705504 535.388953 
L 684.629194 583.837785 
L 685.831451 596.44 
M 700.786818 596.44 
L 702.171335 580.081292 
L 705.095025 574.667939 
L 708.018715 571.633291 
L 710.942405 577.295316 
L 713.866095 572.45448 
L 716.789785 574.817968 
L 719.713475 572.754503 
L 722.637165 572.491804 
L 725.560855 574.752906 
L 728.484545 572.315225 
L 728.484545 572.315225 
" style="fill:none;stroke:#55a868;stroke-dasharray:1.5,1.5;stroke-dashoffset:0;stroke-width:1.5;"/>
   </g>
   <g id="line2d_4">
    <path clip-path="url(#p678e6ec730)" d="M 134.975455 550.293792 
L 137.899145 554.065292 
L 140.822835 554.648932 
L 143.746525 554.830477 
L 146.670215 556.339196 
L 149.593905 558.621566 
L 152.517595 557.384921 
L 155.441285 559.429602 
L 158.364975 559.653474 
L 161.288665 561.230718 
L 167.136046 563.216423 
L 170.059736 583.940871 
L 172.983426 589.947518 
L 174.007093 596.44 
M 185.112351 596.44 
L 187.601876 520.876274 
L 190.013794 596.44 
M 202.087676 596.44 
L 202.220327 594.344459 
L 203.481493 596.44 
M 210.677786 596.44 
L 210.991397 586.304115 
L 213.915087 581.004027 
L 215.339396 596.44 
M 221.321379 596.44 
L 222.686158 588.562418 
L 225.609848 564.591239 
L 228.759348 596.44 
M 232.103995 596.44 
L 234.380918 514.131446 
L 238.239893 596.44 
M 243.277209 596.44 
L 246.075678 504.568251 
L 248.999369 511.359252 
L 251.923059 573.940917 
L 254.846749 568.226737 
L 257.567837 596.44 
M 257.881816 596.44 
L 260.694129 543.397885 
L 262.083627 596.44 
M 265.544974 596.44 
L 266.541509 566.155646 
L 269.465199 552.915607 
L 272.388889 583.274329 
L 273.968873 596.44 
M 279.733303 596.44 
L 281.15996 590.33674 
L 284.08365 549.920416 
L 287.00734 573.303338 
L 288.358307 596.44 
M 291.490806 596.44 
L 292.85472 572.887706 
L 295.77841 541.782897 
L 298.420158 596.44 
M 302.549104 596.44 
L 304.549481 567.150825 
L 307.473171 541.831205 
L 310.396861 542.40512 
L 313.320551 530.070536 
L 316.244241 566.365421 
L 319.167931 554.734912 
L 322.091621 564.451984 
L 325.015311 501.660545 
L 327.939001 562.60319 
L 330.862691 594.172742 
L 333.786382 543.247926 
L 336.710072 557.991368 
L 338.882748 596.44 
M 342.909417 596.44 
L 345.481142 527.633485 
L 348.404832 472.408902 
L 351.328522 536.183977 
L 354.252212 516.282081 
L 357.175902 536.839325 
L 360.099592 457.001542 
L 363.023283 577.101003 
L 365.946973 492.193055 
L 368.870663 485.690743 
L 371.794353 501.789691 
L 374.718043 557.417382 
L 377.641733 573.347447 
L 379.866148 596.44 
M 380.802458 596.44 
L 383.489113 514.158101 
L 386.412803 551.922911 
L 389.336494 579.123647 
L 392.260184 554.113634 
L 395.183874 574.131907 
L 398.107564 519.827961 
L 401.031254 490.376338 
L 403.954944 517.647592 
L 406.878634 528.229018 
L 409.802324 539.284002 
L 412.726014 544.38229 
L 415.649704 593.278061 
L 418.573395 551.412869 
L 421.524028 596.44 
M 426.497034 596.44 
L 427.344465 578.235436 
L 430.268155 579.209627 
L 433.191845 558.820357 
L 436.115535 511.54601 
L 439.039225 572.895227 
L 440.96157 596.44 
M 442.663013 596.44 
L 444.886605 557.486747 
L 447.810296 485.756155 
L 450.733986 497.922206 
L 453.657676 548.656696 
L 456.581366 555.697944 
L 457.714507 596.44 
M 461.102056 596.44 
L 462.428746 542.957698 
L 465.352436 572.283988 
L 468.276126 530.585056 
L 471.199816 553.196495 
L 473.942812 596.44 
M 474.513017 596.44 
L 477.047197 577.90645 
L 479.970887 458.14521 
L 482.894577 568.154643 
L 485.818267 596.098632 
L 486.127184 596.44 
M 488.973841 596.44 
L 491.665647 562.898141 
L 494.589337 551.688651 
L 496.165932 596.44 
M 498.694409 596.44 
L 500.436717 540.047718 
L 503.360408 468.308066 
L 507.722747 596.44 
M 516.31416 596.44 
L 517.978858 545.723805 
L 520.902548 582.739451 
L 523.826238 592.059221 
L 526.749928 560.435834 
L 529.20337 596.44 
M 533.934025 596.44 
L 535.520999 548.594327 
L 538.444689 526.972539 
L 541.368379 561.534169 
L 543.679949 596.44 
M 544.559802 596.44 
L 547.215759 504.744934 
L 550.139449 556.292603 
L 553.063139 460.200071 
L 555.986829 511.713249 
L 558.910519 530.927649 
L 561.83421 501.260655 
L 564.7579 498.458623 
L 567.68159 436.735261 
L 570.60528 520.393656 
L 573.52897 501.807181 
L 576.45266 477.925865 
L 579.37635 499.400947 
L 582.30004 474.301945 
L 585.22373 587.61803 
L 588.147421 510.53677 
L 591.071111 524.692548 
L 593.994801 576.819799 
L 596.918491 513.191501 
L 599.842181 580.709181 
L 602.765871 565.333863 
L 605.689561 573.077333 
L 608.615571 596.44 
M 616.280926 596.44 
L 617.384322 555.831952 
L 620.308012 547.250714 
L 623.231702 583.740471 
L 623.798761 596.44 
M 634.592655 596.44 
L 634.926462 594.584876 
L 637.850152 595.558682 
L 640.773842 541.539122 
L 643.697532 449.530216 
L 646.621223 518.834986 
L 649.544913 545.61855 
L 652.468603 594.539752 
L 655.392293 575.527536 
L 658.315983 488.915716 
L 661.239673 576.670995 
L 664.163363 505.458525 
L 667.087053 577.666908 
L 670.010743 588.868632 
L 672.934433 560.720781 
L 675.858124 571.124334 
L 678.781814 559.434289 
L 681.676941 596.44 
M 686.25733 596.44 
L 687.552884 566.607901 
L 688.396472 596.44 
M 700.618144 596.44 
L 702.171335 576.521106 
L 705.095025 576.918373 
L 708.018715 575.730245 
L 710.942405 578.408412 
L 713.866095 576.448207 
L 716.789785 577.787239 
L 719.713475 577.002289 
L 722.637165 573.399533 
L 725.560855 577.717419 
L 728.484545 573.695603 
L 728.484545 573.695603 
" style="fill:none;stroke:#c44e52;stroke-dasharray:4.5,1.875,2.25,1.875;stroke-dashoffset:0;stroke-width:1.5;"/>
   </g>
   <g id="line2d_5">
    <path clip-path="url(#p678e6ec730)" d="M 134.975455 552.750816 
L 137.899145 556.562753 
L 143.746525 557.727654 
L 146.670215 558.860164 
L 149.593905 561.727783 
L 152.517595 560.932444 
L 155.441285 562.689731 
L 158.364975 562.950191 
L 161.288665 565.215106 
L 164.212356 564.852084 
L 167.136046 565.160642 
L 170.059736 583.488021 
L 172.983426 589.427821 
L 174.261907 596.44 
M 185.302556 596.44 
L 187.601876 539.856029 
L 189.767935 596.44 
M 202.093894 596.44 
L 202.220327 593.961079 
L 204.086158 596.44 
M 210.757819 596.44 
L 210.991397 588.871396 
L 213.915087 570.930055 
L 215.665153 596.44 
M 221.006763 596.44 
L 225.609848 571.416871 
L 228.442867 596.44 
M 232.189963 596.44 
L 234.380918 518.206572 
L 237.304608 575.125407 
L 238.27002 596.44 
M 243.292479 596.44 
L 246.075678 500.777722 
L 248.999369 501.923874 
L 251.923059 580.586262 
L 254.846749 569.730699 
L 257.210494 596.44 
M 258.060387 596.44 
L 260.694129 538.967504 
L 262.166785 596.44 
M 265.495791 596.44 
L 266.541509 564.907248 
L 269.465199 551.357531 
L 272.388889 580.629637 
L 274.275686 596.44 
M 281.199904 596.44 
L 284.08365 556.95061 
L 287.00734 571.88826 
L 288.449007 596.44 
M 291.422168 596.44 
L 292.85472 572.19262 
L 295.77841 537.517341 
L 298.649116 596.44 
M 302.330918 596.44 
L 304.549481 564.140208 
L 307.473171 539.61897 
L 310.396861 555.967779 
L 313.320551 533.647373 
L 316.244241 563.727515 
L 319.167931 553.031005 
L 322.091621 566.620949 
L 325.015311 512.263728 
L 327.939001 548.160681 
L 330.862691 542.795706 
L 333.786382 565.954721 
L 336.710072 544.03361 
L 339.633762 589.162464 
L 342.557452 596.37987 
L 345.481142 551.824338 
L 348.404832 486.926058 
L 351.328522 490.723514 
L 354.188954 596.44 
M 354.649782 596.44 
L 357.175902 581.585079 
L 360.099592 558.438901 
L 361.46776 596.44 
M 364.280384 596.44 
L 365.946973 539.161502 
L 368.870663 539.081783 
L 371.794353 517.359218 
L 375.328117 596.44 
M 382.505474 596.44 
L 383.489113 565.490748 
L 386.412803 545.96814 
L 389.336494 581.156749 
L 392.260184 569.365578 
L 395.183874 586.016125 
L 398.107564 504.103578 
L 401.031254 498.686063 
L 403.954944 526.310999 
L 406.878634 549.923004 
L 409.802324 557.017597 
L 412.726014 535.975216 
L 414.810244 596.44 
M 416.845279 596.44 
L 418.573395 561.239148 
L 420.719716 596.44 
M 427.073828 596.44 
L 427.344465 590.362135 
L 430.268155 583.554063 
L 433.191845 563.870093 
L 436.115535 513.990162 
L 439.039225 569.811257 
L 441.078599 596.44 
M 442.711439 596.44 
L 444.886605 562.885688 
L 447.810296 486.071499 
L 450.733986 492.683298 
L 453.657676 529.780028 
L 456.581366 544.091922 
L 458.288029 596.44 
M 460.540493 596.44 
L 462.428746 528.364705 
L 465.352436 562.09007 
L 468.276126 533.60015 
L 471.199816 557.784531 
L 473.630539 596.44 
M 474.607747 596.44 
L 477.047197 556.946623 
L 479.970887 457.659339 
L 482.894577 571.779857 
L 485.818267 595.332187 
L 488.741957 521.545475 
L 491.665647 574.934102 
L 494.589337 489.374653 
L 497.513027 554.560152 
L 500.436717 538.993039 
L 503.360408 527.921824 
L 506.284098 584.651558 
L 509.207788 520.050713 
L 512.131478 545.512212 
L 515.055168 492.738182 
L 517.978858 501.463153 
L 520.902548 524.91593 
L 523.826238 524.673624 
L 526.749928 570.895775 
L 529.673618 528.164165 
L 532.597309 482.221959 
L 535.520999 516.25868 
L 538.444689 479.884811 
L 541.368379 449.729846 
L 544.292069 421.229327 
L 547.215759 453.25012 
L 550.139449 461.294348 
L 553.063139 415.469884 
L 555.986829 430.820332 
L 558.910519 426.775813 
L 561.83421 429.062591 
L 564.7579 448.45133 
L 567.68159 442.041855 
L 570.60528 491.201829 
L 573.52897 502.354267 
L 576.45266 491.8102 
L 579.37635 500.600339 
L 582.30004 458.183863 
L 585.22373 563.131492 
L 588.147421 499.22143 
L 591.071111 512.592854 
L 593.994801 556.564117 
L 596.918491 509.145338 
L 599.842181 560.650716 
L 602.765871 556.079295 
L 605.689561 569.713908 
L 608.613251 580.855887 
L 609.758931 596.44 
M 615.860387 596.44 
L 617.384322 539.978004 
L 620.308012 543.155055 
L 623.231702 574.445257 
L 624.250193 596.44 
M 633.686151 596.44 
L 634.926462 588.432538 
L 637.850152 586.816116 
L 640.773842 523.392065 
L 643.697532 441.395146 
L 646.621223 506.316792 
L 649.544913 532.838287 
L 652.468603 582.790766 
L 655.392293 561.930037 
L 658.315983 487.187743 
L 661.239673 562.062016 
L 664.163363 498.134499 
L 667.087053 569.248466 
L 670.010743 582.946357 
L 672.934433 560.476936 
L 675.858124 564.387761 
L 678.781814 541.888327 
L 681.705504 592.140829 
L 682.109893 596.44 
M 685.832784 596.44 
L 687.552884 558.162734 
L 688.706181 596.44 
M 700.20538 596.44 
L 702.171335 570.083401 
L 705.095025 573.405129 
L 708.018715 571.53129 
L 710.942405 573.57807 
L 713.866095 571.603279 
L 716.789785 572.825932 
L 719.713475 572.903902 
L 722.637165 567.801731 
L 725.560855 573.217182 
L 728.484545 569.032185 
L 728.484545 569.032185 
" style="fill:none;stroke:#8172b3;stroke-dasharray:7.5,1.5,1.5,1.5;stroke-dashoffset:0;stroke-width:1.5;"/>
   </g>
   <g id="line2d_6"/>
   <g id="line2d_7"/>
   <g id="line2d_8"/>
   <g id="line2d_9"/>
   <g id="line2d_10"/>
   <g id="patch_3">
    <path d="M 105.3 529.9416 
L 105.3 71.4528 
" style="fill:none;stroke:#262626;stroke-linecap:square;stroke-linejoin:miter;stroke-width:1.25;"/>
   </g>
   <g id="patch_4">
    <path d="M 758.16 529.9416 
L 758.16 71.4528 
" style="fill:none;stroke:#262626;stroke-linecap:square;stroke-linejoin:miter;stroke-width:1.25;"/>
   </g>
   <g id="patch_5">
    <path d="M 105.3 529.9416 
L 758.16 529.9416 
" style="fill:none;stroke:#262626;stroke-linecap:square;stroke-linejoin:miter;stroke-width:1.25;"/>
   </g>
   <g id="patch_6">
    <path d="M 105.3 71.4528 
L 758.16 71.4528 
" style="fill:none;stroke:#262626;stroke-linecap:square;stroke-linejoin:miter;stroke-width:1.25;"/>
   </g>
   <g id="text_16">
    <!-- Activations for &gt;7&lt; -->
    <g style="fill:#262626;" transform="translate(382.037813 65.4528)scale(0.12 -0.12)">
     <defs>
      <path d="M -9 0 
L 1750 4581 
L 2403 4581 
L 4278 0 
L 3588 0 
L 3053 1388 
L 1138 1388 
L 634 0 
L -9 0 
z
M 1313 1881 
L 2866 1881 
L 2388 3150 
Q 2169 3728 2063 4100 
Q 1975 3659 1816 3225 
L 1313 1881 
z
" id="ArialMT-41" transform="scale(0.015625)"/>
      <path d="M 2588 1216 
L 3141 1144 
Q 3050 572 2676 248 
Q 2303 -75 1759 -75 
Q 1078 -75 664 370 
Q 250 816 250 1647 
Q 250 2184 428 2587 
Q 606 2991 970 3192 
Q 1334 3394 1763 3394 
Q 2303 3394 2647 3120 
Q 2991 2847 3088 2344 
L 2541 2259 
Q 2463 2594 2264 2762 
Q 2066 2931 1784 2931 
Q 1359 2931 1093 2626 
Q 828 2322 828 1663 
Q 828 994 1084 691 
Q 1341 388 1753 388 
Q 2084 388 2306 591 
Q 2528 794 2588 1216 
z
" id="ArialMT-63" transform="scale(0.015625)"/>
      <path d="M 1650 503 
L 1731 6 
Q 1494 -44 1306 -44 
Q 1000 -44 831 53 
Q 663 150 594 308 
Q 525 466 525 972 
L 525 2881 
L 113 2881 
L 113 3319 
L 525 3319 
L 525 4141 
L 1084 4478 
L 1084 3319 
L 1650 3319 
L 1650 2881 
L 1084 2881 
L 1084 941 
Q 1084 700 1114 631 
Q 1144 563 1211 522 
Q 1278 481 1403 481 
Q 1497 481 1650 503 
z
" id="ArialMT-74" transform="scale(0.015625)"/>
      <path d="M 425 3934 
L 425 4581 
L 988 4581 
L 988 3934 
L 425 3934 
z
M 425 0 
L 425 3319 
L 988 3319 
L 988 0 
L 425 0 
z
" id="ArialMT-69" transform="scale(0.015625)"/>
      <path d="M 1344 0 
L 81 3319 
L 675 3319 
L 1388 1331 
Q 1503 1009 1600 663 
Q 1675 925 1809 1294 
L 2547 3319 
L 3125 3319 
L 1869 0 
L 1344 0 
z
" id="ArialMT-76" transform="scale(0.015625)"/>
      <path d="M 2588 409 
Q 2275 144 1986 34 
Q 1697 -75 1366 -75 
Q 819 -75 525 192 
Q 231 459 231 875 
Q 231 1119 342 1320 
Q 453 1522 633 1644 
Q 813 1766 1038 1828 
Q 1203 1872 1538 1913 
Q 2219 1994 2541 2106 
Q 2544 2222 2544 2253 
Q 2544 2597 2384 2738 
Q 2169 2928 1744 2928 
Q 1347 2928 1158 2789 
Q 969 2650 878 2297 
L 328 2372 
Q 403 2725 575 2942 
Q 747 3159 1072 3276 
Q 1397 3394 1825 3394 
Q 2250 3394 2515 3294 
Q 2781 3194 2906 3042 
Q 3031 2891 3081 2659 
Q 3109 2516 3109 2141 
L 3109 1391 
Q 3109 606 3145 398 
Q 3181 191 3288 0 
L 2700 0 
Q 2613 175 2588 409 
z
M 2541 1666 
Q 2234 1541 1622 1453 
Q 1275 1403 1131 1340 
Q 988 1278 909 1158 
Q 831 1038 831 891 
Q 831 666 1001 516 
Q 1172 366 1500 366 
Q 1825 366 2078 508 
Q 2331 650 2450 897 
Q 2541 1088 2541 1459 
L 2541 1666 
z
" id="ArialMT-61" transform="scale(0.015625)"/>
      <path d="M 213 1659 
Q 213 2581 725 3025 
Q 1153 3394 1769 3394 
Q 2453 3394 2887 2945 
Q 3322 2497 3322 1706 
Q 3322 1066 3130 698 
Q 2938 331 2570 128 
Q 2203 -75 1769 -75 
Q 1072 -75 642 372 
Q 213 819 213 1659 
z
M 791 1659 
Q 791 1022 1069 705 
Q 1347 388 1769 388 
Q 2188 388 2466 706 
Q 2744 1025 2744 1678 
Q 2744 2294 2464 2611 
Q 2184 2928 1769 2928 
Q 1347 2928 1069 2612 
Q 791 2297 791 1659 
z
" id="ArialMT-6f" transform="scale(0.015625)"/>
      <path d="M 422 0 
L 422 3319 
L 928 3319 
L 928 2847 
Q 1294 3394 1984 3394 
Q 2284 3394 2536 3286 
Q 2788 3178 2913 3003 
Q 3038 2828 3088 2588 
Q 3119 2431 3119 2041 
L 3119 0 
L 2556 0 
L 2556 2019 
Q 2556 2363 2490 2533 
Q 2425 2703 2258 2804 
Q 2091 2906 1866 2906 
Q 1506 2906 1245 2678 
Q 984 2450 984 1813 
L 984 0 
L 422 0 
z
" id="ArialMT-6e" transform="scale(0.015625)"/>
      <path d="M 197 991 
L 753 1078 
Q 800 744 1014 566 
Q 1228 388 1613 388 
Q 2000 388 2187 545 
Q 2375 703 2375 916 
Q 2375 1106 2209 1216 
Q 2094 1291 1634 1406 
Q 1016 1563 777 1677 
Q 538 1791 414 1992 
Q 291 2194 291 2438 
Q 291 2659 392 2848 
Q 494 3038 669 3163 
Q 800 3259 1026 3326 
Q 1253 3394 1513 3394 
Q 1903 3394 2198 3281 
Q 2494 3169 2634 2976 
Q 2775 2784 2828 2463 
L 2278 2388 
Q 2241 2644 2061 2787 
Q 1881 2931 1553 2931 
Q 1166 2931 1000 2803 
Q 834 2675 834 2503 
Q 834 2394 903 2306 
Q 972 2216 1119 2156 
Q 1203 2125 1616 2013 
Q 2213 1853 2448 1751 
Q 2684 1650 2818 1456 
Q 2953 1263 2953 975 
Q 2953 694 2789 445 
Q 2625 197 2315 61 
Q 2006 -75 1616 -75 
Q 969 -75 630 194 
Q 291 463 197 991 
z
" id="ArialMT-73" transform="scale(0.015625)"/>
      <path id="ArialMT-20" transform="scale(0.015625)"/>
      <path d="M 556 0 
L 556 2881 
L 59 2881 
L 59 3319 
L 556 3319 
L 556 3672 
Q 556 4006 616 4169 
Q 697 4388 901 4523 
Q 1106 4659 1475 4659 
Q 1713 4659 2000 4603 
L 1916 4113 
Q 1741 4144 1584 4144 
Q 1328 4144 1222 4034 
Q 1116 3925 1116 3625 
L 1116 3319 
L 1763 3319 
L 1763 2881 
L 1116 2881 
L 1116 0 
L 556 0 
z
" id="ArialMT-66" transform="scale(0.015625)"/>
      <path d="M 416 0 
L 416 3319 
L 922 3319 
L 922 2816 
Q 1116 3169 1280 3281 
Q 1444 3394 1641 3394 
Q 1925 3394 2219 3213 
L 2025 2691 
Q 1819 2813 1613 2813 
Q 1428 2813 1281 2702 
Q 1134 2591 1072 2394 
Q 978 2094 978 1738 
L 978 0 
L 416 0 
z
" id="ArialMT-72" transform="scale(0.015625)"/>
      <path d="M 3384 2003 
L 350 706 
L 350 1266 
L 2753 2263 
L 350 3250 
L 350 3809 
L 3384 2528 
L 3384 2003 
z
" id="ArialMT-3e" transform="scale(0.015625)"/>
      <path d="M 350 2003 
L 350 2528 
L 3384 3809 
L 3384 3250 
L 978 2263 
L 3384 1266 
L 3384 706 
L 350 2003 
z
" id="ArialMT-3c" transform="scale(0.015625)"/>
     </defs>
     <use xlink:href="#ArialMT-41"/>
     <use x="66.699219" xlink:href="#ArialMT-63"/>
     <use x="116.699219" xlink:href="#ArialMT-74"/>
     <use x="144.482422" xlink:href="#ArialMT-69"/>
     <use x="166.699219" xlink:href="#ArialMT-76"/>
     <use x="216.699219" xlink:href="#ArialMT-61"/>
     <use x="272.314453" xlink:href="#ArialMT-74"/>
     <use x="300.097656" xlink:href="#ArialMT-69"/>
     <use x="322.314453" xlink:href="#ArialMT-6f"/>
     <use x="377.929688" xlink:href="#ArialMT-6e"/>
     <use x="433.544922" xlink:href="#ArialMT-73"/>
     <use x="483.544922" xlink:href="#ArialMT-20"/>
     <use x="511.328125" xlink:href="#ArialMT-66"/>
     <use x="539.111328" xlink:href="#ArialMT-6f"/>
     <use x="594.726562" xlink:href="#ArialMT-72"/>
     <use x="628.027344" xlink:href="#ArialMT-20"/>
     <use x="655.810547" xlink:href="#ArialMT-3e"/>
     <use x="714.208984" xlink:href="#ArialMT-37"/>
     <use x="769.824219" xlink:href="#ArialMT-3c"/>
    </g>
   </g>
   <g id="legend_1">
    <g id="patch_7">
     <path d="M 640.044062 158.514363 
L 750.46 158.514363 
Q 752.66 158.514363 752.66 156.314363 
L 752.66 79.1528 
Q 752.66 76.9528 750.46 76.9528 
L 640.044062 76.9528 
Q 637.844062 76.9528 637.844062 79.1528 
L 637.844062 156.314363 
Q 637.844062 158.514363 640.044062 158.514363 
z
" style="fill:#ffffff;opacity:0.8;stroke:#cccccc;stroke-linejoin:miter;"/>
    </g>
    <g id="line2d_11">
     <path d="M 642.244062 85.376394 
L 664.244062 85.376394 
" style="fill:none;stroke:#4c72b0;stroke-linecap:round;stroke-width:1.5;"/>
    </g>
    <g id="line2d_12"/>
    <g id="text_17">
     <!-- regular -->
     <g style="fill:#262626;" transform="translate(673.044062 89.226394)scale(0.11 -0.11)">
      <defs>
       <path d="M 2694 1069 
L 3275 997 
Q 3138 488 2766 206 
Q 2394 -75 1816 -75 
Q 1088 -75 661 373 
Q 234 822 234 1631 
Q 234 2469 665 2931 
Q 1097 3394 1784 3394 
Q 2450 3394 2872 2941 
Q 3294 2488 3294 1666 
Q 3294 1616 3291 1516 
L 816 1516 
Q 847 969 1125 678 
Q 1403 388 1819 388 
Q 2128 388 2347 550 
Q 2566 713 2694 1069 
z
M 847 1978 
L 2700 1978 
Q 2663 2397 2488 2606 
Q 2219 2931 1791 2931 
Q 1403 2931 1139 2672 
Q 875 2413 847 1978 
z
" id="ArialMT-65" transform="scale(0.015625)"/>
       <path d="M 319 -275 
L 866 -356 
Q 900 -609 1056 -725 
Q 1266 -881 1628 -881 
Q 2019 -881 2231 -725 
Q 2444 -569 2519 -288 
Q 2563 -116 2559 434 
Q 2191 0 1641 0 
Q 956 0 581 494 
Q 206 988 206 1678 
Q 206 2153 378 2554 
Q 550 2956 876 3175 
Q 1203 3394 1644 3394 
Q 2231 3394 2613 2919 
L 2613 3319 
L 3131 3319 
L 3131 450 
Q 3131 -325 2973 -648 
Q 2816 -972 2473 -1159 
Q 2131 -1347 1631 -1347 
Q 1038 -1347 672 -1080 
Q 306 -813 319 -275 
z
M 784 1719 
Q 784 1066 1043 766 
Q 1303 466 1694 466 
Q 2081 466 2343 764 
Q 2606 1063 2606 1700 
Q 2606 2309 2336 2618 
Q 2066 2928 1684 2928 
Q 1309 2928 1046 2623 
Q 784 2319 784 1719 
z
" id="ArialMT-67" transform="scale(0.015625)"/>
       <path d="M 2597 0 
L 2597 488 
Q 2209 -75 1544 -75 
Q 1250 -75 995 37 
Q 741 150 617 320 
Q 494 491 444 738 
Q 409 903 409 1263 
L 409 3319 
L 972 3319 
L 972 1478 
Q 972 1038 1006 884 
Q 1059 663 1231 536 
Q 1403 409 1656 409 
Q 1909 409 2131 539 
Q 2353 669 2445 892 
Q 2538 1116 2538 1541 
L 2538 3319 
L 3100 3319 
L 3100 0 
L 2597 0 
z
" id="ArialMT-75" transform="scale(0.015625)"/>
       <path d="M 409 0 
L 409 4581 
L 972 4581 
L 972 0 
L 409 0 
z
" id="ArialMT-6c" transform="scale(0.015625)"/>
      </defs>
      <use xlink:href="#ArialMT-72"/>
      <use x="33.300781" xlink:href="#ArialMT-65"/>
      <use x="88.916016" xlink:href="#ArialMT-67"/>
      <use x="144.53125" xlink:href="#ArialMT-75"/>
      <use x="200.146484" xlink:href="#ArialMT-6c"/>
      <use x="222.363281" xlink:href="#ArialMT-61"/>
      <use x="277.978516" xlink:href="#ArialMT-72"/>
     </g>
    </g>
    <g id="line2d_13">
     <path d="M 642.244062 101.0978 
L 664.244062 101.0978 
" style="fill:none;stroke:#dd8452;stroke-dasharray:6,2.25;stroke-dashoffset:0;stroke-width:1.5;"/>
    </g>
    <g id="line2d_14"/>
    <g id="text_18">
     <!-- splitted_3s -->
     <g style="fill:#262626;" transform="translate(673.044062 104.9478)scale(0.11 -0.11)">
      <defs>
       <path d="M 422 -1272 
L 422 3319 
L 934 3319 
L 934 2888 
Q 1116 3141 1344 3267 
Q 1572 3394 1897 3394 
Q 2322 3394 2647 3175 
Q 2972 2956 3137 2557 
Q 3303 2159 3303 1684 
Q 3303 1175 3120 767 
Q 2938 359 2589 142 
Q 2241 -75 1856 -75 
Q 1575 -75 1351 44 
Q 1128 163 984 344 
L 984 -1272 
L 422 -1272 
z
M 931 1641 
Q 931 1000 1190 694 
Q 1450 388 1819 388 
Q 2194 388 2461 705 
Q 2728 1022 2728 1688 
Q 2728 2322 2467 2637 
Q 2206 2953 1844 2953 
Q 1484 2953 1207 2617 
Q 931 2281 931 1641 
z
" id="ArialMT-70" transform="scale(0.015625)"/>
       <path d="M 2575 0 
L 2575 419 
Q 2259 -75 1647 -75 
Q 1250 -75 917 144 
Q 584 363 401 755 
Q 219 1147 219 1656 
Q 219 2153 384 2558 
Q 550 2963 881 3178 
Q 1213 3394 1622 3394 
Q 1922 3394 2156 3267 
Q 2391 3141 2538 2938 
L 2538 4581 
L 3097 4581 
L 3097 0 
L 2575 0 
z
M 797 1656 
Q 797 1019 1065 703 
Q 1334 388 1700 388 
Q 2069 388 2326 689 
Q 2584 991 2584 1609 
Q 2584 2291 2321 2609 
Q 2059 2928 1675 2928 
Q 1300 2928 1048 2622 
Q 797 2316 797 1656 
z
" id="ArialMT-64" transform="scale(0.015625)"/>
       <path d="M -97 -1272 
L -97 -866 
L 3631 -866 
L 3631 -1272 
L -97 -1272 
z
" id="ArialMT-5f" transform="scale(0.015625)"/>
       <path d="M 269 1209 
L 831 1284 
Q 928 806 1161 595 
Q 1394 384 1728 384 
Q 2125 384 2398 659 
Q 2672 934 2672 1341 
Q 2672 1728 2419 1979 
Q 2166 2231 1775 2231 
Q 1616 2231 1378 2169 
L 1441 2663 
Q 1497 2656 1531 2656 
Q 1891 2656 2178 2843 
Q 2466 3031 2466 3422 
Q 2466 3731 2256 3934 
Q 2047 4138 1716 4138 
Q 1388 4138 1169 3931 
Q 950 3725 888 3313 
L 325 3413 
Q 428 3978 793 4289 
Q 1159 4600 1703 4600 
Q 2078 4600 2393 4439 
Q 2709 4278 2876 4000 
Q 3044 3722 3044 3409 
Q 3044 3113 2884 2869 
Q 2725 2625 2413 2481 
Q 2819 2388 3044 2092 
Q 3269 1797 3269 1353 
Q 3269 753 2831 336 
Q 2394 -81 1725 -81 
Q 1122 -81 723 278 
Q 325 638 269 1209 
z
" id="ArialMT-33" transform="scale(0.015625)"/>
      </defs>
      <use xlink:href="#ArialMT-73"/>
      <use x="50" xlink:href="#ArialMT-70"/>
      <use x="105.615234" xlink:href="#ArialMT-6c"/>
      <use x="127.832031" xlink:href="#ArialMT-69"/>
      <use x="150.048828" xlink:href="#ArialMT-74"/>
      <use x="177.832031" xlink:href="#ArialMT-74"/>
      <use x="205.615234" xlink:href="#ArialMT-65"/>
      <use x="261.230469" xlink:href="#ArialMT-64"/>
      <use x="316.845703" xlink:href="#ArialMT-5f"/>
      <use x="372.460938" xlink:href="#ArialMT-33"/>
      <use x="428.076172" xlink:href="#ArialMT-73"/>
     </g>
    </g>
    <g id="line2d_15">
     <path d="M 642.244062 116.6903 
L 664.244062 116.6903 
" style="fill:none;stroke:#55a868;stroke-dasharray:1.5,1.5;stroke-dashoffset:0;stroke-width:1.5;"/>
    </g>
    <g id="line2d_16"/>
    <g id="text_19">
     <!-- splitted_1s -->
     <g style="fill:#262626;" transform="translate(673.044062 120.5403)scale(0.11 -0.11)">
      <use xlink:href="#ArialMT-73"/>
      <use x="50" xlink:href="#ArialMT-70"/>
      <use x="105.615234" xlink:href="#ArialMT-6c"/>
      <use x="127.832031" xlink:href="#ArialMT-69"/>
      <use x="150.048828" xlink:href="#ArialMT-74"/>
      <use x="177.832031" xlink:href="#ArialMT-74"/>
      <use x="205.615234" xlink:href="#ArialMT-65"/>
      <use x="261.230469" xlink:href="#ArialMT-64"/>
      <use x="316.845703" xlink:href="#ArialMT-5f"/>
      <use x="372.460938" xlink:href="#ArialMT-31"/>
      <use x="428.076172" xlink:href="#ArialMT-73"/>
     </g>
    </g>
    <g id="line2d_17">
     <path d="M 642.244062 132.384206 
L 664.244062 132.384206 
" style="fill:none;stroke:#c44e52;stroke-dasharray:4.5,1.875,2.25,1.875;stroke-dashoffset:0;stroke-width:1.5;"/>
    </g>
    <g id="line2d_18"/>
    <g id="text_20">
     <!-- overlap_1f_3s -->
     <g style="fill:#262626;" transform="translate(673.044062 136.234206)scale(0.11 -0.11)">
      <use xlink:href="#ArialMT-6f"/>
      <use x="55.615234" xlink:href="#ArialMT-76"/>
      <use x="105.615234" xlink:href="#ArialMT-65"/>
      <use x="161.230469" xlink:href="#ArialMT-72"/>
      <use x="194.53125" xlink:href="#ArialMT-6c"/>
      <use x="216.748047" xlink:href="#ArialMT-61"/>
      <use x="272.363281" xlink:href="#ArialMT-70"/>
      <use x="327.978516" xlink:href="#ArialMT-5f"/>
      <use x="383.59375" xlink:href="#ArialMT-31"/>
      <use x="439.208984" xlink:href="#ArialMT-66"/>
      <use x="466.992188" xlink:href="#ArialMT-5f"/>
      <use x="522.607422" xlink:href="#ArialMT-33"/>
      <use x="578.222656" xlink:href="#ArialMT-73"/>
     </g>
    </g>
    <g id="line2d_19">
     <path d="M 642.244062 148.078113 
L 664.244062 148.078113 
" style="fill:none;stroke:#8172b3;stroke-dasharray:7.5,1.5,1.5,1.5;stroke-dashoffset:0;stroke-width:1.5;"/>
    </g>
    <g id="line2d_20"/>
    <g id="text_21">
     <!-- overlap_10f_3s -->
     <g style="fill:#262626;" transform="translate(673.044062 151.928112)scale(0.11 -0.11)">
      <use xlink:href="#ArialMT-6f"/>
      <use x="55.615234" xlink:href="#ArialMT-76"/>
      <use x="105.615234" xlink:href="#ArialMT-65"/>
      <use x="161.230469" xlink:href="#ArialMT-72"/>
      <use x="194.53125" xlink:href="#ArialMT-6c"/>
      <use x="216.748047" xlink:href="#ArialMT-61"/>
      <use x="272.363281" xlink:href="#ArialMT-70"/>
      <use x="327.978516" xlink:href="#ArialMT-5f"/>
      <use x="383.59375" xlink:href="#ArialMT-31"/>
      <use x="439.208984" xlink:href="#ArialMT-30"/>
      <use x="494.824219" xlink:href="#ArialMT-66"/>
      <use x="522.607422" xlink:href="#ArialMT-5f"/>
      <use x="578.222656" xlink:href="#ArialMT-33"/>
      <use x="633.837891" xlink:href="#ArialMT-73"/>
     </g>
    </g>
   </g>
  </g>
 </g>
 <defs>
  <clipPath id="p678e6ec730">
   <rect height="458.4888" width="652.86" x="105.3" y="71.4528"/>
  </clipPath>
 </defs>
</svg>
