<?xml version="1.0" encoding="utf-8" standalone="no"?>
<!DOCTYPE svg PUBLIC "-//W3C//DTD SVG 1.1//EN"
  "http://www.w3.org/Graphics/SVG/1.1/DTD/svg11.dtd">
<svg height="595.44pt" version="1.1" viewBox="0 0 842.4 595.44" width="842.4pt" xmlns="http://www.w3.org/2000/svg" xmlns:xlink="http://www.w3.org/1999/xlink">
 <metadata>
  <rdf:RDF xmlns:cc="http://creativecommons.org/ns#" xmlns:dc="http://purl.org/dc/elements/1.1/" xmlns:rdf="http://www.w3.org/1999/02/22-rdf-syntax-ns#">
   <cc:Work>
    <dc:type rdf:resource="http://purl.org/dc/dcmitype/StillImage"/>
    <dc:date>2021-06-04T22:03:09.207681</dc:date>
    <dc:format>image/svg+xml</dc:format>
    <dc:creator>
     <cc:Agent>
      <dc:title>Matplotlib v3.4.1, https://matplotlib.org/</dc:title>
     </cc:Agent>
    </dc:creator>
   </cc:Work>
  </rdf:RDF>
 </metadata>
 <defs>
  <style type="text/css">*{stroke-linecap:butt;stroke-linejoin:round;}</style>
 </defs>
 <g id="figure_1">
  <g id="patch_1">
   <path d="M 0 595.44 
L 842.4 595.44 
L 842.4 0 
L 0 0 
z
" style="fill:#ffffff;"/>
  </g>
  <g id="axes_1">
   <g id="patch_2">
    <path d="M 105.3 529.9416 
L 758.16 529.9416 
L 758.16 71.4528 
L 105.3 71.4528 
z
" style="fill:#ffffff;"/>
   </g>
   <g id="matplotlib.axis_1">
    <g id="xtick_1">
     <g id="text_1">
      <!-- 0 -->
      <g style="fill:#262626;" transform="translate(131.916939 547.315194)scale(0.11 -0.11)">
       <defs>
        <path d="M 266 2259 
Q 266 3072 433 3567 
Q 600 4063 929 4331 
Q 1259 4600 1759 4600 
Q 2128 4600 2406 4451 
Q 2684 4303 2865 4023 
Q 3047 3744 3150 3342 
Q 3253 2941 3253 2259 
Q 3253 1453 3087 958 
Q 2922 463 2592 192 
Q 2263 -78 1759 -78 
Q 1097 -78 719 397 
Q 266 969 266 2259 
z
M 844 2259 
Q 844 1131 1108 757 
Q 1372 384 1759 384 
Q 2147 384 2411 759 
Q 2675 1134 2675 2259 
Q 2675 3391 2411 3762 
Q 2147 4134 1753 4134 
Q 1366 4134 1134 3806 
Q 844 3388 844 2259 
z
" id="ArialMT-30" transform="scale(0.015625)"/>
       </defs>
       <use xlink:href="#ArialMT-30"/>
      </g>
     </g>
    </g>
    <g id="xtick_2">
     <g id="text_2">
      <!-- 25 -->
      <g style="fill:#262626;" transform="translate(201.950676 547.315194)scale(0.11 -0.11)">
       <defs>
        <path d="M 3222 541 
L 3222 0 
L 194 0 
Q 188 203 259 391 
Q 375 700 629 1000 
Q 884 1300 1366 1694 
Q 2113 2306 2375 2664 
Q 2638 3022 2638 3341 
Q 2638 3675 2398 3904 
Q 2159 4134 1775 4134 
Q 1369 4134 1125 3890 
Q 881 3647 878 3216 
L 300 3275 
Q 359 3922 746 4261 
Q 1134 4600 1788 4600 
Q 2447 4600 2831 4234 
Q 3216 3869 3216 3328 
Q 3216 3053 3103 2787 
Q 2991 2522 2730 2228 
Q 2469 1934 1863 1422 
Q 1356 997 1212 845 
Q 1069 694 975 541 
L 3222 541 
z
" id="ArialMT-32" transform="scale(0.015625)"/>
        <path d="M 266 1200 
L 856 1250 
Q 922 819 1161 601 
Q 1400 384 1738 384 
Q 2144 384 2425 690 
Q 2706 997 2706 1503 
Q 2706 1984 2436 2262 
Q 2166 2541 1728 2541 
Q 1456 2541 1237 2417 
Q 1019 2294 894 2097 
L 366 2166 
L 809 4519 
L 3088 4519 
L 3088 3981 
L 1259 3981 
L 1013 2750 
Q 1425 3038 1878 3038 
Q 2478 3038 2890 2622 
Q 3303 2206 3303 1553 
Q 3303 931 2941 478 
Q 2500 -78 1738 -78 
Q 1113 -78 717 272 
Q 322 622 266 1200 
z
" id="ArialMT-35" transform="scale(0.015625)"/>
       </defs>
       <use xlink:href="#ArialMT-32"/>
       <use x="55.615234" xlink:href="#ArialMT-35"/>
      </g>
     </g>
    </g>
    <g id="xtick_3">
     <g id="text_3">
      <!-- 50 -->
      <g style="fill:#262626;" transform="translate(275.042928 547.315194)scale(0.11 -0.11)">
       <use xlink:href="#ArialMT-35"/>
       <use x="55.615234" xlink:href="#ArialMT-30"/>
      </g>
     </g>
    </g>
    <g id="xtick_4">
     <g id="text_4">
      <!-- 75 -->
      <g style="fill:#262626;" transform="translate(348.135181 547.315194)scale(0.11 -0.11)">
       <defs>
        <path d="M 303 3981 
L 303 4522 
L 3269 4522 
L 3269 4084 
Q 2831 3619 2401 2847 
Q 1972 2075 1738 1259 
Q 1569 684 1522 0 
L 944 0 
Q 953 541 1156 1306 
Q 1359 2072 1739 2783 
Q 2119 3494 2547 3981 
L 303 3981 
z
" id="ArialMT-37" transform="scale(0.015625)"/>
       </defs>
       <use xlink:href="#ArialMT-37"/>
       <use x="55.615234" xlink:href="#ArialMT-35"/>
      </g>
     </g>
    </g>
    <g id="xtick_5">
     <g id="text_5">
      <!-- 100 -->
      <g style="fill:#262626;" transform="translate(418.168918 547.315194)scale(0.11 -0.11)">
       <defs>
        <path d="M 2384 0 
L 1822 0 
L 1822 3584 
Q 1619 3391 1289 3197 
Q 959 3003 697 2906 
L 697 3450 
Q 1169 3672 1522 3987 
Q 1875 4303 2022 4600 
L 2384 4600 
L 2384 0 
z
" id="ArialMT-31" transform="scale(0.015625)"/>
       </defs>
       <use xlink:href="#ArialMT-31"/>
       <use x="55.615234" xlink:href="#ArialMT-30"/>
       <use x="111.230469" xlink:href="#ArialMT-30"/>
      </g>
     </g>
    </g>
    <g id="xtick_6">
     <g id="text_6">
      <!-- 125 -->
      <g style="fill:#262626;" transform="translate(491.261171 547.315194)scale(0.11 -0.11)">
       <use xlink:href="#ArialMT-31"/>
       <use x="55.615234" xlink:href="#ArialMT-32"/>
       <use x="111.230469" xlink:href="#ArialMT-35"/>
      </g>
     </g>
    </g>
    <g id="xtick_7">
     <g id="text_7">
      <!-- 150 -->
      <g style="fill:#262626;" transform="translate(564.353423 547.315194)scale(0.11 -0.11)">
       <use xlink:href="#ArialMT-31"/>
       <use x="55.615234" xlink:href="#ArialMT-35"/>
       <use x="111.230469" xlink:href="#ArialMT-30"/>
      </g>
     </g>
    </g>
    <g id="xtick_8">
     <g id="text_8">
      <!-- 175 -->
      <g style="fill:#262626;" transform="translate(637.445676 547.315194)scale(0.11 -0.11)">
       <use xlink:href="#ArialMT-31"/>
       <use x="55.615234" xlink:href="#ArialMT-37"/>
       <use x="111.230469" xlink:href="#ArialMT-35"/>
      </g>
     </g>
    </g>
    <g id="xtick_9">
     <g id="text_9">
      <!-- 200 -->
      <g style="fill:#262626;" transform="translate(710.537928 547.315194)scale(0.11 -0.11)">
       <use xlink:href="#ArialMT-32"/>
       <use x="55.615234" xlink:href="#ArialMT-30"/>
       <use x="111.230469" xlink:href="#ArialMT-30"/>
      </g>
     </g>
    </g>
   </g>
   <g id="matplotlib.axis_2">
    <g id="ytick_1">
     <g id="text_10">
      <!-- −25 -->
      <g style="fill:#262626;" transform="translate(77.14125 533.878397)scale(0.11 -0.11)">
       <defs>
        <path d="M 3381 1997 
L 356 1997 
L 356 2522 
L 3381 2522 
L 3381 1997 
z
" id="ArialMT-2212" transform="scale(0.015625)"/>
       </defs>
       <use xlink:href="#ArialMT-2212"/>
       <use x="58.398438" xlink:href="#ArialMT-32"/>
       <use x="114.013672" xlink:href="#ArialMT-35"/>
      </g>
     </g>
    </g>
    <g id="ytick_2">
     <g id="text_11">
      <!-- −20 -->
      <g style="fill:#262626;" transform="translate(77.14125 442.180637)scale(0.11 -0.11)">
       <use xlink:href="#ArialMT-2212"/>
       <use x="58.398438" xlink:href="#ArialMT-32"/>
       <use x="114.013672" xlink:href="#ArialMT-30"/>
      </g>
     </g>
    </g>
    <g id="ytick_3">
     <g id="text_12">
      <!-- −15 -->
      <g style="fill:#262626;" transform="translate(77.14125 350.482877)scale(0.11 -0.11)">
       <use xlink:href="#ArialMT-2212"/>
       <use x="58.398438" xlink:href="#ArialMT-31"/>
       <use x="114.013672" xlink:href="#ArialMT-35"/>
      </g>
     </g>
    </g>
    <g id="ytick_4">
     <g id="text_13">
      <!-- −10 -->
      <g style="fill:#262626;" transform="translate(77.14125 258.785117)scale(0.11 -0.11)">
       <use xlink:href="#ArialMT-2212"/>
       <use x="58.398438" xlink:href="#ArialMT-31"/>
       <use x="114.013672" xlink:href="#ArialMT-30"/>
      </g>
     </g>
    </g>
    <g id="ytick_5">
     <g id="text_14">
      <!-- −5 -->
      <g style="fill:#262626;" transform="translate(83.258281 167.087357)scale(0.11 -0.11)">
       <use xlink:href="#ArialMT-2212"/>
       <use x="58.398438" xlink:href="#ArialMT-35"/>
      </g>
     </g>
    </g>
    <g id="ytick_6">
     <g id="text_15">
      <!-- 0 -->
      <g style="fill:#262626;" transform="translate(89.682969 75.389597)scale(0.11 -0.11)">
       <use xlink:href="#ArialMT-30"/>
      </g>
     </g>
    </g>
   </g>
   <g id="line2d_1">
    <path clip-path="url(#p937c729e5c)" d="M 134.975455 307.672213 
L 137.899145 306.687564 
L 140.822835 308.07464 
L 143.746525 307.306918 
L 146.670215 311.230441 
L 149.593905 310.958629 
L 152.517595 310.398443 
L 155.441285 314.30159 
L 158.364975 314.048633 
L 161.288665 315.528581 
L 164.212356 318.047327 
L 167.136046 317.670419 
L 170.059736 331.36525 
L 172.983426 339.554923 
L 175.907116 336.254778 
L 178.830806 342.401414 
L 181.754496 281.708648 
L 184.678186 71.634406 
L 187.601876 72.154909 
L 190.525567 365.044091 
L 193.449257 343.783086 
L 196.372947 312.061948 
L 199.296637 369.986719 
L 202.220327 284.36693 
L 205.144017 287.944728 
L 208.067707 429.939187 
L 210.991397 309.48942 
L 213.915087 359.780418 
L 216.838777 406.192334 
L 219.762468 414.97135 
L 222.686158 402.609201 
L 225.609848 393.908506 
L 228.533538 361.076983 
L 231.457228 349.184038 
L 234.380918 71.461163 
L 237.304608 302.193851 
L 240.228298 390.609305 
L 243.151988 391.094302 
L 246.075678 343.047983 
L 248.999369 278.062499 
L 251.923059 239.176914 
L 254.846749 71.454374 
L 257.770439 71.452986 
L 260.694129 74.656618 
L 263.617819 295.281784 
L 266.541509 319.935036 
L 269.465199 355.33893 
L 272.388889 376.593831 
L 275.312579 339.143997 
L 278.23627 318.503326 
L 281.15996 296.088316 
L 284.08365 267.94879 
L 287.00734 276.267504 
L 289.93103 342.431707 
L 292.85472 347.060932 
L 295.77841 354.530876 
L 298.7021 393.288312 
L 301.62579 344.658931 
L 304.549481 331.471274 
L 307.473171 298.397725 
L 310.396861 270.06817 
L 313.320551 273.863684 
L 316.244241 331.257879 
L 319.167931 328.662281 
L 322.091621 400.828619 
L 325.015311 307.813532 
L 327.939001 223.446234 
L 330.862691 71.454387 
L 333.786382 132.243405 
L 336.710072 333.685503 
L 339.633762 447.030236 
L 342.557452 388.556264 
L 345.481142 366.029196 
L 348.404832 370.827391 
L 351.328522 376.587325 
L 354.252212 413.009851 
L 357.175902 433.219045 
L 360.099592 382.667184 
L 363.023283 408.763359 
L 365.946973 268.29663 
L 368.870663 297.361043 
L 371.794353 438.502377 
L 374.718043 447.594322 
L 377.641733 428.258752 
L 380.565423 390.950849 
L 383.489113 320.225545 
L 386.412803 262.821853 
L 389.336494 184.636267 
L 392.260184 71.453919 
L 395.183874 207.327015 
L 398.107564 230.143839 
L 401.031254 177.021681 
L 403.954944 72.496286 
L 406.878634 71.491704 
L 409.802324 208.782468 
L 415.649704 358.740867 
L 418.573395 307.395347 
L 421.497085 329.342064 
L 424.420775 414.256815 
L 427.344465 338.497305 
L 430.268155 386.251437 
L 433.191845 349.446685 
L 436.115535 71.843593 
L 439.039225 71.692855 
L 441.962915 315.61262 
L 444.886605 359.109136 
L 447.810296 264.522367 
L 450.733986 287.311836 
L 453.657676 372.409288 
L 456.581366 335.256906 
L 459.505056 383.595132 
L 462.428746 305.89756 
L 465.352436 375.525824 
L 468.276126 387.960556 
L 471.199816 300.268993 
L 474.123506 282.543864 
L 477.047197 301.608339 
L 479.970887 288.595757 
L 482.894577 395.549239 
L 485.818267 394.871328 
L 488.741957 418.887457 
L 491.665647 371.941886 
L 494.589337 347.405414 
L 497.513027 421.791944 
L 500.436717 380.06118 
L 503.360408 280.924818 
L 506.284098 187.850152 
L 509.207788 71.456927 
L 512.131478 71.456239 
L 515.055168 289.464955 
L 517.978858 331.191067 
L 520.902548 362.294005 
L 523.826238 420.481771 
L 526.749928 376.09953 
L 529.673618 399.974164 
L 532.597309 362.396793 
L 535.520999 321.655384 
L 538.444689 308.354532 
L 541.368379 412.194574 
L 544.292069 420.182378 
L 547.215759 376.106665 
L 550.139449 430.600028 
L 553.063139 304.878909 
L 555.986829 413.270346 
L 558.910519 397.691235 
L 561.83421 356.870666 
L 564.7579 279.027402 
L 567.68159 84.550402 
L 570.60528 71.473833 
L 573.52897 160.37897 
L 576.45266 303.939769 
L 579.37635 236.695718 
L 582.30004 71.453441 
L 585.22373 143.478553 
L 588.147421 296.591362 
L 593.994801 384.266361 
L 596.918491 305.851281 
L 599.842181 324.597055 
L 602.765871 368.911541 
L 605.689561 297.485274 
L 608.613251 321.448443 
L 611.536941 403.914477 
L 614.460631 402.445705 
L 617.384322 296.832758 
L 620.308012 424.592367 
L 623.231702 493.017007 
L 626.155392 420.670348 
L 629.079082 283.766464 
L 632.002772 71.464054 
L 634.926462 113.516236 
L 637.850152 342.927862 
L 640.773842 359.931199 
L 643.697532 299.926995 
L 646.621223 237.306065 
L 649.544913 321.504935 
L 652.468603 415.678469 
L 655.392293 373.611233 
L 658.315983 294.132274 
L 661.239673 400.128006 
L 664.163363 356.320379 
L 667.087053 393.812486 
L 672.934433 420.294209 
L 675.858124 456.467294 
L 678.781814 400.195482 
L 681.705504 398.565278 
L 684.629194 315.523037 
L 687.552884 83.837706 
L 690.476574 71.453213 
L 693.400264 117.198953 
L 696.323954 273.022854 
L 699.247644 322.61971 
L 702.171335 336.002643 
L 705.095025 340.751709 
L 708.018715 337.528694 
L 710.942405 340.790309 
L 713.866095 339.001576 
L 716.789785 339.362814 
L 719.713475 339.216965 
L 722.637165 337.518777 
L 725.560855 340.050834 
L 728.484545 338.916732 
L 728.484545 338.916732 
" style="fill:none;stroke:#4c72b0;stroke-linecap:round;stroke-width:1.5;"/>
   </g>
   <g id="line2d_2">
    <path clip-path="url(#p937c729e5c)" d="M 134.975455 302.955748 
L 137.899145 305.538106 
L 140.822835 305.270265 
L 143.746525 304.540531 
L 146.670215 308.595613 
L 149.593905 308.157717 
L 152.517595 304.70882 
L 155.441285 306.282951 
L 158.364975 304.358513 
L 161.288665 302.823262 
L 164.212356 302.397521 
L 167.136046 300.144185 
L 170.059736 312.419023 
L 172.983426 316.180064 
L 175.907116 315.7786 
L 178.830806 322.726102 
L 181.754496 245.203569 
L 184.678186 71.525325 
L 187.601876 79.380339 
L 190.525567 355.43495 
L 193.449257 321.852653 
L 196.372947 300.63539 
L 199.296637 342.205422 
L 202.220327 279.27443 
L 205.144017 305.84432 
L 208.067707 424.149486 
L 210.991397 320.091519 
L 213.915087 326.108765 
L 216.838777 400.197091 
L 219.762468 389.156974 
L 222.686158 381.391886 
L 225.609848 359.471178 
L 228.533538 309.670599 
L 231.457228 323.076181 
L 234.380918 71.552495 
L 237.304608 237.185437 
L 240.228298 351.991911 
L 243.151988 360.881288 
L 246.075678 331.668106 
L 248.999369 298.39818 
L 251.923059 239.061463 
L 254.846749 71.454136 
L 257.770439 71.453156 
L 260.694129 78.164983 
L 263.617819 279.844253 
L 269.465199 349.626482 
L 272.388889 400.601074 
L 275.312579 353.86206 
L 278.23627 314.546257 
L 281.15996 295.717074 
L 284.08365 252.283382 
L 287.00734 259.827029 
L 289.93103 342.203008 
L 292.85472 347.834198 
L 295.77841 324.18835 
L 298.7021 377.137279 
L 301.62579 336.094325 
L 304.549481 332.520042 
L 307.473171 300.110639 
L 310.396861 256.753204 
L 313.320551 281.136149 
L 316.244241 343.844931 
L 319.167931 350.802874 
L 322.091621 397.269237 
L 325.015311 302.22563 
L 327.939001 241.922768 
L 330.862691 71.4634 
L 333.786382 80.272247 
L 336.710072 346.319795 
L 339.633762 445.035646 
L 342.557452 363.251615 
L 345.481142 318.600622 
L 348.404832 348.168029 
L 351.328522 396.347796 
L 354.252212 338.521162 
L 357.175902 273.090733 
L 360.099592 227.207345 
L 363.023283 214.54743 
L 365.946973 114.320792 
L 368.870663 103.96402 
L 371.794353 206.948104 
L 374.718043 241.186545 
L 377.641733 281.402959 
L 380.565423 344.261314 
L 383.489113 282.253688 
L 386.412803 289.696645 
L 389.336494 231.62293 
L 392.260184 71.454337 
L 395.183874 182.343587 
L 398.107564 216.143721 
L 401.031254 194.876219 
L 403.954944 71.87233 
L 406.878634 72.303574 
L 409.802324 208.01173 
L 412.726014 264.131116 
L 415.649704 324.415124 
L 418.573395 268.581296 
L 421.497085 327.874534 
L 424.420775 402.252966 
L 427.344465 324.848351 
L 430.268155 334.09552 
L 433.191845 310.140327 
L 436.115535 72.474242 
L 439.039225 71.463791 
L 441.962915 310.11745 
L 444.886605 325.898605 
L 447.810296 228.5058 
L 450.733986 292.556218 
L 453.657676 377.013835 
L 456.581366 343.792811 
L 459.505056 380.083253 
L 462.428746 289.170599 
L 465.352436 372.749363 
L 468.276126 367.195006 
L 471.199816 310.36154 
L 474.123506 262.46936 
L 477.047197 327.552141 
L 479.970887 276.247863 
L 482.894577 392.351305 
L 485.818267 401.982606 
L 488.741957 424.268383 
L 491.665647 383.863777 
L 494.589337 338.119312 
L 497.513027 407.893373 
L 500.436717 373.789176 
L 503.360408 271.768702 
L 506.284098 199.425952 
L 509.207788 71.460457 
L 512.131478 71.476746 
L 515.055168 291.367898 
L 517.978858 343.434039 
L 520.902548 370.641998 
L 523.826238 426.561142 
L 526.749928 394.691007 
L 529.673618 423.764112 
L 532.597309 374.988392 
L 535.520999 332.077738 
L 538.444689 303.588133 
L 541.368379 370.773837 
L 544.292069 425.615599 
L 547.215759 323.461992 
L 550.139449 372.131233 
L 553.063139 256.632838 
L 555.986829 267.307555 
L 558.910519 156.26346 
L 561.83421 130.223481 
L 564.7579 144.943634 
L 567.68159 151.346577 
L 570.60528 295.214308 
L 573.52897 105.692479 
L 576.45266 202.827723 
L 579.37635 220.621553 
L 582.30004 72.866485 
L 585.22373 137.675345 
L 588.147421 224.510988 
L 591.071111 299.56859 
L 593.994801 366.664746 
L 596.918491 287.104161 
L 599.842181 355.083384 
L 602.765871 337.568134 
L 605.689561 314.583948 
L 608.613251 344.252866 
L 611.536941 404.008748 
L 614.460631 400.601249 
L 617.384322 360.386357 
L 620.308012 436.67611 
L 623.231702 474.09455 
L 626.155392 407.681919 
L 629.079082 247.697078 
L 632.002772 71.456864 
L 634.926462 147.442547 
L 637.850152 356.777322 
L 640.773842 350.591385 
L 643.697532 269.843897 
L 646.621223 235.686757 
L 649.544913 314.789385 
L 652.468603 414.076004 
L 655.392293 388.321828 
L 658.315983 256.600831 
L 661.239673 384.445424 
L 664.163363 334.479529 
L 667.087053 395.07729 
L 670.010743 421.92172 
L 672.934433 420.92042 
L 675.858124 455.62886 
L 678.781814 408.90877 
L 681.705504 390.899778 
L 684.629194 324.711544 
L 687.552884 81.801411 
L 690.476574 71.45494 
L 693.400264 149.153179 
L 696.323954 283.731047 
L 699.247644 315.208742 
L 702.171335 317.864348 
L 705.095025 327.750232 
L 710.942405 330.421701 
L 713.866095 328.319373 
L 716.789785 329.446076 
L 719.713475 330.201573 
L 722.637165 325.704204 
L 725.560855 329.66108 
L 728.484545 321.514555 
L 728.484545 321.514555 
" style="fill:none;stroke:#dd8452;stroke-dasharray:6,2.25;stroke-dashoffset:0;stroke-width:1.5;"/>
   </g>
   <g id="line2d_3">
    <path clip-path="url(#p937c729e5c)" d="M 134.975455 313.053209 
L 137.899145 315.18235 
L 140.822835 315.591877 
L 143.746525 312.323423 
L 146.670215 323.189341 
L 149.593905 321.41801 
L 152.517595 319.960869 
L 155.441285 342.765538 
L 158.364975 342.427754 
L 161.288665 331.086197 
L 164.212356 331.483254 
L 167.136046 324.772007 
L 170.059736 320.381188 
L 172.983426 325.612645 
L 175.907116 326.682978 
L 178.830806 332.276896 
L 181.754496 274.053905 
L 184.678186 83.102357 
L 187.601876 71.62985 
L 190.525567 258.624997 
L 193.449257 317.358311 
L 196.372947 319.95494 
L 199.296637 331.43813 
L 202.220327 323.633603 
L 205.144017 267.670524 
L 208.067707 267.194815 
L 210.991397 278.252667 
L 213.915087 290.975966 
L 216.838777 290.327158 
L 219.762468 284.812451 
L 222.686158 289.361275 
L 225.609848 227.250143 
L 228.533538 224.263767 
L 231.457228 288.201096 
L 234.380918 71.61444 
L 237.304608 247.278053 
L 240.228298 359.06298 
L 243.151988 377.341387 
L 246.075678 296.842011 
L 248.999369 289.974858 
L 251.923059 199.707059 
L 254.846749 71.453926 
L 257.770439 71.452988 
L 260.694129 81.051927 
L 263.617819 269.950813 
L 266.541509 321.282305 
L 269.465199 384.106083 
L 272.388889 387.184456 
L 275.312579 329.782846 
L 278.23627 282.197965 
L 281.15996 247.171295 
L 284.08365 245.023597 
L 287.00734 187.676949 
L 289.93103 320.217919 
L 292.85472 303.495139 
L 295.77841 310.241489 
L 298.7021 380.480695 
L 301.62579 357.684036 
L 304.549481 339.528601 
L 307.473171 266.112886 
L 310.396861 256.57339 
L 313.320551 298.194142 
L 316.244241 348.417121 
L 319.167931 366.456825 
L 322.091621 408.668108 
L 325.015311 315.30401 
L 327.939001 211.035096 
L 330.862691 71.453226 
L 333.786382 72.810525 
L 336.710072 367.303164 
L 339.633762 478.445177 
L 342.557452 392.722617 
L 345.481142 398.909585 
L 348.404832 408.748387 
L 351.328522 423.818646 
L 354.252212 340.010047 
L 357.175902 385.933854 
L 360.099592 208.843884 
L 363.023283 162.640859 
L 365.946973 78.936208 
L 368.870663 72.718638 
L 371.794353 114.928485 
L 374.718043 249.841504 
L 377.641733 268.377294 
L 380.565423 248.283936 
L 383.489113 212.654737 
L 386.412803 267.751258 
L 389.336494 222.695915 
L 392.260184 71.467923 
L 395.183874 122.447685 
L 398.107564 266.299504 
L 401.031254 150.279218 
L 403.954944 71.492782 
L 406.878634 72.006845 
L 409.802324 255.58811 
L 412.726014 264.692229 
L 415.649704 363.719646 
L 418.573395 323.310686 
L 421.497085 327.141529 
L 424.420775 359.309203 
L 427.344465 250.777007 
L 430.268155 245.893898 
L 433.191845 138.585015 
L 436.115535 73.658436 
L 439.039225 71.464871 
L 441.962915 244.353347 
L 444.886605 291.501119 
L 447.810296 223.381469 
L 450.733986 246.531599 
L 453.657676 263.330093 
L 456.581366 333.166628 
L 459.505056 399.790834 
L 462.428746 285.386419 
L 465.352436 370.173511 
L 468.276126 346.538787 
L 471.199816 257.695913 
L 474.123506 194.961404 
L 477.047197 318.44874 
L 479.970887 282.811827 
L 482.894577 370.802625 
L 485.818267 364.637852 
L 488.741957 403.748218 
L 491.665647 333.492921 
L 494.589337 297.604101 
L 497.513027 347.873463 
L 500.436717 290.076037 
L 503.360408 259.588694 
L 506.284098 182.936348 
L 509.207788 71.48317 
L 512.131478 72.855543 
L 515.055168 261.691809 
L 517.978858 269.577035 
L 520.902548 207.484906 
L 523.826238 299.341588 
L 526.749928 372.215709 
L 529.673618 338.923029 
L 532.597309 260.667335 
L 535.520999 296.146925 
L 538.444689 276.961383 
L 541.368379 348.716199 
L 544.292069 373.725547 
L 547.215759 317.052761 
L 550.139449 293.828928 
L 553.063139 122.62056 
L 555.986829 102.139096 
L 558.910519 225.097042 
L 561.83421 145.178218 
L 564.7579 177.118059 
L 567.68159 206.586674 
L 570.60528 71.563046 
L 573.52897 76.066027 
L 576.45266 260.404006 
L 579.37635 241.442581 
L 582.30004 189.460147 
L 585.22373 251.406104 
L 588.147421 194.768551 
L 591.071111 209.255677 
L 593.994801 252.427202 
L 596.918491 226.029991 
L 599.842181 236.677266 
L 602.765871 255.612876 
L 605.689561 344.885426 
L 608.613251 329.08776 
L 611.536941 395.538151 
L 614.460631 400.453389 
L 617.384322 317.759408 
L 620.308012 433.565031 
L 623.231702 477.263905 
L 626.155392 389.78203 
L 629.079082 237.202087 
L 632.002772 71.454359 
L 634.926462 114.640456 
L 637.850152 344.944175 
L 640.773842 361.259526 
L 643.697532 307.314544 
L 646.621223 223.477646 
L 649.544913 298.291229 
L 652.468603 309.203512 
L 655.392293 396.136692 
L 658.315983 276.973609 
L 661.239673 203.253796 
L 664.163363 79.062336 
L 667.087053 78.095615 
L 670.010743 77.320399 
L 672.934433 211.342719 
L 675.858124 405.773765 
L 678.781814 379.68686 
L 684.629194 271.467787 
L 687.552884 216.161028 
L 690.476574 71.465821 
L 693.400264 137.527773 
L 696.323954 299.096152 
L 699.247644 319.720644 
L 702.171335 325.662334 
L 705.095025 328.134294 
L 708.018715 330.221914 
L 710.942405 331.997005 
L 713.866095 327.275258 
L 716.789785 328.87774 
L 719.713475 328.317554 
L 722.637165 328.688149 
L 725.560855 330.77701 
L 728.484545 326.239275 
L 728.484545 326.239275 
" style="fill:none;stroke:#55a868;stroke-dasharray:1.5,1.5;stroke-dashoffset:0;stroke-width:1.5;"/>
   </g>
   <g id="line2d_4">
    <path clip-path="url(#p937c729e5c)" d="M 134.975455 303.473574 
L 137.899145 306.081047 
L 140.822835 305.859187 
L 143.746525 304.958839 
L 146.670215 309.289632 
L 149.593905 308.826463 
L 152.517595 305.322227 
L 155.441285 306.943022 
L 158.364975 305.05262 
L 161.288665 303.595146 
L 164.212356 303.065008 
L 167.136046 300.85851 
L 170.059736 313.111661 
L 172.983426 316.756813 
L 175.907116 316.146186 
L 178.830806 323.013759 
L 181.754496 245.633367 
L 184.678186 71.526107 
L 187.601876 80.524005 
L 190.525567 357.634032 
L 193.449257 324.047555 
L 196.372947 300.665578 
L 199.296637 343.816352 
L 202.220327 280.614511 
L 205.144017 305.034762 
L 208.067707 429.13332 
L 210.991397 317.564377 
L 213.915087 342.75744 
L 216.838777 395.935872 
L 219.762468 390.621513 
L 222.686158 382.68373 
L 225.609848 359.439136 
L 228.533538 311.109235 
L 231.457228 325.0944 
L 234.380918 71.532775 
L 237.304608 246.779957 
L 240.228298 357.302213 
L 243.151988 364.726508 
L 246.075678 334.225348 
L 248.999369 300.042603 
L 251.923059 241.250139 
L 254.846749 71.4543 
L 257.770439 71.453178 
L 260.694129 79.266459 
L 263.617819 283.521955 
L 266.541509 311.89408 
L 269.465199 353.973821 
L 272.388889 399.951392 
L 275.312579 355.249451 
L 278.23627 317.96934 
L 281.15996 296.335869 
L 284.08365 252.653627 
L 287.00734 266.009783 
L 289.93103 344.276058 
L 292.85472 339.147407 
L 295.77841 324.297452 
L 298.7021 376.272365 
L 301.62579 334.994819 
L 304.549481 335.767962 
L 307.473171 298.586074 
L 310.396861 256.619301 
L 313.320551 277.883314 
L 316.244241 337.150474 
L 319.167931 353.08206 
L 322.091621 407.79396 
L 325.015311 301.436098 
L 327.939001 224.807705 
L 330.862691 71.453865 
L 333.786382 86.902676 
L 336.710072 344.841841 
L 339.633762 455.349965 
L 342.557452 380.708099 
L 345.481142 332.818386 
L 348.404832 303.01824 
L 351.328522 404.520959 
L 354.252212 328.287332 
L 357.175902 382.07298 
L 360.099592 291.543532 
L 363.023283 351.225834 
L 365.946973 107.304646 
L 368.870663 112.248262 
L 371.794353 250.06165 
L 374.718043 295.677162 
L 377.641733 294.698878 
L 380.565423 357.155647 
L 383.489113 287.603901 
L 386.412803 294.671069 
L 389.336494 229.860992 
L 392.260184 71.454689 
L 395.183874 183.917159 
L 398.107564 221.377941 
L 401.031254 201.861822 
L 403.954944 72.085493 
L 406.878634 72.724991 
L 409.802324 211.797991 
L 412.726014 268.828727 
L 415.649704 329.592572 
L 418.573395 267.70449 
L 421.497085 331.956235 
L 424.420775 408.129557 
L 427.344465 330.060411 
L 430.268155 333.734719 
L 433.191845 308.119694 
L 436.115535 72.445744 
L 439.039225 71.463735 
L 441.962915 308.938084 
L 444.886605 325.86938 
L 447.810296 226.795247 
L 450.733986 287.069863 
L 453.657676 379.816356 
L 456.581366 338.918726 
L 459.505056 376.442857 
L 462.428746 282.068801 
L 465.352436 376.990888 
L 468.276126 371.441534 
L 471.199816 308.250746 
L 474.123506 268.395938 
L 477.047197 340.54015 
L 479.970887 284.052513 
L 482.894577 392.583607 
L 485.818267 403.016717 
L 488.741957 424.092224 
L 491.665647 386.877472 
L 494.589337 341.500157 
L 497.513027 410.86922 
L 500.436717 375.835816 
L 503.360408 271.761706 
L 506.284098 197.6423 
L 509.207788 71.458975 
L 512.131478 71.48372 
L 515.055168 303.007326 
L 517.978858 345.525628 
L 520.902548 367.439306 
L 523.826238 426.513009 
L 526.749928 389.380461 
L 529.673618 411.902422 
L 532.597309 367.705888 
L 535.520999 338.762646 
L 538.444689 298.063614 
L 541.368379 368.59959 
L 544.292069 429.050942 
L 547.215759 313.173978 
L 550.139449 375.403814 
L 553.063139 251.704045 
L 555.986829 346.940636 
L 558.910519 321.345794 
L 561.83421 238.600602 
L 564.7579 116.477811 
L 567.68159 183.093233 
L 570.60528 71.456112 
L 573.52897 158.105362 
L 576.45266 275.95753 
L 579.37635 292.942239 
L 582.30004 180.190923 
L 585.22373 217.856329 
L 588.147421 236.373396 
L 591.071111 307.505062 
L 593.994801 398.320034 
L 596.918491 316.350731 
L 599.842181 361.580729 
L 602.765871 361.722101 
L 605.689561 317.876643 
L 608.613251 352.637151 
L 611.536941 414.009892 
L 614.460631 412.901203 
L 617.384322 360.873995 
L 620.308012 437.223441 
L 623.231702 479.359797 
L 626.155392 407.847759 
L 629.079082 249.703543 
L 632.002772 71.457012 
L 634.926462 149.918942 
L 637.850152 357.841918 
L 640.773842 352.232241 
L 643.697532 268.28764 
L 646.621223 235.875387 
L 649.544913 313.716201 
L 652.468603 415.324997 
L 655.392293 387.981579 
L 658.315983 256.683052 
L 661.239673 384.76465 
L 664.163363 337.018529 
L 667.087053 396.468547 
L 670.010743 422.645629 
L 672.934433 421.118406 
L 675.858124 455.321561 
L 678.781814 409.848995 
L 681.705504 387.949852 
L 684.629194 323.60882 
L 687.552884 80.623557 
L 690.476574 71.454883 
L 693.400264 150.223276 
L 696.323954 283.584656 
L 699.247644 315.441533 
L 702.171335 318.556862 
L 705.095025 328.37779 
L 708.018715 329.997552 
L 710.942405 331.357607 
L 713.866095 329.632677 
L 716.789785 329.777196 
L 719.713475 330.787556 
L 722.637165 326.463094 
L 725.560855 330.07213 
L 728.484545 323.170714 
L 728.484545 323.170714 
" style="fill:none;stroke:#c44e52;stroke-dasharray:4.5,1.875,2.25,1.875;stroke-dashoffset:0;stroke-width:1.5;"/>
   </g>
   <g id="line2d_5">
    <path clip-path="url(#p937c729e5c)" d="M 134.975455 306.945436 
L 137.899145 309.363545 
L 140.822835 309.119438 
L 143.746525 308.088037 
L 146.670215 313.037311 
L 149.593905 312.485555 
L 152.517595 309.457186 
L 155.441285 311.378931 
L 158.364975 309.28958 
L 161.288665 307.764158 
L 164.212356 305.908333 
L 167.136046 303.375053 
L 170.059736 315.29133 
L 172.983426 319.154477 
L 175.907116 318.031656 
L 178.830806 327.385882 
L 181.754496 264.692736 
L 184.678186 71.661591 
L 187.601876 72.397484 
L 190.525567 355.427674 
L 193.449257 333.782659 
L 196.372947 308.46993 
L 199.296637 357.518529 
L 202.220327 287.394739 
L 205.144017 307.824236 
L 208.067707 448.047732 
L 210.991397 332.610552 
L 213.915087 335.581012 
L 216.838777 396.023602 
L 219.762468 391.901498 
L 222.686158 390.854619 
L 225.609848 377.722423 
L 228.533538 330.45397 
L 231.457228 334.403955 
L 234.380918 71.509836 
L 237.304608 250.590424 
L 240.228298 362.435499 
L 243.151988 366.237711 
L 246.075678 336.679696 
L 248.999369 294.25152 
L 251.923059 240.545573 
L 254.846749 71.45379 
L 257.770439 71.452997 
L 260.694129 78.968602 
L 263.617819 284.324779 
L 266.541509 317.496674 
L 269.465199 353.658145 
L 272.388889 399.307937 
L 275.312579 357.114528 
L 278.23627 320.562296 
L 281.15996 308.154796 
L 284.08365 264.414453 
L 287.00734 272.026486 
L 289.93103 350.090298 
L 292.85472 348.52708 
L 295.77841 330.8207 
L 298.7021 375.4977 
L 301.62579 332.203666 
L 304.549481 334.361752 
L 307.473171 297.994249 
L 310.396861 264.301713 
L 313.320551 293.11114 
L 316.244241 343.713791 
L 319.167931 358.415099 
L 322.091621 403.347138 
L 325.015311 296.075251 
L 327.939001 327.081399 
L 330.862691 130.874182 
L 333.786382 73.386232 
L 336.710072 305.769026 
L 339.633762 416.762462 
L 342.557452 332.881262 
L 345.481142 319.397692 
L 348.404832 339.466127 
L 351.328522 367.906113 
L 354.252212 436.449055 
L 357.175902 448.572746 
L 360.099592 413.234457 
L 363.023283 441.775623 
L 365.946973 226.482911 
L 368.870663 231.739676 
L 371.794353 324.022108 
L 374.718043 349.031018 
L 377.641733 387.757392 
L 380.565423 402.146872 
L 383.489113 327.593802 
L 386.412803 274.588485 
L 389.336494 201.434193 
L 392.260184 71.453344 
L 395.183874 220.550911 
L 398.107564 221.909794 
L 401.031254 211.232707 
L 403.954944 71.567209 
L 406.878634 71.722126 
L 409.802324 251.788224 
L 412.726014 298.019085 
L 415.649704 373.821462 
L 418.573395 301.647517 
L 424.420775 403.682875 
L 427.344465 328.252684 
L 430.268155 336.456402 
L 433.191845 318.658846 
L 436.115535 72.765403 
L 439.039225 71.457533 
L 441.962915 312.354625 
L 444.886605 333.519401 
L 447.810296 239.051318 
L 450.733986 296.903838 
L 453.657676 376.005329 
L 456.581366 337.590661 
L 459.505056 353.727825 
L 462.428746 274.409283 
L 465.352436 369.434141 
L 468.276126 370.409031 
L 471.199816 298.065521 
L 474.123506 267.49573 
L 477.047197 330.068037 
L 479.970887 284.602117 
L 482.894577 395.632282 
L 485.818267 410.542437 
L 488.741957 344.347295 
L 491.665647 415.15461 
L 494.589337 278.370602 
L 497.513027 379.398241 
L 500.436717 342.118969 
L 503.360408 250.680777 
L 506.284098 250.792538 
L 509.207788 93.072249 
L 512.131478 71.463638 
L 515.055168 116.40932 
L 517.978858 307.117519 
L 520.902548 248.734512 
L 523.826238 71.455406 
L 526.749928 177.412774 
L 529.673618 278.560333 
L 532.597309 304.29415 
L 535.520999 375.30594 
L 538.444689 283.746561 
L 541.368379 267.012412 
L 544.292069 157.177739 
L 547.215759 146.869926 
L 550.139449 118.806149 
L 553.063139 132.313046 
L 555.986829 188.819087 
L 558.910519 138.180752 
L 561.83421 123.775077 
L 564.7579 125.951453 
L 567.68159 164.89472 
L 570.60528 105.424941 
L 573.52897 71.502236 
L 576.45266 195.235594 
L 579.37635 228.495813 
L 582.30004 73.02955 
L 585.22373 182.125479 
L 588.147421 239.470046 
L 591.071111 274.726394 
L 593.994801 361.690269 
L 596.918491 309.171295 
L 599.842181 336.174551 
L 602.765871 367.53718 
L 605.689561 319.071242 
L 608.613251 350.500175 
L 611.536941 407.630814 
L 614.460631 412.537657 
L 617.384322 350.84067 
L 620.308012 441.051818 
L 623.231702 476.766701 
L 626.155392 407.945423 
L 629.079082 257.753752 
L 632.002772 71.457159 
L 634.926462 136.10326 
L 637.850152 345.645365 
L 640.773842 343.778486 
L 643.697532 264.275111 
L 646.621223 226.351054 
L 649.544913 299.491267 
L 652.468603 406.735503 
L 655.392293 373.277909 
L 658.315983 247.802245 
L 661.239673 371.967422 
L 664.163363 334.701687 
L 667.087053 405.132268 
L 670.010743 428.604074 
L 672.934433 429.980569 
L 675.858124 452.6938 
L 678.781814 397.112317 
L 681.705504 388.309655 
L 684.629194 312.597736 
L 687.552884 76.146801 
L 690.476574 71.457004 
L 693.400264 150.880208 
L 696.323954 282.206465 
L 699.247644 318.127991 
L 702.171335 316.836777 
L 705.095025 329.470405 
L 708.018715 329.815167 
L 710.942405 331.09043 
L 713.866095 328.867963 
L 719.713475 330.187074 
L 722.637165 324.713608 
L 725.560855 329.611024 
L 728.484545 322.594665 
L 728.484545 322.594665 
" style="fill:none;stroke:#8172b3;stroke-dasharray:7.5,1.5,1.5,1.5;stroke-dashoffset:0;stroke-width:1.5;"/>
   </g>
   <g id="line2d_6"/>
   <g id="line2d_7"/>
   <g id="line2d_8"/>
   <g id="line2d_9"/>
   <g id="line2d_10"/>
   <g id="patch_3">
    <path d="M 105.3 529.9416 
L 105.3 71.4528 
" style="fill:none;stroke:#262626;stroke-linecap:square;stroke-linejoin:miter;stroke-width:1.25;"/>
   </g>
   <g id="patch_4">
    <path d="M 758.16 529.9416 
L 758.16 71.4528 
" style="fill:none;stroke:#262626;stroke-linecap:square;stroke-linejoin:miter;stroke-width:1.25;"/>
   </g>
   <g id="patch_5">
    <path d="M 105.3 529.9416 
L 758.16 529.9416 
" style="fill:none;stroke:#262626;stroke-linecap:square;stroke-linejoin:miter;stroke-width:1.25;"/>
   </g>
   <g id="patch_6">
    <path d="M 105.3 71.4528 
L 758.16 71.4528 
" style="fill:none;stroke:#262626;stroke-linecap:square;stroke-linejoin:miter;stroke-width:1.25;"/>
   </g>
   <g id="text_16">
    <!-- Activations for &gt;T&lt; -->
    <g style="fill:#262626;" transform="translate(381.709688 65.4528)scale(0.12 -0.12)">
     <defs>
      <path d="M -9 0 
L 1750 4581 
L 2403 4581 
L 4278 0 
L 3588 0 
L 3053 1388 
L 1138 1388 
L 634 0 
L -9 0 
z
M 1313 1881 
L 2866 1881 
L 2388 3150 
Q 2169 3728 2063 4100 
Q 1975 3659 1816 3225 
L 1313 1881 
z
" id="ArialMT-41" transform="scale(0.015625)"/>
      <path d="M 2588 1216 
L 3141 1144 
Q 3050 572 2676 248 
Q 2303 -75 1759 -75 
Q 1078 -75 664 370 
Q 250 816 250 1647 
Q 250 2184 428 2587 
Q 606 2991 970 3192 
Q 1334 3394 1763 3394 
Q 2303 3394 2647 3120 
Q 2991 2847 3088 2344 
L 2541 2259 
Q 2463 2594 2264 2762 
Q 2066 2931 1784 2931 
Q 1359 2931 1093 2626 
Q 828 2322 828 1663 
Q 828 994 1084 691 
Q 1341 388 1753 388 
Q 2084 388 2306 591 
Q 2528 794 2588 1216 
z
" id="ArialMT-63" transform="scale(0.015625)"/>
      <path d="M 1650 503 
L 1731 6 
Q 1494 -44 1306 -44 
Q 1000 -44 831 53 
Q 663 150 594 308 
Q 525 466 525 972 
L 525 2881 
L 113 2881 
L 113 3319 
L 525 3319 
L 525 4141 
L 1084 4478 
L 1084 3319 
L 1650 3319 
L 1650 2881 
L 1084 2881 
L 1084 941 
Q 1084 700 1114 631 
Q 1144 563 1211 522 
Q 1278 481 1403 481 
Q 1497 481 1650 503 
z
" id="ArialMT-74" transform="scale(0.015625)"/>
      <path d="M 425 3934 
L 425 4581 
L 988 4581 
L 988 3934 
L 425 3934 
z
M 425 0 
L 425 3319 
L 988 3319 
L 988 0 
L 425 0 
z
" id="ArialMT-69" transform="scale(0.015625)"/>
      <path d="M 1344 0 
L 81 3319 
L 675 3319 
L 1388 1331 
Q 1503 1009 1600 663 
Q 1675 925 1809 1294 
L 2547 3319 
L 3125 3319 
L 1869 0 
L 1344 0 
z
" id="ArialMT-76" transform="scale(0.015625)"/>
      <path d="M 2588 409 
Q 2275 144 1986 34 
Q 1697 -75 1366 -75 
Q 819 -75 525 192 
Q 231 459 231 875 
Q 231 1119 342 1320 
Q 453 1522 633 1644 
Q 813 1766 1038 1828 
Q 1203 1872 1538 1913 
Q 2219 1994 2541 2106 
Q 2544 2222 2544 2253 
Q 2544 2597 2384 2738 
Q 2169 2928 1744 2928 
Q 1347 2928 1158 2789 
Q 969 2650 878 2297 
L 328 2372 
Q 403 2725 575 2942 
Q 747 3159 1072 3276 
Q 1397 3394 1825 3394 
Q 2250 3394 2515 3294 
Q 2781 3194 2906 3042 
Q 3031 2891 3081 2659 
Q 3109 2516 3109 2141 
L 3109 1391 
Q 3109 606 3145 398 
Q 3181 191 3288 0 
L 2700 0 
Q 2613 175 2588 409 
z
M 2541 1666 
Q 2234 1541 1622 1453 
Q 1275 1403 1131 1340 
Q 988 1278 909 1158 
Q 831 1038 831 891 
Q 831 666 1001 516 
Q 1172 366 1500 366 
Q 1825 366 2078 508 
Q 2331 650 2450 897 
Q 2541 1088 2541 1459 
L 2541 1666 
z
" id="ArialMT-61" transform="scale(0.015625)"/>
      <path d="M 213 1659 
Q 213 2581 725 3025 
Q 1153 3394 1769 3394 
Q 2453 3394 2887 2945 
Q 3322 2497 3322 1706 
Q 3322 1066 3130 698 
Q 2938 331 2570 128 
Q 2203 -75 1769 -75 
Q 1072 -75 642 372 
Q 213 819 213 1659 
z
M 791 1659 
Q 791 1022 1069 705 
Q 1347 388 1769 388 
Q 2188 388 2466 706 
Q 2744 1025 2744 1678 
Q 2744 2294 2464 2611 
Q 2184 2928 1769 2928 
Q 1347 2928 1069 2612 
Q 791 2297 791 1659 
z
" id="ArialMT-6f" transform="scale(0.015625)"/>
      <path d="M 422 0 
L 422 3319 
L 928 3319 
L 928 2847 
Q 1294 3394 1984 3394 
Q 2284 3394 2536 3286 
Q 2788 3178 2913 3003 
Q 3038 2828 3088 2588 
Q 3119 2431 3119 2041 
L 3119 0 
L 2556 0 
L 2556 2019 
Q 2556 2363 2490 2533 
Q 2425 2703 2258 2804 
Q 2091 2906 1866 2906 
Q 1506 2906 1245 2678 
Q 984 2450 984 1813 
L 984 0 
L 422 0 
z
" id="ArialMT-6e" transform="scale(0.015625)"/>
      <path d="M 197 991 
L 753 1078 
Q 800 744 1014 566 
Q 1228 388 1613 388 
Q 2000 388 2187 545 
Q 2375 703 2375 916 
Q 2375 1106 2209 1216 
Q 2094 1291 1634 1406 
Q 1016 1563 777 1677 
Q 538 1791 414 1992 
Q 291 2194 291 2438 
Q 291 2659 392 2848 
Q 494 3038 669 3163 
Q 800 3259 1026 3326 
Q 1253 3394 1513 3394 
Q 1903 3394 2198 3281 
Q 2494 3169 2634 2976 
Q 2775 2784 2828 2463 
L 2278 2388 
Q 2241 2644 2061 2787 
Q 1881 2931 1553 2931 
Q 1166 2931 1000 2803 
Q 834 2675 834 2503 
Q 834 2394 903 2306 
Q 972 2216 1119 2156 
Q 1203 2125 1616 2013 
Q 2213 1853 2448 1751 
Q 2684 1650 2818 1456 
Q 2953 1263 2953 975 
Q 2953 694 2789 445 
Q 2625 197 2315 61 
Q 2006 -75 1616 -75 
Q 969 -75 630 194 
Q 291 463 197 991 
z
" id="ArialMT-73" transform="scale(0.015625)"/>
      <path id="ArialMT-20" transform="scale(0.015625)"/>
      <path d="M 556 0 
L 556 2881 
L 59 2881 
L 59 3319 
L 556 3319 
L 556 3672 
Q 556 4006 616 4169 
Q 697 4388 901 4523 
Q 1106 4659 1475 4659 
Q 1713 4659 2000 4603 
L 1916 4113 
Q 1741 4144 1584 4144 
Q 1328 4144 1222 4034 
Q 1116 3925 1116 3625 
L 1116 3319 
L 1763 3319 
L 1763 2881 
L 1116 2881 
L 1116 0 
L 556 0 
z
" id="ArialMT-66" transform="scale(0.015625)"/>
      <path d="M 416 0 
L 416 3319 
L 922 3319 
L 922 2816 
Q 1116 3169 1280 3281 
Q 1444 3394 1641 3394 
Q 1925 3394 2219 3213 
L 2025 2691 
Q 1819 2813 1613 2813 
Q 1428 2813 1281 2702 
Q 1134 2591 1072 2394 
Q 978 2094 978 1738 
L 978 0 
L 416 0 
z
" id="ArialMT-72" transform="scale(0.015625)"/>
      <path d="M 3384 2003 
L 350 706 
L 350 1266 
L 2753 2263 
L 350 3250 
L 350 3809 
L 3384 2528 
L 3384 2003 
z
" id="ArialMT-3e" transform="scale(0.015625)"/>
      <path d="M 1659 0 
L 1659 4041 
L 150 4041 
L 150 4581 
L 3781 4581 
L 3781 4041 
L 2266 4041 
L 2266 0 
L 1659 0 
z
" id="ArialMT-54" transform="scale(0.015625)"/>
      <path d="M 350 2003 
L 350 2528 
L 3384 3809 
L 3384 3250 
L 978 2263 
L 3384 1266 
L 3384 706 
L 350 2003 
z
" id="ArialMT-3c" transform="scale(0.015625)"/>
     </defs>
     <use xlink:href="#ArialMT-41"/>
     <use x="66.699219" xlink:href="#ArialMT-63"/>
     <use x="116.699219" xlink:href="#ArialMT-74"/>
     <use x="144.482422" xlink:href="#ArialMT-69"/>
     <use x="166.699219" xlink:href="#ArialMT-76"/>
     <use x="216.699219" xlink:href="#ArialMT-61"/>
     <use x="272.314453" xlink:href="#ArialMT-74"/>
     <use x="300.097656" xlink:href="#ArialMT-69"/>
     <use x="322.314453" xlink:href="#ArialMT-6f"/>
     <use x="377.929688" xlink:href="#ArialMT-6e"/>
     <use x="433.544922" xlink:href="#ArialMT-73"/>
     <use x="483.544922" xlink:href="#ArialMT-20"/>
     <use x="511.328125" xlink:href="#ArialMT-66"/>
     <use x="539.111328" xlink:href="#ArialMT-6f"/>
     <use x="594.726562" xlink:href="#ArialMT-72"/>
     <use x="628.027344" xlink:href="#ArialMT-20"/>
     <use x="655.810547" xlink:href="#ArialMT-3e"/>
     <use x="714.208984" xlink:href="#ArialMT-54"/>
     <use x="775.292969" xlink:href="#ArialMT-3c"/>
    </g>
   </g>
   <g id="legend_1">
    <g id="patch_7">
     <path d="M 113 524.4416 
L 223.415938 524.4416 
Q 225.615938 524.4416 225.615938 522.2416 
L 225.615938 445.080037 
Q 225.615938 442.880037 223.415938 442.880037 
L 113 442.880037 
Q 110.8 442.880037 110.8 445.080037 
L 110.8 522.2416 
Q 110.8 524.4416 113 524.4416 
z
" style="fill:#ffffff;opacity:0.8;stroke:#cccccc;stroke-linejoin:miter;"/>
    </g>
    <g id="line2d_11">
     <path d="M 115.2 451.303631 
L 137.2 451.303631 
" style="fill:none;stroke:#4c72b0;stroke-linecap:round;stroke-width:1.5;"/>
    </g>
    <g id="line2d_12"/>
    <g id="text_17">
     <!-- regular -->
     <g style="fill:#262626;" transform="translate(146 455.153631)scale(0.11 -0.11)">
      <defs>
       <path d="M 2694 1069 
L 3275 997 
Q 3138 488 2766 206 
Q 2394 -75 1816 -75 
Q 1088 -75 661 373 
Q 234 822 234 1631 
Q 234 2469 665 2931 
Q 1097 3394 1784 3394 
Q 2450 3394 2872 2941 
Q 3294 2488 3294 1666 
Q 3294 1616 3291 1516 
L 816 1516 
Q 847 969 1125 678 
Q 1403 388 1819 388 
Q 2128 388 2347 550 
Q 2566 713 2694 1069 
z
M 847 1978 
L 2700 1978 
Q 2663 2397 2488 2606 
Q 2219 2931 1791 2931 
Q 1403 2931 1139 2672 
Q 875 2413 847 1978 
z
" id="ArialMT-65" transform="scale(0.015625)"/>
       <path d="M 319 -275 
L 866 -356 
Q 900 -609 1056 -725 
Q 1266 -881 1628 -881 
Q 2019 -881 2231 -725 
Q 2444 -569 2519 -288 
Q 2563 -116 2559 434 
Q 2191 0 1641 0 
Q 956 0 581 494 
Q 206 988 206 1678 
Q 206 2153 378 2554 
Q 550 2956 876 3175 
Q 1203 3394 1644 3394 
Q 2231 3394 2613 2919 
L 2613 3319 
L 3131 3319 
L 3131 450 
Q 3131 -325 2973 -648 
Q 2816 -972 2473 -1159 
Q 2131 -1347 1631 -1347 
Q 1038 -1347 672 -1080 
Q 306 -813 319 -275 
z
M 784 1719 
Q 784 1066 1043 766 
Q 1303 466 1694 466 
Q 2081 466 2343 764 
Q 2606 1063 2606 1700 
Q 2606 2309 2336 2618 
Q 2066 2928 1684 2928 
Q 1309 2928 1046 2623 
Q 784 2319 784 1719 
z
" id="ArialMT-67" transform="scale(0.015625)"/>
       <path d="M 2597 0 
L 2597 488 
Q 2209 -75 1544 -75 
Q 1250 -75 995 37 
Q 741 150 617 320 
Q 494 491 444 738 
Q 409 903 409 1263 
L 409 3319 
L 972 3319 
L 972 1478 
Q 972 1038 1006 884 
Q 1059 663 1231 536 
Q 1403 409 1656 409 
Q 1909 409 2131 539 
Q 2353 669 2445 892 
Q 2538 1116 2538 1541 
L 2538 3319 
L 3100 3319 
L 3100 0 
L 2597 0 
z
" id="ArialMT-75" transform="scale(0.015625)"/>
       <path d="M 409 0 
L 409 4581 
L 972 4581 
L 972 0 
L 409 0 
z
" id="ArialMT-6c" transform="scale(0.015625)"/>
      </defs>
      <use xlink:href="#ArialMT-72"/>
      <use x="33.300781" xlink:href="#ArialMT-65"/>
      <use x="88.916016" xlink:href="#ArialMT-67"/>
      <use x="144.53125" xlink:href="#ArialMT-75"/>
      <use x="200.146484" xlink:href="#ArialMT-6c"/>
      <use x="222.363281" xlink:href="#ArialMT-61"/>
      <use x="277.978516" xlink:href="#ArialMT-72"/>
     </g>
    </g>
    <g id="line2d_13">
     <path d="M 115.2 467.025037 
L 137.2 467.025037 
" style="fill:none;stroke:#dd8452;stroke-dasharray:6,2.25;stroke-dashoffset:0;stroke-width:1.5;"/>
    </g>
    <g id="line2d_14"/>
    <g id="text_18">
     <!-- splitted_3s -->
     <g style="fill:#262626;" transform="translate(146 470.875037)scale(0.11 -0.11)">
      <defs>
       <path d="M 422 -1272 
L 422 3319 
L 934 3319 
L 934 2888 
Q 1116 3141 1344 3267 
Q 1572 3394 1897 3394 
Q 2322 3394 2647 3175 
Q 2972 2956 3137 2557 
Q 3303 2159 3303 1684 
Q 3303 1175 3120 767 
Q 2938 359 2589 142 
Q 2241 -75 1856 -75 
Q 1575 -75 1351 44 
Q 1128 163 984 344 
L 984 -1272 
L 422 -1272 
z
M 931 1641 
Q 931 1000 1190 694 
Q 1450 388 1819 388 
Q 2194 388 2461 705 
Q 2728 1022 2728 1688 
Q 2728 2322 2467 2637 
Q 2206 2953 1844 2953 
Q 1484 2953 1207 2617 
Q 931 2281 931 1641 
z
" id="ArialMT-70" transform="scale(0.015625)"/>
       <path d="M 2575 0 
L 2575 419 
Q 2259 -75 1647 -75 
Q 1250 -75 917 144 
Q 584 363 401 755 
Q 219 1147 219 1656 
Q 219 2153 384 2558 
Q 550 2963 881 3178 
Q 1213 3394 1622 3394 
Q 1922 3394 2156 3267 
Q 2391 3141 2538 2938 
L 2538 4581 
L 3097 4581 
L 3097 0 
L 2575 0 
z
M 797 1656 
Q 797 1019 1065 703 
Q 1334 388 1700 388 
Q 2069 388 2326 689 
Q 2584 991 2584 1609 
Q 2584 2291 2321 2609 
Q 2059 2928 1675 2928 
Q 1300 2928 1048 2622 
Q 797 2316 797 1656 
z
" id="ArialMT-64" transform="scale(0.015625)"/>
       <path d="M -97 -1272 
L -97 -866 
L 3631 -866 
L 3631 -1272 
L -97 -1272 
z
" id="ArialMT-5f" transform="scale(0.015625)"/>
       <path d="M 269 1209 
L 831 1284 
Q 928 806 1161 595 
Q 1394 384 1728 384 
Q 2125 384 2398 659 
Q 2672 934 2672 1341 
Q 2672 1728 2419 1979 
Q 2166 2231 1775 2231 
Q 1616 2231 1378 2169 
L 1441 2663 
Q 1497 2656 1531 2656 
Q 1891 2656 2178 2843 
Q 2466 3031 2466 3422 
Q 2466 3731 2256 3934 
Q 2047 4138 1716 4138 
Q 1388 4138 1169 3931 
Q 950 3725 888 3313 
L 325 3413 
Q 428 3978 793 4289 
Q 1159 4600 1703 4600 
Q 2078 4600 2393 4439 
Q 2709 4278 2876 4000 
Q 3044 3722 3044 3409 
Q 3044 3113 2884 2869 
Q 2725 2625 2413 2481 
Q 2819 2388 3044 2092 
Q 3269 1797 3269 1353 
Q 3269 753 2831 336 
Q 2394 -81 1725 -81 
Q 1122 -81 723 278 
Q 325 638 269 1209 
z
" id="ArialMT-33" transform="scale(0.015625)"/>
      </defs>
      <use xlink:href="#ArialMT-73"/>
      <use x="50" xlink:href="#ArialMT-70"/>
      <use x="105.615234" xlink:href="#ArialMT-6c"/>
      <use x="127.832031" xlink:href="#ArialMT-69"/>
      <use x="150.048828" xlink:href="#ArialMT-74"/>
      <use x="177.832031" xlink:href="#ArialMT-74"/>
      <use x="205.615234" xlink:href="#ArialMT-65"/>
      <use x="261.230469" xlink:href="#ArialMT-64"/>
      <use x="316.845703" xlink:href="#ArialMT-5f"/>
      <use x="372.460938" xlink:href="#ArialMT-33"/>
      <use x="428.076172" xlink:href="#ArialMT-73"/>
     </g>
    </g>
    <g id="line2d_15">
     <path d="M 115.2 482.617537 
L 137.2 482.617537 
" style="fill:none;stroke:#55a868;stroke-dasharray:1.5,1.5;stroke-dashoffset:0;stroke-width:1.5;"/>
    </g>
    <g id="line2d_16"/>
    <g id="text_19">
     <!-- splitted_1s -->
     <g style="fill:#262626;" transform="translate(146 486.467537)scale(0.11 -0.11)">
      <use xlink:href="#ArialMT-73"/>
      <use x="50" xlink:href="#ArialMT-70"/>
      <use x="105.615234" xlink:href="#ArialMT-6c"/>
      <use x="127.832031" xlink:href="#ArialMT-69"/>
      <use x="150.048828" xlink:href="#ArialMT-74"/>
      <use x="177.832031" xlink:href="#ArialMT-74"/>
      <use x="205.615234" xlink:href="#ArialMT-65"/>
      <use x="261.230469" xlink:href="#ArialMT-64"/>
      <use x="316.845703" xlink:href="#ArialMT-5f"/>
      <use x="372.460938" xlink:href="#ArialMT-31"/>
      <use x="428.076172" xlink:href="#ArialMT-73"/>
     </g>
    </g>
    <g id="line2d_17">
     <path d="M 115.2 498.311444 
L 137.2 498.311444 
" style="fill:none;stroke:#c44e52;stroke-dasharray:4.5,1.875,2.25,1.875;stroke-dashoffset:0;stroke-width:1.5;"/>
    </g>
    <g id="line2d_18"/>
    <g id="text_20">
     <!-- overlap_1f_3s -->
     <g style="fill:#262626;" transform="translate(146 502.161444)scale(0.11 -0.11)">
      <use xlink:href="#ArialMT-6f"/>
      <use x="55.615234" xlink:href="#ArialMT-76"/>
      <use x="105.615234" xlink:href="#ArialMT-65"/>
      <use x="161.230469" xlink:href="#ArialMT-72"/>
      <use x="194.53125" xlink:href="#ArialMT-6c"/>
      <use x="216.748047" xlink:href="#ArialMT-61"/>
      <use x="272.363281" xlink:href="#ArialMT-70"/>
      <use x="327.978516" xlink:href="#ArialMT-5f"/>
      <use x="383.59375" xlink:href="#ArialMT-31"/>
      <use x="439.208984" xlink:href="#ArialMT-66"/>
      <use x="466.992188" xlink:href="#ArialMT-5f"/>
      <use x="522.607422" xlink:href="#ArialMT-33"/>
      <use x="578.222656" xlink:href="#ArialMT-73"/>
     </g>
    </g>
    <g id="line2d_19">
     <path d="M 115.2 514.00535 
L 137.2 514.00535 
" style="fill:none;stroke:#8172b3;stroke-dasharray:7.5,1.5,1.5,1.5;stroke-dashoffset:0;stroke-width:1.5;"/>
    </g>
    <g id="line2d_20"/>
    <g id="text_21">
     <!-- overlap_10f_3s -->
     <g style="fill:#262626;" transform="translate(146 517.85535)scale(0.11 -0.11)">
      <use xlink:href="#ArialMT-6f"/>
      <use x="55.615234" xlink:href="#ArialMT-76"/>
      <use x="105.615234" xlink:href="#ArialMT-65"/>
      <use x="161.230469" xlink:href="#ArialMT-72"/>
      <use x="194.53125" xlink:href="#ArialMT-6c"/>
      <use x="216.748047" xlink:href="#ArialMT-61"/>
      <use x="272.363281" xlink:href="#ArialMT-70"/>
      <use x="327.978516" xlink:href="#ArialMT-5f"/>
      <use x="383.59375" xlink:href="#ArialMT-31"/>
      <use x="439.208984" xlink:href="#ArialMT-30"/>
      <use x="494.824219" xlink:href="#ArialMT-66"/>
      <use x="522.607422" xlink:href="#ArialMT-5f"/>
      <use x="578.222656" xlink:href="#ArialMT-33"/>
      <use x="633.837891" xlink:href="#ArialMT-73"/>
     </g>
    </g>
   </g>
  </g>
 </g>
 <defs>
  <clipPath id="p937c729e5c">
   <rect height="458.4888" width="652.86" x="105.3" y="71.4528"/>
  </clipPath>
 </defs>
</svg>
