<?xml version="1.0" encoding="utf-8" standalone="no"?>
<!DOCTYPE svg PUBLIC "-//W3C//DTD SVG 1.1//EN"
  "http://www.w3.org/Graphics/SVG/1.1/DTD/svg11.dtd">
<svg height="595.44pt" version="1.1" viewBox="0 0 842.4 595.44" width="842.4pt" xmlns="http://www.w3.org/2000/svg" xmlns:xlink="http://www.w3.org/1999/xlink">
 <metadata>
  <rdf:RDF xmlns:cc="http://creativecommons.org/ns#" xmlns:dc="http://purl.org/dc/elements/1.1/" xmlns:rdf="http://www.w3.org/1999/02/22-rdf-syntax-ns#">
   <cc:Work>
    <dc:type rdf:resource="http://purl.org/dc/dcmitype/StillImage"/>
    <dc:date>2021-06-04T22:03:19.246082</dc:date>
    <dc:format>image/svg+xml</dc:format>
    <dc:creator>
     <cc:Agent>
      <dc:title>Matplotlib v3.4.1, https://matplotlib.org/</dc:title>
     </cc:Agent>
    </dc:creator>
   </cc:Work>
  </rdf:RDF>
 </metadata>
 <defs>
  <style type="text/css">*{stroke-linecap:butt;stroke-linejoin:round;}</style>
 </defs>
 <g id="figure_1">
  <g id="patch_1">
   <path d="M 0 595.44 
L 842.4 595.44 
L 842.4 0 
L 0 0 
z
" style="fill:#ffffff;"/>
  </g>
  <g id="axes_1">
   <g id="patch_2">
    <path d="M 105.3 529.9416 
L 758.16 529.9416 
L 758.16 71.4528 
L 105.3 71.4528 
z
" style="fill:#ffffff;"/>
   </g>
   <g id="matplotlib.axis_1">
    <g id="xtick_1">
     <g id="text_1">
      <!-- 0 -->
      <g style="fill:#262626;" transform="translate(131.916939 547.315194)scale(0.11 -0.11)">
       <defs>
        <path d="M 266 2259 
Q 266 3072 433 3567 
Q 600 4063 929 4331 
Q 1259 4600 1759 4600 
Q 2128 4600 2406 4451 
Q 2684 4303 2865 4023 
Q 3047 3744 3150 3342 
Q 3253 2941 3253 2259 
Q 3253 1453 3087 958 
Q 2922 463 2592 192 
Q 2263 -78 1759 -78 
Q 1097 -78 719 397 
Q 266 969 266 2259 
z
M 844 2259 
Q 844 1131 1108 757 
Q 1372 384 1759 384 
Q 2147 384 2411 759 
Q 2675 1134 2675 2259 
Q 2675 3391 2411 3762 
Q 2147 4134 1753 4134 
Q 1366 4134 1134 3806 
Q 844 3388 844 2259 
z
" id="ArialMT-30" transform="scale(0.015625)"/>
       </defs>
       <use xlink:href="#ArialMT-30"/>
      </g>
     </g>
    </g>
    <g id="xtick_2">
     <g id="text_2">
      <!-- 25 -->
      <g style="fill:#262626;" transform="translate(201.950676 547.315194)scale(0.11 -0.11)">
       <defs>
        <path d="M 3222 541 
L 3222 0 
L 194 0 
Q 188 203 259 391 
Q 375 700 629 1000 
Q 884 1300 1366 1694 
Q 2113 2306 2375 2664 
Q 2638 3022 2638 3341 
Q 2638 3675 2398 3904 
Q 2159 4134 1775 4134 
Q 1369 4134 1125 3890 
Q 881 3647 878 3216 
L 300 3275 
Q 359 3922 746 4261 
Q 1134 4600 1788 4600 
Q 2447 4600 2831 4234 
Q 3216 3869 3216 3328 
Q 3216 3053 3103 2787 
Q 2991 2522 2730 2228 
Q 2469 1934 1863 1422 
Q 1356 997 1212 845 
Q 1069 694 975 541 
L 3222 541 
z
" id="ArialMT-32" transform="scale(0.015625)"/>
        <path d="M 266 1200 
L 856 1250 
Q 922 819 1161 601 
Q 1400 384 1738 384 
Q 2144 384 2425 690 
Q 2706 997 2706 1503 
Q 2706 1984 2436 2262 
Q 2166 2541 1728 2541 
Q 1456 2541 1237 2417 
Q 1019 2294 894 2097 
L 366 2166 
L 809 4519 
L 3088 4519 
L 3088 3981 
L 1259 3981 
L 1013 2750 
Q 1425 3038 1878 3038 
Q 2478 3038 2890 2622 
Q 3303 2206 3303 1553 
Q 3303 931 2941 478 
Q 2500 -78 1738 -78 
Q 1113 -78 717 272 
Q 322 622 266 1200 
z
" id="ArialMT-35" transform="scale(0.015625)"/>
       </defs>
       <use xlink:href="#ArialMT-32"/>
       <use x="55.615234" xlink:href="#ArialMT-35"/>
      </g>
     </g>
    </g>
    <g id="xtick_3">
     <g id="text_3">
      <!-- 50 -->
      <g style="fill:#262626;" transform="translate(275.042928 547.315194)scale(0.11 -0.11)">
       <use xlink:href="#ArialMT-35"/>
       <use x="55.615234" xlink:href="#ArialMT-30"/>
      </g>
     </g>
    </g>
    <g id="xtick_4">
     <g id="text_4">
      <!-- 75 -->
      <g style="fill:#262626;" transform="translate(348.135181 547.315194)scale(0.11 -0.11)">
       <defs>
        <path d="M 303 3981 
L 303 4522 
L 3269 4522 
L 3269 4084 
Q 2831 3619 2401 2847 
Q 1972 2075 1738 1259 
Q 1569 684 1522 0 
L 944 0 
Q 953 541 1156 1306 
Q 1359 2072 1739 2783 
Q 2119 3494 2547 3981 
L 303 3981 
z
" id="ArialMT-37" transform="scale(0.015625)"/>
       </defs>
       <use xlink:href="#ArialMT-37"/>
       <use x="55.615234" xlink:href="#ArialMT-35"/>
      </g>
     </g>
    </g>
    <g id="xtick_5">
     <g id="text_5">
      <!-- 100 -->
      <g style="fill:#262626;" transform="translate(418.168918 547.315194)scale(0.11 -0.11)">
       <defs>
        <path d="M 2384 0 
L 1822 0 
L 1822 3584 
Q 1619 3391 1289 3197 
Q 959 3003 697 2906 
L 697 3450 
Q 1169 3672 1522 3987 
Q 1875 4303 2022 4600 
L 2384 4600 
L 2384 0 
z
" id="ArialMT-31" transform="scale(0.015625)"/>
       </defs>
       <use xlink:href="#ArialMT-31"/>
       <use x="55.615234" xlink:href="#ArialMT-30"/>
       <use x="111.230469" xlink:href="#ArialMT-30"/>
      </g>
     </g>
    </g>
    <g id="xtick_6">
     <g id="text_6">
      <!-- 125 -->
      <g style="fill:#262626;" transform="translate(491.261171 547.315194)scale(0.11 -0.11)">
       <use xlink:href="#ArialMT-31"/>
       <use x="55.615234" xlink:href="#ArialMT-32"/>
       <use x="111.230469" xlink:href="#ArialMT-35"/>
      </g>
     </g>
    </g>
    <g id="xtick_7">
     <g id="text_7">
      <!-- 150 -->
      <g style="fill:#262626;" transform="translate(564.353423 547.315194)scale(0.11 -0.11)">
       <use xlink:href="#ArialMT-31"/>
       <use x="55.615234" xlink:href="#ArialMT-35"/>
       <use x="111.230469" xlink:href="#ArialMT-30"/>
      </g>
     </g>
    </g>
    <g id="xtick_8">
     <g id="text_8">
      <!-- 175 -->
      <g style="fill:#262626;" transform="translate(637.445676 547.315194)scale(0.11 -0.11)">
       <use xlink:href="#ArialMT-31"/>
       <use x="55.615234" xlink:href="#ArialMT-37"/>
       <use x="111.230469" xlink:href="#ArialMT-35"/>
      </g>
     </g>
    </g>
    <g id="xtick_9">
     <g id="text_9">
      <!-- 200 -->
      <g style="fill:#262626;" transform="translate(710.537928 547.315194)scale(0.11 -0.11)">
       <use xlink:href="#ArialMT-32"/>
       <use x="55.615234" xlink:href="#ArialMT-30"/>
       <use x="111.230469" xlink:href="#ArialMT-30"/>
      </g>
     </g>
    </g>
   </g>
   <g id="matplotlib.axis_2">
    <g id="ytick_1">
     <g id="text_10">
      <!-- −25 -->
      <g style="fill:#262626;" transform="translate(77.14125 533.878397)scale(0.11 -0.11)">
       <defs>
        <path d="M 3381 1997 
L 356 1997 
L 356 2522 
L 3381 2522 
L 3381 1997 
z
" id="ArialMT-2212" transform="scale(0.015625)"/>
       </defs>
       <use xlink:href="#ArialMT-2212"/>
       <use x="58.398438" xlink:href="#ArialMT-32"/>
       <use x="114.013672" xlink:href="#ArialMT-35"/>
      </g>
     </g>
    </g>
    <g id="ytick_2">
     <g id="text_11">
      <!-- −20 -->
      <g style="fill:#262626;" transform="translate(77.14125 442.180637)scale(0.11 -0.11)">
       <use xlink:href="#ArialMT-2212"/>
       <use x="58.398438" xlink:href="#ArialMT-32"/>
       <use x="114.013672" xlink:href="#ArialMT-30"/>
      </g>
     </g>
    </g>
    <g id="ytick_3">
     <g id="text_12">
      <!-- −15 -->
      <g style="fill:#262626;" transform="translate(77.14125 350.482877)scale(0.11 -0.11)">
       <use xlink:href="#ArialMT-2212"/>
       <use x="58.398438" xlink:href="#ArialMT-31"/>
       <use x="114.013672" xlink:href="#ArialMT-35"/>
      </g>
     </g>
    </g>
    <g id="ytick_4">
     <g id="text_13">
      <!-- −10 -->
      <g style="fill:#262626;" transform="translate(77.14125 258.785117)scale(0.11 -0.11)">
       <use xlink:href="#ArialMT-2212"/>
       <use x="58.398438" xlink:href="#ArialMT-31"/>
       <use x="114.013672" xlink:href="#ArialMT-30"/>
      </g>
     </g>
    </g>
    <g id="ytick_5">
     <g id="text_14">
      <!-- −5 -->
      <g style="fill:#262626;" transform="translate(83.258281 167.087357)scale(0.11 -0.11)">
       <use xlink:href="#ArialMT-2212"/>
       <use x="58.398438" xlink:href="#ArialMT-35"/>
      </g>
     </g>
    </g>
    <g id="ytick_6">
     <g id="text_15">
      <!-- 0 -->
      <g style="fill:#262626;" transform="translate(89.682969 75.389597)scale(0.11 -0.11)">
       <use xlink:href="#ArialMT-30"/>
      </g>
     </g>
    </g>
   </g>
   <g id="line2d_1">
    <path clip-path="url(#p0ffdae5d91)" d="M 134.975455 569.094624 
L 137.899145 570.140244 
L 140.822835 570.436943 
L 143.746525 570.467481 
L 146.670215 571.808576 
L 149.593905 572.81089 
L 152.517595 573.620361 
L 155.441285 575.510221 
L 158.364975 577.931776 
L 161.288665 578.54361 
L 164.212356 580.602423 
L 167.136046 584.316765 
L 168.811482 596.44 
M 185.436799 596.44 
L 187.601876 544.29498 
L 189.942525 596.44 
M 201.668253 596.44 
L 202.220327 583.663865 
L 205.144017 575.831302 
L 205.810027 596.44 
M 210.142913 596.44 
L 210.991397 567.876308 
L 214.563723 596.44 
M 221.803186 596.44 
L 222.686158 589.341491 
L 225.609848 572.285737 
L 227.3963 596.44 
M 232.137716 596.44 
L 234.380918 514.57681 
L 237.930881 596.44 
M 243.379445 596.44 
L 246.075678 494.193591 
L 248.999369 484.27479 
L 251.923059 576.061574 
L 254.846749 567.162298 
L 257.770439 595.525346 
L 260.694129 528.020293 
L 262.348695 596.44 
M 265.236225 596.44 
L 266.541509 554.112899 
L 269.465199 542.261318 
L 272.388889 560.126227 
L 275.312579 577.128637 
L 278.23627 581.176443 
L 281.15996 568.797225 
L 284.08365 540.210865 
L 287.00734 552.133945 
L 289.93103 593.00137 
L 292.85472 544.153242 
L 295.77841 523.918653 
L 298.7021 579.596645 
L 301.62579 583.382837 
L 304.549481 552.443378 
L 307.473171 525.742541 
L 310.396861 548.634659 
L 313.320551 515.729713 
L 316.244241 549.440736 
L 319.167931 521.552821 
L 322.091621 545.30604 
L 325.015311 510.433894 
L 327.939001 548.784373 
L 330.862691 584.944865 
L 333.786382 557.992102 
L 336.710072 516.712369 
L 339.633762 577.807177 
L 341.919182 596.44 
M 342.7557 596.44 
L 345.481142 524.900679 
L 348.404832 489.820682 
L 351.328522 475.336652 
L 354.252212 550.393344 
L 357.175902 540.117678 
L 360.099592 524.901029 
L 362.81941 596.44 
M 363.210779 596.44 
L 365.946973 518.184359 
L 368.870663 517.073852 
L 371.794353 538.764235 
L 374.718621 596.44 
M 382.215954 596.44 
L 383.489113 556.103711 
L 386.412803 536.659389 
L 389.336494 578.30753 
L 392.260184 553.903544 
L 395.183874 568.323247 
L 398.107564 515.542501 
L 401.031254 489.453987 
L 403.954944 493.736579 
L 406.878634 541.92656 
L 409.802324 503.63712 
L 412.726014 489.808334 
L 415.649704 576.76516 
L 418.573395 551.67277 
L 421.497085 592.777359 
L 421.644186 596.44 
M 433.061 596.44 
L 433.191845 595.273106 
L 436.115535 523.023027 
L 439.039225 540.78618 
L 441.962915 596.164604 
L 444.886605 589.953709 
L 447.810296 509.494998 
L 450.733986 472.616893 
L 453.657676 543.883546 
L 456.581366 525.245336 
L 458.033833 596.44 
M 461.327804 596.44 
L 462.428746 552.88304 
L 465.352436 559.688174 
L 468.276126 543.060889 
L 471.199816 544.399465 
L 473.179568 596.44 
M 475.057765 596.44 
L 477.047197 543.603182 
L 479.970887 458.515333 
L 482.894577 577.890604 
L 485.818267 582.533594 
L 488.741957 585.539558 
L 491.665647 542.960042 
L 494.589337 544.246673 
L 496.251679 596.44 
M 498.709974 596.44 
L 500.436717 539.307543 
L 503.360408 468.909721 
L 506.284098 554.337435 
L 507.578839 596.44 
M 516.122591 596.44 
L 517.978858 534.552653 
L 520.902548 579.533751 
L 523.826238 593.605018 
L 526.749928 549.505729 
L 529.351604 596.44 
M 534.053003 596.44 
L 535.520999 545.68099 
L 538.444689 524.283808 
L 541.368379 595.001277 
L 541.608084 596.44 
M 544.991397 596.44 
L 547.215759 545.200436 
L 550.139449 583.430374 
L 553.063139 492.301073 
L 555.986829 565.7744 
L 558.910519 541.609397 
L 561.83421 540.732101 
L 564.7579 550.393344 
L 567.68159 513.077676 
L 570.60528 517.26953 
L 573.52897 513.221723 
L 576.45266 496.074742 
L 579.37635 533.245313 
L 582.30004 545.96821 
L 585.22373 540.194879 
L 588.147421 526.767312 
L 591.071111 521.546174 
L 593.994801 545.53166 
L 596.918491 478.50926 
L 599.842181 536.656135 
L 602.765871 524.793395 
L 605.689561 526.681472 
L 608.613251 518.563402 
L 611.356013 596.44 
M 614.67368 596.44 
L 617.384322 458.942543 
L 620.308012 493.759036 
L 625.347053 596.44 
M 628.876867 596.44 
L 629.079082 595.237881 
L 632.002772 574.10088 
L 634.926462 546.520892 
L 637.850152 582.317943 
L 640.773842 510.462507 
L 643.697532 450.926964 
L 646.621223 496.658941 
L 649.544913 515.171329 
L 652.468603 587.105435 
L 655.392293 547.957518 
L 658.315983 514.75073 
L 661.239673 577.395324 
L 664.163363 513.81988 
L 667.087053 572.528882 
L 670.010743 580.179131 
L 672.934433 562.555513 
L 675.858124 568.499825 
L 678.781814 533.278824 
L 682.039638 596.44 
M 686.322024 596.44 
L 687.552884 569.932078 
L 688.294479 596.44 
M 701.668927 596.44 
L 702.171335 594.307205 
L 705.095025 596.138964 
L 708.018715 590.328729 
L 710.942405 592.393174 
L 713.866095 591.307083 
L 716.789785 592.36568 
L 719.713475 590.862838 
L 722.637165 588.675053 
L 725.560855 592.25301 
L 728.484545 592.803454 
L 728.484545 592.803454 
" style="fill:none;stroke:#4c72b0;stroke-linecap:round;stroke-width:1.5;"/>
   </g>
   <g id="line2d_2">
    <path clip-path="url(#p0ffdae5d91)" d="M 134.975455 559.918027 
L 137.899145 563.808703 
L 140.822835 563.91095 
L 143.746525 564.271208 
L 146.670215 565.885916 
L 149.593905 567.330272 
L 152.517595 566.073198 
L 155.441285 567.257164 
L 158.364975 567.13288 
L 161.288665 567.967186 
L 164.212356 568.245976 
L 167.136046 568.870298 
L 170.059736 586.6961 
L 172.983426 592.700962 
L 173.618171 596.44 
M 185.002308 596.44 
L 187.601876 518.689504 
L 190.126491 596.44 
M 202.098262 596.44 
L 202.220327 594.600757 
L 202.779332 596.44 
M 210.858758 596.44 
L 210.991397 592.46093 
L 213.915087 575.379186 
L 215.296903 596.44 
M 221.268471 596.44 
L 222.686158 588.664175 
L 225.609848 566.343698 
L 228.690695 596.44 
M 231.985414 596.44 
L 234.380918 510.138978 
L 237.304608 569.535266 
L 238.510903 596.44 
M 243.231352 596.44 
L 246.075678 502.66293 
L 248.999369 511.439426 
L 251.923059 573.058968 
L 254.846749 565.115728 
L 257.612162 596.44 
M 257.866879 596.44 
L 260.694129 543.881343 
L 262.056 596.44 
M 265.750447 596.44 
L 266.541509 574.081921 
L 269.465199 557.718035 
L 272.388889 590.787421 
L 273.311712 596.44 
M 281.002849 596.44 
L 281.15996 595.845237 
L 284.08365 553.593937 
L 287.00734 567.118818 
L 288.603514 596.44 
M 291.631655 596.44 
L 292.85472 578.901944 
L 295.77841 541.513027 
L 298.500725 596.44 
M 302.519217 596.44 
L 304.549481 567.192381 
L 307.473171 543.278359 
L 310.396861 542.074035 
L 313.320551 533.296979 
L 316.244241 566.669361 
L 319.167931 554.278564 
L 322.091621 554.858951 
L 325.015311 506.074311 
L 327.939001 575.107392 
L 330.862691 581.976784 
L 333.786382 547.019566 
L 336.710072 552.489586 
L 339.633762 592.666157 
L 342.557452 591.560687 
L 345.481142 521.295648 
L 348.404832 500.393887 
L 351.328522 561.604444 
L 353.758719 596.44 
M 354.51917 596.44 
L 360.099592 445.883559 
L 363.023283 445.034247 
L 365.946973 485.376448 
L 368.870663 468.906608 
L 371.794353 480.757665 
L 374.718043 535.515615 
L 380.486111 596.44 
M 380.596791 596.44 
L 383.489113 520.30061 
L 386.412803 550.470825 
L 389.336494 582.874753 
L 392.260184 560.080508 
L 395.183874 575.408464 
L 398.107564 517.877376 
L 401.031254 486.108753 
L 403.954944 525.721518 
L 406.878634 539.788517 
L 409.802324 543.598565 
L 412.726014 552.745499 
L 415.597072 596.44 
M 415.704625 596.44 
L 418.573395 554.59961 
L 421.501783 596.44 
M 426.341513 596.44 
L 427.344465 575.015045 
L 430.268155 580.233804 
L 433.191845 561.648308 
L 436.115535 509.898281 
L 439.039225 575.031905 
L 440.559048 596.44 
M 443.062434 596.44 
L 444.886605 563.632439 
L 447.810296 489.530209 
L 450.733986 507.338416 
L 453.657676 546.867229 
L 456.581366 561.802535 
L 457.529214 596.44 
M 461.326363 596.44 
L 462.428746 552.737174 
L 465.352436 573.681296 
L 468.276126 531.913243 
L 471.199816 548.858566 
L 474.123506 592.969363 
L 477.047197 574.158772 
L 479.970887 462.965268 
L 482.894577 569.97297 
L 485.608125 596.44 
M 488.945867 596.44 
L 491.665647 561.598182 
L 494.589337 551.756967 
L 496.152337 596.44 
M 498.727719 596.44 
L 500.436717 541.710874 
L 503.360408 468.927701 
L 506.284098 559.262293 
L 507.630168 596.44 
M 516.676529 596.44 
L 517.978858 563.766587 
L 520.902548 589.166137 
L 523.826238 589.079281 
L 526.749928 561.590557 
L 528.824288 596.44 
M 533.819539 596.44 
L 535.520999 541.802101 
L 538.444689 521.802332 
L 543.833443 596.44 
M 544.494075 596.44 
L 547.215759 510.211386 
L 550.139449 555.981037 
L 553.063139 501.19003 
L 555.986829 498.711563 
L 561.83421 430.77944 
L 564.7579 503.405938 
L 567.68159 480.228453 
L 570.60528 579.490411 
L 573.52897 461.658629 
L 576.45266 458.701706 
L 579.37635 504.295722 
L 582.30004 468.530084 
L 585.22373 551.624463 
L 588.147421 520.898836 
L 591.071111 540.922112 
L 593.994801 570.422112 
L 596.918491 500.538424 
L 599.842181 587.127647 
L 602.765871 543.454763 
L 605.689561 570.273657 
L 608.127419 596.44 
M 616.38285 596.44 
L 617.384322 563.785197 
L 620.308012 551.604944 
L 623.231702 582.058847 
L 623.801831 596.44 
M 634.738637 596.44 
L 634.926462 595.000227 
L 636.179876 596.44 
M 637.952785 596.44 
L 640.773842 543.703225 
L 643.697532 451.842319 
L 646.621223 519.125144 
L 649.544913 548.861574 
L 652.468603 594.05437 
L 655.392293 578.300429 
L 658.315983 494.733087 
L 661.239673 581.492767 
L 664.163363 510.788765 
L 667.087053 583.869722 
L 670.010743 595.48365 
L 672.934433 564.703979 
L 675.858124 573.710574 
L 678.781814 559.620278 
L 681.441967 596.44 
M 686.326984 596.44 
L 687.552884 567.636311 
L 688.389949 596.44 
M 701.033075 596.44 
L 702.171335 583.304691 
L 705.095025 584.594051 
L 708.018715 583.42037 
L 710.942405 585.785362 
L 713.866095 583.621015 
L 716.789785 585.392118 
L 719.713475 584.615914 
L 722.637165 581.040686 
L 725.560855 585.098951 
L 728.484545 581.019838 
L 728.484545 581.019838 
" style="fill:none;stroke:#dd8452;stroke-dasharray:6,2.25;stroke-dashoffset:0;stroke-width:1.5;"/>
   </g>
   <g id="line2d_3">
    <path clip-path="url(#p0ffdae5d91)" d="M 134.975455 563.165562 
L 137.899145 566.555781 
L 140.822835 567.131166 
L 143.746525 565.852265 
L 146.670215 573.429056 
L 149.593905 573.999333 
L 152.517595 574.001887 
L 155.441285 595.757018 
L 157.989721 596.44 
M 158.38935 596.44 
L 161.288665 584.477603 
L 164.212356 586.215126 
L 167.136046 579.474145 
L 170.059736 579.589719 
L 173.051673 596.44 
M 183.839838 596.44 
L 184.678186 558.533067 
L 187.601876 523.654554 
L 190.525567 530.084108 
L 193.449257 554.670094 
L 196.372947 589.526395 
L 197.134891 596.44 
M 203.813497 596.44 
L 205.144017 573.937943 
L 208.067707 519.885958 
L 213.619288 596.44 
M 214.711528 596.44 
L 216.838777 585.735691 
L 219.762468 546.493538 
L 222.686158 546.144369 
L 225.609848 512.903336 
L 228.533538 563.616349 
L 231.115144 596.44 
M 231.570003 596.44 
L 234.380918 488.031389 
L 237.304608 578.647955 
L 238.124796 596.44 
M 243.407793 596.44 
L 246.075678 485.671644 
L 248.999369 522.955585 
L 251.923059 523.102991 
L 254.846749 590.429087 
L 255.370784 596.44 
M 258.620365 596.44 
L 260.694129 529.280619 
L 262.575328 596.44 
M 264.941032 596.44 
L 266.541509 551.424273 
L 269.465199 571.724379 
L 272.388889 593.996828 
L 275.312579 588.449783 
L 277.867968 596.44 
M 278.336604 596.44 
L 281.15996 564.034254 
L 284.08365 562.650343 
L 287.00734 406.316513 
L 289.93103 504.579794 
L 292.85472 513.578239 
L 295.77841 550.27882 
L 297.559573 596.44 
M 303.950856 596.44 
L 304.549481 583.001381 
L 307.473171 556.466663 
L 310.396861 592.44358 
L 313.320551 587.363726 
L 316.244241 596.149038 
L 319.167931 587.631882 
L 322.091621 588.372582 
L 325.015311 526.368716 
L 327.939001 589.102928 
L 328.593489 596.44 
M 332.64036 596.44 
L 333.786382 580.04026 
L 336.710072 571.978718 
L 337.882724 596.44 
M 344.86902 596.44 
L 345.481142 577.897635 
L 348.404832 562.77872 
L 351.328522 567.841048 
L 354.252212 559.440481 
L 356.300039 596.44 
M 357.485211 596.44 
L 360.099592 462.683085 
L 363.023283 493.63038 
L 365.946973 515.762979 
L 368.870663 568.690466 
L 371.794353 460.801341 
L 374.718043 544.161287 
L 377.641733 586.32038 
L 380.565423 564.958248 
L 383.489113 500.001238 
L 386.412803 563.431095 
L 389.003862 596.44 
M 389.959715 596.44 
L 392.260184 580.79803 
L 395.183874 564.52002 
L 398.107564 561.829609 
L 401.031254 480.572236 
L 403.954944 540.445825 
L 406.878634 567.045535 
L 409.802324 556.801246 
L 412.726014 528.607116 
L 414.588969 596.44 
M 427.339551 596.44 
L 427.344465 596.331248 
L 430.268155 592.984265 
L 433.191845 499.547828 
L 436.115535 450.565167 
L 439.039225 585.307572 
L 441.962915 573.907161 
L 444.886605 582.684952 
L 447.810296 550.719217 
L 450.733986 499.849285 
L 453.657676 520.633863 
L 456.581366 588.954928 
L 456.748522 596.44 
M 462.058346 596.44 
L 462.428746 578.533535 
L 465.352436 584.744815 
L 468.276126 557.422314 
L 471.199816 520.864486 
L 474.123506 534.78401 
L 477.047197 568.73552 
L 479.970887 469.48591 
L 482.894577 541.100859 
L 487.87162 596.44 
M 489.210025 596.44 
L 491.665647 545.955792 
L 494.589337 530.537413 
L 497.513027 585.590069 
L 500.436717 503.808732 
L 503.360408 511.818014 
L 506.284098 501.834395 
L 508.591591 596.44 
M 510.928859 596.44 
L 512.131478 578.786755 
L 515.055168 506.274746 
L 517.978858 527.466211 
L 520.902548 523.828859 
L 523.826238 535.599287 
L 526.749928 592.105534 
L 529.673618 576.256028 
L 532.597309 564.499102 
L 535.520999 560.595063 
L 538.444689 549.858816 
L 541.368379 555.06883 
L 544.292069 589.437791 
L 547.215759 524.042831 
L 549.945361 596.44 
M 550.256877 596.44 
L 553.063139 473.419192 
L 555.986829 458.769357 
L 558.910519 528.746021 
L 561.83421 466.200981 
L 564.7579 484.736665 
L 567.68159 533.833116 
L 570.60528 543.246352 
L 573.52897 507.254569 
L 576.45266 530.563578 
L 579.37635 495.384203 
L 582.30004 509.792432 
L 585.22373 590.966343 
L 588.147421 540.449743 
L 591.071111 410.939704 
L 593.994801 409.906362 
L 596.918491 423.073958 
L 599.842181 489.726481 
L 602.765871 499.10897 
L 605.587632 596.44 
M 606.010232 596.44 
L 608.613251 567.900479 
L 610.823973 596.44 
M 615.057508 596.44 
L 617.384322 515.424409 
L 620.308012 526.470088 
L 623.231702 575.409724 
L 624.295835 596.44 
M 634.633988 596.44 
L 634.926462 591.75605 
L 637.850152 584.696927 
L 640.773842 542.33642 
L 643.697532 487.758126 
L 646.621223 524.819945 
L 649.544913 546.588754 
L 652.468603 536.185341 
L 654.672908 596.44 
M 655.9568 596.44 
L 658.315983 514.258808 
L 661.239673 485.488034 
L 664.163363 463.464082 
L 667.087053 516.707997 
L 670.010743 457.839171 
L 672.934433 513.400645 
L 675.008668 596.44 
M 677.64059 596.44 
L 678.781814 574.6671 
L 681.705504 538.454803 
L 684.629194 584.300989 
L 685.775471 596.44 
M 701.233694 596.44 
L 702.171335 585.617844 
L 705.095025 582.334174 
L 708.018715 580.233454 
L 710.942405 586.271443 
L 713.866095 581.423087 
L 716.789785 583.534684 
L 719.713475 581.553072 
L 722.637165 581.425745 
L 725.560855 583.325295 
L 728.484545 580.643769 
L 728.484545 580.643769 
" style="fill:none;stroke:#55a868;stroke-dasharray:1.5,1.5;stroke-dashoffset:0;stroke-width:1.5;"/>
   </g>
   <g id="line2d_4">
    <path clip-path="url(#p0ffdae5d91)" d="M 134.975455 559.843554 
L 137.899145 563.70971 
L 143.746525 564.104983 
L 146.670215 565.893751 
L 149.593905 567.339157 
L 152.517595 566.189716 
L 155.441285 567.535534 
L 158.364975 567.589963 
L 161.288665 568.476249 
L 164.212356 568.687178 
L 167.136046 569.471602 
L 170.059736 587.403114 
L 172.983426 593.38482 
L 173.502757 596.44 
M 185.036518 596.44 
L 187.601876 519.218086 
L 190.095628 596.44 
M 202.118082 596.44 
L 202.220327 594.891685 
L 203.028566 596.44 
M 210.710201 596.44 
L 210.991397 587.416896 
L 213.915087 583.191321 
L 215.115003 596.44 
M 221.508508 596.44 
L 222.686158 589.658164 
L 225.609848 565.84387 
L 228.519242 596.44 
M 232.040533 596.44 
L 234.380918 510.802967 
L 238.32706 596.44 
M 243.298656 596.44 
L 246.075678 503.301313 
L 248.999369 511.438867 
L 251.923059 573.49954 
L 254.846749 565.576309 
L 257.770439 595.834568 
L 260.694129 543.689688 
L 262.052198 596.44 
M 265.65903 596.44 
L 266.541509 570.149059 
L 269.465199 557.872331 
L 272.388889 587.165425 
L 273.534729 596.44 
M 280.472437 596.44 
L 281.15996 593.440718 
L 284.08365 553.582709 
L 287.00734 576.458317 
L 288.245497 596.44 
M 291.505329 596.44 
L 292.85472 573.12452 
L 295.77841 541.392382 
L 298.485351 596.44 
M 302.638069 596.44 
L 304.549481 570.293316 
L 307.473171 543.576003 
L 310.396861 544.267451 
L 313.320551 532.486984 
L 316.244241 568.310024 
L 319.167931 556.586539 
L 322.091621 566.594189 
L 325.015311 502.585239 
L 327.939001 563.933617 
L 330.862691 594.933451 
L 333.786382 544.840947 
L 336.710072 558.876744 
L 338.769348 596.44 
M 342.957387 596.44 
L 345.481142 527.163215 
L 348.404832 472.342545 
L 351.328522 535.848869 
L 354.252212 524.578129 
L 357.175902 544.488629 
L 360.099592 464.381395 
L 363.023283 583.396514 
L 365.946973 495.28535 
L 368.870663 485.0851 
L 371.794353 503.444311 
L 374.718043 561.755662 
L 377.641733 576.230422 
L 379.55 596.44 
M 380.910585 596.44 
L 383.489113 516.103264 
L 386.412803 553.017258 
L 389.336494 582.054474 
L 392.260184 558.589839 
L 395.183874 575.605121 
L 398.107564 519.848319 
L 401.031254 489.6582 
L 403.954944 518.652111 
L 406.878634 529.713776 
L 409.802324 543.563445 
L 412.726014 549.091322 
L 415.534194 596.44 
M 415.778518 596.44 
L 418.573395 554.182474 
L 421.311302 596.44 
M 426.625516 596.44 
L 427.344465 580.72097 
L 430.268155 579.306417 
L 433.191845 557.539182 
L 436.115535 508.791971 
L 439.039225 574.773789 
L 440.585861 596.44 
M 443.024484 596.44 
L 444.886605 562.601896 
L 447.810296 489.210002 
L 450.733986 501.47795 
L 453.657676 551.153283 
L 456.581366 560.28745 
L 457.555672 596.44 
M 461.288085 596.44 
L 462.428746 550.165835 
L 465.352436 575.85131 
L 468.276126 533.031691 
L 471.199816 556.256539 
L 473.799013 596.44 
M 474.790136 596.44 
L 477.047197 579.454732 
L 479.970887 461.244081 
L 482.894577 570.907248 
L 485.59992 596.44 
M 488.999849 596.44 
L 491.665647 563.516411 
L 494.589337 553.164139 
L 496.106084 596.44 
M 498.749555 596.44 
L 500.436717 541.667499 
L 503.360408 467.981109 
L 507.678096 596.44 
M 516.480823 596.44 
L 517.978858 551.460372 
L 520.902548 586.196901 
L 523.826238 594.765162 
L 526.749928 562.507485 
L 529.007072 596.44 
M 533.935706 596.44 
L 535.520999 547.755509 
L 538.444689 528.845574 
L 541.368379 564.719301 
L 543.410428 596.44 
M 544.687474 596.44 
L 547.215759 508.870536 
L 550.139449 559.813192 
L 553.063139 463.289882 
L 555.986829 515.913953 
L 558.910519 532.602557 
L 561.83421 502.322785 
L 564.7579 498.282814 
L 567.68159 440.910394 
L 570.60528 524.958326 
L 573.52897 506.136785 
L 576.45266 480.18214 
L 579.37635 502.619659 
L 582.30004 477.832644 
L 585.22373 587.599316 
L 588.147421 511.567698 
L 591.071111 527.61652 
L 593.994801 580.680988 
L 596.918491 516.983394 
L 599.842181 581.682603 
L 602.765871 565.71364 
L 605.689561 576.000814 
L 608.261126 596.44 
M 616.36642 596.44 
L 617.384322 560.107198 
L 620.308012 550.302187 
L 623.231702 584.992752 
L 623.727464 596.44 
M 637.977683 596.44 
L 640.773842 544.270494 
L 643.697532 450.676858 
L 646.621223 522.317237 
L 649.544913 548.714063 
L 652.468603 594.728329 
L 655.392293 578.334605 
L 658.315983 494.566442 
L 661.239673 582.1407 
L 664.163363 511.230002 
L 667.087053 582.813119 
L 670.010743 595.636407 
L 672.934433 564.504874 
L 675.858124 573.414679 
L 678.781814 560.49544 
L 681.54688 596.44 
M 686.335713 596.44 
L 687.552884 568.35172 
L 688.363415 596.44 
M 701.083433 596.44 
L 702.171335 583.273979 
L 705.095025 584.803721 
L 708.018715 584.168695 
L 710.942405 587.126842 
L 713.866095 585.203541 
L 716.789785 586.314084 
L 719.713475 585.561841 
L 722.637165 582.326338 
L 725.560855 586.368862 
L 728.484545 582.677466 
L 728.484545 582.677466 
" style="fill:none;stroke:#c44e52;stroke-dasharray:4.5,1.875,2.25,1.875;stroke-dashoffset:0;stroke-width:1.5;"/>
   </g>
   <g id="line2d_5">
    <path clip-path="url(#p0ffdae5d91)" d="M 134.975455 562.433083 
L 137.899145 566.344468 
L 140.822835 566.517583 
L 143.746525 567.170308 
L 146.670215 568.588045 
L 149.593905 570.655533 
L 152.517595 569.976258 
L 155.441285 571.096 
L 158.364975 571.218814 
L 161.288665 572.805049 
L 164.212356 571.670265 
L 167.136046 571.813263 
L 170.059736 587.21849 
L 172.983426 593.132964 
L 173.641998 596.44 
M 185.208496 596.44 
L 187.601876 538.220158 
L 189.868465 596.44 
M 202.12604 596.44 
L 202.220327 594.650323 
L 203.3924 596.44 
M 210.813525 596.44 
L 210.991397 590.755134 
L 213.915087 573.809532 
L 215.475215 596.44 
M 221.156043 596.44 
L 225.609848 572.7417 
L 228.220953 596.44 
M 232.11997 596.44 
L 234.380918 514.414364 
L 237.304608 571.770168 
L 238.368612 596.44 
M 243.309644 596.44 
L 246.075678 499.485494 
L 248.999369 501.893931 
L 251.923059 580.449001 
L 254.846749 567.334154 
L 257.441709 596.44 
M 257.94698 596.44 
L 260.694129 539.064713 
L 262.138258 596.44 
M 265.605985 596.44 
L 266.541509 568.779875 
L 269.465199 556.303062 
L 272.388889 584.590833 
L 273.843309 596.44 
M 281.441312 596.44 
L 284.08365 560.882738 
L 287.00734 575.244304 
L 288.331497 596.44 
M 291.43932 596.44 
L 292.85472 572.413204 
L 295.77841 537.073131 
L 298.757308 596.44 
M 302.400335 596.44 
L 304.549481 567.129837 
L 307.473171 541.068468 
L 310.396861 557.702084 
L 313.320551 536.076938 
L 316.244241 565.857267 
L 319.167931 555.180032 
L 322.091621 569.105817 
L 325.015311 512.976199 
L 327.939001 553.400148 
L 330.862691 546.003784 
L 333.786382 567.484533 
L 336.710072 544.212078 
L 339.633762 591.659295 
L 341.485661 596.44 
M 342.732164 596.44 
L 345.481142 552.905637 
L 348.404832 488.242633 
L 351.328522 492.446799 
L 354.120329 596.44 
M 355.260302 596.44 
L 357.175902 587.10498 
L 360.099592 565.082287 
L 361.268807 596.44 
M 364.34699 596.44 
L 365.946973 539.565101 
L 368.870663 536.79616 
L 371.794353 517.697194 
L 375.25037 596.44 
M 382.514192 596.44 
L 383.489113 565.370312 
L 386.412803 545.785964 
L 389.336494 582.81039 
L 392.260184 572.934335 
L 395.183874 586.375229 
L 398.107564 503.396808 
L 401.031254 497.477576 
L 403.954944 527.045787 
L 406.878634 551.330526 
L 409.802324 561.146766 
L 412.726014 540.057653 
L 414.661354 596.44 
M 417.019782 596.44 
L 418.573395 563.789184 
L 420.550331 596.44 
M 427.129768 596.44 
L 427.344465 591.513744 
L 430.268155 583.09023 
L 433.191845 562.262521 
L 436.115535 511.003681 
L 439.039225 571.542868 
L 440.724065 596.44 
M 443.10488 596.44 
L 444.886605 567.877428 
L 447.810296 489.195975 
L 450.733986 495.951647 
L 453.657676 532.540048 
L 456.581366 548.752961 
L 458.082115 596.44 
M 460.754411 596.44 
L 462.428746 535.845161 
L 465.352436 566.053015 
L 468.276126 536.234208 
L 471.199816 561.15726 
L 473.472519 596.44 
M 474.74021 596.44 
L 477.047197 558.634019 
L 479.970887 460.987854 
L 482.894577 574.525151 
L 485.678336 596.44 
M 485.863684 596.44 
L 488.741957 526.627148 
L 491.665647 579.732017 
L 494.589337 494.073331 
L 497.513027 559.574804 
L 500.436717 541.932611 
L 503.360408 526.894044 
L 506.284098 581.466637 
L 509.207788 517.358868 
L 512.131478 544.102521 
L 515.055168 492.905666 
L 517.978858 503.660522 
L 520.902548 526.852663 
L 523.826238 527.402478 
L 526.749928 570.935722 
L 532.597309 485.703335 
L 535.520999 520.941162 
L 538.444689 483.205384 
L 541.368379 448.418239 
L 544.292069 427.482792 
L 547.215759 459.717278 
L 550.139449 468.16318 
L 553.063139 421.531099 
L 555.986829 438.295925 
L 558.910519 431.775913 
L 561.83421 430.985542 
L 564.7579 450.512172 
L 567.68159 441.949718 
L 570.60528 491.459701 
L 573.52897 502.894811 
L 576.45266 493.605754 
L 579.37635 502.476102 
L 582.30004 461.076982 
L 585.22373 562.926685 
L 588.147421 499.711569 
L 591.071111 515.139043 
L 593.994801 560.323024 
L 596.918491 511.780026 
L 599.842181 560.951823 
L 602.765871 555.777174 
L 605.689561 571.886826 
L 608.613251 583.719833 
L 609.591535 596.44 
M 615.920218 596.44 
L 617.384322 543.842865 
L 620.308012 546.035581 
L 623.231702 576.042126 
L 624.153225 596.44 
M 634.231485 596.44 
L 634.926462 591.32027 
L 637.850152 590.429261 
L 640.773842 526.576182 
L 643.697532 443.044939 
L 646.621223 509.927629 
L 649.544913 536.14235 
L 652.468603 583.336838 
L 655.392293 564.63304 
L 658.315983 492.860577 
L 661.239673 567.609376 
L 664.163363 504.056704 
L 667.087053 574.350951 
L 670.010743 589.714062 
L 672.934433 564.454328 
L 675.858124 566.866858 
L 678.781814 543.271363 
L 681.928566 596.44 
M 685.929547 596.44 
L 687.552884 560.240297 
L 688.672293 596.44 
M 700.627979 596.44 
L 702.171335 576.946112 
L 705.095025 581.286805 
L 708.018715 579.946619 
L 710.942405 582.273204 
L 713.866095 580.394502 
L 716.789785 581.421338 
L 719.713475 581.559613 
L 722.637165 576.756765 
L 725.560855 581.849422 
L 728.484545 577.990892 
L 728.484545 577.990892 
" style="fill:none;stroke:#8172b3;stroke-dasharray:7.5,1.5,1.5,1.5;stroke-dashoffset:0;stroke-width:1.5;"/>
   </g>
   <g id="line2d_6"/>
   <g id="line2d_7"/>
   <g id="line2d_8"/>
   <g id="line2d_9"/>
   <g id="line2d_10"/>
   <g id="patch_3">
    <path d="M 105.3 529.9416 
L 105.3 71.4528 
" style="fill:none;stroke:#262626;stroke-linecap:square;stroke-linejoin:miter;stroke-width:1.25;"/>
   </g>
   <g id="patch_4">
    <path d="M 758.16 529.9416 
L 758.16 71.4528 
" style="fill:none;stroke:#262626;stroke-linecap:square;stroke-linejoin:miter;stroke-width:1.25;"/>
   </g>
   <g id="patch_5">
    <path d="M 105.3 529.9416 
L 758.16 529.9416 
" style="fill:none;stroke:#262626;stroke-linecap:square;stroke-linejoin:miter;stroke-width:1.25;"/>
   </g>
   <g id="patch_6">
    <path d="M 105.3 71.4528 
L 758.16 71.4528 
" style="fill:none;stroke:#262626;stroke-linecap:square;stroke-linejoin:miter;stroke-width:1.25;"/>
   </g>
   <g id="text_16">
    <!-- Activations for &gt;5&lt; -->
    <g style="fill:#262626;" transform="translate(382.037813 65.4528)scale(0.12 -0.12)">
     <defs>
      <path d="M -9 0 
L 1750 4581 
L 2403 4581 
L 4278 0 
L 3588 0 
L 3053 1388 
L 1138 1388 
L 634 0 
L -9 0 
z
M 1313 1881 
L 2866 1881 
L 2388 3150 
Q 2169 3728 2063 4100 
Q 1975 3659 1816 3225 
L 1313 1881 
z
" id="ArialMT-41" transform="scale(0.015625)"/>
      <path d="M 2588 1216 
L 3141 1144 
Q 3050 572 2676 248 
Q 2303 -75 1759 -75 
Q 1078 -75 664 370 
Q 250 816 250 1647 
Q 250 2184 428 2587 
Q 606 2991 970 3192 
Q 1334 3394 1763 3394 
Q 2303 3394 2647 3120 
Q 2991 2847 3088 2344 
L 2541 2259 
Q 2463 2594 2264 2762 
Q 2066 2931 1784 2931 
Q 1359 2931 1093 2626 
Q 828 2322 828 1663 
Q 828 994 1084 691 
Q 1341 388 1753 388 
Q 2084 388 2306 591 
Q 2528 794 2588 1216 
z
" id="ArialMT-63" transform="scale(0.015625)"/>
      <path d="M 1650 503 
L 1731 6 
Q 1494 -44 1306 -44 
Q 1000 -44 831 53 
Q 663 150 594 308 
Q 525 466 525 972 
L 525 2881 
L 113 2881 
L 113 3319 
L 525 3319 
L 525 4141 
L 1084 4478 
L 1084 3319 
L 1650 3319 
L 1650 2881 
L 1084 2881 
L 1084 941 
Q 1084 700 1114 631 
Q 1144 563 1211 522 
Q 1278 481 1403 481 
Q 1497 481 1650 503 
z
" id="ArialMT-74" transform="scale(0.015625)"/>
      <path d="M 425 3934 
L 425 4581 
L 988 4581 
L 988 3934 
L 425 3934 
z
M 425 0 
L 425 3319 
L 988 3319 
L 988 0 
L 425 0 
z
" id="ArialMT-69" transform="scale(0.015625)"/>
      <path d="M 1344 0 
L 81 3319 
L 675 3319 
L 1388 1331 
Q 1503 1009 1600 663 
Q 1675 925 1809 1294 
L 2547 3319 
L 3125 3319 
L 1869 0 
L 1344 0 
z
" id="ArialMT-76" transform="scale(0.015625)"/>
      <path d="M 2588 409 
Q 2275 144 1986 34 
Q 1697 -75 1366 -75 
Q 819 -75 525 192 
Q 231 459 231 875 
Q 231 1119 342 1320 
Q 453 1522 633 1644 
Q 813 1766 1038 1828 
Q 1203 1872 1538 1913 
Q 2219 1994 2541 2106 
Q 2544 2222 2544 2253 
Q 2544 2597 2384 2738 
Q 2169 2928 1744 2928 
Q 1347 2928 1158 2789 
Q 969 2650 878 2297 
L 328 2372 
Q 403 2725 575 2942 
Q 747 3159 1072 3276 
Q 1397 3394 1825 3394 
Q 2250 3394 2515 3294 
Q 2781 3194 2906 3042 
Q 3031 2891 3081 2659 
Q 3109 2516 3109 2141 
L 3109 1391 
Q 3109 606 3145 398 
Q 3181 191 3288 0 
L 2700 0 
Q 2613 175 2588 409 
z
M 2541 1666 
Q 2234 1541 1622 1453 
Q 1275 1403 1131 1340 
Q 988 1278 909 1158 
Q 831 1038 831 891 
Q 831 666 1001 516 
Q 1172 366 1500 366 
Q 1825 366 2078 508 
Q 2331 650 2450 897 
Q 2541 1088 2541 1459 
L 2541 1666 
z
" id="ArialMT-61" transform="scale(0.015625)"/>
      <path d="M 213 1659 
Q 213 2581 725 3025 
Q 1153 3394 1769 3394 
Q 2453 3394 2887 2945 
Q 3322 2497 3322 1706 
Q 3322 1066 3130 698 
Q 2938 331 2570 128 
Q 2203 -75 1769 -75 
Q 1072 -75 642 372 
Q 213 819 213 1659 
z
M 791 1659 
Q 791 1022 1069 705 
Q 1347 388 1769 388 
Q 2188 388 2466 706 
Q 2744 1025 2744 1678 
Q 2744 2294 2464 2611 
Q 2184 2928 1769 2928 
Q 1347 2928 1069 2612 
Q 791 2297 791 1659 
z
" id="ArialMT-6f" transform="scale(0.015625)"/>
      <path d="M 422 0 
L 422 3319 
L 928 3319 
L 928 2847 
Q 1294 3394 1984 3394 
Q 2284 3394 2536 3286 
Q 2788 3178 2913 3003 
Q 3038 2828 3088 2588 
Q 3119 2431 3119 2041 
L 3119 0 
L 2556 0 
L 2556 2019 
Q 2556 2363 2490 2533 
Q 2425 2703 2258 2804 
Q 2091 2906 1866 2906 
Q 1506 2906 1245 2678 
Q 984 2450 984 1813 
L 984 0 
L 422 0 
z
" id="ArialMT-6e" transform="scale(0.015625)"/>
      <path d="M 197 991 
L 753 1078 
Q 800 744 1014 566 
Q 1228 388 1613 388 
Q 2000 388 2187 545 
Q 2375 703 2375 916 
Q 2375 1106 2209 1216 
Q 2094 1291 1634 1406 
Q 1016 1563 777 1677 
Q 538 1791 414 1992 
Q 291 2194 291 2438 
Q 291 2659 392 2848 
Q 494 3038 669 3163 
Q 800 3259 1026 3326 
Q 1253 3394 1513 3394 
Q 1903 3394 2198 3281 
Q 2494 3169 2634 2976 
Q 2775 2784 2828 2463 
L 2278 2388 
Q 2241 2644 2061 2787 
Q 1881 2931 1553 2931 
Q 1166 2931 1000 2803 
Q 834 2675 834 2503 
Q 834 2394 903 2306 
Q 972 2216 1119 2156 
Q 1203 2125 1616 2013 
Q 2213 1853 2448 1751 
Q 2684 1650 2818 1456 
Q 2953 1263 2953 975 
Q 2953 694 2789 445 
Q 2625 197 2315 61 
Q 2006 -75 1616 -75 
Q 969 -75 630 194 
Q 291 463 197 991 
z
" id="ArialMT-73" transform="scale(0.015625)"/>
      <path id="ArialMT-20" transform="scale(0.015625)"/>
      <path d="M 556 0 
L 556 2881 
L 59 2881 
L 59 3319 
L 556 3319 
L 556 3672 
Q 556 4006 616 4169 
Q 697 4388 901 4523 
Q 1106 4659 1475 4659 
Q 1713 4659 2000 4603 
L 1916 4113 
Q 1741 4144 1584 4144 
Q 1328 4144 1222 4034 
Q 1116 3925 1116 3625 
L 1116 3319 
L 1763 3319 
L 1763 2881 
L 1116 2881 
L 1116 0 
L 556 0 
z
" id="ArialMT-66" transform="scale(0.015625)"/>
      <path d="M 416 0 
L 416 3319 
L 922 3319 
L 922 2816 
Q 1116 3169 1280 3281 
Q 1444 3394 1641 3394 
Q 1925 3394 2219 3213 
L 2025 2691 
Q 1819 2813 1613 2813 
Q 1428 2813 1281 2702 
Q 1134 2591 1072 2394 
Q 978 2094 978 1738 
L 978 0 
L 416 0 
z
" id="ArialMT-72" transform="scale(0.015625)"/>
      <path d="M 3384 2003 
L 350 706 
L 350 1266 
L 2753 2263 
L 350 3250 
L 350 3809 
L 3384 2528 
L 3384 2003 
z
" id="ArialMT-3e" transform="scale(0.015625)"/>
      <path d="M 350 2003 
L 350 2528 
L 3384 3809 
L 3384 3250 
L 978 2263 
L 3384 1266 
L 3384 706 
L 350 2003 
z
" id="ArialMT-3c" transform="scale(0.015625)"/>
     </defs>
     <use xlink:href="#ArialMT-41"/>
     <use x="66.699219" xlink:href="#ArialMT-63"/>
     <use x="116.699219" xlink:href="#ArialMT-74"/>
     <use x="144.482422" xlink:href="#ArialMT-69"/>
     <use x="166.699219" xlink:href="#ArialMT-76"/>
     <use x="216.699219" xlink:href="#ArialMT-61"/>
     <use x="272.314453" xlink:href="#ArialMT-74"/>
     <use x="300.097656" xlink:href="#ArialMT-69"/>
     <use x="322.314453" xlink:href="#ArialMT-6f"/>
     <use x="377.929688" xlink:href="#ArialMT-6e"/>
     <use x="433.544922" xlink:href="#ArialMT-73"/>
     <use x="483.544922" xlink:href="#ArialMT-20"/>
     <use x="511.328125" xlink:href="#ArialMT-66"/>
     <use x="539.111328" xlink:href="#ArialMT-6f"/>
     <use x="594.726562" xlink:href="#ArialMT-72"/>
     <use x="628.027344" xlink:href="#ArialMT-20"/>
     <use x="655.810547" xlink:href="#ArialMT-3e"/>
     <use x="714.208984" xlink:href="#ArialMT-35"/>
     <use x="769.824219" xlink:href="#ArialMT-3c"/>
    </g>
   </g>
   <g id="legend_1">
    <g id="patch_7">
     <path d="M 640.044062 158.514363 
L 750.46 158.514363 
Q 752.66 158.514363 752.66 156.314363 
L 752.66 79.1528 
Q 752.66 76.9528 750.46 76.9528 
L 640.044062 76.9528 
Q 637.844062 76.9528 637.844062 79.1528 
L 637.844062 156.314363 
Q 637.844062 158.514363 640.044062 158.514363 
z
" style="fill:#ffffff;opacity:0.8;stroke:#cccccc;stroke-linejoin:miter;"/>
    </g>
    <g id="line2d_11">
     <path d="M 642.244062 85.376394 
L 664.244062 85.376394 
" style="fill:none;stroke:#4c72b0;stroke-linecap:round;stroke-width:1.5;"/>
    </g>
    <g id="line2d_12"/>
    <g id="text_17">
     <!-- regular -->
     <g style="fill:#262626;" transform="translate(673.044062 89.226394)scale(0.11 -0.11)">
      <defs>
       <path d="M 2694 1069 
L 3275 997 
Q 3138 488 2766 206 
Q 2394 -75 1816 -75 
Q 1088 -75 661 373 
Q 234 822 234 1631 
Q 234 2469 665 2931 
Q 1097 3394 1784 3394 
Q 2450 3394 2872 2941 
Q 3294 2488 3294 1666 
Q 3294 1616 3291 1516 
L 816 1516 
Q 847 969 1125 678 
Q 1403 388 1819 388 
Q 2128 388 2347 550 
Q 2566 713 2694 1069 
z
M 847 1978 
L 2700 1978 
Q 2663 2397 2488 2606 
Q 2219 2931 1791 2931 
Q 1403 2931 1139 2672 
Q 875 2413 847 1978 
z
" id="ArialMT-65" transform="scale(0.015625)"/>
       <path d="M 319 -275 
L 866 -356 
Q 900 -609 1056 -725 
Q 1266 -881 1628 -881 
Q 2019 -881 2231 -725 
Q 2444 -569 2519 -288 
Q 2563 -116 2559 434 
Q 2191 0 1641 0 
Q 956 0 581 494 
Q 206 988 206 1678 
Q 206 2153 378 2554 
Q 550 2956 876 3175 
Q 1203 3394 1644 3394 
Q 2231 3394 2613 2919 
L 2613 3319 
L 3131 3319 
L 3131 450 
Q 3131 -325 2973 -648 
Q 2816 -972 2473 -1159 
Q 2131 -1347 1631 -1347 
Q 1038 -1347 672 -1080 
Q 306 -813 319 -275 
z
M 784 1719 
Q 784 1066 1043 766 
Q 1303 466 1694 466 
Q 2081 466 2343 764 
Q 2606 1063 2606 1700 
Q 2606 2309 2336 2618 
Q 2066 2928 1684 2928 
Q 1309 2928 1046 2623 
Q 784 2319 784 1719 
z
" id="ArialMT-67" transform="scale(0.015625)"/>
       <path d="M 2597 0 
L 2597 488 
Q 2209 -75 1544 -75 
Q 1250 -75 995 37 
Q 741 150 617 320 
Q 494 491 444 738 
Q 409 903 409 1263 
L 409 3319 
L 972 3319 
L 972 1478 
Q 972 1038 1006 884 
Q 1059 663 1231 536 
Q 1403 409 1656 409 
Q 1909 409 2131 539 
Q 2353 669 2445 892 
Q 2538 1116 2538 1541 
L 2538 3319 
L 3100 3319 
L 3100 0 
L 2597 0 
z
" id="ArialMT-75" transform="scale(0.015625)"/>
       <path d="M 409 0 
L 409 4581 
L 972 4581 
L 972 0 
L 409 0 
z
" id="ArialMT-6c" transform="scale(0.015625)"/>
      </defs>
      <use xlink:href="#ArialMT-72"/>
      <use x="33.300781" xlink:href="#ArialMT-65"/>
      <use x="88.916016" xlink:href="#ArialMT-67"/>
      <use x="144.53125" xlink:href="#ArialMT-75"/>
      <use x="200.146484" xlink:href="#ArialMT-6c"/>
      <use x="222.363281" xlink:href="#ArialMT-61"/>
      <use x="277.978516" xlink:href="#ArialMT-72"/>
     </g>
    </g>
    <g id="line2d_13">
     <path d="M 642.244062 101.0978 
L 664.244062 101.0978 
" style="fill:none;stroke:#dd8452;stroke-dasharray:6,2.25;stroke-dashoffset:0;stroke-width:1.5;"/>
    </g>
    <g id="line2d_14"/>
    <g id="text_18">
     <!-- splitted_3s -->
     <g style="fill:#262626;" transform="translate(673.044062 104.9478)scale(0.11 -0.11)">
      <defs>
       <path d="M 422 -1272 
L 422 3319 
L 934 3319 
L 934 2888 
Q 1116 3141 1344 3267 
Q 1572 3394 1897 3394 
Q 2322 3394 2647 3175 
Q 2972 2956 3137 2557 
Q 3303 2159 3303 1684 
Q 3303 1175 3120 767 
Q 2938 359 2589 142 
Q 2241 -75 1856 -75 
Q 1575 -75 1351 44 
Q 1128 163 984 344 
L 984 -1272 
L 422 -1272 
z
M 931 1641 
Q 931 1000 1190 694 
Q 1450 388 1819 388 
Q 2194 388 2461 705 
Q 2728 1022 2728 1688 
Q 2728 2322 2467 2637 
Q 2206 2953 1844 2953 
Q 1484 2953 1207 2617 
Q 931 2281 931 1641 
z
" id="ArialMT-70" transform="scale(0.015625)"/>
       <path d="M 2575 0 
L 2575 419 
Q 2259 -75 1647 -75 
Q 1250 -75 917 144 
Q 584 363 401 755 
Q 219 1147 219 1656 
Q 219 2153 384 2558 
Q 550 2963 881 3178 
Q 1213 3394 1622 3394 
Q 1922 3394 2156 3267 
Q 2391 3141 2538 2938 
L 2538 4581 
L 3097 4581 
L 3097 0 
L 2575 0 
z
M 797 1656 
Q 797 1019 1065 703 
Q 1334 388 1700 388 
Q 2069 388 2326 689 
Q 2584 991 2584 1609 
Q 2584 2291 2321 2609 
Q 2059 2928 1675 2928 
Q 1300 2928 1048 2622 
Q 797 2316 797 1656 
z
" id="ArialMT-64" transform="scale(0.015625)"/>
       <path d="M -97 -1272 
L -97 -866 
L 3631 -866 
L 3631 -1272 
L -97 -1272 
z
" id="ArialMT-5f" transform="scale(0.015625)"/>
       <path d="M 269 1209 
L 831 1284 
Q 928 806 1161 595 
Q 1394 384 1728 384 
Q 2125 384 2398 659 
Q 2672 934 2672 1341 
Q 2672 1728 2419 1979 
Q 2166 2231 1775 2231 
Q 1616 2231 1378 2169 
L 1441 2663 
Q 1497 2656 1531 2656 
Q 1891 2656 2178 2843 
Q 2466 3031 2466 3422 
Q 2466 3731 2256 3934 
Q 2047 4138 1716 4138 
Q 1388 4138 1169 3931 
Q 950 3725 888 3313 
L 325 3413 
Q 428 3978 793 4289 
Q 1159 4600 1703 4600 
Q 2078 4600 2393 4439 
Q 2709 4278 2876 4000 
Q 3044 3722 3044 3409 
Q 3044 3113 2884 2869 
Q 2725 2625 2413 2481 
Q 2819 2388 3044 2092 
Q 3269 1797 3269 1353 
Q 3269 753 2831 336 
Q 2394 -81 1725 -81 
Q 1122 -81 723 278 
Q 325 638 269 1209 
z
" id="ArialMT-33" transform="scale(0.015625)"/>
      </defs>
      <use xlink:href="#ArialMT-73"/>
      <use x="50" xlink:href="#ArialMT-70"/>
      <use x="105.615234" xlink:href="#ArialMT-6c"/>
      <use x="127.832031" xlink:href="#ArialMT-69"/>
      <use x="150.048828" xlink:href="#ArialMT-74"/>
      <use x="177.832031" xlink:href="#ArialMT-74"/>
      <use x="205.615234" xlink:href="#ArialMT-65"/>
      <use x="261.230469" xlink:href="#ArialMT-64"/>
      <use x="316.845703" xlink:href="#ArialMT-5f"/>
      <use x="372.460938" xlink:href="#ArialMT-33"/>
      <use x="428.076172" xlink:href="#ArialMT-73"/>
     </g>
    </g>
    <g id="line2d_15">
     <path d="M 642.244062 116.6903 
L 664.244062 116.6903 
" style="fill:none;stroke:#55a868;stroke-dasharray:1.5,1.5;stroke-dashoffset:0;stroke-width:1.5;"/>
    </g>
    <g id="line2d_16"/>
    <g id="text_19">
     <!-- splitted_1s -->
     <g style="fill:#262626;" transform="translate(673.044062 120.5403)scale(0.11 -0.11)">
      <use xlink:href="#ArialMT-73"/>
      <use x="50" xlink:href="#ArialMT-70"/>
      <use x="105.615234" xlink:href="#ArialMT-6c"/>
      <use x="127.832031" xlink:href="#ArialMT-69"/>
      <use x="150.048828" xlink:href="#ArialMT-74"/>
      <use x="177.832031" xlink:href="#ArialMT-74"/>
      <use x="205.615234" xlink:href="#ArialMT-65"/>
      <use x="261.230469" xlink:href="#ArialMT-64"/>
      <use x="316.845703" xlink:href="#ArialMT-5f"/>
      <use x="372.460938" xlink:href="#ArialMT-31"/>
      <use x="428.076172" xlink:href="#ArialMT-73"/>
     </g>
    </g>
    <g id="line2d_17">
     <path d="M 642.244062 132.384206 
L 664.244062 132.384206 
" style="fill:none;stroke:#c44e52;stroke-dasharray:4.5,1.875,2.25,1.875;stroke-dashoffset:0;stroke-width:1.5;"/>
    </g>
    <g id="line2d_18"/>
    <g id="text_20">
     <!-- overlap_1f_3s -->
     <g style="fill:#262626;" transform="translate(673.044062 136.234206)scale(0.11 -0.11)">
      <use xlink:href="#ArialMT-6f"/>
      <use x="55.615234" xlink:href="#ArialMT-76"/>
      <use x="105.615234" xlink:href="#ArialMT-65"/>
      <use x="161.230469" xlink:href="#ArialMT-72"/>
      <use x="194.53125" xlink:href="#ArialMT-6c"/>
      <use x="216.748047" xlink:href="#ArialMT-61"/>
      <use x="272.363281" xlink:href="#ArialMT-70"/>
      <use x="327.978516" xlink:href="#ArialMT-5f"/>
      <use x="383.59375" xlink:href="#ArialMT-31"/>
      <use x="439.208984" xlink:href="#ArialMT-66"/>
      <use x="466.992188" xlink:href="#ArialMT-5f"/>
      <use x="522.607422" xlink:href="#ArialMT-33"/>
      <use x="578.222656" xlink:href="#ArialMT-73"/>
     </g>
    </g>
    <g id="line2d_19">
     <path d="M 642.244062 148.078113 
L 664.244062 148.078113 
" style="fill:none;stroke:#8172b3;stroke-dasharray:7.5,1.5,1.5,1.5;stroke-dashoffset:0;stroke-width:1.5;"/>
    </g>
    <g id="line2d_20"/>
    <g id="text_21">
     <!-- overlap_10f_3s -->
     <g style="fill:#262626;" transform="translate(673.044062 151.928112)scale(0.11 -0.11)">
      <use xlink:href="#ArialMT-6f"/>
      <use x="55.615234" xlink:href="#ArialMT-76"/>
      <use x="105.615234" xlink:href="#ArialMT-65"/>
      <use x="161.230469" xlink:href="#ArialMT-72"/>
      <use x="194.53125" xlink:href="#ArialMT-6c"/>
      <use x="216.748047" xlink:href="#ArialMT-61"/>
      <use x="272.363281" xlink:href="#ArialMT-70"/>
      <use x="327.978516" xlink:href="#ArialMT-5f"/>
      <use x="383.59375" xlink:href="#ArialMT-31"/>
      <use x="439.208984" xlink:href="#ArialMT-30"/>
      <use x="494.824219" xlink:href="#ArialMT-66"/>
      <use x="522.607422" xlink:href="#ArialMT-5f"/>
      <use x="578.222656" xlink:href="#ArialMT-33"/>
      <use x="633.837891" xlink:href="#ArialMT-73"/>
     </g>
    </g>
   </g>
  </g>
 </g>
 <defs>
  <clipPath id="p0ffdae5d91">
   <rect height="458.4888" width="652.86" x="105.3" y="71.4528"/>
  </clipPath>
 </defs>
</svg>
