<?xml version="1.0" encoding="utf-8" standalone="no"?>
<!DOCTYPE svg PUBLIC "-//W3C//DTD SVG 1.1//EN"
  "http://www.w3.org/Graphics/SVG/1.1/DTD/svg11.dtd">
<svg height="595.44pt" version="1.1" viewBox="0 0 842.4 595.44" width="842.4pt" xmlns="http://www.w3.org/2000/svg" xmlns:xlink="http://www.w3.org/1999/xlink">
 <metadata>
  <rdf:RDF xmlns:cc="http://creativecommons.org/ns#" xmlns:dc="http://purl.org/dc/elements/1.1/" xmlns:rdf="http://www.w3.org/1999/02/22-rdf-syntax-ns#">
   <cc:Work>
    <dc:type rdf:resource="http://purl.org/dc/dcmitype/StillImage"/>
    <dc:date>2021-06-01T00:54:13.573409</dc:date>
    <dc:format>image/svg+xml</dc:format>
    <dc:creator>
     <cc:Agent>
      <dc:title>Matplotlib v3.4.1, https://matplotlib.org/</dc:title>
     </cc:Agent>
    </dc:creator>
   </cc:Work>
  </rdf:RDF>
 </metadata>
 <defs>
  <style type="text/css">*{stroke-linecap:butt;stroke-linejoin:round;}</style>
 </defs>
 <g id="figure_1">
  <g id="patch_1">
   <path d="M 0 595.44 
L 842.4 595.44 
L 842.4 0 
L 0 0 
z
" style="fill:#ffffff;"/>
  </g>
  <g id="axes_1">
   <g id="patch_2">
    <path d="M 105.3 529.9416 
L 758.16 529.9416 
L 758.16 71.4528 
L 105.3 71.4528 
z
" style="fill:#ffffff;"/>
   </g>
   <g id="matplotlib.axis_1">
    <g id="xtick_1">
     <g id="text_1">
      <!-- 0 -->
      <g style="fill:#262626;" transform="translate(131.916939 547.315194)scale(0.11 -0.11)">
       <defs>
        <path d="M 266 2259 
Q 266 3072 433 3567 
Q 600 4063 929 4331 
Q 1259 4600 1759 4600 
Q 2128 4600 2406 4451 
Q 2684 4303 2865 4023 
Q 3047 3744 3150 3342 
Q 3253 2941 3253 2259 
Q 3253 1453 3087 958 
Q 2922 463 2592 192 
Q 2263 -78 1759 -78 
Q 1097 -78 719 397 
Q 266 969 266 2259 
z
M 844 2259 
Q 844 1131 1108 757 
Q 1372 384 1759 384 
Q 2147 384 2411 759 
Q 2675 1134 2675 2259 
Q 2675 3391 2411 3762 
Q 2147 4134 1753 4134 
Q 1366 4134 1134 3806 
Q 844 3388 844 2259 
z
" id="ArialMT-30" transform="scale(0.015625)"/>
       </defs>
       <use xlink:href="#ArialMT-30"/>
      </g>
     </g>
    </g>
    <g id="xtick_2">
     <g id="text_2">
      <!-- 25 -->
      <g style="fill:#262626;" transform="translate(201.950676 547.315194)scale(0.11 -0.11)">
       <defs>
        <path d="M 3222 541 
L 3222 0 
L 194 0 
Q 188 203 259 391 
Q 375 700 629 1000 
Q 884 1300 1366 1694 
Q 2113 2306 2375 2664 
Q 2638 3022 2638 3341 
Q 2638 3675 2398 3904 
Q 2159 4134 1775 4134 
Q 1369 4134 1125 3890 
Q 881 3647 878 3216 
L 300 3275 
Q 359 3922 746 4261 
Q 1134 4600 1788 4600 
Q 2447 4600 2831 4234 
Q 3216 3869 3216 3328 
Q 3216 3053 3103 2787 
Q 2991 2522 2730 2228 
Q 2469 1934 1863 1422 
Q 1356 997 1212 845 
Q 1069 694 975 541 
L 3222 541 
z
" id="ArialMT-32" transform="scale(0.015625)"/>
        <path d="M 266 1200 
L 856 1250 
Q 922 819 1161 601 
Q 1400 384 1738 384 
Q 2144 384 2425 690 
Q 2706 997 2706 1503 
Q 2706 1984 2436 2262 
Q 2166 2541 1728 2541 
Q 1456 2541 1237 2417 
Q 1019 2294 894 2097 
L 366 2166 
L 809 4519 
L 3088 4519 
L 3088 3981 
L 1259 3981 
L 1013 2750 
Q 1425 3038 1878 3038 
Q 2478 3038 2890 2622 
Q 3303 2206 3303 1553 
Q 3303 931 2941 478 
Q 2500 -78 1738 -78 
Q 1113 -78 717 272 
Q 322 622 266 1200 
z
" id="ArialMT-35" transform="scale(0.015625)"/>
       </defs>
       <use xlink:href="#ArialMT-32"/>
       <use x="55.615234" xlink:href="#ArialMT-35"/>
      </g>
     </g>
    </g>
    <g id="xtick_3">
     <g id="text_3">
      <!-- 50 -->
      <g style="fill:#262626;" transform="translate(275.042928 547.315194)scale(0.11 -0.11)">
       <use xlink:href="#ArialMT-35"/>
       <use x="55.615234" xlink:href="#ArialMT-30"/>
      </g>
     </g>
    </g>
    <g id="xtick_4">
     <g id="text_4">
      <!-- 75 -->
      <g style="fill:#262626;" transform="translate(348.135181 547.315194)scale(0.11 -0.11)">
       <defs>
        <path d="M 303 3981 
L 303 4522 
L 3269 4522 
L 3269 4084 
Q 2831 3619 2401 2847 
Q 1972 2075 1738 1259 
Q 1569 684 1522 0 
L 944 0 
Q 953 541 1156 1306 
Q 1359 2072 1739 2783 
Q 2119 3494 2547 3981 
L 303 3981 
z
" id="ArialMT-37" transform="scale(0.015625)"/>
       </defs>
       <use xlink:href="#ArialMT-37"/>
       <use x="55.615234" xlink:href="#ArialMT-35"/>
      </g>
     </g>
    </g>
    <g id="xtick_5">
     <g id="text_5">
      <!-- 100 -->
      <g style="fill:#262626;" transform="translate(418.168918 547.315194)scale(0.11 -0.11)">
       <defs>
        <path d="M 2384 0 
L 1822 0 
L 1822 3584 
Q 1619 3391 1289 3197 
Q 959 3003 697 2906 
L 697 3450 
Q 1169 3672 1522 3987 
Q 1875 4303 2022 4600 
L 2384 4600 
L 2384 0 
z
" id="ArialMT-31" transform="scale(0.015625)"/>
       </defs>
       <use xlink:href="#ArialMT-31"/>
       <use x="55.615234" xlink:href="#ArialMT-30"/>
       <use x="111.230469" xlink:href="#ArialMT-30"/>
      </g>
     </g>
    </g>
    <g id="xtick_6">
     <g id="text_6">
      <!-- 125 -->
      <g style="fill:#262626;" transform="translate(491.261171 547.315194)scale(0.11 -0.11)">
       <use xlink:href="#ArialMT-31"/>
       <use x="55.615234" xlink:href="#ArialMT-32"/>
       <use x="111.230469" xlink:href="#ArialMT-35"/>
      </g>
     </g>
    </g>
    <g id="xtick_7">
     <g id="text_7">
      <!-- 150 -->
      <g style="fill:#262626;" transform="translate(564.353423 547.315194)scale(0.11 -0.11)">
       <use xlink:href="#ArialMT-31"/>
       <use x="55.615234" xlink:href="#ArialMT-35"/>
       <use x="111.230469" xlink:href="#ArialMT-30"/>
      </g>
     </g>
    </g>
    <g id="xtick_8">
     <g id="text_8">
      <!-- 175 -->
      <g style="fill:#262626;" transform="translate(637.445676 547.315194)scale(0.11 -0.11)">
       <use xlink:href="#ArialMT-31"/>
       <use x="55.615234" xlink:href="#ArialMT-37"/>
       <use x="111.230469" xlink:href="#ArialMT-35"/>
      </g>
     </g>
    </g>
    <g id="xtick_9">
     <g id="text_9">
      <!-- 200 -->
      <g style="fill:#262626;" transform="translate(710.537928 547.315194)scale(0.11 -0.11)">
       <use xlink:href="#ArialMT-32"/>
       <use x="55.615234" xlink:href="#ArialMT-30"/>
       <use x="111.230469" xlink:href="#ArialMT-30"/>
      </g>
     </g>
    </g>
   </g>
   <g id="matplotlib.axis_2">
    <g id="ytick_1">
     <g id="text_10">
      <!-- −25 -->
      <g style="fill:#262626;" transform="translate(77.14125 533.878397)scale(0.11 -0.11)">
       <defs>
        <path d="M 3381 1997 
L 356 1997 
L 356 2522 
L 3381 2522 
L 3381 1997 
z
" id="ArialMT-2212" transform="scale(0.015625)"/>
       </defs>
       <use xlink:href="#ArialMT-2212"/>
       <use x="58.398438" xlink:href="#ArialMT-32"/>
       <use x="114.013672" xlink:href="#ArialMT-35"/>
      </g>
     </g>
    </g>
    <g id="ytick_2">
     <g id="text_11">
      <!-- −20 -->
      <g style="fill:#262626;" transform="translate(77.14125 442.180637)scale(0.11 -0.11)">
       <use xlink:href="#ArialMT-2212"/>
       <use x="58.398438" xlink:href="#ArialMT-32"/>
       <use x="114.013672" xlink:href="#ArialMT-30"/>
      </g>
     </g>
    </g>
    <g id="ytick_3">
     <g id="text_12">
      <!-- −15 -->
      <g style="fill:#262626;" transform="translate(77.14125 350.482877)scale(0.11 -0.11)">
       <use xlink:href="#ArialMT-2212"/>
       <use x="58.398438" xlink:href="#ArialMT-31"/>
       <use x="114.013672" xlink:href="#ArialMT-35"/>
      </g>
     </g>
    </g>
    <g id="ytick_4">
     <g id="text_13">
      <!-- −10 -->
      <g style="fill:#262626;" transform="translate(77.14125 258.785117)scale(0.11 -0.11)">
       <use xlink:href="#ArialMT-2212"/>
       <use x="58.398438" xlink:href="#ArialMT-31"/>
       <use x="114.013672" xlink:href="#ArialMT-30"/>
      </g>
     </g>
    </g>
    <g id="ytick_5">
     <g id="text_14">
      <!-- −5 -->
      <g style="fill:#262626;" transform="translate(83.258281 167.087357)scale(0.11 -0.11)">
       <use xlink:href="#ArialMT-2212"/>
       <use x="58.398438" xlink:href="#ArialMT-35"/>
      </g>
     </g>
    </g>
    <g id="ytick_6">
     <g id="text_15">
      <!-- 0 -->
      <g style="fill:#262626;" transform="translate(89.682969 75.389597)scale(0.11 -0.11)">
       <use xlink:href="#ArialMT-30"/>
      </g>
     </g>
    </g>
   </g>
   <g id="line2d_1">
    <path clip-path="url(#p4f76353f6a)" d="M 134.975455 562.89139 
L 137.899145 563.564508 
L 140.822835 564.54524 
L 143.746525 564.428373 
L 146.670215 565.489034 
L 149.593905 567.305751 
L 152.517595 568.207813 
L 158.364975 572.875918 
L 161.288665 574.029276 
L 164.212356 576.918058 
L 167.136046 580.95621 
L 169.133381 596.44 
M 185.497715 596.44 
L 187.601876 544.533194 
L 189.922555 596.44 
M 201.718797 596.44 
L 202.220327 584.50954 
L 205.144017 572.270346 
L 205.935298 596.44 
M 209.915306 596.44 
L 210.991397 558.503998 
L 213.915087 582.206602 
L 215.32989 596.44 
M 221.775069 596.44 
L 222.686158 589.958397 
L 225.609848 570.0593 
L 227.759821 596.44 
M 232.099317 596.44 
L 234.380918 515.362634 
L 237.981061 596.44 
M 243.389405 596.44 
L 246.075678 496.159183 
L 248.999369 486.202009 
L 251.923059 578.313791 
L 254.846749 569.875306 
L 257.502254 596.44 
M 257.883284 596.44 
L 260.694129 529.613698 
L 262.384971 596.44 
M 265.074534 596.44 
L 266.541509 547.371569 
L 269.465199 533.006191 
L 272.388889 551.13254 
L 275.312579 570.013231 
L 278.23627 574.553485 
L 281.15996 562.013569 
L 284.08365 532.504159 
L 287.00734 545.544568 
L 289.93103 586.750843 
L 292.85472 540.262985 
L 295.77841 522.996617 
L 298.7021 579.173773 
L 301.62579 583.042552 
L 304.549481 550.247478 
L 307.473171 524.1059 
L 310.396861 546.675958 
L 313.320551 515.827377 
L 316.244241 550.715719 
L 319.167931 524.903827 
L 322.091621 542.789305 
L 325.015311 506.856357 
L 330.862691 583.796159 
L 333.786382 555.602099 
L 336.710072 517.436629 
L 339.633762 575.668225 
L 342.348487 596.44 
M 342.62249 596.44 
L 345.481142 526.162335 
L 348.404832 493.289081 
L 351.328522 478.861928 
L 354.252212 551.62072 
L 357.175902 538.284556 
L 360.099592 522.922774 
L 362.809846 596.44 
M 363.228235 596.44 
L 365.946973 519.639734 
L 368.870663 518.041466 
L 371.794353 538.080903 
L 374.88905 596.44 
M 382.1131 596.44 
L 383.489113 554.396586 
L 386.412803 534.383035 
L 389.336494 574.066635 
L 392.260184 552.189039 
L 395.183874 571.454404 
L 398.107564 517.119711 
L 401.031254 491.154361 
L 403.954944 494.055036 
L 406.878634 542.092854 
L 409.802324 499.661583 
L 412.726014 482.620135 
L 415.649704 567.168559 
L 418.573395 546.205199 
L 421.497085 586.517177 
L 421.893484 596.44 
M 433.006905 596.44 
L 433.191845 594.973433 
L 436.115535 527.296558 
L 439.039225 542.373428 
L 441.962915 590.68395 
L 444.886605 583.871541 
L 447.810296 504.824234 
L 450.733986 466.349226 
L 453.657676 534.682324 
L 456.581366 517.280863 
L 458.156114 596.44 
M 461.224403 596.44 
L 462.428746 548.942587 
L 465.352436 557.683335 
L 468.276126 539.599976 
L 471.199816 537.037242 
L 473.386833 596.44 
M 474.892087 596.44 
L 477.047197 540.333994 
L 479.970887 457.177386 
L 482.894577 577.391371 
L 485.818267 582.456883 
L 488.741957 584.366157 
L 491.665647 539.825666 
L 494.589337 537.638267 
L 496.433291 596.44 
M 498.55235 596.44 
L 500.436717 534.012948 
L 503.360408 465.184919 
L 506.284098 552.315911 
L 507.621237 596.44 
M 516.004931 596.44 
L 517.978858 531.189684 
L 520.902548 578.509119 
L 523.826238 592.297189 
L 526.749928 546.620725 
L 529.477318 596.44 
M 534.146623 596.44 
L 535.520999 551.231218 
L 538.444689 528.926063 
L 541.400325 596.44 
M 544.942165 596.44 
L 547.215759 544.271859 
L 550.139449 582.190546 
L 553.063139 488.43023 
L 555.986829 562.326604 
L 558.910519 537.668804 
L 561.83421 538.159048 
L 564.7579 550.389357 
L 567.68159 512.128671 
L 570.60528 520.076808 
L 573.52897 512.193768 
L 576.45266 492.142474 
L 579.37635 528.736332 
L 582.30004 541.101908 
L 585.22373 534.931276 
L 588.147421 523.166165 
L 591.071111 519.871511 
L 593.994801 543.1546 
L 596.918491 474.726672 
L 599.842181 531.328414 
L 602.765871 522.412907 
L 605.689561 528.075876 
L 608.613251 519.281155 
L 611.365192 596.44 
M 614.672601 596.44 
L 617.384322 457.555519 
L 620.308012 491.218409 
L 625.44904 596.44 
M 628.061108 596.44 
L 632.002772 567.925665 
L 634.926462 544.054318 
L 637.850152 577.643366 
L 640.773842 507.588137 
L 643.697532 448.663274 
L 646.621223 494.479832 
L 649.544913 514.538507 
L 652.468603 584.842723 
L 658.315983 511.044888 
L 661.239673 572.805084 
L 664.163363 509.074294 
L 667.087053 565.463044 
L 670.010743 573.58699 
L 672.934433 558.466885 
L 675.858124 564.190089 
L 678.781814 532.301485 
L 681.705504 591.863193 
L 682.04217 596.44 
M 686.284147 596.44 
L 687.552884 569.478179 
L 688.311462 596.44 
M 700.569404 596.44 
L 702.171335 588.475633 
L 705.095025 589.868254 
L 708.018715 584.262547 
L 710.942405 585.778856 
L 713.866095 584.695458 
L 716.789785 585.670838 
L 719.713475 584.300745 
L 722.637165 581.906054 
L 725.560855 585.809464 
L 728.484545 586.177767 
L 728.484545 586.177767 
" style="fill:none;stroke:#4c72b0;stroke-linecap:round;stroke-width:1.5;"/>
   </g>
   <g id="line2d_2">
    <path clip-path="url(#p4f76353f6a)" d="M 134.975455 554.681673 
L 137.899145 558.182603 
L 140.822835 558.775722 
L 143.746525 558.90263 
L 146.670215 560.549239 
L 149.593905 562.606408 
L 152.517595 561.377774 
L 155.441285 563.031834 
L 158.364975 562.638905 
L 164.212356 565.061894 
L 167.136046 565.695345 
L 170.059736 584.870113 
L 172.983426 590.709206 
L 173.9031 596.44 
M 185.033678 596.44 
L 187.601876 518.183625 
L 190.120735 596.44 
M 202.094091 596.44 
L 202.220327 594.414524 
L 203.179615 596.44 
M 210.5719 596.44 
L 210.991397 583.280275 
L 213.915087 566.351953 
L 215.763085 596.44 
M 221.158683 596.44 
L 222.686158 589.975852 
L 225.609848 564.207474 
L 229.404698 596.44 
M 231.933908 596.44 
L 234.380918 509.817652 
L 237.304608 567.48957 
L 238.558165 596.44 
M 243.216999 596.44 
L 246.075678 504.354034 
L 248.999369 512.929221 
L 251.923059 574.892895 
L 254.846749 568.563978 
L 257.292045 596.44 
M 258.048292 596.44 
L 260.694129 544.508358 
L 262.110774 596.44 
M 265.498138 596.44 
L 266.541509 565.784754 
L 269.465199 547.833339 
L 272.388889 580.731394 
L 274.633635 596.44 
M 279.272915 596.44 
L 281.15996 589.483859 
L 284.08365 546.24707 
L 287.00734 560.145501 
L 288.97255 596.44 
M 291.243771 596.44 
L 292.85472 574.717121 
L 295.77841 540.233287 
L 298.484408 596.44 
M 302.47487 596.44 
L 304.549481 564.600754 
L 307.473171 541.12426 
L 310.396861 539.43494 
L 313.320551 534.274388 
L 316.244241 568.014269 
L 319.167931 558.21342 
L 322.091621 552.718879 
L 325.015311 501.952977 
L 327.939001 572.521117 
L 330.862691 582.065003 
L 333.786382 545.014132 
L 336.710072 553.185547 
L 339.633762 590.392183 
L 342.557452 587.840048 
L 345.481142 521.660769 
L 348.404832 502.893412 
L 351.328522 560.274507 
L 354.014917 596.44 
M 354.37288 596.44 
L 360.099592 441.992463 
L 363.023283 443.778328 
L 365.946973 485.592834 
L 368.870663 471.348136 
L 371.794353 482.232558 
L 374.718043 532.781025 
L 380.565423 593.890455 
L 383.489113 521.264096 
L 389.336494 579.636732 
L 392.260184 558.173613 
L 395.183874 579.47418 
L 398.107564 521.206484 
L 401.031254 489.506527 
L 403.954944 527.440466 
L 406.878634 539.699074 
L 409.802324 539.590006 
L 412.726014 545.928298 
L 415.649704 587.290024 
L 418.573395 548.982429 
L 422.019955 596.44 
M 426.087603 596.44 
L 427.344465 570.440161 
L 430.268155 578.479351 
L 433.191845 562.309464 
L 436.115535 516.05751 
L 439.039225 577.785035 
L 440.681687 596.44 
M 442.74938 596.44 
L 444.886605 556.894502 
L 447.810296 484.844019 
L 450.733986 501.72141 
L 453.657676 539.257557 
L 456.581366 555.386378 
L 457.663653 596.44 
M 461.267947 596.44 
L 462.428746 550.447249 
L 465.352436 573.341816 
L 468.276126 529.173686 
L 471.199816 541.386575 
L 474.123506 588.244276 
L 477.047197 572.273494 
L 479.970887 461.886453 
L 482.894577 570.647382 
L 485.607889 596.44 
M 488.860017 596.44 
L 491.665647 558.624434 
L 494.589337 545.840183 
L 496.337479 596.44 
M 498.565191 596.44 
L 500.436717 535.916345 
L 503.360408 464.701637 
L 506.284098 557.053416 
L 507.667999 596.44 
M 516.518156 596.44 
L 517.978858 559.997221 
L 520.902548 587.620969 
L 523.826238 588.103587 
L 526.749928 559.067175 
L 528.973206 596.44 
M 533.904861 596.44 
L 535.520999 547.909106 
L 538.444689 527.204211 
L 543.801674 596.44 
M 544.492284 596.44 
L 547.215759 510.147128 
L 550.139449 556.406987 
L 553.063139 498.801007 
L 555.986829 494.085504 
L 558.910519 460.360244 
L 561.83421 428.235315 
L 564.7579 504.208377 
L 567.68159 477.283319 
L 570.60528 578.885818 
L 573.52897 461.651213 
L 576.45266 458.474686 
L 579.37635 501.960463 
L 582.30004 463.661334 
L 585.22373 545.40157 
L 588.147421 515.876314 
L 591.071111 539.81797 
L 593.994801 569.03138 
L 596.918491 498.113231 
L 599.842181 584.880362 
L 602.765871 543.070578 
L 607.929703 596.44 
M 616.365868 596.44 
L 617.384322 562.587204 
L 620.308012 549.203572 
L 623.231702 581.920081 
L 623.825681 596.44 
M 634.361408 596.44 
L 634.926462 592.632507 
L 637.850152 591.888729 
L 640.773842 540.116279 
L 643.697532 450.078106 
L 646.621223 516.665566 
L 649.544913 547.527999 
L 652.468603 592.453829 
L 655.392293 576.720456 
L 658.315983 488.693944 
L 661.239673 574.726776 
L 664.163363 504.399193 
L 667.087053 575.821752 
L 670.010743 588.97763 
L 672.934433 560.419394 
L 675.858124 569.271587 
L 678.781814 559.328265 
L 681.417082 596.44 
M 686.332825 596.44 
L 687.552884 568.242023 
L 688.382998 596.44 
M 700.705805 596.44 
L 702.171335 578.374971 
L 705.095025 580.252064 
L 708.018715 579.369206 
L 710.942405 580.915633 
L 713.866095 578.939757 
L 716.789785 580.512699 
L 719.713475 580.098327 
L 722.637165 576.058811 
L 725.560855 580.226004 
L 728.484545 575.850925 
L 728.484545 575.850925 
" style="fill:none;stroke:#dd8452;stroke-dasharray:6,2.25;stroke-dashoffset:0;stroke-width:1.5;"/>
   </g>
   <g id="line2d_3">
    <path clip-path="url(#p4f76353f6a)" d="M 134.975455 554.791859 
L 137.899145 558.094069 
L 140.822835 559.792309 
L 143.746525 557.206803 
L 146.670215 566.350659 
L 149.593905 567.025597 
L 152.517595 568.752625 
L 155.441285 590.747894 
L 158.364975 591.601823 
L 161.288665 581.234055 
L 164.212356 583.092608 
L 167.136046 575.523373 
L 170.059736 578.98663 
L 172.666928 596.44 
M 184.245965 596.44 
L 184.678186 580.272352 
L 187.601876 528.55608 
L 190.525567 564.323223 
L 193.449257 590.686609 
L 196.372947 586.237583 
L 197.486558 596.44 
M 201.170051 596.44 
L 202.220327 587.143143 
L 205.144017 595.629656 
L 208.067707 497.27095 
L 210.991397 559.752607 
L 213.915087 590.961551 
L 216.838777 570.527366 
L 219.762468 555.383545 
L 222.686158 550.912831 
L 225.609848 500.315707 
L 228.533538 547.025933 
L 231.457228 587.333259 
L 234.380918 522.11194 
L 237.304608 570.035654 
L 238.190366 596.44 
M 243.683925 596.44 
L 246.075678 494.925931 
L 248.999369 535.780308 
L 251.923059 532.352276 
L 254.846749 595.165613 
L 255.15161 596.44 
M 258.200468 596.44 
L 260.694129 532.958653 
L 262.861804 596.44 
M 264.755376 596.44 
L 266.541509 561.676572 
L 269.465199 576.192609 
L 272.388889 589.328828 
L 278.23627 553.073716 
L 281.15996 495.608634 
L 284.08365 474.572165 
L 287.00734 465.596458 
L 289.93103 500.818683 
L 292.85472 511.194042 
L 295.77841 537.100905 
L 298.014855 596.44 
M 303.980519 596.44 
L 304.549481 582.730426 
L 307.473171 567.918529 
L 310.396861 594.174841 
L 313.320551 593.135203 
L 315.288416 596.44 
M 316.786393 596.44 
L 319.167931 589.388784 
L 322.091621 572.502577 
L 325.015311 525.541651 
L 327.939001 586.344202 
L 328.865644 596.44 
M 332.120872 596.44 
L 333.786382 567.638095 
L 336.710072 565.603278 
L 338.625308 596.44 
M 344.105108 596.44 
L 345.481142 554.579601 
L 348.404832 518.254669 
L 351.092243 596.44 
M 351.650269 596.44 
L 354.252212 540.849528 
L 357.175902 594.1676 
L 360.099592 500.350477 
L 363.023283 566.14036 
L 365.946973 496.433251 
L 368.870663 539.916999 
L 371.794353 480.954427 
L 374.718043 582.753268 
L 377.028824 596.44 
M 378.16277 596.44 
L 380.565423 579.699836 
L 383.489113 564.844704 
L 386.412803 579.384737 
L 387.69532 596.44 
M 392.024359 596.44 
L 392.260184 594.525165 
L 393.871614 596.44 
M 395.270585 596.44 
L 398.107564 545.422103 
L 401.031254 528.897869 
L 403.954944 538.958024 
L 406.878634 553.517541 
L 409.802324 584.601992 
L 412.726014 562.964533 
L 415.649704 568.657585 
L 418.172049 596.44 
M 418.772862 596.44 
L 421.497085 536.065534 
L 424.420775 484.688533 
L 427.344465 454.26125 
L 430.268155 471.419215 
L 433.191845 478.488482 
L 436.115535 458.481612 
L 439.039225 543.744361 
L 441.962915 596.252439 
L 444.886605 538.789071 
L 447.810296 562.973173 
L 450.733986 507.773146 
L 453.657676 522.898288 
L 456.581366 572.889071 
L 456.982578 596.44 
M 463.600457 596.44 
L 465.352436 572.372697 
L 468.276126 567.45592 
L 471.199816 496.489254 
L 474.123506 556.086186 
L 477.047197 522.808285 
L 479.970887 501.789271 
L 482.894577 568.637926 
L 484.757641 596.44 
M 487.634766 596.44 
L 488.741957 586.792854 
L 491.665647 577.974311 
L 494.589337 482.649553 
L 497.513027 536.602546 
L 500.436717 486.420284 
L 503.360408 504.930678 
L 506.284098 577.298674 
L 509.207788 533.991505 
L 512.131478 546.847885 
L 515.055168 568.822305 
L 517.978858 561.640403 
L 519.839103 596.44 
M 537.001631 596.44 
L 538.444689 581.050236 
L 540.419032 596.44 
M 544.560991 596.44 
L 547.215759 497.745907 
L 550.139449 587.344172 
L 553.063139 530.674184 
L 555.986829 488.330992 
L 558.910519 504.256755 
L 561.83421 477.159945 
L 567.68159 466.351395 
L 570.60528 518.74995 
L 573.52897 549.135606 
L 576.45266 472.002471 
L 579.37635 526.44109 
L 582.30004 547.538109 
L 585.22373 588.691599 
L 588.147421 556.187488 
L 591.071111 576.397207 
L 593.994801 568.701345 
L 596.918491 484.496563 
L 599.810679 596.44 
M 600.20584 596.44 
L 602.765871 587.856593 
L 605.689561 560.045948 
L 608.613251 570.628773 
L 610.231066 596.44 
M 615.299539 596.44 
L 617.384322 513.219764 
L 620.308012 483.326065 
L 623.231702 567.434162 
L 624.418069 596.44 
M 627.802921 596.44 
L 629.079082 563.538239 
L 631.332361 596.44 
M 635.098519 596.44 
L 637.850152 519.483339 
L 640.773842 502.701408 
L 643.697532 519.939617 
L 646.621223 582.058077 
L 649.544913 524.381927 
L 652.468603 594.722627 
L 655.392293 572.480365 
L 658.315983 497.082933 
L 661.239673 559.883467 
L 664.163363 504.256755 
L 667.087053 574.634184 
L 670.010743 583.258133 
L 672.934433 529.082598 
L 675.858124 581.809055 
L 678.781814 572.29784 
L 680.314549 596.44 
M 687.207053 596.44 
L 687.552884 588.461396 
L 687.862865 596.44 
M 702.023907 596.44 
L 702.171335 594.792167 
L 705.095025 587.187497 
L 708.018715 586.850851 
L 710.942405 592.905805 
L 713.866095 589.007258 
L 716.789785 589.736799 
L 719.713475 587.260745 
L 722.637165 587.11257 
L 725.560855 588.590227 
L 728.484545 579.322298 
L 728.484545 579.322298 
" style="fill:none;stroke:#55a868;stroke-dasharray:1.5,1.5;stroke-dashoffset:0;stroke-width:1.5;"/>
   </g>
   <g id="line2d_4">
    <path clip-path="url(#p4f76353f6a)" d="M 134.975455 554.586213 
L 137.899145 558.066749 
L 140.822835 558.726016 
L 143.746525 558.712409 
L 146.670215 560.542034 
L 149.593905 562.589268 
L 152.517595 561.46253 
L 155.441285 563.276134 
L 158.364975 563.056915 
L 161.288665 564.332318 
L 164.212356 565.475531 
L 167.136046 566.274228 
L 170.059736 585.546659 
L 172.983426 591.362491 
L 173.798544 596.44 
M 185.064811 596.44 
L 187.601876 518.651936 
L 190.091355 596.44 
M 202.109928 596.44 
L 202.220327 594.659418 
L 204.788614 596.44 
M 210.441002 596.44 
L 210.991397 578.050882 
L 213.915087 574.32783 
L 215.753195 596.44 
M 221.47186 596.44 
L 222.686158 590.940003 
L 225.609848 563.647271 
L 229.215538 596.44 
M 231.995446 596.44 
L 234.380918 510.633874 
L 237.304608 571.509218 
L 238.378174 596.44 
M 243.282656 596.44 
L 246.075678 504.971324 
L 248.999369 512.901307 
L 251.923059 575.279423 
L 254.846749 568.972194 
L 257.474803 596.44 
M 257.934434 596.44 
L 260.694129 544.44319 
L 262.104174 596.44 
M 265.418637 596.44 
L 266.541509 561.6361 
L 269.465199 547.608943 
L 272.388889 576.820883 
L 274.553344 596.44 
M 278.933914 596.44 
L 281.15996 586.87824 
L 284.08365 546.14248 
L 287.00734 569.704254 
L 288.652177 596.44 
M 291.198322 596.44 
L 292.85472 569.270713 
L 295.77841 540.19397 
L 298.473383 596.44 
M 302.578346 596.44 
L 304.549481 567.692908 
L 307.473171 541.388674 
L 310.396861 541.634652 
L 313.320551 533.483912 
L 316.244241 569.928825 
L 319.167931 560.931745 
L 322.091621 562.819226 
L 325.015311 498.292538 
L 327.939001 560.632597 
L 330.862691 593.927358 
L 333.786382 542.356603 
L 336.710072 559.809134 
L 338.843223 596.44 
M 342.831763 596.44 
L 345.481142 527.246432 
L 348.404832 475.665358 
L 351.328522 539.516688 
L 354.252212 579.34325 
L 357.175902 497.272104 
L 360.099592 461.683569 
L 363.023283 586.333673 
L 365.946973 495.062073 
L 368.870663 487.688691 
L 371.794353 505.42239 
L 374.718043 558.44887 
L 377.641733 574.410872 
L 379.673071 596.44 
M 380.896586 596.44 
L 383.489113 520.681331 
L 386.412803 553.70276 
L 389.336494 580.322618 
L 392.260184 557.383277 
L 395.183874 579.817438 
L 398.107564 520.434792 
L 401.031254 490.861964 
L 403.954944 525.291894 
L 406.878634 542.279332 
L 409.802324 543.023705 
L 412.726014 544.619769 
L 415.649704 590.270383 
L 418.573395 550.469461 
L 421.674074 596.44 
M 426.239319 596.44 
L 427.344465 571.959584 
L 430.268155 577.407217 
L 433.191845 559.031041 
L 436.115535 514.310263 
L 439.039225 577.517124 
L 440.661379 596.44 
M 442.754973 596.44 
L 444.886605 555.579153 
L 447.810296 484.108951 
L 450.733986 495.894035 
L 453.657676 544.809675 
L 456.581366 555.870605 
L 457.675813 596.44 
M 461.213418 596.44 
L 462.428746 548.202027 
L 465.352436 576.117018 
L 468.276126 528.517847 
L 471.199816 547.213565 
L 474.100039 596.44 
M 474.186426 596.44 
L 477.047197 578.329742 
L 479.970887 458.529045 
L 482.894577 571.361987 
L 485.634197 596.44 
M 488.993725 596.44 
L 491.665647 558.884895 
L 494.589337 546.519353 
L 496.299416 596.44 
M 498.577986 596.44 
L 500.436717 534.605927 
L 503.360408 462.846756 
L 506.284098 556.522561 
L 507.691708 596.44 
M 516.510719 596.44 
L 517.978858 559.526601 
L 520.902548 587.817451 
L 523.826238 586.804397 
L 526.749928 558.011166 
L 529.001435 596.44 
M 533.884058 596.44 
L 535.520999 547.258724 
L 538.444689 529.660222 
L 543.725987 596.44 
M 544.513616 596.44 
L 547.215759 510.069193 
L 550.139449 555.619344 
L 553.063139 497.119172 
L 555.986829 495.35531 
L 558.910519 460.283428 
L 561.83421 429.858524 
L 564.7579 504.980279 
L 567.68159 477.568405 
L 570.60528 574.252798 
L 573.52897 450.916365 
L 576.45266 507.399106 
L 579.37635 487.01015 
L 582.30004 477.256734 
L 585.22373 594.866989 
L 588.147421 502.258212 
L 591.071111 511.538629 
L 593.994801 576.585154 
L 596.918491 521.376907 
L 599.842181 572.103736 
L 602.765871 561.487646 
L 605.689561 577.311652 
L 608.613251 591.437803 
L 608.915044 596.44 
M 616.293427 596.44 
L 617.384322 554.719101 
L 620.308012 544.62701 
L 623.231702 583.444961 
L 623.82858 596.44 
M 634.685327 596.44 
L 634.926462 595.267439 
L 637.850152 591.675281 
L 640.773842 539.909198 
L 643.697532 449.667477 
L 646.621223 517.217374 
L 649.544913 544.328316 
L 652.468603 592.711037 
L 655.392293 576.566544 
L 658.315983 488.29045 
L 661.239673 575.112394 
L 664.163363 504.258434 
L 667.087053 573.825798 
L 670.010743 589.564698 
L 672.934433 559.447652 
L 675.858124 567.671011 
L 678.781814 558.572804 
L 681.605539 596.44 
M 686.295904 596.44 
L 687.552884 568.094443 
L 688.389236 596.44 
M 700.70281 596.44 
L 702.171335 577.00145 
L 705.095025 579.611861 
L 708.018715 578.855071 
L 710.942405 581.169062 
L 713.866095 579.114587 
L 716.789785 580.479083 
L 719.713475 580.159577 
L 722.637165 575.772116 
L 725.560855 580.479363 
L 728.484545 575.774389 
L 728.484545 575.774389 
" style="fill:none;stroke:#c44e52;stroke-dasharray:4.5,1.875,2.25,1.875;stroke-dashoffset:0;stroke-width:1.5;"/>
   </g>
   <g id="line2d_5">
    <path clip-path="url(#p4f76353f6a)" d="M 134.975455 557.115366 
L 137.899145 560.679854 
L 140.822835 561.335658 
L 143.746525 561.742404 
L 146.670215 563.211666 
L 149.593905 565.86979 
L 152.517595 565.205556 
L 155.441285 566.781612 
L 158.364975 566.622943 
L 161.288665 568.615889 
L 164.212356 568.400692 
L 167.136046 568.539423 
L 170.059736 585.3719 
L 172.983426 591.105178 
L 173.977766 596.44 
M 185.251229 596.44 
L 187.601876 537.914503 
L 189.857007 596.44 
M 202.103015 596.44 
L 202.220327 594.093023 
L 205.144017 595.115206 
L 205.190498 596.44 
M 210.518046 596.44 
L 210.991397 580.598435 
L 213.915087 564.530619 
L 215.945009 596.44 
M 221.052051 596.44 
L 222.686158 589.695977 
L 225.609848 570.763446 
L 228.905387 596.44 
M 232.068405 596.44 
L 234.380918 514.470716 
L 237.304608 569.795936 
L 238.412092 596.44 
M 243.297047 596.44 
L 246.075678 501.313159 
L 248.999369 503.453861 
L 251.923059 582.236125 
L 254.846749 570.385733 
L 257.137185 596.44 
M 258.10281 596.44 
L 260.694129 540.278866 
L 262.18121 596.44 
M 265.380533 596.44 
L 266.541509 560.705984 
L 269.465199 546.433338 
L 272.388889 574.296418 
L 274.835797 596.44 
M 280.053665 596.44 
L 281.15996 593.249902 
L 284.08365 553.163124 
L 287.00734 568.319504 
L 288.748349 596.44 
M 291.114882 596.44 
L 292.85472 568.366237 
L 295.77841 535.779819 
L 298.698477 596.44 
M 302.36224 596.44 
L 304.549481 564.712829 
L 307.473171 539.145062 
L 310.396861 555.766155 
L 313.320551 537.513178 
L 316.244241 567.571668 
L 319.167931 559.225214 
L 322.091621 566.005162 
L 325.015311 508.824363 
L 327.939001 557.653916 
L 330.862691 596.248556 
L 333.786382 557.679382 
L 336.710072 530.250997 
L 339.537425 596.44 
M 342.833532 596.44 
L 345.481142 540.478566 
L 348.404832 489.674501 
L 351.328522 472.816593 
L 354.252212 550.962643 
L 357.175902 560.127452 
L 360.099592 563.352355 
L 361.245832 596.44 
M 364.411009 596.44 
L 365.946973 539.650871 
L 368.870663 540.988259 
L 371.794353 521.878204 
L 375.084353 596.44 
M 382.565214 596.44 
L 383.489113 568.598539 
L 386.412803 552.630905 
L 389.336494 583.822569 
L 392.260184 573.413559 
L 395.183874 591.727086 
L 398.107564 503.969395 
L 401.031254 505.273236 
L 403.954944 521.836753 
L 406.878634 551.306915 
L 409.802324 551.078216 
L 412.726014 537.789555 
L 415.083273 596.44 
M 416.373816 596.44 
L 418.573395 553.629966 
L 420.994911 596.44 
M 426.689093 596.44 
L 427.344465 581.551883 
L 430.268155 580.420037 
L 433.191845 564.828193 
L 436.115535 511.877935 
L 439.039225 576.768379 
L 440.618345 596.44 
M 442.909364 596.44 
L 444.886605 561.447839 
L 447.810296 484.14554 
L 450.733986 492.242132 
L 453.657676 530.922542 
L 456.581366 543.93787 
L 458.194072 596.44 
M 460.704308 596.44 
L 462.428746 535.069971 
L 465.352436 569.873207 
L 468.276126 533.664303 
L 471.199816 557.461562 
L 473.400375 596.44 
M 474.948449 596.44 
L 477.047197 563.852953 
L 479.970887 461.309354 
L 482.894577 581.109177 
L 484.875139 596.44 
M 489.128766 596.44 
L 491.665647 564.403747 
L 494.589337 545.392965 
L 496.298549 596.44 
M 498.573862 596.44 
L 500.436717 532.74636 
L 503.360408 458.791325 
L 507.624665 596.44 
M 516.580854 596.44 
L 517.978858 562.963728 
L 520.902548 587.89787 
L 523.826238 582.214437 
L 526.749928 547.118384 
L 529.428328 596.44 
M 533.301605 596.44 
L 535.520999 529.865379 
L 538.444689 506.749494 
L 541.368379 560.281608 
L 543.707725 596.44 
M 544.548373 596.44 
L 547.215759 502.443116 
L 550.139449 551.509029 
L 553.063139 459.06966 
L 555.986829 531.102688 
L 558.910519 485.661429 
L 561.83421 467.680492 
L 564.7579 536.416488 
L 567.68159 508.787109 
L 570.60528 516.054467 
L 573.52897 503.988704 
L 576.45266 555.35724 
L 579.37635 524.500054 
L 582.30004 485.25073 
L 585.22373 566.769334 
L 588.147421 513.995269 
L 591.071111 528.322799 
L 593.994801 549.566209 
L 596.918491 505.420082 
L 599.842181 546.938448 
L 602.765871 534.994135 
L 605.689561 557.932427 
L 608.613251 575.213031 
L 610.505347 596.44 
M 615.720455 596.44 
L 617.384322 531.5186 
L 620.308012 527.803313 
L 623.231702 572.463715 
L 624.376119 596.44 
M 632.141977 596.44 
L 634.926462 585.210607 
L 637.850152 576.18159 
L 640.773842 518.886581 
L 643.697532 443.200739 
L 646.621223 501.193598 
L 649.544913 531.111329 
L 652.468603 571.135877 
L 655.392293 560.739985 
L 658.315983 488.193556 
L 661.239673 560.409565 
L 664.163363 497.574751 
L 667.087053 570.218039 
L 670.010743 584.742611 
L 672.934433 565.759079 
L 675.858124 565.424671 
L 678.781814 541.36097 
L 681.730469 596.44 
M 685.870849 596.44 
L 687.552884 558.992948 
L 688.820807 596.44 
M 700.236595 596.44 
L 702.171335 573.172233 
L 705.095025 575.348963 
L 708.018715 574.553555 
L 710.942405 576.010049 
L 713.866095 573.845422 
L 716.789785 574.368371 
L 719.713475 574.513258 
L 722.637165 569.900981 
L 725.560855 574.437772 
L 728.484545 570.631362 
L 728.484545 570.631362 
" style="fill:none;stroke:#8172b3;stroke-dasharray:7.5,1.5,1.5,1.5;stroke-dashoffset:0;stroke-width:1.5;"/>
   </g>
   <g id="line2d_6"/>
   <g id="line2d_7"/>
   <g id="line2d_8"/>
   <g id="line2d_9"/>
   <g id="line2d_10"/>
   <g id="patch_3">
    <path d="M 105.3 529.9416 
L 105.3 71.4528 
" style="fill:none;stroke:#262626;stroke-linecap:square;stroke-linejoin:miter;stroke-width:1.25;"/>
   </g>
   <g id="patch_4">
    <path d="M 758.16 529.9416 
L 758.16 71.4528 
" style="fill:none;stroke:#262626;stroke-linecap:square;stroke-linejoin:miter;stroke-width:1.25;"/>
   </g>
   <g id="patch_5">
    <path d="M 105.3 529.9416 
L 758.16 529.9416 
" style="fill:none;stroke:#262626;stroke-linecap:square;stroke-linejoin:miter;stroke-width:1.25;"/>
   </g>
   <g id="patch_6">
    <path d="M 105.3 71.4528 
L 758.16 71.4528 
" style="fill:none;stroke:#262626;stroke-linecap:square;stroke-linejoin:miter;stroke-width:1.25;"/>
   </g>
   <g id="text_16">
    <!-- Activations for &gt;3&lt; -->
    <g style="fill:#262626;" transform="translate(382.037813 65.4528)scale(0.12 -0.12)">
     <defs>
      <path d="M -9 0 
L 1750 4581 
L 2403 4581 
L 4278 0 
L 3588 0 
L 3053 1388 
L 1138 1388 
L 634 0 
L -9 0 
z
M 1313 1881 
L 2866 1881 
L 2388 3150 
Q 2169 3728 2063 4100 
Q 1975 3659 1816 3225 
L 1313 1881 
z
" id="ArialMT-41" transform="scale(0.015625)"/>
      <path d="M 2588 1216 
L 3141 1144 
Q 3050 572 2676 248 
Q 2303 -75 1759 -75 
Q 1078 -75 664 370 
Q 250 816 250 1647 
Q 250 2184 428 2587 
Q 606 2991 970 3192 
Q 1334 3394 1763 3394 
Q 2303 3394 2647 3120 
Q 2991 2847 3088 2344 
L 2541 2259 
Q 2463 2594 2264 2762 
Q 2066 2931 1784 2931 
Q 1359 2931 1093 2626 
Q 828 2322 828 1663 
Q 828 994 1084 691 
Q 1341 388 1753 388 
Q 2084 388 2306 591 
Q 2528 794 2588 1216 
z
" id="ArialMT-63" transform="scale(0.015625)"/>
      <path d="M 1650 503 
L 1731 6 
Q 1494 -44 1306 -44 
Q 1000 -44 831 53 
Q 663 150 594 308 
Q 525 466 525 972 
L 525 2881 
L 113 2881 
L 113 3319 
L 525 3319 
L 525 4141 
L 1084 4478 
L 1084 3319 
L 1650 3319 
L 1650 2881 
L 1084 2881 
L 1084 941 
Q 1084 700 1114 631 
Q 1144 563 1211 522 
Q 1278 481 1403 481 
Q 1497 481 1650 503 
z
" id="ArialMT-74" transform="scale(0.015625)"/>
      <path d="M 425 3934 
L 425 4581 
L 988 4581 
L 988 3934 
L 425 3934 
z
M 425 0 
L 425 3319 
L 988 3319 
L 988 0 
L 425 0 
z
" id="ArialMT-69" transform="scale(0.015625)"/>
      <path d="M 1344 0 
L 81 3319 
L 675 3319 
L 1388 1331 
Q 1503 1009 1600 663 
Q 1675 925 1809 1294 
L 2547 3319 
L 3125 3319 
L 1869 0 
L 1344 0 
z
" id="ArialMT-76" transform="scale(0.015625)"/>
      <path d="M 2588 409 
Q 2275 144 1986 34 
Q 1697 -75 1366 -75 
Q 819 -75 525 192 
Q 231 459 231 875 
Q 231 1119 342 1320 
Q 453 1522 633 1644 
Q 813 1766 1038 1828 
Q 1203 1872 1538 1913 
Q 2219 1994 2541 2106 
Q 2544 2222 2544 2253 
Q 2544 2597 2384 2738 
Q 2169 2928 1744 2928 
Q 1347 2928 1158 2789 
Q 969 2650 878 2297 
L 328 2372 
Q 403 2725 575 2942 
Q 747 3159 1072 3276 
Q 1397 3394 1825 3394 
Q 2250 3394 2515 3294 
Q 2781 3194 2906 3042 
Q 3031 2891 3081 2659 
Q 3109 2516 3109 2141 
L 3109 1391 
Q 3109 606 3145 398 
Q 3181 191 3288 0 
L 2700 0 
Q 2613 175 2588 409 
z
M 2541 1666 
Q 2234 1541 1622 1453 
Q 1275 1403 1131 1340 
Q 988 1278 909 1158 
Q 831 1038 831 891 
Q 831 666 1001 516 
Q 1172 366 1500 366 
Q 1825 366 2078 508 
Q 2331 650 2450 897 
Q 2541 1088 2541 1459 
L 2541 1666 
z
" id="ArialMT-61" transform="scale(0.015625)"/>
      <path d="M 213 1659 
Q 213 2581 725 3025 
Q 1153 3394 1769 3394 
Q 2453 3394 2887 2945 
Q 3322 2497 3322 1706 
Q 3322 1066 3130 698 
Q 2938 331 2570 128 
Q 2203 -75 1769 -75 
Q 1072 -75 642 372 
Q 213 819 213 1659 
z
M 791 1659 
Q 791 1022 1069 705 
Q 1347 388 1769 388 
Q 2188 388 2466 706 
Q 2744 1025 2744 1678 
Q 2744 2294 2464 2611 
Q 2184 2928 1769 2928 
Q 1347 2928 1069 2612 
Q 791 2297 791 1659 
z
" id="ArialMT-6f" transform="scale(0.015625)"/>
      <path d="M 422 0 
L 422 3319 
L 928 3319 
L 928 2847 
Q 1294 3394 1984 3394 
Q 2284 3394 2536 3286 
Q 2788 3178 2913 3003 
Q 3038 2828 3088 2588 
Q 3119 2431 3119 2041 
L 3119 0 
L 2556 0 
L 2556 2019 
Q 2556 2363 2490 2533 
Q 2425 2703 2258 2804 
Q 2091 2906 1866 2906 
Q 1506 2906 1245 2678 
Q 984 2450 984 1813 
L 984 0 
L 422 0 
z
" id="ArialMT-6e" transform="scale(0.015625)"/>
      <path d="M 197 991 
L 753 1078 
Q 800 744 1014 566 
Q 1228 388 1613 388 
Q 2000 388 2187 545 
Q 2375 703 2375 916 
Q 2375 1106 2209 1216 
Q 2094 1291 1634 1406 
Q 1016 1563 777 1677 
Q 538 1791 414 1992 
Q 291 2194 291 2438 
Q 291 2659 392 2848 
Q 494 3038 669 3163 
Q 800 3259 1026 3326 
Q 1253 3394 1513 3394 
Q 1903 3394 2198 3281 
Q 2494 3169 2634 2976 
Q 2775 2784 2828 2463 
L 2278 2388 
Q 2241 2644 2061 2787 
Q 1881 2931 1553 2931 
Q 1166 2931 1000 2803 
Q 834 2675 834 2503 
Q 834 2394 903 2306 
Q 972 2216 1119 2156 
Q 1203 2125 1616 2013 
Q 2213 1853 2448 1751 
Q 2684 1650 2818 1456 
Q 2953 1263 2953 975 
Q 2953 694 2789 445 
Q 2625 197 2315 61 
Q 2006 -75 1616 -75 
Q 969 -75 630 194 
Q 291 463 197 991 
z
" id="ArialMT-73" transform="scale(0.015625)"/>
      <path id="ArialMT-20" transform="scale(0.015625)"/>
      <path d="M 556 0 
L 556 2881 
L 59 2881 
L 59 3319 
L 556 3319 
L 556 3672 
Q 556 4006 616 4169 
Q 697 4388 901 4523 
Q 1106 4659 1475 4659 
Q 1713 4659 2000 4603 
L 1916 4113 
Q 1741 4144 1584 4144 
Q 1328 4144 1222 4034 
Q 1116 3925 1116 3625 
L 1116 3319 
L 1763 3319 
L 1763 2881 
L 1116 2881 
L 1116 0 
L 556 0 
z
" id="ArialMT-66" transform="scale(0.015625)"/>
      <path d="M 416 0 
L 416 3319 
L 922 3319 
L 922 2816 
Q 1116 3169 1280 3281 
Q 1444 3394 1641 3394 
Q 1925 3394 2219 3213 
L 2025 2691 
Q 1819 2813 1613 2813 
Q 1428 2813 1281 2702 
Q 1134 2591 1072 2394 
Q 978 2094 978 1738 
L 978 0 
L 416 0 
z
" id="ArialMT-72" transform="scale(0.015625)"/>
      <path d="M 3384 2003 
L 350 706 
L 350 1266 
L 2753 2263 
L 350 3250 
L 350 3809 
L 3384 2528 
L 3384 2003 
z
" id="ArialMT-3e" transform="scale(0.015625)"/>
      <path d="M 269 1209 
L 831 1284 
Q 928 806 1161 595 
Q 1394 384 1728 384 
Q 2125 384 2398 659 
Q 2672 934 2672 1341 
Q 2672 1728 2419 1979 
Q 2166 2231 1775 2231 
Q 1616 2231 1378 2169 
L 1441 2663 
Q 1497 2656 1531 2656 
Q 1891 2656 2178 2843 
Q 2466 3031 2466 3422 
Q 2466 3731 2256 3934 
Q 2047 4138 1716 4138 
Q 1388 4138 1169 3931 
Q 950 3725 888 3313 
L 325 3413 
Q 428 3978 793 4289 
Q 1159 4600 1703 4600 
Q 2078 4600 2393 4439 
Q 2709 4278 2876 4000 
Q 3044 3722 3044 3409 
Q 3044 3113 2884 2869 
Q 2725 2625 2413 2481 
Q 2819 2388 3044 2092 
Q 3269 1797 3269 1353 
Q 3269 753 2831 336 
Q 2394 -81 1725 -81 
Q 1122 -81 723 278 
Q 325 638 269 1209 
z
" id="ArialMT-33" transform="scale(0.015625)"/>
      <path d="M 350 2003 
L 350 2528 
L 3384 3809 
L 3384 3250 
L 978 2263 
L 3384 1266 
L 3384 706 
L 350 2003 
z
" id="ArialMT-3c" transform="scale(0.015625)"/>
     </defs>
     <use xlink:href="#ArialMT-41"/>
     <use x="66.699219" xlink:href="#ArialMT-63"/>
     <use x="116.699219" xlink:href="#ArialMT-74"/>
     <use x="144.482422" xlink:href="#ArialMT-69"/>
     <use x="166.699219" xlink:href="#ArialMT-76"/>
     <use x="216.699219" xlink:href="#ArialMT-61"/>
     <use x="272.314453" xlink:href="#ArialMT-74"/>
     <use x="300.097656" xlink:href="#ArialMT-69"/>
     <use x="322.314453" xlink:href="#ArialMT-6f"/>
     <use x="377.929688" xlink:href="#ArialMT-6e"/>
     <use x="433.544922" xlink:href="#ArialMT-73"/>
     <use x="483.544922" xlink:href="#ArialMT-20"/>
     <use x="511.328125" xlink:href="#ArialMT-66"/>
     <use x="539.111328" xlink:href="#ArialMT-6f"/>
     <use x="594.726562" xlink:href="#ArialMT-72"/>
     <use x="628.027344" xlink:href="#ArialMT-20"/>
     <use x="655.810547" xlink:href="#ArialMT-3e"/>
     <use x="714.208984" xlink:href="#ArialMT-33"/>
     <use x="769.824219" xlink:href="#ArialMT-3c"/>
    </g>
   </g>
   <g id="legend_1">
    <g id="patch_7">
     <path d="M 640.044062 158.514363 
L 750.46 158.514363 
Q 752.66 158.514363 752.66 156.314363 
L 752.66 79.1528 
Q 752.66 76.9528 750.46 76.9528 
L 640.044062 76.9528 
Q 637.844062 76.9528 637.844062 79.1528 
L 637.844062 156.314363 
Q 637.844062 158.514363 640.044062 158.514363 
z
" style="fill:#ffffff;opacity:0.8;stroke:#cccccc;stroke-linejoin:miter;"/>
    </g>
    <g id="line2d_11">
     <path d="M 642.244062 85.376394 
L 664.244062 85.376394 
" style="fill:none;stroke:#4c72b0;stroke-linecap:round;stroke-width:1.5;"/>
    </g>
    <g id="line2d_12"/>
    <g id="text_17">
     <!-- regular -->
     <g style="fill:#262626;" transform="translate(673.044062 89.226394)scale(0.11 -0.11)">
      <defs>
       <path d="M 2694 1069 
L 3275 997 
Q 3138 488 2766 206 
Q 2394 -75 1816 -75 
Q 1088 -75 661 373 
Q 234 822 234 1631 
Q 234 2469 665 2931 
Q 1097 3394 1784 3394 
Q 2450 3394 2872 2941 
Q 3294 2488 3294 1666 
Q 3294 1616 3291 1516 
L 816 1516 
Q 847 969 1125 678 
Q 1403 388 1819 388 
Q 2128 388 2347 550 
Q 2566 713 2694 1069 
z
M 847 1978 
L 2700 1978 
Q 2663 2397 2488 2606 
Q 2219 2931 1791 2931 
Q 1403 2931 1139 2672 
Q 875 2413 847 1978 
z
" id="ArialMT-65" transform="scale(0.015625)"/>
       <path d="M 319 -275 
L 866 -356 
Q 900 -609 1056 -725 
Q 1266 -881 1628 -881 
Q 2019 -881 2231 -725 
Q 2444 -569 2519 -288 
Q 2563 -116 2559 434 
Q 2191 0 1641 0 
Q 956 0 581 494 
Q 206 988 206 1678 
Q 206 2153 378 2554 
Q 550 2956 876 3175 
Q 1203 3394 1644 3394 
Q 2231 3394 2613 2919 
L 2613 3319 
L 3131 3319 
L 3131 450 
Q 3131 -325 2973 -648 
Q 2816 -972 2473 -1159 
Q 2131 -1347 1631 -1347 
Q 1038 -1347 672 -1080 
Q 306 -813 319 -275 
z
M 784 1719 
Q 784 1066 1043 766 
Q 1303 466 1694 466 
Q 2081 466 2343 764 
Q 2606 1063 2606 1700 
Q 2606 2309 2336 2618 
Q 2066 2928 1684 2928 
Q 1309 2928 1046 2623 
Q 784 2319 784 1719 
z
" id="ArialMT-67" transform="scale(0.015625)"/>
       <path d="M 2597 0 
L 2597 488 
Q 2209 -75 1544 -75 
Q 1250 -75 995 37 
Q 741 150 617 320 
Q 494 491 444 738 
Q 409 903 409 1263 
L 409 3319 
L 972 3319 
L 972 1478 
Q 972 1038 1006 884 
Q 1059 663 1231 536 
Q 1403 409 1656 409 
Q 1909 409 2131 539 
Q 2353 669 2445 892 
Q 2538 1116 2538 1541 
L 2538 3319 
L 3100 3319 
L 3100 0 
L 2597 0 
z
" id="ArialMT-75" transform="scale(0.015625)"/>
       <path d="M 409 0 
L 409 4581 
L 972 4581 
L 972 0 
L 409 0 
z
" id="ArialMT-6c" transform="scale(0.015625)"/>
      </defs>
      <use xlink:href="#ArialMT-72"/>
      <use x="33.300781" xlink:href="#ArialMT-65"/>
      <use x="88.916016" xlink:href="#ArialMT-67"/>
      <use x="144.53125" xlink:href="#ArialMT-75"/>
      <use x="200.146484" xlink:href="#ArialMT-6c"/>
      <use x="222.363281" xlink:href="#ArialMT-61"/>
      <use x="277.978516" xlink:href="#ArialMT-72"/>
     </g>
    </g>
    <g id="line2d_13">
     <path d="M 642.244062 101.0978 
L 664.244062 101.0978 
" style="fill:none;stroke:#dd8452;stroke-dasharray:6,2.25;stroke-dashoffset:0;stroke-width:1.5;"/>
    </g>
    <g id="line2d_14"/>
    <g id="text_18">
     <!-- splitted_3s -->
     <g style="fill:#262626;" transform="translate(673.044062 104.9478)scale(0.11 -0.11)">
      <defs>
       <path d="M 422 -1272 
L 422 3319 
L 934 3319 
L 934 2888 
Q 1116 3141 1344 3267 
Q 1572 3394 1897 3394 
Q 2322 3394 2647 3175 
Q 2972 2956 3137 2557 
Q 3303 2159 3303 1684 
Q 3303 1175 3120 767 
Q 2938 359 2589 142 
Q 2241 -75 1856 -75 
Q 1575 -75 1351 44 
Q 1128 163 984 344 
L 984 -1272 
L 422 -1272 
z
M 931 1641 
Q 931 1000 1190 694 
Q 1450 388 1819 388 
Q 2194 388 2461 705 
Q 2728 1022 2728 1688 
Q 2728 2322 2467 2637 
Q 2206 2953 1844 2953 
Q 1484 2953 1207 2617 
Q 931 2281 931 1641 
z
" id="ArialMT-70" transform="scale(0.015625)"/>
       <path d="M 2575 0 
L 2575 419 
Q 2259 -75 1647 -75 
Q 1250 -75 917 144 
Q 584 363 401 755 
Q 219 1147 219 1656 
Q 219 2153 384 2558 
Q 550 2963 881 3178 
Q 1213 3394 1622 3394 
Q 1922 3394 2156 3267 
Q 2391 3141 2538 2938 
L 2538 4581 
L 3097 4581 
L 3097 0 
L 2575 0 
z
M 797 1656 
Q 797 1019 1065 703 
Q 1334 388 1700 388 
Q 2069 388 2326 689 
Q 2584 991 2584 1609 
Q 2584 2291 2321 2609 
Q 2059 2928 1675 2928 
Q 1300 2928 1048 2622 
Q 797 2316 797 1656 
z
" id="ArialMT-64" transform="scale(0.015625)"/>
       <path d="M -97 -1272 
L -97 -866 
L 3631 -866 
L 3631 -1272 
L -97 -1272 
z
" id="ArialMT-5f" transform="scale(0.015625)"/>
      </defs>
      <use xlink:href="#ArialMT-73"/>
      <use x="50" xlink:href="#ArialMT-70"/>
      <use x="105.615234" xlink:href="#ArialMT-6c"/>
      <use x="127.832031" xlink:href="#ArialMT-69"/>
      <use x="150.048828" xlink:href="#ArialMT-74"/>
      <use x="177.832031" xlink:href="#ArialMT-74"/>
      <use x="205.615234" xlink:href="#ArialMT-65"/>
      <use x="261.230469" xlink:href="#ArialMT-64"/>
      <use x="316.845703" xlink:href="#ArialMT-5f"/>
      <use x="372.460938" xlink:href="#ArialMT-33"/>
      <use x="428.076172" xlink:href="#ArialMT-73"/>
     </g>
    </g>
    <g id="line2d_15">
     <path d="M 642.244062 116.6903 
L 664.244062 116.6903 
" style="fill:none;stroke:#55a868;stroke-dasharray:1.5,1.5;stroke-dashoffset:0;stroke-width:1.5;"/>
    </g>
    <g id="line2d_16"/>
    <g id="text_19">
     <!-- splitted_1s -->
     <g style="fill:#262626;" transform="translate(673.044062 120.5403)scale(0.11 -0.11)">
      <use xlink:href="#ArialMT-73"/>
      <use x="50" xlink:href="#ArialMT-70"/>
      <use x="105.615234" xlink:href="#ArialMT-6c"/>
      <use x="127.832031" xlink:href="#ArialMT-69"/>
      <use x="150.048828" xlink:href="#ArialMT-74"/>
      <use x="177.832031" xlink:href="#ArialMT-74"/>
      <use x="205.615234" xlink:href="#ArialMT-65"/>
      <use x="261.230469" xlink:href="#ArialMT-64"/>
      <use x="316.845703" xlink:href="#ArialMT-5f"/>
      <use x="372.460938" xlink:href="#ArialMT-31"/>
      <use x="428.076172" xlink:href="#ArialMT-73"/>
     </g>
    </g>
    <g id="line2d_17">
     <path d="M 642.244062 132.384206 
L 664.244062 132.384206 
" style="fill:none;stroke:#c44e52;stroke-dasharray:4.5,1.875,2.25,1.875;stroke-dashoffset:0;stroke-width:1.5;"/>
    </g>
    <g id="line2d_18"/>
    <g id="text_20">
     <!-- overlap_1f_3s -->
     <g style="fill:#262626;" transform="translate(673.044062 136.234206)scale(0.11 -0.11)">
      <use xlink:href="#ArialMT-6f"/>
      <use x="55.615234" xlink:href="#ArialMT-76"/>
      <use x="105.615234" xlink:href="#ArialMT-65"/>
      <use x="161.230469" xlink:href="#ArialMT-72"/>
      <use x="194.53125" xlink:href="#ArialMT-6c"/>
      <use x="216.748047" xlink:href="#ArialMT-61"/>
      <use x="272.363281" xlink:href="#ArialMT-70"/>
      <use x="327.978516" xlink:href="#ArialMT-5f"/>
      <use x="383.59375" xlink:href="#ArialMT-31"/>
      <use x="439.208984" xlink:href="#ArialMT-66"/>
      <use x="466.992188" xlink:href="#ArialMT-5f"/>
      <use x="522.607422" xlink:href="#ArialMT-33"/>
      <use x="578.222656" xlink:href="#ArialMT-73"/>
     </g>
    </g>
    <g id="line2d_19">
     <path d="M 642.244062 148.078113 
L 664.244062 148.078113 
" style="fill:none;stroke:#8172b3;stroke-dasharray:7.5,1.5,1.5,1.5;stroke-dashoffset:0;stroke-width:1.5;"/>
    </g>
    <g id="line2d_20"/>
    <g id="text_21">
     <!-- overlap_10f_3s -->
     <g style="fill:#262626;" transform="translate(673.044062 151.928112)scale(0.11 -0.11)">
      <use xlink:href="#ArialMT-6f"/>
      <use x="55.615234" xlink:href="#ArialMT-76"/>
      <use x="105.615234" xlink:href="#ArialMT-65"/>
      <use x="161.230469" xlink:href="#ArialMT-72"/>
      <use x="194.53125" xlink:href="#ArialMT-6c"/>
      <use x="216.748047" xlink:href="#ArialMT-61"/>
      <use x="272.363281" xlink:href="#ArialMT-70"/>
      <use x="327.978516" xlink:href="#ArialMT-5f"/>
      <use x="383.59375" xlink:href="#ArialMT-31"/>
      <use x="439.208984" xlink:href="#ArialMT-30"/>
      <use x="494.824219" xlink:href="#ArialMT-66"/>
      <use x="522.607422" xlink:href="#ArialMT-5f"/>
      <use x="578.222656" xlink:href="#ArialMT-33"/>
      <use x="633.837891" xlink:href="#ArialMT-73"/>
     </g>
    </g>
   </g>
  </g>
 </g>
 <defs>
  <clipPath id="p4f76353f6a">
   <rect height="458.4888" width="652.86" x="105.3" y="71.4528"/>
  </clipPath>
 </defs>
</svg>
