<?xml version="1.0" encoding="utf-8" standalone="no"?>
<!DOCTYPE svg PUBLIC "-//W3C//DTD SVG 1.1//EN"
  "http://www.w3.org/Graphics/SVG/1.1/DTD/svg11.dtd">
<svg height="595.44pt" version="1.1" viewBox="0 0 842.4 595.44" width="842.4pt" xmlns="http://www.w3.org/2000/svg" xmlns:xlink="http://www.w3.org/1999/xlink">
 <metadata>
  <rdf:RDF xmlns:cc="http://creativecommons.org/ns#" xmlns:dc="http://purl.org/dc/elements/1.1/" xmlns:rdf="http://www.w3.org/1999/02/22-rdf-syntax-ns#">
   <cc:Work>
    <dc:type rdf:resource="http://purl.org/dc/dcmitype/StillImage"/>
    <dc:date>2021-06-01T00:54:11.186044</dc:date>
    <dc:format>image/svg+xml</dc:format>
    <dc:creator>
     <cc:Agent>
      <dc:title>Matplotlib v3.4.1, https://matplotlib.org/</dc:title>
     </cc:Agent>
    </dc:creator>
   </cc:Work>
  </rdf:RDF>
 </metadata>
 <defs>
  <style type="text/css">*{stroke-linecap:butt;stroke-linejoin:round;}</style>
 </defs>
 <g id="figure_1">
  <g id="patch_1">
   <path d="M 0 595.44 
L 842.4 595.44 
L 842.4 0 
L 0 0 
z
" style="fill:#ffffff;"/>
  </g>
  <g id="axes_1">
   <g id="patch_2">
    <path d="M 105.3 529.9416 
L 758.16 529.9416 
L 758.16 71.4528 
L 105.3 71.4528 
z
" style="fill:#ffffff;"/>
   </g>
   <g id="matplotlib.axis_1">
    <g id="xtick_1">
     <g id="text_1">
      <!-- 0 -->
      <g style="fill:#262626;" transform="translate(131.916939 547.315194)scale(0.11 -0.11)">
       <defs>
        <path d="M 266 2259 
Q 266 3072 433 3567 
Q 600 4063 929 4331 
Q 1259 4600 1759 4600 
Q 2128 4600 2406 4451 
Q 2684 4303 2865 4023 
Q 3047 3744 3150 3342 
Q 3253 2941 3253 2259 
Q 3253 1453 3087 958 
Q 2922 463 2592 192 
Q 2263 -78 1759 -78 
Q 1097 -78 719 397 
Q 266 969 266 2259 
z
M 844 2259 
Q 844 1131 1108 757 
Q 1372 384 1759 384 
Q 2147 384 2411 759 
Q 2675 1134 2675 2259 
Q 2675 3391 2411 3762 
Q 2147 4134 1753 4134 
Q 1366 4134 1134 3806 
Q 844 3388 844 2259 
z
" id="ArialMT-30" transform="scale(0.015625)"/>
       </defs>
       <use xlink:href="#ArialMT-30"/>
      </g>
     </g>
    </g>
    <g id="xtick_2">
     <g id="text_2">
      <!-- 25 -->
      <g style="fill:#262626;" transform="translate(201.950676 547.315194)scale(0.11 -0.11)">
       <defs>
        <path d="M 3222 541 
L 3222 0 
L 194 0 
Q 188 203 259 391 
Q 375 700 629 1000 
Q 884 1300 1366 1694 
Q 2113 2306 2375 2664 
Q 2638 3022 2638 3341 
Q 2638 3675 2398 3904 
Q 2159 4134 1775 4134 
Q 1369 4134 1125 3890 
Q 881 3647 878 3216 
L 300 3275 
Q 359 3922 746 4261 
Q 1134 4600 1788 4600 
Q 2447 4600 2831 4234 
Q 3216 3869 3216 3328 
Q 3216 3053 3103 2787 
Q 2991 2522 2730 2228 
Q 2469 1934 1863 1422 
Q 1356 997 1212 845 
Q 1069 694 975 541 
L 3222 541 
z
" id="ArialMT-32" transform="scale(0.015625)"/>
        <path d="M 266 1200 
L 856 1250 
Q 922 819 1161 601 
Q 1400 384 1738 384 
Q 2144 384 2425 690 
Q 2706 997 2706 1503 
Q 2706 1984 2436 2262 
Q 2166 2541 1728 2541 
Q 1456 2541 1237 2417 
Q 1019 2294 894 2097 
L 366 2166 
L 809 4519 
L 3088 4519 
L 3088 3981 
L 1259 3981 
L 1013 2750 
Q 1425 3038 1878 3038 
Q 2478 3038 2890 2622 
Q 3303 2206 3303 1553 
Q 3303 931 2941 478 
Q 2500 -78 1738 -78 
Q 1113 -78 717 272 
Q 322 622 266 1200 
z
" id="ArialMT-35" transform="scale(0.015625)"/>
       </defs>
       <use xlink:href="#ArialMT-32"/>
       <use x="55.615234" xlink:href="#ArialMT-35"/>
      </g>
     </g>
    </g>
    <g id="xtick_3">
     <g id="text_3">
      <!-- 50 -->
      <g style="fill:#262626;" transform="translate(275.042928 547.315194)scale(0.11 -0.11)">
       <use xlink:href="#ArialMT-35"/>
       <use x="55.615234" xlink:href="#ArialMT-30"/>
      </g>
     </g>
    </g>
    <g id="xtick_4">
     <g id="text_4">
      <!-- 75 -->
      <g style="fill:#262626;" transform="translate(348.135181 547.315194)scale(0.11 -0.11)">
       <defs>
        <path d="M 303 3981 
L 303 4522 
L 3269 4522 
L 3269 4084 
Q 2831 3619 2401 2847 
Q 1972 2075 1738 1259 
Q 1569 684 1522 0 
L 944 0 
Q 953 541 1156 1306 
Q 1359 2072 1739 2783 
Q 2119 3494 2547 3981 
L 303 3981 
z
" id="ArialMT-37" transform="scale(0.015625)"/>
       </defs>
       <use xlink:href="#ArialMT-37"/>
       <use x="55.615234" xlink:href="#ArialMT-35"/>
      </g>
     </g>
    </g>
    <g id="xtick_5">
     <g id="text_5">
      <!-- 100 -->
      <g style="fill:#262626;" transform="translate(418.168918 547.315194)scale(0.11 -0.11)">
       <defs>
        <path d="M 2384 0 
L 1822 0 
L 1822 3584 
Q 1619 3391 1289 3197 
Q 959 3003 697 2906 
L 697 3450 
Q 1169 3672 1522 3987 
Q 1875 4303 2022 4600 
L 2384 4600 
L 2384 0 
z
" id="ArialMT-31" transform="scale(0.015625)"/>
       </defs>
       <use xlink:href="#ArialMT-31"/>
       <use x="55.615234" xlink:href="#ArialMT-30"/>
       <use x="111.230469" xlink:href="#ArialMT-30"/>
      </g>
     </g>
    </g>
    <g id="xtick_6">
     <g id="text_6">
      <!-- 125 -->
      <g style="fill:#262626;" transform="translate(491.261171 547.315194)scale(0.11 -0.11)">
       <use xlink:href="#ArialMT-31"/>
       <use x="55.615234" xlink:href="#ArialMT-32"/>
       <use x="111.230469" xlink:href="#ArialMT-35"/>
      </g>
     </g>
    </g>
    <g id="xtick_7">
     <g id="text_7">
      <!-- 150 -->
      <g style="fill:#262626;" transform="translate(564.353423 547.315194)scale(0.11 -0.11)">
       <use xlink:href="#ArialMT-31"/>
       <use x="55.615234" xlink:href="#ArialMT-35"/>
       <use x="111.230469" xlink:href="#ArialMT-30"/>
      </g>
     </g>
    </g>
    <g id="xtick_8">
     <g id="text_8">
      <!-- 175 -->
      <g style="fill:#262626;" transform="translate(637.445676 547.315194)scale(0.11 -0.11)">
       <use xlink:href="#ArialMT-31"/>
       <use x="55.615234" xlink:href="#ArialMT-37"/>
       <use x="111.230469" xlink:href="#ArialMT-35"/>
      </g>
     </g>
    </g>
    <g id="xtick_9">
     <g id="text_9">
      <!-- 200 -->
      <g style="fill:#262626;" transform="translate(710.537928 547.315194)scale(0.11 -0.11)">
       <use xlink:href="#ArialMT-32"/>
       <use x="55.615234" xlink:href="#ArialMT-30"/>
       <use x="111.230469" xlink:href="#ArialMT-30"/>
      </g>
     </g>
    </g>
   </g>
   <g id="matplotlib.axis_2">
    <g id="ytick_1">
     <g id="text_10">
      <!-- −25 -->
      <g style="fill:#262626;" transform="translate(77.14125 533.878397)scale(0.11 -0.11)">
       <defs>
        <path d="M 3381 1997 
L 356 1997 
L 356 2522 
L 3381 2522 
L 3381 1997 
z
" id="ArialMT-2212" transform="scale(0.015625)"/>
       </defs>
       <use xlink:href="#ArialMT-2212"/>
       <use x="58.398438" xlink:href="#ArialMT-32"/>
       <use x="114.013672" xlink:href="#ArialMT-35"/>
      </g>
     </g>
    </g>
    <g id="ytick_2">
     <g id="text_11">
      <!-- −20 -->
      <g style="fill:#262626;" transform="translate(77.14125 442.180637)scale(0.11 -0.11)">
       <use xlink:href="#ArialMT-2212"/>
       <use x="58.398438" xlink:href="#ArialMT-32"/>
       <use x="114.013672" xlink:href="#ArialMT-30"/>
      </g>
     </g>
    </g>
    <g id="ytick_3">
     <g id="text_12">
      <!-- −15 -->
      <g style="fill:#262626;" transform="translate(77.14125 350.482877)scale(0.11 -0.11)">
       <use xlink:href="#ArialMT-2212"/>
       <use x="58.398438" xlink:href="#ArialMT-31"/>
       <use x="114.013672" xlink:href="#ArialMT-35"/>
      </g>
     </g>
    </g>
    <g id="ytick_4">
     <g id="text_13">
      <!-- −10 -->
      <g style="fill:#262626;" transform="translate(77.14125 258.785117)scale(0.11 -0.11)">
       <use xlink:href="#ArialMT-2212"/>
       <use x="58.398438" xlink:href="#ArialMT-31"/>
       <use x="114.013672" xlink:href="#ArialMT-30"/>
      </g>
     </g>
    </g>
    <g id="ytick_5">
     <g id="text_14">
      <!-- −5 -->
      <g style="fill:#262626;" transform="translate(83.258281 167.087357)scale(0.11 -0.11)">
       <use xlink:href="#ArialMT-2212"/>
       <use x="58.398438" xlink:href="#ArialMT-35"/>
      </g>
     </g>
    </g>
    <g id="ytick_6">
     <g id="text_15">
      <!-- 0 -->
      <g style="fill:#262626;" transform="translate(89.682969 75.389597)scale(0.11 -0.11)">
       <use xlink:href="#ArialMT-30"/>
      </g>
     </g>
    </g>
   </g>
   <g id="line2d_1">
    <path clip-path="url(#p3dfef7b1b3)" d="M 134.975455 424.491869 
L 137.899145 423.936143 
L 140.822835 420.917271 
L 143.746525 423.215032 
L 146.670215 421.053938 
L 149.593905 425.191363 
L 152.517595 422.807411 
L 155.441285 423.026246 
L 158.364975 422.353687 
L 161.288665 421.463448 
L 164.212356 420.806 
L 167.136046 422.233671 
L 170.059736 426.35399 
L 172.983426 433.89839 
L 175.907116 429.982982 
L 178.830806 447.867725 
L 181.754496 433.314295 
L 184.678186 365.95133 
L 187.601876 366.152605 
L 190.525567 485.860115 
L 193.449257 476.549615 
L 196.372947 392.920358 
L 199.296637 343.875888 
L 202.220327 304.829378 
L 205.144017 404.591863 
L 208.067707 522.431901 
L 210.991397 487.45534 
L 213.915087 494.441319 
L 216.838777 494.074415 
L 219.762468 458.312659 
L 222.686158 420.860779 
L 225.609848 454.397427 
L 228.533538 516.987137 
L 231.457228 410.342282 
L 234.380918 335.685585 
L 237.304608 474.026549 
L 240.228298 489.043498 
L 243.151988 344.467416 
L 246.075678 350.515986 
L 248.999369 374.028928 
L 251.923059 482.674704 
L 254.846749 449.404568 
L 257.770439 456.684729 
L 260.694129 400.705769 
L 263.617819 484.227952 
L 266.541509 346.292895 
L 269.465199 343.455919 
L 272.388889 351.981015 
L 275.312579 358.062152 
L 278.23627 377.840025 
L 281.15996 372.153865 
L 284.08365 343.965174 
L 287.00734 383.388435 
L 289.93103 474.096334 
L 292.85472 448.183454 
L 295.77841 380.599626 
L 298.7021 379.29561 
L 301.62579 337.931995 
L 304.549481 346.001495 
L 307.473171 372.063896 
L 310.396861 478.842059 
L 313.320551 401.515484 
L 316.244241 380.831438 
L 319.167931 452.76397 
L 322.091621 455.812155 
L 325.015311 384.08576 
L 327.939001 446.196805 
L 330.862691 510.974298 
L 333.786382 468.866556 
L 336.710072 363.200072 
L 339.633762 456.741571 
L 342.557452 502.443536 
L 345.481142 319.739044 
L 348.404832 385.327302 
L 351.328522 413.387179 
L 354.252212 495.622346 
L 357.175902 512.746171 
L 360.099592 467.968551 
L 363.023283 527.503779 
L 365.946973 477.144764 
L 368.870663 485.104059 
L 374.718043 402.093143 
L 377.641733 445.780474 
L 380.565423 442.684191 
L 383.489113 342.18272 
L 386.412803 298.057755 
L 389.336494 363.812431 
L 392.260184 451.998784 
L 395.183874 466.53364 
L 398.107564 425.880852 
L 401.031254 427.395972 
L 403.954944 456.765428 
L 406.878634 506.567738 
L 409.802324 468.65059 
L 412.726014 463.149892 
L 415.649704 537.886869 
L 418.573395 502.441856 
L 421.497085 561.417651 
L 423.493372 596.44 
M 424.84872 596.44 
L 427.344465 501.553961 
L 430.268155 497.115639 
L 433.191845 443.215676 
L 436.115535 337.442066 
L 439.039225 424.568615 
L 441.962915 436.852339 
L 444.886605 395.30431 
L 447.810296 381.177355 
L 450.733986 430.773493 
L 453.657676 447.176522 
L 456.581366 424.892844 
L 459.505056 491.886351 
L 462.428746 419.182093 
L 468.276126 366.963859 
L 471.199816 430.376821 
L 474.123506 508.292038 
L 477.047197 483.060428 
L 479.970887 296.277959 
L 482.894577 285.613089 
L 485.818267 290.75066 
L 488.741957 383.92975 
L 491.665647 446.936595 
L 494.589337 446.695408 
L 497.513027 494.266315 
L 500.436717 437.991355 
L 503.360408 337.291932 
L 506.284098 367.074535 
L 509.207788 499.958247 
L 512.131478 551.504412 
L 515.055168 543.313864 
L 517.978858 434.102357 
L 520.902548 431.278219 
L 523.826238 460.046089 
L 526.749928 467.076248 
L 529.673618 549.305889 
L 532.597309 562.518784 
L 535.520999 390.961728 
L 538.444689 319.940843 
L 541.368379 493.291354 
L 544.292069 451.409827 
L 547.215759 407.454795 
L 550.139449 489.240295 
L 553.063139 420.743666 
L 555.986829 499.60544 
L 558.910519 463.421162 
L 561.83421 438.943438 
L 564.7579 482.172672 
L 567.68159 420.933432 
L 570.60528 432.723449 
L 573.52897 428.438969 
L 576.45266 411.329031 
L 579.37635 407.683354 
L 582.30004 426.642785 
L 585.22373 430.945455 
L 588.147421 434.994555 
L 591.071111 362.756159 
L 593.994801 397.826467 
L 596.918491 389.868745 
L 599.842181 456.287882 
L 602.765871 371.174217 
L 605.689561 326.956101 
L 608.613251 414.8924 
L 611.536941 461.243697 
L 614.460631 436.141477 
L 617.384322 383.636793 
L 620.308012 470.727977 
L 623.231702 476.407492 
L 626.155392 483.437336 
L 629.079082 461.930597 
L 632.002772 443.219034 
L 634.926462 461.015803 
L 637.850152 457.307616 
L 640.773842 366.046546 
L 643.697532 336.073267 
L 646.621223 351.19785 
L 649.544913 410.549888 
L 652.468603 504.441693 
L 655.392293 513.134728 
L 658.315983 408.980024 
L 661.239673 444.733979 
L 664.163363 376.292899 
L 667.087053 471.245295 
L 670.010743 462.920774 
L 672.934433 497.182171 
L 675.858124 515.36197 
L 678.781814 453.971441 
L 681.705504 477.971969 
L 684.629194 532.145335 
L 687.552884 498.443582 
L 690.476574 587.293242 
L 693.400264 533.668675 
L 696.323954 541.433098 
L 699.247644 503.117913 
L 702.171335 458.45083 
L 705.095025 443.734183 
L 708.018715 431.28504 
L 710.942405 433.156361 
L 713.866095 434.221149 
L 716.789785 434.044466 
L 719.713475 433.196063 
L 722.637165 434.63832 
L 725.560855 431.79795 
L 728.484545 438.102591 
L 728.484545 438.102591 
" style="fill:none;stroke:#4c72b0;stroke-linecap:round;stroke-width:1.5;"/>
   </g>
   <g id="line2d_2">
    <path clip-path="url(#p3dfef7b1b3)" d="M 134.975455 432.46089 
L 137.899145 436.970116 
L 140.822835 431.047421 
L 143.746525 433.568459 
L 146.670215 433.331785 
L 149.593905 436.063227 
L 152.517595 430.179989 
L 155.441285 426.943332 
L 158.364975 420.56247 
L 161.288665 415.028332 
L 164.212356 410.217614 
L 167.136046 408.724741 
L 170.059736 400.641476 
L 172.983426 404.501615 
L 175.907116 396.882009 
L 178.830806 410.641745 
L 181.754496 387.129713 
L 184.678186 345.473823 
L 187.601876 319.881674 
L 190.525567 454.648828 
L 193.449257 437.278744 
L 196.372947 360.095744 
L 199.296637 303.386841 
L 202.220327 263.080162 
L 205.144017 398.559856 
L 208.067707 492.671825 
L 210.991397 478.455426 
L 213.915087 456.242338 
L 216.838777 475.92295 
L 219.762468 436.520344 
L 222.686158 415.232685 
L 225.609848 441.686249 
L 228.533538 492.239019 
L 231.457228 383.72879 
L 234.380918 288.698178 
L 237.304608 428.793035 
L 240.228298 468.263887 
L 243.151988 322.638547 
L 246.075678 313.988852 
L 248.999369 372.304488 
L 251.923059 469.504415 
L 254.846749 424.756423 
L 257.770439 432.654329 
L 260.694129 393.104493 
L 263.617819 475.352008 
L 266.541509 341.192421 
L 269.465199 330.056791 
L 272.388889 363.062146 
L 275.312579 367.890022 
L 278.23627 373.629772 
L 281.15996 374.622153 
L 284.08365 340.863854 
L 287.00734 373.202178 
L 289.93103 475.194003 
L 292.85472 457.806395 
L 295.77841 363.485736 
L 298.7021 359.772687 
L 301.62579 321.451608 
L 304.549481 331.445773 
L 307.473171 370.469092 
L 310.396861 455.35829 
L 313.320551 413.079216 
L 316.244241 378.002332 
L 319.167931 461.097236 
L 322.091621 457.091405 
L 325.015311 368.778757 
L 327.939001 438.790331 
L 330.862691 479.749263 
L 333.786382 454.989322 
L 336.710072 385.548305 
L 339.633762 470.575255 
L 342.557452 479.865607 
L 345.481142 307.128118 
L 348.404832 380.240557 
L 351.328522 450.362353 
L 354.252212 459.325643 
L 357.175902 384.175134 
L 360.099592 302.570532 
L 363.023283 329.549407 
L 365.946973 383.222071 
L 368.870663 373.555895 
L 371.794353 373.744996 
L 374.718043 327.574004 
L 377.641733 350.91843 
L 380.565423 398.477024 
L 383.489113 302.447753 
L 386.412803 285.696201 
L 389.336494 348.962808 
L 392.260184 473.872007 
L 395.183874 471.527233 
L 398.107564 395.287834 
L 401.031254 381.499485 
L 403.954944 465.395184 
L 406.878634 487.477307 
L 409.802324 486.147196 
L 415.649704 489.232285 
L 418.573395 434.990533 
L 421.497085 512.518067 
L 424.420775 552.039534 
L 427.344465 460.404843 
L 430.268155 443.535882 
L 433.191845 414.177236 
L 436.115535 318.327114 
L 439.039225 440.653921 
L 441.962915 445.714921 
L 444.886605 362.253813 
L 447.810296 341.926649 
L 450.733986 444.084367 
L 453.657676 432.36529 
L 456.581366 435.575222 
L 459.505056 489.554415 
L 462.428746 401.763282 
L 465.352436 384.003977 
L 468.276126 346.049033 
L 474.123506 473.130538 
L 477.047197 501.780491 
L 479.970887 301.325789 
L 482.894577 272.659903 
L 485.818267 291.452724 
L 488.741957 379.754127 
L 491.665647 453.865802 
L 494.589337 439.756722 
L 497.513027 489.503274 
L 500.436717 431.900616 
L 503.360408 322.885977 
L 506.284098 362.518348 
L 509.207788 479.193363 
L 512.131478 542.178695 
L 515.055168 545.287955 
L 517.978858 452.374783 
L 520.902548 435.104602 
L 523.826238 455.151454 
L 526.749928 465.517648 
L 529.673618 557.588854 
L 532.597309 563.326365 
L 535.520999 384.777068 
L 538.444689 338.32816 
L 541.368379 460.548436 
L 544.292069 445.541491 
L 547.215759 363.612573 
L 550.139449 449.273638 
L 553.063139 427.241781 
L 555.986829 437.914014 
L 558.910519 362.145655 
L 561.83421 308.127914 
L 564.7579 357.420812 
L 567.68159 366.095098 
L 570.60528 540.95919 
L 573.52897 333.505776 
L 576.45266 380.452746 
L 579.37635 408.666534 
L 582.30004 383.941993 
L 585.22373 431.626934 
L 588.147421 399.527296 
L 591.071111 303.919393 
L 593.994801 347.609837 
L 596.918491 336.547822 
L 599.842181 476.83687 
L 602.765871 339.535212 
L 605.689561 304.733078 
L 608.613251 422.473528 
L 611.536941 440.759456 
L 614.460631 433.95002 
L 617.384322 437.239811 
L 620.308012 491.741394 
L 623.231702 472.328973 
L 626.155392 499.202961 
L 629.079082 431.927726 
L 632.002772 452.316821 
L 634.926462 485.088703 
L 637.850152 433.973771 
L 640.773842 376.417077 
L 643.697532 334.876656 
L 646.621223 343.441997 
L 649.544913 406.239732 
L 652.468603 479.430212 
L 655.392293 506.628393 
L 658.315983 355.218284 
L 661.239673 421.325067 
L 664.163363 354.847514 
L 667.087053 457.205825 
L 670.010743 459.967909 
L 672.934433 483.482425 
L 675.858124 496.66961 
L 678.781814 460.705391 
L 681.705504 468.544845 
L 684.629194 518.492183 
L 687.552884 469.419308 
L 690.476574 557.016722 
L 693.400264 534.927043 
L 696.323954 525.733865 
L 702.171335 434.971154 
L 705.095025 420.688468 
L 708.018715 414.157332 
L 710.942405 418.12409 
L 713.866095 414.447106 
L 716.789785 418.345268 
L 719.713475 413.616578 
L 722.637165 414.402611 
L 725.560855 416.118761 
L 728.484545 419.884559 
L 728.484545 419.884559 
" style="fill:none;stroke:#dd8452;stroke-dasharray:6,2.25;stroke-dashoffset:0;stroke-width:1.5;"/>
   </g>
   <g id="line2d_3">
    <path clip-path="url(#p3dfef7b1b3)" d="M 134.975455 443.416566 
L 137.899145 447.06665 
L 140.822835 437.923284 
L 143.746525 437.86938 
L 146.670215 441.446741 
L 149.593905 439.477687 
L 152.517595 434.61226 
L 155.441285 453.367443 
L 158.364975 448.141408 
L 161.288665 424.374792 
L 164.212356 420.637467 
L 167.136046 415.508222 
L 170.059736 399.927326 
L 172.983426 407.982537 
L 175.907116 400.925933 
L 178.830806 407.84699 
L 181.754496 366.96148 
L 184.678186 294.125365 
L 187.601876 303.292675 
L 190.525567 389.316482 
L 193.449257 457.288832 
L 196.372947 432.584754 
L 199.296637 425.572259 
L 202.220327 366.888897 
L 205.144017 364.333806 
L 208.067707 344.271423 
L 210.991397 406.131295 
L 213.915087 444.966386 
L 216.838777 409.462012 
L 219.762468 395.654739 
L 222.686158 431.125811 
L 225.609848 397.255315 
L 228.533538 465.495926 
L 231.457228 379.149848 
L 234.380918 299.513637 
L 237.304608 420.177901 
L 240.228298 481.671585 
L 243.151988 330.756004 
L 246.075678 290.490759 
L 248.999369 398.077028 
L 251.923059 421.606201 
L 254.846749 404.454007 
L 257.770439 432.805267 
L 260.694129 412.736133 
L 263.617819 485.549284 
L 266.541509 396.554142 
L 269.465199 399.797481 
L 272.388889 400.413372 
L 275.312579 364.123734 
L 278.23627 350.449437 
L 281.15996 368.014936 
L 284.08365 351.247888 
L 287.00734 359.000191 
L 289.93103 409.250209 
L 292.85472 420.308621 
L 295.77841 378.018668 
L 298.7021 376.413719 
L 301.62579 365.363703 
L 304.549481 342.942099 
L 307.473171 398.949812 
L 310.396861 521.644783 
L 313.320551 467.49132 
L 316.244241 397.696272 
L 319.167931 513.051581 
L 322.091621 485.317682 
L 325.015311 404.080247 
L 327.939001 449.981387 
L 330.862691 516.84204 
L 333.786382 489.390149 
L 336.710072 400.68653 
L 339.633762 499.576511 
L 342.557452 526.99804 
L 345.481142 312.472158 
L 348.404832 415.575313 
L 351.328522 498.13387 
L 354.252212 466.909009 
L 357.175902 482.178409 
L 360.099592 391.674723 
L 363.023283 460.455844 
L 365.946973 439.083183 
L 368.870663 478.28301 
L 371.794353 349.227518 
L 374.718043 363.333503 
L 377.641733 342.719102 
L 380.565423 361.709036 
L 383.489113 333.306583 
L 386.412803 299.749524 
L 389.336494 399.450445 
L 392.260184 512.184184 
L 395.183874 501.166314 
L 398.107564 405.72182 
L 401.031254 401.323794 
L 403.954944 476.061016 
L 406.878634 496.990481 
L 409.802324 502.154496 
L 412.726014 499.456985 
L 415.649704 450.974117 
L 418.573395 478.193077 
L 421.497085 463.019977 
L 424.420775 431.349753 
L 427.344465 376.635072 
L 430.268155 350.271179 
L 433.191845 295.471148 
L 436.115535 207.15543 
L 439.039225 377.822291 
L 441.962915 414.23915 
L 444.886605 343.898642 
L 447.810296 409.711769 
L 450.733986 433.0694 
L 453.657676 427.129041 
L 456.581366 489.017753 
L 459.505056 569.140482 
L 462.428746 433.382156 
L 465.352436 386.554118 
L 468.276126 349.348531 
L 471.199816 343.122648 
L 474.123506 430.331102 
L 477.047197 413.901594 
L 479.970887 307.367451 
L 482.894577 271.240452 
L 485.818267 265.004687 
L 488.741957 293.826846 
L 491.665647 390.098318 
L 494.589337 415.195606 
L 497.513027 445.827242 
L 500.436717 303.308468 
L 503.360408 305.183357 
L 506.284098 348.761708 
L 509.207788 407.703187 
L 512.131478 470.492667 
L 515.055168 494.524641 
L 517.978858 447.218183 
L 520.902548 447.636263 
L 523.826238 449.286371 
L 526.749928 485.086045 
L 529.673618 537.709591 
L 532.597309 552.557342 
L 535.520999 399.883986 
L 538.444689 336.918399 
L 541.368379 446.424034 
L 544.292069 419.943675 
L 547.215759 334.734638 
L 550.139449 427.31349 
L 553.063139 438.179092 
L 555.986829 374.19956 
L 558.910519 324.831053 
L 561.83421 283.667559 
L 564.7579 274.563632 
L 567.68159 308.876922 
L 570.60528 293.720892 
L 573.52897 450.051837 
L 576.45266 408.971839 
L 579.37635 441.247216 
L 582.30004 494.487948 
L 585.22373 501.813372 
L 588.147421 458.006235 
L 591.071111 370.55927 
L 593.994801 371.139412 
L 596.918491 381.585885 
L 599.842181 514.117244 
L 602.765871 402.058443 
L 605.689561 343.512831 
L 608.613251 450.601966 
L 611.536941 444.022453 
L 614.460631 438.162477 
L 617.384322 437.135711 
L 620.308012 459.807386 
L 626.155392 490.30316 
L 629.079082 408.893379 
L 632.002772 452.536495 
L 634.926462 497.96782 
L 637.850152 405.501236 
L 640.773842 407.281015 
L 643.697532 472.525665 
L 646.621223 309.854191 
L 649.544913 412.410785 
L 652.468603 502.035915 
L 655.392293 489.961931 
L 658.315983 351.929909 
L 661.239673 409.425074 
L 664.163363 361.605198 
L 667.087053 447.463532 
L 670.010743 454.67041 
L 672.934433 464.989871 
L 675.858124 511.84222 
L 678.781814 464.009209 
L 681.705504 471.938982 
L 684.629194 529.514775 
L 687.552884 490.414116 
L 690.476574 549.268915 
L 693.400264 537.056271 
L 696.323954 522.847672 
L 699.247644 461.075548 
L 702.171335 420.165658 
L 705.095025 404.317166 
L 708.018715 401.325543 
L 710.942405 405.66921 
L 713.866095 405.876501 
L 719.713475 400.809939 
L 722.637165 401.229873 
L 725.560855 396.222288 
L 728.484545 395.791755 
L 728.484545 395.791755 
" style="fill:none;stroke:#55a868;stroke-dasharray:1.5,1.5;stroke-dashoffset:0;stroke-width:1.5;"/>
   </g>
   <g id="line2d_4">
    <path clip-path="url(#p3dfef7b1b3)" d="M 134.975455 431.620147 
L 137.899145 436.191323 
L 140.822835 430.376996 
L 143.746525 432.857667 
L 146.670215 432.609834 
L 149.593905 435.599393 
L 152.517595 429.7872 
L 155.441285 426.875926 
L 158.364975 420.65027 
L 161.288665 415.19683 
L 164.212356 410.317202 
L 167.136046 408.975407 
L 170.059736 401.115454 
L 172.983426 404.883876 
L 175.907116 397.132395 
L 178.830806 411.058006 
L 181.754496 387.714997 
L 184.678186 345.071799 
L 187.601876 320.03709 
L 190.525567 455.624627 
L 193.449257 439.469781 
L 196.372947 359.966388 
L 199.296637 303.552908 
L 202.220327 265.737254 
L 205.144017 398.208448 
L 208.067707 495.786507 
L 210.991397 475.870865 
L 213.915087 463.92064 
L 216.838777 471.512472 
L 219.762468 436.877839 
L 222.686158 415.462328 
L 225.609848 442.392319 
L 228.533538 494.123562 
L 231.457228 385.907374 
L 234.380918 291.448072 
L 237.304608 433.71429 
L 240.228298 472.027516 
L 243.151988 323.609554 
L 246.075678 317.333685 
L 248.999369 371.897637 
L 251.923059 469.700652 
L 254.846749 422.17452 
L 257.770439 429.732526 
L 260.694129 391.13131 
L 263.617819 474.153456 
L 266.541509 335.867603 
L 269.465199 327.791631 
L 272.388889 358.581971 
L 275.312579 369.909378 
L 278.23627 375.540585 
L 281.15996 370.052621 
L 284.08365 339.036468 
L 287.00734 380.845115 
L 289.93103 479.137849 
L 292.85472 451.135549 
L 295.77841 363.190628 
L 298.7021 360.085862 
L 301.62579 322.598093 
L 304.549481 335.872867 
L 307.473171 371.100584 
L 310.396861 456.341751 
L 313.320551 409.559467 
L 316.244241 380.326083 
L 319.167931 473.28305 
L 322.091621 467.946689 
L 325.015311 368.266756 
L 327.939001 429.268203 
L 330.862691 482.122651 
L 333.786382 449.193254 
L 336.710072 389.897639 
L 339.633762 478.894634 
L 342.557452 501.722704 
L 345.481142 321.023506 
L 348.404832 238.440499 
L 351.328522 360.681326 
L 354.252212 447.586767 
L 357.175902 382.023694 
L 360.099592 323.126569 
L 363.023283 463.2244 
L 365.946973 385.46222 
L 368.870663 396.763007 
L 371.794353 386.376525 
L 374.718043 343.175572 
L 377.641733 355.829471 
L 380.565423 408.628196 
L 383.489113 301.668767 
L 386.412803 287.439181 
L 389.336494 349.435421 
L 392.260184 472.121752 
L 395.183874 470.053215 
L 398.107564 399.499487 
L 401.031254 386.545198 
L 403.954944 467.122947 
L 406.878634 492.320907 
L 409.802324 489.966933 
L 412.726014 488.41218 
L 415.649704 494.569311 
L 418.573395 437.97453 
L 421.497085 520.721768 
L 424.420775 561.250202 
L 427.344465 459.967524 
L 430.268155 443.18276 
L 433.191845 411.98417 
L 436.115535 318.994671 
L 439.039225 442.249146 
L 441.962915 447.495889 
L 444.886605 362.983389 
L 447.810296 346.008159 
L 450.733986 440.019875 
L 453.657676 436.694404 
L 456.581366 439.070835 
L 459.505056 490.385468 
L 462.428746 403.960266 
L 465.352436 391.093952 
L 468.276126 346.638934 
L 471.199816 408.903768 
L 474.123506 479.912899 
L 477.047197 510.195016 
L 479.970887 303.164701 
L 482.894577 275.766259 
L 485.818267 292.71062 
L 488.741957 381.926624 
L 491.665647 455.151454 
L 494.589337 440.999698 
L 497.513027 490.340903 
L 500.436717 429.907286 
L 503.360408 322.294974 
L 506.284098 363.047035 
L 509.207788 478.882811 
L 512.131478 542.897218 
L 515.055168 544.918637 
L 517.978858 451.633978 
L 520.902548 435.488087 
L 523.826238 453.549339 
L 526.749928 464.684601 
L 529.673618 557.819686 
L 532.597309 563.480976 
L 535.520999 385.192769 
L 538.444689 339.253449 
L 541.368379 459.902322 
L 544.292069 446.921518 
L 547.215759 365.942096 
L 550.139449 451.204705 
L 553.063139 427.818145 
L 555.986829 439.878347 
L 558.910519 362.486027 
L 561.83421 308.420381 
L 564.7579 359.556914 
L 567.68159 366.830655 
L 570.60528 535.676033 
L 573.52897 288.806389 
L 576.45266 375.596169 
L 579.37635 377.401272 
L 582.30004 409.617918 
L 585.22373 463.359212 
L 588.147421 365.145113 
L 591.071111 285.493895 
L 593.994801 377.373148 
L 596.918491 381.264769 
L 599.842181 461.487996 
L 602.765871 341.012309 
L 605.689561 317.245325 
L 608.613251 413.689231 
L 611.536941 433.893702 
L 614.460631 440.337143 
L 617.384322 434.388598 
L 620.308012 487.395139 
L 623.231702 473.386311 
L 626.155392 493.680331 
L 629.079082 433.869006 
L 632.002772 452.746969 
L 634.926462 490.479144 
L 637.850152 434.680016 
L 640.773842 376.377025 
L 643.697532 336.910669 
L 646.621223 348.014659 
L 649.544913 403.208792 
L 652.468603 481.362048 
L 655.392293 509.829196 
L 658.315983 357.194177 
L 661.239673 422.769528 
L 664.163363 355.400879 
L 667.087053 457.864042 
L 670.010743 462.410907 
L 672.934433 483.08278 
L 675.858124 495.496104 
L 678.781814 461.233588 
L 681.705504 468.77197 
L 684.629194 519.970679 
L 687.552884 471.052801 
L 690.476574 557.573742 
L 693.400264 534.159828 
L 696.323954 525.029405 
L 699.247644 480.376663 
L 702.171335 433.716704 
L 705.095025 421.132363 
L 708.018715 415.605955 
L 710.942405 419.37791 
L 713.866095 415.933123 
L 716.789785 418.616222 
L 719.713475 414.670837 
L 722.637165 416.708767 
L 725.560855 417.786079 
L 728.484545 421.26763 
L 728.484545 421.26763 
" style="fill:none;stroke:#c44e52;stroke-dasharray:4.5,1.875,2.25,1.875;stroke-dashoffset:0;stroke-width:1.5;"/>
   </g>
   <g id="line2d_5">
    <path clip-path="url(#p3dfef7b1b3)" d="M 134.975455 435.177535 
L 137.899145 439.850398 
L 140.822835 434.416652 
L 143.746525 436.831386 
L 146.670215 437.239462 
L 149.593905 440.693379 
L 152.517595 435.489101 
L 155.441285 433.285506 
L 158.364975 427.599451 
L 161.288665 422.539185 
L 164.212356 416.053034 
L 167.136046 414.937909 
L 170.059736 406.652111 
L 172.983426 410.312269 
L 175.907116 401.188527 
L 178.830806 416.099207 
L 181.754496 397.733595 
L 184.678186 338.326219 
L 187.601876 336.280645 
L 190.525567 459.751593 
L 193.449257 451.071116 
L 196.372947 372.344365 
L 199.296637 316.075002 
L 202.220327 280.555308 
L 205.144017 402.077122 
L 208.067707 512.316968 
L 210.991397 484.904674 
L 213.915087 460.53287 
L 216.838777 478.367172 
L 219.762468 435.295557 
L 222.686158 412.294022 
L 225.609848 448.744042 
L 228.533538 496.142917 
L 231.457228 389.617764 
L 234.380918 297.742079 
L 237.304608 434.368485 
L 240.228298 476.862825 
L 243.151988 328.804527 
L 246.075678 319.09732 
L 248.999369 366.861298 
L 251.923059 474.075765 
L 254.846749 430.312493 
L 257.770439 439.551075 
L 260.694129 394.123178 
L 263.617819 477.618392 
L 266.541509 339.717877 
L 269.465199 333.728021 
L 272.388889 362.534299 
L 275.312579 373.328805 
L 278.23627 381.904307 
L 281.15996 383.85951 
L 284.08365 347.422275 
L 287.00734 381.433548 
L 289.93103 480.77449 
L 292.85472 454.925659 
L 295.77841 365.226651 
L 298.7021 361.87463 
L 301.62579 328.751393 
L 304.549481 338.204174 
L 307.473171 374.587802 
L 310.396861 474.084265 
L 313.320551 421.929345 
L 316.244241 380.220724 
L 319.167931 472.391097 
L 322.091621 469.519141 
L 325.015311 382.401302 
L 327.939001 430.58705 
L 330.862691 490.944762 
L 333.786382 459.41799 
L 336.710072 368.604732 
L 339.633762 464.919841 
L 342.557452 488.007673 
L 345.481142 312.198038 
L 348.404832 346.536006 
L 351.328522 399.89336 
L 354.252212 483.219236 
L 357.175902 522.42431 
L 360.099592 492.841583 
L 363.023283 560.535947 
L 365.946973 464.147905 
L 368.870663 463.04894 
L 371.794353 390.759649 
L 374.718043 356.975081 
L 377.641733 424.739073 
L 380.565423 446.206529 
L 383.489113 325.390225 
L 386.412803 278.116753 
L 389.336494 362.705788 
L 392.260184 476.396473 
L 395.183874 472.251178 
L 398.107564 387.705237 
L 401.031254 407.877107 
L 403.954944 469.654094 
L 406.878634 498.206838 
L 409.802324 498.385165 
L 412.726014 492.82049 
L 415.649704 520.745764 
L 418.573395 445.714956 
L 421.497085 537.587721 
L 424.420775 569.881882 
L 427.344465 463.893705 
L 430.268155 445.814509 
L 433.191845 417.217166 
L 436.115535 320.735254 
L 439.039225 444.048268 
L 441.962915 451.419621 
L 444.886605 369.426096 
L 447.810296 343.28408 
L 450.733986 442.426879 
L 453.657676 423.892384 
L 456.581366 425.341392 
L 459.505056 467.161634 
L 462.428746 398.31692 
L 465.352436 383.958643 
L 468.276126 353.679448 
L 471.199816 420.541517 
L 474.123506 490.765524 
L 477.047197 504.297156 
L 479.970887 304.51218 
L 482.894577 281.215816 
L 485.818267 303.400641 
L 488.741957 393.777192 
L 491.665647 467.18731 
L 494.589337 445.918399 
L 497.513027 493.287717 
L 500.436717 425.462492 
L 503.360408 319.860512 
L 506.284098 364.483223 
L 509.207788 488.326864 
L 512.131478 551.804714 
L 515.055168 549.169887 
L 517.978858 459.473573 
L 520.902548 435.659663 
L 523.826238 443.263773 
L 526.749928 452.584802 
L 529.673618 552.078782 
L 532.597309 541.130767 
L 535.520999 375.505675 
L 538.444689 328.688394 
L 541.368379 459.312036 
L 544.292069 448.787767 
L 547.215759 359.437457 
L 550.139449 448.073757 
L 553.063139 372.683705 
L 555.986829 399.339523 
L 558.910519 306.42385 
L 561.83421 289.188072 
L 564.7579 362.885603 
L 567.68159 292.269366 
L 570.60528 349.134542 
L 573.52897 383.300356 
L 576.45266 453.691952 
L 579.37635 385.972612 
L 582.30004 374.990386 
L 585.22373 442.937201 
L 588.147421 392.077237 
L 591.071111 312.208339 
L 593.994801 376.004349 
L 596.918491 386.922981 
L 599.842181 442.212032 
L 602.765871 340.633896 
L 605.689561 306.474116 
L 608.613251 410.782539 
L 611.536941 421.39055 
L 614.460631 441.626503 
L 617.384322 427.494196 
L 620.308012 480.031726 
L 623.231702 468.066355 
L 626.155392 479.944906 
L 629.079082 432.562332 
L 632.002772 446.984098 
L 634.926462 476.905641 
L 637.850152 428.614848 
L 640.773842 371.118214 
L 643.697532 343.016519 
L 646.621223 344.269954 
L 649.544913 383.716197 
L 652.468603 461.632044 
L 655.392293 498.565312 
L 658.315983 362.951277 
L 661.239673 411.964721 
L 664.163363 343.152223 
L 667.087053 451.252067 
L 670.010743 459.372901 
L 672.934433 483.664076 
L 675.858124 491.688784 
L 678.781814 445.297296 
L 681.705504 467.237191 
L 684.629194 507.979458 
L 687.552884 463.769282 
L 690.476574 545.687741 
L 693.400264 524.342259 
L 696.323954 523.33001 
L 699.247644 483.82313 
L 702.171335 432.19945 
L 705.095025 423.504596 
L 708.018715 418.929747 
L 710.942405 424.268278 
L 713.866095 422.012143 
L 716.789785 424.642598 
L 719.713475 420.846962 
L 722.637165 423.726404 
L 725.560855 422.613937 
L 728.484545 425.569076 
L 728.484545 425.569076 
" style="fill:none;stroke:#8172b3;stroke-dasharray:7.5,1.5,1.5,1.5;stroke-dashoffset:0;stroke-width:1.5;"/>
   </g>
   <g id="line2d_6"/>
   <g id="line2d_7"/>
   <g id="line2d_8"/>
   <g id="line2d_9"/>
   <g id="line2d_10"/>
   <g id="patch_3">
    <path d="M 105.3 529.9416 
L 105.3 71.4528 
" style="fill:none;stroke:#262626;stroke-linecap:square;stroke-linejoin:miter;stroke-width:1.25;"/>
   </g>
   <g id="patch_4">
    <path d="M 758.16 529.9416 
L 758.16 71.4528 
" style="fill:none;stroke:#262626;stroke-linecap:square;stroke-linejoin:miter;stroke-width:1.25;"/>
   </g>
   <g id="patch_5">
    <path d="M 105.3 529.9416 
L 758.16 529.9416 
" style="fill:none;stroke:#262626;stroke-linecap:square;stroke-linejoin:miter;stroke-width:1.25;"/>
   </g>
   <g id="patch_6">
    <path d="M 105.3 71.4528 
L 758.16 71.4528 
" style="fill:none;stroke:#262626;stroke-linecap:square;stroke-linejoin:miter;stroke-width:1.25;"/>
   </g>
   <g id="text_16">
    <!-- Activations for &gt;!&lt; -->
    <g style="fill:#262626;" transform="translate(383.7075 65.4528)scale(0.12 -0.12)">
     <defs>
      <path d="M -9 0 
L 1750 4581 
L 2403 4581 
L 4278 0 
L 3588 0 
L 3053 1388 
L 1138 1388 
L 634 0 
L -9 0 
z
M 1313 1881 
L 2866 1881 
L 2388 3150 
Q 2169 3728 2063 4100 
Q 1975 3659 1816 3225 
L 1313 1881 
z
" id="ArialMT-41" transform="scale(0.015625)"/>
      <path d="M 2588 1216 
L 3141 1144 
Q 3050 572 2676 248 
Q 2303 -75 1759 -75 
Q 1078 -75 664 370 
Q 250 816 250 1647 
Q 250 2184 428 2587 
Q 606 2991 970 3192 
Q 1334 3394 1763 3394 
Q 2303 3394 2647 3120 
Q 2991 2847 3088 2344 
L 2541 2259 
Q 2463 2594 2264 2762 
Q 2066 2931 1784 2931 
Q 1359 2931 1093 2626 
Q 828 2322 828 1663 
Q 828 994 1084 691 
Q 1341 388 1753 388 
Q 2084 388 2306 591 
Q 2528 794 2588 1216 
z
" id="ArialMT-63" transform="scale(0.015625)"/>
      <path d="M 1650 503 
L 1731 6 
Q 1494 -44 1306 -44 
Q 1000 -44 831 53 
Q 663 150 594 308 
Q 525 466 525 972 
L 525 2881 
L 113 2881 
L 113 3319 
L 525 3319 
L 525 4141 
L 1084 4478 
L 1084 3319 
L 1650 3319 
L 1650 2881 
L 1084 2881 
L 1084 941 
Q 1084 700 1114 631 
Q 1144 563 1211 522 
Q 1278 481 1403 481 
Q 1497 481 1650 503 
z
" id="ArialMT-74" transform="scale(0.015625)"/>
      <path d="M 425 3934 
L 425 4581 
L 988 4581 
L 988 3934 
L 425 3934 
z
M 425 0 
L 425 3319 
L 988 3319 
L 988 0 
L 425 0 
z
" id="ArialMT-69" transform="scale(0.015625)"/>
      <path d="M 1344 0 
L 81 3319 
L 675 3319 
L 1388 1331 
Q 1503 1009 1600 663 
Q 1675 925 1809 1294 
L 2547 3319 
L 3125 3319 
L 1869 0 
L 1344 0 
z
" id="ArialMT-76" transform="scale(0.015625)"/>
      <path d="M 2588 409 
Q 2275 144 1986 34 
Q 1697 -75 1366 -75 
Q 819 -75 525 192 
Q 231 459 231 875 
Q 231 1119 342 1320 
Q 453 1522 633 1644 
Q 813 1766 1038 1828 
Q 1203 1872 1538 1913 
Q 2219 1994 2541 2106 
Q 2544 2222 2544 2253 
Q 2544 2597 2384 2738 
Q 2169 2928 1744 2928 
Q 1347 2928 1158 2789 
Q 969 2650 878 2297 
L 328 2372 
Q 403 2725 575 2942 
Q 747 3159 1072 3276 
Q 1397 3394 1825 3394 
Q 2250 3394 2515 3294 
Q 2781 3194 2906 3042 
Q 3031 2891 3081 2659 
Q 3109 2516 3109 2141 
L 3109 1391 
Q 3109 606 3145 398 
Q 3181 191 3288 0 
L 2700 0 
Q 2613 175 2588 409 
z
M 2541 1666 
Q 2234 1541 1622 1453 
Q 1275 1403 1131 1340 
Q 988 1278 909 1158 
Q 831 1038 831 891 
Q 831 666 1001 516 
Q 1172 366 1500 366 
Q 1825 366 2078 508 
Q 2331 650 2450 897 
Q 2541 1088 2541 1459 
L 2541 1666 
z
" id="ArialMT-61" transform="scale(0.015625)"/>
      <path d="M 213 1659 
Q 213 2581 725 3025 
Q 1153 3394 1769 3394 
Q 2453 3394 2887 2945 
Q 3322 2497 3322 1706 
Q 3322 1066 3130 698 
Q 2938 331 2570 128 
Q 2203 -75 1769 -75 
Q 1072 -75 642 372 
Q 213 819 213 1659 
z
M 791 1659 
Q 791 1022 1069 705 
Q 1347 388 1769 388 
Q 2188 388 2466 706 
Q 2744 1025 2744 1678 
Q 2744 2294 2464 2611 
Q 2184 2928 1769 2928 
Q 1347 2928 1069 2612 
Q 791 2297 791 1659 
z
" id="ArialMT-6f" transform="scale(0.015625)"/>
      <path d="M 422 0 
L 422 3319 
L 928 3319 
L 928 2847 
Q 1294 3394 1984 3394 
Q 2284 3394 2536 3286 
Q 2788 3178 2913 3003 
Q 3038 2828 3088 2588 
Q 3119 2431 3119 2041 
L 3119 0 
L 2556 0 
L 2556 2019 
Q 2556 2363 2490 2533 
Q 2425 2703 2258 2804 
Q 2091 2906 1866 2906 
Q 1506 2906 1245 2678 
Q 984 2450 984 1813 
L 984 0 
L 422 0 
z
" id="ArialMT-6e" transform="scale(0.015625)"/>
      <path d="M 197 991 
L 753 1078 
Q 800 744 1014 566 
Q 1228 388 1613 388 
Q 2000 388 2187 545 
Q 2375 703 2375 916 
Q 2375 1106 2209 1216 
Q 2094 1291 1634 1406 
Q 1016 1563 777 1677 
Q 538 1791 414 1992 
Q 291 2194 291 2438 
Q 291 2659 392 2848 
Q 494 3038 669 3163 
Q 800 3259 1026 3326 
Q 1253 3394 1513 3394 
Q 1903 3394 2198 3281 
Q 2494 3169 2634 2976 
Q 2775 2784 2828 2463 
L 2278 2388 
Q 2241 2644 2061 2787 
Q 1881 2931 1553 2931 
Q 1166 2931 1000 2803 
Q 834 2675 834 2503 
Q 834 2394 903 2306 
Q 972 2216 1119 2156 
Q 1203 2125 1616 2013 
Q 2213 1853 2448 1751 
Q 2684 1650 2818 1456 
Q 2953 1263 2953 975 
Q 2953 694 2789 445 
Q 2625 197 2315 61 
Q 2006 -75 1616 -75 
Q 969 -75 630 194 
Q 291 463 197 991 
z
" id="ArialMT-73" transform="scale(0.015625)"/>
      <path id="ArialMT-20" transform="scale(0.015625)"/>
      <path d="M 556 0 
L 556 2881 
L 59 2881 
L 59 3319 
L 556 3319 
L 556 3672 
Q 556 4006 616 4169 
Q 697 4388 901 4523 
Q 1106 4659 1475 4659 
Q 1713 4659 2000 4603 
L 1916 4113 
Q 1741 4144 1584 4144 
Q 1328 4144 1222 4034 
Q 1116 3925 1116 3625 
L 1116 3319 
L 1763 3319 
L 1763 2881 
L 1116 2881 
L 1116 0 
L 556 0 
z
" id="ArialMT-66" transform="scale(0.015625)"/>
      <path d="M 416 0 
L 416 3319 
L 922 3319 
L 922 2816 
Q 1116 3169 1280 3281 
Q 1444 3394 1641 3394 
Q 1925 3394 2219 3213 
L 2025 2691 
Q 1819 2813 1613 2813 
Q 1428 2813 1281 2702 
Q 1134 2591 1072 2394 
Q 978 2094 978 1738 
L 978 0 
L 416 0 
z
" id="ArialMT-72" transform="scale(0.015625)"/>
      <path d="M 3384 2003 
L 350 706 
L 350 1266 
L 2753 2263 
L 350 3250 
L 350 3809 
L 3384 2528 
L 3384 2003 
z
" id="ArialMT-3e" transform="scale(0.015625)"/>
      <path d="M 722 1138 
L 550 3566 
L 550 4581 
L 1247 4581 
L 1247 3566 
L 1084 1138 
L 722 1138 
z
M 575 0 
L 575 641 
L 1222 641 
L 1222 0 
L 575 0 
z
" id="ArialMT-21" transform="scale(0.015625)"/>
      <path d="M 350 2003 
L 350 2528 
L 3384 3809 
L 3384 3250 
L 978 2263 
L 3384 1266 
L 3384 706 
L 350 2003 
z
" id="ArialMT-3c" transform="scale(0.015625)"/>
     </defs>
     <use xlink:href="#ArialMT-41"/>
     <use x="66.699219" xlink:href="#ArialMT-63"/>
     <use x="116.699219" xlink:href="#ArialMT-74"/>
     <use x="144.482422" xlink:href="#ArialMT-69"/>
     <use x="166.699219" xlink:href="#ArialMT-76"/>
     <use x="216.699219" xlink:href="#ArialMT-61"/>
     <use x="272.314453" xlink:href="#ArialMT-74"/>
     <use x="300.097656" xlink:href="#ArialMT-69"/>
     <use x="322.314453" xlink:href="#ArialMT-6f"/>
     <use x="377.929688" xlink:href="#ArialMT-6e"/>
     <use x="433.544922" xlink:href="#ArialMT-73"/>
     <use x="483.544922" xlink:href="#ArialMT-20"/>
     <use x="511.328125" xlink:href="#ArialMT-66"/>
     <use x="539.111328" xlink:href="#ArialMT-6f"/>
     <use x="594.726562" xlink:href="#ArialMT-72"/>
     <use x="628.027344" xlink:href="#ArialMT-20"/>
     <use x="655.810547" xlink:href="#ArialMT-3e"/>
     <use x="714.208984" xlink:href="#ArialMT-21"/>
     <use x="741.992188" xlink:href="#ArialMT-3c"/>
    </g>
   </g>
   <g id="legend_1">
    <g id="patch_7">
     <path d="M 640.044062 158.514363 
L 750.46 158.514363 
Q 752.66 158.514363 752.66 156.314363 
L 752.66 79.1528 
Q 752.66 76.9528 750.46 76.9528 
L 640.044062 76.9528 
Q 637.844062 76.9528 637.844062 79.1528 
L 637.844062 156.314363 
Q 637.844062 158.514363 640.044062 158.514363 
z
" style="fill:#ffffff;opacity:0.8;stroke:#cccccc;stroke-linejoin:miter;"/>
    </g>
    <g id="line2d_11">
     <path d="M 642.244062 85.376394 
L 664.244062 85.376394 
" style="fill:none;stroke:#4c72b0;stroke-linecap:round;stroke-width:1.5;"/>
    </g>
    <g id="line2d_12"/>
    <g id="text_17">
     <!-- regular -->
     <g style="fill:#262626;" transform="translate(673.044062 89.226394)scale(0.11 -0.11)">
      <defs>
       <path d="M 2694 1069 
L 3275 997 
Q 3138 488 2766 206 
Q 2394 -75 1816 -75 
Q 1088 -75 661 373 
Q 234 822 234 1631 
Q 234 2469 665 2931 
Q 1097 3394 1784 3394 
Q 2450 3394 2872 2941 
Q 3294 2488 3294 1666 
Q 3294 1616 3291 1516 
L 816 1516 
Q 847 969 1125 678 
Q 1403 388 1819 388 
Q 2128 388 2347 550 
Q 2566 713 2694 1069 
z
M 847 1978 
L 2700 1978 
Q 2663 2397 2488 2606 
Q 2219 2931 1791 2931 
Q 1403 2931 1139 2672 
Q 875 2413 847 1978 
z
" id="ArialMT-65" transform="scale(0.015625)"/>
       <path d="M 319 -275 
L 866 -356 
Q 900 -609 1056 -725 
Q 1266 -881 1628 -881 
Q 2019 -881 2231 -725 
Q 2444 -569 2519 -288 
Q 2563 -116 2559 434 
Q 2191 0 1641 0 
Q 956 0 581 494 
Q 206 988 206 1678 
Q 206 2153 378 2554 
Q 550 2956 876 3175 
Q 1203 3394 1644 3394 
Q 2231 3394 2613 2919 
L 2613 3319 
L 3131 3319 
L 3131 450 
Q 3131 -325 2973 -648 
Q 2816 -972 2473 -1159 
Q 2131 -1347 1631 -1347 
Q 1038 -1347 672 -1080 
Q 306 -813 319 -275 
z
M 784 1719 
Q 784 1066 1043 766 
Q 1303 466 1694 466 
Q 2081 466 2343 764 
Q 2606 1063 2606 1700 
Q 2606 2309 2336 2618 
Q 2066 2928 1684 2928 
Q 1309 2928 1046 2623 
Q 784 2319 784 1719 
z
" id="ArialMT-67" transform="scale(0.015625)"/>
       <path d="M 2597 0 
L 2597 488 
Q 2209 -75 1544 -75 
Q 1250 -75 995 37 
Q 741 150 617 320 
Q 494 491 444 738 
Q 409 903 409 1263 
L 409 3319 
L 972 3319 
L 972 1478 
Q 972 1038 1006 884 
Q 1059 663 1231 536 
Q 1403 409 1656 409 
Q 1909 409 2131 539 
Q 2353 669 2445 892 
Q 2538 1116 2538 1541 
L 2538 3319 
L 3100 3319 
L 3100 0 
L 2597 0 
z
" id="ArialMT-75" transform="scale(0.015625)"/>
       <path d="M 409 0 
L 409 4581 
L 972 4581 
L 972 0 
L 409 0 
z
" id="ArialMT-6c" transform="scale(0.015625)"/>
      </defs>
      <use xlink:href="#ArialMT-72"/>
      <use x="33.300781" xlink:href="#ArialMT-65"/>
      <use x="88.916016" xlink:href="#ArialMT-67"/>
      <use x="144.53125" xlink:href="#ArialMT-75"/>
      <use x="200.146484" xlink:href="#ArialMT-6c"/>
      <use x="222.363281" xlink:href="#ArialMT-61"/>
      <use x="277.978516" xlink:href="#ArialMT-72"/>
     </g>
    </g>
    <g id="line2d_13">
     <path d="M 642.244062 101.0978 
L 664.244062 101.0978 
" style="fill:none;stroke:#dd8452;stroke-dasharray:6,2.25;stroke-dashoffset:0;stroke-width:1.5;"/>
    </g>
    <g id="line2d_14"/>
    <g id="text_18">
     <!-- splitted_3s -->
     <g style="fill:#262626;" transform="translate(673.044062 104.9478)scale(0.11 -0.11)">
      <defs>
       <path d="M 422 -1272 
L 422 3319 
L 934 3319 
L 934 2888 
Q 1116 3141 1344 3267 
Q 1572 3394 1897 3394 
Q 2322 3394 2647 3175 
Q 2972 2956 3137 2557 
Q 3303 2159 3303 1684 
Q 3303 1175 3120 767 
Q 2938 359 2589 142 
Q 2241 -75 1856 -75 
Q 1575 -75 1351 44 
Q 1128 163 984 344 
L 984 -1272 
L 422 -1272 
z
M 931 1641 
Q 931 1000 1190 694 
Q 1450 388 1819 388 
Q 2194 388 2461 705 
Q 2728 1022 2728 1688 
Q 2728 2322 2467 2637 
Q 2206 2953 1844 2953 
Q 1484 2953 1207 2617 
Q 931 2281 931 1641 
z
" id="ArialMT-70" transform="scale(0.015625)"/>
       <path d="M 2575 0 
L 2575 419 
Q 2259 -75 1647 -75 
Q 1250 -75 917 144 
Q 584 363 401 755 
Q 219 1147 219 1656 
Q 219 2153 384 2558 
Q 550 2963 881 3178 
Q 1213 3394 1622 3394 
Q 1922 3394 2156 3267 
Q 2391 3141 2538 2938 
L 2538 4581 
L 3097 4581 
L 3097 0 
L 2575 0 
z
M 797 1656 
Q 797 1019 1065 703 
Q 1334 388 1700 388 
Q 2069 388 2326 689 
Q 2584 991 2584 1609 
Q 2584 2291 2321 2609 
Q 2059 2928 1675 2928 
Q 1300 2928 1048 2622 
Q 797 2316 797 1656 
z
" id="ArialMT-64" transform="scale(0.015625)"/>
       <path d="M -97 -1272 
L -97 -866 
L 3631 -866 
L 3631 -1272 
L -97 -1272 
z
" id="ArialMT-5f" transform="scale(0.015625)"/>
       <path d="M 269 1209 
L 831 1284 
Q 928 806 1161 595 
Q 1394 384 1728 384 
Q 2125 384 2398 659 
Q 2672 934 2672 1341 
Q 2672 1728 2419 1979 
Q 2166 2231 1775 2231 
Q 1616 2231 1378 2169 
L 1441 2663 
Q 1497 2656 1531 2656 
Q 1891 2656 2178 2843 
Q 2466 3031 2466 3422 
Q 2466 3731 2256 3934 
Q 2047 4138 1716 4138 
Q 1388 4138 1169 3931 
Q 950 3725 888 3313 
L 325 3413 
Q 428 3978 793 4289 
Q 1159 4600 1703 4600 
Q 2078 4600 2393 4439 
Q 2709 4278 2876 4000 
Q 3044 3722 3044 3409 
Q 3044 3113 2884 2869 
Q 2725 2625 2413 2481 
Q 2819 2388 3044 2092 
Q 3269 1797 3269 1353 
Q 3269 753 2831 336 
Q 2394 -81 1725 -81 
Q 1122 -81 723 278 
Q 325 638 269 1209 
z
" id="ArialMT-33" transform="scale(0.015625)"/>
      </defs>
      <use xlink:href="#ArialMT-73"/>
      <use x="50" xlink:href="#ArialMT-70"/>
      <use x="105.615234" xlink:href="#ArialMT-6c"/>
      <use x="127.832031" xlink:href="#ArialMT-69"/>
      <use x="150.048828" xlink:href="#ArialMT-74"/>
      <use x="177.832031" xlink:href="#ArialMT-74"/>
      <use x="205.615234" xlink:href="#ArialMT-65"/>
      <use x="261.230469" xlink:href="#ArialMT-64"/>
      <use x="316.845703" xlink:href="#ArialMT-5f"/>
      <use x="372.460938" xlink:href="#ArialMT-33"/>
      <use x="428.076172" xlink:href="#ArialMT-73"/>
     </g>
    </g>
    <g id="line2d_15">
     <path d="M 642.244062 116.6903 
L 664.244062 116.6903 
" style="fill:none;stroke:#55a868;stroke-dasharray:1.5,1.5;stroke-dashoffset:0;stroke-width:1.5;"/>
    </g>
    <g id="line2d_16"/>
    <g id="text_19">
     <!-- splitted_1s -->
     <g style="fill:#262626;" transform="translate(673.044062 120.5403)scale(0.11 -0.11)">
      <use xlink:href="#ArialMT-73"/>
      <use x="50" xlink:href="#ArialMT-70"/>
      <use x="105.615234" xlink:href="#ArialMT-6c"/>
      <use x="127.832031" xlink:href="#ArialMT-69"/>
      <use x="150.048828" xlink:href="#ArialMT-74"/>
      <use x="177.832031" xlink:href="#ArialMT-74"/>
      <use x="205.615234" xlink:href="#ArialMT-65"/>
      <use x="261.230469" xlink:href="#ArialMT-64"/>
      <use x="316.845703" xlink:href="#ArialMT-5f"/>
      <use x="372.460938" xlink:href="#ArialMT-31"/>
      <use x="428.076172" xlink:href="#ArialMT-73"/>
     </g>
    </g>
    <g id="line2d_17">
     <path d="M 642.244062 132.384206 
L 664.244062 132.384206 
" style="fill:none;stroke:#c44e52;stroke-dasharray:4.5,1.875,2.25,1.875;stroke-dashoffset:0;stroke-width:1.5;"/>
    </g>
    <g id="line2d_18"/>
    <g id="text_20">
     <!-- overlap_1f_3s -->
     <g style="fill:#262626;" transform="translate(673.044062 136.234206)scale(0.11 -0.11)">
      <use xlink:href="#ArialMT-6f"/>
      <use x="55.615234" xlink:href="#ArialMT-76"/>
      <use x="105.615234" xlink:href="#ArialMT-65"/>
      <use x="161.230469" xlink:href="#ArialMT-72"/>
      <use x="194.53125" xlink:href="#ArialMT-6c"/>
      <use x="216.748047" xlink:href="#ArialMT-61"/>
      <use x="272.363281" xlink:href="#ArialMT-70"/>
      <use x="327.978516" xlink:href="#ArialMT-5f"/>
      <use x="383.59375" xlink:href="#ArialMT-31"/>
      <use x="439.208984" xlink:href="#ArialMT-66"/>
      <use x="466.992188" xlink:href="#ArialMT-5f"/>
      <use x="522.607422" xlink:href="#ArialMT-33"/>
      <use x="578.222656" xlink:href="#ArialMT-73"/>
     </g>
    </g>
    <g id="line2d_19">
     <path d="M 642.244062 148.078113 
L 664.244062 148.078113 
" style="fill:none;stroke:#8172b3;stroke-dasharray:7.5,1.5,1.5,1.5;stroke-dashoffset:0;stroke-width:1.5;"/>
    </g>
    <g id="line2d_20"/>
    <g id="text_21">
     <!-- overlap_10f_3s -->
     <g style="fill:#262626;" transform="translate(673.044062 151.928112)scale(0.11 -0.11)">
      <use xlink:href="#ArialMT-6f"/>
      <use x="55.615234" xlink:href="#ArialMT-76"/>
      <use x="105.615234" xlink:href="#ArialMT-65"/>
      <use x="161.230469" xlink:href="#ArialMT-72"/>
      <use x="194.53125" xlink:href="#ArialMT-6c"/>
      <use x="216.748047" xlink:href="#ArialMT-61"/>
      <use x="272.363281" xlink:href="#ArialMT-70"/>
      <use x="327.978516" xlink:href="#ArialMT-5f"/>
      <use x="383.59375" xlink:href="#ArialMT-31"/>
      <use x="439.208984" xlink:href="#ArialMT-30"/>
      <use x="494.824219" xlink:href="#ArialMT-66"/>
      <use x="522.607422" xlink:href="#ArialMT-5f"/>
      <use x="578.222656" xlink:href="#ArialMT-33"/>
      <use x="633.837891" xlink:href="#ArialMT-73"/>
     </g>
    </g>
   </g>
  </g>
 </g>
 <defs>
  <clipPath id="p3dfef7b1b3">
   <rect height="458.4888" width="652.86" x="105.3" y="71.4528"/>
  </clipPath>
 </defs>
</svg>
