<?xml version="1.0" encoding="utf-8" standalone="no"?>
<!DOCTYPE svg PUBLIC "-//W3C//DTD SVG 1.1//EN"
  "http://www.w3.org/Graphics/SVG/1.1/DTD/svg11.dtd">
<svg height="595.44pt" version="1.1" viewBox="0 0 842.4 595.44" width="842.4pt" xmlns="http://www.w3.org/2000/svg" xmlns:xlink="http://www.w3.org/1999/xlink">
 <metadata>
  <rdf:RDF xmlns:cc="http://creativecommons.org/ns#" xmlns:dc="http://purl.org/dc/elements/1.1/" xmlns:rdf="http://www.w3.org/1999/02/22-rdf-syntax-ns#">
   <cc:Work>
    <dc:type rdf:resource="http://purl.org/dc/dcmitype/StillImage"/>
    <dc:date>2021-06-01T00:54:03.612738</dc:date>
    <dc:format>image/svg+xml</dc:format>
    <dc:creator>
     <cc:Agent>
      <dc:title>Matplotlib v3.4.1, https://matplotlib.org/</dc:title>
     </cc:Agent>
    </dc:creator>
   </cc:Work>
  </rdf:RDF>
 </metadata>
 <defs>
  <style type="text/css">*{stroke-linecap:butt;stroke-linejoin:round;}</style>
 </defs>
 <g id="figure_1">
  <g id="patch_1">
   <path d="M 0 595.44 
L 842.4 595.44 
L 842.4 0 
L 0 0 
z
" style="fill:#ffffff;"/>
  </g>
  <g id="axes_1">
   <g id="patch_2">
    <path d="M 105.3 529.9416 
L 758.16 529.9416 
L 758.16 71.4528 
L 105.3 71.4528 
z
" style="fill:#ffffff;"/>
   </g>
   <g id="matplotlib.axis_1">
    <g id="xtick_1">
     <g id="text_1">
      <!-- 0 -->
      <g style="fill:#262626;" transform="translate(131.916939 547.315194)scale(0.11 -0.11)">
       <defs>
        <path d="M 266 2259 
Q 266 3072 433 3567 
Q 600 4063 929 4331 
Q 1259 4600 1759 4600 
Q 2128 4600 2406 4451 
Q 2684 4303 2865 4023 
Q 3047 3744 3150 3342 
Q 3253 2941 3253 2259 
Q 3253 1453 3087 958 
Q 2922 463 2592 192 
Q 2263 -78 1759 -78 
Q 1097 -78 719 397 
Q 266 969 266 2259 
z
M 844 2259 
Q 844 1131 1108 757 
Q 1372 384 1759 384 
Q 2147 384 2411 759 
Q 2675 1134 2675 2259 
Q 2675 3391 2411 3762 
Q 2147 4134 1753 4134 
Q 1366 4134 1134 3806 
Q 844 3388 844 2259 
z
" id="ArialMT-30" transform="scale(0.015625)"/>
       </defs>
       <use xlink:href="#ArialMT-30"/>
      </g>
     </g>
    </g>
    <g id="xtick_2">
     <g id="text_2">
      <!-- 25 -->
      <g style="fill:#262626;" transform="translate(201.950676 547.315194)scale(0.11 -0.11)">
       <defs>
        <path d="M 3222 541 
L 3222 0 
L 194 0 
Q 188 203 259 391 
Q 375 700 629 1000 
Q 884 1300 1366 1694 
Q 2113 2306 2375 2664 
Q 2638 3022 2638 3341 
Q 2638 3675 2398 3904 
Q 2159 4134 1775 4134 
Q 1369 4134 1125 3890 
Q 881 3647 878 3216 
L 300 3275 
Q 359 3922 746 4261 
Q 1134 4600 1788 4600 
Q 2447 4600 2831 4234 
Q 3216 3869 3216 3328 
Q 3216 3053 3103 2787 
Q 2991 2522 2730 2228 
Q 2469 1934 1863 1422 
Q 1356 997 1212 845 
Q 1069 694 975 541 
L 3222 541 
z
" id="ArialMT-32" transform="scale(0.015625)"/>
        <path d="M 266 1200 
L 856 1250 
Q 922 819 1161 601 
Q 1400 384 1738 384 
Q 2144 384 2425 690 
Q 2706 997 2706 1503 
Q 2706 1984 2436 2262 
Q 2166 2541 1728 2541 
Q 1456 2541 1237 2417 
Q 1019 2294 894 2097 
L 366 2166 
L 809 4519 
L 3088 4519 
L 3088 3981 
L 1259 3981 
L 1013 2750 
Q 1425 3038 1878 3038 
Q 2478 3038 2890 2622 
Q 3303 2206 3303 1553 
Q 3303 931 2941 478 
Q 2500 -78 1738 -78 
Q 1113 -78 717 272 
Q 322 622 266 1200 
z
" id="ArialMT-35" transform="scale(0.015625)"/>
       </defs>
       <use xlink:href="#ArialMT-32"/>
       <use x="55.615234" xlink:href="#ArialMT-35"/>
      </g>
     </g>
    </g>
    <g id="xtick_3">
     <g id="text_3">
      <!-- 50 -->
      <g style="fill:#262626;" transform="translate(275.042928 547.315194)scale(0.11 -0.11)">
       <use xlink:href="#ArialMT-35"/>
       <use x="55.615234" xlink:href="#ArialMT-30"/>
      </g>
     </g>
    </g>
    <g id="xtick_4">
     <g id="text_4">
      <!-- 75 -->
      <g style="fill:#262626;" transform="translate(348.135181 547.315194)scale(0.11 -0.11)">
       <defs>
        <path d="M 303 3981 
L 303 4522 
L 3269 4522 
L 3269 4084 
Q 2831 3619 2401 2847 
Q 1972 2075 1738 1259 
Q 1569 684 1522 0 
L 944 0 
Q 953 541 1156 1306 
Q 1359 2072 1739 2783 
Q 2119 3494 2547 3981 
L 303 3981 
z
" id="ArialMT-37" transform="scale(0.015625)"/>
       </defs>
       <use xlink:href="#ArialMT-37"/>
       <use x="55.615234" xlink:href="#ArialMT-35"/>
      </g>
     </g>
    </g>
    <g id="xtick_5">
     <g id="text_5">
      <!-- 100 -->
      <g style="fill:#262626;" transform="translate(418.168918 547.315194)scale(0.11 -0.11)">
       <defs>
        <path d="M 2384 0 
L 1822 0 
L 1822 3584 
Q 1619 3391 1289 3197 
Q 959 3003 697 2906 
L 697 3450 
Q 1169 3672 1522 3987 
Q 1875 4303 2022 4600 
L 2384 4600 
L 2384 0 
z
" id="ArialMT-31" transform="scale(0.015625)"/>
       </defs>
       <use xlink:href="#ArialMT-31"/>
       <use x="55.615234" xlink:href="#ArialMT-30"/>
       <use x="111.230469" xlink:href="#ArialMT-30"/>
      </g>
     </g>
    </g>
    <g id="xtick_6">
     <g id="text_6">
      <!-- 125 -->
      <g style="fill:#262626;" transform="translate(491.261171 547.315194)scale(0.11 -0.11)">
       <use xlink:href="#ArialMT-31"/>
       <use x="55.615234" xlink:href="#ArialMT-32"/>
       <use x="111.230469" xlink:href="#ArialMT-35"/>
      </g>
     </g>
    </g>
    <g id="xtick_7">
     <g id="text_7">
      <!-- 150 -->
      <g style="fill:#262626;" transform="translate(564.353423 547.315194)scale(0.11 -0.11)">
       <use xlink:href="#ArialMT-31"/>
       <use x="55.615234" xlink:href="#ArialMT-35"/>
       <use x="111.230469" xlink:href="#ArialMT-30"/>
      </g>
     </g>
    </g>
    <g id="xtick_8">
     <g id="text_8">
      <!-- 175 -->
      <g style="fill:#262626;" transform="translate(637.445676 547.315194)scale(0.11 -0.11)">
       <use xlink:href="#ArialMT-31"/>
       <use x="55.615234" xlink:href="#ArialMT-37"/>
       <use x="111.230469" xlink:href="#ArialMT-35"/>
      </g>
     </g>
    </g>
    <g id="xtick_9">
     <g id="text_9">
      <!-- 200 -->
      <g style="fill:#262626;" transform="translate(710.537928 547.315194)scale(0.11 -0.11)">
       <use xlink:href="#ArialMT-32"/>
       <use x="55.615234" xlink:href="#ArialMT-30"/>
       <use x="111.230469" xlink:href="#ArialMT-30"/>
      </g>
     </g>
    </g>
   </g>
   <g id="matplotlib.axis_2">
    <g id="ytick_1">
     <g id="text_10">
      <!-- −25 -->
      <g style="fill:#262626;" transform="translate(77.14125 533.878397)scale(0.11 -0.11)">
       <defs>
        <path d="M 3381 1997 
L 356 1997 
L 356 2522 
L 3381 2522 
L 3381 1997 
z
" id="ArialMT-2212" transform="scale(0.015625)"/>
       </defs>
       <use xlink:href="#ArialMT-2212"/>
       <use x="58.398438" xlink:href="#ArialMT-32"/>
       <use x="114.013672" xlink:href="#ArialMT-35"/>
      </g>
     </g>
    </g>
    <g id="ytick_2">
     <g id="text_11">
      <!-- −20 -->
      <g style="fill:#262626;" transform="translate(77.14125 442.180637)scale(0.11 -0.11)">
       <use xlink:href="#ArialMT-2212"/>
       <use x="58.398438" xlink:href="#ArialMT-32"/>
       <use x="114.013672" xlink:href="#ArialMT-30"/>
      </g>
     </g>
    </g>
    <g id="ytick_3">
     <g id="text_12">
      <!-- −15 -->
      <g style="fill:#262626;" transform="translate(77.14125 350.482877)scale(0.11 -0.11)">
       <use xlink:href="#ArialMT-2212"/>
       <use x="58.398438" xlink:href="#ArialMT-31"/>
       <use x="114.013672" xlink:href="#ArialMT-35"/>
      </g>
     </g>
    </g>
    <g id="ytick_4">
     <g id="text_13">
      <!-- −10 -->
      <g style="fill:#262626;" transform="translate(77.14125 258.785117)scale(0.11 -0.11)">
       <use xlink:href="#ArialMT-2212"/>
       <use x="58.398438" xlink:href="#ArialMT-31"/>
       <use x="114.013672" xlink:href="#ArialMT-30"/>
      </g>
     </g>
    </g>
    <g id="ytick_5">
     <g id="text_14">
      <!-- −5 -->
      <g style="fill:#262626;" transform="translate(83.258281 167.087357)scale(0.11 -0.11)">
       <use xlink:href="#ArialMT-2212"/>
       <use x="58.398438" xlink:href="#ArialMT-35"/>
      </g>
     </g>
    </g>
    <g id="ytick_6">
     <g id="text_15">
      <!-- 0 -->
      <g style="fill:#262626;" transform="translate(89.682969 75.389597)scale(0.11 -0.11)">
       <use xlink:href="#ArialMT-30"/>
      </g>
     </g>
    </g>
   </g>
   <g id="line2d_1">
    <path clip-path="url(#p7349710930)" d="M 134.975455 324.637055 
L 137.899145 323.787865 
L 140.822835 326.357629 
L 143.746525 325.516974 
L 146.670215 324.033371 
L 149.593905 328.190315 
L 152.517595 327.403179 
L 155.441285 330.392336 
L 158.364975 330.855033 
L 161.288665 332.87152 
L 164.212356 333.945316 
L 167.136046 333.235661 
L 170.059736 340.313131 
L 172.983426 353.24846 
L 175.907116 361.037963 
L 178.830806 380.542119 
L 181.754496 403.16017 
L 184.678186 375.384365 
L 187.601876 317.424195 
L 190.525567 377.089426 
L 193.449257 329.365972 
L 196.372947 304.402833 
L 199.296637 374.590811 
L 202.220327 337.047633 
L 205.144017 191.523586 
L 208.067707 71.452964 
L 210.991397 359.125506 
L 213.915087 426.625575 
L 216.838777 404.507492 
L 219.762468 398.466844 
L 222.686158 331.779937 
L 225.609848 347.118684 
L 228.533538 432.602069 
L 231.457228 399.993788 
L 234.380918 289.51377 
L 237.304608 346.244396 
L 240.228298 348.115944 
L 243.151988 352.245358 
L 246.075678 378.916847 
L 248.999369 295.815875 
L 251.923059 263.86721 
L 254.846749 336.221949 
L 257.770439 398.157517 
L 260.694129 273.50841 
L 263.617819 315.112984 
L 266.541509 318.315449 
L 269.465199 369.69719 
L 272.388889 343.083418 
L 275.312579 314.991254 
L 278.23627 315.491695 
L 281.15996 318.901642 
L 284.08365 307.051005 
L 287.00734 343.539346 
L 289.93103 419.697207 
L 292.85472 354.709834 
L 295.77841 369.902137 
L 298.7021 407.195978 
L 301.62579 354.056374 
L 304.549481 314.306627 
L 307.473171 311.012411 
L 310.396861 396.677377 
L 313.320551 305.062537 
L 316.244241 299.496112 
L 319.167931 351.764454 
L 322.091621 71.453001 
L 325.015311 78.542508 
L 327.939001 287.780532 
L 330.862691 383.415895 
L 333.786382 349.516977 
L 336.710072 314.022013 
L 339.633762 341.678764 
L 342.557452 402.372947 
L 345.481142 311.699749 
L 348.404832 348.264661 
L 351.328522 277.206995 
L 357.175902 480.01637 
L 360.099592 417.187677 
L 363.023283 342.262142 
L 365.946973 259.995125 
L 368.870663 189.74825 
L 371.794353 71.457445 
L 374.718043 323.58715 
L 377.641733 374.358334 
L 380.565423 374.084441 
L 383.489113 314.612422 
L 386.412803 282.365256 
L 389.336494 366.133611 
L 392.260184 390.545921 
L 395.183874 370.862196 
L 398.107564 204.74081 
L 401.031254 71.765865 
L 403.954944 124.993624 
L 406.878634 242.386042 
L 409.802324 298.205143 
L 412.726014 341.973837 
L 415.649704 413.384241 
L 418.573395 386.17637 
L 421.497085 447.862793 
L 424.420775 495.549588 
L 427.344465 401.406242 
L 430.268155 404.018158 
L 433.191845 376.643083 
L 436.115535 354.706808 
L 439.039225 373.310371 
L 441.962915 409.5878 
L 444.886605 369.701143 
L 447.810296 412.282443 
L 450.733986 364.799826 
L 453.657676 331.792792 
L 456.581366 433.434626 
L 462.428746 349.941144 
L 465.352436 349.424927 
L 468.276126 281.560228 
L 471.199816 278.891103 
L 474.123506 337.613818 
L 477.047197 393.628387 
L 479.970887 319.365126 
L 482.894577 259.993079 
L 485.818267 71.540638 
L 488.741957 71.457891 
L 491.665647 261.004943 
L 494.589337 372.932623 
L 497.513027 461.623963 
L 500.436717 395.571137 
L 503.360408 268.494126 
L 506.284098 314.716155 
L 509.207788 460.296231 
L 512.131478 477.15907 
L 515.055168 456.805654 
L 517.978858 310.016428 
L 520.902548 246.59201 
L 523.826238 71.453718 
L 526.749928 142.224619 
L 529.673618 371.720219 
L 532.597309 419.806519 
L 535.520999 315.623342 
L 538.444689 301.832263 
L 541.368379 479.030916 
L 544.292069 289.813408 
L 547.215759 311.40527 
L 550.139449 421.376383 
L 553.063139 351.525349 
L 555.986829 456.043722 
L 558.910519 428.080389 
L 561.83421 435.400567 
L 564.7579 465.289439 
L 567.68159 307.056654 
L 570.60528 230.286837 
L 573.52897 196.567201 
L 576.45266 101.113192 
L 579.37635 71.456241 
L 582.30004 266.879279 
L 585.22373 357.63384 
L 588.147421 332.784665 
L 591.071111 352.774919 
L 593.994801 343.72056 
L 596.918491 368.168427 
L 599.842181 397.284208 
L 602.765871 342.506669 
L 605.689561 338.672013 
L 608.613251 397.991957 
L 611.536941 403.824054 
L 614.460631 402.127668 
L 617.384322 445.668923 
L 623.231702 391.80338 
L 626.155392 372.078238 
L 629.079082 280.980681 
L 632.002772 331.577141 
L 634.926462 359.361446 
L 637.850152 386.01861 
L 640.773842 222.542178 
L 643.697532 102.358274 
L 646.621223 211.99484 
L 649.544913 145.987628 
L 652.468603 71.452966 
L 655.392293 222.126949 
L 658.315983 133.285103 
L 661.239673 71.453065 
L 664.163363 72.386745 
L 667.087053 292.825441 
L 670.010743 391.753568 
L 672.934433 439.707435 
L 675.858124 507.281293 
L 678.781814 393.617158 
L 681.705504 373.073417 
L 684.629194 466.849614 
L 687.552884 393.985147 
L 690.476574 416.276591 
L 693.400264 350.450783 
L 696.323954 387.350296 
L 699.247644 389.238197 
L 702.171335 355.147817 
L 705.095025 332.548288 
L 708.018715 323.658614 
L 710.942405 324.389729 
L 713.866095 324.77965 
L 716.789785 324.976185 
L 719.713475 323.621308 
L 722.637165 323.184443 
L 725.560855 323.691093 
L 728.484545 328.269527 
L 728.484545 328.269527 
" style="fill:none;stroke:#4c72b0;stroke-linecap:round;stroke-width:1.5;"/>
   </g>
   <g id="line2d_2">
    <path clip-path="url(#p7349710930)" d="M 134.975455 323.518921 
L 137.899145 324.618533 
L 140.822835 323.946499 
L 143.746525 324.835461 
L 146.670215 323.188781 
L 149.593905 326.683432 
L 152.517595 323.232873 
L 155.441285 324.208743 
L 158.364975 321.908813 
L 161.288665 322.823521 
L 164.212356 324.131647 
L 167.136046 322.909326 
L 170.059736 320.554391 
L 172.983426 332.033681 
L 175.907116 339.758874 
L 178.830806 363.745706 
L 181.754496 381.56021 
L 184.678186 369.388317 
L 187.601876 281.350436 
L 190.525567 359.001485 
L 193.449257 307.719017 
L 196.372947 297.574892 
L 199.296637 367.128055 
L 202.220327 328.217984 
L 205.144017 206.485302 
L 208.067707 71.452942 
L 210.991397 374.589726 
L 213.915087 407.502472 
L 216.838777 403.701484 
L 219.762468 371.139937 
L 222.686158 308.238241 
L 225.609848 318.419794 
L 228.533538 386.030469 
L 231.457228 378.183004 
L 234.380918 256.507278 
L 237.304608 308.90996 
L 240.228298 316.414098 
L 243.151988 313.20483 
L 246.075678 349.501813 
L 248.999369 307.205232 
L 251.923059 269.145907 
L 257.770439 393.146014 
L 260.694129 289.52269 
L 263.617819 328.412472 
L 266.541509 332.7585 
L 269.465199 394.827499 
L 272.388889 374.046383 
L 275.312579 332.346052 
L 278.23627 311.755682 
L 281.15996 319.873909 
L 284.08365 312.782605 
L 287.00734 346.349231 
L 289.93103 447.500016 
L 292.85472 386.362393 
L 295.77841 341.087988 
L 298.7021 394.742882 
L 301.62579 363.475994 
L 304.549481 323.723327 
L 307.473171 333.576715 
L 310.396861 395.036014 
L 313.320551 326.158261 
L 316.244241 304.162013 
L 319.167931 345.726063 
L 322.091621 71.453476 
L 325.015311 89.90244 
L 327.939001 292.213223 
L 330.862691 369.575949 
L 333.786382 331.317764 
L 336.710072 346.501183 
L 339.633762 354.002347 
L 342.557452 389.280453 
L 345.481142 273.18189 
L 348.404832 344.185285 
L 351.328522 101.186414 
L 354.252212 320.405691 
L 357.175902 278.852922 
L 360.099592 201.070131 
L 363.023283 186.509293 
L 365.946973 196.277025 
L 368.870663 105.722002 
L 371.794353 72.054888 
L 374.718043 217.111414 
L 377.641733 270.362194 
L 380.565423 313.254449 
L 383.489113 240.612822 
L 386.412803 260.629609 
L 389.336494 347.111565 
L 392.260184 413.410126 
L 395.183874 387.027641 
L 398.107564 197.243354 
L 401.031254 72.378715 
L 403.954944 142.592284 
L 406.878634 243.017044 
L 409.802324 302.51829 
L 412.726014 344.790858 
L 415.649704 392.209461 
L 418.573395 357.336581 
L 421.497085 424.125979 
L 424.420775 440.112083 
L 427.344465 336.352337 
L 430.268155 346.808709 
L 433.191845 338.114818 
L 436.115535 324.951734 
L 439.039225 383.555919 
L 441.962915 401.382211 
L 444.886605 324.218975 
L 447.810296 373.792674 
L 450.733986 407.394314 
L 453.657676 304.93897 
L 456.581366 425.972395 
L 459.505056 382.628497 
L 462.428746 343.608676 
L 465.352436 346.45884 
L 468.276126 275.626724 
L 471.199816 283.479541 
L 474.123506 301.28154 
L 477.047197 385.658912 
L 479.970887 302.519164 
L 482.894577 261.52422 
L 485.818267 71.559764 
L 488.741957 71.463636 
L 491.665647 269.479616 
L 494.589337 365.719658 
L 497.513027 472.076103 
L 500.436717 409.264271 
L 503.360408 283.334987 
L 506.284098 329.972402 
L 509.207788 446.376182 
L 512.131478 456.007867 
L 515.055168 464.60023 
L 517.978858 334.111593 
L 520.902548 265.393139 
L 523.826238 71.453624 
L 526.749928 135.111654 
L 529.673618 365.057943 
L 532.597309 402.169119 
L 535.520999 306.520814 
L 538.444689 278.925803 
L 541.368379 374.668641 
L 544.292069 245.933688 
L 547.215759 291.253111 
L 550.139449 410.23304 
L 553.063139 350.092169 
L 555.986829 337.97175 
L 558.910519 230.535982 
L 561.83421 165.329538 
L 564.7579 214.653332 
L 567.68159 278.681276 
L 570.60528 381.941911 
L 573.52897 222.818415 
L 576.45266 153.738198 
L 579.37635 71.503283 
L 582.30004 156.597431 
L 585.22373 303.194102 
L 588.147421 271.557371 
L 591.071111 363.918175 
L 593.994801 345.132716 
L 596.918491 319.01802 
L 599.842181 394.24113 
L 602.765871 310.069142 
L 605.689561 307.162888 
L 608.613251 447.703914 
L 611.536941 421.971776 
L 614.460631 421.302435 
L 617.384322 490.245058 
L 620.308012 405.763306 
L 623.231702 358.811089 
L 626.155392 359.044265 
L 629.079082 240.550768 
L 632.002772 341.811286 
L 634.926462 368.743532 
L 637.850152 351.51099 
L 640.773842 211.997962 
L 643.697532 93.353658 
L 646.621223 201.145923 
L 649.544913 158.82608 
L 652.468603 71.453406 
L 655.392293 233.327572 
L 658.315983 80.706135 
L 661.239673 71.45304 
L 664.163363 95.825798 
L 667.087053 313.726048 
L 670.010743 406.697934 
L 672.934433 431.572015 
L 675.858124 499.308285 
L 678.781814 408.52525 
L 681.705504 383.292415 
L 684.629194 463.724158 
L 687.552884 368.020847 
L 690.476574 383.714623 
L 693.400264 350.659246 
L 696.323954 389.230012 
L 699.247644 379.686196 
L 702.171335 350.763084 
L 705.095025 319.903484 
L 708.018715 314.051624 
L 710.942405 313.011234 
L 713.866095 311.578404 
L 716.789785 314.22724 
L 719.713475 312.623184 
L 722.637165 310.212787 
L 725.560855 312.973298 
L 728.484545 309.865962 
L 728.484545 309.865962 
" style="fill:none;stroke:#dd8452;stroke-dasharray:6,2.25;stroke-dashoffset:0;stroke-width:1.5;"/>
   </g>
   <g id="line2d_3">
    <path clip-path="url(#p7349710930)" d="M 134.975455 318.722422 
L 137.899145 317.60693 
L 140.822835 313.709398 
L 143.746525 312.840059 
L 146.670215 318.545214 
L 149.593905 317.509476 
L 152.517595 317.146122 
L 155.441285 337.967727 
L 158.364975 337.672409 
L 161.288665 329.623774 
L 164.212356 331.732889 
L 167.136046 323.837868 
L 170.059736 314.782582 
L 172.983426 331.416128 
L 175.907116 336.933196 
L 178.830806 352.51306 
L 181.754496 382.633429 
L 184.678186 350.006766 
L 187.601876 324.741715 
L 190.525567 351.046964 
L 193.449257 362.877295 
L 196.372947 365.29843 
L 199.296637 402.00209 
L 205.144017 317.94669 
L 208.067707 103.153796 
L 210.991397 301.424328 
L 213.915087 280.976064 
L 216.838777 281.503963 
L 219.762468 276.707394 
L 222.686158 277.909584 
L 225.609848 289.851344 
L 228.533538 354.41609 
L 231.457228 342.128361 
L 234.380918 232.411867 
L 237.304608 259.385093 
L 240.228298 318.766147 
L 243.151988 326.385106 
L 246.075678 326.983945 
L 248.999369 344.833341 
L 251.923059 257.385081 
L 254.846749 329.210994 
L 257.770439 327.774596 
L 260.694129 269.266938 
L 263.617819 304.151397 
L 266.541509 365.000821 
L 269.465199 418.26345 
L 272.388889 359.743566 
L 275.312579 296.740289 
L 278.23627 259.263573 
L 281.15996 233.816713 
L 284.08365 242.94712 
L 287.00734 248.07598 
L 289.93103 285.263937 
L 292.85472 269.724598 
L 295.77841 310.632337 
L 298.7021 358.922483 
L 301.62579 366.973199 
L 304.549481 283.027688 
L 307.473171 308.335748 
L 310.396861 404.495808 
L 313.320551 350.180196 
L 316.244241 302.767994 
L 319.167931 358.709263 
L 322.091621 71.453218 
L 325.015311 107.257303 
L 327.939001 304.89605 
L 330.862691 412.630634 
L 333.786382 338.504214 
L 336.710072 366.174327 
L 339.633762 373.261084 
L 342.557452 425.839436 
L 345.481142 297.253112 
L 348.404832 345.477986 
L 351.328522 134.647505 
L 354.252212 207.177555 
L 357.175902 318.280416 
L 360.099592 246.477923 
L 363.023283 245.431166 
L 365.946973 156.334941 
L 368.870663 178.629157 
L 371.794353 95.717968 
L 374.718043 216.940459 
L 377.641733 191.490644 
L 380.565423 254.627912 
L 383.489113 290.394284 
L 386.412803 278.345714 
L 389.336494 379.262799 
L 392.260184 435.572074 
L 395.183874 394.768977 
L 398.107564 163.595443 
L 401.031254 71.506736 
L 403.954944 122.196197 
L 406.878634 204.685795 
L 409.802324 308.17979 
L 412.726014 332.964567 
L 415.649704 314.412774 
L 418.573395 313.777818 
L 421.497085 265.579617 
L 424.420775 194.148602 
L 427.344465 228.432499 
L 430.268155 213.873288 
L 433.191845 217.18322 
L 436.115535 249.288594 
L 439.039225 314.605408 
L 441.962915 359.420282 
L 444.886605 287.57555 
L 447.810296 404.594557 
L 450.733986 305.174035 
L 453.657676 272.368048 
L 456.581366 477.37682 
L 459.505056 437.562046 
L 462.428746 371.994216 
L 465.352436 322.960817 
L 468.276126 243.019353 
L 471.199816 145.414324 
L 474.123506 212.870974 
L 477.047197 243.762694 
L 479.970887 288.327461 
L 482.894577 248.085582 
L 485.818267 155.835008 
L 488.741957 77.964712 
L 494.589337 277.132767 
L 497.513027 389.725258 
L 500.436717 272.435384 
L 503.360408 266.649023 
L 506.284098 265.369528 
L 509.207788 325.933061 
L 512.131478 383.357233 
L 515.055168 367.62386 
L 517.978858 298.298539 
L 520.902548 236.621054 
L 523.826238 71.452971 
L 526.749928 201.165442 
L 529.673618 375.050797 
L 532.597309 387.355508 
L 535.520999 342.154491 
L 538.444689 277.165771 
L 541.368379 230.012332 
L 544.292069 74.381658 
L 547.215759 256.744721 
L 550.139449 356.200538 
L 553.063139 276.134475 
L 555.986829 133.862477 
L 558.910519 82.785114 
L 561.83421 88.147269 
L 564.7579 111.417034 
L 567.68159 181.232896 
L 570.60528 183.216467 
L 573.52897 332.124996 
L 576.45266 109.476405 
L 579.37635 71.462118 
L 582.30004 262.977531 
L 585.22373 391.239468 
L 588.147421 313.673246 
L 591.071111 390.773081 
L 593.994801 358.026664 
L 596.918491 366.027202 
L 599.842181 463.96356 
L 602.765871 357.333188 
L 605.689561 343.610862 
L 608.613251 430.211926 
L 611.536941 414.332267 
L 614.460631 433.495036 
L 617.384322 480.933648 
L 620.308012 366.16929 
L 623.231702 367.759862 
L 626.155392 390.464558 
L 629.079082 242.400488 
L 632.002772 335.622778 
L 634.926462 379.571706 
L 637.850152 297.83245 
L 640.773842 154.569933 
L 643.697532 175.479285 
L 646.621223 268.31022 
L 649.544913 167.528463 
L 652.468603 71.454361 
L 655.392293 234.579013 
L 658.315983 76.326593 
L 661.239673 71.45313 
L 664.163363 85.48926 
L 667.087053 310.459693 
L 670.010743 407.739216 
L 672.934433 421.661679 
L 675.858124 509.035991 
L 678.781814 411.050206 
L 681.705504 361.802729 
L 684.629194 472.929159 
L 687.552884 385.30516 
L 690.476574 371.958502 
L 693.400264 347.718275 
L 696.323954 389.235749 
L 699.247644 372.635608 
L 702.171335 354.66826 
L 705.095025 312.41605 
L 708.018715 304.916653 
L 710.942405 304.727656 
L 713.866095 301.827768 
L 716.789785 303.039403 
L 719.713475 302.155705 
L 725.560855 299.654361 
L 728.484545 296.431241 
L 728.484545 296.431241 
" style="fill:none;stroke:#55a868;stroke-dasharray:1.5,1.5;stroke-dashoffset:0;stroke-width:1.5;"/>
   </g>
   <g id="line2d_4">
    <path clip-path="url(#p7349710930)" d="M 134.975455 323.571846 
L 137.899145 324.810363 
L 140.822835 323.854221 
L 143.746525 324.780717 
L 146.670215 323.306803 
L 149.593905 326.660206 
L 152.517595 323.128983 
L 155.441285 324.302594 
L 158.364975 321.970116 
L 161.288665 322.944586 
L 164.212356 324.208393 
L 167.136046 323.111563 
L 170.059736 320.885388 
L 172.983426 332.256433 
L 175.907116 340.076177 
L 178.830806 364.323312 
L 181.754496 382.941182 
L 184.678186 370.395529 
L 187.601876 281.074847 
L 190.525567 359.617411 
L 193.449257 310.227636 
L 196.372947 298.550063 
L 199.296637 369.399441 
L 202.220327 328.802131 
L 208.067707 71.452938 
L 210.991397 378.722639 
L 213.915087 415.160311 
L 216.838777 397.588708 
L 219.762468 373.655867 
L 222.686158 309.704809 
L 225.609848 318.755986 
L 228.533538 387.171094 
L 231.457228 380.661681 
L 234.380918 258.169261 
L 237.304608 311.560651 
L 240.228298 320.723274 
L 243.151988 316.116978 
L 246.075678 351.865371 
L 248.999369 309.654088 
L 251.923059 274.286294 
L 257.770439 389.953327 
L 260.694129 286.341581 
L 263.617819 328.666392 
L 266.541509 330.513926 
L 269.465199 392.330247 
L 272.388889 365.383221 
L 275.312579 328.702491 
L 278.23627 314.992828 
L 281.15996 323.253406 
L 284.08365 310.212018 
L 287.00734 352.02376 
L 289.93103 448.224975 
L 292.85472 379.420908 
L 295.77841 344.46857 
L 298.7021 395.821383 
L 301.62579 361.990484 
L 304.549481 323.763973 
L 307.473171 330.308244 
L 310.396861 391.020004 
L 313.320551 322.283693 
L 316.244241 302.694536 
L 319.167931 352.385225 
L 322.091621 71.452866 
L 325.015311 98.777734 
L 327.939001 289.06071 
L 330.862691 381.155562 
L 333.786382 333.667506 
L 336.710072 357.310591 
L 339.633762 366.237956 
L 342.557452 407.120142 
L 345.481142 311.05715 
L 348.404832 266.746407 
L 351.328522 233.140394 
L 354.252212 71.589155 
L 357.175902 287.137007 
L 360.099592 251.332716 
L 363.023283 329.257097 
L 365.946973 269.899742 
L 368.870663 142.42867 
L 371.794353 71.697977 
L 374.718043 248.742085 
L 377.641733 280.154385 
L 380.565423 324.728597 
L 383.489113 254.184943 
L 386.412803 265.482146 
L 389.336494 351.129674 
L 392.260184 413.722497 
L 395.183874 389.028283 
L 398.107564 194.77127 
L 401.031254 72.29211 
L 403.954944 142.11009 
L 406.878634 247.418428 
L 409.802324 306.286746 
L 412.726014 344.485081 
L 415.649704 395.706509 
L 418.573395 358.668074 
L 421.497085 428.398427 
L 424.420775 450.426576 
L 427.344465 339.455196 
L 430.268155 346.40693 
L 433.191845 335.694767 
L 436.115535 323.193713 
L 439.039225 382.235392 
L 441.962915 403.783407 
L 444.886605 323.066963 
L 447.810296 375.714541 
L 450.733986 407.247749 
L 453.657676 320.257044 
L 456.581366 436.488548 
L 459.505056 380.145832 
L 462.428746 345.841479 
L 465.352436 355.708878 
L 468.276126 282.873514 
L 471.199816 291.639745 
L 474.123506 308.32709 
L 477.047197 389.202902 
L 479.970887 303.437369 
L 482.894577 260.271379 
L 485.818267 71.554451 
L 488.741957 71.461792 
L 491.665647 270.570849 
L 494.589337 367.24947 
L 497.513027 474.083181 
L 500.436717 408.7777 
L 503.360408 284.313638 
L 506.284098 329.60527 
L 509.207788 445.703867 
L 512.131478 457.227267 
L 515.055168 464.251655 
L 517.978858 334.354966 
L 520.902548 267.003964 
L 523.826238 71.453753 
L 526.749928 133.293791 
L 529.673618 364.279535 
L 532.597309 401.942554 
L 535.520999 306.390829 
L 538.444689 281.019684 
L 541.368379 379.688994 
L 544.292069 252.182798 
L 547.215759 292.96641 
L 550.139449 412.691988 
L 553.063139 353.007553 
L 555.986829 341.355252 
L 558.910519 232.201236 
L 561.83421 168.992976 
L 564.7579 216.555479 
L 567.68159 276.062924 
L 570.60528 376.157037 
L 573.52897 191.616606 
L 576.45266 293.657631 
L 579.37635 71.543349 
L 582.30004 239.214902 
L 585.22373 377.647531 
L 588.147421 258.198294 
L 591.071111 335.177204 
L 593.994801 362.152703 
L 596.918491 387.328888 
L 599.842181 396.47988 
L 602.765871 319.973549 
L 605.689561 320.562733 
L 608.613251 425.031819 
L 611.536941 411.500083 
L 614.460631 424.506911 
L 617.384322 490.309176 
L 620.308012 398.815349 
L 623.231702 358.813853 
L 626.155392 361.067539 
L 629.079082 245.78616 
L 632.002772 338.795824 
L 634.926462 365.744074 
L 637.850152 351.975261 
L 640.773842 205.528627 
L 643.697532 83.597813 
L 646.621223 200.983617 
L 649.544913 153.267954 
L 652.468603 71.453373 
L 655.392293 234.525809 
L 658.315983 82.440544 
L 661.239673 71.453054 
L 664.163363 97.248965 
L 667.087053 313.486768 
L 670.010743 407.753733 
L 672.934433 432.102171 
L 675.858124 499.594561 
L 678.781814 408.794596 
L 681.705504 380.52295 
L 684.629194 463.697118 
L 687.552884 367.038891 
L 690.476574 383.195871 
L 693.400264 351.468174 
L 696.323954 389.560257 
L 699.247644 381.481295 
L 702.171335 349.004451 
L 705.095025 319.57511 
L 708.018715 314.324887 
L 710.942405 313.839016 
L 713.866095 312.63352 
L 716.789785 314.818086 
L 719.713475 313.484547 
L 722.637165 311.726509 
L 725.560855 314.075865 
L 728.484545 312.314871 
L 728.484545 312.314871 
" style="fill:none;stroke:#c44e52;stroke-dasharray:4.5,1.875,2.25,1.875;stroke-dashoffset:0;stroke-width:1.5;"/>
   </g>
   <g id="line2d_5">
    <path clip-path="url(#p7349710930)" d="M 134.975455 324.228384 
L 137.899145 325.584888 
L 140.822835 324.689857 
L 143.746525 325.766836 
L 146.670215 324.371277 
L 149.593905 328.32532 
L 152.517595 324.848788 
L 155.441285 326.641509 
L 158.364975 324.459724 
L 161.288665 325.668105 
L 164.212356 326.214981 
L 167.136046 325.279076 
L 170.059736 322.596763 
L 172.983426 333.450718 
L 175.907116 338.978104 
L 181.754496 385.227714 
L 184.678186 360.74833 
L 187.601876 303.843399 
L 190.525567 363.437079 
L 193.449257 314.945763 
L 196.372947 303.823076 
L 199.296637 380.289529 
L 202.220327 341.032405 
L 205.144017 211.094212 
L 208.067707 71.452922 
L 210.991397 376.708845 
L 213.915087 417.28744 
L 216.838777 403.032074 
L 219.762468 377.658655 
L 222.686158 320.957902 
L 225.609848 333.354768 
L 228.533538 406.983405 
L 231.457228 389.71179 
L 234.380918 266.846485 
L 237.304608 311.125554 
L 240.228298 323.249821 
L 243.151988 321.424394 
L 246.075678 357.736349 
L 248.999369 301.406121 
L 251.923059 272.380903 
L 254.846749 342.445646 
L 257.770439 401.501108 
L 260.694129 285.123947 
L 263.617819 321.47814 
L 266.541509 330.298135 
L 269.465199 390.123609 
L 272.388889 364.071247 
L 275.312579 323.382692 
L 278.23627 311.72782 
L 281.15996 328.476171 
L 284.08365 312.53444 
L 287.00734 346.999017 
L 289.93103 445.735944 
L 292.85472 379.718762 
L 295.77841 346.41989 
L 298.7021 393.38003 
L 301.62579 354.167295 
L 304.549481 317.252181 
L 307.473171 321.394136 
L 310.396861 397.878797 
L 313.320551 331.296637 
L 316.244241 309.041747 
L 319.167931 370.587044 
L 322.091621 71.452988 
L 325.015311 95.953597 
L 327.939001 289.591583 
L 330.862691 377.848386 
L 333.786382 345.701472 
L 336.710072 321.976937 
L 339.633762 346.710958 
L 342.557452 391.408946 
L 345.481142 313.187585 
L 348.404832 320.213022 
L 351.328522 293.603465 
L 354.252212 375.724965 
L 357.175902 482.302937 
L 360.099592 421.311985 
L 363.023283 373.074431 
L 365.946973 279.083038 
L 368.870663 219.758599 
L 371.794353 71.825076 
L 374.718043 317.046639 
L 377.641733 372.985932 
L 380.565423 372.38879 
L 383.489113 299.563256 
L 386.412803 262.981641 
L 389.336494 359.637507 
L 392.260184 418.584181 
L 395.183874 388.919425 
L 398.107564 152.822975 
L 401.031254 71.548898 
L 403.954944 141.676571 
L 406.878634 241.01224 
L 409.802324 314.348201 
L 412.726014 350.213899 
L 415.649704 415.770641 
L 418.573395 348.239318 
L 421.497085 417.075672 
L 424.420775 446.698312 
L 427.344465 354.464414 
L 430.268155 349.891245 
L 433.191845 341.141035 
L 436.115535 319.938867 
L 439.039225 384.704275 
L 441.962915 407.475713 
L 444.886605 326.276371 
L 447.810296 371.43027 
L 450.733986 410.926762 
L 453.657676 304.826859 
L 456.581366 410.395906 
L 459.505056 362.307839 
L 462.428746 330.139151 
L 465.352436 341.870874 
L 468.276126 286.102266 
L 471.199816 299.929408 
L 474.123506 332.083825 
L 477.047197 391.529242 
L 479.970887 309.120522 
L 482.894577 255.264843 
L 485.818267 71.511002 
L 488.741957 71.462441 
L 491.665647 278.096272 
L 494.589337 368.882193 
L 497.513027 476.059791 
L 500.436717 402.636451 
L 503.360408 284.04361 
L 506.284098 326.651828 
L 509.207788 447.222766 
L 512.131478 461.651458 
L 515.055168 461.366371 
L 517.978858 343.836605 
L 520.902548 282.817966 
L 523.826238 71.455773 
L 526.749928 117.715532 
L 529.673618 362.360029 
L 532.597309 387.536109 
L 535.520999 299.451565 
L 538.444689 264.066333 
L 541.368379 371.044057 
L 544.292069 236.776959 
L 547.215759 273.842241 
L 550.139449 400.417465 
L 553.063139 231.045062 
L 555.986829 255.309408 
L 558.910519 205.168938 
L 561.83421 202.309565 
L 564.7579 262.280014 
L 567.68159 207.298148 
L 570.60528 298.701928 
L 573.52897 247.796298 
L 576.45266 227.447745 
L 579.37635 71.45932 
L 585.22373 353.414667 
L 588.147421 286.675027 
L 591.071111 335.588463 
L 593.994801 340.133071 
L 596.918491 378.917477 
L 599.842181 375.902103 
L 602.765871 309.428258 
L 605.689561 312.714027 
L 608.613251 420.201792 
L 611.536941 404.330773 
L 614.460631 417.354672 
L 617.384322 473.210047 
L 620.308012 380.699424 
L 623.231702 363.740075 
L 626.155392 370.3411 
L 629.079082 256.232493 
L 632.002772 336.05861 
L 634.926462 353.729241 
L 637.850152 345.316326 
L 640.773842 179.755073 
L 643.697532 73.842531 
L 646.621223 187.741636 
L 649.544913 154.910515 
L 652.468603 71.453948 
L 655.392293 224.035751 
L 658.315983 102.62718 
L 661.239673 71.453366 
L 664.163363 90.326226 
L 667.087053 318.591755 
L 670.010743 407.502962 
L 672.934433 427.604138 
L 675.858124 492.104591 
L 678.781814 396.919578 
L 681.705504 372.50125 
L 684.629194 449.480614 
L 687.552884 358.046358 
L 690.476574 377.294688 
L 693.400264 348.580949 
L 696.323954 383.587506 
L 699.247644 383.241345 
L 702.171335 339.872384 
L 705.095025 316.851889 
L 708.018715 313.430275 
L 710.942405 313.207541 
L 713.866095 312.531152 
L 716.789785 312.727739 
L 722.637165 309.537972 
L 725.560855 311.914945 
L 728.484545 310.84804 
L 728.484545 310.84804 
" style="fill:none;stroke:#8172b3;stroke-dasharray:7.5,1.5,1.5,1.5;stroke-dashoffset:0;stroke-width:1.5;"/>
   </g>
   <g id="line2d_6"/>
   <g id="line2d_7"/>
   <g id="line2d_8"/>
   <g id="line2d_9"/>
   <g id="line2d_10"/>
   <g id="patch_3">
    <path d="M 105.3 529.9416 
L 105.3 71.4528 
" style="fill:none;stroke:#262626;stroke-linecap:square;stroke-linejoin:miter;stroke-width:1.25;"/>
   </g>
   <g id="patch_4">
    <path d="M 758.16 529.9416 
L 758.16 71.4528 
" style="fill:none;stroke:#262626;stroke-linecap:square;stroke-linejoin:miter;stroke-width:1.25;"/>
   </g>
   <g id="patch_5">
    <path d="M 105.3 529.9416 
L 758.16 529.9416 
" style="fill:none;stroke:#262626;stroke-linecap:square;stroke-linejoin:miter;stroke-width:1.25;"/>
   </g>
   <g id="patch_6">
    <path d="M 105.3 71.4528 
L 758.16 71.4528 
" style="fill:none;stroke:#262626;stroke-linecap:square;stroke-linejoin:miter;stroke-width:1.25;"/>
   </g>
   <g id="text_16">
    <!-- Activations for &gt;A&lt; -->
    <g style="fill:#262626;" transform="translate(381.372187 65.4528)scale(0.12 -0.12)">
     <defs>
      <path d="M -9 0 
L 1750 4581 
L 2403 4581 
L 4278 0 
L 3588 0 
L 3053 1388 
L 1138 1388 
L 634 0 
L -9 0 
z
M 1313 1881 
L 2866 1881 
L 2388 3150 
Q 2169 3728 2063 4100 
Q 1975 3659 1816 3225 
L 1313 1881 
z
" id="ArialMT-41" transform="scale(0.015625)"/>
      <path d="M 2588 1216 
L 3141 1144 
Q 3050 572 2676 248 
Q 2303 -75 1759 -75 
Q 1078 -75 664 370 
Q 250 816 250 1647 
Q 250 2184 428 2587 
Q 606 2991 970 3192 
Q 1334 3394 1763 3394 
Q 2303 3394 2647 3120 
Q 2991 2847 3088 2344 
L 2541 2259 
Q 2463 2594 2264 2762 
Q 2066 2931 1784 2931 
Q 1359 2931 1093 2626 
Q 828 2322 828 1663 
Q 828 994 1084 691 
Q 1341 388 1753 388 
Q 2084 388 2306 591 
Q 2528 794 2588 1216 
z
" id="ArialMT-63" transform="scale(0.015625)"/>
      <path d="M 1650 503 
L 1731 6 
Q 1494 -44 1306 -44 
Q 1000 -44 831 53 
Q 663 150 594 308 
Q 525 466 525 972 
L 525 2881 
L 113 2881 
L 113 3319 
L 525 3319 
L 525 4141 
L 1084 4478 
L 1084 3319 
L 1650 3319 
L 1650 2881 
L 1084 2881 
L 1084 941 
Q 1084 700 1114 631 
Q 1144 563 1211 522 
Q 1278 481 1403 481 
Q 1497 481 1650 503 
z
" id="ArialMT-74" transform="scale(0.015625)"/>
      <path d="M 425 3934 
L 425 4581 
L 988 4581 
L 988 3934 
L 425 3934 
z
M 425 0 
L 425 3319 
L 988 3319 
L 988 0 
L 425 0 
z
" id="ArialMT-69" transform="scale(0.015625)"/>
      <path d="M 1344 0 
L 81 3319 
L 675 3319 
L 1388 1331 
Q 1503 1009 1600 663 
Q 1675 925 1809 1294 
L 2547 3319 
L 3125 3319 
L 1869 0 
L 1344 0 
z
" id="ArialMT-76" transform="scale(0.015625)"/>
      <path d="M 2588 409 
Q 2275 144 1986 34 
Q 1697 -75 1366 -75 
Q 819 -75 525 192 
Q 231 459 231 875 
Q 231 1119 342 1320 
Q 453 1522 633 1644 
Q 813 1766 1038 1828 
Q 1203 1872 1538 1913 
Q 2219 1994 2541 2106 
Q 2544 2222 2544 2253 
Q 2544 2597 2384 2738 
Q 2169 2928 1744 2928 
Q 1347 2928 1158 2789 
Q 969 2650 878 2297 
L 328 2372 
Q 403 2725 575 2942 
Q 747 3159 1072 3276 
Q 1397 3394 1825 3394 
Q 2250 3394 2515 3294 
Q 2781 3194 2906 3042 
Q 3031 2891 3081 2659 
Q 3109 2516 3109 2141 
L 3109 1391 
Q 3109 606 3145 398 
Q 3181 191 3288 0 
L 2700 0 
Q 2613 175 2588 409 
z
M 2541 1666 
Q 2234 1541 1622 1453 
Q 1275 1403 1131 1340 
Q 988 1278 909 1158 
Q 831 1038 831 891 
Q 831 666 1001 516 
Q 1172 366 1500 366 
Q 1825 366 2078 508 
Q 2331 650 2450 897 
Q 2541 1088 2541 1459 
L 2541 1666 
z
" id="ArialMT-61" transform="scale(0.015625)"/>
      <path d="M 213 1659 
Q 213 2581 725 3025 
Q 1153 3394 1769 3394 
Q 2453 3394 2887 2945 
Q 3322 2497 3322 1706 
Q 3322 1066 3130 698 
Q 2938 331 2570 128 
Q 2203 -75 1769 -75 
Q 1072 -75 642 372 
Q 213 819 213 1659 
z
M 791 1659 
Q 791 1022 1069 705 
Q 1347 388 1769 388 
Q 2188 388 2466 706 
Q 2744 1025 2744 1678 
Q 2744 2294 2464 2611 
Q 2184 2928 1769 2928 
Q 1347 2928 1069 2612 
Q 791 2297 791 1659 
z
" id="ArialMT-6f" transform="scale(0.015625)"/>
      <path d="M 422 0 
L 422 3319 
L 928 3319 
L 928 2847 
Q 1294 3394 1984 3394 
Q 2284 3394 2536 3286 
Q 2788 3178 2913 3003 
Q 3038 2828 3088 2588 
Q 3119 2431 3119 2041 
L 3119 0 
L 2556 0 
L 2556 2019 
Q 2556 2363 2490 2533 
Q 2425 2703 2258 2804 
Q 2091 2906 1866 2906 
Q 1506 2906 1245 2678 
Q 984 2450 984 1813 
L 984 0 
L 422 0 
z
" id="ArialMT-6e" transform="scale(0.015625)"/>
      <path d="M 197 991 
L 753 1078 
Q 800 744 1014 566 
Q 1228 388 1613 388 
Q 2000 388 2187 545 
Q 2375 703 2375 916 
Q 2375 1106 2209 1216 
Q 2094 1291 1634 1406 
Q 1016 1563 777 1677 
Q 538 1791 414 1992 
Q 291 2194 291 2438 
Q 291 2659 392 2848 
Q 494 3038 669 3163 
Q 800 3259 1026 3326 
Q 1253 3394 1513 3394 
Q 1903 3394 2198 3281 
Q 2494 3169 2634 2976 
Q 2775 2784 2828 2463 
L 2278 2388 
Q 2241 2644 2061 2787 
Q 1881 2931 1553 2931 
Q 1166 2931 1000 2803 
Q 834 2675 834 2503 
Q 834 2394 903 2306 
Q 972 2216 1119 2156 
Q 1203 2125 1616 2013 
Q 2213 1853 2448 1751 
Q 2684 1650 2818 1456 
Q 2953 1263 2953 975 
Q 2953 694 2789 445 
Q 2625 197 2315 61 
Q 2006 -75 1616 -75 
Q 969 -75 630 194 
Q 291 463 197 991 
z
" id="ArialMT-73" transform="scale(0.015625)"/>
      <path id="ArialMT-20" transform="scale(0.015625)"/>
      <path d="M 556 0 
L 556 2881 
L 59 2881 
L 59 3319 
L 556 3319 
L 556 3672 
Q 556 4006 616 4169 
Q 697 4388 901 4523 
Q 1106 4659 1475 4659 
Q 1713 4659 2000 4603 
L 1916 4113 
Q 1741 4144 1584 4144 
Q 1328 4144 1222 4034 
Q 1116 3925 1116 3625 
L 1116 3319 
L 1763 3319 
L 1763 2881 
L 1116 2881 
L 1116 0 
L 556 0 
z
" id="ArialMT-66" transform="scale(0.015625)"/>
      <path d="M 416 0 
L 416 3319 
L 922 3319 
L 922 2816 
Q 1116 3169 1280 3281 
Q 1444 3394 1641 3394 
Q 1925 3394 2219 3213 
L 2025 2691 
Q 1819 2813 1613 2813 
Q 1428 2813 1281 2702 
Q 1134 2591 1072 2394 
Q 978 2094 978 1738 
L 978 0 
L 416 0 
z
" id="ArialMT-72" transform="scale(0.015625)"/>
      <path d="M 3384 2003 
L 350 706 
L 350 1266 
L 2753 2263 
L 350 3250 
L 350 3809 
L 3384 2528 
L 3384 2003 
z
" id="ArialMT-3e" transform="scale(0.015625)"/>
      <path d="M 350 2003 
L 350 2528 
L 3384 3809 
L 3384 3250 
L 978 2263 
L 3384 1266 
L 3384 706 
L 350 2003 
z
" id="ArialMT-3c" transform="scale(0.015625)"/>
     </defs>
     <use xlink:href="#ArialMT-41"/>
     <use x="66.699219" xlink:href="#ArialMT-63"/>
     <use x="116.699219" xlink:href="#ArialMT-74"/>
     <use x="144.482422" xlink:href="#ArialMT-69"/>
     <use x="166.699219" xlink:href="#ArialMT-76"/>
     <use x="216.699219" xlink:href="#ArialMT-61"/>
     <use x="272.314453" xlink:href="#ArialMT-74"/>
     <use x="300.097656" xlink:href="#ArialMT-69"/>
     <use x="322.314453" xlink:href="#ArialMT-6f"/>
     <use x="377.929688" xlink:href="#ArialMT-6e"/>
     <use x="433.544922" xlink:href="#ArialMT-73"/>
     <use x="483.544922" xlink:href="#ArialMT-20"/>
     <use x="511.328125" xlink:href="#ArialMT-66"/>
     <use x="539.111328" xlink:href="#ArialMT-6f"/>
     <use x="594.726562" xlink:href="#ArialMT-72"/>
     <use x="628.027344" xlink:href="#ArialMT-20"/>
     <use x="655.810547" xlink:href="#ArialMT-3e"/>
     <use x="714.208984" xlink:href="#ArialMT-41"/>
     <use x="780.908203" xlink:href="#ArialMT-3c"/>
    </g>
   </g>
   <g id="legend_1">
    <g id="patch_7">
     <path d="M 113 524.4416 
L 223.415938 524.4416 
Q 225.615938 524.4416 225.615938 522.2416 
L 225.615938 445.080037 
Q 225.615938 442.880037 223.415938 442.880037 
L 113 442.880037 
Q 110.8 442.880037 110.8 445.080037 
L 110.8 522.2416 
Q 110.8 524.4416 113 524.4416 
z
" style="fill:#ffffff;opacity:0.8;stroke:#cccccc;stroke-linejoin:miter;"/>
    </g>
    <g id="line2d_11">
     <path d="M 115.2 451.303631 
L 137.2 451.303631 
" style="fill:none;stroke:#4c72b0;stroke-linecap:round;stroke-width:1.5;"/>
    </g>
    <g id="line2d_12"/>
    <g id="text_17">
     <!-- regular -->
     <g style="fill:#262626;" transform="translate(146 455.153631)scale(0.11 -0.11)">
      <defs>
       <path d="M 2694 1069 
L 3275 997 
Q 3138 488 2766 206 
Q 2394 -75 1816 -75 
Q 1088 -75 661 373 
Q 234 822 234 1631 
Q 234 2469 665 2931 
Q 1097 3394 1784 3394 
Q 2450 3394 2872 2941 
Q 3294 2488 3294 1666 
Q 3294 1616 3291 1516 
L 816 1516 
Q 847 969 1125 678 
Q 1403 388 1819 388 
Q 2128 388 2347 550 
Q 2566 713 2694 1069 
z
M 847 1978 
L 2700 1978 
Q 2663 2397 2488 2606 
Q 2219 2931 1791 2931 
Q 1403 2931 1139 2672 
Q 875 2413 847 1978 
z
" id="ArialMT-65" transform="scale(0.015625)"/>
       <path d="M 319 -275 
L 866 -356 
Q 900 -609 1056 -725 
Q 1266 -881 1628 -881 
Q 2019 -881 2231 -725 
Q 2444 -569 2519 -288 
Q 2563 -116 2559 434 
Q 2191 0 1641 0 
Q 956 0 581 494 
Q 206 988 206 1678 
Q 206 2153 378 2554 
Q 550 2956 876 3175 
Q 1203 3394 1644 3394 
Q 2231 3394 2613 2919 
L 2613 3319 
L 3131 3319 
L 3131 450 
Q 3131 -325 2973 -648 
Q 2816 -972 2473 -1159 
Q 2131 -1347 1631 -1347 
Q 1038 -1347 672 -1080 
Q 306 -813 319 -275 
z
M 784 1719 
Q 784 1066 1043 766 
Q 1303 466 1694 466 
Q 2081 466 2343 764 
Q 2606 1063 2606 1700 
Q 2606 2309 2336 2618 
Q 2066 2928 1684 2928 
Q 1309 2928 1046 2623 
Q 784 2319 784 1719 
z
" id="ArialMT-67" transform="scale(0.015625)"/>
       <path d="M 2597 0 
L 2597 488 
Q 2209 -75 1544 -75 
Q 1250 -75 995 37 
Q 741 150 617 320 
Q 494 491 444 738 
Q 409 903 409 1263 
L 409 3319 
L 972 3319 
L 972 1478 
Q 972 1038 1006 884 
Q 1059 663 1231 536 
Q 1403 409 1656 409 
Q 1909 409 2131 539 
Q 2353 669 2445 892 
Q 2538 1116 2538 1541 
L 2538 3319 
L 3100 3319 
L 3100 0 
L 2597 0 
z
" id="ArialMT-75" transform="scale(0.015625)"/>
       <path d="M 409 0 
L 409 4581 
L 972 4581 
L 972 0 
L 409 0 
z
" id="ArialMT-6c" transform="scale(0.015625)"/>
      </defs>
      <use xlink:href="#ArialMT-72"/>
      <use x="33.300781" xlink:href="#ArialMT-65"/>
      <use x="88.916016" xlink:href="#ArialMT-67"/>
      <use x="144.53125" xlink:href="#ArialMT-75"/>
      <use x="200.146484" xlink:href="#ArialMT-6c"/>
      <use x="222.363281" xlink:href="#ArialMT-61"/>
      <use x="277.978516" xlink:href="#ArialMT-72"/>
     </g>
    </g>
    <g id="line2d_13">
     <path d="M 115.2 467.025037 
L 137.2 467.025037 
" style="fill:none;stroke:#dd8452;stroke-dasharray:6,2.25;stroke-dashoffset:0;stroke-width:1.5;"/>
    </g>
    <g id="line2d_14"/>
    <g id="text_18">
     <!-- splitted_3s -->
     <g style="fill:#262626;" transform="translate(146 470.875037)scale(0.11 -0.11)">
      <defs>
       <path d="M 422 -1272 
L 422 3319 
L 934 3319 
L 934 2888 
Q 1116 3141 1344 3267 
Q 1572 3394 1897 3394 
Q 2322 3394 2647 3175 
Q 2972 2956 3137 2557 
Q 3303 2159 3303 1684 
Q 3303 1175 3120 767 
Q 2938 359 2589 142 
Q 2241 -75 1856 -75 
Q 1575 -75 1351 44 
Q 1128 163 984 344 
L 984 -1272 
L 422 -1272 
z
M 931 1641 
Q 931 1000 1190 694 
Q 1450 388 1819 388 
Q 2194 388 2461 705 
Q 2728 1022 2728 1688 
Q 2728 2322 2467 2637 
Q 2206 2953 1844 2953 
Q 1484 2953 1207 2617 
Q 931 2281 931 1641 
z
" id="ArialMT-70" transform="scale(0.015625)"/>
       <path d="M 2575 0 
L 2575 419 
Q 2259 -75 1647 -75 
Q 1250 -75 917 144 
Q 584 363 401 755 
Q 219 1147 219 1656 
Q 219 2153 384 2558 
Q 550 2963 881 3178 
Q 1213 3394 1622 3394 
Q 1922 3394 2156 3267 
Q 2391 3141 2538 2938 
L 2538 4581 
L 3097 4581 
L 3097 0 
L 2575 0 
z
M 797 1656 
Q 797 1019 1065 703 
Q 1334 388 1700 388 
Q 2069 388 2326 689 
Q 2584 991 2584 1609 
Q 2584 2291 2321 2609 
Q 2059 2928 1675 2928 
Q 1300 2928 1048 2622 
Q 797 2316 797 1656 
z
" id="ArialMT-64" transform="scale(0.015625)"/>
       <path d="M -97 -1272 
L -97 -866 
L 3631 -866 
L 3631 -1272 
L -97 -1272 
z
" id="ArialMT-5f" transform="scale(0.015625)"/>
       <path d="M 269 1209 
L 831 1284 
Q 928 806 1161 595 
Q 1394 384 1728 384 
Q 2125 384 2398 659 
Q 2672 934 2672 1341 
Q 2672 1728 2419 1979 
Q 2166 2231 1775 2231 
Q 1616 2231 1378 2169 
L 1441 2663 
Q 1497 2656 1531 2656 
Q 1891 2656 2178 2843 
Q 2466 3031 2466 3422 
Q 2466 3731 2256 3934 
Q 2047 4138 1716 4138 
Q 1388 4138 1169 3931 
Q 950 3725 888 3313 
L 325 3413 
Q 428 3978 793 4289 
Q 1159 4600 1703 4600 
Q 2078 4600 2393 4439 
Q 2709 4278 2876 4000 
Q 3044 3722 3044 3409 
Q 3044 3113 2884 2869 
Q 2725 2625 2413 2481 
Q 2819 2388 3044 2092 
Q 3269 1797 3269 1353 
Q 3269 753 2831 336 
Q 2394 -81 1725 -81 
Q 1122 -81 723 278 
Q 325 638 269 1209 
z
" id="ArialMT-33" transform="scale(0.015625)"/>
      </defs>
      <use xlink:href="#ArialMT-73"/>
      <use x="50" xlink:href="#ArialMT-70"/>
      <use x="105.615234" xlink:href="#ArialMT-6c"/>
      <use x="127.832031" xlink:href="#ArialMT-69"/>
      <use x="150.048828" xlink:href="#ArialMT-74"/>
      <use x="177.832031" xlink:href="#ArialMT-74"/>
      <use x="205.615234" xlink:href="#ArialMT-65"/>
      <use x="261.230469" xlink:href="#ArialMT-64"/>
      <use x="316.845703" xlink:href="#ArialMT-5f"/>
      <use x="372.460938" xlink:href="#ArialMT-33"/>
      <use x="428.076172" xlink:href="#ArialMT-73"/>
     </g>
    </g>
    <g id="line2d_15">
     <path d="M 115.2 482.617537 
L 137.2 482.617537 
" style="fill:none;stroke:#55a868;stroke-dasharray:1.5,1.5;stroke-dashoffset:0;stroke-width:1.5;"/>
    </g>
    <g id="line2d_16"/>
    <g id="text_19">
     <!-- splitted_1s -->
     <g style="fill:#262626;" transform="translate(146 486.467537)scale(0.11 -0.11)">
      <use xlink:href="#ArialMT-73"/>
      <use x="50" xlink:href="#ArialMT-70"/>
      <use x="105.615234" xlink:href="#ArialMT-6c"/>
      <use x="127.832031" xlink:href="#ArialMT-69"/>
      <use x="150.048828" xlink:href="#ArialMT-74"/>
      <use x="177.832031" xlink:href="#ArialMT-74"/>
      <use x="205.615234" xlink:href="#ArialMT-65"/>
      <use x="261.230469" xlink:href="#ArialMT-64"/>
      <use x="316.845703" xlink:href="#ArialMT-5f"/>
      <use x="372.460938" xlink:href="#ArialMT-31"/>
      <use x="428.076172" xlink:href="#ArialMT-73"/>
     </g>
    </g>
    <g id="line2d_17">
     <path d="M 115.2 498.311444 
L 137.2 498.311444 
" style="fill:none;stroke:#c44e52;stroke-dasharray:4.5,1.875,2.25,1.875;stroke-dashoffset:0;stroke-width:1.5;"/>
    </g>
    <g id="line2d_18"/>
    <g id="text_20">
     <!-- overlap_1f_3s -->
     <g style="fill:#262626;" transform="translate(146 502.161444)scale(0.11 -0.11)">
      <use xlink:href="#ArialMT-6f"/>
      <use x="55.615234" xlink:href="#ArialMT-76"/>
      <use x="105.615234" xlink:href="#ArialMT-65"/>
      <use x="161.230469" xlink:href="#ArialMT-72"/>
      <use x="194.53125" xlink:href="#ArialMT-6c"/>
      <use x="216.748047" xlink:href="#ArialMT-61"/>
      <use x="272.363281" xlink:href="#ArialMT-70"/>
      <use x="327.978516" xlink:href="#ArialMT-5f"/>
      <use x="383.59375" xlink:href="#ArialMT-31"/>
      <use x="439.208984" xlink:href="#ArialMT-66"/>
      <use x="466.992188" xlink:href="#ArialMT-5f"/>
      <use x="522.607422" xlink:href="#ArialMT-33"/>
      <use x="578.222656" xlink:href="#ArialMT-73"/>
     </g>
    </g>
    <g id="line2d_19">
     <path d="M 115.2 514.00535 
L 137.2 514.00535 
" style="fill:none;stroke:#8172b3;stroke-dasharray:7.5,1.5,1.5,1.5;stroke-dashoffset:0;stroke-width:1.5;"/>
    </g>
    <g id="line2d_20"/>
    <g id="text_21">
     <!-- overlap_10f_3s -->
     <g style="fill:#262626;" transform="translate(146 517.85535)scale(0.11 -0.11)">
      <use xlink:href="#ArialMT-6f"/>
      <use x="55.615234" xlink:href="#ArialMT-76"/>
      <use x="105.615234" xlink:href="#ArialMT-65"/>
      <use x="161.230469" xlink:href="#ArialMT-72"/>
      <use x="194.53125" xlink:href="#ArialMT-6c"/>
      <use x="216.748047" xlink:href="#ArialMT-61"/>
      <use x="272.363281" xlink:href="#ArialMT-70"/>
      <use x="327.978516" xlink:href="#ArialMT-5f"/>
      <use x="383.59375" xlink:href="#ArialMT-31"/>
      <use x="439.208984" xlink:href="#ArialMT-30"/>
      <use x="494.824219" xlink:href="#ArialMT-66"/>
      <use x="522.607422" xlink:href="#ArialMT-5f"/>
      <use x="578.222656" xlink:href="#ArialMT-33"/>
      <use x="633.837891" xlink:href="#ArialMT-73"/>
     </g>
    </g>
   </g>
  </g>
 </g>
 <defs>
  <clipPath id="p7349710930">
   <rect height="458.4888" width="652.86" x="105.3" y="71.4528"/>
  </clipPath>
 </defs>
</svg>
