<?xml version="1.0" encoding="utf-8" standalone="no"?>
<!DOCTYPE svg PUBLIC "-//W3C//DTD SVG 1.1//EN"
  "http://www.w3.org/Graphics/SVG/1.1/DTD/svg11.dtd">
<svg height="595.44pt" version="1.1" viewBox="0 0 842.4 595.44" width="842.4pt" xmlns="http://www.w3.org/2000/svg" xmlns:xlink="http://www.w3.org/1999/xlink">
 <metadata>
  <rdf:RDF xmlns:cc="http://creativecommons.org/ns#" xmlns:dc="http://purl.org/dc/elements/1.1/" xmlns:rdf="http://www.w3.org/1999/02/22-rdf-syntax-ns#">
   <cc:Work>
    <dc:type rdf:resource="http://purl.org/dc/dcmitype/StillImage"/>
    <dc:date>2021-06-04T22:03:13.159922</dc:date>
    <dc:format>image/svg+xml</dc:format>
    <dc:creator>
     <cc:Agent>
      <dc:title>Matplotlib v3.4.1, https://matplotlib.org/</dc:title>
     </cc:Agent>
    </dc:creator>
   </cc:Work>
  </rdf:RDF>
 </metadata>
 <defs>
  <style type="text/css">*{stroke-linecap:butt;stroke-linejoin:round;}</style>
 </defs>
 <g id="figure_1">
  <g id="patch_1">
   <path d="M 0 595.44 
L 842.4 595.44 
L 842.4 0 
L 0 0 
z
" style="fill:#ffffff;"/>
  </g>
  <g id="axes_1">
   <g id="patch_2">
    <path d="M 105.3 529.9416 
L 758.16 529.9416 
L 758.16 71.4528 
L 105.3 71.4528 
z
" style="fill:#ffffff;"/>
   </g>
   <g id="matplotlib.axis_1">
    <g id="xtick_1">
     <g id="text_1">
      <!-- 0 -->
      <g style="fill:#262626;" transform="translate(131.916939 547.315194)scale(0.11 -0.11)">
       <defs>
        <path d="M 266 2259 
Q 266 3072 433 3567 
Q 600 4063 929 4331 
Q 1259 4600 1759 4600 
Q 2128 4600 2406 4451 
Q 2684 4303 2865 4023 
Q 3047 3744 3150 3342 
Q 3253 2941 3253 2259 
Q 3253 1453 3087 958 
Q 2922 463 2592 192 
Q 2263 -78 1759 -78 
Q 1097 -78 719 397 
Q 266 969 266 2259 
z
M 844 2259 
Q 844 1131 1108 757 
Q 1372 384 1759 384 
Q 2147 384 2411 759 
Q 2675 1134 2675 2259 
Q 2675 3391 2411 3762 
Q 2147 4134 1753 4134 
Q 1366 4134 1134 3806 
Q 844 3388 844 2259 
z
" id="ArialMT-30" transform="scale(0.015625)"/>
       </defs>
       <use xlink:href="#ArialMT-30"/>
      </g>
     </g>
    </g>
    <g id="xtick_2">
     <g id="text_2">
      <!-- 25 -->
      <g style="fill:#262626;" transform="translate(201.950676 547.315194)scale(0.11 -0.11)">
       <defs>
        <path d="M 3222 541 
L 3222 0 
L 194 0 
Q 188 203 259 391 
Q 375 700 629 1000 
Q 884 1300 1366 1694 
Q 2113 2306 2375 2664 
Q 2638 3022 2638 3341 
Q 2638 3675 2398 3904 
Q 2159 4134 1775 4134 
Q 1369 4134 1125 3890 
Q 881 3647 878 3216 
L 300 3275 
Q 359 3922 746 4261 
Q 1134 4600 1788 4600 
Q 2447 4600 2831 4234 
Q 3216 3869 3216 3328 
Q 3216 3053 3103 2787 
Q 2991 2522 2730 2228 
Q 2469 1934 1863 1422 
Q 1356 997 1212 845 
Q 1069 694 975 541 
L 3222 541 
z
" id="ArialMT-32" transform="scale(0.015625)"/>
        <path d="M 266 1200 
L 856 1250 
Q 922 819 1161 601 
Q 1400 384 1738 384 
Q 2144 384 2425 690 
Q 2706 997 2706 1503 
Q 2706 1984 2436 2262 
Q 2166 2541 1728 2541 
Q 1456 2541 1237 2417 
Q 1019 2294 894 2097 
L 366 2166 
L 809 4519 
L 3088 4519 
L 3088 3981 
L 1259 3981 
L 1013 2750 
Q 1425 3038 1878 3038 
Q 2478 3038 2890 2622 
Q 3303 2206 3303 1553 
Q 3303 931 2941 478 
Q 2500 -78 1738 -78 
Q 1113 -78 717 272 
Q 322 622 266 1200 
z
" id="ArialMT-35" transform="scale(0.015625)"/>
       </defs>
       <use xlink:href="#ArialMT-32"/>
       <use x="55.615234" xlink:href="#ArialMT-35"/>
      </g>
     </g>
    </g>
    <g id="xtick_3">
     <g id="text_3">
      <!-- 50 -->
      <g style="fill:#262626;" transform="translate(275.042928 547.315194)scale(0.11 -0.11)">
       <use xlink:href="#ArialMT-35"/>
       <use x="55.615234" xlink:href="#ArialMT-30"/>
      </g>
     </g>
    </g>
    <g id="xtick_4">
     <g id="text_4">
      <!-- 75 -->
      <g style="fill:#262626;" transform="translate(348.135181 547.315194)scale(0.11 -0.11)">
       <defs>
        <path d="M 303 3981 
L 303 4522 
L 3269 4522 
L 3269 4084 
Q 2831 3619 2401 2847 
Q 1972 2075 1738 1259 
Q 1569 684 1522 0 
L 944 0 
Q 953 541 1156 1306 
Q 1359 2072 1739 2783 
Q 2119 3494 2547 3981 
L 303 3981 
z
" id="ArialMT-37" transform="scale(0.015625)"/>
       </defs>
       <use xlink:href="#ArialMT-37"/>
       <use x="55.615234" xlink:href="#ArialMT-35"/>
      </g>
     </g>
    </g>
    <g id="xtick_5">
     <g id="text_5">
      <!-- 100 -->
      <g style="fill:#262626;" transform="translate(418.168918 547.315194)scale(0.11 -0.11)">
       <defs>
        <path d="M 2384 0 
L 1822 0 
L 1822 3584 
Q 1619 3391 1289 3197 
Q 959 3003 697 2906 
L 697 3450 
Q 1169 3672 1522 3987 
Q 1875 4303 2022 4600 
L 2384 4600 
L 2384 0 
z
" id="ArialMT-31" transform="scale(0.015625)"/>
       </defs>
       <use xlink:href="#ArialMT-31"/>
       <use x="55.615234" xlink:href="#ArialMT-30"/>
       <use x="111.230469" xlink:href="#ArialMT-30"/>
      </g>
     </g>
    </g>
    <g id="xtick_6">
     <g id="text_6">
      <!-- 125 -->
      <g style="fill:#262626;" transform="translate(491.261171 547.315194)scale(0.11 -0.11)">
       <use xlink:href="#ArialMT-31"/>
       <use x="55.615234" xlink:href="#ArialMT-32"/>
       <use x="111.230469" xlink:href="#ArialMT-35"/>
      </g>
     </g>
    </g>
    <g id="xtick_7">
     <g id="text_7">
      <!-- 150 -->
      <g style="fill:#262626;" transform="translate(564.353423 547.315194)scale(0.11 -0.11)">
       <use xlink:href="#ArialMT-31"/>
       <use x="55.615234" xlink:href="#ArialMT-35"/>
       <use x="111.230469" xlink:href="#ArialMT-30"/>
      </g>
     </g>
    </g>
    <g id="xtick_8">
     <g id="text_8">
      <!-- 175 -->
      <g style="fill:#262626;" transform="translate(637.445676 547.315194)scale(0.11 -0.11)">
       <use xlink:href="#ArialMT-31"/>
       <use x="55.615234" xlink:href="#ArialMT-37"/>
       <use x="111.230469" xlink:href="#ArialMT-35"/>
      </g>
     </g>
    </g>
    <g id="xtick_9">
     <g id="text_9">
      <!-- 200 -->
      <g style="fill:#262626;" transform="translate(710.537928 547.315194)scale(0.11 -0.11)">
       <use xlink:href="#ArialMT-32"/>
       <use x="55.615234" xlink:href="#ArialMT-30"/>
       <use x="111.230469" xlink:href="#ArialMT-30"/>
      </g>
     </g>
    </g>
   </g>
   <g id="matplotlib.axis_2">
    <g id="ytick_1">
     <g id="text_10">
      <!-- −25 -->
      <g style="fill:#262626;" transform="translate(77.14125 533.878397)scale(0.11 -0.11)">
       <defs>
        <path d="M 3381 1997 
L 356 1997 
L 356 2522 
L 3381 2522 
L 3381 1997 
z
" id="ArialMT-2212" transform="scale(0.015625)"/>
       </defs>
       <use xlink:href="#ArialMT-2212"/>
       <use x="58.398438" xlink:href="#ArialMT-32"/>
       <use x="114.013672" xlink:href="#ArialMT-35"/>
      </g>
     </g>
    </g>
    <g id="ytick_2">
     <g id="text_11">
      <!-- −20 -->
      <g style="fill:#262626;" transform="translate(77.14125 442.180637)scale(0.11 -0.11)">
       <use xlink:href="#ArialMT-2212"/>
       <use x="58.398438" xlink:href="#ArialMT-32"/>
       <use x="114.013672" xlink:href="#ArialMT-30"/>
      </g>
     </g>
    </g>
    <g id="ytick_3">
     <g id="text_12">
      <!-- −15 -->
      <g style="fill:#262626;" transform="translate(77.14125 350.482877)scale(0.11 -0.11)">
       <use xlink:href="#ArialMT-2212"/>
       <use x="58.398438" xlink:href="#ArialMT-31"/>
       <use x="114.013672" xlink:href="#ArialMT-35"/>
      </g>
     </g>
    </g>
    <g id="ytick_4">
     <g id="text_13">
      <!-- −10 -->
      <g style="fill:#262626;" transform="translate(77.14125 258.785117)scale(0.11 -0.11)">
       <use xlink:href="#ArialMT-2212"/>
       <use x="58.398438" xlink:href="#ArialMT-31"/>
       <use x="114.013672" xlink:href="#ArialMT-30"/>
      </g>
     </g>
    </g>
    <g id="ytick_5">
     <g id="text_14">
      <!-- −5 -->
      <g style="fill:#262626;" transform="translate(83.258281 167.087357)scale(0.11 -0.11)">
       <use xlink:href="#ArialMT-2212"/>
       <use x="58.398438" xlink:href="#ArialMT-35"/>
      </g>
     </g>
    </g>
    <g id="ytick_6">
     <g id="text_15">
      <!-- 0 -->
      <g style="fill:#262626;" transform="translate(89.682969 75.389597)scale(0.11 -0.11)">
       <use xlink:href="#ArialMT-30"/>
      </g>
     </g>
    </g>
   </g>
   <g id="line2d_1">
    <path clip-path="url(#p64dd8aaa25)" d="M 134.975455 373.04218 
L 137.899145 372.294029 
L 140.822835 376.665994 
L 143.746525 374.126732 
L 146.670215 376.882555 
L 149.593905 378.308966 
L 152.517595 380.719328 
L 155.441285 384.331984 
L 158.364975 385.909158 
L 161.288665 388.851809 
L 164.212356 393.96199 
L 167.136046 395.656173 
L 170.059736 416.383419 
L 172.983426 429.546608 
L 175.907116 433.74014 
L 178.830806 460.503557 
L 181.754496 476.982072 
L 184.678186 397.494717 
L 187.601876 347.224393 
L 190.525567 485.97401 
L 193.449257 474.388801 
L 196.372947 439.805099 
L 199.296637 493.223353 
L 202.220327 381.44712 
L 205.144017 379.926403 
L 208.067707 506.795597 
L 210.991397 343.939989 
L 213.915087 344.936689 
L 216.838777 442.462418 
L 219.762468 470.987528 
L 222.686158 366.941087 
L 225.609848 323.883202 
L 228.533538 349.123943 
L 231.457228 433.077236 
L 234.380918 304.384136 
L 237.304608 414.950782 
L 240.228298 474.957959 
L 243.151988 461.582302 
L 246.075678 339.993344 
L 248.999369 342.919817 
L 251.923059 455.231348 
L 254.846749 415.988671 
L 257.770439 426.440531 
L 260.694129 352.726087 
L 263.617819 463.610053 
L 266.541509 333.299902 
L 269.465199 302.662704 
L 272.388889 287.360284 
L 275.312579 300.015179 
L 278.23627 333.448042 
L 281.15996 344.897179 
L 284.08365 342.750252 
L 287.00734 381.377894 
L 289.93103 466.692134 
L 292.85472 458.925577 
L 295.77841 464.058216 
L 298.7021 504.711529 
L 301.62579 443.668666 
L 307.473171 375.387548 
L 310.396861 380.99448 
L 313.320551 352.544891 
L 316.244241 410.087383 
L 319.167931 375.529392 
L 322.091621 476.82823 
L 325.015311 402.815898 
L 327.939001 426.777282 
L 330.862691 460.434017 
L 333.786382 444.760809 
L 336.710072 340.672584 
L 339.633762 343.47967 
L 342.557452 338.494595 
L 345.481142 377.843803 
L 348.404832 317.00295 
L 351.328522 273.286708 
L 354.252212 356.363019 
L 357.175902 373.390685 
L 360.099592 360.545761 
L 363.023283 459.180056 
L 365.946973 396.244955 
L 368.870663 394.046397 
L 371.794353 432.957395 
L 374.718043 445.487377 
L 377.641733 429.387099 
L 380.565423 435.781429 
L 383.489113 460.650997 
L 386.412803 424.190482 
L 389.336494 446.550556 
L 392.260184 445.832034 
L 395.183874 468.587066 
L 398.107564 408.639285 
L 401.031254 390.515699 
L 403.954944 359.671315 
L 406.878634 367.311175 
L 409.802324 377.922123 
L 412.726014 385.868477 
L 415.649704 432.262868 
L 418.573395 363.842233 
L 421.497085 385.27959 
L 424.420775 459.201079 
L 427.344465 422.038378 
L 430.268155 516.921794 
L 433.191845 535.568995 
L 436.115535 359.177504 
L 439.039225 382.424564 
L 441.962915 432.489293 
L 444.886605 446.628422 
L 447.810296 438.328561 
L 450.733986 411.361107 
L 453.657676 500.775938 
L 456.581366 404.404546 
L 459.505056 410.845958 
L 462.428746 412.559729 
L 465.352436 430.321763 
L 468.276126 401.709833 
L 471.199816 333.138557 
L 474.123506 364.684725 
L 477.047197 344.333897 
L 479.970887 327.151831 
L 482.894577 409.789634 
L 485.818267 411.196142 
L 488.741957 449.342339 
L 491.665647 388.028836 
L 494.589337 380.913781 
L 497.513027 472.140606 
L 500.436717 439.775366 
L 503.360408 397.295052 
L 509.207788 470.506694 
L 512.131478 501.462104 
L 515.055168 511.620937 
L 517.978858 439.504446 
L 520.902548 482.644341 
L 523.826238 457.319544 
L 526.749928 370.800492 
L 529.673618 402.068692 
L 532.597309 455.299349 
L 535.520999 481.915955 
L 538.444689 439.135303 
L 541.368379 440.554054 
L 544.292069 465.727423 
L 547.215759 358.725948 
L 550.139449 377.719065 
L 553.063139 293.627706 
L 555.986829 409.032529 
L 558.910519 429.458808 
L 561.83421 420.959003 
L 564.7579 392.593646 
L 567.68159 340.223057 
L 570.60528 344.997676 
L 573.52897 353.956926 
L 576.45266 356.354449 
L 579.37635 399.141327 
L 582.30004 421.709916 
L 585.22373 398.965448 
L 588.147421 411.592849 
L 591.071111 408.858889 
L 593.994801 435.218882 
L 596.918491 360.014101 
L 599.842181 388.332952 
L 602.765871 487.308494 
L 605.689561 414.25692 
L 608.613251 427.268715 
L 611.536941 498.613444 
L 614.460631 426.077474 
L 617.384322 238.730972 
L 620.308012 283.654144 
L 623.231702 441.185651 
L 626.155392 530.15113 
L 629.079082 503.792221 
L 632.002772 422.630203 
L 634.926462 374.960304 
L 637.850152 369.937537 
L 640.773842 356.374388 
L 643.697532 334.131234 
L 646.621223 313.289464 
L 649.544913 313.711217 
L 652.468603 454.264363 
L 655.392293 414.882606 
L 658.315983 394.71196 
L 661.239673 450.897616 
L 664.163363 340.898555 
L 667.087053 355.079414 
L 670.010743 375.042996 
L 672.934433 358.111456 
L 675.858124 380.987484 
L 678.781814 357.240578 
L 681.705504 435.91848 
L 684.629194 454.779373 
L 687.552884 417.341659 
L 690.476574 534.07014 
L 693.400264 435.3092 
L 696.323954 415.175633 
L 699.247644 382.554409 
L 702.171335 383.558018 
L 705.095025 393.305977 
L 708.018715 391.776025 
L 710.942405 393.717411 
L 713.866095 390.876797 
L 716.789785 392.211315 
L 719.713475 392.099135 
L 722.637165 391.033052 
L 725.560855 395.379097 
L 728.484545 394.959128 
L 728.484545 394.959128 
" style="fill:none;stroke:#4c72b0;stroke-linecap:round;stroke-width:1.5;"/>
   </g>
   <g id="line2d_2">
    <path clip-path="url(#p64dd8aaa25)" d="M 134.975455 373.509791 
L 137.899145 373.998356 
L 140.822835 376.102258 
L 143.746525 373.584613 
L 146.670215 378.978517 
L 149.593905 377.645222 
L 152.517595 378.118221 
L 155.441285 379.359938 
L 158.364975 377.53577 
L 161.288665 376.788669 
L 164.212356 378.009013 
L 167.136046 375.173191 
L 170.059736 391.973382 
L 172.983426 400.760023 
L 175.907116 411.459471 
L 178.830806 443.096639 
L 181.754496 442.358983 
L 184.678186 385.054949 
L 187.601876 321.137401 
L 190.525567 465.287131 
L 193.449257 439.610296 
L 196.372947 415.92116 
L 199.296637 462.324611 
L 202.220327 378.637358 
L 205.144017 397.528438 
L 208.067707 508.01944 
L 210.991397 361.569081 
L 213.915087 322.136603 
L 216.838777 454.868362 
L 219.762468 465.620104 
L 222.686158 360.10811 
L 225.609848 290.774691 
L 228.533538 315.446658 
L 231.457228 414.064006 
L 234.380918 278.65651 
L 237.304608 356.54871 
L 240.228298 451.37852 
L 243.151988 434.689321 
L 246.075678 335.557051 
L 248.999369 358.47941 
L 251.923059 429.657774 
L 254.846749 403.367881 
L 257.770439 408.676643 
L 260.694129 355.077857 
L 263.617819 467.763044 
L 266.541509 344.657304 
L 269.465199 310.606417 
L 272.388889 292.354804 
L 275.312579 290.151909 
L 278.23627 311.171919 
L 281.15996 329.174842 
L 284.08365 332.962678 
L 287.00734 375.62048 
L 289.93103 476.731756 
L 292.85472 478.073725 
L 295.77841 449.495971 
L 298.7021 499.374572 
L 301.62579 433.490104 
L 304.549481 414.974288 
L 307.473171 388.447091 
L 310.396861 363.162206 
L 313.320551 359.067754 
L 316.244241 425.347618 
L 319.167931 388.568297 
L 322.091621 463.452469 
L 325.015311 390.344332 
L 327.939001 412.48057 
L 330.862691 439.435361 
L 333.786382 421.559293 
L 336.710072 362.020689 
L 339.633762 357.778587 
L 342.557452 327.281169 
L 345.481142 361.333351 
L 348.404832 360.018788 
L 351.328522 424.668553 
L 354.252212 339.664918 
L 357.175902 295.386951 
L 360.099592 300.404138 
L 363.023283 304.233985 
L 365.946973 284.772067 
L 368.870663 251.709607 
L 371.794353 264.240428 
L 374.718043 280.235276 
L 377.641733 308.11784 
L 380.565423 378.496843 
L 383.489113 374.07762 
L 386.412803 416.860056 
L 389.336494 442.766324 
L 392.260184 417.534084 
L 395.183874 445.76078 
L 398.107564 365.133919 
L 401.031254 347.616763 
L 403.954944 349.126881 
L 406.878634 312.578934 
L 409.802324 330.720815 
L 412.726014 354.349173 
L 415.649704 405.274916 
L 418.573395 339.799241 
L 421.497085 373.473062 
L 424.420775 414.384317 
L 427.344465 343.189547 
L 430.268155 444.829894 
L 433.191845 467.409782 
L 436.115535 313.398041 
L 439.039225 370.48123 
L 441.962915 397.255665 
L 444.886605 373.227853 
L 447.810296 383.688843 
L 450.733986 429.645671 
L 453.657676 493.204499 
L 456.581366 394.418268 
L 459.505056 395.610559 
L 462.428746 388.693805 
L 465.352436 410.261409 
L 468.276126 360.151397 
L 471.199816 317.992514 
L 474.123506 331.160162 
L 477.047197 353.123494 
L 479.970887 295.476744 
L 482.894577 398.67522 
L 485.818267 414.688362 
L 488.741957 457.894754 
L 491.665647 394.821342 
L 494.589337 353.180669 
L 497.513027 455.956272 
L 500.436717 430.198214 
L 503.360408 381.701284 
L 506.284098 419.36161 
L 509.207788 440.75239 
L 512.131478 478.663627 
L 515.055168 519.237815 
L 517.978858 457.817728 
L 520.902548 491.786308 
L 523.826238 460.212349 
L 526.749928 391.07146 
L 529.673618 417.439603 
L 532.597309 456.81363 
L 535.520999 482.347887 
L 538.444689 436.739634 
L 541.368379 410.465342 
L 544.292069 468.895274 
L 547.215759 322.107359 
L 550.139449 361.267659 
L 553.063139 324.186373 
L 555.986829 320.534575 
L 558.910519 329.825049 
L 561.83421 330.202989 
L 564.7579 365.462346 
L 567.68159 289.824671 
L 570.60528 420.338459 
L 573.52897 263.708716 
L 576.45266 278.434283 
L 579.37635 345.380637 
L 582.30004 288.547415 
L 585.22373 353.380806 
L 588.147421 362.194662 
L 591.071111 410.411857 
L 593.994801 436.035068 
L 596.918491 359.560901 
L 599.842181 383.390499 
L 602.765871 441.150671 
L 605.689561 414.930808 
L 608.613251 466.077467 
L 611.536941 486.341859 
L 614.460631 415.521409 
L 617.384322 284.992266 
L 620.308012 309.658741 
L 623.231702 458.647137 
L 626.155392 549.433111 
L 629.079082 466.587719 
L 632.002772 428.522361 
L 634.926462 375.932395 
L 637.850152 338.759253 
L 640.773842 357.313721 
L 643.697532 303.770466 
L 646.621223 307.113269 
L 649.544913 308.565391 
L 652.468603 439.666998 
L 655.392293 446.616843 
L 658.315983 382.068783 
L 661.239673 445.447849 
L 664.163363 318.971479 
L 667.087053 357.064752 
L 670.010743 391.869876 
L 672.934433 351.28857 
L 675.858124 377.249809 
L 678.781814 370.460207 
L 681.705504 432.925283 
L 684.629194 450.959006 
L 687.552884 406.210594 
L 690.476574 518.72312 
L 693.400264 449.256918 
L 696.323954 424.263835 
L 699.247644 385.350389 
L 702.171335 378.428213 
L 705.095025 394.275026 
L 708.018715 392.12467 
L 710.942405 388.069903 
L 713.866095 382.888432 
L 716.789785 385.80149 
L 719.713475 387.951251 
L 722.637165 381.04513 
L 725.560855 387.015748 
L 728.484545 378.471553 
L 728.484545 378.471553 
" style="fill:none;stroke:#dd8452;stroke-dasharray:6,2.25;stroke-dashoffset:0;stroke-width:1.5;"/>
   </g>
   <g id="line2d_3">
    <path clip-path="url(#p64dd8aaa25)" d="M 134.975455 371.772339 
L 137.899145 373.606511 
L 140.822835 375.08868 
L 143.746525 371.135284 
L 146.670215 382.154414 
L 149.593905 382.238226 
L 152.517595 384.246108 
L 155.441285 417.58337 
L 158.364975 413.017127 
L 161.288665 402.288191 
L 164.212356 406.337396 
L 167.136046 394.914494 
L 170.059736 396.386938 
L 172.983426 409.829092 
L 175.907116 422.615127 
L 178.830806 445.988989 
L 181.754496 441.748793 
L 184.678186 319.568762 
L 187.601876 294.548465 
L 190.525567 316.910812 
L 193.449257 379.092726 
L 196.372947 376.741551 
L 199.296637 395.618779 
L 202.220327 419.826038 
L 205.144017 362.330839 
L 208.067707 315.401709 
L 210.991397 315.86953 
L 213.915087 328.393023 
L 216.838777 429.958566 
L 219.762468 420.574783 
L 225.609848 232.204157 
L 228.533538 262.068403 
L 231.457228 375.701598 
L 234.380918 267.070724 
L 237.304608 368.659336 
L 240.228298 456.023084 
L 243.151988 448.111011 
L 246.075678 320.706641 
L 248.999369 387.79538 
L 251.923059 444.891949 
L 254.846749 430.382768 
L 257.770439 419.911739 
L 260.694129 322.740671 
L 263.617819 450.480166 
L 266.541509 345.286156 
L 269.465199 349.515071 
L 272.388889 317.503127 
L 275.312579 287.009872 
L 278.23627 326.235777 
L 281.15996 344.281008 
L 284.08365 343.096483 
L 287.00734 204.807289 
L 289.93103 311.313815 
L 292.85472 368.761862 
L 295.77841 457.175077 
L 298.7021 517.690513 
L 301.62579 477.234872 
L 304.549481 410.896259 
L 307.473171 387.400597 
L 310.396861 377.281921 
L 313.320551 382.19513 
L 316.244241 458.50372 
L 319.167931 443.04221 
L 322.091621 516.598685 
L 325.015311 408.08111 
L 327.939001 435.940097 
L 330.862691 487.347357 
L 333.786382 449.154462 
L 336.710072 383.066935 
L 339.633762 382.749667 
L 342.557452 371.724626 
L 345.481142 402.433252 
L 348.404832 394.280028 
L 351.328522 428.189737 
L 354.252212 436.564909 
L 357.175902 388.823405 
L 360.099592 289.226865 
L 363.023283 239.145449 
L 365.946973 298.004411 
L 368.870663 314.906288 
L 371.794353 232.07613 
L 374.718043 299.63507 
L 377.641733 282.462413 
L 380.565423 305.994437 
L 383.489113 332.370503 
L 386.412803 394.511735 
L 389.336494 426.25003 
L 392.260184 427.933684 
L 395.183874 416.782925 
L 398.107564 408.887642 
L 401.031254 330.682407 
L 403.954944 337.557098 
L 406.878634 336.722774 
L 409.802324 434.971084 
L 412.726014 394.779751 
L 415.649704 466.221024 
L 418.573395 395.289373 
L 421.497085 388.366707 
L 424.420775 422.950199 
L 427.344465 351.466775 
L 430.268155 395.323899 
L 433.191845 318.540317 
L 436.115535 213.928329 
L 439.039225 392.365542 
L 441.962915 378.204586 
L 444.886605 371.350026 
L 447.810296 412.820714 
L 450.733986 376.954229 
L 453.657676 389.614686 
L 456.581366 357.552162 
L 459.505056 383.081661 
L 462.428746 369.235 
L 465.352436 414.435702 
L 468.276126 334.327279 
L 471.199816 224.870162 
L 474.123506 220.472591 
L 477.047197 293.161161 
L 479.970887 288.574297 
L 482.894577 354.914763 
L 485.818267 354.855123 
L 488.741957 402.037315 
L 491.665647 313.173243 
L 494.589337 312.288076 
L 497.513027 381.291669 
L 500.436717 310.683232 
L 503.360408 313.796795 
L 506.284098 299.12132 
L 509.207788 374.893562 
L 512.131478 383.375982 
L 515.055168 329.687018 
L 517.978858 376.663441 
L 520.902548 360.300202 
L 523.826238 388.357893 
L 526.749928 410.824585 
L 529.673618 370.188693 
L 532.597309 375.738677 
L 535.520999 471.107369 
L 538.444689 400.922715 
L 541.368379 399.296953 
L 544.292069 432.885616 
L 547.215759 303.294232 
L 550.139449 280.825545 
L 553.063139 328.862034 
L 555.986829 319.636115 
L 558.910519 318.439715 
L 561.83421 260.473021 
L 564.7579 320.544719 
L 567.68159 358.162526 
L 570.60528 388.254212 
L 573.52897 371.722527 
L 576.45266 421.14611 
L 579.37635 356.377326 
L 582.30004 339.100866 
L 585.22373 414.288892 
L 588.147421 382.829701 
L 591.071111 266.518093 
L 593.994801 280.376823 
L 596.918491 255.084749 
L 599.842181 284.202909 
L 602.765871 320.519673 
L 605.689561 416.63475 
L 608.613251 431.764265 
L 611.536941 474.94771 
L 614.460631 380.041557 
L 617.384322 257.12602 
L 620.308012 311.845108 
L 623.231702 459.765305 
L 626.155392 531.816524 
L 629.079082 486.531135 
L 632.002772 457.3271 
L 634.926462 376.02964 
L 637.850152 318.319594 
L 640.773842 367.990834 
L 643.697532 360.188633 
L 646.621223 305.095243 
L 649.544913 341.986203 
L 652.468603 397.780468 
L 655.392293 456.113542 
L 658.315983 326.066282 
L 661.239673 300.525081 
L 664.163363 195.162818 
L 667.087053 295.14405 
L 670.010743 278.650721 
L 672.934433 271.770643 
L 675.858124 395.101951 
L 678.781814 340.251478 
L 681.705504 330.997908 
L 684.629194 376.390912 
L 687.552884 413.894738 
L 690.476574 420.606545 
L 693.400264 396.316034 
L 696.323954 400.502431 
L 699.247644 374.562267 
L 702.171335 363.378645 
L 705.095025 379.381381 
L 708.018715 380.733389 
L 710.942405 382.215034 
L 713.866095 376.505996 
L 716.789785 378.692626 
L 719.713475 377.913133 
L 722.637165 376.932786 
L 725.560855 380.667522 
L 728.484545 380.543903 
L 728.484545 380.543903 
" style="fill:none;stroke:#55a868;stroke-dasharray:1.5,1.5;stroke-dashoffset:0;stroke-width:1.5;"/>
   </g>
   <g id="line2d_4">
    <path clip-path="url(#p64dd8aaa25)" d="M 134.975455 372.707002 
L 137.899145 373.132638 
L 140.822835 375.335743 
L 143.746525 372.777592 
L 146.670215 378.234039 
L 149.593905 377.001697 
L 152.517595 377.523842 
L 155.441285 379.017135 
L 158.364975 377.301335 
L 161.288665 376.687647 
L 164.212356 377.819457 
L 167.136046 375.142164 
L 170.059736 392.173887 
L 172.983426 400.894346 
L 175.907116 411.598796 
L 178.830806 443.315579 
L 181.754496 443.011043 
L 184.678186 384.945951 
L 187.601876 321.193894 
L 190.525567 466.772658 
L 193.449257 441.907077 
L 196.372947 416.084866 
L 199.296637 463.950023 
L 202.220327 381.247489 
L 205.144017 397.863896 
L 208.067707 512.589356 
L 210.991397 355.099825 
L 213.915087 337.901458 
L 216.838777 452.267045 
L 219.762468 467.163628 
L 222.686158 360.438617 
L 225.609848 291.035396 
L 228.533538 318.527794 
L 231.457228 418.29857 
L 234.380918 280.854176 
L 237.304608 364.285551 
L 240.228298 457.407624 
L 243.151988 439.244021 
L 246.075678 337.714997 
L 248.999369 358.962657 
L 251.923059 428.689145 
L 254.846749 404.127785 
L 257.770439 407.321801 
L 260.694129 358.195215 
L 263.617819 468.610468 
L 266.541509 337.528659 
L 269.465199 309.843662 
L 272.388889 293.324203 
L 275.312579 292.99394 
L 278.23627 319.244778 
L 281.15996 326.498354 
L 284.08365 333.233929 
L 287.00734 385.051765 
L 289.93103 480.28715 
L 292.85472 471.414458 
L 295.77841 451.23867 
L 298.7021 498.762843 
L 301.62579 434.321192 
L 304.549481 417.988997 
L 307.473171 387.169695 
L 310.396861 363.365107 
L 313.320551 356.312491 
L 316.244241 426.970791 
L 319.167931 396.800226 
L 322.091621 500.056856 
L 325.015311 392.999518 
L 327.939001 413.254325 
L 330.862691 456.447005 
L 333.786382 421.676091 
L 336.710072 371.802491 
L 339.633762 378.439301 
L 342.557452 344.009074 
L 345.481142 358.550629 
L 348.404832 334.633598 
L 351.328522 388.005925 
L 354.252212 265.187457 
L 357.175902 310.915796 
L 360.099592 291.713395 
L 363.023283 430.043917 
L 365.946973 318.947798 
L 368.870663 292.462087 
L 371.794353 316.089414 
L 374.718043 336.105886 
L 377.641733 323.384074 
L 380.565423 389.392808 
L 383.489113 372.651664 
L 386.412803 420.420697 
L 389.336494 442.79088 
L 392.260184 418.006417 
L 395.183874 448.398651 
L 398.107564 371.383572 
L 401.031254 355.071299 
L 403.954944 342.485209 
L 406.878634 300.777619 
L 409.802324 333.781837 
L 412.726014 359.743619 
L 415.649704 412.640848 
L 418.573395 343.903872 
L 421.497085 376.792167 
L 424.420775 420.679093 
L 427.344465 350.836087 
L 430.268155 443.325513 
L 433.191845 463.315522 
L 436.115535 313.047543 
L 439.039225 370.582112 
L 441.962915 398.655071 
L 444.886605 372.941263 
L 447.810296 382.011975 
L 450.733986 424.332186 
L 453.657676 497.228065 
L 456.581366 395.056617 
L 459.505056 397.610501 
L 462.428746 391.102347 
L 465.352436 422.481154 
L 468.276126 368.239647 
L 471.199816 323.097833 
L 474.123506 338.230671 
L 477.047197 356.037794 
L 479.970887 292.966953 
L 482.894577 398.419517 
L 485.818267 416.535547 
L 488.741957 457.752141 
L 491.665647 397.085347 
L 494.589337 355.418474 
L 497.513027 457.973914 
L 500.436717 430.771674 
L 503.360408 381.44726 
L 506.284098 419.289271 
L 509.207788 445.491994 
L 512.131478 475.543698 
L 515.055168 516.043134 
L 517.978858 440.319234 
L 520.902548 478.194371 
L 523.826238 458.429282 
L 526.749928 385.636385 
L 529.673618 403.646846 
L 532.597309 449.522695 
L 535.520999 485.491462 
L 538.444689 432.49454 
L 541.368379 401.390151 
L 544.292069 460.70623 
L 547.215759 304.077415 
L 550.139449 343.402714 
L 553.063139 268.737517 
L 555.986829 355.229075 
L 558.910519 460.474034 
L 561.83421 391.179373 
L 564.7579 368.385058 
L 567.68159 242.522096 
L 570.60528 399.00585 
L 573.52897 362.06347 
L 576.45266 364.38026 
L 579.37635 384.951373 
L 582.30004 335.970653 
L 585.22373 404.620687 
L 588.147421 372.128539 
L 591.071111 399.881887 
L 593.994801 454.749815 
L 596.918491 376.806544 
L 599.842181 391.965896 
L 602.765871 464.677361 
L 605.689561 417.097219 
L 608.613251 467.371549 
L 611.536941 485.447632 
L 614.460631 418.807982 
L 617.384322 282.508376 
L 620.308012 308.269111 
L 623.231702 461.215433 
L 626.155392 547.895149 
L 629.079082 469.573745 
L 632.002772 429.810776 
L 634.926462 382.177326 
L 637.850152 340.642327 
L 640.773842 360.362221 
L 643.697532 302.089208 
L 646.621223 310.797302 
L 649.544913 308.464806 
L 652.468603 440.35236 
L 655.392293 446.986616 
L 658.315983 380.660491 
L 661.239673 443.498279 
L 664.163363 317.278854 
L 670.010743 390.177338 
L 672.934433 350.59177 
L 675.858124 375.996549 
L 678.781814 371.364298 
L 681.705504 431.678634 
L 684.629194 451.013889 
L 687.552884 406.309202 
L 690.476574 518.919183 
L 693.400264 449.588178 
L 696.323954 424.56977 
L 699.247644 387.113482 
L 702.171335 378.439616 
L 705.095025 394.49428 
L 708.018715 394.289053 
L 710.942405 392.813845 
L 713.866095 388.016454 
L 716.789785 390.028603 
L 719.713475 390.989992 
L 722.637165 387.227586 
L 725.560855 392.532641 
L 728.484545 386.363827 
L 728.484545 386.363827 
" style="fill:none;stroke:#c44e52;stroke-dasharray:4.5,1.875,2.25,1.875;stroke-dashoffset:0;stroke-width:1.5;"/>
   </g>
   <g id="line2d_5">
    <path clip-path="url(#p64dd8aaa25)" d="M 134.975455 372.446751 
L 137.899145 372.941403 
L 140.822835 375.057548 
L 143.746525 373.138934 
L 146.670215 377.907502 
L 149.593905 377.374023 
L 152.517595 378.464347 
L 155.441285 380.039703 
L 158.364975 378.231591 
L 161.288665 377.961056 
L 164.212356 378.446542 
L 167.136046 374.973491 
L 170.059736 392.250703 
L 172.983426 400.822532 
L 175.907116 411.411373 
L 178.830806 443.876412 
L 181.754496 453.448422 
L 184.678186 386.060551 
L 187.601876 335.352104 
L 190.525567 471.189467 
L 193.449257 454.119581 
L 196.372947 428.18414 
L 199.296637 480.885936 
L 202.220327 389.632876 
L 205.144017 403.16993 
L 208.067707 525.608218 
L 210.991397 358.664943 
L 213.915087 321.507559 
L 216.838777 450.029379 
L 219.762468 463.0155 
L 222.686158 364.746674 
L 225.609848 314.618893 
L 228.533538 331.372071 
L 231.457228 420.947494 
L 234.380918 283.280156 
L 237.304608 364.554827 
L 240.228298 457.987976 
L 243.151988 439.46331 
L 246.075678 336.816345 
L 248.999369 356.470548 
L 251.923059 441.90253 
L 254.846749 409.11837 
L 257.770439 413.079286 
L 260.694129 352.800944 
L 263.617819 464.121705 
L 266.541509 338.209596 
L 269.465199 313.549067 
L 272.388889 294.828024 
L 275.312579 293.971873 
L 278.23627 325.445126 
L 281.15996 343.122753 
L 284.08365 345.549782 
L 287.00734 389.708257 
L 289.93103 482.798638 
L 292.85472 478.054766 
L 295.77841 454.567989 
L 298.7021 494.48424 
L 301.62579 433.491258 
L 304.549481 415.040435 
L 307.473171 386.752664 
L 310.396861 376.855446 
L 313.320551 364.064828 
L 316.244241 423.81207 
L 319.167931 401.727672 
L 322.091621 490.470259 
L 325.015311 398.879817 
L 327.939001 384.949169 
L 330.862691 366.243797 
L 333.786382 375.600611 
L 336.710072 327.00063 
L 339.633762 328.943905 
L 342.557452 305.547218 
L 345.481142 368.514379 
L 348.404832 283.947538 
L 351.328522 264.850583 
L 354.252212 414.384807 
L 357.175902 397.554498 
L 360.099592 355.632831 
L 363.023283 470.036949 
L 365.946973 381.985741 
L 368.870663 361.097184 
L 371.794353 364.437732 
L 374.718043 396.272414 
L 377.641733 420.412651 
L 380.565423 452.978187 
L 383.489113 446.794122 
L 386.412803 420.192837 
L 389.336494 448.671984 
L 392.260184 454.207451 
L 395.183874 480.852145 
L 398.107564 385.557015 
L 401.031254 397.527109 
L 403.954944 374.337801 
L 406.878634 354.369531 
L 409.802324 407.191396 
L 412.726014 399.52859 
L 415.649704 452.027327 
L 418.573395 351.279178 
L 421.497085 392.197428 
L 424.420775 431.457211 
L 427.344465 367.802712 
L 430.268155 448.627979 
L 433.191845 478.958647 
L 436.115535 323.213687 
L 439.039225 375.153253 
L 441.962915 406.846249 
L 444.886605 386.082973 
L 447.810296 394.736691 
L 450.733986 428.819025 
L 453.657676 493.309124 
L 456.581366 403.871557 
L 459.505056 384.781825 
L 462.428746 386.462436 
L 465.352436 417.433936 
L 468.276126 378.796341 
L 471.199816 343.554895 
L 474.123506 360.656455 
L 477.047197 354.748714 
L 479.970887 304.110506 
L 482.894577 404.3009 
L 485.818267 420.050749 
L 488.741957 323.779609 
L 491.665647 352.572718 
L 494.589337 288.253688 
L 497.513027 411.663684 
L 500.436717 398.360191 
L 503.360408 360.02045 
L 506.284098 401.667892 
L 509.207788 348.19248 
L 512.131478 372.276504 
L 515.055168 343.979306 
L 517.978858 375.136008 
L 520.902548 398.837632 
L 523.826238 398.453167 
L 526.749928 432.047777 
L 529.673618 414.196265 
L 532.597309 370.053215 
L 535.520999 390.732294 
L 538.444689 332.834861 
L 541.368379 335.397403 
L 544.292069 216.510652 
L 547.215759 235.489558 
L 550.139449 221.932321 
L 553.063139 278.43514 
L 555.986829 303.603367 
L 558.910519 231.433339 
L 561.83421 203.213394 
L 564.7579 222.227884 
L 567.68159 257.768741 
L 570.60528 328.236908 
L 573.52897 336.082379 
L 576.45266 340.002649 
L 579.37635 369.53943 
L 582.30004 300.111584 
L 585.22373 388.821796 
L 588.147421 370.695902 
L 591.071111 375.940791 
L 593.994801 440.42148 
L 596.918491 373.414191 
L 599.842181 376.542305 
L 602.765871 475.998751 
L 605.689561 423.909244 
L 608.613251 458.313709 
L 611.536941 480.622117 
L 614.460631 424.01247 
L 617.384322 288.093096 
L 620.308012 314.503302 
L 623.231702 445.862851 
L 626.155392 536.114366 
L 629.079082 475.079584 
L 632.002772 429.130976 
L 634.926462 381.152589 
L 637.850152 342.076223 
L 640.773842 355.450551 
L 643.697532 287.714963 
L 646.621223 297.115046 
L 649.544913 294.957013 
L 652.468603 425.341532 
L 655.392293 427.294775 
L 658.315983 375.482449 
L 661.239673 433.431233 
L 664.163363 313.116803 
L 667.087053 344.755248 
L 670.010743 384.662754 
L 672.934433 358.244869 
L 675.858124 370.020334 
L 678.781814 353.86304 
L 681.705504 431.161526 
L 684.629194 440.749731 
L 687.552884 396.616407 
L 690.476574 502.880295 
L 693.400264 438.16629 
L 696.323954 418.711438 
L 699.247644 385.813523 
L 702.171335 375.941665 
L 705.095025 388.885565 
L 708.018715 387.877793 
L 710.942405 384.689024 
L 713.866095 380.83651 
L 716.789785 381.782297 
L 719.713475 383.178136 
L 722.637165 376.753164 
L 725.560855 384.043749 
L 728.484545 376.663406 
L 728.484545 376.663406 
" style="fill:none;stroke:#8172b3;stroke-dasharray:7.5,1.5,1.5,1.5;stroke-dashoffset:0;stroke-width:1.5;"/>
   </g>
   <g id="line2d_6"/>
   <g id="line2d_7"/>
   <g id="line2d_8"/>
   <g id="line2d_9"/>
   <g id="line2d_10"/>
   <g id="patch_3">
    <path d="M 105.3 529.9416 
L 105.3 71.4528 
" style="fill:none;stroke:#262626;stroke-linecap:square;stroke-linejoin:miter;stroke-width:1.25;"/>
   </g>
   <g id="patch_4">
    <path d="M 758.16 529.9416 
L 758.16 71.4528 
" style="fill:none;stroke:#262626;stroke-linecap:square;stroke-linejoin:miter;stroke-width:1.25;"/>
   </g>
   <g id="patch_5">
    <path d="M 105.3 529.9416 
L 758.16 529.9416 
" style="fill:none;stroke:#262626;stroke-linecap:square;stroke-linejoin:miter;stroke-width:1.25;"/>
   </g>
   <g id="patch_6">
    <path d="M 105.3 71.4528 
L 758.16 71.4528 
" style="fill:none;stroke:#262626;stroke-linecap:square;stroke-linejoin:miter;stroke-width:1.25;"/>
   </g>
   <g id="text_16">
    <!-- Activations for &gt;V&lt; -->
    <g style="fill:#262626;" transform="translate(381.372187 65.4528)scale(0.12 -0.12)">
     <defs>
      <path d="M -9 0 
L 1750 4581 
L 2403 4581 
L 4278 0 
L 3588 0 
L 3053 1388 
L 1138 1388 
L 634 0 
L -9 0 
z
M 1313 1881 
L 2866 1881 
L 2388 3150 
Q 2169 3728 2063 4100 
Q 1975 3659 1816 3225 
L 1313 1881 
z
" id="ArialMT-41" transform="scale(0.015625)"/>
      <path d="M 2588 1216 
L 3141 1144 
Q 3050 572 2676 248 
Q 2303 -75 1759 -75 
Q 1078 -75 664 370 
Q 250 816 250 1647 
Q 250 2184 428 2587 
Q 606 2991 970 3192 
Q 1334 3394 1763 3394 
Q 2303 3394 2647 3120 
Q 2991 2847 3088 2344 
L 2541 2259 
Q 2463 2594 2264 2762 
Q 2066 2931 1784 2931 
Q 1359 2931 1093 2626 
Q 828 2322 828 1663 
Q 828 994 1084 691 
Q 1341 388 1753 388 
Q 2084 388 2306 591 
Q 2528 794 2588 1216 
z
" id="ArialMT-63" transform="scale(0.015625)"/>
      <path d="M 1650 503 
L 1731 6 
Q 1494 -44 1306 -44 
Q 1000 -44 831 53 
Q 663 150 594 308 
Q 525 466 525 972 
L 525 2881 
L 113 2881 
L 113 3319 
L 525 3319 
L 525 4141 
L 1084 4478 
L 1084 3319 
L 1650 3319 
L 1650 2881 
L 1084 2881 
L 1084 941 
Q 1084 700 1114 631 
Q 1144 563 1211 522 
Q 1278 481 1403 481 
Q 1497 481 1650 503 
z
" id="ArialMT-74" transform="scale(0.015625)"/>
      <path d="M 425 3934 
L 425 4581 
L 988 4581 
L 988 3934 
L 425 3934 
z
M 425 0 
L 425 3319 
L 988 3319 
L 988 0 
L 425 0 
z
" id="ArialMT-69" transform="scale(0.015625)"/>
      <path d="M 1344 0 
L 81 3319 
L 675 3319 
L 1388 1331 
Q 1503 1009 1600 663 
Q 1675 925 1809 1294 
L 2547 3319 
L 3125 3319 
L 1869 0 
L 1344 0 
z
" id="ArialMT-76" transform="scale(0.015625)"/>
      <path d="M 2588 409 
Q 2275 144 1986 34 
Q 1697 -75 1366 -75 
Q 819 -75 525 192 
Q 231 459 231 875 
Q 231 1119 342 1320 
Q 453 1522 633 1644 
Q 813 1766 1038 1828 
Q 1203 1872 1538 1913 
Q 2219 1994 2541 2106 
Q 2544 2222 2544 2253 
Q 2544 2597 2384 2738 
Q 2169 2928 1744 2928 
Q 1347 2928 1158 2789 
Q 969 2650 878 2297 
L 328 2372 
Q 403 2725 575 2942 
Q 747 3159 1072 3276 
Q 1397 3394 1825 3394 
Q 2250 3394 2515 3294 
Q 2781 3194 2906 3042 
Q 3031 2891 3081 2659 
Q 3109 2516 3109 2141 
L 3109 1391 
Q 3109 606 3145 398 
Q 3181 191 3288 0 
L 2700 0 
Q 2613 175 2588 409 
z
M 2541 1666 
Q 2234 1541 1622 1453 
Q 1275 1403 1131 1340 
Q 988 1278 909 1158 
Q 831 1038 831 891 
Q 831 666 1001 516 
Q 1172 366 1500 366 
Q 1825 366 2078 508 
Q 2331 650 2450 897 
Q 2541 1088 2541 1459 
L 2541 1666 
z
" id="ArialMT-61" transform="scale(0.015625)"/>
      <path d="M 213 1659 
Q 213 2581 725 3025 
Q 1153 3394 1769 3394 
Q 2453 3394 2887 2945 
Q 3322 2497 3322 1706 
Q 3322 1066 3130 698 
Q 2938 331 2570 128 
Q 2203 -75 1769 -75 
Q 1072 -75 642 372 
Q 213 819 213 1659 
z
M 791 1659 
Q 791 1022 1069 705 
Q 1347 388 1769 388 
Q 2188 388 2466 706 
Q 2744 1025 2744 1678 
Q 2744 2294 2464 2611 
Q 2184 2928 1769 2928 
Q 1347 2928 1069 2612 
Q 791 2297 791 1659 
z
" id="ArialMT-6f" transform="scale(0.015625)"/>
      <path d="M 422 0 
L 422 3319 
L 928 3319 
L 928 2847 
Q 1294 3394 1984 3394 
Q 2284 3394 2536 3286 
Q 2788 3178 2913 3003 
Q 3038 2828 3088 2588 
Q 3119 2431 3119 2041 
L 3119 0 
L 2556 0 
L 2556 2019 
Q 2556 2363 2490 2533 
Q 2425 2703 2258 2804 
Q 2091 2906 1866 2906 
Q 1506 2906 1245 2678 
Q 984 2450 984 1813 
L 984 0 
L 422 0 
z
" id="ArialMT-6e" transform="scale(0.015625)"/>
      <path d="M 197 991 
L 753 1078 
Q 800 744 1014 566 
Q 1228 388 1613 388 
Q 2000 388 2187 545 
Q 2375 703 2375 916 
Q 2375 1106 2209 1216 
Q 2094 1291 1634 1406 
Q 1016 1563 777 1677 
Q 538 1791 414 1992 
Q 291 2194 291 2438 
Q 291 2659 392 2848 
Q 494 3038 669 3163 
Q 800 3259 1026 3326 
Q 1253 3394 1513 3394 
Q 1903 3394 2198 3281 
Q 2494 3169 2634 2976 
Q 2775 2784 2828 2463 
L 2278 2388 
Q 2241 2644 2061 2787 
Q 1881 2931 1553 2931 
Q 1166 2931 1000 2803 
Q 834 2675 834 2503 
Q 834 2394 903 2306 
Q 972 2216 1119 2156 
Q 1203 2125 1616 2013 
Q 2213 1853 2448 1751 
Q 2684 1650 2818 1456 
Q 2953 1263 2953 975 
Q 2953 694 2789 445 
Q 2625 197 2315 61 
Q 2006 -75 1616 -75 
Q 969 -75 630 194 
Q 291 463 197 991 
z
" id="ArialMT-73" transform="scale(0.015625)"/>
      <path id="ArialMT-20" transform="scale(0.015625)"/>
      <path d="M 556 0 
L 556 2881 
L 59 2881 
L 59 3319 
L 556 3319 
L 556 3672 
Q 556 4006 616 4169 
Q 697 4388 901 4523 
Q 1106 4659 1475 4659 
Q 1713 4659 2000 4603 
L 1916 4113 
Q 1741 4144 1584 4144 
Q 1328 4144 1222 4034 
Q 1116 3925 1116 3625 
L 1116 3319 
L 1763 3319 
L 1763 2881 
L 1116 2881 
L 1116 0 
L 556 0 
z
" id="ArialMT-66" transform="scale(0.015625)"/>
      <path d="M 416 0 
L 416 3319 
L 922 3319 
L 922 2816 
Q 1116 3169 1280 3281 
Q 1444 3394 1641 3394 
Q 1925 3394 2219 3213 
L 2025 2691 
Q 1819 2813 1613 2813 
Q 1428 2813 1281 2702 
Q 1134 2591 1072 2394 
Q 978 2094 978 1738 
L 978 0 
L 416 0 
z
" id="ArialMT-72" transform="scale(0.015625)"/>
      <path d="M 3384 2003 
L 350 706 
L 350 1266 
L 2753 2263 
L 350 3250 
L 350 3809 
L 3384 2528 
L 3384 2003 
z
" id="ArialMT-3e" transform="scale(0.015625)"/>
      <path d="M 1803 0 
L 28 4581 
L 684 4581 
L 1875 1253 
Q 2019 853 2116 503 
Q 2222 878 2363 1253 
L 3600 4581 
L 4219 4581 
L 2425 0 
L 1803 0 
z
" id="ArialMT-56" transform="scale(0.015625)"/>
      <path d="M 350 2003 
L 350 2528 
L 3384 3809 
L 3384 3250 
L 978 2263 
L 3384 1266 
L 3384 706 
L 350 2003 
z
" id="ArialMT-3c" transform="scale(0.015625)"/>
     </defs>
     <use xlink:href="#ArialMT-41"/>
     <use x="66.699219" xlink:href="#ArialMT-63"/>
     <use x="116.699219" xlink:href="#ArialMT-74"/>
     <use x="144.482422" xlink:href="#ArialMT-69"/>
     <use x="166.699219" xlink:href="#ArialMT-76"/>
     <use x="216.699219" xlink:href="#ArialMT-61"/>
     <use x="272.314453" xlink:href="#ArialMT-74"/>
     <use x="300.097656" xlink:href="#ArialMT-69"/>
     <use x="322.314453" xlink:href="#ArialMT-6f"/>
     <use x="377.929688" xlink:href="#ArialMT-6e"/>
     <use x="433.544922" xlink:href="#ArialMT-73"/>
     <use x="483.544922" xlink:href="#ArialMT-20"/>
     <use x="511.328125" xlink:href="#ArialMT-66"/>
     <use x="539.111328" xlink:href="#ArialMT-6f"/>
     <use x="594.726562" xlink:href="#ArialMT-72"/>
     <use x="628.027344" xlink:href="#ArialMT-20"/>
     <use x="655.810547" xlink:href="#ArialMT-3e"/>
     <use x="714.208984" xlink:href="#ArialMT-56"/>
     <use x="780.908203" xlink:href="#ArialMT-3c"/>
    </g>
   </g>
   <g id="legend_1">
    <g id="patch_7">
     <path d="M 640.044062 158.514363 
L 750.46 158.514363 
Q 752.66 158.514363 752.66 156.314363 
L 752.66 79.1528 
Q 752.66 76.9528 750.46 76.9528 
L 640.044062 76.9528 
Q 637.844062 76.9528 637.844062 79.1528 
L 637.844062 156.314363 
Q 637.844062 158.514363 640.044062 158.514363 
z
" style="fill:#ffffff;opacity:0.8;stroke:#cccccc;stroke-linejoin:miter;"/>
    </g>
    <g id="line2d_11">
     <path d="M 642.244062 85.376394 
L 664.244062 85.376394 
" style="fill:none;stroke:#4c72b0;stroke-linecap:round;stroke-width:1.5;"/>
    </g>
    <g id="line2d_12"/>
    <g id="text_17">
     <!-- regular -->
     <g style="fill:#262626;" transform="translate(673.044062 89.226394)scale(0.11 -0.11)">
      <defs>
       <path d="M 2694 1069 
L 3275 997 
Q 3138 488 2766 206 
Q 2394 -75 1816 -75 
Q 1088 -75 661 373 
Q 234 822 234 1631 
Q 234 2469 665 2931 
Q 1097 3394 1784 3394 
Q 2450 3394 2872 2941 
Q 3294 2488 3294 1666 
Q 3294 1616 3291 1516 
L 816 1516 
Q 847 969 1125 678 
Q 1403 388 1819 388 
Q 2128 388 2347 550 
Q 2566 713 2694 1069 
z
M 847 1978 
L 2700 1978 
Q 2663 2397 2488 2606 
Q 2219 2931 1791 2931 
Q 1403 2931 1139 2672 
Q 875 2413 847 1978 
z
" id="ArialMT-65" transform="scale(0.015625)"/>
       <path d="M 319 -275 
L 866 -356 
Q 900 -609 1056 -725 
Q 1266 -881 1628 -881 
Q 2019 -881 2231 -725 
Q 2444 -569 2519 -288 
Q 2563 -116 2559 434 
Q 2191 0 1641 0 
Q 956 0 581 494 
Q 206 988 206 1678 
Q 206 2153 378 2554 
Q 550 2956 876 3175 
Q 1203 3394 1644 3394 
Q 2231 3394 2613 2919 
L 2613 3319 
L 3131 3319 
L 3131 450 
Q 3131 -325 2973 -648 
Q 2816 -972 2473 -1159 
Q 2131 -1347 1631 -1347 
Q 1038 -1347 672 -1080 
Q 306 -813 319 -275 
z
M 784 1719 
Q 784 1066 1043 766 
Q 1303 466 1694 466 
Q 2081 466 2343 764 
Q 2606 1063 2606 1700 
Q 2606 2309 2336 2618 
Q 2066 2928 1684 2928 
Q 1309 2928 1046 2623 
Q 784 2319 784 1719 
z
" id="ArialMT-67" transform="scale(0.015625)"/>
       <path d="M 2597 0 
L 2597 488 
Q 2209 -75 1544 -75 
Q 1250 -75 995 37 
Q 741 150 617 320 
Q 494 491 444 738 
Q 409 903 409 1263 
L 409 3319 
L 972 3319 
L 972 1478 
Q 972 1038 1006 884 
Q 1059 663 1231 536 
Q 1403 409 1656 409 
Q 1909 409 2131 539 
Q 2353 669 2445 892 
Q 2538 1116 2538 1541 
L 2538 3319 
L 3100 3319 
L 3100 0 
L 2597 0 
z
" id="ArialMT-75" transform="scale(0.015625)"/>
       <path d="M 409 0 
L 409 4581 
L 972 4581 
L 972 0 
L 409 0 
z
" id="ArialMT-6c" transform="scale(0.015625)"/>
      </defs>
      <use xlink:href="#ArialMT-72"/>
      <use x="33.300781" xlink:href="#ArialMT-65"/>
      <use x="88.916016" xlink:href="#ArialMT-67"/>
      <use x="144.53125" xlink:href="#ArialMT-75"/>
      <use x="200.146484" xlink:href="#ArialMT-6c"/>
      <use x="222.363281" xlink:href="#ArialMT-61"/>
      <use x="277.978516" xlink:href="#ArialMT-72"/>
     </g>
    </g>
    <g id="line2d_13">
     <path d="M 642.244062 101.0978 
L 664.244062 101.0978 
" style="fill:none;stroke:#dd8452;stroke-dasharray:6,2.25;stroke-dashoffset:0;stroke-width:1.5;"/>
    </g>
    <g id="line2d_14"/>
    <g id="text_18">
     <!-- splitted_3s -->
     <g style="fill:#262626;" transform="translate(673.044062 104.9478)scale(0.11 -0.11)">
      <defs>
       <path d="M 422 -1272 
L 422 3319 
L 934 3319 
L 934 2888 
Q 1116 3141 1344 3267 
Q 1572 3394 1897 3394 
Q 2322 3394 2647 3175 
Q 2972 2956 3137 2557 
Q 3303 2159 3303 1684 
Q 3303 1175 3120 767 
Q 2938 359 2589 142 
Q 2241 -75 1856 -75 
Q 1575 -75 1351 44 
Q 1128 163 984 344 
L 984 -1272 
L 422 -1272 
z
M 931 1641 
Q 931 1000 1190 694 
Q 1450 388 1819 388 
Q 2194 388 2461 705 
Q 2728 1022 2728 1688 
Q 2728 2322 2467 2637 
Q 2206 2953 1844 2953 
Q 1484 2953 1207 2617 
Q 931 2281 931 1641 
z
" id="ArialMT-70" transform="scale(0.015625)"/>
       <path d="M 2575 0 
L 2575 419 
Q 2259 -75 1647 -75 
Q 1250 -75 917 144 
Q 584 363 401 755 
Q 219 1147 219 1656 
Q 219 2153 384 2558 
Q 550 2963 881 3178 
Q 1213 3394 1622 3394 
Q 1922 3394 2156 3267 
Q 2391 3141 2538 2938 
L 2538 4581 
L 3097 4581 
L 3097 0 
L 2575 0 
z
M 797 1656 
Q 797 1019 1065 703 
Q 1334 388 1700 388 
Q 2069 388 2326 689 
Q 2584 991 2584 1609 
Q 2584 2291 2321 2609 
Q 2059 2928 1675 2928 
Q 1300 2928 1048 2622 
Q 797 2316 797 1656 
z
" id="ArialMT-64" transform="scale(0.015625)"/>
       <path d="M -97 -1272 
L -97 -866 
L 3631 -866 
L 3631 -1272 
L -97 -1272 
z
" id="ArialMT-5f" transform="scale(0.015625)"/>
       <path d="M 269 1209 
L 831 1284 
Q 928 806 1161 595 
Q 1394 384 1728 384 
Q 2125 384 2398 659 
Q 2672 934 2672 1341 
Q 2672 1728 2419 1979 
Q 2166 2231 1775 2231 
Q 1616 2231 1378 2169 
L 1441 2663 
Q 1497 2656 1531 2656 
Q 1891 2656 2178 2843 
Q 2466 3031 2466 3422 
Q 2466 3731 2256 3934 
Q 2047 4138 1716 4138 
Q 1388 4138 1169 3931 
Q 950 3725 888 3313 
L 325 3413 
Q 428 3978 793 4289 
Q 1159 4600 1703 4600 
Q 2078 4600 2393 4439 
Q 2709 4278 2876 4000 
Q 3044 3722 3044 3409 
Q 3044 3113 2884 2869 
Q 2725 2625 2413 2481 
Q 2819 2388 3044 2092 
Q 3269 1797 3269 1353 
Q 3269 753 2831 336 
Q 2394 -81 1725 -81 
Q 1122 -81 723 278 
Q 325 638 269 1209 
z
" id="ArialMT-33" transform="scale(0.015625)"/>
      </defs>
      <use xlink:href="#ArialMT-73"/>
      <use x="50" xlink:href="#ArialMT-70"/>
      <use x="105.615234" xlink:href="#ArialMT-6c"/>
      <use x="127.832031" xlink:href="#ArialMT-69"/>
      <use x="150.048828" xlink:href="#ArialMT-74"/>
      <use x="177.832031" xlink:href="#ArialMT-74"/>
      <use x="205.615234" xlink:href="#ArialMT-65"/>
      <use x="261.230469" xlink:href="#ArialMT-64"/>
      <use x="316.845703" xlink:href="#ArialMT-5f"/>
      <use x="372.460938" xlink:href="#ArialMT-33"/>
      <use x="428.076172" xlink:href="#ArialMT-73"/>
     </g>
    </g>
    <g id="line2d_15">
     <path d="M 642.244062 116.6903 
L 664.244062 116.6903 
" style="fill:none;stroke:#55a868;stroke-dasharray:1.5,1.5;stroke-dashoffset:0;stroke-width:1.5;"/>
    </g>
    <g id="line2d_16"/>
    <g id="text_19">
     <!-- splitted_1s -->
     <g style="fill:#262626;" transform="translate(673.044062 120.5403)scale(0.11 -0.11)">
      <use xlink:href="#ArialMT-73"/>
      <use x="50" xlink:href="#ArialMT-70"/>
      <use x="105.615234" xlink:href="#ArialMT-6c"/>
      <use x="127.832031" xlink:href="#ArialMT-69"/>
      <use x="150.048828" xlink:href="#ArialMT-74"/>
      <use x="177.832031" xlink:href="#ArialMT-74"/>
      <use x="205.615234" xlink:href="#ArialMT-65"/>
      <use x="261.230469" xlink:href="#ArialMT-64"/>
      <use x="316.845703" xlink:href="#ArialMT-5f"/>
      <use x="372.460938" xlink:href="#ArialMT-31"/>
      <use x="428.076172" xlink:href="#ArialMT-73"/>
     </g>
    </g>
    <g id="line2d_17">
     <path d="M 642.244062 132.384206 
L 664.244062 132.384206 
" style="fill:none;stroke:#c44e52;stroke-dasharray:4.5,1.875,2.25,1.875;stroke-dashoffset:0;stroke-width:1.5;"/>
    </g>
    <g id="line2d_18"/>
    <g id="text_20">
     <!-- overlap_1f_3s -->
     <g style="fill:#262626;" transform="translate(673.044062 136.234206)scale(0.11 -0.11)">
      <use xlink:href="#ArialMT-6f"/>
      <use x="55.615234" xlink:href="#ArialMT-76"/>
      <use x="105.615234" xlink:href="#ArialMT-65"/>
      <use x="161.230469" xlink:href="#ArialMT-72"/>
      <use x="194.53125" xlink:href="#ArialMT-6c"/>
      <use x="216.748047" xlink:href="#ArialMT-61"/>
      <use x="272.363281" xlink:href="#ArialMT-70"/>
      <use x="327.978516" xlink:href="#ArialMT-5f"/>
      <use x="383.59375" xlink:href="#ArialMT-31"/>
      <use x="439.208984" xlink:href="#ArialMT-66"/>
      <use x="466.992188" xlink:href="#ArialMT-5f"/>
      <use x="522.607422" xlink:href="#ArialMT-33"/>
      <use x="578.222656" xlink:href="#ArialMT-73"/>
     </g>
    </g>
    <g id="line2d_19">
     <path d="M 642.244062 148.078113 
L 664.244062 148.078113 
" style="fill:none;stroke:#8172b3;stroke-dasharray:7.5,1.5,1.5,1.5;stroke-dashoffset:0;stroke-width:1.5;"/>
    </g>
    <g id="line2d_20"/>
    <g id="text_21">
     <!-- overlap_10f_3s -->
     <g style="fill:#262626;" transform="translate(673.044062 151.928112)scale(0.11 -0.11)">
      <use xlink:href="#ArialMT-6f"/>
      <use x="55.615234" xlink:href="#ArialMT-76"/>
      <use x="105.615234" xlink:href="#ArialMT-65"/>
      <use x="161.230469" xlink:href="#ArialMT-72"/>
      <use x="194.53125" xlink:href="#ArialMT-6c"/>
      <use x="216.748047" xlink:href="#ArialMT-61"/>
      <use x="272.363281" xlink:href="#ArialMT-70"/>
      <use x="327.978516" xlink:href="#ArialMT-5f"/>
      <use x="383.59375" xlink:href="#ArialMT-31"/>
      <use x="439.208984" xlink:href="#ArialMT-30"/>
      <use x="494.824219" xlink:href="#ArialMT-66"/>
      <use x="522.607422" xlink:href="#ArialMT-5f"/>
      <use x="578.222656" xlink:href="#ArialMT-33"/>
      <use x="633.837891" xlink:href="#ArialMT-73"/>
     </g>
    </g>
   </g>
  </g>
 </g>
 <defs>
  <clipPath id="p64dd8aaa25">
   <rect height="458.4888" width="652.86" x="105.3" y="71.4528"/>
  </clipPath>
 </defs>
</svg>
