<?xml version="1.0" encoding="utf-8" standalone="no"?>
<!DOCTYPE svg PUBLIC "-//W3C//DTD SVG 1.1//EN"
  "http://www.w3.org/Graphics/SVG/1.1/DTD/svg11.dtd">
<svg height="595.44pt" version="1.1" viewBox="0 0 842.4 595.44" width="842.4pt" xmlns="http://www.w3.org/2000/svg" xmlns:xlink="http://www.w3.org/1999/xlink">
 <metadata>
  <rdf:RDF xmlns:cc="http://creativecommons.org/ns#" xmlns:dc="http://purl.org/dc/elements/1.1/" xmlns:rdf="http://www.w3.org/1999/02/22-rdf-syntax-ns#">
   <cc:Work>
    <dc:type rdf:resource="http://purl.org/dc/dcmitype/StillImage"/>
    <dc:date>2021-06-04T22:03:12.577370</dc:date>
    <dc:format>image/svg+xml</dc:format>
    <dc:creator>
     <cc:Agent>
      <dc:title>Matplotlib v3.4.1, https://matplotlib.org/</dc:title>
     </cc:Agent>
    </dc:creator>
   </cc:Work>
  </rdf:RDF>
 </metadata>
 <defs>
  <style type="text/css">*{stroke-linecap:butt;stroke-linejoin:round;}</style>
 </defs>
 <g id="figure_1">
  <g id="patch_1">
   <path d="M 0 595.44 
L 842.4 595.44 
L 842.4 0 
L 0 0 
z
" style="fill:#ffffff;"/>
  </g>
  <g id="axes_1">
   <g id="patch_2">
    <path d="M 105.3 529.9416 
L 758.16 529.9416 
L 758.16 71.4528 
L 105.3 71.4528 
z
" style="fill:#ffffff;"/>
   </g>
   <g id="matplotlib.axis_1">
    <g id="xtick_1">
     <g id="text_1">
      <!-- 0 -->
      <g style="fill:#262626;" transform="translate(131.916939 547.315194)scale(0.11 -0.11)">
       <defs>
        <path d="M 266 2259 
Q 266 3072 433 3567 
Q 600 4063 929 4331 
Q 1259 4600 1759 4600 
Q 2128 4600 2406 4451 
Q 2684 4303 2865 4023 
Q 3047 3744 3150 3342 
Q 3253 2941 3253 2259 
Q 3253 1453 3087 958 
Q 2922 463 2592 192 
Q 2263 -78 1759 -78 
Q 1097 -78 719 397 
Q 266 969 266 2259 
z
M 844 2259 
Q 844 1131 1108 757 
Q 1372 384 1759 384 
Q 2147 384 2411 759 
Q 2675 1134 2675 2259 
Q 2675 3391 2411 3762 
Q 2147 4134 1753 4134 
Q 1366 4134 1134 3806 
Q 844 3388 844 2259 
z
" id="ArialMT-30" transform="scale(0.015625)"/>
       </defs>
       <use xlink:href="#ArialMT-30"/>
      </g>
     </g>
    </g>
    <g id="xtick_2">
     <g id="text_2">
      <!-- 25 -->
      <g style="fill:#262626;" transform="translate(201.950676 547.315194)scale(0.11 -0.11)">
       <defs>
        <path d="M 3222 541 
L 3222 0 
L 194 0 
Q 188 203 259 391 
Q 375 700 629 1000 
Q 884 1300 1366 1694 
Q 2113 2306 2375 2664 
Q 2638 3022 2638 3341 
Q 2638 3675 2398 3904 
Q 2159 4134 1775 4134 
Q 1369 4134 1125 3890 
Q 881 3647 878 3216 
L 300 3275 
Q 359 3922 746 4261 
Q 1134 4600 1788 4600 
Q 2447 4600 2831 4234 
Q 3216 3869 3216 3328 
Q 3216 3053 3103 2787 
Q 2991 2522 2730 2228 
Q 2469 1934 1863 1422 
Q 1356 997 1212 845 
Q 1069 694 975 541 
L 3222 541 
z
" id="ArialMT-32" transform="scale(0.015625)"/>
        <path d="M 266 1200 
L 856 1250 
Q 922 819 1161 601 
Q 1400 384 1738 384 
Q 2144 384 2425 690 
Q 2706 997 2706 1503 
Q 2706 1984 2436 2262 
Q 2166 2541 1728 2541 
Q 1456 2541 1237 2417 
Q 1019 2294 894 2097 
L 366 2166 
L 809 4519 
L 3088 4519 
L 3088 3981 
L 1259 3981 
L 1013 2750 
Q 1425 3038 1878 3038 
Q 2478 3038 2890 2622 
Q 3303 2206 3303 1553 
Q 3303 931 2941 478 
Q 2500 -78 1738 -78 
Q 1113 -78 717 272 
Q 322 622 266 1200 
z
" id="ArialMT-35" transform="scale(0.015625)"/>
       </defs>
       <use xlink:href="#ArialMT-32"/>
       <use x="55.615234" xlink:href="#ArialMT-35"/>
      </g>
     </g>
    </g>
    <g id="xtick_3">
     <g id="text_3">
      <!-- 50 -->
      <g style="fill:#262626;" transform="translate(275.042928 547.315194)scale(0.11 -0.11)">
       <use xlink:href="#ArialMT-35"/>
       <use x="55.615234" xlink:href="#ArialMT-30"/>
      </g>
     </g>
    </g>
    <g id="xtick_4">
     <g id="text_4">
      <!-- 75 -->
      <g style="fill:#262626;" transform="translate(348.135181 547.315194)scale(0.11 -0.11)">
       <defs>
        <path d="M 303 3981 
L 303 4522 
L 3269 4522 
L 3269 4084 
Q 2831 3619 2401 2847 
Q 1972 2075 1738 1259 
Q 1569 684 1522 0 
L 944 0 
Q 953 541 1156 1306 
Q 1359 2072 1739 2783 
Q 2119 3494 2547 3981 
L 303 3981 
z
" id="ArialMT-37" transform="scale(0.015625)"/>
       </defs>
       <use xlink:href="#ArialMT-37"/>
       <use x="55.615234" xlink:href="#ArialMT-35"/>
      </g>
     </g>
    </g>
    <g id="xtick_5">
     <g id="text_5">
      <!-- 100 -->
      <g style="fill:#262626;" transform="translate(418.168918 547.315194)scale(0.11 -0.11)">
       <defs>
        <path d="M 2384 0 
L 1822 0 
L 1822 3584 
Q 1619 3391 1289 3197 
Q 959 3003 697 2906 
L 697 3450 
Q 1169 3672 1522 3987 
Q 1875 4303 2022 4600 
L 2384 4600 
L 2384 0 
z
" id="ArialMT-31" transform="scale(0.015625)"/>
       </defs>
       <use xlink:href="#ArialMT-31"/>
       <use x="55.615234" xlink:href="#ArialMT-30"/>
       <use x="111.230469" xlink:href="#ArialMT-30"/>
      </g>
     </g>
    </g>
    <g id="xtick_6">
     <g id="text_6">
      <!-- 125 -->
      <g style="fill:#262626;" transform="translate(491.261171 547.315194)scale(0.11 -0.11)">
       <use xlink:href="#ArialMT-31"/>
       <use x="55.615234" xlink:href="#ArialMT-32"/>
       <use x="111.230469" xlink:href="#ArialMT-35"/>
      </g>
     </g>
    </g>
    <g id="xtick_7">
     <g id="text_7">
      <!-- 150 -->
      <g style="fill:#262626;" transform="translate(564.353423 547.315194)scale(0.11 -0.11)">
       <use xlink:href="#ArialMT-31"/>
       <use x="55.615234" xlink:href="#ArialMT-35"/>
       <use x="111.230469" xlink:href="#ArialMT-30"/>
      </g>
     </g>
    </g>
    <g id="xtick_8">
     <g id="text_8">
      <!-- 175 -->
      <g style="fill:#262626;" transform="translate(637.445676 547.315194)scale(0.11 -0.11)">
       <use xlink:href="#ArialMT-31"/>
       <use x="55.615234" xlink:href="#ArialMT-37"/>
       <use x="111.230469" xlink:href="#ArialMT-35"/>
      </g>
     </g>
    </g>
    <g id="xtick_9">
     <g id="text_9">
      <!-- 200 -->
      <g style="fill:#262626;" transform="translate(710.537928 547.315194)scale(0.11 -0.11)">
       <use xlink:href="#ArialMT-32"/>
       <use x="55.615234" xlink:href="#ArialMT-30"/>
       <use x="111.230469" xlink:href="#ArialMT-30"/>
      </g>
     </g>
    </g>
   </g>
   <g id="matplotlib.axis_2">
    <g id="ytick_1">
     <g id="text_10">
      <!-- −25 -->
      <g style="fill:#262626;" transform="translate(77.14125 533.878397)scale(0.11 -0.11)">
       <defs>
        <path d="M 3381 1997 
L 356 1997 
L 356 2522 
L 3381 2522 
L 3381 1997 
z
" id="ArialMT-2212" transform="scale(0.015625)"/>
       </defs>
       <use xlink:href="#ArialMT-2212"/>
       <use x="58.398438" xlink:href="#ArialMT-32"/>
       <use x="114.013672" xlink:href="#ArialMT-35"/>
      </g>
     </g>
    </g>
    <g id="ytick_2">
     <g id="text_11">
      <!-- −20 -->
      <g style="fill:#262626;" transform="translate(77.14125 442.180637)scale(0.11 -0.11)">
       <use xlink:href="#ArialMT-2212"/>
       <use x="58.398438" xlink:href="#ArialMT-32"/>
       <use x="114.013672" xlink:href="#ArialMT-30"/>
      </g>
     </g>
    </g>
    <g id="ytick_3">
     <g id="text_12">
      <!-- −15 -->
      <g style="fill:#262626;" transform="translate(77.14125 350.482877)scale(0.11 -0.11)">
       <use xlink:href="#ArialMT-2212"/>
       <use x="58.398438" xlink:href="#ArialMT-31"/>
       <use x="114.013672" xlink:href="#ArialMT-35"/>
      </g>
     </g>
    </g>
    <g id="ytick_4">
     <g id="text_13">
      <!-- −10 -->
      <g style="fill:#262626;" transform="translate(77.14125 258.785117)scale(0.11 -0.11)">
       <use xlink:href="#ArialMT-2212"/>
       <use x="58.398438" xlink:href="#ArialMT-31"/>
       <use x="114.013672" xlink:href="#ArialMT-30"/>
      </g>
     </g>
    </g>
    <g id="ytick_5">
     <g id="text_14">
      <!-- −5 -->
      <g style="fill:#262626;" transform="translate(83.258281 167.087357)scale(0.11 -0.11)">
       <use xlink:href="#ArialMT-2212"/>
       <use x="58.398438" xlink:href="#ArialMT-35"/>
      </g>
     </g>
    </g>
    <g id="ytick_6">
     <g id="text_15">
      <!-- 0 -->
      <g style="fill:#262626;" transform="translate(89.682969 75.389597)scale(0.11 -0.11)">
       <use xlink:href="#ArialMT-30"/>
      </g>
     </g>
    </g>
   </g>
   <g id="line2d_1">
    <path clip-path="url(#p64aa10c451)" d="M 134.975455 331.337353 
L 137.899145 330.751947 
L 140.822835 331.550171 
L 143.746525 330.36374 
L 146.670215 332.049072 
L 149.593905 332.773104 
L 152.517595 332.813768 
L 155.441285 334.678145 
L 161.288665 333.167712 
L 164.212356 335.700259 
L 167.136046 336.369652 
L 172.983426 360.054748 
L 175.907116 366.641939 
L 178.830806 394.34579 
L 181.754496 415.143591 
L 184.678186 354.24586 
L 187.601876 330.991104 
L 190.525567 401.484982 
L 193.449257 335.471787 
L 196.372947 283.419446 
L 199.296637 324.572079 
L 202.220327 338.198122 
L 205.144017 331.79622 
L 208.067707 361.368069 
L 210.991397 426.127915 
L 213.915087 418.672435 
L 216.838777 401.722565 
L 219.762468 428.746617 
L 222.686158 409.942846 
L 225.609848 441.712554 
L 228.533538 466.893688 
L 231.457228 424.029925 
L 234.380918 307.435085 
L 237.304608 407.816907 
L 240.228298 437.108917 
L 243.151988 381.165916 
L 246.075678 335.380962 
L 248.999369 320.244049 
L 251.923059 407.328902 
L 254.846749 407.00205 
L 257.770439 446.435473 
L 260.694129 347.274082 
L 263.617819 392.904652 
L 266.541509 353.742709 
L 269.465199 406.908898 
L 272.388889 456.90867 
L 275.312579 454.134728 
L 278.23627 453.386822 
L 281.15996 420.408593 
L 284.08365 367.406915 
L 287.00734 377.506982 
L 289.93103 451.739688 
L 292.85472 451.700335 
L 295.77841 446.648325 
L 298.7021 475.691698 
L 301.62579 382.493579 
L 304.549481 331.624871 
L 307.473171 307.771084 
L 310.396861 403.240064 
L 313.320551 347.355743 
L 316.244241 383.953291 
L 319.167931 445.288761 
L 322.091621 443.586848 
L 325.015311 375.980423 
L 327.939001 379.95743 
L 330.862691 400.55686 
L 333.786382 286.732097 
L 336.710072 318.670162 
L 339.633762 447.693805 
L 342.557452 505.646017 
L 345.481142 389.187371 
L 348.404832 386.782257 
L 351.328522 374.188856 
L 354.252212 436.950178 
L 357.175902 502.606192 
L 360.099592 432.608925 
L 363.023283 446.219961 
L 365.946973 379.412758 
L 368.870663 346.443606 
L 371.794353 243.633898 
L 374.718043 71.499561 
L 377.641733 210.671323 
L 380.565423 284.120811 
L 383.489113 300.339723 
L 386.412803 329.638361 
L 389.336494 409.294983 
L 392.260184 436.263767 
L 395.183874 439.095986 
L 398.107564 323.854589 
L 401.031254 245.569249 
L 403.954944 315.743917 
L 406.878634 377.860943 
L 409.802324 336.645014 
L 412.726014 311.967223 
L 415.649704 403.889152 
L 418.573395 243.601017 
L 421.497085 71.459838 
L 424.420775 71.453032 
L 427.344465 78.763979 
L 430.268155 304.267443 
L 433.191845 397.08902 
L 436.115535 340.856281 
L 439.039225 405.108971 
L 444.886605 360.325562 
L 447.810296 373.948719 
L 450.733986 377.088482 
L 453.657676 377.623255 
L 456.581366 421.294985 
L 459.505056 477.655505 
L 462.428746 390.485021 
L 465.352436 407.208676 
L 468.276126 374.965725 
L 471.199816 397.840179 
L 474.123506 398.102529 
L 477.047197 436.899002 
L 479.970887 349.761574 
L 482.894577 397.778055 
L 485.818267 377.094358 
L 488.741957 418.99572 
L 491.665647 443.752303 
L 494.589337 407.477217 
L 497.513027 447.900606 
L 500.436717 428.59414 
L 503.360408 311.2618 
L 506.284098 358.470857 
L 509.207788 519.637285 
L 512.131478 512.902741 
L 515.055168 477.847195 
L 517.978858 338.961104 
L 520.902548 378.616859 
L 523.826238 387.359845 
L 526.749928 345.312723 
L 529.673618 453.667746 
L 532.597309 423.220454 
L 535.520999 345.039757 
L 538.444689 373.594303 
L 541.368379 509.968661 
L 544.292069 448.331139 
L 547.215759 389.665932 
L 550.139449 466.708714 
L 553.063139 412.132205 
L 555.986829 472.925556 
L 558.910519 378.847237 
L 561.83421 395.001734 
L 564.7579 461.509824 
L 567.68159 408.44714 
L 570.60528 393.878039 
L 573.52897 384.408345 
L 576.45266 347.226614 
L 579.37635 352.039536 
L 582.30004 330.678122 
L 585.22373 280.39893 
L 588.147421 327.689455 
L 591.071111 364.701498 
L 593.994801 429.624228 
L 596.918491 398.915042 
L 599.842181 391.788408 
L 602.765871 404.305413 
L 605.689561 399.06661 
L 608.613251 479.814186 
L 611.536941 507.007226 
L 614.460631 453.921945 
L 617.384322 441.290031 
L 620.308012 468.079088 
L 623.231702 466.314911 
L 626.155392 469.392444 
L 629.079082 396.222463 
L 632.002772 299.484271 
L 634.926462 73.425891 
L 637.850152 71.455393 
L 640.773842 132.640475 
L 643.697532 273.430545 
L 646.621223 311.79318 
L 649.544913 391.140895 
L 652.468603 361.888168 
L 655.392293 362.574019 
L 658.315983 361.403556 
L 661.239673 425.845557 
L 664.163363 391.61162 
L 667.087053 407.270171 
L 670.010743 384.122699 
L 672.934433 404.995881 
L 675.858124 477.971444 
L 678.781814 423.710663 
L 681.705504 433.939211 
L 684.629194 472.809247 
L 687.552884 388.80693 
L 690.476574 459.667152 
L 693.400264 366.735825 
L 696.323954 401.754082 
L 699.247644 427.971987 
L 702.171335 395.202448 
L 705.095025 370.842747 
L 708.018715 360.398338 
L 710.942405 359.444575 
L 713.866095 358.794719 
L 716.789785 360.193513 
L 719.713475 359.785612 
L 722.637165 358.011518 
L 725.560855 358.805387 
L 728.484545 357.154335 
L 728.484545 357.154335 
" style="fill:none;stroke:#4c72b0;stroke-linecap:round;stroke-width:1.5;"/>
   </g>
   <g id="line2d_2">
    <path clip-path="url(#p64aa10c451)" d="M 134.975455 325.769512 
L 137.899145 327.037149 
L 140.822835 327.52888 
L 143.746525 328.168872 
L 146.670215 329.25659 
L 149.593905 331.549349 
L 152.517595 330.016074 
L 155.441285 332.676874 
L 158.364975 329.871852 
L 161.288665 326.816269 
L 164.212356 328.146065 
L 167.136046 327.694667 
L 170.059736 333.226916 
L 172.983426 339.930485 
L 175.907116 345.745792 
L 178.830806 374.307089 
L 181.754496 389.183034 
L 184.678186 337.911409 
L 187.601876 282.380263 
L 190.525567 374.005841 
L 193.449257 308.79304 
L 196.372947 268.996998 
L 199.296637 299.657474 
L 202.220327 316.059768 
L 205.144017 351.372085 
L 208.067707 370.687192 
L 210.991397 441.124087 
L 216.838777 392.499865 
L 219.762468 403.678328 
L 222.686158 395.354366 
L 225.609848 410.112709 
L 228.533538 426.134142 
L 231.457228 408.686438 
L 234.380918 299.65639 
L 237.304608 397.463445 
L 240.228298 399.030791 
L 243.151988 344.362826 
L 246.075678 322.877582 
L 248.999369 341.884988 
L 251.923059 396.702072 
L 254.846749 410.235349 
L 257.770439 457.415809 
L 260.694129 358.874403 
L 263.617819 392.155487 
L 266.541509 352.015453 
L 269.465199 416.347285 
L 272.388889 484.366228 
L 275.312579 482.656864 
L 278.23627 472.129692 
L 281.15996 441.357368 
L 284.08365 365.522546 
L 287.00734 367.912654 
L 289.93103 451.615019 
L 292.85472 474.167238 
L 295.77841 443.724564 
L 298.7021 472.510309 
L 301.62579 395.871929 
L 304.549481 358.630295 
L 307.473171 338.595144 
L 310.396861 381.224333 
L 313.320551 362.236568 
L 316.244241 402.353533 
L 319.167931 484.330234 
L 322.091621 453.850236 
L 325.015311 375.945758 
L 327.939001 403.140476 
L 330.862691 380.641707 
L 333.786382 263.333014 
L 336.710072 312.837436 
L 339.633762 420.208054 
L 342.557452 470.337916 
L 345.481142 381.435366 
L 348.404832 378.93815 
L 351.328522 378.031331 
L 354.252212 421.7032 
L 357.175902 321.976237 
L 360.099592 231.715749 
L 363.023283 247.303868 
L 365.946973 291.675022 
L 368.870663 247.159069 
L 371.794353 169.542799 
L 374.718043 71.525094 
L 377.641733 151.298034 
L 380.565423 244.261053 
L 383.489113 236.617153 
L 386.412803 302.854289 
L 389.336494 357.291142 
L 392.260184 408.904188 
L 395.183874 419.015588 
L 398.107564 270.162144 
L 401.031254 164.571654 
L 403.954944 305.932487 
L 409.802324 378.134591 
L 412.726014 361.194026 
L 415.649704 390.154286 
L 418.573395 182.162977 
L 421.497085 71.465063 
L 424.420775 71.45414 
L 427.344465 93.257688 
L 430.268155 302.205517 
L 433.191845 368.18158 
L 436.115535 333.433123 
L 439.039225 432.344442 
L 441.962915 398.924102 
L 444.886605 330.852899 
L 447.810296 319.598302 
L 450.733986 398.319404 
L 453.657676 350.391195 
L 459.505056 438.725129 
L 462.428746 347.50446 
L 465.352436 386.798103 
L 468.276126 340.555874 
L 471.199816 391.208441 
L 474.123506 373.963446 
L 477.047197 449.165305 
L 479.970887 348.603651 
L 482.894577 384.228828 
L 485.818267 374.334058 
L 488.741957 408.897646 
L 491.665647 433.299883 
L 494.589337 386.048098 
L 497.513027 443.984744 
L 500.436717 422.212018 
L 503.360408 298.458433 
L 506.284098 373.006325 
L 509.207788 507.972252 
L 512.131478 491.006466 
L 515.055168 467.049139 
L 517.978858 342.123079 
L 520.902548 377.138013 
L 523.826238 389.216195 
L 526.749928 348.4967 
L 529.673618 453.127446 
L 532.597309 418.947902 
L 535.520999 358.6187 
L 538.444689 363.967077 
L 541.368379 442.212907 
L 544.292069 407.370353 
L 547.215759 338.724902 
L 550.139449 406.491378 
L 553.063139 400.036498 
L 555.986829 396.45312 
L 558.910519 280.482305 
L 561.83421 223.343166 
L 564.7579 286.042765 
L 567.68159 303.657621 
L 570.60528 287.280267 
L 573.52897 237.114043 
L 576.45266 242.804209 
L 579.37635 269.93383 
L 582.30004 222.194635 
L 585.22373 294.132204 
L 588.147421 284.714333 
L 591.071111 325.22435 
L 593.994801 385.106439 
L 596.918491 331.797374 
L 599.842181 407.926919 
L 602.765871 391.080135 
L 605.689561 387.413575 
L 608.613251 529.110477 
L 611.536941 508.229879 
L 614.460631 476.717064 
L 617.384322 495.797491 
L 620.308012 471.512472 
L 623.231702 453.488719 
L 626.155392 485.525847 
L 629.079082 384.546446 
L 632.002772 301.761831 
L 634.926462 71.759554 
L 637.850152 71.509389 
L 640.773842 154.487556 
L 643.697532 259.505039 
L 646.621223 296.035444 
L 649.544913 388.123282 
L 652.468603 348.883421 
L 655.392293 370.110373 
L 658.315983 342.111221 
L 661.239673 425.979635 
L 664.163363 376.519813 
L 667.087053 403.150935 
L 670.010743 373.332128 
L 672.934433 394.471613 
L 675.858124 468.654158 
L 678.781814 424.963993 
L 681.705504 425.481102 
L 684.629194 465.024151 
L 687.552884 355.793529 
L 690.476574 432.098253 
L 693.400264 377.627347 
L 696.323954 406.740085 
L 699.247644 415.342907 
L 702.171335 381.395419 
L 705.095025 349.827179 
L 708.018715 342.913975 
L 710.942405 344.043861 
L 713.866095 339.489179 
L 716.789785 344.382974 
L 719.713475 342.285736 
L 722.637165 341.678414 
L 725.560855 343.408329 
L 728.484545 342.896415 
L 728.484545 342.896415 
" style="fill:none;stroke:#dd8452;stroke-dasharray:6,2.25;stroke-dashoffset:0;stroke-width:1.5;"/>
   </g>
   <g id="line2d_3">
    <path clip-path="url(#p64aa10c451)" d="M 134.975455 319.297405 
L 143.746525 318.774385 
L 146.670215 323.681718 
L 152.517595 322.915588 
L 155.441285 333.225115 
L 158.364975 333.961704 
L 161.288665 323.225632 
L 164.212356 324.624199 
L 167.136046 322.724702 
L 170.059736 322.960117 
L 172.983426 338.341627 
L 175.907116 346.447402 
L 178.830806 369.160983 
L 181.754496 379.99269 
L 184.678186 309.654805 
L 187.601876 335.362458 
L 190.525567 281.453015 
L 193.449257 260.193969 
L 196.372947 241.901727 
L 199.296637 297.187088 
L 202.220327 325.392306 
L 205.144017 270.101611 
L 208.067707 156.75693 
L 210.991397 317.146769 
L 213.915087 392.803455 
L 216.838777 280.844959 
L 219.762468 334.37459 
L 222.686158 363.482797 
L 225.609848 342.463783 
L 228.533538 374.301842 
L 231.457228 391.496851 
L 234.380918 289.865528 
L 237.304608 403.929868 
L 240.228298 405.317277 
L 243.151988 322.622579 
L 246.075678 282.968485 
L 248.999369 370.213284 
L 251.923059 334.406719 
L 254.846749 414.757692 
L 257.770439 430.296647 
L 260.694129 320.008512 
L 263.617819 358.304283 
L 266.541509 342.974053 
L 269.465199 395.352687 
L 272.388889 413.763808 
L 275.312579 397.662341 
L 278.23627 379.073033 
L 281.15996 317.935234 
L 284.08365 345.338416 
L 287.00734 248.990233 
L 289.93103 336.159475 
L 292.85472 339.414444 
L 295.77841 394.279048 
L 298.7021 453.212692 
L 301.62579 406.612758 
L 304.549481 390.093876 
L 307.473171 338.768382 
L 310.396861 395.395258 
L 313.320551 392.759206 
L 316.244241 412.359819 
L 319.167931 510.340672 
L 322.091621 477.719589 
L 325.015311 404.233459 
L 327.939001 413.718019 
L 330.862691 415.150237 
L 333.786382 285.944192 
L 336.710072 326.277683 
L 339.633762 484.012966 
L 342.557452 541.817353 
L 345.481142 427.773091 
L 348.404832 431.007929 
L 351.328522 413.400227 
L 354.252212 413.966132 
L 357.175902 444.706065 
L 360.099592 350.939313 
L 363.023283 217.698194 
L 365.946973 304.667089 
L 368.870663 273.707883 
L 371.794353 120.533816 
L 374.718043 71.95503 
L 377.641733 86.078534 
L 380.565423 128.790712 
L 383.489113 159.28332 
L 386.412803 258.075917 
L 389.336494 333.642075 
L 392.260184 405.49382 
L 395.183874 402.974567 
L 398.107564 314.748774 
L 401.031254 219.051375 
L 403.954944 332.262852 
L 406.878634 378.779411 
L 409.802324 372.498172 
L 412.726014 331.550538 
L 415.649704 404.186061 
L 418.573395 219.230419 
L 421.497085 71.463241 
L 424.420775 71.453747 
L 427.344465 96.036136 
L 430.268155 283.346233 
L 433.191845 346.923094 
L 436.115535 322.18073 
L 439.039225 323.512748 
L 441.962915 301.634277 
L 444.886605 307.591637 
L 447.810296 343.816579 
L 450.733986 345.643773 
L 453.657676 334.123014 
L 456.581366 446.217408 
L 459.505056 484.370705 
L 462.428746 358.412406 
L 465.352436 381.415218 
L 468.276126 351.41525 
L 471.199816 345.115366 
L 474.123506 313.11836 
L 477.047197 403.660243 
L 479.970887 333.450997 
L 482.894577 334.373418 
L 485.818267 343.803392 
L 488.741957 400.448177 
L 494.589337 350.083512 
L 497.513027 403.120468 
L 500.436717 323.480688 
L 503.360408 264.735971 
L 506.284098 242.378993 
L 509.207788 386.728353 
L 512.131478 331.51673 
L 515.055168 326.79271 
L 517.978858 320.909839 
L 520.902548 238.832676 
L 523.826238 233.41336 
L 529.673618 389.828833 
L 532.597309 291.344479 
L 535.520999 338.001658 
L 538.444689 331.323554 
L 541.368379 406.794269 
L 544.292069 401.180971 
L 547.215759 316.510222 
L 550.139449 344.524433 
L 553.063139 279.427852 
L 555.986829 202.135462 
L 558.910519 278.830553 
L 561.83421 257.92239 
L 564.7579 296.877218 
L 567.68159 396.037349 
L 570.60528 361.170695 
L 573.52897 398.210931 
L 576.45266 395.520416 
L 579.37635 283.339989 
L 582.30004 282.873532 
L 585.22373 342.853582 
L 588.147421 289.403111 
L 591.071111 228.98366 
L 593.994801 222.249239 
L 596.918491 254.764875 
L 599.842181 325.226134 
L 602.765871 334.626795 
L 605.689561 430.754045 
L 608.613251 488.057974 
L 611.536941 494.815604 
L 614.460631 455.897611 
L 617.384322 458.75512 
L 620.308012 476.950905 
L 623.231702 460.517758 
L 626.155392 482.074833 
L 629.079082 396.904221 
L 632.002772 319.974739 
L 634.926462 73.328227 
L 637.850152 71.656455 
L 640.773842 153.150527 
L 643.697532 293.882535 
L 646.621223 318.202621 
L 649.544913 302.266487 
L 652.468603 180.717703 
L 655.392293 320.383461 
L 658.315983 299.315336 
L 661.239673 260.454009 
L 664.163363 309.840531 
L 667.087053 295.936346 
L 670.010743 263.163117 
L 672.934433 254.937082 
L 675.858124 421.642475 
L 678.781814 393.372089 
L 681.705504 269.318796 
L 684.629194 350.812738 
L 687.552884 424.974697 
L 690.476574 393.552271 
L 693.400264 393.815355 
L 696.323954 424.765937 
L 699.247644 412.055354 
L 702.171335 384.075931 
L 705.095025 340.225978 
L 708.018715 337.972379 
L 710.942405 342.243812 
L 713.866095 335.390162 
L 716.789785 341.173846 
L 719.713475 337.742754 
L 722.637165 340.699694 
L 725.560855 340.980477 
L 728.484545 338.155971 
L 728.484545 338.155971 
" style="fill:none;stroke:#55a868;stroke-dasharray:1.5,1.5;stroke-dashoffset:0;stroke-width:1.5;"/>
   </g>
   <g id="line2d_4">
    <path clip-path="url(#p64aa10c451)" d="M 134.975455 326.232611 
L 137.899145 327.353857 
L 140.822835 328.105891 
L 143.746525 328.532436 
L 146.670215 329.758097 
L 149.593905 332.07835 
L 152.517595 330.70308 
L 155.441285 333.405558 
L 158.364975 330.662521 
L 161.288665 327.62768 
L 164.212356 328.890071 
L 167.136046 328.379993 
L 170.059736 334.022219 
L 172.983426 340.559547 
L 175.907116 346.288208 
L 178.830806 375.02813 
L 181.754496 390.316278 
L 184.678186 338.708549 
L 187.601876 282.385754 
L 190.525567 373.924968 
L 193.449257 309.961842 
L 196.372947 267.743335 
L 199.296637 299.250535 
L 202.220327 317.580136 
L 205.144017 350.375262 
L 208.067707 375.08756 
L 210.991397 439.263505 
L 213.915087 425.080896 
L 216.838777 386.936938 
L 219.762468 405.283311 
L 222.686158 396.656109 
L 225.609848 410.376947 
L 228.533538 426.991569 
L 231.457228 411.067696 
L 234.380918 300.233908 
L 237.304608 399.769671 
L 240.228298 402.4371 
L 243.151988 347.6565 
L 246.075678 324.856711 
L 248.999369 342.033076 
L 251.923059 396.039833 
L 254.846749 409.167517 
L 257.770439 458.542058 
L 260.694129 359.567512 
L 263.617819 393.420571 
L 266.541509 350.664511 
L 269.465199 419.625743 
L 272.388889 480.953272 
L 275.312579 483.975397 
L 278.23627 466.030594 
L 281.15996 431.887009 
L 284.08365 359.072599 
L 287.00734 372.474735 
L 289.93103 453.835614 
L 292.85472 468.196026 
L 295.77841 445.230659 
L 298.7021 472.97904 
L 301.62579 394.997886 
L 304.549481 358.704016 
L 307.473171 335.653158 
L 310.396861 380.920567 
L 313.320551 359.777287 
L 316.244241 403.559606 
L 319.167931 485.517977 
L 322.091621 466.853251 
L 325.015311 372.245582 
L 327.939001 388.506627 
L 330.862691 389.701821 
L 333.786382 258.767348 
L 336.710072 313.634768 
L 339.633762 445.816538 
L 342.557452 498.155487 
L 345.481142 378.358043 
L 348.404832 321.27795 
L 351.328522 362.834549 
L 354.252212 436.138644 
L 357.175902 395.113774 
L 360.099592 251.9435 
L 363.023283 363.499605 
L 365.946973 297.092817 
L 368.870663 237.275038 
L 371.794353 152.346776 
L 374.718043 71.498848 
L 377.641733 159.267194 
L 380.565423 256.567618 
L 383.489113 235.406201 
L 386.412803 310.609757 
L 389.336494 358.32597 
L 392.260184 410.033444 
L 395.183874 423.940691 
L 398.107564 275.05503 
L 401.031254 173.920099 
L 403.954944 309.944614 
L 406.878634 341.479204 
L 409.802324 381.898501 
L 412.726014 362.880006 
L 415.649704 393.31878 
L 418.573395 182.71977 
L 421.497085 71.462572 
L 424.420775 71.453736 
L 427.344465 92.597073 
L 430.268155 297.503201 
L 433.191845 364.538351 
L 436.115535 333.636916 
L 439.039225 431.303019 
L 441.962915 399.03978 
L 444.886605 330.835986 
L 447.810296 319.91494 
L 450.733986 391.389637 
L 453.657676 352.336009 
L 456.581366 400.294335 
L 459.505056 439.538552 
L 462.428746 344.301436 
L 465.352436 384.767659 
L 468.276126 336.860927 
L 471.199816 390.595698 
L 474.123506 380.006717 
L 477.047197 461.269547 
L 479.970887 353.850569 
L 482.894577 385.817161 
L 485.818267 375.434561 
L 488.741957 410.525647 
L 491.665647 433.501927 
L 494.589337 387.612995 
L 497.513027 444.491533 
L 500.436717 422.282678 
L 503.360408 298.022041 
L 506.284098 371.24708 
L 509.207788 511.272782 
L 512.131478 491.987548 
L 515.055168 485.214526 
L 517.978858 344.546855 
L 520.902548 384.368398 
L 523.826238 399.657036 
L 526.749928 356.957783 
L 529.673618 450.494472 
L 532.597309 416.928616 
L 535.520999 367.581884 
L 538.444689 367.612492 
L 541.368379 442.254777 
L 544.292069 419.045881 
L 547.215759 341.090262 
L 550.139449 432.612143 
L 553.063139 384.37291 
L 555.986829 401.761358 
L 558.910519 377.04014 
L 561.83421 345.655946 
L 564.7579 375.546532 
L 567.68159 270.096417 
L 570.60528 343.213246 
L 573.52897 335.298339 
L 576.45266 297.558085 
L 579.37635 306.559065 
L 582.30004 264.63411 
L 585.22373 311.393307 
L 588.147421 285.326796 
L 591.071111 317.763203 
L 593.994801 412.699824 
L 596.918491 384.166074 
L 599.842181 417.288804 
L 602.765871 418.789443 
L 605.689561 403.305687 
L 608.613251 526.323137 
L 611.536941 502.280739 
L 614.460631 487.525299 
L 617.384322 499.661058 
L 620.308012 471.400046 
L 623.231702 458.096868 
L 626.155392 486.825246 
L 629.079082 387.785306 
L 632.002772 301.327731 
L 634.926462 71.720247 
L 637.850152 71.510949 
L 640.773842 160.57177 
L 643.697532 260.084569 
L 646.621223 297.57115 
L 649.544913 387.1521 
L 652.468603 349.261536 
L 655.392293 373.167967 
L 658.315983 341.925862 
L 661.239673 424.418097 
L 664.163363 375.523235 
L 667.087053 401.266637 
L 670.010743 372.183737 
L 672.934433 392.541736 
L 675.858124 467.421675 
L 678.781814 423.584245 
L 681.705504 424.679782 
L 684.629194 465.017575 
L 687.552884 356.189064 
L 690.476574 433.281624 
L 693.400264 378.325652 
L 696.323954 406.254599 
L 699.247644 417.234691 
L 702.171335 380.660911 
L 705.095025 349.171148 
L 708.018715 342.448585 
L 710.942405 343.333314 
L 713.866095 339.198093 
L 716.789785 343.240425 
L 719.713475 341.584843 
L 722.637165 341.054635 
L 725.560855 342.502821 
L 728.484545 342.270782 
L 728.484545 342.270782 
" style="fill:none;stroke:#c44e52;stroke-dasharray:4.5,1.875,2.25,1.875;stroke-dashoffset:0;stroke-width:1.5;"/>
   </g>
   <g id="line2d_5">
    <path clip-path="url(#p64aa10c451)" d="M 134.975455 324.301055 
L 137.899145 324.926374 
L 140.822835 325.752564 
L 143.746525 326.438206 
L 146.670215 326.635248 
L 149.593905 329.794984 
L 152.517595 328.909187 
L 155.441285 332.198017 
L 158.364975 329.401127 
L 161.288665 327.807687 
L 164.212356 329.086955 
L 167.136046 329.212428 
L 170.059736 336.539724 
L 172.983426 343.202874 
L 175.907116 347.213829 
L 178.830806 375.490844 
L 181.754496 397.267313 
L 184.678186 334.470697 
L 187.601876 309.024729 
L 190.525567 387.150945 
L 193.449257 323.801244 
L 196.372947 280.540319 
L 199.296637 318.087414 
L 202.220327 334.030335 
L 205.144017 351.699584 
L 208.067707 380.782606 
L 210.991397 448.048362 
L 213.915087 418.486587 
L 216.838777 391.812684 
L 219.762468 405.209329 
L 222.686158 400.714619 
L 225.609848 425.204201 
L 228.533538 443.301132 
L 231.457228 419.051792 
L 234.380918 301.13347 
L 237.304608 399.065141 
L 240.228298 406.283317 
L 243.151988 355.885246 
L 246.075678 327.859107 
L 248.999369 330.92968 
L 251.923059 404.303104 
L 254.846749 415.869494 
L 257.770439 461.979569 
L 260.694129 352.515736 
L 263.617819 383.386756 
L 266.541509 349.619311 
L 269.465199 417.66323 
L 272.388889 481.990462 
L 275.312579 489.26695 
L 278.23627 478.750237 
L 281.15996 448.516603 
L 284.08365 372.011077 
L 287.00734 372.838562 
L 289.93103 452.674526 
L 292.85472 468.987901 
L 295.77841 444.439134 
L 298.7021 470.189741 
L 301.62579 391.014932 
L 304.549481 350.934188 
L 307.473171 323.823667 
L 310.396861 387.372683 
L 313.320551 365.950036 
L 316.244241 406.828969 
L 319.167931 480.580526 
L 322.091621 466.041158 
L 325.015311 380.836021 
L 327.939001 410.622156 
L 330.862691 402.38449 
L 333.786382 322.303019 
L 336.710072 325.917197 
L 339.633762 433.932285 
L 342.557452 459.663934 
L 345.481142 372.759472 
L 348.404832 330.627086 
L 351.328522 380.156641 
L 354.252212 464.875137 
L 357.175902 502.110772 
L 360.099592 424.140496 
L 363.023283 458.674317 
L 365.946973 372.625954 
L 368.870663 307.479194 
L 371.794353 137.420061 
L 374.718043 74.02928 
L 377.641733 245.540391 
L 380.565423 340.350751 
L 383.489113 310.713403 
L 386.412803 320.976983 
L 392.260184 432.902057 
L 395.183874 432.335417 
L 398.107564 294.67922 
L 401.031254 230.476813 
L 403.954944 348.999029 
L 406.878634 385.075517 
L 409.802324 389.758104 
L 412.726014 353.540595 
L 415.649704 430.762615 
L 418.573395 198.332969 
L 421.497085 71.455421 
L 424.420775 71.4532 
L 427.344465 88.844082 
L 430.268155 296.309371 
L 433.191845 371.310639 
L 436.115535 337.352658 
L 439.039225 426.664647 
L 441.962915 396.610775 
L 444.886605 336.630025 
L 447.810296 334.674735 
L 450.733986 387.577316 
L 453.657676 339.042468 
L 456.581366 389.440906 
L 459.505056 427.525433 
L 462.428746 335.114747 
L 465.352436 376.941601 
L 468.276126 341.092343 
L 471.199816 394.610238 
L 474.123506 382.44912 
L 477.047197 457.156468 
L 479.970887 354.852604 
L 482.894577 383.357478 
L 485.818267 378.736841 
L 488.741957 357.535634 
L 491.665647 456.518609 
L 494.589337 385.245204 
L 497.513027 439.978284 
L 500.436717 346.705851 
L 503.360408 353.142418 
L 506.284098 455.187763 
L 509.207788 383.252608 
L 512.131478 417.629579 
L 515.055168 375.359634 
L 517.978858 369.373381 
L 520.902548 350.255683 
L 523.826238 326.519272 
L 526.749928 313.68834 
L 529.673618 336.931552 
L 532.597309 324.263434 
L 535.520999 382.02072 
L 538.444689 354.754695 
L 541.368379 344.638468 
L 544.292069 230.791563 
L 547.215759 209.202026 
L 550.139449 166.518226 
L 553.063139 182.984778 
L 555.986829 162.289879 
L 558.910519 143.439528 
L 561.83421 175.422906 
L 564.7579 253.882734 
L 567.68159 262.318282 
L 570.60528 287.0218 
L 573.52897 381.492943 
L 576.45266 369.501722 
L 579.37635 285.876768 
L 582.30004 195.09187 
L 588.147421 254.157589 
L 591.071111 309.234259 
L 593.994801 399.489517 
L 596.918491 381.286457 
L 599.842181 392.080036 
L 602.765871 418.937058 
L 605.689561 400.557664 
L 608.613251 510.465236 
L 611.536941 501.090442 
L 614.460631 485.055647 
L 617.384322 491.550579 
L 620.308012 471.895852 
L 623.231702 459.599536 
L 626.155392 486.565206 
L 629.079082 394.212062 
L 632.002772 308.958757 
L 634.926462 72.020361 
L 637.850152 71.539459 
L 640.773842 170.54758 
L 643.697532 257.696018 
L 646.621223 286.35239 
L 649.544913 375.057653 
L 652.468603 342.273055 
L 655.392293 365.080225 
L 658.315983 340.990692 
L 661.239673 416.569862 
L 664.163363 371.514572 
L 667.087053 396.422583 
L 670.010743 374.494476 
L 672.934433 392.956842 
L 675.858124 461.412475 
L 678.781814 409.861728 
L 681.705504 422.532819 
L 684.629194 455.728203 
L 687.552884 351.34494 
L 690.476574 422.484057 
L 693.400264 374.579127 
L 696.323954 407.885503 
L 699.247644 421.05838 
L 702.171335 373.478099 
L 705.095025 349.189285 
L 708.018715 344.162671 
L 710.942405 344.066966 
L 713.866095 339.636322 
L 716.789785 343.701128 
L 719.713475 342.268438 
L 722.637165 340.534658 
L 725.560855 343.399619 
L 728.484545 341.516667 
L 728.484545 341.516667 
" style="fill:none;stroke:#8172b3;stroke-dasharray:7.5,1.5,1.5,1.5;stroke-dashoffset:0;stroke-width:1.5;"/>
   </g>
   <g id="line2d_6"/>
   <g id="line2d_7"/>
   <g id="line2d_8"/>
   <g id="line2d_9"/>
   <g id="line2d_10"/>
   <g id="patch_3">
    <path d="M 105.3 529.9416 
L 105.3 71.4528 
" style="fill:none;stroke:#262626;stroke-linecap:square;stroke-linejoin:miter;stroke-width:1.25;"/>
   </g>
   <g id="patch_4">
    <path d="M 758.16 529.9416 
L 758.16 71.4528 
" style="fill:none;stroke:#262626;stroke-linecap:square;stroke-linejoin:miter;stroke-width:1.25;"/>
   </g>
   <g id="patch_5">
    <path d="M 105.3 529.9416 
L 758.16 529.9416 
" style="fill:none;stroke:#262626;stroke-linecap:square;stroke-linejoin:miter;stroke-width:1.25;"/>
   </g>
   <g id="patch_6">
    <path d="M 105.3 71.4528 
L 758.16 71.4528 
" style="fill:none;stroke:#262626;stroke-linecap:square;stroke-linejoin:miter;stroke-width:1.25;"/>
   </g>
   <g id="text_16">
    <!-- Activations for &gt;Y&lt; -->
    <g style="fill:#262626;" transform="translate(381.372187 65.4528)scale(0.12 -0.12)">
     <defs>
      <path d="M -9 0 
L 1750 4581 
L 2403 4581 
L 4278 0 
L 3588 0 
L 3053 1388 
L 1138 1388 
L 634 0 
L -9 0 
z
M 1313 1881 
L 2866 1881 
L 2388 3150 
Q 2169 3728 2063 4100 
Q 1975 3659 1816 3225 
L 1313 1881 
z
" id="ArialMT-41" transform="scale(0.015625)"/>
      <path d="M 2588 1216 
L 3141 1144 
Q 3050 572 2676 248 
Q 2303 -75 1759 -75 
Q 1078 -75 664 370 
Q 250 816 250 1647 
Q 250 2184 428 2587 
Q 606 2991 970 3192 
Q 1334 3394 1763 3394 
Q 2303 3394 2647 3120 
Q 2991 2847 3088 2344 
L 2541 2259 
Q 2463 2594 2264 2762 
Q 2066 2931 1784 2931 
Q 1359 2931 1093 2626 
Q 828 2322 828 1663 
Q 828 994 1084 691 
Q 1341 388 1753 388 
Q 2084 388 2306 591 
Q 2528 794 2588 1216 
z
" id="ArialMT-63" transform="scale(0.015625)"/>
      <path d="M 1650 503 
L 1731 6 
Q 1494 -44 1306 -44 
Q 1000 -44 831 53 
Q 663 150 594 308 
Q 525 466 525 972 
L 525 2881 
L 113 2881 
L 113 3319 
L 525 3319 
L 525 4141 
L 1084 4478 
L 1084 3319 
L 1650 3319 
L 1650 2881 
L 1084 2881 
L 1084 941 
Q 1084 700 1114 631 
Q 1144 563 1211 522 
Q 1278 481 1403 481 
Q 1497 481 1650 503 
z
" id="ArialMT-74" transform="scale(0.015625)"/>
      <path d="M 425 3934 
L 425 4581 
L 988 4581 
L 988 3934 
L 425 3934 
z
M 425 0 
L 425 3319 
L 988 3319 
L 988 0 
L 425 0 
z
" id="ArialMT-69" transform="scale(0.015625)"/>
      <path d="M 1344 0 
L 81 3319 
L 675 3319 
L 1388 1331 
Q 1503 1009 1600 663 
Q 1675 925 1809 1294 
L 2547 3319 
L 3125 3319 
L 1869 0 
L 1344 0 
z
" id="ArialMT-76" transform="scale(0.015625)"/>
      <path d="M 2588 409 
Q 2275 144 1986 34 
Q 1697 -75 1366 -75 
Q 819 -75 525 192 
Q 231 459 231 875 
Q 231 1119 342 1320 
Q 453 1522 633 1644 
Q 813 1766 1038 1828 
Q 1203 1872 1538 1913 
Q 2219 1994 2541 2106 
Q 2544 2222 2544 2253 
Q 2544 2597 2384 2738 
Q 2169 2928 1744 2928 
Q 1347 2928 1158 2789 
Q 969 2650 878 2297 
L 328 2372 
Q 403 2725 575 2942 
Q 747 3159 1072 3276 
Q 1397 3394 1825 3394 
Q 2250 3394 2515 3294 
Q 2781 3194 2906 3042 
Q 3031 2891 3081 2659 
Q 3109 2516 3109 2141 
L 3109 1391 
Q 3109 606 3145 398 
Q 3181 191 3288 0 
L 2700 0 
Q 2613 175 2588 409 
z
M 2541 1666 
Q 2234 1541 1622 1453 
Q 1275 1403 1131 1340 
Q 988 1278 909 1158 
Q 831 1038 831 891 
Q 831 666 1001 516 
Q 1172 366 1500 366 
Q 1825 366 2078 508 
Q 2331 650 2450 897 
Q 2541 1088 2541 1459 
L 2541 1666 
z
" id="ArialMT-61" transform="scale(0.015625)"/>
      <path d="M 213 1659 
Q 213 2581 725 3025 
Q 1153 3394 1769 3394 
Q 2453 3394 2887 2945 
Q 3322 2497 3322 1706 
Q 3322 1066 3130 698 
Q 2938 331 2570 128 
Q 2203 -75 1769 -75 
Q 1072 -75 642 372 
Q 213 819 213 1659 
z
M 791 1659 
Q 791 1022 1069 705 
Q 1347 388 1769 388 
Q 2188 388 2466 706 
Q 2744 1025 2744 1678 
Q 2744 2294 2464 2611 
Q 2184 2928 1769 2928 
Q 1347 2928 1069 2612 
Q 791 2297 791 1659 
z
" id="ArialMT-6f" transform="scale(0.015625)"/>
      <path d="M 422 0 
L 422 3319 
L 928 3319 
L 928 2847 
Q 1294 3394 1984 3394 
Q 2284 3394 2536 3286 
Q 2788 3178 2913 3003 
Q 3038 2828 3088 2588 
Q 3119 2431 3119 2041 
L 3119 0 
L 2556 0 
L 2556 2019 
Q 2556 2363 2490 2533 
Q 2425 2703 2258 2804 
Q 2091 2906 1866 2906 
Q 1506 2906 1245 2678 
Q 984 2450 984 1813 
L 984 0 
L 422 0 
z
" id="ArialMT-6e" transform="scale(0.015625)"/>
      <path d="M 197 991 
L 753 1078 
Q 800 744 1014 566 
Q 1228 388 1613 388 
Q 2000 388 2187 545 
Q 2375 703 2375 916 
Q 2375 1106 2209 1216 
Q 2094 1291 1634 1406 
Q 1016 1563 777 1677 
Q 538 1791 414 1992 
Q 291 2194 291 2438 
Q 291 2659 392 2848 
Q 494 3038 669 3163 
Q 800 3259 1026 3326 
Q 1253 3394 1513 3394 
Q 1903 3394 2198 3281 
Q 2494 3169 2634 2976 
Q 2775 2784 2828 2463 
L 2278 2388 
Q 2241 2644 2061 2787 
Q 1881 2931 1553 2931 
Q 1166 2931 1000 2803 
Q 834 2675 834 2503 
Q 834 2394 903 2306 
Q 972 2216 1119 2156 
Q 1203 2125 1616 2013 
Q 2213 1853 2448 1751 
Q 2684 1650 2818 1456 
Q 2953 1263 2953 975 
Q 2953 694 2789 445 
Q 2625 197 2315 61 
Q 2006 -75 1616 -75 
Q 969 -75 630 194 
Q 291 463 197 991 
z
" id="ArialMT-73" transform="scale(0.015625)"/>
      <path id="ArialMT-20" transform="scale(0.015625)"/>
      <path d="M 556 0 
L 556 2881 
L 59 2881 
L 59 3319 
L 556 3319 
L 556 3672 
Q 556 4006 616 4169 
Q 697 4388 901 4523 
Q 1106 4659 1475 4659 
Q 1713 4659 2000 4603 
L 1916 4113 
Q 1741 4144 1584 4144 
Q 1328 4144 1222 4034 
Q 1116 3925 1116 3625 
L 1116 3319 
L 1763 3319 
L 1763 2881 
L 1116 2881 
L 1116 0 
L 556 0 
z
" id="ArialMT-66" transform="scale(0.015625)"/>
      <path d="M 416 0 
L 416 3319 
L 922 3319 
L 922 2816 
Q 1116 3169 1280 3281 
Q 1444 3394 1641 3394 
Q 1925 3394 2219 3213 
L 2025 2691 
Q 1819 2813 1613 2813 
Q 1428 2813 1281 2702 
Q 1134 2591 1072 2394 
Q 978 2094 978 1738 
L 978 0 
L 416 0 
z
" id="ArialMT-72" transform="scale(0.015625)"/>
      <path d="M 3384 2003 
L 350 706 
L 350 1266 
L 2753 2263 
L 350 3250 
L 350 3809 
L 3384 2528 
L 3384 2003 
z
" id="ArialMT-3e" transform="scale(0.015625)"/>
      <path d="M 1784 0 
L 1784 1941 
L 19 4581 
L 756 4581 
L 1659 3200 
Q 1909 2813 2125 2425 
Q 2331 2784 2625 3234 
L 3513 4581 
L 4219 4581 
L 2391 1941 
L 2391 0 
L 1784 0 
z
" id="ArialMT-59" transform="scale(0.015625)"/>
      <path d="M 350 2003 
L 350 2528 
L 3384 3809 
L 3384 3250 
L 978 2263 
L 3384 1266 
L 3384 706 
L 350 2003 
z
" id="ArialMT-3c" transform="scale(0.015625)"/>
     </defs>
     <use xlink:href="#ArialMT-41"/>
     <use x="66.699219" xlink:href="#ArialMT-63"/>
     <use x="116.699219" xlink:href="#ArialMT-74"/>
     <use x="144.482422" xlink:href="#ArialMT-69"/>
     <use x="166.699219" xlink:href="#ArialMT-76"/>
     <use x="216.699219" xlink:href="#ArialMT-61"/>
     <use x="272.314453" xlink:href="#ArialMT-74"/>
     <use x="300.097656" xlink:href="#ArialMT-69"/>
     <use x="322.314453" xlink:href="#ArialMT-6f"/>
     <use x="377.929688" xlink:href="#ArialMT-6e"/>
     <use x="433.544922" xlink:href="#ArialMT-73"/>
     <use x="483.544922" xlink:href="#ArialMT-20"/>
     <use x="511.328125" xlink:href="#ArialMT-66"/>
     <use x="539.111328" xlink:href="#ArialMT-6f"/>
     <use x="594.726562" xlink:href="#ArialMT-72"/>
     <use x="628.027344" xlink:href="#ArialMT-20"/>
     <use x="655.810547" xlink:href="#ArialMT-3e"/>
     <use x="714.208984" xlink:href="#ArialMT-59"/>
     <use x="780.908203" xlink:href="#ArialMT-3c"/>
    </g>
   </g>
   <g id="legend_1">
    <g id="patch_7">
     <path d="M 113 158.514363 
L 223.415938 158.514363 
Q 225.615938 158.514363 225.615938 156.314363 
L 225.615938 79.1528 
Q 225.615938 76.9528 223.415938 76.9528 
L 113 76.9528 
Q 110.8 76.9528 110.8 79.1528 
L 110.8 156.314363 
Q 110.8 158.514363 113 158.514363 
z
" style="fill:#ffffff;opacity:0.8;stroke:#cccccc;stroke-linejoin:miter;"/>
    </g>
    <g id="line2d_11">
     <path d="M 115.2 85.376394 
L 137.2 85.376394 
" style="fill:none;stroke:#4c72b0;stroke-linecap:round;stroke-width:1.5;"/>
    </g>
    <g id="line2d_12"/>
    <g id="text_17">
     <!-- regular -->
     <g style="fill:#262626;" transform="translate(146 89.226394)scale(0.11 -0.11)">
      <defs>
       <path d="M 2694 1069 
L 3275 997 
Q 3138 488 2766 206 
Q 2394 -75 1816 -75 
Q 1088 -75 661 373 
Q 234 822 234 1631 
Q 234 2469 665 2931 
Q 1097 3394 1784 3394 
Q 2450 3394 2872 2941 
Q 3294 2488 3294 1666 
Q 3294 1616 3291 1516 
L 816 1516 
Q 847 969 1125 678 
Q 1403 388 1819 388 
Q 2128 388 2347 550 
Q 2566 713 2694 1069 
z
M 847 1978 
L 2700 1978 
Q 2663 2397 2488 2606 
Q 2219 2931 1791 2931 
Q 1403 2931 1139 2672 
Q 875 2413 847 1978 
z
" id="ArialMT-65" transform="scale(0.015625)"/>
       <path d="M 319 -275 
L 866 -356 
Q 900 -609 1056 -725 
Q 1266 -881 1628 -881 
Q 2019 -881 2231 -725 
Q 2444 -569 2519 -288 
Q 2563 -116 2559 434 
Q 2191 0 1641 0 
Q 956 0 581 494 
Q 206 988 206 1678 
Q 206 2153 378 2554 
Q 550 2956 876 3175 
Q 1203 3394 1644 3394 
Q 2231 3394 2613 2919 
L 2613 3319 
L 3131 3319 
L 3131 450 
Q 3131 -325 2973 -648 
Q 2816 -972 2473 -1159 
Q 2131 -1347 1631 -1347 
Q 1038 -1347 672 -1080 
Q 306 -813 319 -275 
z
M 784 1719 
Q 784 1066 1043 766 
Q 1303 466 1694 466 
Q 2081 466 2343 764 
Q 2606 1063 2606 1700 
Q 2606 2309 2336 2618 
Q 2066 2928 1684 2928 
Q 1309 2928 1046 2623 
Q 784 2319 784 1719 
z
" id="ArialMT-67" transform="scale(0.015625)"/>
       <path d="M 2597 0 
L 2597 488 
Q 2209 -75 1544 -75 
Q 1250 -75 995 37 
Q 741 150 617 320 
Q 494 491 444 738 
Q 409 903 409 1263 
L 409 3319 
L 972 3319 
L 972 1478 
Q 972 1038 1006 884 
Q 1059 663 1231 536 
Q 1403 409 1656 409 
Q 1909 409 2131 539 
Q 2353 669 2445 892 
Q 2538 1116 2538 1541 
L 2538 3319 
L 3100 3319 
L 3100 0 
L 2597 0 
z
" id="ArialMT-75" transform="scale(0.015625)"/>
       <path d="M 409 0 
L 409 4581 
L 972 4581 
L 972 0 
L 409 0 
z
" id="ArialMT-6c" transform="scale(0.015625)"/>
      </defs>
      <use xlink:href="#ArialMT-72"/>
      <use x="33.300781" xlink:href="#ArialMT-65"/>
      <use x="88.916016" xlink:href="#ArialMT-67"/>
      <use x="144.53125" xlink:href="#ArialMT-75"/>
      <use x="200.146484" xlink:href="#ArialMT-6c"/>
      <use x="222.363281" xlink:href="#ArialMT-61"/>
      <use x="277.978516" xlink:href="#ArialMT-72"/>
     </g>
    </g>
    <g id="line2d_13">
     <path d="M 115.2 101.0978 
L 137.2 101.0978 
" style="fill:none;stroke:#dd8452;stroke-dasharray:6,2.25;stroke-dashoffset:0;stroke-width:1.5;"/>
    </g>
    <g id="line2d_14"/>
    <g id="text_18">
     <!-- splitted_3s -->
     <g style="fill:#262626;" transform="translate(146 104.9478)scale(0.11 -0.11)">
      <defs>
       <path d="M 422 -1272 
L 422 3319 
L 934 3319 
L 934 2888 
Q 1116 3141 1344 3267 
Q 1572 3394 1897 3394 
Q 2322 3394 2647 3175 
Q 2972 2956 3137 2557 
Q 3303 2159 3303 1684 
Q 3303 1175 3120 767 
Q 2938 359 2589 142 
Q 2241 -75 1856 -75 
Q 1575 -75 1351 44 
Q 1128 163 984 344 
L 984 -1272 
L 422 -1272 
z
M 931 1641 
Q 931 1000 1190 694 
Q 1450 388 1819 388 
Q 2194 388 2461 705 
Q 2728 1022 2728 1688 
Q 2728 2322 2467 2637 
Q 2206 2953 1844 2953 
Q 1484 2953 1207 2617 
Q 931 2281 931 1641 
z
" id="ArialMT-70" transform="scale(0.015625)"/>
       <path d="M 2575 0 
L 2575 419 
Q 2259 -75 1647 -75 
Q 1250 -75 917 144 
Q 584 363 401 755 
Q 219 1147 219 1656 
Q 219 2153 384 2558 
Q 550 2963 881 3178 
Q 1213 3394 1622 3394 
Q 1922 3394 2156 3267 
Q 2391 3141 2538 2938 
L 2538 4581 
L 3097 4581 
L 3097 0 
L 2575 0 
z
M 797 1656 
Q 797 1019 1065 703 
Q 1334 388 1700 388 
Q 2069 388 2326 689 
Q 2584 991 2584 1609 
Q 2584 2291 2321 2609 
Q 2059 2928 1675 2928 
Q 1300 2928 1048 2622 
Q 797 2316 797 1656 
z
" id="ArialMT-64" transform="scale(0.015625)"/>
       <path d="M -97 -1272 
L -97 -866 
L 3631 -866 
L 3631 -1272 
L -97 -1272 
z
" id="ArialMT-5f" transform="scale(0.015625)"/>
       <path d="M 269 1209 
L 831 1284 
Q 928 806 1161 595 
Q 1394 384 1728 384 
Q 2125 384 2398 659 
Q 2672 934 2672 1341 
Q 2672 1728 2419 1979 
Q 2166 2231 1775 2231 
Q 1616 2231 1378 2169 
L 1441 2663 
Q 1497 2656 1531 2656 
Q 1891 2656 2178 2843 
Q 2466 3031 2466 3422 
Q 2466 3731 2256 3934 
Q 2047 4138 1716 4138 
Q 1388 4138 1169 3931 
Q 950 3725 888 3313 
L 325 3413 
Q 428 3978 793 4289 
Q 1159 4600 1703 4600 
Q 2078 4600 2393 4439 
Q 2709 4278 2876 4000 
Q 3044 3722 3044 3409 
Q 3044 3113 2884 2869 
Q 2725 2625 2413 2481 
Q 2819 2388 3044 2092 
Q 3269 1797 3269 1353 
Q 3269 753 2831 336 
Q 2394 -81 1725 -81 
Q 1122 -81 723 278 
Q 325 638 269 1209 
z
" id="ArialMT-33" transform="scale(0.015625)"/>
      </defs>
      <use xlink:href="#ArialMT-73"/>
      <use x="50" xlink:href="#ArialMT-70"/>
      <use x="105.615234" xlink:href="#ArialMT-6c"/>
      <use x="127.832031" xlink:href="#ArialMT-69"/>
      <use x="150.048828" xlink:href="#ArialMT-74"/>
      <use x="177.832031" xlink:href="#ArialMT-74"/>
      <use x="205.615234" xlink:href="#ArialMT-65"/>
      <use x="261.230469" xlink:href="#ArialMT-64"/>
      <use x="316.845703" xlink:href="#ArialMT-5f"/>
      <use x="372.460938" xlink:href="#ArialMT-33"/>
      <use x="428.076172" xlink:href="#ArialMT-73"/>
     </g>
    </g>
    <g id="line2d_15">
     <path d="M 115.2 116.6903 
L 137.2 116.6903 
" style="fill:none;stroke:#55a868;stroke-dasharray:1.5,1.5;stroke-dashoffset:0;stroke-width:1.5;"/>
    </g>
    <g id="line2d_16"/>
    <g id="text_19">
     <!-- splitted_1s -->
     <g style="fill:#262626;" transform="translate(146 120.5403)scale(0.11 -0.11)">
      <use xlink:href="#ArialMT-73"/>
      <use x="50" xlink:href="#ArialMT-70"/>
      <use x="105.615234" xlink:href="#ArialMT-6c"/>
      <use x="127.832031" xlink:href="#ArialMT-69"/>
      <use x="150.048828" xlink:href="#ArialMT-74"/>
      <use x="177.832031" xlink:href="#ArialMT-74"/>
      <use x="205.615234" xlink:href="#ArialMT-65"/>
      <use x="261.230469" xlink:href="#ArialMT-64"/>
      <use x="316.845703" xlink:href="#ArialMT-5f"/>
      <use x="372.460938" xlink:href="#ArialMT-31"/>
      <use x="428.076172" xlink:href="#ArialMT-73"/>
     </g>
    </g>
    <g id="line2d_17">
     <path d="M 115.2 132.384206 
L 137.2 132.384206 
" style="fill:none;stroke:#c44e52;stroke-dasharray:4.5,1.875,2.25,1.875;stroke-dashoffset:0;stroke-width:1.5;"/>
    </g>
    <g id="line2d_18"/>
    <g id="text_20">
     <!-- overlap_1f_3s -->
     <g style="fill:#262626;" transform="translate(146 136.234206)scale(0.11 -0.11)">
      <use xlink:href="#ArialMT-6f"/>
      <use x="55.615234" xlink:href="#ArialMT-76"/>
      <use x="105.615234" xlink:href="#ArialMT-65"/>
      <use x="161.230469" xlink:href="#ArialMT-72"/>
      <use x="194.53125" xlink:href="#ArialMT-6c"/>
      <use x="216.748047" xlink:href="#ArialMT-61"/>
      <use x="272.363281" xlink:href="#ArialMT-70"/>
      <use x="327.978516" xlink:href="#ArialMT-5f"/>
      <use x="383.59375" xlink:href="#ArialMT-31"/>
      <use x="439.208984" xlink:href="#ArialMT-66"/>
      <use x="466.992188" xlink:href="#ArialMT-5f"/>
      <use x="522.607422" xlink:href="#ArialMT-33"/>
      <use x="578.222656" xlink:href="#ArialMT-73"/>
     </g>
    </g>
    <g id="line2d_19">
     <path d="M 115.2 148.078113 
L 137.2 148.078113 
" style="fill:none;stroke:#8172b3;stroke-dasharray:7.5,1.5,1.5,1.5;stroke-dashoffset:0;stroke-width:1.5;"/>
    </g>
    <g id="line2d_20"/>
    <g id="text_21">
     <!-- overlap_10f_3s -->
     <g style="fill:#262626;" transform="translate(146 151.928112)scale(0.11 -0.11)">
      <use xlink:href="#ArialMT-6f"/>
      <use x="55.615234" xlink:href="#ArialMT-76"/>
      <use x="105.615234" xlink:href="#ArialMT-65"/>
      <use x="161.230469" xlink:href="#ArialMT-72"/>
      <use x="194.53125" xlink:href="#ArialMT-6c"/>
      <use x="216.748047" xlink:href="#ArialMT-61"/>
      <use x="272.363281" xlink:href="#ArialMT-70"/>
      <use x="327.978516" xlink:href="#ArialMT-5f"/>
      <use x="383.59375" xlink:href="#ArialMT-31"/>
      <use x="439.208984" xlink:href="#ArialMT-30"/>
      <use x="494.824219" xlink:href="#ArialMT-66"/>
      <use x="522.607422" xlink:href="#ArialMT-5f"/>
      <use x="578.222656" xlink:href="#ArialMT-33"/>
      <use x="633.837891" xlink:href="#ArialMT-73"/>
     </g>
    </g>
   </g>
  </g>
 </g>
 <defs>
  <clipPath id="p64aa10c451">
   <rect height="458.4888" width="652.86" x="105.3" y="71.4528"/>
  </clipPath>
 </defs>
</svg>
