<?xml version="1.0" encoding="utf-8" standalone="no"?>
<!DOCTYPE svg PUBLIC "-//W3C//DTD SVG 1.1//EN"
  "http://www.w3.org/Graphics/SVG/1.1/DTD/svg11.dtd">
<svg height="595.44pt" version="1.1" viewBox="0 0 842.4 595.44" width="842.4pt" xmlns="http://www.w3.org/2000/svg" xmlns:xlink="http://www.w3.org/1999/xlink">
 <metadata>
  <rdf:RDF xmlns:cc="http://creativecommons.org/ns#" xmlns:dc="http://purl.org/dc/elements/1.1/" xmlns:rdf="http://www.w3.org/1999/02/22-rdf-syntax-ns#">
   <cc:Work>
    <dc:type rdf:resource="http://purl.org/dc/dcmitype/StillImage"/>
    <dc:date>2021-06-04T22:03:12.196209</dc:date>
    <dc:format>image/svg+xml</dc:format>
    <dc:creator>
     <cc:Agent>
      <dc:title>Matplotlib v3.4.1, https://matplotlib.org/</dc:title>
     </cc:Agent>
    </dc:creator>
   </cc:Work>
  </rdf:RDF>
 </metadata>
 <defs>
  <style type="text/css">*{stroke-linecap:butt;stroke-linejoin:round;}</style>
 </defs>
 <g id="figure_1">
  <g id="patch_1">
   <path d="M 0 595.44 
L 842.4 595.44 
L 842.4 0 
L 0 0 
z
" style="fill:#ffffff;"/>
  </g>
  <g id="axes_1">
   <g id="patch_2">
    <path d="M 105.3 529.9416 
L 758.16 529.9416 
L 758.16 71.4528 
L 105.3 71.4528 
z
" style="fill:#ffffff;"/>
   </g>
   <g id="matplotlib.axis_1">
    <g id="xtick_1">
     <g id="text_1">
      <!-- 0 -->
      <g style="fill:#262626;" transform="translate(131.916939 547.315194)scale(0.11 -0.11)">
       <defs>
        <path d="M 266 2259 
Q 266 3072 433 3567 
Q 600 4063 929 4331 
Q 1259 4600 1759 4600 
Q 2128 4600 2406 4451 
Q 2684 4303 2865 4023 
Q 3047 3744 3150 3342 
Q 3253 2941 3253 2259 
Q 3253 1453 3087 958 
Q 2922 463 2592 192 
Q 2263 -78 1759 -78 
Q 1097 -78 719 397 
Q 266 969 266 2259 
z
M 844 2259 
Q 844 1131 1108 757 
Q 1372 384 1759 384 
Q 2147 384 2411 759 
Q 2675 1134 2675 2259 
Q 2675 3391 2411 3762 
Q 2147 4134 1753 4134 
Q 1366 4134 1134 3806 
Q 844 3388 844 2259 
z
" id="ArialMT-30" transform="scale(0.015625)"/>
       </defs>
       <use xlink:href="#ArialMT-30"/>
      </g>
     </g>
    </g>
    <g id="xtick_2">
     <g id="text_2">
      <!-- 25 -->
      <g style="fill:#262626;" transform="translate(201.950676 547.315194)scale(0.11 -0.11)">
       <defs>
        <path d="M 3222 541 
L 3222 0 
L 194 0 
Q 188 203 259 391 
Q 375 700 629 1000 
Q 884 1300 1366 1694 
Q 2113 2306 2375 2664 
Q 2638 3022 2638 3341 
Q 2638 3675 2398 3904 
Q 2159 4134 1775 4134 
Q 1369 4134 1125 3890 
Q 881 3647 878 3216 
L 300 3275 
Q 359 3922 746 4261 
Q 1134 4600 1788 4600 
Q 2447 4600 2831 4234 
Q 3216 3869 3216 3328 
Q 3216 3053 3103 2787 
Q 2991 2522 2730 2228 
Q 2469 1934 1863 1422 
Q 1356 997 1212 845 
Q 1069 694 975 541 
L 3222 541 
z
" id="ArialMT-32" transform="scale(0.015625)"/>
        <path d="M 266 1200 
L 856 1250 
Q 922 819 1161 601 
Q 1400 384 1738 384 
Q 2144 384 2425 690 
Q 2706 997 2706 1503 
Q 2706 1984 2436 2262 
Q 2166 2541 1728 2541 
Q 1456 2541 1237 2417 
Q 1019 2294 894 2097 
L 366 2166 
L 809 4519 
L 3088 4519 
L 3088 3981 
L 1259 3981 
L 1013 2750 
Q 1425 3038 1878 3038 
Q 2478 3038 2890 2622 
Q 3303 2206 3303 1553 
Q 3303 931 2941 478 
Q 2500 -78 1738 -78 
Q 1113 -78 717 272 
Q 322 622 266 1200 
z
" id="ArialMT-35" transform="scale(0.015625)"/>
       </defs>
       <use xlink:href="#ArialMT-32"/>
       <use x="55.615234" xlink:href="#ArialMT-35"/>
      </g>
     </g>
    </g>
    <g id="xtick_3">
     <g id="text_3">
      <!-- 50 -->
      <g style="fill:#262626;" transform="translate(275.042928 547.315194)scale(0.11 -0.11)">
       <use xlink:href="#ArialMT-35"/>
       <use x="55.615234" xlink:href="#ArialMT-30"/>
      </g>
     </g>
    </g>
    <g id="xtick_4">
     <g id="text_4">
      <!-- 75 -->
      <g style="fill:#262626;" transform="translate(348.135181 547.315194)scale(0.11 -0.11)">
       <defs>
        <path d="M 303 3981 
L 303 4522 
L 3269 4522 
L 3269 4084 
Q 2831 3619 2401 2847 
Q 1972 2075 1738 1259 
Q 1569 684 1522 0 
L 944 0 
Q 953 541 1156 1306 
Q 1359 2072 1739 2783 
Q 2119 3494 2547 3981 
L 303 3981 
z
" id="ArialMT-37" transform="scale(0.015625)"/>
       </defs>
       <use xlink:href="#ArialMT-37"/>
       <use x="55.615234" xlink:href="#ArialMT-35"/>
      </g>
     </g>
    </g>
    <g id="xtick_5">
     <g id="text_5">
      <!-- 100 -->
      <g style="fill:#262626;" transform="translate(418.168918 547.315194)scale(0.11 -0.11)">
       <defs>
        <path d="M 2384 0 
L 1822 0 
L 1822 3584 
Q 1619 3391 1289 3197 
Q 959 3003 697 2906 
L 697 3450 
Q 1169 3672 1522 3987 
Q 1875 4303 2022 4600 
L 2384 4600 
L 2384 0 
z
" id="ArialMT-31" transform="scale(0.015625)"/>
       </defs>
       <use xlink:href="#ArialMT-31"/>
       <use x="55.615234" xlink:href="#ArialMT-30"/>
       <use x="111.230469" xlink:href="#ArialMT-30"/>
      </g>
     </g>
    </g>
    <g id="xtick_6">
     <g id="text_6">
      <!-- 125 -->
      <g style="fill:#262626;" transform="translate(491.261171 547.315194)scale(0.11 -0.11)">
       <use xlink:href="#ArialMT-31"/>
       <use x="55.615234" xlink:href="#ArialMT-32"/>
       <use x="111.230469" xlink:href="#ArialMT-35"/>
      </g>
     </g>
    </g>
    <g id="xtick_7">
     <g id="text_7">
      <!-- 150 -->
      <g style="fill:#262626;" transform="translate(564.353423 547.315194)scale(0.11 -0.11)">
       <use xlink:href="#ArialMT-31"/>
       <use x="55.615234" xlink:href="#ArialMT-35"/>
       <use x="111.230469" xlink:href="#ArialMT-30"/>
      </g>
     </g>
    </g>
    <g id="xtick_8">
     <g id="text_8">
      <!-- 175 -->
      <g style="fill:#262626;" transform="translate(637.445676 547.315194)scale(0.11 -0.11)">
       <use xlink:href="#ArialMT-31"/>
       <use x="55.615234" xlink:href="#ArialMT-37"/>
       <use x="111.230469" xlink:href="#ArialMT-35"/>
      </g>
     </g>
    </g>
    <g id="xtick_9">
     <g id="text_9">
      <!-- 200 -->
      <g style="fill:#262626;" transform="translate(710.537928 547.315194)scale(0.11 -0.11)">
       <use xlink:href="#ArialMT-32"/>
       <use x="55.615234" xlink:href="#ArialMT-30"/>
       <use x="111.230469" xlink:href="#ArialMT-30"/>
      </g>
     </g>
    </g>
   </g>
   <g id="matplotlib.axis_2">
    <g id="ytick_1">
     <g id="text_10">
      <!-- −25 -->
      <g style="fill:#262626;" transform="translate(77.14125 533.878397)scale(0.11 -0.11)">
       <defs>
        <path d="M 3381 1997 
L 356 1997 
L 356 2522 
L 3381 2522 
L 3381 1997 
z
" id="ArialMT-2212" transform="scale(0.015625)"/>
       </defs>
       <use xlink:href="#ArialMT-2212"/>
       <use x="58.398438" xlink:href="#ArialMT-32"/>
       <use x="114.013672" xlink:href="#ArialMT-35"/>
      </g>
     </g>
    </g>
    <g id="ytick_2">
     <g id="text_11">
      <!-- −20 -->
      <g style="fill:#262626;" transform="translate(77.14125 442.180637)scale(0.11 -0.11)">
       <use xlink:href="#ArialMT-2212"/>
       <use x="58.398438" xlink:href="#ArialMT-32"/>
       <use x="114.013672" xlink:href="#ArialMT-30"/>
      </g>
     </g>
    </g>
    <g id="ytick_3">
     <g id="text_12">
      <!-- −15 -->
      <g style="fill:#262626;" transform="translate(77.14125 350.482877)scale(0.11 -0.11)">
       <use xlink:href="#ArialMT-2212"/>
       <use x="58.398438" xlink:href="#ArialMT-31"/>
       <use x="114.013672" xlink:href="#ArialMT-35"/>
      </g>
     </g>
    </g>
    <g id="ytick_4">
     <g id="text_13">
      <!-- −10 -->
      <g style="fill:#262626;" transform="translate(77.14125 258.785117)scale(0.11 -0.11)">
       <use xlink:href="#ArialMT-2212"/>
       <use x="58.398438" xlink:href="#ArialMT-31"/>
       <use x="114.013672" xlink:href="#ArialMT-30"/>
      </g>
     </g>
    </g>
    <g id="ytick_5">
     <g id="text_14">
      <!-- −5 -->
      <g style="fill:#262626;" transform="translate(83.258281 167.087357)scale(0.11 -0.11)">
       <use xlink:href="#ArialMT-2212"/>
       <use x="58.398438" xlink:href="#ArialMT-35"/>
      </g>
     </g>
    </g>
    <g id="ytick_6">
     <g id="text_15">
      <!-- 0 -->
      <g style="fill:#262626;" transform="translate(89.682969 75.389597)scale(0.11 -0.11)">
       <use xlink:href="#ArialMT-30"/>
      </g>
     </g>
    </g>
   </g>
   <g id="line2d_1">
    <path clip-path="url(#p27270229a0)" d="M 134.975455 356.802577 
L 137.899145 354.407065 
L 140.822835 354.54221 
L 143.746525 353.552296 
L 146.670215 359.753028 
L 149.593905 356.931985 
L 152.517595 357.465394 
L 155.441285 361.525006 
L 158.364975 362.199069 
L 161.288665 358.356717 
L 164.212356 356.995614 
L 167.136046 355.782388 
L 170.059736 367.491391 
L 175.907116 384.952702 
L 178.830806 409.590809 
L 181.754496 438.347625 
L 184.678186 354.357446 
L 187.601876 350.030797 
L 190.525567 476.756766 
L 196.372947 430.468294 
L 199.296637 466.325579 
L 202.220327 299.34283 
L 205.144017 272.357326 
L 208.067707 439.990912 
L 210.991397 333.013976 
L 213.915087 320.898821 
L 216.838777 343.37529 
L 219.762468 400.635704 
L 222.686158 316.226465 
L 225.609848 196.402926 
L 228.533538 71.453132 
L 231.457228 318.002308 
L 234.380918 321.499146 
L 237.304608 425.113952 
L 240.228298 448.012227 
L 243.151988 459.973996 
L 246.075678 323.987477 
L 248.999369 315.153351 
L 251.923059 409.469393 
L 254.846749 390.484112 
L 257.770439 431.305643 
L 260.694129 345.976047 
L 263.617819 424.768631 
L 266.541509 333.477687 
L 269.465199 347.321287 
L 272.388889 397.142085 
L 275.312579 402.522626 
L 278.23627 405.127651 
L 281.15996 387.990918 
L 284.08365 341.926859 
L 287.00734 346.331146 
L 289.93103 389.743657 
L 292.85472 342.941976 
L 295.77841 365.035661 
L 298.7021 423.863875 
L 301.62579 394.166868 
L 304.549481 396.45431 
L 307.473171 383.222875 
L 310.396861 363.665148 
L 313.320551 341.72987 
L 316.244241 377.209302 
L 319.167931 274.761444 
L 322.091621 392.792367 
L 325.015311 372.261708 
L 327.939001 393.682396 
L 330.862691 401.074143 
L 333.786382 379.677276 
L 336.710072 334.29174 
L 339.633762 246.001374 
L 342.557452 71.452887 
L 345.481142 307.73941 
L 348.404832 332.794862 
L 351.328522 320.633638 
L 354.252212 343.046112 
L 357.175902 345.998102 
L 360.099592 294.878255 
L 363.023283 427.625091 
L 365.946973 370.56777 
L 368.870663 399.38101 
L 371.794353 478.764264 
L 374.718043 482.756767 
L 377.641733 466.157921 
L 380.565423 417.424666 
L 383.489113 365.743584 
L 386.412803 279.181279 
L 389.336494 321.525154 
L 392.260184 368.159508 
L 395.183874 441.566897 
L 398.107564 416.662874 
L 401.031254 418.498235 
L 403.954944 421.333812 
L 406.878634 445.883035 
L 409.802324 369.446174 
L 412.726014 334.254154 
L 415.649704 371.939892 
L 418.573395 366.733236 
L 421.497085 450.117249 
L 424.420775 523.81931 
L 427.344465 454.47935 
L 430.268155 465.354992 
L 433.191845 418.121746 
L 436.115535 287.529237 
L 439.039225 348.29233 
L 441.962915 431.664502 
L 444.886605 422.094241 
L 447.810296 312.366833 
L 450.733986 287.430418 
L 453.657676 425.127839 
L 456.581366 335.346961 
L 459.505056 406.666068 
L 462.428746 276.563364 
L 465.352436 300.795494 
L 468.276126 212.841564 
L 471.199816 71.55608 
L 474.123506 157.777662 
L 477.047197 71.458958 
L 479.970887 183.940289 
L 482.894577 421.066601 
L 485.818267 405.749908 
L 488.741957 409.489157 
L 491.665647 338.413861 
L 494.589337 306.449193 
L 497.513027 398.631075 
L 500.436717 334.708508 
L 503.360408 295.346864 
L 506.284098 407.018385 
L 509.207788 443.595348 
L 512.131478 476.791152 
L 515.055168 490.028323 
L 517.978858 423.707025 
L 520.902548 462.933821 
L 523.826238 465.304516 
L 526.749928 403.077058 
L 529.673618 417.842642 
L 532.597309 429.605934 
L 535.520999 394.353521 
L 538.444689 337.583525 
L 541.368379 380.351199 
L 544.292069 427.002658 
L 547.215759 366.586391 
L 550.139449 402.783576 
L 553.063139 285.351859 
L 555.986829 403.186755 
L 558.910519 410.915078 
L 561.83421 406.038353 
L 564.7579 324.902884 
L 567.68159 294.20916 
L 570.60528 365.168445 
L 573.52897 396.964772 
L 576.45266 420.712149 
L 579.37635 452.127265 
L 582.30004 437.696824 
L 585.22373 364.656793 
L 588.147421 341.102802 
L 591.071111 321.253604 
L 593.994801 339.67319 
L 596.918491 243.315336 
L 599.842181 223.348903 
L 602.765871 357.604859 
L 605.689561 316.975648 
L 608.613251 346.624208 
L 611.536941 470.813048 
L 614.460631 447.509356 
L 617.384322 269.282084 
L 620.308012 311.883271 
L 623.231702 374.476461 
L 626.155392 445.910389 
L 629.079082 432.284486 
L 632.002772 383.706997 
L 634.926462 362.874374 
L 637.850152 395.96564 
L 640.773842 337.236209 
L 643.697532 218.5679 
L 646.621223 226.556596 
L 649.544913 356.136892 
L 652.468603 517.479619 
L 655.392293 486.003743 
L 658.315983 435.327599 
L 661.239673 499.407803 
L 664.163363 400.620523 
L 667.087053 438.979083 
L 670.010743 432.463303 
L 672.934433 381.763023 
L 675.858124 404.081926 
L 678.781814 343.072696 
L 681.705504 447.655537 
L 684.629194 482.399272 
L 687.552884 433.193999 
L 690.476574 501.019153 
L 693.400264 426.632431 
L 696.323954 423.240043 
L 699.247644 403.937424 
L 702.171335 392.11666 
L 705.095025 385.837414 
L 708.018715 382.850619 
L 710.942405 384.33779 
L 713.866095 380.81136 
L 716.789785 378.467355 
L 719.713475 380.501612 
L 722.637165 380.726533 
L 725.560855 384.304035 
L 728.484545 384.516853 
L 728.484545 384.516853 
" style="fill:none;stroke:#4c72b0;stroke-linecap:round;stroke-width:1.5;"/>
   </g>
   <g id="line2d_2">
    <path clip-path="url(#p27270229a0)" d="M 134.975455 356.877189 
L 137.899145 357.209289 
L 140.822835 357.117869 
L 143.746525 355.816826 
L 146.670215 362.039526 
L 149.593905 359.569087 
L 152.517595 357.370004 
L 155.441285 357.803405 
L 158.364975 356.684537 
L 161.288665 350.370854 
L 164.212356 346.371688 
L 167.136046 341.775361 
L 170.059736 353.428397 
L 172.983426 357.720398 
L 175.907116 371.961195 
L 178.830806 400.032371 
L 181.754496 419.63099 
L 184.678186 341.018693 
L 187.601876 310.333696 
L 190.525567 461.628301 
L 193.449257 431.644528 
L 196.372947 408.314496 
L 199.296637 433.616521 
L 202.220327 310.75258 
L 205.144017 287.873981 
L 208.067707 430.234418 
L 210.991397 347.871854 
L 213.915087 291.984087 
L 216.838777 351.403444 
L 219.762468 403.227786 
L 222.686158 314.01068 
L 225.609848 169.525747 
L 228.533538 71.454857 
L 231.457228 281.870832 
L 234.380918 276.690097 
L 237.304608 384.265452 
L 240.228298 417.743683 
L 243.151988 431.959068 
L 246.075678 320.646196 
L 248.999369 328.619676 
L 251.923059 399.494974 
L 254.846749 383.775348 
L 257.770439 431.656212 
L 260.694129 351.706423 
L 263.617819 425.111714 
L 266.541509 338.566793 
L 269.465199 339.689264 
L 272.388889 405.890563 
L 275.312579 417.111246 
L 278.23627 414.46575 
L 281.15996 408.652542 
L 284.08365 346.259717 
L 287.00734 351.535406 
L 289.93103 406.209929 
L 292.85472 358.434338 
L 295.77841 346.686437 
L 298.7021 421.342732 
L 301.62579 394.357998 
L 304.549481 409.897303 
L 307.473171 421.283756 
L 310.396861 362.928401 
L 313.320551 336.365297 
L 316.244241 393.244622 
L 319.167931 278.992737 
L 322.091621 378.037557 
L 325.015311 373.349688 
L 327.939001 412.087151 
L 330.862691 399.49396 
L 333.786382 367.65884 
L 336.710072 372.746704 
L 339.633762 273.724586 
L 342.557452 71.452997 
L 345.481142 275.692976 
L 348.404832 332.597295 
L 351.328522 431.745445 
L 354.252212 348.653813 
L 357.175902 286.830898 
L 360.099592 255.042144 
L 363.023283 267.991133 
L 365.946973 287.236577 
L 368.870663 277.987152 
L 371.794353 338.466663 
L 374.718043 352.051185 
L 377.641733 349.188253 
L 380.565423 380.891813 
L 383.489113 321.359664 
L 386.412803 308.356316 
L 389.336494 312.032303 
L 392.260184 341.983317 
L 395.183874 412.644241 
L 398.107564 374.996858 
L 401.031254 396.272134 
L 403.954944 427.258746 
L 406.878634 395.82663 
L 409.802324 349.566806 
L 412.726014 348.506267 
L 415.649704 366.144629 
L 418.573395 353.607127 
L 421.497085 440.740672 
L 424.420775 485.379142 
L 427.344465 405.144651 
L 430.268155 418.997154 
L 433.191845 383.800289 
L 436.115535 279.357875 
L 439.039225 350.388554 
L 441.962915 431.253243 
L 444.886605 366.30872 
L 447.810296 289.411261 
L 450.733986 315.470147 
L 453.657676 428.418295 
L 456.581366 353.724257 
L 459.505056 400.572251 
L 462.428746 267.434707 
L 465.352436 304.141253 
L 468.276126 198.146903 
L 471.199816 71.532209 
L 474.123506 117.285121 
L 477.047197 71.459419 
L 479.970887 140.169383 
L 482.894577 395.34681 
L 485.818267 414.182203 
L 488.741957 430.006839 
L 494.589337 325.0459 
L 497.513027 396.81093 
L 500.436717 341.067787 
L 503.360408 310.703136 
L 506.284098 426.044733 
L 509.207788 441.363174 
L 512.131478 462.497657 
L 515.055168 492.473524 
L 517.978858 429.516525 
L 520.902548 461.635017 
L 523.826238 461.103707 
L 526.749928 403.960091 
L 529.673618 415.786522 
L 532.597309 409.763714 
L 535.520999 391.165556 
L 538.444689 332.873916 
L 541.368379 340.02605 
L 544.292069 419.963649 
L 547.215759 347.409524 
L 550.139449 381.800522 
L 553.063139 275.021152 
L 555.986829 311.827653 
L 558.910519 286.713732 
L 561.83421 242.021831 
L 564.7579 257.143947 
L 567.68159 245.71167 
L 570.60528 410.129359 
L 573.52897 204.195377 
L 576.45266 272.047579 
L 579.37635 325.629732 
L 582.30004 257.119549 
L 585.22373 304.139994 
L 588.147421 292.114877 
L 591.071111 319.880083 
L 593.994801 343.171934 
L 596.918491 254.304715 
L 599.842181 250.43723 
L 602.765871 340.451179 
L 605.689561 334.227657 
L 608.613251 389.143996 
L 611.536941 466.153443 
L 614.460631 404.637232 
L 617.384322 286.483267 
L 620.308012 319.826196 
L 623.231702 395.306339 
L 626.155392 466.545603 
L 629.079082 431.041684 
L 634.926462 362.443946 
L 637.850152 363.114948 
L 640.773842 333.509466 
L 643.697532 168.027382 
L 646.621223 213.388528 
L 649.544913 367.079433 
L 652.468603 505.931803 
L 655.392293 490.108182 
L 658.315983 409.915807 
L 661.239673 490.383334 
L 664.163363 374.690538 
L 667.087053 433.379462 
L 670.010743 427.579687 
L 672.934433 371.675689 
L 675.858124 395.128641 
L 678.781814 362.687616 
L 681.705504 447.7206 
L 684.629194 482.553848 
L 687.552884 425.682691 
L 690.476574 478.425938 
L 693.400264 430.432614 
L 696.323954 425.50209 
L 699.247644 401.092997 
L 702.171335 379.082477 
L 705.095025 374.171017 
L 708.018715 371.303818 
L 710.942405 371.366362 
L 713.866095 364.573769 
L 716.789785 364.731353 
L 719.713475 366.773988 
L 722.637165 365.097925 
L 725.560855 369.123729 
L 728.484545 363.901909 
L 728.484545 363.901909 
" style="fill:none;stroke:#dd8452;stroke-dasharray:6,2.25;stroke-dashoffset:0;stroke-width:1.5;"/>
   </g>
   <g id="line2d_3">
    <path clip-path="url(#p27270229a0)" d="M 134.975455 348.666108 
L 137.899145 348.883386 
L 140.822835 348.767585 
L 143.746525 346.093247 
L 146.670215 357.466479 
L 149.593905 355.309599 
L 152.517595 354.827733 
L 155.441285 382.059023 
L 158.364975 384.096954 
L 161.288665 369.640382 
L 164.212356 370.450972 
L 167.136046 358.933344 
L 170.059736 359.328477 
L 172.983426 367.707672 
L 175.907116 383.775803 
L 178.830806 404.468629 
L 181.754496 424.071026 
L 184.678186 313.092562 
L 187.601876 275.83475 
L 190.525567 293.65945 
L 193.449257 346.499976 
L 196.372947 354.780231 
L 199.296637 389.596916 
L 202.220327 387.859778 
L 205.144017 309.714534 
L 208.067707 304.31115 
L 210.991397 346.43229 
L 213.915087 352.871394 
L 216.838777 333.21497 
L 219.762468 323.159415 
L 222.686158 215.461525 
L 225.609848 90.618387 
L 228.533538 71.466662 
L 231.457228 259.063977 
L 234.380918 272.761484 
L 237.304608 384.038537 
L 240.228298 421.53848 
L 243.151988 439.471215 
L 246.075678 276.115604 
L 248.999369 316.041037 
L 251.923059 339.829183 
L 254.846749 414.703718 
L 257.770439 461.819081 
L 260.694129 355.572718 
L 263.617819 437.184788 
L 266.541509 334.033833 
L 269.465199 361.482208 
L 272.388889 371.807703 
L 275.312579 355.652595 
L 278.23627 380.242901 
L 281.15996 340.73693 
L 284.08365 329.014687 
L 287.00734 211.022582 
L 289.93103 285.218358 
L 292.85472 278.885856 
L 295.77841 364.704978 
L 298.7021 456.661817 
L 301.62579 450.466244 
L 304.549481 444.649992 
L 307.473171 451.946139 
L 310.396861 389.489878 
L 313.320551 355.142553 
L 316.244241 423.657738 
L 319.167931 314.855725 
L 322.091621 421.951173 
L 325.015311 393.39703 
L 327.939001 405.752672 
L 330.862691 411.716433 
L 333.786382 371.519259 
L 336.710072 385.111966 
L 339.633762 276.304408 
L 342.557452 71.452824 
L 345.481142 279.533911 
L 348.404832 383.125946 
L 351.328522 401.440522 
L 354.252212 364.454504 
L 357.175902 367.704629 
L 360.099592 291.461242 
L 363.023283 196.698786 
L 365.946973 210.961219 
L 368.870663 258.748721 
L 371.794353 268.727862 
L 374.718043 342.847636 
L 377.641733 351.065206 
L 380.565423 321.91957 
L 383.489113 280.621087 
L 386.412803 296.786987 
L 389.336494 288.048391 
L 392.260184 323.041288 
L 395.183874 370.364677 
L 398.107564 415.28428 
L 401.031254 385.497305 
L 403.954944 430.725046 
L 406.878634 434.806188 
L 409.802324 412.150919 
L 412.726014 330.906068 
L 415.649704 373.335276 
L 418.573395 382.319344 
L 421.497085 441.278313 
L 424.420775 476.235391 
L 427.344465 383.102649 
L 430.268155 375.582631 
L 433.191845 258.772542 
L 436.115535 182.108828 
L 439.039225 289.037536 
L 441.962915 339.638805 
L 444.886605 348.871615 
L 447.810296 332.766195 
L 450.733986 311.717956 
L 453.657676 359.82479 
L 456.581366 332.600093 
L 459.505056 401.687201 
L 462.428746 247.582169 
L 465.352436 306.303956 
L 468.276126 206.264491 
L 471.199816 74.687968 
L 474.123506 77.705034 
L 477.047197 71.469211 
L 479.970887 147.892153 
L 482.894577 356.933717 
L 485.818267 387.44831 
L 488.741957 416.351028 
L 491.665647 362.119193 
L 494.589337 319.36182 
L 497.513027 388.252953 
L 500.436717 324.256158 
L 503.360408 330.931569 
L 506.284098 338.710298 
L 509.207788 399.884511 
L 512.131478 368.435324 
L 515.055168 303.346841 
L 517.978858 315.667853 
L 520.902548 316.894284 
L 523.826238 369.377019 
L 526.749928 417.297095 
L 529.673618 388.758587 
L 532.597309 349.69861 
L 535.520999 377.811727 
L 538.444689 308.190808 
L 541.368379 334.797462 
L 544.292069 413.787419 
L 547.215759 300.505877 
L 550.139449 303.711944 
L 553.063139 254.797109 
L 555.986829 272.326229 
L 558.910519 307.781106 
L 561.83421 224.980576 
L 564.7579 174.417312 
L 567.68159 196.955023 
L 570.60528 337.700708 
L 573.52897 369.110262 
L 576.45266 449.561943 
L 579.37635 427.292082 
L 582.30004 375.302512 
L 585.22373 406.132274 
L 588.147421 324.247098 
L 591.071111 154.244025 
L 593.994801 199.370054 
L 596.918491 161.315959 
L 599.842181 180.788266 
L 602.765871 253.105393 
L 605.689561 336.140988 
L 608.613251 366.282765 
L 611.536941 455.424227 
L 614.460631 413.354648 
L 617.384322 261.932401 
L 620.308012 301.189647 
L 623.231702 395.664008 
L 626.155392 441.667185 
L 629.079082 435.296502 
L 632.002772 427.479574 
L 634.926462 368.08556 
L 637.850152 349.545468 
L 640.773842 327.373639 
L 643.697532 224.357916 
L 646.621223 265.797612 
L 649.544913 364.406599 
L 652.468603 420.038086 
L 655.392293 492.292363 
L 658.315983 405.654658 
L 661.239673 362.244998 
L 664.163363 277.561114 
L 667.087053 348.495668 
L 670.010743 287.626446 
L 672.934433 295.075385 
L 675.858124 423.291953 
L 678.781814 389.577258 
L 681.705504 393.273481 
L 684.629194 436.948289 
L 687.552884 460.790147 
L 690.476574 422.266972 
L 693.400264 372.437587 
L 696.323954 400.325782 
L 699.247644 389.118041 
L 702.171335 369.046703 
L 705.095025 365.064449 
L 708.018715 364.211534 
L 710.942405 366.426427 
L 713.866095 358.635997 
L 716.789785 360.989306 
L 719.713475 360.423926 
L 722.637165 363.275139 
L 725.560855 363.747158 
L 728.484545 362.397108 
L 728.484545 362.397108 
" style="fill:none;stroke:#55a868;stroke-dasharray:1.5,1.5;stroke-dashoffset:0;stroke-width:1.5;"/>
   </g>
   <g id="line2d_4">
    <path clip-path="url(#p27270229a0)" d="M 134.975455 356.224901 
L 137.899145 356.45437 
L 140.822835 356.541347 
L 143.746525 355.196212 
L 146.670215 361.542269 
L 149.593905 359.129826 
L 152.517595 357.079391 
L 155.441285 357.861209 
L 158.364975 356.887666 
L 161.288665 350.654227 
L 164.212356 346.632253 
L 167.136046 342.136529 
L 170.059736 353.989737 
L 172.983426 358.245499 
L 175.907116 372.415165 
L 178.830806 400.818859 
L 181.754496 421.005911 
L 184.678186 342.210074 
L 187.601876 311.343338 
L 190.525567 462.690956 
L 193.449257 433.367499 
L 196.372947 408.47334 
L 199.296637 434.490495 
L 202.220327 309.971251 
L 205.144017 282.536658 
L 208.067707 432.775989 
L 210.991397 341.450887 
L 213.915087 306.105131 
L 216.838777 347.462851 
L 219.762468 403.339862 
L 222.686158 313.198044 
L 225.609848 166.272159 
L 228.533538 71.454619 
L 231.457228 287.369886 
L 234.380918 279.679393 
L 237.304608 389.39914 
L 240.228298 422.726188 
L 243.151988 436.149627 
L 246.075678 322.386394 
L 248.999369 327.684313 
L 251.923059 397.169089 
L 254.846749 381.490285 
L 257.770439 427.873308 
L 260.694129 348.908886 
L 263.617819 423.092358 
L 266.541509 331.610896 
L 269.465199 342.132978 
L 272.388889 405.732768 
L 275.312579 418.466194 
L 278.23627 418.041572 
L 281.15996 404.744026 
L 284.08365 346.208506 
L 287.00734 359.459057 
L 289.93103 407.263839 
L 292.85472 352.502146 
L 295.77841 346.584593 
L 298.7021 420.029516 
L 301.62579 395.520766 
L 304.549481 413.691155 
L 307.473171 422.297509 
L 310.396861 365.715461 
L 313.320551 334.847816 
L 316.244241 390.524724 
L 319.167931 274.335843 
L 322.091621 400.539684 
L 325.015311 374.524594 
L 327.939001 405.142552 
L 330.862691 413.251247 
L 333.786382 372.061693 
L 336.710072 380.117148 
L 339.633762 296.366721 
L 342.557452 71.452916 
L 348.404832 327.604559 
L 351.328522 391.729432 
L 354.252212 286.212732 
L 357.175902 327.17609 
L 360.099592 276.939748 
L 363.023283 414.018742 
L 365.946973 274.616959 
L 368.870663 291.660593 
L 371.794353 376.621325 
L 374.718043 390.435595 
L 377.641733 355.63834 
L 380.565423 380.985455 
L 383.489113 316.910148 
L 386.412803 313.602342 
L 389.336494 312.98199 
L 392.260184 341.491814 
L 395.183874 416.77432 
L 398.107564 382.198558 
L 401.031254 404.021726 
L 403.954944 424.685938 
L 406.878634 391.895657 
L 409.802324 352.535779 
L 412.726014 347.80882 
L 415.649704 365.476653 
L 418.573395 351.503644 
L 421.497085 443.085411 
L 424.420775 491.482928 
L 427.344465 412.243686 
L 430.268155 418.716125 
L 433.191845 381.887797 
L 436.115535 278.967342 
L 439.039225 350.027264 
L 441.962915 430.460808 
L 444.886605 363.188879 
L 447.810296 288.095072 
L 450.733986 307.200842 
L 453.657676 428.210445 
L 456.581366 350.118737 
L 459.505056 398.929419 
L 462.428746 261.190931 
L 465.352436 310.358881 
L 468.276126 205.046027 
L 471.199816 71.541839 
L 474.123506 119.336816 
L 477.047197 71.45745 
L 479.970887 136.897523 
L 482.894577 397.335734 
L 485.818267 414.811247 
L 488.741957 430.5187 
L 494.589337 329.713271 
L 497.513027 400.211958 
L 500.436717 342.331804 
L 503.360408 309.793833 
L 506.284098 419.763704 
L 509.207788 438.428009 
L 512.131478 458.771141 
L 515.055168 494.775028 
L 517.978858 422.603059 
L 520.902548 454.711826 
L 523.826238 458.473637 
L 526.749928 397.204629 
L 529.673618 406.183834 
L 532.597309 403.889676 
L 535.520999 389.377802 
L 538.444689 319.846485 
L 541.368379 323.317525 
L 544.292069 406.780837 
L 547.215759 320.536516 
L 550.139449 367.641595 
L 553.063139 237.52065 
L 555.986829 332.243438 
L 558.910519 354.476797 
L 561.83421 282.40564 
L 564.7579 284.544628 
L 567.68159 251.470082 
L 570.60528 343.811367 
L 573.52897 338.405833 
L 576.45266 365.747362 
L 579.37635 404.218977 
L 582.30004 332.424547 
L 585.22373 378.683216 
L 588.147421 307.005269 
L 591.071111 299.346328 
L 593.994801 362.159594 
L 596.918491 270.38264 
L 599.842181 255.469913 
L 602.765871 371.749182 
L 605.689561 331.869135 
L 608.613251 393.324167 
L 611.536941 472.330057 
L 614.460631 421.437423 
L 617.384322 291.646128 
L 620.308012 322.365721 
L 623.231702 398.794012 
L 626.155392 466.788364 
L 629.079082 433.892688 
L 632.002772 397.627256 
L 634.926462 366.908101 
L 637.850152 364.120639 
L 640.773842 336.740946 
L 643.697532 167.716708 
L 646.621223 215.679608 
L 649.544913 368.753642 
L 652.468603 508.830309 
L 655.392293 491.094336 
L 658.315983 410.613027 
L 661.239673 491.653105 
L 664.163363 375.321996 
L 667.087053 433.719222 
L 670.010743 429.86461 
L 672.934433 373.464212 
L 675.858124 394.803852 
L 678.781814 364.363347 
L 681.705504 447.453563 
L 684.629194 484.147673 
L 687.552884 428.084447 
L 690.476574 479.693855 
L 693.400264 431.98128 
L 696.323954 425.441959 
L 699.247644 403.312438 
L 702.171335 380.289529 
L 705.095025 376.074064 
L 708.018715 374.73073 
L 710.942405 375.996898 
L 713.866095 369.849388 
L 716.789785 369.080529 
L 719.713475 370.774222 
L 722.637165 370.172112 
L 725.560855 374.024975 
L 728.484545 369.967095 
L 728.484545 369.967095 
" style="fill:none;stroke:#c44e52;stroke-dasharray:4.5,1.875,2.25,1.875;stroke-dashoffset:0;stroke-width:1.5;"/>
   </g>
   <g id="line2d_5">
    <path clip-path="url(#p27270229a0)" d="M 134.975455 357.161296 
L 137.899145 357.162835 
L 140.822835 357.732431 
L 143.746525 356.389639 
L 146.670215 362.805883 
L 149.593905 361.169155 
L 152.517595 359.863093 
L 155.441285 361.575972 
L 158.364975 360.880606 
L 161.288665 355.358449 
L 164.212356 350.34873 
L 167.136046 346.291409 
L 170.059736 354.506705 
L 172.983426 359.408476 
L 175.907116 371.755373 
L 181.754496 429.756522 
L 184.678186 343.309318 
L 187.601876 329.645182 
L 190.525567 469.464992 
L 193.449257 442.850101 
L 196.372947 418.334459 
L 199.296637 451.013504 
L 202.220327 313.650719 
L 205.144017 288.84247 
L 208.067707 442.524857 
L 210.991397 355.812645 
L 213.915087 300.878448 
L 216.838777 345.30571 
L 219.762468 400.631752 
L 222.686158 316.761186 
L 225.609848 188.044798 
L 228.533538 71.453734 
L 231.457228 287.621146 
L 234.380918 289.341162 
L 237.304608 392.808947 
L 240.228298 425.433179 
L 243.151988 438.267661 
L 246.075678 323.664018 
L 248.999369 327.356463 
L 251.923059 409.414685 
L 254.846749 387.100714 
L 257.770439 435.133635 
L 260.694129 348.870548 
L 263.617819 427.230307 
L 266.541509 337.233411 
L 269.465199 344.318996 
L 272.388889 404.859984 
L 275.312579 416.945232 
L 278.23627 418.335648 
L 281.15996 411.568223 
L 284.08365 354.536333 
L 287.00734 361.448977 
L 289.93103 408.841154 
L 292.85472 354.431638 
L 295.77841 342.032708 
L 298.7021 413.739427 
L 301.62579 390.67902 
L 304.549481 410.905494 
L 307.473171 416.958909 
L 310.396861 377.262227 
L 313.320551 345.253677 
L 316.244241 390.063129 
L 319.167931 279.27074 
L 322.091621 383.585057 
L 325.015311 370.590577 
L 327.939001 374.026585 
L 330.862691 336.894176 
L 333.786382 313.474245 
L 336.710072 345.834833 
L 339.633762 258.916764 
L 342.557452 71.453233 
L 345.481142 275.182427 
L 348.404832 300.799534 
L 351.328522 299.808273 
L 354.252212 386.100358 
L 357.175902 387.888847 
L 360.099592 329.653647 
L 363.023283 440.798354 
L 365.946973 365.164072 
L 368.870663 385.782006 
L 371.794353 427.13936 
L 374.718043 429.801122 
L 377.641733 441.395111 
L 380.565423 422.343438 
L 383.489113 367.472012 
L 386.412803 293.386502 
L 389.336494 318.790721 
L 392.260184 380.752419 
L 395.183874 464.337741 
L 398.107564 392.374077 
L 401.031254 431.691401 
L 403.954944 441.915927 
L 406.878634 422.672494 
L 409.802324 398.996965 
L 412.726014 358.160655 
L 415.649704 391.518398 
L 418.573395 364.768187 
L 421.497085 456.653037 
L 424.420775 498.576645 
L 427.344465 428.299469 
L 430.268155 427.535437 
L 433.191845 398.625024 
L 436.115535 284.460134 
L 439.039225 344.684274 
L 441.962915 429.123561 
L 444.886605 368.356235 
L 447.810296 293.270666 
L 450.733986 303.670301 
L 453.657676 411.262499 
L 456.581366 348.017405 
L 459.505056 378.668595 
L 462.428746 261.369679 
L 465.352436 312.318544 
L 468.276126 205.749464 
L 471.199816 71.513357 
L 474.123506 125.983421 
L 477.047197 71.455898 
L 479.970887 150.758924 
L 482.894577 401.867627 
L 485.818267 410.582944 
L 488.741957 349.450235 
L 491.665647 380.203409 
L 494.589337 258.458737 
L 497.513027 388.474061 
L 500.436717 392.74413 
L 503.360408 351.559962 
L 506.284098 314.081409 
L 509.207788 258.618736 
L 512.131478 384.515104 
L 515.055168 371.146303 
L 517.978858 429.120622 
L 520.902548 458.128875 
L 523.826238 421.840951 
L 526.749928 399.62377 
L 529.673618 347.561984 
L 532.597309 282.696761 
L 535.520999 283.373342 
L 538.444689 212.896142 
L 541.368379 175.698242 
L 544.292069 186.784244 
L 547.215759 190.54783 
L 550.139449 202.00252 
L 555.986829 272.756535 
L 558.910519 241.626732 
L 561.83421 229.82052 
L 564.7579 179.217886 
L 567.68159 186.57063 
L 570.60528 297.418952 
L 573.52897 324.06543 
L 576.45266 329.400008 
L 579.37635 387.234582 
L 582.30004 316.005759 
L 585.22373 361.17386 
L 588.147421 294.133953 
L 591.071111 267.982982 
L 593.994801 336.06426 
L 596.918491 266.280825 
L 599.842181 239.230363 
L 602.765871 378.996007 
L 605.689561 334.499608 
L 608.613251 381.23773 
L 611.536941 467.146418 
L 614.460631 432.618754 
L 617.384322 297.891408 
L 620.308012 329.985624 
L 626.155392 459.584249 
L 629.079082 438.468516 
L 632.002772 402.876868 
L 634.926462 363.716691 
L 637.850152 365.377799 
L 640.773842 329.789807 
L 643.697532 166.394825 
L 646.621223 209.522635 
L 649.544913 360.045985 
L 652.468603 498.485348 
L 655.392293 478.164008 
L 658.315983 409.159541 
L 661.239673 477.709759 
L 664.163363 372.222705 
L 667.087053 430.925586 
L 670.010743 426.700572 
L 672.934433 380.189312 
L 675.858124 391.900589 
L 678.781814 346.392011 
L 681.705504 446.862647 
L 684.629194 477.388014 
L 687.552884 426.861829 
L 690.476574 467.148587 
L 693.400264 423.781952 
L 696.323954 418.862656 
L 699.247644 400.525308 
L 702.171335 372.15257 
L 705.095025 372.569881 
L 708.018715 371.048219 
L 710.942405 371.833204 
L 713.866095 367.400653 
L 716.789785 365.995615 
L 719.713475 367.393237 
L 722.637165 364.981092 
L 725.560855 369.98371 
L 728.484545 364.917149 
L 728.484545 364.917149 
" style="fill:none;stroke:#8172b3;stroke-dasharray:7.5,1.5,1.5,1.5;stroke-dashoffset:0;stroke-width:1.5;"/>
   </g>
   <g id="line2d_6"/>
   <g id="line2d_7"/>
   <g id="line2d_8"/>
   <g id="line2d_9"/>
   <g id="line2d_10"/>
   <g id="patch_3">
    <path d="M 105.3 529.9416 
L 105.3 71.4528 
" style="fill:none;stroke:#262626;stroke-linecap:square;stroke-linejoin:miter;stroke-width:1.25;"/>
   </g>
   <g id="patch_4">
    <path d="M 758.16 529.9416 
L 758.16 71.4528 
" style="fill:none;stroke:#262626;stroke-linecap:square;stroke-linejoin:miter;stroke-width:1.25;"/>
   </g>
   <g id="patch_5">
    <path d="M 105.3 529.9416 
L 758.16 529.9416 
" style="fill:none;stroke:#262626;stroke-linecap:square;stroke-linejoin:miter;stroke-width:1.25;"/>
   </g>
   <g id="patch_6">
    <path d="M 105.3 71.4528 
L 758.16 71.4528 
" style="fill:none;stroke:#262626;stroke-linecap:square;stroke-linejoin:miter;stroke-width:1.25;"/>
   </g>
   <g id="text_16">
    <!-- Activations for &gt;F&lt; -->
    <g style="fill:#262626;" transform="translate(381.709688 65.4528)scale(0.12 -0.12)">
     <defs>
      <path d="M -9 0 
L 1750 4581 
L 2403 4581 
L 4278 0 
L 3588 0 
L 3053 1388 
L 1138 1388 
L 634 0 
L -9 0 
z
M 1313 1881 
L 2866 1881 
L 2388 3150 
Q 2169 3728 2063 4100 
Q 1975 3659 1816 3225 
L 1313 1881 
z
" id="ArialMT-41" transform="scale(0.015625)"/>
      <path d="M 2588 1216 
L 3141 1144 
Q 3050 572 2676 248 
Q 2303 -75 1759 -75 
Q 1078 -75 664 370 
Q 250 816 250 1647 
Q 250 2184 428 2587 
Q 606 2991 970 3192 
Q 1334 3394 1763 3394 
Q 2303 3394 2647 3120 
Q 2991 2847 3088 2344 
L 2541 2259 
Q 2463 2594 2264 2762 
Q 2066 2931 1784 2931 
Q 1359 2931 1093 2626 
Q 828 2322 828 1663 
Q 828 994 1084 691 
Q 1341 388 1753 388 
Q 2084 388 2306 591 
Q 2528 794 2588 1216 
z
" id="ArialMT-63" transform="scale(0.015625)"/>
      <path d="M 1650 503 
L 1731 6 
Q 1494 -44 1306 -44 
Q 1000 -44 831 53 
Q 663 150 594 308 
Q 525 466 525 972 
L 525 2881 
L 113 2881 
L 113 3319 
L 525 3319 
L 525 4141 
L 1084 4478 
L 1084 3319 
L 1650 3319 
L 1650 2881 
L 1084 2881 
L 1084 941 
Q 1084 700 1114 631 
Q 1144 563 1211 522 
Q 1278 481 1403 481 
Q 1497 481 1650 503 
z
" id="ArialMT-74" transform="scale(0.015625)"/>
      <path d="M 425 3934 
L 425 4581 
L 988 4581 
L 988 3934 
L 425 3934 
z
M 425 0 
L 425 3319 
L 988 3319 
L 988 0 
L 425 0 
z
" id="ArialMT-69" transform="scale(0.015625)"/>
      <path d="M 1344 0 
L 81 3319 
L 675 3319 
L 1388 1331 
Q 1503 1009 1600 663 
Q 1675 925 1809 1294 
L 2547 3319 
L 3125 3319 
L 1869 0 
L 1344 0 
z
" id="ArialMT-76" transform="scale(0.015625)"/>
      <path d="M 2588 409 
Q 2275 144 1986 34 
Q 1697 -75 1366 -75 
Q 819 -75 525 192 
Q 231 459 231 875 
Q 231 1119 342 1320 
Q 453 1522 633 1644 
Q 813 1766 1038 1828 
Q 1203 1872 1538 1913 
Q 2219 1994 2541 2106 
Q 2544 2222 2544 2253 
Q 2544 2597 2384 2738 
Q 2169 2928 1744 2928 
Q 1347 2928 1158 2789 
Q 969 2650 878 2297 
L 328 2372 
Q 403 2725 575 2942 
Q 747 3159 1072 3276 
Q 1397 3394 1825 3394 
Q 2250 3394 2515 3294 
Q 2781 3194 2906 3042 
Q 3031 2891 3081 2659 
Q 3109 2516 3109 2141 
L 3109 1391 
Q 3109 606 3145 398 
Q 3181 191 3288 0 
L 2700 0 
Q 2613 175 2588 409 
z
M 2541 1666 
Q 2234 1541 1622 1453 
Q 1275 1403 1131 1340 
Q 988 1278 909 1158 
Q 831 1038 831 891 
Q 831 666 1001 516 
Q 1172 366 1500 366 
Q 1825 366 2078 508 
Q 2331 650 2450 897 
Q 2541 1088 2541 1459 
L 2541 1666 
z
" id="ArialMT-61" transform="scale(0.015625)"/>
      <path d="M 213 1659 
Q 213 2581 725 3025 
Q 1153 3394 1769 3394 
Q 2453 3394 2887 2945 
Q 3322 2497 3322 1706 
Q 3322 1066 3130 698 
Q 2938 331 2570 128 
Q 2203 -75 1769 -75 
Q 1072 -75 642 372 
Q 213 819 213 1659 
z
M 791 1659 
Q 791 1022 1069 705 
Q 1347 388 1769 388 
Q 2188 388 2466 706 
Q 2744 1025 2744 1678 
Q 2744 2294 2464 2611 
Q 2184 2928 1769 2928 
Q 1347 2928 1069 2612 
Q 791 2297 791 1659 
z
" id="ArialMT-6f" transform="scale(0.015625)"/>
      <path d="M 422 0 
L 422 3319 
L 928 3319 
L 928 2847 
Q 1294 3394 1984 3394 
Q 2284 3394 2536 3286 
Q 2788 3178 2913 3003 
Q 3038 2828 3088 2588 
Q 3119 2431 3119 2041 
L 3119 0 
L 2556 0 
L 2556 2019 
Q 2556 2363 2490 2533 
Q 2425 2703 2258 2804 
Q 2091 2906 1866 2906 
Q 1506 2906 1245 2678 
Q 984 2450 984 1813 
L 984 0 
L 422 0 
z
" id="ArialMT-6e" transform="scale(0.015625)"/>
      <path d="M 197 991 
L 753 1078 
Q 800 744 1014 566 
Q 1228 388 1613 388 
Q 2000 388 2187 545 
Q 2375 703 2375 916 
Q 2375 1106 2209 1216 
Q 2094 1291 1634 1406 
Q 1016 1563 777 1677 
Q 538 1791 414 1992 
Q 291 2194 291 2438 
Q 291 2659 392 2848 
Q 494 3038 669 3163 
Q 800 3259 1026 3326 
Q 1253 3394 1513 3394 
Q 1903 3394 2198 3281 
Q 2494 3169 2634 2976 
Q 2775 2784 2828 2463 
L 2278 2388 
Q 2241 2644 2061 2787 
Q 1881 2931 1553 2931 
Q 1166 2931 1000 2803 
Q 834 2675 834 2503 
Q 834 2394 903 2306 
Q 972 2216 1119 2156 
Q 1203 2125 1616 2013 
Q 2213 1853 2448 1751 
Q 2684 1650 2818 1456 
Q 2953 1263 2953 975 
Q 2953 694 2789 445 
Q 2625 197 2315 61 
Q 2006 -75 1616 -75 
Q 969 -75 630 194 
Q 291 463 197 991 
z
" id="ArialMT-73" transform="scale(0.015625)"/>
      <path id="ArialMT-20" transform="scale(0.015625)"/>
      <path d="M 556 0 
L 556 2881 
L 59 2881 
L 59 3319 
L 556 3319 
L 556 3672 
Q 556 4006 616 4169 
Q 697 4388 901 4523 
Q 1106 4659 1475 4659 
Q 1713 4659 2000 4603 
L 1916 4113 
Q 1741 4144 1584 4144 
Q 1328 4144 1222 4034 
Q 1116 3925 1116 3625 
L 1116 3319 
L 1763 3319 
L 1763 2881 
L 1116 2881 
L 1116 0 
L 556 0 
z
" id="ArialMT-66" transform="scale(0.015625)"/>
      <path d="M 416 0 
L 416 3319 
L 922 3319 
L 922 2816 
Q 1116 3169 1280 3281 
Q 1444 3394 1641 3394 
Q 1925 3394 2219 3213 
L 2025 2691 
Q 1819 2813 1613 2813 
Q 1428 2813 1281 2702 
Q 1134 2591 1072 2394 
Q 978 2094 978 1738 
L 978 0 
L 416 0 
z
" id="ArialMT-72" transform="scale(0.015625)"/>
      <path d="M 3384 2003 
L 350 706 
L 350 1266 
L 2753 2263 
L 350 3250 
L 350 3809 
L 3384 2528 
L 3384 2003 
z
" id="ArialMT-3e" transform="scale(0.015625)"/>
      <path d="M 525 0 
L 525 4581 
L 3616 4581 
L 3616 4041 
L 1131 4041 
L 1131 2622 
L 3281 2622 
L 3281 2081 
L 1131 2081 
L 1131 0 
L 525 0 
z
" id="ArialMT-46" transform="scale(0.015625)"/>
      <path d="M 350 2003 
L 350 2528 
L 3384 3809 
L 3384 3250 
L 978 2263 
L 3384 1266 
L 3384 706 
L 350 2003 
z
" id="ArialMT-3c" transform="scale(0.015625)"/>
     </defs>
     <use xlink:href="#ArialMT-41"/>
     <use x="66.699219" xlink:href="#ArialMT-63"/>
     <use x="116.699219" xlink:href="#ArialMT-74"/>
     <use x="144.482422" xlink:href="#ArialMT-69"/>
     <use x="166.699219" xlink:href="#ArialMT-76"/>
     <use x="216.699219" xlink:href="#ArialMT-61"/>
     <use x="272.314453" xlink:href="#ArialMT-74"/>
     <use x="300.097656" xlink:href="#ArialMT-69"/>
     <use x="322.314453" xlink:href="#ArialMT-6f"/>
     <use x="377.929688" xlink:href="#ArialMT-6e"/>
     <use x="433.544922" xlink:href="#ArialMT-73"/>
     <use x="483.544922" xlink:href="#ArialMT-20"/>
     <use x="511.328125" xlink:href="#ArialMT-66"/>
     <use x="539.111328" xlink:href="#ArialMT-6f"/>
     <use x="594.726562" xlink:href="#ArialMT-72"/>
     <use x="628.027344" xlink:href="#ArialMT-20"/>
     <use x="655.810547" xlink:href="#ArialMT-3e"/>
     <use x="714.208984" xlink:href="#ArialMT-46"/>
     <use x="775.292969" xlink:href="#ArialMT-3c"/>
    </g>
   </g>
   <g id="legend_1">
    <g id="patch_7">
     <path d="M 640.044062 158.514363 
L 750.46 158.514363 
Q 752.66 158.514363 752.66 156.314363 
L 752.66 79.1528 
Q 752.66 76.9528 750.46 76.9528 
L 640.044062 76.9528 
Q 637.844062 76.9528 637.844062 79.1528 
L 637.844062 156.314363 
Q 637.844062 158.514363 640.044062 158.514363 
z
" style="fill:#ffffff;opacity:0.8;stroke:#cccccc;stroke-linejoin:miter;"/>
    </g>
    <g id="line2d_11">
     <path d="M 642.244062 85.376394 
L 664.244062 85.376394 
" style="fill:none;stroke:#4c72b0;stroke-linecap:round;stroke-width:1.5;"/>
    </g>
    <g id="line2d_12"/>
    <g id="text_17">
     <!-- regular -->
     <g style="fill:#262626;" transform="translate(673.044062 89.226394)scale(0.11 -0.11)">
      <defs>
       <path d="M 2694 1069 
L 3275 997 
Q 3138 488 2766 206 
Q 2394 -75 1816 -75 
Q 1088 -75 661 373 
Q 234 822 234 1631 
Q 234 2469 665 2931 
Q 1097 3394 1784 3394 
Q 2450 3394 2872 2941 
Q 3294 2488 3294 1666 
Q 3294 1616 3291 1516 
L 816 1516 
Q 847 969 1125 678 
Q 1403 388 1819 388 
Q 2128 388 2347 550 
Q 2566 713 2694 1069 
z
M 847 1978 
L 2700 1978 
Q 2663 2397 2488 2606 
Q 2219 2931 1791 2931 
Q 1403 2931 1139 2672 
Q 875 2413 847 1978 
z
" id="ArialMT-65" transform="scale(0.015625)"/>
       <path d="M 319 -275 
L 866 -356 
Q 900 -609 1056 -725 
Q 1266 -881 1628 -881 
Q 2019 -881 2231 -725 
Q 2444 -569 2519 -288 
Q 2563 -116 2559 434 
Q 2191 0 1641 0 
Q 956 0 581 494 
Q 206 988 206 1678 
Q 206 2153 378 2554 
Q 550 2956 876 3175 
Q 1203 3394 1644 3394 
Q 2231 3394 2613 2919 
L 2613 3319 
L 3131 3319 
L 3131 450 
Q 3131 -325 2973 -648 
Q 2816 -972 2473 -1159 
Q 2131 -1347 1631 -1347 
Q 1038 -1347 672 -1080 
Q 306 -813 319 -275 
z
M 784 1719 
Q 784 1066 1043 766 
Q 1303 466 1694 466 
Q 2081 466 2343 764 
Q 2606 1063 2606 1700 
Q 2606 2309 2336 2618 
Q 2066 2928 1684 2928 
Q 1309 2928 1046 2623 
Q 784 2319 784 1719 
z
" id="ArialMT-67" transform="scale(0.015625)"/>
       <path d="M 2597 0 
L 2597 488 
Q 2209 -75 1544 -75 
Q 1250 -75 995 37 
Q 741 150 617 320 
Q 494 491 444 738 
Q 409 903 409 1263 
L 409 3319 
L 972 3319 
L 972 1478 
Q 972 1038 1006 884 
Q 1059 663 1231 536 
Q 1403 409 1656 409 
Q 1909 409 2131 539 
Q 2353 669 2445 892 
Q 2538 1116 2538 1541 
L 2538 3319 
L 3100 3319 
L 3100 0 
L 2597 0 
z
" id="ArialMT-75" transform="scale(0.015625)"/>
       <path d="M 409 0 
L 409 4581 
L 972 4581 
L 972 0 
L 409 0 
z
" id="ArialMT-6c" transform="scale(0.015625)"/>
      </defs>
      <use xlink:href="#ArialMT-72"/>
      <use x="33.300781" xlink:href="#ArialMT-65"/>
      <use x="88.916016" xlink:href="#ArialMT-67"/>
      <use x="144.53125" xlink:href="#ArialMT-75"/>
      <use x="200.146484" xlink:href="#ArialMT-6c"/>
      <use x="222.363281" xlink:href="#ArialMT-61"/>
      <use x="277.978516" xlink:href="#ArialMT-72"/>
     </g>
    </g>
    <g id="line2d_13">
     <path d="M 642.244062 101.0978 
L 664.244062 101.0978 
" style="fill:none;stroke:#dd8452;stroke-dasharray:6,2.25;stroke-dashoffset:0;stroke-width:1.5;"/>
    </g>
    <g id="line2d_14"/>
    <g id="text_18">
     <!-- splitted_3s -->
     <g style="fill:#262626;" transform="translate(673.044062 104.9478)scale(0.11 -0.11)">
      <defs>
       <path d="M 422 -1272 
L 422 3319 
L 934 3319 
L 934 2888 
Q 1116 3141 1344 3267 
Q 1572 3394 1897 3394 
Q 2322 3394 2647 3175 
Q 2972 2956 3137 2557 
Q 3303 2159 3303 1684 
Q 3303 1175 3120 767 
Q 2938 359 2589 142 
Q 2241 -75 1856 -75 
Q 1575 -75 1351 44 
Q 1128 163 984 344 
L 984 -1272 
L 422 -1272 
z
M 931 1641 
Q 931 1000 1190 694 
Q 1450 388 1819 388 
Q 2194 388 2461 705 
Q 2728 1022 2728 1688 
Q 2728 2322 2467 2637 
Q 2206 2953 1844 2953 
Q 1484 2953 1207 2617 
Q 931 2281 931 1641 
z
" id="ArialMT-70" transform="scale(0.015625)"/>
       <path d="M 2575 0 
L 2575 419 
Q 2259 -75 1647 -75 
Q 1250 -75 917 144 
Q 584 363 401 755 
Q 219 1147 219 1656 
Q 219 2153 384 2558 
Q 550 2963 881 3178 
Q 1213 3394 1622 3394 
Q 1922 3394 2156 3267 
Q 2391 3141 2538 2938 
L 2538 4581 
L 3097 4581 
L 3097 0 
L 2575 0 
z
M 797 1656 
Q 797 1019 1065 703 
Q 1334 388 1700 388 
Q 2069 388 2326 689 
Q 2584 991 2584 1609 
Q 2584 2291 2321 2609 
Q 2059 2928 1675 2928 
Q 1300 2928 1048 2622 
Q 797 2316 797 1656 
z
" id="ArialMT-64" transform="scale(0.015625)"/>
       <path d="M -97 -1272 
L -97 -866 
L 3631 -866 
L 3631 -1272 
L -97 -1272 
z
" id="ArialMT-5f" transform="scale(0.015625)"/>
       <path d="M 269 1209 
L 831 1284 
Q 928 806 1161 595 
Q 1394 384 1728 384 
Q 2125 384 2398 659 
Q 2672 934 2672 1341 
Q 2672 1728 2419 1979 
Q 2166 2231 1775 2231 
Q 1616 2231 1378 2169 
L 1441 2663 
Q 1497 2656 1531 2656 
Q 1891 2656 2178 2843 
Q 2466 3031 2466 3422 
Q 2466 3731 2256 3934 
Q 2047 4138 1716 4138 
Q 1388 4138 1169 3931 
Q 950 3725 888 3313 
L 325 3413 
Q 428 3978 793 4289 
Q 1159 4600 1703 4600 
Q 2078 4600 2393 4439 
Q 2709 4278 2876 4000 
Q 3044 3722 3044 3409 
Q 3044 3113 2884 2869 
Q 2725 2625 2413 2481 
Q 2819 2388 3044 2092 
Q 3269 1797 3269 1353 
Q 3269 753 2831 336 
Q 2394 -81 1725 -81 
Q 1122 -81 723 278 
Q 325 638 269 1209 
z
" id="ArialMT-33" transform="scale(0.015625)"/>
      </defs>
      <use xlink:href="#ArialMT-73"/>
      <use x="50" xlink:href="#ArialMT-70"/>
      <use x="105.615234" xlink:href="#ArialMT-6c"/>
      <use x="127.832031" xlink:href="#ArialMT-69"/>
      <use x="150.048828" xlink:href="#ArialMT-74"/>
      <use x="177.832031" xlink:href="#ArialMT-74"/>
      <use x="205.615234" xlink:href="#ArialMT-65"/>
      <use x="261.230469" xlink:href="#ArialMT-64"/>
      <use x="316.845703" xlink:href="#ArialMT-5f"/>
      <use x="372.460938" xlink:href="#ArialMT-33"/>
      <use x="428.076172" xlink:href="#ArialMT-73"/>
     </g>
    </g>
    <g id="line2d_15">
     <path d="M 642.244062 116.6903 
L 664.244062 116.6903 
" style="fill:none;stroke:#55a868;stroke-dasharray:1.5,1.5;stroke-dashoffset:0;stroke-width:1.5;"/>
    </g>
    <g id="line2d_16"/>
    <g id="text_19">
     <!-- splitted_1s -->
     <g style="fill:#262626;" transform="translate(673.044062 120.5403)scale(0.11 -0.11)">
      <use xlink:href="#ArialMT-73"/>
      <use x="50" xlink:href="#ArialMT-70"/>
      <use x="105.615234" xlink:href="#ArialMT-6c"/>
      <use x="127.832031" xlink:href="#ArialMT-69"/>
      <use x="150.048828" xlink:href="#ArialMT-74"/>
      <use x="177.832031" xlink:href="#ArialMT-74"/>
      <use x="205.615234" xlink:href="#ArialMT-65"/>
      <use x="261.230469" xlink:href="#ArialMT-64"/>
      <use x="316.845703" xlink:href="#ArialMT-5f"/>
      <use x="372.460938" xlink:href="#ArialMT-31"/>
      <use x="428.076172" xlink:href="#ArialMT-73"/>
     </g>
    </g>
    <g id="line2d_17">
     <path d="M 642.244062 132.384206 
L 664.244062 132.384206 
" style="fill:none;stroke:#c44e52;stroke-dasharray:4.5,1.875,2.25,1.875;stroke-dashoffset:0;stroke-width:1.5;"/>
    </g>
    <g id="line2d_18"/>
    <g id="text_20">
     <!-- overlap_1f_3s -->
     <g style="fill:#262626;" transform="translate(673.044062 136.234206)scale(0.11 -0.11)">
      <use xlink:href="#ArialMT-6f"/>
      <use x="55.615234" xlink:href="#ArialMT-76"/>
      <use x="105.615234" xlink:href="#ArialMT-65"/>
      <use x="161.230469" xlink:href="#ArialMT-72"/>
      <use x="194.53125" xlink:href="#ArialMT-6c"/>
      <use x="216.748047" xlink:href="#ArialMT-61"/>
      <use x="272.363281" xlink:href="#ArialMT-70"/>
      <use x="327.978516" xlink:href="#ArialMT-5f"/>
      <use x="383.59375" xlink:href="#ArialMT-31"/>
      <use x="439.208984" xlink:href="#ArialMT-66"/>
      <use x="466.992188" xlink:href="#ArialMT-5f"/>
      <use x="522.607422" xlink:href="#ArialMT-33"/>
      <use x="578.222656" xlink:href="#ArialMT-73"/>
     </g>
    </g>
    <g id="line2d_19">
     <path d="M 642.244062 148.078113 
L 664.244062 148.078113 
" style="fill:none;stroke:#8172b3;stroke-dasharray:7.5,1.5,1.5,1.5;stroke-dashoffset:0;stroke-width:1.5;"/>
    </g>
    <g id="line2d_20"/>
    <g id="text_21">
     <!-- overlap_10f_3s -->
     <g style="fill:#262626;" transform="translate(673.044062 151.928112)scale(0.11 -0.11)">
      <use xlink:href="#ArialMT-6f"/>
      <use x="55.615234" xlink:href="#ArialMT-76"/>
      <use x="105.615234" xlink:href="#ArialMT-65"/>
      <use x="161.230469" xlink:href="#ArialMT-72"/>
      <use x="194.53125" xlink:href="#ArialMT-6c"/>
      <use x="216.748047" xlink:href="#ArialMT-61"/>
      <use x="272.363281" xlink:href="#ArialMT-70"/>
      <use x="327.978516" xlink:href="#ArialMT-5f"/>
      <use x="383.59375" xlink:href="#ArialMT-31"/>
      <use x="439.208984" xlink:href="#ArialMT-30"/>
      <use x="494.824219" xlink:href="#ArialMT-66"/>
      <use x="522.607422" xlink:href="#ArialMT-5f"/>
      <use x="578.222656" xlink:href="#ArialMT-33"/>
      <use x="633.837891" xlink:href="#ArialMT-73"/>
     </g>
    </g>
   </g>
  </g>
 </g>
 <defs>
  <clipPath id="p27270229a0">
   <rect height="458.4888" width="652.86" x="105.3" y="71.4528"/>
  </clipPath>
 </defs>
</svg>
