<?xml version="1.0" encoding="utf-8" standalone="no"?>
<!DOCTYPE svg PUBLIC "-//W3C//DTD SVG 1.1//EN"
  "http://www.w3.org/Graphics/SVG/1.1/DTD/svg11.dtd">
<svg height="595.44pt" version="1.1" viewBox="0 0 842.4 595.44" width="842.4pt" xmlns="http://www.w3.org/2000/svg" xmlns:xlink="http://www.w3.org/1999/xlink">
 <metadata>
  <rdf:RDF xmlns:cc="http://creativecommons.org/ns#" xmlns:dc="http://purl.org/dc/elements/1.1/" xmlns:rdf="http://www.w3.org/1999/02/22-rdf-syntax-ns#">
   <cc:Work>
    <dc:type rdf:resource="http://purl.org/dc/dcmitype/StillImage"/>
    <dc:date>2021-06-04T22:03:18.205931</dc:date>
    <dc:format>image/svg+xml</dc:format>
    <dc:creator>
     <cc:Agent>
      <dc:title>Matplotlib v3.4.1, https://matplotlib.org/</dc:title>
     </cc:Agent>
    </dc:creator>
   </cc:Work>
  </rdf:RDF>
 </metadata>
 <defs>
  <style type="text/css">*{stroke-linecap:butt;stroke-linejoin:round;}</style>
 </defs>
 <g id="figure_1">
  <g id="patch_1">
   <path d="M 0 595.44 
L 842.4 595.44 
L 842.4 0 
L 0 0 
z
" style="fill:#ffffff;"/>
  </g>
  <g id="axes_1">
   <g id="patch_2">
    <path d="M 105.3 529.9416 
L 758.16 529.9416 
L 758.16 71.4528 
L 105.3 71.4528 
z
" style="fill:#ffffff;"/>
   </g>
   <g id="matplotlib.axis_1">
    <g id="xtick_1">
     <g id="text_1">
      <!-- 0 -->
      <g style="fill:#262626;" transform="translate(131.916939 547.315194)scale(0.11 -0.11)">
       <defs>
        <path d="M 266 2259 
Q 266 3072 433 3567 
Q 600 4063 929 4331 
Q 1259 4600 1759 4600 
Q 2128 4600 2406 4451 
Q 2684 4303 2865 4023 
Q 3047 3744 3150 3342 
Q 3253 2941 3253 2259 
Q 3253 1453 3087 958 
Q 2922 463 2592 192 
Q 2263 -78 1759 -78 
Q 1097 -78 719 397 
Q 266 969 266 2259 
z
M 844 2259 
Q 844 1131 1108 757 
Q 1372 384 1759 384 
Q 2147 384 2411 759 
Q 2675 1134 2675 2259 
Q 2675 3391 2411 3762 
Q 2147 4134 1753 4134 
Q 1366 4134 1134 3806 
Q 844 3388 844 2259 
z
" id="ArialMT-30" transform="scale(0.015625)"/>
       </defs>
       <use xlink:href="#ArialMT-30"/>
      </g>
     </g>
    </g>
    <g id="xtick_2">
     <g id="text_2">
      <!-- 25 -->
      <g style="fill:#262626;" transform="translate(201.950676 547.315194)scale(0.11 -0.11)">
       <defs>
        <path d="M 3222 541 
L 3222 0 
L 194 0 
Q 188 203 259 391 
Q 375 700 629 1000 
Q 884 1300 1366 1694 
Q 2113 2306 2375 2664 
Q 2638 3022 2638 3341 
Q 2638 3675 2398 3904 
Q 2159 4134 1775 4134 
Q 1369 4134 1125 3890 
Q 881 3647 878 3216 
L 300 3275 
Q 359 3922 746 4261 
Q 1134 4600 1788 4600 
Q 2447 4600 2831 4234 
Q 3216 3869 3216 3328 
Q 3216 3053 3103 2787 
Q 2991 2522 2730 2228 
Q 2469 1934 1863 1422 
Q 1356 997 1212 845 
Q 1069 694 975 541 
L 3222 541 
z
" id="ArialMT-32" transform="scale(0.015625)"/>
        <path d="M 266 1200 
L 856 1250 
Q 922 819 1161 601 
Q 1400 384 1738 384 
Q 2144 384 2425 690 
Q 2706 997 2706 1503 
Q 2706 1984 2436 2262 
Q 2166 2541 1728 2541 
Q 1456 2541 1237 2417 
Q 1019 2294 894 2097 
L 366 2166 
L 809 4519 
L 3088 4519 
L 3088 3981 
L 1259 3981 
L 1013 2750 
Q 1425 3038 1878 3038 
Q 2478 3038 2890 2622 
Q 3303 2206 3303 1553 
Q 3303 931 2941 478 
Q 2500 -78 1738 -78 
Q 1113 -78 717 272 
Q 322 622 266 1200 
z
" id="ArialMT-35" transform="scale(0.015625)"/>
       </defs>
       <use xlink:href="#ArialMT-32"/>
       <use x="55.615234" xlink:href="#ArialMT-35"/>
      </g>
     </g>
    </g>
    <g id="xtick_3">
     <g id="text_3">
      <!-- 50 -->
      <g style="fill:#262626;" transform="translate(275.042928 547.315194)scale(0.11 -0.11)">
       <use xlink:href="#ArialMT-35"/>
       <use x="55.615234" xlink:href="#ArialMT-30"/>
      </g>
     </g>
    </g>
    <g id="xtick_4">
     <g id="text_4">
      <!-- 75 -->
      <g style="fill:#262626;" transform="translate(348.135181 547.315194)scale(0.11 -0.11)">
       <defs>
        <path d="M 303 3981 
L 303 4522 
L 3269 4522 
L 3269 4084 
Q 2831 3619 2401 2847 
Q 1972 2075 1738 1259 
Q 1569 684 1522 0 
L 944 0 
Q 953 541 1156 1306 
Q 1359 2072 1739 2783 
Q 2119 3494 2547 3981 
L 303 3981 
z
" id="ArialMT-37" transform="scale(0.015625)"/>
       </defs>
       <use xlink:href="#ArialMT-37"/>
       <use x="55.615234" xlink:href="#ArialMT-35"/>
      </g>
     </g>
    </g>
    <g id="xtick_5">
     <g id="text_5">
      <!-- 100 -->
      <g style="fill:#262626;" transform="translate(418.168918 547.315194)scale(0.11 -0.11)">
       <defs>
        <path d="M 2384 0 
L 1822 0 
L 1822 3584 
Q 1619 3391 1289 3197 
Q 959 3003 697 2906 
L 697 3450 
Q 1169 3672 1522 3987 
Q 1875 4303 2022 4600 
L 2384 4600 
L 2384 0 
z
" id="ArialMT-31" transform="scale(0.015625)"/>
       </defs>
       <use xlink:href="#ArialMT-31"/>
       <use x="55.615234" xlink:href="#ArialMT-30"/>
       <use x="111.230469" xlink:href="#ArialMT-30"/>
      </g>
     </g>
    </g>
    <g id="xtick_6">
     <g id="text_6">
      <!-- 125 -->
      <g style="fill:#262626;" transform="translate(491.261171 547.315194)scale(0.11 -0.11)">
       <use xlink:href="#ArialMT-31"/>
       <use x="55.615234" xlink:href="#ArialMT-32"/>
       <use x="111.230469" xlink:href="#ArialMT-35"/>
      </g>
     </g>
    </g>
    <g id="xtick_7">
     <g id="text_7">
      <!-- 150 -->
      <g style="fill:#262626;" transform="translate(564.353423 547.315194)scale(0.11 -0.11)">
       <use xlink:href="#ArialMT-31"/>
       <use x="55.615234" xlink:href="#ArialMT-35"/>
       <use x="111.230469" xlink:href="#ArialMT-30"/>
      </g>
     </g>
    </g>
    <g id="xtick_8">
     <g id="text_8">
      <!-- 175 -->
      <g style="fill:#262626;" transform="translate(637.445676 547.315194)scale(0.11 -0.11)">
       <use xlink:href="#ArialMT-31"/>
       <use x="55.615234" xlink:href="#ArialMT-37"/>
       <use x="111.230469" xlink:href="#ArialMT-35"/>
      </g>
     </g>
    </g>
    <g id="xtick_9">
     <g id="text_9">
      <!-- 200 -->
      <g style="fill:#262626;" transform="translate(710.537928 547.315194)scale(0.11 -0.11)">
       <use xlink:href="#ArialMT-32"/>
       <use x="55.615234" xlink:href="#ArialMT-30"/>
       <use x="111.230469" xlink:href="#ArialMT-30"/>
      </g>
     </g>
    </g>
   </g>
   <g id="matplotlib.axis_2">
    <g id="ytick_1">
     <g id="text_10">
      <!-- −25 -->
      <g style="fill:#262626;" transform="translate(77.14125 533.878397)scale(0.11 -0.11)">
       <defs>
        <path d="M 3381 1997 
L 356 1997 
L 356 2522 
L 3381 2522 
L 3381 1997 
z
" id="ArialMT-2212" transform="scale(0.015625)"/>
       </defs>
       <use xlink:href="#ArialMT-2212"/>
       <use x="58.398438" xlink:href="#ArialMT-32"/>
       <use x="114.013672" xlink:href="#ArialMT-35"/>
      </g>
     </g>
    </g>
    <g id="ytick_2">
     <g id="text_11">
      <!-- −20 -->
      <g style="fill:#262626;" transform="translate(77.14125 442.180637)scale(0.11 -0.11)">
       <use xlink:href="#ArialMT-2212"/>
       <use x="58.398438" xlink:href="#ArialMT-32"/>
       <use x="114.013672" xlink:href="#ArialMT-30"/>
      </g>
     </g>
    </g>
    <g id="ytick_3">
     <g id="text_12">
      <!-- −15 -->
      <g style="fill:#262626;" transform="translate(77.14125 350.482877)scale(0.11 -0.11)">
       <use xlink:href="#ArialMT-2212"/>
       <use x="58.398438" xlink:href="#ArialMT-31"/>
       <use x="114.013672" xlink:href="#ArialMT-35"/>
      </g>
     </g>
    </g>
    <g id="ytick_4">
     <g id="text_13">
      <!-- −10 -->
      <g style="fill:#262626;" transform="translate(77.14125 258.785117)scale(0.11 -0.11)">
       <use xlink:href="#ArialMT-2212"/>
       <use x="58.398438" xlink:href="#ArialMT-31"/>
       <use x="114.013672" xlink:href="#ArialMT-30"/>
      </g>
     </g>
    </g>
    <g id="ytick_5">
     <g id="text_14">
      <!-- −5 -->
      <g style="fill:#262626;" transform="translate(83.258281 167.087357)scale(0.11 -0.11)">
       <use xlink:href="#ArialMT-2212"/>
       <use x="58.398438" xlink:href="#ArialMT-35"/>
      </g>
     </g>
    </g>
    <g id="ytick_6">
     <g id="text_15">
      <!-- 0 -->
      <g style="fill:#262626;" transform="translate(89.682969 75.389597)scale(0.11 -0.11)">
       <use xlink:href="#ArialMT-30"/>
      </g>
     </g>
    </g>
   </g>
   <g id="line2d_1">
    <path clip-path="url(#pfe1d5dd7bc)" d="M 134.975455 420.163174 
L 137.899145 419.435417 
L 140.822835 417.525059 
L 143.746525 419.129903 
L 146.670215 419.789939 
L 149.593905 420.275215 
L 152.517595 418.996034 
L 155.441285 420.070687 
L 158.364975 419.941542 
L 161.288665 418.341385 
L 164.212356 419.162539 
L 167.136046 422.93117 
L 170.059736 430.720919 
L 172.983426 440.718529 
L 175.907116 447.487738 
L 178.830806 475.735283 
L 181.754496 490.689723 
L 184.678186 416.59134 
L 187.601876 422.103895 
L 190.525567 548.387351 
L 193.449257 512.039612 
L 196.372947 489.84181 
L 199.296637 539.511511 
L 202.220327 465.690589 
L 205.144017 484.202592 
L 208.067707 580.471738 
L 210.991397 476.934114 
L 213.915087 466.572223 
L 216.838777 490.497613 
L 219.762468 497.602245 
L 222.686158 456.329508 
L 225.609848 431.612452 
L 228.533538 432.732754 
L 231.457228 461.177899 
L 234.380918 373.821637 
L 237.304608 495.837018 
L 240.228298 545.833537 
L 243.151988 563.872821 
L 246.075678 473.063342 
L 248.999369 455.847554 
L 251.923059 506.875211 
L 254.846749 509.994756 
L 257.770439 550.669371 
L 260.694129 466.519263 
L 263.617819 536.391372 
L 266.541509 400.32956 
L 269.465199 381.117399 
L 272.388889 438.073558 
L 275.312579 488.103692 
L 278.23627 513.55858 
L 281.15996 506.458531 
L 284.08365 458.282227 
L 287.00734 452.664067 
L 289.93103 500.425544 
L 292.85472 451.191587 
L 295.77841 433.386598 
L 298.7021 506.774959 
L 304.549481 397.365222 
L 307.473171 378.636448 
L 310.396861 441.325011 
L 313.320551 408.637781 
L 316.244241 434.135728 
L 319.167931 450.523436 
L 322.091621 459.450276 
L 325.015311 355.269005 
L 327.939001 380.405837 
L 330.862691 456.855956 
L 333.786382 472.952245 
L 336.710072 442.949234 
L 339.633762 505.659939 
L 342.557452 516.104768 
L 345.481142 444.410765 
L 348.404832 452.843164 
L 351.328522 452.358168 
L 354.252212 471.869792 
L 357.175902 463.982869 
L 360.099592 473.701795 
L 363.023283 556.119767 
L 365.946973 449.620919 
L 368.870663 485.998776 
L 371.794353 494.623879 
L 374.718043 538.99066 
L 377.611651 596.44 
M 377.777199 596.44 
L 380.565423 584.147148 
L 383.489113 497.926229 
L 386.412803 425.207104 
L 389.336494 465.808716 
L 392.260184 458.873667 
L 395.183874 510.1954 
L 398.107564 511.929215 
L 401.031254 502.299698 
L 403.954944 509.095597 
L 406.878634 530.337992 
L 409.802324 404.133137 
L 412.726014 353.164963 
L 415.649704 468.185567 
L 418.573395 436.92069 
L 421.497085 477.067178 
L 424.420775 542.884135 
L 427.344465 478.239215 
L 430.268155 523.227834 
L 433.191845 496.50419 
L 436.115535 377.855871 
L 439.039225 441.550002 
L 441.962915 492.473419 
L 444.886605 486.440712 
L 447.810296 405.344176 
L 450.733986 388.654382 
L 453.657676 436.67646 
L 456.581366 361.505925 
L 459.505056 466.296896 
L 462.428746 427.282393 
L 465.352436 475.26113 
L 468.276126 475.578013 
L 471.199816 464.820149 
L 474.123506 500.892771 
L 477.047197 477.54266 
L 479.970887 393.330113 
L 482.894577 480.976149 
L 485.818267 453.536116 
L 488.741957 455.783331 
L 491.665647 418.075818 
L 494.589337 399.464087 
L 497.513027 501.858951 
L 500.436717 448.985544 
L 503.360408 399.374049 
L 506.284098 454.141059 
L 509.207788 531.981139 
L 512.131478 560.538116 
L 515.055168 562.706906 
L 517.978858 461.534765 
L 520.902548 503.677977 
L 523.826238 505.810493 
L 526.749928 441.759672 
L 529.673618 471.894243 
L 532.597309 511.995572 
L 535.520999 429.914422 
L 538.444689 397.632363 
L 541.368379 467.506012 
L 544.292069 497.968589 
L 547.215759 444.807927 
L 550.139449 484.706827 
L 553.063139 378.304944 
L 555.986829 439.354173 
L 558.910519 423.146752 
L 561.83421 452.665396 
L 564.7579 459.083547 
L 567.68159 405.81714 
L 570.60528 420.198819 
L 573.52897 433.141389 
L 576.45266 461.737438 
L 579.37635 518.539825 
L 582.30004 535.329557 
L 585.22373 457.680992 
L 588.147421 402.95176 
L 591.071111 367.76287 
L 593.994801 414.302184 
L 596.918491 371.170264 
L 599.842181 413.321207 
L 602.765871 393.970386 
L 605.689561 395.786333 
L 608.613251 409.418008 
L 611.536941 480.818495 
L 614.460631 497.062575 
L 617.384322 388.479693 
L 620.308012 456.095282 
L 623.231702 442.579916 
L 626.155392 439.115645 
L 629.079082 443.123189 
L 632.002772 496.975579 
L 634.926462 504.477408 
L 637.850152 541.952935 
L 640.773842 426.377042 
L 643.697532 372.570895 
L 646.621223 418.052976 
L 649.544913 455.020699 
L 652.468603 527.830982 
L 655.392293 532.252129 
L 658.315983 518.047553 
L 661.239673 568.873446 
L 664.163363 480.420248 
L 667.087053 519.381652 
L 670.010743 490.998701 
L 672.934433 415.257136 
L 675.858124 440.926765 
L 678.781814 416.300167 
L 681.705504 489.21441 
L 684.629194 531.156593 
L 687.552884 486.826471 
L 690.476574 593.251127 
L 693.400264 485.602768 
L 696.323954 476.931841 
L 699.247644 446.166477 
L 702.171335 434.330811 
L 705.095025 439.997313 
L 708.018715 433.321081 
L 710.942405 436.921459 
L 713.866095 433.153282 
L 716.789785 434.099559 
L 719.713475 433.954637 
L 722.637165 432.600984 
L 725.560855 435.112647 
L 728.484545 438.155446 
L 728.484545 438.155446 
" style="fill:none;stroke:#4c72b0;stroke-linecap:round;stroke-width:1.5;"/>
   </g>
   <g id="line2d_2">
    <path clip-path="url(#pfe1d5dd7bc)" d="M 134.975455 403.487022 
L 137.899145 405.034779 
L 140.822835 404.802198 
L 143.746525 406.437649 
L 146.670215 407.546582 
L 149.593905 408.16821 
L 152.517595 407.338976 
L 155.441285 406.26198 
L 158.364975 405.68635 
L 161.288665 404.342946 
L 164.212356 402.274688 
L 167.136046 403.331607 
L 170.059736 414.828842 
L 172.983426 420.527385 
L 175.907116 430.462067 
L 178.830806 464.641961 
L 181.754496 474.649366 
L 184.678186 416.679944 
L 187.601876 402.319673 
L 190.525567 545.76711 
L 193.449257 508.416672 
L 196.372947 495.007539 
L 199.296637 535.243262 
L 202.220327 487.597323 
L 205.144017 517.605826 
L 208.067707 591.841716 
L 210.991397 511.223775 
L 213.915087 462.521198 
L 216.838777 495.209863 
L 219.762468 488.405779 
L 222.686158 453.836734 
L 225.609848 422.419449 
L 228.533538 414.008073 
L 231.457228 450.923151 
L 234.380918 373.270564 
L 237.304608 499.896822 
L 240.228298 541.416413 
L 243.151988 568.242233 
L 246.075678 495.240436 
L 248.999369 498.05394 
L 251.923059 523.687855 
L 254.846749 528.324198 
L 257.770439 572.060991 
L 260.694129 498.452921 
L 263.617819 552.025333 
L 266.541509 428.826756 
L 269.465199 404.39636 
L 272.388889 465.675198 
L 275.312579 518.839953 
L 278.23627 531.050953 
L 281.15996 528.40829 
L 284.08365 459.595128 
L 287.00734 464.507113 
L 289.93103 527.265846 
L 292.85472 479.689168 
L 295.77841 437.285915 
L 298.7021 517.639617 
L 301.62579 459.369927 
L 304.549481 405.788631 
L 307.473171 398.887408 
L 310.396861 431.816035 
L 313.320551 425.472986 
L 316.244241 446.072836 
L 319.167931 495.333342 
L 322.091621 475.129011 
L 325.015311 364.774938 
L 327.939001 419.923527 
L 330.862691 469.373625 
L 333.786382 470.241931 
L 336.710072 487.766591 
L 339.633762 537.560751 
L 342.557452 513.926953 
L 345.481142 441.334946 
L 348.404832 457.00504 
L 351.328522 478.688252 
L 354.252212 401.85409 
L 357.175902 328.11147 
L 360.099592 258.303636 
L 363.023283 277.243251 
L 365.946973 329.443488 
L 368.870663 351.852184 
L 371.794353 381.963109 
L 374.718043 403.955963 
L 377.641733 445.188788 
L 380.565423 484.588945 
L 383.489113 398.541457 
L 386.412803 405.618979 
L 389.336494 428.916759 
L 392.260184 437.419153 
L 395.183874 483.035697 
L 398.107564 474.961212 
L 401.031254 469.35477 
L 403.954944 521.015424 
L 406.878634 502.118222 
L 409.802324 433.343538 
L 412.726014 402.049663 
L 415.649704 477.749112 
L 418.573395 416.758229 
L 421.497085 456.651568 
L 424.420775 490.074146 
L 427.344465 420.081776 
L 430.268155 461.487192 
L 433.191845 448.413762 
L 436.115535 359.720585 
L 439.039225 466.836811 
L 441.962915 507.682548 
L 444.886605 457.825074 
L 447.810296 376.914981 
L 450.733986 409.664721 
L 453.657676 422.671794 
L 456.581366 383.204616 
L 459.505056 458.767363 
L 462.428746 412.593275 
L 465.352436 472.028146 
L 468.276126 458.306118 
L 471.199816 466.669152 
L 474.123506 485.635125 
L 477.047197 493.73539 
L 479.970887 383.329004 
L 482.894577 472.965293 
L 485.818267 457.874116 
L 488.741957 455.976141 
L 491.665647 431.279863 
L 494.589337 398.320279 
L 497.513027 499.644023 
L 500.436717 450.240518 
L 503.360408 397.129667 
L 506.284098 461.509089 
L 509.207788 522.817695 
L 512.131478 534.068041 
L 515.055168 556.169474 
L 517.978858 478.462562 
L 520.902548 501.949374 
L 523.826238 495.748379 
L 526.749928 444.909648 
L 529.673618 468.295963 
L 532.597309 499.672671 
L 535.520999 424.251033 
L 538.444689 387.225942 
L 541.368379 427.276901 
L 544.292069 495.578097 
L 547.215759 416.663119 
L 550.139449 458.143636 
L 553.063139 383.032969 
L 555.986829 391.127917 
L 558.910519 382.498756 
L 561.83421 383.836808 
L 564.7579 451.949217 
L 567.68159 423.009071 
L 570.60528 507.632562 
L 573.52897 236.585986 
L 576.45266 305.398344 
L 579.37635 401.751074 
L 582.30004 387.077592 
L 585.22373 410.42382 
L 588.147421 368.260914 
L 591.071111 359.948146 
L 593.994801 413.131546 
L 596.918491 355.825903 
L 599.842181 449.846749 
L 602.765871 391.554637 
L 605.689561 406.823582 
L 608.613251 475.153916 
L 611.536941 492.491678 
L 614.460631 505.73637 
L 617.384322 463.836268 
L 620.308012 480.944387 
L 623.231702 431.22344 
L 626.155392 452.081266 
L 629.079082 428.535583 
L 632.002772 502.144247 
L 634.926462 493.627022 
L 637.850152 513.605208 
L 640.773842 416.893951 
L 643.697532 325.795292 
L 646.621223 403.404015 
L 649.544913 471.642947 
L 652.468603 521.356373 
L 655.392293 553.618738 
L 658.315983 486.520781 
L 661.239673 557.398913 
L 664.163363 461.993981 
L 667.087053 520.985831 
L 670.010743 490.954626 
L 672.934433 411.002423 
L 675.858124 439.869112 
L 678.781814 418.825088 
L 681.705504 476.961644 
L 684.629194 518.124649 
L 687.552884 469.783065 
L 690.476574 575.275296 
L 693.400264 502.539241 
L 696.323954 485.356405 
L 702.171335 419.397149 
L 705.095025 425.049589 
L 708.018715 421.339304 
L 710.942405 423.656794 
L 713.866095 416.57448 
L 719.713475 421.058276 
L 722.637165 416.083816 
L 725.560855 420.37127 
L 728.484545 415.523963 
L 728.484545 415.523963 
" style="fill:none;stroke:#dd8452;stroke-dasharray:6,2.25;stroke-dashoffset:0;stroke-width:1.5;"/>
   </g>
   <g id="line2d_3">
    <path clip-path="url(#pfe1d5dd7bc)" d="M 134.975455 404.460898 
L 137.899145 405.345156 
L 140.822835 404.46611 
L 143.746525 405.458456 
L 146.670215 410.116417 
L 149.593905 409.745665 
L 152.517595 409.078423 
L 155.441285 420.359797 
L 158.364975 422.517358 
L 161.288665 413.363883 
L 164.212356 412.600201 
L 170.059736 404.476185 
L 172.983426 417.439148 
L 175.907116 429.341136 
L 178.830806 453.365414 
L 181.754496 458.227868 
L 184.678186 358.724899 
L 187.601876 382.270232 
L 190.525567 434.345048 
L 193.449257 421.081782 
L 196.372947 443.685036 
L 199.296637 500.1017 
L 202.220327 528.267251 
L 205.144017 471.664809 
L 208.067707 408.958547 
L 210.991397 498.91756 
L 213.915087 515.706102 
L 216.838777 487.487591 
L 219.762468 477.537273 
L 222.686158 446.458594 
L 225.609848 394.725217 
L 228.533538 411.351698 
L 231.457228 473.187695 
L 234.380918 391.177274 
L 237.304608 534.822208 
L 240.228298 568.294143 
L 243.151988 584.045181 
L 246.075678 484.213436 
L 248.999369 519.159739 
L 251.923059 504.426932 
L 254.846749 562.103397 
L 257.625012 596.44 
M 257.817001 596.44 
L 260.694129 485.379281 
L 263.617819 538.731424 
L 266.541509 421.377083 
L 269.465199 434.710308 
L 272.388889 460.028389 
L 275.312579 510.821961 
L 278.23627 528.66165 
L 281.15996 509.323211 
L 284.08365 504.441728 
L 287.00734 342.864688 
L 289.93103 407.208886 
L 292.85472 383.50261 
L 295.77841 447.44195 
L 298.7021 537.975368 
L 301.62579 501.16432 
L 304.549481 417.791431 
L 307.473171 397.817127 
L 310.396861 473.248875 
L 313.320551 465.468361 
L 316.244241 470.128386 
L 319.167931 526.256011 
L 322.091621 493.105261 
L 325.015311 367.043158 
L 327.939001 420.019127 
L 330.862691 498.447045 
L 333.786382 501.857587 
L 336.710072 498.462226 
L 339.633762 555.781301 
L 342.557452 566.882249 
L 345.481142 485.509826 
L 348.404832 511.997706 
L 351.328522 525.952805 
L 354.252212 460.823063 
L 357.175902 468.552226 
L 360.099592 395.380916 
L 363.023283 414.362769 
L 365.946973 367.142222 
L 368.870663 436.313508 
L 371.794353 356.76326 
L 374.718043 431.966903 
L 377.641733 479.111544 
L 380.565423 456.979645 
L 383.489113 411.498578 
L 386.412803 455.48142 
L 389.336494 471.376085 
L 392.260184 470.653785 
L 395.183874 480.318212 
L 398.107564 542.108735 
L 401.031254 485.247967 
L 403.954944 551.758681 
L 406.878634 524.691149 
L 409.802324 440.411266 
L 412.726014 384.112974 
L 415.649704 528.039252 
L 418.573395 504.472021 
L 421.497085 501.775839 
L 424.420775 542.849575 
L 427.344465 463.051459 
L 430.268155 481.948311 
L 433.191845 391.332935 
L 436.115535 327.758715 
L 439.039225 489.295283 
L 441.962915 476.139651 
L 444.886605 450.992272 
L 447.810296 429.372827 
L 450.733986 377.37899 
L 453.657676 372.921219 
L 456.581366 392.148911 
L 459.505056 503.290574 
L 462.428746 428.197957 
L 465.352436 484.099471 
L 468.276126 472.706756 
L 471.199816 448.960218 
L 474.123506 450.776306 
L 477.047197 499.362749 
L 479.970887 397.190952 
L 482.894577 449.162297 
L 485.818267 436.842195 
L 488.741957 465.308363 
L 491.665647 404.241819 
L 494.589337 390.427095 
L 497.513027 459.76513 
L 500.436717 377.704758 
L 503.360408 409.663672 
L 506.284098 423.646999 
L 509.207788 527.577027 
L 512.131478 517.13832 
L 515.055168 352.903785 
L 517.978858 380.237689 
L 520.902548 384.950569 
L 523.826238 395.654144 
L 526.749928 466.581213 
L 529.673618 434.026766 
L 532.597309 434.122926 
L 535.520999 433.370263 
L 538.444689 405.256307 
L 541.368379 449.493137 
L 544.292069 534.032152 
L 547.215759 436.499077 
L 550.139449 473.227083 
L 553.063139 353.029626 
L 555.986829 360.309122 
L 558.910519 449.408766 
L 561.83421 414.092374 
L 564.7579 399.993963 
L 567.68159 430.611082 
L 570.60528 414.67507 
L 573.52897 411.709402 
L 576.45266 464.150493 
L 579.37635 460.362622 
L 582.30004 466.38522 
L 585.22373 493.896717 
L 588.147421 378.889528 
L 591.071111 318.224536 
L 593.994801 354.549276 
L 596.918491 358.15658 
L 599.842181 394.154345 
L 602.765871 365.885743 
L 605.689561 458.902386 
L 608.613251 464.779782 
L 611.536941 494.80588 
L 614.460631 512.65169 
L 617.384322 446.531807 
L 620.308012 479.138024 
L 623.231702 430.398509 
L 626.155392 435.159031 
L 629.079082 433.055478 
L 632.002772 522.422002 
L 634.926462 500.036113 
L 637.850152 518.37451 
L 640.773842 411.077035 
L 643.697532 361.195828 
L 646.621223 392.150975 
L 649.544913 444.835246 
L 652.468603 436.308226 
L 655.392293 565.254983 
L 658.315983 490.980581 
L 661.239673 463.940089 
L 664.163363 433.230378 
L 667.087053 446.271277 
L 670.010743 440.692224 
L 672.934433 379.874737 
L 675.858124 508.317539 
L 678.781814 474.304744 
L 681.705504 479.868265 
L 684.629194 491.344512 
L 687.552884 522.708347 
L 690.476574 545.868552 
L 693.400264 494.024953 
L 696.323954 476.950905 
L 699.247644 440.799683 
L 702.171335 421.343992 
L 705.095025 421.020812 
L 708.018715 415.97321 
L 710.942405 424.200802 
L 713.866095 413.497996 
L 716.789785 415.575383 
L 719.713475 414.947389 
L 722.637165 415.813736 
L 725.560855 417.603589 
L 728.484545 416.457507 
L 728.484545 416.457507 
" style="fill:none;stroke:#55a868;stroke-dasharray:1.5,1.5;stroke-dashoffset:0;stroke-width:1.5;"/>
   </g>
   <g id="line2d_4">
    <path clip-path="url(#pfe1d5dd7bc)" d="M 134.975455 403.392717 
L 137.899145 404.921794 
L 140.822835 404.744725 
L 143.746525 406.309692 
L 146.670215 407.485507 
L 149.593905 408.18598 
L 152.517595 407.41894 
L 155.441285 406.439503 
L 158.364975 405.950588 
L 161.288665 404.675535 
L 164.212356 402.569394 
L 167.136046 403.828427 
L 170.059736 415.334301 
L 172.983426 421.005771 
L 175.907116 430.934821 
L 178.830806 465.406447 
L 181.754496 475.928897 
L 184.678186 417.934709 
L 187.601876 403.45736 
L 190.525567 547.072281 
L 193.449257 510.941872 
L 196.372947 495.52846 
L 199.296637 536.870073 
L 202.220327 489.216159 
L 205.144017 515.131312 
L 208.067707 592.725728 
L 210.991397 503.181892 
L 213.915087 465.81865 
L 216.838777 488.659908 
L 219.762468 489.369301 
L 222.686158 453.827604 
L 225.609848 422.053909 
L 228.533538 414.418037 
L 231.457228 452.770861 
L 234.380918 373.882817 
L 237.304608 504.419551 
L 240.228298 545.483458 
L 243.151988 570.106663 
L 246.075678 495.413831 
L 248.999369 497.571707 
L 251.923059 523.811684 
L 254.846749 528.005461 
L 257.770439 570.101066 
L 260.694129 495.321099 
L 263.617819 549.925033 
L 266.541509 422.474018 
L 269.465199 405.62454 
L 275.312579 522.804507 
L 278.23627 531.212735 
L 281.15996 523.532334 
L 284.08365 458.803917 
L 287.00734 473.662513 
L 289.93103 528.536597 
L 292.85472 472.757967 
L 295.77841 437.607031 
L 298.7021 516.083256 
L 301.62579 457.678124 
L 304.549481 408.252302 
L 307.473171 398.202571 
L 310.396861 434.066958 
L 313.320551 424.105866 
L 316.244241 443.791026 
L 319.167931 493.088646 
L 322.091621 486.664654 
L 325.015311 360.058351 
L 327.939001 411.871429 
L 330.862691 487.048138 
L 333.786382 472.585376 
L 336.710072 491.680879 
L 339.633762 552.664905 
L 342.557452 516.983639 
L 345.481142 437.211513 
L 348.404832 421.368967 
L 351.328522 513.890364 
L 354.252212 360.950444 
L 357.175902 416.902836 
L 360.099592 359.10081 
L 363.023283 482.028485 
L 365.946973 369.660496 
L 368.870663 396.243066 
L 371.794353 426.656427 
L 374.718043 451.399053 
L 377.641733 464.436174 
L 380.565423 497.192035 
L 383.489113 397.838675 
L 386.412803 409.067299 
L 389.336494 430.187685 
L 392.260184 438.886491 
L 395.183874 484.876445 
L 401.031254 473.025948 
L 403.954944 514.605914 
L 406.878634 493.792687 
L 409.802324 435.421275 
L 412.726014 399.87727 
L 415.649704 481.148285 
L 418.573395 418.543114 
L 421.497085 460.212559 
L 424.420775 497.685602 
L 427.344465 425.17006 
L 430.268155 458.767643 
L 433.191845 442.299027 
L 436.115535 358.125868 
L 439.039225 465.051156 
L 441.962915 506.80889 
L 444.886605 454.882319 
L 447.810296 376.073889 
L 453.657676 431.323098 
L 456.581366 386.075977 
L 459.505056 459.716578 
L 462.428746 409.36239 
L 465.352436 476.092777 
L 468.276126 455.37557 
L 471.199816 467.223759 
L 474.123506 488.72609 
L 477.047197 497.589232 
L 479.970887 381.94331 
L 482.894577 474.239087 
L 485.818267 458.989836 
L 488.741957 457.058734 
L 491.665647 432.777703 
L 494.589337 399.042474 
L 497.513027 501.661 
L 503.360408 397.286692 
L 506.284098 458.625205 
L 509.207788 526.272171 
L 512.131478 535.292233 
L 515.055168 555.087265 
L 517.978858 461.09804 
L 520.902548 495.335651 
L 523.826238 499.129188 
L 526.749928 444.447109 
L 529.673618 462.511859 
L 532.597309 499.808743 
L 535.520999 432.202178 
L 538.444689 396.771228 
L 541.368379 438.26962 
L 544.292069 502.080689 
L 547.215759 413.045915 
L 550.139449 464.346975 
L 553.063139 344.737723 
L 555.986829 412.461785 
L 558.910519 473.194201 
L 561.83421 448.747855 
L 564.7579 459.449437 
L 567.68159 398.997979 
L 570.60528 361.981599 
L 573.52897 353.641179 
L 576.45266 389.789935 
L 579.37635 439.41976 
L 582.30004 418.152214 
L 585.22373 461.500449 
L 588.147421 372.236977 
L 591.071111 337.880487 
L 593.994801 430.754045 
L 596.918491 380.609001 
L 599.842181 442.976518 
L 602.765871 411.525653 
L 605.689561 409.543831 
L 608.613251 473.171989 
L 611.536941 488.661028 
L 614.460631 512.441461 
L 617.384322 463.213101 
L 620.308012 481.290024 
L 623.231702 436.296788 
L 626.155392 451.249059 
L 629.079082 431.234179 
L 632.002772 504.154928 
L 634.926462 500.280937 
L 637.850152 515.624879 
L 643.697532 324.595726 
L 646.621223 407.155996 
L 649.544913 471.746802 
L 652.468603 522.533833 
L 655.392293 553.800459 
L 658.315983 487.675888 
L 661.239673 558.066225 
L 664.163363 461.536304 
L 667.087053 520.573978 
L 670.010743 491.124034 
L 672.934433 410.515713 
L 675.858124 439.466808 
L 678.781814 420.299981 
L 681.705504 476.781637 
L 684.629194 519.598073 
L 687.552884 471.213708 
L 690.476574 577.071235 
L 693.400264 503.763503 
L 696.323954 486.464463 
L 699.247644 455.433252 
L 702.171335 420.480442 
L 705.095025 426.420942 
L 708.018715 423.448244 
L 710.942405 426.344791 
L 713.866095 419.424468 
L 716.789785 420.652159 
L 719.713475 422.992805 
L 722.637165 418.448634 
L 725.560855 422.863204 
L 728.484545 418.363423 
L 728.484545 418.363423 
" style="fill:none;stroke:#c44e52;stroke-dasharray:4.5,1.875,2.25,1.875;stroke-dashoffset:0;stroke-width:1.5;"/>
   </g>
   <g id="line2d_5">
    <path clip-path="url(#pfe1d5dd7bc)" d="M 134.975455 405.767853 
L 137.899145 407.465499 
L 140.822835 407.593525 
L 143.746525 409.273471 
L 149.593905 411.39983 
L 152.517595 411.150773 
L 155.441285 409.967088 
L 158.364975 409.893105 
L 161.288665 408.460048 
L 164.212356 405.133387 
L 167.136046 406.024326 
L 170.059736 415.243564 
L 172.983426 420.757728 
L 175.907116 429.10719 
L 178.830806 462.199558 
L 181.754496 480.526237 
L 184.678186 413.094642 
L 187.601876 418.937793 
L 190.525567 552.852783 
L 193.449257 519.160579 
L 196.372947 504.662137 
L 199.296637 547.779295 
L 202.220327 488.225073 
L 205.144017 509.528438 
L 208.067707 594.759426 
L 210.991397 502.81016 
L 213.915087 454.658237 
L 216.838777 489.398159 
L 219.762468 488.370834 
L 222.686158 457.572519 
L 225.609848 433.300688 
L 228.533538 421.535821 
L 231.457228 457.033199 
L 234.380918 374.377328 
L 237.304608 500.255297 
L 240.228298 542.668764 
L 243.151988 570.177462 
L 246.075678 490.505239 
L 248.999369 487.749591 
L 251.923059 527.219917 
L 254.846749 531.156173 
L 257.770439 574.043093 
L 260.694129 490.910236 
L 263.617819 547.605235 
L 266.541509 421.908847 
L 269.465199 403.730098 
L 272.388889 460.257158 
L 275.312579 519.234037 
L 278.23627 534.334518 
L 281.15996 535.191841 
L 284.08365 471.82033 
L 287.00734 474.621557 
L 289.93103 528.14678 
L 292.85472 475.509207 
L 295.77841 438.378128 
L 298.7021 512.863879 
L 301.62579 458.427953 
L 304.549481 408.922412 
L 307.473171 399.290586 
L 310.396861 450.664895 
L 313.320551 426.287704 
L 316.244241 445.033267 
L 319.167931 491.84399 
L 322.091621 492.892863 
L 325.015311 362.215405 
L 327.939001 401.760728 
L 330.862691 403.872291 
L 333.786382 446.10862 
L 336.710072 454.053294 
L 339.633762 487.529672 
L 342.557452 504.667699 
L 345.481142 477.415333 
L 348.404832 441.181069 
L 351.328522 446.860968 
L 354.252212 516.113408 
L 357.175902 494.452653 
L 360.099592 491.606896 
L 363.023283 568.975482 
L 365.946973 448.904635 
L 368.870663 461.960995 
L 371.794353 447.720985 
L 374.718043 488.683275 
L 377.641733 554.311025 
L 380.565423 554.00782 
L 383.489113 469.33011 
L 386.412803 405.640666 
L 389.336494 439.294217 
L 392.260184 456.2203 
L 395.183874 506.88714 
L 398.107564 479.771476 
L 401.031254 495.349713 
L 403.954944 530.740856 
L 406.878634 521.868829 
L 409.802324 440.292614 
L 412.726014 384.625255 
L 415.649704 512.512016 
L 418.573395 434.181132 
L 421.497085 470.947371 
L 424.420775 513.910618 
L 427.344465 437.969667 
L 430.268155 461.761574 
L 433.191845 449.284482 
L 436.115535 357.621195 
L 439.039225 459.749285 
L 441.962915 507.861051 
L 444.886605 460.153198 
L 447.810296 382.977736 
L 450.733986 407.650542 
L 453.657676 418.087606 
L 456.581366 376.348587 
L 459.505056 437.525737 
L 462.428746 395.820544 
L 465.352436 465.840303 
L 468.276126 454.754642 
L 471.199816 470.475142 
L 474.123506 495.586667 
L 477.047197 492.337382 
L 479.970887 389.368148 
L 482.894577 478.503279 
L 485.818267 459.946152 
L 488.741957 435.141506 
L 491.665647 482.821375 
L 494.589337 361.551783 
L 497.513027 434.179628 
L 500.436717 414.264581 
L 503.360408 448.722949 
L 506.284098 500.614191 
L 509.207788 418.588099 
L 512.131478 461.091219 
L 515.055168 430.218012 
L 517.978858 483.546439 
L 520.902548 524.201745 
L 523.826238 526.376587 
L 526.749928 482.554478 
L 529.673618 405.091272 
L 532.597309 349.160497 
L 535.520999 409.662098 
L 538.444689 383.178766 
L 541.368379 334.657735 
L 544.292069 346.986477 
L 547.215759 356.146861 
L 550.139449 329.679532 
L 553.063139 289.329706 
L 555.986829 312.528073 
L 558.910519 304.737573 
L 564.7579 327.892653 
L 567.68159 303.158195 
L 570.60528 354.760572 
L 573.52897 386.84718 
L 576.45266 415.441305 
L 579.37635 457.138069 
L 582.30004 420.819782 
L 585.22373 440.189143 
L 588.147421 359.269291 
L 591.071111 319.516729 
L 593.994801 399.642799 
L 596.918491 373.584578 
L 599.842181 420.085239 
L 602.765871 411.859921 
L 605.689561 413.331806 
L 608.613251 457.110434 
L 611.536941 483.784477 
L 614.460631 508.356646 
L 617.384322 456.574822 
L 620.308012 485.92231 
L 623.231702 435.132201 
L 626.155392 444.128407 
L 629.079082 430.933072 
L 632.002772 509.521652 
L 634.926462 509.180843 
L 637.850152 515.707326 
L 640.773842 408.746218 
L 643.697532 321.253325 
L 646.621223 396.020139 
L 649.544913 457.749762 
L 652.468603 514.2544 
L 655.392293 540.789188 
L 658.315983 486.128656 
L 661.239673 549.276471 
L 664.163363 452.386571 
L 667.087053 509.985766 
L 670.010743 485.089998 
L 672.934433 410.801603 
L 675.858124 432.917063 
L 678.781814 408.327019 
L 681.705504 477.62042 
L 684.629194 516.626529 
L 687.552884 467.088317 
L 690.476574 562.217712 
L 693.400264 492.127398 
L 696.323954 479.007899 
L 699.247644 450.099724 
L 702.171335 416.210828 
L 705.095025 423.023203 
L 708.018715 419.088941 
L 710.942405 423.168229 
L 713.866095 417.823787 
L 716.789785 418.783531 
L 719.713475 420.524377 
L 722.637165 416.643985 
L 725.560855 421.152476 
L 728.484545 417.53961 
L 728.484545 417.53961 
" style="fill:none;stroke:#8172b3;stroke-dasharray:7.5,1.5,1.5,1.5;stroke-dashoffset:0;stroke-width:1.5;"/>
   </g>
   <g id="line2d_6"/>
   <g id="line2d_7"/>
   <g id="line2d_8"/>
   <g id="line2d_9"/>
   <g id="line2d_10"/>
   <g id="patch_3">
    <path d="M 105.3 529.9416 
L 105.3 71.4528 
" style="fill:none;stroke:#262626;stroke-linecap:square;stroke-linejoin:miter;stroke-width:1.25;"/>
   </g>
   <g id="patch_4">
    <path d="M 758.16 529.9416 
L 758.16 71.4528 
" style="fill:none;stroke:#262626;stroke-linecap:square;stroke-linejoin:miter;stroke-width:1.25;"/>
   </g>
   <g id="patch_5">
    <path d="M 105.3 529.9416 
L 758.16 529.9416 
" style="fill:none;stroke:#262626;stroke-linecap:square;stroke-linejoin:miter;stroke-width:1.25;"/>
   </g>
   <g id="patch_6">
    <path d="M 105.3 71.4528 
L 758.16 71.4528 
" style="fill:none;stroke:#262626;stroke-linecap:square;stroke-linejoin:miter;stroke-width:1.25;"/>
   </g>
   <g id="text_16">
    <!-- Activations for &gt;}&lt; -->
    <g style="fill:#262626;" transform="translate(383.37 65.4528)scale(0.12 -0.12)">
     <defs>
      <path d="M -9 0 
L 1750 4581 
L 2403 4581 
L 4278 0 
L 3588 0 
L 3053 1388 
L 1138 1388 
L 634 0 
L -9 0 
z
M 1313 1881 
L 2866 1881 
L 2388 3150 
Q 2169 3728 2063 4100 
Q 1975 3659 1816 3225 
L 1313 1881 
z
" id="ArialMT-41" transform="scale(0.015625)"/>
      <path d="M 2588 1216 
L 3141 1144 
Q 3050 572 2676 248 
Q 2303 -75 1759 -75 
Q 1078 -75 664 370 
Q 250 816 250 1647 
Q 250 2184 428 2587 
Q 606 2991 970 3192 
Q 1334 3394 1763 3394 
Q 2303 3394 2647 3120 
Q 2991 2847 3088 2344 
L 2541 2259 
Q 2463 2594 2264 2762 
Q 2066 2931 1784 2931 
Q 1359 2931 1093 2626 
Q 828 2322 828 1663 
Q 828 994 1084 691 
Q 1341 388 1753 388 
Q 2084 388 2306 591 
Q 2528 794 2588 1216 
z
" id="ArialMT-63" transform="scale(0.015625)"/>
      <path d="M 1650 503 
L 1731 6 
Q 1494 -44 1306 -44 
Q 1000 -44 831 53 
Q 663 150 594 308 
Q 525 466 525 972 
L 525 2881 
L 113 2881 
L 113 3319 
L 525 3319 
L 525 4141 
L 1084 4478 
L 1084 3319 
L 1650 3319 
L 1650 2881 
L 1084 2881 
L 1084 941 
Q 1084 700 1114 631 
Q 1144 563 1211 522 
Q 1278 481 1403 481 
Q 1497 481 1650 503 
z
" id="ArialMT-74" transform="scale(0.015625)"/>
      <path d="M 425 3934 
L 425 4581 
L 988 4581 
L 988 3934 
L 425 3934 
z
M 425 0 
L 425 3319 
L 988 3319 
L 988 0 
L 425 0 
z
" id="ArialMT-69" transform="scale(0.015625)"/>
      <path d="M 1344 0 
L 81 3319 
L 675 3319 
L 1388 1331 
Q 1503 1009 1600 663 
Q 1675 925 1809 1294 
L 2547 3319 
L 3125 3319 
L 1869 0 
L 1344 0 
z
" id="ArialMT-76" transform="scale(0.015625)"/>
      <path d="M 2588 409 
Q 2275 144 1986 34 
Q 1697 -75 1366 -75 
Q 819 -75 525 192 
Q 231 459 231 875 
Q 231 1119 342 1320 
Q 453 1522 633 1644 
Q 813 1766 1038 1828 
Q 1203 1872 1538 1913 
Q 2219 1994 2541 2106 
Q 2544 2222 2544 2253 
Q 2544 2597 2384 2738 
Q 2169 2928 1744 2928 
Q 1347 2928 1158 2789 
Q 969 2650 878 2297 
L 328 2372 
Q 403 2725 575 2942 
Q 747 3159 1072 3276 
Q 1397 3394 1825 3394 
Q 2250 3394 2515 3294 
Q 2781 3194 2906 3042 
Q 3031 2891 3081 2659 
Q 3109 2516 3109 2141 
L 3109 1391 
Q 3109 606 3145 398 
Q 3181 191 3288 0 
L 2700 0 
Q 2613 175 2588 409 
z
M 2541 1666 
Q 2234 1541 1622 1453 
Q 1275 1403 1131 1340 
Q 988 1278 909 1158 
Q 831 1038 831 891 
Q 831 666 1001 516 
Q 1172 366 1500 366 
Q 1825 366 2078 508 
Q 2331 650 2450 897 
Q 2541 1088 2541 1459 
L 2541 1666 
z
" id="ArialMT-61" transform="scale(0.015625)"/>
      <path d="M 213 1659 
Q 213 2581 725 3025 
Q 1153 3394 1769 3394 
Q 2453 3394 2887 2945 
Q 3322 2497 3322 1706 
Q 3322 1066 3130 698 
Q 2938 331 2570 128 
Q 2203 -75 1769 -75 
Q 1072 -75 642 372 
Q 213 819 213 1659 
z
M 791 1659 
Q 791 1022 1069 705 
Q 1347 388 1769 388 
Q 2188 388 2466 706 
Q 2744 1025 2744 1678 
Q 2744 2294 2464 2611 
Q 2184 2928 1769 2928 
Q 1347 2928 1069 2612 
Q 791 2297 791 1659 
z
" id="ArialMT-6f" transform="scale(0.015625)"/>
      <path d="M 422 0 
L 422 3319 
L 928 3319 
L 928 2847 
Q 1294 3394 1984 3394 
Q 2284 3394 2536 3286 
Q 2788 3178 2913 3003 
Q 3038 2828 3088 2588 
Q 3119 2431 3119 2041 
L 3119 0 
L 2556 0 
L 2556 2019 
Q 2556 2363 2490 2533 
Q 2425 2703 2258 2804 
Q 2091 2906 1866 2906 
Q 1506 2906 1245 2678 
Q 984 2450 984 1813 
L 984 0 
L 422 0 
z
" id="ArialMT-6e" transform="scale(0.015625)"/>
      <path d="M 197 991 
L 753 1078 
Q 800 744 1014 566 
Q 1228 388 1613 388 
Q 2000 388 2187 545 
Q 2375 703 2375 916 
Q 2375 1106 2209 1216 
Q 2094 1291 1634 1406 
Q 1016 1563 777 1677 
Q 538 1791 414 1992 
Q 291 2194 291 2438 
Q 291 2659 392 2848 
Q 494 3038 669 3163 
Q 800 3259 1026 3326 
Q 1253 3394 1513 3394 
Q 1903 3394 2198 3281 
Q 2494 3169 2634 2976 
Q 2775 2784 2828 2463 
L 2278 2388 
Q 2241 2644 2061 2787 
Q 1881 2931 1553 2931 
Q 1166 2931 1000 2803 
Q 834 2675 834 2503 
Q 834 2394 903 2306 
Q 972 2216 1119 2156 
Q 1203 2125 1616 2013 
Q 2213 1853 2448 1751 
Q 2684 1650 2818 1456 
Q 2953 1263 2953 975 
Q 2953 694 2789 445 
Q 2625 197 2315 61 
Q 2006 -75 1616 -75 
Q 969 -75 630 194 
Q 291 463 197 991 
z
" id="ArialMT-73" transform="scale(0.015625)"/>
      <path id="ArialMT-20" transform="scale(0.015625)"/>
      <path d="M 556 0 
L 556 2881 
L 59 2881 
L 59 3319 
L 556 3319 
L 556 3672 
Q 556 4006 616 4169 
Q 697 4388 901 4523 
Q 1106 4659 1475 4659 
Q 1713 4659 2000 4603 
L 1916 4113 
Q 1741 4144 1584 4144 
Q 1328 4144 1222 4034 
Q 1116 3925 1116 3625 
L 1116 3319 
L 1763 3319 
L 1763 2881 
L 1116 2881 
L 1116 0 
L 556 0 
z
" id="ArialMT-66" transform="scale(0.015625)"/>
      <path d="M 416 0 
L 416 3319 
L 922 3319 
L 922 2816 
Q 1116 3169 1280 3281 
Q 1444 3394 1641 3394 
Q 1925 3394 2219 3213 
L 2025 2691 
Q 1819 2813 1613 2813 
Q 1428 2813 1281 2702 
Q 1134 2591 1072 2394 
Q 978 2094 978 1738 
L 978 0 
L 416 0 
z
" id="ArialMT-72" transform="scale(0.015625)"/>
      <path d="M 3384 2003 
L 350 706 
L 350 1266 
L 2753 2263 
L 350 3250 
L 350 3809 
L 3384 2528 
L 3384 2003 
z
" id="ArialMT-3e" transform="scale(0.015625)"/>
      <path d="M 1956 1913 
L 1956 1403 
Q 1716 1397 1564 1272 
Q 1413 1147 1363 933 
Q 1313 719 1309 197 
Q 1306 -325 1291 -491 
Q 1263 -756 1186 -914 
Q 1109 -1072 996 -1167 
Q 884 -1263 709 -1313 
Q 591 -1347 322 -1347 
L 147 -1347 
L 147 -856 
L 244 -856 
Q 569 -856 675 -739 
Q 781 -622 781 -213 
Q 781 569 809 778 
Q 859 1125 1009 1333 
Q 1159 1541 1434 1656 
Q 1075 1828 928 2111 
Q 781 2394 781 3066 
Q 781 3675 766 3794 
Q 744 4003 642 4086 
Q 541 4169 244 4169 
L 147 4169 
L 147 4659 
L 322 4659 
Q 628 4659 766 4609 
Q 966 4541 1097 4378 
Q 1228 4216 1267 3969 
Q 1306 3722 1309 3159 
Q 1313 2597 1363 2383 
Q 1413 2169 1564 2044 
Q 1716 1919 1956 1913 
z
" id="ArialMT-7d" transform="scale(0.015625)"/>
      <path d="M 350 2003 
L 350 2528 
L 3384 3809 
L 3384 3250 
L 978 2263 
L 3384 1266 
L 3384 706 
L 350 2003 
z
" id="ArialMT-3c" transform="scale(0.015625)"/>
     </defs>
     <use xlink:href="#ArialMT-41"/>
     <use x="66.699219" xlink:href="#ArialMT-63"/>
     <use x="116.699219" xlink:href="#ArialMT-74"/>
     <use x="144.482422" xlink:href="#ArialMT-69"/>
     <use x="166.699219" xlink:href="#ArialMT-76"/>
     <use x="216.699219" xlink:href="#ArialMT-61"/>
     <use x="272.314453" xlink:href="#ArialMT-74"/>
     <use x="300.097656" xlink:href="#ArialMT-69"/>
     <use x="322.314453" xlink:href="#ArialMT-6f"/>
     <use x="377.929688" xlink:href="#ArialMT-6e"/>
     <use x="433.544922" xlink:href="#ArialMT-73"/>
     <use x="483.544922" xlink:href="#ArialMT-20"/>
     <use x="511.328125" xlink:href="#ArialMT-66"/>
     <use x="539.111328" xlink:href="#ArialMT-6f"/>
     <use x="594.726562" xlink:href="#ArialMT-72"/>
     <use x="628.027344" xlink:href="#ArialMT-20"/>
     <use x="655.810547" xlink:href="#ArialMT-3e"/>
     <use x="714.208984" xlink:href="#ArialMT-7d"/>
     <use x="747.607422" xlink:href="#ArialMT-3c"/>
    </g>
   </g>
   <g id="legend_1">
    <g id="patch_7">
     <path d="M 640.044062 158.514363 
L 750.46 158.514363 
Q 752.66 158.514363 752.66 156.314363 
L 752.66 79.1528 
Q 752.66 76.9528 750.46 76.9528 
L 640.044062 76.9528 
Q 637.844062 76.9528 637.844062 79.1528 
L 637.844062 156.314363 
Q 637.844062 158.514363 640.044062 158.514363 
z
" style="fill:#ffffff;opacity:0.8;stroke:#cccccc;stroke-linejoin:miter;"/>
    </g>
    <g id="line2d_11">
     <path d="M 642.244062 85.376394 
L 664.244062 85.376394 
" style="fill:none;stroke:#4c72b0;stroke-linecap:round;stroke-width:1.5;"/>
    </g>
    <g id="line2d_12"/>
    <g id="text_17">
     <!-- regular -->
     <g style="fill:#262626;" transform="translate(673.044062 89.226394)scale(0.11 -0.11)">
      <defs>
       <path d="M 2694 1069 
L 3275 997 
Q 3138 488 2766 206 
Q 2394 -75 1816 -75 
Q 1088 -75 661 373 
Q 234 822 234 1631 
Q 234 2469 665 2931 
Q 1097 3394 1784 3394 
Q 2450 3394 2872 2941 
Q 3294 2488 3294 1666 
Q 3294 1616 3291 1516 
L 816 1516 
Q 847 969 1125 678 
Q 1403 388 1819 388 
Q 2128 388 2347 550 
Q 2566 713 2694 1069 
z
M 847 1978 
L 2700 1978 
Q 2663 2397 2488 2606 
Q 2219 2931 1791 2931 
Q 1403 2931 1139 2672 
Q 875 2413 847 1978 
z
" id="ArialMT-65" transform="scale(0.015625)"/>
       <path d="M 319 -275 
L 866 -356 
Q 900 -609 1056 -725 
Q 1266 -881 1628 -881 
Q 2019 -881 2231 -725 
Q 2444 -569 2519 -288 
Q 2563 -116 2559 434 
Q 2191 0 1641 0 
Q 956 0 581 494 
Q 206 988 206 1678 
Q 206 2153 378 2554 
Q 550 2956 876 3175 
Q 1203 3394 1644 3394 
Q 2231 3394 2613 2919 
L 2613 3319 
L 3131 3319 
L 3131 450 
Q 3131 -325 2973 -648 
Q 2816 -972 2473 -1159 
Q 2131 -1347 1631 -1347 
Q 1038 -1347 672 -1080 
Q 306 -813 319 -275 
z
M 784 1719 
Q 784 1066 1043 766 
Q 1303 466 1694 466 
Q 2081 466 2343 764 
Q 2606 1063 2606 1700 
Q 2606 2309 2336 2618 
Q 2066 2928 1684 2928 
Q 1309 2928 1046 2623 
Q 784 2319 784 1719 
z
" id="ArialMT-67" transform="scale(0.015625)"/>
       <path d="M 2597 0 
L 2597 488 
Q 2209 -75 1544 -75 
Q 1250 -75 995 37 
Q 741 150 617 320 
Q 494 491 444 738 
Q 409 903 409 1263 
L 409 3319 
L 972 3319 
L 972 1478 
Q 972 1038 1006 884 
Q 1059 663 1231 536 
Q 1403 409 1656 409 
Q 1909 409 2131 539 
Q 2353 669 2445 892 
Q 2538 1116 2538 1541 
L 2538 3319 
L 3100 3319 
L 3100 0 
L 2597 0 
z
" id="ArialMT-75" transform="scale(0.015625)"/>
       <path d="M 409 0 
L 409 4581 
L 972 4581 
L 972 0 
L 409 0 
z
" id="ArialMT-6c" transform="scale(0.015625)"/>
      </defs>
      <use xlink:href="#ArialMT-72"/>
      <use x="33.300781" xlink:href="#ArialMT-65"/>
      <use x="88.916016" xlink:href="#ArialMT-67"/>
      <use x="144.53125" xlink:href="#ArialMT-75"/>
      <use x="200.146484" xlink:href="#ArialMT-6c"/>
      <use x="222.363281" xlink:href="#ArialMT-61"/>
      <use x="277.978516" xlink:href="#ArialMT-72"/>
     </g>
    </g>
    <g id="line2d_13">
     <path d="M 642.244062 101.0978 
L 664.244062 101.0978 
" style="fill:none;stroke:#dd8452;stroke-dasharray:6,2.25;stroke-dashoffset:0;stroke-width:1.5;"/>
    </g>
    <g id="line2d_14"/>
    <g id="text_18">
     <!-- splitted_3s -->
     <g style="fill:#262626;" transform="translate(673.044062 104.9478)scale(0.11 -0.11)">
      <defs>
       <path d="M 422 -1272 
L 422 3319 
L 934 3319 
L 934 2888 
Q 1116 3141 1344 3267 
Q 1572 3394 1897 3394 
Q 2322 3394 2647 3175 
Q 2972 2956 3137 2557 
Q 3303 2159 3303 1684 
Q 3303 1175 3120 767 
Q 2938 359 2589 142 
Q 2241 -75 1856 -75 
Q 1575 -75 1351 44 
Q 1128 163 984 344 
L 984 -1272 
L 422 -1272 
z
M 931 1641 
Q 931 1000 1190 694 
Q 1450 388 1819 388 
Q 2194 388 2461 705 
Q 2728 1022 2728 1688 
Q 2728 2322 2467 2637 
Q 2206 2953 1844 2953 
Q 1484 2953 1207 2617 
Q 931 2281 931 1641 
z
" id="ArialMT-70" transform="scale(0.015625)"/>
       <path d="M 2575 0 
L 2575 419 
Q 2259 -75 1647 -75 
Q 1250 -75 917 144 
Q 584 363 401 755 
Q 219 1147 219 1656 
Q 219 2153 384 2558 
Q 550 2963 881 3178 
Q 1213 3394 1622 3394 
Q 1922 3394 2156 3267 
Q 2391 3141 2538 2938 
L 2538 4581 
L 3097 4581 
L 3097 0 
L 2575 0 
z
M 797 1656 
Q 797 1019 1065 703 
Q 1334 388 1700 388 
Q 2069 388 2326 689 
Q 2584 991 2584 1609 
Q 2584 2291 2321 2609 
Q 2059 2928 1675 2928 
Q 1300 2928 1048 2622 
Q 797 2316 797 1656 
z
" id="ArialMT-64" transform="scale(0.015625)"/>
       <path d="M -97 -1272 
L -97 -866 
L 3631 -866 
L 3631 -1272 
L -97 -1272 
z
" id="ArialMT-5f" transform="scale(0.015625)"/>
       <path d="M 269 1209 
L 831 1284 
Q 928 806 1161 595 
Q 1394 384 1728 384 
Q 2125 384 2398 659 
Q 2672 934 2672 1341 
Q 2672 1728 2419 1979 
Q 2166 2231 1775 2231 
Q 1616 2231 1378 2169 
L 1441 2663 
Q 1497 2656 1531 2656 
Q 1891 2656 2178 2843 
Q 2466 3031 2466 3422 
Q 2466 3731 2256 3934 
Q 2047 4138 1716 4138 
Q 1388 4138 1169 3931 
Q 950 3725 888 3313 
L 325 3413 
Q 428 3978 793 4289 
Q 1159 4600 1703 4600 
Q 2078 4600 2393 4439 
Q 2709 4278 2876 4000 
Q 3044 3722 3044 3409 
Q 3044 3113 2884 2869 
Q 2725 2625 2413 2481 
Q 2819 2388 3044 2092 
Q 3269 1797 3269 1353 
Q 3269 753 2831 336 
Q 2394 -81 1725 -81 
Q 1122 -81 723 278 
Q 325 638 269 1209 
z
" id="ArialMT-33" transform="scale(0.015625)"/>
      </defs>
      <use xlink:href="#ArialMT-73"/>
      <use x="50" xlink:href="#ArialMT-70"/>
      <use x="105.615234" xlink:href="#ArialMT-6c"/>
      <use x="127.832031" xlink:href="#ArialMT-69"/>
      <use x="150.048828" xlink:href="#ArialMT-74"/>
      <use x="177.832031" xlink:href="#ArialMT-74"/>
      <use x="205.615234" xlink:href="#ArialMT-65"/>
      <use x="261.230469" xlink:href="#ArialMT-64"/>
      <use x="316.845703" xlink:href="#ArialMT-5f"/>
      <use x="372.460938" xlink:href="#ArialMT-33"/>
      <use x="428.076172" xlink:href="#ArialMT-73"/>
     </g>
    </g>
    <g id="line2d_15">
     <path d="M 642.244062 116.6903 
L 664.244062 116.6903 
" style="fill:none;stroke:#55a868;stroke-dasharray:1.5,1.5;stroke-dashoffset:0;stroke-width:1.5;"/>
    </g>
    <g id="line2d_16"/>
    <g id="text_19">
     <!-- splitted_1s -->
     <g style="fill:#262626;" transform="translate(673.044062 120.5403)scale(0.11 -0.11)">
      <use xlink:href="#ArialMT-73"/>
      <use x="50" xlink:href="#ArialMT-70"/>
      <use x="105.615234" xlink:href="#ArialMT-6c"/>
      <use x="127.832031" xlink:href="#ArialMT-69"/>
      <use x="150.048828" xlink:href="#ArialMT-74"/>
      <use x="177.832031" xlink:href="#ArialMT-74"/>
      <use x="205.615234" xlink:href="#ArialMT-65"/>
      <use x="261.230469" xlink:href="#ArialMT-64"/>
      <use x="316.845703" xlink:href="#ArialMT-5f"/>
      <use x="372.460938" xlink:href="#ArialMT-31"/>
      <use x="428.076172" xlink:href="#ArialMT-73"/>
     </g>
    </g>
    <g id="line2d_17">
     <path d="M 642.244062 132.384206 
L 664.244062 132.384206 
" style="fill:none;stroke:#c44e52;stroke-dasharray:4.5,1.875,2.25,1.875;stroke-dashoffset:0;stroke-width:1.5;"/>
    </g>
    <g id="line2d_18"/>
    <g id="text_20">
     <!-- overlap_1f_3s -->
     <g style="fill:#262626;" transform="translate(673.044062 136.234206)scale(0.11 -0.11)">
      <use xlink:href="#ArialMT-6f"/>
      <use x="55.615234" xlink:href="#ArialMT-76"/>
      <use x="105.615234" xlink:href="#ArialMT-65"/>
      <use x="161.230469" xlink:href="#ArialMT-72"/>
      <use x="194.53125" xlink:href="#ArialMT-6c"/>
      <use x="216.748047" xlink:href="#ArialMT-61"/>
      <use x="272.363281" xlink:href="#ArialMT-70"/>
      <use x="327.978516" xlink:href="#ArialMT-5f"/>
      <use x="383.59375" xlink:href="#ArialMT-31"/>
      <use x="439.208984" xlink:href="#ArialMT-66"/>
      <use x="466.992188" xlink:href="#ArialMT-5f"/>
      <use x="522.607422" xlink:href="#ArialMT-33"/>
      <use x="578.222656" xlink:href="#ArialMT-73"/>
     </g>
    </g>
    <g id="line2d_19">
     <path d="M 642.244062 148.078113 
L 664.244062 148.078113 
" style="fill:none;stroke:#8172b3;stroke-dasharray:7.5,1.5,1.5,1.5;stroke-dashoffset:0;stroke-width:1.5;"/>
    </g>
    <g id="line2d_20"/>
    <g id="text_21">
     <!-- overlap_10f_3s -->
     <g style="fill:#262626;" transform="translate(673.044062 151.928112)scale(0.11 -0.11)">
      <use xlink:href="#ArialMT-6f"/>
      <use x="55.615234" xlink:href="#ArialMT-76"/>
      <use x="105.615234" xlink:href="#ArialMT-65"/>
      <use x="161.230469" xlink:href="#ArialMT-72"/>
      <use x="194.53125" xlink:href="#ArialMT-6c"/>
      <use x="216.748047" xlink:href="#ArialMT-61"/>
      <use x="272.363281" xlink:href="#ArialMT-70"/>
      <use x="327.978516" xlink:href="#ArialMT-5f"/>
      <use x="383.59375" xlink:href="#ArialMT-31"/>
      <use x="439.208984" xlink:href="#ArialMT-30"/>
      <use x="494.824219" xlink:href="#ArialMT-66"/>
      <use x="522.607422" xlink:href="#ArialMT-5f"/>
      <use x="578.222656" xlink:href="#ArialMT-33"/>
      <use x="633.837891" xlink:href="#ArialMT-73"/>
     </g>
    </g>
   </g>
  </g>
 </g>
 <defs>
  <clipPath id="pfe1d5dd7bc">
   <rect height="458.4888" width="652.86" x="105.3" y="71.4528"/>
  </clipPath>
 </defs>
</svg>
