<?xml version="1.0" encoding="utf-8" standalone="no"?>
<!DOCTYPE svg PUBLIC "-//W3C//DTD SVG 1.1//EN"
  "http://www.w3.org/Graphics/SVG/1.1/DTD/svg11.dtd">
<svg height="595.44pt" version="1.1" viewBox="0 0 842.4 595.44" width="842.4pt" xmlns="http://www.w3.org/2000/svg" xmlns:xlink="http://www.w3.org/1999/xlink">
 <metadata>
  <rdf:RDF xmlns:cc="http://creativecommons.org/ns#" xmlns:dc="http://purl.org/dc/elements/1.1/" xmlns:rdf="http://www.w3.org/1999/02/22-rdf-syntax-ns#">
   <cc:Work>
    <dc:type rdf:resource="http://purl.org/dc/dcmitype/StillImage"/>
    <dc:date>2021-06-04T22:03:16.888910</dc:date>
    <dc:format>image/svg+xml</dc:format>
    <dc:creator>
     <cc:Agent>
      <dc:title>Matplotlib v3.4.1, https://matplotlib.org/</dc:title>
     </cc:Agent>
    </dc:creator>
   </cc:Work>
  </rdf:RDF>
 </metadata>
 <defs>
  <style type="text/css">*{stroke-linecap:butt;stroke-linejoin:round;}</style>
 </defs>
 <g id="figure_1">
  <g id="patch_1">
   <path d="M 0 595.44 
L 842.4 595.44 
L 842.4 0 
L 0 0 
z
" style="fill:#ffffff;"/>
  </g>
  <g id="axes_1">
   <g id="patch_2">
    <path d="M 105.3 529.9416 
L 758.16 529.9416 
L 758.16 71.4528 
L 105.3 71.4528 
z
" style="fill:#ffffff;"/>
   </g>
   <g id="matplotlib.axis_1">
    <g id="xtick_1">
     <g id="text_1">
      <!-- 0 -->
      <g style="fill:#262626;" transform="translate(131.916939 547.315194)scale(0.11 -0.11)">
       <defs>
        <path d="M 266 2259 
Q 266 3072 433 3567 
Q 600 4063 929 4331 
Q 1259 4600 1759 4600 
Q 2128 4600 2406 4451 
Q 2684 4303 2865 4023 
Q 3047 3744 3150 3342 
Q 3253 2941 3253 2259 
Q 3253 1453 3087 958 
Q 2922 463 2592 192 
Q 2263 -78 1759 -78 
Q 1097 -78 719 397 
Q 266 969 266 2259 
z
M 844 2259 
Q 844 1131 1108 757 
Q 1372 384 1759 384 
Q 2147 384 2411 759 
Q 2675 1134 2675 2259 
Q 2675 3391 2411 3762 
Q 2147 4134 1753 4134 
Q 1366 4134 1134 3806 
Q 844 3388 844 2259 
z
" id="ArialMT-30" transform="scale(0.015625)"/>
       </defs>
       <use xlink:href="#ArialMT-30"/>
      </g>
     </g>
    </g>
    <g id="xtick_2">
     <g id="text_2">
      <!-- 25 -->
      <g style="fill:#262626;" transform="translate(201.950676 547.315194)scale(0.11 -0.11)">
       <defs>
        <path d="M 3222 541 
L 3222 0 
L 194 0 
Q 188 203 259 391 
Q 375 700 629 1000 
Q 884 1300 1366 1694 
Q 2113 2306 2375 2664 
Q 2638 3022 2638 3341 
Q 2638 3675 2398 3904 
Q 2159 4134 1775 4134 
Q 1369 4134 1125 3890 
Q 881 3647 878 3216 
L 300 3275 
Q 359 3922 746 4261 
Q 1134 4600 1788 4600 
Q 2447 4600 2831 4234 
Q 3216 3869 3216 3328 
Q 3216 3053 3103 2787 
Q 2991 2522 2730 2228 
Q 2469 1934 1863 1422 
Q 1356 997 1212 845 
Q 1069 694 975 541 
L 3222 541 
z
" id="ArialMT-32" transform="scale(0.015625)"/>
        <path d="M 266 1200 
L 856 1250 
Q 922 819 1161 601 
Q 1400 384 1738 384 
Q 2144 384 2425 690 
Q 2706 997 2706 1503 
Q 2706 1984 2436 2262 
Q 2166 2541 1728 2541 
Q 1456 2541 1237 2417 
Q 1019 2294 894 2097 
L 366 2166 
L 809 4519 
L 3088 4519 
L 3088 3981 
L 1259 3981 
L 1013 2750 
Q 1425 3038 1878 3038 
Q 2478 3038 2890 2622 
Q 3303 2206 3303 1553 
Q 3303 931 2941 478 
Q 2500 -78 1738 -78 
Q 1113 -78 717 272 
Q 322 622 266 1200 
z
" id="ArialMT-35" transform="scale(0.015625)"/>
       </defs>
       <use xlink:href="#ArialMT-32"/>
       <use x="55.615234" xlink:href="#ArialMT-35"/>
      </g>
     </g>
    </g>
    <g id="xtick_3">
     <g id="text_3">
      <!-- 50 -->
      <g style="fill:#262626;" transform="translate(275.042928 547.315194)scale(0.11 -0.11)">
       <use xlink:href="#ArialMT-35"/>
       <use x="55.615234" xlink:href="#ArialMT-30"/>
      </g>
     </g>
    </g>
    <g id="xtick_4">
     <g id="text_4">
      <!-- 75 -->
      <g style="fill:#262626;" transform="translate(348.135181 547.315194)scale(0.11 -0.11)">
       <defs>
        <path d="M 303 3981 
L 303 4522 
L 3269 4522 
L 3269 4084 
Q 2831 3619 2401 2847 
Q 1972 2075 1738 1259 
Q 1569 684 1522 0 
L 944 0 
Q 953 541 1156 1306 
Q 1359 2072 1739 2783 
Q 2119 3494 2547 3981 
L 303 3981 
z
" id="ArialMT-37" transform="scale(0.015625)"/>
       </defs>
       <use xlink:href="#ArialMT-37"/>
       <use x="55.615234" xlink:href="#ArialMT-35"/>
      </g>
     </g>
    </g>
    <g id="xtick_5">
     <g id="text_5">
      <!-- 100 -->
      <g style="fill:#262626;" transform="translate(418.168918 547.315194)scale(0.11 -0.11)">
       <defs>
        <path d="M 2384 0 
L 1822 0 
L 1822 3584 
Q 1619 3391 1289 3197 
Q 959 3003 697 2906 
L 697 3450 
Q 1169 3672 1522 3987 
Q 1875 4303 2022 4600 
L 2384 4600 
L 2384 0 
z
" id="ArialMT-31" transform="scale(0.015625)"/>
       </defs>
       <use xlink:href="#ArialMT-31"/>
       <use x="55.615234" xlink:href="#ArialMT-30"/>
       <use x="111.230469" xlink:href="#ArialMT-30"/>
      </g>
     </g>
    </g>
    <g id="xtick_6">
     <g id="text_6">
      <!-- 125 -->
      <g style="fill:#262626;" transform="translate(491.261171 547.315194)scale(0.11 -0.11)">
       <use xlink:href="#ArialMT-31"/>
       <use x="55.615234" xlink:href="#ArialMT-32"/>
       <use x="111.230469" xlink:href="#ArialMT-35"/>
      </g>
     </g>
    </g>
    <g id="xtick_7">
     <g id="text_7">
      <!-- 150 -->
      <g style="fill:#262626;" transform="translate(564.353423 547.315194)scale(0.11 -0.11)">
       <use xlink:href="#ArialMT-31"/>
       <use x="55.615234" xlink:href="#ArialMT-35"/>
       <use x="111.230469" xlink:href="#ArialMT-30"/>
      </g>
     </g>
    </g>
    <g id="xtick_8">
     <g id="text_8">
      <!-- 175 -->
      <g style="fill:#262626;" transform="translate(637.445676 547.315194)scale(0.11 -0.11)">
       <use xlink:href="#ArialMT-31"/>
       <use x="55.615234" xlink:href="#ArialMT-37"/>
       <use x="111.230469" xlink:href="#ArialMT-35"/>
      </g>
     </g>
    </g>
    <g id="xtick_9">
     <g id="text_9">
      <!-- 200 -->
      <g style="fill:#262626;" transform="translate(710.537928 547.315194)scale(0.11 -0.11)">
       <use xlink:href="#ArialMT-32"/>
       <use x="55.615234" xlink:href="#ArialMT-30"/>
       <use x="111.230469" xlink:href="#ArialMT-30"/>
      </g>
     </g>
    </g>
   </g>
   <g id="matplotlib.axis_2">
    <g id="ytick_1">
     <g id="text_10">
      <!-- −25 -->
      <g style="fill:#262626;" transform="translate(77.14125 533.878397)scale(0.11 -0.11)">
       <defs>
        <path d="M 3381 1997 
L 356 1997 
L 356 2522 
L 3381 2522 
L 3381 1997 
z
" id="ArialMT-2212" transform="scale(0.015625)"/>
       </defs>
       <use xlink:href="#ArialMT-2212"/>
       <use x="58.398438" xlink:href="#ArialMT-32"/>
       <use x="114.013672" xlink:href="#ArialMT-35"/>
      </g>
     </g>
    </g>
    <g id="ytick_2">
     <g id="text_11">
      <!-- −20 -->
      <g style="fill:#262626;" transform="translate(77.14125 442.180637)scale(0.11 -0.11)">
       <use xlink:href="#ArialMT-2212"/>
       <use x="58.398438" xlink:href="#ArialMT-32"/>
       <use x="114.013672" xlink:href="#ArialMT-30"/>
      </g>
     </g>
    </g>
    <g id="ytick_3">
     <g id="text_12">
      <!-- −15 -->
      <g style="fill:#262626;" transform="translate(77.14125 350.482877)scale(0.11 -0.11)">
       <use xlink:href="#ArialMT-2212"/>
       <use x="58.398438" xlink:href="#ArialMT-31"/>
       <use x="114.013672" xlink:href="#ArialMT-35"/>
      </g>
     </g>
    </g>
    <g id="ytick_4">
     <g id="text_13">
      <!-- −10 -->
      <g style="fill:#262626;" transform="translate(77.14125 258.785117)scale(0.11 -0.11)">
       <use xlink:href="#ArialMT-2212"/>
       <use x="58.398438" xlink:href="#ArialMT-31"/>
       <use x="114.013672" xlink:href="#ArialMT-30"/>
      </g>
     </g>
    </g>
    <g id="ytick_5">
     <g id="text_14">
      <!-- −5 -->
      <g style="fill:#262626;" transform="translate(83.258281 167.087357)scale(0.11 -0.11)">
       <use xlink:href="#ArialMT-2212"/>
       <use x="58.398438" xlink:href="#ArialMT-35"/>
      </g>
     </g>
    </g>
    <g id="ytick_6">
     <g id="text_15">
      <!-- 0 -->
      <g style="fill:#262626;" transform="translate(89.682969 75.389597)scale(0.11 -0.11)">
       <use xlink:href="#ArialMT-30"/>
      </g>
     </g>
    </g>
   </g>
   <g id="line2d_1">
    <path clip-path="url(#p4262f87915)" d="M 134.975455 463.456072 
L 137.899145 464.350543 
L 140.822835 467.518535 
L 143.746525 467.135994 
L 146.670215 466.488341 
L 149.593905 470.420469 
L 152.517595 469.335846 
L 155.441285 472.425168 
L 164.212356 478.022025 
L 167.136046 482.875489 
L 170.059736 506.8771 
L 172.983426 520.109689 
L 175.907116 532.312679 
L 178.830806 565.483507 
L 181.277492 596.44 
M 181.923782 596.44 
L 184.678186 498.241678 
L 187.601876 458.568642 
L 190.525567 544.305404 
L 193.449257 496.667721 
L 196.372947 422.062619 
L 199.296637 410.092945 
L 202.220327 363.431219 
L 205.144017 468.863408 
L 208.067707 581.604982 
L 210.991397 503.044106 
L 213.915087 474.142367 
L 216.838777 489.276359 
L 219.762468 485.411638 
L 222.686158 466.474034 
L 225.609848 463.272007 
L 228.533538 498.198338 
L 231.457228 503.076672 
L 234.380918 377.61388 
L 237.304608 474.192773 
L 240.228298 536.620876 
L 243.151988 468.835109 
L 246.075678 395.740684 
L 248.999369 409.699596 
L 251.923059 513.851362 
L 254.846749 504.697362 
L 257.770439 548.747959 
L 260.694129 497.596298 
L 263.103666 596.44 
M 264.105027 596.44 
L 266.541509 490.963301 
L 269.465199 459.170927 
L 272.388889 458.837603 
L 275.312579 488.010156 
L 278.23627 494.089351 
L 281.15996 493.407733 
L 284.08365 458.892906 
L 287.00734 459.850412 
L 289.93103 495.490752 
L 292.85472 424.140321 
L 295.77841 394.580261 
L 298.7021 471.412149 
L 301.62579 469.098508 
L 304.549481 477.620945 
L 307.473171 456.518609 
L 310.396861 453.405256 
L 313.320551 421.40734 
L 316.244241 456.494018 
L 319.167931 419.585621 
L 322.091621 483.799623 
L 325.015311 430.010826 
L 327.939001 475.519282 
L 330.862691 497.740625 
L 333.786382 467.54477 
L 336.710072 412.394134 
L 342.557452 531.755799 
L 345.481142 475.050761 
L 348.404832 423.051082 
L 351.328522 424.924291 
L 354.252212 504.524176 
L 357.175902 549.240266 
L 360.099592 543.610808 
L 363.023283 592.717578 
L 365.946973 453.343797 
L 368.870663 425.307566 
L 371.794353 440.876569 
L 374.718043 454.509153 
L 377.641733 526.637782 
L 380.565423 535.624088 
L 383.489113 447.473851 
L 386.412803 400.374159 
L 389.336494 476.306295 
L 392.260184 527.841965 
L 395.183874 516.193023 
L 398.107564 418.482144 
L 401.031254 389.72134 
L 403.954944 420.024444 
L 406.878634 461.706971 
L 409.802324 453.761527 
L 412.726014 451.23916 
L 415.649704 532.898942 
L 418.573395 487.225941 
L 421.497085 558.886294 
L 424.09226 596.44 
M 424.562917 596.44 
L 427.344465 503.413739 
L 430.268155 509.016332 
L 433.191845 480.038792 
L 436.115535 442.958958 
L 439.039225 487.810386 
L 441.962915 505.582983 
L 447.810296 420.698962 
L 450.733986 474.846513 
L 453.657676 555.284657 
L 456.581366 478.385186 
L 459.505056 569.855612 
L 462.428746 505.942997 
L 465.352436 491.299213 
L 468.276126 448.328481 
L 471.199816 459.195867 
L 474.123506 478.936925 
L 477.047197 474.036938 
L 479.970887 379.114834 
L 482.894577 441.123527 
L 485.818267 452.630346 
L 488.741957 490.130044 
L 491.665647 472.222179 
L 494.589337 481.381916 
L 497.513027 542.527865 
L 500.436717 483.943741 
L 503.360408 440.607048 
L 509.207788 544.728312 
L 512.131478 521.952221 
L 515.055168 483.940487 
L 517.978858 375.812764 
L 520.902548 452.818258 
L 523.826238 483.694544 
L 526.749928 449.034795 
L 529.673618 509.285223 
L 532.597309 538.781096 
L 535.520999 432.450746 
L 538.444689 389.191569 
L 541.368379 543.969562 
L 544.292069 552.364533 
L 547.215759 458.367053 
L 550.139449 486.883488 
L 553.063139 360.460865 
L 555.986829 454.688355 
L 558.910519 462.789844 
L 561.83421 449.069321 
L 564.7579 451.294463 
L 567.68159 421.496399 
L 570.60528 465.021773 
L 573.52897 470.823507 
L 576.45266 456.973033 
L 579.37635 460.458328 
L 582.30004 455.338737 
L 585.22373 406.050946 
L 588.147421 364.219597 
L 591.071111 400.886056 
L 593.994801 447.820083 
L 596.918491 385.574051 
L 599.842181 437.759823 
L 602.765871 409.876455 
L 605.689561 356.833202 
L 608.613251 403.665945 
L 611.536941 505.16256 
L 614.460631 490.992054 
L 617.384322 375.262425 
L 620.308012 420.861199 
L 623.231702 501.237568 
L 626.155392 551.840849 
L 629.079082 528.621808 
L 632.002772 512.636964 
L 634.926462 470.800281 
L 637.850152 486.125823 
L 640.773842 408.087651 
L 643.697532 335.482106 
L 646.621223 393.930683 
L 649.544913 463.122958 
L 652.468603 538.685705 
L 655.392293 506.820818 
L 658.315983 447.195656 
L 661.239673 495.155749 
L 664.163363 405.485145 
L 667.087053 451.700195 
L 670.010743 490.548474 
L 672.934433 513.791196 
L 675.858124 513.8812 
L 678.781814 501.106953 
L 681.705504 538.463128 
L 684.629194 567.64649 
L 687.552884 501.631372 
L 690.476574 595.032409 
L 693.400264 517.859711 
L 696.323954 524.78605 
L 699.247644 493.637306 
L 702.171335 472.48166 
L 705.095025 473.767452 
L 708.018715 471.836456 
L 710.942405 475.139889 
L 716.789785 476.593585 
L 719.713475 474.481288 
L 722.637165 475.003713 
L 725.560855 474.849206 
L 728.484545 478.695039 
L 728.484545 478.695039 
" style="fill:none;stroke:#4c72b0;stroke-linecap:round;stroke-width:1.5;"/>
   </g>
   <g id="line2d_2">
    <path clip-path="url(#p4262f87915)" d="M 134.975455 449.11455 
L 137.899145 451.279912 
L 140.822835 454.016915 
L 143.746525 452.810283 
L 146.670215 454.144487 
L 149.593905 456.755108 
L 152.517595 453.842016 
L 155.441285 455.053825 
L 158.364975 456.123441 
L 164.212356 457.721778 
L 167.136046 460.004988 
L 170.059736 481.29744 
L 172.983426 488.153119 
L 175.907116 502.49646 
L 178.830806 542.358877 
L 181.754496 571.25299 
L 184.678186 485.050995 
L 187.601876 427.372746 
L 190.525567 529.31483 
L 193.449257 476.894622 
L 196.372947 413.489321 
L 199.296637 390.537631 
L 202.220327 364.294052 
L 205.144017 487.155177 
L 208.067707 590.887848 
L 210.991397 513.143823 
L 213.915087 453.651935 
L 216.838777 487.588228 
L 219.762468 475.555346 
L 222.686158 457.626843 
L 225.609848 446.134575 
L 228.533538 472.444232 
L 231.457228 481.393809 
L 234.380918 366.994571 
L 237.304608 455.705151 
L 240.228298 512.590301 
L 243.151988 461.363888 
L 246.075678 398.854492 
L 248.999369 435.640005 
L 251.923059 508.013388 
L 254.846749 512.738965 
L 257.770439 562.782322 
L 260.694129 527.384008 
L 262.587961 596.44 
M 264.529728 596.44 
L 266.541509 513.594959 
L 269.465199 473.689202 
L 272.388889 484.44941 
L 275.312579 506.861324 
L 278.23627 518.392875 
L 281.15996 533.874532 
L 284.08365 482.61286 
L 287.00734 479.706168 
L 289.93103 516.995987 
L 292.85472 443.213822 
L 295.77841 388.320499 
L 298.7021 468.956664 
L 301.62579 473.747794 
L 304.549481 496.297109 
L 307.473171 475.400735 
L 310.396861 443.593844 
L 313.320551 438.056662 
L 316.244241 461.372948 
L 319.167931 437.699727 
L 322.091621 496.297319 
L 325.015311 434.380483 
L 327.939001 483.337713 
L 330.862691 470.446249 
L 333.786382 439.792646 
L 336.710072 431.980441 
L 339.633762 475.353022 
L 342.557452 506.088163 
L 348.404832 423.193765 
L 351.328522 503.078981 
L 354.252212 506.898893 
L 357.175902 447.061753 
L 360.099592 380.677771 
L 363.023283 356.282093 
L 365.946973 352.271436 
L 368.870663 361.99797 
L 371.794353 377.732357 
L 374.718043 405.356349 
L 377.641733 459.260825 
L 380.565423 519.92552 
L 383.489113 412.896796 
L 386.412803 399.365234 
L 389.336494 447.666171 
L 392.260184 509.757487 
L 395.183874 518.817426 
L 398.107564 403.260458 
L 401.031254 373.079678 
L 403.954944 434.121701 
L 406.878634 429.322631 
L 409.802324 474.459565 
L 412.726014 484.327785 
L 415.649704 529.260331 
L 418.573395 467.975652 
L 421.497085 544.904925 
L 424.420775 574.88492 
L 427.344465 480.621523 
L 430.268155 480.814087 
L 433.191845 452.312904 
L 436.115535 429.784296 
L 439.039225 506.817495 
L 441.962915 515.809083 
L 444.886605 421.86897 
L 447.810296 370.155112 
L 450.733986 478.42328 
L 453.657676 517.101346 
L 456.581366 467.123821 
L 459.505056 539.575385 
L 462.428746 475.192779 
L 465.352436 490.355385 
L 468.276126 427.150483 
L 471.199816 459.659316 
L 474.123506 444.911747 
L 477.047197 485.895795 
L 479.970887 364.315617 
L 482.894577 433.237899 
L 485.818267 469.575634 
L 488.741957 501.069174 
L 491.665647 490.921045 
L 494.589337 483.545914 
L 497.513027 548.312704 
L 500.436717 489.861958 
L 503.360408 447.839776 
L 506.284098 511.728535 
L 509.207788 554.373605 
L 512.131478 513.258627 
L 515.055168 490.347095 
L 517.978858 391.863125 
L 520.902548 464.417635 
L 523.826238 478.015589 
L 526.749928 449.520247 
L 529.673618 501.430797 
L 532.597309 519.32369 
L 535.520999 434.565422 
L 538.444689 400.396092 
L 541.368379 519.656734 
L 544.292069 544.32968 
L 547.215759 412.711997 
L 550.139449 455.204763 
L 553.063139 379.857527 
L 555.986829 405.077769 
L 558.910519 385.21862 
L 561.83421 326.222939 
L 564.7579 348.527727 
L 567.68159 344.128198 
L 570.60528 487.18512 
L 573.52897 341.7507 
L 576.45266 378.141482 
L 579.37635 383.93818 
L 582.30004 358.514774 
L 585.22373 399.600858 
L 588.147421 355.224685 
L 591.071111 402.923321 
L 593.994801 431.674506 
L 596.918491 362.655732 
L 599.842181 446.971505 
L 602.765871 388.155219 
L 605.689561 361.620641 
L 611.536941 502.268391 
L 614.460631 507.896135 
L 617.384322 435.915751 
L 620.308012 443.420064 
L 626.155392 568.414719 
L 629.079082 513.896171 
L 632.002772 532.488138 
L 634.926462 514.522766 
L 637.850152 482.697686 
L 640.773842 416.018649 
L 643.697532 315.261439 
L 646.621223 388.207409 
L 649.544913 476.21003 
L 652.468603 528.721011 
L 655.392293 516.564719 
L 658.315983 408.890126 
L 661.239673 481.075317 
L 664.163363 385.66164 
L 667.087053 447.745855 
L 670.010743 484.50237 
L 672.934433 493.89077 
L 675.858124 498.943725 
L 678.781814 519.338732 
L 681.705504 545.836755 
L 684.629194 563.818183 
L 687.552884 487.574831 
L 690.476574 579.329014 
L 693.400264 522.400384 
L 696.323954 518.193874 
L 702.171335 447.856707 
L 705.095025 453.386017 
L 708.018715 456.327199 
L 710.942405 460.351954 
L 713.866095 459.69587 
L 716.789785 460.529127 
L 719.713475 458.315947 
L 722.637165 459.370137 
L 728.484545 460.711862 
L 728.484545 460.711862 
" style="fill:none;stroke:#dd8452;stroke-dasharray:6,2.25;stroke-dashoffset:0;stroke-width:1.5;"/>
   </g>
   <g id="line2d_3">
    <path clip-path="url(#p4262f87915)" d="M 134.975455 473.428042 
L 137.899145 475.26113 
L 140.822835 476.961154 
L 143.746525 474.510776 
L 146.670215 479.901986 
L 149.593905 479.321914 
L 152.517595 478.022375 
L 155.441285 486.374915 
L 158.364975 487.888461 
L 161.288665 477.060357 
L 164.212356 476.119187 
L 167.136046 475.554297 
L 170.059736 477.483824 
L 172.983426 488.690236 
L 175.907116 502.4442 
L 178.830806 525.132736 
L 181.754496 555.144702 
L 184.678186 436.758872 
L 187.601876 438.906325 
L 190.525567 453.072667 
L 193.449257 416.301706 
L 196.372947 389.615211 
L 199.296637 381.904307 
L 202.220327 427.211628 
L 205.144017 479.762276 
L 208.067707 426.602943 
L 210.991397 458.127616 
L 213.915087 453.650466 
L 216.838777 417.490464 
L 219.762468 440.310384 
L 222.686158 422.994939 
L 225.609848 374.173325 
L 228.533538 424.079106 
L 231.457228 448.160717 
L 234.380918 334.209362 
L 237.304608 463.316922 
L 240.228298 522.750393 
L 243.151988 473.99811 
L 246.075678 380.579618 
L 248.999369 457.818708 
L 251.923059 448.135846 
L 257.770439 577.153473 
L 260.694129 513.890749 
L 263.617819 594.514986 
L 266.541509 493.915151 
L 269.465199 487.814444 
L 272.388889 494.425613 
L 275.312579 448.011703 
L 278.23627 449.270875 
L 281.15996 432.057781 
L 284.08365 458.299822 
L 287.00734 325.233165 
L 289.93103 405.275056 
L 292.85472 374.734263 
L 295.77841 411.340399 
L 298.7021 525.966657 
L 301.62579 534.34809 
L 304.549481 516.186586 
L 307.473171 487.659902 
L 310.396861 491.799321 
L 313.320551 491.886596 
L 316.244241 478.331457 
L 319.167931 462.158457 
L 322.091621 512.65232 
L 325.015311 458.026628 
L 327.939001 509.634777 
L 330.862691 514.272625 
L 333.786382 507.072183 
L 336.710072 468.965584 
L 339.633762 521.498497 
L 342.557452 582.147206 
L 345.481142 518.94909 
L 348.404832 497.690044 
L 351.328522 531.101149 
L 354.252212 549.179296 
L 357.175902 585.179615 
L 360.099592 437.745166 
L 363.023283 409.803871 
L 365.946973 423.501693 
L 368.870663 460.95882 
L 371.794353 347.978753 
L 374.718043 387.958457 
L 377.641733 396.441227 
L 380.565423 425.888233 
L 383.489113 382.61356 
L 386.412803 411.964091 
L 392.260184 507.190905 
L 395.183874 485.12879 
L 398.107564 439.500319 
L 401.031254 364.307326 
L 403.954944 431.195806 
L 406.878634 441.572424 
L 409.802324 489.586141 
L 412.726014 474.883312 
L 415.649704 579.23943 
L 418.573395 537.049904 
L 421.497085 558.749592 
L 424.420775 572.406837 
L 427.344465 477.069592 
L 430.268155 477.866819 
L 433.191845 389.116992 
L 436.115535 386.22856 
L 439.039225 459.671874 
L 441.962915 438.708233 
L 444.886605 435.820501 
L 447.810296 451.031554 
L 450.733986 483.728579 
L 453.657676 478.365038 
L 456.581366 507.590376 
L 459.505056 580.872048 
L 462.428746 476.154447 
L 465.352436 484.391483 
L 468.276126 414.399778 
L 471.199816 376.843762 
L 474.123506 369.657138 
L 477.047197 443.298718 
L 479.970887 349.786987 
L 482.894577 421.547435 
L 485.818267 451.857675 
L 488.741957 492.457433 
L 491.665647 438.581431 
L 494.589337 420.583353 
L 497.513027 456.07251 
L 500.436717 404.864007 
L 503.360408 445.536768 
L 506.284098 381.702473 
L 509.207788 496.135852 
L 512.131478 495.788851 
L 515.055168 369.385659 
L 517.978858 376.91785 
L 520.902548 439.454215 
L 523.826238 463.451944 
L 526.749928 492.398492 
L 529.673618 470.947371 
L 532.597309 465.577394 
L 535.520999 473.529064 
L 538.444689 477.431284 
L 541.368379 536.284159 
L 544.292069 546.197503 
L 547.215759 428.687991 
L 550.139449 462.18819 
L 553.063139 338.988249 
L 555.986829 328.916463 
L 558.910519 434.236086 
L 561.83421 382.64053 
L 564.7579 388.044752 
L 567.68159 430.677334 
L 570.60528 453.970532 
L 573.52897 441.971125 
L 576.45266 448.500967 
L 579.37635 380.213518 
L 582.30004 401.086875 
L 585.22373 464.568118 
L 588.147421 368.102665 
L 591.071111 304.132333 
L 593.994801 288.837468 
L 596.918491 298.308299 
L 599.842181 369.743188 
L 602.765871 347.147875 
L 605.689561 411.026839 
L 608.613251 443.387287 
L 611.536941 509.815868 
L 614.460631 505.382793 
L 617.384322 415.068979 
L 620.308012 441.175052 
L 623.231702 505.91162 
L 626.155392 556.762943 
L 629.079082 525.862697 
L 632.002772 557.852113 
L 634.926462 510.277079 
L 637.850152 465.589917 
L 640.773842 430.975887 
L 643.697532 354.435399 
L 646.621223 404.51071 
L 649.544913 505.48357 
L 652.468603 469.32084 
L 655.392293 512.080119 
L 658.315983 383.761986 
L 661.239673 337.436662 
L 664.163363 319.241997 
L 667.087053 384.233025 
L 670.010743 319.494499 
L 675.858124 489.808439 
L 678.781814 491.829823 
L 681.705504 486.415911 
L 684.629194 501.273072 
L 687.552884 538.640371 
L 690.476574 527.113404 
L 693.400264 501.150713 
L 696.323954 527.822691 
L 699.247644 485.088738 
L 702.171335 446.553565 
L 705.095025 449.529411 
L 708.018715 459.690483 
L 710.942405 467.2657 
L 713.866095 467.702319 
L 716.789785 468.305863 
L 719.713475 465.022472 
L 722.637165 468.256751 
L 725.560855 466.298925 
L 728.484545 459.191705 
L 728.484545 459.191705 
" style="fill:none;stroke:#55a868;stroke-dasharray:1.5,1.5;stroke-dashoffset:0;stroke-width:1.5;"/>
   </g>
   <g id="line2d_4">
    <path clip-path="url(#p4262f87915)" d="M 134.975455 449.652716 
L 137.899145 451.765992 
L 140.822835 454.724769 
L 143.746525 453.239592 
L 146.670215 454.841252 
L 149.593905 457.37971 
L 152.517595 454.561448 
L 155.441285 456.016368 
L 158.364975 457.320629 
L 164.212356 458.81735 
L 167.136046 461.146907 
L 170.059736 482.580678 
L 172.983426 489.427857 
L 175.907116 503.7684 
L 178.830806 543.835414 
L 181.754496 573.361824 
L 184.678186 487.241542 
L 187.601876 429.107015 
L 190.525567 530.651552 
L 193.449257 480.033825 
L 196.372947 413.7261 
L 199.296637 390.985059 
L 202.220327 365.502608 
L 205.144017 484.958858 
L 208.067707 593.597917 
L 210.991397 509.809887 
L 213.915087 463.29359 
L 216.838777 483.731657 
L 219.762468 477.519713 
L 222.686158 459.0089 
L 225.609848 446.060908 
L 228.533538 474.512 
L 231.457228 484.135326 
L 234.380918 367.691966 
L 237.304608 459.331904 
L 240.228298 516.816015 
L 243.151988 462.949353 
L 246.075678 400.380701 
L 248.999369 434.671796 
L 251.923059 507.463819 
L 254.846749 512.02478 
L 257.770439 560.54742 
L 260.694129 527.378237 
L 262.573044 596.44 
M 264.525668 596.44 
L 266.541509 511.170046 
L 269.465199 475.622647 
L 272.388889 482.773662 
L 275.312579 512.736062 
L 278.23627 522.637898 
L 281.15996 533.391495 
L 284.08365 485.663039 
L 287.00734 491.550334 
L 289.93103 522.825565 
L 292.85472 441.042408 
L 295.77841 391.845111 
L 298.7021 472.484949 
L 301.62579 478.981174 
L 304.549481 501.504954 
L 307.473171 477.558261 
L 310.396861 446.134086 
L 313.320551 437.007195 
L 316.244241 461.365077 
L 319.167931 444.900029 
L 322.091621 502.419259 
L 325.015311 433.499059 
L 327.939001 473.052113 
L 330.862691 485.916538 
L 333.786382 442.739634 
L 336.710072 447.802873 
L 339.633762 496.500762 
L 342.557452 523.247598 
L 345.481142 474.965585 
L 348.404832 400.192229 
L 351.328522 468.703969 
L 354.252212 475.50466 
L 357.175902 491.304215 
L 360.099592 423.048493 
L 363.023283 523.13972 
L 365.946973 392.584621 
L 368.870663 388.866466 
L 371.794353 394.866291 
L 374.718043 433.113055 
L 377.641733 478.274965 
L 380.565423 533.807686 
L 383.489113 415.439136 
L 386.412803 404.596795 
L 389.336494 446.482346 
L 392.260184 507.621333 
L 395.183874 517.11275 
L 398.107564 405.788736 
L 401.031254 377.862238 
L 403.954944 430.076204 
L 406.878634 419.400997 
L 409.802324 472.880921 
L 412.726014 483.444297 
L 415.649704 530.517964 
L 418.573395 463.927776 
L 421.497085 547.505018 
L 424.420775 582.752568 
L 427.344465 484.805436 
L 430.268155 479.417864 
L 433.191845 449.745832 
L 436.115535 428.640033 
L 439.039225 507.394348 
L 441.962915 516.677389 
L 444.886605 422.745917 
L 447.810296 372.955185 
L 450.733986 476.750015 
L 453.657676 521.596511 
L 456.581366 471.405608 
L 459.505056 542.626158 
L 462.428746 476.208596 
L 465.352436 490.888654 
L 468.276126 424.283949 
L 471.199816 462.191688 
L 474.123506 451.102493 
L 477.047197 491.07821 
L 479.970887 364.080639 
L 482.894577 433.692323 
L 485.818267 469.071398 
L 488.741957 501.326767 
L 491.665647 491.593674 
L 494.589337 483.75331 
L 497.513027 548.347509 
L 500.436717 489.116361 
L 503.360408 446.08305 
L 506.284098 509.436511 
L 509.207788 555.841957 
L 512.131478 511.342532 
L 515.055168 498.637825 
L 517.978858 389.594678 
L 520.902548 472.98698 
L 523.826238 493.240074 
L 526.749928 455.046374 
L 529.673618 499.589524 
L 532.597309 521.913674 
L 535.520999 440.161089 
L 538.444689 407.081034 
L 541.368379 521.656186 
L 544.292069 561.24429 
L 547.215759 428.852081 
L 550.139449 476.662216 
L 553.063139 356.335106 
L 555.986829 409.14415 
L 558.910519 444.304916 
L 561.83421 404.901471 
L 564.7579 413.167156 
L 567.68159 355.071596 
L 570.60528 437.344926 
L 573.52897 441.111144 
L 576.45266 441.031495 
L 579.37635 402.795504 
L 582.30004 386.408567 
L 585.22373 430.183347 
L 588.147421 351.485734 
L 591.071111 386.816258 
L 593.994801 451.450194 
L 596.918491 384.672338 
L 599.842181 448.324703 
L 602.765871 410.775928 
L 605.689561 371.231269 
L 611.536941 500.004806 
L 614.460631 514.767136 
L 617.384322 434.675573 
L 620.308012 446.418927 
L 623.231702 510.439001 
L 626.155392 566.28801 
L 629.079082 515.602526 
L 632.002772 531.533711 
L 634.926462 516.695824 
L 637.850152 484.003976 
L 640.773842 416.810769 
L 643.697532 313.243867 
L 646.621223 393.165638 
L 649.544913 476.927748 
L 652.468603 530.147527 
L 655.392293 518.493582 
L 658.315983 409.363754 
L 661.239673 481.604913 
L 664.163363 386.086436 
L 667.087053 447.043389 
L 670.010743 485.552292 
L 672.934433 494.63997 
L 675.858124 499.496512 
L 678.781814 520.90132 
L 681.705504 544.92252 
L 684.629194 563.97101 
L 687.552884 488.469897 
L 690.476574 580.56356 
L 693.400264 523.869681 
L 696.323954 519.457139 
L 699.247644 486.832627 
L 702.171335 450.721352 
L 705.095025 456.175001 
L 708.018715 460.264329 
L 710.942405 465.168094 
L 713.866095 465.491028 
L 716.789785 465.389307 
L 719.713475 463.174273 
L 722.637165 465.169773 
L 725.560855 465.351983 
L 728.484545 466.692939 
L 728.484545 466.692939 
" style="fill:none;stroke:#c44e52;stroke-dasharray:4.5,1.875,2.25,1.875;stroke-dashoffset:0;stroke-width:1.5;"/>
   </g>
   <g id="line2d_5">
    <path clip-path="url(#p4262f87915)" d="M 134.975455 450.338357 
L 137.899145 452.064231 
L 140.822835 455.383091 
L 143.746525 454.259536 
L 146.670215 454.872874 
L 149.593905 458.661234 
L 152.517595 456.483419 
L 155.441285 458.077314 
L 161.288665 460.817501 
L 164.212356 460.934229 
L 167.136046 462.569576 
L 170.059736 482.868843 
L 172.983426 489.068823 
L 175.907116 501.492676 
L 178.830806 541.195934 
L 181.754496 579.364658 
L 184.678186 486.015811 
L 187.601876 444.503497 
L 190.525567 533.160907 
L 193.449257 487.525964 
L 196.372947 421.823881 
L 199.296637 401.063124 
L 202.220327 369.961078 
L 208.024537 596.44 
M 208.13051 596.44 
L 210.991397 520.08146 
L 213.915087 456.64702 
L 216.838777 487.382651 
L 219.762468 475.167454 
L 222.686158 455.423598 
L 225.609848 451.023474 
L 228.533538 477.146163 
L 231.457228 487.607048 
L 234.380918 370.851562 
L 237.304608 459.46035 
L 240.228298 518.751524 
L 243.151988 463.107252 
L 246.075678 397.797888 
L 248.999369 425.334501 
L 251.923059 517.045448 
L 254.846749 517.999525 
L 257.770439 564.309021 
L 260.694129 522.185363 
L 262.687286 596.44 
M 264.443372 596.44 
L 266.541509 508.334574 
L 269.465199 474.033265 
L 272.388889 481.318882 
L 275.312579 512.316898 
L 278.23627 524.322566 
L 281.15996 538.781096 
L 284.08365 492.28862 
L 287.00734 489.604961 
L 289.93103 520.246146 
L 292.85472 441.960526 
L 295.77841 390.743278 
L 298.7021 469.176828 
L 301.62579 478.248835 
L 304.549481 494.668199 
L 307.473171 470.595473 
L 310.396861 458.060454 
L 313.320551 442.92139 
L 316.244241 463.629607 
L 319.167931 435.383322 
L 322.091621 503.793341 
L 325.015311 437.945986 
L 327.939001 495.312494 
L 330.862691 462.631805 
L 333.786382 446.17914 
L 336.710072 414.029201 
L 339.633762 438.886001 
L 342.557452 502.237224 
L 345.481142 475.454184 
L 348.404832 398.920639 
L 351.328522 440.227131 
L 354.252212 531.086493 
L 357.175902 578.661037 
L 360.099592 568.688437 
L 362.005939 596.44 
M 363.278953 596.44 
L 365.946973 441.8927 
L 368.870663 422.700513 
L 371.794353 386.058627 
L 374.718043 430.811307 
L 377.641733 526.151036 
L 380.565423 566.722496 
L 383.489113 454.87959 
L 386.412803 396.606158 
L 389.336494 461.268637 
L 392.260184 529.893328 
L 395.183874 528.532364 
L 398.107564 401.376229 
L 401.031254 396.948296 
L 403.954944 452.141572 
L 406.878634 449.206442 
L 409.802324 495.761811 
L 412.726014 481.452471 
L 415.649704 560.593454 
L 418.573395 473.047845 
L 421.497085 553.089737 
L 424.420775 581.478914 
L 427.344465 476.232452 
L 430.268155 473.833494 
L 436.115535 427.319541 
L 439.039225 503.169159 
L 441.962915 514.530217 
L 444.886605 425.890856 
L 447.810296 374.54817 
L 450.733986 465.972352 
L 453.657676 499.784467 
L 456.581366 456.221944 
L 459.505056 516.891257 
L 462.428746 463.342177 
L 465.352436 476.368769 
L 468.276126 427.190535 
L 471.199816 469.368483 
L 474.123506 455.656459 
L 477.047197 475.011548 
L 479.970887 359.81106 
L 482.894577 432.728101 
L 485.818267 467.587305 
L 488.741957 431.57212 
L 491.665647 485.463513 
L 494.589337 364.3889 
L 497.513027 448.51356 
L 500.436717 463.973635 
L 503.360408 442.826384 
L 506.284098 477.939927 
L 509.207788 422.377193 
L 512.131478 485.204417 
L 515.055168 449.676257 
L 517.978858 472.797984 
L 520.902548 448.943498 
L 523.826238 434.822629 
L 526.749928 432.052674 
L 529.673618 360.358898 
L 532.597309 353.554779 
L 535.520999 414.464071 
L 538.444689 367.949768 
L 541.368379 346.480475 
L 544.292069 373.985133 
L 547.215759 322.557691 
L 550.139449 306.409351 
L 553.063139 258.973327 
L 555.986829 270.76205 
L 558.910519 335.869806 
L 561.83421 342.683685 
L 564.7579 331.333978 
L 567.68159 333.32904 
L 570.60528 370.425192 
L 573.52897 417.210449 
L 576.45266 423.090399 
L 579.37635 396.704031 
L 582.30004 350.12115 
L 585.22373 394.088688 
L 588.147421 320.19917 
L 591.071111 374.265497 
L 593.994801 435.768801 
L 596.918491 382.858245 
L 599.842181 433.443301 
L 602.765871 408.535464 
L 605.689561 366.953645 
L 608.613251 425.707492 
L 611.536941 491.141698 
L 614.460631 510.509205 
L 617.384322 425.609828 
L 620.308012 454.937727 
L 623.231702 512.067596 
L 626.155392 563.75382 
L 629.079082 520.079222 
L 632.002772 527.601268 
L 634.926462 502.753667 
L 637.850152 479.301311 
L 640.773842 412.458707 
L 643.697532 312.340249 
L 646.621223 386.396289 
L 649.544913 465.371957 
L 652.468603 520.74391 
L 655.392293 507.014082 
L 658.315983 416.168573 
L 661.239673 474.159053 
L 664.163363 383.963645 
L 667.087053 443.301761 
L 670.010743 482.76964 
L 672.934433 494.750752 
L 675.858124 491.570552 
L 678.781814 506.949089 
L 681.705504 542.621226 
L 684.629194 554.99936 
L 687.552884 477.210596 
L 690.476574 564.251304 
L 693.400264 513.923245 
L 696.323954 511.200129 
L 699.247644 479.462533 
L 702.171335 443.343213 
L 705.095025 452.459155 
L 708.018715 456.461207 
L 710.942405 460.049202 
L 713.866095 460.966271 
L 716.789785 460.844996 
L 722.637165 459.278665 
L 725.560855 460.111432 
L 728.484545 460.259257 
L 728.484545 460.259257 
" style="fill:none;stroke:#8172b3;stroke-dasharray:7.5,1.5,1.5,1.5;stroke-dashoffset:0;stroke-width:1.5;"/>
   </g>
   <g id="line2d_6"/>
   <g id="line2d_7"/>
   <g id="line2d_8"/>
   <g id="line2d_9"/>
   <g id="line2d_10"/>
   <g id="patch_3">
    <path d="M 105.3 529.9416 
L 105.3 71.4528 
" style="fill:none;stroke:#262626;stroke-linecap:square;stroke-linejoin:miter;stroke-width:1.25;"/>
   </g>
   <g id="patch_4">
    <path d="M 758.16 529.9416 
L 758.16 71.4528 
" style="fill:none;stroke:#262626;stroke-linecap:square;stroke-linejoin:miter;stroke-width:1.25;"/>
   </g>
   <g id="patch_5">
    <path d="M 105.3 529.9416 
L 758.16 529.9416 
" style="fill:none;stroke:#262626;stroke-linecap:square;stroke-linejoin:miter;stroke-width:1.25;"/>
   </g>
   <g id="patch_6">
    <path d="M 105.3 71.4528 
L 758.16 71.4528 
" style="fill:none;stroke:#262626;stroke-linecap:square;stroke-linejoin:miter;stroke-width:1.25;"/>
   </g>
   <g id="text_16">
    <!-- Activations for &gt;;&lt; -->
    <g style="fill:#262626;" transform="translate(383.7075 65.4528)scale(0.12 -0.12)">
     <defs>
      <path d="M -9 0 
L 1750 4581 
L 2403 4581 
L 4278 0 
L 3588 0 
L 3053 1388 
L 1138 1388 
L 634 0 
L -9 0 
z
M 1313 1881 
L 2866 1881 
L 2388 3150 
Q 2169 3728 2063 4100 
Q 1975 3659 1816 3225 
L 1313 1881 
z
" id="ArialMT-41" transform="scale(0.015625)"/>
      <path d="M 2588 1216 
L 3141 1144 
Q 3050 572 2676 248 
Q 2303 -75 1759 -75 
Q 1078 -75 664 370 
Q 250 816 250 1647 
Q 250 2184 428 2587 
Q 606 2991 970 3192 
Q 1334 3394 1763 3394 
Q 2303 3394 2647 3120 
Q 2991 2847 3088 2344 
L 2541 2259 
Q 2463 2594 2264 2762 
Q 2066 2931 1784 2931 
Q 1359 2931 1093 2626 
Q 828 2322 828 1663 
Q 828 994 1084 691 
Q 1341 388 1753 388 
Q 2084 388 2306 591 
Q 2528 794 2588 1216 
z
" id="ArialMT-63" transform="scale(0.015625)"/>
      <path d="M 1650 503 
L 1731 6 
Q 1494 -44 1306 -44 
Q 1000 -44 831 53 
Q 663 150 594 308 
Q 525 466 525 972 
L 525 2881 
L 113 2881 
L 113 3319 
L 525 3319 
L 525 4141 
L 1084 4478 
L 1084 3319 
L 1650 3319 
L 1650 2881 
L 1084 2881 
L 1084 941 
Q 1084 700 1114 631 
Q 1144 563 1211 522 
Q 1278 481 1403 481 
Q 1497 481 1650 503 
z
" id="ArialMT-74" transform="scale(0.015625)"/>
      <path d="M 425 3934 
L 425 4581 
L 988 4581 
L 988 3934 
L 425 3934 
z
M 425 0 
L 425 3319 
L 988 3319 
L 988 0 
L 425 0 
z
" id="ArialMT-69" transform="scale(0.015625)"/>
      <path d="M 1344 0 
L 81 3319 
L 675 3319 
L 1388 1331 
Q 1503 1009 1600 663 
Q 1675 925 1809 1294 
L 2547 3319 
L 3125 3319 
L 1869 0 
L 1344 0 
z
" id="ArialMT-76" transform="scale(0.015625)"/>
      <path d="M 2588 409 
Q 2275 144 1986 34 
Q 1697 -75 1366 -75 
Q 819 -75 525 192 
Q 231 459 231 875 
Q 231 1119 342 1320 
Q 453 1522 633 1644 
Q 813 1766 1038 1828 
Q 1203 1872 1538 1913 
Q 2219 1994 2541 2106 
Q 2544 2222 2544 2253 
Q 2544 2597 2384 2738 
Q 2169 2928 1744 2928 
Q 1347 2928 1158 2789 
Q 969 2650 878 2297 
L 328 2372 
Q 403 2725 575 2942 
Q 747 3159 1072 3276 
Q 1397 3394 1825 3394 
Q 2250 3394 2515 3294 
Q 2781 3194 2906 3042 
Q 3031 2891 3081 2659 
Q 3109 2516 3109 2141 
L 3109 1391 
Q 3109 606 3145 398 
Q 3181 191 3288 0 
L 2700 0 
Q 2613 175 2588 409 
z
M 2541 1666 
Q 2234 1541 1622 1453 
Q 1275 1403 1131 1340 
Q 988 1278 909 1158 
Q 831 1038 831 891 
Q 831 666 1001 516 
Q 1172 366 1500 366 
Q 1825 366 2078 508 
Q 2331 650 2450 897 
Q 2541 1088 2541 1459 
L 2541 1666 
z
" id="ArialMT-61" transform="scale(0.015625)"/>
      <path d="M 213 1659 
Q 213 2581 725 3025 
Q 1153 3394 1769 3394 
Q 2453 3394 2887 2945 
Q 3322 2497 3322 1706 
Q 3322 1066 3130 698 
Q 2938 331 2570 128 
Q 2203 -75 1769 -75 
Q 1072 -75 642 372 
Q 213 819 213 1659 
z
M 791 1659 
Q 791 1022 1069 705 
Q 1347 388 1769 388 
Q 2188 388 2466 706 
Q 2744 1025 2744 1678 
Q 2744 2294 2464 2611 
Q 2184 2928 1769 2928 
Q 1347 2928 1069 2612 
Q 791 2297 791 1659 
z
" id="ArialMT-6f" transform="scale(0.015625)"/>
      <path d="M 422 0 
L 422 3319 
L 928 3319 
L 928 2847 
Q 1294 3394 1984 3394 
Q 2284 3394 2536 3286 
Q 2788 3178 2913 3003 
Q 3038 2828 3088 2588 
Q 3119 2431 3119 2041 
L 3119 0 
L 2556 0 
L 2556 2019 
Q 2556 2363 2490 2533 
Q 2425 2703 2258 2804 
Q 2091 2906 1866 2906 
Q 1506 2906 1245 2678 
Q 984 2450 984 1813 
L 984 0 
L 422 0 
z
" id="ArialMT-6e" transform="scale(0.015625)"/>
      <path d="M 197 991 
L 753 1078 
Q 800 744 1014 566 
Q 1228 388 1613 388 
Q 2000 388 2187 545 
Q 2375 703 2375 916 
Q 2375 1106 2209 1216 
Q 2094 1291 1634 1406 
Q 1016 1563 777 1677 
Q 538 1791 414 1992 
Q 291 2194 291 2438 
Q 291 2659 392 2848 
Q 494 3038 669 3163 
Q 800 3259 1026 3326 
Q 1253 3394 1513 3394 
Q 1903 3394 2198 3281 
Q 2494 3169 2634 2976 
Q 2775 2784 2828 2463 
L 2278 2388 
Q 2241 2644 2061 2787 
Q 1881 2931 1553 2931 
Q 1166 2931 1000 2803 
Q 834 2675 834 2503 
Q 834 2394 903 2306 
Q 972 2216 1119 2156 
Q 1203 2125 1616 2013 
Q 2213 1853 2448 1751 
Q 2684 1650 2818 1456 
Q 2953 1263 2953 975 
Q 2953 694 2789 445 
Q 2625 197 2315 61 
Q 2006 -75 1616 -75 
Q 969 -75 630 194 
Q 291 463 197 991 
z
" id="ArialMT-73" transform="scale(0.015625)"/>
      <path id="ArialMT-20" transform="scale(0.015625)"/>
      <path d="M 556 0 
L 556 2881 
L 59 2881 
L 59 3319 
L 556 3319 
L 556 3672 
Q 556 4006 616 4169 
Q 697 4388 901 4523 
Q 1106 4659 1475 4659 
Q 1713 4659 2000 4603 
L 1916 4113 
Q 1741 4144 1584 4144 
Q 1328 4144 1222 4034 
Q 1116 3925 1116 3625 
L 1116 3319 
L 1763 3319 
L 1763 2881 
L 1116 2881 
L 1116 0 
L 556 0 
z
" id="ArialMT-66" transform="scale(0.015625)"/>
      <path d="M 416 0 
L 416 3319 
L 922 3319 
L 922 2816 
Q 1116 3169 1280 3281 
Q 1444 3394 1641 3394 
Q 1925 3394 2219 3213 
L 2025 2691 
Q 1819 2813 1613 2813 
Q 1428 2813 1281 2702 
Q 1134 2591 1072 2394 
Q 978 2094 978 1738 
L 978 0 
L 416 0 
z
" id="ArialMT-72" transform="scale(0.015625)"/>
      <path d="M 3384 2003 
L 350 706 
L 350 1266 
L 2753 2263 
L 350 3250 
L 350 3809 
L 3384 2528 
L 3384 2003 
z
" id="ArialMT-3e" transform="scale(0.015625)"/>
      <path d="M 569 2678 
L 569 3319 
L 1209 3319 
L 1209 2678 
L 569 2678 
z
M 569 0 
L 569 641 
L 1209 641 
L 1209 0 
Q 1209 -353 1084 -570 
Q 959 -788 688 -906 
L 531 -666 
Q 709 -588 793 -436 
Q 878 -284 888 0 
L 569 0 
z
" id="ArialMT-3b" transform="scale(0.015625)"/>
      <path d="M 350 2003 
L 350 2528 
L 3384 3809 
L 3384 3250 
L 978 2263 
L 3384 1266 
L 3384 706 
L 350 2003 
z
" id="ArialMT-3c" transform="scale(0.015625)"/>
     </defs>
     <use xlink:href="#ArialMT-41"/>
     <use x="66.699219" xlink:href="#ArialMT-63"/>
     <use x="116.699219" xlink:href="#ArialMT-74"/>
     <use x="144.482422" xlink:href="#ArialMT-69"/>
     <use x="166.699219" xlink:href="#ArialMT-76"/>
     <use x="216.699219" xlink:href="#ArialMT-61"/>
     <use x="272.314453" xlink:href="#ArialMT-74"/>
     <use x="300.097656" xlink:href="#ArialMT-69"/>
     <use x="322.314453" xlink:href="#ArialMT-6f"/>
     <use x="377.929688" xlink:href="#ArialMT-6e"/>
     <use x="433.544922" xlink:href="#ArialMT-73"/>
     <use x="483.544922" xlink:href="#ArialMT-20"/>
     <use x="511.328125" xlink:href="#ArialMT-66"/>
     <use x="539.111328" xlink:href="#ArialMT-6f"/>
     <use x="594.726562" xlink:href="#ArialMT-72"/>
     <use x="628.027344" xlink:href="#ArialMT-20"/>
     <use x="655.810547" xlink:href="#ArialMT-3e"/>
     <use x="714.208984" xlink:href="#ArialMT-3b"/>
     <use x="741.992188" xlink:href="#ArialMT-3c"/>
    </g>
   </g>
   <g id="legend_1">
    <g id="patch_7">
     <path d="M 640.044062 158.514363 
L 750.46 158.514363 
Q 752.66 158.514363 752.66 156.314363 
L 752.66 79.1528 
Q 752.66 76.9528 750.46 76.9528 
L 640.044062 76.9528 
Q 637.844062 76.9528 637.844062 79.1528 
L 637.844062 156.314363 
Q 637.844062 158.514363 640.044062 158.514363 
z
" style="fill:#ffffff;opacity:0.8;stroke:#cccccc;stroke-linejoin:miter;"/>
    </g>
    <g id="line2d_11">
     <path d="M 642.244062 85.376394 
L 664.244062 85.376394 
" style="fill:none;stroke:#4c72b0;stroke-linecap:round;stroke-width:1.5;"/>
    </g>
    <g id="line2d_12"/>
    <g id="text_17">
     <!-- regular -->
     <g style="fill:#262626;" transform="translate(673.044062 89.226394)scale(0.11 -0.11)">
      <defs>
       <path d="M 2694 1069 
L 3275 997 
Q 3138 488 2766 206 
Q 2394 -75 1816 -75 
Q 1088 -75 661 373 
Q 234 822 234 1631 
Q 234 2469 665 2931 
Q 1097 3394 1784 3394 
Q 2450 3394 2872 2941 
Q 3294 2488 3294 1666 
Q 3294 1616 3291 1516 
L 816 1516 
Q 847 969 1125 678 
Q 1403 388 1819 388 
Q 2128 388 2347 550 
Q 2566 713 2694 1069 
z
M 847 1978 
L 2700 1978 
Q 2663 2397 2488 2606 
Q 2219 2931 1791 2931 
Q 1403 2931 1139 2672 
Q 875 2413 847 1978 
z
" id="ArialMT-65" transform="scale(0.015625)"/>
       <path d="M 319 -275 
L 866 -356 
Q 900 -609 1056 -725 
Q 1266 -881 1628 -881 
Q 2019 -881 2231 -725 
Q 2444 -569 2519 -288 
Q 2563 -116 2559 434 
Q 2191 0 1641 0 
Q 956 0 581 494 
Q 206 988 206 1678 
Q 206 2153 378 2554 
Q 550 2956 876 3175 
Q 1203 3394 1644 3394 
Q 2231 3394 2613 2919 
L 2613 3319 
L 3131 3319 
L 3131 450 
Q 3131 -325 2973 -648 
Q 2816 -972 2473 -1159 
Q 2131 -1347 1631 -1347 
Q 1038 -1347 672 -1080 
Q 306 -813 319 -275 
z
M 784 1719 
Q 784 1066 1043 766 
Q 1303 466 1694 466 
Q 2081 466 2343 764 
Q 2606 1063 2606 1700 
Q 2606 2309 2336 2618 
Q 2066 2928 1684 2928 
Q 1309 2928 1046 2623 
Q 784 2319 784 1719 
z
" id="ArialMT-67" transform="scale(0.015625)"/>
       <path d="M 2597 0 
L 2597 488 
Q 2209 -75 1544 -75 
Q 1250 -75 995 37 
Q 741 150 617 320 
Q 494 491 444 738 
Q 409 903 409 1263 
L 409 3319 
L 972 3319 
L 972 1478 
Q 972 1038 1006 884 
Q 1059 663 1231 536 
Q 1403 409 1656 409 
Q 1909 409 2131 539 
Q 2353 669 2445 892 
Q 2538 1116 2538 1541 
L 2538 3319 
L 3100 3319 
L 3100 0 
L 2597 0 
z
" id="ArialMT-75" transform="scale(0.015625)"/>
       <path d="M 409 0 
L 409 4581 
L 972 4581 
L 972 0 
L 409 0 
z
" id="ArialMT-6c" transform="scale(0.015625)"/>
      </defs>
      <use xlink:href="#ArialMT-72"/>
      <use x="33.300781" xlink:href="#ArialMT-65"/>
      <use x="88.916016" xlink:href="#ArialMT-67"/>
      <use x="144.53125" xlink:href="#ArialMT-75"/>
      <use x="200.146484" xlink:href="#ArialMT-6c"/>
      <use x="222.363281" xlink:href="#ArialMT-61"/>
      <use x="277.978516" xlink:href="#ArialMT-72"/>
     </g>
    </g>
    <g id="line2d_13">
     <path d="M 642.244062 101.0978 
L 664.244062 101.0978 
" style="fill:none;stroke:#dd8452;stroke-dasharray:6,2.25;stroke-dashoffset:0;stroke-width:1.5;"/>
    </g>
    <g id="line2d_14"/>
    <g id="text_18">
     <!-- splitted_3s -->
     <g style="fill:#262626;" transform="translate(673.044062 104.9478)scale(0.11 -0.11)">
      <defs>
       <path d="M 422 -1272 
L 422 3319 
L 934 3319 
L 934 2888 
Q 1116 3141 1344 3267 
Q 1572 3394 1897 3394 
Q 2322 3394 2647 3175 
Q 2972 2956 3137 2557 
Q 3303 2159 3303 1684 
Q 3303 1175 3120 767 
Q 2938 359 2589 142 
Q 2241 -75 1856 -75 
Q 1575 -75 1351 44 
Q 1128 163 984 344 
L 984 -1272 
L 422 -1272 
z
M 931 1641 
Q 931 1000 1190 694 
Q 1450 388 1819 388 
Q 2194 388 2461 705 
Q 2728 1022 2728 1688 
Q 2728 2322 2467 2637 
Q 2206 2953 1844 2953 
Q 1484 2953 1207 2617 
Q 931 2281 931 1641 
z
" id="ArialMT-70" transform="scale(0.015625)"/>
       <path d="M 2575 0 
L 2575 419 
Q 2259 -75 1647 -75 
Q 1250 -75 917 144 
Q 584 363 401 755 
Q 219 1147 219 1656 
Q 219 2153 384 2558 
Q 550 2963 881 3178 
Q 1213 3394 1622 3394 
Q 1922 3394 2156 3267 
Q 2391 3141 2538 2938 
L 2538 4581 
L 3097 4581 
L 3097 0 
L 2575 0 
z
M 797 1656 
Q 797 1019 1065 703 
Q 1334 388 1700 388 
Q 2069 388 2326 689 
Q 2584 991 2584 1609 
Q 2584 2291 2321 2609 
Q 2059 2928 1675 2928 
Q 1300 2928 1048 2622 
Q 797 2316 797 1656 
z
" id="ArialMT-64" transform="scale(0.015625)"/>
       <path d="M -97 -1272 
L -97 -866 
L 3631 -866 
L 3631 -1272 
L -97 -1272 
z
" id="ArialMT-5f" transform="scale(0.015625)"/>
       <path d="M 269 1209 
L 831 1284 
Q 928 806 1161 595 
Q 1394 384 1728 384 
Q 2125 384 2398 659 
Q 2672 934 2672 1341 
Q 2672 1728 2419 1979 
Q 2166 2231 1775 2231 
Q 1616 2231 1378 2169 
L 1441 2663 
Q 1497 2656 1531 2656 
Q 1891 2656 2178 2843 
Q 2466 3031 2466 3422 
Q 2466 3731 2256 3934 
Q 2047 4138 1716 4138 
Q 1388 4138 1169 3931 
Q 950 3725 888 3313 
L 325 3413 
Q 428 3978 793 4289 
Q 1159 4600 1703 4600 
Q 2078 4600 2393 4439 
Q 2709 4278 2876 4000 
Q 3044 3722 3044 3409 
Q 3044 3113 2884 2869 
Q 2725 2625 2413 2481 
Q 2819 2388 3044 2092 
Q 3269 1797 3269 1353 
Q 3269 753 2831 336 
Q 2394 -81 1725 -81 
Q 1122 -81 723 278 
Q 325 638 269 1209 
z
" id="ArialMT-33" transform="scale(0.015625)"/>
      </defs>
      <use xlink:href="#ArialMT-73"/>
      <use x="50" xlink:href="#ArialMT-70"/>
      <use x="105.615234" xlink:href="#ArialMT-6c"/>
      <use x="127.832031" xlink:href="#ArialMT-69"/>
      <use x="150.048828" xlink:href="#ArialMT-74"/>
      <use x="177.832031" xlink:href="#ArialMT-74"/>
      <use x="205.615234" xlink:href="#ArialMT-65"/>
      <use x="261.230469" xlink:href="#ArialMT-64"/>
      <use x="316.845703" xlink:href="#ArialMT-5f"/>
      <use x="372.460938" xlink:href="#ArialMT-33"/>
      <use x="428.076172" xlink:href="#ArialMT-73"/>
     </g>
    </g>
    <g id="line2d_15">
     <path d="M 642.244062 116.6903 
L 664.244062 116.6903 
" style="fill:none;stroke:#55a868;stroke-dasharray:1.5,1.5;stroke-dashoffset:0;stroke-width:1.5;"/>
    </g>
    <g id="line2d_16"/>
    <g id="text_19">
     <!-- splitted_1s -->
     <g style="fill:#262626;" transform="translate(673.044062 120.5403)scale(0.11 -0.11)">
      <use xlink:href="#ArialMT-73"/>
      <use x="50" xlink:href="#ArialMT-70"/>
      <use x="105.615234" xlink:href="#ArialMT-6c"/>
      <use x="127.832031" xlink:href="#ArialMT-69"/>
      <use x="150.048828" xlink:href="#ArialMT-74"/>
      <use x="177.832031" xlink:href="#ArialMT-74"/>
      <use x="205.615234" xlink:href="#ArialMT-65"/>
      <use x="261.230469" xlink:href="#ArialMT-64"/>
      <use x="316.845703" xlink:href="#ArialMT-5f"/>
      <use x="372.460938" xlink:href="#ArialMT-31"/>
      <use x="428.076172" xlink:href="#ArialMT-73"/>
     </g>
    </g>
    <g id="line2d_17">
     <path d="M 642.244062 132.384206 
L 664.244062 132.384206 
" style="fill:none;stroke:#c44e52;stroke-dasharray:4.5,1.875,2.25,1.875;stroke-dashoffset:0;stroke-width:1.5;"/>
    </g>
    <g id="line2d_18"/>
    <g id="text_20">
     <!-- overlap_1f_3s -->
     <g style="fill:#262626;" transform="translate(673.044062 136.234206)scale(0.11 -0.11)">
      <use xlink:href="#ArialMT-6f"/>
      <use x="55.615234" xlink:href="#ArialMT-76"/>
      <use x="105.615234" xlink:href="#ArialMT-65"/>
      <use x="161.230469" xlink:href="#ArialMT-72"/>
      <use x="194.53125" xlink:href="#ArialMT-6c"/>
      <use x="216.748047" xlink:href="#ArialMT-61"/>
      <use x="272.363281" xlink:href="#ArialMT-70"/>
      <use x="327.978516" xlink:href="#ArialMT-5f"/>
      <use x="383.59375" xlink:href="#ArialMT-31"/>
      <use x="439.208984" xlink:href="#ArialMT-66"/>
      <use x="466.992188" xlink:href="#ArialMT-5f"/>
      <use x="522.607422" xlink:href="#ArialMT-33"/>
      <use x="578.222656" xlink:href="#ArialMT-73"/>
     </g>
    </g>
    <g id="line2d_19">
     <path d="M 642.244062 148.078113 
L 664.244062 148.078113 
" style="fill:none;stroke:#8172b3;stroke-dasharray:7.5,1.5,1.5,1.5;stroke-dashoffset:0;stroke-width:1.5;"/>
    </g>
    <g id="line2d_20"/>
    <g id="text_21">
     <!-- overlap_10f_3s -->
     <g style="fill:#262626;" transform="translate(673.044062 151.928112)scale(0.11 -0.11)">
      <use xlink:href="#ArialMT-6f"/>
      <use x="55.615234" xlink:href="#ArialMT-76"/>
      <use x="105.615234" xlink:href="#ArialMT-65"/>
      <use x="161.230469" xlink:href="#ArialMT-72"/>
      <use x="194.53125" xlink:href="#ArialMT-6c"/>
      <use x="216.748047" xlink:href="#ArialMT-61"/>
      <use x="272.363281" xlink:href="#ArialMT-70"/>
      <use x="327.978516" xlink:href="#ArialMT-5f"/>
      <use x="383.59375" xlink:href="#ArialMT-31"/>
      <use x="439.208984" xlink:href="#ArialMT-30"/>
      <use x="494.824219" xlink:href="#ArialMT-66"/>
      <use x="522.607422" xlink:href="#ArialMT-5f"/>
      <use x="578.222656" xlink:href="#ArialMT-33"/>
      <use x="633.837891" xlink:href="#ArialMT-73"/>
     </g>
    </g>
   </g>
  </g>
 </g>
 <defs>
  <clipPath id="p4262f87915">
   <rect height="458.4888" width="652.86" x="105.3" y="71.4528"/>
  </clipPath>
 </defs>
</svg>
