<?xml version="1.0" encoding="utf-8" standalone="no"?>
<!DOCTYPE svg PUBLIC "-//W3C//DTD SVG 1.1//EN"
  "http://www.w3.org/Graphics/SVG/1.1/DTD/svg11.dtd">
<svg height="595.44pt" version="1.1" viewBox="0 0 842.4 595.44" width="842.4pt" xmlns="http://www.w3.org/2000/svg" xmlns:xlink="http://www.w3.org/1999/xlink">
 <metadata>
  <rdf:RDF xmlns:cc="http://creativecommons.org/ns#" xmlns:dc="http://purl.org/dc/elements/1.1/" xmlns:rdf="http://www.w3.org/1999/02/22-rdf-syntax-ns#">
   <cc:Work>
    <dc:type rdf:resource="http://purl.org/dc/dcmitype/StillImage"/>
    <dc:date>2021-06-04T22:03:09.635267</dc:date>
    <dc:format>image/svg+xml</dc:format>
    <dc:creator>
     <cc:Agent>
      <dc:title>Matplotlib v3.4.1, https://matplotlib.org/</dc:title>
     </cc:Agent>
    </dc:creator>
   </cc:Work>
  </rdf:RDF>
 </metadata>
 <defs>
  <style type="text/css">*{stroke-linecap:butt;stroke-linejoin:round;}</style>
 </defs>
 <g id="figure_1">
  <g id="patch_1">
   <path d="M 0 595.44 
L 842.4 595.44 
L 842.4 0 
L 0 0 
z
" style="fill:#ffffff;"/>
  </g>
  <g id="axes_1">
   <g id="patch_2">
    <path d="M 105.3 529.9416 
L 758.16 529.9416 
L 758.16 71.4528 
L 105.3 71.4528 
z
" style="fill:#ffffff;"/>
   </g>
   <g id="matplotlib.axis_1">
    <g id="xtick_1">
     <g id="text_1">
      <!-- 0 -->
      <g style="fill:#262626;" transform="translate(131.916939 547.315194)scale(0.11 -0.11)">
       <defs>
        <path d="M 266 2259 
Q 266 3072 433 3567 
Q 600 4063 929 4331 
Q 1259 4600 1759 4600 
Q 2128 4600 2406 4451 
Q 2684 4303 2865 4023 
Q 3047 3744 3150 3342 
Q 3253 2941 3253 2259 
Q 3253 1453 3087 958 
Q 2922 463 2592 192 
Q 2263 -78 1759 -78 
Q 1097 -78 719 397 
Q 266 969 266 2259 
z
M 844 2259 
Q 844 1131 1108 757 
Q 1372 384 1759 384 
Q 2147 384 2411 759 
Q 2675 1134 2675 2259 
Q 2675 3391 2411 3762 
Q 2147 4134 1753 4134 
Q 1366 4134 1134 3806 
Q 844 3388 844 2259 
z
" id="ArialMT-30" transform="scale(0.015625)"/>
       </defs>
       <use xlink:href="#ArialMT-30"/>
      </g>
     </g>
    </g>
    <g id="xtick_2">
     <g id="text_2">
      <!-- 25 -->
      <g style="fill:#262626;" transform="translate(201.950676 547.315194)scale(0.11 -0.11)">
       <defs>
        <path d="M 3222 541 
L 3222 0 
L 194 0 
Q 188 203 259 391 
Q 375 700 629 1000 
Q 884 1300 1366 1694 
Q 2113 2306 2375 2664 
Q 2638 3022 2638 3341 
Q 2638 3675 2398 3904 
Q 2159 4134 1775 4134 
Q 1369 4134 1125 3890 
Q 881 3647 878 3216 
L 300 3275 
Q 359 3922 746 4261 
Q 1134 4600 1788 4600 
Q 2447 4600 2831 4234 
Q 3216 3869 3216 3328 
Q 3216 3053 3103 2787 
Q 2991 2522 2730 2228 
Q 2469 1934 1863 1422 
Q 1356 997 1212 845 
Q 1069 694 975 541 
L 3222 541 
z
" id="ArialMT-32" transform="scale(0.015625)"/>
        <path d="M 266 1200 
L 856 1250 
Q 922 819 1161 601 
Q 1400 384 1738 384 
Q 2144 384 2425 690 
Q 2706 997 2706 1503 
Q 2706 1984 2436 2262 
Q 2166 2541 1728 2541 
Q 1456 2541 1237 2417 
Q 1019 2294 894 2097 
L 366 2166 
L 809 4519 
L 3088 4519 
L 3088 3981 
L 1259 3981 
L 1013 2750 
Q 1425 3038 1878 3038 
Q 2478 3038 2890 2622 
Q 3303 2206 3303 1553 
Q 3303 931 2941 478 
Q 2500 -78 1738 -78 
Q 1113 -78 717 272 
Q 322 622 266 1200 
z
" id="ArialMT-35" transform="scale(0.015625)"/>
       </defs>
       <use xlink:href="#ArialMT-32"/>
       <use x="55.615234" xlink:href="#ArialMT-35"/>
      </g>
     </g>
    </g>
    <g id="xtick_3">
     <g id="text_3">
      <!-- 50 -->
      <g style="fill:#262626;" transform="translate(275.042928 547.315194)scale(0.11 -0.11)">
       <use xlink:href="#ArialMT-35"/>
       <use x="55.615234" xlink:href="#ArialMT-30"/>
      </g>
     </g>
    </g>
    <g id="xtick_4">
     <g id="text_4">
      <!-- 75 -->
      <g style="fill:#262626;" transform="translate(348.135181 547.315194)scale(0.11 -0.11)">
       <defs>
        <path d="M 303 3981 
L 303 4522 
L 3269 4522 
L 3269 4084 
Q 2831 3619 2401 2847 
Q 1972 2075 1738 1259 
Q 1569 684 1522 0 
L 944 0 
Q 953 541 1156 1306 
Q 1359 2072 1739 2783 
Q 2119 3494 2547 3981 
L 303 3981 
z
" id="ArialMT-37" transform="scale(0.015625)"/>
       </defs>
       <use xlink:href="#ArialMT-37"/>
       <use x="55.615234" xlink:href="#ArialMT-35"/>
      </g>
     </g>
    </g>
    <g id="xtick_5">
     <g id="text_5">
      <!-- 100 -->
      <g style="fill:#262626;" transform="translate(418.168918 547.315194)scale(0.11 -0.11)">
       <defs>
        <path d="M 2384 0 
L 1822 0 
L 1822 3584 
Q 1619 3391 1289 3197 
Q 959 3003 697 2906 
L 697 3450 
Q 1169 3672 1522 3987 
Q 1875 4303 2022 4600 
L 2384 4600 
L 2384 0 
z
" id="ArialMT-31" transform="scale(0.015625)"/>
       </defs>
       <use xlink:href="#ArialMT-31"/>
       <use x="55.615234" xlink:href="#ArialMT-30"/>
       <use x="111.230469" xlink:href="#ArialMT-30"/>
      </g>
     </g>
    </g>
    <g id="xtick_6">
     <g id="text_6">
      <!-- 125 -->
      <g style="fill:#262626;" transform="translate(491.261171 547.315194)scale(0.11 -0.11)">
       <use xlink:href="#ArialMT-31"/>
       <use x="55.615234" xlink:href="#ArialMT-32"/>
       <use x="111.230469" xlink:href="#ArialMT-35"/>
      </g>
     </g>
    </g>
    <g id="xtick_7">
     <g id="text_7">
      <!-- 150 -->
      <g style="fill:#262626;" transform="translate(564.353423 547.315194)scale(0.11 -0.11)">
       <use xlink:href="#ArialMT-31"/>
       <use x="55.615234" xlink:href="#ArialMT-35"/>
       <use x="111.230469" xlink:href="#ArialMT-30"/>
      </g>
     </g>
    </g>
    <g id="xtick_8">
     <g id="text_8">
      <!-- 175 -->
      <g style="fill:#262626;" transform="translate(637.445676 547.315194)scale(0.11 -0.11)">
       <use xlink:href="#ArialMT-31"/>
       <use x="55.615234" xlink:href="#ArialMT-37"/>
       <use x="111.230469" xlink:href="#ArialMT-35"/>
      </g>
     </g>
    </g>
    <g id="xtick_9">
     <g id="text_9">
      <!-- 200 -->
      <g style="fill:#262626;" transform="translate(710.537928 547.315194)scale(0.11 -0.11)">
       <use xlink:href="#ArialMT-32"/>
       <use x="55.615234" xlink:href="#ArialMT-30"/>
       <use x="111.230469" xlink:href="#ArialMT-30"/>
      </g>
     </g>
    </g>
   </g>
   <g id="matplotlib.axis_2">
    <g id="ytick_1">
     <g id="text_10">
      <!-- −25 -->
      <g style="fill:#262626;" transform="translate(77.14125 533.878397)scale(0.11 -0.11)">
       <defs>
        <path d="M 3381 1997 
L 356 1997 
L 356 2522 
L 3381 2522 
L 3381 1997 
z
" id="ArialMT-2212" transform="scale(0.015625)"/>
       </defs>
       <use xlink:href="#ArialMT-2212"/>
       <use x="58.398438" xlink:href="#ArialMT-32"/>
       <use x="114.013672" xlink:href="#ArialMT-35"/>
      </g>
     </g>
    </g>
    <g id="ytick_2">
     <g id="text_11">
      <!-- −20 -->
      <g style="fill:#262626;" transform="translate(77.14125 442.180637)scale(0.11 -0.11)">
       <use xlink:href="#ArialMT-2212"/>
       <use x="58.398438" xlink:href="#ArialMT-32"/>
       <use x="114.013672" xlink:href="#ArialMT-30"/>
      </g>
     </g>
    </g>
    <g id="ytick_3">
     <g id="text_12">
      <!-- −15 -->
      <g style="fill:#262626;" transform="translate(77.14125 350.482877)scale(0.11 -0.11)">
       <use xlink:href="#ArialMT-2212"/>
       <use x="58.398438" xlink:href="#ArialMT-31"/>
       <use x="114.013672" xlink:href="#ArialMT-35"/>
      </g>
     </g>
    </g>
    <g id="ytick_4">
     <g id="text_13">
      <!-- −10 -->
      <g style="fill:#262626;" transform="translate(77.14125 258.785117)scale(0.11 -0.11)">
       <use xlink:href="#ArialMT-2212"/>
       <use x="58.398438" xlink:href="#ArialMT-31"/>
       <use x="114.013672" xlink:href="#ArialMT-30"/>
      </g>
     </g>
    </g>
    <g id="ytick_5">
     <g id="text_14">
      <!-- −5 -->
      <g style="fill:#262626;" transform="translate(83.258281 167.087357)scale(0.11 -0.11)">
       <use xlink:href="#ArialMT-2212"/>
       <use x="58.398438" xlink:href="#ArialMT-35"/>
      </g>
     </g>
    </g>
    <g id="ytick_6">
     <g id="text_15">
      <!-- 0 -->
      <g style="fill:#262626;" transform="translate(89.682969 75.389597)scale(0.11 -0.11)">
       <use xlink:href="#ArialMT-30"/>
      </g>
     </g>
    </g>
   </g>
   <g id="line2d_1">
    <path clip-path="url(#p300509237f)" d="M 134.975455 328.761362 
L 137.899145 328.43757 
L 140.822835 327.45474 
L 143.746525 327.83261 
L 146.670215 330.410683 
L 149.593905 327.81533 
L 152.517595 328.193113 
L 155.441285 330.483581 
L 158.364975 331.31278 
L 161.288665 331.2994 
L 167.136046 334.22185 
L 170.059736 352.329555 
L 172.983426 366.088556 
L 175.907116 370.440023 
L 178.830806 402.485233 
L 181.754496 425.756289 
L 184.678186 353.512663 
L 187.601876 322.001108 
L 190.525567 424.333375 
L 193.449257 399.036597 
L 196.372947 350.368668 
L 199.296637 400.077005 
L 202.220327 315.694281 
L 205.144017 333.575351 
L 208.067707 467.520354 
L 210.991397 381.183266 
L 213.915087 400.448772 
L 216.838777 464.281388 
L 219.762468 486.994584 
L 222.686158 420.950502 
L 225.609848 377.880217 
L 228.533538 309.780453 
L 231.457228 413.025102 
L 234.380918 306.967368 
L 240.228298 406.14833 
L 243.151988 401.06942 
L 246.075678 347.474779 
L 248.999369 342.484597 
L 251.923059 387.213315 
L 254.846749 374.597597 
L 257.770439 410.859355 
L 260.694129 361.183392 
L 263.617819 424.636931 
L 266.541509 286.788414 
L 269.465199 269.236138 
L 272.388889 321.711596 
L 275.312579 318.789741 
L 278.23627 307.56855 
L 281.15996 287.750747 
L 284.08365 235.831399 
L 287.00734 277.659705 
L 289.93103 402.071385 
L 292.85472 416.524178 
L 295.77841 432.08566 
L 298.7021 452.228322 
L 301.62579 394.495434 
L 304.549481 359.457378 
L 307.473171 317.519463 
L 310.396861 309.97823 
L 313.320551 276.028591 
L 316.244241 378.049555 
L 319.167931 362.160084 
L 322.091621 432.61718 
L 325.015311 330.89811 
L 327.939001 325.582317 
L 330.862691 359.225059 
L 333.786382 378.648901 
L 336.710072 399.950518 
L 339.633762 440.84862 
L 342.557452 393.245077 
L 345.481142 381.027326 
L 348.404832 403.192002 
L 351.328522 368.567968 
L 354.252212 386.947607 
L 357.175902 418.828271 
L 360.099592 421.250315 
L 363.023283 460.365911 
L 365.946973 330.486379 
L 368.870663 334.593442 
L 371.794353 397.089055 
L 374.718043 442.609929 
L 377.641733 463.369112 
L 380.565423 438.939591 
L 383.489113 403.925671 
L 386.412803 321.279245 
L 389.336494 348.561378 
L 392.260184 362.907238 
L 395.183874 369.132124 
L 398.107564 319.614288 
L 401.031254 325.775529 
L 403.954944 335.966613 
L 406.878634 353.607791 
L 409.802324 272.249343 
L 412.726014 237.800174 
L 415.649704 310.50027 
L 418.573395 298.62861 
L 421.497085 340.516381 
L 424.420775 426.610113 
L 427.344465 399.66788 
L 430.268155 488.157562 
L 433.191845 485.662234 
L 436.115535 302.723552 
L 439.039225 320.937124 
L 441.962915 362.432805 
L 444.886605 377.926146 
L 447.810296 358.943156 
L 450.733986 365.955528 
L 453.657676 407.092403 
L 456.581366 309.567968 
L 459.505056 409.753045 
L 462.428746 357.5597 
L 465.352436 432.367144 
L 468.276126 450.951975 
L 471.199816 359.744423 
L 474.123506 376.014074 
L 477.047197 361.42652 
L 479.970887 335.434988 
L 482.894577 428.936173 
L 485.818267 369.926029 
L 488.741957 378.883371 
L 491.665647 352.053021 
L 494.589337 378.310156 
L 497.513027 455.746392 
L 500.436717 368.089163 
L 503.360408 299.211673 
L 506.284098 358.382008 
L 509.207788 392.820806 
L 512.131478 472.85661 
L 515.055168 519.72505 
L 517.978858 415.676195 
L 520.902548 426.132533 
L 523.826238 324.975363 
L 526.749928 71.843816 
L 529.673618 71.454488 
L 532.597309 239.814703 
L 535.520999 293.706918 
L 538.444689 312.356602 
L 541.368379 362.09406 
L 544.292069 318.332799 
L 547.215759 90.179781 
L 550.139449 71.453978 
L 553.063139 76.071569 
L 555.986829 349.134786 
L 558.910519 309.281884 
L 561.83421 158.747926 
L 564.7579 71.484853 
L 567.68159 83.858744 
L 570.60528 244.676772 
L 573.52897 293.756484 
L 576.45266 317.127006 
L 579.37635 373.853539 
L 582.30004 383.119615 
L 588.147421 340.660359 
L 591.071111 307.22879 
L 593.994801 242.454882 
L 596.918491 71.50664 
L 599.842181 71.632094 
L 602.765871 333.23713 
L 605.689561 340.25753 
L 608.613251 336.653759 
L 611.536941 402.5327 
L 614.460631 425.738204 
L 617.384322 347.049371 
L 620.308012 423.196703 
L 623.231702 397.537953 
L 626.155392 348.994464 
L 629.079082 326.070742 
L 632.002772 315.799343 
L 634.926462 337.254224 
L 637.850152 391.52368 
L 640.773842 361.435125 
L 643.697532 280.414094 
L 646.621223 264.40249 
L 649.544913 267.708425 
L 652.468603 303.200573 
L 655.392293 71.457797 
L 658.315983 72.104857 
L 661.239673 293.75972 
L 664.163363 332.295488 
L 667.087053 378.009153 
L 670.010743 364.423197 
L 672.934433 286.676199 
L 675.858124 286.846971 
L 678.781814 281.787388 
L 681.705504 200.609165 
L 684.629194 71.453294 
L 687.552884 84.498389 
L 690.476574 321.12995 
L 693.400264 338.26336 
L 696.323954 390.161002 
L 699.247644 369.029948 
L 702.171335 329.622375 
L 705.095025 326.6615 
L 708.018715 324.052628 
L 710.942405 329.06023 
L 713.866095 329.189674 
L 716.789785 331.447487 
L 719.713475 328.749556 
L 722.637165 330.151569 
L 725.560855 328.94345 
L 728.484545 335.844796 
L 728.484545 335.844796 
" style="fill:none;stroke:#4c72b0;stroke-linecap:round;stroke-width:1.5;"/>
   </g>
   <g id="line2d_2">
    <path clip-path="url(#p300509237f)" d="M 134.975455 326.988003 
L 137.899145 327.423503 
L 140.822835 326.124716 
L 143.746525 326.772194 
L 146.670215 327.978214 
L 149.593905 327.24563 
L 152.517595 324.923173 
L 155.441285 325.554333 
L 158.364975 324.015671 
L 161.288665 323.395495 
L 164.212356 323.159678 
L 167.136046 321.920392 
L 170.059736 331.129712 
L 172.983426 338.631733 
L 175.907116 347.840215 
L 178.830806 380.956946 
L 181.754496 398.701525 
L 184.678186 346.066051 
L 187.601876 288.655223 
L 190.525567 405.752287 
L 193.449257 379.463234 
L 196.372947 333.383399 
L 199.296637 371.748937 
L 202.220327 321.29119 
L 205.144017 355.237348 
L 208.067707 454.49621 
L 210.991397 384.117452 
L 213.915087 375.151924 
L 216.838777 449.829469 
L 219.762468 464.164485 
L 225.609848 342.146131 
L 228.533538 293.410725 
L 231.457228 378.705009 
L 234.380918 290.719353 
L 237.304608 319.257738 
L 240.228298 372.637882 
L 243.151988 374.413952 
L 246.075678 331.866512 
L 248.999369 353.857933 
L 251.923059 399.362505 
L 254.846749 380.382576 
L 257.770439 396.648448 
L 260.694129 353.29703 
L 263.617819 425.13522 
L 266.541509 300.345704 
L 269.465199 278.338315 
L 272.388889 339.752735 
L 275.312579 337.609218 
L 278.23627 321.103488 
L 281.15996 298.317394 
L 284.08365 240.843042 
L 287.00734 274.838784 
L 289.93103 404.155804 
L 292.85472 431.110665 
L 295.77841 411.19079 
L 298.7021 435.824664 
L 301.62579 383.410717 
L 304.549481 361.477416 
L 307.473171 331.808673 
L 310.396861 280.095689 
L 313.320551 272.622544 
L 316.244241 384.64341 
L 319.167931 374.117602 
L 322.091621 439.247869 
L 325.015311 325.243257 
L 327.939001 342.360523 
L 330.862691 352.419891 
L 333.786382 347.789861 
L 336.710072 426.253843 
L 339.633762 453.462274 
L 342.557452 369.593404 
L 345.481142 307.932534 
L 348.404832 373.741918 
L 351.328522 381.369254 
L 354.252212 328.188094 
L 357.175902 347.117005 
L 360.099592 306.51583 
L 363.023283 290.845123 
L 365.946973 212.295738 
L 368.870663 188.588788 
L 371.794353 257.36565 
L 374.718043 303.203581 
L 377.641733 332.516859 
L 380.565423 357.985318 
L 383.489113 312.209616 
L 386.412803 324.960811 
L 389.336494 357.652764 
L 392.260184 362.602947 
L 395.183874 347.747903 
L 398.107564 292.228754 
L 401.031254 300.913131 
L 403.954944 338.195411 
L 406.878634 311.258512 
L 409.802324 257.863939 
L 412.726014 235.525955 
L 415.649704 275.880539 
L 418.573395 242.242047 
L 421.497085 299.514092 
L 424.420775 340.125673 
L 427.344465 308.341117 
L 430.268155 410.557933 
L 433.191845 423.524465 
L 436.115535 279.460681 
L 439.039225 327.080892 
L 441.962915 344.526829 
L 444.886605 323.725408 
L 447.810296 339.510726 
L 450.733986 398.390623 
L 453.657676 418.956927 
L 456.581366 329.734853 
L 459.505056 413.586985 
L 462.428746 356.075292 
L 465.352436 431.591954 
L 468.276126 433.281484 
L 471.199816 371.731027 
L 474.123506 357.870864 
L 477.047197 384.920346 
L 479.970887 330.901573 
L 482.894577 420.237647 
L 485.818267 373.053618 
L 488.741957 384.937521 
L 491.665647 355.017604 
L 494.589337 360.383769 
L 497.513027 432.192209 
L 500.436717 360.949954 
L 503.360408 296.83059 
L 506.284098 365.890045 
L 509.207788 385.080099 
L 512.131478 451.30849 
L 515.055168 527.734122 
L 517.978858 416.744167 
L 520.902548 429.647455 
L 523.826238 320.981531 
L 526.749928 72.031951 
L 529.673618 71.456619 
L 532.597309 224.234612 
L 535.520999 288.839637 
L 538.444689 295.442936 
L 541.368379 332.819015 
L 544.292069 313.554419 
L 547.215759 73.747755 
L 550.139449 71.460789 
L 553.063139 114.300442 
L 555.986829 294.132274 
L 558.910519 230.606886 
L 561.83421 147.303091 
L 564.7579 92.051653 
L 567.68159 132.825388 
L 570.60528 324.286748 
L 573.52897 174.104487 
L 576.45266 230.013522 
L 579.37635 271.312599 
L 582.30004 238.724431 
L 585.22373 254.183124 
L 588.147421 235.097276 
L 591.071111 293.214488 
L 593.994801 267.527859 
L 596.918491 74.694299 
L 599.842181 71.478909 
L 602.765871 266.485772 
L 605.689561 341.052064 
L 608.613251 370.980148 
L 614.460631 396.796064 
L 617.384322 370.637765 
L 620.308012 422.422597 
L 623.231702 387.396504 
L 626.155392 360.056812 
L 629.079082 316.953523 
L 632.002772 334.078607 
L 634.926462 358.199885 
L 637.850152 373.556594 
L 640.773842 355.464805 
L 643.697532 226.186666 
L 646.621223 236.564299 
L 649.544913 252.202334 
L 652.468603 277.234611 
L 655.392293 71.455535 
L 658.315983 88.520422 
L 661.239673 305.494696 
L 664.163363 323.927837 
L 667.087053 385.098079 
L 670.010743 356.78409 
L 672.934433 270.20746 
L 675.858124 275.162576 
L 678.781814 272.62578 
L 681.705504 183.975689 
L 684.629194 71.453434 
L 687.552884 86.880793 
L 690.476574 318.196534 
L 693.400264 367.72831 
L 696.323954 406.839393 
L 699.247644 372.60626 
L 702.171335 312.497361 
L 705.095025 311.42388 
L 708.018715 311.717816 
L 710.942405 317.358311 
L 713.866095 315.525048 
L 716.789785 318.401149 
L 719.713475 314.775866 
L 722.637165 318.450034 
L 725.560855 317.986305 
L 728.484545 315.805377 
L 728.484545 315.805377 
" style="fill:none;stroke:#dd8452;stroke-dasharray:6,2.25;stroke-dashoffset:0;stroke-width:1.5;"/>
   </g>
   <g id="line2d_3">
    <path clip-path="url(#p300509237f)" d="M 134.975455 322.762621 
L 137.899145 320.797361 
L 140.822835 321.948743 
L 143.746525 321.569158 
L 146.670215 325.844089 
L 149.593905 323.54297 
L 152.517595 324.783988 
L 155.441285 332.936897 
L 158.364975 333.447884 
L 161.288665 328.135624 
L 164.212356 329.038455 
L 167.136046 326.947268 
L 170.059736 326.088476 
L 172.983426 339.748695 
L 175.907116 351.864427 
L 178.830806 374.934209 
L 181.754496 400.357229 
L 184.678186 304.929648 
L 187.601876 265.840777 
L 190.525567 277.525347 
L 193.449257 280.821645 
L 196.372947 281.200915 
L 202.220327 343.037577 
L 205.144017 303.433469 
L 208.067707 254.342825 
L 210.991397 250.895974 
L 213.915087 259.686288 
L 216.838777 257.832474 
L 219.762468 357.160702 
L 222.686158 304.836426 
L 225.609848 241.579772 
L 228.533538 236.415057 
L 231.457228 348.987136 
L 234.380918 269.953629 
L 237.304608 307.109824 
L 240.228298 354.606066 
L 243.151988 362.38915 
L 246.075678 288.095404 
L 248.999369 358.715367 
L 251.923059 366.881062 
L 254.846749 377.426528 
L 257.770439 386.174306 
L 260.694129 335.865539 
L 263.617819 414.706622 
L 266.541509 293.736983 
L 269.465199 314.168492 
L 272.388889 322.995552 
L 275.312579 278.219559 
L 278.23627 229.463113 
L 281.15996 201.084472 
L 284.08365 235.76102 
L 287.00734 289.750706 
L 289.93103 348.812394 
L 292.85472 332.624002 
L 295.77841 410.344276 
L 298.7021 461.940077 
L 301.62579 427.656573 
L 304.549481 357.732238 
L 307.473171 327.951857 
L 310.396861 315.494773 
L 313.320551 301.295619 
L 316.244241 411.586973 
L 319.167931 396.722116 
L 322.091621 461.328103 
L 325.015311 327.913694 
L 327.939001 315.709899 
L 330.862691 365.020235 
L 333.786382 330.299097 
L 336.710072 448.920691 
L 339.633762 471.284193 
L 342.557452 400.063153 
L 345.481142 370.287651 
L 348.404832 447.841805 
L 351.328522 431.61497 
L 354.252212 364.260541 
L 357.175902 407.670621 
L 360.099592 300.022717 
L 363.023283 200.713729 
L 365.946973 239.754887 
L 368.870663 265.774455 
L 371.794353 237.878617 
L 374.718043 317.09304 
L 377.641733 339.466564 
L 380.565423 309.067422 
L 383.489113 269.826652 
L 386.412803 276.654697 
L 389.336494 318.131122 
L 392.260184 362.183153 
L 395.183874 328.663558 
L 398.107564 335.361023 
L 401.031254 270.938401 
L 406.878634 334.502983 
L 409.802324 290.485932 
L 412.726014 226.0362 
L 415.649704 328.644651 
L 418.573395 348.032184 
L 421.497085 378.522868 
L 424.420775 435.981479 
L 427.344465 362.833325 
L 430.268155 391.704456 
L 433.191845 350.896288 
L 436.115535 248.603967 
L 439.039225 332.934326 
L 441.962915 312.275973 
L 444.886605 330.523423 
L 447.810296 371.782798 
L 450.733986 364.876537 
L 453.657676 346.514161 
L 456.581366 364.781619 
L 459.505056 452.623875 
L 462.428746 366.9534 
L 465.352436 445.863131 
L 468.276126 430.276604 
L 471.199816 337.158257 
L 474.123506 272.261306 
L 477.047197 342.715569 
L 479.970887 295.122048 
L 482.894577 371.122482 
L 485.818267 341.94755 
L 488.741957 356.854732 
L 491.665647 289.118025 
L 494.589337 311.124347 
L 497.513027 323.217569 
L 500.436717 214.724184 
L 503.360408 228.908681 
L 506.284098 153.310088 
L 509.207788 300.890324 
L 512.131478 346.585275 
L 515.055168 288.625752 
L 517.978858 294.768244 
L 520.902548 238.006608 
L 523.826238 202.93693 
L 526.749928 71.498427 
L 529.673618 71.753505 
L 532.597309 186.115262 
L 535.520999 326.848363 
L 538.444689 294.072843 
L 541.368379 299.651038 
L 544.292069 325.535986 
L 547.215759 198.208913 
L 550.139449 217.920955 
L 553.063139 268.174393 
L 555.986829 285.617864 
L 558.910519 313.570423 
L 561.83421 192.406584 
L 564.7579 169.950884 
L 567.68159 240.118853 
L 570.60528 319.026415 
L 573.52897 319.330653 
L 576.45266 364.709438 
L 579.37635 277.465129 
L 582.30004 295.494724 
L 585.22373 353.394571 
L 588.147421 274.738147 
L 591.071111 224.019153 
L 593.994801 183.066919 
L 596.918491 78.868628 
L 599.842181 73.270678 
L 602.765871 228.216621 
L 605.689561 377.139553 
L 608.613251 330.090879 
L 611.536941 388.583793 
L 614.460631 420.003071 
L 617.384322 369.26942 
L 620.308012 426.183883 
L 623.231702 386.310623 
L 626.155392 340.893815 
L 629.079082 304.003047 
L 632.002772 343.943906 
L 634.926462 351.158882 
L 637.850152 355.327649 
L 640.773842 354.197815 
L 643.697532 292.689055 
L 646.621223 270.865328 
L 649.544913 228.169118 
L 652.468603 141.491562 
L 655.392293 71.453312 
L 658.315983 72.309315 
L 661.239673 155.248675 
L 664.163363 127.096088 
L 667.087053 133.859342 
L 670.010743 195.482972 
L 672.934433 201.166833 
L 675.858124 309.185969 
L 678.781814 299.684286 
L 681.705504 220.323035 
L 684.629194 71.495354 
L 687.552884 71.459854 
L 690.476574 222.140381 
L 693.400264 322.489025 
L 696.323954 383.262508 
L 699.247644 358.660728 
L 702.171335 307.698833 
L 705.095025 302.889951 
L 708.018715 306.222558 
L 710.942405 311.470088 
L 713.866095 307.643075 
L 716.789785 312.911383 
L 719.713475 310.580321 
L 722.637165 313.675852 
L 725.560855 311.832882 
L 728.484545 305.795523 
L 728.484545 305.795523 
" style="fill:none;stroke:#55a868;stroke-dasharray:1.5,1.5;stroke-dashoffset:0;stroke-width:1.5;"/>
   </g>
   <g id="line2d_4">
    <path clip-path="url(#p300509237f)" d="M 134.975455 326.845005 
L 137.899145 327.289075 
L 140.822835 326.268046 
L 143.746525 326.670245 
L 146.670215 327.961039 
L 149.593905 327.433052 
L 152.517595 325.14192 
L 155.441285 325.888881 
L 158.364975 324.348173 
L 161.288665 323.816636 
L 164.212356 323.650708 
L 167.136046 322.41973 
L 170.059736 331.860058 
L 172.983426 339.244791 
L 175.907116 348.486434 
L 178.830806 381.868978 
L 181.754496 400.275061 
L 184.678186 346.694587 
L 187.601876 289.616593 
L 190.525567 406.998692 
L 193.449257 382.433868 
L 196.372947 334.579485 
L 199.296637 374.841897 
L 202.220327 322.530144 
L 205.144017 353.002604 
L 208.067707 458.487594 
L 210.991397 377.478718 
L 213.915087 383.443983 
L 216.838777 445.374811 
L 219.762468 465.788113 
L 222.686158 404.766168 
L 225.609848 341.376258 
L 228.533538 292.849018 
L 231.457228 382.756453 
L 234.380918 290.867196 
L 237.304608 324.102439 
L 240.228298 378.226274 
L 243.151988 377.157672 
L 246.075678 334.079761 
L 248.999369 353.17801 
L 251.923059 397.228485 
L 254.846749 379.829578 
L 257.770439 396.39215 
L 260.694129 352.874839 
L 263.617819 425.152745 
L 266.541509 294.185985 
L 269.465199 279.911625 
L 272.388889 336.549606 
L 275.312579 337.197714 
L 278.23627 320.685268 
L 281.15996 291.288599 
L 284.08365 237.900794 
L 287.00734 282.757259 
L 289.93103 409.311074 
L 292.85472 427.903741 
L 295.77841 415.753921 
L 298.7021 436.796616 
L 301.62579 384.940459 
L 304.549481 363.415111 
L 307.473171 330.361973 
L 310.396861 283.694878 
L 313.320551 271.968437 
L 316.244241 388.051958 
L 319.167931 377.051368 
L 322.091621 457.880622 
L 325.015311 319.995814 
L 327.939001 327.782606 
L 330.862691 370.151194 
L 333.786382 358.33928 
L 336.710072 440.577385 
L 339.633762 477.077147 
L 342.557452 371.035557 
L 345.481142 302.222692 
L 348.404832 355.980671 
L 351.328522 442.632036 
L 354.252212 350.211626 
L 357.175902 404.767567 
L 360.099592 342.335617 
L 363.023283 432.135646 
L 365.946973 254.922652 
L 368.870663 240.536653 
L 371.794353 296.911271 
L 374.718043 347.588919 
L 377.641733 336.429922 
L 380.565423 363.844332 
L 383.489113 311.830189 
L 386.412803 330.207327 
L 389.336494 356.852773 
L 392.260184 359.628203 
L 395.183874 349.53877 
L 398.107564 295.49663 
L 401.031254 306.20631 
L 403.954944 334.789591 
L 406.878634 307.993941 
L 409.802324 261.077054 
L 412.726014 236.487115 
L 415.649704 284.023444 
L 418.573395 246.535954 
L 421.497085 307.365125 
L 424.420775 360.015395 
L 427.344465 319.736613 
L 430.268155 411.528066 
L 433.191845 422.24413 
L 436.115535 281.669803 
L 439.039225 328.275351 
L 441.962915 345.337174 
L 444.886605 324.523755 
L 447.810296 340.561803 
L 450.733986 389.037238 
L 453.657676 422.747736 
L 456.581366 325.206895 
L 459.505056 410.577137 
L 462.428746 346.931996 
L 465.352436 438.253704 
L 468.276126 437.406316 
L 471.199816 369.463874 
L 474.123506 362.313891 
L 477.047197 387.167946 
L 479.970887 327.475395 
L 482.894577 419.704483 
L 485.818267 374.498674 
L 488.741957 388.116356 
L 491.665647 360.169045 
L 494.589337 364.528644 
L 497.513027 435.357962 
L 500.436717 361.964599 
L 503.360408 296.351347 
L 506.284098 361.988927 
L 509.207788 389.490822 
L 512.131478 450.354938 
L 515.055168 526.872567 
L 517.978858 416.175079 
L 520.902548 422.34036 
L 523.826238 321.315187 
L 526.749928 71.927965 
L 529.673618 71.458451 
L 532.597309 224.221984 
L 535.520999 304.725767 
L 538.444689 305.842396 
L 541.368379 342.372101 
L 544.292069 331.99641 
L 547.215759 82.435367 
L 550.139449 71.457211 
L 553.063139 82.737839 
L 555.986829 300.813019 
L 558.910519 233.726203 
L 561.83421 71.897243 
L 564.7579 73.838007 
L 567.68159 144.69135 
L 570.60528 325.153131 
L 573.52897 305.294016 
L 576.45266 280.47209 
L 579.37635 313.659779 
L 582.30004 306.592296 
L 585.22373 322.803757 
L 588.147421 265.468416 
L 591.071111 286.383574 
L 593.994801 261.640721 
L 596.918491 71.611281 
L 599.842181 71.522087 
L 602.765871 304.494358 
L 605.689561 352.521682 
L 608.613251 372.324707 
L 611.536941 388.770726 
L 614.460631 406.101527 
L 617.384322 371.498866 
L 620.308012 426.572195 
L 626.155392 358.136484 
L 629.079082 317.353238 
L 632.002772 334.096849 
L 634.926462 358.700605 
L 637.850152 374.597597 
L 640.773842 357.526049 
L 643.697532 221.946802 
L 646.621223 239.045092 
L 649.544913 251.634155 
L 652.468603 279.381364 
L 655.392293 71.455281 
L 658.315983 86.080547 
L 661.239673 302.844757 
L 664.163363 322.059035 
L 667.087053 381.790832 
L 670.010743 357.826299 
L 672.934433 269.496109 
L 675.858124 274.573024 
L 678.781814 272.405651 
L 681.705504 180.333387 
L 684.629194 71.453384 
L 687.552884 88.560133 
L 690.476574 319.029406 
L 693.400264 365.513067 
L 696.323954 406.075397 
L 699.247644 373.41629 
L 702.171335 312.675514 
L 705.095025 311.392293 
L 708.018715 312.635042 
L 710.942405 319.129711 
L 713.866095 318.156325 
L 716.789785 320.147714 
L 719.713475 316.687133 
L 722.637165 320.914457 
L 728.484545 318.946801 
L 728.484545 318.946801 
" style="fill:none;stroke:#c44e52;stroke-dasharray:4.5,1.875,2.25,1.875;stroke-dashoffset:0;stroke-width:1.5;"/>
   </g>
   <g id="line2d_5">
    <path clip-path="url(#p300509237f)" d="M 134.975455 328.757269 
L 137.899145 329.762697 
L 140.822835 328.248486 
L 143.746525 328.805524 
L 146.670215 330.535788 
L 149.593905 329.515844 
L 152.517595 327.751999 
L 155.441285 328.316697 
L 158.364975 326.715456 
L 161.288665 325.941841 
L 164.212356 324.946417 
L 167.136046 323.216538 
L 175.907116 344.744772 
L 178.830806 378.242854 
L 181.754496 404.880937 
L 184.678186 342.655124 
L 187.601876 307.005968 
L 190.525567 412.77531 
L 193.449257 391.762733 
L 196.372947 348.701927 
L 199.296637 396.298369 
L 202.220327 330.706753 
L 205.144017 359.348818 
L 208.067707 472.681396 
L 210.991397 378.201998 
L 213.915087 363.917388 
L 216.838777 445.418431 
L 219.762468 465.088165 
L 222.686158 410.93799 
L 225.609848 362.610241 
L 228.533538 297.450067 
L 231.457228 386.570559 
L 234.380918 295.506425 
L 237.304608 326.823912 
L 240.228298 381.931941 
L 243.151988 380.869671 
L 246.075678 337.463002 
L 248.999369 353.038458 
L 251.923059 403.498356 
L 254.846749 380.881564 
L 257.770439 400.828584 
L 260.694129 351.267285 
L 263.617819 422.63524 
L 266.541509 295.980683 
L 269.465199 282.085469 
L 272.388889 336.944005 
L 275.312579 340.593215 
L 278.23627 327.733967 
L 281.15996 305.919632 
L 284.08365 244.781799 
L 287.00734 281.418157 
L 289.93103 407.082224 
L 292.85472 428.817486 
L 295.77841 413.76874 
L 298.7021 430.183207 
L 301.62579 379.444519 
L 304.549481 357.58973 
L 307.473171 319.906685 
L 310.396861 295.73257 
L 313.320551 282.097222 
L 316.244241 386.223033 
L 319.167931 381.64633 
L 322.091621 442.283181 
L 325.015311 321.238143 
L 327.939001 319.967235 
L 330.862691 291.914005 
L 333.786382 284.652576 
L 336.710072 400.099462 
L 339.633762 409.301769 
L 342.557452 346.138529 
L 345.481142 356.052905 
L 348.404832 379.604552 
L 351.328522 367.149707 
L 354.252212 424.844012 
L 357.175902 447.94671 
L 360.099592 421.692392 
L 363.023283 477.692339 
L 365.946973 314.449555 
L 368.870663 320.0819 
L 371.794353 349.339909 
L 374.718043 394.113314 
L 377.641733 426.179021 
L 380.565423 405.73784 
L 386.412803 327.353927 
L 389.336494 353.519677 
L 392.260184 375.809371 
L 395.183874 385.074362 
L 398.107564 293.457091 
L 401.031254 312.445118 
L 403.954944 334.39089 
L 406.878634 322.910166 
L 409.802324 294.978368 
L 412.726014 252.689149 
L 415.649704 331.874855 
L 418.573395 286.321013 
L 421.497085 355.487227 
L 424.420775 408.801836 
L 427.344465 344.905889 
L 430.268155 424.037061 
L 433.191845 442.020902 
L 436.115535 295.598037 
L 439.039225 334.708613 
L 441.962915 356.435271 
L 444.886605 336.026027 
L 447.810296 346.570566 
L 450.733986 390.110352 
L 453.657676 410.103194 
L 456.581366 311.620344 
L 459.505056 385.565236 
L 462.428746 343.819518 
L 465.352436 438.69725 
L 468.276126 441.860344 
L 471.199816 376.113696 
L 474.123506 373.352382 
L 477.047197 379.117002 
L 479.970887 335.640723 
L 482.894577 421.244194 
L 485.818267 377.142701 
L 488.741957 81.7147 
L 491.665647 71.456844 
L 494.589337 82.280431 
L 497.513027 337.350961 
L 500.436717 264.816128 
L 503.360408 91.043632 
L 506.284098 71.468003 
L 509.207788 78.364715 
L 512.131478 267.638448 
L 515.055168 291.246448 
L 517.978858 345.7534 
L 520.902548 358.341869 
L 523.826238 349.463265 
L 526.749928 350.255753 
L 529.673618 330.892286 
L 532.597309 278.464418 
L 535.520999 254.063091 
L 538.444689 71.488451 
L 541.368379 93.578843 
L 544.292069 198.107034 
L 547.215759 174.881487 
L 550.139449 181.988139 
L 553.063139 183.467177 
L 555.986829 205.145606 
L 558.910519 173.322756 
L 561.83421 93.589033 
L 564.7579 81.028905 
L 567.68159 117.986381 
L 570.60528 209.578104 
L 573.52897 288.834355 
L 576.45266 284.938956 
L 579.37635 274.869602 
L 582.30004 258.568644 
L 585.22373 313.095465 
L 588.147421 264.761612 
L 591.071111 243.832881 
L 593.994801 216.678748 
L 596.918491 71.503603 
L 599.842181 71.631784 
L 602.765871 325.45875 
L 605.689561 353.40991 
L 608.613251 357.864463 
L 611.536941 387.795555 
L 614.460631 415.310095 
L 617.384322 380.058592 
L 620.308012 433.517283 
L 623.231702 395.359298 
L 626.155392 360.823676 
L 629.079082 321.404071 
L 632.002772 332.222433 
L 637.850152 371.988969 
L 640.773842 349.133055 
L 643.697532 217.178865 
L 649.544913 244.966545 
L 652.468603 275.9923 
L 655.392293 71.45781 
L 658.315983 76.543932 
L 661.239673 285.717294 
L 664.163363 309.563403 
L 667.087053 372.936435 
L 670.010743 355.532876 
L 672.934433 272.310313 
L 675.858124 268.659791 
L 678.781814 267.521422 
L 681.705504 193.472081 
L 684.629194 71.453615 
L 687.552884 98.748814 
L 690.476574 312.888402 
L 693.400264 362.372395 
L 696.323954 401.484527 
L 699.247644 371.192302 
L 702.171335 313.428526 
L 708.018715 314.212496 
L 710.942405 319.95452 
L 713.866095 318.571537 
L 716.789785 321.552875 
L 719.713475 318.91364 
L 722.637165 320.060492 
L 725.560855 320.421974 
L 728.484545 318.332711 
L 728.484545 318.332711 
" style="fill:none;stroke:#8172b3;stroke-dasharray:7.5,1.5,1.5,1.5;stroke-dashoffset:0;stroke-width:1.5;"/>
   </g>
   <g id="line2d_6"/>
   <g id="line2d_7"/>
   <g id="line2d_8"/>
   <g id="line2d_9"/>
   <g id="line2d_10"/>
   <g id="patch_3">
    <path d="M 105.3 529.9416 
L 105.3 71.4528 
" style="fill:none;stroke:#262626;stroke-linecap:square;stroke-linejoin:miter;stroke-width:1.25;"/>
   </g>
   <g id="patch_4">
    <path d="M 758.16 529.9416 
L 758.16 71.4528 
" style="fill:none;stroke:#262626;stroke-linecap:square;stroke-linejoin:miter;stroke-width:1.25;"/>
   </g>
   <g id="patch_5">
    <path d="M 105.3 529.9416 
L 758.16 529.9416 
" style="fill:none;stroke:#262626;stroke-linecap:square;stroke-linejoin:miter;stroke-width:1.25;"/>
   </g>
   <g id="patch_6">
    <path d="M 105.3 71.4528 
L 758.16 71.4528 
" style="fill:none;stroke:#262626;stroke-linecap:square;stroke-linejoin:miter;stroke-width:1.25;"/>
   </g>
   <g id="text_16">
    <!-- Activations for &gt;N&lt; -->
    <g style="fill:#262626;" transform="translate(381.04125 65.4528)scale(0.12 -0.12)">
     <defs>
      <path d="M -9 0 
L 1750 4581 
L 2403 4581 
L 4278 0 
L 3588 0 
L 3053 1388 
L 1138 1388 
L 634 0 
L -9 0 
z
M 1313 1881 
L 2866 1881 
L 2388 3150 
Q 2169 3728 2063 4100 
Q 1975 3659 1816 3225 
L 1313 1881 
z
" id="ArialMT-41" transform="scale(0.015625)"/>
      <path d="M 2588 1216 
L 3141 1144 
Q 3050 572 2676 248 
Q 2303 -75 1759 -75 
Q 1078 -75 664 370 
Q 250 816 250 1647 
Q 250 2184 428 2587 
Q 606 2991 970 3192 
Q 1334 3394 1763 3394 
Q 2303 3394 2647 3120 
Q 2991 2847 3088 2344 
L 2541 2259 
Q 2463 2594 2264 2762 
Q 2066 2931 1784 2931 
Q 1359 2931 1093 2626 
Q 828 2322 828 1663 
Q 828 994 1084 691 
Q 1341 388 1753 388 
Q 2084 388 2306 591 
Q 2528 794 2588 1216 
z
" id="ArialMT-63" transform="scale(0.015625)"/>
      <path d="M 1650 503 
L 1731 6 
Q 1494 -44 1306 -44 
Q 1000 -44 831 53 
Q 663 150 594 308 
Q 525 466 525 972 
L 525 2881 
L 113 2881 
L 113 3319 
L 525 3319 
L 525 4141 
L 1084 4478 
L 1084 3319 
L 1650 3319 
L 1650 2881 
L 1084 2881 
L 1084 941 
Q 1084 700 1114 631 
Q 1144 563 1211 522 
Q 1278 481 1403 481 
Q 1497 481 1650 503 
z
" id="ArialMT-74" transform="scale(0.015625)"/>
      <path d="M 425 3934 
L 425 4581 
L 988 4581 
L 988 3934 
L 425 3934 
z
M 425 0 
L 425 3319 
L 988 3319 
L 988 0 
L 425 0 
z
" id="ArialMT-69" transform="scale(0.015625)"/>
      <path d="M 1344 0 
L 81 3319 
L 675 3319 
L 1388 1331 
Q 1503 1009 1600 663 
Q 1675 925 1809 1294 
L 2547 3319 
L 3125 3319 
L 1869 0 
L 1344 0 
z
" id="ArialMT-76" transform="scale(0.015625)"/>
      <path d="M 2588 409 
Q 2275 144 1986 34 
Q 1697 -75 1366 -75 
Q 819 -75 525 192 
Q 231 459 231 875 
Q 231 1119 342 1320 
Q 453 1522 633 1644 
Q 813 1766 1038 1828 
Q 1203 1872 1538 1913 
Q 2219 1994 2541 2106 
Q 2544 2222 2544 2253 
Q 2544 2597 2384 2738 
Q 2169 2928 1744 2928 
Q 1347 2928 1158 2789 
Q 969 2650 878 2297 
L 328 2372 
Q 403 2725 575 2942 
Q 747 3159 1072 3276 
Q 1397 3394 1825 3394 
Q 2250 3394 2515 3294 
Q 2781 3194 2906 3042 
Q 3031 2891 3081 2659 
Q 3109 2516 3109 2141 
L 3109 1391 
Q 3109 606 3145 398 
Q 3181 191 3288 0 
L 2700 0 
Q 2613 175 2588 409 
z
M 2541 1666 
Q 2234 1541 1622 1453 
Q 1275 1403 1131 1340 
Q 988 1278 909 1158 
Q 831 1038 831 891 
Q 831 666 1001 516 
Q 1172 366 1500 366 
Q 1825 366 2078 508 
Q 2331 650 2450 897 
Q 2541 1088 2541 1459 
L 2541 1666 
z
" id="ArialMT-61" transform="scale(0.015625)"/>
      <path d="M 213 1659 
Q 213 2581 725 3025 
Q 1153 3394 1769 3394 
Q 2453 3394 2887 2945 
Q 3322 2497 3322 1706 
Q 3322 1066 3130 698 
Q 2938 331 2570 128 
Q 2203 -75 1769 -75 
Q 1072 -75 642 372 
Q 213 819 213 1659 
z
M 791 1659 
Q 791 1022 1069 705 
Q 1347 388 1769 388 
Q 2188 388 2466 706 
Q 2744 1025 2744 1678 
Q 2744 2294 2464 2611 
Q 2184 2928 1769 2928 
Q 1347 2928 1069 2612 
Q 791 2297 791 1659 
z
" id="ArialMT-6f" transform="scale(0.015625)"/>
      <path d="M 422 0 
L 422 3319 
L 928 3319 
L 928 2847 
Q 1294 3394 1984 3394 
Q 2284 3394 2536 3286 
Q 2788 3178 2913 3003 
Q 3038 2828 3088 2588 
Q 3119 2431 3119 2041 
L 3119 0 
L 2556 0 
L 2556 2019 
Q 2556 2363 2490 2533 
Q 2425 2703 2258 2804 
Q 2091 2906 1866 2906 
Q 1506 2906 1245 2678 
Q 984 2450 984 1813 
L 984 0 
L 422 0 
z
" id="ArialMT-6e" transform="scale(0.015625)"/>
      <path d="M 197 991 
L 753 1078 
Q 800 744 1014 566 
Q 1228 388 1613 388 
Q 2000 388 2187 545 
Q 2375 703 2375 916 
Q 2375 1106 2209 1216 
Q 2094 1291 1634 1406 
Q 1016 1563 777 1677 
Q 538 1791 414 1992 
Q 291 2194 291 2438 
Q 291 2659 392 2848 
Q 494 3038 669 3163 
Q 800 3259 1026 3326 
Q 1253 3394 1513 3394 
Q 1903 3394 2198 3281 
Q 2494 3169 2634 2976 
Q 2775 2784 2828 2463 
L 2278 2388 
Q 2241 2644 2061 2787 
Q 1881 2931 1553 2931 
Q 1166 2931 1000 2803 
Q 834 2675 834 2503 
Q 834 2394 903 2306 
Q 972 2216 1119 2156 
Q 1203 2125 1616 2013 
Q 2213 1853 2448 1751 
Q 2684 1650 2818 1456 
Q 2953 1263 2953 975 
Q 2953 694 2789 445 
Q 2625 197 2315 61 
Q 2006 -75 1616 -75 
Q 969 -75 630 194 
Q 291 463 197 991 
z
" id="ArialMT-73" transform="scale(0.015625)"/>
      <path id="ArialMT-20" transform="scale(0.015625)"/>
      <path d="M 556 0 
L 556 2881 
L 59 2881 
L 59 3319 
L 556 3319 
L 556 3672 
Q 556 4006 616 4169 
Q 697 4388 901 4523 
Q 1106 4659 1475 4659 
Q 1713 4659 2000 4603 
L 1916 4113 
Q 1741 4144 1584 4144 
Q 1328 4144 1222 4034 
Q 1116 3925 1116 3625 
L 1116 3319 
L 1763 3319 
L 1763 2881 
L 1116 2881 
L 1116 0 
L 556 0 
z
" id="ArialMT-66" transform="scale(0.015625)"/>
      <path d="M 416 0 
L 416 3319 
L 922 3319 
L 922 2816 
Q 1116 3169 1280 3281 
Q 1444 3394 1641 3394 
Q 1925 3394 2219 3213 
L 2025 2691 
Q 1819 2813 1613 2813 
Q 1428 2813 1281 2702 
Q 1134 2591 1072 2394 
Q 978 2094 978 1738 
L 978 0 
L 416 0 
z
" id="ArialMT-72" transform="scale(0.015625)"/>
      <path d="M 3384 2003 
L 350 706 
L 350 1266 
L 2753 2263 
L 350 3250 
L 350 3809 
L 3384 2528 
L 3384 2003 
z
" id="ArialMT-3e" transform="scale(0.015625)"/>
      <path d="M 488 0 
L 488 4581 
L 1109 4581 
L 3516 984 
L 3516 4581 
L 4097 4581 
L 4097 0 
L 3475 0 
L 1069 3600 
L 1069 0 
L 488 0 
z
" id="ArialMT-4e" transform="scale(0.015625)"/>
      <path d="M 350 2003 
L 350 2528 
L 3384 3809 
L 3384 3250 
L 978 2263 
L 3384 1266 
L 3384 706 
L 350 2003 
z
" id="ArialMT-3c" transform="scale(0.015625)"/>
     </defs>
     <use xlink:href="#ArialMT-41"/>
     <use x="66.699219" xlink:href="#ArialMT-63"/>
     <use x="116.699219" xlink:href="#ArialMT-74"/>
     <use x="144.482422" xlink:href="#ArialMT-69"/>
     <use x="166.699219" xlink:href="#ArialMT-76"/>
     <use x="216.699219" xlink:href="#ArialMT-61"/>
     <use x="272.314453" xlink:href="#ArialMT-74"/>
     <use x="300.097656" xlink:href="#ArialMT-69"/>
     <use x="322.314453" xlink:href="#ArialMT-6f"/>
     <use x="377.929688" xlink:href="#ArialMT-6e"/>
     <use x="433.544922" xlink:href="#ArialMT-73"/>
     <use x="483.544922" xlink:href="#ArialMT-20"/>
     <use x="511.328125" xlink:href="#ArialMT-66"/>
     <use x="539.111328" xlink:href="#ArialMT-6f"/>
     <use x="594.726562" xlink:href="#ArialMT-72"/>
     <use x="628.027344" xlink:href="#ArialMT-20"/>
     <use x="655.810547" xlink:href="#ArialMT-3e"/>
     <use x="714.208984" xlink:href="#ArialMT-4e"/>
     <use x="786.425781" xlink:href="#ArialMT-3c"/>
    </g>
   </g>
   <g id="legend_1">
    <g id="patch_7">
     <path d="M 113 158.514363 
L 223.415938 158.514363 
Q 225.615938 158.514363 225.615938 156.314363 
L 225.615938 79.1528 
Q 225.615938 76.9528 223.415938 76.9528 
L 113 76.9528 
Q 110.8 76.9528 110.8 79.1528 
L 110.8 156.314363 
Q 110.8 158.514363 113 158.514363 
z
" style="fill:#ffffff;opacity:0.8;stroke:#cccccc;stroke-linejoin:miter;"/>
    </g>
    <g id="line2d_11">
     <path d="M 115.2 85.376394 
L 137.2 85.376394 
" style="fill:none;stroke:#4c72b0;stroke-linecap:round;stroke-width:1.5;"/>
    </g>
    <g id="line2d_12"/>
    <g id="text_17">
     <!-- regular -->
     <g style="fill:#262626;" transform="translate(146 89.226394)scale(0.11 -0.11)">
      <defs>
       <path d="M 2694 1069 
L 3275 997 
Q 3138 488 2766 206 
Q 2394 -75 1816 -75 
Q 1088 -75 661 373 
Q 234 822 234 1631 
Q 234 2469 665 2931 
Q 1097 3394 1784 3394 
Q 2450 3394 2872 2941 
Q 3294 2488 3294 1666 
Q 3294 1616 3291 1516 
L 816 1516 
Q 847 969 1125 678 
Q 1403 388 1819 388 
Q 2128 388 2347 550 
Q 2566 713 2694 1069 
z
M 847 1978 
L 2700 1978 
Q 2663 2397 2488 2606 
Q 2219 2931 1791 2931 
Q 1403 2931 1139 2672 
Q 875 2413 847 1978 
z
" id="ArialMT-65" transform="scale(0.015625)"/>
       <path d="M 319 -275 
L 866 -356 
Q 900 -609 1056 -725 
Q 1266 -881 1628 -881 
Q 2019 -881 2231 -725 
Q 2444 -569 2519 -288 
Q 2563 -116 2559 434 
Q 2191 0 1641 0 
Q 956 0 581 494 
Q 206 988 206 1678 
Q 206 2153 378 2554 
Q 550 2956 876 3175 
Q 1203 3394 1644 3394 
Q 2231 3394 2613 2919 
L 2613 3319 
L 3131 3319 
L 3131 450 
Q 3131 -325 2973 -648 
Q 2816 -972 2473 -1159 
Q 2131 -1347 1631 -1347 
Q 1038 -1347 672 -1080 
Q 306 -813 319 -275 
z
M 784 1719 
Q 784 1066 1043 766 
Q 1303 466 1694 466 
Q 2081 466 2343 764 
Q 2606 1063 2606 1700 
Q 2606 2309 2336 2618 
Q 2066 2928 1684 2928 
Q 1309 2928 1046 2623 
Q 784 2319 784 1719 
z
" id="ArialMT-67" transform="scale(0.015625)"/>
       <path d="M 2597 0 
L 2597 488 
Q 2209 -75 1544 -75 
Q 1250 -75 995 37 
Q 741 150 617 320 
Q 494 491 444 738 
Q 409 903 409 1263 
L 409 3319 
L 972 3319 
L 972 1478 
Q 972 1038 1006 884 
Q 1059 663 1231 536 
Q 1403 409 1656 409 
Q 1909 409 2131 539 
Q 2353 669 2445 892 
Q 2538 1116 2538 1541 
L 2538 3319 
L 3100 3319 
L 3100 0 
L 2597 0 
z
" id="ArialMT-75" transform="scale(0.015625)"/>
       <path d="M 409 0 
L 409 4581 
L 972 4581 
L 972 0 
L 409 0 
z
" id="ArialMT-6c" transform="scale(0.015625)"/>
      </defs>
      <use xlink:href="#ArialMT-72"/>
      <use x="33.300781" xlink:href="#ArialMT-65"/>
      <use x="88.916016" xlink:href="#ArialMT-67"/>
      <use x="144.53125" xlink:href="#ArialMT-75"/>
      <use x="200.146484" xlink:href="#ArialMT-6c"/>
      <use x="222.363281" xlink:href="#ArialMT-61"/>
      <use x="277.978516" xlink:href="#ArialMT-72"/>
     </g>
    </g>
    <g id="line2d_13">
     <path d="M 115.2 101.0978 
L 137.2 101.0978 
" style="fill:none;stroke:#dd8452;stroke-dasharray:6,2.25;stroke-dashoffset:0;stroke-width:1.5;"/>
    </g>
    <g id="line2d_14"/>
    <g id="text_18">
     <!-- splitted_3s -->
     <g style="fill:#262626;" transform="translate(146 104.9478)scale(0.11 -0.11)">
      <defs>
       <path d="M 422 -1272 
L 422 3319 
L 934 3319 
L 934 2888 
Q 1116 3141 1344 3267 
Q 1572 3394 1897 3394 
Q 2322 3394 2647 3175 
Q 2972 2956 3137 2557 
Q 3303 2159 3303 1684 
Q 3303 1175 3120 767 
Q 2938 359 2589 142 
Q 2241 -75 1856 -75 
Q 1575 -75 1351 44 
Q 1128 163 984 344 
L 984 -1272 
L 422 -1272 
z
M 931 1641 
Q 931 1000 1190 694 
Q 1450 388 1819 388 
Q 2194 388 2461 705 
Q 2728 1022 2728 1688 
Q 2728 2322 2467 2637 
Q 2206 2953 1844 2953 
Q 1484 2953 1207 2617 
Q 931 2281 931 1641 
z
" id="ArialMT-70" transform="scale(0.015625)"/>
       <path d="M 2575 0 
L 2575 419 
Q 2259 -75 1647 -75 
Q 1250 -75 917 144 
Q 584 363 401 755 
Q 219 1147 219 1656 
Q 219 2153 384 2558 
Q 550 2963 881 3178 
Q 1213 3394 1622 3394 
Q 1922 3394 2156 3267 
Q 2391 3141 2538 2938 
L 2538 4581 
L 3097 4581 
L 3097 0 
L 2575 0 
z
M 797 1656 
Q 797 1019 1065 703 
Q 1334 388 1700 388 
Q 2069 388 2326 689 
Q 2584 991 2584 1609 
Q 2584 2291 2321 2609 
Q 2059 2928 1675 2928 
Q 1300 2928 1048 2622 
Q 797 2316 797 1656 
z
" id="ArialMT-64" transform="scale(0.015625)"/>
       <path d="M -97 -1272 
L -97 -866 
L 3631 -866 
L 3631 -1272 
L -97 -1272 
z
" id="ArialMT-5f" transform="scale(0.015625)"/>
       <path d="M 269 1209 
L 831 1284 
Q 928 806 1161 595 
Q 1394 384 1728 384 
Q 2125 384 2398 659 
Q 2672 934 2672 1341 
Q 2672 1728 2419 1979 
Q 2166 2231 1775 2231 
Q 1616 2231 1378 2169 
L 1441 2663 
Q 1497 2656 1531 2656 
Q 1891 2656 2178 2843 
Q 2466 3031 2466 3422 
Q 2466 3731 2256 3934 
Q 2047 4138 1716 4138 
Q 1388 4138 1169 3931 
Q 950 3725 888 3313 
L 325 3413 
Q 428 3978 793 4289 
Q 1159 4600 1703 4600 
Q 2078 4600 2393 4439 
Q 2709 4278 2876 4000 
Q 3044 3722 3044 3409 
Q 3044 3113 2884 2869 
Q 2725 2625 2413 2481 
Q 2819 2388 3044 2092 
Q 3269 1797 3269 1353 
Q 3269 753 2831 336 
Q 2394 -81 1725 -81 
Q 1122 -81 723 278 
Q 325 638 269 1209 
z
" id="ArialMT-33" transform="scale(0.015625)"/>
      </defs>
      <use xlink:href="#ArialMT-73"/>
      <use x="50" xlink:href="#ArialMT-70"/>
      <use x="105.615234" xlink:href="#ArialMT-6c"/>
      <use x="127.832031" xlink:href="#ArialMT-69"/>
      <use x="150.048828" xlink:href="#ArialMT-74"/>
      <use x="177.832031" xlink:href="#ArialMT-74"/>
      <use x="205.615234" xlink:href="#ArialMT-65"/>
      <use x="261.230469" xlink:href="#ArialMT-64"/>
      <use x="316.845703" xlink:href="#ArialMT-5f"/>
      <use x="372.460938" xlink:href="#ArialMT-33"/>
      <use x="428.076172" xlink:href="#ArialMT-73"/>
     </g>
    </g>
    <g id="line2d_15">
     <path d="M 115.2 116.6903 
L 137.2 116.6903 
" style="fill:none;stroke:#55a868;stroke-dasharray:1.5,1.5;stroke-dashoffset:0;stroke-width:1.5;"/>
    </g>
    <g id="line2d_16"/>
    <g id="text_19">
     <!-- splitted_1s -->
     <g style="fill:#262626;" transform="translate(146 120.5403)scale(0.11 -0.11)">
      <use xlink:href="#ArialMT-73"/>
      <use x="50" xlink:href="#ArialMT-70"/>
      <use x="105.615234" xlink:href="#ArialMT-6c"/>
      <use x="127.832031" xlink:href="#ArialMT-69"/>
      <use x="150.048828" xlink:href="#ArialMT-74"/>
      <use x="177.832031" xlink:href="#ArialMT-74"/>
      <use x="205.615234" xlink:href="#ArialMT-65"/>
      <use x="261.230469" xlink:href="#ArialMT-64"/>
      <use x="316.845703" xlink:href="#ArialMT-5f"/>
      <use x="372.460938" xlink:href="#ArialMT-31"/>
      <use x="428.076172" xlink:href="#ArialMT-73"/>
     </g>
    </g>
    <g id="line2d_17">
     <path d="M 115.2 132.384206 
L 137.2 132.384206 
" style="fill:none;stroke:#c44e52;stroke-dasharray:4.5,1.875,2.25,1.875;stroke-dashoffset:0;stroke-width:1.5;"/>
    </g>
    <g id="line2d_18"/>
    <g id="text_20">
     <!-- overlap_1f_3s -->
     <g style="fill:#262626;" transform="translate(146 136.234206)scale(0.11 -0.11)">
      <use xlink:href="#ArialMT-6f"/>
      <use x="55.615234" xlink:href="#ArialMT-76"/>
      <use x="105.615234" xlink:href="#ArialMT-65"/>
      <use x="161.230469" xlink:href="#ArialMT-72"/>
      <use x="194.53125" xlink:href="#ArialMT-6c"/>
      <use x="216.748047" xlink:href="#ArialMT-61"/>
      <use x="272.363281" xlink:href="#ArialMT-70"/>
      <use x="327.978516" xlink:href="#ArialMT-5f"/>
      <use x="383.59375" xlink:href="#ArialMT-31"/>
      <use x="439.208984" xlink:href="#ArialMT-66"/>
      <use x="466.992188" xlink:href="#ArialMT-5f"/>
      <use x="522.607422" xlink:href="#ArialMT-33"/>
      <use x="578.222656" xlink:href="#ArialMT-73"/>
     </g>
    </g>
    <g id="line2d_19">
     <path d="M 115.2 148.078113 
L 137.2 148.078113 
" style="fill:none;stroke:#8172b3;stroke-dasharray:7.5,1.5,1.5,1.5;stroke-dashoffset:0;stroke-width:1.5;"/>
    </g>
    <g id="line2d_20"/>
    <g id="text_21">
     <!-- overlap_10f_3s -->
     <g style="fill:#262626;" transform="translate(146 151.928112)scale(0.11 -0.11)">
      <use xlink:href="#ArialMT-6f"/>
      <use x="55.615234" xlink:href="#ArialMT-76"/>
      <use x="105.615234" xlink:href="#ArialMT-65"/>
      <use x="161.230469" xlink:href="#ArialMT-72"/>
      <use x="194.53125" xlink:href="#ArialMT-6c"/>
      <use x="216.748047" xlink:href="#ArialMT-61"/>
      <use x="272.363281" xlink:href="#ArialMT-70"/>
      <use x="327.978516" xlink:href="#ArialMT-5f"/>
      <use x="383.59375" xlink:href="#ArialMT-31"/>
      <use x="439.208984" xlink:href="#ArialMT-30"/>
      <use x="494.824219" xlink:href="#ArialMT-66"/>
      <use x="522.607422" xlink:href="#ArialMT-5f"/>
      <use x="578.222656" xlink:href="#ArialMT-33"/>
      <use x="633.837891" xlink:href="#ArialMT-73"/>
     </g>
    </g>
   </g>
  </g>
 </g>
 <defs>
  <clipPath id="p300509237f">
   <rect height="458.4888" width="652.86" x="105.3" y="71.4528"/>
  </clipPath>
 </defs>
</svg>
