<?xml version="1.0" encoding="utf-8" standalone="no"?>
<!DOCTYPE svg PUBLIC "-//W3C//DTD SVG 1.1//EN"
  "http://www.w3.org/Graphics/SVG/1.1/DTD/svg11.dtd">
<svg height="595.44pt" version="1.1" viewBox="0 0 842.4 595.44" width="842.4pt" xmlns="http://www.w3.org/2000/svg" xmlns:xlink="http://www.w3.org/1999/xlink">
 <metadata>
  <rdf:RDF xmlns:cc="http://creativecommons.org/ns#" xmlns:dc="http://purl.org/dc/elements/1.1/" xmlns:rdf="http://www.w3.org/1999/02/22-rdf-syntax-ns#">
   <cc:Work>
    <dc:type rdf:resource="http://purl.org/dc/dcmitype/StillImage"/>
    <dc:date>2021-06-04T22:03:12.388956</dc:date>
    <dc:format>image/svg+xml</dc:format>
    <dc:creator>
     <cc:Agent>
      <dc:title>Matplotlib v3.4.1, https://matplotlib.org/</dc:title>
     </cc:Agent>
    </dc:creator>
   </cc:Work>
  </rdf:RDF>
 </metadata>
 <defs>
  <style type="text/css">*{stroke-linecap:butt;stroke-linejoin:round;}</style>
 </defs>
 <g id="figure_1">
  <g id="patch_1">
   <path d="M 0 595.44 
L 842.4 595.44 
L 842.4 0 
L 0 0 
z
" style="fill:#ffffff;"/>
  </g>
  <g id="axes_1">
   <g id="patch_2">
    <path d="M 105.3 529.9416 
L 758.16 529.9416 
L 758.16 71.4528 
L 105.3 71.4528 
z
" style="fill:#ffffff;"/>
   </g>
   <g id="matplotlib.axis_1">
    <g id="xtick_1">
     <g id="text_1">
      <!-- 0 -->
      <g style="fill:#262626;" transform="translate(131.916939 547.315194)scale(0.11 -0.11)">
       <defs>
        <path d="M 266 2259 
Q 266 3072 433 3567 
Q 600 4063 929 4331 
Q 1259 4600 1759 4600 
Q 2128 4600 2406 4451 
Q 2684 4303 2865 4023 
Q 3047 3744 3150 3342 
Q 3253 2941 3253 2259 
Q 3253 1453 3087 958 
Q 2922 463 2592 192 
Q 2263 -78 1759 -78 
Q 1097 -78 719 397 
Q 266 969 266 2259 
z
M 844 2259 
Q 844 1131 1108 757 
Q 1372 384 1759 384 
Q 2147 384 2411 759 
Q 2675 1134 2675 2259 
Q 2675 3391 2411 3762 
Q 2147 4134 1753 4134 
Q 1366 4134 1134 3806 
Q 844 3388 844 2259 
z
" id="ArialMT-30" transform="scale(0.015625)"/>
       </defs>
       <use xlink:href="#ArialMT-30"/>
      </g>
     </g>
    </g>
    <g id="xtick_2">
     <g id="text_2">
      <!-- 25 -->
      <g style="fill:#262626;" transform="translate(201.950676 547.315194)scale(0.11 -0.11)">
       <defs>
        <path d="M 3222 541 
L 3222 0 
L 194 0 
Q 188 203 259 391 
Q 375 700 629 1000 
Q 884 1300 1366 1694 
Q 2113 2306 2375 2664 
Q 2638 3022 2638 3341 
Q 2638 3675 2398 3904 
Q 2159 4134 1775 4134 
Q 1369 4134 1125 3890 
Q 881 3647 878 3216 
L 300 3275 
Q 359 3922 746 4261 
Q 1134 4600 1788 4600 
Q 2447 4600 2831 4234 
Q 3216 3869 3216 3328 
Q 3216 3053 3103 2787 
Q 2991 2522 2730 2228 
Q 2469 1934 1863 1422 
Q 1356 997 1212 845 
Q 1069 694 975 541 
L 3222 541 
z
" id="ArialMT-32" transform="scale(0.015625)"/>
        <path d="M 266 1200 
L 856 1250 
Q 922 819 1161 601 
Q 1400 384 1738 384 
Q 2144 384 2425 690 
Q 2706 997 2706 1503 
Q 2706 1984 2436 2262 
Q 2166 2541 1728 2541 
Q 1456 2541 1237 2417 
Q 1019 2294 894 2097 
L 366 2166 
L 809 4519 
L 3088 4519 
L 3088 3981 
L 1259 3981 
L 1013 2750 
Q 1425 3038 1878 3038 
Q 2478 3038 2890 2622 
Q 3303 2206 3303 1553 
Q 3303 931 2941 478 
Q 2500 -78 1738 -78 
Q 1113 -78 717 272 
Q 322 622 266 1200 
z
" id="ArialMT-35" transform="scale(0.015625)"/>
       </defs>
       <use xlink:href="#ArialMT-32"/>
       <use x="55.615234" xlink:href="#ArialMT-35"/>
      </g>
     </g>
    </g>
    <g id="xtick_3">
     <g id="text_3">
      <!-- 50 -->
      <g style="fill:#262626;" transform="translate(275.042928 547.315194)scale(0.11 -0.11)">
       <use xlink:href="#ArialMT-35"/>
       <use x="55.615234" xlink:href="#ArialMT-30"/>
      </g>
     </g>
    </g>
    <g id="xtick_4">
     <g id="text_4">
      <!-- 75 -->
      <g style="fill:#262626;" transform="translate(348.135181 547.315194)scale(0.11 -0.11)">
       <defs>
        <path d="M 303 3981 
L 303 4522 
L 3269 4522 
L 3269 4084 
Q 2831 3619 2401 2847 
Q 1972 2075 1738 1259 
Q 1569 684 1522 0 
L 944 0 
Q 953 541 1156 1306 
Q 1359 2072 1739 2783 
Q 2119 3494 2547 3981 
L 303 3981 
z
" id="ArialMT-37" transform="scale(0.015625)"/>
       </defs>
       <use xlink:href="#ArialMT-37"/>
       <use x="55.615234" xlink:href="#ArialMT-35"/>
      </g>
     </g>
    </g>
    <g id="xtick_5">
     <g id="text_5">
      <!-- 100 -->
      <g style="fill:#262626;" transform="translate(418.168918 547.315194)scale(0.11 -0.11)">
       <defs>
        <path d="M 2384 0 
L 1822 0 
L 1822 3584 
Q 1619 3391 1289 3197 
Q 959 3003 697 2906 
L 697 3450 
Q 1169 3672 1522 3987 
Q 1875 4303 2022 4600 
L 2384 4600 
L 2384 0 
z
" id="ArialMT-31" transform="scale(0.015625)"/>
       </defs>
       <use xlink:href="#ArialMT-31"/>
       <use x="55.615234" xlink:href="#ArialMT-30"/>
       <use x="111.230469" xlink:href="#ArialMT-30"/>
      </g>
     </g>
    </g>
    <g id="xtick_6">
     <g id="text_6">
      <!-- 125 -->
      <g style="fill:#262626;" transform="translate(491.261171 547.315194)scale(0.11 -0.11)">
       <use xlink:href="#ArialMT-31"/>
       <use x="55.615234" xlink:href="#ArialMT-32"/>
       <use x="111.230469" xlink:href="#ArialMT-35"/>
      </g>
     </g>
    </g>
    <g id="xtick_7">
     <g id="text_7">
      <!-- 150 -->
      <g style="fill:#262626;" transform="translate(564.353423 547.315194)scale(0.11 -0.11)">
       <use xlink:href="#ArialMT-31"/>
       <use x="55.615234" xlink:href="#ArialMT-35"/>
       <use x="111.230469" xlink:href="#ArialMT-30"/>
      </g>
     </g>
    </g>
    <g id="xtick_8">
     <g id="text_8">
      <!-- 175 -->
      <g style="fill:#262626;" transform="translate(637.445676 547.315194)scale(0.11 -0.11)">
       <use xlink:href="#ArialMT-31"/>
       <use x="55.615234" xlink:href="#ArialMT-37"/>
       <use x="111.230469" xlink:href="#ArialMT-35"/>
      </g>
     </g>
    </g>
    <g id="xtick_9">
     <g id="text_9">
      <!-- 200 -->
      <g style="fill:#262626;" transform="translate(710.537928 547.315194)scale(0.11 -0.11)">
       <use xlink:href="#ArialMT-32"/>
       <use x="55.615234" xlink:href="#ArialMT-30"/>
       <use x="111.230469" xlink:href="#ArialMT-30"/>
      </g>
     </g>
    </g>
   </g>
   <g id="matplotlib.axis_2">
    <g id="ytick_1">
     <g id="text_10">
      <!-- −25 -->
      <g style="fill:#262626;" transform="translate(77.14125 533.878397)scale(0.11 -0.11)">
       <defs>
        <path d="M 3381 1997 
L 356 1997 
L 356 2522 
L 3381 2522 
L 3381 1997 
z
" id="ArialMT-2212" transform="scale(0.015625)"/>
       </defs>
       <use xlink:href="#ArialMT-2212"/>
       <use x="58.398438" xlink:href="#ArialMT-32"/>
       <use x="114.013672" xlink:href="#ArialMT-35"/>
      </g>
     </g>
    </g>
    <g id="ytick_2">
     <g id="text_11">
      <!-- −20 -->
      <g style="fill:#262626;" transform="translate(77.14125 442.180637)scale(0.11 -0.11)">
       <use xlink:href="#ArialMT-2212"/>
       <use x="58.398438" xlink:href="#ArialMT-32"/>
       <use x="114.013672" xlink:href="#ArialMT-30"/>
      </g>
     </g>
    </g>
    <g id="ytick_3">
     <g id="text_12">
      <!-- −15 -->
      <g style="fill:#262626;" transform="translate(77.14125 350.482877)scale(0.11 -0.11)">
       <use xlink:href="#ArialMT-2212"/>
       <use x="58.398438" xlink:href="#ArialMT-31"/>
       <use x="114.013672" xlink:href="#ArialMT-35"/>
      </g>
     </g>
    </g>
    <g id="ytick_4">
     <g id="text_13">
      <!-- −10 -->
      <g style="fill:#262626;" transform="translate(77.14125 258.785117)scale(0.11 -0.11)">
       <use xlink:href="#ArialMT-2212"/>
       <use x="58.398438" xlink:href="#ArialMT-31"/>
       <use x="114.013672" xlink:href="#ArialMT-30"/>
      </g>
     </g>
    </g>
    <g id="ytick_5">
     <g id="text_14">
      <!-- −5 -->
      <g style="fill:#262626;" transform="translate(83.258281 167.087357)scale(0.11 -0.11)">
       <use xlink:href="#ArialMT-2212"/>
       <use x="58.398438" xlink:href="#ArialMT-35"/>
      </g>
     </g>
    </g>
    <g id="ytick_6">
     <g id="text_15">
      <!-- 0 -->
      <g style="fill:#262626;" transform="translate(89.682969 75.389597)scale(0.11 -0.11)">
       <use xlink:href="#ArialMT-30"/>
      </g>
     </g>
    </g>
   </g>
   <g id="line2d_1">
    <path clip-path="url(#p16e4847776)" d="M 134.975455 341.863825 
L 137.899145 340.228462 
L 140.822835 342.976764 
L 143.746525 341.434464 
L 146.670215 344.801177 
L 149.593905 344.792274 
L 152.517595 346.164152 
L 155.441285 352.454853 
L 158.364975 353.275342 
L 164.212356 363.364495 
L 167.136046 366.51748 
L 170.059736 386.293902 
L 172.983426 398.925256 
L 175.907116 403.09028 
L 178.830806 424.652147 
L 181.754496 435.251798 
L 184.678186 372.376337 
L 187.601876 340.221151 
L 190.525567 418.20199 
L 193.449257 395.887985 
L 196.372947 395.918452 
L 199.296637 481.490424 
L 202.220327 371.338308 
L 205.144017 377.67548 
L 208.067707 532.748459 
L 210.991397 422.782506 
L 213.915087 474.541663 
L 216.838777 479.229952 
L 219.762468 507.566939 
L 222.686158 489.182123 
L 225.609848 471.788743 
L 228.533538 444.304846 
L 231.457228 481.842427 
L 234.380918 334.231347 
L 237.304608 413.059872 
L 240.228298 444.709738 
L 243.151988 448.672613 
L 246.075678 339.332486 
L 248.999369 339.462017 
L 251.923059 393.991024 
L 254.846749 420.676645 
L 257.770439 449.479285 
L 260.694129 417.615167 
L 263.617819 535.900324 
L 266.541509 439.399017 
L 269.465199 451.912244 
L 272.388889 467.981914 
L 275.312579 462.387575 
L 278.23627 459.347155 
L 281.15996 439.570279 
L 284.08365 388.558747 
L 287.00734 381.583436 
L 289.93103 439.12327 
L 292.85472 394.62479 
L 295.77841 409.854452 
L 298.7021 483.011036 
L 301.62579 408.040848 
L 304.549481 391.214842 
L 307.473171 390.845804 
L 310.396861 424.54273 
L 313.320551 377.656066 
L 316.244241 428.160703 
L 319.167931 370.294752 
L 322.091621 487.532295 
L 325.015311 371.765553 
L 327.939001 350.290785 
L 330.862691 435.228221 
L 333.786382 426.654958 
L 336.710072 446.815424 
L 339.633762 526.169156 
L 342.557452 434.685123 
L 345.481142 442.174324 
L 348.404832 371.066584 
L 351.328522 379.449626 
L 354.252212 407.4195 
L 357.175902 407.518563 
L 360.099592 403.570205 
L 363.023283 419.732327 
L 365.946973 328.821615 
L 368.870663 313.046266 
L 371.794353 424.829111 
L 374.718043 419.255236 
L 377.641733 433.4787 
L 380.565423 440.979235 
L 383.489113 444.566181 
L 386.412803 367.522069 
L 389.336494 366.958997 
L 392.260184 396.550295 
L 395.183874 460.037379 
L 398.107564 427.182455 
L 401.031254 411.221188 
L 403.954944 338.56758 
L 406.878634 309.347052 
L 409.802324 173.224182 
L 412.726014 98.002828 
L 415.649704 71.456665 
L 418.573395 71.489525 
L 421.497085 225.975282 
L 424.420775 355.596312 
L 427.344465 295.293992 
L 430.268155 379.568103 
L 433.191845 418.314486 
L 436.115535 315.631964 
L 439.039225 385.344967 
L 441.962915 478.563059 
L 444.886605 476.416691 
L 447.810296 391.75063 
L 450.733986 398.819267 
L 453.657676 531.810122 
L 456.581366 454.690978 
L 459.505056 468.132642 
L 462.428746 437.5554 
L 465.352436 481.300728 
L 468.276126 475.099418 
L 471.199816 323.374874 
L 474.123506 343.139106 
L 477.047197 347.927612 
L 479.970887 337.330463 
L 482.894577 420.711135 
L 485.818267 397.349306 
L 488.741957 423.548776 
L 491.665647 373.652299 
L 494.589337 394.826939 
L 497.513027 463.61607 
L 500.436717 368.093186 
L 503.360408 282.941638 
L 506.284098 351.685417 
L 509.207788 478.879733 
L 512.131478 525.851468 
L 515.055168 523.674493 
L 517.978858 402.412369 
L 520.902548 439.367815 
L 523.826238 431.185907 
L 526.749928 343.362383 
L 529.673618 368.440956 
L 532.597309 379.702041 
L 535.520999 321.084039 
L 538.444689 331.527819 
L 541.368379 396.925489 
L 544.292069 508.213368 
L 547.215759 427.735243 
L 550.139449 423.584176 
L 553.063139 283.484124 
L 555.986829 411.479479 
L 558.910519 428.668052 
L 561.83421 402.66412 
L 564.7579 347.566584 
L 567.68159 288.500472 
L 570.60528 313.844385 
L 573.52897 349.076352 
L 576.45266 397.416502 
L 579.37635 428.129151 
L 582.30004 365.310883 
L 585.22373 383.588765 
L 588.147421 377.051893 
L 591.071111 380.171787 
L 593.994801 418.71665 
L 596.918491 312.505179 
L 599.842181 330.751999 
L 602.765871 432.221802 
L 605.689561 382.699995 
L 608.613251 382.107541 
L 611.536941 510.811362 
L 614.460631 519.907575 
L 617.384322 376.692124 
L 620.308012 403.434028 
L 623.231702 465.801615 
L 626.155392 494.19646 
L 629.079082 410.305203 
L 632.002772 314.901828 
L 634.926462 336.180008 
L 637.850152 378.476135 
L 640.773842 307.642603 
L 643.697532 292.393194 
L 646.621223 328.936139 
L 649.544913 333.524 
L 652.468603 465.600621 
L 655.392293 406.740995 
L 658.315983 326.472713 
L 661.239673 342.919974 
L 664.163363 126.55553 
L 667.087053 71.452997 
L 670.010743 193.79791 
L 672.934433 347.64716 
L 675.858124 445.752839 
L 678.781814 438.077056 
L 681.705504 475.491613 
L 684.629194 443.447033 
L 687.552884 367.184827 
L 690.476574 482.85653 
L 693.400264 411.794613 
L 696.323954 420.282176 
L 699.247644 414.852523 
L 702.171335 380.422593 
L 705.095025 374.450716 
L 708.018715 368.796457 
L 710.942405 365.972773 
L 713.866095 364.450937 
L 716.789785 364.892558 
L 722.637165 364.708074 
L 725.560855 365.884099 
L 728.484545 362.631893 
L 728.484545 362.631893 
" style="fill:none;stroke:#4c72b0;stroke-linecap:round;stroke-width:1.5;"/>
   </g>
   <g id="line2d_2">
    <path clip-path="url(#p16e4847776)" d="M 134.975455 333.74684 
L 137.899145 333.969085 
L 140.822835 335.6891 
L 143.746525 334.2215 
L 146.670215 338.57622 
L 152.517595 337.587793 
L 155.441285 340.92325 
L 158.364975 340.720804 
L 164.212356 346.338772 
L 167.136046 347.739385 
L 170.059736 367.874036 
L 172.983426 375.91543 
L 175.907116 384.391869 
L 178.830806 411.642486 
L 181.754496 417.485182 
L 184.678186 367.914788 
L 187.601876 312.16005 
L 190.525567 422.454219 
L 193.449257 381.535409 
L 196.372947 382.870872 
L 199.296637 459.05161 
L 202.220327 393.772294 
L 205.144017 402.526859 
L 208.067707 533.922455 
L 210.991397 429.057344 
L 213.915087 455.043891 
L 216.838777 476.973152 
L 219.762468 490.130289 
L 222.686158 467.690566 
L 225.609848 435.091799 
L 228.533538 415.478454 
L 231.457228 462.585142 
L 234.380918 333.792996 
L 237.304608 383.378501 
L 240.228298 411.480599 
L 243.151988 416.003118 
L 246.075678 334.871374 
L 248.999369 352.377495 
L 251.923059 385.378828 
L 254.846749 406.297834 
L 257.770439 453.689853 
L 260.694129 435.798149 
L 263.617819 543.512759 
L 266.541509 445.819476 
L 269.465199 460.015272 
L 272.388889 478.890227 
L 275.312579 454.152358 
L 278.23627 443.161282 
L 281.15996 443.066067 
L 284.08365 389.232286 
L 287.00734 380.896676 
L 289.93103 453.904385 
L 292.85472 398.518475 
L 295.77841 366.558267 
L 298.7021 464.084871 
L 301.62579 392.797999 
L 304.549481 385.059111 
L 307.473171 391.310198 
L 310.396861 396.897855 
L 313.320551 368.918432 
L 316.244241 434.719403 
L 319.167931 380.701313 
L 322.091621 449.942104 
L 325.015311 350.079244 
L 327.939001 360.37658 
L 330.862691 412.431248 
L 333.786382 404.005075 
L 336.710072 459.716508 
L 339.633762 535.535344 
L 342.557452 415.715583 
L 345.481142 379.736427 
L 348.404832 359.500054 
L 351.328522 387.790658 
L 354.252212 347.519711 
L 357.175902 317.858803 
L 360.099592 284.134208 
L 363.023283 238.419354 
L 365.946973 150.257469 
L 368.870663 165.056756 
L 371.794353 260.005987 
L 374.718043 291.263168 
L 377.641733 300.358559 
L 380.565423 355.675734 
L 383.489113 338.715545 
L 386.412803 355.3252 
L 389.336494 357.951685 
L 392.260184 376.973048 
L 395.183874 434.467618 
L 398.107564 410.615091 
L 401.031254 406.891618 
L 403.954944 312.693039 
L 406.878634 214.480103 
L 409.802324 121.267165 
L 412.726014 81.075429 
L 415.649704 71.472813 
L 418.573395 71.766635 
L 421.497085 224.824128 
L 424.420775 324.0701 
L 427.344465 235.473747 
L 430.268155 310.87835 
L 433.191845 362.993463 
L 436.115535 283.797439 
L 439.039225 386.827066 
L 441.962915 471.330017 
L 444.886605 432.143412 
L 447.810296 377.497887 
L 450.733986 427.72181 
L 453.657676 535.138322 
L 456.581366 489.392248 
L 459.505056 466.650368 
L 462.428746 425.273671 
L 465.352436 480.754761 
L 468.276126 465.084072 
L 471.199816 337.949607 
L 474.123506 326.214649 
L 477.047197 387.175991 
L 479.970887 314.35803 
L 482.894577 420.949768 
L 485.818267 406.707938 
L 488.741957 436.520414 
L 491.665647 394.470179 
L 494.589337 401.649422 
L 497.513027 463.278094 
L 500.436717 377.623465 
L 503.360408 304.038499 
L 506.284098 365.900085 
L 509.207788 460.196783 
L 512.131478 507.986559 
L 515.055168 532.981285 
L 517.978858 430.916246 
L 520.902548 451.764488 
L 523.826238 427.100287 
L 526.749928 347.892247 
L 529.673618 377.675865 
L 532.597309 380.155836 
L 535.520999 335.056488 
L 538.444689 315.889888 
L 541.368379 375.847814 
L 544.292069 517.080253 
L 547.215759 394.895255 
L 550.139449 374.31272 
L 553.063139 300.228137 
L 555.986829 357.749081 
L 558.910519 363.864218 
L 561.83421 288.078999 
L 564.7579 254.169377 
L 567.68159 107.681037 
L 570.60528 71.457524 
L 573.52897 156.054813 
L 576.45266 209.505049 
L 579.37635 260.458085 
L 582.30004 164.352033 
L 585.22373 305.889514 
L 588.147421 297.19223 
L 591.071111 333.102405 
L 593.994801 404.25868 
L 596.918491 321.80097 
L 599.842181 313.458119 
L 602.765871 382.959267 
L 605.689561 392.298485 
L 608.613251 415.812127 
L 611.536941 500.701291 
L 614.460631 514.651982 
L 617.384322 449.299244 
L 620.308012 440.888217 
L 623.231702 481.512181 
L 626.155392 493.018231 
L 629.079082 385.352383 
L 632.002772 338.201725 
L 634.926462 364.185701 
L 637.850152 369.268336 
L 640.773842 336.069891 
L 643.697532 270.861917 
L 646.621223 315.44664 
L 649.544913 332.335418 
L 652.468603 457.473281 
L 655.392293 430.653652 
L 658.315983 300.424322 
L 661.239673 337.122665 
L 664.163363 77.096535 
L 667.087053 71.453023 
L 670.010743 236.637477 
L 672.934433 347.703286 
L 675.858124 442.268874 
L 678.781814 435.606249 
L 681.705504 446.881711 
L 684.629194 426.66881 
L 687.552884 353.987043 
L 690.476574 466.392776 
L 693.400264 422.662245 
L 696.323954 427.773196 
L 699.247644 409.685674 
L 702.171335 365.475463 
L 705.095025 357.797476 
L 708.018715 353.567984 
L 710.942405 353.672941 
L 713.866095 349.561349 
L 716.789785 352.243924 
L 719.713475 351.097317 
L 722.637165 351.276205 
L 725.560855 353.912501 
L 728.484545 350.152964 
L 728.484545 350.152964 
" style="fill:none;stroke:#dd8452;stroke-dasharray:6,2.25;stroke-dashoffset:0;stroke-width:1.5;"/>
   </g>
   <g id="line2d_3">
    <path clip-path="url(#p16e4847776)" d="M 134.975455 327.614633 
L 137.899145 327.061163 
L 140.822835 330.82063 
L 143.746525 327.909164 
L 146.670215 334.688412 
L 149.593905 337.361945 
L 152.517595 336.664165 
L 155.441285 358.843603 
L 158.364975 359.519398 
L 161.288665 356.931985 
L 164.212356 363.359161 
L 167.136046 357.391849 
L 170.059736 361.536357 
L 172.983426 373.778822 
L 175.907116 389.04955 
L 178.830806 409.10896 
L 181.754496 430.021565 
L 184.678186 344.682647 
L 187.601876 331.779797 
L 190.525567 348.587543 
L 193.449257 362.284543 
L 196.372947 396.495446 
L 199.296637 412.260301 
L 202.220327 412.07956 
L 205.144017 353.459791 
L 208.067707 322.405843 
L 210.991397 429.687787 
L 213.915087 468.918991 
L 216.838777 370.390772 
L 219.762468 409.771375 
L 222.686158 404.04044 
L 225.609848 347.137381 
L 228.533538 380.440573 
L 231.457228 448.752472 
L 234.380918 323.3085 
L 237.304608 384.909887 
L 240.228298 427.462434 
L 243.151988 427.38247 
L 246.075678 318.490243 
L 248.999369 344.55233 
L 251.923059 360.366751 
L 254.846749 440.16081 
L 257.770439 479.953441 
L 260.694129 429.121357 
L 263.617819 529.050032 
L 266.541509 449.821354 
L 269.465199 490.701231 
L 272.388889 507.170967 
L 275.312579 429.73347 
L 278.23627 420.623195 
L 281.15996 380.764696 
L 284.08365 364.44952 
L 287.00734 121.090617 
L 289.93103 256.689471 
L 292.85472 300.458095 
L 295.77841 383.426598 
L 298.7021 478.863572 
L 304.549481 373.554845 
L 307.473171 377.322532 
L 310.396861 408.696337 
L 313.320551 374.942324 
L 316.244241 443.527347 
L 319.167931 404.757913 
L 322.091621 506.664807 
L 325.015311 378.278779 
L 327.939001 353.700523 
L 330.862691 461.294418 
L 333.786382 404.471742 
L 336.710072 469.269524 
L 339.633762 556.702428 
L 342.557452 463.292366 
L 345.481142 465.195098 
L 348.404832 426.532108 
L 351.328522 465.647948 
L 354.252212 379.828249 
L 357.175902 331.556992 
L 360.099592 211.113548 
L 363.023283 214.705399 
L 365.946973 249.603413 
L 368.870663 236.140185 
L 371.794353 221.654825 
L 374.718043 310.399318 
L 377.641733 323.526495 
L 380.565423 303.852896 
L 383.489113 307.892692 
L 386.412803 362.140443 
L 389.336494 351.573551 
L 392.260184 368.730065 
L 395.183874 388.586171 
L 398.107564 459.223606 
L 401.031254 391.034486 
L 403.954944 314.148448 
L 406.878634 230.058891 
L 409.802324 188.765262 
L 412.726014 93.247004 
L 415.649704 71.453379 
L 418.573395 71.46411 
L 421.497085 217.877116 
L 424.420775 344.210016 
L 427.344465 299.593094 
L 430.268155 326.161584 
L 433.191845 280.924136 
L 436.115535 213.684677 
L 439.039225 358.427185 
L 441.962915 382.955139 
L 444.886605 396.443571 
L 447.810296 400.419738 
L 450.733986 405.534257 
L 453.657676 460.809316 
L 456.581366 459.179637 
L 459.505056 504.639995 
L 462.428746 445.999273 
L 465.352436 505.456951 
L 468.276126 476.170818 
L 471.199816 328.536004 
L 474.123506 270.38717 
L 477.047197 337.406387 
L 479.970887 309.062298 
L 482.894577 357.703153 
L 485.818267 362.635076 
L 488.741957 410.587282 
L 491.665647 346.257653 
L 494.589337 332.057048 
L 497.513027 399.549928 
L 500.436717 309.805289 
L 503.360408 314.644498 
L 506.284098 279.478801 
L 509.207788 372.271817 
L 512.131478 376.904697 
L 515.055168 280.368235 
L 517.978858 309.039316 
L 520.902548 271.40185 
L 523.826238 296.971104 
L 526.749928 305.498106 
L 529.673618 304.476448 
L 532.597309 285.417814 
L 535.520999 327.895224 
L 538.444689 280.133852 
L 541.368379 357.146832 
L 544.292069 477.815224 
L 547.215759 367.455502 
L 550.139449 362.491571 
L 553.063139 332.343026 
L 555.986829 247.87154 
L 558.910519 284.454572 
L 561.83421 187.160348 
L 564.7579 253.733475 
L 567.68159 341.44627 
L 570.60528 317.103447 
L 573.52897 327.533147 
L 576.45266 373.054493 
L 579.37635 313.972447 
L 582.30004 280.311235 
L 585.22373 378.402433 
L 588.147421 336.118181 
L 591.071111 202.929112 
L 593.994801 258.243104 
L 596.918491 240.783874 
L 599.842181 211.772937 
L 602.765871 262.013729 
L 605.689561 386.42868 
L 608.613251 405.915084 
L 611.536941 491.280814 
L 614.460631 524.65463 
L 617.384322 430.84947 
L 620.308012 442.421772 
L 623.231702 489.101215 
L 626.155392 496.884142 
L 629.079082 416.205336 
L 632.002772 362.469954 
L 634.926462 378.066276 
L 637.850152 349.488171 
L 640.773842 334.666095 
L 643.697532 327.49668 
L 646.621223 332.142783 
L 649.544913 321.132661 
L 652.468603 357.558703 
L 655.392293 372.003136 
L 658.315983 255.823648 
L 661.239673 193.812068 
L 664.163363 124.003898 
L 667.087053 140.964411 
L 670.010743 147.807668 
L 672.934433 258.669754 
L 675.858124 461.671816 
L 678.781814 411.321545 
L 681.705504 336.966532 
L 684.629194 367.529274 
L 687.552884 400.79112 
L 690.476574 406.753972 
L 693.400264 396.60231 
L 696.323954 419.935315 
L 699.247644 405.147764 
L 702.171335 368.744337 
L 705.095025 356.659369 
L 708.018715 353.394344 
L 710.942405 351.05807 
L 713.866095 346.596888 
L 716.789785 350.728821 
L 719.713475 349.871446 
L 722.637165 352.293263 
L 725.560855 354.416912 
L 728.484545 350.798781 
L 728.484545 350.798781 
" style="fill:none;stroke:#55a868;stroke-dasharray:1.5,1.5;stroke-dashoffset:0;stroke-width:1.5;"/>
   </g>
   <g id="line2d_4">
    <path clip-path="url(#p16e4847776)" d="M 134.975455 334.650161 
L 137.899145 334.86207 
L 140.822835 336.714029 
L 143.746525 334.855511 
L 146.670215 339.616016 
L 149.593905 339.006403 
L 152.517595 338.577532 
L 155.441285 341.916348 
L 158.364975 341.880458 
L 164.212356 347.399835 
L 167.136046 348.747996 
L 170.059736 368.784949 
L 172.983426 376.76915 
L 175.907116 385.199276 
L 178.830806 412.570538 
L 181.754496 419.180204 
L 184.678186 369.299468 
L 187.601876 312.707345 
L 190.525567 423.36709 
L 193.449257 384.104159 
L 196.372947 384.470679 
L 199.296637 461.666919 
L 202.220327 395.939405 
L 205.144017 403.615679 
L 208.067707 539.944598 
L 210.991397 427.514554 
L 213.915087 466.909709 
L 216.838777 472.538993 
L 219.762468 491.204767 
L 222.686158 468.734297 
L 225.609848 434.830954 
L 228.533538 417.486511 
L 231.457228 464.922955 
L 234.380918 333.957542 
L 237.304608 388.626713 
L 240.228298 417.315634 
L 243.151988 419.678528 
L 246.075678 336.77813 
L 248.999369 352.44198 
L 251.923059 382.549512 
L 254.846749 407.124969 
L 257.770439 454.509817 
L 260.694129 438.71446 
L 263.617819 546.529847 
L 266.541509 444.987409 
L 269.465199 465.518698 
L 272.388889 482.297236 
L 275.312579 463.566503 
L 278.23627 452.332807 
L 281.15996 448.669325 
L 284.08365 387.595225 
L 287.00734 388.650779 
L 289.93103 453.112265 
L 292.85472 390.945742 
L 295.77841 370.033277 
L 298.7021 463.452854 
L 301.62579 393.057095 
L 304.549481 389.22501 
L 307.473171 391.167375 
L 310.396861 399.709786 
L 313.320551 367.98188 
L 316.244241 433.883383 
L 319.167931 381.122751 
L 322.091621 479.562785 
L 325.015311 340.784817 
L 327.939001 343.941283 
L 330.862691 434.698135 
L 333.786382 407.236975 
L 336.710072 467.261642 
L 339.633762 551.884224 
L 342.557452 425.729319 
L 345.481142 395.289548 
L 348.404832 348.039093 
L 351.328522 365.584321 
L 354.252212 353.645762 
L 357.175902 418.949161 
L 360.099592 335.769571 
L 363.023283 375.181587 
L 365.946973 214.250416 
L 368.870663 203.108892 
L 371.794353 317.674354 
L 374.718043 333.164494 
L 377.641733 312.769487 
L 380.565423 369.449392 
L 383.489113 337.209013 
L 386.412803 358.487997 
L 389.336494 357.104261 
L 392.260184 374.991086 
L 395.183874 435.081515 
L 398.107564 413.582962 
L 401.031254 412.843906 
L 403.954944 309.588081 
L 406.878634 211.080028 
L 409.802324 126.265175 
L 412.726014 82.535626 
L 415.649704 71.468707 
L 418.573395 71.732688 
L 421.497085 227.646326 
L 424.420775 337.015084 
L 427.344465 250.143731 
L 430.268155 315.43076 
L 433.191845 362.736291 
L 436.115535 286.058174 
L 439.039225 386.745948 
L 441.962915 469.776698 
L 444.886605 430.47431 
L 447.810296 378.609759 
L 450.733986 423.973362 
L 453.657676 542.81456 
L 456.581366 487.261691 
L 459.505056 467.003665 
L 462.428746 425.657086 
L 465.352436 491.742094 
L 468.276126 475.067586 
L 471.199816 349.260959 
L 474.123506 334.880015 
L 477.047197 395.43405 
L 479.970887 319.390207 
L 482.894577 422.34008 
L 485.818267 407.723545 
L 488.741957 436.934647 
L 491.665647 396.045989 
L 494.589337 405.043384 
L 497.513027 465.259881 
L 500.436717 378.557708 
L 503.360408 303.72312 
L 506.284098 362.005595 
L 509.207788 462.706767 
L 512.131478 508.04543 
L 515.055168 536.401482 
L 517.978858 418.353418 
L 520.902548 439.204878 
L 523.826238 429.667918 
L 526.749928 347.994004 
L 529.673618 370.845965 
L 532.597309 371.6915 
L 535.520999 338.978017 
L 538.444689 316.695476 
L 541.368379 367.89408 
L 544.292069 505.968847 
L 547.215759 385.116233 
L 550.139449 391.491009 
L 553.063139 276.564309 
L 555.986829 377.987046 
L 558.910519 364.468479 
L 561.83421 240.970894 
L 564.7579 149.245649 
L 567.68159 241.606497 
L 570.60528 313.174222 
L 573.52897 294.701677 
L 576.45266 315.935922 
L 579.37635 335.618493 
L 582.30004 261.04078 
L 585.22373 378.62382 
L 588.147421 318.515166 
L 591.071111 336.649316 
L 593.994801 427.695645 
L 596.918491 328.674349 
L 599.842181 315.65241 
L 602.765871 407.904916 
L 605.689561 391.037424 
L 608.613251 422.265538 
L 611.536941 507.606292 
L 614.460631 524.979454 
L 617.384322 445.349766 
L 620.308012 437.100661 
L 623.231702 484.929824 
L 626.155392 494.531183 
L 629.079082 388.355304 
L 632.002772 338.218288 
L 634.926462 367.595281 
L 637.850152 369.594699 
L 640.773842 339.578937 
L 643.697532 270.66484 
L 646.621223 317.546363 
L 649.544913 332.930496 
L 652.468603 458.839877 
L 655.392293 430.950387 
L 658.315983 300.64048 
L 661.239673 337.028534 
L 664.163363 76.586388 
L 667.087053 71.453019 
L 670.010743 232.864822 
L 672.934433 346.929932 
L 675.858124 441.366672 
L 678.781814 436.441745 
L 681.705504 444.529242 
L 684.629194 426.667935 
L 687.552884 353.628989 
L 690.476574 466.904847 
L 693.400264 422.581511 
L 696.323954 427.555481 
L 699.247644 410.768023 
L 702.171335 366.346953 
L 705.095025 358.854517 
L 708.018715 355.336849 
L 710.942405 356.293637 
L 713.866095 352.624593 
L 716.789785 354.731521 
L 719.713475 353.268853 
L 722.637165 354.071345 
L 725.560855 356.702954 
L 728.484545 354.044708 
L 728.484545 354.044708 
" style="fill:none;stroke:#c44e52;stroke-dasharray:4.5,1.875,2.25,1.875;stroke-dashoffset:0;stroke-width:1.5;"/>
   </g>
   <g id="line2d_5">
    <path clip-path="url(#p16e4847776)" d="M 134.975455 333.361886 
L 137.899145 333.369844 
L 140.822835 335.177624 
L 143.746525 333.665949 
L 146.670215 337.850404 
L 149.593905 337.919752 
L 152.517595 337.742561 
L 155.441285 340.425381 
L 158.364975 340.001687 
L 161.288665 343.469649 
L 164.212356 346.180487 
L 167.136046 347.432559 
L 170.059736 368.518157 
L 175.907116 385.256853 
L 178.830806 413.712807 
L 181.754496 427.538585 
L 184.678186 369.046284 
L 187.601876 332.884498 
L 190.525567 428.424067 
L 193.449257 396.033641 
L 196.372947 402.713581 
L 199.296637 484.552741 
L 202.220327 397.103887 
L 205.144017 402.599232 
L 208.067707 553.364294 
L 210.991397 441.939678 
L 213.915087 461.069182 
L 216.838777 474.959288 
L 219.762468 489.615979 
L 222.686158 473.090066 
L 225.609848 454.021882 
L 228.533538 427.030047 
L 231.457228 471.41033 
L 234.380918 336.15066 
L 237.304608 395.218224 
L 240.228298 421.552822 
L 243.151988 423.268342 
L 246.075678 336.464395 
L 248.999369 353.474325 
L 251.923059 397.317614 
L 254.846749 414.40422 
L 257.770439 460.054065 
L 260.694129 436.295563 
L 263.617819 542.511459 
L 266.541509 446.808463 
L 269.465199 469.751897 
L 272.388889 490.511675 
L 275.312579 471.20283 
L 278.23627 461.368505 
L 281.15996 463.748364 
L 284.08365 401.937902 
L 287.00734 393.902175 
L 289.93103 459.614507 
L 292.85472 400.601844 
L 295.77841 376.949856 
L 298.7021 459.476441 
L 301.62579 388.509321 
L 304.549481 386.570908 
L 307.473171 390.494781 
L 310.396861 410.314053 
L 313.320551 379.967084 
L 316.244241 442.287484 
L 319.167931 396.845455 
L 322.091621 483.886618 
L 325.015311 350.329036 
L 327.939001 329.73216 
L 330.862691 302.884862 
L 333.786382 337.166477 
L 336.710072 428.338366 
L 339.633762 504.929488 
L 342.557452 397.621275 
L 345.481142 415.829302 
L 348.404832 353.752975 
L 351.328522 374.465093 
L 354.252212 459.607021 
L 357.175902 449.779203 
L 360.099592 416.794118 
L 363.023283 437.365214 
L 365.946973 314.947564 
L 368.870663 294.026547 
L 371.794353 358.510822 
L 374.718043 356.474763 
L 377.641733 399.620692 
L 380.565423 427.675602 
L 383.489113 407.88148 
L 386.412803 356.119105 
L 389.336494 355.253946 
L 392.260184 394.281812 
L 395.183874 471.920652 
L 398.107564 410.238462 
L 401.031254 429.207897 
L 406.878634 234.963478 
L 409.802324 166.380886 
L 412.726014 84.831708 
L 415.649704 71.454538 
L 418.573395 71.536732 
L 421.497085 256.208794 
L 424.420775 365.949441 
L 427.344465 286.060307 
L 430.268155 338.759235 
L 433.191845 378.498068 
L 436.115535 298.42765 
L 441.962915 473.479218 
L 444.886605 437.480228 
L 447.810296 383.418098 
L 450.733986 423.450867 
L 453.657676 526.988245 
L 456.581366 482.289435 
L 462.428746 422.823607 
L 465.352436 487.67309 
L 468.276126 477.207413 
L 471.199816 343.853396 
L 474.123506 344.596527 
L 477.047197 385.393414 
L 479.970887 328.118711 
L 482.894577 422.462265 
L 485.818267 408.149741 
L 488.741957 413.512058 
L 491.665647 407.79382 
L 494.589337 272.797688 
L 497.513027 401.451821 
L 500.436717 402.456199 
L 503.360408 341.429462 
L 506.284098 354.805101 
L 509.207788 294.447285 
L 512.131478 318.74481 
L 515.055168 323.911081 
L 517.978858 403.340876 
L 520.902548 420.323417 
L 523.826238 331.369237 
L 526.749928 396.360459 
L 529.673618 381.199392 
L 532.597309 328.488851 
L 535.520999 383.327535 
L 538.444689 278.727659 
L 541.368379 295.831213 
L 544.292069 225.245164 
L 547.215759 211.533595 
L 550.139449 225.519809 
L 553.063139 247.512471 
L 555.986829 259.449124 
L 561.83421 162.029384 
L 564.7579 178.270665 
L 567.68159 197.018512 
L 570.60528 237.761924 
L 573.52897 281.265592 
L 576.45266 303.833902 
L 579.37635 342.828624 
L 582.30004 258.407404 
L 585.22373 374.927352 
L 588.147421 317.423845 
L 591.071111 300.52279 
L 593.994801 388.389654 
L 596.918491 321.249914 
L 599.842181 315.989074 
L 602.765871 427.582065 
L 605.689561 398.163603 
L 608.613251 419.058334 
L 611.536941 506.983789 
L 614.460631 532.068729 
L 617.384322 433.917034 
L 620.308012 429.556402 
L 623.231702 471.37563 
L 626.155392 494.081586 
L 629.079082 398.331087 
L 632.002772 339.520503 
L 634.926462 367.368262 
L 637.850152 371.368775 
L 640.773842 343.313096 
L 643.697532 266.369219 
L 646.621223 317.336116 
L 649.544913 326.208615 
L 652.468603 452.364779 
L 655.392293 421.257171 
L 658.315983 298.227355 
L 661.239673 327.096125 
L 664.163363 78.728879 
L 667.087053 71.453014 
L 670.010743 231.975458 
L 672.934433 350.264813 
L 675.858124 433.222263 
L 678.781814 419.642253 
L 681.705504 447.980745 
L 684.629194 420.289557 
L 687.552884 350.111758 
L 690.476574 455.374206 
L 693.400264 415.583813 
L 696.323954 422.738711 
L 699.247644 410.16371 
L 702.171335 362.028525 
L 705.095025 356.613511 
L 708.018715 353.537726 
L 710.942405 352.9342 
L 713.866095 349.186802 
L 716.789785 351.270083 
L 719.713475 350.539825 
L 722.637165 348.251613 
L 725.560855 351.712439 
L 728.484545 348.015097 
L 728.484545 348.015097 
" style="fill:none;stroke:#8172b3;stroke-dasharray:7.5,1.5,1.5,1.5;stroke-dashoffset:0;stroke-width:1.5;"/>
   </g>
   <g id="line2d_6"/>
   <g id="line2d_7"/>
   <g id="line2d_8"/>
   <g id="line2d_9"/>
   <g id="line2d_10"/>
   <g id="patch_3">
    <path d="M 105.3 529.9416 
L 105.3 71.4528 
" style="fill:none;stroke:#262626;stroke-linecap:square;stroke-linejoin:miter;stroke-width:1.25;"/>
   </g>
   <g id="patch_4">
    <path d="M 758.16 529.9416 
L 758.16 71.4528 
" style="fill:none;stroke:#262626;stroke-linecap:square;stroke-linejoin:miter;stroke-width:1.25;"/>
   </g>
   <g id="patch_5">
    <path d="M 105.3 529.9416 
L 758.16 529.9416 
" style="fill:none;stroke:#262626;stroke-linecap:square;stroke-linejoin:miter;stroke-width:1.25;"/>
   </g>
   <g id="patch_6">
    <path d="M 105.3 71.4528 
L 758.16 71.4528 
" style="fill:none;stroke:#262626;stroke-linecap:square;stroke-linejoin:miter;stroke-width:1.25;"/>
   </g>
   <g id="text_16">
    <!-- Activations for &gt;G&lt; -->
    <g style="fill:#262626;" transform="translate(380.7075 65.4528)scale(0.12 -0.12)">
     <defs>
      <path d="M -9 0 
L 1750 4581 
L 2403 4581 
L 4278 0 
L 3588 0 
L 3053 1388 
L 1138 1388 
L 634 0 
L -9 0 
z
M 1313 1881 
L 2866 1881 
L 2388 3150 
Q 2169 3728 2063 4100 
Q 1975 3659 1816 3225 
L 1313 1881 
z
" id="ArialMT-41" transform="scale(0.015625)"/>
      <path d="M 2588 1216 
L 3141 1144 
Q 3050 572 2676 248 
Q 2303 -75 1759 -75 
Q 1078 -75 664 370 
Q 250 816 250 1647 
Q 250 2184 428 2587 
Q 606 2991 970 3192 
Q 1334 3394 1763 3394 
Q 2303 3394 2647 3120 
Q 2991 2847 3088 2344 
L 2541 2259 
Q 2463 2594 2264 2762 
Q 2066 2931 1784 2931 
Q 1359 2931 1093 2626 
Q 828 2322 828 1663 
Q 828 994 1084 691 
Q 1341 388 1753 388 
Q 2084 388 2306 591 
Q 2528 794 2588 1216 
z
" id="ArialMT-63" transform="scale(0.015625)"/>
      <path d="M 1650 503 
L 1731 6 
Q 1494 -44 1306 -44 
Q 1000 -44 831 53 
Q 663 150 594 308 
Q 525 466 525 972 
L 525 2881 
L 113 2881 
L 113 3319 
L 525 3319 
L 525 4141 
L 1084 4478 
L 1084 3319 
L 1650 3319 
L 1650 2881 
L 1084 2881 
L 1084 941 
Q 1084 700 1114 631 
Q 1144 563 1211 522 
Q 1278 481 1403 481 
Q 1497 481 1650 503 
z
" id="ArialMT-74" transform="scale(0.015625)"/>
      <path d="M 425 3934 
L 425 4581 
L 988 4581 
L 988 3934 
L 425 3934 
z
M 425 0 
L 425 3319 
L 988 3319 
L 988 0 
L 425 0 
z
" id="ArialMT-69" transform="scale(0.015625)"/>
      <path d="M 1344 0 
L 81 3319 
L 675 3319 
L 1388 1331 
Q 1503 1009 1600 663 
Q 1675 925 1809 1294 
L 2547 3319 
L 3125 3319 
L 1869 0 
L 1344 0 
z
" id="ArialMT-76" transform="scale(0.015625)"/>
      <path d="M 2588 409 
Q 2275 144 1986 34 
Q 1697 -75 1366 -75 
Q 819 -75 525 192 
Q 231 459 231 875 
Q 231 1119 342 1320 
Q 453 1522 633 1644 
Q 813 1766 1038 1828 
Q 1203 1872 1538 1913 
Q 2219 1994 2541 2106 
Q 2544 2222 2544 2253 
Q 2544 2597 2384 2738 
Q 2169 2928 1744 2928 
Q 1347 2928 1158 2789 
Q 969 2650 878 2297 
L 328 2372 
Q 403 2725 575 2942 
Q 747 3159 1072 3276 
Q 1397 3394 1825 3394 
Q 2250 3394 2515 3294 
Q 2781 3194 2906 3042 
Q 3031 2891 3081 2659 
Q 3109 2516 3109 2141 
L 3109 1391 
Q 3109 606 3145 398 
Q 3181 191 3288 0 
L 2700 0 
Q 2613 175 2588 409 
z
M 2541 1666 
Q 2234 1541 1622 1453 
Q 1275 1403 1131 1340 
Q 988 1278 909 1158 
Q 831 1038 831 891 
Q 831 666 1001 516 
Q 1172 366 1500 366 
Q 1825 366 2078 508 
Q 2331 650 2450 897 
Q 2541 1088 2541 1459 
L 2541 1666 
z
" id="ArialMT-61" transform="scale(0.015625)"/>
      <path d="M 213 1659 
Q 213 2581 725 3025 
Q 1153 3394 1769 3394 
Q 2453 3394 2887 2945 
Q 3322 2497 3322 1706 
Q 3322 1066 3130 698 
Q 2938 331 2570 128 
Q 2203 -75 1769 -75 
Q 1072 -75 642 372 
Q 213 819 213 1659 
z
M 791 1659 
Q 791 1022 1069 705 
Q 1347 388 1769 388 
Q 2188 388 2466 706 
Q 2744 1025 2744 1678 
Q 2744 2294 2464 2611 
Q 2184 2928 1769 2928 
Q 1347 2928 1069 2612 
Q 791 2297 791 1659 
z
" id="ArialMT-6f" transform="scale(0.015625)"/>
      <path d="M 422 0 
L 422 3319 
L 928 3319 
L 928 2847 
Q 1294 3394 1984 3394 
Q 2284 3394 2536 3286 
Q 2788 3178 2913 3003 
Q 3038 2828 3088 2588 
Q 3119 2431 3119 2041 
L 3119 0 
L 2556 0 
L 2556 2019 
Q 2556 2363 2490 2533 
Q 2425 2703 2258 2804 
Q 2091 2906 1866 2906 
Q 1506 2906 1245 2678 
Q 984 2450 984 1813 
L 984 0 
L 422 0 
z
" id="ArialMT-6e" transform="scale(0.015625)"/>
      <path d="M 197 991 
L 753 1078 
Q 800 744 1014 566 
Q 1228 388 1613 388 
Q 2000 388 2187 545 
Q 2375 703 2375 916 
Q 2375 1106 2209 1216 
Q 2094 1291 1634 1406 
Q 1016 1563 777 1677 
Q 538 1791 414 1992 
Q 291 2194 291 2438 
Q 291 2659 392 2848 
Q 494 3038 669 3163 
Q 800 3259 1026 3326 
Q 1253 3394 1513 3394 
Q 1903 3394 2198 3281 
Q 2494 3169 2634 2976 
Q 2775 2784 2828 2463 
L 2278 2388 
Q 2241 2644 2061 2787 
Q 1881 2931 1553 2931 
Q 1166 2931 1000 2803 
Q 834 2675 834 2503 
Q 834 2394 903 2306 
Q 972 2216 1119 2156 
Q 1203 2125 1616 2013 
Q 2213 1853 2448 1751 
Q 2684 1650 2818 1456 
Q 2953 1263 2953 975 
Q 2953 694 2789 445 
Q 2625 197 2315 61 
Q 2006 -75 1616 -75 
Q 969 -75 630 194 
Q 291 463 197 991 
z
" id="ArialMT-73" transform="scale(0.015625)"/>
      <path id="ArialMT-20" transform="scale(0.015625)"/>
      <path d="M 556 0 
L 556 2881 
L 59 2881 
L 59 3319 
L 556 3319 
L 556 3672 
Q 556 4006 616 4169 
Q 697 4388 901 4523 
Q 1106 4659 1475 4659 
Q 1713 4659 2000 4603 
L 1916 4113 
Q 1741 4144 1584 4144 
Q 1328 4144 1222 4034 
Q 1116 3925 1116 3625 
L 1116 3319 
L 1763 3319 
L 1763 2881 
L 1116 2881 
L 1116 0 
L 556 0 
z
" id="ArialMT-66" transform="scale(0.015625)"/>
      <path d="M 416 0 
L 416 3319 
L 922 3319 
L 922 2816 
Q 1116 3169 1280 3281 
Q 1444 3394 1641 3394 
Q 1925 3394 2219 3213 
L 2025 2691 
Q 1819 2813 1613 2813 
Q 1428 2813 1281 2702 
Q 1134 2591 1072 2394 
Q 978 2094 978 1738 
L 978 0 
L 416 0 
z
" id="ArialMT-72" transform="scale(0.015625)"/>
      <path d="M 3384 2003 
L 350 706 
L 350 1266 
L 2753 2263 
L 350 3250 
L 350 3809 
L 3384 2528 
L 3384 2003 
z
" id="ArialMT-3e" transform="scale(0.015625)"/>
      <path d="M 2638 1797 
L 2638 2334 
L 4578 2338 
L 4578 638 
Q 4131 281 3656 101 
Q 3181 -78 2681 -78 
Q 2006 -78 1454 211 
Q 903 500 622 1047 
Q 341 1594 341 2269 
Q 341 2938 620 3517 
Q 900 4097 1425 4378 
Q 1950 4659 2634 4659 
Q 3131 4659 3532 4498 
Q 3934 4338 4162 4050 
Q 4391 3763 4509 3300 
L 3963 3150 
Q 3859 3500 3706 3700 
Q 3553 3900 3268 4020 
Q 2984 4141 2638 4141 
Q 2222 4141 1919 4014 
Q 1616 3888 1430 3681 
Q 1244 3475 1141 3228 
Q 966 2803 966 2306 
Q 966 1694 1177 1281 
Q 1388 869 1791 669 
Q 2194 469 2647 469 
Q 3041 469 3416 620 
Q 3791 772 3984 944 
L 3984 1797 
L 2638 1797 
z
" id="ArialMT-47" transform="scale(0.015625)"/>
      <path d="M 350 2003 
L 350 2528 
L 3384 3809 
L 3384 3250 
L 978 2263 
L 3384 1266 
L 3384 706 
L 350 2003 
z
" id="ArialMT-3c" transform="scale(0.015625)"/>
     </defs>
     <use xlink:href="#ArialMT-41"/>
     <use x="66.699219" xlink:href="#ArialMT-63"/>
     <use x="116.699219" xlink:href="#ArialMT-74"/>
     <use x="144.482422" xlink:href="#ArialMT-69"/>
     <use x="166.699219" xlink:href="#ArialMT-76"/>
     <use x="216.699219" xlink:href="#ArialMT-61"/>
     <use x="272.314453" xlink:href="#ArialMT-74"/>
     <use x="300.097656" xlink:href="#ArialMT-69"/>
     <use x="322.314453" xlink:href="#ArialMT-6f"/>
     <use x="377.929688" xlink:href="#ArialMT-6e"/>
     <use x="433.544922" xlink:href="#ArialMT-73"/>
     <use x="483.544922" xlink:href="#ArialMT-20"/>
     <use x="511.328125" xlink:href="#ArialMT-66"/>
     <use x="539.111328" xlink:href="#ArialMT-6f"/>
     <use x="594.726562" xlink:href="#ArialMT-72"/>
     <use x="628.027344" xlink:href="#ArialMT-20"/>
     <use x="655.810547" xlink:href="#ArialMT-3e"/>
     <use x="714.208984" xlink:href="#ArialMT-47"/>
     <use x="791.992188" xlink:href="#ArialMT-3c"/>
    </g>
   </g>
   <g id="legend_1">
    <g id="patch_7">
     <path d="M 113 158.514363 
L 223.415938 158.514363 
Q 225.615938 158.514363 225.615938 156.314363 
L 225.615938 79.1528 
Q 225.615938 76.9528 223.415938 76.9528 
L 113 76.9528 
Q 110.8 76.9528 110.8 79.1528 
L 110.8 156.314363 
Q 110.8 158.514363 113 158.514363 
z
" style="fill:#ffffff;opacity:0.8;stroke:#cccccc;stroke-linejoin:miter;"/>
    </g>
    <g id="line2d_11">
     <path d="M 115.2 85.376394 
L 137.2 85.376394 
" style="fill:none;stroke:#4c72b0;stroke-linecap:round;stroke-width:1.5;"/>
    </g>
    <g id="line2d_12"/>
    <g id="text_17">
     <!-- regular -->
     <g style="fill:#262626;" transform="translate(146 89.226394)scale(0.11 -0.11)">
      <defs>
       <path d="M 2694 1069 
L 3275 997 
Q 3138 488 2766 206 
Q 2394 -75 1816 -75 
Q 1088 -75 661 373 
Q 234 822 234 1631 
Q 234 2469 665 2931 
Q 1097 3394 1784 3394 
Q 2450 3394 2872 2941 
Q 3294 2488 3294 1666 
Q 3294 1616 3291 1516 
L 816 1516 
Q 847 969 1125 678 
Q 1403 388 1819 388 
Q 2128 388 2347 550 
Q 2566 713 2694 1069 
z
M 847 1978 
L 2700 1978 
Q 2663 2397 2488 2606 
Q 2219 2931 1791 2931 
Q 1403 2931 1139 2672 
Q 875 2413 847 1978 
z
" id="ArialMT-65" transform="scale(0.015625)"/>
       <path d="M 319 -275 
L 866 -356 
Q 900 -609 1056 -725 
Q 1266 -881 1628 -881 
Q 2019 -881 2231 -725 
Q 2444 -569 2519 -288 
Q 2563 -116 2559 434 
Q 2191 0 1641 0 
Q 956 0 581 494 
Q 206 988 206 1678 
Q 206 2153 378 2554 
Q 550 2956 876 3175 
Q 1203 3394 1644 3394 
Q 2231 3394 2613 2919 
L 2613 3319 
L 3131 3319 
L 3131 450 
Q 3131 -325 2973 -648 
Q 2816 -972 2473 -1159 
Q 2131 -1347 1631 -1347 
Q 1038 -1347 672 -1080 
Q 306 -813 319 -275 
z
M 784 1719 
Q 784 1066 1043 766 
Q 1303 466 1694 466 
Q 2081 466 2343 764 
Q 2606 1063 2606 1700 
Q 2606 2309 2336 2618 
Q 2066 2928 1684 2928 
Q 1309 2928 1046 2623 
Q 784 2319 784 1719 
z
" id="ArialMT-67" transform="scale(0.015625)"/>
       <path d="M 2597 0 
L 2597 488 
Q 2209 -75 1544 -75 
Q 1250 -75 995 37 
Q 741 150 617 320 
Q 494 491 444 738 
Q 409 903 409 1263 
L 409 3319 
L 972 3319 
L 972 1478 
Q 972 1038 1006 884 
Q 1059 663 1231 536 
Q 1403 409 1656 409 
Q 1909 409 2131 539 
Q 2353 669 2445 892 
Q 2538 1116 2538 1541 
L 2538 3319 
L 3100 3319 
L 3100 0 
L 2597 0 
z
" id="ArialMT-75" transform="scale(0.015625)"/>
       <path d="M 409 0 
L 409 4581 
L 972 4581 
L 972 0 
L 409 0 
z
" id="ArialMT-6c" transform="scale(0.015625)"/>
      </defs>
      <use xlink:href="#ArialMT-72"/>
      <use x="33.300781" xlink:href="#ArialMT-65"/>
      <use x="88.916016" xlink:href="#ArialMT-67"/>
      <use x="144.53125" xlink:href="#ArialMT-75"/>
      <use x="200.146484" xlink:href="#ArialMT-6c"/>
      <use x="222.363281" xlink:href="#ArialMT-61"/>
      <use x="277.978516" xlink:href="#ArialMT-72"/>
     </g>
    </g>
    <g id="line2d_13">
     <path d="M 115.2 101.0978 
L 137.2 101.0978 
" style="fill:none;stroke:#dd8452;stroke-dasharray:6,2.25;stroke-dashoffset:0;stroke-width:1.5;"/>
    </g>
    <g id="line2d_14"/>
    <g id="text_18">
     <!-- splitted_3s -->
     <g style="fill:#262626;" transform="translate(146 104.9478)scale(0.11 -0.11)">
      <defs>
       <path d="M 422 -1272 
L 422 3319 
L 934 3319 
L 934 2888 
Q 1116 3141 1344 3267 
Q 1572 3394 1897 3394 
Q 2322 3394 2647 3175 
Q 2972 2956 3137 2557 
Q 3303 2159 3303 1684 
Q 3303 1175 3120 767 
Q 2938 359 2589 142 
Q 2241 -75 1856 -75 
Q 1575 -75 1351 44 
Q 1128 163 984 344 
L 984 -1272 
L 422 -1272 
z
M 931 1641 
Q 931 1000 1190 694 
Q 1450 388 1819 388 
Q 2194 388 2461 705 
Q 2728 1022 2728 1688 
Q 2728 2322 2467 2637 
Q 2206 2953 1844 2953 
Q 1484 2953 1207 2617 
Q 931 2281 931 1641 
z
" id="ArialMT-70" transform="scale(0.015625)"/>
       <path d="M 2575 0 
L 2575 419 
Q 2259 -75 1647 -75 
Q 1250 -75 917 144 
Q 584 363 401 755 
Q 219 1147 219 1656 
Q 219 2153 384 2558 
Q 550 2963 881 3178 
Q 1213 3394 1622 3394 
Q 1922 3394 2156 3267 
Q 2391 3141 2538 2938 
L 2538 4581 
L 3097 4581 
L 3097 0 
L 2575 0 
z
M 797 1656 
Q 797 1019 1065 703 
Q 1334 388 1700 388 
Q 2069 388 2326 689 
Q 2584 991 2584 1609 
Q 2584 2291 2321 2609 
Q 2059 2928 1675 2928 
Q 1300 2928 1048 2622 
Q 797 2316 797 1656 
z
" id="ArialMT-64" transform="scale(0.015625)"/>
       <path d="M -97 -1272 
L -97 -866 
L 3631 -866 
L 3631 -1272 
L -97 -1272 
z
" id="ArialMT-5f" transform="scale(0.015625)"/>
       <path d="M 269 1209 
L 831 1284 
Q 928 806 1161 595 
Q 1394 384 1728 384 
Q 2125 384 2398 659 
Q 2672 934 2672 1341 
Q 2672 1728 2419 1979 
Q 2166 2231 1775 2231 
Q 1616 2231 1378 2169 
L 1441 2663 
Q 1497 2656 1531 2656 
Q 1891 2656 2178 2843 
Q 2466 3031 2466 3422 
Q 2466 3731 2256 3934 
Q 2047 4138 1716 4138 
Q 1388 4138 1169 3931 
Q 950 3725 888 3313 
L 325 3413 
Q 428 3978 793 4289 
Q 1159 4600 1703 4600 
Q 2078 4600 2393 4439 
Q 2709 4278 2876 4000 
Q 3044 3722 3044 3409 
Q 3044 3113 2884 2869 
Q 2725 2625 2413 2481 
Q 2819 2388 3044 2092 
Q 3269 1797 3269 1353 
Q 3269 753 2831 336 
Q 2394 -81 1725 -81 
Q 1122 -81 723 278 
Q 325 638 269 1209 
z
" id="ArialMT-33" transform="scale(0.015625)"/>
      </defs>
      <use xlink:href="#ArialMT-73"/>
      <use x="50" xlink:href="#ArialMT-70"/>
      <use x="105.615234" xlink:href="#ArialMT-6c"/>
      <use x="127.832031" xlink:href="#ArialMT-69"/>
      <use x="150.048828" xlink:href="#ArialMT-74"/>
      <use x="177.832031" xlink:href="#ArialMT-74"/>
      <use x="205.615234" xlink:href="#ArialMT-65"/>
      <use x="261.230469" xlink:href="#ArialMT-64"/>
      <use x="316.845703" xlink:href="#ArialMT-5f"/>
      <use x="372.460938" xlink:href="#ArialMT-33"/>
      <use x="428.076172" xlink:href="#ArialMT-73"/>
     </g>
    </g>
    <g id="line2d_15">
     <path d="M 115.2 116.6903 
L 137.2 116.6903 
" style="fill:none;stroke:#55a868;stroke-dasharray:1.5,1.5;stroke-dashoffset:0;stroke-width:1.5;"/>
    </g>
    <g id="line2d_16"/>
    <g id="text_19">
     <!-- splitted_1s -->
     <g style="fill:#262626;" transform="translate(146 120.5403)scale(0.11 -0.11)">
      <use xlink:href="#ArialMT-73"/>
      <use x="50" xlink:href="#ArialMT-70"/>
      <use x="105.615234" xlink:href="#ArialMT-6c"/>
      <use x="127.832031" xlink:href="#ArialMT-69"/>
      <use x="150.048828" xlink:href="#ArialMT-74"/>
      <use x="177.832031" xlink:href="#ArialMT-74"/>
      <use x="205.615234" xlink:href="#ArialMT-65"/>
      <use x="261.230469" xlink:href="#ArialMT-64"/>
      <use x="316.845703" xlink:href="#ArialMT-5f"/>
      <use x="372.460938" xlink:href="#ArialMT-31"/>
      <use x="428.076172" xlink:href="#ArialMT-73"/>
     </g>
    </g>
    <g id="line2d_17">
     <path d="M 115.2 132.384206 
L 137.2 132.384206 
" style="fill:none;stroke:#c44e52;stroke-dasharray:4.5,1.875,2.25,1.875;stroke-dashoffset:0;stroke-width:1.5;"/>
    </g>
    <g id="line2d_18"/>
    <g id="text_20">
     <!-- overlap_1f_3s -->
     <g style="fill:#262626;" transform="translate(146 136.234206)scale(0.11 -0.11)">
      <use xlink:href="#ArialMT-6f"/>
      <use x="55.615234" xlink:href="#ArialMT-76"/>
      <use x="105.615234" xlink:href="#ArialMT-65"/>
      <use x="161.230469" xlink:href="#ArialMT-72"/>
      <use x="194.53125" xlink:href="#ArialMT-6c"/>
      <use x="216.748047" xlink:href="#ArialMT-61"/>
      <use x="272.363281" xlink:href="#ArialMT-70"/>
      <use x="327.978516" xlink:href="#ArialMT-5f"/>
      <use x="383.59375" xlink:href="#ArialMT-31"/>
      <use x="439.208984" xlink:href="#ArialMT-66"/>
      <use x="466.992188" xlink:href="#ArialMT-5f"/>
      <use x="522.607422" xlink:href="#ArialMT-33"/>
      <use x="578.222656" xlink:href="#ArialMT-73"/>
     </g>
    </g>
    <g id="line2d_19">
     <path d="M 115.2 148.078113 
L 137.2 148.078113 
" style="fill:none;stroke:#8172b3;stroke-dasharray:7.5,1.5,1.5,1.5;stroke-dashoffset:0;stroke-width:1.5;"/>
    </g>
    <g id="line2d_20"/>
    <g id="text_21">
     <!-- overlap_10f_3s -->
     <g style="fill:#262626;" transform="translate(146 151.928112)scale(0.11 -0.11)">
      <use xlink:href="#ArialMT-6f"/>
      <use x="55.615234" xlink:href="#ArialMT-76"/>
      <use x="105.615234" xlink:href="#ArialMT-65"/>
      <use x="161.230469" xlink:href="#ArialMT-72"/>
      <use x="194.53125" xlink:href="#ArialMT-6c"/>
      <use x="216.748047" xlink:href="#ArialMT-61"/>
      <use x="272.363281" xlink:href="#ArialMT-70"/>
      <use x="327.978516" xlink:href="#ArialMT-5f"/>
      <use x="383.59375" xlink:href="#ArialMT-31"/>
      <use x="439.208984" xlink:href="#ArialMT-30"/>
      <use x="494.824219" xlink:href="#ArialMT-66"/>
      <use x="522.607422" xlink:href="#ArialMT-5f"/>
      <use x="578.222656" xlink:href="#ArialMT-33"/>
      <use x="633.837891" xlink:href="#ArialMT-73"/>
     </g>
    </g>
   </g>
  </g>
 </g>
 <defs>
  <clipPath id="p16e4847776">
   <rect height="458.4888" width="652.86" x="105.3" y="71.4528"/>
  </clipPath>
 </defs>
</svg>
