<?xml version="1.0" encoding="utf-8" standalone="no"?>
<!DOCTYPE svg PUBLIC "-//W3C//DTD SVG 1.1//EN"
  "http://www.w3.org/Graphics/SVG/1.1/DTD/svg11.dtd">
<svg height="595.44pt" version="1.1" viewBox="0 0 842.4 595.44" width="842.4pt" xmlns="http://www.w3.org/2000/svg" xmlns:xlink="http://www.w3.org/1999/xlink">
 <metadata>
  <rdf:RDF xmlns:cc="http://creativecommons.org/ns#" xmlns:dc="http://purl.org/dc/elements/1.1/" xmlns:rdf="http://www.w3.org/1999/02/22-rdf-syntax-ns#">
   <cc:Work>
    <dc:type rdf:resource="http://purl.org/dc/dcmitype/StillImage"/>
    <dc:date>2021-06-04T22:03:13.926816</dc:date>
    <dc:format>image/svg+xml</dc:format>
    <dc:creator>
     <cc:Agent>
      <dc:title>Matplotlib v3.4.1, https://matplotlib.org/</dc:title>
     </cc:Agent>
    </dc:creator>
   </cc:Work>
  </rdf:RDF>
 </metadata>
 <defs>
  <style type="text/css">*{stroke-linecap:butt;stroke-linejoin:round;}</style>
 </defs>
 <g id="figure_1">
  <g id="patch_1">
   <path d="M 0 595.44 
L 842.4 595.44 
L 842.4 0 
L 0 0 
z
" style="fill:#ffffff;"/>
  </g>
  <g id="axes_1">
   <g id="patch_2">
    <path d="M 105.3 529.9416 
L 758.16 529.9416 
L 758.16 71.4528 
L 105.3 71.4528 
z
" style="fill:#ffffff;"/>
   </g>
   <g id="matplotlib.axis_1">
    <g id="xtick_1">
     <g id="text_1">
      <!-- 0 -->
      <g style="fill:#262626;" transform="translate(131.916939 547.315194)scale(0.11 -0.11)">
       <defs>
        <path d="M 266 2259 
Q 266 3072 433 3567 
Q 600 4063 929 4331 
Q 1259 4600 1759 4600 
Q 2128 4600 2406 4451 
Q 2684 4303 2865 4023 
Q 3047 3744 3150 3342 
Q 3253 2941 3253 2259 
Q 3253 1453 3087 958 
Q 2922 463 2592 192 
Q 2263 -78 1759 -78 
Q 1097 -78 719 397 
Q 266 969 266 2259 
z
M 844 2259 
Q 844 1131 1108 757 
Q 1372 384 1759 384 
Q 2147 384 2411 759 
Q 2675 1134 2675 2259 
Q 2675 3391 2411 3762 
Q 2147 4134 1753 4134 
Q 1366 4134 1134 3806 
Q 844 3388 844 2259 
z
" id="ArialMT-30" transform="scale(0.015625)"/>
       </defs>
       <use xlink:href="#ArialMT-30"/>
      </g>
     </g>
    </g>
    <g id="xtick_2">
     <g id="text_2">
      <!-- 25 -->
      <g style="fill:#262626;" transform="translate(201.950676 547.315194)scale(0.11 -0.11)">
       <defs>
        <path d="M 3222 541 
L 3222 0 
L 194 0 
Q 188 203 259 391 
Q 375 700 629 1000 
Q 884 1300 1366 1694 
Q 2113 2306 2375 2664 
Q 2638 3022 2638 3341 
Q 2638 3675 2398 3904 
Q 2159 4134 1775 4134 
Q 1369 4134 1125 3890 
Q 881 3647 878 3216 
L 300 3275 
Q 359 3922 746 4261 
Q 1134 4600 1788 4600 
Q 2447 4600 2831 4234 
Q 3216 3869 3216 3328 
Q 3216 3053 3103 2787 
Q 2991 2522 2730 2228 
Q 2469 1934 1863 1422 
Q 1356 997 1212 845 
Q 1069 694 975 541 
L 3222 541 
z
" id="ArialMT-32" transform="scale(0.015625)"/>
        <path d="M 266 1200 
L 856 1250 
Q 922 819 1161 601 
Q 1400 384 1738 384 
Q 2144 384 2425 690 
Q 2706 997 2706 1503 
Q 2706 1984 2436 2262 
Q 2166 2541 1728 2541 
Q 1456 2541 1237 2417 
Q 1019 2294 894 2097 
L 366 2166 
L 809 4519 
L 3088 4519 
L 3088 3981 
L 1259 3981 
L 1013 2750 
Q 1425 3038 1878 3038 
Q 2478 3038 2890 2622 
Q 3303 2206 3303 1553 
Q 3303 931 2941 478 
Q 2500 -78 1738 -78 
Q 1113 -78 717 272 
Q 322 622 266 1200 
z
" id="ArialMT-35" transform="scale(0.015625)"/>
       </defs>
       <use xlink:href="#ArialMT-32"/>
       <use x="55.615234" xlink:href="#ArialMT-35"/>
      </g>
     </g>
    </g>
    <g id="xtick_3">
     <g id="text_3">
      <!-- 50 -->
      <g style="fill:#262626;" transform="translate(275.042928 547.315194)scale(0.11 -0.11)">
       <use xlink:href="#ArialMT-35"/>
       <use x="55.615234" xlink:href="#ArialMT-30"/>
      </g>
     </g>
    </g>
    <g id="xtick_4">
     <g id="text_4">
      <!-- 75 -->
      <g style="fill:#262626;" transform="translate(348.135181 547.315194)scale(0.11 -0.11)">
       <defs>
        <path d="M 303 3981 
L 303 4522 
L 3269 4522 
L 3269 4084 
Q 2831 3619 2401 2847 
Q 1972 2075 1738 1259 
Q 1569 684 1522 0 
L 944 0 
Q 953 541 1156 1306 
Q 1359 2072 1739 2783 
Q 2119 3494 2547 3981 
L 303 3981 
z
" id="ArialMT-37" transform="scale(0.015625)"/>
       </defs>
       <use xlink:href="#ArialMT-37"/>
       <use x="55.615234" xlink:href="#ArialMT-35"/>
      </g>
     </g>
    </g>
    <g id="xtick_5">
     <g id="text_5">
      <!-- 100 -->
      <g style="fill:#262626;" transform="translate(418.168918 547.315194)scale(0.11 -0.11)">
       <defs>
        <path d="M 2384 0 
L 1822 0 
L 1822 3584 
Q 1619 3391 1289 3197 
Q 959 3003 697 2906 
L 697 3450 
Q 1169 3672 1522 3987 
Q 1875 4303 2022 4600 
L 2384 4600 
L 2384 0 
z
" id="ArialMT-31" transform="scale(0.015625)"/>
       </defs>
       <use xlink:href="#ArialMT-31"/>
       <use x="55.615234" xlink:href="#ArialMT-30"/>
       <use x="111.230469" xlink:href="#ArialMT-30"/>
      </g>
     </g>
    </g>
    <g id="xtick_6">
     <g id="text_6">
      <!-- 125 -->
      <g style="fill:#262626;" transform="translate(491.261171 547.315194)scale(0.11 -0.11)">
       <use xlink:href="#ArialMT-31"/>
       <use x="55.615234" xlink:href="#ArialMT-32"/>
       <use x="111.230469" xlink:href="#ArialMT-35"/>
      </g>
     </g>
    </g>
    <g id="xtick_7">
     <g id="text_7">
      <!-- 150 -->
      <g style="fill:#262626;" transform="translate(564.353423 547.315194)scale(0.11 -0.11)">
       <use xlink:href="#ArialMT-31"/>
       <use x="55.615234" xlink:href="#ArialMT-35"/>
       <use x="111.230469" xlink:href="#ArialMT-30"/>
      </g>
     </g>
    </g>
    <g id="xtick_8">
     <g id="text_8">
      <!-- 175 -->
      <g style="fill:#262626;" transform="translate(637.445676 547.315194)scale(0.11 -0.11)">
       <use xlink:href="#ArialMT-31"/>
       <use x="55.615234" xlink:href="#ArialMT-37"/>
       <use x="111.230469" xlink:href="#ArialMT-35"/>
      </g>
     </g>
    </g>
    <g id="xtick_9">
     <g id="text_9">
      <!-- 200 -->
      <g style="fill:#262626;" transform="translate(710.537928 547.315194)scale(0.11 -0.11)">
       <use xlink:href="#ArialMT-32"/>
       <use x="55.615234" xlink:href="#ArialMT-30"/>
       <use x="111.230469" xlink:href="#ArialMT-30"/>
      </g>
     </g>
    </g>
   </g>
   <g id="matplotlib.axis_2">
    <g id="ytick_1">
     <g id="text_10">
      <!-- −25 -->
      <g style="fill:#262626;" transform="translate(77.14125 533.878397)scale(0.11 -0.11)">
       <defs>
        <path d="M 3381 1997 
L 356 1997 
L 356 2522 
L 3381 2522 
L 3381 1997 
z
" id="ArialMT-2212" transform="scale(0.015625)"/>
       </defs>
       <use xlink:href="#ArialMT-2212"/>
       <use x="58.398438" xlink:href="#ArialMT-32"/>
       <use x="114.013672" xlink:href="#ArialMT-35"/>
      </g>
     </g>
    </g>
    <g id="ytick_2">
     <g id="text_11">
      <!-- −20 -->
      <g style="fill:#262626;" transform="translate(77.14125 442.180637)scale(0.11 -0.11)">
       <use xlink:href="#ArialMT-2212"/>
       <use x="58.398438" xlink:href="#ArialMT-32"/>
       <use x="114.013672" xlink:href="#ArialMT-30"/>
      </g>
     </g>
    </g>
    <g id="ytick_3">
     <g id="text_12">
      <!-- −15 -->
      <g style="fill:#262626;" transform="translate(77.14125 350.482877)scale(0.11 -0.11)">
       <use xlink:href="#ArialMT-2212"/>
       <use x="58.398438" xlink:href="#ArialMT-31"/>
       <use x="114.013672" xlink:href="#ArialMT-35"/>
      </g>
     </g>
    </g>
    <g id="ytick_4">
     <g id="text_13">
      <!-- −10 -->
      <g style="fill:#262626;" transform="translate(77.14125 258.785117)scale(0.11 -0.11)">
       <use xlink:href="#ArialMT-2212"/>
       <use x="58.398438" xlink:href="#ArialMT-31"/>
       <use x="114.013672" xlink:href="#ArialMT-30"/>
      </g>
     </g>
    </g>
    <g id="ytick_5">
     <g id="text_14">
      <!-- −5 -->
      <g style="fill:#262626;" transform="translate(83.258281 167.087357)scale(0.11 -0.11)">
       <use xlink:href="#ArialMT-2212"/>
       <use x="58.398438" xlink:href="#ArialMT-35"/>
      </g>
     </g>
    </g>
    <g id="ytick_6">
     <g id="text_15">
      <!-- 0 -->
      <g style="fill:#262626;" transform="translate(89.682969 75.389597)scale(0.11 -0.11)">
       <use xlink:href="#ArialMT-30"/>
      </g>
     </g>
    </g>
   </g>
   <g id="line2d_1">
    <path clip-path="url(#pbeb3e3924a)" d="M 134.975455 353.338708 
L 137.899145 352.639617 
L 140.822835 356.174548 
L 143.746525 356.533844 
L 146.670215 354.346235 
L 149.593905 357.961987 
L 152.517595 358.773871 
L 155.441285 361.437976 
L 158.364975 360.434892 
L 161.288665 364.013688 
L 164.212356 368.872084 
L 167.136046 371.328269 
L 170.059736 397.790438 
L 172.983426 416.192254 
L 175.907116 428.242871 
L 181.754496 504.909725 
L 184.678186 446.8836 
L 187.601876 370.973747 
L 190.525567 410.069929 
L 193.449257 385.680984 
L 196.372947 390.808551 
L 199.296637 403.768436 
L 202.220327 303.10945 
L 205.144017 337.03901 
L 208.067707 446.131777 
L 210.991397 501.538745 
L 213.915087 462.833954 
L 216.838777 464.097778 
L 219.762468 464.456532 
L 222.686158 449.249292 
L 225.609848 431.5115 
L 228.533538 450.897686 
L 231.457228 462.1176 
L 234.380918 345.116031 
L 237.304608 418.26338 
L 240.228298 442.420023 
L 243.151988 390.530355 
L 246.075678 375.205548 
L 248.999369 391.752484 
L 251.923059 419.453922 
L 254.846749 386.553628 
L 257.770439 428.887936 
L 260.694129 416.308142 
L 263.617819 519.25527 
L 266.541509 433.929312 
L 269.465199 424.62983 
L 272.388889 434.342635 
L 275.312579 431.819673 
L 278.23627 389.954901 
L 281.15996 338.530134 
L 284.08365 259.540999 
L 287.00734 237.46358 
L 289.93103 264.698578 
L 292.85472 230.745354 
L 295.77841 297.567057 
L 298.7021 336.135146 
L 301.62579 315.503116 
L 304.549481 344.70472 
L 307.473171 307.803458 
L 310.396861 297.663864 
L 313.320551 267.1676 
L 316.244241 414.534765 
L 319.167931 442.052139 
L 322.091621 505.378211 
L 325.015311 455.290744 
L 327.939001 473.559357 
L 330.862691 408.065544 
L 333.786382 412.159734 
L 336.710072 424.863216 
L 339.633762 438.257797 
L 342.557452 381.621914 
L 345.481142 383.854823 
L 348.404832 403.813805 
L 351.328522 409.895694 
L 354.252212 471.045175 
L 357.175902 485.815481 
L 360.099592 424.034927 
L 363.023283 472.08233 
L 365.946973 396.536373 
L 368.870663 404.395871 
L 371.794353 385.91465 
L 374.718043 181.052959 
L 377.641733 71.532153 
L 380.565423 205.95686 
L 383.489113 268.221528 
L 386.412803 308.944013 
L 392.260184 411.674387 
L 395.183874 443.019858 
L 398.107564 389.398405 
L 401.031254 387.880661 
L 403.954944 410.643529 
L 406.878634 440.616318 
L 409.802324 442.568372 
L 412.726014 417.414312 
L 415.649704 451.65689 
L 418.573395 404.128974 
L 421.497085 451.725346 
L 424.420775 516.383523 
L 427.344465 389.986977 
L 430.268155 428.333399 
L 433.191845 479.495589 
L 436.115535 393.986721 
L 439.039225 378.089642 
L 441.962915 461.279516 
L 444.886605 444.424267 
L 447.810296 365.287901 
L 450.733986 342.802931 
L 453.657676 397.42133 
L 456.581366 408.410481 
L 459.505056 471.119263 
L 462.428746 481.03474 
L 465.352436 484.726836 
L 468.276126 421.952852 
L 471.199816 363.96671 
L 474.123506 406.373321 
L 477.047197 396.54001 
L 479.970887 337.442748 
L 482.894577 393.460483 
L 485.818267 418.156411 
L 488.741957 470.06119 
L 491.665647 464.445759 
L 494.589337 453.978647 
L 497.513027 463.528865 
L 500.436717 399.85929 
L 503.360408 321.321378 
L 506.284098 350.42705 
L 509.207788 416.593893 
L 512.131478 415.230061 
L 515.055168 374.991121 
L 517.978858 321.166522 
L 520.902548 394.191774 
L 523.826238 420.529729 
L 526.749928 399.703559 
L 529.673618 447.941603 
L 532.597309 435.375347 
L 535.520999 360.988187 
L 538.444689 336.755445 
L 541.368379 518.470775 
L 544.292069 486.852286 
L 547.215759 389.737326 
L 550.139449 432.125013 
L 553.063139 357.507335 
L 555.986829 474.962401 
L 558.910519 466.217177 
L 561.83421 444.791381 
L 564.7579 427.044599 
L 567.68159 350.858055 
L 573.52897 408.986985 
L 576.45266 433.994899 
L 579.37635 428.974301 
L 585.22373 361.24361 
L 588.147421 399.574868 
L 591.071111 429.022469 
L 593.994801 431.239496 
L 596.918491 318.702012 
L 599.842181 336.241835 
L 602.765871 422.796533 
L 605.689561 356.735905 
L 608.613251 424.79609 
L 611.536941 514.067713 
L 614.460631 498.189593 
L 617.384322 422.191345 
L 620.308012 435.755438 
L 623.231702 458.458141 
L 626.155392 509.372848 
L 629.079082 441.518205 
L 632.002772 367.681542 
L 634.926462 309.581365 
L 637.850152 264.462009 
L 640.773842 258.417671 
L 643.697532 259.896097 
L 646.621223 351.613131 
L 649.544913 437.052179 
L 652.468603 544.353502 
L 655.392293 462.869249 
L 658.315983 356.46607 
L 661.239673 433.376734 
L 664.163363 401.505025 
L 667.087053 476.394899 
L 670.010743 473.774868 
L 672.934433 499.224159 
L 675.858124 530.336313 
L 678.781814 474.45988 
L 681.705504 472.738028 
L 684.629194 514.974917 
L 687.552884 439.243496 
L 690.476574 487.026136 
L 693.400264 412.08862 
L 696.323954 426.480023 
L 699.247644 405.467551 
L 702.171335 372.349927 
L 705.095025 363.847218 
L 708.018715 358.110074 
L 710.942405 357.8001 
L 713.866095 356.751839 
L 716.789785 358.38241 
L 719.713475 358.485286 
L 722.637165 355.671869 
L 725.560855 359.253585 
L 728.484545 359.011559 
L 728.484545 359.011559 
" style="fill:none;stroke:#4c72b0;stroke-linecap:round;stroke-width:1.5;"/>
   </g>
   <g id="line2d_2">
    <path clip-path="url(#pbeb3e3924a)" d="M 134.975455 349.073484 
L 137.899145 350.489454 
L 140.822835 350.346806 
L 143.746525 351.282344 
L 146.670215 349.905027 
L 149.593905 354.420182 
L 152.517595 350.698949 
L 155.441285 352.222219 
L 158.364975 348.888353 
L 161.288665 350.906047 
L 164.212356 353.986256 
L 167.136046 353.944525 
L 170.059736 380.383555 
L 172.983426 389.966794 
L 175.907116 404.410877 
L 178.830806 445.258328 
L 181.754496 474.988286 
L 184.678186 438.652685 
L 187.601876 333.751247 
L 190.525567 398.658674 
L 193.449257 360.799645 
L 196.372947 364.426153 
L 199.296637 364.810932 
L 202.220327 287.248086 
L 205.144017 354.649266 
L 208.067707 451.0382 
L 210.991397 505.073361 
L 213.915087 445.083289 
L 216.838777 452.238991 
L 219.762468 457.375722 
L 222.686158 448.649212 
L 225.609848 407.238584 
L 228.533538 422.168433 
L 231.457228 457.368271 
L 234.380918 323.809832 
L 237.304608 393.070317 
L 240.228298 421.516687 
L 243.151988 361.799336 
L 246.075678 349.990972 
L 248.999369 407.212559 
L 251.923059 407.094047 
L 254.846749 375.125164 
L 257.770439 420.330099 
L 260.694129 424.47305 
L 263.617819 525.483689 
L 266.541509 449.306939 
L 269.465199 434.100853 
L 272.388889 457.082311 
L 275.312579 452.832355 
L 278.23627 433.41927 
L 281.15996 393.981124 
L 284.08365 296.18159 
L 287.00734 257.000022 
L 289.93103 299.666919 
L 292.85472 256.863583 
L 295.77841 283.25567 
L 298.7021 346.838879 
L 301.62579 338.441268 
L 304.549481 364.947861 
L 307.473171 317.402648 
L 310.396861 283.616348 
L 313.320551 273.168686 
L 316.244241 423.248298 
L 319.167931 441.052028 
L 322.091621 522.515398 
L 325.015311 461.040778 
L 327.939001 473.985867 
L 330.862691 379.647648 
L 333.786382 370.983961 
L 336.710072 441.293494 
L 339.633762 428.283098 
L 342.557452 352.896562 
L 345.481142 314.664559 
L 351.328522 436.867835 
L 354.252212 442.578027 
L 357.175902 415.629952 
L 360.099592 336.541228 
L 363.023283 298.416579 
L 365.946973 280.003849 
L 371.794353 312.959831 
L 374.718043 186.467291 
L 377.641733 73.84738 
L 380.565423 220.204732 
L 383.489113 260.43059 
L 386.412803 295.462682 
L 389.336494 338.139898 
L 392.260184 395.679994 
L 395.183874 411.752183 
L 398.107564 343.583631 
L 401.031254 332.77557 
L 403.954944 399.331233 
L 406.878634 405.896229 
L 409.802324 449.966975 
L 412.726014 431.491211 
L 415.649704 430.165997 
L 418.573395 366.729528 
L 421.497085 420.828912 
L 424.420775 462.77148 
L 427.344465 363.659463 
L 430.268155 431.056936 
L 433.191845 469.46821 
L 436.115535 372.247471 
L 439.039225 402.670871 
L 441.962915 452.517046 
L 444.886605 383.482566 
L 447.810296 322.869362 
L 453.657676 355.797114 
L 456.581366 391.683119 
L 459.505056 440.432289 
L 462.428746 443.096814 
L 465.352436 461.511538 
L 468.276126 380.369598 
L 471.199816 340.332964 
L 474.123506 349.229215 
L 477.047197 399.936106 
L 479.970887 321.06536 
L 485.818267 428.925469 
L 488.741957 476.845405 
L 491.665647 476.799232 
L 494.589337 444.404224 
L 497.513027 468.160556 
L 500.436717 410.674696 
L 503.360408 336.429293 
L 506.284098 373.590875 
L 509.207788 426.067785 
L 512.131478 429.020055 
L 515.055168 383.897323 
L 517.978858 334.310961 
L 520.902548 404.764909 
L 523.826238 405.731194 
L 526.749928 386.246155 
L 529.673618 441.938489 
L 532.597309 418.640638 
L 535.520999 356.594779 
L 538.444689 334.680472 
L 541.368379 460.091318 
L 544.292069 457.716042 
L 547.215759 319.544748 
L 550.139449 374.550619 
L 553.063139 316.517446 
L 555.986829 327.178048 
L 558.910519 298.59879 
L 561.83421 260.314352 
L 564.7579 270.949699 
L 567.68159 292.316326 
L 570.60528 484.352516 
L 573.52897 310.754819 
L 576.45266 359.114942 
L 579.37635 379.524064 
L 582.30004 350.658617 
L 585.22373 350.991363 
L 588.147421 331.348162 
L 591.071111 370.794195 
L 593.994801 398.627227 
L 596.918491 274.116886 
L 599.842181 319.59713 
L 602.765871 403.006678 
L 605.689561 352.207195 
L 608.613251 422.635065 
L 611.536941 487.117958 
L 614.460631 501.275941 
L 617.384322 463.071957 
L 620.308012 432.115918 
L 623.231702 460.408026 
L 626.155392 512.819804 
L 629.079082 418.863006 
L 632.002772 386.137822 
L 634.926462 325.299924 
L 637.850152 257.633998 
L 640.773842 269.749363 
L 643.697532 253.23711 
L 646.621223 342.838156 
L 649.544913 447.210453 
L 652.468603 532.570796 
L 655.392293 474.323598 
L 658.315983 334.139472 
L 661.239673 435.588409 
L 664.163363 397.422624 
L 667.087053 481.189527 
L 670.010743 492.055094 
L 672.934433 499.49235 
L 675.858124 536.663726 
L 678.781814 491.988842 
L 681.705504 484.105628 
L 684.629194 517.641226 
L 687.552884 425.450424 
L 690.476574 457.416019 
L 693.400264 408.777141 
L 696.323954 418.901029 
L 699.247644 389.907503 
L 702.171335 352.2866 
L 705.095025 343.176289 
L 708.018715 343.51061 
L 710.942405 345.525593 
L 713.866095 345.566887 
L 716.789785 346.572612 
L 719.713475 346.497405 
L 722.637165 344.975324 
L 725.560855 348.273388 
L 728.484545 346.232572 
L 728.484545 346.232572 
" style="fill:none;stroke:#dd8452;stroke-dasharray:6,2.25;stroke-dashoffset:0;stroke-width:1.5;"/>
   </g>
   <g id="line2d_3">
    <path clip-path="url(#pbeb3e3924a)" d="M 134.975455 341.89982 
L 137.899145 340.499591 
L 140.822835 340.337564 
L 143.746525 340.295833 
L 146.670215 341.267942 
L 149.593905 344.842191 
L 152.517595 343.380257 
L 155.441285 360.806151 
L 158.364975 356.789425 
L 161.288665 345.961128 
L 164.212356 348.955339 
L 167.136046 348.041244 
L 170.059736 360.43344 
L 172.983426 379.574715 
L 175.907116 393.308775 
L 178.830806 418.64669 
L 181.754496 461.418037 
L 184.678186 381.130796 
L 187.601876 362.801598 
L 190.525567 295.914483 
L 193.449257 289.121015 
L 196.372947 294.542763 
L 199.296637 284.762028 
L 202.220327 292.712561 
L 205.144017 278.858677 
L 208.067707 252.89317 
L 210.991397 409.223974 
L 213.915087 421.728526 
L 216.838777 403.372358 
L 219.762468 426.056346 
L 222.686158 422.119007 
L 225.609848 373.993179 
L 228.533538 403.862357 
L 231.457228 454.884557 
L 234.380918 302.611599 
L 237.304608 374.774595 
L 240.228298 407.379938 
L 243.151988 365.686147 
L 246.075678 314.221014 
L 248.999369 442.812043 
L 251.923059 400.590021 
L 254.846749 387.37765 
L 257.770439 451.320733 
L 260.694129 419.070157 
L 263.617819 486.330141 
L 266.541509 419.960955 
L 269.465199 445.67319 
L 272.388889 456.609732 
L 275.312579 423.454295 
L 278.23627 412.532655 
L 281.15996 371.121852 
L 284.08365 371.05546 
L 287.00734 275.134382 
L 289.93103 312.649419 
L 292.85472 287.829644 
L 295.77841 312.982952 
L 298.7021 344.156444 
L 301.62579 350.732844 
L 304.549481 376.98641 
L 307.473171 329.454926 
L 310.396861 322.495234 
L 313.320551 295.46737 
L 316.244241 431.5986 
L 319.167931 482.964792 
L 322.091621 571.290313 
L 325.015311 490.053088 
L 327.939001 467.305927 
L 330.862691 368.182699 
L 333.786382 376.825468 
L 336.710072 456.837206 
L 339.633762 474.187701 
L 342.557452 401.256563 
L 345.481142 365.449543 
L 348.404832 424.877838 
L 351.328522 421.707923 
L 354.252212 493.451143 
L 357.175902 465.855449 
L 360.099592 260.296425 
L 363.023283 273.302764 
L 365.946973 272.086687 
L 368.870663 313.812169 
L 371.794353 237.487646 
L 374.718043 202.81346 
L 377.641733 87.236842 
L 380.565423 173.922801 
L 383.489113 238.506908 
L 386.412803 312.170649 
L 389.336494 348.199074 
L 392.260184 380.890414 
L 395.183874 379.990731 
L 398.107564 396.106259 
L 401.031254 349.234479 
L 403.954944 427.022877 
L 406.878634 404.33679 
L 409.802324 464.186942 
L 412.726014 429.741831 
L 415.649704 498.10662 
L 418.573395 458.590295 
L 421.497085 441.06658 
L 424.420775 452.68474 
L 427.344465 358.552098 
L 430.268155 392.685433 
L 433.191845 409.899681 
L 436.115535 363.389733 
L 439.039225 348.214727 
L 441.962915 381.706391 
L 444.886605 395.560783 
L 447.810296 344.348746 
L 450.733986 307.877773 
L 453.657676 304.028583 
L 456.581366 408.768326 
L 459.505056 449.815232 
L 462.428746 418.992886 
L 465.352436 456.933646 
L 468.276126 374.099483 
L 471.199816 274.05819 
L 474.123506 302.127616 
L 477.047197 383.098802 
L 479.970887 342.157237 
L 482.894577 356.95425 
L 485.818267 378.333837 
L 488.741957 423.684288 
L 491.665647 379.604448 
L 494.589337 379.745242 
L 497.513027 394.045662 
L 500.436717 313.913226 
L 503.360408 306.389955 
L 506.284098 189.186875 
L 509.207788 318.28332 
L 512.131478 342.958907 
L 515.055168 275.446246 
L 517.978858 330.874307 
L 520.902548 367.121478 
L 523.826238 339.830005 
L 526.749928 367.874141 
L 529.673618 344.313819 
L 532.597309 327.083917 
L 535.520999 340.771368 
L 538.444689 347.498496 
L 541.368379 402.975966 
L 544.292069 391.311597 
L 547.215759 279.525236 
L 550.139449 310.71865 
L 553.063139 277.910056 
L 555.986829 234.290446 
L 558.910519 265.236901 
L 561.83421 253.622711 
L 564.7579 278.093159 
L 567.68159 299.852715 
L 570.60528 345.495546 
L 573.52897 346.86828 
L 576.45266 434.798633 
L 579.37635 395.690943 
L 582.30004 341.692494 
L 585.22373 361.987248 
L 588.147421 297.767002 
L 591.071111 308.161058 
L 593.994801 207.641222 
L 596.918491 163.58125 
L 602.765871 319.436048 
L 605.689561 413.461337 
L 608.613251 431.024334 
L 611.536941 503.122006 
L 614.460631 511.327351 
L 617.384322 474.204421 
L 620.308012 453.542763 
L 623.231702 474.655173 
L 626.155392 511.002072 
L 629.079082 443.793964 
L 632.002772 409.860084 
L 634.926462 295.162415 
L 637.850152 231.076894 
L 640.773842 288.299844 
L 643.697532 303.353505 
L 646.621223 395.736277 
L 649.544913 471.961194 
L 652.468603 470.994734 
L 655.392293 479.785643 
L 658.315983 335.825084 
L 661.239673 326.478695 
L 664.163363 314.42862 
L 667.087053 283.87394 
L 670.010743 259.449159 
L 672.934433 342.708975 
L 675.858124 488.478572 
L 678.781814 478.933916 
L 681.705504 429.006833 
L 684.629194 454.839888 
L 687.552884 478.959067 
L 690.476574 443.53938 
L 693.400264 400.023136 
L 696.323954 417.382586 
L 699.247644 380.24451 
L 702.171335 354.48591 
L 705.095025 340.791813 
L 708.018715 344.458443 
L 710.942405 350.895518 
L 713.866095 353.424444 
L 716.789785 353.203091 
L 719.713475 350.797977 
L 722.637165 353.720584 
L 725.560855 352.533313 
L 728.484545 349.04104 
L 728.484545 349.04104 
" style="fill:none;stroke:#55a868;stroke-dasharray:1.5,1.5;stroke-dashoffset:0;stroke-width:1.5;"/>
   </g>
   <g id="line2d_4">
    <path clip-path="url(#pbeb3e3924a)" d="M 134.975455 349.056571 
L 137.899145 350.499231 
L 140.822835 350.356862 
L 143.746525 351.167382 
L 146.670215 349.89037 
L 149.593905 354.69801 
L 152.517595 350.942199 
L 155.441285 352.635507 
L 158.364975 349.411215 
L 161.288665 351.42842 
L 164.212356 354.459132 
L 167.136046 354.52353 
L 170.059736 381.125899 
L 172.983426 390.755451 
L 175.907116 405.365129 
L 178.830806 446.642274 
L 181.754496 477.165961 
L 184.678186 439.89846 
L 187.601876 334.025175 
L 190.525567 399.507427 
L 193.449257 365.435796 
L 196.372947 367.574993 
L 199.296637 367.142781 
L 202.220327 290.502442 
L 205.144017 351.847374 
L 208.067707 453.186107 
L 210.991397 502.59297 
L 213.915087 451.707191 
L 216.838777 448.924154 
L 219.762468 459.202478 
L 222.686158 451.005354 
L 225.609848 408.59542 
L 228.533538 424.052941 
L 231.457228 461.144459 
L 234.380918 326.216748 
L 237.304608 395.964941 
L 240.228298 426.945501 
L 243.151988 366.093454 
L 246.075678 353.396268 
L 248.999369 407.591216 
L 251.923059 409.173638 
L 254.846749 377.084914 
L 257.770439 418.486167 
L 260.694129 424.590758 
L 263.617819 526.276474 
L 266.541509 443.871514 
L 269.465199 432.241741 
L 272.388889 453.248931 
L 275.312579 455.93357 
L 278.23627 433.002659 
L 281.15996 388.304828 
L 284.08365 298.981173 
L 287.00734 273.907321 
L 289.93103 309.245138 
L 292.85472 254.615808 
L 295.77841 283.116275 
L 298.7021 345.781559 
L 301.62579 339.946716 
L 304.549481 368.926023 
L 307.473171 318.859666 
L 310.396861 285.867148 
L 313.320551 276.622078 
L 316.244241 426.259999 
L 319.167931 451.92753 
L 322.091621 534.941595 
L 325.015311 459.167464 
L 327.939001 461.955013 
L 330.862691 390.040811 
L 333.786382 363.105084 
L 336.710072 452.856736 
L 339.633762 457.110609 
L 342.557452 381.199252 
L 345.481142 269.628368 
L 348.404832 275.307585 
L 351.328522 377.442269 
L 354.252212 495.226199 
L 357.175902 486.330071 
L 360.099592 347.073595 
L 363.023283 433.072514 
L 365.946973 317.366548 
L 368.870663 322.612924 
L 371.794353 319.638826 
L 374.718043 185.746853 
L 377.641733 73.307337 
L 380.565423 225.855266 
L 383.489113 249.725266 
L 386.412803 296.672813 
L 389.336494 337.347061 
L 392.260184 393.745325 
L 395.183874 411.995328 
L 398.107564 350.304812 
L 401.031254 341.536011 
L 403.954944 397.670177 
L 406.878634 401.216721 
L 409.802324 450.729398 
L 412.726014 433.586019 
L 415.649704 431.015415 
L 418.573395 366.091915 
L 421.497085 421.023226 
L 424.420775 467.526265 
L 427.344465 364.210852 
L 430.268155 427.353402 
L 433.191845 466.888022 
L 436.115535 369.693272 
L 439.039225 403.059253 
L 441.962915 453.778912 
L 444.886605 383.671703 
L 447.810296 324.280749 
L 450.733986 336.372818 
L 453.657676 358.732734 
L 456.581366 392.488321 
L 459.505056 437.428773 
L 462.428746 441.195446 
L 465.352436 466.536054 
L 468.276126 387.336794 
L 471.199816 341.81216 
L 474.123506 353.991328 
L 477.047197 407.14879 
L 479.970887 319.713911 
L 482.894577 377.165752 
L 485.818267 428.067937 
L 488.741957 475.703311 
L 491.665647 475.824097 
L 494.589337 443.064248 
L 497.513027 467.903838 
L 500.436717 409.771865 
L 503.360408 335.075272 
L 506.284098 368.386387 
L 509.207788 419.85745 
L 512.131478 416.967549 
L 515.055168 402.784276 
L 517.978858 351.616857 
L 520.902548 413.897431 
L 523.826238 412.861046 
L 526.749928 384.498138 
L 529.673618 431.27619 
L 532.597309 412.937372 
L 535.520999 359.050684 
L 538.444689 329.394726 
L 541.368379 453.098273 
L 544.292069 456.195675 
L 547.215759 295.426146 
L 550.139449 362.568317 
L 553.063139 296.375116 
L 555.986829 386.725485 
L 558.910519 388.703494 
L 561.83421 346.17956 
L 564.7579 299.876221 
L 567.68159 257.313915 
L 570.60528 363.816576 
L 573.52897 384.203642 
L 576.45266 419.529968 
L 579.37635 422.954012 
L 582.30004 406.796787 
L 585.22373 398.321958 
L 588.147421 345.768791 
L 591.071111 379.603188 
L 593.994801 419.494533 
L 596.918491 294.927437 
L 599.842181 321.7145 
L 602.765871 421.622257 
L 605.689561 356.078423 
L 608.613251 428.701528 
L 611.536941 487.397658 
L 614.460631 511.896334 
L 617.384322 467.385926 
L 620.308012 434.779219 
L 623.231702 463.134116 
L 626.155392 509.202915 
L 629.079082 418.201081 
L 632.002772 382.473291 
L 634.926462 328.066766 
L 637.850152 260.330495 
L 640.773842 269.469769 
L 643.697532 249.985027 
L 646.621223 345.210232 
L 649.544913 445.189383 
L 652.468603 531.278393 
L 655.392293 475.006406 
L 658.315983 334.734568 
L 661.239673 436.084669 
L 664.163363 399.142307 
L 667.087053 481.258437 
L 670.010743 491.509163 
L 672.934433 500.550807 
L 675.858124 538.10231 
L 678.781814 493.501409 
L 681.705504 483.138748 
L 684.629194 517.742528 
L 687.552884 427.605887 
L 690.476574 458.305034 
L 693.400264 409.016193 
L 696.323954 418.351704 
L 699.247644 390.47897 
L 702.171335 352.4994 
L 705.095025 344.215595 
L 708.018715 345.528619 
L 710.942405 348.914046 
L 713.866095 349.506571 
L 716.789785 349.279411 
L 719.713475 349.221956 
L 722.637165 348.900036 
L 725.560855 351.532747 
L 728.484545 351.37588 
L 728.484545 351.37588 
" style="fill:none;stroke:#c44e52;stroke-dasharray:4.5,1.875,2.25,1.875;stroke-dashoffset:0;stroke-width:1.5;"/>
   </g>
   <g id="line2d_5">
    <path clip-path="url(#pbeb3e3924a)" d="M 134.975455 344.70033 
L 137.899145 346.453121 
L 140.822835 346.689095 
L 143.746525 347.896462 
L 146.670215 345.615544 
L 149.593905 352.403555 
L 152.517595 348.635518 
L 155.441285 351.353265 
L 158.364975 347.830473 
L 161.288665 350.53972 
L 164.212356 353.490591 
L 167.136046 352.488521 
L 170.059736 378.535426 
L 172.983426 387.742211 
L 175.907116 401.576 
L 178.830806 443.636204 
L 181.754496 482.854396 
L 184.678186 437.383614 
L 187.601876 354.915953 
L 190.525567 403.793307 
L 193.449257 381.369184 
L 196.372947 388.30182 
L 199.296637 386.428925 
L 202.220327 301.644474 
L 205.144017 358.219754 
L 208.067707 460.748241 
L 210.991397 507.766605 
L 213.915087 437.889878 
L 216.838777 451.288691 
L 219.762468 453.94727 
L 222.686158 444.204243 
L 225.609848 422.414307 
L 228.533538 434.42057 
L 231.457228 463.831896 
L 234.380918 328.825025 
L 237.304608 396.831673 
L 240.228298 431.753701 
L 243.151988 373.577617 
L 246.075678 357.56932 
L 248.999369 403.690256 
L 251.923059 417.580362 
L 254.846749 380.612779 
L 257.770439 426.548864 
L 260.694129 423.073888 
L 263.617819 526.033538 
L 266.541509 442.38165 
L 269.465199 431.812747 
L 272.388889 452.308076 
L 275.312579 456.957047 
L 278.23627 430.477388 
L 281.15996 388.867375 
L 284.08365 305.212583 
L 287.00734 272.600314 
L 289.93103 309.469254 
L 292.85472 257.526383 
L 295.77841 288.001448 
L 298.7021 343.167684 
L 301.62579 334.993367 
L 304.549481 362.371608 
L 307.473171 317.070443 
L 310.396861 297.918045 
L 313.320551 287.487173 
L 316.244241 438.614207 
L 319.167931 470.984975 
L 322.091621 543.810613 
L 325.015311 467.206024 
L 330.862691 386.352844 
L 333.786382 419.011635 
L 336.710072 405.461709 
L 339.633762 410.12901 
L 342.557452 323.29895 
L 345.481142 353.740435 
L 348.404832 355.176046 
L 351.328522 430.726306 
L 354.252212 518.554972 
L 357.175902 511.25949 
L 360.099592 455.975441 
L 363.023283 511.303739 
L 365.946973 401.266847 
L 368.870663 405.624925 
L 371.794353 301.49901 
L 374.718043 108.775062 
L 377.641733 71.746258 
L 380.565423 231.611842 
L 383.489113 248.588821 
L 386.412803 270.885913 
L 389.336494 346.160619 
L 392.260184 407.379028 
L 395.183874 433.571607 
L 398.107564 355.298755 
L 401.031254 376.066613 
L 403.954944 423.386854 
L 406.878634 419.328623 
L 409.802324 472.129238 
L 412.726014 443.586428 
L 415.649704 465.099148 
L 418.573395 383.275905 
L 421.497085 452.130798 
L 424.420775 484.772415 
L 427.344465 370.439359 
L 430.268155 413.921218 
L 433.191845 460.468332 
L 436.115535 367.730549 
L 439.039225 404.107671 
L 441.962915 453.789371 
L 444.886605 403.360395 
L 447.810296 332.208651 
L 450.733986 335.899259 
L 453.657676 351.488165 
L 456.581366 402.73275 
L 459.505056 429.668863 
L 465.352436 461.708055 
L 468.276126 399.135101 
L 471.199816 360.079234 
L 474.123506 363.479719 
L 477.047197 391.073768 
L 479.970887 323.539262 
L 482.894577 380.422558 
L 485.818267 432.158174 
L 488.741957 327.391933 
L 491.665647 396.35801 
L 494.589337 329.976634 
L 497.513027 446.654587 
L 500.436717 429.047654 
L 503.360408 390.892503 
L 506.284098 413.973548 
L 509.207788 323.621553 
L 512.131478 372.012965 
L 515.055168 357.370948 
L 517.978858 421.430042 
L 520.902548 412.752853 
L 523.826238 373.891352 
L 526.749928 372.636133 
L 529.673618 377.752086 
L 532.597309 372.362625 
L 535.520999 367.446792 
L 538.444689 235.383551 
L 541.368379 204.132719 
L 544.292069 259.123706 
L 547.215759 220.93688 
L 550.139449 191.590949 
L 553.063139 181.428005 
L 555.986829 209.613119 
L 558.910519 202.265071 
L 561.83421 176.562578 
L 564.7579 160.369202 
L 567.68159 224.047224 
L 570.60528 248.55559 
L 573.52897 313.47839 
L 576.45266 392.761759 
L 579.37635 390.540639 
L 582.30004 332.861271 
L 585.22373 353.200747 
L 588.147421 329.327197 
L 591.071111 342.524054 
L 593.994801 395.473508 
L 596.918491 285.139863 
L 599.842181 309.281849 
L 602.765871 408.6998 
L 605.689561 347.578285 
L 608.613251 424.058083 
L 611.536941 483.561935 
L 614.460631 508.390087 
L 617.384322 458.321929 
L 620.308012 440.008402 
L 623.231702 465.169038 
L 626.155392 509.870752 
L 629.079082 424.744389 
L 632.002772 377.991803 
L 634.926462 309.235029 
L 637.850152 256.706086 
L 640.773842 278.742946 
L 643.697532 247.388065 
L 652.468603 517.680124 
L 655.392293 464.796362 
L 658.315983 339.016775 
L 661.239673 426.604377 
L 664.163363 396.635751 
L 667.087053 476.663825 
L 670.010743 488.341346 
L 672.934433 498.195469 
L 675.858124 531.144489 
L 678.781814 482.398048 
L 681.705504 481.687955 
L 684.629194 506.970812 
L 687.552884 421.432596 
L 690.476574 451.698306 
L 693.400264 408.128613 
L 696.323954 417.643186 
L 699.247644 391.653875 
L 702.171335 347.387994 
L 705.095025 341.983789 
L 708.018715 341.329962 
L 710.942405 343.919753 
L 713.866095 342.744655 
L 716.789785 344.139024 
L 719.713475 344.719061 
L 722.637165 341.295087 
L 725.560855 345.221793 
L 728.484545 343.328679 
L 728.484545 343.328679 
" style="fill:none;stroke:#8172b3;stroke-dasharray:7.5,1.5,1.5,1.5;stroke-dashoffset:0;stroke-width:1.5;"/>
   </g>
   <g id="line2d_6"/>
   <g id="line2d_7"/>
   <g id="line2d_8"/>
   <g id="line2d_9"/>
   <g id="line2d_10"/>
   <g id="patch_3">
    <path d="M 105.3 529.9416 
L 105.3 71.4528 
" style="fill:none;stroke:#262626;stroke-linecap:square;stroke-linejoin:miter;stroke-width:1.25;"/>
   </g>
   <g id="patch_4">
    <path d="M 758.16 529.9416 
L 758.16 71.4528 
" style="fill:none;stroke:#262626;stroke-linecap:square;stroke-linejoin:miter;stroke-width:1.25;"/>
   </g>
   <g id="patch_5">
    <path d="M 105.3 529.9416 
L 758.16 529.9416 
" style="fill:none;stroke:#262626;stroke-linecap:square;stroke-linejoin:miter;stroke-width:1.25;"/>
   </g>
   <g id="patch_6">
    <path d="M 105.3 71.4528 
L 758.16 71.4528 
" style="fill:none;stroke:#262626;stroke-linecap:square;stroke-linejoin:miter;stroke-width:1.25;"/>
   </g>
   <g id="text_16">
    <!-- Activations for &gt;'&lt; -->
    <g style="fill:#262626;" transform="translate(384.22875 65.4528)scale(0.12 -0.12)">
     <defs>
      <path d="M -9 0 
L 1750 4581 
L 2403 4581 
L 4278 0 
L 3588 0 
L 3053 1388 
L 1138 1388 
L 634 0 
L -9 0 
z
M 1313 1881 
L 2866 1881 
L 2388 3150 
Q 2169 3728 2063 4100 
Q 1975 3659 1816 3225 
L 1313 1881 
z
" id="ArialMT-41" transform="scale(0.015625)"/>
      <path d="M 2588 1216 
L 3141 1144 
Q 3050 572 2676 248 
Q 2303 -75 1759 -75 
Q 1078 -75 664 370 
Q 250 816 250 1647 
Q 250 2184 428 2587 
Q 606 2991 970 3192 
Q 1334 3394 1763 3394 
Q 2303 3394 2647 3120 
Q 2991 2847 3088 2344 
L 2541 2259 
Q 2463 2594 2264 2762 
Q 2066 2931 1784 2931 
Q 1359 2931 1093 2626 
Q 828 2322 828 1663 
Q 828 994 1084 691 
Q 1341 388 1753 388 
Q 2084 388 2306 591 
Q 2528 794 2588 1216 
z
" id="ArialMT-63" transform="scale(0.015625)"/>
      <path d="M 1650 503 
L 1731 6 
Q 1494 -44 1306 -44 
Q 1000 -44 831 53 
Q 663 150 594 308 
Q 525 466 525 972 
L 525 2881 
L 113 2881 
L 113 3319 
L 525 3319 
L 525 4141 
L 1084 4478 
L 1084 3319 
L 1650 3319 
L 1650 2881 
L 1084 2881 
L 1084 941 
Q 1084 700 1114 631 
Q 1144 563 1211 522 
Q 1278 481 1403 481 
Q 1497 481 1650 503 
z
" id="ArialMT-74" transform="scale(0.015625)"/>
      <path d="M 425 3934 
L 425 4581 
L 988 4581 
L 988 3934 
L 425 3934 
z
M 425 0 
L 425 3319 
L 988 3319 
L 988 0 
L 425 0 
z
" id="ArialMT-69" transform="scale(0.015625)"/>
      <path d="M 1344 0 
L 81 3319 
L 675 3319 
L 1388 1331 
Q 1503 1009 1600 663 
Q 1675 925 1809 1294 
L 2547 3319 
L 3125 3319 
L 1869 0 
L 1344 0 
z
" id="ArialMT-76" transform="scale(0.015625)"/>
      <path d="M 2588 409 
Q 2275 144 1986 34 
Q 1697 -75 1366 -75 
Q 819 -75 525 192 
Q 231 459 231 875 
Q 231 1119 342 1320 
Q 453 1522 633 1644 
Q 813 1766 1038 1828 
Q 1203 1872 1538 1913 
Q 2219 1994 2541 2106 
Q 2544 2222 2544 2253 
Q 2544 2597 2384 2738 
Q 2169 2928 1744 2928 
Q 1347 2928 1158 2789 
Q 969 2650 878 2297 
L 328 2372 
Q 403 2725 575 2942 
Q 747 3159 1072 3276 
Q 1397 3394 1825 3394 
Q 2250 3394 2515 3294 
Q 2781 3194 2906 3042 
Q 3031 2891 3081 2659 
Q 3109 2516 3109 2141 
L 3109 1391 
Q 3109 606 3145 398 
Q 3181 191 3288 0 
L 2700 0 
Q 2613 175 2588 409 
z
M 2541 1666 
Q 2234 1541 1622 1453 
Q 1275 1403 1131 1340 
Q 988 1278 909 1158 
Q 831 1038 831 891 
Q 831 666 1001 516 
Q 1172 366 1500 366 
Q 1825 366 2078 508 
Q 2331 650 2450 897 
Q 2541 1088 2541 1459 
L 2541 1666 
z
" id="ArialMT-61" transform="scale(0.015625)"/>
      <path d="M 213 1659 
Q 213 2581 725 3025 
Q 1153 3394 1769 3394 
Q 2453 3394 2887 2945 
Q 3322 2497 3322 1706 
Q 3322 1066 3130 698 
Q 2938 331 2570 128 
Q 2203 -75 1769 -75 
Q 1072 -75 642 372 
Q 213 819 213 1659 
z
M 791 1659 
Q 791 1022 1069 705 
Q 1347 388 1769 388 
Q 2188 388 2466 706 
Q 2744 1025 2744 1678 
Q 2744 2294 2464 2611 
Q 2184 2928 1769 2928 
Q 1347 2928 1069 2612 
Q 791 2297 791 1659 
z
" id="ArialMT-6f" transform="scale(0.015625)"/>
      <path d="M 422 0 
L 422 3319 
L 928 3319 
L 928 2847 
Q 1294 3394 1984 3394 
Q 2284 3394 2536 3286 
Q 2788 3178 2913 3003 
Q 3038 2828 3088 2588 
Q 3119 2431 3119 2041 
L 3119 0 
L 2556 0 
L 2556 2019 
Q 2556 2363 2490 2533 
Q 2425 2703 2258 2804 
Q 2091 2906 1866 2906 
Q 1506 2906 1245 2678 
Q 984 2450 984 1813 
L 984 0 
L 422 0 
z
" id="ArialMT-6e" transform="scale(0.015625)"/>
      <path d="M 197 991 
L 753 1078 
Q 800 744 1014 566 
Q 1228 388 1613 388 
Q 2000 388 2187 545 
Q 2375 703 2375 916 
Q 2375 1106 2209 1216 
Q 2094 1291 1634 1406 
Q 1016 1563 777 1677 
Q 538 1791 414 1992 
Q 291 2194 291 2438 
Q 291 2659 392 2848 
Q 494 3038 669 3163 
Q 800 3259 1026 3326 
Q 1253 3394 1513 3394 
Q 1903 3394 2198 3281 
Q 2494 3169 2634 2976 
Q 2775 2784 2828 2463 
L 2278 2388 
Q 2241 2644 2061 2787 
Q 1881 2931 1553 2931 
Q 1166 2931 1000 2803 
Q 834 2675 834 2503 
Q 834 2394 903 2306 
Q 972 2216 1119 2156 
Q 1203 2125 1616 2013 
Q 2213 1853 2448 1751 
Q 2684 1650 2818 1456 
Q 2953 1263 2953 975 
Q 2953 694 2789 445 
Q 2625 197 2315 61 
Q 2006 -75 1616 -75 
Q 969 -75 630 194 
Q 291 463 197 991 
z
" id="ArialMT-73" transform="scale(0.015625)"/>
      <path id="ArialMT-20" transform="scale(0.015625)"/>
      <path d="M 556 0 
L 556 2881 
L 59 2881 
L 59 3319 
L 556 3319 
L 556 3672 
Q 556 4006 616 4169 
Q 697 4388 901 4523 
Q 1106 4659 1475 4659 
Q 1713 4659 2000 4603 
L 1916 4113 
Q 1741 4144 1584 4144 
Q 1328 4144 1222 4034 
Q 1116 3925 1116 3625 
L 1116 3319 
L 1763 3319 
L 1763 2881 
L 1116 2881 
L 1116 0 
L 556 0 
z
" id="ArialMT-66" transform="scale(0.015625)"/>
      <path d="M 416 0 
L 416 3319 
L 922 3319 
L 922 2816 
Q 1116 3169 1280 3281 
Q 1444 3394 1641 3394 
Q 1925 3394 2219 3213 
L 2025 2691 
Q 1819 2813 1613 2813 
Q 1428 2813 1281 2702 
Q 1134 2591 1072 2394 
Q 978 2094 978 1738 
L 978 0 
L 416 0 
z
" id="ArialMT-72" transform="scale(0.015625)"/>
      <path d="M 3384 2003 
L 350 706 
L 350 1266 
L 2753 2263 
L 350 3250 
L 350 3809 
L 3384 2528 
L 3384 2003 
z
" id="ArialMT-3e" transform="scale(0.015625)"/>
      <path d="M 425 2959 
L 281 3816 
L 281 4581 
L 922 4581 
L 922 3816 
L 772 2959 
L 425 2959 
z
" id="ArialMT-27" transform="scale(0.015625)"/>
      <path d="M 350 2003 
L 350 2528 
L 3384 3809 
L 3384 3250 
L 978 2263 
L 3384 1266 
L 3384 706 
L 350 2003 
z
" id="ArialMT-3c" transform="scale(0.015625)"/>
     </defs>
     <use xlink:href="#ArialMT-41"/>
     <use x="66.699219" xlink:href="#ArialMT-63"/>
     <use x="116.699219" xlink:href="#ArialMT-74"/>
     <use x="144.482422" xlink:href="#ArialMT-69"/>
     <use x="166.699219" xlink:href="#ArialMT-76"/>
     <use x="216.699219" xlink:href="#ArialMT-61"/>
     <use x="272.314453" xlink:href="#ArialMT-74"/>
     <use x="300.097656" xlink:href="#ArialMT-69"/>
     <use x="322.314453" xlink:href="#ArialMT-6f"/>
     <use x="377.929688" xlink:href="#ArialMT-6e"/>
     <use x="433.544922" xlink:href="#ArialMT-73"/>
     <use x="483.544922" xlink:href="#ArialMT-20"/>
     <use x="511.328125" xlink:href="#ArialMT-66"/>
     <use x="539.111328" xlink:href="#ArialMT-6f"/>
     <use x="594.726562" xlink:href="#ArialMT-72"/>
     <use x="628.027344" xlink:href="#ArialMT-20"/>
     <use x="655.810547" xlink:href="#ArialMT-3e"/>
     <use x="714.208984" xlink:href="#ArialMT-27"/>
     <use x="733.300781" xlink:href="#ArialMT-3c"/>
    </g>
   </g>
   <g id="legend_1">
    <g id="patch_7">
     <path d="M 640.044062 158.514363 
L 750.46 158.514363 
Q 752.66 158.514363 752.66 156.314363 
L 752.66 79.1528 
Q 752.66 76.9528 750.46 76.9528 
L 640.044062 76.9528 
Q 637.844062 76.9528 637.844062 79.1528 
L 637.844062 156.314363 
Q 637.844062 158.514363 640.044062 158.514363 
z
" style="fill:#ffffff;opacity:0.8;stroke:#cccccc;stroke-linejoin:miter;"/>
    </g>
    <g id="line2d_11">
     <path d="M 642.244062 85.376394 
L 664.244062 85.376394 
" style="fill:none;stroke:#4c72b0;stroke-linecap:round;stroke-width:1.5;"/>
    </g>
    <g id="line2d_12"/>
    <g id="text_17">
     <!-- regular -->
     <g style="fill:#262626;" transform="translate(673.044062 89.226394)scale(0.11 -0.11)">
      <defs>
       <path d="M 2694 1069 
L 3275 997 
Q 3138 488 2766 206 
Q 2394 -75 1816 -75 
Q 1088 -75 661 373 
Q 234 822 234 1631 
Q 234 2469 665 2931 
Q 1097 3394 1784 3394 
Q 2450 3394 2872 2941 
Q 3294 2488 3294 1666 
Q 3294 1616 3291 1516 
L 816 1516 
Q 847 969 1125 678 
Q 1403 388 1819 388 
Q 2128 388 2347 550 
Q 2566 713 2694 1069 
z
M 847 1978 
L 2700 1978 
Q 2663 2397 2488 2606 
Q 2219 2931 1791 2931 
Q 1403 2931 1139 2672 
Q 875 2413 847 1978 
z
" id="ArialMT-65" transform="scale(0.015625)"/>
       <path d="M 319 -275 
L 866 -356 
Q 900 -609 1056 -725 
Q 1266 -881 1628 -881 
Q 2019 -881 2231 -725 
Q 2444 -569 2519 -288 
Q 2563 -116 2559 434 
Q 2191 0 1641 0 
Q 956 0 581 494 
Q 206 988 206 1678 
Q 206 2153 378 2554 
Q 550 2956 876 3175 
Q 1203 3394 1644 3394 
Q 2231 3394 2613 2919 
L 2613 3319 
L 3131 3319 
L 3131 450 
Q 3131 -325 2973 -648 
Q 2816 -972 2473 -1159 
Q 2131 -1347 1631 -1347 
Q 1038 -1347 672 -1080 
Q 306 -813 319 -275 
z
M 784 1719 
Q 784 1066 1043 766 
Q 1303 466 1694 466 
Q 2081 466 2343 764 
Q 2606 1063 2606 1700 
Q 2606 2309 2336 2618 
Q 2066 2928 1684 2928 
Q 1309 2928 1046 2623 
Q 784 2319 784 1719 
z
" id="ArialMT-67" transform="scale(0.015625)"/>
       <path d="M 2597 0 
L 2597 488 
Q 2209 -75 1544 -75 
Q 1250 -75 995 37 
Q 741 150 617 320 
Q 494 491 444 738 
Q 409 903 409 1263 
L 409 3319 
L 972 3319 
L 972 1478 
Q 972 1038 1006 884 
Q 1059 663 1231 536 
Q 1403 409 1656 409 
Q 1909 409 2131 539 
Q 2353 669 2445 892 
Q 2538 1116 2538 1541 
L 2538 3319 
L 3100 3319 
L 3100 0 
L 2597 0 
z
" id="ArialMT-75" transform="scale(0.015625)"/>
       <path d="M 409 0 
L 409 4581 
L 972 4581 
L 972 0 
L 409 0 
z
" id="ArialMT-6c" transform="scale(0.015625)"/>
      </defs>
      <use xlink:href="#ArialMT-72"/>
      <use x="33.300781" xlink:href="#ArialMT-65"/>
      <use x="88.916016" xlink:href="#ArialMT-67"/>
      <use x="144.53125" xlink:href="#ArialMT-75"/>
      <use x="200.146484" xlink:href="#ArialMT-6c"/>
      <use x="222.363281" xlink:href="#ArialMT-61"/>
      <use x="277.978516" xlink:href="#ArialMT-72"/>
     </g>
    </g>
    <g id="line2d_13">
     <path d="M 642.244062 101.0978 
L 664.244062 101.0978 
" style="fill:none;stroke:#dd8452;stroke-dasharray:6,2.25;stroke-dashoffset:0;stroke-width:1.5;"/>
    </g>
    <g id="line2d_14"/>
    <g id="text_18">
     <!-- splitted_3s -->
     <g style="fill:#262626;" transform="translate(673.044062 104.9478)scale(0.11 -0.11)">
      <defs>
       <path d="M 422 -1272 
L 422 3319 
L 934 3319 
L 934 2888 
Q 1116 3141 1344 3267 
Q 1572 3394 1897 3394 
Q 2322 3394 2647 3175 
Q 2972 2956 3137 2557 
Q 3303 2159 3303 1684 
Q 3303 1175 3120 767 
Q 2938 359 2589 142 
Q 2241 -75 1856 -75 
Q 1575 -75 1351 44 
Q 1128 163 984 344 
L 984 -1272 
L 422 -1272 
z
M 931 1641 
Q 931 1000 1190 694 
Q 1450 388 1819 388 
Q 2194 388 2461 705 
Q 2728 1022 2728 1688 
Q 2728 2322 2467 2637 
Q 2206 2953 1844 2953 
Q 1484 2953 1207 2617 
Q 931 2281 931 1641 
z
" id="ArialMT-70" transform="scale(0.015625)"/>
       <path d="M 2575 0 
L 2575 419 
Q 2259 -75 1647 -75 
Q 1250 -75 917 144 
Q 584 363 401 755 
Q 219 1147 219 1656 
Q 219 2153 384 2558 
Q 550 2963 881 3178 
Q 1213 3394 1622 3394 
Q 1922 3394 2156 3267 
Q 2391 3141 2538 2938 
L 2538 4581 
L 3097 4581 
L 3097 0 
L 2575 0 
z
M 797 1656 
Q 797 1019 1065 703 
Q 1334 388 1700 388 
Q 2069 388 2326 689 
Q 2584 991 2584 1609 
Q 2584 2291 2321 2609 
Q 2059 2928 1675 2928 
Q 1300 2928 1048 2622 
Q 797 2316 797 1656 
z
" id="ArialMT-64" transform="scale(0.015625)"/>
       <path d="M -97 -1272 
L -97 -866 
L 3631 -866 
L 3631 -1272 
L -97 -1272 
z
" id="ArialMT-5f" transform="scale(0.015625)"/>
       <path d="M 269 1209 
L 831 1284 
Q 928 806 1161 595 
Q 1394 384 1728 384 
Q 2125 384 2398 659 
Q 2672 934 2672 1341 
Q 2672 1728 2419 1979 
Q 2166 2231 1775 2231 
Q 1616 2231 1378 2169 
L 1441 2663 
Q 1497 2656 1531 2656 
Q 1891 2656 2178 2843 
Q 2466 3031 2466 3422 
Q 2466 3731 2256 3934 
Q 2047 4138 1716 4138 
Q 1388 4138 1169 3931 
Q 950 3725 888 3313 
L 325 3413 
Q 428 3978 793 4289 
Q 1159 4600 1703 4600 
Q 2078 4600 2393 4439 
Q 2709 4278 2876 4000 
Q 3044 3722 3044 3409 
Q 3044 3113 2884 2869 
Q 2725 2625 2413 2481 
Q 2819 2388 3044 2092 
Q 3269 1797 3269 1353 
Q 3269 753 2831 336 
Q 2394 -81 1725 -81 
Q 1122 -81 723 278 
Q 325 638 269 1209 
z
" id="ArialMT-33" transform="scale(0.015625)"/>
      </defs>
      <use xlink:href="#ArialMT-73"/>
      <use x="50" xlink:href="#ArialMT-70"/>
      <use x="105.615234" xlink:href="#ArialMT-6c"/>
      <use x="127.832031" xlink:href="#ArialMT-69"/>
      <use x="150.048828" xlink:href="#ArialMT-74"/>
      <use x="177.832031" xlink:href="#ArialMT-74"/>
      <use x="205.615234" xlink:href="#ArialMT-65"/>
      <use x="261.230469" xlink:href="#ArialMT-64"/>
      <use x="316.845703" xlink:href="#ArialMT-5f"/>
      <use x="372.460938" xlink:href="#ArialMT-33"/>
      <use x="428.076172" xlink:href="#ArialMT-73"/>
     </g>
    </g>
    <g id="line2d_15">
     <path d="M 642.244062 116.6903 
L 664.244062 116.6903 
" style="fill:none;stroke:#55a868;stroke-dasharray:1.5,1.5;stroke-dashoffset:0;stroke-width:1.5;"/>
    </g>
    <g id="line2d_16"/>
    <g id="text_19">
     <!-- splitted_1s -->
     <g style="fill:#262626;" transform="translate(673.044062 120.5403)scale(0.11 -0.11)">
      <use xlink:href="#ArialMT-73"/>
      <use x="50" xlink:href="#ArialMT-70"/>
      <use x="105.615234" xlink:href="#ArialMT-6c"/>
      <use x="127.832031" xlink:href="#ArialMT-69"/>
      <use x="150.048828" xlink:href="#ArialMT-74"/>
      <use x="177.832031" xlink:href="#ArialMT-74"/>
      <use x="205.615234" xlink:href="#ArialMT-65"/>
      <use x="261.230469" xlink:href="#ArialMT-64"/>
      <use x="316.845703" xlink:href="#ArialMT-5f"/>
      <use x="372.460938" xlink:href="#ArialMT-31"/>
      <use x="428.076172" xlink:href="#ArialMT-73"/>
     </g>
    </g>
    <g id="line2d_17">
     <path d="M 642.244062 132.384206 
L 664.244062 132.384206 
" style="fill:none;stroke:#c44e52;stroke-dasharray:4.5,1.875,2.25,1.875;stroke-dashoffset:0;stroke-width:1.5;"/>
    </g>
    <g id="line2d_18"/>
    <g id="text_20">
     <!-- overlap_1f_3s -->
     <g style="fill:#262626;" transform="translate(673.044062 136.234206)scale(0.11 -0.11)">
      <use xlink:href="#ArialMT-6f"/>
      <use x="55.615234" xlink:href="#ArialMT-76"/>
      <use x="105.615234" xlink:href="#ArialMT-65"/>
      <use x="161.230469" xlink:href="#ArialMT-72"/>
      <use x="194.53125" xlink:href="#ArialMT-6c"/>
      <use x="216.748047" xlink:href="#ArialMT-61"/>
      <use x="272.363281" xlink:href="#ArialMT-70"/>
      <use x="327.978516" xlink:href="#ArialMT-5f"/>
      <use x="383.59375" xlink:href="#ArialMT-31"/>
      <use x="439.208984" xlink:href="#ArialMT-66"/>
      <use x="466.992188" xlink:href="#ArialMT-5f"/>
      <use x="522.607422" xlink:href="#ArialMT-33"/>
      <use x="578.222656" xlink:href="#ArialMT-73"/>
     </g>
    </g>
    <g id="line2d_19">
     <path d="M 642.244062 148.078113 
L 664.244062 148.078113 
" style="fill:none;stroke:#8172b3;stroke-dasharray:7.5,1.5,1.5,1.5;stroke-dashoffset:0;stroke-width:1.5;"/>
    </g>
    <g id="line2d_20"/>
    <g id="text_21">
     <!-- overlap_10f_3s -->
     <g style="fill:#262626;" transform="translate(673.044062 151.928112)scale(0.11 -0.11)">
      <use xlink:href="#ArialMT-6f"/>
      <use x="55.615234" xlink:href="#ArialMT-76"/>
      <use x="105.615234" xlink:href="#ArialMT-65"/>
      <use x="161.230469" xlink:href="#ArialMT-72"/>
      <use x="194.53125" xlink:href="#ArialMT-6c"/>
      <use x="216.748047" xlink:href="#ArialMT-61"/>
      <use x="272.363281" xlink:href="#ArialMT-70"/>
      <use x="327.978516" xlink:href="#ArialMT-5f"/>
      <use x="383.59375" xlink:href="#ArialMT-31"/>
      <use x="439.208984" xlink:href="#ArialMT-30"/>
      <use x="494.824219" xlink:href="#ArialMT-66"/>
      <use x="522.607422" xlink:href="#ArialMT-5f"/>
      <use x="578.222656" xlink:href="#ArialMT-33"/>
      <use x="633.837891" xlink:href="#ArialMT-73"/>
     </g>
    </g>
   </g>
  </g>
 </g>
 <defs>
  <clipPath id="pbeb3e3924a">
   <rect height="458.4888" width="652.86" x="105.3" y="71.4528"/>
  </clipPath>
 </defs>
</svg>
