<?xml version="1.0" encoding="utf-8" standalone="no"?>
<!DOCTYPE svg PUBLIC "-//W3C//DTD SVG 1.1//EN"
  "http://www.w3.org/Graphics/SVG/1.1/DTD/svg11.dtd">
<svg height="595.44pt" version="1.1" viewBox="0 0 842.4 595.44" width="842.4pt" xmlns="http://www.w3.org/2000/svg" xmlns:xlink="http://www.w3.org/1999/xlink">
 <metadata>
  <rdf:RDF xmlns:cc="http://creativecommons.org/ns#" xmlns:dc="http://purl.org/dc/elements/1.1/" xmlns:rdf="http://www.w3.org/1999/02/22-rdf-syntax-ns#">
   <cc:Work>
    <dc:type rdf:resource="http://purl.org/dc/dcmitype/StillImage"/>
    <dc:date>2021-06-04T22:03:13.349187</dc:date>
    <dc:format>image/svg+xml</dc:format>
    <dc:creator>
     <cc:Agent>
      <dc:title>Matplotlib v3.4.1, https://matplotlib.org/</dc:title>
     </cc:Agent>
    </dc:creator>
   </cc:Work>
  </rdf:RDF>
 </metadata>
 <defs>
  <style type="text/css">*{stroke-linecap:butt;stroke-linejoin:round;}</style>
 </defs>
 <g id="figure_1">
  <g id="patch_1">
   <path d="M 0 595.44 
L 842.4 595.44 
L 842.4 0 
L 0 0 
z
" style="fill:#ffffff;"/>
  </g>
  <g id="axes_1">
   <g id="patch_2">
    <path d="M 105.3 529.9416 
L 758.16 529.9416 
L 758.16 71.4528 
L 105.3 71.4528 
z
" style="fill:#ffffff;"/>
   </g>
   <g id="matplotlib.axis_1">
    <g id="xtick_1">
     <g id="text_1">
      <!-- 0 -->
      <g style="fill:#262626;" transform="translate(131.916939 547.315194)scale(0.11 -0.11)">
       <defs>
        <path d="M 266 2259 
Q 266 3072 433 3567 
Q 600 4063 929 4331 
Q 1259 4600 1759 4600 
Q 2128 4600 2406 4451 
Q 2684 4303 2865 4023 
Q 3047 3744 3150 3342 
Q 3253 2941 3253 2259 
Q 3253 1453 3087 958 
Q 2922 463 2592 192 
Q 2263 -78 1759 -78 
Q 1097 -78 719 397 
Q 266 969 266 2259 
z
M 844 2259 
Q 844 1131 1108 757 
Q 1372 384 1759 384 
Q 2147 384 2411 759 
Q 2675 1134 2675 2259 
Q 2675 3391 2411 3762 
Q 2147 4134 1753 4134 
Q 1366 4134 1134 3806 
Q 844 3388 844 2259 
z
" id="ArialMT-30" transform="scale(0.015625)"/>
       </defs>
       <use xlink:href="#ArialMT-30"/>
      </g>
     </g>
    </g>
    <g id="xtick_2">
     <g id="text_2">
      <!-- 25 -->
      <g style="fill:#262626;" transform="translate(201.950676 547.315194)scale(0.11 -0.11)">
       <defs>
        <path d="M 3222 541 
L 3222 0 
L 194 0 
Q 188 203 259 391 
Q 375 700 629 1000 
Q 884 1300 1366 1694 
Q 2113 2306 2375 2664 
Q 2638 3022 2638 3341 
Q 2638 3675 2398 3904 
Q 2159 4134 1775 4134 
Q 1369 4134 1125 3890 
Q 881 3647 878 3216 
L 300 3275 
Q 359 3922 746 4261 
Q 1134 4600 1788 4600 
Q 2447 4600 2831 4234 
Q 3216 3869 3216 3328 
Q 3216 3053 3103 2787 
Q 2991 2522 2730 2228 
Q 2469 1934 1863 1422 
Q 1356 997 1212 845 
Q 1069 694 975 541 
L 3222 541 
z
" id="ArialMT-32" transform="scale(0.015625)"/>
        <path d="M 266 1200 
L 856 1250 
Q 922 819 1161 601 
Q 1400 384 1738 384 
Q 2144 384 2425 690 
Q 2706 997 2706 1503 
Q 2706 1984 2436 2262 
Q 2166 2541 1728 2541 
Q 1456 2541 1237 2417 
Q 1019 2294 894 2097 
L 366 2166 
L 809 4519 
L 3088 4519 
L 3088 3981 
L 1259 3981 
L 1013 2750 
Q 1425 3038 1878 3038 
Q 2478 3038 2890 2622 
Q 3303 2206 3303 1553 
Q 3303 931 2941 478 
Q 2500 -78 1738 -78 
Q 1113 -78 717 272 
Q 322 622 266 1200 
z
" id="ArialMT-35" transform="scale(0.015625)"/>
       </defs>
       <use xlink:href="#ArialMT-32"/>
       <use x="55.615234" xlink:href="#ArialMT-35"/>
      </g>
     </g>
    </g>
    <g id="xtick_3">
     <g id="text_3">
      <!-- 50 -->
      <g style="fill:#262626;" transform="translate(275.042928 547.315194)scale(0.11 -0.11)">
       <use xlink:href="#ArialMT-35"/>
       <use x="55.615234" xlink:href="#ArialMT-30"/>
      </g>
     </g>
    </g>
    <g id="xtick_4">
     <g id="text_4">
      <!-- 75 -->
      <g style="fill:#262626;" transform="translate(348.135181 547.315194)scale(0.11 -0.11)">
       <defs>
        <path d="M 303 3981 
L 303 4522 
L 3269 4522 
L 3269 4084 
Q 2831 3619 2401 2847 
Q 1972 2075 1738 1259 
Q 1569 684 1522 0 
L 944 0 
Q 953 541 1156 1306 
Q 1359 2072 1739 2783 
Q 2119 3494 2547 3981 
L 303 3981 
z
" id="ArialMT-37" transform="scale(0.015625)"/>
       </defs>
       <use xlink:href="#ArialMT-37"/>
       <use x="55.615234" xlink:href="#ArialMT-35"/>
      </g>
     </g>
    </g>
    <g id="xtick_5">
     <g id="text_5">
      <!-- 100 -->
      <g style="fill:#262626;" transform="translate(418.168918 547.315194)scale(0.11 -0.11)">
       <defs>
        <path d="M 2384 0 
L 1822 0 
L 1822 3584 
Q 1619 3391 1289 3197 
Q 959 3003 697 2906 
L 697 3450 
Q 1169 3672 1522 3987 
Q 1875 4303 2022 4600 
L 2384 4600 
L 2384 0 
z
" id="ArialMT-31" transform="scale(0.015625)"/>
       </defs>
       <use xlink:href="#ArialMT-31"/>
       <use x="55.615234" xlink:href="#ArialMT-30"/>
       <use x="111.230469" xlink:href="#ArialMT-30"/>
      </g>
     </g>
    </g>
    <g id="xtick_6">
     <g id="text_6">
      <!-- 125 -->
      <g style="fill:#262626;" transform="translate(491.261171 547.315194)scale(0.11 -0.11)">
       <use xlink:href="#ArialMT-31"/>
       <use x="55.615234" xlink:href="#ArialMT-32"/>
       <use x="111.230469" xlink:href="#ArialMT-35"/>
      </g>
     </g>
    </g>
    <g id="xtick_7">
     <g id="text_7">
      <!-- 150 -->
      <g style="fill:#262626;" transform="translate(564.353423 547.315194)scale(0.11 -0.11)">
       <use xlink:href="#ArialMT-31"/>
       <use x="55.615234" xlink:href="#ArialMT-35"/>
       <use x="111.230469" xlink:href="#ArialMT-30"/>
      </g>
     </g>
    </g>
    <g id="xtick_8">
     <g id="text_8">
      <!-- 175 -->
      <g style="fill:#262626;" transform="translate(637.445676 547.315194)scale(0.11 -0.11)">
       <use xlink:href="#ArialMT-31"/>
       <use x="55.615234" xlink:href="#ArialMT-37"/>
       <use x="111.230469" xlink:href="#ArialMT-35"/>
      </g>
     </g>
    </g>
    <g id="xtick_9">
     <g id="text_9">
      <!-- 200 -->
      <g style="fill:#262626;" transform="translate(710.537928 547.315194)scale(0.11 -0.11)">
       <use xlink:href="#ArialMT-32"/>
       <use x="55.615234" xlink:href="#ArialMT-30"/>
       <use x="111.230469" xlink:href="#ArialMT-30"/>
      </g>
     </g>
    </g>
   </g>
   <g id="matplotlib.axis_2">
    <g id="ytick_1">
     <g id="text_10">
      <!-- −25 -->
      <g style="fill:#262626;" transform="translate(77.14125 533.878397)scale(0.11 -0.11)">
       <defs>
        <path d="M 3381 1997 
L 356 1997 
L 356 2522 
L 3381 2522 
L 3381 1997 
z
" id="ArialMT-2212" transform="scale(0.015625)"/>
       </defs>
       <use xlink:href="#ArialMT-2212"/>
       <use x="58.398438" xlink:href="#ArialMT-32"/>
       <use x="114.013672" xlink:href="#ArialMT-35"/>
      </g>
     </g>
    </g>
    <g id="ytick_2">
     <g id="text_11">
      <!-- −20 -->
      <g style="fill:#262626;" transform="translate(77.14125 442.180637)scale(0.11 -0.11)">
       <use xlink:href="#ArialMT-2212"/>
       <use x="58.398438" xlink:href="#ArialMT-32"/>
       <use x="114.013672" xlink:href="#ArialMT-30"/>
      </g>
     </g>
    </g>
    <g id="ytick_3">
     <g id="text_12">
      <!-- −15 -->
      <g style="fill:#262626;" transform="translate(77.14125 350.482877)scale(0.11 -0.11)">
       <use xlink:href="#ArialMT-2212"/>
       <use x="58.398438" xlink:href="#ArialMT-31"/>
       <use x="114.013672" xlink:href="#ArialMT-35"/>
      </g>
     </g>
    </g>
    <g id="ytick_4">
     <g id="text_13">
      <!-- −10 -->
      <g style="fill:#262626;" transform="translate(77.14125 258.785117)scale(0.11 -0.11)">
       <use xlink:href="#ArialMT-2212"/>
       <use x="58.398438" xlink:href="#ArialMT-31"/>
       <use x="114.013672" xlink:href="#ArialMT-30"/>
      </g>
     </g>
    </g>
    <g id="ytick_5">
     <g id="text_14">
      <!-- −5 -->
      <g style="fill:#262626;" transform="translate(83.258281 167.087357)scale(0.11 -0.11)">
       <use xlink:href="#ArialMT-2212"/>
       <use x="58.398438" xlink:href="#ArialMT-35"/>
      </g>
     </g>
    </g>
    <g id="ytick_6">
     <g id="text_15">
      <!-- 0 -->
      <g style="fill:#262626;" transform="translate(89.682969 75.389597)scale(0.11 -0.11)">
       <use xlink:href="#ArialMT-30"/>
      </g>
     </g>
    </g>
   </g>
   <g id="line2d_1">
    <path clip-path="url(#p0b704f58c7)" d="M 134.975455 360.802426 
L 137.899145 359.30665 
L 140.822835 361.540205 
L 143.746525 359.440133 
L 146.670215 364.649885 
L 149.593905 362.593031 
L 152.517595 364.728485 
L 155.441285 368.465967 
L 158.364975 369.788522 
L 161.288665 368.154855 
L 164.212356 372.894285 
L 167.136046 372.566068 
L 170.059736 389.94724 
L 172.983426 396.25286 
L 175.907116 406.075082 
L 178.830806 433.641007 
L 181.754496 463.453028 
L 184.678186 400.222207 
L 187.601876 407.367695 
L 190.525567 551.981503 
L 193.449257 491.188676 
L 196.372947 467.320968 
L 199.296637 528.772606 
L 202.220327 396.193534 
L 205.144017 397.085907 
L 208.067707 528.345676 
L 210.991397 329.192629 
L 213.915087 382.71787 
L 216.838777 462.976287 
L 219.762468 528.244584 
L 222.686158 551.050792 
L 225.609848 520.66601 
L 228.533538 495.605381 
L 231.457228 472.373642 
L 234.380918 351.890382 
L 237.304608 441.913373 
L 240.228298 491.934099 
L 243.151988 474.191024 
L 246.075678 337.73651 
L 248.999369 369.26064 
L 251.923059 470.799301 
L 254.846749 435.421835 
L 257.770439 422.549225 
L 260.694129 328.147377 
L 263.617819 430.391583 
L 266.541509 342.816801 
L 269.465199 361.613575 
L 272.388889 443.369203 
L 275.312579 472.545184 
L 278.23627 491.020388 
L 281.15996 471.813229 
L 284.08365 421.100531 
L 287.00734 430.253902 
L 289.93103 482.506905 
L 292.85472 447.777827 
L 295.77841 452.55339 
L 298.7021 493.857889 
L 301.62579 430.072601 
L 304.549481 426.483976 
L 307.473171 410.457471 
L 310.396861 417.61842 
L 313.320551 380.452746 
L 316.244241 423.007602 
L 319.167931 345.656611 
L 322.091621 490.322993 
L 325.015311 422.086965 
L 327.939001 369.330286 
L 330.862691 322.992963 
L 333.786382 340.568327 
L 336.710072 463.268579 
L 339.633762 539.236569 
L 342.557452 464.066646 
L 345.481142 411.75666 
L 348.404832 323.948213 
L 351.328522 382.037056 
L 354.252212 494.022365 
L 357.175902 488.581973 
L 360.099592 412.172432 
L 363.023283 466.210181 
L 365.946973 391.88964 
L 368.870663 408.49062 
L 371.794353 472.337543 
L 374.718043 505.373559 
L 377.641733 520.498386 
L 380.565423 493.174452 
L 383.489113 422.837284 
L 386.412803 396.697595 
L 389.336494 401.155961 
L 392.260184 367.135331 
L 395.183874 461.853117 
L 398.107564 450.668812 
L 401.031254 412.729557 
L 403.954944 356.34852 
L 406.878634 353.09628 
L 409.802324 297.199086 
L 412.726014 340.565196 
L 415.649704 433.666892 
L 418.573395 382.398923 
L 421.497085 391.86379 
L 424.420775 471.610066 
L 427.344465 408.77847 
L 430.268155 471.69769 
L 433.191845 491.332864 
L 436.115535 363.649582 
L 439.039225 431.534132 
L 441.962915 495.805501 
L 444.886605 434.274773 
L 447.810296 327.852584 
L 450.733986 298.196643 
L 453.657676 435.3779 
L 456.581366 435.246446 
L 459.505056 466.980648 
L 462.428746 352.152067 
L 465.352436 419.60451 
L 468.276126 476.98508 
L 471.199816 452.601698 
L 474.123506 392.160874 
L 477.047197 325.23278 
L 479.970887 316.480787 
L 482.894577 419.602061 
L 485.818267 420.343531 
L 488.741957 456.4646 
L 491.665647 398.388105 
L 494.589337 310.084149 
L 497.513027 332.196687 
L 500.436717 272.587494 
L 503.360408 254.898814 
L 506.284098 367.653768 
L 509.207788 489.459514 
L 512.131478 493.69051 
L 515.055168 524.104151 
L 517.978858 449.001564 
L 520.902548 509.35973 
L 523.826238 532.760177 
L 526.749928 462.692775 
L 529.673618 448.717108 
L 532.597309 440.672426 
L 535.520999 390.789242 
L 538.444689 375.208906 
L 541.368379 443.072503 
L 544.292069 534.242731 
L 547.215759 489.886059 
L 550.139449 534.382441 
L 553.063139 401.632912 
L 555.986829 489.36304 
L 558.910519 437.499642 
L 561.83421 434.885523 
L 564.7579 451.705827 
L 567.68159 430.532832 
L 570.60528 462.227927 
L 573.52897 477.650678 
L 576.45266 507.763177 
L 579.37635 480.358439 
L 582.30004 377.152215 
L 585.22373 342.19087 
L 588.147421 382.312208 
L 591.071111 453.815011 
L 593.994801 507.61878 
L 596.918491 410.435679 
L 599.842181 371.496662 
L 602.765871 428.730002 
L 605.689561 367.785887 
L 608.613251 381.730597 
L 611.536941 498.393665 
L 614.460631 502.152293 
L 617.384322 315.803733 
L 620.308012 363.114634 
L 623.231702 458.399549 
L 626.155392 530.614614 
L 629.079082 501.104504 
L 632.002772 421.526937 
L 634.926462 408.258563 
L 637.850152 462.768401 
L 640.773842 372.232604 
L 643.697532 332.558275 
L 646.621223 347.795056 
L 649.544913 425.492505 
L 652.468603 536.180933 
L 655.392293 448.264712 
L 658.315983 370.332775 
L 661.239673 446.055765 
L 664.163363 375.876183 
L 667.087053 427.279069 
L 670.010743 449.807467 
L 672.934433 445.040333 
L 675.858124 462.236917 
L 678.781814 459.096419 
L 681.705504 509.268118 
L 684.629194 501.034125 
L 687.552884 433.483003 
L 690.476574 489.216159 
L 693.400264 403.806844 
L 696.323954 399.345855 
L 699.247644 369.480559 
L 702.171335 376.223708 
L 705.095025 386.193895 
L 708.018715 389.401344 
L 710.942405 389.41621 
L 713.866095 387.6223 
L 716.789785 388.913479 
L 719.713475 387.37779 
L 722.637165 385.703301 
L 725.560855 391.242442 
L 728.484545 383.830966 
L 728.484545 383.830966 
" style="fill:none;stroke:#4c72b0;stroke-linecap:round;stroke-width:1.5;"/>
   </g>
   <g id="line2d_2">
    <path clip-path="url(#p0b704f58c7)" d="M 134.975455 350.981954 
L 137.899145 351.25798 
L 140.822835 352.089068 
L 143.746525 350.603453 
L 146.670215 354.274071 
L 152.517595 352.139929 
L 155.441285 353.750107 
L 158.364975 352.696459 
L 161.288665 350.626977 
L 164.212356 352.508197 
L 167.136046 349.055085 
L 170.059736 364.00942 
L 172.983426 363.829553 
L 175.907116 374.889469 
L 178.830806 402.094332 
L 181.754496 423.308744 
L 184.678186 376.723746 
L 187.601876 371.858214 
L 190.525567 533.844065 
L 193.449257 474.254793 
L 196.372947 453.736971 
L 199.296637 511.136185 
L 202.220327 421.405801 
L 205.144017 426.421187 
L 208.067707 525.165652 
L 210.991397 344.005401 
L 213.915087 348.53705 
L 216.838777 466.695632 
L 219.762468 510.324406 
L 222.686158 538.738875 
L 225.609848 490.044483 
L 228.533538 474.097103 
L 231.457228 463.652589 
L 234.380918 361.246339 
L 237.304608 421.509656 
L 240.228298 474.412167 
L 243.151988 455.969424 
L 246.075678 327.913659 
L 248.999369 372.656631 
L 251.923059 453.661449 
L 254.846749 419.646521 
L 257.770439 424.872871 
L 260.694129 341.435339 
L 263.617819 436.975678 
L 266.541509 357.137265 
L 269.465199 369.011304 
L 272.388889 462.683785 
L 275.312579 488.927575 
L 278.23627 498.404264 
L 281.15996 487.714471 
L 284.08365 415.407759 
L 287.00734 423.983261 
L 289.93103 487.121072 
L 292.85472 459.298219 
L 295.77841 423.849218 
L 298.7021 487.760539 
L 301.62579 426.840981 
L 304.549481 424.434747 
L 307.473171 417.25295 
L 310.396861 402.988384 
L 313.320551 377.674605 
L 316.244241 437.572505 
L 319.167931 370.841453 
L 322.091621 455.607242 
L 325.015311 405.325637 
L 327.939001 382.873531 
L 330.862691 333.038619 
L 333.786382 301.465342 
L 336.710072 474.926232 
L 339.633762 545.149085 
L 342.557452 453.474482 
L 345.481142 408.56978 
L 348.404832 329.112053 
L 351.328522 456.528683 
L 354.252212 394.994877 
L 360.099592 229.897563 
L 363.023283 270.296274 
L 365.946973 315.509185 
L 368.870663 276.030165 
L 371.794353 318.423572 
L 374.718043 369.291843 
L 377.641733 409.331048 
L 380.565423 418.255055 
L 383.489113 351.054047 
L 386.412803 384.82688 
L 389.336494 366.26552 
L 392.260184 313.017128 
L 395.183874 412.742779 
L 398.107564 391.87285 
L 401.031254 351.922039 
L 403.954944 319.835169 
L 406.878634 277.910161 
L 409.802324 261.545925 
L 412.726014 343.503107 
L 415.649704 414.398589 
L 418.573395 360.357586 
L 421.497085 386.109103 
L 424.420775 429.707515 
L 427.344465 377.677579 
L 430.268155 431.751987 
L 433.191845 435.554584 
L 436.115535 324.536767 
L 439.039225 418.755198 
L 441.962915 494.374787 
L 444.886605 384.292246 
L 447.810296 286.084933 
L 450.733986 297.720199 
L 453.657676 396.834821 
L 456.581366 428.892273 
L 459.505056 439.345253 
L 462.428746 332.523522 
L 465.352436 408.515841 
L 468.276126 448.360732 
L 471.199816 471.362968 
L 474.123506 381.387829 
L 477.047197 346.465784 
L 479.970887 291.998953 
L 482.894577 399.731019 
L 485.818267 418.608632 
L 488.741957 457.916127 
L 491.665647 410.012247 
L 494.589337 306.00521 
L 497.513027 317.150985 
L 500.436717 270.898611 
L 503.360408 257.947856 
L 506.284098 362.738495 
L 509.207788 459.323684 
L 512.131478 467.670312 
L 515.055168 518.590511 
L 517.978858 459.147525 
L 520.902548 503.874914 
L 523.826238 527.947325 
L 526.749928 468.304009 
L 529.673618 447.035098 
L 532.597309 428.781877 
L 535.520999 369.4361 
L 538.444689 320.128458 
L 541.368379 357.853514 
L 544.292069 513.421494 
L 547.215759 441.980815 
L 550.139449 479.872743 
L 553.063139 381.561679 
L 555.986829 397.388134 
L 558.910519 381.313951 
L 561.83421 367.471453 
L 564.7579 404.605785 
L 567.68159 379.192104 
L 570.60528 430.678243 
L 573.52897 297.466507 
L 576.45266 339.190747 
L 579.37635 371.052207 
L 582.30004 223.483803 
L 585.22373 264.589668 
L 588.147421 318.199752 
L 591.071111 414.336604 
L 593.994801 503.735764 
L 596.918491 403.400097 
L 599.842181 408.475474 
L 602.765871 418.685588 
L 605.689561 379.5999 
L 608.613251 400.950384 
L 611.536941 489.469938 
L 614.460631 504.302194 
L 617.384322 369.311711 
L 620.308012 378.61546 
L 623.231702 463.271063 
L 626.155392 541.737074 
L 629.079082 493.529533 
L 632.002772 440.370584 
L 634.926462 416.238427 
L 637.850152 438.758115 
L 640.773842 380.258957 
L 643.697532 302.122842 
L 646.621223 355.159465 
L 649.544913 434.919034 
L 652.468603 527.599869 
L 655.392293 456.980764 
L 658.315983 357.564825 
L 661.239673 447.980151 
L 664.163363 352.193483 
L 667.087053 420.787321 
L 670.010743 448.61703 
L 672.934433 424.436776 
L 675.858124 454.108318 
L 678.781814 472.548612 
L 681.705504 497.002059 
L 684.629194 492.59382 
L 687.552884 411.998896 
L 690.476574 464.389196 
L 693.400264 415.834794 
L 696.323954 413.555887 
L 699.247644 379.340559 
L 702.171335 363.523531 
L 705.095025 372.61448 
L 708.018715 375.103896 
L 710.942405 375.174416 
L 713.866095 374.719782 
L 716.789785 376.571758 
L 719.713475 375.475033 
L 722.637165 372.783818 
L 725.560855 375.969964 
L 728.484545 371.389693 
L 728.484545 371.389693 
" style="fill:none;stroke:#dd8452;stroke-dasharray:6,2.25;stroke-dashoffset:0;stroke-width:1.5;"/>
   </g>
   <g id="line2d_3">
    <path clip-path="url(#p0b704f58c7)" d="M 134.975455 341.393888 
L 137.899145 341.222818 
L 140.822835 343.345382 
L 143.746525 339.710986 
L 146.670215 350.084176 
L 149.593905 348.445087 
L 152.517595 349.638462 
L 155.441285 369.447258 
L 158.364975 369.013367 
L 161.288665 362.168829 
L 164.212356 365.824703 
L 167.136046 356.591281 
L 170.059736 357.413397 
L 172.983426 360.081402 
L 175.907116 376.887697 
L 178.830806 391.798063 
L 181.754496 419.070717 
L 184.678186 306.961194 
L 187.601876 322.117906 
L 190.525567 374.695785 
L 193.449257 403.948408 
L 196.372947 422.976679 
L 199.296637 452.543106 
L 202.220327 418.982637 
L 205.144017 339.710094 
L 208.067707 322.159969 
L 210.991397 269.606855 
L 213.915087 347.708498 
L 216.838777 441.339423 
L 219.762468 440.672566 
L 222.686158 471.201535 
L 225.609848 424.137488 
L 228.533538 430.587085 
L 231.457228 448.371891 
L 234.380918 345.173678 
L 237.304608 434.441243 
L 240.228298 468.154504 
L 243.151988 463.847322 
L 246.075678 303.025201 
L 248.999369 382.183622 
L 251.923059 438.586119 
L 254.846749 462.854032 
L 257.770439 448.240786 
L 260.694129 312.657359 
L 263.617819 424.091279 
L 266.541509 337.502092 
L 269.465199 358.926226 
L 272.388889 383.656661 
L 275.312579 403.220371 
L 278.23627 436.035418 
L 281.15996 415.50168 
L 284.08365 399.352571 
L 287.00734 299.457162 
L 289.93103 392.297471 
L 292.85472 377.84947 
L 295.77841 417.788213 
L 298.7021 521.914408 
L 304.549481 451.152899 
L 307.473171 440.143844 
L 310.396861 455.318903 
L 313.320551 398.471567 
L 316.244241 458.156194 
L 319.167931 387.323012 
L 322.091621 503.583741 
L 325.015311 429.603275 
L 327.939001 389.961197 
L 330.862691 372.61455 
L 333.786382 345.501177 
L 336.710072 484.895089 
L 339.633762 588.623668 
L 342.557452 490.440526 
L 345.481142 441.642174 
L 348.404832 346.140838 
L 351.328522 465.564381 
L 354.252212 553.81508 
L 357.175902 537.218053 
L 360.099592 351.180709 
L 363.023283 208.882826 
L 365.946973 301.6769 
L 368.870663 342.501352 
L 371.794353 267.349164 
L 374.718043 338.437805 
L 377.641733 378.367033 
L 380.565423 360.723529 
L 383.489113 307.21228 
L 386.412803 367.7111 
L 389.336494 374.221283 
L 392.260184 333.376245 
L 395.183874 388.583968 
L 398.107564 470.536392 
L 401.031254 393.388075 
L 403.954944 364.171867 
L 406.878634 318.351268 
L 409.802324 360.003572 
L 412.726014 383.02391 
L 415.649704 479.170381 
L 418.573395 415.117146 
L 421.497085 395.005476 
L 424.420775 447.472242 
L 427.344465 386.4376 
L 430.268155 388.740783 
L 433.191845 326.214212 
L 436.115535 311.097937 
L 439.039225 352.223846 
L 441.962915 373.755105 
L 444.886605 376.401756 
L 447.810296 335.545892 
L 450.733986 276.018202 
L 453.657676 346.367175 
L 456.581366 419.567641 
L 459.505056 457.198969 
L 462.428746 334.620009 
L 465.352436 409.947919 
L 468.276126 449.530776 
L 471.199816 429.311927 
L 474.123506 342.598631 
L 477.047197 355.069147 
L 479.970887 305.797919 
L 482.894577 368.501296 
L 485.818267 385.249752 
L 488.741957 440.768726 
L 491.665647 348.908641 
L 494.589337 207.387653 
L 497.513027 214.130076 
L 500.436717 127.364791 
L 503.360408 176.537734 
L 506.284098 265.578515 
L 509.207788 409.895484 
L 512.131478 406.810919 
L 515.055168 287.552848 
L 517.978858 310.233566 
L 520.902548 344.958866 
L 523.826238 388.914738 
L 526.749928 438.120291 
L 529.673618 318.633748 
L 532.597309 315.92632 
L 535.520999 338.369821 
L 538.444689 338.904752 
L 541.368379 392.772673 
L 544.292069 467.445007 
L 547.215759 387.925261 
L 550.139449 399.932678 
L 553.063139 289.650699 
L 555.986829 317.599917 
L 558.910519 410.220657 
L 561.83421 351.765416 
L 564.7579 362.196043 
L 567.68159 398.617153 
L 570.60528 370.454435 
L 573.52897 387.945374 
L 576.45266 466.949096 
L 579.37635 386.465689 
L 582.30004 223.813156 
L 585.22373 300.569786 
L 588.147421 369.146186 
L 591.071111 204.28273 
L 593.994801 321.554624 
L 596.918491 334.477606 
L 599.842181 331.08144 
L 602.765871 325.614184 
L 605.689561 363.489723 
L 608.613251 379.081848 
L 611.536941 454.123044 
L 614.460631 466.118988 
L 617.384322 313.494271 
L 620.308012 363.648165 
L 623.231702 453.871364 
L 626.155392 508.525634 
L 629.079082 482.262955 
L 632.002772 452.386466 
L 634.926462 419.804945 
L 637.850152 436.026253 
L 640.773842 371.582398 
L 643.697532 347.145881 
L 646.621223 352.787547 
L 649.544913 399.976927 
L 652.468603 413.582227 
L 655.392293 476.057168 
L 658.315983 372.005165 
L 661.239673 347.643977 
L 664.163363 246.815339 
L 667.087053 331.304297 
L 670.010743 306.686164 
L 672.934433 351.099329 
L 675.858124 535.841033 
L 678.781814 477.138642 
L 681.705504 440.094872 
L 684.629194 415.162025 
L 687.552884 395.757405 
L 690.476574 390.214032 
L 693.400264 387.734131 
L 696.323954 401.709833 
L 699.247644 371.44713 
L 702.171335 361.521666 
L 705.095025 376.897981 
L 708.018715 382.088931 
L 710.942405 385.614312 
L 713.866095 383.849086 
L 716.789785 386.763823 
L 719.713475 385.057852 
L 722.637165 386.752734 
L 725.560855 388.80644 
L 728.484545 383.718506 
L 728.484545 383.718506 
" style="fill:none;stroke:#55a868;stroke-dasharray:1.5,1.5;stroke-dashoffset:0;stroke-width:1.5;"/>
   </g>
   <g id="line2d_4">
    <path clip-path="url(#p0b704f58c7)" d="M 134.975455 351.788888 
L 137.899145 352.113624 
L 140.822835 353.10513 
L 143.746525 351.384625 
L 146.670215 355.305612 
L 152.517595 353.293357 
L 155.441285 355.030162 
L 158.364975 354.0927 
L 161.288665 351.992383 
L 164.212356 353.757295 
L 167.136046 350.325241 
L 170.059736 365.066513 
L 172.983426 364.809498 
L 175.907116 375.799717 
L 178.830806 403.140127 
L 181.754496 425.00471 
L 184.678186 378.805926 
L 187.601876 372.464731 
L 190.525567 534.81 
L 193.449257 476.670331 
L 196.372947 454.630043 
L 199.296637 512.95668 
L 202.220327 423.527368 
L 205.144017 425.437866 
L 208.067707 528.532889 
L 210.991397 336.870529 
L 213.915087 366.026467 
L 216.838777 461.718304 
L 219.762468 512.335787 
L 222.686158 539.916894 
L 225.609848 490.418699 
L 228.533538 475.513125 
L 231.457228 465.634516 
L 234.380918 360.580688 
L 237.304608 427.022562 
L 240.228298 478.592128 
L 243.151988 459.126782 
L 246.075678 330.42046 
L 248.999369 375.298314 
L 251.923059 456.85746 
L 254.846749 424.529823 
L 257.770439 425.925906 
L 260.694129 345.425656 
L 263.617819 438.526093 
L 266.541509 352.494503 
L 269.465199 371.083409 
L 272.388889 465.353662 
L 275.312579 496.294346 
L 278.23627 501.313684 
L 281.15996 480.536801 
L 284.08365 410.291911 
L 287.00734 428.363272 
L 289.93103 488.122757 
L 292.85472 451.182143 
L 295.77841 425.348877 
L 298.7021 489.899072 
L 301.62579 431.411562 
L 304.549481 432.923289 
L 307.473171 421.714884 
L 310.396861 409.405905 
L 313.320551 378.407784 
L 316.244241 440.264 
L 319.167931 369.720766 
L 322.091621 494.442299 
L 325.015311 408.576986 
L 327.939001 377.500825 
L 330.862691 344.182259 
L 333.786382 307.702716 
L 336.710072 482.714966 
L 339.633762 572.829885 
L 342.557452 470.791641 
L 345.481142 399.446247 
L 348.404832 313.650177 
L 351.328522 424.223119 
L 354.252212 423.249628 
L 357.175902 457.928125 
L 360.099592 311.222465 
L 363.023283 436.024154 
L 365.946973 325.570634 
L 368.870663 296.578892 
L 371.794353 360.770105 
L 374.718043 405.491652 
L 377.641733 409.876874 
L 380.565423 424.40435 
L 383.489113 345.067269 
L 386.412803 389.387072 
L 389.336494 369.389402 
L 392.260184 314.919633 
L 395.183874 418.72494 
L 398.107564 400.207445 
L 401.031254 360.954781 
L 403.954944 314.990817 
L 406.878634 272.89439 
L 409.802324 260.813306 
L 412.726014 342.685084 
L 415.649704 417.159379 
L 418.573395 358.125658 
L 421.497085 390.323134 
L 424.420775 437.446018 
L 427.344465 380.522635 
L 430.268155 429.274219 
L 433.191845 431.261673 
L 436.115535 322.586374 
L 439.039225 415.547364 
L 441.962915 492.281799 
L 444.886605 380.899999 
L 447.810296 281.832057 
L 450.733986 292.904671 
L 453.657676 400.524223 
L 456.581366 427.265847 
L 459.505056 435.402036 
L 462.428746 325.662578 
L 465.352436 414.19511 
L 468.276126 452.257215 
L 471.199816 467.689831 
L 474.123506 387.439145 
L 477.047197 353.758799 
L 479.970887 290.727486 
L 482.894577 395.500547 
L 485.818267 416.935507 
L 488.741957 456.669163 
L 491.665647 412.974241 
L 494.589337 307.426654 
L 497.513027 321.708116 
L 500.436717 272.729338 
L 503.360408 259.282952 
L 509.207788 464.345891 
L 512.131478 466.645926 
L 515.055168 513.836915 
L 517.978858 447.28552 
L 520.902548 497.085172 
L 523.826238 531.000792 
L 526.749928 465.199786 
L 529.673618 435.510859 
L 532.597309 425.2495 
L 538.444689 340.95015 
L 541.368379 376.696952 
L 544.292069 509.368125 
L 547.215759 431.035388 
L 550.139449 483.967142 
L 553.063139 331.682028 
L 555.986829 425.934336 
L 558.910519 435.993232 
L 561.83421 379.145721 
L 564.7579 330.341213 
L 567.68159 322.605386 
L 570.60528 381.917775 
L 573.52897 393.435543 
L 576.45266 385.803939 
L 579.37635 374.161117 
L 582.30004 194.14506 
L 585.22373 306.629375 
L 588.147421 327.006245 
L 591.071111 424.398333 
L 593.994801 540.11439 
L 596.918491 430.742326 
L 599.842181 402.083418 
L 602.765871 442.36304 
L 605.689561 382.637836 
L 608.613251 410.403007 
L 611.536941 494.625069 
L 614.460631 511.201353 
L 617.384322 368.210508 
L 620.308012 381.509594 
L 623.231702 468.061948 
L 626.155392 540.641398 
L 629.079082 495.555954 
L 632.002772 438.959599 
L 634.926462 418.430724 
L 637.850152 438.990871 
L 640.773842 384.299557 
L 643.697532 301.389453 
L 646.621223 355.537791 
L 649.544913 434.608622 
L 652.468603 529.472065 
L 655.392293 458.009383 
L 658.315983 357.026064 
L 661.239673 448.065852 
L 664.163363 351.597478 
L 667.087053 420.789175 
L 670.010743 449.730406 
L 672.934433 427.645764 
L 675.858124 453.559623 
L 678.781814 473.123542 
L 681.705504 494.152175 
L 684.629194 491.734293 
L 687.552884 411.659871 
L 690.476574 465.085471 
L 693.400264 415.125716 
L 696.323954 413.069317 
L 699.247644 379.434095 
L 702.171335 363.012387 
L 705.095025 372.682341 
L 708.018715 375.787998 
L 710.942405 376.880141 
L 713.866095 376.668583 
L 716.789785 377.994357 
L 719.713475 376.599183 
L 722.637165 374.6012 
L 725.560855 378.028392 
L 728.484545 373.572825 
L 728.484545 373.572825 
" style="fill:none;stroke:#c44e52;stroke-dasharray:4.5,1.875,2.25,1.875;stroke-dashoffset:0;stroke-width:1.5;"/>
   </g>
   <g id="line2d_5">
    <path clip-path="url(#p0b704f58c7)" d="M 134.975455 352.801854 
L 137.899145 353.102226 
L 140.822835 354.297683 
L 143.746525 352.513427 
L 146.670215 356.388048 
L 149.593905 355.851631 
L 152.517595 355.567838 
L 155.441285 357.422614 
L 158.364975 356.371625 
L 161.288665 354.379571 
L 164.212356 355.201669 
L 167.136046 351.307319 
L 170.059736 363.54758 
L 172.983426 363.752248 
L 175.907116 373.457706 
L 178.830806 401.389627 
L 181.754496 431.545955 
L 184.678186 377.676704 
L 187.601876 385.027734 
L 190.525567 536.41229 
L 193.449257 484.778361 
L 196.372947 466.976066 
L 199.296637 530.205733 
L 202.220327 421.757104 
L 205.144017 413.819461 
L 208.067707 530.477597 
L 210.991397 345.155208 
L 213.915087 356.885112 
L 216.838777 461.57793 
L 219.762468 507.24306 
L 222.686158 543.522904 
L 225.609848 507.733339 
L 228.533538 480.035364 
L 231.457228 469.386987 
L 234.380918 361.604953 
L 237.304608 427.926688 
L 240.228298 478.103633 
L 243.151988 460.705251 
L 246.075678 327.895434 
L 248.999369 370.070146 
L 251.923059 464.705484 
L 254.846749 427.192774 
L 257.770439 427.681059 
L 260.694129 343.822543 
L 263.617819 438.839373 
L 266.541509 351.404581 
L 269.465199 372.871198 
L 272.388889 461.60294 
L 275.312579 494.299476 
L 278.23627 506.734802 
L 281.15996 494.216084 
L 284.08365 425.481521 
L 287.00734 436.856851 
L 289.93103 492.23601 
L 292.85472 458.190894 
L 295.77841 428.470276 
L 298.7021 487.647764 
L 301.62579 427.542573 
L 304.549481 429.866779 
L 307.473171 414.575832 
L 310.396861 416.611453 
L 313.320551 386.911508 
L 316.244241 430.469693 
L 319.167931 353.506664 
L 322.091621 481.561678 
L 325.015311 414.091605 
L 327.939001 383.49432 
L 330.862691 303.845393 
L 333.786382 242.073321 
L 336.710072 380.704496 
L 339.633762 485.002513 
L 342.557452 421.79971 
L 345.481142 407.039163 
L 348.404832 275.738135 
L 351.328522 339.148981 
L 354.252212 523.735148 
L 357.175902 495.556864 
L 360.099592 414.617388 
L 363.023283 480.000139 
L 365.946973 389.019713 
L 368.870663 397.327828 
L 371.794353 421.351407 
L 374.718043 453.024535 
L 377.641733 493.394685 
L 380.565423 469.193023 
L 383.489113 400.218149 
L 386.412803 378.348004 
L 389.336494 371.651763 
L 392.260184 349.560142 
L 395.183874 462.947918 
L 398.107564 415.352841 
L 401.031254 402.955712 
L 403.954944 348.492153 
L 406.878634 319.856559 
L 409.802324 331.380798 
L 412.726014 381.357606 
L 415.649704 466.56834 
L 418.573395 381.060452 
L 421.497085 414.382323 
L 424.420775 452.322208 
L 427.344465 375.292088 
L 430.268155 423.204119 
L 433.191845 440.463736 
L 436.115535 331.647765 
L 441.962915 491.65258 
L 444.886605 393.097392 
L 447.810296 306.068192 
L 450.733986 300.326815 
L 453.657676 388.70241 
L 456.581366 432.777143 
L 459.505056 425.046021 
L 462.428746 322.007754 
L 465.352436 418.022193 
L 468.276126 458.486929 
L 471.199816 463.560067 
L 474.123506 387.051917 
L 477.047197 336.436656 
L 479.970887 296.735007 
L 482.894577 397.521687 
L 485.818267 418.234592 
L 488.741957 465.142873 
L 491.665647 515.036866 
L 494.589337 382.878708 
L 497.513027 469.084201 
L 500.436717 421.312859 
L 503.360408 396.446369 
L 506.284098 466.7169 
L 509.207788 435.544754 
L 512.131478 460.33149 
L 515.055168 445.595255 
L 517.978858 507.22662 
L 520.902548 476.975985 
L 523.826238 359.462538 
L 526.749928 365.31592 
L 529.673618 380.431443 
L 532.597309 403.571219 
L 535.520999 488.066439 
L 538.444689 401.449757 
L 541.368379 309.997609 
L 544.292069 251.749904 
L 547.215759 291.444959 
L 550.139449 267.140474 
L 553.063139 285.552574 
L 555.986829 312.671631 
L 558.910519 290.314408 
L 561.83421 295.775245 
L 564.7579 290.179998 
L 567.68159 303.266772 
L 570.60528 329.934956 
L 573.52897 346.45522 
L 576.45266 401.080054 
L 579.37635 421.358998 
L 582.30004 230.001191 
L 585.22373 301.016724 
L 588.147421 334.341936 
L 591.071111 388.1888 
L 593.994801 492.703727 
L 596.918491 412.835896 
L 599.842181 373.447247 
L 602.765871 441.303988 
L 605.689561 384.422722 
L 608.613251 405.370027 
L 611.536941 488.177955 
L 614.460631 503.292393 
L 617.384322 358.571074 
L 620.308012 384.136481 
L 626.155392 543.125881 
L 629.079082 502.106259 
L 632.002772 446.950237 
L 634.926462 419.844227 
L 637.850152 440.849949 
L 640.773842 381.278936 
L 643.697532 300.982846 
L 646.621223 339.641324 
L 649.544913 415.339374 
L 652.468603 515.408948 
L 655.392293 446.470208 
L 658.315983 353.329683 
L 661.239673 437.181325 
L 664.163363 344.977038 
L 667.087053 413.892429 
L 670.010743 446.674141 
L 672.934433 433.875198 
L 675.858124 449.382496 
L 678.781814 456.714322 
L 681.705504 490.769022 
L 684.629194 478.463192 
L 687.552884 399.330359 
L 690.476574 447.0415 
L 693.400264 402.483693 
L 696.323954 402.741111 
L 699.247644 373.311525 
L 702.171335 355.990238 
L 705.095025 366.323027 
L 708.018715 368.343607 
L 710.942405 369.290129 
L 713.866095 369.155981 
L 716.789785 369.732974 
L 719.713475 369.369183 
L 722.637165 365.621924 
L 725.560855 369.670745 
L 728.484545 365.426736 
L 728.484545 365.426736 
" style="fill:none;stroke:#8172b3;stroke-dasharray:7.5,1.5,1.5,1.5;stroke-dashoffset:0;stroke-width:1.5;"/>
   </g>
   <g id="line2d_6"/>
   <g id="line2d_7"/>
   <g id="line2d_8"/>
   <g id="line2d_9"/>
   <g id="line2d_10"/>
   <g id="patch_3">
    <path d="M 105.3 529.9416 
L 105.3 71.4528 
" style="fill:none;stroke:#262626;stroke-linecap:square;stroke-linejoin:miter;stroke-width:1.25;"/>
   </g>
   <g id="patch_4">
    <path d="M 758.16 529.9416 
L 758.16 71.4528 
" style="fill:none;stroke:#262626;stroke-linecap:square;stroke-linejoin:miter;stroke-width:1.25;"/>
   </g>
   <g id="patch_5">
    <path d="M 105.3 529.9416 
L 758.16 529.9416 
" style="fill:none;stroke:#262626;stroke-linecap:square;stroke-linejoin:miter;stroke-width:1.25;"/>
   </g>
   <g id="patch_6">
    <path d="M 105.3 71.4528 
L 758.16 71.4528 
" style="fill:none;stroke:#262626;stroke-linecap:square;stroke-linejoin:miter;stroke-width:1.25;"/>
   </g>
   <g id="text_16">
    <!-- Activations for &gt;K&lt; -->
    <g style="fill:#262626;" transform="translate(381.372187 65.4528)scale(0.12 -0.12)">
     <defs>
      <path d="M -9 0 
L 1750 4581 
L 2403 4581 
L 4278 0 
L 3588 0 
L 3053 1388 
L 1138 1388 
L 634 0 
L -9 0 
z
M 1313 1881 
L 2866 1881 
L 2388 3150 
Q 2169 3728 2063 4100 
Q 1975 3659 1816 3225 
L 1313 1881 
z
" id="ArialMT-41" transform="scale(0.015625)"/>
      <path d="M 2588 1216 
L 3141 1144 
Q 3050 572 2676 248 
Q 2303 -75 1759 -75 
Q 1078 -75 664 370 
Q 250 816 250 1647 
Q 250 2184 428 2587 
Q 606 2991 970 3192 
Q 1334 3394 1763 3394 
Q 2303 3394 2647 3120 
Q 2991 2847 3088 2344 
L 2541 2259 
Q 2463 2594 2264 2762 
Q 2066 2931 1784 2931 
Q 1359 2931 1093 2626 
Q 828 2322 828 1663 
Q 828 994 1084 691 
Q 1341 388 1753 388 
Q 2084 388 2306 591 
Q 2528 794 2588 1216 
z
" id="ArialMT-63" transform="scale(0.015625)"/>
      <path d="M 1650 503 
L 1731 6 
Q 1494 -44 1306 -44 
Q 1000 -44 831 53 
Q 663 150 594 308 
Q 525 466 525 972 
L 525 2881 
L 113 2881 
L 113 3319 
L 525 3319 
L 525 4141 
L 1084 4478 
L 1084 3319 
L 1650 3319 
L 1650 2881 
L 1084 2881 
L 1084 941 
Q 1084 700 1114 631 
Q 1144 563 1211 522 
Q 1278 481 1403 481 
Q 1497 481 1650 503 
z
" id="ArialMT-74" transform="scale(0.015625)"/>
      <path d="M 425 3934 
L 425 4581 
L 988 4581 
L 988 3934 
L 425 3934 
z
M 425 0 
L 425 3319 
L 988 3319 
L 988 0 
L 425 0 
z
" id="ArialMT-69" transform="scale(0.015625)"/>
      <path d="M 1344 0 
L 81 3319 
L 675 3319 
L 1388 1331 
Q 1503 1009 1600 663 
Q 1675 925 1809 1294 
L 2547 3319 
L 3125 3319 
L 1869 0 
L 1344 0 
z
" id="ArialMT-76" transform="scale(0.015625)"/>
      <path d="M 2588 409 
Q 2275 144 1986 34 
Q 1697 -75 1366 -75 
Q 819 -75 525 192 
Q 231 459 231 875 
Q 231 1119 342 1320 
Q 453 1522 633 1644 
Q 813 1766 1038 1828 
Q 1203 1872 1538 1913 
Q 2219 1994 2541 2106 
Q 2544 2222 2544 2253 
Q 2544 2597 2384 2738 
Q 2169 2928 1744 2928 
Q 1347 2928 1158 2789 
Q 969 2650 878 2297 
L 328 2372 
Q 403 2725 575 2942 
Q 747 3159 1072 3276 
Q 1397 3394 1825 3394 
Q 2250 3394 2515 3294 
Q 2781 3194 2906 3042 
Q 3031 2891 3081 2659 
Q 3109 2516 3109 2141 
L 3109 1391 
Q 3109 606 3145 398 
Q 3181 191 3288 0 
L 2700 0 
Q 2613 175 2588 409 
z
M 2541 1666 
Q 2234 1541 1622 1453 
Q 1275 1403 1131 1340 
Q 988 1278 909 1158 
Q 831 1038 831 891 
Q 831 666 1001 516 
Q 1172 366 1500 366 
Q 1825 366 2078 508 
Q 2331 650 2450 897 
Q 2541 1088 2541 1459 
L 2541 1666 
z
" id="ArialMT-61" transform="scale(0.015625)"/>
      <path d="M 213 1659 
Q 213 2581 725 3025 
Q 1153 3394 1769 3394 
Q 2453 3394 2887 2945 
Q 3322 2497 3322 1706 
Q 3322 1066 3130 698 
Q 2938 331 2570 128 
Q 2203 -75 1769 -75 
Q 1072 -75 642 372 
Q 213 819 213 1659 
z
M 791 1659 
Q 791 1022 1069 705 
Q 1347 388 1769 388 
Q 2188 388 2466 706 
Q 2744 1025 2744 1678 
Q 2744 2294 2464 2611 
Q 2184 2928 1769 2928 
Q 1347 2928 1069 2612 
Q 791 2297 791 1659 
z
" id="ArialMT-6f" transform="scale(0.015625)"/>
      <path d="M 422 0 
L 422 3319 
L 928 3319 
L 928 2847 
Q 1294 3394 1984 3394 
Q 2284 3394 2536 3286 
Q 2788 3178 2913 3003 
Q 3038 2828 3088 2588 
Q 3119 2431 3119 2041 
L 3119 0 
L 2556 0 
L 2556 2019 
Q 2556 2363 2490 2533 
Q 2425 2703 2258 2804 
Q 2091 2906 1866 2906 
Q 1506 2906 1245 2678 
Q 984 2450 984 1813 
L 984 0 
L 422 0 
z
" id="ArialMT-6e" transform="scale(0.015625)"/>
      <path d="M 197 991 
L 753 1078 
Q 800 744 1014 566 
Q 1228 388 1613 388 
Q 2000 388 2187 545 
Q 2375 703 2375 916 
Q 2375 1106 2209 1216 
Q 2094 1291 1634 1406 
Q 1016 1563 777 1677 
Q 538 1791 414 1992 
Q 291 2194 291 2438 
Q 291 2659 392 2848 
Q 494 3038 669 3163 
Q 800 3259 1026 3326 
Q 1253 3394 1513 3394 
Q 1903 3394 2198 3281 
Q 2494 3169 2634 2976 
Q 2775 2784 2828 2463 
L 2278 2388 
Q 2241 2644 2061 2787 
Q 1881 2931 1553 2931 
Q 1166 2931 1000 2803 
Q 834 2675 834 2503 
Q 834 2394 903 2306 
Q 972 2216 1119 2156 
Q 1203 2125 1616 2013 
Q 2213 1853 2448 1751 
Q 2684 1650 2818 1456 
Q 2953 1263 2953 975 
Q 2953 694 2789 445 
Q 2625 197 2315 61 
Q 2006 -75 1616 -75 
Q 969 -75 630 194 
Q 291 463 197 991 
z
" id="ArialMT-73" transform="scale(0.015625)"/>
      <path id="ArialMT-20" transform="scale(0.015625)"/>
      <path d="M 556 0 
L 556 2881 
L 59 2881 
L 59 3319 
L 556 3319 
L 556 3672 
Q 556 4006 616 4169 
Q 697 4388 901 4523 
Q 1106 4659 1475 4659 
Q 1713 4659 2000 4603 
L 1916 4113 
Q 1741 4144 1584 4144 
Q 1328 4144 1222 4034 
Q 1116 3925 1116 3625 
L 1116 3319 
L 1763 3319 
L 1763 2881 
L 1116 2881 
L 1116 0 
L 556 0 
z
" id="ArialMT-66" transform="scale(0.015625)"/>
      <path d="M 416 0 
L 416 3319 
L 922 3319 
L 922 2816 
Q 1116 3169 1280 3281 
Q 1444 3394 1641 3394 
Q 1925 3394 2219 3213 
L 2025 2691 
Q 1819 2813 1613 2813 
Q 1428 2813 1281 2702 
Q 1134 2591 1072 2394 
Q 978 2094 978 1738 
L 978 0 
L 416 0 
z
" id="ArialMT-72" transform="scale(0.015625)"/>
      <path d="M 3384 2003 
L 350 706 
L 350 1266 
L 2753 2263 
L 350 3250 
L 350 3809 
L 3384 2528 
L 3384 2003 
z
" id="ArialMT-3e" transform="scale(0.015625)"/>
      <path d="M 469 0 
L 469 4581 
L 1075 4581 
L 1075 2309 
L 3350 4581 
L 4172 4581 
L 2250 2725 
L 4256 0 
L 3456 0 
L 1825 2319 
L 1075 1588 
L 1075 0 
L 469 0 
z
" id="ArialMT-4b" transform="scale(0.015625)"/>
      <path d="M 350 2003 
L 350 2528 
L 3384 3809 
L 3384 3250 
L 978 2263 
L 3384 1266 
L 3384 706 
L 350 2003 
z
" id="ArialMT-3c" transform="scale(0.015625)"/>
     </defs>
     <use xlink:href="#ArialMT-41"/>
     <use x="66.699219" xlink:href="#ArialMT-63"/>
     <use x="116.699219" xlink:href="#ArialMT-74"/>
     <use x="144.482422" xlink:href="#ArialMT-69"/>
     <use x="166.699219" xlink:href="#ArialMT-76"/>
     <use x="216.699219" xlink:href="#ArialMT-61"/>
     <use x="272.314453" xlink:href="#ArialMT-74"/>
     <use x="300.097656" xlink:href="#ArialMT-69"/>
     <use x="322.314453" xlink:href="#ArialMT-6f"/>
     <use x="377.929688" xlink:href="#ArialMT-6e"/>
     <use x="433.544922" xlink:href="#ArialMT-73"/>
     <use x="483.544922" xlink:href="#ArialMT-20"/>
     <use x="511.328125" xlink:href="#ArialMT-66"/>
     <use x="539.111328" xlink:href="#ArialMT-6f"/>
     <use x="594.726562" xlink:href="#ArialMT-72"/>
     <use x="628.027344" xlink:href="#ArialMT-20"/>
     <use x="655.810547" xlink:href="#ArialMT-3e"/>
     <use x="714.208984" xlink:href="#ArialMT-4b"/>
     <use x="780.908203" xlink:href="#ArialMT-3c"/>
    </g>
   </g>
   <g id="legend_1">
    <g id="patch_7">
     <path d="M 640.044062 158.514363 
L 750.46 158.514363 
Q 752.66 158.514363 752.66 156.314363 
L 752.66 79.1528 
Q 752.66 76.9528 750.46 76.9528 
L 640.044062 76.9528 
Q 637.844062 76.9528 637.844062 79.1528 
L 637.844062 156.314363 
Q 637.844062 158.514363 640.044062 158.514363 
z
" style="fill:#ffffff;opacity:0.8;stroke:#cccccc;stroke-linejoin:miter;"/>
    </g>
    <g id="line2d_11">
     <path d="M 642.244062 85.376394 
L 664.244062 85.376394 
" style="fill:none;stroke:#4c72b0;stroke-linecap:round;stroke-width:1.5;"/>
    </g>
    <g id="line2d_12"/>
    <g id="text_17">
     <!-- regular -->
     <g style="fill:#262626;" transform="translate(673.044062 89.226394)scale(0.11 -0.11)">
      <defs>
       <path d="M 2694 1069 
L 3275 997 
Q 3138 488 2766 206 
Q 2394 -75 1816 -75 
Q 1088 -75 661 373 
Q 234 822 234 1631 
Q 234 2469 665 2931 
Q 1097 3394 1784 3394 
Q 2450 3394 2872 2941 
Q 3294 2488 3294 1666 
Q 3294 1616 3291 1516 
L 816 1516 
Q 847 969 1125 678 
Q 1403 388 1819 388 
Q 2128 388 2347 550 
Q 2566 713 2694 1069 
z
M 847 1978 
L 2700 1978 
Q 2663 2397 2488 2606 
Q 2219 2931 1791 2931 
Q 1403 2931 1139 2672 
Q 875 2413 847 1978 
z
" id="ArialMT-65" transform="scale(0.015625)"/>
       <path d="M 319 -275 
L 866 -356 
Q 900 -609 1056 -725 
Q 1266 -881 1628 -881 
Q 2019 -881 2231 -725 
Q 2444 -569 2519 -288 
Q 2563 -116 2559 434 
Q 2191 0 1641 0 
Q 956 0 581 494 
Q 206 988 206 1678 
Q 206 2153 378 2554 
Q 550 2956 876 3175 
Q 1203 3394 1644 3394 
Q 2231 3394 2613 2919 
L 2613 3319 
L 3131 3319 
L 3131 450 
Q 3131 -325 2973 -648 
Q 2816 -972 2473 -1159 
Q 2131 -1347 1631 -1347 
Q 1038 -1347 672 -1080 
Q 306 -813 319 -275 
z
M 784 1719 
Q 784 1066 1043 766 
Q 1303 466 1694 466 
Q 2081 466 2343 764 
Q 2606 1063 2606 1700 
Q 2606 2309 2336 2618 
Q 2066 2928 1684 2928 
Q 1309 2928 1046 2623 
Q 784 2319 784 1719 
z
" id="ArialMT-67" transform="scale(0.015625)"/>
       <path d="M 2597 0 
L 2597 488 
Q 2209 -75 1544 -75 
Q 1250 -75 995 37 
Q 741 150 617 320 
Q 494 491 444 738 
Q 409 903 409 1263 
L 409 3319 
L 972 3319 
L 972 1478 
Q 972 1038 1006 884 
Q 1059 663 1231 536 
Q 1403 409 1656 409 
Q 1909 409 2131 539 
Q 2353 669 2445 892 
Q 2538 1116 2538 1541 
L 2538 3319 
L 3100 3319 
L 3100 0 
L 2597 0 
z
" id="ArialMT-75" transform="scale(0.015625)"/>
       <path d="M 409 0 
L 409 4581 
L 972 4581 
L 972 0 
L 409 0 
z
" id="ArialMT-6c" transform="scale(0.015625)"/>
      </defs>
      <use xlink:href="#ArialMT-72"/>
      <use x="33.300781" xlink:href="#ArialMT-65"/>
      <use x="88.916016" xlink:href="#ArialMT-67"/>
      <use x="144.53125" xlink:href="#ArialMT-75"/>
      <use x="200.146484" xlink:href="#ArialMT-6c"/>
      <use x="222.363281" xlink:href="#ArialMT-61"/>
      <use x="277.978516" xlink:href="#ArialMT-72"/>
     </g>
    </g>
    <g id="line2d_13">
     <path d="M 642.244062 101.0978 
L 664.244062 101.0978 
" style="fill:none;stroke:#dd8452;stroke-dasharray:6,2.25;stroke-dashoffset:0;stroke-width:1.5;"/>
    </g>
    <g id="line2d_14"/>
    <g id="text_18">
     <!-- splitted_3s -->
     <g style="fill:#262626;" transform="translate(673.044062 104.9478)scale(0.11 -0.11)">
      <defs>
       <path d="M 422 -1272 
L 422 3319 
L 934 3319 
L 934 2888 
Q 1116 3141 1344 3267 
Q 1572 3394 1897 3394 
Q 2322 3394 2647 3175 
Q 2972 2956 3137 2557 
Q 3303 2159 3303 1684 
Q 3303 1175 3120 767 
Q 2938 359 2589 142 
Q 2241 -75 1856 -75 
Q 1575 -75 1351 44 
Q 1128 163 984 344 
L 984 -1272 
L 422 -1272 
z
M 931 1641 
Q 931 1000 1190 694 
Q 1450 388 1819 388 
Q 2194 388 2461 705 
Q 2728 1022 2728 1688 
Q 2728 2322 2467 2637 
Q 2206 2953 1844 2953 
Q 1484 2953 1207 2617 
Q 931 2281 931 1641 
z
" id="ArialMT-70" transform="scale(0.015625)"/>
       <path d="M 2575 0 
L 2575 419 
Q 2259 -75 1647 -75 
Q 1250 -75 917 144 
Q 584 363 401 755 
Q 219 1147 219 1656 
Q 219 2153 384 2558 
Q 550 2963 881 3178 
Q 1213 3394 1622 3394 
Q 1922 3394 2156 3267 
Q 2391 3141 2538 2938 
L 2538 4581 
L 3097 4581 
L 3097 0 
L 2575 0 
z
M 797 1656 
Q 797 1019 1065 703 
Q 1334 388 1700 388 
Q 2069 388 2326 689 
Q 2584 991 2584 1609 
Q 2584 2291 2321 2609 
Q 2059 2928 1675 2928 
Q 1300 2928 1048 2622 
Q 797 2316 797 1656 
z
" id="ArialMT-64" transform="scale(0.015625)"/>
       <path d="M -97 -1272 
L -97 -866 
L 3631 -866 
L 3631 -1272 
L -97 -1272 
z
" id="ArialMT-5f" transform="scale(0.015625)"/>
       <path d="M 269 1209 
L 831 1284 
Q 928 806 1161 595 
Q 1394 384 1728 384 
Q 2125 384 2398 659 
Q 2672 934 2672 1341 
Q 2672 1728 2419 1979 
Q 2166 2231 1775 2231 
Q 1616 2231 1378 2169 
L 1441 2663 
Q 1497 2656 1531 2656 
Q 1891 2656 2178 2843 
Q 2466 3031 2466 3422 
Q 2466 3731 2256 3934 
Q 2047 4138 1716 4138 
Q 1388 4138 1169 3931 
Q 950 3725 888 3313 
L 325 3413 
Q 428 3978 793 4289 
Q 1159 4600 1703 4600 
Q 2078 4600 2393 4439 
Q 2709 4278 2876 4000 
Q 3044 3722 3044 3409 
Q 3044 3113 2884 2869 
Q 2725 2625 2413 2481 
Q 2819 2388 3044 2092 
Q 3269 1797 3269 1353 
Q 3269 753 2831 336 
Q 2394 -81 1725 -81 
Q 1122 -81 723 278 
Q 325 638 269 1209 
z
" id="ArialMT-33" transform="scale(0.015625)"/>
      </defs>
      <use xlink:href="#ArialMT-73"/>
      <use x="50" xlink:href="#ArialMT-70"/>
      <use x="105.615234" xlink:href="#ArialMT-6c"/>
      <use x="127.832031" xlink:href="#ArialMT-69"/>
      <use x="150.048828" xlink:href="#ArialMT-74"/>
      <use x="177.832031" xlink:href="#ArialMT-74"/>
      <use x="205.615234" xlink:href="#ArialMT-65"/>
      <use x="261.230469" xlink:href="#ArialMT-64"/>
      <use x="316.845703" xlink:href="#ArialMT-5f"/>
      <use x="372.460938" xlink:href="#ArialMT-33"/>
      <use x="428.076172" xlink:href="#ArialMT-73"/>
     </g>
    </g>
    <g id="line2d_15">
     <path d="M 642.244062 116.6903 
L 664.244062 116.6903 
" style="fill:none;stroke:#55a868;stroke-dasharray:1.5,1.5;stroke-dashoffset:0;stroke-width:1.5;"/>
    </g>
    <g id="line2d_16"/>
    <g id="text_19">
     <!-- splitted_1s -->
     <g style="fill:#262626;" transform="translate(673.044062 120.5403)scale(0.11 -0.11)">
      <use xlink:href="#ArialMT-73"/>
      <use x="50" xlink:href="#ArialMT-70"/>
      <use x="105.615234" xlink:href="#ArialMT-6c"/>
      <use x="127.832031" xlink:href="#ArialMT-69"/>
      <use x="150.048828" xlink:href="#ArialMT-74"/>
      <use x="177.832031" xlink:href="#ArialMT-74"/>
      <use x="205.615234" xlink:href="#ArialMT-65"/>
      <use x="261.230469" xlink:href="#ArialMT-64"/>
      <use x="316.845703" xlink:href="#ArialMT-5f"/>
      <use x="372.460938" xlink:href="#ArialMT-31"/>
      <use x="428.076172" xlink:href="#ArialMT-73"/>
     </g>
    </g>
    <g id="line2d_17">
     <path d="M 642.244062 132.384206 
L 664.244062 132.384206 
" style="fill:none;stroke:#c44e52;stroke-dasharray:4.5,1.875,2.25,1.875;stroke-dashoffset:0;stroke-width:1.5;"/>
    </g>
    <g id="line2d_18"/>
    <g id="text_20">
     <!-- overlap_1f_3s -->
     <g style="fill:#262626;" transform="translate(673.044062 136.234206)scale(0.11 -0.11)">
      <use xlink:href="#ArialMT-6f"/>
      <use x="55.615234" xlink:href="#ArialMT-76"/>
      <use x="105.615234" xlink:href="#ArialMT-65"/>
      <use x="161.230469" xlink:href="#ArialMT-72"/>
      <use x="194.53125" xlink:href="#ArialMT-6c"/>
      <use x="216.748047" xlink:href="#ArialMT-61"/>
      <use x="272.363281" xlink:href="#ArialMT-70"/>
      <use x="327.978516" xlink:href="#ArialMT-5f"/>
      <use x="383.59375" xlink:href="#ArialMT-31"/>
      <use x="439.208984" xlink:href="#ArialMT-66"/>
      <use x="466.992188" xlink:href="#ArialMT-5f"/>
      <use x="522.607422" xlink:href="#ArialMT-33"/>
      <use x="578.222656" xlink:href="#ArialMT-73"/>
     </g>
    </g>
    <g id="line2d_19">
     <path d="M 642.244062 148.078113 
L 664.244062 148.078113 
" style="fill:none;stroke:#8172b3;stroke-dasharray:7.5,1.5,1.5,1.5;stroke-dashoffset:0;stroke-width:1.5;"/>
    </g>
    <g id="line2d_20"/>
    <g id="text_21">
     <!-- overlap_10f_3s -->
     <g style="fill:#262626;" transform="translate(673.044062 151.928112)scale(0.11 -0.11)">
      <use xlink:href="#ArialMT-6f"/>
      <use x="55.615234" xlink:href="#ArialMT-76"/>
      <use x="105.615234" xlink:href="#ArialMT-65"/>
      <use x="161.230469" xlink:href="#ArialMT-72"/>
      <use x="194.53125" xlink:href="#ArialMT-6c"/>
      <use x="216.748047" xlink:href="#ArialMT-61"/>
      <use x="272.363281" xlink:href="#ArialMT-70"/>
      <use x="327.978516" xlink:href="#ArialMT-5f"/>
      <use x="383.59375" xlink:href="#ArialMT-31"/>
      <use x="439.208984" xlink:href="#ArialMT-30"/>
      <use x="494.824219" xlink:href="#ArialMT-66"/>
      <use x="522.607422" xlink:href="#ArialMT-5f"/>
      <use x="578.222656" xlink:href="#ArialMT-33"/>
      <use x="633.837891" xlink:href="#ArialMT-73"/>
     </g>
    </g>
   </g>
  </g>
 </g>
 <defs>
  <clipPath id="p0b704f58c7">
   <rect height="458.4888" width="652.86" x="105.3" y="71.4528"/>
  </clipPath>
 </defs>
</svg>
