<?xml version="1.0" encoding="utf-8" standalone="no"?>
<!DOCTYPE svg PUBLIC "-//W3C//DTD SVG 1.1//EN"
  "http://www.w3.org/Graphics/SVG/1.1/DTD/svg11.dtd">
<svg height="595.44pt" version="1.1" viewBox="0 0 842.4 595.44" width="842.4pt" xmlns="http://www.w3.org/2000/svg" xmlns:xlink="http://www.w3.org/1999/xlink">
 <metadata>
  <rdf:RDF xmlns:cc="http://creativecommons.org/ns#" xmlns:dc="http://purl.org/dc/elements/1.1/" xmlns:rdf="http://www.w3.org/1999/02/22-rdf-syntax-ns#">
   <cc:Work>
    <dc:type rdf:resource="http://purl.org/dc/dcmitype/StillImage"/>
    <dc:date>2021-06-04T22:03:16.512380</dc:date>
    <dc:format>image/svg+xml</dc:format>
    <dc:creator>
     <cc:Agent>
      <dc:title>Matplotlib v3.4.1, https://matplotlib.org/</dc:title>
     </cc:Agent>
    </dc:creator>
   </cc:Work>
  </rdf:RDF>
 </metadata>
 <defs>
  <style type="text/css">*{stroke-linecap:butt;stroke-linejoin:round;}</style>
 </defs>
 <g id="figure_1">
  <g id="patch_1">
   <path d="M 0 595.44 
L 842.4 595.44 
L 842.4 0 
L 0 0 
z
" style="fill:#ffffff;"/>
  </g>
  <g id="axes_1">
   <g id="patch_2">
    <path d="M 105.3 529.9416 
L 758.16 529.9416 
L 758.16 71.4528 
L 105.3 71.4528 
z
" style="fill:#ffffff;"/>
   </g>
   <g id="matplotlib.axis_1">
    <g id="xtick_1">
     <g id="text_1">
      <!-- 0 -->
      <g style="fill:#262626;" transform="translate(131.916939 547.315194)scale(0.11 -0.11)">
       <defs>
        <path d="M 266 2259 
Q 266 3072 433 3567 
Q 600 4063 929 4331 
Q 1259 4600 1759 4600 
Q 2128 4600 2406 4451 
Q 2684 4303 2865 4023 
Q 3047 3744 3150 3342 
Q 3253 2941 3253 2259 
Q 3253 1453 3087 958 
Q 2922 463 2592 192 
Q 2263 -78 1759 -78 
Q 1097 -78 719 397 
Q 266 969 266 2259 
z
M 844 2259 
Q 844 1131 1108 757 
Q 1372 384 1759 384 
Q 2147 384 2411 759 
Q 2675 1134 2675 2259 
Q 2675 3391 2411 3762 
Q 2147 4134 1753 4134 
Q 1366 4134 1134 3806 
Q 844 3388 844 2259 
z
" id="ArialMT-30" transform="scale(0.015625)"/>
       </defs>
       <use xlink:href="#ArialMT-30"/>
      </g>
     </g>
    </g>
    <g id="xtick_2">
     <g id="text_2">
      <!-- 25 -->
      <g style="fill:#262626;" transform="translate(201.950676 547.315194)scale(0.11 -0.11)">
       <defs>
        <path d="M 3222 541 
L 3222 0 
L 194 0 
Q 188 203 259 391 
Q 375 700 629 1000 
Q 884 1300 1366 1694 
Q 2113 2306 2375 2664 
Q 2638 3022 2638 3341 
Q 2638 3675 2398 3904 
Q 2159 4134 1775 4134 
Q 1369 4134 1125 3890 
Q 881 3647 878 3216 
L 300 3275 
Q 359 3922 746 4261 
Q 1134 4600 1788 4600 
Q 2447 4600 2831 4234 
Q 3216 3869 3216 3328 
Q 3216 3053 3103 2787 
Q 2991 2522 2730 2228 
Q 2469 1934 1863 1422 
Q 1356 997 1212 845 
Q 1069 694 975 541 
L 3222 541 
z
" id="ArialMT-32" transform="scale(0.015625)"/>
        <path d="M 266 1200 
L 856 1250 
Q 922 819 1161 601 
Q 1400 384 1738 384 
Q 2144 384 2425 690 
Q 2706 997 2706 1503 
Q 2706 1984 2436 2262 
Q 2166 2541 1728 2541 
Q 1456 2541 1237 2417 
Q 1019 2294 894 2097 
L 366 2166 
L 809 4519 
L 3088 4519 
L 3088 3981 
L 1259 3981 
L 1013 2750 
Q 1425 3038 1878 3038 
Q 2478 3038 2890 2622 
Q 3303 2206 3303 1553 
Q 3303 931 2941 478 
Q 2500 -78 1738 -78 
Q 1113 -78 717 272 
Q 322 622 266 1200 
z
" id="ArialMT-35" transform="scale(0.015625)"/>
       </defs>
       <use xlink:href="#ArialMT-32"/>
       <use x="55.615234" xlink:href="#ArialMT-35"/>
      </g>
     </g>
    </g>
    <g id="xtick_3">
     <g id="text_3">
      <!-- 50 -->
      <g style="fill:#262626;" transform="translate(275.042928 547.315194)scale(0.11 -0.11)">
       <use xlink:href="#ArialMT-35"/>
       <use x="55.615234" xlink:href="#ArialMT-30"/>
      </g>
     </g>
    </g>
    <g id="xtick_4">
     <g id="text_4">
      <!-- 75 -->
      <g style="fill:#262626;" transform="translate(348.135181 547.315194)scale(0.11 -0.11)">
       <defs>
        <path d="M 303 3981 
L 303 4522 
L 3269 4522 
L 3269 4084 
Q 2831 3619 2401 2847 
Q 1972 2075 1738 1259 
Q 1569 684 1522 0 
L 944 0 
Q 953 541 1156 1306 
Q 1359 2072 1739 2783 
Q 2119 3494 2547 3981 
L 303 3981 
z
" id="ArialMT-37" transform="scale(0.015625)"/>
       </defs>
       <use xlink:href="#ArialMT-37"/>
       <use x="55.615234" xlink:href="#ArialMT-35"/>
      </g>
     </g>
    </g>
    <g id="xtick_5">
     <g id="text_5">
      <!-- 100 -->
      <g style="fill:#262626;" transform="translate(418.168918 547.315194)scale(0.11 -0.11)">
       <defs>
        <path d="M 2384 0 
L 1822 0 
L 1822 3584 
Q 1619 3391 1289 3197 
Q 959 3003 697 2906 
L 697 3450 
Q 1169 3672 1522 3987 
Q 1875 4303 2022 4600 
L 2384 4600 
L 2384 0 
z
" id="ArialMT-31" transform="scale(0.015625)"/>
       </defs>
       <use xlink:href="#ArialMT-31"/>
       <use x="55.615234" xlink:href="#ArialMT-30"/>
       <use x="111.230469" xlink:href="#ArialMT-30"/>
      </g>
     </g>
    </g>
    <g id="xtick_6">
     <g id="text_6">
      <!-- 125 -->
      <g style="fill:#262626;" transform="translate(491.261171 547.315194)scale(0.11 -0.11)">
       <use xlink:href="#ArialMT-31"/>
       <use x="55.615234" xlink:href="#ArialMT-32"/>
       <use x="111.230469" xlink:href="#ArialMT-35"/>
      </g>
     </g>
    </g>
    <g id="xtick_7">
     <g id="text_7">
      <!-- 150 -->
      <g style="fill:#262626;" transform="translate(564.353423 547.315194)scale(0.11 -0.11)">
       <use xlink:href="#ArialMT-31"/>
       <use x="55.615234" xlink:href="#ArialMT-35"/>
       <use x="111.230469" xlink:href="#ArialMT-30"/>
      </g>
     </g>
    </g>
    <g id="xtick_8">
     <g id="text_8">
      <!-- 175 -->
      <g style="fill:#262626;" transform="translate(637.445676 547.315194)scale(0.11 -0.11)">
       <use xlink:href="#ArialMT-31"/>
       <use x="55.615234" xlink:href="#ArialMT-37"/>
       <use x="111.230469" xlink:href="#ArialMT-35"/>
      </g>
     </g>
    </g>
    <g id="xtick_9">
     <g id="text_9">
      <!-- 200 -->
      <g style="fill:#262626;" transform="translate(710.537928 547.315194)scale(0.11 -0.11)">
       <use xlink:href="#ArialMT-32"/>
       <use x="55.615234" xlink:href="#ArialMT-30"/>
       <use x="111.230469" xlink:href="#ArialMT-30"/>
      </g>
     </g>
    </g>
   </g>
   <g id="matplotlib.axis_2">
    <g id="ytick_1">
     <g id="text_10">
      <!-- −25 -->
      <g style="fill:#262626;" transform="translate(77.14125 533.878397)scale(0.11 -0.11)">
       <defs>
        <path d="M 3381 1997 
L 356 1997 
L 356 2522 
L 3381 2522 
L 3381 1997 
z
" id="ArialMT-2212" transform="scale(0.015625)"/>
       </defs>
       <use xlink:href="#ArialMT-2212"/>
       <use x="58.398438" xlink:href="#ArialMT-32"/>
       <use x="114.013672" xlink:href="#ArialMT-35"/>
      </g>
     </g>
    </g>
    <g id="ytick_2">
     <g id="text_11">
      <!-- −20 -->
      <g style="fill:#262626;" transform="translate(77.14125 442.180637)scale(0.11 -0.11)">
       <use xlink:href="#ArialMT-2212"/>
       <use x="58.398438" xlink:href="#ArialMT-32"/>
       <use x="114.013672" xlink:href="#ArialMT-30"/>
      </g>
     </g>
    </g>
    <g id="ytick_3">
     <g id="text_12">
      <!-- −15 -->
      <g style="fill:#262626;" transform="translate(77.14125 350.482877)scale(0.11 -0.11)">
       <use xlink:href="#ArialMT-2212"/>
       <use x="58.398438" xlink:href="#ArialMT-31"/>
       <use x="114.013672" xlink:href="#ArialMT-35"/>
      </g>
     </g>
    </g>
    <g id="ytick_4">
     <g id="text_13">
      <!-- −10 -->
      <g style="fill:#262626;" transform="translate(77.14125 258.785117)scale(0.11 -0.11)">
       <use xlink:href="#ArialMT-2212"/>
       <use x="58.398438" xlink:href="#ArialMT-31"/>
       <use x="114.013672" xlink:href="#ArialMT-30"/>
      </g>
     </g>
    </g>
    <g id="ytick_5">
     <g id="text_14">
      <!-- −5 -->
      <g style="fill:#262626;" transform="translate(83.258281 167.087357)scale(0.11 -0.11)">
       <use xlink:href="#ArialMT-2212"/>
       <use x="58.398438" xlink:href="#ArialMT-35"/>
      </g>
     </g>
    </g>
    <g id="ytick_6">
     <g id="text_15">
      <!-- 0 -->
      <g style="fill:#262626;" transform="translate(89.682969 75.389597)scale(0.11 -0.11)">
       <use xlink:href="#ArialMT-30"/>
      </g>
     </g>
    </g>
   </g>
   <g id="line2d_1">
    <path clip-path="url(#p3b53a84722)" d="M 134.975455 424.491869 
L 137.899145 423.936143 
L 140.822835 420.917271 
L 143.746525 423.215032 
L 146.670215 421.053938 
L 149.593905 425.191363 
L 152.517595 422.807411 
L 155.441285 423.026246 
L 158.364975 422.353687 
L 161.288665 421.463448 
L 164.212356 420.806 
L 167.136046 422.233671 
L 170.059736 426.35399 
L 172.983426 433.89839 
L 175.907116 429.982982 
L 178.830806 447.867725 
L 181.754496 433.314295 
L 184.678186 365.95133 
L 187.601876 366.152605 
L 190.525567 485.860115 
L 193.449257 476.549615 
L 196.372947 392.920358 
L 199.296637 343.875888 
L 202.220327 304.829378 
L 205.144017 404.591863 
L 208.067707 522.431901 
L 210.991397 487.45534 
L 213.915087 494.441319 
L 216.838777 494.074415 
L 219.762468 458.312659 
L 222.686158 420.860779 
L 225.609848 454.397427 
L 228.533538 516.987137 
L 231.457228 410.342282 
L 234.380918 335.685585 
L 237.304608 474.026549 
L 240.228298 489.043498 
L 243.151988 344.467416 
L 246.075678 350.515986 
L 248.999369 374.028928 
L 251.923059 482.674704 
L 254.846749 449.404568 
L 257.770439 456.684729 
L 260.694129 400.705769 
L 263.617819 484.227952 
L 266.541509 346.292895 
L 269.465199 343.455919 
L 272.388889 351.981015 
L 275.312579 358.062152 
L 278.23627 377.840025 
L 281.15996 372.153865 
L 284.08365 343.965174 
L 287.00734 383.388435 
L 289.93103 474.096334 
L 292.85472 448.183454 
L 295.77841 380.599626 
L 298.7021 379.29561 
L 301.62579 337.931995 
L 304.549481 346.001495 
L 307.473171 372.063896 
L 310.396861 478.842059 
L 313.320551 401.515484 
L 316.244241 380.831438 
L 319.167931 452.76397 
L 322.091621 455.812155 
L 325.015311 384.08576 
L 327.939001 446.196805 
L 330.862691 510.974298 
L 333.786382 468.866556 
L 336.710072 363.200072 
L 339.633762 456.741571 
L 342.557452 502.443536 
L 345.481142 319.739044 
L 348.404832 385.327302 
L 351.328522 413.387179 
L 354.252212 495.622346 
L 357.175902 512.746171 
L 360.099592 467.968551 
L 363.023283 527.503779 
L 365.946973 477.144764 
L 368.870663 485.104059 
L 374.718043 402.093143 
L 377.641733 445.780474 
L 380.565423 442.684191 
L 383.489113 342.18272 
L 386.412803 298.057755 
L 389.336494 363.812431 
L 392.260184 451.998784 
L 395.183874 466.53364 
L 398.107564 425.880852 
L 401.031254 427.395972 
L 403.954944 456.765428 
L 406.878634 506.567738 
L 409.802324 468.65059 
L 412.726014 463.149892 
L 415.649704 537.886869 
L 418.573395 502.441856 
L 421.497085 561.417651 
L 423.493372 596.44 
M 424.84872 596.44 
L 427.344465 501.553961 
L 430.268155 497.115639 
L 433.191845 443.215676 
L 436.115535 337.442066 
L 439.039225 424.568615 
L 441.962915 436.852339 
L 444.886605 395.30431 
L 447.810296 381.177355 
L 450.733986 430.773493 
L 453.657676 447.176522 
L 456.581366 424.892844 
L 459.505056 491.886351 
L 462.428746 419.182093 
L 468.276126 366.963859 
L 471.199816 430.376821 
L 474.123506 508.292038 
L 477.047197 483.060428 
L 479.970887 296.277959 
L 482.894577 285.613089 
L 485.818267 290.75066 
L 488.741957 383.92975 
L 491.665647 446.936595 
L 494.589337 446.695408 
L 497.513027 494.266315 
L 500.436717 437.991355 
L 503.360408 337.291932 
L 506.284098 367.074535 
L 509.207788 499.958247 
L 512.131478 551.504412 
L 515.055168 543.313864 
L 517.978858 434.102357 
L 520.902548 431.278219 
L 523.826238 460.046089 
L 526.749928 467.076248 
L 529.673618 549.305889 
L 532.597309 562.518784 
L 535.520999 390.961728 
L 538.444689 319.940843 
L 541.368379 493.291354 
L 544.292069 451.409827 
L 547.215759 407.454795 
L 550.139449 489.240295 
L 553.063139 420.743666 
L 555.986829 499.60544 
L 558.910519 463.421162 
L 561.83421 438.943438 
L 564.7579 482.172672 
L 567.68159 420.933432 
L 570.60528 432.723449 
L 573.52897 428.438969 
L 576.45266 411.329031 
L 579.37635 407.683354 
L 582.30004 426.642785 
L 585.22373 430.945455 
L 588.147421 434.994555 
L 591.071111 362.756159 
L 593.994801 397.826467 
L 596.918491 389.868745 
L 599.842181 456.287882 
L 602.765871 371.174217 
L 605.689561 326.956101 
L 608.613251 414.8924 
L 611.536941 461.243697 
L 614.460631 436.141477 
L 617.384322 383.636793 
L 620.308012 470.727977 
L 623.231702 476.407492 
L 626.155392 483.437336 
L 629.079082 461.930597 
L 632.002772 443.219034 
L 634.926462 461.015803 
L 637.850152 457.307616 
L 640.773842 366.046546 
L 643.697532 336.073267 
L 646.621223 351.19785 
L 649.544913 410.549888 
L 652.468603 504.441693 
L 655.392293 513.134728 
L 658.315983 408.980024 
L 661.239673 444.733979 
L 664.163363 376.292899 
L 667.087053 471.245295 
L 670.010743 462.920774 
L 672.934433 497.182171 
L 675.858124 515.36197 
L 678.781814 453.971441 
L 681.705504 477.971969 
L 684.629194 532.145335 
L 687.552884 498.443582 
L 690.476574 587.293242 
L 693.400264 533.668675 
L 696.323954 541.433098 
L 699.247644 503.117913 
L 702.171335 458.45083 
L 705.095025 443.734183 
L 708.018715 431.28504 
L 710.942405 433.156361 
L 713.866095 434.221149 
L 716.789785 434.044466 
L 719.713475 433.196063 
L 722.637165 434.63832 
L 725.560855 431.79795 
L 728.484545 438.102591 
L 728.484545 438.102591 
" style="fill:none;stroke:#4c72b0;stroke-linecap:round;stroke-width:1.5;"/>
   </g>
   <g id="line2d_2">
    <path clip-path="url(#p3b53a84722)" d="M 134.975455 432.46096 
L 137.899145 436.970116 
L 140.822835 431.047351 
L 143.746525 433.568424 
L 146.670215 433.33182 
L 149.593905 436.063192 
L 152.517595 430.179989 
L 155.441285 426.943402 
L 158.364975 420.562435 
L 161.288665 415.028367 
L 164.212356 410.217614 
L 167.136046 408.724741 
L 170.059736 400.641546 
L 172.983426 404.501615 
L 175.907116 396.881974 
L 178.830806 410.64178 
L 181.754496 387.129608 
L 184.678186 345.473858 
L 187.601876 319.881657 
L 190.525567 454.648828 
L 193.449257 437.278849 
L 196.372947 360.095832 
L 199.296637 303.386789 
L 202.220327 263.080249 
L 205.144017 398.559856 
L 208.067707 492.671755 
L 210.991397 478.455461 
L 213.915087 456.242338 
L 216.838777 475.922985 
L 219.762468 436.520379 
L 222.686158 415.23251 
L 225.609848 441.686214 
L 228.533538 492.239019 
L 231.457228 383.72879 
L 234.380918 288.698143 
L 237.304608 428.79307 
L 240.228298 468.263782 
L 243.151988 322.638494 
L 246.075678 313.988817 
L 248.999369 372.304523 
L 251.923059 469.504345 
L 254.846749 424.756423 
L 257.770439 432.654364 
L 260.694129 393.104458 
L 263.617819 475.352008 
L 266.541509 341.192421 
L 269.465199 330.056721 
L 272.388889 363.062094 
L 275.312579 367.889952 
L 278.23627 373.629807 
L 281.15996 374.622258 
L 284.08365 340.863907 
L 287.00734 373.202108 
L 289.93103 475.193968 
L 292.85472 457.806325 
L 295.77841 363.485736 
L 298.7021 359.772635 
L 301.62579 321.451591 
L 304.549481 331.445721 
L 307.473171 370.469162 
L 310.396861 455.358185 
L 313.320551 413.079286 
L 316.244241 378.002332 
L 319.167931 461.097271 
L 322.091621 457.091405 
L 325.015311 368.778792 
L 327.939001 438.790261 
L 330.862691 479.749333 
L 333.786382 454.989322 
L 336.710072 385.548235 
L 339.633762 470.575185 
L 342.557452 479.865677 
L 345.481142 307.128083 
L 348.404832 380.240557 
L 351.328522 450.362388 
L 354.252212 459.325643 
L 357.175902 384.175134 
L 360.099592 302.570515 
L 363.023283 329.54939 
L 365.946973 383.222036 
L 368.870663 373.555965 
L 371.794353 373.744961 
L 374.718043 327.573986 
L 377.641733 350.91836 
L 380.565423 398.476884 
L 383.489113 302.447683 
L 386.412803 285.696132 
L 389.336494 348.96279 
L 392.260184 473.872007 
L 395.183874 471.527233 
L 398.107564 395.287764 
L 401.031254 381.499485 
L 403.954944 465.395218 
L 406.878634 487.477307 
L 409.802324 486.147161 
L 415.649704 489.23232 
L 418.573395 434.990568 
L 421.497085 512.518207 
L 424.420775 552.039465 
L 427.344465 460.404878 
L 430.268155 443.535987 
L 433.191845 414.177236 
L 436.115535 318.327114 
L 439.039225 440.653956 
L 441.962915 445.714956 
L 444.886605 362.253778 
L 447.810296 341.926684 
L 450.733986 444.084437 
L 453.657676 432.36536 
L 456.581366 435.575327 
L 459.505056 489.55445 
L 462.428746 401.763352 
L 465.352436 384.004012 
L 468.276126 346.049033 
L 474.123506 473.130468 
L 477.047197 501.780281 
L 479.970887 301.325754 
L 482.894577 272.65992 
L 485.818267 291.452847 
L 488.741957 379.754127 
L 491.665647 453.865767 
L 494.589337 439.756722 
L 497.513027 489.503204 
L 500.436717 431.900686 
L 503.360408 322.885977 
L 506.284098 362.518331 
L 509.207788 479.193328 
L 512.131478 542.178765 
L 515.055168 545.28799 
L 517.978858 452.374783 
L 520.902548 435.104602 
L 523.826238 455.151454 
L 526.749928 465.517543 
L 529.673618 557.588819 
L 532.597309 563.3264 
L 535.520999 384.777103 
L 538.444689 338.3283 
L 541.368379 460.548401 
L 544.292069 445.541666 
L 547.215759 363.612678 
L 550.139449 449.273708 
L 553.063139 427.241781 
L 555.986829 437.914049 
L 558.910519 362.145655 
L 561.83421 308.128019 
L 564.7579 357.421005 
L 567.68159 366.095168 
L 570.60528 540.95933 
L 573.52897 333.505776 
L 576.45266 380.452746 
L 579.37635 408.666534 
L 582.30004 383.941993 
L 585.22373 431.626934 
L 588.147421 399.527296 
L 591.071111 303.919393 
L 593.994801 347.609837 
L 596.918491 336.547822 
L 599.842181 476.83687 
L 602.765871 339.535212 
L 605.689561 304.733078 
L 608.613251 422.473528 
L 611.536941 440.759456 
L 614.460631 433.95002 
L 617.384322 437.239811 
L 620.308012 491.741394 
L 623.231702 472.328973 
L 626.155392 499.202961 
L 629.079082 431.927726 
L 632.002772 452.316821 
L 634.926462 485.088703 
L 637.850152 433.973771 
L 640.773842 376.417077 
L 643.697532 334.876656 
L 646.621223 343.441997 
L 649.544913 406.239732 
L 652.468603 479.430212 
L 655.392293 506.628393 
L 658.315983 355.218284 
L 661.239673 421.325067 
L 664.163363 354.847514 
L 667.087053 457.205825 
L 670.010743 459.967909 
L 672.934433 483.482425 
L 675.858124 496.66961 
L 678.781814 460.705391 
L 681.705504 468.544845 
L 684.629194 518.492183 
L 687.552884 469.419308 
L 690.476574 557.016722 
L 693.400264 534.927043 
L 696.323954 525.733865 
L 702.171335 434.971154 
L 705.095025 420.688468 
L 708.018715 414.157332 
L 710.942405 418.12409 
L 713.866095 414.447106 
L 716.789785 418.345268 
L 719.713475 413.616578 
L 722.637165 414.402611 
L 725.560855 416.118761 
L 728.484545 419.884559 
L 728.484545 419.884559 
" style="fill:none;stroke:#dd8452;stroke-dasharray:6,2.25;stroke-dashoffset:0;stroke-width:1.5;"/>
   </g>
   <g id="line2d_3">
    <path clip-path="url(#p3b53a84722)" d="M 134.975455 446.907142 
L 137.899145 450.413809 
L 140.822835 441.808084 
L 143.746525 442.792174 
L 146.670215 444.799322 
L 149.593905 443.618645 
L 152.517595 438.741254 
L 155.441285 453.581205 
L 158.364975 447.847262 
L 161.288665 424.548747 
L 164.212356 421.445223 
L 167.136046 418.601461 
L 170.059736 403.286658 
L 172.983426 409.12652 
L 175.907116 404.182563 
L 178.830806 412.320606 
L 181.754496 377.881302 
L 184.678186 269.643392 
L 187.601876 302.535412 
L 190.525567 350.434938 
L 193.449257 358.67841 
L 196.372947 338.263045 
L 199.296637 335.409785 
L 202.220327 345.294236 
L 205.144017 309.782919 
L 208.067707 268.736257 
L 210.991397 392.850608 
L 213.915087 444.777529 
L 216.838777 423.876818 
L 219.762468 423.289575 
L 222.686158 429.567945 
L 225.609848 406.278665 
L 228.533538 458.274601 
L 231.457228 391.664264 
L 234.380918 270.773593 
L 237.304608 427.009269 
L 240.228298 474.053588 
L 243.151988 331.212615 
L 246.075678 275.375044 
L 248.999369 396.756991 
L 251.923059 423.903647 
L 254.846749 427.050511 
L 257.770439 444.908004 
L 260.694129 406.172221 
L 263.617819 494.746484 
L 266.541509 377.704268 
L 269.465199 397.630964 
L 272.388889 401.936887 
L 275.312579 377.442793 
L 278.23627 375.327453 
L 281.15996 348.989777 
L 284.08365 364.086568 
L 287.00734 350.547958 
L 289.93103 424.591038 
L 295.77841 375.955902 
L 298.7021 386.772952 
L 301.62579 363.495355 
L 304.549481 335.691479 
L 307.473171 381.684878 
L 310.396861 518.721826 
L 313.320551 469.340359 
L 316.244241 399.873737 
L 319.167931 523.071159 
L 322.091621 507.91408 
L 325.015311 407.352688 
L 327.939001 437.924263 
L 330.862691 513.30522 
L 333.786382 513.992156 
L 336.710072 412.21021 
L 339.633762 504.884189 
L 342.557452 556.208476 
L 345.481142 346.381832 
L 348.404832 385.206761 
L 351.328522 441.52688 
L 354.252212 468.838327 
L 357.175902 502.829819 
L 360.099592 363.854896 
L 363.023283 362.531921 
L 365.946973 413.171703 
L 368.870663 448.697729 
L 371.794353 352.348689 
L 374.718043 347.396162 
L 377.641733 349.749174 
L 380.565423 354.978602 
L 383.489113 277.432038 
L 386.412803 293.235738 
L 389.336494 333.664287 
L 392.260184 417.550349 
L 395.183874 427.541629 
L 398.107564 436.180899 
L 401.031254 380.186338 
L 403.954944 475.867647 
L 406.878634 461.678252 
L 409.802324 485.260595 
L 412.726014 479.884566 
L 415.649704 559.848941 
L 418.573395 529.20153 
L 424.420775 572.565436 
L 427.344465 461.841504 
L 430.268155 440.092039 
L 433.191845 364.899554 
L 436.115535 292.985877 
L 439.039225 414.177725 
L 441.962915 404.272741 
L 444.886605 430.310814 
L 447.810296 469.422457 
L 450.733986 428.224507 
L 453.657676 401.647359 
L 456.581366 490.558024 
L 459.505056 542.924957 
L 462.428746 414.034028 
L 465.352436 395.95735 
L 468.276126 341.826904 
L 471.199816 359.096805 
L 474.123506 414.525916 
L 477.047197 494.97966 
L 479.970887 312.832329 
L 482.894577 256.644311 
L 485.818267 252.518413 
L 488.741957 351.939389 
L 491.665647 375.545937 
L 494.589337 400.23452 
L 497.513027 440.118554 
L 500.436717 390.184544 
L 503.360408 353.71873 
L 506.284098 351.073391 
L 509.207788 479.087024 
L 512.131478 369.078535 
L 515.055168 431.635574 
L 517.978858 465.294511 
L 520.902548 378.461689 
L 523.826238 368.370017 
L 526.749928 445.640484 
L 529.673618 470.747041 
L 532.597309 461.646386 
L 535.520999 377.55361 
L 538.444689 405.467865 
L 544.292069 412.69825 
L 547.215759 353.299321 
L 550.139449 437.13837 
L 553.063139 419.800712 
L 555.986829 344.38962 
L 558.910519 351.904426 
L 561.83421 306.830194 
L 564.7579 309.009688 
L 567.68159 314.71194 
L 570.60528 361.520651 
L 573.52897 397.974047 
L 576.45266 442.129095 
L 579.37635 377.530943 
L 582.30004 397.728663 
L 585.22373 466.319843 
L 588.147421 365.944404 
L 591.071111 258.32006 
L 593.994801 277.54135 
L 596.918491 308.73242 
L 599.842181 409.224744 
L 602.765871 317.714214 
L 605.689561 384.589716 
L 608.613251 422.794329 
L 611.536941 441.822041 
L 614.460631 431.197765 
L 617.384322 421.503675 
L 620.308012 490.367803 
L 623.231702 485.770042 
L 626.155392 495.203812 
L 629.079082 463.834589 
L 632.002772 498.987345 
L 634.926462 481.286771 
L 637.850152 433.334653 
L 640.773842 399.050764 
L 643.697532 368.51319 
L 646.621223 358.242036 
L 649.544913 428.650527 
L 652.468603 415.71086 
L 655.392293 548.804696 
L 658.315983 385.118787 
L 661.239673 363.171231 
L 664.163363 366.746039 
L 667.087053 363.744744 
L 670.010743 310.186063 
L 672.934433 391.648803 
L 675.858124 442.605766 
L 678.781814 390.262759 
L 681.705504 313.223387 
L 684.629194 415.669619 
L 687.552884 522.34613 
L 690.476574 518.527932 
L 693.400264 530.46455 
L 696.323954 526.521159 
L 699.247644 453.987777 
L 702.171335 404.189139 
L 705.095025 389.218224 
L 708.018715 385.757975 
L 710.942405 393.265085 
L 713.866095 387.547163 
L 716.789785 389.186252 
L 719.713475 384.94861 
L 722.637165 384.195667 
L 725.560855 384.19077 
L 728.484545 388.053287 
L 728.484545 388.053287 
" style="fill:none;stroke:#55a868;stroke-dasharray:1.5,1.5;stroke-dashoffset:0;stroke-width:1.5;"/>
   </g>
   <g id="line2d_4">
    <path clip-path="url(#p3b53a84722)" d="M 134.975455 431.620147 
L 137.899145 436.191323 
L 140.822835 430.376996 
L 143.746525 432.857667 
L 146.670215 432.609869 
L 149.593905 435.599393 
L 152.517595 429.7872 
L 155.441285 426.875926 
L 158.364975 420.6502 
L 161.288665 415.19683 
L 164.212356 410.317237 
L 167.136046 408.975302 
L 170.059736 401.115384 
L 172.983426 404.883876 
L 175.907116 397.13243 
L 178.830806 411.058006 
L 181.754496 387.715067 
L 184.678186 345.071851 
L 187.601876 320.037073 
L 190.525567 455.624627 
L 193.449257 439.469781 
L 196.372947 359.966371 
L 199.296637 303.552768 
L 202.220327 265.737359 
L 205.144017 398.208413 
L 208.067707 495.786647 
L 210.991397 475.87097 
L 213.915087 463.92057 
L 216.838777 471.512752 
L 219.762468 436.877909 
L 222.686158 415.462363 
L 225.609848 442.392319 
L 228.533538 494.123632 
L 231.457228 385.907374 
L 234.380918 291.44816 
L 237.304608 433.71443 
L 240.228298 472.027586 
L 243.151988 323.609519 
L 246.075678 317.33379 
L 248.999369 371.897602 
L 251.923059 469.700792 
L 254.846749 422.17459 
L 257.770439 429.732561 
L 260.694129 391.13124 
L 263.617819 474.153456 
L 266.541509 335.86755 
L 269.465199 327.791666 
L 272.388889 358.581883 
L 275.312579 369.909413 
L 278.23627 375.54055 
L 281.15996 370.052656 
L 284.08365 339.036433 
L 287.00734 380.845045 
L 289.93103 479.137744 
L 292.85472 451.135549 
L 295.77841 363.190628 
L 298.7021 360.085897 
L 301.62579 322.598093 
L 304.549481 335.872815 
L 307.473171 371.100549 
L 310.396861 456.341751 
L 313.320551 409.559502 
L 316.244241 380.326118 
L 319.167931 473.282945 
L 322.091621 467.946689 
L 325.015311 368.266721 
L 327.939001 429.268168 
L 330.862691 482.122651 
L 333.786382 449.193289 
L 336.710072 389.897674 
L 339.633762 478.894599 
L 342.557452 501.722669 
L 345.481142 321.023419 
L 348.404832 238.440359 
L 351.328522 360.681308 
L 354.252212 426.211377 
L 357.175902 434.267183 
L 360.099592 324.417188 
L 363.023283 460.92426 
L 365.946973 384.912685 
L 368.870663 396.050711 
L 371.794353 384.348634 
L 374.718043 341.687142 
L 377.641733 353.590091 
L 380.565423 407.083343 
L 383.489113 298.61927 
L 386.412803 287.508948 
L 389.336494 346.976665 
L 392.260184 468.37932 
L 395.183874 467.236142 
L 398.107564 401.259291 
L 401.031254 386.896362 
L 403.954944 459.772266 
L 406.878634 475.524004 
L 409.802324 483.75324 
L 412.726014 487.268827 
L 415.649704 491.611619 
L 418.573395 436.390149 
L 421.497085 518.045524 
L 424.420775 561.581462 
L 427.344465 461.315825 
L 430.268155 440.588404 
L 433.191845 410.609459 
L 436.115535 318.400415 
L 439.039225 439.583221 
L 441.962915 445.327484 
L 444.886605 362.188855 
L 447.810296 346.795784 
L 450.733986 439.335039 
L 453.657676 434.232798 
L 456.581366 435.666275 
L 459.505056 491.8881 
L 462.428746 404.054956 
L 465.352436 389.997017 
L 468.276126 346.578839 
L 471.199816 408.795715 
L 474.123506 480.517143 
L 477.047197 509.182277 
L 479.970887 302.523309 
L 482.894577 273.981304 
L 485.818267 292.709728 
L 488.741957 381.410216 
L 491.665647 456.205889 
L 494.589337 440.595015 
L 497.513027 489.363879 
L 500.436717 430.085753 
L 503.360408 320.937141 
L 506.284098 360.624221 
L 509.207788 480.409614 
L 512.131478 539.851481 
L 515.055168 552.172178 
L 517.978858 450.640374 
L 520.902548 435.56081 
L 523.826238 457.956914 
L 526.749928 462.146144 
L 529.673618 550.490624 
L 532.597309 561.751709 
L 535.520999 379.371621 
L 538.444689 333.729665 
L 541.368379 465.179532 
L 544.292069 452.018687 
L 547.215759 360.852692 
L 550.139449 452.498297 
L 553.063139 383.899037 
L 555.986829 448.169637 
L 558.910519 413.619271 
L 561.83421 352.196439 
L 564.7579 384.238377 
L 567.68159 313.133786 
L 570.60528 369.81014 
L 573.52897 398.151605 
L 576.45266 398.181198 
L 579.37635 413.066588 
L 582.30004 424.523946 
L 585.22373 473.357872 
L 588.147421 378.483481 
L 591.071111 298.202782 
L 593.994801 377.353944 
L 596.918491 371.661137 
L 599.842181 469.862294 
L 602.765871 350.215631 
L 605.689561 314.954316 
L 608.613251 426.002512 
L 611.536941 437.086075 
L 614.460631 440.401296 
L 617.384322 437.090097 
L 620.308012 489.826523 
L 623.231702 474.447462 
L 626.155392 495.939299 
L 629.079082 433.765711 
L 632.002772 451.813355 
L 634.926462 489.98131 
L 637.850152 435.3694 
L 640.773842 376.00253 
L 643.697532 335.763048 
L 646.621223 348.059381 
L 649.544913 406.358244 
L 652.468603 481.604738 
L 655.392293 510.005949 
L 658.315983 357.731959 
L 661.239673 423.046569 
L 664.163363 356.088759 
L 667.087053 457.05667 
L 670.010743 460.545917 
L 672.934433 483.312703 
L 675.858124 497.453195 
L 678.781814 462.870893 
L 681.705504 469.641466 
L 684.629194 520.907791 
L 687.552884 471.948601 
L 690.476574 559.099637 
L 693.400264 535.234621 
L 696.323954 525.112307 
L 699.247644 480.861275 
L 702.171335 434.831794 
L 705.095025 420.296693 
L 708.018715 414.182133 
L 710.942405 418.063225 
L 713.866095 414.87554 
L 716.789785 417.517923 
L 719.713475 413.443602 
L 722.637165 414.957918 
L 725.560855 415.884011 
L 728.484545 420.511365 
L 728.484545 420.511365 
" style="fill:none;stroke:#c44e52;stroke-dasharray:4.5,1.875,2.25,1.875;stroke-dashoffset:0;stroke-width:1.5;"/>
   </g>
   <g id="line2d_5">
    <path clip-path="url(#p3b53a84722)" d="M 134.975455 435.177465 
L 137.899145 439.850363 
L 140.822835 434.416687 
L 143.746525 436.831386 
L 146.670215 437.239462 
L 149.593905 440.693309 
L 152.517595 435.489101 
L 155.441285 433.285471 
L 158.364975 427.599416 
L 161.288665 422.539185 
L 164.212356 416.053034 
L 167.136046 414.937874 
L 170.059736 406.652076 
L 172.983426 410.312269 
L 175.907116 401.188527 
L 178.830806 416.099172 
L 181.754496 397.73356 
L 184.678186 338.326166 
L 187.601876 336.28061 
L 190.525567 459.751663 
L 193.449257 451.071081 
L 196.372947 372.344365 
L 199.296637 316.074985 
L 202.220327 280.55543 
L 205.144017 402.077017 
L 208.067707 512.316863 
L 210.991397 484.904744 
L 213.915087 460.532975 
L 216.838777 478.367102 
L 219.762468 435.295592 
L 222.686158 412.294057 
L 225.609848 448.743972 
L 228.533538 496.142813 
L 231.457228 389.617694 
L 234.380918 297.742026 
L 237.304608 434.368485 
L 240.228298 476.86279 
L 243.151988 328.804422 
L 246.075678 319.09732 
L 248.999369 366.861298 
L 251.923059 474.075765 
L 254.846749 430.312493 
L 257.770439 439.551249 
L 260.694129 394.123248 
L 263.617819 477.618462 
L 266.541509 339.71786 
L 269.465199 333.728003 
L 272.388889 362.534317 
L 275.312579 373.32877 
L 278.23627 381.904272 
L 281.15996 383.85951 
L 284.08365 347.42217 
L 287.00734 381.433513 
L 289.93103 480.77442 
L 292.85472 454.925589 
L 295.77841 365.226511 
L 298.7021 361.874578 
L 301.62579 328.751393 
L 304.549481 338.204226 
L 307.473171 374.587837 
L 310.396861 474.08437 
L 313.320551 421.929485 
L 316.244241 380.220759 
L 319.167931 472.391167 
L 322.091621 469.519176 
L 325.015311 382.401407 
L 327.939001 485.918812 
L 330.862691 487.754873 
L 333.786382 489.855557 
L 336.710072 377.545355 
L 339.633762 433.753643 
L 342.557452 462.638206 
L 345.481142 311.598307 
L 348.404832 332.754617 
L 351.328522 424.146233 
L 354.252212 526.41363 
L 357.175902 523.89756 
L 360.099592 494.789509 
L 363.023283 559.324313 
L 365.946973 468.513538 
L 368.870663 463.754485 
L 371.794353 387.604495 
L 374.718043 349.925105 
L 377.641733 420.750347 
L 380.565423 446.07434 
L 383.489113 322.596553 
L 386.412803 276.128022 
L 389.336494 357.45971 
L 392.260184 468.505458 
L 395.183874 471.78542 
L 398.107564 394.899487 
L 401.031254 406.938491 
L 403.954944 477.399487 
L 406.878634 496.62592 
L 409.802324 496.98373 
L 412.726014 484.193252 
L 415.649704 527.232475 
L 418.573395 459.349429 
L 421.497085 542.227632 
L 424.420775 573.449624 
L 427.344465 465.386788 
L 430.268155 443.47876 
L 433.191845 416.195542 
L 436.115535 324.38004 
L 439.039225 440.460168 
L 441.962915 447.134651 
L 444.886605 370.819765 
L 447.810296 347.636719 
L 450.733986 440.105331 
L 453.657676 418.655505 
L 456.581366 423.801051 
L 459.505056 465.383325 
L 462.428746 396.169643 
L 465.352436 379.32118 
L 468.276126 353.860818 
L 474.123506 488.02936 
L 477.047197 501.943533 
L 479.970887 301.89472 
L 482.894577 278.305994 
L 485.818267 304.16775 
L 488.741957 373.822337 
L 491.665647 475.74889 
L 494.589337 427.113265 
L 497.513027 496.027344 
L 503.360408 412.368004 
L 506.284098 479.886909 
L 509.207788 385.186858 
L 512.131478 398.596305 
L 515.055168 378.43269 
L 517.978858 416.925118 
L 520.902548 395.318862 
L 523.826238 403.310724 
L 526.749928 439.634117 
L 529.673618 411.154411 
L 532.597309 315.632943 
L 535.520999 370.191911 
L 538.444689 353.606777 
L 541.368379 343.763882 
L 544.292069 285.951135 
L 550.139449 320.169682 
L 553.063139 354.429609 
L 555.986829 316.126703 
L 558.910519 275.569252 
L 561.83421 290.871323 
L 564.7579 312.572393 
L 567.68159 296.52044 
L 570.60528 312.600202 
L 573.52897 397.187244 
L 576.45266 414.242368 
L 579.37635 387.342635 
L 582.30004 370.199711 
L 585.22373 440.001126 
L 588.147421 373.691512 
L 591.071111 283.827504 
L 593.994801 364.235758 
L 596.918491 368.318876 
L 599.842181 448.579986 
L 602.765871 341.483104 
L 605.689561 317.623756 
L 608.613251 413.841568 
L 611.536941 428.884088 
L 614.460631 442.118566 
L 617.384322 434.858134 
L 620.308012 489.304168 
L 623.231702 470.796503 
L 626.155392 488.016138 
L 629.079082 438.578423 
L 632.002772 452.499976 
L 634.926462 477.948952 
L 637.850152 438.115953 
L 640.773842 374.367044 
L 643.697532 340.506185 
L 646.621223 346.944099 
L 649.544913 393.669348 
L 652.468603 473.970721 
L 655.392293 501.308332 
L 658.315983 361.246111 
L 661.239673 413.632144 
L 664.163363 345.293746 
L 667.087053 449.520317 
L 670.010743 458.94723 
L 672.934433 481.842427 
L 675.858124 491.494331 
L 678.781814 448.334777 
L 681.705504 468.185077 
L 684.629194 511.603867 
L 687.552884 465.929047 
L 690.476574 551.352144 
L 693.400264 529.534784 
L 696.323954 523.383775 
L 699.247644 479.46743 
L 702.171335 429.575956 
L 705.095025 419.722952 
L 708.018715 415.444593 
L 710.942405 418.250402 
L 713.866095 414.785956 
L 716.789785 417.336167 
L 719.713475 415.255422 
L 722.637165 414.383232 
L 725.560855 417.392275 
L 728.484545 419.012895 
L 728.484545 419.012895 
" style="fill:none;stroke:#8172b3;stroke-dasharray:7.5,1.5,1.5,1.5;stroke-dashoffset:0;stroke-width:1.5;"/>
   </g>
   <g id="line2d_6"/>
   <g id="line2d_7"/>
   <g id="line2d_8"/>
   <g id="line2d_9"/>
   <g id="line2d_10"/>
   <g id="patch_3">
    <path d="M 105.3 529.9416 
L 105.3 71.4528 
" style="fill:none;stroke:#262626;stroke-linecap:square;stroke-linejoin:miter;stroke-width:1.25;"/>
   </g>
   <g id="patch_4">
    <path d="M 758.16 529.9416 
L 758.16 71.4528 
" style="fill:none;stroke:#262626;stroke-linecap:square;stroke-linejoin:miter;stroke-width:1.25;"/>
   </g>
   <g id="patch_5">
    <path d="M 105.3 529.9416 
L 758.16 529.9416 
" style="fill:none;stroke:#262626;stroke-linecap:square;stroke-linejoin:miter;stroke-width:1.25;"/>
   </g>
   <g id="patch_6">
    <path d="M 105.3 71.4528 
L 758.16 71.4528 
" style="fill:none;stroke:#262626;stroke-linecap:square;stroke-linejoin:miter;stroke-width:1.25;"/>
   </g>
   <g id="text_16">
    <!-- Activations for &gt;!&lt; -->
    <g style="fill:#262626;" transform="translate(383.7075 65.4528)scale(0.12 -0.12)">
     <defs>
      <path d="M -9 0 
L 1750 4581 
L 2403 4581 
L 4278 0 
L 3588 0 
L 3053 1388 
L 1138 1388 
L 634 0 
L -9 0 
z
M 1313 1881 
L 2866 1881 
L 2388 3150 
Q 2169 3728 2063 4100 
Q 1975 3659 1816 3225 
L 1313 1881 
z
" id="ArialMT-41" transform="scale(0.015625)"/>
      <path d="M 2588 1216 
L 3141 1144 
Q 3050 572 2676 248 
Q 2303 -75 1759 -75 
Q 1078 -75 664 370 
Q 250 816 250 1647 
Q 250 2184 428 2587 
Q 606 2991 970 3192 
Q 1334 3394 1763 3394 
Q 2303 3394 2647 3120 
Q 2991 2847 3088 2344 
L 2541 2259 
Q 2463 2594 2264 2762 
Q 2066 2931 1784 2931 
Q 1359 2931 1093 2626 
Q 828 2322 828 1663 
Q 828 994 1084 691 
Q 1341 388 1753 388 
Q 2084 388 2306 591 
Q 2528 794 2588 1216 
z
" id="ArialMT-63" transform="scale(0.015625)"/>
      <path d="M 1650 503 
L 1731 6 
Q 1494 -44 1306 -44 
Q 1000 -44 831 53 
Q 663 150 594 308 
Q 525 466 525 972 
L 525 2881 
L 113 2881 
L 113 3319 
L 525 3319 
L 525 4141 
L 1084 4478 
L 1084 3319 
L 1650 3319 
L 1650 2881 
L 1084 2881 
L 1084 941 
Q 1084 700 1114 631 
Q 1144 563 1211 522 
Q 1278 481 1403 481 
Q 1497 481 1650 503 
z
" id="ArialMT-74" transform="scale(0.015625)"/>
      <path d="M 425 3934 
L 425 4581 
L 988 4581 
L 988 3934 
L 425 3934 
z
M 425 0 
L 425 3319 
L 988 3319 
L 988 0 
L 425 0 
z
" id="ArialMT-69" transform="scale(0.015625)"/>
      <path d="M 1344 0 
L 81 3319 
L 675 3319 
L 1388 1331 
Q 1503 1009 1600 663 
Q 1675 925 1809 1294 
L 2547 3319 
L 3125 3319 
L 1869 0 
L 1344 0 
z
" id="ArialMT-76" transform="scale(0.015625)"/>
      <path d="M 2588 409 
Q 2275 144 1986 34 
Q 1697 -75 1366 -75 
Q 819 -75 525 192 
Q 231 459 231 875 
Q 231 1119 342 1320 
Q 453 1522 633 1644 
Q 813 1766 1038 1828 
Q 1203 1872 1538 1913 
Q 2219 1994 2541 2106 
Q 2544 2222 2544 2253 
Q 2544 2597 2384 2738 
Q 2169 2928 1744 2928 
Q 1347 2928 1158 2789 
Q 969 2650 878 2297 
L 328 2372 
Q 403 2725 575 2942 
Q 747 3159 1072 3276 
Q 1397 3394 1825 3394 
Q 2250 3394 2515 3294 
Q 2781 3194 2906 3042 
Q 3031 2891 3081 2659 
Q 3109 2516 3109 2141 
L 3109 1391 
Q 3109 606 3145 398 
Q 3181 191 3288 0 
L 2700 0 
Q 2613 175 2588 409 
z
M 2541 1666 
Q 2234 1541 1622 1453 
Q 1275 1403 1131 1340 
Q 988 1278 909 1158 
Q 831 1038 831 891 
Q 831 666 1001 516 
Q 1172 366 1500 366 
Q 1825 366 2078 508 
Q 2331 650 2450 897 
Q 2541 1088 2541 1459 
L 2541 1666 
z
" id="ArialMT-61" transform="scale(0.015625)"/>
      <path d="M 213 1659 
Q 213 2581 725 3025 
Q 1153 3394 1769 3394 
Q 2453 3394 2887 2945 
Q 3322 2497 3322 1706 
Q 3322 1066 3130 698 
Q 2938 331 2570 128 
Q 2203 -75 1769 -75 
Q 1072 -75 642 372 
Q 213 819 213 1659 
z
M 791 1659 
Q 791 1022 1069 705 
Q 1347 388 1769 388 
Q 2188 388 2466 706 
Q 2744 1025 2744 1678 
Q 2744 2294 2464 2611 
Q 2184 2928 1769 2928 
Q 1347 2928 1069 2612 
Q 791 2297 791 1659 
z
" id="ArialMT-6f" transform="scale(0.015625)"/>
      <path d="M 422 0 
L 422 3319 
L 928 3319 
L 928 2847 
Q 1294 3394 1984 3394 
Q 2284 3394 2536 3286 
Q 2788 3178 2913 3003 
Q 3038 2828 3088 2588 
Q 3119 2431 3119 2041 
L 3119 0 
L 2556 0 
L 2556 2019 
Q 2556 2363 2490 2533 
Q 2425 2703 2258 2804 
Q 2091 2906 1866 2906 
Q 1506 2906 1245 2678 
Q 984 2450 984 1813 
L 984 0 
L 422 0 
z
" id="ArialMT-6e" transform="scale(0.015625)"/>
      <path d="M 197 991 
L 753 1078 
Q 800 744 1014 566 
Q 1228 388 1613 388 
Q 2000 388 2187 545 
Q 2375 703 2375 916 
Q 2375 1106 2209 1216 
Q 2094 1291 1634 1406 
Q 1016 1563 777 1677 
Q 538 1791 414 1992 
Q 291 2194 291 2438 
Q 291 2659 392 2848 
Q 494 3038 669 3163 
Q 800 3259 1026 3326 
Q 1253 3394 1513 3394 
Q 1903 3394 2198 3281 
Q 2494 3169 2634 2976 
Q 2775 2784 2828 2463 
L 2278 2388 
Q 2241 2644 2061 2787 
Q 1881 2931 1553 2931 
Q 1166 2931 1000 2803 
Q 834 2675 834 2503 
Q 834 2394 903 2306 
Q 972 2216 1119 2156 
Q 1203 2125 1616 2013 
Q 2213 1853 2448 1751 
Q 2684 1650 2818 1456 
Q 2953 1263 2953 975 
Q 2953 694 2789 445 
Q 2625 197 2315 61 
Q 2006 -75 1616 -75 
Q 969 -75 630 194 
Q 291 463 197 991 
z
" id="ArialMT-73" transform="scale(0.015625)"/>
      <path id="ArialMT-20" transform="scale(0.015625)"/>
      <path d="M 556 0 
L 556 2881 
L 59 2881 
L 59 3319 
L 556 3319 
L 556 3672 
Q 556 4006 616 4169 
Q 697 4388 901 4523 
Q 1106 4659 1475 4659 
Q 1713 4659 2000 4603 
L 1916 4113 
Q 1741 4144 1584 4144 
Q 1328 4144 1222 4034 
Q 1116 3925 1116 3625 
L 1116 3319 
L 1763 3319 
L 1763 2881 
L 1116 2881 
L 1116 0 
L 556 0 
z
" id="ArialMT-66" transform="scale(0.015625)"/>
      <path d="M 416 0 
L 416 3319 
L 922 3319 
L 922 2816 
Q 1116 3169 1280 3281 
Q 1444 3394 1641 3394 
Q 1925 3394 2219 3213 
L 2025 2691 
Q 1819 2813 1613 2813 
Q 1428 2813 1281 2702 
Q 1134 2591 1072 2394 
Q 978 2094 978 1738 
L 978 0 
L 416 0 
z
" id="ArialMT-72" transform="scale(0.015625)"/>
      <path d="M 3384 2003 
L 350 706 
L 350 1266 
L 2753 2263 
L 350 3250 
L 350 3809 
L 3384 2528 
L 3384 2003 
z
" id="ArialMT-3e" transform="scale(0.015625)"/>
      <path d="M 722 1138 
L 550 3566 
L 550 4581 
L 1247 4581 
L 1247 3566 
L 1084 1138 
L 722 1138 
z
M 575 0 
L 575 641 
L 1222 641 
L 1222 0 
L 575 0 
z
" id="ArialMT-21" transform="scale(0.015625)"/>
      <path d="M 350 2003 
L 350 2528 
L 3384 3809 
L 3384 3250 
L 978 2263 
L 3384 1266 
L 3384 706 
L 350 2003 
z
" id="ArialMT-3c" transform="scale(0.015625)"/>
     </defs>
     <use xlink:href="#ArialMT-41"/>
     <use x="66.699219" xlink:href="#ArialMT-63"/>
     <use x="116.699219" xlink:href="#ArialMT-74"/>
     <use x="144.482422" xlink:href="#ArialMT-69"/>
     <use x="166.699219" xlink:href="#ArialMT-76"/>
     <use x="216.699219" xlink:href="#ArialMT-61"/>
     <use x="272.314453" xlink:href="#ArialMT-74"/>
     <use x="300.097656" xlink:href="#ArialMT-69"/>
     <use x="322.314453" xlink:href="#ArialMT-6f"/>
     <use x="377.929688" xlink:href="#ArialMT-6e"/>
     <use x="433.544922" xlink:href="#ArialMT-73"/>
     <use x="483.544922" xlink:href="#ArialMT-20"/>
     <use x="511.328125" xlink:href="#ArialMT-66"/>
     <use x="539.111328" xlink:href="#ArialMT-6f"/>
     <use x="594.726562" xlink:href="#ArialMT-72"/>
     <use x="628.027344" xlink:href="#ArialMT-20"/>
     <use x="655.810547" xlink:href="#ArialMT-3e"/>
     <use x="714.208984" xlink:href="#ArialMT-21"/>
     <use x="741.992188" xlink:href="#ArialMT-3c"/>
    </g>
   </g>
   <g id="legend_1">
    <g id="patch_7">
     <path d="M 640.044062 158.514363 
L 750.46 158.514363 
Q 752.66 158.514363 752.66 156.314363 
L 752.66 79.1528 
Q 752.66 76.9528 750.46 76.9528 
L 640.044062 76.9528 
Q 637.844062 76.9528 637.844062 79.1528 
L 637.844062 156.314363 
Q 637.844062 158.514363 640.044062 158.514363 
z
" style="fill:#ffffff;opacity:0.8;stroke:#cccccc;stroke-linejoin:miter;"/>
    </g>
    <g id="line2d_11">
     <path d="M 642.244062 85.376394 
L 664.244062 85.376394 
" style="fill:none;stroke:#4c72b0;stroke-linecap:round;stroke-width:1.5;"/>
    </g>
    <g id="line2d_12"/>
    <g id="text_17">
     <!-- regular -->
     <g style="fill:#262626;" transform="translate(673.044062 89.226394)scale(0.11 -0.11)">
      <defs>
       <path d="M 2694 1069 
L 3275 997 
Q 3138 488 2766 206 
Q 2394 -75 1816 -75 
Q 1088 -75 661 373 
Q 234 822 234 1631 
Q 234 2469 665 2931 
Q 1097 3394 1784 3394 
Q 2450 3394 2872 2941 
Q 3294 2488 3294 1666 
Q 3294 1616 3291 1516 
L 816 1516 
Q 847 969 1125 678 
Q 1403 388 1819 388 
Q 2128 388 2347 550 
Q 2566 713 2694 1069 
z
M 847 1978 
L 2700 1978 
Q 2663 2397 2488 2606 
Q 2219 2931 1791 2931 
Q 1403 2931 1139 2672 
Q 875 2413 847 1978 
z
" id="ArialMT-65" transform="scale(0.015625)"/>
       <path d="M 319 -275 
L 866 -356 
Q 900 -609 1056 -725 
Q 1266 -881 1628 -881 
Q 2019 -881 2231 -725 
Q 2444 -569 2519 -288 
Q 2563 -116 2559 434 
Q 2191 0 1641 0 
Q 956 0 581 494 
Q 206 988 206 1678 
Q 206 2153 378 2554 
Q 550 2956 876 3175 
Q 1203 3394 1644 3394 
Q 2231 3394 2613 2919 
L 2613 3319 
L 3131 3319 
L 3131 450 
Q 3131 -325 2973 -648 
Q 2816 -972 2473 -1159 
Q 2131 -1347 1631 -1347 
Q 1038 -1347 672 -1080 
Q 306 -813 319 -275 
z
M 784 1719 
Q 784 1066 1043 766 
Q 1303 466 1694 466 
Q 2081 466 2343 764 
Q 2606 1063 2606 1700 
Q 2606 2309 2336 2618 
Q 2066 2928 1684 2928 
Q 1309 2928 1046 2623 
Q 784 2319 784 1719 
z
" id="ArialMT-67" transform="scale(0.015625)"/>
       <path d="M 2597 0 
L 2597 488 
Q 2209 -75 1544 -75 
Q 1250 -75 995 37 
Q 741 150 617 320 
Q 494 491 444 738 
Q 409 903 409 1263 
L 409 3319 
L 972 3319 
L 972 1478 
Q 972 1038 1006 884 
Q 1059 663 1231 536 
Q 1403 409 1656 409 
Q 1909 409 2131 539 
Q 2353 669 2445 892 
Q 2538 1116 2538 1541 
L 2538 3319 
L 3100 3319 
L 3100 0 
L 2597 0 
z
" id="ArialMT-75" transform="scale(0.015625)"/>
       <path d="M 409 0 
L 409 4581 
L 972 4581 
L 972 0 
L 409 0 
z
" id="ArialMT-6c" transform="scale(0.015625)"/>
      </defs>
      <use xlink:href="#ArialMT-72"/>
      <use x="33.300781" xlink:href="#ArialMT-65"/>
      <use x="88.916016" xlink:href="#ArialMT-67"/>
      <use x="144.53125" xlink:href="#ArialMT-75"/>
      <use x="200.146484" xlink:href="#ArialMT-6c"/>
      <use x="222.363281" xlink:href="#ArialMT-61"/>
      <use x="277.978516" xlink:href="#ArialMT-72"/>
     </g>
    </g>
    <g id="line2d_13">
     <path d="M 642.244062 101.0978 
L 664.244062 101.0978 
" style="fill:none;stroke:#dd8452;stroke-dasharray:6,2.25;stroke-dashoffset:0;stroke-width:1.5;"/>
    </g>
    <g id="line2d_14"/>
    <g id="text_18">
     <!-- splitted_3s -->
     <g style="fill:#262626;" transform="translate(673.044062 104.9478)scale(0.11 -0.11)">
      <defs>
       <path d="M 422 -1272 
L 422 3319 
L 934 3319 
L 934 2888 
Q 1116 3141 1344 3267 
Q 1572 3394 1897 3394 
Q 2322 3394 2647 3175 
Q 2972 2956 3137 2557 
Q 3303 2159 3303 1684 
Q 3303 1175 3120 767 
Q 2938 359 2589 142 
Q 2241 -75 1856 -75 
Q 1575 -75 1351 44 
Q 1128 163 984 344 
L 984 -1272 
L 422 -1272 
z
M 931 1641 
Q 931 1000 1190 694 
Q 1450 388 1819 388 
Q 2194 388 2461 705 
Q 2728 1022 2728 1688 
Q 2728 2322 2467 2637 
Q 2206 2953 1844 2953 
Q 1484 2953 1207 2617 
Q 931 2281 931 1641 
z
" id="ArialMT-70" transform="scale(0.015625)"/>
       <path d="M 2575 0 
L 2575 419 
Q 2259 -75 1647 -75 
Q 1250 -75 917 144 
Q 584 363 401 755 
Q 219 1147 219 1656 
Q 219 2153 384 2558 
Q 550 2963 881 3178 
Q 1213 3394 1622 3394 
Q 1922 3394 2156 3267 
Q 2391 3141 2538 2938 
L 2538 4581 
L 3097 4581 
L 3097 0 
L 2575 0 
z
M 797 1656 
Q 797 1019 1065 703 
Q 1334 388 1700 388 
Q 2069 388 2326 689 
Q 2584 991 2584 1609 
Q 2584 2291 2321 2609 
Q 2059 2928 1675 2928 
Q 1300 2928 1048 2622 
Q 797 2316 797 1656 
z
" id="ArialMT-64" transform="scale(0.015625)"/>
       <path d="M -97 -1272 
L -97 -866 
L 3631 -866 
L 3631 -1272 
L -97 -1272 
z
" id="ArialMT-5f" transform="scale(0.015625)"/>
       <path d="M 269 1209 
L 831 1284 
Q 928 806 1161 595 
Q 1394 384 1728 384 
Q 2125 384 2398 659 
Q 2672 934 2672 1341 
Q 2672 1728 2419 1979 
Q 2166 2231 1775 2231 
Q 1616 2231 1378 2169 
L 1441 2663 
Q 1497 2656 1531 2656 
Q 1891 2656 2178 2843 
Q 2466 3031 2466 3422 
Q 2466 3731 2256 3934 
Q 2047 4138 1716 4138 
Q 1388 4138 1169 3931 
Q 950 3725 888 3313 
L 325 3413 
Q 428 3978 793 4289 
Q 1159 4600 1703 4600 
Q 2078 4600 2393 4439 
Q 2709 4278 2876 4000 
Q 3044 3722 3044 3409 
Q 3044 3113 2884 2869 
Q 2725 2625 2413 2481 
Q 2819 2388 3044 2092 
Q 3269 1797 3269 1353 
Q 3269 753 2831 336 
Q 2394 -81 1725 -81 
Q 1122 -81 723 278 
Q 325 638 269 1209 
z
" id="ArialMT-33" transform="scale(0.015625)"/>
      </defs>
      <use xlink:href="#ArialMT-73"/>
      <use x="50" xlink:href="#ArialMT-70"/>
      <use x="105.615234" xlink:href="#ArialMT-6c"/>
      <use x="127.832031" xlink:href="#ArialMT-69"/>
      <use x="150.048828" xlink:href="#ArialMT-74"/>
      <use x="177.832031" xlink:href="#ArialMT-74"/>
      <use x="205.615234" xlink:href="#ArialMT-65"/>
      <use x="261.230469" xlink:href="#ArialMT-64"/>
      <use x="316.845703" xlink:href="#ArialMT-5f"/>
      <use x="372.460938" xlink:href="#ArialMT-33"/>
      <use x="428.076172" xlink:href="#ArialMT-73"/>
     </g>
    </g>
    <g id="line2d_15">
     <path d="M 642.244062 116.6903 
L 664.244062 116.6903 
" style="fill:none;stroke:#55a868;stroke-dasharray:1.5,1.5;stroke-dashoffset:0;stroke-width:1.5;"/>
    </g>
    <g id="line2d_16"/>
    <g id="text_19">
     <!-- splitted_1s -->
     <g style="fill:#262626;" transform="translate(673.044062 120.5403)scale(0.11 -0.11)">
      <use xlink:href="#ArialMT-73"/>
      <use x="50" xlink:href="#ArialMT-70"/>
      <use x="105.615234" xlink:href="#ArialMT-6c"/>
      <use x="127.832031" xlink:href="#ArialMT-69"/>
      <use x="150.048828" xlink:href="#ArialMT-74"/>
      <use x="177.832031" xlink:href="#ArialMT-74"/>
      <use x="205.615234" xlink:href="#ArialMT-65"/>
      <use x="261.230469" xlink:href="#ArialMT-64"/>
      <use x="316.845703" xlink:href="#ArialMT-5f"/>
      <use x="372.460938" xlink:href="#ArialMT-31"/>
      <use x="428.076172" xlink:href="#ArialMT-73"/>
     </g>
    </g>
    <g id="line2d_17">
     <path d="M 642.244062 132.384206 
L 664.244062 132.384206 
" style="fill:none;stroke:#c44e52;stroke-dasharray:4.5,1.875,2.25,1.875;stroke-dashoffset:0;stroke-width:1.5;"/>
    </g>
    <g id="line2d_18"/>
    <g id="text_20">
     <!-- overlap_1f_3s -->
     <g style="fill:#262626;" transform="translate(673.044062 136.234206)scale(0.11 -0.11)">
      <use xlink:href="#ArialMT-6f"/>
      <use x="55.615234" xlink:href="#ArialMT-76"/>
      <use x="105.615234" xlink:href="#ArialMT-65"/>
      <use x="161.230469" xlink:href="#ArialMT-72"/>
      <use x="194.53125" xlink:href="#ArialMT-6c"/>
      <use x="216.748047" xlink:href="#ArialMT-61"/>
      <use x="272.363281" xlink:href="#ArialMT-70"/>
      <use x="327.978516" xlink:href="#ArialMT-5f"/>
      <use x="383.59375" xlink:href="#ArialMT-31"/>
      <use x="439.208984" xlink:href="#ArialMT-66"/>
      <use x="466.992188" xlink:href="#ArialMT-5f"/>
      <use x="522.607422" xlink:href="#ArialMT-33"/>
      <use x="578.222656" xlink:href="#ArialMT-73"/>
     </g>
    </g>
    <g id="line2d_19">
     <path d="M 642.244062 148.078113 
L 664.244062 148.078113 
" style="fill:none;stroke:#8172b3;stroke-dasharray:7.5,1.5,1.5,1.5;stroke-dashoffset:0;stroke-width:1.5;"/>
    </g>
    <g id="line2d_20"/>
    <g id="text_21">
     <!-- overlap_10f_3s -->
     <g style="fill:#262626;" transform="translate(673.044062 151.928112)scale(0.11 -0.11)">
      <use xlink:href="#ArialMT-6f"/>
      <use x="55.615234" xlink:href="#ArialMT-76"/>
      <use x="105.615234" xlink:href="#ArialMT-65"/>
      <use x="161.230469" xlink:href="#ArialMT-72"/>
      <use x="194.53125" xlink:href="#ArialMT-6c"/>
      <use x="216.748047" xlink:href="#ArialMT-61"/>
      <use x="272.363281" xlink:href="#ArialMT-70"/>
      <use x="327.978516" xlink:href="#ArialMT-5f"/>
      <use x="383.59375" xlink:href="#ArialMT-31"/>
      <use x="439.208984" xlink:href="#ArialMT-30"/>
      <use x="494.824219" xlink:href="#ArialMT-66"/>
      <use x="522.607422" xlink:href="#ArialMT-5f"/>
      <use x="578.222656" xlink:href="#ArialMT-33"/>
      <use x="633.837891" xlink:href="#ArialMT-73"/>
     </g>
    </g>
   </g>
  </g>
 </g>
 <defs>
  <clipPath id="p3b53a84722">
   <rect height="458.4888" width="652.86" x="105.3" y="71.4528"/>
  </clipPath>
 </defs>
</svg>
