<?xml version="1.0" encoding="utf-8" standalone="no"?>
<!DOCTYPE svg PUBLIC "-//W3C//DTD SVG 1.1//EN"
  "http://www.w3.org/Graphics/SVG/1.1/DTD/svg11.dtd">
<svg height="595.44pt" version="1.1" viewBox="0 0 842.4 595.44" width="842.4pt" xmlns="http://www.w3.org/2000/svg" xmlns:xlink="http://www.w3.org/1999/xlink">
 <metadata>
  <rdf:RDF xmlns:cc="http://creativecommons.org/ns#" xmlns:dc="http://purl.org/dc/elements/1.1/" xmlns:rdf="http://www.w3.org/1999/02/22-rdf-syntax-ns#">
   <cc:Work>
    <dc:type rdf:resource="http://purl.org/dc/dcmitype/StillImage"/>
    <dc:date>2021-06-01T00:54:04.992400</dc:date>
    <dc:format>image/svg+xml</dc:format>
    <dc:creator>
     <cc:Agent>
      <dc:title>Matplotlib v3.4.1, https://matplotlib.org/</dc:title>
     </cc:Agent>
    </dc:creator>
   </cc:Work>
  </rdf:RDF>
 </metadata>
 <defs>
  <style type="text/css">*{stroke-linecap:butt;stroke-linejoin:round;}</style>
 </defs>
 <g id="figure_1">
  <g id="patch_1">
   <path d="M 0 595.44 
L 842.4 595.44 
L 842.4 0 
L 0 0 
z
" style="fill:#ffffff;"/>
  </g>
  <g id="axes_1">
   <g id="patch_2">
    <path d="M 105.3 529.9416 
L 758.16 529.9416 
L 758.16 71.4528 
L 105.3 71.4528 
z
" style="fill:#ffffff;"/>
   </g>
   <g id="matplotlib.axis_1">
    <g id="xtick_1">
     <g id="text_1">
      <!-- 0 -->
      <g style="fill:#262626;" transform="translate(131.916939 547.315194)scale(0.11 -0.11)">
       <defs>
        <path d="M 266 2259 
Q 266 3072 433 3567 
Q 600 4063 929 4331 
Q 1259 4600 1759 4600 
Q 2128 4600 2406 4451 
Q 2684 4303 2865 4023 
Q 3047 3744 3150 3342 
Q 3253 2941 3253 2259 
Q 3253 1453 3087 958 
Q 2922 463 2592 192 
Q 2263 -78 1759 -78 
Q 1097 -78 719 397 
Q 266 969 266 2259 
z
M 844 2259 
Q 844 1131 1108 757 
Q 1372 384 1759 384 
Q 2147 384 2411 759 
Q 2675 1134 2675 2259 
Q 2675 3391 2411 3762 
Q 2147 4134 1753 4134 
Q 1366 4134 1134 3806 
Q 844 3388 844 2259 
z
" id="ArialMT-30" transform="scale(0.015625)"/>
       </defs>
       <use xlink:href="#ArialMT-30"/>
      </g>
     </g>
    </g>
    <g id="xtick_2">
     <g id="text_2">
      <!-- 25 -->
      <g style="fill:#262626;" transform="translate(201.950676 547.315194)scale(0.11 -0.11)">
       <defs>
        <path d="M 3222 541 
L 3222 0 
L 194 0 
Q 188 203 259 391 
Q 375 700 629 1000 
Q 884 1300 1366 1694 
Q 2113 2306 2375 2664 
Q 2638 3022 2638 3341 
Q 2638 3675 2398 3904 
Q 2159 4134 1775 4134 
Q 1369 4134 1125 3890 
Q 881 3647 878 3216 
L 300 3275 
Q 359 3922 746 4261 
Q 1134 4600 1788 4600 
Q 2447 4600 2831 4234 
Q 3216 3869 3216 3328 
Q 3216 3053 3103 2787 
Q 2991 2522 2730 2228 
Q 2469 1934 1863 1422 
Q 1356 997 1212 845 
Q 1069 694 975 541 
L 3222 541 
z
" id="ArialMT-32" transform="scale(0.015625)"/>
        <path d="M 266 1200 
L 856 1250 
Q 922 819 1161 601 
Q 1400 384 1738 384 
Q 2144 384 2425 690 
Q 2706 997 2706 1503 
Q 2706 1984 2436 2262 
Q 2166 2541 1728 2541 
Q 1456 2541 1237 2417 
Q 1019 2294 894 2097 
L 366 2166 
L 809 4519 
L 3088 4519 
L 3088 3981 
L 1259 3981 
L 1013 2750 
Q 1425 3038 1878 3038 
Q 2478 3038 2890 2622 
Q 3303 2206 3303 1553 
Q 3303 931 2941 478 
Q 2500 -78 1738 -78 
Q 1113 -78 717 272 
Q 322 622 266 1200 
z
" id="ArialMT-35" transform="scale(0.015625)"/>
       </defs>
       <use xlink:href="#ArialMT-32"/>
       <use x="55.615234" xlink:href="#ArialMT-35"/>
      </g>
     </g>
    </g>
    <g id="xtick_3">
     <g id="text_3">
      <!-- 50 -->
      <g style="fill:#262626;" transform="translate(275.042928 547.315194)scale(0.11 -0.11)">
       <use xlink:href="#ArialMT-35"/>
       <use x="55.615234" xlink:href="#ArialMT-30"/>
      </g>
     </g>
    </g>
    <g id="xtick_4">
     <g id="text_4">
      <!-- 75 -->
      <g style="fill:#262626;" transform="translate(348.135181 547.315194)scale(0.11 -0.11)">
       <defs>
        <path d="M 303 3981 
L 303 4522 
L 3269 4522 
L 3269 4084 
Q 2831 3619 2401 2847 
Q 1972 2075 1738 1259 
Q 1569 684 1522 0 
L 944 0 
Q 953 541 1156 1306 
Q 1359 2072 1739 2783 
Q 2119 3494 2547 3981 
L 303 3981 
z
" id="ArialMT-37" transform="scale(0.015625)"/>
       </defs>
       <use xlink:href="#ArialMT-37"/>
       <use x="55.615234" xlink:href="#ArialMT-35"/>
      </g>
     </g>
    </g>
    <g id="xtick_5">
     <g id="text_5">
      <!-- 100 -->
      <g style="fill:#262626;" transform="translate(418.168918 547.315194)scale(0.11 -0.11)">
       <defs>
        <path d="M 2384 0 
L 1822 0 
L 1822 3584 
Q 1619 3391 1289 3197 
Q 959 3003 697 2906 
L 697 3450 
Q 1169 3672 1522 3987 
Q 1875 4303 2022 4600 
L 2384 4600 
L 2384 0 
z
" id="ArialMT-31" transform="scale(0.015625)"/>
       </defs>
       <use xlink:href="#ArialMT-31"/>
       <use x="55.615234" xlink:href="#ArialMT-30"/>
       <use x="111.230469" xlink:href="#ArialMT-30"/>
      </g>
     </g>
    </g>
    <g id="xtick_6">
     <g id="text_6">
      <!-- 125 -->
      <g style="fill:#262626;" transform="translate(491.261171 547.315194)scale(0.11 -0.11)">
       <use xlink:href="#ArialMT-31"/>
       <use x="55.615234" xlink:href="#ArialMT-32"/>
       <use x="111.230469" xlink:href="#ArialMT-35"/>
      </g>
     </g>
    </g>
    <g id="xtick_7">
     <g id="text_7">
      <!-- 150 -->
      <g style="fill:#262626;" transform="translate(564.353423 547.315194)scale(0.11 -0.11)">
       <use xlink:href="#ArialMT-31"/>
       <use x="55.615234" xlink:href="#ArialMT-35"/>
       <use x="111.230469" xlink:href="#ArialMT-30"/>
      </g>
     </g>
    </g>
    <g id="xtick_8">
     <g id="text_8">
      <!-- 175 -->
      <g style="fill:#262626;" transform="translate(637.445676 547.315194)scale(0.11 -0.11)">
       <use xlink:href="#ArialMT-31"/>
       <use x="55.615234" xlink:href="#ArialMT-37"/>
       <use x="111.230469" xlink:href="#ArialMT-35"/>
      </g>
     </g>
    </g>
    <g id="xtick_9">
     <g id="text_9">
      <!-- 200 -->
      <g style="fill:#262626;" transform="translate(710.537928 547.315194)scale(0.11 -0.11)">
       <use xlink:href="#ArialMT-32"/>
       <use x="55.615234" xlink:href="#ArialMT-30"/>
       <use x="111.230469" xlink:href="#ArialMT-30"/>
      </g>
     </g>
    </g>
   </g>
   <g id="matplotlib.axis_2">
    <g id="ytick_1">
     <g id="text_10">
      <!-- −25 -->
      <g style="fill:#262626;" transform="translate(77.14125 533.878397)scale(0.11 -0.11)">
       <defs>
        <path d="M 3381 1997 
L 356 1997 
L 356 2522 
L 3381 2522 
L 3381 1997 
z
" id="ArialMT-2212" transform="scale(0.015625)"/>
       </defs>
       <use xlink:href="#ArialMT-2212"/>
       <use x="58.398438" xlink:href="#ArialMT-32"/>
       <use x="114.013672" xlink:href="#ArialMT-35"/>
      </g>
     </g>
    </g>
    <g id="ytick_2">
     <g id="text_11">
      <!-- −20 -->
      <g style="fill:#262626;" transform="translate(77.14125 442.180637)scale(0.11 -0.11)">
       <use xlink:href="#ArialMT-2212"/>
       <use x="58.398438" xlink:href="#ArialMT-32"/>
       <use x="114.013672" xlink:href="#ArialMT-30"/>
      </g>
     </g>
    </g>
    <g id="ytick_3">
     <g id="text_12">
      <!-- −15 -->
      <g style="fill:#262626;" transform="translate(77.14125 350.482877)scale(0.11 -0.11)">
       <use xlink:href="#ArialMT-2212"/>
       <use x="58.398438" xlink:href="#ArialMT-31"/>
       <use x="114.013672" xlink:href="#ArialMT-35"/>
      </g>
     </g>
    </g>
    <g id="ytick_4">
     <g id="text_13">
      <!-- −10 -->
      <g style="fill:#262626;" transform="translate(77.14125 258.785117)scale(0.11 -0.11)">
       <use xlink:href="#ArialMT-2212"/>
       <use x="58.398438" xlink:href="#ArialMT-31"/>
       <use x="114.013672" xlink:href="#ArialMT-30"/>
      </g>
     </g>
    </g>
    <g id="ytick_5">
     <g id="text_14">
      <!-- −5 -->
      <g style="fill:#262626;" transform="translate(83.258281 167.087357)scale(0.11 -0.11)">
       <use xlink:href="#ArialMT-2212"/>
       <use x="58.398438" xlink:href="#ArialMT-35"/>
      </g>
     </g>
    </g>
    <g id="ytick_6">
     <g id="text_15">
      <!-- 0 -->
      <g style="fill:#262626;" transform="translate(89.682969 75.389597)scale(0.11 -0.11)">
       <use xlink:href="#ArialMT-30"/>
      </g>
     </g>
    </g>
   </g>
   <g id="line2d_1">
    <path clip-path="url(#p42c7ecd5f2)" d="M 134.975455 317.112699 
L 137.899145 317.301311 
L 140.822835 322.221516 
L 143.746525 323.550508 
L 146.670215 320.381048 
L 149.593905 326.458302 
L 152.517595 327.26688 
L 155.441285 333.405191 
L 158.364975 336.472738 
L 161.288665 342.197884 
L 164.212356 350.242618 
L 167.136046 353.633746 
L 170.059736 371.492429 
L 172.983426 378.94714 
L 175.907116 383.852724 
L 178.830806 404.997211 
L 181.754496 430.188489 
L 184.678186 333.471181 
L 187.601876 131.961178 
L 190.525567 71.453121 
L 193.449257 242.500653 
L 196.372947 356.217416 
L 199.296637 406.509392 
L 202.220327 337.209345 
L 205.144017 284.913508 
L 208.067707 394.310006 
L 210.991397 513.188317 
L 213.915087 470.162982 
L 216.838777 399.221676 
L 219.762468 358.175277 
L 222.686158 373.630752 
L 225.609848 371.144484 
L 228.533538 415.294319 
L 231.457228 416.816541 
L 237.304608 71.453224 
L 240.228298 271.373569 
L 243.151988 314.316999 
L 246.075678 71.489516 
L 248.999369 72.992968 
L 251.923059 282.158612 
L 254.846749 369.481888 
L 257.770439 379.25965 
L 260.694129 299.010573 
L 263.617819 380.626876 
L 266.541509 337.637342 
L 269.465199 375.759245 
L 272.388889 440.490425 
L 275.312579 434.836271 
L 278.23627 427.231077 
L 281.15996 385.291938 
L 284.08365 335.537532 
L 287.00734 327.860524 
L 289.93103 354.016706 
L 292.85472 319.863065 
L 295.77841 316.405423 
L 298.7021 350.488002 
L 301.62579 299.139019 
L 304.549481 298.540111 
L 307.473171 341.381942 
L 310.396861 402.009541 
L 313.320551 321.126715 
L 316.244241 349.198327 
L 319.167931 297.113472 
L 322.091621 367.766998 
L 325.015311 412.403124 
L 327.939001 392.009097 
L 330.862691 349.330779 
L 333.786382 339.684367 
L 336.710072 348.855279 
L 339.633762 424.079071 
L 342.557452 434.57658 
L 345.481142 291.25598 
L 348.404832 71.455305 
L 351.328522 81.760541 
L 354.252212 298.117886 
L 357.175902 367.648031 
L 360.099592 367.268044 
L 363.023283 431.761606 
L 365.946973 345.974141 
L 368.870663 384.406561 
L 371.794353 407.314036 
L 374.718043 458.611038 
L 377.641733 460.896871 
L 380.565423 424.357127 
L 383.489113 377.407429 
L 386.412803 332.585857 
L 389.336494 362.441253 
L 392.260184 360.803143 
L 395.183874 374.099763 
L 398.107564 364.461728 
L 401.031254 337.018057 
L 403.954944 339.720413 
L 406.878634 366.750831 
L 409.802324 367.117911 
L 412.726014 349.883741 
L 415.649704 433.808631 
L 418.573395 358.481683 
L 421.497085 374.917068 
L 424.420775 442.562146 
L 427.344465 360.087751 
L 430.268155 396.334014 
L 433.191845 404.014205 
L 436.115535 320.600005 
L 439.039225 352.618664 
L 441.962915 390.620813 
L 444.886605 401.219904 
L 447.810296 343.086339 
L 450.733986 300.055826 
L 453.657676 375.726189 
L 456.581366 420.938469 
L 459.505056 443.207526 
L 462.428746 388.349707 
L 465.352436 387.092109 
L 468.276126 324.796703 
L 471.199816 338.424687 
L 474.123506 304.20761 
L 477.047197 299.308847 
L 479.970887 289.889612 
L 482.894577 384.927097 
L 485.818267 387.302234 
L 488.741957 447.675546 
L 491.665647 491.604798 
L 494.589337 449.06131 
L 497.513027 444.130576 
L 500.436717 417.101802 
L 503.360408 321.872242 
L 506.284098 343.259979 
L 509.207788 426.020702 
L 512.131478 435.931667 
L 515.055168 459.549829 
L 517.978858 363.942486 
L 520.902548 353.316776 
L 523.826238 357.116487 
L 526.749928 375.703907 
L 529.673618 479.157088 
L 532.597309 479.157963 
L 535.520999 403.523192 
L 538.444689 363.75174 
L 541.368379 394.374928 
L 544.292069 345.567394 
L 547.215759 373.581045 
L 550.139449 437.791515 
L 553.063139 355.248857 
L 555.986829 457.711564 
L 558.910519 423.02838 
L 561.83421 414.638271 
L 564.7579 420.098147 
L 567.68159 340.99851 
L 570.60528 368.531204 
L 573.52897 399.185542 
L 576.45266 421.162306 
L 579.37635 445.316815 
L 582.30004 440.905567 
L 585.22373 364.94933 
L 588.147421 383.404946 
L 591.071111 357.576718 
L 593.994801 373.232086 
L 596.918491 314.209033 
L 599.842181 362.377642 
L 602.765871 343.326773 
L 605.689561 304.234929 
L 608.613251 373.91276 
L 611.536941 424.667469 
L 614.460631 443.151313 
L 617.384322 389.414776 
L 620.308012 369.47038 
L 623.231702 397.335734 
L 626.155392 466.900719 
L 629.079082 435.686738 
L 632.002772 357.586232 
L 634.926462 324.285594 
L 637.850152 353.825226 
L 640.773842 324.142701 
L 643.697532 311.707322 
L 646.621223 283.668416 
L 649.544913 311.590087 
L 652.468603 374.94918 
L 655.392293 425.037556 
L 658.315983 390.389491 
L 661.239673 477.309554 
L 664.163363 443.884002 
L 667.087053 462.834059 
L 670.010743 362.411835 
L 672.934433 310.074232 
L 675.858124 409.308696 
L 678.781814 389.887459 
L 681.705504 431.838107 
L 684.629194 493.438095 
L 687.552884 425.115946 
L 690.476574 432.399815 
L 693.400264 337.214574 
L 696.323954 341.534664 
L 699.247644 336.933808 
L 702.171335 337.836797 
L 705.095025 344.830945 
L 708.018715 346.949626 
L 710.942405 344.747273 
L 713.866095 344.827884 
L 716.789785 342.244022 
L 722.637165 340.540343 
L 725.560855 345.001332 
L 728.484545 340.146871 
L 728.484545 340.146871 
" style="fill:none;stroke:#4c72b0;stroke-linecap:round;stroke-width:1.5;"/>
   </g>
   <g id="line2d_2">
    <path clip-path="url(#p42c7ecd5f2)" d="M 134.975455 297.910437 
L 137.899145 299.757937 
L 140.822835 302.759564 
L 143.746525 304.029877 
L 146.670215 302.183025 
L 149.593905 306.628343 
L 152.517595 306.794795 
L 155.441285 311.677239 
L 158.364975 312.317372 
L 161.288665 318.649752 
L 164.212356 327.034771 
L 167.136046 329.983001 
L 170.059736 352.452055 
L 172.983426 358.240689 
L 175.907116 368.705334 
L 178.830806 394.736551 
L 181.754496 414.086848 
L 184.678186 316.981454 
L 187.601876 90.798978 
L 190.525567 71.453454 
L 193.449257 225.026714 
L 196.372947 334.659536 
L 199.296637 380.166645 
L 202.220327 314.094474 
L 205.144017 290.936543 
L 208.067707 385.398242 
L 210.991397 513.040877 
L 213.915087 438.046029 
L 216.838777 395.40054 
L 219.762468 343.281929 
L 222.686158 361.710855 
L 225.609848 356.819053 
L 228.533538 392.108335 
L 231.457228 402.270071 
L 234.380918 246.86139 
L 237.304608 71.455576 
L 240.228298 221.315275 
L 243.151988 288.283071 
L 246.075678 71.667982 
L 248.999369 71.871482 
L 251.923059 267.987267 
L 254.846749 354.635221 
L 257.770439 365.852092 
L 260.694129 299.953247 
L 263.617819 376.4558 
L 266.541509 331.760156 
L 269.465199 360.385938 
L 272.388889 438.597382 
L 275.312579 435.208108 
L 278.23627 431.544766 
L 281.15996 389.628853 
L 284.08365 330.555989 
L 287.00734 320.715981 
L 289.93103 362.070343 
L 292.85472 336.609859 
L 295.77841 286.924381 
L 298.7021 330.177839 
L 301.62579 291.760758 
L 304.549481 298.900212 
L 307.473171 335.984331 
L 310.396861 392.96905 
L 313.320551 320.321967 
L 316.244241 353.598504 
L 319.167931 308.436192 
L 322.091621 350.092921 
L 325.015311 409.501925 
L 327.939001 389.86836 
L 330.862691 342.723387 
L 333.786382 310.527309 
L 336.710072 384.909292 
L 339.633762 432.048861 
L 342.557452 418.686987 
L 345.481142 274.059642 
L 348.404832 71.45381 
L 351.328522 303.850115 
L 354.252212 332.615205 
L 357.175902 279.88985 
L 360.099592 220.479745 
L 363.023283 225.833421 
L 365.946973 215.455649 
L 368.870663 208.907565 
L 371.794353 215.529299 
L 374.718043 236.729264 
L 377.641733 298.903325 
L 380.565423 328.950743 
L 383.489113 283.863778 
L 386.412803 320.361267 
L 389.336494 351.247224 
L 392.260184 355.909103 
L 395.183874 353.815222 
L 398.107564 350.429498 
L 401.031254 334.224438 
L 403.954944 347.703443 
L 406.878634 321.996281 
L 409.802324 338.212499 
L 412.726014 359.782132 
L 415.649704 423.729797 
L 418.573395 328.951076 
L 421.497085 343.563814 
L 424.420775 384.293995 
L 427.344465 301.097458 
L 430.268155 342.58254 
L 433.191845 363.482867 
L 436.115535 293.521227 
L 439.039225 357.660827 
L 441.962915 369.119042 
L 444.886605 334.776404 
L 447.810296 293.060926 
L 450.733986 324.619477 
L 453.657676 375.583191 
L 456.581366 420.612387 
L 459.505056 427.181615 
L 462.428746 357.973705 
L 465.352436 375.612469 
L 468.276126 304.355715 
L 471.199816 340.42295 
L 474.123506 278.430872 
L 477.047197 326.220823 
L 479.970887 285.251414 
L 482.894577 381.681205 
L 485.818267 387.270402 
L 488.741957 450.485762 
L 491.665647 505.570391 
L 494.589337 449.959245 
L 497.513027 443.410024 
L 500.436717 419.928319 
L 503.360408 322.639946 
L 506.284098 352.420415 
L 509.207788 393.559022 
L 512.131478 407.303647 
L 515.055168 450.369384 
L 517.978858 379.886666 
L 520.902548 352.729725 
L 523.826238 349.128647 
L 526.749928 375.108339 
L 529.673618 486.100987 
L 532.597309 457.697782 
L 535.520999 377.824354 
L 538.444689 329.887488 
L 544.292069 322.230016 
L 547.215759 352.543912 
L 550.139449 393.917426 
L 553.063139 348.93332 
L 555.986829 362.405049 
L 558.910519 351.700266 
L 561.83421 300.357458 
L 564.7579 321.389746 
L 567.68159 285.878989 
L 570.60528 296.932486 
L 573.52897 219.342198 
L 576.45266 229.506418 
L 579.37635 282.116514 
L 582.30004 227.457609 
L 585.22373 264.318643 
L 588.147421 320.370799 
L 591.071111 322.895579 
L 593.994801 356.729749 
L 596.918491 297.620349 
L 599.842181 376.868353 
L 602.765871 307.315925 
L 605.689561 325.113184 
L 608.613251 437.734078 
L 611.536941 438.409505 
L 614.460631 422.840817 
L 617.384322 410.348649 
L 620.308012 353.86645 
L 623.231702 400.896375 
L 626.155392 486.755776 
L 629.079082 421.117951 
L 632.002772 372.405195 
L 634.926462 352.654763 
L 637.850152 307.12999 
L 640.773842 319.444111 
L 643.697532 303.21014 
L 646.621223 275.726627 
L 649.544913 333.882702 
L 652.468603 367.915698 
L 655.392293 432.32076 
L 658.315983 373.665067 
L 661.239673 471.782412 
L 664.163363 421.229013 
L 667.087053 438.69648 
L 670.010743 347.309149 
L 672.934433 303.991032 
L 675.858124 413.118603 
L 678.781814 415.91217 
L 681.705504 435.936914 
L 684.629194 485.751538 
L 687.552884 393.409518 
L 690.476574 393.867475 
L 693.400264 333.338065 
L 696.323954 340.754577 
L 699.247644 324.483388 
L 702.171335 320.579524 
L 705.095025 334.697857 
L 708.018715 340.315702 
L 710.942405 342.155103 
L 713.866095 342.981889 
L 719.713475 340.288295 
L 722.637165 340.204361 
L 725.560855 342.865335 
L 728.484545 338.071285 
L 728.484545 338.071285 
" style="fill:none;stroke:#dd8452;stroke-dasharray:6,2.25;stroke-dashoffset:0;stroke-width:1.5;"/>
   </g>
   <g id="line2d_3">
    <path clip-path="url(#p42c7ecd5f2)" d="M 134.975455 311.632255 
L 137.899145 313.935088 
L 140.822835 317.994298 
L 143.746525 316.552093 
L 146.670215 322.521539 
L 149.593905 327.180917 
L 152.517595 330.866244 
L 155.441285 337.190945 
L 158.364975 342.707611 
L 161.288665 350.507136 
L 164.212356 354.762548 
L 167.136046 351.207347 
L 170.059736 354.073934 
L 172.983426 365.880951 
L 175.907116 374.471739 
L 178.830806 390.572856 
L 181.754496 412.206432 
L 184.678186 310.791548 
L 187.601876 134.516002 
L 190.525567 71.477348 
L 193.449257 263.307636 
L 196.372947 371.687023 
L 199.296637 375.539816 
L 202.220327 320.80399 
L 205.144017 308.091115 
L 208.067707 219.489376 
L 210.991397 249.798759 
L 213.915087 286.64776 
L 216.838777 309.542065 
L 219.762468 316.128277 
L 222.686158 341.520253 
L 225.609848 299.959823 
L 228.533538 340.40915 
L 231.457228 319.619395 
L 234.380918 219.152309 
L 237.304608 71.468316 
L 240.228298 291.932736 
L 243.151988 324.911385 
L 246.075678 73.212741 
L 248.999369 71.462078 
L 251.923059 155.162616 
L 254.846749 328.139227 
L 257.770439 352.586587 
L 260.694129 277.087906 
L 263.617819 346.626989 
L 266.541509 338.436038 
L 269.465199 384.346675 
L 272.388889 378.63288 
L 275.312579 332.33951 
L 278.23627 282.870314 
L 281.15996 216.685123 
L 284.08365 238.787552 
L 287.00734 247.842612 
L 289.93103 291.837958 
L 292.85472 296.917095 
L 295.77841 317.363558 
L 298.7021 345.082118 
L 301.62579 340.92743 
L 304.549481 269.678302 
L 307.473171 301.079128 
L 310.396861 415.871138 
L 313.320551 334.47897 
L 316.244241 383.396306 
L 319.167931 355.054246 
L 322.091621 416.552197 
L 325.015311 440.834873 
L 327.939001 374.58385 
L 330.862691 368.196062 
L 333.786382 341.505264 
L 336.710072 401.289199 
L 339.633762 445.558631 
L 342.557452 440.814864 
L 345.481142 278.314739 
L 348.404832 71.454416 
L 351.328522 326.249926 
L 354.252212 394.634095 
L 357.175902 331.742858 
L 360.099592 237.41153 
L 363.023283 300.269973 
L 365.946973 207.7043 
L 368.870663 236.324109 
L 371.794353 184.917672 
L 374.718043 249.431627 
L 377.641733 285.570536 
L 380.565423 249.681786 
L 383.489113 304.460864 
L 386.412803 324.728912 
L 389.336494 354.107812 
L 392.260184 344.877241 
L 395.183874 339.905667 
L 398.107564 363.542998 
L 401.031254 372.53616 
L 403.954944 357.781088 
L 406.878634 320.373702 
L 409.802324 357.591864 
L 412.726014 367.470858 
L 415.649704 374.202464 
L 418.573395 360.372663 
L 421.497085 278.94499 
L 424.420775 235.747413 
L 427.344465 138.028782 
L 430.268155 184.885184 
L 433.191845 200.648623 
L 436.115535 203.580176 
L 439.039225 260.177231 
L 441.962915 340.746392 
L 444.886605 306.581609 
L 447.810296 341.283299 
L 450.733986 310.229858 
L 453.657676 357.086474 
L 456.581366 455.722711 
L 459.505056 475.581301 
L 462.428746 365.040033 
L 465.352436 366.329778 
L 468.276126 318.480694 
L 471.199816 233.200577 
L 474.123506 237.774831 
L 477.047197 216.206388 
L 479.970887 315.306808 
L 482.894577 363.524878 
L 485.818267 340.882901 
L 488.741957 338.528665 
L 491.665647 350.317178 
L 494.589337 301.516132 
L 497.513027 326.321338 
L 500.436717 316.134486 
L 503.360408 305.13435 
L 506.284098 364.311017 
L 509.207788 373.610883 
L 512.131478 344.539772 
L 515.055168 366.62158 
L 517.978858 348.189139 
L 520.902548 341.59964 
L 523.826238 372.296723 
L 526.749928 436.638821 
L 529.673618 489.531573 
L 532.597309 468.910316 
L 535.520999 440.086512 
L 538.444689 331.338263 
L 541.368379 331.0905 
L 544.292069 364.537809 
L 547.215759 377.084634 
L 550.139449 330.075855 
L 553.063139 237.330569 
L 555.986829 240.812715 
L 558.910519 209.526666 
L 561.83421 184.337731 
L 564.7579 192.42452 
L 567.68159 146.923883 
L 570.60528 175.921807 
L 573.52897 315.1034 
L 576.45266 315.126906 
L 579.37635 413.941541 
L 582.30004 441.596595 
L 585.22373 392.059992 
L 588.147421 358.89205 
L 591.071111 392.863796 
L 593.994801 362.931549 
L 596.918491 286.995845 
L 599.842181 417.433411 
L 602.765871 367.611057 
L 605.689561 325.60773 
L 608.613251 401.331735 
L 611.536941 431.956794 
L 614.460631 442.872943 
L 617.384322 410.712859 
L 620.308012 338.993968 
L 623.231702 430.341666 
L 626.155392 494.407179 
L 629.079082 367.781934 
L 632.002772 378.143196 
L 634.926462 383.893021 
L 637.850152 261.6456 
L 640.773842 264.514776 
L 643.697532 325.592846 
L 646.621223 336.382332 
L 649.544913 304.065661 
L 652.468603 376.715736 
L 655.392293 424.874515 
L 658.315983 360.745286 
L 661.239673 453.737985 
L 664.163363 413.335934 
L 667.087053 407.436325 
L 670.010743 307.63823 
L 672.934433 267.571636 
L 675.858124 407.484213 
L 678.781814 424.027791 
L 681.705504 439.076992 
L 684.629194 497.847104 
L 687.552884 414.712149 
L 690.476574 391.479186 
L 693.400264 321.616853 
L 696.323954 329.312313 
L 699.247644 323.139687 
L 702.171335 338.189185 
L 705.095025 336.176563 
L 708.018715 339.903848 
L 710.942405 343.07539 
L 713.866095 341.62103 
L 716.789785 344.030639 
L 719.713475 339.077203 
L 722.637165 339.586388 
L 725.560855 339.964975 
L 728.484545 327.907869 
L 728.484545 327.907869 
" style="fill:none;stroke:#55a868;stroke-dasharray:1.5,1.5;stroke-dashoffset:0;stroke-width:1.5;"/>
   </g>
   <g id="line2d_4">
    <path clip-path="url(#p42c7ecd5f2)" d="M 134.975455 298.071292 
L 137.899145 299.790678 
L 140.822835 302.973186 
L 143.746525 304.034844 
L 146.670215 302.404325 
L 149.593905 306.716422 
L 152.517595 306.976498 
L 155.441285 311.891649 
L 158.364975 312.655068 
L 161.288665 319.280265 
L 164.212356 327.679835 
L 167.136046 330.602897 
L 170.059736 353.311529 
L 172.983426 358.937472 
L 175.907116 369.611769 
L 178.830806 395.769928 
L 181.754496 416.092841 
L 184.678186 317.693243 
L 187.601876 88.840474 
L 190.525567 71.453465 
L 193.449257 229.942775 
L 196.372947 336.074491 
L 199.296637 383.35461 
L 202.220327 315.663603 
L 205.144017 287.333804 
L 208.067707 391.308938 
L 210.991397 509.143764 
L 213.915087 451.479472 
L 216.838777 389.138714 
L 219.762468 343.376287 
L 222.686158 362.239366 
L 225.609848 356.565518 
L 228.533538 393.012391 
L 231.457228 404.434209 
L 234.380918 245.142599 
L 237.304608 71.454619 
L 240.228298 230.606169 
L 243.151988 291.954214 
L 246.075678 71.621473 
L 248.999369 71.889397 
L 251.923059 264.14628 
L 254.846749 358.71458 
L 257.770439 366.060293 
L 260.694129 303.447619 
L 263.617819 382.556123 
L 266.541509 329.233399 
L 269.465199 363.840677 
L 272.388889 446.593442 
L 275.312579 444.146212 
L 278.23627 436.257435 
L 281.15996 387.982978 
L 284.08365 327.356306 
L 287.00734 326.780799 
L 289.93103 362.090509 
L 292.85472 327.257068 
L 295.77841 287.50573 
L 298.7021 329.588934 
L 301.62579 292.26627 
L 304.549481 301.594015 
L 307.473171 336.415301 
L 310.396861 390.937102 
L 313.320551 317.469529 
L 316.244241 357.853759 
L 319.167931 319.499326 
L 322.091621 409.674481 
L 325.015311 412.392001 
L 327.939001 376.79556 
L 330.862691 352.112277 
L 333.786382 314.617004 
L 336.710072 382.884969 
L 339.633762 436.973684 
L 342.557452 443.311801 
L 345.481142 319.158307 
L 348.404832 75.684248 
L 351.328522 71.455826 
L 354.252212 202.590734 
L 357.175902 226.302712 
L 360.099592 287.817874 
L 363.023283 370.824418 
L 365.946973 252.533979 
L 368.870663 238.776481 
L 371.794353 259.134217 
L 374.718043 285.765846 
L 377.641733 303.880827 
L 380.565423 339.887425 
L 383.489113 286.642828 
L 386.412803 326.391333 
L 389.336494 354.270853 
L 392.260184 355.231507 
L 395.183874 354.145345 
L 398.107564 348.756898 
L 401.031254 335.862478 
L 403.954944 347.29033 
L 406.878634 326.983315 
L 409.802324 341.196776 
L 412.726014 358.945744 
L 415.649704 427.57507 
L 418.573395 330.829795 
L 421.497085 352.464892 
L 424.420775 391.834407 
L 427.344465 304.990006 
L 430.268155 341.648786 
L 433.191845 361.184092 
L 436.115535 293.204991 
L 439.039225 356.062594 
L 441.962915 370.34103 
L 444.886605 335.25792 
L 447.810296 290.60329 
L 450.733986 322.230873 
L 453.657676 380.996543 
L 456.581366 427.307403 
L 459.505056 428.588543 
L 462.428746 362.220372 
L 465.352436 384.272693 
L 468.276126 312.410156 
L 471.199816 346.110895 
L 474.123506 287.732365 
L 477.047197 329.303411 
L 479.970887 280.572885 
L 482.894577 380.322935 
L 485.818267 386.812725 
L 488.741957 451.889262 
L 491.665647 506.811618 
L 494.589337 451.269313 
L 497.513027 443.72264 
L 500.436717 420.132637 
L 503.360408 322.718983 
L 506.284098 352.67862 
L 509.207788 394.383568 
L 512.131478 408.76098 
L 515.055168 451.652902 
L 517.978858 379.633656 
L 520.902548 353.718625 
L 523.826238 348.467649 
L 526.749928 373.613472 
L 529.673618 486.49633 
L 532.597309 458.127755 
L 535.520999 377.837332 
L 538.444689 333.569964 
L 541.368379 328.16429 
L 544.292069 325.037889 
L 547.215759 352.599145 
L 550.139449 396.588877 
L 553.063139 350.676824 
L 555.986829 364.670593 
L 558.910519 352.423703 
L 561.83421 301.494357 
L 564.7579 323.918934 
L 567.68159 291.691515 
L 570.60528 296.335781 
L 573.52897 252.547044 
L 576.45266 314.531461 
L 579.37635 338.036218 
L 582.30004 332.164803 
L 585.22373 366.470397 
L 588.147421 339.245124 
L 591.071111 302.202998 
L 593.994801 375.799087 
L 596.918491 332.892595 
L 599.842181 374.500702 
L 602.765871 328.899603 
L 605.689561 335.403786 
L 608.613251 421.575314 
L 611.536941 432.157684 
L 614.460631 434.598303 
L 617.384322 409.669933 
L 620.308012 350.380404 
L 623.231702 402.293053 
L 626.155392 484.429612 
L 629.079082 422.16455 
L 632.002772 371.290595 
L 634.926462 349.295134 
L 637.850152 307.697696 
L 640.773842 322.284987 
L 643.697532 303.966965 
L 646.621223 274.042519 
L 649.544913 328.428546 
L 652.468603 368.5212 
L 655.392293 433.980417 
L 658.315983 372.34447 
L 661.239673 470.533524 
L 664.163363 420.506327 
L 667.087053 437.928601 
L 670.010743 351.64164 
L 672.934433 308.124067 
L 675.858124 414.109095 
L 678.781814 414.74405 
L 681.705504 432.23478 
L 684.629194 483.711369 
L 687.552884 389.997296 
L 690.476574 392.419236 
L 693.400264 335.730779 
L 696.323954 341.316652 
L 699.247644 326.755124 
L 702.171335 321.544008 
L 705.095025 335.362895 
L 708.018715 340.668159 
L 710.942405 343.55813 
L 713.866095 345.223944 
L 719.713475 342.29177 
L 722.637165 341.942338 
L 725.560855 344.771706 
L 728.484545 340.625169 
L 728.484545 340.625169 
" style="fill:none;stroke:#c44e52;stroke-dasharray:4.5,1.875,2.25,1.875;stroke-dashoffset:0;stroke-width:1.5;"/>
   </g>
   <g id="line2d_5">
    <path clip-path="url(#p42c7ecd5f2)" d="M 134.975455 303.06242 
L 137.899145 304.780179 
L 140.822835 307.584431 
L 143.746525 309.054375 
L 146.670215 307.268668 
L 149.593905 311.188657 
L 152.517595 312.075521 
L 155.441285 315.518717 
L 158.364975 316.012808 
L 161.288665 322.778432 
L 164.212356 330.101758 
L 167.136046 332.843501 
L 170.059736 355.364483 
L 172.983426 361.034623 
L 175.907116 370.308604 
L 178.830806 396.831183 
L 181.754496 425.050709 
L 184.678186 328.034584 
L 187.601876 126.713412 
L 190.525567 71.453187 
L 193.449257 232.427626 
L 196.372947 348.558055 
L 199.296637 405.116702 
L 202.220327 325.89084 
L 205.144017 281.548213 
L 208.067707 396.545467 
L 210.991397 521.504688 
L 213.915087 447.856077 
L 216.838777 397.440603 
L 219.762468 340.877287 
L 222.686158 366.833279 
L 225.609848 370.4551 
L 228.533538 405.456147 
L 231.457228 411.081898 
L 234.380918 245.802041 
L 237.304608 71.454263 
L 240.228298 233.657083 
L 243.151988 295.495634 
L 246.075678 71.602563 
L 248.999369 72.073139 
L 251.923059 280.116834 
L 254.846749 367.627708 
L 257.770439 378.477989 
L 260.694129 298.737887 
L 263.617819 377.228856 
L 266.541509 332.498004 
L 269.465199 370.680021 
L 272.388889 450.321462 
L 275.312579 449.748526 
L 278.23627 445.666054 
L 281.15996 406.686111 
L 284.08365 338.891564 
L 287.00734 330.03157 
L 289.93103 366.952281 
L 292.85472 332.438644 
L 295.77841 290.465451 
L 298.7021 326.70972 
L 301.62579 289.233913 
L 304.549481 295.072009 
L 307.473171 330.333639 
L 310.396861 393.757883 
L 313.320551 325.613624 
L 316.244241 353.600988 
L 319.167931 321.188647 
L 322.091621 380.78537 
L 325.015311 414.939308 
L 327.939001 376.37804 
L 333.786382 339.609579 
L 336.710072 351.946822 
L 339.633762 430.915582 
L 342.557452 434.80332 
L 345.481142 315.057157 
L 348.404832 71.46472 
L 351.328522 88.486487 
L 354.252212 305.225928 
L 357.175902 394.069169 
L 360.099592 405.166164 
L 363.023283 465.457063 
L 365.946973 328.713247 
L 368.870663 329.161987 
L 371.794353 316.589364 
L 374.718043 375.463175 
L 377.641733 422.696945 
L 380.565423 412.686636 
L 383.489113 362.7595 
L 386.412803 331.425468 
L 389.336494 354.877195 
L 392.260184 358.144827 
L 395.183874 376.383322 
L 398.107564 334.401104 
L 401.031254 354.839014 
L 403.954944 341.338357 
L 406.878634 322.73754 
L 409.802324 364.647051 
L 412.726014 369.193444 
L 415.649704 454.431602 
L 418.573395 348.580582 
L 421.497085 370.277682 
L 424.420775 411.723989 
L 427.344465 325.095134 
L 433.191845 371.749462 
L 436.115535 296.73812 
L 439.039225 358.184721 
L 441.962915 378.670833 
L 444.886605 350.452428 
L 447.810296 302.206933 
L 450.733986 328.897014 
L 453.657676 367.897963 
L 456.581366 418.601321 
L 459.505056 416.47825 
L 462.428746 365.780733 
L 465.352436 393.754315 
L 468.276126 329.031652 
L 471.199816 355.85324 
L 474.123506 290.344211 
L 477.047197 311.366145 
L 479.970887 279.933382 
L 482.894577 384.615006 
L 485.818267 397.887787 
L 488.741957 460.120282 
L 491.665647 516.56339 
L 494.589337 450.468377 
L 497.513027 447.191319 
L 500.436717 418.660087 
L 503.360408 324.590269 
L 506.284098 352.480826 
L 509.207788 405.614781 
L 512.131478 418.126469 
L 515.055168 453.770447 
L 517.978858 384.19955 
L 520.902548 366.737434 
L 523.826238 341.980186 
L 526.749928 358.84007 
L 529.673618 480.599625 
L 532.597309 433.693652 
L 535.520999 366.207663 
L 538.444689 321.536295 
L 541.368379 327.982184 
L 544.292069 333.634485 
L 547.215759 344.070551 
L 550.139449 397.641738 
L 553.063139 245.497016 
L 555.986829 350.560918 
L 558.910519 279.635633 
L 561.83421 223.303551 
L 564.7579 273.343253 
L 567.68159 278.339697 
L 570.60528 337.748315 
L 573.52897 329.596665 
L 576.45266 416.920676 
L 579.37635 395.607236 
L 582.30004 358.339367 
L 585.22373 336.332766 
L 588.147421 359.054322 
L 591.071111 307.86546 
L 593.994801 343.396051 
L 596.918491 322.828698 
L 599.842181 340.729602 
L 602.765871 324.444088 
L 605.689561 297.474675 
L 608.613251 403.309919 
L 611.536941 422.93166 
L 614.460631 445.487622 
L 617.384322 406.493931 
L 620.308012 357.014783 
L 623.231702 399.942612 
L 626.155392 482.008791 
L 629.079082 427.972022 
L 632.002772 369.926798 
L 634.926462 334.544697 
L 637.850152 291.509952 
L 640.773842 297.764396 
L 643.697532 286.319631 
L 646.621223 264.726632 
L 649.544913 318.64363 
L 652.468603 363.759506 
L 655.392293 417.320076 
L 658.315983 358.661113 
L 661.239673 448.830478 
L 664.163363 411.580466 
L 667.087053 444.730691 
L 670.010743 352.583369 
L 672.934433 318.660368 
L 675.858124 413.462141 
L 678.781814 397.714146 
L 681.705504 429.863736 
L 684.629194 474.87712 
L 687.552884 385.649327 
L 690.476574 386.927424 
L 693.400264 332.548673 
L 696.323954 335.885932 
L 699.247644 330.380827 
L 702.171335 322.395279 
L 705.095025 335.689397 
L 708.018715 341.47233 
L 710.942405 341.840581 
L 713.866095 342.984722 
L 716.789785 339.554364 
L 719.713475 339.879554 
L 722.637165 338.134546 
L 725.560855 340.930928 
L 728.484545 337.851471 
L 728.484545 337.851471 
" style="fill:none;stroke:#8172b3;stroke-dasharray:7.5,1.5,1.5,1.5;stroke-dashoffset:0;stroke-width:1.5;"/>
   </g>
   <g id="line2d_6"/>
   <g id="line2d_7"/>
   <g id="line2d_8"/>
   <g id="line2d_9"/>
   <g id="line2d_10"/>
   <g id="patch_3">
    <path d="M 105.3 529.9416 
L 105.3 71.4528 
" style="fill:none;stroke:#262626;stroke-linecap:square;stroke-linejoin:miter;stroke-width:1.25;"/>
   </g>
   <g id="patch_4">
    <path d="M 758.16 529.9416 
L 758.16 71.4528 
" style="fill:none;stroke:#262626;stroke-linecap:square;stroke-linejoin:miter;stroke-width:1.25;"/>
   </g>
   <g id="patch_5">
    <path d="M 105.3 529.9416 
L 758.16 529.9416 
" style="fill:none;stroke:#262626;stroke-linecap:square;stroke-linejoin:miter;stroke-width:1.25;"/>
   </g>
   <g id="patch_6">
    <path d="M 105.3 71.4528 
L 758.16 71.4528 
" style="fill:none;stroke:#262626;stroke-linecap:square;stroke-linejoin:miter;stroke-width:1.25;"/>
   </g>
   <g id="text_16">
    <!-- Activations for &gt;H&lt; -->
    <g style="fill:#262626;" transform="translate(381.04125 65.4528)scale(0.12 -0.12)">
     <defs>
      <path d="M -9 0 
L 1750 4581 
L 2403 4581 
L 4278 0 
L 3588 0 
L 3053 1388 
L 1138 1388 
L 634 0 
L -9 0 
z
M 1313 1881 
L 2866 1881 
L 2388 3150 
Q 2169 3728 2063 4100 
Q 1975 3659 1816 3225 
L 1313 1881 
z
" id="ArialMT-41" transform="scale(0.015625)"/>
      <path d="M 2588 1216 
L 3141 1144 
Q 3050 572 2676 248 
Q 2303 -75 1759 -75 
Q 1078 -75 664 370 
Q 250 816 250 1647 
Q 250 2184 428 2587 
Q 606 2991 970 3192 
Q 1334 3394 1763 3394 
Q 2303 3394 2647 3120 
Q 2991 2847 3088 2344 
L 2541 2259 
Q 2463 2594 2264 2762 
Q 2066 2931 1784 2931 
Q 1359 2931 1093 2626 
Q 828 2322 828 1663 
Q 828 994 1084 691 
Q 1341 388 1753 388 
Q 2084 388 2306 591 
Q 2528 794 2588 1216 
z
" id="ArialMT-63" transform="scale(0.015625)"/>
      <path d="M 1650 503 
L 1731 6 
Q 1494 -44 1306 -44 
Q 1000 -44 831 53 
Q 663 150 594 308 
Q 525 466 525 972 
L 525 2881 
L 113 2881 
L 113 3319 
L 525 3319 
L 525 4141 
L 1084 4478 
L 1084 3319 
L 1650 3319 
L 1650 2881 
L 1084 2881 
L 1084 941 
Q 1084 700 1114 631 
Q 1144 563 1211 522 
Q 1278 481 1403 481 
Q 1497 481 1650 503 
z
" id="ArialMT-74" transform="scale(0.015625)"/>
      <path d="M 425 3934 
L 425 4581 
L 988 4581 
L 988 3934 
L 425 3934 
z
M 425 0 
L 425 3319 
L 988 3319 
L 988 0 
L 425 0 
z
" id="ArialMT-69" transform="scale(0.015625)"/>
      <path d="M 1344 0 
L 81 3319 
L 675 3319 
L 1388 1331 
Q 1503 1009 1600 663 
Q 1675 925 1809 1294 
L 2547 3319 
L 3125 3319 
L 1869 0 
L 1344 0 
z
" id="ArialMT-76" transform="scale(0.015625)"/>
      <path d="M 2588 409 
Q 2275 144 1986 34 
Q 1697 -75 1366 -75 
Q 819 -75 525 192 
Q 231 459 231 875 
Q 231 1119 342 1320 
Q 453 1522 633 1644 
Q 813 1766 1038 1828 
Q 1203 1872 1538 1913 
Q 2219 1994 2541 2106 
Q 2544 2222 2544 2253 
Q 2544 2597 2384 2738 
Q 2169 2928 1744 2928 
Q 1347 2928 1158 2789 
Q 969 2650 878 2297 
L 328 2372 
Q 403 2725 575 2942 
Q 747 3159 1072 3276 
Q 1397 3394 1825 3394 
Q 2250 3394 2515 3294 
Q 2781 3194 2906 3042 
Q 3031 2891 3081 2659 
Q 3109 2516 3109 2141 
L 3109 1391 
Q 3109 606 3145 398 
Q 3181 191 3288 0 
L 2700 0 
Q 2613 175 2588 409 
z
M 2541 1666 
Q 2234 1541 1622 1453 
Q 1275 1403 1131 1340 
Q 988 1278 909 1158 
Q 831 1038 831 891 
Q 831 666 1001 516 
Q 1172 366 1500 366 
Q 1825 366 2078 508 
Q 2331 650 2450 897 
Q 2541 1088 2541 1459 
L 2541 1666 
z
" id="ArialMT-61" transform="scale(0.015625)"/>
      <path d="M 213 1659 
Q 213 2581 725 3025 
Q 1153 3394 1769 3394 
Q 2453 3394 2887 2945 
Q 3322 2497 3322 1706 
Q 3322 1066 3130 698 
Q 2938 331 2570 128 
Q 2203 -75 1769 -75 
Q 1072 -75 642 372 
Q 213 819 213 1659 
z
M 791 1659 
Q 791 1022 1069 705 
Q 1347 388 1769 388 
Q 2188 388 2466 706 
Q 2744 1025 2744 1678 
Q 2744 2294 2464 2611 
Q 2184 2928 1769 2928 
Q 1347 2928 1069 2612 
Q 791 2297 791 1659 
z
" id="ArialMT-6f" transform="scale(0.015625)"/>
      <path d="M 422 0 
L 422 3319 
L 928 3319 
L 928 2847 
Q 1294 3394 1984 3394 
Q 2284 3394 2536 3286 
Q 2788 3178 2913 3003 
Q 3038 2828 3088 2588 
Q 3119 2431 3119 2041 
L 3119 0 
L 2556 0 
L 2556 2019 
Q 2556 2363 2490 2533 
Q 2425 2703 2258 2804 
Q 2091 2906 1866 2906 
Q 1506 2906 1245 2678 
Q 984 2450 984 1813 
L 984 0 
L 422 0 
z
" id="ArialMT-6e" transform="scale(0.015625)"/>
      <path d="M 197 991 
L 753 1078 
Q 800 744 1014 566 
Q 1228 388 1613 388 
Q 2000 388 2187 545 
Q 2375 703 2375 916 
Q 2375 1106 2209 1216 
Q 2094 1291 1634 1406 
Q 1016 1563 777 1677 
Q 538 1791 414 1992 
Q 291 2194 291 2438 
Q 291 2659 392 2848 
Q 494 3038 669 3163 
Q 800 3259 1026 3326 
Q 1253 3394 1513 3394 
Q 1903 3394 2198 3281 
Q 2494 3169 2634 2976 
Q 2775 2784 2828 2463 
L 2278 2388 
Q 2241 2644 2061 2787 
Q 1881 2931 1553 2931 
Q 1166 2931 1000 2803 
Q 834 2675 834 2503 
Q 834 2394 903 2306 
Q 972 2216 1119 2156 
Q 1203 2125 1616 2013 
Q 2213 1853 2448 1751 
Q 2684 1650 2818 1456 
Q 2953 1263 2953 975 
Q 2953 694 2789 445 
Q 2625 197 2315 61 
Q 2006 -75 1616 -75 
Q 969 -75 630 194 
Q 291 463 197 991 
z
" id="ArialMT-73" transform="scale(0.015625)"/>
      <path id="ArialMT-20" transform="scale(0.015625)"/>
      <path d="M 556 0 
L 556 2881 
L 59 2881 
L 59 3319 
L 556 3319 
L 556 3672 
Q 556 4006 616 4169 
Q 697 4388 901 4523 
Q 1106 4659 1475 4659 
Q 1713 4659 2000 4603 
L 1916 4113 
Q 1741 4144 1584 4144 
Q 1328 4144 1222 4034 
Q 1116 3925 1116 3625 
L 1116 3319 
L 1763 3319 
L 1763 2881 
L 1116 2881 
L 1116 0 
L 556 0 
z
" id="ArialMT-66" transform="scale(0.015625)"/>
      <path d="M 416 0 
L 416 3319 
L 922 3319 
L 922 2816 
Q 1116 3169 1280 3281 
Q 1444 3394 1641 3394 
Q 1925 3394 2219 3213 
L 2025 2691 
Q 1819 2813 1613 2813 
Q 1428 2813 1281 2702 
Q 1134 2591 1072 2394 
Q 978 2094 978 1738 
L 978 0 
L 416 0 
z
" id="ArialMT-72" transform="scale(0.015625)"/>
      <path d="M 3384 2003 
L 350 706 
L 350 1266 
L 2753 2263 
L 350 3250 
L 350 3809 
L 3384 2528 
L 3384 2003 
z
" id="ArialMT-3e" transform="scale(0.015625)"/>
      <path d="M 513 0 
L 513 4581 
L 1119 4581 
L 1119 2700 
L 3500 2700 
L 3500 4581 
L 4106 4581 
L 4106 0 
L 3500 0 
L 3500 2159 
L 1119 2159 
L 1119 0 
L 513 0 
z
" id="ArialMT-48" transform="scale(0.015625)"/>
      <path d="M 350 2003 
L 350 2528 
L 3384 3809 
L 3384 3250 
L 978 2263 
L 3384 1266 
L 3384 706 
L 350 2003 
z
" id="ArialMT-3c" transform="scale(0.015625)"/>
     </defs>
     <use xlink:href="#ArialMT-41"/>
     <use x="66.699219" xlink:href="#ArialMT-63"/>
     <use x="116.699219" xlink:href="#ArialMT-74"/>
     <use x="144.482422" xlink:href="#ArialMT-69"/>
     <use x="166.699219" xlink:href="#ArialMT-76"/>
     <use x="216.699219" xlink:href="#ArialMT-61"/>
     <use x="272.314453" xlink:href="#ArialMT-74"/>
     <use x="300.097656" xlink:href="#ArialMT-69"/>
     <use x="322.314453" xlink:href="#ArialMT-6f"/>
     <use x="377.929688" xlink:href="#ArialMT-6e"/>
     <use x="433.544922" xlink:href="#ArialMT-73"/>
     <use x="483.544922" xlink:href="#ArialMT-20"/>
     <use x="511.328125" xlink:href="#ArialMT-66"/>
     <use x="539.111328" xlink:href="#ArialMT-6f"/>
     <use x="594.726562" xlink:href="#ArialMT-72"/>
     <use x="628.027344" xlink:href="#ArialMT-20"/>
     <use x="655.810547" xlink:href="#ArialMT-3e"/>
     <use x="714.208984" xlink:href="#ArialMT-48"/>
     <use x="786.425781" xlink:href="#ArialMT-3c"/>
    </g>
   </g>
   <g id="legend_1">
    <g id="patch_7">
     <path d="M 640.044062 158.514363 
L 750.46 158.514363 
Q 752.66 158.514363 752.66 156.314363 
L 752.66 79.1528 
Q 752.66 76.9528 750.46 76.9528 
L 640.044062 76.9528 
Q 637.844062 76.9528 637.844062 79.1528 
L 637.844062 156.314363 
Q 637.844062 158.514363 640.044062 158.514363 
z
" style="fill:#ffffff;opacity:0.8;stroke:#cccccc;stroke-linejoin:miter;"/>
    </g>
    <g id="line2d_11">
     <path d="M 642.244062 85.376394 
L 664.244062 85.376394 
" style="fill:none;stroke:#4c72b0;stroke-linecap:round;stroke-width:1.5;"/>
    </g>
    <g id="line2d_12"/>
    <g id="text_17">
     <!-- regular -->
     <g style="fill:#262626;" transform="translate(673.044062 89.226394)scale(0.11 -0.11)">
      <defs>
       <path d="M 2694 1069 
L 3275 997 
Q 3138 488 2766 206 
Q 2394 -75 1816 -75 
Q 1088 -75 661 373 
Q 234 822 234 1631 
Q 234 2469 665 2931 
Q 1097 3394 1784 3394 
Q 2450 3394 2872 2941 
Q 3294 2488 3294 1666 
Q 3294 1616 3291 1516 
L 816 1516 
Q 847 969 1125 678 
Q 1403 388 1819 388 
Q 2128 388 2347 550 
Q 2566 713 2694 1069 
z
M 847 1978 
L 2700 1978 
Q 2663 2397 2488 2606 
Q 2219 2931 1791 2931 
Q 1403 2931 1139 2672 
Q 875 2413 847 1978 
z
" id="ArialMT-65" transform="scale(0.015625)"/>
       <path d="M 319 -275 
L 866 -356 
Q 900 -609 1056 -725 
Q 1266 -881 1628 -881 
Q 2019 -881 2231 -725 
Q 2444 -569 2519 -288 
Q 2563 -116 2559 434 
Q 2191 0 1641 0 
Q 956 0 581 494 
Q 206 988 206 1678 
Q 206 2153 378 2554 
Q 550 2956 876 3175 
Q 1203 3394 1644 3394 
Q 2231 3394 2613 2919 
L 2613 3319 
L 3131 3319 
L 3131 450 
Q 3131 -325 2973 -648 
Q 2816 -972 2473 -1159 
Q 2131 -1347 1631 -1347 
Q 1038 -1347 672 -1080 
Q 306 -813 319 -275 
z
M 784 1719 
Q 784 1066 1043 766 
Q 1303 466 1694 466 
Q 2081 466 2343 764 
Q 2606 1063 2606 1700 
Q 2606 2309 2336 2618 
Q 2066 2928 1684 2928 
Q 1309 2928 1046 2623 
Q 784 2319 784 1719 
z
" id="ArialMT-67" transform="scale(0.015625)"/>
       <path d="M 2597 0 
L 2597 488 
Q 2209 -75 1544 -75 
Q 1250 -75 995 37 
Q 741 150 617 320 
Q 494 491 444 738 
Q 409 903 409 1263 
L 409 3319 
L 972 3319 
L 972 1478 
Q 972 1038 1006 884 
Q 1059 663 1231 536 
Q 1403 409 1656 409 
Q 1909 409 2131 539 
Q 2353 669 2445 892 
Q 2538 1116 2538 1541 
L 2538 3319 
L 3100 3319 
L 3100 0 
L 2597 0 
z
" id="ArialMT-75" transform="scale(0.015625)"/>
       <path d="M 409 0 
L 409 4581 
L 972 4581 
L 972 0 
L 409 0 
z
" id="ArialMT-6c" transform="scale(0.015625)"/>
      </defs>
      <use xlink:href="#ArialMT-72"/>
      <use x="33.300781" xlink:href="#ArialMT-65"/>
      <use x="88.916016" xlink:href="#ArialMT-67"/>
      <use x="144.53125" xlink:href="#ArialMT-75"/>
      <use x="200.146484" xlink:href="#ArialMT-6c"/>
      <use x="222.363281" xlink:href="#ArialMT-61"/>
      <use x="277.978516" xlink:href="#ArialMT-72"/>
     </g>
    </g>
    <g id="line2d_13">
     <path d="M 642.244062 101.0978 
L 664.244062 101.0978 
" style="fill:none;stroke:#dd8452;stroke-dasharray:6,2.25;stroke-dashoffset:0;stroke-width:1.5;"/>
    </g>
    <g id="line2d_14"/>
    <g id="text_18">
     <!-- splitted_3s -->
     <g style="fill:#262626;" transform="translate(673.044062 104.9478)scale(0.11 -0.11)">
      <defs>
       <path d="M 422 -1272 
L 422 3319 
L 934 3319 
L 934 2888 
Q 1116 3141 1344 3267 
Q 1572 3394 1897 3394 
Q 2322 3394 2647 3175 
Q 2972 2956 3137 2557 
Q 3303 2159 3303 1684 
Q 3303 1175 3120 767 
Q 2938 359 2589 142 
Q 2241 -75 1856 -75 
Q 1575 -75 1351 44 
Q 1128 163 984 344 
L 984 -1272 
L 422 -1272 
z
M 931 1641 
Q 931 1000 1190 694 
Q 1450 388 1819 388 
Q 2194 388 2461 705 
Q 2728 1022 2728 1688 
Q 2728 2322 2467 2637 
Q 2206 2953 1844 2953 
Q 1484 2953 1207 2617 
Q 931 2281 931 1641 
z
" id="ArialMT-70" transform="scale(0.015625)"/>
       <path d="M 2575 0 
L 2575 419 
Q 2259 -75 1647 -75 
Q 1250 -75 917 144 
Q 584 363 401 755 
Q 219 1147 219 1656 
Q 219 2153 384 2558 
Q 550 2963 881 3178 
Q 1213 3394 1622 3394 
Q 1922 3394 2156 3267 
Q 2391 3141 2538 2938 
L 2538 4581 
L 3097 4581 
L 3097 0 
L 2575 0 
z
M 797 1656 
Q 797 1019 1065 703 
Q 1334 388 1700 388 
Q 2069 388 2326 689 
Q 2584 991 2584 1609 
Q 2584 2291 2321 2609 
Q 2059 2928 1675 2928 
Q 1300 2928 1048 2622 
Q 797 2316 797 1656 
z
" id="ArialMT-64" transform="scale(0.015625)"/>
       <path d="M -97 -1272 
L -97 -866 
L 3631 -866 
L 3631 -1272 
L -97 -1272 
z
" id="ArialMT-5f" transform="scale(0.015625)"/>
       <path d="M 269 1209 
L 831 1284 
Q 928 806 1161 595 
Q 1394 384 1728 384 
Q 2125 384 2398 659 
Q 2672 934 2672 1341 
Q 2672 1728 2419 1979 
Q 2166 2231 1775 2231 
Q 1616 2231 1378 2169 
L 1441 2663 
Q 1497 2656 1531 2656 
Q 1891 2656 2178 2843 
Q 2466 3031 2466 3422 
Q 2466 3731 2256 3934 
Q 2047 4138 1716 4138 
Q 1388 4138 1169 3931 
Q 950 3725 888 3313 
L 325 3413 
Q 428 3978 793 4289 
Q 1159 4600 1703 4600 
Q 2078 4600 2393 4439 
Q 2709 4278 2876 4000 
Q 3044 3722 3044 3409 
Q 3044 3113 2884 2869 
Q 2725 2625 2413 2481 
Q 2819 2388 3044 2092 
Q 3269 1797 3269 1353 
Q 3269 753 2831 336 
Q 2394 -81 1725 -81 
Q 1122 -81 723 278 
Q 325 638 269 1209 
z
" id="ArialMT-33" transform="scale(0.015625)"/>
      </defs>
      <use xlink:href="#ArialMT-73"/>
      <use x="50" xlink:href="#ArialMT-70"/>
      <use x="105.615234" xlink:href="#ArialMT-6c"/>
      <use x="127.832031" xlink:href="#ArialMT-69"/>
      <use x="150.048828" xlink:href="#ArialMT-74"/>
      <use x="177.832031" xlink:href="#ArialMT-74"/>
      <use x="205.615234" xlink:href="#ArialMT-65"/>
      <use x="261.230469" xlink:href="#ArialMT-64"/>
      <use x="316.845703" xlink:href="#ArialMT-5f"/>
      <use x="372.460938" xlink:href="#ArialMT-33"/>
      <use x="428.076172" xlink:href="#ArialMT-73"/>
     </g>
    </g>
    <g id="line2d_15">
     <path d="M 642.244062 116.6903 
L 664.244062 116.6903 
" style="fill:none;stroke:#55a868;stroke-dasharray:1.5,1.5;stroke-dashoffset:0;stroke-width:1.5;"/>
    </g>
    <g id="line2d_16"/>
    <g id="text_19">
     <!-- splitted_1s -->
     <g style="fill:#262626;" transform="translate(673.044062 120.5403)scale(0.11 -0.11)">
      <use xlink:href="#ArialMT-73"/>
      <use x="50" xlink:href="#ArialMT-70"/>
      <use x="105.615234" xlink:href="#ArialMT-6c"/>
      <use x="127.832031" xlink:href="#ArialMT-69"/>
      <use x="150.048828" xlink:href="#ArialMT-74"/>
      <use x="177.832031" xlink:href="#ArialMT-74"/>
      <use x="205.615234" xlink:href="#ArialMT-65"/>
      <use x="261.230469" xlink:href="#ArialMT-64"/>
      <use x="316.845703" xlink:href="#ArialMT-5f"/>
      <use x="372.460938" xlink:href="#ArialMT-31"/>
      <use x="428.076172" xlink:href="#ArialMT-73"/>
     </g>
    </g>
    <g id="line2d_17">
     <path d="M 642.244062 132.384206 
L 664.244062 132.384206 
" style="fill:none;stroke:#c44e52;stroke-dasharray:4.5,1.875,2.25,1.875;stroke-dashoffset:0;stroke-width:1.5;"/>
    </g>
    <g id="line2d_18"/>
    <g id="text_20">
     <!-- overlap_1f_3s -->
     <g style="fill:#262626;" transform="translate(673.044062 136.234206)scale(0.11 -0.11)">
      <use xlink:href="#ArialMT-6f"/>
      <use x="55.615234" xlink:href="#ArialMT-76"/>
      <use x="105.615234" xlink:href="#ArialMT-65"/>
      <use x="161.230469" xlink:href="#ArialMT-72"/>
      <use x="194.53125" xlink:href="#ArialMT-6c"/>
      <use x="216.748047" xlink:href="#ArialMT-61"/>
      <use x="272.363281" xlink:href="#ArialMT-70"/>
      <use x="327.978516" xlink:href="#ArialMT-5f"/>
      <use x="383.59375" xlink:href="#ArialMT-31"/>
      <use x="439.208984" xlink:href="#ArialMT-66"/>
      <use x="466.992188" xlink:href="#ArialMT-5f"/>
      <use x="522.607422" xlink:href="#ArialMT-33"/>
      <use x="578.222656" xlink:href="#ArialMT-73"/>
     </g>
    </g>
    <g id="line2d_19">
     <path d="M 642.244062 148.078113 
L 664.244062 148.078113 
" style="fill:none;stroke:#8172b3;stroke-dasharray:7.5,1.5,1.5,1.5;stroke-dashoffset:0;stroke-width:1.5;"/>
    </g>
    <g id="line2d_20"/>
    <g id="text_21">
     <!-- overlap_10f_3s -->
     <g style="fill:#262626;" transform="translate(673.044062 151.928112)scale(0.11 -0.11)">
      <use xlink:href="#ArialMT-6f"/>
      <use x="55.615234" xlink:href="#ArialMT-76"/>
      <use x="105.615234" xlink:href="#ArialMT-65"/>
      <use x="161.230469" xlink:href="#ArialMT-72"/>
      <use x="194.53125" xlink:href="#ArialMT-6c"/>
      <use x="216.748047" xlink:href="#ArialMT-61"/>
      <use x="272.363281" xlink:href="#ArialMT-70"/>
      <use x="327.978516" xlink:href="#ArialMT-5f"/>
      <use x="383.59375" xlink:href="#ArialMT-31"/>
      <use x="439.208984" xlink:href="#ArialMT-30"/>
      <use x="494.824219" xlink:href="#ArialMT-66"/>
      <use x="522.607422" xlink:href="#ArialMT-5f"/>
      <use x="578.222656" xlink:href="#ArialMT-33"/>
      <use x="633.837891" xlink:href="#ArialMT-73"/>
     </g>
    </g>
   </g>
  </g>
 </g>
 <defs>
  <clipPath id="p42c7ecd5f2">
   <rect height="458.4888" width="652.86" x="105.3" y="71.4528"/>
  </clipPath>
 </defs>
</svg>
