<?xml version="1.0" encoding="utf-8" standalone="no"?>
<!DOCTYPE svg PUBLIC "-//W3C//DTD SVG 1.1//EN"
  "http://www.w3.org/Graphics/SVG/1.1/DTD/svg11.dtd">
<svg height="595.44pt" version="1.1" viewBox="0 0 842.4 595.44" width="842.4pt" xmlns="http://www.w3.org/2000/svg" xmlns:xlink="http://www.w3.org/1999/xlink">
 <metadata>
  <rdf:RDF xmlns:cc="http://creativecommons.org/ns#" xmlns:dc="http://purl.org/dc/elements/1.1/" xmlns:rdf="http://www.w3.org/1999/02/22-rdf-syntax-ns#">
   <cc:Work>
    <dc:type rdf:resource="http://purl.org/dc/dcmitype/StillImage"/>
    <dc:date>2021-06-01T00:54:13.756813</dc:date>
    <dc:format>image/svg+xml</dc:format>
    <dc:creator>
     <cc:Agent>
      <dc:title>Matplotlib v3.4.1, https://matplotlib.org/</dc:title>
     </cc:Agent>
    </dc:creator>
   </cc:Work>
  </rdf:RDF>
 </metadata>
 <defs>
  <style type="text/css">*{stroke-linecap:butt;stroke-linejoin:round;}</style>
 </defs>
 <g id="figure_1">
  <g id="patch_1">
   <path d="M 0 595.44 
L 842.4 595.44 
L 842.4 0 
L 0 0 
z
" style="fill:#ffffff;"/>
  </g>
  <g id="axes_1">
   <g id="patch_2">
    <path d="M 105.3 529.9416 
L 758.16 529.9416 
L 758.16 71.4528 
L 105.3 71.4528 
z
" style="fill:#ffffff;"/>
   </g>
   <g id="matplotlib.axis_1">
    <g id="xtick_1">
     <g id="text_1">
      <!-- 0 -->
      <g style="fill:#262626;" transform="translate(131.916939 547.315194)scale(0.11 -0.11)">
       <defs>
        <path d="M 266 2259 
Q 266 3072 433 3567 
Q 600 4063 929 4331 
Q 1259 4600 1759 4600 
Q 2128 4600 2406 4451 
Q 2684 4303 2865 4023 
Q 3047 3744 3150 3342 
Q 3253 2941 3253 2259 
Q 3253 1453 3087 958 
Q 2922 463 2592 192 
Q 2263 -78 1759 -78 
Q 1097 -78 719 397 
Q 266 969 266 2259 
z
M 844 2259 
Q 844 1131 1108 757 
Q 1372 384 1759 384 
Q 2147 384 2411 759 
Q 2675 1134 2675 2259 
Q 2675 3391 2411 3762 
Q 2147 4134 1753 4134 
Q 1366 4134 1134 3806 
Q 844 3388 844 2259 
z
" id="ArialMT-30" transform="scale(0.015625)"/>
       </defs>
       <use xlink:href="#ArialMT-30"/>
      </g>
     </g>
    </g>
    <g id="xtick_2">
     <g id="text_2">
      <!-- 25 -->
      <g style="fill:#262626;" transform="translate(201.950676 547.315194)scale(0.11 -0.11)">
       <defs>
        <path d="M 3222 541 
L 3222 0 
L 194 0 
Q 188 203 259 391 
Q 375 700 629 1000 
Q 884 1300 1366 1694 
Q 2113 2306 2375 2664 
Q 2638 3022 2638 3341 
Q 2638 3675 2398 3904 
Q 2159 4134 1775 4134 
Q 1369 4134 1125 3890 
Q 881 3647 878 3216 
L 300 3275 
Q 359 3922 746 4261 
Q 1134 4600 1788 4600 
Q 2447 4600 2831 4234 
Q 3216 3869 3216 3328 
Q 3216 3053 3103 2787 
Q 2991 2522 2730 2228 
Q 2469 1934 1863 1422 
Q 1356 997 1212 845 
Q 1069 694 975 541 
L 3222 541 
z
" id="ArialMT-32" transform="scale(0.015625)"/>
        <path d="M 266 1200 
L 856 1250 
Q 922 819 1161 601 
Q 1400 384 1738 384 
Q 2144 384 2425 690 
Q 2706 997 2706 1503 
Q 2706 1984 2436 2262 
Q 2166 2541 1728 2541 
Q 1456 2541 1237 2417 
Q 1019 2294 894 2097 
L 366 2166 
L 809 4519 
L 3088 4519 
L 3088 3981 
L 1259 3981 
L 1013 2750 
Q 1425 3038 1878 3038 
Q 2478 3038 2890 2622 
Q 3303 2206 3303 1553 
Q 3303 931 2941 478 
Q 2500 -78 1738 -78 
Q 1113 -78 717 272 
Q 322 622 266 1200 
z
" id="ArialMT-35" transform="scale(0.015625)"/>
       </defs>
       <use xlink:href="#ArialMT-32"/>
       <use x="55.615234" xlink:href="#ArialMT-35"/>
      </g>
     </g>
    </g>
    <g id="xtick_3">
     <g id="text_3">
      <!-- 50 -->
      <g style="fill:#262626;" transform="translate(275.042928 547.315194)scale(0.11 -0.11)">
       <use xlink:href="#ArialMT-35"/>
       <use x="55.615234" xlink:href="#ArialMT-30"/>
      </g>
     </g>
    </g>
    <g id="xtick_4">
     <g id="text_4">
      <!-- 75 -->
      <g style="fill:#262626;" transform="translate(348.135181 547.315194)scale(0.11 -0.11)">
       <defs>
        <path d="M 303 3981 
L 303 4522 
L 3269 4522 
L 3269 4084 
Q 2831 3619 2401 2847 
Q 1972 2075 1738 1259 
Q 1569 684 1522 0 
L 944 0 
Q 953 541 1156 1306 
Q 1359 2072 1739 2783 
Q 2119 3494 2547 3981 
L 303 3981 
z
" id="ArialMT-37" transform="scale(0.015625)"/>
       </defs>
       <use xlink:href="#ArialMT-37"/>
       <use x="55.615234" xlink:href="#ArialMT-35"/>
      </g>
     </g>
    </g>
    <g id="xtick_5">
     <g id="text_5">
      <!-- 100 -->
      <g style="fill:#262626;" transform="translate(418.168918 547.315194)scale(0.11 -0.11)">
       <defs>
        <path d="M 2384 0 
L 1822 0 
L 1822 3584 
Q 1619 3391 1289 3197 
Q 959 3003 697 2906 
L 697 3450 
Q 1169 3672 1522 3987 
Q 1875 4303 2022 4600 
L 2384 4600 
L 2384 0 
z
" id="ArialMT-31" transform="scale(0.015625)"/>
       </defs>
       <use xlink:href="#ArialMT-31"/>
       <use x="55.615234" xlink:href="#ArialMT-30"/>
       <use x="111.230469" xlink:href="#ArialMT-30"/>
      </g>
     </g>
    </g>
    <g id="xtick_6">
     <g id="text_6">
      <!-- 125 -->
      <g style="fill:#262626;" transform="translate(491.261171 547.315194)scale(0.11 -0.11)">
       <use xlink:href="#ArialMT-31"/>
       <use x="55.615234" xlink:href="#ArialMT-32"/>
       <use x="111.230469" xlink:href="#ArialMT-35"/>
      </g>
     </g>
    </g>
    <g id="xtick_7">
     <g id="text_7">
      <!-- 150 -->
      <g style="fill:#262626;" transform="translate(564.353423 547.315194)scale(0.11 -0.11)">
       <use xlink:href="#ArialMT-31"/>
       <use x="55.615234" xlink:href="#ArialMT-35"/>
       <use x="111.230469" xlink:href="#ArialMT-30"/>
      </g>
     </g>
    </g>
    <g id="xtick_8">
     <g id="text_8">
      <!-- 175 -->
      <g style="fill:#262626;" transform="translate(637.445676 547.315194)scale(0.11 -0.11)">
       <use xlink:href="#ArialMT-31"/>
       <use x="55.615234" xlink:href="#ArialMT-37"/>
       <use x="111.230469" xlink:href="#ArialMT-35"/>
      </g>
     </g>
    </g>
    <g id="xtick_9">
     <g id="text_9">
      <!-- 200 -->
      <g style="fill:#262626;" transform="translate(710.537928 547.315194)scale(0.11 -0.11)">
       <use xlink:href="#ArialMT-32"/>
       <use x="55.615234" xlink:href="#ArialMT-30"/>
       <use x="111.230469" xlink:href="#ArialMT-30"/>
      </g>
     </g>
    </g>
   </g>
   <g id="matplotlib.axis_2">
    <g id="ytick_1">
     <g id="text_10">
      <!-- −25 -->
      <g style="fill:#262626;" transform="translate(77.14125 533.878397)scale(0.11 -0.11)">
       <defs>
        <path d="M 3381 1997 
L 356 1997 
L 356 2522 
L 3381 2522 
L 3381 1997 
z
" id="ArialMT-2212" transform="scale(0.015625)"/>
       </defs>
       <use xlink:href="#ArialMT-2212"/>
       <use x="58.398438" xlink:href="#ArialMT-32"/>
       <use x="114.013672" xlink:href="#ArialMT-35"/>
      </g>
     </g>
    </g>
    <g id="ytick_2">
     <g id="text_11">
      <!-- −20 -->
      <g style="fill:#262626;" transform="translate(77.14125 442.180637)scale(0.11 -0.11)">
       <use xlink:href="#ArialMT-2212"/>
       <use x="58.398438" xlink:href="#ArialMT-32"/>
       <use x="114.013672" xlink:href="#ArialMT-30"/>
      </g>
     </g>
    </g>
    <g id="ytick_3">
     <g id="text_12">
      <!-- −15 -->
      <g style="fill:#262626;" transform="translate(77.14125 350.482877)scale(0.11 -0.11)">
       <use xlink:href="#ArialMT-2212"/>
       <use x="58.398438" xlink:href="#ArialMT-31"/>
       <use x="114.013672" xlink:href="#ArialMT-35"/>
      </g>
     </g>
    </g>
    <g id="ytick_4">
     <g id="text_13">
      <!-- −10 -->
      <g style="fill:#262626;" transform="translate(77.14125 258.785117)scale(0.11 -0.11)">
       <use xlink:href="#ArialMT-2212"/>
       <use x="58.398438" xlink:href="#ArialMT-31"/>
       <use x="114.013672" xlink:href="#ArialMT-30"/>
      </g>
     </g>
    </g>
    <g id="ytick_5">
     <g id="text_14">
      <!-- −5 -->
      <g style="fill:#262626;" transform="translate(83.258281 167.087357)scale(0.11 -0.11)">
       <use xlink:href="#ArialMT-2212"/>
       <use x="58.398438" xlink:href="#ArialMT-35"/>
      </g>
     </g>
    </g>
    <g id="ytick_6">
     <g id="text_15">
      <!-- 0 -->
      <g style="fill:#262626;" transform="translate(89.682969 75.389597)scale(0.11 -0.11)">
       <use xlink:href="#ArialMT-30"/>
      </g>
     </g>
    </g>
   </g>
   <g id="line2d_1">
    <path clip-path="url(#p3937a9174c)" d="M 134.975455 569.094624 
L 137.899145 570.140244 
L 140.822835 570.436943 
L 143.746525 570.467481 
L 146.670215 571.808576 
L 149.593905 572.81089 
L 152.517595 573.620361 
L 155.441285 575.510221 
L 158.364975 577.931776 
L 161.288665 578.54361 
L 164.212356 580.602423 
L 167.136046 584.316765 
L 168.811482 596.44 
M 185.436799 596.44 
L 187.601876 544.29498 
L 189.942525 596.44 
M 201.668253 596.44 
L 202.220327 583.663865 
L 205.144017 575.831302 
L 205.810027 596.44 
M 210.142913 596.44 
L 210.991397 567.876308 
L 214.563723 596.44 
M 221.803186 596.44 
L 222.686158 589.341491 
L 225.609848 572.285737 
L 227.3963 596.44 
M 232.137716 596.44 
L 234.380918 514.57681 
L 237.930881 596.44 
M 243.379445 596.44 
L 246.075678 494.193591 
L 248.999369 484.27479 
L 251.923059 576.061574 
L 254.846749 567.162298 
L 257.770439 595.525346 
L 260.694129 528.020293 
L 262.348695 596.44 
M 265.236225 596.44 
L 266.541509 554.112899 
L 269.465199 542.261318 
L 272.388889 560.126227 
L 275.312579 577.128637 
L 278.23627 581.176443 
L 281.15996 568.797225 
L 284.08365 540.210865 
L 287.00734 552.133945 
L 289.93103 593.00137 
L 292.85472 544.153242 
L 295.77841 523.918653 
L 298.7021 579.596645 
L 301.62579 583.382837 
L 304.549481 552.443378 
L 307.473171 525.742541 
L 310.396861 548.634659 
L 313.320551 515.729713 
L 316.244241 549.440736 
L 319.167931 521.552821 
L 322.091621 545.30604 
L 325.015311 510.433894 
L 327.939001 548.784373 
L 330.862691 584.944865 
L 333.786382 557.992102 
L 336.710072 516.712369 
L 339.633762 577.807177 
L 341.919182 596.44 
M 342.7557 596.44 
L 345.481142 524.900679 
L 348.404832 489.820682 
L 351.328522 475.336652 
L 354.252212 550.393344 
L 357.175902 540.117678 
L 360.099592 524.901029 
L 362.81941 596.44 
M 363.210779 596.44 
L 365.946973 518.184359 
L 368.870663 517.073852 
L 371.794353 538.764235 
L 374.718621 596.44 
M 382.215954 596.44 
L 383.489113 556.103711 
L 386.412803 536.659389 
L 389.336494 578.30753 
L 392.260184 553.903544 
L 395.183874 568.323247 
L 398.107564 515.542501 
L 401.031254 489.453987 
L 403.954944 493.736579 
L 406.878634 541.92656 
L 409.802324 503.63712 
L 412.726014 489.808334 
L 415.649704 576.76516 
L 418.573395 551.67277 
L 421.497085 592.777359 
L 421.644186 596.44 
M 433.061 596.44 
L 433.191845 595.273106 
L 436.115535 523.023027 
L 439.039225 540.78618 
L 441.962915 596.164604 
L 444.886605 589.953709 
L 447.810296 509.494998 
L 450.733986 472.616893 
L 453.657676 543.883546 
L 456.581366 525.245336 
L 458.033833 596.44 
M 461.327804 596.44 
L 462.428746 552.88304 
L 465.352436 559.688174 
L 468.276126 543.060889 
L 471.199816 544.399465 
L 473.179568 596.44 
M 475.057765 596.44 
L 477.047197 543.603182 
L 479.970887 458.515333 
L 482.894577 577.890604 
L 485.818267 582.533594 
L 488.741957 585.539558 
L 491.665647 542.960042 
L 494.589337 544.246673 
L 496.251679 596.44 
M 498.709974 596.44 
L 500.436717 539.307543 
L 503.360408 468.909721 
L 506.284098 554.337435 
L 507.578839 596.44 
M 516.122591 596.44 
L 517.978858 534.552653 
L 520.902548 579.533751 
L 523.826238 593.605018 
L 526.749928 549.505729 
L 529.351604 596.44 
M 534.053003 596.44 
L 535.520999 545.68099 
L 538.444689 524.283808 
L 541.368379 595.001277 
L 541.608084 596.44 
M 544.991397 596.44 
L 547.215759 545.200436 
L 550.139449 583.430374 
L 553.063139 492.301073 
L 555.986829 565.7744 
L 558.910519 541.609397 
L 561.83421 540.732101 
L 564.7579 550.393344 
L 567.68159 513.077676 
L 570.60528 517.26953 
L 573.52897 513.221723 
L 576.45266 496.074742 
L 579.37635 533.245313 
L 582.30004 545.96821 
L 585.22373 540.194879 
L 588.147421 526.767312 
L 591.071111 521.546174 
L 593.994801 545.53166 
L 596.918491 478.50926 
L 599.842181 536.656135 
L 602.765871 524.793395 
L 605.689561 526.681472 
L 608.613251 518.563402 
L 611.356013 596.44 
M 614.67368 596.44 
L 617.384322 458.942543 
L 620.308012 493.759036 
L 625.347053 596.44 
M 628.876867 596.44 
L 629.079082 595.237881 
L 632.002772 574.10088 
L 634.926462 546.520892 
L 637.850152 582.317943 
L 640.773842 510.462507 
L 643.697532 450.926964 
L 646.621223 496.658941 
L 649.544913 515.171329 
L 652.468603 587.105435 
L 655.392293 547.957518 
L 658.315983 514.75073 
L 661.239673 577.395324 
L 664.163363 513.81988 
L 667.087053 572.528882 
L 670.010743 580.179131 
L 672.934433 562.555513 
L 675.858124 568.499825 
L 678.781814 533.278824 
L 682.039638 596.44 
M 686.322024 596.44 
L 687.552884 569.932078 
L 688.294479 596.44 
M 701.668927 596.44 
L 702.171335 594.307205 
L 705.095025 596.138964 
L 708.018715 590.328729 
L 710.942405 592.393174 
L 713.866095 591.307083 
L 716.789785 592.36568 
L 719.713475 590.862838 
L 722.637165 588.675053 
L 725.560855 592.25301 
L 728.484545 592.803454 
L 728.484545 592.803454 
" style="fill:none;stroke:#4c72b0;stroke-linecap:round;stroke-width:1.5;"/>
   </g>
   <g id="line2d_2">
    <path clip-path="url(#p3937a9174c)" d="M 134.975455 559.917957 
L 137.899145 563.808668 
L 140.822835 563.91095 
L 143.746525 564.271278 
L 146.670215 565.885846 
L 149.593905 567.330237 
L 152.517595 566.073128 
L 155.441285 567.257094 
L 158.364975 567.13288 
L 161.288665 567.967151 
L 164.212356 568.245976 
L 167.136046 568.870298 
L 170.059736 586.69603 
L 172.983426 592.700927 
L 173.618176 596.44 
M 185.002309 596.44 
L 187.601876 518.689504 
L 190.126489 596.44 
M 202.098257 596.44 
L 202.220327 594.600687 
L 202.779355 596.44 
M 210.858755 596.44 
L 210.991397 592.46086 
L 213.915087 575.379186 
L 215.296905 596.44 
M 221.268478 596.44 
L 222.686158 588.664315 
L 225.609848 566.343733 
L 228.690685 596.44 
M 231.985416 596.44 
L 234.380918 510.139083 
L 237.304608 569.535196 
L 238.510903 596.44 
M 243.231356 596.44 
L 246.075678 502.662965 
L 248.999369 511.439426 
L 251.923059 573.059003 
L 254.846749 565.115728 
L 257.612168 596.44 
M 257.866875 596.44 
L 260.694129 543.881343 
L 262.056001 596.44 
M 265.750447 596.44 
L 266.541509 574.081921 
L 269.465199 557.718175 
L 272.388889 590.787421 
L 273.31171 596.44 
M 281.00284 596.44 
L 281.15996 595.845202 
L 284.08365 553.593832 
L 287.00734 567.118783 
L 288.603515 596.44 
M 291.63166 596.44 
L 292.85472 578.902049 
L 295.77841 541.512992 
L 298.500719 596.44 
M 302.519218 596.44 
L 304.549481 567.192416 
L 307.473171 543.278289 
L 310.396861 542.074035 
L 313.320551 533.296979 
L 316.244241 566.669396 
L 319.167931 554.278634 
L 322.091621 554.859021 
L 325.015311 506.074311 
L 327.939001 575.107462 
L 330.862691 581.976714 
L 333.786382 547.019636 
L 336.710072 552.489656 
L 339.633762 592.666227 
L 342.557452 591.560547 
L 345.481142 521.295648 
L 348.404832 500.393852 
L 351.328522 561.604374 
L 353.758714 596.44 
M 354.519174 596.44 
L 360.099592 445.883699 
L 363.023283 445.034177 
L 365.946973 485.376518 
L 368.870663 468.906713 
L 371.794353 480.757769 
L 374.718043 535.515685 
L 380.486104 596.44 
M 380.596793 596.44 
L 383.489113 520.30061 
L 386.412803 550.470825 
L 389.336494 582.874823 
L 392.260184 560.080508 
L 395.183874 575.408429 
L 398.107564 517.877411 
L 401.031254 486.108753 
L 403.954944 525.721553 
L 406.878634 539.788447 
L 409.802324 543.598495 
L 412.726014 552.745499 
L 415.597072 596.44 
M 415.704625 596.44 
L 418.573395 554.59968 
L 421.50179 596.44 
M 426.341512 596.44 
L 427.344465 575.014975 
L 430.268155 580.233804 
L 433.191845 561.648308 
L 436.115535 509.898281 
L 439.039225 575.031905 
L 440.559048 596.44 
M 443.062435 596.44 
L 444.886605 563.632474 
L 447.810296 489.530139 
L 450.733986 507.338416 
L 453.657676 546.867229 
L 456.581366 561.802535 
L 457.529213 596.44 
M 461.326362 596.44 
L 462.428746 552.737104 
L 465.352436 573.681261 
L 468.276126 531.913243 
L 471.199816 548.858601 
L 474.123506 592.969468 
L 477.047197 574.158912 
L 479.970887 462.965268 
L 482.894577 569.97304 
L 485.608131 596.44 
M 488.945867 596.44 
L 491.665647 561.598182 
L 494.589337 551.757037 
L 496.152335 596.44 
M 498.72772 596.44 
L 500.436717 541.710874 
L 503.360408 468.927701 
L 506.284098 559.262328 
L 507.630167 596.44 
M 516.67653 596.44 
L 517.978858 563.766622 
L 520.902548 589.166172 
L 523.826238 589.079281 
L 526.749928 561.590732 
L 528.824281 596.44 
M 533.819539 596.44 
L 535.520999 541.802101 
L 538.444689 521.802262 
L 543.833461 596.44 
M 544.494066 596.44 
L 547.215759 510.211246 
L 550.139449 555.981002 
L 553.063139 501.190065 
L 555.986829 498.711493 
L 561.83421 430.779335 
L 564.7579 503.405798 
L 567.68159 480.228453 
L 570.60528 579.490271 
L 573.52897 461.658629 
L 576.45266 458.701706 
L 579.37635 504.295722 
L 582.30004 468.530084 
L 585.22373 551.624463 
L 588.147421 520.898836 
L 591.071111 540.922112 
L 593.994801 570.422112 
L 596.918491 500.538424 
L 599.842181 587.127647 
L 602.765871 543.454763 
L 605.689561 570.273657 
L 608.127419 596.44 
M 616.38285 596.44 
L 617.384322 563.785197 
L 620.308012 551.604944 
L 623.231702 582.058847 
L 623.801831 596.44 
M 634.738637 596.44 
L 634.926462 595.000227 
L 636.179876 596.44 
M 637.952785 596.44 
L 640.773842 543.703225 
L 643.697532 451.842319 
L 646.621223 519.125144 
L 649.544913 548.861574 
L 652.468603 594.05437 
L 655.392293 578.300429 
L 658.315983 494.733087 
L 661.239673 581.492767 
L 664.163363 510.788765 
L 667.087053 583.869722 
L 670.010743 595.48365 
L 672.934433 564.703979 
L 675.858124 573.710574 
L 678.781814 559.620278 
L 681.441967 596.44 
M 686.326984 596.44 
L 687.552884 567.636311 
L 688.389949 596.44 
M 701.033075 596.44 
L 702.171335 583.304691 
L 705.095025 584.594051 
L 708.018715 583.42037 
L 710.942405 585.785362 
L 713.866095 583.621015 
L 716.789785 585.392118 
L 719.713475 584.615914 
L 722.637165 581.040686 
L 725.560855 585.098951 
L 728.484545 581.019838 
L 728.484545 581.019838 
" style="fill:none;stroke:#dd8452;stroke-dasharray:6,2.25;stroke-dashoffset:0;stroke-width:1.5;"/>
   </g>
   <g id="line2d_3">
    <path clip-path="url(#p3937a9174c)" d="M 134.975455 561.172896 
L 137.899145 564.799754 
L 140.822835 565.745297 
L 143.746525 563.623869 
L 146.670215 572.537592 
L 149.593905 572.441572 
L 152.517595 573.966627 
L 155.441285 595.134236 
L 158.364975 596.281787 
L 161.288665 585.23163 
L 164.212356 586.365644 
L 167.136046 578.505621 
L 170.059736 581.467231 
L 172.291095 596.44 
M 184.29363 596.44 
L 184.678186 582.134473 
L 187.601876 532.257376 
L 190.525567 567.670626 
L 193.449257 592.090773 
L 196.372947 588.403469 
L 197.250519 596.44 
M 201.569904 596.44 
L 202.220327 591.078804 
L 203.753019 596.44 
M 205.287273 596.44 
L 208.067707 502.005027 
L 210.991397 564.167317 
L 213.915087 594.432713 
L 216.838777 573.239709 
L 219.762468 556.295401 
L 222.686158 548.990475 
L 225.609848 502.87141 
L 228.533538 552.101869 
L 231.457228 588.369434 
L 234.380918 518.88805 
L 237.304608 568.538023 
L 238.272617 596.44 
M 243.641745 596.44 
L 246.075678 491.925179 
L 248.999369 531.798089 
L 251.923059 526.714563 
L 254.846749 589.067388 
L 256.440392 596.44 
M 258.018142 596.44 
L 260.694129 529.966331 
L 262.821368 596.44 
M 264.952227 596.44 
L 266.541509 566.798157 
L 269.465199 580.671228 
L 272.388889 596.069913 
L 278.23627 559.270548 
L 281.15996 493.22867 
L 284.08365 473.402927 
L 287.00734 465.616536 
L 289.93103 502.563971 
L 292.85472 512.064413 
L 295.77841 538.125082 
L 298.00734 596.44 
M 304.037827 596.44 
L 304.549481 584.271921 
L 307.473171 569.334341 
L 310.298725 596.44 
M 310.855184 596.44 
L 313.320551 591.376028 
L 316.244241 595.63081 
L 319.167931 583.467138 
L 322.091621 574.369176 
L 325.015311 529.588723 
L 327.939001 589.629096 
L 328.624761 596.44 
M 332.21808 596.44 
L 333.786382 570.72154 
L 336.710072 564.520335 
L 338.58903 596.44 
M 344.120762 596.44 
L 345.481142 553.25883 
L 348.404832 515.642299 
L 351.094488 596.44 
M 351.634457 596.44 
L 354.252212 536.283599 
L 357.175902 596.163205 
L 360.099592 505.350857 
L 363.023283 570.235319 
L 365.946973 498.623903 
L 368.870663 538.471104 
L 371.794353 480.461909 
L 374.718043 587.613693 
L 375.988452 596.44 
M 379.05273 596.44 
L 380.565423 584.125775 
L 383.489113 566.181951 
L 386.412803 580.385792 
L 387.55238 596.44 
M 393.328442 596.44 
L 395.183874 595.089216 
L 398.107564 540.761938 
L 401.031254 525.03752 
L 403.954944 536.371329 
L 406.878634 551.804854 
L 409.802324 590.753245 
L 412.726014 572.154912 
L 415.649704 581.238952 
L 417.156913 596.44 
M 419.207286 596.44 
L 421.497085 544.83479 
L 424.420775 491.898034 
L 427.344465 455.760349 
L 430.268155 472.340272 
L 433.191845 476.438624 
L 436.115535 453.705034 
L 439.039225 539.388102 
L 441.737518 596.44 
M 442.21168 596.44 
L 444.886605 545.194874 
L 447.810296 570.141293 
L 450.733986 514.339856 
L 453.657676 530.131226 
L 456.581366 577.212099 
L 456.912826 596.44 
M 463.614644 596.44 
L 465.352436 570.629648 
L 468.276126 567.60273 
L 471.199816 503.449593 
L 474.123506 560.867137 
L 477.047197 526.041479 
L 479.970887 502.80995 
L 482.894577 568.498426 
L 484.79522 596.44 
M 487.655472 596.44 
L 488.741957 587.545692 
L 491.665647 581.880939 
L 494.589337 489.65792 
L 497.513027 541.476858 
L 500.436717 491.843536 
L 503.360408 509.798029 
L 506.284098 579.197454 
L 509.207788 534.977484 
L 512.131478 548.455597 
L 515.055168 574.182873 
L 517.978858 566.561448 
L 519.670761 596.44 
M 536.291736 596.44 
L 538.444689 572.567465 
L 541.186611 596.44 
M 544.529259 596.44 
L 547.215759 496.487435 
L 550.139449 586.399575 
L 553.063139 537.270698 
L 555.986829 491.477436 
L 558.910519 507.042136 
L 561.83421 475.694146 
L 564.7579 472.320963 
L 567.68159 469.554401 
L 570.60528 514.015802 
L 573.52897 547.044087 
L 576.45266 469.151782 
L 579.37635 526.270108 
L 582.30004 550.846789 
L 585.22373 590.505448 
L 588.147421 557.431129 
L 591.071111 575.772151 
L 593.994801 570.22437 
L 596.918491 486.08745 
L 599.742053 596.44 
M 600.834939 596.44 
L 602.765871 588.828615 
L 605.689561 555.965051 
L 608.613251 566.87109 
L 610.370021 596.44 
M 615.288863 596.44 
L 617.384322 514.38645 
L 620.308012 485.266401 
L 623.231702 568.827342 
L 624.347709 596.44 
M 627.965949 596.44 
L 629.079082 568.942181 
L 630.966706 596.44 
M 635.213193 596.44 
L 637.850152 524.592296 
L 640.773842 505.265925 
L 643.697532 521.055406 
L 646.621223 582.360339 
L 649.544913 526.242718 
L 652.387878 596.44 
M 652.731536 596.44 
L 655.392293 576.26953 
L 658.315983 504.311323 
L 661.239673 568.474535 
L 664.163363 511.464647 
L 667.087053 582.998302 
L 670.010743 590.477359 
L 672.934433 534.015256 
L 675.858124 587.159024 
L 678.781814 573.013704 
L 680.318748 596.44 
M 687.14111 596.44 
L 687.552884 586.730905 
L 687.9234 596.44 
M 702.86015 596.44 
L 705.095025 590.530983 
L 708.018715 589.88277 
L 710.942405 596.147184 
L 713.866095 592.196762 
L 716.789785 592.848333 
L 719.713475 590.429646 
L 722.637165 590.474595 
L 725.560855 591.340348 
L 728.484545 582.128317 
L 728.484545 582.128317 
" style="fill:none;stroke:#55a868;stroke-dasharray:1.5,1.5;stroke-dashoffset:0;stroke-width:1.5;"/>
   </g>
   <g id="line2d_4">
    <path clip-path="url(#p3937a9174c)" d="M 134.975455 559.843554 
L 137.899145 563.70978 
L 143.746525 564.104983 
L 146.670215 565.893751 
L 149.593905 567.339122 
L 152.517595 566.189716 
L 155.441285 567.535569 
L 158.364975 567.590068 
L 161.288665 568.476249 
L 164.212356 568.687108 
L 167.136046 569.471707 
L 170.059736 587.403114 
L 172.983426 593.384855 
L 173.502756 596.44 
M 185.036519 596.44 
L 187.601876 519.218121 
L 190.09563 596.44 
M 202.118078 596.44 
L 202.220327 594.891615 
L 203.028593 596.44 
M 210.710197 596.44 
L 210.991397 587.416791 
L 213.915087 583.191321 
L 215.115009 596.44 
M 221.508503 596.44 
L 222.686158 589.658164 
L 225.609848 565.84387 
L 228.519245 596.44 
M 232.040533 596.44 
L 234.380918 510.802897 
L 238.327063 596.44 
M 243.298658 596.44 
L 246.075678 503.301243 
L 248.999369 511.438867 
L 251.923059 573.499435 
L 254.846749 565.576239 
L 257.770439 595.834568 
L 260.694129 543.689723 
L 262.052199 596.44 
M 265.65903 596.44 
L 266.541509 570.149093 
L 269.465199 557.872296 
L 272.388889 587.16553 
L 273.534718 596.44 
M 280.472433 596.44 
L 281.15996 593.440683 
L 284.08365 553.582709 
L 287.00734 576.458317 
L 288.245493 596.44 
M 291.505332 596.44 
L 292.85472 573.12452 
L 295.77841 541.392382 
L 298.485351 596.44 
M 302.638073 596.44 
L 304.549481 570.293386 
L 307.473171 543.576073 
L 310.396861 544.267451 
L 313.320551 532.486984 
L 316.244241 568.310024 
L 319.167931 556.586644 
L 322.091621 566.594259 
L 325.015311 502.585274 
L 327.939001 563.933652 
L 330.862691 594.933521 
L 333.786382 544.840982 
L 336.710072 558.876675 
L 338.769348 596.44 
M 342.95739 596.44 
L 345.481142 527.16332 
L 348.404832 472.34258 
L 351.328522 535.848799 
L 354.252212 575.410668 
L 357.175902 497.858857 
L 360.099592 462.524696 
L 363.023283 585.47649 
L 365.946973 495.395991 
L 368.870663 487.024002 
L 371.794353 506.156479 
L 374.718043 562.794705 
L 377.641733 578.835342 
L 379.29871 596.44 
M 381.0037 596.44 
L 383.489113 520.119798 
L 386.412803 554.06865 
L 389.336494 583.583306 
L 392.260184 559.561267 
L 395.183874 575.777258 
L 398.107564 517.24326 
L 401.031254 487.655215 
L 403.954944 523.529116 
L 406.878634 542.370245 
L 412.726014 551.431374 
L 415.419804 596.44 
M 415.903022 596.44 
L 418.573395 555.947106 
L 421.190782 596.44 
M 426.47501 596.44 
L 427.344465 576.613313 
L 430.268155 579.148517 
L 433.191845 558.221815 
L 436.115535 508.113151 
L 439.039225 574.842629 
L 440.535414 596.44 
M 443.069217 596.44 
L 444.886605 562.589478 
L 447.810296 488.967557 
L 450.733986 501.958399 
L 453.657676 552.996515 
L 456.581366 562.71684 
L 457.527568 596.44 
M 461.279105 596.44 
L 462.428746 550.767455 
L 465.352436 576.531949 
L 468.276126 531.350941 
L 471.199816 554.668415 
L 473.807359 596.44 
M 474.822718 596.44 
L 477.047197 580.327655 
L 479.970887 459.698424 
L 482.894577 570.684636 
L 485.634688 596.44 
M 489.078323 596.44 
L 491.665647 561.778154 
L 494.589337 552.454501 
L 496.115246 596.44 
M 498.734898 596.44 
L 500.436717 540.321191 
L 503.360408 466.983132 
L 506.284098 558.691176 
L 507.656028 596.44 
M 516.670327 596.44 
L 517.978858 563.337874 
L 520.902548 589.377905 
L 523.826238 587.780407 
L 526.749928 560.558474 
L 528.855151 596.44 
M 533.799243 596.44 
L 535.520999 541.181138 
L 538.444689 524.358 
L 543.754719 596.44 
M 544.51978 596.44 
L 547.215759 510.272951 
L 550.139449 555.210394 
L 553.063139 499.496792 
L 555.986829 499.951181 
L 558.910519 464.951043 
L 561.83421 432.410204 
L 564.7579 504.152375 
L 567.68159 480.423956 
L 570.60528 574.607214 
L 573.52897 451.01333 
L 576.45266 508.083593 
L 579.37635 488.862477 
L 582.30004 481.012948 
L 585.173951 596.44 
M 585.286473 596.44 
L 588.147421 505.274076 
L 591.071111 510.412556 
L 593.994801 577.659527 
L 596.918491 524.003339 
L 599.842181 574.671962 
L 602.765871 562.401706 
L 605.689561 574.631385 
L 608.613251 589.818337 
L 609.008806 596.44 
M 616.308663 596.44 
L 617.384322 556.050157 
L 620.308012 547.252532 
L 623.231702 583.774192 
L 623.795228 596.44 
M 637.948965 596.44 
L 640.773842 543.754051 
L 643.697532 451.552475 
L 646.621223 519.766711 
L 649.544913 545.639923 
L 652.468603 594.224058 
L 655.392293 577.954408 
L 658.315983 494.185266 
L 661.239673 581.827594 
L 664.163363 510.676165 
L 667.087053 581.965275 
L 670.010743 596.121894 
L 672.934433 563.630935 
L 675.858124 572.151869 
L 678.781814 558.941562 
L 681.634729 596.44 
M 686.295424 596.44 
L 687.552884 567.635506 
L 688.392188 596.44 
M 701.010102 596.44 
L 702.171335 582.007496 
L 705.095025 584.104997 
L 708.018715 583.056439 
L 710.942405 586.213202 
L 713.866095 584.050533 
L 716.789785 585.632675 
L 719.713475 584.94511 
L 722.637165 581.054258 
L 725.560855 585.608714 
L 728.484545 581.209359 
L 728.484545 581.209359 
" style="fill:none;stroke:#c44e52;stroke-dasharray:4.5,1.875,2.25,1.875;stroke-dashoffset:0;stroke-width:1.5;"/>
   </g>
   <g id="line2d_5">
    <path clip-path="url(#p3937a9174c)" d="M 134.975455 562.433118 
L 137.899145 566.344468 
L 140.822835 566.517548 
L 143.746525 567.170308 
L 146.670215 568.588045 
L 149.593905 570.655603 
L 152.517595 569.976258 
L 155.441285 571.096035 
L 158.364975 571.218849 
L 161.288665 572.805014 
L 164.212356 571.67023 
L 167.136046 571.813263 
L 170.059736 587.21856 
L 172.983426 593.132894 
L 173.642008 596.44 
M 185.208495 596.44 
L 187.601876 538.220158 
L 189.868466 596.44 
M 202.126033 596.44 
L 202.220327 594.650183 
L 203.392418 596.44 
M 210.813524 596.44 
L 210.991397 590.755064 
L 213.915087 573.809497 
L 215.475214 596.44 
M 221.15604 596.44 
L 225.609848 572.74177 
L 228.220945 596.44 
M 232.119972 596.44 
L 234.380918 514.414329 
L 237.304608 571.770168 
L 238.368612 596.44 
M 243.30965 596.44 
L 246.075678 499.485494 
L 248.999369 501.894001 
L 251.923059 580.449001 
L 254.846749 567.334119 
L 257.441721 596.44 
M 257.946974 596.44 
L 260.694129 539.064748 
L 262.138258 596.44 
M 265.605984 596.44 
L 266.541509 568.77984 
L 269.465199 556.303062 
L 272.388889 584.590798 
L 273.843304 596.44 
M 281.441313 596.44 
L 284.08365 560.882843 
L 287.00734 575.244269 
L 288.331496 596.44 
M 291.439324 596.44 
L 292.85472 572.413274 
L 295.77841 537.073306 
L 298.757307 596.44 
M 302.400339 596.44 
L 304.549481 567.129872 
L 307.473171 541.068468 
L 310.396861 557.701944 
L 313.320551 536.076798 
L 316.244241 565.857337 
L 319.167931 555.179997 
L 322.091621 569.105817 
L 325.015311 512.976129 
L 327.939001 561.263389 
L 330.781912 596.44 
M 330.940798 596.44 
L 333.786382 560.025625 
L 336.710072 528.953907 
L 339.459996 596.44 
M 342.956913 596.44 
L 345.481142 538.000274 
L 348.404832 485.557749 
L 351.328522 469.245703 
L 354.252212 549.156315 
L 357.175902 560.952523 
L 360.099592 564.750328 
L 361.241437 596.44 
M 364.35912 596.44 
L 365.946973 537.658905 
L 368.870663 539.17322 
L 371.794353 521.773124 
L 374.942085 596.44 
M 382.608504 596.44 
L 383.489113 568.933191 
L 386.412803 552.778415 
L 389.336494 587.254974 
L 392.260184 575.508052 
L 395.183874 587.03425 
L 398.107564 501.027443 
L 401.031254 502.506534 
L 403.954944 520.901949 
L 406.878634 550.960579 
L 409.802324 554.517442 
L 412.726014 543.909642 
L 414.741678 596.44 
M 416.767579 596.44 
L 418.573395 558.212896 
L 420.697921 596.44 
M 426.86134 596.44 
L 427.344465 585.275285 
L 430.268155 582.168928 
L 433.191845 563.915287 
L 436.115535 505.810982 
L 439.039225 573.953335 
L 440.507251 596.44 
M 443.253963 596.44 
L 444.886605 568.243108 
L 447.810296 488.711748 
L 450.733986 498.06349 
L 453.657676 539.044285 
L 456.581366 550.579508 
L 458.044635 596.44 
M 460.790204 596.44 
L 462.428746 538.082477 
L 465.352436 570.323678 
L 468.276126 536.63088 
L 471.199816 564.890632 
L 473.092904 596.44 
M 475.170973 596.44 
L 477.047197 565.675092 
L 479.970887 462.310724 
L 482.894577 580.228452 
L 484.941821 596.44 
M 489.174977 596.44 
L 491.665647 566.52339 
L 494.589337 551.158215 
L 496.120904 596.44 
M 498.721299 596.44 
L 500.436717 538.005381 
L 503.360408 462.853333 
L 507.592089 596.44 
M 516.769229 596.44 
L 517.978858 567.352449 
L 520.902548 589.425443 
L 523.826238 583.122236 
L 526.749928 549.567224 
L 529.308804 596.44 
M 533.241005 596.44 
L 535.520999 523.726123 
L 538.444689 501.308927 
L 541.368379 557.435922 
L 543.711809 596.44 
M 544.566444 596.44 
L 547.215759 503.18553 
L 550.139449 551.277182 
L 553.063139 460.900369 
L 555.986829 532.852664 
L 558.910519 489.678873 
L 561.83421 469.387162 
L 564.7579 539.453655 
L 567.68159 510.145799 
L 570.60528 514.16751 
L 573.52897 505.40595 
L 576.45266 559.104394 
L 579.37635 529.013093 
L 582.30004 490.908452 
L 585.22373 571.887246 
L 588.147421 517.847818 
L 591.071111 528.75767 
L 593.994801 551.666194 
L 596.918491 507.579602 
L 599.842181 551.270816 
L 602.765871 535.904032 
L 605.689561 555.361577 
L 608.613251 573.42178 
L 610.586891 596.44 
M 615.709494 596.44 
L 617.384322 531.793857 
L 620.308012 529.681909 
L 623.231702 572.638195 
L 624.328505 596.44 
M 632.9841 596.44 
L 634.926462 587.280159 
L 637.850152 582.781427 
L 640.773842 523.189636 
L 643.697532 445.939807 
L 646.621223 503.865994 
L 649.544913 531.966168 
L 652.468603 572.441922 
L 655.392293 561.30589 
L 658.315983 492.801775 
L 661.239673 565.876646 
L 664.163363 503.382606 
L 667.087053 577.937163 
L 670.010743 591.466381 
L 672.934433 569.804017 
L 675.858124 570.079169 
L 678.781814 542.064206 
L 681.772479 596.44 
M 685.883773 596.44 
L 687.552884 558.777052 
L 688.822464 596.44 
M 700.538285 596.44 
L 702.171335 578.048854 
L 705.095025 580.041345 
L 708.018715 579.016363 
L 710.942405 581.02505 
L 713.866095 578.799977 
L 716.789785 579.540222 
L 719.713475 579.438501 
L 722.637165 575.097738 
L 725.560855 579.456131 
L 728.484545 576.012742 
L 728.484545 576.012742 
" style="fill:none;stroke:#8172b3;stroke-dasharray:7.5,1.5,1.5,1.5;stroke-dashoffset:0;stroke-width:1.5;"/>
   </g>
   <g id="line2d_6"/>
   <g id="line2d_7"/>
   <g id="line2d_8"/>
   <g id="line2d_9"/>
   <g id="line2d_10"/>
   <g id="patch_3">
    <path d="M 105.3 529.9416 
L 105.3 71.4528 
" style="fill:none;stroke:#262626;stroke-linecap:square;stroke-linejoin:miter;stroke-width:1.25;"/>
   </g>
   <g id="patch_4">
    <path d="M 758.16 529.9416 
L 758.16 71.4528 
" style="fill:none;stroke:#262626;stroke-linecap:square;stroke-linejoin:miter;stroke-width:1.25;"/>
   </g>
   <g id="patch_5">
    <path d="M 105.3 529.9416 
L 758.16 529.9416 
" style="fill:none;stroke:#262626;stroke-linecap:square;stroke-linejoin:miter;stroke-width:1.25;"/>
   </g>
   <g id="patch_6">
    <path d="M 105.3 71.4528 
L 758.16 71.4528 
" style="fill:none;stroke:#262626;stroke-linecap:square;stroke-linejoin:miter;stroke-width:1.25;"/>
   </g>
   <g id="text_16">
    <!-- Activations for &gt;5&lt; -->
    <g style="fill:#262626;" transform="translate(382.037813 65.4528)scale(0.12 -0.12)">
     <defs>
      <path d="M -9 0 
L 1750 4581 
L 2403 4581 
L 4278 0 
L 3588 0 
L 3053 1388 
L 1138 1388 
L 634 0 
L -9 0 
z
M 1313 1881 
L 2866 1881 
L 2388 3150 
Q 2169 3728 2063 4100 
Q 1975 3659 1816 3225 
L 1313 1881 
z
" id="ArialMT-41" transform="scale(0.015625)"/>
      <path d="M 2588 1216 
L 3141 1144 
Q 3050 572 2676 248 
Q 2303 -75 1759 -75 
Q 1078 -75 664 370 
Q 250 816 250 1647 
Q 250 2184 428 2587 
Q 606 2991 970 3192 
Q 1334 3394 1763 3394 
Q 2303 3394 2647 3120 
Q 2991 2847 3088 2344 
L 2541 2259 
Q 2463 2594 2264 2762 
Q 2066 2931 1784 2931 
Q 1359 2931 1093 2626 
Q 828 2322 828 1663 
Q 828 994 1084 691 
Q 1341 388 1753 388 
Q 2084 388 2306 591 
Q 2528 794 2588 1216 
z
" id="ArialMT-63" transform="scale(0.015625)"/>
      <path d="M 1650 503 
L 1731 6 
Q 1494 -44 1306 -44 
Q 1000 -44 831 53 
Q 663 150 594 308 
Q 525 466 525 972 
L 525 2881 
L 113 2881 
L 113 3319 
L 525 3319 
L 525 4141 
L 1084 4478 
L 1084 3319 
L 1650 3319 
L 1650 2881 
L 1084 2881 
L 1084 941 
Q 1084 700 1114 631 
Q 1144 563 1211 522 
Q 1278 481 1403 481 
Q 1497 481 1650 503 
z
" id="ArialMT-74" transform="scale(0.015625)"/>
      <path d="M 425 3934 
L 425 4581 
L 988 4581 
L 988 3934 
L 425 3934 
z
M 425 0 
L 425 3319 
L 988 3319 
L 988 0 
L 425 0 
z
" id="ArialMT-69" transform="scale(0.015625)"/>
      <path d="M 1344 0 
L 81 3319 
L 675 3319 
L 1388 1331 
Q 1503 1009 1600 663 
Q 1675 925 1809 1294 
L 2547 3319 
L 3125 3319 
L 1869 0 
L 1344 0 
z
" id="ArialMT-76" transform="scale(0.015625)"/>
      <path d="M 2588 409 
Q 2275 144 1986 34 
Q 1697 -75 1366 -75 
Q 819 -75 525 192 
Q 231 459 231 875 
Q 231 1119 342 1320 
Q 453 1522 633 1644 
Q 813 1766 1038 1828 
Q 1203 1872 1538 1913 
Q 2219 1994 2541 2106 
Q 2544 2222 2544 2253 
Q 2544 2597 2384 2738 
Q 2169 2928 1744 2928 
Q 1347 2928 1158 2789 
Q 969 2650 878 2297 
L 328 2372 
Q 403 2725 575 2942 
Q 747 3159 1072 3276 
Q 1397 3394 1825 3394 
Q 2250 3394 2515 3294 
Q 2781 3194 2906 3042 
Q 3031 2891 3081 2659 
Q 3109 2516 3109 2141 
L 3109 1391 
Q 3109 606 3145 398 
Q 3181 191 3288 0 
L 2700 0 
Q 2613 175 2588 409 
z
M 2541 1666 
Q 2234 1541 1622 1453 
Q 1275 1403 1131 1340 
Q 988 1278 909 1158 
Q 831 1038 831 891 
Q 831 666 1001 516 
Q 1172 366 1500 366 
Q 1825 366 2078 508 
Q 2331 650 2450 897 
Q 2541 1088 2541 1459 
L 2541 1666 
z
" id="ArialMT-61" transform="scale(0.015625)"/>
      <path d="M 213 1659 
Q 213 2581 725 3025 
Q 1153 3394 1769 3394 
Q 2453 3394 2887 2945 
Q 3322 2497 3322 1706 
Q 3322 1066 3130 698 
Q 2938 331 2570 128 
Q 2203 -75 1769 -75 
Q 1072 -75 642 372 
Q 213 819 213 1659 
z
M 791 1659 
Q 791 1022 1069 705 
Q 1347 388 1769 388 
Q 2188 388 2466 706 
Q 2744 1025 2744 1678 
Q 2744 2294 2464 2611 
Q 2184 2928 1769 2928 
Q 1347 2928 1069 2612 
Q 791 2297 791 1659 
z
" id="ArialMT-6f" transform="scale(0.015625)"/>
      <path d="M 422 0 
L 422 3319 
L 928 3319 
L 928 2847 
Q 1294 3394 1984 3394 
Q 2284 3394 2536 3286 
Q 2788 3178 2913 3003 
Q 3038 2828 3088 2588 
Q 3119 2431 3119 2041 
L 3119 0 
L 2556 0 
L 2556 2019 
Q 2556 2363 2490 2533 
Q 2425 2703 2258 2804 
Q 2091 2906 1866 2906 
Q 1506 2906 1245 2678 
Q 984 2450 984 1813 
L 984 0 
L 422 0 
z
" id="ArialMT-6e" transform="scale(0.015625)"/>
      <path d="M 197 991 
L 753 1078 
Q 800 744 1014 566 
Q 1228 388 1613 388 
Q 2000 388 2187 545 
Q 2375 703 2375 916 
Q 2375 1106 2209 1216 
Q 2094 1291 1634 1406 
Q 1016 1563 777 1677 
Q 538 1791 414 1992 
Q 291 2194 291 2438 
Q 291 2659 392 2848 
Q 494 3038 669 3163 
Q 800 3259 1026 3326 
Q 1253 3394 1513 3394 
Q 1903 3394 2198 3281 
Q 2494 3169 2634 2976 
Q 2775 2784 2828 2463 
L 2278 2388 
Q 2241 2644 2061 2787 
Q 1881 2931 1553 2931 
Q 1166 2931 1000 2803 
Q 834 2675 834 2503 
Q 834 2394 903 2306 
Q 972 2216 1119 2156 
Q 1203 2125 1616 2013 
Q 2213 1853 2448 1751 
Q 2684 1650 2818 1456 
Q 2953 1263 2953 975 
Q 2953 694 2789 445 
Q 2625 197 2315 61 
Q 2006 -75 1616 -75 
Q 969 -75 630 194 
Q 291 463 197 991 
z
" id="ArialMT-73" transform="scale(0.015625)"/>
      <path id="ArialMT-20" transform="scale(0.015625)"/>
      <path d="M 556 0 
L 556 2881 
L 59 2881 
L 59 3319 
L 556 3319 
L 556 3672 
Q 556 4006 616 4169 
Q 697 4388 901 4523 
Q 1106 4659 1475 4659 
Q 1713 4659 2000 4603 
L 1916 4113 
Q 1741 4144 1584 4144 
Q 1328 4144 1222 4034 
Q 1116 3925 1116 3625 
L 1116 3319 
L 1763 3319 
L 1763 2881 
L 1116 2881 
L 1116 0 
L 556 0 
z
" id="ArialMT-66" transform="scale(0.015625)"/>
      <path d="M 416 0 
L 416 3319 
L 922 3319 
L 922 2816 
Q 1116 3169 1280 3281 
Q 1444 3394 1641 3394 
Q 1925 3394 2219 3213 
L 2025 2691 
Q 1819 2813 1613 2813 
Q 1428 2813 1281 2702 
Q 1134 2591 1072 2394 
Q 978 2094 978 1738 
L 978 0 
L 416 0 
z
" id="ArialMT-72" transform="scale(0.015625)"/>
      <path d="M 3384 2003 
L 350 706 
L 350 1266 
L 2753 2263 
L 350 3250 
L 350 3809 
L 3384 2528 
L 3384 2003 
z
" id="ArialMT-3e" transform="scale(0.015625)"/>
      <path d="M 350 2003 
L 350 2528 
L 3384 3809 
L 3384 3250 
L 978 2263 
L 3384 1266 
L 3384 706 
L 350 2003 
z
" id="ArialMT-3c" transform="scale(0.015625)"/>
     </defs>
     <use xlink:href="#ArialMT-41"/>
     <use x="66.699219" xlink:href="#ArialMT-63"/>
     <use x="116.699219" xlink:href="#ArialMT-74"/>
     <use x="144.482422" xlink:href="#ArialMT-69"/>
     <use x="166.699219" xlink:href="#ArialMT-76"/>
     <use x="216.699219" xlink:href="#ArialMT-61"/>
     <use x="272.314453" xlink:href="#ArialMT-74"/>
     <use x="300.097656" xlink:href="#ArialMT-69"/>
     <use x="322.314453" xlink:href="#ArialMT-6f"/>
     <use x="377.929688" xlink:href="#ArialMT-6e"/>
     <use x="433.544922" xlink:href="#ArialMT-73"/>
     <use x="483.544922" xlink:href="#ArialMT-20"/>
     <use x="511.328125" xlink:href="#ArialMT-66"/>
     <use x="539.111328" xlink:href="#ArialMT-6f"/>
     <use x="594.726562" xlink:href="#ArialMT-72"/>
     <use x="628.027344" xlink:href="#ArialMT-20"/>
     <use x="655.810547" xlink:href="#ArialMT-3e"/>
     <use x="714.208984" xlink:href="#ArialMT-35"/>
     <use x="769.824219" xlink:href="#ArialMT-3c"/>
    </g>
   </g>
   <g id="legend_1">
    <g id="patch_7">
     <path d="M 640.044062 158.514363 
L 750.46 158.514363 
Q 752.66 158.514363 752.66 156.314363 
L 752.66 79.1528 
Q 752.66 76.9528 750.46 76.9528 
L 640.044062 76.9528 
Q 637.844062 76.9528 637.844062 79.1528 
L 637.844062 156.314363 
Q 637.844062 158.514363 640.044062 158.514363 
z
" style="fill:#ffffff;opacity:0.8;stroke:#cccccc;stroke-linejoin:miter;"/>
    </g>
    <g id="line2d_11">
     <path d="M 642.244062 85.376394 
L 664.244062 85.376394 
" style="fill:none;stroke:#4c72b0;stroke-linecap:round;stroke-width:1.5;"/>
    </g>
    <g id="line2d_12"/>
    <g id="text_17">
     <!-- regular -->
     <g style="fill:#262626;" transform="translate(673.044062 89.226394)scale(0.11 -0.11)">
      <defs>
       <path d="M 2694 1069 
L 3275 997 
Q 3138 488 2766 206 
Q 2394 -75 1816 -75 
Q 1088 -75 661 373 
Q 234 822 234 1631 
Q 234 2469 665 2931 
Q 1097 3394 1784 3394 
Q 2450 3394 2872 2941 
Q 3294 2488 3294 1666 
Q 3294 1616 3291 1516 
L 816 1516 
Q 847 969 1125 678 
Q 1403 388 1819 388 
Q 2128 388 2347 550 
Q 2566 713 2694 1069 
z
M 847 1978 
L 2700 1978 
Q 2663 2397 2488 2606 
Q 2219 2931 1791 2931 
Q 1403 2931 1139 2672 
Q 875 2413 847 1978 
z
" id="ArialMT-65" transform="scale(0.015625)"/>
       <path d="M 319 -275 
L 866 -356 
Q 900 -609 1056 -725 
Q 1266 -881 1628 -881 
Q 2019 -881 2231 -725 
Q 2444 -569 2519 -288 
Q 2563 -116 2559 434 
Q 2191 0 1641 0 
Q 956 0 581 494 
Q 206 988 206 1678 
Q 206 2153 378 2554 
Q 550 2956 876 3175 
Q 1203 3394 1644 3394 
Q 2231 3394 2613 2919 
L 2613 3319 
L 3131 3319 
L 3131 450 
Q 3131 -325 2973 -648 
Q 2816 -972 2473 -1159 
Q 2131 -1347 1631 -1347 
Q 1038 -1347 672 -1080 
Q 306 -813 319 -275 
z
M 784 1719 
Q 784 1066 1043 766 
Q 1303 466 1694 466 
Q 2081 466 2343 764 
Q 2606 1063 2606 1700 
Q 2606 2309 2336 2618 
Q 2066 2928 1684 2928 
Q 1309 2928 1046 2623 
Q 784 2319 784 1719 
z
" id="ArialMT-67" transform="scale(0.015625)"/>
       <path d="M 2597 0 
L 2597 488 
Q 2209 -75 1544 -75 
Q 1250 -75 995 37 
Q 741 150 617 320 
Q 494 491 444 738 
Q 409 903 409 1263 
L 409 3319 
L 972 3319 
L 972 1478 
Q 972 1038 1006 884 
Q 1059 663 1231 536 
Q 1403 409 1656 409 
Q 1909 409 2131 539 
Q 2353 669 2445 892 
Q 2538 1116 2538 1541 
L 2538 3319 
L 3100 3319 
L 3100 0 
L 2597 0 
z
" id="ArialMT-75" transform="scale(0.015625)"/>
       <path d="M 409 0 
L 409 4581 
L 972 4581 
L 972 0 
L 409 0 
z
" id="ArialMT-6c" transform="scale(0.015625)"/>
      </defs>
      <use xlink:href="#ArialMT-72"/>
      <use x="33.300781" xlink:href="#ArialMT-65"/>
      <use x="88.916016" xlink:href="#ArialMT-67"/>
      <use x="144.53125" xlink:href="#ArialMT-75"/>
      <use x="200.146484" xlink:href="#ArialMT-6c"/>
      <use x="222.363281" xlink:href="#ArialMT-61"/>
      <use x="277.978516" xlink:href="#ArialMT-72"/>
     </g>
    </g>
    <g id="line2d_13">
     <path d="M 642.244062 101.0978 
L 664.244062 101.0978 
" style="fill:none;stroke:#dd8452;stroke-dasharray:6,2.25;stroke-dashoffset:0;stroke-width:1.5;"/>
    </g>
    <g id="line2d_14"/>
    <g id="text_18">
     <!-- splitted_3s -->
     <g style="fill:#262626;" transform="translate(673.044062 104.9478)scale(0.11 -0.11)">
      <defs>
       <path d="M 422 -1272 
L 422 3319 
L 934 3319 
L 934 2888 
Q 1116 3141 1344 3267 
Q 1572 3394 1897 3394 
Q 2322 3394 2647 3175 
Q 2972 2956 3137 2557 
Q 3303 2159 3303 1684 
Q 3303 1175 3120 767 
Q 2938 359 2589 142 
Q 2241 -75 1856 -75 
Q 1575 -75 1351 44 
Q 1128 163 984 344 
L 984 -1272 
L 422 -1272 
z
M 931 1641 
Q 931 1000 1190 694 
Q 1450 388 1819 388 
Q 2194 388 2461 705 
Q 2728 1022 2728 1688 
Q 2728 2322 2467 2637 
Q 2206 2953 1844 2953 
Q 1484 2953 1207 2617 
Q 931 2281 931 1641 
z
" id="ArialMT-70" transform="scale(0.015625)"/>
       <path d="M 2575 0 
L 2575 419 
Q 2259 -75 1647 -75 
Q 1250 -75 917 144 
Q 584 363 401 755 
Q 219 1147 219 1656 
Q 219 2153 384 2558 
Q 550 2963 881 3178 
Q 1213 3394 1622 3394 
Q 1922 3394 2156 3267 
Q 2391 3141 2538 2938 
L 2538 4581 
L 3097 4581 
L 3097 0 
L 2575 0 
z
M 797 1656 
Q 797 1019 1065 703 
Q 1334 388 1700 388 
Q 2069 388 2326 689 
Q 2584 991 2584 1609 
Q 2584 2291 2321 2609 
Q 2059 2928 1675 2928 
Q 1300 2928 1048 2622 
Q 797 2316 797 1656 
z
" id="ArialMT-64" transform="scale(0.015625)"/>
       <path d="M -97 -1272 
L -97 -866 
L 3631 -866 
L 3631 -1272 
L -97 -1272 
z
" id="ArialMT-5f" transform="scale(0.015625)"/>
       <path d="M 269 1209 
L 831 1284 
Q 928 806 1161 595 
Q 1394 384 1728 384 
Q 2125 384 2398 659 
Q 2672 934 2672 1341 
Q 2672 1728 2419 1979 
Q 2166 2231 1775 2231 
Q 1616 2231 1378 2169 
L 1441 2663 
Q 1497 2656 1531 2656 
Q 1891 2656 2178 2843 
Q 2466 3031 2466 3422 
Q 2466 3731 2256 3934 
Q 2047 4138 1716 4138 
Q 1388 4138 1169 3931 
Q 950 3725 888 3313 
L 325 3413 
Q 428 3978 793 4289 
Q 1159 4600 1703 4600 
Q 2078 4600 2393 4439 
Q 2709 4278 2876 4000 
Q 3044 3722 3044 3409 
Q 3044 3113 2884 2869 
Q 2725 2625 2413 2481 
Q 2819 2388 3044 2092 
Q 3269 1797 3269 1353 
Q 3269 753 2831 336 
Q 2394 -81 1725 -81 
Q 1122 -81 723 278 
Q 325 638 269 1209 
z
" id="ArialMT-33" transform="scale(0.015625)"/>
      </defs>
      <use xlink:href="#ArialMT-73"/>
      <use x="50" xlink:href="#ArialMT-70"/>
      <use x="105.615234" xlink:href="#ArialMT-6c"/>
      <use x="127.832031" xlink:href="#ArialMT-69"/>
      <use x="150.048828" xlink:href="#ArialMT-74"/>
      <use x="177.832031" xlink:href="#ArialMT-74"/>
      <use x="205.615234" xlink:href="#ArialMT-65"/>
      <use x="261.230469" xlink:href="#ArialMT-64"/>
      <use x="316.845703" xlink:href="#ArialMT-5f"/>
      <use x="372.460938" xlink:href="#ArialMT-33"/>
      <use x="428.076172" xlink:href="#ArialMT-73"/>
     </g>
    </g>
    <g id="line2d_15">
     <path d="M 642.244062 116.6903 
L 664.244062 116.6903 
" style="fill:none;stroke:#55a868;stroke-dasharray:1.5,1.5;stroke-dashoffset:0;stroke-width:1.5;"/>
    </g>
    <g id="line2d_16"/>
    <g id="text_19">
     <!-- splitted_1s -->
     <g style="fill:#262626;" transform="translate(673.044062 120.5403)scale(0.11 -0.11)">
      <use xlink:href="#ArialMT-73"/>
      <use x="50" xlink:href="#ArialMT-70"/>
      <use x="105.615234" xlink:href="#ArialMT-6c"/>
      <use x="127.832031" xlink:href="#ArialMT-69"/>
      <use x="150.048828" xlink:href="#ArialMT-74"/>
      <use x="177.832031" xlink:href="#ArialMT-74"/>
      <use x="205.615234" xlink:href="#ArialMT-65"/>
      <use x="261.230469" xlink:href="#ArialMT-64"/>
      <use x="316.845703" xlink:href="#ArialMT-5f"/>
      <use x="372.460938" xlink:href="#ArialMT-31"/>
      <use x="428.076172" xlink:href="#ArialMT-73"/>
     </g>
    </g>
    <g id="line2d_17">
     <path d="M 642.244062 132.384206 
L 664.244062 132.384206 
" style="fill:none;stroke:#c44e52;stroke-dasharray:4.5,1.875,2.25,1.875;stroke-dashoffset:0;stroke-width:1.5;"/>
    </g>
    <g id="line2d_18"/>
    <g id="text_20">
     <!-- overlap_1f_3s -->
     <g style="fill:#262626;" transform="translate(673.044062 136.234206)scale(0.11 -0.11)">
      <use xlink:href="#ArialMT-6f"/>
      <use x="55.615234" xlink:href="#ArialMT-76"/>
      <use x="105.615234" xlink:href="#ArialMT-65"/>
      <use x="161.230469" xlink:href="#ArialMT-72"/>
      <use x="194.53125" xlink:href="#ArialMT-6c"/>
      <use x="216.748047" xlink:href="#ArialMT-61"/>
      <use x="272.363281" xlink:href="#ArialMT-70"/>
      <use x="327.978516" xlink:href="#ArialMT-5f"/>
      <use x="383.59375" xlink:href="#ArialMT-31"/>
      <use x="439.208984" xlink:href="#ArialMT-66"/>
      <use x="466.992188" xlink:href="#ArialMT-5f"/>
      <use x="522.607422" xlink:href="#ArialMT-33"/>
      <use x="578.222656" xlink:href="#ArialMT-73"/>
     </g>
    </g>
    <g id="line2d_19">
     <path d="M 642.244062 148.078113 
L 664.244062 148.078113 
" style="fill:none;stroke:#8172b3;stroke-dasharray:7.5,1.5,1.5,1.5;stroke-dashoffset:0;stroke-width:1.5;"/>
    </g>
    <g id="line2d_20"/>
    <g id="text_21">
     <!-- overlap_10f_3s -->
     <g style="fill:#262626;" transform="translate(673.044062 151.928112)scale(0.11 -0.11)">
      <use xlink:href="#ArialMT-6f"/>
      <use x="55.615234" xlink:href="#ArialMT-76"/>
      <use x="105.615234" xlink:href="#ArialMT-65"/>
      <use x="161.230469" xlink:href="#ArialMT-72"/>
      <use x="194.53125" xlink:href="#ArialMT-6c"/>
      <use x="216.748047" xlink:href="#ArialMT-61"/>
      <use x="272.363281" xlink:href="#ArialMT-70"/>
      <use x="327.978516" xlink:href="#ArialMT-5f"/>
      <use x="383.59375" xlink:href="#ArialMT-31"/>
      <use x="439.208984" xlink:href="#ArialMT-30"/>
      <use x="494.824219" xlink:href="#ArialMT-66"/>
      <use x="522.607422" xlink:href="#ArialMT-5f"/>
      <use x="578.222656" xlink:href="#ArialMT-33"/>
      <use x="633.837891" xlink:href="#ArialMT-73"/>
     </g>
    </g>
   </g>
  </g>
 </g>
 <defs>
  <clipPath id="p3937a9174c">
   <rect height="458.4888" width="652.86" x="105.3" y="71.4528"/>
  </clipPath>
 </defs>
</svg>
