<?xml version="1.0" encoding="utf-8" standalone="no"?>
<!DOCTYPE svg PUBLIC "-//W3C//DTD SVG 1.1//EN"
  "http://www.w3.org/Graphics/SVG/1.1/DTD/svg11.dtd">
<svg height="595.44pt" version="1.1" viewBox="0 0 842.4 595.44" width="842.4pt" xmlns="http://www.w3.org/2000/svg" xmlns:xlink="http://www.w3.org/1999/xlink">
 <metadata>
  <rdf:RDF xmlns:cc="http://creativecommons.org/ns#" xmlns:dc="http://purl.org/dc/elements/1.1/" xmlns:rdf="http://www.w3.org/1999/02/22-rdf-syntax-ns#">
   <cc:Work>
    <dc:type rdf:resource="http://purl.org/dc/dcmitype/StillImage"/>
    <dc:date>2021-06-01T00:54:05.197184</dc:date>
    <dc:format>image/svg+xml</dc:format>
    <dc:creator>
     <cc:Agent>
      <dc:title>Matplotlib v3.4.1, https://matplotlib.org/</dc:title>
     </cc:Agent>
    </dc:creator>
   </cc:Work>
  </rdf:RDF>
 </metadata>
 <defs>
  <style type="text/css">*{stroke-linecap:butt;stroke-linejoin:round;}</style>
 </defs>
 <g id="figure_1">
  <g id="patch_1">
   <path d="M 0 595.44 
L 842.4 595.44 
L 842.4 0 
L 0 0 
z
" style="fill:#ffffff;"/>
  </g>
  <g id="axes_1">
   <g id="patch_2">
    <path d="M 105.3 529.9416 
L 758.16 529.9416 
L 758.16 71.4528 
L 105.3 71.4528 
z
" style="fill:#ffffff;"/>
   </g>
   <g id="matplotlib.axis_1">
    <g id="xtick_1">
     <g id="text_1">
      <!-- 0 -->
      <g style="fill:#262626;" transform="translate(131.916939 547.315194)scale(0.11 -0.11)">
       <defs>
        <path d="M 266 2259 
Q 266 3072 433 3567 
Q 600 4063 929 4331 
Q 1259 4600 1759 4600 
Q 2128 4600 2406 4451 
Q 2684 4303 2865 4023 
Q 3047 3744 3150 3342 
Q 3253 2941 3253 2259 
Q 3253 1453 3087 958 
Q 2922 463 2592 192 
Q 2263 -78 1759 -78 
Q 1097 -78 719 397 
Q 266 969 266 2259 
z
M 844 2259 
Q 844 1131 1108 757 
Q 1372 384 1759 384 
Q 2147 384 2411 759 
Q 2675 1134 2675 2259 
Q 2675 3391 2411 3762 
Q 2147 4134 1753 4134 
Q 1366 4134 1134 3806 
Q 844 3388 844 2259 
z
" id="ArialMT-30" transform="scale(0.015625)"/>
       </defs>
       <use xlink:href="#ArialMT-30"/>
      </g>
     </g>
    </g>
    <g id="xtick_2">
     <g id="text_2">
      <!-- 25 -->
      <g style="fill:#262626;" transform="translate(201.950676 547.315194)scale(0.11 -0.11)">
       <defs>
        <path d="M 3222 541 
L 3222 0 
L 194 0 
Q 188 203 259 391 
Q 375 700 629 1000 
Q 884 1300 1366 1694 
Q 2113 2306 2375 2664 
Q 2638 3022 2638 3341 
Q 2638 3675 2398 3904 
Q 2159 4134 1775 4134 
Q 1369 4134 1125 3890 
Q 881 3647 878 3216 
L 300 3275 
Q 359 3922 746 4261 
Q 1134 4600 1788 4600 
Q 2447 4600 2831 4234 
Q 3216 3869 3216 3328 
Q 3216 3053 3103 2787 
Q 2991 2522 2730 2228 
Q 2469 1934 1863 1422 
Q 1356 997 1212 845 
Q 1069 694 975 541 
L 3222 541 
z
" id="ArialMT-32" transform="scale(0.015625)"/>
        <path d="M 266 1200 
L 856 1250 
Q 922 819 1161 601 
Q 1400 384 1738 384 
Q 2144 384 2425 690 
Q 2706 997 2706 1503 
Q 2706 1984 2436 2262 
Q 2166 2541 1728 2541 
Q 1456 2541 1237 2417 
Q 1019 2294 894 2097 
L 366 2166 
L 809 4519 
L 3088 4519 
L 3088 3981 
L 1259 3981 
L 1013 2750 
Q 1425 3038 1878 3038 
Q 2478 3038 2890 2622 
Q 3303 2206 3303 1553 
Q 3303 931 2941 478 
Q 2500 -78 1738 -78 
Q 1113 -78 717 272 
Q 322 622 266 1200 
z
" id="ArialMT-35" transform="scale(0.015625)"/>
       </defs>
       <use xlink:href="#ArialMT-32"/>
       <use x="55.615234" xlink:href="#ArialMT-35"/>
      </g>
     </g>
    </g>
    <g id="xtick_3">
     <g id="text_3">
      <!-- 50 -->
      <g style="fill:#262626;" transform="translate(275.042928 547.315194)scale(0.11 -0.11)">
       <use xlink:href="#ArialMT-35"/>
       <use x="55.615234" xlink:href="#ArialMT-30"/>
      </g>
     </g>
    </g>
    <g id="xtick_4">
     <g id="text_4">
      <!-- 75 -->
      <g style="fill:#262626;" transform="translate(348.135181 547.315194)scale(0.11 -0.11)">
       <defs>
        <path d="M 303 3981 
L 303 4522 
L 3269 4522 
L 3269 4084 
Q 2831 3619 2401 2847 
Q 1972 2075 1738 1259 
Q 1569 684 1522 0 
L 944 0 
Q 953 541 1156 1306 
Q 1359 2072 1739 2783 
Q 2119 3494 2547 3981 
L 303 3981 
z
" id="ArialMT-37" transform="scale(0.015625)"/>
       </defs>
       <use xlink:href="#ArialMT-37"/>
       <use x="55.615234" xlink:href="#ArialMT-35"/>
      </g>
     </g>
    </g>
    <g id="xtick_5">
     <g id="text_5">
      <!-- 100 -->
      <g style="fill:#262626;" transform="translate(418.168918 547.315194)scale(0.11 -0.11)">
       <defs>
        <path d="M 2384 0 
L 1822 0 
L 1822 3584 
Q 1619 3391 1289 3197 
Q 959 3003 697 2906 
L 697 3450 
Q 1169 3672 1522 3987 
Q 1875 4303 2022 4600 
L 2384 4600 
L 2384 0 
z
" id="ArialMT-31" transform="scale(0.015625)"/>
       </defs>
       <use xlink:href="#ArialMT-31"/>
       <use x="55.615234" xlink:href="#ArialMT-30"/>
       <use x="111.230469" xlink:href="#ArialMT-30"/>
      </g>
     </g>
    </g>
    <g id="xtick_6">
     <g id="text_6">
      <!-- 125 -->
      <g style="fill:#262626;" transform="translate(491.261171 547.315194)scale(0.11 -0.11)">
       <use xlink:href="#ArialMT-31"/>
       <use x="55.615234" xlink:href="#ArialMT-32"/>
       <use x="111.230469" xlink:href="#ArialMT-35"/>
      </g>
     </g>
    </g>
    <g id="xtick_7">
     <g id="text_7">
      <!-- 150 -->
      <g style="fill:#262626;" transform="translate(564.353423 547.315194)scale(0.11 -0.11)">
       <use xlink:href="#ArialMT-31"/>
       <use x="55.615234" xlink:href="#ArialMT-35"/>
       <use x="111.230469" xlink:href="#ArialMT-30"/>
      </g>
     </g>
    </g>
    <g id="xtick_8">
     <g id="text_8">
      <!-- 175 -->
      <g style="fill:#262626;" transform="translate(637.445676 547.315194)scale(0.11 -0.11)">
       <use xlink:href="#ArialMT-31"/>
       <use x="55.615234" xlink:href="#ArialMT-37"/>
       <use x="111.230469" xlink:href="#ArialMT-35"/>
      </g>
     </g>
    </g>
    <g id="xtick_9">
     <g id="text_9">
      <!-- 200 -->
      <g style="fill:#262626;" transform="translate(710.537928 547.315194)scale(0.11 -0.11)">
       <use xlink:href="#ArialMT-32"/>
       <use x="55.615234" xlink:href="#ArialMT-30"/>
       <use x="111.230469" xlink:href="#ArialMT-30"/>
      </g>
     </g>
    </g>
   </g>
   <g id="matplotlib.axis_2">
    <g id="ytick_1">
     <g id="text_10">
      <!-- −25 -->
      <g style="fill:#262626;" transform="translate(77.14125 533.878397)scale(0.11 -0.11)">
       <defs>
        <path d="M 3381 1997 
L 356 1997 
L 356 2522 
L 3381 2522 
L 3381 1997 
z
" id="ArialMT-2212" transform="scale(0.015625)"/>
       </defs>
       <use xlink:href="#ArialMT-2212"/>
       <use x="58.398438" xlink:href="#ArialMT-32"/>
       <use x="114.013672" xlink:href="#ArialMT-35"/>
      </g>
     </g>
    </g>
    <g id="ytick_2">
     <g id="text_11">
      <!-- −20 -->
      <g style="fill:#262626;" transform="translate(77.14125 442.180637)scale(0.11 -0.11)">
       <use xlink:href="#ArialMT-2212"/>
       <use x="58.398438" xlink:href="#ArialMT-32"/>
       <use x="114.013672" xlink:href="#ArialMT-30"/>
      </g>
     </g>
    </g>
    <g id="ytick_3">
     <g id="text_12">
      <!-- −15 -->
      <g style="fill:#262626;" transform="translate(77.14125 350.482877)scale(0.11 -0.11)">
       <use xlink:href="#ArialMT-2212"/>
       <use x="58.398438" xlink:href="#ArialMT-31"/>
       <use x="114.013672" xlink:href="#ArialMT-35"/>
      </g>
     </g>
    </g>
    <g id="ytick_4">
     <g id="text_13">
      <!-- −10 -->
      <g style="fill:#262626;" transform="translate(77.14125 258.785117)scale(0.11 -0.11)">
       <use xlink:href="#ArialMT-2212"/>
       <use x="58.398438" xlink:href="#ArialMT-31"/>
       <use x="114.013672" xlink:href="#ArialMT-30"/>
      </g>
     </g>
    </g>
    <g id="ytick_5">
     <g id="text_14">
      <!-- −5 -->
      <g style="fill:#262626;" transform="translate(83.258281 167.087357)scale(0.11 -0.11)">
       <use xlink:href="#ArialMT-2212"/>
       <use x="58.398438" xlink:href="#ArialMT-35"/>
      </g>
     </g>
    </g>
    <g id="ytick_6">
     <g id="text_15">
      <!-- 0 -->
      <g style="fill:#262626;" transform="translate(89.682969 75.389597)scale(0.11 -0.11)">
       <use xlink:href="#ArialMT-30"/>
      </g>
     </g>
    </g>
   </g>
   <g id="line2d_1">
    <path clip-path="url(#p2d34057ebf)" d="M 134.975455 329.961558 
L 137.899145 328.943397 
L 140.822835 330.650295 
L 143.746525 330.332328 
L 146.670215 329.899451 
L 149.593905 332.156705 
L 152.517595 333.385393 
L 155.441285 336.993746 
L 158.364975 337.578593 
L 161.288665 339.669098 
L 164.212356 342.867749 
L 167.136046 341.54243 
L 170.059736 366.486138 
L 172.983426 379.485061 
L 175.907116 394.910926 
L 178.830806 430.011071 
L 181.754496 443.759684 
L 184.678186 360.536491 
L 187.601876 304.536316 
L 190.525567 407.501633 
L 193.449257 403.487862 
L 196.372947 395.772586 
L 199.296637 431.712949 
L 202.220327 364.412039 
L 205.144017 336.936939 
L 208.067707 310.93117 
L 210.991397 71.453526 
L 213.915087 224.74231 
L 216.838777 401.540285 
L 219.762468 429.286812 
L 222.686158 398.545724 
L 225.609848 395.434015 
L 228.533538 394.289927 
L 231.457228 397.280605 
L 234.380918 273.767804 
L 237.304608 344.678642 
L 240.228298 418.377135 
L 243.151988 383.189609 
L 246.075678 366.148722 
L 248.999369 337.63547 
L 251.923059 332.837012 
L 254.846749 324.256595 
L 257.770439 398.20509 
L 260.694129 364.086796 
L 263.617819 372.489252 
L 266.541509 158.442927 
L 269.465199 71.526616 
L 275.312579 71.454505 
L 281.15996 71.46134 
L 284.08365 72.770999 
L 287.00734 146.54958 
L 289.93103 326.851074 
L 295.77841 447.661099 
L 298.7021 498.468278 
L 301.62579 436.224274 
L 304.549481 379.289453 
L 307.473171 333.875006 
L 310.396861 358.018147 
L 313.320551 332.058569 
L 316.244241 353.94979 
L 319.167931 360.01961 
L 322.091621 376.204714 
L 325.015311 316.843249 
L 327.939001 365.242007 
L 330.862691 368.936517 
L 333.786382 316.958193 
L 336.710072 315.764538 
L 339.633762 404.87688 
L 342.557452 442.11073 
L 345.481142 388.287758 
L 348.404832 424.959376 
L 351.328522 374.60942 
L 354.252212 184.315877 
L 357.175902 71.453097 
L 360.099592 71.456901 
L 363.023283 283.236658 
L 365.946973 304.151834 
L 368.870663 395.914779 
L 371.794353 406.979593 
L 374.718043 366.710499 
L 377.641733 362.373112 
L 383.489113 406.416626 
L 386.412803 322.368904 
L 389.336494 332.84957 
L 392.260184 348.326453 
L 398.107564 265.848823 
L 401.031254 308.643151 
L 403.954944 336.433823 
L 406.878634 345.491418 
L 409.802324 324.610837 
L 412.726014 301.935122 
L 415.649704 376.050558 
L 418.573395 294.523769 
L 421.497085 262.789916 
L 424.420775 361.762957 
L 427.344465 379.717712 
L 430.268155 470.559129 
L 433.191845 462.882646 
L 436.115535 336.505409 
L 439.039225 365.608142 
L 441.962915 392.251158 
L 444.886605 359.140023 
L 447.810296 295.689807 
L 450.733986 300.48377 
L 453.657676 237.145997 
L 456.581366 71.459148 
L 459.505056 204.269744 
L 462.428746 71.47668 
L 465.352436 212.763157 
L 468.276126 309.254565 
L 471.199816 316.602814 
L 474.123506 327.980435 
L 477.047197 288.578354 
L 479.970887 242.651294 
L 482.894577 336.075488 
L 485.818267 333.681515 
L 488.741957 385.498984 
L 491.665647 354.796269 
L 494.589337 331.558164 
L 497.513027 459.637104 
L 500.436717 418.006313 
L 503.360408 296.141538 
L 506.284098 329.147051 
L 509.207788 412.34894 
L 512.131478 414.604585 
L 515.055168 409.990209 
L 517.978858 343.671465 
L 520.902548 421.133972 
L 523.826238 431.074775 
L 526.749928 360.778307 
L 529.673618 360.835972 
L 532.597309 429.460732 
L 535.520999 425.109195 
L 538.444689 404.226953 
L 541.368379 447.360551 
L 547.215759 286.017527 
L 550.139449 380.96674 
L 553.063139 336.928788 
L 555.986829 424.011735 
L 558.910519 357.828241 
L 561.83421 324.764312 
L 564.7579 329.129456 
L 567.68159 304.944602 
L 570.60528 329.997937 
L 573.52897 317.717065 
L 576.45266 291.071846 
L 579.37635 342.220218 
L 582.30004 380.236989 
L 585.22373 371.703743 
L 588.147421 398.299745 
L 591.071111 370.258548 
L 593.994801 365.311757 
L 596.918491 293.552709 
L 599.842181 317.707008 
L 602.765871 387.77866 
L 605.689561 368.880619 
L 608.613251 361.685109 
L 611.536941 411.186872 
L 614.460631 431.403342 
L 617.384322 364.406757 
L 620.308012 437.621337 
L 623.231702 432.963271 
L 626.155392 426.506468 
L 629.079082 347.957397 
L 632.002772 274.235188 
L 634.926462 265.201344 
L 637.850152 297.254931 
L 640.773842 333.313789 
L 643.697532 318.158424 
L 646.621223 299.51773 
L 652.468603 435.819732 
L 655.392293 375.923021 
L 658.315983 351.932253 
L 661.239673 397.733176 
L 664.163363 337.183687 
L 667.087053 389.766954 
L 670.010743 385.260071 
L 672.934433 353.54439 
L 675.858124 408.386275 
L 678.781814 386.054255 
L 681.705504 459.827465 
L 684.629194 457.932218 
L 687.552884 408.581568 
L 690.476574 474.887195 
L 693.400264 388.824874 
L 696.323954 390.308478 
L 699.247644 375.622229 
L 702.171335 355.332703 
L 705.095025 361.263601 
L 708.018715 355.365322 
L 710.942405 355.960593 
L 713.866095 355.644147 
L 716.789785 356.854557 
L 719.713475 354.778569 
L 722.637165 355.392764 
L 725.560855 357.208869 
L 728.484545 356.307454 
L 728.484545 356.307454 
" style="fill:none;stroke:#4c72b0;stroke-linecap:round;stroke-width:1.5;"/>
   </g>
   <g id="line2d_2">
    <path clip-path="url(#p2d34057ebf)" d="M 134.975455 328.909554 
L 137.899145 328.941264 
L 140.822835 330.352826 
L 143.746525 330.996841 
L 146.670215 332.352191 
L 149.593905 333.861067 
L 152.517595 333.746473 
L 155.441285 337.824117 
L 161.288665 335.919723 
L 164.212356 335.673849 
L 167.136046 332.65816 
L 170.059736 353.047763 
L 172.983426 356.954233 
L 175.907116 376.668548 
L 178.830806 415.275605 
L 181.754496 418.712837 
L 184.678186 353.787605 
L 187.601876 284.349282 
L 190.525567 404.716112 
L 193.449257 394.892351 
L 196.372947 385.705925 
L 199.296637 409.713203 
L 202.220327 354.17221 
L 205.144017 344.345703 
L 208.067707 311.600493 
L 210.991397 71.453071 
L 213.915087 164.076986 
L 216.838777 390.13085 
L 219.762468 402.837515 
L 222.686158 388.192368 
L 225.609848 363.806834 
L 228.533538 363.061919 
L 231.457228 376.281775 
L 234.380918 270.662042 
L 237.304608 326.837536 
L 240.228298 397.731846 
L 243.151988 369.117188 
L 246.075678 352.143269 
L 248.999369 355.127196 
L 251.923059 346.803865 
L 254.846749 330.862064 
L 257.770439 401.908239 
L 260.694129 371.946783 
L 263.617819 366.776821 
L 266.541509 155.767025 
L 269.465199 71.572295 
L 272.388889 71.455791 
L 281.15996 71.456079 
L 284.08365 72.434348 
L 287.00734 151.871574 
L 289.93103 336.89129 
L 292.85472 422.660426 
L 295.77841 425.777976 
L 298.7021 492.182456 
L 301.62579 427.487375 
L 304.549481 378.838282 
L 307.473171 341.72081 
L 310.396861 346.186801 
L 313.320551 338.260684 
L 316.244241 371.22123 
L 319.167931 351.889805 
L 322.091621 350.009075 
L 325.015311 287.286441 
L 327.939001 354.893443 
L 330.862691 336.794116 
L 333.786382 270.259231 
L 336.710072 329.51859 
L 339.633762 398.148807 
L 342.557452 429.383147 
L 345.481142 347.550878 
L 351.328522 368.005981 
L 354.252212 75.145953 
L 357.175902 71.650417 
L 360.099592 83.608655 
L 363.023283 188.337466 
L 365.946973 309.313034 
L 368.870663 265.198861 
L 371.794353 282.484678 
L 374.718043 276.647124 
L 377.641733 292.836023 
L 380.565423 339.30389 
L 383.489113 331.877985 
L 386.412803 321.691203 
L 389.336494 332.588777 
L 392.260184 344.249351 
L 395.183874 286.751703 
L 398.107564 243.509509 
L 401.031254 286.549134 
L 403.954944 335.762138 
L 406.878634 321.393104 
L 409.802324 314.25344 
L 412.726014 295.720345 
L 415.649704 357.487659 
L 418.573395 242.725294 
L 421.497085 233.376281 
L 424.420775 308.159116 
L 427.344465 346.411075 
L 430.268155 436.826139 
L 433.191845 428.194564 
L 436.115535 310.397796 
L 439.039225 389.68692 
L 441.962915 389.922439 
L 444.886605 315.966145 
L 447.810296 247.166817 
L 450.733986 333.769997 
L 453.657676 257.578975 
L 456.581366 71.461088 
L 459.505056 196.64643 
L 462.428746 71.529053 
L 465.352436 204.168634 
L 468.276126 284.32686 
L 471.199816 315.750091 
L 474.123506 317.3018 
L 477.047197 324.134288 
L 479.970887 235.722489 
L 482.894577 324.195346 
L 485.818267 336.773687 
L 488.741957 396.274898 
L 491.665647 376.461712 
L 494.589337 351.065765 
L 497.513027 462.328669 
L 500.436717 414.042738 
L 503.360408 293.255187 
L 506.284098 344.425877 
L 509.207788 409.791104 
L 512.131478 394.591944 
L 515.055168 411.411793 
L 517.978858 357.717075 
L 520.902548 406.022367 
L 523.826238 426.273677 
L 526.749928 372.394631 
L 529.673618 355.151752 
L 532.597309 416.431831 
L 535.520999 426.908002 
L 538.444689 386.213868 
L 541.368379 392.362883 
L 544.292069 329.295418 
L 547.215759 223.033104 
L 550.139449 324.577309 
L 553.063139 315.040279 
L 555.986829 317.876346 
L 558.910519 161.755202 
L 561.83421 115.883961 
L 564.7579 175.295466 
L 567.68159 263.402012 
L 570.60528 400.969588 
L 573.52897 246.536689 
L 576.45266 220.903666 
L 579.37635 276.000817 
L 582.30004 259.371871 
L 585.22373 317.360357 
L 588.147421 308.752901 
L 593.994801 362.138134 
L 596.918491 295.476587 
L 599.842181 353.681162 
L 602.765871 371.791088 
L 605.689561 370.780693 
L 608.613251 395.798646 
L 611.536941 391.496466 
L 614.460631 406.256663 
L 617.384322 395.04322 
L 620.308012 441.253162 
L 623.231702 422.047228 
L 626.155392 438.683817 
L 629.079082 315.55667 
L 632.002772 268.154157 
L 634.926462 243.055767 
L 637.850152 290.344368 
L 640.773842 340.266642 
L 643.697532 300.466595 
L 646.621223 272.585203 
L 649.544913 363.766677 
L 652.468603 427.003358 
L 655.392293 396.456583 
L 658.315983 312.508782 
L 661.239673 388.874231 
L 664.163363 346.3723 
L 667.087053 398.028861 
L 670.010743 390.095695 
L 672.934433 339.522969 
L 675.858124 404.341477 
L 678.781814 389.843035 
L 681.705504 444.763397 
L 684.629194 458.968078 
L 687.552884 398.967862 
L 690.476574 445.050967 
L 693.400264 390.562817 
L 696.323954 385.465648 
L 702.171335 331.150543 
L 705.095025 337.136009 
L 708.018715 336.306426 
L 710.942405 340.820602 
L 713.866095 337.934531 
L 716.789785 338.942128 
L 719.713475 336.404877 
L 722.637165 339.646361 
L 725.560855 340.825726 
L 728.484545 338.641458 
L 728.484545 338.641458 
" style="fill:none;stroke:#dd8452;stroke-dasharray:6,2.25;stroke-dashoffset:0;stroke-width:1.5;"/>
   </g>
   <g id="line2d_3">
    <path clip-path="url(#p2d34057ebf)" d="M 134.975455 327.06174 
L 137.899145 327.992573 
L 140.822835 328.579676 
L 143.746525 327.154297 
L 146.670215 334.680262 
L 149.593905 334.308233 
L 152.517595 335.272682 
L 155.441285 356.945715 
L 158.364975 355.682188 
L 161.288665 345.438896 
L 164.212356 344.350076 
L 167.136046 335.604379 
L 170.059736 343.959507 
L 172.983426 357.143404 
L 175.907116 376.599253 
L 178.830806 402.962778 
L 181.754496 399.296323 
L 184.678186 316.824255 
L 187.601876 280.44283 
L 190.525567 343.404988 
L 193.449257 429.456325 
L 196.372947 395.832717 
L 199.296637 401.731905 
L 202.220327 370.033557 
L 205.144017 359.170805 
L 208.067707 115.967843 
L 210.991397 71.518079 
L 213.915087 71.773713 
L 216.838777 187.264422 
L 219.762468 340.354652 
L 222.686158 381.75225 
L 225.609848 314.419298 
L 228.533538 340.648868 
L 231.457228 319.457753 
L 234.380918 279.790996 
L 237.304608 328.792564 
L 240.228298 427.323319 
L 243.151988 395.571032 
L 246.075678 326.5744 
L 248.999369 400.493546 
L 251.923059 380.455229 
L 254.846749 332.597785 
L 257.770439 402.883339 
L 260.694129 340.019177 
L 263.617819 285.089964 
L 266.541509 72.143415 
L 269.465199 71.517429 
L 272.388889 72.31758 
L 275.312579 71.614651 
L 278.23627 120.515967 
L 281.15996 76.085579 
L 284.08365 116.219375 
L 287.00734 186.966218 
L 289.93103 311.389687 
L 292.85472 336.150223 
L 295.77841 379.152192 
L 298.7021 437.579082 
L 301.62579 434.631499 
L 304.549481 386.850188 
L 307.473171 344.917607 
L 310.396861 349.463335 
L 313.320551 376.3248 
L 316.244241 386.091334 
L 319.167931 368.866312 
L 322.091621 349.955993 
L 325.015311 303.500998 
L 327.939001 342.914885 
L 330.862691 348.908974 
L 333.786382 276.559901 
L 336.710072 351.502052 
L 339.633762 419.074739 
L 342.557452 460.794904 
L 345.481142 365.796719 
L 348.404832 354.422001 
L 351.328522 384.298508 
L 354.252212 71.536728 
L 357.175902 71.476241 
L 360.099592 75.781007 
L 363.023283 247.060181 
L 365.946973 247.045717 
L 368.870663 268.66691 
L 371.794353 239.258767 
L 374.718043 321.380022 
L 377.641733 336.089445 
L 380.565423 331.823207 
L 383.489113 349.942473 
L 386.412803 320.320777 
L 389.336494 353.755039 
L 392.260184 363.532609 
L 395.183874 276.018097 
L 398.107564 248.474891 
L 401.031254 304.38216 
L 403.954944 324.49682 
L 406.878634 333.580073 
L 409.802324 345.85834 
L 412.726014 284.653468 
L 415.649704 264.868423 
L 418.573395 242.883806 
L 421.497085 158.554583 
L 424.420775 164.518135 
L 427.344465 233.410404 
L 430.268155 263.049922 
L 433.191845 249.122282 
L 436.115535 233.017422 
L 439.039225 332.002287 
L 441.962915 377.739073 
L 444.886605 281.308845 
L 447.810296 328.294398 
L 450.733986 354.966813 
L 453.657676 208.684481 
L 456.581366 71.453939 
L 459.505056 237.167003 
L 462.428746 71.726343 
L 465.352436 127.114278 
L 468.276126 240.749698 
L 471.199816 300.217101 
L 474.123506 327.71938 
L 477.047197 314.982684 
L 479.970887 274.014535 
L 482.894577 249.99748 
L 485.818267 255.016766 
L 488.741957 276.142486 
L 491.665647 302.240024 
L 494.589337 284.775478 
L 497.513027 338.043301 
L 500.436717 309.173744 
L 503.360408 332.869509 
L 506.284098 403.707886 
L 509.207788 356.142139 
L 512.131478 366.442728 
L 515.055168 353.122795 
L 517.978858 345.202694 
L 520.902548 373.709666 
L 523.826238 406.376119 
L 526.749928 379.561387 
L 529.673618 341.82087 
L 532.597309 419.392252 
L 535.520999 461.915696 
L 538.444689 345.917333 
L 541.368379 313.215271 
L 544.292069 201.930925 
L 547.215759 95.276499 
L 550.139449 183.111151 
L 553.063139 187.385916 
L 555.986829 208.115183 
L 558.910519 161.551339 
L 561.83421 176.755344 
L 564.7579 198.546889 
L 567.68159 239.861226 
L 570.60528 321.02251 
L 573.52897 339.402131 
L 576.45266 253.339164 
L 579.37635 378.0059 
L 582.30004 365.153333 
L 585.22373 382.937754 
L 588.147421 374.965201 
L 591.071111 402.273184 
L 593.994801 372.960537 
L 596.918491 309.239051 
L 599.842181 401.095655 
L 602.765871 433.358509 
L 605.689561 381.556782 
L 608.613251 391.947672 
L 611.536941 417.67967 
L 614.460631 438.607666 
L 617.384322 382.833094 
L 620.308012 390.560578 
L 623.231702 417.203349 
L 626.155392 411.228044 
L 629.079082 284.501462 
L 632.002772 303.613843 
L 634.926462 351.401748 
L 637.850152 340.348968 
L 640.773842 324.311269 
L 643.697532 327.468767 
L 646.621223 279.647351 
L 649.544913 372.984393 
L 652.468603 383.992993 
L 655.392293 367.229217 
L 658.315983 311.569484 
L 661.239673 372.045602 
L 664.163363 345.782521 
L 667.087053 404.538659 
L 670.010743 384.733378 
L 672.934433 298.19255 
L 675.858124 410.27715 
L 678.781814 387.420046 
L 681.705504 448.104015 
L 684.629194 461.99622 
L 687.552884 407.440978 
L 690.476574 441.902005 
L 693.400264 400.728296 
L 696.323954 400.116532 
L 699.247644 374.709707 
L 702.171335 334.80012 
L 705.095025 327.643019 
L 708.018715 327.887686 
L 710.942405 335.422396 
L 713.866095 333.353368 
L 716.789785 334.45688 
L 719.713475 328.735617 
L 722.637165 335.265266 
L 725.560855 329.175035 
L 728.484545 317.508357 
L 728.484545 317.508357 
" style="fill:none;stroke:#55a868;stroke-dasharray:1.5,1.5;stroke-dashoffset:0;stroke-width:1.5;"/>
   </g>
   <g id="line2d_4">
    <path clip-path="url(#p2d34057ebf)" d="M 134.975455 328.344226 
L 137.899145 328.400841 
L 140.822835 329.831468 
L 143.746525 330.413988 
L 146.670215 331.762219 
L 149.593905 333.485155 
L 152.517595 333.357916 
L 155.441285 337.604443 
L 158.364975 336.762494 
L 161.288665 336.082152 
L 164.212356 335.787673 
L 167.136046 332.845617 
L 170.059736 353.493932 
L 172.983426 357.309961 
L 175.907116 377.025063 
L 178.830806 415.865402 
L 181.754496 419.842024 
L 184.678186 355.139544 
L 187.601876 284.642379 
L 190.525567 405.590995 
L 193.449257 397.962539 
L 196.372947 386.706351 
L 199.296637 411.977104 
L 202.220327 354.612834 
L 205.144017 335.99876 
L 208.067707 305.997182 
L 210.991397 71.453235 
L 213.915087 185.617603 
L 216.838777 387.214504 
L 219.762468 405.199569 
L 222.686158 389.241135 
L 225.609848 364.100648 
L 228.533538 364.135732 
L 231.457228 379.716698 
L 234.380918 270.596525 
L 237.304608 331.014366 
L 240.228298 403.683994 
L 243.151988 371.835652 
L 246.075678 353.93251 
L 248.999369 355.151805 
L 251.923059 348.424869 
L 254.846749 330.92487 
L 257.770439 400.2072 
L 260.694129 371.226827 
L 263.617819 366.349507 
L 266.541509 150.341298 
L 269.465199 71.568756 
L 272.388889 71.455629 
L 281.15996 71.457305 
L 284.08365 72.824697 
L 287.00734 160.776307 
L 289.93103 339.720851 
L 292.85472 415.523368 
L 295.77841 426.000973 
L 298.7021 490.477605 
L 301.62579 426.337025 
L 307.473171 340.642274 
L 310.396861 349.803445 
L 313.320551 335.737512 
L 316.244241 371.953814 
L 319.167931 355.077263 
L 322.091621 358.096694 
L 325.015311 285.170103 
L 327.939001 351.065223 
L 330.862691 354.39853 
L 333.786382 283.628066 
L 336.710072 345.532274 
L 339.633762 428.723041 
L 342.557452 442.582644 
L 345.481142 355.053948 
L 348.404832 343.875293 
L 351.328522 419.379379 
L 354.252212 337.41396 
L 357.175902 124.325534 
L 360.099592 78.677729 
L 363.023283 346.477834 
L 365.946973 323.754879 
L 368.870663 269.364234 
L 371.794353 281.021538 
L 374.718043 309.838397 
L 377.641733 287.460081 
L 380.565423 345.420059 
L 383.489113 332.374158 
L 386.412803 326.83152 
L 389.336494 329.799688 
L 392.260184 341.035763 
L 395.183874 287.418595 
L 398.107564 243.021312 
L 403.954944 335.609853 
L 406.878634 324.176387 
L 409.802324 317.902563 
L 412.726014 297.7528 
L 415.649704 362.809854 
L 418.573395 247.817286 
L 421.497085 243.776021 
L 424.420775 322.480892 
L 427.344465 351.470501 
L 430.268155 435.724341 
L 433.191845 425.892081 
L 436.115535 310.588279 
L 439.039225 389.092506 
L 441.962915 391.747552 
L 444.886605 314.035953 
L 447.810296 246.006078 
L 450.733986 327.83352 
L 453.657676 266.643269 
L 456.581366 71.458523 
L 459.505056 197.567985 
L 462.428746 71.527348 
L 465.352436 214.447423 
L 468.276126 289.277725 
L 471.199816 315.456312 
L 474.123506 318.588712 
L 477.047197 324.750512 
L 479.970887 232.846091 
L 482.894577 323.810269 
L 485.818267 336.077832 
L 488.741957 395.46959 
L 491.665647 375.13111 
L 494.589337 352.581235 
L 497.513027 464.362506 
L 500.436717 414.075759 
L 503.360408 293.209451 
L 506.284098 343.98464 
L 509.207788 408.864695 
L 512.131478 394.666696 
L 515.055168 411.995888 
L 517.978858 357.877947 
L 520.902548 406.398751 
L 523.826238 424.836632 
L 526.749928 371.840235 
L 529.673618 355.745974 
L 532.597309 415.768612 
L 535.520999 426.526686 
L 538.444689 389.665127 
L 541.368379 395.38305 
L 544.292069 333.429257 
L 547.215759 225.449884 
L 550.139449 327.625319 
L 553.063139 315.375964 
L 555.986829 318.86089 
L 558.910519 163.124736 
L 561.83421 116.640857 
L 564.7579 176.202661 
L 567.68159 263.332787 
L 570.60528 391.538127 
L 573.52897 237.465049 
L 576.45266 343.159622 
L 579.37635 297.585736 
L 582.30004 294.94066 
L 585.22373 390.978203 
L 588.147421 331.730248 
L 591.071111 318.788132 
L 593.994801 380.931061 
L 596.918491 325.442904 
L 599.842181 356.990017 
L 602.765871 394.619368 
L 605.689561 382.348552 
L 608.613251 380.934839 
L 611.536941 396.492473 
L 614.460631 417.412179 
L 617.384322 391.949281 
L 620.308012 437.409604 
L 623.231702 424.937654 
L 626.155392 437.54788 
L 629.079082 318.778548 
L 632.002772 270.320113 
L 634.926462 253.962663 
L 637.850152 291.371379 
L 640.773842 340.981334 
L 643.697532 300.998639 
L 646.621223 275.64264 
L 649.544913 360.562306 
L 652.468603 427.322619 
L 655.392293 395.902676 
L 658.315983 314.366408 
L 661.239673 389.997436 
L 664.163363 344.855605 
L 667.087053 394.428378 
L 670.010743 390.805892 
L 672.934433 341.335401 
L 675.858124 402.955852 
L 678.781814 387.919839 
L 681.705504 441.787026 
L 684.629194 457.704883 
L 687.552884 398.739198 
L 690.476574 443.997827 
L 693.400264 390.459696 
L 696.323954 385.093252 
L 699.247644 360.160317 
L 702.171335 330.412607 
L 705.095025 336.883822 
L 708.018715 336.436551 
L 710.942405 341.471735 
L 713.866095 339.389818 
L 716.789785 339.964521 
L 719.713475 337.568781 
L 722.637165 340.490934 
L 725.560855 341.597891 
L 728.484545 339.701209 
L 728.484545 339.701209 
" style="fill:none;stroke:#c44e52;stroke-dasharray:4.5,1.875,2.25,1.875;stroke-dashoffset:0;stroke-width:1.5;"/>
   </g>
   <g id="line2d_5">
    <path clip-path="url(#p2d34057ebf)" d="M 134.975455 329.263289 
L 137.899145 329.362177 
L 140.822835 330.769052 
L 143.746525 331.561575 
L 146.670215 332.798797 
L 149.593905 334.606069 
L 152.517595 334.827982 
L 155.441285 339.207258 
L 158.364975 338.360534 
L 161.288665 338.267715 
L 164.212356 337.185733 
L 167.136046 334.225873 
L 170.059736 354.456649 
L 172.983426 357.994868 
L 175.907116 375.779708 
L 178.830806 415.321079 
L 181.754496 428.782611 
L 184.678186 352.577877 
L 187.601876 301.131458 
L 190.525567 405.725178 
L 193.449257 402.2112 
L 196.372947 396.748806 
L 199.296637 425.609303 
L 202.220327 359.931513 
L 205.144017 350.850009 
L 208.067707 314.89004 
L 210.991397 71.453255 
L 213.915087 175.287936 
L 216.838777 385.451131 
L 219.762468 402.568415 
L 222.686158 394.866711 
L 225.609848 384.280283 
L 228.533538 378.209064 
L 231.457228 380.584585 
L 234.380918 271.555009 
L 237.304608 331.200442 
L 240.228298 406.079 
L 243.151988 374.263399 
L 246.075678 355.050276 
L 248.999369 352.316315 
L 251.923059 354.140833 
L 254.846749 339.649054 
L 257.770439 408.27378 
L 260.694129 369.948765 
L 263.617819 365.416452 
L 266.541509 149.015236 
L 269.465199 71.555971 
L 275.312579 71.454284 
L 281.15996 71.45494 
L 284.08365 72.181675 
L 287.00734 150.915013 
L 289.93103 333.166873 
L 292.85472 414.017972 
L 295.77841 428.136008 
L 298.7021 485.397716 
L 301.62579 421.620473 
L 304.549481 380.898075 
L 307.473171 338.192788 
L 310.396861 361.402734 
L 313.320551 341.073891 
L 316.244241 370.647769 
L 319.167931 365.235081 
L 322.091621 367.778611 
L 325.015311 296.19782 
L 327.939001 350.359661 
L 330.862691 356.38852 
L 333.786382 301.720363 
L 336.710072 311.343129 
L 339.633762 411.6435 
L 342.557452 435.843378 
L 345.481142 374.899788 
L 348.404832 411.264178 
L 351.328522 355.47864 
L 354.252212 175.246529 
L 357.175902 71.453008 
L 360.099592 71.459692 
L 363.023283 298.898323 
L 365.946973 310.092701 
L 368.870663 358.171499 
L 371.794353 327.971026 
L 374.718043 333.270501 
L 377.641733 353.804588 
L 380.565423 379.837064 
L 383.489113 387.846346 
L 386.412803 329.879915 
L 389.336494 338.838727 
L 392.260184 364.428497 
L 395.183874 310.606207 
L 398.107564 241.873044 
L 401.031254 308.266295 
L 403.954944 337.54844 
L 406.878634 320.808328 
L 409.802324 328.352744 
L 412.726014 299.204589 
L 415.649704 391.616237 
L 418.573395 268.468644 
L 421.497085 271.615909 
L 424.420775 351.349802 
L 427.344465 369.585429 
L 430.268155 443.669995 
L 433.191845 440.586515 
L 436.115535 319.656264 
L 439.039225 395.233441 
L 441.962915 399.483256 
L 447.810296 263.480665 
L 450.733986 333.349835 
L 453.657676 272.434072 
L 456.581366 71.459535 
L 459.505056 183.414856 
L 462.428746 71.544961 
L 465.352436 217.806675 
L 468.276126 302.705345 
L 471.199816 317.057728 
L 474.123506 328.644127 
L 477.047197 310.942941 
L 479.970887 238.499982 
L 482.894577 329.351945 
L 485.818267 342.138925 
L 488.741957 398.675884 
L 491.665647 381.787125 
L 494.589337 350.30065 
L 497.513027 465.719447 
L 500.436717 410.793418 
L 503.360408 290.597378 
L 506.284098 345.807287 
L 509.207788 414.677204 
L 512.131478 398.623799 
L 515.055168 408.870782 
L 517.978858 358.052462 
L 520.902548 413.342615 
L 523.826238 419.90985 
L 526.749928 367.202002 
L 529.673618 357.986368 
L 532.597309 399.896928 
L 535.520999 416.356485 
L 538.444689 372.314877 
L 541.368379 393.767712 
L 544.292069 329.764918 
L 547.215759 217.66631 
L 550.139449 326.679095 
L 553.063139 204.663408 
L 555.986829 325.797269 
L 558.910519 218.597668 
L 561.83421 208.749369 
L 564.7579 255.927958 
L 567.68159 264.077352 
L 570.60528 336.586545 
L 573.52897 321.157217 
L 576.45266 346.103024 
L 579.37635 339.464168 
L 582.30004 311.81597 
L 585.22373 385.083492 
L 588.147421 367.184302 
L 591.071111 323.050435 
L 593.994801 347.137206 
L 596.918491 311.901111 
L 599.842181 325.970314 
L 602.765871 382.697477 
L 605.689561 381.905007 
L 608.613251 395.82607 
L 611.536941 401.570368 
L 614.460631 422.53922 
L 617.384322 395.568863 
L 620.308012 433.335563 
L 623.231702 427.568913 
L 626.155392 439.362253 
L 629.079082 330.616417 
L 632.002772 277.232897 
L 634.926462 266.051409 
L 637.850152 290.562888 
L 640.773842 334.9484 
L 643.697532 293.514896 
L 646.621223 260.933444 
L 649.544913 354.296738 
L 652.468603 413.771049 
L 655.392293 372.082226 
L 658.315983 315.59611 
L 661.239673 384.778327 
L 664.163363 343.289292 
L 667.087053 397.624773 
L 670.010743 383.951927 
L 672.934433 349.271698 
L 675.858124 397.880441 
L 678.781814 372.08268 
L 681.705504 447.84254 
L 684.629194 453.45986 
L 687.552884 396.082858 
L 690.476574 434.848304 
L 693.400264 385.303131 
L 696.323954 382.54395 
L 699.247644 365.012014 
L 702.171335 335.074555 
L 705.095025 342.479122 
L 708.018715 340.786864 
L 710.942405 345.719819 
L 713.866095 343.953106 
L 716.789785 344.786625 
L 719.713475 342.990214 
L 722.637165 344.64716 
L 725.560855 346.795942 
L 728.484545 344.494385 
L 728.484545 344.494385 
" style="fill:none;stroke:#8172b3;stroke-dasharray:7.5,1.5,1.5,1.5;stroke-dashoffset:0;stroke-width:1.5;"/>
   </g>
   <g id="line2d_6"/>
   <g id="line2d_7"/>
   <g id="line2d_8"/>
   <g id="line2d_9"/>
   <g id="line2d_10"/>
   <g id="patch_3">
    <path d="M 105.3 529.9416 
L 105.3 71.4528 
" style="fill:none;stroke:#262626;stroke-linecap:square;stroke-linejoin:miter;stroke-width:1.25;"/>
   </g>
   <g id="patch_4">
    <path d="M 758.16 529.9416 
L 758.16 71.4528 
" style="fill:none;stroke:#262626;stroke-linecap:square;stroke-linejoin:miter;stroke-width:1.25;"/>
   </g>
   <g id="patch_5">
    <path d="M 105.3 529.9416 
L 758.16 529.9416 
" style="fill:none;stroke:#262626;stroke-linecap:square;stroke-linejoin:miter;stroke-width:1.25;"/>
   </g>
   <g id="patch_6">
    <path d="M 105.3 71.4528 
L 758.16 71.4528 
" style="fill:none;stroke:#262626;stroke-linecap:square;stroke-linejoin:miter;stroke-width:1.25;"/>
   </g>
   <g id="text_16">
    <!-- Activations for &gt;L&lt; -->
    <g style="fill:#262626;" transform="translate(382.037813 65.4528)scale(0.12 -0.12)">
     <defs>
      <path d="M -9 0 
L 1750 4581 
L 2403 4581 
L 4278 0 
L 3588 0 
L 3053 1388 
L 1138 1388 
L 634 0 
L -9 0 
z
M 1313 1881 
L 2866 1881 
L 2388 3150 
Q 2169 3728 2063 4100 
Q 1975 3659 1816 3225 
L 1313 1881 
z
" id="ArialMT-41" transform="scale(0.015625)"/>
      <path d="M 2588 1216 
L 3141 1144 
Q 3050 572 2676 248 
Q 2303 -75 1759 -75 
Q 1078 -75 664 370 
Q 250 816 250 1647 
Q 250 2184 428 2587 
Q 606 2991 970 3192 
Q 1334 3394 1763 3394 
Q 2303 3394 2647 3120 
Q 2991 2847 3088 2344 
L 2541 2259 
Q 2463 2594 2264 2762 
Q 2066 2931 1784 2931 
Q 1359 2931 1093 2626 
Q 828 2322 828 1663 
Q 828 994 1084 691 
Q 1341 388 1753 388 
Q 2084 388 2306 591 
Q 2528 794 2588 1216 
z
" id="ArialMT-63" transform="scale(0.015625)"/>
      <path d="M 1650 503 
L 1731 6 
Q 1494 -44 1306 -44 
Q 1000 -44 831 53 
Q 663 150 594 308 
Q 525 466 525 972 
L 525 2881 
L 113 2881 
L 113 3319 
L 525 3319 
L 525 4141 
L 1084 4478 
L 1084 3319 
L 1650 3319 
L 1650 2881 
L 1084 2881 
L 1084 941 
Q 1084 700 1114 631 
Q 1144 563 1211 522 
Q 1278 481 1403 481 
Q 1497 481 1650 503 
z
" id="ArialMT-74" transform="scale(0.015625)"/>
      <path d="M 425 3934 
L 425 4581 
L 988 4581 
L 988 3934 
L 425 3934 
z
M 425 0 
L 425 3319 
L 988 3319 
L 988 0 
L 425 0 
z
" id="ArialMT-69" transform="scale(0.015625)"/>
      <path d="M 1344 0 
L 81 3319 
L 675 3319 
L 1388 1331 
Q 1503 1009 1600 663 
Q 1675 925 1809 1294 
L 2547 3319 
L 3125 3319 
L 1869 0 
L 1344 0 
z
" id="ArialMT-76" transform="scale(0.015625)"/>
      <path d="M 2588 409 
Q 2275 144 1986 34 
Q 1697 -75 1366 -75 
Q 819 -75 525 192 
Q 231 459 231 875 
Q 231 1119 342 1320 
Q 453 1522 633 1644 
Q 813 1766 1038 1828 
Q 1203 1872 1538 1913 
Q 2219 1994 2541 2106 
Q 2544 2222 2544 2253 
Q 2544 2597 2384 2738 
Q 2169 2928 1744 2928 
Q 1347 2928 1158 2789 
Q 969 2650 878 2297 
L 328 2372 
Q 403 2725 575 2942 
Q 747 3159 1072 3276 
Q 1397 3394 1825 3394 
Q 2250 3394 2515 3294 
Q 2781 3194 2906 3042 
Q 3031 2891 3081 2659 
Q 3109 2516 3109 2141 
L 3109 1391 
Q 3109 606 3145 398 
Q 3181 191 3288 0 
L 2700 0 
Q 2613 175 2588 409 
z
M 2541 1666 
Q 2234 1541 1622 1453 
Q 1275 1403 1131 1340 
Q 988 1278 909 1158 
Q 831 1038 831 891 
Q 831 666 1001 516 
Q 1172 366 1500 366 
Q 1825 366 2078 508 
Q 2331 650 2450 897 
Q 2541 1088 2541 1459 
L 2541 1666 
z
" id="ArialMT-61" transform="scale(0.015625)"/>
      <path d="M 213 1659 
Q 213 2581 725 3025 
Q 1153 3394 1769 3394 
Q 2453 3394 2887 2945 
Q 3322 2497 3322 1706 
Q 3322 1066 3130 698 
Q 2938 331 2570 128 
Q 2203 -75 1769 -75 
Q 1072 -75 642 372 
Q 213 819 213 1659 
z
M 791 1659 
Q 791 1022 1069 705 
Q 1347 388 1769 388 
Q 2188 388 2466 706 
Q 2744 1025 2744 1678 
Q 2744 2294 2464 2611 
Q 2184 2928 1769 2928 
Q 1347 2928 1069 2612 
Q 791 2297 791 1659 
z
" id="ArialMT-6f" transform="scale(0.015625)"/>
      <path d="M 422 0 
L 422 3319 
L 928 3319 
L 928 2847 
Q 1294 3394 1984 3394 
Q 2284 3394 2536 3286 
Q 2788 3178 2913 3003 
Q 3038 2828 3088 2588 
Q 3119 2431 3119 2041 
L 3119 0 
L 2556 0 
L 2556 2019 
Q 2556 2363 2490 2533 
Q 2425 2703 2258 2804 
Q 2091 2906 1866 2906 
Q 1506 2906 1245 2678 
Q 984 2450 984 1813 
L 984 0 
L 422 0 
z
" id="ArialMT-6e" transform="scale(0.015625)"/>
      <path d="M 197 991 
L 753 1078 
Q 800 744 1014 566 
Q 1228 388 1613 388 
Q 2000 388 2187 545 
Q 2375 703 2375 916 
Q 2375 1106 2209 1216 
Q 2094 1291 1634 1406 
Q 1016 1563 777 1677 
Q 538 1791 414 1992 
Q 291 2194 291 2438 
Q 291 2659 392 2848 
Q 494 3038 669 3163 
Q 800 3259 1026 3326 
Q 1253 3394 1513 3394 
Q 1903 3394 2198 3281 
Q 2494 3169 2634 2976 
Q 2775 2784 2828 2463 
L 2278 2388 
Q 2241 2644 2061 2787 
Q 1881 2931 1553 2931 
Q 1166 2931 1000 2803 
Q 834 2675 834 2503 
Q 834 2394 903 2306 
Q 972 2216 1119 2156 
Q 1203 2125 1616 2013 
Q 2213 1853 2448 1751 
Q 2684 1650 2818 1456 
Q 2953 1263 2953 975 
Q 2953 694 2789 445 
Q 2625 197 2315 61 
Q 2006 -75 1616 -75 
Q 969 -75 630 194 
Q 291 463 197 991 
z
" id="ArialMT-73" transform="scale(0.015625)"/>
      <path id="ArialMT-20" transform="scale(0.015625)"/>
      <path d="M 556 0 
L 556 2881 
L 59 2881 
L 59 3319 
L 556 3319 
L 556 3672 
Q 556 4006 616 4169 
Q 697 4388 901 4523 
Q 1106 4659 1475 4659 
Q 1713 4659 2000 4603 
L 1916 4113 
Q 1741 4144 1584 4144 
Q 1328 4144 1222 4034 
Q 1116 3925 1116 3625 
L 1116 3319 
L 1763 3319 
L 1763 2881 
L 1116 2881 
L 1116 0 
L 556 0 
z
" id="ArialMT-66" transform="scale(0.015625)"/>
      <path d="M 416 0 
L 416 3319 
L 922 3319 
L 922 2816 
Q 1116 3169 1280 3281 
Q 1444 3394 1641 3394 
Q 1925 3394 2219 3213 
L 2025 2691 
Q 1819 2813 1613 2813 
Q 1428 2813 1281 2702 
Q 1134 2591 1072 2394 
Q 978 2094 978 1738 
L 978 0 
L 416 0 
z
" id="ArialMT-72" transform="scale(0.015625)"/>
      <path d="M 3384 2003 
L 350 706 
L 350 1266 
L 2753 2263 
L 350 3250 
L 350 3809 
L 3384 2528 
L 3384 2003 
z
" id="ArialMT-3e" transform="scale(0.015625)"/>
      <path d="M 469 0 
L 469 4581 
L 1075 4581 
L 1075 541 
L 3331 541 
L 3331 0 
L 469 0 
z
" id="ArialMT-4c" transform="scale(0.015625)"/>
      <path d="M 350 2003 
L 350 2528 
L 3384 3809 
L 3384 3250 
L 978 2263 
L 3384 1266 
L 3384 706 
L 350 2003 
z
" id="ArialMT-3c" transform="scale(0.015625)"/>
     </defs>
     <use xlink:href="#ArialMT-41"/>
     <use x="66.699219" xlink:href="#ArialMT-63"/>
     <use x="116.699219" xlink:href="#ArialMT-74"/>
     <use x="144.482422" xlink:href="#ArialMT-69"/>
     <use x="166.699219" xlink:href="#ArialMT-76"/>
     <use x="216.699219" xlink:href="#ArialMT-61"/>
     <use x="272.314453" xlink:href="#ArialMT-74"/>
     <use x="300.097656" xlink:href="#ArialMT-69"/>
     <use x="322.314453" xlink:href="#ArialMT-6f"/>
     <use x="377.929688" xlink:href="#ArialMT-6e"/>
     <use x="433.544922" xlink:href="#ArialMT-73"/>
     <use x="483.544922" xlink:href="#ArialMT-20"/>
     <use x="511.328125" xlink:href="#ArialMT-66"/>
     <use x="539.111328" xlink:href="#ArialMT-6f"/>
     <use x="594.726562" xlink:href="#ArialMT-72"/>
     <use x="628.027344" xlink:href="#ArialMT-20"/>
     <use x="655.810547" xlink:href="#ArialMT-3e"/>
     <use x="714.208984" xlink:href="#ArialMT-4c"/>
     <use x="769.824219" xlink:href="#ArialMT-3c"/>
    </g>
   </g>
   <g id="legend_1">
    <g id="patch_7">
     <path d="M 640.044062 158.514363 
L 750.46 158.514363 
Q 752.66 158.514363 752.66 156.314363 
L 752.66 79.1528 
Q 752.66 76.9528 750.46 76.9528 
L 640.044062 76.9528 
Q 637.844062 76.9528 637.844062 79.1528 
L 637.844062 156.314363 
Q 637.844062 158.514363 640.044062 158.514363 
z
" style="fill:#ffffff;opacity:0.8;stroke:#cccccc;stroke-linejoin:miter;"/>
    </g>
    <g id="line2d_11">
     <path d="M 642.244062 85.376394 
L 664.244062 85.376394 
" style="fill:none;stroke:#4c72b0;stroke-linecap:round;stroke-width:1.5;"/>
    </g>
    <g id="line2d_12"/>
    <g id="text_17">
     <!-- regular -->
     <g style="fill:#262626;" transform="translate(673.044062 89.226394)scale(0.11 -0.11)">
      <defs>
       <path d="M 2694 1069 
L 3275 997 
Q 3138 488 2766 206 
Q 2394 -75 1816 -75 
Q 1088 -75 661 373 
Q 234 822 234 1631 
Q 234 2469 665 2931 
Q 1097 3394 1784 3394 
Q 2450 3394 2872 2941 
Q 3294 2488 3294 1666 
Q 3294 1616 3291 1516 
L 816 1516 
Q 847 969 1125 678 
Q 1403 388 1819 388 
Q 2128 388 2347 550 
Q 2566 713 2694 1069 
z
M 847 1978 
L 2700 1978 
Q 2663 2397 2488 2606 
Q 2219 2931 1791 2931 
Q 1403 2931 1139 2672 
Q 875 2413 847 1978 
z
" id="ArialMT-65" transform="scale(0.015625)"/>
       <path d="M 319 -275 
L 866 -356 
Q 900 -609 1056 -725 
Q 1266 -881 1628 -881 
Q 2019 -881 2231 -725 
Q 2444 -569 2519 -288 
Q 2563 -116 2559 434 
Q 2191 0 1641 0 
Q 956 0 581 494 
Q 206 988 206 1678 
Q 206 2153 378 2554 
Q 550 2956 876 3175 
Q 1203 3394 1644 3394 
Q 2231 3394 2613 2919 
L 2613 3319 
L 3131 3319 
L 3131 450 
Q 3131 -325 2973 -648 
Q 2816 -972 2473 -1159 
Q 2131 -1347 1631 -1347 
Q 1038 -1347 672 -1080 
Q 306 -813 319 -275 
z
M 784 1719 
Q 784 1066 1043 766 
Q 1303 466 1694 466 
Q 2081 466 2343 764 
Q 2606 1063 2606 1700 
Q 2606 2309 2336 2618 
Q 2066 2928 1684 2928 
Q 1309 2928 1046 2623 
Q 784 2319 784 1719 
z
" id="ArialMT-67" transform="scale(0.015625)"/>
       <path d="M 2597 0 
L 2597 488 
Q 2209 -75 1544 -75 
Q 1250 -75 995 37 
Q 741 150 617 320 
Q 494 491 444 738 
Q 409 903 409 1263 
L 409 3319 
L 972 3319 
L 972 1478 
Q 972 1038 1006 884 
Q 1059 663 1231 536 
Q 1403 409 1656 409 
Q 1909 409 2131 539 
Q 2353 669 2445 892 
Q 2538 1116 2538 1541 
L 2538 3319 
L 3100 3319 
L 3100 0 
L 2597 0 
z
" id="ArialMT-75" transform="scale(0.015625)"/>
       <path d="M 409 0 
L 409 4581 
L 972 4581 
L 972 0 
L 409 0 
z
" id="ArialMT-6c" transform="scale(0.015625)"/>
      </defs>
      <use xlink:href="#ArialMT-72"/>
      <use x="33.300781" xlink:href="#ArialMT-65"/>
      <use x="88.916016" xlink:href="#ArialMT-67"/>
      <use x="144.53125" xlink:href="#ArialMT-75"/>
      <use x="200.146484" xlink:href="#ArialMT-6c"/>
      <use x="222.363281" xlink:href="#ArialMT-61"/>
      <use x="277.978516" xlink:href="#ArialMT-72"/>
     </g>
    </g>
    <g id="line2d_13">
     <path d="M 642.244062 101.0978 
L 664.244062 101.0978 
" style="fill:none;stroke:#dd8452;stroke-dasharray:6,2.25;stroke-dashoffset:0;stroke-width:1.5;"/>
    </g>
    <g id="line2d_14"/>
    <g id="text_18">
     <!-- splitted_3s -->
     <g style="fill:#262626;" transform="translate(673.044062 104.9478)scale(0.11 -0.11)">
      <defs>
       <path d="M 422 -1272 
L 422 3319 
L 934 3319 
L 934 2888 
Q 1116 3141 1344 3267 
Q 1572 3394 1897 3394 
Q 2322 3394 2647 3175 
Q 2972 2956 3137 2557 
Q 3303 2159 3303 1684 
Q 3303 1175 3120 767 
Q 2938 359 2589 142 
Q 2241 -75 1856 -75 
Q 1575 -75 1351 44 
Q 1128 163 984 344 
L 984 -1272 
L 422 -1272 
z
M 931 1641 
Q 931 1000 1190 694 
Q 1450 388 1819 388 
Q 2194 388 2461 705 
Q 2728 1022 2728 1688 
Q 2728 2322 2467 2637 
Q 2206 2953 1844 2953 
Q 1484 2953 1207 2617 
Q 931 2281 931 1641 
z
" id="ArialMT-70" transform="scale(0.015625)"/>
       <path d="M 2575 0 
L 2575 419 
Q 2259 -75 1647 -75 
Q 1250 -75 917 144 
Q 584 363 401 755 
Q 219 1147 219 1656 
Q 219 2153 384 2558 
Q 550 2963 881 3178 
Q 1213 3394 1622 3394 
Q 1922 3394 2156 3267 
Q 2391 3141 2538 2938 
L 2538 4581 
L 3097 4581 
L 3097 0 
L 2575 0 
z
M 797 1656 
Q 797 1019 1065 703 
Q 1334 388 1700 388 
Q 2069 388 2326 689 
Q 2584 991 2584 1609 
Q 2584 2291 2321 2609 
Q 2059 2928 1675 2928 
Q 1300 2928 1048 2622 
Q 797 2316 797 1656 
z
" id="ArialMT-64" transform="scale(0.015625)"/>
       <path d="M -97 -1272 
L -97 -866 
L 3631 -866 
L 3631 -1272 
L -97 -1272 
z
" id="ArialMT-5f" transform="scale(0.015625)"/>
       <path d="M 269 1209 
L 831 1284 
Q 928 806 1161 595 
Q 1394 384 1728 384 
Q 2125 384 2398 659 
Q 2672 934 2672 1341 
Q 2672 1728 2419 1979 
Q 2166 2231 1775 2231 
Q 1616 2231 1378 2169 
L 1441 2663 
Q 1497 2656 1531 2656 
Q 1891 2656 2178 2843 
Q 2466 3031 2466 3422 
Q 2466 3731 2256 3934 
Q 2047 4138 1716 4138 
Q 1388 4138 1169 3931 
Q 950 3725 888 3313 
L 325 3413 
Q 428 3978 793 4289 
Q 1159 4600 1703 4600 
Q 2078 4600 2393 4439 
Q 2709 4278 2876 4000 
Q 3044 3722 3044 3409 
Q 3044 3113 2884 2869 
Q 2725 2625 2413 2481 
Q 2819 2388 3044 2092 
Q 3269 1797 3269 1353 
Q 3269 753 2831 336 
Q 2394 -81 1725 -81 
Q 1122 -81 723 278 
Q 325 638 269 1209 
z
" id="ArialMT-33" transform="scale(0.015625)"/>
      </defs>
      <use xlink:href="#ArialMT-73"/>
      <use x="50" xlink:href="#ArialMT-70"/>
      <use x="105.615234" xlink:href="#ArialMT-6c"/>
      <use x="127.832031" xlink:href="#ArialMT-69"/>
      <use x="150.048828" xlink:href="#ArialMT-74"/>
      <use x="177.832031" xlink:href="#ArialMT-74"/>
      <use x="205.615234" xlink:href="#ArialMT-65"/>
      <use x="261.230469" xlink:href="#ArialMT-64"/>
      <use x="316.845703" xlink:href="#ArialMT-5f"/>
      <use x="372.460938" xlink:href="#ArialMT-33"/>
      <use x="428.076172" xlink:href="#ArialMT-73"/>
     </g>
    </g>
    <g id="line2d_15">
     <path d="M 642.244062 116.6903 
L 664.244062 116.6903 
" style="fill:none;stroke:#55a868;stroke-dasharray:1.5,1.5;stroke-dashoffset:0;stroke-width:1.5;"/>
    </g>
    <g id="line2d_16"/>
    <g id="text_19">
     <!-- splitted_1s -->
     <g style="fill:#262626;" transform="translate(673.044062 120.5403)scale(0.11 -0.11)">
      <use xlink:href="#ArialMT-73"/>
      <use x="50" xlink:href="#ArialMT-70"/>
      <use x="105.615234" xlink:href="#ArialMT-6c"/>
      <use x="127.832031" xlink:href="#ArialMT-69"/>
      <use x="150.048828" xlink:href="#ArialMT-74"/>
      <use x="177.832031" xlink:href="#ArialMT-74"/>
      <use x="205.615234" xlink:href="#ArialMT-65"/>
      <use x="261.230469" xlink:href="#ArialMT-64"/>
      <use x="316.845703" xlink:href="#ArialMT-5f"/>
      <use x="372.460938" xlink:href="#ArialMT-31"/>
      <use x="428.076172" xlink:href="#ArialMT-73"/>
     </g>
    </g>
    <g id="line2d_17">
     <path d="M 642.244062 132.384206 
L 664.244062 132.384206 
" style="fill:none;stroke:#c44e52;stroke-dasharray:4.5,1.875,2.25,1.875;stroke-dashoffset:0;stroke-width:1.5;"/>
    </g>
    <g id="line2d_18"/>
    <g id="text_20">
     <!-- overlap_1f_3s -->
     <g style="fill:#262626;" transform="translate(673.044062 136.234206)scale(0.11 -0.11)">
      <use xlink:href="#ArialMT-6f"/>
      <use x="55.615234" xlink:href="#ArialMT-76"/>
      <use x="105.615234" xlink:href="#ArialMT-65"/>
      <use x="161.230469" xlink:href="#ArialMT-72"/>
      <use x="194.53125" xlink:href="#ArialMT-6c"/>
      <use x="216.748047" xlink:href="#ArialMT-61"/>
      <use x="272.363281" xlink:href="#ArialMT-70"/>
      <use x="327.978516" xlink:href="#ArialMT-5f"/>
      <use x="383.59375" xlink:href="#ArialMT-31"/>
      <use x="439.208984" xlink:href="#ArialMT-66"/>
      <use x="466.992188" xlink:href="#ArialMT-5f"/>
      <use x="522.607422" xlink:href="#ArialMT-33"/>
      <use x="578.222656" xlink:href="#ArialMT-73"/>
     </g>
    </g>
    <g id="line2d_19">
     <path d="M 642.244062 148.078113 
L 664.244062 148.078113 
" style="fill:none;stroke:#8172b3;stroke-dasharray:7.5,1.5,1.5,1.5;stroke-dashoffset:0;stroke-width:1.5;"/>
    </g>
    <g id="line2d_20"/>
    <g id="text_21">
     <!-- overlap_10f_3s -->
     <g style="fill:#262626;" transform="translate(673.044062 151.928112)scale(0.11 -0.11)">
      <use xlink:href="#ArialMT-6f"/>
      <use x="55.615234" xlink:href="#ArialMT-76"/>
      <use x="105.615234" xlink:href="#ArialMT-65"/>
      <use x="161.230469" xlink:href="#ArialMT-72"/>
      <use x="194.53125" xlink:href="#ArialMT-6c"/>
      <use x="216.748047" xlink:href="#ArialMT-61"/>
      <use x="272.363281" xlink:href="#ArialMT-70"/>
      <use x="327.978516" xlink:href="#ArialMT-5f"/>
      <use x="383.59375" xlink:href="#ArialMT-31"/>
      <use x="439.208984" xlink:href="#ArialMT-30"/>
      <use x="494.824219" xlink:href="#ArialMT-66"/>
      <use x="522.607422" xlink:href="#ArialMT-5f"/>
      <use x="578.222656" xlink:href="#ArialMT-33"/>
      <use x="633.837891" xlink:href="#ArialMT-73"/>
     </g>
    </g>
   </g>
  </g>
 </g>
 <defs>
  <clipPath id="p2d34057ebf">
   <rect height="458.4888" width="652.86" x="105.3" y="71.4528"/>
  </clipPath>
 </defs>
</svg>
