<?xml version="1.0" encoding="utf-8" standalone="no"?>
<!DOCTYPE svg PUBLIC "-//W3C//DTD SVG 1.1//EN"
  "http://www.w3.org/Graphics/SVG/1.1/DTD/svg11.dtd">
<svg height="595.44pt" version="1.1" viewBox="0 0 842.4 595.44" width="842.4pt" xmlns="http://www.w3.org/2000/svg" xmlns:xlink="http://www.w3.org/1999/xlink">
 <metadata>
  <rdf:RDF xmlns:cc="http://creativecommons.org/ns#" xmlns:dc="http://purl.org/dc/elements/1.1/" xmlns:rdf="http://www.w3.org/1999/02/22-rdf-syntax-ns#">
   <cc:Work>
    <dc:type rdf:resource="http://purl.org/dc/dcmitype/StillImage"/>
    <dc:date>2021-06-04T22:03:17.269217</dc:date>
    <dc:format>image/svg+xml</dc:format>
    <dc:creator>
     <cc:Agent>
      <dc:title>Matplotlib v3.4.1, https://matplotlib.org/</dc:title>
     </cc:Agent>
    </dc:creator>
   </cc:Work>
  </rdf:RDF>
 </metadata>
 <defs>
  <style type="text/css">*{stroke-linecap:butt;stroke-linejoin:round;}</style>
 </defs>
 <g id="figure_1">
  <g id="patch_1">
   <path d="M 0 595.44 
L 842.4 595.44 
L 842.4 0 
L 0 0 
z
" style="fill:#ffffff;"/>
  </g>
  <g id="axes_1">
   <g id="patch_2">
    <path d="M 105.3 529.9416 
L 758.16 529.9416 
L 758.16 71.4528 
L 105.3 71.4528 
z
" style="fill:#ffffff;"/>
   </g>
   <g id="matplotlib.axis_1">
    <g id="xtick_1">
     <g id="text_1">
      <!-- 0 -->
      <g style="fill:#262626;" transform="translate(131.916939 547.315194)scale(0.11 -0.11)">
       <defs>
        <path d="M 266 2259 
Q 266 3072 433 3567 
Q 600 4063 929 4331 
Q 1259 4600 1759 4600 
Q 2128 4600 2406 4451 
Q 2684 4303 2865 4023 
Q 3047 3744 3150 3342 
Q 3253 2941 3253 2259 
Q 3253 1453 3087 958 
Q 2922 463 2592 192 
Q 2263 -78 1759 -78 
Q 1097 -78 719 397 
Q 266 969 266 2259 
z
M 844 2259 
Q 844 1131 1108 757 
Q 1372 384 1759 384 
Q 2147 384 2411 759 
Q 2675 1134 2675 2259 
Q 2675 3391 2411 3762 
Q 2147 4134 1753 4134 
Q 1366 4134 1134 3806 
Q 844 3388 844 2259 
z
" id="ArialMT-30" transform="scale(0.015625)"/>
       </defs>
       <use xlink:href="#ArialMT-30"/>
      </g>
     </g>
    </g>
    <g id="xtick_2">
     <g id="text_2">
      <!-- 25 -->
      <g style="fill:#262626;" transform="translate(201.950676 547.315194)scale(0.11 -0.11)">
       <defs>
        <path d="M 3222 541 
L 3222 0 
L 194 0 
Q 188 203 259 391 
Q 375 700 629 1000 
Q 884 1300 1366 1694 
Q 2113 2306 2375 2664 
Q 2638 3022 2638 3341 
Q 2638 3675 2398 3904 
Q 2159 4134 1775 4134 
Q 1369 4134 1125 3890 
Q 881 3647 878 3216 
L 300 3275 
Q 359 3922 746 4261 
Q 1134 4600 1788 4600 
Q 2447 4600 2831 4234 
Q 3216 3869 3216 3328 
Q 3216 3053 3103 2787 
Q 2991 2522 2730 2228 
Q 2469 1934 1863 1422 
Q 1356 997 1212 845 
Q 1069 694 975 541 
L 3222 541 
z
" id="ArialMT-32" transform="scale(0.015625)"/>
        <path d="M 266 1200 
L 856 1250 
Q 922 819 1161 601 
Q 1400 384 1738 384 
Q 2144 384 2425 690 
Q 2706 997 2706 1503 
Q 2706 1984 2436 2262 
Q 2166 2541 1728 2541 
Q 1456 2541 1237 2417 
Q 1019 2294 894 2097 
L 366 2166 
L 809 4519 
L 3088 4519 
L 3088 3981 
L 1259 3981 
L 1013 2750 
Q 1425 3038 1878 3038 
Q 2478 3038 2890 2622 
Q 3303 2206 3303 1553 
Q 3303 931 2941 478 
Q 2500 -78 1738 -78 
Q 1113 -78 717 272 
Q 322 622 266 1200 
z
" id="ArialMT-35" transform="scale(0.015625)"/>
       </defs>
       <use xlink:href="#ArialMT-32"/>
       <use x="55.615234" xlink:href="#ArialMT-35"/>
      </g>
     </g>
    </g>
    <g id="xtick_3">
     <g id="text_3">
      <!-- 50 -->
      <g style="fill:#262626;" transform="translate(275.042928 547.315194)scale(0.11 -0.11)">
       <use xlink:href="#ArialMT-35"/>
       <use x="55.615234" xlink:href="#ArialMT-30"/>
      </g>
     </g>
    </g>
    <g id="xtick_4">
     <g id="text_4">
      <!-- 75 -->
      <g style="fill:#262626;" transform="translate(348.135181 547.315194)scale(0.11 -0.11)">
       <defs>
        <path d="M 303 3981 
L 303 4522 
L 3269 4522 
L 3269 4084 
Q 2831 3619 2401 2847 
Q 1972 2075 1738 1259 
Q 1569 684 1522 0 
L 944 0 
Q 953 541 1156 1306 
Q 1359 2072 1739 2783 
Q 2119 3494 2547 3981 
L 303 3981 
z
" id="ArialMT-37" transform="scale(0.015625)"/>
       </defs>
       <use xlink:href="#ArialMT-37"/>
       <use x="55.615234" xlink:href="#ArialMT-35"/>
      </g>
     </g>
    </g>
    <g id="xtick_5">
     <g id="text_5">
      <!-- 100 -->
      <g style="fill:#262626;" transform="translate(418.168918 547.315194)scale(0.11 -0.11)">
       <defs>
        <path d="M 2384 0 
L 1822 0 
L 1822 3584 
Q 1619 3391 1289 3197 
Q 959 3003 697 2906 
L 697 3450 
Q 1169 3672 1522 3987 
Q 1875 4303 2022 4600 
L 2384 4600 
L 2384 0 
z
" id="ArialMT-31" transform="scale(0.015625)"/>
       </defs>
       <use xlink:href="#ArialMT-31"/>
       <use x="55.615234" xlink:href="#ArialMT-30"/>
       <use x="111.230469" xlink:href="#ArialMT-30"/>
      </g>
     </g>
    </g>
    <g id="xtick_6">
     <g id="text_6">
      <!-- 125 -->
      <g style="fill:#262626;" transform="translate(491.261171 547.315194)scale(0.11 -0.11)">
       <use xlink:href="#ArialMT-31"/>
       <use x="55.615234" xlink:href="#ArialMT-32"/>
       <use x="111.230469" xlink:href="#ArialMT-35"/>
      </g>
     </g>
    </g>
    <g id="xtick_7">
     <g id="text_7">
      <!-- 150 -->
      <g style="fill:#262626;" transform="translate(564.353423 547.315194)scale(0.11 -0.11)">
       <use xlink:href="#ArialMT-31"/>
       <use x="55.615234" xlink:href="#ArialMT-35"/>
       <use x="111.230469" xlink:href="#ArialMT-30"/>
      </g>
     </g>
    </g>
    <g id="xtick_8">
     <g id="text_8">
      <!-- 175 -->
      <g style="fill:#262626;" transform="translate(637.445676 547.315194)scale(0.11 -0.11)">
       <use xlink:href="#ArialMT-31"/>
       <use x="55.615234" xlink:href="#ArialMT-37"/>
       <use x="111.230469" xlink:href="#ArialMT-35"/>
      </g>
     </g>
    </g>
    <g id="xtick_9">
     <g id="text_9">
      <!-- 200 -->
      <g style="fill:#262626;" transform="translate(710.537928 547.315194)scale(0.11 -0.11)">
       <use xlink:href="#ArialMT-32"/>
       <use x="55.615234" xlink:href="#ArialMT-30"/>
       <use x="111.230469" xlink:href="#ArialMT-30"/>
      </g>
     </g>
    </g>
   </g>
   <g id="matplotlib.axis_2">
    <g id="ytick_1">
     <g id="text_10">
      <!-- −25 -->
      <g style="fill:#262626;" transform="translate(77.14125 533.878397)scale(0.11 -0.11)">
       <defs>
        <path d="M 3381 1997 
L 356 1997 
L 356 2522 
L 3381 2522 
L 3381 1997 
z
" id="ArialMT-2212" transform="scale(0.015625)"/>
       </defs>
       <use xlink:href="#ArialMT-2212"/>
       <use x="58.398438" xlink:href="#ArialMT-32"/>
       <use x="114.013672" xlink:href="#ArialMT-35"/>
      </g>
     </g>
    </g>
    <g id="ytick_2">
     <g id="text_11">
      <!-- −20 -->
      <g style="fill:#262626;" transform="translate(77.14125 442.180637)scale(0.11 -0.11)">
       <use xlink:href="#ArialMT-2212"/>
       <use x="58.398438" xlink:href="#ArialMT-32"/>
       <use x="114.013672" xlink:href="#ArialMT-30"/>
      </g>
     </g>
    </g>
    <g id="ytick_3">
     <g id="text_12">
      <!-- −15 -->
      <g style="fill:#262626;" transform="translate(77.14125 350.482877)scale(0.11 -0.11)">
       <use xlink:href="#ArialMT-2212"/>
       <use x="58.398438" xlink:href="#ArialMT-31"/>
       <use x="114.013672" xlink:href="#ArialMT-35"/>
      </g>
     </g>
    </g>
    <g id="ytick_4">
     <g id="text_13">
      <!-- −10 -->
      <g style="fill:#262626;" transform="translate(77.14125 258.785117)scale(0.11 -0.11)">
       <use xlink:href="#ArialMT-2212"/>
       <use x="58.398438" xlink:href="#ArialMT-31"/>
       <use x="114.013672" xlink:href="#ArialMT-30"/>
      </g>
     </g>
    </g>
    <g id="ytick_5">
     <g id="text_14">
      <!-- −5 -->
      <g style="fill:#262626;" transform="translate(83.258281 167.087357)scale(0.11 -0.11)">
       <use xlink:href="#ArialMT-2212"/>
       <use x="58.398438" xlink:href="#ArialMT-35"/>
      </g>
     </g>
    </g>
    <g id="ytick_6">
     <g id="text_15">
      <!-- 0 -->
      <g style="fill:#262626;" transform="translate(89.682969 75.389597)scale(0.11 -0.11)">
       <use xlink:href="#ArialMT-30"/>
      </g>
     </g>
    </g>
   </g>
   <g id="line2d_1">
    <path clip-path="url(#p3c7b3aa2b4)" d="M 134.975455 572.007017 
L 137.899145 572.943954 
L 140.822835 574.141492 
L 143.746525 573.751361 
L 146.670215 575.717232 
L 149.593905 576.841207 
L 152.517595 578.166561 
L 155.441285 580.725937 
L 158.364975 583.836456 
L 161.288665 585.262483 
L 164.212356 587.300553 
L 167.136046 591.411323 
L 167.812488 596.44 
M 185.794833 596.44 
L 187.601876 552.366667 
L 189.615437 596.44 
M 201.665443 596.44 
L 202.220327 583.099149 
L 205.144017 574.460683 
L 205.875778 596.44 
M 209.93693 596.44 
L 210.991397 559.299862 
L 214.852648 596.44 
M 222.430448 596.44 
L 222.686158 594.503583 
L 225.609848 573.707811 
L 227.420538 596.44 
M 232.296894 596.44 
L 234.380918 524.951854 
L 237.884503 596.44 
M 243.427383 596.44 
L 246.075678 497.350739 
L 248.999369 487.395979 
L 251.923059 579.094613 
L 254.846749 569.107112 
L 257.742195 596.44 
M 257.781149 596.44 
L 260.694129 523.924039 
L 262.479197 596.44 
M 265.066668 596.44 
L 266.541509 549.355245 
L 269.465199 540.810526 
L 272.388889 558.699851 
L 275.312579 573.030494 
L 278.23627 574.948408 
L 281.15996 559.657951 
L 284.08365 530.125594 
L 287.00734 542.098766 
L 289.93103 587.333189 
L 292.85472 547.578335 
L 295.77841 531.48278 
L 298.7021 587.159688 
L 301.62579 587.993015 
L 304.549481 551.003254 
L 307.473171 527.318456 
L 310.396861 555.970683 
L 313.320551 529.507009 
L 316.244241 557.756338 
L 319.167931 532.916502 
L 322.091621 544.59091 
L 325.015311 504.582208 
L 327.939001 544.252375 
L 330.862691 580.8689 
L 333.786382 557.33364 
L 336.710072 523.526038 
L 339.633762 579.836502 
L 341.818804 596.44 
M 342.778596 596.44 
L 345.481142 527.847877 
L 348.404832 496.2438 
L 351.328522 480.237898 
L 354.252212 552.173612 
L 357.175902 541.561719 
L 360.099592 529.356176 
L 362.585445 596.44 
M 363.436098 596.44 
L 365.946973 524.573791 
L 368.870663 524.017961 
L 371.794353 539.05198 
L 374.746179 596.44 
M 382.289647 596.44 
L 383.489113 559.803433 
L 386.412803 543.271853 
L 389.336494 586.103085 
L 392.260184 560.561203 
L 395.183874 576.489309 
L 398.107564 525.186675 
L 401.031254 503.133829 
L 403.954944 507.039582 
L 406.878634 552.949187 
L 409.802324 507.143018 
L 412.726014 487.712197 
L 415.649704 574.122008 
L 418.573395 549.368328 
L 421.497085 589.159176 
L 421.783759 596.44 
M 433.212694 596.44 
L 436.115535 525.294448 
L 439.039225 539.811114 
L 441.962915 586.072268 
L 444.886605 581.768163 
L 447.810296 504.142265 
L 450.733986 470.432257 
L 453.657676 536.107161 
L 456.581366 517.578262 
L 458.110417 596.44 
M 461.372895 596.44 
L 462.428746 555.779832 
L 465.352436 562.678887 
L 468.276126 541.666974 
L 471.199816 544.162441 
L 473.118065 596.44 
M 475.215878 596.44 
L 477.047197 550.503251 
L 479.970887 464.535657 
L 482.894577 578.598878 
L 485.818267 582.840018 
L 488.741957 585.742757 
L 491.665647 542.69213 
L 494.589337 545.515675 
L 496.150221 596.44 
M 498.844044 596.44 
L 500.436717 543.237502 
L 503.360408 468.612951 
L 506.284098 553.798115 
L 507.573541 596.44 
M 516.082114 596.44 
L 517.978858 536.110029 
L 520.902548 583.045385 
L 523.826238 591.95575 
L 526.749928 544.6792 
L 529.551575 596.44 
M 534.286503 596.44 
L 535.520999 556.769939 
L 538.444689 532.468305 
L 541.163142 596.44 
M 545.034597 596.44 
L 547.215759 545.302507 
L 550.139449 583.862446 
L 553.063139 490.920835 
L 555.986829 566.469766 
L 558.910519 540.905706 
L 561.83421 540.913402 
L 564.7579 554.539234 
L 567.68159 518.277301 
L 570.60528 525.902574 
L 573.52897 516.472407 
L 576.45266 493.476923 
L 579.37635 532.738035 
L 582.30004 544.340349 
L 585.22373 538.661534 
L 588.147421 529.099284 
L 591.071111 523.547376 
L 593.994801 548.546195 
L 596.918491 482.802276 
L 599.842181 536.878118 
L 602.765871 524.996699 
L 605.689561 532.513673 
L 608.613251 522.484931 
L 611.312814 596.44 
M 614.712566 596.44 
L 617.384322 460.664534 
L 620.308012 494.599324 
L 625.300636 596.44 
M 628.493992 596.44 
L 632.002772 570.30402 
L 634.926462 543.92951 
L 637.850152 580.565729 
L 640.773842 508.752724 
L 643.697532 451.779565 
L 646.621223 500.569486 
L 649.544913 516.474506 
L 652.468603 582.439148 
L 655.392293 547.544895 
L 658.315983 521.930044 
L 661.239673 586.021582 
L 664.163363 520.28319 
L 667.087053 574.353015 
L 670.010743 579.825973 
L 672.934433 559.939539 
L 675.858124 566.538221 
L 678.781814 535.963358 
L 681.599993 596.44 
M 686.616881 596.44 
L 687.552884 575.324862 
L 688.180255 596.44 
M 698.672373 596.44 
L 699.247644 590.565543 
L 702.171335 591.72107 
L 703.607512 596.44 
M 720.622198 596.44 
L 722.637165 595.067984 
L 723.718992 596.44 
L 723.718992 596.44 
" style="fill:none;stroke:#4c72b0;stroke-linecap:round;stroke-width:1.5;"/>
   </g>
   <g id="line2d_2">
    <path clip-path="url(#p3c7b3aa2b4)" d="M 134.975455 561.853746 
L 137.899145 565.631157 
L 140.822835 566.585304 
L 143.746525 566.437374 
L 146.670215 569.211072 
L 149.593905 570.45069 
L 152.517595 570.029007 
L 155.441285 571.815677 
L 158.364975 572.530386 
L 161.288665 574.154084 
L 164.212356 574.482161 
L 167.136046 575.593928 
L 170.059736 594.416587 
L 170.967309 596.44 
M 185.28368 596.44 
L 187.601876 526.424054 
L 189.906525 596.44 
M 202.108074 596.44 
L 202.220327 594.662496 
L 202.840652 596.44 
M 210.626957 596.44 
L 210.991397 584.942206 
L 213.915087 572.072744 
L 215.472658 596.44 
M 222.697452 596.44 
L 225.609848 570.516802 
L 228.674417 596.44 
M 232.122947 596.44 
L 234.380918 518.281289 
L 237.304608 573.297776 
L 238.366289 596.44 
M 243.354435 596.44 
L 246.075678 508.452561 
L 248.999369 516.690612 
L 251.923059 575.66039 
L 254.846749 569.058035 
L 257.370238 596.44 
M 257.978621 596.44 
L 260.694129 539.796738 
L 262.195538 596.44 
M 265.550955 596.44 
L 266.541509 568.94519 
L 269.465199 554.705424 
L 272.388889 588.6194 
L 273.818635 596.44 
M 279.338853 596.44 
L 281.15996 587.624746 
L 284.08365 543.6071 
L 287.00734 557.584481 
L 288.972351 596.44 
M 291.62515 596.44 
L 295.77841 549.039796 
L 298.081348 596.44 
M 302.739783 596.44 
L 304.549481 566.217595 
L 307.473171 545.754832 
L 310.396861 550.123614 
L 313.320551 548.759432 
L 316.244241 574.800198 
L 319.167931 566.728022 
L 322.091621 556.209736 
L 325.015311 502.13008 
L 327.939001 574.680602 
L 330.862691 580.996996 
L 333.786382 548.846882 
L 336.710072 561.044275 
L 339.459417 596.44 
M 342.615768 596.44 
L 345.481142 531.814915 
L 348.404832 509.544984 
L 351.328522 563.037186 
L 354.062318 596.44 
M 354.347235 596.44 
L 357.175902 527.371241 
L 360.099592 449.705745 
L 363.023283 448.59069 
L 365.946973 491.805268 
L 368.870663 475.241611 
L 371.794353 484.775038 
L 374.718043 534.001894 
L 380.563013 596.44 
M 380.566442 596.44 
L 383.489113 522.169447 
L 389.336494 588.570079 
L 392.260184 565.284646 
L 395.183874 584.700915 
L 398.107564 531.35178 
L 401.031254 503.659507 
L 403.954944 543.57219 
L 406.878634 552.820356 
L 409.802324 545.44505 
L 412.726014 549.108077 
L 415.649704 594.548847 
L 418.573395 550.23492 
L 421.883823 596.44 
M 426.325763 596.44 
L 427.344465 575.916827 
L 430.268155 583.135878 
L 433.191845 564.620587 
L 436.115535 515.069293 
L 439.039225 576.682398 
L 440.904788 596.44 
M 442.597366 596.44 
L 444.886605 556.005103 
L 447.810296 484.024019 
L 450.733986 504.626947 
L 453.657676 540.160179 
L 456.581366 555.87162 
L 457.61632 596.44 
M 461.405305 596.44 
L 462.428746 556.565971 
L 465.352436 578.383297 
L 468.276126 530.136228 
L 471.199816 548.30193 
L 474.123506 595.056055 
L 477.047197 580.785717 
L 479.970887 470.351873 
L 482.894577 571.884342 
L 485.589945 596.44 
M 488.89442 596.44 
L 491.665647 560.37434 
L 494.589337 552.300275 
L 496.06624 596.44 
M 498.827824 596.44 
L 500.436717 543.528325 
L 503.360408 466.59482 
L 507.664154 596.44 
M 516.613999 596.44 
L 517.978858 564.481717 
L 520.902548 593.27995 
L 523.826238 588.04496 
L 526.749928 557.627262 
L 529.041024 596.44 
M 534.083738 596.44 
L 535.520999 554.684996 
L 538.444689 533.896325 
L 541.368379 572.050007 
L 543.563347 596.44 
M 544.541528 596.44 
L 547.215759 509.634917 
L 550.139449 557.999343 
L 553.063139 503.333844 
L 555.986829 500.662218 
L 558.910519 469.942888 
L 561.83421 435.260228 
L 564.7579 510.876984 
L 567.68159 480.572726 
L 570.60528 579.730233 
L 573.52897 460.655055 
L 576.45266 465.824177 
L 579.37635 510.809158 
L 582.30004 467.205324 
L 585.22373 545.363372 
L 588.147421 518.463849 
L 591.071111 537.748069 
L 593.994801 571.866433 
L 596.918491 505.055276 
L 599.842181 588.323645 
L 602.765871 543.173944 
L 605.689561 577.041502 
L 607.640086 596.44 
M 616.461101 596.44 
L 617.384322 565.880704 
L 620.308012 553.625559 
L 623.231702 582.980043 
L 623.770391 596.44 
M 634.216992 596.44 
L 634.926462 590.890157 
L 637.850152 593.865829 
L 640.773842 540.547022 
L 643.697532 453.621607 
L 646.621223 523.584734 
L 649.544913 549.145611 
L 652.468603 590.389769 
L 655.392293 578.965432 
L 658.315983 501.062144 
L 661.239673 587.719787 
L 664.163363 516.592038 
L 667.087053 585.186821 
L 670.010743 595.367482 
L 672.934433 562.983037 
L 675.858124 572.354857 
L 678.781814 563.775962 
L 680.888061 596.44 
M 686.68214 596.44 
L 687.552884 575.157903 
L 688.221874 596.44 
M 700.203702 596.44 
L 702.171335 582.661271 
L 705.095025 593.232028 
L 708.018715 593.154582 
L 710.942405 594.920648 
L 713.866095 592.535927 
L 716.789785 594.22906 
L 719.713475 594.023693 
L 722.637165 589.827187 
L 725.560855 594.177255 
L 728.484545 589.017647 
L 728.484545 589.017647 
" style="fill:none;stroke:#dd8452;stroke-dasharray:6,2.25;stroke-dashoffset:0;stroke-width:1.5;"/>
   </g>
   <g id="line2d_3">
    <path clip-path="url(#p3c7b3aa2b4)" d="M 134.975455 564.631921 
L 137.899145 568.14338 
L 140.822835 569.712614 
L 143.746525 567.742545 
L 146.670215 577.058292 
L 149.593905 577.469131 
L 152.517595 578.427756 
L 154.940484 596.44 
M 160.009171 596.44 
L 161.288665 592.144502 
L 164.212356 593.53303 
L 167.136046 586.947815 
L 170.059736 587.222477 
L 171.593502 596.44 
M 183.960668 596.44 
L 184.678186 563.251648 
L 187.601876 527.393348 
L 190.525567 535.41078 
L 193.449257 561.583351 
L 196.415776 596.44 
M 203.874879 596.44 
L 208.067707 516.578431 
L 210.991397 562.727649 
L 213.281844 596.44 
M 215.208175 596.44 
L 216.838777 584.686713 
L 219.762468 548.601218 
L 222.686158 553.647177 
L 225.609848 516.973949 
L 228.533538 563.425918 
L 230.861594 596.44 
M 231.691008 596.44 
L 234.380918 499.251198 
L 237.304608 585.409678 
L 237.824819 596.44 
M 243.573054 596.44 
L 246.075678 493.8043 
L 248.999369 530.522232 
L 251.923059 529.647104 
L 254.871268 596.44 
M 258.686481 596.44 
L 260.694129 528.210304 
L 262.652574 596.44 
M 264.813211 596.44 
L 266.541509 547.820746 
L 269.465199 569.286209 
L 272.388889 591.806701 
L 275.312579 590.049484 
L 277.429588 596.44 
M 278.417679 596.44 
L 281.15996 559.629792 
L 284.08365 556.772318 
L 287.00734 401.533919 
L 289.93103 505.736755 
L 292.85472 516.487763 
L 295.77841 553.033909 
L 297.441146 596.44 
M 303.945156 596.44 
L 304.549481 582.489135 
L 307.473171 560.882178 
L 309.966605 596.44 
M 320.055057 596.44 
L 322.091621 586.553731 
L 325.015311 521.062472 
L 327.939001 584.228581 
L 328.965184 596.44 
M 332.474928 596.44 
L 333.786382 578.072535 
L 336.710072 580.98087 
L 337.513936 596.44 
M 345.117953 596.44 
L 345.481142 585.715752 
L 348.404832 573.007198 
L 351.328522 576.258476 
L 354.252212 563.905318 
L 356.22952 596.44 
M 357.480564 596.44 
L 360.099592 462.576816 
L 363.023283 500.501835 
L 365.946973 510.102109 
L 368.870663 569.532922 
L 371.794353 459.831802 
L 374.718043 537.610807 
L 377.641733 580.184797 
L 380.565423 561.978449 
L 383.489113 500.198944 
L 386.412803 568.634918 
L 388.374176 596.44 
M 391.339459 596.44 
L 392.260184 590.168976 
L 395.183874 575.572625 
L 398.107564 575.804857 
L 401.031254 499.263406 
L 403.954944 557.180568 
L 406.878634 579.427867 
L 409.802324 560.579427 
L 412.726014 528.746301 
L 414.596412 596.44 
M 428.047299 596.44 
L 430.268155 591.788056 
L 433.191845 498.450893 
L 436.115535 448.132908 
L 439.039225 578.741981 
L 441.962915 567.098565 
L 444.886605 574.391283 
L 447.810296 547.504283 
L 450.733986 499.660568 
L 453.657676 518.095091 
L 456.581366 584.151905 
L 456.845284 596.44 
M 462.131782 596.44 
L 462.428746 582.439323 
L 465.352436 591.395617 
L 471.199816 522.387197 
L 474.123506 539.492937 
L 477.047197 574.965269 
L 479.970887 477.957487 
L 482.894577 542.023629 
L 488.112812 596.44 
M 489.057651 596.44 
L 491.665647 541.242108 
L 494.589337 533.744127 
L 497.513027 595.657255 
L 500.436717 511.092356 
L 503.360408 513.019364 
L 506.284098 506.55623 
L 508.394846 596.44 
M 511.363317 596.44 
L 512.131478 584.103213 
L 515.055168 507.642146 
L 517.978858 526.328594 
L 520.902548 529.679356 
L 523.826238 536.937304 
L 526.749928 594.179843 
L 529.673618 580.161886 
L 532.597309 572.970294 
L 535.520999 579.171674 
L 538.444689 566.191221 
L 541.368379 566.554172 
L 544.292069 586.667346 
L 547.215759 515.688017 
L 550.130087 596.44 
M 550.145205 596.44 
L 553.063139 464.92215 
L 555.986829 459.052659 
L 558.910519 531.589259 
L 561.83421 468.99808 
L 564.7579 486.17518 
L 567.68159 535.868668 
L 570.60528 553.380944 
L 573.52897 513.259816 
L 576.45266 532.353221 
L 579.37635 495.39886 
L 582.30004 505.925262 
L 585.22373 584.665585 
L 588.147421 538.379981 
L 591.071111 407.265134 
L 593.994801 406.365135 
L 596.918491 425.288607 
L 599.842181 494.659279 
L 602.765871 502.653625 
L 605.413153 596.44 
M 606.519524 596.44 
L 608.613251 571.736902 
L 610.472082 596.44 
M 615.224789 596.44 
L 617.384322 520.18717 
L 620.308012 528.979617 
L 623.231702 576.31392 
L 624.263559 596.44 
M 634.345356 596.44 
L 634.926462 587.071994 
L 637.850152 580.130579 
L 640.773842 540.82868 
L 643.697532 490.544591 
L 646.621223 526.233833 
L 649.544913 544.292882 
L 652.468603 527.324927 
L 654.851808 596.44 
M 655.883531 596.44 
L 658.315983 518.824702 
L 664.163363 469.07668 
L 667.087053 523.748825 
L 670.010743 463.820842 
L 672.934433 514.545328 
L 674.964117 596.44 
M 678.012002 596.44 
L 678.781814 583.547662 
L 681.705504 550.59273 
L 684.50913 596.44 
M 700.249122 596.44 
L 702.171335 582.026805 
L 705.095025 590.166947 
L 708.018715 588.927434 
L 710.942405 595.26625 
L 713.866095 590.098596 
L 716.789785 592.795303 
L 719.713475 590.945775 
L 722.637165 591.161111 
L 725.560855 593.308074 
L 728.484545 590.138473 
L 728.484545 590.138473 
" style="fill:none;stroke:#55a868;stroke-dasharray:1.5,1.5;stroke-dashoffset:0;stroke-width:1.5;"/>
   </g>
   <g id="line2d_4">
    <path clip-path="url(#p3c7b3aa2b4)" d="M 134.975455 561.758145 
L 137.899145 565.511945 
L 140.822835 566.535213 
L 143.746525 566.251281 
L 146.670215 569.203621 
L 149.593905 570.426484 
L 152.517595 570.108482 
L 155.441285 572.044201 
L 158.364975 572.946088 
L 161.288665 574.632645 
L 164.212356 574.898492 
L 167.136046 576.177883 
L 170.059736 595.114647 
L 170.655464 596.44 
M 185.317007 596.44 
L 187.601876 526.939274 
L 189.875786 596.44 
M 202.134675 596.44 
L 202.220327 595.080087 
L 203.204475 596.44 
M 210.490782 596.44 
L 210.991397 579.64065 
L 213.915087 580.146774 
L 215.355336 596.44 
M 222.785994 596.44 
L 225.609848 569.835918 
L 228.541302 596.44 
M 232.180709 596.44 
L 234.380918 519.213049 
L 238.176648 596.44 
M 243.418322 596.44 
L 246.075678 508.940356 
L 248.999369 516.614496 
L 251.923059 576.030022 
L 254.846749 569.805451 
L 257.544205 596.44 
M 257.881279 596.44 
L 260.694129 539.750984 
L 262.189786 596.44 
M 265.458447 596.44 
L 266.541509 564.591239 
L 269.465199 554.688319 
L 272.388889 584.976697 
L 273.929316 596.44 
M 278.977062 596.44 
L 281.15996 584.320368 
L 284.08365 543.124307 
L 287.00734 566.598562 
L 288.699916 596.44 
M 291.470027 596.44 
L 292.85472 576.910747 
L 295.77841 548.959657 
L 298.063463 596.44 
M 302.853585 596.44 
L 304.549481 569.335985 
L 307.473171 546.05503 
L 310.396861 552.384367 
L 313.320551 547.742916 
L 316.244241 576.687785 
L 319.167931 569.296073 
L 322.091621 565.967419 
L 325.015311 498.296351 
L 327.939001 562.618162 
L 330.862691 593.40175 
L 333.786382 546.224543 
L 336.710072 566.971727 
L 338.4194 596.44 
M 343.205084 596.44 
L 345.481142 536.261877 
L 348.404832 483.191637 
L 351.328522 545.527603 
L 354.252212 519.567255 
L 357.175902 543.236313 
L 360.099592 467.729743 
L 363.023283 589.025377 
L 365.946973 499.19558 
L 368.870663 487.47241 
L 371.794353 503.825732 
L 374.718043 558.381114 
L 377.641733 573.222779 
L 379.725325 596.44 
M 380.874902 596.44 
L 383.489113 517.365444 
L 386.412803 557.384956 
L 389.336494 587.822593 
L 392.260184 563.398004 
L 395.183874 584.629836 
L 398.107564 532.861059 
L 401.031254 506.653194 
L 403.954944 535.831449 
L 406.878634 542.273036 
L 409.802324 545.500423 
L 412.726014 545.49759 
L 415.649704 595.724382 
L 418.573395 549.881693 
L 421.676241 596.44 
M 426.599778 596.44 
L 427.344465 580.989056 
L 430.268155 581.648777 
L 433.191845 560.126437 
L 436.115535 513.508838 
L 439.039225 576.110022 
L 440.969628 596.44 
M 442.552132 596.44 
L 444.886605 554.994428 
L 447.810296 483.542136 
L 450.733986 498.616557 
L 453.657676 544.03368 
L 456.581366 554.274436 
L 457.643723 596.44 
M 461.354652 596.44 
L 462.428746 553.538109 
L 465.352436 580.269449 
L 468.276126 530.569105 
L 471.199816 555.733659 
L 473.709837 596.44 
M 475.254392 596.44 
L 477.047197 585.804636 
L 479.970887 468.55408 
L 482.894577 572.876058 
L 485.572666 596.44 
M 488.95997 596.44 
L 491.665647 562.528088 
L 494.589337 553.985992 
L 496.015963 596.44 
M 498.849536 596.44 
L 500.436717 543.534132 
L 503.360408 465.691498 
L 507.703776 596.44 
M 516.43225 596.44 
L 517.978858 552.717305 
L 520.902548 590.387985 
L 523.826238 593.804509 
L 526.749928 558.287158 
L 529.286982 596.44 
M 534.20086 596.44 
L 535.520999 559.810638 
L 538.444689 539.695925 
L 541.368379 573.980794 
L 543.106445 596.44 
M 544.72943 596.44 
L 547.215759 509.345004 
L 550.139449 562.859173 
L 553.063139 465.243895 
L 555.986829 519.055429 
L 558.910519 534.447993 
L 561.83421 508.387114 
L 564.7579 508.270351 
L 567.68159 437.370182 
L 570.60528 528.273093 
L 573.52897 508.226591 
L 576.45266 485.214316 
L 579.37635 507.487885 
L 582.30004 476.425856 
L 585.22373 583.963118 
L 588.147421 511.349773 
L 591.071111 526.763814 
L 593.994801 583.111882 
L 596.918491 521.712469 
L 599.842181 582.788073 
L 602.765871 565.804972 
L 605.689561 582.744103 
L 607.621767 596.44 
M 616.447767 596.44 
L 617.384322 562.635407 
L 620.308012 552.34274 
L 623.231702 585.9207 
L 623.690683 596.44 
M 634.465981 596.44 
L 634.926462 593.352288 
L 637.850152 594.232628 
L 640.773842 541.043387 
L 643.697532 452.352221 
L 646.621223 526.899606 
L 649.544913 549.136236 
L 652.468603 591.177027 
L 655.392293 579.212566 
L 658.315983 501.130564 
L 661.239673 588.712727 
L 664.163363 517.096834 
L 667.087053 583.936429 
L 670.010743 595.410927 
L 672.934433 562.881316 
L 675.858124 572.096041 
L 678.781814 564.64252 
L 680.951347 596.44 
M 686.693792 596.44 
L 687.552884 575.797091 
L 688.196602 596.44 
M 700.355983 596.44 
L 702.171335 582.552168 
L 705.095025 593.16679 
L 708.018715 593.770019 
L 710.942405 596.242294 
L 713.866095 594.089665 
L 716.789785 595.104503 
L 719.713475 594.890321 
L 722.637165 590.906597 
L 725.560855 595.291016 
L 728.484545 590.629941 
L 728.484545 590.629941 
" style="fill:none;stroke:#c44e52;stroke-dasharray:4.5,1.875,2.25,1.875;stroke-dashoffset:0;stroke-width:1.5;"/>
   </g>
   <g id="line2d_5">
    <path clip-path="url(#p3c7b3aa2b4)" d="M 134.975455 564.299576 
L 137.899145 568.119209 
L 140.822835 569.144435 
L 143.746525 569.342282 
L 146.670215 571.84499 
L 149.593905 573.702494 
L 152.517595 573.865605 
L 155.441285 575.485175 
L 158.364975 576.508723 
L 161.288665 579.002931 
L 164.212356 577.852371 
L 167.136046 578.470292 
L 170.059736 594.837046 
L 170.789583 596.44 
M 185.567703 596.44 
L 187.601876 546.265469 
L 189.579899 596.44 
M 202.144586 596.44 
L 202.220327 594.950801 
L 203.417869 596.44 
M 210.583966 596.44 
L 210.991397 582.789962 
L 213.915087 569.906683 
L 215.649748 596.44 
M 222.444625 596.44 
L 222.686158 595.30116 
L 225.609848 576.020438 
L 228.192609 596.44 
M 232.278523 596.44 
L 234.380918 523.353097 
L 237.304608 575.173224 
L 238.238016 596.44 
M 243.424796 596.44 
L 246.075678 505.364289 
L 248.999369 507.067531 
L 251.923059 583.361219 
L 254.846749 571.074487 
L 257.180537 596.44 
M 258.050177 596.44 
L 260.694129 535.841278 
L 262.252491 596.44 
M 265.433021 596.44 
L 266.541509 564.018093 
L 269.465199 553.44041 
L 272.388889 582.538036 
L 274.222005 596.44 
M 279.896856 596.44 
L 281.15996 591.161461 
L 284.08365 550.003598 
L 287.00734 565.006765 
L 288.815733 596.44 
M 291.345537 596.44 
L 292.85472 575.756514 
L 295.77841 544.606197 
L 298.278653 596.44 
M 302.676732 596.44 
L 304.549481 566.437059 
L 307.473171 543.298787 
L 310.396861 565.613667 
L 313.320551 551.862921 
L 316.244241 573.892749 
L 319.167931 567.730057 
L 322.091621 570.816615 
L 325.015311 508.695532 
L 327.939001 552.107745 
L 330.862691 539.502277 
L 333.786382 564.717482 
L 336.710072 545.961214 
L 339.633762 590.532907 
L 341.938654 596.44 
M 342.662685 596.44 
L 345.481142 553.965074 
L 348.404832 495.757299 
L 351.328522 496.594298 
L 354.042681 596.44 
M 355.815212 596.44 
L 357.175902 589.729663 
L 360.099592 571.653475 
L 361.008151 596.44 
M 364.570971 596.44 
L 365.946973 547.563329 
L 368.870663 544.200325 
L 371.794353 520.135784 
L 375.32183 596.44 
M 382.592951 596.44 
L 383.489113 568.671822 
L 386.412803 552.66606 
L 389.336494 590.886904 
L 392.260184 578.410546 
L 395.183874 594.976371 
L 398.107564 514.571668 
L 401.031254 512.874128 
L 403.954944 541.330117 
L 406.878634 562.97877 
L 409.802324 563.316501 
L 412.726014 537.330828 
L 414.72334 596.44 
M 416.926508 596.44 
L 418.573395 561.07873 
L 420.787169 596.44 
M 427.096313 596.44 
L 427.344465 590.915377 
L 430.268155 584.205284 
L 433.191845 563.810627 
L 436.115535 514.74272 
L 439.039225 572.41149 
L 441.158446 596.44 
M 442.551457 596.44 
L 444.886605 560.249287 
L 447.810296 483.507331 
L 450.733986 493.110193 
L 453.657676 525.371718 
L 456.581366 542.496103 
L 458.150107 596.44 
M 460.806606 596.44 
L 462.428746 538.371411 
L 465.352436 569.845328 
L 468.276126 534.281978 
L 471.199816 561.237539 
L 473.382008 596.44 
M 474.943095 596.44 
L 477.047197 565.73134 
L 479.970887 468.856866 
L 482.894577 576.742319 
L 485.573781 596.44 
M 485.88987 596.44 
L 488.741957 524.843312 
L 491.665647 580.155484 
L 494.589337 492.351129 
L 497.513027 561.374171 
L 500.436717 542.307596 
L 503.360408 529.700693 
L 506.284098 586.200399 
L 509.207788 523.954192 
L 512.131478 553.333162 
L 515.055168 497.09619 
L 517.978858 503.35067 
L 520.902548 527.32839 
L 523.826238 525.562884 
L 526.749928 569.506862 
L 529.673618 530.663271 
L 532.597309 488.132026 
L 535.520999 523.035235 
L 538.444689 488.693559 
L 541.368379 445.794396 
L 544.292069 426.720125 
L 547.215759 460.153617 
L 550.139449 464.958179 
L 553.063139 413.205319 
L 555.986829 432.979152 
L 558.910519 427.927702 
L 561.83421 432.230512 
L 564.7579 454.975505 
L 567.68159 445.306426 
L 570.60528 497.078246 
L 573.52897 507.412888 
L 576.45266 496.72166 
L 579.37635 507.262754 
L 582.30004 461.265244 
L 585.22373 562.227401 
L 588.147421 502.751604 
L 591.071111 517.59145 
L 593.994801 564.59012 
L 596.918491 518.884028 
L 599.842181 563.603896 
L 602.765871 558.120584 
L 605.689561 580.283546 
L 608.613251 590.186116 
L 609.119601 596.44 
M 616.037581 596.44 
L 617.384322 547.461083 
L 620.308012 549.703995 
L 623.231702 578.051967 
L 624.080966 596.44 
M 633.969982 596.44 
L 634.926462 589.35258 
L 637.850152 586.213517 
L 640.773842 523.497494 
L 643.697532 445.153249 
L 646.621223 515.243248 
L 649.544913 536.780769 
L 652.468603 579.654222 
L 655.392293 565.447338 
L 658.315983 500.208668 
L 661.239673 575.54576 
L 664.163363 510.619147 
L 667.087053 575.470029 
L 670.010743 589.557387 
L 672.934433 562.911049 
L 675.858124 565.678275 
L 678.781814 547.555529 
L 681.372121 596.44 
M 686.304973 596.44 
L 687.552884 567.312852 
L 688.530083 596.44 
M 699.803443 596.44 
L 702.171335 578.06309 
L 705.095025 589.883575 
L 708.018715 589.355238 
L 710.942405 591.353256 
L 713.866095 589.383642 
L 716.789785 590.251983 
L 719.713475 590.821666 
L 722.637165 585.426189 
L 725.560855 590.948958 
L 728.484545 586.456032 
L 728.484545 586.456032 
" style="fill:none;stroke:#8172b3;stroke-dasharray:7.5,1.5,1.5,1.5;stroke-dashoffset:0;stroke-width:1.5;"/>
   </g>
   <g id="line2d_6"/>
   <g id="line2d_7"/>
   <g id="line2d_8"/>
   <g id="line2d_9"/>
   <g id="line2d_10"/>
   <g id="patch_3">
    <path d="M 105.3 529.9416 
L 105.3 71.4528 
" style="fill:none;stroke:#262626;stroke-linecap:square;stroke-linejoin:miter;stroke-width:1.25;"/>
   </g>
   <g id="patch_4">
    <path d="M 758.16 529.9416 
L 758.16 71.4528 
" style="fill:none;stroke:#262626;stroke-linecap:square;stroke-linejoin:miter;stroke-width:1.25;"/>
   </g>
   <g id="patch_5">
    <path d="M 105.3 529.9416 
L 758.16 529.9416 
" style="fill:none;stroke:#262626;stroke-linecap:square;stroke-linejoin:miter;stroke-width:1.25;"/>
   </g>
   <g id="patch_6">
    <path d="M 105.3 71.4528 
L 758.16 71.4528 
" style="fill:none;stroke:#262626;stroke-linecap:square;stroke-linejoin:miter;stroke-width:1.25;"/>
   </g>
   <g id="text_16">
    <!-- Activations for &gt;2&lt; -->
    <g style="fill:#262626;" transform="translate(382.037813 65.4528)scale(0.12 -0.12)">
     <defs>
      <path d="M -9 0 
L 1750 4581 
L 2403 4581 
L 4278 0 
L 3588 0 
L 3053 1388 
L 1138 1388 
L 634 0 
L -9 0 
z
M 1313 1881 
L 2866 1881 
L 2388 3150 
Q 2169 3728 2063 4100 
Q 1975 3659 1816 3225 
L 1313 1881 
z
" id="ArialMT-41" transform="scale(0.015625)"/>
      <path d="M 2588 1216 
L 3141 1144 
Q 3050 572 2676 248 
Q 2303 -75 1759 -75 
Q 1078 -75 664 370 
Q 250 816 250 1647 
Q 250 2184 428 2587 
Q 606 2991 970 3192 
Q 1334 3394 1763 3394 
Q 2303 3394 2647 3120 
Q 2991 2847 3088 2344 
L 2541 2259 
Q 2463 2594 2264 2762 
Q 2066 2931 1784 2931 
Q 1359 2931 1093 2626 
Q 828 2322 828 1663 
Q 828 994 1084 691 
Q 1341 388 1753 388 
Q 2084 388 2306 591 
Q 2528 794 2588 1216 
z
" id="ArialMT-63" transform="scale(0.015625)"/>
      <path d="M 1650 503 
L 1731 6 
Q 1494 -44 1306 -44 
Q 1000 -44 831 53 
Q 663 150 594 308 
Q 525 466 525 972 
L 525 2881 
L 113 2881 
L 113 3319 
L 525 3319 
L 525 4141 
L 1084 4478 
L 1084 3319 
L 1650 3319 
L 1650 2881 
L 1084 2881 
L 1084 941 
Q 1084 700 1114 631 
Q 1144 563 1211 522 
Q 1278 481 1403 481 
Q 1497 481 1650 503 
z
" id="ArialMT-74" transform="scale(0.015625)"/>
      <path d="M 425 3934 
L 425 4581 
L 988 4581 
L 988 3934 
L 425 3934 
z
M 425 0 
L 425 3319 
L 988 3319 
L 988 0 
L 425 0 
z
" id="ArialMT-69" transform="scale(0.015625)"/>
      <path d="M 1344 0 
L 81 3319 
L 675 3319 
L 1388 1331 
Q 1503 1009 1600 663 
Q 1675 925 1809 1294 
L 2547 3319 
L 3125 3319 
L 1869 0 
L 1344 0 
z
" id="ArialMT-76" transform="scale(0.015625)"/>
      <path d="M 2588 409 
Q 2275 144 1986 34 
Q 1697 -75 1366 -75 
Q 819 -75 525 192 
Q 231 459 231 875 
Q 231 1119 342 1320 
Q 453 1522 633 1644 
Q 813 1766 1038 1828 
Q 1203 1872 1538 1913 
Q 2219 1994 2541 2106 
Q 2544 2222 2544 2253 
Q 2544 2597 2384 2738 
Q 2169 2928 1744 2928 
Q 1347 2928 1158 2789 
Q 969 2650 878 2297 
L 328 2372 
Q 403 2725 575 2942 
Q 747 3159 1072 3276 
Q 1397 3394 1825 3394 
Q 2250 3394 2515 3294 
Q 2781 3194 2906 3042 
Q 3031 2891 3081 2659 
Q 3109 2516 3109 2141 
L 3109 1391 
Q 3109 606 3145 398 
Q 3181 191 3288 0 
L 2700 0 
Q 2613 175 2588 409 
z
M 2541 1666 
Q 2234 1541 1622 1453 
Q 1275 1403 1131 1340 
Q 988 1278 909 1158 
Q 831 1038 831 891 
Q 831 666 1001 516 
Q 1172 366 1500 366 
Q 1825 366 2078 508 
Q 2331 650 2450 897 
Q 2541 1088 2541 1459 
L 2541 1666 
z
" id="ArialMT-61" transform="scale(0.015625)"/>
      <path d="M 213 1659 
Q 213 2581 725 3025 
Q 1153 3394 1769 3394 
Q 2453 3394 2887 2945 
Q 3322 2497 3322 1706 
Q 3322 1066 3130 698 
Q 2938 331 2570 128 
Q 2203 -75 1769 -75 
Q 1072 -75 642 372 
Q 213 819 213 1659 
z
M 791 1659 
Q 791 1022 1069 705 
Q 1347 388 1769 388 
Q 2188 388 2466 706 
Q 2744 1025 2744 1678 
Q 2744 2294 2464 2611 
Q 2184 2928 1769 2928 
Q 1347 2928 1069 2612 
Q 791 2297 791 1659 
z
" id="ArialMT-6f" transform="scale(0.015625)"/>
      <path d="M 422 0 
L 422 3319 
L 928 3319 
L 928 2847 
Q 1294 3394 1984 3394 
Q 2284 3394 2536 3286 
Q 2788 3178 2913 3003 
Q 3038 2828 3088 2588 
Q 3119 2431 3119 2041 
L 3119 0 
L 2556 0 
L 2556 2019 
Q 2556 2363 2490 2533 
Q 2425 2703 2258 2804 
Q 2091 2906 1866 2906 
Q 1506 2906 1245 2678 
Q 984 2450 984 1813 
L 984 0 
L 422 0 
z
" id="ArialMT-6e" transform="scale(0.015625)"/>
      <path d="M 197 991 
L 753 1078 
Q 800 744 1014 566 
Q 1228 388 1613 388 
Q 2000 388 2187 545 
Q 2375 703 2375 916 
Q 2375 1106 2209 1216 
Q 2094 1291 1634 1406 
Q 1016 1563 777 1677 
Q 538 1791 414 1992 
Q 291 2194 291 2438 
Q 291 2659 392 2848 
Q 494 3038 669 3163 
Q 800 3259 1026 3326 
Q 1253 3394 1513 3394 
Q 1903 3394 2198 3281 
Q 2494 3169 2634 2976 
Q 2775 2784 2828 2463 
L 2278 2388 
Q 2241 2644 2061 2787 
Q 1881 2931 1553 2931 
Q 1166 2931 1000 2803 
Q 834 2675 834 2503 
Q 834 2394 903 2306 
Q 972 2216 1119 2156 
Q 1203 2125 1616 2013 
Q 2213 1853 2448 1751 
Q 2684 1650 2818 1456 
Q 2953 1263 2953 975 
Q 2953 694 2789 445 
Q 2625 197 2315 61 
Q 2006 -75 1616 -75 
Q 969 -75 630 194 
Q 291 463 197 991 
z
" id="ArialMT-73" transform="scale(0.015625)"/>
      <path id="ArialMT-20" transform="scale(0.015625)"/>
      <path d="M 556 0 
L 556 2881 
L 59 2881 
L 59 3319 
L 556 3319 
L 556 3672 
Q 556 4006 616 4169 
Q 697 4388 901 4523 
Q 1106 4659 1475 4659 
Q 1713 4659 2000 4603 
L 1916 4113 
Q 1741 4144 1584 4144 
Q 1328 4144 1222 4034 
Q 1116 3925 1116 3625 
L 1116 3319 
L 1763 3319 
L 1763 2881 
L 1116 2881 
L 1116 0 
L 556 0 
z
" id="ArialMT-66" transform="scale(0.015625)"/>
      <path d="M 416 0 
L 416 3319 
L 922 3319 
L 922 2816 
Q 1116 3169 1280 3281 
Q 1444 3394 1641 3394 
Q 1925 3394 2219 3213 
L 2025 2691 
Q 1819 2813 1613 2813 
Q 1428 2813 1281 2702 
Q 1134 2591 1072 2394 
Q 978 2094 978 1738 
L 978 0 
L 416 0 
z
" id="ArialMT-72" transform="scale(0.015625)"/>
      <path d="M 3384 2003 
L 350 706 
L 350 1266 
L 2753 2263 
L 350 3250 
L 350 3809 
L 3384 2528 
L 3384 2003 
z
" id="ArialMT-3e" transform="scale(0.015625)"/>
      <path d="M 350 2003 
L 350 2528 
L 3384 3809 
L 3384 3250 
L 978 2263 
L 3384 1266 
L 3384 706 
L 350 2003 
z
" id="ArialMT-3c" transform="scale(0.015625)"/>
     </defs>
     <use xlink:href="#ArialMT-41"/>
     <use x="66.699219" xlink:href="#ArialMT-63"/>
     <use x="116.699219" xlink:href="#ArialMT-74"/>
     <use x="144.482422" xlink:href="#ArialMT-69"/>
     <use x="166.699219" xlink:href="#ArialMT-76"/>
     <use x="216.699219" xlink:href="#ArialMT-61"/>
     <use x="272.314453" xlink:href="#ArialMT-74"/>
     <use x="300.097656" xlink:href="#ArialMT-69"/>
     <use x="322.314453" xlink:href="#ArialMT-6f"/>
     <use x="377.929688" xlink:href="#ArialMT-6e"/>
     <use x="433.544922" xlink:href="#ArialMT-73"/>
     <use x="483.544922" xlink:href="#ArialMT-20"/>
     <use x="511.328125" xlink:href="#ArialMT-66"/>
     <use x="539.111328" xlink:href="#ArialMT-6f"/>
     <use x="594.726562" xlink:href="#ArialMT-72"/>
     <use x="628.027344" xlink:href="#ArialMT-20"/>
     <use x="655.810547" xlink:href="#ArialMT-3e"/>
     <use x="714.208984" xlink:href="#ArialMT-32"/>
     <use x="769.824219" xlink:href="#ArialMT-3c"/>
    </g>
   </g>
   <g id="legend_1">
    <g id="patch_7">
     <path d="M 640.044062 158.514363 
L 750.46 158.514363 
Q 752.66 158.514363 752.66 156.314363 
L 752.66 79.1528 
Q 752.66 76.9528 750.46 76.9528 
L 640.044062 76.9528 
Q 637.844062 76.9528 637.844062 79.1528 
L 637.844062 156.314363 
Q 637.844062 158.514363 640.044062 158.514363 
z
" style="fill:#ffffff;opacity:0.8;stroke:#cccccc;stroke-linejoin:miter;"/>
    </g>
    <g id="line2d_11">
     <path d="M 642.244062 85.376394 
L 664.244062 85.376394 
" style="fill:none;stroke:#4c72b0;stroke-linecap:round;stroke-width:1.5;"/>
    </g>
    <g id="line2d_12"/>
    <g id="text_17">
     <!-- regular -->
     <g style="fill:#262626;" transform="translate(673.044062 89.226394)scale(0.11 -0.11)">
      <defs>
       <path d="M 2694 1069 
L 3275 997 
Q 3138 488 2766 206 
Q 2394 -75 1816 -75 
Q 1088 -75 661 373 
Q 234 822 234 1631 
Q 234 2469 665 2931 
Q 1097 3394 1784 3394 
Q 2450 3394 2872 2941 
Q 3294 2488 3294 1666 
Q 3294 1616 3291 1516 
L 816 1516 
Q 847 969 1125 678 
Q 1403 388 1819 388 
Q 2128 388 2347 550 
Q 2566 713 2694 1069 
z
M 847 1978 
L 2700 1978 
Q 2663 2397 2488 2606 
Q 2219 2931 1791 2931 
Q 1403 2931 1139 2672 
Q 875 2413 847 1978 
z
" id="ArialMT-65" transform="scale(0.015625)"/>
       <path d="M 319 -275 
L 866 -356 
Q 900 -609 1056 -725 
Q 1266 -881 1628 -881 
Q 2019 -881 2231 -725 
Q 2444 -569 2519 -288 
Q 2563 -116 2559 434 
Q 2191 0 1641 0 
Q 956 0 581 494 
Q 206 988 206 1678 
Q 206 2153 378 2554 
Q 550 2956 876 3175 
Q 1203 3394 1644 3394 
Q 2231 3394 2613 2919 
L 2613 3319 
L 3131 3319 
L 3131 450 
Q 3131 -325 2973 -648 
Q 2816 -972 2473 -1159 
Q 2131 -1347 1631 -1347 
Q 1038 -1347 672 -1080 
Q 306 -813 319 -275 
z
M 784 1719 
Q 784 1066 1043 766 
Q 1303 466 1694 466 
Q 2081 466 2343 764 
Q 2606 1063 2606 1700 
Q 2606 2309 2336 2618 
Q 2066 2928 1684 2928 
Q 1309 2928 1046 2623 
Q 784 2319 784 1719 
z
" id="ArialMT-67" transform="scale(0.015625)"/>
       <path d="M 2597 0 
L 2597 488 
Q 2209 -75 1544 -75 
Q 1250 -75 995 37 
Q 741 150 617 320 
Q 494 491 444 738 
Q 409 903 409 1263 
L 409 3319 
L 972 3319 
L 972 1478 
Q 972 1038 1006 884 
Q 1059 663 1231 536 
Q 1403 409 1656 409 
Q 1909 409 2131 539 
Q 2353 669 2445 892 
Q 2538 1116 2538 1541 
L 2538 3319 
L 3100 3319 
L 3100 0 
L 2597 0 
z
" id="ArialMT-75" transform="scale(0.015625)"/>
       <path d="M 409 0 
L 409 4581 
L 972 4581 
L 972 0 
L 409 0 
z
" id="ArialMT-6c" transform="scale(0.015625)"/>
      </defs>
      <use xlink:href="#ArialMT-72"/>
      <use x="33.300781" xlink:href="#ArialMT-65"/>
      <use x="88.916016" xlink:href="#ArialMT-67"/>
      <use x="144.53125" xlink:href="#ArialMT-75"/>
      <use x="200.146484" xlink:href="#ArialMT-6c"/>
      <use x="222.363281" xlink:href="#ArialMT-61"/>
      <use x="277.978516" xlink:href="#ArialMT-72"/>
     </g>
    </g>
    <g id="line2d_13">
     <path d="M 642.244062 101.0978 
L 664.244062 101.0978 
" style="fill:none;stroke:#dd8452;stroke-dasharray:6,2.25;stroke-dashoffset:0;stroke-width:1.5;"/>
    </g>
    <g id="line2d_14"/>
    <g id="text_18">
     <!-- splitted_3s -->
     <g style="fill:#262626;" transform="translate(673.044062 104.9478)scale(0.11 -0.11)">
      <defs>
       <path d="M 422 -1272 
L 422 3319 
L 934 3319 
L 934 2888 
Q 1116 3141 1344 3267 
Q 1572 3394 1897 3394 
Q 2322 3394 2647 3175 
Q 2972 2956 3137 2557 
Q 3303 2159 3303 1684 
Q 3303 1175 3120 767 
Q 2938 359 2589 142 
Q 2241 -75 1856 -75 
Q 1575 -75 1351 44 
Q 1128 163 984 344 
L 984 -1272 
L 422 -1272 
z
M 931 1641 
Q 931 1000 1190 694 
Q 1450 388 1819 388 
Q 2194 388 2461 705 
Q 2728 1022 2728 1688 
Q 2728 2322 2467 2637 
Q 2206 2953 1844 2953 
Q 1484 2953 1207 2617 
Q 931 2281 931 1641 
z
" id="ArialMT-70" transform="scale(0.015625)"/>
       <path d="M 2575 0 
L 2575 419 
Q 2259 -75 1647 -75 
Q 1250 -75 917 144 
Q 584 363 401 755 
Q 219 1147 219 1656 
Q 219 2153 384 2558 
Q 550 2963 881 3178 
Q 1213 3394 1622 3394 
Q 1922 3394 2156 3267 
Q 2391 3141 2538 2938 
L 2538 4581 
L 3097 4581 
L 3097 0 
L 2575 0 
z
M 797 1656 
Q 797 1019 1065 703 
Q 1334 388 1700 388 
Q 2069 388 2326 689 
Q 2584 991 2584 1609 
Q 2584 2291 2321 2609 
Q 2059 2928 1675 2928 
Q 1300 2928 1048 2622 
Q 797 2316 797 1656 
z
" id="ArialMT-64" transform="scale(0.015625)"/>
       <path d="M -97 -1272 
L -97 -866 
L 3631 -866 
L 3631 -1272 
L -97 -1272 
z
" id="ArialMT-5f" transform="scale(0.015625)"/>
       <path d="M 269 1209 
L 831 1284 
Q 928 806 1161 595 
Q 1394 384 1728 384 
Q 2125 384 2398 659 
Q 2672 934 2672 1341 
Q 2672 1728 2419 1979 
Q 2166 2231 1775 2231 
Q 1616 2231 1378 2169 
L 1441 2663 
Q 1497 2656 1531 2656 
Q 1891 2656 2178 2843 
Q 2466 3031 2466 3422 
Q 2466 3731 2256 3934 
Q 2047 4138 1716 4138 
Q 1388 4138 1169 3931 
Q 950 3725 888 3313 
L 325 3413 
Q 428 3978 793 4289 
Q 1159 4600 1703 4600 
Q 2078 4600 2393 4439 
Q 2709 4278 2876 4000 
Q 3044 3722 3044 3409 
Q 3044 3113 2884 2869 
Q 2725 2625 2413 2481 
Q 2819 2388 3044 2092 
Q 3269 1797 3269 1353 
Q 3269 753 2831 336 
Q 2394 -81 1725 -81 
Q 1122 -81 723 278 
Q 325 638 269 1209 
z
" id="ArialMT-33" transform="scale(0.015625)"/>
      </defs>
      <use xlink:href="#ArialMT-73"/>
      <use x="50" xlink:href="#ArialMT-70"/>
      <use x="105.615234" xlink:href="#ArialMT-6c"/>
      <use x="127.832031" xlink:href="#ArialMT-69"/>
      <use x="150.048828" xlink:href="#ArialMT-74"/>
      <use x="177.832031" xlink:href="#ArialMT-74"/>
      <use x="205.615234" xlink:href="#ArialMT-65"/>
      <use x="261.230469" xlink:href="#ArialMT-64"/>
      <use x="316.845703" xlink:href="#ArialMT-5f"/>
      <use x="372.460938" xlink:href="#ArialMT-33"/>
      <use x="428.076172" xlink:href="#ArialMT-73"/>
     </g>
    </g>
    <g id="line2d_15">
     <path d="M 642.244062 116.6903 
L 664.244062 116.6903 
" style="fill:none;stroke:#55a868;stroke-dasharray:1.5,1.5;stroke-dashoffset:0;stroke-width:1.5;"/>
    </g>
    <g id="line2d_16"/>
    <g id="text_19">
     <!-- splitted_1s -->
     <g style="fill:#262626;" transform="translate(673.044062 120.5403)scale(0.11 -0.11)">
      <use xlink:href="#ArialMT-73"/>
      <use x="50" xlink:href="#ArialMT-70"/>
      <use x="105.615234" xlink:href="#ArialMT-6c"/>
      <use x="127.832031" xlink:href="#ArialMT-69"/>
      <use x="150.048828" xlink:href="#ArialMT-74"/>
      <use x="177.832031" xlink:href="#ArialMT-74"/>
      <use x="205.615234" xlink:href="#ArialMT-65"/>
      <use x="261.230469" xlink:href="#ArialMT-64"/>
      <use x="316.845703" xlink:href="#ArialMT-5f"/>
      <use x="372.460938" xlink:href="#ArialMT-31"/>
      <use x="428.076172" xlink:href="#ArialMT-73"/>
     </g>
    </g>
    <g id="line2d_17">
     <path d="M 642.244062 132.384206 
L 664.244062 132.384206 
" style="fill:none;stroke:#c44e52;stroke-dasharray:4.5,1.875,2.25,1.875;stroke-dashoffset:0;stroke-width:1.5;"/>
    </g>
    <g id="line2d_18"/>
    <g id="text_20">
     <!-- overlap_1f_3s -->
     <g style="fill:#262626;" transform="translate(673.044062 136.234206)scale(0.11 -0.11)">
      <use xlink:href="#ArialMT-6f"/>
      <use x="55.615234" xlink:href="#ArialMT-76"/>
      <use x="105.615234" xlink:href="#ArialMT-65"/>
      <use x="161.230469" xlink:href="#ArialMT-72"/>
      <use x="194.53125" xlink:href="#ArialMT-6c"/>
      <use x="216.748047" xlink:href="#ArialMT-61"/>
      <use x="272.363281" xlink:href="#ArialMT-70"/>
      <use x="327.978516" xlink:href="#ArialMT-5f"/>
      <use x="383.59375" xlink:href="#ArialMT-31"/>
      <use x="439.208984" xlink:href="#ArialMT-66"/>
      <use x="466.992188" xlink:href="#ArialMT-5f"/>
      <use x="522.607422" xlink:href="#ArialMT-33"/>
      <use x="578.222656" xlink:href="#ArialMT-73"/>
     </g>
    </g>
    <g id="line2d_19">
     <path d="M 642.244062 148.078113 
L 664.244062 148.078113 
" style="fill:none;stroke:#8172b3;stroke-dasharray:7.5,1.5,1.5,1.5;stroke-dashoffset:0;stroke-width:1.5;"/>
    </g>
    <g id="line2d_20"/>
    <g id="text_21">
     <!-- overlap_10f_3s -->
     <g style="fill:#262626;" transform="translate(673.044062 151.928112)scale(0.11 -0.11)">
      <use xlink:href="#ArialMT-6f"/>
      <use x="55.615234" xlink:href="#ArialMT-76"/>
      <use x="105.615234" xlink:href="#ArialMT-65"/>
      <use x="161.230469" xlink:href="#ArialMT-72"/>
      <use x="194.53125" xlink:href="#ArialMT-6c"/>
      <use x="216.748047" xlink:href="#ArialMT-61"/>
      <use x="272.363281" xlink:href="#ArialMT-70"/>
      <use x="327.978516" xlink:href="#ArialMT-5f"/>
      <use x="383.59375" xlink:href="#ArialMT-31"/>
      <use x="439.208984" xlink:href="#ArialMT-30"/>
      <use x="494.824219" xlink:href="#ArialMT-66"/>
      <use x="522.607422" xlink:href="#ArialMT-5f"/>
      <use x="578.222656" xlink:href="#ArialMT-33"/>
      <use x="633.837891" xlink:href="#ArialMT-73"/>
     </g>
    </g>
   </g>
  </g>
 </g>
 <defs>
  <clipPath id="p3c7b3aa2b4">
   <rect height="458.4888" width="652.86" x="105.3" y="71.4528"/>
  </clipPath>
 </defs>
</svg>
