<?xml version="1.0" encoding="utf-8" standalone="no"?>
<!DOCTYPE svg PUBLIC "-//W3C//DTD SVG 1.1//EN"
  "http://www.w3.org/Graphics/SVG/1.1/DTD/svg11.dtd">
<svg height="595.44pt" version="1.1" viewBox="0 0 842.4 595.44" width="842.4pt" xmlns="http://www.w3.org/2000/svg" xmlns:xlink="http://www.w3.org/1999/xlink">
 <metadata>
  <rdf:RDF xmlns:cc="http://creativecommons.org/ns#" xmlns:dc="http://purl.org/dc/elements/1.1/" xmlns:rdf="http://www.w3.org/1999/02/22-rdf-syntax-ns#">
   <cc:Work>
    <dc:type rdf:resource="http://purl.org/dc/dcmitype/StillImage"/>
    <dc:date>2021-06-01T00:54:10.266541</dc:date>
    <dc:format>image/svg+xml</dc:format>
    <dc:creator>
     <cc:Agent>
      <dc:title>Matplotlib v3.4.1, https://matplotlib.org/</dc:title>
     </cc:Agent>
    </dc:creator>
   </cc:Work>
  </rdf:RDF>
 </metadata>
 <defs>
  <style type="text/css">*{stroke-linecap:butt;stroke-linejoin:round;}</style>
 </defs>
 <g id="figure_1">
  <g id="patch_1">
   <path d="M 0 595.44 
L 842.4 595.44 
L 842.4 0 
L 0 0 
z
" style="fill:#ffffff;"/>
  </g>
  <g id="axes_1">
   <g id="patch_2">
    <path d="M 105.3 529.9416 
L 758.16 529.9416 
L 758.16 71.4528 
L 105.3 71.4528 
z
" style="fill:#ffffff;"/>
   </g>
   <g id="matplotlib.axis_1">
    <g id="xtick_1">
     <g id="text_1">
      <!-- 0 -->
      <g style="fill:#262626;" transform="translate(131.916939 547.315194)scale(0.11 -0.11)">
       <defs>
        <path d="M 266 2259 
Q 266 3072 433 3567 
Q 600 4063 929 4331 
Q 1259 4600 1759 4600 
Q 2128 4600 2406 4451 
Q 2684 4303 2865 4023 
Q 3047 3744 3150 3342 
Q 3253 2941 3253 2259 
Q 3253 1453 3087 958 
Q 2922 463 2592 192 
Q 2263 -78 1759 -78 
Q 1097 -78 719 397 
Q 266 969 266 2259 
z
M 844 2259 
Q 844 1131 1108 757 
Q 1372 384 1759 384 
Q 2147 384 2411 759 
Q 2675 1134 2675 2259 
Q 2675 3391 2411 3762 
Q 2147 4134 1753 4134 
Q 1366 4134 1134 3806 
Q 844 3388 844 2259 
z
" id="ArialMT-30" transform="scale(0.015625)"/>
       </defs>
       <use xlink:href="#ArialMT-30"/>
      </g>
     </g>
    </g>
    <g id="xtick_2">
     <g id="text_2">
      <!-- 25 -->
      <g style="fill:#262626;" transform="translate(201.950676 547.315194)scale(0.11 -0.11)">
       <defs>
        <path d="M 3222 541 
L 3222 0 
L 194 0 
Q 188 203 259 391 
Q 375 700 629 1000 
Q 884 1300 1366 1694 
Q 2113 2306 2375 2664 
Q 2638 3022 2638 3341 
Q 2638 3675 2398 3904 
Q 2159 4134 1775 4134 
Q 1369 4134 1125 3890 
Q 881 3647 878 3216 
L 300 3275 
Q 359 3922 746 4261 
Q 1134 4600 1788 4600 
Q 2447 4600 2831 4234 
Q 3216 3869 3216 3328 
Q 3216 3053 3103 2787 
Q 2991 2522 2730 2228 
Q 2469 1934 1863 1422 
Q 1356 997 1212 845 
Q 1069 694 975 541 
L 3222 541 
z
" id="ArialMT-32" transform="scale(0.015625)"/>
        <path d="M 266 1200 
L 856 1250 
Q 922 819 1161 601 
Q 1400 384 1738 384 
Q 2144 384 2425 690 
Q 2706 997 2706 1503 
Q 2706 1984 2436 2262 
Q 2166 2541 1728 2541 
Q 1456 2541 1237 2417 
Q 1019 2294 894 2097 
L 366 2166 
L 809 4519 
L 3088 4519 
L 3088 3981 
L 1259 3981 
L 1013 2750 
Q 1425 3038 1878 3038 
Q 2478 3038 2890 2622 
Q 3303 2206 3303 1553 
Q 3303 931 2941 478 
Q 2500 -78 1738 -78 
Q 1113 -78 717 272 
Q 322 622 266 1200 
z
" id="ArialMT-35" transform="scale(0.015625)"/>
       </defs>
       <use xlink:href="#ArialMT-32"/>
       <use x="55.615234" xlink:href="#ArialMT-35"/>
      </g>
     </g>
    </g>
    <g id="xtick_3">
     <g id="text_3">
      <!-- 50 -->
      <g style="fill:#262626;" transform="translate(275.042928 547.315194)scale(0.11 -0.11)">
       <use xlink:href="#ArialMT-35"/>
       <use x="55.615234" xlink:href="#ArialMT-30"/>
      </g>
     </g>
    </g>
    <g id="xtick_4">
     <g id="text_4">
      <!-- 75 -->
      <g style="fill:#262626;" transform="translate(348.135181 547.315194)scale(0.11 -0.11)">
       <defs>
        <path d="M 303 3981 
L 303 4522 
L 3269 4522 
L 3269 4084 
Q 2831 3619 2401 2847 
Q 1972 2075 1738 1259 
Q 1569 684 1522 0 
L 944 0 
Q 953 541 1156 1306 
Q 1359 2072 1739 2783 
Q 2119 3494 2547 3981 
L 303 3981 
z
" id="ArialMT-37" transform="scale(0.015625)"/>
       </defs>
       <use xlink:href="#ArialMT-37"/>
       <use x="55.615234" xlink:href="#ArialMT-35"/>
      </g>
     </g>
    </g>
    <g id="xtick_5">
     <g id="text_5">
      <!-- 100 -->
      <g style="fill:#262626;" transform="translate(418.168918 547.315194)scale(0.11 -0.11)">
       <defs>
        <path d="M 2384 0 
L 1822 0 
L 1822 3584 
Q 1619 3391 1289 3197 
Q 959 3003 697 2906 
L 697 3450 
Q 1169 3672 1522 3987 
Q 1875 4303 2022 4600 
L 2384 4600 
L 2384 0 
z
" id="ArialMT-31" transform="scale(0.015625)"/>
       </defs>
       <use xlink:href="#ArialMT-31"/>
       <use x="55.615234" xlink:href="#ArialMT-30"/>
       <use x="111.230469" xlink:href="#ArialMT-30"/>
      </g>
     </g>
    </g>
    <g id="xtick_6">
     <g id="text_6">
      <!-- 125 -->
      <g style="fill:#262626;" transform="translate(491.261171 547.315194)scale(0.11 -0.11)">
       <use xlink:href="#ArialMT-31"/>
       <use x="55.615234" xlink:href="#ArialMT-32"/>
       <use x="111.230469" xlink:href="#ArialMT-35"/>
      </g>
     </g>
    </g>
    <g id="xtick_7">
     <g id="text_7">
      <!-- 150 -->
      <g style="fill:#262626;" transform="translate(564.353423 547.315194)scale(0.11 -0.11)">
       <use xlink:href="#ArialMT-31"/>
       <use x="55.615234" xlink:href="#ArialMT-35"/>
       <use x="111.230469" xlink:href="#ArialMT-30"/>
      </g>
     </g>
    </g>
    <g id="xtick_8">
     <g id="text_8">
      <!-- 175 -->
      <g style="fill:#262626;" transform="translate(637.445676 547.315194)scale(0.11 -0.11)">
       <use xlink:href="#ArialMT-31"/>
       <use x="55.615234" xlink:href="#ArialMT-37"/>
       <use x="111.230469" xlink:href="#ArialMT-35"/>
      </g>
     </g>
    </g>
    <g id="xtick_9">
     <g id="text_9">
      <!-- 200 -->
      <g style="fill:#262626;" transform="translate(710.537928 547.315194)scale(0.11 -0.11)">
       <use xlink:href="#ArialMT-32"/>
       <use x="55.615234" xlink:href="#ArialMT-30"/>
       <use x="111.230469" xlink:href="#ArialMT-30"/>
      </g>
     </g>
    </g>
   </g>
   <g id="matplotlib.axis_2">
    <g id="ytick_1">
     <g id="text_10">
      <!-- −25 -->
      <g style="fill:#262626;" transform="translate(77.14125 533.878397)scale(0.11 -0.11)">
       <defs>
        <path d="M 3381 1997 
L 356 1997 
L 356 2522 
L 3381 2522 
L 3381 1997 
z
" id="ArialMT-2212" transform="scale(0.015625)"/>
       </defs>
       <use xlink:href="#ArialMT-2212"/>
       <use x="58.398438" xlink:href="#ArialMT-32"/>
       <use x="114.013672" xlink:href="#ArialMT-35"/>
      </g>
     </g>
    </g>
    <g id="ytick_2">
     <g id="text_11">
      <!-- −20 -->
      <g style="fill:#262626;" transform="translate(77.14125 442.180637)scale(0.11 -0.11)">
       <use xlink:href="#ArialMT-2212"/>
       <use x="58.398438" xlink:href="#ArialMT-32"/>
       <use x="114.013672" xlink:href="#ArialMT-30"/>
      </g>
     </g>
    </g>
    <g id="ytick_3">
     <g id="text_12">
      <!-- −15 -->
      <g style="fill:#262626;" transform="translate(77.14125 350.482877)scale(0.11 -0.11)">
       <use xlink:href="#ArialMT-2212"/>
       <use x="58.398438" xlink:href="#ArialMT-31"/>
       <use x="114.013672" xlink:href="#ArialMT-35"/>
      </g>
     </g>
    </g>
    <g id="ytick_4">
     <g id="text_13">
      <!-- −10 -->
      <g style="fill:#262626;" transform="translate(77.14125 258.785117)scale(0.11 -0.11)">
       <use xlink:href="#ArialMT-2212"/>
       <use x="58.398438" xlink:href="#ArialMT-31"/>
       <use x="114.013672" xlink:href="#ArialMT-30"/>
      </g>
     </g>
    </g>
    <g id="ytick_5">
     <g id="text_14">
      <!-- −5 -->
      <g style="fill:#262626;" transform="translate(83.258281 167.087357)scale(0.11 -0.11)">
       <use xlink:href="#ArialMT-2212"/>
       <use x="58.398438" xlink:href="#ArialMT-35"/>
      </g>
     </g>
    </g>
    <g id="ytick_6">
     <g id="text_15">
      <!-- 0 -->
      <g style="fill:#262626;" transform="translate(89.682969 75.389597)scale(0.11 -0.11)">
       <use xlink:href="#ArialMT-30"/>
      </g>
     </g>
    </g>
   </g>
   <g id="line2d_1">
    <path clip-path="url(#pf765642015)" d="M 134.975455 329.700695 
L 137.899145 326.515844 
L 143.746525 324.721758 
L 146.670215 330.034404 
L 149.593905 322.411702 
L 152.517595 325.626357 
L 155.441285 324.251401 
L 158.364975 324.636023 
L 161.288665 321.368076 
L 164.212356 320.175243 
L 167.136046 320.907758 
L 170.059736 328.537281 
L 172.983426 332.760109 
L 175.907116 335.952359 
L 178.830806 351.625706 
L 181.754496 364.906095 
L 184.678186 339.864251 
L 187.601876 365.131296 
L 190.525567 474.413322 
L 193.449257 442.624305 
L 196.372947 354.312374 
L 199.296637 315.294076 
L 202.220327 246.310002 
L 205.144017 341.496799 
L 208.067707 492.552019 
L 210.991397 507.056163 
L 213.915087 443.012408 
L 216.838777 383.898967 
L 219.762468 369.058666 
L 222.686158 429.55119 
L 225.609848 459.564311 
L 228.533538 480.159683 
L 231.457228 349.384526 
L 234.380918 331.436189 
L 237.304608 450.636001 
L 240.228298 451.358371 
L 243.151988 304.443812 
L 246.075678 287.986249 
L 248.999369 342.871579 
L 251.923059 427.615961 
L 254.846749 468.062962 
L 257.770439 473.61424 
L 260.694129 425.532137 
L 263.617819 523.927432 
L 266.541509 439.780753 
L 269.465199 435.934816 
L 272.388889 446.189948 
L 275.312579 452.043103 
L 278.23627 432.849587 
L 281.15996 393.519704 
L 284.08365 329.159538 
L 287.00734 314.982964 
L 289.93103 355.439462 
L 292.85472 262.814682 
L 295.77841 228.884632 
L 298.7021 292.256108 
L 301.62579 293.743035 
L 304.549481 354.307809 
L 307.473171 382.937649 
L 310.396861 417.742039 
L 313.320551 311.407789 
L 316.244241 276.565446 
L 319.167931 343.343633 
L 322.091621 433.482024 
L 325.015311 394.813297 
L 327.939001 462.463516 
L 330.862691 411.770267 
L 333.786382 297.278577 
L 336.710072 338.253356 
L 339.633762 457.713453 
L 342.557452 442.070538 
L 345.481142 278.599773 
L 351.328522 336.562584 
L 354.252212 406.773771 
L 357.175902 417.448523 
L 360.099592 400.380596 
L 363.023283 478.397534 
L 365.946973 394.837888 
L 368.870663 406.047658 
L 371.794353 416.796987 
L 374.718043 412.942864 
L 377.641733 383.838592 
L 380.565423 356.412289 
L 383.489113 267.955471 
L 386.412803 228.627652 
L 389.336494 318.7138 
L 392.260184 399.654098 
L 395.183874 468.103993 
L 398.107564 413.513422 
L 401.031254 365.774752 
L 403.954944 368.606201 
L 406.878634 410.448586 
L 409.802324 409.900241 
L 412.726014 410.542332 
L 415.649704 460.752299 
L 418.573395 424.010266 
L 421.497085 474.162446 
L 424.420775 486.825141 
L 427.344465 283.979125 
L 430.268155 264.73772 
L 433.191845 284.076876 
L 436.115535 287.066522 
L 439.039225 434.709189 
L 441.962915 451.642688 
L 444.886605 345.869096 
L 447.810296 300.551928 
L 450.733986 389.357933 
L 453.657676 461.011745 
L 456.581366 452.034708 
L 459.505056 448.039617 
L 462.428746 387.714122 
L 465.352436 348.582471 
L 468.276126 345.677196 
L 471.199816 389.325752 
L 474.123506 384.423456 
L 477.047197 359.859927 
L 479.970887 232.744631 
L 482.894577 235.997449 
L 485.818267 239.054152 
L 488.741957 337.604391 
L 491.665647 411.657352 
L 494.589337 387.387585 
L 497.513027 368.438752 
L 500.436717 358.960331 
L 503.360408 319.41471 
L 506.284098 387.284429 
L 509.207788 485.135401 
L 512.131478 478.424784 
L 515.055168 404.785757 
L 517.978858 226.563854 
L 520.902548 303.013465 
L 523.826238 376.012255 
L 526.749928 396.403694 
L 529.673618 441.952691 
L 532.597309 368.461 
L 535.520999 257.752475 
L 538.444689 246.12062 
L 541.368379 435.444362 
L 544.292069 467.708126 
L 547.215759 434.850158 
L 550.139449 499.712443 
L 553.063139 393.653363 
L 555.986829 447.593273 
L 558.910519 420.791799 
L 561.83421 444.138131 
L 564.7579 471.896027 
L 567.68159 384.612383 
L 570.60528 361.345979 
L 573.52897 362.718241 
L 576.45266 420.765529 
L 579.37635 440.888462 
L 582.30004 402.517274 
L 585.22373 302.563711 
L 588.147421 245.7247 
L 591.071111 280.562933 
L 593.994801 376.747952 
L 596.918491 354.953906 
L 599.842181 314.272959 
L 602.765871 279.839758 
L 605.689561 236.156625 
L 608.613251 366.678423 
L 611.536941 464.106803 
L 614.460631 413.413344 
L 617.384322 360.498888 
L 620.308012 458.444044 
L 623.231702 508.275388 
L 626.155392 518.550529 
L 629.079082 479.542217 
L 632.002772 421.52886 
L 634.926462 350.257834 
L 637.850152 355.685808 
L 640.773842 218.728685 
L 643.697532 216.53345 
L 646.621223 281.032434 
L 649.544913 383.45871 
L 652.468603 492.113021 
L 655.392293 477.549026 
L 658.315983 413.49901 
L 661.239673 492.566885 
L 664.163363 452.010327 
L 667.087053 511.513409 
L 670.010743 463.98161 
L 672.934433 463.770366 
L 675.858124 520.964773 
L 678.781814 486.850292 
L 681.705504 513.866473 
L 684.629194 545.09686 
L 687.552884 439.778339 
L 690.476574 422.327907 
L 693.400264 306.457693 
L 696.323954 361.576689 
L 699.247644 372.04039 
L 702.171335 367.681402 
L 705.095025 349.053126 
L 708.018715 346.758041 
L 710.942405 350.629671 
L 713.866095 347.836384 
L 716.789785 349.11163 
L 719.713475 346.009873 
L 722.637165 350.441724 
L 725.560855 347.963449 
L 728.484545 350.776272 
L 728.484545 350.776272 
" style="fill:none;stroke:#4c72b0;stroke-linecap:round;stroke-width:1.5;"/>
   </g>
   <g id="line2d_2">
    <path clip-path="url(#pf765642015)" d="M 134.975455 328.549226 
L 137.899145 327.866821 
L 140.822835 326.633394 
L 143.746525 326.312803 
L 146.670215 329.825504 
L 149.593905 323.834615 
L 152.517595 324.08752 
L 155.441285 319.992613 
L 158.364975 319.416214 
L 161.288665 314.557311 
L 164.212356 311.847312 
L 167.136046 311.92467 
L 170.059736 317.682872 
L 172.983426 322.344978 
L 175.907116 328.31145 
L 178.830806 346.510698 
L 181.754496 358.639145 
L 184.678186 348.57196 
L 187.601876 339.010741 
L 190.525567 467.662757 
L 193.449257 421.485135 
L 196.372947 347.047587 
L 199.296637 301.565279 
L 202.220327 231.219752 
L 205.144017 357.571803 
L 208.067707 493.43855 
L 210.991397 523.268341 
L 213.915087 432.78323 
L 216.838777 386.582452 
L 219.762468 362.126171 
L 222.686158 421.530225 
L 225.609848 436.618043 
L 228.533538 454.703011 
L 231.457228 341.870139 
L 234.380918 313.096585 
L 237.304608 419.953435 
L 240.228298 434.265084 
L 243.151988 305.934376 
L 246.075678 272.372927 
L 248.999369 365.355132 
L 251.923059 428.15759 
L 254.846749 454.747681 
L 257.770439 459.336382 
L 260.694129 423.830259 
L 263.617819 526.281406 
L 266.541509 453.780731 
L 269.465199 446.009697 
L 272.388889 463.114213 
L 275.312579 456.009791 
L 278.23627 442.129235 
L 281.15996 423.594914 
L 284.08365 333.99002 
L 287.00734 308.931141 
L 289.93103 355.599163 
L 292.85472 275.454081 
L 295.77841 207.482973 
L 298.7021 278.744065 
L 301.62579 290.56259 
L 304.549481 355.074062 
L 307.473171 395.973651 
L 310.396861 413.097266 
L 313.320551 336.438038 
L 316.244241 286.73995 
L 319.167931 348.111711 
L 322.091621 423.143953 
L 325.015311 386.682214 
L 327.939001 459.729906 
L 330.862691 400.756735 
L 333.786382 283.797911 
L 336.710072 355.242578 
L 339.633762 473.578736 
L 342.557452 443.814112 
L 345.481142 272.469927 
L 348.404832 324.053012 
L 351.328522 381.343229 
L 354.252212 363.285878 
L 357.175902 291.517874 
L 360.099592 225.471659 
L 363.023283 250.501348 
L 365.946973 272.338017 
L 368.870663 268.396445 
L 371.794353 298.346147 
L 374.718043 307.514489 
L 377.641733 309.454283 
L 380.565423 326.56541 
L 383.489113 233.349906 
L 386.412803 211.882791 
L 389.336494 278.325653 
L 395.183874 452.428757 
L 398.107564 376.312452 
L 401.031254 315.633626 
L 403.954944 368.875442 
L 406.878634 385.945153 
L 409.802324 408.880471 
L 412.726014 428.909379 
L 415.649704 415.24909 
L 418.573395 348.452153 
L 421.497085 424.981623 
L 424.420775 437.625395 
L 427.344465 232.645358 
L 430.268155 238.545771 
L 433.191845 249.517608 
L 436.115535 255.823315 
L 439.039225 425.185731 
L 441.962915 450.294632 
L 444.886605 310.166719 
L 447.810296 248.55468 
L 450.733986 390.874348 
L 453.657676 432.362666 
L 459.505056 451.542471 
L 462.428746 379.317227 
L 465.352436 351.900141 
L 468.276126 322.002804 
L 471.199816 389.598805 
L 474.123506 354.364162 
L 477.047197 357.818254 
L 479.970887 205.357759 
L 482.894577 218.933405 
L 485.818267 236.062599 
L 488.741957 339.043272 
L 491.665647 421.417974 
L 494.589337 379.024515 
L 497.513027 371.229695 
L 500.436717 358.317033 
L 503.360408 320.203437 
L 506.284098 394.707517 
L 509.207788 477.923417 
L 512.131478 458.195582 
L 515.055168 388.926526 
L 517.978858 223.100038 
L 520.902548 306.090299 
L 523.826238 384.161352 
L 526.749928 407.692308 
L 529.673618 439.968735 
L 532.597309 369.471814 
L 535.520999 263.529811 
L 538.444689 234.991094 
L 541.368379 359.214548 
L 544.292069 433.578778 
L 547.215759 384.042245 
L 550.139449 464.611353 
L 553.063139 404.467929 
L 555.986829 372.610318 
L 558.910519 309.572568 
L 561.83421 271.905123 
L 564.7579 325.432376 
L 567.68159 305.040604 
L 570.60528 441.010752 
L 573.52897 226.805496 
L 576.45266 313.047508 
L 579.37635 354.659462 
L 582.30004 320.663563 
L 585.22373 326.618737 
L 588.147421 247.3233 
L 591.071111 266.09258 
L 593.994801 349.6343 
L 596.918491 328.744764 
L 599.842181 342.966655 
L 602.765871 279.053812 
L 605.689561 233.948798 
L 608.613251 372.610912 
L 611.536941 457.146674 
L 614.460631 414.622145 
L 617.384322 413.668698 
L 620.308012 469.367398 
L 623.231702 499.000602 
L 626.155392 522.766134 
L 629.079082 463.92921 
L 632.002772 433.362217 
L 634.926462 356.153997 
L 637.850152 301.762339 
L 640.773842 236.675937 
L 643.697532 204.360735 
L 646.621223 281.162069 
L 649.544913 386.379848 
L 652.468603 484.110735 
L 655.392293 486.966006 
L 658.315983 402.400161 
L 661.239673 493.340606 
L 664.163363 443.733169 
L 667.087053 511.296428 
L 670.010743 469.263263 
L 672.934433 459.090997 
L 675.858124 514.746708 
L 678.781814 492.852706 
L 681.705504 502.490129 
L 684.629194 538.165659 
L 687.552884 414.149602 
L 690.476574 391.242547 
L 693.400264 303.616239 
L 696.323954 352.979657 
L 699.247644 353.742849 
L 702.171335 342.54443 
L 705.095025 327.279158 
L 708.018715 332.321251 
L 710.942405 338.731286 
L 713.866095 333.873642 
L 716.789785 335.509006 
L 719.713475 330.598158 
L 722.637165 338.199906 
L 725.560855 335.783476 
L 728.484545 338.061106 
L 728.484545 338.061106 
" style="fill:none;stroke:#dd8452;stroke-dasharray:6,2.25;stroke-dashoffset:0;stroke-width:1.5;"/>
   </g>
   <g id="line2d_3">
    <path clip-path="url(#pf765642015)" d="M 134.975455 329.422273 
L 137.899145 325.394615 
L 140.822835 320.914002 
L 143.746525 321.679835 
L 146.670215 326.918935 
L 149.593905 313.819654 
L 152.517595 317.129087 
L 155.441285 329.220806 
L 158.364975 326.410746 
L 161.288665 312.714674 
L 164.212356 313.491893 
L 167.136046 309.05518 
L 170.059736 308.129366 
L 172.983426 315.91782 
L 175.907116 316.933567 
L 178.830806 327.932618 
L 181.754496 331.807588 
L 184.678186 292.346321 
L 187.601876 330.915828 
L 190.525567 396.589822 
L 193.449257 438.156915 
L 196.372947 371.560325 
L 199.296637 321.026287 
L 202.220327 245.870216 
L 205.144017 259.192564 
L 208.067707 336.656855 
L 210.991397 438.94078 
L 213.915087 395.74866 
L 216.838777 272.841466 
L 219.762468 320.592536 
L 222.686158 388.839006 
L 225.609848 392.134954 
L 228.533538 437.336881 
L 231.457228 341.809449 
L 234.380918 330.100691 
L 237.304608 416.073007 
L 240.228298 446.131917 
L 243.151988 319.594 
L 246.075678 231.030615 
L 248.999369 365.38588 
L 251.923059 371.626402 
L 254.846749 444.238908 
L 257.770439 457.663747 
L 260.694129 437.486945 
L 263.617819 520.349511 
L 266.541509 469.605052 
L 269.465199 475.809825 
L 272.388889 402.345068 
L 275.312579 317.910486 
L 278.23627 255.255346 
L 281.15996 270.537181 
L 284.08365 233.841357 
L 287.00734 228.005097 
L 289.93103 243.898766 
L 292.85472 189.62485 
L 295.77841 181.969424 
L 298.7021 272.75064 
L 301.62579 304.16336 
L 304.549481 339.474137 
L 307.473171 412.463989 
L 310.396861 459.985574 
L 313.320551 377.558122 
L 316.244241 298.792036 
L 322.091621 459.146336 
L 325.015311 414.139422 
L 327.939001 475.787927 
L 330.862691 453.520935 
L 333.786382 316.450931 
L 336.710072 361.350946 
L 339.633762 482.302028 
L 342.557452 482.354603 
L 345.481142 280.900559 
L 348.404832 332.42738 
L 351.328522 399.58085 
L 354.252212 383.755899 
L 357.175902 360.943535 
L 360.099592 305.752533 
L 363.023283 402.039379 
L 365.946973 325.229002 
L 368.870663 354.314595 
L 371.794353 238.486183 
L 374.718043 290.245515 
L 377.641733 252.413525 
L 380.565423 265.854699 
L 383.489113 239.708136 
L 386.412803 194.801528 
L 389.336494 298.137387 
L 392.260184 385.112735 
L 395.183874 430.909915 
L 398.107564 392.907136 
L 401.031254 362.595322 
L 403.954944 393.862368 
L 406.878634 405.602608 
L 409.802324 435.906622 
L 412.726014 405.945306 
L 415.649704 307.933426 
L 418.573395 305.436489 
L 421.497085 294.590913 
L 424.420775 298.918716 
L 427.344465 179.312507 
L 430.268155 141.38939 
L 433.191845 135.425065 
L 436.115535 144.545707 
L 439.039225 351.629904 
L 441.962915 422.815072 
L 444.886605 282.948861 
L 447.810296 322.369254 
L 450.733986 367.838182 
L 453.657676 396.61882 
L 456.581366 458.350403 
L 459.505056 510.399403 
L 462.428746 412.461366 
L 468.276126 306.676265 
L 471.199816 350.770762 
L 474.123506 330.192793 
L 477.047197 268.214812 
L 479.970887 189.044384 
L 482.894577 175.30603 
L 485.818267 184.117358 
L 488.741957 216.271923 
L 491.665647 324.811272 
L 494.589337 320.888134 
L 497.513027 334.645824 
L 500.436717 220.11716 
L 503.360408 247.97578 
L 506.284098 372.024719 
L 509.207788 404.79835 
L 512.131478 397.408982 
L 515.055168 318.651501 
L 517.978858 234.182254 
L 520.902548 344.525273 
L 523.826238 431.111784 
L 526.749928 471.176839 
L 529.673618 441.983438 
L 532.597309 357.752055 
L 535.520999 292.009762 
L 538.444689 284.378525 
L 541.368379 385.162512 
L 544.292069 417.771213 
L 547.215759 370.493508 
L 550.139449 424.981308 
L 553.063139 347.704388 
L 555.986829 298.107479 
L 558.910519 277.186234 
L 561.83421 237.944029 
L 564.7579 228.12221 
L 567.68159 232.863353 
L 570.60528 236.380269 
L 573.52897 395.669255 
L 576.45266 414.953895 
L 579.37635 438.03452 
L 582.30004 451.512738 
L 585.22373 396.165201 
L 588.147421 258.033539 
L 591.071111 321.051473 
L 593.994801 370.658333 
L 596.918491 347.588132 
L 599.842181 378.056411 
L 605.689561 237.928585 
L 608.613251 364.822791 
L 611.536941 445.546283 
L 614.460631 422.806222 
L 617.384322 425.275315 
L 620.308012 447.699227 
L 623.231702 517.828614 
L 626.155392 526.671117 
L 629.079082 435.369575 
L 632.002772 405.484621 
L 634.926462 354.167802 
L 637.850152 231.34024 
L 640.773842 234.365338 
L 643.697532 267.787322 
L 646.621223 263.732555 
L 649.544913 396.643516 
L 652.468603 464.930405 
L 655.392293 459.58327 
L 658.315983 384.896315 
L 661.239673 463.694495 
L 664.163363 429.820256 
L 667.087053 490.969702 
L 670.010743 450.358016 
L 672.934433 442.810329 
L 675.858124 524.91614 
L 678.781814 494.498022 
L 681.705504 500.838797 
L 684.629194 536.927615 
L 687.552884 431.795432 
L 690.476574 381.377929 
L 693.400264 297.054269 
L 696.323954 341.197091 
L 699.247644 327.135985 
L 702.171335 333.92487 
L 705.095025 322.354702 
L 708.018715 329.159224 
L 710.942405 333.761164 
L 713.866095 329.847331 
L 716.789785 329.915612 
L 719.713475 327.240505 
L 722.637165 333.382489 
L 725.560855 331.249291 
L 728.484545 327.639119 
L 728.484545 327.639119 
" style="fill:none;stroke:#55a868;stroke-dasharray:1.5,1.5;stroke-dashoffset:0;stroke-width:1.5;"/>
   </g>
   <g id="line2d_4">
    <path clip-path="url(#pf765642015)" d="M 134.975455 329.403943 
L 137.899145 328.774812 
L 140.822835 327.593278 
L 143.746525 327.043166 
L 146.670215 330.784705 
L 149.593905 324.776065 
L 152.517595 325.15056 
L 155.441285 321.203286 
L 158.364975 320.731634 
L 161.288665 315.914532 
L 164.212356 313.136007 
L 167.136046 313.317063 
L 170.059736 318.967702 
L 172.983426 323.600355 
L 175.907116 329.436457 
L 178.830806 347.853175 
L 181.754496 360.482115 
L 187.601876 340.386798 
L 190.525567 469.193968 
L 193.449257 424.806934 
L 196.372947 348.849962 
L 199.296637 303.994967 
L 202.220327 236.724419 
L 205.144017 359.406762 
L 208.067707 498.678682 
L 210.991397 520.429266 
L 213.915087 441.94622 
L 216.838777 379.881314 
L 219.762468 363.422439 
L 222.686158 422.974825 
L 225.609848 436.352965 
L 228.533538 455.594195 
L 231.457228 343.540885 
L 234.380918 314.98202 
L 237.304608 424.982813 
L 240.228298 438.838848 
L 243.151988 307.579569 
L 246.075678 275.285583 
L 248.999369 364.996239 
L 251.923059 429.049858 
L 254.846749 455.7331 
L 257.770439 458.420572 
L 260.694129 423.860237 
L 263.617819 527.065026 
L 266.541509 450.036515 
L 269.465199 447.447022 
L 272.388889 462.403771 
L 275.312579 465.469971 
L 278.23627 452.804966 
L 281.15996 425.549103 
L 284.08365 334.83482 
L 287.00734 320.547097 
L 289.93103 360.784726 
L 292.85472 271.892723 
L 295.77841 212.301326 
L 298.7021 282.335716 
L 301.62579 294.433014 
L 304.549481 361.688975 
L 307.473171 398.394366 
L 310.396861 416.528901 
L 313.320551 335.65886 
L 316.244241 291.605342 
L 319.167931 363.34669 
L 322.091621 445.674379 
L 325.015311 394.011242 
L 327.939001 464.28562 
L 330.862691 418.555532 
L 333.786382 287.062954 
L 336.710072 368.606236 
L 339.633762 486.653425 
L 342.557452 459.573371 
L 345.481142 285.234746 
L 348.404832 228.71066 
L 351.328522 363.175306 
L 354.252212 414.323557 
L 357.175902 327.273544 
L 360.099592 263.451544 
L 363.023283 413.108879 
L 365.946973 311.257393 
L 368.870663 297.712101 
L 371.794353 321.311619 
L 374.718043 317.17645 
L 377.641733 302.993474 
L 380.565423 333.441028 
L 383.489113 233.766325 
L 386.412803 212.673626 
L 389.336494 280.974402 
L 395.183874 454.359509 
L 398.107564 381.748087 
L 401.031254 320.583144 
L 403.954944 367.506817 
L 406.878634 388.285029 
L 409.802324 410.555275 
L 412.726014 429.820605 
L 415.649704 419.436746 
L 418.573395 349.590575 
L 421.497085 431.796656 
L 424.420775 445.391777 
L 427.344465 232.453703 
L 430.268155 237.07616 
L 433.191845 247.748708 
L 436.115535 254.946299 
L 439.039225 426.227783 
L 441.962915 452.940163 
L 444.886605 308.692175 
L 447.810296 250.631438 
L 450.733986 394.028592 
L 453.657676 446.629086 
L 456.581366 451.728914 
L 459.505056 455.792566 
L 462.428746 382.123631 
L 465.352436 357.213766 
L 468.276126 322.042786 
L 471.199816 387.634018 
L 474.123506 362.140705 
L 477.047197 367.826534 
L 479.970887 206.524995 
L 482.894577 220.542149 
L 485.818267 237.351347 
L 488.741957 341.483174 
L 491.665647 423.130241 
L 494.589337 381.375971 
L 497.513027 373.707743 
L 500.436717 357.286857 
L 503.360408 319.41095 
L 506.284098 395.289793 
L 509.207788 478.205984 
L 512.131478 460.406033 
L 515.055168 388.937195 
L 517.978858 222.939218 
L 520.902548 306.057348 
L 523.826238 382.0047 
L 526.749928 406.525028 
L 529.673618 440.580813 
L 532.597309 369.448133 
L 535.520999 263.269228 
L 538.444689 236.477059 
L 541.368379 357.681692 
L 544.292069 434.832878 
L 547.215759 386.686132 
L 550.139449 466.949166 
L 553.063139 405.861354 
L 555.986829 374.929591 
L 558.910519 309.556669 
L 561.83421 272.347235 
L 564.7579 325.379678 
L 567.68159 305.016013 
L 570.60528 434.769075 
L 573.52897 275.204779 
L 576.45266 307.782523 
L 579.37635 357.184348 
L 582.30004 351.208886 
L 585.22373 361.104495 
L 588.147421 212.183505 
L 591.071111 251.181358 
L 593.994801 386.133275 
L 596.918491 361.433726 
L 599.842181 322.491159 
L 602.765871 279.348518 
L 605.689561 240.436173 
L 608.613251 374.908533 
L 611.536941 456.363543 
L 614.460631 420.857631 
L 617.384322 411.078609 
L 620.308012 463.106377 
L 623.231702 500.285344 
L 626.155392 517.003507 
L 629.079082 464.427534 
L 632.002772 430.681216 
L 634.926462 357.321277 
L 637.850152 303.697078 
L 640.773842 238.507328 
L 643.697532 207.494097 
L 646.621223 283.449179 
L 649.544913 380.28033 
L 652.468603 483.448845 
L 655.392293 488.909 
L 658.315983 401.580617 
L 661.239673 493.493608 
L 664.163363 442.19024 
L 667.087053 510.753155 
L 670.010743 472.29903 
L 672.934433 459.795598 
L 675.858124 513.624377 
L 678.781814 493.018161 
L 681.705504 501.306548 
L 684.629194 536.812146 
L 687.552884 411.116388 
L 690.476574 388.317526 
L 693.400264 301.353161 
L 696.323954 351.621911 
L 699.247644 353.338761 
L 702.171335 341.31179 
L 705.095025 327.419252 
L 708.018715 332.780275 
L 710.942405 340.107746 
L 713.866095 336.248709 
L 716.789785 337.369553 
L 719.713475 332.628952 
L 722.637165 339.874482 
L 725.560855 338.01014 
L 728.484545 339.406923 
L 728.484545 339.406923 
" style="fill:none;stroke:#c44e52;stroke-dasharray:4.5,1.875,2.25,1.875;stroke-dashoffset:0;stroke-width:1.5;"/>
   </g>
   <g id="line2d_5">
    <path clip-path="url(#pf765642015)" d="M 134.975455 328.465624 
L 140.822835 326.930653 
L 143.746525 326.674932 
L 146.670215 329.813261 
L 149.593905 325.332875 
L 152.517595 325.792546 
L 155.441285 322.760015 
L 158.364975 322.670746 
L 161.288665 318.207745 
L 164.212356 314.644096 
L 167.136046 314.761524 
L 170.059736 319.91069 
L 172.983426 324.617064 
L 175.907116 328.975631 
L 178.830806 347.241988 
L 181.754496 363.473458 
L 184.678186 337.890369 
L 187.601876 358.198468 
L 190.525567 472.357307 
L 193.449257 432.599305 
L 196.372947 355.80502 
L 199.296637 307.089885 
L 202.220327 239.147443 
L 205.144017 347.753045 
L 208.067707 497.935184 
L 210.991397 528.421408 
L 213.915087 437.654183 
L 216.838777 390.073972 
L 219.762468 360.6861 
L 222.686158 426.004961 
L 225.609848 451.332556 
L 228.533538 466.296581 
L 231.457228 346.987667 
L 234.380918 317.732456 
L 237.304608 432.083841 
L 240.228298 443.389106 
L 243.151988 308.535483 
L 246.075678 276.815727 
L 248.999369 361.120061 
L 251.923059 433.054114 
L 254.846749 462.385161 
L 257.770439 466.203674 
L 260.694129 427.267631 
L 263.617819 526.959457 
L 266.541509 447.907393 
L 269.465199 447.056541 
L 272.388889 463.135831 
L 275.312579 463.09333 
L 278.23627 445.999238 
L 281.15996 427.48706 
L 284.08365 341.610676 
L 287.00734 316.513738 
L 289.93103 360.117519 
L 292.85472 272.51164 
L 295.77841 212.366756 
L 298.7021 279.437524 
L 301.62579 291.427346 
L 304.549481 354.548611 
L 307.473171 393.903784 
L 310.396861 422.595153 
L 313.320551 336.555045 
L 316.244241 276.621623 
L 319.167931 351.783466 
L 322.091621 431.456441 
L 325.015311 394.327566 
L 327.939001 456.505772 
L 330.862691 406.401619 
L 333.786382 287.879561 
L 336.710072 342.42674 
L 339.633762 463.939144 
L 342.557452 439.013118 
L 345.481142 282.831294 
L 348.404832 297.793342 
L 351.328522 330.894402 
L 354.252212 404.284495 
L 357.175902 430.506212 
L 360.099592 416.136811 
L 363.023283 503.904507 
L 365.946973 383.320224 
L 368.870663 377.843593 
L 371.794353 347.365537 
L 374.718043 323.697109 
L 377.641733 352.627846 
L 380.565423 362.338482 
L 383.489113 262.010773 
L 386.412803 208.337218 
L 389.336494 302.938136 
L 395.183874 472.789834 
L 398.107564 373.172095 
L 401.031254 345.738324 
L 403.954944 362.382924 
L 406.878634 386.242762 
L 409.802324 425.691681 
L 412.726014 435.328579 
L 415.649704 454.646694 
L 418.573395 370.661236 
L 421.497085 456.684274 
L 424.420775 461.100244 
L 427.344465 244.797365 
L 430.268155 235.565167 
L 433.191845 250.240398 
L 436.115535 249.986339 
L 439.039225 424.975187 
L 441.962915 458.425609 
L 444.886605 319.200371 
L 447.810296 256.623778 
L 450.733986 400.100861 
L 453.657676 443.277905 
L 456.581366 448.873573 
L 459.505056 441.769956 
L 462.428746 379.016225 
L 465.352436 354.603582 
L 468.276126 342.998539 
L 471.199816 398.738114 
L 474.123506 375.30545 
L 477.047197 364.261853 
L 479.970887 213.321498 
L 482.894577 224.344449 
L 485.818267 247.963048 
L 488.741957 347.955718 
L 491.665647 431.916008 
L 494.589337 381.991477 
L 497.513027 374.640307 
L 500.436717 351.055796 
L 503.360408 315.444559 
L 506.284098 392.598158 
L 509.207788 482.496062 
L 512.131478 473.032734 
L 515.055168 397.435671 
L 517.978858 230.446223 
L 520.902548 302.725318 
L 523.826238 366.887428 
L 526.749928 391.57566 
L 529.673618 433.534284 
L 532.597309 349.771211 
L 535.520999 256.992729 
L 538.444689 234.446894 
L 541.368379 367.247126 
L 544.292069 440.553249 
L 547.215759 372.838247 
L 550.139449 460.742784 
L 553.063139 302.388776 
L 555.986829 320.425245 
L 558.910519 242.392828 
L 561.83421 287.559757 
L 564.7579 337.561033 
L 567.68159 255.643099 
L 570.60528 267.828301 
L 573.52897 303.90206 
L 576.45266 455.167405 
L 579.37635 423.657423 
L 582.30004 367.674546 
L 585.22373 328.476048 
L 588.147421 234.074253 
L 591.071111 260.660706 
L 593.994801 363.739165 
L 596.918491 351.633962 
L 599.842181 313.956583 
L 602.765871 280.871788 
L 605.689561 228.770965 
L 608.613251 369.787438 
L 611.536941 447.541503 
L 614.460631 422.186693 
L 617.384322 401.137211 
L 620.308012 461.59591 
L 623.231702 505.171025 
L 626.155392 520.616583 
L 629.079082 467.236107 
L 632.002772 426.528785 
L 634.926462 348.538064 
L 637.850152 296.899115 
L 640.773842 237.927781 
L 643.697532 220.082373 
L 646.621223 275.97418 
L 649.544913 359.490941 
L 652.468603 460.831948 
L 655.392293 468.062018 
L 658.315983 387.943345 
L 661.239673 473.825029 
L 664.163363 428.81997 
L 667.087053 507.451121 
L 670.010743 466.252401 
L 672.934433 450.326184 
L 675.858124 503.118263 
L 678.781814 474.81671 
L 681.705504 496.848323 
L 684.629194 525.828731 
L 687.552884 405.874507 
L 690.476574 367.999195 
L 693.400264 296.350263 
L 696.323954 347.273173 
L 699.247644 359.296226 
L 702.171335 341.113156 
L 705.095025 328.874784 
L 708.018715 334.437239 
L 710.942405 340.859692 
L 713.866095 337.838686 
L 716.789785 340.192397 
L 719.713475 335.151039 
L 722.637165 340.90681 
L 725.560855 337.778031 
L 728.484545 341.084123 
L 728.484545 341.084123 
" style="fill:none;stroke:#8172b3;stroke-dasharray:7.5,1.5,1.5,1.5;stroke-dashoffset:0;stroke-width:1.5;"/>
   </g>
   <g id="line2d_6"/>
   <g id="line2d_7"/>
   <g id="line2d_8"/>
   <g id="line2d_9"/>
   <g id="line2d_10"/>
   <g id="patch_3">
    <path d="M 105.3 529.9416 
L 105.3 71.4528 
" style="fill:none;stroke:#262626;stroke-linecap:square;stroke-linejoin:miter;stroke-width:1.25;"/>
   </g>
   <g id="patch_4">
    <path d="M 758.16 529.9416 
L 758.16 71.4528 
" style="fill:none;stroke:#262626;stroke-linecap:square;stroke-linejoin:miter;stroke-width:1.25;"/>
   </g>
   <g id="patch_5">
    <path d="M 105.3 529.9416 
L 758.16 529.9416 
" style="fill:none;stroke:#262626;stroke-linecap:square;stroke-linejoin:miter;stroke-width:1.25;"/>
   </g>
   <g id="patch_6">
    <path d="M 105.3 71.4528 
L 758.16 71.4528 
" style="fill:none;stroke:#262626;stroke-linecap:square;stroke-linejoin:miter;stroke-width:1.25;"/>
   </g>
   <g id="text_16">
    <!-- Activations for &gt;*&lt; -->
    <g style="fill:#262626;" transform="translate(383.039062 65.4528)scale(0.12 -0.12)">
     <defs>
      <path d="M -9 0 
L 1750 4581 
L 2403 4581 
L 4278 0 
L 3588 0 
L 3053 1388 
L 1138 1388 
L 634 0 
L -9 0 
z
M 1313 1881 
L 2866 1881 
L 2388 3150 
Q 2169 3728 2063 4100 
Q 1975 3659 1816 3225 
L 1313 1881 
z
" id="ArialMT-41" transform="scale(0.015625)"/>
      <path d="M 2588 1216 
L 3141 1144 
Q 3050 572 2676 248 
Q 2303 -75 1759 -75 
Q 1078 -75 664 370 
Q 250 816 250 1647 
Q 250 2184 428 2587 
Q 606 2991 970 3192 
Q 1334 3394 1763 3394 
Q 2303 3394 2647 3120 
Q 2991 2847 3088 2344 
L 2541 2259 
Q 2463 2594 2264 2762 
Q 2066 2931 1784 2931 
Q 1359 2931 1093 2626 
Q 828 2322 828 1663 
Q 828 994 1084 691 
Q 1341 388 1753 388 
Q 2084 388 2306 591 
Q 2528 794 2588 1216 
z
" id="ArialMT-63" transform="scale(0.015625)"/>
      <path d="M 1650 503 
L 1731 6 
Q 1494 -44 1306 -44 
Q 1000 -44 831 53 
Q 663 150 594 308 
Q 525 466 525 972 
L 525 2881 
L 113 2881 
L 113 3319 
L 525 3319 
L 525 4141 
L 1084 4478 
L 1084 3319 
L 1650 3319 
L 1650 2881 
L 1084 2881 
L 1084 941 
Q 1084 700 1114 631 
Q 1144 563 1211 522 
Q 1278 481 1403 481 
Q 1497 481 1650 503 
z
" id="ArialMT-74" transform="scale(0.015625)"/>
      <path d="M 425 3934 
L 425 4581 
L 988 4581 
L 988 3934 
L 425 3934 
z
M 425 0 
L 425 3319 
L 988 3319 
L 988 0 
L 425 0 
z
" id="ArialMT-69" transform="scale(0.015625)"/>
      <path d="M 1344 0 
L 81 3319 
L 675 3319 
L 1388 1331 
Q 1503 1009 1600 663 
Q 1675 925 1809 1294 
L 2547 3319 
L 3125 3319 
L 1869 0 
L 1344 0 
z
" id="ArialMT-76" transform="scale(0.015625)"/>
      <path d="M 2588 409 
Q 2275 144 1986 34 
Q 1697 -75 1366 -75 
Q 819 -75 525 192 
Q 231 459 231 875 
Q 231 1119 342 1320 
Q 453 1522 633 1644 
Q 813 1766 1038 1828 
Q 1203 1872 1538 1913 
Q 2219 1994 2541 2106 
Q 2544 2222 2544 2253 
Q 2544 2597 2384 2738 
Q 2169 2928 1744 2928 
Q 1347 2928 1158 2789 
Q 969 2650 878 2297 
L 328 2372 
Q 403 2725 575 2942 
Q 747 3159 1072 3276 
Q 1397 3394 1825 3394 
Q 2250 3394 2515 3294 
Q 2781 3194 2906 3042 
Q 3031 2891 3081 2659 
Q 3109 2516 3109 2141 
L 3109 1391 
Q 3109 606 3145 398 
Q 3181 191 3288 0 
L 2700 0 
Q 2613 175 2588 409 
z
M 2541 1666 
Q 2234 1541 1622 1453 
Q 1275 1403 1131 1340 
Q 988 1278 909 1158 
Q 831 1038 831 891 
Q 831 666 1001 516 
Q 1172 366 1500 366 
Q 1825 366 2078 508 
Q 2331 650 2450 897 
Q 2541 1088 2541 1459 
L 2541 1666 
z
" id="ArialMT-61" transform="scale(0.015625)"/>
      <path d="M 213 1659 
Q 213 2581 725 3025 
Q 1153 3394 1769 3394 
Q 2453 3394 2887 2945 
Q 3322 2497 3322 1706 
Q 3322 1066 3130 698 
Q 2938 331 2570 128 
Q 2203 -75 1769 -75 
Q 1072 -75 642 372 
Q 213 819 213 1659 
z
M 791 1659 
Q 791 1022 1069 705 
Q 1347 388 1769 388 
Q 2188 388 2466 706 
Q 2744 1025 2744 1678 
Q 2744 2294 2464 2611 
Q 2184 2928 1769 2928 
Q 1347 2928 1069 2612 
Q 791 2297 791 1659 
z
" id="ArialMT-6f" transform="scale(0.015625)"/>
      <path d="M 422 0 
L 422 3319 
L 928 3319 
L 928 2847 
Q 1294 3394 1984 3394 
Q 2284 3394 2536 3286 
Q 2788 3178 2913 3003 
Q 3038 2828 3088 2588 
Q 3119 2431 3119 2041 
L 3119 0 
L 2556 0 
L 2556 2019 
Q 2556 2363 2490 2533 
Q 2425 2703 2258 2804 
Q 2091 2906 1866 2906 
Q 1506 2906 1245 2678 
Q 984 2450 984 1813 
L 984 0 
L 422 0 
z
" id="ArialMT-6e" transform="scale(0.015625)"/>
      <path d="M 197 991 
L 753 1078 
Q 800 744 1014 566 
Q 1228 388 1613 388 
Q 2000 388 2187 545 
Q 2375 703 2375 916 
Q 2375 1106 2209 1216 
Q 2094 1291 1634 1406 
Q 1016 1563 777 1677 
Q 538 1791 414 1992 
Q 291 2194 291 2438 
Q 291 2659 392 2848 
Q 494 3038 669 3163 
Q 800 3259 1026 3326 
Q 1253 3394 1513 3394 
Q 1903 3394 2198 3281 
Q 2494 3169 2634 2976 
Q 2775 2784 2828 2463 
L 2278 2388 
Q 2241 2644 2061 2787 
Q 1881 2931 1553 2931 
Q 1166 2931 1000 2803 
Q 834 2675 834 2503 
Q 834 2394 903 2306 
Q 972 2216 1119 2156 
Q 1203 2125 1616 2013 
Q 2213 1853 2448 1751 
Q 2684 1650 2818 1456 
Q 2953 1263 2953 975 
Q 2953 694 2789 445 
Q 2625 197 2315 61 
Q 2006 -75 1616 -75 
Q 969 -75 630 194 
Q 291 463 197 991 
z
" id="ArialMT-73" transform="scale(0.015625)"/>
      <path id="ArialMT-20" transform="scale(0.015625)"/>
      <path d="M 556 0 
L 556 2881 
L 59 2881 
L 59 3319 
L 556 3319 
L 556 3672 
Q 556 4006 616 4169 
Q 697 4388 901 4523 
Q 1106 4659 1475 4659 
Q 1713 4659 2000 4603 
L 1916 4113 
Q 1741 4144 1584 4144 
Q 1328 4144 1222 4034 
Q 1116 3925 1116 3625 
L 1116 3319 
L 1763 3319 
L 1763 2881 
L 1116 2881 
L 1116 0 
L 556 0 
z
" id="ArialMT-66" transform="scale(0.015625)"/>
      <path d="M 416 0 
L 416 3319 
L 922 3319 
L 922 2816 
Q 1116 3169 1280 3281 
Q 1444 3394 1641 3394 
Q 1925 3394 2219 3213 
L 2025 2691 
Q 1819 2813 1613 2813 
Q 1428 2813 1281 2702 
Q 1134 2591 1072 2394 
Q 978 2094 978 1738 
L 978 0 
L 416 0 
z
" id="ArialMT-72" transform="scale(0.015625)"/>
      <path d="M 3384 2003 
L 350 706 
L 350 1266 
L 2753 2263 
L 350 3250 
L 350 3809 
L 3384 2528 
L 3384 2003 
z
" id="ArialMT-3e" transform="scale(0.015625)"/>
      <path d="M 200 3741 
L 344 4184 
Q 841 4009 1066 3881 
Q 1006 4447 1003 4659 
L 1456 4659 
Q 1447 4350 1384 3884 
Q 1706 4047 2122 4184 
L 2266 3741 
Q 1869 3609 1488 3566 
Q 1678 3400 2025 2975 
L 1650 2709 
Q 1469 2956 1222 3381 
Q 991 2941 816 2709 
L 447 2975 
Q 809 3422 966 3566 
Q 563 3644 200 3741 
z
" id="ArialMT-2a" transform="scale(0.015625)"/>
      <path d="M 350 2003 
L 350 2528 
L 3384 3809 
L 3384 3250 
L 978 2263 
L 3384 1266 
L 3384 706 
L 350 2003 
z
" id="ArialMT-3c" transform="scale(0.015625)"/>
     </defs>
     <use xlink:href="#ArialMT-41"/>
     <use x="66.699219" xlink:href="#ArialMT-63"/>
     <use x="116.699219" xlink:href="#ArialMT-74"/>
     <use x="144.482422" xlink:href="#ArialMT-69"/>
     <use x="166.699219" xlink:href="#ArialMT-76"/>
     <use x="216.699219" xlink:href="#ArialMT-61"/>
     <use x="272.314453" xlink:href="#ArialMT-74"/>
     <use x="300.097656" xlink:href="#ArialMT-69"/>
     <use x="322.314453" xlink:href="#ArialMT-6f"/>
     <use x="377.929688" xlink:href="#ArialMT-6e"/>
     <use x="433.544922" xlink:href="#ArialMT-73"/>
     <use x="483.544922" xlink:href="#ArialMT-20"/>
     <use x="511.328125" xlink:href="#ArialMT-66"/>
     <use x="539.111328" xlink:href="#ArialMT-6f"/>
     <use x="594.726562" xlink:href="#ArialMT-72"/>
     <use x="628.027344" xlink:href="#ArialMT-20"/>
     <use x="655.810547" xlink:href="#ArialMT-3e"/>
     <use x="714.208984" xlink:href="#ArialMT-2a"/>
     <use x="753.125" xlink:href="#ArialMT-3c"/>
    </g>
   </g>
   <g id="legend_1">
    <g id="patch_7">
     <path d="M 640.044062 158.514363 
L 750.46 158.514363 
Q 752.66 158.514363 752.66 156.314363 
L 752.66 79.1528 
Q 752.66 76.9528 750.46 76.9528 
L 640.044062 76.9528 
Q 637.844062 76.9528 637.844062 79.1528 
L 637.844062 156.314363 
Q 637.844062 158.514363 640.044062 158.514363 
z
" style="fill:#ffffff;opacity:0.8;stroke:#cccccc;stroke-linejoin:miter;"/>
    </g>
    <g id="line2d_11">
     <path d="M 642.244062 85.376394 
L 664.244062 85.376394 
" style="fill:none;stroke:#4c72b0;stroke-linecap:round;stroke-width:1.5;"/>
    </g>
    <g id="line2d_12"/>
    <g id="text_17">
     <!-- regular -->
     <g style="fill:#262626;" transform="translate(673.044062 89.226394)scale(0.11 -0.11)">
      <defs>
       <path d="M 2694 1069 
L 3275 997 
Q 3138 488 2766 206 
Q 2394 -75 1816 -75 
Q 1088 -75 661 373 
Q 234 822 234 1631 
Q 234 2469 665 2931 
Q 1097 3394 1784 3394 
Q 2450 3394 2872 2941 
Q 3294 2488 3294 1666 
Q 3294 1616 3291 1516 
L 816 1516 
Q 847 969 1125 678 
Q 1403 388 1819 388 
Q 2128 388 2347 550 
Q 2566 713 2694 1069 
z
M 847 1978 
L 2700 1978 
Q 2663 2397 2488 2606 
Q 2219 2931 1791 2931 
Q 1403 2931 1139 2672 
Q 875 2413 847 1978 
z
" id="ArialMT-65" transform="scale(0.015625)"/>
       <path d="M 319 -275 
L 866 -356 
Q 900 -609 1056 -725 
Q 1266 -881 1628 -881 
Q 2019 -881 2231 -725 
Q 2444 -569 2519 -288 
Q 2563 -116 2559 434 
Q 2191 0 1641 0 
Q 956 0 581 494 
Q 206 988 206 1678 
Q 206 2153 378 2554 
Q 550 2956 876 3175 
Q 1203 3394 1644 3394 
Q 2231 3394 2613 2919 
L 2613 3319 
L 3131 3319 
L 3131 450 
Q 3131 -325 2973 -648 
Q 2816 -972 2473 -1159 
Q 2131 -1347 1631 -1347 
Q 1038 -1347 672 -1080 
Q 306 -813 319 -275 
z
M 784 1719 
Q 784 1066 1043 766 
Q 1303 466 1694 466 
Q 2081 466 2343 764 
Q 2606 1063 2606 1700 
Q 2606 2309 2336 2618 
Q 2066 2928 1684 2928 
Q 1309 2928 1046 2623 
Q 784 2319 784 1719 
z
" id="ArialMT-67" transform="scale(0.015625)"/>
       <path d="M 2597 0 
L 2597 488 
Q 2209 -75 1544 -75 
Q 1250 -75 995 37 
Q 741 150 617 320 
Q 494 491 444 738 
Q 409 903 409 1263 
L 409 3319 
L 972 3319 
L 972 1478 
Q 972 1038 1006 884 
Q 1059 663 1231 536 
Q 1403 409 1656 409 
Q 1909 409 2131 539 
Q 2353 669 2445 892 
Q 2538 1116 2538 1541 
L 2538 3319 
L 3100 3319 
L 3100 0 
L 2597 0 
z
" id="ArialMT-75" transform="scale(0.015625)"/>
       <path d="M 409 0 
L 409 4581 
L 972 4581 
L 972 0 
L 409 0 
z
" id="ArialMT-6c" transform="scale(0.015625)"/>
      </defs>
      <use xlink:href="#ArialMT-72"/>
      <use x="33.300781" xlink:href="#ArialMT-65"/>
      <use x="88.916016" xlink:href="#ArialMT-67"/>
      <use x="144.53125" xlink:href="#ArialMT-75"/>
      <use x="200.146484" xlink:href="#ArialMT-6c"/>
      <use x="222.363281" xlink:href="#ArialMT-61"/>
      <use x="277.978516" xlink:href="#ArialMT-72"/>
     </g>
    </g>
    <g id="line2d_13">
     <path d="M 642.244062 101.0978 
L 664.244062 101.0978 
" style="fill:none;stroke:#dd8452;stroke-dasharray:6,2.25;stroke-dashoffset:0;stroke-width:1.5;"/>
    </g>
    <g id="line2d_14"/>
    <g id="text_18">
     <!-- splitted_3s -->
     <g style="fill:#262626;" transform="translate(673.044062 104.9478)scale(0.11 -0.11)">
      <defs>
       <path d="M 422 -1272 
L 422 3319 
L 934 3319 
L 934 2888 
Q 1116 3141 1344 3267 
Q 1572 3394 1897 3394 
Q 2322 3394 2647 3175 
Q 2972 2956 3137 2557 
Q 3303 2159 3303 1684 
Q 3303 1175 3120 767 
Q 2938 359 2589 142 
Q 2241 -75 1856 -75 
Q 1575 -75 1351 44 
Q 1128 163 984 344 
L 984 -1272 
L 422 -1272 
z
M 931 1641 
Q 931 1000 1190 694 
Q 1450 388 1819 388 
Q 2194 388 2461 705 
Q 2728 1022 2728 1688 
Q 2728 2322 2467 2637 
Q 2206 2953 1844 2953 
Q 1484 2953 1207 2617 
Q 931 2281 931 1641 
z
" id="ArialMT-70" transform="scale(0.015625)"/>
       <path d="M 2575 0 
L 2575 419 
Q 2259 -75 1647 -75 
Q 1250 -75 917 144 
Q 584 363 401 755 
Q 219 1147 219 1656 
Q 219 2153 384 2558 
Q 550 2963 881 3178 
Q 1213 3394 1622 3394 
Q 1922 3394 2156 3267 
Q 2391 3141 2538 2938 
L 2538 4581 
L 3097 4581 
L 3097 0 
L 2575 0 
z
M 797 1656 
Q 797 1019 1065 703 
Q 1334 388 1700 388 
Q 2069 388 2326 689 
Q 2584 991 2584 1609 
Q 2584 2291 2321 2609 
Q 2059 2928 1675 2928 
Q 1300 2928 1048 2622 
Q 797 2316 797 1656 
z
" id="ArialMT-64" transform="scale(0.015625)"/>
       <path d="M -97 -1272 
L -97 -866 
L 3631 -866 
L 3631 -1272 
L -97 -1272 
z
" id="ArialMT-5f" transform="scale(0.015625)"/>
       <path d="M 269 1209 
L 831 1284 
Q 928 806 1161 595 
Q 1394 384 1728 384 
Q 2125 384 2398 659 
Q 2672 934 2672 1341 
Q 2672 1728 2419 1979 
Q 2166 2231 1775 2231 
Q 1616 2231 1378 2169 
L 1441 2663 
Q 1497 2656 1531 2656 
Q 1891 2656 2178 2843 
Q 2466 3031 2466 3422 
Q 2466 3731 2256 3934 
Q 2047 4138 1716 4138 
Q 1388 4138 1169 3931 
Q 950 3725 888 3313 
L 325 3413 
Q 428 3978 793 4289 
Q 1159 4600 1703 4600 
Q 2078 4600 2393 4439 
Q 2709 4278 2876 4000 
Q 3044 3722 3044 3409 
Q 3044 3113 2884 2869 
Q 2725 2625 2413 2481 
Q 2819 2388 3044 2092 
Q 3269 1797 3269 1353 
Q 3269 753 2831 336 
Q 2394 -81 1725 -81 
Q 1122 -81 723 278 
Q 325 638 269 1209 
z
" id="ArialMT-33" transform="scale(0.015625)"/>
      </defs>
      <use xlink:href="#ArialMT-73"/>
      <use x="50" xlink:href="#ArialMT-70"/>
      <use x="105.615234" xlink:href="#ArialMT-6c"/>
      <use x="127.832031" xlink:href="#ArialMT-69"/>
      <use x="150.048828" xlink:href="#ArialMT-74"/>
      <use x="177.832031" xlink:href="#ArialMT-74"/>
      <use x="205.615234" xlink:href="#ArialMT-65"/>
      <use x="261.230469" xlink:href="#ArialMT-64"/>
      <use x="316.845703" xlink:href="#ArialMT-5f"/>
      <use x="372.460938" xlink:href="#ArialMT-33"/>
      <use x="428.076172" xlink:href="#ArialMT-73"/>
     </g>
    </g>
    <g id="line2d_15">
     <path d="M 642.244062 116.6903 
L 664.244062 116.6903 
" style="fill:none;stroke:#55a868;stroke-dasharray:1.5,1.5;stroke-dashoffset:0;stroke-width:1.5;"/>
    </g>
    <g id="line2d_16"/>
    <g id="text_19">
     <!-- splitted_1s -->
     <g style="fill:#262626;" transform="translate(673.044062 120.5403)scale(0.11 -0.11)">
      <use xlink:href="#ArialMT-73"/>
      <use x="50" xlink:href="#ArialMT-70"/>
      <use x="105.615234" xlink:href="#ArialMT-6c"/>
      <use x="127.832031" xlink:href="#ArialMT-69"/>
      <use x="150.048828" xlink:href="#ArialMT-74"/>
      <use x="177.832031" xlink:href="#ArialMT-74"/>
      <use x="205.615234" xlink:href="#ArialMT-65"/>
      <use x="261.230469" xlink:href="#ArialMT-64"/>
      <use x="316.845703" xlink:href="#ArialMT-5f"/>
      <use x="372.460938" xlink:href="#ArialMT-31"/>
      <use x="428.076172" xlink:href="#ArialMT-73"/>
     </g>
    </g>
    <g id="line2d_17">
     <path d="M 642.244062 132.384206 
L 664.244062 132.384206 
" style="fill:none;stroke:#c44e52;stroke-dasharray:4.5,1.875,2.25,1.875;stroke-dashoffset:0;stroke-width:1.5;"/>
    </g>
    <g id="line2d_18"/>
    <g id="text_20">
     <!-- overlap_1f_3s -->
     <g style="fill:#262626;" transform="translate(673.044062 136.234206)scale(0.11 -0.11)">
      <use xlink:href="#ArialMT-6f"/>
      <use x="55.615234" xlink:href="#ArialMT-76"/>
      <use x="105.615234" xlink:href="#ArialMT-65"/>
      <use x="161.230469" xlink:href="#ArialMT-72"/>
      <use x="194.53125" xlink:href="#ArialMT-6c"/>
      <use x="216.748047" xlink:href="#ArialMT-61"/>
      <use x="272.363281" xlink:href="#ArialMT-70"/>
      <use x="327.978516" xlink:href="#ArialMT-5f"/>
      <use x="383.59375" xlink:href="#ArialMT-31"/>
      <use x="439.208984" xlink:href="#ArialMT-66"/>
      <use x="466.992188" xlink:href="#ArialMT-5f"/>
      <use x="522.607422" xlink:href="#ArialMT-33"/>
      <use x="578.222656" xlink:href="#ArialMT-73"/>
     </g>
    </g>
    <g id="line2d_19">
     <path d="M 642.244062 148.078113 
L 664.244062 148.078113 
" style="fill:none;stroke:#8172b3;stroke-dasharray:7.5,1.5,1.5,1.5;stroke-dashoffset:0;stroke-width:1.5;"/>
    </g>
    <g id="line2d_20"/>
    <g id="text_21">
     <!-- overlap_10f_3s -->
     <g style="fill:#262626;" transform="translate(673.044062 151.928112)scale(0.11 -0.11)">
      <use xlink:href="#ArialMT-6f"/>
      <use x="55.615234" xlink:href="#ArialMT-76"/>
      <use x="105.615234" xlink:href="#ArialMT-65"/>
      <use x="161.230469" xlink:href="#ArialMT-72"/>
      <use x="194.53125" xlink:href="#ArialMT-6c"/>
      <use x="216.748047" xlink:href="#ArialMT-61"/>
      <use x="272.363281" xlink:href="#ArialMT-70"/>
      <use x="327.978516" xlink:href="#ArialMT-5f"/>
      <use x="383.59375" xlink:href="#ArialMT-31"/>
      <use x="439.208984" xlink:href="#ArialMT-30"/>
      <use x="494.824219" xlink:href="#ArialMT-66"/>
      <use x="522.607422" xlink:href="#ArialMT-5f"/>
      <use x="578.222656" xlink:href="#ArialMT-33"/>
      <use x="633.837891" xlink:href="#ArialMT-73"/>
     </g>
    </g>
   </g>
  </g>
 </g>
 <defs>
  <clipPath id="pf765642015">
   <rect height="458.4888" width="652.86" x="105.3" y="71.4528"/>
  </clipPath>
 </defs>
</svg>
