<?xml version="1.0" encoding="utf-8" standalone="no"?>
<!DOCTYPE svg PUBLIC "-//W3C//DTD SVG 1.1//EN"
  "http://www.w3.org/Graphics/SVG/1.1/DTD/svg11.dtd">
<svg height="595.44pt" version="1.1" viewBox="0 0 842.4 595.44" width="842.4pt" xmlns="http://www.w3.org/2000/svg" xmlns:xlink="http://www.w3.org/1999/xlink">
 <metadata>
  <rdf:RDF xmlns:cc="http://creativecommons.org/ns#" xmlns:dc="http://purl.org/dc/elements/1.1/" xmlns:rdf="http://www.w3.org/1999/02/22-rdf-syntax-ns#">
   <cc:Work>
    <dc:type rdf:resource="http://purl.org/dc/dcmitype/StillImage"/>
    <dc:date>2021-06-04T22:03:17.085728</dc:date>
    <dc:format>image/svg+xml</dc:format>
    <dc:creator>
     <cc:Agent>
      <dc:title>Matplotlib v3.4.1, https://matplotlib.org/</dc:title>
     </cc:Agent>
    </dc:creator>
   </cc:Work>
  </rdf:RDF>
 </metadata>
 <defs>
  <style type="text/css">*{stroke-linecap:butt;stroke-linejoin:round;}</style>
 </defs>
 <g id="figure_1">
  <g id="patch_1">
   <path d="M 0 595.44 
L 842.4 595.44 
L 842.4 0 
L 0 0 
z
" style="fill:#ffffff;"/>
  </g>
  <g id="axes_1">
   <g id="patch_2">
    <path d="M 105.3 529.9416 
L 758.16 529.9416 
L 758.16 71.4528 
L 105.3 71.4528 
z
" style="fill:#ffffff;"/>
   </g>
   <g id="matplotlib.axis_1">
    <g id="xtick_1">
     <g id="text_1">
      <!-- 0 -->
      <g style="fill:#262626;" transform="translate(131.916939 547.315194)scale(0.11 -0.11)">
       <defs>
        <path d="M 266 2259 
Q 266 3072 433 3567 
Q 600 4063 929 4331 
Q 1259 4600 1759 4600 
Q 2128 4600 2406 4451 
Q 2684 4303 2865 4023 
Q 3047 3744 3150 3342 
Q 3253 2941 3253 2259 
Q 3253 1453 3087 958 
Q 2922 463 2592 192 
Q 2263 -78 1759 -78 
Q 1097 -78 719 397 
Q 266 969 266 2259 
z
M 844 2259 
Q 844 1131 1108 757 
Q 1372 384 1759 384 
Q 2147 384 2411 759 
Q 2675 1134 2675 2259 
Q 2675 3391 2411 3762 
Q 2147 4134 1753 4134 
Q 1366 4134 1134 3806 
Q 844 3388 844 2259 
z
" id="ArialMT-30" transform="scale(0.015625)"/>
       </defs>
       <use xlink:href="#ArialMT-30"/>
      </g>
     </g>
    </g>
    <g id="xtick_2">
     <g id="text_2">
      <!-- 25 -->
      <g style="fill:#262626;" transform="translate(201.950676 547.315194)scale(0.11 -0.11)">
       <defs>
        <path d="M 3222 541 
L 3222 0 
L 194 0 
Q 188 203 259 391 
Q 375 700 629 1000 
Q 884 1300 1366 1694 
Q 2113 2306 2375 2664 
Q 2638 3022 2638 3341 
Q 2638 3675 2398 3904 
Q 2159 4134 1775 4134 
Q 1369 4134 1125 3890 
Q 881 3647 878 3216 
L 300 3275 
Q 359 3922 746 4261 
Q 1134 4600 1788 4600 
Q 2447 4600 2831 4234 
Q 3216 3869 3216 3328 
Q 3216 3053 3103 2787 
Q 2991 2522 2730 2228 
Q 2469 1934 1863 1422 
Q 1356 997 1212 845 
Q 1069 694 975 541 
L 3222 541 
z
" id="ArialMT-32" transform="scale(0.015625)"/>
        <path d="M 266 1200 
L 856 1250 
Q 922 819 1161 601 
Q 1400 384 1738 384 
Q 2144 384 2425 690 
Q 2706 997 2706 1503 
Q 2706 1984 2436 2262 
Q 2166 2541 1728 2541 
Q 1456 2541 1237 2417 
Q 1019 2294 894 2097 
L 366 2166 
L 809 4519 
L 3088 4519 
L 3088 3981 
L 1259 3981 
L 1013 2750 
Q 1425 3038 1878 3038 
Q 2478 3038 2890 2622 
Q 3303 2206 3303 1553 
Q 3303 931 2941 478 
Q 2500 -78 1738 -78 
Q 1113 -78 717 272 
Q 322 622 266 1200 
z
" id="ArialMT-35" transform="scale(0.015625)"/>
       </defs>
       <use xlink:href="#ArialMT-32"/>
       <use x="55.615234" xlink:href="#ArialMT-35"/>
      </g>
     </g>
    </g>
    <g id="xtick_3">
     <g id="text_3">
      <!-- 50 -->
      <g style="fill:#262626;" transform="translate(275.042928 547.315194)scale(0.11 -0.11)">
       <use xlink:href="#ArialMT-35"/>
       <use x="55.615234" xlink:href="#ArialMT-30"/>
      </g>
     </g>
    </g>
    <g id="xtick_4">
     <g id="text_4">
      <!-- 75 -->
      <g style="fill:#262626;" transform="translate(348.135181 547.315194)scale(0.11 -0.11)">
       <defs>
        <path d="M 303 3981 
L 303 4522 
L 3269 4522 
L 3269 4084 
Q 2831 3619 2401 2847 
Q 1972 2075 1738 1259 
Q 1569 684 1522 0 
L 944 0 
Q 953 541 1156 1306 
Q 1359 2072 1739 2783 
Q 2119 3494 2547 3981 
L 303 3981 
z
" id="ArialMT-37" transform="scale(0.015625)"/>
       </defs>
       <use xlink:href="#ArialMT-37"/>
       <use x="55.615234" xlink:href="#ArialMT-35"/>
      </g>
     </g>
    </g>
    <g id="xtick_5">
     <g id="text_5">
      <!-- 100 -->
      <g style="fill:#262626;" transform="translate(418.168918 547.315194)scale(0.11 -0.11)">
       <defs>
        <path d="M 2384 0 
L 1822 0 
L 1822 3584 
Q 1619 3391 1289 3197 
Q 959 3003 697 2906 
L 697 3450 
Q 1169 3672 1522 3987 
Q 1875 4303 2022 4600 
L 2384 4600 
L 2384 0 
z
" id="ArialMT-31" transform="scale(0.015625)"/>
       </defs>
       <use xlink:href="#ArialMT-31"/>
       <use x="55.615234" xlink:href="#ArialMT-30"/>
       <use x="111.230469" xlink:href="#ArialMT-30"/>
      </g>
     </g>
    </g>
    <g id="xtick_6">
     <g id="text_6">
      <!-- 125 -->
      <g style="fill:#262626;" transform="translate(491.261171 547.315194)scale(0.11 -0.11)">
       <use xlink:href="#ArialMT-31"/>
       <use x="55.615234" xlink:href="#ArialMT-32"/>
       <use x="111.230469" xlink:href="#ArialMT-35"/>
      </g>
     </g>
    </g>
    <g id="xtick_7">
     <g id="text_7">
      <!-- 150 -->
      <g style="fill:#262626;" transform="translate(564.353423 547.315194)scale(0.11 -0.11)">
       <use xlink:href="#ArialMT-31"/>
       <use x="55.615234" xlink:href="#ArialMT-35"/>
       <use x="111.230469" xlink:href="#ArialMT-30"/>
      </g>
     </g>
    </g>
    <g id="xtick_8">
     <g id="text_8">
      <!-- 175 -->
      <g style="fill:#262626;" transform="translate(637.445676 547.315194)scale(0.11 -0.11)">
       <use xlink:href="#ArialMT-31"/>
       <use x="55.615234" xlink:href="#ArialMT-37"/>
       <use x="111.230469" xlink:href="#ArialMT-35"/>
      </g>
     </g>
    </g>
    <g id="xtick_9">
     <g id="text_9">
      <!-- 200 -->
      <g style="fill:#262626;" transform="translate(710.537928 547.315194)scale(0.11 -0.11)">
       <use xlink:href="#ArialMT-32"/>
       <use x="55.615234" xlink:href="#ArialMT-30"/>
       <use x="111.230469" xlink:href="#ArialMT-30"/>
      </g>
     </g>
    </g>
   </g>
   <g id="matplotlib.axis_2">
    <g id="ytick_1">
     <g id="text_10">
      <!-- −25 -->
      <g style="fill:#262626;" transform="translate(77.14125 533.878397)scale(0.11 -0.11)">
       <defs>
        <path d="M 3381 1997 
L 356 1997 
L 356 2522 
L 3381 2522 
L 3381 1997 
z
" id="ArialMT-2212" transform="scale(0.015625)"/>
       </defs>
       <use xlink:href="#ArialMT-2212"/>
       <use x="58.398438" xlink:href="#ArialMT-32"/>
       <use x="114.013672" xlink:href="#ArialMT-35"/>
      </g>
     </g>
    </g>
    <g id="ytick_2">
     <g id="text_11">
      <!-- −20 -->
      <g style="fill:#262626;" transform="translate(77.14125 442.180637)scale(0.11 -0.11)">
       <use xlink:href="#ArialMT-2212"/>
       <use x="58.398438" xlink:href="#ArialMT-32"/>
       <use x="114.013672" xlink:href="#ArialMT-30"/>
      </g>
     </g>
    </g>
    <g id="ytick_3">
     <g id="text_12">
      <!-- −15 -->
      <g style="fill:#262626;" transform="translate(77.14125 350.482877)scale(0.11 -0.11)">
       <use xlink:href="#ArialMT-2212"/>
       <use x="58.398438" xlink:href="#ArialMT-31"/>
       <use x="114.013672" xlink:href="#ArialMT-35"/>
      </g>
     </g>
    </g>
    <g id="ytick_4">
     <g id="text_13">
      <!-- −10 -->
      <g style="fill:#262626;" transform="translate(77.14125 258.785117)scale(0.11 -0.11)">
       <use xlink:href="#ArialMT-2212"/>
       <use x="58.398438" xlink:href="#ArialMT-31"/>
       <use x="114.013672" xlink:href="#ArialMT-30"/>
      </g>
     </g>
    </g>
    <g id="ytick_5">
     <g id="text_14">
      <!-- −5 -->
      <g style="fill:#262626;" transform="translate(83.258281 167.087357)scale(0.11 -0.11)">
       <use xlink:href="#ArialMT-2212"/>
       <use x="58.398438" xlink:href="#ArialMT-35"/>
      </g>
     </g>
    </g>
    <g id="ytick_6">
     <g id="text_15">
      <!-- 0 -->
      <g style="fill:#262626;" transform="translate(89.682969 75.389597)scale(0.11 -0.11)">
       <use xlink:href="#ArialMT-30"/>
      </g>
     </g>
    </g>
   </g>
   <g id="line2d_1">
    <path clip-path="url(#pb32b5adc90)" d="M 134.975455 558.112258 
L 137.899145 558.995012 
L 140.822835 560.021637 
L 143.746525 560.000125 
L 146.670215 560.86119 
L 149.593905 562.79614 
L 152.517595 563.423714 
L 158.364975 568.236252 
L 161.288665 569.445367 
L 164.212356 572.06204 
L 167.136046 575.940754 
L 169.828093 596.44 
M 185.421993 596.44 
L 187.601876 544.083212 
L 189.965271 596.44 
M 201.585934 596.44 
L 202.220327 581.858342 
L 205.144017 568.107805 
L 206.095841 596.44 
M 209.710193 596.44 
L 210.991397 550.655624 
L 213.915087 575.17207 
L 215.887417 596.44 
M 221.189597 596.44 
L 222.686158 585.381554 
L 225.609848 566.176284 
L 228.114854 596.44 
M 232.022316 596.44 
L 234.380918 514.465994 
L 238.101908 596.44 
M 243.276723 596.44 
L 246.075678 491.737441 
L 248.999369 481.684947 
L 251.923059 573.773188 
L 254.846749 565.04185 
L 257.770439 594.424038 
L 260.694129 524.26338 
L 262.510121 596.44 
M 264.981278 596.44 
L 266.541509 546.060872 
L 269.465199 533.333743 
L 272.388889 550.47023 
L 275.312579 568.69211 
L 278.23627 573.600107 
L 281.15996 561.057987 
L 284.08365 530.898721 
L 287.00734 542.57925 
L 289.93103 582.927538 
L 292.85472 534.491718 
L 295.77841 517.569797 
L 298.7021 575.648322 
L 301.62579 578.663905 
L 304.549481 546.346832 
L 307.473171 522.451595 
L 310.396861 545.255739 
L 313.320551 511.192188 
L 316.244241 547.46612 
L 319.167931 524.191006 
L 322.091621 542.914393 
L 325.015311 509.426682 
L 327.939001 545.507524 
L 330.862691 578.360804 
L 333.786382 548.40617 
L 336.710072 512.812213 
L 339.633762 570.672043 
L 342.557452 592.155276 
L 345.481142 521.190953 
L 348.404832 489.226618 
L 351.328522 475.215936 
L 354.252212 552.40441 
L 357.175902 540.534849 
L 360.099592 526.818663 
L 362.726235 596.44 
M 363.29749 596.44 
L 365.946973 520.363678 
L 368.870663 517.470909 
L 371.794353 535.518763 
L 374.904002 596.44 
M 382.008837 596.44 
L 383.489113 550.585209 
L 386.412803 534.272044 
L 389.336494 575.098822 
L 392.260184 547.399448 
L 395.183874 563.853792 
L 398.107564 514.007092 
L 401.031254 489.743271 
L 403.954944 493.78667 
L 406.878634 541.822949 
L 409.802324 500.507292 
L 412.726014 484.327575 
L 415.649704 567.884598 
L 418.573395 543.66842 
L 421.497085 583.277407 
L 422.022677 596.44 
M 432.778599 596.44 
L 433.191845 593.436835 
L 436.115535 523.888815 
L 439.039225 538.651845 
L 441.962915 589.950351 
L 444.886605 583.694088 
L 447.810296 503.278856 
L 450.733986 465.51415 
L 453.657676 533.007695 
L 456.581366 515.967507 
L 458.258509 596.44 
M 461.021784 596.44 
L 462.428746 540.956847 
L 465.352436 554.852025 
L 468.276126 534.867402 
L 471.199816 531.823974 
L 473.671118 596.44 
M 474.598581 596.44 
L 477.047197 535.474409 
L 479.970887 456.305756 
L 482.894577 579.242718 
L 485.818267 583.867203 
L 488.741957 584.737259 
L 491.665647 540.584066 
L 494.589337 535.953109 
L 496.584335 596.44 
M 498.360956 596.44 
L 500.436717 527.509866 
L 503.360408 458.071473 
L 506.284098 547.873881 
L 507.743213 596.44 
M 515.838008 596.44 
L 517.978858 524.128252 
L 520.902548 574.850919 
L 523.826238 589.849364 
L 526.749928 547.017048 
L 529.397764 596.44 
M 534.127376 596.44 
L 535.520999 551.015252 
L 538.444689 528.804578 
L 541.368379 592.802684 
L 542.183397 596.44 
M 544.717829 596.44 
L 547.215759 541.227416 
L 550.139449 581.418504 
L 553.063139 486.027879 
L 555.986829 554.188316 
L 558.910519 529.780657 
L 561.83421 533.231776 
L 564.7579 548.384133 
L 567.68159 509.021334 
L 570.60528 514.953439 
L 573.52897 504.731957 
L 576.45266 484.743451 
L 579.37635 523.746446 
L 582.30004 537.786372 
L 585.22373 532.454872 
L 588.147421 522.348019 
L 591.071111 518.269745 
L 593.994801 538.423706 
L 596.918491 469.341478 
L 599.842181 526.152155 
L 602.765871 519.288815 
L 605.689561 527.19809 
L 608.613251 516.38961 
L 611.536941 596.053403 
L 611.758127 596.44 
M 614.553172 596.44 
L 617.384322 451.930363 
L 620.308012 486.486081 
L 623.231702 551.103297 
L 625.490093 596.44 
M 628.03652 596.44 
L 629.079082 589.03797 
L 632.002772 565.013552 
L 634.926462 538.655518 
L 637.850152 574.454982 
L 640.773842 504.939528 
L 643.697532 447.702655 
L 646.621223 492.110572 
L 649.544913 510.375687 
L 652.468603 579.219072 
L 655.392293 542.188594 
L 658.315983 507.940875 
L 661.239673 571.818685 
L 664.163363 508.743594 
L 667.087053 565.685621 
L 670.010743 572.438984 
L 672.934433 557.646186 
L 675.858124 564.63283 
L 678.781814 529.979029 
L 681.705504 586.8788 
L 682.380853 596.44 
M 686.143551 596.44 
L 687.552884 566.816801 
L 688.401401 596.44 
M 699.708703 596.44 
L 702.171335 582.246199 
L 705.095025 583.241832 
L 708.018715 577.391161 
L 710.942405 579.611861 
L 713.866095 578.306795 
L 716.789785 579.373963 
L 719.713475 577.789967 
L 722.637165 575.673857 
L 725.560855 579.402017 
L 728.484545 580.47681 
L 728.484545 580.47681 
" style="fill:none;stroke:#4c72b0;stroke-linecap:round;stroke-width:1.5;"/>
   </g>
   <g id="line2d_2">
    <path clip-path="url(#pb32b5adc90)" d="M 134.975455 548.913309 
L 137.899145 552.562379 
L 140.822835 553.140143 
L 143.746525 553.367757 
L 146.670215 554.831981 
L 149.593905 556.979434 
L 152.517595 555.475822 
L 155.441285 557.163778 
L 158.364975 556.878272 
L 161.288665 558.230595 
L 164.212356 559.281777 
L 167.136046 559.951677 
L 170.059736 579.339508 
L 172.983426 585.417374 
L 174.748459 596.44 
M 184.991059 596.44 
L 187.601876 518.237459 
L 190.159278 596.44 
M 201.942544 596.44 
L 202.220327 592.239472 
L 204.922794 596.44 
M 210.337719 596.44 
L 210.991397 575.707193 
L 213.915087 559.175053 
L 216.076999 596.44 
M 220.225044 596.44 
L 222.686158 585.302884 
L 225.609848 560.544237 
L 229.836025 596.44 
M 231.861234 596.44 
L 234.380918 508.998842 
L 237.304608 566.694617 
L 238.682049 596.44 
M 242.955022 596.44 
L 243.151988 594.027996 
L 246.075678 500.234274 
L 248.999369 508.625991 
L 251.923059 570.645459 
L 254.846749 563.756933 
L 257.679869 596.44 
M 257.822234 596.44 
L 260.694129 538.507413 
L 262.262711 596.44 
M 265.401221 596.44 
L 266.541509 564.439636 
L 269.465199 548.497888 
L 272.388889 581.001054 
L 274.672171 596.44 
M 279.270897 596.44 
L 281.15996 589.42177 
L 284.08365 545.755077 
L 287.00734 558.30164 
L 289.118532 596.44 
M 290.969735 596.44 
L 292.85472 569.803807 
L 295.77841 534.943239 
L 298.649424 596.44 
M 302.212081 596.44 
L 304.549481 561.135993 
L 307.473171 540.057303 
L 310.396861 539.015951 
L 313.320551 530.116115 
L 316.244241 565.005331 
L 319.167931 557.06468 
L 322.091621 553.878324 
L 325.015311 506.928556 
L 327.939001 573.395405 
L 330.862691 577.012469 
L 333.786382 538.143027 
L 336.710072 548.769821 
L 339.633762 586.475131 
L 342.557452 582.582566 
L 345.481142 516.588016 
L 348.404832 499.166477 
L 351.328522 557.666894 
L 353.923767 596.44 
M 354.436642 596.44 
L 357.175902 523.558604 
L 360.099592 442.625844 
L 363.023283 442.861609 
L 365.946973 482.955348 
L 368.870663 465.649103 
L 371.794353 478.024963 
L 374.718043 529.899624 
L 377.641733 561.519163 
L 380.565423 591.44256 
L 383.489113 517.274462 
L 389.336494 580.808245 
L 392.260184 554.89631 
L 395.183874 571.529296 
L 398.107564 517.387377 
L 401.031254 487.19292 
L 403.954944 526.613261 
L 406.878634 538.719881 
L 409.802324 539.670005 
L 412.726014 548.034614 
L 415.649704 589.558541 
L 418.573395 546.658783 
L 422.30235 596.44 
M 425.859677 596.44 
L 427.344465 565.100861 
L 430.268155 574.334371 
L 433.191845 559.543882 
L 436.115535 512.324383 
L 439.039225 574.089127 
L 440.834202 596.44 
M 442.729632 596.44 
L 444.886605 556.900729 
L 447.810296 483.040524 
L 450.733986 501.197061 
L 453.657676 537.587336 
L 456.581366 553.648926 
L 457.783603 596.44 
M 461.0485 596.44 
L 462.428746 541.647175 
L 465.352436 569.198339 
L 468.276126 523.675997 
L 471.199816 536.764433 
L 474.123506 580.893036 
L 477.047197 566.395398 
L 479.970887 460.696821 
L 482.894577 571.410015 
L 485.564956 596.44 
M 488.828811 596.44 
L 491.665647 558.216848 
L 494.589337 541.953285 
L 496.554939 596.44 
M 498.333979 596.44 
L 500.436717 528.414971 
L 503.360408 457.148633 
L 506.284098 551.903533 
L 507.853243 596.44 
M 516.28475 596.44 
L 517.978858 553.32767 
L 520.902548 584.38662 
L 523.826238 585.828143 
L 526.749928 559.254563 
L 528.891365 596.44 
M 533.904124 596.44 
L 535.520999 548.200069 
L 538.444689 527.986083 
L 541.368379 562.152859 
L 544.153724 596.44 
M 544.347583 596.44 
L 547.215759 508.452561 
L 550.139449 555.56656 
L 553.063139 497.630893 
L 555.986829 487.02736 
L 561.83421 429.027436 
L 564.7579 505.796676 
L 567.68159 475.282363 
L 570.60528 573.321387 
L 573.52897 455.512797 
L 576.45266 451.97017 
L 579.37635 498.152444 
L 582.30004 460.756426 
L 585.22373 542.794517 
L 588.147421 514.277802 
L 591.071111 538.221557 
L 593.994801 564.290027 
L 596.918491 492.484018 
L 599.842181 579.032314 
L 602.765871 540.490214 
L 605.689561 572.906211 
L 608.26656 596.44 
M 616.19713 596.44 
L 617.384322 557.185256 
L 620.308012 544.538126 
L 623.231702 579.935775 
L 623.897309 596.44 
M 633.695271 596.44 
L 634.926462 587.092107 
L 637.850152 588.970284 
L 640.773842 537.85042 
L 643.697532 449.504506 
L 646.621223 514.828351 
L 649.544913 543.922794 
L 652.468603 587.643461 
L 655.392293 571.961683 
L 658.315983 487.070875 
L 661.239673 574.822865 
L 664.163363 506.144201 
L 667.087053 576.407421 
L 670.010743 587.903466 
L 672.934433 559.806371 
L 675.858124 569.377332 
L 678.781814 556.30621 
L 681.717808 596.44 
M 686.214206 596.44 
L 687.552884 565.604887 
L 688.479481 596.44 
M 700.380891 596.44 
L 702.171335 573.065894 
L 705.095025 574.355149 
L 708.018715 573.196754 
L 710.942405 575.320735 
L 713.866095 573.23859 
L 716.789785 574.852948 
L 719.713475 574.256925 
L 722.637165 570.513409 
L 725.560855 574.457045 
L 728.484545 570.58162 
L 728.484545 570.58162 
" style="fill:none;stroke:#dd8452;stroke-dasharray:6,2.25;stroke-dashoffset:0;stroke-width:1.5;"/>
   </g>
   <g id="line2d_3">
    <path clip-path="url(#pb32b5adc90)" d="M 134.975455 551.759065 
L 137.899145 554.988412 
L 140.822835 556.290189 
L 143.746525 554.732534 
L 146.670215 562.085487 
L 149.593905 563.462682 
L 152.517595 563.365193 
L 155.441285 585.02252 
L 158.364975 585.712674 
L 161.288665 574.720164 
L 164.212356 577.064309 
L 167.136046 570.686035 
L 170.059736 571.478925 
L 172.983426 588.043106 
L 174.323797 596.44 
M 183.776927 596.44 
L 184.678186 556.464844 
L 187.601876 521.812232 
L 190.525567 529.238783 
L 193.449257 553.443908 
L 196.372947 583.803155 
L 197.773255 596.44 
M 203.382325 596.44 
L 208.067707 513.427195 
L 210.991397 551.814124 
L 213.915087 591.68616 
L 216.838777 577.926914 
L 219.762468 541.778175 
L 222.686158 543.368397 
L 225.609848 508.372107 
L 228.533538 555.823872 
L 231.457228 596.241105 
L 234.380918 489.15246 
L 237.304608 579.058024 
L 238.129222 596.44 
M 243.377876 596.44 
L 246.075678 485.16482 
L 248.999369 521.671892 
L 251.923059 523.474582 
L 254.846749 591.587971 
L 255.273838 596.44 
M 258.645444 596.44 
L 260.694129 530.032408 
L 262.639795 596.44 
M 264.777759 596.44 
L 266.541509 545.682494 
L 269.465199 565.762157 
L 272.388889 587.724159 
L 275.312579 582.01827 
L 278.23627 591.113609 
L 281.15996 554.903795 
L 284.08365 553.119015 
L 287.00734 405.296184 
L 289.93103 499.678513 
L 292.85472 506.882172 
L 295.77841 543.970437 
L 297.712761 596.44 
M 303.786774 596.44 
L 304.549481 579.315441 
L 307.473171 556.06226 
L 310.396861 590.393372 
L 313.320551 585.696653 
L 316.153218 596.44 
M 316.465673 596.44 
L 319.167931 592.227124 
L 322.091621 585.935321 
L 325.015311 526.543476 
L 327.939001 584.167016 
L 329.098416 596.44 
M 332.010971 596.44 
L 333.786382 567.564532 
L 336.710072 567.839055 
L 338.14056 596.44 
M 344.671932 596.44 
L 345.481142 573.574082 
L 348.404832 562.163248 
L 351.328522 565.854889 
L 354.252212 560.426005 
L 356.488344 596.44 
M 357.39865 596.44 
L 360.099592 462.168146 
L 363.023283 494.44083 
L 365.946973 512.096664 
L 368.870663 563.898217 
L 371.794353 455.982367 
L 374.718043 534.681309 
L 377.641733 574.500001 
L 380.565423 554.591739 
L 383.489113 493.184141 
L 386.412803 560.615281 
L 389.197966 596.44 
M 389.566488 596.44 
L 392.260184 575.571051 
L 395.183874 561.687136 
L 398.107564 562.53463 
L 401.031254 481.159689 
L 403.954944 540.877687 
L 406.878634 565.031601 
L 409.802324 551.782747 
L 412.726014 521.703024 
L 414.821567 596.44 
M 426.960647 596.44 
L 427.344465 587.678965 
L 430.268155 584.932552 
L 433.191845 495.525347 
L 436.115535 446.875975 
L 439.039225 582.389512 
L 441.962915 568.684274 
L 444.886605 575.060869 
L 447.810296 541.884759 
L 450.733986 490.917337 
L 453.657676 509.749232 
L 456.581366 580.308731 
L 456.949472 596.44 
M 461.828522 596.44 
L 462.428746 567.508984 
L 465.352436 583.806793 
L 468.276126 552.507076 
L 471.199816 510.419307 
L 474.123506 524.569874 
L 477.047197 561.506675 
L 479.970887 469.132858 
L 482.894577 543.505239 
L 485.818267 575.340988 
L 488.004302 596.44 
M 489.075679 596.44 
L 491.665647 541.18544 
L 494.589337 520.890476 
L 497.513027 575.759208 
L 500.436717 491.667761 
L 503.360408 500.838237 
L 506.284098 498.925955 
L 508.604779 596.44 
M 510.769148 596.44 
L 512.131478 574.331712 
L 515.055168 497.460086 
L 517.978858 517.282017 
L 520.902548 520.447385 
L 523.826238 532.628652 
L 526.749928 593.495706 
L 532.597309 566.720956 
L 535.520999 569.64045 
L 538.444689 558.364429 
L 541.368379 554.341003 
L 544.292069 585.172584 
L 547.215759 523.274812 
L 549.991847 596.44 
M 550.223905 596.44 
L 553.063139 465.662395 
L 555.986829 448.447972 
L 558.910519 522.944672 
L 561.83421 464.819624 
L 564.7579 479.625225 
L 567.68159 528.662524 
L 570.60528 541.432853 
L 573.52897 499.432604 
L 576.45266 519.493063 
L 579.37635 485.656427 
L 582.30004 501.257821 
L 585.22373 582.651861 
L 588.147421 535.970284 
L 591.071111 408.697561 
L 593.994801 405.733258 
L 596.918491 418.101703 
L 599.842181 486.135163 
L 602.765871 498.152829 
L 605.57391 596.44 
M 606.021777 596.44 
L 608.613251 564.863173 
L 611.143251 596.44 
M 614.954136 596.44 
L 617.384322 509.516825 
L 620.308012 519.96928 
L 624.404578 596.44 
M 634.113639 596.44 
L 634.926462 583.435341 
L 637.850152 574.729714 
L 640.773842 536.830126 
L 643.697532 485.653979 
L 646.621223 520.997514 
L 649.544913 541.279012 
L 652.468603 525.998489 
L 654.878796 596.44 
M 655.839038 596.44 
L 658.315983 513.230923 
L 661.239673 484.857766 
L 664.163363 462.515147 
L 667.087053 512.412113 
L 670.010743 451.149926 
L 672.934433 505.250534 
L 675.197193 596.44 
M 677.301106 596.44 
L 678.781814 569.108021 
L 681.705504 532.533017 
L 684.629194 582.173791 
L 685.886585 596.44 
M 700.655043 596.44 
L 702.171335 577.425861 
L 705.095025 573.349511 
L 708.018715 571.484732 
L 710.942405 577.503237 
L 713.866095 572.888686 
L 716.789785 575.128695 
L 719.713475 572.840588 
L 722.637165 572.948641 
L 725.560855 574.782429 
L 728.484545 572.225502 
L 728.484545 572.225502 
" style="fill:none;stroke:#55a868;stroke-dasharray:1.5,1.5;stroke-dashoffset:0;stroke-width:1.5;"/>
   </g>
   <g id="line2d_4">
    <path clip-path="url(#pb32b5adc90)" d="M 134.975455 548.803052 
L 137.899145 552.430365 
L 140.822835 553.087078 
L 143.746525 553.178551 
L 146.670215 554.806446 
L 149.593905 556.957536 
L 152.517595 555.564706 
L 155.441285 557.41259 
L 158.364975 557.301144 
L 161.288665 558.711185 
L 164.212356 559.698248 
L 167.136046 560.532904 
L 170.059736 580.025849 
L 172.983426 586.083391 
L 174.64258 596.44 
M 185.021633 596.44 
L 187.601876 518.677506 
L 190.128835 596.44 
M 201.969451 596.44 
L 202.220327 592.628694 
L 205.144017 592.949495 
L 205.277463 596.44 
M 210.222728 596.44 
L 210.991397 570.40777 
L 213.915087 567.318903 
L 216.165797 596.44 
M 220.571562 596.44 
L 222.686158 586.243145 
L 225.609848 559.983614 
L 229.641156 596.44 
M 231.924437 596.44 
L 234.380918 509.797504 
L 238.491891 596.44 
M 243.138441 596.44 
L 243.151988 596.264332 
L 246.075678 500.915753 
L 248.999369 508.603919 
L 251.923059 571.126642 
L 254.846749 564.291076 
L 257.770439 595.241869 
L 260.694129 538.401109 
L 262.255108 596.44 
M 265.324769 596.44 
L 266.541509 560.323724 
L 269.465199 548.327325 
L 272.388889 577.047099 
L 274.607782 596.44 
M 278.909397 596.44 
L 281.15996 586.704565 
L 284.08365 545.366345 
L 287.00734 567.510173 
L 288.824712 596.44 
M 290.966323 596.44 
L 292.85472 564.317276 
L 295.77841 534.913261 
L 298.640868 596.44 
M 302.3009 596.44 
L 304.549481 564.281457 
L 307.473171 540.447399 
L 310.396861 541.305212 
L 313.320551 529.284642 
L 316.244241 567.088665 
L 319.167931 559.427993 
L 322.091621 564.090956 
L 325.015311 502.831008 
L 327.939001 561.031612 
L 330.862691 588.467832 
L 333.786382 535.302832 
L 336.710072 554.815506 
L 339.120214 596.44 
M 342.62722 596.44 
L 345.481142 521.374213 
L 348.404832 471.271705 
L 351.328522 534.648078 
L 354.252212 526.637467 
L 357.175902 544.487755 
L 360.099592 462.868374 
L 363.023283 582.773172 
L 365.946973 493.012599 
L 368.870663 480.144886 
L 371.794353 498.569509 
L 374.718043 554.103525 
L 377.641733 569.613061 
L 380.174265 596.44 
M 380.702876 596.44 
L 383.489113 512.448632 
L 386.412803 551.975696 
L 389.336494 579.799773 
L 392.260184 552.947403 
L 395.183874 571.537027 
L 398.107564 518.972912 
L 401.031254 490.212212 
L 403.954944 519.101358 
L 406.878634 528.527327 
L 409.802324 539.808981 
L 412.726014 544.449417 
L 415.649704 590.58863 
L 418.573395 546.295377 
L 422.045302 596.44 
M 426.152145 596.44 
L 427.344465 570.692786 
L 430.268155 573.405409 
L 433.191845 555.441786 
L 436.115535 511.080567 
L 439.039225 573.57027 
L 440.887906 596.44 
M 442.682334 596.44 
L 444.886605 555.693082 
L 447.810296 482.465664 
L 450.733986 494.825224 
L 453.657676 541.254456 
L 456.581366 551.89073 
L 457.813293 596.44 
M 461.008555 596.44 
L 462.428746 538.65188 
L 465.352436 571.278735 
L 468.276126 524.779333 
L 471.199816 544.198925 
L 474.123506 589.383642 
L 477.047197 571.551718 
L 479.970887 458.845229 
L 482.894577 572.303507 
L 485.559678 596.44 
M 488.882272 596.44 
L 491.665647 560.358074 
L 494.589337 543.399319 
L 496.50911 596.44 
M 498.359126 596.44 
L 500.436717 528.332279 
L 503.360408 456.297046 
L 507.882409 596.44 
M 516.165292 596.44 
L 517.978858 541.42194 
L 520.902548 581.477935 
L 523.826238 591.4675 
L 526.749928 560.055883 
L 529.094924 596.44 
M 534.019965 596.44 
L 535.520999 553.660889 
L 538.444689 534.905565 
L 541.368379 564.513339 
L 543.667579 596.44 
M 544.549878 596.44 
L 547.215759 506.770622 
L 550.139449 559.484451 
L 553.063139 460.206962 
L 555.986829 507.210879 
L 558.910519 525.311028 
L 561.83421 502.332649 
L 564.7579 500.619613 
L 567.68159 439.672175 
L 570.60528 521.355779 
L 573.52897 499.110859 
L 576.45266 469.69446 
L 579.37635 496.738031 
L 582.30004 470.599426 
L 585.22373 580.253428 
L 588.147421 506.028907 
L 591.071111 524.456014 
L 593.994801 574.886389 
L 596.918491 509.072965 
L 599.842181 573.072925 
L 602.765871 562.07216 
L 605.689561 578.110103 
L 608.536552 596.44 
M 616.193125 596.44 
L 617.384322 553.315217 
L 620.308012 543.090237 
L 623.231702 582.786394 
L 623.833179 596.44 
M 633.832935 596.44 
L 634.926462 589.459093 
L 637.850152 589.372588 
L 640.773842 538.219598 
L 643.697532 448.175549 
L 646.621223 517.985114 
L 649.544913 543.805681 
L 652.468603 588.415223 
L 655.392293 572.108808 
L 658.315983 487.06346 
L 661.239673 575.595607 
L 664.163363 506.587886 
L 667.087053 575.35435 
L 670.010743 588.05318 
L 672.934433 559.775414 
L 675.858124 569.044148 
L 678.781814 557.15059 
L 681.838327 596.44 
M 686.221719 596.44 
L 687.552884 566.347686 
L 688.45023 596.44 
M 700.450211 596.44 
L 702.171335 572.908939 
L 705.095025 574.402162 
L 708.018715 573.780394 
L 710.942405 576.520686 
L 713.866095 574.679063 
L 716.789785 575.614671 
L 719.713475 575.058525 
L 722.637165 571.67929 
L 725.560855 575.604772 
L 728.484545 572.238339 
L 728.484545 572.238339 
" style="fill:none;stroke:#c44e52;stroke-dasharray:4.5,1.875,2.25,1.875;stroke-dashoffset:0;stroke-width:1.5;"/>
   </g>
   <g id="line2d_5">
    <path clip-path="url(#pb32b5adc90)" d="M 134.975455 551.422734 
L 137.899145 555.134523 
L 140.822835 555.802324 
L 143.746525 556.298864 
L 146.670215 557.586055 
L 149.593905 560.302701 
L 152.517595 559.400499 
L 155.441285 560.989007 
L 158.364975 560.962947 
L 161.288665 563.072866 
L 164.212356 562.69963 
L 167.136046 562.879112 
L 170.059736 579.855706 
L 172.983426 585.785502 
L 174.962539 596.44 
M 185.186902 596.44 
L 187.601876 537.717181 
L 189.903973 596.44 
M 202.00463 596.44 
L 202.220327 592.345147 
L 205.144017 591.916293 
L 205.308029 596.44 
M 210.315555 596.44 
L 210.991397 573.554773 
L 213.915087 557.595395 
L 216.268503 596.44 
M 220.072243 596.44 
L 222.686158 585.002687 
L 225.609848 566.998207 
L 228.533538 589.150815 
L 229.347867 596.44 
M 231.998866 596.44 
L 234.380918 513.402989 
L 237.304608 568.719254 
L 238.529926 596.44 
M 243.162903 596.44 
L 246.075678 497.031163 
L 248.999369 498.918189 
L 251.923059 577.906765 
L 254.846749 565.665123 
L 257.526981 596.44 
M 257.896808 596.44 
L 260.694129 534.560488 
L 262.321487 596.44 
M 265.288015 596.44 
L 266.541509 559.445693 
L 269.465199 547.099425 
L 272.388889 574.648176 
L 274.893215 596.44 
M 279.948983 596.44 
L 281.15996 592.910037 
L 284.08365 551.876703 
L 287.00734 565.388047 
L 288.969339 596.44 
M 290.841105 596.44 
L 292.85472 562.763643 
L 295.77841 530.245296 
L 298.7021 592.908708 
L 299.755587 596.44 
M 302.066205 596.44 
L 304.549481 561.092687 
L 307.473171 537.98072 
L 310.396861 555.666987 
L 313.320551 533.569507 
L 316.244241 564.759073 
L 319.167931 558.669593 
L 322.091621 567.574781 
L 325.015311 513.199651 
L 327.939001 550.838779 
L 330.862691 542.137664 
L 333.786382 559.652949 
L 336.710072 541.035062 
L 339.633762 586.117322 
L 342.557452 589.192302 
L 345.481142 548.829007 
L 348.404832 487.335743 
L 351.328522 492.374426 
L 354.080375 596.44 
M 355.458193 596.44 
L 357.175902 587.184314 
L 360.099592 565.760688 
L 361.230311 596.44 
M 364.383163 596.44 
L 365.946973 540.496756 
L 368.870663 535.997394 
L 371.794353 515.276444 
L 375.448756 596.44 
M 382.345993 596.44 
L 383.489113 560.584989 
L 386.412803 544.664228 
L 389.336494 580.631211 
L 392.260184 566.746247 
L 395.183874 582.824907 
L 398.107564 502.446159 
L 401.031254 497.57517 
L 403.954944 526.210607 
L 406.878634 549.780496 
L 409.802324 556.958726 
L 412.726014 534.813253 
L 414.918858 596.44 
M 416.635438 596.44 
L 418.573395 556.059427 
L 421.161326 596.44 
M 426.702935 596.44 
L 427.344465 581.639927 
L 430.268155 576.935443 
L 433.191845 559.99152 
L 436.115535 512.946466 
L 439.039225 570.636084 
L 441.021565 596.44 
M 442.710368 596.44 
L 444.886605 560.763561 
L 447.810296 482.702093 
L 450.733986 489.140392 
L 453.657676 522.026029 
L 456.581366 539.974645 
L 458.411669 596.44 
M 460.433162 596.44 
L 462.428746 523.911971 
L 465.352436 561.032907 
L 468.276126 527.704284 
L 471.199816 549.148199 
L 474.123506 594.886088 
L 477.047197 551.093852 
L 479.970887 458.952372 
L 482.894577 576.090783 
L 485.566653 596.44 
M 485.894116 596.44 
L 488.741957 524.495052 
L 491.665647 578.751915 
L 494.589337 488.61384 
L 497.513027 548.64183 
L 500.436717 530.940102 
L 503.360408 520.715681 
L 506.284098 578.630814 
L 509.207788 512.445239 
L 512.131478 540.835746 
L 515.055168 484.104788 
L 517.978858 491.711451 
L 520.902548 516.538239 
L 523.826238 518.746767 
L 526.749928 563.356168 
L 529.673618 525.051932 
L 532.597309 484.722533 
L 535.520999 516.138034 
L 541.368379 440.174732 
L 544.292069 427.770887 
L 547.215759 462.202671 
L 550.139449 469.980176 
L 553.063139 419.887288 
L 555.986829 431.425834 
L 558.910519 424.861467 
L 561.83421 428.346132 
L 564.7579 450.900065 
L 567.68159 441.185371 
L 570.60528 491.981217 
L 573.52897 499.409622 
L 576.45266 485.810724 
L 579.37635 495.619688 
L 582.30004 453.942373 
L 585.22373 556.511542 
L 588.147421 495.960077 
L 591.071111 511.739554 
L 593.994801 554.843735 
L 596.918491 505.25858 
L 599.842181 553.105548 
L 602.765871 553.503549 
L 605.689561 574.636318 
L 608.613251 582.070705 
L 609.798989 596.44 
M 615.758773 596.44 
L 617.384322 537.076489 
L 620.308012 538.698018 
L 623.231702 574.10088 
L 624.258107 596.44 
M 633.294024 596.44 
L 634.926462 584.225223 
L 637.850152 580.906573 
L 640.773842 520.144529 
L 643.697532 440.141186 
L 646.621223 505.726331 
L 649.544913 531.877459 
L 652.468603 577.247114 
L 655.392293 558.863382 
L 658.315983 485.939695 
L 661.239673 561.599442 
L 664.163363 499.451108 
L 667.087053 567.074184 
L 670.010743 582.077701 
L 672.934433 559.853454 
L 675.858124 562.628691 
L 678.781814 540.252176 
L 681.705504 590.434788 
L 682.259311 596.44 
M 685.805088 596.44 
L 687.552884 558.243888 
L 688.771618 596.44 
M 700.071994 596.44 
L 702.171335 566.778603 
L 705.095025 571.237389 
L 708.018715 569.80657 
L 710.942405 572.188038 
L 713.866095 570.295834 
L 716.789785 571.170997 
L 719.713475 571.402564 
L 722.637165 566.656279 
L 725.560855 571.690729 
L 728.484545 567.984991 
L 728.484545 567.984991 
" style="fill:none;stroke:#8172b3;stroke-dasharray:7.5,1.5,1.5,1.5;stroke-dashoffset:0;stroke-width:1.5;"/>
   </g>
   <g id="line2d_6"/>
   <g id="line2d_7"/>
   <g id="line2d_8"/>
   <g id="line2d_9"/>
   <g id="line2d_10"/>
   <g id="patch_3">
    <path d="M 105.3 529.9416 
L 105.3 71.4528 
" style="fill:none;stroke:#262626;stroke-linecap:square;stroke-linejoin:miter;stroke-width:1.25;"/>
   </g>
   <g id="patch_4">
    <path d="M 758.16 529.9416 
L 758.16 71.4528 
" style="fill:none;stroke:#262626;stroke-linecap:square;stroke-linejoin:miter;stroke-width:1.25;"/>
   </g>
   <g id="patch_5">
    <path d="M 105.3 529.9416 
L 758.16 529.9416 
" style="fill:none;stroke:#262626;stroke-linecap:square;stroke-linejoin:miter;stroke-width:1.25;"/>
   </g>
   <g id="patch_6">
    <path d="M 105.3 71.4528 
L 758.16 71.4528 
" style="fill:none;stroke:#262626;stroke-linecap:square;stroke-linejoin:miter;stroke-width:1.25;"/>
   </g>
   <g id="text_16">
    <!-- Activations for &gt;1&lt; -->
    <g style="fill:#262626;" transform="translate(382.037813 65.4528)scale(0.12 -0.12)">
     <defs>
      <path d="M -9 0 
L 1750 4581 
L 2403 4581 
L 4278 0 
L 3588 0 
L 3053 1388 
L 1138 1388 
L 634 0 
L -9 0 
z
M 1313 1881 
L 2866 1881 
L 2388 3150 
Q 2169 3728 2063 4100 
Q 1975 3659 1816 3225 
L 1313 1881 
z
" id="ArialMT-41" transform="scale(0.015625)"/>
      <path d="M 2588 1216 
L 3141 1144 
Q 3050 572 2676 248 
Q 2303 -75 1759 -75 
Q 1078 -75 664 370 
Q 250 816 250 1647 
Q 250 2184 428 2587 
Q 606 2991 970 3192 
Q 1334 3394 1763 3394 
Q 2303 3394 2647 3120 
Q 2991 2847 3088 2344 
L 2541 2259 
Q 2463 2594 2264 2762 
Q 2066 2931 1784 2931 
Q 1359 2931 1093 2626 
Q 828 2322 828 1663 
Q 828 994 1084 691 
Q 1341 388 1753 388 
Q 2084 388 2306 591 
Q 2528 794 2588 1216 
z
" id="ArialMT-63" transform="scale(0.015625)"/>
      <path d="M 1650 503 
L 1731 6 
Q 1494 -44 1306 -44 
Q 1000 -44 831 53 
Q 663 150 594 308 
Q 525 466 525 972 
L 525 2881 
L 113 2881 
L 113 3319 
L 525 3319 
L 525 4141 
L 1084 4478 
L 1084 3319 
L 1650 3319 
L 1650 2881 
L 1084 2881 
L 1084 941 
Q 1084 700 1114 631 
Q 1144 563 1211 522 
Q 1278 481 1403 481 
Q 1497 481 1650 503 
z
" id="ArialMT-74" transform="scale(0.015625)"/>
      <path d="M 425 3934 
L 425 4581 
L 988 4581 
L 988 3934 
L 425 3934 
z
M 425 0 
L 425 3319 
L 988 3319 
L 988 0 
L 425 0 
z
" id="ArialMT-69" transform="scale(0.015625)"/>
      <path d="M 1344 0 
L 81 3319 
L 675 3319 
L 1388 1331 
Q 1503 1009 1600 663 
Q 1675 925 1809 1294 
L 2547 3319 
L 3125 3319 
L 1869 0 
L 1344 0 
z
" id="ArialMT-76" transform="scale(0.015625)"/>
      <path d="M 2588 409 
Q 2275 144 1986 34 
Q 1697 -75 1366 -75 
Q 819 -75 525 192 
Q 231 459 231 875 
Q 231 1119 342 1320 
Q 453 1522 633 1644 
Q 813 1766 1038 1828 
Q 1203 1872 1538 1913 
Q 2219 1994 2541 2106 
Q 2544 2222 2544 2253 
Q 2544 2597 2384 2738 
Q 2169 2928 1744 2928 
Q 1347 2928 1158 2789 
Q 969 2650 878 2297 
L 328 2372 
Q 403 2725 575 2942 
Q 747 3159 1072 3276 
Q 1397 3394 1825 3394 
Q 2250 3394 2515 3294 
Q 2781 3194 2906 3042 
Q 3031 2891 3081 2659 
Q 3109 2516 3109 2141 
L 3109 1391 
Q 3109 606 3145 398 
Q 3181 191 3288 0 
L 2700 0 
Q 2613 175 2588 409 
z
M 2541 1666 
Q 2234 1541 1622 1453 
Q 1275 1403 1131 1340 
Q 988 1278 909 1158 
Q 831 1038 831 891 
Q 831 666 1001 516 
Q 1172 366 1500 366 
Q 1825 366 2078 508 
Q 2331 650 2450 897 
Q 2541 1088 2541 1459 
L 2541 1666 
z
" id="ArialMT-61" transform="scale(0.015625)"/>
      <path d="M 213 1659 
Q 213 2581 725 3025 
Q 1153 3394 1769 3394 
Q 2453 3394 2887 2945 
Q 3322 2497 3322 1706 
Q 3322 1066 3130 698 
Q 2938 331 2570 128 
Q 2203 -75 1769 -75 
Q 1072 -75 642 372 
Q 213 819 213 1659 
z
M 791 1659 
Q 791 1022 1069 705 
Q 1347 388 1769 388 
Q 2188 388 2466 706 
Q 2744 1025 2744 1678 
Q 2744 2294 2464 2611 
Q 2184 2928 1769 2928 
Q 1347 2928 1069 2612 
Q 791 2297 791 1659 
z
" id="ArialMT-6f" transform="scale(0.015625)"/>
      <path d="M 422 0 
L 422 3319 
L 928 3319 
L 928 2847 
Q 1294 3394 1984 3394 
Q 2284 3394 2536 3286 
Q 2788 3178 2913 3003 
Q 3038 2828 3088 2588 
Q 3119 2431 3119 2041 
L 3119 0 
L 2556 0 
L 2556 2019 
Q 2556 2363 2490 2533 
Q 2425 2703 2258 2804 
Q 2091 2906 1866 2906 
Q 1506 2906 1245 2678 
Q 984 2450 984 1813 
L 984 0 
L 422 0 
z
" id="ArialMT-6e" transform="scale(0.015625)"/>
      <path d="M 197 991 
L 753 1078 
Q 800 744 1014 566 
Q 1228 388 1613 388 
Q 2000 388 2187 545 
Q 2375 703 2375 916 
Q 2375 1106 2209 1216 
Q 2094 1291 1634 1406 
Q 1016 1563 777 1677 
Q 538 1791 414 1992 
Q 291 2194 291 2438 
Q 291 2659 392 2848 
Q 494 3038 669 3163 
Q 800 3259 1026 3326 
Q 1253 3394 1513 3394 
Q 1903 3394 2198 3281 
Q 2494 3169 2634 2976 
Q 2775 2784 2828 2463 
L 2278 2388 
Q 2241 2644 2061 2787 
Q 1881 2931 1553 2931 
Q 1166 2931 1000 2803 
Q 834 2675 834 2503 
Q 834 2394 903 2306 
Q 972 2216 1119 2156 
Q 1203 2125 1616 2013 
Q 2213 1853 2448 1751 
Q 2684 1650 2818 1456 
Q 2953 1263 2953 975 
Q 2953 694 2789 445 
Q 2625 197 2315 61 
Q 2006 -75 1616 -75 
Q 969 -75 630 194 
Q 291 463 197 991 
z
" id="ArialMT-73" transform="scale(0.015625)"/>
      <path id="ArialMT-20" transform="scale(0.015625)"/>
      <path d="M 556 0 
L 556 2881 
L 59 2881 
L 59 3319 
L 556 3319 
L 556 3672 
Q 556 4006 616 4169 
Q 697 4388 901 4523 
Q 1106 4659 1475 4659 
Q 1713 4659 2000 4603 
L 1916 4113 
Q 1741 4144 1584 4144 
Q 1328 4144 1222 4034 
Q 1116 3925 1116 3625 
L 1116 3319 
L 1763 3319 
L 1763 2881 
L 1116 2881 
L 1116 0 
L 556 0 
z
" id="ArialMT-66" transform="scale(0.015625)"/>
      <path d="M 416 0 
L 416 3319 
L 922 3319 
L 922 2816 
Q 1116 3169 1280 3281 
Q 1444 3394 1641 3394 
Q 1925 3394 2219 3213 
L 2025 2691 
Q 1819 2813 1613 2813 
Q 1428 2813 1281 2702 
Q 1134 2591 1072 2394 
Q 978 2094 978 1738 
L 978 0 
L 416 0 
z
" id="ArialMT-72" transform="scale(0.015625)"/>
      <path d="M 3384 2003 
L 350 706 
L 350 1266 
L 2753 2263 
L 350 3250 
L 350 3809 
L 3384 2528 
L 3384 2003 
z
" id="ArialMT-3e" transform="scale(0.015625)"/>
      <path d="M 350 2003 
L 350 2528 
L 3384 3809 
L 3384 3250 
L 978 2263 
L 3384 1266 
L 3384 706 
L 350 2003 
z
" id="ArialMT-3c" transform="scale(0.015625)"/>
     </defs>
     <use xlink:href="#ArialMT-41"/>
     <use x="66.699219" xlink:href="#ArialMT-63"/>
     <use x="116.699219" xlink:href="#ArialMT-74"/>
     <use x="144.482422" xlink:href="#ArialMT-69"/>
     <use x="166.699219" xlink:href="#ArialMT-76"/>
     <use x="216.699219" xlink:href="#ArialMT-61"/>
     <use x="272.314453" xlink:href="#ArialMT-74"/>
     <use x="300.097656" xlink:href="#ArialMT-69"/>
     <use x="322.314453" xlink:href="#ArialMT-6f"/>
     <use x="377.929688" xlink:href="#ArialMT-6e"/>
     <use x="433.544922" xlink:href="#ArialMT-73"/>
     <use x="483.544922" xlink:href="#ArialMT-20"/>
     <use x="511.328125" xlink:href="#ArialMT-66"/>
     <use x="539.111328" xlink:href="#ArialMT-6f"/>
     <use x="594.726562" xlink:href="#ArialMT-72"/>
     <use x="628.027344" xlink:href="#ArialMT-20"/>
     <use x="655.810547" xlink:href="#ArialMT-3e"/>
     <use x="714.208984" xlink:href="#ArialMT-31"/>
     <use x="769.824219" xlink:href="#ArialMT-3c"/>
    </g>
   </g>
   <g id="legend_1">
    <g id="patch_7">
     <path d="M 640.044062 158.514363 
L 750.46 158.514363 
Q 752.66 158.514363 752.66 156.314363 
L 752.66 79.1528 
Q 752.66 76.9528 750.46 76.9528 
L 640.044062 76.9528 
Q 637.844062 76.9528 637.844062 79.1528 
L 637.844062 156.314363 
Q 637.844062 158.514363 640.044062 158.514363 
z
" style="fill:#ffffff;opacity:0.8;stroke:#cccccc;stroke-linejoin:miter;"/>
    </g>
    <g id="line2d_11">
     <path d="M 642.244062 85.376394 
L 664.244062 85.376394 
" style="fill:none;stroke:#4c72b0;stroke-linecap:round;stroke-width:1.5;"/>
    </g>
    <g id="line2d_12"/>
    <g id="text_17">
     <!-- regular -->
     <g style="fill:#262626;" transform="translate(673.044062 89.226394)scale(0.11 -0.11)">
      <defs>
       <path d="M 2694 1069 
L 3275 997 
Q 3138 488 2766 206 
Q 2394 -75 1816 -75 
Q 1088 -75 661 373 
Q 234 822 234 1631 
Q 234 2469 665 2931 
Q 1097 3394 1784 3394 
Q 2450 3394 2872 2941 
Q 3294 2488 3294 1666 
Q 3294 1616 3291 1516 
L 816 1516 
Q 847 969 1125 678 
Q 1403 388 1819 388 
Q 2128 388 2347 550 
Q 2566 713 2694 1069 
z
M 847 1978 
L 2700 1978 
Q 2663 2397 2488 2606 
Q 2219 2931 1791 2931 
Q 1403 2931 1139 2672 
Q 875 2413 847 1978 
z
" id="ArialMT-65" transform="scale(0.015625)"/>
       <path d="M 319 -275 
L 866 -356 
Q 900 -609 1056 -725 
Q 1266 -881 1628 -881 
Q 2019 -881 2231 -725 
Q 2444 -569 2519 -288 
Q 2563 -116 2559 434 
Q 2191 0 1641 0 
Q 956 0 581 494 
Q 206 988 206 1678 
Q 206 2153 378 2554 
Q 550 2956 876 3175 
Q 1203 3394 1644 3394 
Q 2231 3394 2613 2919 
L 2613 3319 
L 3131 3319 
L 3131 450 
Q 3131 -325 2973 -648 
Q 2816 -972 2473 -1159 
Q 2131 -1347 1631 -1347 
Q 1038 -1347 672 -1080 
Q 306 -813 319 -275 
z
M 784 1719 
Q 784 1066 1043 766 
Q 1303 466 1694 466 
Q 2081 466 2343 764 
Q 2606 1063 2606 1700 
Q 2606 2309 2336 2618 
Q 2066 2928 1684 2928 
Q 1309 2928 1046 2623 
Q 784 2319 784 1719 
z
" id="ArialMT-67" transform="scale(0.015625)"/>
       <path d="M 2597 0 
L 2597 488 
Q 2209 -75 1544 -75 
Q 1250 -75 995 37 
Q 741 150 617 320 
Q 494 491 444 738 
Q 409 903 409 1263 
L 409 3319 
L 972 3319 
L 972 1478 
Q 972 1038 1006 884 
Q 1059 663 1231 536 
Q 1403 409 1656 409 
Q 1909 409 2131 539 
Q 2353 669 2445 892 
Q 2538 1116 2538 1541 
L 2538 3319 
L 3100 3319 
L 3100 0 
L 2597 0 
z
" id="ArialMT-75" transform="scale(0.015625)"/>
       <path d="M 409 0 
L 409 4581 
L 972 4581 
L 972 0 
L 409 0 
z
" id="ArialMT-6c" transform="scale(0.015625)"/>
      </defs>
      <use xlink:href="#ArialMT-72"/>
      <use x="33.300781" xlink:href="#ArialMT-65"/>
      <use x="88.916016" xlink:href="#ArialMT-67"/>
      <use x="144.53125" xlink:href="#ArialMT-75"/>
      <use x="200.146484" xlink:href="#ArialMT-6c"/>
      <use x="222.363281" xlink:href="#ArialMT-61"/>
      <use x="277.978516" xlink:href="#ArialMT-72"/>
     </g>
    </g>
    <g id="line2d_13">
     <path d="M 642.244062 101.0978 
L 664.244062 101.0978 
" style="fill:none;stroke:#dd8452;stroke-dasharray:6,2.25;stroke-dashoffset:0;stroke-width:1.5;"/>
    </g>
    <g id="line2d_14"/>
    <g id="text_18">
     <!-- splitted_3s -->
     <g style="fill:#262626;" transform="translate(673.044062 104.9478)scale(0.11 -0.11)">
      <defs>
       <path d="M 422 -1272 
L 422 3319 
L 934 3319 
L 934 2888 
Q 1116 3141 1344 3267 
Q 1572 3394 1897 3394 
Q 2322 3394 2647 3175 
Q 2972 2956 3137 2557 
Q 3303 2159 3303 1684 
Q 3303 1175 3120 767 
Q 2938 359 2589 142 
Q 2241 -75 1856 -75 
Q 1575 -75 1351 44 
Q 1128 163 984 344 
L 984 -1272 
L 422 -1272 
z
M 931 1641 
Q 931 1000 1190 694 
Q 1450 388 1819 388 
Q 2194 388 2461 705 
Q 2728 1022 2728 1688 
Q 2728 2322 2467 2637 
Q 2206 2953 1844 2953 
Q 1484 2953 1207 2617 
Q 931 2281 931 1641 
z
" id="ArialMT-70" transform="scale(0.015625)"/>
       <path d="M 2575 0 
L 2575 419 
Q 2259 -75 1647 -75 
Q 1250 -75 917 144 
Q 584 363 401 755 
Q 219 1147 219 1656 
Q 219 2153 384 2558 
Q 550 2963 881 3178 
Q 1213 3394 1622 3394 
Q 1922 3394 2156 3267 
Q 2391 3141 2538 2938 
L 2538 4581 
L 3097 4581 
L 3097 0 
L 2575 0 
z
M 797 1656 
Q 797 1019 1065 703 
Q 1334 388 1700 388 
Q 2069 388 2326 689 
Q 2584 991 2584 1609 
Q 2584 2291 2321 2609 
Q 2059 2928 1675 2928 
Q 1300 2928 1048 2622 
Q 797 2316 797 1656 
z
" id="ArialMT-64" transform="scale(0.015625)"/>
       <path d="M -97 -1272 
L -97 -866 
L 3631 -866 
L 3631 -1272 
L -97 -1272 
z
" id="ArialMT-5f" transform="scale(0.015625)"/>
       <path d="M 269 1209 
L 831 1284 
Q 928 806 1161 595 
Q 1394 384 1728 384 
Q 2125 384 2398 659 
Q 2672 934 2672 1341 
Q 2672 1728 2419 1979 
Q 2166 2231 1775 2231 
Q 1616 2231 1378 2169 
L 1441 2663 
Q 1497 2656 1531 2656 
Q 1891 2656 2178 2843 
Q 2466 3031 2466 3422 
Q 2466 3731 2256 3934 
Q 2047 4138 1716 4138 
Q 1388 4138 1169 3931 
Q 950 3725 888 3313 
L 325 3413 
Q 428 3978 793 4289 
Q 1159 4600 1703 4600 
Q 2078 4600 2393 4439 
Q 2709 4278 2876 4000 
Q 3044 3722 3044 3409 
Q 3044 3113 2884 2869 
Q 2725 2625 2413 2481 
Q 2819 2388 3044 2092 
Q 3269 1797 3269 1353 
Q 3269 753 2831 336 
Q 2394 -81 1725 -81 
Q 1122 -81 723 278 
Q 325 638 269 1209 
z
" id="ArialMT-33" transform="scale(0.015625)"/>
      </defs>
      <use xlink:href="#ArialMT-73"/>
      <use x="50" xlink:href="#ArialMT-70"/>
      <use x="105.615234" xlink:href="#ArialMT-6c"/>
      <use x="127.832031" xlink:href="#ArialMT-69"/>
      <use x="150.048828" xlink:href="#ArialMT-74"/>
      <use x="177.832031" xlink:href="#ArialMT-74"/>
      <use x="205.615234" xlink:href="#ArialMT-65"/>
      <use x="261.230469" xlink:href="#ArialMT-64"/>
      <use x="316.845703" xlink:href="#ArialMT-5f"/>
      <use x="372.460938" xlink:href="#ArialMT-33"/>
      <use x="428.076172" xlink:href="#ArialMT-73"/>
     </g>
    </g>
    <g id="line2d_15">
     <path d="M 642.244062 116.6903 
L 664.244062 116.6903 
" style="fill:none;stroke:#55a868;stroke-dasharray:1.5,1.5;stroke-dashoffset:0;stroke-width:1.5;"/>
    </g>
    <g id="line2d_16"/>
    <g id="text_19">
     <!-- splitted_1s -->
     <g style="fill:#262626;" transform="translate(673.044062 120.5403)scale(0.11 -0.11)">
      <use xlink:href="#ArialMT-73"/>
      <use x="50" xlink:href="#ArialMT-70"/>
      <use x="105.615234" xlink:href="#ArialMT-6c"/>
      <use x="127.832031" xlink:href="#ArialMT-69"/>
      <use x="150.048828" xlink:href="#ArialMT-74"/>
      <use x="177.832031" xlink:href="#ArialMT-74"/>
      <use x="205.615234" xlink:href="#ArialMT-65"/>
      <use x="261.230469" xlink:href="#ArialMT-64"/>
      <use x="316.845703" xlink:href="#ArialMT-5f"/>
      <use x="372.460938" xlink:href="#ArialMT-31"/>
      <use x="428.076172" xlink:href="#ArialMT-73"/>
     </g>
    </g>
    <g id="line2d_17">
     <path d="M 642.244062 132.384206 
L 664.244062 132.384206 
" style="fill:none;stroke:#c44e52;stroke-dasharray:4.5,1.875,2.25,1.875;stroke-dashoffset:0;stroke-width:1.5;"/>
    </g>
    <g id="line2d_18"/>
    <g id="text_20">
     <!-- overlap_1f_3s -->
     <g style="fill:#262626;" transform="translate(673.044062 136.234206)scale(0.11 -0.11)">
      <use xlink:href="#ArialMT-6f"/>
      <use x="55.615234" xlink:href="#ArialMT-76"/>
      <use x="105.615234" xlink:href="#ArialMT-65"/>
      <use x="161.230469" xlink:href="#ArialMT-72"/>
      <use x="194.53125" xlink:href="#ArialMT-6c"/>
      <use x="216.748047" xlink:href="#ArialMT-61"/>
      <use x="272.363281" xlink:href="#ArialMT-70"/>
      <use x="327.978516" xlink:href="#ArialMT-5f"/>
      <use x="383.59375" xlink:href="#ArialMT-31"/>
      <use x="439.208984" xlink:href="#ArialMT-66"/>
      <use x="466.992188" xlink:href="#ArialMT-5f"/>
      <use x="522.607422" xlink:href="#ArialMT-33"/>
      <use x="578.222656" xlink:href="#ArialMT-73"/>
     </g>
    </g>
    <g id="line2d_19">
     <path d="M 642.244062 148.078113 
L 664.244062 148.078113 
" style="fill:none;stroke:#8172b3;stroke-dasharray:7.5,1.5,1.5,1.5;stroke-dashoffset:0;stroke-width:1.5;"/>
    </g>
    <g id="line2d_20"/>
    <g id="text_21">
     <!-- overlap_10f_3s -->
     <g style="fill:#262626;" transform="translate(673.044062 151.928112)scale(0.11 -0.11)">
      <use xlink:href="#ArialMT-6f"/>
      <use x="55.615234" xlink:href="#ArialMT-76"/>
      <use x="105.615234" xlink:href="#ArialMT-65"/>
      <use x="161.230469" xlink:href="#ArialMT-72"/>
      <use x="194.53125" xlink:href="#ArialMT-6c"/>
      <use x="216.748047" xlink:href="#ArialMT-61"/>
      <use x="272.363281" xlink:href="#ArialMT-70"/>
      <use x="327.978516" xlink:href="#ArialMT-5f"/>
      <use x="383.59375" xlink:href="#ArialMT-31"/>
      <use x="439.208984" xlink:href="#ArialMT-30"/>
      <use x="494.824219" xlink:href="#ArialMT-66"/>
      <use x="522.607422" xlink:href="#ArialMT-5f"/>
      <use x="578.222656" xlink:href="#ArialMT-33"/>
      <use x="633.837891" xlink:href="#ArialMT-73"/>
     </g>
    </g>
   </g>
  </g>
 </g>
 <defs>
  <clipPath id="pb32b5adc90">
   <rect height="458.4888" width="652.86" x="105.3" y="71.4528"/>
  </clipPath>
 </defs>
</svg>
