<?xml version="1.0" encoding="utf-8" standalone="no"?>
<!DOCTYPE svg PUBLIC "-//W3C//DTD SVG 1.1//EN"
  "http://www.w3.org/Graphics/SVG/1.1/DTD/svg11.dtd">
<svg height="595.44pt" version="1.1" viewBox="0 0 842.4 595.44" width="842.4pt" xmlns="http://www.w3.org/2000/svg" xmlns:xlink="http://www.w3.org/1999/xlink">
 <metadata>
  <rdf:RDF xmlns:cc="http://creativecommons.org/ns#" xmlns:dc="http://purl.org/dc/elements/1.1/" xmlns:rdf="http://www.w3.org/1999/02/22-rdf-syntax-ns#">
   <cc:Work>
    <dc:type rdf:resource="http://purl.org/dc/dcmitype/StillImage"/>
    <dc:date>2021-06-01T00:54:02.620706</dc:date>
    <dc:format>image/svg+xml</dc:format>
    <dc:creator>
     <cc:Agent>
      <dc:title>Matplotlib v3.4.1, https://matplotlib.org/</dc:title>
     </cc:Agent>
    </dc:creator>
   </cc:Work>
  </rdf:RDF>
 </metadata>
 <defs>
  <style type="text/css">*{stroke-linecap:butt;stroke-linejoin:round;}</style>
 </defs>
 <g id="figure_1">
  <g id="patch_1">
   <path d="M 0 595.44 
L 842.4 595.44 
L 842.4 0 
L 0 0 
z
" style="fill:#ffffff;"/>
  </g>
  <g id="axes_1">
   <g id="patch_2">
    <path d="M 105.3 529.9416 
L 758.16 529.9416 
L 758.16 71.4528 
L 105.3 71.4528 
z
" style="fill:#ffffff;"/>
   </g>
   <g id="matplotlib.axis_1">
    <g id="xtick_1">
     <g id="text_1">
      <!-- 0 -->
      <g style="fill:#262626;" transform="translate(131.916939 547.315194)scale(0.11 -0.11)">
       <defs>
        <path d="M 266 2259 
Q 266 3072 433 3567 
Q 600 4063 929 4331 
Q 1259 4600 1759 4600 
Q 2128 4600 2406 4451 
Q 2684 4303 2865 4023 
Q 3047 3744 3150 3342 
Q 3253 2941 3253 2259 
Q 3253 1453 3087 958 
Q 2922 463 2592 192 
Q 2263 -78 1759 -78 
Q 1097 -78 719 397 
Q 266 969 266 2259 
z
M 844 2259 
Q 844 1131 1108 757 
Q 1372 384 1759 384 
Q 2147 384 2411 759 
Q 2675 1134 2675 2259 
Q 2675 3391 2411 3762 
Q 2147 4134 1753 4134 
Q 1366 4134 1134 3806 
Q 844 3388 844 2259 
z
" id="ArialMT-30" transform="scale(0.015625)"/>
       </defs>
       <use xlink:href="#ArialMT-30"/>
      </g>
     </g>
    </g>
    <g id="xtick_2">
     <g id="text_2">
      <!-- 25 -->
      <g style="fill:#262626;" transform="translate(201.950676 547.315194)scale(0.11 -0.11)">
       <defs>
        <path d="M 3222 541 
L 3222 0 
L 194 0 
Q 188 203 259 391 
Q 375 700 629 1000 
Q 884 1300 1366 1694 
Q 2113 2306 2375 2664 
Q 2638 3022 2638 3341 
Q 2638 3675 2398 3904 
Q 2159 4134 1775 4134 
Q 1369 4134 1125 3890 
Q 881 3647 878 3216 
L 300 3275 
Q 359 3922 746 4261 
Q 1134 4600 1788 4600 
Q 2447 4600 2831 4234 
Q 3216 3869 3216 3328 
Q 3216 3053 3103 2787 
Q 2991 2522 2730 2228 
Q 2469 1934 1863 1422 
Q 1356 997 1212 845 
Q 1069 694 975 541 
L 3222 541 
z
" id="ArialMT-32" transform="scale(0.015625)"/>
        <path d="M 266 1200 
L 856 1250 
Q 922 819 1161 601 
Q 1400 384 1738 384 
Q 2144 384 2425 690 
Q 2706 997 2706 1503 
Q 2706 1984 2436 2262 
Q 2166 2541 1728 2541 
Q 1456 2541 1237 2417 
Q 1019 2294 894 2097 
L 366 2166 
L 809 4519 
L 3088 4519 
L 3088 3981 
L 1259 3981 
L 1013 2750 
Q 1425 3038 1878 3038 
Q 2478 3038 2890 2622 
Q 3303 2206 3303 1553 
Q 3303 931 2941 478 
Q 2500 -78 1738 -78 
Q 1113 -78 717 272 
Q 322 622 266 1200 
z
" id="ArialMT-35" transform="scale(0.015625)"/>
       </defs>
       <use xlink:href="#ArialMT-32"/>
       <use x="55.615234" xlink:href="#ArialMT-35"/>
      </g>
     </g>
    </g>
    <g id="xtick_3">
     <g id="text_3">
      <!-- 50 -->
      <g style="fill:#262626;" transform="translate(275.042928 547.315194)scale(0.11 -0.11)">
       <use xlink:href="#ArialMT-35"/>
       <use x="55.615234" xlink:href="#ArialMT-30"/>
      </g>
     </g>
    </g>
    <g id="xtick_4">
     <g id="text_4">
      <!-- 75 -->
      <g style="fill:#262626;" transform="translate(348.135181 547.315194)scale(0.11 -0.11)">
       <defs>
        <path d="M 303 3981 
L 303 4522 
L 3269 4522 
L 3269 4084 
Q 2831 3619 2401 2847 
Q 1972 2075 1738 1259 
Q 1569 684 1522 0 
L 944 0 
Q 953 541 1156 1306 
Q 1359 2072 1739 2783 
Q 2119 3494 2547 3981 
L 303 3981 
z
" id="ArialMT-37" transform="scale(0.015625)"/>
       </defs>
       <use xlink:href="#ArialMT-37"/>
       <use x="55.615234" xlink:href="#ArialMT-35"/>
      </g>
     </g>
    </g>
    <g id="xtick_5">
     <g id="text_5">
      <!-- 100 -->
      <g style="fill:#262626;" transform="translate(418.168918 547.315194)scale(0.11 -0.11)">
       <defs>
        <path d="M 2384 0 
L 1822 0 
L 1822 3584 
Q 1619 3391 1289 3197 
Q 959 3003 697 2906 
L 697 3450 
Q 1169 3672 1522 3987 
Q 1875 4303 2022 4600 
L 2384 4600 
L 2384 0 
z
" id="ArialMT-31" transform="scale(0.015625)"/>
       </defs>
       <use xlink:href="#ArialMT-31"/>
       <use x="55.615234" xlink:href="#ArialMT-30"/>
       <use x="111.230469" xlink:href="#ArialMT-30"/>
      </g>
     </g>
    </g>
    <g id="xtick_6">
     <g id="text_6">
      <!-- 125 -->
      <g style="fill:#262626;" transform="translate(491.261171 547.315194)scale(0.11 -0.11)">
       <use xlink:href="#ArialMT-31"/>
       <use x="55.615234" xlink:href="#ArialMT-32"/>
       <use x="111.230469" xlink:href="#ArialMT-35"/>
      </g>
     </g>
    </g>
    <g id="xtick_7">
     <g id="text_7">
      <!-- 150 -->
      <g style="fill:#262626;" transform="translate(564.353423 547.315194)scale(0.11 -0.11)">
       <use xlink:href="#ArialMT-31"/>
       <use x="55.615234" xlink:href="#ArialMT-35"/>
       <use x="111.230469" xlink:href="#ArialMT-30"/>
      </g>
     </g>
    </g>
    <g id="xtick_8">
     <g id="text_8">
      <!-- 175 -->
      <g style="fill:#262626;" transform="translate(637.445676 547.315194)scale(0.11 -0.11)">
       <use xlink:href="#ArialMT-31"/>
       <use x="55.615234" xlink:href="#ArialMT-37"/>
       <use x="111.230469" xlink:href="#ArialMT-35"/>
      </g>
     </g>
    </g>
    <g id="xtick_9">
     <g id="text_9">
      <!-- 200 -->
      <g style="fill:#262626;" transform="translate(710.537928 547.315194)scale(0.11 -0.11)">
       <use xlink:href="#ArialMT-32"/>
       <use x="55.615234" xlink:href="#ArialMT-30"/>
       <use x="111.230469" xlink:href="#ArialMT-30"/>
      </g>
     </g>
    </g>
   </g>
   <g id="matplotlib.axis_2">
    <g id="ytick_1">
     <g id="text_10">
      <!-- −25 -->
      <g style="fill:#262626;" transform="translate(77.14125 533.878397)scale(0.11 -0.11)">
       <defs>
        <path d="M 3381 1997 
L 356 1997 
L 356 2522 
L 3381 2522 
L 3381 1997 
z
" id="ArialMT-2212" transform="scale(0.015625)"/>
       </defs>
       <use xlink:href="#ArialMT-2212"/>
       <use x="58.398438" xlink:href="#ArialMT-32"/>
       <use x="114.013672" xlink:href="#ArialMT-35"/>
      </g>
     </g>
    </g>
    <g id="ytick_2">
     <g id="text_11">
      <!-- −20 -->
      <g style="fill:#262626;" transform="translate(77.14125 442.180637)scale(0.11 -0.11)">
       <use xlink:href="#ArialMT-2212"/>
       <use x="58.398438" xlink:href="#ArialMT-32"/>
       <use x="114.013672" xlink:href="#ArialMT-30"/>
      </g>
     </g>
    </g>
    <g id="ytick_3">
     <g id="text_12">
      <!-- −15 -->
      <g style="fill:#262626;" transform="translate(77.14125 350.482877)scale(0.11 -0.11)">
       <use xlink:href="#ArialMT-2212"/>
       <use x="58.398438" xlink:href="#ArialMT-31"/>
       <use x="114.013672" xlink:href="#ArialMT-35"/>
      </g>
     </g>
    </g>
    <g id="ytick_4">
     <g id="text_13">
      <!-- −10 -->
      <g style="fill:#262626;" transform="translate(77.14125 258.785117)scale(0.11 -0.11)">
       <use xlink:href="#ArialMT-2212"/>
       <use x="58.398438" xlink:href="#ArialMT-31"/>
       <use x="114.013672" xlink:href="#ArialMT-30"/>
      </g>
     </g>
    </g>
    <g id="ytick_5">
     <g id="text_14">
      <!-- −5 -->
      <g style="fill:#262626;" transform="translate(83.258281 167.087357)scale(0.11 -0.11)">
       <use xlink:href="#ArialMT-2212"/>
       <use x="58.398438" xlink:href="#ArialMT-35"/>
      </g>
     </g>
    </g>
    <g id="ytick_6">
     <g id="text_15">
      <!-- 0 -->
      <g style="fill:#262626;" transform="translate(89.682969 75.389597)scale(0.11 -0.11)">
       <use xlink:href="#ArialMT-30"/>
      </g>
     </g>
    </g>
   </g>
   <g id="line2d_1">
    <path clip-path="url(#p9a64d170d8)" d="M 134.975455 71.453661 
L 181.754496 71.453065 
L 184.678186 156.190842 
L 187.601876 206.492508 
L 190.525567 302.235477 
L 193.449257 258.102799 
L 196.372947 221.541892 
L 199.296637 279.339546 
L 202.220327 207.180956 
L 205.144017 208.29184 
L 208.067707 305.77513 
L 210.991397 281.238973 
L 213.915087 265.698426 
L 216.838777 269.895597 
L 219.762468 330.732935 
L 222.686158 314.795227 
L 225.609848 305.112383 
L 228.533538 303.814995 
L 231.457228 354.050322 
L 234.380918 289.845222 
L 237.304608 306.170368 
L 240.228298 296.998668 
L 243.151988 315.870964 
L 246.075678 310.76589 
L 248.999369 241.006976 
L 251.923059 239.90642 
L 254.846749 263.222618 
L 257.770439 290.979114 
L 260.694129 222.236768 
L 263.617819 272.038292 
L 266.541509 165.528407 
L 269.465199 176.225695 
L 272.388889 228.074375 
L 275.312579 243.796747 
L 278.23627 251.247242 
L 281.15996 213.405624 
L 284.08365 125.025841 
L 287.00734 123.55588 
L 289.93103 232.72499 
L 292.85472 199.098269 
L 295.77841 227.154403 
L 298.7021 274.444158 
L 301.62579 132.738004 
L 304.549481 211.801183 
L 307.473171 275.413434 
L 310.396861 320.655623 
L 313.320551 179.812816 
L 316.244241 254.443882 
L 319.167931 309.212572 
L 322.091621 331.196419 
L 325.015311 258.159782 
L 327.939001 300.891741 
L 330.862691 299.233868 
L 333.786382 259.585318 
L 336.710072 285.509479 
L 339.633762 344.130297 
L 342.557452 314.501868 
L 345.481142 301.009011 
L 348.404832 309.387454 
L 351.328522 274.065588 
L 354.252212 252.973396 
L 357.175902 280.592614 
L 360.099592 237.001215 
L 363.023283 291.791767 
L 365.946973 206.216849 
L 368.870663 303.117863 
L 371.794353 324.924712 
L 374.718043 292.288867 
L 377.641733 233.351148 
L 380.565423 285.399852 
L 383.489113 320.290747 
L 386.412803 250.947062 
L 389.336494 263.444355 
L 392.260184 315.08675 
L 395.183874 286.069087 
L 398.107564 218.965884 
L 401.031254 190.410735 
L 403.954944 197.255964 
L 406.878634 187.456418 
L 409.802324 174.408838 
L 412.726014 172.393278 
L 415.649704 229.851722 
L 418.573395 188.254074 
L 421.497085 235.419948 
L 424.420775 278.823837 
L 427.344465 92.34523 
L 430.268155 232.663793 
L 433.191845 306.758101 
L 436.115535 174.258521 
L 439.039225 292.806745 
L 441.962915 293.737333 
L 444.886605 282.167969 
L 447.810296 292.604893 
L 450.733986 299.278257 
L 453.657676 311.769271 
L 456.581366 218.642319 
L 459.505056 71.465961 
L 462.428746 208.827785 
L 465.352436 290.087895 
L 468.276126 274.616277 
L 471.199816 180.964276 
L 474.123506 71.619563 
L 477.047197 220.647981 
L 479.970887 241.661135 
L 482.894577 193.676338 
L 485.818267 174.015148 
L 488.741957 279.215157 
L 491.665647 312.68188 
L 494.589337 157.084946 
L 497.513027 71.461576 
L 500.436717 181.206547 
L 503.360408 205.589973 
L 506.284098 210.886248 
L 509.207788 225.959122 
L 512.131478 266.393268 
L 515.055168 288.433712 
L 517.978858 210.151635 
L 520.902548 293.335134 
L 523.826238 315.894348 
L 526.749928 305.378633 
L 529.673618 319.716359 
L 532.597309 263.449672 
L 535.520999 241.435812 
L 538.444689 205.055891 
L 541.368379 362.008953 
L 544.292069 259.758766 
L 547.215759 191.479721 
L 550.139449 256.075363 
L 553.063139 153.170002 
L 555.986829 278.036491 
L 558.910519 266.475943 
L 561.83421 268.598367 
L 564.7579 264.762976 
L 567.68159 190.456454 
L 570.60528 222.117539 
L 573.52897 233.294061 
L 576.45266 279.380402 
L 579.37635 304.693953 
L 582.30004 292.333082 
L 585.22373 218.057665 
L 588.147421 216.224437 
L 591.071111 227.91212 
L 593.994801 280.135933 
L 596.918491 232.258935 
L 599.842181 196.717527 
L 602.765871 292.351306 
L 605.689561 183.427807 
L 608.613251 281.972502 
L 611.536941 314.666868 
L 614.460631 297.130875 
L 617.384322 250.017488 
L 620.308012 322.048068 
L 623.231702 332.878673 
L 626.155392 358.749559 
L 629.079082 304.395347 
L 632.002772 215.248384 
L 634.926462 197.678854 
L 637.850152 251.614426 
L 640.773842 212.420179 
L 643.697532 251.071363 
L 646.621223 225.883093 
L 649.544913 280.16432 
L 652.468603 377.963295 
L 655.392293 335.705471 
L 658.315983 209.080961 
L 661.239673 286.603283 
L 664.163363 244.19634 
L 667.087053 307.918332 
L 670.010743 240.866339 
L 672.934433 225.824169 
L 675.858124 326.485219 
L 678.781814 301.401503 
L 681.705504 331.179699 
L 684.629194 348.498397 
L 687.552884 288.515356 
L 690.476574 268.823777 
L 693.400264 73.034549 
L 696.323954 71.453215 
L 728.484545 71.453003 
L 728.484545 71.453003 
" style="fill:none;stroke:#4c72b0;stroke-linecap:round;stroke-width:1.5;"/>
   </g>
   <g id="line2d_2">
    <path clip-path="url(#p9a64d170d8)" d="M 134.975455 71.453987 
L 181.754496 71.454317 
L 184.678186 172.997469 
L 187.601876 180.552056 
L 190.525567 290.143898 
L 193.449257 240.071753 
L 196.372947 211.965169 
L 199.296637 258.296203 
L 202.220327 185.439835 
L 205.144017 221.702153 
L 208.067707 299.330797 
L 210.991397 296.038382 
L 213.915087 238.945679 
L 216.838777 267.968186 
L 219.762468 320.27303 
L 222.686158 310.911546 
L 225.609848 284.913019 
L 228.533538 280.338012 
L 231.457228 321.465933 
L 234.380918 262.653215 
L 237.304608 283.8391 
L 240.228298 274.130738 
L 243.151988 296.442855 
L 246.075678 295.495896 
L 248.999369 259.463256 
L 251.923059 241.029853 
L 254.846749 261.647087 
L 257.770439 285.087848 
L 260.694129 216.50446 
L 263.617819 265.126977 
L 266.541509 162.85574 
L 269.465199 168.745983 
L 272.388889 233.411366 
L 275.312579 240.11588 
L 278.23627 244.283457 
L 281.15996 231.392867 
L 284.08365 129.118032 
L 287.00734 113.45228 
L 289.93103 215.025011 
L 292.85472 187.259123 
L 295.77841 148.500253 
L 298.7021 221.913606 
L 301.62579 79.870168 
L 304.549481 191.251486 
L 307.473171 271.712384 
L 310.396861 298.749448 
L 313.320551 178.643061 
L 316.244241 258.496341 
L 319.167931 311.127687 
L 322.091621 332.337674 
L 325.015311 279.871887 
L 327.939001 298.736838 
L 330.862691 289.992558 
L 333.786382 238.76562 
L 336.710072 313.436222 
L 339.633762 358.951673 
L 342.557452 303.648298 
L 345.481142 254.252822 
L 348.404832 331.156927 
L 351.328522 303.60202 
L 354.252212 102.661543 
L 357.175902 163.977232 
L 360.099592 134.576767 
L 363.023283 166.361926 
L 365.946973 99.894137 
L 368.870663 130.122708 
L 371.794353 221.128657 
L 374.718043 207.881001 
L 377.641733 181.688264 
L 380.565423 278.642518 
L 383.489113 283.883822 
L 386.412803 284.077243 
L 389.336494 271.626946 
L 392.260184 330.746875 
L 395.183874 266.89787 
L 398.107564 169.292841 
L 401.031254 156.128831 
L 403.954944 190.030512 
L 406.878634 133.500968 
L 409.802324 124.767558 
L 412.726014 152.888221 
L 415.649704 199.62086 
L 418.573395 150.155021 
L 421.497085 221.631161 
L 424.420775 247.27529 
L 427.344465 78.592257 
L 430.268155 227.400784 
L 433.191845 291.81704 
L 436.115535 170.07013 
L 439.039225 313.111538 
L 441.962915 297.090998 
L 444.886605 231.744993 
L 447.810296 265.267806 
L 450.733986 325.34984 
L 453.657676 307.963719 
L 456.581366 213.342984 
L 459.505056 71.47276 
L 462.428746 190.996657 
L 465.352436 276.58388 
L 468.276126 257.705427 
L 471.199816 196.156589 
L 474.123506 73.026719 
L 477.047197 217.500339 
L 482.894577 202.384029 
L 485.818267 170.03487 
L 488.741957 276.598694 
L 491.665647 317.648521 
L 494.589337 116.9954 
L 497.513027 71.468272 
L 500.436717 183.394498 
L 503.360408 205.737265 
L 506.284098 218.743779 
L 509.207788 214.437541 
L 515.055168 281.011463 
L 517.978858 199.424868 
L 520.902548 287.775828 
L 523.826238 326.468533 
L 526.749928 314.734956 
L 529.673618 328.978955 
L 532.597309 275.236139 
L 535.520999 249.278992 
L 538.444689 202.062695 
L 541.368379 314.093442 
L 544.292069 271.865666 
L 547.215759 169.018634 
L 550.139449 224.78119 
L 553.063139 167.244146 
L 555.986829 168.921206 
L 558.910519 130.173031 
L 561.83421 100.838757 
L 564.7579 80.006832 
L 567.68159 75.44522 
L 570.60528 226.713516 
L 573.52897 146.923227 
L 576.45266 223.53232 
L 579.37635 243.874962 
L 582.30004 196.384247 
L 585.22373 214.158716 
L 588.147421 186.378241 
L 591.071111 238.124158 
L 593.994801 275.618522 
L 596.918491 214.012622 
L 599.842181 232.369437 
L 602.765871 278.81726 
L 605.689561 197.465686 
L 608.613251 316.766713 
L 611.536941 313.114284 
L 614.460631 291.395707 
L 617.384322 299.599985 
L 620.308012 329.64513 
L 623.231702 323.982545 
L 626.155392 370.31532 
L 629.079082 279.695973 
L 632.002772 235.096804 
L 634.926462 207.961 
L 637.850152 215.241642 
L 640.773842 216.727317 
L 643.697532 242.539883 
L 646.621223 211.163823 
L 649.544913 281.69742 
L 652.468603 364.665731 
L 655.392293 330.94696 
L 658.315983 190.020936 
L 661.239673 284.89733 
L 664.163363 236.706352 
L 667.087053 309.615523 
L 670.010743 241.402074 
L 672.934433 222.062236 
L 675.858124 327.260409 
L 678.781814 306.568265 
L 681.705504 323.024953 
L 684.629194 348.60178 
L 687.552884 263.491316 
L 690.476574 237.898328 
L 693.400264 71.721367 
L 696.323954 71.453091 
L 728.484545 71.453228 
L 728.484545 71.453228 
" style="fill:none;stroke:#dd8452;stroke-dasharray:6,2.25;stroke-dashoffset:0;stroke-width:1.5;"/>
   </g>
   <g id="line2d_3">
    <path clip-path="url(#p9a64d170d8)" d="M 134.975455 71.453891 
L 181.754496 71.45426 
L 184.678186 124.213642 
L 187.601876 182.2626 
L 190.525567 202.549851 
L 193.449257 265.880147 
L 196.372947 196.396507 
L 199.296637 190.028159 
L 202.220327 137.138915 
L 205.144017 147.655479 
L 208.067707 116.616686 
L 210.991397 192.715299 
L 213.915087 151.890393 
L 216.838777 177.954639 
L 219.762468 294.463481 
L 222.686158 315.183644 
L 225.609848 261.014895 
L 228.533538 274.994515 
L 231.457228 275.679072 
L 234.380918 262.584024 
L 237.304608 260.110227 
L 240.228298 291.72569 
L 243.151988 326.859451 
L 246.075678 267.897701 
L 248.999369 301.594068 
L 251.923059 258.035166 
L 254.846749 256.56496 
L 257.770439 293.661671 
L 260.694129 228.378263 
L 263.617819 248.847445 
L 266.541509 186.739802 
L 269.465199 183.153267 
L 272.388889 128.112159 
L 275.312579 164.727507 
L 278.23627 164.603844 
L 281.15996 99.30574 
L 284.08365 73.503313 
L 287.00734 89.572428 
L 289.93103 164.100396 
L 292.85472 112.251743 
L 295.77841 146.954044 
L 298.7021 183.534277 
L 301.62579 75.403299 
L 304.549481 166.701013 
L 307.473171 266.631883 
L 310.396861 312.916595 
L 313.320551 201.81885 
L 316.244241 282.406777 
L 319.167931 338.104254 
L 322.091621 380.708729 
L 325.015311 320.740292 
L 327.939001 312.8788 
L 330.862691 312.405434 
L 333.786382 258.311297 
L 336.710072 331.389193 
L 339.633762 377.399978 
L 342.557452 328.096219 
L 345.481142 294.173847 
L 348.404832 351.868747 
L 351.328522 335.616867 
L 354.252212 174.062834 
L 357.175902 199.879834 
L 360.099592 143.564184 
L 363.023283 190.083585 
L 365.946973 104.35486 
L 368.870663 168.400906 
L 371.794353 138.774786 
L 374.718043 179.873358 
L 377.641733 119.098603 
L 380.565423 219.196681 
L 383.489113 301.890487 
L 386.412803 251.743065 
L 389.336494 291.403595 
L 392.260184 323.467326 
L 395.183874 246.113467 
L 398.107564 187.20159 
L 401.031254 196.097175 
L 403.954944 200.480011 
L 406.878634 139.555279 
L 409.802324 181.507112 
L 412.726014 188.904561 
L 415.649704 159.039248 
L 418.573395 115.990292 
L 421.497085 75.671675 
L 424.420775 81.178705 
L 427.344465 74.167278 
L 430.268155 79.732 
L 433.191845 84.405753 
L 436.115535 81.581189 
L 439.039225 246.000779 
L 441.962915 280.999745 
L 444.886605 195.869998 
L 447.810296 274.642494 
L 450.733986 275.354231 
L 453.657676 274.516759 
L 456.581366 252.390089 
L 459.505056 71.454988 
L 462.428746 149.338267 
L 465.352436 287.497737 
L 468.276126 234.696214 
L 471.199816 189.507378 
L 474.123506 134.025523 
L 477.047197 175.981107 
L 479.970887 219.719176 
L 482.894577 158.055263 
L 485.818267 71.716245 
L 488.741957 93.789855 
L 491.665647 175.58161 
L 494.589337 188.641171 
L 497.513027 172.754341 
L 500.436717 78.147119 
L 503.360408 120.701859 
L 506.284098 177.596602 
L 509.207788 160.971906 
L 512.131478 175.044511 
L 515.055168 178.756064 
L 517.978858 178.958816 
L 520.902548 251.829186 
L 523.826238 333.617519 
L 526.749928 339.52603 
L 529.673618 280.52561 
L 532.597309 244.879778 
L 535.520999 256.960338 
L 538.444689 173.75411 
L 541.368379 272.861369 
L 544.292069 216.261472 
L 547.215759 98.30186 
L 550.139449 78.573982 
L 553.063139 156.53674 
L 555.986829 163.206956 
L 558.910519 161.174544 
L 561.83421 145.036777 
L 564.7579 165.532841 
L 567.68159 153.420266 
L 570.60528 183.62763 
L 573.52897 284.955029 
L 576.45266 247.634341 
L 579.37635 294.496397 
L 582.30004 300.452673 
L 585.22373 262.671684 
L 588.147421 200.216848 
L 591.071111 253.704477 
L 593.994801 261.193223 
L 596.918491 236.55683 
L 599.842181 251.999975 
L 602.765871 306.382224 
L 605.689561 177.294909 
L 608.613251 280.452694 
L 611.536941 285.626959 
L 614.460631 286.845432 
L 617.384322 292.130828 
L 620.308012 300.729294 
L 623.231702 328.499257 
L 626.155392 367.488593 
L 629.079082 262.511353 
L 632.002772 243.807328 
L 634.926462 240.86898 
L 637.850152 197.416303 
L 640.773842 206.770318 
L 643.697532 249.880087 
L 646.621223 172.688508 
L 649.544913 324.813021 
L 652.468603 352.122964 
L 655.392293 296.049628 
L 658.315983 186.81068 
L 661.239673 286.489773 
L 664.163363 231.212598 
L 667.087053 306.799447 
L 670.010743 234.937208 
L 672.934433 213.462344 
L 675.858124 339.689526 
L 678.781814 302.491635 
L 681.705504 314.297008 
L 684.629194 342.954674 
L 687.552884 281.320196 
L 690.476574 230.882755 
L 693.400264 71.642969 
L 696.323954 71.453058 
L 728.484545 71.453272 
L 728.484545 71.453272 
" style="fill:none;stroke:#55a868;stroke-dasharray:1.5,1.5;stroke-dashoffset:0;stroke-width:1.5;"/>
   </g>
   <g id="line2d_4">
    <path clip-path="url(#p9a64d170d8)" d="M 134.975455 71.454 
L 181.754496 71.454278 
L 184.678186 172.799307 
L 187.601876 180.590778 
L 190.525567 290.936998 
L 193.449257 242.731451 
L 196.372947 213.042104 
L 199.296637 262.010301 
L 202.220327 190.373805 
L 205.144017 220.983525 
L 208.067707 303.400903 
L 210.991397 289.588679 
L 213.915087 250.360169 
L 216.838777 263.549418 
L 219.762468 321.373795 
L 222.686158 311.291918 
L 225.609848 284.790816 
L 228.533538 280.00642 
L 231.457228 323.183621 
L 234.380918 262.994881 
L 237.304608 285.810446 
L 240.228298 278.409692 
L 243.151988 299.670644 
L 246.075678 297.742918 
L 248.999369 258.713076 
L 251.923059 241.154364 
L 257.770439 285.242827 
L 260.694129 218.292975 
L 263.617819 266.099838 
L 266.541509 156.515114 
L 269.465199 168.091876 
L 272.388889 234.610653 
L 275.312579 247.202969 
L 278.23627 252.10021 
L 281.15996 225.379592 
L 284.08365 124.609807 
L 287.00734 123.198131 
L 289.93103 221.650558 
L 292.85472 182.997449 
L 295.77841 153.639441 
L 298.7021 220.820974 
L 301.62579 78.939191 
L 304.549481 196.727041 
L 307.473171 272.90882 
L 310.396861 301.528305 
L 313.320551 178.361613 
L 316.244241 257.932482 
L 319.167931 318.928786 
L 322.091621 367.694834 
L 325.015311 284.441559 
L 327.939001 301.012317 
L 330.862691 309.823986 
L 333.786382 242.051249 
L 336.710072 312.846006 
L 339.633762 365.874234 
L 342.557452 312.92221 
L 345.481142 235.723154 
L 348.404832 222.230874 
L 351.328522 292.886219 
L 354.252212 287.111804 
L 357.175902 180.417741 
L 360.099592 168.058435 
L 363.023283 298.559577 
L 365.946973 121.979046 
L 368.870663 155.507264 
L 371.794353 236.786544 
L 374.718043 218.625599 
L 377.641733 174.163341 
L 380.565423 283.281905 
L 383.489113 286.686256 
L 386.412803 286.885134 
L 389.336494 273.920806 
L 392.260184 332.295733 
L 395.183874 269.725682 
L 398.107564 170.901481 
L 401.031254 159.342226 
L 403.954944 190.772646 
L 406.878634 138.498698 
L 409.802324 129.895601 
L 412.726014 156.945568 
L 415.649704 204.16114 
L 418.573395 153.433357 
L 421.497085 228.054629 
L 424.420775 253.771323 
L 427.344465 77.889853 
L 430.268155 223.837904 
L 433.191845 290.661321 
L 436.115535 170.283289 
L 439.039225 313.128381 
L 441.962915 297.945924 
L 444.886605 231.64544 
L 447.810296 264.571601 
L 450.733986 324.948253 
L 453.657676 320.072577 
L 456.581366 220.164785 
L 459.505056 71.47178 
L 462.428746 193.230851 
L 465.352436 290.587531 
L 468.276126 260.26239 
L 471.199816 190.705983 
L 474.123506 72.719571 
L 477.047197 222.740742 
L 479.970887 211.836836 
L 482.894577 203.107947 
L 485.818267 171.624061 
L 488.741957 278.874662 
L 491.665647 317.994036 
L 494.589337 117.420743 
L 497.513027 71.466839 
L 500.436717 180.458414 
L 503.360408 204.423271 
L 506.284098 219.008944 
L 509.207788 215.038067 
L 515.055168 281.057287 
L 517.978858 199.413753 
L 520.902548 287.982751 
L 523.826238 324.41829 
L 526.749928 313.608708 
L 529.673618 329.729519 
L 532.597309 274.968682 
L 535.520999 248.492731 
L 538.444689 204.160598 
L 541.368379 313.906737 
L 544.292069 273.183552 
L 547.215759 171.848999 
L 550.139449 229.078858 
L 553.063139 167.850305 
L 555.986829 170.115788 
L 558.910519 129.575369 
L 561.83421 100.944869 
L 564.7579 80.975261 
L 567.68159 75.224069 
L 570.60528 222.251373 
L 573.52897 144.835721 
L 576.45266 249.280549 
L 579.37635 247.10018 
L 582.30004 243.171796 
L 585.22373 269.087963 
L 588.147421 189.039828 
L 591.071111 189.983236 
L 593.994801 296.04557 
L 596.918491 240.879334 
L 599.842181 216.347575 
L 602.765871 284.658942 
L 605.689561 192.749335 
L 608.613251 304.213014 
L 611.536941 300.975518 
L 614.460631 291.388851 
L 617.384322 297.695083 
L 620.308012 321.481394 
L 623.231702 323.700152 
L 626.155392 367.610848 
L 629.079082 281.272833 
L 632.002772 230.920673 
L 634.926462 209.732208 
L 637.850152 216.513197 
L 640.773842 221.543554 
L 643.697532 242.814948 
L 646.621223 211.977053 
L 649.544913 274.139833 
L 652.468603 363.160615 
L 655.392293 331.938711 
L 658.315983 189.626214 
L 661.239673 284.609953 
L 664.163363 236.851326 
L 667.087053 310.705182 
L 670.010743 244.154521 
L 672.934433 223.829369 
L 675.858124 326.289488 
L 678.781814 306.400956 
L 681.705504 320.459805 
L 684.629194 348.175812 
L 687.552884 262.917908 
L 690.476574 236.715622 
L 693.400264 71.66401 
L 696.323954 71.453084 
L 728.484545 71.453167 
L 728.484545 71.453167 
" style="fill:none;stroke:#c44e52;stroke-dasharray:4.5,1.875,2.25,1.875;stroke-dashoffset:0;stroke-width:1.5;"/>
   </g>
   <g id="line2d_5">
    <path clip-path="url(#p9a64d170d8)" d="M 134.975455 71.453922 
L 181.754496 71.453377 
L 184.678186 153.650241 
L 187.601876 197.49534 
L 190.525567 293.717482 
L 193.449257 249.520546 
L 196.372947 221.795987 
L 199.296637 271.670041 
L 202.220327 197.887824 
L 205.144017 216.540297 
L 208.067707 307.019698 
L 210.991397 290.925437 
L 213.915087 239.474086 
L 216.838777 268.988533 
L 219.762468 320.612422 
L 222.686158 314.748599 
L 225.609848 301.051162 
L 228.533538 293.727818 
L 231.457228 329.677626 
L 234.380918 265.890781 
L 237.304608 289.752018 
L 240.228298 279.420681 
L 243.151988 300.046101 
L 246.075678 299.438483 
L 248.999369 254.207348 
L 251.923059 241.353609 
L 257.770439 291.814854 
L 260.694129 219.17195 
L 263.617819 260.671655 
L 266.541509 156.647907 
L 269.465199 169.998684 
L 272.388889 234.570776 
L 275.312579 246.186208 
L 278.23627 255.231577 
L 281.15996 239.073513 
L 284.08365 135.47032 
L 287.00734 121.803128 
L 289.93103 223.551121 
L 292.85472 192.495486 
L 295.77841 167.285755 
L 298.7021 223.61106 
L 301.62579 82.507347 
L 304.549481 195.149701 
L 307.473171 273.112823 
L 310.396861 312.846111 
L 313.320551 189.390974 
L 316.244241 257.290181 
L 319.167931 328.647065 
L 322.091621 357.0332 
L 325.015311 279.070882 
L 327.939001 291.415401 
L 330.862691 306.667433 
L 333.786382 266.050954 
L 336.710072 294.300107 
L 339.633762 351.890102 
L 342.557452 311.490499 
L 345.481142 287.307132 
L 348.404832 276.579035 
L 351.328522 271.465583 
L 354.252212 257.459239 
L 357.175902 285.059445 
L 360.099592 241.330278 
L 363.023283 305.245499 
L 365.946973 194.092669 
L 368.870663 265.296647 
L 371.794353 255.652246 
L 374.718043 219.92951 
L 377.641733 222.990183 
L 380.565423 306.285574 
L 383.489113 309.986013 
L 386.412803 252.759547 
L 389.336494 274.682407 
L 392.260184 329.605025 
L 395.183874 288.532618 
L 398.107564 181.523658 
L 401.031254 199.181818 
L 403.954944 206.253473 
L 406.878634 147.794821 
L 409.802324 158.904295 
L 412.726014 175.633459 
L 415.649704 236.603424 
L 418.573395 162.958826 
L 421.497085 241.221105 
L 424.420775 262.715479 
L 427.344465 76.531956 
L 430.268155 213.093157 
L 433.191845 293.408732 
L 436.115535 170.975402 
L 439.039225 315.903163 
L 441.962915 303.988093 
L 444.886605 240.209958 
L 447.810296 272.933778 
L 450.733986 331.9707 
L 453.657676 312.776833 
L 456.581366 217.255715 
L 459.505056 71.493914 
L 462.428746 188.629068 
L 465.352436 281.265557 
L 468.276126 267.365202 
L 471.199816 185.490381 
L 474.123506 72.241068 
L 477.047197 230.592982 
L 479.970887 222.389456 
L 482.894577 197.02375 
L 485.818267 181.269712 
L 488.741957 282.367425 
L 491.665647 323.820956 
L 494.589337 115.614336 
L 497.513027 71.464359 
L 500.436717 170.269796 
L 503.360408 202.908631 
L 506.284098 224.34158 
L 509.207788 220.633814 
L 512.131478 258.493193 
L 515.055168 280.31155 
L 517.978858 195.395644 
L 520.902548 288.660155 
L 523.826238 306.030273 
L 526.749928 299.705397 
L 529.673618 323.834143 
L 532.597309 250.505983 
L 535.520999 242.028442 
L 538.444689 203.525721 
L 541.368379 317.44681 
L 544.292069 269.371178 
L 547.215759 158.656987 
L 550.139449 227.889488 
L 553.063139 121.85788 
L 555.986829 175.715382 
L 558.910519 135.719814 
L 561.83421 162.607514 
L 564.7579 195.386497 
L 567.68159 177.739548 
L 570.60528 259.668011 
L 573.52897 246.95246 
L 576.45266 335.654767 
L 579.37635 285.409226 
L 582.30004 242.886254 
L 585.22373 223.666293 
L 588.147421 207.392506 
L 591.071111 173.975385 
L 593.994801 268.067616 
L 596.918491 231.508493 
L 599.842181 189.507247 
L 602.765871 280.52972 
L 605.689561 188.259671 
L 608.613251 297.123267 
L 611.536941 301.075071 
L 614.460631 302.062536 
L 617.384322 276.677958 
L 620.308012 311.043683 
L 623.231702 319.34433 
L 626.155392 367.3804 
L 629.079082 283.764663 
L 632.002772 229.977038 
L 634.926462 208.358468 
L 637.850152 213.973121 
L 640.773842 240.21928 
L 643.697532 234.680263 
L 646.621223 188.865785 
L 649.544913 249.437294 
L 652.468603 352.394023 
L 655.392293 312.35536 
L 658.315983 180.286645 
L 661.239673 272.509576 
L 664.163363 229.412129 
L 667.087053 307.980107 
L 670.010743 242.561781 
L 672.934433 224.169601 
L 675.858124 318.869408 
L 678.781814 291.667519 
L 681.705504 320.793024 
L 684.629194 331.57415 
L 687.552884 252.015156 
L 690.476574 219.014296 
L 693.400264 71.823476 
L 696.323954 71.453283 
L 728.484545 71.453148 
L 728.484545 71.453148 
" style="fill:none;stroke:#8172b3;stroke-dasharray:7.5,1.5,1.5,1.5;stroke-dashoffset:0;stroke-width:1.5;"/>
   </g>
   <g id="line2d_6"/>
   <g id="line2d_7"/>
   <g id="line2d_8"/>
   <g id="line2d_9"/>
   <g id="line2d_10"/>
   <g id="patch_3">
    <path d="M 105.3 529.9416 
L 105.3 71.4528 
" style="fill:none;stroke:#262626;stroke-linecap:square;stroke-linejoin:miter;stroke-width:1.25;"/>
   </g>
   <g id="patch_4">
    <path d="M 758.16 529.9416 
L 758.16 71.4528 
" style="fill:none;stroke:#262626;stroke-linecap:square;stroke-linejoin:miter;stroke-width:1.25;"/>
   </g>
   <g id="patch_5">
    <path d="M 105.3 529.9416 
L 758.16 529.9416 
" style="fill:none;stroke:#262626;stroke-linecap:square;stroke-linejoin:miter;stroke-width:1.25;"/>
   </g>
   <g id="patch_6">
    <path d="M 105.3 71.4528 
L 758.16 71.4528 
" style="fill:none;stroke:#262626;stroke-linecap:square;stroke-linejoin:miter;stroke-width:1.25;"/>
   </g>
   <g id="text_16">
    <!-- Activations for &gt;&lt;blank&gt;&lt; -->
    <g style="fill:#262626;" transform="translate(364.022812 65.4528)scale(0.12 -0.12)">
     <defs>
      <path d="M -9 0 
L 1750 4581 
L 2403 4581 
L 4278 0 
L 3588 0 
L 3053 1388 
L 1138 1388 
L 634 0 
L -9 0 
z
M 1313 1881 
L 2866 1881 
L 2388 3150 
Q 2169 3728 2063 4100 
Q 1975 3659 1816 3225 
L 1313 1881 
z
" id="ArialMT-41" transform="scale(0.015625)"/>
      <path d="M 2588 1216 
L 3141 1144 
Q 3050 572 2676 248 
Q 2303 -75 1759 -75 
Q 1078 -75 664 370 
Q 250 816 250 1647 
Q 250 2184 428 2587 
Q 606 2991 970 3192 
Q 1334 3394 1763 3394 
Q 2303 3394 2647 3120 
Q 2991 2847 3088 2344 
L 2541 2259 
Q 2463 2594 2264 2762 
Q 2066 2931 1784 2931 
Q 1359 2931 1093 2626 
Q 828 2322 828 1663 
Q 828 994 1084 691 
Q 1341 388 1753 388 
Q 2084 388 2306 591 
Q 2528 794 2588 1216 
z
" id="ArialMT-63" transform="scale(0.015625)"/>
      <path d="M 1650 503 
L 1731 6 
Q 1494 -44 1306 -44 
Q 1000 -44 831 53 
Q 663 150 594 308 
Q 525 466 525 972 
L 525 2881 
L 113 2881 
L 113 3319 
L 525 3319 
L 525 4141 
L 1084 4478 
L 1084 3319 
L 1650 3319 
L 1650 2881 
L 1084 2881 
L 1084 941 
Q 1084 700 1114 631 
Q 1144 563 1211 522 
Q 1278 481 1403 481 
Q 1497 481 1650 503 
z
" id="ArialMT-74" transform="scale(0.015625)"/>
      <path d="M 425 3934 
L 425 4581 
L 988 4581 
L 988 3934 
L 425 3934 
z
M 425 0 
L 425 3319 
L 988 3319 
L 988 0 
L 425 0 
z
" id="ArialMT-69" transform="scale(0.015625)"/>
      <path d="M 1344 0 
L 81 3319 
L 675 3319 
L 1388 1331 
Q 1503 1009 1600 663 
Q 1675 925 1809 1294 
L 2547 3319 
L 3125 3319 
L 1869 0 
L 1344 0 
z
" id="ArialMT-76" transform="scale(0.015625)"/>
      <path d="M 2588 409 
Q 2275 144 1986 34 
Q 1697 -75 1366 -75 
Q 819 -75 525 192 
Q 231 459 231 875 
Q 231 1119 342 1320 
Q 453 1522 633 1644 
Q 813 1766 1038 1828 
Q 1203 1872 1538 1913 
Q 2219 1994 2541 2106 
Q 2544 2222 2544 2253 
Q 2544 2597 2384 2738 
Q 2169 2928 1744 2928 
Q 1347 2928 1158 2789 
Q 969 2650 878 2297 
L 328 2372 
Q 403 2725 575 2942 
Q 747 3159 1072 3276 
Q 1397 3394 1825 3394 
Q 2250 3394 2515 3294 
Q 2781 3194 2906 3042 
Q 3031 2891 3081 2659 
Q 3109 2516 3109 2141 
L 3109 1391 
Q 3109 606 3145 398 
Q 3181 191 3288 0 
L 2700 0 
Q 2613 175 2588 409 
z
M 2541 1666 
Q 2234 1541 1622 1453 
Q 1275 1403 1131 1340 
Q 988 1278 909 1158 
Q 831 1038 831 891 
Q 831 666 1001 516 
Q 1172 366 1500 366 
Q 1825 366 2078 508 
Q 2331 650 2450 897 
Q 2541 1088 2541 1459 
L 2541 1666 
z
" id="ArialMT-61" transform="scale(0.015625)"/>
      <path d="M 213 1659 
Q 213 2581 725 3025 
Q 1153 3394 1769 3394 
Q 2453 3394 2887 2945 
Q 3322 2497 3322 1706 
Q 3322 1066 3130 698 
Q 2938 331 2570 128 
Q 2203 -75 1769 -75 
Q 1072 -75 642 372 
Q 213 819 213 1659 
z
M 791 1659 
Q 791 1022 1069 705 
Q 1347 388 1769 388 
Q 2188 388 2466 706 
Q 2744 1025 2744 1678 
Q 2744 2294 2464 2611 
Q 2184 2928 1769 2928 
Q 1347 2928 1069 2612 
Q 791 2297 791 1659 
z
" id="ArialMT-6f" transform="scale(0.015625)"/>
      <path d="M 422 0 
L 422 3319 
L 928 3319 
L 928 2847 
Q 1294 3394 1984 3394 
Q 2284 3394 2536 3286 
Q 2788 3178 2913 3003 
Q 3038 2828 3088 2588 
Q 3119 2431 3119 2041 
L 3119 0 
L 2556 0 
L 2556 2019 
Q 2556 2363 2490 2533 
Q 2425 2703 2258 2804 
Q 2091 2906 1866 2906 
Q 1506 2906 1245 2678 
Q 984 2450 984 1813 
L 984 0 
L 422 0 
z
" id="ArialMT-6e" transform="scale(0.015625)"/>
      <path d="M 197 991 
L 753 1078 
Q 800 744 1014 566 
Q 1228 388 1613 388 
Q 2000 388 2187 545 
Q 2375 703 2375 916 
Q 2375 1106 2209 1216 
Q 2094 1291 1634 1406 
Q 1016 1563 777 1677 
Q 538 1791 414 1992 
Q 291 2194 291 2438 
Q 291 2659 392 2848 
Q 494 3038 669 3163 
Q 800 3259 1026 3326 
Q 1253 3394 1513 3394 
Q 1903 3394 2198 3281 
Q 2494 3169 2634 2976 
Q 2775 2784 2828 2463 
L 2278 2388 
Q 2241 2644 2061 2787 
Q 1881 2931 1553 2931 
Q 1166 2931 1000 2803 
Q 834 2675 834 2503 
Q 834 2394 903 2306 
Q 972 2216 1119 2156 
Q 1203 2125 1616 2013 
Q 2213 1853 2448 1751 
Q 2684 1650 2818 1456 
Q 2953 1263 2953 975 
Q 2953 694 2789 445 
Q 2625 197 2315 61 
Q 2006 -75 1616 -75 
Q 969 -75 630 194 
Q 291 463 197 991 
z
" id="ArialMT-73" transform="scale(0.015625)"/>
      <path id="ArialMT-20" transform="scale(0.015625)"/>
      <path d="M 556 0 
L 556 2881 
L 59 2881 
L 59 3319 
L 556 3319 
L 556 3672 
Q 556 4006 616 4169 
Q 697 4388 901 4523 
Q 1106 4659 1475 4659 
Q 1713 4659 2000 4603 
L 1916 4113 
Q 1741 4144 1584 4144 
Q 1328 4144 1222 4034 
Q 1116 3925 1116 3625 
L 1116 3319 
L 1763 3319 
L 1763 2881 
L 1116 2881 
L 1116 0 
L 556 0 
z
" id="ArialMT-66" transform="scale(0.015625)"/>
      <path d="M 416 0 
L 416 3319 
L 922 3319 
L 922 2816 
Q 1116 3169 1280 3281 
Q 1444 3394 1641 3394 
Q 1925 3394 2219 3213 
L 2025 2691 
Q 1819 2813 1613 2813 
Q 1428 2813 1281 2702 
Q 1134 2591 1072 2394 
Q 978 2094 978 1738 
L 978 0 
L 416 0 
z
" id="ArialMT-72" transform="scale(0.015625)"/>
      <path d="M 3384 2003 
L 350 706 
L 350 1266 
L 2753 2263 
L 350 3250 
L 350 3809 
L 3384 2528 
L 3384 2003 
z
" id="ArialMT-3e" transform="scale(0.015625)"/>
      <path d="M 350 2003 
L 350 2528 
L 3384 3809 
L 3384 3250 
L 978 2263 
L 3384 1266 
L 3384 706 
L 350 2003 
z
" id="ArialMT-3c" transform="scale(0.015625)"/>
      <path d="M 941 0 
L 419 0 
L 419 4581 
L 981 4581 
L 981 2947 
Q 1338 3394 1891 3394 
Q 2197 3394 2470 3270 
Q 2744 3147 2920 2923 
Q 3097 2700 3197 2384 
Q 3297 2069 3297 1709 
Q 3297 856 2875 390 
Q 2453 -75 1863 -75 
Q 1275 -75 941 416 
L 941 0 
z
M 934 1684 
Q 934 1088 1097 822 
Q 1363 388 1816 388 
Q 2184 388 2453 708 
Q 2722 1028 2722 1663 
Q 2722 2313 2464 2622 
Q 2206 2931 1841 2931 
Q 1472 2931 1203 2611 
Q 934 2291 934 1684 
z
" id="ArialMT-62" transform="scale(0.015625)"/>
      <path d="M 409 0 
L 409 4581 
L 972 4581 
L 972 0 
L 409 0 
z
" id="ArialMT-6c" transform="scale(0.015625)"/>
      <path d="M 425 0 
L 425 4581 
L 988 4581 
L 988 1969 
L 2319 3319 
L 3047 3319 
L 1778 2088 
L 3175 0 
L 2481 0 
L 1384 1697 
L 988 1316 
L 988 0 
L 425 0 
z
" id="ArialMT-6b" transform="scale(0.015625)"/>
     </defs>
     <use xlink:href="#ArialMT-41"/>
     <use x="66.699219" xlink:href="#ArialMT-63"/>
     <use x="116.699219" xlink:href="#ArialMT-74"/>
     <use x="144.482422" xlink:href="#ArialMT-69"/>
     <use x="166.699219" xlink:href="#ArialMT-76"/>
     <use x="216.699219" xlink:href="#ArialMT-61"/>
     <use x="272.314453" xlink:href="#ArialMT-74"/>
     <use x="300.097656" xlink:href="#ArialMT-69"/>
     <use x="322.314453" xlink:href="#ArialMT-6f"/>
     <use x="377.929688" xlink:href="#ArialMT-6e"/>
     <use x="433.544922" xlink:href="#ArialMT-73"/>
     <use x="483.544922" xlink:href="#ArialMT-20"/>
     <use x="511.328125" xlink:href="#ArialMT-66"/>
     <use x="539.111328" xlink:href="#ArialMT-6f"/>
     <use x="594.726562" xlink:href="#ArialMT-72"/>
     <use x="628.027344" xlink:href="#ArialMT-20"/>
     <use x="655.810547" xlink:href="#ArialMT-3e"/>
     <use x="714.208984" xlink:href="#ArialMT-3c"/>
     <use x="772.607422" xlink:href="#ArialMT-62"/>
     <use x="828.222656" xlink:href="#ArialMT-6c"/>
     <use x="850.439453" xlink:href="#ArialMT-61"/>
     <use x="906.054688" xlink:href="#ArialMT-6e"/>
     <use x="961.669922" xlink:href="#ArialMT-6b"/>
     <use x="1011.669922" xlink:href="#ArialMT-3e"/>
     <use x="1070.068359" xlink:href="#ArialMT-3c"/>
    </g>
   </g>
   <g id="legend_1">
    <g id="patch_7">
     <path d="M 113 524.4416 
L 223.415938 524.4416 
Q 225.615938 524.4416 225.615938 522.2416 
L 225.615938 445.080037 
Q 225.615938 442.880037 223.415938 442.880037 
L 113 442.880037 
Q 110.8 442.880037 110.8 445.080037 
L 110.8 522.2416 
Q 110.8 524.4416 113 524.4416 
z
" style="fill:#ffffff;opacity:0.8;stroke:#cccccc;stroke-linejoin:miter;"/>
    </g>
    <g id="line2d_11">
     <path d="M 115.2 451.303631 
L 137.2 451.303631 
" style="fill:none;stroke:#4c72b0;stroke-linecap:round;stroke-width:1.5;"/>
    </g>
    <g id="line2d_12"/>
    <g id="text_17">
     <!-- regular -->
     <g style="fill:#262626;" transform="translate(146 455.153631)scale(0.11 -0.11)">
      <defs>
       <path d="M 2694 1069 
L 3275 997 
Q 3138 488 2766 206 
Q 2394 -75 1816 -75 
Q 1088 -75 661 373 
Q 234 822 234 1631 
Q 234 2469 665 2931 
Q 1097 3394 1784 3394 
Q 2450 3394 2872 2941 
Q 3294 2488 3294 1666 
Q 3294 1616 3291 1516 
L 816 1516 
Q 847 969 1125 678 
Q 1403 388 1819 388 
Q 2128 388 2347 550 
Q 2566 713 2694 1069 
z
M 847 1978 
L 2700 1978 
Q 2663 2397 2488 2606 
Q 2219 2931 1791 2931 
Q 1403 2931 1139 2672 
Q 875 2413 847 1978 
z
" id="ArialMT-65" transform="scale(0.015625)"/>
       <path d="M 319 -275 
L 866 -356 
Q 900 -609 1056 -725 
Q 1266 -881 1628 -881 
Q 2019 -881 2231 -725 
Q 2444 -569 2519 -288 
Q 2563 -116 2559 434 
Q 2191 0 1641 0 
Q 956 0 581 494 
Q 206 988 206 1678 
Q 206 2153 378 2554 
Q 550 2956 876 3175 
Q 1203 3394 1644 3394 
Q 2231 3394 2613 2919 
L 2613 3319 
L 3131 3319 
L 3131 450 
Q 3131 -325 2973 -648 
Q 2816 -972 2473 -1159 
Q 2131 -1347 1631 -1347 
Q 1038 -1347 672 -1080 
Q 306 -813 319 -275 
z
M 784 1719 
Q 784 1066 1043 766 
Q 1303 466 1694 466 
Q 2081 466 2343 764 
Q 2606 1063 2606 1700 
Q 2606 2309 2336 2618 
Q 2066 2928 1684 2928 
Q 1309 2928 1046 2623 
Q 784 2319 784 1719 
z
" id="ArialMT-67" transform="scale(0.015625)"/>
       <path d="M 2597 0 
L 2597 488 
Q 2209 -75 1544 -75 
Q 1250 -75 995 37 
Q 741 150 617 320 
Q 494 491 444 738 
Q 409 903 409 1263 
L 409 3319 
L 972 3319 
L 972 1478 
Q 972 1038 1006 884 
Q 1059 663 1231 536 
Q 1403 409 1656 409 
Q 1909 409 2131 539 
Q 2353 669 2445 892 
Q 2538 1116 2538 1541 
L 2538 3319 
L 3100 3319 
L 3100 0 
L 2597 0 
z
" id="ArialMT-75" transform="scale(0.015625)"/>
      </defs>
      <use xlink:href="#ArialMT-72"/>
      <use x="33.300781" xlink:href="#ArialMT-65"/>
      <use x="88.916016" xlink:href="#ArialMT-67"/>
      <use x="144.53125" xlink:href="#ArialMT-75"/>
      <use x="200.146484" xlink:href="#ArialMT-6c"/>
      <use x="222.363281" xlink:href="#ArialMT-61"/>
      <use x="277.978516" xlink:href="#ArialMT-72"/>
     </g>
    </g>
    <g id="line2d_13">
     <path d="M 115.2 467.025037 
L 137.2 467.025037 
" style="fill:none;stroke:#dd8452;stroke-dasharray:6,2.25;stroke-dashoffset:0;stroke-width:1.5;"/>
    </g>
    <g id="line2d_14"/>
    <g id="text_18">
     <!-- splitted_3s -->
     <g style="fill:#262626;" transform="translate(146 470.875037)scale(0.11 -0.11)">
      <defs>
       <path d="M 422 -1272 
L 422 3319 
L 934 3319 
L 934 2888 
Q 1116 3141 1344 3267 
Q 1572 3394 1897 3394 
Q 2322 3394 2647 3175 
Q 2972 2956 3137 2557 
Q 3303 2159 3303 1684 
Q 3303 1175 3120 767 
Q 2938 359 2589 142 
Q 2241 -75 1856 -75 
Q 1575 -75 1351 44 
Q 1128 163 984 344 
L 984 -1272 
L 422 -1272 
z
M 931 1641 
Q 931 1000 1190 694 
Q 1450 388 1819 388 
Q 2194 388 2461 705 
Q 2728 1022 2728 1688 
Q 2728 2322 2467 2637 
Q 2206 2953 1844 2953 
Q 1484 2953 1207 2617 
Q 931 2281 931 1641 
z
" id="ArialMT-70" transform="scale(0.015625)"/>
       <path d="M 2575 0 
L 2575 419 
Q 2259 -75 1647 -75 
Q 1250 -75 917 144 
Q 584 363 401 755 
Q 219 1147 219 1656 
Q 219 2153 384 2558 
Q 550 2963 881 3178 
Q 1213 3394 1622 3394 
Q 1922 3394 2156 3267 
Q 2391 3141 2538 2938 
L 2538 4581 
L 3097 4581 
L 3097 0 
L 2575 0 
z
M 797 1656 
Q 797 1019 1065 703 
Q 1334 388 1700 388 
Q 2069 388 2326 689 
Q 2584 991 2584 1609 
Q 2584 2291 2321 2609 
Q 2059 2928 1675 2928 
Q 1300 2928 1048 2622 
Q 797 2316 797 1656 
z
" id="ArialMT-64" transform="scale(0.015625)"/>
       <path d="M -97 -1272 
L -97 -866 
L 3631 -866 
L 3631 -1272 
L -97 -1272 
z
" id="ArialMT-5f" transform="scale(0.015625)"/>
       <path d="M 269 1209 
L 831 1284 
Q 928 806 1161 595 
Q 1394 384 1728 384 
Q 2125 384 2398 659 
Q 2672 934 2672 1341 
Q 2672 1728 2419 1979 
Q 2166 2231 1775 2231 
Q 1616 2231 1378 2169 
L 1441 2663 
Q 1497 2656 1531 2656 
Q 1891 2656 2178 2843 
Q 2466 3031 2466 3422 
Q 2466 3731 2256 3934 
Q 2047 4138 1716 4138 
Q 1388 4138 1169 3931 
Q 950 3725 888 3313 
L 325 3413 
Q 428 3978 793 4289 
Q 1159 4600 1703 4600 
Q 2078 4600 2393 4439 
Q 2709 4278 2876 4000 
Q 3044 3722 3044 3409 
Q 3044 3113 2884 2869 
Q 2725 2625 2413 2481 
Q 2819 2388 3044 2092 
Q 3269 1797 3269 1353 
Q 3269 753 2831 336 
Q 2394 -81 1725 -81 
Q 1122 -81 723 278 
Q 325 638 269 1209 
z
" id="ArialMT-33" transform="scale(0.015625)"/>
      </defs>
      <use xlink:href="#ArialMT-73"/>
      <use x="50" xlink:href="#ArialMT-70"/>
      <use x="105.615234" xlink:href="#ArialMT-6c"/>
      <use x="127.832031" xlink:href="#ArialMT-69"/>
      <use x="150.048828" xlink:href="#ArialMT-74"/>
      <use x="177.832031" xlink:href="#ArialMT-74"/>
      <use x="205.615234" xlink:href="#ArialMT-65"/>
      <use x="261.230469" xlink:href="#ArialMT-64"/>
      <use x="316.845703" xlink:href="#ArialMT-5f"/>
      <use x="372.460938" xlink:href="#ArialMT-33"/>
      <use x="428.076172" xlink:href="#ArialMT-73"/>
     </g>
    </g>
    <g id="line2d_15">
     <path d="M 115.2 482.617537 
L 137.2 482.617537 
" style="fill:none;stroke:#55a868;stroke-dasharray:1.5,1.5;stroke-dashoffset:0;stroke-width:1.5;"/>
    </g>
    <g id="line2d_16"/>
    <g id="text_19">
     <!-- splitted_1s -->
     <g style="fill:#262626;" transform="translate(146 486.467537)scale(0.11 -0.11)">
      <use xlink:href="#ArialMT-73"/>
      <use x="50" xlink:href="#ArialMT-70"/>
      <use x="105.615234" xlink:href="#ArialMT-6c"/>
      <use x="127.832031" xlink:href="#ArialMT-69"/>
      <use x="150.048828" xlink:href="#ArialMT-74"/>
      <use x="177.832031" xlink:href="#ArialMT-74"/>
      <use x="205.615234" xlink:href="#ArialMT-65"/>
      <use x="261.230469" xlink:href="#ArialMT-64"/>
      <use x="316.845703" xlink:href="#ArialMT-5f"/>
      <use x="372.460938" xlink:href="#ArialMT-31"/>
      <use x="428.076172" xlink:href="#ArialMT-73"/>
     </g>
    </g>
    <g id="line2d_17">
     <path d="M 115.2 498.311444 
L 137.2 498.311444 
" style="fill:none;stroke:#c44e52;stroke-dasharray:4.5,1.875,2.25,1.875;stroke-dashoffset:0;stroke-width:1.5;"/>
    </g>
    <g id="line2d_18"/>
    <g id="text_20">
     <!-- overlap_1f_3s -->
     <g style="fill:#262626;" transform="translate(146 502.161444)scale(0.11 -0.11)">
      <use xlink:href="#ArialMT-6f"/>
      <use x="55.615234" xlink:href="#ArialMT-76"/>
      <use x="105.615234" xlink:href="#ArialMT-65"/>
      <use x="161.230469" xlink:href="#ArialMT-72"/>
      <use x="194.53125" xlink:href="#ArialMT-6c"/>
      <use x="216.748047" xlink:href="#ArialMT-61"/>
      <use x="272.363281" xlink:href="#ArialMT-70"/>
      <use x="327.978516" xlink:href="#ArialMT-5f"/>
      <use x="383.59375" xlink:href="#ArialMT-31"/>
      <use x="439.208984" xlink:href="#ArialMT-66"/>
      <use x="466.992188" xlink:href="#ArialMT-5f"/>
      <use x="522.607422" xlink:href="#ArialMT-33"/>
      <use x="578.222656" xlink:href="#ArialMT-73"/>
     </g>
    </g>
    <g id="line2d_19">
     <path d="M 115.2 514.00535 
L 137.2 514.00535 
" style="fill:none;stroke:#8172b3;stroke-dasharray:7.5,1.5,1.5,1.5;stroke-dashoffset:0;stroke-width:1.5;"/>
    </g>
    <g id="line2d_20"/>
    <g id="text_21">
     <!-- overlap_10f_3s -->
     <g style="fill:#262626;" transform="translate(146 517.85535)scale(0.11 -0.11)">
      <use xlink:href="#ArialMT-6f"/>
      <use x="55.615234" xlink:href="#ArialMT-76"/>
      <use x="105.615234" xlink:href="#ArialMT-65"/>
      <use x="161.230469" xlink:href="#ArialMT-72"/>
      <use x="194.53125" xlink:href="#ArialMT-6c"/>
      <use x="216.748047" xlink:href="#ArialMT-61"/>
      <use x="272.363281" xlink:href="#ArialMT-70"/>
      <use x="327.978516" xlink:href="#ArialMT-5f"/>
      <use x="383.59375" xlink:href="#ArialMT-31"/>
      <use x="439.208984" xlink:href="#ArialMT-30"/>
      <use x="494.824219" xlink:href="#ArialMT-66"/>
      <use x="522.607422" xlink:href="#ArialMT-5f"/>
      <use x="578.222656" xlink:href="#ArialMT-33"/>
      <use x="633.837891" xlink:href="#ArialMT-73"/>
     </g>
    </g>
   </g>
  </g>
 </g>
 <defs>
  <clipPath id="p9a64d170d8">
   <rect height="458.4888" width="652.86" x="105.3" y="71.4528"/>
  </clipPath>
 </defs>
</svg>
