<?xml version="1.0" encoding="utf-8" standalone="no"?>
<!DOCTYPE svg PUBLIC "-//W3C//DTD SVG 1.1//EN"
  "http://www.w3.org/Graphics/SVG/1.1/DTD/svg11.dtd">
<svg height="595.44pt" version="1.1" viewBox="0 0 842.4 595.44" width="842.4pt" xmlns="http://www.w3.org/2000/svg" xmlns:xlink="http://www.w3.org/1999/xlink">
 <metadata>
  <rdf:RDF xmlns:cc="http://creativecommons.org/ns#" xmlns:dc="http://purl.org/dc/elements/1.1/" xmlns:rdf="http://www.w3.org/1999/02/22-rdf-syntax-ns#">
   <cc:Work>
    <dc:type rdf:resource="http://purl.org/dc/dcmitype/StillImage"/>
    <dc:date>2021-06-04T22:03:10.652670</dc:date>
    <dc:format>image/svg+xml</dc:format>
    <dc:creator>
     <cc:Agent>
      <dc:title>Matplotlib v3.4.1, https://matplotlib.org/</dc:title>
     </cc:Agent>
    </dc:creator>
   </cc:Work>
  </rdf:RDF>
 </metadata>
 <defs>
  <style type="text/css">*{stroke-linecap:butt;stroke-linejoin:round;}</style>
 </defs>
 <g id="figure_1">
  <g id="patch_1">
   <path d="M 0 595.44 
L 842.4 595.44 
L 842.4 0 
L 0 0 
z
" style="fill:#ffffff;"/>
  </g>
  <g id="axes_1">
   <g id="patch_2">
    <path d="M 105.3 529.9416 
L 758.16 529.9416 
L 758.16 71.4528 
L 105.3 71.4528 
z
" style="fill:#ffffff;"/>
   </g>
   <g id="matplotlib.axis_1">
    <g id="xtick_1">
     <g id="text_1">
      <!-- 0 -->
      <g style="fill:#262626;" transform="translate(131.916939 547.315194)scale(0.11 -0.11)">
       <defs>
        <path d="M 266 2259 
Q 266 3072 433 3567 
Q 600 4063 929 4331 
Q 1259 4600 1759 4600 
Q 2128 4600 2406 4451 
Q 2684 4303 2865 4023 
Q 3047 3744 3150 3342 
Q 3253 2941 3253 2259 
Q 3253 1453 3087 958 
Q 2922 463 2592 192 
Q 2263 -78 1759 -78 
Q 1097 -78 719 397 
Q 266 969 266 2259 
z
M 844 2259 
Q 844 1131 1108 757 
Q 1372 384 1759 384 
Q 2147 384 2411 759 
Q 2675 1134 2675 2259 
Q 2675 3391 2411 3762 
Q 2147 4134 1753 4134 
Q 1366 4134 1134 3806 
Q 844 3388 844 2259 
z
" id="ArialMT-30" transform="scale(0.015625)"/>
       </defs>
       <use xlink:href="#ArialMT-30"/>
      </g>
     </g>
    </g>
    <g id="xtick_2">
     <g id="text_2">
      <!-- 25 -->
      <g style="fill:#262626;" transform="translate(201.950676 547.315194)scale(0.11 -0.11)">
       <defs>
        <path d="M 3222 541 
L 3222 0 
L 194 0 
Q 188 203 259 391 
Q 375 700 629 1000 
Q 884 1300 1366 1694 
Q 2113 2306 2375 2664 
Q 2638 3022 2638 3341 
Q 2638 3675 2398 3904 
Q 2159 4134 1775 4134 
Q 1369 4134 1125 3890 
Q 881 3647 878 3216 
L 300 3275 
Q 359 3922 746 4261 
Q 1134 4600 1788 4600 
Q 2447 4600 2831 4234 
Q 3216 3869 3216 3328 
Q 3216 3053 3103 2787 
Q 2991 2522 2730 2228 
Q 2469 1934 1863 1422 
Q 1356 997 1212 845 
Q 1069 694 975 541 
L 3222 541 
z
" id="ArialMT-32" transform="scale(0.015625)"/>
        <path d="M 266 1200 
L 856 1250 
Q 922 819 1161 601 
Q 1400 384 1738 384 
Q 2144 384 2425 690 
Q 2706 997 2706 1503 
Q 2706 1984 2436 2262 
Q 2166 2541 1728 2541 
Q 1456 2541 1237 2417 
Q 1019 2294 894 2097 
L 366 2166 
L 809 4519 
L 3088 4519 
L 3088 3981 
L 1259 3981 
L 1013 2750 
Q 1425 3038 1878 3038 
Q 2478 3038 2890 2622 
Q 3303 2206 3303 1553 
Q 3303 931 2941 478 
Q 2500 -78 1738 -78 
Q 1113 -78 717 272 
Q 322 622 266 1200 
z
" id="ArialMT-35" transform="scale(0.015625)"/>
       </defs>
       <use xlink:href="#ArialMT-32"/>
       <use x="55.615234" xlink:href="#ArialMT-35"/>
      </g>
     </g>
    </g>
    <g id="xtick_3">
     <g id="text_3">
      <!-- 50 -->
      <g style="fill:#262626;" transform="translate(275.042928 547.315194)scale(0.11 -0.11)">
       <use xlink:href="#ArialMT-35"/>
       <use x="55.615234" xlink:href="#ArialMT-30"/>
      </g>
     </g>
    </g>
    <g id="xtick_4">
     <g id="text_4">
      <!-- 75 -->
      <g style="fill:#262626;" transform="translate(348.135181 547.315194)scale(0.11 -0.11)">
       <defs>
        <path d="M 303 3981 
L 303 4522 
L 3269 4522 
L 3269 4084 
Q 2831 3619 2401 2847 
Q 1972 2075 1738 1259 
Q 1569 684 1522 0 
L 944 0 
Q 953 541 1156 1306 
Q 1359 2072 1739 2783 
Q 2119 3494 2547 3981 
L 303 3981 
z
" id="ArialMT-37" transform="scale(0.015625)"/>
       </defs>
       <use xlink:href="#ArialMT-37"/>
       <use x="55.615234" xlink:href="#ArialMT-35"/>
      </g>
     </g>
    </g>
    <g id="xtick_5">
     <g id="text_5">
      <!-- 100 -->
      <g style="fill:#262626;" transform="translate(418.168918 547.315194)scale(0.11 -0.11)">
       <defs>
        <path d="M 2384 0 
L 1822 0 
L 1822 3584 
Q 1619 3391 1289 3197 
Q 959 3003 697 2906 
L 697 3450 
Q 1169 3672 1522 3987 
Q 1875 4303 2022 4600 
L 2384 4600 
L 2384 0 
z
" id="ArialMT-31" transform="scale(0.015625)"/>
       </defs>
       <use xlink:href="#ArialMT-31"/>
       <use x="55.615234" xlink:href="#ArialMT-30"/>
       <use x="111.230469" xlink:href="#ArialMT-30"/>
      </g>
     </g>
    </g>
    <g id="xtick_6">
     <g id="text_6">
      <!-- 125 -->
      <g style="fill:#262626;" transform="translate(491.261171 547.315194)scale(0.11 -0.11)">
       <use xlink:href="#ArialMT-31"/>
       <use x="55.615234" xlink:href="#ArialMT-32"/>
       <use x="111.230469" xlink:href="#ArialMT-35"/>
      </g>
     </g>
    </g>
    <g id="xtick_7">
     <g id="text_7">
      <!-- 150 -->
      <g style="fill:#262626;" transform="translate(564.353423 547.315194)scale(0.11 -0.11)">
       <use xlink:href="#ArialMT-31"/>
       <use x="55.615234" xlink:href="#ArialMT-35"/>
       <use x="111.230469" xlink:href="#ArialMT-30"/>
      </g>
     </g>
    </g>
    <g id="xtick_8">
     <g id="text_8">
      <!-- 175 -->
      <g style="fill:#262626;" transform="translate(637.445676 547.315194)scale(0.11 -0.11)">
       <use xlink:href="#ArialMT-31"/>
       <use x="55.615234" xlink:href="#ArialMT-37"/>
       <use x="111.230469" xlink:href="#ArialMT-35"/>
      </g>
     </g>
    </g>
    <g id="xtick_9">
     <g id="text_9">
      <!-- 200 -->
      <g style="fill:#262626;" transform="translate(710.537928 547.315194)scale(0.11 -0.11)">
       <use xlink:href="#ArialMT-32"/>
       <use x="55.615234" xlink:href="#ArialMT-30"/>
       <use x="111.230469" xlink:href="#ArialMT-30"/>
      </g>
     </g>
    </g>
   </g>
   <g id="matplotlib.axis_2">
    <g id="ytick_1">
     <g id="text_10">
      <!-- −25 -->
      <g style="fill:#262626;" transform="translate(77.14125 533.878397)scale(0.11 -0.11)">
       <defs>
        <path d="M 3381 1997 
L 356 1997 
L 356 2522 
L 3381 2522 
L 3381 1997 
z
" id="ArialMT-2212" transform="scale(0.015625)"/>
       </defs>
       <use xlink:href="#ArialMT-2212"/>
       <use x="58.398438" xlink:href="#ArialMT-32"/>
       <use x="114.013672" xlink:href="#ArialMT-35"/>
      </g>
     </g>
    </g>
    <g id="ytick_2">
     <g id="text_11">
      <!-- −20 -->
      <g style="fill:#262626;" transform="translate(77.14125 442.180637)scale(0.11 -0.11)">
       <use xlink:href="#ArialMT-2212"/>
       <use x="58.398438" xlink:href="#ArialMT-32"/>
       <use x="114.013672" xlink:href="#ArialMT-30"/>
      </g>
     </g>
    </g>
    <g id="ytick_3">
     <g id="text_12">
      <!-- −15 -->
      <g style="fill:#262626;" transform="translate(77.14125 350.482877)scale(0.11 -0.11)">
       <use xlink:href="#ArialMT-2212"/>
       <use x="58.398438" xlink:href="#ArialMT-31"/>
       <use x="114.013672" xlink:href="#ArialMT-35"/>
      </g>
     </g>
    </g>
    <g id="ytick_4">
     <g id="text_13">
      <!-- −10 -->
      <g style="fill:#262626;" transform="translate(77.14125 258.785117)scale(0.11 -0.11)">
       <use xlink:href="#ArialMT-2212"/>
       <use x="58.398438" xlink:href="#ArialMT-31"/>
       <use x="114.013672" xlink:href="#ArialMT-30"/>
      </g>
     </g>
    </g>
    <g id="ytick_5">
     <g id="text_14">
      <!-- −5 -->
      <g style="fill:#262626;" transform="translate(83.258281 167.087357)scale(0.11 -0.11)">
       <use xlink:href="#ArialMT-2212"/>
       <use x="58.398438" xlink:href="#ArialMT-35"/>
      </g>
     </g>
    </g>
    <g id="ytick_6">
     <g id="text_15">
      <!-- 0 -->
      <g style="fill:#262626;" transform="translate(89.682969 75.389597)scale(0.11 -0.11)">
       <use xlink:href="#ArialMT-30"/>
      </g>
     </g>
    </g>
   </g>
   <g id="line2d_1">
    <path clip-path="url(#pfdaff0e02b)" d="M 134.975455 317.112699 
L 137.899145 317.301311 
L 140.822835 322.221516 
L 143.746525 323.550508 
L 146.670215 320.381048 
L 149.593905 326.458302 
L 152.517595 327.26688 
L 155.441285 333.405191 
L 158.364975 336.472738 
L 161.288665 342.197884 
L 164.212356 350.242618 
L 167.136046 353.633746 
L 170.059736 371.492429 
L 172.983426 378.94714 
L 175.907116 383.852724 
L 178.830806 404.997211 
L 181.754496 430.188489 
L 184.678186 333.471181 
L 187.601876 131.961178 
L 190.525567 71.453121 
L 193.449257 242.500653 
L 196.372947 356.217416 
L 199.296637 406.509392 
L 202.220327 337.209345 
L 205.144017 284.913508 
L 208.067707 394.310006 
L 210.991397 513.188317 
L 213.915087 470.162982 
L 216.838777 399.221676 
L 219.762468 358.175277 
L 222.686158 373.630752 
L 225.609848 371.144484 
L 228.533538 415.294319 
L 231.457228 416.816541 
L 237.304608 71.453224 
L 240.228298 271.373569 
L 243.151988 314.316999 
L 246.075678 71.489516 
L 248.999369 72.992968 
L 251.923059 282.158612 
L 254.846749 369.481888 
L 257.770439 379.25965 
L 260.694129 299.010573 
L 263.617819 380.626876 
L 266.541509 337.637342 
L 269.465199 375.759245 
L 272.388889 440.490425 
L 275.312579 434.836271 
L 278.23627 427.231077 
L 281.15996 385.291938 
L 284.08365 335.537532 
L 287.00734 327.860524 
L 289.93103 354.016706 
L 292.85472 319.863065 
L 295.77841 316.405423 
L 298.7021 350.488002 
L 301.62579 299.139019 
L 304.549481 298.540111 
L 307.473171 341.381942 
L 310.396861 402.009541 
L 313.320551 321.126715 
L 316.244241 349.198327 
L 319.167931 297.113472 
L 322.091621 367.766998 
L 325.015311 412.403124 
L 327.939001 392.009097 
L 330.862691 349.330779 
L 333.786382 339.684367 
L 336.710072 348.855279 
L 339.633762 424.079071 
L 342.557452 434.57658 
L 345.481142 291.25598 
L 348.404832 71.455305 
L 351.328522 81.760541 
L 354.252212 298.117886 
L 357.175902 367.648031 
L 360.099592 367.268044 
L 363.023283 431.761606 
L 365.946973 345.974141 
L 368.870663 384.406561 
L 371.794353 407.314036 
L 374.718043 458.611038 
L 377.641733 460.896871 
L 380.565423 424.357127 
L 383.489113 377.407429 
L 386.412803 332.585857 
L 389.336494 362.441253 
L 392.260184 360.803143 
L 395.183874 374.099763 
L 398.107564 364.461728 
L 401.031254 337.018057 
L 403.954944 339.720413 
L 406.878634 366.750831 
L 409.802324 367.117911 
L 412.726014 349.883741 
L 415.649704 433.808631 
L 418.573395 358.481683 
L 421.497085 374.917068 
L 424.420775 442.562146 
L 427.344465 360.087751 
L 430.268155 396.334014 
L 433.191845 404.014205 
L 436.115535 320.600005 
L 439.039225 352.618664 
L 441.962915 390.620813 
L 444.886605 401.219904 
L 447.810296 343.086339 
L 450.733986 300.055826 
L 453.657676 375.726189 
L 456.581366 420.938469 
L 459.505056 443.207526 
L 462.428746 388.349707 
L 465.352436 387.092109 
L 468.276126 324.796703 
L 471.199816 338.424687 
L 474.123506 304.20761 
L 477.047197 299.308847 
L 479.970887 289.889612 
L 482.894577 384.927097 
L 485.818267 387.302234 
L 488.741957 447.675546 
L 491.665647 491.604798 
L 494.589337 449.06131 
L 497.513027 444.130576 
L 500.436717 417.101802 
L 503.360408 321.872242 
L 506.284098 343.259979 
L 509.207788 426.020702 
L 512.131478 435.931667 
L 515.055168 459.549829 
L 517.978858 363.942486 
L 520.902548 353.316776 
L 523.826238 357.116487 
L 526.749928 375.703907 
L 529.673618 479.157088 
L 532.597309 479.157963 
L 535.520999 403.523192 
L 538.444689 363.75174 
L 541.368379 394.374928 
L 544.292069 345.567394 
L 547.215759 373.581045 
L 550.139449 437.791515 
L 553.063139 355.248857 
L 555.986829 457.711564 
L 558.910519 423.02838 
L 561.83421 414.638271 
L 564.7579 420.098147 
L 567.68159 340.99851 
L 570.60528 368.531204 
L 573.52897 399.185542 
L 576.45266 421.162306 
L 579.37635 445.316815 
L 582.30004 440.905567 
L 585.22373 364.94933 
L 588.147421 383.404946 
L 591.071111 357.576718 
L 593.994801 373.232086 
L 596.918491 314.209033 
L 599.842181 362.377642 
L 602.765871 343.326773 
L 605.689561 304.234929 
L 608.613251 373.91276 
L 611.536941 424.667469 
L 614.460631 443.151313 
L 617.384322 389.414776 
L 620.308012 369.47038 
L 623.231702 397.335734 
L 626.155392 466.900719 
L 629.079082 435.686738 
L 632.002772 357.586232 
L 634.926462 324.285594 
L 637.850152 353.825226 
L 640.773842 324.142701 
L 643.697532 311.707322 
L 646.621223 283.668416 
L 649.544913 311.590087 
L 652.468603 374.94918 
L 655.392293 425.037556 
L 658.315983 390.389491 
L 661.239673 477.309554 
L 664.163363 443.884002 
L 667.087053 462.834059 
L 670.010743 362.411835 
L 672.934433 310.074232 
L 675.858124 409.308696 
L 678.781814 389.887459 
L 681.705504 431.838107 
L 684.629194 493.438095 
L 687.552884 425.115946 
L 690.476574 432.399815 
L 693.400264 337.214574 
L 696.323954 341.534664 
L 699.247644 336.933808 
L 702.171335 337.836797 
L 705.095025 344.830945 
L 708.018715 346.949626 
L 710.942405 344.747273 
L 713.866095 344.827884 
L 716.789785 342.244022 
L 722.637165 340.540343 
L 725.560855 345.001332 
L 728.484545 340.146871 
L 728.484545 340.146871 
" style="fill:none;stroke:#4c72b0;stroke-linecap:round;stroke-width:1.5;"/>
   </g>
   <g id="line2d_2">
    <path clip-path="url(#pfdaff0e02b)" d="M 134.975455 297.910455 
L 137.899145 299.757954 
L 140.822835 302.759529 
L 143.746525 304.029842 
L 146.670215 302.183042 
L 149.593905 306.628308 
L 152.517595 306.794795 
L 155.441285 311.677222 
L 158.364975 312.317319 
L 161.288665 318.649734 
L 164.212356 327.034788 
L 167.136046 329.982966 
L 170.059736 352.45209 
L 172.983426 358.240742 
L 175.907116 368.705334 
L 178.830806 394.736621 
L 181.754496 414.086708 
L 184.678186 316.981472 
L 187.601876 90.798851 
L 190.525567 71.453454 
L 193.449257 225.026802 
L 196.372947 334.659589 
L 199.296637 380.16661 
L 202.220327 314.094527 
L 205.144017 290.936526 
L 208.067707 385.398277 
L 210.991397 513.040912 
L 213.915087 438.046064 
L 216.838777 395.400575 
L 219.762468 343.281894 
L 222.686158 361.71075 
L 225.609848 356.819035 
L 228.533538 392.108265 
L 231.457228 402.270036 
L 234.380918 246.86132 
L 237.304608 71.455576 
L 240.228298 221.31517 
L 243.151988 288.282984 
L 246.075678 71.667982 
L 248.999369 71.871482 
L 251.923059 267.987267 
L 254.846749 354.635256 
L 257.770439 365.852162 
L 260.694129 299.953212 
L 263.617819 376.455835 
L 266.541509 331.760156 
L 269.465199 360.385868 
L 272.388889 438.597382 
L 275.312579 435.208108 
L 278.23627 431.544766 
L 281.15996 389.628958 
L 284.08365 330.556007 
L 287.00734 320.715981 
L 289.93103 362.070308 
L 292.85472 336.609824 
L 295.77841 286.924434 
L 298.7021 330.177804 
L 301.62579 291.760793 
L 304.549481 298.900159 
L 307.473171 335.984366 
L 310.396861 392.96898 
L 313.320551 320.322019 
L 316.244241 353.598469 
L 319.167931 308.436157 
L 322.091621 350.092886 
L 325.015311 409.501925 
L 327.939001 389.868186 
L 330.862691 342.723457 
L 333.786382 310.527327 
L 336.710072 384.909222 
L 339.633762 432.048791 
L 342.557452 418.687092 
L 345.481142 274.059589 
L 348.404832 71.45381 
L 351.328522 303.850063 
L 354.252212 332.615082 
L 357.175902 279.889867 
L 360.099592 220.479675 
L 363.023283 225.833334 
L 365.946973 215.455596 
L 368.870663 208.907495 
L 371.794353 215.529177 
L 374.718043 236.729176 
L 377.641733 298.90329 
L 380.565423 328.950638 
L 383.489113 283.863726 
L 386.412803 320.361214 
L 389.336494 351.247206 
L 392.260184 355.909085 
L 395.183874 353.81531 
L 398.107564 350.429446 
L 401.031254 334.224421 
L 403.954944 347.703408 
L 406.878634 321.996403 
L 409.802324 338.212534 
L 412.726014 359.782132 
L 415.649704 423.729867 
L 418.573395 328.951041 
L 421.497085 343.563902 
L 424.420775 384.293995 
L 427.344465 301.097528 
L 430.268155 342.582663 
L 433.191845 363.482885 
L 436.115535 293.521244 
L 439.039225 357.660844 
L 441.962915 369.119042 
L 444.886605 334.776352 
L 447.810296 293.060926 
L 450.733986 324.619547 
L 453.657676 375.583191 
L 456.581366 420.612526 
L 459.505056 427.181615 
L 462.428746 357.973757 
L 465.352436 375.612539 
L 468.276126 304.355715 
L 471.199816 340.422915 
L 474.123506 278.430767 
L 477.047197 326.220718 
L 479.970887 285.251344 
L 482.894577 381.681205 
L 485.818267 387.270472 
L 488.741957 450.485727 
L 491.665647 505.570356 
L 494.589337 449.95928 
L 497.513027 443.409989 
L 500.436717 419.928319 
L 503.360408 322.639946 
L 506.284098 352.420398 
L 509.207788 393.558917 
L 512.131478 407.303751 
L 515.055168 450.369314 
L 517.978858 379.886596 
L 520.902548 352.72969 
L 523.826238 349.128665 
L 526.749928 375.108234 
L 529.673618 486.100952 
L 532.597309 457.697817 
L 535.520999 377.824354 
L 538.444689 329.887645 
L 544.292069 322.230191 
L 547.215759 352.544052 
L 550.139449 393.917531 
L 553.063139 348.933302 
L 555.986829 362.405066 
L 558.910519 351.700196 
L 561.83421 300.357527 
L 564.7579 321.389781 
L 567.68159 285.879024 
L 570.60528 296.932626 
L 573.52897 219.342198 
L 576.45266 229.506418 
L 579.37635 282.116514 
L 582.30004 227.457609 
L 585.22373 264.318643 
L 588.147421 320.370799 
L 591.071111 322.895579 
L 593.994801 356.729749 
L 596.918491 297.620349 
L 599.842181 376.868353 
L 602.765871 307.315925 
L 605.689561 325.113184 
L 608.613251 437.734078 
L 611.536941 438.409505 
L 614.460631 422.840817 
L 617.384322 410.348649 
L 620.308012 353.86645 
L 623.231702 400.896375 
L 626.155392 486.755776 
L 629.079082 421.117951 
L 632.002772 372.405195 
L 634.926462 352.654763 
L 637.850152 307.12999 
L 640.773842 319.444111 
L 643.697532 303.21014 
L 646.621223 275.726627 
L 649.544913 333.882702 
L 652.468603 367.915698 
L 655.392293 432.32076 
L 658.315983 373.665067 
L 661.239673 471.782412 
L 664.163363 421.229013 
L 667.087053 438.69648 
L 670.010743 347.309149 
L 672.934433 303.991032 
L 675.858124 413.118603 
L 678.781814 415.91217 
L 681.705504 435.936914 
L 684.629194 485.751538 
L 687.552884 393.409518 
L 690.476574 393.867475 
L 693.400264 333.338065 
L 696.323954 340.754577 
L 699.247644 324.483388 
L 702.171335 320.579524 
L 705.095025 334.697857 
L 708.018715 340.315702 
L 710.942405 342.155103 
L 713.866095 342.981889 
L 719.713475 340.288295 
L 722.637165 340.204361 
L 725.560855 342.865335 
L 728.484545 338.071285 
L 728.484545 338.071285 
" style="fill:none;stroke:#dd8452;stroke-dasharray:6,2.25;stroke-dashoffset:0;stroke-width:1.5;"/>
   </g>
   <g id="line2d_3">
    <path clip-path="url(#pfdaff0e02b)" d="M 134.975455 315.178117 
L 137.899145 317.429302 
L 140.822835 321.459986 
L 143.746525 320.4898 
L 146.670215 325.525475 
L 149.593905 330.136667 
L 152.517595 332.200203 
L 155.441285 341.058185 
L 158.364975 346.713931 
L 161.288665 353.535243 
L 164.212356 358.412545 
L 167.136046 355.44728 
L 170.059736 357.250005 
L 172.983426 366.990794 
L 175.907116 377.515237 
L 178.830806 392.39468 
L 181.754496 417.533384 
L 184.678186 308.210362 
L 187.601876 173.826912 
L 190.525567 71.716961 
L 193.449257 183.654241 
L 196.372947 341.761736 
L 199.296637 378.540813 
L 202.220327 371.37717 
L 205.144017 301.696716 
L 208.067707 259.982375 
L 210.991397 242.722374 
L 213.915087 292.3788 
L 216.838777 314.260944 
L 219.762468 282.147436 
L 222.686158 314.082406 
L 225.609848 292.016198 
L 228.533538 326.051153 
L 231.457228 332.838866 
L 234.380918 196.715559 
L 237.304608 71.458389 
L 240.228298 272.527888 
L 243.151988 319.481522 
L 246.075678 77.240665 
L 248.999369 71.463177 
L 251.923059 170.730534 
L 254.846749 341.52487 
L 257.770439 357.846693 
L 260.694129 274.350814 
L 263.617819 352.594265 
L 266.541509 322.298175 
L 269.465199 377.240575 
L 272.388889 396.902542 
L 275.312579 358.247965 
L 278.23627 349.732768 
L 281.15996 299.401596 
L 284.08365 287.984955 
L 287.00734 136.788307 
L 289.93103 222.360073 
L 292.85472 281.364148 
L 295.77841 335.269393 
L 298.7021 384.09489 
L 301.62579 350.438785 
L 304.549481 272.050412 
L 307.473171 295.854003 
L 310.396861 406.394309 
L 313.320551 319.416844 
L 316.244241 375.282958 
L 319.167931 358.342603 
L 322.091621 445.48122 
L 325.015311 441.730568 
L 327.939001 375.118868 
L 330.862691 388.454822 
L 333.786382 327.877122 
L 336.710072 401.056583 
L 339.633762 453.384898 
L 342.557452 461.278921 
L 345.481142 317.232995 
L 348.404832 71.453312 
L 351.328522 99.490891 
L 354.252212 294.892475 
L 357.175902 298.478371 
L 360.099592 212.853589 
L 363.023283 159.141197 
L 365.946973 193.29921 
L 368.870663 253.399259 
L 371.794353 204.191188 
L 374.718043 232.659875 
L 377.641733 276.502359 
L 380.565423 255.368856 
L 383.489113 232.757574 
L 386.412803 274.03617 
L 389.336494 308.820779 
L 392.260184 318.390585 
L 395.183874 312.62035 
L 398.107564 372.113918 
L 401.031254 300.221071 
L 403.954944 347.316513 
L 406.878634 339.811763 
L 409.802324 379.700607 
L 412.726014 362.835459 
L 415.649704 453.526882 
L 418.573395 355.954297 
L 421.497085 367.057885 
L 424.420775 430.419357 
L 427.344465 335.944436 
L 430.268155 321.845517 
L 433.191845 248.356344 
L 436.115535 157.910279 
L 439.039225 351.872542 
L 441.962915 324.33189 
L 444.886605 363.253714 
L 447.810296 329.677643 
L 450.733986 292.063824 
L 453.657676 315.262681 
L 456.581366 441.136434 
L 459.505056 444.336817 
L 462.428746 353.370033 
L 465.352436 384.923949 
L 468.276126 312.187316 
L 471.199816 259.246678 
L 474.123506 212.797359 
L 477.047197 284.412229 
L 479.970887 299.792322 
L 482.894577 350.728646 
L 485.818267 361.418073 
L 488.741957 455.158975 
L 491.665647 464.273902 
L 494.589337 407.071415 
L 497.513027 408.873545 
L 500.436717 377.749672 
L 503.360408 320.401214 
L 506.284098 226.8725 
L 509.207788 344.109694 
L 512.131478 323.826465 
L 515.055168 276.457777 
L 517.978858 344.733386 
L 520.902548 292.708696 
L 523.826238 298.997246 
L 526.749928 383.732638 
L 529.673618 396.37508 
L 532.597309 332.738631 
L 535.520999 381.519353 
L 538.444689 322.224507 
L 541.368379 311.785135 
L 544.292069 355.922972 
L 547.215759 350.072021 
L 550.139449 315.663376 
L 553.063139 245.69056 
L 555.986829 267.989016 
L 558.910519 298.797161 
L 561.83421 163.776762 
L 564.7579 185.878745 
L 567.68159 276.271492 
L 570.60528 321.715252 
L 573.52897 317.484378 
L 576.45266 368.994548 
L 579.37635 345.893355 
L 582.30004 312.612532 
L 585.22373 305.6527 
L 588.147421 256.839517 
L 591.071111 204.645227 
L 593.994801 218.897131 
L 596.918491 251.444546 
L 599.842181 331.158239 
L 602.765871 285.090839 
L 605.689561 347.109921 
L 608.613251 377.78927 
L 611.536941 417.683553 
L 614.460631 428.397797 
L 617.384322 389.256841 
L 620.308012 363.812536 
L 623.231702 408.061172 
L 626.155392 473.817614 
L 629.079082 425.996706 
L 632.002772 393.470837 
L 634.926462 323.257097 
L 637.850152 241.807614 
L 643.697532 326.080081 
L 646.621223 270.966455 
L 649.544913 297.510005 
L 652.468603 266.620829 
L 655.392293 418.319208 
L 658.315983 333.233772 
L 661.239673 320.477837 
L 664.163363 308.45788 
L 667.087053 321.835303 
L 670.010743 160.329596 
L 672.934433 165.792611 
L 675.858124 404.506092 
L 678.781814 400.565884 
L 681.705504 295.448883 
L 684.629194 409.019097 
L 687.552884 462.786941 
L 690.476574 369.971083 
L 693.400264 296.333263 
L 696.323954 320.376675 
L 699.247644 314.097045 
L 702.171335 326.453754 
L 705.095025 333.801951 
L 708.018715 340.634386 
L 710.942405 343.019509 
L 713.866095 342.629186 
L 716.789785 345.654162 
L 719.713475 341.169054 
L 725.560855 344.461749 
L 728.484545 339.337663 
L 728.484545 339.337663 
" style="fill:none;stroke:#55a868;stroke-dasharray:1.5,1.5;stroke-dashoffset:0;stroke-width:1.5;"/>
   </g>
   <g id="line2d_4">
    <path clip-path="url(#pfdaff0e02b)" d="M 134.975455 298.071292 
L 137.899145 299.79066 
L 140.822835 302.973186 
L 143.746525 304.034809 
L 146.670215 302.404308 
L 149.593905 306.716405 
L 152.517595 306.976498 
L 155.441285 311.891631 
L 158.364975 312.654998 
L 161.288665 319.280247 
L 164.212356 327.679888 
L 167.136046 330.602827 
L 170.059736 353.311546 
L 172.983426 358.937437 
L 175.907116 369.611839 
L 178.830806 395.769963 
L 181.754496 416.092876 
L 184.678186 317.693243 
L 187.601876 88.840411 
L 190.525567 71.453465 
L 193.449257 229.94288 
L 196.372947 336.074509 
L 199.296637 383.35447 
L 202.220327 315.663638 
L 205.144017 287.333751 
L 208.067707 391.309043 
L 210.991397 509.143834 
L 213.915087 451.479437 
L 216.838777 389.139064 
L 219.762468 343.376357 
L 222.686158 362.239401 
L 225.609848 356.565518 
L 228.533538 393.012461 
L 231.457228 404.434174 
L 234.380918 245.142599 
L 237.304608 71.454619 
L 240.228298 230.606274 
L 243.151988 291.954179 
L 246.075678 71.621471 
L 248.999369 71.889397 
L 251.923059 264.146297 
L 254.846749 358.714597 
L 257.770439 366.060258 
L 260.694129 303.447636 
L 263.617819 382.556158 
L 266.541509 329.233329 
L 269.465199 363.840712 
L 272.388889 446.593302 
L 275.312579 444.146212 
L 278.23627 436.2574 
L 281.15996 387.983013 
L 284.08365 327.356341 
L 287.00734 326.780781 
L 289.93103 362.090439 
L 292.85472 327.257068 
L 295.77841 287.505748 
L 298.7021 329.588969 
L 301.62579 292.266235 
L 304.549481 301.593963 
L 307.473171 336.415266 
L 310.396861 390.937102 
L 313.320551 317.469512 
L 316.244241 357.853794 
L 319.167931 319.499222 
L 322.091621 409.674481 
L 325.015311 412.392001 
L 327.939001 376.795595 
L 330.862691 352.112277 
L 333.786382 314.617022 
L 336.710072 382.885004 
L 339.633762 436.973684 
L 342.557452 443.311836 
L 345.481142 319.158255 
L 348.404832 75.684279 
L 351.328522 71.455826 
L 354.252212 316.174188 
L 357.175902 389.904949 
L 360.099592 288.394692 
L 363.023283 368.638767 
L 365.946973 252.737124 
L 368.870663 234.551012 
L 371.794353 255.254629 
L 374.718043 283.522689 
L 377.641733 298.49434 
L 380.565423 336.071431 
L 383.489113 281.812154 
L 386.412803 323.968973 
L 389.336494 351.186988 
L 392.260184 352.282629 
L 395.183874 352.364727 
L 398.107564 351.49315 
L 401.031254 337.603534 
L 403.954944 341.88637 
L 406.878634 317.423898 
L 409.802324 340.229441 
L 412.726014 357.492469 
L 415.649704 424.327499 
L 418.573395 329.139827 
L 421.497085 351.844681 
L 424.420775 394.039436 
L 427.344465 307.760608 
L 430.268155 342.485803 
L 433.191845 360.022374 
L 436.115535 293.785273 
L 439.039225 353.9716 
L 441.962915 367.660449 
L 444.886605 333.234874 
L 447.810296 290.310752 
L 450.733986 323.451498 
L 453.657676 379.054073 
L 456.581366 424.872696 
L 459.505056 430.635987 
L 462.428746 361.815427 
L 465.352436 383.952976 
L 468.276126 314.212129 
L 471.199816 345.065537 
L 474.123506 285.939469 
L 477.047197 328.543822 
L 479.970887 282.868285 
L 482.894577 379.822023 
L 485.818267 387.843233 
L 488.741957 451.380234 
L 491.665647 509.545439 
L 494.589337 452.302445 
L 497.513027 443.510452 
L 500.436717 421.560832 
L 503.360408 321.498481 
L 506.284098 348.32299 
L 509.207788 395.637634 
L 512.131478 404.334271 
L 515.055168 463.071502 
L 517.978858 372.483305 
L 520.902548 352.239079 
L 523.826238 352.836082 
L 526.749928 374.93155 
L 529.673618 479.98125 
L 532.597309 459.000749 
L 535.520999 390.59171 
L 538.444689 339.535055 
L 541.368379 328.946826 
L 544.292069 325.761484 
L 547.215759 342.516393 
L 550.139449 403.288407 
L 553.063139 323.736934 
L 555.986829 365.950036 
L 558.910519 395.410614 
L 561.83421 339.489826 
L 564.7579 292.330703 
L 567.68159 168.04816 
L 570.60528 312.649769 
L 573.52897 250.942829 
L 576.45266 274.062405 
L 579.37635 351.628942 
L 582.30004 319.37179 
L 585.22373 337.989065 
L 588.147421 339.663746 
L 591.071111 321.795583 
L 593.994801 376.687017 
L 596.918491 321.213098 
L 599.842181 377.922753 
L 602.765871 328.602081 
L 605.689561 335.339423 
L 608.613251 433.111761 
L 611.536941 437.402153 
L 614.460631 437.293086 
L 617.384322 414.181433 
L 620.308012 353.165488 
L 623.231702 402.315545 
L 626.155392 486.323949 
L 629.079082 423.174666 
L 632.002772 373.814186 
L 634.926462 354.254657 
L 637.850152 309.067632 
L 640.773842 323.408105 
L 643.697532 304.064157 
L 646.621223 276.001639 
L 649.544913 332.151791 
L 652.468603 369.07899 
L 655.392293 433.852671 
L 658.315983 372.711934 
L 661.239673 471.565886 
L 664.163363 421.814297 
L 667.087053 439.039528 
L 670.010743 351.30111 
L 672.934433 308.089611 
L 675.858124 415.220932 
L 678.781814 415.830981 
L 681.705504 433.160558 
L 684.629194 484.540778 
L 687.552884 392.164337 
L 690.476574 394.684361 
L 693.400264 334.642571 
L 696.323954 340.539346 
L 699.247644 324.938739 
L 702.171335 321.087782 
L 705.095025 334.698189 
L 708.018715 340.852276 
L 710.942405 343.299034 
L 713.866095 344.729765 
L 716.789785 342.877666 
L 719.713475 341.366149 
L 722.637165 341.27597 
L 725.560855 343.982297 
L 728.484545 340.046654 
L 728.484545 340.046654 
" style="fill:none;stroke:#c44e52;stroke-dasharray:4.5,1.875,2.25,1.875;stroke-dashoffset:0;stroke-width:1.5;"/>
   </g>
   <g id="line2d_5">
    <path clip-path="url(#pfdaff0e02b)" d="M 134.975455 303.062367 
L 137.899145 304.780144 
L 140.822835 307.584466 
L 143.746525 309.05434 
L 146.670215 307.268668 
L 149.593905 311.188622 
L 152.517595 312.075503 
L 155.441285 315.518664 
L 158.364975 316.012808 
L 161.288665 322.778432 
L 164.212356 330.101723 
L 167.136046 332.843501 
L 170.059736 355.364413 
L 172.983426 361.034623 
L 175.907116 370.308604 
L 178.830806 396.831113 
L 181.754496 425.050639 
L 184.678186 328.034549 
L 187.601876 126.713395 
L 190.525567 71.453187 
L 193.449257 232.427608 
L 196.372947 348.558003 
L 199.296637 405.116667 
L 202.220327 325.890857 
L 205.144017 281.548125 
L 208.067707 396.545397 
L 210.991397 521.504758 
L 213.915087 447.856182 
L 216.838777 397.440569 
L 219.762468 340.877269 
L 222.686158 366.833279 
L 225.609848 370.45503 
L 228.533538 405.456077 
L 231.457228 411.081828 
L 234.380918 245.802093 
L 237.304608 71.454263 
L 240.228298 233.657013 
L 243.151988 295.495459 
L 246.075678 71.602563 
L 248.999369 72.073139 
L 251.923059 280.116782 
L 254.846749 367.627743 
L 257.770439 378.478059 
L 260.694129 298.737957 
L 263.617819 377.228856 
L 266.541509 332.498004 
L 269.465199 370.680021 
L 272.388889 450.321427 
L 275.312579 449.748351 
L 278.23627 445.665949 
L 281.15996 406.686111 
L 284.08365 338.891477 
L 287.00734 330.031535 
L 289.93103 366.952211 
L 292.85472 332.438556 
L 295.77841 290.465346 
L 298.7021 326.709737 
L 301.62579 289.233861 
L 304.549481 295.072009 
L 307.473171 330.333639 
L 310.396861 393.757988 
L 313.320551 325.613711 
L 316.244241 353.600953 
L 319.167931 321.188699 
L 322.091621 380.78544 
L 325.015311 414.939378 
L 327.939001 339.761532 
L 330.862691 312.396706 
L 333.786382 288.110078 
L 336.710072 349.224195 
L 339.633762 400.972806 
L 342.557452 380.254165 
L 345.481142 273.400078 
L 348.404832 71.475938 
L 351.328522 73.966455 
L 354.252212 298.020694 
L 357.175902 405.594213 
L 360.099592 405.692087 
L 363.023283 463.445018 
L 365.946973 330.766586 
L 368.870663 323.41274 
L 371.794353 310.076471 
L 374.718043 366.934686 
L 377.641733 417.142448 
L 380.565423 410.984513 
L 383.489113 357.93367 
L 386.412803 326.600915 
L 389.336494 348.864007 
L 392.260184 351.30954 
L 395.183874 373.176223 
L 398.107564 337.835188 
L 401.031254 352.362838 
L 403.954944 353.021598 
L 406.878634 329.308028 
L 409.802324 376.958601 
L 412.726014 369.206806 
L 415.649704 457.131108 
L 418.573395 348.702819 
L 421.497085 368.452429 
L 424.420775 417.719407 
L 427.344465 332.065425 
L 430.268155 352.875539 
L 433.191845 370.849149 
L 436.115535 298.000913 
L 439.039225 353.737199 
L 441.962915 374.804608 
L 444.886605 348.528847 
L 447.810296 304.220343 
L 450.733986 328.917862 
L 453.657676 362.241412 
L 456.581366 415.625649 
L 459.505056 414.865815 
L 462.428746 364.045257 
L 465.352436 390.190386 
L 468.276126 329.755176 
L 471.199816 351.835166 
L 474.123506 284.768989 
L 477.047197 303.313663 
L 479.970887 276.983018 
L 482.894577 378.142427 
L 485.818267 396.475927 
L 488.741957 363.022479 
L 491.665647 419.100589 
L 494.589337 340.228164 
L 497.513027 438.888135 
L 500.436717 404.755954 
L 503.360408 382.379964 
L 506.284098 408.495412 
L 509.207788 322.902505 
L 512.131478 378.624275 
L 515.055168 362.292728 
L 517.978858 421.72076 
L 520.902548 436.603562 
L 523.826238 414.687313 
L 526.749928 364.389075 
L 529.673618 339.463678 
L 532.597309 248.480191 
L 535.520999 324.827678 
L 538.444689 304.741106 
L 541.368379 297.876734 
L 544.292069 127.383505 
L 547.215759 172.630958 
L 550.139449 191.87948 
L 553.063139 191.881798 
L 555.986829 222.172738 
L 558.910519 173.652826 
L 561.83421 161.581483 
L 564.7579 148.400009 
L 567.68159 171.165719 
L 570.60528 251.190925 
L 573.52897 299.164153 
L 576.45266 296.30715 
L 579.37635 316.923423 
L 582.30004 294.825068 
L 585.22373 312.25481 
L 588.147421 340.31369 
L 591.071111 288.142802 
L 593.994801 351.558825 
L 596.918491 319.233182 
L 599.842181 367.309006 
L 602.765871 335.806528 
L 605.689561 315.127781 
L 608.613251 411.434425 
L 611.536941 431.053892 
L 614.460631 441.774503 
L 617.384322 404.391358 
L 620.308012 356.430846 
L 623.231702 393.756553 
L 626.155392 480.129985 
L 629.079082 427.080314 
L 632.002772 371.149976 
L 634.926462 334.450619 
L 637.850152 304.927864 
L 640.773842 307.03425 
L 643.697532 290.563517 
L 646.621223 268.453987 
L 649.544913 321.240015 
L 652.468603 367.414086 
L 655.392293 423.918723 
L 658.315983 366.258454 
L 661.239673 458.740149 
L 664.163363 414.130502 
L 667.087053 441.654277 
L 670.010743 352.074551 
L 672.934433 316.30566 
L 675.858124 412.528597 
L 678.781814 403.074714 
L 681.705504 432.026754 
L 684.629194 474.305898 
L 687.552884 386.483913 
L 690.476574 385.606827 
L 693.400264 331.745376 
L 696.323954 338.176435 
L 699.247644 329.046378 
L 702.171335 320.525742 
L 705.095025 333.797543 
L 708.018715 337.027327 
L 710.942405 337.311626 
L 713.866095 338.146474 
L 716.789785 337.512551 
L 719.713475 336.997384 
L 722.637165 333.884469 
L 725.560855 337.076474 
L 728.484545 332.882784 
L 728.484545 332.882784 
" style="fill:none;stroke:#8172b3;stroke-dasharray:7.5,1.5,1.5,1.5;stroke-dashoffset:0;stroke-width:1.5;"/>
   </g>
   <g id="line2d_6"/>
   <g id="line2d_7"/>
   <g id="line2d_8"/>
   <g id="line2d_9"/>
   <g id="line2d_10"/>
   <g id="patch_3">
    <path d="M 105.3 529.9416 
L 105.3 71.4528 
" style="fill:none;stroke:#262626;stroke-linecap:square;stroke-linejoin:miter;stroke-width:1.25;"/>
   </g>
   <g id="patch_4">
    <path d="M 758.16 529.9416 
L 758.16 71.4528 
" style="fill:none;stroke:#262626;stroke-linecap:square;stroke-linejoin:miter;stroke-width:1.25;"/>
   </g>
   <g id="patch_5">
    <path d="M 105.3 529.9416 
L 758.16 529.9416 
" style="fill:none;stroke:#262626;stroke-linecap:square;stroke-linejoin:miter;stroke-width:1.25;"/>
   </g>
   <g id="patch_6">
    <path d="M 105.3 71.4528 
L 758.16 71.4528 
" style="fill:none;stroke:#262626;stroke-linecap:square;stroke-linejoin:miter;stroke-width:1.25;"/>
   </g>
   <g id="text_16">
    <!-- Activations for &gt;H&lt; -->
    <g style="fill:#262626;" transform="translate(381.04125 65.4528)scale(0.12 -0.12)">
     <defs>
      <path d="M -9 0 
L 1750 4581 
L 2403 4581 
L 4278 0 
L 3588 0 
L 3053 1388 
L 1138 1388 
L 634 0 
L -9 0 
z
M 1313 1881 
L 2866 1881 
L 2388 3150 
Q 2169 3728 2063 4100 
Q 1975 3659 1816 3225 
L 1313 1881 
z
" id="ArialMT-41" transform="scale(0.015625)"/>
      <path d="M 2588 1216 
L 3141 1144 
Q 3050 572 2676 248 
Q 2303 -75 1759 -75 
Q 1078 -75 664 370 
Q 250 816 250 1647 
Q 250 2184 428 2587 
Q 606 2991 970 3192 
Q 1334 3394 1763 3394 
Q 2303 3394 2647 3120 
Q 2991 2847 3088 2344 
L 2541 2259 
Q 2463 2594 2264 2762 
Q 2066 2931 1784 2931 
Q 1359 2931 1093 2626 
Q 828 2322 828 1663 
Q 828 994 1084 691 
Q 1341 388 1753 388 
Q 2084 388 2306 591 
Q 2528 794 2588 1216 
z
" id="ArialMT-63" transform="scale(0.015625)"/>
      <path d="M 1650 503 
L 1731 6 
Q 1494 -44 1306 -44 
Q 1000 -44 831 53 
Q 663 150 594 308 
Q 525 466 525 972 
L 525 2881 
L 113 2881 
L 113 3319 
L 525 3319 
L 525 4141 
L 1084 4478 
L 1084 3319 
L 1650 3319 
L 1650 2881 
L 1084 2881 
L 1084 941 
Q 1084 700 1114 631 
Q 1144 563 1211 522 
Q 1278 481 1403 481 
Q 1497 481 1650 503 
z
" id="ArialMT-74" transform="scale(0.015625)"/>
      <path d="M 425 3934 
L 425 4581 
L 988 4581 
L 988 3934 
L 425 3934 
z
M 425 0 
L 425 3319 
L 988 3319 
L 988 0 
L 425 0 
z
" id="ArialMT-69" transform="scale(0.015625)"/>
      <path d="M 1344 0 
L 81 3319 
L 675 3319 
L 1388 1331 
Q 1503 1009 1600 663 
Q 1675 925 1809 1294 
L 2547 3319 
L 3125 3319 
L 1869 0 
L 1344 0 
z
" id="ArialMT-76" transform="scale(0.015625)"/>
      <path d="M 2588 409 
Q 2275 144 1986 34 
Q 1697 -75 1366 -75 
Q 819 -75 525 192 
Q 231 459 231 875 
Q 231 1119 342 1320 
Q 453 1522 633 1644 
Q 813 1766 1038 1828 
Q 1203 1872 1538 1913 
Q 2219 1994 2541 2106 
Q 2544 2222 2544 2253 
Q 2544 2597 2384 2738 
Q 2169 2928 1744 2928 
Q 1347 2928 1158 2789 
Q 969 2650 878 2297 
L 328 2372 
Q 403 2725 575 2942 
Q 747 3159 1072 3276 
Q 1397 3394 1825 3394 
Q 2250 3394 2515 3294 
Q 2781 3194 2906 3042 
Q 3031 2891 3081 2659 
Q 3109 2516 3109 2141 
L 3109 1391 
Q 3109 606 3145 398 
Q 3181 191 3288 0 
L 2700 0 
Q 2613 175 2588 409 
z
M 2541 1666 
Q 2234 1541 1622 1453 
Q 1275 1403 1131 1340 
Q 988 1278 909 1158 
Q 831 1038 831 891 
Q 831 666 1001 516 
Q 1172 366 1500 366 
Q 1825 366 2078 508 
Q 2331 650 2450 897 
Q 2541 1088 2541 1459 
L 2541 1666 
z
" id="ArialMT-61" transform="scale(0.015625)"/>
      <path d="M 213 1659 
Q 213 2581 725 3025 
Q 1153 3394 1769 3394 
Q 2453 3394 2887 2945 
Q 3322 2497 3322 1706 
Q 3322 1066 3130 698 
Q 2938 331 2570 128 
Q 2203 -75 1769 -75 
Q 1072 -75 642 372 
Q 213 819 213 1659 
z
M 791 1659 
Q 791 1022 1069 705 
Q 1347 388 1769 388 
Q 2188 388 2466 706 
Q 2744 1025 2744 1678 
Q 2744 2294 2464 2611 
Q 2184 2928 1769 2928 
Q 1347 2928 1069 2612 
Q 791 2297 791 1659 
z
" id="ArialMT-6f" transform="scale(0.015625)"/>
      <path d="M 422 0 
L 422 3319 
L 928 3319 
L 928 2847 
Q 1294 3394 1984 3394 
Q 2284 3394 2536 3286 
Q 2788 3178 2913 3003 
Q 3038 2828 3088 2588 
Q 3119 2431 3119 2041 
L 3119 0 
L 2556 0 
L 2556 2019 
Q 2556 2363 2490 2533 
Q 2425 2703 2258 2804 
Q 2091 2906 1866 2906 
Q 1506 2906 1245 2678 
Q 984 2450 984 1813 
L 984 0 
L 422 0 
z
" id="ArialMT-6e" transform="scale(0.015625)"/>
      <path d="M 197 991 
L 753 1078 
Q 800 744 1014 566 
Q 1228 388 1613 388 
Q 2000 388 2187 545 
Q 2375 703 2375 916 
Q 2375 1106 2209 1216 
Q 2094 1291 1634 1406 
Q 1016 1563 777 1677 
Q 538 1791 414 1992 
Q 291 2194 291 2438 
Q 291 2659 392 2848 
Q 494 3038 669 3163 
Q 800 3259 1026 3326 
Q 1253 3394 1513 3394 
Q 1903 3394 2198 3281 
Q 2494 3169 2634 2976 
Q 2775 2784 2828 2463 
L 2278 2388 
Q 2241 2644 2061 2787 
Q 1881 2931 1553 2931 
Q 1166 2931 1000 2803 
Q 834 2675 834 2503 
Q 834 2394 903 2306 
Q 972 2216 1119 2156 
Q 1203 2125 1616 2013 
Q 2213 1853 2448 1751 
Q 2684 1650 2818 1456 
Q 2953 1263 2953 975 
Q 2953 694 2789 445 
Q 2625 197 2315 61 
Q 2006 -75 1616 -75 
Q 969 -75 630 194 
Q 291 463 197 991 
z
" id="ArialMT-73" transform="scale(0.015625)"/>
      <path id="ArialMT-20" transform="scale(0.015625)"/>
      <path d="M 556 0 
L 556 2881 
L 59 2881 
L 59 3319 
L 556 3319 
L 556 3672 
Q 556 4006 616 4169 
Q 697 4388 901 4523 
Q 1106 4659 1475 4659 
Q 1713 4659 2000 4603 
L 1916 4113 
Q 1741 4144 1584 4144 
Q 1328 4144 1222 4034 
Q 1116 3925 1116 3625 
L 1116 3319 
L 1763 3319 
L 1763 2881 
L 1116 2881 
L 1116 0 
L 556 0 
z
" id="ArialMT-66" transform="scale(0.015625)"/>
      <path d="M 416 0 
L 416 3319 
L 922 3319 
L 922 2816 
Q 1116 3169 1280 3281 
Q 1444 3394 1641 3394 
Q 1925 3394 2219 3213 
L 2025 2691 
Q 1819 2813 1613 2813 
Q 1428 2813 1281 2702 
Q 1134 2591 1072 2394 
Q 978 2094 978 1738 
L 978 0 
L 416 0 
z
" id="ArialMT-72" transform="scale(0.015625)"/>
      <path d="M 3384 2003 
L 350 706 
L 350 1266 
L 2753 2263 
L 350 3250 
L 350 3809 
L 3384 2528 
L 3384 2003 
z
" id="ArialMT-3e" transform="scale(0.015625)"/>
      <path d="M 513 0 
L 513 4581 
L 1119 4581 
L 1119 2700 
L 3500 2700 
L 3500 4581 
L 4106 4581 
L 4106 0 
L 3500 0 
L 3500 2159 
L 1119 2159 
L 1119 0 
L 513 0 
z
" id="ArialMT-48" transform="scale(0.015625)"/>
      <path d="M 350 2003 
L 350 2528 
L 3384 3809 
L 3384 3250 
L 978 2263 
L 3384 1266 
L 3384 706 
L 350 2003 
z
" id="ArialMT-3c" transform="scale(0.015625)"/>
     </defs>
     <use xlink:href="#ArialMT-41"/>
     <use x="66.699219" xlink:href="#ArialMT-63"/>
     <use x="116.699219" xlink:href="#ArialMT-74"/>
     <use x="144.482422" xlink:href="#ArialMT-69"/>
     <use x="166.699219" xlink:href="#ArialMT-76"/>
     <use x="216.699219" xlink:href="#ArialMT-61"/>
     <use x="272.314453" xlink:href="#ArialMT-74"/>
     <use x="300.097656" xlink:href="#ArialMT-69"/>
     <use x="322.314453" xlink:href="#ArialMT-6f"/>
     <use x="377.929688" xlink:href="#ArialMT-6e"/>
     <use x="433.544922" xlink:href="#ArialMT-73"/>
     <use x="483.544922" xlink:href="#ArialMT-20"/>
     <use x="511.328125" xlink:href="#ArialMT-66"/>
     <use x="539.111328" xlink:href="#ArialMT-6f"/>
     <use x="594.726562" xlink:href="#ArialMT-72"/>
     <use x="628.027344" xlink:href="#ArialMT-20"/>
     <use x="655.810547" xlink:href="#ArialMT-3e"/>
     <use x="714.208984" xlink:href="#ArialMT-48"/>
     <use x="786.425781" xlink:href="#ArialMT-3c"/>
    </g>
   </g>
   <g id="legend_1">
    <g id="patch_7">
     <path d="M 640.044062 158.514363 
L 750.46 158.514363 
Q 752.66 158.514363 752.66 156.314363 
L 752.66 79.1528 
Q 752.66 76.9528 750.46 76.9528 
L 640.044062 76.9528 
Q 637.844062 76.9528 637.844062 79.1528 
L 637.844062 156.314363 
Q 637.844062 158.514363 640.044062 158.514363 
z
" style="fill:#ffffff;opacity:0.8;stroke:#cccccc;stroke-linejoin:miter;"/>
    </g>
    <g id="line2d_11">
     <path d="M 642.244062 85.376394 
L 664.244062 85.376394 
" style="fill:none;stroke:#4c72b0;stroke-linecap:round;stroke-width:1.5;"/>
    </g>
    <g id="line2d_12"/>
    <g id="text_17">
     <!-- regular -->
     <g style="fill:#262626;" transform="translate(673.044062 89.226394)scale(0.11 -0.11)">
      <defs>
       <path d="M 2694 1069 
L 3275 997 
Q 3138 488 2766 206 
Q 2394 -75 1816 -75 
Q 1088 -75 661 373 
Q 234 822 234 1631 
Q 234 2469 665 2931 
Q 1097 3394 1784 3394 
Q 2450 3394 2872 2941 
Q 3294 2488 3294 1666 
Q 3294 1616 3291 1516 
L 816 1516 
Q 847 969 1125 678 
Q 1403 388 1819 388 
Q 2128 388 2347 550 
Q 2566 713 2694 1069 
z
M 847 1978 
L 2700 1978 
Q 2663 2397 2488 2606 
Q 2219 2931 1791 2931 
Q 1403 2931 1139 2672 
Q 875 2413 847 1978 
z
" id="ArialMT-65" transform="scale(0.015625)"/>
       <path d="M 319 -275 
L 866 -356 
Q 900 -609 1056 -725 
Q 1266 -881 1628 -881 
Q 2019 -881 2231 -725 
Q 2444 -569 2519 -288 
Q 2563 -116 2559 434 
Q 2191 0 1641 0 
Q 956 0 581 494 
Q 206 988 206 1678 
Q 206 2153 378 2554 
Q 550 2956 876 3175 
Q 1203 3394 1644 3394 
Q 2231 3394 2613 2919 
L 2613 3319 
L 3131 3319 
L 3131 450 
Q 3131 -325 2973 -648 
Q 2816 -972 2473 -1159 
Q 2131 -1347 1631 -1347 
Q 1038 -1347 672 -1080 
Q 306 -813 319 -275 
z
M 784 1719 
Q 784 1066 1043 766 
Q 1303 466 1694 466 
Q 2081 466 2343 764 
Q 2606 1063 2606 1700 
Q 2606 2309 2336 2618 
Q 2066 2928 1684 2928 
Q 1309 2928 1046 2623 
Q 784 2319 784 1719 
z
" id="ArialMT-67" transform="scale(0.015625)"/>
       <path d="M 2597 0 
L 2597 488 
Q 2209 -75 1544 -75 
Q 1250 -75 995 37 
Q 741 150 617 320 
Q 494 491 444 738 
Q 409 903 409 1263 
L 409 3319 
L 972 3319 
L 972 1478 
Q 972 1038 1006 884 
Q 1059 663 1231 536 
Q 1403 409 1656 409 
Q 1909 409 2131 539 
Q 2353 669 2445 892 
Q 2538 1116 2538 1541 
L 2538 3319 
L 3100 3319 
L 3100 0 
L 2597 0 
z
" id="ArialMT-75" transform="scale(0.015625)"/>
       <path d="M 409 0 
L 409 4581 
L 972 4581 
L 972 0 
L 409 0 
z
" id="ArialMT-6c" transform="scale(0.015625)"/>
      </defs>
      <use xlink:href="#ArialMT-72"/>
      <use x="33.300781" xlink:href="#ArialMT-65"/>
      <use x="88.916016" xlink:href="#ArialMT-67"/>
      <use x="144.53125" xlink:href="#ArialMT-75"/>
      <use x="200.146484" xlink:href="#ArialMT-6c"/>
      <use x="222.363281" xlink:href="#ArialMT-61"/>
      <use x="277.978516" xlink:href="#ArialMT-72"/>
     </g>
    </g>
    <g id="line2d_13">
     <path d="M 642.244062 101.0978 
L 664.244062 101.0978 
" style="fill:none;stroke:#dd8452;stroke-dasharray:6,2.25;stroke-dashoffset:0;stroke-width:1.5;"/>
    </g>
    <g id="line2d_14"/>
    <g id="text_18">
     <!-- splitted_3s -->
     <g style="fill:#262626;" transform="translate(673.044062 104.9478)scale(0.11 -0.11)">
      <defs>
       <path d="M 422 -1272 
L 422 3319 
L 934 3319 
L 934 2888 
Q 1116 3141 1344 3267 
Q 1572 3394 1897 3394 
Q 2322 3394 2647 3175 
Q 2972 2956 3137 2557 
Q 3303 2159 3303 1684 
Q 3303 1175 3120 767 
Q 2938 359 2589 142 
Q 2241 -75 1856 -75 
Q 1575 -75 1351 44 
Q 1128 163 984 344 
L 984 -1272 
L 422 -1272 
z
M 931 1641 
Q 931 1000 1190 694 
Q 1450 388 1819 388 
Q 2194 388 2461 705 
Q 2728 1022 2728 1688 
Q 2728 2322 2467 2637 
Q 2206 2953 1844 2953 
Q 1484 2953 1207 2617 
Q 931 2281 931 1641 
z
" id="ArialMT-70" transform="scale(0.015625)"/>
       <path d="M 2575 0 
L 2575 419 
Q 2259 -75 1647 -75 
Q 1250 -75 917 144 
Q 584 363 401 755 
Q 219 1147 219 1656 
Q 219 2153 384 2558 
Q 550 2963 881 3178 
Q 1213 3394 1622 3394 
Q 1922 3394 2156 3267 
Q 2391 3141 2538 2938 
L 2538 4581 
L 3097 4581 
L 3097 0 
L 2575 0 
z
M 797 1656 
Q 797 1019 1065 703 
Q 1334 388 1700 388 
Q 2069 388 2326 689 
Q 2584 991 2584 1609 
Q 2584 2291 2321 2609 
Q 2059 2928 1675 2928 
Q 1300 2928 1048 2622 
Q 797 2316 797 1656 
z
" id="ArialMT-64" transform="scale(0.015625)"/>
       <path d="M -97 -1272 
L -97 -866 
L 3631 -866 
L 3631 -1272 
L -97 -1272 
z
" id="ArialMT-5f" transform="scale(0.015625)"/>
       <path d="M 269 1209 
L 831 1284 
Q 928 806 1161 595 
Q 1394 384 1728 384 
Q 2125 384 2398 659 
Q 2672 934 2672 1341 
Q 2672 1728 2419 1979 
Q 2166 2231 1775 2231 
Q 1616 2231 1378 2169 
L 1441 2663 
Q 1497 2656 1531 2656 
Q 1891 2656 2178 2843 
Q 2466 3031 2466 3422 
Q 2466 3731 2256 3934 
Q 2047 4138 1716 4138 
Q 1388 4138 1169 3931 
Q 950 3725 888 3313 
L 325 3413 
Q 428 3978 793 4289 
Q 1159 4600 1703 4600 
Q 2078 4600 2393 4439 
Q 2709 4278 2876 4000 
Q 3044 3722 3044 3409 
Q 3044 3113 2884 2869 
Q 2725 2625 2413 2481 
Q 2819 2388 3044 2092 
Q 3269 1797 3269 1353 
Q 3269 753 2831 336 
Q 2394 -81 1725 -81 
Q 1122 -81 723 278 
Q 325 638 269 1209 
z
" id="ArialMT-33" transform="scale(0.015625)"/>
      </defs>
      <use xlink:href="#ArialMT-73"/>
      <use x="50" xlink:href="#ArialMT-70"/>
      <use x="105.615234" xlink:href="#ArialMT-6c"/>
      <use x="127.832031" xlink:href="#ArialMT-69"/>
      <use x="150.048828" xlink:href="#ArialMT-74"/>
      <use x="177.832031" xlink:href="#ArialMT-74"/>
      <use x="205.615234" xlink:href="#ArialMT-65"/>
      <use x="261.230469" xlink:href="#ArialMT-64"/>
      <use x="316.845703" xlink:href="#ArialMT-5f"/>
      <use x="372.460938" xlink:href="#ArialMT-33"/>
      <use x="428.076172" xlink:href="#ArialMT-73"/>
     </g>
    </g>
    <g id="line2d_15">
     <path d="M 642.244062 116.6903 
L 664.244062 116.6903 
" style="fill:none;stroke:#55a868;stroke-dasharray:1.5,1.5;stroke-dashoffset:0;stroke-width:1.5;"/>
    </g>
    <g id="line2d_16"/>
    <g id="text_19">
     <!-- splitted_1s -->
     <g style="fill:#262626;" transform="translate(673.044062 120.5403)scale(0.11 -0.11)">
      <use xlink:href="#ArialMT-73"/>
      <use x="50" xlink:href="#ArialMT-70"/>
      <use x="105.615234" xlink:href="#ArialMT-6c"/>
      <use x="127.832031" xlink:href="#ArialMT-69"/>
      <use x="150.048828" xlink:href="#ArialMT-74"/>
      <use x="177.832031" xlink:href="#ArialMT-74"/>
      <use x="205.615234" xlink:href="#ArialMT-65"/>
      <use x="261.230469" xlink:href="#ArialMT-64"/>
      <use x="316.845703" xlink:href="#ArialMT-5f"/>
      <use x="372.460938" xlink:href="#ArialMT-31"/>
      <use x="428.076172" xlink:href="#ArialMT-73"/>
     </g>
    </g>
    <g id="line2d_17">
     <path d="M 642.244062 132.384206 
L 664.244062 132.384206 
" style="fill:none;stroke:#c44e52;stroke-dasharray:4.5,1.875,2.25,1.875;stroke-dashoffset:0;stroke-width:1.5;"/>
    </g>
    <g id="line2d_18"/>
    <g id="text_20">
     <!-- overlap_1f_3s -->
     <g style="fill:#262626;" transform="translate(673.044062 136.234206)scale(0.11 -0.11)">
      <use xlink:href="#ArialMT-6f"/>
      <use x="55.615234" xlink:href="#ArialMT-76"/>
      <use x="105.615234" xlink:href="#ArialMT-65"/>
      <use x="161.230469" xlink:href="#ArialMT-72"/>
      <use x="194.53125" xlink:href="#ArialMT-6c"/>
      <use x="216.748047" xlink:href="#ArialMT-61"/>
      <use x="272.363281" xlink:href="#ArialMT-70"/>
      <use x="327.978516" xlink:href="#ArialMT-5f"/>
      <use x="383.59375" xlink:href="#ArialMT-31"/>
      <use x="439.208984" xlink:href="#ArialMT-66"/>
      <use x="466.992188" xlink:href="#ArialMT-5f"/>
      <use x="522.607422" xlink:href="#ArialMT-33"/>
      <use x="578.222656" xlink:href="#ArialMT-73"/>
     </g>
    </g>
    <g id="line2d_19">
     <path d="M 642.244062 148.078113 
L 664.244062 148.078113 
" style="fill:none;stroke:#8172b3;stroke-dasharray:7.5,1.5,1.5,1.5;stroke-dashoffset:0;stroke-width:1.5;"/>
    </g>
    <g id="line2d_20"/>
    <g id="text_21">
     <!-- overlap_10f_3s -->
     <g style="fill:#262626;" transform="translate(673.044062 151.928112)scale(0.11 -0.11)">
      <use xlink:href="#ArialMT-6f"/>
      <use x="55.615234" xlink:href="#ArialMT-76"/>
      <use x="105.615234" xlink:href="#ArialMT-65"/>
      <use x="161.230469" xlink:href="#ArialMT-72"/>
      <use x="194.53125" xlink:href="#ArialMT-6c"/>
      <use x="216.748047" xlink:href="#ArialMT-61"/>
      <use x="272.363281" xlink:href="#ArialMT-70"/>
      <use x="327.978516" xlink:href="#ArialMT-5f"/>
      <use x="383.59375" xlink:href="#ArialMT-31"/>
      <use x="439.208984" xlink:href="#ArialMT-30"/>
      <use x="494.824219" xlink:href="#ArialMT-66"/>
      <use x="522.607422" xlink:href="#ArialMT-5f"/>
      <use x="578.222656" xlink:href="#ArialMT-33"/>
      <use x="633.837891" xlink:href="#ArialMT-73"/>
     </g>
    </g>
   </g>
  </g>
 </g>
 <defs>
  <clipPath id="pfdaff0e02b">
   <rect height="458.4888" width="652.86" x="105.3" y="71.4528"/>
  </clipPath>
 </defs>
</svg>
