<?xml version="1.0" encoding="utf-8" standalone="no"?>
<!DOCTYPE svg PUBLIC "-//W3C//DTD SVG 1.1//EN"
  "http://www.w3.org/Graphics/SVG/1.1/DTD/svg11.dtd">
<svg height="595.44pt" version="1.1" viewBox="0 0 842.4 595.44" width="842.4pt" xmlns="http://www.w3.org/2000/svg" xmlns:xlink="http://www.w3.org/1999/xlink">
 <metadata>
  <rdf:RDF xmlns:cc="http://creativecommons.org/ns#" xmlns:dc="http://purl.org/dc/elements/1.1/" xmlns:rdf="http://www.w3.org/1999/02/22-rdf-syntax-ns#">
   <cc:Work>
    <dc:type rdf:resource="http://purl.org/dc/dcmitype/StillImage"/>
    <dc:date>2021-06-01T00:54:09.526217</dc:date>
    <dc:format>image/svg+xml</dc:format>
    <dc:creator>
     <cc:Agent>
      <dc:title>Matplotlib v3.4.1, https://matplotlib.org/</dc:title>
     </cc:Agent>
    </dc:creator>
   </cc:Work>
  </rdf:RDF>
 </metadata>
 <defs>
  <style type="text/css">*{stroke-linecap:butt;stroke-linejoin:round;}</style>
 </defs>
 <g id="figure_1">
  <g id="patch_1">
   <path d="M 0 595.44 
L 842.4 595.44 
L 842.4 0 
L 0 0 
z
" style="fill:#ffffff;"/>
  </g>
  <g id="axes_1">
   <g id="patch_2">
    <path d="M 105.3 529.9416 
L 758.16 529.9416 
L 758.16 71.4528 
L 105.3 71.4528 
z
" style="fill:#ffffff;"/>
   </g>
   <g id="matplotlib.axis_1">
    <g id="xtick_1">
     <g id="text_1">
      <!-- 0 -->
      <g style="fill:#262626;" transform="translate(131.916939 547.315194)scale(0.11 -0.11)">
       <defs>
        <path d="M 266 2259 
Q 266 3072 433 3567 
Q 600 4063 929 4331 
Q 1259 4600 1759 4600 
Q 2128 4600 2406 4451 
Q 2684 4303 2865 4023 
Q 3047 3744 3150 3342 
Q 3253 2941 3253 2259 
Q 3253 1453 3087 958 
Q 2922 463 2592 192 
Q 2263 -78 1759 -78 
Q 1097 -78 719 397 
Q 266 969 266 2259 
z
M 844 2259 
Q 844 1131 1108 757 
Q 1372 384 1759 384 
Q 2147 384 2411 759 
Q 2675 1134 2675 2259 
Q 2675 3391 2411 3762 
Q 2147 4134 1753 4134 
Q 1366 4134 1134 3806 
Q 844 3388 844 2259 
z
" id="ArialMT-30" transform="scale(0.015625)"/>
       </defs>
       <use xlink:href="#ArialMT-30"/>
      </g>
     </g>
    </g>
    <g id="xtick_2">
     <g id="text_2">
      <!-- 25 -->
      <g style="fill:#262626;" transform="translate(201.950676 547.315194)scale(0.11 -0.11)">
       <defs>
        <path d="M 3222 541 
L 3222 0 
L 194 0 
Q 188 203 259 391 
Q 375 700 629 1000 
Q 884 1300 1366 1694 
Q 2113 2306 2375 2664 
Q 2638 3022 2638 3341 
Q 2638 3675 2398 3904 
Q 2159 4134 1775 4134 
Q 1369 4134 1125 3890 
Q 881 3647 878 3216 
L 300 3275 
Q 359 3922 746 4261 
Q 1134 4600 1788 4600 
Q 2447 4600 2831 4234 
Q 3216 3869 3216 3328 
Q 3216 3053 3103 2787 
Q 2991 2522 2730 2228 
Q 2469 1934 1863 1422 
Q 1356 997 1212 845 
Q 1069 694 975 541 
L 3222 541 
z
" id="ArialMT-32" transform="scale(0.015625)"/>
        <path d="M 266 1200 
L 856 1250 
Q 922 819 1161 601 
Q 1400 384 1738 384 
Q 2144 384 2425 690 
Q 2706 997 2706 1503 
Q 2706 1984 2436 2262 
Q 2166 2541 1728 2541 
Q 1456 2541 1237 2417 
Q 1019 2294 894 2097 
L 366 2166 
L 809 4519 
L 3088 4519 
L 3088 3981 
L 1259 3981 
L 1013 2750 
Q 1425 3038 1878 3038 
Q 2478 3038 2890 2622 
Q 3303 2206 3303 1553 
Q 3303 931 2941 478 
Q 2500 -78 1738 -78 
Q 1113 -78 717 272 
Q 322 622 266 1200 
z
" id="ArialMT-35" transform="scale(0.015625)"/>
       </defs>
       <use xlink:href="#ArialMT-32"/>
       <use x="55.615234" xlink:href="#ArialMT-35"/>
      </g>
     </g>
    </g>
    <g id="xtick_3">
     <g id="text_3">
      <!-- 50 -->
      <g style="fill:#262626;" transform="translate(275.042928 547.315194)scale(0.11 -0.11)">
       <use xlink:href="#ArialMT-35"/>
       <use x="55.615234" xlink:href="#ArialMT-30"/>
      </g>
     </g>
    </g>
    <g id="xtick_4">
     <g id="text_4">
      <!-- 75 -->
      <g style="fill:#262626;" transform="translate(348.135181 547.315194)scale(0.11 -0.11)">
       <defs>
        <path d="M 303 3981 
L 303 4522 
L 3269 4522 
L 3269 4084 
Q 2831 3619 2401 2847 
Q 1972 2075 1738 1259 
Q 1569 684 1522 0 
L 944 0 
Q 953 541 1156 1306 
Q 1359 2072 1739 2783 
Q 2119 3494 2547 3981 
L 303 3981 
z
" id="ArialMT-37" transform="scale(0.015625)"/>
       </defs>
       <use xlink:href="#ArialMT-37"/>
       <use x="55.615234" xlink:href="#ArialMT-35"/>
      </g>
     </g>
    </g>
    <g id="xtick_5">
     <g id="text_5">
      <!-- 100 -->
      <g style="fill:#262626;" transform="translate(418.168918 547.315194)scale(0.11 -0.11)">
       <defs>
        <path d="M 2384 0 
L 1822 0 
L 1822 3584 
Q 1619 3391 1289 3197 
Q 959 3003 697 2906 
L 697 3450 
Q 1169 3672 1522 3987 
Q 1875 4303 2022 4600 
L 2384 4600 
L 2384 0 
z
" id="ArialMT-31" transform="scale(0.015625)"/>
       </defs>
       <use xlink:href="#ArialMT-31"/>
       <use x="55.615234" xlink:href="#ArialMT-30"/>
       <use x="111.230469" xlink:href="#ArialMT-30"/>
      </g>
     </g>
    </g>
    <g id="xtick_6">
     <g id="text_6">
      <!-- 125 -->
      <g style="fill:#262626;" transform="translate(491.261171 547.315194)scale(0.11 -0.11)">
       <use xlink:href="#ArialMT-31"/>
       <use x="55.615234" xlink:href="#ArialMT-32"/>
       <use x="111.230469" xlink:href="#ArialMT-35"/>
      </g>
     </g>
    </g>
    <g id="xtick_7">
     <g id="text_7">
      <!-- 150 -->
      <g style="fill:#262626;" transform="translate(564.353423 547.315194)scale(0.11 -0.11)">
       <use xlink:href="#ArialMT-31"/>
       <use x="55.615234" xlink:href="#ArialMT-35"/>
       <use x="111.230469" xlink:href="#ArialMT-30"/>
      </g>
     </g>
    </g>
    <g id="xtick_8">
     <g id="text_8">
      <!-- 175 -->
      <g style="fill:#262626;" transform="translate(637.445676 547.315194)scale(0.11 -0.11)">
       <use xlink:href="#ArialMT-31"/>
       <use x="55.615234" xlink:href="#ArialMT-37"/>
       <use x="111.230469" xlink:href="#ArialMT-35"/>
      </g>
     </g>
    </g>
    <g id="xtick_9">
     <g id="text_9">
      <!-- 200 -->
      <g style="fill:#262626;" transform="translate(710.537928 547.315194)scale(0.11 -0.11)">
       <use xlink:href="#ArialMT-32"/>
       <use x="55.615234" xlink:href="#ArialMT-30"/>
       <use x="111.230469" xlink:href="#ArialMT-30"/>
      </g>
     </g>
    </g>
   </g>
   <g id="matplotlib.axis_2">
    <g id="ytick_1">
     <g id="text_10">
      <!-- −25 -->
      <g style="fill:#262626;" transform="translate(77.14125 533.878397)scale(0.11 -0.11)">
       <defs>
        <path d="M 3381 1997 
L 356 1997 
L 356 2522 
L 3381 2522 
L 3381 1997 
z
" id="ArialMT-2212" transform="scale(0.015625)"/>
       </defs>
       <use xlink:href="#ArialMT-2212"/>
       <use x="58.398438" xlink:href="#ArialMT-32"/>
       <use x="114.013672" xlink:href="#ArialMT-35"/>
      </g>
     </g>
    </g>
    <g id="ytick_2">
     <g id="text_11">
      <!-- −20 -->
      <g style="fill:#262626;" transform="translate(77.14125 442.180637)scale(0.11 -0.11)">
       <use xlink:href="#ArialMT-2212"/>
       <use x="58.398438" xlink:href="#ArialMT-32"/>
       <use x="114.013672" xlink:href="#ArialMT-30"/>
      </g>
     </g>
    </g>
    <g id="ytick_3">
     <g id="text_12">
      <!-- −15 -->
      <g style="fill:#262626;" transform="translate(77.14125 350.482877)scale(0.11 -0.11)">
       <use xlink:href="#ArialMT-2212"/>
       <use x="58.398438" xlink:href="#ArialMT-31"/>
       <use x="114.013672" xlink:href="#ArialMT-35"/>
      </g>
     </g>
    </g>
    <g id="ytick_4">
     <g id="text_13">
      <!-- −10 -->
      <g style="fill:#262626;" transform="translate(77.14125 258.785117)scale(0.11 -0.11)">
       <use xlink:href="#ArialMT-2212"/>
       <use x="58.398438" xlink:href="#ArialMT-31"/>
       <use x="114.013672" xlink:href="#ArialMT-30"/>
      </g>
     </g>
    </g>
    <g id="ytick_5">
     <g id="text_14">
      <!-- −5 -->
      <g style="fill:#262626;" transform="translate(83.258281 167.087357)scale(0.11 -0.11)">
       <use xlink:href="#ArialMT-2212"/>
       <use x="58.398438" xlink:href="#ArialMT-35"/>
      </g>
     </g>
    </g>
    <g id="ytick_6">
     <g id="text_15">
      <!-- 0 -->
      <g style="fill:#262626;" transform="translate(89.682969 75.389597)scale(0.11 -0.11)">
       <use xlink:href="#ArialMT-30"/>
      </g>
     </g>
    </g>
   </g>
   <g id="line2d_1">
    <path clip-path="url(#p83a3a62955)" d="M 134.975455 429.875349 
L 137.899145 431.316242 
L 140.822835 431.456301 
L 143.746525 431.227883 
L 146.670215 437.972186 
L 149.593905 433.530681 
L 152.517595 435.539193 
L 155.441285 437.866652 
L 158.364975 439.283968 
L 161.288665 438.404958 
L 164.212356 434.416022 
L 167.136046 435.506521 
L 170.059736 451.753959 
L 175.907116 463.28446 
L 178.830806 491.382325 
L 181.754496 515.307051 
L 184.678186 438.888135 
L 187.601876 426.795647 
L 190.525567 556.895412 
L 193.449257 552.636362 
L 196.372947 470.298179 
L 199.296637 435.043072 
L 202.220327 363.784604 
L 205.144017 444.544808 
L 208.067707 562.72604 
L 210.991397 473.260174 
L 213.915087 492.761024 
L 216.838777 501.151167 
L 219.762468 486.943094 
L 222.686158 482.080675 
L 225.609848 479.679828 
L 228.533538 486.648073 
L 231.457228 457.3788 
L 234.380918 360.733236 
L 237.304608 468.251294 
L 240.228298 519.903378 
L 243.151988 449.012968 
L 246.075678 406.678241 
L 248.999369 455.474249 
L 251.923059 540.931311 
L 254.846749 468.600254 
L 257.770439 464.450201 
L 260.694129 391.524275 
L 263.617819 508.544138 
L 266.541509 393.43946 
L 269.465199 397.93445 
L 272.388889 449.218615 
L 275.312579 474.654053 
L 278.23627 479.424405 
L 281.15996 460.511987 
L 284.08365 420.056311 
L 287.00734 430.266914 
L 289.93103 477.686707 
L 292.85472 415.517107 
L 295.77841 385.607317 
L 298.7021 422.509802 
L 301.62579 405.105648 
L 304.549481 384.158063 
L 307.473171 372.716796 
L 310.396861 442.004041 
L 313.320551 423.347396 
L 316.244241 421.37215 
L 319.167931 428.474823 
L 322.091621 563.01298 
L 325.015311 479.376133 
L 327.939001 452.024984 
L 330.862691 484.359582 
L 333.786382 425.669154 
L 336.710072 416.291037 
L 339.633762 526.732192 
L 342.557452 532.602208 
L 345.481142 419.190873 
L 348.404832 400.574769 
L 351.328522 461.039134 
L 354.252212 508.71491 
L 357.175902 462.611062 
L 360.099592 435.120553 
L 363.023283 536.770975 
L 365.946973 468.882681 
L 368.870663 492.947047 
L 371.794353 476.869472 
L 374.718043 473.139213 
L 377.641733 505.195861 
L 380.565423 493.43925 
L 383.489113 412.726968 
L 386.412803 349.579871 
L 389.336494 383.859895 
L 392.260184 413.155682 
L 395.183874 452.038311 
L 398.107564 390.472149 
L 401.031254 377.408408 
L 403.954944 383.802458 
L 406.878634 413.735859 
L 409.802324 383.135461 
L 412.726014 371.686813 
L 415.649704 465.444295 
L 418.573395 422.951879 
L 421.497085 489.526571 
L 424.420775 538.898698 
L 427.344465 442.765449 
L 430.268155 443.188741 
L 433.191845 404.87709 
L 436.115535 309.674639 
L 441.962915 492.456139 
L 444.886605 427.472963 
L 447.810296 334.81406 
L 450.733986 397.401601 
L 453.657676 496.364445 
L 456.581366 444.708129 
L 459.505056 541.353764 
L 462.428746 479.463967 
L 468.276126 425.42251 
L 471.199816 433.066987 
L 474.123506 486.997348 
L 477.047197 478.683075 
L 479.970887 387.5791 
L 482.894577 429.558081 
L 485.818267 427.005561 
L 488.741957 453.567144 
L 491.665647 416.937501 
L 494.589337 409.978701 
L 497.513027 488.572004 
L 500.436717 438.212848 
L 503.360408 419.43937 
L 506.284098 480.736747 
L 509.207788 531.330583 
L 512.131478 552.315176 
L 515.055168 504.450578 
L 517.978858 372.337019 
L 520.902548 399.11929 
L 523.826238 434.404374 
L 526.749928 411.528346 
L 529.673618 499.873491 
L 532.597309 572.064699 
L 535.520999 388.87682 
L 538.444689 268.441412 
L 541.368379 468.665316 
L 544.292069 564.538699 
L 547.215759 504.115261 
L 550.139449 507.91373 
L 553.063139 391.046799 
L 555.986829 487.773237 
L 558.910519 490.849826 
L 561.83421 501.575824 
L 564.7579 495.983129 
L 567.68159 449.780882 
L 570.60528 440.233183 
L 573.52897 462.926651 
L 576.45266 462.830806 
L 579.37635 460.580792 
L 582.30004 450.945888 
L 585.22373 410.59788 
L 588.147421 394.38042 
L 591.071111 359.660699 
L 593.994801 421.900592 
L 596.918491 384.435944 
L 599.842181 452.306747 
L 602.765871 411.428723 
L 605.689561 331.094593 
L 608.613251 419.331352 
L 611.536941 537.302424 
L 614.460631 549.023111 
L 617.384322 446.712164 
L 620.308012 499.532612 
L 623.231702 473.584437 
L 626.155392 456.939418 
L 629.079082 414.077403 
L 632.002772 399.123348 
L 634.926462 401.530561 
L 637.850152 417.962343 
L 643.697532 288.002952 
L 646.621223 336.774177 
L 649.544913 403.334125 
L 652.468603 474.79992 
L 655.392293 429.749072 
L 658.315983 396.493802 
L 661.239673 451.527744 
L 664.163363 375.695372 
L 667.087053 440.02019 
L 670.010743 462.740872 
L 672.934433 442.403127 
L 675.858124 445.8993 
L 678.781814 425.298262 
L 681.705504 487.779534 
L 684.629194 514.160164 
L 687.552884 464.242595 
L 690.476574 549.60063 
L 693.400264 460.61 
L 696.323954 476.313676 
L 699.247644 466.311308 
L 702.171335 468.114487 
L 705.095025 475.551883 
L 708.018715 474.332133 
L 710.942405 476.98585 
L 713.866095 476.191141 
L 716.789785 477.733231 
L 719.713475 476.164102 
L 722.637165 476.696146 
L 725.560855 476.970039 
L 728.484545 469.635204 
L 728.484545 469.635204 
" style="fill:none;stroke:#4c72b0;stroke-linecap:round;stroke-width:1.5;"/>
   </g>
   <g id="line2d_2">
    <path clip-path="url(#p83a3a62955)" d="M 134.975455 434.594805 
L 137.899145 440.527609 
L 140.822835 439.509728 
L 143.746525 437.786093 
L 146.670215 444.795824 
L 149.593905 442.310011 
L 152.517595 439.40192 
L 155.441285 439.22772 
L 158.364975 437.769617 
L 161.288665 434.623278 
L 164.212356 429.010715 
L 167.136046 427.747975 
L 170.059736 437.797776 
L 172.983426 440.008192 
L 175.907116 447.062523 
L 178.830806 480.731115 
L 181.754496 497.173006 
L 184.678186 439.952504 
L 187.601876 400.544547 
L 190.525567 544.280254 
L 193.449257 533.019168 
L 196.372947 468.123792 
L 199.296637 434.130481 
L 202.220327 365.853736 
L 205.144017 466.193006 
L 208.067707 572.099714 
L 210.991397 493.818957 
L 213.915087 464.089243 
L 216.838777 502.523325 
L 219.762468 478.235962 
L 222.686158 468.395866 
L 225.609848 460.620949 
L 228.533538 465.870666 
L 231.457228 443.335692 
L 234.380918 339.246785 
L 237.304608 438.641177 
L 240.228298 499.21258 
L 243.151988 440.749242 
L 246.075678 396.775845 
L 248.999369 478.202591 
L 251.923059 545.081469 
L 254.846749 474.152161 
L 257.770439 471.467278 
L 260.694129 409.942007 
L 263.617819 519.739392 
L 266.541509 416.71384 
L 269.465199 414.947913 
L 272.388889 473.975058 
L 275.312579 505.275615 
L 278.23627 501.666701 
L 281.15996 485.872288 
L 284.08365 434.823818 
L 287.00734 442.484141 
L 289.93103 499.492665 
L 292.85472 441.532197 
L 295.77841 389.673103 
L 298.7021 427.951104 
L 301.62579 414.004715 
L 304.549481 401.179257 
L 307.473171 393.947998 
L 310.396861 427.979332 
L 313.320551 446.662177 
L 316.244241 441.115272 
L 319.167931 459.013902 
L 322.091621 551.838645 
L 325.015311 467.17846 
L 327.939001 467.664716 
L 330.862691 480.096509 
L 333.786382 429.768975 
L 336.710072 442.279683 
L 339.633762 533.4695 
L 342.557452 500.662883 
L 345.481142 410.566643 
L 348.404832 420.152995 
L 351.328522 530.199612 
L 354.252212 421.645903 
L 357.175902 329.621361 
L 360.099592 270.192209 
L 363.023283 290.500029 
L 365.946973 354.415477 
L 368.870663 371.671177 
L 371.794353 365.783287 
L 374.718043 346.833632 
L 377.641733 370.405953 
L 380.565423 422.355086 
L 383.489113 352.014106 
L 386.412803 352.303198 
L 389.336494 366.544835 
L 392.260184 399.307307 
L 395.183874 442.603527 
L 398.107564 370.594705 
L 401.031254 362.20715 
L 403.954944 404.66637 
L 406.878634 405.376883 
L 409.802324 399.506692 
L 412.726014 397.339756 
L 415.649704 462.089966 
L 418.573395 388.438416 
L 421.497085 465.068016 
L 424.420775 498.102702 
L 427.344465 400.309761 
L 430.268155 401.795638 
L 433.191845 373.754581 
L 436.115535 284.110789 
L 439.039225 401.055778 
L 441.962915 495.92919 
L 444.886605 397.117564 
L 447.810296 304.828748 
L 450.733986 417.283103 
L 453.657676 489.213325 
L 456.581366 465.18359 
L 459.505056 536.670862 
L 462.428746 456.197598 
L 465.352436 442.639382 
L 468.276126 405.453768 
L 471.199816 432.378897 
L 474.123506 453.323298 
L 477.047197 492.848579 
L 479.970887 367.93826 
L 482.894577 417.899729 
L 485.818267 431.949623 
L 488.741957 455.666603 
L 491.665647 434.136708 
L 494.589337 420.329994 
L 497.513027 490.594053 
L 500.436717 444.158525 
L 503.360408 423.848099 
L 506.284098 494.239975 
L 509.207788 526.133161 
L 512.131478 534.742104 
L 515.055168 488.527019 
L 517.978858 372.433599 
L 520.902548 385.523015 
L 523.826238 416.945931 
L 526.749928 412.317353 
L 529.673618 497.149675 
L 532.597309 554.662504 
L 535.520999 391.523016 
L 538.444689 271.91476 
L 541.368379 431.276365 
L 544.292069 568.930428 
L 547.215759 461.976071 
L 550.139449 459.453774 
L 553.063139 378.449061 
L 555.986829 413.865914 
L 558.910519 393.0218 
L 561.83421 341.884044 
L 564.7579 370.450972 
L 567.68159 385.371867 
L 570.60528 494.968781 
L 573.52897 357.03668 
L 576.45266 410.858271 
L 579.37635 414.688292 
L 582.30004 371.714132 
L 585.22373 411.46052 
L 588.147421 363.069352 
L 591.071111 351.130811 
L 593.994801 428.00088 
L 596.918491 373.684446 
L 599.842181 465.447164 
L 602.765871 402.763008 
L 605.689561 355.918897 
L 608.613251 456.027771 
L 611.536941 543.439756 
L 614.460631 553.997116 
L 617.384322 507.970503 
L 620.308012 517.445094 
L 623.231702 467.139457 
L 626.155392 469.559753 
L 629.079082 399.478639 
L 632.002772 414.093039 
L 634.926462 406.480149 
L 637.850152 380.519417 
L 640.773842 339.113984 
L 643.697532 270.630368 
L 646.621223 360.807621 
L 649.544913 414.498666 
L 652.468603 457.862573 
L 655.392293 441.531358 
L 658.315983 356.963345 
L 661.239673 426.566703 
L 664.163363 351.384677 
L 667.087053 439.194979 
L 670.010743 460.181392 
L 672.934433 427.620159 
L 675.858124 432.70449 
L 678.781814 437.211338 
L 681.705504 482.160009 
L 684.629194 505.816649 
L 687.552884 447.82491 
L 690.476574 531.026047 
L 693.400264 469.218978 
L 696.323954 479.961871 
L 699.247644 462.990594 
L 702.171335 458.103409 
L 705.095025 460.93395 
L 708.018715 461.060367 
L 713.866095 461.757412 
L 716.789785 462.936585 
L 719.713475 463.517671 
L 722.637165 460.347406 
L 725.560855 462.436092 
L 728.484545 453.191914 
L 728.484545 453.191914 
" style="fill:none;stroke:#dd8452;stroke-dasharray:6,2.25;stroke-dashoffset:0;stroke-width:1.5;"/>
   </g>
   <g id="line2d_3">
    <path clip-path="url(#p83a3a62955)" d="M 134.975455 446.73567 
L 137.899145 455.077611 
L 140.822835 453.810919 
L 143.746525 447.515513 
L 146.670215 465.91558 
L 149.593905 461.33426 
L 152.517595 462.738074 
L 155.441285 500.132552 
L 158.364975 498.528233 
L 161.288665 474.440466 
L 164.212356 469.390345 
L 167.136046 455.411914 
L 170.059736 454.708398 
L 172.983426 464.24277 
L 175.907116 469.298593 
L 178.830806 492.342874 
L 181.754496 506.567528 
L 184.678186 440.842393 
L 187.601876 433.881669 
L 190.525567 527.78187 
L 193.449257 544.88712 
L 196.372947 484.713054 
L 199.296637 484.354685 
L 202.220327 444.431998 
L 205.144017 459.618425 
L 208.067707 349.367438 
L 210.991397 409.325556 
L 213.915087 436.614965 
L 216.838777 410.662768 
L 219.762468 411.743788 
L 222.686158 411.708353 
L 225.609848 359.304761 
L 228.533538 397.846965 
L 231.457228 388.683136 
L 234.380918 323.860238 
L 237.304608 430.891691 
L 240.228298 509.140126 
L 243.151988 440.233323 
L 246.075678 360.605839 
L 248.999369 496.846434 
L 251.923059 490.197066 
L 254.846749 459.70465 
L 257.770439 474.24248 
L 260.694129 388.087078 
L 263.617819 479.868615 
L 266.541509 426.573245 
L 269.465199 448.028493 
L 272.388889 484.56236 
L 275.312579 450.216032 
L 278.23627 394.852544 
L 281.15996 351.902048 
L 284.08365 327.18368 
L 287.00734 330.036293 
L 289.93103 372.294974 
L 292.85472 373.987057 
L 295.77841 388.769956 
L 298.7021 430.636022 
L 301.62579 448.2956 
L 304.549481 410.142022 
L 307.473171 409.757663 
L 310.396861 473.343845 
L 313.320551 501.426879 
L 316.244241 467.496322 
L 319.167931 483.637316 
L 322.091621 578.104297 
L 325.015311 473.227257 
L 327.939001 472.62263 
L 330.862691 511.600089 
L 333.786382 453.692162 
L 336.710072 455.840069 
L 339.633762 562.588184 
L 342.557452 547.138533 
L 345.481142 429.56018 
L 348.404832 437.667651 
L 351.328522 560.999326 
L 354.252212 412.221264 
L 357.175902 434.669522 
L 360.099592 335.005435 
L 363.023283 416.584519 
L 365.946973 369.514035 
L 368.870663 428.434036 
L 371.794353 382.415749 
L 374.718043 416.623242 
L 377.641733 387.392027 
L 380.565423 413.312952 
L 383.489113 399.265296 
L 386.412803 359.141544 
L 389.336494 406.527232 
L 392.260184 434.396783 
L 395.183874 464.102221 
L 398.107564 394.900257 
L 401.031254 389.22473 
L 403.954944 393.02236 
L 406.878634 396.273429 
L 409.802324 438.89744 
L 412.726014 414.350596 
L 415.649704 401.57481 
L 418.573395 377.752681 
L 421.497085 318.493951 
L 424.420775 298.646887 
L 427.344465 346.467742 
L 430.268155 341.471526 
L 433.191845 289.768144 
L 436.115535 256.990648 
L 439.039225 361.723535 
L 441.962915 475.592844 
L 444.886605 383.274121 
L 447.810296 396.265383 
L 450.733986 419.529828 
L 453.657676 465.726898 
L 456.581366 492.031937 
L 459.505056 590.409883 
L 462.428746 496.964701 
L 465.352436 434.367051 
L 468.276126 412.777899 
L 471.199816 370.99498 
L 474.123506 411.921066 
L 477.047197 407.884348 
L 479.970887 365.791962 
L 482.894577 366.383717 
L 485.818267 388.695414 
L 488.741957 367.174998 
L 491.665647 384.883057 
L 494.589337 363.468158 
L 500.436717 407.283323 
L 503.360408 473.16139 
L 506.284098 507.002049 
L 509.207788 447.126116 
L 512.131478 448.567883 
L 515.055168 428.817102 
L 517.978858 394.927191 
L 520.902548 427.150413 
L 523.826238 461.287527 
L 526.749928 463.536036 
L 529.673618 498.68246 
L 532.597309 561.100523 
L 535.520999 435.89165 
L 538.444689 289.044095 
L 541.368379 469.102915 
L 544.292069 558.436382 
L 547.215759 413.504537 
L 550.139449 417.329171 
L 553.063139 389.815891 
L 555.986829 374.6869 
L 558.910519 385.762208 
L 561.83421 361.905203 
L 564.7579 319.121089 
L 567.68159 363.410616 
L 570.60528 343.677482 
L 573.52897 451.30814 
L 576.45266 470.528976 
L 579.37635 495.882177 
L 582.30004 501.255128 
L 585.22373 499.320004 
L 588.147421 399.667005 
L 591.071111 384.289833 
L 593.994801 434.991757 
L 596.918491 397.746993 
L 599.842181 493.879892 
L 602.765871 452.202227 
L 605.689561 355.299175 
L 608.613251 437.831567 
L 611.536941 533.027598 
L 614.460631 538.872953 
L 617.384322 480.936447 
L 620.308012 469.43372 
L 623.231702 464.118941 
L 626.155392 462.567092 
L 629.079082 377.844678 
L 632.002772 424.175791 
L 634.926462 417.122265 
L 637.850152 320.650376 
L 640.773842 278.584644 
L 643.697532 326.514339 
L 646.621223 384.029197 
L 649.544913 401.179047 
L 652.468603 461.097446 
L 655.392293 431.149912 
L 658.315983 367.746675 
L 661.239673 426.663283 
L 664.163363 360.533133 
L 667.087053 444.808521 
L 670.010743 453.081902 
L 672.934433 400.32099 
L 675.858124 451.84078 
L 678.781814 444.171257 
L 681.705504 497.423847 
L 684.629194 518.992361 
L 687.552884 463.793068 
L 690.476574 515.810027 
L 693.400264 459.255823 
L 696.323954 476.498684 
L 699.247644 447.348239 
L 702.171335 451.569091 
L 705.095025 449.662755 
L 708.018715 451.98787 
L 710.942405 458.754036 
L 713.866095 456.79572 
L 716.789785 456.876699 
L 719.713475 455.186469 
L 722.637165 456.869423 
L 725.560855 456.859244 
L 728.484545 440.962689 
L 728.484545 440.962689 
" style="fill:none;stroke:#55a868;stroke-dasharray:1.5,1.5;stroke-dashoffset:0;stroke-width:1.5;"/>
   </g>
   <g id="line2d_4">
    <path clip-path="url(#p83a3a62955)" d="M 134.975455 434.358271 
L 137.899145 440.299365 
L 140.822835 439.396673 
L 143.746525 437.58982 
L 146.670215 444.713061 
L 149.593905 442.31928 
L 152.517595 439.490769 
L 155.441285 439.533829 
L 158.364975 438.254474 
L 161.288665 435.162039 
L 164.212356 429.514181 
L 167.136046 428.309998 
L 170.059736 438.529906 
L 172.983426 440.615898 
L 175.907116 447.664877 
L 178.830806 481.465483 
L 181.754496 498.37642 
L 184.678186 440.949222 
L 187.601876 401.220778 
L 190.525567 544.893487 
L 193.449257 534.723845 
L 196.372947 466.946613 
L 199.296637 432.898978 
L 202.220327 366.035702 
L 205.144017 463.466321 
L 208.067707 575.622297 
L 210.991397 489.738584 
L 213.915087 476.527403 
L 216.838777 497.69718 
L 219.762468 479.549248 
L 222.686158 469.156154 
L 225.609848 460.196328 
L 228.533538 467.312538 
L 231.457228 444.820764 
L 234.380918 339.89596 
L 237.304608 443.0264 
L 240.228298 503.135089 
L 243.151988 441.371884 
L 246.075678 398.489511 
L 248.999369 478.859759 
L 251.923059 545.050966 
L 254.846749 473.468339 
L 257.770439 469.809859 
L 260.694129 412.253725 
L 263.617819 521.976008 
L 266.541509 413.188388 
L 269.465199 417.824697 
L 272.388889 476.011484 
L 275.312579 512.841561 
L 278.23627 506.632661 
L 281.15996 484.573379 
L 284.08365 433.240802 
L 287.00734 450.257134 
L 289.93103 501.968333 
L 292.85472 436.664392 
L 295.77841 391.194834 
L 298.7021 429.706151 
L 301.62579 416.394508 
L 304.549481 405.190684 
L 307.473171 394.931424 
L 310.396861 430.823375 
L 313.320551 445.843262 
L 316.244241 438.939101 
L 319.167931 464.342778 
L 322.091621 566.831773 
L 325.015311 463.777852 
L 327.939001 457.898042 
L 330.862691 492.864494 
L 333.786382 427.993814 
L 336.710072 444.044035 
L 339.633762 555.493592 
L 342.557452 505.566858 
L 345.481142 428.940196 
L 348.404832 365.001485 
L 351.328522 500.730919 
L 354.252212 562.839375 
L 357.175902 394.934502 
L 360.099592 324.738112 
L 363.023283 447.143116 
L 365.946973 370.719723 
L 368.870663 394.316197 
L 371.794353 398.262037 
L 374.718043 386.867573 
L 377.641733 385.350529 
L 380.565423 433.7938 
L 383.489113 353.061073 
L 386.412803 356.997135 
L 389.336494 370.463355 
L 392.260184 402.697386 
L 395.183874 445.945334 
L 398.107564 372.929719 
L 401.031254 365.354888 
L 403.954944 405.475421 
L 406.878634 409.881737 
L 409.802324 403.8753 
L 412.726014 396.761958 
L 415.649704 466.756707 
L 418.573395 390.917653 
L 421.497085 473.975758 
L 424.420775 506.801544 
L 427.344465 400.914879 
L 430.268155 400.324488 
L 433.191845 372.40614 
L 436.115535 284.706899 
L 439.039225 401.961723 
L 441.962915 496.42608 
L 444.886605 395.988167 
L 447.810296 306.133902 
L 450.733986 414.723587 
L 453.657676 495.870739 
L 456.581366 467.538998 
L 459.505056 536.37738 
L 462.428746 456.377185 
L 465.352436 446.911864 
L 468.276126 405.545906 
L 471.199816 434.073639 
L 474.123506 460.729387 
L 477.047197 501.328516 
L 479.970887 368.172905 
L 482.894577 420.659854 
L 485.818267 433.056143 
L 488.741957 458.149863 
L 491.665647 434.401646 
L 494.589337 421.227019 
L 497.513027 491.476561 
L 500.436717 441.831171 
L 503.360408 421.328181 
L 506.284098 493.514981 
L 509.207788 525.867629 
L 512.131478 536.156937 
L 515.055168 488.93485 
L 517.978858 372.085514 
L 520.902548 385.219704 
L 523.826238 414.870503 
L 526.749928 411.023656 
L 529.673618 496.327646 
L 532.597309 553.74554 
L 535.520999 390.997582 
L 538.444689 274.562478 
L 541.368379 431.452664 
L 544.292069 569.424764 
L 547.215759 462.164613 
L 550.139449 459.650956 
L 553.063139 377.148682 
L 555.986829 415.288932 
L 558.910519 393.576267 
L 561.83421 344.660348 
L 564.7579 371.965568 
L 567.68159 387.329098 
L 570.60528 490.350663 
L 573.52897 339.563126 
L 576.45266 384.411528 
L 579.37635 422.782471 
L 582.30004 417.07095 
L 585.22373 470.382096 
L 588.147421 339.26083 
L 591.071111 323.40382 
L 593.994801 448.339814 
L 596.918491 400.444819 
L 599.842181 450.317194 
L 602.765871 408.949767 
L 605.689561 360.355732 
L 611.536941 547.50981 
L 614.460631 564.341762 
L 617.384322 501.116083 
L 620.308012 515.61337 
L 623.231702 472.90058 
L 626.155392 466.546827 
L 629.079082 402.967746 
L 632.002772 414.011816 
L 634.926462 411.835225 
L 637.850152 382.545874 
L 640.773842 340.333122 
L 643.697532 271.674273 
L 646.621223 363.631829 
L 649.544913 412.230708 
L 652.468603 458.978467 
L 655.392293 444.203684 
L 658.315983 359.172327 
L 661.239673 427.169967 
L 664.163363 349.853431 
L 667.087053 435.784682 
L 670.010743 460.253065 
L 672.934433 426.957814 
L 675.858124 430.766218 
L 678.781814 436.089777 
L 681.705504 479.767768 
L 684.629194 504.249689 
L 687.552884 447.099951 
L 690.476574 529.695166 
L 693.400264 467.868369 
L 696.323954 479.857631 
L 699.247644 465.433871 
L 702.171335 458.135976 
L 705.095025 460.866053 
L 708.018715 461.728204 
L 710.942405 463.436203 
L 713.866095 463.519105 
L 716.789785 463.921584 
L 719.713475 464.013792 
L 722.637165 461.53473 
L 725.560855 463.640206 
L 728.484545 455.542599 
L 728.484545 455.542599 
" style="fill:none;stroke:#c44e52;stroke-dasharray:4.5,1.875,2.25,1.875;stroke-dashoffset:0;stroke-width:1.5;"/>
   </g>
   <g id="line2d_5">
    <path clip-path="url(#p83a3a62955)" d="M 134.975455 434.308599 
L 137.899145 440.149931 
L 140.822835 439.620405 
L 143.746525 437.827509 
L 146.670215 444.823143 
L 149.593905 443.690808 
L 152.517595 441.119014 
L 155.441285 442.315013 
L 158.364975 440.59505 
L 161.288665 437.717042 
L 164.212356 430.856116 
L 167.136046 428.703976 
L 170.059736 437.094645 
L 172.983426 439.434906 
L 175.907116 445.162099 
L 178.830806 479.318381 
L 181.754496 503.721562 
L 184.678186 435.941916 
L 187.601876 414.243138 
L 190.525567 546.173437 
L 193.449257 542.149732 
L 196.372947 474.481183 
L 199.296637 439.647969 
L 202.220327 365.946293 
L 205.144017 454.770033 
L 208.067707 575.918472 
L 210.991397 487.043871 
L 213.915087 460.140465 
L 216.838777 500.681002 
L 219.762468 478.532837 
L 222.686158 471.789408 
L 225.609848 471.15001 
L 228.533538 470.174665 
L 231.457228 447.087708 
L 234.380918 343.987596 
L 237.304608 441.473186 
L 240.228298 503.603575 
L 243.151988 442.039056 
L 246.075678 398.538588 
L 248.999369 474.045088 
L 251.923059 553.617828 
L 254.846749 475.045024 
L 257.770439 472.497506 
L 260.694129 404.84134 
L 263.617819 516.538274 
L 266.541509 409.56167 
L 269.465199 414.598289 
L 272.388889 469.248711 
L 275.312579 506.706119 
L 278.23627 504.298171 
L 281.15996 488.876819 
L 284.08365 437.919191 
L 287.00734 447.669039 
L 289.93103 500.138324 
L 292.85472 439.360119 
L 295.77841 387.372823 
L 298.7021 426.569677 
L 301.62579 415.295264 
L 304.549481 399.160881 
L 307.473171 389.354331 
L 310.396861 442.506073 
L 313.320551 450.59518 
L 316.244241 434.211635 
L 319.167931 447.092955 
L 322.091621 569.211492 
L 325.015311 472.256215 
L 327.939001 450.187803 
L 330.862691 491.077056 
L 333.786382 434.819411 
L 336.710072 426.876556 
L 339.633762 547.398679 
L 342.557452 527.594273 
L 345.481142 426.884251 
L 348.404832 381.531351 
L 351.328522 461.094892 
L 354.252212 510.297892 
L 357.175902 479.45872 
L 360.099592 464.143672 
L 363.023283 560.862869 
L 365.946973 451.701559 
L 368.870663 463.464992 
L 371.794353 424.667049 
L 374.718043 425.165688 
L 377.641733 473.444413 
L 380.565423 482.406338 
L 383.489113 393.730948 
L 386.412803 348.820107 
L 389.336494 379.819959 
L 392.260184 420.676295 
L 395.183874 456.883765 
L 398.107564 362.48914 
L 403.954944 410.447852 
L 406.878634 425.24943 
L 409.802324 421.183644 
L 412.726014 405.919596 
L 415.649704 491.231422 
L 418.573395 395.606117 
L 421.497085 486.239683 
L 424.420775 515.469288 
L 427.344465 407.504256 
L 430.268155 403.000452 
L 433.191845 380.53229 
L 436.115535 285.286814 
L 439.039225 398.086823 
L 441.962915 498.461387 
L 444.886605 402.642852 
L 447.810296 302.477486 
L 450.733986 410.156084 
L 453.657676 479.596961 
L 456.581366 451.192532 
L 459.505056 513.056618 
L 462.428746 446.465695 
L 465.352436 447.437227 
L 468.276126 411.652525 
L 471.199816 443.64383 
L 474.123506 472.563024 
L 477.047197 490.254083 
L 479.970887 371.745334 
L 482.894577 424.626717 
L 485.818267 438.772841 
L 488.741957 460.151414 
L 491.665647 440.443482 
L 494.589337 421.61673 
L 497.513027 493.339732 
L 500.436717 438.186823 
L 503.360408 414.928954 
L 506.284098 491.812403 
L 509.207788 527.443859 
L 512.131478 547.006449 
L 515.055168 495.105203 
L 517.978858 380.145867 
L 520.902548 388.516596 
L 523.826238 407.817886 
L 526.749928 398.785092 
L 529.673618 487.142549 
L 532.597309 533.510251 
L 535.520999 374.211069 
L 538.444689 259.486238 
L 541.368379 431.639596 
L 544.292069 572.196853 
L 547.215759 457.159266 
L 550.139449 461.563623 
L 553.063139 320.986428 
L 555.986829 404.552686 
L 558.910519 371.244841 
L 561.83421 357.699147 
L 564.7579 433.624497 
L 567.68159 402.427726 
L 570.60528 378.951617 
L 573.52897 413.144384 
L 576.45266 502.546586 
L 579.37635 459.303675 
L 582.30004 412.878746 
L 585.22373 441.606425 
L 588.147421 349.213579 
L 591.071111 324.907554 
L 593.994801 397.557122 
L 596.918491 377.009812 
L 599.842181 441.301715 
L 602.765871 397.846755 
L 605.689561 349.564357 
L 608.613251 447.509601 
L 611.536941 521.899052 
L 614.460631 556.513886 
L 617.384322 491.751678 
L 620.308012 504.24815 
L 623.231702 469.602113 
L 626.155392 466.905407 
L 629.079082 400.731969 
L 632.002772 409.018117 
L 634.926462 411.219509 
L 637.850152 374.351933 
L 640.773842 335.530256 
L 643.697532 279.842924 
L 646.621223 366.541267 
L 649.544913 405.749664 
L 652.468603 443.0944 
L 655.392293 426.577057 
L 658.315983 369.553772 
L 661.239673 424.330192 
L 664.163363 345.235645 
L 667.087053 430.654911 
L 670.010743 455.372842 
L 672.934433 434.259557 
L 675.858124 429.498825 
L 678.781814 422.352917 
L 681.705504 481.974126 
L 684.629194 496.585448 
L 687.552884 438.937527 
L 690.476574 518.722595 
L 693.400264 467.167616 
L 696.323954 480.682178 
L 702.171335 458.856387 
L 705.095025 461.54253 
L 708.018715 462.444592 
L 710.942405 464.572771 
L 713.866095 463.381914 
L 719.713475 463.400873 
L 722.637165 462.059778 
L 725.560855 463.878699 
L 728.484545 457.803142 
L 728.484545 457.803142 
" style="fill:none;stroke:#8172b3;stroke-dasharray:7.5,1.5,1.5,1.5;stroke-dashoffset:0;stroke-width:1.5;"/>
   </g>
   <g id="line2d_6"/>
   <g id="line2d_7"/>
   <g id="line2d_8"/>
   <g id="line2d_9"/>
   <g id="line2d_10"/>
   <g id="patch_3">
    <path d="M 105.3 529.9416 
L 105.3 71.4528 
" style="fill:none;stroke:#262626;stroke-linecap:square;stroke-linejoin:miter;stroke-width:1.25;"/>
   </g>
   <g id="patch_4">
    <path d="M 758.16 529.9416 
L 758.16 71.4528 
" style="fill:none;stroke:#262626;stroke-linecap:square;stroke-linejoin:miter;stroke-width:1.25;"/>
   </g>
   <g id="patch_5">
    <path d="M 105.3 529.9416 
L 758.16 529.9416 
" style="fill:none;stroke:#262626;stroke-linecap:square;stroke-linejoin:miter;stroke-width:1.25;"/>
   </g>
   <g id="patch_6">
    <path d="M 105.3 71.4528 
L 758.16 71.4528 
" style="fill:none;stroke:#262626;stroke-linecap:square;stroke-linejoin:miter;stroke-width:1.25;"/>
   </g>
   <g id="text_16">
    <!-- Activations for &gt;,&lt; -->
    <g style="fill:#262626;" transform="translate(383.7075 65.4528)scale(0.12 -0.12)">
     <defs>
      <path d="M -9 0 
L 1750 4581 
L 2403 4581 
L 4278 0 
L 3588 0 
L 3053 1388 
L 1138 1388 
L 634 0 
L -9 0 
z
M 1313 1881 
L 2866 1881 
L 2388 3150 
Q 2169 3728 2063 4100 
Q 1975 3659 1816 3225 
L 1313 1881 
z
" id="ArialMT-41" transform="scale(0.015625)"/>
      <path d="M 2588 1216 
L 3141 1144 
Q 3050 572 2676 248 
Q 2303 -75 1759 -75 
Q 1078 -75 664 370 
Q 250 816 250 1647 
Q 250 2184 428 2587 
Q 606 2991 970 3192 
Q 1334 3394 1763 3394 
Q 2303 3394 2647 3120 
Q 2991 2847 3088 2344 
L 2541 2259 
Q 2463 2594 2264 2762 
Q 2066 2931 1784 2931 
Q 1359 2931 1093 2626 
Q 828 2322 828 1663 
Q 828 994 1084 691 
Q 1341 388 1753 388 
Q 2084 388 2306 591 
Q 2528 794 2588 1216 
z
" id="ArialMT-63" transform="scale(0.015625)"/>
      <path d="M 1650 503 
L 1731 6 
Q 1494 -44 1306 -44 
Q 1000 -44 831 53 
Q 663 150 594 308 
Q 525 466 525 972 
L 525 2881 
L 113 2881 
L 113 3319 
L 525 3319 
L 525 4141 
L 1084 4478 
L 1084 3319 
L 1650 3319 
L 1650 2881 
L 1084 2881 
L 1084 941 
Q 1084 700 1114 631 
Q 1144 563 1211 522 
Q 1278 481 1403 481 
Q 1497 481 1650 503 
z
" id="ArialMT-74" transform="scale(0.015625)"/>
      <path d="M 425 3934 
L 425 4581 
L 988 4581 
L 988 3934 
L 425 3934 
z
M 425 0 
L 425 3319 
L 988 3319 
L 988 0 
L 425 0 
z
" id="ArialMT-69" transform="scale(0.015625)"/>
      <path d="M 1344 0 
L 81 3319 
L 675 3319 
L 1388 1331 
Q 1503 1009 1600 663 
Q 1675 925 1809 1294 
L 2547 3319 
L 3125 3319 
L 1869 0 
L 1344 0 
z
" id="ArialMT-76" transform="scale(0.015625)"/>
      <path d="M 2588 409 
Q 2275 144 1986 34 
Q 1697 -75 1366 -75 
Q 819 -75 525 192 
Q 231 459 231 875 
Q 231 1119 342 1320 
Q 453 1522 633 1644 
Q 813 1766 1038 1828 
Q 1203 1872 1538 1913 
Q 2219 1994 2541 2106 
Q 2544 2222 2544 2253 
Q 2544 2597 2384 2738 
Q 2169 2928 1744 2928 
Q 1347 2928 1158 2789 
Q 969 2650 878 2297 
L 328 2372 
Q 403 2725 575 2942 
Q 747 3159 1072 3276 
Q 1397 3394 1825 3394 
Q 2250 3394 2515 3294 
Q 2781 3194 2906 3042 
Q 3031 2891 3081 2659 
Q 3109 2516 3109 2141 
L 3109 1391 
Q 3109 606 3145 398 
Q 3181 191 3288 0 
L 2700 0 
Q 2613 175 2588 409 
z
M 2541 1666 
Q 2234 1541 1622 1453 
Q 1275 1403 1131 1340 
Q 988 1278 909 1158 
Q 831 1038 831 891 
Q 831 666 1001 516 
Q 1172 366 1500 366 
Q 1825 366 2078 508 
Q 2331 650 2450 897 
Q 2541 1088 2541 1459 
L 2541 1666 
z
" id="ArialMT-61" transform="scale(0.015625)"/>
      <path d="M 213 1659 
Q 213 2581 725 3025 
Q 1153 3394 1769 3394 
Q 2453 3394 2887 2945 
Q 3322 2497 3322 1706 
Q 3322 1066 3130 698 
Q 2938 331 2570 128 
Q 2203 -75 1769 -75 
Q 1072 -75 642 372 
Q 213 819 213 1659 
z
M 791 1659 
Q 791 1022 1069 705 
Q 1347 388 1769 388 
Q 2188 388 2466 706 
Q 2744 1025 2744 1678 
Q 2744 2294 2464 2611 
Q 2184 2928 1769 2928 
Q 1347 2928 1069 2612 
Q 791 2297 791 1659 
z
" id="ArialMT-6f" transform="scale(0.015625)"/>
      <path d="M 422 0 
L 422 3319 
L 928 3319 
L 928 2847 
Q 1294 3394 1984 3394 
Q 2284 3394 2536 3286 
Q 2788 3178 2913 3003 
Q 3038 2828 3088 2588 
Q 3119 2431 3119 2041 
L 3119 0 
L 2556 0 
L 2556 2019 
Q 2556 2363 2490 2533 
Q 2425 2703 2258 2804 
Q 2091 2906 1866 2906 
Q 1506 2906 1245 2678 
Q 984 2450 984 1813 
L 984 0 
L 422 0 
z
" id="ArialMT-6e" transform="scale(0.015625)"/>
      <path d="M 197 991 
L 753 1078 
Q 800 744 1014 566 
Q 1228 388 1613 388 
Q 2000 388 2187 545 
Q 2375 703 2375 916 
Q 2375 1106 2209 1216 
Q 2094 1291 1634 1406 
Q 1016 1563 777 1677 
Q 538 1791 414 1992 
Q 291 2194 291 2438 
Q 291 2659 392 2848 
Q 494 3038 669 3163 
Q 800 3259 1026 3326 
Q 1253 3394 1513 3394 
Q 1903 3394 2198 3281 
Q 2494 3169 2634 2976 
Q 2775 2784 2828 2463 
L 2278 2388 
Q 2241 2644 2061 2787 
Q 1881 2931 1553 2931 
Q 1166 2931 1000 2803 
Q 834 2675 834 2503 
Q 834 2394 903 2306 
Q 972 2216 1119 2156 
Q 1203 2125 1616 2013 
Q 2213 1853 2448 1751 
Q 2684 1650 2818 1456 
Q 2953 1263 2953 975 
Q 2953 694 2789 445 
Q 2625 197 2315 61 
Q 2006 -75 1616 -75 
Q 969 -75 630 194 
Q 291 463 197 991 
z
" id="ArialMT-73" transform="scale(0.015625)"/>
      <path id="ArialMT-20" transform="scale(0.015625)"/>
      <path d="M 556 0 
L 556 2881 
L 59 2881 
L 59 3319 
L 556 3319 
L 556 3672 
Q 556 4006 616 4169 
Q 697 4388 901 4523 
Q 1106 4659 1475 4659 
Q 1713 4659 2000 4603 
L 1916 4113 
Q 1741 4144 1584 4144 
Q 1328 4144 1222 4034 
Q 1116 3925 1116 3625 
L 1116 3319 
L 1763 3319 
L 1763 2881 
L 1116 2881 
L 1116 0 
L 556 0 
z
" id="ArialMT-66" transform="scale(0.015625)"/>
      <path d="M 416 0 
L 416 3319 
L 922 3319 
L 922 2816 
Q 1116 3169 1280 3281 
Q 1444 3394 1641 3394 
Q 1925 3394 2219 3213 
L 2025 2691 
Q 1819 2813 1613 2813 
Q 1428 2813 1281 2702 
Q 1134 2591 1072 2394 
Q 978 2094 978 1738 
L 978 0 
L 416 0 
z
" id="ArialMT-72" transform="scale(0.015625)"/>
      <path d="M 3384 2003 
L 350 706 
L 350 1266 
L 2753 2263 
L 350 3250 
L 350 3809 
L 3384 2528 
L 3384 2003 
z
" id="ArialMT-3e" transform="scale(0.015625)"/>
      <path d="M 569 0 
L 569 641 
L 1209 641 
L 1209 0 
Q 1209 -353 1084 -570 
Q 959 -788 688 -906 
L 531 -666 
Q 709 -588 793 -436 
Q 878 -284 888 0 
L 569 0 
z
" id="ArialMT-2c" transform="scale(0.015625)"/>
      <path d="M 350 2003 
L 350 2528 
L 3384 3809 
L 3384 3250 
L 978 2263 
L 3384 1266 
L 3384 706 
L 350 2003 
z
" id="ArialMT-3c" transform="scale(0.015625)"/>
     </defs>
     <use xlink:href="#ArialMT-41"/>
     <use x="66.699219" xlink:href="#ArialMT-63"/>
     <use x="116.699219" xlink:href="#ArialMT-74"/>
     <use x="144.482422" xlink:href="#ArialMT-69"/>
     <use x="166.699219" xlink:href="#ArialMT-76"/>
     <use x="216.699219" xlink:href="#ArialMT-61"/>
     <use x="272.314453" xlink:href="#ArialMT-74"/>
     <use x="300.097656" xlink:href="#ArialMT-69"/>
     <use x="322.314453" xlink:href="#ArialMT-6f"/>
     <use x="377.929688" xlink:href="#ArialMT-6e"/>
     <use x="433.544922" xlink:href="#ArialMT-73"/>
     <use x="483.544922" xlink:href="#ArialMT-20"/>
     <use x="511.328125" xlink:href="#ArialMT-66"/>
     <use x="539.111328" xlink:href="#ArialMT-6f"/>
     <use x="594.726562" xlink:href="#ArialMT-72"/>
     <use x="628.027344" xlink:href="#ArialMT-20"/>
     <use x="655.810547" xlink:href="#ArialMT-3e"/>
     <use x="714.208984" xlink:href="#ArialMT-2c"/>
     <use x="741.992188" xlink:href="#ArialMT-3c"/>
    </g>
   </g>
   <g id="legend_1">
    <g id="patch_7">
     <path d="M 640.044062 158.514363 
L 750.46 158.514363 
Q 752.66 158.514363 752.66 156.314363 
L 752.66 79.1528 
Q 752.66 76.9528 750.46 76.9528 
L 640.044062 76.9528 
Q 637.844062 76.9528 637.844062 79.1528 
L 637.844062 156.314363 
Q 637.844062 158.514363 640.044062 158.514363 
z
" style="fill:#ffffff;opacity:0.8;stroke:#cccccc;stroke-linejoin:miter;"/>
    </g>
    <g id="line2d_11">
     <path d="M 642.244062 85.376394 
L 664.244062 85.376394 
" style="fill:none;stroke:#4c72b0;stroke-linecap:round;stroke-width:1.5;"/>
    </g>
    <g id="line2d_12"/>
    <g id="text_17">
     <!-- regular -->
     <g style="fill:#262626;" transform="translate(673.044062 89.226394)scale(0.11 -0.11)">
      <defs>
       <path d="M 2694 1069 
L 3275 997 
Q 3138 488 2766 206 
Q 2394 -75 1816 -75 
Q 1088 -75 661 373 
Q 234 822 234 1631 
Q 234 2469 665 2931 
Q 1097 3394 1784 3394 
Q 2450 3394 2872 2941 
Q 3294 2488 3294 1666 
Q 3294 1616 3291 1516 
L 816 1516 
Q 847 969 1125 678 
Q 1403 388 1819 388 
Q 2128 388 2347 550 
Q 2566 713 2694 1069 
z
M 847 1978 
L 2700 1978 
Q 2663 2397 2488 2606 
Q 2219 2931 1791 2931 
Q 1403 2931 1139 2672 
Q 875 2413 847 1978 
z
" id="ArialMT-65" transform="scale(0.015625)"/>
       <path d="M 319 -275 
L 866 -356 
Q 900 -609 1056 -725 
Q 1266 -881 1628 -881 
Q 2019 -881 2231 -725 
Q 2444 -569 2519 -288 
Q 2563 -116 2559 434 
Q 2191 0 1641 0 
Q 956 0 581 494 
Q 206 988 206 1678 
Q 206 2153 378 2554 
Q 550 2956 876 3175 
Q 1203 3394 1644 3394 
Q 2231 3394 2613 2919 
L 2613 3319 
L 3131 3319 
L 3131 450 
Q 3131 -325 2973 -648 
Q 2816 -972 2473 -1159 
Q 2131 -1347 1631 -1347 
Q 1038 -1347 672 -1080 
Q 306 -813 319 -275 
z
M 784 1719 
Q 784 1066 1043 766 
Q 1303 466 1694 466 
Q 2081 466 2343 764 
Q 2606 1063 2606 1700 
Q 2606 2309 2336 2618 
Q 2066 2928 1684 2928 
Q 1309 2928 1046 2623 
Q 784 2319 784 1719 
z
" id="ArialMT-67" transform="scale(0.015625)"/>
       <path d="M 2597 0 
L 2597 488 
Q 2209 -75 1544 -75 
Q 1250 -75 995 37 
Q 741 150 617 320 
Q 494 491 444 738 
Q 409 903 409 1263 
L 409 3319 
L 972 3319 
L 972 1478 
Q 972 1038 1006 884 
Q 1059 663 1231 536 
Q 1403 409 1656 409 
Q 1909 409 2131 539 
Q 2353 669 2445 892 
Q 2538 1116 2538 1541 
L 2538 3319 
L 3100 3319 
L 3100 0 
L 2597 0 
z
" id="ArialMT-75" transform="scale(0.015625)"/>
       <path d="M 409 0 
L 409 4581 
L 972 4581 
L 972 0 
L 409 0 
z
" id="ArialMT-6c" transform="scale(0.015625)"/>
      </defs>
      <use xlink:href="#ArialMT-72"/>
      <use x="33.300781" xlink:href="#ArialMT-65"/>
      <use x="88.916016" xlink:href="#ArialMT-67"/>
      <use x="144.53125" xlink:href="#ArialMT-75"/>
      <use x="200.146484" xlink:href="#ArialMT-6c"/>
      <use x="222.363281" xlink:href="#ArialMT-61"/>
      <use x="277.978516" xlink:href="#ArialMT-72"/>
     </g>
    </g>
    <g id="line2d_13">
     <path d="M 642.244062 101.0978 
L 664.244062 101.0978 
" style="fill:none;stroke:#dd8452;stroke-dasharray:6,2.25;stroke-dashoffset:0;stroke-width:1.5;"/>
    </g>
    <g id="line2d_14"/>
    <g id="text_18">
     <!-- splitted_3s -->
     <g style="fill:#262626;" transform="translate(673.044062 104.9478)scale(0.11 -0.11)">
      <defs>
       <path d="M 422 -1272 
L 422 3319 
L 934 3319 
L 934 2888 
Q 1116 3141 1344 3267 
Q 1572 3394 1897 3394 
Q 2322 3394 2647 3175 
Q 2972 2956 3137 2557 
Q 3303 2159 3303 1684 
Q 3303 1175 3120 767 
Q 2938 359 2589 142 
Q 2241 -75 1856 -75 
Q 1575 -75 1351 44 
Q 1128 163 984 344 
L 984 -1272 
L 422 -1272 
z
M 931 1641 
Q 931 1000 1190 694 
Q 1450 388 1819 388 
Q 2194 388 2461 705 
Q 2728 1022 2728 1688 
Q 2728 2322 2467 2637 
Q 2206 2953 1844 2953 
Q 1484 2953 1207 2617 
Q 931 2281 931 1641 
z
" id="ArialMT-70" transform="scale(0.015625)"/>
       <path d="M 2575 0 
L 2575 419 
Q 2259 -75 1647 -75 
Q 1250 -75 917 144 
Q 584 363 401 755 
Q 219 1147 219 1656 
Q 219 2153 384 2558 
Q 550 2963 881 3178 
Q 1213 3394 1622 3394 
Q 1922 3394 2156 3267 
Q 2391 3141 2538 2938 
L 2538 4581 
L 3097 4581 
L 3097 0 
L 2575 0 
z
M 797 1656 
Q 797 1019 1065 703 
Q 1334 388 1700 388 
Q 2069 388 2326 689 
Q 2584 991 2584 1609 
Q 2584 2291 2321 2609 
Q 2059 2928 1675 2928 
Q 1300 2928 1048 2622 
Q 797 2316 797 1656 
z
" id="ArialMT-64" transform="scale(0.015625)"/>
       <path d="M -97 -1272 
L -97 -866 
L 3631 -866 
L 3631 -1272 
L -97 -1272 
z
" id="ArialMT-5f" transform="scale(0.015625)"/>
       <path d="M 269 1209 
L 831 1284 
Q 928 806 1161 595 
Q 1394 384 1728 384 
Q 2125 384 2398 659 
Q 2672 934 2672 1341 
Q 2672 1728 2419 1979 
Q 2166 2231 1775 2231 
Q 1616 2231 1378 2169 
L 1441 2663 
Q 1497 2656 1531 2656 
Q 1891 2656 2178 2843 
Q 2466 3031 2466 3422 
Q 2466 3731 2256 3934 
Q 2047 4138 1716 4138 
Q 1388 4138 1169 3931 
Q 950 3725 888 3313 
L 325 3413 
Q 428 3978 793 4289 
Q 1159 4600 1703 4600 
Q 2078 4600 2393 4439 
Q 2709 4278 2876 4000 
Q 3044 3722 3044 3409 
Q 3044 3113 2884 2869 
Q 2725 2625 2413 2481 
Q 2819 2388 3044 2092 
Q 3269 1797 3269 1353 
Q 3269 753 2831 336 
Q 2394 -81 1725 -81 
Q 1122 -81 723 278 
Q 325 638 269 1209 
z
" id="ArialMT-33" transform="scale(0.015625)"/>
      </defs>
      <use xlink:href="#ArialMT-73"/>
      <use x="50" xlink:href="#ArialMT-70"/>
      <use x="105.615234" xlink:href="#ArialMT-6c"/>
      <use x="127.832031" xlink:href="#ArialMT-69"/>
      <use x="150.048828" xlink:href="#ArialMT-74"/>
      <use x="177.832031" xlink:href="#ArialMT-74"/>
      <use x="205.615234" xlink:href="#ArialMT-65"/>
      <use x="261.230469" xlink:href="#ArialMT-64"/>
      <use x="316.845703" xlink:href="#ArialMT-5f"/>
      <use x="372.460938" xlink:href="#ArialMT-33"/>
      <use x="428.076172" xlink:href="#ArialMT-73"/>
     </g>
    </g>
    <g id="line2d_15">
     <path d="M 642.244062 116.6903 
L 664.244062 116.6903 
" style="fill:none;stroke:#55a868;stroke-dasharray:1.5,1.5;stroke-dashoffset:0;stroke-width:1.5;"/>
    </g>
    <g id="line2d_16"/>
    <g id="text_19">
     <!-- splitted_1s -->
     <g style="fill:#262626;" transform="translate(673.044062 120.5403)scale(0.11 -0.11)">
      <use xlink:href="#ArialMT-73"/>
      <use x="50" xlink:href="#ArialMT-70"/>
      <use x="105.615234" xlink:href="#ArialMT-6c"/>
      <use x="127.832031" xlink:href="#ArialMT-69"/>
      <use x="150.048828" xlink:href="#ArialMT-74"/>
      <use x="177.832031" xlink:href="#ArialMT-74"/>
      <use x="205.615234" xlink:href="#ArialMT-65"/>
      <use x="261.230469" xlink:href="#ArialMT-64"/>
      <use x="316.845703" xlink:href="#ArialMT-5f"/>
      <use x="372.460938" xlink:href="#ArialMT-31"/>
      <use x="428.076172" xlink:href="#ArialMT-73"/>
     </g>
    </g>
    <g id="line2d_17">
     <path d="M 642.244062 132.384206 
L 664.244062 132.384206 
" style="fill:none;stroke:#c44e52;stroke-dasharray:4.5,1.875,2.25,1.875;stroke-dashoffset:0;stroke-width:1.5;"/>
    </g>
    <g id="line2d_18"/>
    <g id="text_20">
     <!-- overlap_1f_3s -->
     <g style="fill:#262626;" transform="translate(673.044062 136.234206)scale(0.11 -0.11)">
      <use xlink:href="#ArialMT-6f"/>
      <use x="55.615234" xlink:href="#ArialMT-76"/>
      <use x="105.615234" xlink:href="#ArialMT-65"/>
      <use x="161.230469" xlink:href="#ArialMT-72"/>
      <use x="194.53125" xlink:href="#ArialMT-6c"/>
      <use x="216.748047" xlink:href="#ArialMT-61"/>
      <use x="272.363281" xlink:href="#ArialMT-70"/>
      <use x="327.978516" xlink:href="#ArialMT-5f"/>
      <use x="383.59375" xlink:href="#ArialMT-31"/>
      <use x="439.208984" xlink:href="#ArialMT-66"/>
      <use x="466.992188" xlink:href="#ArialMT-5f"/>
      <use x="522.607422" xlink:href="#ArialMT-33"/>
      <use x="578.222656" xlink:href="#ArialMT-73"/>
     </g>
    </g>
    <g id="line2d_19">
     <path d="M 642.244062 148.078113 
L 664.244062 148.078113 
" style="fill:none;stroke:#8172b3;stroke-dasharray:7.5,1.5,1.5,1.5;stroke-dashoffset:0;stroke-width:1.5;"/>
    </g>
    <g id="line2d_20"/>
    <g id="text_21">
     <!-- overlap_10f_3s -->
     <g style="fill:#262626;" transform="translate(673.044062 151.928112)scale(0.11 -0.11)">
      <use xlink:href="#ArialMT-6f"/>
      <use x="55.615234" xlink:href="#ArialMT-76"/>
      <use x="105.615234" xlink:href="#ArialMT-65"/>
      <use x="161.230469" xlink:href="#ArialMT-72"/>
      <use x="194.53125" xlink:href="#ArialMT-6c"/>
      <use x="216.748047" xlink:href="#ArialMT-61"/>
      <use x="272.363281" xlink:href="#ArialMT-70"/>
      <use x="327.978516" xlink:href="#ArialMT-5f"/>
      <use x="383.59375" xlink:href="#ArialMT-31"/>
      <use x="439.208984" xlink:href="#ArialMT-30"/>
      <use x="494.824219" xlink:href="#ArialMT-66"/>
      <use x="522.607422" xlink:href="#ArialMT-5f"/>
      <use x="578.222656" xlink:href="#ArialMT-33"/>
      <use x="633.837891" xlink:href="#ArialMT-73"/>
     </g>
    </g>
   </g>
  </g>
 </g>
 <defs>
  <clipPath id="p83a3a62955">
   <rect height="458.4888" width="652.86" x="105.3" y="71.4528"/>
  </clipPath>
 </defs>
</svg>
