<?xml version="1.0" encoding="utf-8" standalone="no"?>
<!DOCTYPE svg PUBLIC "-//W3C//DTD SVG 1.1//EN"
  "http://www.w3.org/Graphics/SVG/1.1/DTD/svg11.dtd">
<svg height="595.44pt" version="1.1" viewBox="0 0 842.4 595.44" width="842.4pt" xmlns="http://www.w3.org/2000/svg" xmlns:xlink="http://www.w3.org/1999/xlink">
 <metadata>
  <rdf:RDF xmlns:cc="http://creativecommons.org/ns#" xmlns:dc="http://purl.org/dc/elements/1.1/" xmlns:rdf="http://www.w3.org/1999/02/22-rdf-syntax-ns#">
   <cc:Work>
    <dc:type rdf:resource="http://purl.org/dc/dcmitype/StillImage"/>
    <dc:date>2021-06-04T22:03:12.778036</dc:date>
    <dc:format>image/svg+xml</dc:format>
    <dc:creator>
     <cc:Agent>
      <dc:title>Matplotlib v3.4.1, https://matplotlib.org/</dc:title>
     </cc:Agent>
    </dc:creator>
   </cc:Work>
  </rdf:RDF>
 </metadata>
 <defs>
  <style type="text/css">*{stroke-linecap:butt;stroke-linejoin:round;}</style>
 </defs>
 <g id="figure_1">
  <g id="patch_1">
   <path d="M 0 595.44 
L 842.4 595.44 
L 842.4 0 
L 0 0 
z
" style="fill:#ffffff;"/>
  </g>
  <g id="axes_1">
   <g id="patch_2">
    <path d="M 105.3 529.9416 
L 758.16 529.9416 
L 758.16 71.4528 
L 105.3 71.4528 
z
" style="fill:#ffffff;"/>
   </g>
   <g id="matplotlib.axis_1">
    <g id="xtick_1">
     <g id="text_1">
      <!-- 0 -->
      <g style="fill:#262626;" transform="translate(131.916939 547.315194)scale(0.11 -0.11)">
       <defs>
        <path d="M 266 2259 
Q 266 3072 433 3567 
Q 600 4063 929 4331 
Q 1259 4600 1759 4600 
Q 2128 4600 2406 4451 
Q 2684 4303 2865 4023 
Q 3047 3744 3150 3342 
Q 3253 2941 3253 2259 
Q 3253 1453 3087 958 
Q 2922 463 2592 192 
Q 2263 -78 1759 -78 
Q 1097 -78 719 397 
Q 266 969 266 2259 
z
M 844 2259 
Q 844 1131 1108 757 
Q 1372 384 1759 384 
Q 2147 384 2411 759 
Q 2675 1134 2675 2259 
Q 2675 3391 2411 3762 
Q 2147 4134 1753 4134 
Q 1366 4134 1134 3806 
Q 844 3388 844 2259 
z
" id="ArialMT-30" transform="scale(0.015625)"/>
       </defs>
       <use xlink:href="#ArialMT-30"/>
      </g>
     </g>
    </g>
    <g id="xtick_2">
     <g id="text_2">
      <!-- 25 -->
      <g style="fill:#262626;" transform="translate(201.950676 547.315194)scale(0.11 -0.11)">
       <defs>
        <path d="M 3222 541 
L 3222 0 
L 194 0 
Q 188 203 259 391 
Q 375 700 629 1000 
Q 884 1300 1366 1694 
Q 2113 2306 2375 2664 
Q 2638 3022 2638 3341 
Q 2638 3675 2398 3904 
Q 2159 4134 1775 4134 
Q 1369 4134 1125 3890 
Q 881 3647 878 3216 
L 300 3275 
Q 359 3922 746 4261 
Q 1134 4600 1788 4600 
Q 2447 4600 2831 4234 
Q 3216 3869 3216 3328 
Q 3216 3053 3103 2787 
Q 2991 2522 2730 2228 
Q 2469 1934 1863 1422 
Q 1356 997 1212 845 
Q 1069 694 975 541 
L 3222 541 
z
" id="ArialMT-32" transform="scale(0.015625)"/>
        <path d="M 266 1200 
L 856 1250 
Q 922 819 1161 601 
Q 1400 384 1738 384 
Q 2144 384 2425 690 
Q 2706 997 2706 1503 
Q 2706 1984 2436 2262 
Q 2166 2541 1728 2541 
Q 1456 2541 1237 2417 
Q 1019 2294 894 2097 
L 366 2166 
L 809 4519 
L 3088 4519 
L 3088 3981 
L 1259 3981 
L 1013 2750 
Q 1425 3038 1878 3038 
Q 2478 3038 2890 2622 
Q 3303 2206 3303 1553 
Q 3303 931 2941 478 
Q 2500 -78 1738 -78 
Q 1113 -78 717 272 
Q 322 622 266 1200 
z
" id="ArialMT-35" transform="scale(0.015625)"/>
       </defs>
       <use xlink:href="#ArialMT-32"/>
       <use x="55.615234" xlink:href="#ArialMT-35"/>
      </g>
     </g>
    </g>
    <g id="xtick_3">
     <g id="text_3">
      <!-- 50 -->
      <g style="fill:#262626;" transform="translate(275.042928 547.315194)scale(0.11 -0.11)">
       <use xlink:href="#ArialMT-35"/>
       <use x="55.615234" xlink:href="#ArialMT-30"/>
      </g>
     </g>
    </g>
    <g id="xtick_4">
     <g id="text_4">
      <!-- 75 -->
      <g style="fill:#262626;" transform="translate(348.135181 547.315194)scale(0.11 -0.11)">
       <defs>
        <path d="M 303 3981 
L 303 4522 
L 3269 4522 
L 3269 4084 
Q 2831 3619 2401 2847 
Q 1972 2075 1738 1259 
Q 1569 684 1522 0 
L 944 0 
Q 953 541 1156 1306 
Q 1359 2072 1739 2783 
Q 2119 3494 2547 3981 
L 303 3981 
z
" id="ArialMT-37" transform="scale(0.015625)"/>
       </defs>
       <use xlink:href="#ArialMT-37"/>
       <use x="55.615234" xlink:href="#ArialMT-35"/>
      </g>
     </g>
    </g>
    <g id="xtick_5">
     <g id="text_5">
      <!-- 100 -->
      <g style="fill:#262626;" transform="translate(418.168918 547.315194)scale(0.11 -0.11)">
       <defs>
        <path d="M 2384 0 
L 1822 0 
L 1822 3584 
Q 1619 3391 1289 3197 
Q 959 3003 697 2906 
L 697 3450 
Q 1169 3672 1522 3987 
Q 1875 4303 2022 4600 
L 2384 4600 
L 2384 0 
z
" id="ArialMT-31" transform="scale(0.015625)"/>
       </defs>
       <use xlink:href="#ArialMT-31"/>
       <use x="55.615234" xlink:href="#ArialMT-30"/>
       <use x="111.230469" xlink:href="#ArialMT-30"/>
      </g>
     </g>
    </g>
    <g id="xtick_6">
     <g id="text_6">
      <!-- 125 -->
      <g style="fill:#262626;" transform="translate(491.261171 547.315194)scale(0.11 -0.11)">
       <use xlink:href="#ArialMT-31"/>
       <use x="55.615234" xlink:href="#ArialMT-32"/>
       <use x="111.230469" xlink:href="#ArialMT-35"/>
      </g>
     </g>
    </g>
    <g id="xtick_7">
     <g id="text_7">
      <!-- 150 -->
      <g style="fill:#262626;" transform="translate(564.353423 547.315194)scale(0.11 -0.11)">
       <use xlink:href="#ArialMT-31"/>
       <use x="55.615234" xlink:href="#ArialMT-35"/>
       <use x="111.230469" xlink:href="#ArialMT-30"/>
      </g>
     </g>
    </g>
    <g id="xtick_8">
     <g id="text_8">
      <!-- 175 -->
      <g style="fill:#262626;" transform="translate(637.445676 547.315194)scale(0.11 -0.11)">
       <use xlink:href="#ArialMT-31"/>
       <use x="55.615234" xlink:href="#ArialMT-37"/>
       <use x="111.230469" xlink:href="#ArialMT-35"/>
      </g>
     </g>
    </g>
    <g id="xtick_9">
     <g id="text_9">
      <!-- 200 -->
      <g style="fill:#262626;" transform="translate(710.537928 547.315194)scale(0.11 -0.11)">
       <use xlink:href="#ArialMT-32"/>
       <use x="55.615234" xlink:href="#ArialMT-30"/>
       <use x="111.230469" xlink:href="#ArialMT-30"/>
      </g>
     </g>
    </g>
   </g>
   <g id="matplotlib.axis_2">
    <g id="ytick_1">
     <g id="text_10">
      <!-- −25 -->
      <g style="fill:#262626;" transform="translate(77.14125 533.878397)scale(0.11 -0.11)">
       <defs>
        <path d="M 3381 1997 
L 356 1997 
L 356 2522 
L 3381 2522 
L 3381 1997 
z
" id="ArialMT-2212" transform="scale(0.015625)"/>
       </defs>
       <use xlink:href="#ArialMT-2212"/>
       <use x="58.398438" xlink:href="#ArialMT-32"/>
       <use x="114.013672" xlink:href="#ArialMT-35"/>
      </g>
     </g>
    </g>
    <g id="ytick_2">
     <g id="text_11">
      <!-- −20 -->
      <g style="fill:#262626;" transform="translate(77.14125 442.180637)scale(0.11 -0.11)">
       <use xlink:href="#ArialMT-2212"/>
       <use x="58.398438" xlink:href="#ArialMT-32"/>
       <use x="114.013672" xlink:href="#ArialMT-30"/>
      </g>
     </g>
    </g>
    <g id="ytick_3">
     <g id="text_12">
      <!-- −15 -->
      <g style="fill:#262626;" transform="translate(77.14125 350.482877)scale(0.11 -0.11)">
       <use xlink:href="#ArialMT-2212"/>
       <use x="58.398438" xlink:href="#ArialMT-31"/>
       <use x="114.013672" xlink:href="#ArialMT-35"/>
      </g>
     </g>
    </g>
    <g id="ytick_4">
     <g id="text_13">
      <!-- −10 -->
      <g style="fill:#262626;" transform="translate(77.14125 258.785117)scale(0.11 -0.11)">
       <use xlink:href="#ArialMT-2212"/>
       <use x="58.398438" xlink:href="#ArialMT-31"/>
       <use x="114.013672" xlink:href="#ArialMT-30"/>
      </g>
     </g>
    </g>
    <g id="ytick_5">
     <g id="text_14">
      <!-- −5 -->
      <g style="fill:#262626;" transform="translate(83.258281 167.087357)scale(0.11 -0.11)">
       <use xlink:href="#ArialMT-2212"/>
       <use x="58.398438" xlink:href="#ArialMT-35"/>
      </g>
     </g>
    </g>
    <g id="ytick_6">
     <g id="text_15">
      <!-- 0 -->
      <g style="fill:#262626;" transform="translate(89.682969 75.389597)scale(0.11 -0.11)">
       <use xlink:href="#ArialMT-30"/>
      </g>
     </g>
    </g>
   </g>
   <g id="line2d_1">
    <path clip-path="url(#p841460fd8d)" d="M 134.975455 343.721784 
L 137.899145 343.699974 
L 140.822835 345.851221 
L 143.746525 344.542115 
L 146.670215 346.265086 
L 149.593905 346.464857 
L 152.517595 347.500769 
L 155.441285 350.549252 
L 158.364975 352.346398 
L 161.288665 351.735893 
L 164.212356 352.123593 
L 167.136046 353.359329 
L 170.059736 372.246981 
L 172.983426 379.5652 
L 175.907116 396.500378 
L 178.830806 412.028034 
L 181.754496 428.347671 
L 184.678186 380.490384 
L 187.601876 398.401502 
L 190.525567 486.227684 
L 193.449257 452.188935 
L 196.372947 386.91644 
L 199.296637 426.530639 
L 202.220327 361.08293 
L 205.144017 363.53873 
L 208.067707 462.600288 
L 210.991397 453.161411 
L 213.915087 463.43344 
L 216.838777 400.388221 
L 219.762468 368.346056 
L 222.686158 379.072998 
L 225.609848 403.19543 
L 228.533538 415.934802 
L 231.457228 394.266211 
L 234.380918 295.23638 
L 237.304608 406.024781 
L 240.228298 433.065098 
L 243.151988 359.64515 
L 246.075678 273.985956 
L 248.999369 280.09401 
L 251.923059 375.175255 
L 254.846749 413.587684 
L 257.770439 467.897717 
L 260.694129 360.872806 
L 263.617819 440.175081 
L 266.541509 373.458126 
L 269.465199 388.469269 
L 272.388889 393.29251 
L 275.312579 412.455979 
L 278.23627 422.355051 
L 281.15996 410.583888 
L 284.08365 368.717402 
L 287.00734 374.985629 
L 289.93103 442.230991 
L 292.85472 388.958148 
L 295.77841 376.854956 
L 298.7021 409.844553 
L 301.62579 342.099328 
L 304.549481 346.666428 
L 307.473171 373.338844 
L 310.396861 447.491481 
L 313.320551 346.60238 
L 316.244241 330.839536 
L 319.167931 323.239257 
L 322.091621 380.117533 
L 325.015311 312.796947 
L 327.939001 357.272865 
L 330.862691 399.924458 
L 333.786382 372.946475 
L 336.710072 344.328196 
L 339.633762 436.564069 
L 342.557452 424.561934 
L 345.481142 332.323979 
L 348.404832 306.757663 
L 351.328522 306.775556 
L 354.252212 303.868007 
L 357.175902 337.438446 
L 360.099592 379.306943 
L 363.023283 478.241559 
L 365.946973 369.412978 
L 368.870663 355.741199 
L 371.794353 396.877042 
L 374.718043 417.130835 
L 377.641733 410.447327 
L 380.565423 441.739313 
L 383.489113 402.067223 
L 386.412803 347.726512 
L 389.336494 383.341212 
L 392.260184 358.638306 
L 395.183874 359.629374 
L 398.107564 312.161816 
L 401.031254 267.454593 
L 403.954944 266.329954 
L 406.878634 329.324049 
L 409.802324 311.017885 
L 412.726014 324.809768 
L 415.649704 423.538352 
L 418.573395 411.897384 
L 421.497085 428.50564 
L 424.420775 498.900594 
L 427.344465 371.289861 
L 430.268155 429.430859 
L 433.191845 425.686014 
L 436.115535 292.269103 
L 439.039225 378.47638 
L 441.962915 398.633839 
L 444.886605 379.785888 
L 447.810296 299.963811 
L 450.733986 274.636495 
L 453.657676 341.316162 
L 456.581366 305.985517 
L 459.505056 344.292026 
L 462.428746 310.649284 
L 465.352436 361.641227 
L 468.276126 357.880046 
L 471.199816 327.131648 
L 474.123506 348.644963 
L 477.047197 332.979748 
L 479.970887 277.309661 
L 482.894577 403.547608 
L 485.818267 425.375672 
L 488.741957 475.246228 
L 491.665647 451.967652 
L 494.589337 394.437298 
L 497.513027 415.281692 
L 500.436717 357.740494 
L 503.360408 275.775826 
L 506.284098 342.455248 
L 509.207788 455.073589 
L 512.131478 448.88655 
L 515.055168 435.385211 
L 517.978858 322.020259 
L 520.902548 360.997404 
L 523.826238 426.29379 
L 526.749928 424.464935 
L 529.673618 474.117042 
L 532.597309 476.775061 
L 535.520999 399.679983 
L 538.444689 393.24854 
L 541.368379 476.060771 
L 544.292069 476.39238 
L 547.215759 439.824862 
L 550.139449 529.45419 
L 553.063139 456.879147 
L 555.986829 473.826708 
L 558.910519 452.721364 
L 561.83421 439.596269 
L 564.7579 472.673805 
L 567.68159 427.08577 
L 570.60528 411.978923 
L 573.52897 368.014726 
L 576.45266 379.937631 
L 579.37635 419.182512 
L 582.30004 472.327784 
L 585.22373 446.120164 
L 588.147421 424.839465 
L 591.071111 347.879917 
L 593.994801 389.899772 
L 596.918491 350.218692 
L 599.842181 354.747 
L 602.765871 399.551886 
L 605.689561 376.005119 
L 608.613251 399.924807 
L 611.536941 462.061737 
L 614.460631 435.204715 
L 617.384322 308.307204 
L 620.308012 330.568757 
L 623.231702 353.91899 
L 626.155392 425.377876 
L 629.079082 432.52165 
L 632.002772 402.450358 
L 634.926462 391.316529 
L 637.850152 373.871449 
L 640.773842 277.527778 
L 643.697532 288.472173 
L 646.621223 329.138201 
L 649.544913 364.365551 
L 652.468603 447.386017 
L 655.392293 399.787756 
L 658.315983 348.233144 
L 661.239673 421.471039 
L 664.163363 362.455 
L 667.087053 417.842397 
L 670.010743 395.073757 
L 672.934433 364.621936 
L 675.858124 411.551223 
L 678.781814 367.150442 
L 681.705504 432.009894 
L 684.629194 481.926798 
L 687.552884 452.776877 
L 690.476574 515.356443 
L 693.400264 393.51848 
L 699.247644 346.812277 
L 702.171335 365.58635 
L 705.095025 368.03351 
L 708.018715 364.218338 
L 710.942405 363.612678 
L 713.866095 364.157263 
L 716.789785 362.498357 
L 719.713475 362.806985 
L 722.637165 362.829897 
L 725.560855 364.973432 
L 728.484545 366.908311 
L 728.484545 366.908311 
" style="fill:none;stroke:#4c72b0;stroke-linecap:round;stroke-width:1.5;"/>
   </g>
   <g id="line2d_2">
    <path clip-path="url(#p841460fd8d)" d="M 134.975455 340.168191 
L 137.899145 341.132868 
L 140.822835 341.16344 
L 143.746525 340.606612 
L 146.670215 342.018821 
L 149.593905 340.931715 
L 152.517595 341.369612 
L 155.441285 342.603581 
L 158.364975 342.57899 
L 164.212356 339.420933 
L 167.136046 339.330562 
L 170.059736 359.232003 
L 172.983426 361.439008 
L 178.830806 397.575556 
L 181.754496 409.168426 
L 184.678186 376.203875 
L 187.601876 378.053718 
L 190.525567 482.449468 
L 193.449257 437.492646 
L 196.372947 385.331325 
L 199.296637 417.705065 
L 202.220327 351.423662 
L 205.144017 376.326794 
L 208.067707 455.934375 
L 210.991397 477.869757 
L 213.915087 449.956586 
L 219.762468 363.774302 
L 222.686158 376.326969 
L 225.609848 381.613029 
L 228.533538 384.465642 
L 231.457228 384.272133 
L 234.380918 275.30428 
L 237.304608 379.109517 
L 240.228298 412.242077 
L 243.151988 328.43757 
L 246.075678 252.674878 
L 248.999369 291.521775 
L 251.923059 373.693681 
L 254.846749 393.442993 
L 257.770439 463.190609 
L 260.694129 363.692327 
L 263.617819 435.544894 
L 266.541509 381.344104 
L 269.465199 395.604228 
L 272.388889 422.225241 
L 275.312579 434.938797 
L 278.23627 434.160494 
L 281.15996 417.43586 
L 284.08365 360.236748 
L 287.00734 365.968051 
L 289.93103 458.466711 
L 292.85472 415.602807 
L 295.77841 364.84558 
L 298.7021 398.928929 
L 301.62579 329.055123 
L 304.549481 350.116323 
L 307.473171 389.42527 
L 310.396861 427.073807 
L 313.320551 357.965047 
L 316.244241 365.480116 
L 319.167931 374.288969 
L 322.091621 404.64059 
L 325.015311 323.675929 
L 327.939001 363.529338 
L 330.862691 386.305131 
L 333.786382 354.56869 
L 336.710072 370.766876 
L 339.633762 440.387689 
L 342.557452 402.278571 
L 345.481142 325.89955 
L 348.404832 360.985319 
L 351.328522 378.333977 
L 354.252212 317.032193 
L 357.175902 216.280353 
L 360.099592 156.53187 
L 363.023283 158.219686 
L 365.946973 249.042091 
L 368.870663 233.817868 
L 371.794353 278.586515 
L 374.718043 295.975943 
L 377.641733 296.036458 
L 380.565423 369.277676 
L 383.489113 353.778773 
L 386.412803 346.837113 
L 389.336494 366.554104 
L 392.260184 356.513101 
L 395.183874 340.859394 
L 398.107564 281.868279 
L 401.031254 243.192399 
L 403.954944 277.939055 
L 406.878634 317.785101 
L 409.802324 341.804972 
L 412.726014 367.129804 
L 415.649704 447.237142 
L 418.573395 408.637816 
L 421.497085 420.134316 
L 424.420775 460.068476 
L 427.344465 327.905456 
L 430.268155 380.483703 
L 433.191845 381.961779 
L 436.115535 267.581343 
L 439.039225 389.274296 
L 441.962915 400.177992 
L 444.886605 341.753796 
L 447.810296 272.810491 
L 450.733986 294.680007 
L 453.657676 335.285642 
L 456.581366 326.729046 
L 459.505056 361.818663 
L 462.428746 313.546234 
L 465.352436 367.690077 
L 468.276126 362.43723 
L 471.199816 341.512959 
L 474.123506 329.950329 
L 477.047197 367.27532 
L 479.970887 284.003156 
L 482.894577 403.449034 
L 485.818267 433.231882 
L 488.741957 481.290619 
L 491.665647 472.080546 
L 494.589337 400.747395 
L 497.513027 424.638575 
L 500.436717 375.220309 
L 503.360408 281.743191 
L 506.284098 341.795265 
L 509.207788 435.757362 
L 512.131478 429.032193 
L 515.055168 424.388644 
L 517.978858 332.507362 
L 520.902548 354.364932 
L 523.826238 428.175955 
L 526.749928 439.321921 
L 529.673618 477.093483 
L 532.597309 465.347366 
L 535.520999 380.951139 
L 538.444689 370.775901 
L 541.368379 428.946842 
L 544.292069 482.998618 
L 547.215759 397.671331 
L 550.139449 471.122446 
L 553.063139 438.916329 
L 555.986829 380.197112 
L 558.910519 306.390287 
L 561.83421 258.843202 
L 564.7579 341.833673 
L 567.68159 321.291068 
L 570.60528 431.455252 
L 573.52897 204.421259 
L 576.45266 246.119711 
L 579.37635 310.279617 
L 582.30004 303.355464 
L 585.22373 376.668653 
L 588.147421 352.771859 
L 591.071111 322.019245 
L 593.994801 351.37212 
L 596.918491 296.981493 
L 599.842181 356.167954 
L 602.765871 375.693972 
L 605.689561 369.919592 
L 608.613251 426.366408 
L 611.536941 433.881809 
L 614.460631 408.938888 
L 617.384322 344.878657 
L 620.308012 338.884726 
L 623.231702 349.387219 
L 626.155392 424.203215 
L 629.079082 390.884212 
L 632.002772 407.451926 
L 634.926462 383.11839 
L 637.850152 339.32932 
L 640.773842 276.172429 
L 643.697532 262.08103 
L 649.544913 368.475201 
L 652.468603 428.108443 
L 655.392293 406.525063 
L 658.315983 316.829659 
L 661.239673 398.205055 
L 664.163363 333.655193 
L 667.087053 415.982339 
L 670.010743 403.723697 
L 672.934433 355.784854 
L 675.858124 405.811438 
L 678.781814 372.765628 
L 681.705504 409.462852 
L 684.629194 464.472308 
L 687.552884 425.299276 
L 690.476574 484.479038 
L 693.400264 392.156117 
L 696.323954 360.870864 
L 699.247644 331.59108 
L 702.171335 344.086047 
L 705.095025 349.328698 
L 708.018715 347.98755 
L 710.942405 347.656115 
L 713.866095 345.648548 
L 716.789785 345.525891 
L 719.713475 346.668265 
L 722.637165 344.899977 
L 725.560855 347.092221 
L 728.484545 342.488409 
L 728.484545 342.488409 
" style="fill:none;stroke:#dd8452;stroke-dasharray:6,2.25;stroke-dashoffset:0;stroke-width:1.5;"/>
   </g>
   <g id="line2d_3">
    <path clip-path="url(#p841460fd8d)" d="M 134.975455 340.704154 
L 137.899145 340.210167 
L 140.822835 339.891483 
L 143.746525 338.532443 
L 146.670215 342.338538 
L 149.593905 344.884551 
L 152.517595 344.846668 
L 155.441285 368.374459 
L 158.364975 366.206299 
L 161.288665 359.551736 
L 164.212356 364.860307 
L 167.136046 359.628972 
L 172.983426 377.025938 
L 175.907116 394.384268 
L 178.830806 406.371712 
L 181.754496 422.761343 
L 184.678186 361.016521 
L 187.601876 395.149174 
L 190.525567 378.157783 
L 193.449257 383.311899 
L 196.372947 362.815031 
L 199.296637 394.065531 
L 202.220327 377.847196 
L 205.144017 306.7687 
L 208.067707 282.07571 
L 210.991397 396.972257 
L 213.915087 414.106821 
L 216.838777 284.534553 
L 219.762468 284.617753 
L 222.686158 323.597207 
L 225.609848 323.559008 
L 228.533538 382.264426 
L 231.457228 377.653652 
L 234.380918 269.762044 
L 237.304608 389.743202 
L 240.228298 439.065483 
L 243.151988 340.169608 
L 246.075678 214.819469 
L 248.999369 298.37588 
L 251.923059 319.668419 
L 254.846749 425.982679 
L 257.770439 466.411245 
L 260.694129 341.362231 
L 263.617819 403.342066 
L 266.541509 339.457767 
L 269.465199 389.323478 
L 272.388889 373.348919 
L 275.312579 332.560094 
L 278.23627 349.869942 
L 281.15996 298.06197 
L 284.08365 275.191329 
L 287.00734 249.578945 
L 289.93103 358.979937 
L 292.85472 327.289704 
L 295.77841 362.219375 
L 298.7021 432.955611 
L 301.62579 394.283071 
L 304.549481 410.791844 
L 307.473171 432.036793 
L 310.396861 477.619686 
L 313.320551 379.873758 
L 316.244241 378.630432 
L 319.167931 403.587275 
L 322.091621 434.108689 
L 325.015311 337.415044 
L 327.939001 362.783199 
L 330.862691 435.69251 
L 333.786382 387.834068 
L 336.710072 397.982372 
L 339.633762 488.696042 
L 342.557452 455.745518 
L 345.481142 355.5918 
L 348.404832 360.420078 
L 351.328522 355.125587 
L 354.252212 221.318318 
L 357.175902 277.508189 
L 360.099592 317.984906 
L 363.023283 165.79756 
L 365.946973 213.570651 
L 368.870663 296.262533 
L 371.794353 265.40867 
L 374.718043 305.047862 
L 377.641733 308.873022 
L 380.565423 323.365937 
L 383.489113 317.178007 
L 386.412803 332.890881 
L 389.336494 342.333903 
L 392.260184 333.864233 
L 395.183874 319.215884 
L 398.107564 332.111949 
L 401.031254 230.498431 
L 403.954944 293.274304 
L 406.878634 316.762515 
L 409.802324 376.75278 
L 412.726014 355.70809 
L 415.649704 475.883737 
L 418.573395 459.05969 
L 421.497085 466.538292 
L 424.420775 499.34456 
L 427.344465 356.850814 
L 430.268155 402.339471 
L 433.191845 307.071626 
L 436.115535 223.698562 
L 439.039225 319.230313 
L 441.962915 299.936824 
L 444.886605 337.661041 
L 447.810296 313.106239 
L 450.733986 251.849894 
L 453.657676 278.200792 
L 456.581366 339.893144 
L 459.505056 388.000922 
L 462.428746 313.52668 
L 465.352436 345.293956 
L 468.276126 327.255529 
L 471.199816 262.648562 
L 474.123506 251.393336 
L 477.047197 370.395284 
L 479.970887 301.341093 
L 482.894577 372.733867 
L 485.818267 389.551792 
L 488.741957 464.287055 
L 491.665647 409.517526 
L 494.589337 334.347183 
L 497.513027 350.560358 
L 500.436717 238.787028 
L 503.360408 169.690248 
L 506.284098 255.550419 
L 509.207788 407.080824 
L 512.131478 396.765456 
L 515.055168 319.376862 
L 517.978858 273.734083 
L 520.902548 264.803728 
L 523.826238 302.833843 
L 526.749928 401.402849 
L 529.673618 379.624176 
L 532.597309 336.919012 
L 535.520999 323.032631 
L 538.444689 278.173595 
L 541.368379 350.406901 
L 544.292069 417.215277 
L 547.215759 342.545759 
L 550.139449 404.317901 
L 553.063139 366.049204 
L 555.986829 285.961157 
L 558.910519 317.165973 
L 561.83421 277.36339 
L 564.7579 320.742845 
L 567.68159 376.980149 
L 570.60528 396.011744 
L 573.52897 326.082355 
L 576.45266 366.342546 
L 579.37635 361.267904 
L 582.30004 390.338386 
L 585.22373 448.481063 
L 588.147421 365.191217 
L 591.071111 226.793025 
L 593.994801 224.041942 
L 596.918491 229.469899 
L 599.842181 282.691234 
L 602.765871 315.309064 
L 605.689561 392.901399 
L 608.613251 391.287041 
L 611.536941 438.139005 
L 614.460631 405.067135 
L 617.384322 313.786301 
L 620.308012 330.606273 
L 623.231702 343.720105 
L 626.155392 402.717219 
L 629.079082 417.347571 
L 632.002772 437.70452 
L 634.926462 374.373655 
L 637.850152 331.238727 
L 640.773842 258.744191 
L 643.697532 269.708664 
L 646.621223 311.554547 
L 649.544913 368.578182 
L 652.468603 362.54238 
L 655.392293 465.830299 
L 658.315983 352.364412 
L 661.239673 330.286137 
L 664.163363 273.906569 
L 667.087053 296.11142 
L 670.010743 252.539593 
L 672.934433 280.445261 
L 675.858124 464.994593 
L 678.781814 383.566098 
L 681.705504 361.81882 
L 684.629194 402.799457 
L 687.552884 460.496246 
L 690.476574 436.6759 
L 693.400264 350.178955 
L 696.323954 350.400622 
L 699.247644 313.082033 
L 702.171335 325.440561 
L 705.095025 335.572355 
L 708.018715 334.232921 
L 710.942405 335.388255 
L 713.866095 329.995086 
L 716.789785 332.250102 
L 719.713475 332.774853 
L 722.637165 334.834751 
L 725.560855 336.513052 
L 728.484545 334.37814 
L 728.484545 334.37814 
" style="fill:none;stroke:#55a868;stroke-dasharray:1.5,1.5;stroke-dashoffset:0;stroke-width:1.5;"/>
   </g>
   <g id="line2d_4">
    <path clip-path="url(#p841460fd8d)" d="M 134.975455 339.58268 
L 137.899145 340.555244 
L 140.822835 340.698259 
L 143.746525 339.950983 
L 146.670215 341.57636 
L 149.593905 340.505643 
L 152.517595 341.106755 
L 155.441285 342.427859 
L 158.364975 342.629693 
L 164.212356 339.440417 
L 167.136046 339.522777 
L 170.059736 359.404191 
L 172.983426 361.447211 
L 178.830806 397.711348 
L 181.754496 409.604486 
L 184.678186 376.560565 
L 187.601876 378.365879 
L 190.525567 483.646201 
L 193.449257 439.99406 
L 196.372947 386.308104 
L 199.296637 419.589119 
L 202.220327 354.998593 
L 205.144017 378.501845 
L 208.067707 460.705985 
L 210.991397 474.57213 
L 213.915087 454.186078 
L 216.838777 398.50896 
L 219.762468 362.231601 
L 222.686158 376.083089 
L 225.609848 382.250573 
L 228.533538 386.258713 
L 231.457228 386.28918 
L 234.380918 275.268285 
L 237.304608 382.568646 
L 240.228298 416.63503 
L 243.151988 329.91437 
L 246.075678 254.995096 
L 248.999369 291.488212 
L 251.923059 374.331365 
L 254.846749 396.698889 
L 257.770439 463.742347 
L 260.694129 363.618642 
L 263.617819 434.993156 
L 266.541509 374.331155 
L 269.465199 395.265622 
L 275.312579 433.498989 
L 278.23627 432.145196 
L 281.15996 409.45687 
L 284.08365 352.324168 
L 287.00734 365.974487 
L 289.93103 452.450375 
L 292.85472 399.608204 
L 295.77841 360.508507 
L 298.7021 396.332335 
L 301.62579 329.007935 
L 304.549481 356.567949 
L 307.473171 390.532699 
L 310.396861 429.206043 
L 313.320551 354.164619 
L 316.244241 358.751448 
L 319.167931 371.632769 
L 322.091621 417.918268 
L 325.015311 326.287774 
L 327.939001 364.670383 
L 330.862691 398.464151 
L 333.786382 349.270666 
L 336.710072 366.611996 
L 339.633762 462.185706 
L 342.557452 412.759045 
L 345.481142 303.089127 
L 348.404832 247.493827 
L 351.328522 314.001602 
L 354.252212 288.371518 
L 357.175902 289.146971 
L 360.099592 202.369731 
L 363.023283 343.858958 
L 365.946973 252.45725 
L 368.870663 247.948496 
L 371.794353 306.133482 
L 374.718043 317.770182 
L 377.641733 288.786975 
L 380.565423 380.57521 
L 383.489113 349.906951 
L 386.412803 349.210063 
L 389.336494 368.299357 
L 392.260184 355.818067 
L 395.183874 341.381732 
L 398.107564 285.990802 
L 401.031254 247.478803 
L 403.954944 274.43258 
L 406.878634 313.038483 
L 409.802324 340.635103 
L 412.726014 365.252466 
L 415.649704 450.716525 
L 418.573395 409.227752 
L 421.497085 425.238166 
L 424.420775 468.950018 
L 427.344465 332.882906 
L 430.268155 380.008291 
L 433.191845 376.709789 
L 436.115535 265.897515 
L 439.039225 387.494133 
L 441.962915 404.399054 
L 444.886605 346.695951 
L 447.810296 275.844964 
L 450.733986 291.017959 
L 453.657676 347.357614 
L 456.581366 333.018995 
L 459.505056 364.654012 
L 462.428746 313.504258 
L 465.352436 376.953354 
L 468.276126 367.906498 
L 471.199816 344.992727 
L 474.123506 337.772731 
L 477.047197 375.779358 
L 479.970887 286.355905 
L 482.894577 403.797294 
L 485.818267 431.815475 
L 488.741957 481.124849 
L 491.665647 472.417507 
L 494.589337 401.921811 
L 497.513027 425.647816 
L 500.436717 374.367674 
L 503.360408 281.880487 
L 506.284098 342.309872 
L 509.207788 440.592847 
L 512.131478 426.070583 
L 515.055168 426.048196 
L 517.978858 316.618573 
L 520.902548 346.058005 
L 523.826238 426.277734 
L 526.749928 432.524833 
L 529.673618 466.660967 
L 532.597309 458.181275 
L 535.520999 380.904126 
L 538.444689 364.424754 
L 541.368379 415.97188 
L 544.292069 476.635071 
L 547.215759 386.248009 
L 550.139449 472.23054 
L 553.063139 408.440494 
L 555.986829 382.775517 
L 558.910519 390.05148 
L 561.83421 332.894397 
L 564.7579 317.228115 
L 567.68159 277.674309 
L 570.60528 332.774171 
L 573.52897 242.717441 
L 576.45266 263.103668 
L 579.37635 331.853937 
L 582.30004 364.938102 
L 585.22373 443.087614 
L 588.147421 352.485111 
L 591.071111 317.280235 
L 593.994801 386.188263 
L 596.918491 334.001424 
L 599.842181 357.772518 
L 602.765871 394.24991 
L 605.689561 370.406128 
L 608.613251 422.468106 
L 611.536941 433.37537 
L 614.460631 420.514443 
L 617.384322 347.470932 
L 620.308012 340.00139 
L 623.231702 353.88777 
L 626.155392 424.491065 
L 629.079082 393.430191 
L 632.002772 406.812004 
L 634.926462 387.70111 
L 637.850152 340.665413 
L 640.773842 276.647141 
L 643.697532 260.403831 
L 646.621223 319.356556 
L 649.544913 368.180286 
L 652.468603 428.708629 
L 655.392293 406.275482 
L 658.315983 317.744821 
L 661.239673 399.779501 
L 664.163363 334.948383 
L 667.087053 415.089372 
L 670.010743 403.083774 
L 672.934433 355.820149 
L 675.858124 406.693667 
L 678.781814 373.756994 
L 681.705504 408.077402 
L 684.629194 464.801644 
L 687.552884 424.929293 
L 690.476574 484.155229 
L 693.400264 391.603644 
L 696.323954 359.998675 
L 699.247644 333.681183 
L 702.171335 343.773607 
L 705.095025 348.669623 
L 708.018715 347.593326 
L 710.942405 348.241434 
L 713.866095 346.307185 
L 716.789785 345.811292 
L 719.713475 346.522661 
L 722.637165 345.577871 
L 725.560855 347.835422 
L 728.484545 344.084421 
L 728.484545 344.084421 
" style="fill:none;stroke:#c44e52;stroke-dasharray:4.5,1.875,2.25,1.875;stroke-dashoffset:0;stroke-width:1.5;"/>
   </g>
   <g id="line2d_5">
    <path clip-path="url(#p841460fd8d)" d="M 134.975455 340.833387 
L 137.899145 341.911678 
L 140.822835 342.420478 
L 143.746525 341.672643 
L 146.670215 342.772481 
L 149.593905 342.89248 
L 152.517595 343.594772 
L 155.441285 345.054781 
L 158.364975 344.863546 
L 161.288665 343.996166 
L 164.212356 342.379115 
L 167.136046 342.660441 
L 170.059736 362.915668 
L 172.983426 365.147492 
L 178.830806 400.894591 
L 181.754496 419.065365 
L 184.678186 373.890128 
L 187.601876 396.16555 
L 190.525567 488.498371 
L 193.449257 448.647673 
L 196.372947 394.531079 
L 199.296637 431.63288 
L 202.220327 363.827559 
L 205.144017 379.107978 
L 208.067707 461.912793 
L 210.991397 468.833465 
L 213.915087 442.898828 
L 216.838777 395.882808 
L 219.762468 358.659591 
L 222.686158 381.48955 
L 225.609848 400.588761 
L 228.533538 398.65738 
L 231.457228 393.171199 
L 234.380918 280.700684 
L 237.304608 386.797158 
L 240.228298 420.481597 
L 246.075678 258.3287 
L 248.999369 286.643318 
L 251.923059 382.197579 
L 254.846749 405.047687 
L 257.770439 470.626186 
L 260.694129 360.137335 
L 263.617819 438.811739 
L 266.541509 380.515115 
L 269.465199 398.104068 
L 275.312579 435.702059 
L 278.23627 438.123194 
L 281.15996 426.543057 
L 284.08365 363.70408 
L 287.00734 366.306411 
L 289.93103 454.562042 
L 292.85472 403.565902 
L 295.77841 363.25144 
L 298.7021 396.582371 
L 301.62579 330.615473 
L 304.549481 352.400582 
L 307.473171 389.164669 
L 310.396861 442.962176 
L 313.320551 363.412068 
L 316.244241 370.146682 
L 319.167931 382.425858 
L 322.091621 419.31694 
L 325.015311 327.344186 
L 327.939001 252.159396 
L 330.862691 333.297436 
L 333.786382 342.153494 
L 336.710072 328.717742 
L 339.633762 406.13983 
L 342.557452 402.019615 
L 345.481142 376.704472 
L 348.404832 270.097693 
L 351.328522 293.806576 
L 354.252212 343.148393 
L 357.175902 342.378695 
L 360.099592 395.741209 
L 363.023283 487.770124 
L 365.946973 370.856599 
L 368.870663 348.908117 
L 371.794353 351.795761 
L 374.718043 344.557646 
L 377.641733 380.878906 
L 380.565423 436.097017 
L 383.489113 393.790099 
L 386.412803 331.299313 
L 389.336494 366.46613 
L 392.260184 366.042278 
L 395.183874 365.155327 
L 398.107564 289.927477 
L 401.031254 277.407097 
L 403.954944 296.026384 
L 406.878634 342.772289 
L 409.802324 364.85924 
L 412.726014 373.027838 
L 415.649704 480.166399 
L 418.573395 435.211046 
L 421.497085 437.994538 
L 424.420775 486.433261 
L 427.344465 353.332237 
L 430.268155 391.1835 
L 433.191845 390.751708 
L 436.115535 272.380063 
L 439.039225 389.323163 
L 441.962915 414.607978 
L 444.886605 367.147294 
L 447.810296 296.846733 
L 450.733986 303.961316 
L 453.657676 336.041138 
L 456.581366 324.089741 
L 459.505056 345.876844 
L 462.428746 305.206706 
L 465.352436 367.318171 
L 468.276126 366.106081 
L 471.199816 341.542815 
L 474.123506 355.444482 
L 477.047197 370.429215 
L 479.970887 291.07739 
L 482.894577 401.398966 
L 485.818267 435.955803 
L 488.741957 408.449624 
L 491.665647 502.308863 
L 494.589337 429.001236 
L 497.513027 446.315526 
L 500.436717 427.856238 
L 503.360408 404.726606 
L 506.284098 469.12915 
L 509.207788 391.681964 
L 512.131478 414.555753 
L 515.055168 325.919016 
L 517.978858 376.7256 
L 520.902548 410.478879 
L 523.826238 449.948401 
L 526.749928 464.981056 
L 529.673618 409.802367 
L 532.597309 326.964951 
L 535.520999 358.346189 
L 538.444689 310.034075 
L 541.368379 290.629245 
L 544.292069 156.426204 
L 547.215759 222.723619 
L 550.139449 226.357735 
L 553.063139 252.29594 
L 555.986829 249.178005 
L 558.910519 234.423388 
L 561.83421 218.280522 
L 564.7579 232.197318 
L 567.68159 253.324647 
L 570.60528 314.199816 
L 573.52897 302.695935 
L 576.45266 287.967343 
L 579.37635 337.517675 
L 582.30004 349.250395 
L 585.22373 403.341681 
L 588.147421 356.259252 
L 591.071111 313.618083 
L 593.994801 386.634397 
L 596.918491 346.613731 
L 599.842181 329.71334 
L 602.765871 393.856001 
L 605.689561 374.528931 
L 608.613251 418.05371 
L 611.536941 444.484398 
L 614.460631 425.464101 
L 617.384322 351.717861 
L 620.308012 346.733905 
L 623.231702 344.428658 
L 626.155392 419.97075 
L 629.079082 402.879736 
L 632.002772 407.736208 
L 634.926462 378.921255 
L 637.850152 344.629793 
L 640.773842 272.695232 
L 643.697532 257.13403 
L 646.621223 322.301918 
L 649.544913 358.224966 
L 652.468603 424.259673 
L 655.392293 398.367606 
L 658.315983 324.907379 
L 661.239673 394.72973 
L 664.163363 339.031204 
L 667.087053 411.16508 
L 670.010743 401.155751 
L 672.934433 359.559292 
L 675.858124 402.853746 
L 678.781814 361.761873 
L 681.705504 408.5957 
L 684.629194 458.436698 
L 687.552884 418.975956 
L 690.476574 469.971886 
L 693.400264 384.629068 
L 696.323954 356.509638 
L 699.247644 334.293296 
L 702.171335 337.307568 
L 705.095025 342.673103 
L 708.018715 341.296696 
L 710.942405 340.699361 
L 713.866095 338.794547 
L 716.789785 338.543549 
L 719.713475 339.468313 
L 722.637165 334.460605 
L 725.560855 338.60681 
L 728.484545 332.818893 
L 728.484545 332.818893 
" style="fill:none;stroke:#8172b3;stroke-dasharray:7.5,1.5,1.5,1.5;stroke-dashoffset:0;stroke-width:1.5;"/>
   </g>
   <g id="line2d_6"/>
   <g id="line2d_7"/>
   <g id="line2d_8"/>
   <g id="line2d_9"/>
   <g id="line2d_10"/>
   <g id="patch_3">
    <path d="M 105.3 529.9416 
L 105.3 71.4528 
" style="fill:none;stroke:#262626;stroke-linecap:square;stroke-linejoin:miter;stroke-width:1.25;"/>
   </g>
   <g id="patch_4">
    <path d="M 758.16 529.9416 
L 758.16 71.4528 
" style="fill:none;stroke:#262626;stroke-linecap:square;stroke-linejoin:miter;stroke-width:1.25;"/>
   </g>
   <g id="patch_5">
    <path d="M 105.3 529.9416 
L 758.16 529.9416 
" style="fill:none;stroke:#262626;stroke-linecap:square;stroke-linejoin:miter;stroke-width:1.25;"/>
   </g>
   <g id="patch_6">
    <path d="M 105.3 71.4528 
L 758.16 71.4528 
" style="fill:none;stroke:#262626;stroke-linecap:square;stroke-linejoin:miter;stroke-width:1.25;"/>
   </g>
   <g id="text_16">
    <!-- Activations for &gt;W&lt; -->
    <g style="fill:#262626;" transform="translate(379.710938 65.4528)scale(0.12 -0.12)">
     <defs>
      <path d="M -9 0 
L 1750 4581 
L 2403 4581 
L 4278 0 
L 3588 0 
L 3053 1388 
L 1138 1388 
L 634 0 
L -9 0 
z
M 1313 1881 
L 2866 1881 
L 2388 3150 
Q 2169 3728 2063 4100 
Q 1975 3659 1816 3225 
L 1313 1881 
z
" id="ArialMT-41" transform="scale(0.015625)"/>
      <path d="M 2588 1216 
L 3141 1144 
Q 3050 572 2676 248 
Q 2303 -75 1759 -75 
Q 1078 -75 664 370 
Q 250 816 250 1647 
Q 250 2184 428 2587 
Q 606 2991 970 3192 
Q 1334 3394 1763 3394 
Q 2303 3394 2647 3120 
Q 2991 2847 3088 2344 
L 2541 2259 
Q 2463 2594 2264 2762 
Q 2066 2931 1784 2931 
Q 1359 2931 1093 2626 
Q 828 2322 828 1663 
Q 828 994 1084 691 
Q 1341 388 1753 388 
Q 2084 388 2306 591 
Q 2528 794 2588 1216 
z
" id="ArialMT-63" transform="scale(0.015625)"/>
      <path d="M 1650 503 
L 1731 6 
Q 1494 -44 1306 -44 
Q 1000 -44 831 53 
Q 663 150 594 308 
Q 525 466 525 972 
L 525 2881 
L 113 2881 
L 113 3319 
L 525 3319 
L 525 4141 
L 1084 4478 
L 1084 3319 
L 1650 3319 
L 1650 2881 
L 1084 2881 
L 1084 941 
Q 1084 700 1114 631 
Q 1144 563 1211 522 
Q 1278 481 1403 481 
Q 1497 481 1650 503 
z
" id="ArialMT-74" transform="scale(0.015625)"/>
      <path d="M 425 3934 
L 425 4581 
L 988 4581 
L 988 3934 
L 425 3934 
z
M 425 0 
L 425 3319 
L 988 3319 
L 988 0 
L 425 0 
z
" id="ArialMT-69" transform="scale(0.015625)"/>
      <path d="M 1344 0 
L 81 3319 
L 675 3319 
L 1388 1331 
Q 1503 1009 1600 663 
Q 1675 925 1809 1294 
L 2547 3319 
L 3125 3319 
L 1869 0 
L 1344 0 
z
" id="ArialMT-76" transform="scale(0.015625)"/>
      <path d="M 2588 409 
Q 2275 144 1986 34 
Q 1697 -75 1366 -75 
Q 819 -75 525 192 
Q 231 459 231 875 
Q 231 1119 342 1320 
Q 453 1522 633 1644 
Q 813 1766 1038 1828 
Q 1203 1872 1538 1913 
Q 2219 1994 2541 2106 
Q 2544 2222 2544 2253 
Q 2544 2597 2384 2738 
Q 2169 2928 1744 2928 
Q 1347 2928 1158 2789 
Q 969 2650 878 2297 
L 328 2372 
Q 403 2725 575 2942 
Q 747 3159 1072 3276 
Q 1397 3394 1825 3394 
Q 2250 3394 2515 3294 
Q 2781 3194 2906 3042 
Q 3031 2891 3081 2659 
Q 3109 2516 3109 2141 
L 3109 1391 
Q 3109 606 3145 398 
Q 3181 191 3288 0 
L 2700 0 
Q 2613 175 2588 409 
z
M 2541 1666 
Q 2234 1541 1622 1453 
Q 1275 1403 1131 1340 
Q 988 1278 909 1158 
Q 831 1038 831 891 
Q 831 666 1001 516 
Q 1172 366 1500 366 
Q 1825 366 2078 508 
Q 2331 650 2450 897 
Q 2541 1088 2541 1459 
L 2541 1666 
z
" id="ArialMT-61" transform="scale(0.015625)"/>
      <path d="M 213 1659 
Q 213 2581 725 3025 
Q 1153 3394 1769 3394 
Q 2453 3394 2887 2945 
Q 3322 2497 3322 1706 
Q 3322 1066 3130 698 
Q 2938 331 2570 128 
Q 2203 -75 1769 -75 
Q 1072 -75 642 372 
Q 213 819 213 1659 
z
M 791 1659 
Q 791 1022 1069 705 
Q 1347 388 1769 388 
Q 2188 388 2466 706 
Q 2744 1025 2744 1678 
Q 2744 2294 2464 2611 
Q 2184 2928 1769 2928 
Q 1347 2928 1069 2612 
Q 791 2297 791 1659 
z
" id="ArialMT-6f" transform="scale(0.015625)"/>
      <path d="M 422 0 
L 422 3319 
L 928 3319 
L 928 2847 
Q 1294 3394 1984 3394 
Q 2284 3394 2536 3286 
Q 2788 3178 2913 3003 
Q 3038 2828 3088 2588 
Q 3119 2431 3119 2041 
L 3119 0 
L 2556 0 
L 2556 2019 
Q 2556 2363 2490 2533 
Q 2425 2703 2258 2804 
Q 2091 2906 1866 2906 
Q 1506 2906 1245 2678 
Q 984 2450 984 1813 
L 984 0 
L 422 0 
z
" id="ArialMT-6e" transform="scale(0.015625)"/>
      <path d="M 197 991 
L 753 1078 
Q 800 744 1014 566 
Q 1228 388 1613 388 
Q 2000 388 2187 545 
Q 2375 703 2375 916 
Q 2375 1106 2209 1216 
Q 2094 1291 1634 1406 
Q 1016 1563 777 1677 
Q 538 1791 414 1992 
Q 291 2194 291 2438 
Q 291 2659 392 2848 
Q 494 3038 669 3163 
Q 800 3259 1026 3326 
Q 1253 3394 1513 3394 
Q 1903 3394 2198 3281 
Q 2494 3169 2634 2976 
Q 2775 2784 2828 2463 
L 2278 2388 
Q 2241 2644 2061 2787 
Q 1881 2931 1553 2931 
Q 1166 2931 1000 2803 
Q 834 2675 834 2503 
Q 834 2394 903 2306 
Q 972 2216 1119 2156 
Q 1203 2125 1616 2013 
Q 2213 1853 2448 1751 
Q 2684 1650 2818 1456 
Q 2953 1263 2953 975 
Q 2953 694 2789 445 
Q 2625 197 2315 61 
Q 2006 -75 1616 -75 
Q 969 -75 630 194 
Q 291 463 197 991 
z
" id="ArialMT-73" transform="scale(0.015625)"/>
      <path id="ArialMT-20" transform="scale(0.015625)"/>
      <path d="M 556 0 
L 556 2881 
L 59 2881 
L 59 3319 
L 556 3319 
L 556 3672 
Q 556 4006 616 4169 
Q 697 4388 901 4523 
Q 1106 4659 1475 4659 
Q 1713 4659 2000 4603 
L 1916 4113 
Q 1741 4144 1584 4144 
Q 1328 4144 1222 4034 
Q 1116 3925 1116 3625 
L 1116 3319 
L 1763 3319 
L 1763 2881 
L 1116 2881 
L 1116 0 
L 556 0 
z
" id="ArialMT-66" transform="scale(0.015625)"/>
      <path d="M 416 0 
L 416 3319 
L 922 3319 
L 922 2816 
Q 1116 3169 1280 3281 
Q 1444 3394 1641 3394 
Q 1925 3394 2219 3213 
L 2025 2691 
Q 1819 2813 1613 2813 
Q 1428 2813 1281 2702 
Q 1134 2591 1072 2394 
Q 978 2094 978 1738 
L 978 0 
L 416 0 
z
" id="ArialMT-72" transform="scale(0.015625)"/>
      <path d="M 3384 2003 
L 350 706 
L 350 1266 
L 2753 2263 
L 350 3250 
L 350 3809 
L 3384 2528 
L 3384 2003 
z
" id="ArialMT-3e" transform="scale(0.015625)"/>
      <path d="M 1294 0 
L 78 4581 
L 700 4581 
L 1397 1578 
Q 1509 1106 1591 641 
Q 1766 1375 1797 1488 
L 2669 4581 
L 3400 4581 
L 4056 2263 
Q 4303 1400 4413 641 
Q 4500 1075 4641 1638 
L 5359 4581 
L 5969 4581 
L 4713 0 
L 4128 0 
L 3163 3491 
Q 3041 3928 3019 4028 
Q 2947 3713 2884 3491 
L 1913 0 
L 1294 0 
z
" id="ArialMT-57" transform="scale(0.015625)"/>
      <path d="M 350 2003 
L 350 2528 
L 3384 3809 
L 3384 3250 
L 978 2263 
L 3384 1266 
L 3384 706 
L 350 2003 
z
" id="ArialMT-3c" transform="scale(0.015625)"/>
     </defs>
     <use xlink:href="#ArialMT-41"/>
     <use x="66.699219" xlink:href="#ArialMT-63"/>
     <use x="116.699219" xlink:href="#ArialMT-74"/>
     <use x="144.482422" xlink:href="#ArialMT-69"/>
     <use x="166.699219" xlink:href="#ArialMT-76"/>
     <use x="216.699219" xlink:href="#ArialMT-61"/>
     <use x="272.314453" xlink:href="#ArialMT-74"/>
     <use x="300.097656" xlink:href="#ArialMT-69"/>
     <use x="322.314453" xlink:href="#ArialMT-6f"/>
     <use x="377.929688" xlink:href="#ArialMT-6e"/>
     <use x="433.544922" xlink:href="#ArialMT-73"/>
     <use x="483.544922" xlink:href="#ArialMT-20"/>
     <use x="511.328125" xlink:href="#ArialMT-66"/>
     <use x="539.111328" xlink:href="#ArialMT-6f"/>
     <use x="594.726562" xlink:href="#ArialMT-72"/>
     <use x="628.027344" xlink:href="#ArialMT-20"/>
     <use x="655.810547" xlink:href="#ArialMT-3e"/>
     <use x="714.208984" xlink:href="#ArialMT-57"/>
     <use x="808.59375" xlink:href="#ArialMT-3c"/>
    </g>
   </g>
   <g id="legend_1">
    <g id="patch_7">
     <path d="M 640.044062 158.514363 
L 750.46 158.514363 
Q 752.66 158.514363 752.66 156.314363 
L 752.66 79.1528 
Q 752.66 76.9528 750.46 76.9528 
L 640.044062 76.9528 
Q 637.844062 76.9528 637.844062 79.1528 
L 637.844062 156.314363 
Q 637.844062 158.514363 640.044062 158.514363 
z
" style="fill:#ffffff;opacity:0.8;stroke:#cccccc;stroke-linejoin:miter;"/>
    </g>
    <g id="line2d_11">
     <path d="M 642.244062 85.376394 
L 664.244062 85.376394 
" style="fill:none;stroke:#4c72b0;stroke-linecap:round;stroke-width:1.5;"/>
    </g>
    <g id="line2d_12"/>
    <g id="text_17">
     <!-- regular -->
     <g style="fill:#262626;" transform="translate(673.044062 89.226394)scale(0.11 -0.11)">
      <defs>
       <path d="M 2694 1069 
L 3275 997 
Q 3138 488 2766 206 
Q 2394 -75 1816 -75 
Q 1088 -75 661 373 
Q 234 822 234 1631 
Q 234 2469 665 2931 
Q 1097 3394 1784 3394 
Q 2450 3394 2872 2941 
Q 3294 2488 3294 1666 
Q 3294 1616 3291 1516 
L 816 1516 
Q 847 969 1125 678 
Q 1403 388 1819 388 
Q 2128 388 2347 550 
Q 2566 713 2694 1069 
z
M 847 1978 
L 2700 1978 
Q 2663 2397 2488 2606 
Q 2219 2931 1791 2931 
Q 1403 2931 1139 2672 
Q 875 2413 847 1978 
z
" id="ArialMT-65" transform="scale(0.015625)"/>
       <path d="M 319 -275 
L 866 -356 
Q 900 -609 1056 -725 
Q 1266 -881 1628 -881 
Q 2019 -881 2231 -725 
Q 2444 -569 2519 -288 
Q 2563 -116 2559 434 
Q 2191 0 1641 0 
Q 956 0 581 494 
Q 206 988 206 1678 
Q 206 2153 378 2554 
Q 550 2956 876 3175 
Q 1203 3394 1644 3394 
Q 2231 3394 2613 2919 
L 2613 3319 
L 3131 3319 
L 3131 450 
Q 3131 -325 2973 -648 
Q 2816 -972 2473 -1159 
Q 2131 -1347 1631 -1347 
Q 1038 -1347 672 -1080 
Q 306 -813 319 -275 
z
M 784 1719 
Q 784 1066 1043 766 
Q 1303 466 1694 466 
Q 2081 466 2343 764 
Q 2606 1063 2606 1700 
Q 2606 2309 2336 2618 
Q 2066 2928 1684 2928 
Q 1309 2928 1046 2623 
Q 784 2319 784 1719 
z
" id="ArialMT-67" transform="scale(0.015625)"/>
       <path d="M 2597 0 
L 2597 488 
Q 2209 -75 1544 -75 
Q 1250 -75 995 37 
Q 741 150 617 320 
Q 494 491 444 738 
Q 409 903 409 1263 
L 409 3319 
L 972 3319 
L 972 1478 
Q 972 1038 1006 884 
Q 1059 663 1231 536 
Q 1403 409 1656 409 
Q 1909 409 2131 539 
Q 2353 669 2445 892 
Q 2538 1116 2538 1541 
L 2538 3319 
L 3100 3319 
L 3100 0 
L 2597 0 
z
" id="ArialMT-75" transform="scale(0.015625)"/>
       <path d="M 409 0 
L 409 4581 
L 972 4581 
L 972 0 
L 409 0 
z
" id="ArialMT-6c" transform="scale(0.015625)"/>
      </defs>
      <use xlink:href="#ArialMT-72"/>
      <use x="33.300781" xlink:href="#ArialMT-65"/>
      <use x="88.916016" xlink:href="#ArialMT-67"/>
      <use x="144.53125" xlink:href="#ArialMT-75"/>
      <use x="200.146484" xlink:href="#ArialMT-6c"/>
      <use x="222.363281" xlink:href="#ArialMT-61"/>
      <use x="277.978516" xlink:href="#ArialMT-72"/>
     </g>
    </g>
    <g id="line2d_13">
     <path d="M 642.244062 101.0978 
L 664.244062 101.0978 
" style="fill:none;stroke:#dd8452;stroke-dasharray:6,2.25;stroke-dashoffset:0;stroke-width:1.5;"/>
    </g>
    <g id="line2d_14"/>
    <g id="text_18">
     <!-- splitted_3s -->
     <g style="fill:#262626;" transform="translate(673.044062 104.9478)scale(0.11 -0.11)">
      <defs>
       <path d="M 422 -1272 
L 422 3319 
L 934 3319 
L 934 2888 
Q 1116 3141 1344 3267 
Q 1572 3394 1897 3394 
Q 2322 3394 2647 3175 
Q 2972 2956 3137 2557 
Q 3303 2159 3303 1684 
Q 3303 1175 3120 767 
Q 2938 359 2589 142 
Q 2241 -75 1856 -75 
Q 1575 -75 1351 44 
Q 1128 163 984 344 
L 984 -1272 
L 422 -1272 
z
M 931 1641 
Q 931 1000 1190 694 
Q 1450 388 1819 388 
Q 2194 388 2461 705 
Q 2728 1022 2728 1688 
Q 2728 2322 2467 2637 
Q 2206 2953 1844 2953 
Q 1484 2953 1207 2617 
Q 931 2281 931 1641 
z
" id="ArialMT-70" transform="scale(0.015625)"/>
       <path d="M 2575 0 
L 2575 419 
Q 2259 -75 1647 -75 
Q 1250 -75 917 144 
Q 584 363 401 755 
Q 219 1147 219 1656 
Q 219 2153 384 2558 
Q 550 2963 881 3178 
Q 1213 3394 1622 3394 
Q 1922 3394 2156 3267 
Q 2391 3141 2538 2938 
L 2538 4581 
L 3097 4581 
L 3097 0 
L 2575 0 
z
M 797 1656 
Q 797 1019 1065 703 
Q 1334 388 1700 388 
Q 2069 388 2326 689 
Q 2584 991 2584 1609 
Q 2584 2291 2321 2609 
Q 2059 2928 1675 2928 
Q 1300 2928 1048 2622 
Q 797 2316 797 1656 
z
" id="ArialMT-64" transform="scale(0.015625)"/>
       <path d="M -97 -1272 
L -97 -866 
L 3631 -866 
L 3631 -1272 
L -97 -1272 
z
" id="ArialMT-5f" transform="scale(0.015625)"/>
       <path d="M 269 1209 
L 831 1284 
Q 928 806 1161 595 
Q 1394 384 1728 384 
Q 2125 384 2398 659 
Q 2672 934 2672 1341 
Q 2672 1728 2419 1979 
Q 2166 2231 1775 2231 
Q 1616 2231 1378 2169 
L 1441 2663 
Q 1497 2656 1531 2656 
Q 1891 2656 2178 2843 
Q 2466 3031 2466 3422 
Q 2466 3731 2256 3934 
Q 2047 4138 1716 4138 
Q 1388 4138 1169 3931 
Q 950 3725 888 3313 
L 325 3413 
Q 428 3978 793 4289 
Q 1159 4600 1703 4600 
Q 2078 4600 2393 4439 
Q 2709 4278 2876 4000 
Q 3044 3722 3044 3409 
Q 3044 3113 2884 2869 
Q 2725 2625 2413 2481 
Q 2819 2388 3044 2092 
Q 3269 1797 3269 1353 
Q 3269 753 2831 336 
Q 2394 -81 1725 -81 
Q 1122 -81 723 278 
Q 325 638 269 1209 
z
" id="ArialMT-33" transform="scale(0.015625)"/>
      </defs>
      <use xlink:href="#ArialMT-73"/>
      <use x="50" xlink:href="#ArialMT-70"/>
      <use x="105.615234" xlink:href="#ArialMT-6c"/>
      <use x="127.832031" xlink:href="#ArialMT-69"/>
      <use x="150.048828" xlink:href="#ArialMT-74"/>
      <use x="177.832031" xlink:href="#ArialMT-74"/>
      <use x="205.615234" xlink:href="#ArialMT-65"/>
      <use x="261.230469" xlink:href="#ArialMT-64"/>
      <use x="316.845703" xlink:href="#ArialMT-5f"/>
      <use x="372.460938" xlink:href="#ArialMT-33"/>
      <use x="428.076172" xlink:href="#ArialMT-73"/>
     </g>
    </g>
    <g id="line2d_15">
     <path d="M 642.244062 116.6903 
L 664.244062 116.6903 
" style="fill:none;stroke:#55a868;stroke-dasharray:1.5,1.5;stroke-dashoffset:0;stroke-width:1.5;"/>
    </g>
    <g id="line2d_16"/>
    <g id="text_19">
     <!-- splitted_1s -->
     <g style="fill:#262626;" transform="translate(673.044062 120.5403)scale(0.11 -0.11)">
      <use xlink:href="#ArialMT-73"/>
      <use x="50" xlink:href="#ArialMT-70"/>
      <use x="105.615234" xlink:href="#ArialMT-6c"/>
      <use x="127.832031" xlink:href="#ArialMT-69"/>
      <use x="150.048828" xlink:href="#ArialMT-74"/>
      <use x="177.832031" xlink:href="#ArialMT-74"/>
      <use x="205.615234" xlink:href="#ArialMT-65"/>
      <use x="261.230469" xlink:href="#ArialMT-64"/>
      <use x="316.845703" xlink:href="#ArialMT-5f"/>
      <use x="372.460938" xlink:href="#ArialMT-31"/>
      <use x="428.076172" xlink:href="#ArialMT-73"/>
     </g>
    </g>
    <g id="line2d_17">
     <path d="M 642.244062 132.384206 
L 664.244062 132.384206 
" style="fill:none;stroke:#c44e52;stroke-dasharray:4.5,1.875,2.25,1.875;stroke-dashoffset:0;stroke-width:1.5;"/>
    </g>
    <g id="line2d_18"/>
    <g id="text_20">
     <!-- overlap_1f_3s -->
     <g style="fill:#262626;" transform="translate(673.044062 136.234206)scale(0.11 -0.11)">
      <use xlink:href="#ArialMT-6f"/>
      <use x="55.615234" xlink:href="#ArialMT-76"/>
      <use x="105.615234" xlink:href="#ArialMT-65"/>
      <use x="161.230469" xlink:href="#ArialMT-72"/>
      <use x="194.53125" xlink:href="#ArialMT-6c"/>
      <use x="216.748047" xlink:href="#ArialMT-61"/>
      <use x="272.363281" xlink:href="#ArialMT-70"/>
      <use x="327.978516" xlink:href="#ArialMT-5f"/>
      <use x="383.59375" xlink:href="#ArialMT-31"/>
      <use x="439.208984" xlink:href="#ArialMT-66"/>
      <use x="466.992188" xlink:href="#ArialMT-5f"/>
      <use x="522.607422" xlink:href="#ArialMT-33"/>
      <use x="578.222656" xlink:href="#ArialMT-73"/>
     </g>
    </g>
    <g id="line2d_19">
     <path d="M 642.244062 148.078113 
L 664.244062 148.078113 
" style="fill:none;stroke:#8172b3;stroke-dasharray:7.5,1.5,1.5,1.5;stroke-dashoffset:0;stroke-width:1.5;"/>
    </g>
    <g id="line2d_20"/>
    <g id="text_21">
     <!-- overlap_10f_3s -->
     <g style="fill:#262626;" transform="translate(673.044062 151.928112)scale(0.11 -0.11)">
      <use xlink:href="#ArialMT-6f"/>
      <use x="55.615234" xlink:href="#ArialMT-76"/>
      <use x="105.615234" xlink:href="#ArialMT-65"/>
      <use x="161.230469" xlink:href="#ArialMT-72"/>
      <use x="194.53125" xlink:href="#ArialMT-6c"/>
      <use x="216.748047" xlink:href="#ArialMT-61"/>
      <use x="272.363281" xlink:href="#ArialMT-70"/>
      <use x="327.978516" xlink:href="#ArialMT-5f"/>
      <use x="383.59375" xlink:href="#ArialMT-31"/>
      <use x="439.208984" xlink:href="#ArialMT-30"/>
      <use x="494.824219" xlink:href="#ArialMT-66"/>
      <use x="522.607422" xlink:href="#ArialMT-5f"/>
      <use x="578.222656" xlink:href="#ArialMT-33"/>
      <use x="633.837891" xlink:href="#ArialMT-73"/>
     </g>
    </g>
   </g>
  </g>
 </g>
 <defs>
  <clipPath id="p841460fd8d">
   <rect height="458.4888" width="652.86" x="105.3" y="71.4528"/>
  </clipPath>
 </defs>
</svg>
