<?xml version="1.0" encoding="utf-8" standalone="no"?>
<!DOCTYPE svg PUBLIC "-//W3C//DTD SVG 1.1//EN"
  "http://www.w3.org/Graphics/SVG/1.1/DTD/svg11.dtd">
<svg height="595.44pt" version="1.1" viewBox="0 0 842.4 595.44" width="842.4pt" xmlns="http://www.w3.org/2000/svg" xmlns:xlink="http://www.w3.org/1999/xlink">
 <metadata>
  <rdf:RDF xmlns:cc="http://creativecommons.org/ns#" xmlns:dc="http://purl.org/dc/elements/1.1/" xmlns:rdf="http://www.w3.org/1999/02/22-rdf-syntax-ns#">
   <cc:Work>
    <dc:type rdf:resource="http://purl.org/dc/dcmitype/StillImage"/>
    <dc:date>2021-06-01T00:54:10.085980</dc:date>
    <dc:format>image/svg+xml</dc:format>
    <dc:creator>
     <cc:Agent>
      <dc:title>Matplotlib v3.4.1, https://matplotlib.org/</dc:title>
     </cc:Agent>
    </dc:creator>
   </cc:Work>
  </rdf:RDF>
 </metadata>
 <defs>
  <style type="text/css">*{stroke-linecap:butt;stroke-linejoin:round;}</style>
 </defs>
 <g id="figure_1">
  <g id="patch_1">
   <path d="M 0 595.44 
L 842.4 595.44 
L 842.4 0 
L 0 0 
z
" style="fill:#ffffff;"/>
  </g>
  <g id="axes_1">
   <g id="patch_2">
    <path d="M 105.3 529.9416 
L 758.16 529.9416 
L 758.16 71.4528 
L 105.3 71.4528 
z
" style="fill:#ffffff;"/>
   </g>
   <g id="matplotlib.axis_1">
    <g id="xtick_1">
     <g id="text_1">
      <!-- 0 -->
      <g style="fill:#262626;" transform="translate(131.916939 547.315194)scale(0.11 -0.11)">
       <defs>
        <path d="M 266 2259 
Q 266 3072 433 3567 
Q 600 4063 929 4331 
Q 1259 4600 1759 4600 
Q 2128 4600 2406 4451 
Q 2684 4303 2865 4023 
Q 3047 3744 3150 3342 
Q 3253 2941 3253 2259 
Q 3253 1453 3087 958 
Q 2922 463 2592 192 
Q 2263 -78 1759 -78 
Q 1097 -78 719 397 
Q 266 969 266 2259 
z
M 844 2259 
Q 844 1131 1108 757 
Q 1372 384 1759 384 
Q 2147 384 2411 759 
Q 2675 1134 2675 2259 
Q 2675 3391 2411 3762 
Q 2147 4134 1753 4134 
Q 1366 4134 1134 3806 
Q 844 3388 844 2259 
z
" id="ArialMT-30" transform="scale(0.015625)"/>
       </defs>
       <use xlink:href="#ArialMT-30"/>
      </g>
     </g>
    </g>
    <g id="xtick_2">
     <g id="text_2">
      <!-- 25 -->
      <g style="fill:#262626;" transform="translate(201.950676 547.315194)scale(0.11 -0.11)">
       <defs>
        <path d="M 3222 541 
L 3222 0 
L 194 0 
Q 188 203 259 391 
Q 375 700 629 1000 
Q 884 1300 1366 1694 
Q 2113 2306 2375 2664 
Q 2638 3022 2638 3341 
Q 2638 3675 2398 3904 
Q 2159 4134 1775 4134 
Q 1369 4134 1125 3890 
Q 881 3647 878 3216 
L 300 3275 
Q 359 3922 746 4261 
Q 1134 4600 1788 4600 
Q 2447 4600 2831 4234 
Q 3216 3869 3216 3328 
Q 3216 3053 3103 2787 
Q 2991 2522 2730 2228 
Q 2469 1934 1863 1422 
Q 1356 997 1212 845 
Q 1069 694 975 541 
L 3222 541 
z
" id="ArialMT-32" transform="scale(0.015625)"/>
        <path d="M 266 1200 
L 856 1250 
Q 922 819 1161 601 
Q 1400 384 1738 384 
Q 2144 384 2425 690 
Q 2706 997 2706 1503 
Q 2706 1984 2436 2262 
Q 2166 2541 1728 2541 
Q 1456 2541 1237 2417 
Q 1019 2294 894 2097 
L 366 2166 
L 809 4519 
L 3088 4519 
L 3088 3981 
L 1259 3981 
L 1013 2750 
Q 1425 3038 1878 3038 
Q 2478 3038 2890 2622 
Q 3303 2206 3303 1553 
Q 3303 931 2941 478 
Q 2500 -78 1738 -78 
Q 1113 -78 717 272 
Q 322 622 266 1200 
z
" id="ArialMT-35" transform="scale(0.015625)"/>
       </defs>
       <use xlink:href="#ArialMT-32"/>
       <use x="55.615234" xlink:href="#ArialMT-35"/>
      </g>
     </g>
    </g>
    <g id="xtick_3">
     <g id="text_3">
      <!-- 50 -->
      <g style="fill:#262626;" transform="translate(275.042928 547.315194)scale(0.11 -0.11)">
       <use xlink:href="#ArialMT-35"/>
       <use x="55.615234" xlink:href="#ArialMT-30"/>
      </g>
     </g>
    </g>
    <g id="xtick_4">
     <g id="text_4">
      <!-- 75 -->
      <g style="fill:#262626;" transform="translate(348.135181 547.315194)scale(0.11 -0.11)">
       <defs>
        <path d="M 303 3981 
L 303 4522 
L 3269 4522 
L 3269 4084 
Q 2831 3619 2401 2847 
Q 1972 2075 1738 1259 
Q 1569 684 1522 0 
L 944 0 
Q 953 541 1156 1306 
Q 1359 2072 1739 2783 
Q 2119 3494 2547 3981 
L 303 3981 
z
" id="ArialMT-37" transform="scale(0.015625)"/>
       </defs>
       <use xlink:href="#ArialMT-37"/>
       <use x="55.615234" xlink:href="#ArialMT-35"/>
      </g>
     </g>
    </g>
    <g id="xtick_5">
     <g id="text_5">
      <!-- 100 -->
      <g style="fill:#262626;" transform="translate(418.168918 547.315194)scale(0.11 -0.11)">
       <defs>
        <path d="M 2384 0 
L 1822 0 
L 1822 3584 
Q 1619 3391 1289 3197 
Q 959 3003 697 2906 
L 697 3450 
Q 1169 3672 1522 3987 
Q 1875 4303 2022 4600 
L 2384 4600 
L 2384 0 
z
" id="ArialMT-31" transform="scale(0.015625)"/>
       </defs>
       <use xlink:href="#ArialMT-31"/>
       <use x="55.615234" xlink:href="#ArialMT-30"/>
       <use x="111.230469" xlink:href="#ArialMT-30"/>
      </g>
     </g>
    </g>
    <g id="xtick_6">
     <g id="text_6">
      <!-- 125 -->
      <g style="fill:#262626;" transform="translate(491.261171 547.315194)scale(0.11 -0.11)">
       <use xlink:href="#ArialMT-31"/>
       <use x="55.615234" xlink:href="#ArialMT-32"/>
       <use x="111.230469" xlink:href="#ArialMT-35"/>
      </g>
     </g>
    </g>
    <g id="xtick_7">
     <g id="text_7">
      <!-- 150 -->
      <g style="fill:#262626;" transform="translate(564.353423 547.315194)scale(0.11 -0.11)">
       <use xlink:href="#ArialMT-31"/>
       <use x="55.615234" xlink:href="#ArialMT-35"/>
       <use x="111.230469" xlink:href="#ArialMT-30"/>
      </g>
     </g>
    </g>
    <g id="xtick_8">
     <g id="text_8">
      <!-- 175 -->
      <g style="fill:#262626;" transform="translate(637.445676 547.315194)scale(0.11 -0.11)">
       <use xlink:href="#ArialMT-31"/>
       <use x="55.615234" xlink:href="#ArialMT-37"/>
       <use x="111.230469" xlink:href="#ArialMT-35"/>
      </g>
     </g>
    </g>
    <g id="xtick_9">
     <g id="text_9">
      <!-- 200 -->
      <g style="fill:#262626;" transform="translate(710.537928 547.315194)scale(0.11 -0.11)">
       <use xlink:href="#ArialMT-32"/>
       <use x="55.615234" xlink:href="#ArialMT-30"/>
       <use x="111.230469" xlink:href="#ArialMT-30"/>
      </g>
     </g>
    </g>
   </g>
   <g id="matplotlib.axis_2">
    <g id="ytick_1">
     <g id="text_10">
      <!-- −25 -->
      <g style="fill:#262626;" transform="translate(77.14125 533.878397)scale(0.11 -0.11)">
       <defs>
        <path d="M 3381 1997 
L 356 1997 
L 356 2522 
L 3381 2522 
L 3381 1997 
z
" id="ArialMT-2212" transform="scale(0.015625)"/>
       </defs>
       <use xlink:href="#ArialMT-2212"/>
       <use x="58.398438" xlink:href="#ArialMT-32"/>
       <use x="114.013672" xlink:href="#ArialMT-35"/>
      </g>
     </g>
    </g>
    <g id="ytick_2">
     <g id="text_11">
      <!-- −20 -->
      <g style="fill:#262626;" transform="translate(77.14125 442.180637)scale(0.11 -0.11)">
       <use xlink:href="#ArialMT-2212"/>
       <use x="58.398438" xlink:href="#ArialMT-32"/>
       <use x="114.013672" xlink:href="#ArialMT-30"/>
      </g>
     </g>
    </g>
    <g id="ytick_3">
     <g id="text_12">
      <!-- −15 -->
      <g style="fill:#262626;" transform="translate(77.14125 350.482877)scale(0.11 -0.11)">
       <use xlink:href="#ArialMT-2212"/>
       <use x="58.398438" xlink:href="#ArialMT-31"/>
       <use x="114.013672" xlink:href="#ArialMT-35"/>
      </g>
     </g>
    </g>
    <g id="ytick_4">
     <g id="text_13">
      <!-- −10 -->
      <g style="fill:#262626;" transform="translate(77.14125 258.785117)scale(0.11 -0.11)">
       <use xlink:href="#ArialMT-2212"/>
       <use x="58.398438" xlink:href="#ArialMT-31"/>
       <use x="114.013672" xlink:href="#ArialMT-30"/>
      </g>
     </g>
    </g>
    <g id="ytick_5">
     <g id="text_14">
      <!-- −5 -->
      <g style="fill:#262626;" transform="translate(83.258281 167.087357)scale(0.11 -0.11)">
       <use xlink:href="#ArialMT-2212"/>
       <use x="58.398438" xlink:href="#ArialMT-35"/>
      </g>
     </g>
    </g>
    <g id="ytick_6">
     <g id="text_15">
      <!-- 0 -->
      <g style="fill:#262626;" transform="translate(89.682969 75.389597)scale(0.11 -0.11)">
       <use xlink:href="#ArialMT-30"/>
      </g>
     </g>
    </g>
   </g>
   <g id="line2d_1">
    <path clip-path="url(#p46042c3b1c)" d="M 134.975455 379.473308 
L 137.899145 380.438194 
L 140.822835 383.533182 
L 143.746525 383.470113 
L 146.670215 388.072841 
L 149.593905 387.527854 
L 152.517595 391.634462 
L 155.441285 397.156287 
L 161.288665 405.735182 
L 164.212356 407.475993 
L 167.136046 411.98417 
L 170.059736 449.323415 
L 172.983426 459.305145 
L 175.907116 475.154476 
L 178.830806 506.95563 
L 181.754496 514.409256 
L 184.678186 399.264456 
L 187.601876 378.552566 
L 190.525567 539.359628 
L 193.449257 546.489725 
L 196.372947 479.784453 
L 199.296637 458.255082 
L 202.220327 371.148822 
L 205.144017 417.40102 
L 208.067707 521.210857 
L 210.991397 443.016395 
L 213.915087 447.18845 
L 216.838777 475.754207 
L 219.762468 442.623816 
L 222.686158 419.346603 
L 225.609848 468.191968 
L 228.533538 540.412279 
L 231.457228 498.755987 
L 234.380918 353.7135 
L 237.304608 493.093228 
L 240.228298 476.726858 
L 243.151988 410.989865 
L 246.075678 390.086215 
L 248.999369 444.478311 
L 251.923059 522.589451 
L 254.846749 459.282617 
L 257.770439 435.138568 
L 260.694129 365.843592 
L 263.617819 481.574411 
L 266.541509 381.532821 
L 269.465199 377.635428 
L 272.388889 421.708727 
L 275.312579 459.318647 
L 278.23627 479.440041 
L 281.15996 463.429032 
L 284.08365 423.21937 
L 287.00734 426.036513 
L 289.93103 482.917745 
L 292.85472 439.537887 
L 295.77841 423.182851 
L 298.7021 433.308558 
L 301.62579 377.193037 
L 304.549481 370.072245 
L 307.473171 391.171922 
L 310.396861 487.206562 
L 313.320551 429.812735 
L 316.244241 412.095441 
L 319.167931 424.522932 
L 322.091621 518.428589 
L 325.015311 449.657403 
L 327.939001 444.534489 
L 330.862691 426.620642 
L 333.786382 370.274009 
L 336.710072 372.715887 
L 339.633762 509.647895 
L 342.557452 555.711307 
L 345.481142 404.914343 
L 348.404832 412.417746 
L 351.328522 475.081893 
L 354.252212 517.091062 
L 357.175902 491.976074 
L 360.099592 488.075289 
L 363.023283 514.100524 
L 365.946973 410.578292 
L 368.870663 439.840953 
L 371.794353 477.208672 
L 374.718043 504.745879 
L 377.641733 516.279878 
L 380.565423 536.174882 
L 383.489113 459.920476 
L 386.412803 370.31511 
L 389.336494 391.378514 
L 392.260184 447.113768 
L 395.183874 491.571427 
L 398.107564 420.160236 
L 401.031254 386.171892 
L 403.954944 392.57703 
L 406.878634 419.144944 
L 409.802324 412.391721 
L 412.726014 394.803292 
L 415.649704 468.557578 
L 418.573395 427.362636 
L 421.497085 510.045861 
L 424.420775 570.68719 
L 427.344465 449.807817 
L 430.268155 467.449624 
L 433.191845 421.976219 
L 436.115535 296.658768 
L 439.039225 434.082594 
L 441.962915 550.46229 
L 444.886605 485.241111 
L 447.810296 339.591582 
L 450.733986 343.96311 
L 453.657676 420.847032 
L 456.581366 376.476228 
L 459.505056 429.813959 
L 462.428746 397.82052 
L 465.352436 420.888693 
L 468.276126 415.94596 
L 471.199816 422.951564 
L 474.123506 456.532846 
L 477.047197 494.591033 
L 479.970887 376.57746 
L 482.894577 386.769664 
L 485.818267 406.85384 
L 488.741957 447.006869 
L 491.665647 417.217865 
L 494.589337 382.778805 
L 497.513027 441.4756 
L 500.436717 389.215425 
L 503.360408 366.294168 
L 509.207788 549.771122 
L 512.131478 529.007076 
L 515.055168 499.28303 
L 517.978858 383.633295 
L 520.902548 367.800789 
L 523.826238 383.639696 
L 526.749928 430.633189 
L 529.673618 521.837802 
L 532.597309 550.660556 
L 535.520999 442.37252 
L 538.444689 377.930448 
L 541.368379 521.279907 
L 544.292069 562.260947 
L 547.215759 519.699515 
L 550.139449 551.56769 
L 553.063139 422.576439 
L 555.986829 510.6139 
L 558.910519 498.28152 
L 561.83421 523.931875 
L 564.7579 562.568 
L 567.68159 473.07394 
L 570.60528 474.131523 
L 573.52897 481.408606 
L 576.45266 473.430666 
L 579.37635 472.156557 
L 582.30004 458.559478 
L 585.22373 402.338212 
L 588.147421 393.523832 
L 591.071111 335.512871 
L 593.994801 403.755353 
L 596.918491 391.815238 
L 599.842181 474.304639 
L 605.689561 347.851845 
L 608.613251 431.205181 
L 611.536941 557.293658 
L 614.460631 537.246736 
L 617.384322 424.663621 
L 620.308012 472.928459 
L 623.231702 518.908409 
L 626.155392 547.923587 
L 629.079082 497.372462 
L 632.002772 428.23703 
L 634.926462 448.691712 
L 637.850152 495.351917 
L 640.773842 423.066543 
L 643.697532 383.151971 
L 646.621223 392.065729 
L 649.544913 429.022049 
L 652.468603 457.622191 
L 655.392293 416.394788 
L 658.315983 384.747335 
L 661.239673 469.636639 
L 664.163363 397.633693 
L 667.087053 459.102226 
L 670.010743 482.875034 
L 672.934433 502.898205 
L 675.858124 525.375951 
L 678.781814 461.933011 
L 681.705504 497.167864 
L 684.629194 540.110402 
L 687.552884 457.081051 
L 690.476574 506.789021 
L 693.400264 400.254178 
L 696.323954 428.657803 
L 699.247644 423.991936 
L 702.171335 411.826585 
L 705.095025 417.071929 
L 708.018715 412.721022 
L 710.942405 414.50038 
L 713.866095 412.892283 
L 716.789785 412.568824 
L 719.713475 412.60223 
L 722.637165 410.776523 
L 725.560855 413.291894 
L 728.484545 408.116825 
L 728.484545 408.116825 
" style="fill:none;stroke:#4c72b0;stroke-linecap:round;stroke-width:1.5;"/>
   </g>
   <g id="line2d_2">
    <path clip-path="url(#p46042c3b1c)" d="M 134.975455 365.506875 
L 137.899145 368.930255 
L 140.822835 370.426066 
L 143.746525 371.327849 
L 146.670215 373.788056 
L 149.593905 375.804719 
L 152.517595 377.31802 
L 155.441285 383.465006 
L 161.288665 393.252808 
L 164.212356 392.924556 
L 167.136046 395.996772 
L 170.059736 432.242965 
L 172.983426 433.831683 
L 175.907116 452.57123 
L 178.830806 487.840574 
L 181.754496 489.507157 
L 184.678186 396.157925 
L 187.601876 356.467924 
L 190.525567 529.598902 
L 193.449257 528.257772 
L 196.372947 475.212997 
L 199.296637 445.417697 
L 202.220327 369.087665 
L 205.144017 428.609776 
L 208.067707 525.398688 
L 210.991397 461.732366 
L 213.915087 424.573827 
L 216.838777 469.985144 
L 219.762468 419.887078 
L 222.686158 405.936142 
L 225.609848 448.814667 
L 228.533538 521.194416 
L 231.457228 492.289355 
L 234.380918 333.852147 
L 237.304608 462.455506 
L 240.228298 458.504174 
L 243.151988 386.020989 
L 246.075678 368.283511 
L 248.999369 460.018315 
L 251.923059 517.028063 
L 254.846749 459.127691 
L 257.770439 436.465601 
L 260.694129 372.408064 
L 263.617819 479.372215 
L 266.541509 387.680366 
L 269.465199 381.794575 
L 272.388889 444.631733 
L 275.312579 482.904977 
L 278.23627 499.106661 
L 281.15996 494.393187 
L 284.08365 444.596963 
L 287.00734 441.245292 
L 289.93103 504.286558 
L 292.85472 452.990535 
L 295.77841 407.924715 
L 298.7021 427.980557 
L 301.62579 374.386738 
L 304.549481 376.127164 
L 307.473171 406.679955 
L 310.396861 473.21442 
L 313.320551 457.180079 
L 316.244241 429.994141 
L 319.167931 467.193746 
L 322.091621 516.975383 
L 325.015311 440.804825 
L 327.939001 457.599664 
L 330.862691 422.013927 
L 333.786382 364.72009 
L 336.710072 398.777186 
L 339.633762 517.935407 
L 342.557452 537.788016 
L 345.481142 409.588255 
L 348.404832 398.618797 
L 351.328522 473.900411 
L 354.252212 434.293138 
L 357.175902 403.234537 
L 360.099592 310.496807 
L 363.023283 284.008875 
L 365.946973 318.000717 
L 368.870663 317.604762 
L 371.794353 381.494238 
L 374.718043 388.102819 
L 377.641733 403.958062 
L 380.565423 483.738164 
L 383.489113 403.669618 
L 386.412803 372.225364 
L 389.336494 366.404635 
L 392.260184 445.119073 
L 395.183874 495.623711 
L 398.107564 407.287171 
L 401.031254 371.480991 
L 403.954944 423.351139 
L 406.878634 405.463773 
L 409.802324 414.344824 
L 412.726014 414.211831 
L 415.649704 459.988967 
L 418.573395 398.691241 
L 421.497085 486.126487 
L 424.420775 521.827798 
L 427.344465 400.590685 
L 430.268155 410.592074 
L 433.191845 387.652173 
L 436.115535 279.080204 
L 439.039225 443.028393 
L 441.962915 569.750637 
L 444.886605 459.319661 
L 447.810296 312.700367 
L 450.733986 369.135307 
L 453.657676 416.918437 
L 456.581366 385.519237 
L 459.505056 419.829081 
L 462.428746 371.811726 
L 465.352436 415.496189 
L 468.276126 396.295291 
L 471.199816 427.967369 
L 474.123506 442.683946 
L 477.047197 515.963659 
L 479.970887 376.956188 
L 482.894577 380.212364 
L 488.741957 445.468837 
L 491.665647 429.419036 
L 494.589337 382.595196 
L 497.513027 441.616884 
L 500.436717 386.935364 
L 503.360408 366.146343 
L 506.284098 464.340749 
L 509.207788 536.471441 
L 512.131478 509.12519 
L 515.055168 496.671359 
L 517.978858 407.247924 
L 520.902548 367.230896 
L 523.826238 371.186495 
L 526.749928 430.709375 
L 529.673618 522.040441 
L 532.597309 542.482111 
L 535.520999 439.257873 
L 538.444689 389.940244 
L 541.368379 509.482055 
L 544.292069 567.524305 
L 547.215759 464.576933 
L 550.139449 492.42749 
L 553.063139 403.677523 
L 555.986829 394.221821 
L 558.910519 337.260363 
L 561.83421 333.864582 
L 564.7579 404.183403 
L 567.68159 388.486689 
L 570.60528 500.553291 
L 573.52897 323.42577 
L 576.45266 387.197364 
L 579.37635 415.149782 
L 582.30004 374.517213 
L 585.22373 385.142608 
L 588.147421 360.928144 
L 591.071111 310.571786 
L 593.994801 379.200534 
L 596.918491 360.192551 
L 599.842181 496.901737 
L 602.765871 398.09938 
L 605.689561 354.117484 
L 608.613251 462.639046 
L 611.536941 559.074171 
L 614.460631 560.180796 
L 617.384322 492.861311 
L 620.308012 498.373937 
L 623.231702 519.568515 
L 626.155392 560.284931 
L 629.079082 472.718859 
L 632.002772 444.332655 
L 634.926462 467.729988 
L 637.850152 483.301124 
L 640.773842 425.741527 
L 643.697532 379.258461 
L 646.621223 406.433346 
L 649.544913 462.765393 
L 652.468603 465.786889 
L 655.392293 432.004052 
L 658.315983 342.130705 
L 661.239673 452.838232 
L 664.163363 386.014938 
L 667.087053 469.284881 
L 670.010743 493.253471 
L 672.934433 492.690749 
L 675.858124 517.666517 
L 678.781814 470.490044 
L 681.705504 498.099379 
L 684.629194 539.235695 
L 687.552884 442.435904 
L 690.476574 486.321466 
L 693.400264 419.950951 
L 696.323954 440.849074 
L 699.247644 429.121602 
L 702.171335 398.917736 
L 705.095025 400.126886 
L 708.018715 397.694628 
L 710.942405 400.140319 
L 713.866095 398.040019 
L 716.789785 399.213281 
L 719.713475 399.842989 
L 722.637165 396.600106 
L 725.560855 400.675826 
L 728.484545 394.215455 
L 728.484545 394.215455 
" style="fill:none;stroke:#dd8452;stroke-dasharray:6,2.25;stroke-dashoffset:0;stroke-width:1.5;"/>
   </g>
   <g id="line2d_3">
    <path clip-path="url(#p46042c3b1c)" d="M 134.975455 369.764876 
L 137.899145 373.554356 
L 140.822835 376.816618 
L 143.746525 373.897334 
L 146.670215 383.331593 
L 149.593905 387.257809 
L 152.517595 389.754221 
L 155.441285 412.308294 
L 158.364975 413.500479 
L 161.288665 410.487904 
L 164.212356 411.381151 
L 167.136046 407.990862 
L 170.059736 428.845645 
L 172.983426 445.451697 
L 175.907116 459.553537 
L 178.830806 480.136631 
L 181.754496 474.671928 
L 184.678186 379.315758 
L 187.601876 369.578923 
L 190.525567 499.317205 
L 193.449257 537.65866 
L 196.372947 473.355634 
L 199.296637 456.967367 
L 202.220327 382.695238 
L 205.144017 387.738993 
L 208.067707 328.214888 
L 210.991397 388.589704 
L 213.915087 400.87878 
L 216.838777 404.080667 
L 219.762468 385.651881 
L 222.686158 393.525406 
L 225.609848 373.885511 
L 228.533538 462.385091 
L 231.457228 446.081686 
L 234.380918 322.662788 
L 237.304608 424.225008 
L 240.228298 464.081198 
L 243.151988 374.171786 
L 246.075678 332.920964 
L 248.999369 481.691663 
L 251.923059 469.629433 
L 254.846749 453.769467 
L 257.770439 436.621052 
L 260.694129 367.750452 
L 263.617819 444.304706 
L 266.541509 377.746874 
L 269.465199 387.646926 
L 272.388889 409.128409 
L 275.312579 434.222583 
L 281.15996 363.53016 
L 284.08365 357.169114 
L 287.00734 357.691767 
L 289.93103 389.399769 
L 292.85472 383.246837 
L 295.77841 400.925723 
L 298.7021 433.317233 
L 304.549481 397.114451 
L 307.473171 438.868441 
L 310.396861 525.30865 
L 313.320551 493.970839 
L 316.244241 438.956031 
L 319.167931 487.13202 
L 322.091621 527.748814 
L 325.015311 450.981218 
L 327.939001 449.01762 
L 330.862691 436.320959 
L 333.786382 381.356662 
L 336.710072 413.004639 
L 339.633762 556.95967 
L 342.557452 579.42332 
L 345.481142 422.398986 
L 348.404832 421.2946 
L 351.328522 504.978565 
L 354.252212 419.90915 
L 357.175902 498.950301 
L 360.099592 392.266129 
L 363.023283 419.49964 
L 365.946973 338.70722 
L 368.870663 388.903754 
L 371.794353 377.145779 
L 374.718043 461.352799 
L 377.641733 436.956019 
L 380.565423 470.678131 
L 383.489113 449.088315 
L 386.412803 386.673924 
L 389.336494 418.7333 
L 392.260184 483.516531 
L 395.183874 524.380143 
L 398.107564 435.181138 
L 401.031254 400.496519 
L 403.954944 421.027178 
L 406.878634 413.316695 
L 409.802324 470.907599 
L 412.726014 456.898526 
L 415.649704 441.820187 
L 418.573395 449.688885 
L 421.497085 418.458288 
L 424.420775 391.047499 
L 427.344465 345.300165 
L 430.268155 330.515325 
L 433.191845 255.611704 
L 436.115535 204.006363 
L 439.039225 370.816967 
L 441.962915 531.018247 
L 444.886605 415.695224 
L 447.810296 368.446623 
L 450.733986 349.72892 
L 453.657676 388.944506 
L 456.581366 419.589749 
L 459.505056 492.371977 
L 462.428746 414.233274 
L 465.352436 407.531086 
L 468.276126 407.787559 
L 471.199816 393.637132 
L 474.123506 445.689176 
L 477.047197 468.833989 
L 479.970887 416.910532 
L 482.894577 394.873707 
L 485.818267 404.940368 
L 488.741957 379.335522 
L 491.665647 401.604928 
L 494.589337 371.852653 
L 497.513027 426.408279 
L 500.436717 291.011103 
L 503.360408 366.959137 
L 506.284098 469.584833 
L 509.207788 457.943831 
L 512.131478 434.826827 
L 515.055168 407.131545 
L 517.978858 388.795421 
L 520.902548 353.365328 
L 523.826238 346.867021 
L 526.749928 441.044192 
L 529.673618 494.252183 
L 532.597309 523.834911 
L 535.520999 500.539439 
L 538.444689 415.488808 
L 541.368379 528.485666 
L 544.292069 554.483651 
L 547.215759 418.440588 
L 550.139449 432.473343 
L 553.063139 374.112565 
L 555.986829 327.08892 
L 558.910519 319.449637 
L 561.83421 325.462021 
L 564.7579 324.993273 
L 567.68159 349.413297 
L 570.60528 410.841306 
L 573.52897 434.051322 
L 576.45266 440.628141 
L 579.37635 439.119597 
L 582.30004 440.078047 
L 585.22373 423.396613 
L 588.147421 391.648209 
L 591.071111 336.771449 
L 593.994801 381.932991 
L 596.918491 375.154337 
L 599.842181 527.965095 
L 602.765871 458.884336 
L 605.689561 354.582174 
L 608.613251 458.176692 
L 611.536941 546.435646 
L 614.460631 549.711061 
L 617.384322 472.476623 
L 620.308012 454.120456 
L 623.231702 508.160619 
L 626.155392 542.031325 
L 629.079082 424.971654 
L 632.002772 427.19893 
L 634.926462 471.80263 
L 637.850152 414.633339 
L 640.773842 344.21103 
L 643.697532 412.243721 
L 646.621223 425.801937 
L 649.544913 472.70875 
L 652.468603 472.582403 
L 655.392293 423.934429 
L 658.315983 345.751459 
L 661.239673 451.153284 
L 664.163363 398.183262 
L 667.087053 471.136438 
L 670.010743 494.326795 
L 672.934433 480.758259 
L 675.858124 538.887435 
L 678.781814 479.699977 
L 681.705504 505.111139 
L 684.629194 554.372135 
L 687.552884 469.369042 
L 690.476574 481.65308 
L 693.400264 430.657255 
L 696.323954 456.824544 
L 699.247644 441.255996 
L 702.171335 417.964582 
L 705.095025 414.836502 
L 708.018715 412.158754 
L 710.942405 416.224995 
L 713.866095 410.874362 
L 716.789785 413.128853 
L 719.713475 415.043373 
L 722.637165 412.619545 
L 725.560855 419.35164 
L 728.484545 409.747833 
L 728.484545 409.747833 
" style="fill:none;stroke:#55a868;stroke-dasharray:1.5,1.5;stroke-dashoffset:0;stroke-width:1.5;"/>
   </g>
   <g id="line2d_4">
    <path clip-path="url(#p46042c3b1c)" d="M 134.975455 365.06249 
L 137.899145 368.482792 
L 140.822835 370.052796 
L 143.746525 370.854745 
L 146.670215 373.461939 
L 149.593905 375.383281 
L 152.517595 377.060008 
L 155.441285 383.339149 
L 161.288665 393.566997 
L 164.212356 393.221885 
L 167.136046 396.456688 
L 170.059736 432.750454 
L 172.983426 434.212474 
L 175.907116 452.950028 
L 178.830806 488.407948 
L 181.754496 490.407575 
L 184.678186 396.629769 
L 187.601876 356.840408 
L 190.525567 530.627451 
L 193.449257 530.497536 
L 196.372947 475.134607 
L 199.296637 445.684314 
L 202.220327 370.940936 
L 205.144017 427.227369 
L 208.067707 529.526878 
L 210.991397 458.039991 
L 213.915087 435.207583 
L 216.838777 464.874333 
L 219.762468 421.213237 
L 222.686158 407.015307 
L 225.609848 449.506604 
L 228.533538 523.311926 
L 231.457228 492.985105 
L 234.380918 334.282225 
L 237.304608 466.812185 
L 240.228298 462.548378 
L 243.151988 388.052343 
L 246.075678 370.397558 
L 248.999369 460.138926 
L 251.923059 518.202024 
L 254.846749 459.735817 
L 257.770439 435.508026 
L 260.694129 375.004728 
L 263.617819 481.633282 
L 266.541509 384.071733 
L 269.465199 383.178276 
L 272.388889 441.719235 
L 275.312579 487.312692 
L 278.23627 500.688208 
L 281.15996 490.66807 
L 284.08365 442.178871 
L 287.00734 449.525808 
L 289.93103 508.029934 
L 292.85472 446.980984 
L 295.77841 408.322192 
L 298.7021 428.063704 
L 301.62579 375.488081 
L 304.549481 380.390936 
L 307.473171 407.62004 
L 310.396861 476.340575 
L 313.320551 455.250307 
L 316.244241 427.432247 
L 319.167931 471.142314 
L 322.091621 527.954321 
L 325.015311 436.857411 
L 327.939001 444.919548 
L 330.862691 428.060976 
L 333.786382 357.338505 
L 336.710072 392.794326 
L 339.633762 520.151245 
L 342.557452 545.556986 
L 345.481142 410.314088 
L 348.404832 321.96277 
L 351.328522 450.761194 
L 354.252212 512.105829 
L 357.175902 425.650929 
L 360.099592 333.521132 
L 363.023283 431.734742 
L 365.946973 322.178823 
L 368.870663 329.271911 
L 371.794353 400.624441 
L 374.718043 412.884448 
L 377.641733 413.877213 
L 380.565423 496.870815 
L 383.489113 407.920587 
L 386.412803 379.367529 
L 389.336494 371.163828 
L 392.260184 448.38242 
L 395.183874 498.592002 
L 398.107564 410.330319 
L 401.031254 375.939636 
L 403.954944 423.398257 
L 406.878634 410.65976 
L 409.802324 418.528633 
L 412.726014 414.388934 
L 415.649704 465.994285 
L 418.573395 403.355638 
L 421.497085 496.665937 
L 424.420775 532.835349 
L 427.344465 402.985096 
L 430.268155 410.57315 
L 433.191845 386.006962 
L 436.115535 279.370748 
L 439.039225 443.397816 
L 441.962915 572.216861 
L 444.886605 459.624476 
L 447.810296 314.651442 
L 450.733986 365.165087 
L 453.657676 422.627125 
L 456.581366 389.582015 
L 459.505056 419.153514 
L 462.428746 371.474974 
L 465.352436 420.215574 
L 468.276126 394.725637 
L 471.199816 429.015578 
L 474.123506 448.404842 
L 477.047197 524.122201 
L 479.970887 379.320865 
L 482.894577 380.360049 
L 485.818267 411.504525 
L 488.741957 446.482835 
L 491.665647 428.715065 
L 494.589337 382.914352 
L 497.513027 442.629307 
L 500.436717 385.230933 
L 503.360408 364.172444 
L 506.284098 464.086445 
L 509.207788 536.254391 
L 512.131478 509.919409 
L 515.055168 496.895545 
L 517.978858 406.731445 
L 520.902548 366.961585 
L 523.826238 369.573816 
L 526.749928 429.711328 
L 529.673618 522.0148 
L 532.597309 542.186706 
L 535.520999 438.514235 
L 538.444689 391.312122 
L 541.368379 508.016361 
L 544.292069 567.940321 
L 547.215759 465.345162 
L 550.139449 494.310949 
L 553.063139 404.433614 
L 555.986829 396.300398 
L 558.910519 337.194723 
L 561.83421 334.685176 
L 564.7579 405.385802 
L 567.68159 389.251455 
L 570.60528 496.36476 
L 573.52897 343.345785 
L 576.45266 347.063083 
L 579.37635 398.145764 
L 582.30004 385.795439 
L 585.22373 440.223599 
L 588.147421 349.876885 
L 591.071111 290.969914 
L 593.994801 407.710043 
L 596.918491 404.584552 
L 599.842181 487.624433 
L 602.765871 408.145088 
L 605.689561 362.735854 
L 611.536941 561.28791 
L 614.460631 575.321679 
L 617.384322 494.598344 
L 620.308012 500.039471 
L 623.231702 522.574129 
L 626.155392 555.614447 
L 629.079082 474.567898 
L 632.002772 443.935458 
L 634.926462 469.72101 
L 637.850152 484.04924 
L 640.773842 425.946474 
L 643.697532 376.879372 
L 646.621223 409.023994 
L 649.544913 457.482236 
L 652.468603 465.352158 
L 655.392293 433.240242 
L 658.315983 344.754618 
L 661.239673 454.266147 
L 664.163363 384.881728 
L 667.087053 467.221905 
L 670.010743 493.640594 
L 672.934433 493.300449 
L 675.858124 516.516797 
L 678.781814 470.715594 
L 681.705504 496.947735 
L 684.629194 538.199799 
L 687.552884 441.130768 
L 690.476574 485.998041 
L 693.400264 418.824878 
L 696.323954 439.579723 
L 699.247644 430.276429 
L 702.171335 397.660732 
L 705.095025 399.14528 
L 708.018715 397.099829 
L 710.942405 400.613247 
L 713.866095 398.635518 
L 716.789785 399.57994 
L 719.713475 399.844179 
L 722.637165 396.957601 
L 725.560855 401.029088 
L 728.484545 395.14732 
L 728.484545 395.14732 
" style="fill:none;stroke:#c44e52;stroke-dasharray:4.5,1.875,2.25,1.875;stroke-dashoffset:0;stroke-width:1.5;"/>
   </g>
   <g id="line2d_5">
    <path clip-path="url(#p46042c3b1c)" d="M 134.975455 366.249219 
L 137.899145 369.664763 
L 140.822835 371.262471 
L 143.746525 372.11787 
L 149.593905 377.142771 
L 152.517595 378.872073 
L 155.441285 384.734218 
L 158.364975 389.315713 
L 161.288665 395.370597 
L 164.212356 394.657496 
L 167.136046 396.751149 
L 170.059736 433.16591 
L 172.983426 434.39479 
L 175.907116 452.381149 
L 178.830806 488.684884 
L 181.754496 498.113022 
L 184.678186 393.12639 
L 187.601876 369.332 
L 190.525567 533.360782 
L 193.449257 540.946038 
L 196.372947 484.306132 
L 199.296637 455.222498 
L 202.220327 376.008337 
L 205.144017 426.71215 
L 208.067707 534.032537 
L 210.991397 452.000148 
L 213.915087 415.04152 
L 216.838777 467.584332 
L 219.762468 422.860161 
L 222.686158 407.974981 
L 225.609848 456.809292 
L 228.533538 527.537325 
L 231.457228 497.76644 
L 234.380918 340.437519 
L 237.304608 468.354939 
L 240.228298 464.898084 
L 243.151988 391.572792 
L 246.075678 371.56956 
L 248.999369 454.076626 
L 251.923059 528.271064 
L 254.846749 467.149706 
L 257.770439 443.593739 
L 260.694129 372.718895 
L 263.617819 479.175383 
L 266.541509 383.192198 
L 269.465199 381.736404 
L 272.388889 436.439121 
L 275.312579 481.094451 
L 278.23627 498.835042 
L 281.15996 497.306699 
L 284.08365 446.559931 
L 287.00734 444.427695 
L 289.93103 505.127615 
L 292.85472 451.901365 
L 295.77841 410.782749 
L 298.7021 428.259662 
L 301.62579 380.563842 
L 304.549481 382.013305 
L 307.473171 407.474209 
L 310.396861 495.321974 
L 313.320551 467.619067 
L 316.244241 433.332205 
L 319.167931 466.102303 
L 322.091621 539.074682 
L 325.015311 442.887214 
L 327.939001 435.699436 
L 330.862691 427.540859 
L 333.786382 369.363027 
L 336.710072 378.568622 
L 339.633762 524.869267 
L 342.557452 554.00649 
L 345.481142 414.908211 
L 348.404832 405.587532 
L 351.328522 476.395249 
L 354.252212 522.998681 
L 357.175902 518.54014 
L 360.099592 495.750967 
L 363.023283 523.165815 
L 365.946973 389.051859 
L 368.870663 424.473365 
L 371.794353 439.363267 
L 374.718043 455.341395 
L 377.641733 498.915916 
L 380.565423 547.080186 
L 383.489113 459.983615 
L 386.412803 381.553389 
L 389.336494 390.909643 
L 392.260184 466.247399 
L 395.183874 505.880488 
L 398.107564 398.306461 
L 401.031254 393.818328 
L 403.954944 423.459052 
L 406.878634 425.344085 
L 409.802324 436.683736 
L 412.726014 420.538894 
L 415.649704 493.218246 
L 418.573395 419.605175 
L 421.497085 515.418322 
L 424.420775 548.830337 
L 427.344465 414.417513 
L 430.268155 417.467062 
L 433.191845 394.728365 
L 436.115535 279.620137 
L 439.039225 440.167351 
L 441.962915 573.956273 
L 444.886605 469.389925 
L 447.810296 314.193852 
L 453.657676 401.931081 
L 456.581366 371.299305 
L 459.505056 398.37908 
L 462.428746 358.291655 
L 465.352436 409.854767 
L 468.276126 401.936188 
L 471.199816 437.161526 
L 474.123506 458.381989 
L 477.047197 516.085424 
L 479.970887 378.753806 
L 482.894577 382.685514 
L 485.818267 418.700069 
L 488.741957 452.216429 
L 491.665647 435.64826 
L 494.589337 386.690085 
L 497.513027 447.540313 
L 500.436717 383.47578 
L 503.360408 359.294826 
L 506.284098 463.324967 
L 509.207788 541.047619 
L 512.131478 523.546431 
L 515.055168 500.418583 
L 517.978858 412.798117 
L 520.902548 367.750627 
L 523.826238 356.923992 
L 526.749928 413.903483 
L 529.673618 514.067643 
L 532.597309 521.828288 
L 535.520999 419.610072 
L 538.444689 365.363423 
L 541.368379 495.190869 
L 544.292069 568.570205 
L 547.215759 458.473847 
L 550.139449 495.82565 
L 553.063139 344.161411 
L 555.986829 423.264704 
L 558.910519 386.815733 
L 561.83421 421.801564 
L 564.7579 512.73169 
L 567.68159 428.352988 
L 570.60528 420.238451 
L 573.52897 439.514765 
L 576.45266 510.955024 
L 579.37635 444.323875 
L 582.30004 398.544535 
L 585.22373 414.768641 
L 591.071111 310.481958 
L 593.994801 382.563154 
L 596.918491 391.920807 
L 599.842181 465.18303 
L 602.765871 404.932708 
L 605.689561 360.28189 
L 608.613251 460.223332 
L 611.536941 549.42587 
L 614.460631 565.836104 
L 617.384322 480.516863 
L 620.308012 492.11463 
L 623.231702 515.35305 
L 626.155392 554.981416 
L 629.079082 479.175803 
L 632.002772 447.819033 
L 634.926462 461.036686 
L 637.850152 472.247855 
L 640.773842 414.179125 
L 643.697532 372.184857 
L 646.621223 393.991968 
L 649.544913 437.447942 
L 652.468603 437.357274 
L 655.392293 413.872281 
L 658.315983 351.005338 
L 661.239673 445.781908 
L 664.163363 373.262763 
L 667.087053 456.087272 
L 670.010743 489.962176 
L 672.934433 500.804656 
L 675.858124 516.712824 
L 678.781814 463.699882 
L 681.705504 499.29174 
L 684.629194 528.925503 
L 687.552884 428.645385 
L 690.476574 467.818907 
L 693.400264 407.122241 
L 696.323954 433.900104 
L 699.247644 427.249861 
L 702.171335 400.518976 
L 705.095025 402.206932 
L 708.018715 399.996341 
L 710.942405 399.77212 
L 713.866095 396.370708 
L 716.789785 396.590626 
L 719.713475 398.725941 
L 722.637165 393.337319 
L 725.560855 397.754094 
L 728.484545 391.046309 
L 728.484545 391.046309 
" style="fill:none;stroke:#8172b3;stroke-dasharray:7.5,1.5,1.5,1.5;stroke-dashoffset:0;stroke-width:1.5;"/>
   </g>
   <g id="line2d_6"/>
   <g id="line2d_7"/>
   <g id="line2d_8"/>
   <g id="line2d_9"/>
   <g id="line2d_10"/>
   <g id="patch_3">
    <path d="M 105.3 529.9416 
L 105.3 71.4528 
" style="fill:none;stroke:#262626;stroke-linecap:square;stroke-linejoin:miter;stroke-width:1.25;"/>
   </g>
   <g id="patch_4">
    <path d="M 758.16 529.9416 
L 758.16 71.4528 
" style="fill:none;stroke:#262626;stroke-linecap:square;stroke-linejoin:miter;stroke-width:1.25;"/>
   </g>
   <g id="patch_5">
    <path d="M 105.3 529.9416 
L 758.16 529.9416 
" style="fill:none;stroke:#262626;stroke-linecap:square;stroke-linejoin:miter;stroke-width:1.25;"/>
   </g>
   <g id="patch_6">
    <path d="M 105.3 71.4528 
L 758.16 71.4528 
" style="fill:none;stroke:#262626;stroke-linecap:square;stroke-linejoin:miter;stroke-width:1.25;"/>
   </g>
   <g id="text_16">
    <!-- Activations for &gt;"&lt; -->
    <g style="fill:#262626;" transform="translate(383.244375 65.4528)scale(0.12 -0.12)">
     <defs>
      <path d="M -9 0 
L 1750 4581 
L 2403 4581 
L 4278 0 
L 3588 0 
L 3053 1388 
L 1138 1388 
L 634 0 
L -9 0 
z
M 1313 1881 
L 2866 1881 
L 2388 3150 
Q 2169 3728 2063 4100 
Q 1975 3659 1816 3225 
L 1313 1881 
z
" id="ArialMT-41" transform="scale(0.015625)"/>
      <path d="M 2588 1216 
L 3141 1144 
Q 3050 572 2676 248 
Q 2303 -75 1759 -75 
Q 1078 -75 664 370 
Q 250 816 250 1647 
Q 250 2184 428 2587 
Q 606 2991 970 3192 
Q 1334 3394 1763 3394 
Q 2303 3394 2647 3120 
Q 2991 2847 3088 2344 
L 2541 2259 
Q 2463 2594 2264 2762 
Q 2066 2931 1784 2931 
Q 1359 2931 1093 2626 
Q 828 2322 828 1663 
Q 828 994 1084 691 
Q 1341 388 1753 388 
Q 2084 388 2306 591 
Q 2528 794 2588 1216 
z
" id="ArialMT-63" transform="scale(0.015625)"/>
      <path d="M 1650 503 
L 1731 6 
Q 1494 -44 1306 -44 
Q 1000 -44 831 53 
Q 663 150 594 308 
Q 525 466 525 972 
L 525 2881 
L 113 2881 
L 113 3319 
L 525 3319 
L 525 4141 
L 1084 4478 
L 1084 3319 
L 1650 3319 
L 1650 2881 
L 1084 2881 
L 1084 941 
Q 1084 700 1114 631 
Q 1144 563 1211 522 
Q 1278 481 1403 481 
Q 1497 481 1650 503 
z
" id="ArialMT-74" transform="scale(0.015625)"/>
      <path d="M 425 3934 
L 425 4581 
L 988 4581 
L 988 3934 
L 425 3934 
z
M 425 0 
L 425 3319 
L 988 3319 
L 988 0 
L 425 0 
z
" id="ArialMT-69" transform="scale(0.015625)"/>
      <path d="M 1344 0 
L 81 3319 
L 675 3319 
L 1388 1331 
Q 1503 1009 1600 663 
Q 1675 925 1809 1294 
L 2547 3319 
L 3125 3319 
L 1869 0 
L 1344 0 
z
" id="ArialMT-76" transform="scale(0.015625)"/>
      <path d="M 2588 409 
Q 2275 144 1986 34 
Q 1697 -75 1366 -75 
Q 819 -75 525 192 
Q 231 459 231 875 
Q 231 1119 342 1320 
Q 453 1522 633 1644 
Q 813 1766 1038 1828 
Q 1203 1872 1538 1913 
Q 2219 1994 2541 2106 
Q 2544 2222 2544 2253 
Q 2544 2597 2384 2738 
Q 2169 2928 1744 2928 
Q 1347 2928 1158 2789 
Q 969 2650 878 2297 
L 328 2372 
Q 403 2725 575 2942 
Q 747 3159 1072 3276 
Q 1397 3394 1825 3394 
Q 2250 3394 2515 3294 
Q 2781 3194 2906 3042 
Q 3031 2891 3081 2659 
Q 3109 2516 3109 2141 
L 3109 1391 
Q 3109 606 3145 398 
Q 3181 191 3288 0 
L 2700 0 
Q 2613 175 2588 409 
z
M 2541 1666 
Q 2234 1541 1622 1453 
Q 1275 1403 1131 1340 
Q 988 1278 909 1158 
Q 831 1038 831 891 
Q 831 666 1001 516 
Q 1172 366 1500 366 
Q 1825 366 2078 508 
Q 2331 650 2450 897 
Q 2541 1088 2541 1459 
L 2541 1666 
z
" id="ArialMT-61" transform="scale(0.015625)"/>
      <path d="M 213 1659 
Q 213 2581 725 3025 
Q 1153 3394 1769 3394 
Q 2453 3394 2887 2945 
Q 3322 2497 3322 1706 
Q 3322 1066 3130 698 
Q 2938 331 2570 128 
Q 2203 -75 1769 -75 
Q 1072 -75 642 372 
Q 213 819 213 1659 
z
M 791 1659 
Q 791 1022 1069 705 
Q 1347 388 1769 388 
Q 2188 388 2466 706 
Q 2744 1025 2744 1678 
Q 2744 2294 2464 2611 
Q 2184 2928 1769 2928 
Q 1347 2928 1069 2612 
Q 791 2297 791 1659 
z
" id="ArialMT-6f" transform="scale(0.015625)"/>
      <path d="M 422 0 
L 422 3319 
L 928 3319 
L 928 2847 
Q 1294 3394 1984 3394 
Q 2284 3394 2536 3286 
Q 2788 3178 2913 3003 
Q 3038 2828 3088 2588 
Q 3119 2431 3119 2041 
L 3119 0 
L 2556 0 
L 2556 2019 
Q 2556 2363 2490 2533 
Q 2425 2703 2258 2804 
Q 2091 2906 1866 2906 
Q 1506 2906 1245 2678 
Q 984 2450 984 1813 
L 984 0 
L 422 0 
z
" id="ArialMT-6e" transform="scale(0.015625)"/>
      <path d="M 197 991 
L 753 1078 
Q 800 744 1014 566 
Q 1228 388 1613 388 
Q 2000 388 2187 545 
Q 2375 703 2375 916 
Q 2375 1106 2209 1216 
Q 2094 1291 1634 1406 
Q 1016 1563 777 1677 
Q 538 1791 414 1992 
Q 291 2194 291 2438 
Q 291 2659 392 2848 
Q 494 3038 669 3163 
Q 800 3259 1026 3326 
Q 1253 3394 1513 3394 
Q 1903 3394 2198 3281 
Q 2494 3169 2634 2976 
Q 2775 2784 2828 2463 
L 2278 2388 
Q 2241 2644 2061 2787 
Q 1881 2931 1553 2931 
Q 1166 2931 1000 2803 
Q 834 2675 834 2503 
Q 834 2394 903 2306 
Q 972 2216 1119 2156 
Q 1203 2125 1616 2013 
Q 2213 1853 2448 1751 
Q 2684 1650 2818 1456 
Q 2953 1263 2953 975 
Q 2953 694 2789 445 
Q 2625 197 2315 61 
Q 2006 -75 1616 -75 
Q 969 -75 630 194 
Q 291 463 197 991 
z
" id="ArialMT-73" transform="scale(0.015625)"/>
      <path id="ArialMT-20" transform="scale(0.015625)"/>
      <path d="M 556 0 
L 556 2881 
L 59 2881 
L 59 3319 
L 556 3319 
L 556 3672 
Q 556 4006 616 4169 
Q 697 4388 901 4523 
Q 1106 4659 1475 4659 
Q 1713 4659 2000 4603 
L 1916 4113 
Q 1741 4144 1584 4144 
Q 1328 4144 1222 4034 
Q 1116 3925 1116 3625 
L 1116 3319 
L 1763 3319 
L 1763 2881 
L 1116 2881 
L 1116 0 
L 556 0 
z
" id="ArialMT-66" transform="scale(0.015625)"/>
      <path d="M 416 0 
L 416 3319 
L 922 3319 
L 922 2816 
Q 1116 3169 1280 3281 
Q 1444 3394 1641 3394 
Q 1925 3394 2219 3213 
L 2025 2691 
Q 1819 2813 1613 2813 
Q 1428 2813 1281 2702 
Q 1134 2591 1072 2394 
Q 978 2094 978 1738 
L 978 0 
L 416 0 
z
" id="ArialMT-72" transform="scale(0.015625)"/>
      <path d="M 3384 2003 
L 350 706 
L 350 1266 
L 2753 2263 
L 350 3250 
L 350 3809 
L 3384 2528 
L 3384 2003 
z
" id="ArialMT-3e" transform="scale(0.015625)"/>
      <path d="M 450 2959 
L 294 3831 
L 294 4581 
L 934 4581 
L 934 3831 
L 794 2959 
L 450 2959 
z
M 1484 2959 
L 1331 3831 
L 1331 4581 
L 1972 4581 
L 1972 3831 
L 1822 2959 
L 1484 2959 
z
" id="ArialMT-22" transform="scale(0.015625)"/>
      <path d="M 350 2003 
L 350 2528 
L 3384 3809 
L 3384 3250 
L 978 2263 
L 3384 1266 
L 3384 706 
L 350 2003 
z
" id="ArialMT-3c" transform="scale(0.015625)"/>
     </defs>
     <use xlink:href="#ArialMT-41"/>
     <use x="66.699219" xlink:href="#ArialMT-63"/>
     <use x="116.699219" xlink:href="#ArialMT-74"/>
     <use x="144.482422" xlink:href="#ArialMT-69"/>
     <use x="166.699219" xlink:href="#ArialMT-76"/>
     <use x="216.699219" xlink:href="#ArialMT-61"/>
     <use x="272.314453" xlink:href="#ArialMT-74"/>
     <use x="300.097656" xlink:href="#ArialMT-69"/>
     <use x="322.314453" xlink:href="#ArialMT-6f"/>
     <use x="377.929688" xlink:href="#ArialMT-6e"/>
     <use x="433.544922" xlink:href="#ArialMT-73"/>
     <use x="483.544922" xlink:href="#ArialMT-20"/>
     <use x="511.328125" xlink:href="#ArialMT-66"/>
     <use x="539.111328" xlink:href="#ArialMT-6f"/>
     <use x="594.726562" xlink:href="#ArialMT-72"/>
     <use x="628.027344" xlink:href="#ArialMT-20"/>
     <use x="655.810547" xlink:href="#ArialMT-3e"/>
     <use x="714.208984" xlink:href="#ArialMT-22"/>
     <use x="749.707031" xlink:href="#ArialMT-3c"/>
    </g>
   </g>
   <g id="legend_1">
    <g id="patch_7">
     <path d="M 640.044062 158.514363 
L 750.46 158.514363 
Q 752.66 158.514363 752.66 156.314363 
L 752.66 79.1528 
Q 752.66 76.9528 750.46 76.9528 
L 640.044062 76.9528 
Q 637.844062 76.9528 637.844062 79.1528 
L 637.844062 156.314363 
Q 637.844062 158.514363 640.044062 158.514363 
z
" style="fill:#ffffff;opacity:0.8;stroke:#cccccc;stroke-linejoin:miter;"/>
    </g>
    <g id="line2d_11">
     <path d="M 642.244062 85.376394 
L 664.244062 85.376394 
" style="fill:none;stroke:#4c72b0;stroke-linecap:round;stroke-width:1.5;"/>
    </g>
    <g id="line2d_12"/>
    <g id="text_17">
     <!-- regular -->
     <g style="fill:#262626;" transform="translate(673.044062 89.226394)scale(0.11 -0.11)">
      <defs>
       <path d="M 2694 1069 
L 3275 997 
Q 3138 488 2766 206 
Q 2394 -75 1816 -75 
Q 1088 -75 661 373 
Q 234 822 234 1631 
Q 234 2469 665 2931 
Q 1097 3394 1784 3394 
Q 2450 3394 2872 2941 
Q 3294 2488 3294 1666 
Q 3294 1616 3291 1516 
L 816 1516 
Q 847 969 1125 678 
Q 1403 388 1819 388 
Q 2128 388 2347 550 
Q 2566 713 2694 1069 
z
M 847 1978 
L 2700 1978 
Q 2663 2397 2488 2606 
Q 2219 2931 1791 2931 
Q 1403 2931 1139 2672 
Q 875 2413 847 1978 
z
" id="ArialMT-65" transform="scale(0.015625)"/>
       <path d="M 319 -275 
L 866 -356 
Q 900 -609 1056 -725 
Q 1266 -881 1628 -881 
Q 2019 -881 2231 -725 
Q 2444 -569 2519 -288 
Q 2563 -116 2559 434 
Q 2191 0 1641 0 
Q 956 0 581 494 
Q 206 988 206 1678 
Q 206 2153 378 2554 
Q 550 2956 876 3175 
Q 1203 3394 1644 3394 
Q 2231 3394 2613 2919 
L 2613 3319 
L 3131 3319 
L 3131 450 
Q 3131 -325 2973 -648 
Q 2816 -972 2473 -1159 
Q 2131 -1347 1631 -1347 
Q 1038 -1347 672 -1080 
Q 306 -813 319 -275 
z
M 784 1719 
Q 784 1066 1043 766 
Q 1303 466 1694 466 
Q 2081 466 2343 764 
Q 2606 1063 2606 1700 
Q 2606 2309 2336 2618 
Q 2066 2928 1684 2928 
Q 1309 2928 1046 2623 
Q 784 2319 784 1719 
z
" id="ArialMT-67" transform="scale(0.015625)"/>
       <path d="M 2597 0 
L 2597 488 
Q 2209 -75 1544 -75 
Q 1250 -75 995 37 
Q 741 150 617 320 
Q 494 491 444 738 
Q 409 903 409 1263 
L 409 3319 
L 972 3319 
L 972 1478 
Q 972 1038 1006 884 
Q 1059 663 1231 536 
Q 1403 409 1656 409 
Q 1909 409 2131 539 
Q 2353 669 2445 892 
Q 2538 1116 2538 1541 
L 2538 3319 
L 3100 3319 
L 3100 0 
L 2597 0 
z
" id="ArialMT-75" transform="scale(0.015625)"/>
       <path d="M 409 0 
L 409 4581 
L 972 4581 
L 972 0 
L 409 0 
z
" id="ArialMT-6c" transform="scale(0.015625)"/>
      </defs>
      <use xlink:href="#ArialMT-72"/>
      <use x="33.300781" xlink:href="#ArialMT-65"/>
      <use x="88.916016" xlink:href="#ArialMT-67"/>
      <use x="144.53125" xlink:href="#ArialMT-75"/>
      <use x="200.146484" xlink:href="#ArialMT-6c"/>
      <use x="222.363281" xlink:href="#ArialMT-61"/>
      <use x="277.978516" xlink:href="#ArialMT-72"/>
     </g>
    </g>
    <g id="line2d_13">
     <path d="M 642.244062 101.0978 
L 664.244062 101.0978 
" style="fill:none;stroke:#dd8452;stroke-dasharray:6,2.25;stroke-dashoffset:0;stroke-width:1.5;"/>
    </g>
    <g id="line2d_14"/>
    <g id="text_18">
     <!-- splitted_3s -->
     <g style="fill:#262626;" transform="translate(673.044062 104.9478)scale(0.11 -0.11)">
      <defs>
       <path d="M 422 -1272 
L 422 3319 
L 934 3319 
L 934 2888 
Q 1116 3141 1344 3267 
Q 1572 3394 1897 3394 
Q 2322 3394 2647 3175 
Q 2972 2956 3137 2557 
Q 3303 2159 3303 1684 
Q 3303 1175 3120 767 
Q 2938 359 2589 142 
Q 2241 -75 1856 -75 
Q 1575 -75 1351 44 
Q 1128 163 984 344 
L 984 -1272 
L 422 -1272 
z
M 931 1641 
Q 931 1000 1190 694 
Q 1450 388 1819 388 
Q 2194 388 2461 705 
Q 2728 1022 2728 1688 
Q 2728 2322 2467 2637 
Q 2206 2953 1844 2953 
Q 1484 2953 1207 2617 
Q 931 2281 931 1641 
z
" id="ArialMT-70" transform="scale(0.015625)"/>
       <path d="M 2575 0 
L 2575 419 
Q 2259 -75 1647 -75 
Q 1250 -75 917 144 
Q 584 363 401 755 
Q 219 1147 219 1656 
Q 219 2153 384 2558 
Q 550 2963 881 3178 
Q 1213 3394 1622 3394 
Q 1922 3394 2156 3267 
Q 2391 3141 2538 2938 
L 2538 4581 
L 3097 4581 
L 3097 0 
L 2575 0 
z
M 797 1656 
Q 797 1019 1065 703 
Q 1334 388 1700 388 
Q 2069 388 2326 689 
Q 2584 991 2584 1609 
Q 2584 2291 2321 2609 
Q 2059 2928 1675 2928 
Q 1300 2928 1048 2622 
Q 797 2316 797 1656 
z
" id="ArialMT-64" transform="scale(0.015625)"/>
       <path d="M -97 -1272 
L -97 -866 
L 3631 -866 
L 3631 -1272 
L -97 -1272 
z
" id="ArialMT-5f" transform="scale(0.015625)"/>
       <path d="M 269 1209 
L 831 1284 
Q 928 806 1161 595 
Q 1394 384 1728 384 
Q 2125 384 2398 659 
Q 2672 934 2672 1341 
Q 2672 1728 2419 1979 
Q 2166 2231 1775 2231 
Q 1616 2231 1378 2169 
L 1441 2663 
Q 1497 2656 1531 2656 
Q 1891 2656 2178 2843 
Q 2466 3031 2466 3422 
Q 2466 3731 2256 3934 
Q 2047 4138 1716 4138 
Q 1388 4138 1169 3931 
Q 950 3725 888 3313 
L 325 3413 
Q 428 3978 793 4289 
Q 1159 4600 1703 4600 
Q 2078 4600 2393 4439 
Q 2709 4278 2876 4000 
Q 3044 3722 3044 3409 
Q 3044 3113 2884 2869 
Q 2725 2625 2413 2481 
Q 2819 2388 3044 2092 
Q 3269 1797 3269 1353 
Q 3269 753 2831 336 
Q 2394 -81 1725 -81 
Q 1122 -81 723 278 
Q 325 638 269 1209 
z
" id="ArialMT-33" transform="scale(0.015625)"/>
      </defs>
      <use xlink:href="#ArialMT-73"/>
      <use x="50" xlink:href="#ArialMT-70"/>
      <use x="105.615234" xlink:href="#ArialMT-6c"/>
      <use x="127.832031" xlink:href="#ArialMT-69"/>
      <use x="150.048828" xlink:href="#ArialMT-74"/>
      <use x="177.832031" xlink:href="#ArialMT-74"/>
      <use x="205.615234" xlink:href="#ArialMT-65"/>
      <use x="261.230469" xlink:href="#ArialMT-64"/>
      <use x="316.845703" xlink:href="#ArialMT-5f"/>
      <use x="372.460938" xlink:href="#ArialMT-33"/>
      <use x="428.076172" xlink:href="#ArialMT-73"/>
     </g>
    </g>
    <g id="line2d_15">
     <path d="M 642.244062 116.6903 
L 664.244062 116.6903 
" style="fill:none;stroke:#55a868;stroke-dasharray:1.5,1.5;stroke-dashoffset:0;stroke-width:1.5;"/>
    </g>
    <g id="line2d_16"/>
    <g id="text_19">
     <!-- splitted_1s -->
     <g style="fill:#262626;" transform="translate(673.044062 120.5403)scale(0.11 -0.11)">
      <use xlink:href="#ArialMT-73"/>
      <use x="50" xlink:href="#ArialMT-70"/>
      <use x="105.615234" xlink:href="#ArialMT-6c"/>
      <use x="127.832031" xlink:href="#ArialMT-69"/>
      <use x="150.048828" xlink:href="#ArialMT-74"/>
      <use x="177.832031" xlink:href="#ArialMT-74"/>
      <use x="205.615234" xlink:href="#ArialMT-65"/>
      <use x="261.230469" xlink:href="#ArialMT-64"/>
      <use x="316.845703" xlink:href="#ArialMT-5f"/>
      <use x="372.460938" xlink:href="#ArialMT-31"/>
      <use x="428.076172" xlink:href="#ArialMT-73"/>
     </g>
    </g>
    <g id="line2d_17">
     <path d="M 642.244062 132.384206 
L 664.244062 132.384206 
" style="fill:none;stroke:#c44e52;stroke-dasharray:4.5,1.875,2.25,1.875;stroke-dashoffset:0;stroke-width:1.5;"/>
    </g>
    <g id="line2d_18"/>
    <g id="text_20">
     <!-- overlap_1f_3s -->
     <g style="fill:#262626;" transform="translate(673.044062 136.234206)scale(0.11 -0.11)">
      <use xlink:href="#ArialMT-6f"/>
      <use x="55.615234" xlink:href="#ArialMT-76"/>
      <use x="105.615234" xlink:href="#ArialMT-65"/>
      <use x="161.230469" xlink:href="#ArialMT-72"/>
      <use x="194.53125" xlink:href="#ArialMT-6c"/>
      <use x="216.748047" xlink:href="#ArialMT-61"/>
      <use x="272.363281" xlink:href="#ArialMT-70"/>
      <use x="327.978516" xlink:href="#ArialMT-5f"/>
      <use x="383.59375" xlink:href="#ArialMT-31"/>
      <use x="439.208984" xlink:href="#ArialMT-66"/>
      <use x="466.992188" xlink:href="#ArialMT-5f"/>
      <use x="522.607422" xlink:href="#ArialMT-33"/>
      <use x="578.222656" xlink:href="#ArialMT-73"/>
     </g>
    </g>
    <g id="line2d_19">
     <path d="M 642.244062 148.078113 
L 664.244062 148.078113 
" style="fill:none;stroke:#8172b3;stroke-dasharray:7.5,1.5,1.5,1.5;stroke-dashoffset:0;stroke-width:1.5;"/>
    </g>
    <g id="line2d_20"/>
    <g id="text_21">
     <!-- overlap_10f_3s -->
     <g style="fill:#262626;" transform="translate(673.044062 151.928112)scale(0.11 -0.11)">
      <use xlink:href="#ArialMT-6f"/>
      <use x="55.615234" xlink:href="#ArialMT-76"/>
      <use x="105.615234" xlink:href="#ArialMT-65"/>
      <use x="161.230469" xlink:href="#ArialMT-72"/>
      <use x="194.53125" xlink:href="#ArialMT-6c"/>
      <use x="216.748047" xlink:href="#ArialMT-61"/>
      <use x="272.363281" xlink:href="#ArialMT-70"/>
      <use x="327.978516" xlink:href="#ArialMT-5f"/>
      <use x="383.59375" xlink:href="#ArialMT-31"/>
      <use x="439.208984" xlink:href="#ArialMT-30"/>
      <use x="494.824219" xlink:href="#ArialMT-66"/>
      <use x="522.607422" xlink:href="#ArialMT-5f"/>
      <use x="578.222656" xlink:href="#ArialMT-33"/>
      <use x="633.837891" xlink:href="#ArialMT-73"/>
     </g>
    </g>
   </g>
  </g>
 </g>
 <defs>
  <clipPath id="p46042c3b1c">
   <rect height="458.4888" width="652.86" x="105.3" y="71.4528"/>
  </clipPath>
 </defs>
</svg>
