<?xml version="1.0" encoding="utf-8" standalone="no"?>
<!DOCTYPE svg PUBLIC "-//W3C//DTD SVG 1.1//EN"
  "http://www.w3.org/Graphics/SVG/1.1/DTD/svg11.dtd">
<svg height="595.44pt" version="1.1" viewBox="0 0 842.4 595.44" width="842.4pt" xmlns="http://www.w3.org/2000/svg" xmlns:xlink="http://www.w3.org/1999/xlink">
 <metadata>
  <rdf:RDF xmlns:cc="http://creativecommons.org/ns#" xmlns:dc="http://purl.org/dc/elements/1.1/" xmlns:rdf="http://www.w3.org/1999/02/22-rdf-syntax-ns#">
   <cc:Work>
    <dc:type rdf:resource="http://purl.org/dc/dcmitype/StillImage"/>
    <dc:date>2021-06-01T00:54:08.248141</dc:date>
    <dc:format>image/svg+xml</dc:format>
    <dc:creator>
     <cc:Agent>
      <dc:title>Matplotlib v3.4.1, https://matplotlib.org/</dc:title>
     </cc:Agent>
    </dc:creator>
   </cc:Work>
  </rdf:RDF>
 </metadata>
 <defs>
  <style type="text/css">*{stroke-linecap:butt;stroke-linejoin:round;}</style>
 </defs>
 <g id="figure_1">
  <g id="patch_1">
   <path d="M 0 595.44 
L 842.4 595.44 
L 842.4 0 
L 0 0 
z
" style="fill:#ffffff;"/>
  </g>
  <g id="axes_1">
   <g id="patch_2">
    <path d="M 105.3 529.9416 
L 758.16 529.9416 
L 758.16 71.4528 
L 105.3 71.4528 
z
" style="fill:#ffffff;"/>
   </g>
   <g id="matplotlib.axis_1">
    <g id="xtick_1">
     <g id="text_1">
      <!-- 0 -->
      <g style="fill:#262626;" transform="translate(131.916939 547.315194)scale(0.11 -0.11)">
       <defs>
        <path d="M 266 2259 
Q 266 3072 433 3567 
Q 600 4063 929 4331 
Q 1259 4600 1759 4600 
Q 2128 4600 2406 4451 
Q 2684 4303 2865 4023 
Q 3047 3744 3150 3342 
Q 3253 2941 3253 2259 
Q 3253 1453 3087 958 
Q 2922 463 2592 192 
Q 2263 -78 1759 -78 
Q 1097 -78 719 397 
Q 266 969 266 2259 
z
M 844 2259 
Q 844 1131 1108 757 
Q 1372 384 1759 384 
Q 2147 384 2411 759 
Q 2675 1134 2675 2259 
Q 2675 3391 2411 3762 
Q 2147 4134 1753 4134 
Q 1366 4134 1134 3806 
Q 844 3388 844 2259 
z
" id="ArialMT-30" transform="scale(0.015625)"/>
       </defs>
       <use xlink:href="#ArialMT-30"/>
      </g>
     </g>
    </g>
    <g id="xtick_2">
     <g id="text_2">
      <!-- 25 -->
      <g style="fill:#262626;" transform="translate(201.950676 547.315194)scale(0.11 -0.11)">
       <defs>
        <path d="M 3222 541 
L 3222 0 
L 194 0 
Q 188 203 259 391 
Q 375 700 629 1000 
Q 884 1300 1366 1694 
Q 2113 2306 2375 2664 
Q 2638 3022 2638 3341 
Q 2638 3675 2398 3904 
Q 2159 4134 1775 4134 
Q 1369 4134 1125 3890 
Q 881 3647 878 3216 
L 300 3275 
Q 359 3922 746 4261 
Q 1134 4600 1788 4600 
Q 2447 4600 2831 4234 
Q 3216 3869 3216 3328 
Q 3216 3053 3103 2787 
Q 2991 2522 2730 2228 
Q 2469 1934 1863 1422 
Q 1356 997 1212 845 
Q 1069 694 975 541 
L 3222 541 
z
" id="ArialMT-32" transform="scale(0.015625)"/>
        <path d="M 266 1200 
L 856 1250 
Q 922 819 1161 601 
Q 1400 384 1738 384 
Q 2144 384 2425 690 
Q 2706 997 2706 1503 
Q 2706 1984 2436 2262 
Q 2166 2541 1728 2541 
Q 1456 2541 1237 2417 
Q 1019 2294 894 2097 
L 366 2166 
L 809 4519 
L 3088 4519 
L 3088 3981 
L 1259 3981 
L 1013 2750 
Q 1425 3038 1878 3038 
Q 2478 3038 2890 2622 
Q 3303 2206 3303 1553 
Q 3303 931 2941 478 
Q 2500 -78 1738 -78 
Q 1113 -78 717 272 
Q 322 622 266 1200 
z
" id="ArialMT-35" transform="scale(0.015625)"/>
       </defs>
       <use xlink:href="#ArialMT-32"/>
       <use x="55.615234" xlink:href="#ArialMT-35"/>
      </g>
     </g>
    </g>
    <g id="xtick_3">
     <g id="text_3">
      <!-- 50 -->
      <g style="fill:#262626;" transform="translate(275.042928 547.315194)scale(0.11 -0.11)">
       <use xlink:href="#ArialMT-35"/>
       <use x="55.615234" xlink:href="#ArialMT-30"/>
      </g>
     </g>
    </g>
    <g id="xtick_4">
     <g id="text_4">
      <!-- 75 -->
      <g style="fill:#262626;" transform="translate(348.135181 547.315194)scale(0.11 -0.11)">
       <defs>
        <path d="M 303 3981 
L 303 4522 
L 3269 4522 
L 3269 4084 
Q 2831 3619 2401 2847 
Q 1972 2075 1738 1259 
Q 1569 684 1522 0 
L 944 0 
Q 953 541 1156 1306 
Q 1359 2072 1739 2783 
Q 2119 3494 2547 3981 
L 303 3981 
z
" id="ArialMT-37" transform="scale(0.015625)"/>
       </defs>
       <use xlink:href="#ArialMT-37"/>
       <use x="55.615234" xlink:href="#ArialMT-35"/>
      </g>
     </g>
    </g>
    <g id="xtick_5">
     <g id="text_5">
      <!-- 100 -->
      <g style="fill:#262626;" transform="translate(418.168918 547.315194)scale(0.11 -0.11)">
       <defs>
        <path d="M 2384 0 
L 1822 0 
L 1822 3584 
Q 1619 3391 1289 3197 
Q 959 3003 697 2906 
L 697 3450 
Q 1169 3672 1522 3987 
Q 1875 4303 2022 4600 
L 2384 4600 
L 2384 0 
z
" id="ArialMT-31" transform="scale(0.015625)"/>
       </defs>
       <use xlink:href="#ArialMT-31"/>
       <use x="55.615234" xlink:href="#ArialMT-30"/>
       <use x="111.230469" xlink:href="#ArialMT-30"/>
      </g>
     </g>
    </g>
    <g id="xtick_6">
     <g id="text_6">
      <!-- 125 -->
      <g style="fill:#262626;" transform="translate(491.261171 547.315194)scale(0.11 -0.11)">
       <use xlink:href="#ArialMT-31"/>
       <use x="55.615234" xlink:href="#ArialMT-32"/>
       <use x="111.230469" xlink:href="#ArialMT-35"/>
      </g>
     </g>
    </g>
    <g id="xtick_7">
     <g id="text_7">
      <!-- 150 -->
      <g style="fill:#262626;" transform="translate(564.353423 547.315194)scale(0.11 -0.11)">
       <use xlink:href="#ArialMT-31"/>
       <use x="55.615234" xlink:href="#ArialMT-35"/>
       <use x="111.230469" xlink:href="#ArialMT-30"/>
      </g>
     </g>
    </g>
    <g id="xtick_8">
     <g id="text_8">
      <!-- 175 -->
      <g style="fill:#262626;" transform="translate(637.445676 547.315194)scale(0.11 -0.11)">
       <use xlink:href="#ArialMT-31"/>
       <use x="55.615234" xlink:href="#ArialMT-37"/>
       <use x="111.230469" xlink:href="#ArialMT-35"/>
      </g>
     </g>
    </g>
    <g id="xtick_9">
     <g id="text_9">
      <!-- 200 -->
      <g style="fill:#262626;" transform="translate(710.537928 547.315194)scale(0.11 -0.11)">
       <use xlink:href="#ArialMT-32"/>
       <use x="55.615234" xlink:href="#ArialMT-30"/>
       <use x="111.230469" xlink:href="#ArialMT-30"/>
      </g>
     </g>
    </g>
   </g>
   <g id="matplotlib.axis_2">
    <g id="ytick_1">
     <g id="text_10">
      <!-- −25 -->
      <g style="fill:#262626;" transform="translate(77.14125 533.878397)scale(0.11 -0.11)">
       <defs>
        <path d="M 3381 1997 
L 356 1997 
L 356 2522 
L 3381 2522 
L 3381 1997 
z
" id="ArialMT-2212" transform="scale(0.015625)"/>
       </defs>
       <use xlink:href="#ArialMT-2212"/>
       <use x="58.398438" xlink:href="#ArialMT-32"/>
       <use x="114.013672" xlink:href="#ArialMT-35"/>
      </g>
     </g>
    </g>
    <g id="ytick_2">
     <g id="text_11">
      <!-- −20 -->
      <g style="fill:#262626;" transform="translate(77.14125 442.180637)scale(0.11 -0.11)">
       <use xlink:href="#ArialMT-2212"/>
       <use x="58.398438" xlink:href="#ArialMT-32"/>
       <use x="114.013672" xlink:href="#ArialMT-30"/>
      </g>
     </g>
    </g>
    <g id="ytick_3">
     <g id="text_12">
      <!-- −15 -->
      <g style="fill:#262626;" transform="translate(77.14125 350.482877)scale(0.11 -0.11)">
       <use xlink:href="#ArialMT-2212"/>
       <use x="58.398438" xlink:href="#ArialMT-31"/>
       <use x="114.013672" xlink:href="#ArialMT-35"/>
      </g>
     </g>
    </g>
    <g id="ytick_4">
     <g id="text_13">
      <!-- −10 -->
      <g style="fill:#262626;" transform="translate(77.14125 258.785117)scale(0.11 -0.11)">
       <use xlink:href="#ArialMT-2212"/>
       <use x="58.398438" xlink:href="#ArialMT-31"/>
       <use x="114.013672" xlink:href="#ArialMT-30"/>
      </g>
     </g>
    </g>
    <g id="ytick_5">
     <g id="text_14">
      <!-- −5 -->
      <g style="fill:#262626;" transform="translate(83.258281 167.087357)scale(0.11 -0.11)">
       <use xlink:href="#ArialMT-2212"/>
       <use x="58.398438" xlink:href="#ArialMT-35"/>
      </g>
     </g>
    </g>
    <g id="ytick_6">
     <g id="text_15">
      <!-- 0 -->
      <g style="fill:#262626;" transform="translate(89.682969 75.389597)scale(0.11 -0.11)">
       <use xlink:href="#ArialMT-30"/>
      </g>
     </g>
    </g>
   </g>
   <g id="line2d_1">
    <path clip-path="url(#p8d7bd1c033)" d="M 134.975455 379.386243 
L 137.899145 377.733547 
L 140.822835 376.913547 
L 143.746525 374.999831 
L 149.593905 379.741674 
L 152.517595 376.161304 
L 155.441285 378.451649 
L 158.364975 380.159579 
L 161.288665 375.745113 
L 164.212356 381.788909 
L 167.136046 383.643334 
L 170.059736 408.040603 
L 172.983426 415.557228 
L 175.907116 430.512403 
L 178.830806 465.206817 
L 181.754496 521.277774 
L 184.678186 440.328538 
L 187.601876 381.032853 
L 190.525567 476.240917 
L 193.449257 442.4769 
L 196.372947 422.54062 
L 199.296637 461.848604 
L 202.220327 348.996336 
L 205.144017 365.371468 
L 208.067707 537.431186 
L 210.991397 515.484224 
L 213.915087 484.034199 
L 216.838777 462.018187 
L 219.762468 490.35591 
L 222.686158 456.427661 
L 225.609848 402.843077 
L 228.533538 386.092453 
L 231.457228 481.58424 
L 234.380918 379.058761 
L 237.304608 475.760013 
L 240.228298 469.67732 
L 243.151988 461.675279 
L 246.075678 412.032477 
L 248.999369 392.380478 
L 251.923059 460.229979 
L 254.846749 452.30115 
L 257.770439 445.722932 
L 260.694129 403.412585 
L 263.617819 513.118323 
L 266.541509 413.136618 
L 269.465199 420.139283 
L 272.388889 425.529304 
L 275.312579 438.113925 
L 278.23627 453.445798 
L 281.15996 434.117784 
L 284.08365 390.636415 
L 287.00734 395.012123 
L 289.93103 454.001699 
L 292.85472 409.907587 
L 295.77841 387.129118 
L 298.7021 448.458956 
L 301.62579 424.248514 
L 304.549481 397.905452 
L 307.473171 374.297539 
L 310.396861 357.514576 
L 313.320551 326.186735 
L 316.244241 452.409098 
L 319.167931 451.379254 
L 322.091621 503.677837 
L 325.015311 428.546357 
L 327.939001 442.607515 
L 330.862691 463.228038 
L 333.786382 432.235969 
L 336.710072 439.779284 
L 339.633762 494.199328 
L 342.557452 478.349752 
L 345.481142 412.91509 
L 348.404832 393.00459 
L 351.328522 403.950227 
L 354.252212 459.966125 
L 357.175902 429.895602 
L 360.099592 422.611174 
L 363.023283 519.051931 
L 365.946973 453.730989 
L 368.870663 410.104419 
L 371.794353 442.935976 
L 374.718043 527.975903 
L 377.641733 576.830923 
L 380.565423 527.703375 
L 383.489113 459.949789 
L 386.412803 366.181323 
L 389.336494 379.166289 
L 392.260184 428.661126 
L 395.183874 486.081608 
L 398.107564 484.251809 
L 401.031254 468.351826 
L 403.954944 461.342095 
L 406.878634 446.980215 
L 409.802324 402.892889 
L 412.726014 383.712559 
L 415.649704 449.756116 
L 418.573395 427.729856 
L 421.497085 472.483724 
L 424.420775 556.882539 
L 427.344465 482.319203 
L 430.268155 514.179264 
L 433.191845 502.552078 
L 436.115535 409.104972 
L 439.039225 450.338952 
L 441.962915 528.387862 
L 444.886605 515.830805 
L 447.810296 431.251214 
L 450.733986 389.939335 
L 453.657676 485.649956 
L 456.581366 431.342827 
L 459.505056 451.239335 
L 462.428746 385.740765 
L 465.352436 425.629242 
L 468.276126 446.860723 
L 471.199816 398.624359 
L 474.123506 389.932654 
L 477.047197 375.804824 
L 479.970887 353.657865 
L 482.894577 462.717471 
L 485.818267 451.400522 
L 488.741957 453.61685 
L 491.665647 407.474803 
L 494.589337 342.565068 
L 497.513027 431.618084 
L 500.436717 385.402649 
L 503.360408 370.835471 
L 506.284098 457.054152 
L 509.207788 473.469738 
L 512.131478 473.210397 
L 515.055168 460.781962 
L 517.978858 379.5737 
L 520.902548 431.062428 
L 523.826238 471.994985 
L 526.749928 445.620545 
L 529.673618 484.386516 
L 532.597309 500.280972 
L 535.520999 442.819004 
L 538.444689 427.15671 
L 541.368379 492.272284 
L 544.292069 504.096826 
L 547.215759 403.835457 
L 550.139449 413.154843 
L 553.063139 327.443301 
L 555.986829 461.164257 
L 558.910519 464.816511 
L 561.83421 469.049781 
L 564.7579 455.534344 
L 567.68159 382.356388 
L 570.60528 405.305069 
L 573.52897 452.038696 
L 576.45266 490.528151 
L 579.37635 526.333946 
L 582.30004 522.116872 
L 585.22373 476.302972 
L 588.147421 451.06447 
L 591.071111 423.389512 
L 593.994801 409.895903 
L 596.918491 341.33248 
L 599.842181 380.246364 
L 602.765871 443.346711 
L 605.689561 424.262016 
L 608.613251 474.594622 
L 611.536941 567.075618 
L 614.460631 550.403069 
L 617.384322 433.387508 
L 620.308012 447.261243 
L 623.231702 466.179223 
L 626.155392 487.351659 
L 629.079082 464.351628 
L 632.002772 393.769986 
L 634.926462 436.108736 
L 637.850152 520.208297 
L 640.773842 456.538373 
L 643.697532 351.355679 
L 646.621223 347.386805 
L 649.544913 416.763126 
L 652.468603 545.816082 
L 655.392293 511.99078 
L 658.315983 433.87107 
L 661.239673 537.748978 
L 664.163363 489.01366 
L 667.087053 529.281144 
L 670.010743 502.651526 
L 672.934433 453.454228 
L 675.858124 480.308977 
L 678.781814 437.258945 
L 681.705504 482.587044 
L 684.629194 512.488929 
L 687.552884 462.129178 
L 690.476574 557.98766 
L 693.400264 469.665427 
L 696.323954 458.44198 
L 699.247644 436.476689 
L 702.171335 410.143981 
L 705.095025 404.607254 
L 708.018715 399.966643 
L 710.942405 397.494752 
L 713.866095 398.61411 
L 716.789785 395.195138 
L 719.713475 397.94267 
L 722.637165 394.243894 
L 725.560855 399.490986 
L 728.484545 396.213333 
L 728.484545 396.213333 
" style="fill:none;stroke:#4c72b0;stroke-linecap:round;stroke-width:1.5;"/>
   </g>
   <g id="line2d_2">
    <path clip-path="url(#p8d7bd1c033)" d="M 134.975455 381.127403 
L 137.899145 382.356143 
L 140.822835 383.019082 
L 143.746525 381.149371 
L 146.670215 383.204406 
L 149.593905 386.564682 
L 152.517595 382.32599 
L 155.441285 382.807559 
L 158.364975 382.501519 
L 161.288665 377.355554 
L 164.212356 379.048232 
L 167.136046 375.573641 
L 170.059736 389.31991 
L 172.983426 389.69486 
L 175.907116 407.47204 
L 178.830806 447.36265 
L 181.754496 490.089782 
L 184.678186 424.0726 
L 187.601876 338.393975 
L 190.525567 456.77907 
L 193.449257 419.260692 
L 196.372947 405.358413 
L 199.296637 433.551179 
L 202.220327 352.710819 
L 205.144017 386.282989 
L 208.067707 541.69097 
L 210.991397 543.322469 
L 213.915087 473.269303 
L 216.838777 475.317203 
L 219.762468 484.18937 
L 222.686158 456.340841 
L 225.609848 391.33178 
L 228.533538 365.626577 
L 231.457228 452.926871 
L 234.380918 342.597722 
L 237.304608 443.00758 
L 240.228298 447.886545 
L 243.151988 445.133345 
L 246.075678 403.486428 
L 248.999369 413.594155 
L 251.923059 458.761662 
L 254.846749 449.753633 
L 257.770439 442.934857 
L 260.694129 405.394198 
L 263.617819 513.402954 
L 266.541509 414.629176 
L 269.465199 422.524424 
L 272.388889 437.926152 
L 275.312579 446.654552 
L 278.23627 450.22023 
L 281.15996 438.481913 
L 284.08365 382.023344 
L 287.00734 392.625792 
L 289.93103 465.721546 
L 292.85472 421.815591 
L 295.77841 373.541063 
L 298.7021 443.866967 
L 301.62579 417.512641 
L 304.549481 393.645982 
L 307.473171 380.874918 
L 310.396861 339.318826 
L 313.320551 329.440165 
L 316.244241 454.881724 
L 319.167931 480.388032 
L 322.091621 513.771118 
L 325.015311 434.607398 
L 327.939001 443.664538 
L 330.862691 438.202319 
L 333.786382 399.012741 
L 339.633762 501.402848 
L 342.557452 483.003445 
L 345.481142 434.259557 
L 348.404832 423.031528 
L 351.328522 473.805371 
L 354.252212 436.428277 
L 357.175902 371.688912 
L 360.099592 317.822529 
L 363.023283 349.147851 
L 365.946973 356.772652 
L 368.870663 288.08101 
L 371.794353 306.706908 
L 377.641733 452.934846 
L 380.565423 467.729429 
L 383.489113 379.885686 
L 386.412803 374.902062 
L 389.336494 380.269311 
L 392.260184 413.807883 
L 395.183874 470.485007 
L 398.107564 449.169888 
L 401.031254 437.768043 
L 403.954944 464.236544 
L 406.878634 409.663252 
L 409.802324 388.959232 
L 412.726014 405.692821 
L 415.649704 450.651532 
L 418.573395 434.22066 
L 421.497085 484.878124 
L 424.420775 523.368209 
L 427.344465 424.575227 
L 430.268155 451.663571 
L 433.191845 445.922527 
L 436.115535 377.965778 
L 439.039225 454.977674 
L 441.962915 523.274497 
L 444.886605 466.142145 
L 447.810296 398.212925 
L 450.733986 430.424849 
L 453.657676 490.764755 
L 456.581366 456.428326 
L 459.505056 446.808079 
L 462.428746 383.898408 
L 465.352436 424.8565 
L 468.276126 432.168702 
L 471.199816 411.445514 
L 474.123506 379.423741 
L 477.047197 397.783931 
L 479.970887 334.563674 
L 482.894577 449.105455 
L 485.818267 463.035683 
L 488.741957 460.563127 
L 491.665647 414.793792 
L 494.589337 338.765409 
L 497.513027 424.661872 
L 500.436717 384.884456 
L 503.360408 369.991791 
L 506.284098 467.118154 
L 509.207788 485.504789 
L 512.131478 463.778167 
L 515.055168 462.847071 
L 517.978858 381.735424 
L 520.902548 439.038024 
L 523.826238 475.967444 
L 526.749928 457.961776 
L 529.673618 497.675807 
L 532.597309 497.600461 
L 535.520999 437.580831 
L 538.444689 410.8688 
L 541.368379 432.634005 
L 544.292069 497.822443 
L 547.215759 370.570464 
L 550.139449 379.760983 
L 553.063139 296.958931 
L 555.986829 324.231148 
L 558.910519 286.962562 
L 561.83421 278.145139 
L 564.7579 338.77606 
L 567.68159 327.367727 
L 570.60528 426.391209 
L 573.52897 349.21601 
L 576.45266 383.28528 
L 579.37635 406.055983 
L 582.30004 339.903778 
L 585.22373 424.9783 
L 588.147421 378.87788 
L 591.071111 382.961575 
L 593.994801 385.844026 
L 596.918491 296.075793 
L 599.842181 387.862052 
L 602.765871 415.117986 
L 605.689561 434.009521 
L 608.613251 518.680899 
L 611.536941 559.452374 
L 614.460631 554.601953 
L 617.384322 481.318672 
L 620.308012 454.941819 
L 623.231702 449.187867 
L 626.155392 498.382227 
L 629.079082 449.461271 
L 632.002772 409.177906 
L 634.926462 454.667017 
L 637.850152 510.810977 
L 640.773842 466.511812 
L 643.697532 313.354911 
L 646.621223 328.562921 
L 649.544913 419.03042 
L 652.468603 529.23567 
L 655.392293 493.812135 
L 658.315983 403.132921 
L 661.239673 521.031025 
L 664.163363 462.117705 
L 667.087053 516.259869 
L 670.010743 496.281613 
L 672.934433 444.200955 
L 675.858124 478.066414 
L 678.781814 440.972693 
L 681.705504 471.772792 
L 684.629194 501.106603 
L 687.552884 430.374582 
L 690.476574 528.532644 
L 693.400264 476.517434 
L 696.323954 460.087645 
L 699.247644 431.185697 
L 702.171335 394.845198 
L 705.095025 388.43114 
L 708.018715 388.490082 
L 710.942405 385.520706 
L 713.866095 383.933213 
L 716.789785 382.00463 
L 719.713475 384.918282 
L 722.637165 378.967813 
L 725.560855 385.381486 
L 728.484545 381.357816 
L 728.484545 381.357816 
" style="fill:none;stroke:#dd8452;stroke-dasharray:6,2.25;stroke-dashoffset:0;stroke-width:1.5;"/>
   </g>
   <g id="line2d_3">
    <path clip-path="url(#p8d7bd1c033)" d="M 134.975455 387.261307 
L 137.899145 388.779401 
L 140.822835 389.058051 
L 143.746525 384.617 
L 146.670215 391.186334 
L 149.593905 395.119056 
L 152.517595 390.668281 
L 155.441285 409.061877 
L 158.364975 412.229694 
L 161.288665 395.581351 
L 164.212356 399.006724 
L 167.136046 391.565936 
L 170.059736 394.522089 
L 172.983426 404.647621 
L 175.907116 419.171634 
L 178.830806 447.437018 
L 181.754496 482.364362 
L 184.678186 372.152955 
L 187.601876 323.981846 
L 190.525567 361.727575 
L 193.449257 374.993395 
L 196.372947 337.40427 
L 199.296637 382.805985 
L 202.220327 370.357471 
L 205.144017 416.539744 
L 208.067707 315.501734 
L 210.991397 392.096022 
L 213.915087 405.570182 
L 216.838777 426.016434 
L 219.762468 461.739712 
L 222.686158 431.300186 
L 225.609848 316.408851 
L 228.533538 330.377627 
L 231.457228 398.183787 
L 234.380918 333.831999 
L 237.304608 417.406162 
L 240.228298 463.091861 
L 243.151988 469.944357 
L 246.075678 377.214654 
L 248.999369 423.80322 
L 251.923059 382.961086 
L 254.846749 459.128846 
L 257.770439 436.012086 
L 260.694129 422.4 
L 263.617819 489.096178 
L 266.541509 425.056725 
L 269.465199 449.878546 
L 272.388889 424.086347 
L 275.312579 416.910672 
L 278.23627 402.695672 
L 281.15996 315.636249 
L 284.08365 280.515098 
L 287.00734 289.118777 
L 289.93103 341.532898 
L 292.85472 325.785008 
L 295.77841 372.653448 
L 298.7021 445.374322 
L 301.62579 462.127884 
L 304.549481 409.17007 
L 307.473171 388.660224 
L 310.396861 381.247979 
L 313.320551 387.079691 
L 316.244241 488.878113 
L 319.167931 503.929972 
L 322.091621 542.50086 
L 325.015311 464.986443 
L 327.939001 457.988675 
L 330.862691 471.520377 
L 333.786382 422.912561 
L 336.710072 452.548458 
L 339.633762 513.118567 
L 342.557452 521.805376 
L 345.481142 479.883341 
L 348.404832 432.340979 
L 351.328522 501.205526 
L 354.252212 504.268088 
L 357.175902 525.111538 
L 360.099592 418.968715 
L 363.023283 469.9396 
L 365.946973 398.997735 
L 368.870663 384.604687 
L 371.794353 331.1206 
L 374.718043 428.927708 
L 377.641733 469.933828 
L 380.565423 421.238807 
L 383.489113 402.580133 
L 386.412803 369.575005 
L 389.336494 416.527711 
L 392.260184 435.054196 
L 395.183874 487.49826 
L 398.107564 496.890683 
L 401.031254 472.837371 
L 403.954944 478.241349 
L 406.878634 444.19263 
L 409.802324 435.662637 
L 412.726014 383.027443 
L 415.649704 366.791548 
L 418.573395 386.367395 
L 421.497085 329.414822 
L 424.420775 297.536712 
L 427.344465 307.933513 
L 430.268155 293.417039 
L 433.191845 281.694446 
L 436.115535 286.36946 
L 439.039225 397.093078 
L 441.962915 495.385812 
L 444.886605 412.192895 
L 447.810296 472.966902 
L 450.733986 434.593476 
L 453.657676 488.33435 
L 456.581366 502.77609 
L 459.505056 502.128331 
L 462.428746 388.922328 
L 465.352436 376.655081 
L 468.276126 423.707025 
L 471.199816 384.565195 
L 474.123506 390.924054 
L 477.047197 375.551814 
L 479.970887 376.425752 
L 482.894577 430.528879 
L 485.818267 433.996578 
L 488.741957 420.085939 
L 491.665647 409.900416 
L 494.589337 323.539717 
L 497.513027 341.478766 
L 500.436717 319.158062 
L 503.360408 393.438201 
L 506.284098 437.729705 
L 509.207788 346.53751 
L 512.131478 320.068922 
L 515.055168 379.848537 
L 517.978858 375.319652 
L 520.902548 432.405866 
L 523.826238 494.677923 
L 526.749928 505.359287 
L 529.673618 491.736917 
L 532.597309 507.737956 
L 535.520999 490.891137 
L 538.444689 444.816007 
L 541.368379 451.389748 
L 544.292069 473.817858 
L 547.215759 327.986312 
L 550.139449 363.506444 
L 553.063139 316.688078 
L 555.986829 325.752214 
L 558.910519 392.698656 
L 561.83421 379.444065 
L 564.7579 341.649276 
L 567.68159 333.396376 
L 570.60528 326.62694 
L 573.52897 444.35854 
L 576.45266 448.244949 
L 579.37635 494.430266 
L 582.30004 471.909914 
L 585.22373 483.251383 
L 588.147421 421.706628 
L 591.071111 430.747538 
L 593.994801 404.302579 
L 596.918491 328.992702 
L 599.842181 414.422795 
L 602.765871 470.920926 
L 605.689561 455.941266 
L 608.613251 486.542154 
L 611.536941 532.519795 
L 614.460631 535.338897 
L 617.384322 434.980598 
L 620.308012 390.900408 
L 623.231702 447.201008 
L 626.155392 486.453375 
L 629.079082 417.719792 
L 632.002772 442.589885 
L 634.926462 492.212958 
L 637.850152 424.344569 
L 640.773842 403.975972 
L 643.697532 373.309146 
L 646.621223 346.04459 
L 649.544913 433.757071 
L 652.468603 545.577519 
L 655.392293 479.082861 
L 658.315983 429.62185 
L 661.239673 522.600749 
L 664.163363 466.970259 
L 667.087053 525.98817 
L 670.010743 486.507804 
L 672.934433 403.454106 
L 675.858124 482.950836 
L 678.781814 441.206499 
L 681.705504 473.800648 
L 684.629194 501.116817 
L 687.552884 442.695245 
L 690.476574 525.992542 
L 693.400264 485.507413 
L 696.323954 467.077088 
L 699.247644 438.453055 
L 702.171335 401.886551 
L 705.095025 389.891307 
L 708.018715 391.85564 
L 710.942405 394.689118 
L 713.866095 392.596164 
L 716.789785 388.761981 
L 719.713475 389.668345 
L 722.637165 386.076992 
L 725.560855 388.04888 
L 728.484545 377.957138 
L 728.484545 377.957138 
" style="fill:none;stroke:#55a868;stroke-dasharray:1.5,1.5;stroke-dashoffset:0;stroke-width:1.5;"/>
   </g>
   <g id="line2d_4">
    <path clip-path="url(#p8d7bd1c033)" d="M 134.975455 381.226431 
L 137.899145 382.362894 
L 140.822835 383.165263 
L 143.746525 381.187219 
L 146.670215 383.449475 
L 149.593905 386.746717 
L 152.517595 382.589354 
L 155.441285 383.240155 
L 158.364975 383.059554 
L 161.288665 377.997505 
L 164.212356 379.716523 
L 167.136046 376.330817 
L 170.059736 390.091812 
L 172.983426 390.358989 
L 175.907116 408.119308 
L 178.830806 448.089848 
L 181.754496 491.603783 
L 184.678186 425.565473 
L 187.601876 339.798489 
L 190.525567 458.3022 
L 193.449257 421.299987 
L 196.372947 404.822031 
L 199.296637 434.206773 
L 202.220327 353.259828 
L 205.144017 385.589372 
L 208.067707 548.000158 
L 210.991397 534.586094 
L 213.915087 480.594518 
L 216.838777 468.856936 
L 219.762468 486.322445 
L 222.686158 457.061847 
L 225.609848 389.411068 
L 228.533538 365.672086 
L 231.457228 455.495586 
L 234.380918 344.026004 
L 237.304608 447.874581 
L 240.228298 451.302648 
L 243.151988 447.429532 
L 246.075678 404.348508 
L 248.999369 412.223642 
L 251.923059 457.070243 
L 257.770439 437.818379 
L 260.694129 401.275207 
L 263.617819 510.564124 
L 266.541509 407.119092 
L 269.465199 422.003958 
L 275.312579 449.86221 
L 278.23627 450.6735 
L 281.15996 430.817183 
L 284.08365 376.435792 
L 287.00734 393.997565 
L 289.93103 466.163797 
L 292.85472 415.702465 
L 295.77841 376.39441 
L 298.7021 445.031099 
L 301.62579 418.585265 
L 304.549481 396.873019 
L 307.473171 381.446105 
L 310.396861 342.856171 
L 313.320551 329.203718 
L 316.244241 460.075192 
L 319.167931 484.328135 
L 322.091621 535.706466 
L 325.015311 434.525614 
L 327.939001 442.902081 
L 330.862691 461.399357 
L 333.786382 412.681984 
L 336.710072 465.843171 
L 339.633762 527.670284 
L 342.557452 483.429046 
L 345.481142 416.44215 
L 348.404832 365.127763 
L 351.328522 465.300108 
L 354.252212 511.972485 
L 357.175902 371.580369 
L 360.099592 360.887794 
L 363.023283 497.687456 
L 365.946973 368.832346 
L 368.870663 306.126661 
L 371.794353 333.127993 
L 374.718043 419.105102 
L 377.641733 472.781823 
L 380.565423 480.711771 
L 383.489113 386.311322 
L 386.412803 382.538563 
L 389.336494 386.165806 
L 392.260184 415.755844 
L 395.183874 474.70348 
L 398.107564 453.477035 
L 401.031254 443.433321 
L 403.954944 466.599227 
L 406.878634 415.348853 
L 409.802324 392.230414 
L 412.726014 405.663473 
L 415.649704 454.354891 
L 418.573395 435.387625 
L 421.497085 491.651321 
L 424.420775 531.251388 
L 427.344465 427.728911 
L 430.268155 450.908285 
L 433.191845 444.028994 
L 436.115535 378.256706 
L 439.039225 455.666988 
L 441.962915 525.681745 
L 444.886605 466.299764 
L 447.810296 396.71554 
L 450.733986 426.460539 
L 453.657676 494.205065 
L 456.581366 455.540711 
L 459.505056 444.093077 
L 462.428746 382.716541 
L 465.352436 432.203542 
L 468.276126 432.622777 
L 471.199816 409.577656 
L 474.123506 382.637976 
L 477.047197 402.794 
L 479.970887 332.538948 
L 482.894577 446.070212 
L 485.818267 461.019615 
L 488.741957 461.593286 
L 491.665647 414.020805 
L 494.589337 338.99103 
L 497.513027 424.818127 
L 500.436717 381.807413 
L 503.360408 366.384941 
L 506.284098 465.295001 
L 509.207788 483.91768 
L 512.131478 462.567827 
L 515.055168 462.551946 
L 517.978858 380.880585 
L 520.902548 438.874633 
L 523.826238 474.488039 
L 526.749928 456.830525 
L 529.673618 497.870611 
L 532.597309 497.241392 
L 535.520999 436.677789 
L 538.444689 413.893304 
L 541.368379 435.342011 
L 544.292069 498.018856 
L 547.215759 370.652771 
L 550.139449 380.474923 
L 553.063139 295.874728 
L 555.986829 325.757077 
L 558.910519 286.510219 
L 561.83421 280.899877 
L 564.7579 338.883956 
L 567.68159 326.442421 
L 570.60528 424.097926 
L 573.52897 251.971344 
L 576.45266 392.458414 
L 579.37635 421.336751 
L 582.30004 385.4016 
L 585.22373 479.203542 
L 588.147421 364.9671 
L 591.071111 350.850062 
L 593.994801 390.439233 
L 596.918491 313.433109 
L 599.842181 369.194528 
L 602.765871 433.687845 
L 605.689561 441.495923 
L 608.613251 502.689829 
L 611.536941 549.908663 
L 614.460631 558.658925 
L 617.384322 475.07857 
L 620.308012 450.695852 
L 623.231702 455.687206 
L 626.155392 493.979514 
L 629.079082 449.007301 
L 632.002772 407.741 
L 634.926462 454.300253 
L 637.850152 507.723824 
L 640.773842 465.178168 
L 643.697532 309.451485 
L 646.621223 326.166342 
L 649.544913 413.436676 
L 652.468603 528.123379 
L 655.392293 493.327384 
L 658.315983 401.442446 
L 661.239673 519.974037 
L 664.163363 463.034494 
L 667.087053 515.150271 
L 670.010743 497.897125 
L 672.934433 445.218486 
L 675.858124 477.196254 
L 678.781814 440.262426 
L 681.705504 469.967024 
L 684.629194 500.835439 
L 687.552884 430.742116 
L 690.476574 526.581394 
L 693.400264 474.300581 
L 696.323954 458.226679 
L 699.247644 431.523008 
L 702.171335 394.964375 
L 705.095025 388.645567 
L 708.018715 389.078514 
L 710.942405 386.993256 
L 713.866095 385.381381 
L 716.789785 383.039965 
L 719.713475 385.811774 
L 722.637165 380.106934 
L 725.560855 386.821225 
L 728.484545 382.360795 
L 728.484545 382.360795 
" style="fill:none;stroke:#c44e52;stroke-dasharray:4.5,1.875,2.25,1.875;stroke-dashoffset:0;stroke-width:1.5;"/>
   </g>
   <g id="line2d_5">
    <path clip-path="url(#p8d7bd1c033)" d="M 134.975455 383.578761 
L 137.899145 385.161148 
L 140.822835 385.593814 
L 143.746525 383.647112 
L 146.670215 386.261931 
L 149.593905 390.093036 
L 152.517595 386.352074 
L 155.441285 387.18687 
L 158.364975 387.088331 
L 161.288665 382.066404 
L 164.212356 383.435378 
L 167.136046 379.690743 
L 170.059736 392.55153 
L 172.983426 392.136493 
L 175.907116 408.755173 
L 178.830806 448.367763 
L 181.754496 500.078123 
L 184.678186 426.425489 
L 187.601876 360.044708 
L 190.525567 466.280036 
L 193.449257 431.770246 
L 196.372947 416.592739 
L 199.296637 449.326773 
L 202.220327 354.8851 
L 205.144017 377.89253 
L 208.067707 551.396359 
L 210.991397 539.803838 
L 213.915087 472.873645 
L 216.838777 464.653784 
L 219.762468 482.789648 
L 222.686158 458.895075 
L 225.609848 404.395906 
L 228.533538 373.040885 
L 231.457228 458.976193 
L 234.380918 353.191757 
L 237.304608 450.956242 
L 240.228298 451.980314 
L 243.151988 448.999641 
L 246.075678 405.616705 
L 248.999369 408.15135 
L 251.923059 464.167318 
L 254.846749 452.573014 
L 257.770439 446.567032 
L 260.694129 405.573645 
L 263.617819 513.463644 
L 266.541509 415.022595 
L 272.388889 439.120752 
L 275.312579 452.626848 
L 278.23627 460.368569 
L 281.15996 451.537329 
L 284.08365 392.574372 
L 287.00734 401.521501 
L 289.93103 472.76164 
L 292.85472 424.496977 
L 295.77841 379.802434 
L 298.7021 444.033996 
L 301.62579 417.785274 
L 307.473171 377.236832 
L 310.396861 351.275767 
L 313.320551 331.258211 
L 316.244241 458.557799 
L 319.167931 472.947803 
L 322.091621 521.718486 
L 325.015311 442.117376 
L 327.939001 435.276703 
L 330.862691 465.700243 
L 333.786382 431.265171 
L 336.710072 436.809174 
L 339.633762 511.18995 
L 342.557452 485.698683 
L 345.481142 413.427931 
L 348.404832 366.90929 
L 351.328522 404.023754 
L 354.252212 462.332727 
L 357.175902 454.727148 
L 360.099592 461.048299 
L 363.023283 546.316435 
L 365.946973 441.829317 
L 368.870663 384.726452 
L 371.794353 393.798879 
L 374.718043 491.863824 
L 377.641733 561.488345 
L 380.565423 526.097027 
L 383.489113 449.994644 
L 386.412803 378.063897 
L 389.336494 381.535969 
L 392.260184 429.514776 
L 395.183874 497.432732 
L 398.107564 467.833949 
L 401.031254 480.366659 
L 403.954944 482.411865 
L 406.878634 430.720639 
L 409.802324 397.494333 
L 412.726014 401.18251 
L 415.649704 474.065796 
L 418.573395 428.908609 
L 421.497085 493.777226 
L 424.420775 540.551149 
L 427.344465 443.45249 
L 430.268155 458.342742 
L 433.191845 454.2531 
L 436.115535 381.463455 
L 441.962915 532.469914 
L 447.810296 404.965344 
L 450.733986 423.416517 
L 453.657676 480.419724 
L 456.581366 445.871246 
L 459.505056 420.269863 
L 462.428746 366.749852 
L 465.352436 426.440496 
L 468.276126 433.193509 
L 471.199816 411.370762 
L 474.123506 385.11396 
L 477.047197 392.741051 
L 479.970887 334.467741 
L 482.894577 451.445961 
L 485.818267 462.383692 
L 488.741957 453.355235 
L 491.665647 411.745502 
L 494.589337 332.112438 
L 497.513027 422.755746 
L 500.436717 373.635894 
L 503.360408 361.312398 
L 506.284098 467.15163 
L 509.207788 490.196611 
L 512.131478 472.546408 
L 515.055168 465.022437 
L 517.978858 382.494139 
L 520.902548 441.036427 
L 523.826238 460.226621 
L 526.749928 441.023135 
L 529.673618 485.841296 
L 532.597309 472.895123 
L 535.520999 419.418347 
L 538.444689 401.220953 
L 541.368379 440.062551 
L 544.292069 502.874243 
L 547.215759 364.418038 
L 550.139449 377.783008 
L 553.063139 250.690572 
L 555.986829 381.69023 
L 558.910519 364.552711 
L 561.83421 359.164351 
L 564.7579 417.780902 
L 567.68159 375.755817 
L 570.60528 387.914137 
L 573.52897 418.921982 
L 576.45266 508.678951 
L 579.37635 475.582036 
L 582.30004 420.093424 
L 585.22373 472.22085 
L 588.147421 416.682917 
L 591.071111 381.851837 
L 593.994801 387.657874 
L 596.918491 337.59164 
L 599.842181 375.755922 
L 602.765871 440.473005 
L 605.689561 436.366013 
L 608.613251 508.530391 
L 611.536941 549.092266 
L 614.460631 558.386396 
L 617.384322 473.391173 
L 620.308012 449.760489 
L 623.231702 464.906199 
L 626.155392 492.225341 
L 629.079082 451.782853 
L 632.002772 404.253852 
L 634.926462 453.891197 
L 637.850152 489.684085 
L 640.773842 451.329793 
L 643.697532 308.286251 
L 646.621223 307.397481 
L 649.544913 397.671751 
L 652.468603 504.841269 
L 655.392293 467.797954 
L 658.315983 391.089649 
L 661.239673 504.660738 
L 664.163363 453.072807 
L 667.087053 512.831662 
L 670.010743 496.040671 
L 672.934433 455.830764 
L 675.858124 474.587871 
L 678.781814 424.927929 
L 681.705504 472.595205 
L 684.629194 496.812503 
L 687.552884 430.368496 
L 690.476574 509.684554 
L 693.400264 461.122561 
L 696.323954 451.729613 
L 699.247644 429.296536 
L 702.171335 392.004164 
L 705.095025 386.120962 
L 708.018715 387.059333 
L 710.942405 386.189277 
L 713.866095 385.745872 
L 716.789785 382.934186 
L 719.713475 384.511046 
L 722.637165 381.791742 
L 725.560855 386.390482 
L 728.484545 385.129701 
L 728.484545 385.129701 
" style="fill:none;stroke:#8172b3;stroke-dasharray:7.5,1.5,1.5,1.5;stroke-dashoffset:0;stroke-width:1.5;"/>
   </g>
   <g id="line2d_6"/>
   <g id="line2d_7"/>
   <g id="line2d_8"/>
   <g id="line2d_9"/>
   <g id="line2d_10"/>
   <g id="patch_3">
    <path d="M 105.3 529.9416 
L 105.3 71.4528 
" style="fill:none;stroke:#262626;stroke-linecap:square;stroke-linejoin:miter;stroke-width:1.25;"/>
   </g>
   <g id="patch_4">
    <path d="M 758.16 529.9416 
L 758.16 71.4528 
" style="fill:none;stroke:#262626;stroke-linecap:square;stroke-linejoin:miter;stroke-width:1.25;"/>
   </g>
   <g id="patch_5">
    <path d="M 105.3 529.9416 
L 758.16 529.9416 
" style="fill:none;stroke:#262626;stroke-linecap:square;stroke-linejoin:miter;stroke-width:1.25;"/>
   </g>
   <g id="patch_6">
    <path d="M 105.3 71.4528 
L 758.16 71.4528 
" style="fill:none;stroke:#262626;stroke-linecap:square;stroke-linejoin:miter;stroke-width:1.25;"/>
   </g>
   <g id="text_16">
    <!-- Activations for &gt;X&lt; -->
    <g style="fill:#262626;" transform="translate(381.372187 65.4528)scale(0.12 -0.12)">
     <defs>
      <path d="M -9 0 
L 1750 4581 
L 2403 4581 
L 4278 0 
L 3588 0 
L 3053 1388 
L 1138 1388 
L 634 0 
L -9 0 
z
M 1313 1881 
L 2866 1881 
L 2388 3150 
Q 2169 3728 2063 4100 
Q 1975 3659 1816 3225 
L 1313 1881 
z
" id="ArialMT-41" transform="scale(0.015625)"/>
      <path d="M 2588 1216 
L 3141 1144 
Q 3050 572 2676 248 
Q 2303 -75 1759 -75 
Q 1078 -75 664 370 
Q 250 816 250 1647 
Q 250 2184 428 2587 
Q 606 2991 970 3192 
Q 1334 3394 1763 3394 
Q 2303 3394 2647 3120 
Q 2991 2847 3088 2344 
L 2541 2259 
Q 2463 2594 2264 2762 
Q 2066 2931 1784 2931 
Q 1359 2931 1093 2626 
Q 828 2322 828 1663 
Q 828 994 1084 691 
Q 1341 388 1753 388 
Q 2084 388 2306 591 
Q 2528 794 2588 1216 
z
" id="ArialMT-63" transform="scale(0.015625)"/>
      <path d="M 1650 503 
L 1731 6 
Q 1494 -44 1306 -44 
Q 1000 -44 831 53 
Q 663 150 594 308 
Q 525 466 525 972 
L 525 2881 
L 113 2881 
L 113 3319 
L 525 3319 
L 525 4141 
L 1084 4478 
L 1084 3319 
L 1650 3319 
L 1650 2881 
L 1084 2881 
L 1084 941 
Q 1084 700 1114 631 
Q 1144 563 1211 522 
Q 1278 481 1403 481 
Q 1497 481 1650 503 
z
" id="ArialMT-74" transform="scale(0.015625)"/>
      <path d="M 425 3934 
L 425 4581 
L 988 4581 
L 988 3934 
L 425 3934 
z
M 425 0 
L 425 3319 
L 988 3319 
L 988 0 
L 425 0 
z
" id="ArialMT-69" transform="scale(0.015625)"/>
      <path d="M 1344 0 
L 81 3319 
L 675 3319 
L 1388 1331 
Q 1503 1009 1600 663 
Q 1675 925 1809 1294 
L 2547 3319 
L 3125 3319 
L 1869 0 
L 1344 0 
z
" id="ArialMT-76" transform="scale(0.015625)"/>
      <path d="M 2588 409 
Q 2275 144 1986 34 
Q 1697 -75 1366 -75 
Q 819 -75 525 192 
Q 231 459 231 875 
Q 231 1119 342 1320 
Q 453 1522 633 1644 
Q 813 1766 1038 1828 
Q 1203 1872 1538 1913 
Q 2219 1994 2541 2106 
Q 2544 2222 2544 2253 
Q 2544 2597 2384 2738 
Q 2169 2928 1744 2928 
Q 1347 2928 1158 2789 
Q 969 2650 878 2297 
L 328 2372 
Q 403 2725 575 2942 
Q 747 3159 1072 3276 
Q 1397 3394 1825 3394 
Q 2250 3394 2515 3294 
Q 2781 3194 2906 3042 
Q 3031 2891 3081 2659 
Q 3109 2516 3109 2141 
L 3109 1391 
Q 3109 606 3145 398 
Q 3181 191 3288 0 
L 2700 0 
Q 2613 175 2588 409 
z
M 2541 1666 
Q 2234 1541 1622 1453 
Q 1275 1403 1131 1340 
Q 988 1278 909 1158 
Q 831 1038 831 891 
Q 831 666 1001 516 
Q 1172 366 1500 366 
Q 1825 366 2078 508 
Q 2331 650 2450 897 
Q 2541 1088 2541 1459 
L 2541 1666 
z
" id="ArialMT-61" transform="scale(0.015625)"/>
      <path d="M 213 1659 
Q 213 2581 725 3025 
Q 1153 3394 1769 3394 
Q 2453 3394 2887 2945 
Q 3322 2497 3322 1706 
Q 3322 1066 3130 698 
Q 2938 331 2570 128 
Q 2203 -75 1769 -75 
Q 1072 -75 642 372 
Q 213 819 213 1659 
z
M 791 1659 
Q 791 1022 1069 705 
Q 1347 388 1769 388 
Q 2188 388 2466 706 
Q 2744 1025 2744 1678 
Q 2744 2294 2464 2611 
Q 2184 2928 1769 2928 
Q 1347 2928 1069 2612 
Q 791 2297 791 1659 
z
" id="ArialMT-6f" transform="scale(0.015625)"/>
      <path d="M 422 0 
L 422 3319 
L 928 3319 
L 928 2847 
Q 1294 3394 1984 3394 
Q 2284 3394 2536 3286 
Q 2788 3178 2913 3003 
Q 3038 2828 3088 2588 
Q 3119 2431 3119 2041 
L 3119 0 
L 2556 0 
L 2556 2019 
Q 2556 2363 2490 2533 
Q 2425 2703 2258 2804 
Q 2091 2906 1866 2906 
Q 1506 2906 1245 2678 
Q 984 2450 984 1813 
L 984 0 
L 422 0 
z
" id="ArialMT-6e" transform="scale(0.015625)"/>
      <path d="M 197 991 
L 753 1078 
Q 800 744 1014 566 
Q 1228 388 1613 388 
Q 2000 388 2187 545 
Q 2375 703 2375 916 
Q 2375 1106 2209 1216 
Q 2094 1291 1634 1406 
Q 1016 1563 777 1677 
Q 538 1791 414 1992 
Q 291 2194 291 2438 
Q 291 2659 392 2848 
Q 494 3038 669 3163 
Q 800 3259 1026 3326 
Q 1253 3394 1513 3394 
Q 1903 3394 2198 3281 
Q 2494 3169 2634 2976 
Q 2775 2784 2828 2463 
L 2278 2388 
Q 2241 2644 2061 2787 
Q 1881 2931 1553 2931 
Q 1166 2931 1000 2803 
Q 834 2675 834 2503 
Q 834 2394 903 2306 
Q 972 2216 1119 2156 
Q 1203 2125 1616 2013 
Q 2213 1853 2448 1751 
Q 2684 1650 2818 1456 
Q 2953 1263 2953 975 
Q 2953 694 2789 445 
Q 2625 197 2315 61 
Q 2006 -75 1616 -75 
Q 969 -75 630 194 
Q 291 463 197 991 
z
" id="ArialMT-73" transform="scale(0.015625)"/>
      <path id="ArialMT-20" transform="scale(0.015625)"/>
      <path d="M 556 0 
L 556 2881 
L 59 2881 
L 59 3319 
L 556 3319 
L 556 3672 
Q 556 4006 616 4169 
Q 697 4388 901 4523 
Q 1106 4659 1475 4659 
Q 1713 4659 2000 4603 
L 1916 4113 
Q 1741 4144 1584 4144 
Q 1328 4144 1222 4034 
Q 1116 3925 1116 3625 
L 1116 3319 
L 1763 3319 
L 1763 2881 
L 1116 2881 
L 1116 0 
L 556 0 
z
" id="ArialMT-66" transform="scale(0.015625)"/>
      <path d="M 416 0 
L 416 3319 
L 922 3319 
L 922 2816 
Q 1116 3169 1280 3281 
Q 1444 3394 1641 3394 
Q 1925 3394 2219 3213 
L 2025 2691 
Q 1819 2813 1613 2813 
Q 1428 2813 1281 2702 
Q 1134 2591 1072 2394 
Q 978 2094 978 1738 
L 978 0 
L 416 0 
z
" id="ArialMT-72" transform="scale(0.015625)"/>
      <path d="M 3384 2003 
L 350 706 
L 350 1266 
L 2753 2263 
L 350 3250 
L 350 3809 
L 3384 2528 
L 3384 2003 
z
" id="ArialMT-3e" transform="scale(0.015625)"/>
      <path d="M 28 0 
L 1800 2388 
L 238 4581 
L 959 4581 
L 1791 3406 
Q 2050 3041 2159 2844 
Q 2313 3094 2522 3366 
L 3444 4581 
L 4103 4581 
L 2494 2422 
L 4228 0 
L 3478 0 
L 2325 1634 
Q 2228 1775 2125 1941 
Q 1972 1691 1906 1597 
L 756 0 
L 28 0 
z
" id="ArialMT-58" transform="scale(0.015625)"/>
      <path d="M 350 2003 
L 350 2528 
L 3384 3809 
L 3384 3250 
L 978 2263 
L 3384 1266 
L 3384 706 
L 350 2003 
z
" id="ArialMT-3c" transform="scale(0.015625)"/>
     </defs>
     <use xlink:href="#ArialMT-41"/>
     <use x="66.699219" xlink:href="#ArialMT-63"/>
     <use x="116.699219" xlink:href="#ArialMT-74"/>
     <use x="144.482422" xlink:href="#ArialMT-69"/>
     <use x="166.699219" xlink:href="#ArialMT-76"/>
     <use x="216.699219" xlink:href="#ArialMT-61"/>
     <use x="272.314453" xlink:href="#ArialMT-74"/>
     <use x="300.097656" xlink:href="#ArialMT-69"/>
     <use x="322.314453" xlink:href="#ArialMT-6f"/>
     <use x="377.929688" xlink:href="#ArialMT-6e"/>
     <use x="433.544922" xlink:href="#ArialMT-73"/>
     <use x="483.544922" xlink:href="#ArialMT-20"/>
     <use x="511.328125" xlink:href="#ArialMT-66"/>
     <use x="539.111328" xlink:href="#ArialMT-6f"/>
     <use x="594.726562" xlink:href="#ArialMT-72"/>
     <use x="628.027344" xlink:href="#ArialMT-20"/>
     <use x="655.810547" xlink:href="#ArialMT-3e"/>
     <use x="714.208984" xlink:href="#ArialMT-58"/>
     <use x="780.908203" xlink:href="#ArialMT-3c"/>
    </g>
   </g>
   <g id="legend_1">
    <g id="patch_7">
     <path d="M 640.044062 158.514363 
L 750.46 158.514363 
Q 752.66 158.514363 752.66 156.314363 
L 752.66 79.1528 
Q 752.66 76.9528 750.46 76.9528 
L 640.044062 76.9528 
Q 637.844062 76.9528 637.844062 79.1528 
L 637.844062 156.314363 
Q 637.844062 158.514363 640.044062 158.514363 
z
" style="fill:#ffffff;opacity:0.8;stroke:#cccccc;stroke-linejoin:miter;"/>
    </g>
    <g id="line2d_11">
     <path d="M 642.244062 85.376394 
L 664.244062 85.376394 
" style="fill:none;stroke:#4c72b0;stroke-linecap:round;stroke-width:1.5;"/>
    </g>
    <g id="line2d_12"/>
    <g id="text_17">
     <!-- regular -->
     <g style="fill:#262626;" transform="translate(673.044062 89.226394)scale(0.11 -0.11)">
      <defs>
       <path d="M 2694 1069 
L 3275 997 
Q 3138 488 2766 206 
Q 2394 -75 1816 -75 
Q 1088 -75 661 373 
Q 234 822 234 1631 
Q 234 2469 665 2931 
Q 1097 3394 1784 3394 
Q 2450 3394 2872 2941 
Q 3294 2488 3294 1666 
Q 3294 1616 3291 1516 
L 816 1516 
Q 847 969 1125 678 
Q 1403 388 1819 388 
Q 2128 388 2347 550 
Q 2566 713 2694 1069 
z
M 847 1978 
L 2700 1978 
Q 2663 2397 2488 2606 
Q 2219 2931 1791 2931 
Q 1403 2931 1139 2672 
Q 875 2413 847 1978 
z
" id="ArialMT-65" transform="scale(0.015625)"/>
       <path d="M 319 -275 
L 866 -356 
Q 900 -609 1056 -725 
Q 1266 -881 1628 -881 
Q 2019 -881 2231 -725 
Q 2444 -569 2519 -288 
Q 2563 -116 2559 434 
Q 2191 0 1641 0 
Q 956 0 581 494 
Q 206 988 206 1678 
Q 206 2153 378 2554 
Q 550 2956 876 3175 
Q 1203 3394 1644 3394 
Q 2231 3394 2613 2919 
L 2613 3319 
L 3131 3319 
L 3131 450 
Q 3131 -325 2973 -648 
Q 2816 -972 2473 -1159 
Q 2131 -1347 1631 -1347 
Q 1038 -1347 672 -1080 
Q 306 -813 319 -275 
z
M 784 1719 
Q 784 1066 1043 766 
Q 1303 466 1694 466 
Q 2081 466 2343 764 
Q 2606 1063 2606 1700 
Q 2606 2309 2336 2618 
Q 2066 2928 1684 2928 
Q 1309 2928 1046 2623 
Q 784 2319 784 1719 
z
" id="ArialMT-67" transform="scale(0.015625)"/>
       <path d="M 2597 0 
L 2597 488 
Q 2209 -75 1544 -75 
Q 1250 -75 995 37 
Q 741 150 617 320 
Q 494 491 444 738 
Q 409 903 409 1263 
L 409 3319 
L 972 3319 
L 972 1478 
Q 972 1038 1006 884 
Q 1059 663 1231 536 
Q 1403 409 1656 409 
Q 1909 409 2131 539 
Q 2353 669 2445 892 
Q 2538 1116 2538 1541 
L 2538 3319 
L 3100 3319 
L 3100 0 
L 2597 0 
z
" id="ArialMT-75" transform="scale(0.015625)"/>
       <path d="M 409 0 
L 409 4581 
L 972 4581 
L 972 0 
L 409 0 
z
" id="ArialMT-6c" transform="scale(0.015625)"/>
      </defs>
      <use xlink:href="#ArialMT-72"/>
      <use x="33.300781" xlink:href="#ArialMT-65"/>
      <use x="88.916016" xlink:href="#ArialMT-67"/>
      <use x="144.53125" xlink:href="#ArialMT-75"/>
      <use x="200.146484" xlink:href="#ArialMT-6c"/>
      <use x="222.363281" xlink:href="#ArialMT-61"/>
      <use x="277.978516" xlink:href="#ArialMT-72"/>
     </g>
    </g>
    <g id="line2d_13">
     <path d="M 642.244062 101.0978 
L 664.244062 101.0978 
" style="fill:none;stroke:#dd8452;stroke-dasharray:6,2.25;stroke-dashoffset:0;stroke-width:1.5;"/>
    </g>
    <g id="line2d_14"/>
    <g id="text_18">
     <!-- splitted_3s -->
     <g style="fill:#262626;" transform="translate(673.044062 104.9478)scale(0.11 -0.11)">
      <defs>
       <path d="M 422 -1272 
L 422 3319 
L 934 3319 
L 934 2888 
Q 1116 3141 1344 3267 
Q 1572 3394 1897 3394 
Q 2322 3394 2647 3175 
Q 2972 2956 3137 2557 
Q 3303 2159 3303 1684 
Q 3303 1175 3120 767 
Q 2938 359 2589 142 
Q 2241 -75 1856 -75 
Q 1575 -75 1351 44 
Q 1128 163 984 344 
L 984 -1272 
L 422 -1272 
z
M 931 1641 
Q 931 1000 1190 694 
Q 1450 388 1819 388 
Q 2194 388 2461 705 
Q 2728 1022 2728 1688 
Q 2728 2322 2467 2637 
Q 2206 2953 1844 2953 
Q 1484 2953 1207 2617 
Q 931 2281 931 1641 
z
" id="ArialMT-70" transform="scale(0.015625)"/>
       <path d="M 2575 0 
L 2575 419 
Q 2259 -75 1647 -75 
Q 1250 -75 917 144 
Q 584 363 401 755 
Q 219 1147 219 1656 
Q 219 2153 384 2558 
Q 550 2963 881 3178 
Q 1213 3394 1622 3394 
Q 1922 3394 2156 3267 
Q 2391 3141 2538 2938 
L 2538 4581 
L 3097 4581 
L 3097 0 
L 2575 0 
z
M 797 1656 
Q 797 1019 1065 703 
Q 1334 388 1700 388 
Q 2069 388 2326 689 
Q 2584 991 2584 1609 
Q 2584 2291 2321 2609 
Q 2059 2928 1675 2928 
Q 1300 2928 1048 2622 
Q 797 2316 797 1656 
z
" id="ArialMT-64" transform="scale(0.015625)"/>
       <path d="M -97 -1272 
L -97 -866 
L 3631 -866 
L 3631 -1272 
L -97 -1272 
z
" id="ArialMT-5f" transform="scale(0.015625)"/>
       <path d="M 269 1209 
L 831 1284 
Q 928 806 1161 595 
Q 1394 384 1728 384 
Q 2125 384 2398 659 
Q 2672 934 2672 1341 
Q 2672 1728 2419 1979 
Q 2166 2231 1775 2231 
Q 1616 2231 1378 2169 
L 1441 2663 
Q 1497 2656 1531 2656 
Q 1891 2656 2178 2843 
Q 2466 3031 2466 3422 
Q 2466 3731 2256 3934 
Q 2047 4138 1716 4138 
Q 1388 4138 1169 3931 
Q 950 3725 888 3313 
L 325 3413 
Q 428 3978 793 4289 
Q 1159 4600 1703 4600 
Q 2078 4600 2393 4439 
Q 2709 4278 2876 4000 
Q 3044 3722 3044 3409 
Q 3044 3113 2884 2869 
Q 2725 2625 2413 2481 
Q 2819 2388 3044 2092 
Q 3269 1797 3269 1353 
Q 3269 753 2831 336 
Q 2394 -81 1725 -81 
Q 1122 -81 723 278 
Q 325 638 269 1209 
z
" id="ArialMT-33" transform="scale(0.015625)"/>
      </defs>
      <use xlink:href="#ArialMT-73"/>
      <use x="50" xlink:href="#ArialMT-70"/>
      <use x="105.615234" xlink:href="#ArialMT-6c"/>
      <use x="127.832031" xlink:href="#ArialMT-69"/>
      <use x="150.048828" xlink:href="#ArialMT-74"/>
      <use x="177.832031" xlink:href="#ArialMT-74"/>
      <use x="205.615234" xlink:href="#ArialMT-65"/>
      <use x="261.230469" xlink:href="#ArialMT-64"/>
      <use x="316.845703" xlink:href="#ArialMT-5f"/>
      <use x="372.460938" xlink:href="#ArialMT-33"/>
      <use x="428.076172" xlink:href="#ArialMT-73"/>
     </g>
    </g>
    <g id="line2d_15">
     <path d="M 642.244062 116.6903 
L 664.244062 116.6903 
" style="fill:none;stroke:#55a868;stroke-dasharray:1.5,1.5;stroke-dashoffset:0;stroke-width:1.5;"/>
    </g>
    <g id="line2d_16"/>
    <g id="text_19">
     <!-- splitted_1s -->
     <g style="fill:#262626;" transform="translate(673.044062 120.5403)scale(0.11 -0.11)">
      <use xlink:href="#ArialMT-73"/>
      <use x="50" xlink:href="#ArialMT-70"/>
      <use x="105.615234" xlink:href="#ArialMT-6c"/>
      <use x="127.832031" xlink:href="#ArialMT-69"/>
      <use x="150.048828" xlink:href="#ArialMT-74"/>
      <use x="177.832031" xlink:href="#ArialMT-74"/>
      <use x="205.615234" xlink:href="#ArialMT-65"/>
      <use x="261.230469" xlink:href="#ArialMT-64"/>
      <use x="316.845703" xlink:href="#ArialMT-5f"/>
      <use x="372.460938" xlink:href="#ArialMT-31"/>
      <use x="428.076172" xlink:href="#ArialMT-73"/>
     </g>
    </g>
    <g id="line2d_17">
     <path d="M 642.244062 132.384206 
L 664.244062 132.384206 
" style="fill:none;stroke:#c44e52;stroke-dasharray:4.5,1.875,2.25,1.875;stroke-dashoffset:0;stroke-width:1.5;"/>
    </g>
    <g id="line2d_18"/>
    <g id="text_20">
     <!-- overlap_1f_3s -->
     <g style="fill:#262626;" transform="translate(673.044062 136.234206)scale(0.11 -0.11)">
      <use xlink:href="#ArialMT-6f"/>
      <use x="55.615234" xlink:href="#ArialMT-76"/>
      <use x="105.615234" xlink:href="#ArialMT-65"/>
      <use x="161.230469" xlink:href="#ArialMT-72"/>
      <use x="194.53125" xlink:href="#ArialMT-6c"/>
      <use x="216.748047" xlink:href="#ArialMT-61"/>
      <use x="272.363281" xlink:href="#ArialMT-70"/>
      <use x="327.978516" xlink:href="#ArialMT-5f"/>
      <use x="383.59375" xlink:href="#ArialMT-31"/>
      <use x="439.208984" xlink:href="#ArialMT-66"/>
      <use x="466.992188" xlink:href="#ArialMT-5f"/>
      <use x="522.607422" xlink:href="#ArialMT-33"/>
      <use x="578.222656" xlink:href="#ArialMT-73"/>
     </g>
    </g>
    <g id="line2d_19">
     <path d="M 642.244062 148.078113 
L 664.244062 148.078113 
" style="fill:none;stroke:#8172b3;stroke-dasharray:7.5,1.5,1.5,1.5;stroke-dashoffset:0;stroke-width:1.5;"/>
    </g>
    <g id="line2d_20"/>
    <g id="text_21">
     <!-- overlap_10f_3s -->
     <g style="fill:#262626;" transform="translate(673.044062 151.928112)scale(0.11 -0.11)">
      <use xlink:href="#ArialMT-6f"/>
      <use x="55.615234" xlink:href="#ArialMT-76"/>
      <use x="105.615234" xlink:href="#ArialMT-65"/>
      <use x="161.230469" xlink:href="#ArialMT-72"/>
      <use x="194.53125" xlink:href="#ArialMT-6c"/>
      <use x="216.748047" xlink:href="#ArialMT-61"/>
      <use x="272.363281" xlink:href="#ArialMT-70"/>
      <use x="327.978516" xlink:href="#ArialMT-5f"/>
      <use x="383.59375" xlink:href="#ArialMT-31"/>
      <use x="439.208984" xlink:href="#ArialMT-30"/>
      <use x="494.824219" xlink:href="#ArialMT-66"/>
      <use x="522.607422" xlink:href="#ArialMT-5f"/>
      <use x="578.222656" xlink:href="#ArialMT-33"/>
      <use x="633.837891" xlink:href="#ArialMT-73"/>
     </g>
    </g>
   </g>
  </g>
 </g>
 <defs>
  <clipPath id="p8d7bd1c033">
   <rect height="458.4888" width="652.86" x="105.3" y="71.4528"/>
  </clipPath>
 </defs>
</svg>
