<?xml version="1.0" encoding="utf-8" standalone="no"?>
<!DOCTYPE svg PUBLIC "-//W3C//DTD SVG 1.1//EN"
  "http://www.w3.org/Graphics/SVG/1.1/DTD/svg11.dtd">
<svg height="595.44pt" version="1.1" viewBox="0 0 842.4 595.44" width="842.4pt" xmlns="http://www.w3.org/2000/svg" xmlns:xlink="http://www.w3.org/1999/xlink">
 <metadata>
  <rdf:RDF xmlns:cc="http://creativecommons.org/ns#" xmlns:dc="http://purl.org/dc/elements/1.1/" xmlns:rdf="http://www.w3.org/1999/02/22-rdf-syntax-ns#">
   <cc:Work>
    <dc:type rdf:resource="http://purl.org/dc/dcmitype/StillImage"/>
    <dc:date>2021-06-04T22:03:15.069115</dc:date>
    <dc:format>image/svg+xml</dc:format>
    <dc:creator>
     <cc:Agent>
      <dc:title>Matplotlib v3.4.1, https://matplotlib.org/</dc:title>
     </cc:Agent>
    </dc:creator>
   </cc:Work>
  </rdf:RDF>
 </metadata>
 <defs>
  <style type="text/css">*{stroke-linecap:butt;stroke-linejoin:round;}</style>
 </defs>
 <g id="figure_1">
  <g id="patch_1">
   <path d="M 0 595.44 
L 842.4 595.44 
L 842.4 0 
L 0 0 
z
" style="fill:#ffffff;"/>
  </g>
  <g id="axes_1">
   <g id="patch_2">
    <path d="M 105.3 529.9416 
L 758.16 529.9416 
L 758.16 71.4528 
L 105.3 71.4528 
z
" style="fill:#ffffff;"/>
   </g>
   <g id="matplotlib.axis_1">
    <g id="xtick_1">
     <g id="text_1">
      <!-- 0 -->
      <g style="fill:#262626;" transform="translate(131.916939 547.315194)scale(0.11 -0.11)">
       <defs>
        <path d="M 266 2259 
Q 266 3072 433 3567 
Q 600 4063 929 4331 
Q 1259 4600 1759 4600 
Q 2128 4600 2406 4451 
Q 2684 4303 2865 4023 
Q 3047 3744 3150 3342 
Q 3253 2941 3253 2259 
Q 3253 1453 3087 958 
Q 2922 463 2592 192 
Q 2263 -78 1759 -78 
Q 1097 -78 719 397 
Q 266 969 266 2259 
z
M 844 2259 
Q 844 1131 1108 757 
Q 1372 384 1759 384 
Q 2147 384 2411 759 
Q 2675 1134 2675 2259 
Q 2675 3391 2411 3762 
Q 2147 4134 1753 4134 
Q 1366 4134 1134 3806 
Q 844 3388 844 2259 
z
" id="ArialMT-30" transform="scale(0.015625)"/>
       </defs>
       <use xlink:href="#ArialMT-30"/>
      </g>
     </g>
    </g>
    <g id="xtick_2">
     <g id="text_2">
      <!-- 25 -->
      <g style="fill:#262626;" transform="translate(201.950676 547.315194)scale(0.11 -0.11)">
       <defs>
        <path d="M 3222 541 
L 3222 0 
L 194 0 
Q 188 203 259 391 
Q 375 700 629 1000 
Q 884 1300 1366 1694 
Q 2113 2306 2375 2664 
Q 2638 3022 2638 3341 
Q 2638 3675 2398 3904 
Q 2159 4134 1775 4134 
Q 1369 4134 1125 3890 
Q 881 3647 878 3216 
L 300 3275 
Q 359 3922 746 4261 
Q 1134 4600 1788 4600 
Q 2447 4600 2831 4234 
Q 3216 3869 3216 3328 
Q 3216 3053 3103 2787 
Q 2991 2522 2730 2228 
Q 2469 1934 1863 1422 
Q 1356 997 1212 845 
Q 1069 694 975 541 
L 3222 541 
z
" id="ArialMT-32" transform="scale(0.015625)"/>
        <path d="M 266 1200 
L 856 1250 
Q 922 819 1161 601 
Q 1400 384 1738 384 
Q 2144 384 2425 690 
Q 2706 997 2706 1503 
Q 2706 1984 2436 2262 
Q 2166 2541 1728 2541 
Q 1456 2541 1237 2417 
Q 1019 2294 894 2097 
L 366 2166 
L 809 4519 
L 3088 4519 
L 3088 3981 
L 1259 3981 
L 1013 2750 
Q 1425 3038 1878 3038 
Q 2478 3038 2890 2622 
Q 3303 2206 3303 1553 
Q 3303 931 2941 478 
Q 2500 -78 1738 -78 
Q 1113 -78 717 272 
Q 322 622 266 1200 
z
" id="ArialMT-35" transform="scale(0.015625)"/>
       </defs>
       <use xlink:href="#ArialMT-32"/>
       <use x="55.615234" xlink:href="#ArialMT-35"/>
      </g>
     </g>
    </g>
    <g id="xtick_3">
     <g id="text_3">
      <!-- 50 -->
      <g style="fill:#262626;" transform="translate(275.042928 547.315194)scale(0.11 -0.11)">
       <use xlink:href="#ArialMT-35"/>
       <use x="55.615234" xlink:href="#ArialMT-30"/>
      </g>
     </g>
    </g>
    <g id="xtick_4">
     <g id="text_4">
      <!-- 75 -->
      <g style="fill:#262626;" transform="translate(348.135181 547.315194)scale(0.11 -0.11)">
       <defs>
        <path d="M 303 3981 
L 303 4522 
L 3269 4522 
L 3269 4084 
Q 2831 3619 2401 2847 
Q 1972 2075 1738 1259 
Q 1569 684 1522 0 
L 944 0 
Q 953 541 1156 1306 
Q 1359 2072 1739 2783 
Q 2119 3494 2547 3981 
L 303 3981 
z
" id="ArialMT-37" transform="scale(0.015625)"/>
       </defs>
       <use xlink:href="#ArialMT-37"/>
       <use x="55.615234" xlink:href="#ArialMT-35"/>
      </g>
     </g>
    </g>
    <g id="xtick_5">
     <g id="text_5">
      <!-- 100 -->
      <g style="fill:#262626;" transform="translate(418.168918 547.315194)scale(0.11 -0.11)">
       <defs>
        <path d="M 2384 0 
L 1822 0 
L 1822 3584 
Q 1619 3391 1289 3197 
Q 959 3003 697 2906 
L 697 3450 
Q 1169 3672 1522 3987 
Q 1875 4303 2022 4600 
L 2384 4600 
L 2384 0 
z
" id="ArialMT-31" transform="scale(0.015625)"/>
       </defs>
       <use xlink:href="#ArialMT-31"/>
       <use x="55.615234" xlink:href="#ArialMT-30"/>
       <use x="111.230469" xlink:href="#ArialMT-30"/>
      </g>
     </g>
    </g>
    <g id="xtick_6">
     <g id="text_6">
      <!-- 125 -->
      <g style="fill:#262626;" transform="translate(491.261171 547.315194)scale(0.11 -0.11)">
       <use xlink:href="#ArialMT-31"/>
       <use x="55.615234" xlink:href="#ArialMT-32"/>
       <use x="111.230469" xlink:href="#ArialMT-35"/>
      </g>
     </g>
    </g>
    <g id="xtick_7">
     <g id="text_7">
      <!-- 150 -->
      <g style="fill:#262626;" transform="translate(564.353423 547.315194)scale(0.11 -0.11)">
       <use xlink:href="#ArialMT-31"/>
       <use x="55.615234" xlink:href="#ArialMT-35"/>
       <use x="111.230469" xlink:href="#ArialMT-30"/>
      </g>
     </g>
    </g>
    <g id="xtick_8">
     <g id="text_8">
      <!-- 175 -->
      <g style="fill:#262626;" transform="translate(637.445676 547.315194)scale(0.11 -0.11)">
       <use xlink:href="#ArialMT-31"/>
       <use x="55.615234" xlink:href="#ArialMT-37"/>
       <use x="111.230469" xlink:href="#ArialMT-35"/>
      </g>
     </g>
    </g>
    <g id="xtick_9">
     <g id="text_9">
      <!-- 200 -->
      <g style="fill:#262626;" transform="translate(710.537928 547.315194)scale(0.11 -0.11)">
       <use xlink:href="#ArialMT-32"/>
       <use x="55.615234" xlink:href="#ArialMT-30"/>
       <use x="111.230469" xlink:href="#ArialMT-30"/>
      </g>
     </g>
    </g>
   </g>
   <g id="matplotlib.axis_2">
    <g id="ytick_1">
     <g id="text_10">
      <!-- −25 -->
      <g style="fill:#262626;" transform="translate(77.14125 533.878397)scale(0.11 -0.11)">
       <defs>
        <path d="M 3381 1997 
L 356 1997 
L 356 2522 
L 3381 2522 
L 3381 1997 
z
" id="ArialMT-2212" transform="scale(0.015625)"/>
       </defs>
       <use xlink:href="#ArialMT-2212"/>
       <use x="58.398438" xlink:href="#ArialMT-32"/>
       <use x="114.013672" xlink:href="#ArialMT-35"/>
      </g>
     </g>
    </g>
    <g id="ytick_2">
     <g id="text_11">
      <!-- −20 -->
      <g style="fill:#262626;" transform="translate(77.14125 442.180637)scale(0.11 -0.11)">
       <use xlink:href="#ArialMT-2212"/>
       <use x="58.398438" xlink:href="#ArialMT-32"/>
       <use x="114.013672" xlink:href="#ArialMT-30"/>
      </g>
     </g>
    </g>
    <g id="ytick_3">
     <g id="text_12">
      <!-- −15 -->
      <g style="fill:#262626;" transform="translate(77.14125 350.482877)scale(0.11 -0.11)">
       <use xlink:href="#ArialMT-2212"/>
       <use x="58.398438" xlink:href="#ArialMT-31"/>
       <use x="114.013672" xlink:href="#ArialMT-35"/>
      </g>
     </g>
    </g>
    <g id="ytick_4">
     <g id="text_13">
      <!-- −10 -->
      <g style="fill:#262626;" transform="translate(77.14125 258.785117)scale(0.11 -0.11)">
       <use xlink:href="#ArialMT-2212"/>
       <use x="58.398438" xlink:href="#ArialMT-31"/>
       <use x="114.013672" xlink:href="#ArialMT-30"/>
      </g>
     </g>
    </g>
    <g id="ytick_5">
     <g id="text_14">
      <!-- −5 -->
      <g style="fill:#262626;" transform="translate(83.258281 167.087357)scale(0.11 -0.11)">
       <use xlink:href="#ArialMT-2212"/>
       <use x="58.398438" xlink:href="#ArialMT-35"/>
      </g>
     </g>
    </g>
    <g id="ytick_6">
     <g id="text_15">
      <!-- 0 -->
      <g style="fill:#262626;" transform="translate(89.682969 75.389597)scale(0.11 -0.11)">
       <use xlink:href="#ArialMT-30"/>
      </g>
     </g>
    </g>
   </g>
   <g id="line2d_1">
    <path clip-path="url(#p8261e9794e)" d="M 134.975455 317.235583 
L 137.899145 320.392976 
L 140.822835 324.803646 
L 143.746525 324.205455 
L 146.670215 325.562763 
L 149.593905 328.59944 
L 152.517595 327.384867 
L 155.441285 331.787632 
L 158.364975 338.656272 
L 161.288665 339.686063 
L 164.212356 343.617823 
L 167.136046 346.409169 
L 170.059736 369.739271 
L 172.983426 376.859608 
L 175.907116 384.638128 
L 178.830806 413.711793 
L 181.754496 454.476621 
L 184.678186 407.469311 
L 187.601876 376.624683 
L 190.525567 449.612384 
L 193.449257 409.158387 
L 196.372947 346.943819 
L 199.296637 361.633654 
L 202.220327 293.979709 
L 205.144017 322.210165 
L 208.067707 490.816875 
L 210.991397 442.726202 
L 216.838777 417.290449 
L 219.762468 389.006875 
L 222.686158 393.705378 
L 225.609848 399.614466 
L 228.533538 440.100924 
L 231.457228 425.016708 
L 234.380918 328.554736 
L 237.304608 371.410261 
L 240.228298 371.048954 
L 243.151988 339.087084 
L 246.075678 312.954181 
L 248.999369 327.534686 
L 251.923059 378.29333 
L 254.846749 422.583995 
L 257.770439 472.121017 
L 260.694129 428.164656 
L 263.617819 518.073438 
L 266.541509 419.507161 
L 269.465199 429.990048 
L 272.388889 488.672956 
L 275.312579 525.04637 
L 278.23627 534.739271 
L 281.15996 505.149372 
L 284.08365 438.093077 
L 287.00734 422.425676 
L 289.93103 434.072974 
L 292.85472 328.871986 
L 295.77841 285.352909 
L 298.7021 358.13031 
L 301.62579 381.06346 
L 304.549481 412.413093 
L 307.473171 412.390042 
L 310.396861 386.028615 
L 313.320551 311.282631 
L 316.244241 345.39573 
L 319.167931 375.426726 
L 322.091621 468.791664 
L 325.015311 396.90695 
L 327.939001 390.066067 
L 330.862691 381.808532 
L 333.786382 385.720861 
L 336.710072 376.593341 
L 339.633762 440.500989 
L 342.557452 450.485413 
L 345.481142 347.147997 
L 348.404832 381.771209 
L 351.328522 387.803916 
L 354.252212 415.493355 
L 357.175902 438.555511 
L 360.099592 390.4966 
L 363.023283 440.643288 
L 365.946973 331.007545 
L 368.870663 379.397122 
L 371.794353 458.463563 
L 374.718043 508.693363 
L 377.641733 487.767396 
L 380.565423 453.09453 
L 383.489113 367.634389 
L 386.412803 295.653515 
L 389.336494 358.214647 
L 392.260184 423.747742 
L 395.183874 440.665885 
L 398.107564 469.101306 
L 401.031254 449.972817 
L 403.954944 428.155037 
L 406.878634 456.316215 
L 409.802324 435.407248 
L 412.726014 427.083147 
L 415.649704 500.253653 
L 418.573395 453.262328 
L 421.497085 483.97134 
L 424.420775 556.251572 
L 427.344465 433.068036 
L 430.268155 444.046064 
L 433.191845 439.830389 
L 436.115535 382.380909 
L 439.039225 389.804207 
L 441.962915 402.973098 
L 444.886605 340.894252 
L 447.810296 324.87184 
L 450.733986 334.057042 
L 453.657676 404.060938 
L 456.581366 380.868342 
L 459.505056 454.123464 
L 462.428746 392.218486 
L 465.352436 382.122582 
L 468.276126 355.936125 
L 471.199816 380.420879 
L 474.123506 370.651197 
L 477.047197 333.730942 
L 479.970887 257.744745 
L 482.894577 364.93352 
L 485.818267 398.140377 
L 488.741957 447.780835 
L 491.665647 430.166767 
L 494.589337 363.472478 
L 497.513027 402.254645 
L 500.436717 374.084861 
L 503.360408 322.312919 
L 506.284098 377.095093 
L 509.207788 458.978292 
L 512.131478 469.63489 
L 515.055168 498.444771 
L 517.978858 368.183119 
L 520.902548 408.693714 
L 523.826238 467.465295 
L 526.749928 461.642328 
L 529.673618 491.492372 
L 532.597309 437.087544 
L 535.520999 311.552204 
L 538.444689 316.311921 
L 541.368379 447.621537 
L 544.292069 425.260203 
L 547.215759 372.142706 
L 550.139449 436.731833 
L 553.063139 334.978256 
L 555.986829 434.279601 
L 558.910519 422.376494 
L 561.83421 395.95693 
L 564.7579 418.620525 
L 567.68159 354.279003 
L 570.60528 364.617109 
L 573.52897 336.325402 
L 576.45266 396.864064 
L 579.37635 417.084557 
L 582.30004 368.37299 
L 585.22373 327.351706 
L 588.147421 326.206516 
L 591.071111 346.775338 
L 593.994801 384.539799 
L 596.918491 329.24029 
L 599.842181 325.184333 
L 602.765871 317.013006 
L 605.689561 307.255708 
L 608.613251 342.151325 
L 611.536941 404.335495 
L 614.460631 384.517272 
L 617.384322 297.94951 
L 620.308012 408.280531 
L 623.231702 441.870593 
L 626.155392 453.863983 
L 629.079082 414.226592 
L 632.002772 348.194719 
L 634.926462 388.086693 
L 637.850152 445.301284 
L 640.773842 375.270331 
L 643.697532 285.673587 
L 646.621223 336.958889 
L 649.544913 456.52592 
L 652.468603 532.305578 
L 655.392293 466.258978 
L 658.315983 431.799315 
L 661.239673 532.389355 
L 664.163363 471.047659 
L 667.087053 548.953746 
L 670.010743 488.657984 
L 672.934433 418.673729 
L 675.858124 436.053572 
L 678.781814 394.686005 
L 681.705504 438.938121 
L 684.629194 463.29345 
L 687.552884 391.054739 
L 690.476574 462.619842 
L 693.400264 358.466082 
L 696.323954 362.36351 
L 699.247644 358.630663 
L 702.171335 353.632557 
L 705.095025 365.662221 
L 708.018715 366.672826 
L 710.942405 361.818907 
L 713.866095 364.482349 
L 716.789785 361.386328 
L 719.713475 362.274154 
L 722.637165 359.6154 
L 725.560855 365.278422 
L 728.484545 357.27694 
L 728.484545 357.27694 
" style="fill:none;stroke:#4c72b0;stroke-linecap:round;stroke-width:1.5;"/>
   </g>
   <g id="line2d_2">
    <path clip-path="url(#p8261e9794e)" d="M 134.975455 310.352182 
L 137.899145 315.853212 
L 140.822835 318.40066 
L 143.746525 316.362782 
L 146.670215 320.521929 
L 149.593905 320.547919 
L 152.517595 318.250106 
L 155.441285 319.588962 
L 158.364975 321.842596 
L 161.288665 322.531281 
L 164.212356 325.620393 
L 167.136046 326.43504 
L 170.059736 346.805176 
L 172.983426 351.070453 
L 175.907116 365.931182 
L 178.830806 401.298924 
L 181.754496 441.166727 
L 184.678186 405.244169 
L 187.601876 351.320209 
L 190.525567 445.631984 
L 196.372947 339.288394 
L 199.296637 339.216877 
L 202.220327 277.552509 
L 205.144017 326.250136 
L 208.067707 477.959656 
L 210.991397 443.90464 
L 213.915087 395.484177 
L 216.838777 415.623061 
L 219.762468 378.662123 
L 222.686158 390.825586 
L 225.609848 391.08916 
L 228.533538 422.263299 
L 231.457228 400.175229 
L 234.380918 307.293608 
L 237.304608 353.685586 
L 240.228298 353.599728 
L 243.151988 328.166319 
L 246.075678 304.193286 
L 248.999369 347.560865 
L 251.923059 385.202669 
L 254.846749 414.923812 
L 257.770439 475.048277 
L 260.694129 437.838738 
L 263.617819 517.779887 
L 266.541509 423.916765 
L 269.465199 419.401801 
L 272.388889 492.755567 
L 275.312579 535.614573 
L 278.23627 545.384745 
L 281.15996 525.042382 
L 284.08365 437.12826 
L 287.00734 418.302068 
L 289.93103 445.093538 
L 292.85472 338.5234 
L 295.77841 253.342872 
L 298.7021 330.847494 
L 301.62579 359.164002 
L 304.549481 410.823641 
L 307.473171 422.893462 
L 310.396861 377.848211 
L 313.320551 322.096708 
L 316.244241 344.041395 
L 319.167931 381.270611 
L 322.091621 472.575337 
L 325.015311 382.139687 
L 327.939001 386.154682 
L 330.862691 367.355564 
L 333.786382 343.286966 
L 336.710072 403.112318 
L 339.633762 448.451435 
L 342.557452 443.765385 
L 345.481142 306.778949 
L 348.404832 331.5653 
L 351.328522 399.069653 
L 354.252212 386.047119 
L 357.175902 289.282815 
L 360.099592 200.386912 
L 363.023283 182.404067 
L 365.946973 192.905162 
L 368.870663 229.109955 
L 371.794353 292.252943 
L 374.718043 322.618346 
L 377.641733 323.814222 
L 380.565423 377.699861 
L 383.489113 296.920908 
L 386.412803 288.350775 
L 389.336494 309.921982 
L 392.260184 382.132166 
L 395.183874 392.047295 
L 398.107564 415.456556 
L 401.031254 400.972876 
L 403.954944 414.542041 
L 406.878634 420.847836 
L 409.802324 431.536825 
L 412.726014 430.995371 
L 415.649704 456.619631 
L 418.573395 407.821804 
L 421.497085 460.748416 
L 424.420775 510.789709 
L 427.344465 367.014685 
L 430.268155 381.714436 
L 433.191845 393.861178 
L 436.115535 355.898014 
L 439.039225 400.500682 
L 441.962915 419.589609 
L 444.886605 309.193787 
L 447.810296 290.377284 
L 450.733986 356.053797 
L 453.657676 396.586919 
L 456.581366 383.900821 
L 459.505056 447.493965 
L 462.428746 380.493882 
L 465.352436 374.326992 
L 468.276126 338.855552 
L 471.199816 385.503706 
L 474.123506 344.714234 
L 477.047197 347.372376 
L 479.970887 236.521238 
L 482.894577 358.509177 
L 485.818267 402.657054 
L 488.741957 450.588603 
L 491.665647 444.116339 
L 494.589337 359.30581 
L 497.513027 404.559157 
L 500.436717 385.933189 
L 503.360408 336.934613 
L 506.284098 411.372861 
L 509.207788 465.883118 
L 512.131478 454.450806 
L 515.055168 500.221016 
L 517.978858 376.8049 
L 520.902548 415.622956 
L 523.826238 477.16848 
L 526.749928 475.083467 
L 529.673618 493.044151 
L 532.597309 432.964356 
L 535.520999 312.693301 
L 538.444689 320.426784 
L 541.368379 406.869616 
L 544.292069 423.625627 
L 547.215759 336.76426 
L 550.139449 419.199792 
L 553.063139 350.785664 
L 555.986829 382.926351 
L 558.910519 331.433618 
L 561.83421 287.159149 
L 564.7579 346.543457 
L 567.68159 351.966376 
L 570.60528 453.524223 
L 573.52897 135.081615 
L 576.45266 234.691963 
L 579.37635 267.99652 
L 582.30004 179.432287 
L 585.22373 220.698876 
L 588.147421 251.29436 
L 593.994801 366.132316 
L 596.918491 306.43312 
L 599.842181 343.371355 
L 602.765871 285.262625 
L 605.689561 301.657364 
L 608.613251 356.945068 
L 611.536941 398.872192 
L 614.460631 392.885413 
L 617.384322 364.782441 
L 620.308012 423.804374 
L 623.231702 439.749551 
L 626.155392 477.472281 
L 629.079082 407.979004 
L 632.002772 368.700857 
L 634.926462 422.641432 
L 637.850152 419.32537 
L 640.773842 382.705767 
L 643.697532 284.404306 
L 646.621223 341.847018 
L 649.544913 470.921311 
L 652.468603 529.510472 
L 658.315983 422.565245 
L 661.239673 539.294216 
L 664.163363 476.673619 
L 667.087053 553.36167 
L 670.010743 494.4317 
L 672.934433 417.263339 
L 675.858124 434.796254 
L 678.781814 406.246938 
L 681.705504 440.36887 
L 684.629194 463.040265 
L 687.552884 382.848135 
L 690.476574 449.489499 
L 693.400264 381.533555 
L 696.323954 374.123304 
L 699.247644 353.377588 
L 702.171335 345.762827 
L 705.095025 366.165232 
L 708.018715 368.847073 
L 710.942405 366.785811 
L 713.866095 367.881487 
L 716.789785 367.749613 
L 719.713475 368.075731 
L 722.637165 364.369363 
L 725.560855 369.275787 
L 728.484545 364.128072 
L 728.484545 364.128072 
" style="fill:none;stroke:#dd8452;stroke-dasharray:6,2.25;stroke-dashoffset:0;stroke-width:1.5;"/>
   </g>
   <g id="line2d_3">
    <path clip-path="url(#p8261e9794e)" d="M 134.975455 327.532535 
L 137.899145 334.400597 
L 140.822835 335.412374 
L 143.746525 331.479284 
L 146.670215 343.01393 
L 149.593905 340.654989 
L 152.517595 340.688815 
L 155.441285 363.401469 
L 158.364975 366.054346 
L 161.288665 354.166106 
L 164.212356 357.891205 
L 167.136046 350.946012 
L 170.059736 349.667443 
L 172.983426 357.964243 
L 175.907116 368.836369 
L 178.830806 389.226094 
L 181.754496 431.594017 
L 184.678186 352.39843 
L 187.601876 372.638057 
L 190.525567 413.392391 
L 193.449257 394.04986 
L 196.372947 342.520154 
L 199.296637 318.216823 
L 202.220327 300.581416 
L 205.144017 302.813835 
L 208.067707 297.659439 
L 210.991397 369.354701 
L 213.915087 392.083289 
L 216.838777 384.726802 
L 219.762468 366.267234 
L 222.686158 367.981005 
L 225.609848 337.399006 
L 228.533538 370.861217 
L 231.457228 389.882073 
L 234.380918 300.021248 
L 237.304608 361.976352 
L 240.228298 368.858336 
L 243.151988 349.901214 
L 246.075678 274.6582 
L 248.999369 356.959305 
L 251.923059 340.69763 
L 254.846749 427.532884 
L 257.770439 503.291414 
L 260.694129 454.83555 
L 263.617819 531.177476 
L 266.541509 420.192103 
L 269.465199 441.243473 
L 272.388889 454.893792 
L 275.312579 453.577672 
L 278.23627 439.4815 
L 281.15996 381.888916 
L 284.08365 363.276468 
L 287.00734 263.983798 
L 289.93103 317.505576 
L 292.85472 250.60251 
L 295.77841 261.073207 
L 298.7021 352.412335 
L 301.62579 390.663524 
L 304.549481 406.492637 
L 307.473171 406.964131 
L 310.396861 400.658022 
L 313.320551 333.641883 
L 316.244241 354.295374 
L 319.167931 396.001809 
L 322.091621 503.170733 
L 325.015311 414.859029 
L 327.939001 400.413407 
L 330.862691 402.262271 
L 333.786382 379.33024 
L 339.633762 462.443263 
L 342.557452 490.692836 
L 345.481142 363.677111 
L 348.404832 413.005653 
L 351.328522 442.150992 
L 354.252212 419.31764 
L 357.175902 465.471545 
L 360.099592 279.487721 
L 363.023283 261.163997 
L 365.946973 236.37518 
L 368.870663 288.19863 
L 371.794353 234.212021 
L 374.718043 323.607281 
L 377.641733 316.241559 
L 380.565423 298.219835 
L 383.489113 257.605385 
L 386.412803 288.352332 
L 389.336494 313.938411 
L 392.260184 388.556124 
L 395.183874 387.368136 
L 398.107564 494.878813 
L 401.031254 427.358614 
L 403.954944 434.238674 
L 406.878634 436.54595 
L 409.802324 454.280769 
L 412.726014 414.706692 
L 415.649704 500.949508 
L 418.573395 480.206486 
L 421.497085 484.122733 
L 424.420775 528.815212 
L 427.344465 385.446444 
L 430.268155 383.963505 
L 433.191845 324.04878 
L 436.115535 284.128681 
L 439.039225 321.179867 
L 441.962915 294.661677 
L 444.886605 264.786955 
L 447.810296 292.591741 
L 450.733986 293.60705 
L 453.657676 307.663801 
L 456.581366 394.853803 
L 459.505056 477.702029 
L 462.428746 375.909624 
L 465.352436 395.003727 
L 468.276126 329.608068 
L 471.199816 336.379289 
L 474.123506 292.985335 
L 477.047197 320.972506 
L 479.970887 243.974532 
L 482.894577 347.300824 
L 485.818267 370.531636 
L 488.741957 434.147761 
L 491.665647 378.358323 
L 494.589337 294.738948 
L 497.513027 306.022403 
L 500.436717 281.164081 
L 503.360408 280.315835 
L 506.284098 270.843203 
L 509.207788 346.991864 
L 512.131478 357.732606 
L 515.055168 275.963371 
L 517.978858 212.639914 
L 520.902548 227.719416 
L 523.826238 332.661571 
L 526.749928 453.634095 
L 529.673618 394.976093 
L 532.597309 342.250336 
L 535.520999 299.274602 
L 538.444689 347.592802 
L 541.368379 390.608605 
L 544.292069 412.57638 
L 547.215759 351.225799 
L 550.139449 373.757029 
L 553.063139 270.842066 
L 555.986829 239.890154 
L 558.910519 326.960124 
L 561.83421 268.094656 
L 564.7579 289.319369 
L 567.68159 343.44476 
L 570.60528 321.11776 
L 573.52897 276.258724 
L 576.45266 365.910893 
L 579.37635 354.379413 
L 582.30004 290.518883 
L 585.22373 315.628991 
L 588.147421 215.707058 
L 591.071111 163.3102 
L 593.994801 205.029315 
L 596.918491 192.682156 
L 599.842181 192.096277 
L 602.765871 151.561529 
L 605.689561 270.83026 
L 608.613251 294.528229 
L 611.536941 362.194592 
L 614.460631 362.114943 
L 617.384322 308.877272 
L 620.308012 386.977725 
L 623.231702 433.11442 
L 626.155392 448.664253 
L 629.079082 404.837038 
L 632.002772 387.190892 
L 634.926462 398.018612 
L 640.773842 371.946609 
L 643.697532 302.420136 
L 646.621223 348.660389 
L 649.544913 438.046273 
L 652.468603 391.964987 
L 655.392293 450.515006 
L 658.315983 361.323819 
L 661.239673 366.178665 
L 664.163363 305.518307 
L 667.087053 368.864528 
L 670.010743 330.801758 
L 672.934433 333.4415 
L 675.858124 434.443342 
L 678.781814 388.948493 
L 681.705504 424.258483 
L 684.629194 416.151188 
L 687.552884 440.763514 
L 690.476574 394.755825 
L 693.400264 346.837603 
L 696.323954 381.9162 
L 699.247644 359.482231 
L 702.171335 355.456585 
L 705.095025 376.68268 
L 708.018715 383.633714 
L 710.942405 383.374898 
L 713.866095 385.655519 
L 716.789785 385.369803 
L 719.713475 383.555255 
L 722.637165 385.551978 
L 725.560855 391.684798 
L 728.484545 390.724144 
L 728.484545 390.724144 
" style="fill:none;stroke:#55a868;stroke-dasharray:1.5,1.5;stroke-dashoffset:0;stroke-width:1.5;"/>
   </g>
   <g id="line2d_4">
    <path clip-path="url(#p8261e9794e)" d="M 134.975455 310.132141 
L 137.899145 315.761879 
L 140.822835 318.235222 
L 143.746525 316.0661 
L 146.670215 320.630525 
L 149.593905 320.424598 
L 152.517595 318.208095 
L 155.441285 319.768462 
L 158.364975 322.108724 
L 161.288665 322.952981 
L 164.212356 325.897836 
L 167.136046 326.805845 
L 170.059736 347.369542 
L 172.983426 351.516394 
L 175.907116 366.353145 
L 178.830806 402.017761 
L 181.754496 442.05945 
L 184.678186 405.375239 
L 187.601876 351.170408 
L 190.525567 446.693764 
L 193.449257 395.325403 
L 196.372947 339.973598 
L 199.296637 342.163446 
L 202.220327 280.088011 
L 205.144017 325.639439 
L 208.067707 482.161164 
L 210.991397 439.186689 
L 213.915087 403.343745 
L 216.838777 409.61505 
L 219.762468 380.880935 
L 222.686158 391.606722 
L 225.609848 390.393549 
L 228.533538 422.41749 
L 231.457228 402.099474 
L 234.380918 308.589264 
L 237.304608 357.649179 
L 240.228298 358.28779 
L 243.151988 329.403313 
L 246.075678 305.734868 
L 251.923059 385.733454 
L 254.846749 416.570247 
L 257.770439 474.984858 
L 260.694129 435.153014 
L 263.617819 516.356554 
L 266.541509 417.903681 
L 269.465199 417.730391 
L 272.388889 488.469163 
L 275.312579 536.483055 
L 278.23627 546.509244 
L 281.15996 521.127675 
L 284.08365 437.341288 
L 287.00734 430.629201 
L 289.93103 449.970368 
L 292.85472 334.441681 
L 295.77841 252.746184 
L 298.7021 329.389724 
L 301.62579 362.495104 
L 304.549481 414.887118 
L 307.473171 423.936983 
L 310.396861 377.155468 
L 313.320551 319.747439 
L 316.244241 345.589869 
L 319.167931 388.903474 
L 322.091621 479.542042 
L 325.015311 381.396749 
L 327.939001 378.890053 
L 330.862691 379.732299 
L 333.786382 348.403496 
L 336.710072 406.104255 
L 339.633762 452.908716 
L 342.557452 446.042963 
L 345.481142 322.178438 
L 348.404832 296.89177 
L 351.328522 427.970308 
L 354.252212 318.976184 
L 357.175902 366.957528 
L 360.099592 253.961352 
L 363.023283 348.334061 
L 365.946973 227.697711 
L 368.870663 266.429979 
L 371.794353 328.711043 
L 374.718043 365.851567 
L 377.641733 337.240704 
L 380.565423 386.8823 
L 383.489113 297.424968 
L 386.412803 291.389603 
L 389.336494 312.642738 
L 392.260184 379.344057 
L 395.183874 392.525225 
L 398.107564 425.026048 
L 401.031254 411.462514 
L 403.954944 412.405538 
L 406.878634 413.547912 
L 409.802324 431.45959 
L 412.726014 432.033155 
L 415.649704 461.535674 
L 418.573395 403.034347 
L 421.497085 466.026816 
L 424.420775 520.522382 
L 427.344465 371.119683 
L 430.268155 380.497205 
L 433.191845 390.564986 
L 436.115535 353.61804 
L 439.039225 397.519623 
L 441.962915 419.182722 
L 444.886605 308.232837 
L 447.810296 291.710596 
L 450.733986 356.62383 
L 453.657676 406.58306 
L 456.581366 388.591174 
L 459.505056 448.450421 
L 462.428746 381.443167 
L 465.352436 381.108444 
L 468.276126 338.743634 
L 471.199816 380.025956 
L 474.123506 347.666434 
L 477.047197 350.694559 
L 479.970887 237.260067 
L 482.894577 357.789623 
L 485.818267 402.607907 
L 488.741957 449.666952 
L 491.665647 445.679696 
L 494.589337 360.769213 
L 497.513027 405.060734 
L 500.436717 385.491603 
L 503.360408 335.080222 
L 506.284098 407.368534 
L 509.207788 465.411029 
L 512.131478 452.399339 
L 515.055168 508.377949 
L 517.978858 374.209984 
L 520.902548 414.604236 
L 523.826238 480.342803 
L 526.749928 472.339677 
L 529.673618 485.658526 
L 532.597309 432.700117 
L 535.520999 322.65985 
L 538.444689 333.638367 
L 541.368379 417.321651 
L 544.292069 432.01703 
L 547.215759 336.403512 
L 550.139449 417.067626 
L 553.063139 326.510597 
L 555.986829 412.562283 
L 558.910519 415.413216 
L 561.83421 356.562335 
L 564.7579 370.111912 
L 567.68159 178.585336 
L 570.60528 303.413776 
L 573.52897 226.714705 
L 576.45266 294.551053 
L 579.37635 297.707326 
L 582.30004 228.376094 
L 585.22373 282.761544 
L 588.147421 250.91579 
L 591.071111 305.551363 
L 593.994801 391.819156 
L 596.918491 332.003703 
L 599.842181 346.206547 
L 602.765871 299.409764 
L 605.689561 308.882641 
L 608.613251 357.173557 
L 611.536941 398.642304 
L 614.460631 398.356238 
L 617.384322 367.466765 
L 620.308012 426.424615 
L 623.231702 442.9641 
L 626.155392 475.392095 
L 629.079082 407.064489 
L 632.002772 365.78696 
L 634.926462 422.024911 
L 637.850152 420.225753 
L 640.773842 384.205356 
L 643.697532 284.099456 
L 646.621223 344.984489 
L 649.544913 470.528032 
L 652.468603 531.950077 
L 655.392293 478.23033 
L 658.315983 422.013822 
L 661.239673 539.14744 
L 664.163363 476.993056 
L 667.087053 553.274431 
L 670.010743 497.935324 
L 672.934433 421.00766 
L 675.858124 436.17023 
L 678.781814 408.09818 
L 681.705504 439.026411 
L 684.629194 463.678404 
L 687.552884 382.480392 
L 690.476574 448.737536 
L 693.400264 380.180077 
L 696.323954 373.140438 
L 699.247644 354.074039 
L 702.171335 345.578465 
L 705.095025 366.400088 
L 708.018715 369.828889 
L 710.942405 368.823566 
L 713.866095 370.371603 
L 716.789785 369.341969 
L 719.713475 369.609425 
L 722.637165 367.269653 
L 725.560855 371.485118 
L 728.484545 367.604621 
L 728.484545 367.604621 
" style="fill:none;stroke:#c44e52;stroke-dasharray:4.5,1.875,2.25,1.875;stroke-dashoffset:0;stroke-width:1.5;"/>
   </g>
   <g id="line2d_5">
    <path clip-path="url(#p8261e9794e)" d="M 134.975455 314.124015 
L 137.899145 319.699394 
L 140.822835 322.231888 
L 143.746525 320.01647 
L 146.670215 324.77589 
L 149.593905 324.963435 
L 152.517595 323.289418 
L 155.441285 324.458622 
L 158.364975 326.542638 
L 161.288665 327.389345 
L 164.212356 329.144619 
L 167.136046 329.517068 
L 170.059736 348.029299 
L 172.983426 351.410842 
L 175.907116 363.757232 
L 178.830806 398.39538 
L 181.754496 444.638064 
L 184.678186 400.777898 
L 187.601876 370.178304 
L 190.525567 450.45428 
L 193.449257 401.746737 
L 196.372947 348.242676 
L 199.296637 355.18689 
L 202.220327 285.484433 
L 205.144017 318.63903 
L 208.067707 483.900785 
L 210.991397 445.421265 
L 213.915087 399.308181 
L 216.838777 416.635519 
L 219.762468 378.565894 
L 222.686158 391.691269 
L 225.609848 397.711488 
L 228.533538 430.003376 
L 231.457228 407.675973 
L 234.380918 311.760037 
L 237.304608 360.138087 
L 240.228298 359.993445 
L 243.151988 330.782257 
L 246.075678 305.421815 
L 248.999369 341.505614 
L 251.923059 390.572366 
L 254.846749 420.65821 
L 257.770439 480.216385 
L 260.694129 438.208755 
L 263.617819 523.044085 
L 266.541509 420.628023 
L 269.465199 420.216064 
L 272.388889 490.162925 
L 275.312579 535.516909 
L 278.23627 545.714535 
L 281.15996 527.498148 
L 284.08365 444.930147 
L 287.00734 426.986357 
L 289.93103 448.380391 
L 292.85472 334.207018 
L 295.77841 250.027545 
L 298.7021 324.476689 
L 301.62579 360.988764 
L 304.549481 409.964359 
L 307.473171 417.520162 
L 310.396861 380.855749 
L 313.320551 319.507669 
L 316.244241 339.981014 
L 319.167931 386.465724 
L 322.091621 485.188116 
L 325.015311 393.272571 
L 327.939001 323.561142 
L 330.862691 322.245355 
L 333.786382 291.029415 
L 336.710072 354.537173 
L 339.633762 390.73992 
L 342.557452 400.827184 
L 345.481142 326.232821 
L 348.404832 347.092571 
L 351.328522 400.317282 
L 354.252212 450.424722 
L 357.175902 461.445461 
L 360.099592 408.715751 
L 363.023283 468.650555 
L 365.946973 320.541116 
L 368.870663 363.849369 
L 371.794353 408.893624 
L 374.718043 434.030928 
L 377.641733 445.959606 
L 380.565423 449.818136 
L 383.489113 370.01026 
L 386.412803 298.290442 
L 389.336494 341.829458 
L 392.260184 415.204001 
L 395.183874 439.109558 
L 398.107564 434.921272 
L 401.031254 440.634578 
L 403.954944 428.934914 
L 406.878634 428.070455 
L 409.802324 460.138261 
L 412.726014 445.197078 
L 415.649704 514.804285 
L 418.573395 438.073103 
L 421.497085 489.550287 
L 424.420775 547.598449 
L 427.344465 408.431784 
L 430.268155 396.564461 
L 433.191845 402.51591 
L 436.115535 358.284974 
L 439.039225 397.514621 
L 441.962915 416.910811 
L 444.886605 314.378336 
L 447.810296 301.982082 
L 450.733986 361.738436 
L 453.657676 392.348647 
L 456.581366 377.982114 
L 459.505056 421.49423 
L 462.428746 367.749403 
L 465.352436 373.8952 
L 468.276126 347.785961 
L 471.199816 387.176061 
L 474.123506 350.558714 
L 477.047197 340.419505 
L 479.970887 235.058291 
L 482.894577 360.883894 
L 485.818267 409.852004 
L 488.741957 344.261594 
L 491.665647 424.519049 
L 494.589337 308.986304 
L 497.513027 412.3148 
L 500.436717 403.946239 
L 503.360408 355.754544 
L 506.284098 401.674783 
L 509.207788 333.281152 
L 512.131478 362.048271 
L 515.055168 300.271389 
L 517.978858 392.941591 
L 520.902548 406.042446 
L 523.826238 349.741391 
L 526.749928 345.73668 
L 529.673618 305.50575 
L 532.597309 312.626629 
L 535.520999 365.811515 
L 538.444689 320.109411 
L 541.368379 255.516891 
L 544.292069 193.634563 
L 547.215759 178.950719 
L 550.139449 187.929784 
L 553.063139 156.789899 
L 555.986829 176.234362 
L 558.910519 192.940824 
L 561.83421 203.003392 
L 564.7579 220.886001 
L 567.68159 234.761888 
L 570.60528 250.359854 
L 573.52897 264.800702 
L 576.45266 325.28156 
L 579.37635 348.355049 
L 582.30004 247.706085 
L 585.22373 278.471361 
L 588.147421 263.374518 
L 591.071111 310.54305 
L 593.994801 388.888363 
L 596.918491 347.270112 
L 602.765871 315.655663 
L 605.689561 320.596017 
L 608.613251 350.005349 
L 611.536941 395.384624 
L 614.460631 396.938677 
L 617.384322 355.024443 
L 620.308012 428.539956 
L 623.231702 442.920305 
L 626.155392 471.200066 
L 629.079082 407.851922 
L 632.002772 364.401055 
L 634.926462 408.01213 
L 637.850152 415.977862 
L 640.773842 367.839791 
L 643.697532 280.027566 
L 646.621223 334.218194 
L 649.544913 454.148545 
L 652.468603 522.478599 
L 655.392293 466.241802 
L 658.315983 416.133733 
L 661.239673 519.886447 
L 664.163363 465.6448 
L 667.087053 549.038677 
L 670.010743 493.697821 
L 672.934433 423.418196 
L 675.858124 426.400094 
L 678.781814 393.155353 
L 681.705504 435.459753 
L 684.629194 454.325053 
L 687.552884 375.286037 
L 690.476574 432.148274 
L 693.400264 370.223952 
L 696.323954 366.991913 
L 699.247644 350.080434 
L 702.171335 344.95584 
L 705.095025 366.923912 
L 708.018715 368.810939 
L 710.942405 366.741282 
L 713.866095 368.341298 
L 716.789785 367.947774 
L 719.713475 367.813521 
L 722.637165 363.339869 
L 725.560855 368.2769 
L 728.484545 362.908147 
L 728.484545 362.908147 
" style="fill:none;stroke:#8172b3;stroke-dasharray:7.5,1.5,1.5,1.5;stroke-dashoffset:0;stroke-width:1.5;"/>
   </g>
   <g id="line2d_6"/>
   <g id="line2d_7"/>
   <g id="line2d_8"/>
   <g id="line2d_9"/>
   <g id="line2d_10"/>
   <g id="patch_3">
    <path d="M 105.3 529.9416 
L 105.3 71.4528 
" style="fill:none;stroke:#262626;stroke-linecap:square;stroke-linejoin:miter;stroke-width:1.25;"/>
   </g>
   <g id="patch_4">
    <path d="M 758.16 529.9416 
L 758.16 71.4528 
" style="fill:none;stroke:#262626;stroke-linecap:square;stroke-linejoin:miter;stroke-width:1.25;"/>
   </g>
   <g id="patch_5">
    <path d="M 105.3 529.9416 
L 758.16 529.9416 
" style="fill:none;stroke:#262626;stroke-linecap:square;stroke-linejoin:miter;stroke-width:1.25;"/>
   </g>
   <g id="patch_6">
    <path d="M 105.3 71.4528 
L 758.16 71.4528 
" style="fill:none;stroke:#262626;stroke-linecap:square;stroke-linejoin:miter;stroke-width:1.25;"/>
   </g>
   <g id="text_16">
    <!-- Activations for &gt;-&lt; -->
    <g style="fill:#262626;" transform="translate(383.376563 65.4528)scale(0.12 -0.12)">
     <defs>
      <path d="M -9 0 
L 1750 4581 
L 2403 4581 
L 4278 0 
L 3588 0 
L 3053 1388 
L 1138 1388 
L 634 0 
L -9 0 
z
M 1313 1881 
L 2866 1881 
L 2388 3150 
Q 2169 3728 2063 4100 
Q 1975 3659 1816 3225 
L 1313 1881 
z
" id="ArialMT-41" transform="scale(0.015625)"/>
      <path d="M 2588 1216 
L 3141 1144 
Q 3050 572 2676 248 
Q 2303 -75 1759 -75 
Q 1078 -75 664 370 
Q 250 816 250 1647 
Q 250 2184 428 2587 
Q 606 2991 970 3192 
Q 1334 3394 1763 3394 
Q 2303 3394 2647 3120 
Q 2991 2847 3088 2344 
L 2541 2259 
Q 2463 2594 2264 2762 
Q 2066 2931 1784 2931 
Q 1359 2931 1093 2626 
Q 828 2322 828 1663 
Q 828 994 1084 691 
Q 1341 388 1753 388 
Q 2084 388 2306 591 
Q 2528 794 2588 1216 
z
" id="ArialMT-63" transform="scale(0.015625)"/>
      <path d="M 1650 503 
L 1731 6 
Q 1494 -44 1306 -44 
Q 1000 -44 831 53 
Q 663 150 594 308 
Q 525 466 525 972 
L 525 2881 
L 113 2881 
L 113 3319 
L 525 3319 
L 525 4141 
L 1084 4478 
L 1084 3319 
L 1650 3319 
L 1650 2881 
L 1084 2881 
L 1084 941 
Q 1084 700 1114 631 
Q 1144 563 1211 522 
Q 1278 481 1403 481 
Q 1497 481 1650 503 
z
" id="ArialMT-74" transform="scale(0.015625)"/>
      <path d="M 425 3934 
L 425 4581 
L 988 4581 
L 988 3934 
L 425 3934 
z
M 425 0 
L 425 3319 
L 988 3319 
L 988 0 
L 425 0 
z
" id="ArialMT-69" transform="scale(0.015625)"/>
      <path d="M 1344 0 
L 81 3319 
L 675 3319 
L 1388 1331 
Q 1503 1009 1600 663 
Q 1675 925 1809 1294 
L 2547 3319 
L 3125 3319 
L 1869 0 
L 1344 0 
z
" id="ArialMT-76" transform="scale(0.015625)"/>
      <path d="M 2588 409 
Q 2275 144 1986 34 
Q 1697 -75 1366 -75 
Q 819 -75 525 192 
Q 231 459 231 875 
Q 231 1119 342 1320 
Q 453 1522 633 1644 
Q 813 1766 1038 1828 
Q 1203 1872 1538 1913 
Q 2219 1994 2541 2106 
Q 2544 2222 2544 2253 
Q 2544 2597 2384 2738 
Q 2169 2928 1744 2928 
Q 1347 2928 1158 2789 
Q 969 2650 878 2297 
L 328 2372 
Q 403 2725 575 2942 
Q 747 3159 1072 3276 
Q 1397 3394 1825 3394 
Q 2250 3394 2515 3294 
Q 2781 3194 2906 3042 
Q 3031 2891 3081 2659 
Q 3109 2516 3109 2141 
L 3109 1391 
Q 3109 606 3145 398 
Q 3181 191 3288 0 
L 2700 0 
Q 2613 175 2588 409 
z
M 2541 1666 
Q 2234 1541 1622 1453 
Q 1275 1403 1131 1340 
Q 988 1278 909 1158 
Q 831 1038 831 891 
Q 831 666 1001 516 
Q 1172 366 1500 366 
Q 1825 366 2078 508 
Q 2331 650 2450 897 
Q 2541 1088 2541 1459 
L 2541 1666 
z
" id="ArialMT-61" transform="scale(0.015625)"/>
      <path d="M 213 1659 
Q 213 2581 725 3025 
Q 1153 3394 1769 3394 
Q 2453 3394 2887 2945 
Q 3322 2497 3322 1706 
Q 3322 1066 3130 698 
Q 2938 331 2570 128 
Q 2203 -75 1769 -75 
Q 1072 -75 642 372 
Q 213 819 213 1659 
z
M 791 1659 
Q 791 1022 1069 705 
Q 1347 388 1769 388 
Q 2188 388 2466 706 
Q 2744 1025 2744 1678 
Q 2744 2294 2464 2611 
Q 2184 2928 1769 2928 
Q 1347 2928 1069 2612 
Q 791 2297 791 1659 
z
" id="ArialMT-6f" transform="scale(0.015625)"/>
      <path d="M 422 0 
L 422 3319 
L 928 3319 
L 928 2847 
Q 1294 3394 1984 3394 
Q 2284 3394 2536 3286 
Q 2788 3178 2913 3003 
Q 3038 2828 3088 2588 
Q 3119 2431 3119 2041 
L 3119 0 
L 2556 0 
L 2556 2019 
Q 2556 2363 2490 2533 
Q 2425 2703 2258 2804 
Q 2091 2906 1866 2906 
Q 1506 2906 1245 2678 
Q 984 2450 984 1813 
L 984 0 
L 422 0 
z
" id="ArialMT-6e" transform="scale(0.015625)"/>
      <path d="M 197 991 
L 753 1078 
Q 800 744 1014 566 
Q 1228 388 1613 388 
Q 2000 388 2187 545 
Q 2375 703 2375 916 
Q 2375 1106 2209 1216 
Q 2094 1291 1634 1406 
Q 1016 1563 777 1677 
Q 538 1791 414 1992 
Q 291 2194 291 2438 
Q 291 2659 392 2848 
Q 494 3038 669 3163 
Q 800 3259 1026 3326 
Q 1253 3394 1513 3394 
Q 1903 3394 2198 3281 
Q 2494 3169 2634 2976 
Q 2775 2784 2828 2463 
L 2278 2388 
Q 2241 2644 2061 2787 
Q 1881 2931 1553 2931 
Q 1166 2931 1000 2803 
Q 834 2675 834 2503 
Q 834 2394 903 2306 
Q 972 2216 1119 2156 
Q 1203 2125 1616 2013 
Q 2213 1853 2448 1751 
Q 2684 1650 2818 1456 
Q 2953 1263 2953 975 
Q 2953 694 2789 445 
Q 2625 197 2315 61 
Q 2006 -75 1616 -75 
Q 969 -75 630 194 
Q 291 463 197 991 
z
" id="ArialMT-73" transform="scale(0.015625)"/>
      <path id="ArialMT-20" transform="scale(0.015625)"/>
      <path d="M 556 0 
L 556 2881 
L 59 2881 
L 59 3319 
L 556 3319 
L 556 3672 
Q 556 4006 616 4169 
Q 697 4388 901 4523 
Q 1106 4659 1475 4659 
Q 1713 4659 2000 4603 
L 1916 4113 
Q 1741 4144 1584 4144 
Q 1328 4144 1222 4034 
Q 1116 3925 1116 3625 
L 1116 3319 
L 1763 3319 
L 1763 2881 
L 1116 2881 
L 1116 0 
L 556 0 
z
" id="ArialMT-66" transform="scale(0.015625)"/>
      <path d="M 416 0 
L 416 3319 
L 922 3319 
L 922 2816 
Q 1116 3169 1280 3281 
Q 1444 3394 1641 3394 
Q 1925 3394 2219 3213 
L 2025 2691 
Q 1819 2813 1613 2813 
Q 1428 2813 1281 2702 
Q 1134 2591 1072 2394 
Q 978 2094 978 1738 
L 978 0 
L 416 0 
z
" id="ArialMT-72" transform="scale(0.015625)"/>
      <path d="M 3384 2003 
L 350 706 
L 350 1266 
L 2753 2263 
L 350 3250 
L 350 3809 
L 3384 2528 
L 3384 2003 
z
" id="ArialMT-3e" transform="scale(0.015625)"/>
      <path d="M 203 1375 
L 203 1941 
L 1931 1941 
L 1931 1375 
L 203 1375 
z
" id="ArialMT-2d" transform="scale(0.015625)"/>
      <path d="M 350 2003 
L 350 2528 
L 3384 3809 
L 3384 3250 
L 978 2263 
L 3384 1266 
L 3384 706 
L 350 2003 
z
" id="ArialMT-3c" transform="scale(0.015625)"/>
     </defs>
     <use xlink:href="#ArialMT-41"/>
     <use x="66.699219" xlink:href="#ArialMT-63"/>
     <use x="116.699219" xlink:href="#ArialMT-74"/>
     <use x="144.482422" xlink:href="#ArialMT-69"/>
     <use x="166.699219" xlink:href="#ArialMT-76"/>
     <use x="216.699219" xlink:href="#ArialMT-61"/>
     <use x="272.314453" xlink:href="#ArialMT-74"/>
     <use x="300.097656" xlink:href="#ArialMT-69"/>
     <use x="322.314453" xlink:href="#ArialMT-6f"/>
     <use x="377.929688" xlink:href="#ArialMT-6e"/>
     <use x="433.544922" xlink:href="#ArialMT-73"/>
     <use x="483.544922" xlink:href="#ArialMT-20"/>
     <use x="511.328125" xlink:href="#ArialMT-66"/>
     <use x="539.111328" xlink:href="#ArialMT-6f"/>
     <use x="594.726562" xlink:href="#ArialMT-72"/>
     <use x="628.027344" xlink:href="#ArialMT-20"/>
     <use x="655.810547" xlink:href="#ArialMT-3e"/>
     <use x="714.208984" xlink:href="#ArialMT-2d"/>
     <use x="747.509766" xlink:href="#ArialMT-3c"/>
    </g>
   </g>
   <g id="legend_1">
    <g id="patch_7">
     <path d="M 640.044062 158.514363 
L 750.46 158.514363 
Q 752.66 158.514363 752.66 156.314363 
L 752.66 79.1528 
Q 752.66 76.9528 750.46 76.9528 
L 640.044062 76.9528 
Q 637.844062 76.9528 637.844062 79.1528 
L 637.844062 156.314363 
Q 637.844062 158.514363 640.044062 158.514363 
z
" style="fill:#ffffff;opacity:0.8;stroke:#cccccc;stroke-linejoin:miter;"/>
    </g>
    <g id="line2d_11">
     <path d="M 642.244062 85.376394 
L 664.244062 85.376394 
" style="fill:none;stroke:#4c72b0;stroke-linecap:round;stroke-width:1.5;"/>
    </g>
    <g id="line2d_12"/>
    <g id="text_17">
     <!-- regular -->
     <g style="fill:#262626;" transform="translate(673.044062 89.226394)scale(0.11 -0.11)">
      <defs>
       <path d="M 2694 1069 
L 3275 997 
Q 3138 488 2766 206 
Q 2394 -75 1816 -75 
Q 1088 -75 661 373 
Q 234 822 234 1631 
Q 234 2469 665 2931 
Q 1097 3394 1784 3394 
Q 2450 3394 2872 2941 
Q 3294 2488 3294 1666 
Q 3294 1616 3291 1516 
L 816 1516 
Q 847 969 1125 678 
Q 1403 388 1819 388 
Q 2128 388 2347 550 
Q 2566 713 2694 1069 
z
M 847 1978 
L 2700 1978 
Q 2663 2397 2488 2606 
Q 2219 2931 1791 2931 
Q 1403 2931 1139 2672 
Q 875 2413 847 1978 
z
" id="ArialMT-65" transform="scale(0.015625)"/>
       <path d="M 319 -275 
L 866 -356 
Q 900 -609 1056 -725 
Q 1266 -881 1628 -881 
Q 2019 -881 2231 -725 
Q 2444 -569 2519 -288 
Q 2563 -116 2559 434 
Q 2191 0 1641 0 
Q 956 0 581 494 
Q 206 988 206 1678 
Q 206 2153 378 2554 
Q 550 2956 876 3175 
Q 1203 3394 1644 3394 
Q 2231 3394 2613 2919 
L 2613 3319 
L 3131 3319 
L 3131 450 
Q 3131 -325 2973 -648 
Q 2816 -972 2473 -1159 
Q 2131 -1347 1631 -1347 
Q 1038 -1347 672 -1080 
Q 306 -813 319 -275 
z
M 784 1719 
Q 784 1066 1043 766 
Q 1303 466 1694 466 
Q 2081 466 2343 764 
Q 2606 1063 2606 1700 
Q 2606 2309 2336 2618 
Q 2066 2928 1684 2928 
Q 1309 2928 1046 2623 
Q 784 2319 784 1719 
z
" id="ArialMT-67" transform="scale(0.015625)"/>
       <path d="M 2597 0 
L 2597 488 
Q 2209 -75 1544 -75 
Q 1250 -75 995 37 
Q 741 150 617 320 
Q 494 491 444 738 
Q 409 903 409 1263 
L 409 3319 
L 972 3319 
L 972 1478 
Q 972 1038 1006 884 
Q 1059 663 1231 536 
Q 1403 409 1656 409 
Q 1909 409 2131 539 
Q 2353 669 2445 892 
Q 2538 1116 2538 1541 
L 2538 3319 
L 3100 3319 
L 3100 0 
L 2597 0 
z
" id="ArialMT-75" transform="scale(0.015625)"/>
       <path d="M 409 0 
L 409 4581 
L 972 4581 
L 972 0 
L 409 0 
z
" id="ArialMT-6c" transform="scale(0.015625)"/>
      </defs>
      <use xlink:href="#ArialMT-72"/>
      <use x="33.300781" xlink:href="#ArialMT-65"/>
      <use x="88.916016" xlink:href="#ArialMT-67"/>
      <use x="144.53125" xlink:href="#ArialMT-75"/>
      <use x="200.146484" xlink:href="#ArialMT-6c"/>
      <use x="222.363281" xlink:href="#ArialMT-61"/>
      <use x="277.978516" xlink:href="#ArialMT-72"/>
     </g>
    </g>
    <g id="line2d_13">
     <path d="M 642.244062 101.0978 
L 664.244062 101.0978 
" style="fill:none;stroke:#dd8452;stroke-dasharray:6,2.25;stroke-dashoffset:0;stroke-width:1.5;"/>
    </g>
    <g id="line2d_14"/>
    <g id="text_18">
     <!-- splitted_3s -->
     <g style="fill:#262626;" transform="translate(673.044062 104.9478)scale(0.11 -0.11)">
      <defs>
       <path d="M 422 -1272 
L 422 3319 
L 934 3319 
L 934 2888 
Q 1116 3141 1344 3267 
Q 1572 3394 1897 3394 
Q 2322 3394 2647 3175 
Q 2972 2956 3137 2557 
Q 3303 2159 3303 1684 
Q 3303 1175 3120 767 
Q 2938 359 2589 142 
Q 2241 -75 1856 -75 
Q 1575 -75 1351 44 
Q 1128 163 984 344 
L 984 -1272 
L 422 -1272 
z
M 931 1641 
Q 931 1000 1190 694 
Q 1450 388 1819 388 
Q 2194 388 2461 705 
Q 2728 1022 2728 1688 
Q 2728 2322 2467 2637 
Q 2206 2953 1844 2953 
Q 1484 2953 1207 2617 
Q 931 2281 931 1641 
z
" id="ArialMT-70" transform="scale(0.015625)"/>
       <path d="M 2575 0 
L 2575 419 
Q 2259 -75 1647 -75 
Q 1250 -75 917 144 
Q 584 363 401 755 
Q 219 1147 219 1656 
Q 219 2153 384 2558 
Q 550 2963 881 3178 
Q 1213 3394 1622 3394 
Q 1922 3394 2156 3267 
Q 2391 3141 2538 2938 
L 2538 4581 
L 3097 4581 
L 3097 0 
L 2575 0 
z
M 797 1656 
Q 797 1019 1065 703 
Q 1334 388 1700 388 
Q 2069 388 2326 689 
Q 2584 991 2584 1609 
Q 2584 2291 2321 2609 
Q 2059 2928 1675 2928 
Q 1300 2928 1048 2622 
Q 797 2316 797 1656 
z
" id="ArialMT-64" transform="scale(0.015625)"/>
       <path d="M -97 -1272 
L -97 -866 
L 3631 -866 
L 3631 -1272 
L -97 -1272 
z
" id="ArialMT-5f" transform="scale(0.015625)"/>
       <path d="M 269 1209 
L 831 1284 
Q 928 806 1161 595 
Q 1394 384 1728 384 
Q 2125 384 2398 659 
Q 2672 934 2672 1341 
Q 2672 1728 2419 1979 
Q 2166 2231 1775 2231 
Q 1616 2231 1378 2169 
L 1441 2663 
Q 1497 2656 1531 2656 
Q 1891 2656 2178 2843 
Q 2466 3031 2466 3422 
Q 2466 3731 2256 3934 
Q 2047 4138 1716 4138 
Q 1388 4138 1169 3931 
Q 950 3725 888 3313 
L 325 3413 
Q 428 3978 793 4289 
Q 1159 4600 1703 4600 
Q 2078 4600 2393 4439 
Q 2709 4278 2876 4000 
Q 3044 3722 3044 3409 
Q 3044 3113 2884 2869 
Q 2725 2625 2413 2481 
Q 2819 2388 3044 2092 
Q 3269 1797 3269 1353 
Q 3269 753 2831 336 
Q 2394 -81 1725 -81 
Q 1122 -81 723 278 
Q 325 638 269 1209 
z
" id="ArialMT-33" transform="scale(0.015625)"/>
      </defs>
      <use xlink:href="#ArialMT-73"/>
      <use x="50" xlink:href="#ArialMT-70"/>
      <use x="105.615234" xlink:href="#ArialMT-6c"/>
      <use x="127.832031" xlink:href="#ArialMT-69"/>
      <use x="150.048828" xlink:href="#ArialMT-74"/>
      <use x="177.832031" xlink:href="#ArialMT-74"/>
      <use x="205.615234" xlink:href="#ArialMT-65"/>
      <use x="261.230469" xlink:href="#ArialMT-64"/>
      <use x="316.845703" xlink:href="#ArialMT-5f"/>
      <use x="372.460938" xlink:href="#ArialMT-33"/>
      <use x="428.076172" xlink:href="#ArialMT-73"/>
     </g>
    </g>
    <g id="line2d_15">
     <path d="M 642.244062 116.6903 
L 664.244062 116.6903 
" style="fill:none;stroke:#55a868;stroke-dasharray:1.5,1.5;stroke-dashoffset:0;stroke-width:1.5;"/>
    </g>
    <g id="line2d_16"/>
    <g id="text_19">
     <!-- splitted_1s -->
     <g style="fill:#262626;" transform="translate(673.044062 120.5403)scale(0.11 -0.11)">
      <use xlink:href="#ArialMT-73"/>
      <use x="50" xlink:href="#ArialMT-70"/>
      <use x="105.615234" xlink:href="#ArialMT-6c"/>
      <use x="127.832031" xlink:href="#ArialMT-69"/>
      <use x="150.048828" xlink:href="#ArialMT-74"/>
      <use x="177.832031" xlink:href="#ArialMT-74"/>
      <use x="205.615234" xlink:href="#ArialMT-65"/>
      <use x="261.230469" xlink:href="#ArialMT-64"/>
      <use x="316.845703" xlink:href="#ArialMT-5f"/>
      <use x="372.460938" xlink:href="#ArialMT-31"/>
      <use x="428.076172" xlink:href="#ArialMT-73"/>
     </g>
    </g>
    <g id="line2d_17">
     <path d="M 642.244062 132.384206 
L 664.244062 132.384206 
" style="fill:none;stroke:#c44e52;stroke-dasharray:4.5,1.875,2.25,1.875;stroke-dashoffset:0;stroke-width:1.5;"/>
    </g>
    <g id="line2d_18"/>
    <g id="text_20">
     <!-- overlap_1f_3s -->
     <g style="fill:#262626;" transform="translate(673.044062 136.234206)scale(0.11 -0.11)">
      <use xlink:href="#ArialMT-6f"/>
      <use x="55.615234" xlink:href="#ArialMT-76"/>
      <use x="105.615234" xlink:href="#ArialMT-65"/>
      <use x="161.230469" xlink:href="#ArialMT-72"/>
      <use x="194.53125" xlink:href="#ArialMT-6c"/>
      <use x="216.748047" xlink:href="#ArialMT-61"/>
      <use x="272.363281" xlink:href="#ArialMT-70"/>
      <use x="327.978516" xlink:href="#ArialMT-5f"/>
      <use x="383.59375" xlink:href="#ArialMT-31"/>
      <use x="439.208984" xlink:href="#ArialMT-66"/>
      <use x="466.992188" xlink:href="#ArialMT-5f"/>
      <use x="522.607422" xlink:href="#ArialMT-33"/>
      <use x="578.222656" xlink:href="#ArialMT-73"/>
     </g>
    </g>
    <g id="line2d_19">
     <path d="M 642.244062 148.078113 
L 664.244062 148.078113 
" style="fill:none;stroke:#8172b3;stroke-dasharray:7.5,1.5,1.5,1.5;stroke-dashoffset:0;stroke-width:1.5;"/>
    </g>
    <g id="line2d_20"/>
    <g id="text_21">
     <!-- overlap_10f_3s -->
     <g style="fill:#262626;" transform="translate(673.044062 151.928112)scale(0.11 -0.11)">
      <use xlink:href="#ArialMT-6f"/>
      <use x="55.615234" xlink:href="#ArialMT-76"/>
      <use x="105.615234" xlink:href="#ArialMT-65"/>
      <use x="161.230469" xlink:href="#ArialMT-72"/>
      <use x="194.53125" xlink:href="#ArialMT-6c"/>
      <use x="216.748047" xlink:href="#ArialMT-61"/>
      <use x="272.363281" xlink:href="#ArialMT-70"/>
      <use x="327.978516" xlink:href="#ArialMT-5f"/>
      <use x="383.59375" xlink:href="#ArialMT-31"/>
      <use x="439.208984" xlink:href="#ArialMT-30"/>
      <use x="494.824219" xlink:href="#ArialMT-66"/>
      <use x="522.607422" xlink:href="#ArialMT-5f"/>
      <use x="578.222656" xlink:href="#ArialMT-33"/>
      <use x="633.837891" xlink:href="#ArialMT-73"/>
     </g>
    </g>
   </g>
  </g>
 </g>
 <defs>
  <clipPath id="p8261e9794e">
   <rect height="458.4888" width="652.86" x="105.3" y="71.4528"/>
  </clipPath>
 </defs>
</svg>
