<?xml version="1.0" encoding="utf-8" standalone="no"?>
<!DOCTYPE svg PUBLIC "-//W3C//DTD SVG 1.1//EN"
  "http://www.w3.org/Graphics/SVG/1.1/DTD/svg11.dtd">
<svg height="595.44pt" version="1.1" viewBox="0 0 842.4 595.44" width="842.4pt" xmlns="http://www.w3.org/2000/svg" xmlns:xlink="http://www.w3.org/1999/xlink">
 <metadata>
  <rdf:RDF xmlns:cc="http://creativecommons.org/ns#" xmlns:dc="http://purl.org/dc/elements/1.1/" xmlns:rdf="http://www.w3.org/1999/02/22-rdf-syntax-ns#">
   <cc:Work>
    <dc:type rdf:resource="http://purl.org/dc/dcmitype/StillImage"/>
    <dc:date>2021-06-01T00:54:12.112219</dc:date>
    <dc:format>image/svg+xml</dc:format>
    <dc:creator>
     <cc:Agent>
      <dc:title>Matplotlib v3.4.1, https://matplotlib.org/</dc:title>
     </cc:Agent>
    </dc:creator>
   </cc:Work>
  </rdf:RDF>
 </metadata>
 <defs>
  <style type="text/css">*{stroke-linecap:butt;stroke-linejoin:round;}</style>
 </defs>
 <g id="figure_1">
  <g id="patch_1">
   <path d="M 0 595.44 
L 842.4 595.44 
L 842.4 0 
L 0 0 
z
" style="fill:#ffffff;"/>
  </g>
  <g id="axes_1">
   <g id="patch_2">
    <path d="M 105.3 529.9416 
L 758.16 529.9416 
L 758.16 71.4528 
L 105.3 71.4528 
z
" style="fill:#ffffff;"/>
   </g>
   <g id="matplotlib.axis_1">
    <g id="xtick_1">
     <g id="text_1">
      <!-- 0 -->
      <g style="fill:#262626;" transform="translate(131.916939 547.315194)scale(0.11 -0.11)">
       <defs>
        <path d="M 266 2259 
Q 266 3072 433 3567 
Q 600 4063 929 4331 
Q 1259 4600 1759 4600 
Q 2128 4600 2406 4451 
Q 2684 4303 2865 4023 
Q 3047 3744 3150 3342 
Q 3253 2941 3253 2259 
Q 3253 1453 3087 958 
Q 2922 463 2592 192 
Q 2263 -78 1759 -78 
Q 1097 -78 719 397 
Q 266 969 266 2259 
z
M 844 2259 
Q 844 1131 1108 757 
Q 1372 384 1759 384 
Q 2147 384 2411 759 
Q 2675 1134 2675 2259 
Q 2675 3391 2411 3762 
Q 2147 4134 1753 4134 
Q 1366 4134 1134 3806 
Q 844 3388 844 2259 
z
" id="ArialMT-30" transform="scale(0.015625)"/>
       </defs>
       <use xlink:href="#ArialMT-30"/>
      </g>
     </g>
    </g>
    <g id="xtick_2">
     <g id="text_2">
      <!-- 25 -->
      <g style="fill:#262626;" transform="translate(201.950676 547.315194)scale(0.11 -0.11)">
       <defs>
        <path d="M 3222 541 
L 3222 0 
L 194 0 
Q 188 203 259 391 
Q 375 700 629 1000 
Q 884 1300 1366 1694 
Q 2113 2306 2375 2664 
Q 2638 3022 2638 3341 
Q 2638 3675 2398 3904 
Q 2159 4134 1775 4134 
Q 1369 4134 1125 3890 
Q 881 3647 878 3216 
L 300 3275 
Q 359 3922 746 4261 
Q 1134 4600 1788 4600 
Q 2447 4600 2831 4234 
Q 3216 3869 3216 3328 
Q 3216 3053 3103 2787 
Q 2991 2522 2730 2228 
Q 2469 1934 1863 1422 
Q 1356 997 1212 845 
Q 1069 694 975 541 
L 3222 541 
z
" id="ArialMT-32" transform="scale(0.015625)"/>
        <path d="M 266 1200 
L 856 1250 
Q 922 819 1161 601 
Q 1400 384 1738 384 
Q 2144 384 2425 690 
Q 2706 997 2706 1503 
Q 2706 1984 2436 2262 
Q 2166 2541 1728 2541 
Q 1456 2541 1237 2417 
Q 1019 2294 894 2097 
L 366 2166 
L 809 4519 
L 3088 4519 
L 3088 3981 
L 1259 3981 
L 1013 2750 
Q 1425 3038 1878 3038 
Q 2478 3038 2890 2622 
Q 3303 2206 3303 1553 
Q 3303 931 2941 478 
Q 2500 -78 1738 -78 
Q 1113 -78 717 272 
Q 322 622 266 1200 
z
" id="ArialMT-35" transform="scale(0.015625)"/>
       </defs>
       <use xlink:href="#ArialMT-32"/>
       <use x="55.615234" xlink:href="#ArialMT-35"/>
      </g>
     </g>
    </g>
    <g id="xtick_3">
     <g id="text_3">
      <!-- 50 -->
      <g style="fill:#262626;" transform="translate(275.042928 547.315194)scale(0.11 -0.11)">
       <use xlink:href="#ArialMT-35"/>
       <use x="55.615234" xlink:href="#ArialMT-30"/>
      </g>
     </g>
    </g>
    <g id="xtick_4">
     <g id="text_4">
      <!-- 75 -->
      <g style="fill:#262626;" transform="translate(348.135181 547.315194)scale(0.11 -0.11)">
       <defs>
        <path d="M 303 3981 
L 303 4522 
L 3269 4522 
L 3269 4084 
Q 2831 3619 2401 2847 
Q 1972 2075 1738 1259 
Q 1569 684 1522 0 
L 944 0 
Q 953 541 1156 1306 
Q 1359 2072 1739 2783 
Q 2119 3494 2547 3981 
L 303 3981 
z
" id="ArialMT-37" transform="scale(0.015625)"/>
       </defs>
       <use xlink:href="#ArialMT-37"/>
       <use x="55.615234" xlink:href="#ArialMT-35"/>
      </g>
     </g>
    </g>
    <g id="xtick_5">
     <g id="text_5">
      <!-- 100 -->
      <g style="fill:#262626;" transform="translate(418.168918 547.315194)scale(0.11 -0.11)">
       <defs>
        <path d="M 2384 0 
L 1822 0 
L 1822 3584 
Q 1619 3391 1289 3197 
Q 959 3003 697 2906 
L 697 3450 
Q 1169 3672 1522 3987 
Q 1875 4303 2022 4600 
L 2384 4600 
L 2384 0 
z
" id="ArialMT-31" transform="scale(0.015625)"/>
       </defs>
       <use xlink:href="#ArialMT-31"/>
       <use x="55.615234" xlink:href="#ArialMT-30"/>
       <use x="111.230469" xlink:href="#ArialMT-30"/>
      </g>
     </g>
    </g>
    <g id="xtick_6">
     <g id="text_6">
      <!-- 125 -->
      <g style="fill:#262626;" transform="translate(491.261171 547.315194)scale(0.11 -0.11)">
       <use xlink:href="#ArialMT-31"/>
       <use x="55.615234" xlink:href="#ArialMT-32"/>
       <use x="111.230469" xlink:href="#ArialMT-35"/>
      </g>
     </g>
    </g>
    <g id="xtick_7">
     <g id="text_7">
      <!-- 150 -->
      <g style="fill:#262626;" transform="translate(564.353423 547.315194)scale(0.11 -0.11)">
       <use xlink:href="#ArialMT-31"/>
       <use x="55.615234" xlink:href="#ArialMT-35"/>
       <use x="111.230469" xlink:href="#ArialMT-30"/>
      </g>
     </g>
    </g>
    <g id="xtick_8">
     <g id="text_8">
      <!-- 175 -->
      <g style="fill:#262626;" transform="translate(637.445676 547.315194)scale(0.11 -0.11)">
       <use xlink:href="#ArialMT-31"/>
       <use x="55.615234" xlink:href="#ArialMT-37"/>
       <use x="111.230469" xlink:href="#ArialMT-35"/>
      </g>
     </g>
    </g>
    <g id="xtick_9">
     <g id="text_9">
      <!-- 200 -->
      <g style="fill:#262626;" transform="translate(710.537928 547.315194)scale(0.11 -0.11)">
       <use xlink:href="#ArialMT-32"/>
       <use x="55.615234" xlink:href="#ArialMT-30"/>
       <use x="111.230469" xlink:href="#ArialMT-30"/>
      </g>
     </g>
    </g>
   </g>
   <g id="matplotlib.axis_2">
    <g id="ytick_1">
     <g id="text_10">
      <!-- −25 -->
      <g style="fill:#262626;" transform="translate(77.14125 533.878397)scale(0.11 -0.11)">
       <defs>
        <path d="M 3381 1997 
L 356 1997 
L 356 2522 
L 3381 2522 
L 3381 1997 
z
" id="ArialMT-2212" transform="scale(0.015625)"/>
       </defs>
       <use xlink:href="#ArialMT-2212"/>
       <use x="58.398438" xlink:href="#ArialMT-32"/>
       <use x="114.013672" xlink:href="#ArialMT-35"/>
      </g>
     </g>
    </g>
    <g id="ytick_2">
     <g id="text_11">
      <!-- −20 -->
      <g style="fill:#262626;" transform="translate(77.14125 442.180637)scale(0.11 -0.11)">
       <use xlink:href="#ArialMT-2212"/>
       <use x="58.398438" xlink:href="#ArialMT-32"/>
       <use x="114.013672" xlink:href="#ArialMT-30"/>
      </g>
     </g>
    </g>
    <g id="ytick_3">
     <g id="text_12">
      <!-- −15 -->
      <g style="fill:#262626;" transform="translate(77.14125 350.482877)scale(0.11 -0.11)">
       <use xlink:href="#ArialMT-2212"/>
       <use x="58.398438" xlink:href="#ArialMT-31"/>
       <use x="114.013672" xlink:href="#ArialMT-35"/>
      </g>
     </g>
    </g>
    <g id="ytick_4">
     <g id="text_13">
      <!-- −10 -->
      <g style="fill:#262626;" transform="translate(77.14125 258.785117)scale(0.11 -0.11)">
       <use xlink:href="#ArialMT-2212"/>
       <use x="58.398438" xlink:href="#ArialMT-31"/>
       <use x="114.013672" xlink:href="#ArialMT-30"/>
      </g>
     </g>
    </g>
    <g id="ytick_5">
     <g id="text_14">
      <!-- −5 -->
      <g style="fill:#262626;" transform="translate(83.258281 167.087357)scale(0.11 -0.11)">
       <use xlink:href="#ArialMT-2212"/>
       <use x="58.398438" xlink:href="#ArialMT-35"/>
      </g>
     </g>
    </g>
    <g id="ytick_6">
     <g id="text_15">
      <!-- 0 -->
      <g style="fill:#262626;" transform="translate(89.682969 75.389597)scale(0.11 -0.11)">
       <use xlink:href="#ArialMT-30"/>
      </g>
     </g>
    </g>
   </g>
   <g id="line2d_1">
    <path clip-path="url(#p790a9d3480)" d="M 134.975455 558.917391 
L 137.899145 559.92135 
L 140.822835 560.742259 
L 143.746525 560.716933 
L 146.670215 561.43612 
L 149.593905 563.445577 
L 152.517595 564.013546 
L 158.364975 569.156783 
L 161.288665 570.458491 
L 164.212356 573.616198 
L 167.136046 577.772232 
L 169.452815 596.44 
M 185.450858 596.44 
L 187.601876 544.071039 
L 189.872901 596.44 
M 201.641849 596.44 
L 202.220327 582.49669 
L 205.144017 574.709321 
L 205.837271 596.44 
M 210.147896 596.44 
L 210.991397 568.089931 
L 213.915087 588.842992 
L 214.804994 596.44 
M 221.698599 596.44 
L 222.686158 589.222839 
L 225.609848 571.911032 
L 227.444102 596.44 
M 232.196269 596.44 
L 234.380918 518.443386 
L 237.803868 596.44 
M 243.430098 596.44 
L 246.075678 494.425648 
L 248.999369 482.539786 
L 251.923059 575.261933 
L 254.846749 568.954179 
L 257.627629 596.44 
M 257.830372 596.44 
L 260.694129 528.994309 
L 262.348709 596.44 
M 265.170498 596.44 
L 266.541509 550.760074 
L 269.465199 537.45868 
L 272.388889 554.237428 
L 275.312579 571.858177 
L 278.23627 576.121565 
L 281.15996 563.646152 
L 284.08365 535.706501 
L 287.00734 548.447761 
L 289.93103 590.263457 
L 292.85472 540.888286 
L 295.77841 521.175038 
L 298.7021 579.127809 
L 301.62579 584.107935 
L 304.549481 553.510055 
L 307.473171 528.753507 
L 310.396861 548.473751 
L 313.320551 514.505066 
L 316.244241 551.155977 
L 319.167931 521.72884 
L 322.091621 542.811727 
L 325.015311 508.024197 
L 327.939001 546.705377 
L 330.862691 581.402763 
L 333.786382 554.960743 
L 336.710072 516.857501 
L 339.633762 577.353208 
L 341.907678 596.44 
M 342.766528 596.44 
L 345.481142 525.625008 
L 348.404832 489.570995 
L 351.328522 475.13877 
L 354.252212 549.176953 
L 357.175902 535.726124 
L 360.099592 521.410103 
L 362.867731 596.44 
M 363.171458 596.44 
L 365.946973 517.465102 
L 368.870663 518.564836 
L 371.794353 538.46012 
L 374.752904 596.44 
M 382.174439 596.44 
L 383.489113 555.100137 
L 386.412803 533.775294 
L 389.336494 575.320595 
L 392.260184 552.992492 
L 395.183874 569.169586 
L 398.107564 517.152697 
L 401.031254 491.237998 
L 403.954944 493.539607 
L 406.878634 540.490704 
L 409.802324 498.75931 
L 412.726014 481.652941 
L 415.649704 567.113641 
L 418.573395 545.295546 
L 421.497085 586.840427 
L 421.876526 596.44 
M 432.911543 596.44 
L 433.191845 594.060002 
L 436.115535 525.022234 
L 439.039225 541.537933 
L 441.962915 594.100579 
L 444.886605 588.127408 
L 447.810296 505.988226 
L 450.733986 470.881609 
L 453.657676 541.639969 
L 456.581366 520.458894 
L 458.148887 596.44 
M 461.173957 596.44 
L 462.428746 547.015089 
L 465.352436 558.52698 
L 468.276126 541.76114 
L 471.199816 539.758679 
L 473.31197 596.44 
M 474.960992 596.44 
L 477.047197 542.189679 
L 479.970887 457.637232 
L 482.894577 576.188342 
L 485.818267 580.552052 
L 488.741957 583.367061 
L 491.665647 538.686825 
L 494.589337 539.411574 
L 496.393604 596.44 
M 498.570346 596.44 
L 500.436717 533.983565 
L 503.360408 466.316729 
L 506.284098 551.442672 
L 507.704968 596.44 
M 515.927278 596.44 
L 517.978858 527.743952 
L 520.902548 576.057587 
L 523.826238 592.251226 
L 526.749928 548.379725 
L 529.370155 596.44 
M 534.099978 596.44 
L 535.520999 547.447301 
L 538.444689 521.160591 
L 541.368379 589.254951 
L 542.646119 596.44 
M 544.700421 596.44 
L 547.215759 539.428154 
L 550.139449 578.2113 
L 553.063139 486.938162 
L 555.986829 563.044952 
L 558.910519 541.362998 
L 561.83421 542.712734 
L 564.7579 555.1482 
L 567.68159 517.222272 
L 570.60528 520.942701 
L 573.52897 514.208507 
L 576.45266 494.397035 
L 579.37635 530.180793 
L 582.30004 542.665581 
L 585.22373 536.663271 
L 588.147421 523.049227 
L 591.071111 518.720007 
L 593.994801 541.905747 
L 596.918491 475.108722 
L 599.842181 535.089315 
L 602.765871 523.242736 
L 605.689561 523.264458 
L 608.613251 515.95299 
L 611.407249 596.44 
M 614.640081 596.44 
L 617.384322 454.360803 
L 620.308012 490.402153 
L 623.231702 552.223984 
L 625.498535 596.44 
M 627.95982 596.44 
L 632.002772 567.606473 
L 634.926462 544.951763 
L 637.850152 579.568941 
L 640.773842 508.593495 
L 643.697532 452.708142 
L 646.621223 498.271795 
L 649.544913 515.086643 
L 652.468603 588.886192 
L 655.392293 550.355916 
L 658.315983 514.892294 
L 661.239673 577.378743 
L 664.163363 514.089155 
L 667.087053 573.933256 
L 670.010743 580.342137 
L 672.934433 563.455441 
L 675.858124 569.486644 
L 678.781814 535.590927 
L 681.939001 596.44 
M 686.259025 596.44 
L 687.552884 567.29795 
L 688.366891 596.44 
M 700.082626 596.44 
L 702.171335 585.106087 
L 705.095025 585.194552 
L 708.018715 578.80407 
L 710.942405 580.57304 
L 713.866095 579.677169 
L 716.789785 580.704879 
L 719.713475 579.201932 
L 722.637165 576.769078 
L 725.560855 580.497098 
L 728.484545 581.207715 
L 728.484545 581.207715 
" style="fill:none;stroke:#4c72b0;stroke-linecap:round;stroke-width:1.5;"/>
   </g>
   <g id="line2d_2">
    <path clip-path="url(#p790a9d3480)" d="M 134.975455 550.171047 
L 137.899145 553.858595 
L 140.822835 554.489388 
L 143.746525 554.785318 
L 146.670215 555.903346 
L 149.593905 558.226048 
L 152.517595 556.905486 
L 155.441285 558.88458 
L 158.364975 558.941737 
L 161.288665 560.463539 
L 164.212356 561.702457 
L 167.136046 562.592731 
L 170.059736 583.074733 
L 172.983426 589.219341 
L 174.154005 596.44 
M 185.00559 596.44 
L 187.601876 518.342923 
L 190.085229 596.44 
M 202.043172 596.44 
L 202.220327 593.607187 
L 203.113833 596.44 
M 210.848094 596.44 
L 210.991397 592.160173 
L 213.915087 573.420171 
L 215.49545 596.44 
M 220.913504 596.44 
L 222.686158 588.270651 
L 225.609848 565.962242 
L 228.938603 596.44 
M 232.001905 596.44 
L 234.380918 512.122654 
L 237.304608 571.118457 
L 238.426322 596.44 
M 243.285074 596.44 
L 246.075678 503.313906 
L 248.999369 509.813315 
L 251.923059 572.105066 
L 254.846749 567.122036 
L 257.404131 596.44 
M 257.986871 596.44 
L 260.694129 543.91188 
L 262.077978 596.44 
M 265.6294 596.44 
L 266.541509 569.93743 
L 269.465199 552.545904 
L 272.388889 584.256355 
L 274.323453 596.44 
M 279.498437 596.44 
L 281.15996 590.156558 
L 284.08365 548.962001 
L 287.00734 562.602211 
L 288.811652 596.44 
M 291.376531 596.44 
L 292.85472 574.972649 
L 295.77841 537.979006 
L 298.541413 596.44 
M 302.54682 596.44 
L 304.549481 567.691789 
L 307.473171 545.032392 
L 310.396861 540.725419 
L 313.320551 531.772274 
L 316.244241 567.820095 
L 319.167931 554.664428 
L 322.091621 552.54342 
L 325.015311 502.177898 
L 327.939001 571.347016 
L 330.862691 578.071241 
L 333.786382 542.915652 
L 336.710072 551.621419 
L 339.633762 591.613017 
L 342.557452 591.533403 
L 345.481142 522.455163 
L 348.404832 497.93214 
L 351.328522 557.406154 
L 354.004166 596.44 
M 354.384782 596.44 
L 360.099592 440.881466 
L 363.023283 441.654277 
L 365.946973 484.260169 
L 368.870663 470.996938 
L 371.794353 481.484967 
L 374.718043 533.823776 
L 377.641733 565.622167 
L 380.565423 596.01461 
L 383.489113 520.743805 
L 389.336494 579.365043 
L 392.260184 558.258719 
L 395.183874 577.0096 
L 398.107564 521.116166 
L 401.031254 489.078723 
L 403.954944 526.385646 
L 406.878634 538.674827 
L 409.802324 538.359553 
L 412.726014 545.256823 
L 415.649704 588.164102 
L 418.573395 548.47606 
L 421.952267 596.44 
M 426.102738 596.44 
L 427.344465 570.436384 
L 430.268155 577.303187 
L 433.191845 560.353877 
L 436.115535 512.421523 
L 439.039225 576.585154 
L 440.580771 596.44 
M 442.957178 596.44 
L 444.886605 561.894567 
L 447.810296 487.065034 
L 450.733986 506.366394 
L 453.657676 546.031838 
L 456.581366 557.187214 
L 457.668976 596.44 
M 461.182652 596.44 
L 462.428746 547.218812 
L 465.352436 573.597099 
L 468.276126 531.149911 
L 471.199816 545.121766 
L 474.123506 590.531193 
L 477.047197 573.863121 
L 479.970887 462.24748 
L 482.894577 569.216879 
L 485.803105 596.44 
M 488.840266 596.44 
L 491.665647 558.357538 
L 494.589337 548.028072 
L 496.284427 596.44 
M 498.589856 596.44 
L 500.436717 536.259148 
L 503.360408 466.895717 
L 506.284098 557.620021 
L 507.750144 596.44 
M 516.415665 596.44 
L 517.978858 556.9851 
L 520.902548 585.461308 
L 523.826238 587.492977 
L 526.749928 560.451051 
L 528.88202 596.44 
M 533.860545 596.44 
L 535.520999 543.75468 
L 538.444689 518.956541 
L 544.242551 596.44 
M 544.313478 596.44 
L 547.215759 505.198134 
L 550.139449 551.41189 
L 553.063139 496.46928 
L 555.986829 496.720681 
L 561.83421 428.651297 
L 564.7579 503.412269 
L 567.68159 477.871506 
L 570.60528 574.314222 
L 573.52897 460.106884 
L 576.45266 458.982175 
L 579.37635 503.219775 
L 582.30004 466.723021 
L 585.22373 547.302939 
L 588.147421 515.84917 
L 591.071111 537.870743 
L 593.994801 565.309866 
L 596.918491 495.913029 
L 599.842181 586.078144 
L 602.765871 542.516846 
L 605.689561 567.418071 
L 608.45258 596.44 
M 616.285213 596.44 
L 617.384322 559.613492 
L 620.308012 547.827427 
L 623.231702 580.136035 
L 623.898112 596.44 
M 634.509996 596.44 
L 634.926462 593.733465 
L 637.850152 594.755298 
L 640.773842 541.177675 
L 643.697532 453.311125 
L 646.621223 519.152359 
L 649.544913 547.504003 
L 652.468603 595.337224 
L 655.392293 580.135511 
L 658.315983 493.640734 
L 661.239673 580.874182 
L 664.163363 510.519035 
L 667.087053 584.687413 
L 670.010743 595.543885 
L 672.934433 565.550563 
L 675.858124 574.615644 
L 678.781814 561.64488 
L 681.345105 596.44 
M 686.250486 596.44 
L 687.552884 564.542197 
L 688.483414 596.44 
M 700.45734 596.44 
L 702.171335 574.917696 
L 705.095025 574.763085 
L 708.018715 573.355668 
L 710.942405 575.562026 
L 713.866095 573.781408 
L 716.789785 575.422736 
L 719.713475 574.719325 
L 722.637165 570.947195 
L 725.560855 575.043029 
L 728.484545 570.938171 
L 728.484545 570.938171 
" style="fill:none;stroke:#dd8452;stroke-dasharray:6,2.25;stroke-dashoffset:0;stroke-width:1.5;"/>
   </g>
   <g id="line2d_3">
    <path clip-path="url(#p790a9d3480)" d="M 134.975455 551.486117 
L 137.899145 554.899388 
L 140.822835 556.735064 
L 143.746525 554.409809 
L 146.670215 562.627711 
L 149.593905 563.838576 
L 152.517595 565.224865 
L 155.441285 586.218414 
L 158.364975 587.330006 
L 161.288665 577.666033 
L 164.212356 579.540152 
L 167.136046 572.654775 
L 170.059736 577.314485 
L 172.81281 596.44 
M 184.255227 596.44 
L 184.678186 580.566603 
L 187.601876 530.145358 
L 190.525567 567.957287 
L 193.449257 591.198855 
L 196.372947 585.843079 
L 197.566452 596.44 
M 201.168295 596.44 
L 202.220327 587.805243 
L 204.616848 596.44 
M 205.200729 596.44 
L 208.067707 500.418583 
L 210.991397 563.470028 
L 213.915087 591.692386 
L 216.838777 569.45873 
L 219.762468 554.667751 
L 222.686158 548.157323 
L 225.609848 500.632275 
L 228.533538 550.361828 
L 231.457228 587.989937 
L 234.380918 521.525886 
L 237.304608 571.534088 
L 238.160494 596.44 
M 243.712025 596.44 
L 246.075678 493.126739 
L 248.999369 531.285598 
L 251.923059 528.32091 
L 254.846749 592.128026 
L 255.762992 596.44 
M 258.142997 596.44 
L 260.694129 531.748348 
L 262.828843 596.44 
M 264.837038 596.44 
L 266.541509 563.014274 
L 272.388889 591.392224 
L 278.23627 554.33824 
L 281.15996 493.558251 
L 284.08365 473.58839 
L 287.00734 464.256657 
L 289.93103 500.035903 
L 292.85472 508.273919 
L 295.77841 533.865822 
L 298.072877 596.44 
M 304.060863 596.44 
L 304.549481 584.997929 
L 307.473171 571.042935 
L 310.396861 595.423205 
L 313.320551 590.459274 
L 315.88516 596.44 
M 316.437488 596.44 
L 319.167931 584.608323 
L 322.091621 571.267017 
L 325.015311 526.045467 
L 327.939001 585.974324 
L 328.985543 596.44 
M 332.007908 596.44 
L 333.786382 567.287981 
L 336.710072 564.985813 
L 338.589937 596.44 
M 344.146777 596.44 
L 345.481142 554.686955 
L 348.404832 513.303576 
L 351.214872 596.44 
M 351.468334 596.44 
L 354.252212 529.488925 
L 357.175902 587.847988 
L 360.099592 497.316179 
L 363.023283 563.150101 
L 365.946973 492.686727 
L 368.870663 538.245868 
L 371.794353 476.91554 
L 374.718043 582.630628 
L 376.65482 596.44 
M 378.571315 596.44 
L 380.565423 581.344941 
L 383.489113 563.647131 
L 386.412803 576.971997 
L 387.821392 596.44 
M 392.130596 596.44 
L 392.260184 595.468818 
L 395.183874 596.138124 
L 398.107564 544.224391 
L 401.031254 528.359108 
L 403.954944 538.027768 
L 406.878634 551.533725 
L 409.802324 583.928278 
L 412.726014 563.422875 
L 415.649704 570.661829 
L 418.09229 596.44 
M 418.798052 596.44 
L 421.497085 535.439954 
L 424.420775 482.82106 
L 427.344465 449.2268 
L 430.268155 467.051728 
L 433.191845 475.702192 
L 436.115535 456.415453 
L 439.039225 540.345188 
L 441.876833 596.44 
M 442.051525 596.44 
L 444.886605 541.993791 
L 447.810296 564.297163 
L 450.733986 512.165819 
L 453.657676 529.192435 
L 456.581366 573.154428 
L 456.985889 596.44 
M 463.361551 596.44 
L 465.352436 571.105025 
L 468.276126 567.259892 
L 471.199816 500.557383 
L 474.123506 558.553215 
L 477.047197 524.571448 
L 479.970887 502.931435 
L 482.894577 567.013004 
L 484.936283 596.44 
M 487.417387 596.44 
L 488.741957 585.91052 
L 491.665647 577.548851 
L 494.589337 486.282008 
L 497.513027 539.599871 
L 500.436717 486.353332 
L 503.360408 506.6427 
L 506.284098 576.692262 
L 509.207788 530.018311 
L 512.131478 541.164942 
L 515.055168 566.544203 
L 517.978858 559.5641 
L 519.951274 596.44 
M 536.480744 596.44 
L 538.444689 571.789267 
L 541.294449 596.44 
M 544.471484 596.44 
L 547.215759 495.697588 
L 550.139449 584.788819 
L 553.063139 534.106554 
L 555.986829 492.703657 
L 558.910519 506.061159 
L 561.83421 473.93672 
L 567.68159 470.080849 
L 570.60528 513.648618 
L 573.52897 548.431531 
L 576.45266 471.262016 
L 579.37635 526.122527 
L 582.30004 550.98433 
L 585.22373 590.506427 
L 588.147421 553.52716 
L 591.071111 573.100279 
L 593.994801 566.265763 
L 596.918491 483.297521 
L 599.748703 596.44 
M 600.76894 596.44 
L 602.765871 588.387833 
L 605.689561 553.136924 
L 608.613251 565.240536 
L 610.432864 596.44 
M 615.233967 596.44 
L 617.384322 510.145694 
L 620.308012 480.94054 
L 623.231702 566.423592 
L 624.469425 596.44 
M 627.744135 596.44 
L 629.079082 562.084648 
L 631.358838 596.44 
M 635.14384 596.44 
L 637.850152 520.856301 
L 640.773842 499.702964 
L 643.697532 519.746178 
L 646.621223 584.915167 
L 649.544913 525.781893 
L 652.301833 596.44 
M 653.000384 596.44 
L 655.392293 577.215002 
L 658.315983 503.137642 
L 661.239673 567.207737 
L 664.163363 510.930643 
L 667.087053 583.329632 
L 670.010743 590.354544 
L 672.934433 535.139301 
L 675.858124 588.214298 
L 678.781814 574.788935 
L 680.205886 596.44 
M 687.086855 596.44 
L 687.552884 585.019687 
L 687.992932 596.44 
M 701.758314 596.44 
L 702.171335 591.740344 
L 705.095025 582.229689 
L 708.018715 581.149474 
L 710.942405 587.1316 
L 713.866095 583.555672 
L 716.789785 584.227707 
L 719.713475 581.965345 
L 722.637165 581.527537 
L 725.560855 583.117479 
L 728.484545 574.069923 
L 728.484545 574.069923 
" style="fill:none;stroke:#55a868;stroke-dasharray:1.5,1.5;stroke-dashoffset:0;stroke-width:1.5;"/>
   </g>
   <g id="line2d_4">
    <path clip-path="url(#p790a9d3480)" d="M 134.975455 550.0794 
L 137.899145 553.744561 
L 140.822835 554.442655 
L 143.746525 554.600274 
L 146.670215 555.882883 
L 149.593905 558.206109 
L 152.517595 556.983631 
L 155.441285 559.11891 
L 158.364975 559.350617 
L 161.288665 560.93101 
L 164.212356 562.108854 
L 167.136046 563.166787 
L 170.059736 583.762963 
L 172.983426 589.883994 
L 174.046917 596.44 
M 185.039298 596.44 
L 187.601876 518.869931 
L 190.054797 596.44 
M 202.065459 596.44 
L 202.220327 593.951704 
L 203.613478 596.44 
M 210.704613 596.44 
L 210.991397 587.295026 
L 213.915087 581.38195 
L 215.37741 596.44 
M 221.213432 596.44 
L 222.686158 589.240784 
L 225.609848 565.396792 
L 228.764908 596.44 
M 232.060153 596.44 
L 234.380918 512.838728 
L 238.242864 596.44 
M 243.349195 596.44 
L 246.075678 503.911993 
L 248.999369 509.732826 
L 251.923059 572.510518 
L 254.846749 567.583736 
L 257.590336 596.44 
M 257.872038 596.44 
L 260.694129 543.823241 
L 262.070797 596.44 
M 265.546965 596.44 
L 266.541509 565.95752 
L 269.465199 552.565667 
L 272.388889 580.634884 
L 274.275016 596.44 
M 279.224717 596.44 
L 281.15996 587.995289 
L 284.08365 549.058965 
L 287.00734 572.108808 
L 288.478928 596.44 
M 291.30616 596.44 
L 292.85472 569.403007 
L 295.77841 537.955255 
L 298.523556 596.44 
M 302.673083 596.44 
L 304.549481 570.886435 
L 307.473171 545.41112 
L 310.396861 542.852443 
L 313.320551 530.985856 
L 316.244241 569.727201 
L 319.167931 557.244197 
L 322.091621 563.911159 
L 325.015311 498.975626 
L 327.939001 559.948774 
L 330.862691 590.787281 
L 333.786382 540.620969 
L 336.710072 558.217758 
L 338.827798 596.44 
M 342.951849 596.44 
L 345.481142 528.752947 
L 348.404832 473.050994 
L 351.328522 535.388463 
L 354.252212 575.787612 
L 357.175902 493.274599 
L 360.099592 458.776108 
L 363.023283 582.398047 
L 365.946973 494.019391 
L 368.870663 488.823544 
L 371.794353 507.05221 
L 374.718043 561.087965 
L 377.641733 577.46217 
L 379.417689 596.44 
M 380.971397 596.44 
L 383.489113 520.37851 
L 386.412803 553.229271 
L 389.336494 580.168637 
L 392.260184 557.76106 
L 395.183874 577.407532 
L 398.107564 520.46603 
L 401.031254 490.574149 
L 403.954944 524.387523 
L 406.878634 541.363803 
L 409.802324 541.771004 
L 412.726014 544.005067 
L 415.649704 591.30215 
L 418.573395 549.946581 
L 421.594803 596.44 
M 426.263044 596.44 
L 427.344465 572.187933 
L 430.268155 576.307728 
L 433.191845 557.020045 
L 436.115535 510.621001 
L 439.039225 576.336202 
L 440.561287 596.44 
M 442.959833 596.44 
L 444.886605 560.659216 
L 447.810296 486.38415 
L 450.733986 500.893051 
L 453.657676 552.075214 
L 456.581366 558.30052 
L 457.665925 596.44 
M 461.137728 596.44 
L 462.428746 545.299149 
L 465.352436 576.32095 
L 468.276126 530.364577 
L 471.199816 550.742164 
L 473.966175 596.44 
M 474.522081 596.44 
L 477.047197 579.974533 
L 479.970887 458.971121 
L 482.894577 569.925082 
L 485.818267 596.235124 
L 485.996121 596.44 
M 488.966968 596.44 
L 491.665647 558.504068 
L 494.589337 548.590095 
L 496.249726 596.44 
M 498.599568 596.44 
L 500.436717 534.883073 
L 503.360408 464.988997 
L 506.284098 557.097141 
L 507.77508 596.44 
M 516.409594 596.44 
L 517.978858 556.504756 
L 520.902548 585.655482 
L 523.826238 586.195012 
L 526.749928 559.440096 
L 528.908852 596.44 
M 533.840439 596.44 
L 535.520999 543.113778 
L 538.444689 521.445887 
L 544.182302 596.44 
M 544.337742 596.44 
L 547.215759 505.10103 
L 550.139449 550.556561 
L 553.063139 494.775133 
L 555.986829 497.842872 
L 558.910519 462.198054 
L 561.83421 430.270097 
L 564.7579 504.255146 
L 567.68159 478.138788 
L 570.60528 569.439141 
L 573.52897 451.005039 
L 576.45266 507.80963 
L 579.37635 489.245857 
L 582.30004 482.518624 
L 585.19254 596.44 
M 585.261388 596.44 
L 588.147421 502.294696 
L 591.071111 509.226177 
L 593.994801 573.774063 
L 596.918491 519.894388 
L 599.842181 573.878757 
L 602.765871 561.181606 
L 605.689561 571.495331 
L 608.613251 586.576923 
L 609.17922 596.44 
M 616.227766 596.44 
L 617.384322 551.918399 
L 620.308012 543.455847 
L 623.231702 581.74004 
L 623.908259 596.44 
M 634.887233 596.44 
L 634.926462 596.261219 
L 637.850152 594.595755 
L 640.773842 541.027926 
L 643.697532 452.816754 
L 646.621223 519.830165 
L 649.544913 544.343637 
L 652.468603 595.548398 
L 655.392293 579.73541 
L 658.315983 493.195474 
L 661.239673 581.228843 
L 664.163363 510.452153 
L 667.087053 582.846629 
L 670.010743 596.243239 
L 672.934433 564.479303 
L 675.858124 573.018042 
L 678.781814 560.936922 
L 681.538521 596.44 
M 686.211456 596.44 
L 687.552884 564.355299 
L 688.491273 596.44 
M 700.464266 596.44 
L 702.171335 573.406983 
L 705.095025 574.233734 
L 708.018715 572.952209 
L 710.942405 575.91291 
L 713.866095 574.114452 
L 716.789785 575.574129 
L 719.713475 575.002837 
L 722.637165 570.911831 
L 725.560855 575.547719 
L 728.484545 571.124299 
L 728.484545 571.124299 
" style="fill:none;stroke:#c44e52;stroke-dasharray:4.5,1.875,2.25,1.875;stroke-dashoffset:0;stroke-width:1.5;"/>
   </g>
   <g id="line2d_5">
    <path clip-path="url(#p790a9d3480)" d="M 134.975455 552.439565 
L 137.899145 556.145757 
L 146.670215 558.296952 
L 149.593905 561.241177 
L 152.517595 560.464378 
L 155.441285 562.305371 
L 158.364975 562.566321 
L 161.288665 564.849776 
L 164.212356 564.736301 
L 167.136046 565.084176 
L 170.059736 583.356427 
L 172.983426 589.389903 
L 174.310025 596.44 
M 185.216557 596.44 
L 187.601876 537.840346 
L 189.820511 596.44 
M 202.073939 596.44 
L 202.220327 593.521241 
L 204.197436 596.44 
M 210.785572 596.44 
L 210.991397 589.852408 
L 213.915087 571.516179 
L 215.697501 596.44 
M 220.809145 596.44 
L 222.686158 588.01082 
L 225.609848 572.232183 
L 228.413041 596.44 
M 232.142252 596.44 
L 234.380918 517.02509 
L 237.304608 573.859029 
L 238.270193 596.44 
M 243.35977 596.44 
L 246.075678 500.181349 
L 248.999369 500.209193 
L 251.923059 579.436542 
L 254.846749 569.119914 
L 257.236639 596.44 
M 258.053942 596.44 
L 260.694129 539.612393 
L 262.148014 596.44 
M 265.508867 596.44 
L 266.541509 565.0684 
L 269.465199 551.543764 
L 272.388889 578.3954 
L 274.563086 596.44 
M 280.555453 596.44 
L 281.15996 594.680441 
L 284.08365 556.119767 
L 287.00734 570.77324 
L 288.572736 596.44 
M 291.228741 596.44 
L 292.85472 568.53526 
L 295.77841 533.662554 
L 298.7021 595.703674 
L 298.880828 596.44 
M 302.455819 596.44 
L 304.549481 567.914821 
L 307.473171 543.405476 
L 310.396861 556.916925 
L 313.320551 534.882164 
L 316.244241 567.084888 
L 319.167931 555.501637 
L 322.091621 566.964662 
L 325.015311 509.733386 
L 327.939001 557.367256 
L 330.862691 593.47164 
L 333.786382 556.204419 
L 336.710072 528.738431 
L 339.495878 596.44 
M 342.951593 596.44 
L 345.481142 539.473663 
L 348.404832 486.26186 
L 351.328522 468.79887 
L 354.252212 547.372758 
L 357.175902 556.640443 
L 360.099592 561.385399 
L 361.315057 596.44 
M 364.365034 596.44 
L 365.946973 538.354795 
L 368.870663 542.018837 
L 371.794353 522.667491 
L 374.978292 596.44 
M 382.612453 596.44 
L 383.489113 569.341512 
L 386.412803 552.149266 
L 389.336494 584.349996 
L 392.260184 574.623095 
L 395.183874 589.03895 
L 398.107564 504.194455 
L 401.031254 505.410742 
L 403.954944 521.812302 
L 406.878634 550.477296 
L 409.802324 549.564215 
L 412.726014 537.336355 
L 415.03828 596.44 
M 416.419512 596.44 
L 418.573395 552.712058 
L 420.99575 596.44 
M 426.703789 596.44 
L 427.344465 581.881463 
L 430.268155 579.521753 
L 433.191845 562.828951 
L 436.115535 507.951753 
L 439.039225 575.190714 
L 440.538778 596.44 
M 443.134655 596.44 
L 444.886605 566.266532 
L 447.810296 486.23475 
L 450.733986 496.900652 
L 453.657676 537.865111 
L 456.581366 546.263685 
L 458.208592 596.44 
M 460.632539 596.44 
L 462.428746 532.752027 
L 465.352436 570.086724 
L 468.276126 535.692719 
L 471.199816 560.751283 
L 473.273257 596.44 
M 475.059065 596.44 
L 477.047197 565.340054 
L 479.970887 461.671991 
L 482.894577 579.470682 
L 485.129063 596.44 
M 489.045195 596.44 
L 491.665647 563.146673 
L 494.589337 546.967166 
L 496.257809 596.44 
M 498.591533 596.44 
L 500.436717 532.762661 
L 503.360408 460.5937 
L 506.284098 555.118082 
L 507.707274 596.44 
M 516.499405 596.44 
L 517.978858 560.692097 
L 520.902548 585.929899 
L 523.826238 581.672179 
L 526.749928 548.575018 
L 529.345032 596.44 
M 533.285174 596.44 
L 535.520999 525.59615 
L 538.444689 498.383416 
L 541.368379 552.614849 
L 544.064957 596.44 
M 544.397498 596.44 
L 547.215759 497.773471 
L 550.139449 546.487941 
L 553.063139 457.566678 
L 555.986829 532.040675 
L 558.910519 488.021385 
L 561.83421 470.245569 
L 564.7579 541.579034 
L 567.68159 513.160229 
L 570.60528 517.514669 
L 573.52897 506.604152 
L 576.45266 557.389538 
L 579.37635 526.263951 
L 582.30004 488.227172 
L 585.22373 568.545229 
L 588.147421 513.896766 
L 591.071111 527.404926 
L 593.994801 547.923867 
L 596.918491 504.156642 
L 599.842181 549.706584 
L 602.765871 534.570038 
L 605.689561 551.667103 
L 608.613251 570.19845 
L 610.804689 596.44 
M 615.626879 596.44 
L 617.384322 527.243669 
L 620.308012 525.497996 
L 623.231702 570.223776 
L 624.474692 596.44 
M 628.976685 596.44 
L 629.079082 595.15344 
L 632.002772 595.83156 
L 634.926462 585.531373 
L 637.850152 578.697381 
L 640.773842 519.50793 
L 643.697532 446.154794 
L 646.621223 503.431124 
L 649.544913 530.804764 
L 652.468603 573.361509 
L 655.392293 563.318635 
L 658.315983 492.248603 
L 661.239673 565.230882 
L 664.163363 502.574186 
L 667.087053 578.423523 
L 670.010743 591.029202 
L 672.934433 570.032296 
L 675.858124 570.638288 
L 678.781814 543.759403 
L 681.692974 596.44 
M 685.794416 596.44 
L 687.552884 554.839502 
L 688.950249 596.44 
M 699.958451 596.44 
L 702.171335 569.141392 
L 705.095025 570.180261 
L 708.018715 568.876384 
L 710.942405 570.583544 
L 713.866095 568.646601 
L 716.789785 569.241644 
L 719.713475 569.329304 
L 722.637165 564.689043 
L 725.560855 569.150242 
L 728.484545 565.557909 
L 728.484545 565.557909 
" style="fill:none;stroke:#8172b3;stroke-dasharray:7.5,1.5,1.5,1.5;stroke-dashoffset:0;stroke-width:1.5;"/>
   </g>
   <g id="line2d_6"/>
   <g id="line2d_7"/>
   <g id="line2d_8"/>
   <g id="line2d_9"/>
   <g id="line2d_10"/>
   <g id="patch_3">
    <path d="M 105.3 529.9416 
L 105.3 71.4528 
" style="fill:none;stroke:#262626;stroke-linecap:square;stroke-linejoin:miter;stroke-width:1.25;"/>
   </g>
   <g id="patch_4">
    <path d="M 758.16 529.9416 
L 758.16 71.4528 
" style="fill:none;stroke:#262626;stroke-linecap:square;stroke-linejoin:miter;stroke-width:1.25;"/>
   </g>
   <g id="patch_5">
    <path d="M 105.3 529.9416 
L 758.16 529.9416 
" style="fill:none;stroke:#262626;stroke-linecap:square;stroke-linejoin:miter;stroke-width:1.25;"/>
   </g>
   <g id="patch_6">
    <path d="M 105.3 71.4528 
L 758.16 71.4528 
" style="fill:none;stroke:#262626;stroke-linecap:square;stroke-linejoin:miter;stroke-width:1.25;"/>
   </g>
   <g id="text_16">
    <!-- Activations for &gt;0&lt; -->
    <g style="fill:#262626;" transform="translate(382.037813 65.4528)scale(0.12 -0.12)">
     <defs>
      <path d="M -9 0 
L 1750 4581 
L 2403 4581 
L 4278 0 
L 3588 0 
L 3053 1388 
L 1138 1388 
L 634 0 
L -9 0 
z
M 1313 1881 
L 2866 1881 
L 2388 3150 
Q 2169 3728 2063 4100 
Q 1975 3659 1816 3225 
L 1313 1881 
z
" id="ArialMT-41" transform="scale(0.015625)"/>
      <path d="M 2588 1216 
L 3141 1144 
Q 3050 572 2676 248 
Q 2303 -75 1759 -75 
Q 1078 -75 664 370 
Q 250 816 250 1647 
Q 250 2184 428 2587 
Q 606 2991 970 3192 
Q 1334 3394 1763 3394 
Q 2303 3394 2647 3120 
Q 2991 2847 3088 2344 
L 2541 2259 
Q 2463 2594 2264 2762 
Q 2066 2931 1784 2931 
Q 1359 2931 1093 2626 
Q 828 2322 828 1663 
Q 828 994 1084 691 
Q 1341 388 1753 388 
Q 2084 388 2306 591 
Q 2528 794 2588 1216 
z
" id="ArialMT-63" transform="scale(0.015625)"/>
      <path d="M 1650 503 
L 1731 6 
Q 1494 -44 1306 -44 
Q 1000 -44 831 53 
Q 663 150 594 308 
Q 525 466 525 972 
L 525 2881 
L 113 2881 
L 113 3319 
L 525 3319 
L 525 4141 
L 1084 4478 
L 1084 3319 
L 1650 3319 
L 1650 2881 
L 1084 2881 
L 1084 941 
Q 1084 700 1114 631 
Q 1144 563 1211 522 
Q 1278 481 1403 481 
Q 1497 481 1650 503 
z
" id="ArialMT-74" transform="scale(0.015625)"/>
      <path d="M 425 3934 
L 425 4581 
L 988 4581 
L 988 3934 
L 425 3934 
z
M 425 0 
L 425 3319 
L 988 3319 
L 988 0 
L 425 0 
z
" id="ArialMT-69" transform="scale(0.015625)"/>
      <path d="M 1344 0 
L 81 3319 
L 675 3319 
L 1388 1331 
Q 1503 1009 1600 663 
Q 1675 925 1809 1294 
L 2547 3319 
L 3125 3319 
L 1869 0 
L 1344 0 
z
" id="ArialMT-76" transform="scale(0.015625)"/>
      <path d="M 2588 409 
Q 2275 144 1986 34 
Q 1697 -75 1366 -75 
Q 819 -75 525 192 
Q 231 459 231 875 
Q 231 1119 342 1320 
Q 453 1522 633 1644 
Q 813 1766 1038 1828 
Q 1203 1872 1538 1913 
Q 2219 1994 2541 2106 
Q 2544 2222 2544 2253 
Q 2544 2597 2384 2738 
Q 2169 2928 1744 2928 
Q 1347 2928 1158 2789 
Q 969 2650 878 2297 
L 328 2372 
Q 403 2725 575 2942 
Q 747 3159 1072 3276 
Q 1397 3394 1825 3394 
Q 2250 3394 2515 3294 
Q 2781 3194 2906 3042 
Q 3031 2891 3081 2659 
Q 3109 2516 3109 2141 
L 3109 1391 
Q 3109 606 3145 398 
Q 3181 191 3288 0 
L 2700 0 
Q 2613 175 2588 409 
z
M 2541 1666 
Q 2234 1541 1622 1453 
Q 1275 1403 1131 1340 
Q 988 1278 909 1158 
Q 831 1038 831 891 
Q 831 666 1001 516 
Q 1172 366 1500 366 
Q 1825 366 2078 508 
Q 2331 650 2450 897 
Q 2541 1088 2541 1459 
L 2541 1666 
z
" id="ArialMT-61" transform="scale(0.015625)"/>
      <path d="M 213 1659 
Q 213 2581 725 3025 
Q 1153 3394 1769 3394 
Q 2453 3394 2887 2945 
Q 3322 2497 3322 1706 
Q 3322 1066 3130 698 
Q 2938 331 2570 128 
Q 2203 -75 1769 -75 
Q 1072 -75 642 372 
Q 213 819 213 1659 
z
M 791 1659 
Q 791 1022 1069 705 
Q 1347 388 1769 388 
Q 2188 388 2466 706 
Q 2744 1025 2744 1678 
Q 2744 2294 2464 2611 
Q 2184 2928 1769 2928 
Q 1347 2928 1069 2612 
Q 791 2297 791 1659 
z
" id="ArialMT-6f" transform="scale(0.015625)"/>
      <path d="M 422 0 
L 422 3319 
L 928 3319 
L 928 2847 
Q 1294 3394 1984 3394 
Q 2284 3394 2536 3286 
Q 2788 3178 2913 3003 
Q 3038 2828 3088 2588 
Q 3119 2431 3119 2041 
L 3119 0 
L 2556 0 
L 2556 2019 
Q 2556 2363 2490 2533 
Q 2425 2703 2258 2804 
Q 2091 2906 1866 2906 
Q 1506 2906 1245 2678 
Q 984 2450 984 1813 
L 984 0 
L 422 0 
z
" id="ArialMT-6e" transform="scale(0.015625)"/>
      <path d="M 197 991 
L 753 1078 
Q 800 744 1014 566 
Q 1228 388 1613 388 
Q 2000 388 2187 545 
Q 2375 703 2375 916 
Q 2375 1106 2209 1216 
Q 2094 1291 1634 1406 
Q 1016 1563 777 1677 
Q 538 1791 414 1992 
Q 291 2194 291 2438 
Q 291 2659 392 2848 
Q 494 3038 669 3163 
Q 800 3259 1026 3326 
Q 1253 3394 1513 3394 
Q 1903 3394 2198 3281 
Q 2494 3169 2634 2976 
Q 2775 2784 2828 2463 
L 2278 2388 
Q 2241 2644 2061 2787 
Q 1881 2931 1553 2931 
Q 1166 2931 1000 2803 
Q 834 2675 834 2503 
Q 834 2394 903 2306 
Q 972 2216 1119 2156 
Q 1203 2125 1616 2013 
Q 2213 1853 2448 1751 
Q 2684 1650 2818 1456 
Q 2953 1263 2953 975 
Q 2953 694 2789 445 
Q 2625 197 2315 61 
Q 2006 -75 1616 -75 
Q 969 -75 630 194 
Q 291 463 197 991 
z
" id="ArialMT-73" transform="scale(0.015625)"/>
      <path id="ArialMT-20" transform="scale(0.015625)"/>
      <path d="M 556 0 
L 556 2881 
L 59 2881 
L 59 3319 
L 556 3319 
L 556 3672 
Q 556 4006 616 4169 
Q 697 4388 901 4523 
Q 1106 4659 1475 4659 
Q 1713 4659 2000 4603 
L 1916 4113 
Q 1741 4144 1584 4144 
Q 1328 4144 1222 4034 
Q 1116 3925 1116 3625 
L 1116 3319 
L 1763 3319 
L 1763 2881 
L 1116 2881 
L 1116 0 
L 556 0 
z
" id="ArialMT-66" transform="scale(0.015625)"/>
      <path d="M 416 0 
L 416 3319 
L 922 3319 
L 922 2816 
Q 1116 3169 1280 3281 
Q 1444 3394 1641 3394 
Q 1925 3394 2219 3213 
L 2025 2691 
Q 1819 2813 1613 2813 
Q 1428 2813 1281 2702 
Q 1134 2591 1072 2394 
Q 978 2094 978 1738 
L 978 0 
L 416 0 
z
" id="ArialMT-72" transform="scale(0.015625)"/>
      <path d="M 3384 2003 
L 350 706 
L 350 1266 
L 2753 2263 
L 350 3250 
L 350 3809 
L 3384 2528 
L 3384 2003 
z
" id="ArialMT-3e" transform="scale(0.015625)"/>
      <path d="M 350 2003 
L 350 2528 
L 3384 3809 
L 3384 3250 
L 978 2263 
L 3384 1266 
L 3384 706 
L 350 2003 
z
" id="ArialMT-3c" transform="scale(0.015625)"/>
     </defs>
     <use xlink:href="#ArialMT-41"/>
     <use x="66.699219" xlink:href="#ArialMT-63"/>
     <use x="116.699219" xlink:href="#ArialMT-74"/>
     <use x="144.482422" xlink:href="#ArialMT-69"/>
     <use x="166.699219" xlink:href="#ArialMT-76"/>
     <use x="216.699219" xlink:href="#ArialMT-61"/>
     <use x="272.314453" xlink:href="#ArialMT-74"/>
     <use x="300.097656" xlink:href="#ArialMT-69"/>
     <use x="322.314453" xlink:href="#ArialMT-6f"/>
     <use x="377.929688" xlink:href="#ArialMT-6e"/>
     <use x="433.544922" xlink:href="#ArialMT-73"/>
     <use x="483.544922" xlink:href="#ArialMT-20"/>
     <use x="511.328125" xlink:href="#ArialMT-66"/>
     <use x="539.111328" xlink:href="#ArialMT-6f"/>
     <use x="594.726562" xlink:href="#ArialMT-72"/>
     <use x="628.027344" xlink:href="#ArialMT-20"/>
     <use x="655.810547" xlink:href="#ArialMT-3e"/>
     <use x="714.208984" xlink:href="#ArialMT-30"/>
     <use x="769.824219" xlink:href="#ArialMT-3c"/>
    </g>
   </g>
   <g id="legend_1">
    <g id="patch_7">
     <path d="M 640.044062 158.514363 
L 750.46 158.514363 
Q 752.66 158.514363 752.66 156.314363 
L 752.66 79.1528 
Q 752.66 76.9528 750.46 76.9528 
L 640.044062 76.9528 
Q 637.844062 76.9528 637.844062 79.1528 
L 637.844062 156.314363 
Q 637.844062 158.514363 640.044062 158.514363 
z
" style="fill:#ffffff;opacity:0.8;stroke:#cccccc;stroke-linejoin:miter;"/>
    </g>
    <g id="line2d_11">
     <path d="M 642.244062 85.376394 
L 664.244062 85.376394 
" style="fill:none;stroke:#4c72b0;stroke-linecap:round;stroke-width:1.5;"/>
    </g>
    <g id="line2d_12"/>
    <g id="text_17">
     <!-- regular -->
     <g style="fill:#262626;" transform="translate(673.044062 89.226394)scale(0.11 -0.11)">
      <defs>
       <path d="M 2694 1069 
L 3275 997 
Q 3138 488 2766 206 
Q 2394 -75 1816 -75 
Q 1088 -75 661 373 
Q 234 822 234 1631 
Q 234 2469 665 2931 
Q 1097 3394 1784 3394 
Q 2450 3394 2872 2941 
Q 3294 2488 3294 1666 
Q 3294 1616 3291 1516 
L 816 1516 
Q 847 969 1125 678 
Q 1403 388 1819 388 
Q 2128 388 2347 550 
Q 2566 713 2694 1069 
z
M 847 1978 
L 2700 1978 
Q 2663 2397 2488 2606 
Q 2219 2931 1791 2931 
Q 1403 2931 1139 2672 
Q 875 2413 847 1978 
z
" id="ArialMT-65" transform="scale(0.015625)"/>
       <path d="M 319 -275 
L 866 -356 
Q 900 -609 1056 -725 
Q 1266 -881 1628 -881 
Q 2019 -881 2231 -725 
Q 2444 -569 2519 -288 
Q 2563 -116 2559 434 
Q 2191 0 1641 0 
Q 956 0 581 494 
Q 206 988 206 1678 
Q 206 2153 378 2554 
Q 550 2956 876 3175 
Q 1203 3394 1644 3394 
Q 2231 3394 2613 2919 
L 2613 3319 
L 3131 3319 
L 3131 450 
Q 3131 -325 2973 -648 
Q 2816 -972 2473 -1159 
Q 2131 -1347 1631 -1347 
Q 1038 -1347 672 -1080 
Q 306 -813 319 -275 
z
M 784 1719 
Q 784 1066 1043 766 
Q 1303 466 1694 466 
Q 2081 466 2343 764 
Q 2606 1063 2606 1700 
Q 2606 2309 2336 2618 
Q 2066 2928 1684 2928 
Q 1309 2928 1046 2623 
Q 784 2319 784 1719 
z
" id="ArialMT-67" transform="scale(0.015625)"/>
       <path d="M 2597 0 
L 2597 488 
Q 2209 -75 1544 -75 
Q 1250 -75 995 37 
Q 741 150 617 320 
Q 494 491 444 738 
Q 409 903 409 1263 
L 409 3319 
L 972 3319 
L 972 1478 
Q 972 1038 1006 884 
Q 1059 663 1231 536 
Q 1403 409 1656 409 
Q 1909 409 2131 539 
Q 2353 669 2445 892 
Q 2538 1116 2538 1541 
L 2538 3319 
L 3100 3319 
L 3100 0 
L 2597 0 
z
" id="ArialMT-75" transform="scale(0.015625)"/>
       <path d="M 409 0 
L 409 4581 
L 972 4581 
L 972 0 
L 409 0 
z
" id="ArialMT-6c" transform="scale(0.015625)"/>
      </defs>
      <use xlink:href="#ArialMT-72"/>
      <use x="33.300781" xlink:href="#ArialMT-65"/>
      <use x="88.916016" xlink:href="#ArialMT-67"/>
      <use x="144.53125" xlink:href="#ArialMT-75"/>
      <use x="200.146484" xlink:href="#ArialMT-6c"/>
      <use x="222.363281" xlink:href="#ArialMT-61"/>
      <use x="277.978516" xlink:href="#ArialMT-72"/>
     </g>
    </g>
    <g id="line2d_13">
     <path d="M 642.244062 101.0978 
L 664.244062 101.0978 
" style="fill:none;stroke:#dd8452;stroke-dasharray:6,2.25;stroke-dashoffset:0;stroke-width:1.5;"/>
    </g>
    <g id="line2d_14"/>
    <g id="text_18">
     <!-- splitted_3s -->
     <g style="fill:#262626;" transform="translate(673.044062 104.9478)scale(0.11 -0.11)">
      <defs>
       <path d="M 422 -1272 
L 422 3319 
L 934 3319 
L 934 2888 
Q 1116 3141 1344 3267 
Q 1572 3394 1897 3394 
Q 2322 3394 2647 3175 
Q 2972 2956 3137 2557 
Q 3303 2159 3303 1684 
Q 3303 1175 3120 767 
Q 2938 359 2589 142 
Q 2241 -75 1856 -75 
Q 1575 -75 1351 44 
Q 1128 163 984 344 
L 984 -1272 
L 422 -1272 
z
M 931 1641 
Q 931 1000 1190 694 
Q 1450 388 1819 388 
Q 2194 388 2461 705 
Q 2728 1022 2728 1688 
Q 2728 2322 2467 2637 
Q 2206 2953 1844 2953 
Q 1484 2953 1207 2617 
Q 931 2281 931 1641 
z
" id="ArialMT-70" transform="scale(0.015625)"/>
       <path d="M 2575 0 
L 2575 419 
Q 2259 -75 1647 -75 
Q 1250 -75 917 144 
Q 584 363 401 755 
Q 219 1147 219 1656 
Q 219 2153 384 2558 
Q 550 2963 881 3178 
Q 1213 3394 1622 3394 
Q 1922 3394 2156 3267 
Q 2391 3141 2538 2938 
L 2538 4581 
L 3097 4581 
L 3097 0 
L 2575 0 
z
M 797 1656 
Q 797 1019 1065 703 
Q 1334 388 1700 388 
Q 2069 388 2326 689 
Q 2584 991 2584 1609 
Q 2584 2291 2321 2609 
Q 2059 2928 1675 2928 
Q 1300 2928 1048 2622 
Q 797 2316 797 1656 
z
" id="ArialMT-64" transform="scale(0.015625)"/>
       <path d="M -97 -1272 
L -97 -866 
L 3631 -866 
L 3631 -1272 
L -97 -1272 
z
" id="ArialMT-5f" transform="scale(0.015625)"/>
       <path d="M 269 1209 
L 831 1284 
Q 928 806 1161 595 
Q 1394 384 1728 384 
Q 2125 384 2398 659 
Q 2672 934 2672 1341 
Q 2672 1728 2419 1979 
Q 2166 2231 1775 2231 
Q 1616 2231 1378 2169 
L 1441 2663 
Q 1497 2656 1531 2656 
Q 1891 2656 2178 2843 
Q 2466 3031 2466 3422 
Q 2466 3731 2256 3934 
Q 2047 4138 1716 4138 
Q 1388 4138 1169 3931 
Q 950 3725 888 3313 
L 325 3413 
Q 428 3978 793 4289 
Q 1159 4600 1703 4600 
Q 2078 4600 2393 4439 
Q 2709 4278 2876 4000 
Q 3044 3722 3044 3409 
Q 3044 3113 2884 2869 
Q 2725 2625 2413 2481 
Q 2819 2388 3044 2092 
Q 3269 1797 3269 1353 
Q 3269 753 2831 336 
Q 2394 -81 1725 -81 
Q 1122 -81 723 278 
Q 325 638 269 1209 
z
" id="ArialMT-33" transform="scale(0.015625)"/>
      </defs>
      <use xlink:href="#ArialMT-73"/>
      <use x="50" xlink:href="#ArialMT-70"/>
      <use x="105.615234" xlink:href="#ArialMT-6c"/>
      <use x="127.832031" xlink:href="#ArialMT-69"/>
      <use x="150.048828" xlink:href="#ArialMT-74"/>
      <use x="177.832031" xlink:href="#ArialMT-74"/>
      <use x="205.615234" xlink:href="#ArialMT-65"/>
      <use x="261.230469" xlink:href="#ArialMT-64"/>
      <use x="316.845703" xlink:href="#ArialMT-5f"/>
      <use x="372.460938" xlink:href="#ArialMT-33"/>
      <use x="428.076172" xlink:href="#ArialMT-73"/>
     </g>
    </g>
    <g id="line2d_15">
     <path d="M 642.244062 116.6903 
L 664.244062 116.6903 
" style="fill:none;stroke:#55a868;stroke-dasharray:1.5,1.5;stroke-dashoffset:0;stroke-width:1.5;"/>
    </g>
    <g id="line2d_16"/>
    <g id="text_19">
     <!-- splitted_1s -->
     <g style="fill:#262626;" transform="translate(673.044062 120.5403)scale(0.11 -0.11)">
      <use xlink:href="#ArialMT-73"/>
      <use x="50" xlink:href="#ArialMT-70"/>
      <use x="105.615234" xlink:href="#ArialMT-6c"/>
      <use x="127.832031" xlink:href="#ArialMT-69"/>
      <use x="150.048828" xlink:href="#ArialMT-74"/>
      <use x="177.832031" xlink:href="#ArialMT-74"/>
      <use x="205.615234" xlink:href="#ArialMT-65"/>
      <use x="261.230469" xlink:href="#ArialMT-64"/>
      <use x="316.845703" xlink:href="#ArialMT-5f"/>
      <use x="372.460938" xlink:href="#ArialMT-31"/>
      <use x="428.076172" xlink:href="#ArialMT-73"/>
     </g>
    </g>
    <g id="line2d_17">
     <path d="M 642.244062 132.384206 
L 664.244062 132.384206 
" style="fill:none;stroke:#c44e52;stroke-dasharray:4.5,1.875,2.25,1.875;stroke-dashoffset:0;stroke-width:1.5;"/>
    </g>
    <g id="line2d_18"/>
    <g id="text_20">
     <!-- overlap_1f_3s -->
     <g style="fill:#262626;" transform="translate(673.044062 136.234206)scale(0.11 -0.11)">
      <use xlink:href="#ArialMT-6f"/>
      <use x="55.615234" xlink:href="#ArialMT-76"/>
      <use x="105.615234" xlink:href="#ArialMT-65"/>
      <use x="161.230469" xlink:href="#ArialMT-72"/>
      <use x="194.53125" xlink:href="#ArialMT-6c"/>
      <use x="216.748047" xlink:href="#ArialMT-61"/>
      <use x="272.363281" xlink:href="#ArialMT-70"/>
      <use x="327.978516" xlink:href="#ArialMT-5f"/>
      <use x="383.59375" xlink:href="#ArialMT-31"/>
      <use x="439.208984" xlink:href="#ArialMT-66"/>
      <use x="466.992188" xlink:href="#ArialMT-5f"/>
      <use x="522.607422" xlink:href="#ArialMT-33"/>
      <use x="578.222656" xlink:href="#ArialMT-73"/>
     </g>
    </g>
    <g id="line2d_19">
     <path d="M 642.244062 148.078113 
L 664.244062 148.078113 
" style="fill:none;stroke:#8172b3;stroke-dasharray:7.5,1.5,1.5,1.5;stroke-dashoffset:0;stroke-width:1.5;"/>
    </g>
    <g id="line2d_20"/>
    <g id="text_21">
     <!-- overlap_10f_3s -->
     <g style="fill:#262626;" transform="translate(673.044062 151.928112)scale(0.11 -0.11)">
      <use xlink:href="#ArialMT-6f"/>
      <use x="55.615234" xlink:href="#ArialMT-76"/>
      <use x="105.615234" xlink:href="#ArialMT-65"/>
      <use x="161.230469" xlink:href="#ArialMT-72"/>
      <use x="194.53125" xlink:href="#ArialMT-6c"/>
      <use x="216.748047" xlink:href="#ArialMT-61"/>
      <use x="272.363281" xlink:href="#ArialMT-70"/>
      <use x="327.978516" xlink:href="#ArialMT-5f"/>
      <use x="383.59375" xlink:href="#ArialMT-31"/>
      <use x="439.208984" xlink:href="#ArialMT-30"/>
      <use x="494.824219" xlink:href="#ArialMT-66"/>
      <use x="522.607422" xlink:href="#ArialMT-5f"/>
      <use x="578.222656" xlink:href="#ArialMT-33"/>
      <use x="633.837891" xlink:href="#ArialMT-73"/>
     </g>
    </g>
   </g>
  </g>
 </g>
 <defs>
  <clipPath id="p790a9d3480">
   <rect height="458.4888" width="652.86" x="105.3" y="71.4528"/>
  </clipPath>
 </defs>
</svg>
