<?xml version="1.0" encoding="utf-8" standalone="no"?>
<!DOCTYPE svg PUBLIC "-//W3C//DTD SVG 1.1//EN"
  "http://www.w3.org/Graphics/SVG/1.1/DTD/svg11.dtd">
<svg height="595.44pt" version="1.1" viewBox="0 0 842.4 595.44" width="842.4pt" xmlns="http://www.w3.org/2000/svg" xmlns:xlink="http://www.w3.org/1999/xlink">
 <metadata>
  <rdf:RDF xmlns:cc="http://creativecommons.org/ns#" xmlns:dc="http://purl.org/dc/elements/1.1/" xmlns:rdf="http://www.w3.org/1999/02/22-rdf-syntax-ns#">
   <cc:Work>
    <dc:type rdf:resource="http://purl.org/dc/dcmitype/StillImage"/>
    <dc:date>2021-06-01T00:54:15.039056</dc:date>
    <dc:format>image/svg+xml</dc:format>
    <dc:creator>
     <cc:Agent>
      <dc:title>Matplotlib v3.4.1, https://matplotlib.org/</dc:title>
     </cc:Agent>
    </dc:creator>
   </cc:Work>
  </rdf:RDF>
 </metadata>
 <defs>
  <style type="text/css">*{stroke-linecap:butt;stroke-linejoin:round;}</style>
 </defs>
 <g id="figure_1">
  <g id="patch_1">
   <path d="M 0 595.44 
L 842.4 595.44 
L 842.4 0 
L 0 0 
z
" style="fill:#ffffff;"/>
  </g>
  <g id="axes_1">
   <g id="patch_2">
    <path d="M 105.3 529.9416 
L 758.16 529.9416 
L 758.16 71.4528 
L 105.3 71.4528 
z
" style="fill:#ffffff;"/>
   </g>
   <g id="matplotlib.axis_1">
    <g id="xtick_1">
     <g id="text_1">
      <!-- 0 -->
      <g style="fill:#262626;" transform="translate(131.916939 547.315194)scale(0.11 -0.11)">
       <defs>
        <path d="M 266 2259 
Q 266 3072 433 3567 
Q 600 4063 929 4331 
Q 1259 4600 1759 4600 
Q 2128 4600 2406 4451 
Q 2684 4303 2865 4023 
Q 3047 3744 3150 3342 
Q 3253 2941 3253 2259 
Q 3253 1453 3087 958 
Q 2922 463 2592 192 
Q 2263 -78 1759 -78 
Q 1097 -78 719 397 
Q 266 969 266 2259 
z
M 844 2259 
Q 844 1131 1108 757 
Q 1372 384 1759 384 
Q 2147 384 2411 759 
Q 2675 1134 2675 2259 
Q 2675 3391 2411 3762 
Q 2147 4134 1753 4134 
Q 1366 4134 1134 3806 
Q 844 3388 844 2259 
z
" id="ArialMT-30" transform="scale(0.015625)"/>
       </defs>
       <use xlink:href="#ArialMT-30"/>
      </g>
     </g>
    </g>
    <g id="xtick_2">
     <g id="text_2">
      <!-- 25 -->
      <g style="fill:#262626;" transform="translate(201.950676 547.315194)scale(0.11 -0.11)">
       <defs>
        <path d="M 3222 541 
L 3222 0 
L 194 0 
Q 188 203 259 391 
Q 375 700 629 1000 
Q 884 1300 1366 1694 
Q 2113 2306 2375 2664 
Q 2638 3022 2638 3341 
Q 2638 3675 2398 3904 
Q 2159 4134 1775 4134 
Q 1369 4134 1125 3890 
Q 881 3647 878 3216 
L 300 3275 
Q 359 3922 746 4261 
Q 1134 4600 1788 4600 
Q 2447 4600 2831 4234 
Q 3216 3869 3216 3328 
Q 3216 3053 3103 2787 
Q 2991 2522 2730 2228 
Q 2469 1934 1863 1422 
Q 1356 997 1212 845 
Q 1069 694 975 541 
L 3222 541 
z
" id="ArialMT-32" transform="scale(0.015625)"/>
        <path d="M 266 1200 
L 856 1250 
Q 922 819 1161 601 
Q 1400 384 1738 384 
Q 2144 384 2425 690 
Q 2706 997 2706 1503 
Q 2706 1984 2436 2262 
Q 2166 2541 1728 2541 
Q 1456 2541 1237 2417 
Q 1019 2294 894 2097 
L 366 2166 
L 809 4519 
L 3088 4519 
L 3088 3981 
L 1259 3981 
L 1013 2750 
Q 1425 3038 1878 3038 
Q 2478 3038 2890 2622 
Q 3303 2206 3303 1553 
Q 3303 931 2941 478 
Q 2500 -78 1738 -78 
Q 1113 -78 717 272 
Q 322 622 266 1200 
z
" id="ArialMT-35" transform="scale(0.015625)"/>
       </defs>
       <use xlink:href="#ArialMT-32"/>
       <use x="55.615234" xlink:href="#ArialMT-35"/>
      </g>
     </g>
    </g>
    <g id="xtick_3">
     <g id="text_3">
      <!-- 50 -->
      <g style="fill:#262626;" transform="translate(275.042928 547.315194)scale(0.11 -0.11)">
       <use xlink:href="#ArialMT-35"/>
       <use x="55.615234" xlink:href="#ArialMT-30"/>
      </g>
     </g>
    </g>
    <g id="xtick_4">
     <g id="text_4">
      <!-- 75 -->
      <g style="fill:#262626;" transform="translate(348.135181 547.315194)scale(0.11 -0.11)">
       <defs>
        <path d="M 303 3981 
L 303 4522 
L 3269 4522 
L 3269 4084 
Q 2831 3619 2401 2847 
Q 1972 2075 1738 1259 
Q 1569 684 1522 0 
L 944 0 
Q 953 541 1156 1306 
Q 1359 2072 1739 2783 
Q 2119 3494 2547 3981 
L 303 3981 
z
" id="ArialMT-37" transform="scale(0.015625)"/>
       </defs>
       <use xlink:href="#ArialMT-37"/>
       <use x="55.615234" xlink:href="#ArialMT-35"/>
      </g>
     </g>
    </g>
    <g id="xtick_5">
     <g id="text_5">
      <!-- 100 -->
      <g style="fill:#262626;" transform="translate(418.168918 547.315194)scale(0.11 -0.11)">
       <defs>
        <path d="M 2384 0 
L 1822 0 
L 1822 3584 
Q 1619 3391 1289 3197 
Q 959 3003 697 2906 
L 697 3450 
Q 1169 3672 1522 3987 
Q 1875 4303 2022 4600 
L 2384 4600 
L 2384 0 
z
" id="ArialMT-31" transform="scale(0.015625)"/>
       </defs>
       <use xlink:href="#ArialMT-31"/>
       <use x="55.615234" xlink:href="#ArialMT-30"/>
       <use x="111.230469" xlink:href="#ArialMT-30"/>
      </g>
     </g>
    </g>
    <g id="xtick_6">
     <g id="text_6">
      <!-- 125 -->
      <g style="fill:#262626;" transform="translate(491.261171 547.315194)scale(0.11 -0.11)">
       <use xlink:href="#ArialMT-31"/>
       <use x="55.615234" xlink:href="#ArialMT-32"/>
       <use x="111.230469" xlink:href="#ArialMT-35"/>
      </g>
     </g>
    </g>
    <g id="xtick_7">
     <g id="text_7">
      <!-- 150 -->
      <g style="fill:#262626;" transform="translate(564.353423 547.315194)scale(0.11 -0.11)">
       <use xlink:href="#ArialMT-31"/>
       <use x="55.615234" xlink:href="#ArialMT-35"/>
       <use x="111.230469" xlink:href="#ArialMT-30"/>
      </g>
     </g>
    </g>
    <g id="xtick_8">
     <g id="text_8">
      <!-- 175 -->
      <g style="fill:#262626;" transform="translate(637.445676 547.315194)scale(0.11 -0.11)">
       <use xlink:href="#ArialMT-31"/>
       <use x="55.615234" xlink:href="#ArialMT-37"/>
       <use x="111.230469" xlink:href="#ArialMT-35"/>
      </g>
     </g>
    </g>
    <g id="xtick_9">
     <g id="text_9">
      <!-- 200 -->
      <g style="fill:#262626;" transform="translate(710.537928 547.315194)scale(0.11 -0.11)">
       <use xlink:href="#ArialMT-32"/>
       <use x="55.615234" xlink:href="#ArialMT-30"/>
       <use x="111.230469" xlink:href="#ArialMT-30"/>
      </g>
     </g>
    </g>
   </g>
   <g id="matplotlib.axis_2">
    <g id="ytick_1">
     <g id="text_10">
      <!-- −25 -->
      <g style="fill:#262626;" transform="translate(77.14125 533.878397)scale(0.11 -0.11)">
       <defs>
        <path d="M 3381 1997 
L 356 1997 
L 356 2522 
L 3381 2522 
L 3381 1997 
z
" id="ArialMT-2212" transform="scale(0.015625)"/>
       </defs>
       <use xlink:href="#ArialMT-2212"/>
       <use x="58.398438" xlink:href="#ArialMT-32"/>
       <use x="114.013672" xlink:href="#ArialMT-35"/>
      </g>
     </g>
    </g>
    <g id="ytick_2">
     <g id="text_11">
      <!-- −20 -->
      <g style="fill:#262626;" transform="translate(77.14125 442.180637)scale(0.11 -0.11)">
       <use xlink:href="#ArialMT-2212"/>
       <use x="58.398438" xlink:href="#ArialMT-32"/>
       <use x="114.013672" xlink:href="#ArialMT-30"/>
      </g>
     </g>
    </g>
    <g id="ytick_3">
     <g id="text_12">
      <!-- −15 -->
      <g style="fill:#262626;" transform="translate(77.14125 350.482877)scale(0.11 -0.11)">
       <use xlink:href="#ArialMT-2212"/>
       <use x="58.398438" xlink:href="#ArialMT-31"/>
       <use x="114.013672" xlink:href="#ArialMT-35"/>
      </g>
     </g>
    </g>
    <g id="ytick_4">
     <g id="text_13">
      <!-- −10 -->
      <g style="fill:#262626;" transform="translate(77.14125 258.785117)scale(0.11 -0.11)">
       <use xlink:href="#ArialMT-2212"/>
       <use x="58.398438" xlink:href="#ArialMT-31"/>
       <use x="114.013672" xlink:href="#ArialMT-30"/>
      </g>
     </g>
    </g>
    <g id="ytick_5">
     <g id="text_14">
      <!-- −5 -->
      <g style="fill:#262626;" transform="translate(83.258281 167.087357)scale(0.11 -0.11)">
       <use xlink:href="#ArialMT-2212"/>
       <use x="58.398438" xlink:href="#ArialMT-35"/>
      </g>
     </g>
    </g>
    <g id="ytick_6">
     <g id="text_15">
      <!-- 0 -->
      <g style="fill:#262626;" transform="translate(89.682969 75.389597)scale(0.11 -0.11)">
       <use xlink:href="#ArialMT-30"/>
      </g>
     </g>
    </g>
   </g>
   <g id="line2d_1">
    <path clip-path="url(#pe4419ff66c)" d="M 134.975455 449.961308 
L 137.899145 450.429725 
L 140.822835 449.04382 
L 143.746525 448.481063 
L 146.670215 453.995018 
L 149.593905 449.843601 
L 155.441285 453.227873 
L 158.364975 456.048514 
L 161.288665 457.578606 
L 164.212356 456.511123 
L 167.136046 461.43028 
L 170.059736 484.849476 
L 175.907116 512.000854 
L 178.830806 554.838558 
L 181.754496 593.490529 
L 184.678186 489.4401 
L 187.601876 429.393641 
L 190.525567 532.735901 
L 193.449257 511.577107 
L 196.372947 485.15506 
L 199.296637 546.989798 
L 202.220327 484.126336 
L 205.144017 487.947192 
L 208.067707 559.647387 
L 210.991397 526.766543 
L 213.915087 536.637001 
L 219.762468 537.7374 
L 222.686158 495.229417 
L 225.609848 490.423491 
L 228.533538 515.776552 
L 231.457228 534.930191 
L 234.380918 437.80785 
L 237.304608 509.834793 
L 240.228298 550.560548 
L 243.151988 541.707446 
L 246.075678 500.090506 
L 248.999369 463.869569 
L 251.923059 497.85466 
L 254.846749 484.207769 
L 257.770439 517.992145 
L 260.694129 439.09826 
L 263.617819 511.252669 
L 266.541509 436.189784 
L 269.465199 472.248519 
L 272.388889 523.055033 
L 275.312579 530.469272 
L 278.23627 526.872462 
L 281.15996 507.195977 
L 284.08365 463.742312 
L 287.00734 454.206716 
L 289.93103 470.246304 
L 292.85472 435.871012 
L 295.77841 437.309281 
L 298.7021 490.938675 
L 301.62579 486.519417 
L 304.549481 437.804457 
L 307.473171 394.596841 
L 310.396861 413.160509 
L 313.320551 400.087219 
L 316.244241 422.00025 
L 319.167931 422.470555 
L 322.091621 495.299657 
L 325.015311 487.352709 
L 327.939001 507.056477 
L 330.862691 508.181327 
L 333.786382 407.234386 
L 336.710072 420.41496 
L 339.633762 495.422471 
L 342.557452 506.558608 
L 345.481142 444.360044 
L 348.404832 464.103165 
L 351.328522 434.303177 
L 354.252212 454.806132 
L 357.175902 480.969923 
L 360.099592 474.132118 
L 363.023283 486.491993 
L 365.946973 382.600023 
L 368.870663 438.623512 
L 371.794353 488.83159 
L 374.718043 555.33062 
L 377.641733 567.723376 
L 380.565423 558.007703 
L 383.489113 458.618314 
L 386.412803 419.430415 
L 389.336494 464.180401 
L 392.260184 451.346793 
L 395.183874 479.620292 
L 398.107564 403.304532 
L 401.031254 361.806752 
L 403.954944 365.275553 
L 406.878634 408.956343 
L 409.802324 375.283973 
L 412.726014 386.568285 
L 415.649704 501.116957 
L 418.573395 480.425285 
L 421.497085 522.062408 
L 424.420775 572.096076 
L 427.344465 479.19784 
L 430.268155 487.622124 
L 433.191845 469.599245 
L 436.115535 425.515102 
L 439.039225 449.686296 
L 441.962915 501.865108 
L 444.886605 467.989154 
L 447.810296 420.394602 
L 450.733986 407.3848 
L 453.657676 432.338355 
L 456.581366 469.375863 
L 458.850167 596.44 
M 460.361179 596.44 
L 462.428746 507.863709 
L 465.352436 492.699879 
L 468.276126 466.560889 
L 471.199816 473.400373 
L 474.123506 536.719204 
L 477.047197 507.977709 
L 479.970887 394.839672 
L 482.894577 474.727371 
L 485.818267 470.634091 
L 488.741957 484.201717 
L 491.665647 465.303886 
L 494.589337 472.545149 
L 497.513027 549.853954 
L 500.436717 489.540143 
L 503.360408 376.086587 
L 506.284098 416.385063 
L 509.207788 515.664966 
L 512.131478 511.099212 
L 515.055168 501.657852 
L 517.978858 413.966342 
L 520.902548 464.445689 
L 523.826238 496.197521 
L 526.749928 477.658304 
L 529.673618 525.661107 
L 532.597309 535.543424 
L 535.520999 449.544488 
L 538.444689 451.989759 
L 541.368379 587.633771 
L 544.292069 563.515607 
L 547.215759 480.588257 
L 550.139449 544.483172 
L 553.063139 457.729649 
L 555.986829 515.040329 
L 558.910519 457.998085 
L 561.83421 443.174854 
L 564.7579 476.431033 
L 567.68159 475.229473 
L 570.60528 536.268803 
L 573.52897 547.328929 
L 576.45266 531.451123 
L 579.37635 485.467571 
L 582.30004 468.481357 
L 585.22373 432.426819 
L 588.147421 436.751667 
L 591.071111 486.612568 
L 593.994801 526.087512 
L 596.918491 461.183496 
L 599.842181 447.659035 
L 602.765871 420.202772 
L 605.689561 423.225771 
L 608.613251 475.27778 
L 611.536941 537.063791 
L 614.460631 496.327052 
L 617.384322 382.414734 
L 620.308012 440.693554 
L 623.231702 507.337086 
L 626.155392 545.850362 
L 629.079082 535.354708 
L 632.002772 512.1031 
L 634.926462 511.636328 
L 637.850152 529.286531 
L 640.773842 406.930341 
L 643.697532 368.961177 
L 646.621223 456.257414 
L 649.544913 492.275712 
L 652.468603 491.130785 
L 655.392293 449.793125 
L 658.315983 452.083015 
L 661.239673 508.979953 
L 664.163363 437.574569 
L 667.087053 499.454746 
L 670.010743 508.150265 
L 672.934433 493.910009 
L 675.858124 497.004508 
L 678.781814 432.674022 
L 681.705504 465.151933 
L 684.629194 520.097621 
L 687.552884 445.189418 
L 690.476574 561.141519 
L 693.400264 507.613113 
L 696.323954 524.201395 
L 699.247644 515.027247 
L 702.171335 503.850393 
L 705.095025 499.11782 
L 708.018715 488.402456 
L 710.942405 489.026987 
L 713.866095 487.679281 
L 716.789785 491.289629 
L 722.637165 486.861556 
L 725.560855 488.680966 
L 728.484545 484.738624 
L 728.484545 484.738624 
" style="fill:none;stroke:#4c72b0;stroke-linecap:round;stroke-width:1.5;"/>
   </g>
   <g id="line2d_2">
    <path clip-path="url(#pe4419ff66c)" d="M 134.975455 431.101535 
L 137.899145 434.338227 
L 143.746525 432.493876 
L 146.670215 438.373685 
L 149.593905 435.806614 
L 152.517595 434.517954 
L 155.441285 435.536429 
L 158.364975 437.016535 
L 161.288665 438.961278 
L 164.212356 435.837571 
L 167.136046 438.702252 
L 170.059736 459.314169 
L 172.983426 466.651522 
L 175.907116 479.992864 
L 178.830806 529.950905 
L 181.754496 563.093084 
L 184.678186 472.141481 
L 187.601876 399.09288 
L 190.525567 524.163792 
L 196.372947 478.253312 
L 199.296637 528.820738 
L 202.220327 490.363325 
L 205.144017 515.388205 
L 208.067707 575.592459 
L 213.915087 513.641797 
L 216.838777 534.228914 
L 219.762468 516.922599 
L 222.686158 479.864522 
L 225.609848 473.946724 
L 231.457228 527.673852 
L 234.380918 422.991126 
L 237.304608 505.728115 
L 240.228298 536.17782 
L 243.151988 527.943582 
L 246.075678 501.118566 
L 248.999369 492.252451 
L 251.923059 501.197411 
L 254.846749 488.302343 
L 257.770439 521.800094 
L 260.694129 452.016694 
L 263.617819 518.064343 
L 266.541509 449.667757 
L 269.465199 479.902825 
L 272.388889 541.430755 
L 275.312579 551.80356 
L 278.23627 553.009842 
L 281.15996 539.932949 
L 284.08365 478.052877 
L 287.00734 463.723458 
L 289.93103 481.331755 
L 292.85472 450.224183 
L 295.77841 429.959546 
L 298.7021 494.627098 
L 301.62579 501.611363 
L 304.549481 444.405343 
L 307.473171 411.115094 
L 310.396861 405.808535 
L 313.320551 416.081927 
L 316.244241 434.744344 
L 319.167931 443.187167 
L 322.091621 502.391311 
L 325.015311 477.829111 
L 327.939001 535.887487 
L 330.862691 510.207084 
L 333.786382 401.246209 
L 336.710072 455.284098 
L 339.633762 507.06141 
L 342.557452 493.134749 
L 345.481142 426.918217 
L 348.404832 457.670638 
L 351.328522 494.358137 
L 354.252212 489.709795 
L 357.175902 423.737458 
L 360.099592 332.935796 
L 363.023283 304.265991 
L 365.946973 348.908414 
L 368.870663 380.406292 
L 371.794353 429.885843 
L 374.718043 476.777964 
L 377.641733 478.329918 
L 380.565423 514.526544 
L 383.489113 433.372012 
L 386.412803 449.71449 
L 389.336494 480.457082 
L 392.260184 470.740815 
L 395.183874 513.545987 
L 398.107564 411.215206 
L 401.031254 356.715512 
L 403.954944 393.013615 
L 406.878634 418.161099 
L 409.802324 424.517125 
L 412.726014 458.554266 
L 415.649704 526.344055 
L 418.573395 483.025693 
L 421.497085 532.394637 
L 424.420775 555.463579 
L 427.344465 446.585012 
L 430.268155 461.09846 
L 433.191845 450.880301 
L 436.115535 429.962799 
L 439.039225 492.860087 
L 441.962915 530.988829 
L 444.886605 453.818754 
L 447.810296 414.329293 
L 450.733986 454.416386 
L 453.657676 446.963005 
L 456.581366 505.624435 
L 458.767005 596.44 
M 460.21306 596.44 
L 462.428746 500.468779 
L 465.352436 502.326878 
L 468.276126 457.166472 
L 471.199816 476.790732 
L 474.123506 500.335681 
L 477.047197 527.758888 
L 479.970887 388.520794 
L 482.894577 457.402097 
L 485.818267 474.090142 
L 488.741957 482.388778 
L 491.665647 477.104152 
L 494.589337 472.112447 
L 497.513027 542.026847 
L 500.436717 482.916205 
L 503.360408 364.958845 
L 506.284098 421.745771 
L 509.207788 503.563732 
L 512.131478 483.410122 
L 515.055168 486.920112 
L 517.978858 418.399627 
L 520.902548 456.546803 
L 523.826238 474.786173 
L 526.749928 456.263711 
L 529.673618 497.029519 
L 532.597309 504.581998 
L 535.520999 421.591999 
L 538.444689 419.488971 
L 541.368379 521.174303 
L 544.292069 527.696029 
L 547.215759 420.417933 
L 550.139449 499.638216 
L 553.063139 465.964027 
L 555.986829 456.195255 
L 558.910519 381.780024 
L 561.83421 339.381878 
L 564.7579 420.85011 
L 567.68159 454.471759 
L 570.60528 589.096841 
L 573.52897 383.455212 
L 576.45266 404.957054 
L 579.37635 418.157496 
L 582.30004 374.12117 
L 585.22373 405.814621 
L 588.147421 377.472736 
L 591.071111 455.052006 
L 593.994801 526.858225 
L 596.918491 438.424336 
L 599.842181 460.172192 
L 602.765871 405.500886 
L 605.689561 432.787462 
L 608.613251 526.662757 
L 611.536941 549.674367 
L 614.460631 517.34771 
L 617.384322 444.538791 
L 620.308012 475.784534 
L 626.155392 580.114243 
L 629.079082 547.035797 
L 632.002772 545.300373 
L 634.926462 532.877849 
L 637.850152 500.3446 
L 640.773842 398.353824 
L 643.697532 347.799131 
L 646.621223 462.906747 
L 649.544913 503.817197 
L 652.468603 487.471465 
L 655.392293 468.245697 
L 658.315983 421.539214 
L 661.239673 502.921291 
L 664.163363 426.733698 
L 667.087053 501.448777 
L 670.010743 511.645948 
L 672.934433 482.398258 
L 675.858124 490.628508 
L 678.781814 442.455877 
L 681.705504 461.190352 
L 684.629194 512.204052 
L 687.552884 421.496714 
L 690.476574 539.027144 
L 693.400264 513.959485 
L 696.323954 528.346796 
L 699.247644 513.657923 
L 702.171335 484.336635 
L 705.095025 481.55846 
L 708.018715 476.212584 
L 710.942405 477.845831 
L 713.866095 475.531979 
L 716.789785 479.768467 
L 719.713475 479.374209 
L 722.637165 475.325738 
L 725.560855 477.400572 
L 728.484545 469.357499 
L 728.484545 469.357499 
" style="fill:none;stroke:#dd8452;stroke-dasharray:6,2.25;stroke-dashoffset:0;stroke-width:1.5;"/>
   </g>
   <g id="line2d_3">
    <path clip-path="url(#pe4419ff66c)" d="M 134.975455 423.880316 
L 137.899145 425.881447 
L 140.822835 425.752021 
L 143.746525 423.049752 
L 146.670215 434.621949 
L 149.593905 431.087403 
L 152.517595 432.807191 
L 155.441285 457.75389 
L 158.364975 459.656798 
L 161.288665 451.578955 
L 164.212356 451.696208 
L 167.136046 444.772072 
L 170.059736 452.392553 
L 172.983426 473.939344 
L 175.907116 483.886164 
L 178.830806 518.644905 
L 181.754496 557.380339 
L 184.678186 462.079752 
L 187.601876 424.471511 
L 190.525567 493.188409 
L 193.449257 496.457212 
L 196.372947 467.564428 
L 199.296637 504.08126 
L 202.220327 472.302528 
L 205.144017 473.223305 
L 208.067707 385.377708 
L 210.991397 482.329802 
L 213.915087 503.726809 
L 216.838777 460.528462 
L 219.762468 455.313271 
L 222.686158 450.371693 
L 225.609848 439.727373 
L 228.533538 475.180816 
L 231.457228 501.202973 
L 234.380918 423.377794 
L 237.304608 493.828471 
L 240.228298 539.447918 
L 243.151988 539.179552 
L 246.075678 483.531992 
L 248.999369 522.689738 
L 251.923059 475.001999 
L 254.846749 495.54553 
L 257.770439 514.165586 
L 260.694129 422.786004 
L 263.617819 479.547254 
L 266.541509 438.222852 
L 272.388889 493.115091 
L 275.312579 467.177026 
L 278.23627 428.769004 
L 281.15996 397.413914 
L 284.08365 369.58361 
L 287.00734 367.031895 
L 289.93103 364.781514 
L 292.85472 375.107114 
L 295.77841 403.928749 
L 298.7021 490.217739 
L 301.62579 533.322444 
L 304.549481 464.266696 
L 307.473171 452.793178 
L 310.396861 468.237897 
L 313.320551 486.863969 
L 316.244241 481.298314 
L 319.167931 500.13577 
L 322.091621 545.307124 
L 325.015311 522.867541 
L 327.939001 572.296126 
L 330.862691 552.106976 
L 333.786382 440.395035 
L 336.710072 491.47044 
L 339.633762 551.124705 
L 342.557452 569.164164 
L 345.481142 480.371031 
L 348.404832 489.837682 
L 351.328522 550.73216 
L 354.252212 418.442652 
L 357.175902 510.564684 
L 360.099592 416.912735 
L 363.023283 454.682093 
L 365.946973 376.273205 
L 368.870663 447.086379 
L 371.794353 418.134339 
L 374.718043 518.335892 
L 377.641733 493.825498 
L 380.565423 489.274295 
L 383.489113 477.749321 
L 386.412803 477.68188 
L 389.336494 517.920891 
L 392.260184 504.095532 
L 395.183874 524.194819 
L 398.107564 435.039854 
L 401.031254 398.163778 
L 403.954944 397.927559 
L 406.878634 412.847404 
L 409.802324 458.978397 
L 412.726014 477.906766 
L 415.649704 518.168653 
L 418.573395 535.835437 
L 424.420775 381.581862 
L 427.344465 341.748619 
L 430.268155 373.092096 
L 433.191845 375.53226 
L 436.115535 377.338763 
L 439.039225 455.821075 
L 441.962915 505.584627 
L 444.886605 412.720672 
L 447.810296 481.161158 
L 450.733986 451.081086 
L 453.657676 433.236989 
L 456.581366 527.925882 
L 457.650504 596.44 
M 462.004803 596.44 
L 462.428746 576.284327 
L 465.352436 520.884914 
L 468.276126 505.91092 
L 471.199816 456.843643 
L 474.123506 476.17617 
L 477.047197 480.608265 
L 479.970887 438.605253 
L 482.894577 481.623138 
L 485.818267 500.04881 
L 488.741957 459.092781 
L 491.665647 460.972218 
L 494.589337 400.379931 
L 497.513027 446.715137 
L 500.436717 371.98743 
L 503.360408 414.077228 
L 506.284098 476.400496 
L 509.207788 436.233544 
L 512.131478 437.355105 
L 515.055168 433.324194 
L 517.978858 434.685892 
L 520.902548 507.110556 
L 526.749928 526.639251 
L 529.673618 507.996563 
L 532.597309 519.933705 
L 535.520999 515.139392 
L 538.444689 490.735022 
L 541.368379 542.644173 
L 544.292069 500.796401 
L 547.215759 382.517016 
L 550.139449 511.856597 
L 553.063139 473.131867 
L 555.986829 439.397688 
L 558.910519 443.717183 
L 561.83421 402.014438 
L 564.7579 395.353422 
L 567.68159 412.794444 
L 570.60528 486.128901 
L 573.52897 468.583113 
L 576.45266 420.790889 
L 579.37635 436.766498 
L 582.30004 445.690645 
L 585.22373 468.098012 
L 588.147421 439.652831 
L 591.071111 526.55432 
L 593.994801 550.381171 
L 596.918491 453.137975 
L 599.842181 494.546539 
L 602.765871 441.837852 
L 605.689561 411.772996 
L 608.613251 489.727705 
L 611.536941 523.630383 
L 614.460631 498.183576 
L 617.384322 424.162673 
L 620.308012 432.894781 
L 623.231702 517.317662 
L 626.155392 572.495861 
L 629.079082 503.902373 
L 632.002772 525.005654 
L 634.926462 516.072832 
L 637.850152 401.065258 
L 640.773842 352.811893 
L 643.697532 388.286464 
L 646.621223 529.648083 
L 649.544913 510.053382 
L 652.468603 516.627963 
L 655.392293 499.568116 
L 658.315983 457.79828 
L 661.239673 520.399638 
L 664.163363 443.41828 
L 667.087053 517.734658 
L 670.010743 520.897542 
L 672.934433 471.839359 
L 675.858124 513.870286 
L 678.781814 454.647883 
L 681.705504 480.584409 
L 684.629194 537.552391 
L 687.552884 449.323275 
L 690.476574 537.837058 
L 693.400264 520.941092 
L 696.323954 549.419783 
L 699.247644 531.37032 
L 702.171335 507.855978 
L 705.095025 501.227039 
L 708.018715 493.111837 
L 710.942405 499.864711 
L 713.866095 493.057129 
L 716.789785 498.901994 
L 719.713475 496.028428 
L 722.637165 497.338671 
L 725.560855 501.304414 
L 728.484545 493.091339 
L 728.484545 493.091339 
" style="fill:none;stroke:#55a868;stroke-dasharray:1.5,1.5;stroke-dashoffset:0;stroke-width:1.5;"/>
   </g>
   <g id="line2d_4">
    <path clip-path="url(#pe4419ff66c)" d="M 134.975455 431.384977 
L 137.899145 434.708734 
L 140.822835 433.780437 
L 143.746525 432.555266 
L 146.670215 438.823457 
L 149.593905 436.17908 
L 152.517595 435.008162 
L 155.441285 436.121049 
L 158.364975 437.752967 
L 161.288665 439.691309 
L 164.212356 436.463537 
L 167.136046 439.453201 
L 170.059736 459.934049 
L 172.983426 467.213195 
L 175.907116 480.569508 
L 178.830806 530.893579 
L 181.754496 564.544716 
L 184.678186 473.087723 
L 187.601876 399.769392 
L 190.525567 525.088661 
L 193.449257 504.655351 
L 196.372947 479.55432 
L 199.296637 530.619441 
L 202.220327 491.961033 
L 205.144017 511.380625 
L 208.067707 575.583294 
L 210.991397 541.652772 
L 213.915087 521.724362 
L 216.838777 530.732076 
L 219.762468 519.495127 
L 222.686158 481.153357 
L 225.609848 473.536375 
L 228.533538 500.800039 
L 231.457228 530.160224 
L 234.380918 424.140811 
L 237.304608 509.35931 
L 240.228298 540.716115 
L 243.151988 530.896902 
L 246.075678 502.637744 
L 248.999369 492.09637 
L 251.923059 502.197137 
L 254.846749 487.347706 
L 257.770439 520.776057 
L 260.694129 452.822701 
L 263.617819 520.05652 
L 266.541509 448.410054 
L 269.465199 483.665615 
L 272.388889 540.766311 
L 275.312579 555.401175 
L 278.23627 549.514229 
L 281.15996 530.938073 
L 284.08365 472.946019 
L 287.00734 469.139469 
L 289.93103 483.056755 
L 292.85472 445.666509 
L 295.77841 430.869408 
L 298.7021 494.917781 
L 301.62579 503.005943 
L 304.549481 447.246832 
L 307.473171 411.541464 
L 310.396861 407.842477 
L 313.320551 415.372849 
L 316.244241 435.271526 
L 319.167931 444.120187 
L 322.091621 514.090799 
L 325.015311 478.632634 
L 327.939001 526.238416 
L 330.862691 521.157093 
L 333.786382 398.122047 
L 336.710072 465.311826 
L 339.633762 524.51548 
L 342.557452 503.362108 
L 345.481142 436.522198 
L 348.404832 413.99625 
L 351.328522 519.962389 
L 354.252212 506.587747 
L 357.175902 388.365168 
L 360.099592 369.728322 
L 363.023283 458.680543 
L 365.946973 365.366186 
L 368.870663 409.107386 
L 371.794353 455.912932 
L 374.718043 493.389053 
L 377.641733 472.193741 
L 380.565423 519.359545 
L 383.489113 432.378477 
L 386.412803 453.549933 
L 389.336494 482.732946 
L 392.260184 469.613832 
L 395.183874 511.975284 
L 398.107564 411.339805 
L 401.031254 359.699474 
L 403.954944 391.582411 
L 406.878634 421.350708 
L 409.802324 428.710238 
L 412.726014 458.105928 
L 415.649704 530.159245 
L 418.573395 485.807925 
L 421.497085 538.012062 
L 424.420775 561.258772 
L 427.344465 445.980769 
L 430.268155 458.746445 
L 433.191845 447.687649 
L 436.115535 428.079795 
L 439.039225 491.693017 
L 441.962915 531.420061 
L 444.886605 453.271773 
L 447.810296 414.926261 
L 450.733986 449.594649 
L 453.657676 453.017189 
L 456.581366 510.995496 
L 458.74445 596.44 
M 460.191744 596.44 
L 462.428746 498.563703 
L 465.352436 504.176196 
L 468.276126 454.42632 
L 471.199816 477.618602 
L 474.123506 507.564841 
L 477.047197 535.267678 
L 479.970887 389.621052 
L 482.894577 457.97164 
L 485.818267 474.003777 
L 488.741957 484.974249 
L 491.665647 478.165233 
L 494.589337 473.183533 
L 497.513027 543.410128 
L 500.436717 481.192675 
L 503.360408 363.440944 
L 506.284098 421.367848 
L 509.207788 502.525284 
L 512.131478 483.290281 
L 515.055168 486.506369 
L 517.978858 417.550734 
L 520.902548 456.484714 
L 523.826238 473.187031 
L 526.749928 455.252581 
L 529.673618 496.630083 
L 532.597309 503.574401 
L 535.520999 420.869594 
L 538.444689 421.501576 
L 541.368379 523.0352 
L 544.292069 529.178968 
L 547.215759 420.511155 
L 550.139449 497.986604 
L 553.063139 465.482598 
L 555.986829 458.102815 
L 558.910519 381.567171 
L 561.83421 339.813565 
L 564.7579 421.261299 
L 567.68159 455.204833 
L 570.60528 587.350469 
L 573.52897 395.485576 
L 576.45266 428.134818 
L 579.37635 392.694213 
L 582.30004 390.619204 
L 585.22373 463.663188 
L 588.147421 380.668327 
L 591.071111 451.206908 
L 593.994801 543.084885 
L 596.918491 471.371853 
L 599.842181 448.349609 
L 602.765871 419.123571 
L 605.689561 439.520712 
L 608.613251 518.050561 
L 611.536941 545.253465 
L 614.460631 521.515427 
L 617.384322 441.545595 
L 620.308012 476.8113 
L 623.231702 530.879027 
L 626.155392 574.525326 
L 629.079082 546.357676 
L 632.002772 542.693844 
L 634.926462 535.425402 
L 637.850152 501.141478 
L 640.773842 398.172908 
L 643.697532 346.395229 
L 646.621223 464.211638 
L 649.544913 499.397099 
L 652.468603 486.852461 
L 655.392293 467.909295 
L 658.315983 421.610888 
L 661.239673 503.642192 
L 664.163363 426.619453 
L 667.087053 499.817593 
L 670.010743 512.314764 
L 672.934433 481.685927 
L 675.858124 488.76971 
L 678.781814 442.144451 
L 681.705504 458.818014 
L 684.629194 511.135066 
L 687.552884 420.849725 
L 690.476574 538.668495 
L 693.400264 513.438144 
L 696.323954 527.386107 
L 699.247644 515.044562 
L 702.171335 482.653121 
L 705.095025 481.387793 
L 708.018715 477.172712 
L 710.942405 481.082628 
L 713.866095 478.913558 
L 716.789785 482.1499 
L 719.713475 481.17431 
L 722.637165 478.36948 
L 725.560855 480.607881 
L 728.484545 474.340179 
L 728.484545 474.340179 
" style="fill:none;stroke:#c44e52;stroke-dasharray:4.5,1.875,2.25,1.875;stroke-dashoffset:0;stroke-width:1.5;"/>
   </g>
   <g id="line2d_5">
    <path clip-path="url(#pe4419ff66c)" d="M 134.975455 433.665948 
L 137.899145 437.014051 
L 143.746525 435.870173 
L 146.670215 441.273066 
L 149.593905 439.834272 
L 152.517595 439.021374 
L 155.441285 440.315945 
L 158.364975 442.124442 
L 161.288665 445.160839 
L 164.212356 440.355683 
L 167.136046 442.458291 
L 170.059736 460.318198 
L 172.983426 467.575972 
L 175.907116 478.251948 
L 178.830806 526.959947 
L 181.754496 571.455384 
L 184.678186 476.270685 
L 187.601876 418.878327 
L 190.525567 532.392083 
L 193.449257 513.902293 
L 196.372947 489.871752 
L 199.296637 541.755473 
L 202.220327 493.221639 
L 205.144017 510.180219 
L 208.067707 577.203879 
L 213.915087 516.392093 
L 216.838777 536.660158 
L 219.762468 522.999625 
L 222.686158 487.355227 
L 225.609848 483.650119 
L 228.533538 505.605615 
L 231.457228 533.94012 
L 234.380918 431.148548 
L 237.304608 510.970521 
L 240.228298 540.561539 
L 243.151988 531.344715 
L 246.075678 500.813716 
L 248.999369 484.880643 
L 251.923059 507.994184 
L 254.846749 492.19323 
L 257.770439 526.129558 
L 260.694129 450.170803 
L 263.617819 518.104955 
L 266.541509 448.003203 
L 269.465199 483.361465 
L 272.388889 541.547168 
L 275.312579 556.366026 
L 278.23627 554.400539 
L 281.15996 539.331784 
L 284.08365 479.909366 
L 287.00734 466.968755 
L 289.93103 484.112169 
L 292.85472 447.053673 
L 295.77841 429.683064 
L 298.7021 492.638209 
L 301.62579 501.603108 
L 304.549481 443.195457 
L 307.473171 403.240309 
L 310.396861 417.249032 
L 313.320551 416.748015 
L 316.244241 433.421718 
L 319.167931 445.28061 
L 322.091621 516.321434 
L 325.015311 489.229941 
L 327.939001 519.859863 
L 330.862691 519.736453 
L 333.786382 411.260295 
L 336.710072 434.589628 
L 339.633762 515.684694 
L 342.557452 509.001256 
L 345.481142 453.191739 
L 348.404832 446.671237 
L 351.328522 421.809924 
L 354.252212 448.480189 
L 357.175902 502.80082 
L 360.099592 526.448365 
L 363.023283 543.005061 
L 365.946973 412.309833 
L 368.870663 482.436526 
L 371.794353 487.614288 
L 374.718043 528.909203 
L 377.641733 551.207117 
L 380.565423 562.152019 
L 383.489113 476.564552 
L 386.412803 455.729567 
L 389.336494 491.831467 
L 392.260184 485.922939 
L 395.183874 522.602043 
L 398.107564 400.299477 
L 401.031254 380.506685 
L 403.954944 390.217495 
L 406.878634 429.831799 
L 409.802324 440.516415 
L 412.726014 452.671588 
L 415.649704 553.05717 
L 418.573395 492.414338 
L 421.497085 552.155808 
L 424.420775 573.48163 
L 427.344465 456.318454 
L 430.268155 460.861541 
L 433.191845 451.371244 
L 436.115535 422.107743 
L 439.039225 482.860447 
L 441.962915 527.772285 
L 444.886605 456.833044 
L 447.810296 413.669957 
L 450.733986 444.294037 
L 453.657676 437.145016 
L 456.581366 492.205858 
L 459.466767 596.44 
M 459.54009 596.44 
L 462.428746 482.392381 
L 465.352436 493.103337 
L 468.276126 456.869213 
L 471.199816 486.621069 
L 474.123506 518.323195 
L 477.047197 523.348305 
L 479.970887 387.829171 
L 482.894577 461.858644 
L 485.818267 475.694671 
L 488.741957 485.045643 
L 491.665647 481.995324 
L 494.589337 470.533699 
L 497.513027 542.608319 
L 500.436717 476.486896 
L 503.360408 358.567734 
L 506.284098 417.936003 
L 509.207788 506.657112 
L 512.131478 497.180562 
L 515.055168 490.623891 
L 517.978858 424.982253 
L 520.902548 458.019493 
L 523.826238 467.773853 
L 526.749928 446.204535 
L 529.673618 491.80936 
L 532.597309 488.612965 
L 535.520999 408.694903 
L 538.444689 401.461125 
L 541.368379 520.558202 
L 544.292069 533.328146 
L 547.215759 418.292903 
L 550.139449 495.942657 
L 553.063139 394.670404 
L 555.986829 455.312432 
L 558.910519 405.691982 
L 561.83421 391.047254 
L 564.7579 454.325963 
L 567.68159 448.936117 
L 570.60528 503.958411 
L 573.52897 500.532687 
L 576.45266 570.898398 
L 579.37635 465.190901 
L 582.30004 407.617241 
L 585.22373 446.573888 
L 588.147421 407.731171 
L 591.071111 464.648572 
L 593.994801 509.433888 
L 596.918491 460.947767 
L 599.842181 435.281461 
L 602.765871 394.944681 
L 605.689561 415.002027 
L 608.613251 497.78505 
L 611.536941 518.802385 
L 614.460631 498.684314 
L 617.384322 415.634114 
L 620.308012 449.547566 
L 623.231702 511.602363 
L 626.155392 558.357922 
L 629.079082 529.942894 
L 632.002772 525.63886 
L 634.926462 518.363352 
L 637.850152 485.236703 
L 640.773842 379.267311 
L 643.697532 340.22276 
L 646.621223 441.721369 
L 649.544913 475.861 
L 652.468603 450.93424 
L 655.392293 437.649006 
L 658.315983 411.05129 
L 661.239673 479.399499 
L 664.163363 410.884821 
L 667.087053 493.957232 
L 670.010743 503.890025 
L 672.934433 480.762002 
L 675.858124 483.564033 
L 678.781814 427.654719 
L 681.705504 452.627758 
L 684.629194 496.870325 
L 687.552884 408.957217 
L 690.476574 514.947562 
L 693.400264 497.862845 
L 696.323954 515.501225 
L 699.247644 508.728972 
L 702.171335 479.434654 
L 705.095025 478.362974 
L 708.018715 474.078564 
L 710.942405 476.7681 
L 713.866095 474.679029 
L 716.789785 477.747747 
L 719.713475 477.245086 
L 722.637165 473.146034 
L 725.560855 475.651261 
L 728.484545 470.898085 
L 728.484545 470.898085 
" style="fill:none;stroke:#8172b3;stroke-dasharray:7.5,1.5,1.5,1.5;stroke-dashoffset:0;stroke-width:1.5;"/>
   </g>
   <g id="line2d_6"/>
   <g id="line2d_7"/>
   <g id="line2d_8"/>
   <g id="line2d_9"/>
   <g id="line2d_10"/>
   <g id="patch_3">
    <path d="M 105.3 529.9416 
L 105.3 71.4528 
" style="fill:none;stroke:#262626;stroke-linecap:square;stroke-linejoin:miter;stroke-width:1.25;"/>
   </g>
   <g id="patch_4">
    <path d="M 758.16 529.9416 
L 758.16 71.4528 
" style="fill:none;stroke:#262626;stroke-linecap:square;stroke-linejoin:miter;stroke-width:1.25;"/>
   </g>
   <g id="patch_5">
    <path d="M 105.3 529.9416 
L 758.16 529.9416 
" style="fill:none;stroke:#262626;stroke-linecap:square;stroke-linejoin:miter;stroke-width:1.25;"/>
   </g>
   <g id="patch_6">
    <path d="M 105.3 71.4528 
L 758.16 71.4528 
" style="fill:none;stroke:#262626;stroke-linecap:square;stroke-linejoin:miter;stroke-width:1.25;"/>
   </g>
   <g id="text_16">
    <!-- Activations for &gt;&lt;*IN*&gt;&lt; -->
    <g style="fill:#262626;" transform="translate(367.695 65.4528)scale(0.12 -0.12)">
     <defs>
      <path d="M -9 0 
L 1750 4581 
L 2403 4581 
L 4278 0 
L 3588 0 
L 3053 1388 
L 1138 1388 
L 634 0 
L -9 0 
z
M 1313 1881 
L 2866 1881 
L 2388 3150 
Q 2169 3728 2063 4100 
Q 1975 3659 1816 3225 
L 1313 1881 
z
" id="ArialMT-41" transform="scale(0.015625)"/>
      <path d="M 2588 1216 
L 3141 1144 
Q 3050 572 2676 248 
Q 2303 -75 1759 -75 
Q 1078 -75 664 370 
Q 250 816 250 1647 
Q 250 2184 428 2587 
Q 606 2991 970 3192 
Q 1334 3394 1763 3394 
Q 2303 3394 2647 3120 
Q 2991 2847 3088 2344 
L 2541 2259 
Q 2463 2594 2264 2762 
Q 2066 2931 1784 2931 
Q 1359 2931 1093 2626 
Q 828 2322 828 1663 
Q 828 994 1084 691 
Q 1341 388 1753 388 
Q 2084 388 2306 591 
Q 2528 794 2588 1216 
z
" id="ArialMT-63" transform="scale(0.015625)"/>
      <path d="M 1650 503 
L 1731 6 
Q 1494 -44 1306 -44 
Q 1000 -44 831 53 
Q 663 150 594 308 
Q 525 466 525 972 
L 525 2881 
L 113 2881 
L 113 3319 
L 525 3319 
L 525 4141 
L 1084 4478 
L 1084 3319 
L 1650 3319 
L 1650 2881 
L 1084 2881 
L 1084 941 
Q 1084 700 1114 631 
Q 1144 563 1211 522 
Q 1278 481 1403 481 
Q 1497 481 1650 503 
z
" id="ArialMT-74" transform="scale(0.015625)"/>
      <path d="M 425 3934 
L 425 4581 
L 988 4581 
L 988 3934 
L 425 3934 
z
M 425 0 
L 425 3319 
L 988 3319 
L 988 0 
L 425 0 
z
" id="ArialMT-69" transform="scale(0.015625)"/>
      <path d="M 1344 0 
L 81 3319 
L 675 3319 
L 1388 1331 
Q 1503 1009 1600 663 
Q 1675 925 1809 1294 
L 2547 3319 
L 3125 3319 
L 1869 0 
L 1344 0 
z
" id="ArialMT-76" transform="scale(0.015625)"/>
      <path d="M 2588 409 
Q 2275 144 1986 34 
Q 1697 -75 1366 -75 
Q 819 -75 525 192 
Q 231 459 231 875 
Q 231 1119 342 1320 
Q 453 1522 633 1644 
Q 813 1766 1038 1828 
Q 1203 1872 1538 1913 
Q 2219 1994 2541 2106 
Q 2544 2222 2544 2253 
Q 2544 2597 2384 2738 
Q 2169 2928 1744 2928 
Q 1347 2928 1158 2789 
Q 969 2650 878 2297 
L 328 2372 
Q 403 2725 575 2942 
Q 747 3159 1072 3276 
Q 1397 3394 1825 3394 
Q 2250 3394 2515 3294 
Q 2781 3194 2906 3042 
Q 3031 2891 3081 2659 
Q 3109 2516 3109 2141 
L 3109 1391 
Q 3109 606 3145 398 
Q 3181 191 3288 0 
L 2700 0 
Q 2613 175 2588 409 
z
M 2541 1666 
Q 2234 1541 1622 1453 
Q 1275 1403 1131 1340 
Q 988 1278 909 1158 
Q 831 1038 831 891 
Q 831 666 1001 516 
Q 1172 366 1500 366 
Q 1825 366 2078 508 
Q 2331 650 2450 897 
Q 2541 1088 2541 1459 
L 2541 1666 
z
" id="ArialMT-61" transform="scale(0.015625)"/>
      <path d="M 213 1659 
Q 213 2581 725 3025 
Q 1153 3394 1769 3394 
Q 2453 3394 2887 2945 
Q 3322 2497 3322 1706 
Q 3322 1066 3130 698 
Q 2938 331 2570 128 
Q 2203 -75 1769 -75 
Q 1072 -75 642 372 
Q 213 819 213 1659 
z
M 791 1659 
Q 791 1022 1069 705 
Q 1347 388 1769 388 
Q 2188 388 2466 706 
Q 2744 1025 2744 1678 
Q 2744 2294 2464 2611 
Q 2184 2928 1769 2928 
Q 1347 2928 1069 2612 
Q 791 2297 791 1659 
z
" id="ArialMT-6f" transform="scale(0.015625)"/>
      <path d="M 422 0 
L 422 3319 
L 928 3319 
L 928 2847 
Q 1294 3394 1984 3394 
Q 2284 3394 2536 3286 
Q 2788 3178 2913 3003 
Q 3038 2828 3088 2588 
Q 3119 2431 3119 2041 
L 3119 0 
L 2556 0 
L 2556 2019 
Q 2556 2363 2490 2533 
Q 2425 2703 2258 2804 
Q 2091 2906 1866 2906 
Q 1506 2906 1245 2678 
Q 984 2450 984 1813 
L 984 0 
L 422 0 
z
" id="ArialMT-6e" transform="scale(0.015625)"/>
      <path d="M 197 991 
L 753 1078 
Q 800 744 1014 566 
Q 1228 388 1613 388 
Q 2000 388 2187 545 
Q 2375 703 2375 916 
Q 2375 1106 2209 1216 
Q 2094 1291 1634 1406 
Q 1016 1563 777 1677 
Q 538 1791 414 1992 
Q 291 2194 291 2438 
Q 291 2659 392 2848 
Q 494 3038 669 3163 
Q 800 3259 1026 3326 
Q 1253 3394 1513 3394 
Q 1903 3394 2198 3281 
Q 2494 3169 2634 2976 
Q 2775 2784 2828 2463 
L 2278 2388 
Q 2241 2644 2061 2787 
Q 1881 2931 1553 2931 
Q 1166 2931 1000 2803 
Q 834 2675 834 2503 
Q 834 2394 903 2306 
Q 972 2216 1119 2156 
Q 1203 2125 1616 2013 
Q 2213 1853 2448 1751 
Q 2684 1650 2818 1456 
Q 2953 1263 2953 975 
Q 2953 694 2789 445 
Q 2625 197 2315 61 
Q 2006 -75 1616 -75 
Q 969 -75 630 194 
Q 291 463 197 991 
z
" id="ArialMT-73" transform="scale(0.015625)"/>
      <path id="ArialMT-20" transform="scale(0.015625)"/>
      <path d="M 556 0 
L 556 2881 
L 59 2881 
L 59 3319 
L 556 3319 
L 556 3672 
Q 556 4006 616 4169 
Q 697 4388 901 4523 
Q 1106 4659 1475 4659 
Q 1713 4659 2000 4603 
L 1916 4113 
Q 1741 4144 1584 4144 
Q 1328 4144 1222 4034 
Q 1116 3925 1116 3625 
L 1116 3319 
L 1763 3319 
L 1763 2881 
L 1116 2881 
L 1116 0 
L 556 0 
z
" id="ArialMT-66" transform="scale(0.015625)"/>
      <path d="M 416 0 
L 416 3319 
L 922 3319 
L 922 2816 
Q 1116 3169 1280 3281 
Q 1444 3394 1641 3394 
Q 1925 3394 2219 3213 
L 2025 2691 
Q 1819 2813 1613 2813 
Q 1428 2813 1281 2702 
Q 1134 2591 1072 2394 
Q 978 2094 978 1738 
L 978 0 
L 416 0 
z
" id="ArialMT-72" transform="scale(0.015625)"/>
      <path d="M 3384 2003 
L 350 706 
L 350 1266 
L 2753 2263 
L 350 3250 
L 350 3809 
L 3384 2528 
L 3384 2003 
z
" id="ArialMT-3e" transform="scale(0.015625)"/>
      <path d="M 350 2003 
L 350 2528 
L 3384 3809 
L 3384 3250 
L 978 2263 
L 3384 1266 
L 3384 706 
L 350 2003 
z
" id="ArialMT-3c" transform="scale(0.015625)"/>
      <path d="M 200 3741 
L 344 4184 
Q 841 4009 1066 3881 
Q 1006 4447 1003 4659 
L 1456 4659 
Q 1447 4350 1384 3884 
Q 1706 4047 2122 4184 
L 2266 3741 
Q 1869 3609 1488 3566 
Q 1678 3400 2025 2975 
L 1650 2709 
Q 1469 2956 1222 3381 
Q 991 2941 816 2709 
L 447 2975 
Q 809 3422 966 3566 
Q 563 3644 200 3741 
z
" id="ArialMT-2a" transform="scale(0.015625)"/>
      <path d="M 597 0 
L 597 4581 
L 1203 4581 
L 1203 0 
L 597 0 
z
" id="ArialMT-49" transform="scale(0.015625)"/>
      <path d="M 488 0 
L 488 4581 
L 1109 4581 
L 3516 984 
L 3516 4581 
L 4097 4581 
L 4097 0 
L 3475 0 
L 1069 3600 
L 1069 0 
L 488 0 
z
" id="ArialMT-4e" transform="scale(0.015625)"/>
     </defs>
     <use xlink:href="#ArialMT-41"/>
     <use x="66.699219" xlink:href="#ArialMT-63"/>
     <use x="116.699219" xlink:href="#ArialMT-74"/>
     <use x="144.482422" xlink:href="#ArialMT-69"/>
     <use x="166.699219" xlink:href="#ArialMT-76"/>
     <use x="216.699219" xlink:href="#ArialMT-61"/>
     <use x="272.314453" xlink:href="#ArialMT-74"/>
     <use x="300.097656" xlink:href="#ArialMT-69"/>
     <use x="322.314453" xlink:href="#ArialMT-6f"/>
     <use x="377.929688" xlink:href="#ArialMT-6e"/>
     <use x="433.544922" xlink:href="#ArialMT-73"/>
     <use x="483.544922" xlink:href="#ArialMT-20"/>
     <use x="511.328125" xlink:href="#ArialMT-66"/>
     <use x="539.111328" xlink:href="#ArialMT-6f"/>
     <use x="594.726562" xlink:href="#ArialMT-72"/>
     <use x="628.027344" xlink:href="#ArialMT-20"/>
     <use x="655.810547" xlink:href="#ArialMT-3e"/>
     <use x="714.208984" xlink:href="#ArialMT-3c"/>
     <use x="772.607422" xlink:href="#ArialMT-2a"/>
     <use x="811.523438" xlink:href="#ArialMT-49"/>
     <use x="839.306641" xlink:href="#ArialMT-4e"/>
     <use x="911.523438" xlink:href="#ArialMT-2a"/>
     <use x="950.439453" xlink:href="#ArialMT-3e"/>
     <use x="1008.837891" xlink:href="#ArialMT-3c"/>
    </g>
   </g>
   <g id="legend_1">
    <g id="patch_7">
     <path d="M 640.044062 158.514363 
L 750.46 158.514363 
Q 752.66 158.514363 752.66 156.314363 
L 752.66 79.1528 
Q 752.66 76.9528 750.46 76.9528 
L 640.044062 76.9528 
Q 637.844062 76.9528 637.844062 79.1528 
L 637.844062 156.314363 
Q 637.844062 158.514363 640.044062 158.514363 
z
" style="fill:#ffffff;opacity:0.8;stroke:#cccccc;stroke-linejoin:miter;"/>
    </g>
    <g id="line2d_11">
     <path d="M 642.244062 85.376394 
L 664.244062 85.376394 
" style="fill:none;stroke:#4c72b0;stroke-linecap:round;stroke-width:1.5;"/>
    </g>
    <g id="line2d_12"/>
    <g id="text_17">
     <!-- regular -->
     <g style="fill:#262626;" transform="translate(673.044062 89.226394)scale(0.11 -0.11)">
      <defs>
       <path d="M 2694 1069 
L 3275 997 
Q 3138 488 2766 206 
Q 2394 -75 1816 -75 
Q 1088 -75 661 373 
Q 234 822 234 1631 
Q 234 2469 665 2931 
Q 1097 3394 1784 3394 
Q 2450 3394 2872 2941 
Q 3294 2488 3294 1666 
Q 3294 1616 3291 1516 
L 816 1516 
Q 847 969 1125 678 
Q 1403 388 1819 388 
Q 2128 388 2347 550 
Q 2566 713 2694 1069 
z
M 847 1978 
L 2700 1978 
Q 2663 2397 2488 2606 
Q 2219 2931 1791 2931 
Q 1403 2931 1139 2672 
Q 875 2413 847 1978 
z
" id="ArialMT-65" transform="scale(0.015625)"/>
       <path d="M 319 -275 
L 866 -356 
Q 900 -609 1056 -725 
Q 1266 -881 1628 -881 
Q 2019 -881 2231 -725 
Q 2444 -569 2519 -288 
Q 2563 -116 2559 434 
Q 2191 0 1641 0 
Q 956 0 581 494 
Q 206 988 206 1678 
Q 206 2153 378 2554 
Q 550 2956 876 3175 
Q 1203 3394 1644 3394 
Q 2231 3394 2613 2919 
L 2613 3319 
L 3131 3319 
L 3131 450 
Q 3131 -325 2973 -648 
Q 2816 -972 2473 -1159 
Q 2131 -1347 1631 -1347 
Q 1038 -1347 672 -1080 
Q 306 -813 319 -275 
z
M 784 1719 
Q 784 1066 1043 766 
Q 1303 466 1694 466 
Q 2081 466 2343 764 
Q 2606 1063 2606 1700 
Q 2606 2309 2336 2618 
Q 2066 2928 1684 2928 
Q 1309 2928 1046 2623 
Q 784 2319 784 1719 
z
" id="ArialMT-67" transform="scale(0.015625)"/>
       <path d="M 2597 0 
L 2597 488 
Q 2209 -75 1544 -75 
Q 1250 -75 995 37 
Q 741 150 617 320 
Q 494 491 444 738 
Q 409 903 409 1263 
L 409 3319 
L 972 3319 
L 972 1478 
Q 972 1038 1006 884 
Q 1059 663 1231 536 
Q 1403 409 1656 409 
Q 1909 409 2131 539 
Q 2353 669 2445 892 
Q 2538 1116 2538 1541 
L 2538 3319 
L 3100 3319 
L 3100 0 
L 2597 0 
z
" id="ArialMT-75" transform="scale(0.015625)"/>
       <path d="M 409 0 
L 409 4581 
L 972 4581 
L 972 0 
L 409 0 
z
" id="ArialMT-6c" transform="scale(0.015625)"/>
      </defs>
      <use xlink:href="#ArialMT-72"/>
      <use x="33.300781" xlink:href="#ArialMT-65"/>
      <use x="88.916016" xlink:href="#ArialMT-67"/>
      <use x="144.53125" xlink:href="#ArialMT-75"/>
      <use x="200.146484" xlink:href="#ArialMT-6c"/>
      <use x="222.363281" xlink:href="#ArialMT-61"/>
      <use x="277.978516" xlink:href="#ArialMT-72"/>
     </g>
    </g>
    <g id="line2d_13">
     <path d="M 642.244062 101.0978 
L 664.244062 101.0978 
" style="fill:none;stroke:#dd8452;stroke-dasharray:6,2.25;stroke-dashoffset:0;stroke-width:1.5;"/>
    </g>
    <g id="line2d_14"/>
    <g id="text_18">
     <!-- splitted_3s -->
     <g style="fill:#262626;" transform="translate(673.044062 104.9478)scale(0.11 -0.11)">
      <defs>
       <path d="M 422 -1272 
L 422 3319 
L 934 3319 
L 934 2888 
Q 1116 3141 1344 3267 
Q 1572 3394 1897 3394 
Q 2322 3394 2647 3175 
Q 2972 2956 3137 2557 
Q 3303 2159 3303 1684 
Q 3303 1175 3120 767 
Q 2938 359 2589 142 
Q 2241 -75 1856 -75 
Q 1575 -75 1351 44 
Q 1128 163 984 344 
L 984 -1272 
L 422 -1272 
z
M 931 1641 
Q 931 1000 1190 694 
Q 1450 388 1819 388 
Q 2194 388 2461 705 
Q 2728 1022 2728 1688 
Q 2728 2322 2467 2637 
Q 2206 2953 1844 2953 
Q 1484 2953 1207 2617 
Q 931 2281 931 1641 
z
" id="ArialMT-70" transform="scale(0.015625)"/>
       <path d="M 2575 0 
L 2575 419 
Q 2259 -75 1647 -75 
Q 1250 -75 917 144 
Q 584 363 401 755 
Q 219 1147 219 1656 
Q 219 2153 384 2558 
Q 550 2963 881 3178 
Q 1213 3394 1622 3394 
Q 1922 3394 2156 3267 
Q 2391 3141 2538 2938 
L 2538 4581 
L 3097 4581 
L 3097 0 
L 2575 0 
z
M 797 1656 
Q 797 1019 1065 703 
Q 1334 388 1700 388 
Q 2069 388 2326 689 
Q 2584 991 2584 1609 
Q 2584 2291 2321 2609 
Q 2059 2928 1675 2928 
Q 1300 2928 1048 2622 
Q 797 2316 797 1656 
z
" id="ArialMT-64" transform="scale(0.015625)"/>
       <path d="M -97 -1272 
L -97 -866 
L 3631 -866 
L 3631 -1272 
L -97 -1272 
z
" id="ArialMT-5f" transform="scale(0.015625)"/>
       <path d="M 269 1209 
L 831 1284 
Q 928 806 1161 595 
Q 1394 384 1728 384 
Q 2125 384 2398 659 
Q 2672 934 2672 1341 
Q 2672 1728 2419 1979 
Q 2166 2231 1775 2231 
Q 1616 2231 1378 2169 
L 1441 2663 
Q 1497 2656 1531 2656 
Q 1891 2656 2178 2843 
Q 2466 3031 2466 3422 
Q 2466 3731 2256 3934 
Q 2047 4138 1716 4138 
Q 1388 4138 1169 3931 
Q 950 3725 888 3313 
L 325 3413 
Q 428 3978 793 4289 
Q 1159 4600 1703 4600 
Q 2078 4600 2393 4439 
Q 2709 4278 2876 4000 
Q 3044 3722 3044 3409 
Q 3044 3113 2884 2869 
Q 2725 2625 2413 2481 
Q 2819 2388 3044 2092 
Q 3269 1797 3269 1353 
Q 3269 753 2831 336 
Q 2394 -81 1725 -81 
Q 1122 -81 723 278 
Q 325 638 269 1209 
z
" id="ArialMT-33" transform="scale(0.015625)"/>
      </defs>
      <use xlink:href="#ArialMT-73"/>
      <use x="50" xlink:href="#ArialMT-70"/>
      <use x="105.615234" xlink:href="#ArialMT-6c"/>
      <use x="127.832031" xlink:href="#ArialMT-69"/>
      <use x="150.048828" xlink:href="#ArialMT-74"/>
      <use x="177.832031" xlink:href="#ArialMT-74"/>
      <use x="205.615234" xlink:href="#ArialMT-65"/>
      <use x="261.230469" xlink:href="#ArialMT-64"/>
      <use x="316.845703" xlink:href="#ArialMT-5f"/>
      <use x="372.460938" xlink:href="#ArialMT-33"/>
      <use x="428.076172" xlink:href="#ArialMT-73"/>
     </g>
    </g>
    <g id="line2d_15">
     <path d="M 642.244062 116.6903 
L 664.244062 116.6903 
" style="fill:none;stroke:#55a868;stroke-dasharray:1.5,1.5;stroke-dashoffset:0;stroke-width:1.5;"/>
    </g>
    <g id="line2d_16"/>
    <g id="text_19">
     <!-- splitted_1s -->
     <g style="fill:#262626;" transform="translate(673.044062 120.5403)scale(0.11 -0.11)">
      <use xlink:href="#ArialMT-73"/>
      <use x="50" xlink:href="#ArialMT-70"/>
      <use x="105.615234" xlink:href="#ArialMT-6c"/>
      <use x="127.832031" xlink:href="#ArialMT-69"/>
      <use x="150.048828" xlink:href="#ArialMT-74"/>
      <use x="177.832031" xlink:href="#ArialMT-74"/>
      <use x="205.615234" xlink:href="#ArialMT-65"/>
      <use x="261.230469" xlink:href="#ArialMT-64"/>
      <use x="316.845703" xlink:href="#ArialMT-5f"/>
      <use x="372.460938" xlink:href="#ArialMT-31"/>
      <use x="428.076172" xlink:href="#ArialMT-73"/>
     </g>
    </g>
    <g id="line2d_17">
     <path d="M 642.244062 132.384206 
L 664.244062 132.384206 
" style="fill:none;stroke:#c44e52;stroke-dasharray:4.5,1.875,2.25,1.875;stroke-dashoffset:0;stroke-width:1.5;"/>
    </g>
    <g id="line2d_18"/>
    <g id="text_20">
     <!-- overlap_1f_3s -->
     <g style="fill:#262626;" transform="translate(673.044062 136.234206)scale(0.11 -0.11)">
      <use xlink:href="#ArialMT-6f"/>
      <use x="55.615234" xlink:href="#ArialMT-76"/>
      <use x="105.615234" xlink:href="#ArialMT-65"/>
      <use x="161.230469" xlink:href="#ArialMT-72"/>
      <use x="194.53125" xlink:href="#ArialMT-6c"/>
      <use x="216.748047" xlink:href="#ArialMT-61"/>
      <use x="272.363281" xlink:href="#ArialMT-70"/>
      <use x="327.978516" xlink:href="#ArialMT-5f"/>
      <use x="383.59375" xlink:href="#ArialMT-31"/>
      <use x="439.208984" xlink:href="#ArialMT-66"/>
      <use x="466.992188" xlink:href="#ArialMT-5f"/>
      <use x="522.607422" xlink:href="#ArialMT-33"/>
      <use x="578.222656" xlink:href="#ArialMT-73"/>
     </g>
    </g>
    <g id="line2d_19">
     <path d="M 642.244062 148.078113 
L 664.244062 148.078113 
" style="fill:none;stroke:#8172b3;stroke-dasharray:7.5,1.5,1.5,1.5;stroke-dashoffset:0;stroke-width:1.5;"/>
    </g>
    <g id="line2d_20"/>
    <g id="text_21">
     <!-- overlap_10f_3s -->
     <g style="fill:#262626;" transform="translate(673.044062 151.928112)scale(0.11 -0.11)">
      <use xlink:href="#ArialMT-6f"/>
      <use x="55.615234" xlink:href="#ArialMT-76"/>
      <use x="105.615234" xlink:href="#ArialMT-65"/>
      <use x="161.230469" xlink:href="#ArialMT-72"/>
      <use x="194.53125" xlink:href="#ArialMT-6c"/>
      <use x="216.748047" xlink:href="#ArialMT-61"/>
      <use x="272.363281" xlink:href="#ArialMT-70"/>
      <use x="327.978516" xlink:href="#ArialMT-5f"/>
      <use x="383.59375" xlink:href="#ArialMT-31"/>
      <use x="439.208984" xlink:href="#ArialMT-30"/>
      <use x="494.824219" xlink:href="#ArialMT-66"/>
      <use x="522.607422" xlink:href="#ArialMT-5f"/>
      <use x="578.222656" xlink:href="#ArialMT-33"/>
      <use x="633.837891" xlink:href="#ArialMT-73"/>
     </g>
    </g>
   </g>
  </g>
 </g>
 <defs>
  <clipPath id="pe4419ff66c">
   <rect height="458.4888" width="652.86" x="105.3" y="71.4528"/>
  </clipPath>
 </defs>
</svg>
