<?xml version="1.0" encoding="utf-8" standalone="no"?>
<!DOCTYPE svg PUBLIC "-//W3C//DTD SVG 1.1//EN"
  "http://www.w3.org/Graphics/SVG/1.1/DTD/svg11.dtd">
<svg height="595.44pt" version="1.1" viewBox="0 0 842.4 595.44" width="842.4pt" xmlns="http://www.w3.org/2000/svg" xmlns:xlink="http://www.w3.org/1999/xlink">
 <metadata>
  <rdf:RDF xmlns:cc="http://creativecommons.org/ns#" xmlns:dc="http://purl.org/dc/elements/1.1/" xmlns:rdf="http://www.w3.org/1999/02/22-rdf-syntax-ns#">
   <cc:Work>
    <dc:type rdf:resource="http://purl.org/dc/dcmitype/StillImage"/>
    <dc:date>2021-06-04T22:03:11.778866</dc:date>
    <dc:format>image/svg+xml</dc:format>
    <dc:creator>
     <cc:Agent>
      <dc:title>Matplotlib v3.4.1, https://matplotlib.org/</dc:title>
     </cc:Agent>
    </dc:creator>
   </cc:Work>
  </rdf:RDF>
 </metadata>
 <defs>
  <style type="text/css">*{stroke-linecap:butt;stroke-linejoin:round;}</style>
 </defs>
 <g id="figure_1">
  <g id="patch_1">
   <path d="M 0 595.44 
L 842.4 595.44 
L 842.4 0 
L 0 0 
z
" style="fill:#ffffff;"/>
  </g>
  <g id="axes_1">
   <g id="patch_2">
    <path d="M 105.3 529.9416 
L 758.16 529.9416 
L 758.16 71.4528 
L 105.3 71.4528 
z
" style="fill:#ffffff;"/>
   </g>
   <g id="matplotlib.axis_1">
    <g id="xtick_1">
     <g id="text_1">
      <!-- 0 -->
      <g style="fill:#262626;" transform="translate(131.916939 547.315194)scale(0.11 -0.11)">
       <defs>
        <path d="M 266 2259 
Q 266 3072 433 3567 
Q 600 4063 929 4331 
Q 1259 4600 1759 4600 
Q 2128 4600 2406 4451 
Q 2684 4303 2865 4023 
Q 3047 3744 3150 3342 
Q 3253 2941 3253 2259 
Q 3253 1453 3087 958 
Q 2922 463 2592 192 
Q 2263 -78 1759 -78 
Q 1097 -78 719 397 
Q 266 969 266 2259 
z
M 844 2259 
Q 844 1131 1108 757 
Q 1372 384 1759 384 
Q 2147 384 2411 759 
Q 2675 1134 2675 2259 
Q 2675 3391 2411 3762 
Q 2147 4134 1753 4134 
Q 1366 4134 1134 3806 
Q 844 3388 844 2259 
z
" id="ArialMT-30" transform="scale(0.015625)"/>
       </defs>
       <use xlink:href="#ArialMT-30"/>
      </g>
     </g>
    </g>
    <g id="xtick_2">
     <g id="text_2">
      <!-- 25 -->
      <g style="fill:#262626;" transform="translate(201.950676 547.315194)scale(0.11 -0.11)">
       <defs>
        <path d="M 3222 541 
L 3222 0 
L 194 0 
Q 188 203 259 391 
Q 375 700 629 1000 
Q 884 1300 1366 1694 
Q 2113 2306 2375 2664 
Q 2638 3022 2638 3341 
Q 2638 3675 2398 3904 
Q 2159 4134 1775 4134 
Q 1369 4134 1125 3890 
Q 881 3647 878 3216 
L 300 3275 
Q 359 3922 746 4261 
Q 1134 4600 1788 4600 
Q 2447 4600 2831 4234 
Q 3216 3869 3216 3328 
Q 3216 3053 3103 2787 
Q 2991 2522 2730 2228 
Q 2469 1934 1863 1422 
Q 1356 997 1212 845 
Q 1069 694 975 541 
L 3222 541 
z
" id="ArialMT-32" transform="scale(0.015625)"/>
        <path d="M 266 1200 
L 856 1250 
Q 922 819 1161 601 
Q 1400 384 1738 384 
Q 2144 384 2425 690 
Q 2706 997 2706 1503 
Q 2706 1984 2436 2262 
Q 2166 2541 1728 2541 
Q 1456 2541 1237 2417 
Q 1019 2294 894 2097 
L 366 2166 
L 809 4519 
L 3088 4519 
L 3088 3981 
L 1259 3981 
L 1013 2750 
Q 1425 3038 1878 3038 
Q 2478 3038 2890 2622 
Q 3303 2206 3303 1553 
Q 3303 931 2941 478 
Q 2500 -78 1738 -78 
Q 1113 -78 717 272 
Q 322 622 266 1200 
z
" id="ArialMT-35" transform="scale(0.015625)"/>
       </defs>
       <use xlink:href="#ArialMT-32"/>
       <use x="55.615234" xlink:href="#ArialMT-35"/>
      </g>
     </g>
    </g>
    <g id="xtick_3">
     <g id="text_3">
      <!-- 50 -->
      <g style="fill:#262626;" transform="translate(275.042928 547.315194)scale(0.11 -0.11)">
       <use xlink:href="#ArialMT-35"/>
       <use x="55.615234" xlink:href="#ArialMT-30"/>
      </g>
     </g>
    </g>
    <g id="xtick_4">
     <g id="text_4">
      <!-- 75 -->
      <g style="fill:#262626;" transform="translate(348.135181 547.315194)scale(0.11 -0.11)">
       <defs>
        <path d="M 303 3981 
L 303 4522 
L 3269 4522 
L 3269 4084 
Q 2831 3619 2401 2847 
Q 1972 2075 1738 1259 
Q 1569 684 1522 0 
L 944 0 
Q 953 541 1156 1306 
Q 1359 2072 1739 2783 
Q 2119 3494 2547 3981 
L 303 3981 
z
" id="ArialMT-37" transform="scale(0.015625)"/>
       </defs>
       <use xlink:href="#ArialMT-37"/>
       <use x="55.615234" xlink:href="#ArialMT-35"/>
      </g>
     </g>
    </g>
    <g id="xtick_5">
     <g id="text_5">
      <!-- 100 -->
      <g style="fill:#262626;" transform="translate(418.168918 547.315194)scale(0.11 -0.11)">
       <defs>
        <path d="M 2384 0 
L 1822 0 
L 1822 3584 
Q 1619 3391 1289 3197 
Q 959 3003 697 2906 
L 697 3450 
Q 1169 3672 1522 3987 
Q 1875 4303 2022 4600 
L 2384 4600 
L 2384 0 
z
" id="ArialMT-31" transform="scale(0.015625)"/>
       </defs>
       <use xlink:href="#ArialMT-31"/>
       <use x="55.615234" xlink:href="#ArialMT-30"/>
       <use x="111.230469" xlink:href="#ArialMT-30"/>
      </g>
     </g>
    </g>
    <g id="xtick_6">
     <g id="text_6">
      <!-- 125 -->
      <g style="fill:#262626;" transform="translate(491.261171 547.315194)scale(0.11 -0.11)">
       <use xlink:href="#ArialMT-31"/>
       <use x="55.615234" xlink:href="#ArialMT-32"/>
       <use x="111.230469" xlink:href="#ArialMT-35"/>
      </g>
     </g>
    </g>
    <g id="xtick_7">
     <g id="text_7">
      <!-- 150 -->
      <g style="fill:#262626;" transform="translate(564.353423 547.315194)scale(0.11 -0.11)">
       <use xlink:href="#ArialMT-31"/>
       <use x="55.615234" xlink:href="#ArialMT-35"/>
       <use x="111.230469" xlink:href="#ArialMT-30"/>
      </g>
     </g>
    </g>
    <g id="xtick_8">
     <g id="text_8">
      <!-- 175 -->
      <g style="fill:#262626;" transform="translate(637.445676 547.315194)scale(0.11 -0.11)">
       <use xlink:href="#ArialMT-31"/>
       <use x="55.615234" xlink:href="#ArialMT-37"/>
       <use x="111.230469" xlink:href="#ArialMT-35"/>
      </g>
     </g>
    </g>
    <g id="xtick_9">
     <g id="text_9">
      <!-- 200 -->
      <g style="fill:#262626;" transform="translate(710.537928 547.315194)scale(0.11 -0.11)">
       <use xlink:href="#ArialMT-32"/>
       <use x="55.615234" xlink:href="#ArialMT-30"/>
       <use x="111.230469" xlink:href="#ArialMT-30"/>
      </g>
     </g>
    </g>
   </g>
   <g id="matplotlib.axis_2">
    <g id="ytick_1">
     <g id="text_10">
      <!-- −25 -->
      <g style="fill:#262626;" transform="translate(77.14125 533.878397)scale(0.11 -0.11)">
       <defs>
        <path d="M 3381 1997 
L 356 1997 
L 356 2522 
L 3381 2522 
L 3381 1997 
z
" id="ArialMT-2212" transform="scale(0.015625)"/>
       </defs>
       <use xlink:href="#ArialMT-2212"/>
       <use x="58.398438" xlink:href="#ArialMT-32"/>
       <use x="114.013672" xlink:href="#ArialMT-35"/>
      </g>
     </g>
    </g>
    <g id="ytick_2">
     <g id="text_11">
      <!-- −20 -->
      <g style="fill:#262626;" transform="translate(77.14125 442.180637)scale(0.11 -0.11)">
       <use xlink:href="#ArialMT-2212"/>
       <use x="58.398438" xlink:href="#ArialMT-32"/>
       <use x="114.013672" xlink:href="#ArialMT-30"/>
      </g>
     </g>
    </g>
    <g id="ytick_3">
     <g id="text_12">
      <!-- −15 -->
      <g style="fill:#262626;" transform="translate(77.14125 350.482877)scale(0.11 -0.11)">
       <use xlink:href="#ArialMT-2212"/>
       <use x="58.398438" xlink:href="#ArialMT-31"/>
       <use x="114.013672" xlink:href="#ArialMT-35"/>
      </g>
     </g>
    </g>
    <g id="ytick_4">
     <g id="text_13">
      <!-- −10 -->
      <g style="fill:#262626;" transform="translate(77.14125 258.785117)scale(0.11 -0.11)">
       <use xlink:href="#ArialMT-2212"/>
       <use x="58.398438" xlink:href="#ArialMT-31"/>
       <use x="114.013672" xlink:href="#ArialMT-30"/>
      </g>
     </g>
    </g>
    <g id="ytick_5">
     <g id="text_14">
      <!-- −5 -->
      <g style="fill:#262626;" transform="translate(83.258281 167.087357)scale(0.11 -0.11)">
       <use xlink:href="#ArialMT-2212"/>
       <use x="58.398438" xlink:href="#ArialMT-35"/>
      </g>
     </g>
    </g>
    <g id="ytick_6">
     <g id="text_15">
      <!-- 0 -->
      <g style="fill:#262626;" transform="translate(89.682969 75.389597)scale(0.11 -0.11)">
       <use xlink:href="#ArialMT-30"/>
      </g>
     </g>
    </g>
   </g>
   <g id="line2d_1">
    <path clip-path="url(#pe9d9051199)" d="M 134.975455 364.611599 
L 137.899145 365.104222 
L 140.822835 368.380651 
L 143.746525 367.044733 
L 146.670215 367.921154 
L 149.593905 369.424906 
L 152.517595 369.742349 
L 155.441285 373.655133 
L 158.364975 375.963738 
L 161.288665 379.366619 
L 164.212356 382.010716 
L 167.136046 382.525726 
L 170.059736 405.07623 
L 172.983426 421.768893 
L 175.907116 431.945181 
L 178.830806 453.66876 
L 181.754496 487.202155 
L 184.678186 431.529794 
L 187.601876 371.688422 
L 190.525567 495.141128 
L 193.449257 457.964329 
L 196.372947 424.738933 
L 199.296637 445.278966 
L 202.220327 354.804891 
L 205.144017 352.484271 
L 208.067707 446.223284 
L 210.991397 266.822664 
L 213.915087 357.962739 
L 216.838777 407.239179 
L 219.762468 466.653796 
L 222.686158 445.962019 
L 225.609848 414.815864 
L 228.533538 373.363225 
L 231.457228 423.148116 
L 234.380918 321.230867 
L 237.304608 410.99137 
L 240.228298 446.515961 
L 243.151988 411.875102 
L 246.075678 325.698503 
L 248.999369 268.673958 
L 251.923059 348.858183 
L 254.846749 362.048498 
L 257.770439 411.73074 
L 260.694129 376.90085 
L 263.617819 450.198752 
L 266.541509 335.399536 
L 269.465199 345.276309 
L 272.388889 372.479493 
L 275.312579 364.488557 
L 278.23627 361.479672 
L 281.15996 327.455177 
L 284.08365 286.307143 
L 287.00734 290.784311 
L 289.93103 366.933391 
L 292.85472 348.412311 
L 295.77841 371.441009 
L 298.7021 448.761077 
L 301.62579 400.841036 
L 304.549481 382.934886 
L 307.473171 372.020451 
L 310.396861 366.547633 
L 313.320551 297.359259 
L 316.244241 330.843507 
L 319.167931 257.32259 
L 322.091621 404.47566 
L 325.015311 410.611558 
L 327.939001 417.518972 
L 330.862691 416.384154 
L 333.786382 393.923617 
L 336.710072 404.480557 
L 339.633762 448.042345 
L 342.557452 380.795689 
L 345.481142 373.767628 
L 348.404832 320.499385 
L 351.328522 277.158583 
L 354.252212 330.204231 
L 357.175902 351.735946 
L 360.099592 335.722803 
L 363.023283 465.527303 
L 365.946973 364.735218 
L 368.870663 369.15731 
L 371.794353 442.203637 
L 374.718043 448.411943 
L 377.641733 439.304291 
L 380.565423 432.935497 
L 383.489113 434.686242 
L 386.412803 382.041079 
L 389.336494 378.541233 
L 392.260184 365.663271 
L 395.183874 376.548777 
L 398.107564 366.898936 
L 401.031254 358.798724 
L 403.954944 371.206259 
L 406.878634 413.73439 
L 409.802324 423.322561 
L 412.726014 406.511561 
L 415.649704 426.760492 
L 418.573395 341.204174 
L 421.497085 368.634115 
L 424.420775 442.109506 
L 427.344465 383.501385 
L 430.268155 462.233593 
L 433.191845 485.09521 
L 436.115535 368.193193 
L 439.039225 409.843713 
L 441.962915 433.169863 
L 444.886605 405.347604 
L 447.810296 329.30133 
L 450.733986 340.310367 
L 453.657676 428.900459 
L 456.581366 328.692347 
L 459.505056 426.959388 
L 462.428746 356.507994 
L 465.352436 406.235465 
L 468.276126 442.759992 
L 471.199816 418.21182 
L 474.123506 411.924739 
L 477.047197 358.449029 
L 479.970887 299.318204 
L 482.894577 403.739438 
L 485.818267 391.382326 
L 488.741957 400.02415 
L 491.665647 342.464098 
L 494.589337 362.265986 
L 497.513027 459.270619 
L 500.436717 367.66748 
L 503.360408 310.824027 
L 506.284098 400.335507 
L 509.207788 423.112331 
L 512.131478 457.601832 
L 515.055168 446.933482 
L 517.978858 380.682739 
L 520.902548 460.335793 
L 523.826238 438.242686 
L 526.749928 373.878969 
L 529.673618 420.839196 
L 532.597309 454.54959 
L 535.520999 414.374487 
L 538.444689 361.660606 
L 541.368379 414.23957 
L 544.292069 431.949693 
L 547.215759 309.177714 
L 550.139449 346.347936 
L 553.063139 297.490189 
L 555.986829 386.325454 
L 561.83421 297.154923 
L 564.7579 267.120448 
L 567.68159 262.466754 
L 570.60528 297.439205 
L 573.52897 308.883306 
L 576.45266 350.825313 
L 579.37635 430.599223 
L 582.30004 466.055464 
L 585.22373 421.270464 
L 588.147421 387.846101 
L 591.071111 345.423469 
L 593.994801 364.143183 
L 596.918491 286.740807 
L 599.842181 275.943153 
L 602.765871 364.503844 
L 605.689561 331.899218 
L 608.613251 325.140136 
L 611.536941 376.151964 
L 614.460631 351.116364 
L 617.384322 233.785791 
L 620.308012 358.624734 
L 623.231702 435.869998 
L 626.155392 486.434276 
L 629.079082 458.397556 
L 632.002772 415.549848 
L 634.926462 370.077562 
L 637.850152 422.717688 
L 640.773842 348.750794 
L 643.697532 240.444411 
L 646.621223 87.187654 
L 649.544913 71.772815 
L 652.468603 304.708715 
L 655.392293 329.587675 
L 658.315983 326.867427 
L 661.239673 446.983958 
L 664.163363 380.860506 
L 667.087053 413.894983 
L 670.010743 357.900457 
L 672.934433 165.272092 
L 675.858124 71.455817 
L 678.781814 109.832002 
L 681.705504 331.057794 
L 684.629194 399.228847 
L 687.552884 390.542843 
L 690.476574 490.417334 
L 693.400264 407.466443 
L 696.323954 417.468636 
L 699.247644 389.626649 
L 702.171335 393.494379 
L 705.095025 405.821267 
L 708.018715 401.111641 
L 710.942405 400.298113 
L 713.866095 397.266578 
L 716.789785 398.312933 
L 719.713475 397.928468 
L 722.637165 396.486946 
L 725.560855 401.29588 
L 728.484545 396.295711 
L 728.484545 396.295711 
" style="fill:none;stroke:#4c72b0;stroke-linecap:round;stroke-width:1.5;"/>
   </g>
   <g id="line2d_2">
    <path clip-path="url(#pe9d9051199)" d="M 134.975455 370.259107 
L 137.899145 372.470608 
L 140.822835 372.698677 
L 143.746525 371.769435 
L 146.670215 375.050447 
L 149.593905 374.690119 
L 152.517595 372.012896 
L 155.441285 373.832236 
L 158.364975 374.239018 
L 161.288665 373.970197 
L 164.212356 374.589202 
L 167.136046 373.724148 
L 170.059736 391.076322 
L 172.983426 402.092233 
L 175.907116 416.115438 
L 178.830806 442.434994 
L 181.754496 460.386374 
L 184.678186 421.300232 
L 187.601876 341.268834 
L 190.525567 484.611612 
L 193.449257 442.185412 
L 196.372947 416.001229 
L 199.296637 424.461577 
L 202.220327 359.020549 
L 205.144017 364.410692 
L 208.067707 436.547664 
L 210.991397 288.818422 
L 213.915087 326.29944 
L 216.838777 403.157896 
L 219.762468 449.255449 
L 222.686158 418.517649 
L 225.609848 378.684336 
L 228.533538 341.393993 
L 231.457228 392.781418 
L 234.380918 303.450295 
L 237.304608 377.129863 
L 240.228298 424.102578 
L 243.151988 400.456187 
L 246.075678 315.558699 
L 248.999369 280.727112 
L 251.923059 341.147909 
L 254.846749 351.183228 
L 257.770439 418.837261 
L 260.694129 391.926054 
L 263.617819 470.054089 
L 266.541509 351.523688 
L 269.465199 351.64059 
L 272.388889 404.128204 
L 275.312579 397.691969 
L 278.23627 387.071751 
L 281.15996 354.616472 
L 284.08365 301.587019 
L 287.00734 311.208578 
L 289.93103 388.54528 
L 292.85472 382.49099 
L 295.77841 365.648754 
L 298.7021 440.919769 
L 301.62579 385.746117 
L 304.549481 384.60885 
L 307.473171 384.395262 
L 310.396861 346.959718 
L 313.320551 300.494089 
L 316.244241 353.897302 
L 319.167931 281.133036 
L 322.091621 397.086467 
L 327.939001 420.808099 
L 330.862691 390.307288 
L 333.786382 373.030182 
L 336.710072 428.237274 
L 339.633762 448.7828 
L 342.557452 370.862651 
L 345.481142 315.537921 
L 348.404832 292.3788 
L 351.328522 405.062308 
L 354.252212 296.510663 
L 357.175902 276.342886 
L 360.099592 243.122561 
L 363.023283 279.114747 
L 365.946973 255.835698 
L 368.870663 220.646931 
L 371.794353 273.367546 
L 374.718043 300.620314 
L 377.641733 302.839528 
L 380.565423 347.61685 
L 383.489113 349.605354 
L 386.412803 396.926714 
L 389.336494 394.264392 
L 392.260184 357.749973 
L 395.183874 363.196871 
L 398.107564 322.208784 
L 401.031254 312.853317 
L 403.954944 347.035624 
L 406.878634 376.784961 
L 409.802324 391.672625 
L 412.726014 418.367585 
L 415.649704 431.270348 
L 418.573395 316.124831 
L 421.497085 357.498625 
L 424.420775 407.760554 
L 427.344465 338.830664 
L 430.268155 421.562511 
L 433.191845 449.032941 
L 436.115535 351.979616 
L 439.039225 417.860691 
L 441.962915 427.862569 
L 444.886605 347.380001 
L 447.810296 295.01891 
L 450.733986 361.6311 
L 453.657676 421.592629 
L 456.581366 336.73416 
L 459.505056 422.033131 
L 462.428746 346.150282 
L 465.352436 404.636358 
L 468.276126 429.684149 
L 471.199816 420.120114 
L 474.123506 398.057299 
L 477.047197 392.061846 
L 479.970887 294.294371 
L 482.894577 395.630183 
L 485.818267 401.733269 
L 488.741957 424.230395 
L 491.665647 361.328402 
L 494.589337 352.814447 
L 497.513027 445.274489 
L 500.436717 370.238364 
L 503.360408 322.056691 
L 506.284098 430.010581 
L 509.207788 441.775553 
L 512.131478 446.12695 
L 515.055168 464.526842 
L 517.978858 390.049521 
L 520.902548 449.794664 
L 523.826238 431.915693 
L 526.749928 394.761212 
L 529.673618 438.061 
L 532.597309 453.691042 
L 535.520999 403.187664 
L 538.444689 340.691194 
L 541.368379 377.819597 
L 544.292069 449.70592 
L 547.215759 281.854182 
L 550.139449 334.989572 
L 553.063139 337.092494 
L 555.986829 380.099238 
L 558.910519 307.779374 
L 561.83421 244.928977 
L 564.7579 258.240043 
L 567.68159 222.937556 
L 570.60528 352.446283 
L 573.52897 220.421608 
L 576.45266 244.122567 
L 579.37635 313.344522 
L 582.30004 303.492201 
L 585.22373 333.003569 
L 588.147421 292.91562 
L 591.071111 349.22465 
L 593.994801 363.519579 
L 596.918491 282.932718 
L 599.842181 255.502252 
L 602.765871 312.318421 
L 605.689561 349.384928 
L 608.613251 379.787043 
L 611.536941 355.442033 
L 614.460631 321.157637 
L 617.384322 280.752087 
L 620.308012 385.239538 
L 623.231702 440.659064 
L 626.155392 482.238015 
L 629.079082 430.478193 
L 632.002772 410.497348 
L 634.926462 373.392783 
L 637.850152 414.040324 
L 640.773842 364.158872 
L 646.621223 82.859282 
L 649.544913 71.615177 
L 652.468603 276.58026 
L 655.392293 343.134086 
L 658.315983 304.780826 
L 661.239673 427.361517 
L 664.163363 350.823757 
L 667.087053 409.645377 
L 670.010743 342.818637 
L 672.934433 156.964973 
L 675.858124 71.456129 
L 678.781814 141.788201 
L 681.705504 327.447674 
L 684.629194 389.702066 
L 687.552884 381.051602 
L 690.476574 477.134829 
L 693.400264 419.492085 
L 696.323954 420.273606 
L 699.247644 382.516596 
L 702.171335 378.135746 
L 705.095025 388.569101 
L 708.018715 384.476905 
L 710.942405 384.856508 
L 713.866095 378.099576 
L 716.789785 382.828687 
L 719.713475 381.400946 
L 722.637165 377.848875 
L 725.560855 382.736899 
L 728.484545 375.315455 
L 728.484545 375.315455 
" style="fill:none;stroke:#dd8452;stroke-dasharray:6,2.25;stroke-dashoffset:0;stroke-width:1.5;"/>
   </g>
   <g id="line2d_3">
    <path clip-path="url(#pe9d9051199)" d="M 134.975455 374.880654 
L 137.899145 376.555843 
L 140.822835 377.042938 
L 143.746525 374.935153 
L 146.670215 385.381556 
L 149.593905 385.718133 
L 152.517595 385.219529 
L 155.441285 418.274504 
L 158.364975 417.860971 
L 161.288665 404.652833 
L 164.212356 407.89778 
L 167.136046 398.886778 
L 170.059736 399.941318 
L 175.907116 425.542316 
L 178.830806 441.487318 
L 181.754496 452.7016 
L 184.678186 348.945947 
L 187.601876 316.924542 
L 190.525567 334.865236 
L 193.449257 372.984288 
L 196.372947 397.827971 
L 199.296637 386.549641 
L 202.220327 395.734458 
L 205.144017 349.147904 
L 208.067707 339.688512 
L 210.991397 309.088113 
L 213.915087 330.137315 
L 216.838777 311.84628 
L 219.762468 406.90554 
L 222.686158 364.353168 
L 225.609848 303.644083 
L 228.533538 314.3411 
L 231.457228 352.936894 
L 234.380918 285.498233 
L 237.304608 372.254292 
L 240.228298 401.482813 
L 243.151988 386.879361 
L 246.075678 282.679096 
L 248.999369 293.392361 
L 251.923059 306.452359 
L 254.846749 369.637339 
L 257.770439 435.738753 
L 260.694129 358.449991 
L 263.617819 461.770319 
L 266.541509 357.356607 
L 269.465199 387.289571 
L 272.388889 401.067776 
L 275.312579 332.030603 
L 278.23627 328.647625 
L 281.15996 290.768727 
L 284.08365 330.423853 
L 287.00734 251.255882 
L 289.93103 324.751894 
L 292.85472 288.094355 
L 295.77841 396.65394 
L 298.7021 468.304778 
L 301.62579 428.867228 
L 304.549481 411.626605 
L 307.473171 400.410329 
L 310.396861 386.364142 
L 313.320551 335.089509 
L 316.244241 381.138422 
L 319.167931 314.378669 
L 322.091621 431.437832 
L 325.015311 422.416266 
L 327.939001 422.47038 
L 330.862691 419.619621 
L 333.786382 378.370881 
L 336.710072 445.328883 
L 339.633762 482.860902 
L 342.557452 418.628046 
L 345.481142 394.017993 
L 348.404832 379.910942 
L 351.328522 376.332076 
L 354.252212 321.056982 
L 357.175902 319.048488 
L 360.099592 284.260608 
L 363.023283 263.498137 
L 365.946973 298.628977 
L 368.870663 290.081791 
L 371.794353 242.318758 
L 374.718043 327.137594 
L 377.641733 330.952732 
L 380.565423 335.092115 
L 383.489113 305.304038 
L 386.412803 379.56534 
L 389.336494 375.80248 
L 392.260184 350.571062 
L 395.183874 327.665511 
L 398.107564 348.441012 
L 401.031254 276.298077 
L 403.954944 333.702328 
L 406.878634 387.030195 
L 409.802324 437.696544 
L 412.726014 389.374654 
L 415.649704 431.304454 
L 418.573395 350.365345 
L 421.497085 367.143831 
L 424.420775 404.491926 
L 427.344465 349.113501 
L 430.268155 391.545997 
L 433.191845 339.329215 
L 436.115535 300.784248 
L 439.039225 420.992129 
L 441.962915 373.970477 
L 444.886605 365.129302 
L 447.810296 361.481963 
L 450.733986 336.902711 
L 453.657676 335.186526 
L 456.581366 327.122693 
L 459.505056 443.563621 
L 462.428746 343.846225 
L 465.352436 399.578716 
L 468.276126 423.114955 
L 471.199816 378.875991 
L 474.123506 342.862065 
L 477.047197 384.062708 
L 479.970887 274.767985 
L 482.894577 332.015946 
L 485.818267 363.309035 
L 488.741957 407.901069 
L 491.665647 346.337145 
L 494.589337 373.465891 
L 497.513027 413.920798 
L 500.436717 307.239739 
L 503.360408 309.645256 
L 506.284098 288.96086 
L 509.207788 352.582215 
L 512.131478 398.109804 
L 515.055168 321.005299 
L 517.978858 290.675401 
L 520.902548 277.923366 
L 523.826238 362.58579 
L 526.749928 381.801256 
L 529.673618 358.181153 
L 532.597309 325.586287 
L 535.520999 367.961416 
L 538.444689 289.100325 
L 541.368379 311.358257 
L 544.292069 350.72221 
L 547.215759 243.119571 
L 550.139449 279.338549 
L 553.063139 260.046948 
L 555.986829 239.5884 
L 558.910519 309.478244 
L 561.83421 258.803937 
L 564.7579 285.587134 
L 567.68159 334.958002 
L 570.60528 351.925799 
L 573.52897 297.174792 
L 576.45266 350.026932 
L 579.37635 352.890178 
L 582.30004 384.096744 
L 585.22373 429.875769 
L 588.147421 335.040065 
L 591.071111 249.199081 
L 593.994801 243.667391 
L 596.918491 178.312466 
L 599.842181 176.443699 
L 602.765871 228.92297 
L 605.689561 380.643351 
L 608.613251 379.795263 
L 611.536941 373.09311 
L 614.460631 334.26059 
L 617.384322 274.752087 
L 620.308012 384.278499 
L 623.231702 439.157236 
L 626.155392 457.908991 
L 629.079082 431.349962 
L 632.002772 434.805699 
L 634.926462 376.952515 
L 637.850152 400.760897 
L 640.773842 361.387588 
L 643.697532 279.931843 
L 646.621223 75.943546 
L 649.544913 71.487277 
L 652.468603 200.746995 
L 655.392293 368.841686 
L 658.315983 252.374855 
L 661.239673 279.026248 
L 664.163363 202.3712 
L 667.087053 341.718554 
L 670.010743 274.498115 
L 672.934433 83.048234 
L 675.858124 71.454682 
L 678.781814 105.216175 
L 681.705504 153.346607 
L 684.629194 279.806947 
L 687.552884 374.736782 
L 690.476574 391.820415 
L 693.400264 363.764596 
L 696.323954 395.366819 
L 699.247644 369.87174 
L 702.171335 360.031381 
L 705.095025 366.400822 
L 708.018715 364.178968 
L 710.942405 366.318794 
L 713.866095 353.872519 
L 716.789785 361.57062 
L 719.713475 358.14327 
L 722.637165 359.803277 
L 725.560855 363.898079 
L 728.484545 361.182395 
L 728.484545 361.182395 
" style="fill:none;stroke:#55a868;stroke-dasharray:1.5,1.5;stroke-dashoffset:0;stroke-width:1.5;"/>
   </g>
   <g id="line2d_4">
    <path clip-path="url(#pe9d9051199)" d="M 134.975455 369.862225 
L 137.899145 372.094399 
L 140.822835 372.498487 
L 143.746525 371.425093 
L 146.670215 374.725413 
L 149.593905 374.552578 
L 152.517595 371.932442 
L 155.441285 373.860325 
L 158.364975 374.384044 
L 161.288665 374.184414 
L 164.212356 374.778828 
L 167.136046 373.972855 
L 170.059736 391.652616 
L 172.983426 402.573347 
L 175.907116 416.580006 
L 178.830806 442.8869 
L 181.754496 461.147292 
L 184.678186 422.036594 
L 187.601876 341.555268 
L 190.525567 485.378477 
L 193.449257 443.783155 
L 196.372947 415.76431 
L 199.296637 425.778886 
L 202.220327 359.626611 
L 205.144017 361.587375 
L 208.067707 440.149896 
L 210.991397 277.069191 
L 213.915087 332.254072 
L 216.838777 397.521442 
L 219.762468 451.148912 
L 222.686158 419.398338 
L 225.609848 378.809809 
L 228.533538 341.317911 
L 231.457228 395.362237 
L 234.380918 303.936953 
L 237.304608 382.449784 
L 240.228298 428.261026 
L 243.151988 402.869977 
L 246.075678 317.98599 
L 248.999369 281.116421 
L 251.923059 340.976647 
L 254.846749 351.650402 
L 257.770439 416.753367 
L 260.694129 392.529982 
L 263.617819 469.323708 
L 266.541509 344.337885 
L 269.465199 350.979907 
L 272.388889 398.644088 
L 275.312579 395.517582 
L 278.23627 387.084868 
L 281.15996 346.975931 
L 284.08365 296.057306 
L 287.00734 313.195333 
L 289.93103 387.227866 
L 292.85472 374.921756 
L 295.77841 367.968727 
L 298.7021 440.670047 
L 301.62579 387.497946 
L 304.549481 388.673411 
L 307.473171 385.454594 
L 310.396861 351.643126 
L 313.320551 298.238357 
L 316.244241 351.025469 
L 319.167931 284.794804 
L 322.091621 439.334094 
L 325.015311 414.941757 
L 327.939001 416.045723 
L 330.862691 413.613394 
L 333.786382 371.792207 
L 336.710072 424.981658 
L 339.633762 471.068087 
L 342.557452 380.952993 
L 345.481142 309.605431 
L 348.404832 326.295505 
L 351.328522 372.312743 
L 354.252212 265.43438 
L 357.175902 311.813154 
L 360.099592 270.628444 
L 363.023283 428.711007 
L 365.946973 259.651675 
L 368.870663 235.025357 
L 371.794353 321.868814 
L 374.718043 352.504455 
L 377.641733 315.575139 
L 380.565423 362.195274 
L 383.489113 347.674952 
L 386.412803 403.618687 
L 389.336494 393.971295 
L 392.260184 356.782779 
L 395.183874 364.53181 
L 398.107564 324.421124 
L 401.031254 318.088989 
L 403.954944 346.702318 
L 406.878634 367.506887 
L 412.726014 418.880706 
L 415.649704 435.334105 
L 418.573395 314.98501 
L 421.497085 362.509691 
L 424.420775 415.778931 
L 427.344465 345.920027 
L 430.268155 421.453339 
L 433.191845 445.308524 
L 436.115535 353.223729 
L 439.039225 415.38002 
L 441.962915 428.256513 
L 444.886605 346.564917 
L 447.810296 294.192911 
L 450.733986 354.801901 
L 453.657676 429.315635 
L 456.581366 335.649748 
L 459.505056 422.655249 
L 462.428746 342.925466 
L 465.352436 415.595881 
L 468.276126 432.854169 
L 471.199816 430.945385 
L 474.123506 404.537924 
L 477.047197 394.888014 
L 479.970887 292.89715 
L 482.894577 396.215187 
L 485.818267 402.588353 
L 488.741957 425.295148 
L 491.665647 363.413502 
L 494.589337 355.30785 
L 497.513027 446.747179 
L 500.436717 369.623137 
L 503.360408 319.992491 
L 506.284098 425.975648 
L 509.207788 439.374181 
L 512.131478 441.720424 
L 515.055168 446.3447 
L 517.978858 372.392882 
L 520.902548 440.477833 
L 523.826238 430.719729 
L 526.749928 391.959005 
L 529.673618 430.164003 
L 532.597309 445.100184 
L 535.520999 410.499412 
L 538.444689 343.76752 
L 541.368379 367.954001 
L 544.292069 431.927901 
L 547.215759 264.582847 
L 550.139449 326.739068 
L 553.063139 292.118725 
L 555.986829 388.543146 
L 558.910519 363.331894 
L 561.83421 267.719654 
L 564.7579 240.405286 
L 567.68159 217.985545 
L 570.60528 335.858595 
L 573.52897 271.041836 
L 576.45266 279.331483 
L 579.37635 360.175988 
L 582.30004 364.540555 
L 585.22373 410.324652 
L 588.147421 310.216076 
L 591.071111 330.296683 
L 593.994801 372.254222 
L 596.918491 292.193704 
L 599.842181 255.69793 
L 602.765871 344.240291 
L 605.689561 355.741969 
L 608.613251 378.858291 
L 611.536941 355.880367 
L 614.460631 329.50033 
L 617.384322 279.250452 
L 620.308012 383.961966 
L 623.231702 442.536261 
L 626.155392 481.032642 
L 629.079082 433.381596 
L 632.002772 410.153565 
L 634.926462 376.599812 
L 637.850152 413.303437 
L 640.773842 361.909908 
L 643.697532 225.315054 
L 646.621223 81.610274 
L 649.544913 71.641621 
L 652.468603 278.146765 
L 655.392293 344.484468 
L 658.315983 305.097744 
L 661.239673 427.998501 
L 664.163363 350.26525 
L 667.087053 407.183106 
L 670.010743 343.519985 
L 672.934433 156.102106 
L 675.858124 71.456254 
L 678.781814 144.046185 
L 681.705504 326.64436 
L 684.629194 392.069332 
L 687.552884 382.710734 
L 690.476574 477.253166 
L 693.400264 419.780774 
L 696.323954 420.738244 
L 699.247644 385.000765 
L 702.171335 379.056102 
L 705.095025 390.134418 
L 708.018715 386.978284 
L 710.942405 387.817313 
L 713.866095 381.421794 
L 716.789785 385.377603 
L 719.713475 383.882667 
L 722.637165 381.950061 
L 725.560855 386.2811 
L 728.484545 379.810234 
L 728.484545 379.810234 
" style="fill:none;stroke:#c44e52;stroke-dasharray:4.5,1.875,2.25,1.875;stroke-dashoffset:0;stroke-width:1.5;"/>
   </g>
   <g id="line2d_5">
    <path clip-path="url(#pe9d9051199)" d="M 134.975455 371.169879 
L 137.899145 373.750908 
L 140.822835 373.736566 
L 143.746525 372.871443 
L 146.670215 376.163228 
L 149.593905 376.155882 
L 152.517595 373.814746 
L 155.441285 375.159724 
L 161.288665 375.572312 
L 164.212356 375.108234 
L 167.136046 373.789875 
L 170.059736 390.525563 
L 172.983426 401.757126 
L 175.907116 414.44004 
L 178.830806 441.699261 
L 181.754496 471.014673 
L 184.678186 421.319471 
L 187.601876 356.804589 
L 190.525567 488.474585 
L 193.449257 452.705588 
L 196.372947 425.071802 
L 199.296637 436.241135 
L 202.220327 360.147882 
L 205.144017 369.755466 
L 208.067707 448.379447 
L 210.991397 273.444834 
L 213.915087 318.754377 
L 216.838777 397.866274 
L 219.762468 447.416205 
L 222.686158 427.682808 
L 225.609848 401.875113 
L 228.533538 353.599781 
L 231.457228 400.852265 
L 234.380918 303.625054 
L 237.304608 379.768608 
L 240.228298 430.45731 
L 243.151988 403.317965 
L 246.075678 317.504999 
L 248.999369 279.870069 
L 251.923059 351.275173 
L 254.846749 358.396385 
L 257.770439 422.621003 
L 260.694129 384.065472 
L 263.617819 461.656285 
L 266.541509 341.970007 
L 269.465199 345.895069 
L 272.388889 396.029234 
L 275.312579 393.871253 
L 278.23627 387.786321 
L 281.15996 355.061889 
L 284.08365 301.456702 
L 287.00734 311.442646 
L 289.93103 385.698789 
L 292.85472 376.196599 
L 295.77841 364.708616 
L 298.7021 435.469233 
L 301.62579 385.188327 
L 304.549481 386.08934 
L 307.473171 381.89969 
L 310.396861 360.457139 
L 313.320551 305.074832 
L 316.244241 341.712765 
L 319.167931 279.277893 
L 322.091621 417.342569 
L 325.015311 408.446825 
L 330.862691 348.176512 
L 333.786382 348.856714 
L 336.710072 409.133236 
L 339.633762 417.839213 
L 342.557452 358.619119 
L 345.481142 363.755203 
L 348.404832 300.724502 
L 351.328522 249.304003 
L 354.252212 339.007225 
L 357.175902 353.830893 
L 360.099592 342.939161 
L 363.023283 462.021825 
L 365.946973 327.269678 
L 368.870663 339.62595 
L 371.794353 397.336783 
L 374.718043 402.243521 
L 377.641733 400.517157 
L 380.565423 413.110418 
L 383.489113 408.305541 
L 386.412803 382.332496 
L 389.336494 385.232821 
L 392.260184 373.826569 
L 395.183874 388.272542 
L 398.107564 325.089695 
L 401.031254 354.89451 
L 403.954944 382.634198 
L 406.878634 406.467487 
L 409.802324 446.285444 
L 412.726014 424.928734 
L 415.649704 457.598334 
L 418.573395 329.088424 
L 421.497085 382.671032 
L 424.420775 432.731949 
L 427.344465 355.780429 
L 430.268155 427.380546 
L 433.191845 454.598282 
L 436.115535 361.557782 
L 439.039225 417.001339 
L 441.962915 436.316901 
L 444.886605 360.979372 
L 447.810296 309.116622 
L 450.733986 359.972038 
L 453.657676 426.224005 
L 456.581366 334.940792 
L 459.505056 404.158462 
L 462.428746 341.553239 
L 465.352436 411.487665 
L 468.276126 425.487363 
L 471.199816 430.292764 
L 474.123506 412.164946 
L 477.047197 384.581495 
L 479.970887 308.447298 
L 482.894577 404.882476 
L 485.818267 401.6277 
L 488.741957 278.87099 
L 491.665647 343.04905 
L 494.589337 306.104396 
L 497.513027 382.400532 
L 500.436717 282.39254 
L 503.360408 234.803882 
L 506.284098 270.587517 
L 509.207788 256.838345 
L 512.131478 322.709504 
L 515.055168 301.033357 
L 517.978858 369.51379 
L 520.902548 427.786663 
L 523.826238 451.777431 
L 526.749928 442.648302 
L 529.673618 385.811005 
L 532.597309 322.265573 
L 535.520999 336.513752 
L 538.444689 234.054752 
L 541.368379 171.848387 
L 544.292069 183.71375 
L 547.215759 194.755564 
L 550.139449 191.027789 
L 553.063139 207.839462 
L 555.986829 242.831004 
L 558.910519 192.387485 
L 561.83421 152.011511 
L 567.68159 231.229686 
L 570.60528 297.13481 
L 573.52897 291.059795 
L 576.45266 277.373482 
L 579.37635 343.251129 
L 582.30004 349.813449 
L 585.22373 404.917002 
L 588.147421 328.879314 
L 591.071111 309.013798 
L 593.994801 354.009343 
L 596.918491 298.496928 
L 599.842181 267.999178 
L 602.765871 361.800998 
L 605.689561 357.319336 
L 608.613251 373.020702 
L 611.536941 356.72403 
L 614.460631 346.781093 
L 617.384322 291.21264 
L 620.308012 393.430471 
L 623.231702 440.271591 
L 626.155392 477.485258 
L 629.079082 436.787346 
L 632.002772 411.245953 
L 634.926462 376.000327 
L 637.850152 414.444902 
L 640.773842 350.48349 
L 643.697532 211.019137 
L 646.621223 82.108389 
L 649.544913 71.687852 
L 652.468603 275.90429 
L 655.392293 336.269994 
L 658.315983 302.528609 
L 661.239673 416.807901 
L 664.163363 345.092332 
L 667.087053 400.397736 
L 670.010743 341.564467 
L 672.934433 170.203395 
L 675.858124 71.456765 
L 678.781814 119.731381 
L 681.705504 323.279764 
L 684.629194 385.184934 
L 687.552884 381.975911 
L 690.476574 464.924354 
L 693.400264 413.465534 
L 696.323954 418.874934 
L 699.247644 387.486228 
L 702.171335 379.030287 
L 705.095025 389.048431 
L 708.018715 386.641358 
L 710.942405 385.773611 
L 713.866095 380.716459 
L 716.789785 383.808159 
L 719.713475 382.593587 
L 722.637165 378.330969 
L 725.560855 384.112799 
L 728.484545 377.341911 
L 728.484545 377.341911 
" style="fill:none;stroke:#8172b3;stroke-dasharray:7.5,1.5,1.5,1.5;stroke-dashoffset:0;stroke-width:1.5;"/>
   </g>
   <g id="line2d_6"/>
   <g id="line2d_7"/>
   <g id="line2d_8"/>
   <g id="line2d_9"/>
   <g id="line2d_10"/>
   <g id="patch_3">
    <path d="M 105.3 529.9416 
L 105.3 71.4528 
" style="fill:none;stroke:#262626;stroke-linecap:square;stroke-linejoin:miter;stroke-width:1.25;"/>
   </g>
   <g id="patch_4">
    <path d="M 758.16 529.9416 
L 758.16 71.4528 
" style="fill:none;stroke:#262626;stroke-linecap:square;stroke-linejoin:miter;stroke-width:1.25;"/>
   </g>
   <g id="patch_5">
    <path d="M 105.3 529.9416 
L 758.16 529.9416 
" style="fill:none;stroke:#262626;stroke-linecap:square;stroke-linejoin:miter;stroke-width:1.25;"/>
   </g>
   <g id="patch_6">
    <path d="M 105.3 71.4528 
L 758.16 71.4528 
" style="fill:none;stroke:#262626;stroke-linecap:square;stroke-linejoin:miter;stroke-width:1.25;"/>
   </g>
   <g id="text_16">
    <!-- Activations for &gt;M&lt; -->
    <g style="fill:#262626;" transform="translate(380.376563 65.4528)scale(0.12 -0.12)">
     <defs>
      <path d="M -9 0 
L 1750 4581 
L 2403 4581 
L 4278 0 
L 3588 0 
L 3053 1388 
L 1138 1388 
L 634 0 
L -9 0 
z
M 1313 1881 
L 2866 1881 
L 2388 3150 
Q 2169 3728 2063 4100 
Q 1975 3659 1816 3225 
L 1313 1881 
z
" id="ArialMT-41" transform="scale(0.015625)"/>
      <path d="M 2588 1216 
L 3141 1144 
Q 3050 572 2676 248 
Q 2303 -75 1759 -75 
Q 1078 -75 664 370 
Q 250 816 250 1647 
Q 250 2184 428 2587 
Q 606 2991 970 3192 
Q 1334 3394 1763 3394 
Q 2303 3394 2647 3120 
Q 2991 2847 3088 2344 
L 2541 2259 
Q 2463 2594 2264 2762 
Q 2066 2931 1784 2931 
Q 1359 2931 1093 2626 
Q 828 2322 828 1663 
Q 828 994 1084 691 
Q 1341 388 1753 388 
Q 2084 388 2306 591 
Q 2528 794 2588 1216 
z
" id="ArialMT-63" transform="scale(0.015625)"/>
      <path d="M 1650 503 
L 1731 6 
Q 1494 -44 1306 -44 
Q 1000 -44 831 53 
Q 663 150 594 308 
Q 525 466 525 972 
L 525 2881 
L 113 2881 
L 113 3319 
L 525 3319 
L 525 4141 
L 1084 4478 
L 1084 3319 
L 1650 3319 
L 1650 2881 
L 1084 2881 
L 1084 941 
Q 1084 700 1114 631 
Q 1144 563 1211 522 
Q 1278 481 1403 481 
Q 1497 481 1650 503 
z
" id="ArialMT-74" transform="scale(0.015625)"/>
      <path d="M 425 3934 
L 425 4581 
L 988 4581 
L 988 3934 
L 425 3934 
z
M 425 0 
L 425 3319 
L 988 3319 
L 988 0 
L 425 0 
z
" id="ArialMT-69" transform="scale(0.015625)"/>
      <path d="M 1344 0 
L 81 3319 
L 675 3319 
L 1388 1331 
Q 1503 1009 1600 663 
Q 1675 925 1809 1294 
L 2547 3319 
L 3125 3319 
L 1869 0 
L 1344 0 
z
" id="ArialMT-76" transform="scale(0.015625)"/>
      <path d="M 2588 409 
Q 2275 144 1986 34 
Q 1697 -75 1366 -75 
Q 819 -75 525 192 
Q 231 459 231 875 
Q 231 1119 342 1320 
Q 453 1522 633 1644 
Q 813 1766 1038 1828 
Q 1203 1872 1538 1913 
Q 2219 1994 2541 2106 
Q 2544 2222 2544 2253 
Q 2544 2597 2384 2738 
Q 2169 2928 1744 2928 
Q 1347 2928 1158 2789 
Q 969 2650 878 2297 
L 328 2372 
Q 403 2725 575 2942 
Q 747 3159 1072 3276 
Q 1397 3394 1825 3394 
Q 2250 3394 2515 3294 
Q 2781 3194 2906 3042 
Q 3031 2891 3081 2659 
Q 3109 2516 3109 2141 
L 3109 1391 
Q 3109 606 3145 398 
Q 3181 191 3288 0 
L 2700 0 
Q 2613 175 2588 409 
z
M 2541 1666 
Q 2234 1541 1622 1453 
Q 1275 1403 1131 1340 
Q 988 1278 909 1158 
Q 831 1038 831 891 
Q 831 666 1001 516 
Q 1172 366 1500 366 
Q 1825 366 2078 508 
Q 2331 650 2450 897 
Q 2541 1088 2541 1459 
L 2541 1666 
z
" id="ArialMT-61" transform="scale(0.015625)"/>
      <path d="M 213 1659 
Q 213 2581 725 3025 
Q 1153 3394 1769 3394 
Q 2453 3394 2887 2945 
Q 3322 2497 3322 1706 
Q 3322 1066 3130 698 
Q 2938 331 2570 128 
Q 2203 -75 1769 -75 
Q 1072 -75 642 372 
Q 213 819 213 1659 
z
M 791 1659 
Q 791 1022 1069 705 
Q 1347 388 1769 388 
Q 2188 388 2466 706 
Q 2744 1025 2744 1678 
Q 2744 2294 2464 2611 
Q 2184 2928 1769 2928 
Q 1347 2928 1069 2612 
Q 791 2297 791 1659 
z
" id="ArialMT-6f" transform="scale(0.015625)"/>
      <path d="M 422 0 
L 422 3319 
L 928 3319 
L 928 2847 
Q 1294 3394 1984 3394 
Q 2284 3394 2536 3286 
Q 2788 3178 2913 3003 
Q 3038 2828 3088 2588 
Q 3119 2431 3119 2041 
L 3119 0 
L 2556 0 
L 2556 2019 
Q 2556 2363 2490 2533 
Q 2425 2703 2258 2804 
Q 2091 2906 1866 2906 
Q 1506 2906 1245 2678 
Q 984 2450 984 1813 
L 984 0 
L 422 0 
z
" id="ArialMT-6e" transform="scale(0.015625)"/>
      <path d="M 197 991 
L 753 1078 
Q 800 744 1014 566 
Q 1228 388 1613 388 
Q 2000 388 2187 545 
Q 2375 703 2375 916 
Q 2375 1106 2209 1216 
Q 2094 1291 1634 1406 
Q 1016 1563 777 1677 
Q 538 1791 414 1992 
Q 291 2194 291 2438 
Q 291 2659 392 2848 
Q 494 3038 669 3163 
Q 800 3259 1026 3326 
Q 1253 3394 1513 3394 
Q 1903 3394 2198 3281 
Q 2494 3169 2634 2976 
Q 2775 2784 2828 2463 
L 2278 2388 
Q 2241 2644 2061 2787 
Q 1881 2931 1553 2931 
Q 1166 2931 1000 2803 
Q 834 2675 834 2503 
Q 834 2394 903 2306 
Q 972 2216 1119 2156 
Q 1203 2125 1616 2013 
Q 2213 1853 2448 1751 
Q 2684 1650 2818 1456 
Q 2953 1263 2953 975 
Q 2953 694 2789 445 
Q 2625 197 2315 61 
Q 2006 -75 1616 -75 
Q 969 -75 630 194 
Q 291 463 197 991 
z
" id="ArialMT-73" transform="scale(0.015625)"/>
      <path id="ArialMT-20" transform="scale(0.015625)"/>
      <path d="M 556 0 
L 556 2881 
L 59 2881 
L 59 3319 
L 556 3319 
L 556 3672 
Q 556 4006 616 4169 
Q 697 4388 901 4523 
Q 1106 4659 1475 4659 
Q 1713 4659 2000 4603 
L 1916 4113 
Q 1741 4144 1584 4144 
Q 1328 4144 1222 4034 
Q 1116 3925 1116 3625 
L 1116 3319 
L 1763 3319 
L 1763 2881 
L 1116 2881 
L 1116 0 
L 556 0 
z
" id="ArialMT-66" transform="scale(0.015625)"/>
      <path d="M 416 0 
L 416 3319 
L 922 3319 
L 922 2816 
Q 1116 3169 1280 3281 
Q 1444 3394 1641 3394 
Q 1925 3394 2219 3213 
L 2025 2691 
Q 1819 2813 1613 2813 
Q 1428 2813 1281 2702 
Q 1134 2591 1072 2394 
Q 978 2094 978 1738 
L 978 0 
L 416 0 
z
" id="ArialMT-72" transform="scale(0.015625)"/>
      <path d="M 3384 2003 
L 350 706 
L 350 1266 
L 2753 2263 
L 350 3250 
L 350 3809 
L 3384 2528 
L 3384 2003 
z
" id="ArialMT-3e" transform="scale(0.015625)"/>
      <path d="M 475 0 
L 475 4581 
L 1388 4581 
L 2472 1338 
Q 2622 884 2691 659 
Q 2769 909 2934 1394 
L 4031 4581 
L 4847 4581 
L 4847 0 
L 4263 0 
L 4263 3834 
L 2931 0 
L 2384 0 
L 1059 3900 
L 1059 0 
L 475 0 
z
" id="ArialMT-4d" transform="scale(0.015625)"/>
      <path d="M 350 2003 
L 350 2528 
L 3384 3809 
L 3384 3250 
L 978 2263 
L 3384 1266 
L 3384 706 
L 350 2003 
z
" id="ArialMT-3c" transform="scale(0.015625)"/>
     </defs>
     <use xlink:href="#ArialMT-41"/>
     <use x="66.699219" xlink:href="#ArialMT-63"/>
     <use x="116.699219" xlink:href="#ArialMT-74"/>
     <use x="144.482422" xlink:href="#ArialMT-69"/>
     <use x="166.699219" xlink:href="#ArialMT-76"/>
     <use x="216.699219" xlink:href="#ArialMT-61"/>
     <use x="272.314453" xlink:href="#ArialMT-74"/>
     <use x="300.097656" xlink:href="#ArialMT-69"/>
     <use x="322.314453" xlink:href="#ArialMT-6f"/>
     <use x="377.929688" xlink:href="#ArialMT-6e"/>
     <use x="433.544922" xlink:href="#ArialMT-73"/>
     <use x="483.544922" xlink:href="#ArialMT-20"/>
     <use x="511.328125" xlink:href="#ArialMT-66"/>
     <use x="539.111328" xlink:href="#ArialMT-6f"/>
     <use x="594.726562" xlink:href="#ArialMT-72"/>
     <use x="628.027344" xlink:href="#ArialMT-20"/>
     <use x="655.810547" xlink:href="#ArialMT-3e"/>
     <use x="714.208984" xlink:href="#ArialMT-4d"/>
     <use x="797.509766" xlink:href="#ArialMT-3c"/>
    </g>
   </g>
   <g id="legend_1">
    <g id="patch_7">
     <path d="M 113 158.514363 
L 223.415938 158.514363 
Q 225.615938 158.514363 225.615938 156.314363 
L 225.615938 79.1528 
Q 225.615938 76.9528 223.415938 76.9528 
L 113 76.9528 
Q 110.8 76.9528 110.8 79.1528 
L 110.8 156.314363 
Q 110.8 158.514363 113 158.514363 
z
" style="fill:#ffffff;opacity:0.8;stroke:#cccccc;stroke-linejoin:miter;"/>
    </g>
    <g id="line2d_11">
     <path d="M 115.2 85.376394 
L 137.2 85.376394 
" style="fill:none;stroke:#4c72b0;stroke-linecap:round;stroke-width:1.5;"/>
    </g>
    <g id="line2d_12"/>
    <g id="text_17">
     <!-- regular -->
     <g style="fill:#262626;" transform="translate(146 89.226394)scale(0.11 -0.11)">
      <defs>
       <path d="M 2694 1069 
L 3275 997 
Q 3138 488 2766 206 
Q 2394 -75 1816 -75 
Q 1088 -75 661 373 
Q 234 822 234 1631 
Q 234 2469 665 2931 
Q 1097 3394 1784 3394 
Q 2450 3394 2872 2941 
Q 3294 2488 3294 1666 
Q 3294 1616 3291 1516 
L 816 1516 
Q 847 969 1125 678 
Q 1403 388 1819 388 
Q 2128 388 2347 550 
Q 2566 713 2694 1069 
z
M 847 1978 
L 2700 1978 
Q 2663 2397 2488 2606 
Q 2219 2931 1791 2931 
Q 1403 2931 1139 2672 
Q 875 2413 847 1978 
z
" id="ArialMT-65" transform="scale(0.015625)"/>
       <path d="M 319 -275 
L 866 -356 
Q 900 -609 1056 -725 
Q 1266 -881 1628 -881 
Q 2019 -881 2231 -725 
Q 2444 -569 2519 -288 
Q 2563 -116 2559 434 
Q 2191 0 1641 0 
Q 956 0 581 494 
Q 206 988 206 1678 
Q 206 2153 378 2554 
Q 550 2956 876 3175 
Q 1203 3394 1644 3394 
Q 2231 3394 2613 2919 
L 2613 3319 
L 3131 3319 
L 3131 450 
Q 3131 -325 2973 -648 
Q 2816 -972 2473 -1159 
Q 2131 -1347 1631 -1347 
Q 1038 -1347 672 -1080 
Q 306 -813 319 -275 
z
M 784 1719 
Q 784 1066 1043 766 
Q 1303 466 1694 466 
Q 2081 466 2343 764 
Q 2606 1063 2606 1700 
Q 2606 2309 2336 2618 
Q 2066 2928 1684 2928 
Q 1309 2928 1046 2623 
Q 784 2319 784 1719 
z
" id="ArialMT-67" transform="scale(0.015625)"/>
       <path d="M 2597 0 
L 2597 488 
Q 2209 -75 1544 -75 
Q 1250 -75 995 37 
Q 741 150 617 320 
Q 494 491 444 738 
Q 409 903 409 1263 
L 409 3319 
L 972 3319 
L 972 1478 
Q 972 1038 1006 884 
Q 1059 663 1231 536 
Q 1403 409 1656 409 
Q 1909 409 2131 539 
Q 2353 669 2445 892 
Q 2538 1116 2538 1541 
L 2538 3319 
L 3100 3319 
L 3100 0 
L 2597 0 
z
" id="ArialMT-75" transform="scale(0.015625)"/>
       <path d="M 409 0 
L 409 4581 
L 972 4581 
L 972 0 
L 409 0 
z
" id="ArialMT-6c" transform="scale(0.015625)"/>
      </defs>
      <use xlink:href="#ArialMT-72"/>
      <use x="33.300781" xlink:href="#ArialMT-65"/>
      <use x="88.916016" xlink:href="#ArialMT-67"/>
      <use x="144.53125" xlink:href="#ArialMT-75"/>
      <use x="200.146484" xlink:href="#ArialMT-6c"/>
      <use x="222.363281" xlink:href="#ArialMT-61"/>
      <use x="277.978516" xlink:href="#ArialMT-72"/>
     </g>
    </g>
    <g id="line2d_13">
     <path d="M 115.2 101.0978 
L 137.2 101.0978 
" style="fill:none;stroke:#dd8452;stroke-dasharray:6,2.25;stroke-dashoffset:0;stroke-width:1.5;"/>
    </g>
    <g id="line2d_14"/>
    <g id="text_18">
     <!-- splitted_3s -->
     <g style="fill:#262626;" transform="translate(146 104.9478)scale(0.11 -0.11)">
      <defs>
       <path d="M 422 -1272 
L 422 3319 
L 934 3319 
L 934 2888 
Q 1116 3141 1344 3267 
Q 1572 3394 1897 3394 
Q 2322 3394 2647 3175 
Q 2972 2956 3137 2557 
Q 3303 2159 3303 1684 
Q 3303 1175 3120 767 
Q 2938 359 2589 142 
Q 2241 -75 1856 -75 
Q 1575 -75 1351 44 
Q 1128 163 984 344 
L 984 -1272 
L 422 -1272 
z
M 931 1641 
Q 931 1000 1190 694 
Q 1450 388 1819 388 
Q 2194 388 2461 705 
Q 2728 1022 2728 1688 
Q 2728 2322 2467 2637 
Q 2206 2953 1844 2953 
Q 1484 2953 1207 2617 
Q 931 2281 931 1641 
z
" id="ArialMT-70" transform="scale(0.015625)"/>
       <path d="M 2575 0 
L 2575 419 
Q 2259 -75 1647 -75 
Q 1250 -75 917 144 
Q 584 363 401 755 
Q 219 1147 219 1656 
Q 219 2153 384 2558 
Q 550 2963 881 3178 
Q 1213 3394 1622 3394 
Q 1922 3394 2156 3267 
Q 2391 3141 2538 2938 
L 2538 4581 
L 3097 4581 
L 3097 0 
L 2575 0 
z
M 797 1656 
Q 797 1019 1065 703 
Q 1334 388 1700 388 
Q 2069 388 2326 689 
Q 2584 991 2584 1609 
Q 2584 2291 2321 2609 
Q 2059 2928 1675 2928 
Q 1300 2928 1048 2622 
Q 797 2316 797 1656 
z
" id="ArialMT-64" transform="scale(0.015625)"/>
       <path d="M -97 -1272 
L -97 -866 
L 3631 -866 
L 3631 -1272 
L -97 -1272 
z
" id="ArialMT-5f" transform="scale(0.015625)"/>
       <path d="M 269 1209 
L 831 1284 
Q 928 806 1161 595 
Q 1394 384 1728 384 
Q 2125 384 2398 659 
Q 2672 934 2672 1341 
Q 2672 1728 2419 1979 
Q 2166 2231 1775 2231 
Q 1616 2231 1378 2169 
L 1441 2663 
Q 1497 2656 1531 2656 
Q 1891 2656 2178 2843 
Q 2466 3031 2466 3422 
Q 2466 3731 2256 3934 
Q 2047 4138 1716 4138 
Q 1388 4138 1169 3931 
Q 950 3725 888 3313 
L 325 3413 
Q 428 3978 793 4289 
Q 1159 4600 1703 4600 
Q 2078 4600 2393 4439 
Q 2709 4278 2876 4000 
Q 3044 3722 3044 3409 
Q 3044 3113 2884 2869 
Q 2725 2625 2413 2481 
Q 2819 2388 3044 2092 
Q 3269 1797 3269 1353 
Q 3269 753 2831 336 
Q 2394 -81 1725 -81 
Q 1122 -81 723 278 
Q 325 638 269 1209 
z
" id="ArialMT-33" transform="scale(0.015625)"/>
      </defs>
      <use xlink:href="#ArialMT-73"/>
      <use x="50" xlink:href="#ArialMT-70"/>
      <use x="105.615234" xlink:href="#ArialMT-6c"/>
      <use x="127.832031" xlink:href="#ArialMT-69"/>
      <use x="150.048828" xlink:href="#ArialMT-74"/>
      <use x="177.832031" xlink:href="#ArialMT-74"/>
      <use x="205.615234" xlink:href="#ArialMT-65"/>
      <use x="261.230469" xlink:href="#ArialMT-64"/>
      <use x="316.845703" xlink:href="#ArialMT-5f"/>
      <use x="372.460938" xlink:href="#ArialMT-33"/>
      <use x="428.076172" xlink:href="#ArialMT-73"/>
     </g>
    </g>
    <g id="line2d_15">
     <path d="M 115.2 116.6903 
L 137.2 116.6903 
" style="fill:none;stroke:#55a868;stroke-dasharray:1.5,1.5;stroke-dashoffset:0;stroke-width:1.5;"/>
    </g>
    <g id="line2d_16"/>
    <g id="text_19">
     <!-- splitted_1s -->
     <g style="fill:#262626;" transform="translate(146 120.5403)scale(0.11 -0.11)">
      <use xlink:href="#ArialMT-73"/>
      <use x="50" xlink:href="#ArialMT-70"/>
      <use x="105.615234" xlink:href="#ArialMT-6c"/>
      <use x="127.832031" xlink:href="#ArialMT-69"/>
      <use x="150.048828" xlink:href="#ArialMT-74"/>
      <use x="177.832031" xlink:href="#ArialMT-74"/>
      <use x="205.615234" xlink:href="#ArialMT-65"/>
      <use x="261.230469" xlink:href="#ArialMT-64"/>
      <use x="316.845703" xlink:href="#ArialMT-5f"/>
      <use x="372.460938" xlink:href="#ArialMT-31"/>
      <use x="428.076172" xlink:href="#ArialMT-73"/>
     </g>
    </g>
    <g id="line2d_17">
     <path d="M 115.2 132.384206 
L 137.2 132.384206 
" style="fill:none;stroke:#c44e52;stroke-dasharray:4.5,1.875,2.25,1.875;stroke-dashoffset:0;stroke-width:1.5;"/>
    </g>
    <g id="line2d_18"/>
    <g id="text_20">
     <!-- overlap_1f_3s -->
     <g style="fill:#262626;" transform="translate(146 136.234206)scale(0.11 -0.11)">
      <use xlink:href="#ArialMT-6f"/>
      <use x="55.615234" xlink:href="#ArialMT-76"/>
      <use x="105.615234" xlink:href="#ArialMT-65"/>
      <use x="161.230469" xlink:href="#ArialMT-72"/>
      <use x="194.53125" xlink:href="#ArialMT-6c"/>
      <use x="216.748047" xlink:href="#ArialMT-61"/>
      <use x="272.363281" xlink:href="#ArialMT-70"/>
      <use x="327.978516" xlink:href="#ArialMT-5f"/>
      <use x="383.59375" xlink:href="#ArialMT-31"/>
      <use x="439.208984" xlink:href="#ArialMT-66"/>
      <use x="466.992188" xlink:href="#ArialMT-5f"/>
      <use x="522.607422" xlink:href="#ArialMT-33"/>
      <use x="578.222656" xlink:href="#ArialMT-73"/>
     </g>
    </g>
    <g id="line2d_19">
     <path d="M 115.2 148.078113 
L 137.2 148.078113 
" style="fill:none;stroke:#8172b3;stroke-dasharray:7.5,1.5,1.5,1.5;stroke-dashoffset:0;stroke-width:1.5;"/>
    </g>
    <g id="line2d_20"/>
    <g id="text_21">
     <!-- overlap_10f_3s -->
     <g style="fill:#262626;" transform="translate(146 151.928112)scale(0.11 -0.11)">
      <use xlink:href="#ArialMT-6f"/>
      <use x="55.615234" xlink:href="#ArialMT-76"/>
      <use x="105.615234" xlink:href="#ArialMT-65"/>
      <use x="161.230469" xlink:href="#ArialMT-72"/>
      <use x="194.53125" xlink:href="#ArialMT-6c"/>
      <use x="216.748047" xlink:href="#ArialMT-61"/>
      <use x="272.363281" xlink:href="#ArialMT-70"/>
      <use x="327.978516" xlink:href="#ArialMT-5f"/>
      <use x="383.59375" xlink:href="#ArialMT-31"/>
      <use x="439.208984" xlink:href="#ArialMT-30"/>
      <use x="494.824219" xlink:href="#ArialMT-66"/>
      <use x="522.607422" xlink:href="#ArialMT-5f"/>
      <use x="578.222656" xlink:href="#ArialMT-33"/>
      <use x="633.837891" xlink:href="#ArialMT-73"/>
     </g>
    </g>
   </g>
  </g>
 </g>
 <defs>
  <clipPath id="pe9d9051199">
   <rect height="458.4888" width="652.86" x="105.3" y="71.4528"/>
  </clipPath>
 </defs>
</svg>
