<?xml version="1.0" encoding="utf-8" standalone="no"?>
<!DOCTYPE svg PUBLIC "-//W3C//DTD SVG 1.1//EN"
  "http://www.w3.org/Graphics/SVG/1.1/DTD/svg11.dtd">
<svg height="595.44pt" version="1.1" viewBox="0 0 842.4 595.44" width="842.4pt" xmlns="http://www.w3.org/2000/svg" xmlns:xlink="http://www.w3.org/1999/xlink">
 <metadata>
  <rdf:RDF xmlns:cc="http://creativecommons.org/ns#" xmlns:dc="http://purl.org/dc/elements/1.1/" xmlns:rdf="http://www.w3.org/1999/02/22-rdf-syntax-ns#">
   <cc:Work>
    <dc:type rdf:resource="http://purl.org/dc/dcmitype/StillImage"/>
    <dc:date>2021-06-04T22:03:17.455242</dc:date>
    <dc:format>image/svg+xml</dc:format>
    <dc:creator>
     <cc:Agent>
      <dc:title>Matplotlib v3.4.1, https://matplotlib.org/</dc:title>
     </cc:Agent>
    </dc:creator>
   </cc:Work>
  </rdf:RDF>
 </metadata>
 <defs>
  <style type="text/css">*{stroke-linecap:butt;stroke-linejoin:round;}</style>
 </defs>
 <g id="figure_1">
  <g id="patch_1">
   <path d="M 0 595.44 
L 842.4 595.44 
L 842.4 0 
L 0 0 
z
" style="fill:#ffffff;"/>
  </g>
  <g id="axes_1">
   <g id="patch_2">
    <path d="M 105.3 529.9416 
L 758.16 529.9416 
L 758.16 71.4528 
L 105.3 71.4528 
z
" style="fill:#ffffff;"/>
   </g>
   <g id="matplotlib.axis_1">
    <g id="xtick_1">
     <g id="text_1">
      <!-- 0 -->
      <g style="fill:#262626;" transform="translate(131.916939 547.315194)scale(0.11 -0.11)">
       <defs>
        <path d="M 266 2259 
Q 266 3072 433 3567 
Q 600 4063 929 4331 
Q 1259 4600 1759 4600 
Q 2128 4600 2406 4451 
Q 2684 4303 2865 4023 
Q 3047 3744 3150 3342 
Q 3253 2941 3253 2259 
Q 3253 1453 3087 958 
Q 2922 463 2592 192 
Q 2263 -78 1759 -78 
Q 1097 -78 719 397 
Q 266 969 266 2259 
z
M 844 2259 
Q 844 1131 1108 757 
Q 1372 384 1759 384 
Q 2147 384 2411 759 
Q 2675 1134 2675 2259 
Q 2675 3391 2411 3762 
Q 2147 4134 1753 4134 
Q 1366 4134 1134 3806 
Q 844 3388 844 2259 
z
" id="ArialMT-30" transform="scale(0.015625)"/>
       </defs>
       <use xlink:href="#ArialMT-30"/>
      </g>
     </g>
    </g>
    <g id="xtick_2">
     <g id="text_2">
      <!-- 25 -->
      <g style="fill:#262626;" transform="translate(201.950676 547.315194)scale(0.11 -0.11)">
       <defs>
        <path d="M 3222 541 
L 3222 0 
L 194 0 
Q 188 203 259 391 
Q 375 700 629 1000 
Q 884 1300 1366 1694 
Q 2113 2306 2375 2664 
Q 2638 3022 2638 3341 
Q 2638 3675 2398 3904 
Q 2159 4134 1775 4134 
Q 1369 4134 1125 3890 
Q 881 3647 878 3216 
L 300 3275 
Q 359 3922 746 4261 
Q 1134 4600 1788 4600 
Q 2447 4600 2831 4234 
Q 3216 3869 3216 3328 
Q 3216 3053 3103 2787 
Q 2991 2522 2730 2228 
Q 2469 1934 1863 1422 
Q 1356 997 1212 845 
Q 1069 694 975 541 
L 3222 541 
z
" id="ArialMT-32" transform="scale(0.015625)"/>
        <path d="M 266 1200 
L 856 1250 
Q 922 819 1161 601 
Q 1400 384 1738 384 
Q 2144 384 2425 690 
Q 2706 997 2706 1503 
Q 2706 1984 2436 2262 
Q 2166 2541 1728 2541 
Q 1456 2541 1237 2417 
Q 1019 2294 894 2097 
L 366 2166 
L 809 4519 
L 3088 4519 
L 3088 3981 
L 1259 3981 
L 1013 2750 
Q 1425 3038 1878 3038 
Q 2478 3038 2890 2622 
Q 3303 2206 3303 1553 
Q 3303 931 2941 478 
Q 2500 -78 1738 -78 
Q 1113 -78 717 272 
Q 322 622 266 1200 
z
" id="ArialMT-35" transform="scale(0.015625)"/>
       </defs>
       <use xlink:href="#ArialMT-32"/>
       <use x="55.615234" xlink:href="#ArialMT-35"/>
      </g>
     </g>
    </g>
    <g id="xtick_3">
     <g id="text_3">
      <!-- 50 -->
      <g style="fill:#262626;" transform="translate(275.042928 547.315194)scale(0.11 -0.11)">
       <use xlink:href="#ArialMT-35"/>
       <use x="55.615234" xlink:href="#ArialMT-30"/>
      </g>
     </g>
    </g>
    <g id="xtick_4">
     <g id="text_4">
      <!-- 75 -->
      <g style="fill:#262626;" transform="translate(348.135181 547.315194)scale(0.11 -0.11)">
       <defs>
        <path d="M 303 3981 
L 303 4522 
L 3269 4522 
L 3269 4084 
Q 2831 3619 2401 2847 
Q 1972 2075 1738 1259 
Q 1569 684 1522 0 
L 944 0 
Q 953 541 1156 1306 
Q 1359 2072 1739 2783 
Q 2119 3494 2547 3981 
L 303 3981 
z
" id="ArialMT-37" transform="scale(0.015625)"/>
       </defs>
       <use xlink:href="#ArialMT-37"/>
       <use x="55.615234" xlink:href="#ArialMT-35"/>
      </g>
     </g>
    </g>
    <g id="xtick_5">
     <g id="text_5">
      <!-- 100 -->
      <g style="fill:#262626;" transform="translate(418.168918 547.315194)scale(0.11 -0.11)">
       <defs>
        <path d="M 2384 0 
L 1822 0 
L 1822 3584 
Q 1619 3391 1289 3197 
Q 959 3003 697 2906 
L 697 3450 
Q 1169 3672 1522 3987 
Q 1875 4303 2022 4600 
L 2384 4600 
L 2384 0 
z
" id="ArialMT-31" transform="scale(0.015625)"/>
       </defs>
       <use xlink:href="#ArialMT-31"/>
       <use x="55.615234" xlink:href="#ArialMT-30"/>
       <use x="111.230469" xlink:href="#ArialMT-30"/>
      </g>
     </g>
    </g>
    <g id="xtick_6">
     <g id="text_6">
      <!-- 125 -->
      <g style="fill:#262626;" transform="translate(491.261171 547.315194)scale(0.11 -0.11)">
       <use xlink:href="#ArialMT-31"/>
       <use x="55.615234" xlink:href="#ArialMT-32"/>
       <use x="111.230469" xlink:href="#ArialMT-35"/>
      </g>
     </g>
    </g>
    <g id="xtick_7">
     <g id="text_7">
      <!-- 150 -->
      <g style="fill:#262626;" transform="translate(564.353423 547.315194)scale(0.11 -0.11)">
       <use xlink:href="#ArialMT-31"/>
       <use x="55.615234" xlink:href="#ArialMT-35"/>
       <use x="111.230469" xlink:href="#ArialMT-30"/>
      </g>
     </g>
    </g>
    <g id="xtick_8">
     <g id="text_8">
      <!-- 175 -->
      <g style="fill:#262626;" transform="translate(637.445676 547.315194)scale(0.11 -0.11)">
       <use xlink:href="#ArialMT-31"/>
       <use x="55.615234" xlink:href="#ArialMT-37"/>
       <use x="111.230469" xlink:href="#ArialMT-35"/>
      </g>
     </g>
    </g>
    <g id="xtick_9">
     <g id="text_9">
      <!-- 200 -->
      <g style="fill:#262626;" transform="translate(710.537928 547.315194)scale(0.11 -0.11)">
       <use xlink:href="#ArialMT-32"/>
       <use x="55.615234" xlink:href="#ArialMT-30"/>
       <use x="111.230469" xlink:href="#ArialMT-30"/>
      </g>
     </g>
    </g>
   </g>
   <g id="matplotlib.axis_2">
    <g id="ytick_1">
     <g id="text_10">
      <!-- −25 -->
      <g style="fill:#262626;" transform="translate(77.14125 533.878397)scale(0.11 -0.11)">
       <defs>
        <path d="M 3381 1997 
L 356 1997 
L 356 2522 
L 3381 2522 
L 3381 1997 
z
" id="ArialMT-2212" transform="scale(0.015625)"/>
       </defs>
       <use xlink:href="#ArialMT-2212"/>
       <use x="58.398438" xlink:href="#ArialMT-32"/>
       <use x="114.013672" xlink:href="#ArialMT-35"/>
      </g>
     </g>
    </g>
    <g id="ytick_2">
     <g id="text_11">
      <!-- −20 -->
      <g style="fill:#262626;" transform="translate(77.14125 442.180637)scale(0.11 -0.11)">
       <use xlink:href="#ArialMT-2212"/>
       <use x="58.398438" xlink:href="#ArialMT-32"/>
       <use x="114.013672" xlink:href="#ArialMT-30"/>
      </g>
     </g>
    </g>
    <g id="ytick_3">
     <g id="text_12">
      <!-- −15 -->
      <g style="fill:#262626;" transform="translate(77.14125 350.482877)scale(0.11 -0.11)">
       <use xlink:href="#ArialMT-2212"/>
       <use x="58.398438" xlink:href="#ArialMT-31"/>
       <use x="114.013672" xlink:href="#ArialMT-35"/>
      </g>
     </g>
    </g>
    <g id="ytick_4">
     <g id="text_13">
      <!-- −10 -->
      <g style="fill:#262626;" transform="translate(77.14125 258.785117)scale(0.11 -0.11)">
       <use xlink:href="#ArialMT-2212"/>
       <use x="58.398438" xlink:href="#ArialMT-31"/>
       <use x="114.013672" xlink:href="#ArialMT-30"/>
      </g>
     </g>
    </g>
    <g id="ytick_5">
     <g id="text_14">
      <!-- −5 -->
      <g style="fill:#262626;" transform="translate(83.258281 167.087357)scale(0.11 -0.11)">
       <use xlink:href="#ArialMT-2212"/>
       <use x="58.398438" xlink:href="#ArialMT-35"/>
      </g>
     </g>
    </g>
    <g id="ytick_6">
     <g id="text_15">
      <!-- 0 -->
      <g style="fill:#262626;" transform="translate(89.682969 75.389597)scale(0.11 -0.11)">
       <use xlink:href="#ArialMT-30"/>
      </g>
     </g>
    </g>
   </g>
   <g id="line2d_1">
    <path clip-path="url(#p17cd2db8b9)" d="M 134.975455 558.917391 
L 137.899145 559.92135 
L 140.822835 560.742259 
L 143.746525 560.716933 
L 146.670215 561.43612 
L 149.593905 563.445577 
L 152.517595 564.013546 
L 158.364975 569.156783 
L 161.288665 570.458491 
L 164.212356 573.616198 
L 167.136046 577.772232 
L 169.452815 596.44 
M 185.450858 596.44 
L 187.601876 544.071039 
L 189.872901 596.44 
M 201.641849 596.44 
L 202.220327 582.49669 
L 205.144017 574.709321 
L 205.837271 596.44 
M 210.147896 596.44 
L 210.991397 568.089931 
L 213.915087 588.842992 
L 214.804994 596.44 
M 221.698599 596.44 
L 222.686158 589.222839 
L 225.609848 571.911032 
L 227.444102 596.44 
M 232.196269 596.44 
L 234.380918 518.443386 
L 237.803868 596.44 
M 243.430098 596.44 
L 246.075678 494.425648 
L 248.999369 482.539786 
L 251.923059 575.261933 
L 254.846749 568.954179 
L 257.627629 596.44 
M 257.830372 596.44 
L 260.694129 528.994309 
L 262.348709 596.44 
M 265.170498 596.44 
L 266.541509 550.760074 
L 269.465199 537.45868 
L 272.388889 554.237428 
L 275.312579 571.858177 
L 278.23627 576.121565 
L 281.15996 563.646152 
L 284.08365 535.706501 
L 287.00734 548.447761 
L 289.93103 590.263457 
L 292.85472 540.888286 
L 295.77841 521.175038 
L 298.7021 579.127809 
L 301.62579 584.107935 
L 304.549481 553.510055 
L 307.473171 528.753507 
L 310.396861 548.473751 
L 313.320551 514.505066 
L 316.244241 551.155977 
L 319.167931 521.72884 
L 322.091621 542.811727 
L 325.015311 508.024197 
L 327.939001 546.705377 
L 330.862691 581.402763 
L 333.786382 554.960743 
L 336.710072 516.857501 
L 339.633762 577.353208 
L 341.907678 596.44 
M 342.766528 596.44 
L 345.481142 525.625008 
L 348.404832 489.570995 
L 351.328522 475.13877 
L 354.252212 549.176953 
L 357.175902 535.726124 
L 360.099592 521.410103 
L 362.867731 596.44 
M 363.171458 596.44 
L 365.946973 517.465102 
L 368.870663 518.564836 
L 371.794353 538.46012 
L 374.752904 596.44 
M 382.174439 596.44 
L 383.489113 555.100137 
L 386.412803 533.775294 
L 389.336494 575.320595 
L 392.260184 552.992492 
L 395.183874 569.169586 
L 398.107564 517.152697 
L 401.031254 491.237998 
L 403.954944 493.539607 
L 406.878634 540.490704 
L 409.802324 498.75931 
L 412.726014 481.652941 
L 415.649704 567.113641 
L 418.573395 545.295546 
L 421.497085 586.840427 
L 421.876526 596.44 
M 432.911543 596.44 
L 433.191845 594.060002 
L 436.115535 525.022234 
L 439.039225 541.537933 
L 441.962915 594.100579 
L 444.886605 588.127408 
L 447.810296 505.988226 
L 450.733986 470.881609 
L 453.657676 541.639969 
L 456.581366 520.458894 
L 458.148887 596.44 
M 461.173957 596.44 
L 462.428746 547.015089 
L 465.352436 558.52698 
L 468.276126 541.76114 
L 471.199816 539.758679 
L 473.31197 596.44 
M 474.960992 596.44 
L 477.047197 542.189679 
L 479.970887 457.637232 
L 482.894577 576.188342 
L 485.818267 580.552052 
L 488.741957 583.367061 
L 491.665647 538.686825 
L 494.589337 539.411574 
L 496.393604 596.44 
M 498.570346 596.44 
L 500.436717 533.983565 
L 503.360408 466.316729 
L 506.284098 551.442672 
L 507.704968 596.44 
M 515.927278 596.44 
L 517.978858 527.743952 
L 520.902548 576.057587 
L 523.826238 592.251226 
L 526.749928 548.379725 
L 529.370155 596.44 
M 534.099978 596.44 
L 535.520999 547.447301 
L 538.444689 521.160591 
L 541.368379 589.254951 
L 542.646119 596.44 
M 544.700421 596.44 
L 547.215759 539.428154 
L 550.139449 578.2113 
L 553.063139 486.938162 
L 555.986829 563.044952 
L 558.910519 541.362998 
L 561.83421 542.712734 
L 564.7579 555.1482 
L 567.68159 517.222272 
L 570.60528 520.942701 
L 573.52897 514.208507 
L 576.45266 494.397035 
L 579.37635 530.180793 
L 582.30004 542.665581 
L 585.22373 536.663271 
L 588.147421 523.049227 
L 591.071111 518.720007 
L 593.994801 541.905747 
L 596.918491 475.108722 
L 599.842181 535.089315 
L 602.765871 523.242736 
L 605.689561 523.264458 
L 608.613251 515.95299 
L 611.407249 596.44 
M 614.640081 596.44 
L 617.384322 454.360803 
L 620.308012 490.402153 
L 623.231702 552.223984 
L 625.498535 596.44 
M 627.95982 596.44 
L 632.002772 567.606473 
L 634.926462 544.951763 
L 637.850152 579.568941 
L 640.773842 508.593495 
L 643.697532 452.708142 
L 646.621223 498.271795 
L 649.544913 515.086643 
L 652.468603 588.886192 
L 655.392293 550.355916 
L 658.315983 514.892294 
L 661.239673 577.378743 
L 664.163363 514.089155 
L 667.087053 573.933256 
L 670.010743 580.342137 
L 672.934433 563.455441 
L 675.858124 569.486644 
L 678.781814 535.590927 
L 681.939001 596.44 
M 686.259025 596.44 
L 687.552884 567.29795 
L 688.366891 596.44 
M 700.082626 596.44 
L 702.171335 585.106087 
L 705.095025 585.194552 
L 708.018715 578.80407 
L 710.942405 580.57304 
L 713.866095 579.677169 
L 716.789785 580.704879 
L 719.713475 579.201932 
L 722.637165 576.769078 
L 725.560855 580.497098 
L 728.484545 581.207715 
L 728.484545 581.207715 
" style="fill:none;stroke:#4c72b0;stroke-linecap:round;stroke-width:1.5;"/>
   </g>
   <g id="line2d_2">
    <path clip-path="url(#p17cd2db8b9)" d="M 134.975455 550.171117 
L 137.899145 553.858595 
L 140.822835 554.489388 
L 143.746525 554.785318 
L 146.670215 555.903381 
L 149.593905 558.226048 
L 152.517595 556.905521 
L 155.441285 558.88465 
L 158.364975 558.941737 
L 161.288665 560.463539 
L 164.212356 561.702527 
L 167.136046 562.592661 
L 170.059736 583.074698 
L 172.983426 589.219376 
L 174.153997 596.44 
M 185.00559 596.44 
L 187.601876 518.342888 
L 190.085231 596.44 
M 202.043176 596.44 
L 202.220327 593.607257 
L 203.113811 596.44 
M 210.848096 596.44 
L 210.991397 592.160243 
L 213.915087 573.420136 
L 215.49545 596.44 
M 220.913503 596.44 
L 222.686158 588.270581 
L 225.609848 565.962277 
L 228.938608 596.44 
M 232.001903 596.44 
L 234.380918 512.122514 
L 237.304608 571.118527 
L 238.426321 596.44 
M 243.285072 596.44 
L 246.075678 503.313941 
L 248.999369 509.813315 
L 251.923059 572.105031 
L 254.846749 567.122036 
L 257.404131 596.44 
M 257.986871 596.44 
L 260.694129 543.911915 
L 262.077979 596.44 
M 265.6294 596.44 
L 266.541509 569.93743 
L 269.465199 552.545834 
L 272.388889 584.256355 
L 274.32346 596.44 
M 279.498437 596.44 
L 281.15996 590.156558 
L 284.08365 548.962141 
L 287.00734 562.602246 
L 288.811652 596.44 
M 291.376528 596.44 
L 292.85472 574.97258 
L 295.77841 537.978971 
L 298.541416 596.44 
M 302.54682 596.44 
L 304.549481 567.691789 
L 307.473171 545.032462 
L 310.396861 540.725349 
L 313.320551 531.772344 
L 316.244241 567.82006 
L 319.167931 554.664393 
L 322.091621 552.54335 
L 325.015311 502.177898 
L 327.939001 571.346911 
L 330.862691 578.071206 
L 333.786382 542.915617 
L 336.710072 551.62135 
L 339.633762 591.613017 
L 342.557452 591.533438 
L 345.481142 522.455233 
L 348.404832 497.932105 
L 351.328522 557.406224 
L 354.004168 596.44 
M 354.38478 596.44 
L 360.099592 440.881361 
L 363.023283 441.654242 
L 365.946973 484.260134 
L 368.870663 470.996973 
L 371.794353 481.484967 
L 374.718043 533.823706 
L 377.641733 565.622097 
L 380.565423 596.014505 
L 383.489113 520.743805 
L 389.336494 579.365008 
L 392.260184 558.258754 
L 395.183874 577.00967 
L 398.107564 521.116096 
L 401.031254 489.078758 
L 403.954944 526.385646 
L 406.878634 538.674967 
L 409.802324 538.359553 
L 412.726014 545.256753 
L 415.649704 588.164102 
L 418.573395 548.47606 
L 421.952257 596.44 
M 426.102738 596.44 
L 427.344465 570.436454 
L 430.268155 577.303257 
L 433.191845 560.353912 
L 436.115535 512.421523 
L 439.039225 576.585154 
L 440.580773 596.44 
M 442.957176 596.44 
L 444.886605 561.894532 
L 447.810296 487.065034 
L 450.733986 506.366394 
L 453.657676 546.031838 
L 456.581366 557.187354 
L 457.668973 596.44 
M 461.182653 596.44 
L 462.428746 547.218882 
L 465.352436 573.597099 
L 468.276126 531.150016 
L 471.199816 545.121766 
L 474.123506 590.531088 
L 477.047197 573.862981 
L 479.970887 462.24748 
L 482.894577 569.216844 
L 485.803094 596.44 
M 488.840266 596.44 
L 491.665647 558.357503 
L 494.589337 548.028037 
L 496.284429 596.44 
M 498.589855 596.44 
L 500.436717 536.259183 
L 503.360408 466.895717 
L 506.284098 557.619986 
L 507.750145 596.44 
M 516.415665 596.44 
L 517.978858 556.98503 
L 520.902548 585.461273 
L 523.826238 587.493012 
L 526.749928 560.450981 
L 528.882021 596.44 
M 533.860545 596.44 
L 535.520999 543.75468 
L 538.444689 518.956646 
L 544.242536 596.44 
M 544.313484 596.44 
L 547.215759 505.198239 
L 550.139449 551.411925 
L 553.063139 496.46928 
L 555.986829 496.720751 
L 561.83421 428.651472 
L 564.7579 503.412339 
L 567.68159 477.871576 
L 570.60528 574.314362 
L 573.52897 460.106884 
L 576.45266 458.982175 
L 579.37635 503.219775 
L 582.30004 466.723021 
L 585.22373 547.302939 
L 588.147421 515.84917 
L 591.071111 537.870743 
L 593.994801 565.309866 
L 596.918491 495.913029 
L 599.842181 586.078144 
L 602.765871 542.516846 
L 605.689561 567.418071 
L 608.45258 596.44 
M 616.285213 596.44 
L 617.384322 559.613492 
L 620.308012 547.827427 
L 623.231702 580.136035 
L 623.898112 596.44 
M 634.509996 596.44 
L 634.926462 593.733465 
L 637.850152 594.755298 
L 640.773842 541.177675 
L 643.697532 453.311125 
L 646.621223 519.152359 
L 649.544913 547.504003 
L 652.468603 595.337224 
L 655.392293 580.135511 
L 658.315983 493.640734 
L 661.239673 580.874182 
L 664.163363 510.519035 
L 667.087053 584.687413 
L 670.010743 595.543885 
L 672.934433 565.550563 
L 675.858124 574.615644 
L 678.781814 561.64488 
L 681.345105 596.44 
M 686.250486 596.44 
L 687.552884 564.542197 
L 688.483414 596.44 
M 700.45734 596.44 
L 702.171335 574.917696 
L 705.095025 574.763085 
L 708.018715 573.355668 
L 710.942405 575.562026 
L 713.866095 573.781408 
L 716.789785 575.422736 
L 719.713475 574.719325 
L 722.637165 570.947195 
L 725.560855 575.043029 
L 728.484545 570.938171 
L 728.484545 570.938171 
" style="fill:none;stroke:#dd8452;stroke-dasharray:6,2.25;stroke-dashoffset:0;stroke-width:1.5;"/>
   </g>
   <g id="line2d_3">
    <path clip-path="url(#p17cd2db8b9)" d="M 134.975455 553.409383 
L 137.899145 556.609871 
L 140.822835 558.032154 
L 143.746525 556.516439 
L 146.670215 563.468524 
L 149.593905 565.353277 
L 152.517595 565.153471 
L 155.441285 586.933753 
L 158.364975 587.686556 
L 161.288665 577.052416 
L 164.212356 579.53529 
L 167.136046 573.554808 
L 170.059736 575.208764 
L 173.631888 596.44 
M 183.810807 596.44 
L 184.678186 557.022424 
L 187.601876 521.042324 
L 190.525567 530.58558 
L 193.449257 554.358108 
L 196.372947 587.944463 
L 197.356266 596.44 
M 203.635207 596.44 
L 205.144017 570.873353 
L 208.067707 518.361987 
L 210.991397 558.987456 
L 213.854836 596.44 
M 214.057546 596.44 
L 216.838777 581.054608 
L 219.762468 544.01619 
L 222.686158 544.957815 
L 225.609848 510.898917 
L 228.533538 561.930876 
L 231.16603 596.44 
M 231.559325 596.44 
L 234.380918 490.944447 
L 237.304608 580.819613 
L 238.009911 596.44 
M 243.497473 596.44 
L 246.075678 486.886741 
L 248.999369 521.447181 
L 251.923059 523.797202 
L 254.846749 593.132964 
L 255.133515 596.44 
M 258.70352 596.44 
L 260.694129 531.565298 
L 262.562574 596.44 
M 264.881883 596.44 
L 266.541509 548.335091 
L 269.465199 567.695427 
L 272.388889 589.234732 
L 275.312579 584.312113 
L 278.23627 592.36505 
L 281.15996 557.902064 
L 284.08365 556.580488 
L 287.00734 406.431807 
L 289.93103 501.179606 
L 292.85472 508.40219 
L 295.77841 544.324748 
L 297.716108 596.44 
M 303.877157 596.44 
L 304.549481 581.542893 
L 307.473171 557.598193 
L 310.396861 590.619867 
L 313.320551 586.540929 
L 315.808953 596.44 
M 316.784609 596.44 
L 319.167931 588.802625 
L 322.091621 586.01651 
L 325.015311 523.437609 
L 327.939001 585.048475 
L 328.927424 596.44 
M 332.386363 596.44 
L 333.786382 575.946211 
L 336.710072 573.285288 
L 337.848851 596.44 
M 344.916703 596.44 
L 345.481142 579.712359 
L 348.404832 563.74399 
L 351.328522 567.08048 
L 354.252212 557.258958 
L 356.48281 596.44 
M 357.41704 596.44 
L 360.099592 461.005448 
L 363.023283 488.818997 
L 365.946973 507.817326 
L 368.870663 565.262084 
L 371.794353 457.707542 
L 374.718043 538.751153 
L 377.641733 580.168077 
L 380.565423 560.414077 
L 383.489113 496.828174 
L 386.412803 560.637459 
L 389.276224 596.44 
M 389.454877 596.44 
L 392.260184 578.582787 
L 395.183874 565.222487 
L 398.107564 565.086904 
L 401.031254 483.103523 
L 403.954944 541.869927 
L 406.878634 564.692961 
L 409.802324 548.918381 
L 412.726014 519.645051 
L 414.836093 596.44 
M 427.160715 596.44 
L 427.344465 592.373201 
L 430.268155 590.105697 
L 433.191845 498.474749 
L 436.115535 448.091282 
L 439.039225 584.950357 
L 441.962915 571.667642 
L 444.886605 578.157501 
L 447.810296 546.177355 
L 450.733986 498.853896 
L 453.657676 518.847229 
L 456.581366 584.309804 
L 456.854828 596.44 
M 461.921691 596.44 
L 462.428746 571.774016 
L 465.352436 584.877948 
L 468.276126 556.477857 
L 471.199816 516.739164 
L 474.123506 531.563129 
L 477.047197 567.24611 
L 479.970887 469.602568 
L 482.894577 540.08938 
L 485.818267 570.465452 
L 488.204135 596.44 
M 489.013081 596.44 
L 491.665647 539.155206 
L 494.589337 525.644037 
L 497.513027 582.276352 
L 500.436717 499.731228 
L 503.360408 510.171964 
L 506.284098 501.788746 
L 508.610582 596.44 
M 510.822763 596.44 
L 512.131478 576.750749 
L 515.055168 495.709271 
L 517.978858 519.182336 
L 520.902548 519.91632 
L 523.826238 533.687984 
L 526.749928 590.494114 
L 529.673618 574.558872 
L 532.597309 566.43608 
L 535.520999 564.483956 
L 538.444689 550.908564 
L 541.368379 554.605661 
L 544.292069 587.312935 
L 547.215759 522.636778 
L 550.011278 596.44 
M 550.215918 596.44 
L 553.063139 470.449467 
L 555.986829 459.655608 
L 558.910519 527.44134 
L 561.83421 466.050602 
L 564.7579 483.530243 
L 567.68159 533.971776 
L 570.60528 545.258467 
L 573.52897 506.98232 
L 576.45266 528.673263 
L 579.37635 493.140801 
L 582.30004 508.675908 
L 585.22373 589.900785 
L 588.147421 537.921254 
L 591.071111 409.767597 
L 593.994801 406.680269 
L 596.918491 419.722113 
L 599.842181 490.200109 
L 602.765871 499.364603 
L 605.689561 596.060049 
L 608.613251 563.777186 
L 610.972213 596.44 
M 615.004634 596.44 
L 617.384322 511.333542 
L 620.308012 523.165605 
L 623.231702 573.447805 
L 624.439149 596.44 
M 634.501117 596.44 
L 634.926462 590.059454 
L 637.850152 579.517555 
L 640.773842 539.546946 
L 643.697532 488.188624 
L 646.621223 523.449187 
L 649.544913 545.138276 
L 652.468603 535.102992 
L 654.672466 596.44 
M 655.972223 596.44 
L 658.315983 515.473835 
L 661.239673 485.918497 
L 664.163363 463.500671 
L 667.087053 515.093044 
L 670.010743 456.411711 
L 672.934433 513.437269 
L 675.001551 596.44 
M 677.697206 596.44 
L 678.781814 576.155565 
L 681.705504 539.711422 
L 684.629194 587.926658 
L 685.500374 596.44 
M 700.838578 596.44 
L 702.171335 580.449071 
L 705.095025 574.276374 
L 708.018715 571.736342 
L 710.942405 577.343518 
L 713.866095 573.161599 
L 716.789785 575.078918 
L 719.713475 573.245376 
L 722.637165 572.920203 
L 725.560855 575.171126 
L 728.484545 572.55099 
L 728.484545 572.55099 
" style="fill:none;stroke:#55a868;stroke-dasharray:1.5,1.5;stroke-dashoffset:0;stroke-width:1.5;"/>
   </g>
   <g id="line2d_4">
    <path clip-path="url(#p17cd2db8b9)" d="M 134.975455 550.0794 
L 137.899145 553.744561 
L 140.822835 554.442655 
L 143.746525 554.600239 
L 146.670215 555.882848 
L 149.593905 558.206075 
L 152.517595 556.983631 
L 155.441285 559.11891 
L 158.364975 559.350513 
L 161.288665 560.93101 
L 164.212356 562.108924 
L 167.136046 563.166752 
L 170.059736 583.762998 
L 172.983426 589.883994 
L 174.046909 596.44 
M 185.039299 596.44 
L 187.601876 518.869966 
L 190.054796 596.44 
M 202.065466 596.44 
L 202.220327 593.951844 
L 203.613437 596.44 
M 210.704617 596.44 
L 210.991397 587.295166 
L 213.915087 581.38195 
L 215.377401 596.44 
M 221.213429 596.44 
L 222.686158 589.240749 
L 225.609848 565.396757 
L 228.764904 596.44 
M 232.060153 596.44 
L 234.380918 512.838798 
L 238.242863 596.44 
M 243.349194 596.44 
L 246.075678 503.912028 
L 248.999369 509.732826 
L 251.923059 572.510518 
L 254.846749 567.583736 
L 257.59033 596.44 
M 257.872041 596.44 
L 260.694129 543.823171 
L 262.070798 596.44 
M 265.546964 596.44 
L 266.541509 565.95745 
L 269.465199 552.565737 
L 272.388889 580.634779 
L 274.275021 596.44 
M 279.224709 596.44 
L 281.15996 587.995324 
L 284.08365 549.058931 
L 287.00734 572.108843 
L 288.478932 596.44 
M 291.306156 596.44 
L 292.85472 569.403007 
L 295.77841 537.95536 
L 298.523554 596.44 
M 302.67308 596.44 
L 304.549481 570.886435 
L 307.473171 545.41112 
L 310.396861 542.852443 
L 313.320551 530.985821 
L 316.244241 569.727201 
L 319.167931 557.244057 
L 322.091621 563.911159 
L 325.015311 498.975661 
L 327.939001 559.948774 
L 330.862691 590.787281 
L 333.786382 540.620969 
L 336.710072 558.217793 
L 338.827799 596.44 
M 342.951848 596.44 
L 345.481142 528.752877 
L 348.404832 473.050924 
L 351.328522 535.388533 
L 354.252212 520.174997 
L 357.175902 539.58371 
L 360.099592 460.609021 
L 363.023283 580.291206 
L 365.946973 493.846416 
L 368.870663 486.750284 
L 371.794353 504.305447 
L 374.718043 560.079389 
L 377.641733 574.845078 
L 379.667904 596.44 
M 380.877469 596.44 
L 383.489113 516.380095 
L 386.412803 552.148042 
L 389.336494 578.62081 
L 392.260184 556.727263 
L 395.183874 577.240712 
L 398.107564 523.012952 
L 401.031254 492.48087 
L 403.954944 519.213993 
L 406.878634 528.530125 
L 409.802324 538.463233 
L 412.726014 541.766807 
L 415.649704 589.414634 
L 418.573395 548.237042 
L 421.704901 596.44 
M 426.415087 596.44 
L 427.344465 576.512396 
L 430.268155 576.562977 
L 433.191845 556.347661 
L 436.115535 511.256237 
L 439.039225 576.260225 
L 440.618507 596.44 
M 442.910914 596.44 
L 444.886605 560.638648 
L 447.810296 486.570558 
L 450.733986 500.411272 
L 453.657676 550.232332 
L 456.581366 555.899743 
L 457.688252 596.44 
M 461.150343 596.44 
L 462.428746 544.736777 
L 465.352436 575.604667 
L 468.276126 532.060788 
L 471.199816 552.266169 
L 473.966901 596.44 
M 474.49175 596.44 
L 477.047197 579.09073 
L 479.970887 460.512616 
L 482.894577 570.091726 
L 485.808942 596.44 
M 488.880034 596.44 
L 491.665647 560.185378 
L 494.589337 549.296024 
L 496.241259 596.44 
M 498.612645 596.44 
L 500.436717 536.233298 
L 503.360408 465.969799 
L 506.284098 554.429118 
L 507.795507 596.44 
M 516.263666 596.44 
L 517.978858 544.524239 
L 520.902548 582.313046 
L 523.826238 593.484722 
L 526.749928 561.471485 
L 529.073064 596.44 
M 533.982736 596.44 
L 535.520999 549.82653 
L 538.444689 525.990583 
L 541.368379 559.713604 
L 543.821049 596.44 
M 544.498183 596.44 
L 547.215759 503.44648 
L 550.139449 554.809874 
L 553.063139 458.677815 
L 555.986829 515.643978 
L 558.910519 534.383315 
L 561.83421 503.251327 
L 564.7579 500.096733 
L 567.68159 439.814263 
L 570.60528 524.460876 
L 573.52897 506.288388 
L 576.45266 481.310312 
L 579.37635 503.244611 
L 582.30004 478.910865 
L 585.22373 586.308557 
L 588.147421 508.28847 
L 591.071111 525.547737 
L 593.994801 576.495185 
L 596.918491 512.737181 
L 599.842181 580.590529 
L 602.765871 564.525407 
L 605.689561 573.022694 
L 608.635005 596.44 
M 616.281096 596.44 
L 617.384322 556.047848 
L 620.308012 546.537228 
L 623.231702 583.020654 
L 623.831519 596.44 
M 634.875694 596.44 
L 634.926462 596.17188 
L 637.850152 595.226303 
L 640.773842 541.695203 
L 643.697532 452.008578 
L 646.621223 522.256931 
L 649.544913 547.356143 
L 652.468603 596.031121 
L 655.392293 580.134461 
L 658.315983 493.577665 
L 661.239673 581.578852 
L 664.163363 511.022361 
L 667.087053 583.659668 
L 670.010743 595.724906 
L 672.934433 565.362126 
L 675.858124 574.311914 
L 678.781814 562.521617 
L 681.447765 596.44 
M 686.254421 596.44 
L 687.552884 565.195132 
L 688.457947 596.44 
M 700.518904 596.44 
L 702.171335 574.733352 
L 705.095025 574.926686 
L 708.018715 574.089057 
L 710.942405 576.924669 
L 713.866095 575.384818 
L 716.789785 576.366284 
L 719.713475 575.665707 
L 722.637165 572.287451 
L 725.560855 576.385418 
L 728.484545 572.738552 
L 728.484545 572.738552 
" style="fill:none;stroke:#c44e52;stroke-dasharray:4.5,1.875,2.25,1.875;stroke-dashoffset:0;stroke-width:1.5;"/>
   </g>
   <g id="line2d_5">
    <path clip-path="url(#p17cd2db8b9)" d="M 134.975455 552.4396 
L 137.899145 556.145722 
L 146.670215 558.296952 
L 149.593905 561.241107 
L 152.517595 560.464308 
L 155.441285 562.305301 
L 158.364975 562.566286 
L 161.288665 564.849776 
L 164.212356 564.736301 
L 167.136046 565.084176 
L 170.059736 583.356392 
L 172.983426 589.389868 
L 174.310035 596.44 
M 185.216556 596.44 
L 187.601876 537.840346 
L 189.82051 596.44 
M 202.073945 596.44 
L 202.220327 593.521381 
L 204.19747 596.44 
M 210.785572 596.44 
L 210.991397 589.852443 
L 213.915087 571.516319 
L 215.6975 596.44 
M 220.80916 596.44 
L 222.686158 588.01089 
L 225.609848 572.232148 
L 228.413049 596.44 
M 232.142253 596.44 
L 234.380918 517.02516 
L 237.304608 573.858959 
L 238.270194 596.44 
M 243.359765 596.44 
L 246.075678 500.181349 
L 248.999369 500.209158 
L 251.923059 579.436472 
L 254.846749 569.120019 
L 257.236628 596.44 
M 258.053948 596.44 
L 260.694129 539.612393 
L 262.148014 596.44 
M 265.508867 596.44 
L 266.541509 565.0684 
L 269.465199 551.543834 
L 272.388889 578.395365 
L 274.563099 596.44 
M 280.555451 596.44 
L 281.15996 594.680441 
L 284.08365 556.119697 
L 287.00734 570.773275 
L 288.572736 596.44 
M 291.228738 596.44 
L 292.85472 568.53519 
L 295.77841 533.662484 
L 298.7021 595.703674 
L 298.88083 596.44 
M 302.455812 596.44 
L 304.549481 567.914821 
L 307.473171 543.405476 
L 310.396861 556.917029 
L 313.320551 534.882234 
L 316.244241 567.084888 
L 319.167931 555.501707 
L 322.091621 566.964662 
L 325.015311 509.733491 
L 327.939001 550.50577 
L 330.862691 544.151178 
L 333.786382 565.32914 
L 336.710072 543.673037 
L 339.633762 589.459828 
L 342.05286 596.44 
M 342.653675 596.44 
L 345.481142 553.657076 
L 348.404832 488.812945 
L 351.328522 491.977264 
L 354.147813 596.44 
M 354.909375 596.44 
L 357.175902 583.098415 
L 360.099592 561.705815 
L 361.344351 596.44 
M 364.350828 596.44 
L 365.946973 540.111557 
L 368.870663 539.65339 
L 371.794353 518.623742 
L 375.290619 596.44 
M 382.516332 596.44 
L 383.489113 565.785628 
L 386.412803 545.163252 
L 389.336494 580.085664 
L 392.260184 572.171318 
L 395.183874 588.575466 
L 398.107564 506.829493 
L 401.031254 500.513693 
L 403.954944 527.726776 
L 406.878634 550.229499 
L 409.802324 555.291023 
L 412.726014 533.24234 
L 414.930552 596.44 
M 416.677153 596.44 
L 418.573395 558.391433 
L 420.863756 596.44 
M 426.982432 596.44 
L 427.344465 588.28111 
L 430.268155 580.620997 
L 433.191845 561.376934 
L 436.115535 513.249952 
L 439.039225 572.923001 
L 440.766037 596.44 
M 442.980807 596.44 
L 444.886605 565.92156 
L 447.810296 486.620964 
L 450.733986 494.658719 
L 453.657676 531.206824 
L 456.581366 544.475092 
L 458.243832 596.44 
M 460.600197 596.44 
L 462.428746 530.615663 
L 465.352436 565.905819 
L 468.276126 535.35037 
L 471.199816 557.065694 
L 473.652842 596.44 
M 474.605499 596.44 
L 477.047197 558.168611 
L 479.970887 460.305081 
L 482.894577 573.779729 
L 485.818267 595.864581 
L 488.741957 521.32797 
L 491.665647 574.689382 
L 494.589337 488.601352 
L 497.513027 557.553839 
L 500.436717 542.495788 
L 503.360408 529.181172 
L 506.284098 585.820797 
L 509.207788 521.161255 
L 512.131478 547.228117 
L 515.055168 493.189353 
L 517.978858 501.28633 
L 520.902548 523.274672 
L 523.826238 523.260191 
L 526.749928 566.242116 
L 532.597309 481.54961 
L 535.520999 515.946834 
L 538.444689 478.964139 
L 541.368379 447.629302 
L 544.292069 423.245955 
L 547.215759 455.491634 
L 550.139449 465.486516 
L 553.063139 417.63598 
L 555.986829 434.152309 
L 558.910519 429.505157 
L 561.83421 430.667434 
L 564.7579 451.389084 
L 567.68159 445.345883 
L 570.60528 494.742706 
L 573.52897 504.54296 
L 576.45266 491.306384 
L 579.37635 499.556048 
L 582.30004 458.571161 
L 585.22373 559.428133 
L 588.147421 496.064527 
L 591.071111 513.535108 
L 593.994801 556.631628 
L 596.918491 508.48037 
L 599.842181 560.567184 
L 602.765871 555.432272 
L 605.689561 569.029421 
L 608.613251 580.367987 
L 609.810657 596.44 
M 615.831862 596.44 
L 617.384322 539.224606 
L 620.308012 542.089426 
L 623.231702 573.841189 
L 624.283557 596.44 
M 633.871216 596.44 
L 634.926462 589.96959 
L 637.850152 586.44232 
L 640.773842 523.250606 
L 643.697532 443.806242 
L 646.621223 509.695782 
L 649.544913 534.86331 
L 652.468603 584.216583 
L 655.392293 566.401905 
L 658.315983 491.896705 
L 661.239673 566.769648 
L 664.163363 503.373547 
L 667.087053 575.007524 
L 670.010743 589.465775 
L 672.934433 564.908472 
L 675.858124 567.485373 
L 678.781814 545.02641 
L 681.842136 596.44 
M 685.841594 596.44 
L 687.552884 556.570553 
L 688.787046 596.44 
M 700.099402 596.44 
L 702.171335 567.967116 
L 705.095025 571.327182 
L 708.018715 569.674941 
L 710.942405 571.823547 
L 713.866095 570.171691 
L 716.789785 571.18352 
L 719.713475 571.401934 
L 722.637165 566.341284 
L 725.560855 571.570258 
L 728.484545 567.596749 
L 728.484545 567.596749 
" style="fill:none;stroke:#8172b3;stroke-dasharray:7.5,1.5,1.5,1.5;stroke-dashoffset:0;stroke-width:1.5;"/>
   </g>
   <g id="line2d_6"/>
   <g id="line2d_7"/>
   <g id="line2d_8"/>
   <g id="line2d_9"/>
   <g id="line2d_10"/>
   <g id="patch_3">
    <path d="M 105.3 529.9416 
L 105.3 71.4528 
" style="fill:none;stroke:#262626;stroke-linecap:square;stroke-linejoin:miter;stroke-width:1.25;"/>
   </g>
   <g id="patch_4">
    <path d="M 758.16 529.9416 
L 758.16 71.4528 
" style="fill:none;stroke:#262626;stroke-linecap:square;stroke-linejoin:miter;stroke-width:1.25;"/>
   </g>
   <g id="patch_5">
    <path d="M 105.3 529.9416 
L 758.16 529.9416 
" style="fill:none;stroke:#262626;stroke-linecap:square;stroke-linejoin:miter;stroke-width:1.25;"/>
   </g>
   <g id="patch_6">
    <path d="M 105.3 71.4528 
L 758.16 71.4528 
" style="fill:none;stroke:#262626;stroke-linecap:square;stroke-linejoin:miter;stroke-width:1.25;"/>
   </g>
   <g id="text_16">
    <!-- Activations for &gt;0&lt; -->
    <g style="fill:#262626;" transform="translate(382.037813 65.4528)scale(0.12 -0.12)">
     <defs>
      <path d="M -9 0 
L 1750 4581 
L 2403 4581 
L 4278 0 
L 3588 0 
L 3053 1388 
L 1138 1388 
L 634 0 
L -9 0 
z
M 1313 1881 
L 2866 1881 
L 2388 3150 
Q 2169 3728 2063 4100 
Q 1975 3659 1816 3225 
L 1313 1881 
z
" id="ArialMT-41" transform="scale(0.015625)"/>
      <path d="M 2588 1216 
L 3141 1144 
Q 3050 572 2676 248 
Q 2303 -75 1759 -75 
Q 1078 -75 664 370 
Q 250 816 250 1647 
Q 250 2184 428 2587 
Q 606 2991 970 3192 
Q 1334 3394 1763 3394 
Q 2303 3394 2647 3120 
Q 2991 2847 3088 2344 
L 2541 2259 
Q 2463 2594 2264 2762 
Q 2066 2931 1784 2931 
Q 1359 2931 1093 2626 
Q 828 2322 828 1663 
Q 828 994 1084 691 
Q 1341 388 1753 388 
Q 2084 388 2306 591 
Q 2528 794 2588 1216 
z
" id="ArialMT-63" transform="scale(0.015625)"/>
      <path d="M 1650 503 
L 1731 6 
Q 1494 -44 1306 -44 
Q 1000 -44 831 53 
Q 663 150 594 308 
Q 525 466 525 972 
L 525 2881 
L 113 2881 
L 113 3319 
L 525 3319 
L 525 4141 
L 1084 4478 
L 1084 3319 
L 1650 3319 
L 1650 2881 
L 1084 2881 
L 1084 941 
Q 1084 700 1114 631 
Q 1144 563 1211 522 
Q 1278 481 1403 481 
Q 1497 481 1650 503 
z
" id="ArialMT-74" transform="scale(0.015625)"/>
      <path d="M 425 3934 
L 425 4581 
L 988 4581 
L 988 3934 
L 425 3934 
z
M 425 0 
L 425 3319 
L 988 3319 
L 988 0 
L 425 0 
z
" id="ArialMT-69" transform="scale(0.015625)"/>
      <path d="M 1344 0 
L 81 3319 
L 675 3319 
L 1388 1331 
Q 1503 1009 1600 663 
Q 1675 925 1809 1294 
L 2547 3319 
L 3125 3319 
L 1869 0 
L 1344 0 
z
" id="ArialMT-76" transform="scale(0.015625)"/>
      <path d="M 2588 409 
Q 2275 144 1986 34 
Q 1697 -75 1366 -75 
Q 819 -75 525 192 
Q 231 459 231 875 
Q 231 1119 342 1320 
Q 453 1522 633 1644 
Q 813 1766 1038 1828 
Q 1203 1872 1538 1913 
Q 2219 1994 2541 2106 
Q 2544 2222 2544 2253 
Q 2544 2597 2384 2738 
Q 2169 2928 1744 2928 
Q 1347 2928 1158 2789 
Q 969 2650 878 2297 
L 328 2372 
Q 403 2725 575 2942 
Q 747 3159 1072 3276 
Q 1397 3394 1825 3394 
Q 2250 3394 2515 3294 
Q 2781 3194 2906 3042 
Q 3031 2891 3081 2659 
Q 3109 2516 3109 2141 
L 3109 1391 
Q 3109 606 3145 398 
Q 3181 191 3288 0 
L 2700 0 
Q 2613 175 2588 409 
z
M 2541 1666 
Q 2234 1541 1622 1453 
Q 1275 1403 1131 1340 
Q 988 1278 909 1158 
Q 831 1038 831 891 
Q 831 666 1001 516 
Q 1172 366 1500 366 
Q 1825 366 2078 508 
Q 2331 650 2450 897 
Q 2541 1088 2541 1459 
L 2541 1666 
z
" id="ArialMT-61" transform="scale(0.015625)"/>
      <path d="M 213 1659 
Q 213 2581 725 3025 
Q 1153 3394 1769 3394 
Q 2453 3394 2887 2945 
Q 3322 2497 3322 1706 
Q 3322 1066 3130 698 
Q 2938 331 2570 128 
Q 2203 -75 1769 -75 
Q 1072 -75 642 372 
Q 213 819 213 1659 
z
M 791 1659 
Q 791 1022 1069 705 
Q 1347 388 1769 388 
Q 2188 388 2466 706 
Q 2744 1025 2744 1678 
Q 2744 2294 2464 2611 
Q 2184 2928 1769 2928 
Q 1347 2928 1069 2612 
Q 791 2297 791 1659 
z
" id="ArialMT-6f" transform="scale(0.015625)"/>
      <path d="M 422 0 
L 422 3319 
L 928 3319 
L 928 2847 
Q 1294 3394 1984 3394 
Q 2284 3394 2536 3286 
Q 2788 3178 2913 3003 
Q 3038 2828 3088 2588 
Q 3119 2431 3119 2041 
L 3119 0 
L 2556 0 
L 2556 2019 
Q 2556 2363 2490 2533 
Q 2425 2703 2258 2804 
Q 2091 2906 1866 2906 
Q 1506 2906 1245 2678 
Q 984 2450 984 1813 
L 984 0 
L 422 0 
z
" id="ArialMT-6e" transform="scale(0.015625)"/>
      <path d="M 197 991 
L 753 1078 
Q 800 744 1014 566 
Q 1228 388 1613 388 
Q 2000 388 2187 545 
Q 2375 703 2375 916 
Q 2375 1106 2209 1216 
Q 2094 1291 1634 1406 
Q 1016 1563 777 1677 
Q 538 1791 414 1992 
Q 291 2194 291 2438 
Q 291 2659 392 2848 
Q 494 3038 669 3163 
Q 800 3259 1026 3326 
Q 1253 3394 1513 3394 
Q 1903 3394 2198 3281 
Q 2494 3169 2634 2976 
Q 2775 2784 2828 2463 
L 2278 2388 
Q 2241 2644 2061 2787 
Q 1881 2931 1553 2931 
Q 1166 2931 1000 2803 
Q 834 2675 834 2503 
Q 834 2394 903 2306 
Q 972 2216 1119 2156 
Q 1203 2125 1616 2013 
Q 2213 1853 2448 1751 
Q 2684 1650 2818 1456 
Q 2953 1263 2953 975 
Q 2953 694 2789 445 
Q 2625 197 2315 61 
Q 2006 -75 1616 -75 
Q 969 -75 630 194 
Q 291 463 197 991 
z
" id="ArialMT-73" transform="scale(0.015625)"/>
      <path id="ArialMT-20" transform="scale(0.015625)"/>
      <path d="M 556 0 
L 556 2881 
L 59 2881 
L 59 3319 
L 556 3319 
L 556 3672 
Q 556 4006 616 4169 
Q 697 4388 901 4523 
Q 1106 4659 1475 4659 
Q 1713 4659 2000 4603 
L 1916 4113 
Q 1741 4144 1584 4144 
Q 1328 4144 1222 4034 
Q 1116 3925 1116 3625 
L 1116 3319 
L 1763 3319 
L 1763 2881 
L 1116 2881 
L 1116 0 
L 556 0 
z
" id="ArialMT-66" transform="scale(0.015625)"/>
      <path d="M 416 0 
L 416 3319 
L 922 3319 
L 922 2816 
Q 1116 3169 1280 3281 
Q 1444 3394 1641 3394 
Q 1925 3394 2219 3213 
L 2025 2691 
Q 1819 2813 1613 2813 
Q 1428 2813 1281 2702 
Q 1134 2591 1072 2394 
Q 978 2094 978 1738 
L 978 0 
L 416 0 
z
" id="ArialMT-72" transform="scale(0.015625)"/>
      <path d="M 3384 2003 
L 350 706 
L 350 1266 
L 2753 2263 
L 350 3250 
L 350 3809 
L 3384 2528 
L 3384 2003 
z
" id="ArialMT-3e" transform="scale(0.015625)"/>
      <path d="M 350 2003 
L 350 2528 
L 3384 3809 
L 3384 3250 
L 978 2263 
L 3384 1266 
L 3384 706 
L 350 2003 
z
" id="ArialMT-3c" transform="scale(0.015625)"/>
     </defs>
     <use xlink:href="#ArialMT-41"/>
     <use x="66.699219" xlink:href="#ArialMT-63"/>
     <use x="116.699219" xlink:href="#ArialMT-74"/>
     <use x="144.482422" xlink:href="#ArialMT-69"/>
     <use x="166.699219" xlink:href="#ArialMT-76"/>
     <use x="216.699219" xlink:href="#ArialMT-61"/>
     <use x="272.314453" xlink:href="#ArialMT-74"/>
     <use x="300.097656" xlink:href="#ArialMT-69"/>
     <use x="322.314453" xlink:href="#ArialMT-6f"/>
     <use x="377.929688" xlink:href="#ArialMT-6e"/>
     <use x="433.544922" xlink:href="#ArialMT-73"/>
     <use x="483.544922" xlink:href="#ArialMT-20"/>
     <use x="511.328125" xlink:href="#ArialMT-66"/>
     <use x="539.111328" xlink:href="#ArialMT-6f"/>
     <use x="594.726562" xlink:href="#ArialMT-72"/>
     <use x="628.027344" xlink:href="#ArialMT-20"/>
     <use x="655.810547" xlink:href="#ArialMT-3e"/>
     <use x="714.208984" xlink:href="#ArialMT-30"/>
     <use x="769.824219" xlink:href="#ArialMT-3c"/>
    </g>
   </g>
   <g id="legend_1">
    <g id="patch_7">
     <path d="M 640.044062 158.514363 
L 750.46 158.514363 
Q 752.66 158.514363 752.66 156.314363 
L 752.66 79.1528 
Q 752.66 76.9528 750.46 76.9528 
L 640.044062 76.9528 
Q 637.844062 76.9528 637.844062 79.1528 
L 637.844062 156.314363 
Q 637.844062 158.514363 640.044062 158.514363 
z
" style="fill:#ffffff;opacity:0.8;stroke:#cccccc;stroke-linejoin:miter;"/>
    </g>
    <g id="line2d_11">
     <path d="M 642.244062 85.376394 
L 664.244062 85.376394 
" style="fill:none;stroke:#4c72b0;stroke-linecap:round;stroke-width:1.5;"/>
    </g>
    <g id="line2d_12"/>
    <g id="text_17">
     <!-- regular -->
     <g style="fill:#262626;" transform="translate(673.044062 89.226394)scale(0.11 -0.11)">
      <defs>
       <path d="M 2694 1069 
L 3275 997 
Q 3138 488 2766 206 
Q 2394 -75 1816 -75 
Q 1088 -75 661 373 
Q 234 822 234 1631 
Q 234 2469 665 2931 
Q 1097 3394 1784 3394 
Q 2450 3394 2872 2941 
Q 3294 2488 3294 1666 
Q 3294 1616 3291 1516 
L 816 1516 
Q 847 969 1125 678 
Q 1403 388 1819 388 
Q 2128 388 2347 550 
Q 2566 713 2694 1069 
z
M 847 1978 
L 2700 1978 
Q 2663 2397 2488 2606 
Q 2219 2931 1791 2931 
Q 1403 2931 1139 2672 
Q 875 2413 847 1978 
z
" id="ArialMT-65" transform="scale(0.015625)"/>
       <path d="M 319 -275 
L 866 -356 
Q 900 -609 1056 -725 
Q 1266 -881 1628 -881 
Q 2019 -881 2231 -725 
Q 2444 -569 2519 -288 
Q 2563 -116 2559 434 
Q 2191 0 1641 0 
Q 956 0 581 494 
Q 206 988 206 1678 
Q 206 2153 378 2554 
Q 550 2956 876 3175 
Q 1203 3394 1644 3394 
Q 2231 3394 2613 2919 
L 2613 3319 
L 3131 3319 
L 3131 450 
Q 3131 -325 2973 -648 
Q 2816 -972 2473 -1159 
Q 2131 -1347 1631 -1347 
Q 1038 -1347 672 -1080 
Q 306 -813 319 -275 
z
M 784 1719 
Q 784 1066 1043 766 
Q 1303 466 1694 466 
Q 2081 466 2343 764 
Q 2606 1063 2606 1700 
Q 2606 2309 2336 2618 
Q 2066 2928 1684 2928 
Q 1309 2928 1046 2623 
Q 784 2319 784 1719 
z
" id="ArialMT-67" transform="scale(0.015625)"/>
       <path d="M 2597 0 
L 2597 488 
Q 2209 -75 1544 -75 
Q 1250 -75 995 37 
Q 741 150 617 320 
Q 494 491 444 738 
Q 409 903 409 1263 
L 409 3319 
L 972 3319 
L 972 1478 
Q 972 1038 1006 884 
Q 1059 663 1231 536 
Q 1403 409 1656 409 
Q 1909 409 2131 539 
Q 2353 669 2445 892 
Q 2538 1116 2538 1541 
L 2538 3319 
L 3100 3319 
L 3100 0 
L 2597 0 
z
" id="ArialMT-75" transform="scale(0.015625)"/>
       <path d="M 409 0 
L 409 4581 
L 972 4581 
L 972 0 
L 409 0 
z
" id="ArialMT-6c" transform="scale(0.015625)"/>
      </defs>
      <use xlink:href="#ArialMT-72"/>
      <use x="33.300781" xlink:href="#ArialMT-65"/>
      <use x="88.916016" xlink:href="#ArialMT-67"/>
      <use x="144.53125" xlink:href="#ArialMT-75"/>
      <use x="200.146484" xlink:href="#ArialMT-6c"/>
      <use x="222.363281" xlink:href="#ArialMT-61"/>
      <use x="277.978516" xlink:href="#ArialMT-72"/>
     </g>
    </g>
    <g id="line2d_13">
     <path d="M 642.244062 101.0978 
L 664.244062 101.0978 
" style="fill:none;stroke:#dd8452;stroke-dasharray:6,2.25;stroke-dashoffset:0;stroke-width:1.5;"/>
    </g>
    <g id="line2d_14"/>
    <g id="text_18">
     <!-- splitted_3s -->
     <g style="fill:#262626;" transform="translate(673.044062 104.9478)scale(0.11 -0.11)">
      <defs>
       <path d="M 422 -1272 
L 422 3319 
L 934 3319 
L 934 2888 
Q 1116 3141 1344 3267 
Q 1572 3394 1897 3394 
Q 2322 3394 2647 3175 
Q 2972 2956 3137 2557 
Q 3303 2159 3303 1684 
Q 3303 1175 3120 767 
Q 2938 359 2589 142 
Q 2241 -75 1856 -75 
Q 1575 -75 1351 44 
Q 1128 163 984 344 
L 984 -1272 
L 422 -1272 
z
M 931 1641 
Q 931 1000 1190 694 
Q 1450 388 1819 388 
Q 2194 388 2461 705 
Q 2728 1022 2728 1688 
Q 2728 2322 2467 2637 
Q 2206 2953 1844 2953 
Q 1484 2953 1207 2617 
Q 931 2281 931 1641 
z
" id="ArialMT-70" transform="scale(0.015625)"/>
       <path d="M 2575 0 
L 2575 419 
Q 2259 -75 1647 -75 
Q 1250 -75 917 144 
Q 584 363 401 755 
Q 219 1147 219 1656 
Q 219 2153 384 2558 
Q 550 2963 881 3178 
Q 1213 3394 1622 3394 
Q 1922 3394 2156 3267 
Q 2391 3141 2538 2938 
L 2538 4581 
L 3097 4581 
L 3097 0 
L 2575 0 
z
M 797 1656 
Q 797 1019 1065 703 
Q 1334 388 1700 388 
Q 2069 388 2326 689 
Q 2584 991 2584 1609 
Q 2584 2291 2321 2609 
Q 2059 2928 1675 2928 
Q 1300 2928 1048 2622 
Q 797 2316 797 1656 
z
" id="ArialMT-64" transform="scale(0.015625)"/>
       <path d="M -97 -1272 
L -97 -866 
L 3631 -866 
L 3631 -1272 
L -97 -1272 
z
" id="ArialMT-5f" transform="scale(0.015625)"/>
       <path d="M 269 1209 
L 831 1284 
Q 928 806 1161 595 
Q 1394 384 1728 384 
Q 2125 384 2398 659 
Q 2672 934 2672 1341 
Q 2672 1728 2419 1979 
Q 2166 2231 1775 2231 
Q 1616 2231 1378 2169 
L 1441 2663 
Q 1497 2656 1531 2656 
Q 1891 2656 2178 2843 
Q 2466 3031 2466 3422 
Q 2466 3731 2256 3934 
Q 2047 4138 1716 4138 
Q 1388 4138 1169 3931 
Q 950 3725 888 3313 
L 325 3413 
Q 428 3978 793 4289 
Q 1159 4600 1703 4600 
Q 2078 4600 2393 4439 
Q 2709 4278 2876 4000 
Q 3044 3722 3044 3409 
Q 3044 3113 2884 2869 
Q 2725 2625 2413 2481 
Q 2819 2388 3044 2092 
Q 3269 1797 3269 1353 
Q 3269 753 2831 336 
Q 2394 -81 1725 -81 
Q 1122 -81 723 278 
Q 325 638 269 1209 
z
" id="ArialMT-33" transform="scale(0.015625)"/>
      </defs>
      <use xlink:href="#ArialMT-73"/>
      <use x="50" xlink:href="#ArialMT-70"/>
      <use x="105.615234" xlink:href="#ArialMT-6c"/>
      <use x="127.832031" xlink:href="#ArialMT-69"/>
      <use x="150.048828" xlink:href="#ArialMT-74"/>
      <use x="177.832031" xlink:href="#ArialMT-74"/>
      <use x="205.615234" xlink:href="#ArialMT-65"/>
      <use x="261.230469" xlink:href="#ArialMT-64"/>
      <use x="316.845703" xlink:href="#ArialMT-5f"/>
      <use x="372.460938" xlink:href="#ArialMT-33"/>
      <use x="428.076172" xlink:href="#ArialMT-73"/>
     </g>
    </g>
    <g id="line2d_15">
     <path d="M 642.244062 116.6903 
L 664.244062 116.6903 
" style="fill:none;stroke:#55a868;stroke-dasharray:1.5,1.5;stroke-dashoffset:0;stroke-width:1.5;"/>
    </g>
    <g id="line2d_16"/>
    <g id="text_19">
     <!-- splitted_1s -->
     <g style="fill:#262626;" transform="translate(673.044062 120.5403)scale(0.11 -0.11)">
      <use xlink:href="#ArialMT-73"/>
      <use x="50" xlink:href="#ArialMT-70"/>
      <use x="105.615234" xlink:href="#ArialMT-6c"/>
      <use x="127.832031" xlink:href="#ArialMT-69"/>
      <use x="150.048828" xlink:href="#ArialMT-74"/>
      <use x="177.832031" xlink:href="#ArialMT-74"/>
      <use x="205.615234" xlink:href="#ArialMT-65"/>
      <use x="261.230469" xlink:href="#ArialMT-64"/>
      <use x="316.845703" xlink:href="#ArialMT-5f"/>
      <use x="372.460938" xlink:href="#ArialMT-31"/>
      <use x="428.076172" xlink:href="#ArialMT-73"/>
     </g>
    </g>
    <g id="line2d_17">
     <path d="M 642.244062 132.384206 
L 664.244062 132.384206 
" style="fill:none;stroke:#c44e52;stroke-dasharray:4.5,1.875,2.25,1.875;stroke-dashoffset:0;stroke-width:1.5;"/>
    </g>
    <g id="line2d_18"/>
    <g id="text_20">
     <!-- overlap_1f_3s -->
     <g style="fill:#262626;" transform="translate(673.044062 136.234206)scale(0.11 -0.11)">
      <use xlink:href="#ArialMT-6f"/>
      <use x="55.615234" xlink:href="#ArialMT-76"/>
      <use x="105.615234" xlink:href="#ArialMT-65"/>
      <use x="161.230469" xlink:href="#ArialMT-72"/>
      <use x="194.53125" xlink:href="#ArialMT-6c"/>
      <use x="216.748047" xlink:href="#ArialMT-61"/>
      <use x="272.363281" xlink:href="#ArialMT-70"/>
      <use x="327.978516" xlink:href="#ArialMT-5f"/>
      <use x="383.59375" xlink:href="#ArialMT-31"/>
      <use x="439.208984" xlink:href="#ArialMT-66"/>
      <use x="466.992188" xlink:href="#ArialMT-5f"/>
      <use x="522.607422" xlink:href="#ArialMT-33"/>
      <use x="578.222656" xlink:href="#ArialMT-73"/>
     </g>
    </g>
    <g id="line2d_19">
     <path d="M 642.244062 148.078113 
L 664.244062 148.078113 
" style="fill:none;stroke:#8172b3;stroke-dasharray:7.5,1.5,1.5,1.5;stroke-dashoffset:0;stroke-width:1.5;"/>
    </g>
    <g id="line2d_20"/>
    <g id="text_21">
     <!-- overlap_10f_3s -->
     <g style="fill:#262626;" transform="translate(673.044062 151.928112)scale(0.11 -0.11)">
      <use xlink:href="#ArialMT-6f"/>
      <use x="55.615234" xlink:href="#ArialMT-76"/>
      <use x="105.615234" xlink:href="#ArialMT-65"/>
      <use x="161.230469" xlink:href="#ArialMT-72"/>
      <use x="194.53125" xlink:href="#ArialMT-6c"/>
      <use x="216.748047" xlink:href="#ArialMT-61"/>
      <use x="272.363281" xlink:href="#ArialMT-70"/>
      <use x="327.978516" xlink:href="#ArialMT-5f"/>
      <use x="383.59375" xlink:href="#ArialMT-31"/>
      <use x="439.208984" xlink:href="#ArialMT-30"/>
      <use x="494.824219" xlink:href="#ArialMT-66"/>
      <use x="522.607422" xlink:href="#ArialMT-5f"/>
      <use x="578.222656" xlink:href="#ArialMT-33"/>
      <use x="633.837891" xlink:href="#ArialMT-73"/>
     </g>
    </g>
   </g>
  </g>
 </g>
 <defs>
  <clipPath id="p17cd2db8b9">
   <rect height="458.4888" width="652.86" x="105.3" y="71.4528"/>
  </clipPath>
 </defs>
</svg>
