<?xml version="1.0" encoding="utf-8" standalone="no"?>
<!DOCTYPE svg PUBLIC "-//W3C//DTD SVG 1.1//EN"
  "http://www.w3.org/Graphics/SVG/1.1/DTD/svg11.dtd">
<svg height="595.44pt" version="1.1" viewBox="0 0 842.4 595.44" width="842.4pt" xmlns="http://www.w3.org/2000/svg" xmlns:xlink="http://www.w3.org/1999/xlink">
 <metadata>
  <rdf:RDF xmlns:cc="http://creativecommons.org/ns#" xmlns:dc="http://purl.org/dc/elements/1.1/" xmlns:rdf="http://www.w3.org/1999/02/22-rdf-syntax-ns#">
   <cc:Work>
    <dc:type rdf:resource="http://purl.org/dc/dcmitype/StillImage"/>
    <dc:date>2021-06-01T00:54:07.595939</dc:date>
    <dc:format>image/svg+xml</dc:format>
    <dc:creator>
     <cc:Agent>
      <dc:title>Matplotlib v3.4.1, https://matplotlib.org/</dc:title>
     </cc:Agent>
    </dc:creator>
   </cc:Work>
  </rdf:RDF>
 </metadata>
 <defs>
  <style type="text/css">*{stroke-linecap:butt;stroke-linejoin:round;}</style>
 </defs>
 <g id="figure_1">
  <g id="patch_1">
   <path d="M 0 595.44 
L 842.4 595.44 
L 842.4 0 
L 0 0 
z
" style="fill:#ffffff;"/>
  </g>
  <g id="axes_1">
   <g id="patch_2">
    <path d="M 105.3 529.9416 
L 758.16 529.9416 
L 758.16 71.4528 
L 105.3 71.4528 
z
" style="fill:#ffffff;"/>
   </g>
   <g id="matplotlib.axis_1">
    <g id="xtick_1">
     <g id="text_1">
      <!-- 0 -->
      <g style="fill:#262626;" transform="translate(131.916939 547.315194)scale(0.11 -0.11)">
       <defs>
        <path d="M 266 2259 
Q 266 3072 433 3567 
Q 600 4063 929 4331 
Q 1259 4600 1759 4600 
Q 2128 4600 2406 4451 
Q 2684 4303 2865 4023 
Q 3047 3744 3150 3342 
Q 3253 2941 3253 2259 
Q 3253 1453 3087 958 
Q 2922 463 2592 192 
Q 2263 -78 1759 -78 
Q 1097 -78 719 397 
Q 266 969 266 2259 
z
M 844 2259 
Q 844 1131 1108 757 
Q 1372 384 1759 384 
Q 2147 384 2411 759 
Q 2675 1134 2675 2259 
Q 2675 3391 2411 3762 
Q 2147 4134 1753 4134 
Q 1366 4134 1134 3806 
Q 844 3388 844 2259 
z
" id="ArialMT-30" transform="scale(0.015625)"/>
       </defs>
       <use xlink:href="#ArialMT-30"/>
      </g>
     </g>
    </g>
    <g id="xtick_2">
     <g id="text_2">
      <!-- 25 -->
      <g style="fill:#262626;" transform="translate(201.950676 547.315194)scale(0.11 -0.11)">
       <defs>
        <path d="M 3222 541 
L 3222 0 
L 194 0 
Q 188 203 259 391 
Q 375 700 629 1000 
Q 884 1300 1366 1694 
Q 2113 2306 2375 2664 
Q 2638 3022 2638 3341 
Q 2638 3675 2398 3904 
Q 2159 4134 1775 4134 
Q 1369 4134 1125 3890 
Q 881 3647 878 3216 
L 300 3275 
Q 359 3922 746 4261 
Q 1134 4600 1788 4600 
Q 2447 4600 2831 4234 
Q 3216 3869 3216 3328 
Q 3216 3053 3103 2787 
Q 2991 2522 2730 2228 
Q 2469 1934 1863 1422 
Q 1356 997 1212 845 
Q 1069 694 975 541 
L 3222 541 
z
" id="ArialMT-32" transform="scale(0.015625)"/>
        <path d="M 266 1200 
L 856 1250 
Q 922 819 1161 601 
Q 1400 384 1738 384 
Q 2144 384 2425 690 
Q 2706 997 2706 1503 
Q 2706 1984 2436 2262 
Q 2166 2541 1728 2541 
Q 1456 2541 1237 2417 
Q 1019 2294 894 2097 
L 366 2166 
L 809 4519 
L 3088 4519 
L 3088 3981 
L 1259 3981 
L 1013 2750 
Q 1425 3038 1878 3038 
Q 2478 3038 2890 2622 
Q 3303 2206 3303 1553 
Q 3303 931 2941 478 
Q 2500 -78 1738 -78 
Q 1113 -78 717 272 
Q 322 622 266 1200 
z
" id="ArialMT-35" transform="scale(0.015625)"/>
       </defs>
       <use xlink:href="#ArialMT-32"/>
       <use x="55.615234" xlink:href="#ArialMT-35"/>
      </g>
     </g>
    </g>
    <g id="xtick_3">
     <g id="text_3">
      <!-- 50 -->
      <g style="fill:#262626;" transform="translate(275.042928 547.315194)scale(0.11 -0.11)">
       <use xlink:href="#ArialMT-35"/>
       <use x="55.615234" xlink:href="#ArialMT-30"/>
      </g>
     </g>
    </g>
    <g id="xtick_4">
     <g id="text_4">
      <!-- 75 -->
      <g style="fill:#262626;" transform="translate(348.135181 547.315194)scale(0.11 -0.11)">
       <defs>
        <path d="M 303 3981 
L 303 4522 
L 3269 4522 
L 3269 4084 
Q 2831 3619 2401 2847 
Q 1972 2075 1738 1259 
Q 1569 684 1522 0 
L 944 0 
Q 953 541 1156 1306 
Q 1359 2072 1739 2783 
Q 2119 3494 2547 3981 
L 303 3981 
z
" id="ArialMT-37" transform="scale(0.015625)"/>
       </defs>
       <use xlink:href="#ArialMT-37"/>
       <use x="55.615234" xlink:href="#ArialMT-35"/>
      </g>
     </g>
    </g>
    <g id="xtick_5">
     <g id="text_5">
      <!-- 100 -->
      <g style="fill:#262626;" transform="translate(418.168918 547.315194)scale(0.11 -0.11)">
       <defs>
        <path d="M 2384 0 
L 1822 0 
L 1822 3584 
Q 1619 3391 1289 3197 
Q 959 3003 697 2906 
L 697 3450 
Q 1169 3672 1522 3987 
Q 1875 4303 2022 4600 
L 2384 4600 
L 2384 0 
z
" id="ArialMT-31" transform="scale(0.015625)"/>
       </defs>
       <use xlink:href="#ArialMT-31"/>
       <use x="55.615234" xlink:href="#ArialMT-30"/>
       <use x="111.230469" xlink:href="#ArialMT-30"/>
      </g>
     </g>
    </g>
    <g id="xtick_6">
     <g id="text_6">
      <!-- 125 -->
      <g style="fill:#262626;" transform="translate(491.261171 547.315194)scale(0.11 -0.11)">
       <use xlink:href="#ArialMT-31"/>
       <use x="55.615234" xlink:href="#ArialMT-32"/>
       <use x="111.230469" xlink:href="#ArialMT-35"/>
      </g>
     </g>
    </g>
    <g id="xtick_7">
     <g id="text_7">
      <!-- 150 -->
      <g style="fill:#262626;" transform="translate(564.353423 547.315194)scale(0.11 -0.11)">
       <use xlink:href="#ArialMT-31"/>
       <use x="55.615234" xlink:href="#ArialMT-35"/>
       <use x="111.230469" xlink:href="#ArialMT-30"/>
      </g>
     </g>
    </g>
    <g id="xtick_8">
     <g id="text_8">
      <!-- 175 -->
      <g style="fill:#262626;" transform="translate(637.445676 547.315194)scale(0.11 -0.11)">
       <use xlink:href="#ArialMT-31"/>
       <use x="55.615234" xlink:href="#ArialMT-37"/>
       <use x="111.230469" xlink:href="#ArialMT-35"/>
      </g>
     </g>
    </g>
    <g id="xtick_9">
     <g id="text_9">
      <!-- 200 -->
      <g style="fill:#262626;" transform="translate(710.537928 547.315194)scale(0.11 -0.11)">
       <use xlink:href="#ArialMT-32"/>
       <use x="55.615234" xlink:href="#ArialMT-30"/>
       <use x="111.230469" xlink:href="#ArialMT-30"/>
      </g>
     </g>
    </g>
   </g>
   <g id="matplotlib.axis_2">
    <g id="ytick_1">
     <g id="text_10">
      <!-- −25 -->
      <g style="fill:#262626;" transform="translate(77.14125 533.878397)scale(0.11 -0.11)">
       <defs>
        <path d="M 3381 1997 
L 356 1997 
L 356 2522 
L 3381 2522 
L 3381 1997 
z
" id="ArialMT-2212" transform="scale(0.015625)"/>
       </defs>
       <use xlink:href="#ArialMT-2212"/>
       <use x="58.398438" xlink:href="#ArialMT-32"/>
       <use x="114.013672" xlink:href="#ArialMT-35"/>
      </g>
     </g>
    </g>
    <g id="ytick_2">
     <g id="text_11">
      <!-- −20 -->
      <g style="fill:#262626;" transform="translate(77.14125 442.180637)scale(0.11 -0.11)">
       <use xlink:href="#ArialMT-2212"/>
       <use x="58.398438" xlink:href="#ArialMT-32"/>
       <use x="114.013672" xlink:href="#ArialMT-30"/>
      </g>
     </g>
    </g>
    <g id="ytick_3">
     <g id="text_12">
      <!-- −15 -->
      <g style="fill:#262626;" transform="translate(77.14125 350.482877)scale(0.11 -0.11)">
       <use xlink:href="#ArialMT-2212"/>
       <use x="58.398438" xlink:href="#ArialMT-31"/>
       <use x="114.013672" xlink:href="#ArialMT-35"/>
      </g>
     </g>
    </g>
    <g id="ytick_4">
     <g id="text_13">
      <!-- −10 -->
      <g style="fill:#262626;" transform="translate(77.14125 258.785117)scale(0.11 -0.11)">
       <use xlink:href="#ArialMT-2212"/>
       <use x="58.398438" xlink:href="#ArialMT-31"/>
       <use x="114.013672" xlink:href="#ArialMT-30"/>
      </g>
     </g>
    </g>
    <g id="ytick_5">
     <g id="text_14">
      <!-- −5 -->
      <g style="fill:#262626;" transform="translate(83.258281 167.087357)scale(0.11 -0.11)">
       <use xlink:href="#ArialMT-2212"/>
       <use x="58.398438" xlink:href="#ArialMT-35"/>
      </g>
     </g>
    </g>
    <g id="ytick_6">
     <g id="text_15">
      <!-- 0 -->
      <g style="fill:#262626;" transform="translate(89.682969 75.389597)scale(0.11 -0.11)">
       <use xlink:href="#ArialMT-30"/>
      </g>
     </g>
    </g>
   </g>
   <g id="line2d_1">
    <path clip-path="url(#pb15eaa37d8)" d="M 134.975455 373.04218 
L 137.899145 372.294029 
L 140.822835 376.665994 
L 143.746525 374.126732 
L 146.670215 376.882555 
L 149.593905 378.308966 
L 152.517595 380.719328 
L 155.441285 384.331984 
L 158.364975 385.909158 
L 161.288665 388.851809 
L 164.212356 393.96199 
L 167.136046 395.656173 
L 170.059736 416.383419 
L 172.983426 429.546608 
L 175.907116 433.74014 
L 178.830806 460.503557 
L 181.754496 476.982072 
L 184.678186 397.494717 
L 187.601876 347.224393 
L 190.525567 485.97401 
L 193.449257 474.388801 
L 196.372947 439.805099 
L 199.296637 493.223353 
L 202.220327 381.44712 
L 205.144017 379.926403 
L 208.067707 506.795597 
L 210.991397 343.939989 
L 213.915087 344.936689 
L 216.838777 442.462418 
L 219.762468 470.987528 
L 222.686158 366.941087 
L 225.609848 323.883202 
L 228.533538 349.123943 
L 231.457228 433.077236 
L 234.380918 304.384136 
L 237.304608 414.950782 
L 240.228298 474.957959 
L 243.151988 461.582302 
L 246.075678 339.993344 
L 248.999369 342.919817 
L 251.923059 455.231348 
L 254.846749 415.988671 
L 257.770439 426.440531 
L 260.694129 352.726087 
L 263.617819 463.610053 
L 266.541509 333.299902 
L 269.465199 302.662704 
L 272.388889 287.360284 
L 275.312579 300.015179 
L 278.23627 333.448042 
L 281.15996 344.897179 
L 284.08365 342.750252 
L 287.00734 381.377894 
L 289.93103 466.692134 
L 292.85472 458.925577 
L 295.77841 464.058216 
L 298.7021 504.711529 
L 301.62579 443.668666 
L 307.473171 375.387548 
L 310.396861 380.99448 
L 313.320551 352.544891 
L 316.244241 410.087383 
L 319.167931 375.529392 
L 322.091621 476.82823 
L 325.015311 402.815898 
L 327.939001 426.777282 
L 330.862691 460.434017 
L 333.786382 444.760809 
L 336.710072 340.672584 
L 339.633762 343.47967 
L 342.557452 338.494595 
L 345.481142 377.843803 
L 348.404832 317.00295 
L 351.328522 273.286708 
L 354.252212 356.363019 
L 357.175902 373.390685 
L 360.099592 360.545761 
L 363.023283 459.180056 
L 365.946973 396.244955 
L 368.870663 394.046397 
L 371.794353 432.957395 
L 374.718043 445.487377 
L 377.641733 429.387099 
L 380.565423 435.781429 
L 383.489113 460.650997 
L 386.412803 424.190482 
L 389.336494 446.550556 
L 392.260184 445.832034 
L 395.183874 468.587066 
L 398.107564 408.639285 
L 401.031254 390.515699 
L 403.954944 359.671315 
L 406.878634 367.311175 
L 409.802324 377.922123 
L 412.726014 385.868477 
L 415.649704 432.262868 
L 418.573395 363.842233 
L 421.497085 385.27959 
L 424.420775 459.201079 
L 427.344465 422.038378 
L 430.268155 516.921794 
L 433.191845 535.568995 
L 436.115535 359.177504 
L 439.039225 382.424564 
L 441.962915 432.489293 
L 444.886605 446.628422 
L 447.810296 438.328561 
L 450.733986 411.361107 
L 453.657676 500.775938 
L 456.581366 404.404546 
L 459.505056 410.845958 
L 462.428746 412.559729 
L 465.352436 430.321763 
L 468.276126 401.709833 
L 471.199816 333.138557 
L 474.123506 364.684725 
L 477.047197 344.333897 
L 479.970887 327.151831 
L 482.894577 409.789634 
L 485.818267 411.196142 
L 488.741957 449.342339 
L 491.665647 388.028836 
L 494.589337 380.913781 
L 497.513027 472.140606 
L 500.436717 439.775366 
L 503.360408 397.295052 
L 509.207788 470.506694 
L 512.131478 501.462104 
L 515.055168 511.620937 
L 517.978858 439.504446 
L 520.902548 482.644341 
L 523.826238 457.319544 
L 526.749928 370.800492 
L 529.673618 402.068692 
L 532.597309 455.299349 
L 535.520999 481.915955 
L 538.444689 439.135303 
L 541.368379 440.554054 
L 544.292069 465.727423 
L 547.215759 358.725948 
L 550.139449 377.719065 
L 553.063139 293.627706 
L 555.986829 409.032529 
L 558.910519 429.458808 
L 561.83421 420.959003 
L 564.7579 392.593646 
L 567.68159 340.223057 
L 570.60528 344.997676 
L 573.52897 353.956926 
L 576.45266 356.354449 
L 579.37635 399.141327 
L 582.30004 421.709916 
L 585.22373 398.965448 
L 588.147421 411.592849 
L 591.071111 408.858889 
L 593.994801 435.218882 
L 596.918491 360.014101 
L 599.842181 388.332952 
L 602.765871 487.308494 
L 605.689561 414.25692 
L 608.613251 427.268715 
L 611.536941 498.613444 
L 614.460631 426.077474 
L 617.384322 238.730972 
L 620.308012 283.654144 
L 623.231702 441.185651 
L 626.155392 530.15113 
L 629.079082 503.792221 
L 632.002772 422.630203 
L 634.926462 374.960304 
L 637.850152 369.937537 
L 640.773842 356.374388 
L 643.697532 334.131234 
L 646.621223 313.289464 
L 649.544913 313.711217 
L 652.468603 454.264363 
L 655.392293 414.882606 
L 658.315983 394.71196 
L 661.239673 450.897616 
L 664.163363 340.898555 
L 667.087053 355.079414 
L 670.010743 375.042996 
L 672.934433 358.111456 
L 675.858124 380.987484 
L 678.781814 357.240578 
L 681.705504 435.91848 
L 684.629194 454.779373 
L 687.552884 417.341659 
L 690.476574 534.07014 
L 693.400264 435.3092 
L 696.323954 415.175633 
L 699.247644 382.554409 
L 702.171335 383.558018 
L 705.095025 393.305977 
L 708.018715 391.776025 
L 710.942405 393.717411 
L 713.866095 390.876797 
L 716.789785 392.211315 
L 719.713475 392.099135 
L 722.637165 391.033052 
L 725.560855 395.379097 
L 728.484545 394.959128 
L 728.484545 394.959128 
" style="fill:none;stroke:#4c72b0;stroke-linecap:round;stroke-width:1.5;"/>
   </g>
   <g id="line2d_2">
    <path clip-path="url(#pb15eaa37d8)" d="M 134.975455 373.509791 
L 137.899145 373.998356 
L 140.822835 376.102258 
L 143.746525 373.584648 
L 146.670215 378.978517 
L 149.593905 377.645222 
L 152.517595 378.118221 
L 155.441285 379.359903 
L 158.364975 377.53577 
L 161.288665 376.788669 
L 164.212356 378.008978 
L 167.136046 375.173226 
L 170.059736 391.973382 
L 172.983426 400.759988 
L 175.907116 411.459471 
L 178.830806 443.096569 
L 181.754496 442.359123 
L 184.678186 385.054949 
L 187.601876 321.137401 
L 190.525567 465.287131 
L 193.449257 439.610191 
L 196.372947 415.921055 
L 199.296637 462.324611 
L 202.220327 378.637323 
L 205.144017 397.528403 
L 208.067707 508.019475 
L 210.991397 361.569011 
L 213.915087 322.136585 
L 216.838777 454.868292 
L 219.762468 465.620139 
L 222.686158 360.108127 
L 225.609848 290.774709 
L 228.533538 315.446675 
L 231.457228 414.064111 
L 234.380918 278.656545 
L 237.304608 356.548693 
L 240.228298 451.37866 
L 243.151988 434.689425 
L 246.075678 335.557068 
L 248.999369 358.479392 
L 251.923059 429.657809 
L 254.846749 403.367881 
L 257.770439 408.676643 
L 260.694129 355.07791 
L 263.617819 467.763079 
L 266.541509 344.657322 
L 269.465199 310.606521 
L 272.388889 292.354839 
L 275.312579 290.151926 
L 278.23627 311.171954 
L 281.15996 329.174737 
L 284.08365 332.96259 
L 287.00734 375.62055 
L 289.93103 476.731756 
L 292.85472 478.073795 
L 295.77841 449.495901 
L 298.7021 499.374642 
L 301.62579 433.490034 
L 304.549481 414.974323 
L 307.473171 388.447021 
L 310.396861 363.162276 
L 313.320551 359.067737 
L 316.244241 425.347583 
L 319.167931 388.568262 
L 322.091621 463.452504 
L 325.015311 390.344367 
L 327.939001 412.480675 
L 330.862691 439.435361 
L 333.786382 421.559328 
L 336.710072 362.020742 
L 339.633762 357.778692 
L 342.557452 327.281047 
L 345.481142 361.333369 
L 348.404832 360.018753 
L 351.328522 424.668448 
L 354.252212 339.664953 
L 357.175902 295.386916 
L 360.099592 300.404121 
L 363.023283 304.233985 
L 365.946973 284.772067 
L 368.870663 251.709624 
L 371.794353 264.240463 
L 374.718043 280.235241 
L 377.641733 308.11791 
L 380.565423 378.496843 
L 383.489113 374.077585 
L 386.412803 416.860126 
L 389.336494 442.766324 
L 392.260184 417.534049 
L 395.183874 445.760675 
L 398.107564 365.133919 
L 401.031254 347.616745 
L 403.954944 349.126846 
L 406.878634 312.578812 
L 409.802324 330.720745 
L 412.726014 354.349156 
L 415.649704 405.274741 
L 418.573395 339.799206 
L 421.497085 373.472922 
L 424.420775 414.384317 
L 427.344465 343.189494 
L 430.268155 444.829824 
L 433.191845 467.409747 
L 436.115535 313.398006 
L 439.039225 370.48123 
L 441.962915 397.25563 
L 444.886605 373.227888 
L 447.810296 383.688808 
L 450.733986 429.645636 
L 453.657676 493.204464 
L 456.581366 394.418094 
L 459.505056 395.610489 
L 462.428746 388.69377 
L 465.352436 410.261339 
L 468.276126 360.151397 
L 471.199816 317.992531 
L 474.123506 331.16025 
L 477.047197 353.123669 
L 479.970887 295.476762 
L 482.894577 398.675255 
L 485.818267 414.688292 
L 488.741957 457.894719 
L 491.665647 394.821377 
L 494.589337 353.180634 
L 497.513027 455.956342 
L 500.436717 430.198249 
L 503.360408 381.701284 
L 506.284098 419.361679 
L 509.207788 440.752565 
L 512.131478 478.663522 
L 515.055168 519.23785 
L 517.978858 457.817798 
L 520.902548 491.786343 
L 523.826238 460.212349 
L 526.749928 391.07153 
L 529.673618 417.439638 
L 532.597309 456.81363 
L 535.520999 482.347922 
L 538.444689 436.739494 
L 541.368379 410.465307 
L 544.292069 468.895169 
L 547.215759 322.107219 
L 550.139449 361.267571 
L 553.063139 324.186408 
L 555.986829 320.534522 
L 558.910519 329.825014 
L 561.83421 330.202989 
L 564.7579 365.462311 
L 567.68159 289.824654 
L 570.60528 420.338319 
L 573.52897 263.708716 
L 576.45266 278.434283 
L 579.37635 345.380637 
L 582.30004 288.547415 
L 585.22373 353.380806 
L 588.147421 362.194662 
L 591.071111 410.411857 
L 593.994801 436.035068 
L 596.918491 359.560901 
L 599.842181 383.390499 
L 602.765871 441.150671 
L 605.689561 414.930808 
L 608.613251 466.077467 
L 611.536941 486.341859 
L 614.460631 415.521409 
L 617.384322 284.992266 
L 620.308012 309.658741 
L 623.231702 458.647137 
L 626.155392 549.433111 
L 629.079082 466.587719 
L 632.002772 428.522361 
L 634.926462 375.932395 
L 637.850152 338.759253 
L 640.773842 357.313721 
L 643.697532 303.770466 
L 646.621223 307.113269 
L 649.544913 308.565391 
L 652.468603 439.666998 
L 655.392293 446.616843 
L 658.315983 382.068783 
L 661.239673 445.447849 
L 664.163363 318.971479 
L 667.087053 357.064752 
L 670.010743 391.869876 
L 672.934433 351.28857 
L 675.858124 377.249809 
L 678.781814 370.460207 
L 681.705504 432.925283 
L 684.629194 450.959006 
L 687.552884 406.210594 
L 690.476574 518.72312 
L 693.400264 449.256918 
L 696.323954 424.263835 
L 699.247644 385.350389 
L 702.171335 378.428213 
L 705.095025 394.275026 
L 708.018715 392.12467 
L 710.942405 388.069903 
L 713.866095 382.888432 
L 716.789785 385.80149 
L 719.713475 387.951251 
L 722.637165 381.04513 
L 725.560855 387.015748 
L 728.484545 378.471553 
L 728.484545 378.471553 
" style="fill:none;stroke:#dd8452;stroke-dasharray:6,2.25;stroke-dashoffset:0;stroke-width:1.5;"/>
   </g>
   <g id="line2d_3">
    <path clip-path="url(#pb15eaa37d8)" d="M 134.975455 372.076454 
L 137.899145 374.193614 
L 140.822835 376.993546 
L 143.746525 371.908935 
L 146.670215 384.515733 
L 149.593905 384.337161 
L 152.517595 388.872867 
L 155.441285 418.610661 
L 158.364975 414.570795 
L 161.288665 405.92229 
L 164.212356 408.806874 
L 167.136046 395.66929 
L 170.059736 398.455791 
L 172.983426 414.025563 
L 175.907116 423.119957 
L 178.830806 447.012816 
L 181.754496 429.170574 
L 184.678186 335.540348 
L 187.601876 312.970797 
L 190.525567 372.882321 
L 193.449257 429.674354 
L 196.372947 399.059194 
L 199.296637 429.638815 
L 202.220327 409.112353 
L 205.144017 418.973997 
L 208.067707 316.988555 
L 210.991397 330.49007 
L 213.915087 313.054574 
L 216.838777 406.860731 
L 219.762468 428.78422 
L 225.609848 232.152911 
L 228.533538 267.949524 
L 231.457228 338.313416 
L 234.380918 284.867772 
L 237.304608 366.054731 
L 240.228298 472.312113 
L 243.151988 476.607612 
L 246.075678 332.770515 
L 248.999369 390.917303 
L 251.923059 420.227048 
L 254.846749 422.587073 
L 257.770439 399.941948 
L 260.694129 339.169042 
L 263.617819 453.346455 
L 266.541509 371.451923 
L 269.465199 358.726035 
L 272.388889 302.890476 
L 275.312579 311.439009 
L 278.23627 311.385297 
L 281.15996 259.651483 
L 284.08365 255.103936 
L 287.00734 256.495612 
L 289.93103 333.748607 
L 292.85472 391.137642 
L 298.7021 492.780438 
L 301.62579 481.532959 
L 304.549481 418.40288 
L 310.396861 380.702782 
L 313.320551 381.999628 
L 316.244241 447.780835 
L 319.167931 426.230232 
L 322.091621 486.054534 
L 325.015311 401.858218 
L 327.939001 424.964238 
L 330.862691 481.886641 
L 333.786382 448.866507 
L 336.710072 365.355692 
L 339.633762 371.428136 
L 342.557452 344.841736 
L 345.481142 385.346821 
L 348.404832 372.817469 
L 351.328522 444.759375 
L 354.252212 298.886937 
L 357.175902 323.532896 
L 360.099592 311.897018 
L 363.023283 404.410387 
L 365.946973 314.247581 
L 368.870663 316.958997 
L 371.794353 248.216495 
L 374.718043 338.725602 
L 377.641733 323.361897 
L 380.565423 365.482774 
L 383.489113 429.712448 
L 386.412803 438.794074 
L 389.336494 465.353068 
L 392.260184 452.325636 
L 395.183874 464.214996 
L 398.107564 387.091864 
L 401.031254 390.023741 
L 403.954944 352.658821 
L 406.878634 323.521877 
L 409.802324 394.714164 
L 412.726014 358.483922 
L 415.649704 332.354394 
L 418.573395 313.982748 
L 421.497085 256.983827 
L 424.420775 282.775623 
L 427.344465 279.82407 
L 430.268155 300.83224 
L 433.191845 284.842761 
L 436.115535 247.438051 
L 439.039225 325.46335 
L 441.962915 356.777007 
L 444.886605 329.577898 
L 447.810296 438.133653 
L 450.733986 432.308202 
L 453.657676 469.047262 
L 456.581366 400.877066 
L 459.505056 418.650223 
L 462.428746 373.490342 
L 465.352436 383.232985 
L 468.276126 337.944885 
L 471.199816 231.10472 
L 474.123506 271.580177 
L 477.047197 270.003545 
L 479.970887 344.047587 
L 482.894577 368.058101 
L 485.818267 362.257468 
L 488.741957 359.557753 
L 491.665647 362.785298 
L 494.589337 341.099899 
L 497.513027 345.430098 
L 500.436717 294.523104 
L 503.360408 386.318283 
L 506.284098 414.003141 
L 509.207788 345.016286 
L 512.131478 348.065853 
L 515.055168 391.996644 
L 517.978858 417.820079 
L 520.902548 449.463474 
L 523.826238 442.091421 
L 526.749928 420.547884 
L 529.673618 413.848984 
L 532.597309 447.942477 
L 535.520999 506.479519 
L 538.444689 400.484416 
L 541.368379 437.025419 
L 544.292069 486.691868 
L 547.215759 286.702591 
L 550.139449 271.714745 
L 553.063139 327.615123 
L 555.986829 299.610112 
L 558.910519 285.965827 
L 561.83421 285.647772 
L 564.7579 265.760551 
L 567.68159 224.740159 
L 570.60528 260.454832 
L 573.52897 370.66337 
L 576.45266 326.943071 
L 579.37635 408.003245 
L 582.30004 432.356055 
L 585.22373 421.324333 
L 588.147421 422.726888 
L 591.071111 434.104596 
L 593.994801 429.643852 
L 596.918491 391.823003 
L 599.842181 447.672188 
L 602.765871 535.47238 
L 605.689561 452.712164 
L 608.613251 453.889134 
L 611.536941 478.961795 
L 614.460631 384.488589 
L 617.384322 238.535749 
L 620.308012 279.933627 
L 623.231702 459.257887 
L 626.155392 565.133288 
L 629.079082 462.274135 
L 632.002772 447.160816 
L 634.926462 393.954855 
L 637.850152 311.837815 
L 640.773842 329.41351 
L 643.697532 367.91178 
L 646.621223 308.115724 
L 649.544913 258.664559 
L 652.468603 411.463249 
L 655.392293 424.582502 
L 658.315983 395.143577 
L 661.239673 450.195044 
L 664.163363 337.594456 
L 667.087053 379.758009 
L 670.010743 398.91882 
L 672.934433 331.717358 
L 675.858124 407.942205 
L 678.781814 385.613963 
L 681.705504 450.453371 
L 684.629194 464.156684 
L 687.552884 411.889584 
L 690.476574 502.181571 
L 693.400264 450.42007 
L 696.323954 427.056702 
L 699.247644 390.099193 
L 702.171335 384.60745 
L 705.095025 389.746001 
L 708.018715 389.165544 
L 710.942405 391.249752 
L 713.866095 387.399932 
L 716.789785 389.270938 
L 719.713475 388.393747 
L 722.637165 385.551489 
L 725.560855 390.096255 
L 728.484545 384.102096 
L 728.484545 384.102096 
" style="fill:none;stroke:#55a868;stroke-dasharray:1.5,1.5;stroke-dashoffset:0;stroke-width:1.5;"/>
   </g>
   <g id="line2d_4">
    <path clip-path="url(#pb15eaa37d8)" d="M 134.975455 372.707037 
L 137.899145 373.132638 
L 140.822835 375.335743 
L 143.746525 372.777627 
L 146.670215 378.234074 
L 149.593905 377.001732 
L 152.517595 377.523842 
L 155.441285 379.01717 
L 158.364975 377.301405 
L 161.288665 376.687647 
L 164.212356 377.819457 
L 167.136046 375.142199 
L 170.059736 392.173852 
L 172.983426 400.894346 
L 175.907116 411.598691 
L 178.830806 443.315509 
L 181.754496 443.011008 
L 184.678186 384.945916 
L 187.601876 321.193876 
L 190.525567 466.772658 
L 193.449257 441.907007 
L 196.372947 416.084866 
L 199.296637 463.950233 
L 202.220327 381.247454 
L 205.144017 397.863896 
L 208.067707 512.589251 
L 210.991397 355.099702 
L 213.915087 337.901527 
L 216.838777 452.266765 
L 219.762468 467.163523 
L 222.686158 360.438635 
L 225.609848 291.035414 
L 228.533538 318.527672 
L 231.457228 418.29857 
L 234.380918 280.854071 
L 237.304608 364.285429 
L 240.228298 457.407554 
L 243.151988 439.244091 
L 246.075678 337.71498 
L 248.999369 358.962675 
L 251.923059 428.68904 
L 254.846749 404.12775 
L 257.770439 407.321801 
L 260.694129 358.195233 
L 263.617819 468.610398 
L 266.541509 337.528746 
L 269.465199 309.843592 
L 272.388889 293.324203 
L 275.312579 292.993922 
L 278.23627 319.244813 
L 281.15996 326.498249 
L 284.08365 333.233912 
L 287.00734 385.051765 
L 289.93103 480.28722 
L 292.85472 471.414458 
L 295.77841 451.2386 
L 298.7021 498.762843 
L 301.62579 434.321122 
L 304.549481 417.989067 
L 307.473171 387.169695 
L 310.396861 363.365107 
L 313.320551 356.312474 
L 316.244241 426.970756 
L 319.167931 396.800331 
L 322.091621 500.056891 
L 325.015311 392.999553 
L 327.939001 413.254395 
L 330.862691 456.447005 
L 333.786382 421.676161 
L 336.710072 371.802456 
L 339.633762 378.439336 
L 342.557452 344.009109 
L 345.481142 358.550716 
L 348.404832 334.633616 
L 351.328522 388.00596 
L 354.252212 454.203988 
L 357.175902 228.976892 
L 360.099592 290.683324 
L 363.023283 433.120996 
L 365.946973 319.255219 
L 368.870663 295.129604 
L 371.794353 318.96583 
L 374.718043 337.087755 
L 377.641733 326.047655 
L 380.565423 393.288347 
L 383.489113 378.563795 
L 386.412803 422.93974 
L 389.336494 445.43015 
L 392.260184 420.400163 
L 395.183874 450.486882 
L 398.107564 366.960571 
L 401.031254 352.000184 
L 403.954944 348.937377 
L 406.878634 318.155555 
L 409.802324 336.063368 
L 412.726014 360.104682 
L 415.649704 411.641996 
L 418.573395 345.669361 
L 421.497085 381.509594 
L 424.420775 422.451806 
L 427.344465 348.729177 
L 430.268155 442.81638 
L 433.191845 464.539645 
L 436.115535 312.525153 
L 439.039225 370.91554 
L 441.962915 399.459994 
L 444.886605 373.705189 
L 447.810296 383.120279 
L 450.733986 425.487223 
L 453.657676 499.669208 
L 456.581366 397.332935 
L 459.505056 395.336456 
L 462.428746 391.734749 
L 465.352436 423.824033 
L 468.276126 367.094264 
L 471.199816 323.701954 
L 474.123506 339.093293 
L 477.047197 356.01852 
L 479.970887 291.808593 
L 482.894577 400.58152 
L 485.818267 415.961631 
L 488.741957 458.328155 
L 491.665647 394.783179 
L 494.589337 354.650193 
L 497.513027 458.025754 
L 500.436717 428.699044 
L 503.360408 380.447499 
L 506.284098 419.275489 
L 509.207788 440.673755 
L 512.131478 478.745864 
L 515.055168 519.712317 
L 517.978858 457.457505 
L 520.902548 491.859416 
L 523.826238 458.791919 
L 526.749928 390.434056 
L 529.673618 417.5054 
L 532.597309 455.802955 
L 535.520999 480.793379 
L 538.444689 440.709435 
L 541.368379 413.301548 
L 544.292069 469.178717 
L 547.215759 323.967731 
L 550.139449 364.047006 
L 553.063139 322.026643 
L 555.986829 320.083649 
L 558.910519 330.862169 
L 561.83421 332.460506 
L 564.7579 366.968966 
L 567.68159 292.231098 
L 570.60528 410.692886 
L 573.52897 336.241241 
L 576.45266 359.181334 
L 579.37635 357.368395 
L 582.30004 323.838201 
L 585.22373 414.346224 
L 588.147421 363.876251 
L 591.071111 378.069913 
L 593.994801 453.057626 
L 596.918491 381.533135 
L 599.842181 386.251437 
L 602.765871 460.831353 
L 605.689561 413.009746 
L 608.613251 457.191028 
L 611.536941 484.297527 
L 614.460631 421.196796 
L 617.384322 275.70055 
L 620.308012 305.903699 
L 623.231702 459.844185 
L 626.155392 544.439098 
L 629.079082 468.633939 
L 634.926462 386.295372 
L 637.850152 340.142673 
L 640.773842 359.6593 
L 643.697532 302.953072 
L 646.621223 309.530994 
L 649.544913 304.791967 
L 652.468603 438.774241 
L 655.392293 445.772253 
L 658.315983 379.445604 
L 661.239673 443.300152 
L 664.163363 316.178018 
L 667.087053 351.73278 
L 670.010743 389.681078 
L 672.934433 349.01024 
L 675.858124 375.09683 
L 678.781814 370.145737 
L 681.705504 431.485929 
L 684.629194 450.376345 
L 687.552884 406.25271 
L 690.476574 516.486609 
L 693.400264 448.43461 
L 696.323954 424.588449 
L 699.247644 387.423999 
L 702.171335 377.955564 
L 705.095025 391.744858 
L 708.018715 390.849092 
L 710.942405 389.69437 
L 713.866095 384.761047 
L 716.789785 387.361455 
L 719.713475 388.321723 
L 722.637165 383.427718 
L 725.560855 389.102545 
L 728.484545 382.312768 
L 728.484545 382.312768 
" style="fill:none;stroke:#c44e52;stroke-dasharray:4.5,1.875,2.25,1.875;stroke-dashoffset:0;stroke-width:1.5;"/>
   </g>
   <g id="line2d_5">
    <path clip-path="url(#pb15eaa37d8)" d="M 134.975455 372.446821 
L 137.899145 372.941437 
L 140.822835 375.057513 
L 143.746525 373.138969 
L 146.670215 377.907537 
L 149.593905 377.374058 
L 152.517595 378.464382 
L 155.441285 380.039738 
L 158.364975 378.231591 
L 161.288665 377.961056 
L 164.212356 378.446542 
L 167.136046 374.973491 
L 170.059736 392.250773 
L 172.983426 400.822497 
L 175.907116 411.411373 
L 178.830806 443.876482 
L 181.754496 453.448527 
L 184.678186 386.060586 
L 187.601876 335.352138 
L 190.525567 471.189362 
L 193.449257 454.119616 
L 196.372947 428.184175 
L 199.296637 480.885866 
L 202.220327 389.632806 
L 205.144017 403.170034 
L 208.067707 525.608288 
L 210.991397 358.664908 
L 213.915087 321.507489 
L 216.838777 450.029449 
L 219.762468 463.015535 
L 222.686158 364.746639 
L 225.609848 314.618963 
L 228.533538 331.372141 
L 231.457228 420.947634 
L 234.380918 283.280173 
L 237.304608 364.554879 
L 240.228298 457.988046 
L 243.151988 439.46352 
L 246.075678 336.816328 
L 248.999369 356.470583 
L 251.923059 441.90253 
L 254.846749 409.1183 
L 257.770439 413.079181 
L 260.694129 352.800892 
L 263.617819 464.12174 
L 266.541509 338.209613 
L 269.465199 313.54905 
L 272.388889 294.828024 
L 275.312579 293.972048 
L 278.23627 325.445248 
L 281.15996 343.122718 
L 284.08365 345.549852 
L 287.00734 389.708292 
L 289.93103 482.798708 
L 292.85472 478.054836 
L 295.77841 454.568129 
L 298.7021 494.48424 
L 301.62579 433.491328 
L 304.549481 415.040435 
L 307.473171 386.752664 
L 310.396861 376.855376 
L 313.320551 364.064793 
L 316.244241 423.812105 
L 319.167931 401.727603 
L 322.091621 490.470224 
L 325.015311 398.879712 
L 327.939001 406.267611 
L 330.862691 459.528771 
L 333.786382 442.864093 
L 336.710072 343.230491 
L 339.633762 353.368756 
L 342.557452 331.719876 
L 345.481142 374.318457 
L 348.404832 286.806027 
L 351.328522 247.525589 
L 354.252212 356.919672 
L 357.175902 385.741465 
L 360.099592 353.168986 
L 363.023283 472.211301 
L 365.946973 380.935084 
L 368.870663 366.199758 
L 371.794353 368.527217 
L 374.718043 401.582856 
L 377.641733 425.195071 
L 380.565423 453.651165 
L 383.489113 451.366837 
L 386.412803 426.377987 
L 389.336494 455.275353 
L 392.260184 454.953782 
L 395.183874 479.703405 
L 398.107564 375.648429 
L 401.031254 394.848242 
L 403.954944 358.428724 
L 406.878634 346.288068 
L 409.802324 379.996817 
L 412.726014 392.485978 
L 415.649704 441.969341 
L 418.573395 347.201411 
L 421.497085 391.278856 
L 424.420775 424.757857 
L 427.344465 361.322962 
L 430.268155 444.761508 
L 433.191845 480.115503 
L 436.115535 319.267007 
L 439.039225 376.082459 
L 441.962915 410.424135 
L 444.886605 385.735308 
L 447.810296 393.206354 
L 450.733986 430.034263 
L 453.657676 496.756465 
L 456.581366 408.075408 
L 459.505056 385.953863 
L 462.428746 390.20931 
L 465.352436 424.715216 
L 468.276126 381.399932 
L 471.199816 345.325823 
L 474.123506 362.726934 
L 477.047197 356.598067 
L 479.970887 305.773713 
L 482.894577 409.719954 
L 485.818267 423.671905 
L 488.741957 453.508692 
L 491.665647 399.096658 
L 494.589337 359.560464 
L 497.513027 463.623556 
L 500.436717 426.877955 
L 503.360408 377.374967 
L 506.284098 422.305065 
L 509.207788 448.135112 
L 512.131478 485.762626 
L 515.055168 519.043956 
L 517.978858 459.091592 
L 520.902548 499.026487 
L 523.826238 458.120025 
L 526.749928 381.301603 
L 529.673618 410.836968 
L 532.597309 436.066095 
L 535.520999 468.751927 
L 538.444689 421.806881 
L 541.368379 411.237488 
L 544.292069 470.370203 
L 547.215759 314.046517 
L 550.139449 359.593188 
L 553.063139 267.0589 
L 555.986829 345.29658 
L 558.910519 266.414413 
L 561.83421 235.809799 
L 564.7579 330.570226 
L 567.68159 341.388606 
L 570.60528 361.823018 
L 573.52897 342.912943 
L 576.45266 426.011047 
L 579.37635 396.246949 
L 582.30004 349.290132 
L 585.22373 418.6731 
L 588.147421 384.692417 
L 591.071111 379.74846 
L 593.994801 436.516881 
L 596.918491 375.551219 
L 599.842181 365.140915 
L 602.765871 458.006585 
L 605.689561 415.064711 
L 608.613251 448.197061 
L 611.536941 467.875085 
L 614.460631 424.289825 
L 617.384322 279.786064 
L 620.308012 302.897647 
L 623.231702 443.418909 
L 626.155392 534.181481 
L 629.079082 470.961923 
L 632.002772 419.901245 
L 634.926462 385.028364 
L 637.850152 334.764633 
L 640.773842 363.134415 
L 643.697532 286.97122 
L 646.621223 285.193225 
L 649.544913 289.530315 
L 652.468603 412.450067 
L 655.392293 418.997399 
L 658.315983 367.612387 
L 661.239673 430.407638 
L 664.163363 309.773335 
L 670.010743 386.408497 
L 672.934433 364.354462 
L 675.858124 372.962041 
L 678.781814 356.251259 
L 681.705504 433.405138 
L 684.629194 439.57703 
L 687.552884 394.761806 
L 690.476574 490.787947 
L 693.400264 430.176981 
L 696.323954 412.273733 
L 699.247644 381.653326 
L 702.171335 373.898838 
L 705.095025 387.031489 
L 708.018715 388.679918 
L 710.942405 386.529072 
L 713.866095 382.350721 
L 716.789785 382.938174 
L 719.713475 384.452839 
L 722.637165 380.047468 
L 725.560855 386.317024 
L 728.484545 379.246008 
L 728.484545 379.246008 
" style="fill:none;stroke:#8172b3;stroke-dasharray:7.5,1.5,1.5,1.5;stroke-dashoffset:0;stroke-width:1.5;"/>
   </g>
   <g id="line2d_6"/>
   <g id="line2d_7"/>
   <g id="line2d_8"/>
   <g id="line2d_9"/>
   <g id="line2d_10"/>
   <g id="patch_3">
    <path d="M 105.3 529.9416 
L 105.3 71.4528 
" style="fill:none;stroke:#262626;stroke-linecap:square;stroke-linejoin:miter;stroke-width:1.25;"/>
   </g>
   <g id="patch_4">
    <path d="M 758.16 529.9416 
L 758.16 71.4528 
" style="fill:none;stroke:#262626;stroke-linecap:square;stroke-linejoin:miter;stroke-width:1.25;"/>
   </g>
   <g id="patch_5">
    <path d="M 105.3 529.9416 
L 758.16 529.9416 
" style="fill:none;stroke:#262626;stroke-linecap:square;stroke-linejoin:miter;stroke-width:1.25;"/>
   </g>
   <g id="patch_6">
    <path d="M 105.3 71.4528 
L 758.16 71.4528 
" style="fill:none;stroke:#262626;stroke-linecap:square;stroke-linejoin:miter;stroke-width:1.25;"/>
   </g>
   <g id="text_16">
    <!-- Activations for &gt;V&lt; -->
    <g style="fill:#262626;" transform="translate(381.372187 65.4528)scale(0.12 -0.12)">
     <defs>
      <path d="M -9 0 
L 1750 4581 
L 2403 4581 
L 4278 0 
L 3588 0 
L 3053 1388 
L 1138 1388 
L 634 0 
L -9 0 
z
M 1313 1881 
L 2866 1881 
L 2388 3150 
Q 2169 3728 2063 4100 
Q 1975 3659 1816 3225 
L 1313 1881 
z
" id="ArialMT-41" transform="scale(0.015625)"/>
      <path d="M 2588 1216 
L 3141 1144 
Q 3050 572 2676 248 
Q 2303 -75 1759 -75 
Q 1078 -75 664 370 
Q 250 816 250 1647 
Q 250 2184 428 2587 
Q 606 2991 970 3192 
Q 1334 3394 1763 3394 
Q 2303 3394 2647 3120 
Q 2991 2847 3088 2344 
L 2541 2259 
Q 2463 2594 2264 2762 
Q 2066 2931 1784 2931 
Q 1359 2931 1093 2626 
Q 828 2322 828 1663 
Q 828 994 1084 691 
Q 1341 388 1753 388 
Q 2084 388 2306 591 
Q 2528 794 2588 1216 
z
" id="ArialMT-63" transform="scale(0.015625)"/>
      <path d="M 1650 503 
L 1731 6 
Q 1494 -44 1306 -44 
Q 1000 -44 831 53 
Q 663 150 594 308 
Q 525 466 525 972 
L 525 2881 
L 113 2881 
L 113 3319 
L 525 3319 
L 525 4141 
L 1084 4478 
L 1084 3319 
L 1650 3319 
L 1650 2881 
L 1084 2881 
L 1084 941 
Q 1084 700 1114 631 
Q 1144 563 1211 522 
Q 1278 481 1403 481 
Q 1497 481 1650 503 
z
" id="ArialMT-74" transform="scale(0.015625)"/>
      <path d="M 425 3934 
L 425 4581 
L 988 4581 
L 988 3934 
L 425 3934 
z
M 425 0 
L 425 3319 
L 988 3319 
L 988 0 
L 425 0 
z
" id="ArialMT-69" transform="scale(0.015625)"/>
      <path d="M 1344 0 
L 81 3319 
L 675 3319 
L 1388 1331 
Q 1503 1009 1600 663 
Q 1675 925 1809 1294 
L 2547 3319 
L 3125 3319 
L 1869 0 
L 1344 0 
z
" id="ArialMT-76" transform="scale(0.015625)"/>
      <path d="M 2588 409 
Q 2275 144 1986 34 
Q 1697 -75 1366 -75 
Q 819 -75 525 192 
Q 231 459 231 875 
Q 231 1119 342 1320 
Q 453 1522 633 1644 
Q 813 1766 1038 1828 
Q 1203 1872 1538 1913 
Q 2219 1994 2541 2106 
Q 2544 2222 2544 2253 
Q 2544 2597 2384 2738 
Q 2169 2928 1744 2928 
Q 1347 2928 1158 2789 
Q 969 2650 878 2297 
L 328 2372 
Q 403 2725 575 2942 
Q 747 3159 1072 3276 
Q 1397 3394 1825 3394 
Q 2250 3394 2515 3294 
Q 2781 3194 2906 3042 
Q 3031 2891 3081 2659 
Q 3109 2516 3109 2141 
L 3109 1391 
Q 3109 606 3145 398 
Q 3181 191 3288 0 
L 2700 0 
Q 2613 175 2588 409 
z
M 2541 1666 
Q 2234 1541 1622 1453 
Q 1275 1403 1131 1340 
Q 988 1278 909 1158 
Q 831 1038 831 891 
Q 831 666 1001 516 
Q 1172 366 1500 366 
Q 1825 366 2078 508 
Q 2331 650 2450 897 
Q 2541 1088 2541 1459 
L 2541 1666 
z
" id="ArialMT-61" transform="scale(0.015625)"/>
      <path d="M 213 1659 
Q 213 2581 725 3025 
Q 1153 3394 1769 3394 
Q 2453 3394 2887 2945 
Q 3322 2497 3322 1706 
Q 3322 1066 3130 698 
Q 2938 331 2570 128 
Q 2203 -75 1769 -75 
Q 1072 -75 642 372 
Q 213 819 213 1659 
z
M 791 1659 
Q 791 1022 1069 705 
Q 1347 388 1769 388 
Q 2188 388 2466 706 
Q 2744 1025 2744 1678 
Q 2744 2294 2464 2611 
Q 2184 2928 1769 2928 
Q 1347 2928 1069 2612 
Q 791 2297 791 1659 
z
" id="ArialMT-6f" transform="scale(0.015625)"/>
      <path d="M 422 0 
L 422 3319 
L 928 3319 
L 928 2847 
Q 1294 3394 1984 3394 
Q 2284 3394 2536 3286 
Q 2788 3178 2913 3003 
Q 3038 2828 3088 2588 
Q 3119 2431 3119 2041 
L 3119 0 
L 2556 0 
L 2556 2019 
Q 2556 2363 2490 2533 
Q 2425 2703 2258 2804 
Q 2091 2906 1866 2906 
Q 1506 2906 1245 2678 
Q 984 2450 984 1813 
L 984 0 
L 422 0 
z
" id="ArialMT-6e" transform="scale(0.015625)"/>
      <path d="M 197 991 
L 753 1078 
Q 800 744 1014 566 
Q 1228 388 1613 388 
Q 2000 388 2187 545 
Q 2375 703 2375 916 
Q 2375 1106 2209 1216 
Q 2094 1291 1634 1406 
Q 1016 1563 777 1677 
Q 538 1791 414 1992 
Q 291 2194 291 2438 
Q 291 2659 392 2848 
Q 494 3038 669 3163 
Q 800 3259 1026 3326 
Q 1253 3394 1513 3394 
Q 1903 3394 2198 3281 
Q 2494 3169 2634 2976 
Q 2775 2784 2828 2463 
L 2278 2388 
Q 2241 2644 2061 2787 
Q 1881 2931 1553 2931 
Q 1166 2931 1000 2803 
Q 834 2675 834 2503 
Q 834 2394 903 2306 
Q 972 2216 1119 2156 
Q 1203 2125 1616 2013 
Q 2213 1853 2448 1751 
Q 2684 1650 2818 1456 
Q 2953 1263 2953 975 
Q 2953 694 2789 445 
Q 2625 197 2315 61 
Q 2006 -75 1616 -75 
Q 969 -75 630 194 
Q 291 463 197 991 
z
" id="ArialMT-73" transform="scale(0.015625)"/>
      <path id="ArialMT-20" transform="scale(0.015625)"/>
      <path d="M 556 0 
L 556 2881 
L 59 2881 
L 59 3319 
L 556 3319 
L 556 3672 
Q 556 4006 616 4169 
Q 697 4388 901 4523 
Q 1106 4659 1475 4659 
Q 1713 4659 2000 4603 
L 1916 4113 
Q 1741 4144 1584 4144 
Q 1328 4144 1222 4034 
Q 1116 3925 1116 3625 
L 1116 3319 
L 1763 3319 
L 1763 2881 
L 1116 2881 
L 1116 0 
L 556 0 
z
" id="ArialMT-66" transform="scale(0.015625)"/>
      <path d="M 416 0 
L 416 3319 
L 922 3319 
L 922 2816 
Q 1116 3169 1280 3281 
Q 1444 3394 1641 3394 
Q 1925 3394 2219 3213 
L 2025 2691 
Q 1819 2813 1613 2813 
Q 1428 2813 1281 2702 
Q 1134 2591 1072 2394 
Q 978 2094 978 1738 
L 978 0 
L 416 0 
z
" id="ArialMT-72" transform="scale(0.015625)"/>
      <path d="M 3384 2003 
L 350 706 
L 350 1266 
L 2753 2263 
L 350 3250 
L 350 3809 
L 3384 2528 
L 3384 2003 
z
" id="ArialMT-3e" transform="scale(0.015625)"/>
      <path d="M 1803 0 
L 28 4581 
L 684 4581 
L 1875 1253 
Q 2019 853 2116 503 
Q 2222 878 2363 1253 
L 3600 4581 
L 4219 4581 
L 2425 0 
L 1803 0 
z
" id="ArialMT-56" transform="scale(0.015625)"/>
      <path d="M 350 2003 
L 350 2528 
L 3384 3809 
L 3384 3250 
L 978 2263 
L 3384 1266 
L 3384 706 
L 350 2003 
z
" id="ArialMT-3c" transform="scale(0.015625)"/>
     </defs>
     <use xlink:href="#ArialMT-41"/>
     <use x="66.699219" xlink:href="#ArialMT-63"/>
     <use x="116.699219" xlink:href="#ArialMT-74"/>
     <use x="144.482422" xlink:href="#ArialMT-69"/>
     <use x="166.699219" xlink:href="#ArialMT-76"/>
     <use x="216.699219" xlink:href="#ArialMT-61"/>
     <use x="272.314453" xlink:href="#ArialMT-74"/>
     <use x="300.097656" xlink:href="#ArialMT-69"/>
     <use x="322.314453" xlink:href="#ArialMT-6f"/>
     <use x="377.929688" xlink:href="#ArialMT-6e"/>
     <use x="433.544922" xlink:href="#ArialMT-73"/>
     <use x="483.544922" xlink:href="#ArialMT-20"/>
     <use x="511.328125" xlink:href="#ArialMT-66"/>
     <use x="539.111328" xlink:href="#ArialMT-6f"/>
     <use x="594.726562" xlink:href="#ArialMT-72"/>
     <use x="628.027344" xlink:href="#ArialMT-20"/>
     <use x="655.810547" xlink:href="#ArialMT-3e"/>
     <use x="714.208984" xlink:href="#ArialMT-56"/>
     <use x="780.908203" xlink:href="#ArialMT-3c"/>
    </g>
   </g>
   <g id="legend_1">
    <g id="patch_7">
     <path d="M 640.044062 158.514363 
L 750.46 158.514363 
Q 752.66 158.514363 752.66 156.314363 
L 752.66 79.1528 
Q 752.66 76.9528 750.46 76.9528 
L 640.044062 76.9528 
Q 637.844062 76.9528 637.844062 79.1528 
L 637.844062 156.314363 
Q 637.844062 158.514363 640.044062 158.514363 
z
" style="fill:#ffffff;opacity:0.8;stroke:#cccccc;stroke-linejoin:miter;"/>
    </g>
    <g id="line2d_11">
     <path d="M 642.244062 85.376394 
L 664.244062 85.376394 
" style="fill:none;stroke:#4c72b0;stroke-linecap:round;stroke-width:1.5;"/>
    </g>
    <g id="line2d_12"/>
    <g id="text_17">
     <!-- regular -->
     <g style="fill:#262626;" transform="translate(673.044062 89.226394)scale(0.11 -0.11)">
      <defs>
       <path d="M 2694 1069 
L 3275 997 
Q 3138 488 2766 206 
Q 2394 -75 1816 -75 
Q 1088 -75 661 373 
Q 234 822 234 1631 
Q 234 2469 665 2931 
Q 1097 3394 1784 3394 
Q 2450 3394 2872 2941 
Q 3294 2488 3294 1666 
Q 3294 1616 3291 1516 
L 816 1516 
Q 847 969 1125 678 
Q 1403 388 1819 388 
Q 2128 388 2347 550 
Q 2566 713 2694 1069 
z
M 847 1978 
L 2700 1978 
Q 2663 2397 2488 2606 
Q 2219 2931 1791 2931 
Q 1403 2931 1139 2672 
Q 875 2413 847 1978 
z
" id="ArialMT-65" transform="scale(0.015625)"/>
       <path d="M 319 -275 
L 866 -356 
Q 900 -609 1056 -725 
Q 1266 -881 1628 -881 
Q 2019 -881 2231 -725 
Q 2444 -569 2519 -288 
Q 2563 -116 2559 434 
Q 2191 0 1641 0 
Q 956 0 581 494 
Q 206 988 206 1678 
Q 206 2153 378 2554 
Q 550 2956 876 3175 
Q 1203 3394 1644 3394 
Q 2231 3394 2613 2919 
L 2613 3319 
L 3131 3319 
L 3131 450 
Q 3131 -325 2973 -648 
Q 2816 -972 2473 -1159 
Q 2131 -1347 1631 -1347 
Q 1038 -1347 672 -1080 
Q 306 -813 319 -275 
z
M 784 1719 
Q 784 1066 1043 766 
Q 1303 466 1694 466 
Q 2081 466 2343 764 
Q 2606 1063 2606 1700 
Q 2606 2309 2336 2618 
Q 2066 2928 1684 2928 
Q 1309 2928 1046 2623 
Q 784 2319 784 1719 
z
" id="ArialMT-67" transform="scale(0.015625)"/>
       <path d="M 2597 0 
L 2597 488 
Q 2209 -75 1544 -75 
Q 1250 -75 995 37 
Q 741 150 617 320 
Q 494 491 444 738 
Q 409 903 409 1263 
L 409 3319 
L 972 3319 
L 972 1478 
Q 972 1038 1006 884 
Q 1059 663 1231 536 
Q 1403 409 1656 409 
Q 1909 409 2131 539 
Q 2353 669 2445 892 
Q 2538 1116 2538 1541 
L 2538 3319 
L 3100 3319 
L 3100 0 
L 2597 0 
z
" id="ArialMT-75" transform="scale(0.015625)"/>
       <path d="M 409 0 
L 409 4581 
L 972 4581 
L 972 0 
L 409 0 
z
" id="ArialMT-6c" transform="scale(0.015625)"/>
      </defs>
      <use xlink:href="#ArialMT-72"/>
      <use x="33.300781" xlink:href="#ArialMT-65"/>
      <use x="88.916016" xlink:href="#ArialMT-67"/>
      <use x="144.53125" xlink:href="#ArialMT-75"/>
      <use x="200.146484" xlink:href="#ArialMT-6c"/>
      <use x="222.363281" xlink:href="#ArialMT-61"/>
      <use x="277.978516" xlink:href="#ArialMT-72"/>
     </g>
    </g>
    <g id="line2d_13">
     <path d="M 642.244062 101.0978 
L 664.244062 101.0978 
" style="fill:none;stroke:#dd8452;stroke-dasharray:6,2.25;stroke-dashoffset:0;stroke-width:1.5;"/>
    </g>
    <g id="line2d_14"/>
    <g id="text_18">
     <!-- splitted_3s -->
     <g style="fill:#262626;" transform="translate(673.044062 104.9478)scale(0.11 -0.11)">
      <defs>
       <path d="M 422 -1272 
L 422 3319 
L 934 3319 
L 934 2888 
Q 1116 3141 1344 3267 
Q 1572 3394 1897 3394 
Q 2322 3394 2647 3175 
Q 2972 2956 3137 2557 
Q 3303 2159 3303 1684 
Q 3303 1175 3120 767 
Q 2938 359 2589 142 
Q 2241 -75 1856 -75 
Q 1575 -75 1351 44 
Q 1128 163 984 344 
L 984 -1272 
L 422 -1272 
z
M 931 1641 
Q 931 1000 1190 694 
Q 1450 388 1819 388 
Q 2194 388 2461 705 
Q 2728 1022 2728 1688 
Q 2728 2322 2467 2637 
Q 2206 2953 1844 2953 
Q 1484 2953 1207 2617 
Q 931 2281 931 1641 
z
" id="ArialMT-70" transform="scale(0.015625)"/>
       <path d="M 2575 0 
L 2575 419 
Q 2259 -75 1647 -75 
Q 1250 -75 917 144 
Q 584 363 401 755 
Q 219 1147 219 1656 
Q 219 2153 384 2558 
Q 550 2963 881 3178 
Q 1213 3394 1622 3394 
Q 1922 3394 2156 3267 
Q 2391 3141 2538 2938 
L 2538 4581 
L 3097 4581 
L 3097 0 
L 2575 0 
z
M 797 1656 
Q 797 1019 1065 703 
Q 1334 388 1700 388 
Q 2069 388 2326 689 
Q 2584 991 2584 1609 
Q 2584 2291 2321 2609 
Q 2059 2928 1675 2928 
Q 1300 2928 1048 2622 
Q 797 2316 797 1656 
z
" id="ArialMT-64" transform="scale(0.015625)"/>
       <path d="M -97 -1272 
L -97 -866 
L 3631 -866 
L 3631 -1272 
L -97 -1272 
z
" id="ArialMT-5f" transform="scale(0.015625)"/>
       <path d="M 269 1209 
L 831 1284 
Q 928 806 1161 595 
Q 1394 384 1728 384 
Q 2125 384 2398 659 
Q 2672 934 2672 1341 
Q 2672 1728 2419 1979 
Q 2166 2231 1775 2231 
Q 1616 2231 1378 2169 
L 1441 2663 
Q 1497 2656 1531 2656 
Q 1891 2656 2178 2843 
Q 2466 3031 2466 3422 
Q 2466 3731 2256 3934 
Q 2047 4138 1716 4138 
Q 1388 4138 1169 3931 
Q 950 3725 888 3313 
L 325 3413 
Q 428 3978 793 4289 
Q 1159 4600 1703 4600 
Q 2078 4600 2393 4439 
Q 2709 4278 2876 4000 
Q 3044 3722 3044 3409 
Q 3044 3113 2884 2869 
Q 2725 2625 2413 2481 
Q 2819 2388 3044 2092 
Q 3269 1797 3269 1353 
Q 3269 753 2831 336 
Q 2394 -81 1725 -81 
Q 1122 -81 723 278 
Q 325 638 269 1209 
z
" id="ArialMT-33" transform="scale(0.015625)"/>
      </defs>
      <use xlink:href="#ArialMT-73"/>
      <use x="50" xlink:href="#ArialMT-70"/>
      <use x="105.615234" xlink:href="#ArialMT-6c"/>
      <use x="127.832031" xlink:href="#ArialMT-69"/>
      <use x="150.048828" xlink:href="#ArialMT-74"/>
      <use x="177.832031" xlink:href="#ArialMT-74"/>
      <use x="205.615234" xlink:href="#ArialMT-65"/>
      <use x="261.230469" xlink:href="#ArialMT-64"/>
      <use x="316.845703" xlink:href="#ArialMT-5f"/>
      <use x="372.460938" xlink:href="#ArialMT-33"/>
      <use x="428.076172" xlink:href="#ArialMT-73"/>
     </g>
    </g>
    <g id="line2d_15">
     <path d="M 642.244062 116.6903 
L 664.244062 116.6903 
" style="fill:none;stroke:#55a868;stroke-dasharray:1.5,1.5;stroke-dashoffset:0;stroke-width:1.5;"/>
    </g>
    <g id="line2d_16"/>
    <g id="text_19">
     <!-- splitted_1s -->
     <g style="fill:#262626;" transform="translate(673.044062 120.5403)scale(0.11 -0.11)">
      <use xlink:href="#ArialMT-73"/>
      <use x="50" xlink:href="#ArialMT-70"/>
      <use x="105.615234" xlink:href="#ArialMT-6c"/>
      <use x="127.832031" xlink:href="#ArialMT-69"/>
      <use x="150.048828" xlink:href="#ArialMT-74"/>
      <use x="177.832031" xlink:href="#ArialMT-74"/>
      <use x="205.615234" xlink:href="#ArialMT-65"/>
      <use x="261.230469" xlink:href="#ArialMT-64"/>
      <use x="316.845703" xlink:href="#ArialMT-5f"/>
      <use x="372.460938" xlink:href="#ArialMT-31"/>
      <use x="428.076172" xlink:href="#ArialMT-73"/>
     </g>
    </g>
    <g id="line2d_17">
     <path d="M 642.244062 132.384206 
L 664.244062 132.384206 
" style="fill:none;stroke:#c44e52;stroke-dasharray:4.5,1.875,2.25,1.875;stroke-dashoffset:0;stroke-width:1.5;"/>
    </g>
    <g id="line2d_18"/>
    <g id="text_20">
     <!-- overlap_1f_3s -->
     <g style="fill:#262626;" transform="translate(673.044062 136.234206)scale(0.11 -0.11)">
      <use xlink:href="#ArialMT-6f"/>
      <use x="55.615234" xlink:href="#ArialMT-76"/>
      <use x="105.615234" xlink:href="#ArialMT-65"/>
      <use x="161.230469" xlink:href="#ArialMT-72"/>
      <use x="194.53125" xlink:href="#ArialMT-6c"/>
      <use x="216.748047" xlink:href="#ArialMT-61"/>
      <use x="272.363281" xlink:href="#ArialMT-70"/>
      <use x="327.978516" xlink:href="#ArialMT-5f"/>
      <use x="383.59375" xlink:href="#ArialMT-31"/>
      <use x="439.208984" xlink:href="#ArialMT-66"/>
      <use x="466.992188" xlink:href="#ArialMT-5f"/>
      <use x="522.607422" xlink:href="#ArialMT-33"/>
      <use x="578.222656" xlink:href="#ArialMT-73"/>
     </g>
    </g>
    <g id="line2d_19">
     <path d="M 642.244062 148.078113 
L 664.244062 148.078113 
" style="fill:none;stroke:#8172b3;stroke-dasharray:7.5,1.5,1.5,1.5;stroke-dashoffset:0;stroke-width:1.5;"/>
    </g>
    <g id="line2d_20"/>
    <g id="text_21">
     <!-- overlap_10f_3s -->
     <g style="fill:#262626;" transform="translate(673.044062 151.928112)scale(0.11 -0.11)">
      <use xlink:href="#ArialMT-6f"/>
      <use x="55.615234" xlink:href="#ArialMT-76"/>
      <use x="105.615234" xlink:href="#ArialMT-65"/>
      <use x="161.230469" xlink:href="#ArialMT-72"/>
      <use x="194.53125" xlink:href="#ArialMT-6c"/>
      <use x="216.748047" xlink:href="#ArialMT-61"/>
      <use x="272.363281" xlink:href="#ArialMT-70"/>
      <use x="327.978516" xlink:href="#ArialMT-5f"/>
      <use x="383.59375" xlink:href="#ArialMT-31"/>
      <use x="439.208984" xlink:href="#ArialMT-30"/>
      <use x="494.824219" xlink:href="#ArialMT-66"/>
      <use x="522.607422" xlink:href="#ArialMT-5f"/>
      <use x="578.222656" xlink:href="#ArialMT-33"/>
      <use x="633.837891" xlink:href="#ArialMT-73"/>
     </g>
    </g>
   </g>
  </g>
 </g>
 <defs>
  <clipPath id="pb15eaa37d8">
   <rect height="458.4888" width="652.86" x="105.3" y="71.4528"/>
  </clipPath>
 </defs>
</svg>
