<?xml version="1.0" encoding="utf-8" standalone="no"?>
<!DOCTYPE svg PUBLIC "-//W3C//DTD SVG 1.1//EN"
  "http://www.w3.org/Graphics/SVG/1.1/DTD/svg11.dtd">
<svg height="595.44pt" version="1.1" viewBox="0 0 842.4 595.44" width="842.4pt" xmlns="http://www.w3.org/2000/svg" xmlns:xlink="http://www.w3.org/1999/xlink">
 <metadata>
  <rdf:RDF xmlns:cc="http://creativecommons.org/ns#" xmlns:dc="http://purl.org/dc/elements/1.1/" xmlns:rdf="http://www.w3.org/1999/02/22-rdf-syntax-ns#">
   <cc:Work>
    <dc:type rdf:resource="http://purl.org/dc/dcmitype/StillImage"/>
    <dc:date>2021-06-04T22:03:20.558991</dc:date>
    <dc:format>image/svg+xml</dc:format>
    <dc:creator>
     <cc:Agent>
      <dc:title>Matplotlib v3.4.1, https://matplotlib.org/</dc:title>
     </cc:Agent>
    </dc:creator>
   </cc:Work>
  </rdf:RDF>
 </metadata>
 <defs>
  <style type="text/css">*{stroke-linecap:butt;stroke-linejoin:round;}</style>
 </defs>
 <g id="figure_1">
  <g id="patch_1">
   <path d="M 0 595.44 
L 842.4 595.44 
L 842.4 0 
L 0 0 
z
" style="fill:#ffffff;"/>
  </g>
  <g id="axes_1">
   <g id="patch_2">
    <path d="M 105.3 529.9416 
L 758.16 529.9416 
L 758.16 71.4528 
L 105.3 71.4528 
z
" style="fill:#ffffff;"/>
   </g>
   <g id="matplotlib.axis_1">
    <g id="xtick_1">
     <g id="text_1">
      <!-- 0 -->
      <g style="fill:#262626;" transform="translate(131.916939 547.315194)scale(0.11 -0.11)">
       <defs>
        <path d="M 266 2259 
Q 266 3072 433 3567 
Q 600 4063 929 4331 
Q 1259 4600 1759 4600 
Q 2128 4600 2406 4451 
Q 2684 4303 2865 4023 
Q 3047 3744 3150 3342 
Q 3253 2941 3253 2259 
Q 3253 1453 3087 958 
Q 2922 463 2592 192 
Q 2263 -78 1759 -78 
Q 1097 -78 719 397 
Q 266 969 266 2259 
z
M 844 2259 
Q 844 1131 1108 757 
Q 1372 384 1759 384 
Q 2147 384 2411 759 
Q 2675 1134 2675 2259 
Q 2675 3391 2411 3762 
Q 2147 4134 1753 4134 
Q 1366 4134 1134 3806 
Q 844 3388 844 2259 
z
" id="ArialMT-30" transform="scale(0.015625)"/>
       </defs>
       <use xlink:href="#ArialMT-30"/>
      </g>
     </g>
    </g>
    <g id="xtick_2">
     <g id="text_2">
      <!-- 25 -->
      <g style="fill:#262626;" transform="translate(201.950676 547.315194)scale(0.11 -0.11)">
       <defs>
        <path d="M 3222 541 
L 3222 0 
L 194 0 
Q 188 203 259 391 
Q 375 700 629 1000 
Q 884 1300 1366 1694 
Q 2113 2306 2375 2664 
Q 2638 3022 2638 3341 
Q 2638 3675 2398 3904 
Q 2159 4134 1775 4134 
Q 1369 4134 1125 3890 
Q 881 3647 878 3216 
L 300 3275 
Q 359 3922 746 4261 
Q 1134 4600 1788 4600 
Q 2447 4600 2831 4234 
Q 3216 3869 3216 3328 
Q 3216 3053 3103 2787 
Q 2991 2522 2730 2228 
Q 2469 1934 1863 1422 
Q 1356 997 1212 845 
Q 1069 694 975 541 
L 3222 541 
z
" id="ArialMT-32" transform="scale(0.015625)"/>
        <path d="M 266 1200 
L 856 1250 
Q 922 819 1161 601 
Q 1400 384 1738 384 
Q 2144 384 2425 690 
Q 2706 997 2706 1503 
Q 2706 1984 2436 2262 
Q 2166 2541 1728 2541 
Q 1456 2541 1237 2417 
Q 1019 2294 894 2097 
L 366 2166 
L 809 4519 
L 3088 4519 
L 3088 3981 
L 1259 3981 
L 1013 2750 
Q 1425 3038 1878 3038 
Q 2478 3038 2890 2622 
Q 3303 2206 3303 1553 
Q 3303 931 2941 478 
Q 2500 -78 1738 -78 
Q 1113 -78 717 272 
Q 322 622 266 1200 
z
" id="ArialMT-35" transform="scale(0.015625)"/>
       </defs>
       <use xlink:href="#ArialMT-32"/>
       <use x="55.615234" xlink:href="#ArialMT-35"/>
      </g>
     </g>
    </g>
    <g id="xtick_3">
     <g id="text_3">
      <!-- 50 -->
      <g style="fill:#262626;" transform="translate(275.042928 547.315194)scale(0.11 -0.11)">
       <use xlink:href="#ArialMT-35"/>
       <use x="55.615234" xlink:href="#ArialMT-30"/>
      </g>
     </g>
    </g>
    <g id="xtick_4">
     <g id="text_4">
      <!-- 75 -->
      <g style="fill:#262626;" transform="translate(348.135181 547.315194)scale(0.11 -0.11)">
       <defs>
        <path d="M 303 3981 
L 303 4522 
L 3269 4522 
L 3269 4084 
Q 2831 3619 2401 2847 
Q 1972 2075 1738 1259 
Q 1569 684 1522 0 
L 944 0 
Q 953 541 1156 1306 
Q 1359 2072 1739 2783 
Q 2119 3494 2547 3981 
L 303 3981 
z
" id="ArialMT-37" transform="scale(0.015625)"/>
       </defs>
       <use xlink:href="#ArialMT-37"/>
       <use x="55.615234" xlink:href="#ArialMT-35"/>
      </g>
     </g>
    </g>
    <g id="xtick_5">
     <g id="text_5">
      <!-- 100 -->
      <g style="fill:#262626;" transform="translate(418.168918 547.315194)scale(0.11 -0.11)">
       <defs>
        <path d="M 2384 0 
L 1822 0 
L 1822 3584 
Q 1619 3391 1289 3197 
Q 959 3003 697 2906 
L 697 3450 
Q 1169 3672 1522 3987 
Q 1875 4303 2022 4600 
L 2384 4600 
L 2384 0 
z
" id="ArialMT-31" transform="scale(0.015625)"/>
       </defs>
       <use xlink:href="#ArialMT-31"/>
       <use x="55.615234" xlink:href="#ArialMT-30"/>
       <use x="111.230469" xlink:href="#ArialMT-30"/>
      </g>
     </g>
    </g>
    <g id="xtick_6">
     <g id="text_6">
      <!-- 125 -->
      <g style="fill:#262626;" transform="translate(491.261171 547.315194)scale(0.11 -0.11)">
       <use xlink:href="#ArialMT-31"/>
       <use x="55.615234" xlink:href="#ArialMT-32"/>
       <use x="111.230469" xlink:href="#ArialMT-35"/>
      </g>
     </g>
    </g>
    <g id="xtick_7">
     <g id="text_7">
      <!-- 150 -->
      <g style="fill:#262626;" transform="translate(564.353423 547.315194)scale(0.11 -0.11)">
       <use xlink:href="#ArialMT-31"/>
       <use x="55.615234" xlink:href="#ArialMT-35"/>
       <use x="111.230469" xlink:href="#ArialMT-30"/>
      </g>
     </g>
    </g>
    <g id="xtick_8">
     <g id="text_8">
      <!-- 175 -->
      <g style="fill:#262626;" transform="translate(637.445676 547.315194)scale(0.11 -0.11)">
       <use xlink:href="#ArialMT-31"/>
       <use x="55.615234" xlink:href="#ArialMT-37"/>
       <use x="111.230469" xlink:href="#ArialMT-35"/>
      </g>
     </g>
    </g>
    <g id="xtick_9">
     <g id="text_9">
      <!-- 200 -->
      <g style="fill:#262626;" transform="translate(710.537928 547.315194)scale(0.11 -0.11)">
       <use xlink:href="#ArialMT-32"/>
       <use x="55.615234" xlink:href="#ArialMT-30"/>
       <use x="111.230469" xlink:href="#ArialMT-30"/>
      </g>
     </g>
    </g>
   </g>
   <g id="matplotlib.axis_2">
    <g id="ytick_1">
     <g id="text_10">
      <!-- −25 -->
      <g style="fill:#262626;" transform="translate(77.14125 533.878397)scale(0.11 -0.11)">
       <defs>
        <path d="M 3381 1997 
L 356 1997 
L 356 2522 
L 3381 2522 
L 3381 1997 
z
" id="ArialMT-2212" transform="scale(0.015625)"/>
       </defs>
       <use xlink:href="#ArialMT-2212"/>
       <use x="58.398438" xlink:href="#ArialMT-32"/>
       <use x="114.013672" xlink:href="#ArialMT-35"/>
      </g>
     </g>
    </g>
    <g id="ytick_2">
     <g id="text_11">
      <!-- −20 -->
      <g style="fill:#262626;" transform="translate(77.14125 442.180637)scale(0.11 -0.11)">
       <use xlink:href="#ArialMT-2212"/>
       <use x="58.398438" xlink:href="#ArialMT-32"/>
       <use x="114.013672" xlink:href="#ArialMT-30"/>
      </g>
     </g>
    </g>
    <g id="ytick_3">
     <g id="text_12">
      <!-- −15 -->
      <g style="fill:#262626;" transform="translate(77.14125 350.482877)scale(0.11 -0.11)">
       <use xlink:href="#ArialMT-2212"/>
       <use x="58.398438" xlink:href="#ArialMT-31"/>
       <use x="114.013672" xlink:href="#ArialMT-35"/>
      </g>
     </g>
    </g>
    <g id="ytick_4">
     <g id="text_13">
      <!-- −10 -->
      <g style="fill:#262626;" transform="translate(77.14125 258.785117)scale(0.11 -0.11)">
       <use xlink:href="#ArialMT-2212"/>
       <use x="58.398438" xlink:href="#ArialMT-31"/>
       <use x="114.013672" xlink:href="#ArialMT-30"/>
      </g>
     </g>
    </g>
    <g id="ytick_5">
     <g id="text_14">
      <!-- −5 -->
      <g style="fill:#262626;" transform="translate(83.258281 167.087357)scale(0.11 -0.11)">
       <use xlink:href="#ArialMT-2212"/>
       <use x="58.398438" xlink:href="#ArialMT-35"/>
      </g>
     </g>
    </g>
    <g id="ytick_6">
     <g id="text_15">
      <!-- 0 -->
      <g style="fill:#262626;" transform="translate(89.682969 75.389597)scale(0.11 -0.11)">
       <use xlink:href="#ArialMT-30"/>
      </g>
     </g>
    </g>
   </g>
   <g id="line2d_1">
    <path clip-path="url(#pc6fa892142)" d="M 134.975455 445.110748 
L 137.899145 445.611241 
L 140.822835 445.745214 
L 143.746525 446.420396 
L 146.670215 446.846557 
L 149.593905 446.559756 
L 152.517595 448.794868 
L 155.441285 448.948115 
L 158.364975 451.159231 
L 164.212356 453.367898 
L 167.136046 456.020565 
L 170.059736 479.150547 
L 172.983426 489.649385 
L 175.907116 508.043996 
L 178.830806 552.364638 
L 181.082988 596.44 
M 182.106923 596.44 
L 184.678186 500.561371 
L 187.601876 447.024534 
L 190.525567 528.377473 
L 193.449257 537.443988 
L 196.372947 528.145871 
L 199.296637 558.028062 
L 202.220327 500.521634 
L 205.144017 528.803353 
L 207.791598 596.44 
M 208.220091 596.44 
L 210.991397 468.160626 
L 213.915087 508.19287 
L 216.838777 585.712884 
L 217.844499 596.44 
M 222.6214 596.44 
L 222.686158 595.976622 
L 225.609848 560.868221 
L 228.533538 590.856681 
L 231.457228 521.670143 
L 234.380918 398.986086 
L 237.304608 490.510801 
L 240.228298 540.073149 
L 243.151988 488.641928 
L 246.075678 408.650723 
L 248.999369 413.876129 
L 251.923059 498.579864 
L 254.846749 494.188694 
L 257.770439 544.393064 
L 260.694129 479.713724 
L 263.617819 576.843236 
L 266.541509 453.461539 
L 269.465199 432.971562 
L 272.388889 428.963353 
L 275.312579 457.773794 
L 278.23627 480.577273 
L 281.15996 482.18572 
L 284.08365 463.369356 
L 287.00734 486.669166 
L 289.93103 530.720708 
L 292.85472 467.023639 
L 295.77841 446.959402 
L 298.7021 511.830012 
L 301.62579 525.65628 
L 304.549481 505.534921 
L 307.473171 486.513575 
L 310.396861 510.847391 
L 313.320551 454.331245 
L 316.244241 454.413413 
L 319.167931 429.819801 
L 322.091621 454.592405 
L 325.015311 417.165465 
L 327.939001 427.908428 
L 330.862691 456.497236 
L 333.786382 460.434891 
L 336.710072 453.069624 
L 339.633762 491.682663 
L 342.557452 505.85887 
L 345.481142 431.634279 
L 348.404832 368.620368 
L 351.328522 345.202117 
L 354.252212 422.425781 
L 357.175902 416.342353 
L 360.099592 414.285359 
L 363.023283 510.889542 
L 365.946973 406.499913 
L 368.870663 456.635547 
L 371.794353 476.835471 
L 374.718043 503.076357 
L 377.641733 579.050119 
L 380.565423 565.424076 
L 383.489113 456.103468 
L 386.412803 460.138996 
L 389.336494 507.938076 
L 392.260184 488.556962 
L 395.183874 496.544522 
L 398.107564 466.485962 
L 401.031254 443.314214 
L 403.954944 442.978827 
L 406.878634 519.659812 
L 409.802324 516.492066 
L 412.726014 487.216707 
L 415.649704 584.01286 
L 418.573395 519.740861 
L 421.497085 533.652865 
L 424.420775 584.176041 
L 427.344465 514.826287 
L 430.268155 527.822901 
L 433.191845 519.09723 
L 436.115535 469.900212 
L 439.039225 520.348252 
L 441.962915 553.939924 
L 444.886605 492.453061 
L 447.810296 400.012327 
L 450.733986 398.37929 
L 453.657676 488.54297 
L 456.581366 471.080505 
L 459.505056 596.140118 
L 462.428746 481.397132 
L 465.352436 510.717231 
L 468.276126 509.444696 
L 471.199816 498.588923 
L 474.123506 531.6744 
L 477.047197 504.718035 
L 479.970887 419.448779 
L 482.894577 500.161935 
L 485.818267 478.697242 
L 488.741957 479.216134 
L 491.665647 429.694503 
L 494.589337 433.919168 
L 497.513027 517.948175 
L 500.436717 426.531059 
L 503.360408 348.001332 
L 506.284098 398.401222 
L 509.207788 500.043738 
L 512.131478 588.285727 
L 514.086954 596.44 
M 515.155707 596.44 
L 517.978858 483.069068 
L 520.902548 555.500308 
L 522.763719 596.44 
M 525.229562 596.44 
L 526.749928 571.118702 
L 529.153796 596.44 
M 532.815936 596.44 
L 535.520999 487.003399 
L 538.444689 478.784867 
L 541.368379 560.402184 
L 544.292069 555.186433 
L 547.215759 474.591579 
L 550.139449 525.652152 
L 553.063139 446.14451 
L 555.986829 508.655305 
L 558.910519 454.276781 
L 561.83421 456.281061 
L 564.7579 475.567274 
L 567.68159 484.822226 
L 570.60528 520.184056 
L 573.52897 511.336865 
L 576.45266 496.584959 
L 579.37635 530.158196 
L 582.30004 501.552422 
L 585.22373 475.534113 
L 588.147421 499.329483 
L 591.071111 513.691329 
L 593.994801 525.303508 
L 596.918491 453.157459 
L 599.842181 480.158668 
L 602.765871 434.981508 
L 605.689561 437.611053 
L 608.613251 428.493222 
L 611.536941 520.573138 
L 614.460631 528.894336 
L 617.384322 375.984026 
L 620.308012 423.46248 
L 623.231702 474.850361 
L 626.155392 550.547711 
L 629.079082 542.43195 
L 632.002772 487.151294 
L 634.926462 467.585066 
L 637.850152 489.951227 
L 640.773842 413.442378 
L 643.697532 361.176396 
L 646.621223 422.551883 
L 649.544913 478.675415 
L 652.468603 562.372428 
L 655.392293 555.449062 
L 658.315983 521.656221 
L 661.239673 574.200818 
L 664.163363 473.188045 
L 667.087053 515.422415 
L 670.010743 497.771722 
L 672.934433 437.017934 
L 675.858124 391.039138 
L 678.781814 353.429359 
L 681.705504 426.58993 
L 684.629194 484.111819 
L 687.552884 470.213038 
L 690.459989 596.44 
M 690.510639 596.44 
L 693.400264 535.352749 
L 696.323954 555.788193 
L 699.247644 509.273365 
L 702.171335 467.822055 
L 705.095025 475.281908 
L 708.018715 472.511568 
L 710.942405 472.565437 
L 713.866095 471.495926 
L 716.789785 471.518768 
L 719.713475 470.789612 
L 722.637165 468.597245 
L 725.560855 472.633123 
L 728.484545 466.789868 
L 728.484545 466.789868 
" style="fill:none;stroke:#4c72b0;stroke-linecap:round;stroke-width:1.5;"/>
   </g>
   <g id="line2d_2">
    <path clip-path="url(#pc6fa892142)" d="M 134.975455 452.857331 
L 137.899145 457.409023 
L 140.822835 456.329858 
L 143.746525 457.706807 
L 146.670215 459.46147 
L 149.593905 461.998109 
L 152.517595 458.908437 
L 155.441285 458.942473 
L 158.364975 458.234199 
L 161.288665 456.224148 
L 164.212356 453.390005 
L 167.136046 451.02162 
L 170.059736 464.284011 
L 172.983426 466.09863 
L 175.907116 487.512672 
L 178.830806 540.15801 
L 181.754496 585.514198 
L 184.678186 495.338099 
L 187.601876 425.358847 
L 190.525567 529.12244 
L 193.449257 534.179732 
L 196.372947 529.260086 
L 199.296637 545.772252 
L 202.220327 515.876594 
L 205.144017 569.849875 
L 206.458409 596.44 
M 208.768301 596.44 
L 210.991397 493.13433 
L 213.915087 491.12984 
L 216.838777 590.174223 
L 219.552069 596.44 
M 219.88927 596.44 
L 222.686158 585.723063 
L 225.609848 546.538347 
L 228.533538 569.728425 
L 231.457228 505.167737 
L 234.380918 401.498484 
L 237.304608 480.902901 
L 240.228298 530.476933 
L 243.151988 481.614148 
L 246.075678 416.820458 
L 248.999369 443.660306 
L 251.923059 500.941918 
L 254.846749 490.558198 
L 257.770439 551.92473 
L 260.694129 507.98327 
L 263.617819 594.262431 
L 266.541509 480.482722 
L 269.465199 448.175514 
L 272.388889 449.531615 
L 275.312579 474.151672 
L 278.23627 494.323577 
L 281.15996 506.859191 
L 284.08365 476.467098 
L 287.00734 500.78017 
L 289.93103 552.667634 
L 292.85472 497.194169 
L 295.77841 457.259554 
L 298.7021 526.286828 
L 301.62579 546.126109 
L 304.549481 521.260983 
L 307.473171 498.865195 
L 310.396861 508.52336 
L 313.320551 485.683992 
L 316.244241 486.658252 
L 322.091621 475.728392 
L 325.015311 422.953802 
L 327.939001 462.024274 
L 330.862691 456.321183 
L 333.786382 459.259846 
L 336.710072 502.66286 
L 339.633762 526.488907 
L 342.557452 510.034458 
L 345.481142 441.107996 
L 348.404832 365.837401 
L 351.328522 439.841863 
L 354.252212 479.255942 
L 357.175902 422.449112 
L 360.099592 349.223093 
L 363.023283 386.718559 
L 365.946973 371.343695 
L 368.870663 405.904065 
L 371.794353 418.201815 
L 374.718043 448.663449 
L 377.641733 503.195954 
L 380.565423 528.582945 
L 383.489113 433.491328 
L 386.412803 482.893329 
L 389.336494 523.2873 
L 392.260184 515.725201 
L 395.183874 520.605075 
L 398.107564 482.155812 
L 401.031254 439.172697 
L 403.954944 475.463139 
L 406.878634 525.453746 
L 409.802324 555.907229 
L 412.726014 559.71168 
L 415.066814 596.44 
M 415.959472 596.44 
L 418.573395 519.264329 
L 421.497085 556.434761 
L 424.420775 577.801615 
L 427.344465 490.08513 
L 430.268155 505.004485 
L 433.191845 497.055683 
L 436.115535 466.536228 
L 439.039225 549.650616 
L 441.962915 570.929216 
L 444.886605 467.770775 
L 447.810296 378.123153 
L 450.733986 439.129357 
L 453.657676 487.63804 
L 456.581366 498.923821 
L 459.505056 583.352124 
L 462.428746 464.619574 
L 465.352436 513.212279 
L 468.276126 492.900839 
L 471.199816 503.382117 
L 474.123506 503.06289 
L 477.047197 521.270218 
L 479.970887 412.922366 
L 482.894577 479.270948 
L 485.818267 480.7131 
L 488.741957 479.515423 
L 491.665647 430.052207 
L 494.589337 419.718125 
L 497.513027 506.160082 
L 500.436717 423.801856 
L 503.360408 336.99651 
L 506.284098 395.75737 
L 512.131478 569.488113 
L 515.055168 589.951611 
L 517.978858 484.900022 
L 520.902548 544.011958 
L 523.646628 596.44 
M 524.180063 596.44 
L 526.749928 571.515969 
L 529.673618 592.111166 
L 532.597309 583.387944 
L 535.520999 474.225794 
L 538.444689 466.155892 
L 541.368379 510.915532 
L 544.292069 531.023389 
L 547.215759 414.38736 
L 550.139449 476.321476 
L 553.063139 441.323227 
L 555.986829 437.303475 
L 558.910519 372.352481 
L 561.83421 348.910128 
L 564.7579 432.873373 
L 567.68159 461.588914 
L 570.60528 558.859814 
L 573.52897 426.842905 
L 576.45266 437.281193 
L 579.37635 484.009958 
L 582.30004 404.126455 
L 585.22373 471.824108 
L 588.147421 480.920181 
L 591.071111 519.502613 
L 593.994801 553.708496 
L 596.918491 483.460493 
L 599.842181 524.267857 
L 602.765871 446.148707 
L 605.689561 479.639147 
L 608.613251 508.862701 
L 611.536941 553.714198 
L 614.460631 568.67427 
L 617.384322 468.769032 
L 620.308012 473.81541 
L 623.231702 502.807432 
L 626.155392 589.040244 
L 629.079082 556.465264 
L 632.002772 512.871399 
L 634.926462 494.962135 
L 637.850152 490.407085 
L 640.773842 442.849436 
L 643.697532 360.199914 
L 646.621223 430.978021 
L 649.544913 505.319654 
L 652.468603 565.793429 
L 655.392293 586.01504 
L 658.315983 490.669679 
L 661.239673 566.526083 
L 664.163363 463.879783 
L 667.087053 519.718509 
L 670.010743 506.211957 
L 672.934433 431.198499 
L 675.858124 384.93063 
L 678.781814 365.997539 
L 681.705504 423.380522 
L 684.629194 477.348242 
L 687.552884 460.336667 
L 690.476574 580.612462 
L 693.400264 554.256807 
L 696.323954 574.930464 
L 699.247644 517.087634 
L 702.171335 448.290668 
L 705.095025 458.229757 
L 708.018715 460.772202 
L 710.942405 461.808692 
L 713.866095 458.872793 
L 716.789785 458.062833 
L 719.713475 458.31182 
L 722.637165 455.663735 
L 725.560855 459.630633 
L 728.484545 456.049528 
L 728.484545 456.049528 
" style="fill:none;stroke:#dd8452;stroke-dasharray:6,2.25;stroke-dashoffset:0;stroke-width:1.5;"/>
   </g>
   <g id="line2d_3">
    <path clip-path="url(#pc6fa892142)" d="M 134.975455 457.56304 
L 137.899145 462.184587 
L 140.822835 460.160054 
L 143.746525 458.281212 
L 146.670215 468.288303 
L 149.593905 468.815135 
L 152.517595 466.050078 
L 155.441285 492.636076 
L 158.364975 492.492903 
L 161.288665 470.075986 
L 164.212356 472.483689 
L 167.136046 463.691906 
L 170.059736 460.336178 
L 172.983426 472.270732 
L 175.907116 494.088372 
L 178.830806 535.173162 
L 181.754496 579.013145 
L 184.678186 434.01991 
L 187.601876 418.291784 
L 190.525567 425.711584 
L 193.449257 464.194953 
L 196.372947 486.567829 
L 199.296637 504.418152 
L 202.220327 510.222125 
L 205.144017 483.550811 
L 208.067707 423.82928 
L 210.991397 415.752311 
L 213.915087 445.103822 
L 216.838777 493.066538 
L 219.762468 484.430591 
L 222.686158 501.186042 
L 225.609848 460.752963 
L 228.533538 509.52634 
L 231.457228 503.224392 
L 234.380918 385.231772 
L 237.304608 506.708287 
L 240.228298 557.295337 
L 243.151988 502.902577 
L 246.075678 412.499074 
L 248.999369 463.317691 
L 251.923059 473.571495 
L 254.846749 535.892874 
L 257.770439 588.296116 
L 260.694129 504.547088 
L 263.529017 596.44 
M 263.68613 596.44 
L 266.541509 476.118768 
L 269.465199 488.240604 
L 272.388889 487.205338 
L 275.312579 446.743016 
L 278.23627 473.781234 
L 281.15996 465.928557 
L 284.08365 475.119251 
L 287.00734 316.58319 
L 289.93103 399.817769 
L 292.85472 386.021059 
L 295.77841 451.275644 
L 298.7021 555.194443 
L 301.62579 579.178635 
L 304.549481 532.067085 
L 307.473171 504.976641 
L 310.396861 556.261506 
L 313.320551 548.65117 
L 316.244241 518.685027 
L 319.167931 528.691488 
L 322.091621 523.711851 
L 325.015311 450.689695 
L 327.939001 468.398909 
L 330.862691 501.307318 
L 333.786382 498.766761 
L 336.710072 523.144722 
L 339.633762 573.68196 
L 342.557452 592.944563 
L 345.481142 521.522143 
L 348.404832 456.204385 
L 351.328522 459.448247 
L 354.252212 476.878706 
L 357.175902 532.935706 
L 360.099592 429.66421 
L 363.023283 392.26487 
L 365.946973 441.472277 
L 368.870663 503.699594 
L 371.794353 403.051767 
L 374.718043 458.06745 
L 377.641733 485.336081 
L 380.565423 471.371503 
L 383.489113 405.874017 
L 386.412803 483.054726 
L 389.336494 529.427675 
L 392.260184 532.582339 
L 395.183874 519.348491 
L 398.107564 533.052434 
L 401.031254 452.71094 
L 403.954944 499.889127 
L 406.878634 573.762659 
L 409.802324 581.074162 
L 412.726014 558.203346 
L 413.824474 596.44 
M 424.965017 596.44 
L 427.344465 510.667455 
L 430.268155 514.717535 
L 433.191845 434.240423 
L 436.115535 450.965617 
L 439.039225 503.101788 
L 441.962915 492.977585 
L 444.886605 482.185965 
L 447.810296 474.31076 
L 450.733986 449.138721 
L 453.657676 483.212205 
L 456.581366 535.80315 
L 458.201599 596.44 
M 460.476834 596.44 
L 462.428746 498.457364 
L 465.352436 524.368879 
L 468.276126 522.568603 
L 471.199816 479.749333 
L 474.123506 460.968335 
L 477.047197 532.191718 
L 479.970887 416.479439 
L 482.894577 446.958073 
L 485.818267 446.343685 
L 488.741957 467.397224 
L 491.665647 390.510347 
L 494.589337 389.537241 
L 497.513027 453.255018 
L 500.436717 396.429964 
L 503.360408 391.71558 
L 506.284098 379.162721 
L 509.207788 523.2703 
L 512.131478 554.522514 
L 515.055168 388.493405 
L 517.978858 360.731837 
L 520.902548 408.933501 
L 526.749928 588.722486 
L 529.673618 540.196418 
L 532.597309 529.27985 
L 535.520999 492.560099 
L 538.444689 488.401616 
L 541.368379 501.0945 
L 544.292069 508.51451 
L 547.215759 446.709575 
L 550.139449 533.191269 
L 553.063139 406.624721 
L 555.986829 377.895643 
L 558.910519 450.676158 
L 561.83421 393.592288 
L 564.7579 394.783634 
L 567.68159 446.984692 
L 570.60528 494.429426 
L 573.52897 459.358279 
L 576.45266 477.518629 
L 579.37635 482.39378 
L 582.30004 461.363083 
L 585.22373 514.21176 
L 588.147421 502.919227 
L 591.071111 342.854632 
L 593.994801 334.038188 
L 596.918491 362.21878 
L 599.842181 401.30564 
L 602.765871 373.699103 
L 605.689561 492.995494 
L 608.613251 464.962902 
L 611.536941 511.864118 
L 614.460631 526.792918 
L 617.384322 421.351477 
L 620.308012 451.077658 
L 623.231702 498.897586 
L 626.155392 561.15775 
L 629.079082 565.595548 
L 632.002772 539.271164 
L 634.926462 493.813465 
L 637.850152 479.564884 
L 640.773842 431.354965 
L 643.697532 371.765972 
L 646.621223 423.232627 
L 649.544913 481.138736 
L 652.468603 457.210057 
L 655.392293 589.744634 
L 658.315983 472.729843 
L 664.163363 365.387944 
L 667.087053 465.207271 
L 670.010743 401.009535 
L 672.934433 360.007402 
L 675.858124 410.708137 
L 678.781814 360.569547 
L 681.705504 375.343648 
L 690.476574 502.946267 
L 693.400264 516.8766 
L 696.323954 565.760303 
L 699.247644 513.61927 
L 702.171335 434.70695 
L 705.095025 444.46355 
L 708.018715 446.798284 
L 710.942405 453.646898 
L 713.866095 446.551081 
L 716.789785 445.370474 
L 719.713475 444.008321 
L 722.637165 446.494169 
L 725.560855 447.294719 
L 728.484545 446.488012 
L 728.484545 446.488012 
" style="fill:none;stroke:#55a868;stroke-dasharray:1.5,1.5;stroke-dashoffset:0;stroke-width:1.5;"/>
   </g>
   <g id="line2d_4">
    <path clip-path="url(#pc6fa892142)" d="M 134.975455 452.924213 
L 137.899145 457.49287 
L 140.822835 456.52613 
L 143.746525 457.732902 
L 146.670215 459.697654 
L 149.593905 462.228137 
L 152.517595 459.285941 
L 155.441285 459.46077 
L 158.364975 458.893606 
L 161.288665 456.77036 
L 164.212356 453.837468 
L 167.136046 451.538973 
L 170.059736 465.036709 
L 172.983426 466.864795 
L 175.907116 488.22042 
L 178.830806 541.135559 
L 181.754496 586.943827 
L 184.678186 496.566699 
L 187.601876 426.395582 
L 190.525567 530.45598 
L 193.449257 537.184122 
L 196.372947 530.043287 
L 199.296637 547.336904 
L 202.220327 517.883672 
L 205.144017 567.163417 
L 206.524325 596.44 
M 208.73687 596.44 
L 210.991397 486.1487 
L 213.915087 500.204471 
L 216.838777 586.957644 
L 219.202571 596.44 
M 220.298586 596.44 
L 222.686158 586.437458 
L 225.609848 546.57721 
L 228.533538 570.720036 
L 231.457228 507.48701 
L 234.380918 401.683948 
L 237.304608 485.020807 
L 240.228298 534.961183 
L 243.151988 484.843109 
L 246.075678 418.980014 
L 248.999369 443.944552 
L 251.923059 502.355631 
L 254.846749 492.927144 
L 257.770439 551.729717 
L 260.694129 507.445734 
L 263.617819 594.508585 
L 266.541509 475.863099 
L 269.465199 449.780043 
L 272.388889 450.327198 
L 275.312579 480.792784 
L 278.23627 499.462967 
L 281.15996 507.312635 
L 284.08365 476.63773 
L 287.00734 508.631203 
L 289.93103 555.680454 
L 292.85472 492.235975 
L 295.77841 458.463808 
L 298.7021 527.636248 
L 301.62579 548.117831 
L 304.549481 524.570293 
L 307.473171 499.615339 
L 310.396861 510.776417 
L 313.320551 483.054586 
L 316.244241 485.586922 
L 319.167931 483.1703 
L 322.091621 489.051054 
L 325.015311 419.680801 
L 327.939001 452.536425 
L 330.862691 469.667806 
L 333.786382 456.177905 
L 336.710072 506.356214 
L 339.633762 546.190577 
L 342.557452 525.860633 
L 345.481142 463.82406 
L 348.404832 363.596552 
L 351.328522 401.66156 
L 354.252212 424.657359 
L 357.175902 425.042523 
L 360.099592 351.387143 
L 363.023283 492.608092 
L 365.946973 358.501307 
L 368.870663 423.720317 
L 371.794353 439.899789 
L 374.718043 471.134374 
L 377.641733 509.414998 
L 380.565423 539.885167 
L 383.489113 430.695418 
L 386.412803 486.492902 
L 389.336494 524.171557 
L 392.260184 515.503848 
L 395.183874 520.511364 
L 398.107564 482.514881 
L 401.031254 441.726616 
L 403.954944 468.461558 
L 406.878634 515.669268 
L 409.802324 554.690628 
L 412.726014 557.442358 
L 415.002188 596.44 
M 416.009828 596.44 
L 418.573395 517.467481 
L 421.497085 556.816917 
L 424.420775 580.806915 
L 427.344465 492.861556 
L 430.268155 501.785493 
L 433.191845 491.1042 
L 436.115535 463.704604 
L 439.039225 545.465024 
L 441.962915 568.373968 
L 444.886605 463.140588 
L 447.810296 377.058714 
L 450.733986 431.857976 
L 453.657676 489.827853 
L 456.581366 496.299662 
L 459.505056 584.128818 
L 462.428746 462.842804 
L 465.352436 516.051319 
L 468.276126 494.350162 
L 471.199816 510.433754 
L 474.123506 510.842284 
L 477.047197 526.417198 
L 479.970887 410.542472 
L 482.894577 477.741416 
L 485.818267 479.71089 
L 488.741957 479.470648 
L 491.665647 432.099162 
L 494.589337 420.619522 
L 497.513027 505.917846 
L 500.436717 421.532009 
L 503.360408 333.338047 
L 506.284098 391.849273 
L 509.207788 483.704023 
L 512.131478 565.822637 
L 515.055168 590.635328 
L 517.978858 474.181789 
L 520.902548 542.682756 
L 523.340459 596.44 
M 524.727789 596.44 
L 526.749928 572.414148 
L 529.673618 588.617092 
L 532.597309 584.118009 
L 535.520999 478.77021 
L 538.444689 471.015022 
L 541.368379 514.292109 
L 544.292069 540.26274 
L 547.215759 415.626244 
L 550.139449 486.172731 
L 553.063139 413.793821 
L 555.986829 462.800233 
L 558.910519 469.792544 
L 561.83421 450.512207 
L 564.7579 457.26669 
L 567.68159 402.78648 
L 570.60528 508.560229 
L 573.52897 472.187654 
L 576.45266 432.732334 
L 579.37635 472.40411 
L 582.30004 406.197092 
L 585.22373 506.018903 
L 588.147421 474.770152 
L 591.071111 506.439187 
L 593.994801 562.107735 
L 596.918491 497.699034 
L 599.842181 521.551491 
L 602.765871 467.37816 
L 605.689561 485.806281 
L 608.613251 505.488852 
L 611.536941 546.552165 
L 614.460631 569.682741 
L 617.384322 462.412621 
L 620.308012 469.017529 
L 623.231702 504.747488 
L 626.155392 584.724596 
L 629.079082 555.499538 
L 632.002772 511.022431 
L 634.926462 498.971744 
L 637.850152 491.348989 
L 640.773842 444.494227 
L 643.697532 360.01111 
L 646.621223 434.822314 
L 649.544913 506.069064 
L 652.468603 567.177409 
L 655.392293 586.992379 
L 658.315983 491.807296 
L 661.239673 569.347843 
L 664.163363 465.535873 
L 667.087053 519.169394 
L 670.010743 506.876331 
L 672.934433 431.477184 
L 675.858124 384.605981 
L 678.781814 367.378721 
L 684.629194 477.567671 
L 687.552884 461.859553 
L 690.476574 582.863665 
L 693.400264 555.589751 
L 696.323954 574.598574 
L 699.247644 518.968294 
L 702.171335 448.378082 
L 705.095025 458.070633 
L 708.018715 461.09881 
L 710.942405 463.000213 
L 713.866095 460.147111 
L 716.789785 458.452054 
L 719.713475 458.466746 
L 722.637165 456.729258 
L 725.560855 460.378119 
L 728.484545 457.524597 
L 728.484545 457.524597 
" style="fill:none;stroke:#c44e52;stroke-dasharray:4.5,1.875,2.25,1.875;stroke-dashoffset:0;stroke-width:1.5;"/>
   </g>
   <g id="line2d_5">
    <path clip-path="url(#pc6fa892142)" d="M 134.975455 457.966148 
L 137.899145 462.456206 
L 140.822835 461.030074 
L 143.746525 462.442703 
L 149.593905 467.115531 
L 152.517595 465.06973 
L 155.441285 464.73875 
L 158.364975 464.160952 
L 161.288665 462.29173 
L 164.212356 457.726046 
L 167.136046 454.597337 
L 170.059736 465.092292 
L 172.983426 467.105772 
L 175.907116 485.796557 
L 178.830806 537.848741 
L 181.754496 595.262402 
L 184.678186 496.739745 
L 187.601876 445.201451 
L 190.525567 533.76592 
L 193.449257 544.455993 
L 196.372947 539.002868 
L 199.296637 560.177228 
L 202.220327 518.00883 
L 205.144017 562.55065 
L 206.684232 596.44 
M 208.718434 596.44 
L 210.991397 490.1121 
L 213.915087 489.401447 
L 216.838777 588.944399 
L 219.008043 596.44 
M 220.48777 596.44 
L 222.686158 588.538772 
L 225.609848 557.619566 
L 228.533538 576.273448 
L 231.457228 513.383365 
L 234.380918 407.14914 
L 237.304608 484.541128 
L 240.228298 533.827239 
L 243.151988 483.406519 
L 246.075678 412.224307 
L 248.999369 432.756435 
L 251.923059 507.219659 
L 254.846749 496.447523 
L 257.770439 556.307085 
L 260.694129 504.633174 
L 263.615546 596.44 
M 263.619565 596.44 
L 266.541509 476.909279 
L 269.465199 451.265255 
L 272.388889 449.799876 
L 275.312579 479.103884 
L 278.23627 498.701873 
L 281.15996 512.14693 
L 284.08365 482.718219 
L 287.00734 507.692133 
L 289.93103 555.804458 
L 292.85472 493.490495 
L 295.77841 455.540081 
L 298.7021 524.395499 
L 301.62579 548.115347 
L 307.473171 504.384536 
L 310.396861 525.106396 
L 313.320551 487.68187 
L 316.244241 480.183889 
L 319.167931 478.193986 
L 322.091621 494.597015 
L 325.015311 428.586304 
L 327.939001 444.65468 
L 330.862691 415.697498 
L 333.786382 450.508744 
L 336.710072 482.293983 
L 339.633762 511.831341 
L 342.557452 514.005168 
L 345.481142 483.615384 
L 348.404832 396.680315 
L 351.328522 387.232134 
L 354.252212 491.542149 
L 357.175902 477.614194 
L 360.099592 456.328843 
L 363.023283 545.949041 
L 365.946973 424.318649 
L 368.870663 477.555113 
L 371.794353 458.634859 
L 374.718043 500.542727 
L 377.641733 586.197391 
L 380.565423 588.718569 
L 383.489113 482.262606 
L 386.412803 476.820849 
L 389.336494 523.67946 
L 392.260184 521.027877 
L 395.183874 525.3076 
L 398.107564 469.737346 
L 401.031254 454.833207 
L 403.954944 483.162464 
L 406.878634 541.510544 
L 409.802324 567.424962 
L 412.726014 537.721379 
L 414.633658 596.44 
M 416.475138 596.44 
L 418.573395 516.939669 
L 421.497085 560.136301 
L 424.420775 583.604994 
L 427.344465 490.692241 
L 430.268155 492.490699 
L 433.191845 484.941962 
L 436.115535 457.532957 
L 439.039225 534.301252 
L 441.962915 563.348822 
L 444.886605 463.369811 
L 447.810296 375.747457 
L 450.733986 417.883043 
L 453.657676 462.538408 
L 456.581366 477.310358 
L 459.505056 553.556159 
L 462.428746 444.887086 
L 465.352436 501.753277 
L 468.276126 490.728691 
L 471.199816 508.21935 
L 474.123506 514.029235 
L 477.047197 506.344356 
L 479.970887 408.338457 
L 482.894577 480.281553 
L 485.818267 479.080202 
L 488.741957 438.857213 
L 491.665647 513.694477 
L 494.589337 439.093117 
L 497.513027 490.187726 
L 500.436717 431.776368 
L 503.360408 426.775359 
L 506.284098 493.425677 
L 509.207788 483.94381 
L 512.131478 534.218595 
L 515.055168 484.922339 
L 517.978858 494.997675 
L 520.902548 518.855309 
L 523.826238 477.810571 
L 526.749928 496.550923 
L 529.673618 498.974402 
L 532.597309 461.119623 
L 535.520999 483.330228 
L 538.444689 435.749737 
L 541.368379 362.077934 
L 544.292069 382.824559 
L 547.215759 381.006827 
L 550.139449 359.000051 
L 553.063139 323.955943 
L 555.986829 346.052758 
L 558.910519 333.177927 
L 561.83421 339.831195 
L 564.7579 359.997853 
L 567.68159 369.202084 
L 570.60528 460.476797 
L 573.52897 476.927888 
L 576.45266 457.433684 
L 579.37635 488.579 
L 582.30004 408.407298 
L 585.22373 493.929248 
L 588.147421 471.033212 
L 591.071111 486.746786 
L 593.994801 537.114827 
L 596.918491 488.273555 
L 599.842181 502.341884 
L 602.765871 451.912034 
L 605.689561 467.113152 
L 608.613251 475.088644 
L 611.536941 521.31048 
L 614.460631 552.960031 
L 617.384322 443.352133 
L 620.308012 464.607786 
L 623.231702 493.879542 
L 626.155392 570.428163 
L 629.079082 550.196617 
L 632.002772 507.142983 
L 634.926462 489.778986 
L 637.850152 483.923242 
L 640.773842 430.127764 
L 643.697532 350.305302 
L 646.621223 416.529845 
L 649.544913 492.267072 
L 652.468603 553.754495 
L 655.392293 567.445216 
L 658.315983 487.528832 
L 661.239673 556.044036 
L 664.163363 460.754363 
L 667.087053 512.584599 
L 670.010743 500.35429 
L 672.934433 435.413405 
L 675.858124 382.00379 
L 678.781814 353.213375 
L 681.705504 419.054276 
L 684.629194 469.903885 
L 687.552884 454.899354 
L 690.476574 569.634854 
L 693.400264 544.376309 
L 696.323954 565.297274 
L 699.247644 511.625624 
L 702.171335 444.295366 
L 705.095025 455.960819 
L 708.018715 457.734546 
L 710.942405 459.697304 
L 713.866095 457.261478 
L 716.789785 455.799212 
L 719.713475 456.185705 
L 722.637165 454.137036 
L 725.560855 458.660395 
L 728.484545 456.423254 
L 728.484545 456.423254 
" style="fill:none;stroke:#8172b3;stroke-dasharray:7.5,1.5,1.5,1.5;stroke-dashoffset:0;stroke-width:1.5;"/>
   </g>
   <g id="line2d_6"/>
   <g id="line2d_7"/>
   <g id="line2d_8"/>
   <g id="line2d_9"/>
   <g id="line2d_10"/>
   <g id="patch_3">
    <path d="M 105.3 529.9416 
L 105.3 71.4528 
" style="fill:none;stroke:#262626;stroke-linecap:square;stroke-linejoin:miter;stroke-width:1.25;"/>
   </g>
   <g id="patch_4">
    <path d="M 758.16 529.9416 
L 758.16 71.4528 
" style="fill:none;stroke:#262626;stroke-linecap:square;stroke-linejoin:miter;stroke-width:1.25;"/>
   </g>
   <g id="patch_5">
    <path d="M 105.3 529.9416 
L 758.16 529.9416 
" style="fill:none;stroke:#262626;stroke-linecap:square;stroke-linejoin:miter;stroke-width:1.25;"/>
   </g>
   <g id="patch_6">
    <path d="M 105.3 71.4528 
L 758.16 71.4528 
" style="fill:none;stroke:#262626;stroke-linecap:square;stroke-linejoin:miter;stroke-width:1.25;"/>
   </g>
   <g id="text_16">
    <!-- Activations for &gt;&lt;*MR.*&gt;&lt; -->
    <g style="fill:#262626;" transform="translate(362.697188 65.4528)scale(0.12 -0.12)">
     <defs>
      <path d="M -9 0 
L 1750 4581 
L 2403 4581 
L 4278 0 
L 3588 0 
L 3053 1388 
L 1138 1388 
L 634 0 
L -9 0 
z
M 1313 1881 
L 2866 1881 
L 2388 3150 
Q 2169 3728 2063 4100 
Q 1975 3659 1816 3225 
L 1313 1881 
z
" id="ArialMT-41" transform="scale(0.015625)"/>
      <path d="M 2588 1216 
L 3141 1144 
Q 3050 572 2676 248 
Q 2303 -75 1759 -75 
Q 1078 -75 664 370 
Q 250 816 250 1647 
Q 250 2184 428 2587 
Q 606 2991 970 3192 
Q 1334 3394 1763 3394 
Q 2303 3394 2647 3120 
Q 2991 2847 3088 2344 
L 2541 2259 
Q 2463 2594 2264 2762 
Q 2066 2931 1784 2931 
Q 1359 2931 1093 2626 
Q 828 2322 828 1663 
Q 828 994 1084 691 
Q 1341 388 1753 388 
Q 2084 388 2306 591 
Q 2528 794 2588 1216 
z
" id="ArialMT-63" transform="scale(0.015625)"/>
      <path d="M 1650 503 
L 1731 6 
Q 1494 -44 1306 -44 
Q 1000 -44 831 53 
Q 663 150 594 308 
Q 525 466 525 972 
L 525 2881 
L 113 2881 
L 113 3319 
L 525 3319 
L 525 4141 
L 1084 4478 
L 1084 3319 
L 1650 3319 
L 1650 2881 
L 1084 2881 
L 1084 941 
Q 1084 700 1114 631 
Q 1144 563 1211 522 
Q 1278 481 1403 481 
Q 1497 481 1650 503 
z
" id="ArialMT-74" transform="scale(0.015625)"/>
      <path d="M 425 3934 
L 425 4581 
L 988 4581 
L 988 3934 
L 425 3934 
z
M 425 0 
L 425 3319 
L 988 3319 
L 988 0 
L 425 0 
z
" id="ArialMT-69" transform="scale(0.015625)"/>
      <path d="M 1344 0 
L 81 3319 
L 675 3319 
L 1388 1331 
Q 1503 1009 1600 663 
Q 1675 925 1809 1294 
L 2547 3319 
L 3125 3319 
L 1869 0 
L 1344 0 
z
" id="ArialMT-76" transform="scale(0.015625)"/>
      <path d="M 2588 409 
Q 2275 144 1986 34 
Q 1697 -75 1366 -75 
Q 819 -75 525 192 
Q 231 459 231 875 
Q 231 1119 342 1320 
Q 453 1522 633 1644 
Q 813 1766 1038 1828 
Q 1203 1872 1538 1913 
Q 2219 1994 2541 2106 
Q 2544 2222 2544 2253 
Q 2544 2597 2384 2738 
Q 2169 2928 1744 2928 
Q 1347 2928 1158 2789 
Q 969 2650 878 2297 
L 328 2372 
Q 403 2725 575 2942 
Q 747 3159 1072 3276 
Q 1397 3394 1825 3394 
Q 2250 3394 2515 3294 
Q 2781 3194 2906 3042 
Q 3031 2891 3081 2659 
Q 3109 2516 3109 2141 
L 3109 1391 
Q 3109 606 3145 398 
Q 3181 191 3288 0 
L 2700 0 
Q 2613 175 2588 409 
z
M 2541 1666 
Q 2234 1541 1622 1453 
Q 1275 1403 1131 1340 
Q 988 1278 909 1158 
Q 831 1038 831 891 
Q 831 666 1001 516 
Q 1172 366 1500 366 
Q 1825 366 2078 508 
Q 2331 650 2450 897 
Q 2541 1088 2541 1459 
L 2541 1666 
z
" id="ArialMT-61" transform="scale(0.015625)"/>
      <path d="M 213 1659 
Q 213 2581 725 3025 
Q 1153 3394 1769 3394 
Q 2453 3394 2887 2945 
Q 3322 2497 3322 1706 
Q 3322 1066 3130 698 
Q 2938 331 2570 128 
Q 2203 -75 1769 -75 
Q 1072 -75 642 372 
Q 213 819 213 1659 
z
M 791 1659 
Q 791 1022 1069 705 
Q 1347 388 1769 388 
Q 2188 388 2466 706 
Q 2744 1025 2744 1678 
Q 2744 2294 2464 2611 
Q 2184 2928 1769 2928 
Q 1347 2928 1069 2612 
Q 791 2297 791 1659 
z
" id="ArialMT-6f" transform="scale(0.015625)"/>
      <path d="M 422 0 
L 422 3319 
L 928 3319 
L 928 2847 
Q 1294 3394 1984 3394 
Q 2284 3394 2536 3286 
Q 2788 3178 2913 3003 
Q 3038 2828 3088 2588 
Q 3119 2431 3119 2041 
L 3119 0 
L 2556 0 
L 2556 2019 
Q 2556 2363 2490 2533 
Q 2425 2703 2258 2804 
Q 2091 2906 1866 2906 
Q 1506 2906 1245 2678 
Q 984 2450 984 1813 
L 984 0 
L 422 0 
z
" id="ArialMT-6e" transform="scale(0.015625)"/>
      <path d="M 197 991 
L 753 1078 
Q 800 744 1014 566 
Q 1228 388 1613 388 
Q 2000 388 2187 545 
Q 2375 703 2375 916 
Q 2375 1106 2209 1216 
Q 2094 1291 1634 1406 
Q 1016 1563 777 1677 
Q 538 1791 414 1992 
Q 291 2194 291 2438 
Q 291 2659 392 2848 
Q 494 3038 669 3163 
Q 800 3259 1026 3326 
Q 1253 3394 1513 3394 
Q 1903 3394 2198 3281 
Q 2494 3169 2634 2976 
Q 2775 2784 2828 2463 
L 2278 2388 
Q 2241 2644 2061 2787 
Q 1881 2931 1553 2931 
Q 1166 2931 1000 2803 
Q 834 2675 834 2503 
Q 834 2394 903 2306 
Q 972 2216 1119 2156 
Q 1203 2125 1616 2013 
Q 2213 1853 2448 1751 
Q 2684 1650 2818 1456 
Q 2953 1263 2953 975 
Q 2953 694 2789 445 
Q 2625 197 2315 61 
Q 2006 -75 1616 -75 
Q 969 -75 630 194 
Q 291 463 197 991 
z
" id="ArialMT-73" transform="scale(0.015625)"/>
      <path id="ArialMT-20" transform="scale(0.015625)"/>
      <path d="M 556 0 
L 556 2881 
L 59 2881 
L 59 3319 
L 556 3319 
L 556 3672 
Q 556 4006 616 4169 
Q 697 4388 901 4523 
Q 1106 4659 1475 4659 
Q 1713 4659 2000 4603 
L 1916 4113 
Q 1741 4144 1584 4144 
Q 1328 4144 1222 4034 
Q 1116 3925 1116 3625 
L 1116 3319 
L 1763 3319 
L 1763 2881 
L 1116 2881 
L 1116 0 
L 556 0 
z
" id="ArialMT-66" transform="scale(0.015625)"/>
      <path d="M 416 0 
L 416 3319 
L 922 3319 
L 922 2816 
Q 1116 3169 1280 3281 
Q 1444 3394 1641 3394 
Q 1925 3394 2219 3213 
L 2025 2691 
Q 1819 2813 1613 2813 
Q 1428 2813 1281 2702 
Q 1134 2591 1072 2394 
Q 978 2094 978 1738 
L 978 0 
L 416 0 
z
" id="ArialMT-72" transform="scale(0.015625)"/>
      <path d="M 3384 2003 
L 350 706 
L 350 1266 
L 2753 2263 
L 350 3250 
L 350 3809 
L 3384 2528 
L 3384 2003 
z
" id="ArialMT-3e" transform="scale(0.015625)"/>
      <path d="M 350 2003 
L 350 2528 
L 3384 3809 
L 3384 3250 
L 978 2263 
L 3384 1266 
L 3384 706 
L 350 2003 
z
" id="ArialMT-3c" transform="scale(0.015625)"/>
      <path d="M 200 3741 
L 344 4184 
Q 841 4009 1066 3881 
Q 1006 4447 1003 4659 
L 1456 4659 
Q 1447 4350 1384 3884 
Q 1706 4047 2122 4184 
L 2266 3741 
Q 1869 3609 1488 3566 
Q 1678 3400 2025 2975 
L 1650 2709 
Q 1469 2956 1222 3381 
Q 991 2941 816 2709 
L 447 2975 
Q 809 3422 966 3566 
Q 563 3644 200 3741 
z
" id="ArialMT-2a" transform="scale(0.015625)"/>
      <path d="M 475 0 
L 475 4581 
L 1388 4581 
L 2472 1338 
Q 2622 884 2691 659 
Q 2769 909 2934 1394 
L 4031 4581 
L 4847 4581 
L 4847 0 
L 4263 0 
L 4263 3834 
L 2931 0 
L 2384 0 
L 1059 3900 
L 1059 0 
L 475 0 
z
" id="ArialMT-4d" transform="scale(0.015625)"/>
      <path d="M 503 0 
L 503 4581 
L 2534 4581 
Q 3147 4581 3465 4457 
Q 3784 4334 3975 4021 
Q 4166 3709 4166 3331 
Q 4166 2844 3850 2509 
Q 3534 2175 2875 2084 
Q 3116 1969 3241 1856 
Q 3506 1613 3744 1247 
L 4541 0 
L 3778 0 
L 3172 953 
Q 2906 1366 2734 1584 
Q 2563 1803 2427 1890 
Q 2291 1978 2150 2013 
Q 2047 2034 1813 2034 
L 1109 2034 
L 1109 0 
L 503 0 
z
M 1109 2559 
L 2413 2559 
Q 2828 2559 3062 2645 
Q 3297 2731 3419 2920 
Q 3541 3109 3541 3331 
Q 3541 3656 3305 3865 
Q 3069 4075 2559 4075 
L 1109 4075 
L 1109 2559 
z
" id="ArialMT-52" transform="scale(0.015625)"/>
      <path d="M 581 0 
L 581 641 
L 1222 641 
L 1222 0 
L 581 0 
z
" id="ArialMT-2e" transform="scale(0.015625)"/>
     </defs>
     <use xlink:href="#ArialMT-41"/>
     <use x="66.699219" xlink:href="#ArialMT-63"/>
     <use x="116.699219" xlink:href="#ArialMT-74"/>
     <use x="144.482422" xlink:href="#ArialMT-69"/>
     <use x="166.699219" xlink:href="#ArialMT-76"/>
     <use x="216.699219" xlink:href="#ArialMT-61"/>
     <use x="272.314453" xlink:href="#ArialMT-74"/>
     <use x="300.097656" xlink:href="#ArialMT-69"/>
     <use x="322.314453" xlink:href="#ArialMT-6f"/>
     <use x="377.929688" xlink:href="#ArialMT-6e"/>
     <use x="433.544922" xlink:href="#ArialMT-73"/>
     <use x="483.544922" xlink:href="#ArialMT-20"/>
     <use x="511.328125" xlink:href="#ArialMT-66"/>
     <use x="539.111328" xlink:href="#ArialMT-6f"/>
     <use x="594.726562" xlink:href="#ArialMT-72"/>
     <use x="628.027344" xlink:href="#ArialMT-20"/>
     <use x="655.810547" xlink:href="#ArialMT-3e"/>
     <use x="714.208984" xlink:href="#ArialMT-3c"/>
     <use x="772.607422" xlink:href="#ArialMT-2a"/>
     <use x="811.523438" xlink:href="#ArialMT-4d"/>
     <use x="894.824219" xlink:href="#ArialMT-52"/>
     <use x="967.041016" xlink:href="#ArialMT-2e"/>
     <use x="994.824219" xlink:href="#ArialMT-2a"/>
     <use x="1033.740234" xlink:href="#ArialMT-3e"/>
     <use x="1092.138672" xlink:href="#ArialMT-3c"/>
    </g>
   </g>
   <g id="legend_1">
    <g id="patch_7">
     <path d="M 640.044062 158.514363 
L 750.46 158.514363 
Q 752.66 158.514363 752.66 156.314363 
L 752.66 79.1528 
Q 752.66 76.9528 750.46 76.9528 
L 640.044062 76.9528 
Q 637.844062 76.9528 637.844062 79.1528 
L 637.844062 156.314363 
Q 637.844062 158.514363 640.044062 158.514363 
z
" style="fill:#ffffff;opacity:0.8;stroke:#cccccc;stroke-linejoin:miter;"/>
    </g>
    <g id="line2d_11">
     <path d="M 642.244062 85.376394 
L 664.244062 85.376394 
" style="fill:none;stroke:#4c72b0;stroke-linecap:round;stroke-width:1.5;"/>
    </g>
    <g id="line2d_12"/>
    <g id="text_17">
     <!-- regular -->
     <g style="fill:#262626;" transform="translate(673.044062 89.226394)scale(0.11 -0.11)">
      <defs>
       <path d="M 2694 1069 
L 3275 997 
Q 3138 488 2766 206 
Q 2394 -75 1816 -75 
Q 1088 -75 661 373 
Q 234 822 234 1631 
Q 234 2469 665 2931 
Q 1097 3394 1784 3394 
Q 2450 3394 2872 2941 
Q 3294 2488 3294 1666 
Q 3294 1616 3291 1516 
L 816 1516 
Q 847 969 1125 678 
Q 1403 388 1819 388 
Q 2128 388 2347 550 
Q 2566 713 2694 1069 
z
M 847 1978 
L 2700 1978 
Q 2663 2397 2488 2606 
Q 2219 2931 1791 2931 
Q 1403 2931 1139 2672 
Q 875 2413 847 1978 
z
" id="ArialMT-65" transform="scale(0.015625)"/>
       <path d="M 319 -275 
L 866 -356 
Q 900 -609 1056 -725 
Q 1266 -881 1628 -881 
Q 2019 -881 2231 -725 
Q 2444 -569 2519 -288 
Q 2563 -116 2559 434 
Q 2191 0 1641 0 
Q 956 0 581 494 
Q 206 988 206 1678 
Q 206 2153 378 2554 
Q 550 2956 876 3175 
Q 1203 3394 1644 3394 
Q 2231 3394 2613 2919 
L 2613 3319 
L 3131 3319 
L 3131 450 
Q 3131 -325 2973 -648 
Q 2816 -972 2473 -1159 
Q 2131 -1347 1631 -1347 
Q 1038 -1347 672 -1080 
Q 306 -813 319 -275 
z
M 784 1719 
Q 784 1066 1043 766 
Q 1303 466 1694 466 
Q 2081 466 2343 764 
Q 2606 1063 2606 1700 
Q 2606 2309 2336 2618 
Q 2066 2928 1684 2928 
Q 1309 2928 1046 2623 
Q 784 2319 784 1719 
z
" id="ArialMT-67" transform="scale(0.015625)"/>
       <path d="M 2597 0 
L 2597 488 
Q 2209 -75 1544 -75 
Q 1250 -75 995 37 
Q 741 150 617 320 
Q 494 491 444 738 
Q 409 903 409 1263 
L 409 3319 
L 972 3319 
L 972 1478 
Q 972 1038 1006 884 
Q 1059 663 1231 536 
Q 1403 409 1656 409 
Q 1909 409 2131 539 
Q 2353 669 2445 892 
Q 2538 1116 2538 1541 
L 2538 3319 
L 3100 3319 
L 3100 0 
L 2597 0 
z
" id="ArialMT-75" transform="scale(0.015625)"/>
       <path d="M 409 0 
L 409 4581 
L 972 4581 
L 972 0 
L 409 0 
z
" id="ArialMT-6c" transform="scale(0.015625)"/>
      </defs>
      <use xlink:href="#ArialMT-72"/>
      <use x="33.300781" xlink:href="#ArialMT-65"/>
      <use x="88.916016" xlink:href="#ArialMT-67"/>
      <use x="144.53125" xlink:href="#ArialMT-75"/>
      <use x="200.146484" xlink:href="#ArialMT-6c"/>
      <use x="222.363281" xlink:href="#ArialMT-61"/>
      <use x="277.978516" xlink:href="#ArialMT-72"/>
     </g>
    </g>
    <g id="line2d_13">
     <path d="M 642.244062 101.0978 
L 664.244062 101.0978 
" style="fill:none;stroke:#dd8452;stroke-dasharray:6,2.25;stroke-dashoffset:0;stroke-width:1.5;"/>
    </g>
    <g id="line2d_14"/>
    <g id="text_18">
     <!-- splitted_3s -->
     <g style="fill:#262626;" transform="translate(673.044062 104.9478)scale(0.11 -0.11)">
      <defs>
       <path d="M 422 -1272 
L 422 3319 
L 934 3319 
L 934 2888 
Q 1116 3141 1344 3267 
Q 1572 3394 1897 3394 
Q 2322 3394 2647 3175 
Q 2972 2956 3137 2557 
Q 3303 2159 3303 1684 
Q 3303 1175 3120 767 
Q 2938 359 2589 142 
Q 2241 -75 1856 -75 
Q 1575 -75 1351 44 
Q 1128 163 984 344 
L 984 -1272 
L 422 -1272 
z
M 931 1641 
Q 931 1000 1190 694 
Q 1450 388 1819 388 
Q 2194 388 2461 705 
Q 2728 1022 2728 1688 
Q 2728 2322 2467 2637 
Q 2206 2953 1844 2953 
Q 1484 2953 1207 2617 
Q 931 2281 931 1641 
z
" id="ArialMT-70" transform="scale(0.015625)"/>
       <path d="M 2575 0 
L 2575 419 
Q 2259 -75 1647 -75 
Q 1250 -75 917 144 
Q 584 363 401 755 
Q 219 1147 219 1656 
Q 219 2153 384 2558 
Q 550 2963 881 3178 
Q 1213 3394 1622 3394 
Q 1922 3394 2156 3267 
Q 2391 3141 2538 2938 
L 2538 4581 
L 3097 4581 
L 3097 0 
L 2575 0 
z
M 797 1656 
Q 797 1019 1065 703 
Q 1334 388 1700 388 
Q 2069 388 2326 689 
Q 2584 991 2584 1609 
Q 2584 2291 2321 2609 
Q 2059 2928 1675 2928 
Q 1300 2928 1048 2622 
Q 797 2316 797 1656 
z
" id="ArialMT-64" transform="scale(0.015625)"/>
       <path d="M -97 -1272 
L -97 -866 
L 3631 -866 
L 3631 -1272 
L -97 -1272 
z
" id="ArialMT-5f" transform="scale(0.015625)"/>
       <path d="M 269 1209 
L 831 1284 
Q 928 806 1161 595 
Q 1394 384 1728 384 
Q 2125 384 2398 659 
Q 2672 934 2672 1341 
Q 2672 1728 2419 1979 
Q 2166 2231 1775 2231 
Q 1616 2231 1378 2169 
L 1441 2663 
Q 1497 2656 1531 2656 
Q 1891 2656 2178 2843 
Q 2466 3031 2466 3422 
Q 2466 3731 2256 3934 
Q 2047 4138 1716 4138 
Q 1388 4138 1169 3931 
Q 950 3725 888 3313 
L 325 3413 
Q 428 3978 793 4289 
Q 1159 4600 1703 4600 
Q 2078 4600 2393 4439 
Q 2709 4278 2876 4000 
Q 3044 3722 3044 3409 
Q 3044 3113 2884 2869 
Q 2725 2625 2413 2481 
Q 2819 2388 3044 2092 
Q 3269 1797 3269 1353 
Q 3269 753 2831 336 
Q 2394 -81 1725 -81 
Q 1122 -81 723 278 
Q 325 638 269 1209 
z
" id="ArialMT-33" transform="scale(0.015625)"/>
      </defs>
      <use xlink:href="#ArialMT-73"/>
      <use x="50" xlink:href="#ArialMT-70"/>
      <use x="105.615234" xlink:href="#ArialMT-6c"/>
      <use x="127.832031" xlink:href="#ArialMT-69"/>
      <use x="150.048828" xlink:href="#ArialMT-74"/>
      <use x="177.832031" xlink:href="#ArialMT-74"/>
      <use x="205.615234" xlink:href="#ArialMT-65"/>
      <use x="261.230469" xlink:href="#ArialMT-64"/>
      <use x="316.845703" xlink:href="#ArialMT-5f"/>
      <use x="372.460938" xlink:href="#ArialMT-33"/>
      <use x="428.076172" xlink:href="#ArialMT-73"/>
     </g>
    </g>
    <g id="line2d_15">
     <path d="M 642.244062 116.6903 
L 664.244062 116.6903 
" style="fill:none;stroke:#55a868;stroke-dasharray:1.5,1.5;stroke-dashoffset:0;stroke-width:1.5;"/>
    </g>
    <g id="line2d_16"/>
    <g id="text_19">
     <!-- splitted_1s -->
     <g style="fill:#262626;" transform="translate(673.044062 120.5403)scale(0.11 -0.11)">
      <use xlink:href="#ArialMT-73"/>
      <use x="50" xlink:href="#ArialMT-70"/>
      <use x="105.615234" xlink:href="#ArialMT-6c"/>
      <use x="127.832031" xlink:href="#ArialMT-69"/>
      <use x="150.048828" xlink:href="#ArialMT-74"/>
      <use x="177.832031" xlink:href="#ArialMT-74"/>
      <use x="205.615234" xlink:href="#ArialMT-65"/>
      <use x="261.230469" xlink:href="#ArialMT-64"/>
      <use x="316.845703" xlink:href="#ArialMT-5f"/>
      <use x="372.460938" xlink:href="#ArialMT-31"/>
      <use x="428.076172" xlink:href="#ArialMT-73"/>
     </g>
    </g>
    <g id="line2d_17">
     <path d="M 642.244062 132.384206 
L 664.244062 132.384206 
" style="fill:none;stroke:#c44e52;stroke-dasharray:4.5,1.875,2.25,1.875;stroke-dashoffset:0;stroke-width:1.5;"/>
    </g>
    <g id="line2d_18"/>
    <g id="text_20">
     <!-- overlap_1f_3s -->
     <g style="fill:#262626;" transform="translate(673.044062 136.234206)scale(0.11 -0.11)">
      <use xlink:href="#ArialMT-6f"/>
      <use x="55.615234" xlink:href="#ArialMT-76"/>
      <use x="105.615234" xlink:href="#ArialMT-65"/>
      <use x="161.230469" xlink:href="#ArialMT-72"/>
      <use x="194.53125" xlink:href="#ArialMT-6c"/>
      <use x="216.748047" xlink:href="#ArialMT-61"/>
      <use x="272.363281" xlink:href="#ArialMT-70"/>
      <use x="327.978516" xlink:href="#ArialMT-5f"/>
      <use x="383.59375" xlink:href="#ArialMT-31"/>
      <use x="439.208984" xlink:href="#ArialMT-66"/>
      <use x="466.992188" xlink:href="#ArialMT-5f"/>
      <use x="522.607422" xlink:href="#ArialMT-33"/>
      <use x="578.222656" xlink:href="#ArialMT-73"/>
     </g>
    </g>
    <g id="line2d_19">
     <path d="M 642.244062 148.078113 
L 664.244062 148.078113 
" style="fill:none;stroke:#8172b3;stroke-dasharray:7.5,1.5,1.5,1.5;stroke-dashoffset:0;stroke-width:1.5;"/>
    </g>
    <g id="line2d_20"/>
    <g id="text_21">
     <!-- overlap_10f_3s -->
     <g style="fill:#262626;" transform="translate(673.044062 151.928112)scale(0.11 -0.11)">
      <use xlink:href="#ArialMT-6f"/>
      <use x="55.615234" xlink:href="#ArialMT-76"/>
      <use x="105.615234" xlink:href="#ArialMT-65"/>
      <use x="161.230469" xlink:href="#ArialMT-72"/>
      <use x="194.53125" xlink:href="#ArialMT-6c"/>
      <use x="216.748047" xlink:href="#ArialMT-61"/>
      <use x="272.363281" xlink:href="#ArialMT-70"/>
      <use x="327.978516" xlink:href="#ArialMT-5f"/>
      <use x="383.59375" xlink:href="#ArialMT-31"/>
      <use x="439.208984" xlink:href="#ArialMT-30"/>
      <use x="494.824219" xlink:href="#ArialMT-66"/>
      <use x="522.607422" xlink:href="#ArialMT-5f"/>
      <use x="578.222656" xlink:href="#ArialMT-33"/>
      <use x="633.837891" xlink:href="#ArialMT-73"/>
     </g>
    </g>
   </g>
  </g>
 </g>
 <defs>
  <clipPath id="pc6fa892142">
   <rect height="458.4888" width="652.86" x="105.3" y="71.4528"/>
  </clipPath>
 </defs>
</svg>
