<?xml version="1.0" encoding="utf-8" standalone="no"?>
<!DOCTYPE svg PUBLIC "-//W3C//DTD SVG 1.1//EN"
  "http://www.w3.org/Graphics/SVG/1.1/DTD/svg11.dtd">
<svg height="595.44pt" version="1.1" viewBox="0 0 842.4 595.44" width="842.4pt" xmlns="http://www.w3.org/2000/svg" xmlns:xlink="http://www.w3.org/1999/xlink">
 <metadata>
  <rdf:RDF xmlns:cc="http://creativecommons.org/ns#" xmlns:dc="http://purl.org/dc/elements/1.1/" xmlns:rdf="http://www.w3.org/1999/02/22-rdf-syntax-ns#">
   <cc:Work>
    <dc:type rdf:resource="http://purl.org/dc/dcmitype/StillImage"/>
    <dc:date>2021-06-04T22:03:14.879051</dc:date>
    <dc:format>image/svg+xml</dc:format>
    <dc:creator>
     <cc:Agent>
      <dc:title>Matplotlib v3.4.1, https://matplotlib.org/</dc:title>
     </cc:Agent>
    </dc:creator>
   </cc:Work>
  </rdf:RDF>
 </metadata>
 <defs>
  <style type="text/css">*{stroke-linecap:butt;stroke-linejoin:round;}</style>
 </defs>
 <g id="figure_1">
  <g id="patch_1">
   <path d="M 0 595.44 
L 842.4 595.44 
L 842.4 0 
L 0 0 
z
" style="fill:#ffffff;"/>
  </g>
  <g id="axes_1">
   <g id="patch_2">
    <path d="M 105.3 529.9416 
L 758.16 529.9416 
L 758.16 71.4528 
L 105.3 71.4528 
z
" style="fill:#ffffff;"/>
   </g>
   <g id="matplotlib.axis_1">
    <g id="xtick_1">
     <g id="text_1">
      <!-- 0 -->
      <g style="fill:#262626;" transform="translate(131.916939 547.315194)scale(0.11 -0.11)">
       <defs>
        <path d="M 266 2259 
Q 266 3072 433 3567 
Q 600 4063 929 4331 
Q 1259 4600 1759 4600 
Q 2128 4600 2406 4451 
Q 2684 4303 2865 4023 
Q 3047 3744 3150 3342 
Q 3253 2941 3253 2259 
Q 3253 1453 3087 958 
Q 2922 463 2592 192 
Q 2263 -78 1759 -78 
Q 1097 -78 719 397 
Q 266 969 266 2259 
z
M 844 2259 
Q 844 1131 1108 757 
Q 1372 384 1759 384 
Q 2147 384 2411 759 
Q 2675 1134 2675 2259 
Q 2675 3391 2411 3762 
Q 2147 4134 1753 4134 
Q 1366 4134 1134 3806 
Q 844 3388 844 2259 
z
" id="ArialMT-30" transform="scale(0.015625)"/>
       </defs>
       <use xlink:href="#ArialMT-30"/>
      </g>
     </g>
    </g>
    <g id="xtick_2">
     <g id="text_2">
      <!-- 25 -->
      <g style="fill:#262626;" transform="translate(201.950676 547.315194)scale(0.11 -0.11)">
       <defs>
        <path d="M 3222 541 
L 3222 0 
L 194 0 
Q 188 203 259 391 
Q 375 700 629 1000 
Q 884 1300 1366 1694 
Q 2113 2306 2375 2664 
Q 2638 3022 2638 3341 
Q 2638 3675 2398 3904 
Q 2159 4134 1775 4134 
Q 1369 4134 1125 3890 
Q 881 3647 878 3216 
L 300 3275 
Q 359 3922 746 4261 
Q 1134 4600 1788 4600 
Q 2447 4600 2831 4234 
Q 3216 3869 3216 3328 
Q 3216 3053 3103 2787 
Q 2991 2522 2730 2228 
Q 2469 1934 1863 1422 
Q 1356 997 1212 845 
Q 1069 694 975 541 
L 3222 541 
z
" id="ArialMT-32" transform="scale(0.015625)"/>
        <path d="M 266 1200 
L 856 1250 
Q 922 819 1161 601 
Q 1400 384 1738 384 
Q 2144 384 2425 690 
Q 2706 997 2706 1503 
Q 2706 1984 2436 2262 
Q 2166 2541 1728 2541 
Q 1456 2541 1237 2417 
Q 1019 2294 894 2097 
L 366 2166 
L 809 4519 
L 3088 4519 
L 3088 3981 
L 1259 3981 
L 1013 2750 
Q 1425 3038 1878 3038 
Q 2478 3038 2890 2622 
Q 3303 2206 3303 1553 
Q 3303 931 2941 478 
Q 2500 -78 1738 -78 
Q 1113 -78 717 272 
Q 322 622 266 1200 
z
" id="ArialMT-35" transform="scale(0.015625)"/>
       </defs>
       <use xlink:href="#ArialMT-32"/>
       <use x="55.615234" xlink:href="#ArialMT-35"/>
      </g>
     </g>
    </g>
    <g id="xtick_3">
     <g id="text_3">
      <!-- 50 -->
      <g style="fill:#262626;" transform="translate(275.042928 547.315194)scale(0.11 -0.11)">
       <use xlink:href="#ArialMT-35"/>
       <use x="55.615234" xlink:href="#ArialMT-30"/>
      </g>
     </g>
    </g>
    <g id="xtick_4">
     <g id="text_4">
      <!-- 75 -->
      <g style="fill:#262626;" transform="translate(348.135181 547.315194)scale(0.11 -0.11)">
       <defs>
        <path d="M 303 3981 
L 303 4522 
L 3269 4522 
L 3269 4084 
Q 2831 3619 2401 2847 
Q 1972 2075 1738 1259 
Q 1569 684 1522 0 
L 944 0 
Q 953 541 1156 1306 
Q 1359 2072 1739 2783 
Q 2119 3494 2547 3981 
L 303 3981 
z
" id="ArialMT-37" transform="scale(0.015625)"/>
       </defs>
       <use xlink:href="#ArialMT-37"/>
       <use x="55.615234" xlink:href="#ArialMT-35"/>
      </g>
     </g>
    </g>
    <g id="xtick_5">
     <g id="text_5">
      <!-- 100 -->
      <g style="fill:#262626;" transform="translate(418.168918 547.315194)scale(0.11 -0.11)">
       <defs>
        <path d="M 2384 0 
L 1822 0 
L 1822 3584 
Q 1619 3391 1289 3197 
Q 959 3003 697 2906 
L 697 3450 
Q 1169 3672 1522 3987 
Q 1875 4303 2022 4600 
L 2384 4600 
L 2384 0 
z
" id="ArialMT-31" transform="scale(0.015625)"/>
       </defs>
       <use xlink:href="#ArialMT-31"/>
       <use x="55.615234" xlink:href="#ArialMT-30"/>
       <use x="111.230469" xlink:href="#ArialMT-30"/>
      </g>
     </g>
    </g>
    <g id="xtick_6">
     <g id="text_6">
      <!-- 125 -->
      <g style="fill:#262626;" transform="translate(491.261171 547.315194)scale(0.11 -0.11)">
       <use xlink:href="#ArialMT-31"/>
       <use x="55.615234" xlink:href="#ArialMT-32"/>
       <use x="111.230469" xlink:href="#ArialMT-35"/>
      </g>
     </g>
    </g>
    <g id="xtick_7">
     <g id="text_7">
      <!-- 150 -->
      <g style="fill:#262626;" transform="translate(564.353423 547.315194)scale(0.11 -0.11)">
       <use xlink:href="#ArialMT-31"/>
       <use x="55.615234" xlink:href="#ArialMT-35"/>
       <use x="111.230469" xlink:href="#ArialMT-30"/>
      </g>
     </g>
    </g>
    <g id="xtick_8">
     <g id="text_8">
      <!-- 175 -->
      <g style="fill:#262626;" transform="translate(637.445676 547.315194)scale(0.11 -0.11)">
       <use xlink:href="#ArialMT-31"/>
       <use x="55.615234" xlink:href="#ArialMT-37"/>
       <use x="111.230469" xlink:href="#ArialMT-35"/>
      </g>
     </g>
    </g>
    <g id="xtick_9">
     <g id="text_9">
      <!-- 200 -->
      <g style="fill:#262626;" transform="translate(710.537928 547.315194)scale(0.11 -0.11)">
       <use xlink:href="#ArialMT-32"/>
       <use x="55.615234" xlink:href="#ArialMT-30"/>
       <use x="111.230469" xlink:href="#ArialMT-30"/>
      </g>
     </g>
    </g>
   </g>
   <g id="matplotlib.axis_2">
    <g id="ytick_1">
     <g id="text_10">
      <!-- −25 -->
      <g style="fill:#262626;" transform="translate(77.14125 533.878397)scale(0.11 -0.11)">
       <defs>
        <path d="M 3381 1997 
L 356 1997 
L 356 2522 
L 3381 2522 
L 3381 1997 
z
" id="ArialMT-2212" transform="scale(0.015625)"/>
       </defs>
       <use xlink:href="#ArialMT-2212"/>
       <use x="58.398438" xlink:href="#ArialMT-32"/>
       <use x="114.013672" xlink:href="#ArialMT-35"/>
      </g>
     </g>
    </g>
    <g id="ytick_2">
     <g id="text_11">
      <!-- −20 -->
      <g style="fill:#262626;" transform="translate(77.14125 442.180637)scale(0.11 -0.11)">
       <use xlink:href="#ArialMT-2212"/>
       <use x="58.398438" xlink:href="#ArialMT-32"/>
       <use x="114.013672" xlink:href="#ArialMT-30"/>
      </g>
     </g>
    </g>
    <g id="ytick_3">
     <g id="text_12">
      <!-- −15 -->
      <g style="fill:#262626;" transform="translate(77.14125 350.482877)scale(0.11 -0.11)">
       <use xlink:href="#ArialMT-2212"/>
       <use x="58.398438" xlink:href="#ArialMT-31"/>
       <use x="114.013672" xlink:href="#ArialMT-35"/>
      </g>
     </g>
    </g>
    <g id="ytick_4">
     <g id="text_13">
      <!-- −10 -->
      <g style="fill:#262626;" transform="translate(77.14125 258.785117)scale(0.11 -0.11)">
       <use xlink:href="#ArialMT-2212"/>
       <use x="58.398438" xlink:href="#ArialMT-31"/>
       <use x="114.013672" xlink:href="#ArialMT-30"/>
      </g>
     </g>
    </g>
    <g id="ytick_5">
     <g id="text_14">
      <!-- −5 -->
      <g style="fill:#262626;" transform="translate(83.258281 167.087357)scale(0.11 -0.11)">
       <use xlink:href="#ArialMT-2212"/>
       <use x="58.398438" xlink:href="#ArialMT-35"/>
      </g>
     </g>
    </g>
    <g id="ytick_6">
     <g id="text_15">
      <!-- 0 -->
      <g style="fill:#262626;" transform="translate(89.682969 75.389597)scale(0.11 -0.11)">
       <use xlink:href="#ArialMT-30"/>
      </g>
     </g>
    </g>
   </g>
   <g id="line2d_1">
    <path clip-path="url(#pb86cce968a)" d="M 134.975455 429.875349 
L 137.899145 431.316242 
L 140.822835 431.456301 
L 143.746525 431.227883 
L 146.670215 437.972186 
L 149.593905 433.530681 
L 152.517595 435.539193 
L 155.441285 437.866652 
L 158.364975 439.283968 
L 161.288665 438.404958 
L 164.212356 434.416022 
L 167.136046 435.506521 
L 170.059736 451.753959 
L 175.907116 463.28446 
L 178.830806 491.382325 
L 181.754496 515.307051 
L 184.678186 438.888135 
L 187.601876 426.795647 
L 190.525567 556.895412 
L 193.449257 552.636362 
L 196.372947 470.298179 
L 199.296637 435.043072 
L 202.220327 363.784604 
L 205.144017 444.544808 
L 208.067707 562.72604 
L 210.991397 473.260174 
L 213.915087 492.761024 
L 216.838777 501.151167 
L 219.762468 486.943094 
L 222.686158 482.080675 
L 225.609848 479.679828 
L 228.533538 486.648073 
L 231.457228 457.3788 
L 234.380918 360.733236 
L 237.304608 468.251294 
L 240.228298 519.903378 
L 243.151988 449.012968 
L 246.075678 406.678241 
L 248.999369 455.474249 
L 251.923059 540.931311 
L 254.846749 468.600254 
L 257.770439 464.450201 
L 260.694129 391.524275 
L 263.617819 508.544138 
L 266.541509 393.43946 
L 269.465199 397.93445 
L 272.388889 449.218615 
L 275.312579 474.654053 
L 278.23627 479.424405 
L 281.15996 460.511987 
L 284.08365 420.056311 
L 287.00734 430.266914 
L 289.93103 477.686707 
L 292.85472 415.517107 
L 295.77841 385.607317 
L 298.7021 422.509802 
L 301.62579 405.105648 
L 304.549481 384.158063 
L 307.473171 372.716796 
L 310.396861 442.004041 
L 313.320551 423.347396 
L 316.244241 421.37215 
L 319.167931 428.474823 
L 322.091621 563.01298 
L 325.015311 479.376133 
L 327.939001 452.024984 
L 330.862691 484.359582 
L 333.786382 425.669154 
L 336.710072 416.291037 
L 339.633762 526.732192 
L 342.557452 532.602208 
L 345.481142 419.190873 
L 348.404832 400.574769 
L 351.328522 461.039134 
L 354.252212 508.71491 
L 357.175902 462.611062 
L 360.099592 435.120553 
L 363.023283 536.770975 
L 365.946973 468.882681 
L 368.870663 492.947047 
L 371.794353 476.869472 
L 374.718043 473.139213 
L 377.641733 505.195861 
L 380.565423 493.43925 
L 383.489113 412.726968 
L 386.412803 349.579871 
L 389.336494 383.859895 
L 392.260184 413.155682 
L 395.183874 452.038311 
L 398.107564 390.472149 
L 401.031254 377.408408 
L 403.954944 383.802458 
L 406.878634 413.735859 
L 409.802324 383.135461 
L 412.726014 371.686813 
L 415.649704 465.444295 
L 418.573395 422.951879 
L 421.497085 489.526571 
L 424.420775 538.898698 
L 427.344465 442.765449 
L 430.268155 443.188741 
L 433.191845 404.87709 
L 436.115535 309.674639 
L 441.962915 492.456139 
L 444.886605 427.472963 
L 447.810296 334.81406 
L 450.733986 397.401601 
L 453.657676 496.364445 
L 456.581366 444.708129 
L 459.505056 541.353764 
L 462.428746 479.463967 
L 468.276126 425.42251 
L 471.199816 433.066987 
L 474.123506 486.997348 
L 477.047197 478.683075 
L 479.970887 387.5791 
L 482.894577 429.558081 
L 485.818267 427.005561 
L 488.741957 453.567144 
L 491.665647 416.937501 
L 494.589337 409.978701 
L 497.513027 488.572004 
L 500.436717 438.212848 
L 503.360408 419.43937 
L 506.284098 480.736747 
L 509.207788 531.330583 
L 512.131478 552.315176 
L 515.055168 504.450578 
L 517.978858 372.337019 
L 520.902548 399.11929 
L 523.826238 434.404374 
L 526.749928 411.528346 
L 529.673618 499.873491 
L 532.597309 572.064699 
L 535.520999 388.87682 
L 538.444689 268.441412 
L 541.368379 468.665316 
L 544.292069 564.538699 
L 547.215759 504.115261 
L 550.139449 507.91373 
L 553.063139 391.046799 
L 555.986829 487.773237 
L 558.910519 490.849826 
L 561.83421 501.575824 
L 564.7579 495.983129 
L 567.68159 449.780882 
L 570.60528 440.233183 
L 573.52897 462.926651 
L 576.45266 462.830806 
L 579.37635 460.580792 
L 582.30004 450.945888 
L 585.22373 410.59788 
L 588.147421 394.38042 
L 591.071111 359.660699 
L 593.994801 421.900592 
L 596.918491 384.435944 
L 599.842181 452.306747 
L 602.765871 411.428723 
L 605.689561 331.094593 
L 608.613251 419.331352 
L 611.536941 537.302424 
L 614.460631 549.023111 
L 617.384322 446.712164 
L 620.308012 499.532612 
L 623.231702 473.584437 
L 626.155392 456.939418 
L 629.079082 414.077403 
L 632.002772 399.123348 
L 634.926462 401.530561 
L 637.850152 417.962343 
L 643.697532 288.002952 
L 646.621223 336.774177 
L 649.544913 403.334125 
L 652.468603 474.79992 
L 655.392293 429.749072 
L 658.315983 396.493802 
L 661.239673 451.527744 
L 664.163363 375.695372 
L 667.087053 440.02019 
L 670.010743 462.740872 
L 672.934433 442.403127 
L 675.858124 445.8993 
L 678.781814 425.298262 
L 681.705504 487.779534 
L 684.629194 514.160164 
L 687.552884 464.242595 
L 690.476574 549.60063 
L 693.400264 460.61 
L 696.323954 476.313676 
L 699.247644 466.311308 
L 702.171335 468.114487 
L 705.095025 475.551883 
L 708.018715 474.332133 
L 710.942405 476.98585 
L 713.866095 476.191141 
L 716.789785 477.733231 
L 719.713475 476.164102 
L 722.637165 476.696146 
L 725.560855 476.970039 
L 728.484545 469.635204 
L 728.484545 469.635204 
" style="fill:none;stroke:#4c72b0;stroke-linecap:round;stroke-width:1.5;"/>
   </g>
   <g id="line2d_2">
    <path clip-path="url(#pb86cce968a)" d="M 134.975455 434.59484 
L 137.899145 440.527609 
L 140.822835 439.509658 
L 143.746525 437.786058 
L 146.670215 444.795859 
L 149.593905 442.309976 
L 152.517595 439.401885 
L 155.441285 439.227685 
L 158.364975 437.769582 
L 161.288665 434.623313 
L 164.212356 429.01075 
L 167.136046 427.747975 
L 170.059736 437.797776 
L 172.983426 440.008227 
L 175.907116 447.062523 
L 178.830806 480.73115 
L 181.754496 497.172901 
L 184.678186 439.952469 
L 187.601876 400.544582 
L 190.525567 544.280254 
L 193.449257 533.019238 
L 196.372947 468.123897 
L 199.296637 434.130481 
L 202.220327 365.853806 
L 205.144017 466.19304 
L 208.067707 572.099679 
L 210.991397 493.819061 
L 213.915087 464.089208 
L 216.838777 502.52336 
L 219.762468 478.235962 
L 222.686158 468.395726 
L 225.609848 460.620949 
L 228.533538 465.870631 
L 231.457228 443.335657 
L 234.380918 339.24668 
L 237.304608 438.641247 
L 240.228298 499.21244 
L 243.151988 440.749172 
L 246.075678 396.775845 
L 248.999369 478.202661 
L 251.923059 545.081364 
L 254.846749 474.152161 
L 257.770439 471.467348 
L 260.694129 409.941972 
L 263.617819 519.739392 
L 266.541509 416.713805 
L 269.465199 414.947773 
L 272.388889 473.975023 
L 275.312579 505.275615 
L 278.23627 501.666701 
L 281.15996 485.872323 
L 284.08365 434.823888 
L 287.00734 442.484036 
L 289.93103 499.49263 
L 292.85472 441.532127 
L 295.77841 389.673103 
L 298.7021 427.951034 
L 301.62579 414.004715 
L 304.549481 401.179187 
L 307.473171 393.948068 
L 310.396861 427.979262 
L 313.320551 446.662212 
L 316.244241 441.115272 
L 319.167931 459.013832 
L 322.091621 551.838575 
L 325.015311 467.178425 
L 327.939001 467.664611 
L 330.862691 480.096579 
L 333.786382 429.768975 
L 336.710072 442.279648 
L 339.633762 533.46943 
L 342.557452 500.662988 
L 345.481142 410.566643 
L 348.404832 420.15303 
L 351.328522 530.199682 
L 354.252212 421.645833 
L 357.175902 329.621308 
L 360.099592 270.192244 
L 363.023283 290.500011 
L 365.946973 354.41546 
L 368.870663 371.671142 
L 371.794353 365.783217 
L 374.718043 346.833632 
L 377.641733 370.405883 
L 380.565423 422.354946 
L 383.489113 352.014071 
L 386.412803 352.303093 
L 389.336494 366.544765 
L 392.260184 399.307307 
L 395.183874 442.603597 
L 398.107564 370.59467 
L 401.031254 362.207115 
L 403.954944 404.66637 
L 406.878634 405.376988 
L 409.802324 399.506692 
L 412.726014 397.339721 
L 415.649704 462.090001 
L 418.573395 388.438416 
L 421.497085 465.068156 
L 424.420775 498.102667 
L 427.344465 400.309726 
L 430.268155 401.795673 
L 433.191845 373.754616 
L 436.115535 284.110807 
L 439.039225 401.055778 
L 441.962915 495.92919 
L 444.886605 397.117599 
L 447.810296 304.828731 
L 450.733986 417.283103 
L 453.657676 489.213395 
L 456.581366 465.183695 
L 459.505056 536.670862 
L 462.428746 456.197563 
L 465.352436 442.639417 
L 468.276126 405.453803 
L 471.199816 432.378862 
L 474.123506 453.323229 
L 477.047197 492.848474 
L 479.970887 367.93826 
L 482.894577 417.899694 
L 485.818267 431.949693 
L 488.741957 455.666638 
L 491.665647 434.136708 
L 494.589337 420.329959 
L 497.513027 490.594018 
L 500.436717 444.15856 
L 503.360408 423.848029 
L 506.284098 494.239975 
L 509.207788 526.133091 
L 512.131478 534.742279 
L 515.055168 488.527019 
L 517.978858 372.433564 
L 520.902548 385.522945 
L 523.826238 416.945931 
L 526.749928 412.317248 
L 529.673618 497.14964 
L 532.597309 554.662434 
L 535.520999 391.523016 
L 538.444689 271.91483 
L 541.368379 431.27633 
L 544.292069 568.930568 
L 547.215759 461.976176 
L 550.139449 459.453879 
L 553.063139 378.449096 
L 555.986829 413.865914 
L 558.910519 393.02187 
L 561.83421 341.884149 
L 564.7579 370.451112 
L 567.68159 385.371937 
L 570.60528 494.968921 
L 573.52897 357.03668 
L 576.45266 410.858271 
L 579.37635 414.688292 
L 582.30004 371.714132 
L 585.22373 411.46052 
L 588.147421 363.069352 
L 591.071111 351.130811 
L 593.994801 428.00088 
L 596.918491 373.684446 
L 599.842181 465.447164 
L 602.765871 402.763008 
L 605.689561 355.918897 
L 608.613251 456.027771 
L 611.536941 543.439756 
L 614.460631 553.997116 
L 617.384322 507.970503 
L 620.308012 517.445094 
L 623.231702 467.139457 
L 626.155392 469.559753 
L 629.079082 399.478639 
L 632.002772 414.093039 
L 634.926462 406.480149 
L 637.850152 380.519417 
L 640.773842 339.113984 
L 643.697532 270.630368 
L 646.621223 360.807621 
L 649.544913 414.498666 
L 652.468603 457.862573 
L 655.392293 441.531358 
L 658.315983 356.963345 
L 661.239673 426.566703 
L 664.163363 351.384677 
L 667.087053 439.194979 
L 670.010743 460.181392 
L 672.934433 427.620159 
L 675.858124 432.70449 
L 678.781814 437.211338 
L 681.705504 482.160009 
L 684.629194 505.816649 
L 687.552884 447.82491 
L 690.476574 531.026047 
L 693.400264 469.218978 
L 696.323954 479.961871 
L 699.247644 462.990594 
L 702.171335 458.103409 
L 705.095025 460.93395 
L 708.018715 461.060367 
L 713.866095 461.757412 
L 716.789785 462.936585 
L 719.713475 463.517671 
L 722.637165 460.347406 
L 725.560855 462.436092 
L 728.484545 453.191914 
L 728.484545 453.191914 
" style="fill:none;stroke:#dd8452;stroke-dasharray:6,2.25;stroke-dashoffset:0;stroke-width:1.5;"/>
   </g>
   <g id="line2d_3">
    <path clip-path="url(#pb86cce968a)" d="M 134.975455 449.700673 
L 137.899145 457.736155 
L 140.822835 455.885228 
L 143.746525 450.901499 
L 146.670215 467.185736 
L 149.593905 462.853578 
L 152.517595 462.28358 
L 155.441285 499.258999 
L 158.364975 497.653595 
L 161.288665 472.709625 
L 164.212356 468.621591 
L 167.136046 456.913847 
L 170.059736 453.683906 
L 172.983426 460.751809 
L 175.907116 468.561706 
L 178.830806 490.96435 
L 181.754496 509.092973 
L 184.678186 418.473959 
L 187.601876 438.009719 
L 190.525567 495.407395 
L 193.449257 497.712187 
L 196.372947 450.756297 
L 199.296637 442.656802 
L 202.220327 448.319491 
L 205.144017 427.184484 
L 208.067707 390.991356 
L 210.991397 406.496905 
L 213.915087 452.816894 
L 216.838777 431.496214 
L 219.762468 404.513578 
L 222.686158 387.560245 
L 225.609848 360.426322 
L 228.533538 413.442867 
L 231.457228 417.293002 
L 234.380918 299.588809 
L 237.304608 434.653851 
L 240.228298 500.17953 
L 243.151988 431.746565 
L 246.075678 349.017219 
L 248.999369 485.944137 
L 251.923059 486.587768 
L 254.846749 459.446708 
L 257.770439 475.441556 
L 260.694129 391.937912 
L 263.617819 495.038427 
L 266.541509 405.627584 
L 269.465199 438.394394 
L 272.388889 457.508961 
L 275.312579 503.216242 
L 278.23627 473.836783 
L 281.15996 423.864784 
L 284.08365 388.836033 
L 287.00734 348.926376 
L 289.93103 429.857194 
L 292.85472 387.561889 
L 295.77841 410.475031 
L 298.7021 454.133958 
L 301.62579 444.729887 
L 304.549481 406.458392 
L 307.473171 394.814731 
L 310.396861 469.924803 
L 313.320551 503.180038 
L 316.244241 470.424561 
L 319.167931 492.119212 
L 322.091621 595.967807 
L 325.015311 473.438116 
L 327.939001 464.285516 
L 330.862691 516.108231 
L 333.786382 473.835278 
L 336.710072 469.918927 
L 339.633762 588.319658 
L 342.557452 576.039572 
L 345.481142 470.0444 
L 348.404832 476.457093 
L 351.328522 572.352828 
L 354.252212 550.214177 
L 357.175902 498.949706 
L 360.099592 415.997206 
L 363.023283 316.194021 
L 365.946973 356.507644 
L 368.870663 412.213113 
L 371.794353 313.834311 
L 374.718043 352.315143 
L 377.641733 380.089024 
L 380.565423 409.596265 
L 383.489113 369.485177 
L 386.412803 387.026312 
L 389.336494 371.861537 
L 392.260184 378.082296 
L 395.183874 412.865349 
L 398.107564 407.3586 
L 401.031254 316.829711 
L 403.954944 353.733264 
L 406.878634 378.851715 
L 409.802324 423.340051 
L 412.726014 398.494269 
L 415.649704 508.126793 
L 418.573395 487.574271 
L 421.497085 519.413414 
L 424.420775 540.388353 
L 427.344465 428.427495 
L 430.268155 419.383367 
L 433.191845 319.198184 
L 436.115535 274.16187 
L 439.039225 375.930647 
L 441.962915 420.943262 
L 444.886605 421.44232 
L 447.810296 422.159898 
L 450.733986 436.624165 
L 453.657676 478.070157 
L 456.581366 509.227926 
L 459.505056 582.851806 
L 462.428746 467.941792 
L 465.352436 432.118261 
L 468.276126 406.621223 
L 471.199816 377.989285 
L 474.123506 381.242102 
L 477.047197 464.429913 
L 479.970887 359.544985 
L 482.894577 386.593995 
L 485.818267 407.059557 
L 488.741957 458.024914 
L 491.665647 409.992133 
L 494.589337 406.286745 
L 497.513027 433.472334 
L 500.436717 364.249854 
L 503.360408 390.651911 
L 506.284098 363.489793 
L 509.207788 476.705451 
L 512.131478 474.188261 
L 515.055168 376.195584 
L 517.978858 329.90636 
L 520.902548 373.658596 
L 523.826238 429.83925 
L 526.749928 456.599833 
L 529.673618 459.986483 
L 532.597309 481.225871 
L 535.520999 394.033524 
L 538.444689 297.501522 
L 544.292069 522.825005 
L 547.215759 423.626466 
L 550.139449 424.610696 
L 553.063139 342.170267 
L 555.986829 357.015395 
L 558.910519 427.579057 
L 561.83421 351.213661 
L 564.7579 353.249807 
L 567.68159 419.895543 
L 570.60528 394.616989 
L 573.52897 410.814546 
L 576.45266 454.946856 
L 579.37635 407.906106 
L 582.30004 437.88736 
L 585.22373 513.981522 
L 588.147421 405.570601 
L 591.071111 210.263868 
L 593.994801 277.254882 
L 596.918491 288.366673 
L 599.842181 365.665614 
L 602.765871 341.248056 
L 605.689561 392.500145 
L 608.613251 450.845881 
L 611.536941 531.809108 
L 614.460631 536.022824 
L 617.384322 476.304476 
L 620.308012 505.51855 
L 623.231702 465.413268 
L 626.155392 449.513496 
L 629.079082 403.113157 
L 632.002772 434.314511 
L 634.926462 401.136512 
L 637.850152 366.69231 
L 640.773842 330.754465 
L 643.697532 278.808113 
L 646.621223 329.784262 
L 649.544913 371.052767 
L 652.468603 347.405624 
L 655.392293 430.980505 
L 658.315983 332.516299 
L 661.239673 281.309335 
L 664.163363 251.788871 
L 667.087053 386.501333 
L 670.010743 360.384329 
L 672.934433 381.445721 
L 675.858124 479.987756 
L 678.781814 439.253151 
L 681.705504 403.818177 
L 684.629194 432.925948 
L 687.552884 504.742906 
L 690.476574 486.384954 
L 693.400264 453.566724 
L 696.323954 489.419917 
L 699.247644 453.426349 
L 702.171335 438.299633 
L 705.095025 448.856678 
L 708.018715 454.232217 
L 710.942405 463.075875 
L 713.866095 460.024297 
L 716.789785 461.658838 
L 719.713475 459.090823 
L 722.637165 463.312164 
L 725.560855 462.269238 
L 728.484545 454.873189 
L 728.484545 454.873189 
" style="fill:none;stroke:#55a868;stroke-dasharray:1.5,1.5;stroke-dashoffset:0;stroke-width:1.5;"/>
   </g>
   <g id="line2d_4">
    <path clip-path="url(#pb86cce968a)" d="M 134.975455 434.358271 
L 137.899145 440.299365 
L 140.822835 439.396673 
L 143.746525 437.58982 
L 146.670215 444.713061 
L 149.593905 442.31928 
L 152.517595 439.490769 
L 155.441285 439.533794 
L 158.364975 438.254404 
L 161.288665 435.162039 
L 164.212356 429.514216 
L 167.136046 428.309928 
L 170.059736 438.529941 
L 172.983426 440.615863 
L 175.907116 447.664947 
L 178.830806 481.465518 
L 181.754496 498.37642 
L 184.678186 440.949257 
L 187.601876 401.220778 
L 190.525567 544.893592 
L 193.449257 534.723845 
L 196.372947 466.946648 
L 199.296637 432.898838 
L 202.220327 366.035772 
L 205.144017 463.466286 
L 208.067707 575.622471 
L 210.991397 489.738689 
L 213.915087 476.527333 
L 216.838777 497.697425 
L 219.762468 479.549318 
L 222.686158 469.156224 
L 225.609848 460.196328 
L 228.533538 467.312573 
L 231.457228 444.820764 
L 234.380918 339.896082 
L 237.304608 443.026504 
L 240.228298 503.135159 
L 243.151988 441.371814 
L 246.075678 398.489581 
L 248.999369 478.859794 
L 251.923059 545.050966 
L 254.846749 473.468374 
L 257.770439 469.809894 
L 260.694129 412.253725 
L 263.617819 521.976078 
L 266.541509 413.188318 
L 269.465199 417.824767 
L 272.388889 476.011379 
L 275.312579 512.841491 
L 278.23627 506.632591 
L 281.15996 484.573449 
L 284.08365 433.240802 
L 287.00734 450.257029 
L 289.93103 501.968228 
L 292.85472 436.664322 
L 295.77841 391.194834 
L 298.7021 429.706186 
L 301.62579 416.394473 
L 304.549481 405.190615 
L 307.473171 394.931424 
L 310.396861 430.82341 
L 313.320551 445.843297 
L 316.244241 438.939101 
L 319.167931 464.342638 
L 322.091621 566.831703 
L 325.015311 463.777817 
L 327.939001 457.898007 
L 330.862691 492.864459 
L 333.786382 427.993814 
L 336.710072 444.04407 
L 339.633762 555.493557 
L 342.557452 505.566858 
L 345.481142 428.940161 
L 348.404832 365.001451 
L 351.328522 500.730884 
L 354.252212 388.494559 
L 357.175902 397.314151 
L 360.099592 325.636029 
L 363.023283 444.257378 
L 365.946973 370.888326 
L 368.870663 392.702433 
L 371.794353 395.118636 
L 374.718043 385.058901 
L 377.641733 382.906762 
L 380.565423 431.75503 
L 383.489113 349.798478 
L 386.412803 355.684217 
L 389.336494 367.242264 
L 392.260184 399.245847 
L 395.183874 444.020144 
L 398.107564 374.20834 
L 401.031254 366.833104 
L 403.954944 400.086729 
L 406.878634 396.241912 
L 409.802324 399.397345 
L 412.726014 396.218195 
L 415.649704 466.180867 
L 418.573395 392.21992 
L 421.497085 473.538789 
L 424.420775 507.805153 
L 427.344465 405.327071 
L 430.268155 401.303926 
L 433.191845 371.72648 
L 436.115535 284.691561 
L 439.039225 399.696668 
L 441.962915 494.842469 
L 444.886605 395.385428 
L 447.810296 306.845026 
L 450.733986 414.348777 
L 453.657676 493.813884 
L 456.581366 464.900532 
L 459.505056 537.985652 
L 462.428746 456.305512 
L 465.352436 446.806994 
L 468.276126 406.555916 
L 474.123506 460.76783 
L 477.047197 500.281182 
L 479.970887 368.383974 
L 482.894577 419.31694 
L 485.818267 432.697564 
L 488.741957 456.623864 
L 491.665647 435.701569 
L 494.589337 420.297532 
L 497.513027 490.951163 
L 500.436717 443.000165 
L 503.360408 422.745462 
L 506.284098 491.75773 
L 509.207788 526.579435 
L 512.131478 534.691593 
L 515.055168 506.01488 
L 517.978858 377.380669 
L 520.902548 393.560806 
L 523.826238 426.992339 
L 526.749928 414.071771 
L 529.673618 491.943893 
L 532.597309 557.853967 
L 535.520999 404.723738 
L 538.444689 284.850212 
L 541.368379 444.574261 
L 544.292069 577.771288 
L 547.215759 468.915703 
L 550.139449 479.324327 
L 553.063139 354.960884 
L 555.986829 458.580151 
L 558.910519 492.948901 
L 561.83421 447.822077 
L 564.7579 425.173803 
L 567.68159 285.375086 
L 570.60528 396.368714 
L 573.52897 449.268461 
L 576.45266 454.161312 
L 579.37635 441.683311 
L 582.30004 424.352999 
L 585.22373 464.849986 
L 588.147421 351.892883 
L 591.071111 341.874354 
L 593.994801 450.012344 
L 596.918491 397.956033 
L 599.842181 462.356408 
L 602.765871 417.581167 
L 605.689561 361.746219 
L 608.613251 462.64821 
L 611.536941 548.536226 
L 614.460631 565.335402 
L 617.384322 509.406778 
L 620.308012 520.157752 
L 623.231702 473.628477 
L 626.155392 469.160352 
L 629.079082 403.072825 
L 632.002772 415.525782 
L 634.926462 411.784644 
L 637.850152 383.630986 
L 640.773842 340.835766 
L 643.697532 270.416413 
L 646.621223 364.09659 
L 649.544913 414.895094 
L 652.468603 459.48655 
L 655.392293 443.587862 
L 658.315983 358.252687 
L 661.239673 426.491112 
L 664.163363 350.909563 
L 667.087053 436.980925 
L 670.010743 460.581212 
L 672.934433 427.852355 
L 675.858124 432.298688 
L 678.781814 437.865777 
L 681.705504 480.639013 
L 684.629194 506.013761 
L 687.552884 448.202203 
L 690.476574 532.24111 
L 693.400264 469.066676 
L 696.323954 479.775219 
L 699.247644 464.599495 
L 702.171335 458.412562 
L 705.095025 461.024303 
L 708.018715 462.079472 
L 710.942405 463.266515 
L 713.866095 463.827174 
L 716.789785 463.889193 
L 719.713475 464.258126 
L 722.637165 462.146773 
L 725.560855 463.697503 
L 728.484545 455.723481 
L 728.484545 455.723481 
" style="fill:none;stroke:#c44e52;stroke-dasharray:4.5,1.875,2.25,1.875;stroke-dashoffset:0;stroke-width:1.5;"/>
   </g>
   <g id="line2d_5">
    <path clip-path="url(#pb86cce968a)" d="M 134.975455 434.308599 
L 137.899145 440.149931 
L 140.822835 439.62044 
L 143.746525 437.827509 
L 146.670215 444.823143 
L 149.593905 443.690808 
L 152.517595 441.119014 
L 155.441285 442.314978 
L 158.364975 440.595015 
L 161.288665 437.717042 
L 164.212356 430.856046 
L 167.136046 428.703976 
L 170.059736 437.094575 
L 172.983426 439.434906 
L 175.907116 445.162064 
L 178.830806 479.318311 
L 181.754496 503.721492 
L 184.678186 435.941916 
L 187.601876 414.243138 
L 190.525567 546.173507 
L 193.449257 542.149697 
L 196.372947 474.481113 
L 199.296637 439.648004 
L 202.220327 365.946363 
L 205.144017 454.769893 
L 208.067707 575.918402 
L 210.991397 487.043941 
L 213.915087 460.140605 
L 216.838777 500.680932 
L 219.762468 478.532872 
L 222.686158 471.789548 
L 225.609848 471.14994 
L 228.533538 470.174595 
L 231.457228 447.087673 
L 234.380918 343.987614 
L 237.304608 441.473186 
L 240.228298 503.603575 
L 243.151988 442.038916 
L 246.075678 398.538588 
L 248.999369 474.045088 
L 251.923059 553.617793 
L 254.846749 475.045094 
L 257.770439 472.497611 
L 260.694129 404.84134 
L 263.617819 516.538274 
L 266.541509 409.561705 
L 269.465199 414.598289 
L 272.388889 469.248711 
L 275.312579 506.705979 
L 278.23627 504.298101 
L 281.15996 488.876819 
L 284.08365 437.919121 
L 287.00734 447.669109 
L 289.93103 500.138324 
L 292.85472 439.360049 
L 295.77841 387.372718 
L 298.7021 426.569677 
L 301.62579 415.295264 
L 304.549481 399.160916 
L 307.473171 389.354331 
L 310.396861 442.506178 
L 313.320551 450.59525 
L 316.244241 434.211635 
L 319.167931 447.09306 
L 322.091621 569.211492 
L 325.015311 472.25632 
L 327.939001 465.165925 
L 330.862691 454.615107 
L 333.786382 442.477075 
L 336.710072 417.387273 
L 339.633762 491.826815 
L 342.557452 513.324109 
L 348.404832 373.985903 
L 351.328522 461.118119 
L 354.252212 534.042261 
L 357.175902 468.782744 
L 360.099592 462.904893 
L 363.023283 557.99616 
L 365.946973 453.306928 
L 368.870663 462.851654 
L 371.794353 421.459495 
L 374.718043 421.133412 
L 377.641733 471.504461 
L 380.565423 483.311758 
L 383.489113 390.232641 
L 386.412803 341.520445 
L 389.336494 374.094481 
L 392.260184 416.331089 
L 395.183874 456.870822 
L 398.107564 365.419286 
L 401.031254 379.854939 
L 403.954944 414.727785 
L 406.878634 421.390095 
L 409.802324 421.713519 
L 412.726014 401.597932 
L 415.649704 493.549506 
L 418.573395 408.598253 
L 421.497085 491.142468 
L 424.420775 520.732507 
L 427.344465 410.71982 
L 430.268155 401.66205 
L 433.191845 378.09307 
L 436.115535 287.462513 
L 441.962915 494.603626 
L 447.810296 305.015016 
L 450.733986 408.785011 
L 453.657676 473.210922 
L 456.581366 447.199504 
L 459.505056 510.887793 
L 462.428746 443.681608 
L 465.352436 441.849465 
L 468.276126 410.360542 
L 471.199816 440.283484 
L 474.123506 467.442628 
L 477.047197 483.671352 
L 479.970887 367.862248 
L 482.894577 418.379898 
L 485.818267 433.38415 
L 488.741957 483.57813 
L 491.665647 495.312389 
L 494.589337 376.695587 
L 497.513027 480.427769 
L 500.436717 485.728766 
L 503.360408 472.765138 
L 506.284098 512.057382 
L 509.207788 446.506482 
L 512.131478 431.404286 
L 515.055168 429.014878 
L 517.978858 475.559788 
L 520.902548 462.949108 
L 523.826238 446.611841 
L 526.749928 452.243538 
L 529.673618 386.774002 
L 532.597309 328.925243 
L 535.520999 397.086712 
L 538.444689 372.227812 
L 541.368379 333.740334 
L 544.292069 328.944534 
L 547.215759 325.849826 
L 550.139449 298.828223 
L 553.063139 287.520894 
L 555.986829 303.271652 
L 558.910519 300.647581 
L 561.83421 304.194982 
L 564.7579 329.645462 
L 567.68159 364.323487 
L 570.60528 335.421276 
L 573.52897 389.313509 
L 576.45266 414.0915 
L 579.37635 413.041822 
L 582.30004 361.143183 
L 585.22373 407.179083 
L 588.147421 321.574808 
L 591.071111 308.060595 
L 593.994801 409.614315 
L 596.918491 383.98145 
L 599.842181 441.595161 
L 602.765871 399.175188 
L 605.689561 351.670498 
L 608.613251 453.157634 
L 611.536941 535.238574 
L 614.460631 558.826968 
L 617.384322 502.369938 
L 620.308012 521.676685 
L 623.231702 468.892511 
L 626.155392 466.98593 
L 629.079082 403.907271 
L 632.002772 412.147176 
L 634.926462 408.362069 
L 637.850152 384.693921 
L 640.773842 332.779418 
L 643.697532 270.411796 
L 646.621223 362.451012 
L 649.544913 404.805591 
L 652.468603 449.255554 
L 655.392293 430.614545 
L 658.315983 364.061313 
L 661.239673 420.926856 
L 664.163363 343.695374 
L 667.087053 427.018609 
L 670.010743 453.981306 
L 672.934433 428.990007 
L 675.858124 424.932162 
L 678.781814 419.697592 
L 681.705504 477.212799 
L 684.629194 493.827876 
L 687.552884 437.466376 
L 690.476574 519.871826 
L 693.400264 462.911189 
L 696.323954 476.604848 
L 699.247644 463.896959 
L 702.171335 452.519145 
L 705.095025 454.728757 
L 708.018715 454.578938 
L 710.942405 454.962423 
L 713.866095 454.858147 
L 716.789785 455.186434 
L 719.713475 455.199342 
L 722.637165 452.683551 
L 725.560855 455.242367 
L 728.484545 448.497679 
L 728.484545 448.497679 
" style="fill:none;stroke:#8172b3;stroke-dasharray:7.5,1.5,1.5,1.5;stroke-dashoffset:0;stroke-width:1.5;"/>
   </g>
   <g id="line2d_6"/>
   <g id="line2d_7"/>
   <g id="line2d_8"/>
   <g id="line2d_9"/>
   <g id="line2d_10"/>
   <g id="patch_3">
    <path d="M 105.3 529.9416 
L 105.3 71.4528 
" style="fill:none;stroke:#262626;stroke-linecap:square;stroke-linejoin:miter;stroke-width:1.25;"/>
   </g>
   <g id="patch_4">
    <path d="M 758.16 529.9416 
L 758.16 71.4528 
" style="fill:none;stroke:#262626;stroke-linecap:square;stroke-linejoin:miter;stroke-width:1.25;"/>
   </g>
   <g id="patch_5">
    <path d="M 105.3 529.9416 
L 758.16 529.9416 
" style="fill:none;stroke:#262626;stroke-linecap:square;stroke-linejoin:miter;stroke-width:1.25;"/>
   </g>
   <g id="patch_6">
    <path d="M 105.3 71.4528 
L 758.16 71.4528 
" style="fill:none;stroke:#262626;stroke-linecap:square;stroke-linejoin:miter;stroke-width:1.25;"/>
   </g>
   <g id="text_16">
    <!-- Activations for &gt;,&lt; -->
    <g style="fill:#262626;" transform="translate(383.7075 65.4528)scale(0.12 -0.12)">
     <defs>
      <path d="M -9 0 
L 1750 4581 
L 2403 4581 
L 4278 0 
L 3588 0 
L 3053 1388 
L 1138 1388 
L 634 0 
L -9 0 
z
M 1313 1881 
L 2866 1881 
L 2388 3150 
Q 2169 3728 2063 4100 
Q 1975 3659 1816 3225 
L 1313 1881 
z
" id="ArialMT-41" transform="scale(0.015625)"/>
      <path d="M 2588 1216 
L 3141 1144 
Q 3050 572 2676 248 
Q 2303 -75 1759 -75 
Q 1078 -75 664 370 
Q 250 816 250 1647 
Q 250 2184 428 2587 
Q 606 2991 970 3192 
Q 1334 3394 1763 3394 
Q 2303 3394 2647 3120 
Q 2991 2847 3088 2344 
L 2541 2259 
Q 2463 2594 2264 2762 
Q 2066 2931 1784 2931 
Q 1359 2931 1093 2626 
Q 828 2322 828 1663 
Q 828 994 1084 691 
Q 1341 388 1753 388 
Q 2084 388 2306 591 
Q 2528 794 2588 1216 
z
" id="ArialMT-63" transform="scale(0.015625)"/>
      <path d="M 1650 503 
L 1731 6 
Q 1494 -44 1306 -44 
Q 1000 -44 831 53 
Q 663 150 594 308 
Q 525 466 525 972 
L 525 2881 
L 113 2881 
L 113 3319 
L 525 3319 
L 525 4141 
L 1084 4478 
L 1084 3319 
L 1650 3319 
L 1650 2881 
L 1084 2881 
L 1084 941 
Q 1084 700 1114 631 
Q 1144 563 1211 522 
Q 1278 481 1403 481 
Q 1497 481 1650 503 
z
" id="ArialMT-74" transform="scale(0.015625)"/>
      <path d="M 425 3934 
L 425 4581 
L 988 4581 
L 988 3934 
L 425 3934 
z
M 425 0 
L 425 3319 
L 988 3319 
L 988 0 
L 425 0 
z
" id="ArialMT-69" transform="scale(0.015625)"/>
      <path d="M 1344 0 
L 81 3319 
L 675 3319 
L 1388 1331 
Q 1503 1009 1600 663 
Q 1675 925 1809 1294 
L 2547 3319 
L 3125 3319 
L 1869 0 
L 1344 0 
z
" id="ArialMT-76" transform="scale(0.015625)"/>
      <path d="M 2588 409 
Q 2275 144 1986 34 
Q 1697 -75 1366 -75 
Q 819 -75 525 192 
Q 231 459 231 875 
Q 231 1119 342 1320 
Q 453 1522 633 1644 
Q 813 1766 1038 1828 
Q 1203 1872 1538 1913 
Q 2219 1994 2541 2106 
Q 2544 2222 2544 2253 
Q 2544 2597 2384 2738 
Q 2169 2928 1744 2928 
Q 1347 2928 1158 2789 
Q 969 2650 878 2297 
L 328 2372 
Q 403 2725 575 2942 
Q 747 3159 1072 3276 
Q 1397 3394 1825 3394 
Q 2250 3394 2515 3294 
Q 2781 3194 2906 3042 
Q 3031 2891 3081 2659 
Q 3109 2516 3109 2141 
L 3109 1391 
Q 3109 606 3145 398 
Q 3181 191 3288 0 
L 2700 0 
Q 2613 175 2588 409 
z
M 2541 1666 
Q 2234 1541 1622 1453 
Q 1275 1403 1131 1340 
Q 988 1278 909 1158 
Q 831 1038 831 891 
Q 831 666 1001 516 
Q 1172 366 1500 366 
Q 1825 366 2078 508 
Q 2331 650 2450 897 
Q 2541 1088 2541 1459 
L 2541 1666 
z
" id="ArialMT-61" transform="scale(0.015625)"/>
      <path d="M 213 1659 
Q 213 2581 725 3025 
Q 1153 3394 1769 3394 
Q 2453 3394 2887 2945 
Q 3322 2497 3322 1706 
Q 3322 1066 3130 698 
Q 2938 331 2570 128 
Q 2203 -75 1769 -75 
Q 1072 -75 642 372 
Q 213 819 213 1659 
z
M 791 1659 
Q 791 1022 1069 705 
Q 1347 388 1769 388 
Q 2188 388 2466 706 
Q 2744 1025 2744 1678 
Q 2744 2294 2464 2611 
Q 2184 2928 1769 2928 
Q 1347 2928 1069 2612 
Q 791 2297 791 1659 
z
" id="ArialMT-6f" transform="scale(0.015625)"/>
      <path d="M 422 0 
L 422 3319 
L 928 3319 
L 928 2847 
Q 1294 3394 1984 3394 
Q 2284 3394 2536 3286 
Q 2788 3178 2913 3003 
Q 3038 2828 3088 2588 
Q 3119 2431 3119 2041 
L 3119 0 
L 2556 0 
L 2556 2019 
Q 2556 2363 2490 2533 
Q 2425 2703 2258 2804 
Q 2091 2906 1866 2906 
Q 1506 2906 1245 2678 
Q 984 2450 984 1813 
L 984 0 
L 422 0 
z
" id="ArialMT-6e" transform="scale(0.015625)"/>
      <path d="M 197 991 
L 753 1078 
Q 800 744 1014 566 
Q 1228 388 1613 388 
Q 2000 388 2187 545 
Q 2375 703 2375 916 
Q 2375 1106 2209 1216 
Q 2094 1291 1634 1406 
Q 1016 1563 777 1677 
Q 538 1791 414 1992 
Q 291 2194 291 2438 
Q 291 2659 392 2848 
Q 494 3038 669 3163 
Q 800 3259 1026 3326 
Q 1253 3394 1513 3394 
Q 1903 3394 2198 3281 
Q 2494 3169 2634 2976 
Q 2775 2784 2828 2463 
L 2278 2388 
Q 2241 2644 2061 2787 
Q 1881 2931 1553 2931 
Q 1166 2931 1000 2803 
Q 834 2675 834 2503 
Q 834 2394 903 2306 
Q 972 2216 1119 2156 
Q 1203 2125 1616 2013 
Q 2213 1853 2448 1751 
Q 2684 1650 2818 1456 
Q 2953 1263 2953 975 
Q 2953 694 2789 445 
Q 2625 197 2315 61 
Q 2006 -75 1616 -75 
Q 969 -75 630 194 
Q 291 463 197 991 
z
" id="ArialMT-73" transform="scale(0.015625)"/>
      <path id="ArialMT-20" transform="scale(0.015625)"/>
      <path d="M 556 0 
L 556 2881 
L 59 2881 
L 59 3319 
L 556 3319 
L 556 3672 
Q 556 4006 616 4169 
Q 697 4388 901 4523 
Q 1106 4659 1475 4659 
Q 1713 4659 2000 4603 
L 1916 4113 
Q 1741 4144 1584 4144 
Q 1328 4144 1222 4034 
Q 1116 3925 1116 3625 
L 1116 3319 
L 1763 3319 
L 1763 2881 
L 1116 2881 
L 1116 0 
L 556 0 
z
" id="ArialMT-66" transform="scale(0.015625)"/>
      <path d="M 416 0 
L 416 3319 
L 922 3319 
L 922 2816 
Q 1116 3169 1280 3281 
Q 1444 3394 1641 3394 
Q 1925 3394 2219 3213 
L 2025 2691 
Q 1819 2813 1613 2813 
Q 1428 2813 1281 2702 
Q 1134 2591 1072 2394 
Q 978 2094 978 1738 
L 978 0 
L 416 0 
z
" id="ArialMT-72" transform="scale(0.015625)"/>
      <path d="M 3384 2003 
L 350 706 
L 350 1266 
L 2753 2263 
L 350 3250 
L 350 3809 
L 3384 2528 
L 3384 2003 
z
" id="ArialMT-3e" transform="scale(0.015625)"/>
      <path d="M 569 0 
L 569 641 
L 1209 641 
L 1209 0 
Q 1209 -353 1084 -570 
Q 959 -788 688 -906 
L 531 -666 
Q 709 -588 793 -436 
Q 878 -284 888 0 
L 569 0 
z
" id="ArialMT-2c" transform="scale(0.015625)"/>
      <path d="M 350 2003 
L 350 2528 
L 3384 3809 
L 3384 3250 
L 978 2263 
L 3384 1266 
L 3384 706 
L 350 2003 
z
" id="ArialMT-3c" transform="scale(0.015625)"/>
     </defs>
     <use xlink:href="#ArialMT-41"/>
     <use x="66.699219" xlink:href="#ArialMT-63"/>
     <use x="116.699219" xlink:href="#ArialMT-74"/>
     <use x="144.482422" xlink:href="#ArialMT-69"/>
     <use x="166.699219" xlink:href="#ArialMT-76"/>
     <use x="216.699219" xlink:href="#ArialMT-61"/>
     <use x="272.314453" xlink:href="#ArialMT-74"/>
     <use x="300.097656" xlink:href="#ArialMT-69"/>
     <use x="322.314453" xlink:href="#ArialMT-6f"/>
     <use x="377.929688" xlink:href="#ArialMT-6e"/>
     <use x="433.544922" xlink:href="#ArialMT-73"/>
     <use x="483.544922" xlink:href="#ArialMT-20"/>
     <use x="511.328125" xlink:href="#ArialMT-66"/>
     <use x="539.111328" xlink:href="#ArialMT-6f"/>
     <use x="594.726562" xlink:href="#ArialMT-72"/>
     <use x="628.027344" xlink:href="#ArialMT-20"/>
     <use x="655.810547" xlink:href="#ArialMT-3e"/>
     <use x="714.208984" xlink:href="#ArialMT-2c"/>
     <use x="741.992188" xlink:href="#ArialMT-3c"/>
    </g>
   </g>
   <g id="legend_1">
    <g id="patch_7">
     <path d="M 640.044062 158.514363 
L 750.46 158.514363 
Q 752.66 158.514363 752.66 156.314363 
L 752.66 79.1528 
Q 752.66 76.9528 750.46 76.9528 
L 640.044062 76.9528 
Q 637.844062 76.9528 637.844062 79.1528 
L 637.844062 156.314363 
Q 637.844062 158.514363 640.044062 158.514363 
z
" style="fill:#ffffff;opacity:0.8;stroke:#cccccc;stroke-linejoin:miter;"/>
    </g>
    <g id="line2d_11">
     <path d="M 642.244062 85.376394 
L 664.244062 85.376394 
" style="fill:none;stroke:#4c72b0;stroke-linecap:round;stroke-width:1.5;"/>
    </g>
    <g id="line2d_12"/>
    <g id="text_17">
     <!-- regular -->
     <g style="fill:#262626;" transform="translate(673.044062 89.226394)scale(0.11 -0.11)">
      <defs>
       <path d="M 2694 1069 
L 3275 997 
Q 3138 488 2766 206 
Q 2394 -75 1816 -75 
Q 1088 -75 661 373 
Q 234 822 234 1631 
Q 234 2469 665 2931 
Q 1097 3394 1784 3394 
Q 2450 3394 2872 2941 
Q 3294 2488 3294 1666 
Q 3294 1616 3291 1516 
L 816 1516 
Q 847 969 1125 678 
Q 1403 388 1819 388 
Q 2128 388 2347 550 
Q 2566 713 2694 1069 
z
M 847 1978 
L 2700 1978 
Q 2663 2397 2488 2606 
Q 2219 2931 1791 2931 
Q 1403 2931 1139 2672 
Q 875 2413 847 1978 
z
" id="ArialMT-65" transform="scale(0.015625)"/>
       <path d="M 319 -275 
L 866 -356 
Q 900 -609 1056 -725 
Q 1266 -881 1628 -881 
Q 2019 -881 2231 -725 
Q 2444 -569 2519 -288 
Q 2563 -116 2559 434 
Q 2191 0 1641 0 
Q 956 0 581 494 
Q 206 988 206 1678 
Q 206 2153 378 2554 
Q 550 2956 876 3175 
Q 1203 3394 1644 3394 
Q 2231 3394 2613 2919 
L 2613 3319 
L 3131 3319 
L 3131 450 
Q 3131 -325 2973 -648 
Q 2816 -972 2473 -1159 
Q 2131 -1347 1631 -1347 
Q 1038 -1347 672 -1080 
Q 306 -813 319 -275 
z
M 784 1719 
Q 784 1066 1043 766 
Q 1303 466 1694 466 
Q 2081 466 2343 764 
Q 2606 1063 2606 1700 
Q 2606 2309 2336 2618 
Q 2066 2928 1684 2928 
Q 1309 2928 1046 2623 
Q 784 2319 784 1719 
z
" id="ArialMT-67" transform="scale(0.015625)"/>
       <path d="M 2597 0 
L 2597 488 
Q 2209 -75 1544 -75 
Q 1250 -75 995 37 
Q 741 150 617 320 
Q 494 491 444 738 
Q 409 903 409 1263 
L 409 3319 
L 972 3319 
L 972 1478 
Q 972 1038 1006 884 
Q 1059 663 1231 536 
Q 1403 409 1656 409 
Q 1909 409 2131 539 
Q 2353 669 2445 892 
Q 2538 1116 2538 1541 
L 2538 3319 
L 3100 3319 
L 3100 0 
L 2597 0 
z
" id="ArialMT-75" transform="scale(0.015625)"/>
       <path d="M 409 0 
L 409 4581 
L 972 4581 
L 972 0 
L 409 0 
z
" id="ArialMT-6c" transform="scale(0.015625)"/>
      </defs>
      <use xlink:href="#ArialMT-72"/>
      <use x="33.300781" xlink:href="#ArialMT-65"/>
      <use x="88.916016" xlink:href="#ArialMT-67"/>
      <use x="144.53125" xlink:href="#ArialMT-75"/>
      <use x="200.146484" xlink:href="#ArialMT-6c"/>
      <use x="222.363281" xlink:href="#ArialMT-61"/>
      <use x="277.978516" xlink:href="#ArialMT-72"/>
     </g>
    </g>
    <g id="line2d_13">
     <path d="M 642.244062 101.0978 
L 664.244062 101.0978 
" style="fill:none;stroke:#dd8452;stroke-dasharray:6,2.25;stroke-dashoffset:0;stroke-width:1.5;"/>
    </g>
    <g id="line2d_14"/>
    <g id="text_18">
     <!-- splitted_3s -->
     <g style="fill:#262626;" transform="translate(673.044062 104.9478)scale(0.11 -0.11)">
      <defs>
       <path d="M 422 -1272 
L 422 3319 
L 934 3319 
L 934 2888 
Q 1116 3141 1344 3267 
Q 1572 3394 1897 3394 
Q 2322 3394 2647 3175 
Q 2972 2956 3137 2557 
Q 3303 2159 3303 1684 
Q 3303 1175 3120 767 
Q 2938 359 2589 142 
Q 2241 -75 1856 -75 
Q 1575 -75 1351 44 
Q 1128 163 984 344 
L 984 -1272 
L 422 -1272 
z
M 931 1641 
Q 931 1000 1190 694 
Q 1450 388 1819 388 
Q 2194 388 2461 705 
Q 2728 1022 2728 1688 
Q 2728 2322 2467 2637 
Q 2206 2953 1844 2953 
Q 1484 2953 1207 2617 
Q 931 2281 931 1641 
z
" id="ArialMT-70" transform="scale(0.015625)"/>
       <path d="M 2575 0 
L 2575 419 
Q 2259 -75 1647 -75 
Q 1250 -75 917 144 
Q 584 363 401 755 
Q 219 1147 219 1656 
Q 219 2153 384 2558 
Q 550 2963 881 3178 
Q 1213 3394 1622 3394 
Q 1922 3394 2156 3267 
Q 2391 3141 2538 2938 
L 2538 4581 
L 3097 4581 
L 3097 0 
L 2575 0 
z
M 797 1656 
Q 797 1019 1065 703 
Q 1334 388 1700 388 
Q 2069 388 2326 689 
Q 2584 991 2584 1609 
Q 2584 2291 2321 2609 
Q 2059 2928 1675 2928 
Q 1300 2928 1048 2622 
Q 797 2316 797 1656 
z
" id="ArialMT-64" transform="scale(0.015625)"/>
       <path d="M -97 -1272 
L -97 -866 
L 3631 -866 
L 3631 -1272 
L -97 -1272 
z
" id="ArialMT-5f" transform="scale(0.015625)"/>
       <path d="M 269 1209 
L 831 1284 
Q 928 806 1161 595 
Q 1394 384 1728 384 
Q 2125 384 2398 659 
Q 2672 934 2672 1341 
Q 2672 1728 2419 1979 
Q 2166 2231 1775 2231 
Q 1616 2231 1378 2169 
L 1441 2663 
Q 1497 2656 1531 2656 
Q 1891 2656 2178 2843 
Q 2466 3031 2466 3422 
Q 2466 3731 2256 3934 
Q 2047 4138 1716 4138 
Q 1388 4138 1169 3931 
Q 950 3725 888 3313 
L 325 3413 
Q 428 3978 793 4289 
Q 1159 4600 1703 4600 
Q 2078 4600 2393 4439 
Q 2709 4278 2876 4000 
Q 3044 3722 3044 3409 
Q 3044 3113 2884 2869 
Q 2725 2625 2413 2481 
Q 2819 2388 3044 2092 
Q 3269 1797 3269 1353 
Q 3269 753 2831 336 
Q 2394 -81 1725 -81 
Q 1122 -81 723 278 
Q 325 638 269 1209 
z
" id="ArialMT-33" transform="scale(0.015625)"/>
      </defs>
      <use xlink:href="#ArialMT-73"/>
      <use x="50" xlink:href="#ArialMT-70"/>
      <use x="105.615234" xlink:href="#ArialMT-6c"/>
      <use x="127.832031" xlink:href="#ArialMT-69"/>
      <use x="150.048828" xlink:href="#ArialMT-74"/>
      <use x="177.832031" xlink:href="#ArialMT-74"/>
      <use x="205.615234" xlink:href="#ArialMT-65"/>
      <use x="261.230469" xlink:href="#ArialMT-64"/>
      <use x="316.845703" xlink:href="#ArialMT-5f"/>
      <use x="372.460938" xlink:href="#ArialMT-33"/>
      <use x="428.076172" xlink:href="#ArialMT-73"/>
     </g>
    </g>
    <g id="line2d_15">
     <path d="M 642.244062 116.6903 
L 664.244062 116.6903 
" style="fill:none;stroke:#55a868;stroke-dasharray:1.5,1.5;stroke-dashoffset:0;stroke-width:1.5;"/>
    </g>
    <g id="line2d_16"/>
    <g id="text_19">
     <!-- splitted_1s -->
     <g style="fill:#262626;" transform="translate(673.044062 120.5403)scale(0.11 -0.11)">
      <use xlink:href="#ArialMT-73"/>
      <use x="50" xlink:href="#ArialMT-70"/>
      <use x="105.615234" xlink:href="#ArialMT-6c"/>
      <use x="127.832031" xlink:href="#ArialMT-69"/>
      <use x="150.048828" xlink:href="#ArialMT-74"/>
      <use x="177.832031" xlink:href="#ArialMT-74"/>
      <use x="205.615234" xlink:href="#ArialMT-65"/>
      <use x="261.230469" xlink:href="#ArialMT-64"/>
      <use x="316.845703" xlink:href="#ArialMT-5f"/>
      <use x="372.460938" xlink:href="#ArialMT-31"/>
      <use x="428.076172" xlink:href="#ArialMT-73"/>
     </g>
    </g>
    <g id="line2d_17">
     <path d="M 642.244062 132.384206 
L 664.244062 132.384206 
" style="fill:none;stroke:#c44e52;stroke-dasharray:4.5,1.875,2.25,1.875;stroke-dashoffset:0;stroke-width:1.5;"/>
    </g>
    <g id="line2d_18"/>
    <g id="text_20">
     <!-- overlap_1f_3s -->
     <g style="fill:#262626;" transform="translate(673.044062 136.234206)scale(0.11 -0.11)">
      <use xlink:href="#ArialMT-6f"/>
      <use x="55.615234" xlink:href="#ArialMT-76"/>
      <use x="105.615234" xlink:href="#ArialMT-65"/>
      <use x="161.230469" xlink:href="#ArialMT-72"/>
      <use x="194.53125" xlink:href="#ArialMT-6c"/>
      <use x="216.748047" xlink:href="#ArialMT-61"/>
      <use x="272.363281" xlink:href="#ArialMT-70"/>
      <use x="327.978516" xlink:href="#ArialMT-5f"/>
      <use x="383.59375" xlink:href="#ArialMT-31"/>
      <use x="439.208984" xlink:href="#ArialMT-66"/>
      <use x="466.992188" xlink:href="#ArialMT-5f"/>
      <use x="522.607422" xlink:href="#ArialMT-33"/>
      <use x="578.222656" xlink:href="#ArialMT-73"/>
     </g>
    </g>
    <g id="line2d_19">
     <path d="M 642.244062 148.078113 
L 664.244062 148.078113 
" style="fill:none;stroke:#8172b3;stroke-dasharray:7.5,1.5,1.5,1.5;stroke-dashoffset:0;stroke-width:1.5;"/>
    </g>
    <g id="line2d_20"/>
    <g id="text_21">
     <!-- overlap_10f_3s -->
     <g style="fill:#262626;" transform="translate(673.044062 151.928112)scale(0.11 -0.11)">
      <use xlink:href="#ArialMT-6f"/>
      <use x="55.615234" xlink:href="#ArialMT-76"/>
      <use x="105.615234" xlink:href="#ArialMT-65"/>
      <use x="161.230469" xlink:href="#ArialMT-72"/>
      <use x="194.53125" xlink:href="#ArialMT-6c"/>
      <use x="216.748047" xlink:href="#ArialMT-61"/>
      <use x="272.363281" xlink:href="#ArialMT-70"/>
      <use x="327.978516" xlink:href="#ArialMT-5f"/>
      <use x="383.59375" xlink:href="#ArialMT-31"/>
      <use x="439.208984" xlink:href="#ArialMT-30"/>
      <use x="494.824219" xlink:href="#ArialMT-66"/>
      <use x="522.607422" xlink:href="#ArialMT-5f"/>
      <use x="578.222656" xlink:href="#ArialMT-33"/>
      <use x="633.837891" xlink:href="#ArialMT-73"/>
     </g>
    </g>
   </g>
  </g>
 </g>
 <defs>
  <clipPath id="pb86cce968a">
   <rect height="458.4888" width="652.86" x="105.3" y="71.4528"/>
  </clipPath>
 </defs>
</svg>
