<?xml version="1.0" encoding="utf-8" standalone="no"?>
<!DOCTYPE svg PUBLIC "-//W3C//DTD SVG 1.1//EN"
  "http://www.w3.org/Graphics/SVG/1.1/DTD/svg11.dtd">
<svg height="595.44pt" version="1.1" viewBox="0 0 842.4 595.44" width="842.4pt" xmlns="http://www.w3.org/2000/svg" xmlns:xlink="http://www.w3.org/1999/xlink">
 <metadata>
  <rdf:RDF xmlns:cc="http://creativecommons.org/ns#" xmlns:dc="http://purl.org/dc/elements/1.1/" xmlns:rdf="http://www.w3.org/1999/02/22-rdf-syntax-ns#">
   <cc:Work>
    <dc:type rdf:resource="http://purl.org/dc/dcmitype/StillImage"/>
    <dc:date>2021-06-01T00:54:14.115747</dc:date>
    <dc:format>image/svg+xml</dc:format>
    <dc:creator>
     <cc:Agent>
      <dc:title>Matplotlib v3.4.1, https://matplotlib.org/</dc:title>
     </cc:Agent>
    </dc:creator>
   </cc:Work>
  </rdf:RDF>
 </metadata>
 <defs>
  <style type="text/css">*{stroke-linecap:butt;stroke-linejoin:round;}</style>
 </defs>
 <g id="figure_1">
  <g id="patch_1">
   <path d="M 0 595.44 
L 842.4 595.44 
L 842.4 0 
L 0 0 
z
" style="fill:#ffffff;"/>
  </g>
  <g id="axes_1">
   <g id="patch_2">
    <path d="M 105.3 529.9416 
L 758.16 529.9416 
L 758.16 71.4528 
L 105.3 71.4528 
z
" style="fill:#ffffff;"/>
   </g>
   <g id="matplotlib.axis_1">
    <g id="xtick_1">
     <g id="text_1">
      <!-- 0 -->
      <g style="fill:#262626;" transform="translate(131.916939 547.315194)scale(0.11 -0.11)">
       <defs>
        <path d="M 266 2259 
Q 266 3072 433 3567 
Q 600 4063 929 4331 
Q 1259 4600 1759 4600 
Q 2128 4600 2406 4451 
Q 2684 4303 2865 4023 
Q 3047 3744 3150 3342 
Q 3253 2941 3253 2259 
Q 3253 1453 3087 958 
Q 2922 463 2592 192 
Q 2263 -78 1759 -78 
Q 1097 -78 719 397 
Q 266 969 266 2259 
z
M 844 2259 
Q 844 1131 1108 757 
Q 1372 384 1759 384 
Q 2147 384 2411 759 
Q 2675 1134 2675 2259 
Q 2675 3391 2411 3762 
Q 2147 4134 1753 4134 
Q 1366 4134 1134 3806 
Q 844 3388 844 2259 
z
" id="ArialMT-30" transform="scale(0.015625)"/>
       </defs>
       <use xlink:href="#ArialMT-30"/>
      </g>
     </g>
    </g>
    <g id="xtick_2">
     <g id="text_2">
      <!-- 25 -->
      <g style="fill:#262626;" transform="translate(201.950676 547.315194)scale(0.11 -0.11)">
       <defs>
        <path d="M 3222 541 
L 3222 0 
L 194 0 
Q 188 203 259 391 
Q 375 700 629 1000 
Q 884 1300 1366 1694 
Q 2113 2306 2375 2664 
Q 2638 3022 2638 3341 
Q 2638 3675 2398 3904 
Q 2159 4134 1775 4134 
Q 1369 4134 1125 3890 
Q 881 3647 878 3216 
L 300 3275 
Q 359 3922 746 4261 
Q 1134 4600 1788 4600 
Q 2447 4600 2831 4234 
Q 3216 3869 3216 3328 
Q 3216 3053 3103 2787 
Q 2991 2522 2730 2228 
Q 2469 1934 1863 1422 
Q 1356 997 1212 845 
Q 1069 694 975 541 
L 3222 541 
z
" id="ArialMT-32" transform="scale(0.015625)"/>
        <path d="M 266 1200 
L 856 1250 
Q 922 819 1161 601 
Q 1400 384 1738 384 
Q 2144 384 2425 690 
Q 2706 997 2706 1503 
Q 2706 1984 2436 2262 
Q 2166 2541 1728 2541 
Q 1456 2541 1237 2417 
Q 1019 2294 894 2097 
L 366 2166 
L 809 4519 
L 3088 4519 
L 3088 3981 
L 1259 3981 
L 1013 2750 
Q 1425 3038 1878 3038 
Q 2478 3038 2890 2622 
Q 3303 2206 3303 1553 
Q 3303 931 2941 478 
Q 2500 -78 1738 -78 
Q 1113 -78 717 272 
Q 322 622 266 1200 
z
" id="ArialMT-35" transform="scale(0.015625)"/>
       </defs>
       <use xlink:href="#ArialMT-32"/>
       <use x="55.615234" xlink:href="#ArialMT-35"/>
      </g>
     </g>
    </g>
    <g id="xtick_3">
     <g id="text_3">
      <!-- 50 -->
      <g style="fill:#262626;" transform="translate(275.042928 547.315194)scale(0.11 -0.11)">
       <use xlink:href="#ArialMT-35"/>
       <use x="55.615234" xlink:href="#ArialMT-30"/>
      </g>
     </g>
    </g>
    <g id="xtick_4">
     <g id="text_4">
      <!-- 75 -->
      <g style="fill:#262626;" transform="translate(348.135181 547.315194)scale(0.11 -0.11)">
       <defs>
        <path d="M 303 3981 
L 303 4522 
L 3269 4522 
L 3269 4084 
Q 2831 3619 2401 2847 
Q 1972 2075 1738 1259 
Q 1569 684 1522 0 
L 944 0 
Q 953 541 1156 1306 
Q 1359 2072 1739 2783 
Q 2119 3494 2547 3981 
L 303 3981 
z
" id="ArialMT-37" transform="scale(0.015625)"/>
       </defs>
       <use xlink:href="#ArialMT-37"/>
       <use x="55.615234" xlink:href="#ArialMT-35"/>
      </g>
     </g>
    </g>
    <g id="xtick_5">
     <g id="text_5">
      <!-- 100 -->
      <g style="fill:#262626;" transform="translate(418.168918 547.315194)scale(0.11 -0.11)">
       <defs>
        <path d="M 2384 0 
L 1822 0 
L 1822 3584 
Q 1619 3391 1289 3197 
Q 959 3003 697 2906 
L 697 3450 
Q 1169 3672 1522 3987 
Q 1875 4303 2022 4600 
L 2384 4600 
L 2384 0 
z
" id="ArialMT-31" transform="scale(0.015625)"/>
       </defs>
       <use xlink:href="#ArialMT-31"/>
       <use x="55.615234" xlink:href="#ArialMT-30"/>
       <use x="111.230469" xlink:href="#ArialMT-30"/>
      </g>
     </g>
    </g>
    <g id="xtick_6">
     <g id="text_6">
      <!-- 125 -->
      <g style="fill:#262626;" transform="translate(491.261171 547.315194)scale(0.11 -0.11)">
       <use xlink:href="#ArialMT-31"/>
       <use x="55.615234" xlink:href="#ArialMT-32"/>
       <use x="111.230469" xlink:href="#ArialMT-35"/>
      </g>
     </g>
    </g>
    <g id="xtick_7">
     <g id="text_7">
      <!-- 150 -->
      <g style="fill:#262626;" transform="translate(564.353423 547.315194)scale(0.11 -0.11)">
       <use xlink:href="#ArialMT-31"/>
       <use x="55.615234" xlink:href="#ArialMT-35"/>
       <use x="111.230469" xlink:href="#ArialMT-30"/>
      </g>
     </g>
    </g>
    <g id="xtick_8">
     <g id="text_8">
      <!-- 175 -->
      <g style="fill:#262626;" transform="translate(637.445676 547.315194)scale(0.11 -0.11)">
       <use xlink:href="#ArialMT-31"/>
       <use x="55.615234" xlink:href="#ArialMT-37"/>
       <use x="111.230469" xlink:href="#ArialMT-35"/>
      </g>
     </g>
    </g>
    <g id="xtick_9">
     <g id="text_9">
      <!-- 200 -->
      <g style="fill:#262626;" transform="translate(710.537928 547.315194)scale(0.11 -0.11)">
       <use xlink:href="#ArialMT-32"/>
       <use x="55.615234" xlink:href="#ArialMT-30"/>
       <use x="111.230469" xlink:href="#ArialMT-30"/>
      </g>
     </g>
    </g>
   </g>
   <g id="matplotlib.axis_2">
    <g id="ytick_1">
     <g id="text_10">
      <!-- −25 -->
      <g style="fill:#262626;" transform="translate(77.14125 533.878397)scale(0.11 -0.11)">
       <defs>
        <path d="M 3381 1997 
L 356 1997 
L 356 2522 
L 3381 2522 
L 3381 1997 
z
" id="ArialMT-2212" transform="scale(0.015625)"/>
       </defs>
       <use xlink:href="#ArialMT-2212"/>
       <use x="58.398438" xlink:href="#ArialMT-32"/>
       <use x="114.013672" xlink:href="#ArialMT-35"/>
      </g>
     </g>
    </g>
    <g id="ytick_2">
     <g id="text_11">
      <!-- −20 -->
      <g style="fill:#262626;" transform="translate(77.14125 442.180637)scale(0.11 -0.11)">
       <use xlink:href="#ArialMT-2212"/>
       <use x="58.398438" xlink:href="#ArialMT-32"/>
       <use x="114.013672" xlink:href="#ArialMT-30"/>
      </g>
     </g>
    </g>
    <g id="ytick_3">
     <g id="text_12">
      <!-- −15 -->
      <g style="fill:#262626;" transform="translate(77.14125 350.482877)scale(0.11 -0.11)">
       <use xlink:href="#ArialMT-2212"/>
       <use x="58.398438" xlink:href="#ArialMT-31"/>
       <use x="114.013672" xlink:href="#ArialMT-35"/>
      </g>
     </g>
    </g>
    <g id="ytick_4">
     <g id="text_13">
      <!-- −10 -->
      <g style="fill:#262626;" transform="translate(77.14125 258.785117)scale(0.11 -0.11)">
       <use xlink:href="#ArialMT-2212"/>
       <use x="58.398438" xlink:href="#ArialMT-31"/>
       <use x="114.013672" xlink:href="#ArialMT-30"/>
      </g>
     </g>
    </g>
    <g id="ytick_5">
     <g id="text_14">
      <!-- −5 -->
      <g style="fill:#262626;" transform="translate(83.258281 167.087357)scale(0.11 -0.11)">
       <use xlink:href="#ArialMT-2212"/>
       <use x="58.398438" xlink:href="#ArialMT-35"/>
      </g>
     </g>
    </g>
    <g id="ytick_6">
     <g id="text_15">
      <!-- 0 -->
      <g style="fill:#262626;" transform="translate(89.682969 75.389597)scale(0.11 -0.11)">
       <use xlink:href="#ArialMT-30"/>
      </g>
     </g>
    </g>
   </g>
   <g id="line2d_1">
    <path clip-path="url(#p382b42bd16)" d="M 134.975455 562.904192 
L 140.822835 564.792828 
L 143.746525 564.76432 
L 146.670215 565.670579 
L 149.593905 567.683464 
L 152.517595 568.30943 
L 158.364975 573.408627 
L 161.288665 574.440045 
L 164.212356 577.127972 
L 167.136046 580.935047 
L 169.181832 596.44 
M 185.445235 596.44 
L 187.601876 545.635481 
L 189.800929 596.44 
M 201.615465 596.44 
L 202.220327 581.654549 
L 205.144017 570.447472 
L 205.983051 596.44 
M 209.974093 596.44 
L 210.991397 561.977749 
L 213.915087 583.420895 
L 215.27725 596.44 
M 221.407008 596.44 
L 222.686158 586.474467 
L 225.609848 568.453967 
L 227.766922 596.44 
M 232.124208 596.44 
L 234.380918 517.132198 
L 237.83815 596.44 
M 243.453622 596.44 
L 246.075678 496.241421 
L 248.999369 483.266214 
L 251.923059 573.342305 
L 254.846749 567.001251 
L 257.770439 594.162353 
L 260.694129 523.898609 
L 262.488731 596.44 
M 265.008471 596.44 
L 266.541509 546.126984 
L 269.465199 534.690054 
L 272.388889 555.383125 
L 275.312579 573.325795 
L 278.23627 577.212134 
L 281.15996 565.196392 
L 284.08365 535.439184 
L 287.00734 547.714862 
L 289.93103 590.185032 
L 292.85472 542.876894 
L 295.77841 522.856102 
L 298.7021 578.672511 
L 301.62579 582.786184 
L 304.549481 552.045411 
L 307.473171 527.838537 
L 310.396861 548.836948 
L 313.320551 513.530106 
L 316.244241 548.560187 
L 319.167931 521.946695 
L 322.091621 544.08587 
L 325.015311 511.39836 
L 327.939001 549.540639 
L 330.862691 582.107958 
L 333.786382 555.916149 
L 336.710072 518.168059 
L 339.633762 576.938906 
L 342.069627 596.44 
M 342.707182 596.44 
L 345.481142 524.086206 
L 348.404832 489.836108 
L 351.328522 473.997445 
L 354.252212 550.129071 
L 357.175902 538.432311 
L 360.099592 524.462066 
L 362.785996 596.44 
M 363.24476 596.44 
L 365.946973 518.870421 
L 368.870663 518.824947 
L 371.794353 537.336915 
L 374.796117 596.44 
M 382.165198 596.44 
L 383.489113 554.989251 
L 386.412803 534.117888 
L 389.336494 573.6035 
L 392.260184 550.830838 
L 395.183874 568.096717 
L 398.107564 515.519764 
L 401.031254 490.593003 
L 403.954944 494.532792 
L 406.878634 542.409283 
L 409.802324 500.966334 
L 412.726014 483.510654 
L 415.649704 569.701805 
L 418.573395 548.011527 
L 421.497085 589.959446 
L 421.754739 596.44 
M 432.721316 596.44 
L 433.191845 592.45292 
L 436.115535 521.138763 
L 439.039225 538.714144 
L 441.962915 592.887825 
L 444.886605 586.632506 
L 447.810296 504.499445 
L 450.733986 464.937681 
L 453.657676 535.153328 
L 456.581366 517.839982 
L 458.164555 596.44 
M 461.156578 596.44 
L 462.428746 545.175425 
L 465.352436 554.524368 
L 468.276126 538.044418 
L 471.199816 536.2914 
L 473.484061 596.44 
M 474.801231 596.44 
L 477.047197 540.639789 
L 479.970887 455.153063 
L 482.894577 574.993043 
L 485.818267 579.24849 
L 488.741957 581.577628 
L 491.665647 537.314632 
L 494.589337 536.575612 
L 496.44726 596.44 
M 498.556588 596.44 
L 500.436717 534.570947 
L 503.360408 466.227531 
L 506.284098 551.45446 
L 507.691918 596.44 
M 515.924347 596.44 
L 517.978858 527.858441 
L 520.902548 575.612887 
L 523.826238 590.110629 
L 526.749928 547.040554 
L 529.374663 596.44 
M 534.137852 596.44 
L 535.520999 549.035704 
L 538.444689 526.523502 
L 541.368379 595.302244 
L 541.56704 596.44 
M 544.970366 596.44 
L 547.215759 544.777109 
L 550.139449 580.929905 
L 553.063139 487.512217 
L 555.986829 560.344327 
L 558.910519 536.540667 
L 561.83421 537.938045 
L 564.7579 548.731344 
L 567.68159 509.606339 
L 570.60528 517.073432 
L 573.52897 511.651964 
L 576.45266 491.404887 
L 579.37635 528.403463 
L 582.30004 542.755794 
L 585.22373 537.087718 
L 588.147421 524.05385 
L 591.071111 518.234066 
L 593.994801 540.359145 
L 596.918491 475.033655 
L 599.842181 533.606516 
L 602.765871 521.810273 
L 605.689561 525.663836 
L 608.613251 518.407321 
L 611.38136 596.44 
M 614.635755 596.44 
L 617.384322 455.424927 
L 620.308012 491.057432 
L 623.231702 552.644932 
L 625.513796 596.44 
M 627.910563 596.44 
L 632.002772 567.58552 
L 634.926462 543.33667 
L 637.850152 579.185771 
L 640.773842 506.572425 
L 643.697532 450.054985 
L 646.621223 497.424057 
L 649.544913 513.6978 
L 652.468603 584.670692 
L 655.392293 545.975521 
L 658.315983 513.299344 
L 661.239673 576.889759 
L 664.163363 513.547736 
L 667.087053 570.504385 
L 670.010743 577.518733 
L 672.934433 558.924107 
L 675.858124 566.184155 
L 678.781814 532.965509 
L 681.705504 589.857934 
L 682.186685 596.44 
M 686.207458 596.44 
L 687.552884 567.958021 
L 688.341025 596.44 
M 699.879449 596.44 
L 702.171335 585.483381 
L 705.095025 587.212858 
L 708.018715 581.43435 
L 710.942405 583.469727 
L 713.866095 582.364256 
L 716.789785 583.328932 
L 719.713475 581.839557 
L 722.637165 579.586291 
L 725.560855 583.275658 
L 728.484545 584.470117 
L 728.484545 584.470117 
" style="fill:none;stroke:#4c72b0;stroke-linecap:round;stroke-width:1.5;"/>
   </g>
   <g id="line2d_2">
    <path clip-path="url(#p382b42bd16)" d="M 134.975455 553.748828 
L 137.899145 557.341301 
L 140.822835 558.150841 
L 143.746525 558.286388 
L 146.670215 559.720915 
L 149.593905 562.001081 
L 152.517595 560.689824 
L 155.441285 562.425317 
L 158.364975 562.462396 
L 161.288665 563.714572 
L 164.212356 564.727241 
L 167.136046 565.358524 
L 170.059736 584.608778 
L 172.983426 590.357588 
L 174.015762 596.44 
M 185.010517 596.44 
L 187.601876 520.186505 
L 190.025083 596.44 
M 201.933944 596.44 
L 202.220327 591.697843 
L 204.221068 596.44 
M 210.672748 596.44 
L 210.991397 586.853929 
L 213.915087 568.330068 
L 215.711585 596.44 
M 220.537975 596.44 
L 222.686158 585.141977 
L 225.609848 561.778189 
L 229.428733 596.44 
M 231.936211 596.44 
L 234.380918 510.976047 
L 238.435625 596.44 
M 243.323582 596.44 
L 246.075678 506.308747 
L 248.999369 510.729369 
L 251.923059 571.120241 
L 254.846749 566.133224 
L 257.64356 596.44 
M 257.839607 596.44 
L 260.694129 539.699668 
L 262.203021 596.44 
M 265.474667 596.44 
L 266.541509 565.873043 
L 269.465199 549.641451 
L 272.388889 585.480442 
L 274.015223 596.44 
M 280.141152 596.44 
L 281.15996 592.722755 
L 284.08365 549.084501 
L 287.00734 562.361829 
L 288.816802 596.44 
M 291.432259 596.44 
L 292.85472 576.556435 
L 295.77841 539.757595 
L 298.532812 596.44 
M 302.485006 596.44 
L 304.549481 566.902013 
L 307.473171 544.664718 
L 310.396861 541.216188 
L 313.320551 530.457799 
L 316.244241 565.28559 
L 319.167931 554.748205 
L 322.091621 555.184789 
L 325.015311 507.747681 
L 327.939001 577.056158 
L 330.862691 580.766478 
L 333.786382 545.085876 
L 336.710072 553.383743 
L 339.633762 591.299912 
L 342.557452 590.157957 
L 345.481142 520.415204 
L 348.404832 498.012174 
L 351.328522 555.466937 
L 354.10299 596.44 
M 354.336492 596.44 
L 357.175902 522.196801 
L 360.099592 441.354989 
L 363.023283 443.03427 
L 365.946973 481.866073 
L 368.870663 467.077368 
L 371.794353 478.232674 
L 374.718043 533.370157 
L 380.565423 595.502469 
L 383.489113 520.002441 
L 389.336494 578.407468 
L 392.260184 556.759865 
L 395.183874 575.722514 
L 398.107564 518.684747 
L 401.031254 488.080851 
L 403.954944 527.656012 
L 406.878634 540.852327 
L 409.802324 540.137512 
L 412.726014 546.948627 
L 415.649704 590.46599 
L 418.573395 551.564997 
L 421.680314 596.44 
M 426.209988 596.44 
L 427.344465 572.134379 
L 430.268155 577.469691 
L 433.191845 560.211368 
L 436.115535 509.804535 
L 439.039225 573.860638 
L 440.692637 596.44 
M 442.935921 596.44 
L 444.886605 561.662265 
L 447.810296 485.404327 
L 450.733986 500.517821 
L 453.657676 540.277781 
L 456.581366 555.788927 
L 457.675395 596.44 
M 461.184021 596.44 
L 462.428746 546.03824 
L 465.352436 569.887129 
L 468.276126 527.51137 
L 471.199816 541.520653 
L 474.123506 585.540258 
L 477.047197 572.285737 
L 479.970887 460.700843 
L 482.894577 567.667513 
L 485.818267 594.810391 
L 488.741957 594.67327 
L 491.665647 555.741634 
L 494.589337 544.466382 
L 496.363482 596.44 
M 498.56401 596.44 
L 500.436717 536.434048 
L 503.360408 465.979173 
L 506.284098 556.956662 
L 507.748258 596.44 
M 516.391282 596.44 
L 517.978858 556.253425 
L 520.902548 584.287662 
L 523.826238 585.389879 
L 526.749928 558.71066 
L 528.918205 596.44 
M 533.886836 596.44 
L 535.520999 544.714075 
L 538.444689 524.666033 
L 543.854519 596.44 
M 544.475503 596.44 
L 547.215759 509.632399 
L 550.139449 553.261278 
L 553.063139 495.191778 
L 555.986829 490.444968 
L 561.83421 427.331784 
L 564.7579 501.595867 
L 567.68159 476.41998 
L 570.60528 577.896866 
L 573.52897 456.399083 
L 576.45266 455.416532 
L 579.37635 499.726155 
L 582.30004 463.992978 
L 585.22373 546.203485 
L 588.147421 515.676299 
L 591.071111 536.806759 
L 593.994801 566.463154 
L 596.918491 497.550929 
L 599.842181 584.30029 
L 602.765871 540.86408 
L 605.689561 570.546955 
L 608.055247 596.44 
M 616.286036 596.44 
L 617.384322 559.812108 
L 620.308012 548.772655 
L 623.231702 581.364075 
L 623.849393 596.44 
M 634.285226 596.44 
L 634.926462 591.99881 
L 637.850152 593.901018 
L 640.773842 538.697074 
L 643.697532 451.108825 
L 646.621223 519.495022 
L 649.544913 547.669423 
L 652.468603 592.33133 
L 655.392293 575.068459 
L 658.315983 492.55793 
L 661.239673 579.969846 
L 664.163363 509.864001 
L 667.087053 580.824125 
L 670.010743 592.48755 
L 672.934433 561.013178 
L 675.858124 571.122515 
L 678.781814 559.240256 
L 681.554189 596.44 
M 686.251027 596.44 
L 687.552884 566.334638 
L 688.425418 596.44 
M 700.473286 596.44 
L 702.171335 576.273308 
L 705.095025 577.957871 
L 708.018715 576.778453 
L 710.942405 579.146104 
L 713.866095 577.082253 
L 716.789785 578.745304 
L 719.713475 577.99383 
L 722.637165 574.357563 
L 725.560855 578.453641 
L 728.484545 574.674481 
L 728.484545 574.674481 
" style="fill:none;stroke:#dd8452;stroke-dasharray:6,2.25;stroke-dashoffset:0;stroke-width:1.5;"/>
   </g>
   <g id="line2d_3">
    <path clip-path="url(#p382b42bd16)" d="M 134.975455 554.889174 
L 137.899145 558.289572 
L 140.822835 560.197062 
L 143.746525 557.759486 
L 146.670215 566.292522 
L 149.593905 567.231873 
L 152.517595 568.738808 
L 155.441285 588.595719 
L 158.364975 590.001982 
L 161.288665 580.552122 
L 164.212356 582.142903 
L 167.136046 574.961876 
L 170.059736 578.692904 
L 172.75109 596.44 
M 184.248313 596.44 
L 184.678186 580.513993 
L 187.601876 532.016224 
L 190.525567 568.338358 
L 193.449257 591.388586 
L 196.372947 586.159647 
L 197.502571 596.44 
M 201.136103 596.44 
L 202.220327 586.81636 
L 205.144017 595.127764 
L 208.067707 494.421276 
L 210.991397 560.96599 
L 213.915087 590.690771 
L 216.838777 569.679803 
L 219.762468 554.358039 
L 222.686158 546.903013 
L 225.609848 498.705826 
L 228.533538 547.289191 
L 231.457228 587.159828 
L 234.380918 522.541843 
L 237.304608 573.009821 
L 238.138381 596.44 
M 243.744344 596.44 
L 246.075678 496.978308 
L 248.999369 532.927486 
L 251.923059 528.47853 
L 254.846749 591.244958 
L 256.227575 596.44 
M 257.997383 596.44 
L 260.694129 527.463937 
L 262.977811 596.44 
M 264.642041 596.44 
L 266.541509 560.590236 
L 269.465199 576.074027 
L 272.388889 592.849102 
L 278.23627 554.496489 
L 281.15996 493.742595 
L 284.08365 472.526924 
L 287.00734 463.443584 
L 289.93103 499.785027 
L 292.85472 508.519967 
L 295.77841 534.299573 
L 298.107721 596.44 
M 304.027905 596.44 
L 304.549481 584.492609 
L 307.473171 570.247457 
L 310.396861 595.780315 
L 313.320551 589.403265 
L 316.244241 595.131192 
L 319.167931 586.094235 
L 322.091621 575.802373 
L 325.015311 531.878648 
L 327.939001 591.004891 
L 328.602444 596.44 
M 332.026419 596.44 
L 333.786382 568.436442 
L 336.710072 565.396652 
L 338.600165 596.44 
M 344.113272 596.44 
L 345.481142 553.768067 
L 348.404832 513.089744 
L 351.317215 596.44 
M 351.344043 596.44 
L 354.252212 535.808187 
L 357.175902 593.646819 
L 360.099592 501.925553 
L 363.023283 566.379797 
L 365.946973 494.235497 
L 368.870663 538.680388 
L 371.794353 475.219854 
L 374.718043 582.115164 
L 376.662908 596.44 
M 378.613018 596.44 
L 380.565423 581.947995 
L 383.489113 564.348059 
L 386.412803 578.317989 
L 387.805985 596.44 
M 391.827932 596.44 
L 392.260184 592.986014 
L 395.183874 594.743405 
L 398.107564 541.572353 
L 401.031254 527.317826 
L 403.954944 538.84273 
L 406.878634 554.226934 
L 409.802324 584.725191 
L 412.726014 564.85894 
L 415.649704 573.283539 
L 417.773265 596.44 
M 418.956927 596.44 
L 421.497085 538.653559 
L 424.420775 486.630478 
L 427.344465 451.733531 
L 430.268155 468.286344 
L 433.191845 474.858126 
L 436.115535 455.496391 
L 439.039225 539.808491 
L 441.82237 596.44 
M 442.113366 596.44 
L 444.886605 543.725227 
L 447.810296 564.553146 
L 450.733986 506.074276 
L 453.657676 523.660711 
L 456.581366 572.648549 
L 456.992228 596.44 
M 463.174169 596.44 
L 465.352436 567.661252 
L 468.276126 564.577072 
L 471.199816 496.282487 
L 474.123506 553.934956 
L 477.047197 523.418894 
L 479.970887 501.453289 
L 482.894577 568.068453 
L 484.8626 596.44 
M 487.396187 596.44 
L 488.741957 584.689791 
L 491.665647 576.020578 
L 494.589337 485.431157 
L 497.513027 541.253686 
L 500.436717 484.212071 
L 503.360408 504.335914 
L 506.284098 577.575855 
L 509.207788 531.973514 
L 512.131478 543.183214 
L 515.055168 565.372131 
L 517.978858 557.353019 
L 520.073132 596.44 
M 536.680452 596.44 
L 538.444689 575.929105 
L 541.050367 596.44 
M 544.455622 596.44 
L 547.215759 496.192694 
L 550.139449 583.814139 
L 553.063139 530.625143 
L 555.986829 487.178124 
L 558.910519 502.649008 
L 561.83421 473.974463 
L 564.7579 470.143498 
L 567.68159 465.648298 
L 570.60528 506.062033 
L 573.52897 542.966618 
L 576.45266 465.438489 
L 579.37635 521.688788 
L 582.30004 546.883284 
L 585.22373 588.093163 
L 588.147421 554.412992 
L 591.071111 572.592021 
L 593.994801 565.143362 
L 596.918491 482.292583 
L 599.831541 596.44 
M 599.951758 596.44 
L 602.765871 585.732683 
L 605.689561 555.531405 
L 608.613251 568.086642 
L 610.335097 596.44 
M 615.248036 596.44 
L 617.384322 511.459785 
L 620.308012 482.731966 
L 623.231702 567.260032 
L 624.450568 596.44 
M 627.763949 596.44 
L 629.079082 563.071152 
L 631.335375 596.44 
M 635.144973 596.44 
L 637.850152 520.773958 
L 640.773842 500.310565 
L 643.697532 516.842145 
L 646.621223 585.312609 
L 649.544913 526.092794 
L 652.468603 595.810083 
L 655.392293 573.575202 
L 658.315983 502.239463 
L 661.239673 566.139975 
L 664.163363 510.113303 
L 667.087053 579.130713 
L 670.010743 586.550513 
L 672.934433 529.421693 
L 675.858124 583.784931 
L 678.781814 572.092473 
L 680.402601 596.44 
M 687.099067 596.44 
L 687.552884 585.909506 
L 687.95139 596.44 
M 701.842769 596.44 
L 702.171335 592.929311 
L 705.095025 585.246707 
L 708.018715 584.825478 
L 710.942405 591.06831 
L 713.866095 587.257457 
L 716.789785 588.056923 
L 719.713475 585.380715 
L 722.637165 585.295888 
L 725.560855 586.955755 
L 728.484545 578.303263 
L 728.484545 578.303263 
" style="fill:none;stroke:#55a868;stroke-dasharray:1.5,1.5;stroke-dashoffset:0;stroke-width:1.5;"/>
   </g>
   <g id="line2d_4">
    <path clip-path="url(#p382b42bd16)" d="M 134.975455 553.671907 
L 137.899145 557.241643 
L 140.822835 558.123452 
L 143.746525 558.118415 
L 146.670215 559.722139 
L 149.593905 562.00234 
L 152.517595 560.790426 
L 155.441285 562.674479 
L 158.364975 562.886318 
L 161.288665 564.185612 
L 164.212356 565.134687 
L 167.136046 565.927997 
L 170.059736 585.282281 
L 172.983426 591.009578 
L 173.905766 596.44 
M 185.0445 596.44 
L 187.601876 520.698611 
L 189.995889 596.44 
M 201.952202 596.44 
L 202.220327 591.975899 
L 205.144017 594.758236 
L 205.204791 596.44 
M 210.531151 596.44 
L 210.991397 581.638563 
L 213.915087 576.066157 
L 215.692591 596.44 
M 220.819405 596.44 
L 222.686158 586.091716 
L 225.609848 561.259402 
L 229.244029 596.44 
M 231.996441 596.44 
L 234.380918 511.781005 
L 238.244576 596.44 
M 243.390332 596.44 
L 246.075678 506.901237 
L 248.999369 510.674555 
L 251.923059 571.434606 
L 254.846749 566.478371 
L 257.770439 595.453497 
L 260.694129 539.487585 
L 262.199126 596.44 
M 265.394576 596.44 
L 266.541509 561.78431 
L 269.465199 549.851051 
L 272.388889 582.021873 
L 274.044816 596.44 
M 279.684381 596.44 
L 281.15996 590.058334 
L 284.08365 548.9641 
L 287.00734 571.829424 
L 288.489009 596.44 
M 291.350793 596.44 
L 292.85472 571.068121 
L 295.77841 539.758749 
L 298.521158 596.44 
M 302.593182 596.44 
L 304.549481 569.892306 
L 307.473171 544.974185 
L 310.396861 543.343282 
L 313.320551 529.602819 
L 316.244241 567.049488 
L 319.167931 557.249444 
L 322.091621 566.61056 
L 325.015311 504.19547 
L 327.939001 565.315883 
L 330.862691 592.889224 
L 333.786382 542.581384 
L 336.710072 559.536676 
L 338.81995 596.44 
M 342.908732 596.44 
L 345.481142 526.582373 
L 348.404832 473.411462 
L 351.328522 537.802497 
L 354.252212 577.9153 
L 357.175902 496.799351 
L 360.099592 460.214587 
L 363.023283 586.029697 
L 365.946973 493.956568 
L 368.870663 486.53208 
L 371.794353 503.275253 
L 374.718043 559.613771 
L 377.641733 575.983779 
L 379.538709 596.44 
M 380.933603 596.44 
L 383.489113 519.592231 
L 386.412803 553.001692 
L 389.336494 579.183567 
L 392.260184 556.169124 
L 395.183874 576.28611 
L 398.107564 518.038633 
L 401.031254 489.530418 
L 403.954944 525.604895 
L 406.878634 543.541793 
L 409.802324 543.555505 
L 412.726014 545.645415 
L 415.649704 593.568674 
L 418.573395 553.003406 
L 421.341265 596.44 
M 426.354516 596.44 
L 427.344465 573.759091 
L 430.268155 576.376009 
L 433.191845 556.85431 
L 436.115535 508.069426 
L 439.039225 573.632744 
L 440.672184 596.44 
M 442.937442 596.44 
L 444.886605 560.383085 
L 447.810296 484.686189 
L 450.733986 494.964864 
L 453.657676 546.137513 
L 456.581366 556.62848 
L 457.678801 596.44 
M 461.138526 596.44 
L 462.428746 544.110811 
L 465.352436 572.813794 
L 468.276126 527.00696 
L 471.199816 547.781009 
L 474.123506 594.163333 
L 477.047197 578.409357 
L 479.970887 457.437007 
L 482.894577 568.308765 
L 485.818267 594.470422 
L 488.514412 596.44 
M 488.753916 596.44 
L 491.665647 555.96659 
L 494.589337 545.076397 
L 496.328045 596.44 
M 498.574435 596.44 
L 500.436717 535.020789 
L 503.360408 464.039572 
L 506.284098 556.370048 
L 507.775747 596.44 
M 516.386251 596.44 
L 517.978858 555.811419 
L 520.902548 584.54319 
L 523.826238 584.106711 
L 526.749928 557.658359 
L 528.947822 596.44 
M 533.865733 596.44 
L 535.520999 544.063168 
L 538.444689 527.163635 
L 543.7682 596.44 
M 544.503128 596.44 
L 547.215759 509.605814 
L 550.139449 552.489166 
L 553.063139 493.529987 
L 555.986829 491.683502 
L 558.910519 458.716293 
L 561.83421 428.986614 
L 564.7579 502.402049 
L 567.68159 476.54951 
L 570.60528 573.294558 
L 573.52897 447.527056 
L 576.45266 505.124292 
L 579.37635 484.45032 
L 582.30004 477.800812 
L 585.22373 595.232494 
L 588.147421 502.563447 
L 591.071111 508.259052 
L 593.994801 573.950466 
L 596.918491 521.127675 
L 599.842181 572.087086 
L 602.765871 559.889623 
L 608.613251 590.834259 
L 608.951095 596.44 
M 616.231654 596.44 
L 617.384322 552.263791 
L 620.308012 544.419299 
L 623.231702 583.083373 
L 623.848249 596.44 
M 634.582124 596.44 
L 634.926462 594.70825 
L 637.850152 593.726958 
L 640.773842 538.508392 
L 643.697532 450.600217 
L 646.621223 520.046585 
L 649.544913 544.461555 
L 652.468603 592.566954 
L 655.392293 574.854942 
L 658.315983 492.138661 
L 661.239673 580.368267 
L 664.163363 509.733491 
L 667.087053 579.03116 
L 670.010743 593.218945 
L 672.934433 560.062004 
L 675.858124 569.48472 
L 678.781814 558.506657 
L 681.766418 596.44 
M 686.213483 596.44 
L 687.552884 566.247363 
L 688.429624 596.44 
M 700.483322 596.44 
L 702.171335 574.837032 
L 705.095025 577.342819 
L 708.018715 576.293141 
L 710.942405 579.444342 
L 713.866095 577.418061 
L 716.789785 578.875149 
L 719.713475 578.23764 
L 722.637165 574.339828 
L 725.560855 578.903938 
L 728.484545 574.829826 
L 728.484545 574.829826 
" style="fill:none;stroke:#c44e52;stroke-dasharray:4.5,1.875,2.25,1.875;stroke-dashoffset:0;stroke-width:1.5;"/>
   </g>
   <g id="line2d_5">
    <path clip-path="url(#p382b42bd16)" d="M 134.975455 556.104691 
L 137.899145 559.760827 
L 140.822835 560.631862 
L 143.746525 561.066662 
L 146.670215 562.279591 
L 149.593905 565.155605 
L 152.517595 564.411862 
L 155.441285 566.016181 
L 158.364975 566.320926 
L 161.288665 568.32559 
L 164.212356 567.955293 
L 167.136046 568.101999 
L 170.059736 584.932972 
L 172.983426 590.596291 
L 174.145599 596.44 
M 185.214785 596.44 
L 187.601876 539.67903 
L 189.746102 596.44 
M 202.002837 596.44 
L 202.220327 591.9908 
L 205.144017 593.911338 
L 205.231329 596.44 
M 210.612643 596.44 
L 210.991397 584.214659 
L 213.915087 566.110662 
L 215.921287 596.44 
M 220.435995 596.44 
L 222.686158 584.972569 
L 225.609848 568.40503 
L 228.915696 596.44 
M 232.081042 596.44 
L 234.380918 515.75371 
L 237.304608 574.198229 
L 238.287381 596.44 
M 243.391526 596.44 
L 246.075678 502.844091 
L 248.999369 501.04294 
L 251.923059 578.230854 
L 254.846749 568.028891 
L 257.471284 596.44 
M 257.917524 596.44 
L 260.694129 535.30682 
L 262.271774 596.44 
M 265.354411 596.44 
L 266.541509 560.785354 
L 269.465199 548.390674 
L 272.388889 579.40541 
L 274.351823 596.44 
M 281.189892 596.44 
L 284.08365 556.217921 
L 287.00734 570.532543 
L 288.576513 596.44 
M 291.27716 596.44 
L 292.85472 570.231786 
L 295.77841 535.327458 
L 298.7021 595.481901 
L 298.959795 596.44 
M 302.358278 596.44 
L 304.549481 566.788468 
L 307.473171 542.723857 
L 310.396861 557.128133 
L 313.320551 533.647548 
L 316.244241 564.72871 
L 319.167931 556.005138 
L 322.091621 568.886983 
L 325.015311 514.388304 
L 327.939001 562.493808 
L 330.862691 595.608213 
L 333.786382 557.983497 
L 336.710072 529.886472 
L 339.515594 596.44 
M 342.905869 596.44 
L 345.481142 537.725577 
L 348.404832 485.715858 
L 351.328522 469.097738 
L 354.252212 550.018779 
L 357.175902 560.591285 
L 360.099592 563.819267 
L 361.245494 596.44 
M 364.382757 596.44 
L 365.946973 538.209279 
L 368.870663 541.311683 
L 371.794353 521.186301 
L 374.994258 596.44 
M 382.594179 596.44 
L 383.489113 569.063142 
L 386.412803 551.998503 
L 389.336494 582.848938 
L 392.260184 572.007437 
L 395.183874 587.691593 
L 398.107564 501.309801 
L 401.031254 503.708339 
L 403.954944 522.338015 
L 406.878634 552.350296 
L 409.802324 551.492938 
L 412.726014 538.446338 
L 414.964103 596.44 
M 416.537011 596.44 
L 418.573395 555.668106 
L 420.807475 596.44 
M 426.767906 596.44 
L 427.344465 582.968429 
L 430.268155 579.426188 
L 433.191845 562.630475 
L 436.115535 505.772015 
L 439.039225 572.474803 
L 440.655014 596.44 
M 443.091344 596.44 
L 444.886605 565.577953 
L 447.810296 484.645333 
L 450.733986 491.006221 
L 453.657676 531.560716 
L 456.581366 544.229253 
L 458.212374 596.44 
M 460.640322 596.44 
L 462.428746 531.251913 
L 465.352436 566.698289 
L 468.276126 532.232085 
L 471.199816 557.767776 
L 473.520157 596.44 
M 474.815651 596.44 
L 477.047197 564.019142 
L 479.970887 460.046264 
L 482.894577 577.757016 
L 485.37677 596.44 
M 488.829852 596.44 
L 491.665647 561.003978 
L 494.589337 543.758004 
L 496.328494 596.44 
M 498.569739 596.44 
L 500.436717 533.045158 
L 503.360408 459.8969 
L 506.284098 554.618919 
L 507.702124 596.44 
M 516.469295 596.44 
L 517.978858 559.718606 
L 520.902548 585.065126 
L 523.826238 579.814675 
L 526.749928 547.104987 
L 529.357945 596.44 
M 533.309658 596.44 
L 535.520999 526.691161 
L 538.444689 504.149086 
L 541.368379 558.868629 
L 543.723063 596.44 
M 544.549426 596.44 
L 547.215759 502.376724 
L 550.139449 548.608249 
L 553.063139 455.931156 
L 555.986829 528.656333 
L 558.910519 484.147184 
L 561.83421 467.585031 
L 564.7579 536.681566 
L 567.68159 507.248517 
L 570.60528 513.296895 
L 573.52897 502.730686 
L 576.45266 554.007505 
L 579.37635 523.442681 
L 582.30004 487.500918 
L 585.22373 569.063142 
L 588.147421 515.433224 
L 591.071111 525.281365 
L 593.994801 546.797689 
L 596.918491 504.983917 
L 599.842181 548.715952 
L 602.765871 533.210508 
L 605.689561 554.42548 
L 608.613251 573.615429 
L 610.631484 596.44 
M 615.64336 596.44 
L 617.384322 528.437813 
L 620.308012 526.721838 
L 623.231702 571.662815 
L 624.417889 596.44 
M 629.206531 596.44 
L 632.002772 596.304139 
L 634.926462 584.604125 
L 637.850152 578.43874 
L 640.773842 517.18166 
L 643.697532 444.177903 
L 646.621223 503.895937 
L 649.544913 530.810956 
L 652.468603 570.518971 
L 655.392293 558.320074 
L 658.315983 491.313695 
L 661.239673 565.150043 
L 664.163363 502.357485 
L 667.087053 575.091022 
L 670.010743 588.377759 
L 672.934433 566.176529 
L 675.858124 567.398238 
L 678.781814 542.017683 
L 681.927888 596.44 
M 685.795 596.44 
L 687.552884 557.256195 
L 688.858014 596.44 
M 699.966782 596.44 
L 702.171335 570.938136 
L 705.095025 573.315721 
L 708.018715 572.320087 
L 710.942405 574.420352 
L 713.866095 572.232288 
L 716.789785 572.767271 
L 719.713475 572.829955 
L 722.637165 568.411606 
L 725.560855 572.921077 
L 728.484545 569.443444 
L 728.484545 569.443444 
" style="fill:none;stroke:#8172b3;stroke-dasharray:7.5,1.5,1.5,1.5;stroke-dashoffset:0;stroke-width:1.5;"/>
   </g>
   <g id="line2d_6"/>
   <g id="line2d_7"/>
   <g id="line2d_8"/>
   <g id="line2d_9"/>
   <g id="line2d_10"/>
   <g id="patch_3">
    <path d="M 105.3 529.9416 
L 105.3 71.4528 
" style="fill:none;stroke:#262626;stroke-linecap:square;stroke-linejoin:miter;stroke-width:1.25;"/>
   </g>
   <g id="patch_4">
    <path d="M 758.16 529.9416 
L 758.16 71.4528 
" style="fill:none;stroke:#262626;stroke-linecap:square;stroke-linejoin:miter;stroke-width:1.25;"/>
   </g>
   <g id="patch_5">
    <path d="M 105.3 529.9416 
L 758.16 529.9416 
" style="fill:none;stroke:#262626;stroke-linecap:square;stroke-linejoin:miter;stroke-width:1.25;"/>
   </g>
   <g id="patch_6">
    <path d="M 105.3 71.4528 
L 758.16 71.4528 
" style="fill:none;stroke:#262626;stroke-linecap:square;stroke-linejoin:miter;stroke-width:1.25;"/>
   </g>
   <g id="text_16">
    <!-- Activations for &gt;4&lt; -->
    <g style="fill:#262626;" transform="translate(382.037813 65.4528)scale(0.12 -0.12)">
     <defs>
      <path d="M -9 0 
L 1750 4581 
L 2403 4581 
L 4278 0 
L 3588 0 
L 3053 1388 
L 1138 1388 
L 634 0 
L -9 0 
z
M 1313 1881 
L 2866 1881 
L 2388 3150 
Q 2169 3728 2063 4100 
Q 1975 3659 1816 3225 
L 1313 1881 
z
" id="ArialMT-41" transform="scale(0.015625)"/>
      <path d="M 2588 1216 
L 3141 1144 
Q 3050 572 2676 248 
Q 2303 -75 1759 -75 
Q 1078 -75 664 370 
Q 250 816 250 1647 
Q 250 2184 428 2587 
Q 606 2991 970 3192 
Q 1334 3394 1763 3394 
Q 2303 3394 2647 3120 
Q 2991 2847 3088 2344 
L 2541 2259 
Q 2463 2594 2264 2762 
Q 2066 2931 1784 2931 
Q 1359 2931 1093 2626 
Q 828 2322 828 1663 
Q 828 994 1084 691 
Q 1341 388 1753 388 
Q 2084 388 2306 591 
Q 2528 794 2588 1216 
z
" id="ArialMT-63" transform="scale(0.015625)"/>
      <path d="M 1650 503 
L 1731 6 
Q 1494 -44 1306 -44 
Q 1000 -44 831 53 
Q 663 150 594 308 
Q 525 466 525 972 
L 525 2881 
L 113 2881 
L 113 3319 
L 525 3319 
L 525 4141 
L 1084 4478 
L 1084 3319 
L 1650 3319 
L 1650 2881 
L 1084 2881 
L 1084 941 
Q 1084 700 1114 631 
Q 1144 563 1211 522 
Q 1278 481 1403 481 
Q 1497 481 1650 503 
z
" id="ArialMT-74" transform="scale(0.015625)"/>
      <path d="M 425 3934 
L 425 4581 
L 988 4581 
L 988 3934 
L 425 3934 
z
M 425 0 
L 425 3319 
L 988 3319 
L 988 0 
L 425 0 
z
" id="ArialMT-69" transform="scale(0.015625)"/>
      <path d="M 1344 0 
L 81 3319 
L 675 3319 
L 1388 1331 
Q 1503 1009 1600 663 
Q 1675 925 1809 1294 
L 2547 3319 
L 3125 3319 
L 1869 0 
L 1344 0 
z
" id="ArialMT-76" transform="scale(0.015625)"/>
      <path d="M 2588 409 
Q 2275 144 1986 34 
Q 1697 -75 1366 -75 
Q 819 -75 525 192 
Q 231 459 231 875 
Q 231 1119 342 1320 
Q 453 1522 633 1644 
Q 813 1766 1038 1828 
Q 1203 1872 1538 1913 
Q 2219 1994 2541 2106 
Q 2544 2222 2544 2253 
Q 2544 2597 2384 2738 
Q 2169 2928 1744 2928 
Q 1347 2928 1158 2789 
Q 969 2650 878 2297 
L 328 2372 
Q 403 2725 575 2942 
Q 747 3159 1072 3276 
Q 1397 3394 1825 3394 
Q 2250 3394 2515 3294 
Q 2781 3194 2906 3042 
Q 3031 2891 3081 2659 
Q 3109 2516 3109 2141 
L 3109 1391 
Q 3109 606 3145 398 
Q 3181 191 3288 0 
L 2700 0 
Q 2613 175 2588 409 
z
M 2541 1666 
Q 2234 1541 1622 1453 
Q 1275 1403 1131 1340 
Q 988 1278 909 1158 
Q 831 1038 831 891 
Q 831 666 1001 516 
Q 1172 366 1500 366 
Q 1825 366 2078 508 
Q 2331 650 2450 897 
Q 2541 1088 2541 1459 
L 2541 1666 
z
" id="ArialMT-61" transform="scale(0.015625)"/>
      <path d="M 213 1659 
Q 213 2581 725 3025 
Q 1153 3394 1769 3394 
Q 2453 3394 2887 2945 
Q 3322 2497 3322 1706 
Q 3322 1066 3130 698 
Q 2938 331 2570 128 
Q 2203 -75 1769 -75 
Q 1072 -75 642 372 
Q 213 819 213 1659 
z
M 791 1659 
Q 791 1022 1069 705 
Q 1347 388 1769 388 
Q 2188 388 2466 706 
Q 2744 1025 2744 1678 
Q 2744 2294 2464 2611 
Q 2184 2928 1769 2928 
Q 1347 2928 1069 2612 
Q 791 2297 791 1659 
z
" id="ArialMT-6f" transform="scale(0.015625)"/>
      <path d="M 422 0 
L 422 3319 
L 928 3319 
L 928 2847 
Q 1294 3394 1984 3394 
Q 2284 3394 2536 3286 
Q 2788 3178 2913 3003 
Q 3038 2828 3088 2588 
Q 3119 2431 3119 2041 
L 3119 0 
L 2556 0 
L 2556 2019 
Q 2556 2363 2490 2533 
Q 2425 2703 2258 2804 
Q 2091 2906 1866 2906 
Q 1506 2906 1245 2678 
Q 984 2450 984 1813 
L 984 0 
L 422 0 
z
" id="ArialMT-6e" transform="scale(0.015625)"/>
      <path d="M 197 991 
L 753 1078 
Q 800 744 1014 566 
Q 1228 388 1613 388 
Q 2000 388 2187 545 
Q 2375 703 2375 916 
Q 2375 1106 2209 1216 
Q 2094 1291 1634 1406 
Q 1016 1563 777 1677 
Q 538 1791 414 1992 
Q 291 2194 291 2438 
Q 291 2659 392 2848 
Q 494 3038 669 3163 
Q 800 3259 1026 3326 
Q 1253 3394 1513 3394 
Q 1903 3394 2198 3281 
Q 2494 3169 2634 2976 
Q 2775 2784 2828 2463 
L 2278 2388 
Q 2241 2644 2061 2787 
Q 1881 2931 1553 2931 
Q 1166 2931 1000 2803 
Q 834 2675 834 2503 
Q 834 2394 903 2306 
Q 972 2216 1119 2156 
Q 1203 2125 1616 2013 
Q 2213 1853 2448 1751 
Q 2684 1650 2818 1456 
Q 2953 1263 2953 975 
Q 2953 694 2789 445 
Q 2625 197 2315 61 
Q 2006 -75 1616 -75 
Q 969 -75 630 194 
Q 291 463 197 991 
z
" id="ArialMT-73" transform="scale(0.015625)"/>
      <path id="ArialMT-20" transform="scale(0.015625)"/>
      <path d="M 556 0 
L 556 2881 
L 59 2881 
L 59 3319 
L 556 3319 
L 556 3672 
Q 556 4006 616 4169 
Q 697 4388 901 4523 
Q 1106 4659 1475 4659 
Q 1713 4659 2000 4603 
L 1916 4113 
Q 1741 4144 1584 4144 
Q 1328 4144 1222 4034 
Q 1116 3925 1116 3625 
L 1116 3319 
L 1763 3319 
L 1763 2881 
L 1116 2881 
L 1116 0 
L 556 0 
z
" id="ArialMT-66" transform="scale(0.015625)"/>
      <path d="M 416 0 
L 416 3319 
L 922 3319 
L 922 2816 
Q 1116 3169 1280 3281 
Q 1444 3394 1641 3394 
Q 1925 3394 2219 3213 
L 2025 2691 
Q 1819 2813 1613 2813 
Q 1428 2813 1281 2702 
Q 1134 2591 1072 2394 
Q 978 2094 978 1738 
L 978 0 
L 416 0 
z
" id="ArialMT-72" transform="scale(0.015625)"/>
      <path d="M 3384 2003 
L 350 706 
L 350 1266 
L 2753 2263 
L 350 3250 
L 350 3809 
L 3384 2528 
L 3384 2003 
z
" id="ArialMT-3e" transform="scale(0.015625)"/>
      <path d="M 2069 0 
L 2069 1097 
L 81 1097 
L 81 1613 
L 2172 4581 
L 2631 4581 
L 2631 1613 
L 3250 1613 
L 3250 1097 
L 2631 1097 
L 2631 0 
L 2069 0 
z
M 2069 1613 
L 2069 3678 
L 634 1613 
L 2069 1613 
z
" id="ArialMT-34" transform="scale(0.015625)"/>
      <path d="M 350 2003 
L 350 2528 
L 3384 3809 
L 3384 3250 
L 978 2263 
L 3384 1266 
L 3384 706 
L 350 2003 
z
" id="ArialMT-3c" transform="scale(0.015625)"/>
     </defs>
     <use xlink:href="#ArialMT-41"/>
     <use x="66.699219" xlink:href="#ArialMT-63"/>
     <use x="116.699219" xlink:href="#ArialMT-74"/>
     <use x="144.482422" xlink:href="#ArialMT-69"/>
     <use x="166.699219" xlink:href="#ArialMT-76"/>
     <use x="216.699219" xlink:href="#ArialMT-61"/>
     <use x="272.314453" xlink:href="#ArialMT-74"/>
     <use x="300.097656" xlink:href="#ArialMT-69"/>
     <use x="322.314453" xlink:href="#ArialMT-6f"/>
     <use x="377.929688" xlink:href="#ArialMT-6e"/>
     <use x="433.544922" xlink:href="#ArialMT-73"/>
     <use x="483.544922" xlink:href="#ArialMT-20"/>
     <use x="511.328125" xlink:href="#ArialMT-66"/>
     <use x="539.111328" xlink:href="#ArialMT-6f"/>
     <use x="594.726562" xlink:href="#ArialMT-72"/>
     <use x="628.027344" xlink:href="#ArialMT-20"/>
     <use x="655.810547" xlink:href="#ArialMT-3e"/>
     <use x="714.208984" xlink:href="#ArialMT-34"/>
     <use x="769.824219" xlink:href="#ArialMT-3c"/>
    </g>
   </g>
   <g id="legend_1">
    <g id="patch_7">
     <path d="M 640.044062 158.514363 
L 750.46 158.514363 
Q 752.66 158.514363 752.66 156.314363 
L 752.66 79.1528 
Q 752.66 76.9528 750.46 76.9528 
L 640.044062 76.9528 
Q 637.844062 76.9528 637.844062 79.1528 
L 637.844062 156.314363 
Q 637.844062 158.514363 640.044062 158.514363 
z
" style="fill:#ffffff;opacity:0.8;stroke:#cccccc;stroke-linejoin:miter;"/>
    </g>
    <g id="line2d_11">
     <path d="M 642.244062 85.376394 
L 664.244062 85.376394 
" style="fill:none;stroke:#4c72b0;stroke-linecap:round;stroke-width:1.5;"/>
    </g>
    <g id="line2d_12"/>
    <g id="text_17">
     <!-- regular -->
     <g style="fill:#262626;" transform="translate(673.044062 89.226394)scale(0.11 -0.11)">
      <defs>
       <path d="M 2694 1069 
L 3275 997 
Q 3138 488 2766 206 
Q 2394 -75 1816 -75 
Q 1088 -75 661 373 
Q 234 822 234 1631 
Q 234 2469 665 2931 
Q 1097 3394 1784 3394 
Q 2450 3394 2872 2941 
Q 3294 2488 3294 1666 
Q 3294 1616 3291 1516 
L 816 1516 
Q 847 969 1125 678 
Q 1403 388 1819 388 
Q 2128 388 2347 550 
Q 2566 713 2694 1069 
z
M 847 1978 
L 2700 1978 
Q 2663 2397 2488 2606 
Q 2219 2931 1791 2931 
Q 1403 2931 1139 2672 
Q 875 2413 847 1978 
z
" id="ArialMT-65" transform="scale(0.015625)"/>
       <path d="M 319 -275 
L 866 -356 
Q 900 -609 1056 -725 
Q 1266 -881 1628 -881 
Q 2019 -881 2231 -725 
Q 2444 -569 2519 -288 
Q 2563 -116 2559 434 
Q 2191 0 1641 0 
Q 956 0 581 494 
Q 206 988 206 1678 
Q 206 2153 378 2554 
Q 550 2956 876 3175 
Q 1203 3394 1644 3394 
Q 2231 3394 2613 2919 
L 2613 3319 
L 3131 3319 
L 3131 450 
Q 3131 -325 2973 -648 
Q 2816 -972 2473 -1159 
Q 2131 -1347 1631 -1347 
Q 1038 -1347 672 -1080 
Q 306 -813 319 -275 
z
M 784 1719 
Q 784 1066 1043 766 
Q 1303 466 1694 466 
Q 2081 466 2343 764 
Q 2606 1063 2606 1700 
Q 2606 2309 2336 2618 
Q 2066 2928 1684 2928 
Q 1309 2928 1046 2623 
Q 784 2319 784 1719 
z
" id="ArialMT-67" transform="scale(0.015625)"/>
       <path d="M 2597 0 
L 2597 488 
Q 2209 -75 1544 -75 
Q 1250 -75 995 37 
Q 741 150 617 320 
Q 494 491 444 738 
Q 409 903 409 1263 
L 409 3319 
L 972 3319 
L 972 1478 
Q 972 1038 1006 884 
Q 1059 663 1231 536 
Q 1403 409 1656 409 
Q 1909 409 2131 539 
Q 2353 669 2445 892 
Q 2538 1116 2538 1541 
L 2538 3319 
L 3100 3319 
L 3100 0 
L 2597 0 
z
" id="ArialMT-75" transform="scale(0.015625)"/>
       <path d="M 409 0 
L 409 4581 
L 972 4581 
L 972 0 
L 409 0 
z
" id="ArialMT-6c" transform="scale(0.015625)"/>
      </defs>
      <use xlink:href="#ArialMT-72"/>
      <use x="33.300781" xlink:href="#ArialMT-65"/>
      <use x="88.916016" xlink:href="#ArialMT-67"/>
      <use x="144.53125" xlink:href="#ArialMT-75"/>
      <use x="200.146484" xlink:href="#ArialMT-6c"/>
      <use x="222.363281" xlink:href="#ArialMT-61"/>
      <use x="277.978516" xlink:href="#ArialMT-72"/>
     </g>
    </g>
    <g id="line2d_13">
     <path d="M 642.244062 101.0978 
L 664.244062 101.0978 
" style="fill:none;stroke:#dd8452;stroke-dasharray:6,2.25;stroke-dashoffset:0;stroke-width:1.5;"/>
    </g>
    <g id="line2d_14"/>
    <g id="text_18">
     <!-- splitted_3s -->
     <g style="fill:#262626;" transform="translate(673.044062 104.9478)scale(0.11 -0.11)">
      <defs>
       <path d="M 422 -1272 
L 422 3319 
L 934 3319 
L 934 2888 
Q 1116 3141 1344 3267 
Q 1572 3394 1897 3394 
Q 2322 3394 2647 3175 
Q 2972 2956 3137 2557 
Q 3303 2159 3303 1684 
Q 3303 1175 3120 767 
Q 2938 359 2589 142 
Q 2241 -75 1856 -75 
Q 1575 -75 1351 44 
Q 1128 163 984 344 
L 984 -1272 
L 422 -1272 
z
M 931 1641 
Q 931 1000 1190 694 
Q 1450 388 1819 388 
Q 2194 388 2461 705 
Q 2728 1022 2728 1688 
Q 2728 2322 2467 2637 
Q 2206 2953 1844 2953 
Q 1484 2953 1207 2617 
Q 931 2281 931 1641 
z
" id="ArialMT-70" transform="scale(0.015625)"/>
       <path d="M 2575 0 
L 2575 419 
Q 2259 -75 1647 -75 
Q 1250 -75 917 144 
Q 584 363 401 755 
Q 219 1147 219 1656 
Q 219 2153 384 2558 
Q 550 2963 881 3178 
Q 1213 3394 1622 3394 
Q 1922 3394 2156 3267 
Q 2391 3141 2538 2938 
L 2538 4581 
L 3097 4581 
L 3097 0 
L 2575 0 
z
M 797 1656 
Q 797 1019 1065 703 
Q 1334 388 1700 388 
Q 2069 388 2326 689 
Q 2584 991 2584 1609 
Q 2584 2291 2321 2609 
Q 2059 2928 1675 2928 
Q 1300 2928 1048 2622 
Q 797 2316 797 1656 
z
" id="ArialMT-64" transform="scale(0.015625)"/>
       <path d="M -97 -1272 
L -97 -866 
L 3631 -866 
L 3631 -1272 
L -97 -1272 
z
" id="ArialMT-5f" transform="scale(0.015625)"/>
       <path d="M 269 1209 
L 831 1284 
Q 928 806 1161 595 
Q 1394 384 1728 384 
Q 2125 384 2398 659 
Q 2672 934 2672 1341 
Q 2672 1728 2419 1979 
Q 2166 2231 1775 2231 
Q 1616 2231 1378 2169 
L 1441 2663 
Q 1497 2656 1531 2656 
Q 1891 2656 2178 2843 
Q 2466 3031 2466 3422 
Q 2466 3731 2256 3934 
Q 2047 4138 1716 4138 
Q 1388 4138 1169 3931 
Q 950 3725 888 3313 
L 325 3413 
Q 428 3978 793 4289 
Q 1159 4600 1703 4600 
Q 2078 4600 2393 4439 
Q 2709 4278 2876 4000 
Q 3044 3722 3044 3409 
Q 3044 3113 2884 2869 
Q 2725 2625 2413 2481 
Q 2819 2388 3044 2092 
Q 3269 1797 3269 1353 
Q 3269 753 2831 336 
Q 2394 -81 1725 -81 
Q 1122 -81 723 278 
Q 325 638 269 1209 
z
" id="ArialMT-33" transform="scale(0.015625)"/>
      </defs>
      <use xlink:href="#ArialMT-73"/>
      <use x="50" xlink:href="#ArialMT-70"/>
      <use x="105.615234" xlink:href="#ArialMT-6c"/>
      <use x="127.832031" xlink:href="#ArialMT-69"/>
      <use x="150.048828" xlink:href="#ArialMT-74"/>
      <use x="177.832031" xlink:href="#ArialMT-74"/>
      <use x="205.615234" xlink:href="#ArialMT-65"/>
      <use x="261.230469" xlink:href="#ArialMT-64"/>
      <use x="316.845703" xlink:href="#ArialMT-5f"/>
      <use x="372.460938" xlink:href="#ArialMT-33"/>
      <use x="428.076172" xlink:href="#ArialMT-73"/>
     </g>
    </g>
    <g id="line2d_15">
     <path d="M 642.244062 116.6903 
L 664.244062 116.6903 
" style="fill:none;stroke:#55a868;stroke-dasharray:1.5,1.5;stroke-dashoffset:0;stroke-width:1.5;"/>
    </g>
    <g id="line2d_16"/>
    <g id="text_19">
     <!-- splitted_1s -->
     <g style="fill:#262626;" transform="translate(673.044062 120.5403)scale(0.11 -0.11)">
      <use xlink:href="#ArialMT-73"/>
      <use x="50" xlink:href="#ArialMT-70"/>
      <use x="105.615234" xlink:href="#ArialMT-6c"/>
      <use x="127.832031" xlink:href="#ArialMT-69"/>
      <use x="150.048828" xlink:href="#ArialMT-74"/>
      <use x="177.832031" xlink:href="#ArialMT-74"/>
      <use x="205.615234" xlink:href="#ArialMT-65"/>
      <use x="261.230469" xlink:href="#ArialMT-64"/>
      <use x="316.845703" xlink:href="#ArialMT-5f"/>
      <use x="372.460938" xlink:href="#ArialMT-31"/>
      <use x="428.076172" xlink:href="#ArialMT-73"/>
     </g>
    </g>
    <g id="line2d_17">
     <path d="M 642.244062 132.384206 
L 664.244062 132.384206 
" style="fill:none;stroke:#c44e52;stroke-dasharray:4.5,1.875,2.25,1.875;stroke-dashoffset:0;stroke-width:1.5;"/>
    </g>
    <g id="line2d_18"/>
    <g id="text_20">
     <!-- overlap_1f_3s -->
     <g style="fill:#262626;" transform="translate(673.044062 136.234206)scale(0.11 -0.11)">
      <use xlink:href="#ArialMT-6f"/>
      <use x="55.615234" xlink:href="#ArialMT-76"/>
      <use x="105.615234" xlink:href="#ArialMT-65"/>
      <use x="161.230469" xlink:href="#ArialMT-72"/>
      <use x="194.53125" xlink:href="#ArialMT-6c"/>
      <use x="216.748047" xlink:href="#ArialMT-61"/>
      <use x="272.363281" xlink:href="#ArialMT-70"/>
      <use x="327.978516" xlink:href="#ArialMT-5f"/>
      <use x="383.59375" xlink:href="#ArialMT-31"/>
      <use x="439.208984" xlink:href="#ArialMT-66"/>
      <use x="466.992188" xlink:href="#ArialMT-5f"/>
      <use x="522.607422" xlink:href="#ArialMT-33"/>
      <use x="578.222656" xlink:href="#ArialMT-73"/>
     </g>
    </g>
    <g id="line2d_19">
     <path d="M 642.244062 148.078113 
L 664.244062 148.078113 
" style="fill:none;stroke:#8172b3;stroke-dasharray:7.5,1.5,1.5,1.5;stroke-dashoffset:0;stroke-width:1.5;"/>
    </g>
    <g id="line2d_20"/>
    <g id="text_21">
     <!-- overlap_10f_3s -->
     <g style="fill:#262626;" transform="translate(673.044062 151.928112)scale(0.11 -0.11)">
      <use xlink:href="#ArialMT-6f"/>
      <use x="55.615234" xlink:href="#ArialMT-76"/>
      <use x="105.615234" xlink:href="#ArialMT-65"/>
      <use x="161.230469" xlink:href="#ArialMT-72"/>
      <use x="194.53125" xlink:href="#ArialMT-6c"/>
      <use x="216.748047" xlink:href="#ArialMT-61"/>
      <use x="272.363281" xlink:href="#ArialMT-70"/>
      <use x="327.978516" xlink:href="#ArialMT-5f"/>
      <use x="383.59375" xlink:href="#ArialMT-31"/>
      <use x="439.208984" xlink:href="#ArialMT-30"/>
      <use x="494.824219" xlink:href="#ArialMT-66"/>
      <use x="522.607422" xlink:href="#ArialMT-5f"/>
      <use x="578.222656" xlink:href="#ArialMT-33"/>
      <use x="633.837891" xlink:href="#ArialMT-73"/>
     </g>
    </g>
   </g>
  </g>
 </g>
 <defs>
  <clipPath id="p382b42bd16">
   <rect height="458.4888" width="652.86" x="105.3" y="71.4528"/>
  </clipPath>
 </defs>
</svg>
