<?xml version="1.0" encoding="utf-8" standalone="no"?>
<!DOCTYPE svg PUBLIC "-//W3C//DTD SVG 1.1//EN"
  "http://www.w3.org/Graphics/SVG/1.1/DTD/svg11.dtd">
<svg height="595.44pt" version="1.1" viewBox="0 0 842.4 595.44" width="842.4pt" xmlns="http://www.w3.org/2000/svg" xmlns:xlink="http://www.w3.org/1999/xlink">
 <metadata>
  <rdf:RDF xmlns:cc="http://creativecommons.org/ns#" xmlns:dc="http://purl.org/dc/elements/1.1/" xmlns:rdf="http://www.w3.org/1999/02/22-rdf-syntax-ns#">
   <cc:Work>
    <dc:type rdf:resource="http://purl.org/dc/dcmitype/StillImage"/>
    <dc:date>2021-06-01T00:54:11.566352</dc:date>
    <dc:format>image/svg+xml</dc:format>
    <dc:creator>
     <cc:Agent>
      <dc:title>Matplotlib v3.4.1, https://matplotlib.org/</dc:title>
     </cc:Agent>
    </dc:creator>
   </cc:Work>
  </rdf:RDF>
 </metadata>
 <defs>
  <style type="text/css">*{stroke-linecap:butt;stroke-linejoin:round;}</style>
 </defs>
 <g id="figure_1">
  <g id="patch_1">
   <path d="M 0 595.44 
L 842.4 595.44 
L 842.4 0 
L 0 0 
z
" style="fill:#ffffff;"/>
  </g>
  <g id="axes_1">
   <g id="patch_2">
    <path d="M 105.3 529.9416 
L 758.16 529.9416 
L 758.16 71.4528 
L 105.3 71.4528 
z
" style="fill:#ffffff;"/>
   </g>
   <g id="matplotlib.axis_1">
    <g id="xtick_1">
     <g id="text_1">
      <!-- 0 -->
      <g style="fill:#262626;" transform="translate(131.916939 547.315194)scale(0.11 -0.11)">
       <defs>
        <path d="M 266 2259 
Q 266 3072 433 3567 
Q 600 4063 929 4331 
Q 1259 4600 1759 4600 
Q 2128 4600 2406 4451 
Q 2684 4303 2865 4023 
Q 3047 3744 3150 3342 
Q 3253 2941 3253 2259 
Q 3253 1453 3087 958 
Q 2922 463 2592 192 
Q 2263 -78 1759 -78 
Q 1097 -78 719 397 
Q 266 969 266 2259 
z
M 844 2259 
Q 844 1131 1108 757 
Q 1372 384 1759 384 
Q 2147 384 2411 759 
Q 2675 1134 2675 2259 
Q 2675 3391 2411 3762 
Q 2147 4134 1753 4134 
Q 1366 4134 1134 3806 
Q 844 3388 844 2259 
z
" id="ArialMT-30" transform="scale(0.015625)"/>
       </defs>
       <use xlink:href="#ArialMT-30"/>
      </g>
     </g>
    </g>
    <g id="xtick_2">
     <g id="text_2">
      <!-- 25 -->
      <g style="fill:#262626;" transform="translate(201.950676 547.315194)scale(0.11 -0.11)">
       <defs>
        <path d="M 3222 541 
L 3222 0 
L 194 0 
Q 188 203 259 391 
Q 375 700 629 1000 
Q 884 1300 1366 1694 
Q 2113 2306 2375 2664 
Q 2638 3022 2638 3341 
Q 2638 3675 2398 3904 
Q 2159 4134 1775 4134 
Q 1369 4134 1125 3890 
Q 881 3647 878 3216 
L 300 3275 
Q 359 3922 746 4261 
Q 1134 4600 1788 4600 
Q 2447 4600 2831 4234 
Q 3216 3869 3216 3328 
Q 3216 3053 3103 2787 
Q 2991 2522 2730 2228 
Q 2469 1934 1863 1422 
Q 1356 997 1212 845 
Q 1069 694 975 541 
L 3222 541 
z
" id="ArialMT-32" transform="scale(0.015625)"/>
        <path d="M 266 1200 
L 856 1250 
Q 922 819 1161 601 
Q 1400 384 1738 384 
Q 2144 384 2425 690 
Q 2706 997 2706 1503 
Q 2706 1984 2436 2262 
Q 2166 2541 1728 2541 
Q 1456 2541 1237 2417 
Q 1019 2294 894 2097 
L 366 2166 
L 809 4519 
L 3088 4519 
L 3088 3981 
L 1259 3981 
L 1013 2750 
Q 1425 3038 1878 3038 
Q 2478 3038 2890 2622 
Q 3303 2206 3303 1553 
Q 3303 931 2941 478 
Q 2500 -78 1738 -78 
Q 1113 -78 717 272 
Q 322 622 266 1200 
z
" id="ArialMT-35" transform="scale(0.015625)"/>
       </defs>
       <use xlink:href="#ArialMT-32"/>
       <use x="55.615234" xlink:href="#ArialMT-35"/>
      </g>
     </g>
    </g>
    <g id="xtick_3">
     <g id="text_3">
      <!-- 50 -->
      <g style="fill:#262626;" transform="translate(275.042928 547.315194)scale(0.11 -0.11)">
       <use xlink:href="#ArialMT-35"/>
       <use x="55.615234" xlink:href="#ArialMT-30"/>
      </g>
     </g>
    </g>
    <g id="xtick_4">
     <g id="text_4">
      <!-- 75 -->
      <g style="fill:#262626;" transform="translate(348.135181 547.315194)scale(0.11 -0.11)">
       <defs>
        <path d="M 303 3981 
L 303 4522 
L 3269 4522 
L 3269 4084 
Q 2831 3619 2401 2847 
Q 1972 2075 1738 1259 
Q 1569 684 1522 0 
L 944 0 
Q 953 541 1156 1306 
Q 1359 2072 1739 2783 
Q 2119 3494 2547 3981 
L 303 3981 
z
" id="ArialMT-37" transform="scale(0.015625)"/>
       </defs>
       <use xlink:href="#ArialMT-37"/>
       <use x="55.615234" xlink:href="#ArialMT-35"/>
      </g>
     </g>
    </g>
    <g id="xtick_5">
     <g id="text_5">
      <!-- 100 -->
      <g style="fill:#262626;" transform="translate(418.168918 547.315194)scale(0.11 -0.11)">
       <defs>
        <path d="M 2384 0 
L 1822 0 
L 1822 3584 
Q 1619 3391 1289 3197 
Q 959 3003 697 2906 
L 697 3450 
Q 1169 3672 1522 3987 
Q 1875 4303 2022 4600 
L 2384 4600 
L 2384 0 
z
" id="ArialMT-31" transform="scale(0.015625)"/>
       </defs>
       <use xlink:href="#ArialMT-31"/>
       <use x="55.615234" xlink:href="#ArialMT-30"/>
       <use x="111.230469" xlink:href="#ArialMT-30"/>
      </g>
     </g>
    </g>
    <g id="xtick_6">
     <g id="text_6">
      <!-- 125 -->
      <g style="fill:#262626;" transform="translate(491.261171 547.315194)scale(0.11 -0.11)">
       <use xlink:href="#ArialMT-31"/>
       <use x="55.615234" xlink:href="#ArialMT-32"/>
       <use x="111.230469" xlink:href="#ArialMT-35"/>
      </g>
     </g>
    </g>
    <g id="xtick_7">
     <g id="text_7">
      <!-- 150 -->
      <g style="fill:#262626;" transform="translate(564.353423 547.315194)scale(0.11 -0.11)">
       <use xlink:href="#ArialMT-31"/>
       <use x="55.615234" xlink:href="#ArialMT-35"/>
       <use x="111.230469" xlink:href="#ArialMT-30"/>
      </g>
     </g>
    </g>
    <g id="xtick_8">
     <g id="text_8">
      <!-- 175 -->
      <g style="fill:#262626;" transform="translate(637.445676 547.315194)scale(0.11 -0.11)">
       <use xlink:href="#ArialMT-31"/>
       <use x="55.615234" xlink:href="#ArialMT-37"/>
       <use x="111.230469" xlink:href="#ArialMT-35"/>
      </g>
     </g>
    </g>
    <g id="xtick_9">
     <g id="text_9">
      <!-- 200 -->
      <g style="fill:#262626;" transform="translate(710.537928 547.315194)scale(0.11 -0.11)">
       <use xlink:href="#ArialMT-32"/>
       <use x="55.615234" xlink:href="#ArialMT-30"/>
       <use x="111.230469" xlink:href="#ArialMT-30"/>
      </g>
     </g>
    </g>
   </g>
   <g id="matplotlib.axis_2">
    <g id="ytick_1">
     <g id="text_10">
      <!-- −25 -->
      <g style="fill:#262626;" transform="translate(77.14125 533.878397)scale(0.11 -0.11)">
       <defs>
        <path d="M 3381 1997 
L 356 1997 
L 356 2522 
L 3381 2522 
L 3381 1997 
z
" id="ArialMT-2212" transform="scale(0.015625)"/>
       </defs>
       <use xlink:href="#ArialMT-2212"/>
       <use x="58.398438" xlink:href="#ArialMT-32"/>
       <use x="114.013672" xlink:href="#ArialMT-35"/>
      </g>
     </g>
    </g>
    <g id="ytick_2">
     <g id="text_11">
      <!-- −20 -->
      <g style="fill:#262626;" transform="translate(77.14125 442.180637)scale(0.11 -0.11)">
       <use xlink:href="#ArialMT-2212"/>
       <use x="58.398438" xlink:href="#ArialMT-32"/>
       <use x="114.013672" xlink:href="#ArialMT-30"/>
      </g>
     </g>
    </g>
    <g id="ytick_3">
     <g id="text_12">
      <!-- −15 -->
      <g style="fill:#262626;" transform="translate(77.14125 350.482877)scale(0.11 -0.11)">
       <use xlink:href="#ArialMT-2212"/>
       <use x="58.398438" xlink:href="#ArialMT-31"/>
       <use x="114.013672" xlink:href="#ArialMT-35"/>
      </g>
     </g>
    </g>
    <g id="ytick_4">
     <g id="text_13">
      <!-- −10 -->
      <g style="fill:#262626;" transform="translate(77.14125 258.785117)scale(0.11 -0.11)">
       <use xlink:href="#ArialMT-2212"/>
       <use x="58.398438" xlink:href="#ArialMT-31"/>
       <use x="114.013672" xlink:href="#ArialMT-30"/>
      </g>
     </g>
    </g>
    <g id="ytick_5">
     <g id="text_14">
      <!-- −5 -->
      <g style="fill:#262626;" transform="translate(83.258281 167.087357)scale(0.11 -0.11)">
       <use xlink:href="#ArialMT-2212"/>
       <use x="58.398438" xlink:href="#ArialMT-35"/>
      </g>
     </g>
    </g>
    <g id="ytick_6">
     <g id="text_15">
      <!-- 0 -->
      <g style="fill:#262626;" transform="translate(89.682969 75.389597)scale(0.11 -0.11)">
       <use xlink:href="#ArialMT-30"/>
      </g>
     </g>
    </g>
   </g>
   <g id="line2d_1">
    <path clip-path="url(#pe3df851c8b)" d="M 134.975455 463.456072 
L 137.899145 464.350543 
L 140.822835 467.518535 
L 143.746525 467.135994 
L 146.670215 466.488341 
L 149.593905 470.420469 
L 152.517595 469.335846 
L 155.441285 472.425168 
L 164.212356 478.022025 
L 167.136046 482.875489 
L 170.059736 506.8771 
L 172.983426 520.109689 
L 175.907116 532.312679 
L 178.830806 565.483507 
L 181.277492 596.44 
M 181.923782 596.44 
L 184.678186 498.241678 
L 187.601876 458.568642 
L 190.525567 544.305404 
L 193.449257 496.667721 
L 196.372947 422.062619 
L 199.296637 410.092945 
L 202.220327 363.431219 
L 205.144017 468.863408 
L 208.067707 581.604982 
L 210.991397 503.044106 
L 213.915087 474.142367 
L 216.838777 489.276359 
L 219.762468 485.411638 
L 222.686158 466.474034 
L 225.609848 463.272007 
L 228.533538 498.198338 
L 231.457228 503.076672 
L 234.380918 377.61388 
L 237.304608 474.192773 
L 240.228298 536.620876 
L 243.151988 468.835109 
L 246.075678 395.740684 
L 248.999369 409.699596 
L 251.923059 513.851362 
L 254.846749 504.697362 
L 257.770439 548.747959 
L 260.694129 497.596298 
L 263.103666 596.44 
M 264.105027 596.44 
L 266.541509 490.963301 
L 269.465199 459.170927 
L 272.388889 458.837603 
L 275.312579 488.010156 
L 278.23627 494.089351 
L 281.15996 493.407733 
L 284.08365 458.892906 
L 287.00734 459.850412 
L 289.93103 495.490752 
L 292.85472 424.140321 
L 295.77841 394.580261 
L 298.7021 471.412149 
L 301.62579 469.098508 
L 304.549481 477.620945 
L 307.473171 456.518609 
L 310.396861 453.405256 
L 313.320551 421.40734 
L 316.244241 456.494018 
L 319.167931 419.585621 
L 322.091621 483.799623 
L 325.015311 430.010826 
L 327.939001 475.519282 
L 330.862691 497.740625 
L 333.786382 467.54477 
L 336.710072 412.394134 
L 342.557452 531.755799 
L 345.481142 475.050761 
L 348.404832 423.051082 
L 351.328522 424.924291 
L 354.252212 504.524176 
L 357.175902 549.240266 
L 360.099592 543.610808 
L 363.023283 592.717578 
L 365.946973 453.343797 
L 368.870663 425.307566 
L 371.794353 440.876569 
L 374.718043 454.509153 
L 377.641733 526.637782 
L 380.565423 535.624088 
L 383.489113 447.473851 
L 386.412803 400.374159 
L 389.336494 476.306295 
L 392.260184 527.841965 
L 395.183874 516.193023 
L 398.107564 418.482144 
L 401.031254 389.72134 
L 403.954944 420.024444 
L 406.878634 461.706971 
L 409.802324 453.761527 
L 412.726014 451.23916 
L 415.649704 532.898942 
L 418.573395 487.225941 
L 421.497085 558.886294 
L 424.09226 596.44 
M 424.562917 596.44 
L 427.344465 503.413739 
L 430.268155 509.016332 
L 433.191845 480.038792 
L 436.115535 442.958958 
L 439.039225 487.810386 
L 441.962915 505.582983 
L 447.810296 420.698962 
L 450.733986 474.846513 
L 453.657676 555.284657 
L 456.581366 478.385186 
L 459.505056 569.855612 
L 462.428746 505.942997 
L 465.352436 491.299213 
L 468.276126 448.328481 
L 471.199816 459.195867 
L 474.123506 478.936925 
L 477.047197 474.036938 
L 479.970887 379.114834 
L 482.894577 441.123527 
L 485.818267 452.630346 
L 488.741957 490.130044 
L 491.665647 472.222179 
L 494.589337 481.381916 
L 497.513027 542.527865 
L 500.436717 483.943741 
L 503.360408 440.607048 
L 509.207788 544.728312 
L 512.131478 521.952221 
L 515.055168 483.940487 
L 517.978858 375.812764 
L 520.902548 452.818258 
L 523.826238 483.694544 
L 526.749928 449.034795 
L 529.673618 509.285223 
L 532.597309 538.781096 
L 535.520999 432.450746 
L 538.444689 389.191569 
L 541.368379 543.969562 
L 544.292069 552.364533 
L 547.215759 458.367053 
L 550.139449 486.883488 
L 553.063139 360.460865 
L 555.986829 454.688355 
L 558.910519 462.789844 
L 561.83421 449.069321 
L 564.7579 451.294463 
L 567.68159 421.496399 
L 570.60528 465.021773 
L 573.52897 470.823507 
L 576.45266 456.973033 
L 579.37635 460.458328 
L 582.30004 455.338737 
L 585.22373 406.050946 
L 588.147421 364.219597 
L 591.071111 400.886056 
L 593.994801 447.820083 
L 596.918491 385.574051 
L 599.842181 437.759823 
L 602.765871 409.876455 
L 605.689561 356.833202 
L 608.613251 403.665945 
L 611.536941 505.16256 
L 614.460631 490.992054 
L 617.384322 375.262425 
L 620.308012 420.861199 
L 623.231702 501.237568 
L 626.155392 551.840849 
L 629.079082 528.621808 
L 632.002772 512.636964 
L 634.926462 470.800281 
L 637.850152 486.125823 
L 640.773842 408.087651 
L 643.697532 335.482106 
L 646.621223 393.930683 
L 649.544913 463.122958 
L 652.468603 538.685705 
L 655.392293 506.820818 
L 658.315983 447.195656 
L 661.239673 495.155749 
L 664.163363 405.485145 
L 667.087053 451.700195 
L 670.010743 490.548474 
L 672.934433 513.791196 
L 675.858124 513.8812 
L 678.781814 501.106953 
L 681.705504 538.463128 
L 684.629194 567.64649 
L 687.552884 501.631372 
L 690.476574 595.032409 
L 693.400264 517.859711 
L 696.323954 524.78605 
L 699.247644 493.637306 
L 702.171335 472.48166 
L 705.095025 473.767452 
L 708.018715 471.836456 
L 710.942405 475.139889 
L 716.789785 476.593585 
L 719.713475 474.481288 
L 722.637165 475.003713 
L 725.560855 474.849206 
L 728.484545 478.695039 
L 728.484545 478.695039 
" style="fill:none;stroke:#4c72b0;stroke-linecap:round;stroke-width:1.5;"/>
   </g>
   <g id="line2d_2">
    <path clip-path="url(#pe3df851c8b)" d="M 134.975455 449.11448 
L 137.899145 451.279946 
L 140.822835 454.016915 
L 143.746525 452.810353 
L 146.670215 454.144452 
L 149.593905 456.755108 
L 152.517595 453.842016 
L 155.441285 455.053825 
L 158.364975 456.123441 
L 164.212356 457.721778 
L 167.136046 460.004953 
L 170.059736 481.297405 
L 172.983426 488.153084 
L 175.907116 502.496425 
L 178.830806 542.358807 
L 181.754496 571.25313 
L 184.678186 485.050995 
L 187.601876 427.372746 
L 190.525567 529.31483 
L 193.449257 476.894517 
L 196.372947 413.489251 
L 199.296637 390.537631 
L 202.220327 364.293999 
L 205.144017 487.155142 
L 208.067707 590.887883 
L 210.991397 513.143753 
L 213.915087 453.651935 
L 216.838777 487.588228 
L 219.762468 475.555276 
L 222.686158 457.627018 
L 225.609848 446.134575 
L 228.533538 472.444267 
L 231.457228 481.393844 
L 234.380918 366.994571 
L 237.304608 455.705116 
L 240.228298 512.590441 
L 243.151988 461.363993 
L 246.075678 398.854562 
L 248.999369 435.64004 
L 251.923059 508.013458 
L 254.846749 512.738965 
L 257.770439 562.782218 
L 260.694129 527.384008 
L 262.587963 596.44 
M 264.529726 596.44 
L 266.541509 513.594994 
L 269.465199 473.689272 
L 272.388889 484.44941 
L 275.312579 506.861324 
L 278.23627 518.39284 
L 281.15996 533.874462 
L 284.08365 482.61272 
L 287.00734 479.706133 
L 289.93103 516.995952 
L 292.85472 443.213857 
L 295.77841 388.320464 
L 298.7021 468.956699 
L 301.62579 473.747759 
L 304.549481 496.297144 
L 307.473171 475.4007 
L 310.396861 443.593879 
L 313.320551 438.056627 
L 316.244241 461.372913 
L 319.167931 437.699762 
L 322.091621 496.297319 
L 325.015311 434.380448 
L 327.939001 483.337818 
L 330.862691 470.446179 
L 333.786382 439.792646 
L 336.710072 431.980511 
L 339.633762 475.353092 
L 342.557452 506.088093 
L 348.404832 423.19373 
L 351.328522 503.078876 
L 354.252212 506.898893 
L 357.175902 447.061788 
L 360.099592 380.677911 
L 363.023283 356.282111 
L 365.946973 352.271436 
L 368.870663 361.998057 
L 371.794353 377.732427 
L 374.718043 405.356349 
L 377.641733 459.260895 
L 380.565423 519.925695 
L 383.489113 412.896866 
L 386.412803 399.365304 
L 389.336494 447.666101 
L 392.260184 509.757417 
L 395.183874 518.817391 
L 398.107564 403.260493 
L 401.031254 373.079643 
L 403.954944 434.121736 
L 406.878634 429.322421 
L 409.802324 474.459565 
L 412.726014 484.327715 
L 415.649704 529.260296 
L 418.573395 467.975652 
L 421.497085 544.904785 
L 424.420775 574.884955 
L 427.344465 480.621523 
L 430.268155 480.813947 
L 433.191845 452.312904 
L 436.115535 429.784226 
L 439.039225 506.817495 
L 441.962915 515.809153 
L 444.886605 421.869005 
L 447.810296 370.155077 
L 450.733986 478.423245 
L 453.657676 517.101276 
L 456.581366 467.123681 
L 459.505056 539.575385 
L 462.428746 475.192709 
L 465.352436 490.355385 
L 468.276126 427.150448 
L 471.199816 459.659316 
L 474.123506 444.911852 
L 477.047197 485.89597 
L 479.970887 364.315634 
L 482.894577 433.237899 
L 485.818267 469.575494 
L 488.741957 501.069209 
L 491.665647 490.921045 
L 494.589337 483.545949 
L 497.513027 548.312774 
L 500.436717 489.861993 
L 503.360408 447.839776 
L 506.284098 511.728535 
L 509.207788 554.37371 
L 512.131478 513.258522 
L 515.055168 490.34706 
L 517.978858 391.86316 
L 520.902548 464.41767 
L 523.826238 478.015589 
L 526.749928 449.520352 
L 529.673618 501.430797 
L 532.597309 519.32369 
L 535.520999 434.565387 
L 538.444689 400.396022 
L 541.368379 519.656769 
L 544.292069 544.32954 
L 547.215759 412.711927 
L 550.139449 455.204623 
L 553.063139 379.857492 
L 555.986829 405.077664 
L 558.910519 385.21855 
L 561.83421 326.222799 
L 564.7579 348.527622 
L 567.68159 344.128181 
L 570.60528 487.184945 
L 573.52897 341.7507 
L 576.45266 378.141482 
L 579.37635 383.93818 
L 582.30004 358.514774 
L 585.22373 399.600858 
L 588.147421 355.224685 
L 591.071111 402.923321 
L 593.994801 431.674506 
L 596.918491 362.655732 
L 599.842181 446.971505 
L 602.765871 388.155219 
L 605.689561 361.620641 
L 611.536941 502.268391 
L 614.460631 507.896135 
L 617.384322 435.915751 
L 620.308012 443.420064 
L 626.155392 568.414719 
L 629.079082 513.896171 
L 632.002772 532.488138 
L 634.926462 514.522766 
L 637.850152 482.697686 
L 640.773842 416.018649 
L 643.697532 315.261439 
L 646.621223 388.207409 
L 649.544913 476.21003 
L 652.468603 528.721011 
L 655.392293 516.564719 
L 658.315983 408.890126 
L 661.239673 481.075317 
L 664.163363 385.66164 
L 667.087053 447.745855 
L 670.010743 484.50237 
L 672.934433 493.89077 
L 675.858124 498.943725 
L 678.781814 519.338732 
L 681.705504 545.836755 
L 684.629194 563.818183 
L 687.552884 487.574831 
L 690.476574 579.329014 
L 693.400264 522.400384 
L 696.323954 518.193874 
L 702.171335 447.856707 
L 705.095025 453.386017 
L 708.018715 456.327199 
L 710.942405 460.351954 
L 713.866095 459.69587 
L 716.789785 460.529127 
L 719.713475 458.315947 
L 722.637165 459.370137 
L 728.484545 460.711862 
L 728.484545 460.711862 
" style="fill:none;stroke:#dd8452;stroke-dasharray:6,2.25;stroke-dashoffset:0;stroke-width:1.5;"/>
   </g>
   <g id="line2d_3">
    <path clip-path="url(#pe3df851c8b)" d="M 134.975455 473.555124 
L 137.899145 475.555066 
L 140.822835 477.836981 
L 143.746525 474.917872 
L 146.670215 480.718312 
L 149.593905 479.856862 
L 152.517595 479.237472 
L 155.441285 486.688265 
L 158.364975 488.346243 
L 161.288665 479.506153 
L 164.212356 477.719868 
L 167.136046 477.4387 
L 170.059736 482.864645 
L 172.983426 497.982546 
L 175.907116 509.145198 
L 178.830806 533.745386 
L 181.754496 562.501189 
L 184.678186 469.581685 
L 187.601876 453.364435 
L 190.525567 487.464819 
L 193.449257 467.873441 
L 196.372947 416.910357 
L 199.296637 412.84604 
L 202.220327 429.30822 
L 205.144017 507.966655 
L 208.067707 397.759271 
L 210.991397 447.303254 
L 213.915087 427.227299 
L 216.838777 415.001258 
L 219.762468 449.095486 
L 222.686158 438.99297 
L 225.609848 375.260641 
L 228.533538 413.224697 
L 231.457228 430.242044 
L 234.380918 351.970941 
L 237.304608 457.724542 
L 240.228298 536.390918 
L 243.151988 476.186873 
L 246.075678 383.457556 
L 248.999369 456.268118 
L 251.923059 439.478491 
L 254.846749 492.507454 
L 257.770439 529.300698 
L 260.694129 494.320778 
L 263.617819 571.238718 
L 266.541509 499.667074 
L 269.465199 486.386843 
L 272.388889 447.104743 
L 275.312579 442.298537 
L 278.23627 429.064514 
L 281.15996 402.49055 
L 284.08365 369.092317 
L 287.00734 368.644574 
L 289.93103 403.423534 
L 292.85472 374.514415 
L 295.77841 398.234613 
L 298.7021 512.178972 
L 301.62579 536.3693 
L 304.549481 516.725872 
L 307.473171 505.463947 
L 310.396861 502.134803 
L 316.244241 479.795052 
L 319.167931 460.389452 
L 322.091621 502.138965 
L 325.015311 461.762764 
L 327.939001 512.901167 
L 330.862691 505.061223 
L 333.786382 479.940848 
L 336.710072 445.790723 
L 339.633762 502.303581 
L 342.557452 554.165719 
L 345.481142 501.473717 
L 348.404832 436.31935 
L 351.328522 532.722888 
L 354.252212 437.1376 
L 357.175902 540.331021 
L 360.099592 487.91578 
L 363.023283 543.13788 
L 365.946973 401.072044 
L 368.870663 438.188642 
L 371.794353 382.266699 
L 374.718043 430.762895 
L 377.641733 417.370587 
L 380.565423 452.09274 
L 383.489113 443.435735 
L 386.412803 414.912409 
L 389.336494 495.99072 
L 392.260184 571.368738 
L 395.183874 545.128412 
L 398.107564 426.158488 
L 401.031254 408.344964 
L 403.954944 443.047143 
L 406.878634 439.135583 
L 409.802324 508.119797 
L 412.726014 512.172466 
L 415.649704 488.087777 
L 418.573395 493.790728 
L 421.497085 448.237743 
L 424.420775 369.516938 
L 427.344465 390.64481 
L 430.268155 393.964579 
L 433.191845 378.666741 
L 436.115535 377.275764 
L 439.039225 449.969214 
L 441.962915 492.395903 
L 444.886605 390.981421 
L 447.810296 423.775865 
L 450.733986 462.80499 
L 453.657676 454.519682 
L 456.581366 484.203152 
L 459.505056 589.378535 
L 462.428746 504.624988 
L 465.352436 479.385997 
L 468.276126 428.448938 
L 471.199816 359.558593 
L 474.123506 388.851004 
L 477.047197 403.161849 
L 479.970887 370.512537 
L 482.894577 431.550537 
L 485.818267 454.505515 
L 488.741957 426.87729 
L 491.665647 443.405407 
L 494.589337 378.299906 
L 497.513027 385.666817 
L 500.436717 358.736145 
L 503.360408 456.175841 
L 506.284098 514.390018 
L 509.207788 449.807852 
L 512.131478 395.368463 
L 515.055168 400.222137 
L 517.978858 379.332584 
L 520.902548 487.479406 
L 523.826238 502.684022 
L 526.749928 505.240495 
L 529.673618 518.202934 
L 532.597309 533.468625 
L 535.520999 499.347358 
L 538.444689 467.80474 
L 541.368379 587.962058 
L 544.292069 571.669356 
L 547.215759 414.328909 
L 550.139449 480.577063 
L 553.063139 437.786268 
L 555.986829 389.214761 
L 558.910519 450.035081 
L 561.83421 399.58085 
L 564.7579 355.834665 
L 567.68159 368.818005 
L 570.60528 401.338836 
L 573.52897 472.77056 
L 576.45266 436.430166 
L 579.37635 430.214374 
L 582.30004 445.984127 
L 585.22373 458.764005 
L 588.147421 373.709037 
L 591.071111 435.749772 
L 593.994801 441.415924 
L 596.918491 365.108734 
L 599.842181 468.537849 
L 602.765871 442.771256 
L 605.689561 352.069759 
L 608.613251 417.569343 
L 611.536941 493.914382 
L 614.460631 484.150927 
L 617.384322 403.131801 
L 620.308012 399.735741 
L 623.231702 501.686745 
L 626.155392 567.241388 
L 629.079082 473.299806 
L 632.002772 512.062664 
L 634.926462 516.017703 
L 637.850152 440.562624 
L 640.773842 421.132678 
L 643.697532 410.931204 
L 646.621223 406.270305 
L 649.544913 468.854173 
L 652.468603 520.710434 
L 655.392293 508.900619 
L 658.315983 423.870206 
L 661.239673 494.554969 
L 664.163363 393.375097 
L 667.087053 454.117483 
L 670.010743 488.025862 
L 672.934433 486.852391 
L 675.858124 522.62576 
L 678.781814 529.648923 
L 681.705504 557.886498 
L 684.629194 588.247074 
L 687.552884 514.466309 
L 690.476574 574.442284 
L 693.400264 522.952017 
L 696.323954 524.679186 
L 699.247644 486.446134 
L 702.171335 461.214628 
L 705.095025 466.398198 
L 708.018715 472.277483 
L 710.942405 477.321377 
L 713.866095 478.904219 
L 716.789785 477.722457 
L 719.713475 474.198475 
L 722.637165 476.181941 
L 725.560855 473.168666 
L 728.484545 461.417722 
L 728.484545 461.417722 
" style="fill:none;stroke:#55a868;stroke-dasharray:1.5,1.5;stroke-dashoffset:0;stroke-width:1.5;"/>
   </g>
   <g id="line2d_4">
    <path clip-path="url(#pe3df851c8b)" d="M 134.975455 449.652751 
L 137.899145 451.765992 
L 140.822835 454.724734 
L 143.746525 453.239557 
L 146.670215 454.841252 
L 149.593905 457.37978 
L 152.517595 454.561448 
L 155.441285 456.016402 
L 158.364975 457.320664 
L 164.212356 458.81728 
L 167.136046 461.147012 
L 170.059736 482.580713 
L 172.983426 489.427857 
L 175.907116 503.7684 
L 178.830806 543.835379 
L 181.754496 573.361754 
L 184.678186 487.241542 
L 187.601876 429.10705 
L 190.525567 530.651482 
L 193.449257 480.033755 
L 196.372947 413.726135 
L 199.296637 390.985164 
L 202.220327 365.502538 
L 205.144017 484.958788 
L 208.067707 593.597778 
L 210.991397 509.809817 
L 213.915087 463.29366 
L 216.838777 483.731447 
L 219.762468 477.519608 
L 222.686158 459.00897 
L 225.609848 446.060943 
L 228.533538 474.511965 
L 231.457228 484.135291 
L 234.380918 367.691826 
L 237.304608 459.331834 
L 240.228298 516.815945 
L 243.151988 462.949423 
L 246.075678 400.380701 
L 248.999369 434.671726 
L 251.923059 507.463819 
L 254.846749 512.02471 
L 257.770439 560.547385 
L 260.694129 527.378237 
L 262.573046 596.44 
M 264.525667 596.44 
L 266.541509 511.170151 
L 269.465199 475.622612 
L 272.388889 482.773732 
L 275.312579 512.736062 
L 278.23627 522.637968 
L 281.15996 533.391425 
L 284.08365 485.663039 
L 287.00734 491.550334 
L 289.93103 522.825705 
L 292.85472 441.042408 
L 295.77841 391.845111 
L 298.7021 472.484914 
L 301.62579 478.981174 
L 304.549481 501.505024 
L 307.473171 477.558261 
L 310.396861 446.134086 
L 313.320551 437.007195 
L 316.244241 461.365077 
L 319.167931 444.900169 
L 322.091621 502.419259 
L 325.015311 433.499059 
L 327.939001 473.052148 
L 330.862691 485.916573 
L 333.786382 442.739634 
L 336.710072 447.802838 
L 339.633762 496.500832 
L 342.557452 523.247598 
L 345.481142 474.965724 
L 348.404832 400.192299 
L 351.328522 468.703969 
L 354.252212 503.325729 
L 357.175902 456.993497 
L 360.099592 423.424597 
L 363.023283 526.951726 
L 365.946973 391.711522 
L 368.870663 387.633773 
L 371.794353 396.565791 
L 374.718043 432.268185 
L 377.641733 478.726311 
L 380.565423 534.896331 
L 383.489113 418.776675 
L 386.412803 405.879439 
L 389.336494 449.276017 
L 392.260184 511.275196 
L 395.183874 518.812599 
L 398.107564 404.096443 
L 401.031254 376.217937 
L 403.954944 434.942855 
L 406.878634 434.921727 
L 409.802324 480.25168 
L 412.726014 486.118057 
L 415.649704 533.300162 
L 418.573395 467.260453 
L 421.497085 549.861755 
L 424.420775 581.338855 
L 427.344465 479.718446 
L 430.268155 479.810163 
L 433.191845 450.823738 
L 436.115535 429.123106 
L 439.039225 507.771467 
L 441.962915 518.249982 
L 444.886605 423.728643 
L 447.810296 373.397401 
L 450.733986 478.002961 
L 453.657676 524.549305 
L 456.581366 473.940078 
L 459.505056 540.045235 
L 462.428746 475.529811 
L 465.352436 491.443015 
L 468.276126 422.69698 
L 471.199816 461.598218 
L 474.123506 451.542366 
L 477.047197 492.222053 
L 479.970887 363.437936 
L 482.894577 433.300163 
L 488.741957 502.264648 
L 491.665647 490.114408 
L 494.589337 483.508206 
L 497.513027 549.109092 
L 500.436717 487.997598 
L 503.360408 445.376455 
L 506.284098 510.757493 
L 509.207788 553.526321 
L 512.131478 513.806483 
L 515.055168 491.550369 
L 517.978858 392.472685 
L 520.902548 465.210385 
L 523.826238 477.176071 
L 526.749928 448.828169 
L 529.673618 501.366644 
L 532.597309 518.98498 
L 535.520999 433.461001 
L 538.444689 401.854789 
L 541.368379 517.608625 
L 544.292069 545.697465 
L 547.215759 413.631129 
L 550.139449 454.993869 
L 553.063139 378.36406 
L 555.986829 407.448254 
L 558.910519 385.713131 
L 561.83421 327.682179 
L 564.7579 347.955596 
L 567.68159 345.782451 
L 570.60528 474.356689 
L 573.52897 365.017296 
L 576.45266 434.154338 
L 579.37635 384.096044 
L 582.30004 378.742437 
L 585.22373 436.941992 
L 588.147421 337.049294 
L 591.071111 364.855969 
L 593.994801 449.684582 
L 596.918491 390.050291 
L 599.842181 441.972699 
L 605.689561 371.810991 
L 608.613251 426.091886 
L 611.536941 497.112246 
L 614.460631 515.287672 
L 617.384322 427.593014 
L 620.308012 440.161299 
L 623.231702 509.705052 
L 626.155392 561.891139 
L 629.079082 514.207947 
L 632.002772 529.830749 
L 634.926462 515.566812 
L 637.850152 482.5068 
L 640.773842 417.299124 
L 643.697532 315.012592 
L 646.621223 392.386355 
L 649.544913 474.605361 
L 652.468603 529.838339 
L 655.392293 518.246134 
L 658.315983 410.024455 
L 661.239673 482.393046 
L 664.163363 386.352809 
L 667.087053 446.893849 
L 670.010743 486.648283 
L 672.934433 494.586171 
L 675.858124 498.174376 
L 678.781814 519.879836 
L 681.705504 544.553027 
L 684.629194 563.338643 
L 687.552884 487.15843 
L 690.476574 577.984665 
L 693.400264 522.365789 
L 696.323954 518.285381 
L 699.247644 485.732719 
L 702.171335 449.077681 
L 705.095025 455.372737 
L 708.018715 459.311966 
L 710.942405 464.780062 
L 713.866095 465.393959 
L 716.789785 465.401865 
L 719.713475 463.079898 
L 722.637165 465.267997 
L 725.560855 465.32365 
L 728.484545 466.238794 
L 728.484545 466.238794 
" style="fill:none;stroke:#c44e52;stroke-dasharray:4.5,1.875,2.25,1.875;stroke-dashoffset:0;stroke-width:1.5;"/>
   </g>
   <g id="line2d_5">
    <path clip-path="url(#pe3df851c8b)" d="M 134.975455 450.338427 
L 137.899145 452.064196 
L 140.822835 455.383091 
L 143.746525 454.259536 
L 146.670215 454.872874 
L 149.593905 458.661234 
L 152.517595 456.483384 
L 155.441285 458.077314 
L 161.288665 460.817501 
L 164.212356 460.934229 
L 167.136046 462.569576 
L 170.059736 482.868982 
L 172.983426 489.068753 
L 175.907116 501.492676 
L 178.830806 541.196004 
L 181.754496 579.364658 
L 184.678186 486.015811 
L 187.601876 444.503532 
L 190.525567 533.160837 
L 193.449257 487.525999 
L 196.372947 421.823916 
L 199.296637 401.063159 
L 202.220327 369.960938 
L 208.024535 596.44 
M 208.130512 596.44 
L 210.991397 520.08146 
L 213.915087 456.646951 
L 216.838777 487.382686 
L 219.762468 475.167384 
L 222.686158 455.423563 
L 225.609848 451.023474 
L 228.533538 477.146268 
L 231.457228 487.607118 
L 234.380918 370.851527 
L 237.304608 459.46035 
L 240.228298 518.751559 
L 243.151988 463.107462 
L 246.075678 397.797853 
L 248.999369 425.334501 
L 251.923059 517.045448 
L 254.846749 517.999525 
L 257.770439 564.308881 
L 260.694129 522.185223 
L 262.687287 596.44 
M 264.443372 596.44 
L 266.541509 508.334574 
L 269.465199 474.03323 
L 272.388889 481.318882 
L 275.312579 512.317003 
L 278.23627 524.322636 
L 281.15996 538.781166 
L 284.08365 492.28869 
L 287.00734 489.604926 
L 289.93103 520.246146 
L 292.85472 441.960596 
L 295.77841 390.743453 
L 298.7021 469.176828 
L 301.62579 478.248905 
L 304.549481 494.668234 
L 307.473171 470.595543 
L 310.396861 458.060384 
L 313.320551 442.921285 
L 316.244241 463.629607 
L 319.167931 435.383252 
L 322.091621 503.793306 
L 325.015311 437.945916 
L 327.939001 466.712527 
L 330.862691 487.685193 
L 333.786382 457.301915 
L 336.710072 421.037462 
L 339.633762 483.991978 
L 342.557452 530.241168 
L 345.481142 474.32832 
L 348.404832 399.695024 
L 351.328522 416.389401 
L 354.252212 494.586101 
L 357.175902 569.634574 
L 360.099592 569.942642 
L 361.894301 596.44 
M 363.298452 596.44 
L 365.946973 436.00509 
L 368.870663 421.405766 
L 371.794353 385.044804 
L 374.718043 431.601328 
L 377.641733 527.869075 
L 380.565423 565.767789 
L 383.489113 457.131282 
L 386.412803 402.211235 
L 389.336494 464.706919 
L 392.260184 534.510012 
L 395.183874 528.867332 
L 398.107564 396.661496 
L 401.031254 396.910028 
L 403.954944 439.595184 
L 406.878634 449.326668 
L 409.802324 490.080583 
L 412.726014 485.635055 
L 415.649704 556.753778 
L 418.573395 467.329853 
L 421.497085 551.056004 
L 424.420775 574.607074 
L 427.344465 472.667334 
L 430.268155 475.977624 
L 433.191845 453.230567 
L 436.115535 424.435377 
L 439.039225 505.50113 
L 441.962915 517.456917 
L 444.886605 426.657057 
L 447.810296 371.194925 
L 450.733986 468.355814 
L 453.657676 505.297267 
L 456.581366 458.054473 
L 459.505056 516.953031 
L 462.428746 464.923969 
L 465.352436 482.464755 
L 468.276126 426.552362 
L 471.199816 469.08644 
L 474.123506 459.569033 
L 477.047197 480.024101 
L 479.970887 363.092159 
L 482.894577 435.88385 
L 485.818267 468.863617 
L 488.741957 498.783517 
L 491.665647 492.381002 
L 494.589337 482.308184 
L 497.513027 547.607719 
L 500.436717 481.068636 
L 503.360408 437.730055 
L 506.284098 504.441973 
L 509.207788 552.050343 
L 512.131478 521.494684 
L 515.055168 497.048058 
L 517.978858 401.714905 
L 520.902548 468.290262 
L 523.826238 471.641653 
L 526.749928 439.167275 
L 529.673618 494.390808 
L 532.597309 501.185308 
L 535.520999 418.662711 
L 538.444689 380.194069 
L 541.368379 511.568082 
L 544.292069 554.464482 
L 547.215759 414.469423 
L 550.139449 459.479484 
L 553.063139 294.993654 
L 555.986829 370.201705 
L 558.910519 373.784873 
L 561.83421 376.4473 
L 564.7579 416.60061 
L 567.68159 380.926723 
L 570.60528 434.82959 
L 573.52897 450.20246 
L 576.45266 504.580599 
L 579.37635 440.04702 
L 582.30004 388.480567 
L 585.22373 418.774996 
L 588.147421 339.224993 
L 591.071111 397.241533 
L 593.994801 443.422337 
L 596.918491 392.400172 
L 599.842181 438.070724 
L 602.765871 406.832187 
L 605.689561 363.927882 
L 611.536941 484.767693 
L 614.460631 507.974281 
L 617.384322 415.017768 
L 620.308012 440.464295 
L 623.231702 506.687789 
L 626.155392 557.591967 
L 629.079082 510.910915 
L 632.002772 519.620705 
L 634.926462 496.585763 
L 637.850152 464.085395 
L 640.773842 412.074663 
L 643.697532 320.018953 
L 646.621223 386.96863 
L 649.544913 461.921957 
L 652.468603 511.099247 
L 655.392293 501.732674 
L 658.315983 415.264342 
L 661.239673 473.481841 
L 664.163363 382.359081 
L 667.087053 446.399058 
L 670.010743 483.863811 
L 672.934433 497.818211 
L 675.858124 493.236611 
L 678.781814 506.301226 
L 681.705504 544.300332 
L 684.629194 553.090016 
L 687.552884 476.09736 
L 690.476574 555.05225 
L 693.400264 512.97487 
L 696.323954 512.788987 
L 699.247644 476.964232 
L 702.171335 445.161189 
L 705.095025 451.061952 
L 708.018715 454.337052 
L 710.942405 460.318863 
L 713.866095 459.80032 
L 716.789785 460.126403 
L 719.713475 458.447157 
L 722.637165 457.951667 
L 725.560855 459.189361 
L 728.484545 459.106494 
L 728.484545 459.106494 
" style="fill:none;stroke:#8172b3;stroke-dasharray:7.5,1.5,1.5,1.5;stroke-dashoffset:0;stroke-width:1.5;"/>
   </g>
   <g id="line2d_6"/>
   <g id="line2d_7"/>
   <g id="line2d_8"/>
   <g id="line2d_9"/>
   <g id="line2d_10"/>
   <g id="patch_3">
    <path d="M 105.3 529.9416 
L 105.3 71.4528 
" style="fill:none;stroke:#262626;stroke-linecap:square;stroke-linejoin:miter;stroke-width:1.25;"/>
   </g>
   <g id="patch_4">
    <path d="M 758.16 529.9416 
L 758.16 71.4528 
" style="fill:none;stroke:#262626;stroke-linecap:square;stroke-linejoin:miter;stroke-width:1.25;"/>
   </g>
   <g id="patch_5">
    <path d="M 105.3 529.9416 
L 758.16 529.9416 
" style="fill:none;stroke:#262626;stroke-linecap:square;stroke-linejoin:miter;stroke-width:1.25;"/>
   </g>
   <g id="patch_6">
    <path d="M 105.3 71.4528 
L 758.16 71.4528 
" style="fill:none;stroke:#262626;stroke-linecap:square;stroke-linejoin:miter;stroke-width:1.25;"/>
   </g>
   <g id="text_16">
    <!-- Activations for &gt;;&lt; -->
    <g style="fill:#262626;" transform="translate(383.7075 65.4528)scale(0.12 -0.12)">
     <defs>
      <path d="M -9 0 
L 1750 4581 
L 2403 4581 
L 4278 0 
L 3588 0 
L 3053 1388 
L 1138 1388 
L 634 0 
L -9 0 
z
M 1313 1881 
L 2866 1881 
L 2388 3150 
Q 2169 3728 2063 4100 
Q 1975 3659 1816 3225 
L 1313 1881 
z
" id="ArialMT-41" transform="scale(0.015625)"/>
      <path d="M 2588 1216 
L 3141 1144 
Q 3050 572 2676 248 
Q 2303 -75 1759 -75 
Q 1078 -75 664 370 
Q 250 816 250 1647 
Q 250 2184 428 2587 
Q 606 2991 970 3192 
Q 1334 3394 1763 3394 
Q 2303 3394 2647 3120 
Q 2991 2847 3088 2344 
L 2541 2259 
Q 2463 2594 2264 2762 
Q 2066 2931 1784 2931 
Q 1359 2931 1093 2626 
Q 828 2322 828 1663 
Q 828 994 1084 691 
Q 1341 388 1753 388 
Q 2084 388 2306 591 
Q 2528 794 2588 1216 
z
" id="ArialMT-63" transform="scale(0.015625)"/>
      <path d="M 1650 503 
L 1731 6 
Q 1494 -44 1306 -44 
Q 1000 -44 831 53 
Q 663 150 594 308 
Q 525 466 525 972 
L 525 2881 
L 113 2881 
L 113 3319 
L 525 3319 
L 525 4141 
L 1084 4478 
L 1084 3319 
L 1650 3319 
L 1650 2881 
L 1084 2881 
L 1084 941 
Q 1084 700 1114 631 
Q 1144 563 1211 522 
Q 1278 481 1403 481 
Q 1497 481 1650 503 
z
" id="ArialMT-74" transform="scale(0.015625)"/>
      <path d="M 425 3934 
L 425 4581 
L 988 4581 
L 988 3934 
L 425 3934 
z
M 425 0 
L 425 3319 
L 988 3319 
L 988 0 
L 425 0 
z
" id="ArialMT-69" transform="scale(0.015625)"/>
      <path d="M 1344 0 
L 81 3319 
L 675 3319 
L 1388 1331 
Q 1503 1009 1600 663 
Q 1675 925 1809 1294 
L 2547 3319 
L 3125 3319 
L 1869 0 
L 1344 0 
z
" id="ArialMT-76" transform="scale(0.015625)"/>
      <path d="M 2588 409 
Q 2275 144 1986 34 
Q 1697 -75 1366 -75 
Q 819 -75 525 192 
Q 231 459 231 875 
Q 231 1119 342 1320 
Q 453 1522 633 1644 
Q 813 1766 1038 1828 
Q 1203 1872 1538 1913 
Q 2219 1994 2541 2106 
Q 2544 2222 2544 2253 
Q 2544 2597 2384 2738 
Q 2169 2928 1744 2928 
Q 1347 2928 1158 2789 
Q 969 2650 878 2297 
L 328 2372 
Q 403 2725 575 2942 
Q 747 3159 1072 3276 
Q 1397 3394 1825 3394 
Q 2250 3394 2515 3294 
Q 2781 3194 2906 3042 
Q 3031 2891 3081 2659 
Q 3109 2516 3109 2141 
L 3109 1391 
Q 3109 606 3145 398 
Q 3181 191 3288 0 
L 2700 0 
Q 2613 175 2588 409 
z
M 2541 1666 
Q 2234 1541 1622 1453 
Q 1275 1403 1131 1340 
Q 988 1278 909 1158 
Q 831 1038 831 891 
Q 831 666 1001 516 
Q 1172 366 1500 366 
Q 1825 366 2078 508 
Q 2331 650 2450 897 
Q 2541 1088 2541 1459 
L 2541 1666 
z
" id="ArialMT-61" transform="scale(0.015625)"/>
      <path d="M 213 1659 
Q 213 2581 725 3025 
Q 1153 3394 1769 3394 
Q 2453 3394 2887 2945 
Q 3322 2497 3322 1706 
Q 3322 1066 3130 698 
Q 2938 331 2570 128 
Q 2203 -75 1769 -75 
Q 1072 -75 642 372 
Q 213 819 213 1659 
z
M 791 1659 
Q 791 1022 1069 705 
Q 1347 388 1769 388 
Q 2188 388 2466 706 
Q 2744 1025 2744 1678 
Q 2744 2294 2464 2611 
Q 2184 2928 1769 2928 
Q 1347 2928 1069 2612 
Q 791 2297 791 1659 
z
" id="ArialMT-6f" transform="scale(0.015625)"/>
      <path d="M 422 0 
L 422 3319 
L 928 3319 
L 928 2847 
Q 1294 3394 1984 3394 
Q 2284 3394 2536 3286 
Q 2788 3178 2913 3003 
Q 3038 2828 3088 2588 
Q 3119 2431 3119 2041 
L 3119 0 
L 2556 0 
L 2556 2019 
Q 2556 2363 2490 2533 
Q 2425 2703 2258 2804 
Q 2091 2906 1866 2906 
Q 1506 2906 1245 2678 
Q 984 2450 984 1813 
L 984 0 
L 422 0 
z
" id="ArialMT-6e" transform="scale(0.015625)"/>
      <path d="M 197 991 
L 753 1078 
Q 800 744 1014 566 
Q 1228 388 1613 388 
Q 2000 388 2187 545 
Q 2375 703 2375 916 
Q 2375 1106 2209 1216 
Q 2094 1291 1634 1406 
Q 1016 1563 777 1677 
Q 538 1791 414 1992 
Q 291 2194 291 2438 
Q 291 2659 392 2848 
Q 494 3038 669 3163 
Q 800 3259 1026 3326 
Q 1253 3394 1513 3394 
Q 1903 3394 2198 3281 
Q 2494 3169 2634 2976 
Q 2775 2784 2828 2463 
L 2278 2388 
Q 2241 2644 2061 2787 
Q 1881 2931 1553 2931 
Q 1166 2931 1000 2803 
Q 834 2675 834 2503 
Q 834 2394 903 2306 
Q 972 2216 1119 2156 
Q 1203 2125 1616 2013 
Q 2213 1853 2448 1751 
Q 2684 1650 2818 1456 
Q 2953 1263 2953 975 
Q 2953 694 2789 445 
Q 2625 197 2315 61 
Q 2006 -75 1616 -75 
Q 969 -75 630 194 
Q 291 463 197 991 
z
" id="ArialMT-73" transform="scale(0.015625)"/>
      <path id="ArialMT-20" transform="scale(0.015625)"/>
      <path d="M 556 0 
L 556 2881 
L 59 2881 
L 59 3319 
L 556 3319 
L 556 3672 
Q 556 4006 616 4169 
Q 697 4388 901 4523 
Q 1106 4659 1475 4659 
Q 1713 4659 2000 4603 
L 1916 4113 
Q 1741 4144 1584 4144 
Q 1328 4144 1222 4034 
Q 1116 3925 1116 3625 
L 1116 3319 
L 1763 3319 
L 1763 2881 
L 1116 2881 
L 1116 0 
L 556 0 
z
" id="ArialMT-66" transform="scale(0.015625)"/>
      <path d="M 416 0 
L 416 3319 
L 922 3319 
L 922 2816 
Q 1116 3169 1280 3281 
Q 1444 3394 1641 3394 
Q 1925 3394 2219 3213 
L 2025 2691 
Q 1819 2813 1613 2813 
Q 1428 2813 1281 2702 
Q 1134 2591 1072 2394 
Q 978 2094 978 1738 
L 978 0 
L 416 0 
z
" id="ArialMT-72" transform="scale(0.015625)"/>
      <path d="M 3384 2003 
L 350 706 
L 350 1266 
L 2753 2263 
L 350 3250 
L 350 3809 
L 3384 2528 
L 3384 2003 
z
" id="ArialMT-3e" transform="scale(0.015625)"/>
      <path d="M 569 2678 
L 569 3319 
L 1209 3319 
L 1209 2678 
L 569 2678 
z
M 569 0 
L 569 641 
L 1209 641 
L 1209 0 
Q 1209 -353 1084 -570 
Q 959 -788 688 -906 
L 531 -666 
Q 709 -588 793 -436 
Q 878 -284 888 0 
L 569 0 
z
" id="ArialMT-3b" transform="scale(0.015625)"/>
      <path d="M 350 2003 
L 350 2528 
L 3384 3809 
L 3384 3250 
L 978 2263 
L 3384 1266 
L 3384 706 
L 350 2003 
z
" id="ArialMT-3c" transform="scale(0.015625)"/>
     </defs>
     <use xlink:href="#ArialMT-41"/>
     <use x="66.699219" xlink:href="#ArialMT-63"/>
     <use x="116.699219" xlink:href="#ArialMT-74"/>
     <use x="144.482422" xlink:href="#ArialMT-69"/>
     <use x="166.699219" xlink:href="#ArialMT-76"/>
     <use x="216.699219" xlink:href="#ArialMT-61"/>
     <use x="272.314453" xlink:href="#ArialMT-74"/>
     <use x="300.097656" xlink:href="#ArialMT-69"/>
     <use x="322.314453" xlink:href="#ArialMT-6f"/>
     <use x="377.929688" xlink:href="#ArialMT-6e"/>
     <use x="433.544922" xlink:href="#ArialMT-73"/>
     <use x="483.544922" xlink:href="#ArialMT-20"/>
     <use x="511.328125" xlink:href="#ArialMT-66"/>
     <use x="539.111328" xlink:href="#ArialMT-6f"/>
     <use x="594.726562" xlink:href="#ArialMT-72"/>
     <use x="628.027344" xlink:href="#ArialMT-20"/>
     <use x="655.810547" xlink:href="#ArialMT-3e"/>
     <use x="714.208984" xlink:href="#ArialMT-3b"/>
     <use x="741.992188" xlink:href="#ArialMT-3c"/>
    </g>
   </g>
   <g id="legend_1">
    <g id="patch_7">
     <path d="M 640.044062 158.514363 
L 750.46 158.514363 
Q 752.66 158.514363 752.66 156.314363 
L 752.66 79.1528 
Q 752.66 76.9528 750.46 76.9528 
L 640.044062 76.9528 
Q 637.844062 76.9528 637.844062 79.1528 
L 637.844062 156.314363 
Q 637.844062 158.514363 640.044062 158.514363 
z
" style="fill:#ffffff;opacity:0.8;stroke:#cccccc;stroke-linejoin:miter;"/>
    </g>
    <g id="line2d_11">
     <path d="M 642.244062 85.376394 
L 664.244062 85.376394 
" style="fill:none;stroke:#4c72b0;stroke-linecap:round;stroke-width:1.5;"/>
    </g>
    <g id="line2d_12"/>
    <g id="text_17">
     <!-- regular -->
     <g style="fill:#262626;" transform="translate(673.044062 89.226394)scale(0.11 -0.11)">
      <defs>
       <path d="M 2694 1069 
L 3275 997 
Q 3138 488 2766 206 
Q 2394 -75 1816 -75 
Q 1088 -75 661 373 
Q 234 822 234 1631 
Q 234 2469 665 2931 
Q 1097 3394 1784 3394 
Q 2450 3394 2872 2941 
Q 3294 2488 3294 1666 
Q 3294 1616 3291 1516 
L 816 1516 
Q 847 969 1125 678 
Q 1403 388 1819 388 
Q 2128 388 2347 550 
Q 2566 713 2694 1069 
z
M 847 1978 
L 2700 1978 
Q 2663 2397 2488 2606 
Q 2219 2931 1791 2931 
Q 1403 2931 1139 2672 
Q 875 2413 847 1978 
z
" id="ArialMT-65" transform="scale(0.015625)"/>
       <path d="M 319 -275 
L 866 -356 
Q 900 -609 1056 -725 
Q 1266 -881 1628 -881 
Q 2019 -881 2231 -725 
Q 2444 -569 2519 -288 
Q 2563 -116 2559 434 
Q 2191 0 1641 0 
Q 956 0 581 494 
Q 206 988 206 1678 
Q 206 2153 378 2554 
Q 550 2956 876 3175 
Q 1203 3394 1644 3394 
Q 2231 3394 2613 2919 
L 2613 3319 
L 3131 3319 
L 3131 450 
Q 3131 -325 2973 -648 
Q 2816 -972 2473 -1159 
Q 2131 -1347 1631 -1347 
Q 1038 -1347 672 -1080 
Q 306 -813 319 -275 
z
M 784 1719 
Q 784 1066 1043 766 
Q 1303 466 1694 466 
Q 2081 466 2343 764 
Q 2606 1063 2606 1700 
Q 2606 2309 2336 2618 
Q 2066 2928 1684 2928 
Q 1309 2928 1046 2623 
Q 784 2319 784 1719 
z
" id="ArialMT-67" transform="scale(0.015625)"/>
       <path d="M 2597 0 
L 2597 488 
Q 2209 -75 1544 -75 
Q 1250 -75 995 37 
Q 741 150 617 320 
Q 494 491 444 738 
Q 409 903 409 1263 
L 409 3319 
L 972 3319 
L 972 1478 
Q 972 1038 1006 884 
Q 1059 663 1231 536 
Q 1403 409 1656 409 
Q 1909 409 2131 539 
Q 2353 669 2445 892 
Q 2538 1116 2538 1541 
L 2538 3319 
L 3100 3319 
L 3100 0 
L 2597 0 
z
" id="ArialMT-75" transform="scale(0.015625)"/>
       <path d="M 409 0 
L 409 4581 
L 972 4581 
L 972 0 
L 409 0 
z
" id="ArialMT-6c" transform="scale(0.015625)"/>
      </defs>
      <use xlink:href="#ArialMT-72"/>
      <use x="33.300781" xlink:href="#ArialMT-65"/>
      <use x="88.916016" xlink:href="#ArialMT-67"/>
      <use x="144.53125" xlink:href="#ArialMT-75"/>
      <use x="200.146484" xlink:href="#ArialMT-6c"/>
      <use x="222.363281" xlink:href="#ArialMT-61"/>
      <use x="277.978516" xlink:href="#ArialMT-72"/>
     </g>
    </g>
    <g id="line2d_13">
     <path d="M 642.244062 101.0978 
L 664.244062 101.0978 
" style="fill:none;stroke:#dd8452;stroke-dasharray:6,2.25;stroke-dashoffset:0;stroke-width:1.5;"/>
    </g>
    <g id="line2d_14"/>
    <g id="text_18">
     <!-- splitted_3s -->
     <g style="fill:#262626;" transform="translate(673.044062 104.9478)scale(0.11 -0.11)">
      <defs>
       <path d="M 422 -1272 
L 422 3319 
L 934 3319 
L 934 2888 
Q 1116 3141 1344 3267 
Q 1572 3394 1897 3394 
Q 2322 3394 2647 3175 
Q 2972 2956 3137 2557 
Q 3303 2159 3303 1684 
Q 3303 1175 3120 767 
Q 2938 359 2589 142 
Q 2241 -75 1856 -75 
Q 1575 -75 1351 44 
Q 1128 163 984 344 
L 984 -1272 
L 422 -1272 
z
M 931 1641 
Q 931 1000 1190 694 
Q 1450 388 1819 388 
Q 2194 388 2461 705 
Q 2728 1022 2728 1688 
Q 2728 2322 2467 2637 
Q 2206 2953 1844 2953 
Q 1484 2953 1207 2617 
Q 931 2281 931 1641 
z
" id="ArialMT-70" transform="scale(0.015625)"/>
       <path d="M 2575 0 
L 2575 419 
Q 2259 -75 1647 -75 
Q 1250 -75 917 144 
Q 584 363 401 755 
Q 219 1147 219 1656 
Q 219 2153 384 2558 
Q 550 2963 881 3178 
Q 1213 3394 1622 3394 
Q 1922 3394 2156 3267 
Q 2391 3141 2538 2938 
L 2538 4581 
L 3097 4581 
L 3097 0 
L 2575 0 
z
M 797 1656 
Q 797 1019 1065 703 
Q 1334 388 1700 388 
Q 2069 388 2326 689 
Q 2584 991 2584 1609 
Q 2584 2291 2321 2609 
Q 2059 2928 1675 2928 
Q 1300 2928 1048 2622 
Q 797 2316 797 1656 
z
" id="ArialMT-64" transform="scale(0.015625)"/>
       <path d="M -97 -1272 
L -97 -866 
L 3631 -866 
L 3631 -1272 
L -97 -1272 
z
" id="ArialMT-5f" transform="scale(0.015625)"/>
       <path d="M 269 1209 
L 831 1284 
Q 928 806 1161 595 
Q 1394 384 1728 384 
Q 2125 384 2398 659 
Q 2672 934 2672 1341 
Q 2672 1728 2419 1979 
Q 2166 2231 1775 2231 
Q 1616 2231 1378 2169 
L 1441 2663 
Q 1497 2656 1531 2656 
Q 1891 2656 2178 2843 
Q 2466 3031 2466 3422 
Q 2466 3731 2256 3934 
Q 2047 4138 1716 4138 
Q 1388 4138 1169 3931 
Q 950 3725 888 3313 
L 325 3413 
Q 428 3978 793 4289 
Q 1159 4600 1703 4600 
Q 2078 4600 2393 4439 
Q 2709 4278 2876 4000 
Q 3044 3722 3044 3409 
Q 3044 3113 2884 2869 
Q 2725 2625 2413 2481 
Q 2819 2388 3044 2092 
Q 3269 1797 3269 1353 
Q 3269 753 2831 336 
Q 2394 -81 1725 -81 
Q 1122 -81 723 278 
Q 325 638 269 1209 
z
" id="ArialMT-33" transform="scale(0.015625)"/>
      </defs>
      <use xlink:href="#ArialMT-73"/>
      <use x="50" xlink:href="#ArialMT-70"/>
      <use x="105.615234" xlink:href="#ArialMT-6c"/>
      <use x="127.832031" xlink:href="#ArialMT-69"/>
      <use x="150.048828" xlink:href="#ArialMT-74"/>
      <use x="177.832031" xlink:href="#ArialMT-74"/>
      <use x="205.615234" xlink:href="#ArialMT-65"/>
      <use x="261.230469" xlink:href="#ArialMT-64"/>
      <use x="316.845703" xlink:href="#ArialMT-5f"/>
      <use x="372.460938" xlink:href="#ArialMT-33"/>
      <use x="428.076172" xlink:href="#ArialMT-73"/>
     </g>
    </g>
    <g id="line2d_15">
     <path d="M 642.244062 116.6903 
L 664.244062 116.6903 
" style="fill:none;stroke:#55a868;stroke-dasharray:1.5,1.5;stroke-dashoffset:0;stroke-width:1.5;"/>
    </g>
    <g id="line2d_16"/>
    <g id="text_19">
     <!-- splitted_1s -->
     <g style="fill:#262626;" transform="translate(673.044062 120.5403)scale(0.11 -0.11)">
      <use xlink:href="#ArialMT-73"/>
      <use x="50" xlink:href="#ArialMT-70"/>
      <use x="105.615234" xlink:href="#ArialMT-6c"/>
      <use x="127.832031" xlink:href="#ArialMT-69"/>
      <use x="150.048828" xlink:href="#ArialMT-74"/>
      <use x="177.832031" xlink:href="#ArialMT-74"/>
      <use x="205.615234" xlink:href="#ArialMT-65"/>
      <use x="261.230469" xlink:href="#ArialMT-64"/>
      <use x="316.845703" xlink:href="#ArialMT-5f"/>
      <use x="372.460938" xlink:href="#ArialMT-31"/>
      <use x="428.076172" xlink:href="#ArialMT-73"/>
     </g>
    </g>
    <g id="line2d_17">
     <path d="M 642.244062 132.384206 
L 664.244062 132.384206 
" style="fill:none;stroke:#c44e52;stroke-dasharray:4.5,1.875,2.25,1.875;stroke-dashoffset:0;stroke-width:1.5;"/>
    </g>
    <g id="line2d_18"/>
    <g id="text_20">
     <!-- overlap_1f_3s -->
     <g style="fill:#262626;" transform="translate(673.044062 136.234206)scale(0.11 -0.11)">
      <use xlink:href="#ArialMT-6f"/>
      <use x="55.615234" xlink:href="#ArialMT-76"/>
      <use x="105.615234" xlink:href="#ArialMT-65"/>
      <use x="161.230469" xlink:href="#ArialMT-72"/>
      <use x="194.53125" xlink:href="#ArialMT-6c"/>
      <use x="216.748047" xlink:href="#ArialMT-61"/>
      <use x="272.363281" xlink:href="#ArialMT-70"/>
      <use x="327.978516" xlink:href="#ArialMT-5f"/>
      <use x="383.59375" xlink:href="#ArialMT-31"/>
      <use x="439.208984" xlink:href="#ArialMT-66"/>
      <use x="466.992188" xlink:href="#ArialMT-5f"/>
      <use x="522.607422" xlink:href="#ArialMT-33"/>
      <use x="578.222656" xlink:href="#ArialMT-73"/>
     </g>
    </g>
    <g id="line2d_19">
     <path d="M 642.244062 148.078113 
L 664.244062 148.078113 
" style="fill:none;stroke:#8172b3;stroke-dasharray:7.5,1.5,1.5,1.5;stroke-dashoffset:0;stroke-width:1.5;"/>
    </g>
    <g id="line2d_20"/>
    <g id="text_21">
     <!-- overlap_10f_3s -->
     <g style="fill:#262626;" transform="translate(673.044062 151.928112)scale(0.11 -0.11)">
      <use xlink:href="#ArialMT-6f"/>
      <use x="55.615234" xlink:href="#ArialMT-76"/>
      <use x="105.615234" xlink:href="#ArialMT-65"/>
      <use x="161.230469" xlink:href="#ArialMT-72"/>
      <use x="194.53125" xlink:href="#ArialMT-6c"/>
      <use x="216.748047" xlink:href="#ArialMT-61"/>
      <use x="272.363281" xlink:href="#ArialMT-70"/>
      <use x="327.978516" xlink:href="#ArialMT-5f"/>
      <use x="383.59375" xlink:href="#ArialMT-31"/>
      <use x="439.208984" xlink:href="#ArialMT-30"/>
      <use x="494.824219" xlink:href="#ArialMT-66"/>
      <use x="522.607422" xlink:href="#ArialMT-5f"/>
      <use x="578.222656" xlink:href="#ArialMT-33"/>
      <use x="633.837891" xlink:href="#ArialMT-73"/>
     </g>
    </g>
   </g>
  </g>
 </g>
 <defs>
  <clipPath id="pe3df851c8b">
   <rect height="458.4888" width="652.86" x="105.3" y="71.4528"/>
  </clipPath>
 </defs>
</svg>
