<?xml version="1.0" encoding="utf-8" standalone="no"?>
<!DOCTYPE svg PUBLIC "-//W3C//DTD SVG 1.1//EN"
  "http://www.w3.org/Graphics/SVG/1.1/DTD/svg11.dtd">
<svg height="595.44pt" version="1.1" viewBox="0 0 842.4 595.44" width="842.4pt" xmlns="http://www.w3.org/2000/svg" xmlns:xlink="http://www.w3.org/1999/xlink">
 <metadata>
  <rdf:RDF xmlns:cc="http://creativecommons.org/ns#" xmlns:dc="http://purl.org/dc/elements/1.1/" xmlns:rdf="http://www.w3.org/1999/02/22-rdf-syntax-ns#">
   <cc:Work>
    <dc:type rdf:resource="http://purl.org/dc/dcmitype/StillImage"/>
    <dc:date>2021-06-01T00:54:13.933528</dc:date>
    <dc:format>image/svg+xml</dc:format>
    <dc:creator>
     <cc:Agent>
      <dc:title>Matplotlib v3.4.1, https://matplotlib.org/</dc:title>
     </cc:Agent>
    </dc:creator>
   </cc:Work>
  </rdf:RDF>
 </metadata>
 <defs>
  <style type="text/css">*{stroke-linecap:butt;stroke-linejoin:round;}</style>
 </defs>
 <g id="figure_1">
  <g id="patch_1">
   <path d="M 0 595.44 
L 842.4 595.44 
L 842.4 0 
L 0 0 
z
" style="fill:#ffffff;"/>
  </g>
  <g id="axes_1">
   <g id="patch_2">
    <path d="M 105.3 529.9416 
L 758.16 529.9416 
L 758.16 71.4528 
L 105.3 71.4528 
z
" style="fill:#ffffff;"/>
   </g>
   <g id="matplotlib.axis_1">
    <g id="xtick_1">
     <g id="text_1">
      <!-- 0 -->
      <g style="fill:#262626;" transform="translate(131.916939 547.315194)scale(0.11 -0.11)">
       <defs>
        <path d="M 266 2259 
Q 266 3072 433 3567 
Q 600 4063 929 4331 
Q 1259 4600 1759 4600 
Q 2128 4600 2406 4451 
Q 2684 4303 2865 4023 
Q 3047 3744 3150 3342 
Q 3253 2941 3253 2259 
Q 3253 1453 3087 958 
Q 2922 463 2592 192 
Q 2263 -78 1759 -78 
Q 1097 -78 719 397 
Q 266 969 266 2259 
z
M 844 2259 
Q 844 1131 1108 757 
Q 1372 384 1759 384 
Q 2147 384 2411 759 
Q 2675 1134 2675 2259 
Q 2675 3391 2411 3762 
Q 2147 4134 1753 4134 
Q 1366 4134 1134 3806 
Q 844 3388 844 2259 
z
" id="ArialMT-30" transform="scale(0.015625)"/>
       </defs>
       <use xlink:href="#ArialMT-30"/>
      </g>
     </g>
    </g>
    <g id="xtick_2">
     <g id="text_2">
      <!-- 25 -->
      <g style="fill:#262626;" transform="translate(201.950676 547.315194)scale(0.11 -0.11)">
       <defs>
        <path d="M 3222 541 
L 3222 0 
L 194 0 
Q 188 203 259 391 
Q 375 700 629 1000 
Q 884 1300 1366 1694 
Q 2113 2306 2375 2664 
Q 2638 3022 2638 3341 
Q 2638 3675 2398 3904 
Q 2159 4134 1775 4134 
Q 1369 4134 1125 3890 
Q 881 3647 878 3216 
L 300 3275 
Q 359 3922 746 4261 
Q 1134 4600 1788 4600 
Q 2447 4600 2831 4234 
Q 3216 3869 3216 3328 
Q 3216 3053 3103 2787 
Q 2991 2522 2730 2228 
Q 2469 1934 1863 1422 
Q 1356 997 1212 845 
Q 1069 694 975 541 
L 3222 541 
z
" id="ArialMT-32" transform="scale(0.015625)"/>
        <path d="M 266 1200 
L 856 1250 
Q 922 819 1161 601 
Q 1400 384 1738 384 
Q 2144 384 2425 690 
Q 2706 997 2706 1503 
Q 2706 1984 2436 2262 
Q 2166 2541 1728 2541 
Q 1456 2541 1237 2417 
Q 1019 2294 894 2097 
L 366 2166 
L 809 4519 
L 3088 4519 
L 3088 3981 
L 1259 3981 
L 1013 2750 
Q 1425 3038 1878 3038 
Q 2478 3038 2890 2622 
Q 3303 2206 3303 1553 
Q 3303 931 2941 478 
Q 2500 -78 1738 -78 
Q 1113 -78 717 272 
Q 322 622 266 1200 
z
" id="ArialMT-35" transform="scale(0.015625)"/>
       </defs>
       <use xlink:href="#ArialMT-32"/>
       <use x="55.615234" xlink:href="#ArialMT-35"/>
      </g>
     </g>
    </g>
    <g id="xtick_3">
     <g id="text_3">
      <!-- 50 -->
      <g style="fill:#262626;" transform="translate(275.042928 547.315194)scale(0.11 -0.11)">
       <use xlink:href="#ArialMT-35"/>
       <use x="55.615234" xlink:href="#ArialMT-30"/>
      </g>
     </g>
    </g>
    <g id="xtick_4">
     <g id="text_4">
      <!-- 75 -->
      <g style="fill:#262626;" transform="translate(348.135181 547.315194)scale(0.11 -0.11)">
       <defs>
        <path d="M 303 3981 
L 303 4522 
L 3269 4522 
L 3269 4084 
Q 2831 3619 2401 2847 
Q 1972 2075 1738 1259 
Q 1569 684 1522 0 
L 944 0 
Q 953 541 1156 1306 
Q 1359 2072 1739 2783 
Q 2119 3494 2547 3981 
L 303 3981 
z
" id="ArialMT-37" transform="scale(0.015625)"/>
       </defs>
       <use xlink:href="#ArialMT-37"/>
       <use x="55.615234" xlink:href="#ArialMT-35"/>
      </g>
     </g>
    </g>
    <g id="xtick_5">
     <g id="text_5">
      <!-- 100 -->
      <g style="fill:#262626;" transform="translate(418.168918 547.315194)scale(0.11 -0.11)">
       <defs>
        <path d="M 2384 0 
L 1822 0 
L 1822 3584 
Q 1619 3391 1289 3197 
Q 959 3003 697 2906 
L 697 3450 
Q 1169 3672 1522 3987 
Q 1875 4303 2022 4600 
L 2384 4600 
L 2384 0 
z
" id="ArialMT-31" transform="scale(0.015625)"/>
       </defs>
       <use xlink:href="#ArialMT-31"/>
       <use x="55.615234" xlink:href="#ArialMT-30"/>
       <use x="111.230469" xlink:href="#ArialMT-30"/>
      </g>
     </g>
    </g>
    <g id="xtick_6">
     <g id="text_6">
      <!-- 125 -->
      <g style="fill:#262626;" transform="translate(491.261171 547.315194)scale(0.11 -0.11)">
       <use xlink:href="#ArialMT-31"/>
       <use x="55.615234" xlink:href="#ArialMT-32"/>
       <use x="111.230469" xlink:href="#ArialMT-35"/>
      </g>
     </g>
    </g>
    <g id="xtick_7">
     <g id="text_7">
      <!-- 150 -->
      <g style="fill:#262626;" transform="translate(564.353423 547.315194)scale(0.11 -0.11)">
       <use xlink:href="#ArialMT-31"/>
       <use x="55.615234" xlink:href="#ArialMT-35"/>
       <use x="111.230469" xlink:href="#ArialMT-30"/>
      </g>
     </g>
    </g>
    <g id="xtick_8">
     <g id="text_8">
      <!-- 175 -->
      <g style="fill:#262626;" transform="translate(637.445676 547.315194)scale(0.11 -0.11)">
       <use xlink:href="#ArialMT-31"/>
       <use x="55.615234" xlink:href="#ArialMT-37"/>
       <use x="111.230469" xlink:href="#ArialMT-35"/>
      </g>
     </g>
    </g>
    <g id="xtick_9">
     <g id="text_9">
      <!-- 200 -->
      <g style="fill:#262626;" transform="translate(710.537928 547.315194)scale(0.11 -0.11)">
       <use xlink:href="#ArialMT-32"/>
       <use x="55.615234" xlink:href="#ArialMT-30"/>
       <use x="111.230469" xlink:href="#ArialMT-30"/>
      </g>
     </g>
    </g>
   </g>
   <g id="matplotlib.axis_2">
    <g id="ytick_1">
     <g id="text_10">
      <!-- −25 -->
      <g style="fill:#262626;" transform="translate(77.14125 533.878397)scale(0.11 -0.11)">
       <defs>
        <path d="M 3381 1997 
L 356 1997 
L 356 2522 
L 3381 2522 
L 3381 1997 
z
" id="ArialMT-2212" transform="scale(0.015625)"/>
       </defs>
       <use xlink:href="#ArialMT-2212"/>
       <use x="58.398438" xlink:href="#ArialMT-32"/>
       <use x="114.013672" xlink:href="#ArialMT-35"/>
      </g>
     </g>
    </g>
    <g id="ytick_2">
     <g id="text_11">
      <!-- −20 -->
      <g style="fill:#262626;" transform="translate(77.14125 442.180637)scale(0.11 -0.11)">
       <use xlink:href="#ArialMT-2212"/>
       <use x="58.398438" xlink:href="#ArialMT-32"/>
       <use x="114.013672" xlink:href="#ArialMT-30"/>
      </g>
     </g>
    </g>
    <g id="ytick_3">
     <g id="text_12">
      <!-- −15 -->
      <g style="fill:#262626;" transform="translate(77.14125 350.482877)scale(0.11 -0.11)">
       <use xlink:href="#ArialMT-2212"/>
       <use x="58.398438" xlink:href="#ArialMT-31"/>
       <use x="114.013672" xlink:href="#ArialMT-35"/>
      </g>
     </g>
    </g>
    <g id="ytick_4">
     <g id="text_13">
      <!-- −10 -->
      <g style="fill:#262626;" transform="translate(77.14125 258.785117)scale(0.11 -0.11)">
       <use xlink:href="#ArialMT-2212"/>
       <use x="58.398438" xlink:href="#ArialMT-31"/>
       <use x="114.013672" xlink:href="#ArialMT-30"/>
      </g>
     </g>
    </g>
    <g id="ytick_5">
     <g id="text_14">
      <!-- −5 -->
      <g style="fill:#262626;" transform="translate(83.258281 167.087357)scale(0.11 -0.11)">
       <use xlink:href="#ArialMT-2212"/>
       <use x="58.398438" xlink:href="#ArialMT-35"/>
      </g>
     </g>
    </g>
    <g id="ytick_6">
     <g id="text_15">
      <!-- 0 -->
      <g style="fill:#262626;" transform="translate(89.682969 75.389597)scale(0.11 -0.11)">
       <use xlink:href="#ArialMT-30"/>
      </g>
     </g>
    </g>
   </g>
   <g id="line2d_1">
    <path clip-path="url(#p7aa7def0e5)" d="M 134.975455 558.754035 
L 137.899145 559.759253 
L 140.822835 560.521465 
L 143.746525 560.555046 
L 146.670215 561.470191 
L 149.593905 563.484265 
L 152.517595 564.086164 
L 155.441285 566.562952 
L 158.364975 569.313073 
L 161.288665 570.652524 
L 164.212356 573.705187 
L 167.136046 577.926074 
L 169.392252 596.44 
M 185.544923 596.44 
L 187.601876 546.295972 
L 189.803167 596.44 
M 201.687005 596.44 
L 202.220327 583.791822 
L 205.144017 575.447152 
L 205.815287 596.44 
M 210.139734 596.44 
L 210.991397 567.486807 
L 213.915087 588.994945 
L 214.742213 596.44 
M 221.759734 596.44 
L 222.686158 588.880456 
L 225.609848 571.282758 
L 227.484504 596.44 
M 232.238982 596.44 
L 234.380918 519.288501 
L 237.782465 596.44 
M 243.3664 596.44 
L 246.075678 494.791468 
L 248.999369 484.431326 
L 251.923059 575.855753 
L 254.846749 569.619323 
L 257.606409 596.44 
M 257.837098 596.44 
L 260.694129 528.113305 
L 262.374409 596.44 
M 265.153849 596.44 
L 266.541509 550.762033 
L 269.465199 537.707107 
L 272.388889 556.487896 
L 275.312579 574.427942 
L 278.23627 578.680136 
L 281.15996 566.064173 
L 284.08365 536.891061 
L 287.00734 549.598706 
L 289.93103 592.874498 
L 292.85472 544.601754 
L 295.77841 525.250268 
L 298.7021 581.406331 
L 301.62579 583.84786 
L 304.549481 550.396703 
L 307.473171 525.371928 
L 310.396861 548.017718 
L 313.320551 514.113431 
L 316.244241 548.147529 
L 319.167931 519.781997 
L 322.091621 544.158349 
L 325.015311 510.52757 
L 330.862691 583.691849 
L 333.786382 557.04621 
L 336.710072 516.633035 
L 339.633762 576.519986 
L 342.035291 596.44 
M 342.724227 596.44 
L 345.481142 524.842472 
L 348.404832 489.543921 
L 351.328522 475.030053 
L 354.252212 548.85115 
L 357.175902 535.600721 
L 360.099592 520.173038 
L 362.947673 596.44 
M 363.096961 596.44 
L 365.946973 518.120521 
L 368.870663 519.492888 
L 371.794353 537.787141 
L 374.83907 596.44 
M 382.165019 596.44 
L 383.489113 554.974839 
L 386.412803 534.833927 
L 389.336494 576.330885 
L 392.260184 550.866238 
L 395.183874 567.555997 
L 398.107564 515.261157 
L 401.031254 489.594886 
L 403.954944 492.329931 
L 406.878634 540.20163 
L 409.802324 500.526776 
L 412.726014 484.85864 
L 415.649704 571.169493 
L 418.573395 548.431321 
L 421.497085 589.614544 
L 421.771524 596.44 
M 433.222973 596.44 
L 436.115535 525.742541 
L 439.039225 538.4257 
L 441.962915 589.286293 
L 444.886605 585.021856 
L 447.810296 506.049336 
L 450.733986 469.700092 
L 453.657676 541.209716 
L 456.581366 520.618822 
L 458.165008 596.44 
M 461.135103 596.44 
L 462.428746 545.522391 
L 465.352436 555.593319 
L 468.276126 540.425991 
L 471.199816 541.041183 
L 473.295219 596.44 
M 474.95049 596.44 
L 477.047197 540.919348 
L 479.970887 455.118993 
L 482.894577 575.048871 
L 485.818267 580.38051 
L 488.741957 584.855736 
L 491.665647 541.492564 
L 494.589337 541.901164 
L 496.334629 596.44 
M 498.637139 596.44 
L 500.436717 537.489007 
L 503.360408 468.907762 
L 506.284098 553.344565 
L 507.633029 596.44 
M 515.984318 596.44 
L 517.978858 529.32249 
L 520.902548 576.695411 
L 523.826238 590.844788 
L 526.749928 546.801361 
L 529.502112 596.44 
M 534.079247 596.44 
L 535.520999 547.41421 
L 538.444689 523.339875 
L 541.368379 592.942569 
L 542.032646 596.44 
M 544.805638 596.44 
L 547.215759 540.613099 
L 550.139449 579.127354 
L 553.063139 488.331447 
L 555.986829 560.60937 
L 558.910519 538.700117 
L 561.83421 541.514392 
L 564.7579 553.857371 
L 567.68159 516.7888 
L 570.60528 520.573873 
L 573.52897 514.808307 
L 576.45266 494.36146 
L 579.37635 531.678773 
L 582.30004 543.856682 
L 585.22373 540.941945 
L 588.147421 526.75311 
L 591.071111 518.719762 
L 593.994801 541.242213 
L 596.918491 474.975694 
L 599.842181 535.326479 
L 602.765871 524.318298 
L 605.689561 523.998652 
L 608.613251 516.105363 
L 611.386712 596.44 
M 614.666214 596.44 
L 617.384322 455.485407 
L 620.308012 491.083072 
L 623.231702 552.205374 
L 625.490966 596.44 
M 628.048482 596.44 
L 629.079082 589.357931 
L 632.002772 566.781752 
L 634.926462 543.306448 
L 637.850152 579.660763 
L 640.773842 508.643866 
L 643.697532 450.187803 
L 646.621223 494.648575 
L 649.544913 513.006947 
L 652.468603 587.324689 
L 655.392293 546.736754 
L 658.315983 510.256755 
L 661.239673 572.731416 
L 664.163363 509.131171 
L 667.087053 568.260003 
L 670.010743 573.984362 
L 672.934433 558.859674 
L 675.858124 566.347091 
L 678.781814 532.278189 
L 681.705504 590.487538 
L 682.132283 596.44 
M 686.244763 596.44 
L 687.552884 568.241988 
L 688.322766 596.44 
M 700.336605 596.44 
L 702.171335 586.814786 
L 705.095025 587.178158 
L 708.018715 580.724118 
L 710.942405 582.450132 
L 713.866095 581.424696 
L 716.789785 582.527822 
L 719.713475 580.958413 
L 722.637165 578.523251 
L 725.560855 582.379508 
L 728.484545 582.610655 
L 728.484545 582.610655 
" style="fill:none;stroke:#4c72b0;stroke-linecap:round;stroke-width:1.5;"/>
   </g>
   <g id="line2d_2">
    <path clip-path="url(#p7aa7def0e5)" d="M 134.975455 550.407686 
L 137.899145 554.201608 
L 140.822835 554.72078 
L 143.746525 555.039797 
L 146.670215 556.379003 
L 149.593905 558.66648 
L 152.517595 557.329408 
L 155.441285 559.220597 
L 158.364975 559.267715 
L 161.288665 560.787732 
L 164.212356 561.823628 
L 167.136046 562.672206 
L 170.059736 583.283319 
L 172.983426 589.312353 
L 174.106515 596.44 
M 185.079839 596.44 
L 187.601876 520.344194 
L 190.04391 596.44 
M 202.064286 596.44 
L 202.220327 593.983711 
L 203.030258 596.44 
M 210.821557 596.44 
L 210.991397 591.300786 
L 213.915087 573.015943 
L 215.468934 596.44 
M 221.05992 596.44 
L 222.686158 587.567484 
L 225.609848 565.12129 
L 228.917568 596.44 
M 232.047583 596.44 
L 234.380918 513.411664 
L 238.435121 596.44 
M 243.207988 596.44 
L 246.075678 503.943195 
L 248.999369 511.484096 
L 251.923059 573.573872 
L 254.846749 567.82954 
L 257.371828 596.44 
M 258.000117 596.44 
L 260.694129 543.464032 
L 262.090862 596.44 
M 265.626366 596.44 
L 266.541509 570.052444 
L 269.465199 552.716606 
L 272.388889 586.673013 
L 273.927579 596.44 
M 280.102418 596.44 
L 281.15996 592.529806 
L 284.08365 549.691193 
L 287.00734 563.586126 
L 288.699418 596.44 
M 291.598226 596.44 
L 292.85472 578.417542 
L 295.77841 541.841069 
L 298.431379 596.44 
M 302.447953 596.44 
L 304.549481 564.090816 
L 307.473171 541.561195 
L 310.396861 540.283903 
L 313.320551 530.924291 
L 316.244241 564.660989 
L 319.167931 552.219611 
L 322.091621 552.776526 
L 325.015311 505.215065 
L 327.939001 573.809112 
L 330.862691 581.339729 
L 333.786382 545.558805 
L 336.710072 551.348611 
L 339.633762 590.004815 
L 342.557452 589.973158 
L 345.481142 521.003566 
L 348.404832 498.219325 
L 351.328522 558.042508 
L 354.252212 596.199514 
L 360.099592 437.605596 
L 363.023283 437.741878 
L 365.946973 481.95947 
L 368.870663 469.205056 
L 371.794353 479.63355 
L 374.718043 531.55295 
L 377.641733 564.053598 
L 380.565423 593.571403 
L 383.489113 518.090718 
L 389.336494 579.538928 
L 392.260184 555.428039 
L 395.183874 573.57013 
L 398.107564 517.635035 
L 401.031254 486.797927 
L 403.954944 524.694437 
L 406.878634 538.262903 
L 409.802324 539.159823 
L 412.726014 547.846527 
L 415.649704 592.030222 
L 418.573395 551.826577 
L 421.745664 596.44 
M 426.197678 596.44 
L 427.344465 572.366016 
L 430.268155 580.047256 
L 433.191845 562.899995 
L 436.115535 512.659701 
L 439.039225 573.112417 
L 440.931014 596.44 
M 442.699404 596.44 
L 444.886605 558.651649 
L 447.810296 486.223557 
L 450.733986 503.848399 
L 453.657676 544.51378 
L 456.581366 557.128238 
L 457.692946 596.44 
M 461.131254 596.44 
L 462.428746 545.307439 
L 465.352436 570.121459 
L 468.276126 529.646754 
L 471.199816 545.911997 
L 474.123506 590.888548 
L 477.047197 572.660442 
L 479.970887 459.871155 
L 482.894577 567.362838 
L 485.818267 596.205531 
L 486.076529 596.44 
M 488.928609 596.44 
L 491.665647 560.955181 
L 494.589337 550.314115 
L 496.212164 596.44 
M 498.670847 596.44 
L 500.436717 540.047334 
L 503.360408 469.211143 
L 506.284098 559.12045 
L 507.676573 596.44 
M 516.484288 596.44 
L 517.978858 558.575078 
L 520.902548 585.937735 
L 523.826238 586.135162 
L 526.749928 559.297378 
L 529.005055 596.44 
M 533.804113 596.44 
L 535.520999 542.295108 
L 538.444689 519.569949 
L 544.185831 596.44 
M 544.337573 596.44 
L 547.215759 505.228777 
L 550.139449 551.697641 
L 553.063139 497.482439 
L 555.986829 492.938302 
L 558.910519 459.672818 
L 561.83421 428.509978 
L 564.7579 504.161434 
L 567.68159 480.639397 
L 570.60528 575.008504 
L 573.52897 456.689766 
L 576.45266 457.09179 
L 579.37635 500.964025 
L 582.30004 462.975413 
L 585.22373 549.091637 
L 588.147421 518.476896 
L 591.071111 537.468089 
L 593.994801 566.170093 
L 596.918491 496.650441 
L 599.842181 586.109416 
L 602.765871 542.93699 
L 605.689561 567.292074 
L 608.405291 596.44 
M 616.290088 596.44 
L 617.384322 559.504004 
L 620.308012 548.471478 
L 623.231702 580.891777 
L 623.866328 596.44 
M 634.289212 596.44 
L 634.926462 592.120646 
L 637.850152 595.199368 
L 640.773842 541.032123 
L 643.697532 450.819821 
L 646.621223 515.8222 
L 649.544913 545.838644 
L 652.468603 593.851592 
L 655.392293 575.449811 
L 658.315983 489.022755 
L 661.239673 575.968633 
L 664.163363 504.943375 
L 667.087053 578.609022 
L 670.010743 588.610935 
L 672.934433 560.823132 
L 675.858124 571.387732 
L 678.781814 558.566193 
L 681.562464 596.44 
M 686.251961 596.44 
L 687.552884 565.929851 
L 688.421656 596.44 
M 700.552801 596.44 
L 702.171335 576.644165 
L 705.095025 576.800875 
L 708.018715 575.065066 
L 710.942405 577.157285 
L 713.866095 574.977092 
L 716.789785 576.989592 
L 719.713475 576.194078 
L 722.637165 572.225711 
L 725.560855 576.535902 
L 728.484545 572.06232 
L 728.484545 572.06232 
" style="fill:none;stroke:#dd8452;stroke-dasharray:6,2.25;stroke-dashoffset:0;stroke-width:1.5;"/>
   </g>
   <g id="line2d_3">
    <path clip-path="url(#p7aa7def0e5)" d="M 134.975455 551.721147 
L 137.899145 555.302461 
L 140.822835 556.856794 
L 143.746525 554.542663 
L 146.670215 563.172104 
L 149.593905 564.26694 
L 152.517595 565.585893 
L 155.441285 587.452016 
L 158.364975 588.387728 
L 161.288665 578.416493 
L 164.212356 580.295719 
L 167.136046 573.041618 
L 170.059736 577.477527 
L 172.788143 596.44 
M 184.307571 596.44 
L 184.678186 582.512466 
L 187.601876 531.129203 
L 190.525567 567.911743 
L 193.449257 590.907332 
L 196.372947 586.247832 
L 197.450795 596.44 
M 201.321451 596.44 
L 202.220327 588.691494 
L 204.666458 596.44 
M 205.188573 596.44 
L 208.067707 498.688826 
L 210.991397 562.72499 
L 213.915087 590.929055 
L 216.838777 570.000359 
L 219.762468 555.220398 
L 222.686158 548.30123 
L 225.609848 500.910331 
L 228.533538 549.935003 
L 231.457228 588.861042 
L 234.380918 523.165535 
L 237.304608 571.939681 
L 238.182759 596.44 
M 243.640426 596.44 
L 246.075678 492.535648 
L 248.999369 531.939513 
L 251.923059 529.529117 
L 254.846749 590.922548 
L 256.087722 596.44 
M 258.064562 596.44 
L 260.694129 529.552903 
L 262.898875 596.44 
M 264.753608 596.44 
L 266.541509 562.105951 
L 269.465199 575.736681 
L 272.388889 591.095524 
L 275.312579 573.931402 
L 278.23627 555.325373 
L 281.15996 492.521202 
L 284.08365 472.888232 
L 287.00734 463.55552 
L 289.93103 501.983235 
L 292.85472 510.751511 
L 295.77841 536.843173 
L 298.018786 596.44 
M 303.941237 596.44 
L 304.549481 581.536456 
L 307.473171 567.505206 
L 310.396861 594.030269 
L 313.320551 588.481929 
L 316.244241 593.527958 
L 319.167931 582.507499 
L 322.091621 572.566521 
L 325.015311 528.93918 
L 327.939001 588.6718 
L 328.736261 596.44 
M 332.107468 596.44 
L 333.786382 568.494718 
L 336.710072 563.969821 
L 338.639372 596.44 
M 344.130346 596.44 
L 345.481142 554.280383 
L 348.404832 514.308864 
L 351.221125 596.44 
M 351.462465 596.44 
L 354.252212 531.206929 
L 357.175902 588.060456 
L 360.099592 498.103087 
L 363.023283 561.593845 
L 365.946973 494.094773 
L 368.870663 538.798271 
L 371.794353 475.420988 
L 374.718043 580.592943 
L 376.834244 596.44 
M 378.371827 596.44 
L 380.565423 578.272025 
L 383.489113 562.669862 
L 386.412803 578.624098 
L 387.701989 596.44 
M 391.894074 596.44 
L 392.260184 593.206597 
L 395.183874 593.247838 
L 398.107564 541.24774 
L 401.031254 526.200603 
L 403.954944 536.332536 
L 406.878634 551.395939 
L 409.802324 584.156278 
L 412.726014 564.485145 
L 415.649704 572.162643 
L 417.960079 596.44 
M 418.864175 596.44 
L 421.497085 538.085555 
L 424.420775 486.904231 
L 427.344465 450.973417 
L 430.268155 468.482581 
L 433.191845 476.31546 
L 436.115535 455.749156 
L 439.039225 537.75489 
L 441.962915 594.860728 
L 444.886605 540.237694 
L 447.810296 565.553502 
L 450.733986 511.245952 
L 453.657676 528.950164 
L 456.581366 573.828107 
L 456.980574 596.44 
M 463.145677 596.44 
L 465.352436 567.324745 
L 468.276126 564.84138 
L 471.199816 500.431246 
L 474.123506 558.91127 
L 477.047197 524.502153 
L 479.970887 502.16646 
L 482.894577 567.848919 
L 484.828876 596.44 
M 487.736083 596.44 
L 488.741957 588.769709 
L 491.665647 580.704109 
L 494.589337 489.698287 
L 497.513027 543.527171 
L 500.436717 486.309397 
L 503.360408 506.020897 
L 506.284098 575.208484 
L 509.207788 529.876432 
L 512.131478 543.474386 
L 515.055168 566.489424 
L 517.978858 558.074585 
L 520.040853 596.44 
M 536.427293 596.44 
L 538.444689 572.854301 
L 541.298182 596.44 
M 544.462033 596.44 
L 547.215759 494.409418 
L 550.139449 582.324974 
L 555.986829 487.257458 
L 558.910519 502.64446 
L 561.83421 472.234073 
L 564.7579 470.685686 
L 567.68159 468.478628 
L 573.52897 545.978844 
L 576.45266 469.538415 
L 579.37635 524.148296 
L 582.30004 547.115761 
L 585.22373 590.900441 
L 588.147421 556.935919 
L 591.071111 572.033182 
L 593.994801 565.66124 
L 596.918491 483.238196 
L 599.762561 596.44 
M 600.716985 596.44 
L 602.765871 589.017682 
L 605.689561 553.565568 
L 608.613251 564.621322 
L 610.464387 596.44 
M 615.241107 596.44 
L 617.384322 510.142161 
L 620.308012 482.249523 
L 623.231702 566.804384 
L 624.455077 596.44 
M 627.788438 596.44 
L 629.079082 563.886953 
L 631.262154 596.44 
M 635.184282 596.44 
L 637.850152 523.525618 
L 640.773842 503.091678 
L 643.697532 520.827092 
L 646.621223 580.79803 
L 649.544913 525.290915 
L 652.406958 596.44 
M 652.648588 596.44 
L 655.392293 573.078907 
L 658.315983 497.946447 
L 661.239673 561.746322 
L 664.163363 504.733181 
L 667.087053 576.61786 
L 670.010743 582.768554 
L 672.934433 530.648579 
L 675.858124 585.265281 
L 678.781814 572.153863 
L 680.388499 596.44 
M 687.109486 596.44 
L 687.552884 586.005561 
L 687.941891 596.44 
M 701.812368 596.44 
L 702.171335 592.425286 
L 705.095025 583.259532 
L 708.018715 581.906509 
L 710.942405 587.911162 
L 713.866095 583.847615 
L 716.789785 584.89229 
L 719.713475 582.456114 
L 722.637165 582.253125 
L 725.560855 583.70794 
L 728.484545 574.882996 
L 728.484545 574.882996 
" style="fill:none;stroke:#55a868;stroke-dasharray:1.5,1.5;stroke-dashoffset:0;stroke-width:1.5;"/>
   </g>
   <g id="line2d_4">
    <path clip-path="url(#p7aa7def0e5)" d="M 134.975455 550.293757 
L 137.899145 554.065327 
L 140.822835 554.648897 
L 143.746525 554.830477 
L 146.670215 556.339266 
L 149.593905 558.621531 
L 152.517595 557.384991 
L 155.441285 559.429637 
L 158.364975 559.653579 
L 161.288665 561.230753 
L 167.136046 563.216493 
L 170.059736 583.940906 
L 172.983426 589.947553 
L 174.007096 596.44 
M 185.112352 596.44 
L 187.601876 520.876309 
L 190.013796 596.44 
M 202.087672 596.44 
L 202.220327 594.344389 
L 203.481517 596.44 
M 210.677783 596.44 
L 210.991397 586.30401 
L 213.915087 581.004062 
L 215.339409 596.44 
M 221.321374 596.44 
L 222.686158 588.562418 
L 225.609848 564.591274 
L 228.759347 596.44 
M 232.103996 596.44 
L 234.380918 514.131376 
L 238.239897 596.44 
M 243.27721 596.44 
L 246.075678 504.568216 
L 248.999369 511.359182 
L 251.923059 573.940847 
L 254.846749 568.226737 
L 257.56784 596.44 
M 257.881814 596.44 
L 260.694129 543.39792 
L 262.083628 596.44 
M 265.544975 596.44 
L 266.541509 566.155716 
L 269.465199 552.915607 
L 272.388889 583.274399 
L 273.968867 596.44 
M 279.733307 596.44 
L 281.15996 590.336705 
L 284.08365 549.920381 
L 287.00734 573.303408 
L 288.358302 596.44 
M 291.490809 596.44 
L 292.85472 572.887706 
L 295.77841 541.782827 
L 298.420161 596.44 
M 302.549105 596.44 
L 304.549481 567.15086 
L 307.473171 541.831275 
L 310.396861 542.405085 
L 313.320551 530.070571 
L 316.244241 566.365421 
L 319.167931 554.735052 
L 322.091621 564.452019 
L 325.015311 501.660545 
L 327.939001 562.60326 
L 330.862691 594.172777 
L 333.786382 543.248031 
L 336.710072 557.991333 
L 338.882747 596.44 
M 342.909418 596.44 
L 345.481142 527.63359 
L 348.404832 472.408937 
L 351.328522 536.183907 
L 354.252212 575.44292 
L 357.175902 489.412431 
L 360.099592 455.12396 
L 363.023283 579.184022 
L 365.946973 492.379113 
L 368.870663 487.722656 
L 371.794353 504.428226 
L 374.718043 558.404411 
L 377.641733 575.955165 
L 379.613541 596.44 
M 380.893083 596.44 
L 383.489113 518.090333 
L 386.412803 552.90137 
L 389.336494 580.603227 
L 392.260184 555.105384 
L 395.183874 574.220861 
L 398.107564 517.210064 
L 401.031254 488.432329 
L 403.954944 522.682322 
L 406.878634 540.970489 
L 409.802324 542.594012 
L 412.726014 546.62954 
L 415.649704 595.145324 
L 418.573395 553.269813 
L 421.399995 596.44 
M 426.346039 596.44 
L 427.344465 574.033753 
L 430.268155 579.051203 
L 433.191845 559.52961 
L 436.115535 510.903744 
L 439.039225 572.951755 
L 440.894847 596.44 
M 442.715936 596.44 
L 444.886605 557.468488 
L 447.810296 485.553796 
L 450.733986 498.393281 
L 453.657676 550.452216 
L 456.581366 558.058984 
L 457.693477 596.44 
M 461.088428 596.44 
L 462.428746 543.516222 
L 465.352436 572.99443 
L 468.276126 528.91375 
L 471.199816 551.643877 
L 473.946653 596.44 
M 474.532734 596.44 
L 477.047197 578.718474 
L 479.970887 456.564853 
L 482.894577 567.950955 
L 485.818267 595.792907 
L 486.206624 596.44 
M 489.054058 596.44 
L 491.665647 561.090694 
L 494.589337 550.897475 
L 496.177135 596.44 
M 498.67869 596.44 
L 500.436717 538.650935 
L 503.360408 467.278852 
L 506.284098 558.586096 
L 507.701843 596.44 
M 516.480557 596.44 
L 517.978858 558.189914 
L 520.902548 586.203128 
L 523.826238 584.860843 
L 526.749928 558.287788 
L 529.030916 596.44 
M 533.784881 596.44 
L 535.520999 541.703493 
L 538.444689 522.111835 
L 544.114041 596.44 
M 544.365465 596.44 
L 547.215759 505.219822 
L 550.139449 550.912446 
L 553.063139 495.843629 
L 555.986829 494.174457 
L 558.910519 459.542518 
L 561.83421 430.198039 
L 564.7579 504.955653 
L 567.68159 480.822727 
L 570.60528 570.306923 
L 573.52897 447.829352 
L 576.45266 504.258329 
L 579.37635 485.343917 
L 582.30004 477.930098 
L 585.158541 596.44 
M 585.307369 596.44 
L 588.147421 504.666859 
L 591.071111 508.442137 
L 593.994801 574.220581 
L 596.918491 520.304912 
L 599.842181 573.900865 
L 602.765871 561.83762 
L 605.689561 571.697934 
L 608.613251 586.839622 
L 609.165255 596.44 
M 616.227074 596.44 
L 617.384322 551.730137 
L 620.308012 544.114344 
L 623.231702 582.480774 
L 623.87187 596.44 
M 634.53689 596.44 
L 634.926462 594.543809 
L 637.850152 594.919634 
L 640.773842 540.911583 
L 643.697532 450.330941 
L 646.621223 516.278653 
L 649.544913 542.51034 
L 652.468603 594.00365 
L 655.392293 575.123553 
L 658.315983 488.488716 
L 661.239673 576.294366 
L 664.163363 504.894648 
L 667.087053 576.855059 
L 670.010743 589.398333 
L 672.934433 559.83348 
L 675.858124 569.813811 
L 678.781814 557.830355 
L 681.768682 596.44 
M 686.21305 596.44 
L 687.552884 565.79147 
L 688.428038 596.44 
M 700.558965 596.44 
L 702.171335 575.197535 
L 705.095025 576.187187 
L 708.018715 574.610467 
L 710.942405 577.451222 
L 713.866095 575.209638 
L 716.789785 577.040348 
L 719.713475 576.331305 
L 722.637165 572.058612 
L 725.560855 576.919807 
L 728.484545 572.162468 
L 728.484545 572.162468 
" style="fill:none;stroke:#c44e52;stroke-dasharray:4.5,1.875,2.25,1.875;stroke-dashoffset:0;stroke-width:1.5;"/>
   </g>
   <g id="line2d_5">
    <path clip-path="url(#p7aa7def0e5)" d="M 134.975455 552.750816 
L 137.899145 556.562823 
L 143.746525 557.727689 
L 146.670215 558.860199 
L 149.593905 561.727818 
L 152.517595 560.932479 
L 155.441285 562.689731 
L 158.364975 562.950226 
L 161.288665 565.215036 
L 164.212356 564.852154 
L 167.136046 565.160607 
L 170.059736 583.488091 
L 172.983426 589.427856 
L 174.261901 596.44 
M 185.302556 596.44 
L 187.601876 539.856029 
L 189.767936 596.44 
M 202.09389 596.44 
L 202.220327 593.961009 
L 204.08611 596.44 
M 210.757819 596.44 
L 210.991397 588.871396 
L 213.915087 570.92995 
L 215.665156 596.44 
M 221.006753 596.44 
L 225.609848 571.416871 
L 228.442863 596.44 
M 232.189965 596.44 
L 234.380918 518.206572 
L 237.304608 575.125372 
L 238.270021 596.44 
M 243.292484 596.44 
L 246.075678 500.777687 
L 248.999369 501.923874 
L 251.923059 580.586332 
L 254.846749 569.730699 
L 257.210504 596.44 
M 258.060381 596.44 
L 260.694129 538.967469 
L 262.166787 596.44 
M 265.49579 596.44 
L 266.541509 564.907248 
L 269.465199 551.357496 
L 272.388889 580.629672 
L 274.275676 596.44 
M 281.199901 596.44 
L 284.08365 556.95068 
L 287.00734 571.88819 
L 288.449008 596.44 
M 291.422171 596.44 
L 292.85472 572.19269 
L 295.77841 537.517481 
L 298.649116 596.44 
M 302.330925 596.44 
L 304.549481 564.140208 
L 307.473171 539.61897 
L 310.396861 555.967639 
L 313.320551 533.647268 
L 316.244241 563.727515 
L 319.167931 553.0309 
L 322.091621 566.620914 
L 325.015311 512.263588 
L 327.939001 560.024156 
L 330.832389 596.44 
M 330.891813 596.44 
L 333.786382 558.531423 
L 336.710072 528.088399 
L 339.554861 596.44 
M 342.889852 596.44 
L 345.481142 537.912509 
L 348.404832 484.288782 
L 351.328522 468.166153 
L 354.252212 546.913752 
L 357.175902 556.476038 
L 360.099592 558.058914 
L 361.436228 596.44 
M 364.296681 596.44 
L 365.946973 537.38015 
L 368.870663 541.450308 
L 371.794353 521.545335 
L 375.016836 596.44 
M 382.595591 596.44 
L 383.489113 568.835178 
L 386.412803 552.743156 
L 389.336494 585.40604 
L 392.260184 571.839463 
L 395.183874 586.386912 
L 398.107564 501.461614 
L 401.031254 503.530572 
L 403.954944 520.113432 
L 406.878634 549.740234 
L 409.802324 550.899854 
L 412.726014 540.150979 
L 414.898596 596.44 
M 416.598264 596.44 
L 418.573395 555.918843 
L 420.840758 596.44 
M 426.800777 596.44 
L 427.344465 584.111643 
L 430.268155 582.556331 
L 433.191845 565.47756 
L 436.115535 508.743489 
L 439.039225 572.18538 
L 440.824786 596.44 
M 442.89065 596.44 
L 444.886605 563.178715 
L 447.810296 485.629178 
L 450.733986 494.750542 
L 453.657676 536.253971 
L 456.581366 545.773197 
L 458.256129 596.44 
M 460.570534 596.44 
L 462.428746 530.544164 
L 465.352436 566.263209 
L 468.276126 533.989336 
L 471.199816 561.564427 
L 473.249962 596.44 
M 475.043232 596.44 
L 477.047197 564.061713 
L 479.970887 459.070814 
L 482.894577 577.594919 
L 485.232911 596.44 
M 489.147465 596.44 
L 491.665647 565.834705 
L 494.589337 549.411598 
L 496.187603 596.44 
M 498.664224 596.44 
L 500.436717 536.391617 
L 503.360408 463.157238 
L 506.284098 556.903317 
L 507.632908 596.44 
M 516.574056 596.44 
L 517.978858 562.281795 
L 520.902548 586.384358 
L 523.826238 580.141387 
L 526.749928 547.490186 
L 529.466102 596.44 
M 533.2354 596.44 
L 535.520999 524.732041 
L 538.444689 499.46566 
L 541.368379 553.99785 
L 544.006548 596.44 
M 544.422325 596.44 
L 547.215759 497.931196 
L 550.139449 546.803355 
L 553.063139 456.208967 
L 555.986829 528.100992 
L 558.910519 484.536265 
L 561.83421 468.574823 
L 564.7579 538.663878 
L 567.68159 510.623835 
L 570.60528 514.509474 
L 573.52897 505.124082 
L 576.45266 557.499795 
L 579.37635 526.909611 
L 582.30004 488.040379 
L 585.22373 572.61983 
L 588.147421 517.84404 
L 591.071111 526.970616 
L 593.994801 547.704158 
L 596.918491 504.951176 
L 599.842181 550.330905 
L 602.765871 535.487142 
L 605.689561 552.675784 
L 608.613251 570.638847 
L 610.731952 596.44 
M 615.662332 596.44 
L 617.384322 528.310521 
L 620.308012 526.738559 
L 623.231702 570.727382 
L 624.444888 596.44 
M 629.067992 596.44 
L 629.079082 596.30197 
L 632.002772 595.109575 
L 634.926462 584.170235 
L 637.850152 579.184722 
L 640.773842 519.677617 
L 643.697532 443.588527 
L 646.621223 499.886329 
L 649.544913 528.390625 
L 652.468603 571.631473 
L 655.392293 558.810528 
L 658.315983 487.542789 
L 661.239673 560.650891 
L 664.163363 497.561528 
L 667.087053 572.836951 
L 670.010743 584.682096 
L 672.934433 565.657847 
L 675.858124 567.575306 
L 678.781814 540.712442 
L 681.705504 593.923755 
L 681.961739 596.44 
M 685.789772 596.44 
L 687.552884 556.646005 
L 688.852742 596.44 
M 700.076457 596.44 
L 702.171335 571.120451 
L 705.095025 572.032167 
L 708.018715 570.489868 
L 710.942405 572.122031 
L 713.866095 569.899267 
L 716.789785 570.749244 
L 719.713475 570.623211 
L 722.637165 565.993444 
L 725.560855 570.568293 
L 728.484545 566.811275 
L 728.484545 566.811275 
" style="fill:none;stroke:#8172b3;stroke-dasharray:7.5,1.5,1.5,1.5;stroke-dashoffset:0;stroke-width:1.5;"/>
   </g>
   <g id="line2d_6"/>
   <g id="line2d_7"/>
   <g id="line2d_8"/>
   <g id="line2d_9"/>
   <g id="line2d_10"/>
   <g id="patch_3">
    <path d="M 105.3 529.9416 
L 105.3 71.4528 
" style="fill:none;stroke:#262626;stroke-linecap:square;stroke-linejoin:miter;stroke-width:1.25;"/>
   </g>
   <g id="patch_4">
    <path d="M 758.16 529.9416 
L 758.16 71.4528 
" style="fill:none;stroke:#262626;stroke-linecap:square;stroke-linejoin:miter;stroke-width:1.25;"/>
   </g>
   <g id="patch_5">
    <path d="M 105.3 529.9416 
L 758.16 529.9416 
" style="fill:none;stroke:#262626;stroke-linecap:square;stroke-linejoin:miter;stroke-width:1.25;"/>
   </g>
   <g id="patch_6">
    <path d="M 105.3 71.4528 
L 758.16 71.4528 
" style="fill:none;stroke:#262626;stroke-linecap:square;stroke-linejoin:miter;stroke-width:1.25;"/>
   </g>
   <g id="text_16">
    <!-- Activations for &gt;7&lt; -->
    <g style="fill:#262626;" transform="translate(382.037813 65.4528)scale(0.12 -0.12)">
     <defs>
      <path d="M -9 0 
L 1750 4581 
L 2403 4581 
L 4278 0 
L 3588 0 
L 3053 1388 
L 1138 1388 
L 634 0 
L -9 0 
z
M 1313 1881 
L 2866 1881 
L 2388 3150 
Q 2169 3728 2063 4100 
Q 1975 3659 1816 3225 
L 1313 1881 
z
" id="ArialMT-41" transform="scale(0.015625)"/>
      <path d="M 2588 1216 
L 3141 1144 
Q 3050 572 2676 248 
Q 2303 -75 1759 -75 
Q 1078 -75 664 370 
Q 250 816 250 1647 
Q 250 2184 428 2587 
Q 606 2991 970 3192 
Q 1334 3394 1763 3394 
Q 2303 3394 2647 3120 
Q 2991 2847 3088 2344 
L 2541 2259 
Q 2463 2594 2264 2762 
Q 2066 2931 1784 2931 
Q 1359 2931 1093 2626 
Q 828 2322 828 1663 
Q 828 994 1084 691 
Q 1341 388 1753 388 
Q 2084 388 2306 591 
Q 2528 794 2588 1216 
z
" id="ArialMT-63" transform="scale(0.015625)"/>
      <path d="M 1650 503 
L 1731 6 
Q 1494 -44 1306 -44 
Q 1000 -44 831 53 
Q 663 150 594 308 
Q 525 466 525 972 
L 525 2881 
L 113 2881 
L 113 3319 
L 525 3319 
L 525 4141 
L 1084 4478 
L 1084 3319 
L 1650 3319 
L 1650 2881 
L 1084 2881 
L 1084 941 
Q 1084 700 1114 631 
Q 1144 563 1211 522 
Q 1278 481 1403 481 
Q 1497 481 1650 503 
z
" id="ArialMT-74" transform="scale(0.015625)"/>
      <path d="M 425 3934 
L 425 4581 
L 988 4581 
L 988 3934 
L 425 3934 
z
M 425 0 
L 425 3319 
L 988 3319 
L 988 0 
L 425 0 
z
" id="ArialMT-69" transform="scale(0.015625)"/>
      <path d="M 1344 0 
L 81 3319 
L 675 3319 
L 1388 1331 
Q 1503 1009 1600 663 
Q 1675 925 1809 1294 
L 2547 3319 
L 3125 3319 
L 1869 0 
L 1344 0 
z
" id="ArialMT-76" transform="scale(0.015625)"/>
      <path d="M 2588 409 
Q 2275 144 1986 34 
Q 1697 -75 1366 -75 
Q 819 -75 525 192 
Q 231 459 231 875 
Q 231 1119 342 1320 
Q 453 1522 633 1644 
Q 813 1766 1038 1828 
Q 1203 1872 1538 1913 
Q 2219 1994 2541 2106 
Q 2544 2222 2544 2253 
Q 2544 2597 2384 2738 
Q 2169 2928 1744 2928 
Q 1347 2928 1158 2789 
Q 969 2650 878 2297 
L 328 2372 
Q 403 2725 575 2942 
Q 747 3159 1072 3276 
Q 1397 3394 1825 3394 
Q 2250 3394 2515 3294 
Q 2781 3194 2906 3042 
Q 3031 2891 3081 2659 
Q 3109 2516 3109 2141 
L 3109 1391 
Q 3109 606 3145 398 
Q 3181 191 3288 0 
L 2700 0 
Q 2613 175 2588 409 
z
M 2541 1666 
Q 2234 1541 1622 1453 
Q 1275 1403 1131 1340 
Q 988 1278 909 1158 
Q 831 1038 831 891 
Q 831 666 1001 516 
Q 1172 366 1500 366 
Q 1825 366 2078 508 
Q 2331 650 2450 897 
Q 2541 1088 2541 1459 
L 2541 1666 
z
" id="ArialMT-61" transform="scale(0.015625)"/>
      <path d="M 213 1659 
Q 213 2581 725 3025 
Q 1153 3394 1769 3394 
Q 2453 3394 2887 2945 
Q 3322 2497 3322 1706 
Q 3322 1066 3130 698 
Q 2938 331 2570 128 
Q 2203 -75 1769 -75 
Q 1072 -75 642 372 
Q 213 819 213 1659 
z
M 791 1659 
Q 791 1022 1069 705 
Q 1347 388 1769 388 
Q 2188 388 2466 706 
Q 2744 1025 2744 1678 
Q 2744 2294 2464 2611 
Q 2184 2928 1769 2928 
Q 1347 2928 1069 2612 
Q 791 2297 791 1659 
z
" id="ArialMT-6f" transform="scale(0.015625)"/>
      <path d="M 422 0 
L 422 3319 
L 928 3319 
L 928 2847 
Q 1294 3394 1984 3394 
Q 2284 3394 2536 3286 
Q 2788 3178 2913 3003 
Q 3038 2828 3088 2588 
Q 3119 2431 3119 2041 
L 3119 0 
L 2556 0 
L 2556 2019 
Q 2556 2363 2490 2533 
Q 2425 2703 2258 2804 
Q 2091 2906 1866 2906 
Q 1506 2906 1245 2678 
Q 984 2450 984 1813 
L 984 0 
L 422 0 
z
" id="ArialMT-6e" transform="scale(0.015625)"/>
      <path d="M 197 991 
L 753 1078 
Q 800 744 1014 566 
Q 1228 388 1613 388 
Q 2000 388 2187 545 
Q 2375 703 2375 916 
Q 2375 1106 2209 1216 
Q 2094 1291 1634 1406 
Q 1016 1563 777 1677 
Q 538 1791 414 1992 
Q 291 2194 291 2438 
Q 291 2659 392 2848 
Q 494 3038 669 3163 
Q 800 3259 1026 3326 
Q 1253 3394 1513 3394 
Q 1903 3394 2198 3281 
Q 2494 3169 2634 2976 
Q 2775 2784 2828 2463 
L 2278 2388 
Q 2241 2644 2061 2787 
Q 1881 2931 1553 2931 
Q 1166 2931 1000 2803 
Q 834 2675 834 2503 
Q 834 2394 903 2306 
Q 972 2216 1119 2156 
Q 1203 2125 1616 2013 
Q 2213 1853 2448 1751 
Q 2684 1650 2818 1456 
Q 2953 1263 2953 975 
Q 2953 694 2789 445 
Q 2625 197 2315 61 
Q 2006 -75 1616 -75 
Q 969 -75 630 194 
Q 291 463 197 991 
z
" id="ArialMT-73" transform="scale(0.015625)"/>
      <path id="ArialMT-20" transform="scale(0.015625)"/>
      <path d="M 556 0 
L 556 2881 
L 59 2881 
L 59 3319 
L 556 3319 
L 556 3672 
Q 556 4006 616 4169 
Q 697 4388 901 4523 
Q 1106 4659 1475 4659 
Q 1713 4659 2000 4603 
L 1916 4113 
Q 1741 4144 1584 4144 
Q 1328 4144 1222 4034 
Q 1116 3925 1116 3625 
L 1116 3319 
L 1763 3319 
L 1763 2881 
L 1116 2881 
L 1116 0 
L 556 0 
z
" id="ArialMT-66" transform="scale(0.015625)"/>
      <path d="M 416 0 
L 416 3319 
L 922 3319 
L 922 2816 
Q 1116 3169 1280 3281 
Q 1444 3394 1641 3394 
Q 1925 3394 2219 3213 
L 2025 2691 
Q 1819 2813 1613 2813 
Q 1428 2813 1281 2702 
Q 1134 2591 1072 2394 
Q 978 2094 978 1738 
L 978 0 
L 416 0 
z
" id="ArialMT-72" transform="scale(0.015625)"/>
      <path d="M 3384 2003 
L 350 706 
L 350 1266 
L 2753 2263 
L 350 3250 
L 350 3809 
L 3384 2528 
L 3384 2003 
z
" id="ArialMT-3e" transform="scale(0.015625)"/>
      <path d="M 350 2003 
L 350 2528 
L 3384 3809 
L 3384 3250 
L 978 2263 
L 3384 1266 
L 3384 706 
L 350 2003 
z
" id="ArialMT-3c" transform="scale(0.015625)"/>
     </defs>
     <use xlink:href="#ArialMT-41"/>
     <use x="66.699219" xlink:href="#ArialMT-63"/>
     <use x="116.699219" xlink:href="#ArialMT-74"/>
     <use x="144.482422" xlink:href="#ArialMT-69"/>
     <use x="166.699219" xlink:href="#ArialMT-76"/>
     <use x="216.699219" xlink:href="#ArialMT-61"/>
     <use x="272.314453" xlink:href="#ArialMT-74"/>
     <use x="300.097656" xlink:href="#ArialMT-69"/>
     <use x="322.314453" xlink:href="#ArialMT-6f"/>
     <use x="377.929688" xlink:href="#ArialMT-6e"/>
     <use x="433.544922" xlink:href="#ArialMT-73"/>
     <use x="483.544922" xlink:href="#ArialMT-20"/>
     <use x="511.328125" xlink:href="#ArialMT-66"/>
     <use x="539.111328" xlink:href="#ArialMT-6f"/>
     <use x="594.726562" xlink:href="#ArialMT-72"/>
     <use x="628.027344" xlink:href="#ArialMT-20"/>
     <use x="655.810547" xlink:href="#ArialMT-3e"/>
     <use x="714.208984" xlink:href="#ArialMT-37"/>
     <use x="769.824219" xlink:href="#ArialMT-3c"/>
    </g>
   </g>
   <g id="legend_1">
    <g id="patch_7">
     <path d="M 640.044062 158.514363 
L 750.46 158.514363 
Q 752.66 158.514363 752.66 156.314363 
L 752.66 79.1528 
Q 752.66 76.9528 750.46 76.9528 
L 640.044062 76.9528 
Q 637.844062 76.9528 637.844062 79.1528 
L 637.844062 156.314363 
Q 637.844062 158.514363 640.044062 158.514363 
z
" style="fill:#ffffff;opacity:0.8;stroke:#cccccc;stroke-linejoin:miter;"/>
    </g>
    <g id="line2d_11">
     <path d="M 642.244062 85.376394 
L 664.244062 85.376394 
" style="fill:none;stroke:#4c72b0;stroke-linecap:round;stroke-width:1.5;"/>
    </g>
    <g id="line2d_12"/>
    <g id="text_17">
     <!-- regular -->
     <g style="fill:#262626;" transform="translate(673.044062 89.226394)scale(0.11 -0.11)">
      <defs>
       <path d="M 2694 1069 
L 3275 997 
Q 3138 488 2766 206 
Q 2394 -75 1816 -75 
Q 1088 -75 661 373 
Q 234 822 234 1631 
Q 234 2469 665 2931 
Q 1097 3394 1784 3394 
Q 2450 3394 2872 2941 
Q 3294 2488 3294 1666 
Q 3294 1616 3291 1516 
L 816 1516 
Q 847 969 1125 678 
Q 1403 388 1819 388 
Q 2128 388 2347 550 
Q 2566 713 2694 1069 
z
M 847 1978 
L 2700 1978 
Q 2663 2397 2488 2606 
Q 2219 2931 1791 2931 
Q 1403 2931 1139 2672 
Q 875 2413 847 1978 
z
" id="ArialMT-65" transform="scale(0.015625)"/>
       <path d="M 319 -275 
L 866 -356 
Q 900 -609 1056 -725 
Q 1266 -881 1628 -881 
Q 2019 -881 2231 -725 
Q 2444 -569 2519 -288 
Q 2563 -116 2559 434 
Q 2191 0 1641 0 
Q 956 0 581 494 
Q 206 988 206 1678 
Q 206 2153 378 2554 
Q 550 2956 876 3175 
Q 1203 3394 1644 3394 
Q 2231 3394 2613 2919 
L 2613 3319 
L 3131 3319 
L 3131 450 
Q 3131 -325 2973 -648 
Q 2816 -972 2473 -1159 
Q 2131 -1347 1631 -1347 
Q 1038 -1347 672 -1080 
Q 306 -813 319 -275 
z
M 784 1719 
Q 784 1066 1043 766 
Q 1303 466 1694 466 
Q 2081 466 2343 764 
Q 2606 1063 2606 1700 
Q 2606 2309 2336 2618 
Q 2066 2928 1684 2928 
Q 1309 2928 1046 2623 
Q 784 2319 784 1719 
z
" id="ArialMT-67" transform="scale(0.015625)"/>
       <path d="M 2597 0 
L 2597 488 
Q 2209 -75 1544 -75 
Q 1250 -75 995 37 
Q 741 150 617 320 
Q 494 491 444 738 
Q 409 903 409 1263 
L 409 3319 
L 972 3319 
L 972 1478 
Q 972 1038 1006 884 
Q 1059 663 1231 536 
Q 1403 409 1656 409 
Q 1909 409 2131 539 
Q 2353 669 2445 892 
Q 2538 1116 2538 1541 
L 2538 3319 
L 3100 3319 
L 3100 0 
L 2597 0 
z
" id="ArialMT-75" transform="scale(0.015625)"/>
       <path d="M 409 0 
L 409 4581 
L 972 4581 
L 972 0 
L 409 0 
z
" id="ArialMT-6c" transform="scale(0.015625)"/>
      </defs>
      <use xlink:href="#ArialMT-72"/>
      <use x="33.300781" xlink:href="#ArialMT-65"/>
      <use x="88.916016" xlink:href="#ArialMT-67"/>
      <use x="144.53125" xlink:href="#ArialMT-75"/>
      <use x="200.146484" xlink:href="#ArialMT-6c"/>
      <use x="222.363281" xlink:href="#ArialMT-61"/>
      <use x="277.978516" xlink:href="#ArialMT-72"/>
     </g>
    </g>
    <g id="line2d_13">
     <path d="M 642.244062 101.0978 
L 664.244062 101.0978 
" style="fill:none;stroke:#dd8452;stroke-dasharray:6,2.25;stroke-dashoffset:0;stroke-width:1.5;"/>
    </g>
    <g id="line2d_14"/>
    <g id="text_18">
     <!-- splitted_3s -->
     <g style="fill:#262626;" transform="translate(673.044062 104.9478)scale(0.11 -0.11)">
      <defs>
       <path d="M 422 -1272 
L 422 3319 
L 934 3319 
L 934 2888 
Q 1116 3141 1344 3267 
Q 1572 3394 1897 3394 
Q 2322 3394 2647 3175 
Q 2972 2956 3137 2557 
Q 3303 2159 3303 1684 
Q 3303 1175 3120 767 
Q 2938 359 2589 142 
Q 2241 -75 1856 -75 
Q 1575 -75 1351 44 
Q 1128 163 984 344 
L 984 -1272 
L 422 -1272 
z
M 931 1641 
Q 931 1000 1190 694 
Q 1450 388 1819 388 
Q 2194 388 2461 705 
Q 2728 1022 2728 1688 
Q 2728 2322 2467 2637 
Q 2206 2953 1844 2953 
Q 1484 2953 1207 2617 
Q 931 2281 931 1641 
z
" id="ArialMT-70" transform="scale(0.015625)"/>
       <path d="M 2575 0 
L 2575 419 
Q 2259 -75 1647 -75 
Q 1250 -75 917 144 
Q 584 363 401 755 
Q 219 1147 219 1656 
Q 219 2153 384 2558 
Q 550 2963 881 3178 
Q 1213 3394 1622 3394 
Q 1922 3394 2156 3267 
Q 2391 3141 2538 2938 
L 2538 4581 
L 3097 4581 
L 3097 0 
L 2575 0 
z
M 797 1656 
Q 797 1019 1065 703 
Q 1334 388 1700 388 
Q 2069 388 2326 689 
Q 2584 991 2584 1609 
Q 2584 2291 2321 2609 
Q 2059 2928 1675 2928 
Q 1300 2928 1048 2622 
Q 797 2316 797 1656 
z
" id="ArialMT-64" transform="scale(0.015625)"/>
       <path d="M -97 -1272 
L -97 -866 
L 3631 -866 
L 3631 -1272 
L -97 -1272 
z
" id="ArialMT-5f" transform="scale(0.015625)"/>
       <path d="M 269 1209 
L 831 1284 
Q 928 806 1161 595 
Q 1394 384 1728 384 
Q 2125 384 2398 659 
Q 2672 934 2672 1341 
Q 2672 1728 2419 1979 
Q 2166 2231 1775 2231 
Q 1616 2231 1378 2169 
L 1441 2663 
Q 1497 2656 1531 2656 
Q 1891 2656 2178 2843 
Q 2466 3031 2466 3422 
Q 2466 3731 2256 3934 
Q 2047 4138 1716 4138 
Q 1388 4138 1169 3931 
Q 950 3725 888 3313 
L 325 3413 
Q 428 3978 793 4289 
Q 1159 4600 1703 4600 
Q 2078 4600 2393 4439 
Q 2709 4278 2876 4000 
Q 3044 3722 3044 3409 
Q 3044 3113 2884 2869 
Q 2725 2625 2413 2481 
Q 2819 2388 3044 2092 
Q 3269 1797 3269 1353 
Q 3269 753 2831 336 
Q 2394 -81 1725 -81 
Q 1122 -81 723 278 
Q 325 638 269 1209 
z
" id="ArialMT-33" transform="scale(0.015625)"/>
      </defs>
      <use xlink:href="#ArialMT-73"/>
      <use x="50" xlink:href="#ArialMT-70"/>
      <use x="105.615234" xlink:href="#ArialMT-6c"/>
      <use x="127.832031" xlink:href="#ArialMT-69"/>
      <use x="150.048828" xlink:href="#ArialMT-74"/>
      <use x="177.832031" xlink:href="#ArialMT-74"/>
      <use x="205.615234" xlink:href="#ArialMT-65"/>
      <use x="261.230469" xlink:href="#ArialMT-64"/>
      <use x="316.845703" xlink:href="#ArialMT-5f"/>
      <use x="372.460938" xlink:href="#ArialMT-33"/>
      <use x="428.076172" xlink:href="#ArialMT-73"/>
     </g>
    </g>
    <g id="line2d_15">
     <path d="M 642.244062 116.6903 
L 664.244062 116.6903 
" style="fill:none;stroke:#55a868;stroke-dasharray:1.5,1.5;stroke-dashoffset:0;stroke-width:1.5;"/>
    </g>
    <g id="line2d_16"/>
    <g id="text_19">
     <!-- splitted_1s -->
     <g style="fill:#262626;" transform="translate(673.044062 120.5403)scale(0.11 -0.11)">
      <use xlink:href="#ArialMT-73"/>
      <use x="50" xlink:href="#ArialMT-70"/>
      <use x="105.615234" xlink:href="#ArialMT-6c"/>
      <use x="127.832031" xlink:href="#ArialMT-69"/>
      <use x="150.048828" xlink:href="#ArialMT-74"/>
      <use x="177.832031" xlink:href="#ArialMT-74"/>
      <use x="205.615234" xlink:href="#ArialMT-65"/>
      <use x="261.230469" xlink:href="#ArialMT-64"/>
      <use x="316.845703" xlink:href="#ArialMT-5f"/>
      <use x="372.460938" xlink:href="#ArialMT-31"/>
      <use x="428.076172" xlink:href="#ArialMT-73"/>
     </g>
    </g>
    <g id="line2d_17">
     <path d="M 642.244062 132.384206 
L 664.244062 132.384206 
" style="fill:none;stroke:#c44e52;stroke-dasharray:4.5,1.875,2.25,1.875;stroke-dashoffset:0;stroke-width:1.5;"/>
    </g>
    <g id="line2d_18"/>
    <g id="text_20">
     <!-- overlap_1f_3s -->
     <g style="fill:#262626;" transform="translate(673.044062 136.234206)scale(0.11 -0.11)">
      <use xlink:href="#ArialMT-6f"/>
      <use x="55.615234" xlink:href="#ArialMT-76"/>
      <use x="105.615234" xlink:href="#ArialMT-65"/>
      <use x="161.230469" xlink:href="#ArialMT-72"/>
      <use x="194.53125" xlink:href="#ArialMT-6c"/>
      <use x="216.748047" xlink:href="#ArialMT-61"/>
      <use x="272.363281" xlink:href="#ArialMT-70"/>
      <use x="327.978516" xlink:href="#ArialMT-5f"/>
      <use x="383.59375" xlink:href="#ArialMT-31"/>
      <use x="439.208984" xlink:href="#ArialMT-66"/>
      <use x="466.992188" xlink:href="#ArialMT-5f"/>
      <use x="522.607422" xlink:href="#ArialMT-33"/>
      <use x="578.222656" xlink:href="#ArialMT-73"/>
     </g>
    </g>
    <g id="line2d_19">
     <path d="M 642.244062 148.078113 
L 664.244062 148.078113 
" style="fill:none;stroke:#8172b3;stroke-dasharray:7.5,1.5,1.5,1.5;stroke-dashoffset:0;stroke-width:1.5;"/>
    </g>
    <g id="line2d_20"/>
    <g id="text_21">
     <!-- overlap_10f_3s -->
     <g style="fill:#262626;" transform="translate(673.044062 151.928112)scale(0.11 -0.11)">
      <use xlink:href="#ArialMT-6f"/>
      <use x="55.615234" xlink:href="#ArialMT-76"/>
      <use x="105.615234" xlink:href="#ArialMT-65"/>
      <use x="161.230469" xlink:href="#ArialMT-72"/>
      <use x="194.53125" xlink:href="#ArialMT-6c"/>
      <use x="216.748047" xlink:href="#ArialMT-61"/>
      <use x="272.363281" xlink:href="#ArialMT-70"/>
      <use x="327.978516" xlink:href="#ArialMT-5f"/>
      <use x="383.59375" xlink:href="#ArialMT-31"/>
      <use x="439.208984" xlink:href="#ArialMT-30"/>
      <use x="494.824219" xlink:href="#ArialMT-66"/>
      <use x="522.607422" xlink:href="#ArialMT-5f"/>
      <use x="578.222656" xlink:href="#ArialMT-33"/>
      <use x="633.837891" xlink:href="#ArialMT-73"/>
     </g>
    </g>
   </g>
  </g>
 </g>
 <defs>
  <clipPath id="p7aa7def0e5">
   <rect height="458.4888" width="652.86" x="105.3" y="71.4528"/>
  </clipPath>
 </defs>
</svg>
