<?xml version="1.0" encoding="utf-8" standalone="no"?>
<!DOCTYPE svg PUBLIC "-//W3C//DTD SVG 1.1//EN"
  "http://www.w3.org/Graphics/SVG/1.1/DTD/svg11.dtd">
<svg height="595.44pt" version="1.1" viewBox="0 0 842.4 595.44" width="842.4pt" xmlns="http://www.w3.org/2000/svg" xmlns:xlink="http://www.w3.org/1999/xlink">
 <metadata>
  <rdf:RDF xmlns:cc="http://creativecommons.org/ns#" xmlns:dc="http://purl.org/dc/elements/1.1/" xmlns:rdf="http://www.w3.org/1999/02/22-rdf-syntax-ns#">
   <cc:Work>
    <dc:type rdf:resource="http://purl.org/dc/dcmitype/StillImage"/>
    <dc:date>2021-06-01T00:54:08.658172</dc:date>
    <dc:format>image/svg+xml</dc:format>
    <dc:creator>
     <cc:Agent>
      <dc:title>Matplotlib v3.4.1, https://matplotlib.org/</dc:title>
     </cc:Agent>
    </dc:creator>
   </cc:Work>
  </rdf:RDF>
 </metadata>
 <defs>
  <style type="text/css">*{stroke-linecap:butt;stroke-linejoin:round;}</style>
 </defs>
 <g id="figure_1">
  <g id="patch_1">
   <path d="M 0 595.44 
L 842.4 595.44 
L 842.4 0 
L 0 0 
z
" style="fill:#ffffff;"/>
  </g>
  <g id="axes_1">
   <g id="patch_2">
    <path d="M 105.3 529.9416 
L 758.16 529.9416 
L 758.16 71.4528 
L 105.3 71.4528 
z
" style="fill:#ffffff;"/>
   </g>
   <g id="matplotlib.axis_1">
    <g id="xtick_1">
     <g id="text_1">
      <!-- 0 -->
      <g style="fill:#262626;" transform="translate(131.916939 547.315194)scale(0.11 -0.11)">
       <defs>
        <path d="M 266 2259 
Q 266 3072 433 3567 
Q 600 4063 929 4331 
Q 1259 4600 1759 4600 
Q 2128 4600 2406 4451 
Q 2684 4303 2865 4023 
Q 3047 3744 3150 3342 
Q 3253 2941 3253 2259 
Q 3253 1453 3087 958 
Q 2922 463 2592 192 
Q 2263 -78 1759 -78 
Q 1097 -78 719 397 
Q 266 969 266 2259 
z
M 844 2259 
Q 844 1131 1108 757 
Q 1372 384 1759 384 
Q 2147 384 2411 759 
Q 2675 1134 2675 2259 
Q 2675 3391 2411 3762 
Q 2147 4134 1753 4134 
Q 1366 4134 1134 3806 
Q 844 3388 844 2259 
z
" id="ArialMT-30" transform="scale(0.015625)"/>
       </defs>
       <use xlink:href="#ArialMT-30"/>
      </g>
     </g>
    </g>
    <g id="xtick_2">
     <g id="text_2">
      <!-- 25 -->
      <g style="fill:#262626;" transform="translate(201.950676 547.315194)scale(0.11 -0.11)">
       <defs>
        <path d="M 3222 541 
L 3222 0 
L 194 0 
Q 188 203 259 391 
Q 375 700 629 1000 
Q 884 1300 1366 1694 
Q 2113 2306 2375 2664 
Q 2638 3022 2638 3341 
Q 2638 3675 2398 3904 
Q 2159 4134 1775 4134 
Q 1369 4134 1125 3890 
Q 881 3647 878 3216 
L 300 3275 
Q 359 3922 746 4261 
Q 1134 4600 1788 4600 
Q 2447 4600 2831 4234 
Q 3216 3869 3216 3328 
Q 3216 3053 3103 2787 
Q 2991 2522 2730 2228 
Q 2469 1934 1863 1422 
Q 1356 997 1212 845 
Q 1069 694 975 541 
L 3222 541 
z
" id="ArialMT-32" transform="scale(0.015625)"/>
        <path d="M 266 1200 
L 856 1250 
Q 922 819 1161 601 
Q 1400 384 1738 384 
Q 2144 384 2425 690 
Q 2706 997 2706 1503 
Q 2706 1984 2436 2262 
Q 2166 2541 1728 2541 
Q 1456 2541 1237 2417 
Q 1019 2294 894 2097 
L 366 2166 
L 809 4519 
L 3088 4519 
L 3088 3981 
L 1259 3981 
L 1013 2750 
Q 1425 3038 1878 3038 
Q 2478 3038 2890 2622 
Q 3303 2206 3303 1553 
Q 3303 931 2941 478 
Q 2500 -78 1738 -78 
Q 1113 -78 717 272 
Q 322 622 266 1200 
z
" id="ArialMT-35" transform="scale(0.015625)"/>
       </defs>
       <use xlink:href="#ArialMT-32"/>
       <use x="55.615234" xlink:href="#ArialMT-35"/>
      </g>
     </g>
    </g>
    <g id="xtick_3">
     <g id="text_3">
      <!-- 50 -->
      <g style="fill:#262626;" transform="translate(275.042928 547.315194)scale(0.11 -0.11)">
       <use xlink:href="#ArialMT-35"/>
       <use x="55.615234" xlink:href="#ArialMT-30"/>
      </g>
     </g>
    </g>
    <g id="xtick_4">
     <g id="text_4">
      <!-- 75 -->
      <g style="fill:#262626;" transform="translate(348.135181 547.315194)scale(0.11 -0.11)">
       <defs>
        <path d="M 303 3981 
L 303 4522 
L 3269 4522 
L 3269 4084 
Q 2831 3619 2401 2847 
Q 1972 2075 1738 1259 
Q 1569 684 1522 0 
L 944 0 
Q 953 541 1156 1306 
Q 1359 2072 1739 2783 
Q 2119 3494 2547 3981 
L 303 3981 
z
" id="ArialMT-37" transform="scale(0.015625)"/>
       </defs>
       <use xlink:href="#ArialMT-37"/>
       <use x="55.615234" xlink:href="#ArialMT-35"/>
      </g>
     </g>
    </g>
    <g id="xtick_5">
     <g id="text_5">
      <!-- 100 -->
      <g style="fill:#262626;" transform="translate(418.168918 547.315194)scale(0.11 -0.11)">
       <defs>
        <path d="M 2384 0 
L 1822 0 
L 1822 3584 
Q 1619 3391 1289 3197 
Q 959 3003 697 2906 
L 697 3450 
Q 1169 3672 1522 3987 
Q 1875 4303 2022 4600 
L 2384 4600 
L 2384 0 
z
" id="ArialMT-31" transform="scale(0.015625)"/>
       </defs>
       <use xlink:href="#ArialMT-31"/>
       <use x="55.615234" xlink:href="#ArialMT-30"/>
       <use x="111.230469" xlink:href="#ArialMT-30"/>
      </g>
     </g>
    </g>
    <g id="xtick_6">
     <g id="text_6">
      <!-- 125 -->
      <g style="fill:#262626;" transform="translate(491.261171 547.315194)scale(0.11 -0.11)">
       <use xlink:href="#ArialMT-31"/>
       <use x="55.615234" xlink:href="#ArialMT-32"/>
       <use x="111.230469" xlink:href="#ArialMT-35"/>
      </g>
     </g>
    </g>
    <g id="xtick_7">
     <g id="text_7">
      <!-- 150 -->
      <g style="fill:#262626;" transform="translate(564.353423 547.315194)scale(0.11 -0.11)">
       <use xlink:href="#ArialMT-31"/>
       <use x="55.615234" xlink:href="#ArialMT-35"/>
       <use x="111.230469" xlink:href="#ArialMT-30"/>
      </g>
     </g>
    </g>
    <g id="xtick_8">
     <g id="text_8">
      <!-- 175 -->
      <g style="fill:#262626;" transform="translate(637.445676 547.315194)scale(0.11 -0.11)">
       <use xlink:href="#ArialMT-31"/>
       <use x="55.615234" xlink:href="#ArialMT-37"/>
       <use x="111.230469" xlink:href="#ArialMT-35"/>
      </g>
     </g>
    </g>
    <g id="xtick_9">
     <g id="text_9">
      <!-- 200 -->
      <g style="fill:#262626;" transform="translate(710.537928 547.315194)scale(0.11 -0.11)">
       <use xlink:href="#ArialMT-32"/>
       <use x="55.615234" xlink:href="#ArialMT-30"/>
       <use x="111.230469" xlink:href="#ArialMT-30"/>
      </g>
     </g>
    </g>
   </g>
   <g id="matplotlib.axis_2">
    <g id="ytick_1">
     <g id="text_10">
      <!-- −25 -->
      <g style="fill:#262626;" transform="translate(77.14125 533.878397)scale(0.11 -0.11)">
       <defs>
        <path d="M 3381 1997 
L 356 1997 
L 356 2522 
L 3381 2522 
L 3381 1997 
z
" id="ArialMT-2212" transform="scale(0.015625)"/>
       </defs>
       <use xlink:href="#ArialMT-2212"/>
       <use x="58.398438" xlink:href="#ArialMT-32"/>
       <use x="114.013672" xlink:href="#ArialMT-35"/>
      </g>
     </g>
    </g>
    <g id="ytick_2">
     <g id="text_11">
      <!-- −20 -->
      <g style="fill:#262626;" transform="translate(77.14125 442.180637)scale(0.11 -0.11)">
       <use xlink:href="#ArialMT-2212"/>
       <use x="58.398438" xlink:href="#ArialMT-32"/>
       <use x="114.013672" xlink:href="#ArialMT-30"/>
      </g>
     </g>
    </g>
    <g id="ytick_3">
     <g id="text_12">
      <!-- −15 -->
      <g style="fill:#262626;" transform="translate(77.14125 350.482877)scale(0.11 -0.11)">
       <use xlink:href="#ArialMT-2212"/>
       <use x="58.398438" xlink:href="#ArialMT-31"/>
       <use x="114.013672" xlink:href="#ArialMT-35"/>
      </g>
     </g>
    </g>
    <g id="ytick_4">
     <g id="text_13">
      <!-- −10 -->
      <g style="fill:#262626;" transform="translate(77.14125 258.785117)scale(0.11 -0.11)">
       <use xlink:href="#ArialMT-2212"/>
       <use x="58.398438" xlink:href="#ArialMT-31"/>
       <use x="114.013672" xlink:href="#ArialMT-30"/>
      </g>
     </g>
    </g>
    <g id="ytick_5">
     <g id="text_14">
      <!-- −5 -->
      <g style="fill:#262626;" transform="translate(83.258281 167.087357)scale(0.11 -0.11)">
       <use xlink:href="#ArialMT-2212"/>
       <use x="58.398438" xlink:href="#ArialMT-35"/>
      </g>
     </g>
    </g>
    <g id="ytick_6">
     <g id="text_15">
      <!-- 0 -->
      <g style="fill:#262626;" transform="translate(89.682969 75.389597)scale(0.11 -0.11)">
       <use xlink:href="#ArialMT-30"/>
      </g>
     </g>
    </g>
   </g>
   <g id="line2d_1">
    <path clip-path="url(#pc2ef61f7ca)" d="M 134.975455 391.642787 
L 137.899145 391.71551 
L 140.822835 394.653543 
L 143.746525 393.65777 
L 146.670215 395.17296 
L 149.593905 395.845379 
L 152.517595 397.145863 
L 155.441285 400.857057 
L 158.364975 403.642438 
L 161.288665 405.572735 
L 164.212356 408.986286 
L 167.136046 413.567396 
L 170.059736 438.564676 
L 172.983426 448.353212 
L 175.907116 462.486463 
L 178.830806 497.896706 
L 181.754496 539.908358 
L 184.678186 452.925822 
L 187.601876 403.237196 
L 190.525567 520.252722 
L 193.449257 494.766772 
L 196.372947 472.940282 
L 199.296637 539.950229 
L 202.220327 413.927374 
L 205.144017 402.944624 
L 208.067707 540.312412 
L 210.991397 469.872438 
L 213.915087 478.516676 
L 219.762468 488.96196 
L 222.686158 473.655097 
L 225.609848 461.547497 
L 228.533538 465.879585 
L 231.457228 500.725497 
L 234.380918 384.957914 
L 237.304608 443.695635 
L 240.228298 481.813603 
L 243.151988 458.45027 
L 246.075678 271.830109 
L 248.999369 272.623069 
L 251.923059 396.509508 
L 254.846749 399.063847 
L 257.770439 408.962884 
L 260.694129 362.005141 
L 263.617819 480.28708 
L 266.541509 409.904089 
L 269.465199 439.825982 
L 272.388889 515.823215 
L 275.312579 551.157516 
L 278.23627 558.489902 
L 281.15996 531.765978 
L 284.08365 484.488903 
L 287.00734 464.432711 
L 289.93103 492.615822 
L 292.85472 427.157934 
L 295.77841 432.405167 
L 298.7021 480.522599 
L 301.62579 444.633972 
L 304.549481 431.976698 
L 307.473171 409.941307 
L 310.396861 447.355235 
L 313.320551 396.507374 
L 316.244241 439.293797 
L 319.167931 375.225171 
L 322.091621 463.094764 
L 325.015311 426.590035 
L 327.939001 485.476176 
L 330.862691 501.593279 
L 333.786382 464.635525 
L 336.710072 471.427506 
L 339.633762 494.259634 
L 342.557452 479.8067 
L 345.481142 403.964848 
L 348.404832 316.416739 
L 351.328522 275.259645 
L 354.252212 410.116207 
L 357.175902 464.56504 
L 360.099592 470.91491 
L 363.023283 540.483393 
L 365.946973 436.679608 
L 368.870663 422.631952 
L 371.794353 481.884333 
L 374.718043 559.421242 
L 377.641733 553.500086 
L 380.565423 523.421028 
L 383.489113 487.518513 
L 386.412803 409.292115 
L 389.336494 383.644628 
L 392.260184 362.439136 
L 395.183874 403.348572 
L 398.107564 346.711832 
L 401.031254 351.958051 
L 403.954944 349.726035 
L 406.878634 358.612036 
L 409.802324 310.436344 
L 412.726014 311.339386 
L 415.649704 383.360766 
L 418.573395 342.350239 
L 421.497085 409.874391 
L 424.420775 492.045964 
L 427.344465 421.177732 
L 430.268155 462.629881 
L 433.191845 462.493214 
L 436.115535 373.271998 
L 439.039225 394.155185 
L 441.962915 448.510376 
L 444.886605 455.535499 
L 447.810296 428.803284 
L 450.733986 381.851628 
L 453.657676 475.133838 
L 456.581366 451.731747 
L 459.505056 496.161002 
L 462.428746 448.396097 
L 465.352436 457.472442 
L 468.276126 455.890999 
L 471.199816 437.717567 
L 474.123506 443.417685 
L 477.047197 422.199565 
L 479.970887 358.48742 
L 482.894577 436.404946 
L 485.818267 417.769988 
L 488.741957 450.142959 
L 491.665647 408.179789 
L 494.589337 350.696447 
L 497.513027 413.110733 
L 500.436717 359.326011 
L 503.360408 316.842252 
L 509.207788 560.024681 
L 512.131478 587.763897 
L 515.055168 565.322879 
L 517.978858 447.94636 
L 520.902548 492.082204 
L 523.826238 489.66628 
L 526.749928 443.239287 
L 529.673618 483.494004 
L 532.597309 493.075913 
L 535.520999 466.427966 
L 538.444689 459.345092 
L 541.368379 484.182828 
L 544.292069 488.555038 
L 547.215759 452.572245 
L 550.139449 510.313808 
L 553.063139 427.385478 
L 555.986829 556.867498 
L 558.910519 538.384948 
L 561.83421 533.454249 
L 564.7579 491.334823 
L 567.68159 418.525135 
L 570.60528 399.901266 
L 573.52897 419.097476 
L 576.45266 452.967623 
L 579.37635 509.097975 
L 582.30004 509.714671 
L 585.22373 450.025602 
L 588.147421 402.554178 
L 591.071111 392.600047 
L 593.994801 424.271076 
L 596.918491 358.080988 
L 599.842181 404.434629 
L 602.765871 485.180735 
L 605.689561 425.248695 
L 608.613251 409.281516 
L 611.536941 472.118849 
L 614.460631 478.46599 
L 617.384322 366.058963 
L 620.308012 410.510256 
L 626.155392 536.258064 
L 629.079082 522.440366 
L 632.002772 449.138231 
L 634.926462 483.348907 
L 637.850152 521.200468 
L 640.773842 395.022582 
L 643.697532 351.227005 
L 646.621223 352.203802 
L 649.544913 349.654186 
L 652.468603 444.324924 
L 655.392293 386.852602 
L 658.315983 361.599968 
L 661.239673 403.111128 
L 664.163363 304.677268 
L 670.010743 420.856686 
L 672.934433 425.62249 
L 675.858124 459.10429 
L 678.781814 439.952329 
L 681.705504 497.674653 
L 684.629194 528.178332 
L 687.552884 479.875681 
L 690.476574 560.255898 
L 693.400264 468.217608 
L 696.323954 461.134979 
L 699.247644 414.93546 
L 702.171335 383.779756 
L 705.095025 387.749417 
L 708.018715 387.215798 
L 710.942405 391.124314 
L 713.866095 388.941952 
L 716.789785 389.664462 
L 719.713475 386.721427 
L 722.637165 388.620137 
L 725.560855 389.324038 
L 728.484545 394.072947 
L 728.484545 394.072947 
" style="fill:none;stroke:#4c72b0;stroke-linecap:round;stroke-width:1.5;"/>
   </g>
   <g id="line2d_2">
    <path clip-path="url(#pc2ef61f7ca)" d="M 134.975455 378.033045 
L 137.899145 379.257797 
L 140.822835 379.520741 
L 143.746525 380.490139 
L 146.670215 381.691384 
L 149.593905 381.740566 
L 152.517595 380.02669 
L 155.441285 380.638104 
L 158.364975 381.756132 
L 161.288665 383.210842 
L 164.212356 385.685252 
L 167.136046 388.000153 
L 170.059736 410.916862 
L 172.983426 415.829722 
L 175.907116 435.859749 
L 178.830806 477.76027 
L 181.754496 512.142278 
L 184.678186 435.703668 
L 187.601876 367.219107 
L 190.525567 505.204291 
L 193.449257 482.731686 
L 196.372947 467.042703 
L 199.296637 521.97244 
L 202.220327 428.770123 
L 205.144017 421.049496 
L 208.067707 542.493444 
L 210.991397 485.934623 
L 213.915087 449.423422 
L 216.838777 480.078949 
L 219.762468 469.665532 
L 222.686158 464.778802 
L 225.609848 440.824379 
L 228.533538 451.729578 
L 231.457228 482.783527 
L 234.380918 384.239217 
L 237.304608 406.456188 
L 240.228298 462.049354 
L 243.151988 441.023414 
L 246.075678 276.750105 
L 248.999369 297.240747 
L 251.923059 392.572203 
L 254.846749 390.440667 
L 257.770439 404.630691 
L 260.694129 367.829752 
L 263.617819 479.648171 
L 266.541509 416.637653 
L 269.465199 434.48161 
L 272.388889 535.802031 
L 275.312579 578.227461 
L 278.23627 578.48187 
L 281.15996 563.94579 
L 284.08365 504.270117 
L 287.00734 475.711461 
L 289.93103 514.204134 
L 292.85472 442.019153 
L 295.77841 405.689988 
L 298.7021 465.535663 
L 301.62579 439.106375 
L 307.473171 418.369964 
L 310.396861 422.596797 
L 313.320551 417.415012 
L 316.244241 460.646764 
L 319.167931 413.170619 
L 322.091621 447.238786 
L 325.015311 423.666448 
L 327.939001 503.730132 
L 330.862691 493.823294 
L 333.786382 446.390313 
L 336.710072 487.790657 
L 339.633762 503.030569 
L 342.557452 471.069661 
L 345.481142 382.970565 
L 348.404832 311.965929 
L 351.328522 380.839344 
L 354.252212 385.497619 
L 357.175902 355.941354 
L 360.099592 325.248434 
L 363.023283 344.902653 
L 365.946973 340.408538 
L 368.870663 287.957531 
L 371.794353 330.464272 
L 374.718043 393.387795 
L 377.641733 415.412307 
L 380.565423 451.676234 
L 383.489113 412.060461 
L 386.412803 419.629836 
L 389.336494 390.563831 
L 392.260184 349.53438 
L 395.183874 377.315327 
L 398.107564 304.150488 
L 401.031254 313.845522 
L 403.954944 356.832747 
L 406.878634 317.867811 
L 409.802324 300.632732 
L 412.726014 314.900219 
L 415.649704 371.238895 
L 418.573395 318.222507 
L 421.497085 386.327868 
L 424.420775 438.548585 
L 427.344465 355.226749 
L 430.268155 403.62124 
L 433.191845 402.848044 
L 436.115535 335.111249 
L 439.039225 401.872209 
L 441.962915 448.270344 
L 444.886605 405.071648 
L 447.810296 400.517927 
L 450.733986 399.17092 
L 453.657676 456.581468 
L 456.581366 443.271609 
L 459.505056 478.820232 
L 462.428746 421.308662 
L 465.352436 452.41466 
L 468.276126 435.759076 
L 471.199816 456.673675 
L 474.123506 425.940073 
L 477.047197 430.582433 
L 479.970887 340.994977 
L 482.894577 416.127226 
L 485.818267 405.497528 
L 488.741957 441.196845 
L 491.665647 407.099539 
L 494.589337 332.460803 
L 497.513027 402.257828 
L 500.436717 355.816598 
L 503.360408 315.841879 
L 506.284098 446.7795 
L 509.207788 553.620522 
L 512.131478 565.023346 
L 515.055168 555.641102 
L 517.978858 436.703429 
L 520.902548 482.241828 
L 523.826238 482.600756 
L 526.749928 454.110557 
L 529.673618 496.747091 
L 532.597309 482.774362 
L 535.520999 448.185833 
L 538.444689 438.125013 
L 541.368379 433.072689 
L 544.292069 475.090778 
L 547.215759 402.84689 
L 550.139449 461.21176 
L 553.063139 398.786421 
L 555.986829 400.689014 
L 558.910519 380.930641 
L 561.83421 353.194818 
L 564.7579 336.164547 
L 567.68159 260.572294 
L 570.60528 280.07143 
L 573.52897 295.755639 
L 576.45266 356.479328 
L 579.37635 397.760565 
L 582.30004 334.559528 
L 585.22373 383.142142 
L 588.147421 357.740581 
L 591.071111 387.435297 
L 593.994801 432.618159 
L 596.918491 357.058053 
L 599.842181 414.802152 
L 602.765871 445.320348 
L 605.689561 437.744082 
L 608.613251 441.592328 
L 611.536941 466.600277 
L 614.460631 499.392342 
L 617.384322 451.341336 
L 620.308012 442.926357 
L 623.231702 485.246882 
L 626.155392 564.514808 
L 629.079082 518.586349 
L 632.002772 482.427816 
L 634.926462 498.83777 
L 637.850152 496.631412 
L 640.773842 413.101183 
L 643.697532 333.676985 
L 646.621223 365.986135 
L 649.544913 377.188245 
L 652.468603 444.200326 
L 655.392293 412.271809 
L 658.315983 333.602915 
L 661.239673 388.124891 
L 664.163363 285.537777 
L 667.087053 378.037592 
L 670.010743 442.915548 
L 672.934433 426.400409 
L 675.858124 463.238322 
L 678.781814 455.514511 
L 681.705504 495.358843 
L 684.629194 526.881836 
L 687.552884 468.974958 
L 690.476574 543.882392 
L 693.400264 486.773021 
L 696.323954 469.087594 
L 699.247644 422.141674 
L 702.171335 389.675166 
L 705.095025 396.351189 
L 708.018715 394.339634 
L 710.942405 398.865545 
L 713.866095 395.022547 
L 716.789785 398.507281 
L 719.713475 394.809274 
L 722.637165 395.124933 
L 725.560855 397.658458 
L 728.484545 399.542267 
L 728.484545 399.542267 
" style="fill:none;stroke:#dd8452;stroke-dasharray:6,2.25;stroke-dashoffset:0;stroke-width:1.5;"/>
   </g>
   <g id="line2d_3">
    <path clip-path="url(#pc2ef61f7ca)" d="M 134.975455 370.375066 
L 137.899145 370.15847 
L 140.822835 369.715274 
L 143.746525 369.730316 
L 146.670215 374.674063 
L 149.593905 370.586309 
L 152.517595 372.513283 
L 155.441285 377.502084 
L 158.364975 377.722178 
L 161.288665 380.201275 
L 164.212356 380.498324 
L 167.136046 380.924835 
L 170.059736 397.698056 
L 172.983426 415.587171 
L 175.907116 432.085415 
L 178.830806 461.423424 
L 181.754496 483.44797 
L 184.678186 389.009603 
L 187.601876 354.493553 
L 190.525567 436.108981 
L 193.449257 470.886751 
L 196.372947 463.237167 
L 199.296637 446.199428 
L 202.220327 370.763938 
L 205.144017 351.237587 
L 208.067707 323.856163 
L 210.991397 409.568631 
L 213.915087 438.319152 
L 216.838777 416.79961 
L 219.762468 439.952049 
L 222.686158 441.18824 
L 225.609848 371.603386 
L 228.533538 407.196923 
L 231.457228 428.889545 
L 234.380918 363.274142 
L 237.304608 393.618872 
L 240.228298 470.605757 
L 243.151988 462.834269 
L 246.075678 252.08753 
L 248.999369 286.212785 
L 251.923059 333.716582 
L 254.846749 420.512554 
L 257.770439 406.467522 
L 260.694129 387.821685 
L 263.617819 486.599241 
L 266.541509 441.740468 
L 269.465199 483.815399 
L 272.388889 501.284616 
L 275.312579 478.236557 
L 278.23627 429.410571 
L 281.15996 441.136365 
L 284.08365 419.171599 
L 287.00734 379.718867 
L 289.93103 395.415301 
L 292.85472 369.707089 
L 295.77841 415.796036 
L 298.7021 489.429851 
L 301.62579 497.628095 
L 304.549481 473.023989 
L 307.473171 457.925257 
L 310.396861 465.426106 
L 313.320551 463.479578 
L 316.244241 488.648295 
L 319.167931 444.967855 
L 322.091621 481.118063 
L 325.015311 449.214522 
L 327.939001 524.375735 
L 330.862691 539.099483 
L 333.786382 488.017817 
L 336.710072 501.669605 
L 339.633762 525.593806 
L 342.557452 507.176773 
L 345.481142 417.228009 
L 348.404832 307.068827 
L 351.328522 411.570497 
L 354.252212 409.899436 
L 357.175902 456.566812 
L 360.099592 402.353323 
L 363.023283 486.501087 
L 365.946973 357.416929 
L 368.870663 374.125962 
L 371.794353 328.928129 
L 374.718043 452.965734 
L 377.641733 450.956907 
L 380.565423 426.495274 
L 383.489113 457.866455 
L 386.412803 447.350337 
L 389.336494 418.881335 
L 392.260184 382.393327 
L 395.183874 409.159401 
L 398.107564 347.277265 
L 401.031254 356.160696 
L 403.954944 362.09684 
L 406.878634 346.265786 
L 409.802324 355.284589 
L 412.726014 312.078774 
L 415.649704 273.726091 
L 418.573395 242.041227 
L 421.497085 200.665343 
L 424.420775 164.37421 
L 427.344465 275.246265 
L 430.268155 263.345625 
L 433.191845 260.410652 
L 436.115535 268.98869 
L 439.039225 341.349743 
L 441.962915 381.63003 
L 444.886605 357.480331 
L 447.810296 468.201657 
L 450.733986 405.883182 
L 453.657676 443.305329 
L 456.581366 477.680761 
L 459.505056 546.639125 
L 462.428746 456.354763 
L 465.352436 448.186672 
L 468.276126 446.521873 
L 471.199816 409.586996 
L 474.123506 409.556983 
L 477.047197 369.61943 
L 479.970887 363.257981 
L 482.894577 389.327991 
L 485.818267 386.268472 
L 488.741957 411.676906 
L 491.665647 394.562526 
L 494.589337 310.719839 
L 497.513027 377.220811 
L 500.436717 311.830714 
L 503.360408 359.070553 
L 506.284098 485.692911 
L 509.207788 457.193687 
L 512.131478 438.635895 
L 515.055168 444.581292 
L 517.978858 415.270253 
L 520.902548 466.113636 
L 523.826238 493.911269 
L 526.749928 499.611037 
L 529.673618 501.711931 
L 532.597309 493.854006 
L 535.520999 520.939518 
L 538.444689 468.506193 
L 541.368379 442.796581 
L 544.292069 444.562088 
L 547.215759 326.250818 
L 550.139449 376.066019 
L 553.063139 390.407506 
L 555.986829 373.535886 
L 558.910519 379.131274 
L 561.83421 332.807017 
L 564.7579 302.605599 
L 567.68159 254.50368 
L 570.60528 233.938828 
L 573.52897 395.013417 
L 576.45266 391.961419 
L 579.37635 460.494707 
L 582.30004 462.284 
L 585.22373 444.437175 
L 588.147421 393.376217 
L 591.071111 436.550777 
L 593.994801 433.023682 
L 596.918491 361.478903 
L 599.842181 462.917346 
L 602.765871 524.4196 
L 605.689561 417.347221 
L 608.613251 426.097203 
L 611.536941 460.086071 
L 614.460631 482.49865 
L 617.384322 424.471546 
L 620.308012 411.066926 
L 623.231702 493.527504 
L 626.155392 560.142143 
L 629.079082 475.292192 
L 632.002772 451.942116 
L 634.926462 497.461206 
L 637.850152 396.034446 
L 640.773842 347.847368 
L 643.697532 343.150159 
L 646.621223 410.030751 
L 649.544913 351.606153 
L 652.468603 409.103503 
L 655.392293 399.455657 
L 658.315983 326.518957 
L 661.239673 365.113316 
L 664.163363 278.700462 
L 667.087053 376.748652 
L 670.010743 437.835764 
L 672.934433 396.496391 
L 675.858124 469.369462 
L 678.781814 467.31719 
L 681.705504 502.171986 
L 684.629194 534.640033 
L 687.552884 480.381211 
L 690.476574 528.831023 
L 693.400264 478.414115 
L 696.323954 464.21601 
L 699.247644 412.084247 
L 702.171335 387.157697 
L 705.095025 394.585473 
L 708.018715 396.009085 
L 710.942405 402.159605 
L 713.866095 395.568583 
L 716.789785 402.903942 
L 719.713475 397.634917 
L 722.637165 399.33641 
L 725.560855 405.405916 
L 728.484545 406.161412 
L 728.484545 406.161412 
" style="fill:none;stroke:#55a868;stroke-dasharray:1.5,1.5;stroke-dashoffset:0;stroke-width:1.5;"/>
   </g>
   <g id="line2d_4">
    <path clip-path="url(#pc2ef61f7ca)" d="M 134.975455 378.26678 
L 137.899145 379.467956 
L 143.746525 380.617116 
L 146.670215 382.061157 
L 149.593905 382.155043 
L 152.517595 380.59228 
L 155.441285 381.277222 
L 158.364975 382.536779 
L 161.288665 384.042175 
L 167.136046 388.807454 
L 170.059736 411.837289 
L 172.983426 416.653849 
L 175.907116 436.6844 
L 178.830806 478.56264 
L 181.754496 513.330091 
L 184.678186 436.698847 
L 187.601876 367.706937 
L 190.525567 506.482002 
L 193.449257 484.871303 
L 196.372947 467.063131 
L 199.296637 523.672534 
L 202.220327 429.695447 
L 205.144017 419.730228 
L 208.067707 547.837991 
L 210.991397 479.30285 
L 213.915087 460.126893 
L 216.838777 475.179347 
L 219.762468 471.103836 
L 222.686158 465.584775 
L 225.609848 440.134715 
L 228.533538 452.236717 
L 231.457228 484.742402 
L 234.380918 384.078344 
L 237.304608 411.96556 
L 240.228298 466.963053 
L 243.151988 443.929301 
L 246.075678 277.59863 
L 248.999369 297.550476 
L 251.923059 393.647906 
L 254.846749 392.079861 
L 257.770439 404.272182 
L 260.694129 371.381683 
L 263.617819 482.711608 
L 266.541509 412.704266 
L 269.465199 438.868861 
L 272.388889 538.572895 
L 275.312579 585.22383 
L 278.23627 586.803803 
L 281.15996 565.036918 
L 284.08365 508.320442 
L 287.00734 489.521464 
L 289.93103 519.547387 
L 292.85472 439.229574 
L 295.77841 411.844775 
L 298.7021 469.584204 
L 301.62579 443.676921 
L 304.549481 433.775645 
L 307.473171 420.17944 
L 310.396861 426.824785 
L 313.320551 416.90518 
L 316.244241 465.659107 
L 319.167931 418.364332 
L 322.091621 484.133891 
L 325.015311 430.172853 
L 327.939001 502.143548 
L 330.862691 520.614904 
L 333.786382 455.187903 
L 336.710072 503.050857 
L 339.633762 526.408383 
L 342.557452 493.521592 
L 345.481142 425.392043 
L 348.404832 341.693596 
L 351.328522 366.365772 
L 354.252212 420.890722 
L 357.175902 340.596818 
L 360.099592 365.83803 
L 363.023283 510.201802 
L 365.946973 356.230795 
L 368.870663 313.278428 
L 371.794353 375.311992 
L 374.718043 440.999558 
L 377.641733 431.99961 
L 380.565423 469.133173 
L 383.489113 418.91663 
L 386.412803 427.859421 
L 389.336494 392.243882 
L 392.260184 349.5458 
L 395.183874 382.672361 
L 398.107564 305.284921 
L 401.031254 315.28547 
L 403.954944 354.471061 
L 406.878634 322.759455 
L 409.802324 306.125279 
L 412.726014 316.502544 
L 415.649704 374.125613 
L 418.573395 316.174118 
L 421.497085 392.463276 
L 424.420775 446.412456 
L 427.344465 356.232702 
L 430.268155 402.002894 
L 433.191845 400.111075 
L 436.115535 334.150124 
L 439.039225 402.274164 
L 441.962915 449.582721 
L 444.886605 406.108663 
L 447.810296 401.425236 
L 450.733986 399.053877 
L 453.657676 466.108144 
L 456.581366 447.037442 
L 459.505056 478.728654 
L 462.428746 422.964296 
L 465.352436 461.085343 
L 468.276126 436.27545 
L 471.199816 457.003116 
L 474.123506 432.755141 
L 477.047197 438.1488 
L 479.970887 340.739011 
L 482.894577 416.127331 
L 485.818267 405.316157 
L 488.741957 443.210429 
L 491.665647 407.900054 
L 494.589337 334.180783 
L 497.513027 403.586855 
L 500.436717 354.390152 
L 503.360408 314.218163 
L 506.284098 446.125026 
L 509.207788 552.430505 
L 512.131478 565.075081 
L 515.055168 555.808866 
L 517.978858 436.148123 
L 520.902548 481.522955 
L 523.826238 480.468346 
L 526.749928 453.193488 
L 529.673618 497.033191 
L 532.597309 482.575081 
L 535.520999 447.678414 
L 538.444689 440.831969 
L 541.368379 435.773908 
L 544.292069 476.623038 
L 547.215759 404.946735 
L 550.139449 463.594662 
L 553.063139 398.890451 
L 555.986829 402.986215 
L 558.910519 380.806567 
L 561.83421 355.144249 
L 564.7579 338.14616 
L 567.68159 262.116623 
L 570.60528 274.313981 
L 573.52897 287.875608 
L 576.45266 335.336712 
L 579.37635 402.924825 
L 582.30004 375.74172 
L 585.22373 450.120957 
L 588.147421 355.921346 
L 591.071111 362.850448 
L 593.994801 445.619776 
L 596.918491 381.778904 
L 599.842181 405.658261 
L 602.765871 468.712539 
L 605.689561 433.841652 
L 608.613251 432.474882 
L 611.536941 464.713635 
L 614.460631 512.607826 
L 617.384322 448.243829 
L 620.308012 436.971131 
L 623.231702 488.643712 
L 626.155392 557.817238 
L 629.079082 519.87277 
L 632.002772 480.239857 
L 634.926462 500.510615 
L 637.850152 498.806918 
L 643.697532 334.611719 
L 646.621223 368.664828 
L 649.544913 374.092802 
L 652.468603 444.776865 
L 655.392293 413.342055 
L 658.315983 334.103268 
L 661.239673 389.108422 
L 664.163363 286.267231 
L 667.087053 376.676943 
L 670.010743 444.268432 
L 672.934433 427.458411 
L 675.858124 462.756158 
L 678.781814 454.82733 
L 681.705504 492.457853 
L 684.629194 525.380114 
L 687.552884 467.429091 
L 690.476574 542.448145 
L 693.400264 486.642476 
L 696.323954 468.702745 
L 699.247644 422.835395 
L 702.171335 387.769565 
L 705.095025 393.848935 
L 708.018715 392.357042 
L 710.942405 397.815343 
L 713.866095 394.56417 
L 716.789785 398.381808 
L 719.713475 394.714094 
L 722.637165 395.738131 
L 725.560855 397.876593 
L 728.484545 400.552172 
L 728.484545 400.552172 
" style="fill:none;stroke:#c44e52;stroke-dasharray:4.5,1.875,2.25,1.875;stroke-dashoffset:0;stroke-width:1.5;"/>
   </g>
   <g id="line2d_5">
    <path clip-path="url(#pc2ef61f7ca)" d="M 134.975455 380.901818 
L 137.899145 382.238261 
L 140.822835 382.868179 
L 143.746525 384.028743 
L 146.670215 384.506359 
L 149.593905 385.489819 
L 152.517595 384.378472 
L 155.441285 384.59157 
L 158.364975 385.917868 
L 161.288665 387.978151 
L 164.212356 389.574424 
L 167.136046 391.580278 
L 170.059736 413.324705 
L 172.983426 418.115975 
L 175.907116 436.351251 
L 181.754496 521.138134 
L 184.678186 439.483179 
L 187.601876 386.066008 
L 190.525567 510.437811 
L 193.449257 491.189621 
L 196.372947 476.545488 
L 199.296637 540.870761 
L 202.220327 434.107814 
L 205.144017 420.892436 
L 208.067707 550.229813 
L 210.991397 483.921423 
L 213.915087 452.141922 
L 216.838777 477.588204 
L 219.762468 467.553584 
L 222.686158 464.923199 
L 225.609848 451.008502 
L 228.533538 457.035298 
L 231.457228 486.760044 
L 234.380918 384.382285 
L 237.304608 411.448032 
L 240.228298 466.990443 
L 243.151988 445.49084 
L 246.075678 277.265534 
L 248.999369 289.19206 
L 251.923059 399.704469 
L 254.846749 396.769059 
L 257.770439 409.561985 
L 260.694129 369.91529 
L 263.617819 478.436362 
L 266.541509 413.780598 
L 269.465199 439.096895 
L 272.388889 533.611553 
L 275.312579 579.878513 
L 278.23627 586.756825 
L 281.15996 572.96907 
L 284.08365 513.124164 
L 287.00734 484.797775 
L 289.93103 517.291182 
L 292.85472 439.6458 
L 295.77841 413.354683 
L 298.7021 469.494026 
L 301.62579 443.742264 
L 304.549481 434.421444 
L 307.473171 418.618951 
L 310.396861 442.735751 
L 313.320551 426.703195 
L 316.244241 465.831663 
L 319.167931 409.423605 
L 322.091621 485.700887 
L 325.015311 438.519027 
L 327.939001 498.361904 
L 330.862691 519.841358 
L 333.786382 474.113334 
L 336.710072 481.804404 
L 339.633762 510.394961 
L 342.557452 484.027622 
L 345.481142 403.578215 
L 348.404832 297.175037 
L 351.328522 272.583839 
L 354.252212 410.012352 
L 357.175902 481.945233 
L 360.099592 484.708472 
L 363.023283 566.518773 
L 365.946973 435.328089 
L 368.870663 411.190755 
L 371.794353 426.392888 
L 374.718043 499.404725 
L 377.641733 516.864322 
L 380.565423 513.390781 
L 383.489113 478.359231 
L 386.412803 421.507068 
L 389.336494 392.203725 
L 392.260184 368.830283 
L 395.183874 411.691108 
L 398.107564 312.058415 
L 401.031254 345.73535 
L 403.954944 356.676265 
L 406.878634 344.863109 
L 409.802324 323.214631 
L 412.726014 325.285442 
L 415.649704 394.492146 
L 418.573395 314.99393 
L 421.497085 405.21678 
L 424.420775 455.957496 
L 427.344465 368.000769 
L 430.268155 406.281638 
L 433.191845 410.963805 
L 436.115535 337.623385 
L 439.039225 404.78866 
L 441.962915 451.529108 
L 444.886605 411.627759 
L 447.810296 407.362518 
L 450.733986 395.015446 
L 453.657676 451.513752 
L 456.581366 437.289973 
L 459.505056 461.017027 
L 462.428746 411.403013 
L 465.352436 456.354763 
L 468.276126 444.831993 
L 471.199816 459.917853 
L 474.123506 440.482065 
L 477.047197 432.690673 
L 479.970887 349.554528 
L 482.894577 425.730403 
L 485.818267 413.691924 
L 488.741957 446.175047 
L 491.665647 412.453775 
L 494.589337 336.178049 
L 497.513027 404.488288 
L 500.436717 351.65439 
L 503.360408 310.744902 
L 506.284098 445.432283 
L 509.207788 559.690307 
L 512.131478 577.253165 
L 515.055168 560.794414 
L 517.978858 443.766645 
L 520.902548 490.473267 
L 523.826238 472.666949 
L 526.749928 441.125276 
L 529.673618 488.697057 
L 532.597309 458.589036 
L 535.520999 431.981315 
L 538.444689 414.63981 
L 541.368379 433.311916 
L 544.292069 485.831292 
L 547.215759 402.650478 
L 550.139449 464.672288 
L 553.063139 341.88205 
L 555.986829 416.967829 
L 558.910519 410.465901 
L 561.83421 409.235552 
L 564.7579 427.668186 
L 567.68159 385.485411 
L 570.60528 352.095382 
L 573.52897 355.335065 
L 576.45266 454.661455 
L 579.37635 459.194783 
L 582.30004 413.021044 
L 585.22373 436.143471 
L 588.147421 369.507494 
L 591.071111 352.42463 
L 593.994801 410.683161 
L 596.918491 362.542607 
L 599.842181 381.707055 
L 602.765871 462.846512 
L 605.689561 427.04341 
L 608.613251 424.962489 
L 611.536941 448.490508 
L 614.460631 497.890689 
L 617.384322 420.580765 
L 620.308012 422.701003 
L 623.231702 479.876275 
L 626.155392 550.276162 
L 629.079082 514.96876 
L 632.002772 474.04194 
L 634.926462 494.973119 
L 637.850152 481.815667 
L 640.773842 395.115348 
L 643.697532 320.658264 
L 646.621223 358.536164 
L 649.544913 358.079134 
L 652.468603 422.905705 
L 655.392293 390.932205 
L 658.315983 331.720488 
L 661.239673 380.657938 
L 664.163363 286.974123 
L 667.087053 374.045789 
L 670.010743 445.10711 
L 672.934433 432.241601 
L 675.858124 459.805043 
L 678.781814 440.519459 
L 681.705504 493.846556 
L 684.629194 515.041484 
L 687.552884 457.146953 
L 690.476574 518.453005 
L 693.400264 470.734833 
L 696.323954 462.652968 
L 699.247644 417.06182 
L 702.171335 379.903596 
L 705.095025 389.382734 
L 708.018715 391.251361 
L 710.942405 396.285671 
L 713.866095 393.107466 
L 716.789785 393.726715 
L 719.713475 392.163393 
L 722.637165 391.445955 
L 725.560855 393.740253 
L 728.484545 393.602572 
L 728.484545 393.602572 
" style="fill:none;stroke:#8172b3;stroke-dasharray:7.5,1.5,1.5,1.5;stroke-dashoffset:0;stroke-width:1.5;"/>
   </g>
   <g id="line2d_6"/>
   <g id="line2d_7"/>
   <g id="line2d_8"/>
   <g id="line2d_9"/>
   <g id="line2d_10"/>
   <g id="patch_3">
    <path d="M 105.3 529.9416 
L 105.3 71.4528 
" style="fill:none;stroke:#262626;stroke-linecap:square;stroke-linejoin:miter;stroke-width:1.25;"/>
   </g>
   <g id="patch_4">
    <path d="M 758.16 529.9416 
L 758.16 71.4528 
" style="fill:none;stroke:#262626;stroke-linecap:square;stroke-linejoin:miter;stroke-width:1.25;"/>
   </g>
   <g id="patch_5">
    <path d="M 105.3 529.9416 
L 758.16 529.9416 
" style="fill:none;stroke:#262626;stroke-linecap:square;stroke-linejoin:miter;stroke-width:1.25;"/>
   </g>
   <g id="patch_6">
    <path d="M 105.3 71.4528 
L 758.16 71.4528 
" style="fill:none;stroke:#262626;stroke-linecap:square;stroke-linejoin:miter;stroke-width:1.25;"/>
   </g>
   <g id="text_16">
    <!-- Activations for &gt;J&lt; -->
    <g style="fill:#262626;" transform="translate(382.374375 65.4528)scale(0.12 -0.12)">
     <defs>
      <path d="M -9 0 
L 1750 4581 
L 2403 4581 
L 4278 0 
L 3588 0 
L 3053 1388 
L 1138 1388 
L 634 0 
L -9 0 
z
M 1313 1881 
L 2866 1881 
L 2388 3150 
Q 2169 3728 2063 4100 
Q 1975 3659 1816 3225 
L 1313 1881 
z
" id="ArialMT-41" transform="scale(0.015625)"/>
      <path d="M 2588 1216 
L 3141 1144 
Q 3050 572 2676 248 
Q 2303 -75 1759 -75 
Q 1078 -75 664 370 
Q 250 816 250 1647 
Q 250 2184 428 2587 
Q 606 2991 970 3192 
Q 1334 3394 1763 3394 
Q 2303 3394 2647 3120 
Q 2991 2847 3088 2344 
L 2541 2259 
Q 2463 2594 2264 2762 
Q 2066 2931 1784 2931 
Q 1359 2931 1093 2626 
Q 828 2322 828 1663 
Q 828 994 1084 691 
Q 1341 388 1753 388 
Q 2084 388 2306 591 
Q 2528 794 2588 1216 
z
" id="ArialMT-63" transform="scale(0.015625)"/>
      <path d="M 1650 503 
L 1731 6 
Q 1494 -44 1306 -44 
Q 1000 -44 831 53 
Q 663 150 594 308 
Q 525 466 525 972 
L 525 2881 
L 113 2881 
L 113 3319 
L 525 3319 
L 525 4141 
L 1084 4478 
L 1084 3319 
L 1650 3319 
L 1650 2881 
L 1084 2881 
L 1084 941 
Q 1084 700 1114 631 
Q 1144 563 1211 522 
Q 1278 481 1403 481 
Q 1497 481 1650 503 
z
" id="ArialMT-74" transform="scale(0.015625)"/>
      <path d="M 425 3934 
L 425 4581 
L 988 4581 
L 988 3934 
L 425 3934 
z
M 425 0 
L 425 3319 
L 988 3319 
L 988 0 
L 425 0 
z
" id="ArialMT-69" transform="scale(0.015625)"/>
      <path d="M 1344 0 
L 81 3319 
L 675 3319 
L 1388 1331 
Q 1503 1009 1600 663 
Q 1675 925 1809 1294 
L 2547 3319 
L 3125 3319 
L 1869 0 
L 1344 0 
z
" id="ArialMT-76" transform="scale(0.015625)"/>
      <path d="M 2588 409 
Q 2275 144 1986 34 
Q 1697 -75 1366 -75 
Q 819 -75 525 192 
Q 231 459 231 875 
Q 231 1119 342 1320 
Q 453 1522 633 1644 
Q 813 1766 1038 1828 
Q 1203 1872 1538 1913 
Q 2219 1994 2541 2106 
Q 2544 2222 2544 2253 
Q 2544 2597 2384 2738 
Q 2169 2928 1744 2928 
Q 1347 2928 1158 2789 
Q 969 2650 878 2297 
L 328 2372 
Q 403 2725 575 2942 
Q 747 3159 1072 3276 
Q 1397 3394 1825 3394 
Q 2250 3394 2515 3294 
Q 2781 3194 2906 3042 
Q 3031 2891 3081 2659 
Q 3109 2516 3109 2141 
L 3109 1391 
Q 3109 606 3145 398 
Q 3181 191 3288 0 
L 2700 0 
Q 2613 175 2588 409 
z
M 2541 1666 
Q 2234 1541 1622 1453 
Q 1275 1403 1131 1340 
Q 988 1278 909 1158 
Q 831 1038 831 891 
Q 831 666 1001 516 
Q 1172 366 1500 366 
Q 1825 366 2078 508 
Q 2331 650 2450 897 
Q 2541 1088 2541 1459 
L 2541 1666 
z
" id="ArialMT-61" transform="scale(0.015625)"/>
      <path d="M 213 1659 
Q 213 2581 725 3025 
Q 1153 3394 1769 3394 
Q 2453 3394 2887 2945 
Q 3322 2497 3322 1706 
Q 3322 1066 3130 698 
Q 2938 331 2570 128 
Q 2203 -75 1769 -75 
Q 1072 -75 642 372 
Q 213 819 213 1659 
z
M 791 1659 
Q 791 1022 1069 705 
Q 1347 388 1769 388 
Q 2188 388 2466 706 
Q 2744 1025 2744 1678 
Q 2744 2294 2464 2611 
Q 2184 2928 1769 2928 
Q 1347 2928 1069 2612 
Q 791 2297 791 1659 
z
" id="ArialMT-6f" transform="scale(0.015625)"/>
      <path d="M 422 0 
L 422 3319 
L 928 3319 
L 928 2847 
Q 1294 3394 1984 3394 
Q 2284 3394 2536 3286 
Q 2788 3178 2913 3003 
Q 3038 2828 3088 2588 
Q 3119 2431 3119 2041 
L 3119 0 
L 2556 0 
L 2556 2019 
Q 2556 2363 2490 2533 
Q 2425 2703 2258 2804 
Q 2091 2906 1866 2906 
Q 1506 2906 1245 2678 
Q 984 2450 984 1813 
L 984 0 
L 422 0 
z
" id="ArialMT-6e" transform="scale(0.015625)"/>
      <path d="M 197 991 
L 753 1078 
Q 800 744 1014 566 
Q 1228 388 1613 388 
Q 2000 388 2187 545 
Q 2375 703 2375 916 
Q 2375 1106 2209 1216 
Q 2094 1291 1634 1406 
Q 1016 1563 777 1677 
Q 538 1791 414 1992 
Q 291 2194 291 2438 
Q 291 2659 392 2848 
Q 494 3038 669 3163 
Q 800 3259 1026 3326 
Q 1253 3394 1513 3394 
Q 1903 3394 2198 3281 
Q 2494 3169 2634 2976 
Q 2775 2784 2828 2463 
L 2278 2388 
Q 2241 2644 2061 2787 
Q 1881 2931 1553 2931 
Q 1166 2931 1000 2803 
Q 834 2675 834 2503 
Q 834 2394 903 2306 
Q 972 2216 1119 2156 
Q 1203 2125 1616 2013 
Q 2213 1853 2448 1751 
Q 2684 1650 2818 1456 
Q 2953 1263 2953 975 
Q 2953 694 2789 445 
Q 2625 197 2315 61 
Q 2006 -75 1616 -75 
Q 969 -75 630 194 
Q 291 463 197 991 
z
" id="ArialMT-73" transform="scale(0.015625)"/>
      <path id="ArialMT-20" transform="scale(0.015625)"/>
      <path d="M 556 0 
L 556 2881 
L 59 2881 
L 59 3319 
L 556 3319 
L 556 3672 
Q 556 4006 616 4169 
Q 697 4388 901 4523 
Q 1106 4659 1475 4659 
Q 1713 4659 2000 4603 
L 1916 4113 
Q 1741 4144 1584 4144 
Q 1328 4144 1222 4034 
Q 1116 3925 1116 3625 
L 1116 3319 
L 1763 3319 
L 1763 2881 
L 1116 2881 
L 1116 0 
L 556 0 
z
" id="ArialMT-66" transform="scale(0.015625)"/>
      <path d="M 416 0 
L 416 3319 
L 922 3319 
L 922 2816 
Q 1116 3169 1280 3281 
Q 1444 3394 1641 3394 
Q 1925 3394 2219 3213 
L 2025 2691 
Q 1819 2813 1613 2813 
Q 1428 2813 1281 2702 
Q 1134 2591 1072 2394 
Q 978 2094 978 1738 
L 978 0 
L 416 0 
z
" id="ArialMT-72" transform="scale(0.015625)"/>
      <path d="M 3384 2003 
L 350 706 
L 350 1266 
L 2753 2263 
L 350 3250 
L 350 3809 
L 3384 2528 
L 3384 2003 
z
" id="ArialMT-3e" transform="scale(0.015625)"/>
      <path d="M 184 1300 
L 731 1375 
Q 753 850 928 656 
Q 1103 463 1413 463 
Q 1641 463 1806 567 
Q 1972 672 2034 851 
Q 2097 1031 2097 1425 
L 2097 4581 
L 2703 4581 
L 2703 1459 
Q 2703 884 2564 568 
Q 2425 253 2123 87 
Q 1822 -78 1416 -78 
Q 813 -78 492 269 
Q 172 616 184 1300 
z
" id="ArialMT-4a" transform="scale(0.015625)"/>
      <path d="M 350 2003 
L 350 2528 
L 3384 3809 
L 3384 3250 
L 978 2263 
L 3384 1266 
L 3384 706 
L 350 2003 
z
" id="ArialMT-3c" transform="scale(0.015625)"/>
     </defs>
     <use xlink:href="#ArialMT-41"/>
     <use x="66.699219" xlink:href="#ArialMT-63"/>
     <use x="116.699219" xlink:href="#ArialMT-74"/>
     <use x="144.482422" xlink:href="#ArialMT-69"/>
     <use x="166.699219" xlink:href="#ArialMT-76"/>
     <use x="216.699219" xlink:href="#ArialMT-61"/>
     <use x="272.314453" xlink:href="#ArialMT-74"/>
     <use x="300.097656" xlink:href="#ArialMT-69"/>
     <use x="322.314453" xlink:href="#ArialMT-6f"/>
     <use x="377.929688" xlink:href="#ArialMT-6e"/>
     <use x="433.544922" xlink:href="#ArialMT-73"/>
     <use x="483.544922" xlink:href="#ArialMT-20"/>
     <use x="511.328125" xlink:href="#ArialMT-66"/>
     <use x="539.111328" xlink:href="#ArialMT-6f"/>
     <use x="594.726562" xlink:href="#ArialMT-72"/>
     <use x="628.027344" xlink:href="#ArialMT-20"/>
     <use x="655.810547" xlink:href="#ArialMT-3e"/>
     <use x="714.208984" xlink:href="#ArialMT-4a"/>
     <use x="764.208984" xlink:href="#ArialMT-3c"/>
    </g>
   </g>
   <g id="legend_1">
    <g id="patch_7">
     <path d="M 640.044062 158.514363 
L 750.46 158.514363 
Q 752.66 158.514363 752.66 156.314363 
L 752.66 79.1528 
Q 752.66 76.9528 750.46 76.9528 
L 640.044062 76.9528 
Q 637.844062 76.9528 637.844062 79.1528 
L 637.844062 156.314363 
Q 637.844062 158.514363 640.044062 158.514363 
z
" style="fill:#ffffff;opacity:0.8;stroke:#cccccc;stroke-linejoin:miter;"/>
    </g>
    <g id="line2d_11">
     <path d="M 642.244062 85.376394 
L 664.244062 85.376394 
" style="fill:none;stroke:#4c72b0;stroke-linecap:round;stroke-width:1.5;"/>
    </g>
    <g id="line2d_12"/>
    <g id="text_17">
     <!-- regular -->
     <g style="fill:#262626;" transform="translate(673.044062 89.226394)scale(0.11 -0.11)">
      <defs>
       <path d="M 2694 1069 
L 3275 997 
Q 3138 488 2766 206 
Q 2394 -75 1816 -75 
Q 1088 -75 661 373 
Q 234 822 234 1631 
Q 234 2469 665 2931 
Q 1097 3394 1784 3394 
Q 2450 3394 2872 2941 
Q 3294 2488 3294 1666 
Q 3294 1616 3291 1516 
L 816 1516 
Q 847 969 1125 678 
Q 1403 388 1819 388 
Q 2128 388 2347 550 
Q 2566 713 2694 1069 
z
M 847 1978 
L 2700 1978 
Q 2663 2397 2488 2606 
Q 2219 2931 1791 2931 
Q 1403 2931 1139 2672 
Q 875 2413 847 1978 
z
" id="ArialMT-65" transform="scale(0.015625)"/>
       <path d="M 319 -275 
L 866 -356 
Q 900 -609 1056 -725 
Q 1266 -881 1628 -881 
Q 2019 -881 2231 -725 
Q 2444 -569 2519 -288 
Q 2563 -116 2559 434 
Q 2191 0 1641 0 
Q 956 0 581 494 
Q 206 988 206 1678 
Q 206 2153 378 2554 
Q 550 2956 876 3175 
Q 1203 3394 1644 3394 
Q 2231 3394 2613 2919 
L 2613 3319 
L 3131 3319 
L 3131 450 
Q 3131 -325 2973 -648 
Q 2816 -972 2473 -1159 
Q 2131 -1347 1631 -1347 
Q 1038 -1347 672 -1080 
Q 306 -813 319 -275 
z
M 784 1719 
Q 784 1066 1043 766 
Q 1303 466 1694 466 
Q 2081 466 2343 764 
Q 2606 1063 2606 1700 
Q 2606 2309 2336 2618 
Q 2066 2928 1684 2928 
Q 1309 2928 1046 2623 
Q 784 2319 784 1719 
z
" id="ArialMT-67" transform="scale(0.015625)"/>
       <path d="M 2597 0 
L 2597 488 
Q 2209 -75 1544 -75 
Q 1250 -75 995 37 
Q 741 150 617 320 
Q 494 491 444 738 
Q 409 903 409 1263 
L 409 3319 
L 972 3319 
L 972 1478 
Q 972 1038 1006 884 
Q 1059 663 1231 536 
Q 1403 409 1656 409 
Q 1909 409 2131 539 
Q 2353 669 2445 892 
Q 2538 1116 2538 1541 
L 2538 3319 
L 3100 3319 
L 3100 0 
L 2597 0 
z
" id="ArialMT-75" transform="scale(0.015625)"/>
       <path d="M 409 0 
L 409 4581 
L 972 4581 
L 972 0 
L 409 0 
z
" id="ArialMT-6c" transform="scale(0.015625)"/>
      </defs>
      <use xlink:href="#ArialMT-72"/>
      <use x="33.300781" xlink:href="#ArialMT-65"/>
      <use x="88.916016" xlink:href="#ArialMT-67"/>
      <use x="144.53125" xlink:href="#ArialMT-75"/>
      <use x="200.146484" xlink:href="#ArialMT-6c"/>
      <use x="222.363281" xlink:href="#ArialMT-61"/>
      <use x="277.978516" xlink:href="#ArialMT-72"/>
     </g>
    </g>
    <g id="line2d_13">
     <path d="M 642.244062 101.0978 
L 664.244062 101.0978 
" style="fill:none;stroke:#dd8452;stroke-dasharray:6,2.25;stroke-dashoffset:0;stroke-width:1.5;"/>
    </g>
    <g id="line2d_14"/>
    <g id="text_18">
     <!-- splitted_3s -->
     <g style="fill:#262626;" transform="translate(673.044062 104.9478)scale(0.11 -0.11)">
      <defs>
       <path d="M 422 -1272 
L 422 3319 
L 934 3319 
L 934 2888 
Q 1116 3141 1344 3267 
Q 1572 3394 1897 3394 
Q 2322 3394 2647 3175 
Q 2972 2956 3137 2557 
Q 3303 2159 3303 1684 
Q 3303 1175 3120 767 
Q 2938 359 2589 142 
Q 2241 -75 1856 -75 
Q 1575 -75 1351 44 
Q 1128 163 984 344 
L 984 -1272 
L 422 -1272 
z
M 931 1641 
Q 931 1000 1190 694 
Q 1450 388 1819 388 
Q 2194 388 2461 705 
Q 2728 1022 2728 1688 
Q 2728 2322 2467 2637 
Q 2206 2953 1844 2953 
Q 1484 2953 1207 2617 
Q 931 2281 931 1641 
z
" id="ArialMT-70" transform="scale(0.015625)"/>
       <path d="M 2575 0 
L 2575 419 
Q 2259 -75 1647 -75 
Q 1250 -75 917 144 
Q 584 363 401 755 
Q 219 1147 219 1656 
Q 219 2153 384 2558 
Q 550 2963 881 3178 
Q 1213 3394 1622 3394 
Q 1922 3394 2156 3267 
Q 2391 3141 2538 2938 
L 2538 4581 
L 3097 4581 
L 3097 0 
L 2575 0 
z
M 797 1656 
Q 797 1019 1065 703 
Q 1334 388 1700 388 
Q 2069 388 2326 689 
Q 2584 991 2584 1609 
Q 2584 2291 2321 2609 
Q 2059 2928 1675 2928 
Q 1300 2928 1048 2622 
Q 797 2316 797 1656 
z
" id="ArialMT-64" transform="scale(0.015625)"/>
       <path d="M -97 -1272 
L -97 -866 
L 3631 -866 
L 3631 -1272 
L -97 -1272 
z
" id="ArialMT-5f" transform="scale(0.015625)"/>
       <path d="M 269 1209 
L 831 1284 
Q 928 806 1161 595 
Q 1394 384 1728 384 
Q 2125 384 2398 659 
Q 2672 934 2672 1341 
Q 2672 1728 2419 1979 
Q 2166 2231 1775 2231 
Q 1616 2231 1378 2169 
L 1441 2663 
Q 1497 2656 1531 2656 
Q 1891 2656 2178 2843 
Q 2466 3031 2466 3422 
Q 2466 3731 2256 3934 
Q 2047 4138 1716 4138 
Q 1388 4138 1169 3931 
Q 950 3725 888 3313 
L 325 3413 
Q 428 3978 793 4289 
Q 1159 4600 1703 4600 
Q 2078 4600 2393 4439 
Q 2709 4278 2876 4000 
Q 3044 3722 3044 3409 
Q 3044 3113 2884 2869 
Q 2725 2625 2413 2481 
Q 2819 2388 3044 2092 
Q 3269 1797 3269 1353 
Q 3269 753 2831 336 
Q 2394 -81 1725 -81 
Q 1122 -81 723 278 
Q 325 638 269 1209 
z
" id="ArialMT-33" transform="scale(0.015625)"/>
      </defs>
      <use xlink:href="#ArialMT-73"/>
      <use x="50" xlink:href="#ArialMT-70"/>
      <use x="105.615234" xlink:href="#ArialMT-6c"/>
      <use x="127.832031" xlink:href="#ArialMT-69"/>
      <use x="150.048828" xlink:href="#ArialMT-74"/>
      <use x="177.832031" xlink:href="#ArialMT-74"/>
      <use x="205.615234" xlink:href="#ArialMT-65"/>
      <use x="261.230469" xlink:href="#ArialMT-64"/>
      <use x="316.845703" xlink:href="#ArialMT-5f"/>
      <use x="372.460938" xlink:href="#ArialMT-33"/>
      <use x="428.076172" xlink:href="#ArialMT-73"/>
     </g>
    </g>
    <g id="line2d_15">
     <path d="M 642.244062 116.6903 
L 664.244062 116.6903 
" style="fill:none;stroke:#55a868;stroke-dasharray:1.5,1.5;stroke-dashoffset:0;stroke-width:1.5;"/>
    </g>
    <g id="line2d_16"/>
    <g id="text_19">
     <!-- splitted_1s -->
     <g style="fill:#262626;" transform="translate(673.044062 120.5403)scale(0.11 -0.11)">
      <use xlink:href="#ArialMT-73"/>
      <use x="50" xlink:href="#ArialMT-70"/>
      <use x="105.615234" xlink:href="#ArialMT-6c"/>
      <use x="127.832031" xlink:href="#ArialMT-69"/>
      <use x="150.048828" xlink:href="#ArialMT-74"/>
      <use x="177.832031" xlink:href="#ArialMT-74"/>
      <use x="205.615234" xlink:href="#ArialMT-65"/>
      <use x="261.230469" xlink:href="#ArialMT-64"/>
      <use x="316.845703" xlink:href="#ArialMT-5f"/>
      <use x="372.460938" xlink:href="#ArialMT-31"/>
      <use x="428.076172" xlink:href="#ArialMT-73"/>
     </g>
    </g>
    <g id="line2d_17">
     <path d="M 642.244062 132.384206 
L 664.244062 132.384206 
" style="fill:none;stroke:#c44e52;stroke-dasharray:4.5,1.875,2.25,1.875;stroke-dashoffset:0;stroke-width:1.5;"/>
    </g>
    <g id="line2d_18"/>
    <g id="text_20">
     <!-- overlap_1f_3s -->
     <g style="fill:#262626;" transform="translate(673.044062 136.234206)scale(0.11 -0.11)">
      <use xlink:href="#ArialMT-6f"/>
      <use x="55.615234" xlink:href="#ArialMT-76"/>
      <use x="105.615234" xlink:href="#ArialMT-65"/>
      <use x="161.230469" xlink:href="#ArialMT-72"/>
      <use x="194.53125" xlink:href="#ArialMT-6c"/>
      <use x="216.748047" xlink:href="#ArialMT-61"/>
      <use x="272.363281" xlink:href="#ArialMT-70"/>
      <use x="327.978516" xlink:href="#ArialMT-5f"/>
      <use x="383.59375" xlink:href="#ArialMT-31"/>
      <use x="439.208984" xlink:href="#ArialMT-66"/>
      <use x="466.992188" xlink:href="#ArialMT-5f"/>
      <use x="522.607422" xlink:href="#ArialMT-33"/>
      <use x="578.222656" xlink:href="#ArialMT-73"/>
     </g>
    </g>
    <g id="line2d_19">
     <path d="M 642.244062 148.078113 
L 664.244062 148.078113 
" style="fill:none;stroke:#8172b3;stroke-dasharray:7.5,1.5,1.5,1.5;stroke-dashoffset:0;stroke-width:1.5;"/>
    </g>
    <g id="line2d_20"/>
    <g id="text_21">
     <!-- overlap_10f_3s -->
     <g style="fill:#262626;" transform="translate(673.044062 151.928112)scale(0.11 -0.11)">
      <use xlink:href="#ArialMT-6f"/>
      <use x="55.615234" xlink:href="#ArialMT-76"/>
      <use x="105.615234" xlink:href="#ArialMT-65"/>
      <use x="161.230469" xlink:href="#ArialMT-72"/>
      <use x="194.53125" xlink:href="#ArialMT-6c"/>
      <use x="216.748047" xlink:href="#ArialMT-61"/>
      <use x="272.363281" xlink:href="#ArialMT-70"/>
      <use x="327.978516" xlink:href="#ArialMT-5f"/>
      <use x="383.59375" xlink:href="#ArialMT-31"/>
      <use x="439.208984" xlink:href="#ArialMT-30"/>
      <use x="494.824219" xlink:href="#ArialMT-66"/>
      <use x="522.607422" xlink:href="#ArialMT-5f"/>
      <use x="578.222656" xlink:href="#ArialMT-33"/>
      <use x="633.837891" xlink:href="#ArialMT-73"/>
     </g>
    </g>
   </g>
  </g>
 </g>
 <defs>
  <clipPath id="pc2ef61f7ca">
   <rect height="458.4888" width="652.86" x="105.3" y="71.4528"/>
  </clipPath>
 </defs>
</svg>
