<?xml version="1.0" encoding="utf-8" standalone="no"?>
<!DOCTYPE svg PUBLIC "-//W3C//DTD SVG 1.1//EN"
  "http://www.w3.org/Graphics/SVG/1.1/DTD/svg11.dtd">
<svg height="595.44pt" version="1.1" viewBox="0 0 842.4 595.44" width="842.4pt" xmlns="http://www.w3.org/2000/svg" xmlns:xlink="http://www.w3.org/1999/xlink">
 <metadata>
  <rdf:RDF xmlns:cc="http://creativecommons.org/ns#" xmlns:dc="http://purl.org/dc/elements/1.1/" xmlns:rdf="http://www.w3.org/1999/02/22-rdf-syntax-ns#">
   <cc:Work>
    <dc:type rdf:resource="http://purl.org/dc/dcmitype/StillImage"/>
    <dc:date>2021-06-04T22:03:20.178530</dc:date>
    <dc:format>image/svg+xml</dc:format>
    <dc:creator>
     <cc:Agent>
      <dc:title>Matplotlib v3.4.1, https://matplotlib.org/</dc:title>
     </cc:Agent>
    </dc:creator>
   </cc:Work>
  </rdf:RDF>
 </metadata>
 <defs>
  <style type="text/css">*{stroke-linecap:butt;stroke-linejoin:round;}</style>
 </defs>
 <g id="figure_1">
  <g id="patch_1">
   <path d="M 0 595.44 
L 842.4 595.44 
L 842.4 0 
L 0 0 
z
" style="fill:#ffffff;"/>
  </g>
  <g id="axes_1">
   <g id="patch_2">
    <path d="M 105.3 529.9416 
L 758.16 529.9416 
L 758.16 71.4528 
L 105.3 71.4528 
z
" style="fill:#ffffff;"/>
   </g>
   <g id="matplotlib.axis_1">
    <g id="xtick_1">
     <g id="text_1">
      <!-- 0 -->
      <g style="fill:#262626;" transform="translate(131.916939 547.315194)scale(0.11 -0.11)">
       <defs>
        <path d="M 266 2259 
Q 266 3072 433 3567 
Q 600 4063 929 4331 
Q 1259 4600 1759 4600 
Q 2128 4600 2406 4451 
Q 2684 4303 2865 4023 
Q 3047 3744 3150 3342 
Q 3253 2941 3253 2259 
Q 3253 1453 3087 958 
Q 2922 463 2592 192 
Q 2263 -78 1759 -78 
Q 1097 -78 719 397 
Q 266 969 266 2259 
z
M 844 2259 
Q 844 1131 1108 757 
Q 1372 384 1759 384 
Q 2147 384 2411 759 
Q 2675 1134 2675 2259 
Q 2675 3391 2411 3762 
Q 2147 4134 1753 4134 
Q 1366 4134 1134 3806 
Q 844 3388 844 2259 
z
" id="ArialMT-30" transform="scale(0.015625)"/>
       </defs>
       <use xlink:href="#ArialMT-30"/>
      </g>
     </g>
    </g>
    <g id="xtick_2">
     <g id="text_2">
      <!-- 25 -->
      <g style="fill:#262626;" transform="translate(201.950676 547.315194)scale(0.11 -0.11)">
       <defs>
        <path d="M 3222 541 
L 3222 0 
L 194 0 
Q 188 203 259 391 
Q 375 700 629 1000 
Q 884 1300 1366 1694 
Q 2113 2306 2375 2664 
Q 2638 3022 2638 3341 
Q 2638 3675 2398 3904 
Q 2159 4134 1775 4134 
Q 1369 4134 1125 3890 
Q 881 3647 878 3216 
L 300 3275 
Q 359 3922 746 4261 
Q 1134 4600 1788 4600 
Q 2447 4600 2831 4234 
Q 3216 3869 3216 3328 
Q 3216 3053 3103 2787 
Q 2991 2522 2730 2228 
Q 2469 1934 1863 1422 
Q 1356 997 1212 845 
Q 1069 694 975 541 
L 3222 541 
z
" id="ArialMT-32" transform="scale(0.015625)"/>
        <path d="M 266 1200 
L 856 1250 
Q 922 819 1161 601 
Q 1400 384 1738 384 
Q 2144 384 2425 690 
Q 2706 997 2706 1503 
Q 2706 1984 2436 2262 
Q 2166 2541 1728 2541 
Q 1456 2541 1237 2417 
Q 1019 2294 894 2097 
L 366 2166 
L 809 4519 
L 3088 4519 
L 3088 3981 
L 1259 3981 
L 1013 2750 
Q 1425 3038 1878 3038 
Q 2478 3038 2890 2622 
Q 3303 2206 3303 1553 
Q 3303 931 2941 478 
Q 2500 -78 1738 -78 
Q 1113 -78 717 272 
Q 322 622 266 1200 
z
" id="ArialMT-35" transform="scale(0.015625)"/>
       </defs>
       <use xlink:href="#ArialMT-32"/>
       <use x="55.615234" xlink:href="#ArialMT-35"/>
      </g>
     </g>
    </g>
    <g id="xtick_3">
     <g id="text_3">
      <!-- 50 -->
      <g style="fill:#262626;" transform="translate(275.042928 547.315194)scale(0.11 -0.11)">
       <use xlink:href="#ArialMT-35"/>
       <use x="55.615234" xlink:href="#ArialMT-30"/>
      </g>
     </g>
    </g>
    <g id="xtick_4">
     <g id="text_4">
      <!-- 75 -->
      <g style="fill:#262626;" transform="translate(348.135181 547.315194)scale(0.11 -0.11)">
       <defs>
        <path d="M 303 3981 
L 303 4522 
L 3269 4522 
L 3269 4084 
Q 2831 3619 2401 2847 
Q 1972 2075 1738 1259 
Q 1569 684 1522 0 
L 944 0 
Q 953 541 1156 1306 
Q 1359 2072 1739 2783 
Q 2119 3494 2547 3981 
L 303 3981 
z
" id="ArialMT-37" transform="scale(0.015625)"/>
       </defs>
       <use xlink:href="#ArialMT-37"/>
       <use x="55.615234" xlink:href="#ArialMT-35"/>
      </g>
     </g>
    </g>
    <g id="xtick_5">
     <g id="text_5">
      <!-- 100 -->
      <g style="fill:#262626;" transform="translate(418.168918 547.315194)scale(0.11 -0.11)">
       <defs>
        <path d="M 2384 0 
L 1822 0 
L 1822 3584 
Q 1619 3391 1289 3197 
Q 959 3003 697 2906 
L 697 3450 
Q 1169 3672 1522 3987 
Q 1875 4303 2022 4600 
L 2384 4600 
L 2384 0 
z
" id="ArialMT-31" transform="scale(0.015625)"/>
       </defs>
       <use xlink:href="#ArialMT-31"/>
       <use x="55.615234" xlink:href="#ArialMT-30"/>
       <use x="111.230469" xlink:href="#ArialMT-30"/>
      </g>
     </g>
    </g>
    <g id="xtick_6">
     <g id="text_6">
      <!-- 125 -->
      <g style="fill:#262626;" transform="translate(491.261171 547.315194)scale(0.11 -0.11)">
       <use xlink:href="#ArialMT-31"/>
       <use x="55.615234" xlink:href="#ArialMT-32"/>
       <use x="111.230469" xlink:href="#ArialMT-35"/>
      </g>
     </g>
    </g>
    <g id="xtick_7">
     <g id="text_7">
      <!-- 150 -->
      <g style="fill:#262626;" transform="translate(564.353423 547.315194)scale(0.11 -0.11)">
       <use xlink:href="#ArialMT-31"/>
       <use x="55.615234" xlink:href="#ArialMT-35"/>
       <use x="111.230469" xlink:href="#ArialMT-30"/>
      </g>
     </g>
    </g>
    <g id="xtick_8">
     <g id="text_8">
      <!-- 175 -->
      <g style="fill:#262626;" transform="translate(637.445676 547.315194)scale(0.11 -0.11)">
       <use xlink:href="#ArialMT-31"/>
       <use x="55.615234" xlink:href="#ArialMT-37"/>
       <use x="111.230469" xlink:href="#ArialMT-35"/>
      </g>
     </g>
    </g>
    <g id="xtick_9">
     <g id="text_9">
      <!-- 200 -->
      <g style="fill:#262626;" transform="translate(710.537928 547.315194)scale(0.11 -0.11)">
       <use xlink:href="#ArialMT-32"/>
       <use x="55.615234" xlink:href="#ArialMT-30"/>
       <use x="111.230469" xlink:href="#ArialMT-30"/>
      </g>
     </g>
    </g>
   </g>
   <g id="matplotlib.axis_2">
    <g id="ytick_1">
     <g id="text_10">
      <!-- −25 -->
      <g style="fill:#262626;" transform="translate(77.14125 533.878397)scale(0.11 -0.11)">
       <defs>
        <path d="M 3381 1997 
L 356 1997 
L 356 2522 
L 3381 2522 
L 3381 1997 
z
" id="ArialMT-2212" transform="scale(0.015625)"/>
       </defs>
       <use xlink:href="#ArialMT-2212"/>
       <use x="58.398438" xlink:href="#ArialMT-32"/>
       <use x="114.013672" xlink:href="#ArialMT-35"/>
      </g>
     </g>
    </g>
    <g id="ytick_2">
     <g id="text_11">
      <!-- −20 -->
      <g style="fill:#262626;" transform="translate(77.14125 442.180637)scale(0.11 -0.11)">
       <use xlink:href="#ArialMT-2212"/>
       <use x="58.398438" xlink:href="#ArialMT-32"/>
       <use x="114.013672" xlink:href="#ArialMT-30"/>
      </g>
     </g>
    </g>
    <g id="ytick_3">
     <g id="text_12">
      <!-- −15 -->
      <g style="fill:#262626;" transform="translate(77.14125 350.482877)scale(0.11 -0.11)">
       <use xlink:href="#ArialMT-2212"/>
       <use x="58.398438" xlink:href="#ArialMT-31"/>
       <use x="114.013672" xlink:href="#ArialMT-35"/>
      </g>
     </g>
    </g>
    <g id="ytick_4">
     <g id="text_13">
      <!-- −10 -->
      <g style="fill:#262626;" transform="translate(77.14125 258.785117)scale(0.11 -0.11)">
       <use xlink:href="#ArialMT-2212"/>
       <use x="58.398438" xlink:href="#ArialMT-31"/>
       <use x="114.013672" xlink:href="#ArialMT-30"/>
      </g>
     </g>
    </g>
    <g id="ytick_5">
     <g id="text_14">
      <!-- −5 -->
      <g style="fill:#262626;" transform="translate(83.258281 167.087357)scale(0.11 -0.11)">
       <use xlink:href="#ArialMT-2212"/>
       <use x="58.398438" xlink:href="#ArialMT-35"/>
      </g>
     </g>
    </g>
    <g id="ytick_6">
     <g id="text_15">
      <!-- 0 -->
      <g style="fill:#262626;" transform="translate(89.682969 75.389597)scale(0.11 -0.11)">
       <use xlink:href="#ArialMT-30"/>
      </g>
     </g>
    </g>
   </g>
   <g id="line2d_1">
    <path clip-path="url(#p2875fe96af)" d="M 134.975455 456.444976 
L 137.899145 457.961391 
L 140.822835 459.216715 
L 143.746525 458.135381 
L 146.670215 459.951853 
L 149.593905 460.699269 
L 152.517595 461.330692 
L 155.441285 463.404231 
L 158.364975 466.514506 
L 161.288665 467.293229 
L 164.212356 469.786807 
L 167.136046 474.785053 
L 170.059736 500.856916 
L 172.983426 519.2538 
L 175.907116 531.924717 
L 178.830806 580.671193 
L 179.6376 596.44 
M 183.411053 596.44 
L 184.678186 564.791569 
L 187.601876 505.159516 
L 190.525567 554.095129 
L 193.449257 501.324423 
L 196.372947 474.364595 
L 199.296637 527.867326 
L 202.220327 474.394362 
L 205.144017 454.089254 
L 208.067707 543.835589 
L 210.991397 463.585183 
L 213.915087 511.235284 
L 216.838777 501.263453 
L 219.762468 501.53049 
L 222.686158 517.394933 
L 225.609848 501.418134 
L 228.533538 511.381605 
L 231.457228 527.902096 
L 234.380918 427.497624 
L 237.304608 474.165209 
L 240.228298 508.726839 
L 243.151988 465.031113 
L 246.075678 394.222136 
L 248.999369 391.340176 
L 251.923059 501.555465 
L 254.846749 558.787616 
L 257.770439 586.527181 
L 260.694129 485.057466 
L 263.617819 541.226297 
L 266.541509 403.130857 
L 269.465199 395.05952 
L 272.388889 423.288875 
L 275.312579 457.66742 
L 278.23627 476.015542 
L 281.15996 468.307017 
L 284.08365 435.347083 
L 287.00734 444.772387 
L 289.93103 491.90489 
L 292.85472 451.794816 
L 295.77841 419.26517 
L 298.7021 495.264921 
L 301.62579 516.577382 
L 304.549481 491.773786 
L 307.473171 451.871702 
L 310.396861 466.257089 
L 313.320551 412.245819 
L 316.244241 418.522196 
L 319.167931 415.401078 
L 322.091621 441.707727 
L 325.015311 407.215987 
L 327.939001 467.663072 
L 330.862691 495.724977 
L 333.786382 482.460557 
L 336.710072 472.359301 
L 339.633762 522.600749 
L 342.557452 531.151311 
L 345.481142 457.172139 
L 348.404832 404.160106 
L 351.328522 375.194039 
L 354.252212 444.077721 
L 357.175902 472.947068 
L 360.099592 457.182948 
L 363.023283 544.398906 
L 365.946973 459.960283 
L 368.870663 435.187574 
L 371.794353 448.504675 
L 374.718043 501.462139 
L 377.641733 543.875186 
L 380.565423 525.276713 
L 383.489113 426.297288 
L 386.412803 376.989838 
L 389.336494 436.140567 
L 392.260184 489.412921 
L 395.183874 549.553512 
L 398.107564 524.335473 
L 401.031254 508.410585 
L 403.954944 511.331863 
L 406.878634 556.744683 
L 409.802324 476.161443 
L 412.726014 429.822494 
L 415.649704 477.772688 
L 418.573395 442.155644 
L 421.497085 480.407201 
L 424.420775 561.324639 
L 427.344465 510.426233 
L 430.268155 533.440222 
L 433.191845 515.650484 
L 436.115535 458.400879 
L 439.039225 476.049192 
L 441.962915 520.801347 
L 444.886605 491.638658 
L 447.810296 377.540143 
L 450.733986 330.503957 
L 453.657676 409.27529 
L 456.581366 409.382118 
L 459.505056 549.659431 
L 462.428746 459.128286 
L 465.352436 465.160048 
L 468.276126 416.00735 
L 471.199816 413.150225 
L 474.123506 497.465928 
L 477.047197 445.805869 
L 479.970887 375.996968 
L 482.894577 473.777631 
L 485.818267 467.881731 
L 488.741957 483.745439 
L 491.665647 444.817931 
L 494.589337 442.0761 
L 497.513027 511.588581 
L 500.436717 402.387779 
L 503.360408 335.786607 
L 506.284098 427.339235 
L 509.207788 524.901588 
L 512.131478 523.359009 
L 515.055168 494.709335 
L 517.978858 417.525339 
L 520.902548 495.818968 
L 523.826238 514.233972 
L 526.749928 456.459773 
L 529.673618 495.313264 
L 532.597309 543.847062 
L 535.520999 464.882658 
L 538.444689 439.722931 
L 541.368379 526.078313 
L 544.292069 533.310796 
L 547.215759 447.545875 
L 550.139449 489.214375 
L 553.063139 406.279644 
L 555.986829 482.702023 
L 558.910519 431.129799 
L 561.83421 406.933699 
L 564.7579 396.395404 
L 567.68159 371.566762 
L 570.60528 397.195954 
L 573.52897 417.557205 
L 576.45266 409.506612 
L 579.37635 447.849676 
L 582.30004 474.197321 
L 585.22373 444.302082 
L 588.147421 411.925228 
L 591.071111 449.203888 
L 593.994801 497.818036 
L 596.918491 416.677635 
L 599.842181 455.4364 
L 602.765871 454.064418 
L 605.689561 427.081643 
L 608.613251 444.607667 
L 611.536941 524.268102 
L 614.460631 509.347837 
L 617.384322 355.202753 
L 620.308012 370.180542 
L 623.231702 411.411863 
L 626.155392 496.803933 
L 629.079082 510.030435 
L 632.002772 495.104748 
L 634.926462 488.413545 
L 637.850152 513.479455 
L 640.773842 435.121882 
L 643.697532 401.167119 
L 646.621223 470.051186 
L 649.544913 478.00471 
L 652.468603 545.113301 
L 658.315983 458.905639 
L 661.239673 529.482209 
L 664.163363 462.12708 
L 667.087053 520.810162 
L 670.010743 497.886387 
L 672.934433 430.56169 
L 675.858124 446.204325 
L 678.781814 408.919334 
L 681.705504 459.889484 
L 684.629194 500.945695 
L 687.552884 467.170414 
L 690.476574 572.573727 
L 693.400264 526.759792 
L 696.323954 545.203339 
L 699.247644 515.458934 
L 702.171335 487.789223 
L 705.095025 476.156371 
L 708.018715 468.945051 
L 710.942405 470.066192 
L 713.866095 469.332593 
L 716.789785 470.883813 
L 719.713475 468.687424 
L 722.637165 467.041898 
L 725.560855 470.596977 
L 728.484545 473.442559 
L 728.484545 473.442559 
" style="fill:none;stroke:#4c72b0;stroke-linecap:round;stroke-width:1.5;"/>
   </g>
   <g id="line2d_2">
    <path clip-path="url(#p2875fe96af)" d="M 134.975455 443.363851 
L 137.899145 446.619397 
L 140.822835 447.80791 
L 143.746525 446.591518 
L 146.670215 448.202413 
L 149.593905 450.009931 
L 152.517595 448.093066 
L 155.441285 449.162297 
L 158.364975 449.804528 
L 161.288665 451.006753 
L 164.212356 451.756513 
L 167.136046 453.729066 
L 170.059736 476.301258 
L 172.983426 486.001889 
L 175.907116 502.203328 
L 180.963435 596.44 
M 182.521987 596.44 
L 184.678186 556.296066 
L 187.601876 469.768758 
L 190.525567 547.219127 
L 193.449257 495.63298 
L 196.372947 478.113707 
L 199.296637 519.997299 
L 202.220327 483.353629 
L 205.144017 478.136934 
L 208.067707 553.479728 
L 210.991397 485.641351 
L 213.915087 489.126785 
L 216.838777 496.224386 
L 219.762468 490.123643 
L 222.686158 514.512902 
L 225.609848 487.395839 
L 228.533538 488.219196 
L 231.457228 521.317791 
L 234.380918 426.318136 
L 237.304608 468.630931 
L 240.228298 507.932235 
L 243.151988 467.653277 
L 246.075678 401.177019 
L 248.999369 422.772536 
L 251.923059 511.976683 
L 254.846749 553.163229 
L 257.770439 584.089676 
L 260.694129 497.561143 
L 263.617819 550.572896 
L 266.541509 419.64012 
L 269.465199 400.193663 
L 272.388889 445.834343 
L 275.312579 482.114011 
L 278.23627 493.541916 
L 281.15996 485.371236 
L 284.08365 438.695186 
L 287.00734 446.375097 
L 289.93103 503.795719 
L 292.85472 467.558272 
L 295.77841 423.901793 
L 298.7021 498.199072 
L 301.62579 523.024356 
L 304.549481 497.713061 
L 307.473171 466.251807 
L 310.396861 454.110627 
L 313.320551 426.213616 
L 316.244241 424.997574 
L 319.167931 431.527486 
L 322.091621 441.350931 
L 325.015311 393.375692 
L 327.939001 476.194569 
L 330.862691 494.32739 
L 333.786382 465.265268 
L 336.710072 505.503929 
L 339.633762 536.506107 
L 342.557452 517.297304 
L 345.481142 434.131041 
L 348.404832 375.608446 
L 351.328522 394.085679 
L 354.252212 487.123975 
L 357.175902 411.075671 
L 360.099592 326.434883 
L 363.023283 324.073651 
L 365.946973 379.885371 
L 368.870663 350.733386 
L 371.794353 370.345088 
L 374.718043 406.320151 
L 377.641733 431.621617 
L 380.565423 465.37451 
L 383.489113 380.021758 
L 386.412803 390.798267 
L 389.336494 427.549919 
L 392.260184 493.300169 
L 395.183874 553.671628 
L 398.107564 522.739375 
L 401.031254 505.425644 
L 403.954944 548.134691 
L 406.878634 562.494962 
L 409.802324 517.404622 
L 412.726014 492.73234 
L 415.649704 499.088576 
L 418.573395 450.894118 
L 421.497085 491.65251 
L 424.420775 541.094737 
L 427.344465 476.388743 
L 430.268155 506.061334 
L 433.191845 496.710292 
L 436.115535 457.786037 
L 439.039225 524.051401 
L 441.962915 552.146328 
L 444.886605 478.555154 
L 447.810296 379.594093 
L 450.733986 379.71285 
L 453.657676 420.047461 
L 456.581366 449.304316 
L 459.505056 563.373308 
L 462.428746 466.894003 
L 465.352436 488.132726 
L 468.276126 413.404389 
L 471.199816 429.008372 
L 474.123506 480.70397 
L 477.047197 478.490231 
L 479.970887 380.588328 
L 482.894577 481.8454 
L 485.818267 487.691874 
L 488.741957 498.69981 
L 491.665647 464.921276 
L 494.589337 450.788024 
L 497.513027 513.277726 
L 500.436717 404.668889 
L 503.360408 335.33624 
L 506.284098 427.910842 
L 509.207788 509.128828 
L 512.131478 495.953641 
L 515.055168 490.398375 
L 517.978858 432.778612 
L 520.902548 491.098568 
L 523.826238 508.3068 
L 526.749928 463.840221 
L 532.597309 531.053017 
L 535.520999 455.788333 
L 538.444689 427.937916 
L 541.368379 470.398047 
L 544.292069 505.684285 
L 547.215759 391.481564 
L 550.139449 449.416076 
L 553.063139 388.474096 
L 555.986829 399.043803 
L 558.910519 353.03489 
L 561.83421 321.728159 
L 564.7579 380.269206 
L 567.68159 390.809075 
L 570.60528 475.999661 
L 573.52897 339.584691 
L 576.45266 345.722688 
L 579.37635 384.189685 
L 582.30004 362.252204 
L 585.22373 438.346296 
L 588.147421 405.075601 
L 591.071111 467.546763 
L 593.994801 510.856591 
L 596.918491 439.769769 
L 599.842181 496.802674 
L 602.765871 447.206675 
L 605.689561 450.760215 
L 608.613251 500.5287 
L 611.536941 536.068578 
L 614.460631 525.690246 
L 617.384322 423.919458 
L 620.308012 402.47271 
L 623.231702 428.555242 
L 626.155392 528.911581 
L 629.079082 514.100804 
L 632.002772 524.098869 
L 634.926462 512.073892 
L 637.850152 498.061181 
L 640.773842 457.446067 
L 643.697532 393.181518 
L 646.621223 469.449321 
L 649.544913 485.518781 
L 652.468603 537.059209 
L 655.392293 506.510511 
L 658.315983 429.957657 
L 661.239673 522.583959 
L 664.163363 454.041226 
L 667.087053 524.218221 
L 670.010743 499.250044 
L 672.934433 425.990059 
L 675.858124 443.462704 
L 678.781814 422.345432 
L 684.629194 494.505857 
L 687.552884 461.314041 
L 690.476574 565.715599 
L 693.400264 547.902669 
L 696.323954 557.659548 
L 699.247644 519.420025 
L 702.171335 473.503284 
L 705.095025 467.035357 
L 708.018715 463.488218 
L 710.942405 463.794432 
L 713.866095 462.0312 
L 716.789785 465.541539 
L 719.713475 464.077 
L 722.637165 461.154113 
L 725.560855 464.238607 
L 728.484545 461.709209 
L 728.484545 461.709209 
" style="fill:none;stroke:#dd8452;stroke-dasharray:6,2.25;stroke-dashoffset:0;stroke-width:1.5;"/>
   </g>
   <g id="line2d_3">
    <path clip-path="url(#p2875fe96af)" d="M 134.975455 447.671593 
L 137.899145 450.369174 
L 140.822835 450.896182 
L 143.746525 449.059596 
L 146.670215 455.835801 
L 149.593905 454.52206 
L 152.517595 455.434512 
L 155.441285 471.389412 
L 158.364975 471.552419 
L 161.288665 462.743566 
L 164.212356 463.901541 
L 167.136046 463.334412 
L 170.059736 471.539931 
L 172.983426 491.468866 
L 175.907116 507.946786 
L 178.830806 543.662543 
L 181.639567 596.44 
M 181.815012 596.44 
L 184.678186 494.264601 
L 187.601876 480.970447 
L 190.525567 470.78349 
L 193.449257 441.892595 
L 196.372947 434.101728 
L 199.296637 476.736548 
L 202.220327 502.714805 
L 205.144017 474.258326 
L 208.067707 420.037422 
L 210.991397 424.878782 
L 213.915087 477.200696 
L 216.838777 449.803374 
L 219.762468 448.85185 
L 222.686158 484.013036 
L 225.609848 442.308612 
L 228.533538 457.590114 
L 231.457228 516.161366 
L 234.380918 414.71813 
L 237.304608 479.934307 
L 240.228298 511.592953 
L 243.151988 478.792108 
L 246.075678 380.706525 
L 248.999369 443.87865 
L 251.923059 470.6796 
L 254.846749 581.344312 
L 255.962856 596.44 
M 258.389638 596.44 
L 260.694129 505.450899 
L 263.617819 553.803292 
L 266.541509 416.949954 
L 269.465199 429.292409 
L 272.388889 449.275037 
L 275.312579 471.573512 
L 278.23627 483.296752 
L 281.15996 449.080444 
L 284.08365 446.766627 
L 287.00734 341.097818 
L 289.93103 422.595083 
L 292.85472 415.951732 
L 295.77841 447.805986 
L 298.7021 525.527029 
L 301.62579 557.747348 
L 304.549481 514.118993 
L 307.473171 483.887738 
L 310.396861 503.367285 
L 313.320551 466.705636 
L 316.244241 443.984639 
L 319.167931 442.855068 
L 322.091621 463.742802 
L 325.015311 410.811713 
L 327.939001 488.512573 
L 330.862691 537.874136 
L 333.786382 514.927694 
L 336.710072 544.90538 
L 339.633762 588.845581 
L 342.527674 596.44 
M 342.560469 596.44 
L 345.481142 520.801137 
L 348.404832 472.460393 
L 351.328522 451.305587 
L 354.252212 437.684896 
L 357.175902 528.722585 
L 360.099592 380.835111 
L 363.023283 386.15832 
L 365.946973 425.996636 
L 368.870663 459.628604 
L 371.794353 361.599513 
L 374.718043 430.252957 
L 377.641733 457.794607 
L 380.565423 440.780024 
L 383.489113 369.595818 
L 386.412803 405.197436 
L 389.336494 443.769023 
L 392.260184 501.735822 
L 395.183874 534.797163 
L 398.107564 557.774562 
L 401.031254 501.33023 
L 403.954944 552.652278 
L 406.878634 562.488841 
L 409.802324 522.701351 
L 412.726014 463.553071 
L 415.649704 525.876758 
L 418.573395 494.331202 
L 421.497085 511.916238 
L 424.420775 556.562508 
L 427.344465 499.210132 
L 430.268155 513.601955 
L 433.191845 429.307835 
L 436.115535 377.125526 
L 439.039225 490.329815 
L 441.962915 473.081356 
L 444.886605 478.293469 
L 447.810296 424.329563 
L 450.733986 353.168391 
L 453.657676 383.344466 
L 456.581366 477.866609 
L 459.164514 596.44 
M 459.88307 596.44 
L 462.428746 491.170032 
L 465.352436 500.933837 
L 468.276126 433.734788 
L 471.199816 398.784672 
L 474.123506 412.704931 
L 477.047197 456.274624 
L 479.970887 369.719787 
L 482.894577 438.308378 
L 485.818267 461.37809 
L 488.741957 500.146229 
L 491.665647 434.559335 
L 494.589337 424.948882 
L 497.513027 451.139782 
L 500.436717 348.410632 
L 503.360408 354.141795 
L 506.284098 358.883165 
L 509.207788 495.069244 
L 512.131478 481.009065 
L 515.055168 376.589913 
L 517.978858 392.318879 
L 520.902548 415.178046 
L 523.826238 448.863883 
L 526.749928 495.391724 
L 529.673618 464.739065 
L 532.597309 458.77233 
L 535.520999 469.822382 
L 538.444689 461.488906 
L 541.368379 462.12561 
L 544.292069 484.091671 
L 547.215759 396.863085 
L 550.139449 484.610773 
L 553.063139 369.122295 
L 555.986829 329.122565 
L 558.910519 395.292557 
L 561.83421 349.152049 
L 564.7579 367.820062 
L 567.68159 405.610129 
L 570.60528 418.278002 
L 573.52897 394.5726 
L 576.45266 427.919202 
L 579.37635 387.536004 
L 582.30004 396.143443 
L 585.22373 446.304613 
L 588.147421 348.760904 
L 591.071111 360.927392 
L 593.994801 360.23395 
L 596.918491 352.763341 
L 599.842181 381.647065 
L 602.765871 374.273578 
L 605.689561 458.329974 
L 608.613251 455.542809 
L 611.536941 504.594031 
L 614.460631 494.173653 
L 617.384322 377.255196 
L 620.308012 369.785479 
L 623.231702 416.760957 
L 626.155392 496.593599 
L 629.079082 507.363286 
L 632.002772 542.553505 
L 634.926462 502.067886 
L 637.850152 484.722988 
L 640.773842 443.548335 
L 643.697532 421.795827 
L 646.621223 455.226346 
L 649.544913 462.554709 
L 652.468603 449.526718 
L 655.392293 535.363732 
L 658.315983 447.687159 
L 661.239673 448.985264 
L 664.163363 400.760198 
L 667.087053 471.431388 
L 670.010743 424.924781 
L 672.934433 432.220543 
L 675.858124 538.510981 
L 678.781814 475.57525 
L 681.705504 468.584897 
L 684.629194 468.926092 
L 687.552884 518.186493 
L 690.476574 541.955243 
L 693.400264 550.358819 
L 696.323954 576.306889 
L 702.171335 484.424714 
L 705.095025 472.946159 
L 708.018715 471.190307 
L 710.942405 474.984544 
L 713.866095 472.820861 
L 716.789785 475.988153 
L 719.713475 473.324956 
L 722.637165 473.409748 
L 725.560855 475.90462 
L 728.484545 473.604306 
L 728.484545 473.604306 
" style="fill:none;stroke:#55a868;stroke-dasharray:1.5,1.5;stroke-dashoffset:0;stroke-width:1.5;"/>
   </g>
   <g id="line2d_4">
    <path clip-path="url(#p2875fe96af)" d="M 134.975455 443.244779 
L 137.899145 446.488222 
L 140.822835 447.745296 
L 143.746525 446.313463 
L 149.593905 449.953053 
L 152.517595 448.167328 
L 155.441285 449.428879 
L 158.364975 450.266998 
L 161.288665 451.437216 
L 164.212356 452.082981 
L 167.136046 454.259361 
L 170.059736 476.942859 
L 172.983426 486.59298 
L 175.907116 502.728867 
L 178.830806 558.842254 
L 180.904568 596.44 
M 182.572859 596.44 
L 184.678186 556.797643 
L 187.601876 469.876111 
L 190.525567 547.94552 
L 193.449257 497.82741 
L 196.372947 478.396275 
L 199.296637 520.572089 
L 202.220327 483.777971 
L 205.144017 474.912485 
L 208.067707 554.953502 
L 210.991397 482.042372 
L 213.915087 498.427316 
L 216.838777 491.399396 
L 219.762468 492.707155 
L 222.686158 515.57902 
L 225.609848 486.644085 
L 228.533538 488.672116 
L 231.457228 523.271979 
L 234.380918 426.852979 
L 237.304608 472.409497 
L 240.228298 510.829202 
L 243.151988 469.641046 
L 246.075678 403.257764 
L 248.999369 423.214333 
L 251.923059 512.682193 
L 254.846749 553.928415 
L 257.770439 581.824936 
L 260.694129 496.195073 
L 263.617819 548.453673 
L 266.541509 413.232323 
L 269.465199 400.507748 
L 275.312579 483.603701 
L 278.23627 493.230245 
L 281.15996 482.014248 
L 284.08365 438.34899 
L 287.00734 456.539387 
L 289.93103 508.534554 
L 292.85472 465.850902 
L 295.77841 425.20532 
L 298.7021 499.606909 
L 301.62579 526.024793 
L 304.549481 501.835305 
L 307.473171 466.65558 
L 310.396861 456.395725 
L 313.320551 425.902015 
L 316.244241 425.235298 
L 319.167931 432.750034 
L 322.091621 456.390233 
L 325.015311 391.177309 
L 327.939001 465.75009 
L 330.862691 504.223699 
L 333.786382 461.519933 
L 336.710072 514.169924 
L 339.633762 558.190334 
L 342.557452 528.955971 
L 348.404832 380.555831 
L 351.328522 451.130792 
L 354.252212 412.297275 
L 357.175902 443.238868 
L 360.099592 351.775578 
L 363.023283 482.02894 
L 365.946973 405.344806 
L 368.870663 377.315536 
L 371.794353 398.497102 
L 374.718043 447.081377 
L 377.641733 446.68425 
L 380.565423 479.226069 
L 383.489113 377.298676 
L 386.412803 394.540558 
L 389.336494 428.815737 
L 395.183874 554.749499 
L 398.107564 528.052509 
L 401.031254 511.721504 
L 403.954944 542.918311 
L 406.878634 557.712333 
L 409.802324 521.053517 
L 412.726014 491.928432 
L 415.649704 500.842959 
L 418.573395 448.997752 
L 421.497085 494.656411 
L 424.420775 549.707178 
L 427.344465 480.921301 
L 430.268155 503.77669 
L 433.191845 491.806737 
L 436.115535 456.243247 
L 439.039225 523.152872 
L 441.962915 550.743179 
L 444.886605 476.331725 
L 447.810296 379.396597 
L 450.733986 375.819445 
L 453.657676 425.470608 
L 456.581366 449.74146 
L 459.505056 564.296533 
L 462.428746 465.992885 
L 465.352436 493.910919 
L 468.276126 416.180011 
L 471.199816 433.056353 
L 474.123506 488.925826 
L 477.047197 485.789911 
L 479.970887 380.073388 
L 482.894577 483.057105 
L 485.818267 488.528139 
L 488.741957 500.144096 
L 491.665647 467.920279 
L 494.589337 452.570391 
L 497.513027 514.190177 
L 500.436717 404.55419 
L 503.360408 334.484811 
L 506.284098 424.628256 
L 509.207788 509.737164 
L 512.131478 495.202168 
L 515.055168 491.881419 
L 517.978858 421.006855 
L 520.902548 488.110059 
L 523.826238 511.083331 
L 526.749928 461.449763 
L 529.673618 491.848048 
L 532.597309 531.686678 
L 535.520999 460.570438 
L 538.444689 434.373767 
L 541.368379 477.430654 
L 544.292069 512.996872 
L 547.215759 389.390605 
L 550.139449 451.128064 
L 553.063139 350.285293 
L 555.986829 414.606369 
L 558.910519 399.020052 
L 561.83421 352.576006 
L 564.7579 351.632055 
L 567.68159 284.130675 
L 570.60528 415.228277 
L 573.52897 392.27351 
L 576.45266 390.388757 
L 579.37635 397.084053 
L 582.30004 383.625389 
L 585.22373 472.501494 
L 588.147421 388.177536 
L 593.994801 524.718713 
L 596.918491 455.963933 
L 599.842181 492.682179 
L 602.765871 467.350386 
L 605.689561 457.570525 
L 608.613251 502.195633 
L 611.536941 534.516624 
L 614.460631 531.531542 
L 617.384322 422.858972 
L 620.308012 401.899844 
L 623.231702 431.339434 
L 626.155392 525.876793 
L 629.079082 515.446761 
L 632.002772 523.704925 
L 634.926462 514.452002 
L 637.850152 499.697157 
L 640.773842 458.313254 
L 643.697532 392.275574 
L 646.621223 474.584373 
L 649.544913 487.278621 
L 652.468603 539.394573 
L 655.392293 507.69703 
L 658.315983 429.557172 
L 661.239673 522.65063 
L 664.163363 454.124374 
L 667.087053 523.062729 
L 670.010743 500.253443 
L 672.934433 426.052953 
L 675.858124 443.16569 
L 678.781814 423.255399 
L 681.705504 456.839165 
L 684.629194 494.645777 
L 687.552884 462.380614 
L 690.476574 566.180587 
L 693.400264 547.489801 
L 696.323954 556.632783 
L 699.247644 520.599338 
L 702.171335 473.234708 
L 705.095025 467.3967 
L 708.018715 464.704575 
L 710.942405 466.11563 
L 713.866095 464.623981 
L 716.789785 467.167756 
L 719.713475 465.362477 
L 722.637165 464.311925 
L 725.560855 466.710149 
L 728.484545 465.461156 
L 728.484545 465.461156 
" style="fill:none;stroke:#c44e52;stroke-dasharray:4.5,1.875,2.25,1.875;stroke-dashoffset:0;stroke-width:1.5;"/>
   </g>
   <g id="line2d_5">
    <path clip-path="url(#p2875fe96af)" d="M 134.975455 446.641259 
L 137.899145 449.770528 
L 140.822835 450.91612 
L 143.746525 450.039594 
L 146.670215 451.522742 
L 149.593905 453.497778 
L 152.517595 452.54538 
L 155.441285 453.359293 
L 158.364975 454.32152 
L 161.288665 456.1431 
L 164.212356 455.620535 
L 167.136046 457.131178 
L 170.059736 477.538393 
L 172.983426 487.070351 
L 175.907116 501.114439 
L 178.830806 556.452706 
L 180.726335 596.44 
M 182.795315 596.44 
L 184.678186 557.202815 
L 187.601876 492.583011 
L 190.525567 553.067279 
L 193.449257 504.222369 
L 196.372947 485.36452 
L 199.296637 527.700402 
L 202.220327 483.200102 
L 205.144017 475.806222 
L 208.067707 556.771513 
L 210.991397 485.572266 
L 213.915087 492.507804 
L 216.838777 497.297465 
L 219.762468 488.217867 
L 222.686158 513.818131 
L 225.609848 496.93997 
L 228.533538 494.783983 
L 231.457228 525.872211 
L 234.380918 428.417036 
L 237.304608 471.489665 
L 240.228298 510.432215 
L 243.151988 467.993737 
L 246.075678 399.315702 
L 248.999369 414.482995 
L 251.923059 517.937226 
L 254.846749 556.563907 
L 257.770439 588.378284 
L 260.694129 495.219622 
L 263.617819 552.365442 
L 266.541509 415.531133 
L 269.465199 402.831359 
L 272.388889 440.095047 
L 275.312579 481.551709 
L 278.23627 496.291827 
L 281.15996 490.418733 
L 284.08365 446.934496 
L 287.00734 455.763778 
L 289.93103 507.834151 
L 292.85472 464.893047 
L 295.77841 418.114785 
L 298.7021 492.866348 
L 301.62579 523.028658 
L 304.549481 498.227021 
L 307.473171 460.529512 
L 310.396861 465.279855 
L 313.320551 422.076786 
L 316.244241 417.509493 
L 319.167931 431.408659 
L 322.091621 458.90375 
L 325.015311 398.965903 
L 327.939001 403.607948 
L 330.862691 479.869594 
L 333.786382 482.205099 
L 336.710072 484.776647 
L 339.633762 535.520617 
L 342.557452 532.875296 
L 345.481142 499.871147 
L 348.404832 415.030431 
L 351.328522 400.282652 
L 354.252212 502.931016 
L 357.175902 518.337466 
L 360.099592 491.524344 
L 363.023283 576.067591 
L 365.946973 472.068548 
L 368.870663 455.215257 
L 371.794353 436.833135 
L 377.641733 539.646044 
L 380.565423 539.065902 
L 383.489113 437.760662 
L 386.412803 395.771362 
L 389.336494 447.346175 
L 392.260184 523.073852 
L 395.183874 580.977407 
L 398.107564 522.115018 
L 401.031254 532.457006 
L 403.954944 557.619007 
L 406.878634 580.257416 
L 409.802324 539.045754 
L 412.726014 484.644773 
L 415.649704 532.379141 
L 418.573395 463.190504 
L 421.497085 510.951002 
L 424.420775 565.810219 
L 427.344465 497.357105 
L 430.268155 506.387556 
L 433.191845 493.446001 
L 436.115535 454.980192 
L 439.039225 516.566223 
L 441.962915 548.294339 
L 444.886605 480.571886 
L 447.810296 379.307748 
L 450.733986 371.305986 
L 453.657676 408.107205 
L 456.581366 435.976127 
L 459.505056 533.315728 
L 462.428746 446.699326 
L 465.352436 476.530131 
L 468.276126 413.24698 
L 471.199816 434.469017 
L 474.123506 493.878213 
L 477.047197 468.362915 
L 479.970887 378.837898 
L 482.894577 484.052528 
L 485.818267 485.933188 
L 488.741957 408.835627 
L 491.665647 470.245674 
L 494.589337 386.616452 
L 497.513027 452.327525 
L 500.436717 406.957345 
L 503.360408 380.005947 
L 506.284098 416.744097 
L 509.207788 366.570999 
L 512.131478 411.412388 
L 515.055168 379.53984 
L 517.978858 397.474499 
L 520.902548 419.041998 
L 523.826238 438.652545 
L 526.749928 449.554772 
L 529.673618 384.174084 
L 532.597309 389.259255 
L 535.520999 444.641387 
L 538.444689 395.302701 
L 541.368379 356.327008 
L 544.292069 296.367875 
L 547.215759 325.686627 
L 550.139449 357.265361 
L 553.063139 320.899328 
L 555.986829 318.175581 
L 558.910519 314.827251 
L 561.83421 325.041965 
L 564.7579 335.975078 
L 567.68159 332.259599 
L 570.60528 357.59008 
L 573.52897 380.224327 
L 576.45266 388.378356 
L 579.37635 398.962965 
L 582.30004 365.84793 
L 585.22373 441.443663 
L 588.147421 372.439895 
L 591.071111 440.615618 
L 593.994801 500.933802 
L 596.918491 447.779191 
L 599.842181 471.537028 
L 602.765871 463.880798 
L 605.689561 454.160998 
L 608.613251 488.755054 
L 611.536941 521.811287 
L 614.460631 523.939815 
L 617.384322 412.776605 
L 620.308012 401.615597 
L 623.231702 423.7858 
L 626.155392 514.810826 
L 629.079082 510.739583 
L 632.002772 517.52156 
L 634.926462 507.154876 
L 637.850152 492.389677 
L 640.773842 440.370514 
L 643.697532 385.698649 
L 646.621223 463.512424 
L 649.544913 474.471213 
L 652.468603 524.240468 
L 655.392293 494.282545 
L 658.315983 426.966034 
L 661.239673 505.144965 
L 664.163363 445.209321 
L 667.087053 513.438109 
L 670.010743 493.893534 
L 672.934433 424.879202 
L 675.858124 435.241688 
L 678.781814 406.721056 
L 681.705504 452.714368 
L 684.629194 485.964461 
L 687.552884 456.290925 
L 690.476574 551.823988 
L 693.400264 537.548473 
L 696.323954 550.762523 
L 699.247644 515.885689 
L 702.171335 466.556937 
L 705.095025 464.638253 
L 708.018715 461.679651 
L 710.942405 462.550616 
L 713.866095 461.002895 
L 716.789785 463.417804 
L 719.713475 461.814114 
L 722.637165 459.074312 
L 725.560855 462.903424 
L 728.484545 460.455564 
L 728.484545 460.455564 
" style="fill:none;stroke:#8172b3;stroke-dasharray:7.5,1.5,1.5,1.5;stroke-dashoffset:0;stroke-width:1.5;"/>
   </g>
   <g id="line2d_6"/>
   <g id="line2d_7"/>
   <g id="line2d_8"/>
   <g id="line2d_9"/>
   <g id="line2d_10"/>
   <g id="patch_3">
    <path d="M 105.3 529.9416 
L 105.3 71.4528 
" style="fill:none;stroke:#262626;stroke-linecap:square;stroke-linejoin:miter;stroke-width:1.25;"/>
   </g>
   <g id="patch_4">
    <path d="M 758.16 529.9416 
L 758.16 71.4528 
" style="fill:none;stroke:#262626;stroke-linecap:square;stroke-linejoin:miter;stroke-width:1.25;"/>
   </g>
   <g id="patch_5">
    <path d="M 105.3 529.9416 
L 758.16 529.9416 
" style="fill:none;stroke:#262626;stroke-linecap:square;stroke-linejoin:miter;stroke-width:1.25;"/>
   </g>
   <g id="patch_6">
    <path d="M 105.3 71.4528 
L 758.16 71.4528 
" style="fill:none;stroke:#262626;stroke-linecap:square;stroke-linejoin:miter;stroke-width:1.25;"/>
   </g>
   <g id="text_16">
    <!-- Activations for &gt;_&lt; -->
    <g style="fill:#262626;" transform="translate(382.037813 65.4528)scale(0.12 -0.12)">
     <defs>
      <path d="M -9 0 
L 1750 4581 
L 2403 4581 
L 4278 0 
L 3588 0 
L 3053 1388 
L 1138 1388 
L 634 0 
L -9 0 
z
M 1313 1881 
L 2866 1881 
L 2388 3150 
Q 2169 3728 2063 4100 
Q 1975 3659 1816 3225 
L 1313 1881 
z
" id="ArialMT-41" transform="scale(0.015625)"/>
      <path d="M 2588 1216 
L 3141 1144 
Q 3050 572 2676 248 
Q 2303 -75 1759 -75 
Q 1078 -75 664 370 
Q 250 816 250 1647 
Q 250 2184 428 2587 
Q 606 2991 970 3192 
Q 1334 3394 1763 3394 
Q 2303 3394 2647 3120 
Q 2991 2847 3088 2344 
L 2541 2259 
Q 2463 2594 2264 2762 
Q 2066 2931 1784 2931 
Q 1359 2931 1093 2626 
Q 828 2322 828 1663 
Q 828 994 1084 691 
Q 1341 388 1753 388 
Q 2084 388 2306 591 
Q 2528 794 2588 1216 
z
" id="ArialMT-63" transform="scale(0.015625)"/>
      <path d="M 1650 503 
L 1731 6 
Q 1494 -44 1306 -44 
Q 1000 -44 831 53 
Q 663 150 594 308 
Q 525 466 525 972 
L 525 2881 
L 113 2881 
L 113 3319 
L 525 3319 
L 525 4141 
L 1084 4478 
L 1084 3319 
L 1650 3319 
L 1650 2881 
L 1084 2881 
L 1084 941 
Q 1084 700 1114 631 
Q 1144 563 1211 522 
Q 1278 481 1403 481 
Q 1497 481 1650 503 
z
" id="ArialMT-74" transform="scale(0.015625)"/>
      <path d="M 425 3934 
L 425 4581 
L 988 4581 
L 988 3934 
L 425 3934 
z
M 425 0 
L 425 3319 
L 988 3319 
L 988 0 
L 425 0 
z
" id="ArialMT-69" transform="scale(0.015625)"/>
      <path d="M 1344 0 
L 81 3319 
L 675 3319 
L 1388 1331 
Q 1503 1009 1600 663 
Q 1675 925 1809 1294 
L 2547 3319 
L 3125 3319 
L 1869 0 
L 1344 0 
z
" id="ArialMT-76" transform="scale(0.015625)"/>
      <path d="M 2588 409 
Q 2275 144 1986 34 
Q 1697 -75 1366 -75 
Q 819 -75 525 192 
Q 231 459 231 875 
Q 231 1119 342 1320 
Q 453 1522 633 1644 
Q 813 1766 1038 1828 
Q 1203 1872 1538 1913 
Q 2219 1994 2541 2106 
Q 2544 2222 2544 2253 
Q 2544 2597 2384 2738 
Q 2169 2928 1744 2928 
Q 1347 2928 1158 2789 
Q 969 2650 878 2297 
L 328 2372 
Q 403 2725 575 2942 
Q 747 3159 1072 3276 
Q 1397 3394 1825 3394 
Q 2250 3394 2515 3294 
Q 2781 3194 2906 3042 
Q 3031 2891 3081 2659 
Q 3109 2516 3109 2141 
L 3109 1391 
Q 3109 606 3145 398 
Q 3181 191 3288 0 
L 2700 0 
Q 2613 175 2588 409 
z
M 2541 1666 
Q 2234 1541 1622 1453 
Q 1275 1403 1131 1340 
Q 988 1278 909 1158 
Q 831 1038 831 891 
Q 831 666 1001 516 
Q 1172 366 1500 366 
Q 1825 366 2078 508 
Q 2331 650 2450 897 
Q 2541 1088 2541 1459 
L 2541 1666 
z
" id="ArialMT-61" transform="scale(0.015625)"/>
      <path d="M 213 1659 
Q 213 2581 725 3025 
Q 1153 3394 1769 3394 
Q 2453 3394 2887 2945 
Q 3322 2497 3322 1706 
Q 3322 1066 3130 698 
Q 2938 331 2570 128 
Q 2203 -75 1769 -75 
Q 1072 -75 642 372 
Q 213 819 213 1659 
z
M 791 1659 
Q 791 1022 1069 705 
Q 1347 388 1769 388 
Q 2188 388 2466 706 
Q 2744 1025 2744 1678 
Q 2744 2294 2464 2611 
Q 2184 2928 1769 2928 
Q 1347 2928 1069 2612 
Q 791 2297 791 1659 
z
" id="ArialMT-6f" transform="scale(0.015625)"/>
      <path d="M 422 0 
L 422 3319 
L 928 3319 
L 928 2847 
Q 1294 3394 1984 3394 
Q 2284 3394 2536 3286 
Q 2788 3178 2913 3003 
Q 3038 2828 3088 2588 
Q 3119 2431 3119 2041 
L 3119 0 
L 2556 0 
L 2556 2019 
Q 2556 2363 2490 2533 
Q 2425 2703 2258 2804 
Q 2091 2906 1866 2906 
Q 1506 2906 1245 2678 
Q 984 2450 984 1813 
L 984 0 
L 422 0 
z
" id="ArialMT-6e" transform="scale(0.015625)"/>
      <path d="M 197 991 
L 753 1078 
Q 800 744 1014 566 
Q 1228 388 1613 388 
Q 2000 388 2187 545 
Q 2375 703 2375 916 
Q 2375 1106 2209 1216 
Q 2094 1291 1634 1406 
Q 1016 1563 777 1677 
Q 538 1791 414 1992 
Q 291 2194 291 2438 
Q 291 2659 392 2848 
Q 494 3038 669 3163 
Q 800 3259 1026 3326 
Q 1253 3394 1513 3394 
Q 1903 3394 2198 3281 
Q 2494 3169 2634 2976 
Q 2775 2784 2828 2463 
L 2278 2388 
Q 2241 2644 2061 2787 
Q 1881 2931 1553 2931 
Q 1166 2931 1000 2803 
Q 834 2675 834 2503 
Q 834 2394 903 2306 
Q 972 2216 1119 2156 
Q 1203 2125 1616 2013 
Q 2213 1853 2448 1751 
Q 2684 1650 2818 1456 
Q 2953 1263 2953 975 
Q 2953 694 2789 445 
Q 2625 197 2315 61 
Q 2006 -75 1616 -75 
Q 969 -75 630 194 
Q 291 463 197 991 
z
" id="ArialMT-73" transform="scale(0.015625)"/>
      <path id="ArialMT-20" transform="scale(0.015625)"/>
      <path d="M 556 0 
L 556 2881 
L 59 2881 
L 59 3319 
L 556 3319 
L 556 3672 
Q 556 4006 616 4169 
Q 697 4388 901 4523 
Q 1106 4659 1475 4659 
Q 1713 4659 2000 4603 
L 1916 4113 
Q 1741 4144 1584 4144 
Q 1328 4144 1222 4034 
Q 1116 3925 1116 3625 
L 1116 3319 
L 1763 3319 
L 1763 2881 
L 1116 2881 
L 1116 0 
L 556 0 
z
" id="ArialMT-66" transform="scale(0.015625)"/>
      <path d="M 416 0 
L 416 3319 
L 922 3319 
L 922 2816 
Q 1116 3169 1280 3281 
Q 1444 3394 1641 3394 
Q 1925 3394 2219 3213 
L 2025 2691 
Q 1819 2813 1613 2813 
Q 1428 2813 1281 2702 
Q 1134 2591 1072 2394 
Q 978 2094 978 1738 
L 978 0 
L 416 0 
z
" id="ArialMT-72" transform="scale(0.015625)"/>
      <path d="M 3384 2003 
L 350 706 
L 350 1266 
L 2753 2263 
L 350 3250 
L 350 3809 
L 3384 2528 
L 3384 2003 
z
" id="ArialMT-3e" transform="scale(0.015625)"/>
      <path d="M -97 -1272 
L -97 -866 
L 3631 -866 
L 3631 -1272 
L -97 -1272 
z
" id="ArialMT-5f" transform="scale(0.015625)"/>
      <path d="M 350 2003 
L 350 2528 
L 3384 3809 
L 3384 3250 
L 978 2263 
L 3384 1266 
L 3384 706 
L 350 2003 
z
" id="ArialMT-3c" transform="scale(0.015625)"/>
     </defs>
     <use xlink:href="#ArialMT-41"/>
     <use x="66.699219" xlink:href="#ArialMT-63"/>
     <use x="116.699219" xlink:href="#ArialMT-74"/>
     <use x="144.482422" xlink:href="#ArialMT-69"/>
     <use x="166.699219" xlink:href="#ArialMT-76"/>
     <use x="216.699219" xlink:href="#ArialMT-61"/>
     <use x="272.314453" xlink:href="#ArialMT-74"/>
     <use x="300.097656" xlink:href="#ArialMT-69"/>
     <use x="322.314453" xlink:href="#ArialMT-6f"/>
     <use x="377.929688" xlink:href="#ArialMT-6e"/>
     <use x="433.544922" xlink:href="#ArialMT-73"/>
     <use x="483.544922" xlink:href="#ArialMT-20"/>
     <use x="511.328125" xlink:href="#ArialMT-66"/>
     <use x="539.111328" xlink:href="#ArialMT-6f"/>
     <use x="594.726562" xlink:href="#ArialMT-72"/>
     <use x="628.027344" xlink:href="#ArialMT-20"/>
     <use x="655.810547" xlink:href="#ArialMT-3e"/>
     <use x="714.208984" xlink:href="#ArialMT-5f"/>
     <use x="769.824219" xlink:href="#ArialMT-3c"/>
    </g>
   </g>
   <g id="legend_1">
    <g id="patch_7">
     <path d="M 640.044062 158.514363 
L 750.46 158.514363 
Q 752.66 158.514363 752.66 156.314363 
L 752.66 79.1528 
Q 752.66 76.9528 750.46 76.9528 
L 640.044062 76.9528 
Q 637.844062 76.9528 637.844062 79.1528 
L 637.844062 156.314363 
Q 637.844062 158.514363 640.044062 158.514363 
z
" style="fill:#ffffff;opacity:0.8;stroke:#cccccc;stroke-linejoin:miter;"/>
    </g>
    <g id="line2d_11">
     <path d="M 642.244062 85.376394 
L 664.244062 85.376394 
" style="fill:none;stroke:#4c72b0;stroke-linecap:round;stroke-width:1.5;"/>
    </g>
    <g id="line2d_12"/>
    <g id="text_17">
     <!-- regular -->
     <g style="fill:#262626;" transform="translate(673.044062 89.226394)scale(0.11 -0.11)">
      <defs>
       <path d="M 2694 1069 
L 3275 997 
Q 3138 488 2766 206 
Q 2394 -75 1816 -75 
Q 1088 -75 661 373 
Q 234 822 234 1631 
Q 234 2469 665 2931 
Q 1097 3394 1784 3394 
Q 2450 3394 2872 2941 
Q 3294 2488 3294 1666 
Q 3294 1616 3291 1516 
L 816 1516 
Q 847 969 1125 678 
Q 1403 388 1819 388 
Q 2128 388 2347 550 
Q 2566 713 2694 1069 
z
M 847 1978 
L 2700 1978 
Q 2663 2397 2488 2606 
Q 2219 2931 1791 2931 
Q 1403 2931 1139 2672 
Q 875 2413 847 1978 
z
" id="ArialMT-65" transform="scale(0.015625)"/>
       <path d="M 319 -275 
L 866 -356 
Q 900 -609 1056 -725 
Q 1266 -881 1628 -881 
Q 2019 -881 2231 -725 
Q 2444 -569 2519 -288 
Q 2563 -116 2559 434 
Q 2191 0 1641 0 
Q 956 0 581 494 
Q 206 988 206 1678 
Q 206 2153 378 2554 
Q 550 2956 876 3175 
Q 1203 3394 1644 3394 
Q 2231 3394 2613 2919 
L 2613 3319 
L 3131 3319 
L 3131 450 
Q 3131 -325 2973 -648 
Q 2816 -972 2473 -1159 
Q 2131 -1347 1631 -1347 
Q 1038 -1347 672 -1080 
Q 306 -813 319 -275 
z
M 784 1719 
Q 784 1066 1043 766 
Q 1303 466 1694 466 
Q 2081 466 2343 764 
Q 2606 1063 2606 1700 
Q 2606 2309 2336 2618 
Q 2066 2928 1684 2928 
Q 1309 2928 1046 2623 
Q 784 2319 784 1719 
z
" id="ArialMT-67" transform="scale(0.015625)"/>
       <path d="M 2597 0 
L 2597 488 
Q 2209 -75 1544 -75 
Q 1250 -75 995 37 
Q 741 150 617 320 
Q 494 491 444 738 
Q 409 903 409 1263 
L 409 3319 
L 972 3319 
L 972 1478 
Q 972 1038 1006 884 
Q 1059 663 1231 536 
Q 1403 409 1656 409 
Q 1909 409 2131 539 
Q 2353 669 2445 892 
Q 2538 1116 2538 1541 
L 2538 3319 
L 3100 3319 
L 3100 0 
L 2597 0 
z
" id="ArialMT-75" transform="scale(0.015625)"/>
       <path d="M 409 0 
L 409 4581 
L 972 4581 
L 972 0 
L 409 0 
z
" id="ArialMT-6c" transform="scale(0.015625)"/>
      </defs>
      <use xlink:href="#ArialMT-72"/>
      <use x="33.300781" xlink:href="#ArialMT-65"/>
      <use x="88.916016" xlink:href="#ArialMT-67"/>
      <use x="144.53125" xlink:href="#ArialMT-75"/>
      <use x="200.146484" xlink:href="#ArialMT-6c"/>
      <use x="222.363281" xlink:href="#ArialMT-61"/>
      <use x="277.978516" xlink:href="#ArialMT-72"/>
     </g>
    </g>
    <g id="line2d_13">
     <path d="M 642.244062 101.0978 
L 664.244062 101.0978 
" style="fill:none;stroke:#dd8452;stroke-dasharray:6,2.25;stroke-dashoffset:0;stroke-width:1.5;"/>
    </g>
    <g id="line2d_14"/>
    <g id="text_18">
     <!-- splitted_3s -->
     <g style="fill:#262626;" transform="translate(673.044062 104.9478)scale(0.11 -0.11)">
      <defs>
       <path d="M 422 -1272 
L 422 3319 
L 934 3319 
L 934 2888 
Q 1116 3141 1344 3267 
Q 1572 3394 1897 3394 
Q 2322 3394 2647 3175 
Q 2972 2956 3137 2557 
Q 3303 2159 3303 1684 
Q 3303 1175 3120 767 
Q 2938 359 2589 142 
Q 2241 -75 1856 -75 
Q 1575 -75 1351 44 
Q 1128 163 984 344 
L 984 -1272 
L 422 -1272 
z
M 931 1641 
Q 931 1000 1190 694 
Q 1450 388 1819 388 
Q 2194 388 2461 705 
Q 2728 1022 2728 1688 
Q 2728 2322 2467 2637 
Q 2206 2953 1844 2953 
Q 1484 2953 1207 2617 
Q 931 2281 931 1641 
z
" id="ArialMT-70" transform="scale(0.015625)"/>
       <path d="M 2575 0 
L 2575 419 
Q 2259 -75 1647 -75 
Q 1250 -75 917 144 
Q 584 363 401 755 
Q 219 1147 219 1656 
Q 219 2153 384 2558 
Q 550 2963 881 3178 
Q 1213 3394 1622 3394 
Q 1922 3394 2156 3267 
Q 2391 3141 2538 2938 
L 2538 4581 
L 3097 4581 
L 3097 0 
L 2575 0 
z
M 797 1656 
Q 797 1019 1065 703 
Q 1334 388 1700 388 
Q 2069 388 2326 689 
Q 2584 991 2584 1609 
Q 2584 2291 2321 2609 
Q 2059 2928 1675 2928 
Q 1300 2928 1048 2622 
Q 797 2316 797 1656 
z
" id="ArialMT-64" transform="scale(0.015625)"/>
       <path d="M 269 1209 
L 831 1284 
Q 928 806 1161 595 
Q 1394 384 1728 384 
Q 2125 384 2398 659 
Q 2672 934 2672 1341 
Q 2672 1728 2419 1979 
Q 2166 2231 1775 2231 
Q 1616 2231 1378 2169 
L 1441 2663 
Q 1497 2656 1531 2656 
Q 1891 2656 2178 2843 
Q 2466 3031 2466 3422 
Q 2466 3731 2256 3934 
Q 2047 4138 1716 4138 
Q 1388 4138 1169 3931 
Q 950 3725 888 3313 
L 325 3413 
Q 428 3978 793 4289 
Q 1159 4600 1703 4600 
Q 2078 4600 2393 4439 
Q 2709 4278 2876 4000 
Q 3044 3722 3044 3409 
Q 3044 3113 2884 2869 
Q 2725 2625 2413 2481 
Q 2819 2388 3044 2092 
Q 3269 1797 3269 1353 
Q 3269 753 2831 336 
Q 2394 -81 1725 -81 
Q 1122 -81 723 278 
Q 325 638 269 1209 
z
" id="ArialMT-33" transform="scale(0.015625)"/>
      </defs>
      <use xlink:href="#ArialMT-73"/>
      <use x="50" xlink:href="#ArialMT-70"/>
      <use x="105.615234" xlink:href="#ArialMT-6c"/>
      <use x="127.832031" xlink:href="#ArialMT-69"/>
      <use x="150.048828" xlink:href="#ArialMT-74"/>
      <use x="177.832031" xlink:href="#ArialMT-74"/>
      <use x="205.615234" xlink:href="#ArialMT-65"/>
      <use x="261.230469" xlink:href="#ArialMT-64"/>
      <use x="316.845703" xlink:href="#ArialMT-5f"/>
      <use x="372.460938" xlink:href="#ArialMT-33"/>
      <use x="428.076172" xlink:href="#ArialMT-73"/>
     </g>
    </g>
    <g id="line2d_15">
     <path d="M 642.244062 116.6903 
L 664.244062 116.6903 
" style="fill:none;stroke:#55a868;stroke-dasharray:1.5,1.5;stroke-dashoffset:0;stroke-width:1.5;"/>
    </g>
    <g id="line2d_16"/>
    <g id="text_19">
     <!-- splitted_1s -->
     <g style="fill:#262626;" transform="translate(673.044062 120.5403)scale(0.11 -0.11)">
      <use xlink:href="#ArialMT-73"/>
      <use x="50" xlink:href="#ArialMT-70"/>
      <use x="105.615234" xlink:href="#ArialMT-6c"/>
      <use x="127.832031" xlink:href="#ArialMT-69"/>
      <use x="150.048828" xlink:href="#ArialMT-74"/>
      <use x="177.832031" xlink:href="#ArialMT-74"/>
      <use x="205.615234" xlink:href="#ArialMT-65"/>
      <use x="261.230469" xlink:href="#ArialMT-64"/>
      <use x="316.845703" xlink:href="#ArialMT-5f"/>
      <use x="372.460938" xlink:href="#ArialMT-31"/>
      <use x="428.076172" xlink:href="#ArialMT-73"/>
     </g>
    </g>
    <g id="line2d_17">
     <path d="M 642.244062 132.384206 
L 664.244062 132.384206 
" style="fill:none;stroke:#c44e52;stroke-dasharray:4.5,1.875,2.25,1.875;stroke-dashoffset:0;stroke-width:1.5;"/>
    </g>
    <g id="line2d_18"/>
    <g id="text_20">
     <!-- overlap_1f_3s -->
     <g style="fill:#262626;" transform="translate(673.044062 136.234206)scale(0.11 -0.11)">
      <use xlink:href="#ArialMT-6f"/>
      <use x="55.615234" xlink:href="#ArialMT-76"/>
      <use x="105.615234" xlink:href="#ArialMT-65"/>
      <use x="161.230469" xlink:href="#ArialMT-72"/>
      <use x="194.53125" xlink:href="#ArialMT-6c"/>
      <use x="216.748047" xlink:href="#ArialMT-61"/>
      <use x="272.363281" xlink:href="#ArialMT-70"/>
      <use x="327.978516" xlink:href="#ArialMT-5f"/>
      <use x="383.59375" xlink:href="#ArialMT-31"/>
      <use x="439.208984" xlink:href="#ArialMT-66"/>
      <use x="466.992188" xlink:href="#ArialMT-5f"/>
      <use x="522.607422" xlink:href="#ArialMT-33"/>
      <use x="578.222656" xlink:href="#ArialMT-73"/>
     </g>
    </g>
    <g id="line2d_19">
     <path d="M 642.244062 148.078113 
L 664.244062 148.078113 
" style="fill:none;stroke:#8172b3;stroke-dasharray:7.5,1.5,1.5,1.5;stroke-dashoffset:0;stroke-width:1.5;"/>
    </g>
    <g id="line2d_20"/>
    <g id="text_21">
     <!-- overlap_10f_3s -->
     <g style="fill:#262626;" transform="translate(673.044062 151.928112)scale(0.11 -0.11)">
      <use xlink:href="#ArialMT-6f"/>
      <use x="55.615234" xlink:href="#ArialMT-76"/>
      <use x="105.615234" xlink:href="#ArialMT-65"/>
      <use x="161.230469" xlink:href="#ArialMT-72"/>
      <use x="194.53125" xlink:href="#ArialMT-6c"/>
      <use x="216.748047" xlink:href="#ArialMT-61"/>
      <use x="272.363281" xlink:href="#ArialMT-70"/>
      <use x="327.978516" xlink:href="#ArialMT-5f"/>
      <use x="383.59375" xlink:href="#ArialMT-31"/>
      <use x="439.208984" xlink:href="#ArialMT-30"/>
      <use x="494.824219" xlink:href="#ArialMT-66"/>
      <use x="522.607422" xlink:href="#ArialMT-5f"/>
      <use x="578.222656" xlink:href="#ArialMT-33"/>
      <use x="633.837891" xlink:href="#ArialMT-73"/>
     </g>
    </g>
   </g>
  </g>
 </g>
 <defs>
  <clipPath id="p2875fe96af">
   <rect height="458.4888" width="652.86" x="105.3" y="71.4528"/>
  </clipPath>
 </defs>
</svg>
