<?xml version="1.0" encoding="utf-8" standalone="no"?>
<!DOCTYPE svg PUBLIC "-//W3C//DTD SVG 1.1//EN"
  "http://www.w3.org/Graphics/SVG/1.1/DTD/svg11.dtd">
<svg height="595.44pt" version="1.1" viewBox="0 0 842.4 595.44" width="842.4pt" xmlns="http://www.w3.org/2000/svg" xmlns:xlink="http://www.w3.org/1999/xlink">
 <metadata>
  <rdf:RDF xmlns:cc="http://creativecommons.org/ns#" xmlns:dc="http://purl.org/dc/elements/1.1/" xmlns:rdf="http://www.w3.org/1999/02/22-rdf-syntax-ns#">
   <cc:Work>
    <dc:type rdf:resource="http://purl.org/dc/dcmitype/StillImage"/>
    <dc:date>2021-06-01T00:54:12.848589</dc:date>
    <dc:format>image/svg+xml</dc:format>
    <dc:creator>
     <cc:Agent>
      <dc:title>Matplotlib v3.4.1, https://matplotlib.org/</dc:title>
     </cc:Agent>
    </dc:creator>
   </cc:Work>
  </rdf:RDF>
 </metadata>
 <defs>
  <style type="text/css">*{stroke-linecap:butt;stroke-linejoin:round;}</style>
 </defs>
 <g id="figure_1">
  <g id="patch_1">
   <path d="M 0 595.44 
L 842.4 595.44 
L 842.4 0 
L 0 0 
z
" style="fill:#ffffff;"/>
  </g>
  <g id="axes_1">
   <g id="patch_2">
    <path d="M 105.3 529.9416 
L 758.16 529.9416 
L 758.16 71.4528 
L 105.3 71.4528 
z
" style="fill:#ffffff;"/>
   </g>
   <g id="matplotlib.axis_1">
    <g id="xtick_1">
     <g id="text_1">
      <!-- 0 -->
      <g style="fill:#262626;" transform="translate(131.916939 547.315194)scale(0.11 -0.11)">
       <defs>
        <path d="M 266 2259 
Q 266 3072 433 3567 
Q 600 4063 929 4331 
Q 1259 4600 1759 4600 
Q 2128 4600 2406 4451 
Q 2684 4303 2865 4023 
Q 3047 3744 3150 3342 
Q 3253 2941 3253 2259 
Q 3253 1453 3087 958 
Q 2922 463 2592 192 
Q 2263 -78 1759 -78 
Q 1097 -78 719 397 
Q 266 969 266 2259 
z
M 844 2259 
Q 844 1131 1108 757 
Q 1372 384 1759 384 
Q 2147 384 2411 759 
Q 2675 1134 2675 2259 
Q 2675 3391 2411 3762 
Q 2147 4134 1753 4134 
Q 1366 4134 1134 3806 
Q 844 3388 844 2259 
z
" id="ArialMT-30" transform="scale(0.015625)"/>
       </defs>
       <use xlink:href="#ArialMT-30"/>
      </g>
     </g>
    </g>
    <g id="xtick_2">
     <g id="text_2">
      <!-- 25 -->
      <g style="fill:#262626;" transform="translate(201.950676 547.315194)scale(0.11 -0.11)">
       <defs>
        <path d="M 3222 541 
L 3222 0 
L 194 0 
Q 188 203 259 391 
Q 375 700 629 1000 
Q 884 1300 1366 1694 
Q 2113 2306 2375 2664 
Q 2638 3022 2638 3341 
Q 2638 3675 2398 3904 
Q 2159 4134 1775 4134 
Q 1369 4134 1125 3890 
Q 881 3647 878 3216 
L 300 3275 
Q 359 3922 746 4261 
Q 1134 4600 1788 4600 
Q 2447 4600 2831 4234 
Q 3216 3869 3216 3328 
Q 3216 3053 3103 2787 
Q 2991 2522 2730 2228 
Q 2469 1934 1863 1422 
Q 1356 997 1212 845 
Q 1069 694 975 541 
L 3222 541 
z
" id="ArialMT-32" transform="scale(0.015625)"/>
        <path d="M 266 1200 
L 856 1250 
Q 922 819 1161 601 
Q 1400 384 1738 384 
Q 2144 384 2425 690 
Q 2706 997 2706 1503 
Q 2706 1984 2436 2262 
Q 2166 2541 1728 2541 
Q 1456 2541 1237 2417 
Q 1019 2294 894 2097 
L 366 2166 
L 809 4519 
L 3088 4519 
L 3088 3981 
L 1259 3981 
L 1013 2750 
Q 1425 3038 1878 3038 
Q 2478 3038 2890 2622 
Q 3303 2206 3303 1553 
Q 3303 931 2941 478 
Q 2500 -78 1738 -78 
Q 1113 -78 717 272 
Q 322 622 266 1200 
z
" id="ArialMT-35" transform="scale(0.015625)"/>
       </defs>
       <use xlink:href="#ArialMT-32"/>
       <use x="55.615234" xlink:href="#ArialMT-35"/>
      </g>
     </g>
    </g>
    <g id="xtick_3">
     <g id="text_3">
      <!-- 50 -->
      <g style="fill:#262626;" transform="translate(275.042928 547.315194)scale(0.11 -0.11)">
       <use xlink:href="#ArialMT-35"/>
       <use x="55.615234" xlink:href="#ArialMT-30"/>
      </g>
     </g>
    </g>
    <g id="xtick_4">
     <g id="text_4">
      <!-- 75 -->
      <g style="fill:#262626;" transform="translate(348.135181 547.315194)scale(0.11 -0.11)">
       <defs>
        <path d="M 303 3981 
L 303 4522 
L 3269 4522 
L 3269 4084 
Q 2831 3619 2401 2847 
Q 1972 2075 1738 1259 
Q 1569 684 1522 0 
L 944 0 
Q 953 541 1156 1306 
Q 1359 2072 1739 2783 
Q 2119 3494 2547 3981 
L 303 3981 
z
" id="ArialMT-37" transform="scale(0.015625)"/>
       </defs>
       <use xlink:href="#ArialMT-37"/>
       <use x="55.615234" xlink:href="#ArialMT-35"/>
      </g>
     </g>
    </g>
    <g id="xtick_5">
     <g id="text_5">
      <!-- 100 -->
      <g style="fill:#262626;" transform="translate(418.168918 547.315194)scale(0.11 -0.11)">
       <defs>
        <path d="M 2384 0 
L 1822 0 
L 1822 3584 
Q 1619 3391 1289 3197 
Q 959 3003 697 2906 
L 697 3450 
Q 1169 3672 1522 3987 
Q 1875 4303 2022 4600 
L 2384 4600 
L 2384 0 
z
" id="ArialMT-31" transform="scale(0.015625)"/>
       </defs>
       <use xlink:href="#ArialMT-31"/>
       <use x="55.615234" xlink:href="#ArialMT-30"/>
       <use x="111.230469" xlink:href="#ArialMT-30"/>
      </g>
     </g>
    </g>
    <g id="xtick_6">
     <g id="text_6">
      <!-- 125 -->
      <g style="fill:#262626;" transform="translate(491.261171 547.315194)scale(0.11 -0.11)">
       <use xlink:href="#ArialMT-31"/>
       <use x="55.615234" xlink:href="#ArialMT-32"/>
       <use x="111.230469" xlink:href="#ArialMT-35"/>
      </g>
     </g>
    </g>
    <g id="xtick_7">
     <g id="text_7">
      <!-- 150 -->
      <g style="fill:#262626;" transform="translate(564.353423 547.315194)scale(0.11 -0.11)">
       <use xlink:href="#ArialMT-31"/>
       <use x="55.615234" xlink:href="#ArialMT-35"/>
       <use x="111.230469" xlink:href="#ArialMT-30"/>
      </g>
     </g>
    </g>
    <g id="xtick_8">
     <g id="text_8">
      <!-- 175 -->
      <g style="fill:#262626;" transform="translate(637.445676 547.315194)scale(0.11 -0.11)">
       <use xlink:href="#ArialMT-31"/>
       <use x="55.615234" xlink:href="#ArialMT-37"/>
       <use x="111.230469" xlink:href="#ArialMT-35"/>
      </g>
     </g>
    </g>
    <g id="xtick_9">
     <g id="text_9">
      <!-- 200 -->
      <g style="fill:#262626;" transform="translate(710.537928 547.315194)scale(0.11 -0.11)">
       <use xlink:href="#ArialMT-32"/>
       <use x="55.615234" xlink:href="#ArialMT-30"/>
       <use x="111.230469" xlink:href="#ArialMT-30"/>
      </g>
     </g>
    </g>
   </g>
   <g id="matplotlib.axis_2">
    <g id="ytick_1">
     <g id="text_10">
      <!-- −25 -->
      <g style="fill:#262626;" transform="translate(77.14125 533.878397)scale(0.11 -0.11)">
       <defs>
        <path d="M 3381 1997 
L 356 1997 
L 356 2522 
L 3381 2522 
L 3381 1997 
z
" id="ArialMT-2212" transform="scale(0.015625)"/>
       </defs>
       <use xlink:href="#ArialMT-2212"/>
       <use x="58.398438" xlink:href="#ArialMT-32"/>
       <use x="114.013672" xlink:href="#ArialMT-35"/>
      </g>
     </g>
    </g>
    <g id="ytick_2">
     <g id="text_11">
      <!-- −20 -->
      <g style="fill:#262626;" transform="translate(77.14125 442.180637)scale(0.11 -0.11)">
       <use xlink:href="#ArialMT-2212"/>
       <use x="58.398438" xlink:href="#ArialMT-32"/>
       <use x="114.013672" xlink:href="#ArialMT-30"/>
      </g>
     </g>
    </g>
    <g id="ytick_3">
     <g id="text_12">
      <!-- −15 -->
      <g style="fill:#262626;" transform="translate(77.14125 350.482877)scale(0.11 -0.11)">
       <use xlink:href="#ArialMT-2212"/>
       <use x="58.398438" xlink:href="#ArialMT-31"/>
       <use x="114.013672" xlink:href="#ArialMT-35"/>
      </g>
     </g>
    </g>
    <g id="ytick_4">
     <g id="text_13">
      <!-- −10 -->
      <g style="fill:#262626;" transform="translate(77.14125 258.785117)scale(0.11 -0.11)">
       <use xlink:href="#ArialMT-2212"/>
       <use x="58.398438" xlink:href="#ArialMT-31"/>
       <use x="114.013672" xlink:href="#ArialMT-30"/>
      </g>
     </g>
    </g>
    <g id="ytick_5">
     <g id="text_14">
      <!-- −5 -->
      <g style="fill:#262626;" transform="translate(83.258281 167.087357)scale(0.11 -0.11)">
       <use xlink:href="#ArialMT-2212"/>
       <use x="58.398438" xlink:href="#ArialMT-35"/>
      </g>
     </g>
    </g>
    <g id="ytick_6">
     <g id="text_15">
      <!-- 0 -->
      <g style="fill:#262626;" transform="translate(89.682969 75.389597)scale(0.11 -0.11)">
       <use xlink:href="#ArialMT-30"/>
      </g>
     </g>
    </g>
   </g>
   <g id="line2d_1">
    <path clip-path="url(#p03a0ff32a7)" d="M 134.975455 420.163174 
L 137.899145 419.435417 
L 140.822835 417.525059 
L 143.746525 419.129903 
L 146.670215 419.789939 
L 149.593905 420.275215 
L 152.517595 418.996034 
L 155.441285 420.070687 
L 158.364975 419.941542 
L 161.288665 418.341385 
L 164.212356 419.162539 
L 167.136046 422.93117 
L 170.059736 430.720919 
L 172.983426 440.718529 
L 175.907116 447.487738 
L 178.830806 475.735283 
L 181.754496 490.689723 
L 184.678186 416.59134 
L 187.601876 422.103895 
L 190.525567 548.387351 
L 193.449257 512.039612 
L 196.372947 489.84181 
L 199.296637 539.511511 
L 202.220327 465.690589 
L 205.144017 484.202592 
L 208.067707 580.471738 
L 210.991397 476.934114 
L 213.915087 466.572223 
L 216.838777 490.497613 
L 219.762468 497.602245 
L 222.686158 456.329508 
L 225.609848 431.612452 
L 228.533538 432.732754 
L 231.457228 461.177899 
L 234.380918 373.821637 
L 237.304608 495.837018 
L 240.228298 545.833537 
L 243.151988 563.872821 
L 246.075678 473.063342 
L 248.999369 455.847554 
L 251.923059 506.875211 
L 254.846749 509.994756 
L 257.770439 550.669371 
L 260.694129 466.519263 
L 263.617819 536.391372 
L 266.541509 400.32956 
L 269.465199 381.117399 
L 272.388889 438.073558 
L 275.312579 488.103692 
L 278.23627 513.55858 
L 281.15996 506.458531 
L 284.08365 458.282227 
L 287.00734 452.664067 
L 289.93103 500.425544 
L 292.85472 451.191587 
L 295.77841 433.386598 
L 298.7021 506.774959 
L 304.549481 397.365222 
L 307.473171 378.636448 
L 310.396861 441.325011 
L 313.320551 408.637781 
L 316.244241 434.135728 
L 319.167931 450.523436 
L 322.091621 459.450276 
L 325.015311 355.269005 
L 327.939001 380.405837 
L 330.862691 456.855956 
L 333.786382 472.952245 
L 336.710072 442.949234 
L 339.633762 505.659939 
L 342.557452 516.104768 
L 345.481142 444.410765 
L 348.404832 452.843164 
L 351.328522 452.358168 
L 354.252212 471.869792 
L 357.175902 463.982869 
L 360.099592 473.701795 
L 363.023283 556.119767 
L 365.946973 449.620919 
L 368.870663 485.998776 
L 371.794353 494.623879 
L 374.718043 538.99066 
L 377.611651 596.44 
M 377.777199 596.44 
L 380.565423 584.147148 
L 383.489113 497.926229 
L 386.412803 425.207104 
L 389.336494 465.808716 
L 392.260184 458.873667 
L 395.183874 510.1954 
L 398.107564 511.929215 
L 401.031254 502.299698 
L 403.954944 509.095597 
L 406.878634 530.337992 
L 409.802324 404.133137 
L 412.726014 353.164963 
L 415.649704 468.185567 
L 418.573395 436.92069 
L 421.497085 477.067178 
L 424.420775 542.884135 
L 427.344465 478.239215 
L 430.268155 523.227834 
L 433.191845 496.50419 
L 436.115535 377.855871 
L 439.039225 441.550002 
L 441.962915 492.473419 
L 444.886605 486.440712 
L 447.810296 405.344176 
L 450.733986 388.654382 
L 453.657676 436.67646 
L 456.581366 361.505925 
L 459.505056 466.296896 
L 462.428746 427.282393 
L 465.352436 475.26113 
L 468.276126 475.578013 
L 471.199816 464.820149 
L 474.123506 500.892771 
L 477.047197 477.54266 
L 479.970887 393.330113 
L 482.894577 480.976149 
L 485.818267 453.536116 
L 488.741957 455.783331 
L 491.665647 418.075818 
L 494.589337 399.464087 
L 497.513027 501.858951 
L 500.436717 448.985544 
L 503.360408 399.374049 
L 506.284098 454.141059 
L 509.207788 531.981139 
L 512.131478 560.538116 
L 515.055168 562.706906 
L 517.978858 461.534765 
L 520.902548 503.677977 
L 523.826238 505.810493 
L 526.749928 441.759672 
L 529.673618 471.894243 
L 532.597309 511.995572 
L 535.520999 429.914422 
L 538.444689 397.632363 
L 541.368379 467.506012 
L 544.292069 497.968589 
L 547.215759 444.807927 
L 550.139449 484.706827 
L 553.063139 378.304944 
L 555.986829 439.354173 
L 558.910519 423.146752 
L 561.83421 452.665396 
L 564.7579 459.083547 
L 567.68159 405.81714 
L 570.60528 420.198819 
L 573.52897 433.141389 
L 576.45266 461.737438 
L 579.37635 518.539825 
L 582.30004 535.329557 
L 585.22373 457.680992 
L 588.147421 402.95176 
L 591.071111 367.76287 
L 593.994801 414.302184 
L 596.918491 371.170264 
L 599.842181 413.321207 
L 602.765871 393.970386 
L 605.689561 395.786333 
L 608.613251 409.418008 
L 611.536941 480.818495 
L 614.460631 497.062575 
L 617.384322 388.479693 
L 620.308012 456.095282 
L 623.231702 442.579916 
L 626.155392 439.115645 
L 629.079082 443.123189 
L 632.002772 496.975579 
L 634.926462 504.477408 
L 637.850152 541.952935 
L 640.773842 426.377042 
L 643.697532 372.570895 
L 646.621223 418.052976 
L 649.544913 455.020699 
L 652.468603 527.830982 
L 655.392293 532.252129 
L 658.315983 518.047553 
L 661.239673 568.873446 
L 664.163363 480.420248 
L 667.087053 519.381652 
L 670.010743 490.998701 
L 672.934433 415.257136 
L 675.858124 440.926765 
L 678.781814 416.300167 
L 681.705504 489.21441 
L 684.629194 531.156593 
L 687.552884 486.826471 
L 690.476574 593.251127 
L 693.400264 485.602768 
L 696.323954 476.931841 
L 699.247644 446.166477 
L 702.171335 434.330811 
L 705.095025 439.997313 
L 708.018715 433.321081 
L 710.942405 436.921459 
L 713.866095 433.153282 
L 716.789785 434.099559 
L 719.713475 433.954637 
L 722.637165 432.600984 
L 725.560855 435.112647 
L 728.484545 438.155446 
L 728.484545 438.155446 
" style="fill:none;stroke:#4c72b0;stroke-linecap:round;stroke-width:1.5;"/>
   </g>
   <g id="line2d_2">
    <path clip-path="url(#p03a0ff32a7)" d="M 134.975455 403.486988 
L 137.899145 405.034814 
L 140.822835 404.802198 
L 143.746525 406.437684 
L 146.670215 407.546547 
L 149.593905 408.16821 
L 152.517595 407.338976 
L 155.441285 406.26198 
L 158.364975 405.686385 
L 161.288665 404.342911 
L 164.212356 402.274653 
L 167.136046 403.331572 
L 170.059736 414.828842 
L 172.983426 420.52735 
L 175.907116 430.462032 
L 178.830806 464.641891 
L 181.754496 474.649506 
L 184.678186 416.679874 
L 187.601876 402.319638 
L 190.525567 545.767145 
L 193.449257 508.416602 
L 196.372947 495.007434 
L 199.296637 535.243262 
L 202.220327 487.597323 
L 205.144017 517.605826 
L 208.067707 591.841786 
L 210.991397 511.223705 
L 213.915087 462.521198 
L 216.838777 495.209793 
L 219.762468 488.405709 
L 222.686158 453.836839 
L 225.609848 422.419379 
L 228.533538 414.008143 
L 231.457228 450.923291 
L 234.380918 373.270634 
L 237.304608 499.896822 
L 240.228298 541.416553 
L 243.151988 568.242303 
L 246.075678 495.240471 
L 248.999369 498.053975 
L 251.923059 523.68789 
L 254.846749 528.324233 
L 257.770439 572.060921 
L 260.694129 498.452851 
L 263.617819 552.025368 
L 266.541509 428.826756 
L 269.465199 404.39643 
L 272.388889 465.675163 
L 275.312579 518.840023 
L 278.23627 531.051023 
L 281.15996 528.40822 
L 284.08365 459.595023 
L 287.00734 464.507113 
L 289.93103 527.265846 
L 292.85472 479.689238 
L 295.77841 437.285915 
L 298.7021 517.639687 
L 301.62579 459.369822 
L 304.549481 405.788701 
L 307.473171 398.887303 
L 310.396861 431.81607 
L 313.320551 425.472916 
L 316.244241 446.072836 
L 319.167931 495.333342 
L 322.091621 475.129011 
L 325.015311 364.774921 
L 327.939001 419.923632 
L 330.862691 469.37359 
L 333.786382 470.241931 
L 336.710072 487.766591 
L 339.633762 537.560821 
L 342.557452 513.926848 
L 345.481142 441.334911 
L 348.404832 457.005005 
L 351.328522 478.688183 
L 354.252212 401.85416 
L 357.175902 328.111523 
L 360.099592 258.303636 
L 363.023283 277.243199 
L 365.946973 329.44347 
L 368.870663 351.852166 
L 371.794353 381.963143 
L 374.718043 403.955928 
L 377.641733 445.188823 
L 380.565423 484.58905 
L 383.489113 398.541457 
L 386.412803 405.619084 
L 389.336494 428.916829 
L 392.260184 437.419153 
L 395.183874 483.035627 
L 398.107564 474.961282 
L 401.031254 469.354735 
L 403.954944 521.015424 
L 406.878634 502.118152 
L 409.802324 433.343538 
L 412.726014 402.049628 
L 415.649704 477.749112 
L 418.573395 416.758194 
L 421.497085 456.651498 
L 424.420775 490.074146 
L 427.344465 420.081776 
L 430.268155 461.487087 
L 433.191845 448.413797 
L 436.115535 359.72055 
L 439.039225 466.836846 
L 441.962915 507.682548 
L 444.886605 457.825144 
L 447.810296 376.915016 
L 450.733986 409.664721 
L 453.657676 422.671759 
L 456.581366 383.204546 
L 459.505056 458.767363 
L 462.428746 412.59324 
L 465.352436 472.028076 
L 468.276126 458.306083 
L 471.199816 466.669152 
L 474.123506 485.63516 
L 477.047197 493.735494 
L 479.970887 383.329004 
L 482.894577 472.965258 
L 485.818267 457.874011 
L 488.741957 455.976141 
L 491.665647 431.279828 
L 494.589337 398.320279 
L 497.513027 499.644093 
L 500.436717 450.240518 
L 503.360408 397.129667 
L 506.284098 461.509054 
L 509.207788 522.817904 
L 512.131478 534.067936 
L 515.055168 556.169439 
L 517.978858 478.462597 
L 520.902548 501.949409 
L 523.826238 495.748344 
L 526.749928 444.909718 
L 529.673618 468.295928 
L 532.597309 499.672671 
L 535.520999 424.251033 
L 538.444689 387.225872 
L 541.368379 427.276901 
L 544.292069 495.577957 
L 547.215759 416.663014 
L 550.139449 458.143531 
L 553.063139 383.032934 
L 555.986829 391.127812 
L 558.910519 382.498686 
L 561.83421 383.836773 
L 564.7579 451.949147 
L 567.68159 423.009036 
L 570.60528 507.632492 
L 573.52897 236.585986 
L 576.45266 305.398344 
L 579.37635 401.751074 
L 582.30004 387.077592 
L 585.22373 410.42382 
L 588.147421 368.260914 
L 591.071111 359.948146 
L 593.994801 413.131546 
L 596.918491 355.825903 
L 599.842181 449.846749 
L 602.765871 391.554637 
L 605.689561 406.823582 
L 608.613251 475.153916 
L 611.536941 492.491678 
L 614.460631 505.73637 
L 617.384322 463.836268 
L 620.308012 480.944387 
L 623.231702 431.22344 
L 626.155392 452.081266 
L 629.079082 428.535583 
L 632.002772 502.144247 
L 634.926462 493.627022 
L 637.850152 513.605208 
L 640.773842 416.893951 
L 643.697532 325.795292 
L 646.621223 403.404015 
L 649.544913 471.642947 
L 652.468603 521.356373 
L 655.392293 553.618738 
L 658.315983 486.520781 
L 661.239673 557.398913 
L 664.163363 461.993981 
L 667.087053 520.985831 
L 670.010743 490.954626 
L 672.934433 411.002423 
L 675.858124 439.869112 
L 678.781814 418.825088 
L 681.705504 476.961644 
L 684.629194 518.124649 
L 687.552884 469.783065 
L 690.476574 575.275296 
L 693.400264 502.539241 
L 696.323954 485.356405 
L 702.171335 419.397149 
L 705.095025 425.049589 
L 708.018715 421.339304 
L 710.942405 423.656794 
L 713.866095 416.57448 
L 719.713475 421.058276 
L 722.637165 416.083816 
L 725.560855 420.37127 
L 728.484545 415.523963 
L 728.484545 415.523963 
" style="fill:none;stroke:#dd8452;stroke-dasharray:6,2.25;stroke-dashoffset:0;stroke-width:1.5;"/>
   </g>
   <g id="line2d_3">
    <path clip-path="url(#p03a0ff32a7)" d="M 134.975455 401.979983 
L 137.899145 402.961624 
L 140.822835 402.100244 
L 143.746525 402.592131 
L 146.670215 408.407578 
L 149.593905 407.544413 
L 152.517595 407.807952 
L 155.441285 417.412633 
L 158.364975 419.983133 
L 161.288665 412.46315 
L 164.212356 410.972305 
L 167.136046 406.164805 
L 170.059736 404.418888 
L 172.983426 419.453362 
L 175.907116 429.201286 
L 178.830806 454.40939 
L 181.754496 458.295834 
L 184.678186 394.018973 
L 187.601876 397.195464 
L 190.525567 472.971694 
L 193.449257 465.690344 
L 196.372947 456.505667 
L 199.296637 513.431323 
L 202.220327 494.66596 
L 205.144017 488.956783 
L 208.067707 422.879155 
L 210.991397 497.993635 
L 213.915087 511.984903 
L 216.838777 465.311267 
L 219.762468 478.941577 
L 222.686158 474.944072 
L 225.609848 409.513328 
L 228.533538 429.991342 
L 231.457228 468.481007 
L 234.380918 416.35624 
L 237.304608 522.238847 
L 240.228298 577.101457 
L 243.151988 590.469873 
L 246.075678 482.909454 
L 248.999369 514.513602 
L 251.923059 499.151995 
L 254.846749 559.719411 
L 257.668201 596.44 
M 257.805543 596.44 
L 260.694129 486.94988 
L 263.617819 529.991097 
L 266.541509 444.091923 
L 269.465199 445.068912 
L 272.388889 480.728421 
L 275.312579 506.787622 
L 278.23627 485.721595 
L 281.15996 352.93518 
L 284.08365 311.704699 
L 287.00734 305.907774 
L 289.93103 350.520533 
L 292.85472 345.643563 
L 295.77841 392.374112 
L 298.7021 486.736292 
L 301.62579 477.830965 
L 304.549481 401.492363 
L 307.473171 401.469101 
L 310.396861 468.681197 
L 313.320551 464.237978 
L 316.244241 469.316397 
L 319.167931 512.946081 
L 322.091621 477.041468 
L 325.015311 368.529945 
L 327.939001 409.313733 
L 330.862691 487.996969 
L 333.786382 487.313846 
L 336.710072 489.471652 
L 339.633762 543.009923 
L 342.557452 560.877981 
L 345.481142 463.143911 
L 348.404832 461.672096 
L 351.328522 505.665851 
L 354.252212 457.610577 
L 357.175902 462.49283 
L 360.099592 373.713794 
L 363.023283 432.215506 
L 365.946973 340.631815 
L 368.870663 428.095151 
L 371.794353 388.739034 
L 374.718043 477.29007 
L 377.641733 497.666083 
L 380.565423 489.493725 
L 383.489113 474.661154 
L 386.412803 445.04649 
L 389.336494 483.715007 
L 392.260184 485.275566 
L 398.107564 534.979338 
L 401.031254 535.681945 
L 403.954944 557.84879 
L 406.878634 527.989301 
L 409.802324 489.820192 
L 412.726014 416.600959 
L 415.649704 468.835319 
L 418.573395 487.522186 
L 421.497085 428.760994 
L 424.420775 394.880318 
L 427.344465 349.784014 
L 430.268155 335.960369 
L 433.191845 323.756435 
L 436.115535 325.667703 
L 439.039225 445.606623 
L 441.962915 504.515011 
L 444.886605 444.1318 
L 447.810296 465.782096 
L 450.733986 412.577289 
L 453.657676 398.697327 
L 456.581366 398.41385 
L 459.505056 523.38276 
L 462.428746 461.722117 
L 465.352436 480.219988 
L 468.276126 484.221201 
L 471.199816 443.01692 
L 474.123506 491.284941 
L 477.047197 477.875319 
L 479.970887 436.45885 
L 482.894577 468.846232 
L 485.818267 442.558018 
L 488.741957 413.940736 
L 491.665647 439.85435 
L 494.589337 417.219194 
L 497.513027 503.80254 
L 500.436717 345.17938 
L 503.360408 393.596135 
L 506.284098 482.467063 
L 509.207788 430.084529 
L 515.055168 466.079496 
L 517.978858 461.017447 
L 520.902548 506.083791 
L 523.826238 498.151359 
L 526.749928 477.106461 
L 529.673618 455.094996 
L 532.597309 496.828559 
L 535.520999 463.234789 
L 538.444689 405.238362 
L 541.368379 466.599577 
L 544.292069 513.841952 
L 547.215759 394.029851 
L 550.139449 443.703156 
L 553.063139 413.914152 
L 555.986829 414.462917 
L 558.910519 462.264621 
L 561.83421 452.556434 
L 564.7579 433.354382 
L 567.68159 393.688168 
L 570.60528 426.620922 
L 573.52897 426.061209 
L 576.45266 420.911535 
L 579.37635 517.642311 
L 582.30004 531.778151 
L 585.22373 516.931344 
L 588.147421 435.19513 
L 591.071111 424.127519 
L 593.994801 442.008414 
L 596.918491 390.512376 
L 599.842181 492.086261 
L 602.765871 442.070923 
L 605.689561 395.903376 
L 608.613251 433.269311 
L 611.536941 475.029773 
L 614.460631 500.074101 
L 617.384322 433.391985 
L 620.308012 427.437249 
L 623.231702 435.248894 
L 626.155392 464.185263 
L 629.079082 426.00692 
L 632.002772 532.590839 
L 634.926462 528.449811 
L 637.850152 445.223628 
L 640.773842 376.513167 
L 643.697532 398.348647 
L 646.621223 472.871896 
L 649.544913 479.535151 
L 652.468603 566.919607 
L 655.392293 581.264383 
L 658.315983 515.019271 
L 661.239673 568.248425 
L 664.163363 473.127844 
L 667.087053 523.832287 
L 670.010743 487.479686 
L 672.934433 373.0943 
L 675.858124 451.605924 
L 678.781814 424.227176 
L 681.705504 486.170282 
L 684.629194 529.355092 
L 687.552884 493.356417 
L 690.476574 576.937751 
L 693.400264 518.739666 
L 696.323954 499.172528 
L 699.247644 462.805095 
L 702.171335 433.823637 
L 705.095025 432.224286 
L 708.018715 428.876288 
L 710.942405 436.530873 
L 713.866095 427.633906 
L 716.789785 427.371207 
L 719.713475 427.84396 
L 722.637165 427.802439 
L 725.560855 427.526727 
L 728.484545 417.578018 
L 728.484545 417.578018 
" style="fill:none;stroke:#55a868;stroke-dasharray:1.5,1.5;stroke-dashoffset:0;stroke-width:1.5;"/>
   </g>
   <g id="line2d_4">
    <path clip-path="url(#p03a0ff32a7)" d="M 134.975455 403.392717 
L 137.899145 404.921829 
L 140.822835 404.744691 
L 143.746525 406.309727 
L 146.670215 407.485542 
L 149.593905 408.18598 
L 152.517595 407.41894 
L 155.441285 406.439538 
L 158.364975 405.950658 
L 161.288665 404.67557 
L 164.212356 402.569359 
L 167.136046 403.828461 
L 170.059736 415.334301 
L 172.983426 421.005771 
L 175.907116 430.934751 
L 178.830806 465.406377 
L 181.754496 475.928897 
L 184.678186 417.934674 
L 187.601876 403.457325 
L 190.525567 547.072211 
L 193.449257 510.941802 
L 196.372947 495.52846 
L 199.296637 536.870213 
L 202.220327 489.216054 
L 205.144017 515.131417 
L 208.067707 592.725553 
L 210.991397 503.181822 
L 213.915087 465.81872 
L 216.838777 488.659628 
L 219.762468 489.369196 
L 222.686158 453.827534 
L 225.609848 422.053874 
L 228.533538 414.417967 
L 231.457228 452.770861 
L 234.380918 373.882677 
L 237.304608 504.419481 
L 240.228298 545.483423 
L 243.151988 570.106698 
L 246.075678 495.413796 
L 248.999369 497.571672 
L 251.923059 523.811614 
L 254.846749 528.005426 
L 257.770439 570.101031 
L 260.694129 495.321169 
L 263.617819 549.924998 
L 266.541509 422.474088 
L 269.465199 405.624505 
L 275.312579 522.804507 
L 278.23627 531.21284 
L 281.15996 523.532229 
L 284.08365 458.803847 
L 287.00734 473.662478 
L 289.93103 528.536632 
L 292.85472 472.757967 
L 295.77841 437.607031 
L 298.7021 516.083221 
L 301.62579 457.678124 
L 304.549481 408.252372 
L 307.473171 398.202606 
L 310.396861 434.066958 
L 313.320551 424.105831 
L 316.244241 443.791026 
L 319.167931 493.088821 
L 322.091621 486.664654 
L 325.015311 360.058351 
L 327.939001 411.871499 
L 330.862691 487.048138 
L 333.786382 472.585376 
L 336.710072 491.680844 
L 339.633762 552.66494 
L 342.557452 516.983674 
L 345.481142 437.211548 
L 348.404832 421.369037 
L 351.328522 513.890294 
L 354.252212 548.097228 
L 357.175902 357.087034 
L 360.099592 357.14664 
L 363.023283 483.140077 
L 365.946973 368.796492 
L 368.870663 398.33448 
L 371.794353 429.730742 
L 374.718043 452.28415 
L 377.641733 466.706651 
L 380.565423 499.619327 
L 383.489113 400.898194 
L 386.412803 409.247726 
L 389.336494 430.996316 
L 392.260184 438.343393 
L 395.183874 484.796796 
L 398.107564 478.684894 
L 401.031254 472.855071 
L 403.954944 520.078627 
L 406.878634 507.554312 
L 409.802324 439.135863 
L 412.726014 402.809217 
L 415.649704 483.537554 
L 418.573395 419.895578 
L 421.497085 463.457051 
L 424.420775 498.726604 
L 427.344465 423.161513 
L 430.268155 458.535237 
L 433.191845 443.563726 
L 436.115535 357.362781 
L 439.039225 465.904176 
L 441.962915 508.935529 
L 444.886605 455.241143 
L 447.810296 375.287646 
L 450.733986 404.774528 
L 453.657676 432.901252 
L 456.581366 388.427538 
L 459.505056 458.802763 
L 462.428746 409.822551 
L 465.352436 476.736758 
L 468.276126 455.126233 
L 471.199816 467.349372 
L 474.123506 489.743516 
L 477.047197 498.012559 
L 479.970887 381.504277 
L 482.894577 474.037812 
L 485.818267 458.479793 
L 488.741957 458.029777 
L 491.665647 430.951296 
L 494.589337 399.340223 
L 497.513027 501.114893 
L 503.360408 395.335652 
L 506.284098 461.574117 
L 509.207788 523.398011 
L 512.131478 534.968914 
L 515.055168 557.644052 
L 517.978858 478.830516 
L 520.902548 502.215501 
L 523.826238 494.591908 
L 526.749928 444.298479 
L 529.673618 468.24101 
L 532.597309 499.612821 
L 535.520999 423.62888 
L 538.444689 390.230018 
L 541.368379 429.805984 
L 544.292069 495.205281 
L 547.215759 416.221217 
L 550.139449 457.394751 
L 553.063139 382.468044 
L 555.986829 392.836547 
L 558.910519 381.972378 
L 561.83421 385.499648 
L 564.7579 454.087855 
L 567.68159 426.620363 
L 570.60528 507.942344 
L 573.52897 312.881493 
L 576.45266 364.437277 
L 579.37635 440.737733 
L 582.30004 432.899888 
L 585.22373 476.681769 
L 588.147421 366.112763 
L 591.071111 320.857194 
L 593.994801 429.813889 
L 596.918491 383.994742 
L 599.842181 431.714628 
L 602.765871 406.011593 
L 605.689561 407.300708 
L 608.613251 463.426793 
L 611.536941 489.086278 
L 614.460631 513.197062 
L 617.384322 458.377267 
L 620.308012 477.454021 
L 623.231702 434.334729 
L 626.155392 448.067845 
L 629.079082 429.861777 
L 632.002772 502.651631 
L 634.926462 502.457528 
L 637.850152 515.288862 
L 643.697532 326.253879 
L 646.621223 405.723219 
L 649.544913 468.079018 
L 652.468603 521.901955 
L 655.392293 553.195236 
L 658.315983 487.375935 
L 661.239673 558.228532 
L 664.163363 460.785495 
L 667.087053 519.319073 
L 670.010743 490.987577 
L 672.934433 409.715407 
L 675.858124 438.219319 
L 678.781814 419.16051 
L 681.705504 476.173021 
L 684.629194 519.224907 
L 687.552884 471.496206 
L 690.476574 576.230492 
L 693.400264 502.682099 
L 696.323954 485.950364 
L 699.247644 455.511118 
L 702.171335 420.870328 
L 705.095025 426.700607 
L 708.018715 423.684638 
L 710.942405 427.317897 
L 713.866095 420.330658 
L 716.789785 421.801354 
L 719.713475 423.798497 
L 722.637165 419.454341 
L 725.560855 424.010336 
L 728.484545 419.193636 
L 728.484545 419.193636 
" style="fill:none;stroke:#c44e52;stroke-dasharray:4.5,1.875,2.25,1.875;stroke-dashoffset:0;stroke-width:1.5;"/>
   </g>
   <g id="line2d_5">
    <path clip-path="url(#p03a0ff32a7)" d="M 134.975455 405.767923 
L 137.899145 407.465499 
L 140.822835 407.59349 
L 143.746525 409.273506 
L 149.593905 411.399865 
L 152.517595 411.150808 
L 155.441285 409.967123 
L 158.364975 409.89314 
L 161.288665 408.460083 
L 164.212356 405.133422 
L 167.136046 406.024326 
L 170.059736 415.243668 
L 172.983426 420.757728 
L 175.907116 429.107225 
L 178.830806 462.199663 
L 181.754496 480.526307 
L 184.678186 413.094712 
L 187.601876 418.937828 
L 190.525567 552.852783 
L 193.449257 519.160684 
L 196.372947 504.662172 
L 199.296637 547.779295 
L 202.220327 488.224968 
L 205.144017 509.528508 
L 208.067707 594.759566 
L 210.991397 502.810125 
L 213.915087 454.658202 
L 216.838777 489.398229 
L 219.762468 488.370834 
L 222.686158 457.572449 
L 225.609848 433.300723 
L 228.533538 421.535891 
L 231.457228 457.033269 
L 234.380918 374.377328 
L 237.304608 500.255367 
L 240.228298 542.668799 
L 243.151988 570.177567 
L 246.075678 490.505239 
L 248.999369 487.749626 
L 251.923059 527.219952 
L 254.846749 531.156103 
L 257.770439 574.042953 
L 260.694129 490.910096 
L 263.617819 547.6052 
L 266.541509 421.908847 
L 269.465199 403.730063 
L 272.388889 460.257123 
L 275.312579 519.234072 
L 278.23627 534.334553 
L 281.15996 535.191771 
L 284.08365 471.8204 
L 287.00734 474.621522 
L 289.93103 528.146815 
L 292.85472 475.509312 
L 295.77841 438.378233 
L 298.7021 512.863844 
L 301.62579 458.427953 
L 304.549481 408.922412 
L 307.473171 399.290586 
L 310.396861 450.66479 
L 313.320551 426.287634 
L 316.244241 445.033267 
L 319.167931 491.84385 
L 322.091621 492.892863 
L 325.015311 362.215352 
L 327.939001 404.009622 
L 330.862691 479.119975 
L 333.786382 487.946388 
L 336.710072 465.194888 
L 339.633762 538.761997 
L 342.557452 520.116265 
L 345.481142 465.345967 
L 348.404832 462.704003 
L 351.328522 454.000755 
L 354.252212 485.927522 
L 357.175902 496.370392 
L 360.099592 489.942622 
L 363.023283 570.168997 
L 365.946973 446.282016 
L 368.870663 464.864293 
L 371.794353 452.691981 
L 374.718043 496.975649 
L 377.641733 563.27484 
L 380.565423 557.193826 
L 383.489113 472.477603 
L 386.412803 411.546011 
L 389.336494 444.939871 
L 392.260184 458.564165 
L 395.183874 509.694488 
L 398.107564 485.26934 
L 401.031254 505.356803 
L 403.954944 529.121356 
L 406.878634 531.605315 
L 409.802324 448.097334 
L 412.726014 398.33448 
L 415.649704 512.290698 
L 418.573395 422.803739 
L 421.497085 470.921066 
L 424.420775 507.826106 
L 427.344465 432.201269 
L 430.268155 458.535866 
L 433.191845 450.42934 
L 436.115535 352.371041 
L 439.039225 464.280513 
L 441.962915 514.304177 
L 444.886605 463.322238 
L 447.810296 383.388925 
L 450.733986 411.545451 
L 453.657676 425.133751 
L 456.581366 380.379847 
L 459.505056 439.985525 
L 462.428746 399.457791 
L 465.352436 472.841639 
L 468.276126 459.877101 
L 471.199816 476.056888 
L 474.123506 502.097899 
L 477.047197 497.383935 
L 479.970887 391.711697 
L 482.894577 481.968494 
L 485.818267 463.645138 
L 488.741957 456.237441 
L 491.665647 433.319262 
L 494.589337 399.156683 
L 497.513027 505.767817 
L 503.360408 393.282471 
L 509.207788 531.102199 
L 512.131478 544.62645 
L 515.055168 559.015965 
L 517.978858 483.77115 
L 520.902548 504.583747 
L 523.826238 491.013322 
L 526.749928 434.558915 
L 529.673618 461.338108 
L 532.597309 481.633527 
L 535.520999 409.953061 
L 538.444689 373.520705 
L 541.368379 426.020282 
L 544.292069 498.034107 
L 547.215759 405.482382 
L 550.139449 453.798816 
L 553.063139 301.394035 
L 555.986829 375.464574 
L 558.910519 337.018022 
L 561.83421 376.150145 
L 564.7579 424.6823 
L 567.68159 373.775219 
L 570.60528 384.715154 
L 573.52897 397.502588 
L 576.45266 479.426329 
L 579.37635 492.448863 
L 582.30004 463.114073 
L 585.22373 457.970381 
L 588.147421 377.881057 
L 591.071111 327.372169 
L 593.994801 385.689974 
L 596.918491 360.066116 
L 599.842181 409.039 
L 602.765871 395.546091 
L 605.689561 414.382218 
L 608.613251 451.223769 
L 611.536941 471.816622 
L 614.460631 505.916272 
L 617.384322 444.189237 
L 620.308012 467.872182 
L 623.231702 435.260228 
L 626.155392 443.682133 
L 629.079082 426.552467 
L 632.002772 504.506511 
L 634.926462 518.592995 
L 637.850152 512.080888 
L 640.773842 408.845596 
L 643.697532 325.418471 
L 646.621223 389.971096 
L 649.544913 449.307079 
L 652.468603 498.924696 
L 655.392293 533.879849 
L 658.315983 483.877104 
L 661.239673 547.995961 
L 664.163363 453.009878 
L 667.087053 511.945341 
L 670.010743 486.860331 
L 672.934433 416.057686 
L 675.858124 435.904068 
L 678.781814 409.740278 
L 681.705504 481.224052 
L 684.629194 517.916133 
L 687.552884 466.858988 
L 690.476574 552.218492 
L 693.400264 486.527427 
L 696.323954 475.247768 
L 699.247644 447.262643 
L 702.171335 420.397225 
L 705.095025 423.248613 
L 708.018715 419.963649 
L 710.942405 424.234557 
L 713.866095 418.162183 
L 719.713475 420.097867 
L 722.637165 416.879225 
L 725.560855 421.094865 
L 728.484545 418.474449 
L 728.484545 418.474449 
" style="fill:none;stroke:#8172b3;stroke-dasharray:7.5,1.5,1.5,1.5;stroke-dashoffset:0;stroke-width:1.5;"/>
   </g>
   <g id="line2d_6"/>
   <g id="line2d_7"/>
   <g id="line2d_8"/>
   <g id="line2d_9"/>
   <g id="line2d_10"/>
   <g id="patch_3">
    <path d="M 105.3 529.9416 
L 105.3 71.4528 
" style="fill:none;stroke:#262626;stroke-linecap:square;stroke-linejoin:miter;stroke-width:1.25;"/>
   </g>
   <g id="patch_4">
    <path d="M 758.16 529.9416 
L 758.16 71.4528 
" style="fill:none;stroke:#262626;stroke-linecap:square;stroke-linejoin:miter;stroke-width:1.25;"/>
   </g>
   <g id="patch_5">
    <path d="M 105.3 529.9416 
L 758.16 529.9416 
" style="fill:none;stroke:#262626;stroke-linecap:square;stroke-linejoin:miter;stroke-width:1.25;"/>
   </g>
   <g id="patch_6">
    <path d="M 105.3 71.4528 
L 758.16 71.4528 
" style="fill:none;stroke:#262626;stroke-linecap:square;stroke-linejoin:miter;stroke-width:1.25;"/>
   </g>
   <g id="text_16">
    <!-- Activations for &gt;}&lt; -->
    <g style="fill:#262626;" transform="translate(383.37 65.4528)scale(0.12 -0.12)">
     <defs>
      <path d="M -9 0 
L 1750 4581 
L 2403 4581 
L 4278 0 
L 3588 0 
L 3053 1388 
L 1138 1388 
L 634 0 
L -9 0 
z
M 1313 1881 
L 2866 1881 
L 2388 3150 
Q 2169 3728 2063 4100 
Q 1975 3659 1816 3225 
L 1313 1881 
z
" id="ArialMT-41" transform="scale(0.015625)"/>
      <path d="M 2588 1216 
L 3141 1144 
Q 3050 572 2676 248 
Q 2303 -75 1759 -75 
Q 1078 -75 664 370 
Q 250 816 250 1647 
Q 250 2184 428 2587 
Q 606 2991 970 3192 
Q 1334 3394 1763 3394 
Q 2303 3394 2647 3120 
Q 2991 2847 3088 2344 
L 2541 2259 
Q 2463 2594 2264 2762 
Q 2066 2931 1784 2931 
Q 1359 2931 1093 2626 
Q 828 2322 828 1663 
Q 828 994 1084 691 
Q 1341 388 1753 388 
Q 2084 388 2306 591 
Q 2528 794 2588 1216 
z
" id="ArialMT-63" transform="scale(0.015625)"/>
      <path d="M 1650 503 
L 1731 6 
Q 1494 -44 1306 -44 
Q 1000 -44 831 53 
Q 663 150 594 308 
Q 525 466 525 972 
L 525 2881 
L 113 2881 
L 113 3319 
L 525 3319 
L 525 4141 
L 1084 4478 
L 1084 3319 
L 1650 3319 
L 1650 2881 
L 1084 2881 
L 1084 941 
Q 1084 700 1114 631 
Q 1144 563 1211 522 
Q 1278 481 1403 481 
Q 1497 481 1650 503 
z
" id="ArialMT-74" transform="scale(0.015625)"/>
      <path d="M 425 3934 
L 425 4581 
L 988 4581 
L 988 3934 
L 425 3934 
z
M 425 0 
L 425 3319 
L 988 3319 
L 988 0 
L 425 0 
z
" id="ArialMT-69" transform="scale(0.015625)"/>
      <path d="M 1344 0 
L 81 3319 
L 675 3319 
L 1388 1331 
Q 1503 1009 1600 663 
Q 1675 925 1809 1294 
L 2547 3319 
L 3125 3319 
L 1869 0 
L 1344 0 
z
" id="ArialMT-76" transform="scale(0.015625)"/>
      <path d="M 2588 409 
Q 2275 144 1986 34 
Q 1697 -75 1366 -75 
Q 819 -75 525 192 
Q 231 459 231 875 
Q 231 1119 342 1320 
Q 453 1522 633 1644 
Q 813 1766 1038 1828 
Q 1203 1872 1538 1913 
Q 2219 1994 2541 2106 
Q 2544 2222 2544 2253 
Q 2544 2597 2384 2738 
Q 2169 2928 1744 2928 
Q 1347 2928 1158 2789 
Q 969 2650 878 2297 
L 328 2372 
Q 403 2725 575 2942 
Q 747 3159 1072 3276 
Q 1397 3394 1825 3394 
Q 2250 3394 2515 3294 
Q 2781 3194 2906 3042 
Q 3031 2891 3081 2659 
Q 3109 2516 3109 2141 
L 3109 1391 
Q 3109 606 3145 398 
Q 3181 191 3288 0 
L 2700 0 
Q 2613 175 2588 409 
z
M 2541 1666 
Q 2234 1541 1622 1453 
Q 1275 1403 1131 1340 
Q 988 1278 909 1158 
Q 831 1038 831 891 
Q 831 666 1001 516 
Q 1172 366 1500 366 
Q 1825 366 2078 508 
Q 2331 650 2450 897 
Q 2541 1088 2541 1459 
L 2541 1666 
z
" id="ArialMT-61" transform="scale(0.015625)"/>
      <path d="M 213 1659 
Q 213 2581 725 3025 
Q 1153 3394 1769 3394 
Q 2453 3394 2887 2945 
Q 3322 2497 3322 1706 
Q 3322 1066 3130 698 
Q 2938 331 2570 128 
Q 2203 -75 1769 -75 
Q 1072 -75 642 372 
Q 213 819 213 1659 
z
M 791 1659 
Q 791 1022 1069 705 
Q 1347 388 1769 388 
Q 2188 388 2466 706 
Q 2744 1025 2744 1678 
Q 2744 2294 2464 2611 
Q 2184 2928 1769 2928 
Q 1347 2928 1069 2612 
Q 791 2297 791 1659 
z
" id="ArialMT-6f" transform="scale(0.015625)"/>
      <path d="M 422 0 
L 422 3319 
L 928 3319 
L 928 2847 
Q 1294 3394 1984 3394 
Q 2284 3394 2536 3286 
Q 2788 3178 2913 3003 
Q 3038 2828 3088 2588 
Q 3119 2431 3119 2041 
L 3119 0 
L 2556 0 
L 2556 2019 
Q 2556 2363 2490 2533 
Q 2425 2703 2258 2804 
Q 2091 2906 1866 2906 
Q 1506 2906 1245 2678 
Q 984 2450 984 1813 
L 984 0 
L 422 0 
z
" id="ArialMT-6e" transform="scale(0.015625)"/>
      <path d="M 197 991 
L 753 1078 
Q 800 744 1014 566 
Q 1228 388 1613 388 
Q 2000 388 2187 545 
Q 2375 703 2375 916 
Q 2375 1106 2209 1216 
Q 2094 1291 1634 1406 
Q 1016 1563 777 1677 
Q 538 1791 414 1992 
Q 291 2194 291 2438 
Q 291 2659 392 2848 
Q 494 3038 669 3163 
Q 800 3259 1026 3326 
Q 1253 3394 1513 3394 
Q 1903 3394 2198 3281 
Q 2494 3169 2634 2976 
Q 2775 2784 2828 2463 
L 2278 2388 
Q 2241 2644 2061 2787 
Q 1881 2931 1553 2931 
Q 1166 2931 1000 2803 
Q 834 2675 834 2503 
Q 834 2394 903 2306 
Q 972 2216 1119 2156 
Q 1203 2125 1616 2013 
Q 2213 1853 2448 1751 
Q 2684 1650 2818 1456 
Q 2953 1263 2953 975 
Q 2953 694 2789 445 
Q 2625 197 2315 61 
Q 2006 -75 1616 -75 
Q 969 -75 630 194 
Q 291 463 197 991 
z
" id="ArialMT-73" transform="scale(0.015625)"/>
      <path id="ArialMT-20" transform="scale(0.015625)"/>
      <path d="M 556 0 
L 556 2881 
L 59 2881 
L 59 3319 
L 556 3319 
L 556 3672 
Q 556 4006 616 4169 
Q 697 4388 901 4523 
Q 1106 4659 1475 4659 
Q 1713 4659 2000 4603 
L 1916 4113 
Q 1741 4144 1584 4144 
Q 1328 4144 1222 4034 
Q 1116 3925 1116 3625 
L 1116 3319 
L 1763 3319 
L 1763 2881 
L 1116 2881 
L 1116 0 
L 556 0 
z
" id="ArialMT-66" transform="scale(0.015625)"/>
      <path d="M 416 0 
L 416 3319 
L 922 3319 
L 922 2816 
Q 1116 3169 1280 3281 
Q 1444 3394 1641 3394 
Q 1925 3394 2219 3213 
L 2025 2691 
Q 1819 2813 1613 2813 
Q 1428 2813 1281 2702 
Q 1134 2591 1072 2394 
Q 978 2094 978 1738 
L 978 0 
L 416 0 
z
" id="ArialMT-72" transform="scale(0.015625)"/>
      <path d="M 3384 2003 
L 350 706 
L 350 1266 
L 2753 2263 
L 350 3250 
L 350 3809 
L 3384 2528 
L 3384 2003 
z
" id="ArialMT-3e" transform="scale(0.015625)"/>
      <path d="M 1956 1913 
L 1956 1403 
Q 1716 1397 1564 1272 
Q 1413 1147 1363 933 
Q 1313 719 1309 197 
Q 1306 -325 1291 -491 
Q 1263 -756 1186 -914 
Q 1109 -1072 996 -1167 
Q 884 -1263 709 -1313 
Q 591 -1347 322 -1347 
L 147 -1347 
L 147 -856 
L 244 -856 
Q 569 -856 675 -739 
Q 781 -622 781 -213 
Q 781 569 809 778 
Q 859 1125 1009 1333 
Q 1159 1541 1434 1656 
Q 1075 1828 928 2111 
Q 781 2394 781 3066 
Q 781 3675 766 3794 
Q 744 4003 642 4086 
Q 541 4169 244 4169 
L 147 4169 
L 147 4659 
L 322 4659 
Q 628 4659 766 4609 
Q 966 4541 1097 4378 
Q 1228 4216 1267 3969 
Q 1306 3722 1309 3159 
Q 1313 2597 1363 2383 
Q 1413 2169 1564 2044 
Q 1716 1919 1956 1913 
z
" id="ArialMT-7d" transform="scale(0.015625)"/>
      <path d="M 350 2003 
L 350 2528 
L 3384 3809 
L 3384 3250 
L 978 2263 
L 3384 1266 
L 3384 706 
L 350 2003 
z
" id="ArialMT-3c" transform="scale(0.015625)"/>
     </defs>
     <use xlink:href="#ArialMT-41"/>
     <use x="66.699219" xlink:href="#ArialMT-63"/>
     <use x="116.699219" xlink:href="#ArialMT-74"/>
     <use x="144.482422" xlink:href="#ArialMT-69"/>
     <use x="166.699219" xlink:href="#ArialMT-76"/>
     <use x="216.699219" xlink:href="#ArialMT-61"/>
     <use x="272.314453" xlink:href="#ArialMT-74"/>
     <use x="300.097656" xlink:href="#ArialMT-69"/>
     <use x="322.314453" xlink:href="#ArialMT-6f"/>
     <use x="377.929688" xlink:href="#ArialMT-6e"/>
     <use x="433.544922" xlink:href="#ArialMT-73"/>
     <use x="483.544922" xlink:href="#ArialMT-20"/>
     <use x="511.328125" xlink:href="#ArialMT-66"/>
     <use x="539.111328" xlink:href="#ArialMT-6f"/>
     <use x="594.726562" xlink:href="#ArialMT-72"/>
     <use x="628.027344" xlink:href="#ArialMT-20"/>
     <use x="655.810547" xlink:href="#ArialMT-3e"/>
     <use x="714.208984" xlink:href="#ArialMT-7d"/>
     <use x="747.607422" xlink:href="#ArialMT-3c"/>
    </g>
   </g>
   <g id="legend_1">
    <g id="patch_7">
     <path d="M 640.044062 158.514363 
L 750.46 158.514363 
Q 752.66 158.514363 752.66 156.314363 
L 752.66 79.1528 
Q 752.66 76.9528 750.46 76.9528 
L 640.044062 76.9528 
Q 637.844062 76.9528 637.844062 79.1528 
L 637.844062 156.314363 
Q 637.844062 158.514363 640.044062 158.514363 
z
" style="fill:#ffffff;opacity:0.8;stroke:#cccccc;stroke-linejoin:miter;"/>
    </g>
    <g id="line2d_11">
     <path d="M 642.244062 85.376394 
L 664.244062 85.376394 
" style="fill:none;stroke:#4c72b0;stroke-linecap:round;stroke-width:1.5;"/>
    </g>
    <g id="line2d_12"/>
    <g id="text_17">
     <!-- regular -->
     <g style="fill:#262626;" transform="translate(673.044062 89.226394)scale(0.11 -0.11)">
      <defs>
       <path d="M 2694 1069 
L 3275 997 
Q 3138 488 2766 206 
Q 2394 -75 1816 -75 
Q 1088 -75 661 373 
Q 234 822 234 1631 
Q 234 2469 665 2931 
Q 1097 3394 1784 3394 
Q 2450 3394 2872 2941 
Q 3294 2488 3294 1666 
Q 3294 1616 3291 1516 
L 816 1516 
Q 847 969 1125 678 
Q 1403 388 1819 388 
Q 2128 388 2347 550 
Q 2566 713 2694 1069 
z
M 847 1978 
L 2700 1978 
Q 2663 2397 2488 2606 
Q 2219 2931 1791 2931 
Q 1403 2931 1139 2672 
Q 875 2413 847 1978 
z
" id="ArialMT-65" transform="scale(0.015625)"/>
       <path d="M 319 -275 
L 866 -356 
Q 900 -609 1056 -725 
Q 1266 -881 1628 -881 
Q 2019 -881 2231 -725 
Q 2444 -569 2519 -288 
Q 2563 -116 2559 434 
Q 2191 0 1641 0 
Q 956 0 581 494 
Q 206 988 206 1678 
Q 206 2153 378 2554 
Q 550 2956 876 3175 
Q 1203 3394 1644 3394 
Q 2231 3394 2613 2919 
L 2613 3319 
L 3131 3319 
L 3131 450 
Q 3131 -325 2973 -648 
Q 2816 -972 2473 -1159 
Q 2131 -1347 1631 -1347 
Q 1038 -1347 672 -1080 
Q 306 -813 319 -275 
z
M 784 1719 
Q 784 1066 1043 766 
Q 1303 466 1694 466 
Q 2081 466 2343 764 
Q 2606 1063 2606 1700 
Q 2606 2309 2336 2618 
Q 2066 2928 1684 2928 
Q 1309 2928 1046 2623 
Q 784 2319 784 1719 
z
" id="ArialMT-67" transform="scale(0.015625)"/>
       <path d="M 2597 0 
L 2597 488 
Q 2209 -75 1544 -75 
Q 1250 -75 995 37 
Q 741 150 617 320 
Q 494 491 444 738 
Q 409 903 409 1263 
L 409 3319 
L 972 3319 
L 972 1478 
Q 972 1038 1006 884 
Q 1059 663 1231 536 
Q 1403 409 1656 409 
Q 1909 409 2131 539 
Q 2353 669 2445 892 
Q 2538 1116 2538 1541 
L 2538 3319 
L 3100 3319 
L 3100 0 
L 2597 0 
z
" id="ArialMT-75" transform="scale(0.015625)"/>
       <path d="M 409 0 
L 409 4581 
L 972 4581 
L 972 0 
L 409 0 
z
" id="ArialMT-6c" transform="scale(0.015625)"/>
      </defs>
      <use xlink:href="#ArialMT-72"/>
      <use x="33.300781" xlink:href="#ArialMT-65"/>
      <use x="88.916016" xlink:href="#ArialMT-67"/>
      <use x="144.53125" xlink:href="#ArialMT-75"/>
      <use x="200.146484" xlink:href="#ArialMT-6c"/>
      <use x="222.363281" xlink:href="#ArialMT-61"/>
      <use x="277.978516" xlink:href="#ArialMT-72"/>
     </g>
    </g>
    <g id="line2d_13">
     <path d="M 642.244062 101.0978 
L 664.244062 101.0978 
" style="fill:none;stroke:#dd8452;stroke-dasharray:6,2.25;stroke-dashoffset:0;stroke-width:1.5;"/>
    </g>
    <g id="line2d_14"/>
    <g id="text_18">
     <!-- splitted_3s -->
     <g style="fill:#262626;" transform="translate(673.044062 104.9478)scale(0.11 -0.11)">
      <defs>
       <path d="M 422 -1272 
L 422 3319 
L 934 3319 
L 934 2888 
Q 1116 3141 1344 3267 
Q 1572 3394 1897 3394 
Q 2322 3394 2647 3175 
Q 2972 2956 3137 2557 
Q 3303 2159 3303 1684 
Q 3303 1175 3120 767 
Q 2938 359 2589 142 
Q 2241 -75 1856 -75 
Q 1575 -75 1351 44 
Q 1128 163 984 344 
L 984 -1272 
L 422 -1272 
z
M 931 1641 
Q 931 1000 1190 694 
Q 1450 388 1819 388 
Q 2194 388 2461 705 
Q 2728 1022 2728 1688 
Q 2728 2322 2467 2637 
Q 2206 2953 1844 2953 
Q 1484 2953 1207 2617 
Q 931 2281 931 1641 
z
" id="ArialMT-70" transform="scale(0.015625)"/>
       <path d="M 2575 0 
L 2575 419 
Q 2259 -75 1647 -75 
Q 1250 -75 917 144 
Q 584 363 401 755 
Q 219 1147 219 1656 
Q 219 2153 384 2558 
Q 550 2963 881 3178 
Q 1213 3394 1622 3394 
Q 1922 3394 2156 3267 
Q 2391 3141 2538 2938 
L 2538 4581 
L 3097 4581 
L 3097 0 
L 2575 0 
z
M 797 1656 
Q 797 1019 1065 703 
Q 1334 388 1700 388 
Q 2069 388 2326 689 
Q 2584 991 2584 1609 
Q 2584 2291 2321 2609 
Q 2059 2928 1675 2928 
Q 1300 2928 1048 2622 
Q 797 2316 797 1656 
z
" id="ArialMT-64" transform="scale(0.015625)"/>
       <path d="M -97 -1272 
L -97 -866 
L 3631 -866 
L 3631 -1272 
L -97 -1272 
z
" id="ArialMT-5f" transform="scale(0.015625)"/>
       <path d="M 269 1209 
L 831 1284 
Q 928 806 1161 595 
Q 1394 384 1728 384 
Q 2125 384 2398 659 
Q 2672 934 2672 1341 
Q 2672 1728 2419 1979 
Q 2166 2231 1775 2231 
Q 1616 2231 1378 2169 
L 1441 2663 
Q 1497 2656 1531 2656 
Q 1891 2656 2178 2843 
Q 2466 3031 2466 3422 
Q 2466 3731 2256 3934 
Q 2047 4138 1716 4138 
Q 1388 4138 1169 3931 
Q 950 3725 888 3313 
L 325 3413 
Q 428 3978 793 4289 
Q 1159 4600 1703 4600 
Q 2078 4600 2393 4439 
Q 2709 4278 2876 4000 
Q 3044 3722 3044 3409 
Q 3044 3113 2884 2869 
Q 2725 2625 2413 2481 
Q 2819 2388 3044 2092 
Q 3269 1797 3269 1353 
Q 3269 753 2831 336 
Q 2394 -81 1725 -81 
Q 1122 -81 723 278 
Q 325 638 269 1209 
z
" id="ArialMT-33" transform="scale(0.015625)"/>
      </defs>
      <use xlink:href="#ArialMT-73"/>
      <use x="50" xlink:href="#ArialMT-70"/>
      <use x="105.615234" xlink:href="#ArialMT-6c"/>
      <use x="127.832031" xlink:href="#ArialMT-69"/>
      <use x="150.048828" xlink:href="#ArialMT-74"/>
      <use x="177.832031" xlink:href="#ArialMT-74"/>
      <use x="205.615234" xlink:href="#ArialMT-65"/>
      <use x="261.230469" xlink:href="#ArialMT-64"/>
      <use x="316.845703" xlink:href="#ArialMT-5f"/>
      <use x="372.460938" xlink:href="#ArialMT-33"/>
      <use x="428.076172" xlink:href="#ArialMT-73"/>
     </g>
    </g>
    <g id="line2d_15">
     <path d="M 642.244062 116.6903 
L 664.244062 116.6903 
" style="fill:none;stroke:#55a868;stroke-dasharray:1.5,1.5;stroke-dashoffset:0;stroke-width:1.5;"/>
    </g>
    <g id="line2d_16"/>
    <g id="text_19">
     <!-- splitted_1s -->
     <g style="fill:#262626;" transform="translate(673.044062 120.5403)scale(0.11 -0.11)">
      <use xlink:href="#ArialMT-73"/>
      <use x="50" xlink:href="#ArialMT-70"/>
      <use x="105.615234" xlink:href="#ArialMT-6c"/>
      <use x="127.832031" xlink:href="#ArialMT-69"/>
      <use x="150.048828" xlink:href="#ArialMT-74"/>
      <use x="177.832031" xlink:href="#ArialMT-74"/>
      <use x="205.615234" xlink:href="#ArialMT-65"/>
      <use x="261.230469" xlink:href="#ArialMT-64"/>
      <use x="316.845703" xlink:href="#ArialMT-5f"/>
      <use x="372.460938" xlink:href="#ArialMT-31"/>
      <use x="428.076172" xlink:href="#ArialMT-73"/>
     </g>
    </g>
    <g id="line2d_17">
     <path d="M 642.244062 132.384206 
L 664.244062 132.384206 
" style="fill:none;stroke:#c44e52;stroke-dasharray:4.5,1.875,2.25,1.875;stroke-dashoffset:0;stroke-width:1.5;"/>
    </g>
    <g id="line2d_18"/>
    <g id="text_20">
     <!-- overlap_1f_3s -->
     <g style="fill:#262626;" transform="translate(673.044062 136.234206)scale(0.11 -0.11)">
      <use xlink:href="#ArialMT-6f"/>
      <use x="55.615234" xlink:href="#ArialMT-76"/>
      <use x="105.615234" xlink:href="#ArialMT-65"/>
      <use x="161.230469" xlink:href="#ArialMT-72"/>
      <use x="194.53125" xlink:href="#ArialMT-6c"/>
      <use x="216.748047" xlink:href="#ArialMT-61"/>
      <use x="272.363281" xlink:href="#ArialMT-70"/>
      <use x="327.978516" xlink:href="#ArialMT-5f"/>
      <use x="383.59375" xlink:href="#ArialMT-31"/>
      <use x="439.208984" xlink:href="#ArialMT-66"/>
      <use x="466.992188" xlink:href="#ArialMT-5f"/>
      <use x="522.607422" xlink:href="#ArialMT-33"/>
      <use x="578.222656" xlink:href="#ArialMT-73"/>
     </g>
    </g>
    <g id="line2d_19">
     <path d="M 642.244062 148.078113 
L 664.244062 148.078113 
" style="fill:none;stroke:#8172b3;stroke-dasharray:7.5,1.5,1.5,1.5;stroke-dashoffset:0;stroke-width:1.5;"/>
    </g>
    <g id="line2d_20"/>
    <g id="text_21">
     <!-- overlap_10f_3s -->
     <g style="fill:#262626;" transform="translate(673.044062 151.928112)scale(0.11 -0.11)">
      <use xlink:href="#ArialMT-6f"/>
      <use x="55.615234" xlink:href="#ArialMT-76"/>
      <use x="105.615234" xlink:href="#ArialMT-65"/>
      <use x="161.230469" xlink:href="#ArialMT-72"/>
      <use x="194.53125" xlink:href="#ArialMT-6c"/>
      <use x="216.748047" xlink:href="#ArialMT-61"/>
      <use x="272.363281" xlink:href="#ArialMT-70"/>
      <use x="327.978516" xlink:href="#ArialMT-5f"/>
      <use x="383.59375" xlink:href="#ArialMT-31"/>
      <use x="439.208984" xlink:href="#ArialMT-30"/>
      <use x="494.824219" xlink:href="#ArialMT-66"/>
      <use x="522.607422" xlink:href="#ArialMT-5f"/>
      <use x="578.222656" xlink:href="#ArialMT-33"/>
      <use x="633.837891" xlink:href="#ArialMT-73"/>
     </g>
    </g>
   </g>
  </g>
 </g>
 <defs>
  <clipPath id="p03a0ff32a7">
   <rect height="458.4888" width="652.86" x="105.3" y="71.4528"/>
  </clipPath>
 </defs>
</svg>
