<?xml version="1.0" encoding="utf-8" standalone="no"?>
<!DOCTYPE svg PUBLIC "-//W3C//DTD SVG 1.1//EN"
  "http://www.w3.org/Graphics/SVG/1.1/DTD/svg11.dtd">
<svg height="595.44pt" version="1.1" viewBox="0 0 842.4 595.44" width="842.4pt" xmlns="http://www.w3.org/2000/svg" xmlns:xlink="http://www.w3.org/1999/xlink">
 <metadata>
  <rdf:RDF xmlns:cc="http://creativecommons.org/ns#" xmlns:dc="http://purl.org/dc/elements/1.1/" xmlns:rdf="http://www.w3.org/1999/02/22-rdf-syntax-ns#">
   <cc:Work>
    <dc:type rdf:resource="http://purl.org/dc/dcmitype/StillImage"/>
    <dc:date>2021-06-04T22:03:14.498168</dc:date>
    <dc:format>image/svg+xml</dc:format>
    <dc:creator>
     <cc:Agent>
      <dc:title>Matplotlib v3.4.1, https://matplotlib.org/</dc:title>
     </cc:Agent>
    </dc:creator>
   </cc:Work>
  </rdf:RDF>
 </metadata>
 <defs>
  <style type="text/css">*{stroke-linecap:butt;stroke-linejoin:round;}</style>
 </defs>
 <g id="figure_1">
  <g id="patch_1">
   <path d="M 0 595.44 
L 842.4 595.44 
L 842.4 0 
L 0 0 
z
" style="fill:#ffffff;"/>
  </g>
  <g id="axes_1">
   <g id="patch_2">
    <path d="M 105.3 529.9416 
L 758.16 529.9416 
L 758.16 71.4528 
L 105.3 71.4528 
z
" style="fill:#ffffff;"/>
   </g>
   <g id="matplotlib.axis_1">
    <g id="xtick_1">
     <g id="text_1">
      <!-- 0 -->
      <g style="fill:#262626;" transform="translate(131.916939 547.315194)scale(0.11 -0.11)">
       <defs>
        <path d="M 266 2259 
Q 266 3072 433 3567 
Q 600 4063 929 4331 
Q 1259 4600 1759 4600 
Q 2128 4600 2406 4451 
Q 2684 4303 2865 4023 
Q 3047 3744 3150 3342 
Q 3253 2941 3253 2259 
Q 3253 1453 3087 958 
Q 2922 463 2592 192 
Q 2263 -78 1759 -78 
Q 1097 -78 719 397 
Q 266 969 266 2259 
z
M 844 2259 
Q 844 1131 1108 757 
Q 1372 384 1759 384 
Q 2147 384 2411 759 
Q 2675 1134 2675 2259 
Q 2675 3391 2411 3762 
Q 2147 4134 1753 4134 
Q 1366 4134 1134 3806 
Q 844 3388 844 2259 
z
" id="ArialMT-30" transform="scale(0.015625)"/>
       </defs>
       <use xlink:href="#ArialMT-30"/>
      </g>
     </g>
    </g>
    <g id="xtick_2">
     <g id="text_2">
      <!-- 25 -->
      <g style="fill:#262626;" transform="translate(201.950676 547.315194)scale(0.11 -0.11)">
       <defs>
        <path d="M 3222 541 
L 3222 0 
L 194 0 
Q 188 203 259 391 
Q 375 700 629 1000 
Q 884 1300 1366 1694 
Q 2113 2306 2375 2664 
Q 2638 3022 2638 3341 
Q 2638 3675 2398 3904 
Q 2159 4134 1775 4134 
Q 1369 4134 1125 3890 
Q 881 3647 878 3216 
L 300 3275 
Q 359 3922 746 4261 
Q 1134 4600 1788 4600 
Q 2447 4600 2831 4234 
Q 3216 3869 3216 3328 
Q 3216 3053 3103 2787 
Q 2991 2522 2730 2228 
Q 2469 1934 1863 1422 
Q 1356 997 1212 845 
Q 1069 694 975 541 
L 3222 541 
z
" id="ArialMT-32" transform="scale(0.015625)"/>
        <path d="M 266 1200 
L 856 1250 
Q 922 819 1161 601 
Q 1400 384 1738 384 
Q 2144 384 2425 690 
Q 2706 997 2706 1503 
Q 2706 1984 2436 2262 
Q 2166 2541 1728 2541 
Q 1456 2541 1237 2417 
Q 1019 2294 894 2097 
L 366 2166 
L 809 4519 
L 3088 4519 
L 3088 3981 
L 1259 3981 
L 1013 2750 
Q 1425 3038 1878 3038 
Q 2478 3038 2890 2622 
Q 3303 2206 3303 1553 
Q 3303 931 2941 478 
Q 2500 -78 1738 -78 
Q 1113 -78 717 272 
Q 322 622 266 1200 
z
" id="ArialMT-35" transform="scale(0.015625)"/>
       </defs>
       <use xlink:href="#ArialMT-32"/>
       <use x="55.615234" xlink:href="#ArialMT-35"/>
      </g>
     </g>
    </g>
    <g id="xtick_3">
     <g id="text_3">
      <!-- 50 -->
      <g style="fill:#262626;" transform="translate(275.042928 547.315194)scale(0.11 -0.11)">
       <use xlink:href="#ArialMT-35"/>
       <use x="55.615234" xlink:href="#ArialMT-30"/>
      </g>
     </g>
    </g>
    <g id="xtick_4">
     <g id="text_4">
      <!-- 75 -->
      <g style="fill:#262626;" transform="translate(348.135181 547.315194)scale(0.11 -0.11)">
       <defs>
        <path d="M 303 3981 
L 303 4522 
L 3269 4522 
L 3269 4084 
Q 2831 3619 2401 2847 
Q 1972 2075 1738 1259 
Q 1569 684 1522 0 
L 944 0 
Q 953 541 1156 1306 
Q 1359 2072 1739 2783 
Q 2119 3494 2547 3981 
L 303 3981 
z
" id="ArialMT-37" transform="scale(0.015625)"/>
       </defs>
       <use xlink:href="#ArialMT-37"/>
       <use x="55.615234" xlink:href="#ArialMT-35"/>
      </g>
     </g>
    </g>
    <g id="xtick_5">
     <g id="text_5">
      <!-- 100 -->
      <g style="fill:#262626;" transform="translate(418.168918 547.315194)scale(0.11 -0.11)">
       <defs>
        <path d="M 2384 0 
L 1822 0 
L 1822 3584 
Q 1619 3391 1289 3197 
Q 959 3003 697 2906 
L 697 3450 
Q 1169 3672 1522 3987 
Q 1875 4303 2022 4600 
L 2384 4600 
L 2384 0 
z
" id="ArialMT-31" transform="scale(0.015625)"/>
       </defs>
       <use xlink:href="#ArialMT-31"/>
       <use x="55.615234" xlink:href="#ArialMT-30"/>
       <use x="111.230469" xlink:href="#ArialMT-30"/>
      </g>
     </g>
    </g>
    <g id="xtick_6">
     <g id="text_6">
      <!-- 125 -->
      <g style="fill:#262626;" transform="translate(491.261171 547.315194)scale(0.11 -0.11)">
       <use xlink:href="#ArialMT-31"/>
       <use x="55.615234" xlink:href="#ArialMT-32"/>
       <use x="111.230469" xlink:href="#ArialMT-35"/>
      </g>
     </g>
    </g>
    <g id="xtick_7">
     <g id="text_7">
      <!-- 150 -->
      <g style="fill:#262626;" transform="translate(564.353423 547.315194)scale(0.11 -0.11)">
       <use xlink:href="#ArialMT-31"/>
       <use x="55.615234" xlink:href="#ArialMT-35"/>
       <use x="111.230469" xlink:href="#ArialMT-30"/>
      </g>
     </g>
    </g>
    <g id="xtick_8">
     <g id="text_8">
      <!-- 175 -->
      <g style="fill:#262626;" transform="translate(637.445676 547.315194)scale(0.11 -0.11)">
       <use xlink:href="#ArialMT-31"/>
       <use x="55.615234" xlink:href="#ArialMT-37"/>
       <use x="111.230469" xlink:href="#ArialMT-35"/>
      </g>
     </g>
    </g>
    <g id="xtick_9">
     <g id="text_9">
      <!-- 200 -->
      <g style="fill:#262626;" transform="translate(710.537928 547.315194)scale(0.11 -0.11)">
       <use xlink:href="#ArialMT-32"/>
       <use x="55.615234" xlink:href="#ArialMT-30"/>
       <use x="111.230469" xlink:href="#ArialMT-30"/>
      </g>
     </g>
    </g>
   </g>
   <g id="matplotlib.axis_2">
    <g id="ytick_1">
     <g id="text_10">
      <!-- −25 -->
      <g style="fill:#262626;" transform="translate(77.14125 533.878397)scale(0.11 -0.11)">
       <defs>
        <path d="M 3381 1997 
L 356 1997 
L 356 2522 
L 3381 2522 
L 3381 1997 
z
" id="ArialMT-2212" transform="scale(0.015625)"/>
       </defs>
       <use xlink:href="#ArialMT-2212"/>
       <use x="58.398438" xlink:href="#ArialMT-32"/>
       <use x="114.013672" xlink:href="#ArialMT-35"/>
      </g>
     </g>
    </g>
    <g id="ytick_2">
     <g id="text_11">
      <!-- −20 -->
      <g style="fill:#262626;" transform="translate(77.14125 442.180637)scale(0.11 -0.11)">
       <use xlink:href="#ArialMT-2212"/>
       <use x="58.398438" xlink:href="#ArialMT-32"/>
       <use x="114.013672" xlink:href="#ArialMT-30"/>
      </g>
     </g>
    </g>
    <g id="ytick_3">
     <g id="text_12">
      <!-- −15 -->
      <g style="fill:#262626;" transform="translate(77.14125 350.482877)scale(0.11 -0.11)">
       <use xlink:href="#ArialMT-2212"/>
       <use x="58.398438" xlink:href="#ArialMT-31"/>
       <use x="114.013672" xlink:href="#ArialMT-35"/>
      </g>
     </g>
    </g>
    <g id="ytick_4">
     <g id="text_13">
      <!-- −10 -->
      <g style="fill:#262626;" transform="translate(77.14125 258.785117)scale(0.11 -0.11)">
       <use xlink:href="#ArialMT-2212"/>
       <use x="58.398438" xlink:href="#ArialMT-31"/>
       <use x="114.013672" xlink:href="#ArialMT-30"/>
      </g>
     </g>
    </g>
    <g id="ytick_5">
     <g id="text_14">
      <!-- −5 -->
      <g style="fill:#262626;" transform="translate(83.258281 167.087357)scale(0.11 -0.11)">
       <use xlink:href="#ArialMT-2212"/>
       <use x="58.398438" xlink:href="#ArialMT-35"/>
      </g>
     </g>
    </g>
    <g id="ytick_6">
     <g id="text_15">
      <!-- 0 -->
      <g style="fill:#262626;" transform="translate(89.682969 75.389597)scale(0.11 -0.11)">
       <use xlink:href="#ArialMT-30"/>
      </g>
     </g>
    </g>
   </g>
   <g id="line2d_1">
    <path clip-path="url(#p4d41fde56a)" d="M 134.975455 359.953936 
L 137.899145 359.259234 
L 140.822835 365.213954 
L 143.746525 362.270253 
L 146.670215 359.963957 
L 149.593905 363.931537 
L 152.517595 364.054981 
L 155.441285 369.52299 
L 158.364975 371.208322 
L 161.288665 375.107324 
L 164.212356 382.566932 
L 167.136046 388.184812 
L 170.059736 428.519213 
L 172.983426 444.765251 
L 175.907116 467.943995 
L 178.830806 508.738277 
L 181.754496 554.874237 
L 184.678186 477.603035 
L 187.601876 420.557993 
L 190.525567 518.262085 
L 193.449257 455.835207 
L 196.372947 426.379386 
L 199.296637 508.885472 
L 202.220327 375.047054 
L 205.144017 375.069301 
L 208.067707 534.285931 
L 210.991397 462.703444 
L 213.915087 532.218128 
L 216.838777 577.19237 
L 219.762468 561.649183 
L 222.686158 554.475466 
L 225.609848 545.222263 
L 228.533538 557.285088 
L 231.457228 500.476999 
L 234.380918 318.355885 
L 237.304608 447.816165 
L 240.228298 451.533306 
L 243.151988 448.776224 
L 246.075678 390.416426 
L 248.999369 311.161355 
L 251.923059 370.509773 
L 254.846749 345.082555 
L 257.770439 364.363522 
L 260.694129 340.462267 
L 263.617819 499.480177 
L 266.541509 436.947449 
L 269.465199 427.95726 
L 272.388889 457.377506 
L 275.312579 506.425999 
L 278.23627 499.787125 
L 281.15996 476.894552 
L 284.08365 405.816685 
L 287.00734 363.718842 
L 289.93103 378.31131 
L 292.85472 305.662582 
L 295.77841 328.793806 
L 298.7021 426.293265 
L 301.62579 419.394701 
L 304.549481 417.795419 
L 307.473171 359.040435 
L 310.396861 349.723708 
L 313.320551 345.479787 
L 316.244241 414.374452 
L 319.167931 366.794626 
L 322.091621 441.018902 
L 325.015311 399.47542 
L 327.939001 455.6113 
L 330.862691 467.243068 
L 333.786382 415.082971 
L 336.710072 430.579005 
L 339.633762 555.953613 
L 342.557452 575.969437 
L 345.481142 473.051973 
L 348.404832 392.33441 
L 351.328522 345.322815 
L 354.252212 398.147548 
L 357.175902 454.397882 
L 360.099592 488.384546 
L 362.813301 596.44 
M 363.286504 596.44 
L 365.946973 511.931489 
L 368.870663 457.646362 
L 371.794353 460.230958 
L 374.718043 508.118153 
L 377.641733 530.592471 
L 380.565423 534.239618 
L 383.489113 520.011221 
L 386.412803 449.292352 
L 389.336494 431.608954 
L 392.260184 430.30109 
L 395.183874 470.796958 
L 398.107564 447.740643 
L 401.031254 411.438763 
L 403.954944 394.322459 
L 406.878634 406.874898 
L 409.802324 418.448948 
L 412.726014 450.081534 
L 415.649704 530.383606 
L 418.573395 476.631643 
L 421.497085 545.206172 
L 423.49926 596.44 
M 424.917916 596.44 
L 427.344465 481.342459 
L 430.268155 513.28913 
L 433.191845 553.275585 
L 436.115535 442.040281 
L 439.039225 498.965097 
L 441.962915 549.467076 
L 444.886605 519.981907 
L 447.810296 471.977495 
L 450.733986 450.294142 
L 453.657676 547.815744 
L 456.581366 496.979497 
L 459.505056 522.296879 
L 462.428746 503.970689 
L 465.352436 520.734955 
L 468.276126 524.267577 
L 471.199816 488.251098 
L 477.047197 484.151311 
L 479.970887 417.615622 
L 482.894577 476.981442 
L 485.818267 449.478551 
L 488.741957 436.805046 
L 491.665647 382.511279 
L 494.589337 369.452016 
L 497.513027 457.896888 
L 500.436717 423.865484 
L 503.360408 411.93149 
L 506.284098 465.589042 
L 509.207788 491.996083 
L 512.131478 493.129327 
L 515.055168 387.161894 
L 517.978858 261.610113 
L 520.902548 407.98593 
L 523.826238 504.337733 
L 526.749928 462.545055 
L 529.673618 504.346793 
L 532.597309 563.294184 
L 535.520999 507.602724 
L 538.444689 464.120655 
L 541.368379 488.092639 
L 544.292069 474.481987 
L 547.215759 408.596294 
L 550.139449 450.539072 
L 553.063139 350.575504 
L 555.986829 406.798117 
L 558.910519 430.795881 
L 561.83421 503.747972 
L 564.7579 571.316898 
L 567.68159 515.308066 
L 570.60528 495.307177 
L 573.52897 480.2868 
L 576.45266 483.999603 
L 579.37635 438.658807 
L 582.30004 422.580742 
L 585.22373 410.769107 
L 588.147421 464.141118 
L 591.071111 469.305134 
L 593.994801 467.890546 
L 596.918491 407.499044 
L 599.842181 487.340815 
L 602.765871 521.569366 
L 605.689561 446.102184 
L 608.613251 432.730865 
L 611.536941 510.259868 
L 614.460631 496.374275 
L 617.384322 373.018148 
L 620.308012 406.680759 
L 623.231702 538.886 
L 626.155392 566.310992 
L 629.079082 526.833319 
L 632.002772 443.112275 
L 634.926462 475.88755 
L 637.850152 518.737532 
L 640.773842 421.732688 
L 643.697532 395.367693 
L 646.621223 409.142401 
L 649.544913 446.900356 
L 652.468603 556.858613 
L 655.392293 534.624222 
L 658.315983 468.084615 
L 661.239673 516.321574 
L 664.163363 411.127057 
L 667.087053 430.341666 
L 670.010743 452.85023 
L 672.934433 451.559051 
L 675.858124 448.55711 
L 678.781814 464.016765 
L 681.705504 522.152272 
L 684.629194 557.442603 
L 687.552884 503.743075 
L 690.476574 561.75073 
L 693.400264 482.248334 
L 696.323954 520.4477 
L 699.247644 485.200079 
L 702.171335 422.056987 
L 705.095025 396.276367 
L 708.018715 386.801916 
L 710.942405 383.00642 
L 713.866095 380.408811 
L 716.789785 382.37783 
L 719.713475 380.204528 
L 722.637165 375.773762 
L 725.560855 383.675131 
L 728.484545 378.406875 
L 728.484545 378.406875 
" style="fill:none;stroke:#4c72b0;stroke-linecap:round;stroke-width:1.5;"/>
   </g>
   <g id="line2d_2">
    <path clip-path="url(#p4d41fde56a)" d="M 134.975455 354.039898 
L 137.899145 354.270556 
L 140.822835 356.607931 
L 143.746525 355.400477 
L 146.670215 355.39572 
L 149.593905 357.950461 
L 152.517595 356.296173 
L 155.441285 360.35631 
L 158.364975 360.265852 
L 161.288665 362.926039 
L 164.212356 366.502754 
L 167.136046 368.810204 
L 170.059736 407.968405 
L 172.983426 412.812949 
L 175.907116 442.521289 
L 178.830806 489.734316 
L 181.754496 527.057576 
L 184.678186 464.344107 
L 187.601876 387.693974 
L 190.525567 513.928318 
L 193.449257 445.326924 
L 196.372947 431.451789 
L 199.296637 502.826391 
L 202.220327 397.745628 
L 205.144017 404.218348 
L 208.067707 532.380435 
L 210.991397 480.82577 
L 213.915087 490.154075 
L 216.838777 581.491088 
L 219.762468 548.474486 
L 222.686158 551.660457 
L 225.609848 531.906247 
L 228.533538 535.100753 
L 231.457228 503.536378 
L 234.380918 322.701336 
L 237.304608 420.429826 
L 240.228298 442.140463 
L 243.151988 430.603841 
L 246.075678 392.173537 
L 248.999369 339.157044 
L 251.923059 366.394561 
L 254.846749 344.92623 
L 257.770439 369.208171 
L 260.694129 356.469149 
L 263.617819 507.784969 
L 266.541509 444.890374 
L 269.465199 435.282755 
L 272.388889 472.397639 
L 275.312579 516.121908 
L 278.23627 513.266253 
L 281.15996 513.451226 
L 284.08365 427.53152 
L 287.00734 375.099489 
L 289.93103 400.330924 
L 292.85472 337.730458 
L 295.77841 329.685304 
L 298.7021 441.555074 
L 301.62579 427.67903 
L 304.549481 416.510186 
L 307.473171 359.147351 
L 310.396861 337.60119 
L 316.244241 431.830587 
L 319.167931 408.041163 
L 322.091621 449.368644 
L 325.015311 409.34497 
L 327.939001 451.213904 
L 330.862691 450.140755 
L 333.786382 385.572686 
L 336.710072 449.012128 
L 339.633762 551.884329 
L 342.557452 581.979827 
L 345.481142 469.971641 
L 348.404832 423.563852 
L 351.328522 420.203436 
L 354.252212 391.769414 
L 357.175902 381.684039 
L 360.099592 343.489605 
L 363.023283 404.684175 
L 365.946973 409.965688 
L 368.870663 353.197442 
L 371.794353 367.924058 
L 374.718043 427.988287 
L 377.641733 448.736557 
L 380.565423 512.067281 
L 383.489113 471.044301 
L 386.412803 472.182687 
L 389.336494 439.997733 
L 392.260184 411.215346 
L 395.183874 467.144774 
L 398.107564 428.908364 
L 401.031254 404.384257 
L 403.954944 416.482797 
L 406.878634 401.595378 
L 409.802324 445.139606 
L 412.726014 490.657681 
L 415.649704 540.666408 
L 418.573395 443.816666 
L 421.497085 519.488411 
L 424.420775 565.088374 
L 427.344465 415.200188 
L 430.268155 447.45937 
L 433.191845 485.21631 
L 436.115535 393.051498 
L 439.039225 507.030033 
L 441.962915 550.023502 
L 444.886605 468.535086 
L 447.810296 431.284095 
L 450.733986 464.219089 
L 453.657676 522.72171 
L 456.581366 492.935854 
L 459.505056 503.999757 
L 462.428746 477.190063 
L 465.352436 510.385132 
L 468.276126 499.725561 
L 471.199816 497.437559 
L 474.123506 471.491764 
L 477.047197 512.607021 
L 479.970887 400.540244 
L 482.894577 481.47909 
L 485.818267 468.221491 
L 488.741957 447.742462 
L 491.665647 392.907206 
L 494.589337 357.990635 
L 497.513027 460.697485 
L 500.436717 432.334297 
L 503.360408 429.234412 
L 506.284098 480.77386 
L 509.207788 519.159215 
L 512.131478 486.767844 
L 515.055168 364.997778 
L 517.978858 278.737716 
L 520.902548 410.327696 
L 523.826238 499.546184 
L 526.749928 489.038496 
L 529.673618 532.962186 
L 532.597309 563.543381 
L 535.520999 518.569768 
L 538.444689 479.59794 
L 541.368379 464.186347 
L 544.292069 483.148822 
L 547.215759 359.580088 
L 550.139449 403.362739 
L 553.063139 351.236502 
L 555.986829 337.197522 
L 558.910519 386.478456 
L 561.83421 429.672221 
L 564.7579 537.690632 
L 567.68159 494.854817 
L 570.60528 526.208018 
L 573.52897 299.855636 
L 576.45266 322.052283 
L 579.37635 362.716072 
L 582.30004 326.982126 
L 585.22373 416.838613 
L 588.147421 419.525875 
L 591.071111 446.703034 
L 593.994801 435.941007 
L 596.918491 373.318241 
L 599.842181 489.765064 
L 602.765871 507.093661 
L 605.689561 463.183298 
L 608.613251 477.118039 
L 611.536941 506.998306 
L 614.460631 506.252184 
L 617.384322 441.045871 
L 620.308012 443.707529 
L 623.231702 551.304257 
L 626.155392 589.590723 
L 629.079082 510.55328 
L 632.002772 456.863966 
L 634.926462 508.523255 
L 637.850152 489.278248 
L 640.773842 407.614968 
L 643.697532 364.151176 
L 646.621223 392.836092 
L 649.544913 449.008351 
L 652.468603 539.170912 
L 655.392293 546.044886 
L 658.315983 419.121437 
L 661.239673 481.150384 
L 664.163363 370.213004 
L 667.087053 419.741072 
L 670.010743 462.129353 
L 672.934433 432.595667 
L 675.858124 439.217226 
L 678.781814 465.342924 
L 684.629194 536.734211 
L 687.552884 464.047407 
L 690.476574 533.989931 
L 693.400264 492.308419 
L 696.323954 520.7791 
L 699.247644 474.563141 
L 702.171335 413.873925 
L 705.095025 395.309242 
L 710.942405 384.061764 
L 713.866095 379.194413 
L 716.789785 384.15572 
L 719.713475 383.435868 
L 722.637165 374.678225 
L 725.560855 379.93903 
L 728.484545 371.649279 
L 728.484545 371.649279 
" style="fill:none;stroke:#dd8452;stroke-dasharray:6,2.25;stroke-dashoffset:0;stroke-width:1.5;"/>
   </g>
   <g id="line2d_3">
    <path clip-path="url(#p4d41fde56a)" d="M 134.975455 361.576881 
L 137.899145 363.43519 
L 140.822835 364.20034 
L 143.746525 361.056398 
L 146.670215 367.234499 
L 149.593905 368.662344 
L 152.517595 366.324601 
L 155.441285 408.40394 
L 158.364975 405.979762 
L 161.288665 392.375896 
L 164.212356 399.806016 
L 167.136046 396.932765 
L 172.983426 426.516612 
L 175.907116 452.743646 
L 181.754496 517.311855 
L 184.678186 396.072819 
L 187.601876 369.476851 
L 190.525567 422.091512 
L 193.449257 417.954647 
L 196.372947 424.798049 
L 199.296637 422.668156 
L 202.220327 422.395873 
L 208.067707 328.598093 
L 210.991397 453.179426 
L 213.915087 481.854005 
L 216.838777 447.454752 
L 219.762468 477.261492 
L 222.686158 483.658899 
L 225.609848 446.070142 
L 228.533538 488.981409 
L 231.457228 497.018605 
L 234.380918 298.483531 
L 237.304608 427.737131 
L 240.228298 454.690069 
L 243.151988 437.000759 
L 246.075678 347.617952 
L 248.999369 328.540604 
L 251.923059 300.94937 
L 254.846749 353.50126 
L 257.770439 361.493349 
L 260.694129 325.381375 
L 263.617819 475.259171 
L 266.541509 442.645398 
L 269.465199 478.503768 
L 272.388889 498.248289 
L 275.312579 490.71288 
L 278.23627 471.749356 
L 281.15996 402.31586 
L 284.08365 386.309189 
L 287.00734 249.668336 
L 289.93103 299.721925 
L 292.85472 313.440017 
L 295.77841 411.0777 
L 298.7021 513.874833 
L 301.62579 489.778006 
L 304.549481 435.900045 
L 307.473171 350.160398 
L 310.396861 382.670018 
L 313.320551 427.825561 
L 316.244241 458.785098 
L 319.167931 433.922771 
L 322.091621 503.096191 
L 325.015311 447.614646 
L 327.939001 464.294575 
L 330.862691 507.223122 
L 333.786382 434.697156 
L 336.710072 471.226091 
L 339.264007 596.44 
M 343.757466 596.44 
L 345.481142 523.828579 
L 348.404832 443.260835 
L 351.328522 438.49594 
L 354.252212 388.064761 
L 357.175902 412.909598 
L 360.099592 417.545487 
L 363.023283 300.20589 
L 365.946973 390.106854 
L 368.870663 413.334779 
L 371.794353 283.921565 
L 374.718043 417.371392 
L 377.641733 402.459522 
L 380.565423 424.61318 
L 383.489113 451.812026 
L 386.412803 484.309596 
L 389.336494 438.965651 
L 392.260184 421.884641 
L 395.183874 442.704374 
L 398.107564 491.911711 
L 401.031254 387.744275 
L 403.954944 425.670483 
L 406.878634 421.351827 
L 409.802324 517.951988 
L 412.726014 532.340453 
L 414.668537 596.44 
M 416.865776 596.44 
L 418.573395 550.97639 
L 421.497085 545.225586 
L 424.335587 596.44 
M 424.448506 596.44 
L 427.344465 435.929638 
L 430.268155 438.428814 
L 433.191845 367.783718 
L 436.115535 309.800392 
L 439.039225 486.12201 
L 441.962915 503.659228 
L 444.886605 479.286479 
L 447.810296 458.800664 
L 450.733986 422.39979 
L 453.657676 452.393917 
L 456.581366 506.111425 
L 459.505056 554.889174 
L 462.428746 490.020837 
L 465.352436 509.988739 
L 468.276126 483.515202 
L 471.199816 426.423531 
L 474.123506 389.763526 
L 477.047197 479.003596 
L 479.970887 412.720322 
L 482.894577 450.140895 
L 485.818267 415.062927 
L 488.741957 401.138191 
L 491.665647 282.151476 
L 494.589337 261.499472 
L 497.513027 348.07061 
L 500.436717 309.068542 
L 503.360408 414.519234 
L 506.284098 452.141747 
L 509.207788 530.740856 
L 512.131478 520.451373 
L 515.055168 277.792873 
L 517.978858 278.520701 
L 520.902548 358.83101 
L 523.826238 429.882205 
L 526.749928 493.057304 
L 529.673618 445.076328 
L 532.597309 473.996396 
L 535.520999 498.521132 
L 538.444689 470.142728 
L 541.368379 429.474444 
L 544.292069 435.26467 
L 547.215759 366.295743 
L 550.139449 389.127521 
L 553.063139 288.706171 
L 555.986829 250.149135 
L 558.910519 439.922526 
L 561.83421 445.81283 
L 564.7579 512.006591 
L 567.68159 539.656363 
L 570.60528 453.426944 
L 573.52897 400.126397 
L 576.45266 412.585614 
L 579.37635 353.206292 
L 582.30004 368.834865 
L 585.22373 473.261188 
L 588.147421 403.875544 
L 591.071111 409.101929 
L 593.994801 359.845358 
L 596.918491 389.387771 
L 599.842181 422.498504 
L 602.765871 444.642437 
L 605.689561 472.261602 
L 608.613251 461.64677 
L 611.536941 507.52318 
L 614.460631 503.7415 
L 617.384322 396.970928 
L 620.308012 433.521341 
L 623.231702 537.24065 
L 626.155392 560.120316 
L 629.079082 510.450264 
L 632.002772 470.212898 
L 634.926462 492.013398 
L 637.850152 474.055372 
L 640.773842 432.44389 
L 643.697532 398.806499 
L 646.621223 387.541741 
L 649.544913 499.464366 
L 652.468603 512.335822 
L 655.392293 559.002882 
L 658.315983 392.006788 
L 661.239673 277.693828 
L 664.163363 226.988073 
L 667.087053 367.117806 
L 670.010743 303.070553 
L 672.934433 300.103468 
L 675.858124 403.813455 
L 678.781814 398.42284 
L 681.705504 424.654876 
L 684.629194 457.272671 
L 687.552884 488.184566 
L 690.476574 482.231264 
L 693.400264 480.20757 
L 696.323954 511.143776 
L 699.247644 463.974089 
L 702.171335 409.294913 
L 705.095025 389.788711 
L 708.018715 385.128057 
L 710.942405 384.806626 
L 713.866095 377.996316 
L 716.789785 382.515581 
L 719.713475 375.87244 
L 722.637165 375.74158 
L 725.560855 385.044699 
L 728.484545 388.757223 
L 728.484545 388.757223 
" style="fill:none;stroke:#55a868;stroke-dasharray:1.5,1.5;stroke-dashoffset:0;stroke-width:1.5;"/>
   </g>
   <g id="line2d_4">
    <path clip-path="url(#p4d41fde56a)" d="M 134.975455 355.062169 
L 137.899145 355.256622 
L 140.822835 357.784044 
L 143.746525 356.284227 
L 146.670215 356.393015 
L 149.593905 358.962272 
L 152.517595 357.365002 
L 155.441285 361.477171 
L 158.364975 361.545225 
L 161.288665 364.182571 
L 164.212356 367.674371 
L 167.136046 370.231683 
L 170.059736 409.126345 
L 172.983426 413.918699 
L 175.907116 443.536687 
L 178.830806 490.782804 
L 181.754496 529.076756 
L 184.678186 466.835272 
L 187.601876 390.0002 
L 190.525567 516.167452 
L 193.449257 448.372486 
L 196.372947 432.479324 
L 199.296637 505.973184 
L 202.220327 399.968672 
L 205.144017 406.537621 
L 208.067707 539.885447 
L 210.991397 476.086866 
L 213.915087 503.692668 
L 216.838777 576.380102 
L 219.762468 551.474469 
L 222.686158 552.756973 
L 225.609848 531.727885 
L 228.533538 537.087928 
L 231.457228 503.982232 
L 234.380918 323.213442 
L 237.304608 426.013741 
L 240.228298 444.905556 
L 243.151988 431.355874 
L 246.075678 393.45702 
L 248.999369 338.952849 
L 251.923059 366.333416 
L 254.846749 348.252261 
L 257.770439 370.065214 
L 260.694129 362.151759 
L 263.617819 512.463009 
L 266.541509 444.94148 
L 269.465199 438.799636 
L 272.388889 475.954537 
L 275.312579 528.215376 
L 278.23627 523.610025 
L 281.15996 514.409921 
L 284.08365 427.577168 
L 287.00734 386.143279 
L 289.93103 405.86034 
L 292.85472 336.558159 
L 295.77841 334.682081 
L 298.7021 443.217635 
L 301.62579 428.599037 
L 304.549481 420.832795 
L 307.473171 359.707799 
L 310.396861 340.832373 
L 313.320551 381.750466 
L 316.244241 435.058009 
L 319.167931 419.214799 
L 322.091621 490.901212 
L 325.015311 417.581586 
L 327.939001 452.304124 
L 330.862691 471.494142 
L 333.786382 396.734569 
L 336.710072 470.806157 
L 339.633762 585.257201 
L 341.641353 596.44 
M 342.725555 596.44 
L 345.481142 512.791785 
L 348.404832 386.053555 
L 351.328522 423.365131 
L 354.252212 399.726401 
L 357.175902 466.870357 
L 360.099592 438.709633 
L 363.023283 591.699592 
L 365.946973 450.92567 
L 368.870663 375.019245 
L 371.794353 387.985776 
L 374.718043 443.699763 
L 377.641733 449.205637 
L 380.565423 518.911662 
L 383.489113 468.993813 
L 386.412803 476.322735 
L 389.336494 439.6904 
L 392.260184 411.761627 
L 395.183874 469.034284 
L 398.107564 429.014388 
L 401.031254 406.08652 
L 403.954944 405.2682 
L 406.878634 387.60453 
L 409.802324 440.516345 
L 412.726014 490.635189 
L 415.649704 544.337271 
L 418.573395 446.263511 
L 421.497085 527.146844 
L 424.420775 575.522149 
L 427.344465 423.060981 
L 430.268155 448.550813 
L 433.191845 483.865735 
L 436.115535 395.611748 
L 439.039225 506.419143 
L 441.962915 551.234507 
L 444.886605 468.386666 
L 447.810296 432.297114 
L 450.733986 463.193128 
L 453.657676 529.452091 
L 456.581366 495.236028 
L 459.505056 508.963233 
L 462.428746 481.082278 
L 465.352436 519.248588 
L 468.276126 501.667156 
L 471.199816 505.729164 
L 474.123506 485.517662 
L 477.047197 522.682602 
L 479.970887 404.377961 
L 482.894577 481.188442 
L 485.818267 468.420212 
L 488.741957 447.512434 
L 491.665647 391.791451 
L 494.589337 354.792299 
L 497.513027 460.265413 
L 500.436717 430.316411 
L 503.360408 429.668967 
L 506.284098 480.905595 
L 509.207788 523.640982 
L 512.131478 484.449445 
L 515.055168 367.43161 
L 517.978858 269.799839 
L 520.902548 408.088561 
L 523.826238 506.331309 
L 526.749928 488.335714 
L 529.673618 517.984624 
L 532.597309 558.36128 
L 535.520999 527.596581 
L 538.444689 479.399639 
L 541.368379 464.179072 
L 544.292069 484.411387 
L 547.215759 370.183516 
L 550.139449 417.520931 
L 553.063139 331.110666 
L 555.986829 378.609304 
L 558.910519 472.285248 
L 561.83421 482.871641 
L 564.7579 470.050941 
L 567.68159 390.18304 
L 570.60528 428.286351 
L 573.52897 375.216496 
L 576.45266 390.759544 
L 579.37635 388.051049 
L 582.30004 360.528761 
L 585.22373 479.355564 
L 588.147421 416.4177 
L 593.994801 456.501399 
L 596.918491 389.692691 
L 599.842181 480.896115 
L 602.765871 525.453222 
L 605.689561 463.105993 
L 608.613251 475.336756 
L 611.536941 501.471933 
L 614.460631 512.027719 
L 617.384322 437.865182 
L 620.308012 445.667628 
L 623.231702 554.885885 
L 626.155392 586.725413 
L 629.079082 514.656285 
L 632.002772 457.820282 
L 634.926462 514.778924 
L 637.850152 491.718342 
L 640.773842 410.973845 
L 643.697532 363.538101 
L 646.621223 397.821605 
L 649.544913 448.273807 
L 652.468603 539.52218 
L 655.392293 546.451457 
L 658.315983 420.21428 
L 661.239673 483.200627 
L 664.163363 370.676488 
L 667.087053 420.372739 
L 670.010743 460.622278 
L 672.934433 433.133029 
L 675.858124 440.210026 
L 678.781814 466.266638 
L 681.705504 499.318499 
L 684.629194 536.53465 
L 687.552884 464.330815 
L 690.476574 535.517189 
L 693.400264 492.681654 
L 696.323954 520.581183 
L 699.247644 476.023237 
L 702.171335 413.682165 
L 705.095025 395.717668 
L 708.018715 390.20945 
L 710.942405 386.000876 
L 713.866095 381.324025 
L 716.789785 385.081498 
L 719.713475 383.665756 
L 722.637165 377.242603 
L 725.560855 382.105512 
L 728.484545 375.668997 
L 728.484545 375.668997 
" style="fill:none;stroke:#c44e52;stroke-dasharray:4.5,1.875,2.25,1.875;stroke-dashoffset:0;stroke-width:1.5;"/>
   </g>
   <g id="line2d_5">
    <path clip-path="url(#p4d41fde56a)" d="M 134.975455 358.734361 
L 137.899145 359.656082 
L 140.822835 361.976492 
L 143.746525 360.29541 
L 146.670215 361.150091 
L 149.593905 364.129716 
L 152.517595 362.159332 
L 155.441285 366.895858 
L 158.364975 367.024794 
L 161.288665 369.529076 
L 164.212356 371.293324 
L 167.136046 371.973263 
L 170.059736 410.774109 
L 172.983426 415.125401 
L 175.907116 443.022062 
L 181.754496 537.705848 
L 184.678186 465.969624 
L 187.601876 406.064518 
L 190.525567 519.213329 
L 193.449257 456.022629 
L 196.372947 439.473839 
L 199.296637 519.014678 
L 202.220327 401.788328 
L 205.144017 401.581072 
L 208.067707 548.845133 
L 210.991397 481.593335 
L 213.915087 495.56435 
L 216.838777 574.393522 
L 219.762468 548.300741 
L 222.686158 552.046565 
L 225.609848 544.479324 
L 228.533538 546.657909 
L 231.457228 507.204862 
L 234.380918 323.712273 
L 237.304608 430.576871 
L 240.228298 446.838511 
L 243.151988 434.020784 
L 246.075678 391.347067 
L 248.999369 329.476334 
L 251.923059 373.565094 
L 254.846749 347.4568 
L 257.770439 368.816116 
L 260.694129 353.203213 
L 263.617819 503.425387 
L 266.541509 440.720943 
L 269.465199 437.719316 
L 272.388889 474.139009 
L 275.312579 526.038121 
L 278.23627 522.777223 
L 281.15996 522.796147 
L 284.08365 434.343264 
L 287.00734 383.079703 
L 289.93103 403.620016 
L 292.85472 336.247694 
L 295.77841 332.386191 
L 298.7021 438.914965 
L 301.62579 428.935474 
L 304.549481 420.916117 
L 307.473171 359.805288 
L 310.396861 358.73597 
L 313.320551 382.37832 
L 316.244241 428.041317 
L 319.167931 408.380923 
L 322.091621 478.076803 
L 325.015311 419.339292 
L 327.939001 442.408199 
L 330.862691 419.984042 
L 333.786382 364.986864 
L 336.710072 402.875434 
L 339.633762 503.429165 
L 342.557452 541.07312 
L 345.481142 484.692451 
L 348.404832 359.827466 
L 351.328522 346.212214 
L 354.252212 420.69424 
L 357.175902 457.98843 
L 360.099592 511.713984 
L 362.295093 596.44 
M 363.643123 596.44 
L 365.946973 491.991501 
L 368.870663 425.69273 
L 371.794353 392.588189 
L 374.718043 441.050139 
L 377.641733 478.959067 
L 380.565423 518.753413 
L 383.489113 509.222119 
L 386.412803 447.827358 
L 389.336494 428.347391 
L 392.260184 428.170218 
L 395.183874 485.248631 
L 398.107564 426.403592 
L 401.031254 416.942993 
L 403.954944 409.740837 
L 406.878634 410.801988 
L 409.802324 468.060024 
L 412.726014 488.86517 
L 415.649704 573.52504 
L 418.573395 458.734937 
L 421.497085 547.14301 
L 424.420775 591.894255 
L 427.344465 420.490027 
L 430.268155 440.835327 
L 433.191845 480.766969 
L 436.115535 396.612909 
L 439.039225 505.113798 
L 441.962915 553.786222 
L 444.886605 473.991394 
L 447.810296 438.683852 
L 450.733986 456.890726 
L 453.657676 506.439117 
L 456.581366 484.378016 
L 459.505056 483.24757 
L 462.428746 461.870677 
L 465.352436 497.72443 
L 468.276126 498.782642 
L 471.199816 509.680251 
L 474.123506 498.266024 
L 477.047197 503.365186 
L 479.970887 406.01705 
L 482.894577 477.625213 
L 485.818267 468.084964 
L 488.741957 385.625751 
L 491.665647 444.735658 
L 494.589337 342.540879 
L 497.513027 401.019679 
L 500.436717 427.962997 
L 503.360408 488.153294 
L 506.284098 595.236272 
L 509.207788 532.167547 
L 512.131478 495.820018 
L 515.055168 443.26979 
L 517.978858 479.032875 
L 520.902548 431.585972 
L 523.826238 410.030646 
L 526.749928 449.670555 
L 529.673618 470.251201 
L 532.597309 449.341184 
L 535.520999 459.44286 
L 538.444689 403.064045 
L 541.368379 401.811624 
L 544.292069 302.372983 
L 547.215759 309.971863 
L 550.139449 354.677372 
L 553.063139 319.677864 
L 555.986829 289.071484 
L 558.910519 322.657296 
L 561.83421 353.891583 
L 564.7579 405.18159 
L 567.68159 397.040643 
L 570.60528 406.076586 
L 573.52897 395.082957 
L 576.45266 392.198548 
L 579.37635 379.212253 
L 582.30004 326.028521 
L 585.22373 425.688008 
L 588.147421 418.722561 
L 591.071111 428.540305 
L 593.994801 460.207452 
L 596.918491 413.416982 
L 599.842181 483.373148 
L 602.765871 537.229806 
L 605.689561 465.757471 
L 608.613251 466.779479 
L 611.536941 496.875397 
L 614.460631 511.364674 
L 617.384322 429.658159 
L 620.308012 447.453108 
L 623.231702 544.056837 
L 626.155392 573.111228 
L 629.079082 512.376993 
L 632.002772 459.063888 
L 634.926462 501.918102 
L 637.850152 499.653432 
L 640.773842 411.250361 
L 643.697532 359.201448 
L 646.621223 388.557523 
L 649.544913 435.393781 
L 652.468603 533.126662 
L 655.392293 533.430707 
L 658.315983 423.29727 
L 661.239673 472.469278 
L 664.163363 366.739323 
L 667.087053 415.386317 
L 670.010743 457.297087 
L 672.934433 437.544906 
L 675.858124 436.52846 
L 678.781814 451.394786 
L 681.705504 498.466634 
L 684.629194 529.756521 
L 687.552884 453.274117 
L 690.476574 521.804571 
L 693.400264 484.245337 
L 696.323954 514.188288 
L 699.247644 472.217947 
L 702.171335 404.041139 
L 705.095025 390.894426 
L 708.018715 387.993017 
L 710.942405 384.307218 
L 713.866095 379.876626 
L 716.789785 382.871012 
L 719.713475 380.68001 
L 722.637165 374.324578 
L 725.560855 380.909548 
L 728.484545 374.094481 
L 728.484545 374.094481 
" style="fill:none;stroke:#8172b3;stroke-dasharray:7.5,1.5,1.5,1.5;stroke-dashoffset:0;stroke-width:1.5;"/>
   </g>
   <g id="line2d_6"/>
   <g id="line2d_7"/>
   <g id="line2d_8"/>
   <g id="line2d_9"/>
   <g id="line2d_10"/>
   <g id="patch_3">
    <path d="M 105.3 529.9416 
L 105.3 71.4528 
" style="fill:none;stroke:#262626;stroke-linecap:square;stroke-linejoin:miter;stroke-width:1.25;"/>
   </g>
   <g id="patch_4">
    <path d="M 758.16 529.9416 
L 758.16 71.4528 
" style="fill:none;stroke:#262626;stroke-linecap:square;stroke-linejoin:miter;stroke-width:1.25;"/>
   </g>
   <g id="patch_5">
    <path d="M 105.3 529.9416 
L 758.16 529.9416 
" style="fill:none;stroke:#262626;stroke-linecap:square;stroke-linejoin:miter;stroke-width:1.25;"/>
   </g>
   <g id="patch_6">
    <path d="M 105.3 71.4528 
L 758.16 71.4528 
" style="fill:none;stroke:#262626;stroke-linecap:square;stroke-linejoin:miter;stroke-width:1.25;"/>
   </g>
   <g id="text_16">
    <!-- Activations for &gt;Z&lt; -->
    <g style="fill:#262626;" transform="translate(381.709688 65.4528)scale(0.12 -0.12)">
     <defs>
      <path d="M -9 0 
L 1750 4581 
L 2403 4581 
L 4278 0 
L 3588 0 
L 3053 1388 
L 1138 1388 
L 634 0 
L -9 0 
z
M 1313 1881 
L 2866 1881 
L 2388 3150 
Q 2169 3728 2063 4100 
Q 1975 3659 1816 3225 
L 1313 1881 
z
" id="ArialMT-41" transform="scale(0.015625)"/>
      <path d="M 2588 1216 
L 3141 1144 
Q 3050 572 2676 248 
Q 2303 -75 1759 -75 
Q 1078 -75 664 370 
Q 250 816 250 1647 
Q 250 2184 428 2587 
Q 606 2991 970 3192 
Q 1334 3394 1763 3394 
Q 2303 3394 2647 3120 
Q 2991 2847 3088 2344 
L 2541 2259 
Q 2463 2594 2264 2762 
Q 2066 2931 1784 2931 
Q 1359 2931 1093 2626 
Q 828 2322 828 1663 
Q 828 994 1084 691 
Q 1341 388 1753 388 
Q 2084 388 2306 591 
Q 2528 794 2588 1216 
z
" id="ArialMT-63" transform="scale(0.015625)"/>
      <path d="M 1650 503 
L 1731 6 
Q 1494 -44 1306 -44 
Q 1000 -44 831 53 
Q 663 150 594 308 
Q 525 466 525 972 
L 525 2881 
L 113 2881 
L 113 3319 
L 525 3319 
L 525 4141 
L 1084 4478 
L 1084 3319 
L 1650 3319 
L 1650 2881 
L 1084 2881 
L 1084 941 
Q 1084 700 1114 631 
Q 1144 563 1211 522 
Q 1278 481 1403 481 
Q 1497 481 1650 503 
z
" id="ArialMT-74" transform="scale(0.015625)"/>
      <path d="M 425 3934 
L 425 4581 
L 988 4581 
L 988 3934 
L 425 3934 
z
M 425 0 
L 425 3319 
L 988 3319 
L 988 0 
L 425 0 
z
" id="ArialMT-69" transform="scale(0.015625)"/>
      <path d="M 1344 0 
L 81 3319 
L 675 3319 
L 1388 1331 
Q 1503 1009 1600 663 
Q 1675 925 1809 1294 
L 2547 3319 
L 3125 3319 
L 1869 0 
L 1344 0 
z
" id="ArialMT-76" transform="scale(0.015625)"/>
      <path d="M 2588 409 
Q 2275 144 1986 34 
Q 1697 -75 1366 -75 
Q 819 -75 525 192 
Q 231 459 231 875 
Q 231 1119 342 1320 
Q 453 1522 633 1644 
Q 813 1766 1038 1828 
Q 1203 1872 1538 1913 
Q 2219 1994 2541 2106 
Q 2544 2222 2544 2253 
Q 2544 2597 2384 2738 
Q 2169 2928 1744 2928 
Q 1347 2928 1158 2789 
Q 969 2650 878 2297 
L 328 2372 
Q 403 2725 575 2942 
Q 747 3159 1072 3276 
Q 1397 3394 1825 3394 
Q 2250 3394 2515 3294 
Q 2781 3194 2906 3042 
Q 3031 2891 3081 2659 
Q 3109 2516 3109 2141 
L 3109 1391 
Q 3109 606 3145 398 
Q 3181 191 3288 0 
L 2700 0 
Q 2613 175 2588 409 
z
M 2541 1666 
Q 2234 1541 1622 1453 
Q 1275 1403 1131 1340 
Q 988 1278 909 1158 
Q 831 1038 831 891 
Q 831 666 1001 516 
Q 1172 366 1500 366 
Q 1825 366 2078 508 
Q 2331 650 2450 897 
Q 2541 1088 2541 1459 
L 2541 1666 
z
" id="ArialMT-61" transform="scale(0.015625)"/>
      <path d="M 213 1659 
Q 213 2581 725 3025 
Q 1153 3394 1769 3394 
Q 2453 3394 2887 2945 
Q 3322 2497 3322 1706 
Q 3322 1066 3130 698 
Q 2938 331 2570 128 
Q 2203 -75 1769 -75 
Q 1072 -75 642 372 
Q 213 819 213 1659 
z
M 791 1659 
Q 791 1022 1069 705 
Q 1347 388 1769 388 
Q 2188 388 2466 706 
Q 2744 1025 2744 1678 
Q 2744 2294 2464 2611 
Q 2184 2928 1769 2928 
Q 1347 2928 1069 2612 
Q 791 2297 791 1659 
z
" id="ArialMT-6f" transform="scale(0.015625)"/>
      <path d="M 422 0 
L 422 3319 
L 928 3319 
L 928 2847 
Q 1294 3394 1984 3394 
Q 2284 3394 2536 3286 
Q 2788 3178 2913 3003 
Q 3038 2828 3088 2588 
Q 3119 2431 3119 2041 
L 3119 0 
L 2556 0 
L 2556 2019 
Q 2556 2363 2490 2533 
Q 2425 2703 2258 2804 
Q 2091 2906 1866 2906 
Q 1506 2906 1245 2678 
Q 984 2450 984 1813 
L 984 0 
L 422 0 
z
" id="ArialMT-6e" transform="scale(0.015625)"/>
      <path d="M 197 991 
L 753 1078 
Q 800 744 1014 566 
Q 1228 388 1613 388 
Q 2000 388 2187 545 
Q 2375 703 2375 916 
Q 2375 1106 2209 1216 
Q 2094 1291 1634 1406 
Q 1016 1563 777 1677 
Q 538 1791 414 1992 
Q 291 2194 291 2438 
Q 291 2659 392 2848 
Q 494 3038 669 3163 
Q 800 3259 1026 3326 
Q 1253 3394 1513 3394 
Q 1903 3394 2198 3281 
Q 2494 3169 2634 2976 
Q 2775 2784 2828 2463 
L 2278 2388 
Q 2241 2644 2061 2787 
Q 1881 2931 1553 2931 
Q 1166 2931 1000 2803 
Q 834 2675 834 2503 
Q 834 2394 903 2306 
Q 972 2216 1119 2156 
Q 1203 2125 1616 2013 
Q 2213 1853 2448 1751 
Q 2684 1650 2818 1456 
Q 2953 1263 2953 975 
Q 2953 694 2789 445 
Q 2625 197 2315 61 
Q 2006 -75 1616 -75 
Q 969 -75 630 194 
Q 291 463 197 991 
z
" id="ArialMT-73" transform="scale(0.015625)"/>
      <path id="ArialMT-20" transform="scale(0.015625)"/>
      <path d="M 556 0 
L 556 2881 
L 59 2881 
L 59 3319 
L 556 3319 
L 556 3672 
Q 556 4006 616 4169 
Q 697 4388 901 4523 
Q 1106 4659 1475 4659 
Q 1713 4659 2000 4603 
L 1916 4113 
Q 1741 4144 1584 4144 
Q 1328 4144 1222 4034 
Q 1116 3925 1116 3625 
L 1116 3319 
L 1763 3319 
L 1763 2881 
L 1116 2881 
L 1116 0 
L 556 0 
z
" id="ArialMT-66" transform="scale(0.015625)"/>
      <path d="M 416 0 
L 416 3319 
L 922 3319 
L 922 2816 
Q 1116 3169 1280 3281 
Q 1444 3394 1641 3394 
Q 1925 3394 2219 3213 
L 2025 2691 
Q 1819 2813 1613 2813 
Q 1428 2813 1281 2702 
Q 1134 2591 1072 2394 
Q 978 2094 978 1738 
L 978 0 
L 416 0 
z
" id="ArialMT-72" transform="scale(0.015625)"/>
      <path d="M 3384 2003 
L 350 706 
L 350 1266 
L 2753 2263 
L 350 3250 
L 350 3809 
L 3384 2528 
L 3384 2003 
z
" id="ArialMT-3e" transform="scale(0.015625)"/>
      <path d="M 128 0 
L 128 563 
L 2475 3497 
Q 2725 3809 2950 4041 
L 394 4041 
L 394 4581 
L 3675 4581 
L 3675 4041 
L 1103 863 
L 825 541 
L 3750 541 
L 3750 0 
L 128 0 
z
" id="ArialMT-5a" transform="scale(0.015625)"/>
      <path d="M 350 2003 
L 350 2528 
L 3384 3809 
L 3384 3250 
L 978 2263 
L 3384 1266 
L 3384 706 
L 350 2003 
z
" id="ArialMT-3c" transform="scale(0.015625)"/>
     </defs>
     <use xlink:href="#ArialMT-41"/>
     <use x="66.699219" xlink:href="#ArialMT-63"/>
     <use x="116.699219" xlink:href="#ArialMT-74"/>
     <use x="144.482422" xlink:href="#ArialMT-69"/>
     <use x="166.699219" xlink:href="#ArialMT-76"/>
     <use x="216.699219" xlink:href="#ArialMT-61"/>
     <use x="272.314453" xlink:href="#ArialMT-74"/>
     <use x="300.097656" xlink:href="#ArialMT-69"/>
     <use x="322.314453" xlink:href="#ArialMT-6f"/>
     <use x="377.929688" xlink:href="#ArialMT-6e"/>
     <use x="433.544922" xlink:href="#ArialMT-73"/>
     <use x="483.544922" xlink:href="#ArialMT-20"/>
     <use x="511.328125" xlink:href="#ArialMT-66"/>
     <use x="539.111328" xlink:href="#ArialMT-6f"/>
     <use x="594.726562" xlink:href="#ArialMT-72"/>
     <use x="628.027344" xlink:href="#ArialMT-20"/>
     <use x="655.810547" xlink:href="#ArialMT-3e"/>
     <use x="714.208984" xlink:href="#ArialMT-5a"/>
     <use x="775.292969" xlink:href="#ArialMT-3c"/>
    </g>
   </g>
   <g id="legend_1">
    <g id="patch_7">
     <path d="M 640.044062 158.514363 
L 750.46 158.514363 
Q 752.66 158.514363 752.66 156.314363 
L 752.66 79.1528 
Q 752.66 76.9528 750.46 76.9528 
L 640.044062 76.9528 
Q 637.844062 76.9528 637.844062 79.1528 
L 637.844062 156.314363 
Q 637.844062 158.514363 640.044062 158.514363 
z
" style="fill:#ffffff;opacity:0.8;stroke:#cccccc;stroke-linejoin:miter;"/>
    </g>
    <g id="line2d_11">
     <path d="M 642.244062 85.376394 
L 664.244062 85.376394 
" style="fill:none;stroke:#4c72b0;stroke-linecap:round;stroke-width:1.5;"/>
    </g>
    <g id="line2d_12"/>
    <g id="text_17">
     <!-- regular -->
     <g style="fill:#262626;" transform="translate(673.044062 89.226394)scale(0.11 -0.11)">
      <defs>
       <path d="M 2694 1069 
L 3275 997 
Q 3138 488 2766 206 
Q 2394 -75 1816 -75 
Q 1088 -75 661 373 
Q 234 822 234 1631 
Q 234 2469 665 2931 
Q 1097 3394 1784 3394 
Q 2450 3394 2872 2941 
Q 3294 2488 3294 1666 
Q 3294 1616 3291 1516 
L 816 1516 
Q 847 969 1125 678 
Q 1403 388 1819 388 
Q 2128 388 2347 550 
Q 2566 713 2694 1069 
z
M 847 1978 
L 2700 1978 
Q 2663 2397 2488 2606 
Q 2219 2931 1791 2931 
Q 1403 2931 1139 2672 
Q 875 2413 847 1978 
z
" id="ArialMT-65" transform="scale(0.015625)"/>
       <path d="M 319 -275 
L 866 -356 
Q 900 -609 1056 -725 
Q 1266 -881 1628 -881 
Q 2019 -881 2231 -725 
Q 2444 -569 2519 -288 
Q 2563 -116 2559 434 
Q 2191 0 1641 0 
Q 956 0 581 494 
Q 206 988 206 1678 
Q 206 2153 378 2554 
Q 550 2956 876 3175 
Q 1203 3394 1644 3394 
Q 2231 3394 2613 2919 
L 2613 3319 
L 3131 3319 
L 3131 450 
Q 3131 -325 2973 -648 
Q 2816 -972 2473 -1159 
Q 2131 -1347 1631 -1347 
Q 1038 -1347 672 -1080 
Q 306 -813 319 -275 
z
M 784 1719 
Q 784 1066 1043 766 
Q 1303 466 1694 466 
Q 2081 466 2343 764 
Q 2606 1063 2606 1700 
Q 2606 2309 2336 2618 
Q 2066 2928 1684 2928 
Q 1309 2928 1046 2623 
Q 784 2319 784 1719 
z
" id="ArialMT-67" transform="scale(0.015625)"/>
       <path d="M 2597 0 
L 2597 488 
Q 2209 -75 1544 -75 
Q 1250 -75 995 37 
Q 741 150 617 320 
Q 494 491 444 738 
Q 409 903 409 1263 
L 409 3319 
L 972 3319 
L 972 1478 
Q 972 1038 1006 884 
Q 1059 663 1231 536 
Q 1403 409 1656 409 
Q 1909 409 2131 539 
Q 2353 669 2445 892 
Q 2538 1116 2538 1541 
L 2538 3319 
L 3100 3319 
L 3100 0 
L 2597 0 
z
" id="ArialMT-75" transform="scale(0.015625)"/>
       <path d="M 409 0 
L 409 4581 
L 972 4581 
L 972 0 
L 409 0 
z
" id="ArialMT-6c" transform="scale(0.015625)"/>
      </defs>
      <use xlink:href="#ArialMT-72"/>
      <use x="33.300781" xlink:href="#ArialMT-65"/>
      <use x="88.916016" xlink:href="#ArialMT-67"/>
      <use x="144.53125" xlink:href="#ArialMT-75"/>
      <use x="200.146484" xlink:href="#ArialMT-6c"/>
      <use x="222.363281" xlink:href="#ArialMT-61"/>
      <use x="277.978516" xlink:href="#ArialMT-72"/>
     </g>
    </g>
    <g id="line2d_13">
     <path d="M 642.244062 101.0978 
L 664.244062 101.0978 
" style="fill:none;stroke:#dd8452;stroke-dasharray:6,2.25;stroke-dashoffset:0;stroke-width:1.5;"/>
    </g>
    <g id="line2d_14"/>
    <g id="text_18">
     <!-- splitted_3s -->
     <g style="fill:#262626;" transform="translate(673.044062 104.9478)scale(0.11 -0.11)">
      <defs>
       <path d="M 422 -1272 
L 422 3319 
L 934 3319 
L 934 2888 
Q 1116 3141 1344 3267 
Q 1572 3394 1897 3394 
Q 2322 3394 2647 3175 
Q 2972 2956 3137 2557 
Q 3303 2159 3303 1684 
Q 3303 1175 3120 767 
Q 2938 359 2589 142 
Q 2241 -75 1856 -75 
Q 1575 -75 1351 44 
Q 1128 163 984 344 
L 984 -1272 
L 422 -1272 
z
M 931 1641 
Q 931 1000 1190 694 
Q 1450 388 1819 388 
Q 2194 388 2461 705 
Q 2728 1022 2728 1688 
Q 2728 2322 2467 2637 
Q 2206 2953 1844 2953 
Q 1484 2953 1207 2617 
Q 931 2281 931 1641 
z
" id="ArialMT-70" transform="scale(0.015625)"/>
       <path d="M 2575 0 
L 2575 419 
Q 2259 -75 1647 -75 
Q 1250 -75 917 144 
Q 584 363 401 755 
Q 219 1147 219 1656 
Q 219 2153 384 2558 
Q 550 2963 881 3178 
Q 1213 3394 1622 3394 
Q 1922 3394 2156 3267 
Q 2391 3141 2538 2938 
L 2538 4581 
L 3097 4581 
L 3097 0 
L 2575 0 
z
M 797 1656 
Q 797 1019 1065 703 
Q 1334 388 1700 388 
Q 2069 388 2326 689 
Q 2584 991 2584 1609 
Q 2584 2291 2321 2609 
Q 2059 2928 1675 2928 
Q 1300 2928 1048 2622 
Q 797 2316 797 1656 
z
" id="ArialMT-64" transform="scale(0.015625)"/>
       <path d="M -97 -1272 
L -97 -866 
L 3631 -866 
L 3631 -1272 
L -97 -1272 
z
" id="ArialMT-5f" transform="scale(0.015625)"/>
       <path d="M 269 1209 
L 831 1284 
Q 928 806 1161 595 
Q 1394 384 1728 384 
Q 2125 384 2398 659 
Q 2672 934 2672 1341 
Q 2672 1728 2419 1979 
Q 2166 2231 1775 2231 
Q 1616 2231 1378 2169 
L 1441 2663 
Q 1497 2656 1531 2656 
Q 1891 2656 2178 2843 
Q 2466 3031 2466 3422 
Q 2466 3731 2256 3934 
Q 2047 4138 1716 4138 
Q 1388 4138 1169 3931 
Q 950 3725 888 3313 
L 325 3413 
Q 428 3978 793 4289 
Q 1159 4600 1703 4600 
Q 2078 4600 2393 4439 
Q 2709 4278 2876 4000 
Q 3044 3722 3044 3409 
Q 3044 3113 2884 2869 
Q 2725 2625 2413 2481 
Q 2819 2388 3044 2092 
Q 3269 1797 3269 1353 
Q 3269 753 2831 336 
Q 2394 -81 1725 -81 
Q 1122 -81 723 278 
Q 325 638 269 1209 
z
" id="ArialMT-33" transform="scale(0.015625)"/>
      </defs>
      <use xlink:href="#ArialMT-73"/>
      <use x="50" xlink:href="#ArialMT-70"/>
      <use x="105.615234" xlink:href="#ArialMT-6c"/>
      <use x="127.832031" xlink:href="#ArialMT-69"/>
      <use x="150.048828" xlink:href="#ArialMT-74"/>
      <use x="177.832031" xlink:href="#ArialMT-74"/>
      <use x="205.615234" xlink:href="#ArialMT-65"/>
      <use x="261.230469" xlink:href="#ArialMT-64"/>
      <use x="316.845703" xlink:href="#ArialMT-5f"/>
      <use x="372.460938" xlink:href="#ArialMT-33"/>
      <use x="428.076172" xlink:href="#ArialMT-73"/>
     </g>
    </g>
    <g id="line2d_15">
     <path d="M 642.244062 116.6903 
L 664.244062 116.6903 
" style="fill:none;stroke:#55a868;stroke-dasharray:1.5,1.5;stroke-dashoffset:0;stroke-width:1.5;"/>
    </g>
    <g id="line2d_16"/>
    <g id="text_19">
     <!-- splitted_1s -->
     <g style="fill:#262626;" transform="translate(673.044062 120.5403)scale(0.11 -0.11)">
      <use xlink:href="#ArialMT-73"/>
      <use x="50" xlink:href="#ArialMT-70"/>
      <use x="105.615234" xlink:href="#ArialMT-6c"/>
      <use x="127.832031" xlink:href="#ArialMT-69"/>
      <use x="150.048828" xlink:href="#ArialMT-74"/>
      <use x="177.832031" xlink:href="#ArialMT-74"/>
      <use x="205.615234" xlink:href="#ArialMT-65"/>
      <use x="261.230469" xlink:href="#ArialMT-64"/>
      <use x="316.845703" xlink:href="#ArialMT-5f"/>
      <use x="372.460938" xlink:href="#ArialMT-31"/>
      <use x="428.076172" xlink:href="#ArialMT-73"/>
     </g>
    </g>
    <g id="line2d_17">
     <path d="M 642.244062 132.384206 
L 664.244062 132.384206 
" style="fill:none;stroke:#c44e52;stroke-dasharray:4.5,1.875,2.25,1.875;stroke-dashoffset:0;stroke-width:1.5;"/>
    </g>
    <g id="line2d_18"/>
    <g id="text_20">
     <!-- overlap_1f_3s -->
     <g style="fill:#262626;" transform="translate(673.044062 136.234206)scale(0.11 -0.11)">
      <use xlink:href="#ArialMT-6f"/>
      <use x="55.615234" xlink:href="#ArialMT-76"/>
      <use x="105.615234" xlink:href="#ArialMT-65"/>
      <use x="161.230469" xlink:href="#ArialMT-72"/>
      <use x="194.53125" xlink:href="#ArialMT-6c"/>
      <use x="216.748047" xlink:href="#ArialMT-61"/>
      <use x="272.363281" xlink:href="#ArialMT-70"/>
      <use x="327.978516" xlink:href="#ArialMT-5f"/>
      <use x="383.59375" xlink:href="#ArialMT-31"/>
      <use x="439.208984" xlink:href="#ArialMT-66"/>
      <use x="466.992188" xlink:href="#ArialMT-5f"/>
      <use x="522.607422" xlink:href="#ArialMT-33"/>
      <use x="578.222656" xlink:href="#ArialMT-73"/>
     </g>
    </g>
    <g id="line2d_19">
     <path d="M 642.244062 148.078113 
L 664.244062 148.078113 
" style="fill:none;stroke:#8172b3;stroke-dasharray:7.5,1.5,1.5,1.5;stroke-dashoffset:0;stroke-width:1.5;"/>
    </g>
    <g id="line2d_20"/>
    <g id="text_21">
     <!-- overlap_10f_3s -->
     <g style="fill:#262626;" transform="translate(673.044062 151.928112)scale(0.11 -0.11)">
      <use xlink:href="#ArialMT-6f"/>
      <use x="55.615234" xlink:href="#ArialMT-76"/>
      <use x="105.615234" xlink:href="#ArialMT-65"/>
      <use x="161.230469" xlink:href="#ArialMT-72"/>
      <use x="194.53125" xlink:href="#ArialMT-6c"/>
      <use x="216.748047" xlink:href="#ArialMT-61"/>
      <use x="272.363281" xlink:href="#ArialMT-70"/>
      <use x="327.978516" xlink:href="#ArialMT-5f"/>
      <use x="383.59375" xlink:href="#ArialMT-31"/>
      <use x="439.208984" xlink:href="#ArialMT-30"/>
      <use x="494.824219" xlink:href="#ArialMT-66"/>
      <use x="522.607422" xlink:href="#ArialMT-5f"/>
      <use x="578.222656" xlink:href="#ArialMT-33"/>
      <use x="633.837891" xlink:href="#ArialMT-73"/>
     </g>
    </g>
   </g>
  </g>
 </g>
 <defs>
  <clipPath id="p4d41fde56a">
   <rect height="458.4888" width="652.86" x="105.3" y="71.4528"/>
  </clipPath>
 </defs>
</svg>
