<?xml version="1.0" encoding="utf-8" standalone="no"?>
<!DOCTYPE svg PUBLIC "-//W3C//DTD SVG 1.1//EN"
  "http://www.w3.org/Graphics/SVG/1.1/DTD/svg11.dtd">
<svg height="595.44pt" version="1.1" viewBox="0 0 842.4 595.44" width="842.4pt" xmlns="http://www.w3.org/2000/svg" xmlns:xlink="http://www.w3.org/1999/xlink">
 <metadata>
  <rdf:RDF xmlns:cc="http://creativecommons.org/ns#" xmlns:dc="http://purl.org/dc/elements/1.1/" xmlns:rdf="http://www.w3.org/1999/02/22-rdf-syntax-ns#">
   <cc:Work>
    <dc:type rdf:resource="http://purl.org/dc/dcmitype/StillImage"/>
    <dc:date>2021-06-01T00:54:12.475954</dc:date>
    <dc:format>image/svg+xml</dc:format>
    <dc:creator>
     <cc:Agent>
      <dc:title>Matplotlib v3.4.1, https://matplotlib.org/</dc:title>
     </cc:Agent>
    </dc:creator>
   </cc:Work>
  </rdf:RDF>
 </metadata>
 <defs>
  <style type="text/css">*{stroke-linecap:butt;stroke-linejoin:round;}</style>
 </defs>
 <g id="figure_1">
  <g id="patch_1">
   <path d="M 0 595.44 
L 842.4 595.44 
L 842.4 0 
L 0 0 
z
" style="fill:#ffffff;"/>
  </g>
  <g id="axes_1">
   <g id="patch_2">
    <path d="M 105.3 529.9416 
L 758.16 529.9416 
L 758.16 71.4528 
L 105.3 71.4528 
z
" style="fill:#ffffff;"/>
   </g>
   <g id="matplotlib.axis_1">
    <g id="xtick_1">
     <g id="text_1">
      <!-- 0 -->
      <g style="fill:#262626;" transform="translate(131.916939 547.315194)scale(0.11 -0.11)">
       <defs>
        <path d="M 266 2259 
Q 266 3072 433 3567 
Q 600 4063 929 4331 
Q 1259 4600 1759 4600 
Q 2128 4600 2406 4451 
Q 2684 4303 2865 4023 
Q 3047 3744 3150 3342 
Q 3253 2941 3253 2259 
Q 3253 1453 3087 958 
Q 2922 463 2592 192 
Q 2263 -78 1759 -78 
Q 1097 -78 719 397 
Q 266 969 266 2259 
z
M 844 2259 
Q 844 1131 1108 757 
Q 1372 384 1759 384 
Q 2147 384 2411 759 
Q 2675 1134 2675 2259 
Q 2675 3391 2411 3762 
Q 2147 4134 1753 4134 
Q 1366 4134 1134 3806 
Q 844 3388 844 2259 
z
" id="ArialMT-30" transform="scale(0.015625)"/>
       </defs>
       <use xlink:href="#ArialMT-30"/>
      </g>
     </g>
    </g>
    <g id="xtick_2">
     <g id="text_2">
      <!-- 25 -->
      <g style="fill:#262626;" transform="translate(201.950676 547.315194)scale(0.11 -0.11)">
       <defs>
        <path d="M 3222 541 
L 3222 0 
L 194 0 
Q 188 203 259 391 
Q 375 700 629 1000 
Q 884 1300 1366 1694 
Q 2113 2306 2375 2664 
Q 2638 3022 2638 3341 
Q 2638 3675 2398 3904 
Q 2159 4134 1775 4134 
Q 1369 4134 1125 3890 
Q 881 3647 878 3216 
L 300 3275 
Q 359 3922 746 4261 
Q 1134 4600 1788 4600 
Q 2447 4600 2831 4234 
Q 3216 3869 3216 3328 
Q 3216 3053 3103 2787 
Q 2991 2522 2730 2228 
Q 2469 1934 1863 1422 
Q 1356 997 1212 845 
Q 1069 694 975 541 
L 3222 541 
z
" id="ArialMT-32" transform="scale(0.015625)"/>
        <path d="M 266 1200 
L 856 1250 
Q 922 819 1161 601 
Q 1400 384 1738 384 
Q 2144 384 2425 690 
Q 2706 997 2706 1503 
Q 2706 1984 2436 2262 
Q 2166 2541 1728 2541 
Q 1456 2541 1237 2417 
Q 1019 2294 894 2097 
L 366 2166 
L 809 4519 
L 3088 4519 
L 3088 3981 
L 1259 3981 
L 1013 2750 
Q 1425 3038 1878 3038 
Q 2478 3038 2890 2622 
Q 3303 2206 3303 1553 
Q 3303 931 2941 478 
Q 2500 -78 1738 -78 
Q 1113 -78 717 272 
Q 322 622 266 1200 
z
" id="ArialMT-35" transform="scale(0.015625)"/>
       </defs>
       <use xlink:href="#ArialMT-32"/>
       <use x="55.615234" xlink:href="#ArialMT-35"/>
      </g>
     </g>
    </g>
    <g id="xtick_3">
     <g id="text_3">
      <!-- 50 -->
      <g style="fill:#262626;" transform="translate(275.042928 547.315194)scale(0.11 -0.11)">
       <use xlink:href="#ArialMT-35"/>
       <use x="55.615234" xlink:href="#ArialMT-30"/>
      </g>
     </g>
    </g>
    <g id="xtick_4">
     <g id="text_4">
      <!-- 75 -->
      <g style="fill:#262626;" transform="translate(348.135181 547.315194)scale(0.11 -0.11)">
       <defs>
        <path d="M 303 3981 
L 303 4522 
L 3269 4522 
L 3269 4084 
Q 2831 3619 2401 2847 
Q 1972 2075 1738 1259 
Q 1569 684 1522 0 
L 944 0 
Q 953 541 1156 1306 
Q 1359 2072 1739 2783 
Q 2119 3494 2547 3981 
L 303 3981 
z
" id="ArialMT-37" transform="scale(0.015625)"/>
       </defs>
       <use xlink:href="#ArialMT-37"/>
       <use x="55.615234" xlink:href="#ArialMT-35"/>
      </g>
     </g>
    </g>
    <g id="xtick_5">
     <g id="text_5">
      <!-- 100 -->
      <g style="fill:#262626;" transform="translate(418.168918 547.315194)scale(0.11 -0.11)">
       <defs>
        <path d="M 2384 0 
L 1822 0 
L 1822 3584 
Q 1619 3391 1289 3197 
Q 959 3003 697 2906 
L 697 3450 
Q 1169 3672 1522 3987 
Q 1875 4303 2022 4600 
L 2384 4600 
L 2384 0 
z
" id="ArialMT-31" transform="scale(0.015625)"/>
       </defs>
       <use xlink:href="#ArialMT-31"/>
       <use x="55.615234" xlink:href="#ArialMT-30"/>
       <use x="111.230469" xlink:href="#ArialMT-30"/>
      </g>
     </g>
    </g>
    <g id="xtick_6">
     <g id="text_6">
      <!-- 125 -->
      <g style="fill:#262626;" transform="translate(491.261171 547.315194)scale(0.11 -0.11)">
       <use xlink:href="#ArialMT-31"/>
       <use x="55.615234" xlink:href="#ArialMT-32"/>
       <use x="111.230469" xlink:href="#ArialMT-35"/>
      </g>
     </g>
    </g>
    <g id="xtick_7">
     <g id="text_7">
      <!-- 150 -->
      <g style="fill:#262626;" transform="translate(564.353423 547.315194)scale(0.11 -0.11)">
       <use xlink:href="#ArialMT-31"/>
       <use x="55.615234" xlink:href="#ArialMT-35"/>
       <use x="111.230469" xlink:href="#ArialMT-30"/>
      </g>
     </g>
    </g>
    <g id="xtick_8">
     <g id="text_8">
      <!-- 175 -->
      <g style="fill:#262626;" transform="translate(637.445676 547.315194)scale(0.11 -0.11)">
       <use xlink:href="#ArialMT-31"/>
       <use x="55.615234" xlink:href="#ArialMT-37"/>
       <use x="111.230469" xlink:href="#ArialMT-35"/>
      </g>
     </g>
    </g>
    <g id="xtick_9">
     <g id="text_9">
      <!-- 200 -->
      <g style="fill:#262626;" transform="translate(710.537928 547.315194)scale(0.11 -0.11)">
       <use xlink:href="#ArialMT-32"/>
       <use x="55.615234" xlink:href="#ArialMT-30"/>
       <use x="111.230469" xlink:href="#ArialMT-30"/>
      </g>
     </g>
    </g>
   </g>
   <g id="matplotlib.axis_2">
    <g id="ytick_1">
     <g id="text_10">
      <!-- −25 -->
      <g style="fill:#262626;" transform="translate(77.14125 533.878397)scale(0.11 -0.11)">
       <defs>
        <path d="M 3381 1997 
L 356 1997 
L 356 2522 
L 3381 2522 
L 3381 1997 
z
" id="ArialMT-2212" transform="scale(0.015625)"/>
       </defs>
       <use xlink:href="#ArialMT-2212"/>
       <use x="58.398438" xlink:href="#ArialMT-32"/>
       <use x="114.013672" xlink:href="#ArialMT-35"/>
      </g>
     </g>
    </g>
    <g id="ytick_2">
     <g id="text_11">
      <!-- −20 -->
      <g style="fill:#262626;" transform="translate(77.14125 442.180637)scale(0.11 -0.11)">
       <use xlink:href="#ArialMT-2212"/>
       <use x="58.398438" xlink:href="#ArialMT-32"/>
       <use x="114.013672" xlink:href="#ArialMT-30"/>
      </g>
     </g>
    </g>
    <g id="ytick_3">
     <g id="text_12">
      <!-- −15 -->
      <g style="fill:#262626;" transform="translate(77.14125 350.482877)scale(0.11 -0.11)">
       <use xlink:href="#ArialMT-2212"/>
       <use x="58.398438" xlink:href="#ArialMT-31"/>
       <use x="114.013672" xlink:href="#ArialMT-35"/>
      </g>
     </g>
    </g>
    <g id="ytick_4">
     <g id="text_13">
      <!-- −10 -->
      <g style="fill:#262626;" transform="translate(77.14125 258.785117)scale(0.11 -0.11)">
       <use xlink:href="#ArialMT-2212"/>
       <use x="58.398438" xlink:href="#ArialMT-31"/>
       <use x="114.013672" xlink:href="#ArialMT-30"/>
      </g>
     </g>
    </g>
    <g id="ytick_5">
     <g id="text_14">
      <!-- −5 -->
      <g style="fill:#262626;" transform="translate(83.258281 167.087357)scale(0.11 -0.11)">
       <use xlink:href="#ArialMT-2212"/>
       <use x="58.398438" xlink:href="#ArialMT-35"/>
      </g>
     </g>
    </g>
    <g id="ytick_6">
     <g id="text_15">
      <!-- 0 -->
      <g style="fill:#262626;" transform="translate(89.682969 75.389597)scale(0.11 -0.11)">
       <use xlink:href="#ArialMT-30"/>
      </g>
     </g>
    </g>
   </g>
   <g id="line2d_1">
    <path clip-path="url(#p264a58abdc)" d="M 134.975455 562.21131 
L 137.899145 563.014274 
L 140.822835 564.076195 
L 143.746525 563.922843 
L 146.670215 565.113979 
L 149.593905 566.771048 
L 152.517595 567.635506 
L 155.441285 570.145211 
L 158.364975 572.888861 
L 161.288665 574.078668 
L 164.212356 576.69667 
L 167.136046 580.675426 
L 169.178018 596.44 
M 185.45049 596.44 
L 187.601876 545.332205 
L 189.84087 596.44 
M 201.757833 596.44 
L 202.220327 585.626938 
L 205.144017 576.859711 
L 205.787364 596.44 
M 210.078875 596.44 
L 210.991397 564.950238 
L 213.915087 583.800742 
L 215.19038 596.44 
M 222.004369 596.44 
L 222.686158 591.909367 
L 225.609848 575.43281 
L 227.153952 596.44 
M 232.277291 596.44 
L 234.380918 521.653073 
L 237.829596 596.44 
M 243.393929 596.44 
L 246.075678 495.047871 
L 248.999369 484.23166 
L 251.923059 576.810914 
L 254.846749 569.996826 
L 257.545395 596.44 
M 257.862601 596.44 
L 260.694129 528.690648 
L 262.388691 596.44 
M 265.127258 596.44 
L 266.541509 550.397822 
L 269.465199 537.070822 
L 275.312579 573.415763 
L 278.23627 578.057703 
L 281.15996 565.417675 
L 284.08365 537.015169 
L 287.00734 549.526192 
L 289.93103 591.926192 
L 292.85472 545.38457 
L 295.77841 525.029055 
L 298.7021 580.518331 
L 301.62579 583.31599 
L 304.549481 552.184246 
L 307.473171 528.78394 
L 310.396861 552.234233 
L 313.320551 518.037759 
L 316.244241 551.04502 
L 319.167931 521.597805 
L 322.091621 541.443452 
L 325.015311 506.24239 
L 327.939001 546.090989 
L 330.862691 582.224302 
L 333.786382 557.502279 
L 336.710072 519.567955 
L 339.633762 578.773637 
L 341.710043 596.44 
M 342.831967 596.44 
L 345.481142 526.857945 
L 348.404832 491.206376 
L 351.328522 477.381403 
L 354.252212 551.727758 
L 357.175902 539.46936 
L 360.099592 524.380807 
L 362.865023 596.44 
M 363.169321 596.44 
L 365.946973 518.005822 
L 368.870663 519.275593 
L 371.794353 538.031091 
L 374.779475 596.44 
M 382.234196 596.44 
L 383.489113 556.773332 
L 386.412803 535.803255 
L 389.336494 575.327381 
L 392.260184 551.952085 
L 395.183874 569.287468 
L 398.107564 516.956774 
L 401.031254 492.032812 
L 403.954944 495.271358 
L 406.878634 542.882561 
L 409.802324 501.551618 
L 412.726014 482.317349 
L 415.649704 567.545818 
L 418.573395 544.929516 
L 421.497085 588.215312 
L 421.827318 596.44 
M 432.938797 596.44 
L 433.191845 594.355652 
L 436.115535 524.325434 
L 439.039225 540.810351 
L 441.962915 593.215342 
L 444.886605 587.312026 
L 447.810296 506.294265 
L 450.733986 470.193204 
L 453.657676 539.104835 
L 456.581366 517.761767 
L 458.196358 596.44 
M 461.125311 596.44 
L 462.428746 545.150309 
L 465.352436 556.739926 
L 468.276126 539.93253 
L 471.199816 541.414139 
L 473.251427 596.44 
M 475.031539 596.44 
L 477.047197 544.518992 
L 479.970887 458.528695 
L 482.894577 578.192656 
L 485.818267 582.011694 
L 488.741957 583.682475 
L 491.665647 539.78446 
L 494.589337 541.683135 
L 496.315337 596.44 
M 498.628011 596.44 
L 500.436717 534.802899 
L 503.360408 464.031771 
L 506.284098 548.927511 
L 507.749917 596.44 
M 515.980941 596.44 
L 517.978858 531.542491 
L 520.902548 579.373333 
L 523.826238 593.268337 
L 526.749928 548.627243 
L 529.378597 596.44 
M 534.100804 596.44 
L 535.520999 548.052803 
L 538.444689 524.588518 
L 541.368379 594.383252 
L 541.780546 596.44 
M 544.837745 596.44 
L 547.215759 541.823404 
L 550.139449 578.96036 
L 553.063139 487.470486 
L 555.986829 563.392372 
L 558.910519 537.179575 
L 561.83421 537.937415 
L 564.7579 549.809774 
L 567.68159 513.115384 
L 570.60528 519.838595 
L 573.52897 513.949375 
L 576.45266 495.074911 
L 579.37635 531.768111 
L 582.30004 542.055041 
L 585.22373 536.37822 
L 588.147421 523.070844 
L 591.071111 519.17618 
L 593.994801 543.435838 
L 596.918491 478.000442 
L 599.842181 535.875803 
L 602.765871 523.13944 
L 605.689561 525.981243 
L 608.613251 517.228638 
L 611.413177 596.44 
M 614.678551 596.44 
L 617.384322 457.969122 
L 620.308012 493.035861 
L 625.417225 596.44 
M 628.529436 596.44 
L 629.079082 593.009625 
L 632.002772 571.153402 
L 634.926462 543.430626 
L 637.850152 576.509842 
L 640.773842 506.287339 
L 643.697532 449.137741 
L 646.621223 496.583804 
L 649.544913 515.922558 
L 652.468603 587.041246 
L 655.392293 546.334764 
L 658.315983 512.829353 
L 661.239673 575.046142 
L 664.163363 511.197575 
L 667.087053 568.729224 
L 670.010743 577.056193 
L 672.934433 560.590201 
L 675.858124 565.666487 
L 678.781814 530.928209 
L 681.705504 589.226757 
L 682.226558 596.44 
M 686.154446 596.44 
L 687.552884 565.944402 
L 688.408575 596.44 
M 700.342038 596.44 
L 702.171335 587.930821 
L 705.095025 589.29892 
L 708.018715 583.517054 
L 710.942405 585.377601 
L 713.866095 584.181953 
L 716.789785 585.381484 
L 719.713475 583.71637 
L 722.637165 581.425465 
L 725.560855 585.148203 
L 728.484545 585.666081 
L 728.484545 585.666081 
" style="fill:none;stroke:#4c72b0;stroke-linecap:round;stroke-width:1.5;"/>
   </g>
   <g id="line2d_2">
    <path clip-path="url(#p264a58abdc)" d="M 134.975455 553.211012 
L 137.899145 556.832343 
L 140.822835 557.606309 
L 143.746525 557.699111 
L 146.670215 559.389795 
L 149.593905 561.438814 
L 152.517595 560.252959 
L 155.441285 562.207043 
L 158.364975 562.392646 
L 161.288665 563.854702 
L 167.136046 565.554831 
L 170.059736 585.166078 
L 172.983426 591.32055 
L 173.81391 596.44 
M 185.023045 596.44 
L 187.601876 519.700354 
L 190.065848 596.44 
M 210.783096 596.44 
L 210.991397 590.020416 
L 213.915087 569.322903 
L 215.643249 596.44 
M 221.477655 596.44 
L 222.686158 591.460749 
L 225.609848 569.850995 
L 228.319585 596.44 
M 232.107138 596.44 
L 234.380918 516.459639 
L 237.304608 571.997153 
L 238.434156 596.44 
M 243.254987 596.44 
L 246.075678 504.550656 
L 248.999369 512.326027 
L 251.923059 574.463832 
L 254.846749 569.005565 
L 257.332231 596.44 
M 258.016189 596.44 
L 260.694129 543.732503 
L 262.110993 596.44 
M 265.608844 596.44 
L 266.541509 570.182324 
L 269.465199 552.643987 
L 272.388889 585.972085 
L 274.005529 596.44 
M 280.147974 596.44 
L 281.15996 592.584059 
L 284.08365 550.560304 
L 287.00734 564.25802 
L 288.70884 596.44 
M 291.637324 596.44 
L 292.85472 579.947074 
L 295.77841 542.574878 
L 298.43677 596.44 
M 302.519957 596.44 
L 304.549481 566.734039 
L 307.473171 546.121702 
L 310.396861 546.040828 
L 313.320551 536.769785 
L 316.244241 568.870228 
L 319.167931 554.000369 
L 322.091621 550.847944 
L 325.015311 501.740719 
L 327.939001 573.098181 
L 330.862691 580.627188 
L 333.786382 545.813039 
L 336.710072 554.362971 
L 339.633762 593.669416 
L 342.557452 593.525299 
L 345.481142 523.960279 
L 348.404832 496.59178 
L 351.328522 554.939999 
L 354.122194 596.44 
M 354.325014 596.44 
L 357.175902 520.806209 
L 360.099592 439.519278 
L 363.023283 438.581361 
L 365.946973 482.204259 
L 368.870663 469.12845 
L 371.794353 479.442629 
L 374.718043 530.927299 
L 377.641733 564.881153 
L 380.528903 596.44 
M 380.580694 596.44 
L 383.489113 520.413874 
L 389.336494 578.853462 
L 392.260184 556.234466 
L 395.183874 576.056048 
L 398.107564 520.133685 
L 401.031254 489.504288 
L 403.954944 528.366314 
L 406.878634 540.527713 
L 409.802324 539.82815 
L 412.726014 544.384284 
L 415.649704 587.831128 
L 418.573395 547.298776 
L 421.838799 596.44 
M 426.176776 596.44 
L 427.344465 572.283953 
L 430.268155 579.515597 
L 433.191845 562.36823 
L 436.115535 512.747955 
L 439.039225 576.187362 
L 440.615133 596.44 
M 442.938317 596.44 
L 444.886605 561.842832 
L 447.810296 487.378454 
L 450.733986 505.578016 
L 453.657676 543.774934 
L 456.581366 555.332719 
L 457.71541 596.44 
M 461.150301 596.44 
L 462.428746 546.031069 
L 465.352436 571.898964 
L 468.276126 529.087495 
L 471.199816 546.269387 
L 474.123506 591.965615 
L 477.047197 576.329975 
L 479.970887 463.670883 
L 482.894577 571.369578 
L 485.615663 596.44 
M 488.836216 596.44 
L 491.665647 558.713878 
L 494.589337 550.320691 
L 496.192042 596.44 
M 498.653475 596.44 
L 500.436717 537.002227 
L 503.360408 463.954675 
L 506.284098 553.955245 
L 507.842181 596.44 
M 516.49846 596.44 
L 517.978858 560.33964 
L 520.902548 588.795105 
L 523.826238 589.031569 
L 526.749928 560.871999 
L 528.860942 596.44 
M 533.868182 596.44 
L 535.520999 544.381101 
L 538.444689 522.895 
L 541.368379 562.087761 
L 544.056192 596.44 
M 544.387687 596.44 
L 547.215759 507.275871 
L 550.139449 552.235422 
L 553.063139 496.418944 
L 555.986829 495.654878 
L 558.910519 460.205248 
L 561.83421 426.911605 
L 564.7579 500.974694 
L 567.68159 476.887241 
L 570.60528 575.313949 
L 573.52897 456.208407 
L 576.45266 457.137229 
L 579.37635 501.300602 
L 582.30004 462.181858 
L 585.22373 544.227434 
L 588.147421 514.61242 
L 591.071111 537.38816 
L 593.994801 567.569849 
L 596.918491 499.876569 
L 599.842181 586.161536 
L 602.765871 541.253406 
L 608.261971 596.44 
M 616.35125 596.44 
L 617.384322 562.112177 
L 620.308012 550.294911 
L 623.231702 580.14506 
L 623.878137 596.44 
M 634.224552 596.44 
L 634.926462 590.796865 
L 637.850152 590.259434 
L 640.773842 538.963411 
L 643.697532 450.667168 
L 646.621223 518.188382 
L 649.544913 548.539933 
L 652.468603 594.152314 
L 655.392293 575.446348 
L 658.315983 491.905415 
L 661.239673 578.502263 
L 664.163363 507.980122 
L 667.087053 579.731842 
L 670.010743 592.549919 
L 672.934433 562.999443 
L 675.858124 570.773485 
L 678.781814 557.073949 
L 681.610924 596.44 
M 686.209602 596.44 
L 687.552884 564.795452 
L 688.484982 596.44 
M 700.620694 596.44 
L 702.171335 578.222459 
L 705.095025 579.477608 
L 708.018715 578.188284 
L 710.942405 580.380475 
L 713.866095 578.268492 
L 716.789785 580.112879 
L 719.713475 579.316526 
L 722.637165 575.408674 
L 725.560855 579.675665 
L 728.484545 575.384433 
L 728.484545 575.384433 
" style="fill:none;stroke:#dd8452;stroke-dasharray:6,2.25;stroke-dashoffset:0;stroke-width:1.5;"/>
   </g>
   <g id="line2d_3">
    <path clip-path="url(#p264a58abdc)" d="M 134.975455 554.572395 
L 137.899145 558.051253 
L 140.822835 560.055533 
L 143.746525 557.425358 
L 146.670215 566.57495 
L 149.593905 567.447944 
L 152.517595 569.112429 
L 155.441285 590.310435 
L 158.364975 591.540818 
L 161.288665 581.885066 
L 164.212356 583.575681 
L 167.136046 576.222902 
L 170.059736 580.017768 
L 172.456076 596.44 
M 184.258431 596.44 
L 184.678186 580.552856 
L 187.601876 529.887906 
L 190.525567 565.398646 
L 193.449257 590.800573 
L 196.372947 587.404303 
L 197.352135 596.44 
M 201.500121 596.44 
L 202.220327 590.575233 
L 204.044183 596.44 
M 205.246039 596.44 
L 208.067707 498.626247 
L 210.991397 562.811601 
L 213.915087 590.150332 
L 216.838777 569.775858 
L 219.762468 556.889465 
L 222.686158 552.032678 
L 225.609848 505.812906 
L 228.533538 555.718093 
L 231.457228 592.302996 
L 234.380918 525.766292 
L 237.304608 573.556278 
L 238.114686 596.44 
M 243.699142 596.44 
L 246.075678 494.624719 
L 248.999369 533.419304 
L 251.923059 531.628961 
L 254.846749 595.018697 
L 255.182077 596.44 
M 258.197329 596.44 
L 260.694129 532.273361 
L 262.83757 596.44 
M 264.848017 596.44 
L 266.541509 564.285689 
L 272.388889 592.421613 
L 278.23627 557.462296 
L 281.15996 493.181727 
L 284.08365 473.191228 
L 287.00734 464.154726 
L 289.93103 501.134902 
L 292.85472 510.768407 
L 295.77841 536.087677 
L 298.060453 596.44 
M 303.979393 596.44 
L 304.549481 582.992041 
L 307.473171 571.123879 
L 309.993258 596.44 
M 312.62035 596.44 
L 313.320551 595.163199 
L 314.418197 596.44 
M 316.709124 596.44 
L 322.091621 571.372901 
L 325.015311 525.63015 
L 327.939001 587.739585 
L 328.823635 596.44 
M 332.08936 596.44 
L 333.786382 568.696203 
L 336.710072 566.083342 
L 338.485774 596.44 
M 344.201256 596.44 
L 345.481142 555.968934 
L 348.404832 511.566858 
L 351.304256 596.44 
M 351.362401 596.44 
L 354.252212 535.848589 
L 357.175902 590.995901 
L 360.099592 498.749306 
L 363.023283 561.643726 
L 365.946973 491.755211 
L 368.870663 538.268325 
L 371.794353 476.135173 
L 374.718043 581.420253 
L 376.761125 596.44 
M 378.572965 596.44 
L 380.565423 582.588687 
L 383.489113 566.066412 
L 386.412803 579.278992 
L 387.729213 596.44 
M 391.8081 596.44 
L 392.260184 592.607496 
L 395.183874 594.613245 
L 398.107564 543.443009 
L 401.031254 529.221363 
L 403.954944 538.881068 
L 406.878634 552.791428 
L 409.802324 585.719985 
L 412.726014 563.986751 
L 415.649704 571.815362 
L 418.007269 596.44 
M 418.83778 596.44 
L 421.497085 536.962909 
L 424.420775 484.418558 
L 427.344465 453.932474 
L 430.268155 470.127582 
L 433.191845 475.050796 
L 436.115535 455.008981 
L 439.039225 539.63611 
L 441.881309 596.44 
M 442.049043 596.44 
L 444.886605 542.703744 
L 447.810296 566.080369 
L 450.733986 511.009768 
L 453.657676 525.563968 
L 456.581366 570.968673 
L 457.023925 596.44 
M 463.295664 596.44 
L 465.352436 569.348753 
L 468.276126 565.700452 
L 471.199816 500.768242 
L 474.123506 559.441285 
L 477.047197 525.971134 
L 479.970887 503.201236 
L 482.894577 568.214109 
L 484.878804 596.44 
M 487.364133 596.44 
L 488.741957 584.528744 
L 491.665647 577.46238 
L 494.589337 488.388499 
L 497.513027 541.949437 
L 500.436717 488.24718 
L 503.360408 505.58921 
L 506.284098 574.873726 
L 509.207788 530.495822 
L 512.131478 543.060329 
L 515.055168 565.735502 
L 517.978858 560.822747 
L 519.879415 596.44 
M 536.502613 596.44 
L 538.444689 573.246985 
L 541.128887 596.44 
M 544.46169 596.44 
L 547.215759 496.301062 
L 550.139449 584.350241 
L 553.063139 530.994076 
L 555.986829 488.542306 
L 558.910519 502.850772 
L 561.83421 474.212747 
L 564.7579 471.302522 
L 567.68159 468.93683 
L 570.60528 515.825698 
L 573.52897 548.122658 
L 576.45266 470.758725 
L 579.37635 525.615423 
L 582.30004 547.312908 
L 585.22373 587.77593 
L 588.147421 553.174773 
L 591.071111 574.185007 
L 593.994801 568.235447 
L 596.918491 487.303947 
L 599.732358 596.44 
M 600.85307 596.44 
L 602.765871 588.380243 
L 605.689561 555.511187 
L 608.613251 566.792385 
L 610.386233 596.44 
M 615.301136 596.44 
L 617.384322 513.660721 
L 620.308012 484.706443 
L 623.231702 566.718683 
L 624.425965 596.44 
M 627.870214 596.44 
L 629.079082 566.099013 
L 631.205294 596.44 
M 635.122648 596.44 
L 637.850152 520.502514 
L 640.773842 501.603843 
L 643.697532 519.7941 
L 646.621223 581.91375 
L 649.544913 524.758066 
L 652.468603 595.728614 
L 655.392293 573.50846 
L 658.315983 501.128605 
L 661.239673 564.444428 
L 664.163363 508.231488 
L 667.087053 578.42982 
L 670.010743 587.621598 
L 672.934433 532.324257 
L 675.858124 583.989668 
L 678.781814 570.405321 
L 680.466678 596.44 
M 687.068362 596.44 
L 687.552884 585.000588 
L 687.996457 596.44 
M 701.997137 596.44 
L 702.171335 594.601631 
L 705.095025 586.50301 
L 708.018715 585.447666 
L 710.942405 591.66881 
L 713.866095 587.617995 
L 716.789785 588.617791 
L 719.713475 586.145236 
L 722.637165 586.002203 
L 725.560855 587.722795 
L 728.484545 578.641658 
L 728.484545 578.641658 
" style="fill:none;stroke:#55a868;stroke-dasharray:1.5,1.5;stroke-dashoffset:0;stroke-width:1.5;"/>
   </g>
   <g id="line2d_4">
    <path clip-path="url(#p264a58abdc)" d="M 134.975455 553.110095 
L 137.899145 556.710403 
L 140.822835 557.557302 
L 143.746525 557.510429 
L 146.670215 559.367618 
L 149.593905 561.413838 
L 152.517595 560.328061 
L 155.441285 562.43805 
L 158.364975 562.801876 
L 161.288665 564.311819 
L 164.212356 565.136086 
L 167.136046 566.114335 
L 170.059736 585.840351 
L 172.983426 591.976843 
L 173.708013 596.44 
M 185.056147 596.44 
L 187.601876 520.226277 
L 190.036013 596.44 
M 210.641798 596.44 
L 210.991397 584.959242 
L 213.915087 577.228539 
L 215.589043 596.44 
M 221.784686 596.44 
L 222.686158 592.456103 
L 225.609848 569.306287 
L 228.214871 596.44 
M 232.162597 596.44 
L 234.380918 517.226574 
L 238.240715 596.44 
M 243.322741 596.44 
L 246.075678 505.191768 
L 248.999369 512.250226 
L 251.923059 574.842769 
L 254.846749 569.516657 
L 257.517858 596.44 
M 257.904984 596.44 
L 260.694129 543.663488 
L 262.103971 596.44 
M 265.523851 596.44 
L 266.541509 566.18314 
L 269.465199 552.717515 
L 272.388889 582.361353 
L 274.048206 596.44 
M 279.754309 596.44 
L 281.15996 590.218822 
L 284.08365 550.473763 
L 287.00734 573.69151 
L 288.36679 596.44 
M 291.519575 596.44 
L 292.85472 574.440045 
L 295.77841 542.483755 
L 298.423727 596.44 
M 302.634567 596.44 
L 304.549481 569.811922 
L 307.473171 546.427286 
L 310.396861 548.21574 
L 313.320551 535.981688 
L 316.244241 570.80021 
L 319.167931 556.704352 
L 322.091621 562.300299 
L 325.015311 498.285193 
L 327.939001 561.560579 
L 330.862691 592.747766 
L 333.786382 543.447837 
L 336.710072 560.850731 
L 338.707359 596.44 
M 343.022664 596.44 
L 345.481142 530.119228 
L 348.404832 473.077054 
L 351.328522 537.07579 
L 354.252212 577.703987 
L 357.175902 495.070643 
L 360.099592 457.801043 
L 363.023283 581.150068 
L 365.946973 492.818671 
L 368.870663 487.309124 
L 371.794353 503.853331 
L 374.718043 557.720308 
L 377.641733 576.483222 
L 379.404136 596.44 
M 380.995685 596.44 
L 383.489113 520.234043 
L 386.412803 553.059549 
L 389.336494 579.715997 
L 392.260184 555.797427 
L 395.183874 576.588722 
L 398.107564 519.741246 
L 401.031254 491.179092 
L 403.954944 526.399219 
L 406.878634 543.333802 
L 412.726014 543.182899 
L 415.649704 591.002862 
L 418.573395 548.667085 
L 421.485723 596.44 
M 426.328294 596.44 
L 427.344465 573.871097 
L 430.268155 578.400787 
L 433.191845 559.002742 
L 436.115535 510.990669 
L 439.039225 575.959748 
L 440.59394 596.44 
M 442.942445 596.44 
L 444.886605 560.647253 
L 447.810296 486.685921 
L 450.733986 499.966363 
L 453.657676 549.628089 
L 456.581366 556.260142 
L 457.71803 596.44 
M 461.10248 596.44 
L 462.428746 543.993418 
L 465.352436 574.832905 
L 468.276126 528.675677 
L 471.199816 552.385381 
L 473.876638 596.44 
M 474.778518 596.44 
L 477.047197 582.367789 
L 479.970887 460.324494 
L 482.894577 572.112866 
L 485.640085 596.44 
M 488.967916 596.44 
L 491.665647 558.937575 
L 494.589337 550.917274 
L 496.158359 596.44 
M 498.660515 596.44 
L 500.436717 535.601736 
L 503.360408 461.984781 
L 506.284098 553.317421 
L 507.870401 596.44 
M 516.491952 596.44 
L 517.978858 559.890533 
L 520.902548 588.992776 
L 523.826238 587.702787 
L 526.749928 559.801229 
L 528.892561 596.44 
M 533.845789 596.44 
L 535.520999 543.684511 
L 538.444689 525.374657 
L 541.368379 564.067834 
L 543.982779 596.44 
M 544.412323 596.44 
L 547.215759 507.159738 
L 550.139449 551.39475 
L 553.063139 494.695448 
L 555.986829 496.851331 
L 558.910519 460.074353 
L 561.83421 428.555697 
L 564.7579 501.796757 
L 567.68159 477.130877 
L 570.60528 570.166374 
L 573.52897 450.651532 
L 576.45266 507.650401 
L 579.37635 487.597743 
L 582.30004 476.883918 
L 585.22373 593.509173 
L 588.147421 501.219378 
L 591.071111 508.636415 
L 593.994801 575.628943 
L 596.918491 524.059027 
L 599.842181 574.486359 
L 602.765871 560.594573 
L 605.689561 574.94526 
L 608.613251 588.51649 
L 609.080979 596.44 
M 616.295621 596.44 
L 617.384322 554.823271 
L 620.308012 546.2123 
L 623.231702 581.990706 
L 623.873926 596.44 
M 634.460281 596.44 
L 634.926462 593.582281 
L 637.850152 590.162225 
L 640.773842 538.799705 
L 643.697532 450.190812 
L 646.621223 518.830648 
L 649.544913 545.477302 
L 652.468603 594.468113 
L 655.392293 575.20614 
L 658.315983 491.469635 
L 661.239673 578.853707 
L 664.163363 507.858077 
L 667.087053 577.808087 
L 670.010743 593.171862 
L 672.934433 561.952494 
L 675.858124 569.216424 
L 678.781814 556.382012 
L 681.818215 596.44 
M 686.1725 596.44 
L 687.552884 564.735321 
L 688.489749 596.44 
M 700.617609 596.44 
L 702.171335 576.768973 
L 705.095025 578.802951 
L 708.018715 577.683104 
L 710.942405 580.691062 
L 713.866095 578.561065 
L 716.789785 580.215895 
L 719.713475 579.495693 
L 722.637165 575.287714 
L 725.560855 580.081817 
L 728.484545 575.536981 
L 728.484545 575.536981 
" style="fill:none;stroke:#c44e52;stroke-dasharray:4.5,1.875,2.25,1.875;stroke-dashoffset:0;stroke-width:1.5;"/>
   </g>
   <g id="line2d_5">
    <path clip-path="url(#p264a58abdc)" d="M 134.975455 555.678146 
L 137.899145 559.33666 
L 140.822835 560.139415 
L 143.746525 560.540704 
L 146.670215 562.024727 
L 149.593905 564.636853 
L 152.517595 564.017219 
L 155.441285 565.827954 
L 158.364975 566.272234 
L 161.288665 568.520289 
L 164.212356 567.986635 
L 167.136046 568.279102 
L 170.059736 585.453403 
L 172.983426 591.524413 
L 173.913815 596.44 
M 185.229305 596.44 
L 187.601876 539.315589 
L 189.790613 596.44 
M 210.728961 596.44 
L 210.991397 587.798422 
L 213.915087 567.15824 
L 215.831574 596.44 
M 221.334308 596.44 
L 222.686158 591.012866 
L 225.609848 576.047687 
L 227.855917 596.44 
M 232.248484 596.44 
L 234.380918 521.019587 
L 237.304608 574.440115 
L 238.279427 596.44 
M 243.330171 596.44 
L 246.075678 501.293011 
L 248.999369 502.663489 
L 251.923059 581.525928 
L 254.846749 571.080434 
L 257.142228 596.44 
M 258.08861 596.44 
L 260.694129 539.606097 
L 262.179013 596.44 
M 265.482238 596.44 
L 266.541509 565.151792 
L 269.465199 551.387474 
L 272.388889 579.793652 
L 274.344692 596.44 
M 281.201083 596.44 
L 284.08365 557.601097 
L 287.00734 572.212069 
L 288.469702 596.44 
M 291.431941 596.44 
L 292.85472 573.489536 
L 295.77841 538.00762 
L 298.657064 596.44 
M 302.407273 596.44 
L 304.549481 566.874763 
L 307.473171 544.120326 
L 310.396861 561.637954 
L 313.320551 539.605677 
L 316.244241 567.981843 
L 319.167931 555.116718 
L 322.091621 565.104604 
L 325.015311 508.565511 
L 327.939001 559.182994 
L 330.862691 595.698951 
L 333.786382 559.084875 
L 336.710072 531.468054 
L 339.418717 596.44 
M 343.040401 596.44 
L 345.481142 541.123491 
L 348.404832 487.805664 
L 351.328522 471.423413 
L 354.252212 550.496115 
L 357.175902 560.422332 
L 360.099592 562.655765 
L 361.311027 596.44 
M 364.321018 596.44 
L 365.946973 536.611886 
L 368.870663 540.934005 
L 371.794353 521.037427 
L 375.030388 596.44 
M 382.656144 596.44 
L 383.489113 570.218389 
L 386.412803 552.552585 
L 389.336494 584.198533 
L 392.260184 572.803999 
L 395.183874 588.632868 
L 398.107564 503.886072 
L 401.031254 506.425964 
L 403.954944 523.715769 
L 406.878634 552.450444 
L 409.802324 551.848964 
L 412.726014 536.571694 
L 415.047022 596.44 
M 416.404319 596.44 
L 418.573395 551.755393 
L 420.943911 596.44 
M 426.762162 596.44 
L 427.344465 583.29801 
L 430.268155 581.609215 
L 433.191845 564.845228 
L 436.115535 508.937453 
L 439.039225 575.152866 
L 440.559724 596.44 
M 443.115594 596.44 
L 444.886605 566.257088 
L 447.810296 486.546456 
L 450.733986 496.159393 
L 453.657676 535.867408 
L 456.581366 544.188886 
L 458.263677 596.44 
M 460.591319 596.44 
L 462.428746 531.221795 
L 465.352436 568.677104 
L 468.276126 534.202294 
L 471.199816 562.910489 
L 473.152907 596.44 
M 475.193329 596.44 
L 477.047197 567.565652 
L 479.970887 462.854592 
L 482.894577 581.464573 
L 484.901612 596.44 
M 489.061449 596.44 
L 491.665647 563.906822 
L 494.589337 549.403168 
L 496.170313 596.44 
M 498.646887 596.44 
L 500.436717 533.380756 
L 503.360408 457.704568 
L 507.794281 596.44 
M 516.588324 596.44 
L 517.978858 564.035023 
L 520.902548 589.065709 
L 523.826238 583.089495 
L 526.749928 548.907677 
L 529.334506 596.44 
M 533.282745 596.44 
L 535.520999 526.299211 
L 538.444689 502.290323 
L 541.368379 557.599138 
L 543.896677 596.44 
M 544.464919 596.44 
L 547.215759 499.771769 
L 550.139449 547.346279 
L 553.063139 455.664714 
L 555.986829 531.380499 
L 558.910519 485.645828 
L 561.83421 468.959812 
L 564.7579 536.852058 
L 567.68159 509.309569 
L 570.60528 517.078224 
L 573.52897 506.090682 
L 576.45266 559.069659 
L 579.37635 527.974399 
L 582.30004 486.704915 
L 585.22373 568.064115 
L 588.147421 514.373297 
L 591.071111 527.46747 
L 593.994801 549.656667 
L 596.918491 508.1503 
L 599.842181 551.026796 
L 602.765871 534.74088 
L 605.689561 555.066627 
L 608.613251 572.871511 
L 610.660112 596.44 
M 615.713863 596.44 
L 617.384322 531.245372 
L 620.308012 529.170748 
L 623.231702 571.316513 
L 624.387335 596.44 
M 632.38802 596.44 
L 634.926462 583.198982 
L 637.850152 574.855572 
L 640.773842 518.419774 
L 643.697532 443.470924 
L 646.621223 502.702562 
L 649.544913 532.118365 
L 652.468603 572.557951 
L 655.392293 558.72787 
L 658.315983 490.175623 
L 661.239673 563.076993 
L 664.163363 500.157318 
L 667.087053 573.549911 
L 670.010743 588.223673 
L 672.934433 567.748562 
L 675.858124 567.177759 
L 678.781814 539.760708 
L 681.705504 593.522046 
L 682.0032 596.44 
M 685.760599 596.44 
L 687.552884 555.665658 
L 688.94123 596.44 
M 700.089052 596.44 
L 702.171335 572.51629 
L 705.095025 574.416049 
L 708.018715 573.331986 
L 710.942405 575.122399 
L 713.866095 572.831773 
L 716.789785 573.62183 
L 719.713475 573.561105 
L 722.637165 568.888767 
L 725.560855 573.457075 
L 728.484545 569.778901 
L 728.484545 569.778901 
" style="fill:none;stroke:#8172b3;stroke-dasharray:7.5,1.5,1.5,1.5;stroke-dashoffset:0;stroke-width:1.5;"/>
   </g>
   <g id="line2d_6"/>
   <g id="line2d_7"/>
   <g id="line2d_8"/>
   <g id="line2d_9"/>
   <g id="line2d_10"/>
   <g id="patch_3">
    <path d="M 105.3 529.9416 
L 105.3 71.4528 
" style="fill:none;stroke:#262626;stroke-linecap:square;stroke-linejoin:miter;stroke-width:1.25;"/>
   </g>
   <g id="patch_4">
    <path d="M 758.16 529.9416 
L 758.16 71.4528 
" style="fill:none;stroke:#262626;stroke-linecap:square;stroke-linejoin:miter;stroke-width:1.25;"/>
   </g>
   <g id="patch_5">
    <path d="M 105.3 529.9416 
L 758.16 529.9416 
" style="fill:none;stroke:#262626;stroke-linecap:square;stroke-linejoin:miter;stroke-width:1.25;"/>
   </g>
   <g id="patch_6">
    <path d="M 105.3 71.4528 
L 758.16 71.4528 
" style="fill:none;stroke:#262626;stroke-linecap:square;stroke-linejoin:miter;stroke-width:1.25;"/>
   </g>
   <g id="text_16">
    <!-- Activations for &gt;$&lt; -->
    <g style="fill:#262626;" transform="translate(382.037813 65.4528)scale(0.12 -0.12)">
     <defs>
      <path d="M -9 0 
L 1750 4581 
L 2403 4581 
L 4278 0 
L 3588 0 
L 3053 1388 
L 1138 1388 
L 634 0 
L -9 0 
z
M 1313 1881 
L 2866 1881 
L 2388 3150 
Q 2169 3728 2063 4100 
Q 1975 3659 1816 3225 
L 1313 1881 
z
" id="ArialMT-41" transform="scale(0.015625)"/>
      <path d="M 2588 1216 
L 3141 1144 
Q 3050 572 2676 248 
Q 2303 -75 1759 -75 
Q 1078 -75 664 370 
Q 250 816 250 1647 
Q 250 2184 428 2587 
Q 606 2991 970 3192 
Q 1334 3394 1763 3394 
Q 2303 3394 2647 3120 
Q 2991 2847 3088 2344 
L 2541 2259 
Q 2463 2594 2264 2762 
Q 2066 2931 1784 2931 
Q 1359 2931 1093 2626 
Q 828 2322 828 1663 
Q 828 994 1084 691 
Q 1341 388 1753 388 
Q 2084 388 2306 591 
Q 2528 794 2588 1216 
z
" id="ArialMT-63" transform="scale(0.015625)"/>
      <path d="M 1650 503 
L 1731 6 
Q 1494 -44 1306 -44 
Q 1000 -44 831 53 
Q 663 150 594 308 
Q 525 466 525 972 
L 525 2881 
L 113 2881 
L 113 3319 
L 525 3319 
L 525 4141 
L 1084 4478 
L 1084 3319 
L 1650 3319 
L 1650 2881 
L 1084 2881 
L 1084 941 
Q 1084 700 1114 631 
Q 1144 563 1211 522 
Q 1278 481 1403 481 
Q 1497 481 1650 503 
z
" id="ArialMT-74" transform="scale(0.015625)"/>
      <path d="M 425 3934 
L 425 4581 
L 988 4581 
L 988 3934 
L 425 3934 
z
M 425 0 
L 425 3319 
L 988 3319 
L 988 0 
L 425 0 
z
" id="ArialMT-69" transform="scale(0.015625)"/>
      <path d="M 1344 0 
L 81 3319 
L 675 3319 
L 1388 1331 
Q 1503 1009 1600 663 
Q 1675 925 1809 1294 
L 2547 3319 
L 3125 3319 
L 1869 0 
L 1344 0 
z
" id="ArialMT-76" transform="scale(0.015625)"/>
      <path d="M 2588 409 
Q 2275 144 1986 34 
Q 1697 -75 1366 -75 
Q 819 -75 525 192 
Q 231 459 231 875 
Q 231 1119 342 1320 
Q 453 1522 633 1644 
Q 813 1766 1038 1828 
Q 1203 1872 1538 1913 
Q 2219 1994 2541 2106 
Q 2544 2222 2544 2253 
Q 2544 2597 2384 2738 
Q 2169 2928 1744 2928 
Q 1347 2928 1158 2789 
Q 969 2650 878 2297 
L 328 2372 
Q 403 2725 575 2942 
Q 747 3159 1072 3276 
Q 1397 3394 1825 3394 
Q 2250 3394 2515 3294 
Q 2781 3194 2906 3042 
Q 3031 2891 3081 2659 
Q 3109 2516 3109 2141 
L 3109 1391 
Q 3109 606 3145 398 
Q 3181 191 3288 0 
L 2700 0 
Q 2613 175 2588 409 
z
M 2541 1666 
Q 2234 1541 1622 1453 
Q 1275 1403 1131 1340 
Q 988 1278 909 1158 
Q 831 1038 831 891 
Q 831 666 1001 516 
Q 1172 366 1500 366 
Q 1825 366 2078 508 
Q 2331 650 2450 897 
Q 2541 1088 2541 1459 
L 2541 1666 
z
" id="ArialMT-61" transform="scale(0.015625)"/>
      <path d="M 213 1659 
Q 213 2581 725 3025 
Q 1153 3394 1769 3394 
Q 2453 3394 2887 2945 
Q 3322 2497 3322 1706 
Q 3322 1066 3130 698 
Q 2938 331 2570 128 
Q 2203 -75 1769 -75 
Q 1072 -75 642 372 
Q 213 819 213 1659 
z
M 791 1659 
Q 791 1022 1069 705 
Q 1347 388 1769 388 
Q 2188 388 2466 706 
Q 2744 1025 2744 1678 
Q 2744 2294 2464 2611 
Q 2184 2928 1769 2928 
Q 1347 2928 1069 2612 
Q 791 2297 791 1659 
z
" id="ArialMT-6f" transform="scale(0.015625)"/>
      <path d="M 422 0 
L 422 3319 
L 928 3319 
L 928 2847 
Q 1294 3394 1984 3394 
Q 2284 3394 2536 3286 
Q 2788 3178 2913 3003 
Q 3038 2828 3088 2588 
Q 3119 2431 3119 2041 
L 3119 0 
L 2556 0 
L 2556 2019 
Q 2556 2363 2490 2533 
Q 2425 2703 2258 2804 
Q 2091 2906 1866 2906 
Q 1506 2906 1245 2678 
Q 984 2450 984 1813 
L 984 0 
L 422 0 
z
" id="ArialMT-6e" transform="scale(0.015625)"/>
      <path d="M 197 991 
L 753 1078 
Q 800 744 1014 566 
Q 1228 388 1613 388 
Q 2000 388 2187 545 
Q 2375 703 2375 916 
Q 2375 1106 2209 1216 
Q 2094 1291 1634 1406 
Q 1016 1563 777 1677 
Q 538 1791 414 1992 
Q 291 2194 291 2438 
Q 291 2659 392 2848 
Q 494 3038 669 3163 
Q 800 3259 1026 3326 
Q 1253 3394 1513 3394 
Q 1903 3394 2198 3281 
Q 2494 3169 2634 2976 
Q 2775 2784 2828 2463 
L 2278 2388 
Q 2241 2644 2061 2787 
Q 1881 2931 1553 2931 
Q 1166 2931 1000 2803 
Q 834 2675 834 2503 
Q 834 2394 903 2306 
Q 972 2216 1119 2156 
Q 1203 2125 1616 2013 
Q 2213 1853 2448 1751 
Q 2684 1650 2818 1456 
Q 2953 1263 2953 975 
Q 2953 694 2789 445 
Q 2625 197 2315 61 
Q 2006 -75 1616 -75 
Q 969 -75 630 194 
Q 291 463 197 991 
z
" id="ArialMT-73" transform="scale(0.015625)"/>
      <path id="ArialMT-20" transform="scale(0.015625)"/>
      <path d="M 556 0 
L 556 2881 
L 59 2881 
L 59 3319 
L 556 3319 
L 556 3672 
Q 556 4006 616 4169 
Q 697 4388 901 4523 
Q 1106 4659 1475 4659 
Q 1713 4659 2000 4603 
L 1916 4113 
Q 1741 4144 1584 4144 
Q 1328 4144 1222 4034 
Q 1116 3925 1116 3625 
L 1116 3319 
L 1763 3319 
L 1763 2881 
L 1116 2881 
L 1116 0 
L 556 0 
z
" id="ArialMT-66" transform="scale(0.015625)"/>
      <path d="M 416 0 
L 416 3319 
L 922 3319 
L 922 2816 
Q 1116 3169 1280 3281 
Q 1444 3394 1641 3394 
Q 1925 3394 2219 3213 
L 2025 2691 
Q 1819 2813 1613 2813 
Q 1428 2813 1281 2702 
Q 1134 2591 1072 2394 
Q 978 2094 978 1738 
L 978 0 
L 416 0 
z
" id="ArialMT-72" transform="scale(0.015625)"/>
      <path d="M 3384 2003 
L 350 706 
L 350 1266 
L 2753 2263 
L 350 3250 
L 350 3809 
L 3384 2528 
L 3384 2003 
z
" id="ArialMT-3e" transform="scale(0.015625)"/>
      <path d="M 1594 -659 
L 1594 -97 
Q 1172 -44 908 92 
Q 644 228 451 531 
Q 259 834 228 1272 
L 794 1378 
Q 859 925 1025 713 
Q 1263 413 1594 378 
L 1594 2169 
Q 1247 2234 884 2438 
Q 616 2588 470 2853 
Q 325 3119 325 3456 
Q 325 4056 750 4428 
Q 1034 4678 1594 4734 
L 1594 5003 
L 1925 5003 
L 1925 4734 
Q 2416 4688 2703 4447 
Q 3072 4141 3147 3606 
L 2566 3519 
Q 2516 3850 2358 4026 
Q 2200 4203 1925 4259 
L 1925 2638 
Q 2350 2531 2488 2472 
Q 2750 2356 2915 2190 
Q 3081 2025 3170 1797 
Q 3259 1569 3259 1303 
Q 3259 719 2887 328 
Q 2516 -63 1925 -91 
L 1925 -659 
L 1594 -659 
z
M 1594 4266 
Q 1266 4216 1077 4003 
Q 888 3791 888 3500 
Q 888 3213 1048 3019 
Q 1209 2825 1594 2709 
L 1594 4266 
z
M 1925 378 
Q 2253 419 2467 662 
Q 2681 906 2681 1266 
Q 2681 1572 2529 1758 
Q 2378 1944 1925 2091 
L 1925 378 
z
" id="ArialMT-24" transform="scale(0.015625)"/>
      <path d="M 350 2003 
L 350 2528 
L 3384 3809 
L 3384 3250 
L 978 2263 
L 3384 1266 
L 3384 706 
L 350 2003 
z
" id="ArialMT-3c" transform="scale(0.015625)"/>
     </defs>
     <use xlink:href="#ArialMT-41"/>
     <use x="66.699219" xlink:href="#ArialMT-63"/>
     <use x="116.699219" xlink:href="#ArialMT-74"/>
     <use x="144.482422" xlink:href="#ArialMT-69"/>
     <use x="166.699219" xlink:href="#ArialMT-76"/>
     <use x="216.699219" xlink:href="#ArialMT-61"/>
     <use x="272.314453" xlink:href="#ArialMT-74"/>
     <use x="300.097656" xlink:href="#ArialMT-69"/>
     <use x="322.314453" xlink:href="#ArialMT-6f"/>
     <use x="377.929688" xlink:href="#ArialMT-6e"/>
     <use x="433.544922" xlink:href="#ArialMT-73"/>
     <use x="483.544922" xlink:href="#ArialMT-20"/>
     <use x="511.328125" xlink:href="#ArialMT-66"/>
     <use x="539.111328" xlink:href="#ArialMT-6f"/>
     <use x="594.726562" xlink:href="#ArialMT-72"/>
     <use x="628.027344" xlink:href="#ArialMT-20"/>
     <use x="655.810547" xlink:href="#ArialMT-3e"/>
     <use x="714.208984" xlink:href="#ArialMT-24"/>
     <use x="769.824219" xlink:href="#ArialMT-3c"/>
    </g>
   </g>
   <g id="legend_1">
    <g id="patch_7">
     <path d="M 640.044062 158.514363 
L 750.46 158.514363 
Q 752.66 158.514363 752.66 156.314363 
L 752.66 79.1528 
Q 752.66 76.9528 750.46 76.9528 
L 640.044062 76.9528 
Q 637.844062 76.9528 637.844062 79.1528 
L 637.844062 156.314363 
Q 637.844062 158.514363 640.044062 158.514363 
z
" style="fill:#ffffff;opacity:0.8;stroke:#cccccc;stroke-linejoin:miter;"/>
    </g>
    <g id="line2d_11">
     <path d="M 642.244062 85.376394 
L 664.244062 85.376394 
" style="fill:none;stroke:#4c72b0;stroke-linecap:round;stroke-width:1.5;"/>
    </g>
    <g id="line2d_12"/>
    <g id="text_17">
     <!-- regular -->
     <g style="fill:#262626;" transform="translate(673.044062 89.226394)scale(0.11 -0.11)">
      <defs>
       <path d="M 2694 1069 
L 3275 997 
Q 3138 488 2766 206 
Q 2394 -75 1816 -75 
Q 1088 -75 661 373 
Q 234 822 234 1631 
Q 234 2469 665 2931 
Q 1097 3394 1784 3394 
Q 2450 3394 2872 2941 
Q 3294 2488 3294 1666 
Q 3294 1616 3291 1516 
L 816 1516 
Q 847 969 1125 678 
Q 1403 388 1819 388 
Q 2128 388 2347 550 
Q 2566 713 2694 1069 
z
M 847 1978 
L 2700 1978 
Q 2663 2397 2488 2606 
Q 2219 2931 1791 2931 
Q 1403 2931 1139 2672 
Q 875 2413 847 1978 
z
" id="ArialMT-65" transform="scale(0.015625)"/>
       <path d="M 319 -275 
L 866 -356 
Q 900 -609 1056 -725 
Q 1266 -881 1628 -881 
Q 2019 -881 2231 -725 
Q 2444 -569 2519 -288 
Q 2563 -116 2559 434 
Q 2191 0 1641 0 
Q 956 0 581 494 
Q 206 988 206 1678 
Q 206 2153 378 2554 
Q 550 2956 876 3175 
Q 1203 3394 1644 3394 
Q 2231 3394 2613 2919 
L 2613 3319 
L 3131 3319 
L 3131 450 
Q 3131 -325 2973 -648 
Q 2816 -972 2473 -1159 
Q 2131 -1347 1631 -1347 
Q 1038 -1347 672 -1080 
Q 306 -813 319 -275 
z
M 784 1719 
Q 784 1066 1043 766 
Q 1303 466 1694 466 
Q 2081 466 2343 764 
Q 2606 1063 2606 1700 
Q 2606 2309 2336 2618 
Q 2066 2928 1684 2928 
Q 1309 2928 1046 2623 
Q 784 2319 784 1719 
z
" id="ArialMT-67" transform="scale(0.015625)"/>
       <path d="M 2597 0 
L 2597 488 
Q 2209 -75 1544 -75 
Q 1250 -75 995 37 
Q 741 150 617 320 
Q 494 491 444 738 
Q 409 903 409 1263 
L 409 3319 
L 972 3319 
L 972 1478 
Q 972 1038 1006 884 
Q 1059 663 1231 536 
Q 1403 409 1656 409 
Q 1909 409 2131 539 
Q 2353 669 2445 892 
Q 2538 1116 2538 1541 
L 2538 3319 
L 3100 3319 
L 3100 0 
L 2597 0 
z
" id="ArialMT-75" transform="scale(0.015625)"/>
       <path d="M 409 0 
L 409 4581 
L 972 4581 
L 972 0 
L 409 0 
z
" id="ArialMT-6c" transform="scale(0.015625)"/>
      </defs>
      <use xlink:href="#ArialMT-72"/>
      <use x="33.300781" xlink:href="#ArialMT-65"/>
      <use x="88.916016" xlink:href="#ArialMT-67"/>
      <use x="144.53125" xlink:href="#ArialMT-75"/>
      <use x="200.146484" xlink:href="#ArialMT-6c"/>
      <use x="222.363281" xlink:href="#ArialMT-61"/>
      <use x="277.978516" xlink:href="#ArialMT-72"/>
     </g>
    </g>
    <g id="line2d_13">
     <path d="M 642.244062 101.0978 
L 664.244062 101.0978 
" style="fill:none;stroke:#dd8452;stroke-dasharray:6,2.25;stroke-dashoffset:0;stroke-width:1.5;"/>
    </g>
    <g id="line2d_14"/>
    <g id="text_18">
     <!-- splitted_3s -->
     <g style="fill:#262626;" transform="translate(673.044062 104.9478)scale(0.11 -0.11)">
      <defs>
       <path d="M 422 -1272 
L 422 3319 
L 934 3319 
L 934 2888 
Q 1116 3141 1344 3267 
Q 1572 3394 1897 3394 
Q 2322 3394 2647 3175 
Q 2972 2956 3137 2557 
Q 3303 2159 3303 1684 
Q 3303 1175 3120 767 
Q 2938 359 2589 142 
Q 2241 -75 1856 -75 
Q 1575 -75 1351 44 
Q 1128 163 984 344 
L 984 -1272 
L 422 -1272 
z
M 931 1641 
Q 931 1000 1190 694 
Q 1450 388 1819 388 
Q 2194 388 2461 705 
Q 2728 1022 2728 1688 
Q 2728 2322 2467 2637 
Q 2206 2953 1844 2953 
Q 1484 2953 1207 2617 
Q 931 2281 931 1641 
z
" id="ArialMT-70" transform="scale(0.015625)"/>
       <path d="M 2575 0 
L 2575 419 
Q 2259 -75 1647 -75 
Q 1250 -75 917 144 
Q 584 363 401 755 
Q 219 1147 219 1656 
Q 219 2153 384 2558 
Q 550 2963 881 3178 
Q 1213 3394 1622 3394 
Q 1922 3394 2156 3267 
Q 2391 3141 2538 2938 
L 2538 4581 
L 3097 4581 
L 3097 0 
L 2575 0 
z
M 797 1656 
Q 797 1019 1065 703 
Q 1334 388 1700 388 
Q 2069 388 2326 689 
Q 2584 991 2584 1609 
Q 2584 2291 2321 2609 
Q 2059 2928 1675 2928 
Q 1300 2928 1048 2622 
Q 797 2316 797 1656 
z
" id="ArialMT-64" transform="scale(0.015625)"/>
       <path d="M -97 -1272 
L -97 -866 
L 3631 -866 
L 3631 -1272 
L -97 -1272 
z
" id="ArialMT-5f" transform="scale(0.015625)"/>
       <path d="M 269 1209 
L 831 1284 
Q 928 806 1161 595 
Q 1394 384 1728 384 
Q 2125 384 2398 659 
Q 2672 934 2672 1341 
Q 2672 1728 2419 1979 
Q 2166 2231 1775 2231 
Q 1616 2231 1378 2169 
L 1441 2663 
Q 1497 2656 1531 2656 
Q 1891 2656 2178 2843 
Q 2466 3031 2466 3422 
Q 2466 3731 2256 3934 
Q 2047 4138 1716 4138 
Q 1388 4138 1169 3931 
Q 950 3725 888 3313 
L 325 3413 
Q 428 3978 793 4289 
Q 1159 4600 1703 4600 
Q 2078 4600 2393 4439 
Q 2709 4278 2876 4000 
Q 3044 3722 3044 3409 
Q 3044 3113 2884 2869 
Q 2725 2625 2413 2481 
Q 2819 2388 3044 2092 
Q 3269 1797 3269 1353 
Q 3269 753 2831 336 
Q 2394 -81 1725 -81 
Q 1122 -81 723 278 
Q 325 638 269 1209 
z
" id="ArialMT-33" transform="scale(0.015625)"/>
      </defs>
      <use xlink:href="#ArialMT-73"/>
      <use x="50" xlink:href="#ArialMT-70"/>
      <use x="105.615234" xlink:href="#ArialMT-6c"/>
      <use x="127.832031" xlink:href="#ArialMT-69"/>
      <use x="150.048828" xlink:href="#ArialMT-74"/>
      <use x="177.832031" xlink:href="#ArialMT-74"/>
      <use x="205.615234" xlink:href="#ArialMT-65"/>
      <use x="261.230469" xlink:href="#ArialMT-64"/>
      <use x="316.845703" xlink:href="#ArialMT-5f"/>
      <use x="372.460938" xlink:href="#ArialMT-33"/>
      <use x="428.076172" xlink:href="#ArialMT-73"/>
     </g>
    </g>
    <g id="line2d_15">
     <path d="M 642.244062 116.6903 
L 664.244062 116.6903 
" style="fill:none;stroke:#55a868;stroke-dasharray:1.5,1.5;stroke-dashoffset:0;stroke-width:1.5;"/>
    </g>
    <g id="line2d_16"/>
    <g id="text_19">
     <!-- splitted_1s -->
     <g style="fill:#262626;" transform="translate(673.044062 120.5403)scale(0.11 -0.11)">
      <use xlink:href="#ArialMT-73"/>
      <use x="50" xlink:href="#ArialMT-70"/>
      <use x="105.615234" xlink:href="#ArialMT-6c"/>
      <use x="127.832031" xlink:href="#ArialMT-69"/>
      <use x="150.048828" xlink:href="#ArialMT-74"/>
      <use x="177.832031" xlink:href="#ArialMT-74"/>
      <use x="205.615234" xlink:href="#ArialMT-65"/>
      <use x="261.230469" xlink:href="#ArialMT-64"/>
      <use x="316.845703" xlink:href="#ArialMT-5f"/>
      <use x="372.460938" xlink:href="#ArialMT-31"/>
      <use x="428.076172" xlink:href="#ArialMT-73"/>
     </g>
    </g>
    <g id="line2d_17">
     <path d="M 642.244062 132.384206 
L 664.244062 132.384206 
" style="fill:none;stroke:#c44e52;stroke-dasharray:4.5,1.875,2.25,1.875;stroke-dashoffset:0;stroke-width:1.5;"/>
    </g>
    <g id="line2d_18"/>
    <g id="text_20">
     <!-- overlap_1f_3s -->
     <g style="fill:#262626;" transform="translate(673.044062 136.234206)scale(0.11 -0.11)">
      <use xlink:href="#ArialMT-6f"/>
      <use x="55.615234" xlink:href="#ArialMT-76"/>
      <use x="105.615234" xlink:href="#ArialMT-65"/>
      <use x="161.230469" xlink:href="#ArialMT-72"/>
      <use x="194.53125" xlink:href="#ArialMT-6c"/>
      <use x="216.748047" xlink:href="#ArialMT-61"/>
      <use x="272.363281" xlink:href="#ArialMT-70"/>
      <use x="327.978516" xlink:href="#ArialMT-5f"/>
      <use x="383.59375" xlink:href="#ArialMT-31"/>
      <use x="439.208984" xlink:href="#ArialMT-66"/>
      <use x="466.992188" xlink:href="#ArialMT-5f"/>
      <use x="522.607422" xlink:href="#ArialMT-33"/>
      <use x="578.222656" xlink:href="#ArialMT-73"/>
     </g>
    </g>
    <g id="line2d_19">
     <path d="M 642.244062 148.078113 
L 664.244062 148.078113 
" style="fill:none;stroke:#8172b3;stroke-dasharray:7.5,1.5,1.5,1.5;stroke-dashoffset:0;stroke-width:1.5;"/>
    </g>
    <g id="line2d_20"/>
    <g id="text_21">
     <!-- overlap_10f_3s -->
     <g style="fill:#262626;" transform="translate(673.044062 151.928112)scale(0.11 -0.11)">
      <use xlink:href="#ArialMT-6f"/>
      <use x="55.615234" xlink:href="#ArialMT-76"/>
      <use x="105.615234" xlink:href="#ArialMT-65"/>
      <use x="161.230469" xlink:href="#ArialMT-72"/>
      <use x="194.53125" xlink:href="#ArialMT-6c"/>
      <use x="216.748047" xlink:href="#ArialMT-61"/>
      <use x="272.363281" xlink:href="#ArialMT-70"/>
      <use x="327.978516" xlink:href="#ArialMT-5f"/>
      <use x="383.59375" xlink:href="#ArialMT-31"/>
      <use x="439.208984" xlink:href="#ArialMT-30"/>
      <use x="494.824219" xlink:href="#ArialMT-66"/>
      <use x="522.607422" xlink:href="#ArialMT-5f"/>
      <use x="578.222656" xlink:href="#ArialMT-33"/>
      <use x="633.837891" xlink:href="#ArialMT-73"/>
     </g>
    </g>
   </g>
  </g>
 </g>
 <defs>
  <clipPath id="p264a58abdc">
   <rect height="458.4888" width="652.86" x="105.3" y="71.4528"/>
  </clipPath>
 </defs>
</svg>
