<?xml version="1.0" encoding="utf-8" standalone="no"?>
<!DOCTYPE svg PUBLIC "-//W3C//DTD SVG 1.1//EN"
  "http://www.w3.org/Graphics/SVG/1.1/DTD/svg11.dtd">
<svg height="595.44pt" version="1.1" viewBox="0 0 842.4 595.44" width="842.4pt" xmlns="http://www.w3.org/2000/svg" xmlns:xlink="http://www.w3.org/1999/xlink">
 <metadata>
  <rdf:RDF xmlns:cc="http://creativecommons.org/ns#" xmlns:dc="http://purl.org/dc/elements/1.1/" xmlns:rdf="http://www.w3.org/1999/02/22-rdf-syntax-ns#">
   <cc:Work>
    <dc:type rdf:resource="http://purl.org/dc/dcmitype/StillImage"/>
    <dc:date>2021-06-01T00:54:08.041857</dc:date>
    <dc:format>image/svg+xml</dc:format>
    <dc:creator>
     <cc:Agent>
      <dc:title>Matplotlib v3.4.1, https://matplotlib.org/</dc:title>
     </cc:Agent>
    </dc:creator>
   </cc:Work>
  </rdf:RDF>
 </metadata>
 <defs>
  <style type="text/css">*{stroke-linecap:butt;stroke-linejoin:round;}</style>
 </defs>
 <g id="figure_1">
  <g id="patch_1">
   <path d="M 0 595.44 
L 842.4 595.44 
L 842.4 0 
L 0 0 
z
" style="fill:#ffffff;"/>
  </g>
  <g id="axes_1">
   <g id="patch_2">
    <path d="M 105.3 529.9416 
L 758.16 529.9416 
L 758.16 71.4528 
L 105.3 71.4528 
z
" style="fill:#ffffff;"/>
   </g>
   <g id="matplotlib.axis_1">
    <g id="xtick_1">
     <g id="text_1">
      <!-- 0 -->
      <g style="fill:#262626;" transform="translate(131.916939 547.315194)scale(0.11 -0.11)">
       <defs>
        <path d="M 266 2259 
Q 266 3072 433 3567 
Q 600 4063 929 4331 
Q 1259 4600 1759 4600 
Q 2128 4600 2406 4451 
Q 2684 4303 2865 4023 
Q 3047 3744 3150 3342 
Q 3253 2941 3253 2259 
Q 3253 1453 3087 958 
Q 2922 463 2592 192 
Q 2263 -78 1759 -78 
Q 1097 -78 719 397 
Q 266 969 266 2259 
z
M 844 2259 
Q 844 1131 1108 757 
Q 1372 384 1759 384 
Q 2147 384 2411 759 
Q 2675 1134 2675 2259 
Q 2675 3391 2411 3762 
Q 2147 4134 1753 4134 
Q 1366 4134 1134 3806 
Q 844 3388 844 2259 
z
" id="ArialMT-30" transform="scale(0.015625)"/>
       </defs>
       <use xlink:href="#ArialMT-30"/>
      </g>
     </g>
    </g>
    <g id="xtick_2">
     <g id="text_2">
      <!-- 25 -->
      <g style="fill:#262626;" transform="translate(201.950676 547.315194)scale(0.11 -0.11)">
       <defs>
        <path d="M 3222 541 
L 3222 0 
L 194 0 
Q 188 203 259 391 
Q 375 700 629 1000 
Q 884 1300 1366 1694 
Q 2113 2306 2375 2664 
Q 2638 3022 2638 3341 
Q 2638 3675 2398 3904 
Q 2159 4134 1775 4134 
Q 1369 4134 1125 3890 
Q 881 3647 878 3216 
L 300 3275 
Q 359 3922 746 4261 
Q 1134 4600 1788 4600 
Q 2447 4600 2831 4234 
Q 3216 3869 3216 3328 
Q 3216 3053 3103 2787 
Q 2991 2522 2730 2228 
Q 2469 1934 1863 1422 
Q 1356 997 1212 845 
Q 1069 694 975 541 
L 3222 541 
z
" id="ArialMT-32" transform="scale(0.015625)"/>
        <path d="M 266 1200 
L 856 1250 
Q 922 819 1161 601 
Q 1400 384 1738 384 
Q 2144 384 2425 690 
Q 2706 997 2706 1503 
Q 2706 1984 2436 2262 
Q 2166 2541 1728 2541 
Q 1456 2541 1237 2417 
Q 1019 2294 894 2097 
L 366 2166 
L 809 4519 
L 3088 4519 
L 3088 3981 
L 1259 3981 
L 1013 2750 
Q 1425 3038 1878 3038 
Q 2478 3038 2890 2622 
Q 3303 2206 3303 1553 
Q 3303 931 2941 478 
Q 2500 -78 1738 -78 
Q 1113 -78 717 272 
Q 322 622 266 1200 
z
" id="ArialMT-35" transform="scale(0.015625)"/>
       </defs>
       <use xlink:href="#ArialMT-32"/>
       <use x="55.615234" xlink:href="#ArialMT-35"/>
      </g>
     </g>
    </g>
    <g id="xtick_3">
     <g id="text_3">
      <!-- 50 -->
      <g style="fill:#262626;" transform="translate(275.042928 547.315194)scale(0.11 -0.11)">
       <use xlink:href="#ArialMT-35"/>
       <use x="55.615234" xlink:href="#ArialMT-30"/>
      </g>
     </g>
    </g>
    <g id="xtick_4">
     <g id="text_4">
      <!-- 75 -->
      <g style="fill:#262626;" transform="translate(348.135181 547.315194)scale(0.11 -0.11)">
       <defs>
        <path d="M 303 3981 
L 303 4522 
L 3269 4522 
L 3269 4084 
Q 2831 3619 2401 2847 
Q 1972 2075 1738 1259 
Q 1569 684 1522 0 
L 944 0 
Q 953 541 1156 1306 
Q 1359 2072 1739 2783 
Q 2119 3494 2547 3981 
L 303 3981 
z
" id="ArialMT-37" transform="scale(0.015625)"/>
       </defs>
       <use xlink:href="#ArialMT-37"/>
       <use x="55.615234" xlink:href="#ArialMT-35"/>
      </g>
     </g>
    </g>
    <g id="xtick_5">
     <g id="text_5">
      <!-- 100 -->
      <g style="fill:#262626;" transform="translate(418.168918 547.315194)scale(0.11 -0.11)">
       <defs>
        <path d="M 2384 0 
L 1822 0 
L 1822 3584 
Q 1619 3391 1289 3197 
Q 959 3003 697 2906 
L 697 3450 
Q 1169 3672 1522 3987 
Q 1875 4303 2022 4600 
L 2384 4600 
L 2384 0 
z
" id="ArialMT-31" transform="scale(0.015625)"/>
       </defs>
       <use xlink:href="#ArialMT-31"/>
       <use x="55.615234" xlink:href="#ArialMT-30"/>
       <use x="111.230469" xlink:href="#ArialMT-30"/>
      </g>
     </g>
    </g>
    <g id="xtick_6">
     <g id="text_6">
      <!-- 125 -->
      <g style="fill:#262626;" transform="translate(491.261171 547.315194)scale(0.11 -0.11)">
       <use xlink:href="#ArialMT-31"/>
       <use x="55.615234" xlink:href="#ArialMT-32"/>
       <use x="111.230469" xlink:href="#ArialMT-35"/>
      </g>
     </g>
    </g>
    <g id="xtick_7">
     <g id="text_7">
      <!-- 150 -->
      <g style="fill:#262626;" transform="translate(564.353423 547.315194)scale(0.11 -0.11)">
       <use xlink:href="#ArialMT-31"/>
       <use x="55.615234" xlink:href="#ArialMT-35"/>
       <use x="111.230469" xlink:href="#ArialMT-30"/>
      </g>
     </g>
    </g>
    <g id="xtick_8">
     <g id="text_8">
      <!-- 175 -->
      <g style="fill:#262626;" transform="translate(637.445676 547.315194)scale(0.11 -0.11)">
       <use xlink:href="#ArialMT-31"/>
       <use x="55.615234" xlink:href="#ArialMT-37"/>
       <use x="111.230469" xlink:href="#ArialMT-35"/>
      </g>
     </g>
    </g>
    <g id="xtick_9">
     <g id="text_9">
      <!-- 200 -->
      <g style="fill:#262626;" transform="translate(710.537928 547.315194)scale(0.11 -0.11)">
       <use xlink:href="#ArialMT-32"/>
       <use x="55.615234" xlink:href="#ArialMT-30"/>
       <use x="111.230469" xlink:href="#ArialMT-30"/>
      </g>
     </g>
    </g>
   </g>
   <g id="matplotlib.axis_2">
    <g id="ytick_1">
     <g id="text_10">
      <!-- −25 -->
      <g style="fill:#262626;" transform="translate(77.14125 533.878397)scale(0.11 -0.11)">
       <defs>
        <path d="M 3381 1997 
L 356 1997 
L 356 2522 
L 3381 2522 
L 3381 1997 
z
" id="ArialMT-2212" transform="scale(0.015625)"/>
       </defs>
       <use xlink:href="#ArialMT-2212"/>
       <use x="58.398438" xlink:href="#ArialMT-32"/>
       <use x="114.013672" xlink:href="#ArialMT-35"/>
      </g>
     </g>
    </g>
    <g id="ytick_2">
     <g id="text_11">
      <!-- −20 -->
      <g style="fill:#262626;" transform="translate(77.14125 442.180637)scale(0.11 -0.11)">
       <use xlink:href="#ArialMT-2212"/>
       <use x="58.398438" xlink:href="#ArialMT-32"/>
       <use x="114.013672" xlink:href="#ArialMT-30"/>
      </g>
     </g>
    </g>
    <g id="ytick_3">
     <g id="text_12">
      <!-- −15 -->
      <g style="fill:#262626;" transform="translate(77.14125 350.482877)scale(0.11 -0.11)">
       <use xlink:href="#ArialMT-2212"/>
       <use x="58.398438" xlink:href="#ArialMT-31"/>
       <use x="114.013672" xlink:href="#ArialMT-35"/>
      </g>
     </g>
    </g>
    <g id="ytick_4">
     <g id="text_13">
      <!-- −10 -->
      <g style="fill:#262626;" transform="translate(77.14125 258.785117)scale(0.11 -0.11)">
       <use xlink:href="#ArialMT-2212"/>
       <use x="58.398438" xlink:href="#ArialMT-31"/>
       <use x="114.013672" xlink:href="#ArialMT-30"/>
      </g>
     </g>
    </g>
    <g id="ytick_5">
     <g id="text_14">
      <!-- −5 -->
      <g style="fill:#262626;" transform="translate(83.258281 167.087357)scale(0.11 -0.11)">
       <use xlink:href="#ArialMT-2212"/>
       <use x="58.398438" xlink:href="#ArialMT-35"/>
      </g>
     </g>
    </g>
    <g id="ytick_6">
     <g id="text_15">
      <!-- 0 -->
      <g style="fill:#262626;" transform="translate(89.682969 75.389597)scale(0.11 -0.11)">
       <use xlink:href="#ArialMT-30"/>
      </g>
     </g>
    </g>
   </g>
   <g id="line2d_1">
    <path clip-path="url(#pd277ef4e83)" d="M 134.975455 334.170657 
L 137.899145 335.183168 
L 140.822835 342.704061 
L 143.746525 341.527354 
L 146.670215 339.617345 
L 149.593905 344.498653 
L 152.517595 345.671477 
L 155.441285 349.375886 
L 158.364975 349.870117 
L 161.288665 350.140372 
L 164.212356 348.401642 
L 167.136046 350.3527 
L 170.059736 373.276335 
L 172.983426 393.26582 
L 175.907116 403.222015 
L 178.830806 446.418752 
L 181.754496 497.032737 
L 184.678186 434.740076 
L 187.601876 416.95688 
L 190.525567 478.708191 
L 193.449257 406.924674 
L 196.372947 368.543692 
L 199.296637 417.439218 
L 202.220327 372.183807 
L 205.144017 377.233159 
L 208.067707 460.330861 
L 210.991397 465.309203 
L 213.915087 427.923295 
L 216.838777 399.077279 
L 219.762468 422.72353 
L 222.686158 436.332432 
L 225.609848 432.735377 
L 228.533538 441.317875 
L 231.457228 502.451966 
L 234.380918 380.199946 
L 237.304608 384.155195 
L 240.228298 427.444489 
L 243.151988 430.145709 
L 246.075678 396.377844 
L 248.999369 341.872343 
L 251.923059 370.973572 
L 254.846749 393.254382 
L 257.770439 433.771622 
L 260.694129 401.170442 
L 263.617819 504.460932 
L 266.541509 429.522646 
L 269.465199 422.965311 
L 272.388889 427.102001 
L 275.312579 457.270957 
L 278.23627 472.300884 
L 281.15996 465.814453 
L 284.08365 428.365231 
L 287.00734 441.383323 
L 289.93103 497.557995 
L 292.85472 388.637557 
L 295.77841 338.030079 
L 298.7021 375.10666 
L 301.62579 318.477283 
L 304.549481 370.878812 
L 307.473171 366.279932 
L 310.396861 382.649694 
L 313.320551 323.079329 
L 316.244241 414.817193 
L 322.091621 460.919993 
L 325.015311 424.543395 
L 327.939001 423.211779 
L 330.862691 378.643829 
L 333.786382 370.135733 
L 336.710072 443.319531 
L 339.633762 487.100958 
L 342.557452 436.307701 
L 345.481142 427.863374 
L 348.404832 423.917394 
L 351.328522 389.832786 
L 354.252212 432.091607 
L 357.175902 462.320309 
L 360.099592 417.475107 
L 363.023283 463.19799 
L 365.946973 370.357961 
L 368.870663 425.68339 
L 371.794353 433.696415 
L 374.718043 466.347197 
L 377.641733 486.067232 
L 380.565423 502.876797 
L 383.489113 454.536892 
L 386.412803 388.502115 
L 389.336494 398.511304 
L 392.260184 411.649097 
L 395.183874 419.593526 
L 398.107564 360.020153 
L 401.031254 354.106815 
L 403.954944 365.992537 
L 406.878634 383.949373 
L 409.802324 367.696793 
L 412.726014 357.366716 
L 415.649704 451.089656 
L 418.573395 449.208016 
L 424.420775 523.899064 
L 427.344465 398.552195 
L 430.268155 461.748212 
L 433.191845 459.230917 
L 436.115535 342.55746 
L 439.039225 333.833048 
L 441.962915 385.358399 
L 444.886605 408.205674 
L 447.810296 380.53208 
L 450.733986 346.432413 
L 453.657676 388.399868 
L 456.581366 350.267454 
L 459.505056 372.065785 
L 462.428746 362.449193 
L 465.352436 443.338945 
L 468.276126 433.99357 
L 474.123506 315.676756 
L 477.047197 332.080659 
L 479.970887 345.098244 
L 482.894577 431.194197 
L 485.818267 468.60634 
L 488.741957 511.551782 
L 491.665647 462.759097 
L 494.589337 354.445718 
L 497.513027 358.270037 
L 500.436717 340.54412 
L 503.360408 321.677404 
L 506.284098 360.529198 
L 509.207788 464.974725 
L 512.131478 479.123997 
L 515.055168 484.724247 
L 517.978858 366.50856 
L 520.902548 393.891926 
L 523.826238 458.760542 
L 526.749928 449.856893 
L 529.673618 462.353924 
L 535.520999 372.964979 
L 538.444689 366.149491 
L 541.368379 514.810826 
L 544.292069 435.775797 
L 547.215759 385.263709 
L 550.139449 471.011315 
L 553.063139 376.118209 
L 555.986829 437.502685 
L 558.910519 370.484693 
L 561.83421 369.968529 
L 564.7579 419.491035 
L 567.68159 396.387638 
L 570.60528 448.762267 
L 573.52897 464.35649 
L 576.45266 436.935486 
L 579.37635 429.395599 
L 582.30004 437.662509 
L 585.22373 380.321291 
L 588.147421 388.846632 
L 591.071111 411.483187 
L 593.994801 436.242674 
L 596.918491 353.659754 
L 599.842181 406.258621 
L 602.765871 400.574874 
L 605.689561 342.549134 
L 608.613251 403.017382 
L 611.536941 441.067454 
L 614.460631 418.701608 
L 617.384322 331.664993 
L 620.308012 390.346256 
L 623.231702 440.824169 
L 626.155392 535.110163 
L 629.079082 539.112076 
L 632.002772 487.754453 
L 634.926462 427.630688 
L 637.850152 433.19169 
L 640.773842 418.2978 
L 643.697532 334.282173 
L 646.621223 277.679871 
L 649.544913 406.154696 
L 652.468603 493.412 
L 655.392293 455.154147 
L 658.315983 381.033167 
L 661.239673 466.083448 
L 664.163363 427.038128 
L 667.087053 491.498913 
L 670.010743 484.181219 
L 672.934433 558.962165 
L 675.858124 578.1589 
L 678.781814 459.233226 
L 681.705504 489.113808 
L 684.629194 545.868762 
L 687.552884 443.744642 
L 690.476574 477.759431 
L 693.400264 353.561635 
L 696.323954 376.853557 
L 699.247644 384.043189 
L 702.171335 369.291948 
L 708.018715 354.750148 
L 710.942405 353.275727 
L 713.866095 353.272998 
L 716.789785 355.082527 
L 719.713475 354.757669 
L 722.637165 349.757219 
L 725.560855 354.385412 
L 728.484545 349.564917 
L 728.484545 349.564917 
" style="fill:none;stroke:#4c72b0;stroke-linecap:round;stroke-width:1.5;"/>
   </g>
   <g id="line2d_2">
    <path clip-path="url(#pd277ef4e83)" d="M 134.975455 305.940183 
L 137.899145 309.051577 
L 140.822835 312.463343 
L 143.746525 311.491846 
L 146.670215 312.928384 
L 149.593905 314.56847 
L 152.517595 314.649011 
L 155.441285 318.357092 
L 158.364975 319.368012 
L 161.288665 322.167979 
L 164.212356 320.408367 
L 167.136046 322.115247 
L 170.059736 340.450462 
L 172.983426 352.1287 
L 175.907116 365.697271 
L 178.830806 413.939652 
L 181.754496 459.996068 
L 184.678186 413.118394 
L 187.601876 375.559545 
L 190.525567 464.166269 
L 193.449257 402.366126 
L 196.372947 368.782465 
L 199.296637 400.274222 
L 202.220327 359.350147 
L 205.144017 396.658313 
L 208.067707 468.975028 
L 210.991397 478.693849 
L 213.915087 404.371665 
L 216.838777 389.655193 
L 219.762468 401.434121 
L 222.686158 425.140747 
L 225.609848 417.231892 
L 228.533538 429.000012 
L 231.457228 472.494918 
L 234.380918 363.49128 
L 237.304608 372.435943 
L 240.228298 399.732383 
L 243.151988 406.902882 
L 246.075678 382.446811 
L 248.999369 350.951084 
L 251.923059 348.829534 
L 254.846749 381.078921 
L 257.770439 421.288513 
L 260.694129 406.974276 
L 263.617819 511.341762 
L 266.541509 446.109879 
L 269.465199 433.556601 
L 272.388889 444.060616 
L 278.23627 466.319598 
L 281.15996 480.464568 
L 284.08365 438.167374 
L 287.00734 450.651777 
L 289.93103 517.394828 
L 292.85472 406.329071 
L 295.77841 313.525893 
L 298.7021 357.675571 
L 301.62579 300.920372 
L 304.549481 352.489466 
L 307.473171 350.265687 
L 310.396861 359.807352 
L 313.320551 323.612528 
L 316.244241 416.828364 
L 319.167931 446.10876 
L 322.091621 449.851157 
L 325.015311 425.195526 
L 327.939001 429.159975 
L 330.862691 376.858839 
L 333.786382 344.476126 
L 336.710072 455.980583 
L 339.633762 477.894033 
L 342.557452 395.383644 
L 345.481142 372.813376 
L 348.404832 415.163774 
L 351.328522 427.188891 
L 354.252212 379.613647 
L 357.175902 365.469482 
L 360.099592 295.506582 
L 363.023283 318.388819 
L 365.946973 301.160544 
L 368.870663 335.856584 
L 371.794353 356.516879 
L 374.718043 321.151183 
L 377.641733 365.625842 
L 380.565423 444.991501 
L 383.489113 371.677193 
L 386.412803 379.575519 
L 392.260184 414.296272 
L 395.183874 412.694017 
L 398.107564 346.479513 
L 401.031254 337.898344 
L 403.954944 355.531494 
L 406.878634 316.289936 
L 412.726014 376.407528 
L 415.649704 443.814182 
L 418.573395 439.859178 
L 421.497085 472.395575 
L 424.420775 475.464923 
L 427.344465 360.273547 
L 430.268155 427.431302 
L 433.191845 418.95154 
L 436.115535 309.457991 
L 439.039225 339.789779 
L 441.962915 373.458336 
L 444.886605 351.106535 
L 447.810296 339.136196 
L 450.733986 379.720546 
L 453.657676 374.040297 
L 456.581366 345.139328 
L 459.505056 337.63192 
L 462.428746 319.284725 
L 465.352436 438.285326 
L 468.276126 421.28554 
L 471.199816 373.308587 
L 474.123506 282.801473 
L 477.047197 322.949466 
L 479.970887 320.184583 
L 482.894577 414.536619 
L 485.818267 468.579545 
L 488.741957 507.55711 
L 491.665647 465.395743 
L 494.589337 342.253222 
L 497.513027 371.136963 
L 500.436717 361.379735 
L 503.360408 337.361228 
L 506.284098 379.518747 
L 509.207788 456.512838 
L 512.131478 473.819223 
L 515.055168 478.3699 
L 517.978858 349.379646 
L 520.902548 375.437884 
L 523.826238 436.065221 
L 526.749928 440.760715 
L 529.673618 446.316261 
L 532.597309 389.918941 
L 535.520999 349.015837 
L 538.444689 337.351276 
L 541.368379 458.236578 
L 544.292069 422.37429 
L 547.215759 338.793306 
L 550.139449 426.075096 
L 553.063139 372.312149 
L 555.986829 327.663622 
L 558.910519 276.599743 
L 561.83421 247.362687 
L 564.7579 284.23593 
L 567.68159 324.49334 
L 570.60528 457.175077 
L 573.52897 337.895773 
L 576.45266 349.010275 
L 579.37635 336.915618 
L 582.30004 326.039435 
L 585.22373 384.287699 
L 588.147421 350.626575 
L 591.071111 412.445275 
L 593.994801 446.463456 
L 596.918491 335.452828 
L 599.842181 421.446483 
L 602.765871 393.771455 
L 605.689561 338.296171 
L 608.613251 430.719484 
L 611.536941 444.51483 
L 614.460631 441.496903 
L 617.384322 397.19368 
L 620.308012 412.537622 
L 623.231702 449.861581 
L 626.155392 560.140254 
L 629.079082 540.203134 
L 632.002772 512.940939 
L 634.926462 454.225466 
L 637.850152 424.13462 
L 640.773842 421.213446 
L 643.697532 307.088538 
L 646.621223 270.191282 
L 649.544913 426.975654 
L 652.468603 494.953006 
L 655.392293 467.623964 
L 658.315983 358.012095 
L 661.239673 460.342964 
L 664.163363 420.259159 
L 667.087053 491.126412 
L 670.010743 483.468993 
L 672.934433 547.942651 
L 675.858124 570.624471 
L 678.781814 468.890727 
L 681.705504 503.126134 
L 684.629194 557.171403 
L 687.552884 432.333703 
L 690.476574 465.852546 
L 693.400264 357.584798 
L 696.323954 377.674081 
L 699.247644 378.363255 
L 702.171335 353.136122 
L 705.095025 351.227687 
L 708.018715 350.745752 
L 710.942405 347.036848 
L 713.866095 349.31126 
L 716.789785 349.736126 
L 719.713475 351.761901 
L 722.637165 343.240215 
L 725.560855 349.529203 
L 728.484545 339.154316 
L 728.484545 339.154316 
" style="fill:none;stroke:#dd8452;stroke-dasharray:6,2.25;stroke-dashoffset:0;stroke-width:1.5;"/>
   </g>
   <g id="line2d_3">
    <path clip-path="url(#pd277ef4e83)" d="M 134.975455 304.130741 
L 137.899145 308.153117 
L 140.822835 315.346808 
L 143.746525 310.773218 
L 146.670215 317.406863 
L 149.593905 320.847837 
L 152.517595 322.193917 
L 155.441285 347.278594 
L 158.364975 343.914628 
L 161.288665 330.944476 
L 164.212356 328.481155 
L 167.136046 322.599632 
L 170.059736 325.648919 
L 172.983426 343.606525 
L 175.907116 354.369811 
L 178.830806 385.733734 
L 181.754496 442.396306 
L 184.678186 380.086751 
L 187.601876 409.983493 
L 190.525567 416.287644 
L 193.449257 413.658518 
L 196.372947 367.576078 
L 199.296637 341.833235 
L 202.220327 304.111625 
L 205.144017 310.396362 
L 208.067707 357.186167 
L 210.991397 414.340102 
L 213.915087 373.743632 
L 216.838777 348.515554 
L 219.762468 400.738161 
L 222.686158 406.19954 
L 225.609848 342.424536 
L 228.533538 365.174286 
L 231.457228 404.210092 
L 234.380918 318.775382 
L 237.304608 339.728039 
L 240.228298 417.254489 
L 243.151988 414.804041 
L 246.075678 351.273861 
L 248.999369 364.720649 
L 251.923059 324.426843 
L 254.846749 365.287866 
L 257.770439 430.895433 
L 260.694129 380.673784 
L 263.617819 484.95438 
L 266.541509 446.294573 
L 269.465199 432.169647 
L 272.388889 359.876508 
L 275.312579 370.98529 
L 278.23627 371.373603 
L 281.15996 301.424537 
L 284.08365 259.693406 
L 287.00734 278.116088 
L 289.93103 346.438849 
L 292.85472 265.64454 
L 295.77841 260.50954 
L 298.7021 312.210106 
L 301.62579 299.19831 
L 304.549481 347.850096 
L 307.473171 354.547072 
L 310.396861 383.540808 
L 313.320551 358.259508 
L 316.244241 441.914493 
L 319.167931 482.593096 
L 322.091621 483.011701 
L 325.015311 475.254064 
L 327.939001 480.840357 
L 333.786382 359.677699 
L 336.710072 464.36485 
L 339.633762 486.318282 
L 342.557452 418.923871 
L 345.481142 427.422557 
L 348.404832 430.548608 
L 351.328522 459.121045 
L 354.252212 442.474416 
L 357.175902 440.641644 
L 360.099592 361.864591 
L 363.023283 413.939337 
L 365.946973 322.865811 
L 368.870663 391.668987 
L 371.794353 345.193476 
L 374.718043 413.81187 
L 377.641733 391.052466 
L 380.565423 424.927894 
L 383.489113 430.069662 
L 386.412803 394.351247 
L 389.336494 430.088552 
L 392.260184 430.846846 
L 395.183874 410.381145 
L 398.107564 367.13652 
L 401.031254 357.352724 
L 403.954944 361.802659 
L 406.878634 348.671705 
L 409.802324 393.517675 
L 412.726014 404.961671 
L 415.649704 368.859561 
L 418.573395 355.924704 
L 421.497085 299.18584 
L 424.420775 196.525583 
L 427.344465 151.135176 
L 430.268155 138.889463 
L 433.191845 197.878948 
L 436.115535 220.629931 
L 441.962915 310.039584 
L 444.886605 278.229213 
L 447.810296 381.104771 
L 450.733986 351.674294 
L 453.657676 324.346966 
L 456.581366 372.749153 
L 459.505056 363.111468 
L 462.428746 325.622054 
L 465.352436 417.335118 
L 468.276126 416.781631 
L 471.199816 310.570929 
L 474.123506 247.380562 
L 477.047197 219.834575 
L 479.970887 297.20881 
L 485.818267 429.563748 
L 488.741957 418.778109 
L 491.665647 349.581795 
L 494.589337 138.66205 
L 497.513027 71.605217 
L 500.436717 342.991595 
L 503.360408 409.475445 
L 506.284098 494.062137 
L 509.207788 480.843575 
L 512.131478 424.281255 
L 515.055168 412.386544 
L 517.978858 385.663914 
L 520.902548 405.672953 
L 523.826238 493.417352 
L 526.749928 519.030419 
L 529.673618 421.023226 
L 532.597309 381.701739 
L 535.520999 405.044923 
L 538.444689 370.266348 
L 541.368379 451.565732 
L 544.292069 371.413934 
L 547.215759 294.707851 
L 550.139449 362.391494 
L 553.063139 361.214542 
L 555.986829 333.88585 
L 558.910519 375.779148 
L 561.83421 380.537467 
L 564.7579 371.867659 
L 567.68159 338.852859 
L 570.60528 347.034924 
L 573.52897 427.943688 
L 576.45266 366.35206 
L 579.37635 402.010205 
L 582.30004 455.347971 
L 585.22373 447.562141 
L 588.147421 429.886438 
L 591.071111 478.468404 
L 593.994801 453.867166 
L 596.918491 353.491063 
L 599.842181 458.356769 
L 602.765871 461.663211 
L 605.689561 352.393131 
L 608.613251 426.607385 
L 611.536941 434.673789 
L 614.460631 421.05901 
L 617.384322 379.197666 
L 620.308012 364.216956 
L 623.231702 425.38008 
L 626.155392 559.960178 
L 629.079082 518.794549 
L 632.002772 511.551257 
L 634.926462 473.97114 
L 637.850152 401.482288 
L 640.773842 384.527906 
L 643.697532 370.060876 
L 646.621223 350.825331 
L 649.544913 459.169283 
L 652.468603 494.630596 
L 655.392293 430.541716 
L 658.315983 352.373227 
L 661.239673 448.369127 
L 664.163363 410.52876 
L 667.087053 476.34166 
L 670.010743 478.774583 
L 672.934433 542.246276 
L 675.858124 569.445332 
L 678.781814 480.20827 
L 681.705504 505.347883 
L 684.629194 564.435788 
L 687.552884 445.176965 
L 690.476574 446.680962 
L 693.400264 344.508797 
L 696.323954 395.428663 
L 699.247644 389.278984 
L 702.171335 365.701714 
L 705.095025 363.224086 
L 708.018715 365.444506 
L 710.942405 369.995079 
L 713.866095 372.428702 
L 716.789785 370.457688 
L 719.713475 368.907273 
L 722.637165 367.497233 
L 725.560855 367.022205 
L 728.484545 351.865179 
L 728.484545 351.865179 
" style="fill:none;stroke:#55a868;stroke-dasharray:1.5,1.5;stroke-dashoffset:0;stroke-width:1.5;"/>
   </g>
   <g id="line2d_4">
    <path clip-path="url(#pd277ef4e83)" d="M 134.975455 306.40274 
L 137.899145 309.357966 
L 140.822835 312.973473 
L 143.746525 311.872007 
L 149.593905 315.027773 
L 152.517595 315.200557 
L 155.441285 319.005148 
L 158.364975 320.287494 
L 161.288665 323.188309 
L 164.212356 321.485871 
L 167.136046 323.267328 
L 170.059736 341.936671 
L 172.983426 353.54864 
L 175.907116 367.254227 
L 181.754496 462.931338 
L 184.678186 416.824551 
L 187.601876 377.695453 
L 190.525567 465.206957 
L 193.449257 404.24997 
L 196.372947 367.988631 
L 199.296637 400.661624 
L 202.220327 360.730542 
L 205.144017 391.696586 
L 208.067707 470.502077 
L 210.991397 473.037142 
L 213.915087 413.308614 
L 216.838777 385.481424 
L 219.762468 403.610152 
L 222.686158 426.32055 
L 225.609848 416.708872 
L 228.533538 428.933445 
L 231.457228 473.918006 
L 234.380918 363.663241 
L 237.304608 374.042046 
L 240.228298 403.732686 
L 243.151988 410.31073 
L 246.075678 385.444765 
L 248.999369 351.014485 
L 251.923059 350.389499 
L 254.846749 383.700491 
L 257.770439 421.094375 
L 260.694129 406.663059 
L 263.617819 511.847852 
L 266.541509 442.322778 
L 269.465199 435.3177 
L 272.388889 448.012857 
L 275.312579 470.421378 
L 278.23627 481.784395 
L 281.15996 491.187382 
L 284.08365 449.68056 
L 287.00734 473.393342 
L 289.93103 525.706721 
L 292.85472 403.589479 
L 295.77841 317.547709 
L 298.7021 357.232725 
L 301.62579 302.011186 
L 304.549481 357.539289 
L 307.473171 353.545632 
L 310.396861 363.892395 
L 313.320551 329.887838 
L 316.244241 418.113701 
L 319.167931 457.004061 
L 322.091621 472.384941 
L 325.015311 428.451561 
L 327.939001 431.456721 
L 330.862691 403.173253 
L 333.786382 347.355725 
L 336.710072 463.961462 
L 339.633762 499.220521 
L 342.557452 420.279658 
L 345.481142 370.506205 
L 348.404832 341.607965 
L 351.328522 392.252172 
L 354.252212 419.955918 
L 357.175902 365.722841 
L 360.099592 318.144519 
L 363.023283 437.780251 
L 365.946973 300.471982 
L 368.870663 341.889046 
L 371.794353 369.32322 
L 374.718043 344.1509 
L 377.641733 378.238482 
L 380.565423 456.079052 
L 383.489113 382.337184 
L 386.412803 385.862565 
L 389.336494 401.738027 
L 392.260184 414.211866 
L 395.183874 412.009775 
L 398.107564 343.740813 
L 401.031254 340.581479 
L 403.954944 355.949452 
L 406.878634 318.535892 
L 409.802324 349.859728 
L 412.726014 374.211244 
L 415.649704 442.481412 
L 418.573395 438.163176 
L 421.497085 472.189018 
L 424.420775 472.572748 
L 427.344465 359.178361 
L 430.268155 425.453258 
L 433.191845 418.133465 
L 436.115535 309.17691 
L 439.039225 341.241113 
L 441.962915 376.094702 
L 444.886605 354.441293 
L 447.810296 338.274851 
L 450.733986 373.262273 
L 453.657676 377.926426 
L 456.581366 348.270118 
L 459.505056 336.03722 
L 462.428746 317.937456 
L 465.352436 441.933662 
L 468.276126 415.840356 
L 471.199816 366.724212 
L 474.123506 285.670526 
L 477.047197 329.752815 
L 479.970887 317.725775 
L 482.894577 413.974037 
L 485.818267 468.602842 
L 488.741957 510.586441 
L 491.665647 468.143136 
L 494.589337 344.14198 
L 497.513027 372.869204 
L 500.436717 359.421349 
L 503.360408 335.995104 
L 506.284098 378.831706 
L 509.207788 456.207218 
L 512.131478 474.457816 
L 515.055168 479.662688 
L 517.978858 350.103363 
L 520.902548 375.228005 
L 523.826238 434.561469 
L 526.749928 439.386214 
L 529.673618 446.576302 
L 532.597309 390.251146 
L 535.520999 348.869376 
L 538.444689 340.617036 
L 541.368379 459.682928 
L 544.292069 425.556833 
L 547.215759 341.754443 
L 550.139449 428.770368 
L 553.063139 372.592233 
L 555.986829 330.211297 
L 558.910519 275.49032 
L 561.83421 247.813089 
L 564.7579 284.290236 
L 567.68159 324.797245 
L 570.60528 450.419126 
L 573.52897 298.262563 
L 576.45266 414.235477 
L 579.37635 346.957391 
L 582.30004 376.712133 
L 585.22373 437.783749 
L 588.147421 369.833961 
L 591.071111 379.019408 
L 593.994801 460.600416 
L 596.918491 369.196697 
L 599.842181 418.884204 
L 602.765871 403.755179 
L 605.689561 347.877346 
L 608.613251 433.524349 
L 611.536941 443.04256 
L 614.460631 454.489249 
L 617.384322 397.999093 
L 620.308012 412.980188 
L 623.231702 451.42186 
L 626.155392 554.517232 
L 629.079082 539.147125 
L 632.002772 512.195342 
L 634.926462 458.437328 
L 637.850152 424.547103 
L 640.773842 426.149358 
L 643.697532 308.39691 
L 646.621223 272.152869 
L 649.544913 422.310732 
L 652.468603 495.862588 
L 655.392293 468.194207 
L 658.315983 358.614082 
L 661.239673 461.608292 
L 664.163363 421.697079 
L 667.087053 492.060026 
L 670.010743 486.935888 
L 672.934433 549.731734 
L 675.858124 569.37114 
L 678.781814 468.255911 
L 681.705504 500.377796 
L 684.629194 555.1213 
L 687.552884 431.056971 
L 690.476574 464.805142 
L 693.400264 358.19964 
L 696.323954 379.143377 
L 699.247644 381.327139 
L 702.171335 353.290558 
L 705.095025 352.523221 
L 708.018715 352.079868 
L 710.942405 349.388723 
L 713.866095 351.58889 
L 716.789785 351.483233 
L 719.713475 353.175527 
L 722.637165 344.320727 
L 725.560855 350.825366 
L 728.484545 340.866338 
L 728.484545 340.866338 
" style="fill:none;stroke:#c44e52;stroke-dasharray:4.5,1.875,2.25,1.875;stroke-dashoffset:0;stroke-width:1.5;"/>
   </g>
   <g id="line2d_5">
    <path clip-path="url(#pd277ef4e83)" d="M 134.975455 309.065761 
L 137.899145 312.39884 
L 140.822835 315.983425 
L 143.746525 314.804094 
L 149.593905 318.498411 
L 152.517595 318.878975 
L 155.441285 322.265556 
L 158.364975 323.447388 
L 161.288665 327.208551 
L 164.212356 325.070176 
L 167.136046 325.886607 
L 170.059736 342.773968 
L 172.983426 353.293182 
L 175.907116 365.395254 
L 178.830806 414.038575 
L 181.754496 469.232935 
L 184.678186 416.268965 
L 187.601876 397.686897 
L 190.525567 468.45848 
L 193.449257 405.956255 
L 196.372947 372.200913 
L 199.296637 413.012824 
L 202.220327 361.24424 
L 205.144017 388.392278 
L 208.067707 467.515561 
L 210.991397 478.557218 
L 213.915087 400.515968 
L 216.838777 385.040082 
L 219.762468 402.989503 
L 222.686158 428.344733 
L 225.609848 427.043095 
L 228.533538 436.757613 
L 231.457228 482.699855 
L 234.380918 367.868859 
L 237.304608 376.771459 
L 240.228298 404.377681 
L 243.151988 410.826229 
L 246.075678 384.620708 
L 248.999369 348.641709 
L 251.923059 360.457507 
L 254.846749 389.767653 
L 257.770439 429.395599 
L 260.694129 408.810232 
L 263.617819 511.320774 
L 266.541509 441.61412 
L 269.465199 434.043346 
L 272.388889 444.93361 
L 275.312579 468.488982 
L 278.23627 484.287278 
L 281.15996 496.123539 
L 284.08365 452.787511 
L 287.00734 467.77826 
L 289.93103 526.110984 
L 292.85472 411.183829 
L 295.77841 323.319781 
L 298.7021 358.742354 
L 301.62579 300.999846 
L 304.549481 360.693306 
L 307.473171 359.526848 
L 310.396861 383.539479 
L 313.320551 350.316391 
L 316.244241 425.338768 
L 319.167931 460.723126 
L 322.091621 476.022573 
L 325.015311 433.538201 
L 327.939001 413.227811 
L 330.862691 394.639342 
L 333.786382 374.624181 
L 336.710072 447.310145 
L 339.633762 492.160559 
L 342.557452 428.447189 
L 345.481142 408.817123 
L 348.404832 391.211659 
L 351.328522 393.002981 
L 354.252212 431.760872 
L 357.175902 477.275134 
L 360.099592 454.03542 
L 363.023283 497.486881 
L 365.946973 358.06077 
L 368.870663 423.426801 
L 371.794353 388.04073 
L 374.718043 397.591052 
L 377.641733 452.686069 
L 380.565423 490.531264 
L 383.489113 425.067954 
L 386.412803 376.1853 
L 389.336494 400.001763 
L 392.260184 415.75483 
L 395.183874 421.956595 
L 398.107564 340.662055 
L 401.031254 373.546765 
L 403.954944 380.821714 
L 406.878634 354.998575 
L 409.802324 372.017758 
L 412.726014 380.814158 
L 415.649704 460.046159 
L 418.573395 433.544463 
L 421.497085 481.386918 
L 424.420775 483.990789 
L 427.344465 363.366524 
L 430.268155 424.558541 
L 433.191845 426.774204 
L 436.115535 304.982153 
L 439.039225 349.693048 
L 441.962915 384.169747 
L 444.886605 361.875925 
L 447.810296 341.682262 
L 450.733986 368.232266 
L 453.657676 356.787186 
L 456.581366 333.447779 
L 459.505056 319.942102 
L 462.428746 313.10839 
L 465.352436 432.544597 
L 468.276126 415.132992 
L 471.199816 368.802439 
L 474.123506 289.637721 
L 477.047197 323.275304 
L 479.970887 318.700263 
L 482.894577 422.651996 
L 485.818267 477.277792 
L 488.741957 514.291164 
L 491.665647 477.382487 
L 494.589337 339.243602 
L 497.513027 370.147102 
L 500.436717 351.547561 
L 503.360408 336.448881 
L 506.284098 379.256537 
L 509.207788 467.398309 
L 512.131478 485.371516 
L 515.055168 480.819824 
L 517.978858 348.221391 
L 520.902548 377.948253 
L 523.826238 426.866656 
L 526.749928 428.95954 
L 529.673618 441.668899 
L 532.597309 383.041714 
L 535.520999 339.186917 
L 538.444689 328.2385 
L 541.368379 455.40156 
L 544.292069 423.646999 
L 547.215759 339.641411 
L 550.139449 433.360328 
L 553.063139 334.141588 
L 555.986829 348.801498 
L 558.910519 292.267547 
L 561.83421 293.417424 
L 564.7579 354.999887 
L 567.68159 371.964343 
L 570.60528 412.169143 
L 573.52897 419.350801 
L 576.45266 432.028153 
L 579.37635 373.983769 
L 582.30004 364.986199 
L 585.22373 383.912434 
L 588.147421 380.542679 
L 591.071111 372.045322 
L 593.994801 410.551777 
L 596.918491 354.23332 
L 599.842181 399.758233 
L 602.765871 384.77413 
L 605.689561 325.610406 
L 608.613251 427.195922 
L 611.536941 429.767261 
L 614.460631 434.660497 
L 617.384322 370.812769 
L 620.308012 405.07644 
L 623.231702 444.257518 
L 626.155392 549.341323 
L 629.079082 530.973438 
L 632.002772 503.377464 
L 634.926462 455.427551 
L 637.850152 400.871714 
L 640.773842 416.568183 
L 643.697532 294.541399 
L 646.621223 253.514868 
L 649.544913 402.983347 
L 652.468603 483.807039 
L 655.392293 451.160035 
L 658.315983 362.295107 
L 661.239673 450.187279 
L 664.163363 419.316835 
L 667.087053 495.119615 
L 670.010743 484.961691 
L 672.934433 551.434032 
L 675.858124 563.885589 
L 678.781814 447.886859 
L 684.629194 535.470806 
L 687.552884 415.819578 
L 690.476574 434.028795 
L 693.400264 341.804919 
L 696.323954 367.687698 
L 699.247644 372.084394 
L 702.171335 345.254901 
L 705.095025 344.892527 
L 710.942405 343.673791 
L 713.866095 344.393066 
L 716.789785 343.093317 
L 719.713475 345.753627 
L 722.637165 339.781856 
L 725.560855 345.086403 
L 728.484545 338.169509 
L 728.484545 338.169509 
" style="fill:none;stroke:#8172b3;stroke-dasharray:7.5,1.5,1.5,1.5;stroke-dashoffset:0;stroke-width:1.5;"/>
   </g>
   <g id="line2d_6"/>
   <g id="line2d_7"/>
   <g id="line2d_8"/>
   <g id="line2d_9"/>
   <g id="line2d_10"/>
   <g id="patch_3">
    <path d="M 105.3 529.9416 
L 105.3 71.4528 
" style="fill:none;stroke:#262626;stroke-linecap:square;stroke-linejoin:miter;stroke-width:1.25;"/>
   </g>
   <g id="patch_4">
    <path d="M 758.16 529.9416 
L 758.16 71.4528 
" style="fill:none;stroke:#262626;stroke-linecap:square;stroke-linejoin:miter;stroke-width:1.25;"/>
   </g>
   <g id="patch_5">
    <path d="M 105.3 529.9416 
L 758.16 529.9416 
" style="fill:none;stroke:#262626;stroke-linecap:square;stroke-linejoin:miter;stroke-width:1.25;"/>
   </g>
   <g id="patch_6">
    <path d="M 105.3 71.4528 
L 758.16 71.4528 
" style="fill:none;stroke:#262626;stroke-linecap:square;stroke-linejoin:miter;stroke-width:1.25;"/>
   </g>
   <g id="text_16">
    <!-- Activations for &gt;.&lt; -->
    <g style="fill:#262626;" transform="translate(383.7075 65.4528)scale(0.12 -0.12)">
     <defs>
      <path d="M -9 0 
L 1750 4581 
L 2403 4581 
L 4278 0 
L 3588 0 
L 3053 1388 
L 1138 1388 
L 634 0 
L -9 0 
z
M 1313 1881 
L 2866 1881 
L 2388 3150 
Q 2169 3728 2063 4100 
Q 1975 3659 1816 3225 
L 1313 1881 
z
" id="ArialMT-41" transform="scale(0.015625)"/>
      <path d="M 2588 1216 
L 3141 1144 
Q 3050 572 2676 248 
Q 2303 -75 1759 -75 
Q 1078 -75 664 370 
Q 250 816 250 1647 
Q 250 2184 428 2587 
Q 606 2991 970 3192 
Q 1334 3394 1763 3394 
Q 2303 3394 2647 3120 
Q 2991 2847 3088 2344 
L 2541 2259 
Q 2463 2594 2264 2762 
Q 2066 2931 1784 2931 
Q 1359 2931 1093 2626 
Q 828 2322 828 1663 
Q 828 994 1084 691 
Q 1341 388 1753 388 
Q 2084 388 2306 591 
Q 2528 794 2588 1216 
z
" id="ArialMT-63" transform="scale(0.015625)"/>
      <path d="M 1650 503 
L 1731 6 
Q 1494 -44 1306 -44 
Q 1000 -44 831 53 
Q 663 150 594 308 
Q 525 466 525 972 
L 525 2881 
L 113 2881 
L 113 3319 
L 525 3319 
L 525 4141 
L 1084 4478 
L 1084 3319 
L 1650 3319 
L 1650 2881 
L 1084 2881 
L 1084 941 
Q 1084 700 1114 631 
Q 1144 563 1211 522 
Q 1278 481 1403 481 
Q 1497 481 1650 503 
z
" id="ArialMT-74" transform="scale(0.015625)"/>
      <path d="M 425 3934 
L 425 4581 
L 988 4581 
L 988 3934 
L 425 3934 
z
M 425 0 
L 425 3319 
L 988 3319 
L 988 0 
L 425 0 
z
" id="ArialMT-69" transform="scale(0.015625)"/>
      <path d="M 1344 0 
L 81 3319 
L 675 3319 
L 1388 1331 
Q 1503 1009 1600 663 
Q 1675 925 1809 1294 
L 2547 3319 
L 3125 3319 
L 1869 0 
L 1344 0 
z
" id="ArialMT-76" transform="scale(0.015625)"/>
      <path d="M 2588 409 
Q 2275 144 1986 34 
Q 1697 -75 1366 -75 
Q 819 -75 525 192 
Q 231 459 231 875 
Q 231 1119 342 1320 
Q 453 1522 633 1644 
Q 813 1766 1038 1828 
Q 1203 1872 1538 1913 
Q 2219 1994 2541 2106 
Q 2544 2222 2544 2253 
Q 2544 2597 2384 2738 
Q 2169 2928 1744 2928 
Q 1347 2928 1158 2789 
Q 969 2650 878 2297 
L 328 2372 
Q 403 2725 575 2942 
Q 747 3159 1072 3276 
Q 1397 3394 1825 3394 
Q 2250 3394 2515 3294 
Q 2781 3194 2906 3042 
Q 3031 2891 3081 2659 
Q 3109 2516 3109 2141 
L 3109 1391 
Q 3109 606 3145 398 
Q 3181 191 3288 0 
L 2700 0 
Q 2613 175 2588 409 
z
M 2541 1666 
Q 2234 1541 1622 1453 
Q 1275 1403 1131 1340 
Q 988 1278 909 1158 
Q 831 1038 831 891 
Q 831 666 1001 516 
Q 1172 366 1500 366 
Q 1825 366 2078 508 
Q 2331 650 2450 897 
Q 2541 1088 2541 1459 
L 2541 1666 
z
" id="ArialMT-61" transform="scale(0.015625)"/>
      <path d="M 213 1659 
Q 213 2581 725 3025 
Q 1153 3394 1769 3394 
Q 2453 3394 2887 2945 
Q 3322 2497 3322 1706 
Q 3322 1066 3130 698 
Q 2938 331 2570 128 
Q 2203 -75 1769 -75 
Q 1072 -75 642 372 
Q 213 819 213 1659 
z
M 791 1659 
Q 791 1022 1069 705 
Q 1347 388 1769 388 
Q 2188 388 2466 706 
Q 2744 1025 2744 1678 
Q 2744 2294 2464 2611 
Q 2184 2928 1769 2928 
Q 1347 2928 1069 2612 
Q 791 2297 791 1659 
z
" id="ArialMT-6f" transform="scale(0.015625)"/>
      <path d="M 422 0 
L 422 3319 
L 928 3319 
L 928 2847 
Q 1294 3394 1984 3394 
Q 2284 3394 2536 3286 
Q 2788 3178 2913 3003 
Q 3038 2828 3088 2588 
Q 3119 2431 3119 2041 
L 3119 0 
L 2556 0 
L 2556 2019 
Q 2556 2363 2490 2533 
Q 2425 2703 2258 2804 
Q 2091 2906 1866 2906 
Q 1506 2906 1245 2678 
Q 984 2450 984 1813 
L 984 0 
L 422 0 
z
" id="ArialMT-6e" transform="scale(0.015625)"/>
      <path d="M 197 991 
L 753 1078 
Q 800 744 1014 566 
Q 1228 388 1613 388 
Q 2000 388 2187 545 
Q 2375 703 2375 916 
Q 2375 1106 2209 1216 
Q 2094 1291 1634 1406 
Q 1016 1563 777 1677 
Q 538 1791 414 1992 
Q 291 2194 291 2438 
Q 291 2659 392 2848 
Q 494 3038 669 3163 
Q 800 3259 1026 3326 
Q 1253 3394 1513 3394 
Q 1903 3394 2198 3281 
Q 2494 3169 2634 2976 
Q 2775 2784 2828 2463 
L 2278 2388 
Q 2241 2644 2061 2787 
Q 1881 2931 1553 2931 
Q 1166 2931 1000 2803 
Q 834 2675 834 2503 
Q 834 2394 903 2306 
Q 972 2216 1119 2156 
Q 1203 2125 1616 2013 
Q 2213 1853 2448 1751 
Q 2684 1650 2818 1456 
Q 2953 1263 2953 975 
Q 2953 694 2789 445 
Q 2625 197 2315 61 
Q 2006 -75 1616 -75 
Q 969 -75 630 194 
Q 291 463 197 991 
z
" id="ArialMT-73" transform="scale(0.015625)"/>
      <path id="ArialMT-20" transform="scale(0.015625)"/>
      <path d="M 556 0 
L 556 2881 
L 59 2881 
L 59 3319 
L 556 3319 
L 556 3672 
Q 556 4006 616 4169 
Q 697 4388 901 4523 
Q 1106 4659 1475 4659 
Q 1713 4659 2000 4603 
L 1916 4113 
Q 1741 4144 1584 4144 
Q 1328 4144 1222 4034 
Q 1116 3925 1116 3625 
L 1116 3319 
L 1763 3319 
L 1763 2881 
L 1116 2881 
L 1116 0 
L 556 0 
z
" id="ArialMT-66" transform="scale(0.015625)"/>
      <path d="M 416 0 
L 416 3319 
L 922 3319 
L 922 2816 
Q 1116 3169 1280 3281 
Q 1444 3394 1641 3394 
Q 1925 3394 2219 3213 
L 2025 2691 
Q 1819 2813 1613 2813 
Q 1428 2813 1281 2702 
Q 1134 2591 1072 2394 
Q 978 2094 978 1738 
L 978 0 
L 416 0 
z
" id="ArialMT-72" transform="scale(0.015625)"/>
      <path d="M 3384 2003 
L 350 706 
L 350 1266 
L 2753 2263 
L 350 3250 
L 350 3809 
L 3384 2528 
L 3384 2003 
z
" id="ArialMT-3e" transform="scale(0.015625)"/>
      <path d="M 581 0 
L 581 641 
L 1222 641 
L 1222 0 
L 581 0 
z
" id="ArialMT-2e" transform="scale(0.015625)"/>
      <path d="M 350 2003 
L 350 2528 
L 3384 3809 
L 3384 3250 
L 978 2263 
L 3384 1266 
L 3384 706 
L 350 2003 
z
" id="ArialMT-3c" transform="scale(0.015625)"/>
     </defs>
     <use xlink:href="#ArialMT-41"/>
     <use x="66.699219" xlink:href="#ArialMT-63"/>
     <use x="116.699219" xlink:href="#ArialMT-74"/>
     <use x="144.482422" xlink:href="#ArialMT-69"/>
     <use x="166.699219" xlink:href="#ArialMT-76"/>
     <use x="216.699219" xlink:href="#ArialMT-61"/>
     <use x="272.314453" xlink:href="#ArialMT-74"/>
     <use x="300.097656" xlink:href="#ArialMT-69"/>
     <use x="322.314453" xlink:href="#ArialMT-6f"/>
     <use x="377.929688" xlink:href="#ArialMT-6e"/>
     <use x="433.544922" xlink:href="#ArialMT-73"/>
     <use x="483.544922" xlink:href="#ArialMT-20"/>
     <use x="511.328125" xlink:href="#ArialMT-66"/>
     <use x="539.111328" xlink:href="#ArialMT-6f"/>
     <use x="594.726562" xlink:href="#ArialMT-72"/>
     <use x="628.027344" xlink:href="#ArialMT-20"/>
     <use x="655.810547" xlink:href="#ArialMT-3e"/>
     <use x="714.208984" xlink:href="#ArialMT-2e"/>
     <use x="741.992188" xlink:href="#ArialMT-3c"/>
    </g>
   </g>
   <g id="legend_1">
    <g id="patch_7">
     <path d="M 640.044062 158.514363 
L 750.46 158.514363 
Q 752.66 158.514363 752.66 156.314363 
L 752.66 79.1528 
Q 752.66 76.9528 750.46 76.9528 
L 640.044062 76.9528 
Q 637.844062 76.9528 637.844062 79.1528 
L 637.844062 156.314363 
Q 637.844062 158.514363 640.044062 158.514363 
z
" style="fill:#ffffff;opacity:0.8;stroke:#cccccc;stroke-linejoin:miter;"/>
    </g>
    <g id="line2d_11">
     <path d="M 642.244062 85.376394 
L 664.244062 85.376394 
" style="fill:none;stroke:#4c72b0;stroke-linecap:round;stroke-width:1.5;"/>
    </g>
    <g id="line2d_12"/>
    <g id="text_17">
     <!-- regular -->
     <g style="fill:#262626;" transform="translate(673.044062 89.226394)scale(0.11 -0.11)">
      <defs>
       <path d="M 2694 1069 
L 3275 997 
Q 3138 488 2766 206 
Q 2394 -75 1816 -75 
Q 1088 -75 661 373 
Q 234 822 234 1631 
Q 234 2469 665 2931 
Q 1097 3394 1784 3394 
Q 2450 3394 2872 2941 
Q 3294 2488 3294 1666 
Q 3294 1616 3291 1516 
L 816 1516 
Q 847 969 1125 678 
Q 1403 388 1819 388 
Q 2128 388 2347 550 
Q 2566 713 2694 1069 
z
M 847 1978 
L 2700 1978 
Q 2663 2397 2488 2606 
Q 2219 2931 1791 2931 
Q 1403 2931 1139 2672 
Q 875 2413 847 1978 
z
" id="ArialMT-65" transform="scale(0.015625)"/>
       <path d="M 319 -275 
L 866 -356 
Q 900 -609 1056 -725 
Q 1266 -881 1628 -881 
Q 2019 -881 2231 -725 
Q 2444 -569 2519 -288 
Q 2563 -116 2559 434 
Q 2191 0 1641 0 
Q 956 0 581 494 
Q 206 988 206 1678 
Q 206 2153 378 2554 
Q 550 2956 876 3175 
Q 1203 3394 1644 3394 
Q 2231 3394 2613 2919 
L 2613 3319 
L 3131 3319 
L 3131 450 
Q 3131 -325 2973 -648 
Q 2816 -972 2473 -1159 
Q 2131 -1347 1631 -1347 
Q 1038 -1347 672 -1080 
Q 306 -813 319 -275 
z
M 784 1719 
Q 784 1066 1043 766 
Q 1303 466 1694 466 
Q 2081 466 2343 764 
Q 2606 1063 2606 1700 
Q 2606 2309 2336 2618 
Q 2066 2928 1684 2928 
Q 1309 2928 1046 2623 
Q 784 2319 784 1719 
z
" id="ArialMT-67" transform="scale(0.015625)"/>
       <path d="M 2597 0 
L 2597 488 
Q 2209 -75 1544 -75 
Q 1250 -75 995 37 
Q 741 150 617 320 
Q 494 491 444 738 
Q 409 903 409 1263 
L 409 3319 
L 972 3319 
L 972 1478 
Q 972 1038 1006 884 
Q 1059 663 1231 536 
Q 1403 409 1656 409 
Q 1909 409 2131 539 
Q 2353 669 2445 892 
Q 2538 1116 2538 1541 
L 2538 3319 
L 3100 3319 
L 3100 0 
L 2597 0 
z
" id="ArialMT-75" transform="scale(0.015625)"/>
       <path d="M 409 0 
L 409 4581 
L 972 4581 
L 972 0 
L 409 0 
z
" id="ArialMT-6c" transform="scale(0.015625)"/>
      </defs>
      <use xlink:href="#ArialMT-72"/>
      <use x="33.300781" xlink:href="#ArialMT-65"/>
      <use x="88.916016" xlink:href="#ArialMT-67"/>
      <use x="144.53125" xlink:href="#ArialMT-75"/>
      <use x="200.146484" xlink:href="#ArialMT-6c"/>
      <use x="222.363281" xlink:href="#ArialMT-61"/>
      <use x="277.978516" xlink:href="#ArialMT-72"/>
     </g>
    </g>
    <g id="line2d_13">
     <path d="M 642.244062 101.0978 
L 664.244062 101.0978 
" style="fill:none;stroke:#dd8452;stroke-dasharray:6,2.25;stroke-dashoffset:0;stroke-width:1.5;"/>
    </g>
    <g id="line2d_14"/>
    <g id="text_18">
     <!-- splitted_3s -->
     <g style="fill:#262626;" transform="translate(673.044062 104.9478)scale(0.11 -0.11)">
      <defs>
       <path d="M 422 -1272 
L 422 3319 
L 934 3319 
L 934 2888 
Q 1116 3141 1344 3267 
Q 1572 3394 1897 3394 
Q 2322 3394 2647 3175 
Q 2972 2956 3137 2557 
Q 3303 2159 3303 1684 
Q 3303 1175 3120 767 
Q 2938 359 2589 142 
Q 2241 -75 1856 -75 
Q 1575 -75 1351 44 
Q 1128 163 984 344 
L 984 -1272 
L 422 -1272 
z
M 931 1641 
Q 931 1000 1190 694 
Q 1450 388 1819 388 
Q 2194 388 2461 705 
Q 2728 1022 2728 1688 
Q 2728 2322 2467 2637 
Q 2206 2953 1844 2953 
Q 1484 2953 1207 2617 
Q 931 2281 931 1641 
z
" id="ArialMT-70" transform="scale(0.015625)"/>
       <path d="M 2575 0 
L 2575 419 
Q 2259 -75 1647 -75 
Q 1250 -75 917 144 
Q 584 363 401 755 
Q 219 1147 219 1656 
Q 219 2153 384 2558 
Q 550 2963 881 3178 
Q 1213 3394 1622 3394 
Q 1922 3394 2156 3267 
Q 2391 3141 2538 2938 
L 2538 4581 
L 3097 4581 
L 3097 0 
L 2575 0 
z
M 797 1656 
Q 797 1019 1065 703 
Q 1334 388 1700 388 
Q 2069 388 2326 689 
Q 2584 991 2584 1609 
Q 2584 2291 2321 2609 
Q 2059 2928 1675 2928 
Q 1300 2928 1048 2622 
Q 797 2316 797 1656 
z
" id="ArialMT-64" transform="scale(0.015625)"/>
       <path d="M -97 -1272 
L -97 -866 
L 3631 -866 
L 3631 -1272 
L -97 -1272 
z
" id="ArialMT-5f" transform="scale(0.015625)"/>
       <path d="M 269 1209 
L 831 1284 
Q 928 806 1161 595 
Q 1394 384 1728 384 
Q 2125 384 2398 659 
Q 2672 934 2672 1341 
Q 2672 1728 2419 1979 
Q 2166 2231 1775 2231 
Q 1616 2231 1378 2169 
L 1441 2663 
Q 1497 2656 1531 2656 
Q 1891 2656 2178 2843 
Q 2466 3031 2466 3422 
Q 2466 3731 2256 3934 
Q 2047 4138 1716 4138 
Q 1388 4138 1169 3931 
Q 950 3725 888 3313 
L 325 3413 
Q 428 3978 793 4289 
Q 1159 4600 1703 4600 
Q 2078 4600 2393 4439 
Q 2709 4278 2876 4000 
Q 3044 3722 3044 3409 
Q 3044 3113 2884 2869 
Q 2725 2625 2413 2481 
Q 2819 2388 3044 2092 
Q 3269 1797 3269 1353 
Q 3269 753 2831 336 
Q 2394 -81 1725 -81 
Q 1122 -81 723 278 
Q 325 638 269 1209 
z
" id="ArialMT-33" transform="scale(0.015625)"/>
      </defs>
      <use xlink:href="#ArialMT-73"/>
      <use x="50" xlink:href="#ArialMT-70"/>
      <use x="105.615234" xlink:href="#ArialMT-6c"/>
      <use x="127.832031" xlink:href="#ArialMT-69"/>
      <use x="150.048828" xlink:href="#ArialMT-74"/>
      <use x="177.832031" xlink:href="#ArialMT-74"/>
      <use x="205.615234" xlink:href="#ArialMT-65"/>
      <use x="261.230469" xlink:href="#ArialMT-64"/>
      <use x="316.845703" xlink:href="#ArialMT-5f"/>
      <use x="372.460938" xlink:href="#ArialMT-33"/>
      <use x="428.076172" xlink:href="#ArialMT-73"/>
     </g>
    </g>
    <g id="line2d_15">
     <path d="M 642.244062 116.6903 
L 664.244062 116.6903 
" style="fill:none;stroke:#55a868;stroke-dasharray:1.5,1.5;stroke-dashoffset:0;stroke-width:1.5;"/>
    </g>
    <g id="line2d_16"/>
    <g id="text_19">
     <!-- splitted_1s -->
     <g style="fill:#262626;" transform="translate(673.044062 120.5403)scale(0.11 -0.11)">
      <use xlink:href="#ArialMT-73"/>
      <use x="50" xlink:href="#ArialMT-70"/>
      <use x="105.615234" xlink:href="#ArialMT-6c"/>
      <use x="127.832031" xlink:href="#ArialMT-69"/>
      <use x="150.048828" xlink:href="#ArialMT-74"/>
      <use x="177.832031" xlink:href="#ArialMT-74"/>
      <use x="205.615234" xlink:href="#ArialMT-65"/>
      <use x="261.230469" xlink:href="#ArialMT-64"/>
      <use x="316.845703" xlink:href="#ArialMT-5f"/>
      <use x="372.460938" xlink:href="#ArialMT-31"/>
      <use x="428.076172" xlink:href="#ArialMT-73"/>
     </g>
    </g>
    <g id="line2d_17">
     <path d="M 642.244062 132.384206 
L 664.244062 132.384206 
" style="fill:none;stroke:#c44e52;stroke-dasharray:4.5,1.875,2.25,1.875;stroke-dashoffset:0;stroke-width:1.5;"/>
    </g>
    <g id="line2d_18"/>
    <g id="text_20">
     <!-- overlap_1f_3s -->
     <g style="fill:#262626;" transform="translate(673.044062 136.234206)scale(0.11 -0.11)">
      <use xlink:href="#ArialMT-6f"/>
      <use x="55.615234" xlink:href="#ArialMT-76"/>
      <use x="105.615234" xlink:href="#ArialMT-65"/>
      <use x="161.230469" xlink:href="#ArialMT-72"/>
      <use x="194.53125" xlink:href="#ArialMT-6c"/>
      <use x="216.748047" xlink:href="#ArialMT-61"/>
      <use x="272.363281" xlink:href="#ArialMT-70"/>
      <use x="327.978516" xlink:href="#ArialMT-5f"/>
      <use x="383.59375" xlink:href="#ArialMT-31"/>
      <use x="439.208984" xlink:href="#ArialMT-66"/>
      <use x="466.992188" xlink:href="#ArialMT-5f"/>
      <use x="522.607422" xlink:href="#ArialMT-33"/>
      <use x="578.222656" xlink:href="#ArialMT-73"/>
     </g>
    </g>
    <g id="line2d_19">
     <path d="M 642.244062 148.078113 
L 664.244062 148.078113 
" style="fill:none;stroke:#8172b3;stroke-dasharray:7.5,1.5,1.5,1.5;stroke-dashoffset:0;stroke-width:1.5;"/>
    </g>
    <g id="line2d_20"/>
    <g id="text_21">
     <!-- overlap_10f_3s -->
     <g style="fill:#262626;" transform="translate(673.044062 151.928112)scale(0.11 -0.11)">
      <use xlink:href="#ArialMT-6f"/>
      <use x="55.615234" xlink:href="#ArialMT-76"/>
      <use x="105.615234" xlink:href="#ArialMT-65"/>
      <use x="161.230469" xlink:href="#ArialMT-72"/>
      <use x="194.53125" xlink:href="#ArialMT-6c"/>
      <use x="216.748047" xlink:href="#ArialMT-61"/>
      <use x="272.363281" xlink:href="#ArialMT-70"/>
      <use x="327.978516" xlink:href="#ArialMT-5f"/>
      <use x="383.59375" xlink:href="#ArialMT-31"/>
      <use x="439.208984" xlink:href="#ArialMT-30"/>
      <use x="494.824219" xlink:href="#ArialMT-66"/>
      <use x="522.607422" xlink:href="#ArialMT-5f"/>
      <use x="578.222656" xlink:href="#ArialMT-33"/>
      <use x="633.837891" xlink:href="#ArialMT-73"/>
     </g>
    </g>
   </g>
  </g>
 </g>
 <defs>
  <clipPath id="pd277ef4e83">
   <rect height="458.4888" width="652.86" x="105.3" y="71.4528"/>
  </clipPath>
 </defs>
</svg>
