<?xml version="1.0" encoding="utf-8" standalone="no"?>
<!DOCTYPE svg PUBLIC "-//W3C//DTD SVG 1.1//EN"
  "http://www.w3.org/Graphics/SVG/1.1/DTD/svg11.dtd">
<svg height="595.44pt" version="1.1" viewBox="0 0 842.4 595.44" width="842.4pt" xmlns="http://www.w3.org/2000/svg" xmlns:xlink="http://www.w3.org/1999/xlink">
 <metadata>
  <rdf:RDF xmlns:cc="http://creativecommons.org/ns#" xmlns:dc="http://purl.org/dc/elements/1.1/" xmlns:rdf="http://www.w3.org/1999/02/22-rdf-syntax-ns#">
   <cc:Work>
    <dc:type rdf:resource="http://purl.org/dc/dcmitype/StillImage"/>
    <dc:date>2021-06-04T22:03:08.780927</dc:date>
    <dc:format>image/svg+xml</dc:format>
    <dc:creator>
     <cc:Agent>
      <dc:title>Matplotlib v3.4.1, https://matplotlib.org/</dc:title>
     </cc:Agent>
    </dc:creator>
   </cc:Work>
  </rdf:RDF>
 </metadata>
 <defs>
  <style type="text/css">*{stroke-linecap:butt;stroke-linejoin:round;}</style>
 </defs>
 <g id="figure_1">
  <g id="patch_1">
   <path d="M 0 595.44 
L 842.4 595.44 
L 842.4 0 
L 0 0 
z
" style="fill:#ffffff;"/>
  </g>
  <g id="axes_1">
   <g id="patch_2">
    <path d="M 105.3 529.9416 
L 758.16 529.9416 
L 758.16 71.4528 
L 105.3 71.4528 
z
" style="fill:#ffffff;"/>
   </g>
   <g id="matplotlib.axis_1">
    <g id="xtick_1">
     <g id="text_1">
      <!-- 0 -->
      <g style="fill:#262626;" transform="translate(131.916939 547.315194)scale(0.11 -0.11)">
       <defs>
        <path d="M 266 2259 
Q 266 3072 433 3567 
Q 600 4063 929 4331 
Q 1259 4600 1759 4600 
Q 2128 4600 2406 4451 
Q 2684 4303 2865 4023 
Q 3047 3744 3150 3342 
Q 3253 2941 3253 2259 
Q 3253 1453 3087 958 
Q 2922 463 2592 192 
Q 2263 -78 1759 -78 
Q 1097 -78 719 397 
Q 266 969 266 2259 
z
M 844 2259 
Q 844 1131 1108 757 
Q 1372 384 1759 384 
Q 2147 384 2411 759 
Q 2675 1134 2675 2259 
Q 2675 3391 2411 3762 
Q 2147 4134 1753 4134 
Q 1366 4134 1134 3806 
Q 844 3388 844 2259 
z
" id="ArialMT-30" transform="scale(0.015625)"/>
       </defs>
       <use xlink:href="#ArialMT-30"/>
      </g>
     </g>
    </g>
    <g id="xtick_2">
     <g id="text_2">
      <!-- 25 -->
      <g style="fill:#262626;" transform="translate(201.950676 547.315194)scale(0.11 -0.11)">
       <defs>
        <path d="M 3222 541 
L 3222 0 
L 194 0 
Q 188 203 259 391 
Q 375 700 629 1000 
Q 884 1300 1366 1694 
Q 2113 2306 2375 2664 
Q 2638 3022 2638 3341 
Q 2638 3675 2398 3904 
Q 2159 4134 1775 4134 
Q 1369 4134 1125 3890 
Q 881 3647 878 3216 
L 300 3275 
Q 359 3922 746 4261 
Q 1134 4600 1788 4600 
Q 2447 4600 2831 4234 
Q 3216 3869 3216 3328 
Q 3216 3053 3103 2787 
Q 2991 2522 2730 2228 
Q 2469 1934 1863 1422 
Q 1356 997 1212 845 
Q 1069 694 975 541 
L 3222 541 
z
" id="ArialMT-32" transform="scale(0.015625)"/>
        <path d="M 266 1200 
L 856 1250 
Q 922 819 1161 601 
Q 1400 384 1738 384 
Q 2144 384 2425 690 
Q 2706 997 2706 1503 
Q 2706 1984 2436 2262 
Q 2166 2541 1728 2541 
Q 1456 2541 1237 2417 
Q 1019 2294 894 2097 
L 366 2166 
L 809 4519 
L 3088 4519 
L 3088 3981 
L 1259 3981 
L 1013 2750 
Q 1425 3038 1878 3038 
Q 2478 3038 2890 2622 
Q 3303 2206 3303 1553 
Q 3303 931 2941 478 
Q 2500 -78 1738 -78 
Q 1113 -78 717 272 
Q 322 622 266 1200 
z
" id="ArialMT-35" transform="scale(0.015625)"/>
       </defs>
       <use xlink:href="#ArialMT-32"/>
       <use x="55.615234" xlink:href="#ArialMT-35"/>
      </g>
     </g>
    </g>
    <g id="xtick_3">
     <g id="text_3">
      <!-- 50 -->
      <g style="fill:#262626;" transform="translate(275.042928 547.315194)scale(0.11 -0.11)">
       <use xlink:href="#ArialMT-35"/>
       <use x="55.615234" xlink:href="#ArialMT-30"/>
      </g>
     </g>
    </g>
    <g id="xtick_4">
     <g id="text_4">
      <!-- 75 -->
      <g style="fill:#262626;" transform="translate(348.135181 547.315194)scale(0.11 -0.11)">
       <defs>
        <path d="M 303 3981 
L 303 4522 
L 3269 4522 
L 3269 4084 
Q 2831 3619 2401 2847 
Q 1972 2075 1738 1259 
Q 1569 684 1522 0 
L 944 0 
Q 953 541 1156 1306 
Q 1359 2072 1739 2783 
Q 2119 3494 2547 3981 
L 303 3981 
z
" id="ArialMT-37" transform="scale(0.015625)"/>
       </defs>
       <use xlink:href="#ArialMT-37"/>
       <use x="55.615234" xlink:href="#ArialMT-35"/>
      </g>
     </g>
    </g>
    <g id="xtick_5">
     <g id="text_5">
      <!-- 100 -->
      <g style="fill:#262626;" transform="translate(418.168918 547.315194)scale(0.11 -0.11)">
       <defs>
        <path d="M 2384 0 
L 1822 0 
L 1822 3584 
Q 1619 3391 1289 3197 
Q 959 3003 697 2906 
L 697 3450 
Q 1169 3672 1522 3987 
Q 1875 4303 2022 4600 
L 2384 4600 
L 2384 0 
z
" id="ArialMT-31" transform="scale(0.015625)"/>
       </defs>
       <use xlink:href="#ArialMT-31"/>
       <use x="55.615234" xlink:href="#ArialMT-30"/>
       <use x="111.230469" xlink:href="#ArialMT-30"/>
      </g>
     </g>
    </g>
    <g id="xtick_6">
     <g id="text_6">
      <!-- 125 -->
      <g style="fill:#262626;" transform="translate(491.261171 547.315194)scale(0.11 -0.11)">
       <use xlink:href="#ArialMT-31"/>
       <use x="55.615234" xlink:href="#ArialMT-32"/>
       <use x="111.230469" xlink:href="#ArialMT-35"/>
      </g>
     </g>
    </g>
    <g id="xtick_7">
     <g id="text_7">
      <!-- 150 -->
      <g style="fill:#262626;" transform="translate(564.353423 547.315194)scale(0.11 -0.11)">
       <use xlink:href="#ArialMT-31"/>
       <use x="55.615234" xlink:href="#ArialMT-35"/>
       <use x="111.230469" xlink:href="#ArialMT-30"/>
      </g>
     </g>
    </g>
    <g id="xtick_8">
     <g id="text_8">
      <!-- 175 -->
      <g style="fill:#262626;" transform="translate(637.445676 547.315194)scale(0.11 -0.11)">
       <use xlink:href="#ArialMT-31"/>
       <use x="55.615234" xlink:href="#ArialMT-37"/>
       <use x="111.230469" xlink:href="#ArialMT-35"/>
      </g>
     </g>
    </g>
    <g id="xtick_9">
     <g id="text_9">
      <!-- 200 -->
      <g style="fill:#262626;" transform="translate(710.537928 547.315194)scale(0.11 -0.11)">
       <use xlink:href="#ArialMT-32"/>
       <use x="55.615234" xlink:href="#ArialMT-30"/>
       <use x="111.230469" xlink:href="#ArialMT-30"/>
      </g>
     </g>
    </g>
   </g>
   <g id="matplotlib.axis_2">
    <g id="ytick_1">
     <g id="text_10">
      <!-- −25 -->
      <g style="fill:#262626;" transform="translate(77.14125 533.878397)scale(0.11 -0.11)">
       <defs>
        <path d="M 3381 1997 
L 356 1997 
L 356 2522 
L 3381 2522 
L 3381 1997 
z
" id="ArialMT-2212" transform="scale(0.015625)"/>
       </defs>
       <use xlink:href="#ArialMT-2212"/>
       <use x="58.398438" xlink:href="#ArialMT-32"/>
       <use x="114.013672" xlink:href="#ArialMT-35"/>
      </g>
     </g>
    </g>
    <g id="ytick_2">
     <g id="text_11">
      <!-- −20 -->
      <g style="fill:#262626;" transform="translate(77.14125 442.180637)scale(0.11 -0.11)">
       <use xlink:href="#ArialMT-2212"/>
       <use x="58.398438" xlink:href="#ArialMT-32"/>
       <use x="114.013672" xlink:href="#ArialMT-30"/>
      </g>
     </g>
    </g>
    <g id="ytick_3">
     <g id="text_12">
      <!-- −15 -->
      <g style="fill:#262626;" transform="translate(77.14125 350.482877)scale(0.11 -0.11)">
       <use xlink:href="#ArialMT-2212"/>
       <use x="58.398438" xlink:href="#ArialMT-31"/>
       <use x="114.013672" xlink:href="#ArialMT-35"/>
      </g>
     </g>
    </g>
    <g id="ytick_4">
     <g id="text_13">
      <!-- −10 -->
      <g style="fill:#262626;" transform="translate(77.14125 258.785117)scale(0.11 -0.11)">
       <use xlink:href="#ArialMT-2212"/>
       <use x="58.398438" xlink:href="#ArialMT-31"/>
       <use x="114.013672" xlink:href="#ArialMT-30"/>
      </g>
     </g>
    </g>
    <g id="ytick_5">
     <g id="text_14">
      <!-- −5 -->
      <g style="fill:#262626;" transform="translate(83.258281 167.087357)scale(0.11 -0.11)">
       <use xlink:href="#ArialMT-2212"/>
       <use x="58.398438" xlink:href="#ArialMT-35"/>
      </g>
     </g>
    </g>
    <g id="ytick_6">
     <g id="text_15">
      <!-- 0 -->
      <g style="fill:#262626;" transform="translate(89.682969 75.389597)scale(0.11 -0.11)">
       <use xlink:href="#ArialMT-30"/>
      </g>
     </g>
    </g>
   </g>
   <g id="line2d_1">
    <path clip-path="url(#p49928cf28f)" d="M 134.975455 279.287338 
L 137.899145 279.912569 
L 140.822835 277.447517 
L 143.746525 275.705097 
L 146.670215 286.209952 
L 149.593905 277.389398 
L 152.517595 278.397519 
L 155.441285 278.342338 
L 158.364975 280.448986 
L 161.288665 274.776048 
L 164.212356 267.104724 
L 167.136046 263.801763 
L 172.983426 278.423719 
L 175.907116 280.830722 
L 178.830806 281.86653 
L 181.754496 300.251084 
L 184.678186 310.57817 
L 187.601876 323.820868 
L 190.525567 387.848235 
L 193.449257 313.050813 
L 196.372947 143.778361 
L 199.296637 71.453124 
L 202.220327 142.820113 
L 205.144017 307.186028 
L 208.067707 428.804544 
L 210.991397 460.905826 
L 213.915087 358.532457 
L 216.838777 177.403216 
L 219.762468 71.452951 
L 222.686158 217.229577 
L 225.609848 335.047516 
L 228.533538 338.114538 
L 231.457228 71.452846 
L 234.380918 222.000619 
L 237.304608 316.850664 
L 240.228298 255.88913 
L 243.151988 71.453502 
L 246.075678 186.088135 
L 248.999369 284.10911 
L 251.923059 342.831422 
L 254.846749 352.999053 
L 257.770439 354.449495 
L 260.694129 320.183114 
L 263.617819 416.343332 
L 266.541509 328.651385 
L 269.465199 320.936424 
L 272.388889 367.648766 
L 275.312579 382.35205 
L 278.23627 373.602908 
L 281.15996 344.771776 
L 284.08365 285.129999 
L 287.00734 286.148912 
L 289.93103 337.63965 
L 295.77841 71.478294 
L 298.7021 71.453253 
L 301.62579 72.117211 
L 304.549481 238.142085 
L 307.473171 313.974318 
L 310.396861 306.442302 
L 313.320551 86.503882 
L 316.244241 71.454872 
L 319.167931 309.740611 
L 322.091621 434.067832 
L 325.015311 357.432863 
L 327.939001 383.021636 
L 330.862691 315.531921 
L 333.786382 72.133161 
L 336.710072 72.25835 
L 339.633762 384.217809 
L 342.557452 334.396277 
L 345.481142 71.453392 
L 348.404832 250.569489 
L 351.328522 353.300213 
L 354.252212 400.307907 
L 357.175902 417.193169 
L 360.099592 351.291194 
L 363.023283 381.189493 
L 365.946973 323.536079 
L 368.870663 329.244015 
L 371.794353 337.589244 
L 374.718043 341.307085 
L 377.641733 292.488165 
L 380.565423 220.725933 
L 383.489113 71.661475 
L 386.412803 90.931604 
L 389.336494 244.353207 
L 392.260184 384.969982 
L 395.183874 428.963423 
L 398.107564 366.46613 
L 401.031254 338.323508 
L 403.954944 328.26888 
L 406.878634 314.812105 
L 409.802324 291.290855 
L 412.726014 301.143054 
L 415.649704 350.096017 
L 418.573395 338.531096 
L 421.497085 421.067615 
L 424.420775 408.260557 
L 427.344465 158.500461 
L 430.268155 71.456215 
L 433.191845 71.45311 
L 436.115535 145.849842 
L 439.039225 346.695112 
L 441.962915 283.558911 
L 444.886605 71.474896 
L 447.810296 139.798316 
L 450.733986 366.437061 
L 453.657676 376.256205 
L 456.581366 346.157663 
L 459.505056 347.777915 
L 462.428746 204.607449 
L 465.352436 71.463027 
L 468.276126 152.26167 
L 471.199816 325.836534 
L 474.123506 330.338432 
L 477.047197 274.362778 
L 479.970887 71.503017 
L 482.894577 71.479374 
L 485.818267 199.580415 
L 488.741957 346.473462 
L 491.665647 385.883588 
L 494.589337 303.278386 
L 497.513027 307.352619 
L 500.436717 297.380439 
L 503.360408 243.789086 
L 506.284098 298.911668 
L 509.207788 411.76593 
L 512.131478 428.792021 
L 515.055168 374.649822 
L 517.978858 84.718817 
L 520.902548 71.454337 
L 523.826238 256.862744 
L 526.749928 397.845671 
L 529.673618 437.933533 
L 532.597309 247.995159 
L 535.520999 71.524007 
L 538.444689 71.608706 
L 541.368379 409.156323 
L 544.292069 372.845523 
L 547.215759 342.634835 
L 550.139449 441.072421 
L 553.063139 351.232182 
L 555.986829 388.768452 
L 558.910519 358.002039 
L 561.83421 358.850564 
L 564.7579 375.935998 
L 567.68159 272.1422 
L 570.60528 289.955899 
L 573.52897 282.686564 
L 576.45266 317.534399 
L 579.37635 370.861881 
L 582.30004 368.204667 
L 585.22373 230.466459 
L 588.147421 99.787197 
L 591.071111 71.502025 
L 593.994801 305.287667 
L 596.918491 320.49113 
L 599.842181 159.344421 
L 602.765871 71.453283 
L 605.689561 96.212781 
L 608.613251 332.432644 
L 611.536941 402.23747 
L 614.460631 362.642405 
L 617.384322 359.910875 
L 620.308012 413.49978 
L 623.231702 430.826138 
L 626.155392 395.859686 
L 629.079082 341.873462 
L 632.002772 318.611991 
L 634.926462 268.849278 
L 637.850152 251.733778 
L 640.773842 72.142111 
L 643.697532 75.304699 
L 646.621223 81.681448 
L 649.544913 245.723266 
L 652.468603 368.56538 
L 655.392293 368.038197 
L 658.315983 305.275284 
L 661.239673 361.942894 
L 664.163363 348.331525 
L 667.087053 416.26949 
L 670.010743 340.701653 
L 672.934433 367.506118 
L 675.858124 426.960158 
L 678.781814 371.850904 
L 681.705504 393.810422 
L 684.629194 446.60565 
L 687.552884 382.90064 
L 690.476574 359.049128 
L 693.400264 245.213066 
L 696.323954 315.925428 
L 699.247644 339.322027 
L 702.171335 340.746304 
L 705.095025 323.706396 
L 708.018715 324.607619 
L 710.942405 324.362305 
L 713.866095 324.372764 
L 716.789785 323.925913 
L 719.713475 321.985909 
L 722.637165 324.582783 
L 725.560855 324.655489 
L 728.484545 324.881442 
L 728.484545 324.881442 
" style="fill:none;stroke:#4c72b0;stroke-linecap:round;stroke-width:1.5;"/>
   </g>
   <g id="line2d_2">
    <path clip-path="url(#p49928cf28f)" d="M 134.975455 279.417708 
L 137.899145 282.860274 
L 140.822835 278.648167 
L 143.746525 276.320114 
L 146.670215 283.422664 
L 149.593905 276.957291 
L 152.517595 273.474253 
L 155.441285 267.76901 
L 158.364975 267.224705 
L 161.288665 260.355908 
L 164.212356 254.889824 
L 167.136046 254.30858 
L 170.059736 250.695959 
L 172.983426 260.067027 
L 175.907116 265.425758 
L 178.830806 265.668658 
L 181.754496 294.201586 
L 184.678186 324.785719 
L 187.601876 293.107817 
L 190.525567 378.24219 
L 193.449257 299.523466 
L 196.372947 145.572661 
L 199.296637 71.453967 
L 202.220327 101.775919 
L 205.144017 304.37324 
L 208.067707 413.769405 
L 210.991397 464.720246 
L 213.915087 338.639044 
L 216.838777 191.641258 
L 219.762468 71.453034 
L 222.686158 210.291957 
L 225.609848 315.089076 
L 228.533538 318.401359 
L 231.457228 71.453075 
L 234.380918 168.515483 
L 237.304608 287.973849 
L 240.228298 248.62506 
L 243.151988 71.466289 
L 246.075678 153.306791 
L 248.999369 308.765511 
L 251.923059 344.663058 
L 254.846749 347.086327 
L 257.770439 340.984832 
L 260.694129 315.006471 
L 263.617819 417.125203 
L 266.541509 340.884947 
L 269.465199 334.108935 
L 272.388889 385.494856 
L 275.312579 398.259483 
L 278.23627 387.610931 
L 281.15996 375.752074 
L 284.08365 296.266206 
L 287.00734 285.478906 
L 289.93103 335.923098 
L 292.85472 233.798489 
L 295.77841 71.833328 
L 298.7021 71.458162 
L 301.62579 89.788458 
L 304.549481 252.926663 
L 307.473171 340.012618 
L 310.396861 319.891172 
L 313.320551 119.908161 
L 316.244241 71.454197 
L 319.167931 313.248118 
L 322.091621 442.558613 
L 325.015311 371.011455 
L 327.939001 396.896771 
L 330.862691 312.808385 
L 333.786382 89.124109 
L 336.710072 71.496037 
L 339.633762 393.73714 
L 342.557452 341.646915 
L 345.481142 71.455432 
L 348.404832 271.282901 
L 351.328522 354.295461 
L 354.252212 338.762471 
L 357.175902 228.225068 
L 360.099592 88.027899 
L 363.023283 84.28985 
L 365.946973 179.507957 
L 368.870663 164.155262 
L 371.794353 193.5633 
L 374.718043 234.4541 
L 377.641733 210.900328 
L 380.565423 218.546894 
L 383.489113 72.167538 
L 386.412803 72.255858 
L 389.336494 200.593398 
L 392.260184 360.818552 
L 395.183874 418.221824 
L 398.107564 335.863195 
L 401.031254 299.010084 
L 403.954944 313.653342 
L 406.878634 256.151549 
L 409.802324 263.322608 
L 412.726014 301.308229 
L 415.649704 303.596178 
L 418.573395 268.235415 
L 421.497085 370.701743 
L 424.420775 379.874842 
L 427.344465 148.381881 
L 430.268155 71.461313 
L 433.191845 71.454455 
L 436.115535 126.655359 
L 439.039225 334.687975 
L 441.962915 305.997585 
L 444.886605 71.752897 
L 447.810296 99.264195 
L 450.733986 372.016359 
L 453.657676 362.836491 
L 456.581366 338.933033 
L 459.505056 344.534787 
L 462.428746 180.897132 
L 465.352436 71.468139 
L 468.276126 153.37007 
L 471.199816 335.879303 
L 474.123506 307.645191 
L 477.047197 291.988932 
L 479.970887 71.924121 
L 482.894577 71.474267 
L 485.818267 197.440483 
L 488.741957 341.949299 
L 491.665647 393.805036 
L 494.589337 296.347884 
L 497.513027 312.692846 
L 500.436717 303.681162 
L 503.360408 250.861694 
L 509.207788 395.546861 
L 512.131478 413.521922 
L 515.055168 371.541646 
L 517.978858 93.720977 
L 520.902548 71.45358 
L 523.826238 262.395605 
L 526.749928 412.194119 
L 529.673618 434.910044 
L 532.597309 245.939039 
L 535.520999 71.529828 
L 538.444689 72.734757 
L 541.368379 356.402984 
L 544.292069 353.663584 
L 547.215759 299.050013 
L 550.139449 394.505019 
L 553.063139 353.71434 
L 555.986829 323.481073 
L 558.910519 238.181945 
L 561.83421 215.525372 
L 564.7579 224.969855 
L 567.68159 221.559855 
L 570.60528 349.747652 
L 573.52897 96.24477 
L 576.45266 249.500695 
L 579.37635 285.663635 
L 582.30004 266.291056 
L 585.22373 255.65891 
L 588.147421 140.150292 
L 591.071111 71.465548 
L 593.994801 249.035672 
L 596.918491 278.701302 
L 599.842181 195.553273 
L 602.765871 71.454256 
L 605.689561 77.042765 
L 608.613251 316.844368 
L 611.536941 378.172649 
L 614.460631 349.265314 
L 617.384322 399.769636 
L 620.308012 410.739864 
L 623.231702 419.939128 
L 626.155392 401.509223 
L 629.079082 319.359687 
L 632.002772 341.10714 
L 634.926462 283.98766 
L 637.850152 180.403819 
L 640.773842 71.674143 
L 643.697532 78.474239 
L 646.621223 86.376985 
L 649.544913 226.519657 
L 652.468603 337.209922 
L 655.392293 369.305904 
L 658.315983 293.048019 
L 661.239673 369.825007 
L 664.163363 342.723265 
L 667.087053 409.200782 
L 670.010743 345.475485 
L 672.934433 361.97644 
L 675.858124 418.120627 
L 678.781814 381.188058 
L 681.705504 385.0008 
L 684.629194 441.31791 
L 687.552884 359.821099 
L 690.476574 334.289291 
L 693.400264 245.873889 
L 696.323954 309.000576 
L 699.247644 322.39311 
L 702.171335 330.85895 
L 705.095025 318.583657 
L 708.018715 323.1768 
L 710.942405 324.311584 
L 713.866095 324.151813 
L 716.789785 324.710303 
L 719.713475 322.086441 
L 722.637165 324.098416 
L 725.560855 324.366362 
L 728.484545 322.96762 
L 728.484545 322.96762 
" style="fill:none;stroke:#dd8452;stroke-dasharray:6,2.25;stroke-dashoffset:0;stroke-width:1.5;"/>
   </g>
   <g id="line2d_3">
    <path clip-path="url(#p49928cf28f)" d="M 134.975455 294.647038 
L 137.899145 296.321037 
L 140.822835 290.112224 
L 143.746525 287.958825 
L 146.670215 301.416912 
L 149.593905 286.919362 
L 152.517595 291.224375 
L 155.441285 324.960846 
L 158.364975 319.505273 
L 161.288665 291.153401 
L 164.212356 285.858981 
L 167.136046 272.674472 
L 170.059736 260.534114 
L 172.983426 259.662344 
L 175.907116 260.180467 
L 178.830806 250.888366 
L 181.754496 296.155984 
L 184.678186 281.459381 
L 187.601876 321.198546 
L 190.525567 315.226179 
L 193.449257 262.738618 
L 196.372947 127.792324 
L 199.296637 73.548063 
L 202.220327 72.750533 
L 205.144017 96.402477 
L 208.067707 146.281494 
L 210.991397 343.021451 
L 213.915087 315.506001 
L 216.838777 72.246766 
L 219.762468 71.45974 
L 222.686158 200.169337 
L 225.609848 256.201203 
L 228.533538 281.940985 
L 231.457228 71.453884 
L 234.380918 162.75422 
L 237.304608 268.681007 
L 240.228298 238.308432 
L 243.151988 71.457948 
L 246.075678 95.518407 
L 248.999369 329.429181 
L 251.923059 295.512756 
L 254.846749 342.02942 
L 257.770439 373.985903 
L 260.694129 330.195119 
L 263.617819 431.6588 
L 266.541509 369.168224 
L 269.465199 398.881042 
L 272.388889 408.881101 
L 275.312579 339.820753 
L 278.23627 245.657136 
L 281.15996 108.067985 
L 284.08365 73.665785 
L 287.00734 236.948553 
L 289.93103 280.706473 
L 292.85472 149.445279 
L 295.77841 71.674523 
L 298.7021 71.459504 
L 301.62579 91.297654 
L 304.549481 241.472821 
L 307.473171 371.197164 
L 310.396861 361.375677 
L 313.320551 134.457118 
L 316.244241 71.45343 
L 319.167931 340.36219 
L 322.091621 477.406903 
L 325.015311 384.785778 
L 327.939001 396.678496 
L 330.862691 347.934713 
L 333.786382 119.884505 
L 336.710072 71.454914 
L 339.633762 403.829826 
L 342.557452 383.931883 
L 345.481142 71.453344 
L 348.404832 283.7612 
L 351.328522 405.176028 
L 354.252212 378.225049 
L 357.175902 353.926563 
L 360.099592 164.190557 
L 363.023283 87.307044 
L 365.946973 225.287927 
L 368.870663 239.953643 
L 371.794353 115.309512 
L 374.718043 142.522836 
L 377.641733 121.538763 
L 380.565423 122.775819 
L 383.489113 74.244386 
L 386.412803 71.631331 
L 389.336494 152.726325 
L 392.260184 293.392518 
L 395.183874 362.111392 
L 398.107564 378.927796 
L 401.031254 282.569224 
L 403.954944 285.268065 
L 406.878634 214.273065 
L 409.802324 338.582919 
L 412.726014 318.079457 
L 415.649704 357.073567 
L 418.573395 345.683283 
L 421.497085 375.164516 
L 424.420775 346.8078 
L 427.344465 90.658708 
L 430.268155 71.513817 
L 433.191845 72.089081 
L 436.115535 121.086372 
L 439.039225 227.694878 
L 441.962915 176.737976 
L 444.886605 71.493101 
L 447.810296 204.900091 
L 450.733986 318.211121 
L 453.657676 318.019693 
L 456.581366 380.774211 
L 459.505056 392.433228 
L 462.428746 199.920629 
L 465.352436 71.468095 
L 468.276126 105.286605 
L 471.199816 288.742218 
L 474.123506 255.864697 
L 477.047197 280.714396 
L 479.970887 71.764146 
L 482.894577 71.486053 
L 485.818267 169.170587 
L 488.741957 313.224506 
L 491.665647 320.529852 
L 494.589337 232.367688 
L 497.513027 220.886544 
L 500.436717 207.874678 
L 503.360408 221.211682 
L 506.284098 222.976454 
L 509.207788 252.465313 
L 512.131478 119.459045 
L 515.055168 282.694382 
L 517.978858 213.624459 
L 520.902548 94.06769 
L 523.826238 190.674982 
L 526.749928 402.150929 
L 529.673618 281.674997 
L 532.597309 124.64797 
L 535.520999 71.460837 
L 538.444689 205.869078 
L 541.368379 309.888891 
L 544.292069 334.230892 
L 547.215759 294.384024 
L 550.139449 319.508316 
L 553.063139 233.155331 
L 555.986829 134.188031 
L 558.910519 71.555195 
L 561.83421 83.883621 
L 564.7579 79.842332 
L 567.68159 71.513235 
L 570.60528 165.395667 
L 573.52897 225.43528 
L 576.45266 325.652277 
L 579.37635 272.915991 
L 582.30004 269.786285 
L 585.22373 233.223087 
L 588.147421 72.981532 
L 591.071111 78.95685 
L 593.994801 200.768604 
L 596.918491 188.991223 
L 599.842181 148.732965 
L 602.765871 81.520149 
L 605.689561 179.564651 
L 608.613251 310.91814 
L 611.536941 380.499024 
L 614.460631 349.781705 
L 617.384322 377.128429 
L 620.308012 413.781403 
L 623.231702 424.33369 
L 626.155392 385.307679 
L 629.079082 331.314319 
L 632.002772 355.654134 
L 634.926462 246.549771 
L 637.850152 155.942379 
L 640.773842 71.682194 
L 643.697532 71.580228 
L 646.621223 99.868534 
L 649.544913 223.596263 
L 652.468603 239.767935 
L 655.392293 303.71602 
L 658.315983 244.188085 
L 661.239673 241.998866 
L 664.163363 253.143189 
L 667.087053 181.168375 
L 670.010743 132.981726 
L 672.934433 196.433166 
L 675.858124 337.947474 
L 678.781814 339.636671 
L 681.705504 238.697094 
L 684.629194 324.824547 
L 687.552884 422.847638 
L 690.476574 312.949109 
L 693.400264 225.265627 
L 696.323954 328.176148 
L 699.247644 311.003823 
L 702.171335 316.072833 
L 705.095025 320.680931 
L 708.018715 329.657198 
L 710.942405 330.519313 
L 713.866095 329.74874 
L 716.789785 332.778473 
L 719.713475 329.659279 
L 722.637165 333.507892 
L 725.560855 337.660883 
L 728.484545 339.942378 
L 728.484545 339.942378 
" style="fill:none;stroke:#55a868;stroke-dasharray:1.5,1.5;stroke-dashoffset:0;stroke-width:1.5;"/>
   </g>
   <g id="line2d_4">
    <path clip-path="url(#p49928cf28f)" d="M 134.975455 279.742567 
L 137.899145 283.280418 
L 140.822835 279.270285 
L 143.746525 276.570605 
L 146.670215 284.064546 
L 149.593905 277.547052 
L 152.517595 274.320889 
L 155.441285 268.877087 
L 158.364975 268.424027 
L 161.288665 261.539611 
L 164.212356 255.94097 
L 167.136046 255.338738 
L 170.059736 251.814861 
L 172.983426 261.039591 
L 175.907116 266.27215 
L 178.830806 266.590274 
L 181.754496 295.315889 
L 184.678186 325.600087 
L 187.601876 293.736074 
L 190.525567 378.150262 
L 193.449257 299.910939 
L 196.372947 144.012158 
L 199.296637 71.453793 
L 202.220327 106.96162 
L 205.144017 306.243529 
L 208.067707 420.007339 
L 210.991397 461.526125 
L 213.915087 346.732296 
L 216.838777 181.139027 
L 219.762468 71.452999 
L 222.686158 211.694083 
L 225.609848 315.342033 
L 228.533538 318.493217 
L 231.457228 71.453016 
L 234.380918 172.836596 
L 237.304608 291.697724 
L 240.228298 250.726094 
L 243.151988 71.461248 
L 246.075678 157.775659 
L 248.999369 306.727738 
L 251.923059 343.244885 
L 254.846749 344.204839 
L 257.770439 337.673983 
L 260.694129 313.630186 
L 263.617819 418.685797 
L 266.541509 336.95616 
L 269.465199 334.063006 
L 272.388889 383.993798 
L 275.312579 400.095509 
L 278.23627 391.957326 
L 281.15996 367.036722 
L 284.08365 288.65608 
L 287.00734 290.753721 
L 289.93103 336.28215 
L 292.85472 223.578878 
L 295.77841 71.744434 
L 298.7021 71.458429 
L 301.62579 91.50768 
L 304.549481 257.380709 
L 307.473171 341.095317 
L 310.396861 318.312982 
L 313.320551 114.644124 
L 316.244241 71.454214 
L 319.167931 330.18975 
L 322.091621 453.12052 
L 325.015311 372.82303 
L 327.939001 390.016186 
L 330.862691 322.839402 
L 333.786382 81.789451 
L 336.710072 71.46865 
L 339.633762 389.113039 
L 342.557452 369.722795 
L 345.481142 71.473127 
L 348.404832 100.505401 
L 351.328522 308.941775 
L 354.252212 352.819134 
L 357.175902 327.045929 
L 360.099592 153.825097 
L 363.023283 282.674671 
L 365.946973 216.76465 
L 368.870663 198.183666 
L 371.794353 236.982186 
L 374.718043 248.511095 
L 377.641733 204.788312 
L 380.565423 227.481273 
L 383.489113 72.950984 
L 386.412803 72.023027 
L 389.336494 200.537693 
L 392.260184 357.548961 
L 395.183874 418.517649 
L 398.107564 340.297792 
L 401.031254 303.613843 
L 403.954944 309.448196 
L 406.878634 248.467703 
L 409.802324 258.675543 
L 412.726014 300.930499 
L 415.649704 305.4006 
L 418.573395 270.867409 
L 421.497085 379.106648 
L 424.420775 387.427986 
L 427.344465 148.992516 
L 430.268155 71.4616 
L 433.191845 71.45458 
L 436.115535 127.124492 
L 439.039225 331.079201 
L 441.962915 305.222884 
L 444.886605 71.721951 
L 447.810296 104.522652 
L 450.733986 371.509989 
L 453.657676 372.225888 
L 456.581366 343.534029 
L 459.505056 348.600923 
L 462.428746 180.819634 
L 465.352436 71.461665 
L 468.276126 150.327341 
L 471.199816 334.986651 
L 474.123506 312.136928 
L 477.047197 296.735514 
L 479.970887 72.008086 
L 482.894577 71.476433 
L 485.818267 196.377994 
L 488.741957 341.186247 
L 491.665647 395.538011 
L 494.589337 298.105328 
L 497.513027 313.56981 
L 500.436717 303.55011 
L 503.360408 249.068605 
L 509.207788 395.740405 
L 512.131478 410.983884 
L 515.055168 375.856839 
L 517.978858 82.428533 
L 520.902548 71.453714 
L 523.826238 268.609543 
L 526.749928 413.347512 
L 529.673618 426.364834 
L 532.597309 239.152673 
L 535.520999 71.508384 
L 538.444689 71.901496 
L 541.368379 358.123751 
L 544.292069 352.049576 
L 547.215759 287.553041 
L 550.139449 398.955514 
L 553.063139 340.108603 
L 555.986829 322.212212 
L 558.910519 275.607451 
L 561.83421 239.131387 
L 564.7579 259.961807 
L 567.68159 122.38574 
L 570.60528 238.581853 
L 573.52897 233.385236 
L 576.45266 288.671576 
L 579.37635 316.946824 
L 582.30004 316.825951 
L 585.22373 286.075908 
L 588.147421 90.603652 
L 591.071111 71.520767 
L 593.994801 297.800968 
L 596.918491 309.800497 
L 599.842181 176.031023 
L 602.765871 71.453412 
L 605.689561 89.774739 
L 608.613251 332.533002 
L 611.536941 386.839764 
L 614.460631 363.006668 
L 617.384322 407.248973 
L 620.308012 413.057633 
L 623.231702 423.267432 
L 626.155392 401.202309 
L 629.079082 321.754254 
L 632.002772 341.286307 
L 634.926462 284.947054 
L 640.773842 71.618761 
L 643.697532 84.502678 
L 646.621223 87.853368 
L 649.544913 222.807973 
L 652.468603 337.504435 
L 655.392293 371.781433 
L 658.315983 292.689684 
L 661.239673 368.240381 
L 664.163363 341.34238 
L 667.087053 407.872105 
L 670.010743 346.095066 
L 672.934433 360.010236 
L 675.858124 417.089384 
L 678.781814 382.345544 
L 681.705504 385.09598 
L 684.629194 442.385183 
L 687.552884 359.805796 
L 690.476574 333.313701 
L 693.400264 245.320507 
L 696.323954 306.574159 
L 699.247644 321.420738 
L 702.171335 330.521149 
L 705.095025 318.997365 
L 708.018715 324.405837 
L 710.942405 326.250591 
L 713.866095 327.064276 
L 716.789785 326.864961 
L 719.713475 324.040577 
L 722.637165 326.707394 
L 725.560855 326.643345 
L 728.484545 325.770684 
L 728.484545 325.770684 
" style="fill:none;stroke:#c44e52;stroke-dasharray:4.5,1.875,2.25,1.875;stroke-dashoffset:0;stroke-width:1.5;"/>
   </g>
   <g id="line2d_5">
    <path clip-path="url(#p49928cf28f)" d="M 134.975455 279.233784 
L 137.899145 282.878412 
L 140.822835 279.181506 
L 143.746525 276.621221 
L 146.670215 284.062062 
L 149.593905 278.957285 
L 152.517595 276.013358 
L 155.441285 272.287401 
L 158.364975 271.494669 
L 164.212356 258.580835 
L 167.136046 258.025948 
L 170.059736 252.914892 
L 172.983426 261.656042 
L 175.907116 266.447154 
L 178.830806 268.0701 
L 181.754496 296.801644 
L 184.678186 310.018964 
L 187.601876 315.221702 
L 190.525567 382.162424 
L 193.449257 304.657696 
L 196.372947 146.726911 
L 199.296637 71.453338 
L 202.220327 122.318233 
L 205.144017 304.718509 
L 208.067707 422.333119 
L 210.991397 465.813054 
L 213.915087 347.134232 
L 216.838777 191.725779 
L 219.762468 71.453073 
L 222.686158 207.58703 
L 225.609848 326.04762 
L 228.533538 327.901923 
L 231.457228 71.452988 
L 234.380918 179.226902 
L 237.304608 295.49726 
L 240.228298 255.381816 
L 243.151988 71.461215 
L 246.075678 159.953404 
L 248.999369 304.089448 
L 251.923059 351.671355 
L 254.846749 355.26869 
L 257.770439 347.921438 
L 260.694129 317.765337 
L 263.617819 417.124609 
L 266.541509 332.907654 
L 269.465199 332.642174 
L 272.388889 380.625232 
L 275.312579 395.162047 
L 278.23627 382.508201 
L 281.15996 367.200428 
L 284.08365 289.085266 
L 287.00734 280.685241 
L 289.93103 336.217682 
L 292.85472 227.577817 
L 295.77841 71.632533 
L 298.7021 71.457734 
L 301.62579 85.994624 
L 304.549481 246.495238 
L 307.473171 334.192117 
L 310.396861 319.064019 
L 313.320551 125.392973 
L 316.244241 71.454604 
L 319.167931 320.691669 
L 322.091621 438.401145 
L 325.015311 372.186431 
L 327.939001 301.007664 
L 330.862691 308.546029 
L 333.786382 167.022732 
L 336.710072 71.46408 
L 339.633762 329.40459 
L 342.557452 330.336001 
L 345.481142 71.453847 
L 348.404832 206.096142 
L 351.328522 365.014813 
L 354.252212 419.628611 
L 357.175902 426.66888 
L 360.099592 383.08439 
L 363.023283 417.258057 
L 365.946973 293.106155 
L 368.870663 292.92293 
L 371.794353 285.310653 
L 374.718043 292.375005 
L 377.641733 277.725257 
L 380.565423 256.291714 
L 383.489113 71.644979 
L 386.412803 75.189277 
L 389.336494 234.60133 
L 392.260184 386.893703 
L 395.183874 438.334928 
L 398.107564 335.733595 
L 401.031254 326.026684 
L 403.954944 322.094014 
L 406.878634 264.513202 
L 409.802324 298.306532 
L 412.726014 320.50862 
L 415.649704 349.359445 
L 418.573395 305.81945 
L 421.497085 403.4653 
L 424.420775 400.579911 
L 427.344465 162.175888 
L 430.268155 71.464224 
L 433.191845 71.454332 
L 436.115535 121.444369 
L 439.039225 328.4867 
L 441.962915 310.429383 
L 444.886605 71.659843 
L 447.810296 99.938931 
L 450.733986 370.084627 
L 453.657676 355.595368 
L 456.581366 333.72594 
L 459.505056 320.725215 
L 462.428746 176.434473 
L 465.352436 71.463903 
L 468.276126 170.927086 
L 471.199816 339.526642 
L 474.123506 309.140058 
L 477.047197 287.151663 
L 479.970887 71.721145 
L 482.894577 71.484606 
L 485.818267 211.755219 
L 488.741957 310.699306 
L 491.665647 419.410511 
L 494.589337 320.780099 
L 497.513027 353.829284 
L 500.436717 311.057098 
L 503.360408 300.671647 
L 506.284098 338.746083 
L 509.207788 191.593082 
L 512.131478 221.436113 
L 515.055168 217.845442 
L 517.978858 324.967545 
L 520.902548 362.130911 
L 523.826238 359.31396 
L 526.749928 252.882571 
L 529.673618 76.978132 
L 532.597309 71.648944 
L 535.520999 270.415941 
L 538.444689 251.600085 
L 541.368379 78.317524 
L 544.292069 174.997122 
L 547.215759 184.70795 
L 550.139449 163.572698 
L 553.063139 146.740273 
L 555.986829 101.521591 
L 558.910519 87.349229 
L 561.83421 160.523087 
L 564.7579 150.298973 
L 567.68159 115.900691 
L 570.60528 74.679831 
L 573.52897 203.547994 
L 576.45266 288.404207 
L 579.37635 324.855941 
L 582.30004 288.050455 
L 585.22373 219.846118 
L 588.147421 72.797617 
L 591.071111 71.754004 
L 593.994801 289.93596 
L 596.918491 298.820527 
L 599.842181 158.345325 
L 602.765871 71.453323 
L 605.689561 105.29989 
L 608.613251 331.763514 
L 611.536941 389.933843 
L 614.460631 364.376569 
L 617.384322 401.19129 
L 620.308012 412.014742 
L 623.231702 421.178921 
L 626.155392 396.640123 
L 629.079082 323.951798 
L 632.002772 337.849163 
L 634.926462 268.61848 
L 640.773842 71.594302 
L 643.697532 96.154806 
L 646.621223 87.461191 
L 649.544913 192.453413 
L 652.468603 325.40245 
L 655.392293 359.270918 
L 658.315983 286.668503 
L 661.239673 351.224837 
L 664.163363 327.282901 
L 667.087053 404.432705 
L 670.010743 343.278746 
L 672.934433 355.625835 
L 675.858124 406.967979 
L 678.781814 367.819328 
L 681.705504 383.41439 
L 684.629194 432.694731 
L 687.552884 354.341023 
L 690.476574 321.968069 
L 693.400264 241.717435 
L 696.323954 301.693778 
L 699.247644 320.009876 
L 702.171335 324.328777 
L 705.095025 315.620298 
L 708.018715 322.505361 
L 710.942405 323.647997 
L 713.866095 324.603002 
L 716.789785 325.018406 
L 719.713475 322.261376 
L 722.637165 322.510503 
L 725.560855 322.992299 
L 728.484545 320.96133 
L 728.484545 320.96133 
" style="fill:none;stroke:#8172b3;stroke-dasharray:7.5,1.5,1.5,1.5;stroke-dashoffset:0;stroke-width:1.5;"/>
   </g>
   <g id="line2d_6"/>
   <g id="line2d_7"/>
   <g id="line2d_8"/>
   <g id="line2d_9"/>
   <g id="line2d_10"/>
   <g id="patch_3">
    <path d="M 105.3 529.9416 
L 105.3 71.4528 
" style="fill:none;stroke:#262626;stroke-linecap:square;stroke-linejoin:miter;stroke-width:1.25;"/>
   </g>
   <g id="patch_4">
    <path d="M 758.16 529.9416 
L 758.16 71.4528 
" style="fill:none;stroke:#262626;stroke-linecap:square;stroke-linejoin:miter;stroke-width:1.25;"/>
   </g>
   <g id="patch_5">
    <path d="M 105.3 529.9416 
L 758.16 529.9416 
" style="fill:none;stroke:#262626;stroke-linecap:square;stroke-linejoin:miter;stroke-width:1.25;"/>
   </g>
   <g id="patch_6">
    <path d="M 105.3 71.4528 
L 758.16 71.4528 
" style="fill:none;stroke:#262626;stroke-linecap:square;stroke-linejoin:miter;stroke-width:1.25;"/>
   </g>
   <g id="text_16">
    <!-- Activations for &gt;&lt;space&gt;&lt; -->
    <g style="fill:#262626;" transform="translate(362.355938 65.4528)scale(0.12 -0.12)">
     <defs>
      <path d="M -9 0 
L 1750 4581 
L 2403 4581 
L 4278 0 
L 3588 0 
L 3053 1388 
L 1138 1388 
L 634 0 
L -9 0 
z
M 1313 1881 
L 2866 1881 
L 2388 3150 
Q 2169 3728 2063 4100 
Q 1975 3659 1816 3225 
L 1313 1881 
z
" id="ArialMT-41" transform="scale(0.015625)"/>
      <path d="M 2588 1216 
L 3141 1144 
Q 3050 572 2676 248 
Q 2303 -75 1759 -75 
Q 1078 -75 664 370 
Q 250 816 250 1647 
Q 250 2184 428 2587 
Q 606 2991 970 3192 
Q 1334 3394 1763 3394 
Q 2303 3394 2647 3120 
Q 2991 2847 3088 2344 
L 2541 2259 
Q 2463 2594 2264 2762 
Q 2066 2931 1784 2931 
Q 1359 2931 1093 2626 
Q 828 2322 828 1663 
Q 828 994 1084 691 
Q 1341 388 1753 388 
Q 2084 388 2306 591 
Q 2528 794 2588 1216 
z
" id="ArialMT-63" transform="scale(0.015625)"/>
      <path d="M 1650 503 
L 1731 6 
Q 1494 -44 1306 -44 
Q 1000 -44 831 53 
Q 663 150 594 308 
Q 525 466 525 972 
L 525 2881 
L 113 2881 
L 113 3319 
L 525 3319 
L 525 4141 
L 1084 4478 
L 1084 3319 
L 1650 3319 
L 1650 2881 
L 1084 2881 
L 1084 941 
Q 1084 700 1114 631 
Q 1144 563 1211 522 
Q 1278 481 1403 481 
Q 1497 481 1650 503 
z
" id="ArialMT-74" transform="scale(0.015625)"/>
      <path d="M 425 3934 
L 425 4581 
L 988 4581 
L 988 3934 
L 425 3934 
z
M 425 0 
L 425 3319 
L 988 3319 
L 988 0 
L 425 0 
z
" id="ArialMT-69" transform="scale(0.015625)"/>
      <path d="M 1344 0 
L 81 3319 
L 675 3319 
L 1388 1331 
Q 1503 1009 1600 663 
Q 1675 925 1809 1294 
L 2547 3319 
L 3125 3319 
L 1869 0 
L 1344 0 
z
" id="ArialMT-76" transform="scale(0.015625)"/>
      <path d="M 2588 409 
Q 2275 144 1986 34 
Q 1697 -75 1366 -75 
Q 819 -75 525 192 
Q 231 459 231 875 
Q 231 1119 342 1320 
Q 453 1522 633 1644 
Q 813 1766 1038 1828 
Q 1203 1872 1538 1913 
Q 2219 1994 2541 2106 
Q 2544 2222 2544 2253 
Q 2544 2597 2384 2738 
Q 2169 2928 1744 2928 
Q 1347 2928 1158 2789 
Q 969 2650 878 2297 
L 328 2372 
Q 403 2725 575 2942 
Q 747 3159 1072 3276 
Q 1397 3394 1825 3394 
Q 2250 3394 2515 3294 
Q 2781 3194 2906 3042 
Q 3031 2891 3081 2659 
Q 3109 2516 3109 2141 
L 3109 1391 
Q 3109 606 3145 398 
Q 3181 191 3288 0 
L 2700 0 
Q 2613 175 2588 409 
z
M 2541 1666 
Q 2234 1541 1622 1453 
Q 1275 1403 1131 1340 
Q 988 1278 909 1158 
Q 831 1038 831 891 
Q 831 666 1001 516 
Q 1172 366 1500 366 
Q 1825 366 2078 508 
Q 2331 650 2450 897 
Q 2541 1088 2541 1459 
L 2541 1666 
z
" id="ArialMT-61" transform="scale(0.015625)"/>
      <path d="M 213 1659 
Q 213 2581 725 3025 
Q 1153 3394 1769 3394 
Q 2453 3394 2887 2945 
Q 3322 2497 3322 1706 
Q 3322 1066 3130 698 
Q 2938 331 2570 128 
Q 2203 -75 1769 -75 
Q 1072 -75 642 372 
Q 213 819 213 1659 
z
M 791 1659 
Q 791 1022 1069 705 
Q 1347 388 1769 388 
Q 2188 388 2466 706 
Q 2744 1025 2744 1678 
Q 2744 2294 2464 2611 
Q 2184 2928 1769 2928 
Q 1347 2928 1069 2612 
Q 791 2297 791 1659 
z
" id="ArialMT-6f" transform="scale(0.015625)"/>
      <path d="M 422 0 
L 422 3319 
L 928 3319 
L 928 2847 
Q 1294 3394 1984 3394 
Q 2284 3394 2536 3286 
Q 2788 3178 2913 3003 
Q 3038 2828 3088 2588 
Q 3119 2431 3119 2041 
L 3119 0 
L 2556 0 
L 2556 2019 
Q 2556 2363 2490 2533 
Q 2425 2703 2258 2804 
Q 2091 2906 1866 2906 
Q 1506 2906 1245 2678 
Q 984 2450 984 1813 
L 984 0 
L 422 0 
z
" id="ArialMT-6e" transform="scale(0.015625)"/>
      <path d="M 197 991 
L 753 1078 
Q 800 744 1014 566 
Q 1228 388 1613 388 
Q 2000 388 2187 545 
Q 2375 703 2375 916 
Q 2375 1106 2209 1216 
Q 2094 1291 1634 1406 
Q 1016 1563 777 1677 
Q 538 1791 414 1992 
Q 291 2194 291 2438 
Q 291 2659 392 2848 
Q 494 3038 669 3163 
Q 800 3259 1026 3326 
Q 1253 3394 1513 3394 
Q 1903 3394 2198 3281 
Q 2494 3169 2634 2976 
Q 2775 2784 2828 2463 
L 2278 2388 
Q 2241 2644 2061 2787 
Q 1881 2931 1553 2931 
Q 1166 2931 1000 2803 
Q 834 2675 834 2503 
Q 834 2394 903 2306 
Q 972 2216 1119 2156 
Q 1203 2125 1616 2013 
Q 2213 1853 2448 1751 
Q 2684 1650 2818 1456 
Q 2953 1263 2953 975 
Q 2953 694 2789 445 
Q 2625 197 2315 61 
Q 2006 -75 1616 -75 
Q 969 -75 630 194 
Q 291 463 197 991 
z
" id="ArialMT-73" transform="scale(0.015625)"/>
      <path id="ArialMT-20" transform="scale(0.015625)"/>
      <path d="M 556 0 
L 556 2881 
L 59 2881 
L 59 3319 
L 556 3319 
L 556 3672 
Q 556 4006 616 4169 
Q 697 4388 901 4523 
Q 1106 4659 1475 4659 
Q 1713 4659 2000 4603 
L 1916 4113 
Q 1741 4144 1584 4144 
Q 1328 4144 1222 4034 
Q 1116 3925 1116 3625 
L 1116 3319 
L 1763 3319 
L 1763 2881 
L 1116 2881 
L 1116 0 
L 556 0 
z
" id="ArialMT-66" transform="scale(0.015625)"/>
      <path d="M 416 0 
L 416 3319 
L 922 3319 
L 922 2816 
Q 1116 3169 1280 3281 
Q 1444 3394 1641 3394 
Q 1925 3394 2219 3213 
L 2025 2691 
Q 1819 2813 1613 2813 
Q 1428 2813 1281 2702 
Q 1134 2591 1072 2394 
Q 978 2094 978 1738 
L 978 0 
L 416 0 
z
" id="ArialMT-72" transform="scale(0.015625)"/>
      <path d="M 3384 2003 
L 350 706 
L 350 1266 
L 2753 2263 
L 350 3250 
L 350 3809 
L 3384 2528 
L 3384 2003 
z
" id="ArialMT-3e" transform="scale(0.015625)"/>
      <path d="M 350 2003 
L 350 2528 
L 3384 3809 
L 3384 3250 
L 978 2263 
L 3384 1266 
L 3384 706 
L 350 2003 
z
" id="ArialMT-3c" transform="scale(0.015625)"/>
      <path d="M 422 -1272 
L 422 3319 
L 934 3319 
L 934 2888 
Q 1116 3141 1344 3267 
Q 1572 3394 1897 3394 
Q 2322 3394 2647 3175 
Q 2972 2956 3137 2557 
Q 3303 2159 3303 1684 
Q 3303 1175 3120 767 
Q 2938 359 2589 142 
Q 2241 -75 1856 -75 
Q 1575 -75 1351 44 
Q 1128 163 984 344 
L 984 -1272 
L 422 -1272 
z
M 931 1641 
Q 931 1000 1190 694 
Q 1450 388 1819 388 
Q 2194 388 2461 705 
Q 2728 1022 2728 1688 
Q 2728 2322 2467 2637 
Q 2206 2953 1844 2953 
Q 1484 2953 1207 2617 
Q 931 2281 931 1641 
z
" id="ArialMT-70" transform="scale(0.015625)"/>
      <path d="M 2694 1069 
L 3275 997 
Q 3138 488 2766 206 
Q 2394 -75 1816 -75 
Q 1088 -75 661 373 
Q 234 822 234 1631 
Q 234 2469 665 2931 
Q 1097 3394 1784 3394 
Q 2450 3394 2872 2941 
Q 3294 2488 3294 1666 
Q 3294 1616 3291 1516 
L 816 1516 
Q 847 969 1125 678 
Q 1403 388 1819 388 
Q 2128 388 2347 550 
Q 2566 713 2694 1069 
z
M 847 1978 
L 2700 1978 
Q 2663 2397 2488 2606 
Q 2219 2931 1791 2931 
Q 1403 2931 1139 2672 
Q 875 2413 847 1978 
z
" id="ArialMT-65" transform="scale(0.015625)"/>
     </defs>
     <use xlink:href="#ArialMT-41"/>
     <use x="66.699219" xlink:href="#ArialMT-63"/>
     <use x="116.699219" xlink:href="#ArialMT-74"/>
     <use x="144.482422" xlink:href="#ArialMT-69"/>
     <use x="166.699219" xlink:href="#ArialMT-76"/>
     <use x="216.699219" xlink:href="#ArialMT-61"/>
     <use x="272.314453" xlink:href="#ArialMT-74"/>
     <use x="300.097656" xlink:href="#ArialMT-69"/>
     <use x="322.314453" xlink:href="#ArialMT-6f"/>
     <use x="377.929688" xlink:href="#ArialMT-6e"/>
     <use x="433.544922" xlink:href="#ArialMT-73"/>
     <use x="483.544922" xlink:href="#ArialMT-20"/>
     <use x="511.328125" xlink:href="#ArialMT-66"/>
     <use x="539.111328" xlink:href="#ArialMT-6f"/>
     <use x="594.726562" xlink:href="#ArialMT-72"/>
     <use x="628.027344" xlink:href="#ArialMT-20"/>
     <use x="655.810547" xlink:href="#ArialMT-3e"/>
     <use x="714.208984" xlink:href="#ArialMT-3c"/>
     <use x="772.607422" xlink:href="#ArialMT-73"/>
     <use x="822.607422" xlink:href="#ArialMT-70"/>
     <use x="878.222656" xlink:href="#ArialMT-61"/>
     <use x="933.837891" xlink:href="#ArialMT-63"/>
     <use x="983.837891" xlink:href="#ArialMT-65"/>
     <use x="1039.453125" xlink:href="#ArialMT-3e"/>
     <use x="1097.851562" xlink:href="#ArialMT-3c"/>
    </g>
   </g>
   <g id="legend_1">
    <g id="patch_7">
     <path d="M 376.522031 524.4416 
L 486.937969 524.4416 
Q 489.137969 524.4416 489.137969 522.2416 
L 489.137969 445.080037 
Q 489.137969 442.880037 486.937969 442.880037 
L 376.522031 442.880037 
Q 374.322031 442.880037 374.322031 445.080037 
L 374.322031 522.2416 
Q 374.322031 524.4416 376.522031 524.4416 
z
" style="fill:#ffffff;opacity:0.8;stroke:#cccccc;stroke-linejoin:miter;"/>
    </g>
    <g id="line2d_11">
     <path d="M 378.722031 451.303631 
L 400.722031 451.303631 
" style="fill:none;stroke:#4c72b0;stroke-linecap:round;stroke-width:1.5;"/>
    </g>
    <g id="line2d_12"/>
    <g id="text_17">
     <!-- regular -->
     <g style="fill:#262626;" transform="translate(409.522031 455.153631)scale(0.11 -0.11)">
      <defs>
       <path d="M 319 -275 
L 866 -356 
Q 900 -609 1056 -725 
Q 1266 -881 1628 -881 
Q 2019 -881 2231 -725 
Q 2444 -569 2519 -288 
Q 2563 -116 2559 434 
Q 2191 0 1641 0 
Q 956 0 581 494 
Q 206 988 206 1678 
Q 206 2153 378 2554 
Q 550 2956 876 3175 
Q 1203 3394 1644 3394 
Q 2231 3394 2613 2919 
L 2613 3319 
L 3131 3319 
L 3131 450 
Q 3131 -325 2973 -648 
Q 2816 -972 2473 -1159 
Q 2131 -1347 1631 -1347 
Q 1038 -1347 672 -1080 
Q 306 -813 319 -275 
z
M 784 1719 
Q 784 1066 1043 766 
Q 1303 466 1694 466 
Q 2081 466 2343 764 
Q 2606 1063 2606 1700 
Q 2606 2309 2336 2618 
Q 2066 2928 1684 2928 
Q 1309 2928 1046 2623 
Q 784 2319 784 1719 
z
" id="ArialMT-67" transform="scale(0.015625)"/>
       <path d="M 2597 0 
L 2597 488 
Q 2209 -75 1544 -75 
Q 1250 -75 995 37 
Q 741 150 617 320 
Q 494 491 444 738 
Q 409 903 409 1263 
L 409 3319 
L 972 3319 
L 972 1478 
Q 972 1038 1006 884 
Q 1059 663 1231 536 
Q 1403 409 1656 409 
Q 1909 409 2131 539 
Q 2353 669 2445 892 
Q 2538 1116 2538 1541 
L 2538 3319 
L 3100 3319 
L 3100 0 
L 2597 0 
z
" id="ArialMT-75" transform="scale(0.015625)"/>
       <path d="M 409 0 
L 409 4581 
L 972 4581 
L 972 0 
L 409 0 
z
" id="ArialMT-6c" transform="scale(0.015625)"/>
      </defs>
      <use xlink:href="#ArialMT-72"/>
      <use x="33.300781" xlink:href="#ArialMT-65"/>
      <use x="88.916016" xlink:href="#ArialMT-67"/>
      <use x="144.53125" xlink:href="#ArialMT-75"/>
      <use x="200.146484" xlink:href="#ArialMT-6c"/>
      <use x="222.363281" xlink:href="#ArialMT-61"/>
      <use x="277.978516" xlink:href="#ArialMT-72"/>
     </g>
    </g>
    <g id="line2d_13">
     <path d="M 378.722031 467.025037 
L 400.722031 467.025037 
" style="fill:none;stroke:#dd8452;stroke-dasharray:6,2.25;stroke-dashoffset:0;stroke-width:1.5;"/>
    </g>
    <g id="line2d_14"/>
    <g id="text_18">
     <!-- splitted_3s -->
     <g style="fill:#262626;" transform="translate(409.522031 470.875037)scale(0.11 -0.11)">
      <defs>
       <path d="M 2575 0 
L 2575 419 
Q 2259 -75 1647 -75 
Q 1250 -75 917 144 
Q 584 363 401 755 
Q 219 1147 219 1656 
Q 219 2153 384 2558 
Q 550 2963 881 3178 
Q 1213 3394 1622 3394 
Q 1922 3394 2156 3267 
Q 2391 3141 2538 2938 
L 2538 4581 
L 3097 4581 
L 3097 0 
L 2575 0 
z
M 797 1656 
Q 797 1019 1065 703 
Q 1334 388 1700 388 
Q 2069 388 2326 689 
Q 2584 991 2584 1609 
Q 2584 2291 2321 2609 
Q 2059 2928 1675 2928 
Q 1300 2928 1048 2622 
Q 797 2316 797 1656 
z
" id="ArialMT-64" transform="scale(0.015625)"/>
       <path d="M -97 -1272 
L -97 -866 
L 3631 -866 
L 3631 -1272 
L -97 -1272 
z
" id="ArialMT-5f" transform="scale(0.015625)"/>
       <path d="M 269 1209 
L 831 1284 
Q 928 806 1161 595 
Q 1394 384 1728 384 
Q 2125 384 2398 659 
Q 2672 934 2672 1341 
Q 2672 1728 2419 1979 
Q 2166 2231 1775 2231 
Q 1616 2231 1378 2169 
L 1441 2663 
Q 1497 2656 1531 2656 
Q 1891 2656 2178 2843 
Q 2466 3031 2466 3422 
Q 2466 3731 2256 3934 
Q 2047 4138 1716 4138 
Q 1388 4138 1169 3931 
Q 950 3725 888 3313 
L 325 3413 
Q 428 3978 793 4289 
Q 1159 4600 1703 4600 
Q 2078 4600 2393 4439 
Q 2709 4278 2876 4000 
Q 3044 3722 3044 3409 
Q 3044 3113 2884 2869 
Q 2725 2625 2413 2481 
Q 2819 2388 3044 2092 
Q 3269 1797 3269 1353 
Q 3269 753 2831 336 
Q 2394 -81 1725 -81 
Q 1122 -81 723 278 
Q 325 638 269 1209 
z
" id="ArialMT-33" transform="scale(0.015625)"/>
      </defs>
      <use xlink:href="#ArialMT-73"/>
      <use x="50" xlink:href="#ArialMT-70"/>
      <use x="105.615234" xlink:href="#ArialMT-6c"/>
      <use x="127.832031" xlink:href="#ArialMT-69"/>
      <use x="150.048828" xlink:href="#ArialMT-74"/>
      <use x="177.832031" xlink:href="#ArialMT-74"/>
      <use x="205.615234" xlink:href="#ArialMT-65"/>
      <use x="261.230469" xlink:href="#ArialMT-64"/>
      <use x="316.845703" xlink:href="#ArialMT-5f"/>
      <use x="372.460938" xlink:href="#ArialMT-33"/>
      <use x="428.076172" xlink:href="#ArialMT-73"/>
     </g>
    </g>
    <g id="line2d_15">
     <path d="M 378.722031 482.617537 
L 400.722031 482.617537 
" style="fill:none;stroke:#55a868;stroke-dasharray:1.5,1.5;stroke-dashoffset:0;stroke-width:1.5;"/>
    </g>
    <g id="line2d_16"/>
    <g id="text_19">
     <!-- splitted_1s -->
     <g style="fill:#262626;" transform="translate(409.522031 486.467537)scale(0.11 -0.11)">
      <use xlink:href="#ArialMT-73"/>
      <use x="50" xlink:href="#ArialMT-70"/>
      <use x="105.615234" xlink:href="#ArialMT-6c"/>
      <use x="127.832031" xlink:href="#ArialMT-69"/>
      <use x="150.048828" xlink:href="#ArialMT-74"/>
      <use x="177.832031" xlink:href="#ArialMT-74"/>
      <use x="205.615234" xlink:href="#ArialMT-65"/>
      <use x="261.230469" xlink:href="#ArialMT-64"/>
      <use x="316.845703" xlink:href="#ArialMT-5f"/>
      <use x="372.460938" xlink:href="#ArialMT-31"/>
      <use x="428.076172" xlink:href="#ArialMT-73"/>
     </g>
    </g>
    <g id="line2d_17">
     <path d="M 378.722031 498.311444 
L 400.722031 498.311444 
" style="fill:none;stroke:#c44e52;stroke-dasharray:4.5,1.875,2.25,1.875;stroke-dashoffset:0;stroke-width:1.5;"/>
    </g>
    <g id="line2d_18"/>
    <g id="text_20">
     <!-- overlap_1f_3s -->
     <g style="fill:#262626;" transform="translate(409.522031 502.161444)scale(0.11 -0.11)">
      <use xlink:href="#ArialMT-6f"/>
      <use x="55.615234" xlink:href="#ArialMT-76"/>
      <use x="105.615234" xlink:href="#ArialMT-65"/>
      <use x="161.230469" xlink:href="#ArialMT-72"/>
      <use x="194.53125" xlink:href="#ArialMT-6c"/>
      <use x="216.748047" xlink:href="#ArialMT-61"/>
      <use x="272.363281" xlink:href="#ArialMT-70"/>
      <use x="327.978516" xlink:href="#ArialMT-5f"/>
      <use x="383.59375" xlink:href="#ArialMT-31"/>
      <use x="439.208984" xlink:href="#ArialMT-66"/>
      <use x="466.992188" xlink:href="#ArialMT-5f"/>
      <use x="522.607422" xlink:href="#ArialMT-33"/>
      <use x="578.222656" xlink:href="#ArialMT-73"/>
     </g>
    </g>
    <g id="line2d_19">
     <path d="M 378.722031 514.00535 
L 400.722031 514.00535 
" style="fill:none;stroke:#8172b3;stroke-dasharray:7.5,1.5,1.5,1.5;stroke-dashoffset:0;stroke-width:1.5;"/>
    </g>
    <g id="line2d_20"/>
    <g id="text_21">
     <!-- overlap_10f_3s -->
     <g style="fill:#262626;" transform="translate(409.522031 517.85535)scale(0.11 -0.11)">
      <use xlink:href="#ArialMT-6f"/>
      <use x="55.615234" xlink:href="#ArialMT-76"/>
      <use x="105.615234" xlink:href="#ArialMT-65"/>
      <use x="161.230469" xlink:href="#ArialMT-72"/>
      <use x="194.53125" xlink:href="#ArialMT-6c"/>
      <use x="216.748047" xlink:href="#ArialMT-61"/>
      <use x="272.363281" xlink:href="#ArialMT-70"/>
      <use x="327.978516" xlink:href="#ArialMT-5f"/>
      <use x="383.59375" xlink:href="#ArialMT-31"/>
      <use x="439.208984" xlink:href="#ArialMT-30"/>
      <use x="494.824219" xlink:href="#ArialMT-66"/>
      <use x="522.607422" xlink:href="#ArialMT-5f"/>
      <use x="578.222656" xlink:href="#ArialMT-33"/>
      <use x="633.837891" xlink:href="#ArialMT-73"/>
     </g>
    </g>
   </g>
  </g>
 </g>
 <defs>
  <clipPath id="p49928cf28f">
   <rect height="458.4888" width="652.86" x="105.3" y="71.4528"/>
  </clipPath>
 </defs>
</svg>
