<?xml version="1.0" encoding="utf-8" standalone="no"?>
<!DOCTYPE svg PUBLIC "-//W3C//DTD SVG 1.1//EN"
  "http://www.w3.org/Graphics/SVG/1.1/DTD/svg11.dtd">
<svg height="595.44pt" version="1.1" viewBox="0 0 842.4 595.44" width="842.4pt" xmlns="http://www.w3.org/2000/svg" xmlns:xlink="http://www.w3.org/1999/xlink">
 <metadata>
  <rdf:RDF xmlns:cc="http://creativecommons.org/ns#" xmlns:dc="http://purl.org/dc/elements/1.1/" xmlns:rdf="http://www.w3.org/1999/02/22-rdf-syntax-ns#">
   <cc:Work>
    <dc:type rdf:resource="http://purl.org/dc/dcmitype/StillImage"/>
    <dc:date>2021-06-01T00:54:13.036624</dc:date>
    <dc:format>image/svg+xml</dc:format>
    <dc:creator>
     <cc:Agent>
      <dc:title>Matplotlib v3.4.1, https://matplotlib.org/</dc:title>
     </cc:Agent>
    </dc:creator>
   </cc:Work>
  </rdf:RDF>
 </metadata>
 <defs>
  <style type="text/css">*{stroke-linecap:butt;stroke-linejoin:round;}</style>
 </defs>
 <g id="figure_1">
  <g id="patch_1">
   <path d="M 0 595.44 
L 842.4 595.44 
L 842.4 0 
L 0 0 
z
" style="fill:#ffffff;"/>
  </g>
  <g id="axes_1">
   <g id="patch_2">
    <path d="M 105.3 529.9416 
L 758.16 529.9416 
L 758.16 71.4528 
L 105.3 71.4528 
z
" style="fill:#ffffff;"/>
   </g>
   <g id="matplotlib.axis_1">
    <g id="xtick_1">
     <g id="text_1">
      <!-- 0 -->
      <g style="fill:#262626;" transform="translate(131.916939 547.315194)scale(0.11 -0.11)">
       <defs>
        <path d="M 266 2259 
Q 266 3072 433 3567 
Q 600 4063 929 4331 
Q 1259 4600 1759 4600 
Q 2128 4600 2406 4451 
Q 2684 4303 2865 4023 
Q 3047 3744 3150 3342 
Q 3253 2941 3253 2259 
Q 3253 1453 3087 958 
Q 2922 463 2592 192 
Q 2263 -78 1759 -78 
Q 1097 -78 719 397 
Q 266 969 266 2259 
z
M 844 2259 
Q 844 1131 1108 757 
Q 1372 384 1759 384 
Q 2147 384 2411 759 
Q 2675 1134 2675 2259 
Q 2675 3391 2411 3762 
Q 2147 4134 1753 4134 
Q 1366 4134 1134 3806 
Q 844 3388 844 2259 
z
" id="ArialMT-30" transform="scale(0.015625)"/>
       </defs>
       <use xlink:href="#ArialMT-30"/>
      </g>
     </g>
    </g>
    <g id="xtick_2">
     <g id="text_2">
      <!-- 25 -->
      <g style="fill:#262626;" transform="translate(201.950676 547.315194)scale(0.11 -0.11)">
       <defs>
        <path d="M 3222 541 
L 3222 0 
L 194 0 
Q 188 203 259 391 
Q 375 700 629 1000 
Q 884 1300 1366 1694 
Q 2113 2306 2375 2664 
Q 2638 3022 2638 3341 
Q 2638 3675 2398 3904 
Q 2159 4134 1775 4134 
Q 1369 4134 1125 3890 
Q 881 3647 878 3216 
L 300 3275 
Q 359 3922 746 4261 
Q 1134 4600 1788 4600 
Q 2447 4600 2831 4234 
Q 3216 3869 3216 3328 
Q 3216 3053 3103 2787 
Q 2991 2522 2730 2228 
Q 2469 1934 1863 1422 
Q 1356 997 1212 845 
Q 1069 694 975 541 
L 3222 541 
z
" id="ArialMT-32" transform="scale(0.015625)"/>
        <path d="M 266 1200 
L 856 1250 
Q 922 819 1161 601 
Q 1400 384 1738 384 
Q 2144 384 2425 690 
Q 2706 997 2706 1503 
Q 2706 1984 2436 2262 
Q 2166 2541 1728 2541 
Q 1456 2541 1237 2417 
Q 1019 2294 894 2097 
L 366 2166 
L 809 4519 
L 3088 4519 
L 3088 3981 
L 1259 3981 
L 1013 2750 
Q 1425 3038 1878 3038 
Q 2478 3038 2890 2622 
Q 3303 2206 3303 1553 
Q 3303 931 2941 478 
Q 2500 -78 1738 -78 
Q 1113 -78 717 272 
Q 322 622 266 1200 
z
" id="ArialMT-35" transform="scale(0.015625)"/>
       </defs>
       <use xlink:href="#ArialMT-32"/>
       <use x="55.615234" xlink:href="#ArialMT-35"/>
      </g>
     </g>
    </g>
    <g id="xtick_3">
     <g id="text_3">
      <!-- 50 -->
      <g style="fill:#262626;" transform="translate(275.042928 547.315194)scale(0.11 -0.11)">
       <use xlink:href="#ArialMT-35"/>
       <use x="55.615234" xlink:href="#ArialMT-30"/>
      </g>
     </g>
    </g>
    <g id="xtick_4">
     <g id="text_4">
      <!-- 75 -->
      <g style="fill:#262626;" transform="translate(348.135181 547.315194)scale(0.11 -0.11)">
       <defs>
        <path d="M 303 3981 
L 303 4522 
L 3269 4522 
L 3269 4084 
Q 2831 3619 2401 2847 
Q 1972 2075 1738 1259 
Q 1569 684 1522 0 
L 944 0 
Q 953 541 1156 1306 
Q 1359 2072 1739 2783 
Q 2119 3494 2547 3981 
L 303 3981 
z
" id="ArialMT-37" transform="scale(0.015625)"/>
       </defs>
       <use xlink:href="#ArialMT-37"/>
       <use x="55.615234" xlink:href="#ArialMT-35"/>
      </g>
     </g>
    </g>
    <g id="xtick_5">
     <g id="text_5">
      <!-- 100 -->
      <g style="fill:#262626;" transform="translate(418.168918 547.315194)scale(0.11 -0.11)">
       <defs>
        <path d="M 2384 0 
L 1822 0 
L 1822 3584 
Q 1619 3391 1289 3197 
Q 959 3003 697 2906 
L 697 3450 
Q 1169 3672 1522 3987 
Q 1875 4303 2022 4600 
L 2384 4600 
L 2384 0 
z
" id="ArialMT-31" transform="scale(0.015625)"/>
       </defs>
       <use xlink:href="#ArialMT-31"/>
       <use x="55.615234" xlink:href="#ArialMT-30"/>
       <use x="111.230469" xlink:href="#ArialMT-30"/>
      </g>
     </g>
    </g>
    <g id="xtick_6">
     <g id="text_6">
      <!-- 125 -->
      <g style="fill:#262626;" transform="translate(491.261171 547.315194)scale(0.11 -0.11)">
       <use xlink:href="#ArialMT-31"/>
       <use x="55.615234" xlink:href="#ArialMT-32"/>
       <use x="111.230469" xlink:href="#ArialMT-35"/>
      </g>
     </g>
    </g>
    <g id="xtick_7">
     <g id="text_7">
      <!-- 150 -->
      <g style="fill:#262626;" transform="translate(564.353423 547.315194)scale(0.11 -0.11)">
       <use xlink:href="#ArialMT-31"/>
       <use x="55.615234" xlink:href="#ArialMT-35"/>
       <use x="111.230469" xlink:href="#ArialMT-30"/>
      </g>
     </g>
    </g>
    <g id="xtick_8">
     <g id="text_8">
      <!-- 175 -->
      <g style="fill:#262626;" transform="translate(637.445676 547.315194)scale(0.11 -0.11)">
       <use xlink:href="#ArialMT-31"/>
       <use x="55.615234" xlink:href="#ArialMT-37"/>
       <use x="111.230469" xlink:href="#ArialMT-35"/>
      </g>
     </g>
    </g>
    <g id="xtick_9">
     <g id="text_9">
      <!-- 200 -->
      <g style="fill:#262626;" transform="translate(710.537928 547.315194)scale(0.11 -0.11)">
       <use xlink:href="#ArialMT-32"/>
       <use x="55.615234" xlink:href="#ArialMT-30"/>
       <use x="111.230469" xlink:href="#ArialMT-30"/>
      </g>
     </g>
    </g>
   </g>
   <g id="matplotlib.axis_2">
    <g id="ytick_1">
     <g id="text_10">
      <!-- −25 -->
      <g style="fill:#262626;" transform="translate(77.14125 533.878397)scale(0.11 -0.11)">
       <defs>
        <path d="M 3381 1997 
L 356 1997 
L 356 2522 
L 3381 2522 
L 3381 1997 
z
" id="ArialMT-2212" transform="scale(0.015625)"/>
       </defs>
       <use xlink:href="#ArialMT-2212"/>
       <use x="58.398438" xlink:href="#ArialMT-32"/>
       <use x="114.013672" xlink:href="#ArialMT-35"/>
      </g>
     </g>
    </g>
    <g id="ytick_2">
     <g id="text_11">
      <!-- −20 -->
      <g style="fill:#262626;" transform="translate(77.14125 442.180637)scale(0.11 -0.11)">
       <use xlink:href="#ArialMT-2212"/>
       <use x="58.398438" xlink:href="#ArialMT-32"/>
       <use x="114.013672" xlink:href="#ArialMT-30"/>
      </g>
     </g>
    </g>
    <g id="ytick_3">
     <g id="text_12">
      <!-- −15 -->
      <g style="fill:#262626;" transform="translate(77.14125 350.482877)scale(0.11 -0.11)">
       <use xlink:href="#ArialMT-2212"/>
       <use x="58.398438" xlink:href="#ArialMT-31"/>
       <use x="114.013672" xlink:href="#ArialMT-35"/>
      </g>
     </g>
    </g>
    <g id="ytick_4">
     <g id="text_13">
      <!-- −10 -->
      <g style="fill:#262626;" transform="translate(77.14125 258.785117)scale(0.11 -0.11)">
       <use xlink:href="#ArialMT-2212"/>
       <use x="58.398438" xlink:href="#ArialMT-31"/>
       <use x="114.013672" xlink:href="#ArialMT-30"/>
      </g>
     </g>
    </g>
    <g id="ytick_5">
     <g id="text_14">
      <!-- −5 -->
      <g style="fill:#262626;" transform="translate(83.258281 167.087357)scale(0.11 -0.11)">
       <use xlink:href="#ArialMT-2212"/>
       <use x="58.398438" xlink:href="#ArialMT-35"/>
      </g>
     </g>
    </g>
    <g id="ytick_6">
     <g id="text_15">
      <!-- 0 -->
      <g style="fill:#262626;" transform="translate(89.682969 75.389597)scale(0.11 -0.11)">
       <use xlink:href="#ArialMT-30"/>
      </g>
     </g>
    </g>
   </g>
   <g id="line2d_1">
    <path clip-path="url(#p63ea7c8f16)" d="M 134.975455 555.891698 
L 137.899145 556.671645 
L 140.822835 557.579129 
L 143.746525 557.51683 
L 146.670215 558.284989 
L 149.593905 560.499568 
L 152.517595 560.967494 
L 155.441285 563.479332 
L 158.364975 565.777023 
L 161.288665 567.044171 
L 164.212356 570.051395 
L 167.136046 573.606124 
L 170.129024 596.44 
M 185.17934 596.44 
L 187.601876 538.109201 
L 190.189322 596.44 
M 201.492186 596.44 
L 202.220327 579.26486 
L 205.144017 566.579743 
L 206.108421 596.44 
M 209.850907 596.44 
L 210.991397 557.640694 
L 213.915087 577.099708 
L 215.775241 596.44 
M 220.76894 596.44 
L 222.686158 580.967928 
L 225.609848 563.053627 
L 228.160734 596.44 
M 232.026431 596.44 
L 234.380918 513.268177 
L 238.039671 596.44 
M 243.329956 596.44 
L 246.075678 493.527084 
L 248.999369 481.485946 
L 251.923059 574.211696 
L 254.846749 566.742049 
L 257.724323 596.44 
M 257.790265 596.44 
L 260.694129 526.732752 
L 262.476182 596.44 
M 264.951217 596.44 
L 266.541509 543.179785 
L 269.465199 528.469645 
L 272.388889 547.280726 
L 275.312579 567.288506 
L 278.23627 573.426047 
L 281.15996 561.962848 
L 284.08365 532.29351 
L 287.00734 544.946901 
L 289.93103 588.021978 
L 292.85472 540.313706 
L 295.77841 521.383763 
L 298.7021 576.083577 
L 301.62579 576.91386 
L 304.549481 544.511331 
L 307.473171 521.247481 
L 310.396861 545.298729 
L 313.320551 510.090111 
L 316.244241 544.727752 
L 319.167931 513.962913 
L 322.091621 536.366782 
L 325.015311 504.539567 
L 327.939001 543.348564 
L 330.862691 577.206572 
L 333.786382 548.020482 
L 336.710072 509.4122 
L 339.633762 571.733614 
L 342.402084 596.44 
M 342.611819 596.44 
L 345.481142 523.259106 
L 348.404832 487.736333 
L 351.328522 475.001124 
L 354.252212 549.331214 
L 357.175902 537.138893 
L 360.099592 522.189805 
L 362.939791 596.44 
M 363.101112 596.44 
L 365.946973 516.630062 
L 368.870663 519.555048 
L 371.794353 534.704921 
L 374.860846 596.44 
M 382.092729 596.44 
L 383.489113 552.845892 
L 386.412803 527.869914 
L 389.336494 567.757936 
L 392.260184 544.482683 
L 395.183874 560.622382 
L 398.107564 506.813857 
L 401.031254 479.290187 
L 403.954944 482.536988 
L 406.878634 530.415648 
L 409.802324 491.305964 
L 412.726014 476.55035 
L 415.649704 563.09193 
L 418.573395 542.786086 
L 421.497085 583.861852 
L 422.003662 596.44 
M 432.618821 596.44 
L 433.191845 591.98188 
L 436.115535 521.264201 
L 439.039225 535.463565 
L 441.962915 587.459396 
L 444.886605 584.46613 
L 447.810296 503.947112 
L 450.733986 466.556342 
L 453.657676 534.980003 
L 456.581366 515.138798 
L 458.319745 596.44 
M 460.927254 596.44 
L 462.428746 537.914153 
L 465.352436 551.400381 
L 468.276126 534.607571 
L 471.199816 531.418697 
L 473.733676 596.44 
M 474.528196 596.44 
L 477.047197 534.173436 
L 479.970887 451.132716 
L 482.894577 573.236246 
L 485.818267 577.743024 
L 488.741957 581.343018 
L 491.665647 537.042873 
L 494.589337 533.361027 
L 496.593519 596.44 
M 498.405781 596.44 
L 500.436717 530.60342 
L 503.360408 463.786002 
L 506.284098 547.841664 
L 507.84929 596.44 
M 515.831459 596.44 
L 517.978858 525.51713 
L 520.902548 573.487892 
L 523.826238 587.132719 
L 526.749928 546.963948 
L 529.312063 596.44 
M 534.077579 596.44 
L 535.520999 547.496203 
L 538.444689 520.853712 
L 541.368379 585.264336 
L 543.458604 596.44 
M 544.493601 596.44 
L 547.215759 536.248305 
L 550.139449 572.982747 
L 553.063139 477.576975 
L 555.986829 548.87735 
L 558.910519 527.243564 
L 561.83421 531.563864 
L 564.7579 548.331698 
L 567.68159 509.531167 
L 570.60528 515.876699 
L 573.52897 507.703046 
L 576.45266 485.811039 
L 579.37635 521.953236 
L 582.30004 538.658946 
L 585.22373 532.243978 
L 588.147421 518.224621 
L 591.071111 513.00901 
L 593.994801 534.790691 
L 596.918491 468.499896 
L 599.842181 530.410891 
L 602.765871 520.070057 
L 605.689561 520.802571 
L 608.613251 511.736301 
L 611.536941 594.804655 
L 612.188715 596.44 
M 614.569066 596.44 
L 617.384322 448.442096 
L 620.308012 482.508444 
L 623.231702 546.927779 
L 625.842648 596.44 
M 626.995958 596.44 
L 632.002772 561.614938 
L 634.926462 536.552665 
L 637.850152 573.731107 
L 640.773842 504.6302 
L 643.697532 447.053743 
L 646.621223 490.140503 
L 649.544913 511.836029 
L 652.468603 584.578905 
L 655.392293 544.578493 
L 658.315983 506.15445 
L 661.239673 567.1857 
L 664.163363 500.7553 
L 667.087053 557.393736 
L 670.010743 565.431876 
L 672.934433 552.848655 
L 675.858124 560.74058 
L 678.781814 526.938434 
L 681.705504 584.555398 
L 682.563332 596.44 
M 685.92429 596.44 
L 687.552884 560.448777 
L 688.562806 596.44 
M 699.371972 596.44 
L 702.171335 581.552582 
L 705.095025 582.132514 
L 708.018715 575.814756 
L 710.942405 577.725919 
L 713.866095 576.654484 
L 716.789785 577.780208 
L 719.713475 576.099318 
L 722.637165 573.720998 
L 725.560855 577.636091 
L 728.484545 578.311238 
L 728.484545 578.311238 
" style="fill:none;stroke:#4c72b0;stroke-linecap:round;stroke-width:1.5;"/>
   </g>
   <g id="line2d_2">
    <path clip-path="url(#p63ea7c8f16)" d="M 134.975455 546.927744 
L 137.899145 550.394149 
L 140.822835 551.093258 
L 143.746525 551.305691 
L 146.670215 552.497107 
L 149.593905 555.029863 
L 152.517595 553.542342 
L 155.441285 555.472289 
L 158.364975 555.088909 
L 161.288665 556.55086 
L 164.212356 557.83018 
L 167.136046 558.053877 
L 170.059736 577.42789 
L 172.983426 583.252222 
L 175.249614 596.44 
M 184.765291 596.44 
L 187.601876 511.639022 
L 190.341508 596.44 
M 201.761616 596.44 
L 202.220327 589.249739 
L 205.144017 594.488261 
L 205.220307 596.44 
M 210.497257 596.44 
L 210.991397 581.624081 
L 213.915087 561.038189 
L 216.031929 596.44 
M 219.572078 596.44 
L 219.762468 595.500091 
L 222.686158 579.279762 
L 225.609848 555.795643 
L 230.032788 596.44 
M 231.826616 596.44 
L 234.380918 506.486235 
L 238.724369 596.44 
M 243.042256 596.44 
L 243.151988 595.171979 
L 246.075678 501.75625 
L 248.999369 507.180131 
L 251.923059 570.970667 
L 254.846749 564.94639 
L 257.478033 596.44 
M 257.945338 596.44 
L 260.694129 541.435932 
L 262.210242 596.44 
M 265.34441 596.44 
L 266.541509 561.034061 
L 269.465199 542.519679 
L 272.388889 575.637723 
L 275.255469 596.44 
M 278.282719 596.44 
L 281.15996 587.189911 
L 284.08365 545.258887 
L 287.00734 558.860444 
L 288.980895 596.44 
M 291.241736 596.44 
L 292.85472 574.175527 
L 295.77841 537.896803 
L 298.777413 596.44 
M 301.934202 596.44 
L 304.549481 557.265464 
L 307.473171 536.122307 
L 310.396861 536.374197 
L 313.320551 526.049035 
L 316.244241 560.445104 
L 319.167931 547.180229 
L 322.091621 547.155183 
L 325.015311 500.834319 
L 327.939001 569.671128 
L 330.862691 575.854878 
L 333.786382 536.345479 
L 336.710072 543.87753 
L 339.633762 584.852343 
L 342.557452 585.605076 
L 345.481142 518.603804 
L 348.404832 496.975929 
L 351.328522 553.488193 
L 354.252212 591.310616 
L 357.175902 514.828946 
L 360.099592 433.675428 
L 363.023283 435.855096 
L 365.946973 479.041585 
L 368.870663 468.325276 
L 371.794353 476.93338 
L 374.718043 529.961713 
L 377.641733 563.082345 
L 380.565423 593.291773 
L 383.489113 517.090887 
L 386.412803 543.869555 
L 389.336494 572.279336 
L 392.260184 550.022662 
L 395.183874 567.581777 
L 398.107564 509.423289 
L 401.031254 476.693697 
L 403.954944 514.884249 
L 406.878634 527.595777 
L 409.802324 529.115899 
L 412.726014 539.321011 
L 415.649704 584.524406 
L 418.573395 545.404159 
L 422.248397 596.44 
M 425.849763 596.44 
L 427.344465 564.488538 
L 430.268155 572.444336 
L 433.191845 557.464745 
L 436.115535 508.837375 
L 439.039225 570.439882 
L 441.116174 596.44 
M 442.589614 596.44 
L 444.886605 557.589134 
L 447.810296 483.919849 
L 450.733986 501.753102 
L 453.657676 539.783515 
L 456.581366 552.00452 
L 457.866809 596.44 
M 460.949686 596.44 
L 462.428746 538.459001 
L 465.352436 567.107659 
L 468.276126 524.163932 
L 471.199816 536.590513 
L 474.123506 581.110541 
L 477.047197 566.75793 
L 479.970887 456.363718 
L 482.894577 566.545007 
L 485.818267 593.482694 
L 488.741957 595.155713 
L 491.665647 556.008076 
L 494.589337 541.224583 
L 496.504729 596.44 
M 498.431064 596.44 
L 500.436717 532.938015 
L 503.360408 464.380521 
L 506.284098 554.234664 
L 507.915379 596.44 
M 516.284368 596.44 
L 517.978858 554.426179 
L 520.902548 582.423792 
L 523.826238 582.728117 
L 526.749928 559.18086 
L 528.834019 596.44 
M 533.831832 596.44 
L 535.520999 543.135606 
L 538.444689 518.019289 
L 541.368379 553.750367 
L 544.292069 594.172777 
L 547.215759 504.207223 
L 550.139449 546.864115 
L 553.063139 489.266565 
L 555.986829 480.877995 
L 558.910519 447.698073 
L 561.83421 419.29172 
L 564.7579 496.315019 
L 567.68159 471.927159 
L 570.60528 572.783781 
L 573.52897 449.790641 
L 576.45266 448.979947 
L 579.37635 494.839076 
L 582.30004 461.103637 
L 585.22373 541.09827 
L 588.147421 507.824427 
L 591.071111 531.327714 
L 593.994801 558.896963 
L 596.918491 489.683246 
L 599.842181 582.614293 
L 602.765871 538.599375 
L 605.689561 563.488567 
L 608.861074 596.44 
M 616.059541 596.44 
L 617.384322 550.558415 
L 620.308012 538.662794 
L 623.231702 575.558703 
L 624.110378 596.44 
M 633.428391 596.44 
L 634.926462 585.656216 
L 637.850152 589.456295 
L 640.773842 535.912043 
L 643.697532 448.134832 
L 646.621223 511.244308 
L 649.544913 544.497724 
L 652.468603 591.11994 
L 655.392293 572.646065 
L 658.315983 483.599888 
L 661.239673 568.990978 
L 664.163363 496.031646 
L 667.087053 567.441613 
L 670.010743 580.830702 
L 672.934433 554.402113 
L 675.858124 564.839002 
L 678.781814 552.328154 
L 682.034018 596.44 
M 685.960319 596.44 
L 687.552884 558.268619 
L 688.67161 596.44 
M 700.209407 596.44 
L 702.171335 572.375495 
L 705.095025 572.887671 
L 708.018715 571.378603 
L 710.942405 573.619556 
L 713.866095 571.457203 
L 716.789785 573.350491 
L 719.713475 572.500828 
L 722.637165 568.621975 
L 725.560855 572.856504 
L 728.484545 568.723347 
L 728.484545 568.723347 
" style="fill:none;stroke:#dd8452;stroke-dasharray:6,2.25;stroke-dashoffset:0;stroke-width:1.5;"/>
   </g>
   <g id="line2d_3">
    <path clip-path="url(#p63ea7c8f16)" d="M 134.975455 548.359927 
L 137.899145 551.684943 
L 140.822835 553.592468 
L 143.746525 551.158565 
L 146.670215 559.385807 
L 149.593905 560.822677 
L 152.517595 562.071461 
L 155.441285 582.869646 
L 158.364975 583.791227 
L 161.288665 574.471807 
L 164.212356 576.259071 
L 167.136046 568.647056 
L 170.059736 571.914495 
L 172.983426 591.095069 
L 174.053966 596.44 
M 184.040646 596.44 
L 184.678186 573.206583 
L 187.601876 522.957125 
L 190.525567 558.634613 
L 193.449257 585.643554 
L 196.372947 582.221258 
L 197.944901 596.44 
M 200.701647 596.44 
L 202.220327 583.223993 
L 205.144017 592.134323 
L 208.067707 492.756966 
L 210.991397 553.374998 
L 213.915087 579.754684 
L 216.838777 564.102605 
L 219.762468 549.565964 
L 222.686158 541.45685 
L 225.609848 492.09686 
L 228.533538 540.054505 
L 231.457228 582.374365 
L 234.380918 518.990577 
L 237.304608 566.976905 
L 238.341164 596.44 
M 243.608763 596.44 
L 246.075678 491.406741 
L 248.999369 529.49781 
L 251.923059 528.909063 
L 254.846749 590.635643 
L 256.108697 596.44 
M 258.07448 596.44 
L 260.694129 530.58537 
L 262.992822 596.44 
M 264.525801 596.44 
L 266.541509 556.69029 
L 272.388889 583.819141 
L 275.312579 568.591648 
L 278.23627 549.847588 
L 281.15996 488.415503 
L 284.08365 469.027393 
L 287.00734 459.223536 
L 289.93103 495.623116 
L 292.85472 505.827003 
L 295.77841 532.055262 
L 298.241784 596.44 
M 303.617206 596.44 
L 304.549481 574.042918 
L 307.473171 561.415657 
L 310.396861 590.519055 
L 313.320551 583.051192 
L 316.244241 590.095343 
L 319.167931 577.475498 
L 322.091621 566.358914 
L 325.015311 524.449508 
L 327.939001 582.97679 
L 329.385429 596.44 
M 331.634204 596.44 
L 333.786382 558.083015 
L 336.710072 556.137957 
L 338.999248 596.44 
M 344.009493 596.44 
L 345.481142 551.736853 
L 348.404832 512.2079 
L 351.328522 594.857649 
L 354.252212 526.548513 
L 357.175902 582.083997 
L 360.099592 491.770393 
L 363.023283 556.858823 
L 365.946973 488.093793 
L 368.870663 536.542101 
L 371.794353 470.462759 
L 374.718043 575.429172 
L 377.479321 596.44 
M 377.818106 596.44 
L 380.565423 577.190097 
L 383.489113 560.160857 
L 386.412803 571.794759 
L 388.295534 596.44 
M 390.958403 596.44 
L 392.260184 585.503214 
L 395.183874 585.940673 
L 398.107564 531.366262 
L 401.031254 512.847613 
L 403.954944 523.480599 
L 406.878634 537.806135 
L 409.802324 571.978403 
L 412.726014 554.520485 
L 415.649704 564.709681 
L 418.573395 596.281367 
L 421.497085 529.373876 
L 424.420775 479.349163 
L 427.344465 445.04677 
L 430.268155 462.319224 
L 433.191845 471.485013 
L 436.115535 454.323934 
L 439.039225 537.2835 
L 441.962915 594.166166 
L 444.886605 540.240528 
L 447.810296 562.181018 
L 450.733986 506.339949 
L 453.657676 523.500153 
L 456.581366 569.083675 
L 457.078887 596.44 
M 462.622045 596.44 
L 465.352436 565.090857 
L 468.276126 560.300917 
L 471.199816 490.323868 
L 474.123506 549.760803 
L 477.047197 517.063218 
L 479.970887 497.98552 
L 482.894577 563.956284 
L 485.062031 596.44 
M 487.21543 596.44 
L 488.741957 584.056865 
L 491.665647 573.535814 
L 494.589337 480.029383 
L 497.513027 535.368245 
L 500.436717 482.014038 
L 503.360408 502.601225 
L 506.284098 573.812086 
L 509.207788 527.982585 
L 512.131478 539.151918 
L 515.055168 560.43531 
L 517.978858 554.682232 
L 520.260282 596.44 
M 536.35188 596.44 
L 538.444689 569.122153 
L 541.368379 589.952835 
L 543.730651 596.44 
M 544.336123 596.44 
L 547.215759 495.663063 
L 550.139449 578.554978 
L 553.063139 523.637484 
L 555.986829 476.605618 
L 558.910519 492.651537 
L 561.83421 466.789553 
L 564.7579 467.109549 
L 567.68159 464.976474 
L 570.60528 508.55813 
L 573.52897 540.561958 
L 576.45266 461.708615 
L 579.37635 518.307699 
L 582.30004 544.304145 
L 585.22373 584.799733 
L 588.147421 548.167048 
L 591.071111 565.802559 
L 593.994801 558.268269 
L 596.918491 476.86307 
L 599.842181 594.254491 
L 602.765871 584.52605 
L 605.689561 551.268192 
L 608.613251 562.428571 
L 610.719607 596.44 
M 615.109378 596.44 
L 617.384322 502.488275 
L 620.308012 473.252548 
L 623.231702 560.786718 
L 624.711009 596.44 
M 627.544125 596.44 
L 629.079082 557.963034 
L 631.647005 596.44 
M 634.982256 596.44 
L 637.850152 518.573161 
L 640.773842 498.554398 
L 643.697532 516.176687 
L 646.621223 576.036494 
L 649.544913 521.671508 
L 652.468603 594.950136 
L 655.392293 567.458193 
L 658.315983 491.074467 
L 661.239673 552.853972 
L 664.163363 494.923552 
L 667.087053 565.747955 
L 670.010743 575.073846 
L 672.934433 523.559479 
L 675.858124 577.297905 
L 678.781814 565.632171 
L 680.829556 596.44 
M 686.827632 596.44 
L 687.552884 579.367771 
L 688.21495 596.44 
M 701.490449 596.44 
L 702.171335 588.808537 
L 705.095025 579.453367 
L 708.018715 578.409112 
L 710.942405 584.649494 
L 713.866095 580.744546 
L 716.789785 581.744307 
L 719.713475 578.875429 
L 722.637165 578.83069 
L 725.560855 580.133202 
L 728.484545 571.29577 
L 728.484545 571.29577 
" style="fill:none;stroke:#55a868;stroke-dasharray:1.5,1.5;stroke-dashoffset:0;stroke-width:1.5;"/>
   </g>
   <g id="line2d_4">
    <path clip-path="url(#p63ea7c8f16)" d="M 134.975455 546.819271 
L 137.899145 550.26203 
L 140.822835 551.036555 
L 143.746525 551.112112 
L 146.670215 552.46496 
L 149.593905 554.996562 
L 152.517595 553.609608 
L 155.441285 555.69686 
L 158.364975 555.491108 
L 161.288665 557.007243 
L 164.212356 558.223704 
L 167.136046 558.615724 
L 170.059736 578.09793 
L 172.983426 583.897741 
L 175.140555 596.44 
M 184.799555 596.44 
L 187.601876 512.152947 
L 190.309767 596.44 
M 201.784572 596.44 
L 202.220327 589.572568 
L 205.144017 590.730858 
L 205.353834 596.44 
M 210.368439 596.44 
L 210.991397 576.445444 
L 213.915087 568.949142 
L 216.118548 596.44 
M 219.918616 596.44 
L 222.686158 580.246222 
L 225.609848 555.323414 
L 229.834934 596.44 
M 231.889102 596.44 
L 234.380918 507.302736 
L 238.531935 596.44 
M 243.183544 596.44 
L 246.075678 502.440877 
L 248.999369 507.208675 
L 251.923059 571.403543 
L 254.846749 565.402318 
L 257.661173 596.44 
M 257.833109 596.44 
L 260.694129 541.42995 
L 262.19999 596.44 
M 265.278662 596.44 
L 266.541509 557.057509 
L 269.465199 542.66607 
L 272.388889 572.265938 
L 274.98622 596.44 
M 278.124582 596.44 
L 278.23627 596.319355 
L 281.15996 585.051309 
L 284.08365 545.239298 
L 287.00734 568.394955 
L 288.675449 596.44 
M 291.192425 596.44 
L 292.85472 568.621485 
L 295.77841 537.918666 
L 298.698113 596.44 
M 302.006089 596.44 
L 304.549481 560.426845 
L 307.473171 536.542766 
L 310.396861 538.650166 
L 313.320551 525.252997 
L 316.244241 562.305931 
L 319.167931 549.421008 
L 322.091621 558.705973 
L 325.015311 497.147086 
L 327.939001 557.584481 
L 330.862691 587.19974 
L 333.786382 533.859421 
L 336.710072 550.392785 
L 339.212332 596.44 
M 342.744448 596.44 
L 345.481142 524.651902 
L 348.404832 469.531839 
L 351.328522 534.379642 
L 354.252212 575.413047 
L 357.175902 492.596478 
L 360.099592 456.88247 
L 363.023283 580.467015 
L 365.946973 491.423532 
L 368.870663 487.754908 
L 371.794353 502.101817 
L 374.718043 556.794215 
L 377.641733 574.546524 
L 379.683904 596.44 
M 380.87631 596.44 
L 383.489113 517.014841 
L 386.412803 547.732877 
L 389.336494 573.242648 
L 392.260184 549.528326 
L 395.183874 568.194311 
L 398.107564 508.823383 
L 401.031254 478.123817 
L 403.954944 512.922785 
L 406.878634 530.232423 
L 409.802324 532.503214 
L 412.726014 538.034694 
L 415.649704 587.602359 
L 418.573395 546.91648 
L 421.876372 596.44 
M 426.020946 596.44 
L 427.344465 566.232812 
L 430.268155 571.471439 
L 433.191845 554.211368 
L 436.115535 507.212453 
L 439.039225 570.266766 
L 441.074743 596.44 
M 442.612071 596.44 
L 444.886605 556.424967 
L 447.810296 483.298746 
L 450.733986 496.017165 
L 453.657676 545.541035 
L 456.581366 552.870378 
L 457.874912 596.44 
M 460.903796 596.44 
L 462.428746 536.578655 
L 465.352436 570.166164 
L 468.276126 523.695166 
L 471.199816 542.296508 
L 474.123506 589.533041 
L 477.047197 572.581177 
L 479.970887 452.989625 
L 482.894577 567.095312 
L 485.818267 593.04429 
L 488.364149 596.44 
M 488.778059 596.44 
L 491.665647 556.134354 
L 494.589337 541.74379 
L 496.469026 596.44 
M 498.445368 596.44 
L 500.436717 531.554874 
L 503.360408 462.443788 
L 506.284098 553.73718 
L 507.939027 596.44 
M 516.282402 596.44 
L 517.978858 554.02468 
L 520.902548 582.720667 
L 523.826238 581.505464 
L 526.749928 558.128559 
L 528.861546 596.44 
M 533.813016 596.44 
L 535.520999 542.514712 
L 538.444689 520.550051 
L 541.368379 555.746881 
L 544.292069 594.921278 
L 547.215759 504.062756 
L 550.139449 546.14206 
L 553.063139 487.658363 
L 555.986829 482.31525 
L 558.910519 447.764709 
L 561.83421 421.054813 
L 564.7579 497.154432 
L 567.68159 472.14288 
L 570.60528 568.27417 
L 573.52897 445.003045 
L 576.45266 499.634893 
L 579.37635 480.468555 
L 582.30004 476.384685 
L 585.22373 591.592624 
L 588.147421 496.349264 
L 591.071111 503.517034 
L 593.994801 567.292528 
L 596.918491 513.398057 
L 599.842181 569.966953 
L 602.765871 557.043447 
L 605.689561 567.327648 
L 608.613251 580.714149 
L 609.52614 596.44 
M 616.029111 596.44 
L 617.384322 542.70077 
L 620.308012 533.959883 
L 623.231702 577.104221 
L 624.147403 596.44 
M 633.388913 596.44 
L 634.926462 588.277787 
L 637.850152 589.109644 
L 640.773842 535.582042 
L 643.697532 447.457096 
L 646.621223 511.77345 
L 649.544913 541.333685 
L 652.468603 591.424685 
L 655.392293 572.509434 
L 658.315983 483.351286 
L 661.239673 569.396955 
L 664.163363 495.919606 
L 667.087053 565.72207 
L 670.010743 581.546006 
L 672.934433 553.522263 
L 675.858124 563.26627 
L 678.781814 551.597878 
L 682.239511 596.44 
M 685.918635 596.44 
L 687.552884 558.177706 
L 688.676877 596.44 
M 700.254391 596.44 
L 702.171335 571.080819 
L 705.095025 572.440803 
L 708.018715 571.080189 
L 710.942405 574.054741 
L 713.866095 571.900118 
L 716.789785 573.602661 
L 719.713475 572.843632 
L 722.637165 568.687178 
L 725.560855 573.434198 
L 728.484545 569.023265 
L 728.484545 569.023265 
" style="fill:none;stroke:#c44e52;stroke-dasharray:4.5,1.875,2.25,1.875;stroke-dashoffset:0;stroke-width:1.5;"/>
   </g>
   <g id="line2d_5">
    <path clip-path="url(#p63ea7c8f16)" d="M 134.975455 549.498733 
L 137.899145 553.025968 
L 140.822835 553.795037 
L 143.746525 554.255722 
L 146.670215 555.293646 
L 149.593905 558.356103 
L 152.517595 557.43788 
L 155.441285 559.234834 
L 158.364975 559.106947 
L 161.288665 561.251671 
L 164.212356 561.104056 
L 167.136046 560.839608 
L 170.059736 577.867028 
L 172.983426 583.562109 
L 175.580574 596.44 
M 184.906238 596.44 
L 187.601876 531.098036 
L 190.12045 596.44 
M 201.867945 596.44 
L 202.220327 589.547872 
L 205.144017 589.556128 
L 205.383867 596.44 
M 210.441212 596.44 
L 210.991397 578.584641 
L 213.915087 558.665501 
L 216.249385 596.44 
M 219.370689 596.44 
L 219.762468 594.964163 
L 222.686158 579.294349 
L 225.609848 562.545194 
L 229.532581 596.44 
M 231.966417 596.44 
L 234.380918 511.204921 
L 237.304608 568.452218 
L 238.547097 596.44 
M 243.204541 596.44 
L 246.075678 498.54219 
L 248.999369 497.916679 
L 251.923059 578.210216 
L 254.846749 566.996703 
L 257.31726 596.44 
M 258.015235 596.44 
L 260.694129 537.33562 
L 262.278086 596.44 
M 265.238618 596.44 
L 266.541509 556.25409 
L 269.465199 541.705452 
L 272.388889 570.256552 
L 275.216479 596.44 
M 279.371112 596.44 
L 281.15996 592.153072 
L 284.08365 552.530128 
L 287.00734 567.04585 
L 288.766352 596.44 
M 291.116488 596.44 
L 292.85472 567.902263 
L 295.77841 533.499058 
L 298.7021 591.573874 
L 300.721175 596.44 
M 301.781142 596.44 
L 304.549481 557.589239 
L 307.473171 534.754942 
L 310.396861 553.212831 
L 313.320551 529.600651 
L 316.244241 560.212033 
L 319.167931 548.251839 
L 322.091621 561.243381 
L 325.015311 507.726623 
L 327.939001 555.642221 
L 330.862691 590.312254 
L 333.786382 549.825131 
L 336.710072 521.178081 
L 339.633762 593.84596 
L 340.724945 596.44 
M 342.754732 596.44 
L 345.481142 536.235012 
L 348.404832 483.594851 
L 351.328522 469.305589 
L 354.252212 548.437337 
L 357.175902 559.161866 
L 360.099592 559.451674 
L 361.39882 596.44 
M 364.291413 596.44 
L 365.946973 536.063261 
L 368.870663 542.070292 
L 371.794353 519.066518 
L 375.044348 596.44 
M 382.523594 596.44 
L 383.489113 566.525559 
L 386.412803 546.552269 
L 389.336494 577.08005 
L 392.260184 565.095475 
L 395.183874 579.775847 
L 398.107564 492.852846 
L 401.031254 492.594449 
L 403.954944 510.067794 
L 406.878634 539.304675 
L 409.802324 541.097116 
L 412.726014 531.565368 
L 415.199008 596.44 
M 416.243935 596.44 
L 418.573395 550.091468 
L 421.186753 596.44 
M 426.47653 596.44 
L 427.344465 576.293876 
L 430.268155 574.889432 
L 433.191845 560.208045 
L 436.115535 505.072556 
L 439.039225 569.44883 
L 441.006917 596.44 
M 442.763337 596.44 
L 444.886605 561.65373 
L 447.810296 483.287972 
L 450.733986 492.037219 
L 453.657676 530.837576 
L 456.581366 540.396503 
L 458.482856 596.44 
M 460.361661 596.44 
L 462.428746 523.738366 
L 465.352436 563.595081 
L 468.276126 528.428788 
L 471.199816 551.943165 
L 473.852418 596.44 
M 474.432843 596.44 
L 477.047197 558.007144 
L 479.970887 455.550925 
L 482.894577 576.328646 
L 485.566261 596.44 
M 488.858137 596.44 
L 491.665647 561.090449 
L 494.589337 540.231433 
L 496.467198 596.44 
M 498.446394 596.44 
L 500.436717 529.686946 
L 503.360408 458.173789 
L 506.284098 552.042718 
L 507.847324 596.44 
M 516.362943 596.44 
L 517.978858 558.056605 
L 520.902548 583.325854 
L 523.826238 577.023907 
L 526.749928 546.880381 
L 529.282956 596.44 
M 533.25367 596.44 
L 535.520999 525.011775 
L 538.444689 497.721106 
L 541.368379 549.086215 
L 544.264194 596.44 
M 544.305376 596.44 
L 547.215759 496.743698 
L 550.139449 542.594257 
L 553.063139 447.012711 
L 555.986829 515.772319 
L 558.910519 473.165203 
L 561.83421 459.566375 
L 564.7579 532.416324 
L 567.68159 505.585047 
L 570.60528 512.977458 
L 573.52897 499.18673 
L 576.45266 547.906132 
L 579.37635 516.72073 
L 582.30004 482.963183 
L 585.22373 563.1168 
L 588.147421 508.548581 
L 591.071111 520.677448 
L 593.994801 540.270016 
L 596.918491 497.233906 
L 599.842181 544.649187 
L 602.765871 530.984037 
L 608.613251 565.093271 
L 611.258035 596.44 
M 615.489964 596.44 
L 617.384322 519.710918 
L 620.308012 516.047191 
L 623.231702 565.188171 
L 624.753709 596.44 
M 628.514089 596.44 
L 629.079082 589.545879 
L 632.002772 590.986352 
L 634.926462 578.162014 
L 637.850152 573.646001 
L 640.773842 515.217188 
L 643.697532 440.680016 
L 646.621223 496.005971 
L 649.544913 528.090812 
L 652.468603 569.795377 
L 655.392293 556.747132 
L 658.315983 483.44024 
L 661.239673 554.491697 
L 664.163363 488.943665 
L 667.087053 562.120887 
L 670.010743 577.245505 
L 672.934433 560.053854 
L 675.858124 561.46267 
L 678.781814 535.079625 
L 681.705504 588.529082 
L 682.518115 596.44 
M 685.512659 596.44 
L 687.552884 548.978896 
L 689.145814 596.44 
M 699.719234 596.44 
L 702.171335 566.594189 
L 705.095025 568.03022 
L 708.018715 566.65299 
L 710.942405 568.46593 
L 713.866095 566.279545 
L 716.789785 567.027695 
L 719.713475 566.847829 
L 722.637165 562.349166 
L 725.560855 566.850207 
L 728.484545 563.260463 
L 728.484545 563.260463 
" style="fill:none;stroke:#8172b3;stroke-dasharray:7.5,1.5,1.5,1.5;stroke-dashoffset:0;stroke-width:1.5;"/>
   </g>
   <g id="line2d_6"/>
   <g id="line2d_7"/>
   <g id="line2d_8"/>
   <g id="line2d_9"/>
   <g id="line2d_10"/>
   <g id="patch_3">
    <path d="M 105.3 529.9416 
L 105.3 71.4528 
" style="fill:none;stroke:#262626;stroke-linecap:square;stroke-linejoin:miter;stroke-width:1.25;"/>
   </g>
   <g id="patch_4">
    <path d="M 758.16 529.9416 
L 758.16 71.4528 
" style="fill:none;stroke:#262626;stroke-linecap:square;stroke-linejoin:miter;stroke-width:1.25;"/>
   </g>
   <g id="patch_5">
    <path d="M 105.3 529.9416 
L 758.16 529.9416 
" style="fill:none;stroke:#262626;stroke-linecap:square;stroke-linejoin:miter;stroke-width:1.25;"/>
   </g>
   <g id="patch_6">
    <path d="M 105.3 71.4528 
L 758.16 71.4528 
" style="fill:none;stroke:#262626;stroke-linecap:square;stroke-linejoin:miter;stroke-width:1.25;"/>
   </g>
   <g id="text_16">
    <!-- Activations for &gt;8&lt; -->
    <g style="fill:#262626;" transform="translate(382.037813 65.4528)scale(0.12 -0.12)">
     <defs>
      <path d="M -9 0 
L 1750 4581 
L 2403 4581 
L 4278 0 
L 3588 0 
L 3053 1388 
L 1138 1388 
L 634 0 
L -9 0 
z
M 1313 1881 
L 2866 1881 
L 2388 3150 
Q 2169 3728 2063 4100 
Q 1975 3659 1816 3225 
L 1313 1881 
z
" id="ArialMT-41" transform="scale(0.015625)"/>
      <path d="M 2588 1216 
L 3141 1144 
Q 3050 572 2676 248 
Q 2303 -75 1759 -75 
Q 1078 -75 664 370 
Q 250 816 250 1647 
Q 250 2184 428 2587 
Q 606 2991 970 3192 
Q 1334 3394 1763 3394 
Q 2303 3394 2647 3120 
Q 2991 2847 3088 2344 
L 2541 2259 
Q 2463 2594 2264 2762 
Q 2066 2931 1784 2931 
Q 1359 2931 1093 2626 
Q 828 2322 828 1663 
Q 828 994 1084 691 
Q 1341 388 1753 388 
Q 2084 388 2306 591 
Q 2528 794 2588 1216 
z
" id="ArialMT-63" transform="scale(0.015625)"/>
      <path d="M 1650 503 
L 1731 6 
Q 1494 -44 1306 -44 
Q 1000 -44 831 53 
Q 663 150 594 308 
Q 525 466 525 972 
L 525 2881 
L 113 2881 
L 113 3319 
L 525 3319 
L 525 4141 
L 1084 4478 
L 1084 3319 
L 1650 3319 
L 1650 2881 
L 1084 2881 
L 1084 941 
Q 1084 700 1114 631 
Q 1144 563 1211 522 
Q 1278 481 1403 481 
Q 1497 481 1650 503 
z
" id="ArialMT-74" transform="scale(0.015625)"/>
      <path d="M 425 3934 
L 425 4581 
L 988 4581 
L 988 3934 
L 425 3934 
z
M 425 0 
L 425 3319 
L 988 3319 
L 988 0 
L 425 0 
z
" id="ArialMT-69" transform="scale(0.015625)"/>
      <path d="M 1344 0 
L 81 3319 
L 675 3319 
L 1388 1331 
Q 1503 1009 1600 663 
Q 1675 925 1809 1294 
L 2547 3319 
L 3125 3319 
L 1869 0 
L 1344 0 
z
" id="ArialMT-76" transform="scale(0.015625)"/>
      <path d="M 2588 409 
Q 2275 144 1986 34 
Q 1697 -75 1366 -75 
Q 819 -75 525 192 
Q 231 459 231 875 
Q 231 1119 342 1320 
Q 453 1522 633 1644 
Q 813 1766 1038 1828 
Q 1203 1872 1538 1913 
Q 2219 1994 2541 2106 
Q 2544 2222 2544 2253 
Q 2544 2597 2384 2738 
Q 2169 2928 1744 2928 
Q 1347 2928 1158 2789 
Q 969 2650 878 2297 
L 328 2372 
Q 403 2725 575 2942 
Q 747 3159 1072 3276 
Q 1397 3394 1825 3394 
Q 2250 3394 2515 3294 
Q 2781 3194 2906 3042 
Q 3031 2891 3081 2659 
Q 3109 2516 3109 2141 
L 3109 1391 
Q 3109 606 3145 398 
Q 3181 191 3288 0 
L 2700 0 
Q 2613 175 2588 409 
z
M 2541 1666 
Q 2234 1541 1622 1453 
Q 1275 1403 1131 1340 
Q 988 1278 909 1158 
Q 831 1038 831 891 
Q 831 666 1001 516 
Q 1172 366 1500 366 
Q 1825 366 2078 508 
Q 2331 650 2450 897 
Q 2541 1088 2541 1459 
L 2541 1666 
z
" id="ArialMT-61" transform="scale(0.015625)"/>
      <path d="M 213 1659 
Q 213 2581 725 3025 
Q 1153 3394 1769 3394 
Q 2453 3394 2887 2945 
Q 3322 2497 3322 1706 
Q 3322 1066 3130 698 
Q 2938 331 2570 128 
Q 2203 -75 1769 -75 
Q 1072 -75 642 372 
Q 213 819 213 1659 
z
M 791 1659 
Q 791 1022 1069 705 
Q 1347 388 1769 388 
Q 2188 388 2466 706 
Q 2744 1025 2744 1678 
Q 2744 2294 2464 2611 
Q 2184 2928 1769 2928 
Q 1347 2928 1069 2612 
Q 791 2297 791 1659 
z
" id="ArialMT-6f" transform="scale(0.015625)"/>
      <path d="M 422 0 
L 422 3319 
L 928 3319 
L 928 2847 
Q 1294 3394 1984 3394 
Q 2284 3394 2536 3286 
Q 2788 3178 2913 3003 
Q 3038 2828 3088 2588 
Q 3119 2431 3119 2041 
L 3119 0 
L 2556 0 
L 2556 2019 
Q 2556 2363 2490 2533 
Q 2425 2703 2258 2804 
Q 2091 2906 1866 2906 
Q 1506 2906 1245 2678 
Q 984 2450 984 1813 
L 984 0 
L 422 0 
z
" id="ArialMT-6e" transform="scale(0.015625)"/>
      <path d="M 197 991 
L 753 1078 
Q 800 744 1014 566 
Q 1228 388 1613 388 
Q 2000 388 2187 545 
Q 2375 703 2375 916 
Q 2375 1106 2209 1216 
Q 2094 1291 1634 1406 
Q 1016 1563 777 1677 
Q 538 1791 414 1992 
Q 291 2194 291 2438 
Q 291 2659 392 2848 
Q 494 3038 669 3163 
Q 800 3259 1026 3326 
Q 1253 3394 1513 3394 
Q 1903 3394 2198 3281 
Q 2494 3169 2634 2976 
Q 2775 2784 2828 2463 
L 2278 2388 
Q 2241 2644 2061 2787 
Q 1881 2931 1553 2931 
Q 1166 2931 1000 2803 
Q 834 2675 834 2503 
Q 834 2394 903 2306 
Q 972 2216 1119 2156 
Q 1203 2125 1616 2013 
Q 2213 1853 2448 1751 
Q 2684 1650 2818 1456 
Q 2953 1263 2953 975 
Q 2953 694 2789 445 
Q 2625 197 2315 61 
Q 2006 -75 1616 -75 
Q 969 -75 630 194 
Q 291 463 197 991 
z
" id="ArialMT-73" transform="scale(0.015625)"/>
      <path id="ArialMT-20" transform="scale(0.015625)"/>
      <path d="M 556 0 
L 556 2881 
L 59 2881 
L 59 3319 
L 556 3319 
L 556 3672 
Q 556 4006 616 4169 
Q 697 4388 901 4523 
Q 1106 4659 1475 4659 
Q 1713 4659 2000 4603 
L 1916 4113 
Q 1741 4144 1584 4144 
Q 1328 4144 1222 4034 
Q 1116 3925 1116 3625 
L 1116 3319 
L 1763 3319 
L 1763 2881 
L 1116 2881 
L 1116 0 
L 556 0 
z
" id="ArialMT-66" transform="scale(0.015625)"/>
      <path d="M 416 0 
L 416 3319 
L 922 3319 
L 922 2816 
Q 1116 3169 1280 3281 
Q 1444 3394 1641 3394 
Q 1925 3394 2219 3213 
L 2025 2691 
Q 1819 2813 1613 2813 
Q 1428 2813 1281 2702 
Q 1134 2591 1072 2394 
Q 978 2094 978 1738 
L 978 0 
L 416 0 
z
" id="ArialMT-72" transform="scale(0.015625)"/>
      <path d="M 3384 2003 
L 350 706 
L 350 1266 
L 2753 2263 
L 350 3250 
L 350 3809 
L 3384 2528 
L 3384 2003 
z
" id="ArialMT-3e" transform="scale(0.015625)"/>
      <path d="M 1131 2484 
Q 781 2613 612 2850 
Q 444 3088 444 3419 
Q 444 3919 803 4259 
Q 1163 4600 1759 4600 
Q 2359 4600 2725 4251 
Q 3091 3903 3091 3403 
Q 3091 3084 2923 2848 
Q 2756 2613 2416 2484 
Q 2838 2347 3058 2040 
Q 3278 1734 3278 1309 
Q 3278 722 2862 322 
Q 2447 -78 1769 -78 
Q 1091 -78 675 323 
Q 259 725 259 1325 
Q 259 1772 486 2073 
Q 713 2375 1131 2484 
z
M 1019 3438 
Q 1019 3113 1228 2906 
Q 1438 2700 1772 2700 
Q 2097 2700 2305 2904 
Q 2513 3109 2513 3406 
Q 2513 3716 2298 3927 
Q 2084 4138 1766 4138 
Q 1444 4138 1231 3931 
Q 1019 3725 1019 3438 
z
M 838 1322 
Q 838 1081 952 856 
Q 1066 631 1291 507 
Q 1516 384 1775 384 
Q 2178 384 2440 643 
Q 2703 903 2703 1303 
Q 2703 1709 2433 1975 
Q 2163 2241 1756 2241 
Q 1359 2241 1098 1978 
Q 838 1716 838 1322 
z
" id="ArialMT-38" transform="scale(0.015625)"/>
      <path d="M 350 2003 
L 350 2528 
L 3384 3809 
L 3384 3250 
L 978 2263 
L 3384 1266 
L 3384 706 
L 350 2003 
z
" id="ArialMT-3c" transform="scale(0.015625)"/>
     </defs>
     <use xlink:href="#ArialMT-41"/>
     <use x="66.699219" xlink:href="#ArialMT-63"/>
     <use x="116.699219" xlink:href="#ArialMT-74"/>
     <use x="144.482422" xlink:href="#ArialMT-69"/>
     <use x="166.699219" xlink:href="#ArialMT-76"/>
     <use x="216.699219" xlink:href="#ArialMT-61"/>
     <use x="272.314453" xlink:href="#ArialMT-74"/>
     <use x="300.097656" xlink:href="#ArialMT-69"/>
     <use x="322.314453" xlink:href="#ArialMT-6f"/>
     <use x="377.929688" xlink:href="#ArialMT-6e"/>
     <use x="433.544922" xlink:href="#ArialMT-73"/>
     <use x="483.544922" xlink:href="#ArialMT-20"/>
     <use x="511.328125" xlink:href="#ArialMT-66"/>
     <use x="539.111328" xlink:href="#ArialMT-6f"/>
     <use x="594.726562" xlink:href="#ArialMT-72"/>
     <use x="628.027344" xlink:href="#ArialMT-20"/>
     <use x="655.810547" xlink:href="#ArialMT-3e"/>
     <use x="714.208984" xlink:href="#ArialMT-38"/>
     <use x="769.824219" xlink:href="#ArialMT-3c"/>
    </g>
   </g>
   <g id="legend_1">
    <g id="patch_7">
     <path d="M 640.044062 158.514363 
L 750.46 158.514363 
Q 752.66 158.514363 752.66 156.314363 
L 752.66 79.1528 
Q 752.66 76.9528 750.46 76.9528 
L 640.044062 76.9528 
Q 637.844062 76.9528 637.844062 79.1528 
L 637.844062 156.314363 
Q 637.844062 158.514363 640.044062 158.514363 
z
" style="fill:#ffffff;opacity:0.8;stroke:#cccccc;stroke-linejoin:miter;"/>
    </g>
    <g id="line2d_11">
     <path d="M 642.244062 85.376394 
L 664.244062 85.376394 
" style="fill:none;stroke:#4c72b0;stroke-linecap:round;stroke-width:1.5;"/>
    </g>
    <g id="line2d_12"/>
    <g id="text_17">
     <!-- regular -->
     <g style="fill:#262626;" transform="translate(673.044062 89.226394)scale(0.11 -0.11)">
      <defs>
       <path d="M 2694 1069 
L 3275 997 
Q 3138 488 2766 206 
Q 2394 -75 1816 -75 
Q 1088 -75 661 373 
Q 234 822 234 1631 
Q 234 2469 665 2931 
Q 1097 3394 1784 3394 
Q 2450 3394 2872 2941 
Q 3294 2488 3294 1666 
Q 3294 1616 3291 1516 
L 816 1516 
Q 847 969 1125 678 
Q 1403 388 1819 388 
Q 2128 388 2347 550 
Q 2566 713 2694 1069 
z
M 847 1978 
L 2700 1978 
Q 2663 2397 2488 2606 
Q 2219 2931 1791 2931 
Q 1403 2931 1139 2672 
Q 875 2413 847 1978 
z
" id="ArialMT-65" transform="scale(0.015625)"/>
       <path d="M 319 -275 
L 866 -356 
Q 900 -609 1056 -725 
Q 1266 -881 1628 -881 
Q 2019 -881 2231 -725 
Q 2444 -569 2519 -288 
Q 2563 -116 2559 434 
Q 2191 0 1641 0 
Q 956 0 581 494 
Q 206 988 206 1678 
Q 206 2153 378 2554 
Q 550 2956 876 3175 
Q 1203 3394 1644 3394 
Q 2231 3394 2613 2919 
L 2613 3319 
L 3131 3319 
L 3131 450 
Q 3131 -325 2973 -648 
Q 2816 -972 2473 -1159 
Q 2131 -1347 1631 -1347 
Q 1038 -1347 672 -1080 
Q 306 -813 319 -275 
z
M 784 1719 
Q 784 1066 1043 766 
Q 1303 466 1694 466 
Q 2081 466 2343 764 
Q 2606 1063 2606 1700 
Q 2606 2309 2336 2618 
Q 2066 2928 1684 2928 
Q 1309 2928 1046 2623 
Q 784 2319 784 1719 
z
" id="ArialMT-67" transform="scale(0.015625)"/>
       <path d="M 2597 0 
L 2597 488 
Q 2209 -75 1544 -75 
Q 1250 -75 995 37 
Q 741 150 617 320 
Q 494 491 444 738 
Q 409 903 409 1263 
L 409 3319 
L 972 3319 
L 972 1478 
Q 972 1038 1006 884 
Q 1059 663 1231 536 
Q 1403 409 1656 409 
Q 1909 409 2131 539 
Q 2353 669 2445 892 
Q 2538 1116 2538 1541 
L 2538 3319 
L 3100 3319 
L 3100 0 
L 2597 0 
z
" id="ArialMT-75" transform="scale(0.015625)"/>
       <path d="M 409 0 
L 409 4581 
L 972 4581 
L 972 0 
L 409 0 
z
" id="ArialMT-6c" transform="scale(0.015625)"/>
      </defs>
      <use xlink:href="#ArialMT-72"/>
      <use x="33.300781" xlink:href="#ArialMT-65"/>
      <use x="88.916016" xlink:href="#ArialMT-67"/>
      <use x="144.53125" xlink:href="#ArialMT-75"/>
      <use x="200.146484" xlink:href="#ArialMT-6c"/>
      <use x="222.363281" xlink:href="#ArialMT-61"/>
      <use x="277.978516" xlink:href="#ArialMT-72"/>
     </g>
    </g>
    <g id="line2d_13">
     <path d="M 642.244062 101.0978 
L 664.244062 101.0978 
" style="fill:none;stroke:#dd8452;stroke-dasharray:6,2.25;stroke-dashoffset:0;stroke-width:1.5;"/>
    </g>
    <g id="line2d_14"/>
    <g id="text_18">
     <!-- splitted_3s -->
     <g style="fill:#262626;" transform="translate(673.044062 104.9478)scale(0.11 -0.11)">
      <defs>
       <path d="M 422 -1272 
L 422 3319 
L 934 3319 
L 934 2888 
Q 1116 3141 1344 3267 
Q 1572 3394 1897 3394 
Q 2322 3394 2647 3175 
Q 2972 2956 3137 2557 
Q 3303 2159 3303 1684 
Q 3303 1175 3120 767 
Q 2938 359 2589 142 
Q 2241 -75 1856 -75 
Q 1575 -75 1351 44 
Q 1128 163 984 344 
L 984 -1272 
L 422 -1272 
z
M 931 1641 
Q 931 1000 1190 694 
Q 1450 388 1819 388 
Q 2194 388 2461 705 
Q 2728 1022 2728 1688 
Q 2728 2322 2467 2637 
Q 2206 2953 1844 2953 
Q 1484 2953 1207 2617 
Q 931 2281 931 1641 
z
" id="ArialMT-70" transform="scale(0.015625)"/>
       <path d="M 2575 0 
L 2575 419 
Q 2259 -75 1647 -75 
Q 1250 -75 917 144 
Q 584 363 401 755 
Q 219 1147 219 1656 
Q 219 2153 384 2558 
Q 550 2963 881 3178 
Q 1213 3394 1622 3394 
Q 1922 3394 2156 3267 
Q 2391 3141 2538 2938 
L 2538 4581 
L 3097 4581 
L 3097 0 
L 2575 0 
z
M 797 1656 
Q 797 1019 1065 703 
Q 1334 388 1700 388 
Q 2069 388 2326 689 
Q 2584 991 2584 1609 
Q 2584 2291 2321 2609 
Q 2059 2928 1675 2928 
Q 1300 2928 1048 2622 
Q 797 2316 797 1656 
z
" id="ArialMT-64" transform="scale(0.015625)"/>
       <path d="M -97 -1272 
L -97 -866 
L 3631 -866 
L 3631 -1272 
L -97 -1272 
z
" id="ArialMT-5f" transform="scale(0.015625)"/>
       <path d="M 269 1209 
L 831 1284 
Q 928 806 1161 595 
Q 1394 384 1728 384 
Q 2125 384 2398 659 
Q 2672 934 2672 1341 
Q 2672 1728 2419 1979 
Q 2166 2231 1775 2231 
Q 1616 2231 1378 2169 
L 1441 2663 
Q 1497 2656 1531 2656 
Q 1891 2656 2178 2843 
Q 2466 3031 2466 3422 
Q 2466 3731 2256 3934 
Q 2047 4138 1716 4138 
Q 1388 4138 1169 3931 
Q 950 3725 888 3313 
L 325 3413 
Q 428 3978 793 4289 
Q 1159 4600 1703 4600 
Q 2078 4600 2393 4439 
Q 2709 4278 2876 4000 
Q 3044 3722 3044 3409 
Q 3044 3113 2884 2869 
Q 2725 2625 2413 2481 
Q 2819 2388 3044 2092 
Q 3269 1797 3269 1353 
Q 3269 753 2831 336 
Q 2394 -81 1725 -81 
Q 1122 -81 723 278 
Q 325 638 269 1209 
z
" id="ArialMT-33" transform="scale(0.015625)"/>
      </defs>
      <use xlink:href="#ArialMT-73"/>
      <use x="50" xlink:href="#ArialMT-70"/>
      <use x="105.615234" xlink:href="#ArialMT-6c"/>
      <use x="127.832031" xlink:href="#ArialMT-69"/>
      <use x="150.048828" xlink:href="#ArialMT-74"/>
      <use x="177.832031" xlink:href="#ArialMT-74"/>
      <use x="205.615234" xlink:href="#ArialMT-65"/>
      <use x="261.230469" xlink:href="#ArialMT-64"/>
      <use x="316.845703" xlink:href="#ArialMT-5f"/>
      <use x="372.460938" xlink:href="#ArialMT-33"/>
      <use x="428.076172" xlink:href="#ArialMT-73"/>
     </g>
    </g>
    <g id="line2d_15">
     <path d="M 642.244062 116.6903 
L 664.244062 116.6903 
" style="fill:none;stroke:#55a868;stroke-dasharray:1.5,1.5;stroke-dashoffset:0;stroke-width:1.5;"/>
    </g>
    <g id="line2d_16"/>
    <g id="text_19">
     <!-- splitted_1s -->
     <g style="fill:#262626;" transform="translate(673.044062 120.5403)scale(0.11 -0.11)">
      <use xlink:href="#ArialMT-73"/>
      <use x="50" xlink:href="#ArialMT-70"/>
      <use x="105.615234" xlink:href="#ArialMT-6c"/>
      <use x="127.832031" xlink:href="#ArialMT-69"/>
      <use x="150.048828" xlink:href="#ArialMT-74"/>
      <use x="177.832031" xlink:href="#ArialMT-74"/>
      <use x="205.615234" xlink:href="#ArialMT-65"/>
      <use x="261.230469" xlink:href="#ArialMT-64"/>
      <use x="316.845703" xlink:href="#ArialMT-5f"/>
      <use x="372.460938" xlink:href="#ArialMT-31"/>
      <use x="428.076172" xlink:href="#ArialMT-73"/>
     </g>
    </g>
    <g id="line2d_17">
     <path d="M 642.244062 132.384206 
L 664.244062 132.384206 
" style="fill:none;stroke:#c44e52;stroke-dasharray:4.5,1.875,2.25,1.875;stroke-dashoffset:0;stroke-width:1.5;"/>
    </g>
    <g id="line2d_18"/>
    <g id="text_20">
     <!-- overlap_1f_3s -->
     <g style="fill:#262626;" transform="translate(673.044062 136.234206)scale(0.11 -0.11)">
      <use xlink:href="#ArialMT-6f"/>
      <use x="55.615234" xlink:href="#ArialMT-76"/>
      <use x="105.615234" xlink:href="#ArialMT-65"/>
      <use x="161.230469" xlink:href="#ArialMT-72"/>
      <use x="194.53125" xlink:href="#ArialMT-6c"/>
      <use x="216.748047" xlink:href="#ArialMT-61"/>
      <use x="272.363281" xlink:href="#ArialMT-70"/>
      <use x="327.978516" xlink:href="#ArialMT-5f"/>
      <use x="383.59375" xlink:href="#ArialMT-31"/>
      <use x="439.208984" xlink:href="#ArialMT-66"/>
      <use x="466.992188" xlink:href="#ArialMT-5f"/>
      <use x="522.607422" xlink:href="#ArialMT-33"/>
      <use x="578.222656" xlink:href="#ArialMT-73"/>
     </g>
    </g>
    <g id="line2d_19">
     <path d="M 642.244062 148.078113 
L 664.244062 148.078113 
" style="fill:none;stroke:#8172b3;stroke-dasharray:7.5,1.5,1.5,1.5;stroke-dashoffset:0;stroke-width:1.5;"/>
    </g>
    <g id="line2d_20"/>
    <g id="text_21">
     <!-- overlap_10f_3s -->
     <g style="fill:#262626;" transform="translate(673.044062 151.928112)scale(0.11 -0.11)">
      <use xlink:href="#ArialMT-6f"/>
      <use x="55.615234" xlink:href="#ArialMT-76"/>
      <use x="105.615234" xlink:href="#ArialMT-65"/>
      <use x="161.230469" xlink:href="#ArialMT-72"/>
      <use x="194.53125" xlink:href="#ArialMT-6c"/>
      <use x="216.748047" xlink:href="#ArialMT-61"/>
      <use x="272.363281" xlink:href="#ArialMT-70"/>
      <use x="327.978516" xlink:href="#ArialMT-5f"/>
      <use x="383.59375" xlink:href="#ArialMT-31"/>
      <use x="439.208984" xlink:href="#ArialMT-30"/>
      <use x="494.824219" xlink:href="#ArialMT-66"/>
      <use x="522.607422" xlink:href="#ArialMT-5f"/>
      <use x="578.222656" xlink:href="#ArialMT-33"/>
      <use x="633.837891" xlink:href="#ArialMT-73"/>
     </g>
    </g>
   </g>
  </g>
 </g>
 <defs>
  <clipPath id="p63ea7c8f16">
   <rect height="458.4888" width="652.86" x="105.3" y="71.4528"/>
  </clipPath>
 </defs>
</svg>
