<?xml version="1.0" encoding="utf-8" standalone="no"?>
<!DOCTYPE svg PUBLIC "-//W3C//DTD SVG 1.1//EN"
  "http://www.w3.org/Graphics/SVG/1.1/DTD/svg11.dtd">
<svg height="595.44pt" version="1.1" viewBox="0 0 842.4 595.44" width="842.4pt" xmlns="http://www.w3.org/2000/svg" xmlns:xlink="http://www.w3.org/1999/xlink">
 <metadata>
  <rdf:RDF xmlns:cc="http://creativecommons.org/ns#" xmlns:dc="http://purl.org/dc/elements/1.1/" xmlns:rdf="http://www.w3.org/1999/02/22-rdf-syntax-ns#">
   <cc:Work>
    <dc:type rdf:resource="http://purl.org/dc/dcmitype/StillImage"/>
    <dc:date>2021-06-04T22:03:18.762012</dc:date>
    <dc:format>image/svg+xml</dc:format>
    <dc:creator>
     <cc:Agent>
      <dc:title>Matplotlib v3.4.1, https://matplotlib.org/</dc:title>
     </cc:Agent>
    </dc:creator>
   </cc:Work>
  </rdf:RDF>
 </metadata>
 <defs>
  <style type="text/css">*{stroke-linecap:butt;stroke-linejoin:round;}</style>
 </defs>
 <g id="figure_1">
  <g id="patch_1">
   <path d="M 0 595.44 
L 842.4 595.44 
L 842.4 0 
L 0 0 
z
" style="fill:#ffffff;"/>
  </g>
  <g id="axes_1">
   <g id="patch_2">
    <path d="M 105.3 529.9416 
L 758.16 529.9416 
L 758.16 71.4528 
L 105.3 71.4528 
z
" style="fill:#ffffff;"/>
   </g>
   <g id="matplotlib.axis_1">
    <g id="xtick_1">
     <g id="text_1">
      <!-- 0 -->
      <g style="fill:#262626;" transform="translate(131.916939 547.315194)scale(0.11 -0.11)">
       <defs>
        <path d="M 266 2259 
Q 266 3072 433 3567 
Q 600 4063 929 4331 
Q 1259 4600 1759 4600 
Q 2128 4600 2406 4451 
Q 2684 4303 2865 4023 
Q 3047 3744 3150 3342 
Q 3253 2941 3253 2259 
Q 3253 1453 3087 958 
Q 2922 463 2592 192 
Q 2263 -78 1759 -78 
Q 1097 -78 719 397 
Q 266 969 266 2259 
z
M 844 2259 
Q 844 1131 1108 757 
Q 1372 384 1759 384 
Q 2147 384 2411 759 
Q 2675 1134 2675 2259 
Q 2675 3391 2411 3762 
Q 2147 4134 1753 4134 
Q 1366 4134 1134 3806 
Q 844 3388 844 2259 
z
" id="ArialMT-30" transform="scale(0.015625)"/>
       </defs>
       <use xlink:href="#ArialMT-30"/>
      </g>
     </g>
    </g>
    <g id="xtick_2">
     <g id="text_2">
      <!-- 25 -->
      <g style="fill:#262626;" transform="translate(201.950676 547.315194)scale(0.11 -0.11)">
       <defs>
        <path d="M 3222 541 
L 3222 0 
L 194 0 
Q 188 203 259 391 
Q 375 700 629 1000 
Q 884 1300 1366 1694 
Q 2113 2306 2375 2664 
Q 2638 3022 2638 3341 
Q 2638 3675 2398 3904 
Q 2159 4134 1775 4134 
Q 1369 4134 1125 3890 
Q 881 3647 878 3216 
L 300 3275 
Q 359 3922 746 4261 
Q 1134 4600 1788 4600 
Q 2447 4600 2831 4234 
Q 3216 3869 3216 3328 
Q 3216 3053 3103 2787 
Q 2991 2522 2730 2228 
Q 2469 1934 1863 1422 
Q 1356 997 1212 845 
Q 1069 694 975 541 
L 3222 541 
z
" id="ArialMT-32" transform="scale(0.015625)"/>
        <path d="M 266 1200 
L 856 1250 
Q 922 819 1161 601 
Q 1400 384 1738 384 
Q 2144 384 2425 690 
Q 2706 997 2706 1503 
Q 2706 1984 2436 2262 
Q 2166 2541 1728 2541 
Q 1456 2541 1237 2417 
Q 1019 2294 894 2097 
L 366 2166 
L 809 4519 
L 3088 4519 
L 3088 3981 
L 1259 3981 
L 1013 2750 
Q 1425 3038 1878 3038 
Q 2478 3038 2890 2622 
Q 3303 2206 3303 1553 
Q 3303 931 2941 478 
Q 2500 -78 1738 -78 
Q 1113 -78 717 272 
Q 322 622 266 1200 
z
" id="ArialMT-35" transform="scale(0.015625)"/>
       </defs>
       <use xlink:href="#ArialMT-32"/>
       <use x="55.615234" xlink:href="#ArialMT-35"/>
      </g>
     </g>
    </g>
    <g id="xtick_3">
     <g id="text_3">
      <!-- 50 -->
      <g style="fill:#262626;" transform="translate(275.042928 547.315194)scale(0.11 -0.11)">
       <use xlink:href="#ArialMT-35"/>
       <use x="55.615234" xlink:href="#ArialMT-30"/>
      </g>
     </g>
    </g>
    <g id="xtick_4">
     <g id="text_4">
      <!-- 75 -->
      <g style="fill:#262626;" transform="translate(348.135181 547.315194)scale(0.11 -0.11)">
       <defs>
        <path d="M 303 3981 
L 303 4522 
L 3269 4522 
L 3269 4084 
Q 2831 3619 2401 2847 
Q 1972 2075 1738 1259 
Q 1569 684 1522 0 
L 944 0 
Q 953 541 1156 1306 
Q 1359 2072 1739 2783 
Q 2119 3494 2547 3981 
L 303 3981 
z
" id="ArialMT-37" transform="scale(0.015625)"/>
       </defs>
       <use xlink:href="#ArialMT-37"/>
       <use x="55.615234" xlink:href="#ArialMT-35"/>
      </g>
     </g>
    </g>
    <g id="xtick_5">
     <g id="text_5">
      <!-- 100 -->
      <g style="fill:#262626;" transform="translate(418.168918 547.315194)scale(0.11 -0.11)">
       <defs>
        <path d="M 2384 0 
L 1822 0 
L 1822 3584 
Q 1619 3391 1289 3197 
Q 959 3003 697 2906 
L 697 3450 
Q 1169 3672 1522 3987 
Q 1875 4303 2022 4600 
L 2384 4600 
L 2384 0 
z
" id="ArialMT-31" transform="scale(0.015625)"/>
       </defs>
       <use xlink:href="#ArialMT-31"/>
       <use x="55.615234" xlink:href="#ArialMT-30"/>
       <use x="111.230469" xlink:href="#ArialMT-30"/>
      </g>
     </g>
    </g>
    <g id="xtick_6">
     <g id="text_6">
      <!-- 125 -->
      <g style="fill:#262626;" transform="translate(491.261171 547.315194)scale(0.11 -0.11)">
       <use xlink:href="#ArialMT-31"/>
       <use x="55.615234" xlink:href="#ArialMT-32"/>
       <use x="111.230469" xlink:href="#ArialMT-35"/>
      </g>
     </g>
    </g>
    <g id="xtick_7">
     <g id="text_7">
      <!-- 150 -->
      <g style="fill:#262626;" transform="translate(564.353423 547.315194)scale(0.11 -0.11)">
       <use xlink:href="#ArialMT-31"/>
       <use x="55.615234" xlink:href="#ArialMT-35"/>
       <use x="111.230469" xlink:href="#ArialMT-30"/>
      </g>
     </g>
    </g>
    <g id="xtick_8">
     <g id="text_8">
      <!-- 175 -->
      <g style="fill:#262626;" transform="translate(637.445676 547.315194)scale(0.11 -0.11)">
       <use xlink:href="#ArialMT-31"/>
       <use x="55.615234" xlink:href="#ArialMT-37"/>
       <use x="111.230469" xlink:href="#ArialMT-35"/>
      </g>
     </g>
    </g>
    <g id="xtick_9">
     <g id="text_9">
      <!-- 200 -->
      <g style="fill:#262626;" transform="translate(710.537928 547.315194)scale(0.11 -0.11)">
       <use xlink:href="#ArialMT-32"/>
       <use x="55.615234" xlink:href="#ArialMT-30"/>
       <use x="111.230469" xlink:href="#ArialMT-30"/>
      </g>
     </g>
    </g>
   </g>
   <g id="matplotlib.axis_2">
    <g id="ytick_1">
     <g id="text_10">
      <!-- −25 -->
      <g style="fill:#262626;" transform="translate(77.14125 533.878397)scale(0.11 -0.11)">
       <defs>
        <path d="M 3381 1997 
L 356 1997 
L 356 2522 
L 3381 2522 
L 3381 1997 
z
" id="ArialMT-2212" transform="scale(0.015625)"/>
       </defs>
       <use xlink:href="#ArialMT-2212"/>
       <use x="58.398438" xlink:href="#ArialMT-32"/>
       <use x="114.013672" xlink:href="#ArialMT-35"/>
      </g>
     </g>
    </g>
    <g id="ytick_2">
     <g id="text_11">
      <!-- −20 -->
      <g style="fill:#262626;" transform="translate(77.14125 442.180637)scale(0.11 -0.11)">
       <use xlink:href="#ArialMT-2212"/>
       <use x="58.398438" xlink:href="#ArialMT-32"/>
       <use x="114.013672" xlink:href="#ArialMT-30"/>
      </g>
     </g>
    </g>
    <g id="ytick_3">
     <g id="text_12">
      <!-- −15 -->
      <g style="fill:#262626;" transform="translate(77.14125 350.482877)scale(0.11 -0.11)">
       <use xlink:href="#ArialMT-2212"/>
       <use x="58.398438" xlink:href="#ArialMT-31"/>
       <use x="114.013672" xlink:href="#ArialMT-35"/>
      </g>
     </g>
    </g>
    <g id="ytick_4">
     <g id="text_13">
      <!-- −10 -->
      <g style="fill:#262626;" transform="translate(77.14125 258.785117)scale(0.11 -0.11)">
       <use xlink:href="#ArialMT-2212"/>
       <use x="58.398438" xlink:href="#ArialMT-31"/>
       <use x="114.013672" xlink:href="#ArialMT-30"/>
      </g>
     </g>
    </g>
    <g id="ytick_5">
     <g id="text_14">
      <!-- −5 -->
      <g style="fill:#262626;" transform="translate(83.258281 167.087357)scale(0.11 -0.11)">
       <use xlink:href="#ArialMT-2212"/>
       <use x="58.398438" xlink:href="#ArialMT-35"/>
      </g>
     </g>
    </g>
    <g id="ytick_6">
     <g id="text_15">
      <!-- 0 -->
      <g style="fill:#262626;" transform="translate(89.682969 75.389597)scale(0.11 -0.11)">
       <use xlink:href="#ArialMT-30"/>
      </g>
     </g>
    </g>
   </g>
   <g id="line2d_1">
    <path clip-path="url(#pa081433b33)" d="M 134.975455 562.213689 
L 140.822835 564.156614 
L 143.746525 564.047091 
L 146.670215 565.188206 
L 149.593905 566.983796 
L 152.517595 567.808447 
L 158.364975 572.973582 
L 161.288665 574.159017 
L 164.212356 576.700098 
L 167.136046 580.579091 
L 169.289878 596.44 
M 185.343627 596.44 
L 187.601876 542.087328 
L 190.032571 596.44 
M 201.590345 596.44 
L 202.220327 581.61754 
L 205.144017 569.784813 
L 206.037876 596.44 
M 209.746512 596.44 
L 210.991397 551.554923 
L 213.915087 576.955066 
L 215.734396 596.44 
M 221.227696 596.44 
L 222.686158 585.54484 
L 225.609848 565.927647 
L 228.256412 596.44 
M 232.01333 596.44 
L 234.380918 514.629385 
L 237.304608 575.455162 
L 238.188079 596.44 
M 243.31333 596.44 
L 246.075678 492.876458 
L 248.999369 481.765366 
L 251.923059 575.931239 
L 254.846749 564.774674 
L 257.770439 592.542433 
L 260.694129 518.973856 
L 262.654893 596.44 
M 264.777508 596.44 
L 266.541509 538.572231 
L 269.465199 526.549317 
L 272.388889 545.596093 
L 275.312579 563.312968 
L 278.23627 567.161948 
L 281.15996 554.444404 
L 284.08365 525.320718 
L 287.00734 538.784734 
L 289.93103 583.224657 
L 292.85472 539.490558 
L 295.77841 522.822452 
L 298.7021 579.151386 
L 301.62579 577.997013 
L 304.549481 542.592193 
L 307.473171 517.905499 
L 310.396861 543.088173 
L 313.320551 510.720799 
L 316.244241 544.579892 
L 319.167931 517.072453 
L 322.091621 538.231351 
L 325.015311 503.060406 
L 327.939001 541.353379 
L 330.862691 576.834106 
L 333.786382 551.170318 
L 336.710072 515.467679 
L 339.633762 574.218377 
L 342.557452 594.768451 
L 345.481142 523.222272 
L 348.404832 492.139606 
L 351.328522 476.108448 
L 354.252212 549.49471 
L 357.175902 537.072292 
L 360.099592 520.236876 
L 362.926081 596.44 
M 363.11846 596.44 
L 365.946973 518.560009 
L 368.870663 517.934953 
L 371.794353 532.098217 
L 375.101984 596.44 
M 382.03242 596.44 
L 383.489113 552.383912 
L 386.412803 531.78889 
L 389.336494 568.543585 
L 392.260184 545.742624 
L 395.183874 564.087178 
L 398.107564 513.591391 
L 401.031254 490.585588 
L 403.954944 493.988714 
L 406.878634 540.626146 
L 409.802324 497.971003 
L 412.726014 479.241075 
L 415.649704 562.422764 
L 418.573395 539.773966 
L 421.497085 581.266307 
L 422.091166 596.44 
M 432.659152 596.44 
L 433.191845 591.996677 
L 436.115535 519.364512 
L 439.039225 535.680301 
L 441.962915 585.187346 
L 444.886605 580.634499 
L 447.810296 501.705879 
L 450.733986 463.058315 
L 453.657676 528.599735 
L 456.581366 509.87453 
L 458.298668 596.44 
M 461.044855 596.44 
L 462.428746 541.785836 
L 465.352436 553.252603 
L 468.276126 534.090009 
L 471.199816 532.681962 
L 473.585302 596.44 
M 474.692373 596.44 
L 477.047197 536.893789 
L 479.970887 454.857063 
L 482.894577 572.763807 
L 485.818267 578.15068 
L 488.741957 581.323814 
L 491.665647 534.756026 
L 494.589337 530.952555 
L 496.632989 596.44 
M 498.382266 596.44 
L 500.436717 529.788633 
L 503.360408 463.141882 
L 507.759876 596.44 
M 515.856552 596.44 
L 517.978858 529.730776 
L 520.902548 577.901868 
L 523.826238 588.993336 
L 526.749928 544.063273 
L 529.507906 596.44 
M 534.071322 596.44 
L 535.520999 547.808573 
L 538.444689 521.508816 
L 541.368379 590.263212 
L 542.686613 596.44 
M 544.610333 596.44 
L 547.215759 534.857223 
L 550.139449 572.565401 
L 553.063139 478.750027 
L 555.986829 553.711959 
L 558.910519 530.597089 
L 561.83421 531.650614 
L 564.7579 545.574756 
L 567.68159 506.698458 
L 570.60528 511.79951 
L 573.52897 503.659228 
L 576.45266 482.918829 
L 579.37635 522.750638 
L 582.30004 537.677899 
L 585.22373 533.021862 
L 588.147421 521.122952 
L 591.071111 515.536135 
L 593.994801 539.860191 
L 596.918491 471.76751 
L 599.842181 526.114517 
L 602.765871 516.801253 
L 605.689561 519.772413 
L 608.613251 513.910933 
L 611.536941 595.967317 
L 611.73457 596.44 
M 614.587535 596.44 
L 617.384322 452.744975 
L 620.308012 486.715654 
L 625.554675 596.44 
M 628.051128 596.44 
L 629.079082 589.719099 
L 632.002772 568.084264 
L 634.926462 539.964991 
L 637.850152 575.832596 
L 640.773842 506.645184 
L 643.697532 449.208401 
L 646.621223 494.007743 
L 649.544913 510.974473 
L 652.468603 579.417163 
L 655.392293 541.928904 
L 658.315983 511.854533 
L 661.239673 575.664587 
L 664.163363 511.265436 
L 667.087053 563.560416 
L 670.010743 568.165347 
L 672.934433 553.186631 
L 675.858124 561.329956 
L 678.781814 529.443031 
L 681.705504 589.08187 
L 682.25018 596.44 
M 686.115396 596.44 
L 687.552884 565.354886 
L 688.457334 596.44 
M 698.717549 596.44 
L 699.247644 591.51196 
L 702.171335 584.123466 
L 705.095025 588.06322 
L 708.018715 582.708249 
L 710.942405 584.677164 
L 713.866095 583.495647 
L 716.789785 584.58702 
L 719.713475 583.090299 
L 722.637165 581.03446 
L 725.560855 584.454306 
L 728.484545 585.245727 
L 728.484545 585.245727 
" style="fill:none;stroke:#4c72b0;stroke-linecap:round;stroke-width:1.5;"/>
   </g>
   <g id="line2d_2">
    <path clip-path="url(#pa081433b33)" d="M 134.975455 552.746479 
L 137.899145 556.418006 
L 140.822835 557.216772 
L 143.746525 557.225762 
L 149.593905 561.054629 
L 152.517595 559.959338 
L 155.441285 561.730126 
L 158.364975 561.696616 
L 161.288665 563.054256 
L 167.136046 564.602817 
L 170.059736 583.139201 
L 172.983426 589.428171 
L 174.214083 596.44 
M 184.927143 596.44 
L 187.601876 516.091651 
L 190.21863 596.44 
M 201.925109 596.44 
L 202.220327 591.836259 
L 204.38237 596.44 
M 210.364326 596.44 
L 210.991397 576.280129 
L 213.915087 561.12305 
L 216.0476 596.44 
M 220.208005 596.44 
L 222.686158 584.960711 
L 225.609848 559.587466 
L 228.533538 582.911657 
L 230.084 596.44 
M 231.806386 596.44 
L 234.380918 508.090904 
L 237.304608 562.938193 
L 238.747604 596.44 
M 243.139618 596.44 
L 243.151988 596.293925 
L 246.075678 502.260381 
L 248.999369 508.900584 
L 251.923059 573.022134 
L 254.846749 563.427527 
L 257.770439 595.320189 
L 260.694129 533.650276 
L 262.404703 596.44 
M 265.170948 596.44 
L 266.541509 557.144784 
L 269.465199 540.830009 
L 272.388889 575.156364 
L 275.312579 594.53335 
L 278.23627 592.463064 
L 281.15996 580.747519 
L 284.08365 538.267381 
L 287.00734 552.773553 
L 289.253271 596.44 
M 290.992853 596.44 
L 292.85472 573.33405 
L 295.77841 538.972646 
L 298.528989 596.44 
M 302.074539 596.44 
L 304.549481 556.479955 
L 307.473171 534.390241 
L 310.396861 534.914415 
L 313.320551 527.246712 
L 316.244241 560.258346 
L 319.167931 548.48484 
L 322.091621 548.706158 
L 325.015311 500.054022 
L 327.939001 569.334236 
L 330.862691 575.475801 
L 333.786382 540.713771 
L 336.710072 551.398492 
L 339.633762 589.676564 
L 342.557452 585.072856 
L 345.481142 518.242111 
L 348.404832 499.042753 
L 351.328522 553.561931 
L 354.252212 591.366164 
L 357.175902 518.448283 
L 360.099592 437.715503 
L 363.023283 437.143547 
L 365.946973 480.175774 
L 368.870663 466.511113 
L 371.794353 475.459046 
L 374.718043 527.071603 
L 380.565423 591.071423 
L 383.489113 518.390216 
L 386.412803 547.685584 
L 389.336494 573.968796 
L 392.260184 551.227266 
L 395.183874 571.734663 
L 398.107564 517.509527 
L 401.031254 489.897987 
L 403.954944 528.920151 
L 406.878634 539.082483 
L 409.802324 535.528383 
L 412.726014 540.900319 
L 415.649704 581.900632 
L 418.573395 541.056679 
L 422.385841 596.44 
M 425.893779 596.44 
L 427.344465 567.02759 
L 430.268155 575.927426 
L 433.191845 558.72836 
L 436.115535 508.727713 
L 439.039225 571.920162 
L 441.113105 596.44 
M 442.528047 596.44 
L 444.886605 554.507263 
L 447.810296 482.199537 
L 450.733986 497.8201 
L 453.657676 533.600744 
L 456.581366 547.905713 
L 457.85888 596.44 
M 461.076678 596.44 
L 462.428746 542.636582 
L 465.352436 568.29096 
L 468.276126 522.565244 
L 471.199816 536.002711 
L 474.123506 582.806158 
L 477.047197 568.393521 
L 479.970887 459.980712 
L 482.894577 566.544378 
L 485.818267 593.603479 
L 488.741957 594.409836 
L 491.665647 552.997215 
L 494.589337 537.398234 
L 496.598388 596.44 
M 498.365439 596.44 
L 500.436717 531.12574 
L 503.360408 462.435358 
L 506.284098 554.163515 
L 507.85557 596.44 
M 516.305844 596.44 
L 517.978858 557.348892 
L 520.902548 586.910736 
L 523.826238 584.671322 
L 526.749928 556.206797 
L 529.030264 596.44 
M 533.829391 596.44 
L 535.520999 544.118542 
L 538.444689 520.993492 
L 541.368379 559.971616 
L 544.292069 595.848106 
L 547.215759 500.451219 
L 550.139449 546.167246 
L 553.063139 489.106917 
L 555.986829 484.378926 
L 558.910519 455.981947 
L 561.83421 425.69294 
L 564.7579 500.310705 
L 567.68159 471.100723 
L 570.60528 570.03373 
L 573.52897 452.78891 
L 576.45266 453.436319 
L 579.37635 500.112089 
L 582.30004 462.271057 
L 585.22373 542.210002 
L 588.147421 511.768343 
L 591.071111 534.582946 
L 593.994801 565.492147 
L 596.918491 494.808084 
L 599.842181 578.950356 
L 602.765871 535.734624 
L 605.689561 564.155704 
L 608.611358 596.44 
M 616.17088 596.44 
L 617.384322 555.186363 
L 620.308012 542.986137 
L 623.231702 577.224517 
L 623.982139 596.44 
M 633.840778 596.44 
L 634.926462 587.112466 
L 637.850152 589.337258 
L 640.773842 538.0419 
L 643.697532 451.524316 
L 646.621223 516.839766 
L 649.544913 544.200884 
L 652.468603 587.351763 
L 655.392293 573.015208 
L 658.315983 490.68605 
L 661.239673 577.449997 
L 664.163363 507.039792 
L 667.087053 573.418876 
L 670.010743 582.849708 
L 672.934433 555.144457 
L 675.858124 566.479525 
L 678.781814 555.919857 
L 681.575823 596.44 
M 686.183921 596.44 
L 687.552884 564.130204 
L 688.543906 596.44 
M 699.957393 596.44 
L 702.171335 574.726216 
L 705.095025 579.440949 
L 708.018715 578.697101 
L 710.942405 580.525957 
L 713.866095 578.584466 
L 716.789785 580.218938 
L 719.713475 579.774973 
L 722.637165 575.792544 
L 725.560855 579.902859 
L 728.484545 575.68533 
L 728.484545 575.68533 
" style="fill:none;stroke:#dd8452;stroke-dasharray:6,2.25;stroke-dashoffset:0;stroke-width:1.5;"/>
   </g>
   <g id="line2d_3">
    <path clip-path="url(#pa081433b33)" d="M 134.975455 556.024552 
L 137.899145 559.483331 
L 140.822835 561.077646 
L 143.746525 559.23228 
L 146.670215 567.210535 
L 149.593905 568.452987 
L 152.517595 568.764693 
L 155.441285 590.061203 
L 158.364975 590.929649 
L 161.288665 580.478349 
L 164.212356 582.248648 
L 167.136046 575.698518 
L 170.059736 575.962161 
L 173.68098 596.44 
M 183.747479 596.44 
L 184.678186 555.128541 
L 187.601876 520.486913 
L 190.525567 526.601437 
L 193.449257 551.449913 
L 196.372947 584.620391 
L 197.746943 596.44 
M 203.349875 596.44 
L 205.144017 563.320908 
L 208.067707 512.733508 
L 210.991397 548.635219 
L 213.915087 589.005334 
L 216.838777 576.133353 
L 219.762468 539.701872 
L 222.686158 541.817178 
L 225.609848 506.235044 
L 228.533538 552.751376 
L 231.457228 594.965667 
L 234.380918 489.131333 
L 237.304608 574.729819 
L 238.273213 596.44 
M 243.401223 596.44 
L 246.075678 486.690574 
L 248.999369 521.700541 
L 251.923059 526.906777 
L 254.846749 590.139663 
L 255.438239 596.44 
M 258.513581 596.44 
L 260.694129 523.5486 
L 262.834827 596.44 
M 264.542213 596.44 
L 266.541509 538.776898 
L 269.465199 558.224894 
L 272.388889 580.065621 
L 275.312579 577.180442 
L 278.23627 586.47737 
L 281.15996 550.295681 
L 284.08365 548.66873 
L 287.00734 399.510785 
L 289.93103 497.17577 
L 292.85472 506.697793 
L 295.77841 544.983385 
L 297.74982 596.44 
M 303.472693 596.44 
L 304.549481 571.353592 
L 307.473171 548.910686 
L 310.396861 585.236702 
L 313.320551 581.481363 
L 316.244241 590.307566 
L 319.167931 581.997002 
L 322.091621 580.731883 
L 325.015311 519.946963 
L 327.939001 579.370325 
L 329.43779 596.44 
M 331.98089 596.44 
L 333.786382 570.237313 
L 336.710072 571.039158 
L 337.976772 596.44 
M 344.788237 596.44 
L 345.481142 576.54017 
L 348.404832 564.663857 
L 351.328522 567.365741 
L 354.252212 559.697164 
L 356.513804 596.44 
M 357.381993 596.44 
L 360.099592 454.597057 
L 363.023283 488.761875 
L 365.946973 505.211811 
L 368.870663 561.482364 
L 371.794353 451.515921 
L 374.718043 531.294728 
L 377.641733 572.639069 
L 380.565423 554.446153 
L 383.489113 493.215238 
L 386.412803 558.992213 
L 389.336494 591.679164 
L 392.260184 571.843451 
L 395.183874 559.837538 
L 398.107564 562.040363 
L 401.031254 483.368391 
L 403.954944 541.689361 
L 406.878634 565.722035 
L 409.802324 550.535958 
L 412.726014 518.380877 
L 414.934146 596.44 
M 427.055438 596.44 
L 427.344465 590.053262 
L 430.268155 585.097272 
L 433.191845 493.232973 
L 436.115535 441.925791 
L 439.039225 577.852581 
L 441.962915 564.431171 
L 444.886605 572.170548 
L 447.810296 540.195719 
L 450.733986 488.449469 
L 453.657676 505.603901 
L 456.581366 574.63142 
L 457.056273 596.44 
M 461.834989 596.44 
L 462.428746 567.782737 
L 465.352436 581.331194 
L 468.276126 549.829433 
L 471.199816 510.194036 
L 474.123506 526.246391 
L 477.047197 563.64101 
L 479.970887 468.673606 
L 482.894577 538.676261 
L 488.588876 596.44 
M 488.811303 596.44 
L 491.665647 533.5396 
L 494.589337 516.709746 
L 497.513027 576.412388 
L 500.436717 495.745406 
L 503.360408 507.130845 
L 506.284098 502.990167 
L 508.626178 596.44 
M 510.686711 596.44 
L 512.131478 573.769515 
L 515.055168 499.416898 
L 517.978858 518.22742 
L 520.902548 517.811718 
L 523.826238 530.0634 
L 526.749928 588.769359 
L 529.673618 577.133464 
L 532.597309 566.347196 
L 535.520999 564.752566 
L 538.444689 551.124005 
L 541.368379 552.56091 
L 544.292069 580.422731 
L 547.215759 513.162537 
L 550.139449 589.849714 
L 553.063139 460.387773 
L 555.986829 449.107624 
L 558.910519 521.040645 
L 561.83421 460.420689 
L 564.7579 476.869821 
L 567.68159 525.915481 
L 570.60528 538.436963 
L 573.52897 497.420279 
L 576.45266 518.151373 
L 579.37635 485.457846 
L 582.30004 501.423556 
L 585.22373 581.73035 
L 588.147421 531.561415 
L 591.071111 403.112458 
L 593.994801 402.268287 
L 596.918491 415.25836 
L 599.842181 485.507623 
L 602.765871 492.502662 
L 605.689561 592.956281 
L 608.613251 562.260247 
L 611.144805 596.44 
M 614.955421 596.44 
L 617.384322 508.077296 
L 620.308012 517.70405 
L 623.231702 570.403817 
L 624.516733 596.44 
M 634.180208 596.44 
L 634.926462 583.970954 
L 637.850152 575.471253 
L 640.773842 538.127111 
L 643.697532 487.641468 
L 646.621223 521.279033 
L 649.544913 540.861561 
L 652.468603 524.451397 
L 654.950535 596.44 
M 655.77647 596.44 
L 658.315983 511.741128 
L 661.239673 484.246247 
L 664.163363 460.974701 
L 667.087053 509.723556 
L 670.010743 449.544243 
L 672.934433 505.706078 
L 675.182384 596.44 
M 677.354212 596.44 
L 678.781814 570.413752 
L 681.705504 535.406338 
L 684.629194 584.483025 
L 685.739079 596.44 
M 700.412535 596.44 
L 702.171335 579.37043 
L 705.095025 579.506817 
L 708.018715 578.02832 
L 710.942405 584.015238 
L 713.866095 579.577896 
L 716.789785 581.674207 
L 719.713475 579.513987 
L 722.637165 579.644987 
L 725.560855 581.62653 
L 728.484545 579.068938 
L 728.484545 579.068938 
" style="fill:none;stroke:#55a868;stroke-dasharray:1.5,1.5;stroke-dashoffset:0;stroke-width:1.5;"/>
   </g>
   <g id="line2d_4">
    <path clip-path="url(#pa081433b33)" d="M 134.975455 552.690091 
L 137.899145 556.342869 
L 140.822835 557.207013 
L 143.746525 557.077307 
L 149.593905 561.077541 
L 152.517595 560.08614 
L 155.441285 561.998457 
L 158.364975 562.143169 
L 161.288665 563.546389 
L 164.212356 564.239831 
L 167.136046 565.187682 
L 170.059736 583.821974 
L 172.983426 590.089397 
L 174.098855 596.44 
M 184.961041 596.44 
L 187.601876 516.599279 
L 190.18741 596.44 
M 201.9492 596.44 
L 202.220327 592.193334 
L 205.144017 594.182187 
L 205.229885 596.44 
M 210.247986 596.44 
L 210.991397 570.997426 
L 213.915087 569.120264 
L 216.137876 596.44 
M 220.547289 596.44 
L 222.686158 585.896529 
L 225.609848 559.040485 
L 229.879195 596.44 
M 231.872332 596.44 
L 234.380918 508.946617 
L 237.304608 566.953083 
L 238.567036 596.44 
M 243.217239 596.44 
L 246.075678 502.875607 
L 248.999369 508.822019 
L 251.923059 573.348987 
L 254.846749 563.91854 
L 257.770439 593.101587 
L 260.694129 533.52949 
L 262.397347 596.44 
M 265.104373 596.44 
L 266.541509 552.858869 
L 269.465199 540.752319 
L 272.388889 571.553782 
L 275.28309 596.44 
M 275.45874 596.44 
L 278.23627 591.621342 
L 281.15996 577.921806 
L 284.08365 538.024375 
L 287.00734 562.155167 
L 288.992149 596.44 
M 290.988719 596.44 
L 292.85472 567.828001 
L 295.77841 539.04404 
L 298.513657 596.44 
M 302.154982 596.44 
L 304.549481 559.636438 
L 307.473171 534.748471 
L 310.396861 537.315122 
L 313.320551 526.560196 
L 316.244241 562.258218 
L 319.167931 551.05499 
L 322.091621 559.522299 
L 325.015311 496.17363 
L 327.939001 557.136249 
L 330.862691 587.334553 
L 333.786382 538.315233 
L 336.710072 557.418816 
L 338.933993 596.44 
M 342.745094 596.44 
L 345.481142 524.0365 
L 348.404832 473.396735 
L 351.328522 537.028672 
L 354.252212 519.199721 
L 357.175902 539.49703 
L 360.099592 459.163301 
L 363.023283 579.235372 
L 365.946973 491.054843 
L 368.870663 481.362957 
L 371.794353 496.292317 
L 374.718043 551.949496 
L 377.641733 567.341745 
L 380.236205 596.44 
M 380.690254 596.44 
L 383.489113 513.65327 
L 386.412803 550.381416 
L 389.336494 573.107135 
L 392.260184 549.438638 
L 395.183874 571.917223 
L 398.107564 519.37735 
L 401.031254 493.120093 
L 403.954944 521.472367 
L 406.878634 528.946456 
L 409.802324 535.7851 
L 412.726014 537.55393 
L 415.649704 583.224098 
L 418.573395 540.819271 
L 422.115528 596.44 
M 426.197618 596.44 
L 427.344465 572.545743 
L 430.268155 574.83301 
L 433.191845 554.619269 
L 436.115535 507.495965 
L 439.039225 571.445379 
L 441.172198 596.44 
M 442.47894 596.44 
L 444.886605 553.207724 
L 447.810296 481.611 
L 450.733986 491.659226 
L 453.657676 537.543296 
L 456.581366 546.323466 
L 457.882556 596.44 
M 461.040807 596.44 
L 462.428746 539.962577 
L 465.352436 570.71283 
L 468.276126 523.708563 
L 471.199816 543.831706 
L 474.123506 591.211727 
L 477.047197 573.559286 
L 479.970887 458.167143 
L 482.894577 567.47278 
L 485.818267 593.665254 
L 488.741957 595.081626 
L 491.665647 555.080829 
L 494.589337 538.932804 
L 496.551232 596.44 
M 498.394122 596.44 
L 500.436717 531.083519 
L 503.360408 461.627461 
L 506.284098 551.218451 
L 507.889557 596.44 
M 516.187978 596.44 
L 517.978858 545.960304 
L 520.902548 583.998168 
L 523.826238 590.138683 
L 526.749928 556.764762 
L 529.258878 596.44 
M 533.939638 596.44 
L 535.520999 549.811104 
L 538.444689 528.154231 
L 541.368379 563.157517 
L 543.819153 596.44 
M 544.472207 596.44 
L 547.215759 498.625093 
L 550.139449 550.114345 
L 553.063139 450.853716 
L 555.986829 504.593471 
L 558.910519 523.771247 
L 561.83421 497.294142 
L 564.7579 497.216836 
L 567.68159 429.650533 
L 570.60528 518.230778 
L 573.52897 497.405028 
L 576.45266 471.442477 
L 579.37635 498.345918 
L 582.30004 472.105661 
L 585.22373 580.408004 
L 588.147421 504.984617 
L 591.071111 522.563635 
L 593.994801 576.437294 
L 596.918491 511.476225 
L 599.842181 573.330517 
L 602.765871 558.051918 
L 605.689561 569.797196 
L 608.763449 596.44 
M 616.175647 596.44 
L 617.384322 551.659827 
L 620.308012 541.758027 
L 623.231702 580.055582 
L 623.92748 596.44 
M 634.008641 596.44 
L 634.926462 589.633468 
L 637.850152 589.650329 
L 640.773842 538.32947 
L 643.697532 450.102033 
L 646.621223 519.971553 
L 649.544913 544.025705 
L 652.468603 588.076022 
L 655.392293 573.171394 
L 658.315983 490.711306 
L 661.239673 578.223473 
L 664.163363 507.479874 
L 667.087053 572.293817 
L 670.010743 583.084843 
L 672.934433 555.072783 
L 675.858124 566.184364 
L 678.781814 556.758885 
L 681.688212 596.44 
M 686.19015 596.44 
L 687.552884 564.887729 
L 688.513093 596.44 
M 700.077531 596.44 
L 702.171335 574.682141 
L 705.095025 579.526335 
L 708.018715 579.402681 
L 710.942405 581.866702 
L 713.866095 580.174129 
L 716.789785 581.126352 
L 719.713475 580.703725 
L 722.637165 577.080155 
L 725.560855 581.157099 
L 728.484545 577.42761 
L 728.484545 577.42761 
" style="fill:none;stroke:#c44e52;stroke-dasharray:4.5,1.875,2.25,1.875;stroke-dashoffset:0;stroke-width:1.5;"/>
   </g>
   <g id="line2d_5">
    <path clip-path="url(#pa081433b33)" d="M 134.975455 555.262339 
L 137.899145 558.986022 
L 140.822835 559.847962 
L 143.746525 560.149629 
L 146.670215 561.833632 
L 149.593905 564.344945 
L 152.517595 563.853163 
L 155.441285 565.47833 
L 158.364975 565.70367 
L 161.288665 567.844511 
L 164.212356 567.151664 
L 167.136046 567.466344 
L 170.059736 583.571168 
L 172.983426 589.759221 
L 174.363021 596.44 
M 185.110997 596.44 
L 187.601876 535.654171 
L 189.966754 596.44 
M 202.000801 596.44 
L 202.220327 592.184659 
L 205.144017 593.416721 
L 205.253618 596.44 
M 210.319175 596.44 
L 210.991397 573.263426 
L 213.915087 558.776912 
L 216.231502 596.44 
M 220.104396 596.44 
L 222.686158 584.66583 
L 225.609848 566.104505 
L 228.533538 586.831997 
L 229.581667 596.44 
M 231.955623 596.44 
L 234.380918 512.775659 
L 237.304608 564.987736 
L 238.60046 596.44 
M 243.233065 596.44 
L 246.075678 499.24728 
L 248.999369 499.38811 
L 251.923059 580.256436 
L 254.846749 565.278385 
L 257.707429 596.44 
M 257.800221 596.44 
L 260.694129 529.746377 
L 262.458996 596.44 
M 265.071794 596.44 
L 266.541509 552.174452 
L 269.465199 539.625686 
L 272.388889 568.920844 
L 275.312579 594.201041 
L 278.23627 594.08935 
L 281.15996 584.591113 
L 284.08365 544.970513 
L 287.00734 560.458432 
L 289.107819 596.44 
M 290.872965 596.44 
L 292.85472 566.771083 
L 295.77841 534.710482 
L 298.7021 595.626228 
L 299.120687 596.44 
M 301.944414 596.44 
L 304.549481 556.621694 
L 307.473171 532.263882 
L 310.396861 551.273509 
L 313.320551 530.834113 
L 316.244241 559.863353 
L 319.167931 549.841571 
L 322.091621 562.892579 
L 325.015311 506.524363 
L 327.939001 545.557441 
L 330.862691 539.932949 
L 333.786382 563.520119 
L 336.710072 541.566407 
L 339.633762 586.818284 
L 342.557452 589.752225 
L 345.481142 548.166908 
L 348.404832 489.641095 
L 351.328522 491.982651 
L 354.135241 596.44 
M 355.022128 596.44 
L 357.175902 584.261952 
L 360.099592 561.028534 
L 361.375732 596.44 
M 364.332391 596.44 
L 365.946973 540.05426 
L 368.870663 536.400537 
L 371.794353 511.273412 
L 374.718043 574.073491 
L 375.624966 596.44 
M 382.359229 596.44 
L 383.489113 562.023713 
L 386.412803 543.204621 
L 389.336494 574.183293 
L 392.260184 564.17225 
L 395.183874 583.299934 
L 398.107564 502.494431 
L 401.031254 500.305563 
L 403.954944 528.415881 
L 406.878634 550.376729 
L 409.802324 554.511985 
L 412.726014 529.668197 
L 415.107462 596.44 
M 416.391807 596.44 
L 418.573395 551.745493 
L 421.226914 596.44 
M 426.759679 596.44 
L 427.344465 583.394345 
L 430.268155 578.488376 
L 433.191845 559.621852 
L 436.115535 509.567686 
L 439.039225 568.262452 
L 441.295276 596.44 
M 442.489993 596.44 
L 444.886605 558.524322 
L 447.810296 482.085887 
L 450.733986 486.671719 
L 453.657676 519.017616 
L 456.581366 535.099354 
L 458.430258 596.44 
M 460.485512 596.44 
L 462.428746 525.765837 
L 465.352436 560.969593 
L 468.276126 527.022596 
L 471.199816 549.461969 
L 474.087383 596.44 
M 474.162553 596.44 
L 477.047197 553.02212 
L 479.970887 458.395527 
L 482.894577 571.21738 
L 485.818267 593.496301 
L 488.741957 516.251194 
L 491.665647 569.282816 
L 494.589337 480.328391 
L 497.513027 547.262327 
L 500.436717 530.297766 
L 503.360408 518.025446 
L 506.284098 575.023405 
L 509.207788 509.536519 
L 512.131478 537.392603 
L 515.055168 482.2632 
L 517.978858 490.027378 
L 520.902548 515.847526 
L 523.826238 518.264184 
L 526.749928 561.984326 
L 532.597309 480.537186 
L 535.520999 515.669443 
L 538.444689 479.123578 
L 541.368379 439.839764 
L 544.292069 424.545913 
L 547.215759 457.416299 
L 550.139449 465.108243 
L 553.063139 415.890202 
L 555.986829 429.962764 
L 558.910519 423.117613 
L 561.83421 425.952141 
L 564.7579 449.4456 
L 567.68159 438.666467 
L 570.60528 485.825275 
L 573.52897 494.141751 
L 576.45266 483.347928 
L 579.37635 496.071488 
L 582.30004 454.755901 
L 585.22373 556.108923 
L 588.147421 495.394417 
L 591.071111 510.144959 
L 593.994801 555.891383 
L 596.918491 507.056967 
L 599.842181 552.830046 
L 602.765871 549.545326 
L 605.689561 566.215532 
L 608.613251 579.34353 
L 609.92053 596.44 
M 615.76618 596.44 
L 617.384322 536.284894 
L 620.308012 538.08573 
L 623.231702 571.150953 
L 624.351834 596.44 
M 633.479907 596.44 
L 634.926462 584.341076 
L 637.850152 581.110471 
L 640.773842 520.402226 
L 643.697532 442.343487 
L 646.621223 507.343733 
L 649.544913 531.24894 
L 652.468603 576.505714 
L 655.392293 559.59037 
L 658.315983 489.384482 
L 661.239673 564.422356 
L 664.163363 500.40704 
L 667.087053 563.978706 
L 670.010743 577.303711 
L 672.934433 555.161142 
L 675.858124 559.56326 
L 678.781814 539.633171 
L 681.705504 592.205332 
L 682.121827 596.44 
M 685.766706 596.44 
L 687.552884 556.392471 
L 688.859107 596.44 
M 699.600847 596.44 
L 702.171335 568.872641 
L 705.095025 576.042825 
L 708.018715 574.9801 
L 710.942405 576.983015 
L 713.866095 575.265012 
L 716.789785 576.158259 
L 719.713475 576.536077 
L 722.637165 571.494806 
L 725.560855 576.734063 
L 728.484545 572.66345 
L 728.484545 572.66345 
" style="fill:none;stroke:#8172b3;stroke-dasharray:7.5,1.5,1.5,1.5;stroke-dashoffset:0;stroke-width:1.5;"/>
   </g>
   <g id="line2d_6"/>
   <g id="line2d_7"/>
   <g id="line2d_8"/>
   <g id="line2d_9"/>
   <g id="line2d_10"/>
   <g id="patch_3">
    <path d="M 105.3 529.9416 
L 105.3 71.4528 
" style="fill:none;stroke:#262626;stroke-linecap:square;stroke-linejoin:miter;stroke-width:1.25;"/>
   </g>
   <g id="patch_4">
    <path d="M 758.16 529.9416 
L 758.16 71.4528 
" style="fill:none;stroke:#262626;stroke-linecap:square;stroke-linejoin:miter;stroke-width:1.25;"/>
   </g>
   <g id="patch_5">
    <path d="M 105.3 529.9416 
L 758.16 529.9416 
" style="fill:none;stroke:#262626;stroke-linecap:square;stroke-linejoin:miter;stroke-width:1.25;"/>
   </g>
   <g id="patch_6">
    <path d="M 105.3 71.4528 
L 758.16 71.4528 
" style="fill:none;stroke:#262626;stroke-linecap:square;stroke-linejoin:miter;stroke-width:1.25;"/>
   </g>
   <g id="text_16">
    <!-- Activations for &gt;6&lt; -->
    <g style="fill:#262626;" transform="translate(382.037813 65.4528)scale(0.12 -0.12)">
     <defs>
      <path d="M -9 0 
L 1750 4581 
L 2403 4581 
L 4278 0 
L 3588 0 
L 3053 1388 
L 1138 1388 
L 634 0 
L -9 0 
z
M 1313 1881 
L 2866 1881 
L 2388 3150 
Q 2169 3728 2063 4100 
Q 1975 3659 1816 3225 
L 1313 1881 
z
" id="ArialMT-41" transform="scale(0.015625)"/>
      <path d="M 2588 1216 
L 3141 1144 
Q 3050 572 2676 248 
Q 2303 -75 1759 -75 
Q 1078 -75 664 370 
Q 250 816 250 1647 
Q 250 2184 428 2587 
Q 606 2991 970 3192 
Q 1334 3394 1763 3394 
Q 2303 3394 2647 3120 
Q 2991 2847 3088 2344 
L 2541 2259 
Q 2463 2594 2264 2762 
Q 2066 2931 1784 2931 
Q 1359 2931 1093 2626 
Q 828 2322 828 1663 
Q 828 994 1084 691 
Q 1341 388 1753 388 
Q 2084 388 2306 591 
Q 2528 794 2588 1216 
z
" id="ArialMT-63" transform="scale(0.015625)"/>
      <path d="M 1650 503 
L 1731 6 
Q 1494 -44 1306 -44 
Q 1000 -44 831 53 
Q 663 150 594 308 
Q 525 466 525 972 
L 525 2881 
L 113 2881 
L 113 3319 
L 525 3319 
L 525 4141 
L 1084 4478 
L 1084 3319 
L 1650 3319 
L 1650 2881 
L 1084 2881 
L 1084 941 
Q 1084 700 1114 631 
Q 1144 563 1211 522 
Q 1278 481 1403 481 
Q 1497 481 1650 503 
z
" id="ArialMT-74" transform="scale(0.015625)"/>
      <path d="M 425 3934 
L 425 4581 
L 988 4581 
L 988 3934 
L 425 3934 
z
M 425 0 
L 425 3319 
L 988 3319 
L 988 0 
L 425 0 
z
" id="ArialMT-69" transform="scale(0.015625)"/>
      <path d="M 1344 0 
L 81 3319 
L 675 3319 
L 1388 1331 
Q 1503 1009 1600 663 
Q 1675 925 1809 1294 
L 2547 3319 
L 3125 3319 
L 1869 0 
L 1344 0 
z
" id="ArialMT-76" transform="scale(0.015625)"/>
      <path d="M 2588 409 
Q 2275 144 1986 34 
Q 1697 -75 1366 -75 
Q 819 -75 525 192 
Q 231 459 231 875 
Q 231 1119 342 1320 
Q 453 1522 633 1644 
Q 813 1766 1038 1828 
Q 1203 1872 1538 1913 
Q 2219 1994 2541 2106 
Q 2544 2222 2544 2253 
Q 2544 2597 2384 2738 
Q 2169 2928 1744 2928 
Q 1347 2928 1158 2789 
Q 969 2650 878 2297 
L 328 2372 
Q 403 2725 575 2942 
Q 747 3159 1072 3276 
Q 1397 3394 1825 3394 
Q 2250 3394 2515 3294 
Q 2781 3194 2906 3042 
Q 3031 2891 3081 2659 
Q 3109 2516 3109 2141 
L 3109 1391 
Q 3109 606 3145 398 
Q 3181 191 3288 0 
L 2700 0 
Q 2613 175 2588 409 
z
M 2541 1666 
Q 2234 1541 1622 1453 
Q 1275 1403 1131 1340 
Q 988 1278 909 1158 
Q 831 1038 831 891 
Q 831 666 1001 516 
Q 1172 366 1500 366 
Q 1825 366 2078 508 
Q 2331 650 2450 897 
Q 2541 1088 2541 1459 
L 2541 1666 
z
" id="ArialMT-61" transform="scale(0.015625)"/>
      <path d="M 213 1659 
Q 213 2581 725 3025 
Q 1153 3394 1769 3394 
Q 2453 3394 2887 2945 
Q 3322 2497 3322 1706 
Q 3322 1066 3130 698 
Q 2938 331 2570 128 
Q 2203 -75 1769 -75 
Q 1072 -75 642 372 
Q 213 819 213 1659 
z
M 791 1659 
Q 791 1022 1069 705 
Q 1347 388 1769 388 
Q 2188 388 2466 706 
Q 2744 1025 2744 1678 
Q 2744 2294 2464 2611 
Q 2184 2928 1769 2928 
Q 1347 2928 1069 2612 
Q 791 2297 791 1659 
z
" id="ArialMT-6f" transform="scale(0.015625)"/>
      <path d="M 422 0 
L 422 3319 
L 928 3319 
L 928 2847 
Q 1294 3394 1984 3394 
Q 2284 3394 2536 3286 
Q 2788 3178 2913 3003 
Q 3038 2828 3088 2588 
Q 3119 2431 3119 2041 
L 3119 0 
L 2556 0 
L 2556 2019 
Q 2556 2363 2490 2533 
Q 2425 2703 2258 2804 
Q 2091 2906 1866 2906 
Q 1506 2906 1245 2678 
Q 984 2450 984 1813 
L 984 0 
L 422 0 
z
" id="ArialMT-6e" transform="scale(0.015625)"/>
      <path d="M 197 991 
L 753 1078 
Q 800 744 1014 566 
Q 1228 388 1613 388 
Q 2000 388 2187 545 
Q 2375 703 2375 916 
Q 2375 1106 2209 1216 
Q 2094 1291 1634 1406 
Q 1016 1563 777 1677 
Q 538 1791 414 1992 
Q 291 2194 291 2438 
Q 291 2659 392 2848 
Q 494 3038 669 3163 
Q 800 3259 1026 3326 
Q 1253 3394 1513 3394 
Q 1903 3394 2198 3281 
Q 2494 3169 2634 2976 
Q 2775 2784 2828 2463 
L 2278 2388 
Q 2241 2644 2061 2787 
Q 1881 2931 1553 2931 
Q 1166 2931 1000 2803 
Q 834 2675 834 2503 
Q 834 2394 903 2306 
Q 972 2216 1119 2156 
Q 1203 2125 1616 2013 
Q 2213 1853 2448 1751 
Q 2684 1650 2818 1456 
Q 2953 1263 2953 975 
Q 2953 694 2789 445 
Q 2625 197 2315 61 
Q 2006 -75 1616 -75 
Q 969 -75 630 194 
Q 291 463 197 991 
z
" id="ArialMT-73" transform="scale(0.015625)"/>
      <path id="ArialMT-20" transform="scale(0.015625)"/>
      <path d="M 556 0 
L 556 2881 
L 59 2881 
L 59 3319 
L 556 3319 
L 556 3672 
Q 556 4006 616 4169 
Q 697 4388 901 4523 
Q 1106 4659 1475 4659 
Q 1713 4659 2000 4603 
L 1916 4113 
Q 1741 4144 1584 4144 
Q 1328 4144 1222 4034 
Q 1116 3925 1116 3625 
L 1116 3319 
L 1763 3319 
L 1763 2881 
L 1116 2881 
L 1116 0 
L 556 0 
z
" id="ArialMT-66" transform="scale(0.015625)"/>
      <path d="M 416 0 
L 416 3319 
L 922 3319 
L 922 2816 
Q 1116 3169 1280 3281 
Q 1444 3394 1641 3394 
Q 1925 3394 2219 3213 
L 2025 2691 
Q 1819 2813 1613 2813 
Q 1428 2813 1281 2702 
Q 1134 2591 1072 2394 
Q 978 2094 978 1738 
L 978 0 
L 416 0 
z
" id="ArialMT-72" transform="scale(0.015625)"/>
      <path d="M 3384 2003 
L 350 706 
L 350 1266 
L 2753 2263 
L 350 3250 
L 350 3809 
L 3384 2528 
L 3384 2003 
z
" id="ArialMT-3e" transform="scale(0.015625)"/>
      <path d="M 3184 3459 
L 2625 3416 
Q 2550 3747 2413 3897 
Q 2184 4138 1850 4138 
Q 1581 4138 1378 3988 
Q 1113 3794 959 3422 
Q 806 3050 800 2363 
Q 1003 2672 1297 2822 
Q 1591 2972 1913 2972 
Q 2475 2972 2870 2558 
Q 3266 2144 3266 1488 
Q 3266 1056 3080 686 
Q 2894 316 2569 119 
Q 2244 -78 1831 -78 
Q 1128 -78 684 439 
Q 241 956 241 2144 
Q 241 3472 731 4075 
Q 1159 4600 1884 4600 
Q 2425 4600 2770 4297 
Q 3116 3994 3184 3459 
z
M 888 1484 
Q 888 1194 1011 928 
Q 1134 663 1356 523 
Q 1578 384 1822 384 
Q 2178 384 2434 671 
Q 2691 959 2691 1453 
Q 2691 1928 2437 2201 
Q 2184 2475 1800 2475 
Q 1419 2475 1153 2201 
Q 888 1928 888 1484 
z
" id="ArialMT-36" transform="scale(0.015625)"/>
      <path d="M 350 2003 
L 350 2528 
L 3384 3809 
L 3384 3250 
L 978 2263 
L 3384 1266 
L 3384 706 
L 350 2003 
z
" id="ArialMT-3c" transform="scale(0.015625)"/>
     </defs>
     <use xlink:href="#ArialMT-41"/>
     <use x="66.699219" xlink:href="#ArialMT-63"/>
     <use x="116.699219" xlink:href="#ArialMT-74"/>
     <use x="144.482422" xlink:href="#ArialMT-69"/>
     <use x="166.699219" xlink:href="#ArialMT-76"/>
     <use x="216.699219" xlink:href="#ArialMT-61"/>
     <use x="272.314453" xlink:href="#ArialMT-74"/>
     <use x="300.097656" xlink:href="#ArialMT-69"/>
     <use x="322.314453" xlink:href="#ArialMT-6f"/>
     <use x="377.929688" xlink:href="#ArialMT-6e"/>
     <use x="433.544922" xlink:href="#ArialMT-73"/>
     <use x="483.544922" xlink:href="#ArialMT-20"/>
     <use x="511.328125" xlink:href="#ArialMT-66"/>
     <use x="539.111328" xlink:href="#ArialMT-6f"/>
     <use x="594.726562" xlink:href="#ArialMT-72"/>
     <use x="628.027344" xlink:href="#ArialMT-20"/>
     <use x="655.810547" xlink:href="#ArialMT-3e"/>
     <use x="714.208984" xlink:href="#ArialMT-36"/>
     <use x="769.824219" xlink:href="#ArialMT-3c"/>
    </g>
   </g>
   <g id="legend_1">
    <g id="patch_7">
     <path d="M 640.044062 158.514363 
L 750.46 158.514363 
Q 752.66 158.514363 752.66 156.314363 
L 752.66 79.1528 
Q 752.66 76.9528 750.46 76.9528 
L 640.044062 76.9528 
Q 637.844062 76.9528 637.844062 79.1528 
L 637.844062 156.314363 
Q 637.844062 158.514363 640.044062 158.514363 
z
" style="fill:#ffffff;opacity:0.8;stroke:#cccccc;stroke-linejoin:miter;"/>
    </g>
    <g id="line2d_11">
     <path d="M 642.244062 85.376394 
L 664.244062 85.376394 
" style="fill:none;stroke:#4c72b0;stroke-linecap:round;stroke-width:1.5;"/>
    </g>
    <g id="line2d_12"/>
    <g id="text_17">
     <!-- regular -->
     <g style="fill:#262626;" transform="translate(673.044062 89.226394)scale(0.11 -0.11)">
      <defs>
       <path d="M 2694 1069 
L 3275 997 
Q 3138 488 2766 206 
Q 2394 -75 1816 -75 
Q 1088 -75 661 373 
Q 234 822 234 1631 
Q 234 2469 665 2931 
Q 1097 3394 1784 3394 
Q 2450 3394 2872 2941 
Q 3294 2488 3294 1666 
Q 3294 1616 3291 1516 
L 816 1516 
Q 847 969 1125 678 
Q 1403 388 1819 388 
Q 2128 388 2347 550 
Q 2566 713 2694 1069 
z
M 847 1978 
L 2700 1978 
Q 2663 2397 2488 2606 
Q 2219 2931 1791 2931 
Q 1403 2931 1139 2672 
Q 875 2413 847 1978 
z
" id="ArialMT-65" transform="scale(0.015625)"/>
       <path d="M 319 -275 
L 866 -356 
Q 900 -609 1056 -725 
Q 1266 -881 1628 -881 
Q 2019 -881 2231 -725 
Q 2444 -569 2519 -288 
Q 2563 -116 2559 434 
Q 2191 0 1641 0 
Q 956 0 581 494 
Q 206 988 206 1678 
Q 206 2153 378 2554 
Q 550 2956 876 3175 
Q 1203 3394 1644 3394 
Q 2231 3394 2613 2919 
L 2613 3319 
L 3131 3319 
L 3131 450 
Q 3131 -325 2973 -648 
Q 2816 -972 2473 -1159 
Q 2131 -1347 1631 -1347 
Q 1038 -1347 672 -1080 
Q 306 -813 319 -275 
z
M 784 1719 
Q 784 1066 1043 766 
Q 1303 466 1694 466 
Q 2081 466 2343 764 
Q 2606 1063 2606 1700 
Q 2606 2309 2336 2618 
Q 2066 2928 1684 2928 
Q 1309 2928 1046 2623 
Q 784 2319 784 1719 
z
" id="ArialMT-67" transform="scale(0.015625)"/>
       <path d="M 2597 0 
L 2597 488 
Q 2209 -75 1544 -75 
Q 1250 -75 995 37 
Q 741 150 617 320 
Q 494 491 444 738 
Q 409 903 409 1263 
L 409 3319 
L 972 3319 
L 972 1478 
Q 972 1038 1006 884 
Q 1059 663 1231 536 
Q 1403 409 1656 409 
Q 1909 409 2131 539 
Q 2353 669 2445 892 
Q 2538 1116 2538 1541 
L 2538 3319 
L 3100 3319 
L 3100 0 
L 2597 0 
z
" id="ArialMT-75" transform="scale(0.015625)"/>
       <path d="M 409 0 
L 409 4581 
L 972 4581 
L 972 0 
L 409 0 
z
" id="ArialMT-6c" transform="scale(0.015625)"/>
      </defs>
      <use xlink:href="#ArialMT-72"/>
      <use x="33.300781" xlink:href="#ArialMT-65"/>
      <use x="88.916016" xlink:href="#ArialMT-67"/>
      <use x="144.53125" xlink:href="#ArialMT-75"/>
      <use x="200.146484" xlink:href="#ArialMT-6c"/>
      <use x="222.363281" xlink:href="#ArialMT-61"/>
      <use x="277.978516" xlink:href="#ArialMT-72"/>
     </g>
    </g>
    <g id="line2d_13">
     <path d="M 642.244062 101.0978 
L 664.244062 101.0978 
" style="fill:none;stroke:#dd8452;stroke-dasharray:6,2.25;stroke-dashoffset:0;stroke-width:1.5;"/>
    </g>
    <g id="line2d_14"/>
    <g id="text_18">
     <!-- splitted_3s -->
     <g style="fill:#262626;" transform="translate(673.044062 104.9478)scale(0.11 -0.11)">
      <defs>
       <path d="M 422 -1272 
L 422 3319 
L 934 3319 
L 934 2888 
Q 1116 3141 1344 3267 
Q 1572 3394 1897 3394 
Q 2322 3394 2647 3175 
Q 2972 2956 3137 2557 
Q 3303 2159 3303 1684 
Q 3303 1175 3120 767 
Q 2938 359 2589 142 
Q 2241 -75 1856 -75 
Q 1575 -75 1351 44 
Q 1128 163 984 344 
L 984 -1272 
L 422 -1272 
z
M 931 1641 
Q 931 1000 1190 694 
Q 1450 388 1819 388 
Q 2194 388 2461 705 
Q 2728 1022 2728 1688 
Q 2728 2322 2467 2637 
Q 2206 2953 1844 2953 
Q 1484 2953 1207 2617 
Q 931 2281 931 1641 
z
" id="ArialMT-70" transform="scale(0.015625)"/>
       <path d="M 2575 0 
L 2575 419 
Q 2259 -75 1647 -75 
Q 1250 -75 917 144 
Q 584 363 401 755 
Q 219 1147 219 1656 
Q 219 2153 384 2558 
Q 550 2963 881 3178 
Q 1213 3394 1622 3394 
Q 1922 3394 2156 3267 
Q 2391 3141 2538 2938 
L 2538 4581 
L 3097 4581 
L 3097 0 
L 2575 0 
z
M 797 1656 
Q 797 1019 1065 703 
Q 1334 388 1700 388 
Q 2069 388 2326 689 
Q 2584 991 2584 1609 
Q 2584 2291 2321 2609 
Q 2059 2928 1675 2928 
Q 1300 2928 1048 2622 
Q 797 2316 797 1656 
z
" id="ArialMT-64" transform="scale(0.015625)"/>
       <path d="M -97 -1272 
L -97 -866 
L 3631 -866 
L 3631 -1272 
L -97 -1272 
z
" id="ArialMT-5f" transform="scale(0.015625)"/>
       <path d="M 269 1209 
L 831 1284 
Q 928 806 1161 595 
Q 1394 384 1728 384 
Q 2125 384 2398 659 
Q 2672 934 2672 1341 
Q 2672 1728 2419 1979 
Q 2166 2231 1775 2231 
Q 1616 2231 1378 2169 
L 1441 2663 
Q 1497 2656 1531 2656 
Q 1891 2656 2178 2843 
Q 2466 3031 2466 3422 
Q 2466 3731 2256 3934 
Q 2047 4138 1716 4138 
Q 1388 4138 1169 3931 
Q 950 3725 888 3313 
L 325 3413 
Q 428 3978 793 4289 
Q 1159 4600 1703 4600 
Q 2078 4600 2393 4439 
Q 2709 4278 2876 4000 
Q 3044 3722 3044 3409 
Q 3044 3113 2884 2869 
Q 2725 2625 2413 2481 
Q 2819 2388 3044 2092 
Q 3269 1797 3269 1353 
Q 3269 753 2831 336 
Q 2394 -81 1725 -81 
Q 1122 -81 723 278 
Q 325 638 269 1209 
z
" id="ArialMT-33" transform="scale(0.015625)"/>
      </defs>
      <use xlink:href="#ArialMT-73"/>
      <use x="50" xlink:href="#ArialMT-70"/>
      <use x="105.615234" xlink:href="#ArialMT-6c"/>
      <use x="127.832031" xlink:href="#ArialMT-69"/>
      <use x="150.048828" xlink:href="#ArialMT-74"/>
      <use x="177.832031" xlink:href="#ArialMT-74"/>
      <use x="205.615234" xlink:href="#ArialMT-65"/>
      <use x="261.230469" xlink:href="#ArialMT-64"/>
      <use x="316.845703" xlink:href="#ArialMT-5f"/>
      <use x="372.460938" xlink:href="#ArialMT-33"/>
      <use x="428.076172" xlink:href="#ArialMT-73"/>
     </g>
    </g>
    <g id="line2d_15">
     <path d="M 642.244062 116.6903 
L 664.244062 116.6903 
" style="fill:none;stroke:#55a868;stroke-dasharray:1.5,1.5;stroke-dashoffset:0;stroke-width:1.5;"/>
    </g>
    <g id="line2d_16"/>
    <g id="text_19">
     <!-- splitted_1s -->
     <g style="fill:#262626;" transform="translate(673.044062 120.5403)scale(0.11 -0.11)">
      <use xlink:href="#ArialMT-73"/>
      <use x="50" xlink:href="#ArialMT-70"/>
      <use x="105.615234" xlink:href="#ArialMT-6c"/>
      <use x="127.832031" xlink:href="#ArialMT-69"/>
      <use x="150.048828" xlink:href="#ArialMT-74"/>
      <use x="177.832031" xlink:href="#ArialMT-74"/>
      <use x="205.615234" xlink:href="#ArialMT-65"/>
      <use x="261.230469" xlink:href="#ArialMT-64"/>
      <use x="316.845703" xlink:href="#ArialMT-5f"/>
      <use x="372.460938" xlink:href="#ArialMT-31"/>
      <use x="428.076172" xlink:href="#ArialMT-73"/>
     </g>
    </g>
    <g id="line2d_17">
     <path d="M 642.244062 132.384206 
L 664.244062 132.384206 
" style="fill:none;stroke:#c44e52;stroke-dasharray:4.5,1.875,2.25,1.875;stroke-dashoffset:0;stroke-width:1.5;"/>
    </g>
    <g id="line2d_18"/>
    <g id="text_20">
     <!-- overlap_1f_3s -->
     <g style="fill:#262626;" transform="translate(673.044062 136.234206)scale(0.11 -0.11)">
      <use xlink:href="#ArialMT-6f"/>
      <use x="55.615234" xlink:href="#ArialMT-76"/>
      <use x="105.615234" xlink:href="#ArialMT-65"/>
      <use x="161.230469" xlink:href="#ArialMT-72"/>
      <use x="194.53125" xlink:href="#ArialMT-6c"/>
      <use x="216.748047" xlink:href="#ArialMT-61"/>
      <use x="272.363281" xlink:href="#ArialMT-70"/>
      <use x="327.978516" xlink:href="#ArialMT-5f"/>
      <use x="383.59375" xlink:href="#ArialMT-31"/>
      <use x="439.208984" xlink:href="#ArialMT-66"/>
      <use x="466.992188" xlink:href="#ArialMT-5f"/>
      <use x="522.607422" xlink:href="#ArialMT-33"/>
      <use x="578.222656" xlink:href="#ArialMT-73"/>
     </g>
    </g>
    <g id="line2d_19">
     <path d="M 642.244062 148.078113 
L 664.244062 148.078113 
" style="fill:none;stroke:#8172b3;stroke-dasharray:7.5,1.5,1.5,1.5;stroke-dashoffset:0;stroke-width:1.5;"/>
    </g>
    <g id="line2d_20"/>
    <g id="text_21">
     <!-- overlap_10f_3s -->
     <g style="fill:#262626;" transform="translate(673.044062 151.928112)scale(0.11 -0.11)">
      <use xlink:href="#ArialMT-6f"/>
      <use x="55.615234" xlink:href="#ArialMT-76"/>
      <use x="105.615234" xlink:href="#ArialMT-65"/>
      <use x="161.230469" xlink:href="#ArialMT-72"/>
      <use x="194.53125" xlink:href="#ArialMT-6c"/>
      <use x="216.748047" xlink:href="#ArialMT-61"/>
      <use x="272.363281" xlink:href="#ArialMT-70"/>
      <use x="327.978516" xlink:href="#ArialMT-5f"/>
      <use x="383.59375" xlink:href="#ArialMT-31"/>
      <use x="439.208984" xlink:href="#ArialMT-30"/>
      <use x="494.824219" xlink:href="#ArialMT-66"/>
      <use x="522.607422" xlink:href="#ArialMT-5f"/>
      <use x="578.222656" xlink:href="#ArialMT-33"/>
      <use x="633.837891" xlink:href="#ArialMT-73"/>
     </g>
    </g>
   </g>
  </g>
 </g>
 <defs>
  <clipPath id="pa081433b33">
   <rect height="458.4888" width="652.86" x="105.3" y="71.4528"/>
  </clipPath>
 </defs>
</svg>
