<?xml version="1.0" encoding="utf-8" standalone="no"?>
<!DOCTYPE svg PUBLIC "-//W3C//DTD SVG 1.1//EN"
  "http://www.w3.org/Graphics/SVG/1.1/DTD/svg11.dtd">
<svg height="595.44pt" version="1.1" viewBox="0 0 842.4 595.44" width="842.4pt" xmlns="http://www.w3.org/2000/svg" xmlns:xlink="http://www.w3.org/1999/xlink">
 <metadata>
  <rdf:RDF xmlns:cc="http://creativecommons.org/ns#" xmlns:dc="http://purl.org/dc/elements/1.1/" xmlns:rdf="http://www.w3.org/1999/02/22-rdf-syntax-ns#">
   <cc:Work>
    <dc:type rdf:resource="http://purl.org/dc/dcmitype/StillImage"/>
    <dc:date>2021-06-01T00:54:14.478768</dc:date>
    <dc:format>image/svg+xml</dc:format>
    <dc:creator>
     <cc:Agent>
      <dc:title>Matplotlib v3.4.1, https://matplotlib.org/</dc:title>
     </cc:Agent>
    </dc:creator>
   </cc:Work>
  </rdf:RDF>
 </metadata>
 <defs>
  <style type="text/css">*{stroke-linecap:butt;stroke-linejoin:round;}</style>
 </defs>
 <g id="figure_1">
  <g id="patch_1">
   <path d="M 0 595.44 
L 842.4 595.44 
L 842.4 0 
L 0 0 
z
" style="fill:#ffffff;"/>
  </g>
  <g id="axes_1">
   <g id="patch_2">
    <path d="M 105.3 529.9416 
L 758.16 529.9416 
L 758.16 71.4528 
L 105.3 71.4528 
z
" style="fill:#ffffff;"/>
   </g>
   <g id="matplotlib.axis_1">
    <g id="xtick_1">
     <g id="text_1">
      <!-- 0 -->
      <g style="fill:#262626;" transform="translate(131.916939 547.315194)scale(0.11 -0.11)">
       <defs>
        <path d="M 266 2259 
Q 266 3072 433 3567 
Q 600 4063 929 4331 
Q 1259 4600 1759 4600 
Q 2128 4600 2406 4451 
Q 2684 4303 2865 4023 
Q 3047 3744 3150 3342 
Q 3253 2941 3253 2259 
Q 3253 1453 3087 958 
Q 2922 463 2592 192 
Q 2263 -78 1759 -78 
Q 1097 -78 719 397 
Q 266 969 266 2259 
z
M 844 2259 
Q 844 1131 1108 757 
Q 1372 384 1759 384 
Q 2147 384 2411 759 
Q 2675 1134 2675 2259 
Q 2675 3391 2411 3762 
Q 2147 4134 1753 4134 
Q 1366 4134 1134 3806 
Q 844 3388 844 2259 
z
" id="ArialMT-30" transform="scale(0.015625)"/>
       </defs>
       <use xlink:href="#ArialMT-30"/>
      </g>
     </g>
    </g>
    <g id="xtick_2">
     <g id="text_2">
      <!-- 25 -->
      <g style="fill:#262626;" transform="translate(201.950676 547.315194)scale(0.11 -0.11)">
       <defs>
        <path d="M 3222 541 
L 3222 0 
L 194 0 
Q 188 203 259 391 
Q 375 700 629 1000 
Q 884 1300 1366 1694 
Q 2113 2306 2375 2664 
Q 2638 3022 2638 3341 
Q 2638 3675 2398 3904 
Q 2159 4134 1775 4134 
Q 1369 4134 1125 3890 
Q 881 3647 878 3216 
L 300 3275 
Q 359 3922 746 4261 
Q 1134 4600 1788 4600 
Q 2447 4600 2831 4234 
Q 3216 3869 3216 3328 
Q 3216 3053 3103 2787 
Q 2991 2522 2730 2228 
Q 2469 1934 1863 1422 
Q 1356 997 1212 845 
Q 1069 694 975 541 
L 3222 541 
z
" id="ArialMT-32" transform="scale(0.015625)"/>
        <path d="M 266 1200 
L 856 1250 
Q 922 819 1161 601 
Q 1400 384 1738 384 
Q 2144 384 2425 690 
Q 2706 997 2706 1503 
Q 2706 1984 2436 2262 
Q 2166 2541 1728 2541 
Q 1456 2541 1237 2417 
Q 1019 2294 894 2097 
L 366 2166 
L 809 4519 
L 3088 4519 
L 3088 3981 
L 1259 3981 
L 1013 2750 
Q 1425 3038 1878 3038 
Q 2478 3038 2890 2622 
Q 3303 2206 3303 1553 
Q 3303 931 2941 478 
Q 2500 -78 1738 -78 
Q 1113 -78 717 272 
Q 322 622 266 1200 
z
" id="ArialMT-35" transform="scale(0.015625)"/>
       </defs>
       <use xlink:href="#ArialMT-32"/>
       <use x="55.615234" xlink:href="#ArialMT-35"/>
      </g>
     </g>
    </g>
    <g id="xtick_3">
     <g id="text_3">
      <!-- 50 -->
      <g style="fill:#262626;" transform="translate(275.042928 547.315194)scale(0.11 -0.11)">
       <use xlink:href="#ArialMT-35"/>
       <use x="55.615234" xlink:href="#ArialMT-30"/>
      </g>
     </g>
    </g>
    <g id="xtick_4">
     <g id="text_4">
      <!-- 75 -->
      <g style="fill:#262626;" transform="translate(348.135181 547.315194)scale(0.11 -0.11)">
       <defs>
        <path d="M 303 3981 
L 303 4522 
L 3269 4522 
L 3269 4084 
Q 2831 3619 2401 2847 
Q 1972 2075 1738 1259 
Q 1569 684 1522 0 
L 944 0 
Q 953 541 1156 1306 
Q 1359 2072 1739 2783 
Q 2119 3494 2547 3981 
L 303 3981 
z
" id="ArialMT-37" transform="scale(0.015625)"/>
       </defs>
       <use xlink:href="#ArialMT-37"/>
       <use x="55.615234" xlink:href="#ArialMT-35"/>
      </g>
     </g>
    </g>
    <g id="xtick_5">
     <g id="text_5">
      <!-- 100 -->
      <g style="fill:#262626;" transform="translate(418.168918 547.315194)scale(0.11 -0.11)">
       <defs>
        <path d="M 2384 0 
L 1822 0 
L 1822 3584 
Q 1619 3391 1289 3197 
Q 959 3003 697 2906 
L 697 3450 
Q 1169 3672 1522 3987 
Q 1875 4303 2022 4600 
L 2384 4600 
L 2384 0 
z
" id="ArialMT-31" transform="scale(0.015625)"/>
       </defs>
       <use xlink:href="#ArialMT-31"/>
       <use x="55.615234" xlink:href="#ArialMT-30"/>
       <use x="111.230469" xlink:href="#ArialMT-30"/>
      </g>
     </g>
    </g>
    <g id="xtick_6">
     <g id="text_6">
      <!-- 125 -->
      <g style="fill:#262626;" transform="translate(491.261171 547.315194)scale(0.11 -0.11)">
       <use xlink:href="#ArialMT-31"/>
       <use x="55.615234" xlink:href="#ArialMT-32"/>
       <use x="111.230469" xlink:href="#ArialMT-35"/>
      </g>
     </g>
    </g>
    <g id="xtick_7">
     <g id="text_7">
      <!-- 150 -->
      <g style="fill:#262626;" transform="translate(564.353423 547.315194)scale(0.11 -0.11)">
       <use xlink:href="#ArialMT-31"/>
       <use x="55.615234" xlink:href="#ArialMT-35"/>
       <use x="111.230469" xlink:href="#ArialMT-30"/>
      </g>
     </g>
    </g>
    <g id="xtick_8">
     <g id="text_8">
      <!-- 175 -->
      <g style="fill:#262626;" transform="translate(637.445676 547.315194)scale(0.11 -0.11)">
       <use xlink:href="#ArialMT-31"/>
       <use x="55.615234" xlink:href="#ArialMT-37"/>
       <use x="111.230469" xlink:href="#ArialMT-35"/>
      </g>
     </g>
    </g>
    <g id="xtick_9">
     <g id="text_9">
      <!-- 200 -->
      <g style="fill:#262626;" transform="translate(710.537928 547.315194)scale(0.11 -0.11)">
       <use xlink:href="#ArialMT-32"/>
       <use x="55.615234" xlink:href="#ArialMT-30"/>
       <use x="111.230469" xlink:href="#ArialMT-30"/>
      </g>
     </g>
    </g>
   </g>
   <g id="matplotlib.axis_2">
    <g id="ytick_1">
     <g id="text_10">
      <!-- −25 -->
      <g style="fill:#262626;" transform="translate(77.14125 533.878397)scale(0.11 -0.11)">
       <defs>
        <path d="M 3381 1997 
L 356 1997 
L 356 2522 
L 3381 2522 
L 3381 1997 
z
" id="ArialMT-2212" transform="scale(0.015625)"/>
       </defs>
       <use xlink:href="#ArialMT-2212"/>
       <use x="58.398438" xlink:href="#ArialMT-32"/>
       <use x="114.013672" xlink:href="#ArialMT-35"/>
      </g>
     </g>
    </g>
    <g id="ytick_2">
     <g id="text_11">
      <!-- −20 -->
      <g style="fill:#262626;" transform="translate(77.14125 442.180637)scale(0.11 -0.11)">
       <use xlink:href="#ArialMT-2212"/>
       <use x="58.398438" xlink:href="#ArialMT-32"/>
       <use x="114.013672" xlink:href="#ArialMT-30"/>
      </g>
     </g>
    </g>
    <g id="ytick_3">
     <g id="text_12">
      <!-- −15 -->
      <g style="fill:#262626;" transform="translate(77.14125 350.482877)scale(0.11 -0.11)">
       <use xlink:href="#ArialMT-2212"/>
       <use x="58.398438" xlink:href="#ArialMT-31"/>
       <use x="114.013672" xlink:href="#ArialMT-35"/>
      </g>
     </g>
    </g>
    <g id="ytick_4">
     <g id="text_13">
      <!-- −10 -->
      <g style="fill:#262626;" transform="translate(77.14125 258.785117)scale(0.11 -0.11)">
       <use xlink:href="#ArialMT-2212"/>
       <use x="58.398438" xlink:href="#ArialMT-31"/>
       <use x="114.013672" xlink:href="#ArialMT-30"/>
      </g>
     </g>
    </g>
    <g id="ytick_5">
     <g id="text_14">
      <!-- −5 -->
      <g style="fill:#262626;" transform="translate(83.258281 167.087357)scale(0.11 -0.11)">
       <use xlink:href="#ArialMT-2212"/>
       <use x="58.398438" xlink:href="#ArialMT-35"/>
      </g>
     </g>
    </g>
    <g id="ytick_6">
     <g id="text_15">
      <!-- 0 -->
      <g style="fill:#262626;" transform="translate(89.682969 75.389597)scale(0.11 -0.11)">
       <use xlink:href="#ArialMT-30"/>
      </g>
     </g>
    </g>
   </g>
   <g id="line2d_1">
    <path clip-path="url(#pfac1f5104a)" d="M 134.975455 458.779396 
L 137.899145 459.576904 
L 140.822835 460.712841 
L 143.746525 460.965816 
L 146.670215 462.342836 
L 149.593905 463.299676 
L 152.517595 463.234299 
L 155.441285 467.001217 
L 158.364975 468.398245 
L 161.288665 470.979588 
L 164.212356 472.458958 
L 167.136046 475.410564 
L 170.059736 496.260695 
L 172.983426 508.4463 
L 175.907116 521.246816 
L 178.830806 561.676817 
L 180.872264 596.44 
M 182.192419 596.44 
L 184.678186 511.164519 
L 187.601876 462.245312 
L 190.525567 529.327807 
L 193.449257 527.77204 
L 196.372947 493.799997 
L 199.296637 512.584179 
L 202.220327 450.196583 
L 205.144017 440.004065 
L 208.067707 532.081007 
L 210.991397 439.227615 
L 213.915087 468.695679 
L 216.838777 491.402859 
L 219.762468 482.691879 
L 222.686158 520.989259 
L 225.609848 524.160784 
L 228.533538 561.747162 
L 231.457228 555.580237 
L 234.380918 465.878571 
L 237.304608 518.038038 
L 240.228298 573.824189 
L 243.151988 529.930651 
L 246.075678 447.426768 
L 248.999369 426.081392 
L 251.923059 481.099698 
L 254.846749 489.174253 
L 257.770439 514.713442 
L 260.694129 444.046309 
L 263.617819 538.344301 
L 266.541509 434.53338 
L 269.465199 430.191428 
L 272.388889 455.416567 
L 275.312579 474.643769 
L 278.23627 479.638902 
L 281.15996 473.225998 
L 284.08365 442.498588 
L 287.00734 449.8025 
L 289.93103 488.10838 
L 292.85472 436.775593 
L 295.77841 400.809415 
L 298.7021 451.731222 
L 301.62579 476.708669 
L 304.549481 487.84589 
L 307.473171 471.668797 
L 310.396861 480.444244 
L 313.320551 462.891846 
L 316.244241 512.416416 
L 319.167931 476.744733 
L 322.091621 434.806153 
L 325.015311 366.657715 
L 327.939001 421.149678 
L 330.862691 432.819749 
L 333.786382 426.593918 
L 336.710072 450.015842 
L 339.633762 520.573313 
L 342.557452 507.240962 
L 345.481142 419.581983 
L 348.404832 432.257447 
L 351.328522 405.263093 
L 354.252212 472.117659 
L 357.175902 493.515051 
L 360.099592 479.752167 
L 363.023283 552.617648 
L 365.946973 450.218656 
L 368.870663 429.935794 
L 371.794353 436.895784 
L 374.718043 485.098777 
L 377.641733 529.072454 
L 380.565423 531.696438 
L 383.489113 474.115048 
L 386.412803 439.348401 
L 389.336494 476.221643 
L 392.260184 464.283382 
L 395.183874 497.181121 
L 398.107564 448.833836 
L 401.031254 413.028705 
L 403.954944 400.852125 
L 406.878634 455.434581 
L 409.802324 425.966798 
L 412.726014 411.654169 
L 415.649704 495.865946 
L 418.573395 445.873485 
L 421.497085 492.580003 
L 424.420775 577.075502 
L 427.344465 495.9648 
L 430.268155 492.765501 
L 433.191845 494.166447 
L 436.115535 437.286615 
L 439.039225 420.967398 
L 441.962915 472.299695 
L 444.886605 467.529518 
L 447.810296 391.89034 
L 450.733986 354.492486 
L 453.657676 398.165073 
L 456.581366 371.350131 
L 459.505056 510.268858 
L 462.428746 443.39173 
L 465.352436 470.930896 
L 468.276126 475.740984 
L 471.199816 466.685313 
L 474.123506 512.994564 
L 477.047197 432.235409 
L 479.970887 343.901948 
L 482.894577 470.138286 
L 488.741957 480.611029 
L 491.665647 449.414782 
L 494.589337 474.72034 
L 497.513027 562.584756 
L 503.360408 400.186667 
L 506.284098 458.308567 
L 509.207788 552.078957 
L 512.131478 538.586817 
L 515.055168 519.601816 
L 517.978858 441.218952 
L 520.902548 485.219143 
L 523.826238 495.560187 
L 526.749928 439.446205 
L 529.673618 485.650761 
L 532.597309 522.043554 
L 535.520999 447.753516 
L 538.444689 470.027819 
L 541.368379 542.365383 
L 544.292069 521.882926 
L 547.215759 458.207335 
L 550.139449 522.497069 
L 553.063139 453.90414 
L 555.986829 507.93986 
L 558.910519 473.165518 
L 561.83421 474.41619 
L 564.7579 510.906787 
L 567.68159 448.049306 
L 570.60528 409.795021 
L 573.52897 400.645988 
L 576.45266 416.940404 
L 579.37635 427.021267 
L 582.30004 427.980382 
L 585.22373 423.746902 
L 588.147421 418.822814 
L 591.071111 442.378012 
L 593.994801 509.128338 
L 596.918491 444.381032 
L 599.842181 468.193892 
L 602.765871 449.152888 
L 605.689561 457.302089 
L 608.613251 445.362009 
L 611.536941 508.404184 
L 614.460631 527.243739 
L 617.384322 434.58515 
L 620.308012 494.123387 
L 623.231702 472.129692 
L 626.155392 508.450147 
L 629.079082 482.552834 
L 632.002772 433.930886 
L 634.926462 435.650324 
L 637.850152 494.756803 
L 640.773842 451.519944 
L 643.697532 413.364477 
L 646.621223 455.589578 
L 649.544913 460.004848 
L 652.468603 509.863861 
L 655.392293 462.017418 
L 658.315983 405.324832 
L 661.239673 475.390381 
L 664.163363 432.906429 
L 667.087053 510.81528 
L 670.010743 502.665413 
L 672.934433 490.408205 
L 675.858124 519.735929 
L 678.781814 474.551317 
L 681.705504 517.036458 
L 684.629194 562.047884 
L 687.552884 489.973439 
L 690.476574 579.063971 
L 693.400264 513.863465 
L 696.323954 538.047217 
L 699.247644 515.661048 
L 702.171335 496.684197 
L 705.095025 497.029029 
L 708.018715 490.24121 
L 710.942405 493.915886 
L 713.866095 493.958107 
L 716.789785 494.540732 
L 719.713475 492.606273 
L 722.637165 491.125713 
L 725.560855 494.919845 
L 728.484545 495.728405 
L 728.484545 495.728405 
" style="fill:none;stroke:#4c72b0;stroke-linecap:round;stroke-width:1.5;"/>
   </g>
   <g id="line2d_2">
    <path clip-path="url(#pfac1f5104a)" d="M 134.975455 448.987468 
L 137.899145 454.25254 
L 140.822835 453.115378 
L 143.746525 453.184148 
L 146.670215 457.239965 
L 149.593905 456.522982 
L 152.517595 453.689643 
L 155.441285 454.781052 
L 158.364975 452.64098 
L 161.288665 453.719656 
L 164.212356 452.886574 
L 167.136046 453.358523 
L 170.059736 472.375356 
L 172.983426 480.074856 
L 175.907116 496.542878 
L 181.754496 589.641094 
L 184.678186 502.219769 
L 187.601876 435.885389 
L 190.525567 528.323184 
L 193.449257 520.586885 
L 196.372947 491.666257 
L 199.296637 496.606261 
L 202.220327 454.364231 
L 205.144017 464.405322 
L 208.067707 544.81835 
L 210.991397 452.268864 
L 213.915087 440.298106 
L 216.838777 484.002507 
L 219.762468 466.017861 
L 222.686158 514.113921 
L 225.609848 512.707378 
L 228.533538 544.968554 
L 231.457228 542.350726 
L 234.380918 452.975773 
L 237.304608 504.107006 
L 240.228298 552.392552 
L 243.151988 515.026792 
L 246.075678 451.929978 
L 248.999369 455.923671 
L 251.923059 475.83648 
L 254.846749 485.023746 
L 257.770439 510.480872 
L 260.694129 448.062703 
L 263.617819 531.864551 
L 266.541509 445.10746 
L 269.465199 432.998986 
L 272.388889 475.997877 
L 275.312579 498.203619 
L 278.23627 500.082951 
L 281.15996 493.507285 
L 284.08365 450.083074 
L 287.00734 455.509648 
L 289.93103 507.981766 
L 292.85472 461.356472 
L 295.77841 399.404236 
L 298.7021 452.605825 
L 301.62579 481.650002 
L 304.549481 490.08499 
L 307.473171 476.247354 
L 310.396861 458.820848 
L 313.320551 468.244368 
L 316.244241 514.776616 
L 319.167931 490.481697 
L 322.091621 434.558181 
L 325.015311 353.900556 
L 327.939001 434.01092 
L 330.862691 433.992241 
L 333.786382 402.84717 
L 336.710072 467.114482 
L 339.633762 518.860486 
L 342.557452 487.060137 
L 345.481142 387.843268 
L 348.404832 404.18008 
L 351.328522 434.498715 
L 354.252212 473.032524 
L 357.175902 462.383412 
L 360.099592 381.081719 
L 363.023283 395.447028 
L 365.946973 394.725357 
L 368.870663 379.674197 
L 371.794353 394.779751 
L 374.718043 419.237816 
L 377.641733 429.657249 
L 380.565423 481.988643 
L 383.489113 425.567642 
L 386.412803 448.839118 
L 389.336494 486.955162 
L 392.260184 489.081031 
L 395.183874 510.478983 
L 398.107564 468.743286 
L 401.031254 432.267486 
L 403.954944 450.132675 
L 406.878634 466.972428 
L 409.802324 474.493705 
L 412.726014 477.32582 
L 415.649704 517.885701 
L 418.573395 460.792001 
L 421.497085 502.63624 
L 424.420775 558.542651 
L 427.344465 487.271485 
L 430.268155 484.621372 
L 433.191845 486.440677 
L 436.115535 443.184229 
L 439.039225 480.565275 
L 441.962915 516.312724 
L 444.886605 470.176449 
L 447.810296 389.92132 
L 450.733986 407.115769 
L 453.657676 409.839551 
L 456.581366 410.052334 
L 459.505056 523.294611 
L 462.428746 451.879083 
L 465.352436 491.124243 
L 468.276126 470.552518 
L 471.199816 475.341829 
L 474.123506 491.651146 
L 477.047197 467.296342 
L 479.970887 354.221444 
L 482.894577 473.029901 
L 485.818267 500.407005 
L 488.741957 497.56751 
L 491.665647 472.535215 
L 494.589337 491.760423 
L 497.513027 574.160241 
L 500.436717 490.830867 
L 503.360408 404.041909 
L 506.284098 464.619049 
L 509.207788 541.870452 
L 512.131478 521.715547 
L 515.055168 511.943697 
L 517.978858 445.316955 
L 520.902548 477.597928 
L 523.826238 474.066636 
L 526.749928 433.123934 
L 529.673618 478.597759 
L 532.597309 499.370655 
L 535.520999 428.766765 
L 538.444689 465.249702 
L 541.368379 495.374094 
L 544.292069 495.025589 
L 547.215759 395.650436 
L 550.139449 472.094118 
L 553.063139 431.250934 
L 555.986829 412.299933 
L 558.910519 377.068089 
L 561.83421 352.874035 
L 564.7579 434.764247 
L 567.68159 386.435256 
L 570.60528 481.47045 
L 573.52897 349.063882 
L 576.45266 379.624666 
L 579.37635 405.692192 
L 582.30004 353.515654 
L 585.22373 421.369842 
L 588.147421 400.846878 
L 591.071111 460.590062 
L 593.994801 535.590087 
L 596.918491 459.826485 
L 599.842181 508.259857 
L 602.765871 456.262521 
L 608.613251 515.001152 
L 611.536941 540.460377 
L 614.460631 570.201948 
L 617.384322 530.718539 
L 620.308012 534.231153 
L 623.231702 474.908882 
L 626.155392 526.805056 
L 629.079082 475.585359 
L 632.002772 450.36886 
L 634.926462 454.262719 
L 637.850152 495.836878 
L 640.773842 454.982081 
L 643.697532 396.497335 
L 646.621223 453.430512 
L 649.544913 479.0228 
L 652.468603 508.033991 
L 655.392293 473.617074 
L 658.315983 375.519842 
L 661.239673 474.112879 
L 664.163363 423.529537 
L 667.087053 510.207329 
L 670.010743 507.098243 
L 672.934433 481.897695 
L 675.858124 514.314986 
L 678.781814 494.375662 
L 681.705504 523.681279 
L 684.629194 564.344736 
L 687.552884 485.686825 
L 690.476574 568.407793 
L 693.400264 526.151421 
L 696.323954 536.975222 
L 699.247644 507.147145 
L 702.171335 481.694742 
L 705.095025 486.742484 
L 708.018715 485.161147 
L 710.942405 488.023903 
L 713.866095 486.608896 
L 716.789785 488.069937 
L 719.713475 485.949384 
L 722.637165 482.405743 
L 725.560855 486.789252 
L 728.484545 482.504352 
L 728.484545 482.504352 
" style="fill:none;stroke:#dd8452;stroke-dasharray:6,2.25;stroke-dashoffset:0;stroke-width:1.5;"/>
   </g>
   <g id="line2d_3">
    <path clip-path="url(#pfac1f5104a)" d="M 134.975455 449.222323 
L 137.899145 454.254289 
L 140.822835 454.495965 
L 143.746525 451.828537 
L 146.670215 462.443648 
L 149.593905 459.507608 
L 152.517595 460.215672 
L 155.441285 478.481381 
L 158.364975 478.356503 
L 161.288665 466.21938 
L 164.212356 465.591281 
L 167.136046 458.313009 
L 170.059736 462.637297 
L 172.983426 481.304331 
L 175.907116 495.878329 
L 178.830806 529.970423 
L 181.754496 579.026193 
L 184.678186 472.174852 
L 187.601876 445.083359 
L 190.525567 473.104793 
L 193.449257 485.795577 
L 196.372947 467.418282 
L 199.296637 468.799884 
L 202.220327 454.77514 
L 205.144017 475.516868 
L 208.067707 349.488224 
L 210.991397 436.243758 
L 213.915087 459.219269 
L 216.838777 452.552831 
L 219.762468 451.009971 
L 222.686158 491.091362 
L 225.609848 452.685719 
L 228.533538 499.331582 
L 231.457228 513.214937 
L 234.380918 441.680897 
L 237.304608 485.150058 
L 240.228298 556.36746 
L 243.151988 528.268685 
L 246.075678 436.512754 
L 248.999369 466.250687 
L 251.923059 433.011054 
L 254.846749 490.004361 
L 257.770439 505.936071 
L 260.694129 442.136091 
L 263.617819 498.468068 
L 266.541509 443.893937 
L 269.465199 465.951014 
L 272.388889 457.235733 
L 275.312579 458.04069 
L 278.23627 450.886387 
L 281.15996 382.191457 
L 284.08365 354.895909 
L 287.00734 366.893095 
L 289.93103 408.502828 
L 292.85472 390.987788 
L 295.77841 391.45393 
L 298.7021 458.64161 
L 301.62579 513.519437 
L 304.549481 501.12084 
L 307.473171 493.930508 
L 310.396861 509.82094 
L 313.320551 532.552011 
L 316.244241 560.766535 
L 319.167931 545.125998 
L 325.015311 393.61471 
L 327.939001 455.796239 
L 330.862691 475.013752 
L 333.786382 424.25572 
L 339.633762 544.455013 
L 342.557452 544.959844 
L 345.481142 429.012569 
L 348.404832 429.583372 
L 351.328522 484.609059 
L 354.252212 464.692752 
L 357.175902 504.082625 
L 360.099592 420.670838 
L 363.023283 491.40891 
L 365.946973 392.540267 
L 368.870663 423.321581 
L 371.794353 365.414109 
L 374.718043 474.673292 
L 377.641733 481.069336 
L 380.565423 472.911669 
L 383.489113 482.365551 
L 386.412803 485.387152 
L 389.336494 524.469411 
L 392.260184 506.884376 
L 395.183874 510.61362 
L 398.107564 471.927823 
L 401.031254 453.735957 
L 403.954944 448.816311 
L 406.878634 479.146944 
L 409.802324 521.713973 
L 412.726014 502.343318 
L 415.649704 486.841232 
L 418.573395 485.699837 
L 421.497085 438.068591 
L 424.420775 387.535305 
L 427.344465 351.75104 
L 430.268155 354.134606 
L 433.191845 383.169041 
L 436.115535 380.732585 
L 439.039225 449.651526 
L 441.962915 509.740732 
L 444.886605 456.402126 
L 447.810296 473.938434 
L 450.733986 407.973372 
L 453.657676 382.932297 
L 456.581366 431.236977 
L 459.505056 583.091244 
L 462.428746 500.8332 
L 465.352436 500.87675 
L 468.276126 509.436196 
L 471.199816 426.156984 
L 474.123506 462.061877 
L 477.047197 403.51777 
L 479.970887 373.890268 
L 482.894577 443.336217 
L 485.818267 481.242276 
L 488.741957 440.328678 
L 491.665647 413.00226 
L 494.589337 367.738909 
L 497.513027 446.835083 
L 500.436717 398.314612 
L 503.360408 433.010669 
L 506.284098 513.309593 
L 509.207788 480.789181 
L 512.131478 466.986595 
L 515.055168 469.950304 
L 517.978858 454.526992 
L 520.902548 521.125296 
L 523.826238 523.266662 
L 526.749928 492.052855 
L 529.673618 496.750764 
L 532.597309 524.167675 
L 535.520999 502.748316 
L 538.444689 515.684345 
L 541.368379 519.658273 
L 544.292069 469.304469 
L 547.215759 362.054515 
L 550.139449 476.272364 
L 553.063139 478.26573 
L 555.986829 418.173587 
L 558.910519 439.6196 
L 561.83421 415.853718 
L 564.7579 413.427826 
L 567.68159 381.370968 
L 570.60528 374.657447 
L 573.52897 426.963481 
L 576.45266 400.65169 
L 579.37635 456.440849 
L 582.30004 464.513899 
L 585.22373 477.956997 
L 588.147421 444.092238 
L 591.071111 500.084595 
L 593.994801 535.232243 
L 596.918491 443.016885 
L 599.842181 531.655196 
L 602.765871 493.617962 
L 605.689561 469.03362 
L 608.613251 485.865292 
L 614.460631 539.509098 
L 617.384322 477.276918 
L 620.308012 460.91485 
L 623.231702 462.962925 
L 626.155392 511.070983 
L 629.079082 413.115455 
L 632.002772 436.21483 
L 634.926462 483.414459 
L 637.850152 434.142759 
L 640.773842 420.373019 
L 643.697532 436.088832 
L 646.621223 506.190619 
L 649.544913 463.095499 
L 652.468603 502.162332 
L 655.392293 457.120963 
L 658.315983 389.301581 
L 661.239673 470.838339 
L 664.163363 418.500439 
L 667.087053 506.151862 
L 670.010743 507.204862 
L 672.934433 458.047162 
L 675.858124 520.609167 
L 678.781814 506.73928 
L 681.705504 541.894064 
L 684.629194 584.824289 
L 687.552884 515.277913 
L 690.476574 571.088234 
L 693.400264 533.820908 
L 696.323954 550.67927 
L 699.247644 514.752654 
L 702.171335 498.687951 
L 705.095025 494.640005 
L 708.018715 495.383259 
L 710.942405 504.614214 
L 713.866095 503.15013 
L 716.789785 501.938041 
L 719.713475 497.905521 
L 722.637165 500.705873 
L 725.560855 501.659111 
L 728.484545 495.566204 
L 728.484545 495.566204 
" style="fill:none;stroke:#55a868;stroke-dasharray:1.5,1.5;stroke-dashoffset:0;stroke-width:1.5;"/>
   </g>
   <g id="line2d_4">
    <path clip-path="url(#pfac1f5104a)" d="M 134.975455 449.196298 
L 137.899145 454.477566 
L 140.822835 453.39067 
L 143.746525 453.236373 
L 146.670215 457.593542 
L 149.593905 456.881316 
L 152.517595 454.08691 
L 155.441285 455.290149 
L 158.364975 453.262503 
L 161.288665 454.317043 
L 164.212356 453.415331 
L 167.136046 454.077605 
L 170.059736 473.151281 
L 172.983426 480.833676 
L 175.907116 497.325274 
L 181.754496 591.213476 
L 184.678186 503.325449 
L 187.601876 436.230886 
L 190.525567 528.918297 
L 193.449257 522.700652 
L 196.372947 491.382325 
L 199.296637 496.597412 
L 202.220327 454.06085 
L 205.144017 458.768133 
L 208.067707 544.255033 
L 210.991397 448.181425 
L 213.915087 448.781891 
L 216.838777 479.024025 
L 219.762468 467.828317 
L 222.686158 515.986921 
L 225.609848 512.896795 
L 228.533538 546.043347 
L 231.457228 544.786168 
L 234.380918 453.805077 
L 237.304608 507.882004 
L 240.228298 557.032778 
L 243.151988 517.089698 
L 246.075678 452.507532 
L 248.999369 455.871516 
L 251.923059 477.889486 
L 254.846749 486.302856 
L 257.770439 508.735409 
L 260.694129 447.881193 
L 263.617819 532.012516 
L 266.541509 440.457859 
L 269.465199 433.360363 
L 272.388889 471.02716 
L 275.312579 500.213776 
L 278.23627 501.176458 
L 281.15996 492.361238 
L 284.08365 450.354518 
L 287.00734 464.613557 
L 289.93103 510.429346 
L 295.77841 398.989899 
L 298.7021 452.751167 
L 301.62579 483.365697 
L 304.549481 492.990212 
L 310.396861 460.768669 
L 313.320551 469.619533 
L 316.244241 519.082294 
L 319.167931 498.537468 
L 322.091621 443.060225 
L 325.015311 350.932964 
L 327.939001 422.505745 
L 330.862691 443.195283 
L 333.786382 399.626289 
L 336.710072 475.821053 
L 339.633762 541.115341 
L 342.557452 506.061089 
L 345.481142 395.836005 
L 348.404832 368.614666 
L 351.328522 437.322854 
L 354.252212 454.93115 
L 357.175902 422.29527 
L 360.099592 398.042363 
L 363.023283 526.270387 
L 365.946973 398.390448 
L 368.870663 386.757946 
L 371.794353 412.683173 
L 374.718043 450.794495 
L 377.641733 441.864192 
L 380.565423 496.222777 
L 383.489113 426.697248 
L 386.412803 453.464932 
L 389.336494 488.468323 
L 392.260184 487.420185 
L 395.183874 510.608898 
L 398.107564 468.873062 
L 401.031254 433.974751 
L 403.954944 447.426034 
L 406.878634 469.307618 
L 409.802324 479.299632 
L 412.726014 476.597223 
L 415.649704 519.207767 
L 418.573395 459.66138 
L 421.497085 507.481588 
L 424.420775 565.343447 
L 427.344465 488.257884 
L 430.268155 482.853836 
L 433.191845 483.977566 
L 436.115535 442.076835 
L 439.039225 481.002384 
L 441.962915 518.257817 
L 444.886605 471.513136 
L 447.810296 390.507758 
L 450.733986 402.284658 
L 453.657676 416.098997 
L 456.581366 411.735183 
L 459.505056 520.492404 
L 462.428746 450.008182 
L 465.352436 493.946388 
L 468.276126 469.51246 
L 471.199816 477.283494 
L 474.123506 497.925179 
L 477.047197 473.332197 
L 479.970887 352.461377 
L 482.894577 474.88674 
L 485.818267 500.157038 
L 488.741957 498.800342 
L 491.665647 471.935939 
L 494.589337 490.947105 
L 497.513027 574.454667 
L 503.360408 402.733975 
L 506.284098 464.276176 
L 509.207788 541.145528 
L 512.131478 522.059785 
L 515.055168 511.731858 
L 517.978858 444.620504 
L 520.902548 477.038145 
L 523.826238 471.99474 
L 526.749928 431.617874 
L 529.673618 478.328974 
L 532.597309 498.781628 
L 535.520999 428.204673 
L 538.444689 467.21225 
L 541.368379 498.064015 
L 544.292069 496.454134 
L 547.215759 396.411984 
L 550.139449 472.479527 
L 553.063139 430.112233 
L 555.986829 413.531192 
L 558.910519 377.024259 
L 561.83421 354.19276 
L 564.7579 435.171064 
L 567.68159 386.145588 
L 570.60528 474.301876 
L 573.52897 382.534471 
L 576.45266 414.064565 
L 579.37635 407.347791 
L 582.30004 381.911128 
L 585.22373 479.935252 
L 588.147421 390.735303 
L 591.071111 447.305668 
L 593.994801 540.60334 
L 596.918491 476.054754 
L 599.842181 497.308553 
L 602.765871 470.689394 
L 605.689561 493.158746 
L 608.613251 503.87222 
L 611.536941 537.898447 
L 614.460631 582.437189 
L 617.384322 526.656846 
L 620.308012 534.111871 
L 623.231702 478.955254 
L 626.155392 522.43281 
L 629.079082 474.207675 
L 632.002772 449.03609 
L 634.926462 459.467591 
L 637.850152 496.784099 
L 640.773842 456.049109 
L 643.697532 396.659257 
L 646.621223 454.639278 
L 649.544913 475.358164 
L 652.468603 509.083039 
L 655.392293 474.540299 
L 658.315983 376.046675 
L 661.239673 474.570766 
L 664.163363 423.399062 
L 667.087053 508.785395 
L 670.010743 508.077541 
L 672.934433 481.357465 
L 675.858124 512.891303 
L 678.781814 493.493119 
L 681.705504 520.214174 
L 684.629194 562.025952 
L 687.552884 484.491246 
L 690.476574 567.565861 
L 693.400264 525.833348 
L 696.323954 536.580649 
L 702.171335 480.541803 
L 705.095025 486.86236 
L 708.018715 485.771022 
L 710.942405 489.797175 
L 713.866095 488.301749 
L 716.789785 489.157707 
L 719.713475 487.070106 
L 722.637165 483.628327 
L 725.560855 488.407738 
L 728.484545 483.983443 
L 728.484545 483.983443 
" style="fill:none;stroke:#c44e52;stroke-dasharray:4.5,1.875,2.25,1.875;stroke-dashoffset:0;stroke-width:1.5;"/>
   </g>
   <g id="line2d_5">
    <path clip-path="url(#pfac1f5104a)" d="M 134.975455 451.212645 
L 137.899145 456.509899 
L 140.822835 455.971943 
L 143.746525 456.148871 
L 146.670215 459.987288 
L 149.593905 460.409111 
L 152.517595 458.377582 
L 155.441285 459.807701 
L 158.364975 457.988745 
L 161.288665 459.961228 
L 164.212356 457.723842 
L 167.136046 457.898777 
L 170.059736 474.871104 
L 172.983426 482.369049 
L 175.907116 495.957594 
L 178.830806 541.733681 
L 181.690543 596.44 
M 181.793083 596.44 
L 184.678186 504.964783 
L 187.601876 454.318092 
L 190.525567 531.666565 
L 193.449257 528.960448 
L 196.372947 500.797555 
L 199.296637 509.05586 
L 202.220327 454.156905 
L 205.144017 458.573749 
L 208.067707 545.522845 
L 210.991397 455.217321 
L 213.915087 439.744024 
L 216.838777 482.866499 
L 219.762468 466.430519 
L 222.686158 516.483531 
L 225.609848 522.059155 
L 228.533538 550.723625 
L 231.457228 548.615665 
L 234.380918 458.447017 
L 240.228298 557.976571 
L 243.151988 517.855408 
L 246.075678 449.425871 
L 248.999369 447.499702 
L 251.923059 483.269328 
L 254.846749 487.139891 
L 257.770439 513.490509 
L 260.694129 445.80349 
L 263.617819 533.346196 
L 266.541509 440.675154 
L 269.465199 433.539286 
L 272.388889 469.671199 
L 275.312579 499.761905 
L 278.23627 504.442358 
L 281.15996 501.48554 
L 284.08365 459.328756 
L 287.00734 466.186639 
L 289.93103 511.994208 
L 295.77841 395.857167 
L 298.7021 448.381475 
L 301.62579 481.808881 
L 304.549481 490.85112 
L 307.473171 474.446343 
L 310.396861 472.843668 
L 313.320551 478.418347 
L 316.244241 520.092864 
L 319.167931 499.077243 
L 322.091621 452.086234 
L 325.015311 359.628238 
L 327.939001 415.028297 
L 330.862691 442.065746 
L 333.786382 416.698064 
L 336.710072 451.366172 
L 339.633762 530.698565 
L 342.557452 501.503555 
L 345.481142 423.873704 
L 348.404832 412.465074 
L 351.328522 393.271312 
L 354.252212 465.545107 
L 357.175902 501.224975 
L 360.099592 527.450435 
L 362.652507 596.44 
M 363.244113 596.44 
L 365.946973 473.802712 
L 368.870663 463.596866 
L 371.794353 426.591434 
L 374.718043 477.43828 
L 377.641733 519.963753 
L 380.565423 545.460756 
L 383.489113 481.469506 
L 386.412803 463.038167 
L 389.336494 500.887559 
L 392.260184 502.093526 
L 395.183874 527.134112 
L 398.107564 448.345866 
L 401.031254 441.213425 
L 403.954944 435.338023 
L 406.878634 475.57385 
L 409.802324 489.355239 
L 412.726014 473.560406 
L 415.649704 540.057268 
L 418.573395 462.046871 
L 421.497085 522.299747 
L 424.420775 577.348626 
L 427.344465 494.92719 
L 430.268155 480.967719 
L 433.191845 485.796277 
L 436.115535 437.415585 
L 439.039225 479.837903 
L 441.962915 517.7221 
L 444.886605 472.561834 
L 447.810296 386.761374 
L 450.733986 396.101013 
L 453.657676 398.399578 
L 456.581366 393.366317 
L 459.505056 491.85347 
L 462.428746 435.122232 
L 465.352436 482.03772 
L 468.276126 468.532148 
L 471.199816 479.019128 
L 474.123506 503.696901 
L 477.047197 455.41104 
L 479.970887 348.231675 
L 482.894577 480.180006 
L 485.818267 500.176627 
L 488.741957 495.056756 
L 491.665647 473.872497 
L 494.589337 482.819976 
L 497.513027 569.985982 
L 503.360408 398.731782 
L 506.284098 459.543708 
L 509.207788 545.499374 
L 515.055168 509.624493 
L 517.978858 445.211 
L 520.902548 474.047047 
L 523.826238 464.206426 
L 526.749928 419.150681 
L 529.673618 470.153222 
L 532.597309 477.721897 
L 535.520999 411.01624 
L 538.444689 441.617548 
L 541.368379 489.382348 
L 544.292069 494.836208 
L 547.215759 386.675044 
L 550.139449 466.513282 
L 553.063139 408.872671 
L 555.986829 452.810773 
L 558.910519 421.698128 
L 561.83421 420.927591 
L 564.7579 485.558623 
L 567.68159 437.331739 
L 570.60528 423.680055 
L 573.52897 389.472353 
L 576.45266 475.185713 
L 579.37635 442.061548 
L 582.30004 384.631377 
L 585.22373 453.906834 
L 588.147421 398.91896 
L 591.071111 438.642821 
L 593.994801 502.384909 
L 596.918491 459.267541 
L 599.842181 468.934662 
L 602.765871 449.107519 
L 605.689561 461.653591 
L 608.613251 484.491841 
L 611.536941 506.328475 
L 614.460631 556.217326 
L 617.384322 499.020436 
L 620.308012 517.479654 
L 623.231702 475.383105 
L 626.155392 511.549438 
L 629.079082 464.931105 
L 632.002772 436.804871 
L 634.926462 453.720181 
L 637.850152 478.462702 
L 640.773842 433.997942 
L 643.697532 385.538546 
L 646.621223 432.210818 
L 649.544913 453.266561 
L 652.468603 487.937748 
L 655.392293 457.393632 
L 658.315983 369.15675 
L 661.239673 451.008153 
L 664.163363 412.473364 
L 667.087053 501.240576 
L 670.010743 497.094126 
L 672.934433 481.181971 
L 675.858124 507.327887 
L 678.781814 474.125507 
L 681.705504 512.889134 
L 684.629194 546.66438 
L 687.552884 472.522202 
L 690.476574 544.836434 
L 693.400264 509.527914 
L 696.323954 526.80523 
L 699.247644 504.262491 
L 702.171335 474.127081 
L 705.095025 478.401942 
L 708.018715 477.019011 
L 710.942405 481.428055 
L 713.866095 480.351373 
L 716.789785 480.942324 
L 719.713475 478.588805 
L 722.637165 475.840852 
L 725.560855 479.917762 
L 728.484545 477.056369 
L 728.484545 477.056369 
" style="fill:none;stroke:#8172b3;stroke-dasharray:7.5,1.5,1.5,1.5;stroke-dashoffset:0;stroke-width:1.5;"/>
   </g>
   <g id="line2d_6"/>
   <g id="line2d_7"/>
   <g id="line2d_8"/>
   <g id="line2d_9"/>
   <g id="line2d_10"/>
   <g id="patch_3">
    <path d="M 105.3 529.9416 
L 105.3 71.4528 
" style="fill:none;stroke:#262626;stroke-linecap:square;stroke-linejoin:miter;stroke-width:1.25;"/>
   </g>
   <g id="patch_4">
    <path d="M 758.16 529.9416 
L 758.16 71.4528 
" style="fill:none;stroke:#262626;stroke-linecap:square;stroke-linejoin:miter;stroke-width:1.25;"/>
   </g>
   <g id="patch_5">
    <path d="M 105.3 529.9416 
L 758.16 529.9416 
" style="fill:none;stroke:#262626;stroke-linecap:square;stroke-linejoin:miter;stroke-width:1.25;"/>
   </g>
   <g id="patch_6">
    <path d="M 105.3 71.4528 
L 758.16 71.4528 
" style="fill:none;stroke:#262626;stroke-linecap:square;stroke-linejoin:miter;stroke-width:1.25;"/>
   </g>
   <g id="text_16">
    <!-- Activations for &gt;`&lt; -->
    <g style="fill:#262626;" transform="translate(383.376563 65.4528)scale(0.12 -0.12)">
     <defs>
      <path d="M -9 0 
L 1750 4581 
L 2403 4581 
L 4278 0 
L 3588 0 
L 3053 1388 
L 1138 1388 
L 634 0 
L -9 0 
z
M 1313 1881 
L 2866 1881 
L 2388 3150 
Q 2169 3728 2063 4100 
Q 1975 3659 1816 3225 
L 1313 1881 
z
" id="ArialMT-41" transform="scale(0.015625)"/>
      <path d="M 2588 1216 
L 3141 1144 
Q 3050 572 2676 248 
Q 2303 -75 1759 -75 
Q 1078 -75 664 370 
Q 250 816 250 1647 
Q 250 2184 428 2587 
Q 606 2991 970 3192 
Q 1334 3394 1763 3394 
Q 2303 3394 2647 3120 
Q 2991 2847 3088 2344 
L 2541 2259 
Q 2463 2594 2264 2762 
Q 2066 2931 1784 2931 
Q 1359 2931 1093 2626 
Q 828 2322 828 1663 
Q 828 994 1084 691 
Q 1341 388 1753 388 
Q 2084 388 2306 591 
Q 2528 794 2588 1216 
z
" id="ArialMT-63" transform="scale(0.015625)"/>
      <path d="M 1650 503 
L 1731 6 
Q 1494 -44 1306 -44 
Q 1000 -44 831 53 
Q 663 150 594 308 
Q 525 466 525 972 
L 525 2881 
L 113 2881 
L 113 3319 
L 525 3319 
L 525 4141 
L 1084 4478 
L 1084 3319 
L 1650 3319 
L 1650 2881 
L 1084 2881 
L 1084 941 
Q 1084 700 1114 631 
Q 1144 563 1211 522 
Q 1278 481 1403 481 
Q 1497 481 1650 503 
z
" id="ArialMT-74" transform="scale(0.015625)"/>
      <path d="M 425 3934 
L 425 4581 
L 988 4581 
L 988 3934 
L 425 3934 
z
M 425 0 
L 425 3319 
L 988 3319 
L 988 0 
L 425 0 
z
" id="ArialMT-69" transform="scale(0.015625)"/>
      <path d="M 1344 0 
L 81 3319 
L 675 3319 
L 1388 1331 
Q 1503 1009 1600 663 
Q 1675 925 1809 1294 
L 2547 3319 
L 3125 3319 
L 1869 0 
L 1344 0 
z
" id="ArialMT-76" transform="scale(0.015625)"/>
      <path d="M 2588 409 
Q 2275 144 1986 34 
Q 1697 -75 1366 -75 
Q 819 -75 525 192 
Q 231 459 231 875 
Q 231 1119 342 1320 
Q 453 1522 633 1644 
Q 813 1766 1038 1828 
Q 1203 1872 1538 1913 
Q 2219 1994 2541 2106 
Q 2544 2222 2544 2253 
Q 2544 2597 2384 2738 
Q 2169 2928 1744 2928 
Q 1347 2928 1158 2789 
Q 969 2650 878 2297 
L 328 2372 
Q 403 2725 575 2942 
Q 747 3159 1072 3276 
Q 1397 3394 1825 3394 
Q 2250 3394 2515 3294 
Q 2781 3194 2906 3042 
Q 3031 2891 3081 2659 
Q 3109 2516 3109 2141 
L 3109 1391 
Q 3109 606 3145 398 
Q 3181 191 3288 0 
L 2700 0 
Q 2613 175 2588 409 
z
M 2541 1666 
Q 2234 1541 1622 1453 
Q 1275 1403 1131 1340 
Q 988 1278 909 1158 
Q 831 1038 831 891 
Q 831 666 1001 516 
Q 1172 366 1500 366 
Q 1825 366 2078 508 
Q 2331 650 2450 897 
Q 2541 1088 2541 1459 
L 2541 1666 
z
" id="ArialMT-61" transform="scale(0.015625)"/>
      <path d="M 213 1659 
Q 213 2581 725 3025 
Q 1153 3394 1769 3394 
Q 2453 3394 2887 2945 
Q 3322 2497 3322 1706 
Q 3322 1066 3130 698 
Q 2938 331 2570 128 
Q 2203 -75 1769 -75 
Q 1072 -75 642 372 
Q 213 819 213 1659 
z
M 791 1659 
Q 791 1022 1069 705 
Q 1347 388 1769 388 
Q 2188 388 2466 706 
Q 2744 1025 2744 1678 
Q 2744 2294 2464 2611 
Q 2184 2928 1769 2928 
Q 1347 2928 1069 2612 
Q 791 2297 791 1659 
z
" id="ArialMT-6f" transform="scale(0.015625)"/>
      <path d="M 422 0 
L 422 3319 
L 928 3319 
L 928 2847 
Q 1294 3394 1984 3394 
Q 2284 3394 2536 3286 
Q 2788 3178 2913 3003 
Q 3038 2828 3088 2588 
Q 3119 2431 3119 2041 
L 3119 0 
L 2556 0 
L 2556 2019 
Q 2556 2363 2490 2533 
Q 2425 2703 2258 2804 
Q 2091 2906 1866 2906 
Q 1506 2906 1245 2678 
Q 984 2450 984 1813 
L 984 0 
L 422 0 
z
" id="ArialMT-6e" transform="scale(0.015625)"/>
      <path d="M 197 991 
L 753 1078 
Q 800 744 1014 566 
Q 1228 388 1613 388 
Q 2000 388 2187 545 
Q 2375 703 2375 916 
Q 2375 1106 2209 1216 
Q 2094 1291 1634 1406 
Q 1016 1563 777 1677 
Q 538 1791 414 1992 
Q 291 2194 291 2438 
Q 291 2659 392 2848 
Q 494 3038 669 3163 
Q 800 3259 1026 3326 
Q 1253 3394 1513 3394 
Q 1903 3394 2198 3281 
Q 2494 3169 2634 2976 
Q 2775 2784 2828 2463 
L 2278 2388 
Q 2241 2644 2061 2787 
Q 1881 2931 1553 2931 
Q 1166 2931 1000 2803 
Q 834 2675 834 2503 
Q 834 2394 903 2306 
Q 972 2216 1119 2156 
Q 1203 2125 1616 2013 
Q 2213 1853 2448 1751 
Q 2684 1650 2818 1456 
Q 2953 1263 2953 975 
Q 2953 694 2789 445 
Q 2625 197 2315 61 
Q 2006 -75 1616 -75 
Q 969 -75 630 194 
Q 291 463 197 991 
z
" id="ArialMT-73" transform="scale(0.015625)"/>
      <path id="ArialMT-20" transform="scale(0.015625)"/>
      <path d="M 556 0 
L 556 2881 
L 59 2881 
L 59 3319 
L 556 3319 
L 556 3672 
Q 556 4006 616 4169 
Q 697 4388 901 4523 
Q 1106 4659 1475 4659 
Q 1713 4659 2000 4603 
L 1916 4113 
Q 1741 4144 1584 4144 
Q 1328 4144 1222 4034 
Q 1116 3925 1116 3625 
L 1116 3319 
L 1763 3319 
L 1763 2881 
L 1116 2881 
L 1116 0 
L 556 0 
z
" id="ArialMT-66" transform="scale(0.015625)"/>
      <path d="M 416 0 
L 416 3319 
L 922 3319 
L 922 2816 
Q 1116 3169 1280 3281 
Q 1444 3394 1641 3394 
Q 1925 3394 2219 3213 
L 2025 2691 
Q 1819 2813 1613 2813 
Q 1428 2813 1281 2702 
Q 1134 2591 1072 2394 
Q 978 2094 978 1738 
L 978 0 
L 416 0 
z
" id="ArialMT-72" transform="scale(0.015625)"/>
      <path d="M 3384 2003 
L 350 706 
L 350 1266 
L 2753 2263 
L 350 3250 
L 350 3809 
L 3384 2528 
L 3384 2003 
z
" id="ArialMT-3e" transform="scale(0.015625)"/>
      <path d="M 1453 3731 
L 1000 3731 
L 278 4606 
L 1031 4606 
L 1453 3731 
z
" id="ArialMT-60" transform="scale(0.015625)"/>
      <path d="M 350 2003 
L 350 2528 
L 3384 3809 
L 3384 3250 
L 978 2263 
L 3384 1266 
L 3384 706 
L 350 2003 
z
" id="ArialMT-3c" transform="scale(0.015625)"/>
     </defs>
     <use xlink:href="#ArialMT-41"/>
     <use x="66.699219" xlink:href="#ArialMT-63"/>
     <use x="116.699219" xlink:href="#ArialMT-74"/>
     <use x="144.482422" xlink:href="#ArialMT-69"/>
     <use x="166.699219" xlink:href="#ArialMT-76"/>
     <use x="216.699219" xlink:href="#ArialMT-61"/>
     <use x="272.314453" xlink:href="#ArialMT-74"/>
     <use x="300.097656" xlink:href="#ArialMT-69"/>
     <use x="322.314453" xlink:href="#ArialMT-6f"/>
     <use x="377.929688" xlink:href="#ArialMT-6e"/>
     <use x="433.544922" xlink:href="#ArialMT-73"/>
     <use x="483.544922" xlink:href="#ArialMT-20"/>
     <use x="511.328125" xlink:href="#ArialMT-66"/>
     <use x="539.111328" xlink:href="#ArialMT-6f"/>
     <use x="594.726562" xlink:href="#ArialMT-72"/>
     <use x="628.027344" xlink:href="#ArialMT-20"/>
     <use x="655.810547" xlink:href="#ArialMT-3e"/>
     <use x="714.208984" xlink:href="#ArialMT-60"/>
     <use x="747.509766" xlink:href="#ArialMT-3c"/>
    </g>
   </g>
   <g id="legend_1">
    <g id="patch_7">
     <path d="M 640.044062 158.514363 
L 750.46 158.514363 
Q 752.66 158.514363 752.66 156.314363 
L 752.66 79.1528 
Q 752.66 76.9528 750.46 76.9528 
L 640.044062 76.9528 
Q 637.844062 76.9528 637.844062 79.1528 
L 637.844062 156.314363 
Q 637.844062 158.514363 640.044062 158.514363 
z
" style="fill:#ffffff;opacity:0.8;stroke:#cccccc;stroke-linejoin:miter;"/>
    </g>
    <g id="line2d_11">
     <path d="M 642.244062 85.376394 
L 664.244062 85.376394 
" style="fill:none;stroke:#4c72b0;stroke-linecap:round;stroke-width:1.5;"/>
    </g>
    <g id="line2d_12"/>
    <g id="text_17">
     <!-- regular -->
     <g style="fill:#262626;" transform="translate(673.044062 89.226394)scale(0.11 -0.11)">
      <defs>
       <path d="M 2694 1069 
L 3275 997 
Q 3138 488 2766 206 
Q 2394 -75 1816 -75 
Q 1088 -75 661 373 
Q 234 822 234 1631 
Q 234 2469 665 2931 
Q 1097 3394 1784 3394 
Q 2450 3394 2872 2941 
Q 3294 2488 3294 1666 
Q 3294 1616 3291 1516 
L 816 1516 
Q 847 969 1125 678 
Q 1403 388 1819 388 
Q 2128 388 2347 550 
Q 2566 713 2694 1069 
z
M 847 1978 
L 2700 1978 
Q 2663 2397 2488 2606 
Q 2219 2931 1791 2931 
Q 1403 2931 1139 2672 
Q 875 2413 847 1978 
z
" id="ArialMT-65" transform="scale(0.015625)"/>
       <path d="M 319 -275 
L 866 -356 
Q 900 -609 1056 -725 
Q 1266 -881 1628 -881 
Q 2019 -881 2231 -725 
Q 2444 -569 2519 -288 
Q 2563 -116 2559 434 
Q 2191 0 1641 0 
Q 956 0 581 494 
Q 206 988 206 1678 
Q 206 2153 378 2554 
Q 550 2956 876 3175 
Q 1203 3394 1644 3394 
Q 2231 3394 2613 2919 
L 2613 3319 
L 3131 3319 
L 3131 450 
Q 3131 -325 2973 -648 
Q 2816 -972 2473 -1159 
Q 2131 -1347 1631 -1347 
Q 1038 -1347 672 -1080 
Q 306 -813 319 -275 
z
M 784 1719 
Q 784 1066 1043 766 
Q 1303 466 1694 466 
Q 2081 466 2343 764 
Q 2606 1063 2606 1700 
Q 2606 2309 2336 2618 
Q 2066 2928 1684 2928 
Q 1309 2928 1046 2623 
Q 784 2319 784 1719 
z
" id="ArialMT-67" transform="scale(0.015625)"/>
       <path d="M 2597 0 
L 2597 488 
Q 2209 -75 1544 -75 
Q 1250 -75 995 37 
Q 741 150 617 320 
Q 494 491 444 738 
Q 409 903 409 1263 
L 409 3319 
L 972 3319 
L 972 1478 
Q 972 1038 1006 884 
Q 1059 663 1231 536 
Q 1403 409 1656 409 
Q 1909 409 2131 539 
Q 2353 669 2445 892 
Q 2538 1116 2538 1541 
L 2538 3319 
L 3100 3319 
L 3100 0 
L 2597 0 
z
" id="ArialMT-75" transform="scale(0.015625)"/>
       <path d="M 409 0 
L 409 4581 
L 972 4581 
L 972 0 
L 409 0 
z
" id="ArialMT-6c" transform="scale(0.015625)"/>
      </defs>
      <use xlink:href="#ArialMT-72"/>
      <use x="33.300781" xlink:href="#ArialMT-65"/>
      <use x="88.916016" xlink:href="#ArialMT-67"/>
      <use x="144.53125" xlink:href="#ArialMT-75"/>
      <use x="200.146484" xlink:href="#ArialMT-6c"/>
      <use x="222.363281" xlink:href="#ArialMT-61"/>
      <use x="277.978516" xlink:href="#ArialMT-72"/>
     </g>
    </g>
    <g id="line2d_13">
     <path d="M 642.244062 101.0978 
L 664.244062 101.0978 
" style="fill:none;stroke:#dd8452;stroke-dasharray:6,2.25;stroke-dashoffset:0;stroke-width:1.5;"/>
    </g>
    <g id="line2d_14"/>
    <g id="text_18">
     <!-- splitted_3s -->
     <g style="fill:#262626;" transform="translate(673.044062 104.9478)scale(0.11 -0.11)">
      <defs>
       <path d="M 422 -1272 
L 422 3319 
L 934 3319 
L 934 2888 
Q 1116 3141 1344 3267 
Q 1572 3394 1897 3394 
Q 2322 3394 2647 3175 
Q 2972 2956 3137 2557 
Q 3303 2159 3303 1684 
Q 3303 1175 3120 767 
Q 2938 359 2589 142 
Q 2241 -75 1856 -75 
Q 1575 -75 1351 44 
Q 1128 163 984 344 
L 984 -1272 
L 422 -1272 
z
M 931 1641 
Q 931 1000 1190 694 
Q 1450 388 1819 388 
Q 2194 388 2461 705 
Q 2728 1022 2728 1688 
Q 2728 2322 2467 2637 
Q 2206 2953 1844 2953 
Q 1484 2953 1207 2617 
Q 931 2281 931 1641 
z
" id="ArialMT-70" transform="scale(0.015625)"/>
       <path d="M 2575 0 
L 2575 419 
Q 2259 -75 1647 -75 
Q 1250 -75 917 144 
Q 584 363 401 755 
Q 219 1147 219 1656 
Q 219 2153 384 2558 
Q 550 2963 881 3178 
Q 1213 3394 1622 3394 
Q 1922 3394 2156 3267 
Q 2391 3141 2538 2938 
L 2538 4581 
L 3097 4581 
L 3097 0 
L 2575 0 
z
M 797 1656 
Q 797 1019 1065 703 
Q 1334 388 1700 388 
Q 2069 388 2326 689 
Q 2584 991 2584 1609 
Q 2584 2291 2321 2609 
Q 2059 2928 1675 2928 
Q 1300 2928 1048 2622 
Q 797 2316 797 1656 
z
" id="ArialMT-64" transform="scale(0.015625)"/>
       <path d="M -97 -1272 
L -97 -866 
L 3631 -866 
L 3631 -1272 
L -97 -1272 
z
" id="ArialMT-5f" transform="scale(0.015625)"/>
       <path d="M 269 1209 
L 831 1284 
Q 928 806 1161 595 
Q 1394 384 1728 384 
Q 2125 384 2398 659 
Q 2672 934 2672 1341 
Q 2672 1728 2419 1979 
Q 2166 2231 1775 2231 
Q 1616 2231 1378 2169 
L 1441 2663 
Q 1497 2656 1531 2656 
Q 1891 2656 2178 2843 
Q 2466 3031 2466 3422 
Q 2466 3731 2256 3934 
Q 2047 4138 1716 4138 
Q 1388 4138 1169 3931 
Q 950 3725 888 3313 
L 325 3413 
Q 428 3978 793 4289 
Q 1159 4600 1703 4600 
Q 2078 4600 2393 4439 
Q 2709 4278 2876 4000 
Q 3044 3722 3044 3409 
Q 3044 3113 2884 2869 
Q 2725 2625 2413 2481 
Q 2819 2388 3044 2092 
Q 3269 1797 3269 1353 
Q 3269 753 2831 336 
Q 2394 -81 1725 -81 
Q 1122 -81 723 278 
Q 325 638 269 1209 
z
" id="ArialMT-33" transform="scale(0.015625)"/>
      </defs>
      <use xlink:href="#ArialMT-73"/>
      <use x="50" xlink:href="#ArialMT-70"/>
      <use x="105.615234" xlink:href="#ArialMT-6c"/>
      <use x="127.832031" xlink:href="#ArialMT-69"/>
      <use x="150.048828" xlink:href="#ArialMT-74"/>
      <use x="177.832031" xlink:href="#ArialMT-74"/>
      <use x="205.615234" xlink:href="#ArialMT-65"/>
      <use x="261.230469" xlink:href="#ArialMT-64"/>
      <use x="316.845703" xlink:href="#ArialMT-5f"/>
      <use x="372.460938" xlink:href="#ArialMT-33"/>
      <use x="428.076172" xlink:href="#ArialMT-73"/>
     </g>
    </g>
    <g id="line2d_15">
     <path d="M 642.244062 116.6903 
L 664.244062 116.6903 
" style="fill:none;stroke:#55a868;stroke-dasharray:1.5,1.5;stroke-dashoffset:0;stroke-width:1.5;"/>
    </g>
    <g id="line2d_16"/>
    <g id="text_19">
     <!-- splitted_1s -->
     <g style="fill:#262626;" transform="translate(673.044062 120.5403)scale(0.11 -0.11)">
      <use xlink:href="#ArialMT-73"/>
      <use x="50" xlink:href="#ArialMT-70"/>
      <use x="105.615234" xlink:href="#ArialMT-6c"/>
      <use x="127.832031" xlink:href="#ArialMT-69"/>
      <use x="150.048828" xlink:href="#ArialMT-74"/>
      <use x="177.832031" xlink:href="#ArialMT-74"/>
      <use x="205.615234" xlink:href="#ArialMT-65"/>
      <use x="261.230469" xlink:href="#ArialMT-64"/>
      <use x="316.845703" xlink:href="#ArialMT-5f"/>
      <use x="372.460938" xlink:href="#ArialMT-31"/>
      <use x="428.076172" xlink:href="#ArialMT-73"/>
     </g>
    </g>
    <g id="line2d_17">
     <path d="M 642.244062 132.384206 
L 664.244062 132.384206 
" style="fill:none;stroke:#c44e52;stroke-dasharray:4.5,1.875,2.25,1.875;stroke-dashoffset:0;stroke-width:1.5;"/>
    </g>
    <g id="line2d_18"/>
    <g id="text_20">
     <!-- overlap_1f_3s -->
     <g style="fill:#262626;" transform="translate(673.044062 136.234206)scale(0.11 -0.11)">
      <use xlink:href="#ArialMT-6f"/>
      <use x="55.615234" xlink:href="#ArialMT-76"/>
      <use x="105.615234" xlink:href="#ArialMT-65"/>
      <use x="161.230469" xlink:href="#ArialMT-72"/>
      <use x="194.53125" xlink:href="#ArialMT-6c"/>
      <use x="216.748047" xlink:href="#ArialMT-61"/>
      <use x="272.363281" xlink:href="#ArialMT-70"/>
      <use x="327.978516" xlink:href="#ArialMT-5f"/>
      <use x="383.59375" xlink:href="#ArialMT-31"/>
      <use x="439.208984" xlink:href="#ArialMT-66"/>
      <use x="466.992188" xlink:href="#ArialMT-5f"/>
      <use x="522.607422" xlink:href="#ArialMT-33"/>
      <use x="578.222656" xlink:href="#ArialMT-73"/>
     </g>
    </g>
    <g id="line2d_19">
     <path d="M 642.244062 148.078113 
L 664.244062 148.078113 
" style="fill:none;stroke:#8172b3;stroke-dasharray:7.5,1.5,1.5,1.5;stroke-dashoffset:0;stroke-width:1.5;"/>
    </g>
    <g id="line2d_20"/>
    <g id="text_21">
     <!-- overlap_10f_3s -->
     <g style="fill:#262626;" transform="translate(673.044062 151.928112)scale(0.11 -0.11)">
      <use xlink:href="#ArialMT-6f"/>
      <use x="55.615234" xlink:href="#ArialMT-76"/>
      <use x="105.615234" xlink:href="#ArialMT-65"/>
      <use x="161.230469" xlink:href="#ArialMT-72"/>
      <use x="194.53125" xlink:href="#ArialMT-6c"/>
      <use x="216.748047" xlink:href="#ArialMT-61"/>
      <use x="272.363281" xlink:href="#ArialMT-70"/>
      <use x="327.978516" xlink:href="#ArialMT-5f"/>
      <use x="383.59375" xlink:href="#ArialMT-31"/>
      <use x="439.208984" xlink:href="#ArialMT-30"/>
      <use x="494.824219" xlink:href="#ArialMT-66"/>
      <use x="522.607422" xlink:href="#ArialMT-5f"/>
      <use x="578.222656" xlink:href="#ArialMT-33"/>
      <use x="633.837891" xlink:href="#ArialMT-73"/>
     </g>
    </g>
   </g>
  </g>
 </g>
 <defs>
  <clipPath id="pfac1f5104a">
   <rect height="458.4888" width="652.86" x="105.3" y="71.4528"/>
  </clipPath>
 </defs>
</svg>
