<?xml version="1.0" encoding="utf-8" standalone="no"?>
<!DOCTYPE svg PUBLIC "-//W3C//DTD SVG 1.1//EN"
  "http://www.w3.org/Graphics/SVG/1.1/DTD/svg11.dtd">
<svg height="595.44pt" version="1.1" viewBox="0 0 842.4 595.44" width="842.4pt" xmlns="http://www.w3.org/2000/svg" xmlns:xlink="http://www.w3.org/1999/xlink">
 <metadata>
  <rdf:RDF xmlns:cc="http://creativecommons.org/ns#" xmlns:dc="http://purl.org/dc/elements/1.1/" xmlns:rdf="http://www.w3.org/1999/02/22-rdf-syntax-ns#">
   <cc:Work>
    <dc:type rdf:resource="http://purl.org/dc/dcmitype/StillImage"/>
    <dc:date>2021-06-04T22:03:17.827828</dc:date>
    <dc:format>image/svg+xml</dc:format>
    <dc:creator>
     <cc:Agent>
      <dc:title>Matplotlib v3.4.1, https://matplotlib.org/</dc:title>
     </cc:Agent>
    </dc:creator>
   </cc:Work>
  </rdf:RDF>
 </metadata>
 <defs>
  <style type="text/css">*{stroke-linecap:butt;stroke-linejoin:round;}</style>
 </defs>
 <g id="figure_1">
  <g id="patch_1">
   <path d="M 0 595.44 
L 842.4 595.44 
L 842.4 0 
L 0 0 
z
" style="fill:#ffffff;"/>
  </g>
  <g id="axes_1">
   <g id="patch_2">
    <path d="M 105.3 529.9416 
L 758.16 529.9416 
L 758.16 71.4528 
L 105.3 71.4528 
z
" style="fill:#ffffff;"/>
   </g>
   <g id="matplotlib.axis_1">
    <g id="xtick_1">
     <g id="text_1">
      <!-- 0 -->
      <g style="fill:#262626;" transform="translate(131.916939 547.315194)scale(0.11 -0.11)">
       <defs>
        <path d="M 266 2259 
Q 266 3072 433 3567 
Q 600 4063 929 4331 
Q 1259 4600 1759 4600 
Q 2128 4600 2406 4451 
Q 2684 4303 2865 4023 
Q 3047 3744 3150 3342 
Q 3253 2941 3253 2259 
Q 3253 1453 3087 958 
Q 2922 463 2592 192 
Q 2263 -78 1759 -78 
Q 1097 -78 719 397 
Q 266 969 266 2259 
z
M 844 2259 
Q 844 1131 1108 757 
Q 1372 384 1759 384 
Q 2147 384 2411 759 
Q 2675 1134 2675 2259 
Q 2675 3391 2411 3762 
Q 2147 4134 1753 4134 
Q 1366 4134 1134 3806 
Q 844 3388 844 2259 
z
" id="ArialMT-30" transform="scale(0.015625)"/>
       </defs>
       <use xlink:href="#ArialMT-30"/>
      </g>
     </g>
    </g>
    <g id="xtick_2">
     <g id="text_2">
      <!-- 25 -->
      <g style="fill:#262626;" transform="translate(201.950676 547.315194)scale(0.11 -0.11)">
       <defs>
        <path d="M 3222 541 
L 3222 0 
L 194 0 
Q 188 203 259 391 
Q 375 700 629 1000 
Q 884 1300 1366 1694 
Q 2113 2306 2375 2664 
Q 2638 3022 2638 3341 
Q 2638 3675 2398 3904 
Q 2159 4134 1775 4134 
Q 1369 4134 1125 3890 
Q 881 3647 878 3216 
L 300 3275 
Q 359 3922 746 4261 
Q 1134 4600 1788 4600 
Q 2447 4600 2831 4234 
Q 3216 3869 3216 3328 
Q 3216 3053 3103 2787 
Q 2991 2522 2730 2228 
Q 2469 1934 1863 1422 
Q 1356 997 1212 845 
Q 1069 694 975 541 
L 3222 541 
z
" id="ArialMT-32" transform="scale(0.015625)"/>
        <path d="M 266 1200 
L 856 1250 
Q 922 819 1161 601 
Q 1400 384 1738 384 
Q 2144 384 2425 690 
Q 2706 997 2706 1503 
Q 2706 1984 2436 2262 
Q 2166 2541 1728 2541 
Q 1456 2541 1237 2417 
Q 1019 2294 894 2097 
L 366 2166 
L 809 4519 
L 3088 4519 
L 3088 3981 
L 1259 3981 
L 1013 2750 
Q 1425 3038 1878 3038 
Q 2478 3038 2890 2622 
Q 3303 2206 3303 1553 
Q 3303 931 2941 478 
Q 2500 -78 1738 -78 
Q 1113 -78 717 272 
Q 322 622 266 1200 
z
" id="ArialMT-35" transform="scale(0.015625)"/>
       </defs>
       <use xlink:href="#ArialMT-32"/>
       <use x="55.615234" xlink:href="#ArialMT-35"/>
      </g>
     </g>
    </g>
    <g id="xtick_3">
     <g id="text_3">
      <!-- 50 -->
      <g style="fill:#262626;" transform="translate(275.042928 547.315194)scale(0.11 -0.11)">
       <use xlink:href="#ArialMT-35"/>
       <use x="55.615234" xlink:href="#ArialMT-30"/>
      </g>
     </g>
    </g>
    <g id="xtick_4">
     <g id="text_4">
      <!-- 75 -->
      <g style="fill:#262626;" transform="translate(348.135181 547.315194)scale(0.11 -0.11)">
       <defs>
        <path d="M 303 3981 
L 303 4522 
L 3269 4522 
L 3269 4084 
Q 2831 3619 2401 2847 
Q 1972 2075 1738 1259 
Q 1569 684 1522 0 
L 944 0 
Q 953 541 1156 1306 
Q 1359 2072 1739 2783 
Q 2119 3494 2547 3981 
L 303 3981 
z
" id="ArialMT-37" transform="scale(0.015625)"/>
       </defs>
       <use xlink:href="#ArialMT-37"/>
       <use x="55.615234" xlink:href="#ArialMT-35"/>
      </g>
     </g>
    </g>
    <g id="xtick_5">
     <g id="text_5">
      <!-- 100 -->
      <g style="fill:#262626;" transform="translate(418.168918 547.315194)scale(0.11 -0.11)">
       <defs>
        <path d="M 2384 0 
L 1822 0 
L 1822 3584 
Q 1619 3391 1289 3197 
Q 959 3003 697 2906 
L 697 3450 
Q 1169 3672 1522 3987 
Q 1875 4303 2022 4600 
L 2384 4600 
L 2384 0 
z
" id="ArialMT-31" transform="scale(0.015625)"/>
       </defs>
       <use xlink:href="#ArialMT-31"/>
       <use x="55.615234" xlink:href="#ArialMT-30"/>
       <use x="111.230469" xlink:href="#ArialMT-30"/>
      </g>
     </g>
    </g>
    <g id="xtick_6">
     <g id="text_6">
      <!-- 125 -->
      <g style="fill:#262626;" transform="translate(491.261171 547.315194)scale(0.11 -0.11)">
       <use xlink:href="#ArialMT-31"/>
       <use x="55.615234" xlink:href="#ArialMT-32"/>
       <use x="111.230469" xlink:href="#ArialMT-35"/>
      </g>
     </g>
    </g>
    <g id="xtick_7">
     <g id="text_7">
      <!-- 150 -->
      <g style="fill:#262626;" transform="translate(564.353423 547.315194)scale(0.11 -0.11)">
       <use xlink:href="#ArialMT-31"/>
       <use x="55.615234" xlink:href="#ArialMT-35"/>
       <use x="111.230469" xlink:href="#ArialMT-30"/>
      </g>
     </g>
    </g>
    <g id="xtick_8">
     <g id="text_8">
      <!-- 175 -->
      <g style="fill:#262626;" transform="translate(637.445676 547.315194)scale(0.11 -0.11)">
       <use xlink:href="#ArialMT-31"/>
       <use x="55.615234" xlink:href="#ArialMT-37"/>
       <use x="111.230469" xlink:href="#ArialMT-35"/>
      </g>
     </g>
    </g>
    <g id="xtick_9">
     <g id="text_9">
      <!-- 200 -->
      <g style="fill:#262626;" transform="translate(710.537928 547.315194)scale(0.11 -0.11)">
       <use xlink:href="#ArialMT-32"/>
       <use x="55.615234" xlink:href="#ArialMT-30"/>
       <use x="111.230469" xlink:href="#ArialMT-30"/>
      </g>
     </g>
    </g>
   </g>
   <g id="matplotlib.axis_2">
    <g id="ytick_1">
     <g id="text_10">
      <!-- −25 -->
      <g style="fill:#262626;" transform="translate(77.14125 533.878397)scale(0.11 -0.11)">
       <defs>
        <path d="M 3381 1997 
L 356 1997 
L 356 2522 
L 3381 2522 
L 3381 1997 
z
" id="ArialMT-2212" transform="scale(0.015625)"/>
       </defs>
       <use xlink:href="#ArialMT-2212"/>
       <use x="58.398438" xlink:href="#ArialMT-32"/>
       <use x="114.013672" xlink:href="#ArialMT-35"/>
      </g>
     </g>
    </g>
    <g id="ytick_2">
     <g id="text_11">
      <!-- −20 -->
      <g style="fill:#262626;" transform="translate(77.14125 442.180637)scale(0.11 -0.11)">
       <use xlink:href="#ArialMT-2212"/>
       <use x="58.398438" xlink:href="#ArialMT-32"/>
       <use x="114.013672" xlink:href="#ArialMT-30"/>
      </g>
     </g>
    </g>
    <g id="ytick_3">
     <g id="text_12">
      <!-- −15 -->
      <g style="fill:#262626;" transform="translate(77.14125 350.482877)scale(0.11 -0.11)">
       <use xlink:href="#ArialMT-2212"/>
       <use x="58.398438" xlink:href="#ArialMT-31"/>
       <use x="114.013672" xlink:href="#ArialMT-35"/>
      </g>
     </g>
    </g>
    <g id="ytick_4">
     <g id="text_13">
      <!-- −10 -->
      <g style="fill:#262626;" transform="translate(77.14125 258.785117)scale(0.11 -0.11)">
       <use xlink:href="#ArialMT-2212"/>
       <use x="58.398438" xlink:href="#ArialMT-31"/>
       <use x="114.013672" xlink:href="#ArialMT-30"/>
      </g>
     </g>
    </g>
    <g id="ytick_5">
     <g id="text_14">
      <!-- −5 -->
      <g style="fill:#262626;" transform="translate(83.258281 167.087357)scale(0.11 -0.11)">
       <use xlink:href="#ArialMT-2212"/>
       <use x="58.398438" xlink:href="#ArialMT-35"/>
      </g>
     </g>
    </g>
    <g id="ytick_6">
     <g id="text_15">
      <!-- 0 -->
      <g style="fill:#262626;" transform="translate(89.682969 75.389597)scale(0.11 -0.11)">
       <use xlink:href="#ArialMT-30"/>
      </g>
     </g>
    </g>
   </g>
   <g id="line2d_1">
    <path clip-path="url(#pd0c49c47d6)" d="M 134.975455 562.21131 
L 137.899145 563.014274 
L 140.822835 564.076195 
L 143.746525 563.922843 
L 146.670215 565.113979 
L 149.593905 566.771048 
L 152.517595 567.635506 
L 155.441285 570.145211 
L 158.364975 572.888861 
L 161.288665 574.078668 
L 164.212356 576.69667 
L 167.136046 580.675426 
L 169.178018 596.44 
M 185.45049 596.44 
L 187.601876 545.332205 
L 189.84087 596.44 
M 201.757833 596.44 
L 202.220327 585.626938 
L 205.144017 576.859711 
L 205.787364 596.44 
M 210.078875 596.44 
L 210.991397 564.950238 
L 213.915087 583.800742 
L 215.19038 596.44 
M 222.004369 596.44 
L 222.686158 591.909367 
L 225.609848 575.43281 
L 227.153952 596.44 
M 232.277291 596.44 
L 234.380918 521.653073 
L 237.829596 596.44 
M 243.393929 596.44 
L 246.075678 495.047871 
L 248.999369 484.23166 
L 251.923059 576.810914 
L 254.846749 569.996826 
L 257.545395 596.44 
M 257.862601 596.44 
L 260.694129 528.690648 
L 262.388691 596.44 
M 265.127258 596.44 
L 266.541509 550.397822 
L 269.465199 537.070822 
L 275.312579 573.415763 
L 278.23627 578.057703 
L 281.15996 565.417675 
L 284.08365 537.015169 
L 287.00734 549.526192 
L 289.93103 591.926192 
L 292.85472 545.38457 
L 295.77841 525.029055 
L 298.7021 580.518331 
L 301.62579 583.31599 
L 304.549481 552.184246 
L 307.473171 528.78394 
L 310.396861 552.234233 
L 313.320551 518.037759 
L 316.244241 551.04502 
L 319.167931 521.597805 
L 322.091621 541.443452 
L 325.015311 506.24239 
L 327.939001 546.090989 
L 330.862691 582.224302 
L 333.786382 557.502279 
L 336.710072 519.567955 
L 339.633762 578.773637 
L 341.710043 596.44 
M 342.831967 596.44 
L 345.481142 526.857945 
L 348.404832 491.206376 
L 351.328522 477.381403 
L 354.252212 551.727758 
L 357.175902 539.46936 
L 360.099592 524.380807 
L 362.865023 596.44 
M 363.169321 596.44 
L 365.946973 518.005822 
L 368.870663 519.275593 
L 371.794353 538.031091 
L 374.779475 596.44 
M 382.234196 596.44 
L 383.489113 556.773332 
L 386.412803 535.803255 
L 389.336494 575.327381 
L 392.260184 551.952085 
L 395.183874 569.287468 
L 398.107564 516.956774 
L 401.031254 492.032812 
L 403.954944 495.271358 
L 406.878634 542.882561 
L 409.802324 501.551618 
L 412.726014 482.317349 
L 415.649704 567.545818 
L 418.573395 544.929516 
L 421.497085 588.215312 
L 421.827318 596.44 
M 432.938797 596.44 
L 433.191845 594.355652 
L 436.115535 524.325434 
L 439.039225 540.810351 
L 441.962915 593.215342 
L 444.886605 587.312026 
L 447.810296 506.294265 
L 450.733986 470.193204 
L 453.657676 539.104835 
L 456.581366 517.761767 
L 458.196358 596.44 
M 461.125311 596.44 
L 462.428746 545.150309 
L 465.352436 556.739926 
L 468.276126 539.93253 
L 471.199816 541.414139 
L 473.251427 596.44 
M 475.031539 596.44 
L 477.047197 544.518992 
L 479.970887 458.528695 
L 482.894577 578.192656 
L 485.818267 582.011694 
L 488.741957 583.682475 
L 491.665647 539.78446 
L 494.589337 541.683135 
L 496.315337 596.44 
M 498.628011 596.44 
L 500.436717 534.802899 
L 503.360408 464.031771 
L 506.284098 548.927511 
L 507.749917 596.44 
M 515.980941 596.44 
L 517.978858 531.542491 
L 520.902548 579.373333 
L 523.826238 593.268337 
L 526.749928 548.627243 
L 529.378597 596.44 
M 534.100804 596.44 
L 535.520999 548.052803 
L 538.444689 524.588518 
L 541.368379 594.383252 
L 541.780546 596.44 
M 544.837745 596.44 
L 547.215759 541.823404 
L 550.139449 578.96036 
L 553.063139 487.470486 
L 555.986829 563.392372 
L 558.910519 537.179575 
L 561.83421 537.937415 
L 564.7579 549.809774 
L 567.68159 513.115384 
L 570.60528 519.838595 
L 573.52897 513.949375 
L 576.45266 495.074911 
L 579.37635 531.768111 
L 582.30004 542.055041 
L 585.22373 536.37822 
L 588.147421 523.070844 
L 591.071111 519.17618 
L 593.994801 543.435838 
L 596.918491 478.000442 
L 599.842181 535.875803 
L 602.765871 523.13944 
L 605.689561 525.981243 
L 608.613251 517.228638 
L 611.413177 596.44 
M 614.678551 596.44 
L 617.384322 457.969122 
L 620.308012 493.035861 
L 625.417225 596.44 
M 628.529436 596.44 
L 629.079082 593.009625 
L 632.002772 571.153402 
L 634.926462 543.430626 
L 637.850152 576.509842 
L 640.773842 506.287339 
L 643.697532 449.137741 
L 646.621223 496.583804 
L 649.544913 515.922558 
L 652.468603 587.041246 
L 655.392293 546.334764 
L 658.315983 512.829353 
L 661.239673 575.046142 
L 664.163363 511.197575 
L 667.087053 568.729224 
L 670.010743 577.056193 
L 672.934433 560.590201 
L 675.858124 565.666487 
L 678.781814 530.928209 
L 681.705504 589.226757 
L 682.226558 596.44 
M 686.154446 596.44 
L 687.552884 565.944402 
L 688.408575 596.44 
M 700.342038 596.44 
L 702.171335 587.930821 
L 705.095025 589.29892 
L 708.018715 583.517054 
L 710.942405 585.377601 
L 713.866095 584.181953 
L 716.789785 585.381484 
L 719.713475 583.71637 
L 722.637165 581.425465 
L 725.560855 585.148203 
L 728.484545 585.666081 
L 728.484545 585.666081 
" style="fill:none;stroke:#4c72b0;stroke-linecap:round;stroke-width:1.5;"/>
   </g>
   <g id="line2d_2">
    <path clip-path="url(#pd0c49c47d6)" d="M 134.975455 553.211082 
L 137.899145 556.832378 
L 140.822835 557.606239 
L 143.746525 557.699041 
L 146.670215 559.389795 
L 149.593905 561.438814 
L 152.517595 560.253029 
L 155.441285 562.207078 
L 158.364975 562.392611 
L 161.288665 563.854772 
L 167.136046 565.554831 
L 170.059736 585.166078 
L 172.983426 591.320585 
L 173.813906 596.44 
M 185.023046 596.44 
L 187.601876 519.700354 
L 190.06585 596.44 
M 210.783099 596.44 
L 210.991397 590.020521 
L 213.915087 569.322938 
L 215.643247 596.44 
M 221.477649 596.44 
L 222.686158 591.460679 
L 225.609848 569.851065 
L 228.319588 596.44 
M 232.107137 596.44 
L 234.380918 516.459639 
L 237.304608 571.997293 
L 238.434155 596.44 
M 243.254984 596.44 
L 246.075678 504.550621 
L 248.999369 512.326027 
L 251.923059 574.463762 
L 254.846749 569.00553 
L 257.332229 596.44 
M 258.016191 596.44 
L 260.694129 543.732538 
L 262.110992 596.44 
M 265.608845 596.44 
L 266.541509 570.182359 
L 269.465199 552.643918 
L 272.388889 585.972085 
L 274.005535 596.44 
M 280.147986 596.44 
L 281.15996 592.584129 
L 284.08365 550.560374 
L 287.00734 564.257985 
L 288.70884 596.44 
M 291.63732 596.44 
L 292.85472 579.946969 
L 295.77841 542.574808 
L 298.436773 596.44 
M 302.51996 596.44 
L 304.549481 566.734039 
L 307.473171 546.121737 
L 310.396861 546.040758 
L 313.320551 536.769785 
L 316.244241 568.870193 
L 319.167931 554.000334 
L 322.091621 550.847909 
L 325.015311 501.740719 
L 327.939001 573.098041 
L 330.862691 580.627258 
L 333.786382 545.813039 
L 336.710072 554.362901 
L 339.633762 593.669381 
L 342.557452 593.525334 
L 345.481142 523.960279 
L 348.404832 496.59178 
L 351.328522 554.940069 
L 354.122194 596.44 
M 354.325014 596.44 
L 357.175902 520.806174 
L 360.099592 439.519208 
L 363.023283 438.581431 
L 365.946973 482.204224 
L 368.870663 469.128415 
L 371.794353 479.442559 
L 374.718043 530.927229 
L 377.641733 564.881223 
L 380.528912 596.44 
M 380.58069 596.44 
L 383.489113 520.413874 
L 389.336494 578.853462 
L 392.260184 556.234466 
L 395.183874 576.056118 
L 398.107564 520.13365 
L 401.031254 489.504323 
L 403.954944 528.366244 
L 406.878634 540.527853 
L 409.802324 539.828185 
L 412.726014 544.384249 
L 415.649704 587.831163 
L 418.573395 547.298706 
L 421.838789 596.44 
M 426.176775 596.44 
L 427.344465 572.283953 
L 430.268155 579.515667 
L 433.191845 562.36823 
L 436.115535 512.748025 
L 439.039225 576.187327 
L 440.615133 596.44 
M 442.938317 596.44 
L 444.886605 561.842762 
L 447.810296 487.378454 
L 450.733986 505.578016 
L 453.657676 543.774934 
L 456.581366 555.332789 
L 457.715408 596.44 
M 461.150302 596.44 
L 462.428746 546.031104 
L 465.352436 571.898999 
L 468.276126 529.087565 
L 471.199816 546.269387 
L 474.123506 591.965545 
L 477.047197 576.329835 
L 479.970887 463.670918 
L 482.894577 571.369578 
L 485.615652 596.44 
M 488.836218 596.44 
L 491.665647 558.713878 
L 494.589337 550.320691 
L 496.192044 596.44 
M 498.653473 596.44 
L 500.436717 537.002262 
L 503.360408 463.954605 
L 506.284098 553.955245 
L 507.842182 596.44 
M 516.49846 596.44 
L 517.978858 560.33964 
L 520.902548 588.79507 
L 523.826238 589.031569 
L 526.749928 560.871894 
L 528.860945 596.44 
M 533.868182 596.44 
L 535.520999 544.381101 
L 538.444689 522.895175 
L 541.368379 562.087761 
L 544.056177 596.44 
M 544.387694 596.44 
L 547.215759 507.276011 
L 550.139449 552.235492 
L 553.063139 496.418909 
L 555.986829 495.654983 
L 558.910519 460.205318 
L 561.83421 426.911745 
L 564.7579 500.974799 
L 567.68159 476.887241 
L 570.60528 575.314123 
L 573.52897 456.208407 
L 576.45266 457.137229 
L 579.37635 501.300602 
L 582.30004 462.181858 
L 585.22373 544.227434 
L 588.147421 514.61242 
L 591.071111 537.38816 
L 593.994801 567.569849 
L 596.918491 499.876569 
L 599.842181 586.161536 
L 602.765871 541.253406 
L 608.261971 596.44 
M 616.35125 596.44 
L 617.384322 562.112177 
L 620.308012 550.294911 
L 623.231702 580.14506 
L 623.878137 596.44 
M 634.224552 596.44 
L 634.926462 590.796865 
L 637.850152 590.259434 
L 640.773842 538.963411 
L 643.697532 450.667168 
L 646.621223 518.188382 
L 649.544913 548.539933 
L 652.468603 594.152314 
L 655.392293 575.446348 
L 658.315983 491.905415 
L 661.239673 578.502263 
L 664.163363 507.980122 
L 667.087053 579.731842 
L 670.010743 592.549919 
L 672.934433 562.999443 
L 675.858124 570.773485 
L 678.781814 557.073949 
L 681.610924 596.44 
M 686.209602 596.44 
L 687.552884 564.795452 
L 688.484982 596.44 
M 700.620694 596.44 
L 702.171335 578.222459 
L 705.095025 579.477608 
L 708.018715 578.188284 
L 710.942405 580.380475 
L 713.866095 578.268492 
L 716.789785 580.112879 
L 719.713475 579.316526 
L 722.637165 575.408674 
L 725.560855 579.675665 
L 728.484545 575.384433 
L 728.484545 575.384433 
" style="fill:none;stroke:#dd8452;stroke-dasharray:6,2.25;stroke-dashoffset:0;stroke-width:1.5;"/>
   </g>
   <g id="line2d_3">
    <path clip-path="url(#pd0c49c47d6)" d="M 134.975455 556.478032 
L 137.899145 559.746275 
L 140.822835 561.292563 
L 143.746525 559.491167 
L 146.670215 567.351644 
L 149.593905 568.846126 
L 152.517595 568.881036 
L 155.441285 590.978621 
L 158.364975 591.86064 
L 161.288665 581.151083 
L 164.212356 583.451362 
L 167.136046 577.076552 
L 170.059736 577.982532 
L 173.238433 596.44 
M 183.823273 596.44 
L 184.678186 557.294848 
L 187.601876 521.974853 
L 190.525567 529.633602 
L 193.449257 555.230822 
L 196.372947 589.256944 
L 197.176754 596.44 
M 203.747993 596.44 
L 208.067707 518.413688 
L 210.991397 559.021177 
L 213.915087 595.795006 
L 216.838777 582.44499 
L 219.762468 547.130592 
L 222.686158 549.872319 
L 225.609848 516.965519 
L 228.533538 567.773852 
L 230.822897 596.44 
M 231.670835 596.44 
L 234.380918 495.66824 
L 237.304608 582.829419 
L 237.945852 596.44 
M 243.481117 596.44 
L 246.075678 488.40459 
L 248.999369 523.825536 
L 251.923059 526.470333 
L 254.917991 596.44 
M 258.719647 596.44 
L 260.694129 531.894809 
L 262.578105 596.44 
M 264.876027 596.44 
L 266.541509 549.289098 
L 269.465199 568.286798 
L 272.388889 590.182513 
L 275.312579 586.733843 
L 278.23627 595.44902 
L 281.15996 561.191506 
L 284.08365 560.579112 
L 287.00734 404.408044 
L 289.93103 501.179011 
L 292.85472 510.29268 
L 295.77841 546.669452 
L 297.67309 596.44 
M 303.823245 596.44 
L 304.549481 580.195641 
L 307.473171 557.956808 
L 310.396861 595.298536 
L 313.320551 591.138479 
L 315.219822 596.44 
M 317.063241 596.44 
L 319.167931 589.091559 
L 322.091621 584.912578 
L 325.015311 522.142302 
L 327.939001 586.63457 
L 328.805246 596.44 
M 332.483783 596.44 
L 333.786382 577.726409 
L 336.710072 574.109135 
L 337.795685 596.44 
M 344.954573 596.44 
L 345.481142 580.690222 
L 348.404832 563.58826 
L 351.328522 568.81447 
L 354.252212 559.698143 
L 356.391259 596.44 
M 357.436025 596.44 
L 360.099592 458.433515 
L 363.023283 488.580154 
L 365.946973 507.423347 
L 368.870663 564.461394 
L 371.794353 457.742277 
L 374.718043 536.713153 
L 377.641733 579.103603 
L 380.565423 561.113186 
L 383.489113 498.569824 
L 386.412803 561.991392 
L 389.261795 596.44 
M 389.47155 596.44 
L 392.260184 577.790387 
L 395.183874 565.057731 
L 398.107564 564.230666 
L 401.031254 483.845867 
L 403.954944 541.960735 
L 406.878634 566.88085 
L 409.802324 550.668287 
L 412.726014 519.413309 
L 414.828224 596.44 
M 427.179948 596.44 
L 427.344465 592.720131 
L 430.268155 589.724766 
L 433.191845 497.790717 
L 436.115535 449.137566 
L 439.039225 582.74064 
L 441.962915 569.583223 
L 444.886605 577.243756 
L 447.810296 545.220794 
L 450.733986 496.663069 
L 453.657676 515.148942 
L 456.581366 581.431936 
L 456.919328 596.44 
M 461.898958 596.44 
L 462.428746 571.028244 
L 465.352436 583.430269 
L 468.276126 554.125107 
L 471.199816 517.350263 
L 474.123506 533.332833 
L 477.047197 569.086648 
L 479.970887 470.269076 
L 482.894577 541.39581 
L 488.14073 596.44 
M 489.029808 596.44 
L 491.665647 539.97475 
L 494.589337 527.757559 
L 497.513027 585.677694 
L 500.436717 501.501142 
L 503.360408 507.930451 
L 506.284098 498.287991 
L 508.672444 596.44 
M 510.702698 596.44 
L 512.131478 575.412627 
L 515.055168 497.36634 
L 517.978858 518.045594 
L 520.902548 519.904532 
L 523.826238 533.558699 
L 526.749928 591.27721 
L 529.673618 576.870205 
L 532.597309 566.800116 
L 535.520999 565.726897 
L 538.444689 552.609847 
L 541.368379 556.912307 
L 544.292069 587.386253 
L 547.215759 522.66931 
L 550.031959 596.44 
M 550.201878 596.44 
L 553.063139 467.389634 
L 555.986829 456.683714 
L 558.910519 525.644142 
L 561.83421 464.890913 
L 564.7579 480.501681 
L 567.68159 531.603286 
L 570.60528 546.17718 
L 573.52897 507.355416 
L 576.45266 531.773813 
L 579.37635 495.578656 
L 582.30004 507.814982 
L 585.22373 587.735073 
L 588.147421 537.210882 
L 591.071111 409.824125 
L 593.994801 408.460852 
L 596.918491 424.065989 
L 599.842181 493.460237 
L 602.765871 499.028936 
L 605.629411 596.44 
M 605.870157 596.44 
L 608.613251 565.360203 
L 610.89079 596.44 
M 615.101763 596.44 
L 617.384322 515.181928 
L 620.308012 526.539803 
L 623.231702 573.198468 
L 624.404213 596.44 
M 634.309377 596.44 
L 634.926462 586.215056 
L 637.850152 574.167062 
L 640.773842 536.241658 
L 643.697532 485.299107 
L 646.621223 522.104734 
L 649.544913 546.068252 
L 652.468603 533.39968 
L 654.829325 596.44 
M 655.830441 596.44 
L 658.315983 511.157943 
L 661.239673 480.73059 
L 664.163363 459.451396 
L 667.087053 512.328441 
L 670.010743 453.945171 
L 672.934433 511.242315 
L 675.104346 596.44 
M 677.449978 596.44 
L 678.781814 571.678555 
L 681.705504 538.444834 
L 684.629194 584.030245 
L 685.796429 596.44 
M 700.938383 596.44 
L 702.171335 582.512116 
L 705.095025 578.536124 
L 708.018715 576.174035 
L 710.942405 582.025791 
L 713.866095 577.381297 
L 716.789785 579.643098 
L 719.713475 577.552733 
L 722.637165 577.468257 
L 725.560855 579.749857 
L 728.484545 577.046994 
L 728.484545 577.046994 
" style="fill:none;stroke:#55a868;stroke-dasharray:1.5,1.5;stroke-dashoffset:0;stroke-width:1.5;"/>
   </g>
   <g id="line2d_4">
    <path clip-path="url(#pd0c49c47d6)" d="M 134.975455 553.11006 
L 137.899145 556.710403 
L 140.822835 557.557337 
L 143.746525 557.510394 
L 146.670215 559.367618 
L 149.593905 561.413838 
L 152.517595 560.328026 
L 155.441285 562.438015 
L 158.364975 562.801806 
L 161.288665 564.311749 
L 164.212356 565.136086 
L 167.136046 566.11423 
L 170.059736 585.840281 
L 172.983426 591.976808 
L 173.708015 596.44 
M 185.056147 596.44 
L 187.601876 520.226277 
L 190.036012 596.44 
M 210.6418 596.44 
L 210.991397 584.959312 
L 213.915087 577.228504 
L 215.589032 596.44 
M 221.784702 596.44 
L 222.686158 592.456173 
L 225.609848 569.306322 
L 228.21487 596.44 
M 232.162596 596.44 
L 234.380918 517.226679 
L 238.240712 596.44 
M 243.322739 596.44 
L 246.075678 505.191803 
L 248.999369 512.250261 
L 251.923059 574.842839 
L 254.846749 569.516657 
L 257.517852 596.44 
M 257.904987 596.44 
L 260.694129 543.663383 
L 262.103972 596.44 
M 265.523851 596.44 
L 266.541509 566.18307 
L 269.465199 552.71755 
L 272.388889 582.361318 
L 274.048208 596.44 
M 279.754314 596.44 
L 281.15996 590.218892 
L 284.08365 550.473763 
L 287.00734 573.69151 
L 288.366792 596.44 
M 291.519573 596.44 
L 292.85472 574.440045 
L 295.77841 542.483825 
L 298.423726 596.44 
M 302.634566 596.44 
L 304.549481 569.811852 
L 307.473171 546.427286 
L 310.396861 548.21574 
L 313.320551 535.981653 
L 316.244241 570.800245 
L 319.167931 556.704212 
L 322.091621 562.300264 
L 325.015311 498.285193 
L 327.939001 561.560509 
L 330.862691 592.7478 
L 333.786382 543.447837 
L 336.710072 560.850766 
L 338.70736 596.44 
M 343.022662 596.44 
L 345.481142 530.119123 
L 348.404832 473.076984 
L 351.328522 537.07586 
L 354.252212 521.534141 
L 357.175902 540.922112 
L 360.099592 459.633991 
L 363.023283 579.118225 
L 365.946973 492.673014 
L 368.870663 485.307153 
L 371.794353 501.139414 
L 374.718043 556.685148 
L 377.641733 573.901879 
L 379.636249 596.44 
M 380.904109 596.44 
L 383.489113 516.30132 
L 386.412803 552.058633 
L 389.336494 578.145608 
L 392.260184 554.761532 
L 395.183874 576.439183 
L 398.107564 522.117606 
L 401.031254 493.017672 
L 403.954944 521.366727 
L 409.802324 540.240283 
L 412.726014 541.054301 
L 415.649704 589.126015 
L 418.573395 546.868348 
L 421.607042 596.44 
M 426.476082 596.44 
L 427.344465 577.957416 
L 430.268155 578.502053 
L 433.191845 558.206319 
L 436.115535 511.518656 
L 439.039225 575.791914 
L 440.656496 596.44 
M 442.891133 596.44 
L 444.886605 560.58289 
L 447.810296 486.864669 
L 450.733986 499.496617 
L 453.657676 547.807314 
L 456.581366 553.842994 
L 457.738486 596.44 
M 461.11624 596.44 
L 462.428746 543.462948 
L 465.352436 574.194311 
L 468.276126 530.426142 
L 471.199816 553.996206 
L 473.871815 596.44 
M 474.741024 596.44 
L 477.047197 581.508997 
L 479.970887 461.877183 
L 482.894577 572.27213 
L 485.610895 596.44 
M 488.878773 596.44 
L 491.665647 560.67048 
L 494.589337 551.679696 
L 496.148271 596.44 
M 498.674691 596.44 
L 500.436717 537.003661 
L 503.360408 463.022985 
L 507.879434 596.44 
M 516.322858 596.44 
L 517.978858 547.805215 
L 520.902548 585.715403 
L 523.826238 594.808572 
L 526.749928 561.812084 
L 529.053292 596.44 
M 533.984736 596.44 
L 535.520999 550.12162 
L 538.444689 529.774851 
L 541.368379 565.183344 
L 543.549764 596.44 
M 544.601209 596.44 
L 547.215759 506.483227 
L 550.139449 556.797048 
L 553.063139 458.425679 
L 555.986829 514.290325 
L 558.910519 531.054976 
L 561.83421 501.831177 
L 564.7579 498.214323 
L 567.68159 439.949146 
L 570.60528 521.448336 
L 573.52897 501.380566 
L 576.45266 477.977356 
L 579.37635 501.387842 
L 582.30004 474.04953 
L 585.22373 582.344458 
L 588.147421 507.039232 
L 591.071111 525.130637 
L 593.994801 578.566521 
L 596.918491 516.705863 
L 599.842181 581.081228 
L 602.765871 563.610262 
L 605.689561 576.249801 
L 608.433491 596.44 
M 616.34826 596.44 
L 617.384322 558.752181 
L 620.308012 549.175868 
L 623.231702 583.153298 
L 623.806132 596.44 
M 634.481355 596.44 
L 634.926462 593.398462 
L 637.850152 590.717461 
L 640.773842 539.378028 
L 643.697532 449.28882 
L 646.621223 521.377816 
L 649.544913 548.508102 
L 652.468603 594.959231 
L 655.392293 575.577697 
L 658.315983 491.857702 
L 661.239673 579.21267 
L 664.163363 508.42804 
L 667.087053 578.658973 
L 670.010743 592.634745 
L 672.934433 562.773228 
L 675.858124 570.46832 
L 678.781814 557.964573 
L 681.725534 596.44 
M 686.215595 596.44 
L 687.552884 565.522125 
L 688.457473 596.44 
M 700.677897 596.44 
L 702.171335 578.044971 
L 705.095025 579.551136 
L 708.018715 578.869552 
L 710.942405 581.710726 
L 713.866095 579.844967 
L 716.789785 581.00728 
L 719.713475 580.20638 
L 722.637165 576.687855 
L 725.560855 580.942847 
L 728.484545 577.128182 
L 728.484545 577.128182 
" style="fill:none;stroke:#c44e52;stroke-dasharray:4.5,1.875,2.25,1.875;stroke-dashoffset:0;stroke-width:1.5;"/>
   </g>
   <g id="line2d_5">
    <path clip-path="url(#pd0c49c47d6)" d="M 134.975455 555.678076 
L 137.899145 559.33666 
L 140.822835 560.13945 
L 143.746525 560.540704 
L 146.670215 562.024727 
L 149.593905 564.636748 
L 152.517595 564.017219 
L 155.441285 565.827849 
L 158.364975 566.272164 
L 161.288665 568.520289 
L 164.212356 567.9866 
L 167.136046 568.279102 
L 170.059736 585.453333 
L 172.983426 591.524448 
L 173.913815 596.44 
M 185.229302 596.44 
L 187.601876 539.315554 
L 189.790613 596.44 
M 210.728962 596.44 
L 210.991397 587.798492 
L 213.915087 567.15831 
L 215.831579 596.44 
M 221.334313 596.44 
L 222.686158 591.012936 
L 225.609848 576.047687 
L 227.855923 596.44 
M 232.248483 596.44 
L 234.380918 521.019657 
L 237.304608 574.440045 
L 238.279429 596.44 
M 243.330167 596.44 
L 246.075678 501.293011 
L 248.999369 502.663419 
L 251.923059 581.525893 
L 254.846749 571.080434 
L 257.142218 596.44 
M 258.088616 596.44 
L 260.694129 539.606132 
L 262.179012 596.44 
M 265.482239 596.44 
L 266.541509 565.151792 
L 269.465199 551.387509 
L 272.388889 579.793617 
L 274.344699 596.44 
M 281.201083 596.44 
L 284.08365 557.601027 
L 287.00734 572.212139 
L 288.469702 596.44 
M 291.431938 596.44 
L 292.85472 573.489501 
L 295.77841 538.007515 
L 298.657064 596.44 
M 302.40727 596.44 
L 304.549481 566.874798 
L 307.473171 544.120361 
L 310.396861 561.638059 
L 313.320551 539.605782 
L 316.244241 567.981843 
L 319.167931 555.116753 
L 322.091621 565.104639 
L 325.015311 508.565581 
L 327.939001 545.935049 
L 330.862691 541.561824 
L 333.786382 564.941633 
L 336.710072 543.632601 
L 339.633762 590.099891 
L 341.790472 596.44 
M 342.702031 596.44 
L 345.481142 553.099916 
L 348.404832 489.838137 
L 351.328522 494.250259 
L 354.092841 596.44 
M 355.336197 596.44 
L 357.175902 586.441026 
L 360.099592 563.125056 
L 361.336545 596.44 
M 364.307254 596.44 
L 365.946973 538.424056 
L 368.870663 538.467396 
L 371.794353 516.899582 
L 375.32981 596.44 
M 382.564188 596.44 
L 383.489113 566.771467 
L 386.412803 545.720692 
L 389.336494 579.894044 
L 392.260184 570.28646 
L 395.183874 588.032193 
L 398.107564 506.152771 
L 401.031254 501.348419 
L 403.954944 529.51397 
L 406.878634 552.321228 
L 409.802324 557.65689 
L 412.726014 532.400933 
L 414.939981 596.44 
M 416.659097 596.44 
L 418.573395 557.507491 
L 420.805012 596.44 
M 427.035074 596.44 
L 427.344465 589.469867 
L 430.268155 582.450552 
L 433.191845 563.002556 
L 436.115535 513.857693 
L 439.039225 572.571628 
L 440.80437 596.44 
M 442.950432 596.44 
L 444.886605 565.724693 
L 447.810296 486.899579 
L 450.733986 493.931837 
L 453.657676 529.260646 
L 456.581366 542.486099 
L 458.294531 596.44 
M 460.561558 596.44 
L 462.428746 529.06245 
L 465.352436 564.409728 
L 468.276126 533.898528 
L 471.199816 559.314728 
L 473.517839 596.44 
M 474.745648 596.44 
L 477.047197 560.554696 
L 479.970887 461.594965 
L 482.894577 575.772465 
L 485.675037 596.44 
M 485.860215 596.44 
L 488.741957 523.301047 
L 491.665647 575.270608 
L 494.589337 488.779574 
L 497.513027 557.093048 
L 500.436717 536.97022 
L 503.360408 523.893362 
L 506.284098 580.43298 
L 509.207788 517.07749 
L 512.131478 546.222304 
L 515.055168 493.155422 
L 517.978858 502.665343 
L 520.902548 525.074669 
L 523.826238 522.505009 
L 526.749928 566.4804 
L 532.597309 482.850513 
L 535.520999 518.668586 
L 541.368379 448.681918 
L 544.292069 423.453595 
L 547.215759 456.131836 
L 550.139449 463.653428 
L 553.063139 416.593334 
L 555.986829 433.208935 
L 558.910519 427.600885 
L 561.83421 429.65627 
L 564.7579 448.241311 
L 567.68159 441.866675 
L 570.60528 493.527434 
L 573.52897 502.972782 
L 576.45266 492.708484 
L 579.37635 500.827218 
L 582.30004 456.777216 
L 585.22373 558.462407 
L 588.147421 495.769052 
L 591.071111 512.807421 
L 593.994801 558.360616 
L 596.918491 512.489419 
L 599.842181 561.498454 
L 602.765871 555.010169 
L 605.689561 572.232288 
L 608.613251 582.73165 
L 609.658531 596.44 
M 615.924639 596.44 
L 617.384322 543.09321 
L 620.308012 545.781977 
L 623.231702 574.71009 
L 624.213114 596.44 
M 633.762373 596.44 
L 634.926462 587.305974 
L 637.850152 582.415642 
L 640.773842 521.505178 
L 643.697532 441.190723 
L 646.621223 508.908454 
L 649.544913 536.013205 
L 652.468603 583.259987 
L 655.392293 561.919333 
L 658.315983 490.02409 
L 661.239673 564.692401 
L 664.163363 501.004776 
L 667.087053 570.193308 
L 670.010743 586.673747 
L 672.934433 562.620855 
L 675.858124 563.934351 
L 678.781814 540.851137 
L 681.705504 591.716243 
L 682.150784 596.44 
M 685.802415 596.44 
L 687.552884 557.21149 
L 688.781007 596.44 
M 700.23515 596.44 
L 702.171335 571.580297 
L 705.095025 575.938375 
L 708.018715 574.484295 
L 710.942405 576.668161 
L 713.866095 574.732792 
L 716.789785 575.845259 
L 719.713475 575.952612 
L 722.637165 570.842955 
L 725.560855 576.237488 
L 728.484545 572.162118 
L 728.484545 572.162118 
" style="fill:none;stroke:#8172b3;stroke-dasharray:7.5,1.5,1.5,1.5;stroke-dashoffset:0;stroke-width:1.5;"/>
   </g>
   <g id="line2d_6"/>
   <g id="line2d_7"/>
   <g id="line2d_8"/>
   <g id="line2d_9"/>
   <g id="line2d_10"/>
   <g id="patch_3">
    <path d="M 105.3 529.9416 
L 105.3 71.4528 
" style="fill:none;stroke:#262626;stroke-linecap:square;stroke-linejoin:miter;stroke-width:1.25;"/>
   </g>
   <g id="patch_4">
    <path d="M 758.16 529.9416 
L 758.16 71.4528 
" style="fill:none;stroke:#262626;stroke-linecap:square;stroke-linejoin:miter;stroke-width:1.25;"/>
   </g>
   <g id="patch_5">
    <path d="M 105.3 529.9416 
L 758.16 529.9416 
" style="fill:none;stroke:#262626;stroke-linecap:square;stroke-linejoin:miter;stroke-width:1.25;"/>
   </g>
   <g id="patch_6">
    <path d="M 105.3 71.4528 
L 758.16 71.4528 
" style="fill:none;stroke:#262626;stroke-linecap:square;stroke-linejoin:miter;stroke-width:1.25;"/>
   </g>
   <g id="text_16">
    <!-- Activations for &gt;$&lt; -->
    <g style="fill:#262626;" transform="translate(382.037813 65.4528)scale(0.12 -0.12)">
     <defs>
      <path d="M -9 0 
L 1750 4581 
L 2403 4581 
L 4278 0 
L 3588 0 
L 3053 1388 
L 1138 1388 
L 634 0 
L -9 0 
z
M 1313 1881 
L 2866 1881 
L 2388 3150 
Q 2169 3728 2063 4100 
Q 1975 3659 1816 3225 
L 1313 1881 
z
" id="ArialMT-41" transform="scale(0.015625)"/>
      <path d="M 2588 1216 
L 3141 1144 
Q 3050 572 2676 248 
Q 2303 -75 1759 -75 
Q 1078 -75 664 370 
Q 250 816 250 1647 
Q 250 2184 428 2587 
Q 606 2991 970 3192 
Q 1334 3394 1763 3394 
Q 2303 3394 2647 3120 
Q 2991 2847 3088 2344 
L 2541 2259 
Q 2463 2594 2264 2762 
Q 2066 2931 1784 2931 
Q 1359 2931 1093 2626 
Q 828 2322 828 1663 
Q 828 994 1084 691 
Q 1341 388 1753 388 
Q 2084 388 2306 591 
Q 2528 794 2588 1216 
z
" id="ArialMT-63" transform="scale(0.015625)"/>
      <path d="M 1650 503 
L 1731 6 
Q 1494 -44 1306 -44 
Q 1000 -44 831 53 
Q 663 150 594 308 
Q 525 466 525 972 
L 525 2881 
L 113 2881 
L 113 3319 
L 525 3319 
L 525 4141 
L 1084 4478 
L 1084 3319 
L 1650 3319 
L 1650 2881 
L 1084 2881 
L 1084 941 
Q 1084 700 1114 631 
Q 1144 563 1211 522 
Q 1278 481 1403 481 
Q 1497 481 1650 503 
z
" id="ArialMT-74" transform="scale(0.015625)"/>
      <path d="M 425 3934 
L 425 4581 
L 988 4581 
L 988 3934 
L 425 3934 
z
M 425 0 
L 425 3319 
L 988 3319 
L 988 0 
L 425 0 
z
" id="ArialMT-69" transform="scale(0.015625)"/>
      <path d="M 1344 0 
L 81 3319 
L 675 3319 
L 1388 1331 
Q 1503 1009 1600 663 
Q 1675 925 1809 1294 
L 2547 3319 
L 3125 3319 
L 1869 0 
L 1344 0 
z
" id="ArialMT-76" transform="scale(0.015625)"/>
      <path d="M 2588 409 
Q 2275 144 1986 34 
Q 1697 -75 1366 -75 
Q 819 -75 525 192 
Q 231 459 231 875 
Q 231 1119 342 1320 
Q 453 1522 633 1644 
Q 813 1766 1038 1828 
Q 1203 1872 1538 1913 
Q 2219 1994 2541 2106 
Q 2544 2222 2544 2253 
Q 2544 2597 2384 2738 
Q 2169 2928 1744 2928 
Q 1347 2928 1158 2789 
Q 969 2650 878 2297 
L 328 2372 
Q 403 2725 575 2942 
Q 747 3159 1072 3276 
Q 1397 3394 1825 3394 
Q 2250 3394 2515 3294 
Q 2781 3194 2906 3042 
Q 3031 2891 3081 2659 
Q 3109 2516 3109 2141 
L 3109 1391 
Q 3109 606 3145 398 
Q 3181 191 3288 0 
L 2700 0 
Q 2613 175 2588 409 
z
M 2541 1666 
Q 2234 1541 1622 1453 
Q 1275 1403 1131 1340 
Q 988 1278 909 1158 
Q 831 1038 831 891 
Q 831 666 1001 516 
Q 1172 366 1500 366 
Q 1825 366 2078 508 
Q 2331 650 2450 897 
Q 2541 1088 2541 1459 
L 2541 1666 
z
" id="ArialMT-61" transform="scale(0.015625)"/>
      <path d="M 213 1659 
Q 213 2581 725 3025 
Q 1153 3394 1769 3394 
Q 2453 3394 2887 2945 
Q 3322 2497 3322 1706 
Q 3322 1066 3130 698 
Q 2938 331 2570 128 
Q 2203 -75 1769 -75 
Q 1072 -75 642 372 
Q 213 819 213 1659 
z
M 791 1659 
Q 791 1022 1069 705 
Q 1347 388 1769 388 
Q 2188 388 2466 706 
Q 2744 1025 2744 1678 
Q 2744 2294 2464 2611 
Q 2184 2928 1769 2928 
Q 1347 2928 1069 2612 
Q 791 2297 791 1659 
z
" id="ArialMT-6f" transform="scale(0.015625)"/>
      <path d="M 422 0 
L 422 3319 
L 928 3319 
L 928 2847 
Q 1294 3394 1984 3394 
Q 2284 3394 2536 3286 
Q 2788 3178 2913 3003 
Q 3038 2828 3088 2588 
Q 3119 2431 3119 2041 
L 3119 0 
L 2556 0 
L 2556 2019 
Q 2556 2363 2490 2533 
Q 2425 2703 2258 2804 
Q 2091 2906 1866 2906 
Q 1506 2906 1245 2678 
Q 984 2450 984 1813 
L 984 0 
L 422 0 
z
" id="ArialMT-6e" transform="scale(0.015625)"/>
      <path d="M 197 991 
L 753 1078 
Q 800 744 1014 566 
Q 1228 388 1613 388 
Q 2000 388 2187 545 
Q 2375 703 2375 916 
Q 2375 1106 2209 1216 
Q 2094 1291 1634 1406 
Q 1016 1563 777 1677 
Q 538 1791 414 1992 
Q 291 2194 291 2438 
Q 291 2659 392 2848 
Q 494 3038 669 3163 
Q 800 3259 1026 3326 
Q 1253 3394 1513 3394 
Q 1903 3394 2198 3281 
Q 2494 3169 2634 2976 
Q 2775 2784 2828 2463 
L 2278 2388 
Q 2241 2644 2061 2787 
Q 1881 2931 1553 2931 
Q 1166 2931 1000 2803 
Q 834 2675 834 2503 
Q 834 2394 903 2306 
Q 972 2216 1119 2156 
Q 1203 2125 1616 2013 
Q 2213 1853 2448 1751 
Q 2684 1650 2818 1456 
Q 2953 1263 2953 975 
Q 2953 694 2789 445 
Q 2625 197 2315 61 
Q 2006 -75 1616 -75 
Q 969 -75 630 194 
Q 291 463 197 991 
z
" id="ArialMT-73" transform="scale(0.015625)"/>
      <path id="ArialMT-20" transform="scale(0.015625)"/>
      <path d="M 556 0 
L 556 2881 
L 59 2881 
L 59 3319 
L 556 3319 
L 556 3672 
Q 556 4006 616 4169 
Q 697 4388 901 4523 
Q 1106 4659 1475 4659 
Q 1713 4659 2000 4603 
L 1916 4113 
Q 1741 4144 1584 4144 
Q 1328 4144 1222 4034 
Q 1116 3925 1116 3625 
L 1116 3319 
L 1763 3319 
L 1763 2881 
L 1116 2881 
L 1116 0 
L 556 0 
z
" id="ArialMT-66" transform="scale(0.015625)"/>
      <path d="M 416 0 
L 416 3319 
L 922 3319 
L 922 2816 
Q 1116 3169 1280 3281 
Q 1444 3394 1641 3394 
Q 1925 3394 2219 3213 
L 2025 2691 
Q 1819 2813 1613 2813 
Q 1428 2813 1281 2702 
Q 1134 2591 1072 2394 
Q 978 2094 978 1738 
L 978 0 
L 416 0 
z
" id="ArialMT-72" transform="scale(0.015625)"/>
      <path d="M 3384 2003 
L 350 706 
L 350 1266 
L 2753 2263 
L 350 3250 
L 350 3809 
L 3384 2528 
L 3384 2003 
z
" id="ArialMT-3e" transform="scale(0.015625)"/>
      <path d="M 1594 -659 
L 1594 -97 
Q 1172 -44 908 92 
Q 644 228 451 531 
Q 259 834 228 1272 
L 794 1378 
Q 859 925 1025 713 
Q 1263 413 1594 378 
L 1594 2169 
Q 1247 2234 884 2438 
Q 616 2588 470 2853 
Q 325 3119 325 3456 
Q 325 4056 750 4428 
Q 1034 4678 1594 4734 
L 1594 5003 
L 1925 5003 
L 1925 4734 
Q 2416 4688 2703 4447 
Q 3072 4141 3147 3606 
L 2566 3519 
Q 2516 3850 2358 4026 
Q 2200 4203 1925 4259 
L 1925 2638 
Q 2350 2531 2488 2472 
Q 2750 2356 2915 2190 
Q 3081 2025 3170 1797 
Q 3259 1569 3259 1303 
Q 3259 719 2887 328 
Q 2516 -63 1925 -91 
L 1925 -659 
L 1594 -659 
z
M 1594 4266 
Q 1266 4216 1077 4003 
Q 888 3791 888 3500 
Q 888 3213 1048 3019 
Q 1209 2825 1594 2709 
L 1594 4266 
z
M 1925 378 
Q 2253 419 2467 662 
Q 2681 906 2681 1266 
Q 2681 1572 2529 1758 
Q 2378 1944 1925 2091 
L 1925 378 
z
" id="ArialMT-24" transform="scale(0.015625)"/>
      <path d="M 350 2003 
L 350 2528 
L 3384 3809 
L 3384 3250 
L 978 2263 
L 3384 1266 
L 3384 706 
L 350 2003 
z
" id="ArialMT-3c" transform="scale(0.015625)"/>
     </defs>
     <use xlink:href="#ArialMT-41"/>
     <use x="66.699219" xlink:href="#ArialMT-63"/>
     <use x="116.699219" xlink:href="#ArialMT-74"/>
     <use x="144.482422" xlink:href="#ArialMT-69"/>
     <use x="166.699219" xlink:href="#ArialMT-76"/>
     <use x="216.699219" xlink:href="#ArialMT-61"/>
     <use x="272.314453" xlink:href="#ArialMT-74"/>
     <use x="300.097656" xlink:href="#ArialMT-69"/>
     <use x="322.314453" xlink:href="#ArialMT-6f"/>
     <use x="377.929688" xlink:href="#ArialMT-6e"/>
     <use x="433.544922" xlink:href="#ArialMT-73"/>
     <use x="483.544922" xlink:href="#ArialMT-20"/>
     <use x="511.328125" xlink:href="#ArialMT-66"/>
     <use x="539.111328" xlink:href="#ArialMT-6f"/>
     <use x="594.726562" xlink:href="#ArialMT-72"/>
     <use x="628.027344" xlink:href="#ArialMT-20"/>
     <use x="655.810547" xlink:href="#ArialMT-3e"/>
     <use x="714.208984" xlink:href="#ArialMT-24"/>
     <use x="769.824219" xlink:href="#ArialMT-3c"/>
    </g>
   </g>
   <g id="legend_1">
    <g id="patch_7">
     <path d="M 640.044062 158.514363 
L 750.46 158.514363 
Q 752.66 158.514363 752.66 156.314363 
L 752.66 79.1528 
Q 752.66 76.9528 750.46 76.9528 
L 640.044062 76.9528 
Q 637.844062 76.9528 637.844062 79.1528 
L 637.844062 156.314363 
Q 637.844062 158.514363 640.044062 158.514363 
z
" style="fill:#ffffff;opacity:0.8;stroke:#cccccc;stroke-linejoin:miter;"/>
    </g>
    <g id="line2d_11">
     <path d="M 642.244062 85.376394 
L 664.244062 85.376394 
" style="fill:none;stroke:#4c72b0;stroke-linecap:round;stroke-width:1.5;"/>
    </g>
    <g id="line2d_12"/>
    <g id="text_17">
     <!-- regular -->
     <g style="fill:#262626;" transform="translate(673.044062 89.226394)scale(0.11 -0.11)">
      <defs>
       <path d="M 2694 1069 
L 3275 997 
Q 3138 488 2766 206 
Q 2394 -75 1816 -75 
Q 1088 -75 661 373 
Q 234 822 234 1631 
Q 234 2469 665 2931 
Q 1097 3394 1784 3394 
Q 2450 3394 2872 2941 
Q 3294 2488 3294 1666 
Q 3294 1616 3291 1516 
L 816 1516 
Q 847 969 1125 678 
Q 1403 388 1819 388 
Q 2128 388 2347 550 
Q 2566 713 2694 1069 
z
M 847 1978 
L 2700 1978 
Q 2663 2397 2488 2606 
Q 2219 2931 1791 2931 
Q 1403 2931 1139 2672 
Q 875 2413 847 1978 
z
" id="ArialMT-65" transform="scale(0.015625)"/>
       <path d="M 319 -275 
L 866 -356 
Q 900 -609 1056 -725 
Q 1266 -881 1628 -881 
Q 2019 -881 2231 -725 
Q 2444 -569 2519 -288 
Q 2563 -116 2559 434 
Q 2191 0 1641 0 
Q 956 0 581 494 
Q 206 988 206 1678 
Q 206 2153 378 2554 
Q 550 2956 876 3175 
Q 1203 3394 1644 3394 
Q 2231 3394 2613 2919 
L 2613 3319 
L 3131 3319 
L 3131 450 
Q 3131 -325 2973 -648 
Q 2816 -972 2473 -1159 
Q 2131 -1347 1631 -1347 
Q 1038 -1347 672 -1080 
Q 306 -813 319 -275 
z
M 784 1719 
Q 784 1066 1043 766 
Q 1303 466 1694 466 
Q 2081 466 2343 764 
Q 2606 1063 2606 1700 
Q 2606 2309 2336 2618 
Q 2066 2928 1684 2928 
Q 1309 2928 1046 2623 
Q 784 2319 784 1719 
z
" id="ArialMT-67" transform="scale(0.015625)"/>
       <path d="M 2597 0 
L 2597 488 
Q 2209 -75 1544 -75 
Q 1250 -75 995 37 
Q 741 150 617 320 
Q 494 491 444 738 
Q 409 903 409 1263 
L 409 3319 
L 972 3319 
L 972 1478 
Q 972 1038 1006 884 
Q 1059 663 1231 536 
Q 1403 409 1656 409 
Q 1909 409 2131 539 
Q 2353 669 2445 892 
Q 2538 1116 2538 1541 
L 2538 3319 
L 3100 3319 
L 3100 0 
L 2597 0 
z
" id="ArialMT-75" transform="scale(0.015625)"/>
       <path d="M 409 0 
L 409 4581 
L 972 4581 
L 972 0 
L 409 0 
z
" id="ArialMT-6c" transform="scale(0.015625)"/>
      </defs>
      <use xlink:href="#ArialMT-72"/>
      <use x="33.300781" xlink:href="#ArialMT-65"/>
      <use x="88.916016" xlink:href="#ArialMT-67"/>
      <use x="144.53125" xlink:href="#ArialMT-75"/>
      <use x="200.146484" xlink:href="#ArialMT-6c"/>
      <use x="222.363281" xlink:href="#ArialMT-61"/>
      <use x="277.978516" xlink:href="#ArialMT-72"/>
     </g>
    </g>
    <g id="line2d_13">
     <path d="M 642.244062 101.0978 
L 664.244062 101.0978 
" style="fill:none;stroke:#dd8452;stroke-dasharray:6,2.25;stroke-dashoffset:0;stroke-width:1.5;"/>
    </g>
    <g id="line2d_14"/>
    <g id="text_18">
     <!-- splitted_3s -->
     <g style="fill:#262626;" transform="translate(673.044062 104.9478)scale(0.11 -0.11)">
      <defs>
       <path d="M 422 -1272 
L 422 3319 
L 934 3319 
L 934 2888 
Q 1116 3141 1344 3267 
Q 1572 3394 1897 3394 
Q 2322 3394 2647 3175 
Q 2972 2956 3137 2557 
Q 3303 2159 3303 1684 
Q 3303 1175 3120 767 
Q 2938 359 2589 142 
Q 2241 -75 1856 -75 
Q 1575 -75 1351 44 
Q 1128 163 984 344 
L 984 -1272 
L 422 -1272 
z
M 931 1641 
Q 931 1000 1190 694 
Q 1450 388 1819 388 
Q 2194 388 2461 705 
Q 2728 1022 2728 1688 
Q 2728 2322 2467 2637 
Q 2206 2953 1844 2953 
Q 1484 2953 1207 2617 
Q 931 2281 931 1641 
z
" id="ArialMT-70" transform="scale(0.015625)"/>
       <path d="M 2575 0 
L 2575 419 
Q 2259 -75 1647 -75 
Q 1250 -75 917 144 
Q 584 363 401 755 
Q 219 1147 219 1656 
Q 219 2153 384 2558 
Q 550 2963 881 3178 
Q 1213 3394 1622 3394 
Q 1922 3394 2156 3267 
Q 2391 3141 2538 2938 
L 2538 4581 
L 3097 4581 
L 3097 0 
L 2575 0 
z
M 797 1656 
Q 797 1019 1065 703 
Q 1334 388 1700 388 
Q 2069 388 2326 689 
Q 2584 991 2584 1609 
Q 2584 2291 2321 2609 
Q 2059 2928 1675 2928 
Q 1300 2928 1048 2622 
Q 797 2316 797 1656 
z
" id="ArialMT-64" transform="scale(0.015625)"/>
       <path d="M -97 -1272 
L -97 -866 
L 3631 -866 
L 3631 -1272 
L -97 -1272 
z
" id="ArialMT-5f" transform="scale(0.015625)"/>
       <path d="M 269 1209 
L 831 1284 
Q 928 806 1161 595 
Q 1394 384 1728 384 
Q 2125 384 2398 659 
Q 2672 934 2672 1341 
Q 2672 1728 2419 1979 
Q 2166 2231 1775 2231 
Q 1616 2231 1378 2169 
L 1441 2663 
Q 1497 2656 1531 2656 
Q 1891 2656 2178 2843 
Q 2466 3031 2466 3422 
Q 2466 3731 2256 3934 
Q 2047 4138 1716 4138 
Q 1388 4138 1169 3931 
Q 950 3725 888 3313 
L 325 3413 
Q 428 3978 793 4289 
Q 1159 4600 1703 4600 
Q 2078 4600 2393 4439 
Q 2709 4278 2876 4000 
Q 3044 3722 3044 3409 
Q 3044 3113 2884 2869 
Q 2725 2625 2413 2481 
Q 2819 2388 3044 2092 
Q 3269 1797 3269 1353 
Q 3269 753 2831 336 
Q 2394 -81 1725 -81 
Q 1122 -81 723 278 
Q 325 638 269 1209 
z
" id="ArialMT-33" transform="scale(0.015625)"/>
      </defs>
      <use xlink:href="#ArialMT-73"/>
      <use x="50" xlink:href="#ArialMT-70"/>
      <use x="105.615234" xlink:href="#ArialMT-6c"/>
      <use x="127.832031" xlink:href="#ArialMT-69"/>
      <use x="150.048828" xlink:href="#ArialMT-74"/>
      <use x="177.832031" xlink:href="#ArialMT-74"/>
      <use x="205.615234" xlink:href="#ArialMT-65"/>
      <use x="261.230469" xlink:href="#ArialMT-64"/>
      <use x="316.845703" xlink:href="#ArialMT-5f"/>
      <use x="372.460938" xlink:href="#ArialMT-33"/>
      <use x="428.076172" xlink:href="#ArialMT-73"/>
     </g>
    </g>
    <g id="line2d_15">
     <path d="M 642.244062 116.6903 
L 664.244062 116.6903 
" style="fill:none;stroke:#55a868;stroke-dasharray:1.5,1.5;stroke-dashoffset:0;stroke-width:1.5;"/>
    </g>
    <g id="line2d_16"/>
    <g id="text_19">
     <!-- splitted_1s -->
     <g style="fill:#262626;" transform="translate(673.044062 120.5403)scale(0.11 -0.11)">
      <use xlink:href="#ArialMT-73"/>
      <use x="50" xlink:href="#ArialMT-70"/>
      <use x="105.615234" xlink:href="#ArialMT-6c"/>
      <use x="127.832031" xlink:href="#ArialMT-69"/>
      <use x="150.048828" xlink:href="#ArialMT-74"/>
      <use x="177.832031" xlink:href="#ArialMT-74"/>
      <use x="205.615234" xlink:href="#ArialMT-65"/>
      <use x="261.230469" xlink:href="#ArialMT-64"/>
      <use x="316.845703" xlink:href="#ArialMT-5f"/>
      <use x="372.460938" xlink:href="#ArialMT-31"/>
      <use x="428.076172" xlink:href="#ArialMT-73"/>
     </g>
    </g>
    <g id="line2d_17">
     <path d="M 642.244062 132.384206 
L 664.244062 132.384206 
" style="fill:none;stroke:#c44e52;stroke-dasharray:4.5,1.875,2.25,1.875;stroke-dashoffset:0;stroke-width:1.5;"/>
    </g>
    <g id="line2d_18"/>
    <g id="text_20">
     <!-- overlap_1f_3s -->
     <g style="fill:#262626;" transform="translate(673.044062 136.234206)scale(0.11 -0.11)">
      <use xlink:href="#ArialMT-6f"/>
      <use x="55.615234" xlink:href="#ArialMT-76"/>
      <use x="105.615234" xlink:href="#ArialMT-65"/>
      <use x="161.230469" xlink:href="#ArialMT-72"/>
      <use x="194.53125" xlink:href="#ArialMT-6c"/>
      <use x="216.748047" xlink:href="#ArialMT-61"/>
      <use x="272.363281" xlink:href="#ArialMT-70"/>
      <use x="327.978516" xlink:href="#ArialMT-5f"/>
      <use x="383.59375" xlink:href="#ArialMT-31"/>
      <use x="439.208984" xlink:href="#ArialMT-66"/>
      <use x="466.992188" xlink:href="#ArialMT-5f"/>
      <use x="522.607422" xlink:href="#ArialMT-33"/>
      <use x="578.222656" xlink:href="#ArialMT-73"/>
     </g>
    </g>
    <g id="line2d_19">
     <path d="M 642.244062 148.078113 
L 664.244062 148.078113 
" style="fill:none;stroke:#8172b3;stroke-dasharray:7.5,1.5,1.5,1.5;stroke-dashoffset:0;stroke-width:1.5;"/>
    </g>
    <g id="line2d_20"/>
    <g id="text_21">
     <!-- overlap_10f_3s -->
     <g style="fill:#262626;" transform="translate(673.044062 151.928112)scale(0.11 -0.11)">
      <use xlink:href="#ArialMT-6f"/>
      <use x="55.615234" xlink:href="#ArialMT-76"/>
      <use x="105.615234" xlink:href="#ArialMT-65"/>
      <use x="161.230469" xlink:href="#ArialMT-72"/>
      <use x="194.53125" xlink:href="#ArialMT-6c"/>
      <use x="216.748047" xlink:href="#ArialMT-61"/>
      <use x="272.363281" xlink:href="#ArialMT-70"/>
      <use x="327.978516" xlink:href="#ArialMT-5f"/>
      <use x="383.59375" xlink:href="#ArialMT-31"/>
      <use x="439.208984" xlink:href="#ArialMT-30"/>
      <use x="494.824219" xlink:href="#ArialMT-66"/>
      <use x="522.607422" xlink:href="#ArialMT-5f"/>
      <use x="578.222656" xlink:href="#ArialMT-33"/>
      <use x="633.837891" xlink:href="#ArialMT-73"/>
     </g>
    </g>
   </g>
  </g>
 </g>
 <defs>
  <clipPath id="pd0c49c47d6">
   <rect height="458.4888" width="652.86" x="105.3" y="71.4528"/>
  </clipPath>
 </defs>
</svg>
