<?xml version="1.0" encoding="utf-8" standalone="no"?>
<!DOCTYPE svg PUBLIC "-//W3C//DTD SVG 1.1//EN"
  "http://www.w3.org/Graphics/SVG/1.1/DTD/svg11.dtd">
<svg height="595.44pt" version="1.1" viewBox="0 0 842.4 595.44" width="842.4pt" xmlns="http://www.w3.org/2000/svg" xmlns:xlink="http://www.w3.org/1999/xlink">
 <metadata>
  <rdf:RDF xmlns:cc="http://creativecommons.org/ns#" xmlns:dc="http://purl.org/dc/elements/1.1/" xmlns:rdf="http://www.w3.org/1999/02/22-rdf-syntax-ns#">
   <cc:Work>
    <dc:type rdf:resource="http://purl.org/dc/dcmitype/StillImage"/>
    <dc:date>2021-06-04T22:03:14.309591</dc:date>
    <dc:format>image/svg+xml</dc:format>
    <dc:creator>
     <cc:Agent>
      <dc:title>Matplotlib v3.4.1, https://matplotlib.org/</dc:title>
     </cc:Agent>
    </dc:creator>
   </cc:Work>
  </rdf:RDF>
 </metadata>
 <defs>
  <style type="text/css">*{stroke-linecap:butt;stroke-linejoin:round;}</style>
 </defs>
 <g id="figure_1">
  <g id="patch_1">
   <path d="M 0 595.44 
L 842.4 595.44 
L 842.4 0 
L 0 0 
z
" style="fill:#ffffff;"/>
  </g>
  <g id="axes_1">
   <g id="patch_2">
    <path d="M 105.3 529.9416 
L 758.16 529.9416 
L 758.16 71.4528 
L 105.3 71.4528 
z
" style="fill:#ffffff;"/>
   </g>
   <g id="matplotlib.axis_1">
    <g id="xtick_1">
     <g id="text_1">
      <!-- 0 -->
      <g style="fill:#262626;" transform="translate(131.916939 547.315194)scale(0.11 -0.11)">
       <defs>
        <path d="M 266 2259 
Q 266 3072 433 3567 
Q 600 4063 929 4331 
Q 1259 4600 1759 4600 
Q 2128 4600 2406 4451 
Q 2684 4303 2865 4023 
Q 3047 3744 3150 3342 
Q 3253 2941 3253 2259 
Q 3253 1453 3087 958 
Q 2922 463 2592 192 
Q 2263 -78 1759 -78 
Q 1097 -78 719 397 
Q 266 969 266 2259 
z
M 844 2259 
Q 844 1131 1108 757 
Q 1372 384 1759 384 
Q 2147 384 2411 759 
Q 2675 1134 2675 2259 
Q 2675 3391 2411 3762 
Q 2147 4134 1753 4134 
Q 1366 4134 1134 3806 
Q 844 3388 844 2259 
z
" id="ArialMT-30" transform="scale(0.015625)"/>
       </defs>
       <use xlink:href="#ArialMT-30"/>
      </g>
     </g>
    </g>
    <g id="xtick_2">
     <g id="text_2">
      <!-- 25 -->
      <g style="fill:#262626;" transform="translate(201.950676 547.315194)scale(0.11 -0.11)">
       <defs>
        <path d="M 3222 541 
L 3222 0 
L 194 0 
Q 188 203 259 391 
Q 375 700 629 1000 
Q 884 1300 1366 1694 
Q 2113 2306 2375 2664 
Q 2638 3022 2638 3341 
Q 2638 3675 2398 3904 
Q 2159 4134 1775 4134 
Q 1369 4134 1125 3890 
Q 881 3647 878 3216 
L 300 3275 
Q 359 3922 746 4261 
Q 1134 4600 1788 4600 
Q 2447 4600 2831 4234 
Q 3216 3869 3216 3328 
Q 3216 3053 3103 2787 
Q 2991 2522 2730 2228 
Q 2469 1934 1863 1422 
Q 1356 997 1212 845 
Q 1069 694 975 541 
L 3222 541 
z
" id="ArialMT-32" transform="scale(0.015625)"/>
        <path d="M 266 1200 
L 856 1250 
Q 922 819 1161 601 
Q 1400 384 1738 384 
Q 2144 384 2425 690 
Q 2706 997 2706 1503 
Q 2706 1984 2436 2262 
Q 2166 2541 1728 2541 
Q 1456 2541 1237 2417 
Q 1019 2294 894 2097 
L 366 2166 
L 809 4519 
L 3088 4519 
L 3088 3981 
L 1259 3981 
L 1013 2750 
Q 1425 3038 1878 3038 
Q 2478 3038 2890 2622 
Q 3303 2206 3303 1553 
Q 3303 931 2941 478 
Q 2500 -78 1738 -78 
Q 1113 -78 717 272 
Q 322 622 266 1200 
z
" id="ArialMT-35" transform="scale(0.015625)"/>
       </defs>
       <use xlink:href="#ArialMT-32"/>
       <use x="55.615234" xlink:href="#ArialMT-35"/>
      </g>
     </g>
    </g>
    <g id="xtick_3">
     <g id="text_3">
      <!-- 50 -->
      <g style="fill:#262626;" transform="translate(275.042928 547.315194)scale(0.11 -0.11)">
       <use xlink:href="#ArialMT-35"/>
       <use x="55.615234" xlink:href="#ArialMT-30"/>
      </g>
     </g>
    </g>
    <g id="xtick_4">
     <g id="text_4">
      <!-- 75 -->
      <g style="fill:#262626;" transform="translate(348.135181 547.315194)scale(0.11 -0.11)">
       <defs>
        <path d="M 303 3981 
L 303 4522 
L 3269 4522 
L 3269 4084 
Q 2831 3619 2401 2847 
Q 1972 2075 1738 1259 
Q 1569 684 1522 0 
L 944 0 
Q 953 541 1156 1306 
Q 1359 2072 1739 2783 
Q 2119 3494 2547 3981 
L 303 3981 
z
" id="ArialMT-37" transform="scale(0.015625)"/>
       </defs>
       <use xlink:href="#ArialMT-37"/>
       <use x="55.615234" xlink:href="#ArialMT-35"/>
      </g>
     </g>
    </g>
    <g id="xtick_5">
     <g id="text_5">
      <!-- 100 -->
      <g style="fill:#262626;" transform="translate(418.168918 547.315194)scale(0.11 -0.11)">
       <defs>
        <path d="M 2384 0 
L 1822 0 
L 1822 3584 
Q 1619 3391 1289 3197 
Q 959 3003 697 2906 
L 697 3450 
Q 1169 3672 1522 3987 
Q 1875 4303 2022 4600 
L 2384 4600 
L 2384 0 
z
" id="ArialMT-31" transform="scale(0.015625)"/>
       </defs>
       <use xlink:href="#ArialMT-31"/>
       <use x="55.615234" xlink:href="#ArialMT-30"/>
       <use x="111.230469" xlink:href="#ArialMT-30"/>
      </g>
     </g>
    </g>
    <g id="xtick_6">
     <g id="text_6">
      <!-- 125 -->
      <g style="fill:#262626;" transform="translate(491.261171 547.315194)scale(0.11 -0.11)">
       <use xlink:href="#ArialMT-31"/>
       <use x="55.615234" xlink:href="#ArialMT-32"/>
       <use x="111.230469" xlink:href="#ArialMT-35"/>
      </g>
     </g>
    </g>
    <g id="xtick_7">
     <g id="text_7">
      <!-- 150 -->
      <g style="fill:#262626;" transform="translate(564.353423 547.315194)scale(0.11 -0.11)">
       <use xlink:href="#ArialMT-31"/>
       <use x="55.615234" xlink:href="#ArialMT-35"/>
       <use x="111.230469" xlink:href="#ArialMT-30"/>
      </g>
     </g>
    </g>
    <g id="xtick_8">
     <g id="text_8">
      <!-- 175 -->
      <g style="fill:#262626;" transform="translate(637.445676 547.315194)scale(0.11 -0.11)">
       <use xlink:href="#ArialMT-31"/>
       <use x="55.615234" xlink:href="#ArialMT-37"/>
       <use x="111.230469" xlink:href="#ArialMT-35"/>
      </g>
     </g>
    </g>
    <g id="xtick_9">
     <g id="text_9">
      <!-- 200 -->
      <g style="fill:#262626;" transform="translate(710.537928 547.315194)scale(0.11 -0.11)">
       <use xlink:href="#ArialMT-32"/>
       <use x="55.615234" xlink:href="#ArialMT-30"/>
       <use x="111.230469" xlink:href="#ArialMT-30"/>
      </g>
     </g>
    </g>
   </g>
   <g id="matplotlib.axis_2">
    <g id="ytick_1">
     <g id="text_10">
      <!-- −25 -->
      <g style="fill:#262626;" transform="translate(77.14125 533.878397)scale(0.11 -0.11)">
       <defs>
        <path d="M 3381 1997 
L 356 1997 
L 356 2522 
L 3381 2522 
L 3381 1997 
z
" id="ArialMT-2212" transform="scale(0.015625)"/>
       </defs>
       <use xlink:href="#ArialMT-2212"/>
       <use x="58.398438" xlink:href="#ArialMT-32"/>
       <use x="114.013672" xlink:href="#ArialMT-35"/>
      </g>
     </g>
    </g>
    <g id="ytick_2">
     <g id="text_11">
      <!-- −20 -->
      <g style="fill:#262626;" transform="translate(77.14125 442.180637)scale(0.11 -0.11)">
       <use xlink:href="#ArialMT-2212"/>
       <use x="58.398438" xlink:href="#ArialMT-32"/>
       <use x="114.013672" xlink:href="#ArialMT-30"/>
      </g>
     </g>
    </g>
    <g id="ytick_3">
     <g id="text_12">
      <!-- −15 -->
      <g style="fill:#262626;" transform="translate(77.14125 350.482877)scale(0.11 -0.11)">
       <use xlink:href="#ArialMT-2212"/>
       <use x="58.398438" xlink:href="#ArialMT-31"/>
       <use x="114.013672" xlink:href="#ArialMT-35"/>
      </g>
     </g>
    </g>
    <g id="ytick_4">
     <g id="text_13">
      <!-- −10 -->
      <g style="fill:#262626;" transform="translate(77.14125 258.785117)scale(0.11 -0.11)">
       <use xlink:href="#ArialMT-2212"/>
       <use x="58.398438" xlink:href="#ArialMT-31"/>
       <use x="114.013672" xlink:href="#ArialMT-30"/>
      </g>
     </g>
    </g>
    <g id="ytick_5">
     <g id="text_14">
      <!-- −5 -->
      <g style="fill:#262626;" transform="translate(83.258281 167.087357)scale(0.11 -0.11)">
       <use xlink:href="#ArialMT-2212"/>
       <use x="58.398438" xlink:href="#ArialMT-35"/>
      </g>
     </g>
    </g>
    <g id="ytick_6">
     <g id="text_15">
      <!-- 0 -->
      <g style="fill:#262626;" transform="translate(89.682969 75.389597)scale(0.11 -0.11)">
       <use xlink:href="#ArialMT-30"/>
      </g>
     </g>
    </g>
   </g>
   <g id="line2d_1">
    <path clip-path="url(#pbe3142745b)" d="M 134.975455 410.296109 
L 137.899145 410.768862 
L 140.822835 418.265934 
L 143.746525 417.28807 
L 146.670215 411.794019 
L 149.593905 425.278533 
L 152.517595 422.063843 
L 155.441285 430.543465 
L 158.364975 434.105261 
L 161.288665 440.732871 
L 164.212356 451.118549 
L 167.136046 453.958394 
L 170.059736 484.142986 
L 172.983426 500.242354 
L 175.907116 513.850592 
L 178.830806 544.419859 
L 181.754496 568.644992 
L 184.678186 482.35929 
L 187.601876 423.072559 
L 190.525567 515.724816 
L 193.449257 498.337068 
L 196.372947 486.840742 
L 199.296637 527.422591 
L 202.220327 413.659078 
L 205.144017 433.050616 
L 208.067707 587.883948 
L 210.991397 457.294429 
L 213.915087 484.834049 
L 216.838777 498.529772 
L 219.762468 496.00786 
L 222.686158 521.694105 
L 225.609848 500.523383 
L 228.533538 527.399015 
L 231.457228 563.305902 
L 234.380918 414.965718 
L 237.304608 424.361115 
L 240.228298 447.59775 
L 243.151988 410.021551 
L 246.075678 313.782611 
L 248.999369 376.589633 
L 251.923059 545.262525 
L 254.846749 520.148412 
L 257.770439 512.680269 
L 260.694129 464.212373 
L 263.431312 596.44 
M 263.887309 596.44 
L 266.541509 507.703081 
L 269.465199 497.82003 
L 272.388889 494.054581 
L 275.312579 512.27709 
L 278.23627 517.188901 
L 281.15996 499.055695 
L 284.08365 468.44991 
L 287.00734 464.320006 
L 289.93103 509.177415 
L 292.85472 451.303243 
L 295.77841 429.451602 
L 298.7021 453.211992 
L 301.62579 427.706069 
L 304.549481 459.419669 
L 307.473171 464.224336 
L 310.396861 482.143114 
L 313.320551 423.081024 
L 316.244241 412.637595 
L 319.167931 315.345146 
L 322.091621 501.540774 
L 325.015311 470.424282 
L 327.939001 471.615278 
L 330.862691 453.72973 
L 333.786382 444.285712 
L 336.710072 429.998968 
L 339.633762 499.040409 
L 345.481142 434.51589 
L 348.404832 374.519032 
L 351.328522 427.566954 
L 354.252212 449.184824 
L 357.175902 430.939893 
L 360.099592 445.643387 
L 363.023283 529.086761 
L 365.946973 422.514175 
L 368.870663 393.364463 
L 371.794353 465.867832 
L 374.718043 520.169225 
L 377.641733 503.912272 
L 380.565423 508.556451 
L 383.489113 470.073223 
L 386.412803 383.129094 
L 389.336494 403.66563 
L 392.260184 407.972707 
L 395.183874 497.954353 
L 398.107564 469.322764 
L 401.031254 399.438482 
L 403.954944 351.805521 
L 406.878634 366.173768 
L 409.802324 339.468873 
L 412.726014 367.313973 
L 415.649704 440.947473 
L 418.573395 422.56549 
L 421.497085 504.270362 
L 424.420775 550.537497 
L 427.344465 407.28014 
L 430.268155 453.654943 
L 433.191845 488.718779 
L 436.115535 426.422306 
L 439.039225 487.342984 
L 441.962915 555.72222 
L 444.886605 546.529568 
L 447.810296 449.406597 
L 450.733986 439.109173 
L 453.657676 515.494334 
L 456.581366 405.484761 
L 459.505056 474.446028 
L 462.428746 470.542059 
L 465.352436 499.107081 
L 468.276126 465.173131 
L 471.199816 392.374077 
L 474.123506 406.955107 
L 477.047197 408.933396 
L 479.970887 389.803263 
L 482.894577 484.085374 
L 485.818267 498.87261 
L 488.741957 523.665643 
L 491.665647 445.36806 
L 494.589337 371.169879 
L 497.513027 382.242493 
L 500.436717 363.034425 
L 503.360408 381.53443 
L 506.284098 488.016767 
L 509.207788 525.442588 
L 512.131478 541.799058 
L 515.055168 540.377929 
L 517.978858 442.682442 
L 520.902548 492.099344 
L 523.826238 500.164489 
L 526.749928 470.183934 
L 529.673618 491.509302 
L 532.597309 501.917088 
L 535.520999 438.925039 
L 538.444689 344.519571 
L 541.368379 418.731621 
L 544.292069 558.171409 
L 547.215759 496.476136 
L 550.139449 517.328855 
L 553.063139 352.170396 
L 555.986829 466.480331 
L 558.910519 514.068727 
L 561.83421 509.935745 
L 564.7579 453.113069 
L 567.68159 392.051982 
L 570.60528 395.571906 
L 576.45266 482.276807 
L 579.37635 490.580725 
L 582.30004 441.122897 
L 585.22373 436.428347 
L 588.147421 447.038456 
L 591.071111 444.186683 
L 593.994801 514.647015 
L 596.918491 435.720074 
L 599.842181 470.62664 
L 602.765871 513.419675 
L 605.689561 388.130698 
L 608.613251 420.5369 
L 611.536941 594.846141 
L 614.460631 563.730243 
L 617.384322 349.792234 
L 620.308012 373.643729 
L 623.231702 496.706339 
L 626.155392 542.305532 
L 629.079082 483.689087 
L 632.002772 430.226547 
L 634.926462 406.163406 
L 637.850152 468.582029 
L 640.773842 395.613602 
L 643.697532 396.779938 
L 646.621223 436.160681 
L 649.544913 460.397008 
L 652.468603 557.948727 
L 655.392293 467.397084 
L 658.315983 416.905564 
L 661.239673 501.746456 
L 664.163363 426.373999 
L 667.087053 475.892308 
L 670.010743 511.567733 
L 672.934433 507.120491 
L 675.858124 519.496526 
L 678.781814 473.226278 
L 681.705504 500.361741 
L 684.629194 504.558561 
L 687.552884 452.143531 
L 690.476574 522.145346 
L 693.400264 449.690494 
L 696.323954 449.337651 
L 699.247644 426.66853 
L 702.171335 414.255626 
L 705.095025 420.828842 
L 708.018715 411.326792 
L 710.942405 409.337344 
L 713.866095 407.125914 
L 716.789785 407.675518 
L 719.713475 409.012031 
L 722.637165 404.036032 
L 725.560855 410.952927 
L 728.484545 409.604276 
L 728.484545 409.604276 
" style="fill:none;stroke:#4c72b0;stroke-linecap:round;stroke-width:1.5;"/>
   </g>
   <g id="line2d_2">
    <path clip-path="url(#pbe3142745b)" d="M 134.975455 400.525553 
L 137.899145 401.152498 
L 140.822835 407.681185 
L 143.746525 407.509119 
L 146.670215 404.047856 
L 149.593905 413.038324 
L 152.517595 410.889333 
L 155.441285 418.125699 
L 158.364975 419.852098 
L 164.212356 431.4421 
L 167.136046 431.438951 
L 170.059736 459.090088 
L 172.983426 468.217573 
L 175.907116 486.117812 
L 178.830806 522.701141 
L 181.754496 538.662689 
L 184.678186 470.776879 
L 187.601876 397.370679 
L 190.525567 507.620773 
L 193.449257 482.078052 
L 196.372947 479.221172 
L 199.296637 504.302124 
L 202.220327 415.619633 
L 205.144017 445.78712 
L 208.067707 589.419391 
L 210.991397 481.334868 
L 213.915087 473.003176 
L 216.838777 495.81638 
L 219.762468 487.490215 
L 222.686158 518.736308 
L 225.609848 488.485253 
L 228.533538 509.403385 
L 231.457228 553.4664 
L 234.380918 409.095038 
L 237.304608 389.8168 
L 240.228298 429.621815 
L 243.151988 407.415897 
L 246.075678 312.81755 
L 248.999369 395.843945 
L 251.923059 533.691482 
L 254.846749 511.682712 
L 257.770439 516.854983 
L 260.694129 475.784779 
L 263.277855 596.44 
M 264.147212 596.44 
L 266.541509 524.638714 
L 269.465199 509.68277 
L 272.388889 512.950279 
L 275.312579 523.725598 
L 278.23627 531.960221 
L 281.15996 532.139213 
L 284.08365 492.404299 
L 287.00734 482.450133 
L 289.93103 530.493233 
L 292.85472 464.709087 
L 295.77841 417.121321 
L 298.7021 448.520835 
L 301.62579 419.871302 
L 304.549481 463.26774 
L 307.473171 478.660513 
L 310.396861 480.080034 
L 313.320551 429.403085 
L 316.244241 433.776764 
L 319.167931 349.651475 
L 322.091621 499.713843 
L 325.015311 477.451747 
L 327.939001 490.153341 
L 330.862691 448.981346 
L 333.786382 433.815592 
L 336.710072 472.898446 
L 339.633762 516.995007 
L 345.481142 442.105098 
L 348.404832 407.781997 
L 351.328522 494.47406 
L 354.252212 395.06893 
L 357.175902 353.190288 
L 360.099592 296.003594 
L 363.023283 298.700039 
L 365.946973 335.172552 
L 368.870663 330.16194 
L 371.794353 359.004983 
L 374.718043 398.279177 
L 377.641733 397.517314 
L 380.565423 468.678958 
L 383.489113 450.535224 
L 386.412803 419.837197 
L 389.336494 405.508582 
L 392.260184 380.588887 
L 395.183874 478.787735 
L 398.107564 430.293954 
L 401.031254 376.508865 
L 403.954944 342.746719 
L 406.878634 331.422809 
L 409.802324 326.576814 
L 412.726014 377.132487 
L 415.649704 448.378747 
L 418.573395 422.335392 
L 421.497085 496.944762 
L 424.420775 517.755366 
L 427.344465 360.318689 
L 430.268155 418.731201 
L 433.191845 454.383715 
L 436.115535 411.830398 
L 439.039225 491.236809 
L 441.962915 554.980296 
L 444.886605 486.643281 
L 447.810296 410.980001 
L 450.733986 446.359111 
L 453.657676 501.719066 
L 456.581366 412.143888 
L 459.505056 475.642061 
L 462.428746 476.803884 
L 465.352436 507.341319 
L 468.276126 435.717066 
L 471.199816 374.398316 
L 474.123506 371.349921 
L 477.047197 425.514332 
L 479.970887 373.410763 
L 482.894577 483.610417 
L 485.818267 516.621841 
L 488.741957 545.431513 
L 491.665647 485.390685 
L 494.589337 378.13753 
L 497.513027 385.580382 
L 500.436717 370.990083 
L 503.360408 395.093696 
L 506.284098 489.968787 
L 509.207788 513.585339 
L 512.131478 526.336325 
L 515.055168 545.754587 
L 517.978858 469.641011 
L 520.902548 494.122932 
L 523.826238 490.181814 
L 526.749928 477.904318 
L 529.673618 491.132184 
L 532.597309 497.727508 
L 535.520999 427.122394 
L 538.444689 314.914613 
L 541.368379 373.44172 
L 544.292069 548.63221 
L 547.215759 452.335536 
L 550.139449 476.959055 
L 553.063139 359.164176 
L 555.986829 345.380741 
L 558.910519 348.114335 
L 561.83421 330.915355 
L 564.7579 367.500136 
L 567.68159 322.495496 
L 570.60528 436.037307 
L 573.52897 314.839494 
L 576.45266 384.713125 
L 579.37635 382.393991 
L 582.30004 300.246571 
L 585.22373 401.126717 
L 588.147421 384.543227 
L 591.071111 423.182116 
L 593.994801 492.947887 
L 596.918491 441.873881 
L 599.842181 499.498681 
L 602.765871 496.09552 
L 605.689561 400.844045 
L 608.613251 423.828475 
L 611.536941 571.756666 
L 614.460631 558.809373 
L 617.384322 380.36659 
L 620.308012 377.213745 
L 623.231702 514.08097 
L 626.155392 551.681865 
L 629.079082 454.965466 
L 632.002772 443.159008 
L 634.926462 428.491963 
L 637.850152 452.133876 
L 640.773842 404.879433 
L 643.697532 390.761188 
L 649.544913 455.879596 
L 652.468603 545.260286 
L 655.392293 462.238071 
L 658.315983 373.301836 
L 661.239673 479.588356 
L 664.163363 397.639989 
L 667.087053 478.294414 
L 670.010743 533.299008 
L 672.934433 511.391679 
L 675.858124 512.500437 
L 678.781814 474.602528 
L 681.705504 489.714343 
L 684.629194 499.324516 
L 687.552884 444.768225 
L 690.476574 511.89448 
L 693.400264 475.55643 
L 696.323954 460.055569 
L 699.247644 431.230401 
L 702.171335 408.080236 
L 705.095025 420.390229 
L 708.018715 414.750277 
L 710.942405 415.634639 
L 713.866095 409.447776 
L 716.789785 412.214757 
L 719.713475 413.442937 
L 722.637165 405.51271 
L 725.560855 415.361586 
L 728.484545 409.399748 
L 728.484545 409.399748 
" style="fill:none;stroke:#dd8452;stroke-dasharray:6,2.25;stroke-dashoffset:0;stroke-width:1.5;"/>
   </g>
   <g id="line2d_3">
    <path clip-path="url(#pbe3142745b)" d="M 134.975455 405.056606 
L 137.899145 405.984519 
L 140.822835 414.825623 
L 143.746525 410.546985 
L 146.670215 412.342014 
L 149.593905 423.827286 
L 152.517595 421.260669 
L 155.441285 441.233993 
L 161.288665 443.142743 
L 164.212356 449.712216 
L 167.136046 443.630153 
L 170.059736 453.557314 
L 172.983426 468.925917 
L 175.907116 483.46637 
L 178.830806 504.732621 
L 181.754496 511.1627 
L 184.678186 397.163667 
L 187.601876 372.123082 
L 190.525567 392.584831 
L 193.449257 403.488072 
L 196.372947 390.671709 
L 199.296637 418.395884 
L 202.220327 436.404491 
L 205.144017 396.90646 
L 208.067707 361.18682 
L 210.991397 522.662489 
L 213.915087 532.427903 
L 216.838777 474.712085 
L 219.762468 455.105211 
L 222.686158 487.204534 
L 225.609848 452.127895 
L 228.533538 475.855439 
L 231.457228 537.226203 
L 234.380918 405.807975 
L 237.304608 397.802751 
L 240.228298 441.967662 
L 243.151988 434.216147 
L 246.075678 281.720646 
L 248.999369 406.513345 
L 251.923059 483.295912 
L 254.846749 529.74991 
L 257.770439 527.621557 
L 260.694129 480.789356 
L 263.567662 596.44 
M 263.684775 596.44 
L 266.541509 510.311849 
L 269.465199 521.435918 
L 272.388889 501.956195 
L 275.312579 469.097528 
L 278.23627 492.366765 
L 281.15996 443.782316 
L 284.08365 434.155947 
L 287.00734 300.358419 
L 289.93103 418.914846 
L 292.85472 406.083407 
L 295.77841 448.39169 
L 298.7021 493.936769 
L 301.62579 485.557679 
L 304.549481 486.409335 
L 307.473171 511.309056 
L 310.396861 532.936336 
L 313.320551 471.831139 
L 316.244241 470.030827 
L 319.167931 361.922675 
L 322.091621 553.71063 
L 325.015311 510.121523 
L 327.939001 499.097636 
L 330.862691 471.20122 
L 333.786382 464.848412 
L 336.710072 488.588899 
L 339.633762 559.402912 
L 342.557452 532.082966 
L 345.481142 476.946078 
L 348.404832 441.842504 
L 351.328522 532.31922 
L 354.252212 454.227285 
L 357.175902 356.972317 
L 360.099592 371.613145 
L 363.023283 336.94362 
L 365.946973 307.070594 
L 368.870663 376.623949 
L 371.794353 301.904812 
L 374.718043 391.87278 
L 377.641733 397.602386 
L 380.565423 405.753791 
L 383.489113 400.189396 
L 386.412803 417.618805 
L 389.336494 416.784324 
L 392.260184 377.246346 
L 395.183874 448.822922 
L 398.107564 512.293461 
L 401.031254 404.400558 
L 403.954944 401.033286 
L 406.878634 367.556874 
L 409.802324 423.284782 
L 412.726014 392.846866 
L 415.649704 500.619927 
L 418.573395 470.145596 
L 421.497085 513.188422 
L 424.420775 516.16175 
L 427.344465 366.633369 
L 430.268155 370.738402 
L 433.191845 304.440611 
L 436.115535 281.19189 
L 439.039225 438.578878 
L 441.962915 458.475176 
L 444.886605 454.850067 
L 447.810296 442.715603 
L 450.733986 386.671965 
L 453.657676 414.48296 
L 456.581366 389.82481 
L 459.505056 492.785755 
L 462.428746 491.216031 
L 465.352436 517.492282 
L 468.276126 438.309742 
L 471.199816 363.971834 
L 474.123506 355.002895 
L 477.047197 409.419302 
L 479.970887 380.252346 
L 482.894577 455.180382 
L 485.818267 483.115801 
L 488.741957 533.287569 
L 491.665647 439.19246 
L 494.589337 323.267626 
L 497.513027 338.729082 
L 500.436717 315.422452 
L 503.360408 401.738936 
L 506.284098 408.561804 
L 509.207788 449.116264 
L 512.131478 409.681057 
L 515.055168 383.613566 
L 517.978858 391.357071 
L 520.902548 380.521971 
L 523.826238 404.335146 
L 526.749928 463.49315 
L 529.673618 411.236264 
L 532.597309 411.621953 
L 535.520999 422.21821 
L 538.444689 345.62261 
L 541.368379 392.793241 
L 544.292069 482.723431 
L 547.215759 346.273971 
L 550.139449 365.379863 
L 553.063139 329.071984 
L 555.986829 361.131972 
L 558.910519 455.737752 
L 561.83421 396.27077 
L 564.7579 445.018786 
L 567.68159 458.641401 
L 570.60528 422.612608 
L 573.52897 422.287295 
L 576.45266 505.734831 
L 579.37635 418.36804 
L 582.30004 361.510542 
L 585.22373 458.52051 
L 588.147421 407.703957 
L 591.071111 276.247023 
L 593.994801 304.166264 
L 596.918491 306.179096 
L 599.842181 377.015654 
L 602.765871 398.333431 
L 605.689561 428.786949 
L 608.613251 449.687626 
L 611.536941 578.289236 
L 614.460631 548.368847 
L 617.384322 351.757703 
L 620.308012 346.498962 
L 623.231702 510.302334 
L 626.155392 531.417193 
L 629.079082 463.89388 
L 632.002772 470.345682 
L 634.926462 430.995091 
L 637.850152 442.236728 
L 640.773842 407.158095 
L 643.697532 416.405666 
L 646.621223 441.768172 
L 649.544913 470.074727 
L 652.468603 463.363025 
L 655.392293 466.965117 
L 658.315983 358.089611 
L 661.239673 332.44877 
L 664.163363 283.560607 
L 667.087053 350.768279 
L 670.010743 315.23482 
L 672.934433 358.223654 
L 675.858124 505.520684 
L 678.781814 446.175292 
L 681.705504 440.839105 
L 684.629194 443.285811 
L 687.552884 485.881593 
L 690.476574 459.446254 
L 693.400264 436.326521 
L 696.323954 468.680742 
L 699.247644 435.436317 
L 702.171335 419.537733 
L 705.095025 425.218088 
L 708.018715 420.509616 
L 710.942405 418.553538 
L 713.866095 414.353744 
L 716.789785 415.826854 
L 719.713475 415.590459 
L 722.637165 412.633712 
L 725.560855 421.593188 
L 728.484545 418.746698 
L 728.484545 418.746698 
" style="fill:none;stroke:#55a868;stroke-dasharray:1.5,1.5;stroke-dashoffset:0;stroke-width:1.5;"/>
   </g>
   <g id="line2d_4">
    <path clip-path="url(#pbe3142745b)" d="M 134.975455 400.549059 
L 137.899145 401.186498 
L 140.822835 407.790462 
L 143.746525 407.500024 
L 146.670215 404.185571 
L 149.593905 413.260692 
L 152.517595 411.172286 
L 155.441285 418.503307 
L 158.364975 420.407334 
L 161.288665 426.476315 
L 164.212356 432.086919 
L 167.136046 432.24307 
L 170.059736 459.916279 
L 172.983426 469.108547 
L 175.907116 486.998082 
L 178.830806 523.745502 
L 181.754496 540.191206 
L 184.678186 471.70773 
L 187.601876 397.842908 
L 190.525567 508.93385 
L 193.449257 484.289132 
L 196.372947 480.537921 
L 199.296637 506.044019 
L 202.220327 418.539162 
L 205.144017 446.871007 
L 208.067707 592.937462 
L 210.991397 480.877925 
L 213.915087 487.405318 
L 216.838777 490.182234 
L 219.762468 489.809138 
L 222.686158 520.558446 
L 225.609848 488.365237 
L 228.533538 511.130274 
L 231.457228 555.676537 
L 234.380918 410.035543 
L 237.304608 394.748689 
L 240.228298 433.750949 
L 243.151988 408.354828 
L 246.075678 314.32013 
L 248.999369 393.65784 
L 251.923059 531.653342 
L 254.846749 511.911585 
L 257.770439 514.615428 
L 260.694129 477.213569 
L 263.240902 596.44 
M 264.164556 596.44 
L 266.541509 519.726764 
L 269.465199 511.766419 
L 272.388889 514.442767 
L 275.312579 534.893148 
L 278.23627 540.21027 
L 281.15996 533.026619 
L 284.08365 490.561871 
L 287.00734 490.558128 
L 289.93103 534.869711 
L 292.85472 459.675232 
L 295.77841 419.484074 
L 298.7021 448.907433 
L 301.62579 422.478215 
L 304.549481 470.169733 
L 307.473171 480.169512 
L 310.396861 483.390498 
L 313.320551 427.858827 
L 316.244241 432.358119 
L 319.167931 352.898556 
L 322.091621 526.974848 
L 325.015311 474.884851 
L 327.939001 482.936424 
L 330.862691 460.634067 
L 333.786382 433.842841 
L 336.710072 477.435622 
L 339.633762 541.414664 
L 342.557452 497.304531 
L 345.481142 436.905683 
L 348.404832 363.077415 
L 351.328522 436.346599 
L 354.252212 383.138119 
L 357.175902 427.92312 
L 360.099592 367.384737 
L 363.023283 486.166435 
L 365.946973 355.671362 
L 368.870663 324.089182 
L 371.794353 376.843587 
L 374.718043 433.323495 
L 377.641733 411.151228 
L 380.565423 479.021156 
L 383.489113 450.397683 
L 386.412803 424.440449 
L 389.336494 406.490503 
L 392.260184 378.004011 
L 395.183874 478.001737 
L 398.107564 435.069272 
L 401.031254 379.928152 
L 403.954944 335.512871 
L 406.878634 322.574988 
L 409.802324 325.516939 
L 412.726014 374.874218 
L 415.649704 448.906314 
L 418.573395 417.656653 
L 421.497085 496.394633 
L 424.420775 519.167855 
L 427.344465 361.343355 
L 430.268155 415.925322 
L 433.191845 449.500903 
L 436.115535 410.465097 
L 439.039225 491.839898 
L 441.962915 557.714956 
L 444.886605 487.286736 
L 447.810296 413.899635 
L 450.733986 447.60772 
L 453.657676 515.938369 
L 456.581366 418.205838 
L 459.505056 477.259043 
L 462.428746 475.440017 
L 465.352436 517.838513 
L 468.276126 438.817406 
L 471.199816 383.700596 
L 474.123506 380.592176 
L 477.047197 432.424371 
L 479.970887 375.162452 
L 482.894577 482.834422 
L 485.818267 516.075035 
L 488.741957 544.63509 
L 491.665647 485.431856 
L 494.589337 378.671428 
L 497.513027 386.658148 
L 500.436717 370.860307 
L 503.360408 394.50334 
L 506.284098 486.108158 
L 509.207788 514.526089 
L 512.131478 525.336354 
L 515.055168 558.986756 
L 517.978858 458.96528 
L 520.902548 488.197369 
L 523.826238 493.887972 
L 526.749928 475.841797 
L 529.673618 482.396404 
L 532.597309 491.785259 
L 535.520999 430.482565 
L 538.444689 324.024224 
L 541.368379 369.76631 
L 544.292069 545.094516 
L 547.215759 440.016832 
L 550.139449 476.642137 
L 553.063139 307.504537 
L 555.986829 359.502817 
L 558.910519 390.605212 
L 561.83421 319.191136 
L 564.7579 295.370615 
L 567.68159 306.365119 
L 570.60528 358.535395 
L 573.52897 397.554673 
L 576.45266 434.255884 
L 579.37635 394.370871 
L 582.30004 336.897324 
L 585.22373 466.135394 
L 588.147421 391.161848 
L 591.071111 416.881323 
L 593.994801 521.918116 
L 596.918491 457.74588 
L 599.842181 493.21996 
L 602.765871 513.377629 
L 605.689561 390.923879 
L 608.613251 429.077947 
L 611.536941 579.024898 
L 614.460631 568.749512 
L 617.384322 381.781423 
L 620.308012 379.40041 
L 623.231702 515.585561 
L 626.155392 549.918492 
L 629.079082 457.018122 
L 632.002772 444.91647 
L 634.926462 430.828517 
L 637.850152 451.997804 
L 640.773842 402.093667 
L 643.697532 387.568676 
L 646.621223 425.706232 
L 649.544913 455.42804 
L 652.468603 547.005854 
L 655.392293 463.495914 
L 658.315983 374.673118 
L 661.239673 482.539891 
L 664.163363 400.290627 
L 667.087053 479.743562 
L 670.010743 533.849557 
L 672.934433 512.159243 
L 675.858124 513.510622 
L 678.781814 475.619639 
L 681.705504 487.330461 
L 684.629194 498.366766 
L 687.552884 445.449074 
L 690.476574 513.183525 
L 693.400264 475.420323 
L 696.323954 460.144663 
L 699.247644 432.836574 
L 702.171335 409.990559 
L 705.095025 423.328332 
L 708.018715 419.018981 
L 710.942405 421.131069 
L 713.866095 415.356094 
L 716.789785 417.945203 
L 719.713475 418.553923 
L 722.637165 411.848832 
L 725.560855 421.573845 
L 728.484545 416.82539 
L 728.484545 416.82539 
" style="fill:none;stroke:#c44e52;stroke-dasharray:4.5,1.875,2.25,1.875;stroke-dashoffset:0;stroke-width:1.5;"/>
   </g>
   <g id="line2d_5">
    <path clip-path="url(#pbe3142745b)" d="M 134.975455 399.742877 
L 137.899145 400.429078 
L 140.822835 406.792975 
L 143.746525 406.900503 
L 146.670215 402.886627 
L 149.593905 412.947307 
L 152.517595 410.808949 
L 155.441285 417.300313 
L 158.364975 418.843697 
L 161.288665 426.184233 
L 164.212356 431.469139 
L 167.136046 430.842369 
L 170.059736 458.56385 
L 172.983426 467.615149 
L 175.907116 484.507547 
L 178.830806 522.500357 
L 181.754496 549.052319 
L 184.678186 474.569192 
L 187.601876 413.40397 
L 190.525567 514.226137 
L 193.449257 495.551652 
L 196.372947 491.131939 
L 199.296637 516.966533 
L 202.220327 422.366804 
L 205.144017 449.327158 
L 207.950818 596.44 
M 208.219571 596.44 
L 210.991397 484.618643 
L 213.915087 479.321564 
L 216.838777 491.53015 
L 219.762468 483.599958 
L 222.686158 518.10569 
L 225.609848 498.057928 
L 228.533538 516.261548 
L 231.457228 559.201218 
L 234.380918 412.055704 
L 237.304608 398.486993 
L 240.228298 437.090167 
L 243.151988 411.092042 
L 246.075678 317.118401 
L 248.999369 392.301424 
L 251.923059 544.585978 
L 254.846749 514.720228 
L 257.770439 519.036365 
L 260.694129 476.526074 
L 263.205924 596.44 
M 264.226088 596.44 
L 266.541509 521.587451 
L 269.465199 512.043704 
L 272.388889 515.11711 
L 275.312579 533.923854 
L 278.23627 541.979554 
L 281.15996 540.575461 
L 284.08365 500.972805 
L 287.00734 493.950131 
L 289.93103 536.284614 
L 292.85472 462.008113 
L 295.77841 416.198865 
L 298.7021 442.305498 
L 301.62579 419.560575 
L 304.549481 463.085285 
L 307.473171 471.908899 
L 310.396861 490.032205 
L 313.320551 435.536359 
L 316.244241 436.052978 
L 319.167931 351.541405 
L 322.091621 532.236458 
L 325.015311 483.487148 
L 327.939001 425.463297 
L 330.862691 381.387899 
L 333.786382 414.121163 
L 336.710072 397.501084 
L 339.633762 486.61019 
L 342.557452 442.660335 
L 345.481142 429.679601 
L 348.404832 353.231809 
L 351.328522 424.218711 
L 354.252212 491.209874 
L 357.175902 437.167263 
L 360.099592 453.157599 
L 363.023283 541.398503 
L 365.946973 407.726274 
L 368.870663 397.356442 
L 371.794353 432.821498 
L 374.718043 474.073632 
L 377.641733 495.969802 
L 380.565423 522.472758 
L 383.489113 478.197554 
L 386.412803 396.677482 
L 389.336494 403.19557 
L 392.260184 406.103066 
L 395.183874 513.063369 
L 398.107564 440.991862 
L 401.031254 402.551555 
L 403.954944 357.809212 
L 406.878634 334.346221 
L 409.802324 361.414819 
L 412.726014 382.007568 
L 415.649704 465.033771 
L 418.573395 423.835716 
L 421.497085 511.683061 
L 424.420775 526.130433 
L 427.344465 368.702431 
L 433.191845 453.416835 
L 436.115535 410.948974 
L 439.039225 486.442251 
L 441.962915 558.627827 
L 444.886605 497.618301 
L 447.810296 419.823869 
L 450.733986 449.930141 
L 453.657676 515.436022 
L 456.581366 422.888285 
L 459.505056 463.320629 
L 462.428746 463.543347 
L 465.352436 509.437316 
L 468.276126 449.080059 
L 471.199816 392.069682 
L 474.123506 392.441343 
L 477.047197 424.416873 
L 479.970887 380.272424 
L 482.894577 482.222519 
L 485.818267 516.050479 
L 488.741957 463.678334 
L 491.665647 488.809202 
L 494.589337 364.304493 
L 497.513027 466.485613 
L 500.436717 509.193995 
L 503.360408 483.520239 
L 506.284098 484.948224 
L 509.207788 411.004732 
L 512.131478 407.719733 
L 515.055168 400.790805 
L 517.978858 492.383101 
L 520.902548 486.004757 
L 523.826238 421.055127 
L 526.749928 473.138199 
L 529.673618 446.972414 
L 532.597309 389.017999 
L 535.520999 471.624128 
L 538.444689 409.838501 
L 541.368379 424.716476 
L 544.292069 281.674857 
L 547.215759 287.872285 
L 550.139449 292.018595 
L 553.063139 277.766219 
L 555.986829 303.228977 
L 558.910519 320.904697 
L 561.83421 325.295919 
L 564.7579 342.160088 
L 567.68159 344.483367 
L 570.60528 335.273871 
L 573.52897 359.851479 
L 576.45266 413.932376 
L 579.37635 435.770095 
L 582.30004 340.636537 
L 585.22373 447.440446 
L 588.147421 394.330994 
L 591.071111 406.052765 
L 593.994801 497.846579 
L 596.918491 456.004509 
L 599.842181 478.009117 
L 602.765871 520.801627 
L 605.689561 405.801679 
L 608.613251 433.982341 
L 611.536941 579.81408 
L 614.460631 570.902351 
L 617.384322 381.079376 
L 620.308012 381.457789 
L 623.231702 499.628282 
L 626.155392 539.141878 
L 629.079082 461.444167 
L 632.002772 441.996521 
L 634.926462 420.847067 
L 637.850152 443.804003 
L 640.773842 387.085043 
L 643.697532 379.664578 
L 646.621223 427.001504 
L 649.544913 447.584283 
L 652.468603 537.529899 
L 658.315983 371.209162 
L 661.239673 468.98909 
L 664.163363 396.255589 
L 667.087053 473.708126 
L 670.010743 530.553294 
L 672.934433 518.546262 
L 675.858124 507.387492 
L 678.781814 459.834566 
L 681.705504 485.864908 
L 684.629194 487.224262 
L 687.552884 437.891347 
L 690.476574 498.922037 
L 693.400264 469.18113 
L 696.323954 455.660902 
L 702.171335 407.734284 
L 705.095025 421.278159 
L 708.018715 414.868369 
L 710.942405 415.004091 
L 713.866095 410.066291 
L 716.789785 413.450388 
L 719.713475 415.670144 
L 722.637165 405.779292 
L 725.560855 416.694251 
L 728.484545 409.763714 
L 728.484545 409.763714 
" style="fill:none;stroke:#8172b3;stroke-dasharray:7.5,1.5,1.5,1.5;stroke-dashoffset:0;stroke-width:1.5;"/>
   </g>
   <g id="line2d_6"/>
   <g id="line2d_7"/>
   <g id="line2d_8"/>
   <g id="line2d_9"/>
   <g id="line2d_10"/>
   <g id="patch_3">
    <path d="M 105.3 529.9416 
L 105.3 71.4528 
" style="fill:none;stroke:#262626;stroke-linecap:square;stroke-linejoin:miter;stroke-width:1.25;"/>
   </g>
   <g id="patch_4">
    <path d="M 758.16 529.9416 
L 758.16 71.4528 
" style="fill:none;stroke:#262626;stroke-linecap:square;stroke-linejoin:miter;stroke-width:1.25;"/>
   </g>
   <g id="patch_5">
    <path d="M 105.3 529.9416 
L 758.16 529.9416 
" style="fill:none;stroke:#262626;stroke-linecap:square;stroke-linejoin:miter;stroke-width:1.25;"/>
   </g>
   <g id="patch_6">
    <path d="M 105.3 71.4528 
L 758.16 71.4528 
" style="fill:none;stroke:#262626;stroke-linecap:square;stroke-linejoin:miter;stroke-width:1.25;"/>
   </g>
   <g id="text_16">
    <!-- Activations for &gt;Q&lt; -->
    <g style="fill:#262626;" transform="translate(380.7075 65.4528)scale(0.12 -0.12)">
     <defs>
      <path d="M -9 0 
L 1750 4581 
L 2403 4581 
L 4278 0 
L 3588 0 
L 3053 1388 
L 1138 1388 
L 634 0 
L -9 0 
z
M 1313 1881 
L 2866 1881 
L 2388 3150 
Q 2169 3728 2063 4100 
Q 1975 3659 1816 3225 
L 1313 1881 
z
" id="ArialMT-41" transform="scale(0.015625)"/>
      <path d="M 2588 1216 
L 3141 1144 
Q 3050 572 2676 248 
Q 2303 -75 1759 -75 
Q 1078 -75 664 370 
Q 250 816 250 1647 
Q 250 2184 428 2587 
Q 606 2991 970 3192 
Q 1334 3394 1763 3394 
Q 2303 3394 2647 3120 
Q 2991 2847 3088 2344 
L 2541 2259 
Q 2463 2594 2264 2762 
Q 2066 2931 1784 2931 
Q 1359 2931 1093 2626 
Q 828 2322 828 1663 
Q 828 994 1084 691 
Q 1341 388 1753 388 
Q 2084 388 2306 591 
Q 2528 794 2588 1216 
z
" id="ArialMT-63" transform="scale(0.015625)"/>
      <path d="M 1650 503 
L 1731 6 
Q 1494 -44 1306 -44 
Q 1000 -44 831 53 
Q 663 150 594 308 
Q 525 466 525 972 
L 525 2881 
L 113 2881 
L 113 3319 
L 525 3319 
L 525 4141 
L 1084 4478 
L 1084 3319 
L 1650 3319 
L 1650 2881 
L 1084 2881 
L 1084 941 
Q 1084 700 1114 631 
Q 1144 563 1211 522 
Q 1278 481 1403 481 
Q 1497 481 1650 503 
z
" id="ArialMT-74" transform="scale(0.015625)"/>
      <path d="M 425 3934 
L 425 4581 
L 988 4581 
L 988 3934 
L 425 3934 
z
M 425 0 
L 425 3319 
L 988 3319 
L 988 0 
L 425 0 
z
" id="ArialMT-69" transform="scale(0.015625)"/>
      <path d="M 1344 0 
L 81 3319 
L 675 3319 
L 1388 1331 
Q 1503 1009 1600 663 
Q 1675 925 1809 1294 
L 2547 3319 
L 3125 3319 
L 1869 0 
L 1344 0 
z
" id="ArialMT-76" transform="scale(0.015625)"/>
      <path d="M 2588 409 
Q 2275 144 1986 34 
Q 1697 -75 1366 -75 
Q 819 -75 525 192 
Q 231 459 231 875 
Q 231 1119 342 1320 
Q 453 1522 633 1644 
Q 813 1766 1038 1828 
Q 1203 1872 1538 1913 
Q 2219 1994 2541 2106 
Q 2544 2222 2544 2253 
Q 2544 2597 2384 2738 
Q 2169 2928 1744 2928 
Q 1347 2928 1158 2789 
Q 969 2650 878 2297 
L 328 2372 
Q 403 2725 575 2942 
Q 747 3159 1072 3276 
Q 1397 3394 1825 3394 
Q 2250 3394 2515 3294 
Q 2781 3194 2906 3042 
Q 3031 2891 3081 2659 
Q 3109 2516 3109 2141 
L 3109 1391 
Q 3109 606 3145 398 
Q 3181 191 3288 0 
L 2700 0 
Q 2613 175 2588 409 
z
M 2541 1666 
Q 2234 1541 1622 1453 
Q 1275 1403 1131 1340 
Q 988 1278 909 1158 
Q 831 1038 831 891 
Q 831 666 1001 516 
Q 1172 366 1500 366 
Q 1825 366 2078 508 
Q 2331 650 2450 897 
Q 2541 1088 2541 1459 
L 2541 1666 
z
" id="ArialMT-61" transform="scale(0.015625)"/>
      <path d="M 213 1659 
Q 213 2581 725 3025 
Q 1153 3394 1769 3394 
Q 2453 3394 2887 2945 
Q 3322 2497 3322 1706 
Q 3322 1066 3130 698 
Q 2938 331 2570 128 
Q 2203 -75 1769 -75 
Q 1072 -75 642 372 
Q 213 819 213 1659 
z
M 791 1659 
Q 791 1022 1069 705 
Q 1347 388 1769 388 
Q 2188 388 2466 706 
Q 2744 1025 2744 1678 
Q 2744 2294 2464 2611 
Q 2184 2928 1769 2928 
Q 1347 2928 1069 2612 
Q 791 2297 791 1659 
z
" id="ArialMT-6f" transform="scale(0.015625)"/>
      <path d="M 422 0 
L 422 3319 
L 928 3319 
L 928 2847 
Q 1294 3394 1984 3394 
Q 2284 3394 2536 3286 
Q 2788 3178 2913 3003 
Q 3038 2828 3088 2588 
Q 3119 2431 3119 2041 
L 3119 0 
L 2556 0 
L 2556 2019 
Q 2556 2363 2490 2533 
Q 2425 2703 2258 2804 
Q 2091 2906 1866 2906 
Q 1506 2906 1245 2678 
Q 984 2450 984 1813 
L 984 0 
L 422 0 
z
" id="ArialMT-6e" transform="scale(0.015625)"/>
      <path d="M 197 991 
L 753 1078 
Q 800 744 1014 566 
Q 1228 388 1613 388 
Q 2000 388 2187 545 
Q 2375 703 2375 916 
Q 2375 1106 2209 1216 
Q 2094 1291 1634 1406 
Q 1016 1563 777 1677 
Q 538 1791 414 1992 
Q 291 2194 291 2438 
Q 291 2659 392 2848 
Q 494 3038 669 3163 
Q 800 3259 1026 3326 
Q 1253 3394 1513 3394 
Q 1903 3394 2198 3281 
Q 2494 3169 2634 2976 
Q 2775 2784 2828 2463 
L 2278 2388 
Q 2241 2644 2061 2787 
Q 1881 2931 1553 2931 
Q 1166 2931 1000 2803 
Q 834 2675 834 2503 
Q 834 2394 903 2306 
Q 972 2216 1119 2156 
Q 1203 2125 1616 2013 
Q 2213 1853 2448 1751 
Q 2684 1650 2818 1456 
Q 2953 1263 2953 975 
Q 2953 694 2789 445 
Q 2625 197 2315 61 
Q 2006 -75 1616 -75 
Q 969 -75 630 194 
Q 291 463 197 991 
z
" id="ArialMT-73" transform="scale(0.015625)"/>
      <path id="ArialMT-20" transform="scale(0.015625)"/>
      <path d="M 556 0 
L 556 2881 
L 59 2881 
L 59 3319 
L 556 3319 
L 556 3672 
Q 556 4006 616 4169 
Q 697 4388 901 4523 
Q 1106 4659 1475 4659 
Q 1713 4659 2000 4603 
L 1916 4113 
Q 1741 4144 1584 4144 
Q 1328 4144 1222 4034 
Q 1116 3925 1116 3625 
L 1116 3319 
L 1763 3319 
L 1763 2881 
L 1116 2881 
L 1116 0 
L 556 0 
z
" id="ArialMT-66" transform="scale(0.015625)"/>
      <path d="M 416 0 
L 416 3319 
L 922 3319 
L 922 2816 
Q 1116 3169 1280 3281 
Q 1444 3394 1641 3394 
Q 1925 3394 2219 3213 
L 2025 2691 
Q 1819 2813 1613 2813 
Q 1428 2813 1281 2702 
Q 1134 2591 1072 2394 
Q 978 2094 978 1738 
L 978 0 
L 416 0 
z
" id="ArialMT-72" transform="scale(0.015625)"/>
      <path d="M 3384 2003 
L 350 706 
L 350 1266 
L 2753 2263 
L 350 3250 
L 350 3809 
L 3384 2528 
L 3384 2003 
z
" id="ArialMT-3e" transform="scale(0.015625)"/>
      <path d="M 3966 491 
Q 4388 200 4744 66 
L 4566 -356 
Q 4072 -178 3581 206 
Q 3072 -78 2456 -78 
Q 1834 -78 1328 222 
Q 822 522 548 1065 
Q 275 1609 275 2291 
Q 275 2969 550 3525 
Q 825 4081 1333 4372 
Q 1841 4663 2469 4663 
Q 3103 4663 3612 4361 
Q 4122 4059 4389 3517 
Q 4656 2975 4656 2294 
Q 4656 1728 4484 1276 
Q 4313 825 3966 491 
z
M 2631 1266 
Q 3156 1119 3497 828 
Q 4031 1316 4031 2294 
Q 4031 2850 3842 3265 
Q 3653 3681 3289 3911 
Q 2925 4141 2472 4141 
Q 1794 4141 1347 3677 
Q 900 3213 900 2291 
Q 900 1397 1342 919 
Q 1784 441 2472 441 
Q 2797 441 3084 563 
Q 2800 747 2484 825 
L 2631 1266 
z
" id="ArialMT-51" transform="scale(0.015625)"/>
      <path d="M 350 2003 
L 350 2528 
L 3384 3809 
L 3384 3250 
L 978 2263 
L 3384 1266 
L 3384 706 
L 350 2003 
z
" id="ArialMT-3c" transform="scale(0.015625)"/>
     </defs>
     <use xlink:href="#ArialMT-41"/>
     <use x="66.699219" xlink:href="#ArialMT-63"/>
     <use x="116.699219" xlink:href="#ArialMT-74"/>
     <use x="144.482422" xlink:href="#ArialMT-69"/>
     <use x="166.699219" xlink:href="#ArialMT-76"/>
     <use x="216.699219" xlink:href="#ArialMT-61"/>
     <use x="272.314453" xlink:href="#ArialMT-74"/>
     <use x="300.097656" xlink:href="#ArialMT-69"/>
     <use x="322.314453" xlink:href="#ArialMT-6f"/>
     <use x="377.929688" xlink:href="#ArialMT-6e"/>
     <use x="433.544922" xlink:href="#ArialMT-73"/>
     <use x="483.544922" xlink:href="#ArialMT-20"/>
     <use x="511.328125" xlink:href="#ArialMT-66"/>
     <use x="539.111328" xlink:href="#ArialMT-6f"/>
     <use x="594.726562" xlink:href="#ArialMT-72"/>
     <use x="628.027344" xlink:href="#ArialMT-20"/>
     <use x="655.810547" xlink:href="#ArialMT-3e"/>
     <use x="714.208984" xlink:href="#ArialMT-51"/>
     <use x="791.992188" xlink:href="#ArialMT-3c"/>
    </g>
   </g>
   <g id="legend_1">
    <g id="patch_7">
     <path d="M 640.044062 158.514363 
L 750.46 158.514363 
Q 752.66 158.514363 752.66 156.314363 
L 752.66 79.1528 
Q 752.66 76.9528 750.46 76.9528 
L 640.044062 76.9528 
Q 637.844062 76.9528 637.844062 79.1528 
L 637.844062 156.314363 
Q 637.844062 158.514363 640.044062 158.514363 
z
" style="fill:#ffffff;opacity:0.8;stroke:#cccccc;stroke-linejoin:miter;"/>
    </g>
    <g id="line2d_11">
     <path d="M 642.244062 85.376394 
L 664.244062 85.376394 
" style="fill:none;stroke:#4c72b0;stroke-linecap:round;stroke-width:1.5;"/>
    </g>
    <g id="line2d_12"/>
    <g id="text_17">
     <!-- regular -->
     <g style="fill:#262626;" transform="translate(673.044062 89.226394)scale(0.11 -0.11)">
      <defs>
       <path d="M 2694 1069 
L 3275 997 
Q 3138 488 2766 206 
Q 2394 -75 1816 -75 
Q 1088 -75 661 373 
Q 234 822 234 1631 
Q 234 2469 665 2931 
Q 1097 3394 1784 3394 
Q 2450 3394 2872 2941 
Q 3294 2488 3294 1666 
Q 3294 1616 3291 1516 
L 816 1516 
Q 847 969 1125 678 
Q 1403 388 1819 388 
Q 2128 388 2347 550 
Q 2566 713 2694 1069 
z
M 847 1978 
L 2700 1978 
Q 2663 2397 2488 2606 
Q 2219 2931 1791 2931 
Q 1403 2931 1139 2672 
Q 875 2413 847 1978 
z
" id="ArialMT-65" transform="scale(0.015625)"/>
       <path d="M 319 -275 
L 866 -356 
Q 900 -609 1056 -725 
Q 1266 -881 1628 -881 
Q 2019 -881 2231 -725 
Q 2444 -569 2519 -288 
Q 2563 -116 2559 434 
Q 2191 0 1641 0 
Q 956 0 581 494 
Q 206 988 206 1678 
Q 206 2153 378 2554 
Q 550 2956 876 3175 
Q 1203 3394 1644 3394 
Q 2231 3394 2613 2919 
L 2613 3319 
L 3131 3319 
L 3131 450 
Q 3131 -325 2973 -648 
Q 2816 -972 2473 -1159 
Q 2131 -1347 1631 -1347 
Q 1038 -1347 672 -1080 
Q 306 -813 319 -275 
z
M 784 1719 
Q 784 1066 1043 766 
Q 1303 466 1694 466 
Q 2081 466 2343 764 
Q 2606 1063 2606 1700 
Q 2606 2309 2336 2618 
Q 2066 2928 1684 2928 
Q 1309 2928 1046 2623 
Q 784 2319 784 1719 
z
" id="ArialMT-67" transform="scale(0.015625)"/>
       <path d="M 2597 0 
L 2597 488 
Q 2209 -75 1544 -75 
Q 1250 -75 995 37 
Q 741 150 617 320 
Q 494 491 444 738 
Q 409 903 409 1263 
L 409 3319 
L 972 3319 
L 972 1478 
Q 972 1038 1006 884 
Q 1059 663 1231 536 
Q 1403 409 1656 409 
Q 1909 409 2131 539 
Q 2353 669 2445 892 
Q 2538 1116 2538 1541 
L 2538 3319 
L 3100 3319 
L 3100 0 
L 2597 0 
z
" id="ArialMT-75" transform="scale(0.015625)"/>
       <path d="M 409 0 
L 409 4581 
L 972 4581 
L 972 0 
L 409 0 
z
" id="ArialMT-6c" transform="scale(0.015625)"/>
      </defs>
      <use xlink:href="#ArialMT-72"/>
      <use x="33.300781" xlink:href="#ArialMT-65"/>
      <use x="88.916016" xlink:href="#ArialMT-67"/>
      <use x="144.53125" xlink:href="#ArialMT-75"/>
      <use x="200.146484" xlink:href="#ArialMT-6c"/>
      <use x="222.363281" xlink:href="#ArialMT-61"/>
      <use x="277.978516" xlink:href="#ArialMT-72"/>
     </g>
    </g>
    <g id="line2d_13">
     <path d="M 642.244062 101.0978 
L 664.244062 101.0978 
" style="fill:none;stroke:#dd8452;stroke-dasharray:6,2.25;stroke-dashoffset:0;stroke-width:1.5;"/>
    </g>
    <g id="line2d_14"/>
    <g id="text_18">
     <!-- splitted_3s -->
     <g style="fill:#262626;" transform="translate(673.044062 104.9478)scale(0.11 -0.11)">
      <defs>
       <path d="M 422 -1272 
L 422 3319 
L 934 3319 
L 934 2888 
Q 1116 3141 1344 3267 
Q 1572 3394 1897 3394 
Q 2322 3394 2647 3175 
Q 2972 2956 3137 2557 
Q 3303 2159 3303 1684 
Q 3303 1175 3120 767 
Q 2938 359 2589 142 
Q 2241 -75 1856 -75 
Q 1575 -75 1351 44 
Q 1128 163 984 344 
L 984 -1272 
L 422 -1272 
z
M 931 1641 
Q 931 1000 1190 694 
Q 1450 388 1819 388 
Q 2194 388 2461 705 
Q 2728 1022 2728 1688 
Q 2728 2322 2467 2637 
Q 2206 2953 1844 2953 
Q 1484 2953 1207 2617 
Q 931 2281 931 1641 
z
" id="ArialMT-70" transform="scale(0.015625)"/>
       <path d="M 2575 0 
L 2575 419 
Q 2259 -75 1647 -75 
Q 1250 -75 917 144 
Q 584 363 401 755 
Q 219 1147 219 1656 
Q 219 2153 384 2558 
Q 550 2963 881 3178 
Q 1213 3394 1622 3394 
Q 1922 3394 2156 3267 
Q 2391 3141 2538 2938 
L 2538 4581 
L 3097 4581 
L 3097 0 
L 2575 0 
z
M 797 1656 
Q 797 1019 1065 703 
Q 1334 388 1700 388 
Q 2069 388 2326 689 
Q 2584 991 2584 1609 
Q 2584 2291 2321 2609 
Q 2059 2928 1675 2928 
Q 1300 2928 1048 2622 
Q 797 2316 797 1656 
z
" id="ArialMT-64" transform="scale(0.015625)"/>
       <path d="M -97 -1272 
L -97 -866 
L 3631 -866 
L 3631 -1272 
L -97 -1272 
z
" id="ArialMT-5f" transform="scale(0.015625)"/>
       <path d="M 269 1209 
L 831 1284 
Q 928 806 1161 595 
Q 1394 384 1728 384 
Q 2125 384 2398 659 
Q 2672 934 2672 1341 
Q 2672 1728 2419 1979 
Q 2166 2231 1775 2231 
Q 1616 2231 1378 2169 
L 1441 2663 
Q 1497 2656 1531 2656 
Q 1891 2656 2178 2843 
Q 2466 3031 2466 3422 
Q 2466 3731 2256 3934 
Q 2047 4138 1716 4138 
Q 1388 4138 1169 3931 
Q 950 3725 888 3313 
L 325 3413 
Q 428 3978 793 4289 
Q 1159 4600 1703 4600 
Q 2078 4600 2393 4439 
Q 2709 4278 2876 4000 
Q 3044 3722 3044 3409 
Q 3044 3113 2884 2869 
Q 2725 2625 2413 2481 
Q 2819 2388 3044 2092 
Q 3269 1797 3269 1353 
Q 3269 753 2831 336 
Q 2394 -81 1725 -81 
Q 1122 -81 723 278 
Q 325 638 269 1209 
z
" id="ArialMT-33" transform="scale(0.015625)"/>
      </defs>
      <use xlink:href="#ArialMT-73"/>
      <use x="50" xlink:href="#ArialMT-70"/>
      <use x="105.615234" xlink:href="#ArialMT-6c"/>
      <use x="127.832031" xlink:href="#ArialMT-69"/>
      <use x="150.048828" xlink:href="#ArialMT-74"/>
      <use x="177.832031" xlink:href="#ArialMT-74"/>
      <use x="205.615234" xlink:href="#ArialMT-65"/>
      <use x="261.230469" xlink:href="#ArialMT-64"/>
      <use x="316.845703" xlink:href="#ArialMT-5f"/>
      <use x="372.460938" xlink:href="#ArialMT-33"/>
      <use x="428.076172" xlink:href="#ArialMT-73"/>
     </g>
    </g>
    <g id="line2d_15">
     <path d="M 642.244062 116.6903 
L 664.244062 116.6903 
" style="fill:none;stroke:#55a868;stroke-dasharray:1.5,1.5;stroke-dashoffset:0;stroke-width:1.5;"/>
    </g>
    <g id="line2d_16"/>
    <g id="text_19">
     <!-- splitted_1s -->
     <g style="fill:#262626;" transform="translate(673.044062 120.5403)scale(0.11 -0.11)">
      <use xlink:href="#ArialMT-73"/>
      <use x="50" xlink:href="#ArialMT-70"/>
      <use x="105.615234" xlink:href="#ArialMT-6c"/>
      <use x="127.832031" xlink:href="#ArialMT-69"/>
      <use x="150.048828" xlink:href="#ArialMT-74"/>
      <use x="177.832031" xlink:href="#ArialMT-74"/>
      <use x="205.615234" xlink:href="#ArialMT-65"/>
      <use x="261.230469" xlink:href="#ArialMT-64"/>
      <use x="316.845703" xlink:href="#ArialMT-5f"/>
      <use x="372.460938" xlink:href="#ArialMT-31"/>
      <use x="428.076172" xlink:href="#ArialMT-73"/>
     </g>
    </g>
    <g id="line2d_17">
     <path d="M 642.244062 132.384206 
L 664.244062 132.384206 
" style="fill:none;stroke:#c44e52;stroke-dasharray:4.5,1.875,2.25,1.875;stroke-dashoffset:0;stroke-width:1.5;"/>
    </g>
    <g id="line2d_18"/>
    <g id="text_20">
     <!-- overlap_1f_3s -->
     <g style="fill:#262626;" transform="translate(673.044062 136.234206)scale(0.11 -0.11)">
      <use xlink:href="#ArialMT-6f"/>
      <use x="55.615234" xlink:href="#ArialMT-76"/>
      <use x="105.615234" xlink:href="#ArialMT-65"/>
      <use x="161.230469" xlink:href="#ArialMT-72"/>
      <use x="194.53125" xlink:href="#ArialMT-6c"/>
      <use x="216.748047" xlink:href="#ArialMT-61"/>
      <use x="272.363281" xlink:href="#ArialMT-70"/>
      <use x="327.978516" xlink:href="#ArialMT-5f"/>
      <use x="383.59375" xlink:href="#ArialMT-31"/>
      <use x="439.208984" xlink:href="#ArialMT-66"/>
      <use x="466.992188" xlink:href="#ArialMT-5f"/>
      <use x="522.607422" xlink:href="#ArialMT-33"/>
      <use x="578.222656" xlink:href="#ArialMT-73"/>
     </g>
    </g>
    <g id="line2d_19">
     <path d="M 642.244062 148.078113 
L 664.244062 148.078113 
" style="fill:none;stroke:#8172b3;stroke-dasharray:7.5,1.5,1.5,1.5;stroke-dashoffset:0;stroke-width:1.5;"/>
    </g>
    <g id="line2d_20"/>
    <g id="text_21">
     <!-- overlap_10f_3s -->
     <g style="fill:#262626;" transform="translate(673.044062 151.928112)scale(0.11 -0.11)">
      <use xlink:href="#ArialMT-6f"/>
      <use x="55.615234" xlink:href="#ArialMT-76"/>
      <use x="105.615234" xlink:href="#ArialMT-65"/>
      <use x="161.230469" xlink:href="#ArialMT-72"/>
      <use x="194.53125" xlink:href="#ArialMT-6c"/>
      <use x="216.748047" xlink:href="#ArialMT-61"/>
      <use x="272.363281" xlink:href="#ArialMT-70"/>
      <use x="327.978516" xlink:href="#ArialMT-5f"/>
      <use x="383.59375" xlink:href="#ArialMT-31"/>
      <use x="439.208984" xlink:href="#ArialMT-30"/>
      <use x="494.824219" xlink:href="#ArialMT-66"/>
      <use x="522.607422" xlink:href="#ArialMT-5f"/>
      <use x="578.222656" xlink:href="#ArialMT-33"/>
      <use x="633.837891" xlink:href="#ArialMT-73"/>
     </g>
    </g>
   </g>
  </g>
 </g>
 <defs>
  <clipPath id="pbe3142745b">
   <rect height="458.4888" width="652.86" x="105.3" y="71.4528"/>
  </clipPath>
 </defs>
</svg>
