<?xml version="1.0" encoding="utf-8" standalone="no"?>
<!DOCTYPE svg PUBLIC "-//W3C//DTD SVG 1.1//EN"
  "http://www.w3.org/Graphics/SVG/1.1/DTD/svg11.dtd">
<svg height="595.44pt" version="1.1" viewBox="0 0 842.4 595.44" width="842.4pt" xmlns="http://www.w3.org/2000/svg" xmlns:xlink="http://www.w3.org/1999/xlink">
 <metadata>
  <rdf:RDF xmlns:cc="http://creativecommons.org/ns#" xmlns:dc="http://purl.org/dc/elements/1.1/" xmlns:rdf="http://www.w3.org/1999/02/22-rdf-syntax-ns#">
   <cc:Work>
    <dc:type rdf:resource="http://purl.org/dc/dcmitype/StillImage"/>
    <dc:date>2021-06-04T22:03:09.428206</dc:date>
    <dc:format>image/svg+xml</dc:format>
    <dc:creator>
     <cc:Agent>
      <dc:title>Matplotlib v3.4.1, https://matplotlib.org/</dc:title>
     </cc:Agent>
    </dc:creator>
   </cc:Work>
  </rdf:RDF>
 </metadata>
 <defs>
  <style type="text/css">*{stroke-linecap:butt;stroke-linejoin:round;}</style>
 </defs>
 <g id="figure_1">
  <g id="patch_1">
   <path d="M 0 595.44 
L 842.4 595.44 
L 842.4 0 
L 0 0 
z
" style="fill:#ffffff;"/>
  </g>
  <g id="axes_1">
   <g id="patch_2">
    <path d="M 105.3 529.9416 
L 758.16 529.9416 
L 758.16 71.4528 
L 105.3 71.4528 
z
" style="fill:#ffffff;"/>
   </g>
   <g id="matplotlib.axis_1">
    <g id="xtick_1">
     <g id="text_1">
      <!-- 0 -->
      <g style="fill:#262626;" transform="translate(131.916939 547.315194)scale(0.11 -0.11)">
       <defs>
        <path d="M 266 2259 
Q 266 3072 433 3567 
Q 600 4063 929 4331 
Q 1259 4600 1759 4600 
Q 2128 4600 2406 4451 
Q 2684 4303 2865 4023 
Q 3047 3744 3150 3342 
Q 3253 2941 3253 2259 
Q 3253 1453 3087 958 
Q 2922 463 2592 192 
Q 2263 -78 1759 -78 
Q 1097 -78 719 397 
Q 266 969 266 2259 
z
M 844 2259 
Q 844 1131 1108 757 
Q 1372 384 1759 384 
Q 2147 384 2411 759 
Q 2675 1134 2675 2259 
Q 2675 3391 2411 3762 
Q 2147 4134 1753 4134 
Q 1366 4134 1134 3806 
Q 844 3388 844 2259 
z
" id="ArialMT-30" transform="scale(0.015625)"/>
       </defs>
       <use xlink:href="#ArialMT-30"/>
      </g>
     </g>
    </g>
    <g id="xtick_2">
     <g id="text_2">
      <!-- 25 -->
      <g style="fill:#262626;" transform="translate(201.950676 547.315194)scale(0.11 -0.11)">
       <defs>
        <path d="M 3222 541 
L 3222 0 
L 194 0 
Q 188 203 259 391 
Q 375 700 629 1000 
Q 884 1300 1366 1694 
Q 2113 2306 2375 2664 
Q 2638 3022 2638 3341 
Q 2638 3675 2398 3904 
Q 2159 4134 1775 4134 
Q 1369 4134 1125 3890 
Q 881 3647 878 3216 
L 300 3275 
Q 359 3922 746 4261 
Q 1134 4600 1788 4600 
Q 2447 4600 2831 4234 
Q 3216 3869 3216 3328 
Q 3216 3053 3103 2787 
Q 2991 2522 2730 2228 
Q 2469 1934 1863 1422 
Q 1356 997 1212 845 
Q 1069 694 975 541 
L 3222 541 
z
" id="ArialMT-32" transform="scale(0.015625)"/>
        <path d="M 266 1200 
L 856 1250 
Q 922 819 1161 601 
Q 1400 384 1738 384 
Q 2144 384 2425 690 
Q 2706 997 2706 1503 
Q 2706 1984 2436 2262 
Q 2166 2541 1728 2541 
Q 1456 2541 1237 2417 
Q 1019 2294 894 2097 
L 366 2166 
L 809 4519 
L 3088 4519 
L 3088 3981 
L 1259 3981 
L 1013 2750 
Q 1425 3038 1878 3038 
Q 2478 3038 2890 2622 
Q 3303 2206 3303 1553 
Q 3303 931 2941 478 
Q 2500 -78 1738 -78 
Q 1113 -78 717 272 
Q 322 622 266 1200 
z
" id="ArialMT-35" transform="scale(0.015625)"/>
       </defs>
       <use xlink:href="#ArialMT-32"/>
       <use x="55.615234" xlink:href="#ArialMT-35"/>
      </g>
     </g>
    </g>
    <g id="xtick_3">
     <g id="text_3">
      <!-- 50 -->
      <g style="fill:#262626;" transform="translate(275.042928 547.315194)scale(0.11 -0.11)">
       <use xlink:href="#ArialMT-35"/>
       <use x="55.615234" xlink:href="#ArialMT-30"/>
      </g>
     </g>
    </g>
    <g id="xtick_4">
     <g id="text_4">
      <!-- 75 -->
      <g style="fill:#262626;" transform="translate(348.135181 547.315194)scale(0.11 -0.11)">
       <defs>
        <path d="M 303 3981 
L 303 4522 
L 3269 4522 
L 3269 4084 
Q 2831 3619 2401 2847 
Q 1972 2075 1738 1259 
Q 1569 684 1522 0 
L 944 0 
Q 953 541 1156 1306 
Q 1359 2072 1739 2783 
Q 2119 3494 2547 3981 
L 303 3981 
z
" id="ArialMT-37" transform="scale(0.015625)"/>
       </defs>
       <use xlink:href="#ArialMT-37"/>
       <use x="55.615234" xlink:href="#ArialMT-35"/>
      </g>
     </g>
    </g>
    <g id="xtick_5">
     <g id="text_5">
      <!-- 100 -->
      <g style="fill:#262626;" transform="translate(418.168918 547.315194)scale(0.11 -0.11)">
       <defs>
        <path d="M 2384 0 
L 1822 0 
L 1822 3584 
Q 1619 3391 1289 3197 
Q 959 3003 697 2906 
L 697 3450 
Q 1169 3672 1522 3987 
Q 1875 4303 2022 4600 
L 2384 4600 
L 2384 0 
z
" id="ArialMT-31" transform="scale(0.015625)"/>
       </defs>
       <use xlink:href="#ArialMT-31"/>
       <use x="55.615234" xlink:href="#ArialMT-30"/>
       <use x="111.230469" xlink:href="#ArialMT-30"/>
      </g>
     </g>
    </g>
    <g id="xtick_6">
     <g id="text_6">
      <!-- 125 -->
      <g style="fill:#262626;" transform="translate(491.261171 547.315194)scale(0.11 -0.11)">
       <use xlink:href="#ArialMT-31"/>
       <use x="55.615234" xlink:href="#ArialMT-32"/>
       <use x="111.230469" xlink:href="#ArialMT-35"/>
      </g>
     </g>
    </g>
    <g id="xtick_7">
     <g id="text_7">
      <!-- 150 -->
      <g style="fill:#262626;" transform="translate(564.353423 547.315194)scale(0.11 -0.11)">
       <use xlink:href="#ArialMT-31"/>
       <use x="55.615234" xlink:href="#ArialMT-35"/>
       <use x="111.230469" xlink:href="#ArialMT-30"/>
      </g>
     </g>
    </g>
    <g id="xtick_8">
     <g id="text_8">
      <!-- 175 -->
      <g style="fill:#262626;" transform="translate(637.445676 547.315194)scale(0.11 -0.11)">
       <use xlink:href="#ArialMT-31"/>
       <use x="55.615234" xlink:href="#ArialMT-37"/>
       <use x="111.230469" xlink:href="#ArialMT-35"/>
      </g>
     </g>
    </g>
    <g id="xtick_9">
     <g id="text_9">
      <!-- 200 -->
      <g style="fill:#262626;" transform="translate(710.537928 547.315194)scale(0.11 -0.11)">
       <use xlink:href="#ArialMT-32"/>
       <use x="55.615234" xlink:href="#ArialMT-30"/>
       <use x="111.230469" xlink:href="#ArialMT-30"/>
      </g>
     </g>
    </g>
   </g>
   <g id="matplotlib.axis_2">
    <g id="ytick_1">
     <g id="text_10">
      <!-- −25 -->
      <g style="fill:#262626;" transform="translate(77.14125 533.878397)scale(0.11 -0.11)">
       <defs>
        <path d="M 3381 1997 
L 356 1997 
L 356 2522 
L 3381 2522 
L 3381 1997 
z
" id="ArialMT-2212" transform="scale(0.015625)"/>
       </defs>
       <use xlink:href="#ArialMT-2212"/>
       <use x="58.398438" xlink:href="#ArialMT-32"/>
       <use x="114.013672" xlink:href="#ArialMT-35"/>
      </g>
     </g>
    </g>
    <g id="ytick_2">
     <g id="text_11">
      <!-- −20 -->
      <g style="fill:#262626;" transform="translate(77.14125 442.180637)scale(0.11 -0.11)">
       <use xlink:href="#ArialMT-2212"/>
       <use x="58.398438" xlink:href="#ArialMT-32"/>
       <use x="114.013672" xlink:href="#ArialMT-30"/>
      </g>
     </g>
    </g>
    <g id="ytick_3">
     <g id="text_12">
      <!-- −15 -->
      <g style="fill:#262626;" transform="translate(77.14125 350.482877)scale(0.11 -0.11)">
       <use xlink:href="#ArialMT-2212"/>
       <use x="58.398438" xlink:href="#ArialMT-31"/>
       <use x="114.013672" xlink:href="#ArialMT-35"/>
      </g>
     </g>
    </g>
    <g id="ytick_4">
     <g id="text_13">
      <!-- −10 -->
      <g style="fill:#262626;" transform="translate(77.14125 258.785117)scale(0.11 -0.11)">
       <use xlink:href="#ArialMT-2212"/>
       <use x="58.398438" xlink:href="#ArialMT-31"/>
       <use x="114.013672" xlink:href="#ArialMT-30"/>
      </g>
     </g>
    </g>
    <g id="ytick_5">
     <g id="text_14">
      <!-- −5 -->
      <g style="fill:#262626;" transform="translate(83.258281 167.087357)scale(0.11 -0.11)">
       <use xlink:href="#ArialMT-2212"/>
       <use x="58.398438" xlink:href="#ArialMT-35"/>
      </g>
     </g>
    </g>
    <g id="ytick_6">
     <g id="text_15">
      <!-- 0 -->
      <g style="fill:#262626;" transform="translate(89.682969 75.389597)scale(0.11 -0.11)">
       <use xlink:href="#ArialMT-30"/>
      </g>
     </g>
    </g>
   </g>
   <g id="line2d_1">
    <path clip-path="url(#pcf3b4e9d46)" d="M 134.975455 324.637055 
L 137.899145 323.787865 
L 140.822835 326.357629 
L 143.746525 325.516974 
L 146.670215 324.033371 
L 149.593905 328.190315 
L 152.517595 327.403179 
L 155.441285 330.392336 
L 158.364975 330.855033 
L 161.288665 332.87152 
L 164.212356 333.945316 
L 167.136046 333.235661 
L 170.059736 340.313131 
L 172.983426 353.24846 
L 175.907116 361.037963 
L 178.830806 380.542119 
L 181.754496 403.16017 
L 184.678186 375.384365 
L 187.601876 317.424195 
L 190.525567 377.089426 
L 193.449257 329.365972 
L 196.372947 304.402833 
L 199.296637 374.590811 
L 202.220327 337.047633 
L 205.144017 191.523586 
L 208.067707 71.452964 
L 210.991397 359.125506 
L 213.915087 426.625575 
L 216.838777 404.507492 
L 219.762468 398.466844 
L 222.686158 331.779937 
L 225.609848 347.118684 
L 228.533538 432.602069 
L 231.457228 399.993788 
L 234.380918 289.51377 
L 237.304608 346.244396 
L 240.228298 348.115944 
L 243.151988 352.245358 
L 246.075678 378.916847 
L 248.999369 295.815875 
L 251.923059 263.86721 
L 254.846749 336.221949 
L 257.770439 398.157517 
L 260.694129 273.50841 
L 263.617819 315.112984 
L 266.541509 318.315449 
L 269.465199 369.69719 
L 272.388889 343.083418 
L 275.312579 314.991254 
L 278.23627 315.491695 
L 281.15996 318.901642 
L 284.08365 307.051005 
L 287.00734 343.539346 
L 289.93103 419.697207 
L 292.85472 354.709834 
L 295.77841 369.902137 
L 298.7021 407.195978 
L 301.62579 354.056374 
L 304.549481 314.306627 
L 307.473171 311.012411 
L 310.396861 396.677377 
L 313.320551 305.062537 
L 316.244241 299.496112 
L 319.167931 351.764454 
L 322.091621 71.453001 
L 325.015311 78.542508 
L 327.939001 287.780532 
L 330.862691 383.415895 
L 333.786382 349.516977 
L 336.710072 314.022013 
L 339.633762 341.678764 
L 342.557452 402.372947 
L 345.481142 311.699749 
L 348.404832 348.264661 
L 351.328522 277.206995 
L 357.175902 480.01637 
L 360.099592 417.187677 
L 363.023283 342.262142 
L 365.946973 259.995125 
L 368.870663 189.74825 
L 371.794353 71.457445 
L 374.718043 323.58715 
L 377.641733 374.358334 
L 380.565423 374.084441 
L 383.489113 314.612422 
L 386.412803 282.365256 
L 389.336494 366.133611 
L 392.260184 390.545921 
L 395.183874 370.862196 
L 398.107564 204.74081 
L 401.031254 71.765865 
L 403.954944 124.993624 
L 406.878634 242.386042 
L 409.802324 298.205143 
L 412.726014 341.973837 
L 415.649704 413.384241 
L 418.573395 386.17637 
L 421.497085 447.862793 
L 424.420775 495.549588 
L 427.344465 401.406242 
L 430.268155 404.018158 
L 433.191845 376.643083 
L 436.115535 354.706808 
L 439.039225 373.310371 
L 441.962915 409.5878 
L 444.886605 369.701143 
L 447.810296 412.282443 
L 450.733986 364.799826 
L 453.657676 331.792792 
L 456.581366 433.434626 
L 462.428746 349.941144 
L 465.352436 349.424927 
L 468.276126 281.560228 
L 471.199816 278.891103 
L 474.123506 337.613818 
L 477.047197 393.628387 
L 479.970887 319.365126 
L 482.894577 259.993079 
L 485.818267 71.540638 
L 488.741957 71.457891 
L 491.665647 261.004943 
L 494.589337 372.932623 
L 497.513027 461.623963 
L 500.436717 395.571137 
L 503.360408 268.494126 
L 506.284098 314.716155 
L 509.207788 460.296231 
L 512.131478 477.15907 
L 515.055168 456.805654 
L 517.978858 310.016428 
L 520.902548 246.59201 
L 523.826238 71.453718 
L 526.749928 142.224619 
L 529.673618 371.720219 
L 532.597309 419.806519 
L 535.520999 315.623342 
L 538.444689 301.832263 
L 541.368379 479.030916 
L 544.292069 289.813408 
L 547.215759 311.40527 
L 550.139449 421.376383 
L 553.063139 351.525349 
L 555.986829 456.043722 
L 558.910519 428.080389 
L 561.83421 435.400567 
L 564.7579 465.289439 
L 567.68159 307.056654 
L 570.60528 230.286837 
L 573.52897 196.567201 
L 576.45266 101.113192 
L 579.37635 71.456241 
L 582.30004 266.879279 
L 585.22373 357.63384 
L 588.147421 332.784665 
L 591.071111 352.774919 
L 593.994801 343.72056 
L 596.918491 368.168427 
L 599.842181 397.284208 
L 602.765871 342.506669 
L 605.689561 338.672013 
L 608.613251 397.991957 
L 611.536941 403.824054 
L 614.460631 402.127668 
L 617.384322 445.668923 
L 623.231702 391.80338 
L 626.155392 372.078238 
L 629.079082 280.980681 
L 632.002772 331.577141 
L 634.926462 359.361446 
L 637.850152 386.01861 
L 640.773842 222.542178 
L 643.697532 102.358274 
L 646.621223 211.99484 
L 649.544913 145.987628 
L 652.468603 71.452966 
L 655.392293 222.126949 
L 658.315983 133.285103 
L 661.239673 71.453065 
L 664.163363 72.386745 
L 667.087053 292.825441 
L 670.010743 391.753568 
L 672.934433 439.707435 
L 675.858124 507.281293 
L 678.781814 393.617158 
L 681.705504 373.073417 
L 684.629194 466.849614 
L 687.552884 393.985147 
L 690.476574 416.276591 
L 693.400264 350.450783 
L 696.323954 387.350296 
L 699.247644 389.238197 
L 702.171335 355.147817 
L 705.095025 332.548288 
L 708.018715 323.658614 
L 710.942405 324.389729 
L 713.866095 324.77965 
L 716.789785 324.976185 
L 719.713475 323.621308 
L 722.637165 323.184443 
L 725.560855 323.691093 
L 728.484545 328.269527 
L 728.484545 328.269527 
" style="fill:none;stroke:#4c72b0;stroke-linecap:round;stroke-width:1.5;"/>
   </g>
   <g id="line2d_2">
    <path clip-path="url(#pcf3b4e9d46)" d="M 134.975455 323.518974 
L 137.899145 324.618568 
L 140.822835 323.946481 
L 143.746525 324.835443 
L 146.670215 323.188798 
L 149.593905 326.68345 
L 152.517595 323.232873 
L 155.441285 324.20876 
L 158.364975 321.908778 
L 161.288665 322.823503 
L 164.212356 324.131665 
L 167.136046 322.909326 
L 170.059736 320.554408 
L 172.983426 332.033698 
L 175.907116 339.758856 
L 178.830806 363.745759 
L 181.754496 381.56007 
L 184.678186 369.388387 
L 187.601876 281.350384 
L 190.525567 359.00145 
L 193.449257 307.719104 
L 196.372947 297.574962 
L 199.296637 367.12802 
L 202.220327 328.218001 
L 205.144017 206.485241 
L 208.067707 71.452942 
L 210.991397 374.589691 
L 213.915087 407.502402 
L 216.838777 403.701519 
L 219.762468 371.139902 
L 222.686158 308.238171 
L 225.609848 318.419811 
L 228.533538 386.030399 
L 231.457228 378.182969 
L 234.380918 256.50726 
L 237.304608 308.910048 
L 240.228298 316.413993 
L 243.151988 313.204742 
L 246.075678 349.501796 
L 248.999369 307.205301 
L 251.923059 269.145925 
L 257.770439 393.146014 
L 260.694129 289.522655 
L 263.617819 328.41249 
L 266.541509 332.758535 
L 269.465199 394.827464 
L 272.388889 374.046383 
L 275.312579 332.346069 
L 278.23627 311.755629 
L 281.15996 319.873926 
L 284.08365 312.782605 
L 287.00734 346.349213 
L 289.93103 447.499946 
L 292.85472 386.362288 
L 295.77841 341.087988 
L 298.7021 394.742812 
L 301.62579 363.475994 
L 304.549481 323.723292 
L 307.473171 333.576803 
L 310.396861 395.035979 
L 313.320551 326.158296 
L 316.244241 304.161961 
L 319.167931 345.726098 
L 322.091621 71.453476 
L 325.015311 89.902495 
L 327.939001 292.213118 
L 330.862691 369.575984 
L 333.786382 331.317747 
L 336.710072 346.501113 
L 339.633762 354.002295 
L 342.557452 389.280523 
L 345.481142 273.181908 
L 348.404832 344.18539 
L 351.328522 101.18647 
L 354.252212 320.405656 
L 357.175902 278.85294 
L 360.099592 201.070174 
L 363.023283 186.509223 
L 365.946973 196.276963 
L 368.870663 105.721997 
L 371.794353 72.054891 
L 374.718043 217.111345 
L 377.641733 270.362089 
L 380.565423 313.254344 
L 383.489113 240.612752 
L 386.412803 260.629539 
L 389.336494 347.111513 
L 392.260184 413.410056 
L 395.183874 387.027641 
L 398.107564 197.243371 
L 401.031254 72.378713 
L 403.954944 142.592319 
L 406.878634 243.017202 
L 409.802324 302.518307 
L 412.726014 344.790893 
L 415.649704 392.209496 
L 418.573395 357.336546 
L 421.497085 424.126049 
L 424.420775 440.112013 
L 427.344465 336.352407 
L 430.268155 346.808832 
L 433.191845 338.114818 
L 436.115535 324.951734 
L 439.039225 383.555884 
L 441.962915 401.382141 
L 444.886605 324.219027 
L 447.810296 373.792779 
L 450.733986 407.394349 
L 453.657676 304.939022 
L 456.581366 425.972639 
L 459.505056 382.628497 
L 462.428746 343.608676 
L 465.352436 346.458893 
L 468.276126 275.626689 
L 471.199816 283.479541 
L 474.123506 301.281487 
L 477.047197 385.658772 
L 479.970887 302.519077 
L 482.894577 261.524255 
L 485.818267 71.559764 
L 488.741957 71.463636 
L 491.665647 269.479581 
L 494.589337 365.719658 
L 497.513027 472.076103 
L 500.436717 409.264306 
L 503.360408 283.335022 
L 506.284098 329.972384 
L 509.207788 446.376112 
L 512.131478 456.007972 
L 515.055168 464.600265 
L 517.978858 334.111523 
L 520.902548 265.393104 
L 523.826238 71.453624 
L 526.749928 135.111553 
L 529.673618 365.057908 
L 532.597309 402.169154 
L 535.520999 306.520849 
L 538.444689 278.925926 
L 541.368379 374.668641 
L 544.292069 245.933845 
L 547.215759 291.253251 
L 550.139449 410.23311 
L 553.063139 350.092204 
L 555.986829 337.971802 
L 558.910519 230.535999 
L 561.83421 165.329555 
L 564.7579 214.653446 
L 567.68159 278.681486 
L 570.60528 381.941946 
L 573.52897 222.818415 
L 576.45266 153.738198 
L 579.37635 71.503283 
L 582.30004 156.597431 
L 585.22373 303.194102 
L 588.147421 271.557371 
L 591.071111 363.918175 
L 593.994801 345.132716 
L 596.918491 319.01802 
L 599.842181 394.24113 
L 602.765871 310.069142 
L 605.689561 307.162888 
L 608.613251 447.703914 
L 611.536941 421.971776 
L 614.460631 421.302435 
L 617.384322 490.245058 
L 620.308012 405.763306 
L 623.231702 358.811089 
L 626.155392 359.044265 
L 629.079082 240.550768 
L 632.002772 341.811286 
L 634.926462 368.743532 
L 637.850152 351.51099 
L 640.773842 211.997962 
L 643.697532 93.353658 
L 646.621223 201.145923 
L 649.544913 158.82608 
L 652.468603 71.453406 
L 655.392293 233.327572 
L 658.315983 80.706135 
L 661.239673 71.45304 
L 664.163363 95.825798 
L 667.087053 313.726048 
L 670.010743 406.697934 
L 672.934433 431.572015 
L 675.858124 499.308285 
L 678.781814 408.52525 
L 681.705504 383.292415 
L 684.629194 463.724158 
L 687.552884 368.020847 
L 690.476574 383.714623 
L 693.400264 350.659246 
L 696.323954 389.230012 
L 699.247644 379.686196 
L 702.171335 350.763084 
L 705.095025 319.903484 
L 708.018715 314.051624 
L 710.942405 313.011234 
L 713.866095 311.578404 
L 716.789785 314.22724 
L 719.713475 312.623184 
L 722.637165 310.212787 
L 725.560855 312.973298 
L 728.484545 309.865962 
L 728.484545 309.865962 
" style="fill:none;stroke:#dd8452;stroke-dasharray:6,2.25;stroke-dashoffset:0;stroke-width:1.5;"/>
   </g>
   <g id="line2d_3">
    <path clip-path="url(#pcf3b4e9d46)" d="M 134.975455 321.202096 
L 137.899145 319.959295 
L 140.822835 316.887936 
L 143.746525 316.508876 
L 146.670215 321.174812 
L 149.593905 320.36849 
L 152.517595 319.300868 
L 155.441285 337.867352 
L 158.364975 337.745919 
L 161.288665 330.240453 
L 164.212356 332.282003 
L 167.136046 325.60355 
L 170.059736 315.312125 
L 172.983426 329.345439 
L 175.907116 335.403594 
L 178.830806 348.675518 
L 181.754496 381.323746 
L 184.678186 317.841646 
L 187.601876 327.175862 
L 190.525567 302.398973 
L 193.449257 245.220272 
L 196.372947 255.170887 
L 199.296637 310.867227 
L 202.220327 338.857756 
L 205.144017 284.07915 
L 208.067707 136.927461 
L 210.991397 325.233392 
L 213.915087 315.426807 
L 216.838777 276.623827 
L 219.762468 258.716277 
L 222.686158 245.556849 
L 225.609848 271.32827 
L 228.533538 348.064838 
L 231.457228 359.608999 
L 234.380918 226.77557 
L 237.304608 279.753008 
L 240.228298 322.173909 
L 243.151988 324.516181 
L 246.075678 318.608196 
L 248.999369 320.818069 
L 251.923059 223.645847 
L 254.846749 334.617892 
L 257.770439 388.494454 
L 260.694129 311.049262 
L 263.617819 321.804258 
L 266.541509 370.946987 
L 269.465199 442.730434 
L 272.388889 457.833609 
L 275.312579 356.129494 
L 278.23627 298.843684 
L 284.08365 248.484161 
L 287.00734 255.227485 
L 289.93103 297.414702 
L 292.85472 271.562355 
L 298.7021 383.046297 
L 301.62579 362.682089 
L 304.549481 277.932356 
L 307.473171 293.219403 
L 310.396861 385.760179 
L 313.320551 353.278718 
L 316.244241 306.281937 
L 319.167931 374.973281 
L 322.091621 71.452852 
L 325.015311 91.597047 
L 327.939001 302.759231 
L 330.862691 404.988536 
L 333.786382 362.41152 
L 336.710072 382.433833 
L 339.633762 390.927098 
L 342.557452 444.055054 
L 345.481142 341.350862 
L 348.404832 365.0889 
L 351.328522 245.814546 
L 357.175902 306.025761 
L 360.099592 115.722573 
L 363.023283 91.864368 
L 365.946973 119.488638 
L 368.870663 168.035567 
L 371.794353 86.462962 
L 374.718043 182.155727 
L 377.641733 198.519955 
L 380.565423 244.293532 
L 383.489113 213.833892 
L 386.412803 225.979497 
L 389.336494 296.593356 
L 392.260184 377.567532 
L 395.183874 366.163274 
L 398.107564 230.717493 
L 401.031254 72.008044 
L 403.954944 191.721511 
L 406.878634 236.147023 
L 409.802324 303.055476 
L 412.726014 333.792681 
L 415.649704 428.168574 
L 418.573395 410.575668 
L 421.497085 406.268416 
L 424.420775 430.31858 
L 427.344465 289.410334 
L 430.268155 280.993169 
L 433.191845 228.063863 
L 436.115535 187.419165 
L 439.039225 349.361264 
L 441.962915 256.605151 
L 444.886605 293.179421 
L 447.810296 368.525607 
L 450.733986 308.773923 
L 453.657676 292.991666 
L 456.581366 448.65285 
L 459.505056 402.055679 
L 462.428746 352.823699 
L 465.352436 348.378363 
L 468.276126 252.48861 
L 471.199816 184.957759 
L 474.123506 184.051578 
L 477.047197 309.773055 
L 479.970887 316.915552 
L 482.894577 257.507686 
L 485.818267 71.739482 
L 488.741957 71.465948 
L 491.665647 175.202585 
L 494.589337 306.439678 
L 497.513027 359.153333 
L 500.436717 268.569211 
L 503.360408 210.099357 
L 506.284098 180.004856 
L 509.207788 325.575426 
L 512.131478 309.6299 
L 515.055168 294.425913 
L 517.978858 276.671802 
L 520.902548 189.391315 
L 523.826238 71.820322 
L 526.749928 181.580203 
L 529.673618 331.95223 
L 532.597309 309.193438 
L 535.520999 309.472875 
L 538.444689 261.733925 
L 541.368379 125.871988 
L 544.292069 71.826119 
L 547.215759 237.513864 
L 550.139449 332.865591 
L 553.063139 253.89475 
L 555.986829 201.019646 
L 558.910519 194.219016 
L 561.83421 97.677348 
L 564.7579 91.057278 
L 567.68159 198.57852 
L 570.60528 335.393397 
L 573.52897 256.845131 
L 576.45266 227.091754 
L 579.37635 71.471164 
L 582.30004 221.842947 
L 585.22373 330.98236 
L 588.147421 250.837278 
L 591.071111 191.382267 
L 593.994801 157.250191 
L 596.918491 176.062951 
L 599.842181 269.110857 
L 602.765871 260.810088 
L 605.689561 353.707169 
L 608.613251 370.887277 
L 611.536941 414.871727 
L 614.460631 430.9018 
L 617.384322 467.131762 
L 620.308012 392.704427 
L 623.231702 371.61339 
L 626.155392 381.034986 
L 629.079082 299.167091 
L 632.002772 364.961014 
L 634.926462 344.710386 
L 637.850152 315.154016 
L 640.773842 220.524659 
L 643.697532 165.991061 
L 646.621223 236.854475 
L 649.544913 221.247134 
L 652.468603 103.617728 
L 655.392293 276.673569 
L 658.315983 134.690902 
L 661.239673 86.265513 
L 664.163363 175.034988 
L 667.087053 107.325446 
L 670.010743 166.000942 
L 672.934433 281.107938 
L 675.858124 401.498764 
L 678.781814 352.001828 
L 681.705504 142.856055 
L 684.629194 275.332421 
L 687.552884 391.916959 
L 690.476574 330.583903 
L 693.400264 324.451469 
L 696.323954 371.908935 
L 699.247644 359.028717 
L 702.171335 338.220247 
L 705.095025 310.234597 
L 708.018715 305.708353 
L 710.942405 306.540666 
L 713.866095 303.503814 
L 716.789785 305.551486 
L 719.713475 302.959054 
L 725.560855 303.391511 
L 728.484545 302.45209 
L 728.484545 302.45209 
" style="fill:none;stroke:#55a868;stroke-dasharray:1.5,1.5;stroke-dashoffset:0;stroke-width:1.5;"/>
   </g>
   <g id="line2d_4">
    <path clip-path="url(#pcf3b4e9d46)" d="M 134.975455 323.571829 
L 137.899145 324.810363 
L 140.822835 323.854239 
L 143.746525 324.7807 
L 146.670215 323.306768 
L 149.593905 326.660188 
L 152.517595 323.128965 
L 155.441285 324.302577 
L 158.364975 321.970046 
L 161.288665 322.944586 
L 164.212356 324.208411 
L 167.136046 323.11151 
L 170.059736 320.885388 
L 172.983426 332.256398 
L 175.907116 340.076229 
L 178.830806 364.32333 
L 181.754496 382.941217 
L 184.678186 370.395634 
L 187.601876 281.074864 
L 190.525567 359.617464 
L 193.449257 310.227654 
L 196.372947 298.550028 
L 199.296637 369.399301 
L 202.220327 328.802184 
L 208.067707 71.452936 
L 210.991397 378.722639 
L 213.915087 415.160276 
L 216.838777 397.589058 
L 219.762468 373.655972 
L 222.686158 309.704809 
L 225.609848 318.755916 
L 228.533538 387.171129 
L 231.457228 380.661681 
L 234.380918 258.169314 
L 237.304608 311.560774 
L 240.228298 320.723326 
L 243.151988 316.116908 
L 246.075678 351.865424 
L 248.999369 309.654071 
L 251.923059 274.286364 
L 257.770439 389.953327 
L 260.694129 286.341633 
L 263.617819 328.666479 
L 266.541509 330.513926 
L 269.465199 392.330212 
L 272.388889 365.383081 
L 275.312579 328.702438 
L 278.23627 314.992724 
L 281.15996 323.253441 
L 284.08365 310.212035 
L 287.00734 352.02383 
L 289.93103 448.22494 
L 292.85472 379.420838 
L 295.77841 344.46864 
L 298.7021 395.821383 
L 301.62579 361.990432 
L 304.549481 323.763921 
L 307.473171 330.308226 
L 310.396861 391.019969 
L 313.320551 322.283711 
L 316.244241 302.694571 
L 319.167931 352.385103 
L 322.091621 71.452866 
L 325.015311 98.77776 
L 327.939001 289.060658 
L 330.862691 381.155597 
L 333.786382 333.667558 
L 336.710072 357.31066 
L 339.633762 366.237991 
L 342.557452 407.120142 
L 345.481142 311.05708 
L 348.404832 266.746355 
L 351.328522 233.140569 
L 354.252212 352.537283 
L 357.175902 380.051666 
L 360.099592 253.590145 
L 363.023283 326.701342 
L 365.946973 271.303871 
L 368.870663 145.392226 
L 371.794353 71.760001 
L 374.718043 249.856143 
L 377.641733 276.157632 
L 380.565423 321.417398 
L 383.489113 248.561327 
L 386.412803 264.144933 
L 389.336494 347.991625 
L 392.260184 415.261403 
L 395.183874 391.737722 
L 398.107564 197.937679 
L 401.031254 72.240151 
L 403.954944 134.821123 
L 406.878634 229.713114 
L 409.802324 300.238124 
L 412.726014 345.528374 
L 415.649704 393.842709 
L 418.573395 353.985907 
L 421.497085 425.73614 
L 424.420775 450.009896 
L 427.344465 344.38182 
L 430.268155 347.551263 
L 433.191845 335.930759 
L 436.115535 323.290712 
L 439.039225 379.649572 
L 441.962915 400.52968 
L 444.886605 320.718569 
L 447.810296 376.359185 
L 450.733986 409.449735 
L 453.657676 318.315571 
L 456.581366 433.858128 
L 459.505056 382.257744 
L 462.428746 345.989112 
L 465.352436 355.43453 
L 468.276126 283.246995 
L 471.199816 292.465253 
L 474.123506 309.697568 
L 477.047197 387.625728 
L 479.970887 303.788201 
L 482.894577 258.525969 
L 485.818267 71.551477 
L 488.741957 71.463413 
L 491.665647 273.473693 
L 494.589337 367.611582 
L 497.513027 473.011012 
L 500.436717 409.575697 
L 503.360408 283.842948 
L 506.284098 326.119014 
L 509.207788 446.558357 
L 512.131478 453.700802 
L 515.055168 459.436949 
L 517.978858 323.563521 
L 520.902548 259.915476 
L 523.826238 71.453489 
L 526.749928 138.689763 
L 529.673618 366.16957 
L 532.597309 407.151379 
L 535.520999 307.105469 
L 538.444689 276.49629 
L 541.368379 375.216776 
L 544.292069 230.162798 
L 547.215759 267.702461 
L 550.139449 396.356751 
L 553.063139 304.484283 
L 555.986829 325.722044 
L 558.910519 309.136333 
L 561.83421 250.233944 
L 564.7579 208.565094 
L 567.68159 108.587491 
L 570.60528 349.223793 
L 573.52897 257.814197 
L 576.45266 124.234237 
L 579.37635 71.471444 
L 582.30004 226.278611 
L 585.22373 359.285977 
L 588.147421 260.339905 
L 591.071111 358.289958 
L 593.994801 360.702646 
L 596.918491 372.402432 
L 599.842181 408.545119 
L 602.765871 327.186531 
L 605.689561 319.133279 
L 608.613251 439.046279 
L 611.536941 416.822942 
L 614.460631 428.981052 
L 617.384322 496.589366 
L 620.308012 406.292097 
L 623.231702 363.058981 
L 626.155392 363.837896 
L 629.079082 246.929898 
L 632.002772 344.928416 
L 634.926462 373.304879 
L 637.850152 352.238222 
L 640.773842 206.69289 
L 643.697532 84.459145 
L 646.621223 203.364175 
L 649.544913 156.083147 
L 652.468603 71.453362 
L 655.392293 235.125365 
L 658.315983 82.49243 
L 661.239673 71.453047 
L 664.163363 97.321312 
L 667.087053 312.877715 
L 670.010743 406.653755 
L 672.934433 432.145966 
L 675.858124 500.131013 
L 678.781814 408.399043 
L 681.705504 381.76904 
L 684.629194 464.511731 
L 687.552884 368.365225 
L 690.476574 385.066807 
L 693.400264 351.321451 
L 696.323954 389.079423 
L 699.247644 380.710198 
L 705.095025 319.70298 
L 708.018715 314.26647 
L 713.866095 312.390637 
L 716.789785 314.177027 
L 719.713475 312.949441 
L 722.637165 311.389092 
L 725.560855 313.291807 
L 728.484545 312.217574 
L 728.484545 312.217574 
" style="fill:none;stroke:#c44e52;stroke-dasharray:4.5,1.875,2.25,1.875;stroke-dashoffset:0;stroke-width:1.5;"/>
   </g>
   <g id="line2d_5">
    <path clip-path="url(#pcf3b4e9d46)" d="M 134.975455 324.228367 
L 137.899145 325.584836 
L 140.822835 324.689874 
L 143.746525 325.766836 
L 146.670215 324.371277 
L 149.593905 328.325267 
L 152.517595 324.848753 
L 155.441285 326.641456 
L 158.364975 324.459706 
L 161.288665 325.668088 
L 164.212356 326.214964 
L 167.136046 325.279076 
L 170.059736 322.596728 
L 172.983426 333.450718 
L 175.907116 338.978087 
L 181.754496 385.227644 
L 184.678186 360.748312 
L 187.601876 303.843381 
L 190.525567 363.437149 
L 193.449257 314.945711 
L 196.372947 303.823093 
L 199.296637 380.289564 
L 202.220327 341.032458 
L 205.144017 211.093994 
L 208.067707 71.452922 
L 210.991397 376.70888 
L 213.915087 417.287545 
L 216.838777 403.032004 
L 219.762468 377.65862 
L 222.686158 320.957919 
L 225.609848 333.354733 
L 228.533538 406.983405 
L 231.457228 389.71172 
L 234.380918 266.846467 
L 237.304608 311.125484 
L 240.228298 323.249768 
L 243.151988 321.424236 
L 246.075678 357.736331 
L 248.999369 301.406051 
L 251.923059 272.380833 
L 254.846749 342.445699 
L 257.770439 401.501282 
L 260.694129 285.124087 
L 263.617819 321.478106 
L 266.541509 330.298065 
L 269.465199 390.123574 
L 272.388889 364.071195 
L 275.312579 323.382587 
L 278.23627 311.727733 
L 281.15996 328.476188 
L 284.08365 312.534352 
L 287.00734 346.999017 
L 289.93103 445.735839 
L 292.85472 379.718657 
L 295.77841 346.419802 
L 298.7021 393.380064 
L 301.62579 354.167277 
L 304.549481 317.252216 
L 307.473171 321.394154 
L 310.396861 397.878867 
L 313.320551 331.296689 
L 316.244241 309.041765 
L 319.167931 370.587114 
L 322.091621 71.452988 
L 325.015311 95.953597 
L 327.939001 72.840088 
L 330.862691 298.138751 
L 333.786382 317.488908 
L 336.710072 354.019715 
L 339.633762 364.899239 
L 342.557452 392.483984 
L 345.481142 329.384109 
L 348.404832 285.474936 
L 351.328522 315.039754 
L 354.252212 389.743832 
L 357.175902 480.449177 
L 360.099592 421.876631 
L 363.023283 373.211308 
L 365.946973 286.416193 
L 368.870663 228.892048 
L 371.794353 71.976708 
L 374.718043 313.279337 
L 377.641733 371.664391 
L 380.565423 376.761839 
L 383.489113 298.464449 
L 386.412803 259.528931 
L 389.336494 352.800175 
L 392.260184 419.89208 
L 395.183874 391.551699 
L 398.107564 164.180614 
L 401.031254 71.575852 
L 403.954944 166.067501 
L 406.878634 256.45535 
L 409.802324 316.132177 
L 412.726014 353.786643 
L 415.649704 424.568126 
L 418.573395 355.338772 
L 421.497085 421.760707 
L 424.420775 453.78304 
L 427.344465 361.626168 
L 430.268155 353.803329 
L 433.191845 342.69675 
L 436.115535 323.953302 
L 439.039225 378.316802 
L 441.962915 401.919013 
L 444.886605 323.995383 
L 447.810296 377.643648 
L 450.733986 410.221636 
L 453.657676 301.20663 
L 456.581366 413.848075 
L 459.505056 361.804128 
L 462.428746 326.208842 
L 465.352436 338.9472 
L 468.276126 287.520911 
L 471.199816 300.09656 
L 474.123506 332.579158 
L 477.047197 388.723817 
L 479.970887 305.874683 
L 482.894577 251.809282 
L 485.818267 71.505315 
L 488.741957 282.85919 
L 491.665647 408.687102 
L 494.589337 322.549226 
L 497.513027 406.991905 
L 500.436717 386.135059 
L 503.360408 374.589831 
L 506.284098 413.407573 
L 509.207788 229.150007 
L 512.131478 241.679167 
L 515.055168 197.471213 
L 517.978858 160.57895 
L 520.902548 71.457198 
L 523.826238 241.572479 
L 526.749928 383.289792 
L 529.673618 334.04765 
L 532.597309 306.826049 
L 535.520999 330.634974 
L 538.444689 376.369225 
L 541.368379 330.545898 
L 544.292069 130.629038 
L 550.139449 200.236306 
L 553.063139 172.41166 
L 555.986829 123.116025 
L 558.910519 126.259631 
L 561.83421 127.326186 
L 564.7579 172.103732 
L 567.68159 151.984909 
L 570.60528 225.827037 
L 573.52897 291.754479 
L 576.45266 247.244508 
L 579.37635 71.478521 
L 582.30004 153.678077 
L 585.22373 316.402607 
L 588.147421 259.19844 
L 591.071111 328.769705 
L 593.994801 356.827763 
L 596.918491 373.514199 
L 599.842181 385.013043 
L 602.765871 325.95982 
L 605.689561 320.606109 
L 608.613251 423.242981 
L 611.536941 418.317494 
L 614.460631 420.752901 
L 617.384322 483.316586 
L 620.308012 391.156461 
L 623.231702 357.737818 
L 626.155392 370.821584 
L 629.079082 253.267053 
L 632.002772 329.069658 
L 634.926462 346.052024 
L 637.850152 346.35808 
L 640.773842 181.640867 
L 643.697532 77.553403 
L 646.621223 195.609118 
L 649.544913 153.763008 
L 652.468603 71.453519 
L 655.392293 222.170184 
L 658.315983 97.608525 
L 661.239673 71.453218 
L 664.163363 91.934131 
L 667.087053 312.186617 
L 670.010743 404.896259 
L 672.934433 429.610761 
L 675.858124 494.156233 
L 678.781814 403.262416 
L 681.705504 379.628933 
L 684.629194 454.508663 
L 687.552884 363.813078 
L 690.476574 376.126534 
L 693.400264 348.111589 
L 696.323954 386.21058 
L 699.247644 380.866628 
L 702.171335 341.943055 
L 705.095025 316.319967 
L 708.018715 311.388847 
L 710.942405 310.932814 
L 713.866095 308.464106 
L 716.789785 310.864393 
L 719.713475 309.562546 
L 722.637165 306.338726 
L 725.560855 309.990822 
L 728.484545 306.378673 
L 728.484545 306.378673 
" style="fill:none;stroke:#8172b3;stroke-dasharray:7.5,1.5,1.5,1.5;stroke-dashoffset:0;stroke-width:1.5;"/>
   </g>
   <g id="line2d_6"/>
   <g id="line2d_7"/>
   <g id="line2d_8"/>
   <g id="line2d_9"/>
   <g id="line2d_10"/>
   <g id="patch_3">
    <path d="M 105.3 529.9416 
L 105.3 71.4528 
" style="fill:none;stroke:#262626;stroke-linecap:square;stroke-linejoin:miter;stroke-width:1.25;"/>
   </g>
   <g id="patch_4">
    <path d="M 758.16 529.9416 
L 758.16 71.4528 
" style="fill:none;stroke:#262626;stroke-linecap:square;stroke-linejoin:miter;stroke-width:1.25;"/>
   </g>
   <g id="patch_5">
    <path d="M 105.3 529.9416 
L 758.16 529.9416 
" style="fill:none;stroke:#262626;stroke-linecap:square;stroke-linejoin:miter;stroke-width:1.25;"/>
   </g>
   <g id="patch_6">
    <path d="M 105.3 71.4528 
L 758.16 71.4528 
" style="fill:none;stroke:#262626;stroke-linecap:square;stroke-linejoin:miter;stroke-width:1.25;"/>
   </g>
   <g id="text_16">
    <!-- Activations for &gt;A&lt; -->
    <g style="fill:#262626;" transform="translate(381.372187 65.4528)scale(0.12 -0.12)">
     <defs>
      <path d="M -9 0 
L 1750 4581 
L 2403 4581 
L 4278 0 
L 3588 0 
L 3053 1388 
L 1138 1388 
L 634 0 
L -9 0 
z
M 1313 1881 
L 2866 1881 
L 2388 3150 
Q 2169 3728 2063 4100 
Q 1975 3659 1816 3225 
L 1313 1881 
z
" id="ArialMT-41" transform="scale(0.015625)"/>
      <path d="M 2588 1216 
L 3141 1144 
Q 3050 572 2676 248 
Q 2303 -75 1759 -75 
Q 1078 -75 664 370 
Q 250 816 250 1647 
Q 250 2184 428 2587 
Q 606 2991 970 3192 
Q 1334 3394 1763 3394 
Q 2303 3394 2647 3120 
Q 2991 2847 3088 2344 
L 2541 2259 
Q 2463 2594 2264 2762 
Q 2066 2931 1784 2931 
Q 1359 2931 1093 2626 
Q 828 2322 828 1663 
Q 828 994 1084 691 
Q 1341 388 1753 388 
Q 2084 388 2306 591 
Q 2528 794 2588 1216 
z
" id="ArialMT-63" transform="scale(0.015625)"/>
      <path d="M 1650 503 
L 1731 6 
Q 1494 -44 1306 -44 
Q 1000 -44 831 53 
Q 663 150 594 308 
Q 525 466 525 972 
L 525 2881 
L 113 2881 
L 113 3319 
L 525 3319 
L 525 4141 
L 1084 4478 
L 1084 3319 
L 1650 3319 
L 1650 2881 
L 1084 2881 
L 1084 941 
Q 1084 700 1114 631 
Q 1144 563 1211 522 
Q 1278 481 1403 481 
Q 1497 481 1650 503 
z
" id="ArialMT-74" transform="scale(0.015625)"/>
      <path d="M 425 3934 
L 425 4581 
L 988 4581 
L 988 3934 
L 425 3934 
z
M 425 0 
L 425 3319 
L 988 3319 
L 988 0 
L 425 0 
z
" id="ArialMT-69" transform="scale(0.015625)"/>
      <path d="M 1344 0 
L 81 3319 
L 675 3319 
L 1388 1331 
Q 1503 1009 1600 663 
Q 1675 925 1809 1294 
L 2547 3319 
L 3125 3319 
L 1869 0 
L 1344 0 
z
" id="ArialMT-76" transform="scale(0.015625)"/>
      <path d="M 2588 409 
Q 2275 144 1986 34 
Q 1697 -75 1366 -75 
Q 819 -75 525 192 
Q 231 459 231 875 
Q 231 1119 342 1320 
Q 453 1522 633 1644 
Q 813 1766 1038 1828 
Q 1203 1872 1538 1913 
Q 2219 1994 2541 2106 
Q 2544 2222 2544 2253 
Q 2544 2597 2384 2738 
Q 2169 2928 1744 2928 
Q 1347 2928 1158 2789 
Q 969 2650 878 2297 
L 328 2372 
Q 403 2725 575 2942 
Q 747 3159 1072 3276 
Q 1397 3394 1825 3394 
Q 2250 3394 2515 3294 
Q 2781 3194 2906 3042 
Q 3031 2891 3081 2659 
Q 3109 2516 3109 2141 
L 3109 1391 
Q 3109 606 3145 398 
Q 3181 191 3288 0 
L 2700 0 
Q 2613 175 2588 409 
z
M 2541 1666 
Q 2234 1541 1622 1453 
Q 1275 1403 1131 1340 
Q 988 1278 909 1158 
Q 831 1038 831 891 
Q 831 666 1001 516 
Q 1172 366 1500 366 
Q 1825 366 2078 508 
Q 2331 650 2450 897 
Q 2541 1088 2541 1459 
L 2541 1666 
z
" id="ArialMT-61" transform="scale(0.015625)"/>
      <path d="M 213 1659 
Q 213 2581 725 3025 
Q 1153 3394 1769 3394 
Q 2453 3394 2887 2945 
Q 3322 2497 3322 1706 
Q 3322 1066 3130 698 
Q 2938 331 2570 128 
Q 2203 -75 1769 -75 
Q 1072 -75 642 372 
Q 213 819 213 1659 
z
M 791 1659 
Q 791 1022 1069 705 
Q 1347 388 1769 388 
Q 2188 388 2466 706 
Q 2744 1025 2744 1678 
Q 2744 2294 2464 2611 
Q 2184 2928 1769 2928 
Q 1347 2928 1069 2612 
Q 791 2297 791 1659 
z
" id="ArialMT-6f" transform="scale(0.015625)"/>
      <path d="M 422 0 
L 422 3319 
L 928 3319 
L 928 2847 
Q 1294 3394 1984 3394 
Q 2284 3394 2536 3286 
Q 2788 3178 2913 3003 
Q 3038 2828 3088 2588 
Q 3119 2431 3119 2041 
L 3119 0 
L 2556 0 
L 2556 2019 
Q 2556 2363 2490 2533 
Q 2425 2703 2258 2804 
Q 2091 2906 1866 2906 
Q 1506 2906 1245 2678 
Q 984 2450 984 1813 
L 984 0 
L 422 0 
z
" id="ArialMT-6e" transform="scale(0.015625)"/>
      <path d="M 197 991 
L 753 1078 
Q 800 744 1014 566 
Q 1228 388 1613 388 
Q 2000 388 2187 545 
Q 2375 703 2375 916 
Q 2375 1106 2209 1216 
Q 2094 1291 1634 1406 
Q 1016 1563 777 1677 
Q 538 1791 414 1992 
Q 291 2194 291 2438 
Q 291 2659 392 2848 
Q 494 3038 669 3163 
Q 800 3259 1026 3326 
Q 1253 3394 1513 3394 
Q 1903 3394 2198 3281 
Q 2494 3169 2634 2976 
Q 2775 2784 2828 2463 
L 2278 2388 
Q 2241 2644 2061 2787 
Q 1881 2931 1553 2931 
Q 1166 2931 1000 2803 
Q 834 2675 834 2503 
Q 834 2394 903 2306 
Q 972 2216 1119 2156 
Q 1203 2125 1616 2013 
Q 2213 1853 2448 1751 
Q 2684 1650 2818 1456 
Q 2953 1263 2953 975 
Q 2953 694 2789 445 
Q 2625 197 2315 61 
Q 2006 -75 1616 -75 
Q 969 -75 630 194 
Q 291 463 197 991 
z
" id="ArialMT-73" transform="scale(0.015625)"/>
      <path id="ArialMT-20" transform="scale(0.015625)"/>
      <path d="M 556 0 
L 556 2881 
L 59 2881 
L 59 3319 
L 556 3319 
L 556 3672 
Q 556 4006 616 4169 
Q 697 4388 901 4523 
Q 1106 4659 1475 4659 
Q 1713 4659 2000 4603 
L 1916 4113 
Q 1741 4144 1584 4144 
Q 1328 4144 1222 4034 
Q 1116 3925 1116 3625 
L 1116 3319 
L 1763 3319 
L 1763 2881 
L 1116 2881 
L 1116 0 
L 556 0 
z
" id="ArialMT-66" transform="scale(0.015625)"/>
      <path d="M 416 0 
L 416 3319 
L 922 3319 
L 922 2816 
Q 1116 3169 1280 3281 
Q 1444 3394 1641 3394 
Q 1925 3394 2219 3213 
L 2025 2691 
Q 1819 2813 1613 2813 
Q 1428 2813 1281 2702 
Q 1134 2591 1072 2394 
Q 978 2094 978 1738 
L 978 0 
L 416 0 
z
" id="ArialMT-72" transform="scale(0.015625)"/>
      <path d="M 3384 2003 
L 350 706 
L 350 1266 
L 2753 2263 
L 350 3250 
L 350 3809 
L 3384 2528 
L 3384 2003 
z
" id="ArialMT-3e" transform="scale(0.015625)"/>
      <path d="M 350 2003 
L 350 2528 
L 3384 3809 
L 3384 3250 
L 978 2263 
L 3384 1266 
L 3384 706 
L 350 2003 
z
" id="ArialMT-3c" transform="scale(0.015625)"/>
     </defs>
     <use xlink:href="#ArialMT-41"/>
     <use x="66.699219" xlink:href="#ArialMT-63"/>
     <use x="116.699219" xlink:href="#ArialMT-74"/>
     <use x="144.482422" xlink:href="#ArialMT-69"/>
     <use x="166.699219" xlink:href="#ArialMT-76"/>
     <use x="216.699219" xlink:href="#ArialMT-61"/>
     <use x="272.314453" xlink:href="#ArialMT-74"/>
     <use x="300.097656" xlink:href="#ArialMT-69"/>
     <use x="322.314453" xlink:href="#ArialMT-6f"/>
     <use x="377.929688" xlink:href="#ArialMT-6e"/>
     <use x="433.544922" xlink:href="#ArialMT-73"/>
     <use x="483.544922" xlink:href="#ArialMT-20"/>
     <use x="511.328125" xlink:href="#ArialMT-66"/>
     <use x="539.111328" xlink:href="#ArialMT-6f"/>
     <use x="594.726562" xlink:href="#ArialMT-72"/>
     <use x="628.027344" xlink:href="#ArialMT-20"/>
     <use x="655.810547" xlink:href="#ArialMT-3e"/>
     <use x="714.208984" xlink:href="#ArialMT-41"/>
     <use x="780.908203" xlink:href="#ArialMT-3c"/>
    </g>
   </g>
   <g id="legend_1">
    <g id="patch_7">
     <path d="M 113 524.4416 
L 223.415938 524.4416 
Q 225.615938 524.4416 225.615938 522.2416 
L 225.615938 445.080037 
Q 225.615938 442.880037 223.415938 442.880037 
L 113 442.880037 
Q 110.8 442.880037 110.8 445.080037 
L 110.8 522.2416 
Q 110.8 524.4416 113 524.4416 
z
" style="fill:#ffffff;opacity:0.8;stroke:#cccccc;stroke-linejoin:miter;"/>
    </g>
    <g id="line2d_11">
     <path d="M 115.2 451.303631 
L 137.2 451.303631 
" style="fill:none;stroke:#4c72b0;stroke-linecap:round;stroke-width:1.5;"/>
    </g>
    <g id="line2d_12"/>
    <g id="text_17">
     <!-- regular -->
     <g style="fill:#262626;" transform="translate(146 455.153631)scale(0.11 -0.11)">
      <defs>
       <path d="M 2694 1069 
L 3275 997 
Q 3138 488 2766 206 
Q 2394 -75 1816 -75 
Q 1088 -75 661 373 
Q 234 822 234 1631 
Q 234 2469 665 2931 
Q 1097 3394 1784 3394 
Q 2450 3394 2872 2941 
Q 3294 2488 3294 1666 
Q 3294 1616 3291 1516 
L 816 1516 
Q 847 969 1125 678 
Q 1403 388 1819 388 
Q 2128 388 2347 550 
Q 2566 713 2694 1069 
z
M 847 1978 
L 2700 1978 
Q 2663 2397 2488 2606 
Q 2219 2931 1791 2931 
Q 1403 2931 1139 2672 
Q 875 2413 847 1978 
z
" id="ArialMT-65" transform="scale(0.015625)"/>
       <path d="M 319 -275 
L 866 -356 
Q 900 -609 1056 -725 
Q 1266 -881 1628 -881 
Q 2019 -881 2231 -725 
Q 2444 -569 2519 -288 
Q 2563 -116 2559 434 
Q 2191 0 1641 0 
Q 956 0 581 494 
Q 206 988 206 1678 
Q 206 2153 378 2554 
Q 550 2956 876 3175 
Q 1203 3394 1644 3394 
Q 2231 3394 2613 2919 
L 2613 3319 
L 3131 3319 
L 3131 450 
Q 3131 -325 2973 -648 
Q 2816 -972 2473 -1159 
Q 2131 -1347 1631 -1347 
Q 1038 -1347 672 -1080 
Q 306 -813 319 -275 
z
M 784 1719 
Q 784 1066 1043 766 
Q 1303 466 1694 466 
Q 2081 466 2343 764 
Q 2606 1063 2606 1700 
Q 2606 2309 2336 2618 
Q 2066 2928 1684 2928 
Q 1309 2928 1046 2623 
Q 784 2319 784 1719 
z
" id="ArialMT-67" transform="scale(0.015625)"/>
       <path d="M 2597 0 
L 2597 488 
Q 2209 -75 1544 -75 
Q 1250 -75 995 37 
Q 741 150 617 320 
Q 494 491 444 738 
Q 409 903 409 1263 
L 409 3319 
L 972 3319 
L 972 1478 
Q 972 1038 1006 884 
Q 1059 663 1231 536 
Q 1403 409 1656 409 
Q 1909 409 2131 539 
Q 2353 669 2445 892 
Q 2538 1116 2538 1541 
L 2538 3319 
L 3100 3319 
L 3100 0 
L 2597 0 
z
" id="ArialMT-75" transform="scale(0.015625)"/>
       <path d="M 409 0 
L 409 4581 
L 972 4581 
L 972 0 
L 409 0 
z
" id="ArialMT-6c" transform="scale(0.015625)"/>
      </defs>
      <use xlink:href="#ArialMT-72"/>
      <use x="33.300781" xlink:href="#ArialMT-65"/>
      <use x="88.916016" xlink:href="#ArialMT-67"/>
      <use x="144.53125" xlink:href="#ArialMT-75"/>
      <use x="200.146484" xlink:href="#ArialMT-6c"/>
      <use x="222.363281" xlink:href="#ArialMT-61"/>
      <use x="277.978516" xlink:href="#ArialMT-72"/>
     </g>
    </g>
    <g id="line2d_13">
     <path d="M 115.2 467.025037 
L 137.2 467.025037 
" style="fill:none;stroke:#dd8452;stroke-dasharray:6,2.25;stroke-dashoffset:0;stroke-width:1.5;"/>
    </g>
    <g id="line2d_14"/>
    <g id="text_18">
     <!-- splitted_3s -->
     <g style="fill:#262626;" transform="translate(146 470.875037)scale(0.11 -0.11)">
      <defs>
       <path d="M 422 -1272 
L 422 3319 
L 934 3319 
L 934 2888 
Q 1116 3141 1344 3267 
Q 1572 3394 1897 3394 
Q 2322 3394 2647 3175 
Q 2972 2956 3137 2557 
Q 3303 2159 3303 1684 
Q 3303 1175 3120 767 
Q 2938 359 2589 142 
Q 2241 -75 1856 -75 
Q 1575 -75 1351 44 
Q 1128 163 984 344 
L 984 -1272 
L 422 -1272 
z
M 931 1641 
Q 931 1000 1190 694 
Q 1450 388 1819 388 
Q 2194 388 2461 705 
Q 2728 1022 2728 1688 
Q 2728 2322 2467 2637 
Q 2206 2953 1844 2953 
Q 1484 2953 1207 2617 
Q 931 2281 931 1641 
z
" id="ArialMT-70" transform="scale(0.015625)"/>
       <path d="M 2575 0 
L 2575 419 
Q 2259 -75 1647 -75 
Q 1250 -75 917 144 
Q 584 363 401 755 
Q 219 1147 219 1656 
Q 219 2153 384 2558 
Q 550 2963 881 3178 
Q 1213 3394 1622 3394 
Q 1922 3394 2156 3267 
Q 2391 3141 2538 2938 
L 2538 4581 
L 3097 4581 
L 3097 0 
L 2575 0 
z
M 797 1656 
Q 797 1019 1065 703 
Q 1334 388 1700 388 
Q 2069 388 2326 689 
Q 2584 991 2584 1609 
Q 2584 2291 2321 2609 
Q 2059 2928 1675 2928 
Q 1300 2928 1048 2622 
Q 797 2316 797 1656 
z
" id="ArialMT-64" transform="scale(0.015625)"/>
       <path d="M -97 -1272 
L -97 -866 
L 3631 -866 
L 3631 -1272 
L -97 -1272 
z
" id="ArialMT-5f" transform="scale(0.015625)"/>
       <path d="M 269 1209 
L 831 1284 
Q 928 806 1161 595 
Q 1394 384 1728 384 
Q 2125 384 2398 659 
Q 2672 934 2672 1341 
Q 2672 1728 2419 1979 
Q 2166 2231 1775 2231 
Q 1616 2231 1378 2169 
L 1441 2663 
Q 1497 2656 1531 2656 
Q 1891 2656 2178 2843 
Q 2466 3031 2466 3422 
Q 2466 3731 2256 3934 
Q 2047 4138 1716 4138 
Q 1388 4138 1169 3931 
Q 950 3725 888 3313 
L 325 3413 
Q 428 3978 793 4289 
Q 1159 4600 1703 4600 
Q 2078 4600 2393 4439 
Q 2709 4278 2876 4000 
Q 3044 3722 3044 3409 
Q 3044 3113 2884 2869 
Q 2725 2625 2413 2481 
Q 2819 2388 3044 2092 
Q 3269 1797 3269 1353 
Q 3269 753 2831 336 
Q 2394 -81 1725 -81 
Q 1122 -81 723 278 
Q 325 638 269 1209 
z
" id="ArialMT-33" transform="scale(0.015625)"/>
      </defs>
      <use xlink:href="#ArialMT-73"/>
      <use x="50" xlink:href="#ArialMT-70"/>
      <use x="105.615234" xlink:href="#ArialMT-6c"/>
      <use x="127.832031" xlink:href="#ArialMT-69"/>
      <use x="150.048828" xlink:href="#ArialMT-74"/>
      <use x="177.832031" xlink:href="#ArialMT-74"/>
      <use x="205.615234" xlink:href="#ArialMT-65"/>
      <use x="261.230469" xlink:href="#ArialMT-64"/>
      <use x="316.845703" xlink:href="#ArialMT-5f"/>
      <use x="372.460938" xlink:href="#ArialMT-33"/>
      <use x="428.076172" xlink:href="#ArialMT-73"/>
     </g>
    </g>
    <g id="line2d_15">
     <path d="M 115.2 482.617537 
L 137.2 482.617537 
" style="fill:none;stroke:#55a868;stroke-dasharray:1.5,1.5;stroke-dashoffset:0;stroke-width:1.5;"/>
    </g>
    <g id="line2d_16"/>
    <g id="text_19">
     <!-- splitted_1s -->
     <g style="fill:#262626;" transform="translate(146 486.467537)scale(0.11 -0.11)">
      <use xlink:href="#ArialMT-73"/>
      <use x="50" xlink:href="#ArialMT-70"/>
      <use x="105.615234" xlink:href="#ArialMT-6c"/>
      <use x="127.832031" xlink:href="#ArialMT-69"/>
      <use x="150.048828" xlink:href="#ArialMT-74"/>
      <use x="177.832031" xlink:href="#ArialMT-74"/>
      <use x="205.615234" xlink:href="#ArialMT-65"/>
      <use x="261.230469" xlink:href="#ArialMT-64"/>
      <use x="316.845703" xlink:href="#ArialMT-5f"/>
      <use x="372.460938" xlink:href="#ArialMT-31"/>
      <use x="428.076172" xlink:href="#ArialMT-73"/>
     </g>
    </g>
    <g id="line2d_17">
     <path d="M 115.2 498.311444 
L 137.2 498.311444 
" style="fill:none;stroke:#c44e52;stroke-dasharray:4.5,1.875,2.25,1.875;stroke-dashoffset:0;stroke-width:1.5;"/>
    </g>
    <g id="line2d_18"/>
    <g id="text_20">
     <!-- overlap_1f_3s -->
     <g style="fill:#262626;" transform="translate(146 502.161444)scale(0.11 -0.11)">
      <use xlink:href="#ArialMT-6f"/>
      <use x="55.615234" xlink:href="#ArialMT-76"/>
      <use x="105.615234" xlink:href="#ArialMT-65"/>
      <use x="161.230469" xlink:href="#ArialMT-72"/>
      <use x="194.53125" xlink:href="#ArialMT-6c"/>
      <use x="216.748047" xlink:href="#ArialMT-61"/>
      <use x="272.363281" xlink:href="#ArialMT-70"/>
      <use x="327.978516" xlink:href="#ArialMT-5f"/>
      <use x="383.59375" xlink:href="#ArialMT-31"/>
      <use x="439.208984" xlink:href="#ArialMT-66"/>
      <use x="466.992188" xlink:href="#ArialMT-5f"/>
      <use x="522.607422" xlink:href="#ArialMT-33"/>
      <use x="578.222656" xlink:href="#ArialMT-73"/>
     </g>
    </g>
    <g id="line2d_19">
     <path d="M 115.2 514.00535 
L 137.2 514.00535 
" style="fill:none;stroke:#8172b3;stroke-dasharray:7.5,1.5,1.5,1.5;stroke-dashoffset:0;stroke-width:1.5;"/>
    </g>
    <g id="line2d_20"/>
    <g id="text_21">
     <!-- overlap_10f_3s -->
     <g style="fill:#262626;" transform="translate(146 517.85535)scale(0.11 -0.11)">
      <use xlink:href="#ArialMT-6f"/>
      <use x="55.615234" xlink:href="#ArialMT-76"/>
      <use x="105.615234" xlink:href="#ArialMT-65"/>
      <use x="161.230469" xlink:href="#ArialMT-72"/>
      <use x="194.53125" xlink:href="#ArialMT-6c"/>
      <use x="216.748047" xlink:href="#ArialMT-61"/>
      <use x="272.363281" xlink:href="#ArialMT-70"/>
      <use x="327.978516" xlink:href="#ArialMT-5f"/>
      <use x="383.59375" xlink:href="#ArialMT-31"/>
      <use x="439.208984" xlink:href="#ArialMT-30"/>
      <use x="494.824219" xlink:href="#ArialMT-66"/>
      <use x="522.607422" xlink:href="#ArialMT-5f"/>
      <use x="578.222656" xlink:href="#ArialMT-33"/>
      <use x="633.837891" xlink:href="#ArialMT-73"/>
     </g>
    </g>
   </g>
  </g>
 </g>
 <defs>
  <clipPath id="pcf3b4e9d46">
   <rect height="458.4888" width="652.86" x="105.3" y="71.4528"/>
  </clipPath>
 </defs>
</svg>
