<?xml version="1.0" encoding="utf-8" standalone="no"?>
<!DOCTYPE svg PUBLIC "-//W3C//DTD SVG 1.1//EN"
  "http://www.w3.org/Graphics/SVG/1.1/DTD/svg11.dtd">
<svg height="595.44pt" version="1.1" viewBox="0 0 842.4 595.44" width="842.4pt" xmlns="http://www.w3.org/2000/svg" xmlns:xlink="http://www.w3.org/1999/xlink">
 <metadata>
  <rdf:RDF xmlns:cc="http://creativecommons.org/ns#" xmlns:dc="http://purl.org/dc/elements/1.1/" xmlns:rdf="http://www.w3.org/1999/02/22-rdf-syntax-ns#">
   <cc:Work>
    <dc:type rdf:resource="http://purl.org/dc/dcmitype/StillImage"/>
    <dc:date>2021-06-01T00:54:05.815838</dc:date>
    <dc:format>image/svg+xml</dc:format>
    <dc:creator>
     <cc:Agent>
      <dc:title>Matplotlib v3.4.1, https://matplotlib.org/</dc:title>
     </cc:Agent>
    </dc:creator>
   </cc:Work>
  </rdf:RDF>
 </metadata>
 <defs>
  <style type="text/css">*{stroke-linecap:butt;stroke-linejoin:round;}</style>
 </defs>
 <g id="figure_1">
  <g id="patch_1">
   <path d="M 0 595.44 
L 842.4 595.44 
L 842.4 0 
L 0 0 
z
" style="fill:#ffffff;"/>
  </g>
  <g id="axes_1">
   <g id="patch_2">
    <path d="M 105.3 529.9416 
L 758.16 529.9416 
L 758.16 71.4528 
L 105.3 71.4528 
z
" style="fill:#ffffff;"/>
   </g>
   <g id="matplotlib.axis_1">
    <g id="xtick_1">
     <g id="text_1">
      <!-- 0 -->
      <g style="fill:#262626;" transform="translate(131.916939 547.315194)scale(0.11 -0.11)">
       <defs>
        <path d="M 266 2259 
Q 266 3072 433 3567 
Q 600 4063 929 4331 
Q 1259 4600 1759 4600 
Q 2128 4600 2406 4451 
Q 2684 4303 2865 4023 
Q 3047 3744 3150 3342 
Q 3253 2941 3253 2259 
Q 3253 1453 3087 958 
Q 2922 463 2592 192 
Q 2263 -78 1759 -78 
Q 1097 -78 719 397 
Q 266 969 266 2259 
z
M 844 2259 
Q 844 1131 1108 757 
Q 1372 384 1759 384 
Q 2147 384 2411 759 
Q 2675 1134 2675 2259 
Q 2675 3391 2411 3762 
Q 2147 4134 1753 4134 
Q 1366 4134 1134 3806 
Q 844 3388 844 2259 
z
" id="ArialMT-30" transform="scale(0.015625)"/>
       </defs>
       <use xlink:href="#ArialMT-30"/>
      </g>
     </g>
    </g>
    <g id="xtick_2">
     <g id="text_2">
      <!-- 25 -->
      <g style="fill:#262626;" transform="translate(201.950676 547.315194)scale(0.11 -0.11)">
       <defs>
        <path d="M 3222 541 
L 3222 0 
L 194 0 
Q 188 203 259 391 
Q 375 700 629 1000 
Q 884 1300 1366 1694 
Q 2113 2306 2375 2664 
Q 2638 3022 2638 3341 
Q 2638 3675 2398 3904 
Q 2159 4134 1775 4134 
Q 1369 4134 1125 3890 
Q 881 3647 878 3216 
L 300 3275 
Q 359 3922 746 4261 
Q 1134 4600 1788 4600 
Q 2447 4600 2831 4234 
Q 3216 3869 3216 3328 
Q 3216 3053 3103 2787 
Q 2991 2522 2730 2228 
Q 2469 1934 1863 1422 
Q 1356 997 1212 845 
Q 1069 694 975 541 
L 3222 541 
z
" id="ArialMT-32" transform="scale(0.015625)"/>
        <path d="M 266 1200 
L 856 1250 
Q 922 819 1161 601 
Q 1400 384 1738 384 
Q 2144 384 2425 690 
Q 2706 997 2706 1503 
Q 2706 1984 2436 2262 
Q 2166 2541 1728 2541 
Q 1456 2541 1237 2417 
Q 1019 2294 894 2097 
L 366 2166 
L 809 4519 
L 3088 4519 
L 3088 3981 
L 1259 3981 
L 1013 2750 
Q 1425 3038 1878 3038 
Q 2478 3038 2890 2622 
Q 3303 2206 3303 1553 
Q 3303 931 2941 478 
Q 2500 -78 1738 -78 
Q 1113 -78 717 272 
Q 322 622 266 1200 
z
" id="ArialMT-35" transform="scale(0.015625)"/>
       </defs>
       <use xlink:href="#ArialMT-32"/>
       <use x="55.615234" xlink:href="#ArialMT-35"/>
      </g>
     </g>
    </g>
    <g id="xtick_3">
     <g id="text_3">
      <!-- 50 -->
      <g style="fill:#262626;" transform="translate(275.042928 547.315194)scale(0.11 -0.11)">
       <use xlink:href="#ArialMT-35"/>
       <use x="55.615234" xlink:href="#ArialMT-30"/>
      </g>
     </g>
    </g>
    <g id="xtick_4">
     <g id="text_4">
      <!-- 75 -->
      <g style="fill:#262626;" transform="translate(348.135181 547.315194)scale(0.11 -0.11)">
       <defs>
        <path d="M 303 3981 
L 303 4522 
L 3269 4522 
L 3269 4084 
Q 2831 3619 2401 2847 
Q 1972 2075 1738 1259 
Q 1569 684 1522 0 
L 944 0 
Q 953 541 1156 1306 
Q 1359 2072 1739 2783 
Q 2119 3494 2547 3981 
L 303 3981 
z
" id="ArialMT-37" transform="scale(0.015625)"/>
       </defs>
       <use xlink:href="#ArialMT-37"/>
       <use x="55.615234" xlink:href="#ArialMT-35"/>
      </g>
     </g>
    </g>
    <g id="xtick_5">
     <g id="text_5">
      <!-- 100 -->
      <g style="fill:#262626;" transform="translate(418.168918 547.315194)scale(0.11 -0.11)">
       <defs>
        <path d="M 2384 0 
L 1822 0 
L 1822 3584 
Q 1619 3391 1289 3197 
Q 959 3003 697 2906 
L 697 3450 
Q 1169 3672 1522 3987 
Q 1875 4303 2022 4600 
L 2384 4600 
L 2384 0 
z
" id="ArialMT-31" transform="scale(0.015625)"/>
       </defs>
       <use xlink:href="#ArialMT-31"/>
       <use x="55.615234" xlink:href="#ArialMT-30"/>
       <use x="111.230469" xlink:href="#ArialMT-30"/>
      </g>
     </g>
    </g>
    <g id="xtick_6">
     <g id="text_6">
      <!-- 125 -->
      <g style="fill:#262626;" transform="translate(491.261171 547.315194)scale(0.11 -0.11)">
       <use xlink:href="#ArialMT-31"/>
       <use x="55.615234" xlink:href="#ArialMT-32"/>
       <use x="111.230469" xlink:href="#ArialMT-35"/>
      </g>
     </g>
    </g>
    <g id="xtick_7">
     <g id="text_7">
      <!-- 150 -->
      <g style="fill:#262626;" transform="translate(564.353423 547.315194)scale(0.11 -0.11)">
       <use xlink:href="#ArialMT-31"/>
       <use x="55.615234" xlink:href="#ArialMT-35"/>
       <use x="111.230469" xlink:href="#ArialMT-30"/>
      </g>
     </g>
    </g>
    <g id="xtick_8">
     <g id="text_8">
      <!-- 175 -->
      <g style="fill:#262626;" transform="translate(637.445676 547.315194)scale(0.11 -0.11)">
       <use xlink:href="#ArialMT-31"/>
       <use x="55.615234" xlink:href="#ArialMT-37"/>
       <use x="111.230469" xlink:href="#ArialMT-35"/>
      </g>
     </g>
    </g>
    <g id="xtick_9">
     <g id="text_9">
      <!-- 200 -->
      <g style="fill:#262626;" transform="translate(710.537928 547.315194)scale(0.11 -0.11)">
       <use xlink:href="#ArialMT-32"/>
       <use x="55.615234" xlink:href="#ArialMT-30"/>
       <use x="111.230469" xlink:href="#ArialMT-30"/>
      </g>
     </g>
    </g>
   </g>
   <g id="matplotlib.axis_2">
    <g id="ytick_1">
     <g id="text_10">
      <!-- −25 -->
      <g style="fill:#262626;" transform="translate(77.14125 533.878397)scale(0.11 -0.11)">
       <defs>
        <path d="M 3381 1997 
L 356 1997 
L 356 2522 
L 3381 2522 
L 3381 1997 
z
" id="ArialMT-2212" transform="scale(0.015625)"/>
       </defs>
       <use xlink:href="#ArialMT-2212"/>
       <use x="58.398438" xlink:href="#ArialMT-32"/>
       <use x="114.013672" xlink:href="#ArialMT-35"/>
      </g>
     </g>
    </g>
    <g id="ytick_2">
     <g id="text_11">
      <!-- −20 -->
      <g style="fill:#262626;" transform="translate(77.14125 442.180637)scale(0.11 -0.11)">
       <use xlink:href="#ArialMT-2212"/>
       <use x="58.398438" xlink:href="#ArialMT-32"/>
       <use x="114.013672" xlink:href="#ArialMT-30"/>
      </g>
     </g>
    </g>
    <g id="ytick_3">
     <g id="text_12">
      <!-- −15 -->
      <g style="fill:#262626;" transform="translate(77.14125 350.482877)scale(0.11 -0.11)">
       <use xlink:href="#ArialMT-2212"/>
       <use x="58.398438" xlink:href="#ArialMT-31"/>
       <use x="114.013672" xlink:href="#ArialMT-35"/>
      </g>
     </g>
    </g>
    <g id="ytick_4">
     <g id="text_13">
      <!-- −10 -->
      <g style="fill:#262626;" transform="translate(77.14125 258.785117)scale(0.11 -0.11)">
       <use xlink:href="#ArialMT-2212"/>
       <use x="58.398438" xlink:href="#ArialMT-31"/>
       <use x="114.013672" xlink:href="#ArialMT-30"/>
      </g>
     </g>
    </g>
    <g id="ytick_5">
     <g id="text_14">
      <!-- −5 -->
      <g style="fill:#262626;" transform="translate(83.258281 167.087357)scale(0.11 -0.11)">
       <use xlink:href="#ArialMT-2212"/>
       <use x="58.398438" xlink:href="#ArialMT-35"/>
      </g>
     </g>
    </g>
    <g id="ytick_6">
     <g id="text_15">
      <!-- 0 -->
      <g style="fill:#262626;" transform="translate(89.682969 75.389597)scale(0.11 -0.11)">
       <use xlink:href="#ArialMT-30"/>
      </g>
     </g>
    </g>
   </g>
   <g id="line2d_1">
    <path clip-path="url(#p9129c2919b)" d="M 134.975455 348.894352 
L 137.899145 349.078976 
L 140.822835 354.258697 
L 143.746525 353.168199 
L 146.670215 350.164141 
L 149.593905 359.49318 
L 152.517595 357.737853 
L 155.441285 364.719302 
L 158.364975 366.432234 
L 161.288665 371.563124 
L 164.212356 377.317775 
L 167.136046 381.396539 
L 170.059736 397.496187 
L 172.983426 410.552302 
L 175.907116 422.704885 
L 178.830806 446.478288 
L 181.754496 468.740523 
L 184.678186 422.550729 
L 187.601876 363.196452 
L 190.525567 372.424084 
L 193.449257 358.727382 
L 196.372947 384.099437 
L 199.296637 436.86745 
L 202.220327 398.823115 
L 205.144017 368.74766 
L 208.067707 354.071188 
L 210.991397 390.700917 
L 213.915087 399.793773 
L 216.838777 427.615786 
L 219.762468 444.321216 
L 222.686158 385.685357 
L 225.609848 387.66515 
L 228.533538 495.302455 
L 231.457228 434.585675 
L 234.380918 343.635191 
L 237.304608 382.132586 
L 240.228298 398.644123 
L 246.075678 351.123447 
L 248.999369 277.758051 
L 251.923059 348.308333 
L 254.846749 353.207061 
L 257.770439 409.686234 
L 260.694129 339.571609 
L 263.617819 436.067145 
L 266.541509 415.983634 
L 269.465199 457.864706 
L 272.388889 470.807102 
L 275.312579 486.088464 
L 278.23627 481.068811 
L 281.15996 467.596295 
L 284.08365 426.547464 
L 287.00734 421.864248 
L 289.93103 443.12172 
L 292.85472 359.73302 
L 295.77841 370.351944 
L 298.7021 419.425238 
L 301.62579 390.65331 
L 304.549481 391.078561 
L 307.473171 391.709563 
L 310.396861 484.938954 
L 313.320551 387.575217 
L 316.244241 380.57598 
L 319.167931 469.211528 
L 322.091621 378.969002 
L 325.015311 293.152539 
L 327.939001 329.622288 
L 330.862691 426.872463 
L 333.786382 351.865651 
L 336.710072 332.365448 
L 339.633762 374.884677 
L 342.557452 443.46991 
L 345.481142 422.352183 
L 348.404832 417.898539 
L 351.328522 352.780638 
L 354.252212 372.142216 
L 357.175902 452.871113 
L 360.099592 494.40606 
L 363.023283 476.022958 
L 365.946973 398.107286 
L 368.870663 455.818836 
L 371.794353 415.38072 
L 374.718043 485.709177 
L 377.641733 482.026001 
L 380.565423 466.964488 
L 383.489113 406.467382 
L 386.412803 357.275663 
L 389.336494 407.406208 
L 392.260184 404.32689 
L 395.183874 377.015759 
L 398.107564 260.284077 
L 401.031254 153.506255 
L 403.954944 224.627034 
L 406.878634 254.41798 
L 409.802324 172.002124 
L 412.726014 201.958656 
L 415.649704 336.994393 
L 418.573395 231.520457 
L 421.497085 383.578376 
L 424.420775 478.738659 
L 427.344465 381.88283 
L 430.268155 401.250826 
L 433.191845 385.550544 
L 436.115535 358.163628 
L 439.039225 368.524593 
L 441.962915 338.373407 
L 444.886605 375.048593 
L 447.810296 425.939164 
L 450.733986 360.171738 
L 453.657676 284.866233 
L 456.581366 367.253982 
L 459.505056 383.234384 
L 462.428746 362.303589 
L 465.352436 364.992146 
L 468.276126 235.046572 
L 471.199816 263.071977 
L 474.123506 377.547348 
L 477.047197 419.31792 
L 479.970887 383.443284 
L 482.894577 409.288057 
L 485.818267 332.684412 
L 488.741957 383.314698 
L 491.665647 461.662092 
L 494.589337 465.569209 
L 497.513027 473.015104 
L 500.436717 392.852532 
L 503.360408 248.065889 
L 506.284098 291.102296 
L 509.207788 467.530987 
L 512.131478 534.195158 
L 515.055168 520.035986 
L 517.978858 371.038495 
L 520.902548 417.970003 
L 523.826238 384.576039 
L 526.749928 423.615657 
L 529.673618 525.742261 
L 532.597309 491.394568 
L 535.520999 418.386964 
L 538.444689 380.056878 
L 541.368379 525.602551 
L 544.292069 349.253176 
L 547.215759 291.557 
L 550.139449 402.77637 
L 553.063139 337.52768 
L 555.986829 352.29949 
L 558.910519 289.681988 
L 561.83421 327.635551 
L 564.7579 410.478459 
L 567.68159 369.024281 
L 570.60528 309.278789 
L 573.52897 293.096168 
L 576.45266 329.914353 
L 579.37635 405.761662 
L 582.30004 413.075403 
L 585.22373 333.788624 
L 588.147421 321.576277 
L 591.071111 353.811409 
L 593.994801 336.718751 
L 596.918491 334.945514 
L 599.842181 412.58383 
L 602.765871 436.559557 
L 605.689561 388.307277 
L 608.613251 439.843752 
L 611.536941 438.973311 
L 614.460631 453.360867 
L 617.384322 498.941311 
L 620.308012 489.573968 
L 623.231702 400.404207 
L 626.155392 412.466158 
L 629.079082 402.452421 
L 632.002772 377.252363 
L 634.926462 342.424291 
L 637.850152 413.676743 
L 640.773842 332.458442 
L 643.697532 306.301595 
L 646.621223 358.658752 
L 649.544913 403.97891 
L 652.468603 381.283868 
L 655.392293 416.027638 
L 658.315983 340.893815 
L 661.239673 376.639375 
L 664.163363 401.125108 
L 667.087053 469.499168 
L 670.010743 417.509668 
L 672.934433 416.012142 
L 675.858124 464.261904 
L 678.781814 375.287995 
L 681.705504 358.709245 
L 684.629194 469.954256 
L 687.552884 456.061107 
L 690.476574 503.306525 
L 693.400264 399.565913 
L 696.323954 410.18015 
L 699.247644 391.608576 
L 702.171335 356.519817 
L 705.095025 353.014199 
L 708.018715 353.050071 
L 710.942405 355.158573 
L 713.866095 355.888464 
L 716.789785 355.32938 
L 719.713475 353.460945 
L 725.560855 354.416352 
L 728.484545 355.127039 
L 728.484545 355.127039 
" style="fill:none;stroke:#4c72b0;stroke-linecap:round;stroke-width:1.5;"/>
   </g>
   <g id="line2d_2">
    <path clip-path="url(#p9129c2919b)" d="M 134.975455 346.297565 
L 137.899145 348.413308 
L 140.822835 349.203032 
L 143.746525 348.995846 
L 146.670215 350.131242 
L 149.593905 354.938795 
L 152.517595 352.901074 
L 155.441285 358.564778 
L 158.364975 357.918944 
L 161.288665 361.527175 
L 164.212356 364.662303 
L 167.136046 366.954135 
L 170.059736 374.823357 
L 175.907116 399.502285 
L 178.830806 431.664572 
L 181.754496 451.702539 
L 184.678186 424.299375 
L 187.601876 331.718092 
L 190.525567 364.214455 
L 193.449257 345.023649 
L 196.372947 371.6313 
L 199.296637 414.21344 
L 202.220327 377.886794 
L 205.144017 388.629337 
L 208.067707 369.776419 
L 210.991397 409.007448 
L 213.915087 382.655571 
L 216.838777 416.140379 
L 219.762468 417.45286 
L 222.686158 356.706925 
L 225.609848 356.504513 
L 228.533538 443.919787 
L 231.457228 422.063284 
L 234.380918 322.640138 
L 237.304608 370.443591 
L 240.228298 372.642149 
L 243.151988 367.1191 
L 246.075678 344.905854 
L 248.999369 334.893289 
L 251.923059 380.79331 
L 254.846749 377.811272 
L 257.770439 425.623155 
L 260.694129 338.423358 
L 263.617819 421.506019 
L 266.541509 410.620547 
L 269.465199 449.251041 
L 272.388889 471.031463 
L 275.312579 490.461164 
L 278.23627 486.961948 
L 281.15996 477.932826 
L 284.08365 431.243589 
L 287.00734 420.280322 
L 289.93103 454.653025 
L 292.85472 377.831805 
L 295.77841 352.480406 
L 298.7021 415.644643 
L 301.62579 394.312629 
L 304.549481 405.523309 
L 307.473171 419.184401 
L 310.396861 477.001311 
L 313.320551 411.120201 
L 316.244241 389.968963 
L 319.167931 478.121788 
L 322.091621 381.667423 
L 325.015311 327.162797 
L 327.939001 376.282579 
L 330.862691 429.273415 
L 333.786382 349.748474 
L 336.710072 375.857294 
L 339.633762 372.243483 
L 342.557452 408.846366 
L 345.481142 378.806626 
L 348.404832 407.485157 
L 351.328522 264.75187 
L 354.252212 305.654921 
L 357.175902 296.135696 
L 360.099592 266.026136 
L 363.023283 248.550063 
L 365.946973 273.265108 
L 368.870663 309.687109 
L 371.794353 331.787282 
L 374.718043 364.567525 
L 377.641733 340.041459 
L 380.565423 360.413414 
L 383.489113 326.064463 
L 386.412803 346.740918 
L 389.336494 406.945347 
L 392.260184 432.019548 
L 395.183874 398.183892 
L 398.107564 245.804402 
L 401.031254 143.556781 
L 403.954944 219.165182 
L 406.878634 213.254126 
L 409.802324 188.650886 
L 412.726014 220.785906 
L 415.649704 324.08731 
L 418.573395 264.968151 
L 421.497085 377.16145 
L 424.420775 433.023647 
L 427.344465 333.455195 
L 430.268155 360.926885 
L 433.191845 361.994034 
L 436.115535 336.888229 
L 439.039225 413.356257 
L 441.962915 349.080113 
L 444.886605 329.403751 
L 447.810296 370.387973 
L 450.733986 401.82768 
L 453.657676 254.396799 
L 456.581366 367.736251 
L 459.505056 371.124615 
L 462.428746 352.962377 
L 465.352436 357.228405 
L 468.276126 234.919753 
L 471.199816 255.532142 
L 474.123506 333.082764 
L 477.047197 421.47695 
L 479.970887 364.998547 
L 482.894577 410.721325 
L 485.818267 339.58609 
L 488.741957 395.234595 
L 491.665647 486.235835 
L 494.589337 464.529186 
L 497.513027 473.093844 
L 500.436717 392.027916 
L 503.360408 256.034157 
L 506.284098 304.441765 
L 509.207788 465.9061 
L 512.131478 536.433243 
L 515.055168 530.183381 
L 517.978858 400.757854 
L 520.902548 431.046092 
L 523.826238 389.515063 
L 526.749928 434.628036 
L 529.673618 531.290496 
L 532.597309 485.484676 
L 535.520999 404.044428 
L 538.444689 356.731026 
L 541.368379 444.835281 
L 544.292069 294.703496 
L 547.215759 249.293561 
L 550.139449 357.122643 
L 553.063139 362.939594 
L 555.986829 308.636295 
L 558.910519 190.357285 
L 561.83421 112.314313 
L 564.7579 224.313351 
L 567.68159 311.363679 
L 570.60528 307.102216 
L 573.52897 264.197525 
L 576.45266 285.154905 
L 579.37635 285.644274 
L 582.30004 249.172356 
L 585.22373 301.243621 
L 588.147421 284.864361 
L 591.071111 351.04922 
L 593.994801 346.724268 
L 596.918491 307.44369 
L 599.842181 425.303544 
L 602.765871 410.617609 
L 605.689561 385.896321 
L 608.613251 478.920554 
L 611.536941 446.157557 
L 614.460631 466.851607 
L 617.384322 519.762408 
L 620.308012 465.346142 
L 623.231702 362.388293 
L 626.155392 403.132746 
L 629.079082 360.189228 
L 632.002772 375.260361 
L 634.926462 355.001566 
L 637.850152 401.161138 
L 640.773842 334.584487 
L 643.697532 291.599762 
L 646.621223 347.209387 
L 649.544913 419.888022 
L 652.468603 390.402959 
L 655.392293 426.743352 
L 658.315983 301.457768 
L 661.239673 352.321335 
L 664.163363 370.916555 
L 667.087053 445.683859 
L 670.010743 410.473247 
L 672.934433 419.577541 
L 675.858124 463.738779 
L 678.781814 389.980751 
L 681.705504 360.737976 
L 684.629194 470.376954 
L 687.552884 424.143889 
L 690.476574 472.688392 
L 693.400264 405.72182 
L 696.323954 413.440524 
L 699.247644 385.852386 
L 702.171335 354.096653 
L 705.095025 345.125825 
L 708.018715 345.131037 
L 710.942405 346.814009 
L 713.866095 345.76162 
L 716.789785 347.206029 
L 719.713475 346.163522 
L 722.637165 343.065438 
L 725.560855 346.545328 
L 728.484545 341.110183 
L 728.484545 341.110183 
" style="fill:none;stroke:#dd8452;stroke-dasharray:6,2.25;stroke-dashoffset:0;stroke-width:1.5;"/>
   </g>
   <g id="line2d_3">
    <path clip-path="url(#p9129c2919b)" d="M 134.975455 349.399672 
L 137.899145 351.328657 
L 140.822835 354.301076 
L 143.746525 351.186778 
L 146.670215 356.142296 
L 149.593905 365.24645 
L 152.517595 364.449345 
L 155.441285 389.062003 
L 158.364975 387.954854 
L 161.288665 381.441838 
L 164.212356 386.974297 
L 167.136046 383.223645 
L 170.059736 380.317478 
L 172.983426 398.515921 
L 175.907116 405.621252 
L 178.830806 429.181592 
L 181.754496 453.820293 
L 184.678186 414.039485 
L 187.601876 384.334257 
L 190.525567 301.775631 
L 193.449257 336.562251 
L 196.372947 336.751003 
L 199.296637 390.015661 
L 202.220327 362.318683 
L 205.144017 322.573169 
L 208.067707 223.703319 
L 210.991397 380.791771 
L 213.915087 396.868682 
L 216.838777 351.176372 
L 219.762468 359.548483 
L 222.686158 331.017182 
L 225.609848 316.511324 
L 228.533538 400.657567 
L 231.457228 359.502572 
L 234.380918 307.03808 
L 237.304608 364.344965 
L 240.228298 413.665305 
L 243.151988 378.954521 
L 246.075678 320.915349 
L 248.999369 342.577696 
L 251.923059 294.58299 
L 254.846749 331.127439 
L 257.770439 343.854515 
L 260.694129 297.580262 
L 263.617819 373.549039 
L 266.541509 417.171657 
L 269.465199 448.424711 
L 272.388889 430.57862 
L 275.312579 389.0768 
L 278.23627 329.369978 
L 281.15996 250.671228 
L 284.08365 300.901115 
L 287.00734 373.004541 
L 289.93103 404.476569 
L 292.85472 369.229928 
L 295.77841 375.373416 
L 298.7021 419.344085 
L 301.62579 431.002157 
L 304.549481 402.701548 
L 307.473171 448.482812 
L 310.396861 515.176331 
L 313.320551 442.960637 
L 316.244241 417.196213 
L 319.167931 504.323951 
L 322.091621 426.287599 
L 325.015311 362.836613 
L 327.939001 408.157786 
L 330.862691 477.272965 
L 333.786382 371.081275 
L 336.710072 388.532197 
L 339.633762 403.117949 
L 342.557452 463.506583 
L 345.481142 403.816813 
L 348.404832 393.57938 
L 351.328522 294.257065 
L 354.252212 249.553322 
L 357.175902 348.420566 
L 360.099592 263.3051 
L 363.023283 310.922513 
L 365.946973 244.199243 
L 368.870663 343.275475 
L 371.794353 318.680254 
L 374.718043 401.262265 
L 377.641733 338.832518 
L 380.565423 311.80642 
L 383.489113 367.072996 
L 386.412803 370.80392 
L 389.336494 447.904244 
L 392.260184 455.318658 
L 395.183874 411.474092 
L 398.107564 300.345267 
L 401.031254 223.951659 
L 403.954944 261.357209 
L 406.878634 198.105285 
L 409.802324 265.545931 
L 412.726014 248.097318 
L 415.649704 262.29572 
L 418.573395 250.652776 
L 421.497085 210.92804 
L 424.420775 132.149851 
L 427.344465 205.702688 
L 430.268155 199.98745 
L 433.191845 240.598515 
L 436.115535 248.024455 
L 439.039225 351.098262 
L 441.962915 303.147351 
L 444.886605 304.388334 
L 447.810296 466.187619 
L 450.733986 312.115153 
L 453.657676 191.349351 
L 456.581366 391.175875 
L 459.505056 423.929777 
L 462.428746 372.130218 
L 465.352436 357.426129 
L 468.276126 262.205279 
L 471.199816 192.316607 
L 474.123506 316.966465 
L 477.047197 392.734055 
L 479.970887 399.188165 
L 482.894577 403.375017 
L 488.741957 278.717323 
L 491.665647 336.674484 
L 494.589337 350.57428 
L 497.513027 412.974521 
L 500.436717 272.104771 
L 503.360408 219.055555 
L 506.284098 276.961523 
L 509.207788 396.737822 
L 512.131478 439.284178 
L 515.055168 406.418585 
L 517.978858 348.252523 
L 520.902548 409.498776 
L 523.826238 384.249011 
L 526.749928 479.544526 
L 529.673618 517.88717 
L 532.597309 470.494486 
L 535.520999 429.558046 
L 538.444689 360.642008 
L 541.368379 386.499794 
L 544.292069 248.066536 
L 547.215759 152.935243 
L 550.139449 247.676964 
L 553.063139 350.702884 
L 555.986829 238.730623 
L 558.910519 228.30853 
L 561.83421 188.3242 
L 564.7579 205.462498 
L 567.68159 237.511135 
L 570.60528 235.665577 
L 573.52897 420.133581 
L 576.45266 347.61769 
L 579.37635 327.867188 
L 582.30004 384.918072 
L 585.22373 391.97737 
L 588.147421 343.919333 
L 591.071111 402.809287 
L 593.994801 351.283358 
L 596.918491 309.327586 
L 599.842181 471.13168 
L 602.765871 472.3777 
L 605.689561 408.669857 
L 608.613251 464.187397 
L 611.536941 442.112444 
L 614.460631 487.243012 
L 617.384322 515.136279 
L 620.308012 428.526453 
L 623.231702 391.789318 
L 626.155392 468.099726 
L 629.079082 391.979154 
L 632.002772 412.062909 
L 634.926462 396.145297 
L 637.850152 319.237239 
L 640.773842 238.886213 
L 643.697532 319.791251 
L 646.621223 345.851169 
L 649.544913 442.211332 
L 652.468603 392.366241 
L 655.392293 428.377124 
L 658.315983 320.780518 
L 661.239673 375.06241 
L 664.163363 393.288347 
L 667.087053 456.769135 
L 670.010743 392.70936 
L 672.934433 404.993922 
L 675.858124 484.69441 
L 678.781814 400.394588 
L 681.705504 367.819468 
L 684.629194 493.300344 
L 687.552884 455.249573 
L 690.476574 463.270573 
L 693.400264 394.964445 
L 696.323954 415.38037 
L 699.247644 377.88466 
L 702.171335 354.065976 
L 705.095025 349.342585 
L 708.018715 352.401456 
L 710.942405 356.340353 
L 713.866095 353.849537 
L 716.789785 354.534392 
L 719.713475 352.439427 
L 722.637165 354.268684 
L 725.560855 354.99401 
L 728.484545 344.736411 
L 728.484545 344.736411 
" style="fill:none;stroke:#55a868;stroke-dasharray:1.5,1.5;stroke-dashoffset:0;stroke-width:1.5;"/>
   </g>
   <g id="line2d_4">
    <path clip-path="url(#p9129c2919b)" d="M 134.975455 346.397975 
L 137.899145 348.63732 
L 140.822835 349.462671 
L 143.746525 349.125324 
L 146.670215 350.370172 
L 149.593905 355.359586 
L 152.517595 353.285731 
L 155.441285 358.991341 
L 158.364975 358.260435 
L 161.288665 361.922396 
L 164.212356 365.052416 
L 167.136046 367.44959 
L 170.059736 375.447784 
L 172.983426 387.66578 
L 175.907116 400.376433 
L 178.830806 432.5822 
L 181.754496 453.619963 
L 184.678186 425.44927 
L 187.601876 331.309981 
L 190.525567 364.204975 
L 193.449257 346.524812 
L 196.372947 371.912293 
L 199.296637 415.727266 
L 202.220327 381.054295 
L 205.144017 385.324784 
L 208.067707 369.833786 
L 210.991397 407.09688 
L 213.915087 395.152847 
L 216.838777 410.89472 
L 219.762468 420.574678 
L 222.686158 359.261945 
L 225.609848 357.35087 
L 228.533538 446.191173 
L 231.457228 423.676907 
L 234.380918 324.404473 
L 237.304608 372.796516 
L 240.228298 376.834003 
L 243.151988 369.94016 
L 246.075678 345.384379 
L 248.999369 327.982429 
L 251.923059 376.902669 
L 254.846749 374.07797 
L 257.770439 423.601351 
L 260.694129 342.125125 
L 263.617819 427.473663 
L 266.541509 410.953521 
L 269.465199 454.20969 
L 272.388889 473.599409 
L 275.312579 495.499322 
L 278.23627 490.673947 
L 281.15996 476.067977 
L 284.08365 426.266471 
L 287.00734 426.136171 
L 289.93103 456.23898 
L 292.85472 368.655243 
L 295.77841 354.95931 
L 298.7021 415.677419 
L 301.62579 394.81627 
L 304.549481 407.378189 
L 307.473171 416.455128 
L 310.396861 475.645594 
L 313.320551 405.582145 
L 316.244241 387.278657 
L 319.167931 484.586042 
L 322.091621 397.356337 
L 325.015311 320.581868 
L 327.939001 365.992012 
L 330.862691 439.92543 
L 333.786382 345.297122 
L 336.710072 383.076764 
L 339.633762 394.348029 
L 342.557452 434.136078 
L 345.481142 387.63122 
L 348.404832 353.663497 
L 351.328522 322.062585 
L 354.252212 179.204891 
L 357.175902 293.563255 
L 360.099592 355.668983 
L 363.023283 436.817289 
L 365.946973 328.151977 
L 368.870663 330.286679 
L 371.794353 342.592335 
L 374.718043 393.676449 
L 377.641733 358.924459 
L 380.565423 376.100299 
L 383.489113 337.294399 
L 386.412803 354.223333 
L 389.336494 410.24196 
L 392.260184 434.53429 
L 395.183874 399.190754 
L 398.107564 246.273378 
L 401.031254 143.834386 
L 403.954944 221.483231 
L 406.878634 223.444258 
L 409.802324 195.956416 
L 412.726014 222.63986 
L 415.649704 331.002281 
L 418.573395 265.399313 
L 421.497085 386.020324 
L 424.420775 445.538762 
L 427.344465 335.028329 
L 430.268155 362.842053 
L 433.191845 360.996914 
L 436.115535 335.740258 
L 439.039225 414.909016 
L 441.962915 350.754532 
L 444.886605 329.225388 
L 447.810296 373.634809 
L 450.733986 403.138098 
L 453.657676 272.923354 
L 456.581366 384.707633 
L 459.505056 375.274038 
L 462.428746 356.031078 
L 465.352436 365.165157 
L 468.276126 233.523442 
L 471.199816 270.529853 
L 474.123506 343.010082 
L 477.047197 426.177972 
L 479.970887 365.730677 
L 482.894577 411.928202 
L 485.818267 340.370708 
L 488.741957 396.678041 
L 491.665647 486.383905 
L 494.589337 465.472769 
L 497.513027 474.649156 
L 500.436717 391.345422 
L 503.360408 255.691861 
L 506.284098 303.626908 
L 509.207788 464.304055 
L 512.131478 538.509302 
L 515.055168 530.486972 
L 517.978858 399.867335 
L 520.902548 431.70256 
L 523.826238 389.187406 
L 526.749928 434.296846 
L 529.673618 532.088947 
L 532.597309 486.389432 
L 535.520999 404.207644 
L 538.444689 358.948473 
L 541.368379 449.149005 
L 544.292069 299.682835 
L 547.215759 252.447701 
L 550.139449 360.888389 
L 553.063139 365.395534 
L 555.986829 313.507214 
L 558.910519 191.915029 
L 561.83421 117.416983 
L 564.7579 225.217145 
L 567.68159 310.007438 
L 570.60528 302.132216 
L 573.52897 268.146898 
L 576.45266 327.997401 
L 579.37635 314.355739 
L 582.30004 322.293855 
L 585.22373 362.878624 
L 588.147421 277.515902 
L 591.071111 319.392865 
L 593.994801 372.078623 
L 596.918491 358.297496 
L 599.842181 426.585103 
L 602.765871 424.777341 
L 605.689561 393.629017 
L 608.613251 463.506758 
L 611.536941 443.312745 
L 614.460631 471.916175 
L 617.384322 515.98003 
L 620.308012 458.150947 
L 623.231702 364.021138 
L 626.155392 399.69345 
L 629.079082 359.983161 
L 632.002772 377.206049 
L 634.926462 364.089629 
L 637.850152 403.351265 
L 640.773842 333.732691 
L 643.697532 291.212132 
L 646.621223 349.830677 
L 649.544913 412.838624 
L 652.468603 387.710974 
L 655.392293 426.032315 
L 658.315983 300.149834 
L 661.239673 354.034354 
L 664.163363 373.9901 
L 667.087053 446.380239 
L 670.010743 413.651802 
L 672.934433 419.145853 
L 675.858124 462.989894 
L 678.781814 387.457859 
L 681.705504 355.890598 
L 684.629194 466.889316 
L 687.552884 421.620018 
L 690.476574 469.884122 
L 693.400264 405.998616 
L 696.323954 414.644148 
L 699.247644 389.057036 
L 702.171335 353.016683 
L 705.095025 344.678694 
L 708.018715 345.760798 
L 710.942405 348.33156 
L 713.866095 347.885549 
L 716.789785 348.860509 
L 719.713475 347.693964 
L 722.637165 344.540874 
L 725.560855 347.802244 
L 728.484545 342.661875 
L 728.484545 342.661875 
" style="fill:none;stroke:#c44e52;stroke-dasharray:4.5,1.875,2.25,1.875;stroke-dashoffset:0;stroke-width:1.5;"/>
   </g>
   <g id="line2d_5">
    <path clip-path="url(#p9129c2919b)" d="M 134.975455 346.30673 
L 137.899145 348.988046 
L 140.822835 349.936421 
L 143.746525 349.974374 
L 146.670215 350.545439 
L 149.593905 356.690379 
L 152.517595 354.597146 
L 155.441285 360.426427 
L 158.364975 359.54934 
L 161.288665 364.033189 
L 167.136046 369.324934 
L 170.059736 377.176176 
L 175.907116 399.672952 
L 178.830806 430.566587 
L 181.754496 456.000417 
L 184.678186 417.237034 
L 187.601876 356.6448 
L 190.525567 370.132235 
L 193.449257 355.768273 
L 196.372947 380.612919 
L 199.296637 427.167833 
L 202.220327 384.068725 
L 205.144017 370.671975 
L 208.067707 360.184821 
L 210.991397 420.120744 
L 213.915087 395.776784 
L 216.838777 414.128788 
L 219.762468 420.958898 
L 222.686158 368.818634 
L 225.609848 365.701609 
L 228.533538 464.063043 
L 231.457228 428.827561 
L 234.380918 328.054173 
L 237.304608 374.976394 
L 240.228298 378.386657 
L 243.151988 370.645391 
L 246.075678 348.438616 
L 248.999369 316.943729 
L 251.923059 374.178118 
L 254.846749 371.992117 
L 257.770439 424.905262 
L 260.694129 334.274722 
L 263.617819 423.374681 
L 266.541509 412.996733 
L 269.465199 456.730483 
L 272.388889 472.766502 
L 275.312579 491.511401 
L 278.23627 490.398585 
L 281.15996 484.1192 
L 284.08365 437.637743 
L 287.00734 430.129583 
L 289.93103 460.145187 
L 292.85472 373.988282 
L 295.77841 358.777858 
L 298.7021 411.484202 
L 301.62579 388.825329 
L 304.549481 400.464967 
L 307.473171 407.948466 
L 310.396861 480.781206 
L 313.320551 408.162369 
L 316.244241 391.306245 
L 319.167931 493.355193 
L 322.091621 406.541679 
L 325.015311 324.568844 
L 327.939001 367.907302 
L 330.862691 439.238879 
L 333.786382 362.436286 
L 336.710072 352.500379 
L 339.633762 382.91792 
L 342.557452 430.250649 
L 345.481142 419.087542 
L 351.328522 337.968479 
L 354.252212 340.895459 
L 357.175902 448.168133 
L 360.099592 493.342495 
L 363.023283 514.192031 
L 365.946973 423.104216 
L 368.870663 421.414161 
L 371.794353 363.326629 
L 374.718043 429.704122 
L 377.641733 454.329951 
L 380.565423 442.436638 
L 383.489113 396.420624 
L 386.412803 361.018794 
L 389.336494 423.482874 
L 392.260184 427.416191 
L 395.183874 411.589876 
L 398.107564 250.561426 
L 401.031254 176.174756 
L 403.954944 248.218838 
L 406.878634 238.923117 
L 409.802324 212.082972 
L 412.726014 229.759882 
L 415.649704 360.034354 
L 418.573395 247.500088 
L 421.497085 395.582155 
L 424.420775 451.56965 
L 427.344465 351.513194 
L 430.268155 376.570184 
L 433.191845 368.83434 
L 436.115535 335.869771 
L 439.039225 431.480263 
L 441.962915 362.158003 
L 444.886605 336.546598 
L 447.810296 375.194214 
L 450.733986 410.236433 
L 453.657676 277.085352 
L 456.581366 377.805395 
L 459.505056 366.018981 
L 462.428746 348.293939 
L 465.352436 355.893414 
L 468.276126 232.29325 
L 471.199816 280.787592 
L 474.123506 365.294792 
L 477.047197 430.965393 
L 479.970887 376.840614 
L 482.894577 411.736477 
L 485.818267 353.018082 
L 488.741957 409.995911 
L 491.665647 496.597132 
L 494.589337 469.278584 
L 497.513027 479.99895 
L 500.436717 391.650168 
L 503.360408 261.125589 
L 506.284098 302.306329 
L 509.207788 471.152214 
L 512.131478 544.322929 
L 515.055168 523.620484 
L 517.978858 398.736365 
L 520.902548 431.680628 
L 523.826238 380.251961 
L 526.749928 423.044785 
L 529.673618 528.223211 
L 535.520999 391.692283 
L 538.444689 343.094996 
L 541.368379 446.261902 
L 544.292069 294.013499 
L 547.215759 239.942554 
L 550.139449 361.521421 
L 553.063139 270.027734 
L 555.986829 245.665427 
L 558.910519 219.663366 
L 561.83421 245.983481 
L 564.7579 376.862616 
L 567.68159 325.619361 
L 570.60528 309.18576 
L 573.52897 284.316786 
L 576.45266 376.303323 
L 579.37635 361.241092 
L 582.30004 325.869572 
L 585.22373 331.350051 
L 588.147421 285.353503 
L 591.071111 313.089344 
L 596.918491 329.726825 
L 599.842181 397.628586 
L 602.765871 405.557239 
L 605.689561 384.92164 
L 608.613251 472.322607 
L 611.536941 447.881437 
L 614.460631 477.466929 
L 617.384322 520.868718 
L 620.308012 455.300259 
L 623.231702 359.818791 
L 626.155392 405.289223 
L 629.079082 369.359844 
L 632.002772 375.305835 
L 634.926462 349.577895 
L 637.850152 385.655274 
L 640.773842 307.496457 
L 643.697532 278.136236 
L 646.621223 332.934991 
L 649.544913 404.941243 
L 652.468603 375.322171 
L 655.392293 401.805958 
L 658.315983 277.993291 
L 661.239673 328.879297 
L 664.163363 373.442875 
L 667.087053 448.51286 
L 670.010743 405.746375 
L 672.934433 416.993749 
L 675.858124 456.126484 
L 678.781814 371.456365 
L 681.705504 347.733526 
L 684.629194 451.024453 
L 687.552884 414.349512 
L 690.476574 445.084758 
L 693.400264 395.059415 
L 696.323954 412.12339 
L 699.247644 394.34537 
L 702.171335 350.808576 
L 705.095025 345.847723 
L 708.018715 348.095743 
L 710.942405 351.112516 
L 713.866095 350.915946 
L 716.789785 350.929134 
L 719.713475 349.006043 
L 722.637165 346.693153 
L 725.560855 349.525547 
L 728.484545 347.53979 
L 728.484545 347.53979 
" style="fill:none;stroke:#8172b3;stroke-dasharray:7.5,1.5,1.5,1.5;stroke-dashoffset:0;stroke-width:1.5;"/>
   </g>
   <g id="line2d_6"/>
   <g id="line2d_7"/>
   <g id="line2d_8"/>
   <g id="line2d_9"/>
   <g id="line2d_10"/>
   <g id="patch_3">
    <path d="M 105.3 529.9416 
L 105.3 71.4528 
" style="fill:none;stroke:#262626;stroke-linecap:square;stroke-linejoin:miter;stroke-width:1.25;"/>
   </g>
   <g id="patch_4">
    <path d="M 758.16 529.9416 
L 758.16 71.4528 
" style="fill:none;stroke:#262626;stroke-linecap:square;stroke-linejoin:miter;stroke-width:1.25;"/>
   </g>
   <g id="patch_5">
    <path d="M 105.3 529.9416 
L 758.16 529.9416 
" style="fill:none;stroke:#262626;stroke-linecap:square;stroke-linejoin:miter;stroke-width:1.25;"/>
   </g>
   <g id="patch_6">
    <path d="M 105.3 71.4528 
L 758.16 71.4528 
" style="fill:none;stroke:#262626;stroke-linecap:square;stroke-linejoin:miter;stroke-width:1.25;"/>
   </g>
   <g id="text_16">
    <!-- Activations for &gt;U&lt; -->
    <g style="fill:#262626;" transform="translate(381.04125 65.4528)scale(0.12 -0.12)">
     <defs>
      <path d="M -9 0 
L 1750 4581 
L 2403 4581 
L 4278 0 
L 3588 0 
L 3053 1388 
L 1138 1388 
L 634 0 
L -9 0 
z
M 1313 1881 
L 2866 1881 
L 2388 3150 
Q 2169 3728 2063 4100 
Q 1975 3659 1816 3225 
L 1313 1881 
z
" id="ArialMT-41" transform="scale(0.015625)"/>
      <path d="M 2588 1216 
L 3141 1144 
Q 3050 572 2676 248 
Q 2303 -75 1759 -75 
Q 1078 -75 664 370 
Q 250 816 250 1647 
Q 250 2184 428 2587 
Q 606 2991 970 3192 
Q 1334 3394 1763 3394 
Q 2303 3394 2647 3120 
Q 2991 2847 3088 2344 
L 2541 2259 
Q 2463 2594 2264 2762 
Q 2066 2931 1784 2931 
Q 1359 2931 1093 2626 
Q 828 2322 828 1663 
Q 828 994 1084 691 
Q 1341 388 1753 388 
Q 2084 388 2306 591 
Q 2528 794 2588 1216 
z
" id="ArialMT-63" transform="scale(0.015625)"/>
      <path d="M 1650 503 
L 1731 6 
Q 1494 -44 1306 -44 
Q 1000 -44 831 53 
Q 663 150 594 308 
Q 525 466 525 972 
L 525 2881 
L 113 2881 
L 113 3319 
L 525 3319 
L 525 4141 
L 1084 4478 
L 1084 3319 
L 1650 3319 
L 1650 2881 
L 1084 2881 
L 1084 941 
Q 1084 700 1114 631 
Q 1144 563 1211 522 
Q 1278 481 1403 481 
Q 1497 481 1650 503 
z
" id="ArialMT-74" transform="scale(0.015625)"/>
      <path d="M 425 3934 
L 425 4581 
L 988 4581 
L 988 3934 
L 425 3934 
z
M 425 0 
L 425 3319 
L 988 3319 
L 988 0 
L 425 0 
z
" id="ArialMT-69" transform="scale(0.015625)"/>
      <path d="M 1344 0 
L 81 3319 
L 675 3319 
L 1388 1331 
Q 1503 1009 1600 663 
Q 1675 925 1809 1294 
L 2547 3319 
L 3125 3319 
L 1869 0 
L 1344 0 
z
" id="ArialMT-76" transform="scale(0.015625)"/>
      <path d="M 2588 409 
Q 2275 144 1986 34 
Q 1697 -75 1366 -75 
Q 819 -75 525 192 
Q 231 459 231 875 
Q 231 1119 342 1320 
Q 453 1522 633 1644 
Q 813 1766 1038 1828 
Q 1203 1872 1538 1913 
Q 2219 1994 2541 2106 
Q 2544 2222 2544 2253 
Q 2544 2597 2384 2738 
Q 2169 2928 1744 2928 
Q 1347 2928 1158 2789 
Q 969 2650 878 2297 
L 328 2372 
Q 403 2725 575 2942 
Q 747 3159 1072 3276 
Q 1397 3394 1825 3394 
Q 2250 3394 2515 3294 
Q 2781 3194 2906 3042 
Q 3031 2891 3081 2659 
Q 3109 2516 3109 2141 
L 3109 1391 
Q 3109 606 3145 398 
Q 3181 191 3288 0 
L 2700 0 
Q 2613 175 2588 409 
z
M 2541 1666 
Q 2234 1541 1622 1453 
Q 1275 1403 1131 1340 
Q 988 1278 909 1158 
Q 831 1038 831 891 
Q 831 666 1001 516 
Q 1172 366 1500 366 
Q 1825 366 2078 508 
Q 2331 650 2450 897 
Q 2541 1088 2541 1459 
L 2541 1666 
z
" id="ArialMT-61" transform="scale(0.015625)"/>
      <path d="M 213 1659 
Q 213 2581 725 3025 
Q 1153 3394 1769 3394 
Q 2453 3394 2887 2945 
Q 3322 2497 3322 1706 
Q 3322 1066 3130 698 
Q 2938 331 2570 128 
Q 2203 -75 1769 -75 
Q 1072 -75 642 372 
Q 213 819 213 1659 
z
M 791 1659 
Q 791 1022 1069 705 
Q 1347 388 1769 388 
Q 2188 388 2466 706 
Q 2744 1025 2744 1678 
Q 2744 2294 2464 2611 
Q 2184 2928 1769 2928 
Q 1347 2928 1069 2612 
Q 791 2297 791 1659 
z
" id="ArialMT-6f" transform="scale(0.015625)"/>
      <path d="M 422 0 
L 422 3319 
L 928 3319 
L 928 2847 
Q 1294 3394 1984 3394 
Q 2284 3394 2536 3286 
Q 2788 3178 2913 3003 
Q 3038 2828 3088 2588 
Q 3119 2431 3119 2041 
L 3119 0 
L 2556 0 
L 2556 2019 
Q 2556 2363 2490 2533 
Q 2425 2703 2258 2804 
Q 2091 2906 1866 2906 
Q 1506 2906 1245 2678 
Q 984 2450 984 1813 
L 984 0 
L 422 0 
z
" id="ArialMT-6e" transform="scale(0.015625)"/>
      <path d="M 197 991 
L 753 1078 
Q 800 744 1014 566 
Q 1228 388 1613 388 
Q 2000 388 2187 545 
Q 2375 703 2375 916 
Q 2375 1106 2209 1216 
Q 2094 1291 1634 1406 
Q 1016 1563 777 1677 
Q 538 1791 414 1992 
Q 291 2194 291 2438 
Q 291 2659 392 2848 
Q 494 3038 669 3163 
Q 800 3259 1026 3326 
Q 1253 3394 1513 3394 
Q 1903 3394 2198 3281 
Q 2494 3169 2634 2976 
Q 2775 2784 2828 2463 
L 2278 2388 
Q 2241 2644 2061 2787 
Q 1881 2931 1553 2931 
Q 1166 2931 1000 2803 
Q 834 2675 834 2503 
Q 834 2394 903 2306 
Q 972 2216 1119 2156 
Q 1203 2125 1616 2013 
Q 2213 1853 2448 1751 
Q 2684 1650 2818 1456 
Q 2953 1263 2953 975 
Q 2953 694 2789 445 
Q 2625 197 2315 61 
Q 2006 -75 1616 -75 
Q 969 -75 630 194 
Q 291 463 197 991 
z
" id="ArialMT-73" transform="scale(0.015625)"/>
      <path id="ArialMT-20" transform="scale(0.015625)"/>
      <path d="M 556 0 
L 556 2881 
L 59 2881 
L 59 3319 
L 556 3319 
L 556 3672 
Q 556 4006 616 4169 
Q 697 4388 901 4523 
Q 1106 4659 1475 4659 
Q 1713 4659 2000 4603 
L 1916 4113 
Q 1741 4144 1584 4144 
Q 1328 4144 1222 4034 
Q 1116 3925 1116 3625 
L 1116 3319 
L 1763 3319 
L 1763 2881 
L 1116 2881 
L 1116 0 
L 556 0 
z
" id="ArialMT-66" transform="scale(0.015625)"/>
      <path d="M 416 0 
L 416 3319 
L 922 3319 
L 922 2816 
Q 1116 3169 1280 3281 
Q 1444 3394 1641 3394 
Q 1925 3394 2219 3213 
L 2025 2691 
Q 1819 2813 1613 2813 
Q 1428 2813 1281 2702 
Q 1134 2591 1072 2394 
Q 978 2094 978 1738 
L 978 0 
L 416 0 
z
" id="ArialMT-72" transform="scale(0.015625)"/>
      <path d="M 3384 2003 
L 350 706 
L 350 1266 
L 2753 2263 
L 350 3250 
L 350 3809 
L 3384 2528 
L 3384 2003 
z
" id="ArialMT-3e" transform="scale(0.015625)"/>
      <path d="M 3500 4581 
L 4106 4581 
L 4106 1934 
Q 4106 1244 3950 837 
Q 3794 431 3386 176 
Q 2978 -78 2316 -78 
Q 1672 -78 1262 144 
Q 853 366 678 786 
Q 503 1206 503 1934 
L 503 4581 
L 1109 4581 
L 1109 1938 
Q 1109 1341 1220 1058 
Q 1331 775 1601 622 
Q 1872 469 2263 469 
Q 2931 469 3215 772 
Q 3500 1075 3500 1938 
L 3500 4581 
z
" id="ArialMT-55" transform="scale(0.015625)"/>
      <path d="M 350 2003 
L 350 2528 
L 3384 3809 
L 3384 3250 
L 978 2263 
L 3384 1266 
L 3384 706 
L 350 2003 
z
" id="ArialMT-3c" transform="scale(0.015625)"/>
     </defs>
     <use xlink:href="#ArialMT-41"/>
     <use x="66.699219" xlink:href="#ArialMT-63"/>
     <use x="116.699219" xlink:href="#ArialMT-74"/>
     <use x="144.482422" xlink:href="#ArialMT-69"/>
     <use x="166.699219" xlink:href="#ArialMT-76"/>
     <use x="216.699219" xlink:href="#ArialMT-61"/>
     <use x="272.314453" xlink:href="#ArialMT-74"/>
     <use x="300.097656" xlink:href="#ArialMT-69"/>
     <use x="322.314453" xlink:href="#ArialMT-6f"/>
     <use x="377.929688" xlink:href="#ArialMT-6e"/>
     <use x="433.544922" xlink:href="#ArialMT-73"/>
     <use x="483.544922" xlink:href="#ArialMT-20"/>
     <use x="511.328125" xlink:href="#ArialMT-66"/>
     <use x="539.111328" xlink:href="#ArialMT-6f"/>
     <use x="594.726562" xlink:href="#ArialMT-72"/>
     <use x="628.027344" xlink:href="#ArialMT-20"/>
     <use x="655.810547" xlink:href="#ArialMT-3e"/>
     <use x="714.208984" xlink:href="#ArialMT-55"/>
     <use x="786.425781" xlink:href="#ArialMT-3c"/>
    </g>
   </g>
   <g id="legend_1">
    <g id="patch_7">
     <path d="M 640.044062 158.514363 
L 750.46 158.514363 
Q 752.66 158.514363 752.66 156.314363 
L 752.66 79.1528 
Q 752.66 76.9528 750.46 76.9528 
L 640.044062 76.9528 
Q 637.844062 76.9528 637.844062 79.1528 
L 637.844062 156.314363 
Q 637.844062 158.514363 640.044062 158.514363 
z
" style="fill:#ffffff;opacity:0.8;stroke:#cccccc;stroke-linejoin:miter;"/>
    </g>
    <g id="line2d_11">
     <path d="M 642.244062 85.376394 
L 664.244062 85.376394 
" style="fill:none;stroke:#4c72b0;stroke-linecap:round;stroke-width:1.5;"/>
    </g>
    <g id="line2d_12"/>
    <g id="text_17">
     <!-- regular -->
     <g style="fill:#262626;" transform="translate(673.044062 89.226394)scale(0.11 -0.11)">
      <defs>
       <path d="M 2694 1069 
L 3275 997 
Q 3138 488 2766 206 
Q 2394 -75 1816 -75 
Q 1088 -75 661 373 
Q 234 822 234 1631 
Q 234 2469 665 2931 
Q 1097 3394 1784 3394 
Q 2450 3394 2872 2941 
Q 3294 2488 3294 1666 
Q 3294 1616 3291 1516 
L 816 1516 
Q 847 969 1125 678 
Q 1403 388 1819 388 
Q 2128 388 2347 550 
Q 2566 713 2694 1069 
z
M 847 1978 
L 2700 1978 
Q 2663 2397 2488 2606 
Q 2219 2931 1791 2931 
Q 1403 2931 1139 2672 
Q 875 2413 847 1978 
z
" id="ArialMT-65" transform="scale(0.015625)"/>
       <path d="M 319 -275 
L 866 -356 
Q 900 -609 1056 -725 
Q 1266 -881 1628 -881 
Q 2019 -881 2231 -725 
Q 2444 -569 2519 -288 
Q 2563 -116 2559 434 
Q 2191 0 1641 0 
Q 956 0 581 494 
Q 206 988 206 1678 
Q 206 2153 378 2554 
Q 550 2956 876 3175 
Q 1203 3394 1644 3394 
Q 2231 3394 2613 2919 
L 2613 3319 
L 3131 3319 
L 3131 450 
Q 3131 -325 2973 -648 
Q 2816 -972 2473 -1159 
Q 2131 -1347 1631 -1347 
Q 1038 -1347 672 -1080 
Q 306 -813 319 -275 
z
M 784 1719 
Q 784 1066 1043 766 
Q 1303 466 1694 466 
Q 2081 466 2343 764 
Q 2606 1063 2606 1700 
Q 2606 2309 2336 2618 
Q 2066 2928 1684 2928 
Q 1309 2928 1046 2623 
Q 784 2319 784 1719 
z
" id="ArialMT-67" transform="scale(0.015625)"/>
       <path d="M 2597 0 
L 2597 488 
Q 2209 -75 1544 -75 
Q 1250 -75 995 37 
Q 741 150 617 320 
Q 494 491 444 738 
Q 409 903 409 1263 
L 409 3319 
L 972 3319 
L 972 1478 
Q 972 1038 1006 884 
Q 1059 663 1231 536 
Q 1403 409 1656 409 
Q 1909 409 2131 539 
Q 2353 669 2445 892 
Q 2538 1116 2538 1541 
L 2538 3319 
L 3100 3319 
L 3100 0 
L 2597 0 
z
" id="ArialMT-75" transform="scale(0.015625)"/>
       <path d="M 409 0 
L 409 4581 
L 972 4581 
L 972 0 
L 409 0 
z
" id="ArialMT-6c" transform="scale(0.015625)"/>
      </defs>
      <use xlink:href="#ArialMT-72"/>
      <use x="33.300781" xlink:href="#ArialMT-65"/>
      <use x="88.916016" xlink:href="#ArialMT-67"/>
      <use x="144.53125" xlink:href="#ArialMT-75"/>
      <use x="200.146484" xlink:href="#ArialMT-6c"/>
      <use x="222.363281" xlink:href="#ArialMT-61"/>
      <use x="277.978516" xlink:href="#ArialMT-72"/>
     </g>
    </g>
    <g id="line2d_13">
     <path d="M 642.244062 101.0978 
L 664.244062 101.0978 
" style="fill:none;stroke:#dd8452;stroke-dasharray:6,2.25;stroke-dashoffset:0;stroke-width:1.5;"/>
    </g>
    <g id="line2d_14"/>
    <g id="text_18">
     <!-- splitted_3s -->
     <g style="fill:#262626;" transform="translate(673.044062 104.9478)scale(0.11 -0.11)">
      <defs>
       <path d="M 422 -1272 
L 422 3319 
L 934 3319 
L 934 2888 
Q 1116 3141 1344 3267 
Q 1572 3394 1897 3394 
Q 2322 3394 2647 3175 
Q 2972 2956 3137 2557 
Q 3303 2159 3303 1684 
Q 3303 1175 3120 767 
Q 2938 359 2589 142 
Q 2241 -75 1856 -75 
Q 1575 -75 1351 44 
Q 1128 163 984 344 
L 984 -1272 
L 422 -1272 
z
M 931 1641 
Q 931 1000 1190 694 
Q 1450 388 1819 388 
Q 2194 388 2461 705 
Q 2728 1022 2728 1688 
Q 2728 2322 2467 2637 
Q 2206 2953 1844 2953 
Q 1484 2953 1207 2617 
Q 931 2281 931 1641 
z
" id="ArialMT-70" transform="scale(0.015625)"/>
       <path d="M 2575 0 
L 2575 419 
Q 2259 -75 1647 -75 
Q 1250 -75 917 144 
Q 584 363 401 755 
Q 219 1147 219 1656 
Q 219 2153 384 2558 
Q 550 2963 881 3178 
Q 1213 3394 1622 3394 
Q 1922 3394 2156 3267 
Q 2391 3141 2538 2938 
L 2538 4581 
L 3097 4581 
L 3097 0 
L 2575 0 
z
M 797 1656 
Q 797 1019 1065 703 
Q 1334 388 1700 388 
Q 2069 388 2326 689 
Q 2584 991 2584 1609 
Q 2584 2291 2321 2609 
Q 2059 2928 1675 2928 
Q 1300 2928 1048 2622 
Q 797 2316 797 1656 
z
" id="ArialMT-64" transform="scale(0.015625)"/>
       <path d="M -97 -1272 
L -97 -866 
L 3631 -866 
L 3631 -1272 
L -97 -1272 
z
" id="ArialMT-5f" transform="scale(0.015625)"/>
       <path d="M 269 1209 
L 831 1284 
Q 928 806 1161 595 
Q 1394 384 1728 384 
Q 2125 384 2398 659 
Q 2672 934 2672 1341 
Q 2672 1728 2419 1979 
Q 2166 2231 1775 2231 
Q 1616 2231 1378 2169 
L 1441 2663 
Q 1497 2656 1531 2656 
Q 1891 2656 2178 2843 
Q 2466 3031 2466 3422 
Q 2466 3731 2256 3934 
Q 2047 4138 1716 4138 
Q 1388 4138 1169 3931 
Q 950 3725 888 3313 
L 325 3413 
Q 428 3978 793 4289 
Q 1159 4600 1703 4600 
Q 2078 4600 2393 4439 
Q 2709 4278 2876 4000 
Q 3044 3722 3044 3409 
Q 3044 3113 2884 2869 
Q 2725 2625 2413 2481 
Q 2819 2388 3044 2092 
Q 3269 1797 3269 1353 
Q 3269 753 2831 336 
Q 2394 -81 1725 -81 
Q 1122 -81 723 278 
Q 325 638 269 1209 
z
" id="ArialMT-33" transform="scale(0.015625)"/>
      </defs>
      <use xlink:href="#ArialMT-73"/>
      <use x="50" xlink:href="#ArialMT-70"/>
      <use x="105.615234" xlink:href="#ArialMT-6c"/>
      <use x="127.832031" xlink:href="#ArialMT-69"/>
      <use x="150.048828" xlink:href="#ArialMT-74"/>
      <use x="177.832031" xlink:href="#ArialMT-74"/>
      <use x="205.615234" xlink:href="#ArialMT-65"/>
      <use x="261.230469" xlink:href="#ArialMT-64"/>
      <use x="316.845703" xlink:href="#ArialMT-5f"/>
      <use x="372.460938" xlink:href="#ArialMT-33"/>
      <use x="428.076172" xlink:href="#ArialMT-73"/>
     </g>
    </g>
    <g id="line2d_15">
     <path d="M 642.244062 116.6903 
L 664.244062 116.6903 
" style="fill:none;stroke:#55a868;stroke-dasharray:1.5,1.5;stroke-dashoffset:0;stroke-width:1.5;"/>
    </g>
    <g id="line2d_16"/>
    <g id="text_19">
     <!-- splitted_1s -->
     <g style="fill:#262626;" transform="translate(673.044062 120.5403)scale(0.11 -0.11)">
      <use xlink:href="#ArialMT-73"/>
      <use x="50" xlink:href="#ArialMT-70"/>
      <use x="105.615234" xlink:href="#ArialMT-6c"/>
      <use x="127.832031" xlink:href="#ArialMT-69"/>
      <use x="150.048828" xlink:href="#ArialMT-74"/>
      <use x="177.832031" xlink:href="#ArialMT-74"/>
      <use x="205.615234" xlink:href="#ArialMT-65"/>
      <use x="261.230469" xlink:href="#ArialMT-64"/>
      <use x="316.845703" xlink:href="#ArialMT-5f"/>
      <use x="372.460938" xlink:href="#ArialMT-31"/>
      <use x="428.076172" xlink:href="#ArialMT-73"/>
     </g>
    </g>
    <g id="line2d_17">
     <path d="M 642.244062 132.384206 
L 664.244062 132.384206 
" style="fill:none;stroke:#c44e52;stroke-dasharray:4.5,1.875,2.25,1.875;stroke-dashoffset:0;stroke-width:1.5;"/>
    </g>
    <g id="line2d_18"/>
    <g id="text_20">
     <!-- overlap_1f_3s -->
     <g style="fill:#262626;" transform="translate(673.044062 136.234206)scale(0.11 -0.11)">
      <use xlink:href="#ArialMT-6f"/>
      <use x="55.615234" xlink:href="#ArialMT-76"/>
      <use x="105.615234" xlink:href="#ArialMT-65"/>
      <use x="161.230469" xlink:href="#ArialMT-72"/>
      <use x="194.53125" xlink:href="#ArialMT-6c"/>
      <use x="216.748047" xlink:href="#ArialMT-61"/>
      <use x="272.363281" xlink:href="#ArialMT-70"/>
      <use x="327.978516" xlink:href="#ArialMT-5f"/>
      <use x="383.59375" xlink:href="#ArialMT-31"/>
      <use x="439.208984" xlink:href="#ArialMT-66"/>
      <use x="466.992188" xlink:href="#ArialMT-5f"/>
      <use x="522.607422" xlink:href="#ArialMT-33"/>
      <use x="578.222656" xlink:href="#ArialMT-73"/>
     </g>
    </g>
    <g id="line2d_19">
     <path d="M 642.244062 148.078113 
L 664.244062 148.078113 
" style="fill:none;stroke:#8172b3;stroke-dasharray:7.5,1.5,1.5,1.5;stroke-dashoffset:0;stroke-width:1.5;"/>
    </g>
    <g id="line2d_20"/>
    <g id="text_21">
     <!-- overlap_10f_3s -->
     <g style="fill:#262626;" transform="translate(673.044062 151.928112)scale(0.11 -0.11)">
      <use xlink:href="#ArialMT-6f"/>
      <use x="55.615234" xlink:href="#ArialMT-76"/>
      <use x="105.615234" xlink:href="#ArialMT-65"/>
      <use x="161.230469" xlink:href="#ArialMT-72"/>
      <use x="194.53125" xlink:href="#ArialMT-6c"/>
      <use x="216.748047" xlink:href="#ArialMT-61"/>
      <use x="272.363281" xlink:href="#ArialMT-70"/>
      <use x="327.978516" xlink:href="#ArialMT-5f"/>
      <use x="383.59375" xlink:href="#ArialMT-31"/>
      <use x="439.208984" xlink:href="#ArialMT-30"/>
      <use x="494.824219" xlink:href="#ArialMT-66"/>
      <use x="522.607422" xlink:href="#ArialMT-5f"/>
      <use x="578.222656" xlink:href="#ArialMT-33"/>
      <use x="633.837891" xlink:href="#ArialMT-73"/>
     </g>
    </g>
   </g>
  </g>
 </g>
 <defs>
  <clipPath id="p9129c2919b">
   <rect height="458.4888" width="652.86" x="105.3" y="71.4528"/>
  </clipPath>
 </defs>
</svg>
