<?xml version="1.0" encoding="utf-8" standalone="no"?>
<!DOCTYPE svg PUBLIC "-//W3C//DTD SVG 1.1//EN"
  "http://www.w3.org/Graphics/SVG/1.1/DTD/svg11.dtd">
<svg height="595.44pt" version="1.1" viewBox="0 0 842.4 595.44" width="842.4pt" xmlns="http://www.w3.org/2000/svg" xmlns:xlink="http://www.w3.org/1999/xlink">
 <metadata>
  <rdf:RDF xmlns:cc="http://creativecommons.org/ns#" xmlns:dc="http://purl.org/dc/elements/1.1/" xmlns:rdf="http://www.w3.org/1999/02/22-rdf-syntax-ns#">
   <cc:Work>
    <dc:type rdf:resource="http://purl.org/dc/dcmitype/StillImage"/>
    <dc:date>2021-06-04T22:03:10.854680</dc:date>
    <dc:format>image/svg+xml</dc:format>
    <dc:creator>
     <cc:Agent>
      <dc:title>Matplotlib v3.4.1, https://matplotlib.org/</dc:title>
     </cc:Agent>
    </dc:creator>
   </cc:Work>
  </rdf:RDF>
 </metadata>
 <defs>
  <style type="text/css">*{stroke-linecap:butt;stroke-linejoin:round;}</style>
 </defs>
 <g id="figure_1">
  <g id="patch_1">
   <path d="M 0 595.44 
L 842.4 595.44 
L 842.4 0 
L 0 0 
z
" style="fill:#ffffff;"/>
  </g>
  <g id="axes_1">
   <g id="patch_2">
    <path d="M 105.3 529.9416 
L 758.16 529.9416 
L 758.16 71.4528 
L 105.3 71.4528 
z
" style="fill:#ffffff;"/>
   </g>
   <g id="matplotlib.axis_1">
    <g id="xtick_1">
     <g id="text_1">
      <!-- 0 -->
      <g style="fill:#262626;" transform="translate(131.916939 547.315194)scale(0.11 -0.11)">
       <defs>
        <path d="M 266 2259 
Q 266 3072 433 3567 
Q 600 4063 929 4331 
Q 1259 4600 1759 4600 
Q 2128 4600 2406 4451 
Q 2684 4303 2865 4023 
Q 3047 3744 3150 3342 
Q 3253 2941 3253 2259 
Q 3253 1453 3087 958 
Q 2922 463 2592 192 
Q 2263 -78 1759 -78 
Q 1097 -78 719 397 
Q 266 969 266 2259 
z
M 844 2259 
Q 844 1131 1108 757 
Q 1372 384 1759 384 
Q 2147 384 2411 759 
Q 2675 1134 2675 2259 
Q 2675 3391 2411 3762 
Q 2147 4134 1753 4134 
Q 1366 4134 1134 3806 
Q 844 3388 844 2259 
z
" id="ArialMT-30" transform="scale(0.015625)"/>
       </defs>
       <use xlink:href="#ArialMT-30"/>
      </g>
     </g>
    </g>
    <g id="xtick_2">
     <g id="text_2">
      <!-- 25 -->
      <g style="fill:#262626;" transform="translate(201.950676 547.315194)scale(0.11 -0.11)">
       <defs>
        <path d="M 3222 541 
L 3222 0 
L 194 0 
Q 188 203 259 391 
Q 375 700 629 1000 
Q 884 1300 1366 1694 
Q 2113 2306 2375 2664 
Q 2638 3022 2638 3341 
Q 2638 3675 2398 3904 
Q 2159 4134 1775 4134 
Q 1369 4134 1125 3890 
Q 881 3647 878 3216 
L 300 3275 
Q 359 3922 746 4261 
Q 1134 4600 1788 4600 
Q 2447 4600 2831 4234 
Q 3216 3869 3216 3328 
Q 3216 3053 3103 2787 
Q 2991 2522 2730 2228 
Q 2469 1934 1863 1422 
Q 1356 997 1212 845 
Q 1069 694 975 541 
L 3222 541 
z
" id="ArialMT-32" transform="scale(0.015625)"/>
        <path d="M 266 1200 
L 856 1250 
Q 922 819 1161 601 
Q 1400 384 1738 384 
Q 2144 384 2425 690 
Q 2706 997 2706 1503 
Q 2706 1984 2436 2262 
Q 2166 2541 1728 2541 
Q 1456 2541 1237 2417 
Q 1019 2294 894 2097 
L 366 2166 
L 809 4519 
L 3088 4519 
L 3088 3981 
L 1259 3981 
L 1013 2750 
Q 1425 3038 1878 3038 
Q 2478 3038 2890 2622 
Q 3303 2206 3303 1553 
Q 3303 931 2941 478 
Q 2500 -78 1738 -78 
Q 1113 -78 717 272 
Q 322 622 266 1200 
z
" id="ArialMT-35" transform="scale(0.015625)"/>
       </defs>
       <use xlink:href="#ArialMT-32"/>
       <use x="55.615234" xlink:href="#ArialMT-35"/>
      </g>
     </g>
    </g>
    <g id="xtick_3">
     <g id="text_3">
      <!-- 50 -->
      <g style="fill:#262626;" transform="translate(275.042928 547.315194)scale(0.11 -0.11)">
       <use xlink:href="#ArialMT-35"/>
       <use x="55.615234" xlink:href="#ArialMT-30"/>
      </g>
     </g>
    </g>
    <g id="xtick_4">
     <g id="text_4">
      <!-- 75 -->
      <g style="fill:#262626;" transform="translate(348.135181 547.315194)scale(0.11 -0.11)">
       <defs>
        <path d="M 303 3981 
L 303 4522 
L 3269 4522 
L 3269 4084 
Q 2831 3619 2401 2847 
Q 1972 2075 1738 1259 
Q 1569 684 1522 0 
L 944 0 
Q 953 541 1156 1306 
Q 1359 2072 1739 2783 
Q 2119 3494 2547 3981 
L 303 3981 
z
" id="ArialMT-37" transform="scale(0.015625)"/>
       </defs>
       <use xlink:href="#ArialMT-37"/>
       <use x="55.615234" xlink:href="#ArialMT-35"/>
      </g>
     </g>
    </g>
    <g id="xtick_5">
     <g id="text_5">
      <!-- 100 -->
      <g style="fill:#262626;" transform="translate(418.168918 547.315194)scale(0.11 -0.11)">
       <defs>
        <path d="M 2384 0 
L 1822 0 
L 1822 3584 
Q 1619 3391 1289 3197 
Q 959 3003 697 2906 
L 697 3450 
Q 1169 3672 1522 3987 
Q 1875 4303 2022 4600 
L 2384 4600 
L 2384 0 
z
" id="ArialMT-31" transform="scale(0.015625)"/>
       </defs>
       <use xlink:href="#ArialMT-31"/>
       <use x="55.615234" xlink:href="#ArialMT-30"/>
       <use x="111.230469" xlink:href="#ArialMT-30"/>
      </g>
     </g>
    </g>
    <g id="xtick_6">
     <g id="text_6">
      <!-- 125 -->
      <g style="fill:#262626;" transform="translate(491.261171 547.315194)scale(0.11 -0.11)">
       <use xlink:href="#ArialMT-31"/>
       <use x="55.615234" xlink:href="#ArialMT-32"/>
       <use x="111.230469" xlink:href="#ArialMT-35"/>
      </g>
     </g>
    </g>
    <g id="xtick_7">
     <g id="text_7">
      <!-- 150 -->
      <g style="fill:#262626;" transform="translate(564.353423 547.315194)scale(0.11 -0.11)">
       <use xlink:href="#ArialMT-31"/>
       <use x="55.615234" xlink:href="#ArialMT-35"/>
       <use x="111.230469" xlink:href="#ArialMT-30"/>
      </g>
     </g>
    </g>
    <g id="xtick_8">
     <g id="text_8">
      <!-- 175 -->
      <g style="fill:#262626;" transform="translate(637.445676 547.315194)scale(0.11 -0.11)">
       <use xlink:href="#ArialMT-31"/>
       <use x="55.615234" xlink:href="#ArialMT-37"/>
       <use x="111.230469" xlink:href="#ArialMT-35"/>
      </g>
     </g>
    </g>
    <g id="xtick_9">
     <g id="text_9">
      <!-- 200 -->
      <g style="fill:#262626;" transform="translate(710.537928 547.315194)scale(0.11 -0.11)">
       <use xlink:href="#ArialMT-32"/>
       <use x="55.615234" xlink:href="#ArialMT-30"/>
       <use x="111.230469" xlink:href="#ArialMT-30"/>
      </g>
     </g>
    </g>
   </g>
   <g id="matplotlib.axis_2">
    <g id="ytick_1">
     <g id="text_10">
      <!-- −25 -->
      <g style="fill:#262626;" transform="translate(77.14125 533.878397)scale(0.11 -0.11)">
       <defs>
        <path d="M 3381 1997 
L 356 1997 
L 356 2522 
L 3381 2522 
L 3381 1997 
z
" id="ArialMT-2212" transform="scale(0.015625)"/>
       </defs>
       <use xlink:href="#ArialMT-2212"/>
       <use x="58.398438" xlink:href="#ArialMT-32"/>
       <use x="114.013672" xlink:href="#ArialMT-35"/>
      </g>
     </g>
    </g>
    <g id="ytick_2">
     <g id="text_11">
      <!-- −20 -->
      <g style="fill:#262626;" transform="translate(77.14125 442.180637)scale(0.11 -0.11)">
       <use xlink:href="#ArialMT-2212"/>
       <use x="58.398438" xlink:href="#ArialMT-32"/>
       <use x="114.013672" xlink:href="#ArialMT-30"/>
      </g>
     </g>
    </g>
    <g id="ytick_3">
     <g id="text_12">
      <!-- −15 -->
      <g style="fill:#262626;" transform="translate(77.14125 350.482877)scale(0.11 -0.11)">
       <use xlink:href="#ArialMT-2212"/>
       <use x="58.398438" xlink:href="#ArialMT-31"/>
       <use x="114.013672" xlink:href="#ArialMT-35"/>
      </g>
     </g>
    </g>
    <g id="ytick_4">
     <g id="text_13">
      <!-- −10 -->
      <g style="fill:#262626;" transform="translate(77.14125 258.785117)scale(0.11 -0.11)">
       <use xlink:href="#ArialMT-2212"/>
       <use x="58.398438" xlink:href="#ArialMT-31"/>
       <use x="114.013672" xlink:href="#ArialMT-30"/>
      </g>
     </g>
    </g>
    <g id="ytick_5">
     <g id="text_14">
      <!-- −5 -->
      <g style="fill:#262626;" transform="translate(83.258281 167.087357)scale(0.11 -0.11)">
       <use xlink:href="#ArialMT-2212"/>
       <use x="58.398438" xlink:href="#ArialMT-35"/>
      </g>
     </g>
    </g>
    <g id="ytick_6">
     <g id="text_15">
      <!-- 0 -->
      <g style="fill:#262626;" transform="translate(89.682969 75.389597)scale(0.11 -0.11)">
       <use xlink:href="#ArialMT-30"/>
      </g>
     </g>
    </g>
   </g>
   <g id="line2d_1">
    <path clip-path="url(#pce9e7e61ef)" d="M 134.975455 329.961558 
L 137.899145 328.943397 
L 140.822835 330.650295 
L 143.746525 330.332328 
L 146.670215 329.899451 
L 149.593905 332.156705 
L 152.517595 333.385393 
L 155.441285 336.993746 
L 158.364975 337.578593 
L 161.288665 339.669098 
L 164.212356 342.867749 
L 167.136046 341.54243 
L 170.059736 366.486138 
L 172.983426 379.485061 
L 175.907116 394.910926 
L 178.830806 430.011071 
L 181.754496 443.759684 
L 184.678186 360.536491 
L 187.601876 304.536316 
L 190.525567 407.501633 
L 193.449257 403.487862 
L 196.372947 395.772586 
L 199.296637 431.712949 
L 202.220327 364.412039 
L 205.144017 336.936939 
L 208.067707 310.93117 
L 210.991397 71.453526 
L 213.915087 224.74231 
L 216.838777 401.540285 
L 219.762468 429.286812 
L 222.686158 398.545724 
L 225.609848 395.434015 
L 228.533538 394.289927 
L 231.457228 397.280605 
L 234.380918 273.767804 
L 237.304608 344.678642 
L 240.228298 418.377135 
L 243.151988 383.189609 
L 246.075678 366.148722 
L 248.999369 337.63547 
L 251.923059 332.837012 
L 254.846749 324.256595 
L 257.770439 398.20509 
L 260.694129 364.086796 
L 263.617819 372.489252 
L 266.541509 158.442927 
L 269.465199 71.526616 
L 275.312579 71.454505 
L 281.15996 71.46134 
L 284.08365 72.770999 
L 287.00734 146.54958 
L 289.93103 326.851074 
L 295.77841 447.661099 
L 298.7021 498.468278 
L 301.62579 436.224274 
L 304.549481 379.289453 
L 307.473171 333.875006 
L 310.396861 358.018147 
L 313.320551 332.058569 
L 316.244241 353.94979 
L 319.167931 360.01961 
L 322.091621 376.204714 
L 325.015311 316.843249 
L 327.939001 365.242007 
L 330.862691 368.936517 
L 333.786382 316.958193 
L 336.710072 315.764538 
L 339.633762 404.87688 
L 342.557452 442.11073 
L 345.481142 388.287758 
L 348.404832 424.959376 
L 351.328522 374.60942 
L 354.252212 184.315877 
L 357.175902 71.453097 
L 360.099592 71.456901 
L 363.023283 283.236658 
L 365.946973 304.151834 
L 368.870663 395.914779 
L 371.794353 406.979593 
L 374.718043 366.710499 
L 377.641733 362.373112 
L 383.489113 406.416626 
L 386.412803 322.368904 
L 389.336494 332.84957 
L 392.260184 348.326453 
L 398.107564 265.848823 
L 401.031254 308.643151 
L 403.954944 336.433823 
L 406.878634 345.491418 
L 409.802324 324.610837 
L 412.726014 301.935122 
L 415.649704 376.050558 
L 418.573395 294.523769 
L 421.497085 262.789916 
L 424.420775 361.762957 
L 427.344465 379.717712 
L 430.268155 470.559129 
L 433.191845 462.882646 
L 436.115535 336.505409 
L 439.039225 365.608142 
L 441.962915 392.251158 
L 444.886605 359.140023 
L 447.810296 295.689807 
L 450.733986 300.48377 
L 453.657676 237.145997 
L 456.581366 71.459148 
L 459.505056 204.269744 
L 462.428746 71.47668 
L 465.352436 212.763157 
L 468.276126 309.254565 
L 471.199816 316.602814 
L 474.123506 327.980435 
L 477.047197 288.578354 
L 479.970887 242.651294 
L 482.894577 336.075488 
L 485.818267 333.681515 
L 488.741957 385.498984 
L 491.665647 354.796269 
L 494.589337 331.558164 
L 497.513027 459.637104 
L 500.436717 418.006313 
L 503.360408 296.141538 
L 506.284098 329.147051 
L 509.207788 412.34894 
L 512.131478 414.604585 
L 515.055168 409.990209 
L 517.978858 343.671465 
L 520.902548 421.133972 
L 523.826238 431.074775 
L 526.749928 360.778307 
L 529.673618 360.835972 
L 532.597309 429.460732 
L 535.520999 425.109195 
L 538.444689 404.226953 
L 541.368379 447.360551 
L 547.215759 286.017527 
L 550.139449 380.96674 
L 553.063139 336.928788 
L 555.986829 424.011735 
L 558.910519 357.828241 
L 561.83421 324.764312 
L 564.7579 329.129456 
L 567.68159 304.944602 
L 570.60528 329.997937 
L 573.52897 317.717065 
L 576.45266 291.071846 
L 579.37635 342.220218 
L 582.30004 380.236989 
L 585.22373 371.703743 
L 588.147421 398.299745 
L 591.071111 370.258548 
L 593.994801 365.311757 
L 596.918491 293.552709 
L 599.842181 317.707008 
L 602.765871 387.77866 
L 605.689561 368.880619 
L 608.613251 361.685109 
L 611.536941 411.186872 
L 614.460631 431.403342 
L 617.384322 364.406757 
L 620.308012 437.621337 
L 623.231702 432.963271 
L 626.155392 426.506468 
L 629.079082 347.957397 
L 632.002772 274.235188 
L 634.926462 265.201344 
L 637.850152 297.254931 
L 640.773842 333.313789 
L 643.697532 318.158424 
L 646.621223 299.51773 
L 652.468603 435.819732 
L 655.392293 375.923021 
L 658.315983 351.932253 
L 661.239673 397.733176 
L 664.163363 337.183687 
L 667.087053 389.766954 
L 670.010743 385.260071 
L 672.934433 353.54439 
L 675.858124 408.386275 
L 678.781814 386.054255 
L 681.705504 459.827465 
L 684.629194 457.932218 
L 687.552884 408.581568 
L 690.476574 474.887195 
L 693.400264 388.824874 
L 696.323954 390.308478 
L 699.247644 375.622229 
L 702.171335 355.332703 
L 705.095025 361.263601 
L 708.018715 355.365322 
L 710.942405 355.960593 
L 713.866095 355.644147 
L 716.789785 356.854557 
L 719.713475 354.778569 
L 722.637165 355.392764 
L 725.560855 357.208869 
L 728.484545 356.307454 
L 728.484545 356.307454 
" style="fill:none;stroke:#4c72b0;stroke-linecap:round;stroke-width:1.5;"/>
   </g>
   <g id="line2d_2">
    <path clip-path="url(#pce9e7e61ef)" d="M 134.975455 328.909607 
L 137.899145 328.941281 
L 140.822835 330.352808 
L 143.746525 330.996806 
L 146.670215 332.352208 
L 149.593905 333.861049 
L 152.517595 333.746473 
L 155.441285 337.824117 
L 161.288665 335.919705 
L 164.212356 335.673866 
L 167.136046 332.65816 
L 170.059736 353.04778 
L 172.983426 356.954233 
L 175.907116 376.668548 
L 178.830806 415.275605 
L 181.754496 418.712697 
L 184.678186 353.787605 
L 187.601876 284.349247 
L 190.525567 404.716077 
L 193.449257 394.892421 
L 196.372947 385.70603 
L 199.296637 409.713203 
L 202.220327 354.172245 
L 205.144017 344.345721 
L 208.067707 311.600318 
L 210.991397 71.453071 
L 213.915087 164.076968 
L 216.838777 390.13085 
L 219.762468 402.83748 
L 222.686158 388.192298 
L 225.609848 363.806851 
L 228.533538 363.061884 
L 231.457228 376.28174 
L 234.380918 270.662007 
L 237.304608 326.837589 
L 240.228298 397.731741 
L 243.151988 369.117118 
L 246.075678 352.143252 
L 248.999369 355.127214 
L 251.923059 346.803812 
L 254.846749 330.862011 
L 257.770439 401.908274 
L 260.694129 371.946783 
L 263.617819 366.776786 
L 266.541509 155.766972 
L 269.465199 71.572295 
L 272.388889 71.455791 
L 281.15996 71.456079 
L 284.08365 72.43434 
L 287.00734 151.871565 
L 289.93103 336.891325 
L 292.85472 422.660426 
L 295.77841 425.778046 
L 298.7021 492.182421 
L 301.62579 427.487375 
L 304.549481 378.838247 
L 307.473171 341.720915 
L 310.396861 346.186731 
L 313.320551 338.260719 
L 316.244241 371.221265 
L 319.167931 351.88977 
L 322.091621 350.009127 
L 325.015311 287.286441 
L 327.939001 354.893303 
L 330.862691 336.794133 
L 333.786382 270.259266 
L 336.710072 329.518572 
L 339.633762 398.148667 
L 342.557452 429.383182 
L 345.481142 347.550861 
L 351.328522 368.006051 
L 354.252212 75.145949 
L 357.175902 71.650417 
L 360.099592 83.608772 
L 363.023283 188.33758 
L 365.946973 309.312982 
L 368.870663 265.198773 
L 371.794353 282.484643 
L 374.718043 276.647176 
L 377.641733 292.83597 
L 380.565423 339.303837 
L 383.489113 331.87802 
L 386.412803 321.691151 
L 389.336494 332.58876 
L 392.260184 344.249351 
L 395.183874 286.751808 
L 398.107564 243.509457 
L 401.031254 286.549134 
L 403.954944 335.762103 
L 406.878634 321.393192 
L 409.802324 314.253528 
L 412.726014 295.720327 
L 415.649704 357.487781 
L 418.573395 242.725312 
L 421.497085 233.376386 
L 424.420775 308.159116 
L 427.344465 346.411162 
L 430.268155 436.826279 
L 433.191845 428.194529 
L 436.115535 310.397866 
L 439.039225 389.686955 
L 441.962915 389.922439 
L 444.886605 315.96611 
L 447.810296 247.166817 
L 450.733986 333.770032 
L 453.657676 257.578975 
L 456.581366 71.461088 
L 459.505056 196.646413 
L 462.428746 71.529053 
L 465.352436 204.168713 
L 468.276126 284.32686 
L 471.199816 315.750126 
L 474.123506 317.301731 
L 477.047197 324.134166 
L 479.970887 235.722542 
L 482.894577 324.195328 
L 485.818267 336.773775 
L 488.741957 396.274933 
L 491.665647 376.461747 
L 494.589337 351.065748 
L 497.513027 462.328599 
L 500.436717 414.042738 
L 503.360408 293.255187 
L 506.284098 344.425877 
L 509.207788 409.790999 
L 512.131478 394.592049 
L 515.055168 411.411828 
L 517.978858 357.717057 
L 520.902548 406.022367 
L 523.826238 426.273712 
L 526.749928 372.394526 
L 529.673618 355.151735 
L 532.597309 416.431796 
L 535.520999 426.907967 
L 538.444689 386.213973 
L 541.368379 392.362918 
L 544.292069 329.295558 
L 547.215759 223.033226 
L 550.139449 324.577396 
L 553.063139 315.040244 
L 555.986829 317.876363 
L 558.910519 161.755237 
L 561.83421 115.883988 
L 564.7579 175.295588 
L 567.68159 263.4021 
L 570.60528 400.969728 
L 573.52897 246.536689 
L 576.45266 220.903666 
L 579.37635 276.000817 
L 582.30004 259.371871 
L 585.22373 317.360357 
L 588.147421 308.752901 
L 593.994801 362.138134 
L 596.918491 295.476587 
L 599.842181 353.681162 
L 602.765871 371.791088 
L 605.689561 370.780693 
L 608.613251 395.798646 
L 611.536941 391.496466 
L 614.460631 406.256663 
L 617.384322 395.04322 
L 620.308012 441.253162 
L 623.231702 422.047228 
L 626.155392 438.683817 
L 629.079082 315.55667 
L 632.002772 268.154157 
L 634.926462 243.055767 
L 637.850152 290.344368 
L 640.773842 340.266642 
L 643.697532 300.466595 
L 646.621223 272.585203 
L 649.544913 363.766677 
L 652.468603 427.003358 
L 655.392293 396.456583 
L 658.315983 312.508782 
L 661.239673 388.874231 
L 664.163363 346.3723 
L 667.087053 398.028861 
L 670.010743 390.095695 
L 672.934433 339.522969 
L 675.858124 404.341477 
L 678.781814 389.843035 
L 681.705504 444.763397 
L 684.629194 458.968078 
L 687.552884 398.967862 
L 690.476574 445.050967 
L 693.400264 390.562817 
L 696.323954 385.465648 
L 702.171335 331.150543 
L 705.095025 337.136009 
L 708.018715 336.306426 
L 710.942405 340.820602 
L 713.866095 337.934531 
L 716.789785 338.942128 
L 719.713475 336.404877 
L 722.637165 339.646361 
L 725.560855 340.825726 
L 728.484545 338.641458 
L 728.484545 338.641458 
" style="fill:none;stroke:#dd8452;stroke-dasharray:6,2.25;stroke-dashoffset:0;stroke-width:1.5;"/>
   </g>
   <g id="line2d_3">
    <path clip-path="url(#pce9e7e61ef)" d="M 134.975455 329.375539 
L 137.899145 330.31914 
L 140.822835 330.660159 
L 143.746525 329.990661 
L 146.670215 336.500389 
L 149.593905 336.793189 
L 152.517595 336.429345 
L 155.441285 357.798053 
L 158.364975 356.693545 
L 161.288665 346.696021 
L 164.212356 346.189442 
L 167.136046 338.549303 
L 170.059736 345.406976 
L 172.983426 357.059645 
L 175.907116 379.189516 
L 178.830806 405.402803 
L 181.754496 408.030179 
L 184.678186 284.616144 
L 187.601876 259.225077 
L 190.525567 273.555563 
L 193.449257 335.97165 
L 196.372947 345.727113 
L 199.296637 369.885907 
L 202.220327 407.327713 
L 205.144017 335.347084 
L 208.067707 281.794017 
L 210.991397 71.52443 
L 213.915087 71.577605 
L 216.838777 185.397693 
L 219.762468 354.065311 
L 222.686158 340.58008 
L 225.609848 291.641633 
L 228.533538 314.453211 
L 231.457228 330.023263 
L 234.380918 280.914656 
L 237.304608 346.913911 
L 240.228298 417.013652 
L 243.151988 387.372893 
L 246.075678 319.647414 
L 248.999369 388.84135 
L 251.923059 371.562354 
L 254.846749 343.850038 
L 257.770439 410.486749 
L 260.694129 357.185048 
L 263.617819 355.013022 
L 266.541509 89.875147 
L 269.465199 71.515166 
L 272.388889 71.537838 
L 275.312579 71.721059 
L 278.23627 71.628787 
L 281.15996 77.824583 
L 284.08365 126.856261 
L 287.00734 132.791274 
L 289.93103 304.431324 
L 292.85472 328.64745 
L 298.7021 457.936135 
L 301.62579 430.305672 
L 304.549481 390.057812 
L 307.473171 341.034119 
L 310.396861 352.201896 
L 313.320551 368.331364 
L 316.244241 393.779045 
L 319.167931 388.24893 
L 322.091621 348.690349 
L 325.015311 292.626178 
L 327.939001 339.939213 
L 330.862691 353.124509 
L 333.786382 284.147658 
L 336.710072 367.733592 
L 339.633762 446.244692 
L 342.557452 469.407835 
L 345.481142 405.373594 
L 348.404832 460.25401 
L 351.328522 429.275583 
L 354.252212 139.121996 
L 357.175902 110.796399 
L 360.099592 157.770062 
L 363.023283 129.428929 
L 365.946973 220.888905 
L 368.870663 218.469641 
L 371.794353 192.142827 
L 374.718043 255.32786 
L 377.641733 293.463877 
L 380.565423 288.720023 
L 383.489113 270.195095 
L 386.412803 292.251001 
L 389.336494 311.993475 
L 392.260184 336.275993 
L 395.183874 242.759802 
L 398.107564 250.319242 
L 401.031254 217.411 
L 403.954944 272.985741 
L 406.878634 270.083404 
L 409.802324 339.865353 
L 412.726014 312.71331 
L 415.649704 411.592954 
L 418.573395 312.396916 
L 421.497085 294.219549 
L 424.420775 356.487356 
L 427.344465 350.092869 
L 430.268155 427.394153 
L 433.191845 369.605438 
L 436.115535 273.50012 
L 439.039225 359.854785 
L 441.962915 307.777276 
L 444.886605 314.331236 
L 447.810296 319.561084 
L 450.733986 286.457942 
L 453.657676 113.431117 
L 456.581366 71.504955 
L 459.505056 225.619327 
L 462.428746 71.529186 
L 465.352436 202.111054 
L 468.276126 283.780054 
L 471.199816 294.739088 
L 474.123506 260.752073 
L 477.047197 318.058748 
L 479.970887 240.430314 
L 482.894577 265.513208 
L 485.818267 282.268362 
L 488.741957 367.617389 
L 491.665647 317.346242 
L 494.589337 337.934461 
L 497.513027 409.233139 
L 500.436717 369.262215 
L 503.360408 330.994567 
L 506.284098 300.744003 
L 509.207788 349.431871 
L 512.131478 299.12076 
L 515.055168 302.77513 
L 517.978858 287.884265 
L 520.902548 216.954573 
L 523.826238 284.43542 
L 526.749928 376.961015 
L 529.673618 334.877828 
L 532.597309 364.273099 
L 535.520999 404.070033 
L 538.444689 341.708585 
L 541.368379 265.514922 
L 544.292069 144.206691 
L 547.215759 74.660984 
L 550.139449 153.47981 
L 553.063139 185.75921 
L 555.986829 269.244148 
L 558.910519 312.003882 
L 561.83421 234.51117 
L 564.7579 250.072879 
L 567.68159 315.954741 
L 570.60528 372.069808 
L 573.52897 345.051143 
L 576.45266 352.141485 
L 579.37635 323.940552 
L 582.30004 313.171057 
L 585.22373 385.881839 
L 588.147421 349.526894 
L 591.071111 195.255471 
L 593.994801 239.922511 
L 596.918491 244.475532 
L 599.842181 299.937891 
L 602.765871 306.327445 
L 605.689561 393.364743 
L 608.613251 372.497717 
L 611.536941 401.299938 
L 614.460631 431.203152 
L 617.384322 377.751386 
L 620.308012 446.103058 
L 623.231702 429.076653 
L 626.155392 426.758568 
L 629.079082 335.891354 
L 632.002772 296.935722 
L 634.926462 249.434285 
L 640.773842 341.592189 
L 643.697532 323.700362 
L 646.621223 290.879561 
L 649.544913 328.250061 
L 652.468603 315.458306 
L 655.392293 403.740942 
L 658.315983 283.63389 
L 661.239673 259.362811 
L 664.163363 229.693263 
L 667.087053 295.10092 
L 670.010743 289.889944 
L 672.934433 308.777509 
L 675.858124 442.93818 
L 681.705504 376.890321 
L 684.629194 416.958069 
L 687.552884 439.645066 
L 690.476574 434.626287 
L 693.400264 398.069193 
L 696.323954 390.571562 
L 699.247644 370.682574 
L 702.171335 335.341679 
L 705.095025 328.729478 
L 708.018715 329.096732 
L 710.942405 333.385078 
L 713.866095 327.343906 
L 716.789785 332.038088 
L 719.713475 327.318213 
L 722.637165 331.106993 
L 725.560855 332.203421 
L 728.484545 327.278178 
L 728.484545 327.278178 
" style="fill:none;stroke:#55a868;stroke-dasharray:1.5,1.5;stroke-dashoffset:0;stroke-width:1.5;"/>
   </g>
   <g id="line2d_4">
    <path clip-path="url(#pce9e7e61ef)" d="M 134.975455 328.344209 
L 137.899145 328.400841 
L 140.822835 329.83145 
L 143.746525 330.413971 
L 146.670215 331.762219 
L 149.593905 333.485155 
L 152.517595 333.357881 
L 155.441285 337.604408 
L 158.364975 336.762406 
L 161.288665 336.082169 
L 164.212356 335.787708 
L 167.136046 332.845565 
L 170.059736 353.493949 
L 172.983426 357.309943 
L 175.907116 377.025133 
L 178.830806 415.865437 
L 181.754496 419.842094 
L 184.678186 355.139579 
L 187.601876 284.642361 
L 190.525567 405.59103 
L 193.449257 397.962574 
L 196.372947 386.706316 
L 199.296637 411.976964 
L 202.220327 354.612852 
L 205.144017 335.998742 
L 208.067707 305.997322 
L 210.991397 71.453235 
L 213.915087 185.617533 
L 216.838777 387.214749 
L 219.762468 405.199674 
L 222.686158 389.241135 
L 225.609848 364.100665 
L 228.533538 364.135802 
L 231.457228 379.716698 
L 234.380918 270.596595 
L 237.304608 331.014471 
L 240.228298 403.684029 
L 243.151988 371.835582 
L 246.075678 353.932615 
L 248.999369 355.151805 
L 251.923059 348.424991 
L 254.846749 330.924922 
L 257.770439 400.2072 
L 260.694129 371.226792 
L 263.617819 366.349542 
L 266.541509 150.341211 
L 269.465199 71.568756 
L 272.388889 71.455629 
L 281.15996 71.457305 
L 284.08365 72.824697 
L 287.00734 160.776333 
L 289.93103 339.720763 
L 292.85472 415.523403 
L 295.77841 426.000973 
L 298.7021 490.47764 
L 301.62579 426.337025 
L 307.473171 340.642257 
L 310.396861 349.803445 
L 313.320551 335.737565 
L 316.244241 371.953814 
L 319.167931 355.07714 
L 322.091621 358.096659 
L 325.015311 285.170086 
L 327.939001 351.065171 
L 330.862691 354.398495 
L 333.786382 283.628136 
L 336.710072 345.532309 
L 339.633762 428.723006 
L 342.557452 442.582574 
L 345.481142 355.053896 
L 348.404832 343.875258 
L 351.328522 419.379554 
L 354.252212 71.489586 
L 357.175902 71.454026 
L 360.099592 77.016584 
L 363.023283 341.274396 
L 365.946973 323.472748 
L 368.870663 265.647251 
L 371.794353 277.117044 
L 374.718043 309.460544 
L 377.641733 286.250756 
L 380.565423 343.025159 
L 383.489113 327.442357 
L 386.412803 324.650627 
L 389.336494 327.429729 
L 392.260184 339.940699 
L 395.183874 285.679341 
L 398.107564 244.751943 
L 401.031254 290.50594 
L 403.954944 332.491918 
L 406.878634 313.57072 
L 409.802324 315.775679 
L 412.726014 294.492584 
L 415.649704 362.305356 
L 418.573395 241.807369 
L 421.497085 239.546966 
L 424.420775 319.535793 
L 427.344465 352.648729 
L 430.268155 435.645287 
L 433.191845 425.418942 
L 436.115535 311.591731 
L 439.039225 387.07364 
L 441.962915 390.123189 
L 444.886605 311.433954 
L 447.810296 245.404546 
L 450.733986 328.238605 
L 453.657676 267.84789 
L 456.581366 71.458844 
L 459.505056 199.760141 
L 462.428746 71.526176 
L 465.352436 214.660092 
L 468.276126 290.810546 
L 471.199816 314.273589 
L 474.123506 317.809184 
L 477.047197 324.682703 
L 479.970887 235.204682 
L 482.894577 323.944819 
L 485.818267 336.184416 
L 488.741957 394.582044 
L 491.665647 376.912988 
L 494.589337 351.038971 
L 497.513027 463.788311 
L 500.436717 413.694688 
L 503.360408 290.550592 
L 506.284098 339.888439 
L 509.207788 411.351873 
L 512.131478 393.918335 
L 515.055168 406.31403 
L 517.978858 346.75108 
L 520.902548 401.086071 
L 523.826238 428.808287 
L 526.749928 370.908789 
L 529.673618 352.177725 
L 532.597309 414.049909 
L 535.520999 434.358445 
L 538.444689 388.921279 
L 541.368379 397.299599 
L 544.292069 325.005043 
L 547.215759 209.756099 
L 550.139449 340.507514 
L 553.063139 291.889781 
L 555.986829 331.275631 
L 558.910519 291.549304 
L 561.83421 264.035603 
L 564.7579 273.099006 
L 567.68159 215.304387 
L 570.60528 371.344814 
L 573.52897 281.220976 
L 576.45266 239.471777 
L 579.37635 316.331388 
L 582.30004 310.819969 
L 585.22373 385.124139 
L 588.147421 332.01738 
L 591.071111 343.318098 
L 593.994801 386.744339 
L 596.918491 323.324223 
L 599.842181 364.264808 
L 602.765871 398.621316 
L 605.689561 378.564669 
L 608.613251 391.096785 
L 611.536941 396.029479 
L 614.460631 419.068723 
L 617.384322 398.85813 
L 620.308012 442.509186 
L 623.231702 425.724737 
L 626.155392 438.555546 
L 629.079082 319.106537 
L 632.002772 269.004116 
L 634.926462 249.925124 
L 637.850152 293.312292 
L 640.773842 342.46569 
L 643.697532 299.89184 
L 646.621223 274.139203 
L 649.544913 362.988496 
L 652.468603 427.68746 
L 655.392293 395.77444 
L 658.315983 313.478425 
L 661.239673 390.251565 
L 664.163363 345.919607 
L 667.087053 395.541824 
L 670.010743 390.955501 
L 672.934433 341.114503 
L 675.858124 404.048835 
L 678.781814 390.288609 
L 681.705504 442.910126 
L 684.629194 458.570496 
L 687.552884 399.045412 
L 690.476574 445.609702 
L 693.400264 390.850072 
L 696.323954 384.833036 
L 699.247644 358.948315 
L 702.171335 330.581804 
L 705.095025 336.95609 
L 708.018715 337.116543 
L 710.942405 342.499096 
L 713.866095 340.294364 
L 716.789785 340.590486 
L 719.713475 338.040293 
L 722.637165 341.68611 
L 725.560855 342.407606 
L 728.484545 341.728296 
L 728.484545 341.728296 
" style="fill:none;stroke:#c44e52;stroke-dasharray:4.5,1.875,2.25,1.875;stroke-dashoffset:0;stroke-width:1.5;"/>
   </g>
   <g id="line2d_5">
    <path clip-path="url(#pce9e7e61ef)" d="M 134.975455 329.263254 
L 137.899145 329.36216 
L 140.822835 330.769069 
L 143.746525 331.56154 
L 146.670215 332.798814 
L 149.593905 334.606034 
L 152.517595 334.827964 
L 155.441285 339.207205 
L 158.364975 338.360517 
L 161.288665 338.267732 
L 164.212356 337.185716 
L 167.136046 334.225873 
L 170.059736 354.456596 
L 172.983426 357.994868 
L 175.907116 375.779673 
L 178.830806 415.321044 
L 181.754496 428.782541 
L 184.678186 352.577825 
L 187.601876 301.131423 
L 190.525567 405.725248 
L 193.449257 402.21113 
L 196.372947 396.748806 
L 199.296637 425.609338 
L 202.220327 359.931531 
L 205.144017 350.849852 
L 208.067707 314.890005 
L 210.991397 71.453255 
L 213.915087 175.288146 
L 216.838777 385.451061 
L 219.762468 402.568415 
L 222.686158 394.866746 
L 225.609848 384.280213 
L 228.533538 378.209029 
L 231.457228 380.58455 
L 234.380918 271.555027 
L 237.304608 331.200424 
L 240.228298 406.07893 
L 243.151988 374.263224 
L 246.075678 355.050276 
L 248.999369 352.31628 
L 251.923059 354.14085 
L 254.846749 339.649107 
L 257.770439 408.273815 
L 260.694129 369.9488 
L 263.617819 365.416487 
L 266.541509 149.015218 
L 269.465199 71.555971 
L 275.312579 71.454284 
L 281.15996 71.45494 
L 284.08365 72.181677 
L 287.00734 150.914925 
L 289.93103 333.166855 
L 292.85472 414.017902 
L 295.77841 428.135903 
L 298.7021 485.397716 
L 301.62579 421.620473 
L 304.549481 380.89811 
L 307.473171 338.192805 
L 310.396861 361.402804 
L 313.320551 341.073961 
L 316.244241 370.647734 
L 319.167931 365.235221 
L 322.091621 367.778576 
L 325.015311 296.19782 
L 327.939001 291.296539 
L 330.862691 262.912835 
L 333.786382 253.515795 
L 336.710072 339.331297 
L 339.633762 404.412311 
L 342.557452 417.013163 
L 345.481142 381.234652 
L 348.404832 398.853547 
L 351.328522 381.764038 
L 354.252212 244.690834 
L 357.175902 71.452898 
L 360.099592 71.459364 
L 363.023283 295.724665 
L 365.946973 305.098793 
L 368.870663 356.71002 
L 371.794353 323.269165 
L 374.718043 325.983589 
L 377.641733 350.113332 
L 380.565423 377.709585 
L 383.489113 383.133886 
L 386.412803 328.857277 
L 389.336494 337.645999 
L 392.260184 361.332214 
L 395.183874 309.119158 
L 398.107564 247.258692 
L 401.031254 306.900434 
L 403.954944 342.43461 
L 406.878634 321.890711 
L 409.802324 341.810586 
L 412.726014 312.890815 
L 415.649704 404.190119 
L 418.573395 281.725176 
L 421.497085 275.143547 
L 424.420775 353.36566 
L 427.344465 368.339374 
L 430.268155 446.846382 
L 433.191845 441.408893 
L 436.115535 325.490582 
L 439.039225 391.766931 
L 441.962915 394.627903 
L 444.886605 327.758313 
L 447.810296 265.243705 
L 450.733986 334.840277 
L 453.657676 269.234896 
L 456.581366 71.45892 
L 459.505056 185.4375 
L 462.428746 71.548698 
L 465.352436 215.738488 
L 468.276126 302.520161 
L 471.199816 314.370798 
L 474.123506 324.467787 
L 477.047197 308.463652 
L 479.970887 240.098442 
L 482.894577 326.338355 
L 485.818267 340.108988 
L 488.741957 221.254935 
L 491.665647 354.348981 
L 494.589337 318.247675 
L 497.513027 400.979417 
L 500.436717 326.730008 
L 503.360408 298.397253 
L 506.284098 319.997983 
L 509.207788 270.994771 
L 512.131478 356.284699 
L 515.055168 310.435977 
L 517.978858 312.645886 
L 520.902548 337.447436 
L 523.826238 356.60167 
L 526.749928 384.089643 
L 529.673618 395.384799 
L 532.597309 330.628503 
L 535.520999 333.871998 
L 538.444689 267.634093 
L 541.368379 260.339853 
L 544.292069 135.826582 
L 547.215759 88.82248 
L 550.139449 88.386475 
L 553.063139 119.596371 
L 555.986829 186.932419 
L 558.910519 159.857778 
L 561.83421 156.496522 
L 564.7579 158.951754 
L 567.68159 158.096364 
L 570.60528 262.662729 
L 573.52897 331.300799 
L 576.45266 277.446327 
L 579.37635 295.77208 
L 582.30004 258.437505 
L 585.22373 373.884531 
L 588.147421 340.628265 
L 591.071111 310.646294 
L 593.994801 362.440868 
L 596.918491 318.070169 
L 599.842181 352.919649 
L 602.765871 408.684234 
L 605.689561 385.211449 
L 608.613251 392.036206 
L 611.536941 406.497464 
L 614.460631 423.95986 
L 617.384322 400.945766 
L 620.308012 446.154724 
L 623.231702 424.257364 
L 626.155392 436.504429 
L 629.079082 330.042187 
L 632.002772 274.843961 
L 634.926462 253.643839 
L 637.850152 289.824112 
L 640.773842 330.584988 
L 643.697532 294.698826 
L 646.621223 267.721525 
L 649.544913 354.442849 
L 652.468603 418.684608 
L 655.392293 383.58859 
L 658.315983 320.72637 
L 661.239673 384.705114 
L 664.163363 344.225582 
L 667.087053 392.228141 
L 670.010743 386.910004 
L 672.934433 343.282733 
L 675.858124 396.200146 
L 678.781814 372.841325 
L 681.705504 442.597266 
L 684.629194 452.749278 
L 687.552884 397.717155 
L 690.476574 438.995489 
L 693.400264 388.739628 
L 696.323954 384.178492 
L 699.247644 362.0889 
L 702.171335 330.57626 
L 705.095025 337.798756 
L 708.018715 335.601458 
L 710.942405 339.349941 
L 713.866095 337.047283 
L 716.789785 338.727211 
L 719.713475 337.021608 
L 722.637165 336.297523 
L 725.560855 339.250021 
L 728.484545 335.822793 
L 728.484545 335.822793 
" style="fill:none;stroke:#8172b3;stroke-dasharray:7.5,1.5,1.5,1.5;stroke-dashoffset:0;stroke-width:1.5;"/>
   </g>
   <g id="line2d_6"/>
   <g id="line2d_7"/>
   <g id="line2d_8"/>
   <g id="line2d_9"/>
   <g id="line2d_10"/>
   <g id="patch_3">
    <path d="M 105.3 529.9416 
L 105.3 71.4528 
" style="fill:none;stroke:#262626;stroke-linecap:square;stroke-linejoin:miter;stroke-width:1.25;"/>
   </g>
   <g id="patch_4">
    <path d="M 758.16 529.9416 
L 758.16 71.4528 
" style="fill:none;stroke:#262626;stroke-linecap:square;stroke-linejoin:miter;stroke-width:1.25;"/>
   </g>
   <g id="patch_5">
    <path d="M 105.3 529.9416 
L 758.16 529.9416 
" style="fill:none;stroke:#262626;stroke-linecap:square;stroke-linejoin:miter;stroke-width:1.25;"/>
   </g>
   <g id="patch_6">
    <path d="M 105.3 71.4528 
L 758.16 71.4528 
" style="fill:none;stroke:#262626;stroke-linecap:square;stroke-linejoin:miter;stroke-width:1.25;"/>
   </g>
   <g id="text_16">
    <!-- Activations for &gt;L&lt; -->
    <g style="fill:#262626;" transform="translate(382.037813 65.4528)scale(0.12 -0.12)">
     <defs>
      <path d="M -9 0 
L 1750 4581 
L 2403 4581 
L 4278 0 
L 3588 0 
L 3053 1388 
L 1138 1388 
L 634 0 
L -9 0 
z
M 1313 1881 
L 2866 1881 
L 2388 3150 
Q 2169 3728 2063 4100 
Q 1975 3659 1816 3225 
L 1313 1881 
z
" id="ArialMT-41" transform="scale(0.015625)"/>
      <path d="M 2588 1216 
L 3141 1144 
Q 3050 572 2676 248 
Q 2303 -75 1759 -75 
Q 1078 -75 664 370 
Q 250 816 250 1647 
Q 250 2184 428 2587 
Q 606 2991 970 3192 
Q 1334 3394 1763 3394 
Q 2303 3394 2647 3120 
Q 2991 2847 3088 2344 
L 2541 2259 
Q 2463 2594 2264 2762 
Q 2066 2931 1784 2931 
Q 1359 2931 1093 2626 
Q 828 2322 828 1663 
Q 828 994 1084 691 
Q 1341 388 1753 388 
Q 2084 388 2306 591 
Q 2528 794 2588 1216 
z
" id="ArialMT-63" transform="scale(0.015625)"/>
      <path d="M 1650 503 
L 1731 6 
Q 1494 -44 1306 -44 
Q 1000 -44 831 53 
Q 663 150 594 308 
Q 525 466 525 972 
L 525 2881 
L 113 2881 
L 113 3319 
L 525 3319 
L 525 4141 
L 1084 4478 
L 1084 3319 
L 1650 3319 
L 1650 2881 
L 1084 2881 
L 1084 941 
Q 1084 700 1114 631 
Q 1144 563 1211 522 
Q 1278 481 1403 481 
Q 1497 481 1650 503 
z
" id="ArialMT-74" transform="scale(0.015625)"/>
      <path d="M 425 3934 
L 425 4581 
L 988 4581 
L 988 3934 
L 425 3934 
z
M 425 0 
L 425 3319 
L 988 3319 
L 988 0 
L 425 0 
z
" id="ArialMT-69" transform="scale(0.015625)"/>
      <path d="M 1344 0 
L 81 3319 
L 675 3319 
L 1388 1331 
Q 1503 1009 1600 663 
Q 1675 925 1809 1294 
L 2547 3319 
L 3125 3319 
L 1869 0 
L 1344 0 
z
" id="ArialMT-76" transform="scale(0.015625)"/>
      <path d="M 2588 409 
Q 2275 144 1986 34 
Q 1697 -75 1366 -75 
Q 819 -75 525 192 
Q 231 459 231 875 
Q 231 1119 342 1320 
Q 453 1522 633 1644 
Q 813 1766 1038 1828 
Q 1203 1872 1538 1913 
Q 2219 1994 2541 2106 
Q 2544 2222 2544 2253 
Q 2544 2597 2384 2738 
Q 2169 2928 1744 2928 
Q 1347 2928 1158 2789 
Q 969 2650 878 2297 
L 328 2372 
Q 403 2725 575 2942 
Q 747 3159 1072 3276 
Q 1397 3394 1825 3394 
Q 2250 3394 2515 3294 
Q 2781 3194 2906 3042 
Q 3031 2891 3081 2659 
Q 3109 2516 3109 2141 
L 3109 1391 
Q 3109 606 3145 398 
Q 3181 191 3288 0 
L 2700 0 
Q 2613 175 2588 409 
z
M 2541 1666 
Q 2234 1541 1622 1453 
Q 1275 1403 1131 1340 
Q 988 1278 909 1158 
Q 831 1038 831 891 
Q 831 666 1001 516 
Q 1172 366 1500 366 
Q 1825 366 2078 508 
Q 2331 650 2450 897 
Q 2541 1088 2541 1459 
L 2541 1666 
z
" id="ArialMT-61" transform="scale(0.015625)"/>
      <path d="M 213 1659 
Q 213 2581 725 3025 
Q 1153 3394 1769 3394 
Q 2453 3394 2887 2945 
Q 3322 2497 3322 1706 
Q 3322 1066 3130 698 
Q 2938 331 2570 128 
Q 2203 -75 1769 -75 
Q 1072 -75 642 372 
Q 213 819 213 1659 
z
M 791 1659 
Q 791 1022 1069 705 
Q 1347 388 1769 388 
Q 2188 388 2466 706 
Q 2744 1025 2744 1678 
Q 2744 2294 2464 2611 
Q 2184 2928 1769 2928 
Q 1347 2928 1069 2612 
Q 791 2297 791 1659 
z
" id="ArialMT-6f" transform="scale(0.015625)"/>
      <path d="M 422 0 
L 422 3319 
L 928 3319 
L 928 2847 
Q 1294 3394 1984 3394 
Q 2284 3394 2536 3286 
Q 2788 3178 2913 3003 
Q 3038 2828 3088 2588 
Q 3119 2431 3119 2041 
L 3119 0 
L 2556 0 
L 2556 2019 
Q 2556 2363 2490 2533 
Q 2425 2703 2258 2804 
Q 2091 2906 1866 2906 
Q 1506 2906 1245 2678 
Q 984 2450 984 1813 
L 984 0 
L 422 0 
z
" id="ArialMT-6e" transform="scale(0.015625)"/>
      <path d="M 197 991 
L 753 1078 
Q 800 744 1014 566 
Q 1228 388 1613 388 
Q 2000 388 2187 545 
Q 2375 703 2375 916 
Q 2375 1106 2209 1216 
Q 2094 1291 1634 1406 
Q 1016 1563 777 1677 
Q 538 1791 414 1992 
Q 291 2194 291 2438 
Q 291 2659 392 2848 
Q 494 3038 669 3163 
Q 800 3259 1026 3326 
Q 1253 3394 1513 3394 
Q 1903 3394 2198 3281 
Q 2494 3169 2634 2976 
Q 2775 2784 2828 2463 
L 2278 2388 
Q 2241 2644 2061 2787 
Q 1881 2931 1553 2931 
Q 1166 2931 1000 2803 
Q 834 2675 834 2503 
Q 834 2394 903 2306 
Q 972 2216 1119 2156 
Q 1203 2125 1616 2013 
Q 2213 1853 2448 1751 
Q 2684 1650 2818 1456 
Q 2953 1263 2953 975 
Q 2953 694 2789 445 
Q 2625 197 2315 61 
Q 2006 -75 1616 -75 
Q 969 -75 630 194 
Q 291 463 197 991 
z
" id="ArialMT-73" transform="scale(0.015625)"/>
      <path id="ArialMT-20" transform="scale(0.015625)"/>
      <path d="M 556 0 
L 556 2881 
L 59 2881 
L 59 3319 
L 556 3319 
L 556 3672 
Q 556 4006 616 4169 
Q 697 4388 901 4523 
Q 1106 4659 1475 4659 
Q 1713 4659 2000 4603 
L 1916 4113 
Q 1741 4144 1584 4144 
Q 1328 4144 1222 4034 
Q 1116 3925 1116 3625 
L 1116 3319 
L 1763 3319 
L 1763 2881 
L 1116 2881 
L 1116 0 
L 556 0 
z
" id="ArialMT-66" transform="scale(0.015625)"/>
      <path d="M 416 0 
L 416 3319 
L 922 3319 
L 922 2816 
Q 1116 3169 1280 3281 
Q 1444 3394 1641 3394 
Q 1925 3394 2219 3213 
L 2025 2691 
Q 1819 2813 1613 2813 
Q 1428 2813 1281 2702 
Q 1134 2591 1072 2394 
Q 978 2094 978 1738 
L 978 0 
L 416 0 
z
" id="ArialMT-72" transform="scale(0.015625)"/>
      <path d="M 3384 2003 
L 350 706 
L 350 1266 
L 2753 2263 
L 350 3250 
L 350 3809 
L 3384 2528 
L 3384 2003 
z
" id="ArialMT-3e" transform="scale(0.015625)"/>
      <path d="M 469 0 
L 469 4581 
L 1075 4581 
L 1075 541 
L 3331 541 
L 3331 0 
L 469 0 
z
" id="ArialMT-4c" transform="scale(0.015625)"/>
      <path d="M 350 2003 
L 350 2528 
L 3384 3809 
L 3384 3250 
L 978 2263 
L 3384 1266 
L 3384 706 
L 350 2003 
z
" id="ArialMT-3c" transform="scale(0.015625)"/>
     </defs>
     <use xlink:href="#ArialMT-41"/>
     <use x="66.699219" xlink:href="#ArialMT-63"/>
     <use x="116.699219" xlink:href="#ArialMT-74"/>
     <use x="144.482422" xlink:href="#ArialMT-69"/>
     <use x="166.699219" xlink:href="#ArialMT-76"/>
     <use x="216.699219" xlink:href="#ArialMT-61"/>
     <use x="272.314453" xlink:href="#ArialMT-74"/>
     <use x="300.097656" xlink:href="#ArialMT-69"/>
     <use x="322.314453" xlink:href="#ArialMT-6f"/>
     <use x="377.929688" xlink:href="#ArialMT-6e"/>
     <use x="433.544922" xlink:href="#ArialMT-73"/>
     <use x="483.544922" xlink:href="#ArialMT-20"/>
     <use x="511.328125" xlink:href="#ArialMT-66"/>
     <use x="539.111328" xlink:href="#ArialMT-6f"/>
     <use x="594.726562" xlink:href="#ArialMT-72"/>
     <use x="628.027344" xlink:href="#ArialMT-20"/>
     <use x="655.810547" xlink:href="#ArialMT-3e"/>
     <use x="714.208984" xlink:href="#ArialMT-4c"/>
     <use x="769.824219" xlink:href="#ArialMT-3c"/>
    </g>
   </g>
   <g id="legend_1">
    <g id="patch_7">
     <path d="M 640.044062 158.514363 
L 750.46 158.514363 
Q 752.66 158.514363 752.66 156.314363 
L 752.66 79.1528 
Q 752.66 76.9528 750.46 76.9528 
L 640.044062 76.9528 
Q 637.844062 76.9528 637.844062 79.1528 
L 637.844062 156.314363 
Q 637.844062 158.514363 640.044062 158.514363 
z
" style="fill:#ffffff;opacity:0.8;stroke:#cccccc;stroke-linejoin:miter;"/>
    </g>
    <g id="line2d_11">
     <path d="M 642.244062 85.376394 
L 664.244062 85.376394 
" style="fill:none;stroke:#4c72b0;stroke-linecap:round;stroke-width:1.5;"/>
    </g>
    <g id="line2d_12"/>
    <g id="text_17">
     <!-- regular -->
     <g style="fill:#262626;" transform="translate(673.044062 89.226394)scale(0.11 -0.11)">
      <defs>
       <path d="M 2694 1069 
L 3275 997 
Q 3138 488 2766 206 
Q 2394 -75 1816 -75 
Q 1088 -75 661 373 
Q 234 822 234 1631 
Q 234 2469 665 2931 
Q 1097 3394 1784 3394 
Q 2450 3394 2872 2941 
Q 3294 2488 3294 1666 
Q 3294 1616 3291 1516 
L 816 1516 
Q 847 969 1125 678 
Q 1403 388 1819 388 
Q 2128 388 2347 550 
Q 2566 713 2694 1069 
z
M 847 1978 
L 2700 1978 
Q 2663 2397 2488 2606 
Q 2219 2931 1791 2931 
Q 1403 2931 1139 2672 
Q 875 2413 847 1978 
z
" id="ArialMT-65" transform="scale(0.015625)"/>
       <path d="M 319 -275 
L 866 -356 
Q 900 -609 1056 -725 
Q 1266 -881 1628 -881 
Q 2019 -881 2231 -725 
Q 2444 -569 2519 -288 
Q 2563 -116 2559 434 
Q 2191 0 1641 0 
Q 956 0 581 494 
Q 206 988 206 1678 
Q 206 2153 378 2554 
Q 550 2956 876 3175 
Q 1203 3394 1644 3394 
Q 2231 3394 2613 2919 
L 2613 3319 
L 3131 3319 
L 3131 450 
Q 3131 -325 2973 -648 
Q 2816 -972 2473 -1159 
Q 2131 -1347 1631 -1347 
Q 1038 -1347 672 -1080 
Q 306 -813 319 -275 
z
M 784 1719 
Q 784 1066 1043 766 
Q 1303 466 1694 466 
Q 2081 466 2343 764 
Q 2606 1063 2606 1700 
Q 2606 2309 2336 2618 
Q 2066 2928 1684 2928 
Q 1309 2928 1046 2623 
Q 784 2319 784 1719 
z
" id="ArialMT-67" transform="scale(0.015625)"/>
       <path d="M 2597 0 
L 2597 488 
Q 2209 -75 1544 -75 
Q 1250 -75 995 37 
Q 741 150 617 320 
Q 494 491 444 738 
Q 409 903 409 1263 
L 409 3319 
L 972 3319 
L 972 1478 
Q 972 1038 1006 884 
Q 1059 663 1231 536 
Q 1403 409 1656 409 
Q 1909 409 2131 539 
Q 2353 669 2445 892 
Q 2538 1116 2538 1541 
L 2538 3319 
L 3100 3319 
L 3100 0 
L 2597 0 
z
" id="ArialMT-75" transform="scale(0.015625)"/>
       <path d="M 409 0 
L 409 4581 
L 972 4581 
L 972 0 
L 409 0 
z
" id="ArialMT-6c" transform="scale(0.015625)"/>
      </defs>
      <use xlink:href="#ArialMT-72"/>
      <use x="33.300781" xlink:href="#ArialMT-65"/>
      <use x="88.916016" xlink:href="#ArialMT-67"/>
      <use x="144.53125" xlink:href="#ArialMT-75"/>
      <use x="200.146484" xlink:href="#ArialMT-6c"/>
      <use x="222.363281" xlink:href="#ArialMT-61"/>
      <use x="277.978516" xlink:href="#ArialMT-72"/>
     </g>
    </g>
    <g id="line2d_13">
     <path d="M 642.244062 101.0978 
L 664.244062 101.0978 
" style="fill:none;stroke:#dd8452;stroke-dasharray:6,2.25;stroke-dashoffset:0;stroke-width:1.5;"/>
    </g>
    <g id="line2d_14"/>
    <g id="text_18">
     <!-- splitted_3s -->
     <g style="fill:#262626;" transform="translate(673.044062 104.9478)scale(0.11 -0.11)">
      <defs>
       <path d="M 422 -1272 
L 422 3319 
L 934 3319 
L 934 2888 
Q 1116 3141 1344 3267 
Q 1572 3394 1897 3394 
Q 2322 3394 2647 3175 
Q 2972 2956 3137 2557 
Q 3303 2159 3303 1684 
Q 3303 1175 3120 767 
Q 2938 359 2589 142 
Q 2241 -75 1856 -75 
Q 1575 -75 1351 44 
Q 1128 163 984 344 
L 984 -1272 
L 422 -1272 
z
M 931 1641 
Q 931 1000 1190 694 
Q 1450 388 1819 388 
Q 2194 388 2461 705 
Q 2728 1022 2728 1688 
Q 2728 2322 2467 2637 
Q 2206 2953 1844 2953 
Q 1484 2953 1207 2617 
Q 931 2281 931 1641 
z
" id="ArialMT-70" transform="scale(0.015625)"/>
       <path d="M 2575 0 
L 2575 419 
Q 2259 -75 1647 -75 
Q 1250 -75 917 144 
Q 584 363 401 755 
Q 219 1147 219 1656 
Q 219 2153 384 2558 
Q 550 2963 881 3178 
Q 1213 3394 1622 3394 
Q 1922 3394 2156 3267 
Q 2391 3141 2538 2938 
L 2538 4581 
L 3097 4581 
L 3097 0 
L 2575 0 
z
M 797 1656 
Q 797 1019 1065 703 
Q 1334 388 1700 388 
Q 2069 388 2326 689 
Q 2584 991 2584 1609 
Q 2584 2291 2321 2609 
Q 2059 2928 1675 2928 
Q 1300 2928 1048 2622 
Q 797 2316 797 1656 
z
" id="ArialMT-64" transform="scale(0.015625)"/>
       <path d="M -97 -1272 
L -97 -866 
L 3631 -866 
L 3631 -1272 
L -97 -1272 
z
" id="ArialMT-5f" transform="scale(0.015625)"/>
       <path d="M 269 1209 
L 831 1284 
Q 928 806 1161 595 
Q 1394 384 1728 384 
Q 2125 384 2398 659 
Q 2672 934 2672 1341 
Q 2672 1728 2419 1979 
Q 2166 2231 1775 2231 
Q 1616 2231 1378 2169 
L 1441 2663 
Q 1497 2656 1531 2656 
Q 1891 2656 2178 2843 
Q 2466 3031 2466 3422 
Q 2466 3731 2256 3934 
Q 2047 4138 1716 4138 
Q 1388 4138 1169 3931 
Q 950 3725 888 3313 
L 325 3413 
Q 428 3978 793 4289 
Q 1159 4600 1703 4600 
Q 2078 4600 2393 4439 
Q 2709 4278 2876 4000 
Q 3044 3722 3044 3409 
Q 3044 3113 2884 2869 
Q 2725 2625 2413 2481 
Q 2819 2388 3044 2092 
Q 3269 1797 3269 1353 
Q 3269 753 2831 336 
Q 2394 -81 1725 -81 
Q 1122 -81 723 278 
Q 325 638 269 1209 
z
" id="ArialMT-33" transform="scale(0.015625)"/>
      </defs>
      <use xlink:href="#ArialMT-73"/>
      <use x="50" xlink:href="#ArialMT-70"/>
      <use x="105.615234" xlink:href="#ArialMT-6c"/>
      <use x="127.832031" xlink:href="#ArialMT-69"/>
      <use x="150.048828" xlink:href="#ArialMT-74"/>
      <use x="177.832031" xlink:href="#ArialMT-74"/>
      <use x="205.615234" xlink:href="#ArialMT-65"/>
      <use x="261.230469" xlink:href="#ArialMT-64"/>
      <use x="316.845703" xlink:href="#ArialMT-5f"/>
      <use x="372.460938" xlink:href="#ArialMT-33"/>
      <use x="428.076172" xlink:href="#ArialMT-73"/>
     </g>
    </g>
    <g id="line2d_15">
     <path d="M 642.244062 116.6903 
L 664.244062 116.6903 
" style="fill:none;stroke:#55a868;stroke-dasharray:1.5,1.5;stroke-dashoffset:0;stroke-width:1.5;"/>
    </g>
    <g id="line2d_16"/>
    <g id="text_19">
     <!-- splitted_1s -->
     <g style="fill:#262626;" transform="translate(673.044062 120.5403)scale(0.11 -0.11)">
      <use xlink:href="#ArialMT-73"/>
      <use x="50" xlink:href="#ArialMT-70"/>
      <use x="105.615234" xlink:href="#ArialMT-6c"/>
      <use x="127.832031" xlink:href="#ArialMT-69"/>
      <use x="150.048828" xlink:href="#ArialMT-74"/>
      <use x="177.832031" xlink:href="#ArialMT-74"/>
      <use x="205.615234" xlink:href="#ArialMT-65"/>
      <use x="261.230469" xlink:href="#ArialMT-64"/>
      <use x="316.845703" xlink:href="#ArialMT-5f"/>
      <use x="372.460938" xlink:href="#ArialMT-31"/>
      <use x="428.076172" xlink:href="#ArialMT-73"/>
     </g>
    </g>
    <g id="line2d_17">
     <path d="M 642.244062 132.384206 
L 664.244062 132.384206 
" style="fill:none;stroke:#c44e52;stroke-dasharray:4.5,1.875,2.25,1.875;stroke-dashoffset:0;stroke-width:1.5;"/>
    </g>
    <g id="line2d_18"/>
    <g id="text_20">
     <!-- overlap_1f_3s -->
     <g style="fill:#262626;" transform="translate(673.044062 136.234206)scale(0.11 -0.11)">
      <use xlink:href="#ArialMT-6f"/>
      <use x="55.615234" xlink:href="#ArialMT-76"/>
      <use x="105.615234" xlink:href="#ArialMT-65"/>
      <use x="161.230469" xlink:href="#ArialMT-72"/>
      <use x="194.53125" xlink:href="#ArialMT-6c"/>
      <use x="216.748047" xlink:href="#ArialMT-61"/>
      <use x="272.363281" xlink:href="#ArialMT-70"/>
      <use x="327.978516" xlink:href="#ArialMT-5f"/>
      <use x="383.59375" xlink:href="#ArialMT-31"/>
      <use x="439.208984" xlink:href="#ArialMT-66"/>
      <use x="466.992188" xlink:href="#ArialMT-5f"/>
      <use x="522.607422" xlink:href="#ArialMT-33"/>
      <use x="578.222656" xlink:href="#ArialMT-73"/>
     </g>
    </g>
    <g id="line2d_19">
     <path d="M 642.244062 148.078113 
L 664.244062 148.078113 
" style="fill:none;stroke:#8172b3;stroke-dasharray:7.5,1.5,1.5,1.5;stroke-dashoffset:0;stroke-width:1.5;"/>
    </g>
    <g id="line2d_20"/>
    <g id="text_21">
     <!-- overlap_10f_3s -->
     <g style="fill:#262626;" transform="translate(673.044062 151.928112)scale(0.11 -0.11)">
      <use xlink:href="#ArialMT-6f"/>
      <use x="55.615234" xlink:href="#ArialMT-76"/>
      <use x="105.615234" xlink:href="#ArialMT-65"/>
      <use x="161.230469" xlink:href="#ArialMT-72"/>
      <use x="194.53125" xlink:href="#ArialMT-6c"/>
      <use x="216.748047" xlink:href="#ArialMT-61"/>
      <use x="272.363281" xlink:href="#ArialMT-70"/>
      <use x="327.978516" xlink:href="#ArialMT-5f"/>
      <use x="383.59375" xlink:href="#ArialMT-31"/>
      <use x="439.208984" xlink:href="#ArialMT-30"/>
      <use x="494.824219" xlink:href="#ArialMT-66"/>
      <use x="522.607422" xlink:href="#ArialMT-5f"/>
      <use x="578.222656" xlink:href="#ArialMT-33"/>
      <use x="633.837891" xlink:href="#ArialMT-73"/>
     </g>
    </g>
   </g>
  </g>
 </g>
 <defs>
  <clipPath id="pce9e7e61ef">
   <rect height="458.4888" width="652.86" x="105.3" y="71.4528"/>
  </clipPath>
 </defs>
</svg>
