<?xml version="1.0" encoding="utf-8" standalone="no"?>
<!DOCTYPE svg PUBLIC "-//W3C//DTD SVG 1.1//EN"
  "http://www.w3.org/Graphics/SVG/1.1/DTD/svg11.dtd">
<svg height="595.44pt" version="1.1" viewBox="0 0 842.4 595.44" width="842.4pt" xmlns="http://www.w3.org/2000/svg" xmlns:xlink="http://www.w3.org/1999/xlink">
 <metadata>
  <rdf:RDF xmlns:cc="http://creativecommons.org/ns#" xmlns:dc="http://purl.org/dc/elements/1.1/" xmlns:rdf="http://www.w3.org/1999/02/22-rdf-syntax-ns#">
   <cc:Work>
    <dc:type rdf:resource="http://purl.org/dc/dcmitype/StillImage"/>
    <dc:date>2021-06-01T00:54:10.822548</dc:date>
    <dc:format>image/svg+xml</dc:format>
    <dc:creator>
     <cc:Agent>
      <dc:title>Matplotlib v3.4.1, https://matplotlib.org/</dc:title>
     </cc:Agent>
    </dc:creator>
   </cc:Work>
  </rdf:RDF>
 </metadata>
 <defs>
  <style type="text/css">*{stroke-linecap:butt;stroke-linejoin:round;}</style>
 </defs>
 <g id="figure_1">
  <g id="patch_1">
   <path d="M 0 595.44 
L 842.4 595.44 
L 842.4 0 
L 0 0 
z
" style="fill:#ffffff;"/>
  </g>
  <g id="axes_1">
   <g id="patch_2">
    <path d="M 105.3 529.9416 
L 758.16 529.9416 
L 758.16 71.4528 
L 105.3 71.4528 
z
" style="fill:#ffffff;"/>
   </g>
   <g id="matplotlib.axis_1">
    <g id="xtick_1">
     <g id="text_1">
      <!-- 0 -->
      <g style="fill:#262626;" transform="translate(131.916939 547.315194)scale(0.11 -0.11)">
       <defs>
        <path d="M 266 2259 
Q 266 3072 433 3567 
Q 600 4063 929 4331 
Q 1259 4600 1759 4600 
Q 2128 4600 2406 4451 
Q 2684 4303 2865 4023 
Q 3047 3744 3150 3342 
Q 3253 2941 3253 2259 
Q 3253 1453 3087 958 
Q 2922 463 2592 192 
Q 2263 -78 1759 -78 
Q 1097 -78 719 397 
Q 266 969 266 2259 
z
M 844 2259 
Q 844 1131 1108 757 
Q 1372 384 1759 384 
Q 2147 384 2411 759 
Q 2675 1134 2675 2259 
Q 2675 3391 2411 3762 
Q 2147 4134 1753 4134 
Q 1366 4134 1134 3806 
Q 844 3388 844 2259 
z
" id="ArialMT-30" transform="scale(0.015625)"/>
       </defs>
       <use xlink:href="#ArialMT-30"/>
      </g>
     </g>
    </g>
    <g id="xtick_2">
     <g id="text_2">
      <!-- 25 -->
      <g style="fill:#262626;" transform="translate(201.950676 547.315194)scale(0.11 -0.11)">
       <defs>
        <path d="M 3222 541 
L 3222 0 
L 194 0 
Q 188 203 259 391 
Q 375 700 629 1000 
Q 884 1300 1366 1694 
Q 2113 2306 2375 2664 
Q 2638 3022 2638 3341 
Q 2638 3675 2398 3904 
Q 2159 4134 1775 4134 
Q 1369 4134 1125 3890 
Q 881 3647 878 3216 
L 300 3275 
Q 359 3922 746 4261 
Q 1134 4600 1788 4600 
Q 2447 4600 2831 4234 
Q 3216 3869 3216 3328 
Q 3216 3053 3103 2787 
Q 2991 2522 2730 2228 
Q 2469 1934 1863 1422 
Q 1356 997 1212 845 
Q 1069 694 975 541 
L 3222 541 
z
" id="ArialMT-32" transform="scale(0.015625)"/>
        <path d="M 266 1200 
L 856 1250 
Q 922 819 1161 601 
Q 1400 384 1738 384 
Q 2144 384 2425 690 
Q 2706 997 2706 1503 
Q 2706 1984 2436 2262 
Q 2166 2541 1728 2541 
Q 1456 2541 1237 2417 
Q 1019 2294 894 2097 
L 366 2166 
L 809 4519 
L 3088 4519 
L 3088 3981 
L 1259 3981 
L 1013 2750 
Q 1425 3038 1878 3038 
Q 2478 3038 2890 2622 
Q 3303 2206 3303 1553 
Q 3303 931 2941 478 
Q 2500 -78 1738 -78 
Q 1113 -78 717 272 
Q 322 622 266 1200 
z
" id="ArialMT-35" transform="scale(0.015625)"/>
       </defs>
       <use xlink:href="#ArialMT-32"/>
       <use x="55.615234" xlink:href="#ArialMT-35"/>
      </g>
     </g>
    </g>
    <g id="xtick_3">
     <g id="text_3">
      <!-- 50 -->
      <g style="fill:#262626;" transform="translate(275.042928 547.315194)scale(0.11 -0.11)">
       <use xlink:href="#ArialMT-35"/>
       <use x="55.615234" xlink:href="#ArialMT-30"/>
      </g>
     </g>
    </g>
    <g id="xtick_4">
     <g id="text_4">
      <!-- 75 -->
      <g style="fill:#262626;" transform="translate(348.135181 547.315194)scale(0.11 -0.11)">
       <defs>
        <path d="M 303 3981 
L 303 4522 
L 3269 4522 
L 3269 4084 
Q 2831 3619 2401 2847 
Q 1972 2075 1738 1259 
Q 1569 684 1522 0 
L 944 0 
Q 953 541 1156 1306 
Q 1359 2072 1739 2783 
Q 2119 3494 2547 3981 
L 303 3981 
z
" id="ArialMT-37" transform="scale(0.015625)"/>
       </defs>
       <use xlink:href="#ArialMT-37"/>
       <use x="55.615234" xlink:href="#ArialMT-35"/>
      </g>
     </g>
    </g>
    <g id="xtick_5">
     <g id="text_5">
      <!-- 100 -->
      <g style="fill:#262626;" transform="translate(418.168918 547.315194)scale(0.11 -0.11)">
       <defs>
        <path d="M 2384 0 
L 1822 0 
L 1822 3584 
Q 1619 3391 1289 3197 
Q 959 3003 697 2906 
L 697 3450 
Q 1169 3672 1522 3987 
Q 1875 4303 2022 4600 
L 2384 4600 
L 2384 0 
z
" id="ArialMT-31" transform="scale(0.015625)"/>
       </defs>
       <use xlink:href="#ArialMT-31"/>
       <use x="55.615234" xlink:href="#ArialMT-30"/>
       <use x="111.230469" xlink:href="#ArialMT-30"/>
      </g>
     </g>
    </g>
    <g id="xtick_6">
     <g id="text_6">
      <!-- 125 -->
      <g style="fill:#262626;" transform="translate(491.261171 547.315194)scale(0.11 -0.11)">
       <use xlink:href="#ArialMT-31"/>
       <use x="55.615234" xlink:href="#ArialMT-32"/>
       <use x="111.230469" xlink:href="#ArialMT-35"/>
      </g>
     </g>
    </g>
    <g id="xtick_7">
     <g id="text_7">
      <!-- 150 -->
      <g style="fill:#262626;" transform="translate(564.353423 547.315194)scale(0.11 -0.11)">
       <use xlink:href="#ArialMT-31"/>
       <use x="55.615234" xlink:href="#ArialMT-35"/>
       <use x="111.230469" xlink:href="#ArialMT-30"/>
      </g>
     </g>
    </g>
    <g id="xtick_8">
     <g id="text_8">
      <!-- 175 -->
      <g style="fill:#262626;" transform="translate(637.445676 547.315194)scale(0.11 -0.11)">
       <use xlink:href="#ArialMT-31"/>
       <use x="55.615234" xlink:href="#ArialMT-37"/>
       <use x="111.230469" xlink:href="#ArialMT-35"/>
      </g>
     </g>
    </g>
    <g id="xtick_9">
     <g id="text_9">
      <!-- 200 -->
      <g style="fill:#262626;" transform="translate(710.537928 547.315194)scale(0.11 -0.11)">
       <use xlink:href="#ArialMT-32"/>
       <use x="55.615234" xlink:href="#ArialMT-30"/>
       <use x="111.230469" xlink:href="#ArialMT-30"/>
      </g>
     </g>
    </g>
   </g>
   <g id="matplotlib.axis_2">
    <g id="ytick_1">
     <g id="text_10">
      <!-- −25 -->
      <g style="fill:#262626;" transform="translate(77.14125 533.878397)scale(0.11 -0.11)">
       <defs>
        <path d="M 3381 1997 
L 356 1997 
L 356 2522 
L 3381 2522 
L 3381 1997 
z
" id="ArialMT-2212" transform="scale(0.015625)"/>
       </defs>
       <use xlink:href="#ArialMT-2212"/>
       <use x="58.398438" xlink:href="#ArialMT-32"/>
       <use x="114.013672" xlink:href="#ArialMT-35"/>
      </g>
     </g>
    </g>
    <g id="ytick_2">
     <g id="text_11">
      <!-- −20 -->
      <g style="fill:#262626;" transform="translate(77.14125 442.180637)scale(0.11 -0.11)">
       <use xlink:href="#ArialMT-2212"/>
       <use x="58.398438" xlink:href="#ArialMT-32"/>
       <use x="114.013672" xlink:href="#ArialMT-30"/>
      </g>
     </g>
    </g>
    <g id="ytick_3">
     <g id="text_12">
      <!-- −15 -->
      <g style="fill:#262626;" transform="translate(77.14125 350.482877)scale(0.11 -0.11)">
       <use xlink:href="#ArialMT-2212"/>
       <use x="58.398438" xlink:href="#ArialMT-31"/>
       <use x="114.013672" xlink:href="#ArialMT-35"/>
      </g>
     </g>
    </g>
    <g id="ytick_4">
     <g id="text_13">
      <!-- −10 -->
      <g style="fill:#262626;" transform="translate(77.14125 258.785117)scale(0.11 -0.11)">
       <use xlink:href="#ArialMT-2212"/>
       <use x="58.398438" xlink:href="#ArialMT-31"/>
       <use x="114.013672" xlink:href="#ArialMT-30"/>
      </g>
     </g>
    </g>
    <g id="ytick_5">
     <g id="text_14">
      <!-- −5 -->
      <g style="fill:#262626;" transform="translate(83.258281 167.087357)scale(0.11 -0.11)">
       <use xlink:href="#ArialMT-2212"/>
       <use x="58.398438" xlink:href="#ArialMT-35"/>
      </g>
     </g>
    </g>
    <g id="ytick_6">
     <g id="text_15">
      <!-- 0 -->
      <g style="fill:#262626;" transform="translate(89.682969 75.389597)scale(0.11 -0.11)">
       <use xlink:href="#ArialMT-30"/>
      </g>
     </g>
    </g>
   </g>
   <g id="line2d_1">
    <path clip-path="url(#pa5dde1afd7)" d="M 134.975455 399.828718 
L 137.899145 402.252966 
L 140.822835 399.949573 
L 143.746525 399.440545 
L 146.670215 405.120305 
L 149.593905 400.516738 
L 152.517595 402.447244 
L 155.441285 401.68811 
L 158.364975 405.132513 
L 161.288665 402.491704 
L 167.136046 406.642246 
L 170.059736 418.34177 
L 172.983426 427.42658 
L 175.907116 433.574685 
L 178.830806 461.866759 
L 181.754496 478.447451 
L 184.678186 433.40986 
L 187.601876 426.929095 
L 190.525567 518.646409 
L 193.449257 465.707974 
L 196.372947 424.192266 
L 199.296637 455.579433 
L 202.220327 390.324673 
L 205.144017 401.77633 
L 208.067707 545.45383 
L 210.991397 465.352263 
L 213.915087 415.844973 
L 216.838777 441.347608 
L 219.762468 443.57401 
L 222.686158 449.623053 
L 225.609848 477.22938 
L 228.533538 509.652757 
L 231.457228 470.168578 
L 234.380918 379.394428 
L 237.304608 482.582357 
L 240.228298 477.886863 
L 243.151988 428.75057 
L 246.075678 408.485233 
L 248.999369 443.054698 
L 251.923059 523.560703 
L 254.846749 541.751206 
L 257.770439 546.38587 
L 260.694129 447.356809 
L 263.617819 486.959464 
L 266.541509 342.696837 
L 269.465199 333.189645 
L 272.388889 410.477375 
L 275.312579 461.7685 
L 278.23627 495.19811 
L 281.15996 475.323919 
L 284.08365 409.116831 
L 287.00734 405.574764 
L 289.93103 477.07246 
L 292.85472 461.537318 
L 295.77841 425.461653 
L 298.7021 487.623593 
L 301.62579 449.07943 
L 304.549481 476.991062 
L 307.473171 480.220583 
L 310.396861 511.067905 
L 313.320551 461.484324 
L 316.244241 476.239133 
L 319.167931 467.350071 
L 322.091621 485.305579 
L 325.015311 377.611991 
L 327.939001 413.626477 
L 330.862691 424.486867 
L 333.786382 423.449363 
L 336.710072 416.984969 
L 339.633762 512.115728 
L 342.557452 525.200562 
L 345.481142 414.67409 
L 348.404832 462.992133 
L 351.328522 461.161879 
L 354.252212 475.248397 
L 357.175902 488.29909 
L 360.099592 438.7925 
L 363.023283 488.900255 
L 365.946973 420.633409 
L 368.870663 486.378343 
L 371.794353 483.911314 
L 374.718043 496.116543 
L 377.641733 517.178407 
L 380.565423 529.901688 
L 383.489113 455.127178 
L 386.412803 348.522288 
L 389.336494 390.926958 
L 392.260184 456.045506 
L 395.183874 475.457157 
L 398.107564 472.172998 
L 401.031254 444.338216 
L 403.954944 415.142472 
L 406.878634 432.277175 
L 409.802324 368.769173 
L 412.726014 347.533336 
L 415.649704 435.517225 
L 418.573395 444.660137 
L 421.497085 451.176161 
L 424.420775 532.933433 
L 427.344465 454.152742 
L 430.268155 488.837711 
L 433.191845 490.696439 
L 436.115535 391.814748 
L 439.039225 409.349832 
L 441.962915 457.171265 
L 444.886605 435.20447 
L 447.810296 395.496559 
L 450.733986 387.786426 
L 453.657676 430.428347 
L 456.581366 408.584611 
L 459.505056 493.172073 
L 462.428746 431.003521 
L 465.352436 429.822215 
L 468.276126 448.111745 
L 471.199816 493.256724 
L 474.123506 506.22525 
L 477.047197 440.810876 
L 479.970887 279.458635 
L 482.894577 362.066181 
L 485.818267 402.96862 
L 488.741957 451.689456 
L 491.665647 429.036391 
L 494.589337 361.810477 
L 497.513027 404.079163 
L 503.360408 320.98732 
L 506.284098 372.64124 
L 509.207788 499.258824 
L 512.131478 524.731551 
L 515.055168 528.020433 
L 517.978858 414.412091 
L 520.902548 450.937388 
L 523.826238 462.435183 
L 526.749928 423.725844 
L 529.673618 479.830557 
L 532.597309 487.507075 
L 535.520999 386.225237 
L 538.444689 379.656183 
L 541.368379 449.607522 
L 544.292069 432.978348 
L 547.215759 406.572076 
L 550.139449 464.395877 
L 553.063139 333.96821 
L 555.986829 401.885887 
L 558.910519 377.885254 
L 561.83421 391.036865 
L 564.7579 464.099212 
L 567.68159 398.298136 
L 570.60528 359.772512 
L 573.52897 314.164242 
L 576.45266 336.236326 
L 579.37635 379.472608 
L 582.30004 358.047443 
L 585.22373 322.767238 
L 588.147421 329.141996 
L 591.071111 317.790855 
L 593.994801 366.087787 
L 596.918491 335.734119 
L 599.842181 404.51998 
L 602.765871 397.968136 
L 605.689561 372.106852 
L 608.613251 381.552164 
L 611.536941 431.184228 
L 614.460631 413.100239 
L 617.384322 336.248971 
L 620.308012 424.89134 
L 623.231702 420.675106 
L 626.155392 411.391715 
L 629.079082 392.555623 
L 632.002772 350.752188 
L 634.926462 354.82567 
L 637.850152 415.526586 
L 640.773842 391.797503 
L 643.697532 398.599593 
L 646.621223 421.969153 
L 649.544913 449.245095 
L 652.468603 513.678456 
L 655.392293 460.449093 
L 658.315983 401.036329 
L 661.239673 480.500667 
L 664.163363 450.658563 
L 667.087053 520.392012 
L 670.010743 476.150494 
L 672.934433 451.193581 
L 675.858124 522.933653 
L 678.781814 495.411837 
L 681.705504 508.913596 
L 684.629194 528.18288 
L 687.552884 435.10023 
L 690.476574 516.032255 
L 693.400264 381.582352 
L 696.323954 363.923754 
L 699.247644 352.283574 
L 702.171335 381.229789 
L 705.095025 400.709722 
L 708.018715 408.650688 
L 710.942405 412.116744 
L 713.866095 411.156405 
L 716.789785 409.889957 
L 719.713475 408.254331 
L 722.637165 411.093791 
L 725.560855 410.78985 
L 728.484545 418.079421 
L 728.484545 418.079421 
" style="fill:none;stroke:#4c72b0;stroke-linecap:round;stroke-width:1.5;"/>
   </g>
   <g id="line2d_2">
    <path clip-path="url(#pa5dde1afd7)" d="M 134.975455 391.135193 
L 137.899145 395.467526 
L 140.822835 395.72281 
L 143.746525 395.001419 
L 146.670215 398.458239 
L 149.593905 396.036824 
L 152.517595 397.583916 
L 155.441285 394.711435 
L 158.364975 395.402708 
L 161.288665 393.44824 
L 164.212356 394.708007 
L 167.136046 393.818328 
L 170.059736 401.341144 
L 172.983426 407.496351 
L 175.907116 417.129086 
L 178.830806 448.157289 
L 181.754496 470.865448 
L 184.678186 441.93618 
L 187.601876 402.630539 
L 190.525567 506.823721 
L 193.449257 446.162979 
L 196.372947 418.019675 
L 199.296637 434.867473 
L 202.220327 388.857965 
L 205.144017 424.833448 
L 208.067707 551.091858 
L 210.991397 479.945081 
L 213.915087 401.377454 
L 216.838777 440.367786 
L 219.762468 439.479855 
L 222.686158 458.380905 
L 225.609848 470.728397 
L 228.533538 490.358638 
L 231.457228 469.880449 
L 234.380918 374.73122 
L 237.304608 464.007355 
L 240.228298 470.987633 
L 243.151988 421.758049 
L 246.075678 408.863541 
L 248.999369 474.31223 
L 251.923059 527.186442 
L 254.846749 536.207343 
L 257.770439 548.638227 
L 260.694129 454.327817 
L 263.617819 483.599223 
L 266.541509 345.079302 
L 269.465199 328.702823 
L 272.388889 416.57336 
L 275.312579 474.265601 
L 278.23627 497.942389 
L 281.15996 485.66129 
L 284.08365 401.66219 
L 287.00734 397.482999 
L 289.93103 479.147539 
L 292.85472 465.610975 
L 295.77841 410.194702 
L 298.7021 473.150896 
L 301.62579 437.037313 
L 304.549481 481.838054 
L 307.473171 491.712431 
L 310.396861 492.704846 
L 313.320551 480.860995 
L 316.244241 481.616247 
L 319.167931 492.016336 
L 322.091621 492.503432 
L 325.015311 355.859046 
L 327.939001 399.943487 
L 330.862691 409.019342 
L 333.786382 390.398901 
L 336.710072 428.374046 
L 339.633762 509.983002 
L 342.557452 502.780357 
L 345.481142 395.891448 
L 348.404832 411.895181 
L 351.328522 412.860312 
L 354.252212 455.005693 
L 357.175902 323.766264 
L 360.099592 217.765338 
L 363.023283 211.89492 
L 365.946973 281.424139 
L 368.870663 337.185856 
L 371.794353 357.104192 
L 374.718043 340.30101 
L 377.641733 356.498427 
L 380.565423 439.656119 
L 383.489113 343.219192 
L 386.412803 325.856629 
L 389.336494 347.964288 
L 392.260184 427.196237 
L 395.183874 452.477274 
L 398.107564 436.616154 
L 401.031254 411.805282 
L 403.954944 424.244002 
L 409.802324 366.024998 
L 412.726014 368.166644 
L 415.649704 401.579567 
L 418.573395 409.731638 
L 421.497085 426.382639 
L 424.420775 493.651473 
L 427.344465 413.835027 
L 430.268155 446.751971 
L 433.191845 456.426787 
L 436.115535 378.106782 
L 441.962915 479.411008 
L 444.886605 412.241482 
L 447.810296 362.649873 
L 450.733986 404.234893 
L 453.657676 408.221939 
L 456.581366 410.349838 
L 459.505056 499.651298 
L 462.428746 427.968524 
L 465.352436 441.198839 
L 468.276126 434.511623 
L 471.199816 498.28911 
L 474.123506 486.517843 
L 477.047197 454.459306 
L 479.970887 271.554887 
L 482.894577 364.957621 
L 485.818267 415.389954 
L 488.741957 457.668574 
L 491.665647 436.666525 
L 494.589337 339.351952 
L 497.513027 400.054303 
L 500.436717 365.667538 
L 503.360408 316.127699 
L 506.284098 381.329097 
L 509.207788 475.731505 
L 512.131478 504.868099 
L 515.055168 519.551829 
L 517.978858 415.550023 
L 520.902548 451.951141 
L 523.826238 468.316007 
L 526.749928 433.909303 
L 529.673618 483.906032 
L 532.597309 488.087112 
L 535.520999 390.952423 
L 538.444689 384.497649 
L 541.368379 437.130674 
L 544.292069 451.258644 
L 547.215759 392.195155 
L 550.139449 445.207293 
L 553.063139 346.352868 
L 555.986829 359.076429 
L 558.910519 308.272976 
L 561.83421 290.620167 
L 564.7579 374.968594 
L 567.68159 343.662178 
L 570.60528 437.476206 
L 573.52897 132.624262 
L 576.45266 252.670925 
L 579.37635 330.551407 
L 582.30004 279.048215 
L 585.22373 289.500548 
L 588.147421 295.086648 
L 591.071111 307.014871 
L 593.994801 357.857641 
L 596.918491 303.894365 
L 599.842181 452.420292 
L 602.765871 404.08378 
L 605.689561 383.078723 
L 608.613251 416.865757 
L 611.536941 448.329355 
L 614.460631 449.676082 
L 617.384322 437.022131 
L 620.308012 467.541202 
L 623.231702 427.626 
L 626.155392 449.789662 
L 629.079082 403.669688 
L 632.002772 380.581577 
L 634.926462 379.665557 
L 637.850152 406.864019 
L 640.773842 408.004259 
L 643.697532 393.873491 
L 646.621223 423.383426 
L 649.544913 455.565686 
L 652.468603 505.794122 
L 655.392293 465.42691 
L 658.315983 396.922026 
L 661.239673 496.585099 
L 664.163363 452.999419 
L 667.087053 517.191769 
L 670.010743 479.534522 
L 672.934433 447.910786 
L 675.858124 522.8079 
L 678.781814 505.360441 
L 681.705504 511.485915 
L 684.629194 533.043269 
L 687.552884 429.308569 
L 690.476574 497.921192 
L 693.400264 405.900217 
L 696.323954 379.729326 
L 699.247644 350.332639 
L 702.171335 376.549231 
L 705.095025 398.670043 
L 708.018715 408.448399 
L 710.942405 412.738652 
L 713.866095 410.217054 
L 716.789785 410.841306 
L 719.713475 407.957141 
L 722.637165 410.45107 
L 725.560855 411.617685 
L 728.484545 412.632662 
L 728.484545 412.632662 
" style="fill:none;stroke:#dd8452;stroke-dasharray:6,2.25;stroke-dashoffset:0;stroke-width:1.5;"/>
   </g>
   <g id="line2d_3">
    <path clip-path="url(#pa5dde1afd7)" d="M 134.975455 402.725265 
L 137.899145 407.318933 
L 140.822835 405.962097 
L 143.746525 403.06499 
L 146.670215 411.768938 
L 149.593905 405.047302 
L 152.517595 407.351639 
L 155.441285 401.683598 
L 158.364975 406.822358 
L 161.288665 405.685825 
L 164.212356 406.570992 
L 167.136046 399.585397 
L 170.059736 398.147828 
L 172.983426 411.155076 
L 175.907116 421.12883 
L 178.830806 441.852054 
L 181.754496 473.506642 
L 184.678186 414.525321 
L 187.601876 412.57603 
L 190.525567 457.146849 
L 193.449257 447.485745 
L 196.372947 412.950735 
L 199.296637 428.084797 
L 202.220327 391.271475 
L 205.144017 408.671012 
L 208.067707 272.904867 
L 210.991397 340.922778 
L 213.915087 383.695524 
L 216.838777 431.609374 
L 219.762468 449.555192 
L 222.686158 469.883457 
L 225.609848 444.966456 
L 228.533538 469.924593 
L 231.457228 459.582675 
L 234.380918 413.334744 
L 237.304608 479.638412 
L 240.228298 492.160034 
L 243.151988 439.90829 
L 246.075678 392.528129 
L 248.999369 484.075545 
L 251.923059 507.623152 
L 254.846749 546.839385 
L 257.770439 555.059841 
L 260.694129 421.66836 
L 263.617819 434.616143 
L 266.541509 345.811729 
L 269.465199 352.627689 
L 272.388889 396.893483 
L 275.312579 444.206902 
L 278.23627 414.638866 
L 281.15996 325.786967 
L 284.08365 286.429206 
L 287.00734 275.371389 
L 289.93103 328.33382 
L 292.85472 318.594921 
L 295.77841 318.661208 
L 298.7021 418.321377 
L 301.62579 425.994152 
L 304.549481 442.132977 
L 307.473171 460.633647 
L 310.396861 521.828218 
L 313.320551 508.992756 
L 316.244241 489.807914 
L 319.167931 507.524124 
L 322.091621 523.935758 
L 325.015311 382.794826 
L 327.939001 391.801875 
L 330.862691 422.844245 
L 333.786382 398.262422 
L 336.710072 433.660106 
L 339.633762 527.673992 
L 342.557452 563.49147 
L 345.481142 436.270063 
L 348.404832 442.555535 
L 351.328522 455.734919 
L 354.252212 487.155667 
L 357.175902 430.010721 
L 360.099592 345.599873 
L 363.023283 370.40228 
L 365.946973 323.648295 
L 368.870663 425.529864 
L 371.794353 333.752839 
L 374.718043 394.134336 
L 377.641733 410.060484 
L 380.565423 437.207175 
L 383.489113 404.53649 
L 386.412803 344.1548 
L 389.336494 408.306066 
L 392.260184 479.213021 
L 395.183874 481.280719 
L 398.107564 481.054154 
L 401.031254 472.170759 
L 403.954944 438.006047 
L 406.878634 399.863313 
L 409.802324 421.280923 
L 412.726014 411.679634 
L 415.649704 393.941142 
L 418.573395 432.324503 
L 421.497085 306.913272 
L 424.420775 268.106881 
L 427.344465 258.060456 
L 433.191845 295.347966 
L 436.115535 259.99203 
L 439.039225 350.579807 
L 441.962915 448.645819 
L 444.886605 372.053857 
L 447.810296 417.659032 
L 450.733986 396.649987 
L 453.657676 382.275794 
L 456.581366 427.720936 
L 459.505056 552.199043 
L 462.428746 450.672625 
L 465.352436 454.704271 
L 468.276126 455.194724 
L 471.199816 475.11236 
L 474.123506 472.765348 
L 477.047197 381.879926 
L 479.970887 314.320549 
L 482.894577 362.054095 
L 485.818267 392.861697 
L 488.741957 367.390719 
L 491.665647 375.011549 
L 494.589337 304.980386 
L 497.513027 349.676031 
L 500.436717 219.916918 
L 503.360408 298.21123 
L 506.284098 393.617018 
L 509.207788 408.753389 
L 512.131478 405.217514 
L 515.055168 409.487618 
L 517.978858 379.478485 
L 520.902548 433.143908 
L 523.826238 474.380091 
L 526.749928 476.346312 
L 529.673618 481.388248 
L 532.597309 515.026057 
L 535.520999 445.808667 
L 538.444689 425.155054 
L 541.368379 485.939835 
L 544.292069 483.242848 
L 547.215759 382.233923 
L 550.139449 395.495125 
L 555.986829 269.646348 
L 558.910519 308.234201 
L 561.83421 310.888495 
L 564.7579 335.280657 
L 567.68159 333.681113 
L 570.60528 328.30762 
L 573.52897 360.899373 
L 576.45266 330.094289 
L 579.37635 398.719434 
L 582.30004 395.749989 
L 585.22373 336.681078 
L 588.147421 324.80676 
L 591.071111 362.117461 
L 593.994801 387.637936 
L 596.918491 348.850819 
L 599.842181 509.641843 
L 602.765871 447.928031 
L 605.689561 375.285372 
L 608.613251 373.528261 
L 611.536941 409.19718 
L 614.460631 410.0155 
L 617.384322 386.025327 
L 620.308012 384.807466 
L 623.231702 420.695569 
L 626.155392 434.747247 
L 629.079082 349.318676 
L 632.002772 386.620475 
L 634.926462 442.107967 
L 637.850152 388.897213 
L 640.773842 369.092037 
L 643.697532 419.28203 
L 646.621223 428.588788 
L 649.544913 457.706597 
L 652.468603 515.821046 
L 655.392293 443.404707 
L 658.315983 394.793358 
L 661.239673 481.684807 
L 664.163363 442.56365 
L 667.087053 523.818505 
L 670.010743 480.090213 
L 672.934433 430.367097 
L 675.858124 540.953523 
L 678.781814 512.330715 
L 681.705504 528.029318 
L 684.629194 550.40912 
L 687.552884 456.877783 
L 690.476574 503.587099 
L 693.400264 427.367883 
L 696.323954 388.298147 
L 699.247644 354.217229 
L 702.171335 377.325646 
L 705.095025 403.759621 
L 708.018715 416.811678 
L 710.942405 421.04096 
L 713.866095 419.39512 
L 716.789785 417.8793 
L 719.713475 415.839936 
L 722.637165 419.894319 
L 725.560855 421.92235 
L 728.484545 414.999719 
L 728.484545 414.999719 
" style="fill:none;stroke:#55a868;stroke-dasharray:1.5,1.5;stroke-dashoffset:0;stroke-width:1.5;"/>
   </g>
   <g id="line2d_4">
    <path clip-path="url(#pa5dde1afd7)" d="M 134.975455 391.721946 
L 137.899145 396.148026 
L 140.822835 396.332929 
L 143.746525 395.402743 
L 146.670215 399.189949 
L 149.593905 396.609061 
L 152.517595 398.205789 
L 155.441285 395.457102 
L 158.364975 396.267832 
L 161.288665 394.353206 
L 164.212356 395.408095 
L 167.136046 394.628848 
L 170.059736 402.19427 
L 172.983426 408.278327 
L 175.907116 417.60957 
L 178.830806 448.819809 
L 181.754496 471.546542 
L 184.678186 442.114018 
L 187.601876 403.058204 
L 190.525567 508.468407 
L 193.449257 448.714904 
L 196.372947 417.847504 
L 199.296637 436.591948 
L 202.220327 391.256888 
L 205.144017 424.338308 
L 208.067707 554.631337 
L 210.991397 473.798235 
L 213.915087 407.827541 
L 216.838777 435.375067 
L 219.762468 442.804522 
L 222.686158 459.971967 
L 225.609848 470.550804 
L 228.533538 491.885616 
L 231.457228 470.829139 
L 234.380918 375.781562 
L 237.304608 469.923369 
L 240.228298 474.923434 
L 243.151988 424.693459 
L 246.075678 411.676241 
L 248.999369 474.288023 
L 251.923059 528.042645 
L 254.846749 536.871997 
L 257.770439 547.724097 
L 260.694129 452.312799 
L 263.617819 481.465308 
L 266.541509 339.182387 
L 269.465199 327.242516 
L 272.388889 412.01824 
L 275.312579 478.809878 
L 278.23627 499.887938 
L 281.15996 481.581302 
L 284.08365 402.695987 
L 287.00734 409.100635 
L 289.93103 484.527905 
L 292.85472 460.946682 
L 295.77841 411.145596 
L 298.7021 472.972918 
L 301.62579 439.506125 
L 304.549481 486.578813 
L 307.473171 491.963132 
L 310.396861 492.954603 
L 313.320551 477.974977 
L 316.244241 482.334909 
L 319.167931 493.447995 
L 322.091621 500.586871 
L 325.015311 353.56223 
L 327.939001 393.795381 
L 330.862691 419.672756 
L 333.786382 396.435281 
L 336.710072 438.94949 
L 339.633762 524.906835 
L 342.557452 517.490708 
L 345.481142 411.850861 
L 348.404832 386.693793 
L 351.328522 535.30605 
L 354.252212 548.38938 
L 357.175902 352.136483 
L 360.099592 239.884855 
L 363.023283 361.871902 
L 365.946973 294.150865 
L 368.870663 369.551883 
L 371.794353 384.434685 
L 374.718043 379.455888 
L 377.641733 369.745322 
L 380.565423 456.173427 
L 383.489113 350.010159 
L 386.412803 331.186852 
L 389.336494 353.460351 
L 392.260184 428.887831 
L 395.183874 454.056093 
L 398.107564 443.554037 
L 401.031254 419.538258 
L 403.954944 425.026747 
L 406.878634 399.596381 
L 409.802324 371.931427 
L 412.726014 370.282789 
L 415.649704 406.745297 
L 418.573395 409.85858 
L 421.497085 433.792785 
L 424.420775 504.115471 
L 427.344465 413.75209 
L 430.268155 443.862385 
L 433.191845 453.194572 
L 436.115535 376.008722 
L 441.962915 481.217021 
L 444.886605 413.703293 
L 447.810296 365.288321 
L 450.733986 403.55219 
L 453.657676 419.018492 
L 456.581366 418.260232 
L 459.505056 500.035483 
L 462.428746 430.018627 
L 465.352436 446.72745 
L 468.276126 429.765407 
L 471.199816 495.516147 
L 474.123506 492.656434 
L 477.047197 462.56237 
L 479.970887 273.736899 
L 482.894577 368.435814 
L 485.818267 417.043071 
L 488.741957 459.134023 
L 491.665647 436.7899 
L 494.589337 339.863131 
L 497.513027 401.461056 
L 500.436717 364.343181 
L 503.360408 315.122534 
L 506.284098 381.384016 
L 509.207788 476.195583 
L 512.131478 506.296119 
L 515.055168 520.603116 
L 517.978858 415.125226 
L 520.902548 451.471182 
L 523.826238 466.284898 
L 526.749928 432.577128 
L 529.673618 483.936045 
L 532.597309 488.573123 
L 535.520999 390.145052 
L 538.444689 386.43725 
L 541.368379 437.231626 
L 544.292069 449.682553 
L 547.215759 391.394185 
L 550.139449 444.429864 
L 553.063139 346.044695 
L 555.986829 360.484144 
L 558.910519 307.666424 
L 561.83421 291.317562 
L 564.7579 375.70695 
L 567.68159 344.792869 
L 570.60528 430.105377 
L 573.52897 219.600699 
L 576.45266 281.595191 
L 579.37635 333.039179 
L 582.30004 297.651656 
L 585.22373 334.991356 
L 588.147421 282.835893 
L 591.071111 286.716741 
L 593.994801 384.73831 
L 596.918491 342.884697 
L 599.842181 441.811652 
L 602.765871 414.349967 
L 605.689561 391.600181 
L 608.613251 407.277097 
L 611.536941 443.179262 
L 614.460631 450.650938 
L 617.384322 430.479592 
L 620.308012 463.284495 
L 623.231702 431.025664 
L 626.155392 446.081126 
L 629.079082 403.307506 
L 632.002772 379.260875 
L 634.926462 386.299779 
L 637.850152 405.842116 
L 640.773842 407.944409 
L 643.697532 394.919111 
L 646.621223 427.515988 
L 649.544913 450.109239 
L 652.468603 505.961326 
L 655.392293 467.945639 
L 658.315983 395.081068 
L 661.239673 493.575181 
L 664.163363 450.573982 
L 667.087053 516.550517 
L 672.934433 448.052559 
L 675.858124 521.568527 
L 678.781814 505.364394 
L 681.705504 509.405064 
L 684.629194 532.613366 
L 687.552884 427.659441 
L 690.476574 497.23674 
L 693.400264 403.507031 
L 699.247644 351.793015 
L 702.171335 376.916451 
L 705.095025 399.199394 
L 708.018715 408.626237 
L 710.942405 413.362588 
L 713.866095 411.407176 
L 716.789785 411.524953 
L 719.713475 409.137154 
L 722.637165 411.344247 
L 725.560855 412.951259 
L 728.484545 412.861116 
L 728.484545 412.861116 
" style="fill:none;stroke:#c44e52;stroke-dasharray:4.5,1.875,2.25,1.875;stroke-dashoffset:0;stroke-width:1.5;"/>
   </g>
   <g id="line2d_5">
    <path clip-path="url(#pa5dde1afd7)" d="M 134.975455 392.838995 
L 137.899145 397.194065 
L 140.822835 397.68207 
L 143.746525 396.344438 
L 146.670215 400.838133 
L 149.593905 398.136459 
L 152.517595 400.31277 
L 155.441285 397.592696 
L 158.364975 398.519804 
L 161.288665 396.81065 
L 164.212356 396.870116 
L 167.136046 395.783745 
L 170.059736 403.820486 
L 172.983426 409.213235 
L 175.907116 417.149794 
L 178.830806 447.210767 
L 181.754496 473.986741 
L 184.678186 433.121416 
L 187.601876 419.499605 
L 190.525567 513.642392 
L 193.449257 455.51507 
L 196.372947 424.438805 
L 199.296637 446.209782 
L 202.220327 393.996691 
L 205.144017 419.54319 
L 208.067707 559.646093 
L 210.991397 485.853014 
L 213.915087 404.718246 
L 216.838777 444.084962 
L 219.762468 439.292468 
L 222.686158 457.777432 
L 225.609848 478.678598 
L 228.533538 497.63628 
L 231.457228 473.925107 
L 234.380918 374.515849 
L 237.304608 471.391826 
L 240.228298 474.287114 
L 243.151988 422.255148 
L 246.075678 406.634271 
L 248.999369 464.491302 
L 251.923059 531.18797 
L 254.846749 540.926064 
L 257.770439 553.314483 
L 260.694129 455.382391 
L 263.617819 486.424167 
L 266.541509 342.186917 
L 269.465199 330.099834 
L 272.388889 414.319464 
L 275.312579 478.41394 
L 278.23627 507.702277 
L 281.15996 497.661116 
L 284.08365 417.520302 
L 287.00734 413.302563 
L 289.93103 485.588986 
L 292.85472 462.62341 
L 295.77841 410.361136 
L 298.7021 466.143999 
L 301.62579 437.970997 
L 304.549481 482.526214 
L 307.473171 486.797822 
L 310.396861 501.987817 
L 313.320551 477.544549 
L 316.244241 470.071789 
L 319.167931 493.39423 
L 322.091621 511.213491 
L 325.015311 368.787747 
L 327.939001 399.271487 
L 330.862691 424.616643 
L 333.786382 413.675659 
L 336.710072 420.921679 
L 339.633762 519.049972 
L 342.557452 509.754059 
L 345.481142 413.083239 
L 348.404832 456.304987 
L 351.328522 445.153284 
L 354.252212 492.328602 
L 357.175902 513.545637 
L 360.099592 444.849063 
L 363.023283 504.987345 
L 365.946973 404.782714 
L 368.870663 461.703718 
L 371.794353 422.774006 
L 374.718043 437.846643 
L 377.641733 480.998291 
L 380.565423 535.026981 
L 383.489113 449.077856 
L 386.412803 353.097242 
L 389.336494 386.622539 
L 392.260184 458.616355 
L 395.183874 482.509459 
L 398.107564 453.011557 
L 401.031254 461.335239 
L 403.954944 428.445615 
L 406.878634 411.72203 
L 409.802324 391.343883 
L 412.726014 381.650843 
L 415.649704 451.127189 
L 418.573395 426.973835 
L 421.497085 454.639278 
L 424.420775 522.844489 
L 427.344465 424.500055 
L 430.268155 444.725374 
L 433.191845 457.385552 
L 436.115535 373.798655 
L 439.039225 430.187545 
L 441.962915 483.254251 
L 444.886605 421.091541 
L 447.810296 377.519644 
L 450.733986 413.484423 
L 453.657676 415.729225 
L 456.581366 414.932382 
L 459.505056 478.018317 
L 462.428746 419.132456 
L 465.352436 438.906674 
L 468.276126 434.735319 
L 471.199816 500.64973 
L 474.123506 500.915927 
L 477.047197 456.391807 
L 479.970887 277.244318 
L 482.894577 373.661429 
L 485.818267 422.471184 
L 488.741957 459.1831 
L 491.665647 442.575543 
L 494.589337 338.248686 
L 497.513027 399.436698 
L 500.436717 357.915971 
L 503.360408 312.277565 
L 506.284098 376.391262 
L 509.207788 488.305911 
L 512.131478 514.435317 
L 515.055168 523.768309 
L 517.978858 418.059902 
L 520.902548 449.187098 
L 523.826238 454.211124 
L 526.749928 420.292355 
L 529.673618 474.498078 
L 532.597309 471.384096 
L 535.520999 380.409161 
L 538.444689 373.470754 
L 541.368379 436.849226 
L 544.292069 450.627746 
L 547.215759 373.345176 
L 550.139449 432.414087 
L 553.063139 271.450892 
L 555.986829 294.772948 
L 558.910519 251.741631 
L 561.83421 314.376167 
L 564.7579 401.33957 
L 567.68159 332.313748 
L 570.60528 330.614756 
L 573.52897 293.8988 
L 576.45266 368.187107 
L 579.37635 375.446734 
L 582.30004 310.833803 
L 585.22373 331.404742 
L 588.147421 318.933299 
L 591.071111 310.738098 
L 593.994801 374.065657 
L 596.918491 354.203009 
L 599.842181 404.352076 
L 602.765871 404.831825 
L 605.689561 382.63175 
L 608.613251 408.671746 
L 611.536941 427.680149 
L 614.460631 436.852724 
L 617.384322 406.686006 
L 620.308012 445.639994 
L 623.231702 429.895952 
L 626.155392 436.608704 
L 629.079082 398.87492 
L 632.002772 370.949401 
L 634.926462 384.916253 
L 637.850152 395.657047 
L 640.773842 391.919583 
L 643.697532 388.380769 
L 646.621223 403.512593 
L 649.544913 417.52359 
L 652.468603 475.115299 
L 655.392293 444.913636 
L 658.315983 385.259931 
L 661.239673 473.778296 
L 664.163363 437.562781 
L 667.087053 514.630924 
L 670.010743 480.415981 
L 672.934433 453.389131 
L 675.858124 514.053441 
L 678.781814 492.342944 
L 681.705504 506.830857 
L 684.629194 518.241027 
L 687.552884 416.557549 
L 690.476574 463.682042 
L 693.400264 383.002852 
L 696.323954 366.183142 
L 699.247644 351.110085 
L 702.171335 377.862343 
L 705.095025 400.032161 
L 708.018715 407.451542 
L 710.942405 410.826054 
L 713.866095 409.399538 
L 716.789785 409.704633 
L 719.713475 407.242712 
L 722.637165 408.896387 
L 725.560855 409.431195 
L 728.484545 410.715308 
L 728.484545 410.715308 
" style="fill:none;stroke:#8172b3;stroke-dasharray:7.5,1.5,1.5,1.5;stroke-dashoffset:0;stroke-width:1.5;"/>
   </g>
   <g id="line2d_6"/>
   <g id="line2d_7"/>
   <g id="line2d_8"/>
   <g id="line2d_9"/>
   <g id="line2d_10"/>
   <g id="patch_3">
    <path d="M 105.3 529.9416 
L 105.3 71.4528 
" style="fill:none;stroke:#262626;stroke-linecap:square;stroke-linejoin:miter;stroke-width:1.25;"/>
   </g>
   <g id="patch_4">
    <path d="M 758.16 529.9416 
L 758.16 71.4528 
" style="fill:none;stroke:#262626;stroke-linecap:square;stroke-linejoin:miter;stroke-width:1.25;"/>
   </g>
   <g id="patch_5">
    <path d="M 105.3 529.9416 
L 758.16 529.9416 
" style="fill:none;stroke:#262626;stroke-linecap:square;stroke-linejoin:miter;stroke-width:1.25;"/>
   </g>
   <g id="patch_6">
    <path d="M 105.3 71.4528 
L 758.16 71.4528 
" style="fill:none;stroke:#262626;stroke-linecap:square;stroke-linejoin:miter;stroke-width:1.25;"/>
   </g>
   <g id="text_16">
    <!-- Activations for &gt;)&lt; -->
    <g style="fill:#262626;" transform="translate(383.376563 65.4528)scale(0.12 -0.12)">
     <defs>
      <path d="M -9 0 
L 1750 4581 
L 2403 4581 
L 4278 0 
L 3588 0 
L 3053 1388 
L 1138 1388 
L 634 0 
L -9 0 
z
M 1313 1881 
L 2866 1881 
L 2388 3150 
Q 2169 3728 2063 4100 
Q 1975 3659 1816 3225 
L 1313 1881 
z
" id="ArialMT-41" transform="scale(0.015625)"/>
      <path d="M 2588 1216 
L 3141 1144 
Q 3050 572 2676 248 
Q 2303 -75 1759 -75 
Q 1078 -75 664 370 
Q 250 816 250 1647 
Q 250 2184 428 2587 
Q 606 2991 970 3192 
Q 1334 3394 1763 3394 
Q 2303 3394 2647 3120 
Q 2991 2847 3088 2344 
L 2541 2259 
Q 2463 2594 2264 2762 
Q 2066 2931 1784 2931 
Q 1359 2931 1093 2626 
Q 828 2322 828 1663 
Q 828 994 1084 691 
Q 1341 388 1753 388 
Q 2084 388 2306 591 
Q 2528 794 2588 1216 
z
" id="ArialMT-63" transform="scale(0.015625)"/>
      <path d="M 1650 503 
L 1731 6 
Q 1494 -44 1306 -44 
Q 1000 -44 831 53 
Q 663 150 594 308 
Q 525 466 525 972 
L 525 2881 
L 113 2881 
L 113 3319 
L 525 3319 
L 525 4141 
L 1084 4478 
L 1084 3319 
L 1650 3319 
L 1650 2881 
L 1084 2881 
L 1084 941 
Q 1084 700 1114 631 
Q 1144 563 1211 522 
Q 1278 481 1403 481 
Q 1497 481 1650 503 
z
" id="ArialMT-74" transform="scale(0.015625)"/>
      <path d="M 425 3934 
L 425 4581 
L 988 4581 
L 988 3934 
L 425 3934 
z
M 425 0 
L 425 3319 
L 988 3319 
L 988 0 
L 425 0 
z
" id="ArialMT-69" transform="scale(0.015625)"/>
      <path d="M 1344 0 
L 81 3319 
L 675 3319 
L 1388 1331 
Q 1503 1009 1600 663 
Q 1675 925 1809 1294 
L 2547 3319 
L 3125 3319 
L 1869 0 
L 1344 0 
z
" id="ArialMT-76" transform="scale(0.015625)"/>
      <path d="M 2588 409 
Q 2275 144 1986 34 
Q 1697 -75 1366 -75 
Q 819 -75 525 192 
Q 231 459 231 875 
Q 231 1119 342 1320 
Q 453 1522 633 1644 
Q 813 1766 1038 1828 
Q 1203 1872 1538 1913 
Q 2219 1994 2541 2106 
Q 2544 2222 2544 2253 
Q 2544 2597 2384 2738 
Q 2169 2928 1744 2928 
Q 1347 2928 1158 2789 
Q 969 2650 878 2297 
L 328 2372 
Q 403 2725 575 2942 
Q 747 3159 1072 3276 
Q 1397 3394 1825 3394 
Q 2250 3394 2515 3294 
Q 2781 3194 2906 3042 
Q 3031 2891 3081 2659 
Q 3109 2516 3109 2141 
L 3109 1391 
Q 3109 606 3145 398 
Q 3181 191 3288 0 
L 2700 0 
Q 2613 175 2588 409 
z
M 2541 1666 
Q 2234 1541 1622 1453 
Q 1275 1403 1131 1340 
Q 988 1278 909 1158 
Q 831 1038 831 891 
Q 831 666 1001 516 
Q 1172 366 1500 366 
Q 1825 366 2078 508 
Q 2331 650 2450 897 
Q 2541 1088 2541 1459 
L 2541 1666 
z
" id="ArialMT-61" transform="scale(0.015625)"/>
      <path d="M 213 1659 
Q 213 2581 725 3025 
Q 1153 3394 1769 3394 
Q 2453 3394 2887 2945 
Q 3322 2497 3322 1706 
Q 3322 1066 3130 698 
Q 2938 331 2570 128 
Q 2203 -75 1769 -75 
Q 1072 -75 642 372 
Q 213 819 213 1659 
z
M 791 1659 
Q 791 1022 1069 705 
Q 1347 388 1769 388 
Q 2188 388 2466 706 
Q 2744 1025 2744 1678 
Q 2744 2294 2464 2611 
Q 2184 2928 1769 2928 
Q 1347 2928 1069 2612 
Q 791 2297 791 1659 
z
" id="ArialMT-6f" transform="scale(0.015625)"/>
      <path d="M 422 0 
L 422 3319 
L 928 3319 
L 928 2847 
Q 1294 3394 1984 3394 
Q 2284 3394 2536 3286 
Q 2788 3178 2913 3003 
Q 3038 2828 3088 2588 
Q 3119 2431 3119 2041 
L 3119 0 
L 2556 0 
L 2556 2019 
Q 2556 2363 2490 2533 
Q 2425 2703 2258 2804 
Q 2091 2906 1866 2906 
Q 1506 2906 1245 2678 
Q 984 2450 984 1813 
L 984 0 
L 422 0 
z
" id="ArialMT-6e" transform="scale(0.015625)"/>
      <path d="M 197 991 
L 753 1078 
Q 800 744 1014 566 
Q 1228 388 1613 388 
Q 2000 388 2187 545 
Q 2375 703 2375 916 
Q 2375 1106 2209 1216 
Q 2094 1291 1634 1406 
Q 1016 1563 777 1677 
Q 538 1791 414 1992 
Q 291 2194 291 2438 
Q 291 2659 392 2848 
Q 494 3038 669 3163 
Q 800 3259 1026 3326 
Q 1253 3394 1513 3394 
Q 1903 3394 2198 3281 
Q 2494 3169 2634 2976 
Q 2775 2784 2828 2463 
L 2278 2388 
Q 2241 2644 2061 2787 
Q 1881 2931 1553 2931 
Q 1166 2931 1000 2803 
Q 834 2675 834 2503 
Q 834 2394 903 2306 
Q 972 2216 1119 2156 
Q 1203 2125 1616 2013 
Q 2213 1853 2448 1751 
Q 2684 1650 2818 1456 
Q 2953 1263 2953 975 
Q 2953 694 2789 445 
Q 2625 197 2315 61 
Q 2006 -75 1616 -75 
Q 969 -75 630 194 
Q 291 463 197 991 
z
" id="ArialMT-73" transform="scale(0.015625)"/>
      <path id="ArialMT-20" transform="scale(0.015625)"/>
      <path d="M 556 0 
L 556 2881 
L 59 2881 
L 59 3319 
L 556 3319 
L 556 3672 
Q 556 4006 616 4169 
Q 697 4388 901 4523 
Q 1106 4659 1475 4659 
Q 1713 4659 2000 4603 
L 1916 4113 
Q 1741 4144 1584 4144 
Q 1328 4144 1222 4034 
Q 1116 3925 1116 3625 
L 1116 3319 
L 1763 3319 
L 1763 2881 
L 1116 2881 
L 1116 0 
L 556 0 
z
" id="ArialMT-66" transform="scale(0.015625)"/>
      <path d="M 416 0 
L 416 3319 
L 922 3319 
L 922 2816 
Q 1116 3169 1280 3281 
Q 1444 3394 1641 3394 
Q 1925 3394 2219 3213 
L 2025 2691 
Q 1819 2813 1613 2813 
Q 1428 2813 1281 2702 
Q 1134 2591 1072 2394 
Q 978 2094 978 1738 
L 978 0 
L 416 0 
z
" id="ArialMT-72" transform="scale(0.015625)"/>
      <path d="M 3384 2003 
L 350 706 
L 350 1266 
L 2753 2263 
L 350 3250 
L 350 3809 
L 3384 2528 
L 3384 2003 
z
" id="ArialMT-3e" transform="scale(0.015625)"/>
      <path d="M 791 -1347 
L 388 -1347 
Q 1322 153 1322 1656 
Q 1322 2244 1188 2822 
Q 1081 3291 891 3722 
Q 769 4003 388 4659 
L 791 4659 
Q 1378 3875 1659 3084 
Q 1900 2403 1900 1659 
Q 1900 816 1576 28 
Q 1253 -759 791 -1347 
z
" id="ArialMT-29" transform="scale(0.015625)"/>
      <path d="M 350 2003 
L 350 2528 
L 3384 3809 
L 3384 3250 
L 978 2263 
L 3384 1266 
L 3384 706 
L 350 2003 
z
" id="ArialMT-3c" transform="scale(0.015625)"/>
     </defs>
     <use xlink:href="#ArialMT-41"/>
     <use x="66.699219" xlink:href="#ArialMT-63"/>
     <use x="116.699219" xlink:href="#ArialMT-74"/>
     <use x="144.482422" xlink:href="#ArialMT-69"/>
     <use x="166.699219" xlink:href="#ArialMT-76"/>
     <use x="216.699219" xlink:href="#ArialMT-61"/>
     <use x="272.314453" xlink:href="#ArialMT-74"/>
     <use x="300.097656" xlink:href="#ArialMT-69"/>
     <use x="322.314453" xlink:href="#ArialMT-6f"/>
     <use x="377.929688" xlink:href="#ArialMT-6e"/>
     <use x="433.544922" xlink:href="#ArialMT-73"/>
     <use x="483.544922" xlink:href="#ArialMT-20"/>
     <use x="511.328125" xlink:href="#ArialMT-66"/>
     <use x="539.111328" xlink:href="#ArialMT-6f"/>
     <use x="594.726562" xlink:href="#ArialMT-72"/>
     <use x="628.027344" xlink:href="#ArialMT-20"/>
     <use x="655.810547" xlink:href="#ArialMT-3e"/>
     <use x="714.208984" xlink:href="#ArialMT-29"/>
     <use x="747.509766" xlink:href="#ArialMT-3c"/>
    </g>
   </g>
   <g id="legend_1">
    <g id="patch_7">
     <path d="M 640.044062 158.514363 
L 750.46 158.514363 
Q 752.66 158.514363 752.66 156.314363 
L 752.66 79.1528 
Q 752.66 76.9528 750.46 76.9528 
L 640.044062 76.9528 
Q 637.844062 76.9528 637.844062 79.1528 
L 637.844062 156.314363 
Q 637.844062 158.514363 640.044062 158.514363 
z
" style="fill:#ffffff;opacity:0.8;stroke:#cccccc;stroke-linejoin:miter;"/>
    </g>
    <g id="line2d_11">
     <path d="M 642.244062 85.376394 
L 664.244062 85.376394 
" style="fill:none;stroke:#4c72b0;stroke-linecap:round;stroke-width:1.5;"/>
    </g>
    <g id="line2d_12"/>
    <g id="text_17">
     <!-- regular -->
     <g style="fill:#262626;" transform="translate(673.044062 89.226394)scale(0.11 -0.11)">
      <defs>
       <path d="M 2694 1069 
L 3275 997 
Q 3138 488 2766 206 
Q 2394 -75 1816 -75 
Q 1088 -75 661 373 
Q 234 822 234 1631 
Q 234 2469 665 2931 
Q 1097 3394 1784 3394 
Q 2450 3394 2872 2941 
Q 3294 2488 3294 1666 
Q 3294 1616 3291 1516 
L 816 1516 
Q 847 969 1125 678 
Q 1403 388 1819 388 
Q 2128 388 2347 550 
Q 2566 713 2694 1069 
z
M 847 1978 
L 2700 1978 
Q 2663 2397 2488 2606 
Q 2219 2931 1791 2931 
Q 1403 2931 1139 2672 
Q 875 2413 847 1978 
z
" id="ArialMT-65" transform="scale(0.015625)"/>
       <path d="M 319 -275 
L 866 -356 
Q 900 -609 1056 -725 
Q 1266 -881 1628 -881 
Q 2019 -881 2231 -725 
Q 2444 -569 2519 -288 
Q 2563 -116 2559 434 
Q 2191 0 1641 0 
Q 956 0 581 494 
Q 206 988 206 1678 
Q 206 2153 378 2554 
Q 550 2956 876 3175 
Q 1203 3394 1644 3394 
Q 2231 3394 2613 2919 
L 2613 3319 
L 3131 3319 
L 3131 450 
Q 3131 -325 2973 -648 
Q 2816 -972 2473 -1159 
Q 2131 -1347 1631 -1347 
Q 1038 -1347 672 -1080 
Q 306 -813 319 -275 
z
M 784 1719 
Q 784 1066 1043 766 
Q 1303 466 1694 466 
Q 2081 466 2343 764 
Q 2606 1063 2606 1700 
Q 2606 2309 2336 2618 
Q 2066 2928 1684 2928 
Q 1309 2928 1046 2623 
Q 784 2319 784 1719 
z
" id="ArialMT-67" transform="scale(0.015625)"/>
       <path d="M 2597 0 
L 2597 488 
Q 2209 -75 1544 -75 
Q 1250 -75 995 37 
Q 741 150 617 320 
Q 494 491 444 738 
Q 409 903 409 1263 
L 409 3319 
L 972 3319 
L 972 1478 
Q 972 1038 1006 884 
Q 1059 663 1231 536 
Q 1403 409 1656 409 
Q 1909 409 2131 539 
Q 2353 669 2445 892 
Q 2538 1116 2538 1541 
L 2538 3319 
L 3100 3319 
L 3100 0 
L 2597 0 
z
" id="ArialMT-75" transform="scale(0.015625)"/>
       <path d="M 409 0 
L 409 4581 
L 972 4581 
L 972 0 
L 409 0 
z
" id="ArialMT-6c" transform="scale(0.015625)"/>
      </defs>
      <use xlink:href="#ArialMT-72"/>
      <use x="33.300781" xlink:href="#ArialMT-65"/>
      <use x="88.916016" xlink:href="#ArialMT-67"/>
      <use x="144.53125" xlink:href="#ArialMT-75"/>
      <use x="200.146484" xlink:href="#ArialMT-6c"/>
      <use x="222.363281" xlink:href="#ArialMT-61"/>
      <use x="277.978516" xlink:href="#ArialMT-72"/>
     </g>
    </g>
    <g id="line2d_13">
     <path d="M 642.244062 101.0978 
L 664.244062 101.0978 
" style="fill:none;stroke:#dd8452;stroke-dasharray:6,2.25;stroke-dashoffset:0;stroke-width:1.5;"/>
    </g>
    <g id="line2d_14"/>
    <g id="text_18">
     <!-- splitted_3s -->
     <g style="fill:#262626;" transform="translate(673.044062 104.9478)scale(0.11 -0.11)">
      <defs>
       <path d="M 422 -1272 
L 422 3319 
L 934 3319 
L 934 2888 
Q 1116 3141 1344 3267 
Q 1572 3394 1897 3394 
Q 2322 3394 2647 3175 
Q 2972 2956 3137 2557 
Q 3303 2159 3303 1684 
Q 3303 1175 3120 767 
Q 2938 359 2589 142 
Q 2241 -75 1856 -75 
Q 1575 -75 1351 44 
Q 1128 163 984 344 
L 984 -1272 
L 422 -1272 
z
M 931 1641 
Q 931 1000 1190 694 
Q 1450 388 1819 388 
Q 2194 388 2461 705 
Q 2728 1022 2728 1688 
Q 2728 2322 2467 2637 
Q 2206 2953 1844 2953 
Q 1484 2953 1207 2617 
Q 931 2281 931 1641 
z
" id="ArialMT-70" transform="scale(0.015625)"/>
       <path d="M 2575 0 
L 2575 419 
Q 2259 -75 1647 -75 
Q 1250 -75 917 144 
Q 584 363 401 755 
Q 219 1147 219 1656 
Q 219 2153 384 2558 
Q 550 2963 881 3178 
Q 1213 3394 1622 3394 
Q 1922 3394 2156 3267 
Q 2391 3141 2538 2938 
L 2538 4581 
L 3097 4581 
L 3097 0 
L 2575 0 
z
M 797 1656 
Q 797 1019 1065 703 
Q 1334 388 1700 388 
Q 2069 388 2326 689 
Q 2584 991 2584 1609 
Q 2584 2291 2321 2609 
Q 2059 2928 1675 2928 
Q 1300 2928 1048 2622 
Q 797 2316 797 1656 
z
" id="ArialMT-64" transform="scale(0.015625)"/>
       <path d="M -97 -1272 
L -97 -866 
L 3631 -866 
L 3631 -1272 
L -97 -1272 
z
" id="ArialMT-5f" transform="scale(0.015625)"/>
       <path d="M 269 1209 
L 831 1284 
Q 928 806 1161 595 
Q 1394 384 1728 384 
Q 2125 384 2398 659 
Q 2672 934 2672 1341 
Q 2672 1728 2419 1979 
Q 2166 2231 1775 2231 
Q 1616 2231 1378 2169 
L 1441 2663 
Q 1497 2656 1531 2656 
Q 1891 2656 2178 2843 
Q 2466 3031 2466 3422 
Q 2466 3731 2256 3934 
Q 2047 4138 1716 4138 
Q 1388 4138 1169 3931 
Q 950 3725 888 3313 
L 325 3413 
Q 428 3978 793 4289 
Q 1159 4600 1703 4600 
Q 2078 4600 2393 4439 
Q 2709 4278 2876 4000 
Q 3044 3722 3044 3409 
Q 3044 3113 2884 2869 
Q 2725 2625 2413 2481 
Q 2819 2388 3044 2092 
Q 3269 1797 3269 1353 
Q 3269 753 2831 336 
Q 2394 -81 1725 -81 
Q 1122 -81 723 278 
Q 325 638 269 1209 
z
" id="ArialMT-33" transform="scale(0.015625)"/>
      </defs>
      <use xlink:href="#ArialMT-73"/>
      <use x="50" xlink:href="#ArialMT-70"/>
      <use x="105.615234" xlink:href="#ArialMT-6c"/>
      <use x="127.832031" xlink:href="#ArialMT-69"/>
      <use x="150.048828" xlink:href="#ArialMT-74"/>
      <use x="177.832031" xlink:href="#ArialMT-74"/>
      <use x="205.615234" xlink:href="#ArialMT-65"/>
      <use x="261.230469" xlink:href="#ArialMT-64"/>
      <use x="316.845703" xlink:href="#ArialMT-5f"/>
      <use x="372.460938" xlink:href="#ArialMT-33"/>
      <use x="428.076172" xlink:href="#ArialMT-73"/>
     </g>
    </g>
    <g id="line2d_15">
     <path d="M 642.244062 116.6903 
L 664.244062 116.6903 
" style="fill:none;stroke:#55a868;stroke-dasharray:1.5,1.5;stroke-dashoffset:0;stroke-width:1.5;"/>
    </g>
    <g id="line2d_16"/>
    <g id="text_19">
     <!-- splitted_1s -->
     <g style="fill:#262626;" transform="translate(673.044062 120.5403)scale(0.11 -0.11)">
      <use xlink:href="#ArialMT-73"/>
      <use x="50" xlink:href="#ArialMT-70"/>
      <use x="105.615234" xlink:href="#ArialMT-6c"/>
      <use x="127.832031" xlink:href="#ArialMT-69"/>
      <use x="150.048828" xlink:href="#ArialMT-74"/>
      <use x="177.832031" xlink:href="#ArialMT-74"/>
      <use x="205.615234" xlink:href="#ArialMT-65"/>
      <use x="261.230469" xlink:href="#ArialMT-64"/>
      <use x="316.845703" xlink:href="#ArialMT-5f"/>
      <use x="372.460938" xlink:href="#ArialMT-31"/>
      <use x="428.076172" xlink:href="#ArialMT-73"/>
     </g>
    </g>
    <g id="line2d_17">
     <path d="M 642.244062 132.384206 
L 664.244062 132.384206 
" style="fill:none;stroke:#c44e52;stroke-dasharray:4.5,1.875,2.25,1.875;stroke-dashoffset:0;stroke-width:1.5;"/>
    </g>
    <g id="line2d_18"/>
    <g id="text_20">
     <!-- overlap_1f_3s -->
     <g style="fill:#262626;" transform="translate(673.044062 136.234206)scale(0.11 -0.11)">
      <use xlink:href="#ArialMT-6f"/>
      <use x="55.615234" xlink:href="#ArialMT-76"/>
      <use x="105.615234" xlink:href="#ArialMT-65"/>
      <use x="161.230469" xlink:href="#ArialMT-72"/>
      <use x="194.53125" xlink:href="#ArialMT-6c"/>
      <use x="216.748047" xlink:href="#ArialMT-61"/>
      <use x="272.363281" xlink:href="#ArialMT-70"/>
      <use x="327.978516" xlink:href="#ArialMT-5f"/>
      <use x="383.59375" xlink:href="#ArialMT-31"/>
      <use x="439.208984" xlink:href="#ArialMT-66"/>
      <use x="466.992188" xlink:href="#ArialMT-5f"/>
      <use x="522.607422" xlink:href="#ArialMT-33"/>
      <use x="578.222656" xlink:href="#ArialMT-73"/>
     </g>
    </g>
    <g id="line2d_19">
     <path d="M 642.244062 148.078113 
L 664.244062 148.078113 
" style="fill:none;stroke:#8172b3;stroke-dasharray:7.5,1.5,1.5,1.5;stroke-dashoffset:0;stroke-width:1.5;"/>
    </g>
    <g id="line2d_20"/>
    <g id="text_21">
     <!-- overlap_10f_3s -->
     <g style="fill:#262626;" transform="translate(673.044062 151.928112)scale(0.11 -0.11)">
      <use xlink:href="#ArialMT-6f"/>
      <use x="55.615234" xlink:href="#ArialMT-76"/>
      <use x="105.615234" xlink:href="#ArialMT-65"/>
      <use x="161.230469" xlink:href="#ArialMT-72"/>
      <use x="194.53125" xlink:href="#ArialMT-6c"/>
      <use x="216.748047" xlink:href="#ArialMT-61"/>
      <use x="272.363281" xlink:href="#ArialMT-70"/>
      <use x="327.978516" xlink:href="#ArialMT-5f"/>
      <use x="383.59375" xlink:href="#ArialMT-31"/>
      <use x="439.208984" xlink:href="#ArialMT-30"/>
      <use x="494.824219" xlink:href="#ArialMT-66"/>
      <use x="522.607422" xlink:href="#ArialMT-5f"/>
      <use x="578.222656" xlink:href="#ArialMT-33"/>
      <use x="633.837891" xlink:href="#ArialMT-73"/>
     </g>
    </g>
   </g>
  </g>
 </g>
 <defs>
  <clipPath id="pa5dde1afd7">
   <rect height="458.4888" width="652.86" x="105.3" y="71.4528"/>
  </clipPath>
 </defs>
</svg>
